<svg viewBox="0 0 108.26 138.53" xmlns="http://www.w3.org/2000/svg"><path d="M92.57 16.85H34.12a17 17 0 00-17 17v25.51a16.93 16.93 0 004.12 11.07 15.85 15.85 0 00-1.74 19 16.93 16.93 0 00-6.65 13.45v1.83a17 17 0 0017 17h46.54a17 17 0 0017-17v-1.83a17 17 0 00-17-17H33.06a4.83 4.83 0 010-9.65h39.05a17 17 0 0017-17l.08-29A2.28 2.28 0 0191.44 28h1.13a2.8 2.8 0 002.8-2.8v-5.56a2.79 2.79 0 00-2.8-2.79zm-10.37 86v1.83a5.82 5.82 0 01-5.81 5.82H29.85a5.83 5.83 0 01-5.85-5.78v-1.83a5.83 5.83 0 015.82-5.82h46.57a5.82 5.82 0 015.81 5.82zm-4.26-43.49a5.82 5.82 0 01-5.82 5.81h-38a5.82 5.82 0 01-5.82-5.81V33.81A5.83 5.83 0 0134.12 28h38a5.83 5.83 0 015.82 5.82z" fill="#1b1d3c"/></svg>