<svg width="400" height="400" xmlns="http://www.w3.org/2000/svg"><g transform="translate(53.096 -39.55) scale(.9249)"><circle cx="158.834" cy="259.004" r="194.617" stroke-width="2.162"/><path d="M176.123 113.747c4.722.908 5.046 1.51 3.081 5.72-1.956 4.19-1.857 3.243-1.921 18.383-.054 12.704-.322 17.53-1.012 18.22-.07.07-1.461.479-3.091.906-5.393 1.415-5.26 1.246-5.903 7.513-.279 2.71-.488 4.943-.466 4.965.022.021 5.553 1.2 12.29 2.62l12.25 2.58 6.643 3.742 6.644 3.742 4.871 8.016c2.68 4.41 4.911 8.016 4.959 8.016.049 0 3.85-1.443 8.45-3.207 4.598-1.764 8.403-3.165 8.454-3.114.124.124 4.125 27.513 4.031 27.591-.58.49-27.495 8.43-28.143 8.303-.45-.089-5.273-1.529-10.717-3.201-5.444-1.673-9.94-3.002-9.991-2.954-.052.048-.325 5.655-.607 12.46-.283 6.805-.542 12.39-.575 12.414-.034.023-2.257 1.862-4.94 4.088l-4.878 4.047-3.816-.13c-2.098-.071-12-.256-22.005-.411l-18.19-.282-5.885-3.636c-3.236-2-6.697-4.128-7.69-4.729-2.183-1.322-2.206-.647.2-5.919 1.104-2.417 2.007-4.552 2.007-4.743 0-.22 7.89-3.091 21.515-7.83 12.486-4.34 21.214-7.507 20.797-7.544-1.76-.154-42.433-1.163-44.602-1.107-4.105.107-13.352-4.502-17.96-8.952-.515-.498-1.328-25.536-.843-25.978 6.383-5.82 10.333-8.66 17.256-12.407l6.996-3.787 9.648.384c8.42.335 9.746.335 10.424-.004.427-.213 5.12-2.17 10.428-4.346l9.652-3.96-9.15-.593c-5.033-.326-9.34-.59-9.571-.586-.603.012-6.42-8.105-6.678-9.318-.113-.534-.841-5.198-1.617-10.363l-1.41-9.392 4.115-6.993c3.202-5.438 4.238-6.996 4.663-7.009.3-.01 5.722-.424 12.048-.923 12.224-.963 16.433-1.023 20.24-.292m81.408 58.76c2.856.275 4.726.78 5.66 1.527.574.458.874 3.458 1.5 14.99l.063 1.154-12.305 5.203c-6.767 2.86-12.504 5.265-12.749 5.343-.526.168-7.133-9.14-6.743-9.498.128-.118 2.038-.902 4.245-1.745 2.207-.843 4.076-1.57 4.154-1.617.078-.047 0-2.291-.174-4.987-.173-2.697-.242-5.024-.153-5.17.09-.147 1.168-1.5 2.396-3.005l2.233-2.737 4.6.143c2.529.079 5.802.259 7.273.4m-11.28 9.545c.084.7.3 2.956.478 5.016s.36 3.792.406 3.849c.112.14 10.264-2.744 10.25-2.913-.014-.182-10.815-7.222-11.08-7.222-.116 0-.14.572-.055 1.27m-70.815 21.495a4223.32 4223.32 0 01-6.389 12.232l-1.598 3.031 5.214-4.054 5.215-4.055.151-1.805c.084-.994.648-4.317 1.255-7.384 1.7-8.605 1.688-8.598-3.848 2.035m-58.626 60.13c3.395 1.016 9 2.536 12.458 3.38 3.457.844 6.43 1.61 6.608 1.703.207.11-.495 1.13-1.983 2.884l-2.304 2.715-2.75 6.868-2.75 6.87 8.343-.192c4.59-.105 8.359-.206 8.377-.225.018-.018.293-2.62.612-5.784.526-5.219.635-5.801 1.177-6.286.328-.295 2.54-1.952 4.913-3.684l4.315-3.148 4.527 3.208 4.527 3.207.475 6.093c.261 3.352.493 6.093.515 6.093l7.295-.083 7.257-.082-4.351-9.012c-2.394-4.957-4.316-9.052-4.272-9.1.045-.049 2.89-.37 6.324-.715 5.838-.586 6.532-.714 10.708-1.985 2.456-.747 4.63-1.359 4.83-1.359.2 0 5.354 5.687 11.452 12.636 13.457 15.34 13.554 15.442 22.721 24.014 16.555 15.48 18.808 18.377 21.233 27.308 1.572 5.79 2.24 7.433 7.925 19.501 2.952 6.267 5.651 12.491 6.677 15.397.978 2.77 1.28 2.262-2.727 4.61-1.432.84-2.606 1.67-2.608 1.843-.016 1.04 3.471 2.49 15.016 6.242 14.916 4.848 17.402 6.666 13.922 10.183-2.5 2.527-4.243 2.787-18.645 2.783-14.746-.004-18.738-.43-20.39-2.182-1.164-1.235-1.55-.423 4.493-9.48 2.954-4.426 5.331-8.078 5.283-8.117-.047-.04-4.96.39-10.92.955l-10.833 1.027-8.292-.704c-4.56-.387-8.413-.798-8.56-.914-.147-.114-5.256-10.425-11.352-22.91l-11.085-22.701-16.735-10.638-16.735-10.637-6.955.16c-3.825.087-7.897.232-9.05.321l-2.094.163-13.989 15.412-13.989 15.411-17.418 16.72-17.418 16.717-5.24.662-5.24.661-10.844-1.544c-5.964-.849-10.878-1.507-10.92-1.463-.042.043 2.505 3.561 5.66 7.818 3.154 4.256 5.7 7.871 5.658 8.035-.043.162-.98 1.704-2.083 3.424l-2.007 3.13-10.566-.019c-16.063-.027-16.38-.159-14.04-5.84 1.118-2.716 1.47-3.106 5.748-6.38 7.399-5.664 10.047-7.932 10.715-9.182.206-.383-.315-.934-3.026-3.2-1.802-1.505-3.266-2.93-3.253-3.164.07-1.346 36.766-51.428 43.078-58.791 3.508-4.092 9.45-11.439 13.204-16.326l6.825-8.885 2.447-6.228c1.345-3.426 2.649-6.86 2.896-7.634.551-1.718-.157-1.76 7.21.44" fill-rule="evenodd" stroke-width="1.026" display="block" fill="#fff"/></g></svg>