<svg width="240" height="68" fill="none" xmlns="http://www.w3.org/2000/svg"><path d="M21.164 37.3c0-2.392-.537-4.3-1.612-5.72-1.075-1.456-2.67-2.184-4.784-2.184-.693 0-1.335.034-1.924.104-.59.034-1.075.086-1.456.156v13.988c.485.312 1.11.572 1.872.78a9.442 9.442 0 002.392.312c3.675 0 5.512-2.48 5.512-7.436zm7.904-.208c0 2.114-.26 4.038-.78 5.772-.52 1.733-1.283 3.224-2.288 4.472a10.33 10.33 0 01-3.744 2.912c-1.49.693-3.207 1.04-5.148 1.04-1.075 0-2.08-.104-3.016-.312a14.519 14.519 0 01-2.704-.884v10.296H3.64V24.352c.693-.208 1.49-.4 2.392-.572a33.624 33.624 0 012.808-.52 44.408 44.408 0 013.016-.312 29.842 29.842 0 012.964-.156c2.253 0 4.264.346 6.032 1.04 1.768.658 3.259 1.612 4.472 2.86 1.213 1.213 2.132 2.704 2.756 4.472.659 1.768.988 3.744.988 5.928zm16.875 14.196c-2.253-.035-4.09-.278-5.512-.728-1.387-.451-2.496-1.075-3.328-1.872a6.795 6.795 0 01-1.664-2.964c-.278-1.18-.416-2.496-.416-3.952V11.664l7.748-1.248v29.796c0 .693.052 1.317.156 1.872.104.554.294 1.022.572 1.404.312.38.745.693 1.3.936.554.242 1.3.398 2.236.468l-1.092 6.396zm28.88-1.456c-1.316.38-3.015.728-5.095 1.04-2.08.346-4.264.52-6.552.52-2.323 0-4.264-.312-5.824-.936-1.525-.624-2.739-1.491-3.64-2.6-.901-1.144-1.543-2.496-1.924-4.056s-.572-3.276-.572-5.148V23.416h7.748v14.3c0 2.496.33 4.298.988 5.408.659 1.109 1.89 1.664 3.692 1.664.555 0 1.144-.018 1.768-.052a54.6 54.6 0 001.664-.208V23.416h7.748v26.416zm13.878-13.624c0 4.333 1.75 6.5 5.252 6.5.797 0 1.543-.104 2.236-.312.693-.208 1.283-.451 1.768-.728V29.292c-.381-.07-.832-.122-1.352-.156-.52-.07-1.127-.104-1.82-.104-2.045 0-3.57.676-4.576 2.028-1.005 1.352-1.508 3.068-1.508 5.148zm17.004 11.128c0 4.472-1.144 7.782-3.432 9.932-2.253 2.184-5.755 3.276-10.504 3.276-1.664 0-3.328-.156-4.992-.468a29.157 29.157 0 01-4.628-1.144l1.352-6.5a23 23 0 003.796 1.144c1.352.277 2.877.416 4.576.416 2.219 0 3.779-.486 4.68-1.456.936-.971 1.404-2.22 1.404-3.744v-.988a13.52 13.52 0 01-2.6.884c-.867.173-1.82.26-2.86.26-3.779 0-6.673-1.11-8.684-3.328-2.01-2.254-3.016-5.391-3.016-9.412 0-2.011.312-3.831.936-5.46.624-1.664 1.525-3.086 2.704-4.264 1.213-1.18 2.687-2.08 4.42-2.704 1.733-.66 3.692-.988 5.876-.988.936 0 1.89.052 2.86.156a40.76 40.76 0 012.964.312c.971.138 1.889.312 2.756.52.901.173 1.699.364 2.392.572v22.984zm15.015 3.432h-7.748V23.416h7.748v27.352zm.728-35.256c0 1.42-.468 2.548-1.404 3.38-.901.797-1.976 1.196-3.224 1.196-1.248 0-2.34-.4-3.276-1.196-.901-.832-1.352-1.96-1.352-3.38 0-1.422.451-2.531 1.352-3.328a4.777 4.777 0 013.276-1.248c1.248 0 2.323.416 3.224 1.248.936.797 1.404 1.906 1.404 3.328zM176.4 51.288c-2.253-.035-4.091-.278-5.512-.728-1.387-.451-2.496-1.075-3.328-1.872a6.798 6.798 0 01-1.664-2.964c-.277-1.18-.416-2.496-.416-3.952V11.664l7.748-1.248v29.796c0 .693.052 1.317.156 1.872.104.554.295 1.022.572 1.404.312.38.745.693 1.3.936.555.242 1.3.398 2.236.468l-1.092 6.396zm16.747-5.928c.762 0 1.49-.018 2.184-.052a15.22 15.22 0 001.664-.156v-5.876c-.312-.07-.78-.14-1.404-.208a15.62 15.62 0 00-1.716-.104c-.728 0-1.422.052-2.08.156a4.9 4.9 0 00-1.664.468 2.892 2.892 0 00-1.144.988c-.278.416-.416.936-.416 1.56 0 1.213.398 2.062 1.196 2.548.832.45 1.958.676 3.38.676zm-.624-22.672c2.288 0 4.194.26 5.72.78 1.525.52 2.738 1.265 3.64 2.236.936.97 1.594 2.149 1.976 3.536.381 1.386.572 2.929.572 4.628v16.12c-1.11.242-2.652.52-4.628.832-1.976.346-4.368.52-7.176.52-1.768 0-3.38-.156-4.836-.468-1.422-.312-2.652-.815-3.692-1.508a7.21 7.21 0 01-2.392-2.808c-.555-1.144-.832-2.548-.832-4.212 0-1.595.312-2.947.936-4.056a7.61 7.61 0 012.6-2.652c1.074-.66 2.305-1.127 3.692-1.404a19.598 19.598 0 014.316-.468c1.005 0 1.889.052 2.652.156.797.069 1.438.173 1.924.312v-.728c0-1.318-.399-2.375-1.196-3.172-.798-.798-2.184-1.196-4.16-1.196-1.318 0-2.618.104-3.9.312-1.283.173-2.392.433-3.328.78l-.988-6.24c.45-.14 1.005-.278 1.664-.416a19.72 19.72 0 012.236-.416 27.204 27.204 0 012.496-.312 23.558 23.558 0 012.704-.156zm36.438 14.196c0-4.992-1.837-7.488-5.512-7.488-.797 0-1.595.104-2.392.312-.763.208-1.387.468-1.872.78V44.58c.381.069.867.138 1.456.208a33.51 33.51 0 001.924.052c2.115 0 3.709-.728 4.784-2.184 1.075-1.456 1.612-3.38 1.612-5.772zm7.904.208c0 2.184-.329 4.16-.988 5.928-.624 1.768-1.543 3.276-2.756 4.524-1.213 1.248-2.704 2.218-4.472 2.912-1.768.658-3.779.988-6.032.988-.936 0-1.924-.052-2.964-.156a44.534 44.534 0 01-3.016-.312 59.183 59.183 0 01-2.808-.468 38.663 38.663 0 01-2.392-.624v-38.22l7.748-1.248V24.04a14.518 14.518 0 012.704-.884 13.884 13.884 0 013.016-.312c1.941 0 3.657.346 5.148 1.04a9.835 9.835 0 013.744 2.86c1.005 1.248 1.768 2.756 2.288 4.524.52 1.733.78 3.674.78 5.824z" fill="#0B2471"/><path d="M153.982 46.89l3.234-37.125-17.042 28.722 13.808 8.403z" fill="#143EBA"/><path d="M132.059 20.516l-3.234 37.125 17.042-28.722-13.808-8.403z" fill="#255CFF"/></svg>