<svg width="540" height="229" fill="none" xmlns="http://www.w3.org/2000/svg"><path d="M90.957 134.315a4.629 4.629 0 003.283 1.335v-.02h12.58a6.004 6.004 0 005.25-5.63v-18.12c0-1.22-.485-2.39-1.347-3.253a4.604 4.604 0 00-6.506 0 4.604 4.604 0 00-1.347 3.253v11.51c0 .796-.316 1.559-.879 2.121a2.996 2.996 0 01-2.121.879h-5.69a4.63 4.63 0 00-3.223 7.925zm-7.5-13.552a4.603 4.603 0 003.253 1.347 4.6 4.6 0 004.59-4.6V106a2.998 2.998 0 013-3h5.7a4.633 4.633 0 003.272-1.378 4.627 4.627 0 001.328-3.292 4.672 4.672 0 00-4.66-4.59H87.35a6 6 0 00-5.24 5.64v18.13c0 1.22.485 2.39 1.347 3.253z" fill="#4F0599"/><path fill-rule="evenodd" clip-rule="evenodd" d="M79.17 76.53H102a27.217 27.217 0 0125.187 16.778 27.214 27.214 0 012.083 10.422V140a14.37 14.37 0 01-13.13 12.79H92a27.249 27.249 0 01-19.291-7.968 27.244 27.244 0 01-7.989-19.282V91a14.48 14.48 0 0114.45-14.47zm29.703 10.67a18.11 18.11 0 00-6.953-1.38l-22.4-.04a5.66 5.66 0 00-5.58 5.68v33.91a18.125 18.125 0 0011.19 16.753 18.14 18.14 0 006.94 1.377h23.18a5.674 5.674 0 004.8-4.63V104a18.118 18.118 0 00-5.287-12.858 18.1 18.1 0 00-5.89-3.943z" fill="#4F0599"/><path d="M169 144.51a25.642 25.642 0 01-12.06-3.11 28.129 28.129 0 01-9.74-8.36 1.998 1.998 0 01.34-2.84l4.66-4.14a1.999 1.999 0 011.38-.52h.34a2.143 2.143 0 011.47.95 18.771 18.771 0 006.29 6.21 15.762 15.762 0 008.1 2.24c3.1 0 5.43-.61 6.89-1.9a5.89 5.89 0 002.07-4.91 6.204 6.204 0 00-2.24-5.26c-1.813-1.38-4.743-2.673-8.79-3.88-12-2.93-18-8.62-18-17 0-5.17 1.72-9.22 5.17-12.06s7.93-4.14 13.62-4.14a24.325 24.325 0 0120 9.48 2.138 2.138 0 01-.26 2.93l-4.53 3.8a1.93 1.93 0 01-1.38.52h-.26a2.006 2.006 0 01-1.46-.86 16.213 16.213 0 00-5.34-4.91 14.639 14.639 0 00-6.81-1.56 11.43 11.43 0 00-6.64 1.81 5.373 5.373 0 00-2.24 4.49 5.615 5.615 0 002.07 4.65c1.64 1.38 4.57 2.5 8.7 3.53 5.61 1.56 10 3.62 13.19 6.3 3.36 2.93 5.09 7 5.09 12.15a15.082 15.082 0 01-2.59 8.53 16.18 16.18 0 01-7 5.78 22.435 22.435 0 01-10.04 2.08zm44.62.17c-3.64.09-7.229-.868-10.34-2.76a18.654 18.654 0 01-7.07-7.59 22.575 22.575 0 01-2.5-10.86 21.997 21.997 0 012.5-10.77 18.732 18.732 0 017.07-7.58 20.301 20.301 0 0110.25-2.76 16.861 16.861 0 018.62 2.15 23.296 23.296 0 016.55 5.78 2.137 2.137 0 01-.34 2.93l-3.79 3a2.329 2.329 0 01-1.3.44h-.34a2.004 2.004 0 01-1.38-.87 9.296 9.296 0 00-7.93-4.48 10.541 10.541 0 00-5.34 1.47 9.758 9.758 0 00-3.71 4.22 16.078 16.078 0 000 12.93 10.002 10.002 0 003.71 4.31 8.931 8.931 0 005.34 1.46 10.068 10.068 0 005-1 11.483 11.483 0 003.62-3.1 2.131 2.131 0 012.84-.43l4.06 2.84a2.098 2.098 0 01.51 2.93.098.098 0 01-.003.034.066.066 0 01-.017.029.068.068 0 01-.027.02.075.075 0 01-.033.007 20.457 20.457 0 01-6.9 5.51 19.907 19.907 0 01-9.05 2.14z" fill="#4F0599"/><path fill-rule="evenodd" clip-rule="evenodd" d="M242.173 141.994a19.004 19.004 0 0010.147 2.686 16.653 16.653 0 008.11-1.98c.78-.47 1.55-.95 2.33-1.47v.09a2.091 2.091 0 002.07 2.06H270a2.094 2.094 0 001.455-.608c.386-.385.607-.906.615-1.452v-35.69a2.097 2.097 0 00-2.07-2.07h-5.18a2.097 2.097 0 00-2.07 2.07v.18a14.166 14.166 0 00-2.41-1.56 18.187 18.187 0 00-8.19-1.89A18.8 18.8 0 00235 112.7a24.399 24.399 0 000 21.63 18.998 18.998 0 007.173 7.664zm4.717-29.204a9.992 9.992 0 015.26-1.47 8.92 8.92 0 015.43 1.55 10.294 10.294 0 013.7 4.23 16 16 0 010 12.92 9.845 9.845 0 01-3.7 4.31 10.916 10.916 0 01-5.43 1.47 8.63 8.63 0 01-5.26-1.47 9.929 9.929 0 01-3.71-4.31 14.451 14.451 0 01-1.37-6.55 15.119 15.119 0 011.37-6.46 11.07 11.07 0 013.71-4.22z" fill="#4F0599"/><path d="M280.94 86.09h5.17a2.098 2.098 0 012.07 2.07v53.18a2.097 2.097 0 01-2.07 2.07h-5.17a2.097 2.097 0 01-2.07-2.07V88.16a1.99 1.99 0 01.585-1.486 2 2 0 011.485-.584zm89.327 56.997c.363.265.804.4 1.253.383l5.33-.01a2.12 2.12 0 002-1.46l11.72-35.71a2.093 2.093 0 00-1.21-2.58 3.658 3.658 0 00-.86-.18h-4.92a2.127 2.127 0 00-2 1.47l-7.07 22-7-22a1.998 1.998 0 00-2-1.47h-5.09a2.127 2.127 0 00-2 1.47l-7.26 22.27-7.16-22.24a1.998 1.998 0 00-2-1.47h-5.47c-.388.004-.77.093-1.12.26a2.11 2.11 0 00-1 2.5l11.81 35.69a2 2 0 002 1.46h5.17a2.001 2.001 0 002-1.38l7.32-21.37 6.81 21.29a2 2 0 00.747 1.077z" fill="#4F0599"/><path fill-rule="evenodd" clip-rule="evenodd" d="M411.6 144.68a19.059 19.059 0 01-17.32-10.35 24.465 24.465 0 010-21.63 18.802 18.802 0 017.123-7.666 18.8 18.8 0 0110.117-2.674c2.821.009 5.599.695 8.1 2 .853.435 1.661.954 2.41 1.55v-.17a2.176 2.176 0 012.07-2.16h5.26a2.097 2.097 0 012.07 2.07v35.69a2.087 2.087 0 01-.616 1.451 2.086 2.086 0 01-1.454.609h-5.17a2.086 2.086 0 01-1.454-.609 2.087 2.087 0 01-.616-1.451v-.09a23.103 23.103 0 01-2.33 1.47 17.252 17.252 0 01-8.19 1.96zm-.08-33.36a9.992 9.992 0 00-5.26 1.47 11 11 0 00-3.71 4.22 13.902 13.902 0 00-1.38 6.46 14.455 14.455 0 001.38 6.55 9.929 9.929 0 003.71 4.31 8.636 8.636 0 005.26 1.47c1.88.004 3.727-.504 5.34-1.47a9.929 9.929 0 003.71-4.31 16 16 0 000-12.92 9.789 9.789 0 00-3.71-4.23 8.66 8.66 0 00-5.34-1.55zm-86.54 19.172a2.297 2.297 0 011.64.398l3.53 2.57a.09.09 0 00.026.064c.017.016.04.026.064.026a2.327 2.327 0 01.833 2.454 2.317 2.317 0 01-.403.816 20.925 20.925 0 01-6.29 5.43 22.174 22.174 0 01-10.78 2.5 20.626 20.626 0 01-10.34-2.75 19.339 19.339 0 01-7.07-7.59 22.722 22.722 0 01-2.5-10.86 23.554 23.554 0 012.5-10.77 18.502 18.502 0 017-7.59 19.793 19.793 0 0110.17-2.76 18.805 18.805 0 0116.73 9.92 20.601 20.601 0 012.49 10.08c.021.804-.005 1.609-.08 2.41a2.073 2.073 0 01-2.07 1.9h-27a13.174 13.174 0 002.85 5.95 9.104 9.104 0 007.32 3.1 13.393 13.393 0 006.55-1.47 12.208 12.208 0 003.36-3 2.301 2.301 0 011.47-.828zm-15.046-18.647a9.008 9.008 0 00-3.054 1.975 11.397 11.397 0 00-2.88 4.4h18.74a9.789 9.789 0 00-2.59-4.74c-1.55-1.56-3.79-2.24-6.63-2.24a8.984 8.984 0 00-3.586.605z" fill="#4F0599"/><path d="M473.57 104.51a2.269 2.269 0 00-1.72-.86h-4.91a2.136 2.136 0 00-2 1.38l-10.08 26-9.57-26.12a2.174 2.174 0 00-2-1.29h-5.43a2.009 2.009 0 00-.985.249 2.009 2.009 0 00-.735.701 2.055 2.055 0 00-.18 2L450 143.64a5.508 5.508 0 01-2.07 3.45c-1.289.859-3.786.95-5.167 1h-.003a2.262 2.262 0 00-2.15 2.24v3.53a2.223 2.223 0 001.38 2.075c.273.111.565.168.86.165l.516.002.125.001c2.168.015 5.308.037 7.809-1.213 5.024-2.653 6.214-5.87 7.557-9.498.176-.474.354-.954.543-1.442l14.39-37.58a2.429 2.429 0 00-.22-1.86z" fill="#4F0599"/></svg>