<svg width="256" height="256" xmlns="http://www.w3.org/2000/svg" preserveAspectRatio="xMidYMid"><defs><radialGradient cx="0%" cy="100%" fx="0%" fy="100%" r="120.116%" gradientTransform="translate(0 .167) scale(.83253)" id="a"><stop stop-color="#00C812" offset="0%"/><stop stop-color="#006E00" offset="100%"/></radialGradient><radialGradient cx="0%" cy="0%" fx="0%" fy="0%" r="120.116%" gradientTransform="rotate(90) scale(.83253)" id="b"><stop stop-color="#56AFFD" offset="0%"/><stop stop-color="#04A3FF" offset="100%"/></radialGradient><radialGradient cx="100%" cy="0%" fx="100%" fy="0%" r="120.116%" gradientTransform="rotate(180 .916 0) scale(.83253)" id="c"><stop stop-color="#DF1F00" offset="0%"/><stop stop-color="#560D00" offset="100%"/></radialGradient><radialGradient cx="100%" cy="100.001%" fx="100%" fy="100.001%" r="120.116%" gradientTransform="matrix(0 -.83254 .83253 0 .167 1.833)" id="d"><stop stop-color="#00FFFD" offset="0%"/><stop stop-color="#00DAFF" offset="100%"/></radialGradient><radialGradient cx="0%" cy="100%" fx="0%" fy="100%" r="100%" id="e"><stop stop-color="#008200" offset="0%"/><stop stop-color="#007500" offset="100%"/></radialGradient><radialGradient cx="0%" cy="0%" fx="0%" fy="0%" r="100%" gradientTransform="rotate(90)" id="f"><stop stop-color="#3166D4" offset="0%"/><stop stop-color="#1A509E" offset="100%"/></radialGradient><radialGradient cx="100%" cy="0%" fx="100%" fy="0%" r="100%" gradientTransform="rotate(180 1 0)" id="g"><stop stop-color="#8E1400" offset="0%"/><stop stop-color="#4B0B00" offset="100%"/></radialGradient><radialGradient cx="100%" cy="100.001%" fx="100%" fy="100.001%" r="99.999%" gradientTransform="rotate(-90 1 1)" id="h"><stop stop-color="#0090C4" offset="0%"/><stop stop-color="#005D8C" offset="100%"/></radialGradient><radialGradient cx="0%" cy="99.999%" fx="0%" fy="99.999%" r="100%" gradientTransform="scale(1 .99999)" id="i"><stop stop-color="#00CD1C" offset="0%"/><stop stop-color="#00E950" offset="100%"/></radialGradient><radialGradient cx="0%" cy="0%" fx="0%" fy="0%" r="100%" gradientTransform="rotate(90)" id="j"><stop stop-color="#B1C8FD" offset="0%"/><stop stop-color="#7EC3FD" offset="100%"/></radialGradient><radialGradient cx="100%" cy="0%" fx="100%" fy="0%" r="100%" gradientTransform="rotate(180 1 0)" id="k"><stop stop-color="#E12A00" offset="0%"/><stop stop-color="#B62F00" offset="100%"/></radialGradient><radialGradient cx="100%" cy="100%" fx="100%" fy="100%" r="99.998%" gradientTransform="matrix(0 -1 1.00002 0 0 2)" id="l"><stop stop-color="#00B6DD" offset="0%"/><stop stop-color="#0FF" offset="100%"/></radialGradient></defs><path d="M179.2 230.4H256L133.12 128c-1.687 37.193 14.687 73.58 46.08 102.4" fill="url(#a)"/><path d="M25.6 179.2V256L128 133.12a115.427 115.427 0 00-5.225-.118c-35.36.002-69.708 16.279-97.175 46.198" fill="url(#b)"/><path d="M0 25.6L122.88 128c1.687-37.192-14.687-73.58-46.08-102.4H0z" fill="url(#c)"/><path d="M230.4 0L128 122.879c37.193 1.688 73.58-14.687 102.4-46.08V0z" fill="url(#d)"/><path d="M128 128c-11.479 29.755-9.745 60.086 5.12 89.601 15.36 7.679 28.16 12.799 46.08 12.799-31.393-28.82-47.767-65.207-46.08-102.4H128z" fill="url(#e)"/><path d="M38.4 133.12c-7.679 15.361-12.8 28.16-12.8 46.08 28.819-31.393 65.207-47.766 102.4-46.08V128c-12.944-4.993-25.994-7.486-39.04-7.486-16.946.001-33.884 4.207-50.56 12.606" fill="url(#f)"/><path d="M122.88 128H128c11.478-29.755 9.745-60.087-5.12-89.6-15.36-7.68-28.159-12.8-46.08-12.8 31.393 28.82 47.767 65.208 46.08 102.4" fill="url(#g)"/><path d="M128 122.879V128c29.755 11.478 60.086 9.744 89.6-5.121 7.68-15.358 12.8-28.158 12.8-46.08-28.82 31.393-65.207 47.768-102.4 46.08" fill="url(#h)"/><path d="M71.68 166.4l61.44 51.201C118.255 188.086 116.521 157.755 128 128c-1.776-.592-3.858-.876-6.158-.876-17.599.001-47.898 16.635-50.162 39.276" fill="url(#i)"/><path d="M38.4 133.12c29.514-14.865 59.845-16.598 89.6-5.12 5.12-15.359-12.8-53.76-38.4-56.32l-51.2 61.44z" fill="url(#j)"/><path d="M128 128c15.36 5.12 53.759-12.8 56.32-38.4l-61.44-51.2c14.865 29.513 16.598 59.845 5.12 89.6" fill="url(#k)"/><path d="M128 128c-5.12 15.361 12.8 53.76 38.4 56.32l51.2-61.441c-29.514 14.865-59.845 16.599-89.6 5.121" fill="url(#l)"/><path d="M128 121.6a6.4 6.4 0 110 12.8 6.4 6.4 0 010-12.8"/></svg>