<svg width="256" height="308" xmlns="http://www.w3.org/2000/svg" preserveAspectRatio="xMidYMid"><path d="M172.965 115.543c-6.606-15.94-23.657-22.952-51.123-21.065-22.52-22.163-47.417-32.718-81.179 0-12.453-1.24-24.138-1.703-30.376 3.339l6.485 42.902 77.583 20.038 78.61-45.214z" fill="#5BC5DF"/><path d="M248.492 132.755c-7.407-8.812-21.8-11.028-38.792-10.79-23.634-30.057-62.977-24.088-81.949 1.285-25.104-7.062-43.216-4.094-52.664 11.303l43.158 23.377 53.178 16.955 60.614 8.078 16.455-50.208z" fill="#3189AA"/><path d="M22.72 77.445l44.746-19.378V35.46l60.302-14.344 61.296 14.371v22.497l45.179 20.174c1.316 11.022 3.225 38.672-4.806 72.026a209.623 209.623 0 01-3.92 14.101c-17.844-8.442-35.052-6.155-51.781 4.18-16.447-12.29-34.107-18.95-53.95-15.5-26.19-31.718-58.895-40.956-98.111-27.736-2.372-22.349-.3-39.796 1.046-47.784m230.962-8.312l-1.013-5.255-43.054-19.225V19.196L127.734 0l-80.82 19.223V44.57L4.97 62.736l-1.242 4.897c-.373 1.472-9.023 36.602 1.374 83.447 6.09 27.44 17.48 53.287 33.858 76.821 20.33 29.217 48.403 54.867 83.44 76.241l5.174 3.157 5.265-3c34.014-19.385 61.56-43.779 81.877-72.504 16.31-23.06 27.984-48.9 34.702-76.799 11.432-47.48 4.564-84.318 4.265-85.863" fill="#136A8F"/><path d="M128 0l-.427 307.299C287.54 219.329 252.67 63.878 252.67 63.878l-43.055-19.224V19.196L128 0z" fill-opacity=".15"/></svg>