<svg width="256" height="308" xmlns="http://www.w3.org/2000/svg" preserveAspectRatio="xMidYMid"><path fill="#99BCE3" d="M.822 207.604L128 307.2l127.179-99.596-127.183-15.812z"/><path fill="#19486F" d="M128 0L0 99.591l127.175 15.813L256 99.596z"/><path fill="#1F5B99" d="M128 0L0 63.591v36.005l128-38.155zM0 243.609l128 63.59v-61.441L0 207.608zm128-43.555l-55.467-8.125v-76.037l55.467-8 1.309 2.532-.138 87.099z"/><path fill="#5294CF" d="M128 0v61.441l128 38.155V63.591zm0 245.758V307.2l128-63.591v-36zm0-45.704l55.467-8.125v-76.037l-55.467-8z"/></svg>