<svg width="256" height="283" xmlns="http://www.w3.org/2000/svg" preserveAspectRatio="xMidYMid"><path d="M128.338.078a38.792 38.792 0 00-19.408 5.2L20.244 56.481A38.815 38.815 0 00.836 90.096v102.407a38.813 38.813 0 0019.408 33.615l88.686 51.204a38.793 38.793 0 0019.408 5.2 38.797 38.797 0 0019.408-5.2l88.686-51.204a38.813 38.813 0 0019.409-33.615V90.096a38.815 38.815 0 00-19.409-33.615L147.746 5.278a38.788 38.788 0 00-19.408-5.2" fill="#FFF"/><path d="M236.432 56.482L147.746 5.278a38.814 38.814 0 00-38.816 0L20.244 56.482A38.812 38.812 0 00.836 90.096v102.407a38.813 38.813 0 0019.408 33.615l88.686 51.204a38.814 38.814 0 0038.816 0l88.686-51.204a38.813 38.813 0 0019.409-33.615V90.096a38.812 38.812 0 00-19.409-33.614zm7.21 131.123a35.1 35.1 0 01-17.55 30.398l-80.203 46.306a35.101 35.101 0 01-35.102 0l-80.202-46.306a35.101 35.101 0 01-17.55-30.398v-92.61a35.099 35.099 0 0117.55-30.398l80.202-46.305a35.101 35.101 0 0135.102 0l80.203 46.305a35.099 35.099 0 0117.55 30.398v92.61z" fill="#298AEC"/><path d="M73.68 109.916h112.986v9.905H73.68v-9.905zm0 33.308h112.986v9.905H73.68v-9.905zm0 33.199h112.986v9.905H73.68v-9.905z" fill="#44546C"/></svg>