<svg width="256" height="184" xmlns="http://www.w3.org/2000/svg" preserveAspectRatio="xMidYMid"><path fill="#EB2926" d="M21.062 0h32.815v24.785H21.062z"/><path fill="#F26925" d="M55.273 0h69.004v24.785H55.273z"/><path fill="#A8CF38" d="M126.138 0h129.047v24.785H126.138z"/><path fill="#F26925" d="M167.796 52.945h58.996V77.73h-58.996z"/><path fill="#EB2926" d="M104.611 52.945h61.207V77.73h-61.207z"/><path fill="#F26925" d="M22.225 104.727h59.229v24.785H22.225z"/><path fill="#0BB1DC" d="M82.735 104.727h83.2v24.785h-83.2z"/><path fill="#EB2926" d="M167.796 104.727h85.644v24.785h-85.644z"/><path fill="#FBEC06" d="M109.615 158.255h71.796v24.785h-71.796z"/><path fill="#0BB1DC" d="M184.087 158.255h40.611v24.785h-40.611z"/><path fill="#A8CF38" d="M.815 158.255h106.589v24.785H.815z"/><path fill="#0BB1DC" d="M2.211 52.945h101.236V77.73H2.211z"/></svg>