<svg width="256" height="256" xmlns="http://www.w3.org/2000/svg" preserveAspectRatio="xMidYMid"><path d="M128 0C57.302 0 0 57.315 0 128.006 0 198.692 57.302 256 128 256c70.692 0 128-57.302 128-127.994C255.994 57.321 198.692 0 128 0z" fill="#3B8AF0"/><path d="M209.546 93.82a5.428 5.428 0 00-4.098-.556 5.784 5.784 0 00-1.254.525l-69.436 40.46a5.494 5.494 0 00-2.717 4.743v21.33c0 .978.262 1.918.722 2.73a5.47 5.47 0 001.976 1.995 5.416 5.416 0 005.377.02c.013-.007.032-.014.045-.026l22.826-13.306v.045l.044-.026v49.45c0 .972.256 1.911.723 2.73a5.671 5.671 0 001.95 1.963 5.586 5.586 0 002.71.722c.94 0 1.874-.256 2.718-.722l13.645-7.954a5.499 5.499 0 002.71-4.75v-55.741l22.053-12.84a5.496 5.496 0 002.71-4.756V98.558a5.464 5.464 0 00-2.704-4.737zm-77.505-17.704a5.505 5.505 0 002.717 4.75l20.997 12.232c.09.058.167.134.25.192l.607.352c.115.07.18.191.18.326v.716c.012.096.037.185.037.281v14.808a2.165 2.165 0 002.673 2.11c.173-.051.352-.115.518-.211 8.504-4.949 31.361-18.248 39.782-23.133 1.432-.824 1.4-2.858-.02-3.695l-59.615-34.725a5.357 5.357 0 00-5.428 0 5.512 5.512 0 00-2.52 3.293 5.578 5.578 0 00-.178 1.387v21.317zm-9.59-25.99a5.369 5.369 0 00-5.435 0l-59.641 34.75c-1.407.818-1.433 2.813-.045 3.638a53058.01 53058.01 0 0139.884 23.184c1.413.818 3.171-.211 3.171-1.848V94.952c0-.025.007-.038.007-.064v-1.131l.876-.505c.064-.045.108-.103.172-.135L121.39 81.5a7.642 7.642 0 003.516-4.59 7.724 7.724 0 00.256-1.964V54.863a5.476 5.476 0 00-2.71-4.737zm-1.17 84.122l-42.059-24.507-27.327-15.914a5.357 5.357 0 00-5.428 0 5.466 5.466 0 00-2.718 4.731v21.298a5.507 5.507 0 002.718 4.757l22.052 12.839v55.74a5.497 5.497 0 002.71 4.75l13.652 7.955a5.604 5.604 0 002.71.722c.94 0 1.874-.256 2.718-.722a5.55 5.55 0 002.513-3.287 5.69 5.69 0 00.179-1.406v-49.456l.019.013v-.026l22.825 13.306c.02.012.032.019.052.025a5.416 5.416 0 005.377-.019 5.518 5.518 0 002.717-4.75v-21.31a5.513 5.513 0 00-2.71-4.739z" fill="#FFF"/></svg>