<svg xmlns="http://www.w3.org/2000/svg" width="256" height="256"><switch><g><path fill="#0095DD" d="M70.956 195.781a4.698 4.698 0 01-4.538-5.911c7.757-28.959 6.274-106.436 6.257-107.217a4.692 4.692 0 014.599-4.785c.033-.003.065-.003.096-.003a4.694 4.694 0 014.692 4.6c.066 3.235 1.523 79.604-6.574 109.838a4.698 4.698 0 01-4.532 3.478z"/><path fill="#7658B1" d="M138.613 137.416c-9.441 0-17.392-3.89-17.905-4.149a4.692 4.692 0 01-2.099-6.295 4.697 4.697 0 016.291-2.104c.279.138 14.777 7.093 24.519-.106a4.688 4.688 0 016.564.982 4.693 4.693 0 01-.983 6.564c-5.22 3.86-11.042 5.108-16.387 5.108z"/><path fill="#FF8A12" d="M157.21 182.926c-3.751 0-7.997-.229-12.773-.52a4.697 4.697 0 01-4.399-4.976c.158-2.587 2.364-4.541 4.972-4.397 9.839.604 20.985 1.291 23.67-1.979 1.954-2.384 1.542-8.912-1.228-19.4-6.796-25.732-.888-34.402 5.185-40.505a23.8 23.8 0 001.159-1.207c4.105-4.685 17.407-11.937 20.03-13.342a4.693 4.693 0 016.354 1.919 4.697 4.697 0 01-1.919 6.356c-5.905 3.163-15.207 8.747-17.399 11.248a35.726 35.726 0 01-1.567 1.647c-3.487 3.505-8.758 8.8-2.767 31.483 3.834 14.525 3.664 22.566-.591 27.753-3.819 4.658-9.913 5.92-18.727 5.92z"/><path fill="#DB0012" d="M147.883 250.904c-11.599 0-22.975-5.176-30.923-14.549-18.702-22.059-32.376-21.854-32.535-21.873-2.591.174-4.751-1.9-4.878-4.456-.128-2.556 1.769-4.738 4.32-4.914 1.832-.107 18.498-.489 40.253 25.171 8.251 9.731 20.661 13.542 32.386 9.94 22.843-7.014 39.016-39.527 44.365-89.201 4.729-43.903 7.528-88.793-14.181-112.962-12.908-14.376-33.947-21.362-64.317-21.362-65.216 0-78.645 42.503-81.391 60.778-4.135 27.518 6.459 56.024 22.668 61.009a4.695 4.695 0 013.107 5.868 4.699 4.699 0 01-5.867 3.104c-20.683-6.359-34.051-39.044-29.193-71.376 6.473-43.063 40.37-68.772 90.677-68.772 33.188 0 56.511 8.008 71.303 24.479 24.289 27.045 21.484 74.229 16.529 120.24-7.904 73.36-35.312 92.368-50.944 97.17a38.757 38.757 0 01-11.379 1.706z"/></g></switch></svg>