<svg width="256" height="256" xmlns="http://www.w3.org/2000/svg" xmlns:xlink="http://www.w3.org/1999/xlink" preserveAspectRatio="xMidYMid"><defs><linearGradient x1="50%" y1="10.483%" x2="50%" y2="0%" id="c"><stop stop-color="#B70000" offset="0%"/><stop stop-color="#FF2E2E" offset="100%"/></linearGradient><linearGradient x1="94.226%" y1="28.491%" x2="34.906%" y2="61.944%" id="d"><stop stop-color="#B70000" offset="0%"/><stop stop-color="#FF2E2E" offset="100%"/></linearGradient><linearGradient x1="88.559%" y1="50%" x2="5.268%" y2="100%" id="e"><stop stop-color="#B70000" offset="0%"/><stop stop-color="#FF2E2E" offset="100%"/></linearGradient><linearGradient x1="95.265%" y1="9.313%" x2="11.984%" y2="62.083%" id="f"><stop stop-color="#B70000" offset="0%"/><stop stop-color="#FF2E2E" offset="100%"/></linearGradient><linearGradient x1="67.157%" y1="76.561%" x2="0%" y2="94.308%" id="g"><stop stop-color="#B70000" offset="0%"/><stop stop-color="#FF2E2E" offset="100%"/></linearGradient><linearGradient x1="80.669%" y1="52.178%" x2="0%" y2="50%" id="h"><stop stop-color="#B70000" offset="0%"/><stop stop-color="#FF2E2E" offset="100%"/></linearGradient><linearGradient x1="76.623%" y1="50%" x2="4.689%" y2="28.878%" id="i"><stop stop-color="#B70000" offset="0%"/><stop stop-color="#FF2E2E" offset="100%"/></linearGradient><linearGradient x1="93.74%" y1="5.415%" x2="8.898%" y2="10.995%" id="j"><stop stop-color="#B70000" offset="0%"/><stop stop-color="#FF2E2E" offset="100%"/></linearGradient><linearGradient x1="10.939%" y1="11.453%" x2="55.049%" y2="91.134%" id="k"><stop stop-color="#D13700" offset="0%"/><stop stop-color="#F94721" offset="100%"/></linearGradient><linearGradient x1="11.961%" y1="33.29%" x2="100%" y2="100%" id="l"><stop stop-color="#B70000" offset="0%"/><stop stop-color="#FF2E2E" offset="100%"/></linearGradient><linearGradient x1="4.797%" y1="0%" x2="78.89%" y2="76.442%" id="m"><stop stop-color="#B70000" offset="0%"/><stop stop-color="#FF2E2E" offset="100%"/></linearGradient><linearGradient x1="11.984%" y1="20.017%" x2="85.891%" y2="85.868%" id="n"><stop stop-color="#B70000" offset="0%"/><stop stop-color="#FF2E2E" offset="100%"/></linearGradient><linearGradient x1="0%" y1="3.653%" x2="95.693%" y2="50%" id="o"><stop stop-color="#B70000" offset="0%"/><stop stop-color="#FF2E2E" offset="100%"/></linearGradient><linearGradient x1="20.672%" y1="38.837%" x2="97.357%" y2="100%" id="p"><stop stop-color="#B70000" offset="0%"/><stop stop-color="#FF2E2E" offset="100%"/></linearGradient><linearGradient x1="25.056%" y1="10%" x2="100%" y2="88.645%" id="q"><stop stop-color="#B70000" offset="0%"/><stop stop-color="#FF2E2E" offset="100%"/></linearGradient><circle id="a" cx="128" cy="128" r="128"/></defs><mask id="b" fill="#fff"><use xlink:href="#a"/></mask><g mask="url(#b)"><g transform="translate(-1.92)"><circle fill="url(#c)" cx="129.92" cy="128" r="128"/><path d="M30.699 208.871C32 215.68 68.16 250.304 94.08 251.52c0 0 3.423-14.61 5.983-38.93L30.7 208.87z" fill="url(#d)"/><path d="M30.699 208.871C32 215.68 68.16 250.304 94.08 251.52c0 0 3.423-14.61 5.983-38.93L30.7 208.87z" fill="#FD4B00"/><path d="M99.912 212.819c3.59-14.496 9.297-35.892 16.568-53.459l-85.781 49.511 69.213 3.948z" fill="url(#e)"/><path d="M99.912 212.819c3.59-14.496 9.297-35.892 16.568-53.459l-85.781 49.511 69.213 3.948z" fill-opacity=".8" fill="#FD4B00"/><path d="M116.148 160.579L4.911 155.636C3.84 165.76 17.28 200.96 30.7 208.87l85.45-48.292z" fill="url(#f)"/><path d="M116.148 160.579L4.911 155.636C3.84 165.76 17.28 200.96 30.7 208.87l85.45-48.292z" fill-opacity=".6" fill="#FD4B00"/><path d="M116.218 160.97c4.64-11.211 21.058-42.17 23.302-45.77L4.911 155.636" fill="url(#g)"/><path d="M116.218 160.97c4.64-11.211 21.058-42.17 23.302-45.77L4.911 155.636" fill-opacity=".4" fill="#FD4B00"/><path d="M142.594 115.816L16.397 68.81C-2.56 87.68-2.56 145.92 4.911 155.636l137.683-39.82z" fill="url(#h)"/><path d="M142.594 115.816L16.397 68.81C-2.56 87.68-2.56 145.92 4.911 155.636l137.683-39.82z" fill-opacity=".2" fill="#FD4B00"/><path d="M139.518 115.435c19.2-26.88 37.183-51.885 49.922-66.155L16.397 68.811l123.121 46.624z" fill="url(#i)"/><path d="M188.44 51.714a5299.125 5299.125 0 0021.48-24.194l-118.015.095-41.473.033C31.36 39.04 21.12 48.166 16.397 68.811L188.44 51.714z" fill="url(#j)"/><path d="M188.44 51.714a5299.125 5299.125 0 0021.48-24.194l-118.015.095-41.473.033C31.36 39.04 21.12 48.166 16.397 68.811L188.44 51.714z" fill-opacity=".1" fill="#632003"/><path d="M177.197 246.989l-69.302-34.642c-1.192-.596-31.275 31.619-6.225 40.516 25.05 8.897 58.97 3.137 75.527-5.874z" fill="url(#k)"/><path d="M177.197 246.989l-69.302-34.642c-1.192-.596-31.275 31.619-6.225 40.516 25.05 8.897 58.97 3.137 75.527-5.874z" fill="#FD4B00"/><path d="M177.197 246.989L122.88 162.56s-6.599 17.068-10.88 30.72c-3.374 10.758-5.767 20.531-5.26 20.785 23.142 11.567 70.457 32.924 70.457 32.924z" fill="url(#l)"/><path d="M177.197 246.989L122.88 162.56s-6.599 17.068-10.88 30.72c-3.374 10.758-5.767 20.531-5.26 20.785 23.142 11.567 70.457 32.924 70.457 32.924z" fill-opacity=".8" fill="#FD4B00"/><path d="M177.194 246.987c23.766-5.067 55.766-35.787 59.324-48.1L122.88 163.2l54.314 83.787z" fill="url(#m)"/><path d="M177.194 246.987c23.766-5.067 55.766-35.787 59.324-48.1L122.88 163.2l54.314 83.787z" fill-opacity=".6" fill="#FD4B00"/><path d="M236.515 198.887s-59.52-54.883-89.715-81.36c-.319-.28-9.973 14.772-15.6 25.833-5.719 11.24-9.11 20.274-8.585 20.438 37.692 11.784 113.9 35.089 113.9 35.089z" fill="url(#n)"/><path d="M236.515 198.887s-59.52-54.883-89.715-81.36c-.319-.28-9.973 14.772-15.6 25.833-5.719 11.24-9.11 20.274-8.585 20.438 37.692 11.784 113.9 35.089 113.9 35.089z" fill-opacity=".4" fill="#FD4B00"/><path d="M236.518 198.886C250.88 184.32 261.12 161.28 257.92 128L144 117.76l92.518 81.126z" fill="url(#o)"/><path d="M236.518 198.886C250.88 184.32 261.12 161.28 257.92 128L144 117.76l92.518 81.126z" fill-opacity=".2" fill="#FD4B00"/><path d="M257.92 128s-41.679-49.403-63.36-72.96c-.242-.263-13.882 15.51-24.96 30.08-12.031 15.825-24.177 33.875-23.68 33.92 37.019 3.328 112 8.96 112 8.96z" fill="url(#p)"/><path d="M257.92 128s-41.679-49.403-63.36-72.96c-.242-.263-13.882 15.51-24.96 30.08-12.031 15.825-24.177 33.875-23.68 33.92 37.019 3.328 112 8.96 112 8.96z" fill="none"/><path d="M257.92 128c0-58.88-31.36-87.68-42.257-94.924 0 0-10.863 11.084-23.023 23.884L257.92 128z" fill="url(#q)"/><path d="M257.92 128c0-58.88-31.36-87.68-42.257-94.924 0 0-10.863 11.084-23.023 23.884L257.92 128z" fill-opacity=".1" fill="#632003"/><path d="M50.304 27.655h159.488C192.128 45.32 176.064 63.623 161.6 82.567c-14.464 18.944-26.88 38.848-37.248 59.712-10.368 20.864-18.304 42.816-23.808 65.856-5.504 23.04-8.128 47.36-7.872 72.96h7.68c0-26.112 2.816-50.496 8.448-73.152 5.632-22.656 13.568-44.16 23.808-64.512 10.24-20.352 22.656-39.872 37.248-58.56 14.592-18.688 30.72-36.864 48.384-54.528V19.975H50.304v7.68z" fill="#FFF"/></g></g></svg>