<svg width="256" height="187" xmlns="http://www.w3.org/2000/svg" preserveAspectRatio="xMidYMid"><path d="M121.474 45.319c5.002-9.665 8.723-21.757 11.188-36.229C74.323-13.82 3.547 3.998 0 92.203c.947 81.901 66.864 111.884 139.855 83.38l35.962-126.002 34.631 131.33c15.912 2.698 31.174 2.986 45.552 0L200.058 1.898c-16.693-2.53-31.966-2.53-45.818 0L130.531 76.22c7.959 2.397 17.192 3.257 25.307 4.795H86.843c-2.206 12.485-2.056 24.249 0 35.43h30.902l-8.792 27.704c-36.495 9.49-62.468-3.796-62.867-52.745 1.165-46.618 26.023-63.613 75.388-46.085" fill="#2C3345"/></svg>