<svg width="256" height="297" xmlns="http://www.w3.org/2000/svg" xmlns:xlink="http://www.w3.org/1999/xlink" preserveAspectRatio="xMidYMid"><defs><path d="M127.683 0C57.166 0 0 55.79 0 124.612s57.166 124.613 127.683 124.613l.271 46.913c65.606-37.27 128-87.019 128-171.526C255.954 55.791 198.2 0 127.683 0z" id="c"/><path d="M127.683 0C57.166 0 0 55.79 0 124.612s57.166 124.613 127.683 124.613l.271 46.913c65.606-37.27 128-87.019 128-171.526C255.954 55.791 198.2 0 127.683 0z" id="e"/><path d="M127.683 0C57.166 0 0 55.79 0 124.612s57.166 124.613 127.683 124.613l.271 46.913c65.606-37.27 128-87.019 128-171.526C255.954 55.791 198.2 0 127.683 0z" id="f"/><path d="M55.58 128.105v34.239c0 9.039 7.396 16.435 16.435 16.435h85.016c9.039 0 16.434-7.396 16.434-16.435v-21.623l33.66 33.66v-46.276H55.58z" id="j"/><filter x="-.4%" y="-.3%" width="100.8%" height="100.7%" filterUnits="objectBoundingBox" id="b"><feOffset dy="2" in="SourceAlpha" result="shadowOffsetInner1"/><feComposite in="shadowOffsetInner1" in2="SourceAlpha" operator="arithmetic" k2="-1" k3="1" result="shadowInnerInner1"/><feColorMatrix values="0 0 0 0 1 0 0 0 0 1 0 0 0 0 1 0 0 0 0.2 0" in="shadowInnerInner1"/></filter><filter x="-.4%" y="-.3%" width="100.8%" height="100.7%" filterUnits="objectBoundingBox" id="d"><feOffset dy="-2" in="SourceAlpha" result="shadowOffsetInner1"/><feComposite in="shadowOffsetInner1" in2="SourceAlpha" operator="arithmetic" k2="-1" k3="1" result="shadowInnerInner1"/><feColorMatrix values="0 0 0 0 0 0 0 0 0 0 0 0 0 0 0 0 0 0 0.1 0" in="shadowInnerInner1"/></filter><filter x="-1%" y="-3%" width="102.6%" height="111.8%" filterUnits="objectBoundingBox" id="i"><feOffset dx="1" dy="3" in="SourceAlpha" result="shadowOffsetOuter1"/><feColorMatrix values="0 0 0 0 0 0 0 0 0 0 0 0 0 0 0 0 0 0 0.1 0" in="shadowOffsetOuter1"/></filter><linearGradient x1="26.07%" y1="68.042%" x2="74.949%" y2="19.279%" id="a"><stop stop-color="#058B7E" offset="0%"/><stop stop-color="#058D80" offset="0%"/><stop stop-color="#058D7F" offset="100%"/></linearGradient><linearGradient x1="30.048%" y1="27.302%" x2="81.94%" y2="84.64%" id="g"><stop offset="0%"/><stop stop-color="#D8D8D8" stop-opacity="0" offset="100%"/></linearGradient></defs><path d="M127.683 0C57.166 0 0 55.79 0 124.612s57.166 124.613 127.683 124.613l.271 46.913c65.606-37.27 128-87.019 128-171.526C255.954 55.791 198.2 0 127.683 0z" fill="url(#a)"/><use filter="url(#b)" xlink:href="#c"/><use filter="url(#d)" xlink:href="#e"/><mask id="h" fill="#fff"><use xlink:href="#f"/></mask><path fill-opacity=".21" fill="url(#g)" mask="url(#h)" d="M58.318 168.56l109.037 112.724 144.54-105.666-104.454-93.92-22.334 38.273z"/><use filter="url(#i)" xlink:href="#j"/><use fill="#F6F6F6" fill-rule="evenodd" xlink:href="#j"/><path d="M207.125 128.105V81.7l-33.66 33.587v-21.42c0-9.039-7.395-16.434-16.434-16.434H72.015c-9.04 0-16.435 7.395-16.435 16.435v34.238h151.545z" fill="#E2E2E2"/></svg>