<svg width="256" height="257" xmlns="http://www.w3.org/2000/svg" preserveAspectRatio="xMidYMid"><defs><linearGradient x1="32.813%" y1="32.532%" x2="113.876%" y2="114.132%" id="a"><stop stop-color="#263238" stop-opacity=".2" offset="0%"/><stop stop-color="#263238" stop-opacity="0" offset="43.13%"/></linearGradient><linearGradient x1="0%" y1="49.967%" x2="100%" y2="49.967%" id="b"><stop stop-color="#FFF" stop-opacity=".1" offset="0%"/><stop stop-color="#FFF" stop-opacity="0" offset="100%"/></linearGradient></defs><path d="M256 20.547C256 9.263 246.737 0 235.453 0H20.547C9.263 0 0 9.263 0 20.547v215.074c0 11.284 9.263 20.547 20.547 20.547h105.095c72.253 0 130.358-55.073 130.358-129.515V20.547z" fill="#3367D6"/><path d="M256 126.484V88.421L168.758 1.684 0 168.421 87.747 256h37.895C197.895 256 256 200.926 256 126.484z" fill="url(#a)"/><path d="M79.326 1.684h156.127c11.284 0 20.547 9.263 20.547 20.548v-1.685C256 9.263 246.737 0 235.453 0H79.326v1.684z" fill="#FFF" opacity=".2"/><path d="M20.547 0C9.263 0 0 9.263 0 20.547v147.874h84.042c47.832 0 84.38-38.737 84.38-84.547V0H20.546z"/><path d="M20.547 0C9.263 0 0 9.263 0 20.547v147.874h84.042c47.832 0 84.38-38.737 84.38-84.547V0H20.546z" fill="#64B5F6"/><path d="M168.421 1.684H20.547C9.263 1.684 0 10.947 0 22.232v-1.685C0 9.263 9.263 0 20.547 0h147.874v1.684z" fill="#FFF" opacity=".2"/><path d="M125.642 254.316H20.547C9.263 254.316 0 245.053 0 233.768v1.685C0 246.737 9.263 256 20.547 256h105.095C197.895 256 256 200.926 256 126.484V124.8c0 74.442-58.105 129.516-130.358 129.516z" fill="#263238"/><path d="M256 20.547C256 9.263 246.737 0 235.453 0H20.547C9.263 0 0 9.263 0 20.547v215.074c0 11.284 9.263 20.547 20.547 20.547h105.095c72.253 0 130.358-55.073 130.358-129.515V20.547z" fill="url(#b)"/></svg>