<svg width="256" height="256" xmlns="http://www.w3.org/2000/svg" xmlns:xlink="http://www.w3.org/1999/xlink" preserveAspectRatio="xMidYMid"><defs><linearGradient x1="0%" y1="50%" x2="99.934%" y2="50%" id="a"><stop stop-color="#FFF" stop-opacity=".1" offset="0%"/><stop stop-color="#FFF" stop-opacity="0" offset="100%"/></linearGradient><linearGradient x1="-49.615%" y1="25.24%" x2="93.179%" y2="96.5%" id="f"><stop stop-color="#BF360C" stop-opacity=".2" offset="0%"/><stop stop-color="#BF360C" stop-opacity=".02" offset="100%"/></linearGradient><linearGradient x1="33.53%" y1="33.576%" x2="98.218%" y2="98.264%" id="g"><stop stop-color="#FFF" stop-opacity=".1" offset="0%"/><stop stop-color="#FFF" stop-opacity="0" offset="100%"/></linearGradient><path d="M234.831 0h-46.193c-11.255 0-20.494 9.239-20.494 20.493V80.63h-67.19c-11.087 0-20.157 9.07-20.157 20.157v67.19h-60.64C9.071 167.976 0 177.047 0 188.134v47.033c0 11.086 9.07 20.157 20.157 20.157h214.674c11.254 0 20.493-9.239 20.493-20.493V20.493C255.324 9.24 246.085 0 234.831 0z" id="b"/><path d="M80.629 20.157v67.19H20.157C9.071 87.348 0 96.419 0 107.506v47.033c0 11.087 9.07 20.157 20.157 20.157h147.82V0h-67.191C89.699 0 80.629 9.07 80.629 20.157z" id="e"/><filter x="-11.3%" y="-9.7%" width="122.6%" height="121.8%" filterUnits="objectBoundingBox" id="d"><feOffset dy="2" in="SourceAlpha" result="shadowOffsetOuter1"/><feGaussianBlur stdDeviation="6" in="shadowOffsetOuter1" result="shadowBlurOuter1"/><feColorMatrix values="0 0 0 0 0 0 0 0 0 0 0 0 0 0 0 0 0 0 0.2 0" in="shadowBlurOuter1"/></filter></defs><path d="M234.831 0h-46.53c-11.254 0-20.493 9.239-20.493 20.493V80.63H100.45c-10.919 0-19.821 8.902-19.821 19.989v67.358h-60.64A19.93 19.93 0 000 187.966v47.033c0 11.086 8.903 19.99 19.99 20.325h215.009c11.254 0 20.493-9.239 20.493-20.493V20.493C255.324 9.24 246.085 0 234.831 0z" fill="url(#a)"/><path d="M234.831 0h-46.53c-11.254 0-20.493 9.239-20.493 20.493V80.63H100.45c-10.919 0-19.821 8.902-19.821 19.989v67.358h-60.64A19.93 19.93 0 000 187.966v47.033c0 11.086 8.903 19.99 19.99 20.325h215.009c11.254 0 20.493-9.239 20.493-20.493V20.493C255.324 9.24 246.085 0 234.831 0z" fill="url(#a)"/><mask id="c" fill="#fff"><use xlink:href="#b"/></mask><g mask="url(#c)"><path d="M234.831 0h-46.193c-11.255 0-20.494 9.239-20.494 20.493v234.831h66.687c11.254 0 20.493-9.239 20.493-20.493V20.493C255.324 9.24 246.085 0 234.831 0z" fill="#F57C00"/><g transform="translate(0 80.629)"><use filter="url(#d)" xlink:href="#e"/><use fill="#FFC107" fill-rule="evenodd" xlink:href="#e"/></g></g><path d="M167.976 80.629v174.695h66.687c11.254 0 20.493-9.239 20.493-20.493v-66.855l-87.18-87.347z" fill="url(#f)" mask="url(#c)"/><path d="M100.786 82.308h67.19v-1.68h-67.19c-11.087 0-20.157 9.071-20.157 20.158v1.68c0-11.087 9.07-20.158 20.157-20.158zm-80.629 87.348H80.63v-1.68H20.157C9.071 167.976 0 177.047 0 188.134v1.68c0-11.087 9.07-20.158 20.157-20.158zM234.831 0h-46.193c-11.255 0-20.494 9.239-20.494 20.493v1.68c0-11.255 9.24-20.493 20.494-20.493h46.193c11.254 0 20.493 9.238 20.493 20.493v-1.68C255.324 9.24 246.085 0 234.831 0z" fill="#FFF" opacity=".2" mask="url(#c)"/><path d="M234.831 253.644H20.157C9.071 253.644 0 244.574 0 233.487v1.68c0 11.086 9.07 20.157 20.157 20.157h214.506c11.254 0 20.493-9.239 20.493-20.493l.002-1.68c.166 11.255-9.073 20.493-20.327 20.493z" fill="#BF360C" opacity=".2" mask="url(#c)"/><path d="M234.831 0h-46.193c-11.255 0-20.494 9.239-20.494 20.493V80.63h-67.19c-11.087 0-20.157 9.07-20.157 20.157v67.19h-60.64C9.071 167.976 0 177.047 0 188.134v47.033c0 11.086 9.07 20.157 20.157 20.157h214.674c11.254 0 20.493-9.239 20.493-20.493V20.493C255.324 9.24 246.085 0 234.831 0z" fill="url(#g)"/></svg>