<svg width="256" height="291" xmlns="http://www.w3.org/2000/svg" preserveAspectRatio="xMidYMid"><defs><linearGradient x1="50%" y1="-8.065%" x2="50%" y2="92.11%" id="a"><stop stop-color="#FFDE64" offset="0%"/><stop stop-color="#D62563" offset="100%"/></linearGradient></defs><path d="M167.888 154.796V190.1c0 4.4-3.465 7.967-7.74 7.967a7.53 7.53 0 01-3.446-.832 7.717 7.717 0 01-.485-.19L52.28 152.238a7.672 7.672 0 01-5.702-2.706 8.034 8.034 0 01-3.116-6.39V51.797a8.548 8.548 0 01-.65-.985l-4.934-2.053-22.397-9.32v218.043l27.98 11.644v-73.28c0-.114.003-.228.008-.34a8.143 8.143 0 01.594-3.457c1.65-4.058 6.185-5.97 10.128-4.27l104.466 45.038 2.02.936c4.028.28 7.21 3.732 7.21 7.949v15.78l27.712 11.532.27.112V142.062l-27.981 12.734zm-15.48 3.744l-56.444-24.333-22.774 9.771 79.219 34.152v-19.59zM58.942 207.1v63.238l27.98-11.643v-39.532L58.942 207.1zm-7.584 83.732a7.598 7.598 0 01-5.497-2.2l-7.982-3.321-31.427-13.078c-3.66-.633-6.449-3.91-6.449-7.857v-.419a8.773 8.773 0 010-.393V27.406a8.773 8.773 0 010-.362 8.773 8.773 0 010-.363v-.085a8.047 8.047 0 012.718-6.062 8.288 8.288 0 012.493-1.613L48.041 1.099A8.11 8.11 0 0155.344.67L95.53 18.026a7.65 7.65 0 01.32-.007c4.275 0 7.74 3.567 7.74 7.967v1.034c.003.13.003.26 0 .39v51.793l48.818-20.24V27.406a8.771 8.771 0 010-.362 8.771 8.771 0 010-.363v-.695c0-4.267 3.259-7.75 7.354-7.957L200.447 1.1a8.11 8.11 0 017.303-.43l41.866 18.081c3.627.661 6.382 3.922 6.382 7.845v.424c.003.13.003.26 0 .39v236.966c0 2.939-1.546 5.506-3.846 6.887a8.289 8.289 0 01-2.565 1.68l-41.665 17.338c-2.709 1.128-5.656.684-7.889-.914l-10.681-4.445-31.732-13.204c-2.498-1.04-4.24-3.184-4.91-5.664a8.175 8.175 0 01-.298-2.003 8.775 8.775 0 01-.003-.487v-16.168l-.104-.048.104-.238v.285L102.4 225.836v38.475a8.2 8.2 0 01-.03.704c-.01 3.383-1.977 6.582-5.212 7.928l-41.642 17.329a8.08 8.08 0 01-4.16.56zm159.99-20.484l29.172-12.14V39.886l-29.172 12.139v26.63a8.04 8.04 0 01-2.899 6.217 7.732 7.732 0 01-3.083 2.398l-89.318 38.321 39.92 17.21 43.77-19.92c3.909-1.779 8.479.041 10.207 4.066.042.096.081.192.118.29a8.097 8.097 0 011.285 4.397v138.715zM195.87 51.797a8.547 8.547 0 01-.65-.985l-4.934-2.053-22.397-9.32v18.496l27.98 11.644V51.797zM58.94 132.829l29.171-12.516V39.885l-29.17 12.139v80.805zm44.65-36.448v17.291l75.706-32.481L160 73.16a8.364 8.364 0 01-.2-.086L103.59 96.38zm78.987-69.337l13.955 5.807 8.206 3.415 21.565-8.974-21.75-9.394-21.976 9.146zm-152.407 0l13.955 5.807 8.206 3.415 21.566-8.974-21.75-9.394-21.977 9.146z" fill="url(#a)"/></svg>