<svg width="512" height="130" xmlns="http://www.w3.org/2000/svg" preserveAspectRatio="xMidYMid"><path d="M180.575 35.38c.644.077 1.148.59 1.213 1.236.166.278.209.612.12.923-.064.327-.187.64-.365.922a331.984 331.984 0 00-1.383 5.379c-.44 1.771-.868 3.61-1.283 5.517a1.905 1.905 0 00-.06 1.236c.125.332.263.743.425 1.236l.124.992a1.495 1.495 0 01-.124.558.687.687 0 000 .558l-.12-.249a37.028 37.028 0 01-.923 3.34 21.316 21.316 0 00-.789 3.464l-.12.124a316.813 316.813 0 00-4.668 20.532 614.887 614.887 0 00-3.69 21.15 6.14 6.14 0 01-.724.867 2.094 2.094 0 01-1.093.618 3.1 3.1 0 01-1.513.124c-.502-.08-1.01-.121-1.518-.124a4.94 4.94 0 01-3.635.618 1.845 1.845 0 01-1.213-.987 2.768 2.768 0 01-.18-1.73.923.923 0 00-.669-1.236 1.739 1.739 0 00-1.148 1.42 2.41 2.41 0 01-1.153 1.67c-.226.202-.494.35-.785.434a.987.987 0 01-.922-.065.512.512 0 01-.42-.244 6.24 6.24 0 00-.424-.494 4.811 4.811 0 01.06-2.306c.188-.706.29-1.433.3-2.164.242-2.152.505-4.296.788-6.43a115.8 115.8 0 00.67-6.43 1.518 1.518 0 00-.125-.558.484.484 0 01.124-.558 14.696 14.696 0 01.18-3.524 36.09 36.09 0 00.424-3.65c.163-1.81.406-3.728.73-5.751.322-2.024.605-3.9.848-5.628.394-1.523.676-3.072.844-4.636.175-1.604.459-3.194.849-4.76a66.56 66.56 0 01.669-4.576c.283-1.565.59-3.132.922-4.7l-.12-.125h.12c.079 0 .12-.083.12-.249.167-.436.27-.895.305-1.36.033-.481.178-.947.424-1.361a45.13 45.13 0 01.604-3.525c.245-1.111.462-2.246.73-3.4a1.84 1.84 0 01.848-1.235 7.491 7.491 0 011.333-.743c.078.166.198.166.364 0a2.532 2.532 0 001.633.184 1.674 1.674 0 011.518.434c.225.302.467.592.724.867v-.12c0 .166.042.228.125.185a.374.374 0 01.36.184.25.25 0 01.304-.184c.12.043.18-.019.18-.185v.125a.747.747 0 00.609-.31 1.3 1.3 0 01.724-.433c.38-.024.76.062 1.093.25a.72.72 0 01.24.493c.013.19.1.368.244.493a1.213 1.213 0 00-.12 1.361c.162.415.402.461.725.125l.424-.434a.752.752 0 00.185-.558 3.736 3.736 0 00.784-1.61c.103-.56.583-.973 1.153-.992a4.654 4.654 0 011.817-.124c.602.085 1.21.127 1.818.124h.461l.028.005zm22.907 0h5.572c1.944 0 3.842.041 5.697.124.078-.166.138-.202.18-.124a.193.193 0 00.184.124h4.12a35.675 35.675 0 014.243.25c.774.2 1.286.934 1.209 1.73l-.36 2.227c.077.653.22 1.295.424 1.92a2.86 2.86 0 01-.064 1.914c-.079.576-.18 1.236-.3 1.978a9.129 9.129 0 01-.425 1.73h.222a.747.747 0 01-.365.185.29.29 0 00-.24.309v-.12c-.16-.083-.244-.042-.244.124a.106.106 0 01-.12.125 3.077 3.077 0 00-2.306.867.627.627 0 00.364.867v-.129c.093.29.237.563.425.803.15.239.214.522.18.802a1.18 1.18 0 01-.605 1.361 3.736 3.736 0 01-2.426.434 11.592 11.592 0 00-2.666-.06c-1.13 0-2.182 0-3.15-.06-.97-.06-2.021-.06-3.151-.06a1.324 1.324 0 01-.605.124.42.42 0 00-.364.374.816.816 0 00.604 1.052c.433.091.82.331 1.094.678a.895.895 0 00.3.369.923.923 0 01.304.369h-.12c.392.387.573.94.484 1.485a9.576 9.576 0 01-.364 1.61 239.433 239.433 0 00-1.573 5.997l-1.458 5.872a7.904 7.904 0 00-.06 1.67 5.715 5.715 0 01-.18 1.794 79.721 79.721 0 00-.669 2.412 32.412 32.412 0 00-.544 2.537l-2.883 13.211a93.265 93.265 0 00-1.033 5.319 79.455 79.455 0 01-1.029 5.194.328.328 0 01-.12.433.53.53 0 00-.244.434h.12a1.873 1.873 0 01-1.758.803 40.83 40.83 0 00-2.117-.06.558.558 0 01-.424-.37 1.12 1.12 0 00-.305-.493 6.213 6.213 0 01.12-2.103 2.768 2.768 0 00-.364-2.104.567.567 0 01-.3-.124c-.12-.079-.226-.042-.304.124a4.18 4.18 0 00-.97 2.846l.12-.124-.12.124a.263.263 0 01-.06.374.415.415 0 00-.184.369 1.582 1.582 0 01-.968 1.36 4.788 4.788 0 01-2.307.185 8.764 8.764 0 00-2.306-.06 1.633 1.633 0 01-1.578-1.111 4.776 4.776 0 01-.24-1.486 8.944 8.944 0 01.12-1.485c.323-3.875.666-7.688 1.03-11.44.362-3.751.746-7.606 1.152-11.564a2.87 2.87 0 00.12-.867c.001-.334.042-.667.12-.992.085-.43.147-.864.185-1.3.035-.446.138-.883.304-1.297a.337.337 0 01-.124-.433c.078-.125.041-.226-.12-.31a.792.792 0 00.244-.742c.318-2.145.646-4.308.969-6.49.323-2.182.604-4.392.849-6.615.16-.083.198-.184.12-.309a.337.337 0 01.12-.434c.078-.66.202-1.36.364-2.103a3.723 3.723 0 00-.12-2.103.863.863 0 01-.365-.31.923.923 0 00-.46-.309 20.757 20.757 0 00-3.576.06c-1.15.126-2.31.106-3.455-.06-.083-.166-.143-.207-.18-.124-.037.083-.106.083-.184 0a.923.923 0 00-.305-.374.895.895 0 01-.3-.369 1.905 1.905 0 00-.608-1.36 2.57 2.57 0 01-.724-1.486 2.51 2.51 0 00.24-1.112.964.964 0 01.608-.991 7.214 7.214 0 012.482-.31 3.69 3.69 0 002.242-.557.498.498 0 00.124-.37v-.369a1.508 1.508 0 00-1.093-.493 2.334 2.334 0 01-1.089-.25l-.124.125a.383.383 0 00-.36-.249v.125a.212.212 0 01-.184-.185c-.042-.124-.102-.101-.18.06 0-.166 0-.203-.06-.124-.06.078-.106.083-.185 0a2.49 2.49 0 01-1.333-2.473c.163-.907.285-1.876.365-2.906a5.023 5.023 0 011.093-2.767.337.337 0 01.24-.143.36.36 0 00.244-.125c1.44-.24 2.9-.344 4.36-.309a54.61 54.61 0 004.487-.06h3.15c1.096.003 2.19-.08 3.271-.25.403.167.846.21 1.274.125a3.358 3.358 0 011.259.019zm1.937 17.81l-.244-.374a.697.697 0 00-1.029.494 2.334 2.334 0 01-.544 1.111c-.083.416-.18.845-.305 1.301-.13.418-.012.874.305 1.177.161.166.304.184.424.06l.305-.31a3.99 3.99 0 001.088-3.46zm48.72-17.672c.381-.048.767.04 1.089.25h.12v.124c.161-.083.244-.083.244 0h.24c.646.083 1.352.143 2.122.184.817.08 1.509.639 1.757 1.421a4.613 4.613 0 010 2.104 8.824 8.824 0 00-.24 2.103 12.26 12.26 0 00-.488 3.589 2.21 2.21 0 01-1.453 1.61 2.246 2.246 0 01-1.384.06.923.923 0 00-1.153.558l-.12-.125a.637.637 0 00-.24.618c.258.258.574.45.922.558.365.125.706.25 1.029.37.318.12.627.264.923.433.313.227.476.608.424.992a.577.577 0 01-.06.558c-.12.208-.102.35.06.434h-.12v-.157h.12a.96.96 0 01-.24.558c-.153.194-.317.38-.489.558a1.924 1.924 0 01-1.693.494 2.666 2.666 0 00-1.697.249l.24.124-.24.125c0-.079-.083-.125-.245-.125l-.12.125h.12a1.582 1.582 0 01-1.148.06 1.287 1.287 0 00-1.034.06.346.346 0 00-.484-.125.752.752 0 01-.604 0 7.048 7.048 0 00-2.242.31l-2.002.677a2.74 2.74 0 01-.544.434 1.753 1.753 0 00-.545.558 2.998 2.998 0 00-1.153 2.039 5.295 5.295 0 00.185 2.412c.068.473.255.92.544 1.301.285.377.548.77.789 1.176.26.186.484.415.664.678.2.286.424.555.669.803a.106.106 0 00.12-.124c.041.243.17.463.364.618h.102a46.824 46.824 0 013.03 3.69 17.865 17.865 0 012.307 4.207c.161.415.304.825.424 1.236.12.41.263.826.424 1.236.322.732.526 1.51.605 2.307.079.774.2 1.544.364 2.306a.793.793 0 000 .618c.078.241.078.501 0 .743a15.554 15.554 0 01-1.213 7.422 5.074 5.074 0 01-.544 1.545 10.102 10.102 0 00-.665 1.545 36.482 36.482 0 01-4.363 6.306c-.31.074-.587.247-.789.493a3.229 3.229 0 01-.664.619 15.25 15.25 0 00-1.698 1.236 10.61 10.61 0 01-1.577 1.111l-.12-.124a23.843 23.843 0 01-4.613 2.103 38.457 38.457 0 01-5.074 1.361c-.612.028-1.22.11-1.818.25a1.015 1.015 0 00-.848.124.11.11 0 00-.12-.125c-.083.166-.162.185-.245.06-.083-.124-.161-.143-.24-.06h-4.243a14.595 14.595 0 01-4.24-.618 3.03 3.03 0 01-1.457-1.73 2.901 2.901 0 01.184-1.485 2.85 2.85 0 00.06-1.73l-.484-.987a1.338 1.338 0 010-1.112c.077-.412.137-.72.18-.922a3.57 3.57 0 01.304-.803c.079-.327.139-.658.18-.992.056-.381.159-.754.305-1.111a1.993 1.993 0 011.697-.803c.646.042 1.292.06 1.938.06a.784.784 0 00.609-.493 1.522 1.522 0 00-.79-.868 21.77 21.77 0 01-1.028-.493l-.729-.494a1.794 1.794 0 01-.604-.742.461.461 0 01.18-.619c.227-.106.417-.278.544-.493a2.071 2.071 0 011.213-.125c.415.086.821.21 1.214.37a.429.429 0 01.484.06c.13.108.292.173.461.184.852.257 1.724.444 2.606.558a8.575 8.575 0 002.727-.06 3.187 3.187 0 011.213-.25 1.62 1.62 0 001.208-.493.489.489 0 00.365-.124c.1-.09.23-.134.364-.125a.323.323 0 00.24-.184.328.328 0 01.244-.185c.134-.062.257-.144.365-.244l.24-.25c0-.078.083-.124.244-.124.398-.161.736-.442.969-.802.242-.37.445-.764.604-1.177a5.074 5.074 0 00.125-4.207l-.125-.244a6.984 6.984 0 00-1.453-2.413c-.67-.72-1.4-1.382-2.182-1.978a112.96 112.96 0 01-2.362-1.846 11.84 11.84 0 01-2.001-2.038 43.823 43.823 0 00-1.878-2.537 12.233 12.233 0 01-1.633-2.657c-.083 0-.106-.065-.064-.185.041-.12 0-.184-.06-.184a22.603 22.603 0 01-1.698-4.885 15.923 15.923 0 01-.36-5.134 11.61 11.61 0 01.3-2.657c.202-.864.466-1.711.789-2.537a3.98 3.98 0 01.604-1.73 9.844 9.844 0 00.849-1.638c.393-.636.818-1.252 1.273-1.845.456-.592.881-1.208 1.273-1.845.306-.15.56-.387.73-.682.167-.294.42-.53.723-.679a30.145 30.145 0 012.91-2.597 15.07 15.07 0 013.271-1.978l.12-.125h.125a30.975 30.975 0 015.572-2.039c1.9-.515 3.85-.824 5.817-.922.545.081 1.1.06 1.637-.06a3.109 3.109 0 011.638.06h1.453a9.631 9.631 0 011.568.11zm57.987 12.616c.2 3.546.302 7.092.305 10.637.155 1.562.195 3.133.12 4.7a27.1 27.1 0 00.12 4.452l-.12.25c.078.92.098 1.844.06 2.767a52.468 52.468 0 00-.06 2.767.406.406 0 000 .434c.08.134.08.3 0 .434-.083 4.206-.185 8.204-.305 11.993-.12 3.788-.26 7.75-.42 11.887a7.293 7.293 0 00-.12 1.36c.003.457-.037.913-.12 1.361.162.084.162.185 0 .31-.16.124-.165.226 0 .309a.498.498 0 01-.06.678.632.632 0 00-.184.678 3.068 3.068 0 01-.304.493 1.056 1.056 0 01-.545.37 1.08 1.08 0 01-1.213-.25 1.384 1.384 0 01-.724-1.111c-.244-.328-.526-.328-.849 0a3.852 3.852 0 01-.729.991 1.49 1.49 0 01-1.088.494.11.11 0 00-.12-.125h-.364c-.816 0-1.629-.083-2.427-.249a2.92 2.92 0 00-2.306.494h-.461l-.12.249c-.083 0-.083 0 0-.06s.078-.102 0-.185c-.162.166-.286.208-.365.125-.078-.083-.203-.042-.364.125a1.697 1.697 0 00-.969-.25 1.038 1.038 0 01-.867-.475 5.609 5.609 0 00-.305-.742l-.3-.618a38.895 38.895 0 01-.244-4.327c0-1.4-.04-2.677-.12-3.833a.853.853 0 00-.669-.743 2.615 2.615 0 01-.922-.374c-.907.084-1.82.084-2.726 0a5.849 5.849 0 00-2.607.374c-.23.241-.524.412-.848.493a2.722 2.722 0 00-.849.37 46.018 46.018 0 01-4.18.06 28.327 28.327 0 00-4.178.184c-.217.23-.488.4-.79.494a1.112 1.112 0 00-.668.742c-.563 1.158-1.13 2.307-1.693 3.464a54.85 54.85 0 01-1.845 3.465c-.22.23-.463.436-.724.618a4.899 4.899 0 00-.729.618l-.12-.125c0-.078-.083-.078-.244 0l.244.25h-.364a.11.11 0 01.12-.125c.083 0 .041-.042-.12-.125a.789.789 0 01-.73.125 3.09 3.09 0 00-.968-.125c-.24-.078-.526-.184-.849-.309a.733.733 0 00-.848.185.687.687 0 01-.725.309 6.919 6.919 0 00-.848-.06 2.09 2.09 0 01-1.094-.618 1.08 1.08 0 00-1.208-.25c-.53.355-1.1.646-1.698.868a1.808 1.808 0 01-1.817-.25 4.673 4.673 0 00-.544-.677 1.098 1.098 0 01-.305-.803c.065-.446.187-.882.365-1.296.161-.37.323-.761.484-1.176h.148a37.977 37.977 0 011.757-4.018 52.202 52.202 0 001.877-4.152 201.949 201.949 0 004.544-9.4 123.989 123.989 0 014.668-9.277 498.764 498.764 0 015.997-11.13c2.06-3.712 4.182-7.38 6.365-11.006a238.381 238.381 0 014.24-7.298 183.345 183.345 0 014.483-7.048c.108-.119.23-.222.365-.31a1.73 1.73 0 00.364-.308h1.089v.097a.461.461 0 01.548.124c.137.18.328.31.545.374.465.19.999.066 1.333-.31a3.99 3.99 0 011.213-.922 2.77 2.77 0 001.513.06c.457-.12.94-.099 1.384.06.083-.083.138-.083.184 0 .027.077.1.127.18.125a1.38 1.38 0 011.029.433.756.756 0 001.033.06l.724-.618a1.61 1.61 0 011.154-.06c.376.124.786.103 1.148-.06a3.46 3.46 0 011.153.803c.355.352.589.807.67 1.3.171 3.635.357 7.226.557 10.771v.014zm-16.965 19.914a.392.392 0 00-.425-.37c-.212.24-.458.448-.729.619l-2.666 4.7a215.655 215.655 0 01-2.666 4.576 9.931 9.931 0 01-.923 1.485 2.837 2.837 0 00-.544 1.73.217.217 0 00.24.25c.161.005.319.048.461.124.974 0 2.08 0 3.335.06s2.362.06 3.33.06a1.384 1.384 0 001.154-.743c.206-.43.289-.91.24-1.384-.04-.495-.1-.99-.18-1.485a3.072 3.072 0 010-1.236 3.833 3.833 0 00-.06-.619 3.616 3.616 0 01-.06-.493l-.12-.125.12-.124v-.116c0-.083-.042-.083-.12 0l.12-.373a1.73 1.73 0 01-.12-1.052 1.384 1.384 0 00-.124-.922v-.743c.005-.33-.015-.66-.06-.987-.042-.25-.102-.535-.18-.867.163-.083.163-.208 0-.374a.281.281 0 00.097-.447.517.517 0 01-.06-.54 4.447 4.447 0 00-.06-.623v.019zm.844 16.509a1.056 1.056 0 00-.545-.185 1.448 1.448 0 00-1.088-.06 6.806 6.806 0 01-1.093.31c-.079-.084-.139-.06-.18.06a.212.212 0 01-.18.184.11.11 0 01-.125.124c-.078 0-.041.083.125.25h.12v.248c.42.254.894.402 1.384.434.462.044.927.022 1.383-.065a.756.756 0 00.462-.867.521.521 0 00-.263-.447v.014zm36.902-48.896c.163-.08.264-.018.304.185a.369.369 0 00.425.309c.251.29.32.695.18 1.052a1.928 1.928 0 00-.06 1.051l-.12-.249a3.603 3.603 0 01-.125.867.743.743 0 00.125.743c-.166.166-.042.461.364.867.398-.161.736-.441.969-.802.24-.371.443-.765.604-1.177.244-.575.527-1.133.849-1.67a1.702 1.702 0 011.577-.802c.402.166.843.21 1.269.124.476-.072.963.016 1.384.25l-.125-.125a.923.923 0 01.729.867l-.12-.124a2.726 2.726 0 010 1.61 12.265 12.265 0 00-.364 1.73c.097.278.138.572.12.867a.106.106 0 00.12-.125v-.161a5.415 5.415 0 00.124 1.978 4.1 4.1 0 010 1.98 8.072 8.072 0 00-.849 2.412 36.99 36.99 0 01-.609 2.661 778.681 778.681 0 00-4.179 18.304 287.001 287.001 0 00-3.33 18.179 4.719 4.719 0 01-.185 1.176c-.12.457-.006.945.305 1.3a.286.286 0 01.3.245c.04.166.141.166.304 0 .296.163.642.207.969.125a1.757 1.757 0 011.093.124c.078-.166.161-.203.24-.124.1.09.23.134.364.124a.697.697 0 01.67-.124c.17.077.356.119.543.124.485 0 1.01 0 1.573-.06a7.883 7.883 0 011.698.06.328.328 0 01.424-.124.729.729 0 00.425.124c1.614.083 3.132.106 4.543.06a35.09 35.09 0 014.548.185 1.338 1.338 0 01.665 1.794 5.872 5.872 0 00-.425 1.92 2.38 2.38 0 01-.729 1.729 2.025 2.025 0 00-.604 1.73.258.258 0 01.185.309.277.277 0 00.06.309c.437.307.67.83.604 1.36-.083.494-.162.992-.245 1.486a7.09 7.09 0 00-.544 2.537 1.725 1.725 0 01-1.757 1.67 1.167 1.167 0 00-.97-.06c-.315.121-.669.1-.968-.06-2.02-.08-4.06-.142-6.12-.185a94.167 94.167 0 00-5.997.06 5.214 5.214 0 01-1.818-.309 13.617 13.617 0 01-1.577-.682 2.834 2.834 0 00-1.334.618 1.983 1.983 0 01-1.577.369c-.886 0-1.845 0-2.906-.06a22.565 22.565 0 00-2.91.06l-1.44-.485a1.25 1.25 0 01-.849-1.111 1.14 1.14 0 01-.12-.494.498.498 0 00-.968-.184 3.358 3.358 0 01-.485.678c-.166.249-.323.46-.461.682a7.422 7.422 0 00-.484.678.277.277 0 00-.305.185.281.281 0 01-.304.184 1.195 1.195 0 01-.73-.184c-.16-.125-.359-.268-.603-.434a5.074 5.074 0 01-.18-2.348c.12-.825.221-1.61.3-2.347a595.962 595.962 0 012.79-18.179 4.022 4.022 0 01-.124-.988 1.545 1.545 0 00-.24-.867l.12-.249a10.148 10.148 0 01-.12-2.721c.073-.872.194-1.74.364-2.597.308-2.153.615-4.235.923-6.246.307-2.011.65-4.093 1.029-6.246.4-2.39.804-4.76 1.213-7.113.409-2.352.853-4.722 1.333-7.108.006-.459.066-.916.18-1.36.12-.496.221-.99.304-1.486a65.71 65.71 0 01.544-3.28c.22-1.075.528-2.13.923-3.155.328-.25.674-.476 1.033-.678a3.88 3.88 0 011.149-.433 6.984 6.984 0 002.062-.06 4.53 4.53 0 001.937-.803c.363-.157.76-.22 1.153-.185.384.042.772.022 1.149-.06.113.149.3.22.484.185.13-.02.258.047.314.166v.032zm45.81-.249a1.384 1.384 0 011.212 1.236c.164.279.207.612.12.923a2.822 2.822 0 01-.364.923 278.434 278.434 0 00-1.384 5.378c-.461 1.771-.867 3.607-1.273 5.503a1.905 1.905 0 00-.06 1.236c.12.332.263.743.424 1.237l.12.991a1.551 1.551 0 01-.12.558.65.65 0 000 .559l-.12-.25a38.768 38.768 0 01-.922 3.34 21.316 21.316 0 00-.789 3.464l-.12.125a312.794 312.794 0 00-4.668 20.531 630.168 630.168 0 00-3.69 21.15c-.216.31-.46.6-.729.867a2.085 2.085 0 01-1.089.618 3.113 3.113 0 01-1.517.125 9.973 9.973 0 00-1.513-.125 4.945 4.945 0 01-3.635.618 1.845 1.845 0 01-1.213-.987 2.722 2.722 0 01-.185-1.73.923.923 0 00-.664-1.236 1.748 1.748 0 00-1.153 1.42 2.403 2.403 0 01-1.149 1.67c-.227.202-.496.35-.788.434a.978.978 0 01-.923-.064.517.517 0 01-.424-.245 4.77 4.77 0 00-.425-.493 4.871 4.871 0 01.06-2.307 8.667 8.667 0 00.305-2.163c.24-2.153.502-4.296.788-6.43.286-2.135.508-4.278.665-6.43a1.6 1.6 0 00-.12-.559.461.461 0 01.12-.558 14.945 14.945 0 01.184-3.524c.2-1.193.342-2.41.425-3.649.156-1.811.398-3.728.724-5.752.326-2.023.609-3.9.848-5.627.396-1.523.68-3.072.85-4.636.174-1.604.458-3.195.848-4.76.16-1.486.381-3.011.664-4.576.283-1.566.59-3.133.923-4.7l-.12-.125h.12c.083 0 .124-.083.124-.25.166-.436.267-.895.3-1.36a3.23 3.23 0 01.415-1.37c.163-1.23.366-2.405.61-3.524.24-1.112.484-2.247.723-3.4.096-.514.404-.963.85-1.236a7.491 7.491 0 011.332-.743c.079.166.203.166.365 0 .51.241 1.086.306 1.637.185a1.665 1.665 0 011.513.433c.227.303.47.592.729.867v-.129c0 .166.037.23.12.185a.378.378 0 01.364.184.244.244 0 01.305-.184c.12.043.18-.019.18-.185v.125a.733.733 0 00.604-.31 1.31 1.31 0 01.729-.433 1.94 1.94 0 011.088.25.724.724 0 01.245.493c.01.19.099.37.244.493a1.213 1.213 0 00-.124 1.361c.161.415.406.461.729.125l.424-.434a.77.77 0 00.18-.558 3.69 3.69 0 00.789-1.61c.1-.562.582-.977 1.153-.992a4.654 4.654 0 011.817-.124c.602.086 1.21.127 1.818.124h.461l.032.037zm19.373 0l1.213.125 1.213.867a4.1 4.1 0 00.12.992c.076.374.034.762-.12 1.111.076.677.096 1.36.06 2.04a9.968 9.968 0 00.06 1.914c.002.29-.018.58-.06.867a.992.992 0 00.06.618c.077 1.568.117 3.177.12 4.825-.001 1.57.08 3.139.245 4.7.076 2.556.176 5.133.3 7.731.122 2.599.305 5.059.548 7.38.099.112.18.238.24.374.058.15.204.248.365.245.16-.006.319-.048.46-.125l.485-.249c.238-.396.383-.84.425-1.3.037-.447.14-.885.304-1.301a331.64 331.64 0 002.546-8.719c.812-2.927 1.66-5.833 2.542-8.718a121.8 121.8 0 011.333-4.516 193.76 193.76 0 001.333-4.391l.609-1.545c.165-.538.565-.97 1.089-1.177a4.723 4.723 0 002.767-1.36 2.366 2.366 0 011.882-.434c.62.117 1.248.179 1.878.185 1.108.082 2.22.102 3.33.06 1.112-.04 2.225-.02 3.335.06a.876.876 0 01.849.493c.136.298.29.588.461.867.002.232-.039.462-.12.678-.1.262-.182.53-.244.803-.11.47-.315.914-.605 1.3a1.153 1.153 0 000 1.422c.24.166.462.35.725.558.238.197.373.493.364.802a2.219 2.219 0 01-.461 1.61 159.483 159.483 0 00-2.97 7.233c-.93 2.43-1.878 4.84-2.847 7.233l-4.188 10.983a600.332 600.332 0 01-3.39 10.079 176.045 176.045 0 00-3.151 10.079l-.305.618a.692.692 0 00-.06.618 5.1 5.1 0 01-1.213 2.472 5.139 5.139 0 00-1.213 2.597l-.12-.124a98.222 98.222 0 00-.789 3.155c-.218.947-.48 1.999-.784 3.155.061.39-.076.783-.364 1.052-.25.3-.536.569-.849.802-.274.088-.56.13-.849.125a1.296 1.296 0 00-.729.249 10.766 10.766 0 00-1.937-.06c-.567.042-1.172.06-1.817.06a5.162 5.162 0 01-1.273-.31 3.169 3.169 0 01-1.03-.922 1.056 1.056 0 01-.304-.558 1.107 1.107 0 00-.304-.558.221.221 0 000-.309.623.623 0 01-.12-.309.646.646 0 00-.849-.245.766.766 0 00-.18.679c.044.227.024.462-.06.678a.549.549 0 010 .493.526.526 0 000 .494 1.18 1.18 0 01-.668.493c-.28.082-.547.207-.79.37-.16-.167-.28-.185-.359-.06-.078.124-.203.1-.364-.06a1.356 1.356 0 00-.61.124 20.049 20.049 0 00-.664-.31 1.485 1.485 0 01-.668-.557 17.934 17.934 0 01-1.149-4.392 22.21 22.21 0 00-1.033-4.391 552.537 552.537 0 00-1.758-8.409c-.609-2.805-1.239-5.694-1.89-8.667a.835.835 0 010-.619 237.644 237.644 0 00-.97-5.567 241.474 241.474 0 01-.968-5.563l-.12-.25a10.766 10.766 0 010-3.957c-.486-3.05-.91-6.06-1.273-9.027a1291.58 1291.58 0 00-1.154-9.152 45.561 45.561 0 01-.364-3.03c-.078-.946-.161-1.915-.24-2.907a.664.664 0 01-.06-.742 2.02 2.02 0 01.425-.743 1.555 1.555 0 011.513-.433 3.593 3.593 0 001.757-.06 2.8 2.8 0 01.544.06.563.563 0 00.545-.185l.244.125a9.272 9.272 0 012.122 0c.704.084 1.413.125 2.122.124.403.166.788.374 1.148.618.36.241.635.588.79.992.082.365.122.738.12 1.112.151.377.254.772.304 1.176.04.376.302.692.664.803.323.166.526.104.609-.185.06-.234.14-.462.24-.683.166-.73.208-1.483.124-2.228-.12-.73.214-1.459.844-1.845.287-.239.67-.33 1.034-.249.346.085.712.04 1.028-.124a.323.323 0 00.425.124.623.623 0 01.54-.01l.004.033zm73.44 0l.124-.124a2.417 2.417 0 012.058 1.485.581.581 0 01.06.434.577.577 0 00.06.433l-.12-.124-.12.249-.365 3.69h.12c.011.46-.116.913-.364 1.3-.24.372-.443.766-.604 1.177a4.922 4.922 0 01-2.906 1.979.378.378 0 01-.245.433c-.161.042-.203.143-.12.31.076.294.246.554.484.742.213.014.42.077.605.185.224.111.43.258.609.433a.406.406 0 01.24.31 1.6 1.6 0 00.364.558c.081.641.04 1.292-.12 1.918-.166.615-.32 1.255-.461 1.92a.876.876 0 00-.365.308.544.544 0 01-.484.185c-.406.083-.77.144-1.093.184a2.131 2.131 0 01-1.089-.184 397.7 397.7 0 00-6.785-.185c-2.18-.04-4.362-.101-6.546-.184a7.676 7.676 0 01-1.697.06 1.647 1.647 0 00-1.453.678c-.06.206-.163.397-.305.558a.517.517 0 00-.06.558h.12a.65.65 0 00-.3.678c.04.27.018.544-.064.803-.162.083-.203.166-.12.249.098.111.18.235.244.369.181.11.395.154.605.125a4.58 4.58 0 00.664-.868c.203-.327.383-.636.549-.922.156-.283.385-.52.664-.683a1.716 1.716 0 011.153-.124l.12.244v-.263c.329.104.61.324.789.618.12.245.258.535.424.867a8.243 8.243 0 01-.461 1.846c-.08.322-.203.632-.364.922-.17.324-.255.686-.245 1.052a26.752 26.752 0 01-.544 1.73 19.894 19.894 0 00-.545 1.845v.742c-.12.572.12 1.16.605 1.486h1.697a10.872 10.872 0 001.578-.125c.337.171.71.257 1.088.25.408.008.816-.034 1.214-.125.642.082 1.29.124 1.937.124h2.062c.377.026.727.204.969.494.078.166.161.35.244.558a.687.687 0 010 .558c.078 0 .06.083-.065.25a.77.77 0 00-.18.373.25.25 0 01-.12.369.392.392 0 00-.244.369 1.25 1.25 0 00-.729 1.36.424.424 0 00.365.37v.124c.083-.083.124-.041.124.125a3.71 3.71 0 01.12 2.472 5.19 5.19 0 01-1.333 3.09 3.003 3.003 0 01-1.577.37 2.768 2.768 0 00-1.453.369 3.603 3.603 0 00-1.698.992c-.467.49-1.167.68-1.817.493-.947-.08-1.897-.1-2.846-.06-.923.043-1.832.063-2.727.06a2.113 2.113 0 00-1.817.743 30.666 30.666 0 00-.973 3.34 65.922 65.922 0 01-.85 3.339c-.075.484-.195.96-.359 1.42-.164.47-.12.986.12 1.421.199.184.455.293.724.31.282.037.565.058.849.06.127.077.28.099.424.06.138-.043.281-.063.425-.06a8.97 8.97 0 002.606.124 15.32 15.32 0 012.726 0c.255-.082.525-.102.789-.06.308.043.622.022.922-.06 1.048.083 2.1.103 3.151.06 1.054-.04 2.109.021 3.15.185v.249h.125a3.1 3.1 0 01.424.558c.116.203.257.39.42.558a48.104 48.104 0 01-.544 2.657c-.2.849-.381 1.734-.544 2.657a2.016 2.016 0 01-.665.922 1.149 1.149 0 00-.304 1.177c.069.385.191.76.364 1.111a2.5 2.5 0 01.24 1.112h-.286a5.208 5.208 0 00-.424 1.67 2.49 2.49 0 01-.789 1.545c-.206.136-.367.33-.461.558a.577.577 0 01-.61.31 2.26 2.26 0 01-.922.064 2.039 2.039 0 00-1.028.184 128.43 128.43 0 00-3.09-.184 69.47 69.47 0 00-3.091-.065 10.453 10.453 0 00-3.755-.06 3.69 3.69 0 01-3.395-1.176c-.406-.166-.646-.166-.724 0a2.45 2.45 0 01-1.384.743l-1.633.249-.125-.125a25.975 25.975 0 01-4.359.125 41.003 41.003 0 00-4.483 0 2.726 2.726 0 01-1.942-1.236h-.12a1.25 1.25 0 00-.12-.868 4.866 4.866 0 01.12-1.845 4.336 4.336 0 00.12-1.73 18.22 18.22 0 00.608-3.833 25.47 25.47 0 01.462-3.833c.161-1.153.318-2.306.461-3.524.143-1.218.323-2.366.484-3.524.163-1.07.345-2.147.545-3.23.2-1.082.381-2.158.544-3.228.163-.346.227-.731.184-1.112-.046-.38.017-.765.18-1.111.406-2.227.85-4.533 1.333-6.92.483-2.386.968-4.654 1.453-6.803a1.6 1.6 0 01.923-1.361 4.022 4.022 0 001.384-1.112 6.37 6.37 0 00.604-1.979c.08-.666.201-1.327.365-1.979.078-.249.161-.512.24-.802a.738.738 0 00-.365-.803 2.717 2.717 0 00-1.633-.249 4.151 4.151 0 01-1.757-.124.11.11 0 00-.12-.125v-.078c-.083.166-.143.184-.185.06-.041-.125-.143-.143-.304-.06.083-.166.083-.25 0-.25h-.12v.111c-.162-.078-.203-.143-.12-.184.083-.042.078-.143 0-.31h-.12a.923.923 0 010-.922 1.52 1.52 0 00.12-1.052 5 5 0 00.18-.802 4.58 4.58 0 01.184-.803h.162a.374.374 0 01.12-.249v-.254a1.25 1.25 0 01.848-.493 1.13 1.13 0 00.85-.618.521.521 0 01.12-.37.3.3 0 000-.373 12.478 12.478 0 01-1.15-.683 1.24 1.24 0 01-.668-1.051c.005-1.021.127-2.038.364-3.031.245-1.029.461-2.039.609-3.03a4.092 4.092 0 013.45-1.301 12.06 12.06 0 003.69-.185 4.396 4.396 0 002.058-.803 2.5 2.5 0 012.062-.433h5.212c.803 0 1.691-.042 2.666-.125 2.5 0 5.105-.02 7.814-.06 2.71-.04 5.393-.018 8.05.065l-.014.032zm15.148 48.725l.12.124c.078-.166.185-.184.305-.06.12.125.262.107.424-.06a4.843 4.843 0 011.817.125 3.266 3.266 0 011.818 1.112c.556.52 1.301.79 2.062.742a2.339 2.339 0 012.057.868 3.958 3.958 0 000 1.383c.088.415.046.847-.12 1.237a.461.461 0 01.06.369.208.208 0 00.06.249.503.503 0 00-.24.493.72.72 0 01-.244.494 270.94 270.94 0 01-.79 4.391 64.715 64.715 0 00-.663 4.267h.12c-.163 0-.223.125-.18.374a.613.613 0 01-.06.493l.12-.124a5.724 5.724 0 01-1.453 2.97c-.108.119-.23.223-.365.31a.683.683 0 00-.244.308 6.92 6.92 0 00-1.089.31c-.358.122-.75.1-1.093-.06l-.12.124a28.193 28.193 0 00-3.229-.06 11.9 11.9 0 01-3.229-.309 2.943 2.943 0 01-1.333-1.112c.078-.083.078-.124 0-.124s-.125-.083-.125-.25h-.12a1.6 1.6 0 00-.728-1.729.66.66 0 00-.605.06l-.604.309a2.943 2.943 0 01-.609.987.964.964 0 01-.3.683l-.549.558a.72.72 0 01-.664.184 4.35 4.35 0 01-.789-.184 1.628 1.628 0 01-.724-1.845c.15-.734.23-1.48.24-2.228a52.64 52.64 0 01.604-6.061c.308-2.06.55-4.081.73-6.061a.872.872 0 00.184-.743.724.724 0 01.3-.743 2.528 2.528 0 011.757-1.485 10.71 10.71 0 012.242-.25c.866.083 1.737.103 2.606.06.9-.105 1.767-.124 2.657-.124l-.014.028zm11.15-66.29a2.878 2.878 0 012.665 1.43 3.16 3.16 0 010 1.218 2.85 2.85 0 000 1.185 2.818 2.818 0 01-.06.558.558.558 0 00.425.558c.318.16.701.111.968-.124.545-.534.887-1.24.97-1.998a1.979 1.979 0 011.332-1.656.973.973 0 011.153-.258c.42.176.9.125 1.274-.134v.134c.4 0 .848 0 1.333.065.484.064.922.064 1.333.064l.24.13a.609.609 0 01.544 0c.172.08.359.124.549.129.6.299 1.073.803 1.333 1.42a2.719 2.719 0 01-.06 1.73 8.058 8.058 0 00-.549 1.61 496.05 496.05 0 00-7.939 28.073 620.126 620.126 0 00-6.36 27.95c-.322.161-.63.348-.923.557a2.579 2.579 0 01-1.029.434 13.59 13.59 0 01-2.606 0c-.827-.08-1.66-.08-2.486 0-1.13 0-2.307.041-3.45.124a8.248 8.248 0 01-3.456-.493 7.38 7.38 0 01-.46-.867 11.296 11.296 0 01-.485-1.112 1.845 1.845 0 00-.973-.678 14.07 14.07 0 01-1.209-.434 3.649 3.649 0 01-1.033-.618 1.573 1.573 0 01-.425-1.236l.923-6.181a28742 28742 0 00.922-6.186c.646-3.297 1.212-6.47 1.698-9.52a239.569 239.569 0 011.697-9.402 185.95 185.95 0 001.758-9.225 80.013 80.013 0 012.122-9.336c.163-.907.344-1.793.544-2.657.2-.864.381-1.787.544-2.768.09-.378.213-.749.365-1.107.156-.386.462-.693.849-.849a1.075 1.075 0 011.213-.461c.474.128.97.148 1.453.06.906-.086 1.82-.086 2.726 0a8.852 8.852 0 002.583-.157l-.014.028zM63.285 0C27.979.36-.353 29.272.003 64.579a65.1 65.1 0 0015.015 41.76l-6.154 19.433a2.376 2.376 0 002.823 3.058l23.733-6.255a61.973 61.973 0 0027.866 6.583c35.666 0 64.579-28.913 64.579-64.58C127.865 28.914 98.952 0 63.285 0zM80.14 61.659L53.793 96.642a.775.775 0 01-1.384-.655l6.343-26.362a.701.701 0 00-.757-.858h-7.473a.872.872 0 01-.752-1.084l7.607-31.26a.821.821 0 01.752-.646H79.08a.784.784 0 01.669 1.18L66.372 59.192a.775.775 0 00.669 1.162h12.482a.807.807 0 01.618 1.306z" fill="#4E46C8"/></svg>