<svg width="256" height="247" xmlns="http://www.w3.org/2000/svg" preserveAspectRatio="xMidYMid"><defs><linearGradient x1="48.878%" y1=".013%" x2="51.122%" y2="99.987%" id="a"><stop stop-color="#009FE6" offset="0%"/><stop stop-color="#006DB7" offset="100%"/></linearGradient></defs><path d="M24.583 198.636c2.406.1 4.846.438 7.119 1.27v-.021l.343.123 29.96-29.227 1.1 1.466c1.557 2.107 3.206 4.031 4.947 5.956l.641.732c.459.458.825.917 1.283 1.375l.733.733.733.733.641.641.734.733.64.642.826.733.732.641c13.927 11.819 31.335 18.507 49.66 18.965 15.117.367 29.868-3.481 42.787-11.086l2.29 2.382c2.657 2.84 5.406 5.681 8.063 8.521-15.942 10.262-34.45 15.393-53.507 14.935-21.44-.55-41.871-8.246-58.271-21.99l.09-.183-19.223 18.95c.712 2.24.996 4.59 1.026 6.933 0 13.236-10.73 23.965-23.965 23.965S0 235.828 0 222.593s10.73-23.964 23.965-23.964l.618.007zm183.192-123.6c9.438 15.484 14.11 33.35 13.652 51.492a93.881 93.881 0 01-23.547 59.92l.092.092 11.82 12.552c4.763-.641 9.528 1.008 12.826 4.49 5.59 5.955 5.406 15.3-.55 20.981-5.955 5.59-15.3 5.406-20.98-.55a14.779 14.779 0 01-3.758-13.01c-5.497-5.864-15.209-16.217-20.798-22.08l-1.19-1.284 1.374-1.099c3.573-2.84 6.871-5.955 9.894-9.437 12.553-14.11 19.608-32.068 20.066-50.942.367-14.292-3.024-28.311-9.895-40.68l10.994-10.445zM40.828 19.032c4.212-.062 8.16 1.6 11.099 4.604a14.78 14.78 0 013.756 13.011L78.406 60.47l-1.375 1.099c-3.573 2.84-6.872 5.955-9.895 9.437-12.552 14.11-19.607 32.068-20.157 50.942-.367 14.293 3.024 28.311 9.896 40.772L45.97 173.346c-9.529-15.575-14.292-33.442-13.743-51.766.473-22.057 9.07-43.364 23.505-59.964l-12.51-13.058c-4.765.64-9.53-1.008-12.828-4.49-5.588-5.955-5.405-15.3.55-20.981a15.03 15.03 0 018.464-3.954c.47-.056.946-.067 1.42-.1zM232.025 0c13.236 0 23.965 10.73 23.965 23.965S245.26 47.93 232.025 47.93c-2.547.028-5.053-.44-7.475-1.194l-.007.026-.367-.129L191.65 77.51l-1.1-1.466a78.26 78.26 0 00-5.68-6.688l-.367-.458-1.007-1.008-.183-.183-.642-.642-.184-.183-.824-.824-.64-.55-.642-.55-.825-.733-.642-.55-.824-.733a79.584 79.584 0 00-49.292-18.69c-15.118-.367-29.87 3.39-42.696 11.086L75.657 44.435c15.942-10.262 34.45-15.393 53.507-14.935 21.44.55 41.87 8.246 58.272 22.08h.183l21.54-20.448c-.76-2.313-1.068-4.74-1.099-7.167C208.06 10.729 218.79 0 232.025 0z" fill="#5B5B5B"/><path d="M127.573 53.5c2.708.012 5.409.221 8.096.535 38.664 4.856 66.059 40.13 61.295 78.795-4.856 38.664-40.13 66.06-78.794 61.295-38.665-4.856-66.06-40.13-61.295-78.795 4.612-35.867 34.748-61.705 70.698-61.83zm-1.063 30.28c-15.652 1.253-26.978 13.093-27.376 28.824.284 11.221 6.03 20.693 16.05 25.854l-5.445 25.606h36.512l-5.439-25.61c9.964-5.412 15.886-14.363 16.044-25.85-.212-16.234-12.775-28.454-28.861-28.86l-1.485.037zm.546-.151h-.09.09z" fill="url(#a)"/></svg>