<svg width="256" height="256" xmlns="http://www.w3.org/2000/svg" preserveAspectRatio="xMidYMid"><path d="M128 0C57.305 0 0 57.305 0 128s57.305 128 128 128 128-57.305 128-128S198.695 0 128 0zm60.76 159.388c-43.77 43.77-121.952 29.804-121.952 29.804S52.698 111.154 96.612 67.24c24.333-24.333 64.648-23.325 90.133 2.015 25.484 25.341 26.348 65.8 2.015 90.133zm-46.074-84.373l-12.526 25.772-25.773 12.527 25.773 12.526 12.526 25.773 12.527-25.773 25.772-12.526-25.772-12.527-12.527-25.772z" fill="#4264FB"/></svg>