<svg width="512" height="229" xmlns="http://www.w3.org/2000/svg" preserveAspectRatio="xMidYMid"><path fill="#963398" d="M156.61 17.251V228.29l-40.303-40.291H0V17.25h156.172"/><path fill="#1EBDBF" d="M174.726 0v211.039l-40.303-40.303H18.116V0z"/><path fill="#492670" d="M18.116 17.251V170.84h116.342l22.117 22.152V17.666z"/><path d="M42.92 83.8c5.04 0 9.133 4.382 9.133 9.801 0 5.42-4.082 9.814-9.133 9.814-5.05 0-9.121-4.394-9.121-9.814S37.88 83.8 42.92 83.8zm43.347 0a9.79 9.79 0 019.721 9.87 9.721 9.721 0 11-9.721-9.871zm44.005 0a9.79 9.79 0 019.71 9.87 9.71 9.71 0 11-9.71-9.871z" fill="#FFF"/><path d="M489.271 90.315a40.73 40.73 0 0116.214 15.614 46.899 46.899 0 010 45.226 40.81 40.81 0 01-16.214 15.614 48.986 48.986 0 01-23.72 5.627 48.017 48.017 0 01-23.547-5.627 40.522 40.522 0 01-15.96-15.614 47.28 47.28 0 01.08-45.226h-.01a40.972 40.972 0 0116.143-15.614 51.811 51.811 0 0147.014 0zm-143.048-39.6a9.813 9.813 0 01.853 4.613v110.934a3.46 3.46 0 01-4.094 4.093h-15.487a4.613 4.613 0 01-3.24-.945 4.117 4.117 0 01-1.026-3.148v-64.346L294.4 136.222a27.134 27.134 0 01-3.667 3.667c-.76.59-1.69.917-2.652.934a4.613 4.613 0 01-2.56-.934 19.604 19.604 0 01-3.587-3.667l-28.828-34.306v64.346a4.07 4.07 0 01-1.027 3.148 4.613 4.613 0 01-3.24.945h-15.58a3.46 3.46 0 01-4.093-4.093V55.352c0-4.129 1.257-6.17 3.77-6.17 1.12.045 2.196.45 3.068 1.153a23.997 23.997 0 013.933 4.013l48.432 54.948 47.96-54.948a46.53 46.53 0 014.093-4.013 4.532 4.532 0 012.628-1.138l.267-.015c1.185-.1 2.32.499 2.906 1.534zm33.476 35.99h14.84a4.763 4.763 0 013.299.935 4.163 4.163 0 011.015 3.16v75.439a4.117 4.117 0 01-1.015 3.148 4.705 4.705 0 01-3.252.945h-14.887a3.46 3.46 0 01-4.094-4.093V90.822a4.405 4.405 0 01.934-3.182 4.37 4.37 0 013.16-.934zm74.84 21.864a19.523 19.523 0 00-7.68 7.853 27.41 27.41 0 000 24.217 19.42 19.42 0 007.68 7.841 22.063 22.063 0 0010.452 2.735l.548-.002a23.063 23.063 0 0011.186-2.71 19.754 19.754 0 007.934-7.934 26.465 26.465 0 000-24.066 19.892 19.892 0 00-7.934-7.934 23.236 23.236 0 00-10.601-2.732h-.585a22.175 22.175 0 00-11 2.732zm-60.08-62.293a13.008 13.008 0 014.866 5.04 14.853 14.853 0 010 13.837 12.466 12.466 0 01-4.866 4.947 14.518 14.518 0 01-6.779 1.789l-.474-.001a14.138 14.138 0 01-7.08-1.788 12.327 12.327 0 01-4.867-4.947 14.853 14.853 0 010-13.838 12.846 12.846 0 014.866-5.039 13.63 13.63 0 016.615-1.878l.466-.002a13.988 13.988 0 017.253 1.88z" fill="#3E1B67"/></svg>