<svg width="512" height="106" xmlns="http://www.w3.org/2000/svg" preserveAspectRatio="xMidYMid"><path d="M159.24 50.072v21.824c0 2.595-2.123 4.07-4.247 4.07-1.887 0-3.539-1.475-3.539-4.07V38.688c0-3.067 2.596-4.07 3.54-4.07 1.71 0 2.713 1.003 3.716 2.123l12.976 17.519 13.449-18.168c1.946-2.418 6.724-1.474 6.724 2.596v33.208c0 2.595-1.652 4.07-3.54 4.07-2.123 0-3.774-1.475-3.774-4.07V50.072l-9.792 12.387c-2.123 2.595-4.777 2.595-6.724 0l-8.789-12.387zm66.006 26.484c-10.912.472-22.237-6.784-22.237-21.234 0-14.511 11.325-21.648 22.237-21.648 10.322.53 21.116 7.668 21.116 21.648 0 13.979-10.794 21.234-21.116 21.234zm-.649-35.214c-6.606 0-13.802 4.66-13.802 13.98 0 9.26 7.196 13.979 13.802 13.979 6.783 0 14.038-4.72 14.038-13.98 0-9.319-7.255-13.98-14.038-13.98zm41.231 30.79c0 5.131-7.845 5.309-7.845.118V38.747c0-2.065 1.593-3.599 3.54-3.599h15.69c14.982 0 18.049 20.055 5.544 25.069l7.845 9.555c3.067 4.543-3.067 8.907-6.606 4.424l-8.907-12.74h-9.26v10.676zm0-17.46h11.385c7.667 0 8.14-12.386 0-12.386h-11.385v12.386zm36.513-15.984c0-1.947 1.534-4.07 4.011-4.07h13.626c7.668 0 14.569 5.132 14.569 14.982 0 9.32-6.901 14.51-14.57 14.51h-9.85v7.786c0 2.595-1.651 4.07-3.775 4.07-1.946 0-4.01-1.475-4.01-4.07V38.688zm7.786 3.362v14.687h9.85c3.952 0 7.079-3.48 7.079-7.137 0-4.129-3.127-7.55-7.078-7.55h-9.85zm35.157 30.259V38.806c0-2.124 1.533-3.658 4.188-3.658 2.064 0 3.598 1.534 3.598 3.658v12.859h19.229v-12.86c0-2.123 1.887-3.657 4.01-3.657 2.065 0 3.658 1.534 3.658 3.658v33.503c0 2.064-1.593 3.657-3.658 3.657-2.123 0-4.01-1.593-4.01-3.657V59.391h-19.23V72.31c0 2.064-1.533 3.657-3.597 3.657-2.655 0-4.188-1.593-4.188-3.657zm50.905 3.657c-2.065 0-3.657-1.593-3.657-3.657V38.806c0-2.124 1.592-3.658 3.657-3.658h21.175c5.427 0 5.309 7.669 0 7.669h-16.987v8.848h14.864c5.25 0 5.25 7.726 0 7.726h-14.864v8.848h17.99c5.368 0 5.78 7.727 0 7.727H396.19zm64.884-36.924c0-5.25 7.727-5.663 7.727 0v21.352c0 22.06-35.568 22.06-35.568 0V39.042c0-5.309 7.727-5.545 7.727 0v21.352c0 11.62 20.114 12.328 20.114 0V39.042zm19.644 4.954c1.356-11.443 18.639-13.507 26.778-7.255 4.011 3.244-.235 8.376-3.775 5.78-4.364-2.771-14.274-4.069-15.512 2.065-1.593 9.674 24.065 4.13 23.652 19.819-.412 14.982-22.119 15.336-30.259 8.612-1.946-1.593-1.887-4.188-.825-5.781 1.533-1.533 3.244-2.064 5.249-.413 4.837 3.303 17.283 5.78 18.167-2.595-.766-8.73-25.304-3.48-23.475-20.232zm-376.052 22.12c-5.75 23.103-26.79 39.54-51.571 39.54-24.893 0-45.753-17.41-51.268-40.609 6.632 0 12.831.03 15.71.03 1.357 0 1.62.024 1.7.018 2.165-.106 4.88-.82 6.687-5.214l6.884-18.007 15.288 36.809c1.374 2.934 3.669 2.726 5.038 2.726h.129c2.67 0 3.832-.936 4.847-2.871L75.378 42.15l5.89 16.4.36.793c1.245 2.732 2.141 5.431 5.223 5.784.636.072 8.014-.056 17.962-.056 0 0 0 .063-.148 1.045z" fill="#78C5E1"/><path d="M106.352 52.508c0 .275 0 .967-.005.967H90.459l-9.263-25.876c-.825-1.924-2.065-4.809-5.678-4.809-2.21 0-4.208 1.826-5.341 4.839L53.385 66.523 37.222 27.865c-1.582-3.434-2.676-5.049-5.84-5.049-2.15 0-3.726.792-5.442 4.86l-9.594 26.183-15.94-.017a42.399 42.399 0 01-.016-1.195C.39 23.541 23.987.017 53.094.017c29.106 0 53.258 23.385 53.258 52.491z" fill="#F46E5D"/></svg>