<svg width="256" height="116" xmlns="http://www.w3.org/2000/svg" preserveAspectRatio="xMidYMid"><path d="M175.814 69.08c5.418 5.417 5.418 14.086 1.083 20.046a13.735 13.735 0 01-19.504 0l-.542-.542-13.003-13.003-33.05 34.675c-2.71 2.71-5.96 4.334-9.752 4.334-3.793 0-7.044-1.625-9.753-4.334l-33.05-34.675-34.675 34.675c-2.709 2.71-6.501 3.793-9.752 3.793-3.793 0-7.044-1.084-9.753-3.793a13.735 13.735 0 010-19.505l44.428-44.969c2.709-2.167 5.96-3.793 9.752-3.793 3.793 0 7.044 1.626 9.753 4.335l33.05 34.675 33.05-34.675c2.708-2.71 5.959-4.335 9.752-4.335 3.792 0 7.043 1.626 9.752 4.335l22.214 22.755zm76.393-21.13c2.71 2.166 3.793 5.959 3.793 9.21 0 3.792-1.084 7.043-3.793 9.752l-44.969 44.97c-2.709 2.708-6.501 3.792-9.752 3.792h-1.626c-3.25 0-5.96-1.625-8.127-3.793a13.735 13.735 0 010-19.504l10.295-10.294 24.922-24.381-34.133-34.134a13.735 13.735 0 010-19.505 13.735 13.735 0 0119.505 0l43.885 43.886z" fill="#E62D56"/></svg>