<svg width="256" height="206" xmlns="http://www.w3.org/2000/svg" preserveAspectRatio="xMidYMid"><path d="M159.969 131.819a6.245 6.245 0 00-8.671 1.652l-15.03 22.113a25.445 25.445 0 00-8.094-1.332c-2.807 0-5.5.469-8.026 1.306l-24.962-34.873a25.446 25.446 0 007.464-18.036c0-14.096-11.427-25.523-25.524-25.523-14.096 0-25.523 11.427-25.523 25.523 0 6.6 2.526 12.597 6.638 17.127l-23.152 36.346a25.417 25.417 0 00-9.565-1.87C11.428 154.252 0 165.679 0 179.775c0 14.097 11.428 25.524 25.524 25.524s25.524-11.427 25.524-25.524a25.418 25.418 0 00-5.86-16.27l23.448-36.81a25.43 25.43 0 008.49 1.478c2.538 0 4.985-.382 7.298-1.073l25.19 35.19c-4.306 4.57-6.964 10.71-6.964 17.485 0 14.097 11.427 25.524 25.524 25.524 14.096 0 25.524-11.427 25.524-25.524 0-6.752-2.642-12.875-6.924-17.44l14.849-21.845a6.24 6.24 0 00-1.654-8.671" fill="#3E7EBC"/><path d="M230.477 0c-14.097 0-25.524 11.427-25.524 25.524 0 6.473 2.429 12.366 6.4 16.865l-23.242 36.487a25.416 25.416 0 00-9.237-1.75c-2.847 0-5.578.486-8.135 1.348l-24.937-34.836c4.66-4.625 7.549-11.031 7.549-18.114C153.35 11.427 141.923 0 127.827 0s-25.524 11.427-25.524 25.524a25.442 25.442 0 007.486 18.057L94.378 66.25a6.242 6.242 0 1010.326 7.02l15.833-23.294a25.502 25.502 0 007.29 1.07c2.496 0 4.9-.374 7.18-1.042l25.23 35.245c-4.26 4.56-6.886 10.667-6.886 17.399 0 14.097 11.427 25.525 25.523 25.525 14.097 0 25.524-11.428 25.524-25.525 0-6.31-2.302-12.076-6.098-16.531l23.358-36.668a25.414 25.414 0 008.819 1.597C244.573 51.047 256 39.62 256 25.524 256 11.427 244.573 0 230.477 0" fill="#4C96DF"/></svg>