<svg width="256" height="140" xmlns="http://www.w3.org/2000/svg" preserveAspectRatio="xMidYMid"><path d="M151.705 35.456c-9.195 9.234-14.256 21.501-14.256 34.547 0 13.061 5.061 25.329 14.256 34.555 9.195 9.226 21.423 14.303 34.421 14.303 13.014 0 25.242-5.077 34.437-14.303 9.195-9.226 14.264-21.502 14.264-34.555 0-13.046-5.061-25.305-14.256-34.547-9.203-9.226-21.43-14.303-34.445-14.303-12.998 0-25.226 5.077-34.421 14.303z" fill="#029AFF"/><path d="M69.76 0C31.292 0 0 31.402 0 70.004 0 108.59 31.291 140 69.76 140h116.472c18.639 0 36.162-7.268 49.334-20.492C248.746 106.29 256 88.709 256 70.004c0-18.698-7.254-36.265-20.434-49.49C222.386 7.299 204.878 0 186.232 0H69.76zm83.44 103.14c-8.822-8.844-13.678-20.613-13.678-33.144 0-12.515 4.856-24.277 13.678-33.143 8.822-8.851 20.554-13.722 33.025-13.722 12.487 0 24.227 4.87 33.048 13.722 8.822 8.859 13.678 20.628 13.678 33.143 0 12.516-4.863 24.3-13.685 33.151-8.822 8.851-20.57 13.722-33.048 13.722-12.471 0-24.204-4.87-33.026-13.722l.008-.007zM23.042 70.01c0-25.845 20.962-46.88 46.719-46.88h64.791c-23.962 26.561-23.962 67.177 0 93.746H69.761c-25.757 0-46.719-21.036-46.719-46.873v.007z" fill="#303030"/></svg>