<svg width="256" height="256" xmlns="http://www.w3.org/2000/svg" preserveAspectRatio="xMidYMid"><defs><linearGradient x1="29.629%" y1="10.455%" x2="81.636%" y2="111.468%" id="a"><stop stop-color="#3023AE" offset="0%"/><stop stop-color="#C86DD7" offset="100%"/></linearGradient></defs><path d="M92.21 8h72.017c46.5 0 84.21 37.71 84.21 84.21v72.017c0 46.5-37.71 84.21-84.21 84.21H92.21c-46.5 0-84.21-37.71-84.21-84.21V92.21C8 45.71 45.71 8 92.21 8z"/><path d="M97.134 15.046c-45.345 0-82.088 36.743-82.088 82.088v61.732c0 45.344 36.743 82.087 82.088 82.087h61.732c45.345 0 82.088-36.743 82.088-82.087V97.134c0-45.345-36.743-82.088-82.088-82.088H97.134zm0-15.046h61.732C212.52 0 256 43.48 256 97.134v61.732c0 53.654-43.48 97.133-97.134 97.133H97.134C43.48 256 0 212.52 0 158.866V97.134C0 43.48 43.48 0 97.134 0z" fill="url(#a)"/><path d="M125.45 191.027L59 164.84 126.105 65l-.654 126.027zM118.916 88.37L69.77 161.486l48.664 19.178.48-92.294zm17.593 92.28l48.939-19.431-49.418-72.928.48 92.36zm-7.67-115.57l67.399 99.46-66.744 26.501-.654-125.962z" fill="#FFF"/></svg>