<svg width="256" height="264" xmlns="http://www.w3.org/2000/svg" preserveAspectRatio="xMidYMid"><g fill="none"><path fill="#F15A24" d="M45.985 256.455L0 258.05l23.573-23.967 22.414 22.374zM254.58 137.58c-8.543 66.613-69.475 113.676-136.077 105.123C51.889 234.158 4.826 173.228 13.37 106.62 21.919 40.008 82.838-7.06 149.457 1.494c66.61 8.542 113.684 69.478 105.124 136.084"/><path d="M164.982 87.532c7.99 8.494.104 28.577.104 28.577s-7.794 28.393-52.421 65.213l-8.33-8.177 56.65-57.899 1.095-1.478c1.507-2.456 2.755-26.401 2.902-26.236" fill="#999"/><path d="M164.982 87.532c7.99 8.494.104 28.577.104 28.577s-7.794 28.393-52.421 65.213l-8.33-8.177 56.65-57.899 1.095-1.478c1.507-2.456 2.755-26.401 2.902-26.236h0z" stroke="#FFF" stroke-width="1.918" stroke-linecap="round" stroke-linejoin="round"/><path d="M92.1 161.108l72.763-73.785c3.693 4.385 4.479 9.11 3.407 15.842-.722 4.663-8.775 13.981-8.775 13.981l-55.16 56" fill="#666"/><path d="M92.1 161.108l72.763-73.785c3.693 4.385 4.479 9.11 3.407 15.842-.722 4.663-8.775 13.981-8.775 13.981l-55.16 56" stroke="#FFF" stroke-width="1.201" stroke-linecap="round" stroke-linejoin="round"/><path d="M164.982 87.583L92.099 161.11l.147-.143-.027.011-18.083-17.818c37.708-46.905 62.089-55.65 62.089-55.65s15.872-6.196 27.195-1.388c.87.466 1.248.734 1.56 1.463" fill="#FF931E"/><path d="M164.982 87.583L92.099 161.11l.147-.143-.027.011-18.083-17.818c37.708-46.905 62.089-55.65 62.089-55.65s15.872-6.196 27.195-1.388c.87.466 1.248.734 1.56 1.463l.002-.002z" stroke="#FFF" stroke-width="1.918" stroke-linecap="round" stroke-linejoin="round"/><path d="M112.665 181.32c-17.388 14.32-39.641 36.816-69.889 52.506l6.728 28.762-28.516-28.087 71.11-73.393" fill="#999"/><path d="M112.665 181.32c-17.388 14.32-39.641 36.816-69.889 52.506l6.728 28.762-28.516-28.087 71.11-73.393" stroke="#FFF" stroke-width="1.918" stroke-linecap="round" stroke-linejoin="round"/><path fill="#F15A24" d="M74.623 143.4l17.665 17.596-40.81 8.84 22.754-26.753.393.318z"/><path stroke="#FFF" stroke-width="1.918" stroke-linecap="round" stroke-linejoin="round" d="M74.623 143.4l17.665 17.596-40.81 8.84 22.754-26.753.393.318z"/><path d="M158.024 66.246c-1.733 15.641 9.528 29.721 25.168 31.465 15.628 1.737 29.721-9.533 31.465-25.168 1.738-15.635-9.54-29.73-25.174-31.468-15.642-1.728-29.724 9.527-31.459 25.171" fill="#999"/><path d="M158.024 66.246c-1.733 15.641 9.528 29.721 25.168 31.465 15.628 1.737 29.721-9.533 31.465-25.168 1.738-15.635-9.54-29.73-25.174-31.468-15.642-1.728-29.724 9.527-31.459 25.171h0z" stroke="#FFF" stroke-width="1.918" stroke-linecap="round" stroke-linejoin="round"/><path d="M210.565 85.138c5.256-7.679 4.984-19.167 3.929-22.57-1.295-4.168-4.191-10.945-9.243-14.468l-26.714 24.606s20.53 22.059 21.065 22.132c.222.026 6.17-2.698 10.963-9.7" fill="#666"/><path d="M210.565 85.138c5.256-7.679 4.984-19.167 3.929-22.57-1.295-4.168-4.191-10.945-9.243-14.468l-26.714 24.606s20.53 22.059 21.065 22.132c.222.026 6.17-2.698 10.963-9.7h0zm-5.39-19.275s2.569 6.307-.69 11.214l.69-11.214z" stroke="#FFF" stroke-width="1.918" stroke-linecap="round" stroke-linejoin="round"/><path fill="#666" d="M104.964 173.156l-29.482 5.247 17.796-18.49"/><path d="M104.964 173.156l-29.482 5.247 17.796-18.49m-17.97-16.384l37.48 35.274" stroke="#FFF" stroke-width="1.918" stroke-linecap="round" stroke-linejoin="round"/></g></svg>