<svg height="64" viewBox="0 0 0 0 750 0 200" width="64" xmlns="http://www.w3.org/2000/svg"><path d="M48.022 44.403a.406.406 0 00-.004.059v11.414a1.308 1.308 0 01-1.303 1.196c-.01 0-.016.003-.024.004H35.41h-.006l-.042.002h-7.045a1.694 1.694 0 010-3.389l.01.002h14.586c.013-.003.02-.006.031-.006.887 0 1.614-.68 1.688-1.548v-14.75-.013a1.694 1.694 0 113.39 0zm-29.111 3.252c0-.934.758-1.693 1.695-1.693h14.597c.011-.002.019-.005.03-.005.887 0 1.614-.68 1.687-1.548V29.658v-.012a1.694 1.694 0 113.388 0v7.028l-.002.06.002.01v11.404A1.312 1.312 0 0139 49.345c-.009 0-.015.003-.023.005H27.7l-.008-.002a.368.368 0 00-.04.003h-7.046a1.695 1.695 0 01-1.695-1.696zM17.62 28.32a1.694 1.694 0 01-1.694-1.694V19.6c0-.021.003-.044.003-.067V8.12a1.308 1.308 0 011.303-1.198l.011-.001h18.387a1.694 1.694 0 010 3.388H19.968c1.053 0 1.045.005 1.033.005-.886 0-1.613.68-1.687 1.548v14.763c0 .935-.76 1.694-1.693 1.694zm27.393-12.016c0 .936-.76 1.694-1.696 1.694H28.72c-.011.002-.018.005-.031.005-.886 0-1.613.68-1.686 1.548v14.763a1.694 1.694 0 11-3.388 0V27.29l.002-.068V15.809c.058-.67.62-1.198 1.305-1.198.004 0 .008 0 .01-.002h18.386c.936 0 1.696.76 1.696 1.695zM33.847 0H15.446c-4.824 0-8.739 3.86-8.843 8.658l-.01.01V40.44C6.592 53.452 17.141 64 30.152 64H48.88l.017-.017c4.716-.18 8.487-4.04 8.51-8.794l.002-.001V23.56C57.408 10.548 46.858 0 33.848 0" fill="#5b307f" fill-opacity=".941"/></svg>