<svg width="256" height="249" xmlns="http://www.w3.org/2000/svg" preserveAspectRatio="xMidYMid"><defs><radialGradient cx="3.685%" cy="93.523%" fx="3.685%" fy="93.523%" r="105.029%" id="a"><stop stop-color="#212121" offset="0%"/><stop stop-color="#B8B8B8" offset="100%"/></radialGradient><radialGradient cx="30.638%" cy="48.591%" fx="30.638%" fy="48.591%" r="51.842%" gradientTransform="matrix(.80697 0 0 1 .06 0)" id="d"><stop stop-color="#FFF" offset="0%"/><stop stop-color="#FFF" stop-opacity="0" offset="100%"/></radialGradient><linearGradient x1="50.878%" y1="134.662%" x2="50.878%" y2="0%" id="b"><stop stop-color="#4B4B4B" offset="0%"/><stop stop-color="#FFF" offset="100%"/></linearGradient><linearGradient x1="31.395%" y1="83.962%" x2="56.462%" y2="29.279%" id="c"><stop stop-color="#26761E" offset="0%"/><stop stop-color="#2CB134" stop-opacity=".996" offset="100%"/></linearGradient></defs><path d="M45.501 18.774h142.013c23.295 0 42.18 18.885 42.18 42.181v142.012c0 23.296-18.885 42.181-42.18 42.181H45.5c-23.296 0-42.18-18.885-42.18-42.18V60.954c0-23.296 18.884-42.18 42.18-42.18z" fill="url(#a)"/><path d="M45.501 21.924c-21.556 0-39.03 17.475-39.03 39.031v142.012c0 21.556 17.474 39.03 39.03 39.03h142.013c21.556 0 39.03-17.474 39.03-39.03V60.955c0-21.556-17.474-39.03-39.03-39.03H45.5zm0-6.3h142.013c25.035 0 45.33 20.295 45.33 45.331v142.012c0 25.036-20.295 45.331-45.33 45.331H45.5c-25.035 0-45.33-20.295-45.33-45.33V60.954c0-25.036 20.295-45.331 45.33-45.331z" fill="#2B2B2B"/><path d="M46.561 27.096h139.063c19.998 0 36.21 16.211 36.21 36.21v84.272c0 19.997-16.212 36.209-36.21 36.209H46.561c-19.998 0-36.21-16.212-36.21-36.21V63.306c0-19.998 16.212-36.209 36.21-36.209z" fill="url(#b)" opacity=".81"/><path d="M99.518 140.181l-20.783 6.953c-2.802-8.252-8.736-12.378-17.803-12.378-9.679 0-14.518 3.133-14.518 9.398 0 2.496.904 4.61 2.713 6.342 1.808 1.732 5.896 3.235 12.263 4.508 10.646 2.14 18.44 4.305 23.381 6.495 4.941 2.19 9.106 5.718 12.493 10.582 3.387 4.865 5.081 10.303 5.081 16.314 0 9.423-3.63 17.574-10.888 24.45-7.259 6.877-18.02 10.315-32.283 10.315-10.697 0-19.802-2.432-27.316-7.297-7.513-4.864-12.467-12.085-14.86-21.661l22.616-5.12c2.547 9.73 9.627 14.594 21.241 14.594 5.604 0 9.78-1.082 12.531-3.247 2.751-2.165 4.126-4.75 4.126-7.756 0-3.056-1.248-5.424-3.744-7.105-2.496-1.681-7.31-3.26-14.44-4.738-13.296-2.75-22.77-6.507-28.425-11.27-5.654-4.763-8.481-11.729-8.48-20.898-.001-9.27 3.374-17.09 10.123-23.457 6.75-6.367 15.906-9.551 27.469-9.551 20.477 0 33.645 8.176 39.503 24.527zm81.883 46.609h-49.665a98.555 98.555 0 00-.076 3.591c0 5.502 1.464 9.653 4.393 12.455 2.929 2.801 6.431 4.202 10.506 4.202 7.59 0 12.15-4.05 13.677-12.149l20.63 1.528c-5.756 17.83-17.446 26.743-35.07 26.743-7.693 0-14.226-1.54-19.6-4.622-5.374-3.082-9.805-7.577-13.295-13.486-3.489-5.91-5.234-12.99-5.234-21.242 0-12.276 3.502-22.184 10.507-29.723 7.004-7.539 16.007-11.308 27.01-11.308 9.933 0 18.452 3.502 25.558 10.506 7.106 7.004 10.66 18.172 10.66 33.505zm-49.741-13.219h27.43c-.713-10.595-5.068-15.892-13.066-15.893-8.557 0-13.346 5.298-14.364 15.893z" fill="#EEE"/><path d="M60.015 117.464c-11.126 0-19.836 3.029-26.226 9.058-6.387 6.025-9.556 13.368-9.556 22.14 0 8.664 2.619 15.118 7.837 19.513 5.38 4.533 14.597 8.187 27.625 10.882 7.347 1.522 12.34 3.16 15.085 5.009 2.998 2.019 4.543 4.952 4.543 8.608 0 3.586-1.648 6.683-4.817 9.178-3.117 2.453-7.677 3.635-13.65 3.635-11.724 0-19.36-4.808-22.496-14.265l-19.12 4.328c2.431 8.251 6.957 14.49 13.602 18.794 7.206 4.665 15.97 7.006 26.332 7.006 13.836 0 24.153-3.297 31.038-9.819 6.904-6.54 10.323-14.218 10.323-23.136 0-5.643-1.582-10.719-4.757-15.279-3.202-4.6-7.11-7.91-11.74-9.962-4.795-2.125-12.477-4.26-23.003-6.375-6.688-1.337-11.027-2.932-13.16-4.975-2.165-2.073-3.271-4.66-3.271-7.65 0-7.472 5.772-11.208 16.328-11.209 9.198 0 15.593 4.035 18.881 11.92l17.34-5.802c-5.874-14.433-18.131-21.599-37.138-21.599zM77.6 149.423l-.58-1.707c-2.548-7.507-7.787-11.15-16.088-11.15-8.801 0-12.707 2.53-12.707 7.588 0 2.002.702 3.644 2.154 5.035 1.483 1.42 5.32 2.83 11.368 4.04 10.765 2.164 18.67 4.36 23.758 6.615 5.251 2.328 9.672 6.073 13.245 11.203 3.6 5.17 5.406 10.968 5.406 17.348 0 9.93-3.84 18.552-11.454 25.765-7.633 7.23-18.837 10.81-33.528 10.81-11.031 0-20.478-2.523-28.3-7.587-7.909-5.12-13.13-12.732-15.633-22.742l-.45-1.796 26.131-5.915.443 1.694c2.328 8.89 8.662 13.242 19.49 13.242 5.233 0 9.028-.984 11.412-2.86 2.332-1.835 3.435-3.909 3.435-6.332 0-2.457-.95-4.262-2.945-5.605-2.247-1.513-6.881-3.033-13.797-4.466-13.563-2.806-23.295-6.665-29.223-11.658-6.09-5.13-9.125-12.609-9.125-22.283 0-9.77 3.58-18.065 10.692-24.774 7.108-6.706 16.71-10.044 28.711-10.045 21.204 0 35.076 8.614 41.207 25.727l.624 1.741-24.246 8.112zm91.872 5.151c-6.768-6.67-14.831-9.985-24.288-9.985-10.509 0-19.03 3.568-25.684 10.73-6.677 7.187-10.022 16.652-10.022 28.491 0 7.943 1.666 14.706 4.982 20.321 3.334 5.646 7.543 9.915 12.637 12.836 5.083 2.915 11.307 4.383 18.698 4.383 16.089 0 26.857-7.676 32.595-23.3l-16.723-1.24c-1.993 7.9-7.138 12.039-15.108 12.039-4.54 0-8.491-1.58-11.757-4.705-3.321-3.176-4.953-7.802-4.953-13.763 0-1.043.026-2.262.078-3.658l.064-1.743h49.583c-.268-13.951-3.665-24.06-10.102-30.406zm-36.002 35.807c0 5.042 1.297 8.72 3.835 11.146 2.591 2.48 5.645 3.7 9.254 3.7 6.693 0 10.527-3.405 11.898-10.673l.3-1.59 24.54 1.818-.708 2.192c-5.992 18.561-18.367 27.997-36.794 27.997-7.992 0-14.834-1.614-20.5-4.863-5.653-3.242-10.308-7.964-13.953-14.136-3.662-6.202-5.485-13.6-5.485-22.162 0-12.713 3.658-23.063 10.99-30.955 7.354-7.915 16.84-11.887 28.337-11.887 10.41 0 19.385 3.69 26.83 11.028 7.499 7.392 11.198 19.019 11.198 34.794v1.81h-49.72c-.015.647-.022 1.24-.022 1.781zm-3.803-15l.19-1.983c1.102-11.457 6.591-17.53 16.167-17.53 9.069 0 14.101 6.122 14.873 17.582l.13 1.932h-31.36zm27.439-3.62c-.998-8.392-4.631-12.272-11.082-12.272-7.007 0-11.032 3.906-12.317 12.272h23.399z" fill="#232323"/><path fill="url(#c)" d="M107.916 89.72l42.59 45.428L253.75 28.251 239.554 3.265l-86.21 90.43-29.528-27.825z"/><path fill="url(#d)" d="M109.578 86.196l42.022 30.502 98.632-95.425-9.879-18.078-86.777 92.133-28.96-26.69z"/><path d="M239.925.252l16.069 28.282-105.508 109.24-44.873-47.864 17.885-26.828 29.778 28.06L239.925.253zm-89.4 132.27L251.507 27.967l-12.324-21.69-85.77 89.97-29.28-27.59-13.914 20.872 40.306 42.993z"/></svg>