<svg width="256" height="258" xmlns="http://www.w3.org/2000/svg" preserveAspectRatio="xMidYMid"><path d="M47.628 241.13l6.312-2.03 3.474 10.908 10.443-4.56 2.642 6.103-13.812 6.025a3.298 3.298 0 01-4.469-2.036l-4.59-14.41zM109.987 1.18A137.1 137.1 0 01127.988 0c4.178 0 8.35.188 12.469.563l-.605 6.63a131.7 131.7 0 00-29.004.587l-.861-6.6zm41.373 7.592l1.199-6.548a132.963 132.963 0 0129.178 8.894l-2.63 6.108a126.57 126.57 0 00-27.747-8.454zm-82.2 4.664A132.452 132.452 0 0197.956 3.32l1.46 6.5a125.413 125.413 0 00-27.363 9.6l-2.891-5.985zm120.367 8.93l3.189-5.826c8.989 4.97 17.344 10.983 24.808 17.865l-4.48 4.911c-7.075-6.53-14.993-12.233-23.517-16.95zM34.391 38.254c7.162-7.216 15.25-13.588 24.03-18.95l3.438 5.69a120.52 120.52 0 00-22.772 17.96l-4.696-4.7zm186.805 9.347l4.933-4.436c6.883 7.727 12.713 16.246 17.327 25.305l-5.888 3.045c-4.364-8.56-9.873-16.604-16.372-23.914zM10.036 73.487c4.184-9.282 9.618-18.06 16.146-26.103l5.126 4.218C25.152 59.194 20.02 67.485 16.07 76.238l-6.034-2.751zm232.25 8.636l6.18-2.394a114.2 114.2 0 017.022 29.958l-6.586.64a108.034 108.034 0 00-6.615-28.204zM.024 115.232a113.915 113.915 0 015.55-30.257l6.29 2.083a108.06 108.06 0 00-5.23 28.485l-6.61-.311zm245.12 35.35c2.694-9.3 4.12-18.934 4.236-28.656l6.621.083a114.4 114.4 0 01-4.497 30.433l-6.36-1.86zM0 127.477l6.621-.211c.338 10.83 1.513 20.324 3.59 29.007l-6.44 1.555C1.587 148.704.348 138.77 0 127.477zm226.91 59.2a112.083 112.083 0 0014.41-25.13l6.121 2.53a118.558 118.558 0 01-15.272 26.63l-5.26-4.03zM7.312 169.667l6.22-2.293c3.415 9.37 8.064 17.49 14.202 24.847l-5.073 4.272c-6.639-7.939-11.654-16.728-15.349-26.825zm189.912 44.556c8.174-5.345 15.639-11.617 22.202-18.663l4.835 4.547a126.303 126.303 0 01-23.43 19.696l-3.607-5.58zM31.238 205.44l4.45-4.928a94.735 94.735 0 007.21 5.943c.552.417.965.998 1.175 1.66l6.144 19.298-6.307 2.036-5.818-18.294a97.318 97.318 0 01-6.854-5.715zm128.902 25.083a124.912 124.912 0 0027.066-10.415l3.066 5.909c-9 4.717-18.577 8.407-28.492 10.954l-1.64-6.448zm-60.33.973a3.25 3.25 0 012.2-.153c2.688.752 4.76 1.28 6.528 1.685l-1.466 6.495c-1.612-.364-3.439-.833-5.696-1.455l-19.939 8.713-2.641-6.114 21.015-9.17zm28.143 3.075c6.982 0 13.987-.557 20.812-1.672l1.059 6.583a137.934 137.934 0 01-21.87 1.748c-3.48 0-6.115-.017-8.483-.1l.244-6.659c2.263.082 4.829.1 8.238.1z" fill="#9BDBF4"/><path d="M68.267 227.618a3.31 3.31 0 01-3.288-3.065l-2.54-32.815c-10.77-8.205-19.144-18.791-24.903-31.494-5.684-12.515-8.566-26.487-8.566-41.5 0-51.261 45.085-92.972 100.5-92.972 55.409 0 100.5 41.71 100.5 92.972 0 51.267-45.091 92.978-100.5 92.978-9.216 0-18.338-1.152-27.148-3.44l-32.396 18.885a3.306 3.306 0 01-1.659.45" fill="#F2F2F2"/></svg>