<svg width="256" height="154" xmlns="http://www.w3.org/2000/svg" preserveAspectRatio="xMidYMid"><path d="M178.904 2.857l-2.109-1.417a8.806 8.806 0 00-6.542-1.271h-.073a8.727 8.727 0 00-5.452 3.708L74.835 138.43a8.749 8.749 0 00-1.27 6.506v.119a8.651 8.651 0 003.708 5.415l2.109 1.38a8.69 8.69 0 0012.067-2.471l89.893-134.516a8.837 8.837 0 001.27-6.543 8.532 8.532 0 00-3.708-5.463zm-1.454 9.446l-10.686 15.992-8.795-5.814 10.687-15.955a3.986 3.986 0 012.544-1.71 4.022 4.022 0 013.017.582l2.109 1.417a3.986 3.986 0 011.71 2.544 3.907 3.907 0 01-.586 2.947v-.003zM51.113 118.182a5.156 5.156 0 01-3.237-1.128L2.006 80.817a5.22 5.22 0 010-8.228L47.84 36.294a5.256 5.256 0 016.542 8.227L13.748 76.71l40.598 32.084a5.253 5.253 0 01-3.233 9.389zm153.814 0a5.253 5.253 0 01-3.23-9.389l40.595-32.084-40.635-32.212a5.244 5.244 0 116.506-8.228l45.83 36.335a5.22 5.22 0 010 8.228l-45.83 36.189a5.196 5.196 0 01-3.236 1.16z"/><path d="M114.102 45.037c2.864-7.868 5.224-10.191 13.092-13.092-7.868-2.864-10.176-5.223-13.092-13.089-2.864 7.869-5.223 10.192-13.091 13.092 7.871 2.898 10.19 5.22 13.091 13.09z" fill="#1C96D4"/><path d="M81.72 89.533c5.004-13.636 9.03-17.661 22.665-22.666-13.636-5.004-17.661-9.03-22.666-22.666-5.004 13.636-9.03 17.662-22.666 22.666 13.636 4.968 17.698 9.03 22.666 22.666z" fill="#C61A41"/><path d="M170.24 110.493c3.627-9.899 6.564-12.8 16.418-16.418-9.9-3.627-12.8-6.564-16.418-16.418-3.627 9.9-6.564 12.8-16.418 16.418 9.854 3.618 12.79 6.568 16.418 16.418z" fill="#EEB034"/></svg>