<svg width="256" height="256" xmlns="http://www.w3.org/2000/svg" preserveAspectRatio="xMidYMid"><defs><radialGradient cx="23.517%" cy="6.937%" fx="23.517%" fy="6.937%" r="91.119%" gradientTransform="matrix(.58234 .81292 -.83777 .6001 .156 -.163)" id="a"><stop stop-color="#DE0081" offset="0%"/><stop stop-color="#6600C4" offset="100%"/></radialGradient></defs><path d="M81.815 8.66c-65.917 25.506-98.667 99.614-73.15 165.531 25.495 65.91 99.603 98.664 165.508 73.158 42.322-16.37 70.947-52.76 79.301-94.15-15.67 10.299-33.845 19.677-53.798 27.423-75.77 29.323-148.662 23.476-162.76-13.029-6.47-16.709.476-36.95 17.185-56.775a7.013 7.013 0 01-1.039-1.84 7.307 7.307 0 0110.833-8.756C84.139 80.52 113.55 61.91 148.453 48.377c21.986-8.489 43.687-14.039 63.81-16.74A128.47 128.47 0 00127.973 0a127.497 127.497 0 00-46.15 8.654l-.009.006zm67.95 43.023c-34.748 13.444-63.94 31.863-83.508 51.053a7.307 7.307 0 01-3.71 10.46 7.236 7.236 0 01-5.751-.209c-14.573 17.57-20.591 35.164-14.988 49.644 12.86 33.226 82.038 37.416 154.523 9.37 22.31-8.637 42.334-19.321 59.001-30.943.757-7.331.873-14.78.336-22.242-15.196 15.166-37.692 29.53-64.48 39.895-25.376 9.823-50.306 14.388-71.081 14.014-1.158 3.214-3.621 5.936-7.034 7.26-6.203 2.394-13.207-.69-15.582-6.895a11.773 11.773 0 01-.771-3.324c-13.92-3.65-23.892-10.655-27.839-20.805-10.625-27.423 26.919-67.49 83.813-89.541 26.177-10.12 51.879-14.661 73.04-13.95a129.492 129.492 0 00-10.21-10.743c-20.538 2.553-43.034 8.192-65.857 17.006l.098-.05zm4.205 10.853c-53.689 20.775-89.6 57.221-80.251 81.41 3.442 8.873 12.465 14.839 25.197 17.866 1.306-1.87 3.176-3.354 5.46-4.244 6.055-2.345 12.911.593 15.434 6.53 19.647.118 43.568-4.482 68.024-13.92 28.58-11.07 52.145-26.592 66.51-42.334a125.882 125.882 0 00-5.045-20.39c-6.648 16.428-30.57 35.437-62.326 47.724-41.936 16.226-81.617 14.593-88.68-3.65-1.276-3.235-1.395-6.773-.564-10.507a8.592 8.592 0 01-3.146-4.015c-1.751-4.482.445-9.539 4.897-11.257a8.458 8.458 0 016.321.059c10.774-13.415 30.807-27.106 55.589-36.713 30.213-11.693 59.298-14.109 75.8-7.704a127.53 127.53 0 00-8.696-12.543 114.13 114.13 0 00-7.212-.228c-19.559 0-43.213 4.6-67.4 13.949l.088-.033zm8.815 10.002c-24.693 9.557-44.46 22.882-53.986 35.17.831.83 1.484 1.84 1.959 2.997 1.721 4.511-.475 9.557-4.897 11.278a8.897 8.897 0 01-3.235.594c.03 1.424.267 2.76.771 4.036 5.758 14.928 41.729 14.928 80.282 0 38.582-14.929 65.145-39.146 59.387-54.045-2.908-7.45-13.355-11.19-27.868-11.19-14.543 0-33.181 3.74-52.473 11.19l.06-.03zm-10.83 34.81c-4.176-10.803 1.205-23.01 12.02-27.194 10.815-4.185 23.013 1.21 27.195 12.02 4.184 10.815-1.211 23.013-12.02 27.197a20.554 20.554 0 01-7.56 1.425c-8.428 0-16.412-5.105-19.638-13.415l.003-.033z" fill="url(#a)"/></svg>