<svg width="256" height="308" xmlns="http://www.w3.org/2000/svg" preserveAspectRatio="xMidYMid"><path d="M239.682 40.707C211.113-.182 154.69-12.301 113.895 13.69L42.247 59.356a82.198 82.198 0 00-37.135 55.056 86.566 86.566 0 008.536 55.576 82.425 82.425 0 00-12.296 30.719 87.596 87.596 0 0014.964 66.244c28.574 40.893 84.997 53.007 125.787 27.016l71.648-45.664a82.182 82.182 0 0037.135-55.057 86.601 86.601 0 00-8.53-55.577 82.409 82.409 0 0012.29-30.718 87.573 87.573 0 00-14.963-66.244" fill="#FF3E00"/><path d="M106.889 270.841c-23.102 6.007-47.497-3.036-61.103-22.648a52.685 52.685 0 01-9.003-39.85 49.978 49.978 0 011.713-6.693l1.35-4.115 3.671 2.697a92.447 92.447 0 0028.036 14.007l2.663.808-.245 2.659a16.067 16.067 0 002.89 10.656 17.143 17.143 0 0018.397 6.828 15.786 15.786 0 004.403-1.935l71.67-45.672a14.922 14.922 0 006.734-9.977 15.923 15.923 0 00-2.713-12.011 17.156 17.156 0 00-18.404-6.832 15.78 15.78 0 00-4.396 1.933l-27.35 17.434a52.298 52.298 0 01-14.553 6.391c-23.101 6.007-47.497-3.036-61.101-22.649a52.681 52.681 0 01-9.004-39.849 49.428 49.428 0 0122.34-33.114l71.664-45.677a52.218 52.218 0 0114.563-6.398c23.101-6.007 47.497 3.036 61.101 22.648a52.685 52.685 0 019.004 39.85 50.559 50.559 0 01-1.713 6.692l-1.35 4.116-3.67-2.693a92.373 92.373 0 00-28.037-14.013l-2.664-.809.246-2.658a16.099 16.099 0 00-2.89-10.656 17.143 17.143 0 00-18.398-6.828 15.786 15.786 0 00-4.402 1.935l-71.67 45.674a14.898 14.898 0 00-6.73 9.975 15.9 15.9 0 002.709 12.012 17.156 17.156 0 0018.404 6.832 15.841 15.841 0 004.402-1.935l27.345-17.427a52.147 52.147 0 0114.552-6.397c23.101-6.006 47.497 3.037 61.102 22.65a52.681 52.681 0 019.003 39.848 49.453 49.453 0 01-22.34 33.12l-71.664 45.673a52.218 52.218 0 01-14.563 6.398" fill="#FFF"/></svg>