<svg width="512" height="94" xmlns="http://www.w3.org/2000/svg" preserveAspectRatio="xMidYMid"><path d="M269.29 21.637a27.43 27.43 0 0110.25 1.832 18.9 18.9 0 017.724 5.595v-3.219a3.713 3.713 0 013.713-3.713h7.922v44.115c0 18.287-9.341 27.43-28.024 27.43-4.8.031-9.583-.602-14.21-1.881a30.203 30.203 0 01-11.09-5.496l3.515-5.892a3.615 3.615 0 014.774-1.29l.177.102a29.707 29.707 0 005.595 2.475 33.866 33.866 0 0010.546 1.733c4.535.4 9.047-.986 12.576-3.862a15.943 15.943 0 004.01-11.883v-2.822a19.805 19.805 0 01-7.575 4.951 26.786 26.786 0 01-9.902 1.733 28.173 28.173 0 01-13.369-3.169 23.766 23.766 0 01-9.456-8.912A24.756 24.756 0 01243 46.344a24.756 24.756 0 013.466-13.072 23.518 23.518 0 019.456-8.516 28.569 28.569 0 0113.369-3.12zM35.297 56.444a10.546 10.546 0 017.546 17.378l-.219.248-.111.126a1.882 1.882 0 00.111 2.499 33.718 33.718 0 009.269 5.548l.634.244.148.043a1.882 1.882 0 002.174-1.087l.054-.144.124-.312a10.546 10.546 0 0113.492-5.827 10.546 10.546 0 016.09 6.535c.063.16.146.309.248.446C48.91 95.36 39.603 91.2 20.392 68.575a38.719 38.719 0 01-6.535-11.438 32.926 32.926 0 0021.439-.693zm124.622-35.055c3.6.012 7.187.428 10.695 1.238a30.054 30.054 0 018.813 3.367L177.1 30.45a5.496 5.496 0 01-6.783 2.723 30.054 30.054 0 00-10.547-1.832 16.488 16.488 0 00-8.12 1.634 4.951 4.951 0 00-2.772 4.209 4.209 4.209 0 002.97 4.159 46.79 46.79 0 009.26 2.327 71.1 71.1 0 0110.199 2.327 15.992 15.992 0 016.932 4.258 11.932 11.932 0 012.871 8.566 13.566 13.566 0 01-6.337 11.685 29.707 29.707 0 01-17.23 4.406 46.591 46.591 0 01-12.527-1.782 31.094 31.094 0 01-9.655-4.209l2.129-4.208a5.496 5.496 0 016.932-2.625 35.6 35.6 0 003.911 1.387 34.956 34.956 0 009.903 1.386c7.261 0 10.892-1.914 10.892-5.743a3.862 3.862 0 00-2.772-3.813 48.027 48.027 0 00-8.913-2.03 71.941 71.941 0 01-10.496-2.327 16.042 16.042 0 01-6.932-4.456 12.378 12.378 0 01-2.97-8.813 13.863 13.863 0 016.188-11.834 28.123 28.123 0 0116.686-4.456zm229.836-10.744a3.714 3.714 0 013.708 3.516l.006.198v8.12h13.863v9.902h-13.863v24.756a8.07 8.07 0 001.881 5.793 6.932 6.932 0 005.298 1.98c.774.067 1.553.067 2.327 0a5.892 5.892 0 016.684 3.516l1.386 2.872a14.359 14.359 0 01-5.248 2.624 23.51 23.51 0 01-6.486.891 18.37 18.37 0 01-13.27-4.506 17.23 17.23 0 01-4.703-13.07V10.644h8.417zm-52.978 11.041c3.17-.038 6.317.551 9.259 1.733a20.449 20.449 0 017.377 4.952v-2.377a3.714 3.714 0 013.516-3.708l.198-.005 8.516-.149v52.136h-11.537v-6.882a18.815 18.815 0 01-7.427 5.546 25.202 25.202 0 01-9.902 1.832 27.578 27.578 0 01-13.566-3.318 23.518 23.518 0 01-9.26-9.259 30.846 30.846 0 010-27.974 23.667 23.667 0 019.359-9.457 27.727 27.727 0 0113.467-3.07zm120.018 3.268a24.756 24.756 0 019.902 9.457 28.42 28.42 0 010 27.48 24.756 24.756 0 01-9.902 9.456 31.54 31.54 0 01-28.52 0 24.756 24.756 0 01-9.902-9.457 28.42 28.42 0 010-27.479 24.756 24.756 0 019.903-9.457 31.54 31.54 0 0128.519 0zm-344.408-7.823c7.823 9.21-6.684 41.987-25.152 57.137a10.546 10.546 0 019.953-17.24l.296.06.163.026a1.832 1.832 0 002.016-1.512c.523-3.337.556-6.731.098-10.076l-.098-.668-.046-.146a1.882 1.882 0 00-2.232-1.19 10.546 10.546 0 01-9.861-17.298l.206-.23.112-.126a1.882 1.882 0 00-.112-2.498 33.668 33.668 0 00-9.268-5.549l-.634-.244-.149-.043a1.882 1.882 0 00-2.228 1.231 10.497 10.497 0 01-19.409 1.04 32.876 32.876 0 00-3.07-9.605c7.526-1.436 51.345-2.971 59.415 6.931zm121.107 5l7.675.05-20.201 47.136a8.07 8.07 0 01-7.094 4.944l-.284.007h-6.535l19.805-46.145.99-2.327a6.09 6.09 0 015.644-3.664zM512 21.539v11.536a15.497 15.497 0 00-2.822-.297 14.854 14.854 0 00-11.041 4.11 16.488 16.488 0 00-4.01 11.932v25.45h-12.181V22.131h7.872a3.714 3.714 0 013.709 3.516l.005.197v3.862A20.201 20.201 0 01512 21.537zm-319.503.544a6.09 6.09 0 015.546 3.538l.099.225 12.031 27.628-6.04 14.012-20.202-45.403h8.566zm134.674 14.26a18.171 18.171 0 000 23.568 14.854 14.854 0 0011.04 4.506 14.854 14.854 0 0011.092-4.457v-.05c5.848-6.767 5.848-16.8 0-23.567-6.166-5.98-15.967-5.98-22.132 0zm104.272-.149a18.171 18.171 0 000 23.568 14.854 14.854 0 0011.042 4.506 14.854 14.854 0 0011.09-4.407v-.099c5.849-6.767 5.849-16.8 0-23.568-6.165-5.98-15.966-5.98-22.132 0zm-171.906-.247a13.863 13.863 0 00-4.407 10.596 14.012 14.012 0 004.407 10.744 17.775 17.775 0 0022.775 0 14.012 14.012 0 004.457-10.744 13.863 13.863 0 00-4.457-10.596 17.923 17.923 0 00-22.775 0zM65.15 40.105c5.524 0 10.002 4.478 10.002 10.001 0 5.524-4.478 10.002-10.002 10.002-5.523 0-10.001-4.478-10.001-10.002 0-5.523 4.478-10.001 10.001-10.001zM25.344 0a3.516 3.516 0 013.411 3.326l.005.19V8.12a3.515 3.515 0 001.546 2.952l.187.118 1.782 1.04a3.515 3.515 0 003.321.104l.195-.104 3.911-2.328.194-.111a3.515 3.515 0 014.646 1.255l.111.193 1.931 3.17.113.191a3.515 3.515 0 01-1.208 4.646l-.192.113-3.862 2.327a3.515 3.515 0 00-1.728 2.849l-.005.221v1.882a3.515 3.515 0 001.5 2.95l.184.12 3.862 2.326.049-.05a3.515 3.515 0 011.303 4.763l-.115.19-1.832 3.168-.113.192a3.515 3.515 0 01-4.646 1.208l-.192-.113-3.812-2.376a3.515 3.515 0 00-3.321-.105l-.195.105-1.782 1.04a3.515 3.515 0 00-1.729 2.848l-.004.221v4.11l-.005.193a3.516 3.516 0 01-3.318 3.317l-.192.005h-3.615a3.516 3.516 0 01-3.51-3.322l-.005-.193v-4.01a3.515 3.515 0 00-1.546-2.952l-.187-.119-1.783-1.04a3.515 3.515 0 00-3.32-.104l-.195.105-3.862 2.327-.192.112a3.515 3.515 0 01-4.646-1.208l-.113-.192-1.832-3.168-.112-.193a3.515 3.515 0 011.207-4.645l.192-.114 3.862-2.327a3.515 3.515 0 001.723-2.755l.01-.215v-1.98a3.515 3.515 0 00-1.502-2.903l-.181-.118-3.862-2.327-.192-.113A3.515 3.515 0 01.475 14.65l.112-.192 1.684-3.268.113-.192A3.515 3.515 0 017.03 9.79l.192.112 3.912 2.674a3.515 3.515 0 003.32.104l.195-.104 1.782-1.04a3.515 3.515 0 001.729-2.848l.004-.221V3.515a3.516 3.516 0 013.323-3.51L21.68 0h3.664zm-7.186 20.28a7.476 7.476 0 005.08 12.742l.274.003-.05-.05.246-.004a7.477 7.477 0 007.225-7.177l.005-.246-.005-.274a7.476 7.476 0 00-12.775-4.994z"/></svg>