<svg width="256" height="256" xmlns="http://www.w3.org/2000/svg" preserveAspectRatio="xMidYMid"><defs><linearGradient x1="73.727%" y1="82.98%" x2="33.337%" y2="10.981%" id="a"><stop stop-color="#9154FF" offset="0%"/><stop stop-color="#6974FF" offset="19.89%"/><stop stop-color="#3C99FF" offset="45.39%"/><stop stop-color="#1BB3FF" offset="68.17%"/><stop stop-color="#07C3FF" offset="87.15%"/><stop stop-color="#00C9FF" offset="100%"/></linearGradient></defs><path d="M116.084 139.915c-3.664-3.664-9.659-3.664-13.316-.01l-47.865 47.87c-3.66 3.66-3.66 9.652.007 13.318 3.664 3.67 9.656 3.67 13.316.011l47.87-47.869c3.683-3.688 3.654-9.654-.012-13.32m56.912-56.912c-27.219-27.217-71.471-27.192-98.67.01l-54.572 54.57c-3.666 3.671-3.666 9.664-.006 13.321 3.663 3.666 9.66 3.666 13.324 0l54.573-54.57c19.868-19.87 52.167-19.875 72.03-.006 19.869 19.866 19.86 52.162-.006 72.03l-54.572 54.575c-3.664 3.664-3.664 9.659 0 13.325 3.657 3.657 9.652 3.657 13.318-.007l54.572-54.572c27.2-27.203 27.228-71.455.009-98.676M219.55 36.45c-48.613-48.616-127.657-48.587-176.243 0L2.743 77.017c-3.657 3.657-3.657 9.652 0 13.311 3.664 3.664 9.66 3.664 13.318.002l40.566-40.563c41.26-41.261 108.374-41.234 149.605 0 41.26 41.26 41.234 108.368 0 149.604l-40.566 40.566c-3.66 3.658-3.66 9.655.009 13.321 3.655 3.655 9.652 3.655 13.31 0l40.565-40.568c48.586-48.582 48.613-127.624 0-176.24" fill="url(#a)"/></svg>