<svg width="256" height="275" xmlns="http://www.w3.org/2000/svg" preserveAspectRatio="xMidYMid"><path d="M0 108.688a4.294 4.294 0 014.299-4.297h121.676c21.95 0 39.811 17.794 39.811 39.668v35.34a4.314 4.314 0 01-4.314 4.312c-.072 0-.167 0-.253.011l-121.563-.011C17.796 183.71 0 165.922 0 144.04v-35.353zm216.843-4.321h34.865a4.302 4.302 0 014.292 4.299v35.364c0 21.872-17.78 39.656-39.654 39.656l-34.775-.007c-2.474 0-4.405-1.889-4.405-4.289v-35.35c0-21.88 17.803-39.673 39.677-39.673zm-55.372 90.746H91.236a4.305 4.305 0 00-4.298 4.299v70.72c0 2.411 1.944 4.291 4.412 4.291l34.763.007c21.872 0 39.672-17.789 39.672-39.663v-35.355c0-2.366-1.933-4.299-4.314-4.299zm10.082-149.914c0 24.964-20.237 45.201-45.201 45.201-24.962 0-45.2-20.237-45.2-45.201C81.153 20.237 101.39 0 126.353 0c24.964 0 45.201 20.237 45.201 45.199z" fill="#29B4A7"/></svg>