<svg width="256" height="256" xmlns="http://www.w3.org/2000/svg" preserveAspectRatio="xMidYMid"><path d="M128 0C57.458 0 0 56.889 0 128c0 71.111 57.458 128 128 128s128-57.458 128-128S198.542 0 128 0" fill="#AD0"/><path d="M211.618 124.433c-.084-22.829-18.675-41.377-41.52-41.377-21.192 0-39.52 17.883-40.933 39.897-.39 3.763-.723 7.722-1.164 12.442 0 16.906-13.244 30.15-30.153 30.15-16.905 0-30.15-13.243-30.15-30.15 0-.181-.087-.335-.103-.513.009-.13.075-.242.075-.376v-28.444a5.689 5.689 0 10-11.377 0v28.444c0 .184.086.337.103.513-.01.131-.076.243-.076.376 0 22.9 18.63 41.528 41.528 41.528 22.642 0 41.079-18.218 41.492-40.762.558-4.364 1.02-8.593 1.164-12.368.983-16.189 14.258-29.359 29.594-29.359 16.906 0 30.15 13.246 30.15 30.154l-.535 29.436a5.692 5.692 0 005.58 5.8h.11a5.694 5.694 0 005.688-5.579s.529-29.733.527-29.813" fill="#FFF"/></svg>