<svg width="255" height="263" xmlns="http://www.w3.org/2000/svg" preserveAspectRatio="xMidYMid"><path fill="#1159CC" d="M254.22 20.234L196.025 53.47l-1.639 20.618-44.189 99.767-26.268 17.348 3.182 71.6 49.533-28.552 77.574-189.947zM92.45 56.933V34.051l-.238-.136L53.73 53.017l1.642 23.034 48.032 104.547 26.02-14.71-2.31-28.087z"/><path fill="#127EFF" d="M219.557 0l-57.748 33.814h-.034v23.119l-34.663 80.868v27.024l-23.12 13.41-46.204-104.09V53.81L92.45 33.848 34.668 0 .006 20.234v24.783l78.016 189.472 49.09 28.314v-71.158l23.086-13.41-.272-.17 46.511-103.92V53.81l57.782-33.576z"/></svg>