<svg width="256" height="242" xmlns="http://www.w3.org/2000/svg" preserveAspectRatio="xMidYMid"><path d="M0 0h256L127.975 241.508 0 0"/><path d="M158.988 64.196a7.24 7.24 0 11-14.48 0 7.24 7.24 0 0114.48 0" fill="#00ADCC"/><path d="M158.988 84.082a7.24 7.24 0 11-14.48 0 7.24 7.24 0 0114.48 0" fill="#005766"/><path d="M158.988 103.872a7.24 7.24 0 11-14.48 0 7.24 7.24 0 0114.48 0" fill="#00D8FE"/><path d="M115.548 103.872a7.24 7.24 0 11-14.481-.001 7.24 7.24 0 0114.481.001" fill="#008DA6"/><path d="M115.548 84.082a7.24 7.24 0 11-14.481 0 7.24 7.24 0 0114.481 0m0-19.886a7.24 7.24 0 11-14.481-.001 7.24 7.24 0 0114.481.001" fill="#00D8FE"/><path d="M137.268 64.196a7.24 7.24 0 11-14.48 0 7.24 7.24 0 0114.48 0" fill="#005766"/><path d="M137.268 84.082a7.24 7.24 0 01-7.24 7.24 7.24 7.24 0 01-7.24-7.24 7.24 7.24 0 017.24-7.24 7.24 7.24 0 017.24 7.24" fill="#00C3E6"/><path d="M137.268 103.872a7.24 7.24 0 11-14.48 0 7.24 7.24 0 0114.48 0" fill="#008DA6"/><path d="M137.268 123.951a7.24 7.24 0 01-7.24 7.24 7.24 7.24 0 01-7.24-7.24 7.24 7.24 0 017.24-7.24 7.24 7.24 0 017.24 7.24" fill="#00D8FE"/></svg>