<svg width="256" height="256" xmlns="http://www.w3.org/2000/svg" preserveAspectRatio="xMidYMid"><defs><linearGradient x1="82.166%" y1="64.827%" x2="35.139%" y2="45.368%" id="a"><stop stop-opacity="0" offset="0%"/><stop stop-opacity=".2" offset="100%"/></linearGradient></defs><path d="M.516 48.39a7.48 7.48 0 015.914-8.768L207.612.516a7.48 7.48 0 018.768 5.914l39.105 201.182a7.48 7.48 0 01-5.913 8.768L48.39 255.485a7.48 7.48 0 01-8.768-5.913L.516 48.39z" fill-opacity=".3" fill="#F03939"/><path d="M9.536 35.25a7.48 7.48 0 016.798-8.102L220.502 9.285a7.48 7.48 0 018.101 6.798l17.862 204.168a7.48 7.48 0 01-6.798 8.101L35.5 246.215a7.48 7.48 0 01-8.102-6.798L9.536 35.249z" fill-opacity=".5" fill="#F03939"/><rect fill="#EF3939" x="18.188" y="18.188" width="219.874" height="219.874" rx="7"/><path d="M18.437 25.669a7.232 7.232 0 017.232-7.232H230.58a7.232 7.232 0 017.232 7.232V230.58a7.232 7.232 0 01-7.232 7.232H25.669a7.232 7.232 0 01-7.232-7.232V25.669zm-.499 0V230.58a7.73 7.73 0 007.73 7.73h204.913a7.73 7.73 0 007.73-7.73V25.669a7.73 7.73 0 00-7.73-7.73H25.669a7.73 7.73 0 00-7.73 7.73z" fill-opacity=".3"/><path d="M238.062 80.417v127.648c0 16.567-13.423 29.997-29.997 29.997H181.15l-63.42-36.621 35.1-60.802a23.33 23.33 0 003.515.274c14.609 0 26.45-14.708 26.45-32.856 0-5.235-.997-10.171-2.742-14.559l20.167-34.925 37.843 21.844z" fill="url(#a)"/><path d="M170.679 84.524c-6.332-12.69.398-26.874 14.184-29.915 11.218-2.493 22.835 5.734 24.306 17.126.648 4.986-.324 9.548-2.817 13.86-20.442 35.45-40.909 70.874-61.3 106.323-3.79 6.581-9.324 10.57-16.877 11.118-8.476.599-15.132-2.941-19.395-10.295-12.938-22.212-25.727-44.499-38.566-66.76-7.802-13.537-15.655-27.073-23.433-40.635-7.853-13.686.997-30.313 16.752-31.136 8.302-.424 14.734 3.415 18.947 10.62 5.758 9.847 11.417 19.769 17.126 29.64 4.113 7.13 8.152 14.31 12.39 21.34 6.107 10.246 15.131 16.004 27.097 16.727 16.977.997 32.732-11.268 34.776-29.267.15-1.346.25-2.692.3-3.39-.075-5.833-1.172-10.744-3.49-15.356z" fill="#FFF"/></svg>