<svg width="512" height="102" xmlns="http://www.w3.org/2000/svg" preserveAspectRatio="xMidYMid"><path d="M31.758 5.185C30.628 2.276 27.88.337 24.648.337H6.872C3.317.337.569 3.246.569 6.639c0 3.394 2.91 6.303 6.303 6.303h14.22l7.273 17.453 7.757 19.23h13.736l-18.1-44.44z" fill="#1E88E5"/><path d="M104.297.337c-2.424 0-4.16 1.434-5.454 4.343L65.21 88.561 54.706 61.897H41.273l13.584 33.128c1.94 4.364 5.01 6.616 8.888 6.616h3.081c3.878 0 6.949-2.252 8.888-6.616l35.25-85.648c.323-.647.454-1.627.454-3.081s-.636-2.747-1.768-4.04C108.52.963 106.721.337 104.297.337zm36.866 0c-1.778 0-3.253.626-4.545 1.919-1.293 1.293-1.92 2.919-1.92 4.697v55.6c0 12.444 4.344 22.281 13.232 29.392 7.595 6.14 16.998 9.393 27.826 9.393 10.665 0 19.866-3.09 27.623-9.393 8.888-7.11 13.433-16.948 13.433-29.391V6.953c0-1.778-.676-3.404-1.97-4.697C213.55.963 211.925.337 210.147.337c-1.939 0-3.383.626-4.191 1.919-1.293 1.293-1.92 2.919-1.92 4.697v56.106c0 8.564-2.918 15.15-8.736 19.998-5.333 4.363-11.797 6.666-19.392 6.666-7.595 0-14.06-2.303-19.392-6.666-5.818-4.848-8.737-11.434-8.737-19.998V6.953c0-1.778-.626-3.404-1.919-4.697-1.294-1.293-2.92-1.919-4.697-1.919zm192.003 0c-1.778 0-3.263.636-4.394 1.767-1.131 1.132-1.768 2.616-1.768 4.394s.637 3.212 1.768 4.343c1.293 1.131 2.616 1.768 4.394 1.768h29.24V95.53c0 1.778.626 3.202 1.918 4.495 1.132 1.293 2.768 1.97 4.545 1.97 1.778 0 3.404-.677 4.697-1.97 1.293-1.131 1.919-2.717 1.919-4.495V12.61h29.088c1.778 0 3.212-.637 4.343-1.768 1.131-1.293 1.818-2.565 1.818-4.343a6.07 6.07 0 00-1.818-4.394c-1.13-1.13-2.565-1.767-4.343-1.767h-71.407zm-76.307.151c-1.777 0-3.201.677-4.494 1.97-1.293 1.293-1.97 2.868-1.97 4.646v85.649c0 2.424.798 4.535 2.576 6.312 1.777 1.778 3.888 2.576 6.312 2.576h50.753c1.778 0 3.404-.475 4.697-1.768 1.293-1.13 1.919-2.717 1.919-4.494 0-1.778-.626-3.404-1.92-4.697-1.292-1.293-2.918-1.97-4.696-1.97v.203h-46.561V7.104c0-1.778-.626-3.353-1.92-4.646-1.292-1.293-2.918-1.97-4.696-1.97zm180.994 0c-1.778 0-3.404.677-4.696 1.97-1.293 1.293-1.92 2.868-1.92 4.646v87.618c0 4.04 3.233 7.12 7.273 7.12a7.242 7.242 0 007.272-7.271V63.36h28.583c5.494 0 10.02-.181 12.928 1.92 3.07 2.1 5.343 5.18 7.12 8.736 1.778 3.717 2.576 9.403 2.576 17.322v3.838c0 1.94.687 3.565 1.818 4.696 1.131 1.132 2.707 1.768 4.646 1.768 1.94 0 3.555-.626 4.848-1.92 1.293-1.292 1.97-2.756 1.97-4.696v-6.11c0-6.464-.98-12.484-3.08-17.978-2.91-8.242-8.101-13.221-15.05-15 6.464-2.261 11.16-5.807 14.393-10.655 3.07-4.848 4.696-10.05 4.696-15.705 0-8.727-3.09-15.676-9.393-21.009-6.787-5.656-16.796-8.08-30.048-8.08h-33.936zm8.08 14.09h24.24c9.535 0 16.484 1.424 21.009 4.495 3.716 2.747 5.504 6.635 5.504 11.968 0 5.656-2.434 10.02-7.12 12.928-4.687 3.07-10.98 4.545-18.736 4.545h-24.897V14.578z" fill="#2B2A29"/></svg>