<svg version="1.0" xmlns="http://www.w3.org/2000/svg" viewBox="0 0 420 70"
 preserveAspectRatio="xMidYMid meet">

<g transform="translate(0.000000,75.000000) scale(0.075000,-0.075000)"
fill="#000000" stroke="none">
<path d="M1879 1023 c-38 -95 -158 -480 -154 -492 4 -11 9 -10 25 4 11 10 22
26 25 35 3 10 18 21 33 25 15 3 49 20 75 37 36 23 47 36 45 52 -4 31 -46 32
-91 1 -21 -14 -40 -25 -42 -25 -2 0 7 35 20 78 70 228 92 312 84 312 -5 0 -14
-12 -20 -27z m15 -348 c-6 -15 -72 -60 -79 -54 -9 10 57 69 77 69 4 0 5 -7 2
-15z"/>
<path d="M453 960 c-44 -26 -93 -95 -157 -220 -68 -134 -92 -198 -79 -211 17
-17 37 -1 120 94 82 95 154 154 172 142 17 -10 12 -105 -7 -155 -14 -35 -31
-54 -90 -96 -126 -89 -147 -114 -96 -114 34 0 101 48 161 114 26 30 64 64 84
75 32 19 38 20 49 6 14 -17 62 -20 91 -4 20 10 20 8 14 -38 -4 -26 -9 -56 -12
-65 -2 -10 -1 -18 4 -18 4 0 28 85 53 188 l46 187 78 7 c43 4 81 10 85 14 3 4
-30 4 -73 0 l-79 -7 6 36 c7 45 -13 43 -27 -2 -8 -31 -33 -43 -92 -43 -12 0
-26 -5 -30 -11 -4 -7 11 -9 51 -4 53 7 57 6 52 -11 -4 -11 -16 -59 -28 -108
-19 -77 -26 -90 -53 -107 -38 -23 -55 -24 -63 -3 -4 11 5 27 26 46 34 32 37
61 8 66 -25 5 -54 -24 -62 -59 -6 -24 -46 -59 -68 -59 -3 0 2 23 10 51 30 102
-10 163 -82 125 -33 -18 -144 -124 -186 -179 -42 -55 -30 -16 34 115 78 156
124 222 173 246 35 16 36 16 55 -7 10 -13 19 -38 19 -57 0 -37 19 -47 22 -11
6 89 -52 124 -129 77z m198 -287 c-8 -15 -10 -15 -11 -2 0 17 10 32 18 25 2
-3 -1 -13 -7 -23z m-241 -199 c-8 -8 -23 -20 -34 -25 -13 -6 -10 0 9 15 34 29
43 33 25 10z"/>
<path d="M3933 861 c-43 -27 -65 -72 -71 -147 -4 -53 -1 -68 18 -99 27 -43
105 -90 178 -106 28 -7 52 -16 52 -20 0 -15 -86 -78 -164 -120 -78 -42 -83
-43 -190 -47 -71 -3 -154 2 -231 13 -174 24 -314 30 -360 15 -21 -7 -64 -37
-96 -66 -32 -29 -70 -56 -84 -60 -39 -10 -124 3 -254 37 -112 30 -122 31 -261
25 -122 -5 -171 -12 -310 -46 -91 -22 -177 -40 -192 -40 -14 0 -33 -3 -42 -6
-21 -8 -20 -41 2 -48 26 -8 118 9 229 43 205 63 375 69 573 20 175 -42 235
-47 292 -21 25 11 63 35 84 54 72 64 82 68 169 68 44 0 139 -7 210 -15 163
-18 325 -19 391 -1 80 21 171 74 234 137 l58 57 74 -8 c127 -14 374 -23 441
-16 36 4 73 14 84 21 17 13 17 15 0 32 -16 17 -38 18 -287 15 -148 -2 -274 -1
-279 2 -5 4 -3 26 5 53 21 70 18 159 -7 199 -48 78 -196 119 -266 75z m145
-47 c20 -8 49 -27 65 -41 23 -23 27 -34 27 -86 0 -33 -5 -78 -12 -99 -12 -40
-12 -40 -52 -34 -147 21 -208 82 -186 183 12 52 24 71 55 83 31 13 62 11 103
-6z"/>
<path d="M1983 698 c-35 -36 -57 -84 -49 -105 9 -21 24 -15 70 27 24 22 46 40
49 40 3 0 3 -16 0 -34 -6 -37 3 -86 15 -86 6 0 9 27 15 145 2 23 -2 29 -15 27
-10 -2 -18 2 -18 8 0 21 -37 9 -67 -22z m16 -64 c-18 -19 -34 -32 -37 -30 -8
8 10 47 36 78 26 31 27 31 30 9 3 -16 -7 -34 -29 -57z"/>
<path d="M1211 694 c-12 -15 -21 -32 -21 -39 0 -13 -32 -44 -73 -70 l-27 -18
2 59 c3 53 1 59 -17 62 -15 2 -31 -11 -55 -44 -55 -76 -56 -83 -1 -24 l50 55
1 -35 c0 -72 -17 -102 -100 -178 -85 -78 -124 -123 -135 -159 -5 -20 -3 -23
20 -23 36 0 126 93 179 183 21 37 59 83 83 103 40 33 47 35 55 21 12 -23 30
-21 63 5 25 19 28 20 37 5 13 -25 33 -21 73 14 24 21 35 26 35 16 0 -25 26
-40 49 -27 17 9 21 8 21 -5 0 -30 28 -14 69 40 40 53 61 68 61 43 0 -8 3 -9
10 -2 14 14 2 44 -18 44 -9 0 -27 -12 -40 -27 l-23 -28 6 28 c8 38 -12 34 -29
-6 -7 -19 -26 -44 -42 -56 l-29 -23 -3 41 c-2 23 -8 41 -15 41 -6 0 -31 -21
-54 -47 l-44 -48 6 38 c3 21 9 45 12 53 3 8 1 14 -4 14 -6 0 -16 -18 -23 -40
-7 -22 -17 -40 -22 -40 -10 0 -10 -2 1 38 6 18 7 40 4 48 -8 22 -40 16 -62
-12z m45 -30 c-7 -27 -29 -28 -34 -2 -4 19 30 56 36 39 2 -7 1 -23 -2 -37z
m-42 -65 c-15 -17 -39 -17 -31 -1 2 4 7 15 11 26 5 15 9 16 21 6 14 -11 14
-15 -1 -31z m-229 -184 c-38 -56 -98 -115 -116 -115 -6 0 -6 6 0 18 15 28 143
163 149 157 3 -3 -12 -30 -33 -60z"/>
<path d="M2181 684 c-41 -36 -42 -36 -35 -10 8 34 -13 35 -26 0 -24 -63 -7
-69 56 -18 24 20 44 34 44 31 0 -2 -7 -24 -15 -48 -20 -57 -8 -68 42 -38 21
13 44 22 51 21 7 -2 31 13 54 33 22 20 42 35 44 32 2 -2 -3 -23 -11 -47 -21
-59 -7 -72 42 -37 l37 26 11 -22 c12 -25 62 -34 95 -17 13 7 20 7 20 0 0 -25
31 -5 69 45 40 53 61 68 61 43 0 -8 3 -9 10 -2 14 14 2 44 -18 44 -9 0 -27
-12 -40 -27 l-23 -28 6 28 c9 42 -12 32 -34 -18 -29 -66 -110 -109 -119 -63
-2 10 11 30 29 46 22 19 30 34 26 45 -10 26 -44 20 -64 -10 -24 -36 -84 -95
-90 -89 -3 3 3 25 12 50 16 41 14 66 -4 66 -4 0 -27 -17 -51 -37 -43 -37 -43
-37 -36 -10 5 20 3 27 -9 27 -8 0 -15 -9 -15 -19 0 -17 -69 -86 -77 -77 -2 1
4 23 12 46 15 43 14 70 -3 70 -5 0 -27 -16 -51 -36z m335 -12 c-18 -16 -18
-16 -6 6 6 13 14 21 18 18 3 -4 -2 -14 -12 -24z"/>
<path d="M961 647 c-23 -47 -27 -77 -11 -77 6 0 10 8 10 18 0 9 9 36 20 60 25
55 8 55 -19 -1z"/>
<path d="M4593 644 c-10 -27 15 -37 114 -45 121 -9 199 -24 231 -45 l24 -16
-23 -23 c-13 -13 -80 -54 -149 -90 -135 -72 -190 -116 -190 -151 0 -39 28 -36
72 10 24 23 102 81 175 129 72 47 139 97 149 111 16 25 16 28 -1 46 -23 26
-90 46 -233 70 -138 24 -161 25 -169 4z"/>
</g>
</svg>
