<svg width="512px" height="128px" viewBox="0 0 512 128" xmlns="http://www.w3.org/2000/svg" preserveAspectRatio="xMidYMid"><path d="M158.951028 0c-35.352502 0-64.0113675 28.653776-64.0113675 64 0 35.346224 28.6588655 64 64.0113675 64 35.352502 0 64.011368-28.653776 64.011368-64h0c-.312795-35.2158696-28.789243-63.687260466-64.011368-64zm0 114.56c-27.750889.176163-50.390368-22.1733747-50.566937-49.9193336-.17657-27.7459589 22.176631-50.3817191 49.927516-50.5586326C186.062492 13.9051204 208.702575 36.2540459 208.879895 64h0c.002218 27.6754789-22.25069 50.209678-49.928867 50.56zM296.511457 0c-35.352502 0-64.011367 28.653776-64.011367 64 0 35.346224 28.658865 64 64.011367 64 35.352502 0 64.011368-28.653776 64.011368-64h0c0-16.9738553-6.744036-33.2525058-18.748496-45.254834C329.769869 6.74283778 313.488327 0 296.511457 0h0zm0 114.56c-27.750889.176163-50.390368-22.1733747-50.566937-49.9193336-.17657-27.7459589 22.176631-50.3817191 49.927516-50.5586326C323.622921 13.9051204 346.263004 36.2540459 346.440324 64h0c.223798 13.3656076-4.943814 26.2584787-14.337323 35.7707272-9.393508 9.5122488-22.221796 14.8427578-35.591544 14.7892728h0zM48.8514758 38.4c-12.0675918-1.9538485-24.3977083 1.302585-33.9260249 8.96V13.44h57.6102309c1.920341 0 3.2005684-.64 3.2005684-6.4 0-5.76-2.5604547-5.76-3.8406821-5.76H8.52431417c-3.1817252 0-5.76102309 2.57883984-5.76102309 5.76v56.32c0 3.2 1.92034103 3.84 5.12090941 4.48 1.98947522.9195913 4.34833571.3954931 5.76102311-1.28h0c7.28172-10.3238339 19.3946202-16.1369935 32.0056838-15.36 14.8381024 1.8520655 26.6197903 13.3698922 28.8051154 28.16 2.0330402 17.6483078-10.5337012 33.639502-28.1650017 35.84H42.450339c-13.4165854-.189353-25.3509422-8.567307-30.0853428-21.12-.6401136-1.92-1.920341-3.2-7.04125041-1.28C.202836376 94.72-.4372773 96 .202836376 97.92 8.87339554 121.077432 34.4921076 133.030708 57.8130673 124.8c23.1615454-8.669019 35.1169443-34.2831818 26.8847744-57.6-5.7349377-15.4657918-19.5059375-26.5298086-35.8463659-28.8zM404.050555.64c-17.547772 2.02014049-30.776217 16.8994976-30.725602 34.56v56.96c0 3.2 2.5606 3.84 6.401282 3.84 3.840682 0 6.401137-.64 6.401137-3.84V35.2c-.232413-10.9125113 7.748822-20.2681604 18.563296-21.76 5.813713-.5869344 11.609987 1.2675437 16.002842 5.12 4.455443 3.8631447 7.022777 9.463606 7.041251 15.36-.425793 4.3704768-1.96883 8.5579765-4.480796 12.16-4.112558 5.7108648-10.905899 8.8643559-17.923183 8.32h0c-2.560455 0-4.480796 0-5.120909 5.76 0 3.84 0 5.76 3.200568 6.4 6.435359.6564836 12.916812-.6842685 18.563297-3.84 10.323265-5.2594459 17.30191-15.3646536 18.563296-26.88.74049-8.8609136-2.110214-17.6478184-7.911807-24.3870612C426.823635 4.71369601 418.557518.587086304 409.683555 0c-1.831182.514018859-3.733155.730113727-5.633.64h0zm83.854891 33.28 23.044093-23.04c.640113-.64 2.560454-2.56-1.280228-7.04-1.068131-1.44417925-2.694076-2.37312557-4.480795-2.56h0c-1.002774.01919238-1.943434.48943886-2.560455 1.28L479.583969 25.6 456.539876 1.92C454.619535-1.77635684e-15 452.699194.64 449.498626 3.2c-3.200569 2.56-3.200569 5.12-1.280228 7.04l23.044093 23.04-23.172115 23.68h0c-.67388.705646-1.119938 1.5976045-1.280228 2.56.034104 1.8320219.999131 3.5205205 2.560455 4.48 1.252272 1.219476 2.794215 2.1004301 4.480796 2.56h0c1.159275-.1440832 2.261708-.584978 3.200568-1.28l23.044093-23.04 23.044092 23.04c.617021.7905611 1.557681 1.2608076 2.560455 1.28h0c1.786719-.1868744 3.412664-1.1158207 4.480795-2.56 1.920341-2.56 2.560455-5.12.640114-6.4l-22.91607-23.68z"/></svg>