<svg width="512px" height="95px" viewBox="0 0 512 95" xmlns="http://www.w3.org/2000/svg" preserveAspectRatio="xMidYMid"><path d="M102.607225 46.5399121C102.607225 20.8447993 82.3975862 0 56.0673134 0 38.57154 0 23.3854397 9.58514318 15.4170676 23.8473743l22.6925378 22.6925378h0c0-9.9315942 8.3725648-17.957708 17.957708-17.957708 10.1625615 0 17.957708 8.0261138 17.957708 17.957708 0 9.9315941-7.8528884 17.957708-17.957708 17.957708h-.0577418 0-38.6292819C7.79514656 64.4976201 0 72.2927666 0 81.8779098v11.2019143h56.0673134c26.1570474 0 46.5399116-20.8447993 46.5399116-46.539912" fill="#0dbdff"/><path d="M314.635212 41.0544386h21.710927c8.430306 0 12.818685-3.9841861 12.818685-11.4328817 0-7.5641792-4.388379-11.5483652-12.818685-11.5483652h-21.710927v22.9812469zm12.529976 18.1309334h-12.529976v33.8944521h-19.458996V10.4512706C295.176216 4.67708794 299.853304 0 305.685229 0h31.238328c20.151897 0 32.393165 12.1257835 32.393165 29.5060733 0 13.973522-7.852889 24.598018-21.47996 28.3512367l24.251567 35.2225141h-23.327698L327.165188 59.185372zm184.831587 31.4115536c-3.810961 2.4828985-8.314823 4.2151533-13.165137 4.2151533-13.396104 0-19.689963-9.1809504-19.689963-22.2306031V4.85031342L497.561318.461934611V72.7547012c0 3.6377351 1.789997 5.8896663 5.023539 5.8896663.981611 0 2.078706-.2309673 3.118058-.6929019l6.29386 12.64546zm-32.162198 0c-3.81096 2.4828985-8.314823 4.2151533-13.165136 4.2151533-13.396104 0-19.689963-9.1809504-19.689963-22.2306031V12.5299763l18.419643-4.56160426V72.7547012c0 3.6377351 1.789996 5.8896663 5.023539 5.8896663.981611 0 2.078705-.2309673 3.118058-.6929019l6.293859 12.64546zm-57.799568-31.1805863c0-10.7977215-6.929019-18.2464171-17.322548-18.2464171-10.393529 0-17.322548 7.333212-17.322548 18.2464171 0 10.9132052 6.929019 18.2464172 17.322548 18.2464172 10.393529 0 17.322548-7.333212 17.322548-18.2464172m-53.468931 0c0-20.7293156 15.1861-35.222514 36.146383-35.222514 20.960283 0 36.261867 14.3777147 36.261867 35.222514 0 20.9025412-15.359326 35.3957396-36.261867 35.3957396-20.960283 0-36.146383-14.4931984-36.146383-35.3957396m-212.258954-3.9264441 13.28062-35.5689651 13.28062 35.5689651h-26.56124zm-.692902-48.90732699-34.067677 86.49725589h20.671573l7.275471-19.5167373h40.130569l7.27547 19.5167373h20.671574L180.905142 0h-15.532551c-4.272895 0-8.141598 2.59838219-9.758369 6.58256821M250.71501 77.6627565c-10.278045 0-17.322548-7.333212-17.322548-18.2464172 0-10.9132051 7.044503-18.2464171 17.322548-18.2464171 10.278045 0 17.322548 7.333212 17.322548 18.2464171 0 11.2019144-7.217728 18.2464172-17.322548 18.2464172m16.10997-45.0963664c-4.561605-5.312248-11.490624-8.3725648-19.863189-8.3725648-18.015449 0-32.393164 14.3777147-32.393164 35.1070304 0 20.9025411 14.377715 35.5112232 31.873488 35.5112232 9.354176 0 16.687388-4.0996697 21.364476-10.9132052l.808385 9.1809504h16.514163V0h-7.795147c-5.774183 0-10.509012 4.67708794-10.509012 10.4512706v22.1151195z" fill="#333"/></svg>