<svg width="256px" height="391px" viewBox="0 0 256 391" xmlns="http://www.w3.org/2000/svg" preserveAspectRatio="xMidYMid"><title>ActiveCampaign</title><path d="M1.27262883-2.8421709400000002e-14 4.32189792 2.14204853C13.8099129 8.74459812 236.507358 163.967515 242.719299 168.61702 251.514298 174.79116 256 182.426933 256 191.284934v4.397499c-.100802 6.841955-2.557858 16.468574-13.280701 24.520156l-.037801.025201c-5.166117 3.691883-57.747108 40.119308-113.415169 78.701383-4.901259 3.396407-9.858449 6.831597-14.827266 10.274947l-3.313781 2.296439C61.9597303 345.572363 12.6198159 379.77651 5.94733474 384.497711v6.136339l-3.6414825-6.123738c-.17640399-.315008-.34020771-.579614-.15120342-1.008023h-.11340257v-32.029926c0-10.924447 1.2096274-16.178767 13.36890285-24.28075 5.1794734-3.328743 49.5296457-33.954404 94.5789719-65.127248l5.300826-3.668305c41.512056-28.729554 82.336584-57.032914 92.362758-63.973655C186.484225 179.717872 27.7962298 69.5535758 16.9221834 61.5901954l-1.2852291-.9324211C7.59797214 54.8364424 1.27262883 50.2499385 1.27262883 38.1284638V-3e-14zM21.8614953 111.361323c10.7354432 6.904956 114.5617957 78.953389 115.6076197 79.696806l2.356253 1.625436-2.394054 1.600237c0 0-7.018359 4.674706-14.805336 10.118029-6.665551 4.888911-12.902692 7.333366-19.102033 7.333366-5.5063243 0-10.9622479-1.915243-16.7079781-5.73313-6.1207146-4.08602-23.3627235-15.980609-40.8154979-28.064106l-2.3802055-1.648205C22.2051 161.458254 1.21945563 146.863887.831618841 146.591721L-2.84e-14 146.012108l3e-23-24.469754c0-5.619728 2.4192548100000284-10.067628 6.665551020000029-12.222277C11.2142541 107.001624 16.8969828 107.757641 21.8614953 111.361323z" fill="#004cff"/></svg>