<svg width="256px" height="250px" viewBox="0 0 256 250" xmlns="http://www.w3.org/2000/svg" preserveAspectRatio="xMidYMid"><title>Adobe Photoshop</title><rect fill="#001e36" width="256" height="249.6" rx="42.5"/><path d="M57.644448 175.034891V65.2973973c0-.799744.343744-1.2021333 1.0307307-1.2021333l1.086793-.0032629h0l1.8579417-.0204577h0l2.5824676-.0508267h0l8.650227-.18301h0l9.273952-.171872h0c3.2625067-.056256 6.4967076-.0859414 9.7026027-.0859414 8.6994913 0 16.0267483 1.0876729 21.9817703 3.2630187 5.371718 1.8170482 10.270638 4.8091037 14.340107 8.758336 3.449544 3.4231338 6.11537 7.5539024 7.813547 12.107296 1.606665 4.4313264 2.420649 9.1109068 2.405137 13.82448 0 9.160932-2.118499 16.717198-6.354588 22.6688-4.14572 5.810163-9.926283 10.248916-16.599299 12.75576l-.574141.210128c-6.97258 2.601689-14.694668 3.541333-23.1638766 3.601085l-1.3157233.002778h0l-1.9526177-.010407h0l-.9859316-.01338h0l-1.0979967-.026166h0l-.6610635-.025869h0l-.4023266-.020743h0l-.9890554-.036292h0l-1.2089075-.024404h0l-1.8203013-.013786c-.132804-3e-4-.2678982-4.76e-4-.4052825-5.28e-4v34.263285c.0607435.425706-.0824686.85517-.3865603 1.159216-.3040918.304046-.7335774.447192-1.1592743.386384H58.846528c-.80208-3.2e-5-1.20208-.456277-1.20208-1.373994zm23.1940907-90.3317337v35.7919257c1.486464.11537 2.8602489.172576 4.1213546.171639h5.6672c3.909231-.012972 7.7943495-.594972 11.5333517-1.726547l.745816-.233636c3.402271-1.010589 6.442399-2.977745 8.758336-5.6672 2.15256-2.538288 3.267444-6.03557 3.344652-10.491845l.004308-.499089c.090516-3.3219628-.7739-6.6001601-2.490666-9.4455677-1.804705-2.7512821-4.413059-4.8799066-7.470304-6.0963626-3.991834-1.5516761-8.2557649-2.2817778-12.5364377-2.1465814l-2.1779885.0063725h0l-1.3738656.0113289h0l-1.3113642.0169933h0l-1.8498563.0361108h0l-1.3493475.0382905h0l-.7020985.025928h0l-.9371209.043592h0l-.7978886.049232h0l-.4545745.0359547h0l-.3926935.0384613c-.0602922.0066191-.118006.0133427-.1731414.0201707l-.1576711.0208293zM204.769216 113.9872c-2.996936-1.539903-6.174858-2.695984-9.458599-3.441712l-.75963-.164795c-3.614177-.829233-7.303031-1.285664-11.008692-1.36263l-.926732-.011332c-2.172956-.058906-4.342789.201509-6.440096.772917-1.33492.297289-2.521395 1.057794-3.34896 2.146613-.559668.870957-.857576 1.884257-.858336 2.919531.031307 1.004374.393467 1.970287 1.030208 2.747659.911972 1.066732 2.007831 1.959629 3.234409 2.636914l.371841.196675c2.448595 1.318583 4.971585 2.494081 7.556267 3.520576 5.763702 1.929337 11.271063 4.553244 16.400523 7.813803 3.494365 2.205482 6.386018 5.244606 8.415104 8.844266 1.706174 3.408599 2.560621 7.179999 2.490144 10.991115.102762 5.032383-1.335278 9.975926-4.121355 14.167968-2.982924 4.255326-7.126041 7.563654-11.935947 9.530997-5.037239 2.212765-11.222902 3.356428-18.556991 3.430991l-.762795.0039c-4.547037.04593-9.086919-.352146-13.555108-1.188115l-.956348-.185837c-3.763005-.68997-7.425991-1.843652-10.905206-3.434667-.715369-.36935-1.171195-1.093679-1.202079-1.88943l-5.4e-5-18.718612c-.042102-.370022.123088-.733141.429685-.944534.301954-.170743.67811-.136508.944278.085942 4.108748 2.4227 8.570169 4.189851 13.223466 5.23776 4.101432 1.028042 8.308518 1.575557 12.536459 1.631509 4.006251 0 6.95434-.5152 8.844267-1.5456 1.743544-.79807 2.85396-2.547658 2.833856-4.465067 0-1.486464-.858667-2.917543-2.576-4.293237-.72011-.576173-1.752338-1.202678-3.096685-1.879513l-.642631-.315959h0l-.686955-.323107c-.118186-.054447-.238219-.109191-.360099-.164234l-.753441-.333828c-.129268-.056233-.260382-.112765-.393343-.169594l-.819929-.34455c-.140348-.05802-.282544-.116339-.426586-.174955l-.886415-.355271c-.15143-.059807-.304706-.119912-.45983-.180316l-.952902-.365992h0l-.997227-.37314h0c-5.392297-1.876814-10.505061-4.476476-15.198432-7.727872-3.356912-2.33464-6.121031-5.422308-8.07136-9.016138-1.688889-3.384-2.542739-7.123279-2.490101-10.90495-.00956-4.543863 1.238591-9.00173 3.60625-12.88 2.69968-4.2707229 6.576259-7.6700775 11.163019-9.7887997 5.036459-2.516928 11.333348-3.7763057 18.890667-3.7781333 4.425872-.0355783 8.847584.2802583 13.223466.9445333 3.168751.4019121 6.266744 1.2398748 9.206038 2.4901014.472636.1356637.85412.4854226 1.030208.9445333.116082.4194278.173915.8528309.171872 1.2880213v17.3450667c.024216.410742-.172026.803324-.515104 1.030464-.465486.231506-1.012553.231529-1.478059 6.4e-5z" fill="#31a8ff"/></svg>