<svg width="256px" height="250px" viewBox="0 0 256 250" xmlns="http://www.w3.org/2000/svg" preserveAspectRatio="xMidYMid"><title>Adobe InCopy</title><rect fill="#49021f" width="256" height="249.6" rx="42.5"/><path d="M102.929163 65.2973973V174.691403c0 1.145834-.515104 1.717451-1.545312 1.717451H80.603648c-.9171982 0-1.3750116-.572484-1.373448-1.717451V65.2973973c0-.9151004.515112-1.373088 1.54532-1.3739626h20.77968c.378343-.0537607.759935.0735951 1.030151.3438113.270217.2702162.397572.6518084.343812 1.0301513zm81.916704 91.0187517v17.688534c.027957.635772-.303862 1.233276-.858336 1.5456-2.717215 1.019116-5.551708 1.689686-8.435697 1.996366l-.666383.064306c-3.052778.305303-6.015295.474961-8.887551.508974l-1.072865.006396c-6.501526.103695-12.965624-1.002795-19.062507-3.263018-5.370057-2.015969-10.234736-5.181027-14.253643-9.273707-3.917729-4.043145-6.983713-8.831805-9.016149-14.082027-2.146385-5.528748-3.224469-11.414486-3.177077-17.345066-.157708-8.105554 1.922124-16.097711 6.010933-23.098176 3.955591-6.571418 9.604711-11.9537007 16.350916-15.5867279l.564711-.2986911c7.269269-3.89088 15.769962-5.8371449 25.50208-5.8387947 3.387881-.0618877 6.77546.1390597 10.132266.6010347 1.971615.3055262 3.92188.7357293 5.839062 1.2880213.61227.4235204.942228 1.1492746.858848 1.8890667l-.171872 17.688533c0 1.030464-.457984 1.431175-1.373952 1.202134-1.894381-.67487-3.849962-1.163721-5.839072-1.459638-2.84118-.43229-5.712756-.633295-8.586454-.601034-4.372155-.06641-8.707082.81221-12.70833 2.575776-3.678964 1.630754-6.788145 4.321414-8.930208 7.728128-2.176043 3.434666-3.263719 7.785273-3.26303 13.051818 0 5.954134 1.288022 10.648146 3.864064 14.082038 2.464693 3.352144 5.872894 5.893289 9.789067 7.298698 3.822001 1.4092 7.861911 2.135787 11.935413 2.146614 2.409427.010765 4.8177-.097658 7.215996-.324811l1.027204-.104619c1.978487-.177958 3.934427-.551841 5.839062-1.116149.914602-.228153 1.372437.115321 1.373504 1.030421z" fill="#f36"/></svg>