<svg width="256px" height="250px" viewBox="0 0 256 250" xmlns="http://www.w3.org/2000/svg" preserveAspectRatio="xMidYMid"><title>Adobe Lightroom</title><rect fill="#001e36" width="256" height="249.6" rx="42.5"/><path d="M134.442667 176.408853H66.7797333c-1.1453155 0-1.7177137-.629689-1.7171946-1.889066V65.4690133c-.0607855-.4257151.0824129-.8552048.3865151-1.1592608.3041022-.3040561.7336136-.4471893 1.1593195-.3863392h20.95152c.3309781-.0466284.6646321.0649653.9009591.3013342.2363269.2363689.3478614.5700427.3011743.9010125v89.6448h49.2874663c1.030208 0 1.430902.5152 1.20208 1.5456l-3.091146 18.547136c-.014721.513202-.26895.989889-.686934 1.288021-.318656.1655-.671775.253721-1.030826.257536zM151.4432 91.0572907h18.718752c1.044367.0090755 1.955804.7103058 2.232288 1.7174506.408545.7523036.698254 1.5632799.858848 2.40416.239736 1.1047894.411758 2.2231924.515104 3.34896.113024 1.2020907.170318 2.4900267.171883 3.8638077 3.210278-3.7378201 7.081647-6.852289 11.420309-9.1874983 4.873798-2.6351755 10.345842-3.9662228 15.885483-3.864064.425648-.0607881.855075.0823868 1.15908.3864479.304004.3040611.447099.7335148.386232 1.1591521V111.66544c0 .802347-.572395 1.203058-1.717184 1.202133-6.917796-.427988-13.837388.808746-20.178646 3.606518-2.15511.932107-4.108916 2.273468-5.75313 3.949738v54.439584c0 1.030464-.457988 1.545664-1.373963 1.5456h-20.779733c-.473049.067866-.950424-.091121-1.28832-.429067-.337895-.337946-.496811-.815345-.428875-1.288383V115.61536c0-1.438391-.009353-2.924033-.028059-4.456927l-.035074-2.334779c-.007014-.395036-.014614-.793026-.022798-1.193969-.044144-2.10312-.10352-4.190618-.178128-6.262494l-.079685-2.0666683c-.075944-2.3593616-.305249-4.7112867-.686464-7.0408854-.087495-.3382753.010444-.697598.257491-.9446883.216165-.2162041.518279-.3182633.817059-.2818251l.12753.0241668z" fill="#31a8ff"/></svg>