<svg width="256px" height="250px" viewBox="0 0 256 250" xmlns="http://www.w3.org/2000/svg" preserveAspectRatio="xMidYMid"><title>Adobe XD</title><rect fill="#470137" width="256" height="249.6" rx="42.5"/><path d="M134.578133 65.6408853l-31.942709 52.7221337 34.175008 55.985162c.219219.391693.280692.852281.171872 1.287755-.053366.185817-.167198.231855-.341853.238645l-.194943-.00257h0l-.235572-.006396c-.127957-4.3e-4-.271179.006081-.429712.032102l-24.63973-5.81e-4h0l-.484377-.00696c-1.328578-.035023-2.284678-.224814-2.868608-1.198773-2.291669-4.464839-4.581425-8.901209-6.869269-13.30911-2.0052107-3.855469-4.1184827-7.77793-6.339816-11.767381l-.958616-1.713867c-2.5760498-4.577585-5.1234524-9.214393-7.642208-13.910421h-.171872c-2.2916693 4.580473-4.6673636 9.160075-7.1270827 13.738805-2.4630186 4.580466-4.8958293 9.131421-7.298432 13.652864-2.4041742 4.523961-4.8656355 9.017625-7.384384 13.480992-.4048564.909233-1.0773503 1.098923-2.0153272 1.130971L61.5911573 176h0-23.5270826l-.1017668.002835h0l-.3365835.030697c-.1867859.010876-.2983463-.029287-.3345671-.311655-.064619-.418775.0271519-.846685.2578134-1.202133l33.1442666-54.439573-32.2859306-54.6111577c-.343232-.4559857-.4005263-.8280355-.1718827-1.1161493.2570779-.2970619.6387816-.4560897 1.0307307-.4294293H63.480224c.5279818-.028769 1.0558656.0589346 1.545824.2578133.4106042.2326261.7629012.5556219 1.0302187.9445333 2.060928 4.5802098 4.3506844 9.1597227 6.8692693 13.7385387 2.517184 4.5804729 5.0645796 9.102784 7.6421867 13.5669333 2.5760426 4.4650667 4.9517369 8.9873777 7.1270826 13.5669337h.1718614c2.2885475-4.693227 4.6069511-9.2727399 6.9552106-13.738539 2.3453085-4.4651093 4.7494756-8.9588587 7.2125017-13.481248 2.460942-4.5213511 4.836636-9.0150151 7.127082-13.480992.131649-.4238171.367888-.8076655.686934-1.1161493.424004-.215282.900757-.3047409 1.373962-.2578134h22.496875c.446764-.1102743.910305.1037473 1.116124.5153265.187108.3741629.115812.8207871-.166349 1.117748l-.090874.0843655zm50.470301 112.4725907-1.184882.012828c-7.904515.120216-15.736491-1.522456-22.92656-4.808597-6.697985-3.099983-12.297111-8.160246-16.056768-14.511456-3.791279-6.296741-5.736766-14.141819-5.835143-23.535235l-.003929-.765021c-.06461-7.88189 1.949396-15.641576 5.839072-22.497142 3.895291-6.789022 9.572789-12.3781525 16.412507-16.166189l.589093-.320264c7.440626-4.1216 16.427954-6.1823644 26.961984-6.1822933l.460902.0053706h0l.525682.016112h0l.590462.0268534h0l.655242.0375946h0l1.102297.077604h0l1.247899.10038h0l.912823.0795734h0V55.852128c0-.799744.343754-1.2021333 1.03073-1.2021333h21.638016c.283783-.0405637.570106.0548242.772862.2574772.202756.202653.298289.4889273.257869.7727308V157.174731c0 1.704652.065663 3.539361.196988 5.504128l.320245 4.455453h0l.169754 2.576845h0c.043067.730164-.366134 1.411993-1.030731 1.717451-5.582303 2.328172-11.39669 4.055184-17.344789 5.151819-5.050214.93215-10.168216 1.444804-15.301625 1.533049h0zm9.290638-21.282223v-46.883072c-.928205-.251456-1.876035-.423862-2.833333-.51537-1.169887-.117602-2.345054-.174883-3.520832-.171616-4.167349-.041463-8.285802.899872-12.021334 2.747658-3.63827 1.808574-6.744779 4.53058-9.015626 7.899734-2.266949 3.31623-3.439187 7.646387-3.516715 12.990473l-.004117.57646c-.083624 3.743613.527755 7.470271 1.803125 10.990933 1.03789 2.836758 2.678533 5.414739 4.808853 7.556267 2.039292 1.970321 4.508322 3.440097 7.212502 4.293493 2.856385.924863 5.841919 1.388578 8.844266 1.374375 1.602091 0 3.090447-.057884 4.465067-.172295 1.097071-.082684 2.184131-.263674 3.248128-.540596l.530016-.146444z" fill="#ff61f6"/></svg>