<svg width="256px" height="250px" viewBox="0 0 256 250" xmlns="http://www.w3.org/2000/svg" preserveAspectRatio="xMidYMid"><title>Adobe Dreamweaver</title><rect fill="#470137" width="256" height="249.6" rx="42.5"/><path d="M24.3110933 174.691403V65.4690133c-.0398978-.3354347.0598073-.6725258.2757526-.9322871.2159454-.2597613.5291524-.4193634.8662314-.4414089l.2789393-.0185455h0l.9214268-.0526456h0l1.04834-.0481598h0l1.5952071-.057235h0l1.8208305-.04926h0l1.5136883-.0317114h0l7.0327562-.1140622h0l4.0609718-.0578098h0l2.577746-.0305402h0l2.643019-.0240137h0l2.7082923-.0173378h0l2.7735655-.0105124h0l2.8388386-.0035372h0c12.7678747 0 23.4021098 2.2461141 31.9027052 6.7383425l.5635454.3028095c8.2422524 4.346851 14.9803317 11.0805918 19.3324907 19.3200426 4.295296 8.1867165 6.443517 17.6033847 6.444661 28.2500057.125932 7.434968-1.004905 14.837799-3.344789 21.896096-2.019724 5.978294-5.116142 11.536639-9.136331 16.400522-3.7443795 4.479189-8.1775369 8.33414-13.1332477 11.42031-4.8498374 3.015836-10.1312726 5.274355-15.6621333 6.697653-5.3794953 1.41022-10.9163109 2.131529-16.4775573 2.146613H44.3211738h0l-2.5064969-.007733h0l-2.4343356-.013749h0l-2.3621743-.020623h0l-2.290013-.027499h0l-2.71986-.044733h0l-2.392326-.055365h0l-1.6640832-.051512h0l-1.4420587-.057928h0l-.6377701-.031371h0l-.582264-.032975c-.6526293 0-.9788622-.572483-.9786987-1.71745zm22.514016-89.988267v71.097653c1.1954134 0 2.2831289.028648 3.2631467.085942l1.9938987.115683h0l1.0243306.055933c.8846873.05067 1.8700713.078952 2.9561522.084848l.5514318.001082c4.9442906.06559 9.8608586-.748466 14.5201494-2.40416 4.2257193-1.522006 8.0480248-3.988995 11.1753706-7.2128 3.2130638-3.390811 5.6609877-7.431707 7.1784107-11.849717 1.7577181-5.138016 2.6132962-10.541392 2.5288853-15.971093.1019348-5.115877-.7273028-10.207647-2.4472426-15.026816-3.0046292-8.2985181-9.7460832-14.6946231-18.1909974-17.259115-4.2999804-1.3310433-8.7701506-2.0251568-13.2682587-2.0615681l-1.9026266.0032653h0l-1.4773879.0124942h0l-.910912.0142791h0l-.8517014.0190388h0l-.7924906.0237985h0l-.9336592.0371055h0l-1.1727188.0543627h0l-1.8927855.100344h0l-1.3509953.07944zM211.02048 176.425419h-19.964c-.469584.063897-.942098-.094903-1.277781-.42943-.271681-.397554-.486556-.831075-.638411-1.288021l-.775721-3.308793h0l-.49897-2.149058h0l-.721195-3.13838h0l-.688479-3.036133h0l-.655763-2.933886h0l-.623049-2.831638h0l-.779838-3.616465h0l-1.099643-5.231141h0l-1.320108-6.386537h0l-.864992-4.268743h0l-1.129816-5.715279h0l-.81912-4.249639h0l-.590969-3.150137h0l-.440547-2.414652h0l-.213192-1.199423h0l-.292982-1.696462h0l-.177454-1.062526h0l-.163159-1.007766h0l-.217937-1.408977c-.022428-.149708-.044261-.297135-.065498-.44228h-.15936c-1.065621 4.695844-2.05051 9.246798-2.954667 13.652864-.906261 4.408598-1.89115 8.845056-2.954666 13.309376l-1.192342 4.959261h0l-1.293548 5.309691h0l-1.395263 5.660503h0l-1.190495 4.781381h0l-1.578752 6.290854h0l-1.33551 5.283985h0c-.214581 1.145835-.79825 1.717451-1.7568 1.717451H141.2264c-.529783.056945-1.063463-.063883-1.517056-.343467-.334551-.335689-.581407-.748506-.718816-1.20208l-20.762731-82.432c-.31921-.9151075.106717-1.3730951 1.277782-1.3739733h20.12384c.958094 0 1.490421.3435022 1.596981 1.0304853l1.189855 5.2737559h0l.677128 3.0269671h0l1.271493 5.745038h0l1.343933 6.181999h0l.867991 4.072496h0l.546229 2.61479h0l.346025 1.686329h0l.33152 1.640838h0l.317016 1.595348h0l.448332 2.307725h0l.415699 2.205371h0l.259003 1.413382h0l.2445 1.367893h0l.339555 1.966542h0l1.204132 7.180169h0l.817541 4.754662h0l.841057 4.852496h0l.517572 3.079554h0 .319211c.142043-1.395017.350914-2.782255.625849-4.156938l.253705-1.216733h0l.841338-4.175031h0l1.051038-5.316006h0l.409903-2.025594h0l.758022-3.657689h0l2.485269-11.703099h0l1.213564-5.797351h0l.613108-2.941822h0l.390958-1.818449h0l.415004-1.868303c.07117-.315538.143343-.633154.216517-.952847l.45107-1.943083h0l.475114-1.992938h0l.499158-2.042791h0l.523202-2.0926458h0l.547247-2.1424992h0l.571292-2.1923531h0l.595335-2.2422069h0c.041069-.4798999.17689-.946893.399606-1.3739627.15936-.2281173.558933-.3434986 1.197376-.3434986h20.922581c.638933 0 1.010411.4026346 1.117941 1.2023786l.486166 2.1002588h0l.702106 3.0624092h0l.449977 1.9829536h0l.856528 3.8251411h0l.798625 3.637453h0l.740723 3.449764h0l.517545 2.464154h0l1.994071 9.693161h0l.873842 4.310382h0l.32654 1.624062h0l.328853 1.666973h0l.309039 1.607762h0l.289225 1.54855c.046553.253158.09228.503848.137183.752071l.259504 1.459733h0l.239689 1.400523h0l.219877 1.34131h0l.200061 1.282099h0l.376852 2.514822h0l.277896 1.77231h0l.181734 1.112834h0l.178909 1.05787h0l.176085 1.002906h0l.258832 1.401304h0c.360462 1.78804.62707 3.593726.79873 5.409642h.3192c.487084-1.99232.930344-4.274801 1.329782-6.847443l.216622-1.431718h0l.234435-1.492535h0l.256959-1.55486h0l.279482-1.617189c.048457-.274724.097853-.552047.148188-.831966l.313268-1.710677h0l1.045023-5.503328h0l.555591-2.96059h0l.772341-4.164581h0l.360947-1.956698h0l.339348-1.794857h0l.359206-1.849921h0l.379062-1.904986h0l.398921-1.96005h0l.418776-2.015115h0l.438635-2.070179h0l.458492-2.125243h0l.51137-2.333892h0l.531042-2.390067h0l.550715-2.446243h0l.570386-2.502418h0l.590058-2.5585939h0l.609731-2.6147691h0l.629402-2.6709447h0c.212152-.9151075.69136-1.3730951 1.437621-1.3739626h18.686219c.958094 0 1.330741.5152 1.117941 1.5456l-22.998613 82.2604163c-.138384.436097-.35488.84341-.638934 1.20208-.364604.277166-.823288.400451-1.277717.343424z" fill="#ff61f6"/></svg>