<svg width="256px" height="250px" viewBox="0 0 256 250" xmlns="http://www.w3.org/2000/svg" preserveAspectRatio="xMidYMid"><title>Adobe InDesign</title><rect fill="#49021f" width="256" height="249.6" rx="42.5"/><path d="M92.9687467 65.2973973V174.691403c0 1.145834-.515104 1.717451-1.545312 1.717451H70.6432c-.9171982 0-1.3750116-.572484-1.373448-1.717451V65.2973973c0-.9151004.515112-1.373088 1.54532-1.3739626h20.7797333c.3783396-.0537532.7599253.0736059 1.0301363.3438211.2364346.2364383.3634937.5581461.3555498.8883361l-.0117447.1418054zM155.555387 178.1148l-1.105904.011504c-7.904519.120216-15.736499-1.522456-22.926571-4.808597-6.697983-3.099986-12.297108-8.160248-16.056768-14.511456-3.798783-6.309193-5.744444-14.172854-5.835695-23.590982l-.003366-.709274c-.064614-7.881889 1.949388-15.641575 5.839061-22.497142 3.901147-6.799232 9.589867-12.3949606 16.44337-16.1832658l.55823-.3031872c7.440619-4.1216 16.427943-6.1823644 26.961973-6.1822933l.222356.0013426h0l.493296.0107414h0l.558075.0214826h0l.622853.032224h0l.686973.0434774h0l.751043.0542666h0l1.696221.1389014c.152137.0132622.306971.0269462.464501.041052V55.852128c0-.799744.343744-1.2021333 1.03073-1.2021333h21.638016c.283783-.0405637.570106.0548242.772862.2574772.202756.202653.298289.4889273.257869.7727308V157.174731c0 1.948174.085764 4.066218.257291 6.354133l.162321 2.214521h0l.143229 2.060764h0l.124135 1.907008h0c.04307.730165-.366132 1.411995-1.030731 1.717451-5.582302 2.328172-11.39669 4.055184-17.344789 5.151819-5.076106.93693-10.220697 1.45005-15.380581 1.534373h0zm9.369616-21.283547v-46.883072c-.928205-.251454-1.876036-.42386-2.833334-.51537-1.169887-.117601-2.345053-.174882-3.520832-.171616-4.167348-.041463-8.285801.899872-12.021333 2.747658-3.638272 1.808571-6.744782 4.530577-9.015627 7.899734-2.347918 3.434666-3.521529 7.956977-3.520832 13.566933-.083629 3.743614.527751 7.470272 1.803126 10.990933 1.037885 2.83676 2.678529 5.414742 4.808853 7.556267 2.03929 1.970323 4.50832 3.440099 7.212501 4.293493 2.856386.924865 5.841919 1.388579 8.844267 1.374375 1.602084 0 3.090439-.057884 4.465067-.172295 1.09707-.082685 2.18413-.263675 3.248128-.540596l.530016-.146444z" fill="#f36"/></svg>