<svg width="256px" height="250px" viewBox="0 0 256 250" xmlns="http://www.w3.org/2000/svg" preserveAspectRatio="xMidYMid"><title>Adobe Illustrator</title><rect fill="#300" width="256" height="249.6" rx="42.5"/><path d="M124.053643 149.790101H84.3833387l-8.07136 25.073184c-.226926.943106-1.0920206 1.591884-2.0609387 1.5456H54.158336c-1.1458347 0-1.5465458-.629689-1.2021333-1.889066l34.3464-98.9185177c.3437511-1.030208.687328-2.2037333 1.0307306-3.520576.4492372-2.2912522.6792533-4.6200795.6869334-6.954944-.0472356-.3310874.0641192-.6650979.300583-.9016036.2364638-.2365058.5704545-.3479198.9015503-.300743h27.305205c.8 0 1.257984.2862862 1.373952.8588586l38.983862 109.9091097c.343232 1.145834-3.45e-4 1.718318-1.030731 1.71745h-22.325525c-.793176.08789-1.528306-.426723-1.717184-1.20208l-8.758336-25.416672zm-33.4880217-21.638282h27.1338877l-.38606-1.276925h0l-.621641-2.02221h0l-.442793-1.419355h0l-.706739-2.235856h0l-1.503364-4.707466h0l-1.322066-4.173305h0l-3.432441-10.869566h0c-.883035-2.7966537-1.703061-5.5093185-2.460076-8.1379944l-.628329-2.2092757h0l-.734218-2.6137488h0l-1.120366-4.0493765c-.070385-.2571721-.13991-.511787-.208573-.7638446h-.171872c-.859369 4.1227258-1.905894 8.2039311-3.136255 12.230965l-2.5479983 8.194722h0l-1.4018072 4.528142h0l-1.4149852 4.584176c-.2555274.82813-.5103567 1.646732-.7644879 2.455806l-.7602996 2.398641h0l-.7561111 2.341476h0l-.7519228 2.284312h0l-.7477343 2.227146c-.2485467.732855-.4963954 1.456183-.7435459 2.169982l-.3702024 1.063555zm90.5015677-46.0244803c-3.542657.1422503-6.978064-1.2319123-9.445333-3.7781334-2.457029-2.6529311-3.7551-6.1759018-3.606773-9.7888-.126207-3.5820568 1.279061-7.0483472 3.864064-9.5312533 2.468507-2.3693478 5.752983-3.6904035 9.165201-3.6965648l.366052.0043835c4.12187 0 7.356245 1.2307271 9.703125 3.6921813 2.392596 2.5835362 3.659153 6.0127458 3.52031 9.5312533.145097 3.628206-1.187119 7.1601996-3.692192 9.7888-2.532488 2.4964153-5.962288 3.8596295-9.507345 3.7904154l-.367109-.012282zm-11.850005 92.5640643V92.6028693c0-1.030208.456256-1.5456 1.373963-1.5456h21.123434c.915108 0 1.373095.5152 1.373963 1.5456v82.0885337c0 1.145834-.457988 1.718318-1.373963 1.717452h-20.951562c-.975987 0-1.48982-.51381-1.541501-1.541426l-.004334-.176026z" fill="#ff9a00"/></svg>