<svg width="256px" height="250px" viewBox="0 0 256 250" xmlns="http://www.w3.org/2000/svg" preserveAspectRatio="xMidYMid"><title>Adobe Premiere</title><path d="M45.3333333 0H210.666667C235.733333 0 256 20.2666667 256 45.3333333V204.266667C256 229.333333 235.733333 249.6 210.666667 249.6H45.3333333C20.2666667 249.6 0 229.333333 0 204.266667V45.3333333C0 20.2666667 20.2666667 0 45.3333333 0z" fill="#00005b"/><path d="M60.8 175.04V65.28c0-.7466667.32-1.1733333 1.0666667-1.1733333l1.5480661-.0024879h0l1.1986005-.0108455h0l.8449369-.0150048h0l.8990476-.0234014h0l.9680855-.0336637h0L67.84 64c.96-.04 1.935-.065 2.930625-.08625L73.825 63.85c.3475-.0083333.6979167-.0175 1.0514583-.0279167l1.0702084-.0354166c.96-.0355556 1.9437037-.0592593 2.9511111-.0790124l3.0933333-.0553086h0l2.1412346-.0471148h0l1.094321-.0318976c2.2044444-.0711111 4.3614814-.0948148 6.502716-.102716l3.2039506-.0039506h0c8.7466667 0 15.9999997 1.0666666 21.9733337 3.3066666 5.333333 1.8133334 10.24 4.8 14.293333 8.7466667 3.413333 3.4133333 6.08 7.5733333 7.786667 12.16 1.6 4.48 2.453333 9.0666667 2.453333 13.866667 0 9.173333-2.133333 16.746666-6.4 22.72C130.773333 130.24 124.8 134.72 117.866667 137.28c-7.011556 2.577778-14.72083 3.56077-23.1278226 3.623439l-3.0488682-1.31e-4h0l-1.1873762-.012193h0l-.760554-.018615h0l-.4479409-.018319h0l-.4024066-.023918h0L88.5333333 140.8c-.2133333-.021333-.4437333-.0384-.6920533-.052053l-.5207862-.023009h0l-.5700898-.015423h0l-.9508978-.012231h0l-1.8528395-.003951h0v34.24c.1066666.746667-.4266667 1.386667-1.1733334 1.493334H62.08c-.8533333 0-1.28-.426667-1.28-1.386667zm23.2533333-90.3466667v35.8399997l1.2538776.088941c1.0231292.069971 1.9918367.124393 2.9061224.124393h5.6533334c4.16 0 8.3200003-.64 12.2666663-1.92 3.413334-.96 6.4-2.986667 8.746667-5.653334 2.24-2.666666 3.306667-6.293333 3.306667-10.986666.106666-3.306667-.746667-6.6133337-2.453334-9.4933337-1.737777-2.6577777-4.161296-4.7277777-7.082793-5.9283564l-.383873-.1516436c-3.946667-1.6-8.213334-2.24-12.586667-2.1333333l-2.4660052.0031073h0l-1.1590107.0073797h0l-1.1065757.0143711h0l-1.05181.023693c-.5118252.0145653-1.0022394.0335002-1.4699317.0581156-.2370371-.0118519-.4661729-.02107-.6872611-.027947l-.6389758-.0139003c-.1024234-.0012437-.2027983-.0019753-.3011065-.0022314l-.5649017.0038775h0L85.72 84.56c-.0814815.002963-.160823.0062551-.2380064.00984l-.4370553.0247279h0l-.3843805.0299954c-.059625.0053407-.1170187.0108276-.1721627.0164244l-.303722.0346044h0l-.1313398.0177412zM156.373333 90.88H175.04c1.007407 0 1.824527.6660082 2.181783 1.5487334l.058217.1579333c.32.8533333.533333 1.7066666.64 2.6666666.213333 1.0666667.426667 2.24.533333 3.3066667l.088941 1.0318367c.069971.8816323.124393 1.8176873.124393 2.8081633 3.054545-3.5636364 6.692231-6.5441322 10.820285-8.8487153l.593048-.324618c4.906667-2.7733334 10.56-4.16 16.213333-4.16C207.04 88.96 207.68 89.4933333 207.786667 90.24v21.226667c0 .853333-.533334 1.173333-1.706667 1.173333-3.584-.099556-7.260919.172563-10.770584.90308l-.749416.163587c-3.093333.64-6.08 1.6-8.96 2.88-2.026667.96-3.946667 2.24-5.44 3.946666v54.4c0 1.066667-.426667 1.493334-1.386667 1.493334H157.76c-.853333.106666-1.6-.426667-1.706667-1.28v-59.52c0-2.56 0-5.226667-.106666-8l-.063334-2.08h0l-.086666-4.16C155.78 100.693333 155.76 100 155.733333 99.3066667c0-2.4533334-.213333-4.8-.426666-7.2533334C155.2 91.52 155.52 90.9866667 156.053333 90.88c0-.0914286.156735-.1044898.268688-.0391837l.051312.0391837z" fill="#99f"/></svg>