<svg width="256px" height="250px" viewBox="0 0 256 250" xmlns="http://www.w3.org/2000/svg" preserveAspectRatio="xMidYMid"><title>Adobe After Effects</title><rect fill="#00005b" width="256" height="249.6" rx="42.5"/><path d="M102.842667 149.333333H63.171872L55.1005227 174.4544c-.2140594.890882-.9977537 1.519188-1.9004886 1.546995L32.94688 176c-1.1458347 0-1.5465458-.629689-1.2021333-1.889067l34.34688-98.5096317.3433505-1.0348914c.0381606-.1168809.0763234-.2348502.1144872-.3543656l.2289842-.739304c.1144877-.382588.2289612-.7873252.3433861-1.2265643.4497698-2.2911739.679791-4.6200522.6869333-6.954944-.0471471-.3310685.0642367-.6650246.3006784-.9015083.2364417-.2364836.5703781-.3479267.9014549-.3008384H96.316672c.7994738 0 1.2574578.2862863 1.373952.8588587l38.983339 109.334805c.343217 1.145835-1.85e-4 1.718319-1.030208 1.717451h-22.325526c-.793216.088051-1.528443-.42663-1.717184-1.20208l-8.758378-25.464587zm-33.4880003-21.181514h27.1338666l-.3860846-1.276925h0l-.6217373-2.02221h0l-.9085221-2.895683h0l-1.7447794-5.466994h0l-1.6628339-5.254071h0l-3.0912-9.7888h0c-.8830354-2.7966537-1.7031889-5.5093185-2.4604604-8.1379944l-.8781141-3.0958689h0l-.9478281-3.3929369h0l-.8656827-3.1474398h0-.171872c-.8589332 4.1228283-1.9054151 8.2040647-3.1361112 12.2310057l-1.1595018 3.7225738h0l-2.7901806 9.0002495h0l-1.4147291 4.584176c-.2555219.82813-.510346 1.646732-.7644723 2.455806l-.7602854 2.398641h0l-.7560985 2.341476h0l-.7519117 2.284312h0l-.7477247 2.227146c-.3728157 1.099283-.7440612 2.177128-1.1137367 3.233537zm130.5182503 11.403733h-33.831253c.414298 3.347385 1.525888 6.570704 3.263019 9.461899 1.920494 2.862908 4.636555 5.101456 7.813546 6.43984 4.305724 1.863209 8.962617 2.775971 13.65312 2.676042 3.721253-.071387 7.428474-.47842 11.076566-1.216149 3.262992-.440466 6.460718-1.274052 9.523488-2.482592.571349-.455989.858848-.171616.858848.858859v16.314581c.028329.444509-.060574.888663-.257814 1.288021-.196548.312165-.460684.576211-.772917.772651-3.397272 1.504824-6.972694 2.569953-10.639627 3.169579-4.981485.935677-10.044553 1.367196-15.112533 1.288021-7.876638 0-14.515829-1.181897-19.917572-3.54569l-.518887-.232443c-5.193287-2.28782-9.78015-5.757478-13.394784-10.132267-3.376495-4.122233-5.888074-8.882347-7.384896-13.996352-1.48205-5.047552-2.233777-10.281298-2.232704-15.541931-.01542-5.744065.88315-11.454037 2.66239-16.915616 1.713406-5.327596 4.423273-10.281212 7.985493-14.597418 3.513446-4.2657648 7.907088-7.7220427 12.880203-10.132267 5.036458-2.460672 10.990624-3.3434027 17.859893-3.3434027 5.696828-.1440065 11.35532.9700333 16.572405 3.2627627 4.386841 1.8710062 8.248786 4.787776 11.248438 8.495488 2.813506 3.630728 4.964507 7.729289 6.354133 12.107296 1.353069 4.218976 2.048199 8.621198 2.060939 13.051819 0 2.51953-.085938 4.809287-.257814 6.869269l-.152369 1.764218h0l-.16094 1.6744h0l-.094019.847987c-.007392.061723-.014674.12121-.021845.178462-.092326.783712-.756703 1.374216-1.545835 1.373952l-.470561.010302h0l-.587311.030907h0l-.456402.032051h0l-1.068472.091576h0l-.937563.092721c-.25553.026402-.520522.051452-.794978.07515l-.851758.067037h0l-.908538.058925h0l-.965317.050813h0l-1.022096.042701c-.175081.006441-.352528.012543-.532341.018308l-1.107265.030533h0c-1.094898.026169-2.217282-.042043-3.367684-.125911l-1.746684-.127703c-.883915-.059882-1.783741-.106429-2.699702-.106429zm-33.831253-15.644437 23.386334-.001061h0l1.991679-.011937h0l1.354745-.019098h0l.876876-.019894h0l.983593-.033952h0c.880959-.087989 1.731522-.369873 2.490666-.825429v-1.030475c-.034625-1.343085-.266067-2.673828-.686933-3.949738-1.904618-6.022234-7.598739-10.029207-13.9104-9.7888-5.905385-.356912-11.463712 2.809551-14.168235 8.071349-1.176465 2.395355-1.959273 4.96463-2.318325 7.609035z" fill="#99f"/></svg>