<svg width="256px" height="250px" viewBox="0 0 256 250" xmlns="http://www.w3.org/2000/svg" preserveAspectRatio="xMidYMid"><title>Adobe Animate</title><rect fill="#00005b" width="256" height="249.6" rx="42.5"/><path d="M103.512693 149.333333H63.8423787l-8.14688 25.032203c-.2143112.890712-.9978594 1.518892-1.9004949 1.546947l-20.2531478-.001347c-1.1458347 0-1.5465458-.629689-1.2021333-1.889067L66.829184 75.6013013l.4581031-1.35219c.1908215-.5731899.381629-1.18198.5726276-1.9140393.4492373-2.2912558.6792534-4.6200867.6869333-6.9549547-.0472365-.3310867.0641184-.6650968.3005829-.9016011.2364644-.2365043.5704557-.3479155.9015504-.3007349h27.3052054c.8 0 1.257984.2862827 1.373952.858848L137.268939 174.193664c.343232 1.145835-3.45e-4 1.718318-1.030731 1.717451h-22.325515c-.793194.087885-1.528334-.426754-1.717194-1.202134l-8.682806-25.375648zm-33.4204903-21.181514h27.1338666l-.386061-1.276925h0l-.6216423-2.02221h0l-.9082845-2.895683h0l-1.7446129-5.466994h0l-4.7545033-15.042871h0c-.8830354-2.7966537-1.7030609-5.5093185-2.4600764-8.1379944l-.8782382-3.0958689h0l-.71872-2.567718h0l-.8859563-3.2088141c-.0703851-.2571721-.139909-.511787-.2085717-.7638446h-.171872c-.8593688 4.1227258-1.905894 8.2039311-3.1362546 12.230965l-1.1593691 3.7226145h0l-2.7904365 9.0002495h0l-1.7977556 5.819225h0l-.7623973 2.427223h0l-.7582058 2.370059h0l-.7540145 2.312894c-.7519187 2.284311-1.4975502 4.482875-2.2368946 6.595693zm79.1982613 46.124832v-63.298262c0-.432292-.001406-.87594-.004218-1.330943l-.012653-1.399074h0l-.021088-1.467207h0l-.047449-2.328557h0l-.0574-2.032696c-.031952-1.002338-.068782-1.983662-.110491-2.9439723l-.089922-1.892601h0l-.12975-2.3483269h0l-.107313-1.7195508h0l-.063863-.878686h0l-.042306-.507303h0c-.136468-.3488931-.069955-.7445193.171349-1.0304747.2834-.248455.654943-.372263 1.030731-.3434666h17.14288c.59139-.019413 1.179264.0981355 1.717717.3434666.463056.2390455.782576.6865504.858325 1.2021334l.772918 2.3184853h0c.316255 1.1365746.517613 2.3020267.601045 3.4788267 3.320378-2.9087002 7.168089-5.1531948 11.3344-6.6117227 4.142316-1.4340909 8.496707-2.159792 12.880224-2.1469613 3.413456.01599 6.803372.5665059 10.046357 1.6318573 7.589923 2.42672 13.59942 8.2772927 16.22864 15.799467 1.717195 4.408597 2.390806 10.105205 2.390806 17.087242v50.418315c0 1.030464-.457988 1.545664-1.373963 1.5456L202.33856 176c-.473047.067862-.950419-.091127-1.288312-.429072-.337893-.337946-.496807-.815342-.428872-1.288379v-47.835616c-.055696-3.203725-.761083-6.362813-2.07344-9.285941-.921034-2.156566-2.440732-4.004056-4.379168-5.323733-2.190997-1.341064-4.731949-1.998742-7.298443-1.889067-2.759466-.039283-5.500412.456391-8.071349 1.459627-2.350469.938596-4.505334 2.307209-6.354133 4.03568v58.833162c0 1.030464-.457988 1.545664-1.373963 1.5456h-20.234613c-.425694.060798-.855172-.082355-1.159257-.386402-.304084-.304046-.447291-.733507-.386546-1.159208z" fill="#99f"/></svg>