<svg width="256px" height="256px" viewBox="0 0 256 256" xmlns="http://www.w3.org/2000/svg" preserveAspectRatio="xMidYMid"><title>Adonis</title><path d="M128 256C24.7657244 256 0 231.234133 0 128 0 24.7657956 24.7657244 0 128 0c103.234133 0 128 24.7657956 128 128 0 103.234133-24.765867 128-128 128zM91.7639111 63.3481956 51.6170667 154.590578c-1.8248534 4.432355-3.3890134 10.166755-3.3890134 15.120355 0 22.680178 15.9022934 38.582756 38.5822578 38.582756 7.4325333 0 13.6042669-1.952711 19.8798219-3.938133l.004978-.002134c6.488889-2.053689 13.088711-4.141511 21.304889-4.141511 8.312178 0 14.754133 2.069333 21.117867 4.114489l.002133 7.11e-4c6.209422 1.995378 12.344889 3.966578 20.068978 3.966578 22.680178 0 38.582755-15.902578 38.582755-38.582756 0-4.9536-1.564444-10.688-3.388444-15.120355L164.2368 63.3481956C157.457778 47.96736 144.423822 39.6252444 128 39.6252444c-16.423822 0-29.4584889 8.3421156-36.2360889 23.7229512zM88.3747556 168.929422 128 79.2512l39.104 89.678222c-11.209956-5.474844-25.287111-8.081778-39.104-8.081778-14.338133 0-27.894044 2.606934-39.6252444 8.081778z" fill="#5a46ff"/></svg>