<svg width="512px" height="166px" viewBox="0 0 512 166" xmlns="http://www.w3.org/2000/svg" preserveAspectRatio="xMidYMid"><path d="M72.2308021 37.6474205c10.008935 0 18.1227482 8.1138133 18.1227482 18.1227483v72.2295072H18.1227482C8.11381329 127.999676 0 119.885863 0 109.876928V89.6519411c0-10.008935 8.11381329-18.1227483 18.1227482-18.1227483h19.5246723v28.7051392c0 2.85951 2.3184173 5.177928 5.1779281 5.177928h9.8807812V65.4127653c0-2.8595108-2.3184173-5.1766336-5.177928-5.1779281H1.29448202V37.6474205H72.2308021zM158.115801 105.41226 158.117095 0h37.647421v127.999676h-72.229508c-10.008935 0-18.122748-8.113813-18.122748-18.122748V55.7701688c0-10.008935 8.113813-18.1227483 18.122748-18.1227483h19.522083v62.5869115c0 2.85951 2.318418 5.177928 5.177928 5.177928h9.880782zm105.412259 0V37.6474205h37.648715V147.519171c0 10.008935-8.113813 18.122748-18.122748 18.122748h-70.93632v-26.347887h51.411648v-11.294356h-34.583382c-10.008935 0-18.122748-8.113813-18.122748-18.122748V37.6474205h37.646126v62.5869115c0 2.85951 2.318417 5.177928 5.177928 5.177928h9.880781zm124.936932-67.7648395c10.008935 0 18.122748 8.1138133 18.122748 18.1227483v20.224987c0 10.008935-8.113813 18.1227483-18.122748 18.1227483H368.94032V65.4140598c0-2.8595108-2.317123-5.1779281-5.177928-5.1779281h-9.880781v39.9982003c0 2.85951 2.318417 5.177928 5.177928 5.177928h46.233719v22.587416h-70.935025c-10.008935 0-18.122749-8.113813-18.122749-18.122748V37.6474205h72.229508zm105.41226 0C503.886187 37.6474205 512 45.7612338 512 55.7701688v72.2295072h-37.647421V65.4127653c0-2.8478604-2.330067-5.1779281-5.177928-5.1779281h-9.880781v67.7648388h-37.64742V37.6474205h72.230802z" fill="#32aa52"/></svg>