<svg width="512px" height="161px" viewBox="0 0 512 161" xmlns="http://www.w3.org/2000/svg" preserveAspectRatio="xMidYMid"><title>AeroGear</title><g style="fill:#e25027"><path d="M406.426221 89.674973c-11.344803 0-22.688753 0-34.036118 0-.024759 1.2780833-.2382 2.994147 0 4.4387141.083669.5096966.154531 1.5828767.369679 2.219784.062325.1852666.568607 1.2353951.740213 1.4804251 1.012563 1.4368833 5.232714 2.7644848 8.140631 2.9591428 6.938532.470423 16.995007-1.7664358 21.08624-2.9591428 1.548726 4.2466178 2.2915 9.3000408 2.959143 14.4268878-9.093431 2.771315-19.580202 4.77339-29.596551 3.70021-1.298573-.139164-1.976461-.032443-3.699355-.36968-.192097-.038419-2.984756-.696671-4.810101-1.479571-1.509453-.64886-4.592392-2.32309-6.287965-3.699356-.788023-.637761-1.625565-1.215758-2.220638-1.850104-.316746-.338944-1.652031-1.916698-1.850104-2.221492-.471277-.715453-1.2704-2.631297-1.850105-4.068181-.315038-.782047-.518234-1.482132-.739359-2.219784-2.387975-7.9374347-2.65008-28.9024405.739359-36.2559017.440542-.9570684 1.082572-3.2801577 1.850105-4.4404217.267228-.4021224 1.372851-1.1115995 1.850104-1.8492508 1.820223-2.8131493 6.421152-5.1285547 10.359561-6.2871112.723138-.216002 2.506649-.8230275 4.069035-1.1115995 2.496403-.461032 7.688136-.457617 9.250523-.3688256 1.523967.0862301 3.094891.176729 4.438714.3688256.543847.0768387 2.896818.3952923 4.073303.8230276 1.716064.6232471 5.067938 2.2172227 5.544338 2.5075021 1.673375 1.0142706 3.587512 2.7013064 4.440421 3.6976479.575437.6753265 1.303697 2.0063431 1.850105 2.9608503 3.880353 6.8079066 3.544824 17.5678825 3.328822 29.597404zm-17.759979-19.2378431c-.078546-.9843888-.531041-2.1967323-.737651-2.5903171-.730821-1.3890725-2.067814-2.1301388-2.219784-2.219784-1.559825-.9024275-5.686916-1.1559951-7.770952-.7410663-4.667522.9357243-6.190636 5.541776-5.548606 10.3612685 5.425665 0 10.852183 0 16.276139 0 .064886-1.4095628.130626-3.2041728 8.54e-4-4.8101011z"/><path d="M464.763851 114.831102c-1.922674 0-4.658985 0-7.400418 0-2.524577 0-6.466401.069154-7.083672-.216002-1.742531-.805099-1.52909-2.050739-2.163436-3.853887-6.092453 3.275035-16.24455 7.670207-24.785595 4.440422-.73509-.277473-3.238323-1.491524-4.441276-2.590317-2.943775-2.685085-5.104649-7.966464-5.551167-12.9490247-.743628-8.3591942 1.578608-14.968174 6.661059-18.1270973 1.323333-.8221739 4.336263-2.2624722 7.027324-2.5903172 6.197466-.753019 10.88121.540432 18.868164 0 .124649-1.2695456.064886-3.0820846 0-4.8083935-.078546-2.0456163.037565-3.6805726-.367972-4.8092473-.49006-1.3557758-1.889378-2.6637408-3.331384-3.3288222-1.226003-.5660449-4.866449-.7393588-7.029885-.7393588-6.199173 0-13.818155 1.2729607-17.75571 1.8492508-.507989-4.9193828-1.763875-9.0891616-2.221492-14.0589164 5.507626-2.2838162 13.603861-2.5203085 20.348589-3.3288221 1.856935-.2253935 3.975975-.1075742 6.290527 0 4.17917.1929504 7.630934.7282599 11.097212 1.848397 2.88145.933163 4.077572 1.6153197 5.919139 2.9608503.848641.6206857 1.796318 1.6050745 2.1327 1.9986593.586535.6821567 1.737408 2.4187108 2.306014 3.9196262 1.198684 3.1683147 1.675937 8.41725 1.851812 12.5801987.537017 12.7731492-.11355 29.9226882-.370533 41.8028012zm-32.188575-21.8264531c-1.472741 1.423223-1.449689 5.9088942 0 7.3995641 1.01854 1.046714 2.282109 1.121845 2.222345 1.109892 3.701063.792292 9.807177-1.354068 11.467746-2.96085-.856324-1.4855477-.127211-4.5582409-.370533-6.6584981-4.361022.5003052-11.081845-1.0475672-13.319558 1.109892z"/><path d="M512 67.4771334c-5.82864 2.6816698-11.939023 5.0798902-17.018059 8.5103102 0 12.946463 0 25.8971954 0 38.8445114-6.287965 0-12.57593 0-18.86731 0 0-21.333831 0-42.6693699 0-64.0014938 4.256009-.0068301 11.548853-.0384193 15.141488.2313698.76241 0 .619832.9510921 1.136359 2.727773.280034.9638985.432004 2.0737905.739358 2.9608503.109282.4012686.432004.2074644.739359 0 1.662277-1.1252597 4.338824-2.6210526 6.66106-3.7002091 2.769607-1.2883285 6.221371-2.4631064 9.247107-3.3288222.314185-.0691548.347482.1434322.370533.3688257.597635 2.8242482 1.453959 11.1441692 1.850105 17.3868847z"/></g><g style="fill:#669eb2"><path d="M27.0045256 61.6894736c8.5103102 0 17.0189129 0 25.5292231 0 2.3623623 7.2467409 4.446398 14.5421462 6.6576443 21.8264527 1.6460552 5.4188341 3.5875124 10.8197392 5.1797805 16.2769927.5515309 1.889378.9229179 3.733506 1.4787176 5.550314 4.446398 14.531901 9.2129572 28.949398 13.3195575 43.653759-6.7840013 0-13.566295 0-20.347735 0-1.6750831-5.602393-3.0675707-11.48226-4.8092473-17.017206-.7470427.007684-27.7720586.151116-28.855484.368826-1.8859626 5.268572-3.1478244 11.156976-4.8092473 16.64838-6.7822937 0-13.56373372 0-20.34773500000001 0C6.35968104 127.332754 12.8585255 105.786336 19.6075225 84.2544313c2.2547882-7.1946613 4.1305056-14.4098129 6.6593518-21.4559195-.0162215-.6326384.2749117-.9579221.7376513-1.1090382zm11.8408399 19.6075225c-2.8541299 11.0502553-6.2042962 22.8466999-9.2488152 34.0335569.6369072.043542 18.6769207-.02732 19.6075224 0-3.1136739-11.805836-6.1949048-23.6483831-9.6184946-35.1434489-.3508966.1391634-.6497137.7513115-.7402126 1.109892z"/><path d="M134.204723 123.841717c-11.34395 0-22.690461 0-34.034411 0-.117819 2.020857.004269 3.639592.368826 5.178073.200634.842664.352604.978412.741066 1.850958.97329 2.187341 3.436397 3.140994 4.069035 3.328822 3.013784.897305 5.994271.70777 9.989028.368826 3.966583-.334675 7.688136-.726552 11.099773-1.477864 1.725456-.379924 3.269059-.673619 4.439568-.741066 1.051836 4.498477 2.038787 9.836204 2.589464 14.058916-5.972927 1.938896-13.281138 3.572999-20.717415 4.070742-5.952436.397854-11.857061-.280888-16.674846-2.016588-.8742534-.315039-1.8151003-.599342-2.5629967-.943408-1.1875844-.547262-2.691915-1.60849-4.068181-2.58861-.1314795-.091352-2.4690828-2.320528-3.7010629-4.069888-1.2302725-1.747653-3.4534716-5.733019-4.0690347-8.878282-.7145997-3.656668-.371387-8.348949-.371387-12.947317 0-4.702527-.3662643-9.563 0-13.689237.3141849-3.504697 1.4659112-6.8710852 2.9608503-9.6202022 1.0518361-1.9303583 2.0994034-3.9341402 3.329676-5.178073.3065009-.3090622 1.913283-1.6375175 2.2197839-1.8518121 2.5536054-1.7621669 6.3613886-3.0556179 9.9898816-4.0681809 4.1706325-1.1653866 11.4020055-.8844986 16.2778465 0 1.623857.2945482 3.018052.6027567 4.439568 1.1098919 1.255032.4473719 2.58861.9707286 3.555069 1.5077456.64203.356873 1.670815 1.0006103 1.782658 1.0697651 4.920236 3.0308589 7.843521 10.4551825 8.348095 17.0308656.420051 5.443593.136602 11.882674-8.54e-4 18.495923zm-20.346027-23.678265c-3.331384-2.1583128-10.398835-1.040737-12.208812 1.109892-.116112.140871-.647153.977559-.738505 1.1116-1.096232 1.593975-.796561 5.787659-.740213 7.027323 5.424811 0 10.852182 0 16.277847 0 .232223-4.600075-.323577-7.778635-2.590317-9.248815z"/><path d="M179.99289 101.273344c-.133187.836688-.44225.837542-1.848397 1.482133-1.875718.858885-4.565071 1.567509-6.660206 2.588609-2.927553 1.426639-6.195758 3.112821-8.138069 4.437861 0 13.07282 0 26.143932 0 39.215898.017075.033297-19.235282.033297-19.306998-.038419 0-21.08624.068301-42.507155.068301-63.5916877 3.810344-.0469569 12.091846-.0068301 15.908167 0 .354312 1.9884142.637761 3.5516544 1.110746 5.9174318 5.207101-2.9301148 10.727532-5.5486061 17.018059-7.3987107 1.303696 5.1089182 1.762167 13.2333275 1.848397 17.3868846z"/></g><g style="fill:#e25027"><path d="M363.129335 61.1951448l-3.153801-15.9611004c-.25186-1.2456403-1.097085-2.2471044-2.095134-2.4537151l-9.275282-1.895354c2.156605 4.3866347 3.789 9.1173358 4.752045 14.1511228.951946 4.9270666 1.195268 9.8251053.854617 14.6027634l7.91353-5.3718772c.843518-.5711675 1.246494-1.8193691 1.004025-3.0718395z"/><path d="M353.527062 54.2011178c-6.302479-30.5049542-36.141498-50.12699058-66.649013-43.8228041-30.505808 6.3024789-50.126137 36.1432054-43.822805 66.6490133 5.522994 26.734736 29.12442 45.104302 55.406662 44.998045-18.656431-3.063765-34.387869-17.27209-38.440682-36.890711-5.255765-25.4378704 11.102335-50.319941 36.540205-55.5757064 25.437017-5.2566192 50.316526 11.1031886 55.572292 36.541059.942554 4.5548259 1.178193 9.0900153.805952 13.5005553 2.067814-8.0603771 2.386268-16.7004593.587389-25.3994511z"/><path d="M242.320154 60.6478827l-9.411884 6.2213714c-.85547.5660449-1.265276 1.8048551-1.031345 3.0573255l3.030859 15.9858596c.237346 1.2541779 1.082571 2.2616183 2.081474 2.4827429l11.064769 2.396513c-2.254788-4.4984776-3.952923-9.3649271-4.949264-14.5472688-1.015125-5.2694256-1.239664-10.5047007-.784609-15.5965436z"/><path d="M302.267128 9.65944516l-5.776561-8.57604994c-.572021-.847786723-1.819369-1.256739229-3.073547-1.0142705202L277.448236 3.16999214c-1.255886.24246871-2.253081 1.08598661-2.463107 2.08745068l-2.142091 10.31687278c4.565071-2.3128441 9.515189-4.0485444 14.787176-5.06623 4.940727-.94767695 9.847303-1.19270695 14.636914-.84864044z"/><path d="M261.803881 22.9439984l-10.573855-2.0669604c-1.002318-.1912429-2.175388.4021224-2.888281 1.4565198l-9.101114 13.4843338c-.7146 1.0620812-.827296 2.3666312-.26552 3.2169792l5.949021 9.0755013c3.220394-9.7644881 9.06611-18.4873853 16.879749-25.1663737z"/><path d="M254.984022 101.393725l-2.195025 10.930728c-.198927 1.002318.39017 2.168558 1.451397 2.887427l13.471528 9.117336c1.05952.715453 2.364923.823881 3.221248.269789l9.071232-5.879866c-9.756804-3.361266-18.426768-9.366635-25.02038-17.325414z"/><path d="M340.428629 28.6676259l1.906453-9.4895764c.201488-.9937802-.389316-2.1685581-1.448836-2.8823041l-13.473235-9.11733569c-1.055251-.71033087-2.365777-.82217383-3.221248-.27149666l-8.400175 5.44615455c9.516897 3.1435556 18.034038 8.7877832 24.637041 16.3145583z"/></g><path d="M334.704148 77.6582579c.125503-11.0203736-8.967074-17.3774933-17.517511-19.6519181-2.475913-.6582514-4.984268-.9425545-7.452497-.8401029-10.42957.4277353-19.002205 7.59593-21.83926 18.2645532-1.765582 6.6345927-1.017685 13.3400478 2.101965 18.8749937 3.088061 5.4777438 8.267842 9.4178602 14.578858 11.0972122 2.646666.704355 5.31126 1.009148 7.92036.901574 4.057082-.16563 9.619348-1.422369 14.383346-6.165877l-23.516049-6.2572294c-1.038176-.2749117-1.657155-1.3412618-1.380535-2.3785839l2.691061-10.1102622c.275765-1.0373221 1.3387-1.653739 2.37773-1.3788273l38.121374 10.1418514c.849495-3.1870975 1.255032-6.5236036 1.172217-9.9258494l-9.819129-.608733c-1.031346-.0640323-1.833883-.9263329-1.82193-1.9628013z" fill="#eb8467"/><path d="M252.266494 122.050522l-5.947313-4.048544c-.00683-.084523-.007684-.172461-.016222-.257837-.194658-2.018296-.58312-3.999026-1.134651-5.914017-.024759-.081107-.055495-.162215-.078546-.243322l4.053667-6.100137c.338944-.505428.280034-1.287475-.134041-1.921821l-5.284793-8.0953811c-.414075-.6334922-1.102208-.9954878-1.695574-.8844986l-7.162218 1.3540683c-.06574-.0537871-.125503-.1152581-.191243-.1690451-1.477864-1.22515-3.067571-2.3282119-4.764852-3.282719-.072569-.0392731-.150262-.0725699-.221978-.1126967l-1.453958-7.300528c-.121235-.5967803-.708624-1.1064769-1.446275-1.2567392l-9.421275-1.9149905c-.737652-.1511161-1.476157.08623-1.817662.587389l-4.06562 6.0335435c-.083669.0042688-.168191.0068301-.252714.014514-2.017442.1895354-3.994757.5754363-5.912309 1.1303823-.084522.0247591-.167337.0580559-.25186.082815l-6.031836-4.0297617c-.502866-.3346751-1.277229-.2740579-1.906453.1468473l-8.029641 5.3787073c-.630931.4217589-.988658 1.1184296-.875961 1.7169175l1.305403 7.0017108c-.05464.0614709-.116111.1229419-.169045.1878279-1.319064 1.588853-2.49811 3.314308-3.508966 5.157583-.040981.075131-.074277.152823-.116112.227954l-7.145143 1.41554c-.593365.116111-1.102208.708623-1.256739 1.452251l-1.979023 9.51775c-.153677.744482.0794 1.491524.574583 1.840713l5.978049 4.180878c.00683.08623.007684.169899.016221.255275.188682 2.071229.577998 4.098917 1.143189 6.060864.023052.085376.053787.166484.0794.247591l-4.030615 6.062572c-.336383.506281-.280035 1.285767.134894 1.923528l5.28394 8.091966c.413221.634346 1.102208.997196 1.696427.886206l7.094771-1.3387c.066593.052933.126357.114404.19295.17246 1.593976 1.323333 3.321139 2.504941 5.170389 3.512381.074278.042688.154532.075131.227101.113551l1.369436 7.087941c.116966.597634.702647 1.109038 1.443714 1.253324l9.415299 1.932066c.740212.15197 1.478717-.089645 1.825345-.590804l4.133067-6.054888c.083669-.010245.174168-.010245.257837-.017929 1.360044-.144286 2.698745-.379925 4.01354-.694109-1.920113.201488-3.888891.200634-5.88755-.083669-13.147951-1.865472-22.292608-14.038426-20.42372-27.18467 1.866326-13.149658 14.038426-22.296022 27.188084-20.427135 13.146244 1.866326 22.290046 14.036719 20.42372 27.186377-.428589 3.023175-1.423223 5.818396-2.828517 8.33102.963899-1.282352 1.86718-2.623614 2.643251-4.058789.04098-.076839.074277-.1588.116965-.235639l7.095625-1.49067c.58995-.127211 1.097086-.724845 1.24564-1.47018l1.904746-9.530557c.151116-.750458-.084523-1.492378-.584828-1.834737z" fill="#669eb2"/></svg>