<svg width="512px" height="192px" viewBox="0 0 512 192" xmlns="http://www.w3.org/2000/svg" preserveAspectRatio="xMidYMid"><title>Aha!</title><path d="M56.9555035 146.885246l-8.9929742 40.168618c0 1.199063-1.1990633 1.798595-2.3981265 1.798595H2.39812646c-.59953161 0-1.798594844-.599532-1.798594844-1.199063C0 187.053864 0 186.454333 0 185.854801L56.9555035 13.1896956c0 0 1.1990632-2.9976581 4.7962529-4.19672136 12.590164-2.39812646 32.3747073-5.39578454 46.1639346-7.79391101 2.997658-.599531614 4.196721 2.39812647 4.196721 2.39812647l55.75644 183.4566743c0 .599532 0 1.199063-.599531 1.798595-.599532.599532-1.199063.599532-1.798595.599532h-25.180328c-6.594848 0-19.784543.599531-24.580796.599531-1.199063 0-2.398127-.599531-2.398127-1.798595l-8.992974-40.768149-47.3629975-.599532zm40.1686183-35.372365c-3.5971897-14.3887592-8.9929743-40.1686187-14.3887588-62.3512885-3.5971897 15.587822-11.9906323 47.3629977-16.1873536 62.3512885h30.5761124 0zM224.824356 68.9461358c30.576112-20.9836065 56.355972-16.1873536 68.946136-3.5971897 14.98829 15.587822 6.594848 35.9718969 11.391101 121.7049179 0 .599532 0 1.199063-.599532 1.798595-.599532.599532-1.199063.599532-1.798595.599532-4.796253 0-13.789227-.599532-17.985948-.599532-7.19438 0-22.18267.599532-28.177986.599532-.599532 0-1.199064 0-1.798595-.599532-.599532-.599532-.599532-1.199063-.599532-1.798595.599532-83.934426 1.199063-95.3255268-13.789227-95.3255268-5.395785 0-9.592506 2.3981265-14.388759 4.1967213 0 43.1662765.599532 55.7564405 2.398127 90.5292745 0 .599531 0 1.199063-.599532 1.199063-.599532.599531-1.199063.599531-1.199063.599531l-47.962529.599532c-.599532 0-1.199064 0-1.199064-.599532-.599531-.599531-.599531-1.199063-.599531-1.199063 1.199063-125.3021076 0-151.081967-3.59719-177.46135815-1.798595-1.19906323.599532-1.19906323.599532-1.19906323 21.583138-2.99765808 23.381733-3.59718969 47.962529-8.393442620000014 0 2.0000000000000002e-23 2.398126 2.0000000000000002e-23 2.398126 2.997658080000014.599532 18.58548012.599532 65.94847772.599532 65.94847772zM389.096019 176.262295c-8.992975 6.594848-26.379391 15.587822-40.76815 15.587822-22.18267 0-35.971897-16.187354-35.971897-40.168618 0-37.17096 43.765808-47.962529 74.941452-52.1592508.599532-5.9953161.599532-12.5901639-14.988291-12.5901639-15.587822 0-28.777517 4.7962529-42.566744 10.1920375-.599532.5995316-1.798595 0-2.398127 0-.599531-.5995316-1.199063-1.1990633-1.199063-2.3981265l1.199063-28.7775175c0-1.1990633.599532-1.7985949 1.798595-2.3981265 28.177986-8.3934426 76.140515-14.9882904 95.925059 3.5971897 12.590164 11.3911007 11.990632 25.7798595 11.3911 49.761124-.599531 34.772834 0 44.36534 1.798595 70.145199 0 .599532 0 1.199063-.599531 1.798595-.599532.599532-1.199064.599532-1.798595.599532l-44.36534.599531c-.599531 0-1.199063 0-1.798595-.599531-.599531-.599532-.599531-1.199064-.599531-1.798595v-11.391101h0zm-1.199063-49.761124c-11.391101 1.199063-28.777518 2.398126-28.777518 17.386417 0 13.189695 14.388759 17.386417 28.777518 8.393442v-25.779859h0zm80.337236.599532c-1.199063 0-2.398126-1.199064-2.398126-2.398127-2.997659-65.348946-3.59719-72.5433254-7.19438-113.3114753 0-1.1990632.599532-2.39812646 2.398127-2.99765808L509.002342.599531616c.599532 0 1.798595 0 2.398126.599531614C512 1.79859485 512 2.39812646 512 3.5971897c-2.997658 29.3770492-5.995316 85.1334895-6.594848 120.5058543 0 1.199064-1.199063 2.398127-2.398126 2.398127l-34.772834.599532h0zm-8.369461 55.660515c-.023982-.203841-.023982-.401686-.023982-.599532 0-8.135644.203841-16.475129.257799-23.699485-.004482-2.661929-.090456-5.323097-.257799-7.979765 0-.413677 0-.827354.191851-1.235036-.034853-1.376125-.098817-2.751358-.191851-4.124777 0-.599532 0-1.211054.605527-1.816581.611523-.611522 1.21705-.611522 1.822576-.611522 12.140516 1.217049 33.393911.611522 43.106324-.605527.605527 0 1.211054 0 1.822576.605527.605527.611522.605527 1.217049.605527 1.822576 0 1.606745-.005996 3.201499-.023982 4.772272.01872.197266.026725.395402.023982.593536v37.17096c0 .599532 0 1.199063-.599532 1.798595-.599532.599532-1.199063.599532-1.798595.599532-17.386417-.599532-28.177986-.599532-43.166276.599531-.599532 0-1.199063 0-1.798595-.599531-.599532-.599532-.599532-1.199064-.599532-1.798595 0-1.618736.005996-3.255457.023982-4.892178h0z" fill="#0073cf"/></svg>