<svg width="512px" height="90px" viewBox="0 0 512 90" xmlns="http://www.w3.org/2000/svg" preserveAspectRatio="xMidYMid"><g fill="orange"><path d="M33.8296697 8.89657981l6.1766064 18.06232369-10.964893 31.6338578c4.3342494.7069097 8.7202066 1.0483231 13.111122 1.01999 3.0188872.0056666 6.0363577-.1529985 9.0382451-.4745787l3.7682965 11.744052c-4.0657936.4108293-8.499917.7083264-12.7498755.7083264-5.6481948-.0141665-11.2878898-.4207459-16.8794185-1.2183214l-6.2545223 18.3314877H0L29.8347087 8.89657981h3.994961z" fill-opacity="0.6"/><path d="M481.258218 26.9589035c19.209812 0 30.741367 8.9603291 30.741367 31.5701084 0 2.8333057-.077916 5.9074423-.148749 6.3111884h-44.227902c-.077915 9.1019944 7.664092 13.0757056 19.741058 13.0757056 8.131587 0 14.612774-1.8983148 18.983148-3.1874688l.708326 11.8148846c-3.619548 1.3529035-11.453638 3.3221277-22.149367 3.3221277-21.20021.0282563-35.671318-7.7775009-35.671318-31.4072701 0-15.2715176 6.027857-25.4572515 18.232322-29.5372117v24.7914247h26.526824c.070833-11.0003093-4.14371-15.7531796-13.259871-15.7531796-4.249958 0-7.387844 1.0199901-9.569489 3.1945522v-13.245704c3.324175-.653077 6.705726-.9711156 10.093651-.9491574zM201.561365 2.30914412V58.5290119c0 12.0415491 2.486226 19.4152271 13.259871 19.4152271 10.773645 0 14.088612-7.4020111 14.088612-19.4152271 0-12.013216-3.314967-19.4223104-14.088612-19.4223104-4.519123 0-7.536593 1.2891541-9.56949 3.6691309V30.8263657c3.463716-2.1745621 8.138671-3.5982982 14.541941-3.5982982 16.277341 0 26.895154 9.3003259 26.895154 31.2301118 0 21.9581189-10.624896 31.1663623-27.043902 31.1663623-10.171567 0-16.050677-3.5416321-19.365644-8.0820044l-.828742 7.132847h-15.441516V13.9894467h-7.841174V2.30914412h25.393502zM332.722168 27.4193156c10.320316 0 16.199425 3.5982982 19.436477 8.1457538l.906658-7.4728437h15.370683l.02125 60.5831585h-17.559412V58.5290119c0-12.0415491-2.486226-19.4223104-13.25987-19.4223104-10.773645 0-14.088613 7.4020111-14.088613 19.4223104 0 12.0202993 3.314968 19.386894 14.088613 19.386894 4.526205 0 7.536593-1.289154 9.569489-3.6620475V86.068743c-3.463716 2.1674789-8.209503 3.5416321-14.541941 3.5416321-16.419006 0-26.916404-9.1657438-26.916404-31.0955297 0-21.9297859 10.476148-31.0955298 26.97307-31.0955298zM55.3061267 8.89657981 85.1408354 88.6753842H65.1731137L37.9733793 8.89657981h17.3327474zM112.6239 28.1063923v48.8745228h7.083265v11.6944691H95.0928216V39.8008614h-7.8340902V28.1063923H112.6239zm57.246941-1.0837395c1.683692-.0155831 3.364551.1437903 5.014952.4745787l-.226665 13.8548648c-1.416653-.1416653-3.314968-.2762473-4.958285-.2762473-5.199116 0-8.889496 1.2254047-11.453638 3.1237195-5.669141 4.1937983-5.87161 11.9837446-5.878841 16.2438769l-2.68e-4 28.2319388h-17.48858V39.8008614h-7.841173V28.1063923h23.282689l1.133323 9.7111551c3.166219-6.1766063 9.038245-10.7948946 18.416486-10.7948946zm127.002927 0c1.695734-.0177081 3.387925.140957 5.050368.4745787l-.226665 13.8548648c-1.416653-.1416653-3.314968-.2762473-4.958285-.2762473-5.199116 0-8.889496 1.2254047-11.453638 3.1237195-5.662311 4.1937983-5.864536 11.9837446-5.871759 16.2438769l-2.67e-4 28.2319388h-17.495663V39.8008614h-7.841173V28.1063923h23.282689l1.133323 9.7111551c3.166219-6.1766063 9.038245-10.7948946 18.38107-10.7948946zM402.591486 2.30914412V88.6753842h-17.552329V13.9894467h-7.83409V2.30914412h25.386419zm42.287087 25.76891508-21.490623 28.2763906 24.189347 32.3209344h-20.569799l-23.133941-32.0092708 21.171876-28.5880542h19.83314zM103.07566 0c5.425781 0 9.420742 3.54163209 9.420742 8.42200111 0 4.88036899-3.994961 8.41491779-9.420742 8.41491779-5.4257801 0-9.4136578-3.5274655-9.4136578-8.41491779h-.0212498C93.6620022 3.54163209 97.6498799 0 103.07566 0z"/></g></svg>