<svg width="256px" height="275px" viewBox="0 0 256 275" xmlns="http://www.w3.org/2000/svg" preserveAspectRatio="xMidYMid"><title>Airbnb</title><path d="M252.154292 194.867326c-1.231323-3.456284-2.670297-6.800162-4.03891-9.898633-2.107407-4.765691-4.314349-9.540821-6.449214-14.15635l-.169038-.366394c-19.039596-41.230861-39.475262-83.0254709-60.738102-124.2219239l-.902684-1.7491647c-2.169187-4.2068332-4.41131-8.55662-6.712639-12.8306397-2.728646-5.408896-6.039917-10.5049415-9.874608-15.1978684-4.316923-5.1498462-9.713291-9.291621-15.808124-12.13325633-6.094832-2.84163533-12.740543-4.313095970000013-19.467769-4.313095970000013C121.265978-1.4210854700000001e-14 114.621126 1.47481567 108.526293 4.31798693 102.432318 7.1611582 97.036808 11.3043145 92.7216012 16.4551904c-3.8304003 4.6940423-7.139698 9.7889724-9.8692872 15.1952083-2.3211506 4.3123752-4.5843817 8.7024911-6.7728754 12.9481088l-.8381575 1.6250886C53.9774967 87.4230523 33.5420022 129.217662 14.5025787 170.445091l-.2774123.599788c-2.0977963 4.540877-4.26672617 9.236207-6.3389264 13.922097-1.36932521 3.095897-2.80642036 6.437201-4.03906446 9.902066C.316679953 204.30861-.808331101 214.475818.573271296 224.456825 2.03843546 234.543374 6.11806921 244.073897 12.4081288 252.102808c6.2900425 8.02891 14.5723393 14.278194 24.0264949 18.129188 7.1408993 2.889104 14.7762154 4.365833 22.4814638 4.34882 2.4204286 0 4.8387978-.141729 7.243009-.421458 9.7452969-1.241619 19.1441931-4.413026 27.6453822-9.327162 11.1514073-6.26473 22.1646663-15.446021 34.1955903-28.565828 12.030923 13.119807 23.044182 22.301098 34.19559 28.565828 8.500845 4.914994 17.900085 8.085543 27.645124 9.327162 2.404297.279729 4.823181.421458 7.243782.421458 7.704562.017013 15.338762-1.459716 22.479576-4.34882 9.454155-3.850994 17.737053-10.100278 24.027524-18.129188 6.290472-8.028911 10.370569-17.558576 11.836143-27.645983 1.379768-9.981865.254845-20.149073-3.273516-29.589499zm-124.154223 14.303078c-14.893427-18.878279-24.450551-36.409396-27.803867-51.106327-1.3737616-5.507058-1.69811-11.222626-.9558841-16.849814.5860581-4.124716 2.1014001-8.063233 4.4319031-11.519517 2.867652-3.718852 6.55304-6.730658 10.771285-8.802884 4.218246-2.071368 8.856943-3.149098 13.558279-3.149098 4.702194 0 9.340033 1.078588 13.558278 3.151672 4.218246 2.072226 7.902775 5.084032 10.770427 8.802884 2.330503 3.458001 3.845845 7.396517 4.431904 11.522092.740509 5.629761.415303 11.347046-.961033 16.85582-3.356748 14.695214-12.911298 32.221184-27.801292 51.095172zm110.032196 12.801466c-1.024529 7.052433-3.877594 13.716162-8.275175 19.329621-4.398439 5.614316-10.189517 9.984439-16.800047 12.677046-6.684323 2.67802-13.938401 3.627039-21.087795 2.758678-7.431697-.9576-14.593962-3.403085-21.055189-7.19144-9.926091-5.576561-19.974027-14.137472-31.280744-26.696105 17.999621-22.194699 29.239409-42.651817 33.401022-60.872818 1.873155-7.662517 2.279019-15.609053 1.197-23.420873-.981626-6.7298-3.48031-13.14984-7.307278-18.776169-4.483388-6.069949-10.331956-11.004678-17.074627-14.405188-6.74353-3.40051-14.192389-5.172414-21.747647-5.172414-7.554401 0-15.004118 1.771046-21.747647 5.170697-6.7435298 3.399652-12.592098 8.333524-17.0754855 14.403473-3.8263674 5.624613-6.3247082 12.042936-7.307278 18.77102-1.0825343 7.809246-.6787291 15.751492 1.1902214 23.411435 4.1589533 18.228724 15.3995993 38.69099 33.4052271 60.892553-11.306718 12.556917-21.3546538 21.117828-31.2808308 26.695247-6.4613121 3.787497-13.622805 6.23384-21.054674 7.190582-7.1502522.868361-14.4043302-.080658-21.0890823-2.758678-6.6104438-2.692607-12.4014359-7.06273-16.7993601-12.676188-4.3978385-5.614317-7.2500451-12.278046-8.2740594-19.330479-.9849724-7.16913-.1467291-14.470401 2.437504-21.231092.9823124-2.761252 2.1318615-5.47102 3.5559913-8.690478 2.0147357-4.554607 4.1527752-9.183866 6.2208825-13.660389l.2777555-.601503c18.9329376-40.99661 39.2551677-82.5586841 60.4029417-123.533499l.8417613-1.6312666c2.1528841-4.17723 4.3795617-8.4962123 6.6259748-12.6695811 2.1485935-4.3013919 4.7493875-8.3626116 7.7586195-12.1150139 2.666007-3.220917 6.012459-5.8141598 9.799098-7.5943864 3.787497-1.7803124 7.921652-2.7039332 12.107291-2.7039332 4.185639 0 8.320653.9223337 12.107292 2.7019597 3.787497 1.7796259 7.133949 4.3723539 9.800813 7.5928419 3.010949 3.7495706 5.612601 7.8094174 7.759478 12.1106377 2.22582 4.1362146 4.432762 8.4163265 6.567627 12.5552011l.9044 1.7553427c21.147002 40.9704388 41.468545 82.5316551 60.403456 123.5351291l.170755.368968c2.103975 4.552033 4.279168 9.256801 6.327369 13.891208 1.426103 3.223748 2.577626 5.936091 3.557535 8.687046 2.582775 6.761549 3.421104 14.06282 2.436904 21.232808z" fill="#ff385c"/></svg>