<svg width="256px" height="256px" viewBox="0 0 256 256" xmlns="http://www.w3.org/2000/svg" preserveAspectRatio="xMidYMid"><title>Airflow</title><path d="M4.12667151 254.973794 126.695485 129.334999c.780863-.771501.896298-1.991809.27395-2.896046-7.453185-10.40576-21.207227-12.210353-26.303571-19.202607-15.0977014-20.7115069-18.9286562-32.4348376-25.4164935-31.7086521-.4527731.0651431-.869098.2848275-1.1784209.6218236l-44.275576 45.3887705C4.32235024 147.628787.66098362 205.136594 0 253.295306c-.00437321723.980343.587847435 1.864838 1.49595589 2.234205.90810845.369368 1.94957596.149366 2.63071562-.555717h0z" fill="#017cee"/><path d="M254.973769 251.873373l-125.638795-122.57751c-.772133-.783235-1.995267-.898763-2.900394-.27395-10.40576 7.457534-12.210353 21.207227-19.202607 26.303571-20.7115072 15.097701-32.4348378 18.928656-31.7086523 25.416494.0660974.451219.2857058.865864.6218235 1.174072l45.3887708 44.275576c26.090498 25.473023 83.598305 29.13439 131.757017 29.79535.975286 0 1.854032-.58881 2.223307-1.491484.369276-.902673.155659-1.939046-.54047-2.622119h0z" fill="#00ad46"/><path d="M121.533915 226.204671c-14.262806-13.914932-20.872399-41.440408 6.461747-98.200288-44.4364678 19.859218-60.008147 45.962762-52.3505856 53.43769l45.8888386 44.762598z" fill="#04d659"/><path d="M251.869 1.03062384 129.304535 126.669419c-.782564.770693-.89812 1.992283-.27395 2.896046 7.457534 10.40576 21.202878 12.210353 26.303571 19.202607 15.097701 20.711507 18.933005 32.434838 25.416494 31.708652.452998-.064449.869543-.284249 1.17842-.621823l44.275576-45.388771C251.67767 108.375632 255.339036 50.8678244 256 2.70911258c.001828-.98015612-.591422-1.863332984-1.499484-2.232293171-.908063-.368960187-1.949187-.149854886-2.631516.553804431h0z" fill="#00c7d4"/><path d="M226.226389 134.46613c-13.914933 14.262806-41.440409 20.872399-98.204637-6.461747 19.859218 44.436468 45.962762 60.008147 53.43769 52.350586l44.766947-45.888839z" fill="#11e1ee"/><path d="M1.01755377 4.13104475 126.656349 126.69551c.771501.780863 1.991809.896298 2.896046.27395 10.40576-7.457534 12.210353-21.207227 19.202607-26.303571 20.711507-15.0977015 32.434838-18.9286564 31.708652-25.4164937-.066171-.4524382-.285684-.868438-.621823-1.1784209L134.45306 29.7953985C108.362561 4.32237507 50.8547543.661008449 2.6960425 0 1.71373197-.00621471271.826744117.586697585.456966072 1.49677308c-.3697780437.9100755-.147706805 1.95361602.560587698 2.63427167h0z" fill="#e43921"/><path d="M134.474802 29.7997469c14.262806 13.9149325 20.872399 41.4404085-6.461747 98.2046361 44.436468-19.859217 60.008147-45.9671097 52.350586-53.4376891l-45.888839-44.766947z" fill="#ff7557"/><path d="M29.7953736 121.542636c13.9149326-14.262805 41.4404085-20.872398 98.2046364 6.461747-19.859218-44.4364671-45.9627615-60.0081463-53.4376893-52.350585l-44.7669471 45.888838z" fill="#0cb6ff"/><circle fill="#4a4848" cx="128.017404" cy="127.982641" r="5.47900469"/></svg>