<svg width="512px" height="207px" viewBox="0 0 512 207" xmlns="http://www.w3.org/2000/svg" preserveAspectRatio="xMidYMid"><title>AIX</title><defs><linearGradient x1="5.80684637%" y1="101.291466%" x2="274.5874%" y2="-4.880124%" id="a"><stop stop-color="#6fdc8c" offset="0%"/><stop stop-color="#6fdc8c" offset="30.49%"/><stop stop-color="#009d9a" offset="92.79%"/><stop stop-color="#009d9a" offset="100%"/></linearGradient><linearGradient x1="-9.90395796%" y1="101.291184%" x2="128.370967%" y2="-4.85717932%" id="b"><stop stop-color="#6fdc8c" offset="0%"/><stop stop-color="#6fdc8c" offset="30.49%"/><stop stop-color="#009d9a" offset="92.79%"/><stop stop-color="#009d9a" offset="100%"/></linearGradient><linearGradient x1="-136.657951%" y1="101.291184%" x2="130.350038%" y2="-4.85717932%" id="c"><stop stop-color="#6fdc8c" offset="0%"/><stop stop-color="#6fdc8c" offset="30.49%"/><stop stop-color="#009d9a" offset="92.79%"/><stop stop-color="#009d9a" offset="100%"/></linearGradient></defs><path d="M142.163447 206.177673l-14.595839-49.029781H59.5438336l-14.5958395 49.029781H-1e-14L67.1471025.0451055946h54.8736995L188.291233 206.177673h-46.127786zM93.9910847 40.7904927h-1.459584L70.0500743 119.063735h46.7013377L93.9910847 40.7904927z" fill="url(#a)"/><path fill="url(#b)" d="M208.731055 206.177673v-35.738666h26.270431V35.7386661h-26.270431V2.84217094e-14h96.909361V35.7386661h-26.270431V170.439007h26.270431v35.738666z"/><path fill="url(#c)" d="M512 206.177673h-51.381872l-44.086181-75.912716h-.875781l-42.912332 75.912716h-47.875186l65.393759-106.6296257L328.078158 0h51.66419l39.702823 69.7031789h.87578L460.603269 0h47.875186L445.71471 100.435124z"/></svg>