<svg width="256px" height="182px" viewBox="0 0 256 182" xmlns="http://www.w3.org/2000/svg" preserveAspectRatio="xMidYMid"><path d="M216.357806 174.771308c38.778059 31.000844 63.621941-61.56962 1.836287-78.6362869C166.345992 81.7687764 114.17384 106.396624 61.8936709 163.861603c0 0 96.5670881-35.321519 154.4641351 10.909705z" fill="#0b5567"/><path d="M62.7578059 163.105485C99.9156118 124.54346 161.701266 81.5527426 219.274262 97.4312236c13.394092 3.7805904 22.899578 11.5578064 29.05654 20.8472574L193.890295 8.42531646c-7.777215-12.42194093-27.65232-9.82953587-38.886076-.32405064L11.1257384 128.648101c-13.0700422 11.233756-13.82616034 31.216878-1.72827005 43.314768C20.0911392 182.65654 37.049789 183.628692 48.8236287 174.123207l13.9341772-11.017722z" fill="#15a9ce"/></svg>