<svg width="512px" height="127px" viewBox="0 0 512 127" xmlns="http://www.w3.org/2000/svg" preserveAspectRatio="xMidYMid"><path d="M16.6452675.05244444h93.1292185c9.165432 0 16.645267 7.44296297 16.645267 16.64526746v93.1344861c0 9.165432-7.442963 16.64-16.645267 16.64H16.6452675c-9.16543211 0-16.645267499999985-7.437696-16.645267499999985-16.64V16.655572C1.42108547e-14 7.49540741 7.43769547.05244444 16.6452675.05244444" fill="#5468ff"/><path d="M76.3838683 28.2746008v-4.335144c-.0023263-3.0295225-2.4592009-5.4840393-5.4887243-5.4834568H58.1004115c-3.0295233-5.825e-4-5.4863979 2.4539343-5.4887243 5.4834568v4.4510288c0 .495144.4582716.8427984.9586832.7269136 3.6193784-1.0450376 7.3682475-1.5734969 11.1354732-1.569712 3.6503704 0 7.2638683.4951441 10.756214 1.4538272.4635391.1158848.9218107-.2265021.9218107-.7269136m-35.065679 5.6730864-2.1860082-2.1860082c-1.0286566-1.0293846-2.4242513-1.6077481-3.8795062-1.6077481-1.4552549 0-2.8508497.5783635-3.8795062 1.6077481l-2.6126749 2.6074074c-1.0316021 1.0253363-1.6116798 2.4197568-1.6116798 3.8742387 0 1.4544819.5800777 2.8489024 1.6116798 3.8742387l2.1491358 2.1491358c.3476544.3423868.8480659.2633745 1.1535803-.0790124 1.2679544-1.7413774 2.6679681-3.3826513 4.1876543-4.9093004 1.5324729-1.5376964 3.1885066-2.9470867 4.9514403-4.2139917.3834733-.2317696.4213992-.7690535.1158848-1.1167079m23.3497284 13.7639507v18.7522633c0 .537284.5794239.9218107 1.0745679.6531688l16.6716049-8.6281482c.3792593-.1896296.4951441-.6531687.3055144-1.032428-3.4554732-6.0628806-9.8712757-10.2031275-17.2826337-10.4717695-.3845268 0-.7690535.3055144-.7690535.7269136m0 45.1739917c-13.9009054 0-25.1944033-11.2776954-25.1944033-25.1575308 0-13.8798354 11.2934979-25.1522634 25.1944033-25.1522634 13.9061728 0 25.1954568 11.272428 25.1954568 25.1522634 0 13.8798354-11.251358 25.1575308-25.1954568 25.1575308m0-60.892181c-19.7425514 0-35.7557202 15.9920987-35.7557202 35.7346502 0 19.7478189 16.0131688 35.7030452 35.7557202 35.7030452 19.7425514 0 35.7557203-15.9920987 35.7557203-35.7399177 0-19.7478189-15.9762964-35.6977777-35.7557203-35.6977777" fill="#fff"/><path d="M252.011457 100.323272c-24.61498.114884-24.61498-19.8647041-24.61498-23.0462679l-.04214-74.8457613 15.01656-2.38090535V74.4378272c0 1.8067489 0 13.2319341 9.639506 13.2688065v12.6156383l.001054.001zm-60.871111-12.2321115c4.608 0 8.027654-.268642 10.408559-.7269136V72.1043292c-1.188774-.3160969-2.395441-.5605964-3.613498-.7321811-1.728561-.2563344-3.473671-.3848585-5.221135-.3845267-1.653992 0-3.344856.1158848-5.030453.3845267-1.690864.2317696-3.228971.6900412-4.572181 1.3432099-1.34321.6531687-2.459918 1.5749794-3.265844 2.7601646-.842798 1.1904527-1.227325 1.8804939-1.227325 3.6819753 0 3.5239507 1.227325 5.5624692 3.455473 6.9004116 2.228149 1.3432098 5.262223 2.033251 9.066404 2.033251zm-1.306338-54.4500412c4.951441 0 9.138041.6162963 12.51977 1.8436214 3.377514 1.2273251 6.106074 2.9497943 8.101399 5.1358025 2.038518 2.2228807 3.418601 5.1779424 4.262453 8.3226338.884938 3.1446913 1.306337 6.5948971 1.306337 10.3874897v38.5790946c-2.301893.495144-5.80056 1.0693004-10.482304 1.7593417-4.683852.690041-9.945021 1.037695-15.787721 1.037695-3.876872 0-7.44823-.384526-10.635061-1.11144-3.228972-.7269136-5.952264-1.9173662-8.259424-3.5660905-2.265021-1.6487243-4.02963-3.7609877-5.335967-6.3631276-1.269465-2.6126749-1.922634-6.2893827-1.922634-10.1241152 0-3.6819753.726914-6.0207407 2.154403-8.5544033 1.453827-2.5283951 3.413334-4.5985185 5.873251-6.2103704 2.49679-1.6118518 5.335967-2.7601646 8.601811-3.4502057 3.265844-.6900412 6.684444-1.0376955 10.213663-1.0376955 1.653991 0 3.381728.1158848 5.225349.3055144 1.806749.1948971 3.766255.5425514 5.841646 1.0376955v-2.4546502c0-1.7224692-.194897-3.3711935-.616296-4.904033-.405037-1.5105991-1.140934-2.9122214-2.154403-4.1033744-1.037696-1.1904527-2.375638-2.1122634-4.066502-2.7601647-1.690864-.6531687-3.845268-1.1535802-6.415803-1.1535802-3.455473 0-6.605432.4213992-9.486749.9218107-2.881317.495144-5.262222 1.0745679-7.068971 1.7224691l-1.801481-12.3048559c1.880493-.6531688 4.682798-1.3063375 8.296296-1.9542387 3.60823-.6953087 7.49037-1.0008231 11.635885-1.0008231h.001053zm296.570206 54.028642c4.609053 0 8.022387-.268642 10.403292-.7321811V71.68293c-.842798-.2317695-2.033251-.5004115-3.60823-.732181-1.729983-.2562713-3.476489-.3847944-5.22535-.3845268-1.648724 0-3.339589.1158848-5.030453.3845268-1.685596.2317695-3.223703.6900411-4.566913 1.3432098-1.348478.6531688-2.459918 1.5749795-3.265844 2.7601647-.848066 1.1904526-1.227325 1.8804938-1.227325 3.6819753 0 3.5239506 1.227325 5.5624691 3.455473 6.9004115 2.265021 1.3800823 5.262222 2.033251 9.06535 2.033251zm-1.269465-54.4079012c4.95144 0 9.138041.6110288 12.51977 1.8383539 3.37646 1.2273251 6.10502 2.9497942 8.101399 5.1358025 1.996378 2.1860082 3.418601 5.1779423 4.261399 8.3226337.884938 3.1446914 1.306337 6.5948971 1.306337 10.3927572v38.5738272c-2.301893.495144-5.799506 1.0693004-10.482304 1.7646094-4.682799.690041-9.945021 1.032428-15.786667 1.032428-3.876872 0-7.44823-.384527-10.634008-1.111441-3.228971-.7269133-5.952263-1.917366-8.259424-3.5660903-2.265021-1.6487242-4.02963-3.7609876-5.335967-6.3631275-1.269465-2.6074074-1.922634-6.2893827-1.922634-10.1241153 0-3.6819753.732181-6.0207407 2.154403-8.5544032 1.453828-2.5283951 3.413334-4.5985186 5.873252-6.2103704 2.49679-1.6065844 5.335967-2.7601646 8.60181-3.4502058 3.265844-.6900411 6.684445-1.032428 10.21893-1.032428 1.648725 0 3.376461.1158848 5.220083.3055144 1.843621.1896297 3.766255.537284 5.836378 1.0376955v-2.4546502c0-1.7277366-.189629-3.3764609-.611029-4.9093004-.403879-1.5110516-1.139904-2.9129178-2.154403-4.1033745-1.037695-1.1904527-2.375638-2.1122634-4.066502-2.7601646-1.691918-.6531687-3.845267-1.1483128-6.415802-1.1483128-3.455474 0-6.605433.4213992-9.486749.9165433-2.881317.5004115-5.262223 1.0745679-7.068972 1.7277366l-1.801481-12.3101235c1.880494-.6531687 4.682798-1.3010699 8.296296-1.9542387 3.608231-.6531687 7.485103-.9955555 11.635885-.9955555zm-45.089712-7.1321811c5.029399 0 9.144362-4.066502 9.144362-9.0916872 0-5.0199177-4.072823-9.08641978-9.144362-9.08641978-5.067325 0-9.139095 4.06650208-9.139095 9.08641978 0 5.0251852 4.108642 9.0916872 9.139095 9.0916872zm7.564115 74.192593h-15.092411V35.595358l15.091358-2.3756378v67.1025518h.001053zm-26.459654.001c-24.614979.114884-24.614979-19.8647041-24.614979-23.0462679l-.04214-74.8457613L411.509992.05033745V74.4378272c0 1.8067489 0 13.2319341 9.639506 13.2688065v12.6166383zm-48.813827-33.1282432c0-6.4842798-1.422222-11.8887243-4.186601-15.6444444-2.765432-3.7978601-6.642305-5.6730865-11.599012-5.6730865-4.951441 0-8.834634 1.8752264-11.594799 5.6730865-2.765432 3.7925926-4.112856 9.1601646-4.112856 15.6444444 0 6.5580247 1.38535 10.9616461 4.150782 14.7595062 2.765432 3.8347325 6.642305 5.7152263 11.599013 5.7152263 4.95144 0 8.83358-1.9173662 11.599012-5.7152263 2.764378-3.8347325 4.144461-8.2014815 4.144461-14.7595062zm15.36-.0368724c0 5.0620576-.726914 8.8915226-2.227095 13.0739094-1.495967 4.1771194-3.60823 7.7432099-6.331523 10.6982716-2.728559 2.9497943-5.994403 5.2516873-9.835456 6.8635391-3.838947 1.6065845-9.755391 2.5283955-12.710453 2.5283955-2.960329-.036873-8.83358-.879671-12.636708-2.5283955-3.803127-1.6487242-7.068971-3.9137448-9.792263-6.8635391-2.72856-2.9550617-4.83977-6.5211522-6.377877-10.6982716-1.533893-4.1823868-2.301893-8.0118518-2.301893-13.0739094 0-5.0620576.688988-9.9344856 2.227095-14.0747325 1.538107-4.1402469 3.687243-7.6694651 6.452675-10.6192593 2.765432-2.9550617 6.068148-5.2200823 9.829136-6.8266667 3.803127-1.6118518 7.990782-2.3756378 12.520823-2.3756378 4.535308 0 8.717695.8006584 12.557695 2.3756378 3.845268 1.6065844 7.149037 3.871605 9.835457 6.8266667 2.722239 2.9497942 4.835556 6.4790124 6.373663 10.6192593 1.611851 4.1402469 2.417777 9.0126749 2.417777 14.0747325h-.001053zm-113.023473 0c0 6.2841152 1.380082 13.2635391 4.145514 16.1764609 2.765432 2.9181893 6.335737 4.3720164 10.719341 4.3720164 2.380906 0 4.645926-.3423868 6.757136-.9955555 2.112264-.6531687 3.798914-1.4222222 5.147391-2.3387654V47.1416955c-1.074568-.2317696-5.56879-1.1535803-9.913415-1.2641976-5.451852-.1580246-9.597367 2.0701235-12.515556 5.6309465-2.88237 3.5713581-4.340411 9.8186009-4.340411 15.649712zm41.744855 29.5980247c0 10.2399999-2.612674 17.7145679-7.87595 22.4711109-5.256955 4.751276-13.284609 7.132181-24.114568 7.132181-3.955885 0-12.173169-.769053-18.741728-2.22288l2.417777-11.888725c5.493992 1.148313 12.752593 1.459095 16.555721 1.459095 6.026008 0 10.329547-1.227325 12.900082-3.681975 2.575802-2.454651 3.84-6.094486 3.84-10.930041v-2.4546507c-1.495967.7269136-3.455473 1.4590946-5.873251 2.2281481-2.417778.7269136-5.220083 1.1114406-8.375309 1.1114406-4.145514 0-7.911769-.653169-11.325103-1.9595064-3.418601-1.30107-6.37893-3.2184362-8.796708-5.7520988-2.417777-2.528395-4.340411-5.7099588-5.683621-9.5078189-1.34321-3.7978601-2.038518-10.5823868-2.038518-15.5654321 0-4.6775309.732181-10.5455144 2.155456-14.4592593 1.458041-3.9084773 3.529218-7.2849382 6.335737-10.0819753 2.766486-2.797037 6.14716-4.9461728 10.103045-6.5211522 3.955885-1.569712 8.596543-2.5652675 13.626996-2.5652675 4.882963 0 9.376132.6110288 13.753416 1.3432099 4.377284.7269135 8.101399 1.4906996 11.135473 2.3334979v59.5120988h.001053z" fill="#5468ff"/></svg>