<svg width="256px" height="256px" viewBox="0 0 256 256" xmlns="http://www.w3.org/2000/svg" preserveAspectRatio="xMidYMid"><g style="fill:#c9ebec"><path d="M168.360585 123.454439V94.6325854l-10.727024 5.3947316 10.727024 23.43961z"/><path d="M194.95961 103.448976l44.519024-44.506537-71.118049 35.6901464z"/><path d="M168.360585 129.298732l-8.991219 24.188878.024975-.024976 20.380098-20.380097 12.57522 25.038048h62.938536z"/></g><path fill="#00868c" d="M168.360585 94.6325854v28.8218536h86.92761l-60.328585-20.005463-26.599025-8.8163906z"/><path fill="#00b3bb" d="M168.360585 123.454439v.012488 5.831805l86.92761 28.821853v-34.666146z"/><path fill="#c9ebec" d="M131.946146 168.273171h28.659513l-8.816391 26.599024 44.556488 44.568976-41.07239-81.857561z"/><path fill="#00868c" d="M159.394341 153.462634l61.452488 61.464976-28.49717-56.807025-12.57522-25.038048z"/><path fill="#00b3bb" d="M159.394341 153.462634l-.024975.024976-4.096 4.096 41.07239 81.857561 24.501073-24.513561z"/><path fill="#c9ebec" d="M101.750634 159.269463l.024976.037464 20.380097 20.380097-25.0380485 12.562732v62.938537L125.952 168.273171z"/><path fill="#00868c" d="M131.946146 168.273171h-.162341v86.915122l20.005463-60.316098 8.816391-26.599024z"/><path fill="#00b3bb" d="M131.783805 168.273171H125.952l-28.8343415 86.915122h34.6661465z"/><g style="fill:#c9ebec"><path d="M60.3160976 151.739317 15.809561 196.258341l71.105561-35.690146z"/><path d="M86.915122 131.733854v28.834341l10.7395121-5.394732-10.7395121-23.439609z"/></g><path fill="#00868c" d="M101.77561 159.306927l-61.4649759 61.452488 56.8070244-28.509659 25.0380485-12.562732z"/><path fill="#00b3bb" d="M101.77561 159.306927l-.024976-.037464-4.0959999-4.096-10.7395121 5.394732h0 0l-71.105561 35.690146 24.5010731 24.501074z"/><path fill="#c9ebec" d="M95.9188293 101.700683l-.0249756.037463-20.3925854 20.380098-12.5627317-25.0380489H0l86.915122 28.8218539z"/><path fill="#00868c" d="M86.915122 160.568195h0v-28.834341H0l60.3160976 20.005463 26.5990244 8.828878z"/><path fill="#00b3bb" d="M86.915122 131.733854h0v-5.831805L0 97.0801951v34.6536589z"/><path fill="#c9ebec" d="M123.342049 86.9276098H94.6700488l8.8288782-26.5990244-44.556488-44.5689756 41.07239 81.8450731z"/><path fill="#00868c" d="M95.8938537 101.738146 34.428878 40.2731707l28.5096586 56.8070244 12.5627317 25.0380489z"/><path fill="#00b3bb" d="M95.8938537 101.738146l.0249756-.037463 4.0959997-4.0960001-41.07239-81.8450731-24.513561 24.5135609z"/><path fill="#c9ebec" d="M153.537561 95.9188293l-.037463-.0249756L133.12 75.5137561l25.038049-12.5627317V.0124878049L129.336195 86.9276098z"/><path fill="#00868c" d="M123.342049 86.9276098h.162341V.0124878049L103.498927 60.3285854l-8.8288782 26.5990244z"/><path fill="#00b3bb" d="M123.50439 86.9276098h5.831805L158.158049.0124878049H123.50439z"/><path fill="#00868c" d="M153.500098 95.8938537l61.464975-61.4524878-56.807024 28.5096585L133.12 75.5137561z"/><path fill="#00b3bb" d="M153.500098 95.8938537l.037463.0249756 4.096 4.1084877 10.727024-5.3947316h0l71.118049-35.6901464-24.513561-24.5010731z"/></svg>