<svg width="512px" height="123px" viewBox="0 0 512 123" xmlns="http://www.w3.org/2000/svg" preserveAspectRatio="xMidYMid"><title>AMD</title><path d="M120.414543 114.001718H91.868308l-8.6847981-20.960779H35.8385342l-7.9152591 20.960779H0L42.6544518 8.17177212h30.5616948L120.414543 114.001718zM58.5216147 33.3833381 42.8376754 74.6086459h32.5771543l-16.893215-41.2253078zM223.386201 8.17177212h22.976238V114.001718h-26.384197V48.0412253l-28.546235 33.2001145h-4.030919l-28.546235-33.3466934v65.9604926h-26.384197V8.17177212h22.976238l33.969653 39.35642718 33.969654-39.35642718zm89.816204 0c38.623533 0 58.631549 24.03893498 58.631549 53.06155168 0 30.4151159-19.238477 52.7683942-61.453192 52.7683942h-43.900373V8.17177212h46.722016zM292.864586 94.6166619h17.223018c26.530776 0 34.446035-17.9925565 34.446035-33.529917 0-18.322359-9.78414-33.529917-34.739193-33.529917h-16.92986v67.059834z"/><path d="M424.125966 39.9427426v47.9312912h47.931291l-34.226166 34.2628112H389.8998V74.1689092l34.226166-34.2261666zM512 0v121.110793l-33.273404-33.2734039V33.273404h-54.563985L390.925852 0H512z"/></svg>