<svg width="256px" height="256px" viewBox="0 0 256 256" xmlns="http://www.w3.org/2000/svg" preserveAspectRatio="xMidYMid"><title>AMEX</title><path d="M256 138.547884V0H0v256h256v-74.690423c-.570156 0 0-42.761693 0-42.761693" fill="#006fcf"/><path d="M224.641425 124.293987h19.385301V79.2516704h-21.095768v6.2717149l-3.991092-6.2717149h-18.244988v7.9821826l-3.420936-7.9821826h-33.639198c-1.140312 0-2.280624.5701559-3.420936.5701559-1.140311 0-1.710467.5701559-2.850779 1.1403118-1.140312.5701559-1.710468.5701559-2.85078 1.1403118v-2.8507795H58.155902l-2.8507795 7.4120267-2.8507795-7.4120267H29.6481069v7.9821826l-3.4209354-7.9821826H7.98218263L0 98.636971v25.657016h13.1135857l2.2806237-6.271715h4.5612472l2.2806236 6.271715H122.583519v-5.701559l3.991091 5.701559h27.937639v-3.420936c.570156.570156 1.710468.570156 2.280624 1.140312.570156.570156 1.710468.570156 2.280624 1.140312 1.140311.570156 2.280623.570156 3.420935.570156h20.525613l2.280623-6.271715h4.561247l2.280624 6.271715h27.937639v-5.701559l4.561247 6.271715h0zM256 181.309577V139.11804H99.2071269l-3.9910913 5.701559-3.9910913-5.701559H45.6124722v45.042316h45.6124721l3.9910913-5.701559 3.9910913 5.701559h28.5077951v-9.69265h-1.140312c3.991092 0 7.412027-.570156 10.262806-1.710468v11.973274h20.525613v-5.701559l3.991091 5.701559h84.95323c3.420935-1.140312 6.84187-1.710467 9.69265-3.420935h0z" fill="#fff"/><path d="M246.30735 170.476615h-15.39421v6.271715h14.824054c6.271715 0 10.262806-3.991092 10.262806-9.692651 0-5.701559-3.420935-8.552338-9.122494-8.552338h-6.841871c-1.710468 0-2.85078-1.140312-2.85078-2.85078 0-1.710467 1.140312-2.850779 2.85078-2.850779h13.113585L256 146.530067h-15.394209c-6.271715 0-10.262807 3.991091-10.262807 9.122494 0 5.701559 3.420936 8.552339 9.122495 8.552339h6.841871c1.710467 0 2.850779 1.140312 2.850779 2.850779.570156 2.280624-.570156 3.420936-2.850779 3.420936h0zm-27.93764 0h-15.394209v6.271715h14.824054c6.271714 0 10.262806-3.991092 10.262806-9.692651 0-5.701559-3.420936-8.552338-9.122495-8.552338h-6.84187c-1.710468 0-2.85078-1.140312-2.85078-2.85078 0-1.710467 1.140312-2.850779 2.85078-2.850779h13.113585l2.85078-6.271715h-15.39421c-6.271714 0-10.262806 3.991091-10.262806 9.122494 0 5.701559 3.420936 8.552339 9.122495 8.552339h6.84187c1.710468 0 2.85078 1.140312 2.85078 2.850779.570156 2.280624-1.140312 3.420936-2.85078 3.420936h0zm-19.955456-18.244989v-6.271715h-23.946548v30.218263h23.946548v-6.271715h-17.104677v-6.271715h16.534521v-6.271715h-16.534521v-5.701559h17.104677v.570156h0zm-38.770601 0c2.850779 0 3.991091 1.710468 3.991091 3.420935 0 1.710468-1.140312 3.420936-3.991091 3.420936h-8.552339v-7.412027l8.552339.570156h0zm-8.552339 13.113586h3.420935l9.122495 10.832962h8.552338l-10.262806-11.403118c5.131403-1.140312 7.982183-4.561248 7.982183-9.122495 0-5.701559-3.991092-9.69265-10.262806-9.69265h-15.964366v30.218263h6.841871l.570156-10.832962zm-18.244989-9.122495c0 2.280624-1.140312 3.991091-3.991091 3.991091h-9.122495v-7.982182h8.552339c2.850779 0 4.561247 1.710468 4.561247 3.991091h0zm-19.955456-10.262806v30.218263h6.84187v-10.262807h9.122495c6.271715 0 10.832962-3.991091 10.832962-10.262806 0-5.701559-3.991091-10.262806-10.262806-10.262806l-16.534521.570156h0zm-10.262807 30.218263h8.552339l-11.9732741-15.39421 11.9732741-14.824053h-8.552339l-7.4120264 9.69265-7.4120267-9.69265h-8.5523385l11.9732739 14.824053-11.9732739 14.824054h8.5523385l7.4120267-9.692651 7.4120264 10.262807h0zm-25.6570152-23.946548v-6.271715H53.0244989v30.218263h23.9465479v-6.271715H59.8663697v-6.271715h16.5345212v-6.271715H59.8663697v-5.701559h17.1046771v.570156h0zM215.518931 98.636971l11.973274 18.244989h8.552338V86.6636971h-6.84187v19.9554569l-1.710468-2.85078-10.832962-17.1046769h-9.122495V116.88196h6.841871V96.3563474l1.140312 2.2806236h0zm-29.648107-.5701559 2.280624-6.2717149 2.280623 6.2717149 2.85078 6.8418709h-10.262806l2.850779-6.8418709h0zm11.973274 18.8151449h7.412027l-13.113586-30.2182629h-9.122494L169.906459 116.88196h7.412027l2.850779-6.271715h14.824053l2.85078 6.271715h0zm-31.928731 0 2.85078-6.271715h-1.710468c-5.131403 0-7.982182-3.420935-7.982182-8.552339v-.570155c0-5.1314036 2.850779-8.552339 7.982182-8.552339h7.412027v-6.2717149h-7.982183c-9.122494 0-14.253897 6.2717149-14.253897 14.8240539v.570155c0 9.122495 5.131403 14.824054 13.683741 14.824054zm-25.657015 0h6.841871V87.233853h-6.841871v29.648107zm-14.824054-23.946548c2.85078 0 3.991092 1.7104677 3.991092 3.4209354 0 1.7104677-1.140312 3.4209355-3.991092 3.4209355h-8.552338v-7.4120268l8.552338.5701559h0zm-8.552338 13.113586h3.420935l9.122495 10.832962h8.552338l-10.262806-11.403118c5.131403-1.140312 7.982183-4.561247 7.982183-9.1224946 0-5.701559-3.991092-9.6926503-10.262807-9.6926503h-15.964365V116.88196h6.841871l.570156-10.832962zm-12.54343-13.113586v-6.2717149H80.3919822V116.88196H104.33853v-6.271715H87.233853v-6.271715h16.534521v-6.2717149H87.233853v-5.701559h17.104677v.5701559h0zM52.454343 116.88196h6.2717149l8.5523385-24.5167039V116.88196h6.8418709V86.6636971H62.7171492L55.8752784 107.18931l-6.8418708-20.5256129H37.6302895V116.88196h6.8418709V92.3652561L52.454343 116.88196zM15.3942094 98.0668151l2.2806236-6.2717149 2.2806236 6.2717149 2.8507795 6.8418709H12.5434298l2.8507796-6.8418709h0zM27.3674833 116.88196H34.77951L21.6659243 86.6636971h-8.5523386L0 116.88196h7.41202673l2.85077947-6.271715h14.8240535l2.2806236 6.271715z" fill="#006fcf"/></svg>