<svg width="256px" height="256px" viewBox="0 0 256 256" xmlns="http://www.w3.org/2000/svg" preserveAspectRatio="xMidYMid"><path d="M127.962816 0c70.948999.558586285 127.79156 55.4725719 128.036511 129.30333.223099 67.677767-55.059861 128.153701-131.254788 126.669262C55.244106 254.617978-1.52329281 198.006026.0311827848 124.08815 1.40287938 58.8018828 54.6684376.674744901 127.962816 0zm-26.959048 147.357453c4.550684 0 9.103077.01025 13.653762-.005124 2.176266-.006833 3.539421.485133 3.032081 3.213152-1.115464 5.999251-2.029359 12.034374-3.009874 18.055832-1.84715 11.350519-3.688036 22.702177-5.522659 34.054973-.175946 1.0813-.741366 2.237762.652538 2.984252 2.37271 1.269203 8.860511-.346768 10.201459-2.586238 17.006988-28.380283 34.005435-56.76569 50.995341-85.156223 3.529172-5.905299 1.677467-9.097953-5.245928-9.149199-7.965976-.05694-15.931951-.05694-23.897927 0-2.473495.013666-4.154379-.312603-3.558212-3.549671 1.776544-9.6292072 3.399348-19.2857463 5.027277-28.9422853 1.273189-7.5594205 2.492855-15.1279515 3.658996-22.705593.174238-1.1308383.862649-2.5298663-.978807-3.2011948-3.932389-1.142147-8.157242.3243592-10.53627 3.6572882-13.082649 21.7877121-26.155048 43.5816877-39.2171983 65.3819269-3.9425601 6.576627-8.002987 13.084926-11.7593516 19.767463-2.8151382 5.00507-.9668497 8.10548 4.5575174 8.165268 3.9818491.042705 7.9654063.008541 11.9489635.017082l-.001708-.001709z" fill="#1d5fe6"/></svg>