<svg width="256px" height="256px" viewBox="0 0 256 256" xmlns="http://www.w3.org/2000/svg" preserveAspectRatio="xMidYMid"><title>Amplitude</title><path d="M128 0c70.682731 0 128 57.3172691 128 128 0 70.682731-57.317269 128-128 128C57.3172691 256 0 198.734137 0 128 0 57.2658635 57.3172691 0 128 0zm-16.91245 39.1196787c-15.7815259.0514056-30.072289 25.4457831-42.3582327 75.4120483-8.6875502-.102811-16.6554217-.257028-24.109237-.359839h0-1.1309237c-.9253012-.051406-1.8506024 0-2.7759036.102811-4.215261.771084-7.2481928 4.472289-7.2481928 8.738956 0 4.369478 3.2385543 8.122088 7.5566265 8.790361h0l.1028113.102811h23.5951807c-2.2104418 9.972691-4.1124498 19.893976-5.7060241 29.404016h0l-.7196787 4.163856v.205622c0 2.00482 1.0281125 3.855422 2.724498 4.93494 2.724498 1.747791 6.3742972.925301 8.1220883-1.799197h0l.1542169.154217 11.5662651-37.063454h55.7236948c4.266667 16.141366 8.68755 32.745382 14.547791 48.372691 3.135743 8.379117 10.435341 27.913253 22.66988 28.016064h0 .154217c18.917269 0 26.319678-30.586345 31.203212-50.84016 1.079518-4.369478 1.953414-8.122089 2.82731-10.897992h0l.359839-1.130924.051651-.16621c.400563-1.444852-.415298-2.988572-1.850848-3.483589-1.490763-.514056-3.187148.257028-3.701205 1.799197h0l-.411245 1.130923c-1.593574 4.472289-3.084337 8.636145-4.420883 12.388755h0l-.102811.308434c-8.2249 23.183936-11.926105 33.773494-19.277109 33.773494h0-.46265c-9.407229 0-18.197591-38.142972-21.538956-52.485141-.565462-2.467469-1.079518-4.780722-1.593575-6.785542h0 60.658635c1.079518 0 2.159036-.257028 3.135743-.771084h0l.047389-.038554c.055422-.038554.132531-.077109.209639-.115663h0l.308434-.205622.154217-.102812c.154217-.102811.308433-.205622.46265-.359839h0l.227071-.188454c1.113893-.968373 1.90305-2.320783 2.240399-3.718373.771084-3.649799-1.64498-7.248193-5.294779-7.967872h0-.308434c-.359839-.051405-.668273-.102811-1.028112-.102811h0l-.925301-.102811c-21.436145-1.542169-43.489157-2.159036-64.205623-2.570281h0l-.051405-.154217c-10.024097-37.7831328-22.618474-76.3887553-39.58233-76.3887553zm-.668273 17.0152611c.873896 0 1.696386.5140562 2.416064 1.4393574 1.747792 2.7759036 4.832129 8.9959839 9.407229 22.7726908 3.135743 9.4586345 6.528514 21.230522 10.126908 34.904418-13.673896-.205623-27.450602-.35984-40.8160643-.514057h0l-6.7855422-.051405c7.6594377-29.9180725 16.9638555-52.587952 23.8008035-57.9341368.565462-.3598393 1.182329-.6168674 1.850602-.6168674z" fill="#10069f"/></svg>