<svg width="256px" height="182px" viewBox="0 0 256 182" xmlns="http://www.w3.org/2000/svg" preserveAspectRatio="xMidYMid"><title>Analog</title><path fill="#c30f2e" d="M152.227752 9.42219147e-4 48.4545618 181.045525H256L152.227752 0z"/><path fill="#dd0330" d="M88.3142006 26.9672542 0 181.520403h176.628401L88.3151429 26.9672542z"/><g style="fill:#fff"><path d="M18.1665505 135.29353H238.402738v-2.418677H18.1665505z"/><path d="M204.380147 170.667263c-.861188 0-1.670554-.358043-2.34801-1.034556-4.044947-4.062849-4.221142-20.585604-4.026102-45.330163.110239-13.520845.257225-32.0420469-1.899514-33.5034288-2.104918.8724949-2.315033 16.1722498-2.451654 26.3011048-.162062 11.785278-.32695 23.979478-2.24154 30.188702-.570042 1.839212-1.305915 3.524842-2.786142 3.389162-2.086073-.183733-2.760702-3.478673-4.317248-16.477528-.647304-5.398916-1.317222-10.97968-2.101149-13.140188-.103644-.272302-.19127-.489954-.268532-.658612-.835748 1.888208-1.799639 7.077951-2.469556 10.680997-.928086 4.975859-1.803408 9.67659-2.900151 11.725917-.847055 1.57539-2.190659 3.629428-4.06756 3.231812-2.558125-.537065-3.323207-5.693831-3.552166-8.719296 0-25.454993-3.330745-28.41733-3.996894-28.75276l-.106471.081031-.162061-.036747c-2.377219 1.038326-2.506303 9.29405-2.627849 17.276531-.095165 5.855892-.197867 12.491941-1.052459 18.701165-1.10805 8.049378-2.447886 9.602156-4.114671 9.506991-3.838601-.261936-3.949783-13.482213-3.949783-14.987879 0-.47111.011307-1.027019.026382-1.641346.073493-3.076346.205404-8.800327-1.686572-10.603735-.249688-.239323-.60302-.515393-.879091-.437189-1.347373.338256-2.745626 4.713922-3.209198 6.152691-.146986.456976-.264764.832922-.364639 1.090147-.077262.213884-.176195.515394-.293972.880033-1.019481 3.09519-2.179353 6.182842-4.158955 6.944155-.733047.283608-1.498129.221422-2.2161-.183733-.953526-.540833-1.729914-1.645114-2.455423-3.481499-.396674-1.015713-.734931-2.0465-1.081668-3.081057-.419287-1.262574-.849881-2.568489-1.38412-3.80845-.419287-.964832-1.464208-1.399195-2.796506-1.16364-2.76824.493722-3.231812 3.290229-3.62189 7.501006-.069725.732105-.136622 1.451018-.228017 2.127531-.011307.197866-.501261 6.378824-.814078 8.343351-.864957 5.389493-2.002215 7.512313-3.890423 7.357789-4.659273-.397617-6.797168-20.835292-6.68316-29.469788.087626-6.591765-1.104281-8.999135-1.818483-9.381676-.073493-.03392-.188444-.096107-.459803.095164-.843286.570985-1.594235 2.34801-1.362449 4.214546 2.565663 20.319898.673687 43.591769-3.960147 48.833334-1.46044 1.648884-3.448522 1.627212-4.832642.235555-4.048716-4.063791-4.217373-20.585604-4.026102-45.330163.110239-13.520845.254399-32.0420469-1.8995141-33.5034288-2.1049175.8724949-2.3112635 16.1722498-2.450712 26.3011048-.1620617 11.785278-.3278922 23.979478-2.2453082 30.188702-.5709848 1.839212-1.3068579 3.524842-2.7823731 3.389162-2.0907843-.184675-2.7607021-3.478673-4.321017-16.477528-.6482468-5.398916-1.3181646-10.97968-2.1011487-13.140188-.0998753-.272302-.1884439-.489954-.2694747-.658612-.8319795 1.888208-1.7958697 7.077951-2.4657875 10.680997-.9271437 4.975859-1.8034075 9.67659-2.9039194 11.725917-.8461128 1.57539-2.1897173 3.629428-4.062849 3.231812-2.558125-.537065-3.3241491-5.693831-3.5521662-8.719296-.0037689-25.454993-3.3307447-28.41733-3.9968936-28.75276l-.1064708.081031-.1658305-.036747c-2.3743923 1.038326-2.5034763 9.293108-2.6287914 17.276531-.0913953 5.855892-.1940972 12.491941-1.04869 18.701165-1.1071075 8.049378-2.4365787 9.617231-4.1109021 9.506991-3.8461386-.261936-3.9573204-13.482213-3.9573204-14.987879 0-.47111.0160177-1.027019.030151-1.641346.0734931-3.076346.206346-8.800327-1.6856301-10.603735-.2506302-.239323-.6030202-.515393-.8800326-.438131-1.3473734.339198-2.7493955 4.714864-3.2054296 6.154575-.1469862.452265-.2723013.83198-.3646388 1.089205-.1064708.289262-.2054038.58135-.2977412.876264-1.0194812 3.09519-2.1793529 6.186611-4.1551865 6.948866-.7358731.282666-1.5056662.22048-2.2198683-.184675-.9525835-.540833-1.7336832-1.645114-2.4544809-3.481499-.3976164-1.015713-.739642-2.0465-1.0826098-3.081057-.4192875-1.262574-.8536505-2.568489-1.3869465-3.80845-.4164609-.964832-1.4651508-1.399195-2.7974487-1.16364-3.1875274.567216-3.9422449 4.519825-4.549034 9.238458l-.1064708.838575-2.4111388-.320354.1140085-.8235c.5267005-4.137284 1.328529-10.390792 6.5295787-11.310398 2.4469431-.434363 4.5857806.581349 5.4469689 2.583565.5775803 1.339835 1.0307877 2.694746 1.4651508 4.0082.3241234.98933.6548423 1.979602 1.0373833 2.958568.6736866 1.708243 1.1966183 2.150144 1.3916576 2.256615 1.2182894-.378772 2.4620187-4.166493 2.8737684-5.413991.1290841-.401386.2402659-.732105.3278923-.967659.0847997-.232729.1950394-.570985.3278923-.979908 1.096743-3.429678 2.4733252-7.143906 4.9174417-7.762002.7471798-.19127 1.9032827-.16583 3.1573763 1.034557 2.6645958 2.543992 2.5251474 8.479972 2.4328099 12.410911-.0141333.588887-.0282666 1.125951-.0282666 1.582928 0 6.27141.9299703 10.654614 1.6404035 12.16028.3674655-.769793.9978101-2.631618 1.5980037-7.008226.8310373-6.065065.9384503-12.623852 1.0270189-18.41002.1611195-10.239095.275128-17.66284 3.9818181-19.40783.5521404-.338257 1.4689197-.521989 2.4365787-.032978 3.5851439 1.803408 5.3254226 11.885153 5.3254226 30.817162.2251904 2.926533 1.0128856 6.006647 1.6601902 6.448548.0037688-.065955.5304693-.390079 1.3944843-2.009753.924317-1.718608 1.8448651-6.665259 2.6542313-11.026791 1.7921009-9.613462 2.6061782-12.988491 4.7261713-13.165628 1.6149636-.158293 2.3621434 1.895745 2.6759024 2.760702.8828593 2.421503 1.5377016 7.887316 2.2302327 13.677253.5408338 4.489674 1.3096846 10.901475 2.0936109 13.496347.0847998-.228017.1809061-.500318.283608-.835748 1.8147141-5.877563 1.9805446-17.887089 2.1388375-29.506535.2204792-16.140214.5040872-26.1390438 3.448522-28.2260592.6548423-.4635718 1.4538442-.5785225 2.2330594-.3165856 3.4485217 1.1447962 3.7142277 11.2548077 3.5191887 35.8005588-.139449 17.79852-.312817 39.951976 3.323207 43.603075.316585.320355.541776.320355.621864.320355.1696 0 .412692-.162062.67086-.452265 3.680308-4.162725 6.009474-26.022209 3.371261-46.927225-.327893-2.602409.676513-5.336729 2.392294-6.514503.945988-.652016 2.035193-.735873 2.977412-.231786 2.145433 1.140085 3.187528 5.023912 3.102728 11.545953-.150755 11.387661 2.583565 24.714409 4.36907 26.841939.282666-.471109.842344-1.762892 1.379409-5.144516.30151-1.870305.799002-8.153022.80654-8.216151.088568-.710433.154524-1.398253.21671-2.09738.368408-3.9234.820673-8.804096 5.6128-9.653977 2.444116-.434363 4.582953.57758 5.447911 2.583565.57758 1.339835 1.027019 2.694746 1.460439 4.0082.331661.98933.663323 1.979602 1.045864 2.958568.668975 1.708243 1.196618 2.150144 1.386946 2.256615 1.21829-.378772 2.46673-4.166493 2.874711-5.410222.13191-.401386.243092-.736816.327892-.972371.088569-.228017.195039-.570042.324123-.978965 1.100512-3.429678 2.477095-7.143906 4.924038-7.762002.739642-.19127 1.899514-.16583 3.154549 1.034557 2.664596 2.543049 2.525148 8.479972 2.436579 12.410911-.018844.527642-.030151 1.055285-.032978 1.582928 0 6.27141.930913 10.654614 1.641346 12.16028.364639-.769793.994041-2.631618 1.600831-7.008226.831979-6.065065.930912-12.623852 1.027018-18.41002.158293-10.239095.272302-17.66284 3.978992-19.40783.551198-.338257 1.467977-.521989 2.440347-.032978 3.580433 1.803408 5.325423 11.884211 5.325423 30.817162.224248 2.926533 1.011943 6.006647 1.656421 6.448548.007538-.065955.525759-.390079 1.398254-2.009753.923374-1.718608 1.840154-6.665259 2.653289-11.026791 1.785505-9.613462 2.602409-12.988491 4.722402-13.165628 1.619675-.158293 2.366855 1.895745 2.679671 2.760702.879091 2.421503 1.534875 7.887316 2.23306 13.677253.534238 4.489674 1.304031 10.901475 2.091726 13.496347.081031-.228017.176195-.500318.279839-.835748 1.813772-5.877563 1.975834-17.887089 2.137896-29.506535.21671-16.140214.504087-26.1390438 3.448522-28.2260592.648246-.4626296 1.48211-.5813492 2.234001-.3165856 3.452291 1.1447962 3.717997 11.2548077 3.519189 35.8005588-.140391 17.79852-.312817 39.951976 3.319438 43.603075.324123.320355.544602.320355.629402.320355.165831 0 .408923-.162062.66238-.452265 3.687846-4.162725 6.014185-26.022209 3.375029-46.927225-.342025-2.723013.430594-5.469582 1.840154-6.52581.710433-.537065 1.575391-.647304 2.370624-.312817 2.054037.876264 3.444753 4.630065 4.255061 11.483767.338257 2.87.640709 5.97367.930913 9.035882.640709 6.68316 1.508493 15.689833 2.68344 17.669436.359928-.459803 1.096743-1.703532 2.189717-5.038046l2.307495.753775c-1.695995 5.156766-3.025466 7.100564-4.75538 6.901756-2.690036-.298684-3.467367-5.734346-4.84018-20.055135-.290203-3.048079-.588887-6.131962-.927144-8.988771-1.030787-8.740967-2.782373-9.532431-2.801217-9.539969-.342026.173369-1.137259 1.991852-.842344 4.310653 2.558125 20.319898.673687 43.59648-3.963916 48.833334-.74718.842344-1.586697 1.269169-2.484632 1.269169"/></g></svg>