<svg width="256px" height="150px" viewBox="0 0 256 150" xmlns="http://www.w3.org/2000/svg" preserveAspectRatio="xMidYMid"><title>Android</title><path d="M255.284991 143.469674c-.083672-.524087-.16354-1.042088-.251014-1.56009-.528651-3.214119-1.186612-6.390587-1.951063-9.523697-1.342545-5.473245-3.031184-10.815278-5.046902-15.988828-1.703852-4.381334-3.643506-8.643627-5.79614-12.775089-2.76876-5.3047613-5.891222-10.3973019-9.340762-15.2403499-4.229205-5.9349586-8.952831-11.4952979-14.110026-16.6190251-2.164045-2.1533954-4.404154-4.2314867-6.716525-6.2224837-5.00887-4.3246661-10.360031-8.2625425-15.996435-11.7824427.049442-.0813894.091278-.1684836.14072-.249873 2.582401-4.4619631 5.172409-8.9182214 7.75481-13.3801845 2.525352-4.3562322 5.050705-8.7124652 7.576057-13.0683179 1.81795-3.126645 3.632096-6.2597555 5.438636-9.3864005.429766-.7427731.768255-1.5102672 1.023072-2.2963973.707403-2.1906672.737829-4.49353.171146-6.63437475-.144523-.53017189-.319472-1.0481734-.532454-1.55362422-.212982-.50583114-.460192-.99873126-.741632-1.4729955-.966024-1.62246289-2.3466-3.03308511-4.080878-4.06300296-1.532707-.910876378-3.247969-1.453979288-5.005066-1.6099121968-.737829-.0623731634-1.479461-.0562879767-2.21729.0186358842-.608519.0623731636-1.213234.1749491166-1.814147.3308820256-2.137421.567823981-4.122714 1.741124037-5.66683 3.438510677-.555273.61156126-1.057301 1.28587601-1.487067 2.02826878-1.814146 3.12664498-3.628293 6.25975546-5.438636 9.38640046l-7.576057 13.0683187c-2.582401 4.4623434-5.172409 8.9182214-7.75481 13.3805641-.28144.4864346-.566683.9732495-.848123 1.46653-.391734-.1563133-.779664-.3122462-1.171398-.4620939-14.239337-5.4295071-29.688105-8.3998388-45.836669-8.3998388-.441176 0-.878549 0-1.323528.0060852-14.357237.1433822-28.1515948 2.63983-41.0217646 7.1208086-1.4870675.5180015-2.9589221 1.0671896-4.4193669 1.6414791-.2624236-.4556283-.5324538-.9112567-.7910742-1.366885-2.5824011-4.4623427-5.1724087-8.9182207-7.7548098-13.3805641-2.5253525-4.3558527-5.0507049-8.7120857-7.5760574-13.0683187-1.8179495-3.126645-3.6320958-6.25937517-5.4386356-9.38602015-.4335695-.74277309-.9317942-1.41670752-1.4870675-2.02826878C56.6530879 2.13931291 54.6677958.96601285 52.5303739.398188869c-.6009121-.155932908-1.2056276-.268128537-1.8179495-.3305017008-.7340256-.07492386089-1.4756577-.0813893717-2.2134866-.0190162084C46.7418401.198518682 45.0265781.741621592 43.4900685 1.65896348c-1.7342782 1.02953752-3.1034452 2.44015974-4.0770751 4.06262264-.2814399.47426424-.5324538.96754468-.7416321 1.4729955-.2129815.50545082-.3955371 1.02345233-.5324538 1.55400454-.566683 2.14046444-.5362571 4.44332724.1673426 6.63399444.2586204.7865104.5933057 1.5540046 1.023072 2.2967777 1.8179495 3.1266449 3.6320958 6.2593751 5.4386356 9.3860201 2.5291557 4.356233 5.0545082 8.712466 7.5798606 13.0683179 2.5824011 4.4623435 5.1686055 8.9182214 7.7510066 13.3805648.0190162.0372718.0456389.0749239.0646551.1121957-5.2104411 3.2392209-10.166065 6.8275794-14.8440523 10.7529051-2.8029891 2.3530657-5.5032907 4.8179466-8.089495 7.3954035-5.1533925 5.1237272-9.8732154 10.6844468-14.1100266 16.6194054-3.4533434 4.843048-6.5796081 9.929123-9.3407615 15.2403502-2.1526348 4.131461-4.09228807 8.393754-5.79614034 12.775089-2.01571808 5.173549-3.70435738 10.515582-5.04690169 15.988828-.76445158 3.13311-1.4148059 6.303492-1.951062978 9.523697-.087474558.518002-.167342633 1.042088-.247210708 1.56009C.448782517 145.348475.20537505 147.226897 0 149.117868h256c-.205375-1.890971-.448783-3.769393-.734026-5.635643l.019017-.012551z" fill="#34a853"/><g style="fill:#202124"><path d="M194.589057 113.71197c5.122966-3.409986 5.868402-11.299431 1.662016-17.6207987-4.202582-6.3217483-11.763426-8.6816597-16.882589-5.2716733-5.122967 3.4103668-5.868402 11.299431-1.662017 17.620799 4.202582 6.321748 11.763426 8.68204 16.88259 5.271673z"/><path d="M78.5179243 108.462356c4.2063852-6.321748 3.4609499-14.2108127-1.6620166-17.6207992-5.1229666-3.4103668-12.6800078-1.050075-16.8863931 5.271293-4.202582 6.3217482-3.4571466 14.2108122 1.6620167 17.6207992 5.1229665 3.410367 12.6838109 1.050075 16.886393-5.271293z"/></g></svg>