<svg width="256px" height="369px" viewBox="0 0 256 369" xmlns="http://www.w3.org/2000/svg" preserveAspectRatio="xMidYMid"><path d="M214.899083 157.357798c15.266055 2.348624 25.834862 9.394496 31.706422 18.788991C252.477064 185.541284 256 201.981651 256 223.119266c0 42.275229-12.917431 77.504587-38.752294 104.513762-25.834862 27.009174-58.715596 41.100917-98.642201 41.100917-15.266055 0-30.5321105-2.348624-45.7981656-8.220184-15.266055-5.871559-27.0091743-14.091743-37.5779816-23.486238-11.7431193-10.568807-21.1376147-23.486239-27.00917431-35.229358C3.52293578 288.880734 0 275.963303 0 263.045872c0-14.091744 3.52293578-25.834863 9.39449541-34.055046 5.87155959-8.220184 16.44036699-12.917432 29.35779819-16.440367-2.3486239-5.87156-4.6972477-10.568808-5.8715597-15.266055-1.1743119-3.522936-2.3486238-7.045872-2.3486238-9.394496 0-7.045871 3.5229358-15.266055 11.7431193-23.486238 8.2201834-8.220184 15.266055-11.74312 22.3119266-11.74312 3.5229357 0 5.8715596 0 9.3944954 1.174312 3.5229358 1.174312 7.0458715 2.348624 11.7431192 5.87156-10.5688073-35.229358-21.1376146-64.5871559-27.0091743-84.5504587-5.8715596-19.9633027-8.2201835-32.8807339-8.2201835-41.1009174 0-10.5688074 2.3486239-18.7889909 8.2201835-24.66055049C63.412844 3.52293578 71.6330275 0 81.0275229 0 96.293578 0 116.256881 35.2293578 140.917431 106.862385c4.697248 11.74312 7.045872 21.137615 9.394496 28.183487 2.348623-4.697248 4.697247-12.917432 8.220183-22.311927C183.192661 42.2752294 204.330275 7.04587156 220.770642 7.04587156c8.220184 0 15.266055 2.34862385 21.137615 8.22018344 4.697248 5.8715597 8.220183 14.0917432 8.220183 23.4862386 0 7.0458715-2.348623 21.1376147-8.220183 41.1009174-7.045872 19.9633028-15.266055 45.798165-27.009174 77.504587h0zM34.0550459 260.697248c2.3486238 2.348624 5.8715596 7.045871 9.3944954 12.917431 10.5688073 15.266055 21.1376147 23.486238 30.5321101 23.486238 3.5229358 0 5.8715596-1.174311 8.2201835-3.522935 2.3486238-2.348624 3.5229357-4.697248 3.5229357-5.87156 0-2.348624-1.1743119-7.045872-4.6972477-12.917431-3.5229357-5.87156-8.2201835-12.917431-14.0917431-19.963303-7.0458715-8.220183-12.9174312-15.266055-16.440367-18.788991-4.6972477-3.522936-8.2201834-5.871559-10.5688073-5.871559-5.8715596 0-11.7431193 3.522935-16.440367 9.394495-4.6972477 5.87156-7.0458715 14.091743-7.0458715 22.311927 0 7.045871 1.1743119 14.091743 4.6972477 23.486238 3.5229358 8.220184 8.2201835 17.614679 15.266055 25.834863 10.5688074 11.743119 22.3119266 22.311926 37.5779817 29.357798 15.266055 7.045871 30.5321096 10.568807 49.3211006 10.568807 32.880734 0 59.889909-11.743119 82.201835-36.40367 22.311927-24.66055 32.880734-55.19266 32.880734-92.770642 0-11.743119-1.174312-19.963303-2.348624-27.009174-1.174312-7.045872-4.697247-11.743119-8.220183-14.091743-7.045872-5.87156-19.963303-10.568808-39.926606-15.266055-19.963302-4.697248-41.100917-7.045872-62.238532-7.045872-5.871559 0-10.568807 1.174312-12.917431 3.522936-2.348624 2.348624-3.522936 5.87156-3.522936 10.568807 0 11.743119 5.87156 19.963303 18.788991 24.660551 12.917431 4.697247 34.055046 8.220183 62.238532 8.220183h10.568807c2.348624 0 4.697248 1.174312 5.87156 2.348624 1.174312 2.348624 2.348624 4.697248 2.348624 8.220183-2.348624 2.348624-8.220184 5.87156-17.614679 9.394496-9.394495 3.522936-15.266055 7.045871-19.963303 10.568807-10.568807 7.045872-18.788991 16.440367-24.66055 27.009175-5.87156 10.568807-9.394496 19.963302-9.394496 29.357798 0 5.871559 1.174312 11.743119 3.522936 19.963302 2.348624 8.220184 3.522936 12.917432 3.522936 14.091744v2.348623 2.348624c-7.045872 0-12.917431-4.697247-17.614679-12.917431-4.697248-8.220183-5.87156-18.788991-5.87156-32.880734v-2.348624c-1.174311 1.174312-2.348623 2.348624-3.522935 2.348624-1.174312 0-2.348624 1.174312-4.697248 1.174312h-4.697248c-1.174312 0-2.348624-1.174312-4.697247-1.174312 0 2.348624 1.174311 3.522936 1.174311 5.87156v4.697248c0 5.871559-2.348623 11.743119-7.0458711 16.440366-4.6972477 4.697248-10.5688073 7.045872-17.6146789 7.045872-10.5688073 0-21.1376147-4.697248-32.8807339-15.266055-10.5688074-10.568807-16.440367-19.963303-16.440367-30.53211 0-2.348624 0-3.522936 1.1743119-4.697248 0-5.871559 1.1743119-7.045871 2.3486239-8.220183h0zm76.3302751 5.871559c2.348624 0 5.87156-1.174312 8.220184-3.522935 2.348623-2.348624 3.522935-5.87156 3.522935-8.220184 0-3.522936-2.348623-10.568807-7.045871-22.311927-4.697248-11.743119-10.568808-23.486238-17.6146791-34.055045-4.6972477-8.220184-10.5688073-15.266055-15.266055-18.788991-4.6972477-4.697248-9.3944955-5.87156-14.0917432-5.87156-3.5229357 0-7.0458715 2.348624-11.7431192 7.045872-4.6972477 4.697247-5.8715597 8.220183-5.8715597 12.917431 0 3.522936 2.3486239 10.568807 5.8715597 18.788991 4.6972477 8.220183 9.3944954 16.440367 16.4403669 25.834862C79.853211 247.779817 86.8990826 256 93.9449541 261.87156c7.0458719 2.348623 11.7431189 4.697247 16.4403669 4.697247h0zm24.660551-122.12844-28.183487-78.6788991C99.8165138 45.7981651 95.1192661 31.706422 90.4220183 25.8348624c-3.5229357-5.8715596-7.0458715-9.3944954-11.7431192-9.3944954-3.5229358 0-5.8715597 1.1743119-8.2201835 3.5229358-3.5229358 3.5229357-4.6972477 7.0458715-4.6972477 11.7431192 0 8.2201835 3.5229358 21.1376147 9.3944954 39.9266055 5.8715596 18.7889908 15.266055 44.6238535 27.0091747 75.1559635 1.174312-2.348624 2.348623-3.522936 4.697247-3.522936 2.348624-1.174312 4.697248-1.174312 7.045872-1.174312h5.87156c3.522935 1.174312 8.220183 1.174312 15.266055 2.348624h0zm28.183486 76.330275c-7.045872 0-14.091743-1.174312-21.137615-2.348624-7.045871-1.174312-12.917431-2.348624-18.788991-4.697247 2.348624 5.871559 4.697248 10.568807 7.045872 16.440367 2.348624 5.871559 3.522936 10.568807 4.697248 16.440367 3.522935-4.697248 8.220183-9.394496 12.917431-14.091744 5.871559-4.697247 10.568807-8.220183 15.266055-11.743119h0zm34.055046-68.110092c11.743119-30.53211 19.963302-56.366972 27.009174-76.3302748 5.87156-19.9633027 9.394495-31.706422 9.394495-36.4036697 0-4.6972477-1.174312-8.2201835-3.522935-11.7431193-2.348624-2.3486238-4.697248-3.5229357-8.220184-3.5229357-4.697248 0-9.394495 3.5229357-14.091743 11.7431192-4.697248 8.2201835-10.568807 19.9633028-16.440367 37.5779817l-25.834862 72.8073396 31.706422 5.871559h0z"/></svg>