<svg width="256px" height="271px" viewBox="0 0 256 271" xmlns="http://www.w3.org/2000/svg" preserveAspectRatio="xMidYMid"><title>Angular</title><defs><linearGradient x1="25.0714876%" y1="90.9292007%" x2="96.1321855%" y2="55.1837089%" id="a"><stop stop-color="#e40035"/><stop stop-color="#f60a48" offset=".24"/><stop stop-color="#f20755" offset=".35200000000000004"/><stop stop-color="#dc087d" offset=".494"/><stop stop-color="#9717e7" offset=".745"/><stop stop-color="#6c00f5" offset="1"/></linearGradient><linearGradient x1="21.8628652%" y1="12.0575311%" x2="68.3669921%" y2="68.2103006%" id="b"><stop stop-color="#ff31d9"/><stop stop-color="#ff5be1" stop-opacity="0" offset="1"/></linearGradient></defs><path d="M256 45.1787083l-9.243929 145.1581567L158.373321 0 256 45.1787083zM194.783035 232.875768l-66.782459 38.105414-66.7836107-38.105414 13.5828924-32.918024H181.200142l13.582893 32.918024zM128.000576 72.2488146l34.994133 85.0766534H93.005291l34.995285-85.0766534zM9.14940313 190.336865 0 45.1787083 97.626679 0 9.14940313 190.336865z" fill="url(#a)"/><path d="M256 45.1787083l-9.243929 145.1581567L158.373321 0 256 45.1787083zM194.783035 232.875768l-66.782459 38.105414-66.7836107-38.105414 13.5828924-32.918024H181.200142l13.582893 32.918024zM128.000576 72.2488146l34.994133 85.0766534H93.005291l34.995285-85.0766534zM9.14940313 190.336865 0 45.1787083 97.626679 0 9.14940313 190.336865z" fill="url(#b)"/></svg>