<svg width="256" height="271" xmlns="http://www.w3.org/2000/svg" preserveAspectRatio="xMidYMid"><defs><linearGradient x1="25.071%" y1="90.929%" x2="96.132%" y2="55.184%" id="a"><stop stop-color="#E40035" offset="0%"/><stop stop-color="#F60A48" offset="24%"/><stop stop-color="#F20755" offset="35.2%"/><stop stop-color="#DC087D" offset="49.4%"/><stop stop-color="#9717E7" offset="74.5%"/><stop stop-color="#6C00F5" offset="100%"/></linearGradient><linearGradient x1="21.863%" y1="12.058%" x2="68.367%" y2="68.21%" id="b"><stop stop-color="#FF31D9" offset="0%"/><stop stop-color="#FF5BE1" stop-opacity="0" offset="100%"/></linearGradient></defs><path d="M256 45.179l-9.244 145.158L158.373 0 256 45.179zm-61.217 187.697l-66.782 38.105-66.784-38.105L74.8 199.958h106.4l13.583 32.918zM128.001 72.249l34.994 85.076h-69.99l34.996-85.076zM9.149 190.337L0 45.179 97.627 0 9.149 190.337z" fill="url(#a)"/><path d="M256 45.179l-9.244 145.158L158.373 0 256 45.179zm-61.217 187.697l-66.782 38.105-66.784-38.105L74.8 199.958h106.4l13.583 32.918zM128.001 72.249l34.994 85.076h-69.99l34.996-85.076zM9.149 190.337L0 45.179 97.627 0 9.149 190.337z" fill="url(#b)"/></svg>