<svg width="256px" height="315px" viewBox="0 0 256 315" xmlns="http://www.w3.org/2000/svg" preserveAspectRatio="xMidYMid"><g style="fill:#1a1918"><g transform="translate(0 281.859985)"><path d="M67.516834 32.0035248c-.5415235 0-1.1261669-.1368509-1.5321153-.6858322L48.6011921 8.45648614V31.775177h-3.9643096V3.06093065c0-1.1425279.9459181-2.05710236 2.0277997-2.05710236.6297057 0 1.1708407.18259938 1.5748468.73158069L65.5791587 24.5512613V1.323673h3.9639211v28.6681035c0 1.1890651-.945918 2.0117483-2.0262458 2.0117483"/><path d="M100.306277 32.277976c-3.9627553 0-8.1069253-.8234719-11.9803334-2.2858446l.9463065-3.2927046c3.5579727 1.1433166 7.4309924 1.9663942 11.0340269 1.9663942 4.999576 0 7.61163-1.7834005 7.61163-4.2975929 0-2.2866333-2.027411-3.4295556-9.0081698-6.7218659-6.9807587-3.2919159-9.7272231-5.3947667-9.7272231-9.51054898 0-5.16563012 3.9627557-7.270058462 11.4384219-7.270058462 3.108127 0 7.881615.640872572 10.630021 1.463950152l-.630871 3.38301841c-3.018391-.7311863-6.80051-1.23402478-9.908637-1.23402478-5.2683947 0-7.4306041 1.00528257-7.4306041 3.52065812 0 2.46844394 1.5756237 3.52026374 8.9619421 6.94981934 7.791879 3.612155 9.773451 5.441304 9.773451 9.1899155 0 5.4416983-5.13515 8.1388845-11.709961 8.1388845"/><path d="M130.798131 1.323673h4.09833v30.4511096h-4.09833V1.323673z"/><path d="M169.757834 17.9669168h-10.179787v10.3340209h10.179787c3.46746 0 5.584219-2.1951364 5.584219-5.2590989 0-2.8805743-2.206495-5.074922-5.584219-5.074922m-1.982737-13.16845243h-8.19705v9.73929123h8.19705c3.288376 0 5.67512-2.1036396 5.67512-5.02956799 0-2.88057432-2.072085-4.70972324-5.67512-4.70972324m2.027411 26.97659433h-12.24993c-1.171618 0-2.072474-.9149689-2.072474-2.0574968V3.38144581c0-1.09796261.900856-2.05749674 2.072474-2.05749674h10.133171c6.21509 0 9.907861 3.0631737 9.907861 7.86439383 0 2.6056893-1.531339 5.0291736-3.873797 6.4465865 3.469402 1.0518198 5.809918 3.9319997 5.809918 7.4069094 0 4.8465742-4.007429 8.7332199-9.727223 8.7332199"/><path d="M199.212246 31.7750981c-1.124224 0-2.025468-.9603229-2.025468-2.0574968V1.32398851h4.097553V28.0718406h16.303976v3.7032575h-18.376061z"/><path d="M245.526181 32.277976c-8.377298 0-13.421547-3.1089221-13.421547-9.3729093 0-2.9720712 1.666913-5.806897 4.909839-7.1328131-2.612443-1.6461551-3.963144-3.9781425-3.963144-6.53847777 0-5.66925737 4.369869-8.368021072 12.565754-8.368021072 2.74763 0 6.620261.320633482 9.863575 1.052608552l-.451011 3.38301842c-3.422009-.54898131-6.621038-.86803725-9.728388-.86803725-5.314622 0-8.152376 1.46237261-8.152376 4.98342512 0 2.7894718 2.612831 4.9838195 6.081456 4.9838195h7.025044c.990981 0 1.756261.7773291 1.756261 1.7372577 0 1.0056769-.76528 1.7830061-1.756261 1.7830061h-7.565013c-3.964698 0-6.485463 1.9656054-6.485463 4.9842138 0 4.4348382 4.098331 5.7607543 9.232315 5.7607543 2.792692 0 6.574422-.3648044 9.636711-1.0967795l.586974 3.33727c-2.928267.823472-6.757002 1.3716645-10.134726 1.3716645"/><path d="M14.1379982 7.03469555l7.1777117 17.98426475-10.8405706-8.6693298 3.6628589-9.31493495zM26.8894398 29.1623494 15.8495854 2.18772698c-.315047-.77732913-.945918-1.18906511-1.7115872-1.18906511-.7656692 0-1.441214.41173598-1.756261 1.18906511L.263885888 31.7751375H4.40844431l4.79757208-12.1982699L23.5202622 31.3176531c.5757087.4720766.9909803.6858323 1.5321153.6858323 1.0803278 0 2.0262459-.8226832 2.0262459-2.011354 0-.1928533-.0679818-.4996834-.1891836-.829782h0z"/></g><path d="M255.878566 127.868028c0 70.455143-57.110072 127.564712-127.566219 127.564712-70.4501205 0-127.566219675-57.109569-127.566219675-127.564712C.746127325 57.4179077 57.8622265.301808544 128.312347.301808544c70.456147 0 127.566219 57.116099156 127.566219 127.566219456"/></g><path d="M130.459863 78.228885l33.011597 81.476253-49.863453-39.277803 16.851856-42.19845zm58.644479 100.245238L138.32577 56.2720498c-1.449524-3.5243644-4.348072-5.3892589-7.865907-5.3892589-3.524364 0-6.633861 1.8648945-8.083386 5.3892589L66.6436045 190.312411H85.708924l22.06231-55.265268 65.838863 53.189927c2.647919 2.141138 4.55852 3.109496 7.0422 3.109496 4.973889 0 9.321459-3.728784 9.321459-9.111011 0-.875943-.309393-2.266201-.869414-3.761432h0z" fill="#fff"/></svg>