<svg width="256px" height="256px" viewBox="0 0 256 256" xmlns="http://www.w3.org/2000/svg"><title>Group</title><defs><linearGradient x1="62.1023273%" y1="0%" x2="108.19718%" y2="37.8635764%" id="a"><stop stop-color="#4285eb" offset="0%"/><stop stop-color="#2ec7ff" offset="100%"/></linearGradient><linearGradient x1="69.644116%" y1="0%" x2="54.0428975%" y2="108.456714%" id="b"><stop stop-color="#29cdff" offset="0%"/><stop stop-color="#148eff" offset="37.8600687%"/><stop stop-color="#0a60ff" offset="100%"/></linearGradient><linearGradient x1="69.6908165%" y1="-12.9743587%" x2="16.7228981%" y2="117.391248%" id="c"><stop stop-color="#fa816e" offset="0%"/><stop stop-color="#f74a5c" offset="41.472606%"/><stop stop-color="#f51d2c" offset="100%"/></linearGradient><linearGradient x1="68.1279872%" y1="-35.6905737%" x2="30.4400914%" y2="114.942679%" id="d"><stop stop-color="#fa8e7d" offset="0%"/><stop stop-color="#f74a5c" offset="51.2635191%"/><stop stop-color="#f51d2c" offset="100%"/></linearGradient></defs><g fill="none"><path d="M116.850078 4.54548777 4.52892893 116.774275c-6.03857191 6.033606-6.03857191 15.778899 0 21.812506L116.850078 250.815568c6.038572 6.033607 15.791886 6.033607 21.830458 0l47.094654-47.055927c5.407982-5.403535 5.407982-14.164396 0-19.56793-5.407982-5.403536-14.176054-5.403536-19.584036 0l-35.702079 35.672721c-1.502991 1.501755-3.784086 1.501755-5.287077 0l-89.6964602-89.622703c-1.5029909-1.501755-1.5029909-3.780974 0-5.282729l89.6964602-89.6227024c1.502991-1.5017551 3.784086-1.5017551 5.287077 0l35.702079 35.6727214c5.407982 5.4035349 14.176054 5.4035349 19.584036 0 5.407982-5.403535 5.407982-14.1643962 0-19.5679311L138.685727 4.39028013c-6.063366-5.90303668-15.820247-5.85524816-21.835649.15520764z" fill="url(#a)"/><path d="M116.850078 4.54548777 4.52892893 116.774275c-6.03857191 6.033606-6.03857191 15.778899 0 21.812506L116.850078 250.815568c6.038572 6.033607 15.791886 6.033607 21.830458 0l47.094654-47.055927c5.407982-5.403535 5.407982-14.164396 0-19.56793-5.407982-5.403536-14.176054-5.403536-19.584036 0l-35.702079 35.672721c-1.502991 1.501755-3.784086 1.501755-5.287077 0l-89.6964602-89.622703c-1.5029909-1.501755-1.5029909-3.780974 0-5.282729l89.6964602-89.6227024c3.742399-3.2262971 9.848527-9.7610839 18.815407-11.2894545 6.664025-1.1358578 13.949616 1.364145 21.856772 7.5000089-5.28643-5.2820901-14.349247-14.3342807-27.18845-27.15657187-6.063366-5.90303668-15.820247-5.85524816-21.835649.15520764z" fill="url(#b)"/><path d="M196.646643 173.754365c5.407982 5.403534 14.176053 5.403534 19.584034 0l34.739327-34.710761c6.038572-6.033606 6.038572-15.7789 7.07e-4-21.811803l-35.042164-34.889186c-5.420784-5.397121-14.191639-5.389338-19.602822.0173949-5.407982 5.403535-5.407982 14.1643961 0 19.5679311l23.667671 23.648209c1.502991 1.501755 1.502991 3.780974 0 5.282729l-23.346753 23.327554c-5.407983 5.403535-5.407983 14.164396 0 19.567932z" fill="url(#c)"/><ellipse fill="url(#d)" cx="128.326913" cy="128.241672" rx="30.3267102" ry="30.3017724"/></g></svg>