<svg width="256px" height="259px" viewBox="0 0 256 259" xmlns="http://www.w3.org/2000/svg" preserveAspectRatio="xMidYMid"><title>Flink</title><defs><linearGradient x1="86.6795111%" y1="345.177731%" x2="34.3781019%" y2="-88.8457266%" id="a"><stop stop-color="#faa100" offset="38.36%"/><stop stop-color="#bf73f2" offset="65.84%"/><stop stop-color="#c370e6" offset="66.49%"/><stop stop-color="#cc68c7" offset="68.52%"/><stop stop-color="#d461ab" offset="70.81%"/><stop stop-color="#db5b95" offset="73.41%"/><stop stop-color="#e05784" offset="76.43%"/><stop stop-color="#e35479" offset="80.17%"/><stop stop-color="#e55272" offset="85.43%"/><stop stop-color="#e65270" offset="100%"/></linearGradient><linearGradient x1="123.853841%" y1="422.194298%" x2="8.88048376%" y2="-119.166098%" id="b"><stop stop-color="#faa100" offset="38.36%"/><stop stop-color="#bf73f2" offset="65.84%"/><stop stop-color="#c370e6" offset="66.49%"/><stop stop-color="#cc68c7" offset="68.52%"/><stop stop-color="#d461ab" offset="70.81%"/><stop stop-color="#db5b95" offset="73.41%"/><stop stop-color="#e05784" offset="76.43%"/><stop stop-color="#e35479" offset="80.17%"/><stop stop-color="#e55272" offset="85.43%"/><stop stop-color="#e65270" offset="100%"/></linearGradient><linearGradient x1="51.8062057%" y1="110.213881%" x2="48.7632025%" y2="-15.8468905%" id="c"><stop stop-color="#faa7b5" offset="0%"/><stop stop-color="#faa100" offset="38.36%"/><stop stop-color="#bf73f2" offset="73.17%"/></linearGradient><linearGradient x1="9.62386216%" y1="174.162382%" x2="53.9383389%" y2="52.8668705%" id="d"><stop stop-color="#f6e8a0" offset="0%"/><stop stop-color="#e65271" offset="100%"/></linearGradient><linearGradient x1="18.1632763%" y1="115.602463%" x2="57.4348507%" y2="6.46750535%" id="e"><stop stop-color="#f6e8a0" offset="0%"/><stop stop-color="#e65271" offset="100%"/></linearGradient><linearGradient x1="51.5762224%" y1="144.242513%" x2="48.3691748%" y2="-2.86807763%" id="f"><stop stop-color="#f6e8a0" offset="0%"/><stop stop-color="#e65271" offset="100%"/></linearGradient><linearGradient x1="65.4964174%" y1="-23.9961997%" x2="28.2756409%" y2="199.500839%" id="g"><stop stop-color="#e65271" offset="0%"/><stop stop-color="#faa100" offset="38.36%"/></linearGradient><linearGradient x1="-21.6946685%" y1="117.773142%" x2="118.647909%" y2="13.116232%" id="h"><stop stop-color="#f6e8a0" offset="0%"/><stop stop-color="#e65271" offset="100%"/></linearGradient><linearGradient x1="136.302444%" y1="88.5605931%" x2="44.4644303%" y2="47.6990977%" id="i"><stop stop-color="#faa7b5" offset="0%"/><stop stop-color="#faa100" offset="38.36%"/><stop stop-color="#bf73f2" offset="73.17%"/></linearGradient><linearGradient x1="247.226315%" y1="117.351319%" x2="-42.8773063%" y2="21.897649%" id="j"><stop stop-color="#faa7b5" offset="0%"/><stop stop-color="#faa100" offset="38.36%"/><stop stop-color="#bf73f2" offset="73.17%"/></linearGradient><radialGradient cx="66.2919999%" cy="20.6966972%" fx="66.2919999%" fy="20.6966972%" r="99.4792544%" gradientTransform="matrix(.269544 0 0 1 .66292 .206967)rotate(163.148201)translate(-.66292 -.206967)" id="q"><stop stop-color="#fff" offset="0.91%"/><stop stop-color="#fff" stop-opacity="0" offset="100%"/></radialGradient><radialGradient cx="151.819026%" cy="109.034398%" fx="151.819026%" fy="109.034398%" r="231.346413%" gradientTransform="matrix(-1 0 0 -.352728 3.03638 1.474938858432)" id="r"><stop stop-color="#fff" offset="0.91%"/><stop stop-color="#fff" stop-opacity="0" offset="100%"/></radialGradient><radialGradient cx="39.1941672%" cy="70.4152795%" fx="39.1941672%" fy="70.4152795%" r="113.780993%" gradientTransform="matrix(-1 0 0 -.518319 .783884 1.0691288788070001)" id="s"><stop stop-color="#fff" offset="0.91%"/><stop stop-color="#fff" stop-opacity="0" offset="100%"/></radialGradient><linearGradient x1="91.3911081%" y1="124.223296%" x2="15.3416209%" y2="-22.5463162%" id="k"><stop stop-color="#faa7b5" offset="0.41%"/><stop stop-color="#faa100" offset="38.36%"/></linearGradient><linearGradient x1="61.3709205%" y1="231.481665%" x2="41.4343192%" y2="-48.0603089%" id="l"><stop stop-color="#faa7b5" offset="0%"/><stop stop-color="#faa100" offset="38.36%"/><stop stop-color="#bf73f2" offset="73.17%"/></linearGradient><linearGradient x1="62.9599279%" y1="264.450004%" x2="47.0789795%" y2="-3.72957548%" id="m"><stop stop-color="#faa7b5" offset="0%"/><stop stop-color="#faa100" offset="38.36%"/><stop stop-color="#bf73f2" offset="73.17%"/></linearGradient><linearGradient x1="45.1119029%" y1="198.471054%" x2="51.8386851%" y2="-11.6909531%" id="n"><stop stop-color="#faa7b5" offset="0%"/><stop stop-color="#faa100" offset="38.36%"/><stop stop-color="#bf73f2" offset="73.17%"/></linearGradient><linearGradient x1="51.0693118%" y1="251.524249%" x2="47.6197061%" y2="-371.602843%" id="o"><stop stop-color="#faa7b5" offset="0%"/><stop stop-color="#faa100" offset="38.36%"/><stop stop-color="#bf73f2" offset="73.17%"/></linearGradient><linearGradient x1="117.858604%" y1="161.980634%" x2="-13.2267473%" y2="-54.3867371%" id="p"><stop stop-color="#faa7b5" offset="0%"/><stop stop-color="#faa100" offset="38.36%"/><stop stop-color="#bf73f2" offset="73.17%"/></linearGradient></defs><path d="M163.803867 106.113486c-3.432509.043128-6.857407.053276-10.287379.053276l-8.853996-.007611c0 0-25.316338.010148-37.420181.010148-1.897647 0-3.805442-.007611-5.708163-.012685-1.9027211-.005074-3.8054421-.012684-5.7132371-.012684-1.189835 0-2.3796699.002537-3.5669678.010147-7.1998966.043129-14.082673.908233-20.4529831 2.577553-25.3772253 6.639228-44.5896343 21.693557-57.1146129 44.736778-6.00245076 11.04593-9.4146639 23.403469-10.13516095 36.717443-.31965714 5.921268-.01775873 11.98968.90062131 18.032722.10908935.720497.24101134 1.440994.37039637 2.166565l.29175057 1.649025.49470748-.487097c.26130703-.25877.34248979-.527688.40083991-.730645.24862222-.804217.47694875-1.621118.7103492-2.430409.48202267-1.687079.98434104-3.432509 1.57291609-5.106903 4.31537142-12.309337 10.86834282-23.839827 20.03184752-35.268838.3627855-.451579.6342404-.95136.791532-1.43592 3.1077777-9.566882 8.5089686-17.829765 16.048818-24.583156 7.3343555-6.565657 16.1274639-11.482288 26.1712942-14.640805-6.4413451 2.75514-12.4057414 6.27898-17.7688779 10.508094-8.7449061 6.897999-15.0517922 15.338469-18.7303863 25.090549-.3678594.979267-.6773687 2.161491-.1775873 3.470563.1623655.446506.2790658.908233.4008399 1.372496.0786458.319658.1572916.639315.2587701.956435 1.9813669 6.476863 4.9902031 11.555859 9.1964852 15.518593 3.9221424 3.693816 8.9148825 6.39568 15.2674339 8.262883 5.9314159 1.74543 12.1216018 2.531888 18.1062938 3.292976l2.567405.329805c3.3487891.438895 6.7483174.956435 10.0286086 1.463827l1.9762929.304436c.7357188.111626 1.4663637.271454 2.2249152.436357l1.844371.385618-.4845597-.824512c-.0380544-.071035-.0684979-.129385-.1217741-.190273-3.1103147-3.480711-5.7157741-7.349577-7.7529542-11.512731-.1699764-.352637-.5403728-.677368-.8980843-.791532-.4414313-.144606-.8803256-.286676-1.31922-.43382-1.3978657-.469338-2.8388598-.941213-4.3052235-1.232963-1.57799-.314583-3.1940345-.54291-4.7593397-.761089-1.2532589-.177587-2.5039809-.352637-3.752166-.580964-4.1910603-.745866-7.4383709-2.092993-9.8890756-4.150469.5378358.129385 1.0934303.210568 1.638877.289214.7585515.109089 1.5399356.225789 2.2553588.471875 3.8637922 1.344589 8.1055918 1.968682 13.352028 1.968682l.7078123-.002537c.9386757-.010148 1.8798884-.053276 2.8312489-.098942l1.844371-.076108-.1395329-.454117c-3.7597768-12.291578-3.6532245-24.352292.3018984-35.915763-1.6540988 7.841748-1.9559973 15.125364-.9310648 22.165432 1.5653052 10.759254 6.3068861 20.031848 14.0953575 27.559013 5.248973 5.076459 11.839999 9.338555 20.1384 13.022222 7.207508 3.204182 14.716913 5.127199 21.787425 6.826963l1.336979.327268c5.043479 1.212668 10.262009 2.465927 15.313099 3.950049 7.577904 2.219842 14.163856 5.870529 19.575194 10.868343.809291.748404 1.732745 1.598286 2.458316 2.536962 5.16779 6.697578 11.193074 11.449307 18.413266 14.529178.208031.088793.443968.309509.593649.560668 2.364448 3.856182 5.198234 6.695041 8.66626 8.686556.773774.443968 1.542473.667221 2.290877.667221.948823 0 1.897647-.362785 2.823638-1.068061.3501-.268918.669757-.55052.95136-.837197 1.215205-1.220278 2.186861-2.72216 3.07226-4.716211.10909-.238475.208031-.314584.474412-.347564.882863-.1167 1.788558-.235937 2.691716-.413525 14.752431-2.925116 25.019514-14.270408 26.802998-29.619025.048202-.40845.078646-.821975.114163-1.232963.076109-.974193.157292-1.97883.446505-2.884525.36786-1.14417.915843-2.273117 1.456216-3.351326.233401-.479486.476949-.969119.697665-1.458753.190272-.421135.390692-.837197.588575-1.253259.469338-.986878.946286-1.994051 1.347126-3.026595.608871-1.575453.682443-3.204182.213105-4.840522-.202957-.705275-.629166-.80929-.867641-.80929-.177587 0-.370396.060887-.568279.182661-.405914.261307-.786458.55052-1.161929.849882-.177587.147144-.362785.281603-.545446.418599-.202957.157291-.40084.312046-.598723.476948-.476949.370397-.915843.730645-1.413088 1.0021-.177587.098942-.365322.154755-.545446.154755-.187736 0-.36786-.055813-.535299-.164903l.695127-.621555c1.240574-1.101042 2.481148-2.20462 3.696353-3.32342.256233-.2334.42621-.664684.403377-1.014784-.144607-2.303561-.948824-4.213893-2.397429-5.685331-1.725133-1.745429-3.533987-2.592775-5.525502-2.592775-.426209 0-.862567.040592-1.303998.119238-.078646-.773774-.246085-1.062987-.890473-1.408014-4.07436-2.209693-8.047242-3.285365-12.139361-3.285365l-.639314.005074c-2.788121 0-5.502669-.791532-8.544486-2.488759-1.050302-.580965-1.976293-.979267-2.83886-1.207594-2.615607-.695127-5.256584-.956434-7.646402-1.068061 1.024933-.14207 2.09553-.210568 3.244774-.210568.733182 0 1.489196.030444 2.303561.08372l.469338.048202c.345026.032981.695127.063424 1.030006.063424.449042 0 .819439-.055813 1.131485-.185198 2.131047-.872714 4.21643-1.92809 6.172427-2.927653.383081-.197883.65961-.279066.913306-.279066.144607 0 .279066.027907.42621.081183l.570816.213105c1.068061.403376 2.169102.819438 3.224478 1.286239 2.501444 1.113726 4.662935 1.638877 6.793983 1.638877.570816 0 1.139095-.043128 1.707375-.119237 1.458753-.197883 3.166128-.532762 4.703526-1.479049.758552-.4668 1.768262-1.245648 1.86213-2.699327.005074-.025369.053276-.111626.172513-.223252.187735-.169977.380545-.332342.578428-.494708.197883-.162365.400839-.332342.591112-.512466 1.192371-1.09343 1.717522-2.478611 1.570379-4.120025-.048203-.45919-.149681-1.534862-1.070598-1.534862-.276529 0-.603797.101479-1.06045.332342-.187735.098942-.365322.177587-.525151.223253.451579-.273992.887937-.550521 1.316683-.842272 1.017322-.69259 1.514566-1.75304 1.466364-3.150906-.096405-3.044353-3.303124-5.926342-6.598637-5.926342-.390692 0-.778847.048203-1.14417.124312-.971656.215641-2.179249.621555-2.907357 1.884962-.022833.035517-.106553.09133-.124311.096404l-.560669-.025369c-.65961-.02537-1.339516-.053276-1.971219-.197883l-.185198-.043129c-1.073135-.248622-2.176713-.494707-3.310735-.494707-.454116 0-.875252.040591-1.286239.119237-.504856.093868-1.004637.218179-1.517103.345027l-.370397.088794c-.583501-1.900185-1.532324-3.683668-2.81349-5.312398-2.869303-3.650687-6.695041-6.220629-11.687781-7.856969-3.617707-1.192372-7.511943-1.788558-11.573618-1.788558-2.133585 0-4.373722.159829-6.65445.48456-8.996065 1.286239-15.275045 6.177501-18.666962 14.534252-.573354 1.400402-.956435 2.887062-1.329368 4.328056-.180124.695127-.365323 1.405477-.56828 2.098067-1.065523 3.625318-2.407576 6.821889-4.10734 9.790134-3.087482 5.385969-6.903072 9.224392-11.670023 11.733447-3.810516 2.006736-7.98128 3.024058-12.390519 3.024058-1.846908 0-3.777536-.17505-5.743681-.527688-.398303-.071035-.794069-.157292-1.197446-.243548 1.387718-.063424 2.704401-.139533 4.038843-.268918 6.167353-.624093 11.784186-2.519203 16.693206-5.629518 6.679819-4.239262 10.777012-9.505994 12.524979-16.09702.979267-3.683668 2.372059-7.352114 4.145395-10.906397 1.024932-2.060013 2.32893-4.444757 4.206282-6.459104 2.656198-2.83886 6.076022-4.779635 10.759253-6.096318 1.281166-.362786 2.55472-.756015 3.820664-1.161929.700201-.225789 1.187298-.710349 1.489196-1.491733.733182-1.902721.915843-3.84096.540373-5.756366-.55052-2.81349-1.887499-5.418949-4.092119-7.963522-1.740355-2.006736-3.899309-3.465489-5.989766-4.878576-1.050302-.702739-2.03718-1.451142-2.935264-2.219842-.768699-.65961-1.167002-1.522177-1.121337-2.430409.063424-1.496807.17505-1.55262.456653-1.55262.233401 0 .598723.088793 1.194909.281603.291751.096404.580964.213104.867641.339952l1.742892.750941c.994489.428746 1.983904.86003 2.988541 1.276092 2.171639.903158 4.320445 1.369959 6.380458 1.369959 1.103578 0 2.202082-.131922 3.275217-.388155 3.858718-.923454 6.390606-3.21433 7.527165-6.814279.301898-.974193.261307-1.806316-.139533-2.483685-.263844-.449042-.870178-.824512-1.372496-.839734-.466801 0-.900622.413524-1.238037.781384-.185199.205494-.233401.474412-.266381.707812-.015222.076109-.027907.157292-.045666.228327-.34249 1.281165-.816901 2.118362-1.532324 2.679031 1.278628-1.737819 1.849444-3.594874 1.745429-5.657424-.104015-2.047328-1.638877-3.475637-3.73187-3.475637-.08372 0-.16744.005074-.261307.010148-.794069.048202-1.301462.476948-1.382644 1.182224-.055813.487096-.055813.989415-.05835 1.471437 0 .20042 0 .40084-.005074.60126-.005074.263844-.002537.520077 0 .783921 0 .563206.002537 1.093431-.065961 1.616045-.157292 1.126411-.82705 1.887499-1.991515 2.260432-.081183.030444-.162366.05074-.248622.05835.352637-.20042.654536-.476948.872714-.877788.431284-.799143.796606-1.527251.999563-2.311172.51754-2.082845.007611-3.706501-1.473974-4.70099-.7687-.509929-1.753041-.700201-2.620681-.821975-.352638-.050739-.697665-.065961-1.045229-.065961-1.296387 0-2.564868.304435-3.785146.593649l-.624093.149681c-1.159391.263844-2.184323.400839-3.171201.403376-.842272 0-1.72006-.162365-2.567405-.319657l-.390692-.071035c-6.426124-1.156854-12.205322-1.717523-17.654715-1.717523l-.958971-.038054z" fill="#e65270" transform="matrix(1 0 0 -1 0 362.260334)"/><g style="fill:#430a1d"><path d="M216.1084 170.528075c0 0-9.473014-11.3047-25.567497-4.827838-14.739746 5.939027-9.363925 22.28467-9.363925 22.28467 0 0 2.610534-10.137698 10.239177-13.978658 11.043393-5.563556 24.692245-3.478174 24.692245-3.478174z" opacity="0.2" transform="matrix(1 0 0 -1 0 351.682344)"/><path d="M169.423236 217.232397c2.052402-2.085382 2.090456-4.218967 2.734845-6.819352 1.215204-4.891262 2.709474-9.138135 5.824863-13.161756 2.996151-3.86633 6.580878-6.601174 11.210833-8.379584 4.010936-1.537399 9.166041-1.083282 8.399879-7.05529l-1.342053-5.028257c-10.251861 0-19.851723 4.678157-23.763717 14.851372-3.429972 8.92503.60887 19.709653-9.785061 34.7995.829587-1.017321 5.657424-8.118277 6.720411-9.206633z" opacity="0.2" transform="matrix(1 0 0 -1 0 403.227188)"/></g><path d="M.301647232 1.9204798C.458938842 1.28623944.598471722.641851244.743078522 0 .359997342.471874827.162114354 1.06806076.301647232 1.9204798z" opacity="0.2" transform="matrix(1 0 0 -1 165.064988 183.480662)" fill="#2b2b2b"/><path d="M45.9341011 142.907038c-38.66582925 3.820664-43.21713807 42.311443-43.21713807 42.311443 0 0-2.100604067 17.839913 2.80080543 35.339872C8.66613761 188.719488 34.2082654 166.67583 34.2082654 166.67583c0 0 5.6117587-18.141811 11.7258357-23.768792z" fill="url(#a)" transform="matrix(1 0 0 -1 0 363.465392)"/><path d="M36.2936477 200.488451c0 0-8.1106657-.771236-18.9282693 12.362614 10.4294485-18.92827 23.948916-19.313888 23.948916-19.313888l-5.0206467 6.951274z" fill="#2b2b2b" opacity="0.2" transform="matrix(1 0 0 -1 0 406.388242)"/><path d="M57.190599 161.684405c-2.0270322 35.593569 18.8699192 19.07795 29.6570792 37.952943 3.031669 16.515619 12.1292127 26.962826 12.1292127 26.962826 0 0-64.7077385 12.13175-65.722523-35.053196 2.2528217-10.216344 12.1545822-20.095272 18.3574529-25.440649-1.2152045 2.734844-16.6627627 45.241633 34.7842783 41.776144-17.7587301 1.512029-43.3947254-17.038233-31.1767191-44.828109 1.2278893-.895547 1.971219-1.369959 1.971219-1.369959z" fill="url(#b)" transform="matrix(1 0 0 -1 0 389.683666)"/><path d="M74.6829482 215.857114c-13.3748607-5.028258-36.0908135-5.005425-29.6266357-39.135167-1.0350803-.776311-6.2028707 7.240488-4.9140943 6.46164-5.9466376 30.512036 20.7650293 28.748848 34.54073 32.673527z" fill="#fff" opacity="0.2" transform="matrix(1 0 0 -1 0 392.526034)"/><path d="M91.6197027 221.919063c13.0070013 5.144957 2.4456308-9.442571.5987229-11.776575-4.272243-5.398654-15.0720879-3.643077-20.8309904-5.44432-3.3107346-1.03508-16.579043-2.980929-20.9781341-15.546499-1.9559973-5.566094-2.6891791-14.666174 1.4739746-25.740011-1.0325433-.781384-7.8747283 6.7128-6.580878 5.941564-10.9774321 49.042001 40.8120987 31.438026 46.317305 52.565841z" fill="#8b4fba" opacity="0.6" transform="matrix(1 0 0 -1 0 386.364902)"/><path d="M220.933701 150.462258c.355175.974193.958972 2.219842 1.722597 2.95556.177587-.083719.370396-.093867.515003-.185198 1.268481.821976 3.270143.712886 4.865892.712886.951361 0 2.344153.263844 3.262533-.093867 1.339515-.520077 1.187298-1.930628 1.745429-2.998689 1.050302-1.994051 4.290002-2.019421 4.30015-4.837985.010148-1.326831.342489-3.125537.005074-4.424461-.256233-.964045-1.331905-.669758-2.26297-.669758-2.810953 0-5.61937-.078645-8.437934-.078645l-3.896773 2.90482c-1.040154-.332342-1.851981 1.849445-1.996588 2.590238-.230864 1.220278-.261307 2.912432.177587 4.125099z" fill="#f9e0e7" transform="matrix(1 0 0 -1 0 294.881324)"/><path d="M233.935629 149.982067c.476948.195346 1.182224.958971 1.473974 1.408014.213105.322194.154755.527688.608871.515003 1.189835-.032981 1.199983-1.638877 1.139096-2.468464-.071035-1.06045-.499782-2.034643-.654537-3.077334-.385618.096405-.598722.580964-1.03508.702738-.34249.101479-.837197.053277-1.199983.038055-.525151-.022833-1.258332-.378007-1.735281-.175051l1.40294 3.057039z" fill="#fff" transform="matrix(1 0 0 -1 0 298.264926)"/><path d="M79.825369 48.9395387c.1775873.205494.2257896.266381.2790657.324731 5.1627166 4.820227 7.897561 10.90386 9.3689986 17.705454.9665823 4.452367-.263844 8.379584-2.2705804 12.218006-.0355175.063424-.0989415.126848-.1674395.213105-.4008399-1.253259-.7661624-2.483685-1.1923719-3.693816-1.0477651-2.983466-2.3162458-5.870529-4.3305932-8.341529-.8042167-.984341-34.5331191-19.669062-31.0600188-61.04944.0202956-.256233.063424-.499781.0989415-.786458.6240925.580964 1.1695392 1.182224 1.7987056 1.676931 2.2452109 1.755578 4.8354485 2.874378 7.5423864 3.630392 4.9496117 1.380107 9.929667 2.648588 14.9198702 3.868866 5.6726458 1.390255 11.380809 2.679032 16.8581087 4.774562 3.09763 1.182224 5.9720073 2.739918 8.7220731 4.61727 4.092119 2.800805 7.628643 6.152131 10.672997 10.033682 1.773336 2.260433 2.600386 3.985567 3.399528 6.641765.504856-1.362348.241012-5.172864-.520077-7.603273-.791532-2.509055-2.125973-4.70099-3.866329-6.7128.416062.131922.872715.20042 1.245648.413525 4.825301 2.750066 9.100081 6.136909 12.256061 10.779549 2.115826 3.110314 3.404602 6.514917 3.584726 10.305137.002537.053276.027907.106552.043129.190272 1.004636-4.65025.86003-12.56557-4.381333-18.190013 1.851982.651999 3.528914 1.309072 5.241363 1.819001 1.418161.421136 2.3543 1.250722 3.135684 2.49637 3.44012 5.444319 6.291664 11.152483 7.834137 17.446684 1.194909 4.860818 1.491733 9.741932.154755 14.625583-1.517103 5.520428-4.850671 9.769838-9.386758 13.146534-3.150906 2.346689-6.626543 4.087045-10.274694 5.512817-.220715.086257-.441431.164902-.65961.261307-.035517.012685-.053276.053276-.190272.205494 1.263407-.347564 2.394892-.641851 3.516229-.974193 5.228677-1.552621 10.234102-3.577116 14.668711-6.819353 3.95766-2.892136 6.986792-6.499695 8.501358-11.243813 1.3522-4.246873 1.2355-8.539412.263844-12.831951-1.420699-6.261221-4.338204-11.834925-7.887413-17.114342-.10909-.167439-.215642-.327268-.319658-.49217-.015221-.022833-.012684-.065961-.03298-.159829.147144.055813.263844.093868.370396.149681 7.438371 3.802905 14.047156 8.66626 19.313888 15.201473 5.114514 6.342404 8.8337 13.405304 10.604499 21.406881 2.224915 10.097106-.213105 19.062728-6.753392 26.970437-4.13271 5.0054253-9.244687 8.7905713-14.899574 11.8755163-7.298838 3.972882-15.064477 6.57073-23.284232 7.765639-4.673083.682443-9.35124.811828-14.021786-.086257-2.567405-.487096-4.231652-1.161928-7.075586-2.805879.360249.306972.702739.631703 1.080746.908232 2.55472 1.940776 5.500132 2.942876 8.592688 3.569505 5.114515 1.03508 10.272157 1.022395 15.4298.421136 7.986354-.933602 15.597239-3.145833 22.80982-6.7128.705275-.355175 1.40294-.71796 2.181787-1.1188 0 .654536-.040592 1.225352.010148 1.791094.063424.872715.504855 1.372497 1.192372 1.453679.654536.081183 1.037617-.164902 1.167002-.80929.104015-.545447.131922-1.106116.210568-1.654099.17505-1.248185.756014-2.306098 1.613507-3.224478.08372-.093868.187735-.175051.291751-.246086.050739-.038054.1167-.035517.299361-.071034 0 .449042.002537.862566 0 1.273554-.012685.834661-.048202 1.671858-.027906 2.506518.005073.205494.152217.535299.29175.57589.195346.053277.550521-.045665.674832-.20042.327268-.431283.679906-.898084.827049-1.41055.327268-1.08582.476949-2.222378.814365-3.300587.22579-.697664.578427-1.387718 1.022395-1.966145.48456-.63424.979268-.494708 1.164466.281603.172513.725571.235937 1.479048.345026 2.219841.038055.256233.048203.520077.126849.758551.060887.205494.213104.375471.322194.565743.167439-.154755.416061-.268918.487096-.461727.169977-.431284.337416-.895548.360249-1.349664.053276-1.004636-.043129-2.016884.030443-3.016447.040592-.532762.218179-1.101041.476949-1.562768.289214-.515003.756015-.454116.913306.121774.230864.821976.345027 1.671858.509929 2.511592.116701.568279.235938 1.134022.372934 1.829149.672295-.573353.83466-1.210131.900621-1.826612.169976-1.641414.256233-3.290439.398303-4.93439.114163-1.232963.535299-2.316246 1.263407-3.3690853 1.321757-1.915406 2.491296-3.942438 3.676057-5.951712.606334-1.030006 1.169539-1.123873 1.740355-.063424.644389 1.205057 1.123874 2.491297 1.669321 3.752166.238474.550521.436357 1.11119.687517 1.654099.1167.263844.314583.487097.494707.7610893.646925-.4693383.80168-1.0832833.677369-1.6921543-.185198-.915843-.522614-1.806316-.761089-2.712011-.25877-.989415-.530225-1.976293-.684979-2.986004-.05835-.405914.124311-.89301.306972-1.286239.263844-.570817.679906-.639315 1.123874-.192809.456653.451579.806754 1.002099 1.248185 1.461289.251159.263844.593649.423673.898084.631704.169977-.370397.515004-.756015.48456-1.111189-.063424-.753478-.243548-1.522177-.520077-2.227453-.565742-1.433383-1.321757-2.798268-1.806317-4.251947-.3501-1.055376-.416061-2.209693-.530225-3.328493-.03298-.273992.197883-.758552.413525-.837198.22579-.078645.672295.144607.872715.365323.920917 1.009711 1.786021 2.077771 2.691716 3.115389.218179.25877.515003.441431.773773.664683.088794-.045665.172514-.081182.263844-.129385-.088793-.586038-.063424-1.220278-.276529-1.765725-.365322-.905695-.811827-1.796168-1.329367-2.620681-.819439-1.311609-1.755578-2.542035-2.592775-3.835886-1.55262-2.392354-2.582627-5.005425-3.224478-7.785934-.466801-1.999126-1.123874-3.955123-1.702301-5.921268-.065961-.243549-.157292-.479486-.164903-.750941.504856.804217.999563 1.626192 1.522177 2.427872 1.093431 1.684543 2.354301 3.232089 4.048991 4.348352.852419.558132 1.768262 1.06045 2.722159 1.410551 4.903947 1.803779 9.86117 3.480711 14.534252 5.832474 1.329368.677369 2.600386 1.491733 3.810517 2.374596 1.532324 1.111189 2.09553 2.661272 1.638877 4.538624-.319657 1.303998-.639315 2.605459-.971657 3.962734-.791532-1.263407-1.491733-2.481149-2.288339-3.622781-.796606-1.141633-1.786021-2.110752-3.254921-2.762751.134459.251159.169976.360248.238474.449042 2.060013 2.83886 3.244774 6.065875 4.165691 9.407053.093867.345027-.012685.761088-.073572 1.134022-.421136 2.435483-.218179 4.87604-.109089 7.319133.027906.4845603.027906.9894153-.043129 1.4714383-.030443.223253-.210568.502318-.40084.586038-.129385.05835-.466801-.119237-.580964-.273992-.474412-.664684-1.0021-1.316683-1.31922-2.0498643-1.276091-2.965708-2.49637-5.956786-3.716648-8.940253-1.517103-3.726796-3.224478-7.344503-5.832475-10.454818-1.179687-1.408013-2.519202-2.633366-4.168227-3.488322-.312047-.159828-.649462-.289213-1.0021-.40084 2.549646 2.635903 3.120462 5.972008 3.234626 9.384221.152217 4.368647.063424 8.747443.109089 13.121164.045665 4.7288963.436357 9.4172013 1.846908 13.9735843.053276.180124-.038054.443968-.136996.624092-.395766.776311-.900621 1.501882-1.230426 2.303561-.690054 1.682006-1.271018 3.40714-1.950924 5.099293-.393229.994489-.530225 1.068061-1.595748.991952-1.14417-.081183-1.831686.57589-2.43802 1.390255-.466801.616481-.657073.60126-.97673-.121774-.347564-.786458-.621556-1.595749-.997026-2.369522-.129385-.263844-.461727-.436358-.697665-.649463-.182661.268918-.484559.532762-.51754.819439-.096404.936139-.071035 1.879888-.139533 2.818564-.03298.466801-.093867.938676-.251159 1.375033-.076109.205494-.390692.428747-.619018.446505-.159829.012685-.441432-.263843-.50993-.471874-.2334-.667221-.367859-1.362349-.580964-2.034643-.167439-.540373-.410988-.598723-.733182-.157292-2.346689 3.196571-5.474763 5.462078-8.823552 7.476425-.989415.593649-1.958534 1.215205-2.940338 1.813928-.068498-.022833-.136996-.048203-.20042-.065961.126848-1.088357.256233-2.174176.378007-3.259996-.088793-.048202-.177587-.088793-.263844-.134459-.312046.263844-.66722.482023-.925991.791532-.649462.7687-1.238037 1.585601-1.897647 2.351764-1.306535 1.532324-2.947949 2.628292-4.528476 2.991077.499782-1.712449.97673-3.333567 1.446068-4.959759-.071035-.038055-.154754-.068498-.228326-.101479-.162366.202957-.355175.390692-.489634.611408-.380544.621555-.758551 1.240574-1.111189 1.879888-1.506955 2.727234-3.830812 4.30015-6.880239 4.739044-2.072698.299362-4.175839.497245-6.263758.639314-1.532325.106553-3.0063.332342-4.409239 1.004637-.974193.443968-2.029569.750941-3.06465 1.093431-.172513.060887-.403377-.012685-.603796-.02537.015221-.220716-.032981-.476949.055813-.65961.487096-.953898 1.017321-1.884962 1.506955-2.83886.180124-.34249.296824-.720497.438894-1.083282-.048202-.053277-.093867-.101479-.139533-.154755-.312046.104015-.636777.17505-.928528.31712-1.349663.654536-2.717085 1.271018-4.02362 2.006737-1.329368.75094-2.793195.811827-4.231652.933601-4.50057.378008-8.9504.076109-13.301289-1.240574-2.646051-.796606-5.091682-1.999125-7.243025-3.858718.271455.027906.553058.027906.816902.076109 2.625755.540373 5.254047 1.047765 7.958448.958971 1.841834-.05835 3.635465-.352637 5.25151-1.286239.25877-.147144.421135-.456653.629166-.687517-.362785-.126848-.743329-.370396-1.090893-.324731-.839734.098942-1.659173.410988-2.506518.479486-2.694253.241011-5.287028-.380544-7.851896-1.088357-6.210481-1.704838-11.8349248-4.604585-17.0585284-8.336455-1.2735546-.905695-2.5953115-1.745429-3.9196054-2.587701-2.5775528-1.638877-4.6629351-3.757239-6.31196-6.322107-.1928091-.304436-.3703964-.631704-.4947075-.96912-.3374159-.938675-.0887937-1.722597.7966059-2.189397.6342403-.334879 1.3369787-.573354 2.039717-.74333 9.2827419-2.26297 16.1959618-9.9144453 17.2665595-19.3798493.4033769-3.549209.8980839-7.108566.7204969-10.708514-.408451-8.262883-3.3665477-15.46278-8.8844388-21.612374-3.2802911-3.658299-7.1567682-6.568193-11.4036417-9.016361-.0837197-.055813-.1750503-.091331-.4236725-.220716z" fill="url(#c)" transform="matrix(1 0 0 -1 0 145.05486)"/><path d="M198.77588 83.1188954c-3.944975-30.793638-17.609049-23.824605-26.549302-41.015055-.489633.649462-1.618581-4.607122.634241 5.152568 2.255359 9.769839 8.719536 5.358063 14.83615 16.530841 7.745344 14.120728 6.200334 15.386671 11.078911 19.331646z" fill="#8b4fba" opacity="0.2" transform="matrix(1 0 0 -1 0 124.382574)"/><path d="M157.94856 41.180986c-1.466364-8.813404-13.927919-8.415101-24.590768-4.67562-11.586303 4.064212-35.6620666 5.368211-37.5977682.520077-.9665823-1.111189-2.9073578 3.457879-2.9073578 3.457879 0 0 18.283881 19.948128 48.892321-1.106115-1.245648 1.938238 11.000265 7.610884 11.000265 7.610884 0 0 3.681131 1.121337 5.203308-5.807105z" fill="#fff" opacity="0.3" transform="matrix(1 0 0 -1 0 83.025628)"/><g style="fill:#8b4fba"><path d="M94.5295975 77.8378839c.6646839-1.649024 6.0785595-.537835 6.5859515 2.03718-7.9863542 9.046805 13.039982 25.6715131-6.3525511 47.3701441 12.6873441-33.4777431-14.3287582-34.8400911-.2334004-49.4073241z" opacity="0.2" transform="matrix(1 0 0 -1 0 204.305412)"/><path d="M94.5295975 78.0228519c.6646839-1.649024.5454467-1.17715 1.050302 1.397866-7.9863546 9.049342 13.2860675 22.2440781-.8169016 48.0094581 12.6873441-33.4777431-14.3287582-34.8400911-.2334004-49.4073241z" opacity="0.6" transform="matrix(1 0 0 -1 0 204.49038)"/></g><path d="M123.628545 46.837382c38.38169 40.385889-10.137698 33.619813-25.9505784 61.031681.0279066.471875.0608871.928528.0608871 1.413088 0 3.810516-.923454 7.397779-2.5318875 10.579129 14.8006328-21.952327 52.3197558-2.595311 45.0336028-47.471622-.657073-2.306098-5.87814-25.047421-16.612024-25.552276z" fill="url(#d)" transform="matrix(1 0 0 -1 0 166.698662)"/><path d="M123.628545 63.7841635c-15.800196-7.755491-29.6139507-7.983818-28.9619516-5.682794 31.3948976 21.302866 6.0531896 43.2551925.1446068 63.9339655.4033769 1.66932 2.9276535 2.290876 2.9276535 4.185986 0 .202957-.0253696.395766-.0304435.596186.456653-2.052402 1.5373986-2.765288 2.5750158-3.805442 14.592602-14.719451 60.978405-19.638619 23.345119-59.2279015z" fill="url(#e)" transform="matrix(1 0 0 -1 0 183.645444)"/><path d="M118.68147 72.889172c24.301554 36.298844-21.0669274 43.194305-20.7396594 54.701962-3.6126331-23.66985 39.8759604-33.802474-.986878-62.132722-.6519991-2.298487 5.9238054-.327268 21.7265374 7.43076z" fill="#e65271" transform="matrix(1 0 0 -1 0 192.149192)"/><path d="M186.590854 37.047247c1.930628-3.224478-.213105-7.02992-2.460852-10.59435-2.075235-3.292976-7.085734-2.214768-10.485262-10.15292l.291751 6.185112c3.76485 6.563119-2.60546 15.597239-4.381333 21.703705-3.016447 10.401542-6.301812 19.998867-2.298487 30.552627.268918.707812.499781 1.484122.773773 2.21223 1.996589-1.473975 3.503544-2.942875 5.221067-5.183012 1.134022-1.48666.738256 3.835885 2.229989 2.717085 1.098504-.80929-.053276-4.574141.994489-5.444319 1.169539-.989415 1.877351 4.739044 2.724696 3.470563 1.981367-2.978392 3.117926-1.088356 3.962734-1.981367.763626-.80929 2.549646-7.047678 3.270144-7.892487.702738-.819438 1.37757-1.664246 2.042254-2.514128-.40084-4.541161-1.283703-9.645528-2.744993-13.74272-1.37757-3.868867-1.440994-5.482374.86003-9.336019z" fill="url(#f)" transform="matrix(1 0 0 -1 0 93.253628)"/><path d="M132.568797 50.483977c.119237-.043129.218179-.060887.279066-.05835 1.062987.017758-2.866766 4.957222-1.737819 4.957222 1.907795 0 4.596975-1.968682 6.461641-2.113289 3.939901-.301898 8.021872-.213104 11.510194-1.808853 3.341179-1.532325 4.827838-6.289128 5.576242-6.489547.756014-.208031-1.819002 5.497595-1.080746 5.243899 1.250722-.421136 2.250285-1.040154 3.074797-1.725134 3.29805-4.721285 4.371185-28.119681-.471875-27.515884-5.08407.634241 8.021872-1.796168 8.075149-1.600822 4.383869 16.543525-5.380896 26.71674-4.939464 26.143387.578427-.761088 1.042691-1.3522 1.537398-1.542472 1.040155-.40084-.649462 3.988103.301899 3.407139 3.026595-1.849445 5.172864-3.153443 6.936052-4.467589.053277-.076109.068498-.25877.154755-.223253 1.301461.540373 9.318259 2.425335 3.216867-26.374251 9.264983 18.750682 2.011811 26.10787 2.72216 25.339171 3.290439-3.551746 3.962733-12.22308 4.386406-17.365501.398303-4.822764-2.635903-15.817955-6.565656-19.45342-2.770362-2.557258-2.714549.60887-3.752166 3.054501-1.707375 4.01601-4.837986 7.253173-7.679382 10.561371-2.115826 2.460852-4.683231 4.259558-7.009625 6.46164-2.534424 2.399966-3.868866 5.753829-6.134373 8.387195-2.027032 2.3543-4.515791 4.229115-6.441345 6.684893-2.161491 2.750066-3.605022 5.895899-5.989766 8.427786-.756014.811828-1.603359 1.420699-2.430409 2.070161z" fill="#e65271" transform="matrix(1 0 0 -1 0 59.27201)"/><path d="M150.335138 64.538447c5.662498.017758 9.219318-2.694253 13.902549-5.287028 3.881551-2.158954 8.653575-2.17925 11.933867-5.152569 4.358499-3.955122 6.243462-7.874728 7.060363-13.664074.936139-6.591026 1.050302-14.993442-.197883-21.561635-.639314-3.369085-3.031669-10.27469395-5.555945-12.73808395l-3.029132 1.928091C168.476949 23.490411 150.46706 29.820129 143.652782 44.981011c-2.009274 4.462515-2.765288 10.262009-2.814264 15.138049-.052503 5.104366 5.371521 4.404165 9.49662 4.419387z" fill="url(#g)" transform="matrix(1 0 0 -1 0 70.69819)"/><path d="M93.9917617 3.886625C90.6987857 9.003676 85.48533 12.76599 79.361105 14.133412c-1.5576943.347564-4.3508888 1.316683-1.5856009 4.642639 2.9555601 4.612196 7.2024336 6.382995 9.4882358 8.077686 9.1914113 6.824426 5.3910431 7.52209 10.7516426 8.141109 2.0955305.243548 1.5424726.426209 2.6054595 0 1.062987-.42621-.8169017.299361-1.4891965.74333-5.982155 3.960196-5.5508716-3.939902-2.9809297-2.232526 7.6590862 5.921268 25.2960422 10.07681 30.2405802 9.229465.71796-.121774 5.687868-2.993614 6.451493-2.980929 1.062987.017758-2.864229 4.957222-1.735281 4.957222 1.902721 0 4.596974-1.968682 6.46164-2.113289 3.858719-.296824 15.592165-5.677719 15.505909-19.844112-.02537-4.328056.241011-7.362262-.34249-10.1859-4.27478-20.721901-47.585786 8.356751-58.7408053-8.681482z" fill="#f6e8a0" transform="matrix(1 0 0 -1 0 48.598034)"/><path d="M145.837106 30.4133049c-2.006737 2.506517-15.05433 7.024846-15.05433 7.024846 0 0-21.663113 7.466277-41.6416846-13.795996 10.2087328 8.105591 28.1551976 4.706063 41.1317556 3.209256 1.714986-.20042-3.7065 1.529787-2.285802 2.054938 4.81769 1.783484 9.282742-3.21433 14.087747-2.250284 2.242674.446505 3.587263 1.664246 3.762314 3.75724z" fill="#fff" transform="matrix(1 0 0 -1 0 62.351112)"/><path d="M129.217471 30.6631031c-7.955911 2.09553-15.909285-.971656-17.44161-1.065524.723034 1.083283 1.897647 3.58219 7.788472 4.444757 1.354737.20042 4.069286-.017759 5.492521-.015222 2.54711.005074 4.127637-.608871 6.375385-1.692153 1.433383-.690054 4.901409-1.425772 5.999913-1.253259 0 0 12.195174-.91838 8.156331-5.053627-4.036305-4.13271-9.924593 5.330156-22.850411 2.303561.005074.421135 2.958097 2.52935 6.479399 2.331467z" fill="#f6e8a0" transform="matrix(1 0 0 -1 0 59.092294)"/><path d="M117.159294 30.1142526c-5.025721 3.328493-13.818829.474411-14.957925.489633-.02537.1167.045665.246085.248622.375471 7.661624 5.921268 19.006915 5.39358 23.951453 4.546234.038054-.005074.088794-.022832.147144-.043128.022832-.007611.05835-.020296.088793-.03298 1.070598-.410988 4.571605-2.382207 5.84516-2.816028 7.453592-4.22404 19.22763-13.143997 20.265248-27.27487198-4.234189 1.882425-7.278543 3.716648-9.617621 5.50266898-.788995.60126-18.601002 19.22002-65.7504298-3.15090598 0 0-1.3116091.720497-.5632055 2.40503998 10.6476272 17.109268 30.0858253 22.023362 61.0443663 5.819789-4.39148 5.233752-6.517454 9.972796-20.701605 14.179078z" fill="#f8d285" transform="matrix(1 0 0 -1 0 41.398656)"/><path d="M147.298395 39.386326c17.461906 17.857672 24.578083 31.199552 16.124927 45.566365-13.689444 23.286769-55.848669-1.0021-74.1832891 22.490163 1.9433124-2.219841 6.0760226-6.616396 10.0691999-8.777887 13.5905022-8.879365 39.1706842-6.022746 47.3219422-12.887764 10.490335-8.826089 13.166829-26.630484.66722-46.390877z" fill="url(#h)" transform="matrix(1 0 0 -1 0 146.82918)"/><path d="M90.4070351 140.689418c-.0202956-1.197446 2.7196227-8.105592 2.2908762-9.696267-3.6785941-13.580354-19.6183228-20.242415-19.6183228-20.242415 0 0-17.8525976-7.184675-20.6914575-40.0231037-3.2549215-2.341615-2.8033424 2.646051-2.7018639 4.863355 2.0244952 43.0649207 37.8540016 38.2523047 40.720768 65.0984307z" fill="url(#i)" transform="matrix(1 0 0 -1 0 210.805958)"/><path d="M151.146966 144.043597c-.294288.136996-.57589.312046-.8854.40084-1.562768.436357-3.138221.837197-4.706063 1.283702-.494708.14207-.966582.367859-1.451142.553058.005074.106552.010148.210567.010148.312046.565742.101478 1.1188.279066 1.684542.286677 2.250285.025369 4.50057-.005074 6.753392-.010148 3.181349-.007611 6.372847.007611 9.440033.936138 1.496807.456654 2.958097 1.141633 4.330593 1.905258 14.493661 8.067538 24.735374 19.874556 30.897654 35.25108 1.260869 3.143295 2.227452 6.393142 2.973318 9.691192.048203.182662.065961.372934.121775.690054-.241012-.147144-.395766-.218179-.540373-.312046-8.869217-6.076023-18.555336-10.196048-29.124318-12.197711-3.780072-.712886-7.595662-1.070598-11.441696-1.182224-.286676-.007611-.654536-.1167-.844808-.314583-5.748754-5.860381-12.537663-10.193511-19.861871-13.798533-5.847696-2.874378-12.020123-4.612196-18.367601-5.847697-8.136035-1.580527-16.292366-3.082408-24.4284014-4.647713-9.9930911-1.92048-19.935443-4.054064-29.5961921-7.321671-6.1292989-2.07016-12.0657886-4.558919-17.4948861-8.12335-4.0870449-2.689179-7.7250476-5.865455-10.2975265-10.09457-.9031583-1.491733-1.5450095-3.143295-2.3238567-4.713674-.1420698-.281603-.2917505-.575891-.5099292-.791532-5.3885061-5.269269-7.5119428-11.680171-6.6848934-19.118542.6139446-5.502669 2.5851637-10.5360006 5.396117-15.2725076.3323419-.5555946.6139446-1.1340218.8752517-1.6236554.1344589 1.1999828.2410113 2.5445724.4287464 3.8764771 1.189835 8.4759879 5.5534086 14.7879479 12.9816317 19.0043779 4.3204453 2.460853 8.9732326 4.087045 13.7959963 5.152569 5.2870277 1.167002 10.6197206 2.148806 15.9498766 3.115389 6.4717886 1.169539 12.9790947 2.146269 19.2707591 4.130173 1.2228154.383081 2.432946.827049 3.6354656 1.283702 1.547547.580965 2.993615 1.329368 4.340741 2.328931 4.459978 3.285365 9.348703 5.802031 14.498735 7.816378.14207.053277.273992.114164.413524.16744.005074.020296.007611.048202.027907.101478-.08372.007611-.157292.017759-.2334.017759-5.76144.002537-11.535564-.030444-17.297004.002537-5.1576421.03298-10.297526-.126848-15.4095033-.799143-7.0806594-.938676-13.9329922-2.772899-20.6077377-5.312397-7.8721914-3.003762-15.3207102-6.847259-22.5459763-11.160094-.1928091-.1167-.3906921-.228326-.6519991-.273992.1369959.10909.261307.230864.393229.332342 7.9077088 5.99484 16.3278838 11.114429 25.6156996 14.704229 6.4692517 2.493833 13.1439972 4.13271 20.0445324 4.863355 6.0785596.641851 12.1596564.580964 18.2432894.139533 5.259121-.383081 10.518242-.766162 15.784974-1.126411.456653-.038054.94375.030444 1.387718.159829 5.203308 1.583064 10.52839 2.514129 15.904211 3.277754 3.176276.449042 6.306887 1.210131 9.455256 1.83676.213105.045665.413524.157292.616481.241011.010148.055814.022833.119238.032981.180125z" fill="url(#j)" transform="matrix(1 0 0 -1 0 285.326978)"/><path d="M54.2730934 141.283382c20.6128117 24.621211 74.0868846 11.715688 96.8738726 17.738435-14.425163-8.288253-26.163683-6.857407-26.163683-6.857407 0 0-49.239885 5.439245-70.7101896-10.881028z" fill="#fff" opacity="0.2" transform="matrix(1 0 0 -1 0 300.305198)"/><path d="M211.864064 101.658582c-.697664-.119237-1.212668-.152218-1.684542-.304435-1.854519-.580964-3.790221-1.012248-5.533113-1.849445-1.656636-.799143-3.191498-1.933165-4.624881-3.100167-2.785584-2.26297-5.441782-4.670546-8.186775-6.961422-2.250284-1.874815-4.635028-3.551746-7.476425-4.421924-.915843-.279066-1.867204-.438894-2.823638-.596186 3.701427 1.864667 5.774124 5.188086 7.922931 8.597762-.182662-.03298-.248623-.025369-.296825-.048202-5.647276-2.762751-11.177852-5.713237-16.20611-9.536438-1.339515-1.022395-2.399965-2.184324-3.153443-3.769925-1.21013-2.521739-2.739918-4.893798-4.127636-7.324207-.060887-.10909-.129385-.215642-.296824-.507393 1.215204.256234 2.280728.42621 3.328493.692591 4.424461 1.131485 8.539412 3.046891 12.578255 5.127199 6.306886 3.265069 12.314411 7.040068 18.139274 11.091595.177587.121774.357712.238475.588575.30951-.053276-.073572-.093867-.154755-.157291-.215642-6.91322-6.892924-14.666175-12.570644-23.730738-16.332958-3.919605-1.633803-7.98128-2.722159-12.207858-3.161054-.157292-.022832-.362786-.071035-.451579-.180124-.941213-1.139096-1.859593-2.290876-2.902284-3.577116 2.58009.553058 5.007962 1.037618 7.418075 1.598286 6.748317 1.567842 13.36725 3.559357 19.684284 6.431197 4.668009 2.1209 9.117839 4.614733 12.862394 8.161405 4.942001 4.683231 8.580004 10.223955 10.703441 16.713502.309509.953898.405913 1.986441.63424 3.163591z" fill="#e65271" transform="matrix(1 0 0 -1 0 167.249184)"/><path d="M95.1156356 90.9417293c2.0016626.672294 4.2823909 1.504418 6.7153374 2.43802 28.680349 8.9427887 38.160973 16.4014547 38.160973 16.4014547l28.812272 21.330772c0 0 4.706063-3.605022 10.802381 1.108652-4.153006-4.985129-16.896163-8.864143-16.896163-8.864143 0 0-.586038-3.922142-4.741581-6.969033 11.335144 3.853644 30.387724 2.747529 43.605293 14.650952-9.995628-28.271898-34.822332-6.720411-58.814377-24.30409-2.767825-1.664247-39.360956-11.0154867-21.176017-10.3736357 18.18494.639315 30.164472-11.771501 45.35326-7.702215-14.255186-5.172864-26.856274 3.112852-46.715608 4.508181 3.090019-.619019 7.321671-2.32132 9.12545-4.647714-7.199896 5.139884-21.287643 5.375822-24.636432 4.201209-3.03928-.385619-6.2333145-.966583-9.5947884-1.77841z" fill="#8b4fba" opacity="0.6" transform="matrix(1 0 0 -1 0 219.197814)"/><path d="M163.912956 152.601073c-20.896952-8.300938-94.7555099 15.744383-127.9186698-21.559098 0 0-2.4836852 1.111189 10.723736 15.914359 51.9265267 24.824168 90.5720608 1.349663 117.1949338 5.644739z" fill="#2b2b2b" opacity="0.2" transform="matrix(1 0 0 -1 0 289.579232)"/><path d="M196.226234 120.431258c6.182575 3.478174 1.159391-5.023184-5.020647-10.043831-24.342145-16.9976406-35.347484 2.344153-59.486672-6.963959 36.930548 20.359116 40.550792-5.0130356 64.507319 17.00779z" fill="url(#q)" opacity="0.7" transform="matrix(1 0 0 -1 0 224.340124)"/><path d="M194.33366 119.882094c6.185112 3.478174 3.051965-.197883-3.128073-5.221067-24.342145-16.9976407-35.347484 2.344153-59.486672-6.963959 23.761181 13.222643 38.663293-9.8307247 62.614745 12.185026z" fill="#8b4fba" opacity="0.2" transform="matrix(1 0 0 -1 0 228.618798)"/><g opacity="0.7" transform="matrix(1 0 0 -1 61.967476 134.210334)"><path d="M12.2004694 34.5889322C.94143459 24.2837949 9.76752343 1.71752289 9.76752343 1.71752289L1.75579921 0c0 0-8.0852961 21.8178684 10.44467019 34.5889322z" fill="url(#r)"/><path d="M31.6335941 51.8783245c8.486136-15.1025315-14.0192489-35.8777087-1.9357016-43.23235992-.1902721-.99195192-6.910683-4.36103671-6.5960997-3.38684352C8.18699645 28.1450502 32.7853746 33.6020542 29.5558226 47.9105168c-17.2462638-23.5303174-17.431462-28.1881786-9.0518784-43.08521614-.1014784-.08118277-1.0223954-1.28370249-1.9407755-.5987229C5.45976291 14.0496924 1.77102098 25.0905486 31.6335941 51.8783245z" fill="url(#s)"/></g><path d="M121.332595 56.3751255c.537836-7.073048 5.4773 4.41685 6.225703 12.347391.644389 29.677375-29.446511 22.500311-30.8215441 46.5101145-2.9276535-27.3154635 29.6317101-26.7142035 24.5958411-58.8575055z" fill="#8b4fba" opacity="0.2" transform="matrix(1 0 0 -1 0 169.399294)"/><path d="M150.507652 45.078199c.532762-7.073048 14.734672 11.132187 15.485612 19.060191-4.76695 50.919353-57.1755 19.950665-70.8776284 38.714032 11.3199224-20.554462 84.5746834 8.037094 55.3920164-57.774223z" fill="#fff" opacity="0.3" transform="matrix(1 0 0 -1 0 146.330868)"/><path d="M246.39972 231.870932c-.768699-.674832-1.400403-1.288776-2.09553-1.821538-.558132-.423673-1.169539-.799143-1.798706-1.111189-1.532324-.740793-3.074797-.837198-4.622343-.015222-2.412651 1.278628-5.002888 1.375033-7.643865 1.085819-.7687-.081182-1.271018-.446505-1.623656-1.164465-2.64605-5.444319-7.055289-8.940252-12.578254-11.152482-.631704-.253697-.928528-.547984-1.040155-1.235501-.279065-1.732744-.398303-3.437582.012685-5.165253.669758-2.762751 2.387281-4.744118 4.703527-6.268832 2.422798-1.598286 5.127199-2.539498 7.917856-3.2397 3.3564-.829586 6.753392-1.390255 10.221418-1.380374 1.763188.002804 3.508618.208298 5.203308.720764 3.785146 1.14417 6.124225 3.673521 6.981718 7.496721.555594 2.483686 1.080745 4.992741 1.334441 7.517017.580965 5.786809-.969119 10.979969-4.794857 15.434874-.065961.086256-.114163.192809-.177587.299361z" fill="url(#k)" transform="matrix(1 0 0 -1 0 432.273126)"/><path d="M235.452731 213.588072c.286677-1.737818 3.54921-2.209693 5.063775-2.158954 2.666347.088794 4.391481 1.643951 6.124225 3.663373.279066.329804.497245.654536.687517.986878 3.016447-2.407577 4.706063-5.667572 4.241799-8.993529-.821975-5.860381-8.03963-9.683582-16.114779-8.54956-5.583852.786458-10.117402 3.742018-12.10638 7.428223 1.476512 1.8875 2.054939 4.284928 4.000789 5.918731 1.897647 1.583064 5.642202 1.811391 8.103054 1.704838z" fill="#f6e8a0" opacity="0.3" transform="matrix(1 0 0 -1 0 414.416476)"/><path d="M39.0944531 85.1749485c1.7454295-.862567 2.9657079-1.050302 4.0489905-.65961-1.2456481 6.342404-1.8976472 12.738084-1.6769316 19.1743545.2486223 7.123787 1.4815855 14.05984 4.607122 20.554461.395766.824513.854956 1.623656 1.3927918 2.384744-.0329805-.126848-.0532761-.256233-.1014784-.372933-1.6820054-4.224041-2.4583156-8.63328-2.7120118-13.159219-.4008399-7.052753.4312835-13.9938795 1.9559973-20.8665075.0380544-.16744.0862567-.329805.1572916-.573353.9970258.669757 1.9661451 1.309072 2.9124317 1.981367.1141633.083719.1167002.390692.0913306.586038-.4820226 4.173301-.4490421 8.3440655 0 12.5173665.6443882 5.96186 2.1158259 11.708077 4.213893 17.304614 2.9225796 7.813842 6.8853133 15.069551 11.7232988 21.850849.1141632.157292.2283265.314583.3348789.474412.0228326.035517.0202957.078646.0532762.208031-.7027383-.248622-1.3623483-.474412-2.0244952-.712886-4.4549043-1.613508-8.818478-3.435046-13.0196861-5.637129-.6570731-.339953-1.2913134-.768699-1.8494449-1.258333-5.9111202-5.236288-9.3994422-11.857757-10.9748952-19.53714-.2334005-1.141632-.4008399-2.303561-.7179601-3.450267.068498 1.273555.1040154 2.552183.2156417 3.825738.527688 6.060801 1.6617098 12.009975 3.7039637 17.751119.5200771 1.458753.1572916 2.775436-.063424 4.145395-.068498.426209-.3703964.816901-.5682794 1.225352-.327268-.31712-.7306449-.583501-.9665823-.958971-1.6794685-2.671421-2.762751-5.604148-3.6481505-8.612984-1.3572744-4.602048-2.1665651-9.336018-2.833786-14.090284-.6190186-4.439683-1.0122476-8.904735-.9944888-13.39262.0228326-4.538624.3703963-9.0366555 1.8798884-13.3697855.7179601-2.060013 1.6845424-3.990641 3.0773342-5.67772.4947075-.603797 1.1111891-1.1188 1.6642467-1.676931.0405914.010147.0761089.015221.1192372.022832z" fill="url(#l)" transform="matrix(1 0 0 -1 0 230.90055)"/><path d="M59.6692104 146.380138c0 0-11.2793306-1.585601-16.0361333-9.343629-4.7593396-7.752954-6.1267619-21.087223-6.1267619-21.087223 0 0-2.4354829-19.887241 5.6371284-31.46847-5.1145143 42.468735 16.5257668 61.899322 16.5257668 61.899322z" fill="#2b2b2b" opacity="0.2" transform="matrix(1 0 0 -1 0 230.860954)"/><path d="M39.0944531 132.513107c-.0431283-.007611-.0786458-.012685-.1192372-.017759-2.3263936.908233-4.145395 2.473538-5.6320544 4.439683-2.1640281 2.866766-3.3005868 6.182575-4.0033251 9.650601-1.0401542 5.170328-1.1289479 10.399005-.6875166 15.625146.2562331 2.986003.6900535 5.961859 1.052839 8.932641.0126848.106552.0152218.210568.0253696.426209-.1826612-.157291-.3120462-.246085-.4160616-.355174-8.6256689-8.942789-15.1126793-19.24539-19.35955278-30.928097-.11162631-.304435-.07357188-.715423.02029569-1.03508 2.53696139-8.103055 6.20287069-15.686033 10.69836639-22.865634 1.8976471-3.029132 3.9881034-5.936489 5.9948399-8.897123.1572916-.233401.3424898-.443969.6291664-.819439.0710349 1.489196.8676408 2.694253.2536962 4.153006-.7839211 1.859593-1.2887765 3.81559-1.184761 5.875603.0431283.761088.2232526 1.471437.7534775 2.176713.525151-1.491734.9310649-2.960634 2.1006041-4.084508.3424898.611407.4109877 1.144169.192809 1.798705-.8118276 2.430409-1.37757 4.914095-1.2228154 7.499258.0482023.791532.2283266 1.570379.4439683 2.366985.7052753-1.940775 1.8748145-3.528913 3.2270149-5.053627.0786458.1167.1522177.192809.1928091.28414 1.8037796 3.729333 4.1149515 7.116177 6.8675546 10.206196.1268481.14968.1217742.413524.1725134.621555z" fill="url(#m)" transform="matrix(1 0 0 -1 0 278.23871)"/><path d="M30.3673057 119.657604c0 0-12.6848071 24.824168-6.7483174 46.142255.7382558.583501-1.1898349-.920917-3.483248-3.561894-.3526377-.40084-4.604585-28.550964 4.0286947-40.961779-11.6040616 13.765552-6.1090031 38.361394-6.6011736 37.643434-1.0350803-1.532325-1.9661451-3.224478-2.5826268-4.992741-5.93648974-27.794949 14.5723065-44.523672 14.5723065-44.523672l.8143646 10.254397z" fill="#2b2b2b" opacity="0.2" transform="matrix(1 0 0 -1 0 275.328096)"/><path d="M224.48291 237.0933c-.522614-.796606-1.128948-1.598285-1.61097-2.481148-.446506-.80168-.535299-1.714986-.241012-2.618144.365323-1.116263 1.111189-1.54501 2.273118-1.382644.931065.14207 1.862129.28414 2.800805.314583.997026.032981 1.065524-.101478 1.179687-1.068061.02537-.256233.05835-.520077.154755-.753477.37547-.956435.931065-1.780947 2.042254-1.928091 1.080745-.14207 1.839297.461727 2.420261 1.291313 1.737819 2.460853.296825 5.786809-2.72216 6.187649-.936138.124311-1.912868-.027906-2.87184-.053276-.185198-.007611-.370396-.040591-.553057-.055813-.045666.053276-.091331.114163-.139533.167439.25877.301899.45919.702739.783921.893011.687516.388155 1.425772.547984 2.273117.451579 5.167791-.591112 10.09457.020296 14.478439 3.117926 2.432946 1.722596 4.231652 3.983029 5.604148 6.606247.010148.017759.02537.035518.035517.053276.172514.476949.525151 1.057913.053277 1.420699-.271455.213105-.898085.119237-1.311609-.015222-1.930628-.63424-3.805443-1.438457-5.76144-1.971219-2.854082-.781384-5.812179-.806754-8.74998-.646925-3.970345.213105-7.874728.844808-11.624357 2.252822-4.201208 1.57799-7.993966 3.805442-11.284405 6.872628-.378007.355175-.761088.702738-1.187298.989415-.715423.476949-1.207593.241011-1.232963-.626629-.020296-.613945.040591-1.245648.177587-1.849445 1.408014-6.131836 5.127199-10.44467 10.624795-13.293678 1.440994-.756015 2.98854-1.28624 4.388943-1.874815z" fill="#e65270" transform="matrix(1 0 0 -1 0 482.135868)"/><path d="M6.16723059 188.536826c-.22325261-22.124841 6.89292421-41.324565 21.71131601-57.627079-.2080309 1.501881-.4845597 3.003762-.6114077 4.503107-.2105678 2.559794-.3475637 5.127199-.4718749 7.699678-.0253696.522614-.1572916.936138-.4515791 1.354737-5.5483347 8.004113-10.6374793 16.284755-14.6966176 25.161583-2.06001269 4.503107-3.82066393 9.127988-4.76441358 14.009101-.30443538 1.57799-.47441179 3.178813-.71542313 4.898873z" fill="url(#n)" transform="matrix(1 0 0 -1 0 319.446574)"/><path d="M187.108394 23.9761636c2.653662 4.589363 5.391043 9.006213 6.3627 14.209521.162365.870178.114163 1.796169.05835 2.694253-.289214 5.01811.230863 9.916982 1.857055 14.696618.144607.423672.317121.870178.306973 1.301461-.005074.357712-.192809.771236-.431284 1.052839-.301898.357712-.71796.230863-1.108652.007611-1.250722-.707812-2.158954-1.747967-2.887062-2.958097-1.481585-2.432946-2.273117-5.124662-2.821101-7.879802-1.509492-7.547461-1.737819-15.178641-1.440994-22.850412.005074-.040591.030443-.076109.104015-.273992z" fill="url(#o)" transform="matrix(1 0 0 -1 0 82.13093)"/><path d="M188.671163 56.80003c.482022 1.024932 2.465926 3.267606 3.262532 3.914531l1.793632 1.14417c-1.80378-4.596974-2.448168-9.275131-2.448168-14.171467 0-4.125099 1.268481-7.955911 1.471438-12.060714.159828-3.38177-1.314146-5.081534-3.067187-7.834137-.791532-1.238038-1.872277-3.919606-3.592337-3.929754-.796606 1.955998-.669758 4.406702-.687517 6.499696-.022832 2.503981-.423672 4.947074-.324731 7.476425.185198 4.774561 2.765288 17.203135 3.592338 18.96125z" fill="#8b4fba" opacity="0.4" transform="matrix(1 0 0 -1 0 85.72139)"/><g transform="matrix(1 0 0 -1 0 455.623478)"><path d="M250.425878 228.961195c-.076109-.060888-.101479-.071035-.109089-.086257-1.950924-4.010936-5.41895-5.76144-9.61001-6.114077-6.923368-.588575-13.565133.707812-19.866945 3.605022-2.656199 1.222815-4.92678 2.998688-6.205408 5.728459-.555595 1.179687-.821976 2.493833-1.2355 3.790284-1.375033.007547-3.011374-1.352264-3.117926-2.818628-.038054-.476949.162366-1.009711.378007-1.456216.870178-1.798705 2.268044-3.161054 3.792758-4.394017 3.919605-3.163591 8.40749-5.160179 13.273382-6.33733 6.390606-1.547546 12.778675-1.593211 19.100783.322195 1.496807.454116 2.912431 1.215204 4.305223 1.955997 1.075672.57589 1.623655 1.560231 1.46129 2.841397-.169976 1.380107-.8854 2.369522-2.166565 2.963171z" fill="#e65270"/><path d="M250.425878 228.961195c-.076109-.060888-.101479-.071035-.109089-.086257-1.950924-4.010936-5.41895-5.76144-9.61001-6.114077-6.923368-.588575-13.565133.707812-19.866945 3.605022-2.656199 1.222815-4.92678 2.998688-6.205408 5.728459-.555595 1.179687-.821976 2.493833-1.2355 3.790284-1.375033.007547-3.011374-1.352264-3.117926-2.818628-.038054-.476949.162366-1.009711.378007-1.456216.870178-1.798705 2.268044-3.161054 3.792758-4.394017 3.919605-3.163591 8.40749-5.160179 13.273382-6.33733 6.390606-1.547546 12.778675-1.593211 19.100783.322195 1.496807.454116 2.912431 1.215204 4.305223 1.955997 1.075672.57589 1.623655 1.560231 1.46129 2.841397-.169976 1.380107-.8854 2.369522-2.166565 2.963171z" fill="#2b2b2b" opacity="0.4"/></g><g transform="matrix(1 0 0 -1 180.904992 181.33853)" fill="#0d0d0d"><path d="M.00306818286 18.3311461C-.0451340845 15.8525348.47494301 13.5210672 1.54046681 11.3088368 3.70449492 6.86661736 7.26638878 3.96179651 11.7314409 2.05653847 15.6256767.392291768 19.7127216-.173450633 23.9266145.0447280505c.0532762.0025369614.1065524.0253696144.2866767.0811827665-2.9479492.454116097-5.6878676 1.187297953-8.3389923 2.245210873-4.5919002 1.83422312-8.63835366 4.44221948-11.78418584 8.33138141-1.68707936 2.0803083-2.95809704 4.3965541-3.825737849 6.9385895-.073571882.2334004-.1699764164.461727-.26130702814.6900535z"/><path d="M34.3966544 53.797867c4.5335501 2.7678249 5.5128172 9.2700571 2.6054594 12.9867056.6849796-4.6426394-.2536961-8.9529369-2.6054594-12.9867056z"/><path d="M41.8730798 28.2836458c2.2147673-1.8164644 4.8836507-2.3187827 7.6641605-2.2705805 1.1111891.0279066 2.2173043.2105678 3.3284934.263844.5987229.0279066 1.2278893-.0101478 1.8215383-.1395329 1.1213369-.2562331 1.6211183-.0837197 2.0041995.991952.8676408 2.4532417 1.2760916 4.995277.9843411 7.5855147-.1420699 1.2405741-.398303 2.5141288-.8955474 3.6506875-1.9331646 4.5234022-7.7935456 6.382995-12.1342866 3.9119945-.5606685-.3171202-1.0858195-.6875165-1.5856009-1.0985043-.527688-.4287465-1.0046367-.9259909-1.5526204-1.4384571.2460853-.2816027.4490422-.5530576.6773687-.788995.525151-.5378359.723034-1.1746132.5632055-1.8900363-.4972445-2.2426739.4744117-3.8384227 2.3492262-4.8633551 1.3395157-.7306449 2.8058794-1.2557959 4.2646322-1.7403555.7534776-.2587701 1.5272508-.4414313 2.3137089-.5987229.2384743.0076109.3424898.0482022.5302249.197883 1.1695392.7560145 2.0067365 1.7479664 2.5217397 3.0468907.2790657-.7661624.2232526-2.039717-.0228327-2.9860037-.1522177-.5835011-.0532762-2.0143473.2460853-2.430409-.0253696-.0253696-.0482023-.0532762-.0634241-.0761089-.1395328.065961-.2739918.136996-.4059138.2156418-1.5018812.920917-3.1813496 1.2126675-4.8963356 1.4257723-2.1158258.2689179-4.1758385.7534775-5.9796181 1.973756-2.169102 1.4689007-3.3335673 3.5111546-3.4604154 6.1369097-.0050739.0811828-.0177587.1572916-.0456653.3729333-1.9661451-3.8384226-1.3648852-6.8802394 1.7733361-9.4527183z"/></g><path d="M225.649912 144.789463c0-2.387281 1.935702-4.322982 4.317909-4.322982 2.389818 0 4.325519 1.935701 4.325519 4.322982 0 2.387281-1.935701 4.322982-4.325519 4.322982-2.382207 0-4.317909-1.935701-4.317909-4.322982z" fill="url(#p)" transform="matrix(1 0 0 -1 0 289.578926)"/><g style="fill:#fff"><path d="M1.53130992 0c-.09392034 0-.18784068.0260322687-.27053142.0775863695L.239905221.715632171C.0908577222.809042077 0 .972381802 0 1.14848244v1.27609161c0 .17610064.0908577222.3399508.239905221.43285027l1.020873279.6380458c.08269074.0515541.17661108.07758637.27053142.07758637.09392035 0 .18784069-.02603227.27053142-.07758637l1.02087329-.6380458c.1490475-.09289947.23990522-.25674963.23990522-.43285027V1.14848244c0-.176100638-.09085772-.339440363-.23990522-.432850269L1.80184134.0775863695C1.71915061.0260322687 1.62523027 0 1.53130992 0z" transform="matrix(-1 0 0 -1 230.132723 145.855748)"/><path d="M244.976485 205.325846c.766162-.476948 1.958534-.273992 2.402502.56828 1.844371 3.50608 1.674395 7.590588-.129385 11.076373-1.03508 1.999126-4.135247.385618-3.102704-1.605896 1.22789-2.382207 1.481586-5.309861.256233-7.646402-.436357-.83466-.279065-1.864667.573354-2.392355z" transform="matrix(1 0 0 -1 0 422.959084)"/></g><path d="M57.2793927 190.982457c-1.0934304 31.252828 18.1773287 21.087223 26.7497214 34.28196.6976644.821975 1.1111891 1.745429 1.4257723 2.460852-9.6201578-5.299712-36.5905948-1.760651-28.1754937-36.742812z" fill="#430a1d" opacity="0.2" transform="matrix(1 0 0 -1 0 418.707726)"/><path d="M42.6056077 175.127057c26.4655818 22.781914 78.7092283 20.295692 82.5324293 19.973498-21.914273-15.63022-87.6570914-.936139-90.0672047-48.511777-4.2671692 13.511857 1.2278893 23.106645 7.5347754 28.538279z" fill="#2b2b2b" opacity="0.2" transform="matrix(1 0 0 -1 0 341.92466)"/><g style="fill:#430a1d"><path d="M84.9069027 206.510672c0 0-.0050739-6.90561 0-11.784186 0-4.87604-6.1292988-2.217305-8.4962838 4.477737 5.9085832 2.316245 8.4962838 7.306449 8.4962838 7.306449z" opacity="0.2" transform="matrix(1 0 0 -1 0 398.73624)"/><path d="M81.6266116 189.100032c4.4320716 7.821452-.1217741 14.587528-.8270494 14.876741 2.5166657.131922 7.3546512 4.855745 8.5089686 6.428661 1.8012427 2.463389 1.910332 6.040505 2.0600127 8.965621 3.5745787.159829 6.0887075 2.349227 9.3436295 3.125537-2.7678254-2.590238-6.5174544-5.654887-8.1969229-9.145746-1.4942703-3.100167-2.7576771-6.669672-3.7597768-9.967722-.8194386-2.701863-1.5856009-5.385969-2.0904563-8.174089-.3754703-2.075235-1.6008226-4.868429-1.37757-6.890388 0 0-.4566531-18.19255 3.1914975-27.17593-6.908146 2.351763-10.52839 7.988891-11.7867229 10.170678-1.4257723 2.468463-4.1073406 8.605373-.786458 12.514831 2.1437324.781384 4.4904217 3.102703 5.720848 5.271806z" opacity="0.2" transform="matrix(1 0 0 -1 0 383.639308)"/></g><path d="M16.9214101 40.3732043C30.8264958 21.2115346 49.427497 8.89712376 72.5493636 3.54667209c7.7022149-1.78348389 15.5338149-2.27311745 23.4339128-2.24267391 19.3265726.08371973 38.6506076.03551746 57.9771796.03805442 12.996854.00507392 25.998781 0 38.995634.0329805 3.092556.00507392 6.177502.2105678 9.135599 1.24057414 2.902283 1.00463673 5.139883 2.7830467 6.390605 5.66249793 1.786021 4.15807983.261307 9.38929433-3.597411 12.20785843-2.828712 2.0650866-6.07856 2.6663465-9.498384 2.5141288-.920917-.0456653-1.839297-.1877351-2.75514-.2816027-.20803-.0228327-.436357-.0710349-.63424-.0253696-.296825.063424-.57589.2105678-.86003.3171201.162366.2384744.279066.527688.492171.7027384 3.533987 3.0062993 5.966933 6.710263 7.131398 11.2057586.42621 1.6363402.550521 3.2980499.395766 4.9749814-.010148.131922-.020296.261307-.025369.3856182-.035518.8676408.263844 1.1365587 1.1188 1.1771501 2.526813.1167002 5.05109.2156417 7.570292.4135247 1.205057.0964045 2.392355.390692 3.752166.4769487-.157291-.2080308-.273991-.5150031-.484559-.6114077-2.014348-.9310648-3.328494-2.4836852-3.990641-4.5538458-.773773-2.4380199-1.316683-4.929316-1.205056-7.5144797.169976-4.1758386 1.796168-7.768176 4.439682-10.9368408 2.377133-2.8413968 5.304787-4.9800553 8.615521-6.6037106.42621-.2080309.540373-.3906921.390692-.8701778-.423672-1.36742221-.370396-2.74752924.10909-4.11241449.29175-.83212335.827049-1.43592017 1.590675-1.86466666 1.740355-.96911927 3.747092-1.10611518 5.644739-.31204625.053276-.27145488.098941-.57842721.164902-.8422712.547984-2.08030838 1.890037-2.90735781 3.917069-4.1250993.471875 0 .943749 0 1.418161 0 .055813 0 .10909.149680725.16744.159828571 3.569504.60125986 5.068849 3.863792269 4.655324 6.953811299-.106553.79660589-.337416 1.58052698-.492171 2.29848707 1.618582.42620952 3.285365.75601446 4.87604 1.31414606 7.344504 2.5547201 12.192637 7.5119428 14.245039 15.064477.819438 3.0215211.312046 5.7284589-2.032106 7.9711328-.147144.1471438-.157292.5023184-.124312.7433297.456654 2.8540816 1.159392 5.6878676 1.342053 8.5597079.441431 6.8142784-1.699764 12.7888226-6.436271 17.7714149-.279066.2892136-.296825.5378358-.223253.8980843.312047 1.5272508.669758 3.0519646.857493 4.5969742.385618 3.1153886-.80168 5.6980154-2.879451 7.9483002-.182661.2004199-.388155.4160616-.476949.6646838-.580964 1.7327447-1.780947 2.9124318-3.366548 3.7090377-3.196571 1.6109705-6.585951 1.9382385-10.079347 1.3572743-2.28834-.3830811-4.378796-1.3471265-6.443882-2.3263936-.91077-.4312834-1.747967-.6469252-2.590238.0913306-.144607.1243111-.370396.1547547-.504855.2714549-.233401.2207156-.624093.527688-.580965.7128862.058351.2841396.395766.6063337.687517.723034 1.610971.6342403 3.270143.9767301 5.015573.9767301 1.309072 0 2.620681.0380544 3.914531.1902721 4.127637.4997814 7.912783 1.9889778 11.467066 4.1098776.238474.1420698.499781.2638439.768699.3069723 4.594437.7027383 8.285716 4.3128344 9.087396 8.8844389.078646.461727.068498.991952.306973 1.3598114 1.948386 3.0088362 2.105678 6.2054077.981804 9.4907727-.712887 2.077771-1.702302 4.069286-2.486223 6.121688-.421135 1.101041-.847345 2.240137-.953897 3.38177-.281603 3.254921-.712886 6.479399-1.585601 9.622694-1.864667 6.7128-5.188086 12.530053-10.523316 17.094046-5.385969 4.604585-11.700466 7.029921-18.694869 7.77325-.616482.063424-.941213.261307-1.215204.870178-1.527251 3.462952-4.038843 5.895898-7.654013 7.159305-.938676.327268-1.874815.40084-2.757677.002537-1.258333-.580964-2.539499-1.159391-3.665909-1.955997-2.953024-2.060013-5.292102-4.736507-7.232878-7.763102-.152217-.228327-.319657-.527688-.545446-.603797-.304436-.098941-.756015-.134459-.989415.027907-.177587.121774-.218179.613944-.149681.900621.081183.337416.34249.636777.54291.933602 5.139884 7.433297 8.410027 15.609924 9.914445 24.522269.053276.279066.251159.580964.45919.791532 1.263407 1.28624 2.567405 2.526814 3.820664 3.823201 2.001663 2.067624 3.229552 4.571604 3.884088 7.349577.169976.728108.253696 1.476512.301898 2.219841.015222.22579-.205493.464264-.31712.697665-.241011-.139533-.555594-.223253-.702738-.423673-.34249-.466801-.580964-1.002099-.898084-1.484122-.208031-.319657-.479486-.591112-.725571-.898084-.076109.180124-.055814.281602-.020296.37547 1.34459 3.424898 2.280728 6.953811 2.732307 10.61211.126848 1.019858.213105 2.049864.238475 3.074797.020295.745866-.476949 1.217741-.974193 1.017321-.266381-.106552-.497245-.332342-.702739-.535299-1.999125-1.981366-4.355963-3.450267-6.77115-4.840522-.053276.073572-.093867.106552-.096404.144607-.065961.360248-.131922.715423-.185199 1.075671-.644388 4.224041-1.758114 8.331382-3.04689 12.405742-.981804 3.110315-1.537399 6.289127-.997026 9.566882.324731 1.95346 1.017321 3.721722 2.676494 4.964833.124311.093868.208031.243548.355175.410988-.192809.098941-.312046.195346-.449042.223252-2.392355.527688-4.865892.218179-6.207945-2.52935-.154755-.306972-.357712-.583501-.63424-1.045228-.301899.603797-.60126.999563-.697665 1.430846-.476948 2.166565-.593649 4.371185-.390692 6.585952.25877 2.734844 1.222816 5.238825 2.412651 7.679382.306972.634241.598722 1.28624.796605 1.955997.352638 1.215205-.324731 2.113289-1.595748 2.092994-.631704-.012685-1.298925-.111627-1.879889-.332342-3.128073-1.17715-5.51028-3.244774-7.093344-6.205408-.129385-.241011-.248622-.479486-.388155-.768699-1.255796 1.220278-2.399966 2.410113-2.996151 4.038842-.380545 1.042691-.887937 2.049865-1.408014 3.024058-.372933.700202-.654536.68498-1.111189.048203-.124311-.169977-.233401-.360249-.36786-.525151-.352637-.423673-.624092-.42621-.898084.053276-.246085.421135-.431283.885399-.596186 1.339515-.816901 2.207157-2.15388 4.038843-3.988103 5.50267-.124311.093867-.266381.167439-.560669.347563.10909-.697664.197883-1.238037.266381-1.780946.073572-.555595.139533-1.11119.210568-1.697228-.164902.020296-.215642.015222-.251159.035518-.177587.114163-.360249.2334-.535299.360248-7.418075 5.124662-15.528741 8.686556-24.293943 10.766865-2.67142.63424-5.472226.86003-7.884876 2.374596-.053276.035517-.121774.053276-.180124.081182-.476949.187735-.82705.08372-1.197446-.286676-.235937-.233401-.657073-.337416-.994489-.332342-1.070598.025369-2.141195.261307-3.206719.3501-.981804.081183-1.991515.304436-2.932728.540373-1.616044.408451-3.186423 1.97883-4.772024 1.97883-.385618 0-.778847 0-1.159391 0-.370397 0-.809291-1.065524-1.111189-1.438457-.525151-.657073-1.16954-1.425772-1.994052-1.479049-5.462078-.339952-10.863269-1.131484-16.183277-2.458315-8.097981-2.009274-15.7037915-5.127199-22.5206069-10.028609-4.9800553-3.584726-9.2522983-7.841748-12.2814303-13.237865-.6190186-1.095967-1.1111891-2.273117-1.6008226-3.429971-.3703964-.895548-.461727-1.839297-.1522177-2.775436.261307-.768699.8397342-1.194909 1.6236553-1.073135 4.4498303.700201 8.219755-.925991 11.6928553-3.450267 3.4553414-2.514129 6.0887074-5.73607 7.5905886-9.764765 2.2122304-5.951712 1.0147846-11.279331-3.1559801-15.995542-.4211355-.476949-.8980843-.908232-1.4105505-1.425772-.1928091.723034-.3551746 1.380107-.5429098 2.03718-.9462866 3.221941-2.2908761 6.230777-4.5842893 8.739832-1.3319047 1.463827-3.483248 2.298487-1.5044181 2.222378 1.8266122-.063424-.657073-.030443-.8853996 0 2.2781914-1.565305.5251511-2.493833.8625669-5.144958.7179601-5.637128-1.0097106-10.487798-4.93439-14.559621-.2384743-.248623-.5987229-.405914-.9361387-.525151-4.1352472-1.466364-8.2984009-2.856619-12.4108154-4.386407-7.3419664-2.72977-14.4302366-6.012598-21.1481105-10.059052-.0913306-.053276-.1877352-.104015-.2866767-.157291-.6367773.410987-.8980843 1.024932-.8701778 1.709912.0355175.913306.1826613 1.826612.2917506 2.737381.0101479.109089.0456653.210568.0532762.31712.2181787 1.610971-.4109877 2.136122-1.8925732 1.415625-.7433297-.362786-1.4257724-.964046-1.9610712-1.600823-1.709912-2.047328-2.7703619-4.472663-3.7876834-6.903072-.5378359-1.283703-.9640454-2.61307-1.5094921-3.894236-.195346-.466801-.5073923-.941213-.8955474-1.268481-5.8172526-4.947074-11.2362022-10.269619-15.8281024-16.398918-3.9373642-5.25151-7.2937641-10.835363-10.02353465-16.80737-.06596099-.157291-.14714376-.309509-.2232526-.464264-.0202957-.03298-.05835012-.053276-.14714377-.129385-.89554738 5.233752-1.07059772 10.44467-.54544671 15.708865-.41859863-1.562768-.88539954-3.117925-1.24818502-4.693378-1.49173333-6.352552-1.95599727-12.781212-1.51202902-19.291055.02283265-.329805-.06088708-.68498-.15982857-1.004637-1.93823854-6.083633-3.275217218-12.301726-3.846033542-18.656814C-1.57811268 78.7320613 3.8180043 58.4312958 16.9214101 40.3732043zm-5.2743428 68.3558887c4.0591383-8.8768278 9.1482829-17.1574699 14.6966176-25.1615832.2917506-.4211356.4262095-.8346603.4515791-1.3547374.1243112-2.5724789.2613071-5.1373469.4718749-7.699678.126848-1.5069551.4033768-3.0088363.6114077-4.5031066C13.0601548 86.315039 5.94397798 105.512226 6.16723059 127.637067c.24862222-1.717523.41098775-3.320883.71542313-4.893799.94374965-4.886187 2.70440089-9.508531 4.76441358-14.014175zm54.4457294 65.499271c-.0329805-.129385-.0304435-.172514-.0532762-.208031-.1065523-.157292-.2207156-.314583-.3348789-.474412-4.8379854-6.781298-8.8007192-14.039544-11.7232988-21.850849-2.0980671-5.596537-3.5695047-11.347828-4.2138929-17.304614-.4490422-4.173301-.4820227-8.344066 0-12.517367.0253696-.195346.0228326-.502319-.0913306-.586039-.9462867-.677368-1.9204799-1.316683-2.9124318-1.981366-.065961.241011-.1192372.400839-.1572916.573353-1.5297877 6.872628-2.3568372 13.808681-1.9559973 20.866508.2587701 4.520865 1.0300064 8.932641 2.7120118 13.159219.0482023.121774.068498.251159.1014785.372933-.5378358-.768699-.9970259-1.560231-1.3927918-2.384744-3.1255365-6.497158-4.3610368-13.430674-4.607122-20.554461-.2207157-6.433735.4312834-12.831951 1.6769315-19.174355-1.0832825-.388155-2.2959501-.202957-4.0489905.65961-.0532762-.210568-.0482022-.476949-.1699764-.619019-2.7526031-3.095092-5.063775-6.481936-6.8675546-10.206195-.0456653-.093868-.1141633-.16744-.1928091-.28414-1.3522004 1.532325-2.5217396 3.117926-3.2270149 5.053627-.2156417-.791532-.395766-1.572916-.4439683-2.366985-.1547546-2.590238.4109878-5.0688488 1.2228154-7.4992579.2181787-.6545361.1496808-1.187298-.192809-1.7987057-1.1695392 1.121337-1.5754531 2.5927746-2.1006041 4.084508-.5302249-.7052753-.7103492-1.4206985-.7534775-2.176713-.1040155-2.0600127.4008399-4.0160099 1.184761-5.8756027.6139446-1.4536789-.1775873-2.6638095-.2536962-4.1530058-.2866766.3754703-.4744118.5835011-.6291664.8194385-2.0067365 2.960634-4.0971928 5.8654549-5.9948399 8.8971238-4.4929587 7.1821378-8.161405 14.7575048-10.69836639 22.8656338-.09386757.319657-.131922.730645-.02029569 1.03508 4.24687348 11.682707 10.72880988 21.985308 19.35955278 30.928097.1040154.109089.2334004.197883.4160616.355174-.0101478-.213104-.0126848-.319657-.0253696-.426209-.3627855-2.975856-.7966059-5.951712-1.052839-8.932641-.4439682-5.231215-.3551746-10.454818.6875166-15.625146.7027383-3.468026 1.8443709-6.781298 4.0033251-9.650601 1.4866594-1.963608 3.3056608-3.53145 5.6345914-4.439683-.5606685.558132-1.1695393 1.070598-1.6667837 1.676932-1.3927918 1.687079-2.3619111 3.620244-3.0773342 5.67772-1.514566 4.330593-1.8545188 8.826088-1.8798884 13.369786-.0228327 4.492959.3703963 8.9504.9970258 13.39262.6672209 4.754265 1.4765116 9.480625 2.8337859 14.090284.8879365 3.008836 1.9636082 5.941563 3.6481506 8.612984.2359374.370396.6393143.641851.9665823.958971.195346-.408451.4947075-.799143.5708163-1.225352.2232526-1.372496.5809642-2.689179.0608871-4.145395-2.0447909-5.743681-3.1762757-11.687782-3.7039637-17.751119-.1116263-1.273555-.1446068-2.552184-.2156417-3.825738.3171201 1.146706.4820226 2.308635.720497 3.450267 1.5754531 7.679383 5.0587011 14.300852 10.9748952 19.53714.5555945.489634 1.1898349.91838 1.8469079 1.258333 4.2012082 2.197009 8.5647818 4.023621 13.0196861 5.637128.657073.233401 1.3090721.461727 2.0194213.705276zm129.6082863 59.060462c.010148-.431283-.164903-.877789-.312047-1.301461-1.628729-4.779636-2.148806-9.681045-1.854518-14.696618.053276-.898084.104015-1.826612-.055814-2.694253-.974193-5.200771-3.711574-9.620158-6.365236-14.209521-.071035.197883-.098941.233401-.098941.263844-.294288 7.664161-.065961 15.302952 1.440994 22.850412.553057 2.757677 1.339515 5.446856 2.821101 7.879802.728108 1.207594 1.63634 2.247748 2.887062 2.958097.388155.220716.799143.350101 1.108652-.007611.228327-.273992.418599-.687516.428747-1.042691zm3.166128-40.639585c-1.210131-.875252-2.481149-1.697227-3.810517-2.369522-4.678156-2.351764-9.635379-4.026158-14.534252-5.832475-.953897-.3501-1.86974-.852419-2.722159-1.41055-1.69469-1.111189-2.95556-2.668884-4.048991-4.353426-.522614-.796606-1.012247-1.618581-1.522177-2.427872.015222.271455.098942.509929.164903.756014.578427 1.968683 1.2355 3.922143 1.702301 5.921268.646925 2.788121 1.671858 5.39358 3.224478 7.783398.837197 1.291313 1.773336 2.526814 2.592775 3.838423.51754.821975.969119 1.714986 1.329367 2.618144.213105.54291.187736 1.17715.276529 1.768262-.088793.043128-.172513.086257-.263844.126848-.25877-.218179-.555594-.408451-.773773-.662147-.900621-1.032543-1.765725-2.100604-2.691716-3.115388-.20042-.22579-.646925-.446506-.872715-.365323-.215642.078646-.446505.558132-.413525.837197.114164 1.1188.180125 2.273118.530225 3.328494.482023 1.453679 1.240575 2.816027 1.806317 4.254484.276529.700202.456653 1.476512.520077 2.227452.030444.355175-.314583.740793-.48456 1.108652-.301898-.205493-.649462-.370396-.898084-.631703-.441431-.464264-.791532-1.007174-1.248185-1.463827-.449042-.443968-.865104-.370396-1.123874.195346-.182661.395766-.370396.882863-.306972 1.283703.154754 1.007174.426209 1.996588.684979 2.991077.238475.903159.575891 1.796169.761089 2.706938.126848.616482-.030444 1.22789-.677369 1.692153-.180124-.263843-.378007-.489633-.494707-.756014-.253697-.54291-.456653-1.111189-.687517-1.654099-.545447-1.253259-1.024932-2.549646-1.669321-3.752166-.570816-1.057913-1.128947-.964045-1.740355.063424-1.184761 2.009274-2.3543 4.033769-3.676057 5.951712-.728108 1.052839-1.149244 2.136121-1.263407 3.369085-.147144 1.638877-.228327 3.292975-.398303 4.93439-.065961.611407-.230863 1.248185-.900621 1.826612-.14207-.692591-.261307-1.26087-.372934-1.831686-.164902-.837198-.279065-1.689617-.509929-2.509055-.157291-.578427-.624092-.636778-.913306-.121774-.261307.4668-.438894 1.024932-.476949 1.557694-.068498 1.004637.022833 2.014347-.030443 3.021521-.022833.456653-.187735.915843-.360249 1.349663-.071035.185199-.319657.30951-.487096.461727-.10909-.187735-.261307-.360248-.322194-.565742-.078646-.241011-.088794-.502318-.126849-.758551-.109089-.740793-.169976-1.499345-.345026-2.219842-.185198-.783921-.679906-.915843-1.164466-.281602-.446505.580964-.796605 1.26848-1.022395 1.963608-.34249 1.080745-.487097 2.21223-.814365 3.303124-.152217.509929-.499781.97673-.827049 1.41055-.124311.157292-.476949.25877-.674832.20042-.144607-.038054-.286677-.370396-.29175-.578427-.020296-.832124.015221-1.669321.027906-2.503981.002537-.413525 0-.82705 0-1.273555-.182661.040592-.256233.038055-.299361.065961-.104016.071035-.208031.157292-.291751.251159-.857493.91077-1.430846 1.968683-1.613507 3.224478-.078646.555595-.106553 1.11119-.210568 1.656636-.129385.644388-.512466.890474-1.167002.809291-.687517-.081183-1.121337-.580964-1.192372-1.453679-.05074-.568279-.010148-1.136559-.010148-1.791095-.783921.40084-1.476512.7687-2.181787 1.116263-7.212581 3.569505-14.823466 5.781735-22.80982 6.715337-5.157643.60126-10.315285.616482-15.4298-.421135-3.092556-.62663-6.037968-1.633804-8.592688-3.569505-.37547-.279066-.720497-.603797-1.080746-.908232 2.843934 1.646488 4.508181 2.318782 7.075586 2.805879 4.67562.898084 9.353777.763625 14.021786.086257 8.217218-1.194909 15.985394-3.785147 23.284232-7.768176 5.654887-3.084945 10.766864-6.867555 14.899574-11.87298.312047-.370396.603797-.758551.898085-1.139095-8.460767 4.041379-18.017501-3.561894-27.576771-.187736 13.100869-6.753391 20.858897 1.94585 28.246528-3.683668 1.879889-1.430846 2.214768-5.122125-2.080308-4.503106-4.09973.586038 6.174964-1.443531 8.016798-12.121602-.104015-1.742892-.3501-3.516228-.748403-5.330156-1.763189-7.999039-5.489985-15.064477-10.604499-21.40688-5.266732-6.535213-11.883128-11.398568-19.313888-15.201473-.106552-.012685-.225789-.053277-.372933-.111627.020296.091331.017759.134459.03298.157292.104016.164902.210568.324731.317121.487096 3.551746 5.279417 6.471788 10.853122 7.887413 17.114342.974193 4.287465 1.090893 8.585078-.263844 12.831951-1.514566 4.741581-4.543698 8.351677-8.501358 11.243813-4.434609 3.242237-9.445107 5.266732-14.668711 6.819353-1.116263.332342-2.252822.626629-3.516229.974193.14207-.152218.157292-.192809.192809-.205494.213105-.091331.436358-.17505.657073-.261307 3.648151-1.425772 7.123788-3.166128 10.274694-5.517891 4.536087-3.371622 7.874729-7.618495 9.386758-13.14146 1.334441-4.881114 1.037617-9.764765-.152218-14.623046-1.539936-6.296738-4.39148-11.997291-7.8316-17.444147-.788995-1.245648-1.725134-2.075234-3.140758-2.49637-1.709912-.507392-3.386844-1.164465-5.238826-1.816464 5.241363 5.624443 5.385969 13.539763 4.381333 18.184939-.015222-.081183-.040592-.134459-.043129-.190272-.180124-3.785146-1.4689-7.194823-3.584726-10.305137-3.15598-4.64264-7.43076-8.026946-12.256061-10.779549-.372933-.213105-.829586-.281603-1.245648-.416062 1.74543 2.01181 3.082408 4.203745 3.863792 6.715337.761089 2.430409 1.024933 6.240925.520078 7.608347-.796606-2.656198-1.626193-4.386406-3.399529-6.646839-3.044354-3.876477-6.580878-7.232877-10.678071-10.023534-2.7449918-1.879889-5.624443-3.435046-8.719536-4.61727-5.4722258-2.098067-11.180389-3.384307-16.8581087-4.774562-4.9876662-1.220278-9.9727955-2.486222-14.9224072-3.868866-2.699327-.756014-5.2971755-1.86974-7.5423864-3.630392-.4008399.893011-1.1543174 4.048991-1.182224 6.555509-.327268 29.545453 23.1827536 45.338038 30.3471327 53.603458 2.0853823 2.407576 3.2828281 5.358062 4.3305932 8.341529.4262095 1.210131.791532 2.43802 1.1949088 3.693816.065961-.088794.134459-.149681.1649025-.213105 2.0016626-3.843496 3.2320889-7.768176 2.2731175-12.218006-1.4714377-6.806668-4.211356-12.885227-9.3715356-17.705454-.0558131-.053276-.1014784-.121774-.2790657-.324731.2536961.129385.3424898.162366.4236725.218179 4.2443365 2.445631 8.1233506 5.352988 11.4036417 9.016361 5.5153542 6.149594 8.4785247 13.346954 8.8844387 21.612374.177588 3.599948-.31712 7.154231-.7179598 10.708514-1.0731347 9.46033-7.9812807 17.119416-17.2690966 19.379849-.6976643.169976-1.4080135.410988-2.03718.743329-.8930104.474412-1.1365587 1.250722-.7991428 2.189398.1217741.337416.3018984.664684.4947074.969119 1.646488 2.562332 3.7394812 4.680694 6.3144971 6.322108 1.3217569.839735 2.6409768 1.676932 3.9145315 2.587701 5.2261405 3.734407 10.8455102 6.631617 17.0610652 8.336455 2.564868.702739 5.157643 1.324294 7.854433 1.088357.842271-.076109 1.664247-.388155 2.503981-.487097.350101-.045665.728108.20042 1.098504.312046-.208031.233401-.372933.54291-.629166.687517-1.623655.933602-3.417287 1.222815-5.25151 1.283702-2.701864.091331-5.332693-.421135-7.963522-.956434-.263844-.053276-.540373-.053276-.811828-.076109 2.15388 1.86213 4.596974 3.06465 7.240488 3.858719 4.353426 1.321756 8.798182 1.618581 13.301289 1.240574 1.440994-.121774 2.904821-.180125 4.231652-.933602 1.303998-.735719 2.676494-1.352201 4.02362-2.006737.291751-.142069.616482-.213104.928528-.31712.048202.053276.091331.098942.139533.152218-.14207.365322-.25877.740793-.438894 1.085819-.48456.953898-1.014785 1.884963-1.506955 2.83886-.088794.180124-.045666.438895-.05835.65961.202956.010148.431283.086257.606333.02537 1.035081-.345027 2.090457-.649462 3.074798-1.111189 1.408013-.669758 2.874377-.898085 4.409239-1.0021 2.090456-.144607 4.185986-.34249 6.263757-.639314 3.049428-.438895 5.373285-2.011811 6.88024-4.739044.355174-.636778.728108-1.26087 1.111189-1.882426.136996-.220715.324731-.40845.489633-.60887.071035.03298.154755.060887.228327.101478-.476949 1.623655-.951361 3.244774-1.448605 4.957223 1.57799-.360249 3.224478-1.453679 4.525939-2.988541.662147-.766162 1.248185-1.585601 1.902721-2.351763.261307-.304436.613945-.527688.920917-.791532.086257.048202.175051.086257.263844.136996-.126848 1.085819-.256233 2.169102-.378007 3.259995.063424.022833.134459.048202.20042.065961.984341-.598723 1.955997-1.215204 2.940338-1.813927 3.343715-2.014348 6.476863-4.282391 8.826089-7.478963.322194-.441431.563206-.378007.733182.157292.208031.672295.347564 1.367422.578427 2.034643.065961.202957.350101.479486.512466.469338.22579-.017759.540373-.241011.613945-.446505.157292-.431284.223253-.905695.253696-1.375033.063424-.938676.040592-1.882426.139533-2.816027.030444-.286677.337416-.553058.51754-.819439.241012.213105.573354.380544.695128.649462.372933.768699.651999 1.583064.999562 2.366985.319658.725571.50993.738256.974194.121774.60887-.814364 1.29385-1.471437 2.443094-1.390255 1.065523.081183 1.199982.002537 1.595748-.989415.677369-1.692153 1.253259-3.417287 1.948387-5.099292.329805-.80168.83466-1.532325 1.232963-2.303561.098941-.182661.182661-.443968.134459-.624093-1.413088-4.553845-1.801243-9.244687-1.849445-13.973583-.043128-4.376259.045665-8.752517-.104015-13.121165-.114164-3.417287-.687517-6.750854-3.237163-9.38422.352637.111626.687516.238474 1.004637.40084 1.641414.852419 2.98854 2.077771 4.163153 3.488322 2.60546 3.115388 4.315372 6.722948 5.835012 10.454818 1.215204 2.98854 2.440556 5.974544 3.716648 8.937715.31712.735719.844808 1.385181 1.316683 2.052402.114163.157291.451579.337416.580964.271455.190272-.08372.372934-.36786.40084-.583501.065961-.482023.065961-.989415.043128-1.471438-.109089-2.443094-.312046-4.883651.10909-7.319134.060887-.372933.167439-.791532.073572-1.134022-.915843-3.341178-2.105678-6.568193-4.168228-9.407053-.060887-.088793-.104015-.197883-.2334-.449042 1.466363.654536 2.453241 1.623656 3.252384 2.762751.799143 1.14417 1.499344 2.359374 2.285802 3.622781.334879-1.354737.654536-2.658735.974194-3.962734.454116-1.892573-.114164-3.445193-1.641414-4.558919zm1.659172-19.577732c-3.752166-3.541598-8.194385-6.040505-12.862394-8.161405-6.317034-2.87184-12.935967-4.863355-19.684284-6.431197-2.410113-.560668-4.837985-1.045228-7.418075-1.598286 1.037617 1.28624 1.955997 2.43802 2.902284 3.577116.088793.109089.289213.157292.451579.180124 4.226578.438895 8.293327 1.532325 12.207858 3.161054 9.05949 3.759777 16.817518 9.442571 23.730738 16.332958.063424.063424.109089.144607.157291.215642-.235937-.071035-.410988-.187735-.588575-.30951-5.832474-4.04899-11.832388-7.823989-18.139274-11.091595-4.038843-2.080308-8.153794-3.995714-12.578255-5.127199-1.042691-.266381-2.108215-.443968-3.328493-.692591.167439.289214.235937.395766.296824.507393 1.387718 2.430409 2.917506 4.802468 4.127636 7.324207.753478 1.585601 1.813928 2.74753 3.153443 3.769925 5.023184 3.823201 10.558834 6.773687 16.20611 9.536438.053276.022833.114163.015222.296825.048202-2.148807-3.409676-4.221504-6.728021-7.922931-8.597762.956434.157292 1.907795.31712 2.823638.596186 2.841397.870178 5.231215 2.544572 7.476425 4.421924 2.744993 2.290876 5.401191 4.703526 8.186775 6.961422 1.433383 1.167002 2.968245 2.293413 4.624881 3.100167 1.742892.839734 3.67352 1.273555 5.533113 1.849445.476948.157291.986878.182661 1.684542.304435-.228327-1.17715-.324731-2.209693-.63424-3.168665-2.123437-6.481936-5.76144-12.027734-10.703441-16.708428zm-34.205851-50.140506c-1.372496-.763625-2.833786-1.448605-4.330593-1.905258-3.067186-.928527-6.258684-.943749-9.440033-.936138-2.250285.002537-4.503107.03298-6.750855.007611-.565742-.007611-1.126411-.185199-1.684542-.286677 0-.101479-.005074-.205494-.010148-.312046.48456-.185199.956434-.410988 1.451142-.553058 1.567842-.446505 3.143295-.847345 4.706063-1.283702.306973-.088794.586038-.263844.8854-.40084-.010148-.060887-.022833-.124311-.032981-.182662-.202957-.081182-.403376-.195346-.619018-.243548-3.145832-.626629-6.276443-1.387718-9.452719-1.83676-5.373284-.763625-10.700903-1.69469-15.904211-3.277754-.443968-.131922-.931065-.197883-1.387718-.16744-5.261658.36786-10.520779.74333-15.782437 1.128948-6.083633.443968-12.1698038.502319-18.2432895-.139533-6.9030721-.728108-13.5828915-2.366985-20.0445323-4.863355-9.2878158-3.5898-17.7054539-8.7093883-25.6156996-14.7042282-.134459-.1014785-.263844-.2232526-.3932291-.332342.2613071.0507393.4591901.1572916.6519991.2739919 7.2252662 4.3128344 14.673785 8.1614053 22.5459763 11.1600933 6.6747456 2.539498 13.5270784 4.373722 20.6077378 5.312397 5.1170512.677369 10.2518612.832124 15.4095033.799143 5.76144-.030443 11.535564 0 17.297004.002537.073571 0 .14968-.010148.2334-.017759-.022833-.050739-.02537-.076108-.035517-.086256-.136996-.05074-.273992-.111627-.413525-.164903-5.152569-2.014347-10.038757-4.531013-14.498735-7.816378-1.347126-.999563-2.795731-1.747966-4.340741-2.3289306-1.1999826-.4541161-2.4075762-.8980843-3.6329286-1.2837025-6.2891274-1.9864408-12.7989705-2.960634-19.273296-4.1301732-5.3352299-.9615084-10.662849-1.9483864-15.9498766-3.1153887-4.8176898-1.0629868-9.4704771-2.694253-13.7959963-5.1525686-7.4231492-4.2164299-11.7892598-10.52839-12.9790947-19.0043782-.1877352-1.3319047-.2942875-2.6815682-.4287465-3.876477-.2587701.4820226-.5403728 1.0655238-.8727147 1.6236553-2.8134903 4.7314331-4.7821724 9.7698385-5.396117 15.2725078-.8270494 7.435834 1.2938503 13.8492725 6.6798194 19.1185414.2207157.2156418.3703964.5048554.5150032.7915323.7763102 1.572916 1.4181615 3.224478 2.3187828 4.713674 2.5750158 4.224041 6.2079446 7.40539 10.3000634 10.09457 5.4341714 3.56443 11.3681242 6.055727 17.4948861 8.12335 9.6632861 3.267606 19.605638 5.401191 29.5961921 7.321671 8.1411094 1.562768 16.2974404 3.064649 24.4334754 4.645176 6.347478 1.22789 12.519905 2.968245 18.362527 5.847696 7.329282 3.60756 14.113117 7.94069 19.859334 13.798534.190272.197883.555595.304435.844808.314583 3.843497.109089 7.664161.469338 11.43916 1.182224 10.574055 2.004199 20.257637 6.121688 29.126854 12.19771.147144.093868.299361.164903.540373.312047-.053277-.31712-.076109-.507393-.121775-.690054-.745866-3.305661-1.714985-6.547897-2.973318-9.691192-6.159743-15.384135-16.40653-27.19369-30.895117-35.258691zm85.051632-80.5180817c-.256233-2.5268136-.781384-5.0307945-1.334441-7.5170167-.857493-3.8232009-3.196572-6.3525515-6.981718-7.4967211-1.69469-.5124662-3.435046-.7154231-5.203308-.7206492-3.468026-.0074587-6.865018.5506728-10.221418 1.3802592-2.795731.7002014-5.495058 1.6414141-7.917856 3.2396998-2.313709 1.5247138-4.033769 3.5060807-4.703527 6.2688317-.410988 1.7276707-.29175 3.4350458-.012685 5.1652535.111627.6875165.408451.9894149 1.040155 1.2355002 5.522965 2.2046195 9.932204 5.7030893 12.578254 11.1524825.352638.720497.854956 1.0858195 1.623656 1.1644653 2.640977.2917505 5.231214.195346 7.643865-1.0858195 1.547546-.8219755 3.092556-.728108 4.622343.0152217.629167.3069724 1.240574.6875166 1.798706 1.1111892.695127.5302249 1.326831 1.1467065 2.09553 1.8215383.063424-.1116263.111626-.2131048.177587-.2942876 3.825738-4.4599782 5.370748-9.6506013 4.794857-15.4399473zm-40.847616-11.2844045c.42621-.2765287.806754-.6342403 1.187298-.984341 3.290439-3.0671864 7.083197-5.2946385 11.284405-6.8726285 3.752166-1.4080136 7.654012-2.039717 11.624357-2.2528218 2.937801-.1572916 5.895898-.131922 8.74998.6469252 1.955997.5327619 3.830812 1.3369787 5.76144 1.971219.410987.134459 1.032543.2283265 1.311609.0152218.471874-.3627855.119237-.9386757-.053277-1.4206984-.010147-.0202957-.025369-.0380544-.035517-.0532762-1.372496-2.6206812-3.171202-4.8861877-5.604148-6.6062476-4.383869-3.0976299-9.310648-3.7090376-14.478439-3.1179256-.847345.0964045-1.580527-.0583501-2.273117-.4515791-.324731-.1851982-.525151-.5860381-.783921-.8930105.048202-.0532762.093867-.1141632.139533-.1674394.182661.0202957.367859.0532762.553057.0558131.958972.0304436 1.935702.1775873 2.87184.0532762 3.018985-.4008399 4.459979-3.73187025 2.72216-6.18764892-.580964-.82958639-1.339516-1.42577233-2.420261-1.29131337-1.111189.14714376-1.664247.97165623-2.042254 1.92809069-.091331.23340045-.129385.49724444-.154755.75347755-.114163.9665823-.182661 1.10104126-1.179687 1.06806076-.936139-.02790658-1.867203-.17251338-2.800805-.31458322-1.159392-.16236553-1.907795.26384399-2.273118 1.38264399-.294287.90315827-.205494 1.81646442.241012 2.61814422.476948.8777886 1.088356 1.6769315 1.61097 2.4811483-1.402939.5860381-2.947949 1.116263-4.386406 1.8621297-5.497596 2.8490077-9.221855 7.1618421-10.624795 13.2936779-.144606.5987229-.20042 1.2329633-.180124 1.8494449.030444.8803256.51754 1.1137261 1.232963.6342403zm2.869304 7.6743717c.410988-1.2964506.684979-2.6105966 1.232963-3.7902837 1.278629-2.7297705 3.551746-4.5005696 6.207945-5.7284589 6.301812-2.89721 12.948651-4.1935973 19.866945-3.6050222 4.19106.3551746 7.66416 2.105678 9.61001 6.114077.00761.0152218.035517.0253697.109089.0862567 1.281165-.5936489 1.996589-1.5830639 2.169102-2.9733188.157292-1.2786285-.388155-2.2680435-1.463827-2.8388598-1.390255-.7407928-2.808416-1.5044182-4.305223-1.9559973-6.322108-1.9154059-12.715251-1.8697406-19.10332-.3221941-4.865892 1.1771501-9.356314 3.1737388-13.270845 6.3373297-1.529788 1.2329632-2.92258 2.5927746-3.792758 4.3940172-.215641.4465052-.416061.984341-.380544 1.4562159.114163 1.4739746 1.74543 2.8337859 3.120463 2.8262383zM12.6035018 70.9943289c-5.13227303 8.9275673-7.80369343 18.4031183-7.80968452 19.8567972-.0143046 4.5436979.33833304 9.0721741 1.01823871 13.5828919.15729161 1.045228.36532245 2.082845.54544671 3.125536.19280907-.190272.2562331-.383081.31458322-.580964.75855147-2.519203 1.41816144-5.073923 2.28580225-7.5550712C13.5193448 86.4215914 20.4553974 74.7591797 29.0506228 64.0455915c.3120462-.3906921.5809641-.852419.7357188-1.3268308 1.8672036-5.7512916 4.5462349-10.9698213 7.9812807-15.6987174-3.8536445 1.641414-8.2400508 2.2325261-13.4687283 8.2476616 6.4210494-12.3829087 21.6326702-17.2893922 21.6326702-17.2893922 8.4633033-7.5728299 18.3143246-12.5782548 29.2257957-15.5744062.8828626-.2410114 1.7707991-.4338204 2.6612726-.6469252-.1928091.1877351-.4109878.263844-.6291664.3501007-8.1208136 2.9048208-15.6023129 6.9538113-22.3759999 12.2941151-8.4303229 6.646839-14.805707 14.8361505-18.6162231 24.933257-.4059138 1.0858195-.5987229 2.0980671-.1801242 3.2194041.2841397.7610884.4312834 1.5703791.6672208 2.3492263 1.7910948 5.85277 4.5944372 11.114428 9.1026177 15.3613015 4.3128344 4.0692861 9.4958466 6.5276018 15.1177532 8.1867745 6.7330956 1.973756 13.6894439 2.701864 20.6128117 3.6100962 4.0160099.522614 8.0117242 1.1568544 12.0150493 1.7682621 1.0756717.1598286 2.1386585.4262095 3.2828281.6621469-.0862566-.1420698-.1116263-.2054938-.1572916-.2562331-3.1255365-3.5086176-5.7284589-7.3622621-7.7986194-11.5888398-.1243111-.2613071-.4109878-.5200771-.6875166-.6063338-1.8494449-.5835011-3.683668-1.2760916-5.5813151-1.6566358-2.8134903-.5606685-5.6929415-.7763102-8.5064317-1.3293678-15.0873097-2.9936145-19.73756-11.0789106-19.6690621-11.0053387 4.5817524 4.865892 11.911034 6.2383881 13.8492725 6.9132199 4.5132544 1.5703791 9.1939483 1.9965886 13.9329922 1.9509233 1.3877179-.0202957 2.7703619-.1014784 4.1961343-.1572916-4.2544844-13.8873269-3.6963529-27.4245531 2.0676235-40.6852506.0050739.2511592-.0532762.4896336-.1116263.728108-2.2553587 8.5647818-3.1686648 17.2285051-1.8798884 26.046983 1.5551574 10.7085143 6.2104816 19.8314276 13.986268 27.3484444 5.827401 5.6320543 12.679734 9.6861187 20.031848 12.9537249 6.984255 3.105241 14.323684 5.025721 21.726538 6.811742 5.571167 1.342052 11.165167 2.658735 16.665299 4.279854 7.367336 2.158954 14.037008 5.705626 19.717265 10.946988.882862.811828 1.768262 1.641414 2.49637 2.590238 4.787246 6.19526 10.624794 11.04593 17.806932 14.206984.454116 1.51964 1.245648 3.122999 2.483685 4.797394 1.753041 2.349226 3.92468 4.284928 6.263758 6.022746.664684.489634 1.542473.771237 2.369522.933602.898084.185198 1.43592-.248622 1.74543-1.1188.081182-.246085.139532-.49217.185198-.74333.476948-.164902.956434-.423672 1.425772-.788995.322194-.248622.63424-.51754.915843-.799142 1.321757-1.329368 2.250285-2.912432 2.998689-4.609659.162365-.36786.380544-.512467.761088-.560669.890473-.1167 1.783484-.241011 2.663809-.410988 14.290704-2.826175 24.689709-13.68437 26.506174-29.29683.159828-1.408014.152217-2.866767.573353-4.185987.540373-1.676931 1.430846-3.239699 2.171639-4.853207.651999-1.418161 1.364885-2.808416 1.930628-4.264632.580964-1.489196.651999-3.0418168.200419-4.607122-.157291-.5378358-.469337-.6799056-.890473-.4185986-.586038.3703964-1.116263.8346603-1.679468 1.2532589-.682443.5099293-1.31922 1.0934304-2.057476 1.4968073-.598723.3323424-1.283703.2638444-1.821538-.3526376.124311-.0938676.228326-.1674395.319657-.2536962 1.471437-1.3116091 2.947949-2.6105333 4.394017-3.947512.172513-.1572916.296824-.4769487.281603-.723034-.129385-2.0726975-.816902-3.9525859-2.28834-5.4443192-1.897647-1.9204799-4.127636-2.9454123-6.897998-2.2959501-.068498-1.0325434-.14207-1.2101307-.733182-1.5297878-3.856181-2.0879193-7.938152-3.3183456-12.357539-3.2346258-3.24731.0558131-6.180038-.9741932-8.973232-2.5369615-.867641-.4845596-1.798706-.920917-2.755141-1.1746131-3.018984-.8016798-6.119151-1.0325433-9.237076-1.1137261-.256233-.0050739-.504855-.0202957-.761089-.0329805.159829-.1801242.319658-.2359374.476949-.2714549 2.486222-.588575 5.007962-.6646839 7.54746-.4794857.821976.0583501 1.747967.2359374 2.46339-.0532762 2.09553-.852419 4.127636-1.8722775 6.144521-2.9098947.565742-.2917506 1.065523-.4312835 1.638877-.2181787 1.281165.4794857 2.567405.9538975 3.81559 1.509492 2.653661 1.1796871 5.36821 1.8900363 8.300938 1.4866594 1.600822-.2181786 3.166127-.5708163 4.563993-1.4257723.903158-.5581315 1.621119-1.2684807 1.689616-2.4253351.015222-.1623655.159829-.3424898.291751-.464264.37547-.3475637.791532-.6596099 1.169539-1.0046367 1.116263-1.0300063 1.590675-2.3086349 1.451142-3.818127-.119237-1.2684807-.494707-1.4790485-1.598285-.91838-.532762.2689179-1.088357.4896336-1.646488.063424.707812-.4515791 1.402939-.8574929 2.062549-1.314146.994489-.6799056 1.34459-1.6591728 1.311609-2.8388598-.104015-3.2828281-3.975418-6.187649-7.298838-5.4544671-1.098504.2410113-2.075234.6748317-2.676494 1.7124489-.078646.136996-.304435.2816028-.456653.2714549-.867641-.0482022-1.753041-.0431283-2.590238-.2308635-1.534861-.3475637-3.051964-.7154231-4.632491-.4160616-.728108.1395328-1.446068.3399528-2.199546.5124662-.588575-2.0498649-1.557694-3.8714032-2.854082-5.5229651-3.006299-3.8206639-6.956348-6.2409251-11.515268-7.7351954-5.91112-1.9407755-11.987142-2.1538803-18.065702-1.2811655-8.790571 1.2557959-15.023886 6.0278203-18.382823 14.3059255-.832123 2.0473279-1.260869 4.2570213-1.887499 6.3956798-1.004637 3.4401197-2.3543 6.7483174-4.137784 9.8738539-2.874377 5.0181097-6.646839 9.148283-11.814629 11.8729795-5.804568 3.0595755-11.974458 3.6709832-18.365064 2.5344245-1.212668-.2156417-2.402503-.527688-3.747092-.8295864 2.336541-.1395328 4.485348-.1877351 6.613858-.4033768 5.926342-.596186 11.482288-2.3771329 16.533378-5.5737043 6.002451-3.8079791 10.495409-8.8007192 12.372761-15.8839156 1.004637-3.7826095 2.410113-7.4535927 4.170764-10.9698212 1.16954-2.3543003 2.46339-4.609659 4.26717-6.5453605 3.003762-3.2143302 6.773687-5.0307946 10.929229-6.2003338 1.278629-.3577116 2.54711-.7534776 3.80798-1.1593914.624092-.2029569 1.014784-.6443882 1.260869-1.2760916.695128-1.8063165.895548-3.6506875.520078-5.5508716-.580965-2.9885406-2.044791-5.525502-4.0084-7.7935455-1.689616-1.9534604-3.805442-3.3843066-5.921268-4.8126159-1.027469-.6875165-2.029569-1.4359202-2.968244-2.2452109-.811828-.6900535-1.306536-1.6388771-1.255796-2.7221596.088793-1.9357016.202957-2.2426739 2.131047-1.6008227.301899.1014785.60126.2207157.898085.3501007 1.575453.6773687 3.140758 1.3674222 4.726359 2.0295692 3.036743 1.2710176 6.190186 1.7403555 9.429885.9615084 3.587264-.857493 6.119151-2.965708 7.258247-6.5681932.233401-.7382558.289214-1.5221769-.104015-2.18432381-.192809-.32726802-.682443-.64946213-1.045228-.65960997-.327268-.01014785-.712887.36278548-.981805.65453605-.162365.18266123-.157291.52261403-.2334.79153193-.370396 1.3902549-.97673 2.6181442-2.341615 3.292976-.261307.129385-.553058.1623655-.832124.2460852 1.819002-1.8874993 2.800806-4.0236208 2.671421-6.59863666-.098942-1.95599727-1.633803-3.22955191-3.602486-3.11792561-.573353.0329805-.97673.30189842-1.040154.86002993-.076109.67736871-.048202 1.36234829-.060887 2.04479092-.020296.81182766.040592 1.63887709-.073572 2.43548298-.180124 1.30653514-.986878 2.15641724-2.240137 2.55979414-.606333.192809-1.189835.0887936-1.75304-.197883.791532-.1623656 1.547546-.4008399 1.948386-1.1416327.380545-.7103492.773774-1.45114193.966583-2.22491517.410987-1.66932062.213104-3.28029114-1.321757-4.30522356-.687517-.45919002-1.623656-.64946213-2.471001-.76616235-1.821538-.25369615-3.56443.26130703-5.325082.66722086-1.055376.24608526-2.148806.40845079-3.224478.41098775-1.017321.00253696-2.044791-.21310476-3.051964-.39322902-6.134373-1.10611519-12.299189-.63677733-18.545188-.56320544-6.755929.08371972-13.511857.04312834-20.267785.04820226-12.093696 0-24.189928.00507393-36.293771.00507393-4.995277 0-9.9905539-.05073923-14.9858309-.01775873-6.8903873.04312834-13.7021288.81943854-20.3641895 2.56740497-25.3772253 6.6366911-44.3689186 20.3743373-56.8862863 43.4023363-5.51789115 10.1579936-8.66879726 21.0237994-9.7774494 32.432515-.131922 1.31922 7.4485188-12.7938965 7.3774839-11.4061786z" fill="#0d0d0d" transform="matrix(1 0 0 -1 0 258.544278)"/><path d="M211.016719 104.188253c-2.131048 4.536087-2.156417 6.456566.197883 10.749105 1.775873 3.242237 6.497158.357712 5.857844 3.977956-.268918 3.145832-3.564431 6.601173-4.175839 7.352114-.75094.890473-1.169539 1.765725-2.278191 1.539936-1.012248-.208031-1.973756-.697665-2.793195-1.303999-2.884525-2.143732-5.555945-4.53355-7.725047-7.428223-3.914532-5.223603-2.301024-8.392268 2.280728-12.557959 1.940776-1.75304 8.864143-2.81349 8.635817-2.32893z" fill="#e65270" transform="matrix(1 0 0 -1 0 231.914112)"/><path d="M206.769845 123.277895c1.128948 1.232963 2.8896 2.425335 4.721286 3.64815.974193.644388-1.928091-7.273468-2.770362-9.386757-2.770362-6.923368.857493-11.21337-.139533-10.683145-2.199546 1.167003-5.337767 5.2439-5.553409 7.763102-.241011 2.724697 1.874815 6.613859 3.742018 8.65865z" fill="#2b2b2b" opacity="0.2" transform="matrix(1 0 0 -1 0 233.77525)"/><path d="M210.136393 103.857196c-2.131047 4.536087-2.15388 6.45403.202957 10.749106 1.770799 3.239699 2.592775 6.504769 1.955997 10.130087-.068498.403377-.14968.814364-.281602 1.205056-.375471 1.088357-1.042691 1.621119-2.151344 1.392792-1.014784-.208031-2.105678-.55052-2.917505-1.154317-2.884525-2.143733-5.558483-4.53355-7.725048-7.428223-3.003762-4.005862-2.676494-6.740707-.398303-9.77745.651999-.86764 1.052839-.842271 1.892573-.999562 1.08582-.205494 1.306536 1.306535.961509 1.917942-.794069 1.405477-1.316683 2.818565-1.415625 3.929754-.243548 2.72977 1.283703 5.692941 3.150906 7.735195 1.730208 1.892573 5.231215 4.830375 7.615959 5.543261.578427-2.209694-.651999-6.618933-1.42831-8.760128-.948823-2.615607-3.8232-7.387632-3.100166-10.497946 0 0 1.00971-2.876915 2.085382-3.60756 1.070598-.728108 1.55262-.378007 1.55262-.378007z" fill="#0d0d0d" transform="matrix(1 0 0 -1 0 231.159384)"/><path d="M.891960542.432893102c-.291750561-.01522177-.56320544.01522177-.783921084.13445895.276528793.01775873.537835823-.03551746.783921084-.13445895z" opacity="0.2" transform="matrix(1 0 0 -1 79.907602 180.095428)" fill="#8b4fba"/><path d="M211.945247 224.33698c2.488759 3.780073 5.287027 5.058702 8.448081 8.034557 3.0063 2.823638 5.314935 6.230778 8.306012 9.003676 2.346689-.489633 4.980055-.093867 7.387632-.215641 1.72006-4.246874 10.071737-.205494 10.835362 2.534424l1.108652-1.66171c2.407577-4.74158-6.22824-5.058701-11.144871-4.56653-3.447731.34249-18.342232-3.572042-17.852598-22.779377-1.674395-2.575016-5.62698-.060887-5.632054-3.417287-.002537-3.435046.053276-9.49331 3.018984-11.68017-.847345-2.996152-3.800368.172513-4.612196 1.372496-1.824075 2.686642-4.424461 7.443445-5.015573 10.627331-.999563 5.439246 2.430409 8.615521 5.152569 12.748231z" fill="#430a1d" opacity="0.2" transform="matrix(1 0 0 -1 0 442.031104)"/></svg>