<svg width="256px" height="256px" viewBox="0 0 256 256" xmlns="http://www.w3.org/2000/svg" preserveAspectRatio="xMidYMid"><defs><circle id="b" cx="128" cy="128.00015" r="128"/><linearGradient x1="-12.5638445%" y1="108.214456%" x2="101.304079%" y2="-1.96418442%" id="c"><stop stop-color="#f69923"/><stop stop-color="#f79a23" offset=".10996"/><stop stop-color="#e97826" offset=".94502"/></linearGradient><linearGradient x1="-12.5638445%" y1="108.214456%" x2="101.304079%" y2="-1.96418442%" id="d"><stop stop-color="#f69923"/><stop stop-color="#f79a23" offset=".08047800000000001"/><stop stop-color="#e97826" offset=".41874"/></linearGradient><linearGradient x1="74.7241541%" y1="-3.0591512%" x2="6.6528419%" y2="100.065517%" id="e"><stop stop-color="#f6e423"/><stop stop-color="#f79a23" offset=".41191"/><stop stop-color="#e97826" offset=".73271"/></linearGradient></defs><mask id="a" fill="#fff"><use href="#b"/></mask><circle fill="url(#c)" mask="url(#a)" cx="127.99429" cy="127.994289" r="123.110531"/><path d="M128 256C57.307552 256 0 198.692448 0 128 0 57.307552 57.307552 0 128 0c70.692448 0 128 57.307552 128 128 0 70.692448-57.307552 128-128 128zm0-9.767953c65.297756 0 118.232047-52.93429 118.232047-118.232047C246.232047 62.7022434 193.297756 9.76795285 128 9.76795285 62.7022433 9.76795285 9.76795287 62.7022434 9.76795287 128c0 65.297757 52.93429043 118.232047 118.23204713 118.232047z" fill="url(#d)" mask="url(#a)"/><path d="M98.0436948 75.5167519c-1.7506821-.0019691-3.5241669.0098457-5.2920593.0614371-2.0551898.0606495-4.8163156.7131825-7.9996247 1.7845317C138.52721 118.196743 157.860212 191.86024 124.627063 255.876929c1.128651.02934 2.248756.123071 3.384555.123071 60.736103 0 111.492614-42.322691 124.609045-99.07129-38.541945-45.177942-90.812723-81.3135996-154.577362-81.4120565l3.938e-4 9.84e-5z" fill="url(#e)" opacity="0.75" mask="url(#a)"/><path d="M84.7520108 77.3677419C66.8954703 83.3771585 32.8297703 104.545789.0790609054 132.810802 2.56627958 200.145488 57.1072772 254.12351 124.627063 255.88195c33.233149-64.016688 13.900935-137.680186-39.8750522-178.5142081h0z" fill="#28170b" opacity="0.75" mask="url(#a)"/><path d="M128.747194 54.0045284c-10.984858 5.4953716 0 27.4660679 0 27.4660679-32.973015 27.4837247-25.967206 74.4291207-64.4353959 74.4291207-20.9703429 0-42.2422261-24.076794-64.2327371946-38.828034-.2830966864 3.47897-.7853597334 6.972463-.7853597334 10.524414 0 48.095047 26.262874128 89.924363 65.419677728 111.897217 10.9526831-1.379601 22.8386364-4.114448 31.0509907-9.592555 43.1452694-28.764821 53.8570354-83.490961 71.4863274-109.92509 10.978972-16.492 62.434296-15.061018 65.906792-22.0101294 5.501257-10.9907433-10.990547-27.4660679-16.491804-27.4660679h-43.95748c-3.071295 0-7.897083-5.4563306-10.974264-5.4563306h-16.491804c0 0-7.306955-11.0851089-13.794244-11.5259393-.929903-.0661147-1.830633.0525779-2.700699.4873266z" fill="#fff" mask="url(#a)"/></svg>