<svg width="256px" height="128px" viewBox="0 0 256 128" xmlns="http://www.w3.org/2000/svg" preserveAspectRatio="xMidYMid"><title>Superset</title><path d="M190.218924 0c-21.949642 0-42.169096 12.3487941-61.710045 33.9252584C109.307183 12.0095415 88.748476 0 65.7810761 0 27.7508614 0 0 27.1402067 0 63.67771c0 36.537503 27.7508614 63.338458 65.7810761 63.338458 23.374503 0 41.4905909-10.957859 61.7100449-32.8057254 19.540949 21.9157174 39.42115 32.8735754 62.727803 32.8735754C228.249139 127.016168 256 100.316989 256 63.67771 256 27.038431 228.249139 0 190.218924 0zM66.0524781 88.6806255c-16.1144977 0-25.7153458-10.6186059-25.7153458-24.6636629 0-14.045057 9.6008481-24.9689902 25.7153458-24.9689902 13.5701034 0 24.6636629 10.9239332 36.6732039 25.6474954-11.3310358 13.7058044-23.3066521 23.9851577-36.6732039 23.9851577zm123.0129869 0c-13.366552 0-24.663663-10.6186059-36.673204-24.6636629 12.348794-14.7235621 22.9674-24.9689902 36.673204-24.9689902 16.114498 0 25.61357 11.0596343 25.61357 24.9689902 0 13.909356-9.499072 24.6636629-25.61357 24.6636629z" fill="#484848"/><g style="fill:#20a7c9"><path d="M156.124039 117.958124l25.579645-30.5327331c-10.177577-3.0532732-19.574874-12.213093-29.311423-23.5780546l-24.90114 30.3631063c8.15224 9.4583624 17.831116 17.4850784 28.632918 23.7476814z"/><path d="M128.508879 33.8913332c-8.097959-9.5940631-17.71577-17.8005831-28.463292-24.29048507L74.432017 40.4728333c9.7365491 3.3925258 18.3535648 12.1452425 27.513385 23.3066525l1.017757.7124304 25.54572-30.600583z"/></g></svg>