<svg width="512px" height="266px" viewBox="0 0 512 266" xmlns="http://www.w3.org/2000/svg" preserveAspectRatio="xMidYMid"><title>Spark</title><path d="M468.341592 134.379667c-.443665-.948354-.643231-1.425005-.882381-1.880214-6.415819-12.2049-12.815145-24.4098-19.296937-36.6146999-.649828-1.2237886-.567363-1.9461868.321616-3.0017457 10.209234-11.924517 20.286523-23.9150065 30.51225-35.7900442.361199-.418925.682814-.8625896.818058-1.6097274-2.96876.7735268-5.937519 1.538807-8.922772 2.3255283-12.320351 3.2656353-24.739662 6.5147776-36.944561 9.8298923-1.146271.3084211-1.665804-.026389-2.243063-.9796906-6.993078-11.6936136-14.035635-23.4202133-21.111178-34.9653889-.361199-.605297-.755385-1.1924517-1.527262-1.6987901-.567363 3.1171974-1.141323 6.2179017-1.69879 9.3350991-1.96268 11.000903-3.92536 21.9358336-5.871547 32.9862159-.212761 1.1858545-.503039 2.3750076-.605297 3.5625113-.097309 1.1347259-.682814 1.5536508-1.715283 1.8802143-14.530428 4.5685909-29.02787 9.1701681-43.541805 13.7717452-.636634.1995666-1.261723.4634563-1.946187 1.0819478 11.875038 4.7170289 23.750076 9.4340576 35.790045 14.2335526-.438717.348004-.728996.618491-1.050611.824655-7.421899 4.799494-14.860291 9.598989-22.265696 14.414976-.888979.580558-1.591585.663023-2.589418.212761-8.873292-3.991332-17.812557-7.916691-26.718835-11.875037-3.991332-1.781256-7.570336-4.13977-10.357672-7.570337-6.31686-7.7187743-5.063384-16.4931078 3.348101-21.9358334 2.754349-1.7647625 5.88804-3.0677181 9.005237-4.0902908 14.233552-4.6345633 28.533077-9.1041956 42.71715-13.5903209 1.197399-.3809908 1.748269-.9153675 1.979173-2.2100765 1.9132-11.0173961 3.87588-22.1007646 5.871546-32.9862159 1.062156-5.8880395 1.622922-11.9080239 4.486125-17.3177633 1.096792-2.07813162 2.407994-4.1067839 3.991333-5.83856023 5.673629-6.30036724 13.573827-6.53127075 19.626798-.54097394 2.028652 2.02865227 3.760429 4.40365982 5.261301 6.86113287 6.597244 10.7699995 13.095528 21.6059714 19.626799 32.4914227.766929 1.2815145 1.456341 1.538807 2.869801 1.1660627 15.915849-4.2717149 31.831698-8.4774575 47.830013-12.6832 3.298621-.8691868 6.613736-1.1842051 9.994823-.5525191 7.339433 1.3722266 10.555589 6.9600915 8.06513 14.0686211-1.126479 3.2326491-3.084211 5.9540119-5.277795 8.5434299-11.116354 13.0790346-22.265695 26.2240416-33.316078 39.2535969-.90877 1.0687534-.926912 1.830735-.296876 3.0347319 6.663216 12.551255 13.260459 25.069524 19.956661 37.769217 1.584988 3.001746 2.803828 6.135436 2.836815 9.582496.077517 7.850719-5.67363 14.283031-13.47487 15.437549-4.370673.638283-8.427978-.295227-12.534762-1.558599-9.97833-3.084211-19.95666-6.118943-30.017456-9.137182-.928562-.277084-1.283164-.64488-1.449744-1.642713-1.147921-7.042557-2.407994-14.068621-3.628484-21.111178-.031337-.19297.026389-.399134.059375-.831253 11.396738 3.150184 22.760489 6.250888 34.470596 9.50003" fill="#e25a1c"/><g style="fill:#3c3a3e"><path d="M395.580597 109.978114l-3.677963 28.100132c-1.224613 9.339223-2.449227 18.657829-3.677963 27.976435l.290278.199566c12.782159-14.151086 25.564318-28.368145 38.593873-42.717149l1.024222 5.904532 1.363774 8.007404c.456653 2.671884.920521 5.343767 1.407068 8.007404.199567 1.075351-.090712 1.731777-.804864 2.49046-8.263047 8.642388-16.493107 17.317763-24.739661 26.05911-.361199.380991-.702607.773527-1.114935 1.225438l.499681.814027c.082343.131028.166091.259125.254055.383373l14.191403 19.95666 28.360815 39.913322c.257292.361199.630037.64488.946704.966496l-.001116.195993-5.346345-.010479c-7.197856-.016889-14.39149-.039055-21.648458-.007389-1.192451 0-1.863721-.341407-2.523445-1.354084-10.654548-16.229218-21.441041-32.491423-31.99663-48.654668l-.48663-.709679c-.22406-.319817-.484997-.687654-.821273-1.170536l-4.267914 32.474028c-.849073 6.449707-1.696406 12.882019-2.54374 19.314331h-23.585144l.401607-3.395518c.132357-1.11947.266364-2.228632.411503-3.33367 1.719407-13.235719 3.457368-26.378664 5.19301-39.567997l1.734096-13.209948c2.210076-16.82297 4.403659-33.64594 6.646722-50.46891.064323-.496443.399133-1.134726.804864-1.398616 8.114609-5.294288 16.262204-10.539096 24.409799-15.783904.117102-.077518.283682-.084115.702607-.206164zm-37.846735 32.164859.103907.153386-2.152815 16.311941c-.238892 1.813984-.477836 3.63235-.716986 5.458961l-7.93015-.009262c-1.748006-2.38e-4-3.489678.003325-5.23135.01586-3.529525.026389-6.745681 2.309035-7.817733 5.607656-.412328 1.288112-.565714 2.671884-.747138 4.024319l-6.597243 50.139048c-.554169 4.222235-1.088546 8.444471-1.642714 12.732679h-21.935834l.95602-7.579441c.07988-.624231.160234-1.24767.24138-1.87111l2.139775-16.29519c.71477-5.426233 1.430983-10.835972 2.148433-16.196232 1.243581-9.384579 2.358515-18.802143 3.826401-28.203215 1.96268-12.534762 14.43147-23.750075 27.048697-24.244869 6.036478-.263889 12.089448-.044531 18.30735-.044531zm-185.517777 4.590032c11.017396 7.092036 17.317764 17.482694 18.802143 30.347318 2.045146 18.30735-4.700535 33.48101-17.647625 46.180703-8.54343 8.263047-18.802143 13.507855-30.51225 15.289111-11.93032 1.796832-23.161572-.119339-33.24154-6.963263l-.569331-.392663c-.374394-.26389-.780124-.494794-1.423355-.900524l-.151737-.253994-1.522881 11.411169-.489278 3.713011c-.86259 6.564257-1.731776 13.145007-2.556432 19.79173-.09566.766929-.328213 1.050901-1.152868 1.044397-6.4817916-.024833-12.963583.013194-19.4618675 0-.148438 0-.296876-.051512-.6448805-.15377l.7804294-6.213625c.1310897-1.036012.2635843-2.071412.3988278-3.104981 1.4299524-10.885451 2.8533077-21.770902 4.3047012-32.656353 1.6658039-12.46879 2.9687594-24.904593 5.0963703-37.274424 3.7604286-21.935834 22.4306273-40.737977 44.2015293-45.520978 12.650214-2.737856 24.739662-1.469536 35.790044 5.657136zM66.4111485 105.950497c10.1762476.367796 18.3073498 5.129356 24.5747308 13.046048.9318606 1.171011 1.8348583 2.362638 2.7419792 3.579005l2.7171403 3.662695-21.1341693 15.744745c-1.1330765-1.781256-2.144104-3.562512-3.3316078-5.228315-3.051225-4.271715-6.8446398-7.454885-12.3533378-7.834227-4.5850841-.323265-8.5104437 1.184205-11.6276412 4.568591-2.7873352 3.018239-3.1501836 7.32294-.5475711 10.737013 2.8698007 3.760429 6.0034913 7.32294 9.2196473 10.802986 1.5220783 1.649311 3.0630058 3.279772 4.6108575 4.903694l4.6524028 4.864458c2.3246627 2.434728 4.6380735 4.88244 6.8999855 7.38468 4.7994944 5.277795 8.6423886 11.182328 9.8298923 18.472281 1.4118101 8.576416-.3018238 16.658039-4.3541805 24.244869-7.5043641 13.936676-19.2969363 22.100765-34.9653888 24.574731-6.8941191 1.113285-13.755252.895576-20.4514539-1.083597-8.9227714-2.622404-15.14067306-8.477458-19.13200519-16.658039C2.35026788 218.812835 1.26996931 215.728623 0 212.594933l23.0903511-12.353338.4251264 1.053791c.0893266.216838.1791811.424651.27748.628506.2629002.524481.5163003 1.055559.766415 1.589012l.7467023 1.603262c.7492753 1.601943 1.5249132 3.18726 2.494708 4.641952 4.8324806 7.174502 12.6172275 9.351592 20.4514538 5.805574 2.0286523-.915367 3.9913321-2.193583 5.657136-3.677963 5.0798773-4.519111 6.0364775-10.819479 2.2760489-16.493108-2.1605971-3.265635-4.8654668-6.201408-7.5043641-9.120688-6.3003672-6.993078-12.8646242-13.771746-18.9670741-20.946248-4.2387288-4.914946-7.1250227-10.621561-8.0486367-17.152832-.997833-7.190995.4387167-13.953169 4.1727563-19.95666 9.2856198-15.025222 22.760489-22.760489 40.5730456-22.265696zm72.6109075 55.824222c-14.035443 3.260266-24.171836 14.205849-25.679623 28.521229l-.049625.506641c-1.088545 10.72052 4.684042 21.111178 15.404563 24.904593 8.642388 3.117198 16.987901 1.814242 24.739662-2.820321 10.24222-6.135436 15.783904-15.256125 16.493107-28.203215h-.113802c-.361199-1.830735-.618492-4.535604-1.43655-7.05905-3.958346-12.188407-16.443628-18.802143-29.357732-15.849877zm129.818902 44.214724-.065972.135244c-1.185855 9.054716-2.309035 17.647625-3.463553 26.224041-.064323.438717-.40573 1.030819-.773527 1.199049-17.647625 8.147595-40.737976 7.009571-55.08698-9.384578-7.751761-8.80732-11.000903-19.296937-10.522603-30.842112 1.126479-26.883766 23.420213-50.46891 50.139048-53.767532 15.585987-1.913201 29.192801 2.292542 39.74839 14.414976 7.190995 8.246554 10.522603 18.142419 10.02781 29.02787-.294814 6.591746-1.267324 13.141915-2.114642 19.663212l-.227379 1.777829c-1.26997 10.126768-2.655391 20.286522-3.991333 30.347318l-.070432.433202c-.039544.22428-.085263.464353-.135731.739458h-20.946248l.545373-4.599744c.092361-.760516.186921-1.519199.28588-2.277882 1.520665-11.693613 3.199663-23.420213 4.535605-35.13032.831252-7.289953.308421-14.530428-3.034732-21.276109-3.546018-7.174502-9.483537-10.98441-17.317763-11.809065-16.196232-1.715283-31.666768 9.533016-34.965389 25.399386-2.276049 10.522603 1.3145 20.616385 9.697947 26.224042 8.164089 5.426232 16.82297 5.442725 25.729249 1.929693 4.519111-1.781255 8.345512-4.61807 12.006982-8.427978z"/><path d="M125.77974 110.629592h5.426232l-1.283163-8.213568-4.143069 8.213568zm6.290471 5.31078h-9.028327l-2.869801 5.62415h-6.399326l14.101608-26.3889726h6.168422l4.799494 26.3889726h-5.921025l-.851045-5.62415zm32.303401-15.371576h-3.216156l-1.081948 6.085957h3.216157c1.946186 0 3.480045-1.274918 3.480045-3.677964 0-1.515795-.87664-2.328482-2.20535-2.402444l-.192748-.005549zm-7.817733-5.3602604 8.477458.0494794c4.420153 0 7.504364 2.6388972 7.504364 7.158009 0 5.706615-4.024318 9.533016-9.76392 9.533016h-3.644977l-1.715283 9.648468h-5.508698l4.651056-26.3889724zm34.701499 15.4210564h5.426233l-1.281515-8.213568-4.144718 8.213568zm6.273979 5.31078h-9.028328l-2.8698 5.62415h-6.399326l14.101607-26.3889726h6.168422l4.799495 26.3889726h-5.921026l-.851044-5.62415zm34.968687 4.74012-.009896.009895c-1.863721.851045-3.908866 1.359033-5.970505 1.359033-6.976584 0-11.347258-5.228316-11.347258-11.77608 0-8.378498 7.042557-15.4210555 15.421056-15.4210555 2.094625 0 3.991332.5030398 5.541684 1.3524349l-.773527 6.3168606c-1.159465-1.281515-3.034732-2.177091-5.343767-2.177091-4.799494 0-9.071209 4.337688-9.071209 9.368086 0 3.826401 2.407994 6.828146 6.201409 6.828146 2.325528 0 4.56859-.895575 6.085956-2.12761l-.733943 6.267381zm34.642124-9.721038h-11.479203l-1.863721 10.605068h-5.492205l4.651056-26.3889726h5.508698l-1.847228 10.4236446h11.46271l1.863721-10.4236446h5.508698l-4.651056 26.3889726h-5.508698l1.847228-10.605068zm19.783483 10.522603 4.64281-26.3559869h14.612894l-.928562 5.3107809h-9.104196l-.928562 5.112863h8.362006l-.928562 5.310781h-8.362006l-.928562 5.310781h9.104196l-.928562 5.310781h-14.612894z"/></g></svg>