<svg width="256" height="128" xmlns="http://www.w3.org/2000/svg" preserveAspectRatio="xMidYMid"><path d="M190.219 0c-21.95 0-42.17 12.349-61.71 33.925C109.307 12.01 88.749 0 65.78 0 27.751 0 0 27.14 0 63.678c0 36.537 27.75 63.338 65.781 63.338 23.375 0 41.49-10.958 61.71-32.806 19.541 21.916 39.421 32.874 62.728 32.874 38.03-.068 65.781-26.767 65.781-63.406C256 27.038 228.25 0 190.219 0zM66.052 88.68c-16.114 0-25.715-10.618-25.715-24.663s9.601-24.969 25.715-24.969c13.57 0 24.664 10.924 36.674 25.647-11.331 13.706-23.307 23.986-36.674 23.986zm123.013 0c-13.366 0-24.663-10.618-36.673-24.663 12.35-14.724 22.968-24.969 36.673-24.969 16.115 0 25.614 11.06 25.614 24.969 0 13.91-9.499 24.664-25.614 24.664z" fill="#484848"/><path d="M156.124 117.958l25.58-30.533c-10.178-3.053-19.575-12.213-29.312-23.578l-24.9 30.363a111.893 111.893 0 0028.632 23.748zM128.509 33.891a115.127 115.127 0 00-28.463-24.29L74.432 40.473c9.737 3.392 18.354 12.145 27.513 23.306l1.018.713 25.546-30.6z" fill="#20A7C9"/></svg>