<svg width="256px" height="512px" viewBox="0 0 256 512" xmlns="http://www.w3.org/2000/svg" preserveAspectRatio="xMidYMid"><defs><linearGradient x1="16.3628891%" y1="63.9052008%" x2="159.989811%" y2="20.2134672%" id="a"><stop stop-color="#f69923" offset="0%"/><stop stop-color="#f79a23" offset="31.23%"/><stop stop-color="#e97826" offset="83.83%"/></linearGradient><linearGradient x1="-217.650978%" y1="394.671992%" x2="74.7430764%" y2="13.846058%" id="b"><stop stop-color="#9e2064" offset="32.33%"/><stop stop-color="#c92037" offset="63.02%"/><stop stop-color="#cd2335" offset="75.14%"/><stop stop-color="#e97826" offset="100%"/></linearGradient><linearGradient x1="-80.0440054%" y1="170.418469%" x2="146.240033%" y2="-44.2993346%" id="c"><stop stop-color="#9e2064" offset="32.33%"/><stop stop-color="#c92037" offset="63.02%"/><stop stop-color="#cd2335" offset="75.14%"/><stop stop-color="#e97826" offset="100%"/></linearGradient><linearGradient x1="-18.3158042%" y1="77.3603602%" x2="165.002%" y2="-41.416466%" id="d"><stop stop-color="#282662" offset="0%"/><stop stop-color="#662e8d" offset="9.548389%"/><stop stop-color="#9f2064" offset="78.82%"/><stop stop-color="#cd2032" offset="94.87%"/></linearGradient><linearGradient x1="-129.782775%" y1="463.714866%" x2="66.4555408%" y2="17.1896681%" id="e"><stop stop-color="#9e2064" offset="32.33%"/><stop stop-color="#c92037" offset="63.02%"/><stop stop-color="#cd2335" offset="75.14%"/><stop stop-color="#e97826" offset="100%"/></linearGradient><linearGradient x1="-34.8804169%" y1="187.706139%" x2="110.598662%" y2="-51.1003524%" id="f"><stop stop-color="#9e2064" offset="32.33%"/><stop stop-color="#c92037" offset="63.02%"/><stop stop-color="#cd2335" offset="75.14%"/><stop stop-color="#e97826" offset="100%"/></linearGradient><linearGradient x1="-20.6189333%" y1="192.563688%" x2="125.259839%" y2="-136.90643%" id="g"><stop stop-color="#282662" offset="0%"/><stop stop-color="#662e8d" offset="9.548389%"/><stop stop-color="#9f2064" offset="78.82%"/><stop stop-color="#cd2032" offset="94.87%"/></linearGradient></defs><path d="M218.048249 2.88871595c-7.968872 4.68171207-21.316731 18.12918285-37.254475 37.55330735v1.1953308L194.7393 67.4365759l.697276.4980545c10.259922-14.6428016 20.619455-27.8910506 31.17821-39.1470818.796887-.896498 1.195331-1.2949416 1.195331-1.2949416-.398444.3984436-.796887.8964981-1.195331 1.2949416-3.38677 3.785214-13.746304 15.7385214-29.285603 39.6451362l1.792996.3984436c0 0 36.357977-3.5859922 53.889494-6.5743191l.996109-.896498c5.57821-31.277821-5.478599-45.6217899-5.478599-45.6217899 0 0-13.945525-22.51206226-30.480934-12.84980545z" fill="url(#a)"/><path d="M152.404669 139.15642c4.482491-8.267704 8.964981-16.435797 13.447471-24.305058 4.681712-8.168094 9.463035-16.1369651 14.343969-23.807004.298833-.3984436.597665-.8964981.796887-1.3945526 4.781323-7.570428 9.562646-14.7424124 14.44358-21.715175l-14.642802-27.5922179c-1.09572 1.2949416-2.191439 2.6894941-3.287159 4.0840466-4.183658 5.2793775-8.566537 10.8575876-13.049027 16.8342413-5.080156 6.7735408-10.259923 13.9455253-15.5393 21.5159533-4.880934 6.9727626-9.861479 14.3439689-14.742413 21.8147863-4.183657 6.474708-8.466926 13.049027-12.650583 19.922179-.199222.298832-.298833.498054-.498055.796887v1.09572l18.228794 36.158755.796887.298832c4.084047-7.968871 8.168094-15.937743 12.351751-23.707393z" fill="url(#b)"/><path d="M73.014786 316.164981c3.2871595-8.566537 6.7735408-17.232685 10.2599222-25.998444 3.3867704-8.367315 6.7735408-16.834241 10.359533-25.301167 3.4863814-8.466926 7.1719848-16.933852 10.8575878-25.500389 3.785214-8.666148 7.570428-17.332296 11.455253-25.898833 3.884825-8.466926 7.76965-16.933852 11.754085-25.301167 1.394553-2.988327 2.888716-6.076265 4.38288-9.064592 2.490272-5.179766 5.080155-10.359533 7.570428-15.439689.099611-.298832.298832-.498054.398443-.796887l-19.025681-37.553307c-.298832.498054-.597665.996109-.896498 1.494163-4.382879 7.271596-8.865369 14.642802-13.148638 22.21323-4.382879 7.670039-8.6661477 15.439689-12.8498053 23.308949-3.5859922 6.67393-6.9727626 13.34786-10.3595331 20.121401-.6972762 1.394553-1.2949416 2.689494-1.9922179 4.084047-4.1836575 8.566537-7.8692607 16.73463-11.2560311 24.703502-3.785214 8.96498-7.1719844 17.531517-10.1603113 25.699611-1.9922179 5.378988-3.6856031 10.459144-5.3789883 15.439688-1.2949416 4.183658-2.5898833 8.466926-3.785214 12.650584-2.888716 9.961089-5.2793774 19.822568-7.2715953 29.783658l.2988327 1.19533 18.2287937 36.258366.5976654.298833c2.4902724-6.773541 5.0801556-13.547082 7.7696498-20.519845.6972763-1.992218 1.4941634-3.884825 2.1914397-5.877042z" fill="url(#c)"/><path d="M43.7291829 306.10428c-2.3906615 12.052918-4.0840467 24.105837-4.9805448 36.059144 0 .398444-.0996109.796887-.0996109 1.294942-5.9766537-9.562646-21.9143968-18.826459-21.9143968-18.826459 11.4552529 16.535408 20.1214007 32.971206 21.4163424 49.108171-6.0762646 1.294941-14.4435798-.597666-24.2054475-4.084047 10.0607004 9.263813 17.6311284 11.853697 20.6194552 12.550973-9.2638132.597665-18.92607 6.972763-28.6879377 14.244358 14.244358-5.777432 25.6996109-8.068483 33.9673152-6.275487C26.7953307 427.131518 13.7463035 467.971984.59766537 511.203113c3.9844358-1.195331 6.37509728-3.884825 7.76964981-7.570428 2.29105062-7.869261 17.83035022-59.268483 42.03579762-126.90428.6972763-1.892607 1.3945526-3.884825 2.0918288-5.777432.1992218-.498055.3984436-1.09572.5976654-1.593775 2.5898833-7.072373 5.1797665-14.343968 7.9688716-21.715175.5976654-1.693385 1.2949416-3.38677 1.892607-5.080155 0 0 0-.099611 0-.099611l-19.0256809-37.652918c0 .498054-.0996109.896498-.1992218 1.294941z" fill="url(#d)"/><path d="M197.329183 68.5322957c-4.283269 6.5743191-8.964981 14.0451362-14.045136 22.5120623-.298833.3984436-.498055.896498-.796887 1.2949416-4.38288 7.3712062-8.964981 15.3400774-13.845915 24.2054474-4.183657 7.570428-8.566537 15.738521-13.148638 24.603891-3.984436 7.670039-8.068482 15.738522-12.25214 24.404669l.896498.398444 46.319066-4.980545 1.09572-.796887c14.045136-6.474708 20.320623-12.351751 26.396887-20.818677 1.593774-2.291051 3.28716-4.781323 4.880934-7.271595 4.980545-7.76965 9.861479-16.236576 14.144747-24.703502 4.183658-8.1680936 7.869261-16.336187 10.757977-23.6077824 1.792996-4.681712 3.287159-8.9649805 4.283268-12.7501945.896498-3.3867704 1.593775-6.5743191 2.091829-9.5626459-18.726848 3.2871595-41.736965 6.3750973-56.77821 7.0723735z" fill="url(#e)"/><path d="M141.447471 169.438132c-1.593775 3.386771-3.28716 6.873152-4.980545 10.359533-1.792996 3.785214-3.685603 7.76965-5.478599 11.754086-.896498 1.992218-1.892607 4.084047-2.789105 6.076265-2.888716 6.175875-5.677821 12.550972-8.666148 19.125291-3.585992 8.068483-7.271595 16.535409-10.957199 25.201557-3.585992 8.367315-7.171984 16.933852-10.7579762 25.898832-3.4863813 8.466927-6.9727626 17.232685-10.4591439 26.197666-3.1875487 8.068482-6.3750973 16.236576-9.562646 24.803113-.1992217.398443-.2988326.796887-.4980544 1.19533-3.1875487 8.466927-6.2965224 17.080205-9.5836819 25.945574-.0996109.199222-.2775171.717668-.377128.91689l.6879864.152724 13.8549246-1.490394.7821742-.323237c-.2988327-.099611-.4833415-.498055-.7821742-.597666 18.3284044-2.29105 42.7330744-16.037354 58.5712064-32.971206 7.271595-7.76965 13.845914-17.033463 20.02179-27.791439 4.582101-8.068483 8.765759-16.933853 12.849805-26.795331 3.585992-8.566537 6.972763-17.929961 10.259922-27.990662-4.183657 2.19144-9.064591 3.884825-14.343968 4.980545-.896499.199222-1.892607.398444-2.888716.597665-.996109.199222-1.992218.298833-2.888716.498055 17.133074-6.574319 27.89105-19.324514 35.760311-34.863813-4.48249 3.087937-11.853697 7.072373-20.619455 9.064591-1.195331.298833-2.390662.498055-3.685603.697276-.298833 0-.597666.099611-.896499.099611 5.976654-2.490272 10.957199-5.279377 15.340078-8.566537.896498-.697276 1.792996-1.394552 2.689494-2.191439 1.294942-1.195331 2.589884-2.390662 3.785214-3.585993.796888-.796887 1.494164-1.593774 2.291051-2.490272 1.693385-1.992218 3.28716-4.183658 4.781323-6.574319.498054-.697276.896498-1.494163 1.394553-2.19144.597665-1.09572 1.095719-2.191439 1.593774-3.287159 2.390661-4.781323 4.283268-9.064592 5.777432-12.849806.796887-1.892607 1.394552-3.585992 1.992218-5.279377.199221-.597665.398443-1.294942.697276-1.892607.597665-1.792996 1.09572-3.386771 1.494163-4.880934.597666-2.091829.896498-3.785214 1.09572-4.980545-.597665.498055-1.195331.896498-1.992218 1.394553-5.179766 3.087938-14.045136 5.877043-21.21712 7.171984l14.144747-1.593774-14.144747 1.593774c-.996109.199222-1.693386.298833-2.490273.498055.066408-.066408-15.90903 1.622706-47.926313 5.067339-.199222.199222-1.38108 2.702311-1.879134 3.897641z" fill="url(#f)"/><path d="M65.8428016 350.63035c-2.4902724 6.873152-5.0801557 13.945525-7.5704281 21.11751 0 .099611-.0996109.199222-.0996109.298833-.3984435.996109-.6972762 1.992218-1.0957198 3.087937-1.6933852 4.880934-3.1875486 9.164203-6.5743191 19.125292 5.5782102 2.589883 10.0607004 9.263813 14.3439689 16.933852-.3984436-7.86926-3.6856031-15.340078-9.9610895-21.017899 27.5922179 1.195331 51.3992219-5.777431 63.6513619-25.898832 1.09572-1.792996 2.091829-3.685603 2.988327-5.677821-5.57821 7.072373-12.550973 10.0607-25.5003893 9.363424 0 0-.0996109 0-.0996109 0 0 0 .0996109 0 .0996109 0 19.2249023-8.566537 28.7875483-16.834241 37.3540853-30.480934 1.992218-3.287159 3.984436-6.773541 5.976654-10.658366-16.834241 17.232685-36.258366 22.113619-56.6785992 18.428016l-15.3400778 1.693385c-.4980545 1.09572-.996109 2.390662-1.4941634 3.685603z" fill="url(#g)"/></svg>