<svg width="256px" height="259px" viewBox="0 0 256 259" xmlns="http://www.w3.org/2000/svg" preserveAspectRatio="xMidYMid"><defs><linearGradient x1="100.011588%" y1="49.9905059%" x2="-6.48195737e-10%" y2="49.9905059%" id="a"><stop stop-color="#37bda6"/><stop stop-color="#8ad3b8" offset="1"/></linearGradient><linearGradient x1="100.011588%" y1="49.9980936%" x2="-3.88862804e-09%" y2="49.9980936%" id="b"><stop stop-color="#4bb6ad" offset=".5"/><stop stop-color="#78bbc1" offset="1"/></linearGradient><linearGradient x1="-0.0184384384%" y1="49.9980936%" x2="100.023183%" y2="49.9980936%" id="c"><stop stop-color="#4379a7"/><stop stop-color="#7cc9b8" offset="1"/></linearGradient></defs><path d="M127.693413 36.8670659v73.5808381l63.846707-36.8670657V0l-63.846707 36.8670659h0z" opacity="0.5" fill="#13a049"/><path d="M127.693413 36.8670659 63.8467066 0v73.7341317l63.8467064 36.8670663V36.8670659h0z" opacity="0.5" fill="#a2cc39"/><path d="M191.54012 0l-63.846707 36.8670659L63.8467066 0 0 36.8670659l127.693413 73.7341321L255.31018 36.8670659 191.54012 0h0z" opacity="0.9" fill="url(#a)"/><path d="M127.693413 110.601198 0 36.8670659v73.7341321l63.8467066 36.867065v73.657486l63.8467064 36.867065 63.846707-36.867065v-73.657486l63.77006-36.867065V36.8670659L127.693413 110.601198h0z" fill="url(#b)"/><path d="M127.693413 110.601198v147.391616l63.846707-36.867065v-73.657486l63.77006-36.867065V36.8670659L127.693413 110.601198h0z" fill="url(#c)"/><g style="fill:#231f20"><path d="M127.693413 184.258683v73.734131l63.846707-36.867065-63.846707-36.867066h0z" opacity="0.05"/><path d="M127.693413 258.146108v-73.734132l-63.8467064 36.867066 63.8467064 36.867066h0z" opacity="0.1"/><path d="M63.8467066 73.7341317 0 110.601198l63.8467066 36.867065 63.8467064-36.867065-63.8467064-36.8670663h0z" opacity="0.05"/><path d="M191.54012 73.7341317l-63.846707 36.8670663 63.846707 36.867065 63.77006-36.867065-63.77006-36.8670663h0z" opacity="0.05"/></g></svg>