<svg width="256px" height="256px" viewBox="0 0 256 256" xmlns="http://www.w3.org/2000/svg" preserveAspectRatio="xMidYMid"><title>Apidog</title><defs><linearGradient x1="0%" y1="36.3007109%" x2="99.9956691%" y2="64.6113742%" id="a"><stop stop-color="#3bf" offset="0%"/><stop stop-color="#73f" offset="100%"/></linearGradient><linearGradient x1="102.837018%" y1="70.7770711%" x2="-5.65474532%" y2="28.962418%" id="b"><stop stop-color="#99c2ff" offset="0%"/><stop stop-color="#fff" offset="100%"/></linearGradient><linearGradient x1="49.9412852%" y1="69.2152071%" x2="23.6694604%" y2="32.8598311%" id="c"><stop stop-color="#99c2ff" offset="0%"/><stop stop-color="#fff" offset="100%"/></linearGradient></defs><path d="M198.391408 180.367981l-4.39181-4.383998-.815965-.751999c-17.49141-17.002142-40.924601-26.510714-65.317171-26.503986-24.389802-.004645-47.8197465 9.503774-65.3091714 26.503986l-.5679754.559999-4.3278126 4.383998-9.2875977 9.263995c-5.3044572 5.36473-12.5349185 8.383793-20.0791304 8.383996-7.4998699.001828-14.6945492-2.969952-20.00713344-8.263996C2.98341549 184.271961 0 177.090001 0 169.599987c0-7.490015 2.98341549-14.671975 8.28764106-19.95999l20.00713344-19.959989-19.75914418-19.65599C3.08407924 104.716512.00624993519 97.4326776 0 89.824029c0-7.487996 2.98387077-14.6639922 8.28764106-19.9599894 11.05977134-11.0331603 28.96249524-11.0331603 40.02226664 0l14.4953722 14.4559923c17.499472 16.9868761 40.9294541 26.4855361 65.3171711 26.4799861 24.398943 0 47.837928-9.503995 65.309171-26.4799861.177456-.2414413.390542-.4545366.631973-.6319996l8.215644-8.2559957 5.463763-5.3839971c5.277632-5.3111141 12.463942-8.2848872 19.951136-8.2559956 7.503675 0 14.695364 2.9679984 19.999134 8.2639956 8.127099 8.0857287 10.546734 20.2888056 6.119735 30.8639835-1.455937 3.447998-3.599844 6.567997-6.295727 9.175995l-19.823142 19.77599 19.823142 19.775989c5.431774 5.292623 8.488059 12.559909 8.471633 20.14399 0 7.479996-2.983871 14.655992-8.287641 19.951989-11.03783 11.025808-28.92044 11.025808-39.95827 0l-9.415592-9.375995h.063998z" fill="url(#a)"/><path d="M178.71226 2.13607559c3.439851 1.41599925 6.559716 3.49599815 9.183602 6.11999675 5.278595 5.29424216 8.237467 12.46896396 8.225501 19.94524696-.012039 7.4762831-2.993931 14.6414668-8.289498 19.9187319l-19.999134 19.9599894-.503978.4399997c-21.958041 21.4043207-56.974541 21.4043207-78.9325815 0l-.5039782-.4399997-20.0151331-19.9599894c-10.9342281-11.0328811-10.8805609-28.8332357.1199948-39.79997889 11.0137376-11.00628266 28.8532877-11.03489583 39.902272-.06399997L127.91446 28.2240617l19.951136-19.96798936C153.179468 2.96002732 160.37854-.00950133417 167.880729 0c3.718565-.00859167068 7.402228.717297679 10.83953 2.13607559h-.007999z" fill="url(#b)"/><path d="M77.11666 253.863942c-3.4348841-1.414268-6.556015-3.494204-9.1836022-6.119997-5.2785953-5.294242-8.2374666-12.468964-8.2255006-19.945247.0120387-7.476283 2.9939311-14.641467 8.2894978-19.918732l20.0151331-19.959989.5039782-.44c21.9587657-21.394896 56.9658157-21.394896 78.9245817 0l.503978.44 20.015133 19.959989c10.932027 11.035082 10.874782 28.835445-.127994 39.799979-11.013738 11.006283-28.853288 11.034896-39.902272.064l-20.015133-19.967989-19.951136 19.959989c-5.312564 5.298978-12.5117975 8.27145-20.0151331 8.264055-3.7158741.007556-7.3967164-.718314-10.8315309-2.136058z" fill="url(#c)"/></svg>