<svg width="256px" height="259px" viewBox="0 0 256 259" xmlns="http://www.w3.org/2000/svg" preserveAspectRatio="xMidYMid"><defs><linearGradient x1="77.3888889%" y1="-5.28571429%" x2="14.7642857%" y2="120.915079%" id="a"><stop stop-color="#cc9300"/><stop stop-color="#ea433a" offset=".48"/><stop stop-color="#b327bf" offset="1"/></linearGradient><linearGradient x1="100.370954%" y1="-50.1128609%" x2="16.7104112%" y2="64.2169729%" id="b"><stop stop-color="#cc9300"/><stop stop-color="#ea433a" offset=".26"/><stop stop-color="#b327bf" offset=".48"/><stop stop-color="#66f" offset=".76"/><stop stop-color="#00bf9a" offset="1"/></linearGradient><linearGradient x1="7.17664234%" y1="104.165263%" x2="96.9007299%" y2="11.678316%" id="c"><stop stop-color="#b327bf"/><stop stop-color="#66f" offset=".48"/><stop stop-color="#00c09a" offset="1"/></linearGradient></defs><path d="M122.798368 254.853912c-33.1773493 5.447028-46.0521414 3.46629-59.4221179-.990369-13.1670411-4.464332-24.5991593-12.951814-32.6821647-24.264031l-1.4855529-1.485553c-7.4277647-10.39887-12.8747922-22.283294-17.8266353-52.984721l-7.92294904-51.499169c-5.44702745-33.6725334-3.961474508-46.5473255.99036863-59.917302C9.06852878 50.6248664 17.3115838 39.1189355 28.2181638 30.535418l1.9807373-1.485553c10.3988706-7.4277647 22.2832941-12.8747921 52.4895373-17.8266352l50.5087996-7.92294907c33.177349-5.44702745 46.052142-3.466290193 59.422118.99036863 13.167041 4.46433239 24.599159 12.95181404 32.682165 24.26403134l1.485553 1.9807373c7.427764 10.3988706 12.874792 22.2832941 17.826635 52.9847216l7.922949 51.0039844c5.447027 33.672533 3.961474 46.547325-.990369 59.917302-4.457946 13.171292-12.731435 24.719704-23.768847 33.177349l-1.980737 1.485553c-10.398871 7.427764-22.283294 12.874792-52.489537 17.826635l-50.5088 7.922949z"/><path d="M179.298898 94.8598603c-20.538554 0-37.188342 16.6497877-37.188342 37.1883417 0 20.538554 16.649788 37.188342 37.188342 37.188342 20.538554 0 37.188342-16.649788 37.188342-37.188342 0-20.538554-16.649788-37.1883417-37.188342-37.1883417zm0 11.9834607c13.920272 0 25.204882 11.28461 25.204882 25.204881 0 13.920272-11.28461 25.204882-25.204882 25.204882-13.920272 0-25.204882-11.28461-25.204882-25.204882 0-13.920271 11.28461-25.204881 25.204882-25.204881z" fill="url(#a)"/><path d="M115.514619 52.0615631H58.9150516c-3.3228153 0-6.0164894 2.6936741-6.0164894 6.0164895V114.67762c0 3.322815 2.6936741 6.016489 6.0164894 6.016489h56.5995674c3.322815 0 6.016489-2.693674 6.016489-6.016489V58.0780526c0-3.3228154-2.693674-6.0164895-6.016489-6.0164895zm-6.016902 12.0324958v44.5665881H64.9311289V64.0940589h44.5665881z" fill="url(#b)" transform="translate(87.214835 86.377836)rotate(-9.18)translate(-87.214835 -86.377836)"/><path d="M99.3215888 144.909563l-23.768847 67.345067c-1.5129617 4.286725 2.1117672 8.630868 6.6001483 7.910106l67.8402509-10.894055c4.501758-.72291 6.578645-6.009203 3.772881-9.603102l-44.071404-56.451012c-2.91268-3.730849-8.797734-2.770341-10.3730292 1.692996zm7.6605922 14.304451 31.097575 39.832626-47.8694679 7.68526 16.7718929-47.517886z" fill="url(#c)"/></svg>