<svg width="256" height="258" xmlns="http://www.w3.org/2000/svg" preserveAspectRatio="xMidYMid"><defs><linearGradient x1="77.389%" y1="-5.286%" x2="14.764%" y2="120.915%" id="a"><stop stop-color="#CC9300" offset="0%"/><stop stop-color="#EA433A" offset="48%"/><stop stop-color="#B327BF" offset="100%"/></linearGradient><linearGradient x1="100.371%" y1="-50.113%" x2="16.71%" y2="64.217%" id="b"><stop stop-color="#CC9300" offset="0%"/><stop stop-color="#EA433A" offset="26%"/><stop stop-color="#B327BF" offset="48%"/><stop stop-color="#66F" offset="76%"/><stop stop-color="#00BF9A" offset="100%"/></linearGradient><linearGradient x1="7.177%" y1="104.058%" x2="96.901%" y2="11.754%" id="c"><stop stop-color="#B327BF" offset="0%"/><stop stop-color="#66F" offset="48%"/><stop stop-color="#00C09A" offset="100%"/></linearGradient></defs><path d="M122.656 254.559c-33.139 5.44-45.999 3.462-59.353-.99a66.278 66.278 0 01-32.644-24.235l-1.484-1.484c-7.42-10.387-12.86-22.258-17.806-52.923l-7.914-51.44c-5.44-33.634-3.957-46.493.99-59.848A73.153 73.153 0 0128.184 30.5l1.979-1.484c10.387-7.419 22.257-12.86 52.429-17.806l50.45-7.914c33.14-5.44 45.999-3.462 59.353.99a66.278 66.278 0 0132.645 24.236l1.484 1.978c7.419 10.387 12.86 22.258 17.806 52.923l7.913 50.945c5.441 33.634 3.957 46.494-.989 59.848a70.037 70.037 0 01-23.741 33.14l-1.979 1.483c-10.386 7.42-22.257 12.86-52.428 17.806l-50.45 7.914z"/><circle stroke="url(#a)" stroke-width="2.42" stroke-linejoin="round" cx="179.091" cy="131.895" r="31.161"/><path stroke="url(#b)" stroke-width="2.43" stroke-linejoin="round" transform="rotate(-9.18 87.114 86.278)" d="M58.847 58.01h56.534v56.535H58.847z"/><path stroke="url(#c)" stroke-width="2.42" stroke-linejoin="round" d="M104.85 146.734l44.02 56.385-67.761 10.882z"/></svg>