<svg width="256px" height="256px" viewBox="0 0 256 256" xmlns="http://www.w3.org/2000/svg" preserveAspectRatio="xMidYMid"><path d="M127.997452 0C198.689305 0 256.005096 57.3035408 256 128c0 70.686263-57.315791 128-128.002548 128C57.3106949 256 0 198.686263 0 128 0 57.3035408 57.3106949 0 127.997452 0zm0 7.12725535C61.2343399 7.12725535 7.13389996 61.2444338 7.13389996 128c0 66.735173 54.10043994 120.867646 120.86355204 120.867646 66.737634 0 120.868648-54.132473 120.868648-120.867646 0-66.7555662-54.131014-120.87274465-120.868648-120.87274465zM114.218834 78.3743179c9.931408 0 17.99781 8.0653204 17.99781 18.0220656 0 .8259051-.086625 1.6620066-.188538 2.4930099h0l40.449212 11.1293266c2.206414-3.288326 5.956807-5.449954 10.191286-5.449954 6.812875 0 12.300882 5.485641 12.305978 12.271318 0 6.775481-5.498199 12.276417-12.305978 12.276417-4.137662 0-7.816716-2.080057-10.028225-5.240928h0l-49.687613 26.031306c1.396206 3.165969 2.180935 6.63783 2.180935 10.303421 0 14.17294-11.500866 25.654041-25.6514661 25.654041-14.1709827 0-25.6412747-11.481101-25.6412747-25.654041 0-14.152547 11.470292-25.633648 25.6412747-25.633648 1.8904831 0 3.7045321.203927 5.4676251.586291h0l3.470132-21.748835c-7.103326-2.416538-12.2091598-9.135939-12.2091598-17.0177245 0-9.9567452 8.0613068-18.0220656 18.0080018-18.0220656zm16.678039 24.7261721c-2.639543 6.607241-9.105914 11.277174-16.678039 11.277174-.535043 0-1.024224-.020393-1.528693-.061179h0l-3.541472 22.15669c4.810287 1.957701 8.87661 5.327598 11.714883 9.604971h0l49.947491-26.168957c-.249686-.994145-.402556-2.01888-.402556-3.079301 0-.963556.132487-1.886326.31593-2.77341h0z" fill="#232e44"/></svg>