<svg width="256px" height="256px" viewBox="0 0 256 256" xmlns="http://www.w3.org/2000/svg" preserveAspectRatio="xMidYMid"><path d="M92.8745667 181.582988c19.5370293 15.884116 22.8259973 32.760389 9.8669033 50.62882-15.9743485 21.514675-45.541282 29.329502-70.5688569 17.226001l-.2096196-.101374c-.0605151-.029265-.120978-.058637-.1813883-.088117-28.13430139-13.729344-39.76743315-47.575923-25.98332687-75.598451l31.19854797-63.42538 17.5311773-35.6401713 21.0695316-42.8335014C85.8360833 10.936262 107.190776-.844582517 129.051099.0472292899 150.168077-.0325021167 170.492412 11.6509035 180.402464 31.7976382l69.799258 141.8990528c13.784106 28.022528 2.150974 61.869106-25.983328 75.598451-.060409.02948-.120872.058852-.181388.088117l-.209619.101374c-27.961378 13.522307-61.588723 2.18282-75.596998-25.346783-7.26061-15.209109-2.418357-29.564781 14.526759-43.067017h-.005604c12.744046-10.253484 20.894399-25.945552 20.894399-43.533675 0-30.890874-25.141886-55.9328747-56.155975-55.9328747-31.0140885 0-56.1559747 25.0420007-56.1559747 55.9328747 0 17.883604 8.4265059 33.806911 21.5405734 44.04583zm34.6661223-14.732377c-16.295538 0-29.5056814-13.157662-29.5056814-29.38846 0-16.230798 13.2101434-29.38846 29.5056814-29.38846 16.295538 0 29.505682 13.157662 29.505682 29.38846 0 16.230798-13.210144 29.38846-29.505682 29.38846z" fill="#ff8f34"/></svg>