<svg width="256px" height="256px" viewBox="0 0 256 256" xmlns="http://www.w3.org/2000/svg" preserveAspectRatio="xMidYMid"><title>AppCode</title><defs><linearGradient x1="0%" y1="50%" x2="100%" y2="50%" id="a"><stop stop-color="#07c3f2" offset="19%"/><stop stop-color="#087cfa" offset="90%"/></linearGradient><linearGradient x1="0%" y1="50%" x2="100%" y2="50%" id="b"><stop stop-color="#07c3f2" offset="19%"/><stop stop-color="#087cfa" offset="90%"/></linearGradient><linearGradient x1="65.6417448%" y1="103.177083%" x2="16.2445747%" y2="34.03125%" id="c"><stop stop-color="#21d789" offset="9%"/><stop stop-color="#07c3f2" offset="48%"/><stop stop-color="#087cfa" offset="90%"/></linearGradient></defs><path fill="#087cfa" d="M195.626667 256 256 96.3733333l-48-10.88z"/><path fill="url(#a)" d="M255.253333 205.333333 195.626667 256l-85.093334-21.92z"/><path fill="url(#b)" d="M31.8666667 117.28 4.66666667 39.4666667 140.48-7.10542736e-15z"/><path fill="url(#c)" d="M223.36 148.213333l-38.106667-65.0399997.72-.4533333L140.48 0 0 151.706667V256l255.253333-50.666667z"/><path d="M48 48h160v160H48z"/><path d="M67.9466667 177.76h60.0000003v10H67.9466667v-10zM180.186667 76.1866667l-8.48 9.7866666c-4.059287-4.2179863-9.614771-6.6700619-15.466667-6.8266666-10.073481 0-17.382762 8.2665251-17.543947 18.4816089l-.00272.5317244c0 10.373333 7.173334 19.013333 17.546667 19.013333 6.435758 0 10.556088-2.315427 15.014787-6.212711l.655216-.581542c.109708-.098777.219694-.198474.329997-.29908l8.373333 8.586667c-6.204305 7.155784-15.338278 11.084375-24.8 10.666666-8.269291.138279-16.240952-3.083886-22.091554-8.929462-5.73359-5.728664-8.949408-13.496557-8.95229-21.5880818l.003844-.6557892c-.148381-8.3871624 3.136485-16.4708103 9.093155-22.3771282C139.823158 69.8765539 147.934399 66.6604272 156.32 66.88c8.919329-.4470146 17.604416 2.9396838 23.866667 9.3066667zM101.333333 68 126.88 128.08h-13.706667L107.84 114.746667H82.5066667L77.1733333 128.08H63.84L89.3333333 68h11.9999997zm-6.1866663 15.76-8 19.36h16.0000003l-8.0000003-19.36z" fill="#fff"/></svg>