<svg width="256px" height="286px" viewBox="0 0 256 286" xmlns="http://www.w3.org/2000/svg" preserveAspectRatio="xMidYMid"><title>AppDynamics</title><path d="M99.5761907 1.0658141e-13C185.966675 1.0658141e-13 256 70.0333249 256 156.423809c0 53.713195-27.072907 101.103174-68.317623 129.268837l-23.082275-52.422544c21.800219-18.464879 35.639065-46.039468 35.639065-76.846293 0-55.594627-45.068349-100.6629764-100.6629763-100.6629764-4.3301138 0-8.5963708.2734038-12.7824498.8038905L63.7069589 4.13189484C75.2251468 1.42947388 87.233733 1.0658141e-13 99.5761907 1.0658141e-13zM36.4477957 78.7305601 114.706156 257.365346c-4.308717.557696-8.702143.845311-13.162745.845311C45.4625336 258.210657 0 212.748123 0 156.667246c0-31.309752 14.1704388-59.309821 36.4477957-77.9366859z"/></svg>