<svg width="256px" height="256px" viewBox="0 0 256 256" xmlns="http://www.w3.org/2000/svg"><path d="M.295 119.3972c24.814 57.004 87.778 66.563 162.925 18.246 34.66 32.079 43.295 70.11 14.374 108.392-15.253 6.416-32.008 9.964-49.594 9.964-70.692 0-128.00000000000003-57.307-128.00000000000003-128 3e-23-2.891.10600000000002842-5.758.2950000000000284-8.602zm117.0585-24.7446c11.205-46.695 42.494-73.479 91.678-65.737 28.67 23.474 46.969 59.14 46.969 99.084 0 50.395-29.127 93.979-71.46 114.857 38.456-54.784 7.03-112.584-67.187-148.204zM128.0006-1e-14C155.4356-1.4210854700000001e-14 180.8516 8.635 201.6876 23.33c-69.951-8.132-102.984 50.175-98.37 130.694-45.452 13.941-82.48 3.669-102.048-44.047 8.761-62.158 62.157-109.977 126.731-109.977z" fill="#662d91"/></svg>