<svg width="512px" height="211px" viewBox="0 0 512 211" xmlns="http://www.w3.org/2000/svg" preserveAspectRatio="xMidYMid"><path d="M93.5520633 27.1031049c-6.0006875 7.1008134-15.6017874 12.701455-25.2028873 11.9013634-1.2001374-9.6010999 3.500401-19.8022685 9.0010312-26.1029903C83.3508946 5.6006416 93.8520976.400045829 102.353071 0c1.000115 10.0011457-2.9003318 19.8022685-8.8010077 27.1031049zM102.25306 40.904686c-13.9015925-.8000917-25.8029559 7.9009051-32.4037121 7.9009051-6.7007676 0-16.8019248-7.5008593-27.8031851-7.3008364-14.3016384.2000229-27.6031622 8.300951-34.90399853 21.2024289C-7.8595543 88.5101396 3.24171744 126.714516 17.7433787 147.716922c7.1008135 10.401192 15.6017873 21.802498 26.8030705 21.402452 10.6012145-.400046 14.8016957-6.90079 27.6031622-6.90079 12.901478 0 16.6019019 6.90079 27.8031851 6.700767 11.6013295-.200023 18.9021655-10.401191 26.0029785-20.802383 8.100928-11.801352 11.401306-23.302669 11.601329-23.902738-.200023-.200023-22.402566-8.700997-22.602589-34.30393-.200023-21.4024518 17.502005-31.6036205 18.302097-32.2036892-10.001146-14.8016957-25.602933-16.401879-31.003552-16.8019248zm80.3092-29.0033226V167.819225h24.202773v-53.306107h33.503838c30.603506 0 52.105969-21.0024056 52.105969-51.4058885 0-30.403483-21.102417-51.2058661-51.305877-51.2058661H182.56226zm24.202773 20.4023373h27.903196c21.002406 0 33.003781 11.2012832 33.003781 30.9035402 0 19.7022571-12.001375 31.0035517-33.103792 31.0035517h-27.803185V32.3037007zM336.579904 169.019363c15.201742 0 29.303357-7.700883 35.70409-19.90228h.500058v18.702142h22.402566V90.2103344c0-22.5025779-18.002062-37.0042392-45.705236-37.0042392-25.702944 0-44.705121 14.7016842-45.405201 34.9039986h21.802497c1.800206-9.6010999 10.701226-15.9018217 22.902624-15.9018217 14.801696 0 23.102647 6.9007905 23.102647 19.6022456v8.6009853l-30.203461 1.800206c-28.103219 1.700195-43.30496 13.201513-43.30496 33.203804 0 20.202314 15.701798 33.60385 38.204376 33.60385zm6.500745-18.50212c-12.901478 0-21.102418-6.20071-21.102418-15.701799 0-9.801123 7.900906-15.501776 23.002636-16.401879l26.903082-1.700194v8.801008c0 14.601672-12.401421 25.002864-28.8033 25.002864zm82.009395 59.70684c23.602704 0 34.703975-9.001031 44.405087-36.304159L512 54.7062671h-24.602818l-28.503266 92.1105519h-.500057l-28.503265-92.1105519h-25.302899l41.004697 113.5130039-2.200252 6.90079c-3.700424 11.701341-9.701111 16.201857-20.402337 16.201857-1.900218 0-5.600641-.200023-7.100813-.400046v18.702142c1.40016.400046 7.400848.600069 9.201054.600069z"/></svg>