<svg width="256px" height="350px" viewBox="0 0 256 350" xmlns="http://www.w3.org/2000/svg" preserveAspectRatio="xMidYMid"><title>Applitools</title><path d="M195.725388 174.716429c0 16.867455-1.78242 33.302411-5.124456 49.173808-21.834639-13.617161-50.72032-29.986587-88.819536-49.173808 38.099216-19.200328 66.971791-35.569754 88.819536-49.186915 3.342036 15.871397 5.11135 32.31946 5.11135 49.186915M256 74.2456356V21.4938821c-18.37587 16.2594543-37.330702 31.8526019-56.827727 46.7491937C178.844827 37.221113 152.868684 15.320944 118.701275 0c26.77561 23.7481186 45.17647 50.510623 59.068858 84.0882609C70.1172375 161.32207 0 174.716429 0 174.716429c0 0 70.1172375 13.381252 177.770133 90.628167-13.892388 33.590744-32.280142 60.327037-59.068858 84.075155 34.167409-15.320944 60.143552-37.221113 80.470998-68.243076 19.497849 14.900118 38.452712 30.497662 56.827727 46.7623v-52.751753c0 0-6.448165-10.746941-37.299749-32.660216 7.863615-21.113808 12.188604-43.957611 12.188604-67.810577.016201-23.149763-4.111772-46.115496-12.188604-67.810577C249.551835 84.9794706 256 74.2456356 256 74.2456356" fill="#00a298"/></svg>