<svg width="256px" height="315px" viewBox="0 0 256 315" xmlns="http://www.w3.org/2000/svg" preserveAspectRatio="xMidYMid"><path d="M213.803394 167.030943C214.2452 214.609646 255.542482 230.442639 256 230.644727c-.349188 1.11663-6.598617 22.563566-21.75737 44.716719-13.104075 19.152523-26.704377 38.234887-48.128871 38.630099-21.051708.387897-27.821007-12.483717-51.889069-12.483717-24.060792 0-31.581791 12.088473-51.5095774 12.871614-20.6800719.782568-36.4277295-20.710917-49.6407047-39.79328C6.07529317 235.552544-14.5576169 164.286328 13.147166 116.18047c13.7631451-23.8895647 38.3589257-39.0174344 65.0554465-39.4053604 20.307302-.387364 39.4749815 13.6620755 51.8890925 13.6620755 12.40624 0 35.69905-16.8956822 60.185922-14.4143377 10.251041.4266581 39.025882 4.1408404 57.502998 31.1865416-1.4888.922944-34.334275 20.044016-33.977231 59.821599M174.239142 50.1987033C185.218331 36.9088319 192.607958 18.4081019 190.591988 0c-15.825676.636050225-34.962474 10.5457909-46.313879 23.8283506-10.173039 11.7623252-19.082334 30.5886769-16.678452 48.6324426 17.639574 1.3647501 35.659756-8.963767 46.639485-22.2620683"/></svg>