<svg width="256px" height="188px" viewBox="0 0 256 188" xmlns="http://www.w3.org/2000/svg" preserveAspectRatio="xMidYMid"><path d="M224.039296 43.8018829c-19.001774 0-32.589439 16.7313413-46.596261 35.3838177C168.745531 39.5753855 159.104926 0 128.366762 0 97.6285987 0 87.9530632 39.5753855 79.1158412 79.2206304 65.1439487 60.5332242 51.5562833 43.8018829 32.5545095 43.8018829 20.4688225 43.8018829 0 52.0103698 0 82.8183927v55.8875703c0 30.214217 16.1375358 37.61932 25.8130714 40.16919h0c16.6964115 4.331287 56.9005321 8.383136 102.1694636 8.383136 45.268932 0 85.473052-4.051849 102.169464-8.383136h0C239.827534 176.325283 256 168.92018 256 138.705963V82.8183927c0-30.8080229-20.468822-39.0165098-32.554509-39.0165098m-95.078729-26.3370173c18.407969 0 25.428844 36.3269205 35.209169 79.919225-10.723427 13.2034384-22.11052 23.8570064-35.209169 23.8570064-13.098649 0-24.450812-10.653568-35.2091689-23.8570064 9.1515899-40.7629963 16.2073949-79.919225 35.2091689-79.919225M17.7443035 138.880611V82.9930413c0-19.4558602 10.4789193-21.5516441 15.0896438-21.5516441 13.4130168 0 27.943785 22.355028 41.5314504 40.3089098-9.7104652 40.728067-19.9798062 65.528176-44.2210397 60.428435-6.3222813-1.711557-12.2603356-5.728476-12.2603356-23.123482m47.5742939 28.328012c10.7234275-11.66653 17.4648656-29.86492 22.8091145-49.146132 11.2124437 11.77132 24.1713742 20.643471 40.2390502 20.643471 16.067676 0 28.991677-8.872151 40.23905-20.643471 5.20453 19.281212 12.050758 37.479602 22.774185 49.146132-18.757265 1.711557-41.321872 2.759449-62.873516 2.759449-21.551644 0-44.2908991-1.047892-63.0481648-2.759449M239.268659 139.05526c0 17.464866-5.938055 21.411925-12.260336 23.123482-24.276163 5.13467-34.510574-19.700368-44.22104-60.428435 13.727385-17.9538818 27.943785-40.3089098 41.531451-40.3089098 4.540865 0 15.089644 2.0957839 15.089644 21.5516441l-.139719 56.0622187z" fill="#21375a"/></svg>