<svg width="512px" height="90px" viewBox="0 0 512 90" xmlns="http://www.w3.org/2000/svg" preserveAspectRatio="xMidYMid"><title>Apptentive</title><g transform="translate(71.897749 1.854336)" fill="#3d3d3d"><path d="M45.815911 66.2983183l-4.3120857-14.8227948H18.8653751L14.283784 66.2983183H1.91495075e-14L22.0994394 3.77307502H38.269761L60.3692004 66.2983183H45.815911zm-7.54615-25.8725145c-4.3120858-13.4752679-6.4681287-21.021418-7.0071394-22.9079555-.5390107-1.8865375-.808516-3.2340643-1.0780214-4.3120857-.8085161 3.773075-3.5035697 12.6667518-8.0851608 26.9505359H38.269761v.2695053z"/><path d="M88.9367684 67.3763397c-5.6596125 0-9.9716983-2.1560429-13.2057626-6.1986232h-.808516c.5390107 4.0425803.808516 6.1986232.808516 7.0071393v19.4043858H62.7947486V18.5958698h10.510709l1.8865375 6.1986232h.5390107c2.964559-4.8510964 7.5461501-7.0071393 13.475268-7.0071393 5.6596125 0 9.9716983 2.1560429 13.2057622 6.4681286 3.234065 4.3120857 4.851097 10.510709 4.851097 18.056859 0 5.1206019-.808516 9.4326876-2.156043 13.2057626-1.617032 3.773075-3.50357 6.737634-6.4681287 8.6241715-2.9645589 2.1560429-6.1986232 3.2340643-9.7021929 3.2340643zm-4.0425804-39.078277c-3.2340643 0-5.6596125 1.0780214-7.0071393 2.9645589-1.3475268 1.8865375-2.1560429 5.1206018-2.4255482 9.7021929v1.3475268c0 5.1206019.8085161 8.8936769 2.1560428 11.0497198 1.6170322 2.1560428 4.0425804 3.2340643 7.2766447 3.2340643 5.9291179 0 8.6241715-4.8510965 8.6241715-14.2837841 0-4.5815911-.8085161-8.0851607-2.1560428-10.510709-1.0780215-2.4255482-3.2340644-3.5035696-6.4681287-3.5035696z"/><path d="M139.603776 67.3763397c-5.659613 0-9.971698-2.1560429-13.205763-6.1986232h-.808516c.539011 4.0425803.808516 6.1986232.808516 7.0071393v19.4043858h-12.936257V18.5958698h10.510709l1.886538 6.1986232h.53901c2.964559-4.8510964 7.54615-7.0071393 13.475268-7.0071393 5.659613 0 9.971699 2.1560429 13.205763 6.4681286 3.234064 4.3120857 4.851096 10.510709 4.851096 18.056859 0 5.1206019-.808516 9.4326876-2.156043 13.2057626-1.617032 3.773075-3.503569 6.737634-6.468128 8.6241715-2.695054 2.1560429-5.929118 3.2340643-9.702193 3.2340643zm-3.773075-39.078277c-3.234064 0-5.659613 1.0780214-7.007139 2.9645589-1.347527 1.8865375-2.156043 5.1206018-2.425549 9.7021929v1.3475268c0 5.1206019.808516 8.8936769 2.156043 11.0497198 1.617032 2.1560428 4.042581 3.2340643 7.276645 3.2340643 5.929118 0 8.624171-4.8510965 8.624171-14.2837841 0-4.5815911-.808516-8.0851607-2.156043-10.510709-1.078021-2.4255482-3.234064-3.5035696-6.468128-3.5035696z"/><path d="M184.611171 56.8656307c2.156043 0 5.120602-.5390107 8.085161-1.6170321v9.7021929c-3.234065 1.3475268-7.276645 2.1560429-11.858236 2.1560429-5.120602 0-8.893677-1.3475268-11.319225-4.0425804-2.425549-2.6950536-3.50357-6.4681286-3.50357-11.8582358V28.2980627h-6.198623v-5.3901072l7.276644-4.3120857 3.773076-9.97169832h8.08516V18.8653751h13.475268v9.7021929h-13.475268v22.9079555c0 1.8865376.539011 3.2340643 1.617032 4.0425804.808517.8085161 2.156043 1.3475268 4.042581 1.3475268z"/><path d="M219.646867 67.3763397c-7.54615 0-13.744773-2.1560429-18.056859-6.4681286-4.312085-4.3120857-6.468128-10.2412036-6.468128-18.056859 0-8.0851608 1.886537-14.2837841 5.929118-18.5958698 4.04258-4.3120857 9.432687-6.4681286 16.439827-6.4681286 6.737634 0 11.858235 1.8865375 15.63131 5.6596125 3.773075 3.773075 5.659613 9.1631822 5.659613 15.9008162v6.1986232h-30.723611c.269505 3.7730751 1.347527 6.4681287 3.234064 8.6241715 2.156043 2.1560429 4.851097 3.2340643 8.624172 3.2340643 2.964559 0 5.659612-.2695053 8.085161-.808516 2.425548-.5390108 5.120601-1.6170322 8.08516-2.964559v9.9716983c-2.156043 1.0780214-4.581591 1.8865375-7.276644 2.4255482-2.425549.8085161-5.659613 1.3475268-9.163183 1.3475268zm-1.886537-40.4258038c-2.695054 0-4.851097.8085161-6.468129 2.6950536-1.617032 1.6170321-2.425548 4.3120857-2.695053 7.54615h18.326364c0-3.2340643-.808516-5.6596125-2.425548-7.54615-1.886538-1.6170322-4.04258-2.6950536-6.737634-2.6950536z"/><path d="M289.17925 66.2983183h-12.936257v-27.759052c0-3.5035696-.539011-5.9291179-1.886538-7.8156554-1.347526-1.6170321-3.234064-2.6950536-5.929118-2.6950536-3.773075 0-6.198623 1.3475268-7.815655 3.773075-1.617032 2.4255483-2.425548 6.4681287-2.425548 12.1277412v22.3689448h-12.936257V18.5958698h9.971698l1.617032 6.1986232h.808516c1.347527-2.4255482 3.50357-4.0425804 5.929118-5.1206018 2.425548-1.0780214 5.390107-1.8865375 8.624171-1.8865375 5.659613 0 9.702193 1.6170321 12.666752 4.5815911 2.964559 2.9645589 4.312086 7.2766447 4.312086 12.9362572v30.9931163h0z"/><path d="M318.285829 56.8656307c2.156043 0 5.120602-.5390107 8.085161-1.6170321v9.7021929c-3.234065 1.3475268-7.276645 2.1560429-11.858236 2.1560429-5.120602 0-8.893677-1.3475268-11.319225-4.0425804-2.425549-2.6950536-3.50357-6.4681286-3.50357-11.8582358V28.2980627h-6.198623v-5.3901072l7.276644-4.3120857 3.773076-9.97169832h8.354666V18.8653751h13.475268v9.7021929h-13.475268v22.9079555c0 1.8865376.53901 3.2340643 1.617032 4.0425804.808516.8085161 2.156043 1.3475268 3.773075 1.3475268z"/><path d="M331.222086 6.46812861c0-4.31208574 2.425548-6.468128609999998 7.007139-6.468128609999998C343.080322 2.3936884400000003e-15 345.236365 2.15604287 345.236365 6.46812861c0 1.88653751-.539011 3.50356967-1.886538 4.58159109-1.078021 1.0780214-2.964559 1.6170322-5.390107 1.6170322-4.312086 0-6.737634-1.8865375-6.737634-6.19862329zm13.475268 59.83018969h-12.936257V18.5958698h12.936257v47.7024485z"/><path d="M365.449267 66.2983183l-18.056859-47.7024485h13.475267l9.163183 27.2200412c1.078021 3.5035697 1.617032 6.737634 1.886537 9.7021929h.269506c.269505-2.6950536.808516-5.9291179 1.886537-9.7021929l9.163182-27.2200412h13.475268l-18.056859 47.7024485h-13.205762 0z"/><path d="M420.967371 67.3763397c-7.546151 0-13.744774-2.1560429-18.05686-6.4681286-4.312085-4.3120857-6.468128-10.2412036-6.468128-18.056859 0-8.0851608 1.886537-14.2837841 5.929118-18.5958698 4.04258-4.3120857 9.432687-6.4681286 16.439827-6.4681286 6.737634 0 11.858235 1.8865375 15.63131 5.6596125 3.773075 3.773075 5.659613 9.1631822 5.659613 15.9008162v6.1986232H409.37864c.269505 3.7730751 1.347527 6.4681287 3.234064 8.6241715 2.156043 2.1560429 4.851097 3.2340643 8.624172 3.2340643 2.964559 0 5.659612-.2695053 8.085161-.808516 2.425548-.5390108 5.120601-1.6170322 8.08516-2.964559v9.9716983c-2.156042 1.0780214-4.581591 1.8865375-7.276644 2.4255482-2.425549.8085161-5.390107 1.3475268-9.163182 1.3475268zm-1.886538-40.4258038c-2.695054 0-4.851096.8085161-6.468129 2.6950536-1.617032 1.6170321-2.425548 4.3120857-2.695053 7.54615h18.326364c0-3.2340643-.808516-5.6596125-2.425548-7.54615-1.886538-1.6170322-4.04258-2.6950536-6.737634-2.6950536z"/></g><path d="M61.9260507 14.5210883c1.8865375 4.3120858 2.1560429 8.6241715 1.0780215 12.6667519L48.4507828 67.613644 9.91151646 53.32986c-3.77307502-1.6170322-6.46812861-4.5815911-8.35466612-8.6241715-1.886537513-4.3120857-2.156042872-8.8936768-.26950536-14.0142787 1.88653751-4.8510964 4.85109646-8.3546661 9.16318222-10.510709 4.0425804-2.1560428 8.3546661-2.6950535 12.6667518-1.6170321 13.7447733 3.773075 19.4043859 10.7802143 16.4398269 20.4824073-4.5815911-6.4681286-9.9716982-10.2412037-16.1703215-11.5887305-5.6596125-1.6170321-9.7021929.2695054-11.8582358 6.1986233-1.8865375 5.6596125-.8085161 9.7021929 3.5035697 11.5887304l27.4895466 10.2412037 11.0497197-30.723611c.8085161-2.6950535.2695054-5.1206018-1.0780214-7.8156554-1.6170322-2.9645589-4.0425804-4.8510964-7.0071394-5.9291179-3.5035696-1.34752675-6.7376339-1.34752675-9.7021929 0-2.6950536 1.0780215-4.3120857 2.6950536-4.8510964 4.5815911l-9.4326876-3.2340643c1.8865375-4.85109642 5.6596125-8.35466609 11.0497197-10.51070896 5.1206018-2.425548227 10.510709-2.425548227 16.1703215-.26950536C53.84089 3.4713686 57.8834703 7.24444362 61.1175346 12.9040562c0 .2695053.5390108.808516.8085161 1.6170321z" fill="#ef4650"/></svg>