<svg width="256px" height="171px" viewBox="0 0 256 171" xmlns="http://www.w3.org/2000/svg" preserveAspectRatio="xMidYMid"><title>Appwrite</title><path d="M128.018861 11.4976205C140.57991 4.20943701 155.173787.0362230359 170.742783.0362230359 217.829688.0362230359 256 38.206535 256 85.2934403c0 47.0869057-38.170312 85.2572177-85.257217 85.2572177-15.562818 0-30.151415-4.169822-42.709683-11.452882-28.7646641 16.635585-65.8896868 15.525288-94.0822432-5.749402C9.61305016 135.009282-3.08589011 105.074565.641534125 74.8296075 4.36895836 44.5846499 23.9559075 18.6288844 52.0181053 6.74762994 76.8681001-3.7736098 105.017682-1.8412185 128.018861 11.4976205zM29.8152259 43.4190301C6.68862775 74.0656663 12.7848231 117.657486 43.4314593 140.784084c30.6466362 23.126598 74.2384557 17.030403 97.3650537-13.616234 15.491793-20.529234 17.8706-46.8672898 8.540869-68.9714437-6.85352-16.1335138-19.627844-29.1443306-35.596263-36.3054794l.03637-.0337839C84.8408261 8.83821324 49.7358247 17.0208829 29.8152259 43.4190301zM91.355197 55.446856c2.6088708 0 3.4640663.1495281 3.3132266.6007355-.0737704.1704349-.2887604.9655667-.5763506 2.1171956l-.1111154.4480479c-.2856262 1.1592774-.6275222 2.602417-.9691473 4.1084291-.5530789 2.4296995-1.7522821 7.5038535-2.9861899 12.7095366l-.2245931.9473778c-.3745057 1.5795138-.7487954 3.1571205-1.1058555 4.6628941-1.605459 6.7746697-3.6135944 15.4079467-4.5186325 19.1710694h0l-1.5543047 6.928132h-3.4640663c-1.9058267 0-3.4627547-.203305-3.4627547-.452519 0-.903726 1.5057737-7.7295502 4.0175824-18.1178143 1.302468-5.6715724 3.6109711-15.2571069 5.0682137-21.3300441.7827016-3.3868303 1.534399-6.4770809 2.0639832-8.5918599l.1063372-.423399c.3606489-1.4316223.5979159-2.3271796.6392328-2.4288829.0983737-.1993707 1.8061414-.3488988 3.7644341-.3488988zM69.4729484 72.5087927c2.3085031 0 4.2156415.1508397 4.2156415.351522 0 .2505251-1.807453 2.3609691-4.0149591 4.8190003-2.2088178 2.4095001-4.0162708 4.6668489-4.0162708 5.0183709 0 .3003678 1.9569811 2.7111796 4.3179502 5.2177417h0l4.3153268 4.6681606h-9.1343271l-3.2122296-3.4116003c-1.7562987-1.8572957-3.8169-4.1172678-4.5671635-5.0196827h0l-1.3562456-1.6054589 4.6170062-5.0196827 4.6694722-5.0183709zm35.0826886 0 4.514698 4.8701545c2.510497 2.6587136 4.517321 5.018371 4.517321 5.2675844 0 .3003678-1.905827 2.6128058-4.266796 5.220365h0l-4.264172 4.6668489-4.668161.0498427h-4.6655372l4.1644871-4.5671635c2.3071911-2.4593429 4.2156411-4.816377 4.3153271-5.1692107.150839-.6505782-2.608871-3.9651164-6.5267681-7.8790785-1.0519429-1.0545662-1.9058267-2.0068238-1.9058267-2.1589751 0-.149528 1.956981-.3003677 4.4163238-.3003677h0 4.369104z" fill="#f02e65"/></svg>