<svg width="256px" height="177px" viewBox="0 0 256 177" xmlns="http://www.w3.org/2000/svg" preserveAspectRatio="xMidYMid"><title>ArangoDB</title><path d="M251.466487 88.5489601c-2.366358-7.8584584-3.54781-11.7885526-5.262036-15.967737-3.303909-8.0833319-7.50731-14.6548226-13.805493-22.7986972-14.739583-19.0277442-22.10678-28.5589142-34.128854-36.1527139C172.184796-2.86205286 144.732951.0561111855 141.602022.434936274 132.233452 1.56293555 111.624676 5.6744851 93.9634697 22.7146949c-10.005134 9.666094-16.2929385 23.525211-19.2353197 30.6000722-3.2537443 56.3913149 52.066827 78.9824369 65.092183 88.4271169 4.184374 1.992724 13.810683 6.230721 21.622437 10.264603 18.041761 9.311486 30.548178 11.238477 37.000313 12.366304 14.059773 2.464957 35.927841-3.101523 46.30661-14.736123 9.944591-11.148528 12.840269-26.189095 10.468718-39.595006-.720286-4.122101-.73101-11.4512423-3.760573-21.518649l.008649.0259471z" fill="#577138"/><path d="M243.511506 82.4946778c-3.767493-10.0518383-8.18366-16.7219276-13.426668-24.6322798-6.417539-9.6885814-12.153539-16.2929385-16.759983-21.5532447-9.823506-11.2159904-14.739583-16.8239855-21.414861-20.8959228-11.522164-7.03161633-22.660314-8.30128581-28.991363-8.96206747-14.941969-1.54885839-26.362075 1.61891507-31.914717 3.21222918-5.711783 1.64538089-17.029831 5.01813509-28.852979 14.29848489-10.7074306 8.4085331-17.2944898 21.0689023-20.8786248 27.8842942-3.2900699 6.1442316 16.9502605 55.4572247 63.7083468 84.6042697 2.392307 1.236976 9.053747 4.277783 13.167199 6.358726 1.338862.677907 2.568746 1.284719 3.719059 1.842232 1.8578.850713 3.589325 1.664927 5.220521 2.4442 5.251658 2.371549 8.503672 3.577216 12.807402 5.829409 14.910832 7.796186 30.651966 5.573399 32.987189 5.210142 3.094603-.475866 24.614982-3.805549 33.523426-20.930518 4.699853-9.03126 3.88166-18.024464 2.764213-30.340603-.31638-3.492456-1.38228-12.9405962-5.675458-24.3901089" fill="#a3b34f"/><path d="M171.31298 142.864521c15.671942 5.998929 20.82673 9.133317 27.538335 9.95151 2.205488.263967 23.248443 1.586914 35.581881-10.065677 9.183482-8.669732 9.624579-17.436333 10.153897-21.570543 1.830123-14.232752-2.217598-32.4855483-6.945127-41.445886-6.206504-11.7712544-7.810024-14.2448612-24.4593-36.3083954-12.329979-16.3188853-18.508806-19.3391073-24.943643-23.5771049-11.060309-7.2322726-23.853872-7.3966031-32.537443-7.7546706-6.388132-.2605071-18.353124 2.0809433-29.821664 6.1009867-17.920676 6.3016429-28.385935 16.8603112-35.7375635 31.8109285-8.1611723 17.2408662 33.1082745 73.4297947 61.8055725 84.9156327" fill="#dde072"/><path d="M176.675344 109.13352c9.993025-1.747093 16.645816-12.0013175 18.681785-20.3077929 2.857621-11.748767-3.053088-21.5532447-6.991831-28.0918696-3.717329-6.1528804-10.254224-14.7620699-22.089481-19.5639804-10.895979-4.4282752-19.356406.943603-23.300338 3.1395778-17.384439 25.7047524-3.917985 51.79006 21.657033 64.8154161 3.227797.318974 9.503493.451822 12.037642.010378" fill="#a3b34f"/><path d="M147.735875 133.350649c4.38676-5.237819 12.81951-16.097472 16.230666-22.850591.222451-.439541.44473-.906413.667181-1.390237 3.679274-7.995112 7.329141-21.8300114 7.67683-32.7277196.311882-9.7595028-3.025411-16.355211-3.025411-16.355211-3.404237-8.8755778-13.194876-11.9148275-17.488227-13.5581326-3.525322-1.2765887-6.683927-1.9287213-9.889237-2.2954379-6.312022-.5661618-15.066514.1089771-30.20222 2.3300337-14.9938622 2.099971-29.960048 4.9627818-43.7465135 8.2822583-16.7150084 4.0736668-25.9296259 6.3172109-36.5505668 11.4564316C19.1424009 72.1752402 7.55450469 77.7797758 2.53809942 90.0959156-.530556786 97.6395512-.264168367 105.235081.500400989 110.282622c0 0 3.309097701 33.021785 26.033413711 49.85269 19.0277441 14.111667 47.0850179 19.32181 67.9982385 13.606567 16.4935948-3.136118 32.2260798-18.595295 45.3033288-32.122292 2.670804-2.705399 5.889952-5.881303 7.905163-8.280528l-.00467.01159z" fill="#577138"/><path d="M127.030229 127.815305c-15.376147 9.0278-37.9344023 21.276477-66.1646555 20.965114-.9091803-.010378-1.8249337-.032866-2.7469143-.070056-9.4671676-.381939-34.6131966-1.394734-47.5520626-18.214741-3.56856694-4.646229-5.67718694-9.78199-6.82058139-13.272716l-.03096334-.076111.00172979-9e-4c-.69191796-2.127648-.94723568-3.378289-.95519275-3.423264-.19581279-.907278-.35702967-1.793797-.49524028-2.712319l-.01764391-.062099c-.00172979-.010379-.00345959-.019547-.00518938-.029234l.00172979-8.82e-4-.00518938-.013838c-.72651387-4.824398-.97560434-12.0584007 1.93218093-19.2007239C8.9326323 80.0256895 19.7023355 74.8155473 32.1776165 68.7837523c10.4531507-5.0561906 19.5985765-7.2841665 36.1873099-11.3284269 2.1259179-.5147871 4.1705356-1.0029352 6.1425017-1.4557953 2.2297057-.5051002 4.3711917-.9835615 6.4261882-1.418605 4.0269625-.8533078 7.8757563-1.6081903 11.7712544-2.3075463l.0194603-.0121087c7.1475127-1.2724371 13.418019-2.2072183 19.235319-3.0565477 14.992133-2.1985693 23.628999-2.8731892 29.787069-2.317925 3.37829.2976976 6.192666.951733 9.411814 2.1847309 4.397139 1.6834364 12.580799 4.8174789 16.53511 12.6966948 1.189926 2.3750085 1.894126 5.0060265 2.096511 7.8325115.023872.2738265.039786.556475.047916.8382586.241825 7.1008081-2.684642 14.0805305-4.257025 17.8341855-8.834063 21.0343063-25.255006 31.7244393-38.557129 39.5431123" fill="#a3b34f"/><path d="M117.343378 128.853182c14.639254-7.534987 26.517756-16.183962 32.64123-22.919783 10.171194-11.1935029 14.317513-22.5738239 15.215276-31.8282267 1.006568-10.3701206-5.514586-14.2465911-7.726994-16.1320675-8.233824-7.0281567-19.425597-6.91572-29.596791-6.952945-4.622012-.014669-11.254046.3385552-31.5860553 4.7682141-16.1701228 3.6861931-19.4774909 4.487088-39.0241734 9.8286948-13.0305453 3.6273801-20.3769842 6.0698503-26.3793728 9.8390734-8.3912351 5.2689554-18.8374667 11.8283377-21.48405287 24.4765982C6.11410446 115.62544 17.7210284 128.69923 20.0804687 131.172837c11.3595633 11.850825 27.0193966 13.272716 37.813317 13.310507 4.2397273.014103 8.2545814-.209732 11.7937419-.40641 21.9337997-1.212067 37.0349094-9.766422 47.6558504-15.215276" fill="#dde072"/><path d="M60.5023164 65.715667c-1.6791117 1.2696695-4.4161662 3.9612303-5.8207599 5.4004198l-3.9058768 4.3677322c-6.9243692 8.6974089-11.8646635 25.462581-8.114468 29.977346 1.923532 2.319655 2.9337322 2.572205 3.6221906 3.03406 9.6142002 4.649689 18.38772 11.032632 32.7277198 11.871583l11.926936-.013839c.9657446-.039785 2.3836575-.09756 3.4025069-.173671 2.6586947-.239231 1.4983483-.261372 3.3333146-.457185 16.4987844-2.708859 38.4706394-14.381515 37.6230394-30.7211575-.324336-6.1061761-7.298004-16.1078503-12.032453-20.6191556-5.033703-4.8019108-14.442058-9.4654379-16.907016-10.3459035-1.1536-.3561647-2.532419-.8266691-4.833047-1.2307491-1.213105-.2162243-2.4078744-.4066748-3.5962435-.5440203-.5661619-.0726514-1.1333617-.1276589-1.7003883-.1824934-.5723893-.0532778-1.1376862-.0840681-1.703848-.1195289-11.9788298-.7451956-22.7295054 2.3767382-31.0152231 7.6560723-.6875934.438676-1.3644623.8870387-2.0169409 1.3547755-.337656.2471877-.6663171.4846883-.9949781.7406982" fill="#5e3108"/></svg>