<svg width="256px" height="219px" viewBox="0 0 256 219" xmlns="http://www.w3.org/2000/svg" preserveAspectRatio="xMidYMid"><title>Arc</title><path d="M123.632049.0119181999C137.468246.41016371 149.964499 8.53218026 155.951855 21.1006877l23.761399 49.9840168.381988-.9655612c.949073-2.5119825 1.723684-5.0638342 2.314553-7.6398173l.332398-1.5483598c4.003881-20.0194058 23.463174-32.9766 43.520512-29.0158809 9.620937 1.9219941 18.083866 7.5882129 23.526052 15.7514911 5.442185 8.1632783 7.417568 18.1545281 5.491313 27.7748364-5.336863 26.6513712-19.095117 51.3869452-38.828887 70.9827102l-.624899.607252 8.330424 17.513291c9.666965 20.330524-.349693 44.903068-21.401243 51.799083l-.949953.296891-.724722.219323c-3.23188.908967-6.586113 1.373399-9.89638 1.373399-14.156439 0-27.211404-8.088402-33.420378-21.102435l-6.429488-13.517566-1.622164.401478c-8.692424 2.053923-17.50882 3.192197-26.328134 3.367646l-2.405249.023942c-8.487516 0-17.116369-.986987-25.735946-2.901079l-1.7003893-.395446-6.1765328 12.986922c-4.1712911 8.770981-11.6185044 15.53374-20.7133322 18.852451l-1.0991837.381622c-9.592993 3.162525-20.0622205 2.262448-28.9604111-2.483473-17.5596942-9.334895-24.2559147-31.186534-15.6878924-49.235141l7.6697598-16.129214-.6707693-.650663c-10.5137089-10.370995-18.84860117-22.162471-24.37930673-34.835344l-.73674706-1.733532-.10659373-.280945C-4.92895274 92.0575466 4.21101343 70.5167001 23.1225764 62.8608126c14.8336957-6.0050617 31.2771778-1.6927617 41.3886319 9.5782322l.1906836.2180402 24.4456163-51.4217454C95.0697766 8.57685972 107.624118.384617476 121.534932.00997170194L122.569634-1.96007646e-13 123.632049.0119181999z" fill="#fff"/><path d="M87.1176437 170.044725l21.8960893-46.067992c-16.7237848-3.551649-33.5510154-13.896258-43.0680556-26.4821985L43.0496096 145.631448c12.723869 10.792875 27.9994082 19.275455 44.0680341 24.413277" fill="#1a007f"/><path d="M178.495023 96.1152533c-10.999768 13.4824737-26.275307 23.4822627-42.619789 27.3787317l21.827125 45.930064c15.930698-5.379197 30.826934-14.068668 43.688732-25.206364l-22.896068-48.1024317z" fill="#4e000a"/><path d="M43.0496096 145.631448l-11.4480339 24.068457c-5.827463 12.241121-1.4482453 27.309768 10.5515011 33.688943 12.723869 6.758478 28.3787106 1.482727 34.5165119-11.37907l10.448055-21.965053c-16.1342063-5.201427-31.1018248-13.493347-44.0680341-24.413277" fill="#1a007f"/><path d="M223.942338 43.5646398c-6.538973-1.3092854-13.330228.0334225-18.878974 3.7325863-5.548745 3.6991639-9.400189 9.4515887-10.706608 15.9911348-2.413742 12.0687104-8.068795 23.3098522-15.861733 32.8613744l22.861586 48.1369137c21.103002-18.309958 36.688879-43.240465 42.274968-71.1364276 2.72408-13.6548838-6.103319-26.8959832-19.689239-29.5855816" fill="#ff9396"/><path d="M135.875234 123.493985c-4.896448 1.172389-9.896343 1.793066-14.896237 1.793066-3.896469 0-7.930867-.448267-11.965264-1.310318-16.7237848-3.551649-33.5510154-13.896258-43.0680556-26.4821985-2.3792601-3.1378647-4.3102537-6.4136576-5.6550529-9.7584145-5.2067865-12.8617971-19.8616492-19.0685624-32.7234463-13.896258-12.8617971 5.2067865-19.06856249 19.8616492-13.896258 32.723446 5.8964271 14.620381 16.3100001 28.033891 29.3786894 39.06814 12.9537048 10.919318 27.9099459 19.211423 44.0335521 24.413277 11.0687316 3.551649 22.5512473 5.517125 33.8613533 5.517125 12.551459 0 24.930508-2.172368 36.723362-6.137801l-21.792643-45.930064h0z" fill="#002dc8"/><path d="M213.425319 169.596459l-12.06871-25.378774-22.861586-48.1024317-.034482.034482c0 0 0-.034482.034482-.034482l-33.240677-69.9295565c-4.164642-8.7562882-12.992951-14.3377117-22.689176-14.3445244-9.68945 0-18.51685 5.5860888-22.6891753 14.3445244L65.9801594 97.4945345c9.5170403 12.5859405 26.3442708 22.9305495 43.0680556 26.4821985l10.965285-23.033996c1.034461-2.1723674 4.137844-2.1723674 5.172305 0l10.723911 22.551248h.068964-.068964l21.827125 45.930064 10.723911 22.551247c4.162108 8.77453 13.012054 14.361143 22.723658 14.344562 2.241332 0 4.482664-.310376 6.689514-.931052 15.137611-4.172326 22.309873-21.585751 15.551395-35.792347" fill="#ff536a"/></svg>