<svg width="256px" height="256px" viewBox="0 0 256 256" xmlns="http://www.w3.org/2000/svg" preserveAspectRatio="xMidYMid"><path d="M127.975926 0c-11.396494 27.9359185-18.270307 46.2092913-30.9588111 73.31478 7.7796421 8.2448675 17.3287851 17.8464276 32.8365621 28.690485-16.672381-6.8592918-28.044985-13.7458585-36.5439159-20.8920645C77.0708968 114.991716 51.6292657 163.250154 0 256c40.5788694-23.422481 72.0348875-37.862691 101.350386-43.372697-1.25882-5.413143-1.9745082-11.268513-1.9258985-17.377961l.0481474-1.299737c.6438921-25.992917 14.1679311-45.981474 30.1884521-44.624295 16.020529 1.35718 28.473109 23.541479 27.829227 49.534412-.1211 4.891046-.672893 9.596178-1.637013 13.960135C184.850516 218.491161 215.970178 232.894401 256 256c-7.893101-14.529016-14.938375-27.625864-21.666353-40.099285-10.597663-8.21235-21.651547-18.900753-44.199361-30.471606 15.498072 4.026295 26.594495 8.671566 35.243935 13.863858C156.972972 71.9582954 151.433611 55.0381461 127.975926 0z" fill="#1793d1"/></svg>