<svg width="256px" height="256px" viewBox="0 0 256 256" xmlns="http://www.w3.org/2000/svg" preserveAspectRatio="xMidYMid"><title>Architect</title><path d="M116.588067 105.225338c5.440899-7.8086544 16.892657-7.9410045 22.536984-.39705l.286708.39705 58.699231 84.239247c.01798.026109.047055.0424.07871.044101l.045611-.008054h0l.037375-.027354c.021063-.023068.051263-.035621.082472-.034278l.044189.011823h0l.035035.02941 19.022786 25.940953c1.008429 1.375288.874551 3.284347-.351211 4.471859C194.061628 242.241906 162.638649 256 128.000348 256c-34.6377797 0-66.0621496-13.758094-89.1064788-36.106955-1.1526767-1.119295-1.3398418-2.874665-.5167045-4.225342l.1661886-.248256 19.0224384-25.939214c.018475-.025519.0476035-.041191.079079-.042546l.0453.008349h0l.0371434.027242c.0208467.024047.0516299.037118.0834093.035419l.0446842-.012894h0l.0344721-.031218 58.6981873-84.239247zM128.000348-1e-14C198.693444-1.4210854700000001e-14 256 57.3077731 256 128.000348c0 23.827252-6.50958 46.134385-17.849184 65.238889-1.181961 1.991111-3.921588 2.173787-5.428943.48311l-.17479-.211878-18.615937-24.407446c-.78414-1.029293-.92845-2.40458-.408587-3.588614 5.043881-11.480437 7.843139-24.170988 7.843139-37.514061 0-51.5640777-41.801099-93.3650027-93.36535-93.3650027-51.5640777 0-93.3650027 41.800925-93.3650027 93.3650027 0 13.343073 2.7990844 26.031885 7.8420961 37.512322.4800334 1.094559.3944415 2.350599-.2384511 3.346926l-.1696147.243427-18.6157634 24.407446c-1.4599611 1.914276-4.374841 1.799524-5.6035589-.271232C6.51062286 174.134733 0 151.8276 0 128.000348c0-70.6925749 57.3077731-128.000348 128.000348-128.000348z"/></svg>