<svg width="256px" height="327px" viewBox="0 0 256 327" xmlns="http://www.w3.org/2000/svg" preserveAspectRatio="xMidYMid"><title>Argo</title><g style="fill:#fefefe"><path d="M109.984352 264.490226c.027976 0 .056175.084233.056175.252679.027977 1.179103.056115 2.330129.084213 3.509253.168447-.898367.336893-1.796753.533397-2.723177-.140369-1.712601-1.487898-.842292-.673785-1.038755z"/><path d="M183.650382 168.477243c-.027977.027977-.084213.027977-.11227.056176.027976.027977.084213.056176.11227.084213-.027977-.027977 0-.084233 0-.140389z"/><path d="M137.24414 50.6227892v.027674h.084213c-.028017 0-.056115-.027674-.084213-.027674z"/></g><path d="M176.688052 287.314277c.36495-4.070727.168446-8.197589.673785-12.240238 1.122968-8.899452.056155-17.995408 2.386285-26.782548 1.151046-4.547988-2.526653-9.882031 2.18976-13.868525h0l-1.179103-3.874223c-1.008895-2.046461-.956515-4.456321.140348-6.457012h0c-.276967-7.803451.193075-15.615506 1.403705-23.32945.421106-10.724263.870289-21.448505 1.291395-32.200805-.027977-.027997-.084213-.056175-.112291-.084233-22.936423 10.527739-44.553353-4.211014-48.231053-21.897688-2.414362-11.622689-1.122968-22.599449 7.94493-31.470884 1.515915-1.487918 2.807411-3.200438 4.211096-4.828724 3.705756-22.206503 1.122968-42.588215-17.855039-58.4780745 2.835468-1.6282867 5.390199-.7018224 7.69227-1.1229278v-.0276337c-23.273295-5.8393821-51.5157033 10.0785148-60.8643181 34.3906054-2.9072442 7.1843404-4.2195286 14.9143673-3.8461251 22.6556456 23.0768115-10.6961849 43.7672982 2.07747 49.4663112 21.532717 5.923595 20.241324-9.853973 41.66173-30.8251968 41.970545-6.0048976.028922-11.9788776-.861021-17.7146096-2.638944.4211189 11.173446.8515904 22.346878 1.2914144 33.520297h0c1.0282462 7.289535 1.4694882 14.649868 1.3194719 22.010039.0561421 1.740577.1122975 3.481161.1684665 5.221752h0c-.0561757 1.151026-.1122908 2.302052-.1684665 3.481175 1.4598463 7.05587 2.3331167 14.220476 2.6108663 21.420427-.0508844-.184219-.0884054-.371872-.1122706-.561494.0279768.196524.084213.36497.1122706.561494.561474 12.2121.8983664 24.452459 1.7686552 36.664559.3649702 5.053307-1.4598405 7.57996-6.1201797 8.871435-5.5025097 1.544073-10.9207661 3.396942-16.3671204 5.137539 7.1866744.903602 14.434799 1.222823 21.6730861.954522 7.7764835-.168446 11.3138544-3.621543 12.0717919-11.341892.4772609-4.912917.8983664-9.825875 1.3475497-14.738813.5053185-8.899452 1.0106572-17.826961 1.5159152-26.726393h1.0948904v25.406921h0c.1403685 3.846125.1965038 7.720328.4491832 11.566473 1.1229682 17.939252 1.6563645 17.826961-16.2267317 21.448485-.4094141.127339-.8045581.296686-1.1791237.505338 1.0668329.701843 2.1335851 1.403685 3.2004381 2.133585.3279225.053029.6156472.248266.7860757.533397 4.2671701.027976 8.5625996.393027 12.7736546 0 7.6641722-.729921 11.2857162-4.828725 11.8472102-12.436763.336893-4.884839.842231-9.769679 1.263337-14.654519-.43648-6.449855.074247-12.928862 1.515915-19.230666-.027977-1.179084-.056115-2.33013-.084213-3.509233 0-.168446-.056176-.280757-.056176-.25268-.814133.196524.533417-.673764.673785 1.038735.140369-.757998.308835-1.515915.449184-2.273994v29.421492h0c.084213 3.453118.196503 6.878117.252679 10.331235.140369 12.492897-.645707 13.615866-12.5490528 17.181254-3.2846512.982579-6.7095901 1.572131-9.9662443 2.667021-2.3582271.814134-5.3621412.364971-7.5799595 3.144283 9.6855072-.36497 18.753385.72992 27.7651276-.72992 9.320557-1.515915 13.026314-5.277908 14.935358-14.373944 1.403685-6.681594 1.993236-13.559711 4.547967-20.325537.28946.462139.533895.950994.729941 1.459841 1.291394 6.316643 2.582788 12.661363 3.818047 18.977986 1.740578 8.843296 5.334043 12.605209 14.317708 14.17734 9.292459 1.600229 18.69725.505339 28.326602.72994-1.375608-2.358227-3.537331-1.965179-5.277909-2.470518-5.97973-1.740577-12.071791-3.228495-17.939251-5.24983-4.26717-1.487918-7.32726-4.211095-7.271145-9.460845.140368-14.373843.056176-28.747707.056176-43.12157h1.740577c.61767 9.011722 1.34755 17.995387 1.82475 27.007129 1.094891 20.830875 3.565388 23.104869 24.480476 21.953823 1.179104-1.965159 4.070727-.421105 5.165598-2.526653-5.025229-.027957-9.404771-2.44242-14.008914-3.986595-2.553549-.879138-4.191842-3.371126-3.986595-6.063963.224562-14.766912-.336892-29.589938 1.656345-44.300654 1.207201 12.352529 2.161703 24.733156 3.116205 37.085685.449183 5.783226 3.060089 10.303136 9.124033 10.696184 8.197609.561474 16.423276.140349 24.648943.140349-4.277034-1.985299-8.708647-3.618978-13.250896-4.88484-10.050477-3.228516-9.994322-3.256574-9.067898-13.475497l3.03e-4-5.25e-4zm-63.222505-210.63884c-.037788 4.1085257-3.359143 7.4298812-7.467669 7.4676688-4.407619.084213-7.7203481-2.4424199-7.8045611-8.1695113.0383582-1.9857582.8886399-3.8690864 2.3527251-5.2111599 1.464086-1.3420735 3.414107-2.025681 5.395701-1.8915386 5.24979-.0842332 7.607977 3.453057 7.523804 7.804541zm33.744898 122.79547c.027977 11.369929-8.67487 21.280038-18.613037 21.25204-9.376692-.028037-18.949949-11.089292-18.613036-21.532797h0c-.505339-3.088128-1.038735-6.204333-1.740578-10.527719 6.70959 4.576005 12.352529 9.264402 19.904431 9.432848 7.720348.140369 13.784312-3.818047 20.100935-8.450248 1.347509 3.705777-2.049433 6.59738-1.038755 9.825876h4e-5z" fill="#fe733e"/><path d="M76.0990849 224.063674c-.561474-.196524-1.0948904-.449184-1.6282867-.645707-7.5260427-3.28891-14.4594072-7.794188-20.5220603-13.335169-22.2906147-19.258785-37.0014716-43.374149-40.5668598-72.627316-4.04266926-33.239519 3.396942-63.9243276 25.5753668-90.28577C59.198548 23.1384189 84.9985165 9.1295256 115.795636 5.90102993c34.222139-3.56540834 64.963123 6.00780807 90.847304 29.64613397 21.131774 18.7604524 34.480845 44.7475976 37.422557 72.8519171 3.033005 24.123279-1.969559 48.573702-14.233475 69.567226-11.426084 19.511403-26.642179 35.345107-47.220375 45.367507-.561474.280757-1.122968.561474-1.684442.814153h0c-1.110835 1.996918-1.163373 4.413687-.140369 6.456992h0c.439361-.472799.928855-.896397 1.459841-1.263317 31.077876-16.451333 52.638652-40.903752 62.717187-74.929367.870288-2.891603 2.217838-4.323366 5.446374-3.986594 4.379521.449183 5.558625-2.470518 5.558625-6.12018.027681-14.008914.036905-28.008454.027674-41.998623 0-3.0039137-.7299-6.3166425-3.846105-6.653535-5.727111-.673785-6.429015-4.8567622-7.57998-8.9274891-6.33603-23.2032897-20.004776-43.7359318-38.96663-58.5341084C166.019562-2.886131 122.561038-8.50091136 76.9689902 12.4984302c-33.8852465 15.5810245-55.4740994 42.6162519-65.24386 78.80357-.6176699 2.2459162-.3368925 4.9129379-4.1549399 4.1268622-5.44633412-1.122948-7.4957465138 2.0774497-7.5238242508 6.9062146-.0842130257 14.008914-.0279768106 27.989709-.0279768106 41.998623 0 4.660278 2.3582069414 7.130776 6.8500594914 6.035886 4.12686217-1.010658 5.10946187 1.038755 5.95167287 4.183017 3.6496491 13.309457 9.7527254 25.820301 17.9953869 36.889181 12.0718121 16.3671 26.782548 29.505725 45.4797976 37.87176h0c-.0561756-1.740577-.1122907-3.509252-.1965037-5.24983l2.825e-4-4e-5z" fill="#b5d2f3"/><path d="M76.1271627 232.766601c-4.1549601 11.650687-15.2160948 11.36995-24.620865 14.289631 7.074641 1.82475 14.2615728 3.930358 21.3361936 2.723177 4.2110954-.72992 5.0252489.786076 5.6428783 3.284651.0561757.196524.0842131.393048.1403685.589552.0279768.168446.0842131.36497.1122908.561494-.2777553-7.209233-1.1510179-14.383165-2.6108662-21.448505h0z" fill="#fe684b"/><path d="M179.748122 248.319568c8.983664 4.070707 17.46199-.027976 26.136861-1.207181-8.478367-3.593466-19.455268-1.740577-23.919023-12.661364h0c-4.744491 3.986514-1.066833 9.320558-2.217838 13.868545z" fill="#fe6446"/><path d="M111.10732 263.254886c-.140369.758018-.308835 1.515915-.449183 2.273994-.168467.898366-.364971 1.796753-.533397 2.723177-1.441658 6.301799-1.952385 12.780798-1.515915 19.230646 2.105528 1.09489.561454 3.986594 2.498576 5.165617h0l-8.1e-5-29.393434z" fill="#fed6c8"/><path d="M94.6279086 252.979827c-.5053387 8.899452-1.0106573 17.826961-1.5159152 26.726392.8702887-.449163 1.7405774-.870288 2.6108662-1.319472h0v-25.40692h-1.094951z" fill="#feebe3"/><path d="M68.2383884 314.574086h14.4861543c-.2526794-.168467-.5333962-.336893-.7860757-.533417-1.0668329-.701842-2.133585-1.403705-3.2004381-2.133585-3.6771605-.081217-7.3069838.84079-10.4996405 2.667002h0z" fill="#fe9166"/><path d="M173.29111 314.574086h14.093127c-2.578908-1.880732-5.745505-2.776937-8.92753-2.526653-1.09489 2.133605-4.014591.561474-5.165597 2.526653z" fill="#fe8f64"/><path d="M182.639745 223.305676c20.578196-9.994342 35.766213-25.828046 47.220375-45.367527 12.263922-20.993523 17.266486-45.443947 14.233475-69.567226-2.917037-28.1116379-16.27041-54.1072077-37.422476-72.8518974-25.884242-23.6101876-56.625226-33.21148175-90.847385-29.61803604C85.0547527 9.10142768 59.226646 23.1383786 38.9853428 47.1696918 16.7788402 73.5311342 9.36730676 104.215963 13.4099761 137.455502c3.5653881 29.281123 18.2761441 53.368511 40.5668395 72.627296 6.0648397 5.538153 12.9977219 10.0431 20.5220806 13.335128.5333962.224582 1.0668127.449183 1.6282867.645707.1499966-7.36017-.2912453-14.720501-1.319472-22.010039-.5614942-.393028-1.1229682-.786075-1.6844422-1.207181-5.5527807-4.294612-10.7364686-9.046328-15.4968115-14.205417-1.4879182-1.515915-3.3408067-2.80739-3.3408067-5.277908-3.3127288 2.386284-5.6989933.72994-7.6360948-1.909044-10.8731885-14.264842-17.2021992-31.471546-18.1638332-49.382078-.7860757-16.226732.6737648-32.004301 7.4957465-47.192318 8.3338194-18.7604685 22.2817675-34.4739711 39.9211525-44.9744387 3.0319717-1.8528682 4.7725492-.1964432 6.8781171 1.1791035 2.02072-.0793994 3.910957-1.0194195 5.1936748-2.5828288l-.2526794-.5895316c-1.7967128-3.7899898-1.8809258-8.0852982 2.4424199-9.0959555 4.3514841-1.0387551 6.8219616 2.4985755 6.8500595 7.0746209 32.4815616-10.6680868 62.6891286-6.3447006 89.9489376 14.4581169 20.381692 15.552967 32.060436 36.4118997 35.625845 61.8468983 4.604143 32.706223-6.456992 59.825583-29.253046 82.762006-2.69051 2.75955-5.774587 5.105748-9.15201 6.96235-.589552.308835-1.179104.589532-1.768655.870289-1.210636 7.713944-1.680672 15.525999-1.403685 23.32945h0c.505217-.252598 1.038614-.533335 1.628145-.814052z" fill="#e2f5fc"/><path d="M193.279774 192.985858c22.767957-22.936544 33.829111-50.055884 29.253046-82.762047-3.565388-25.4630757-15.244152-46.3220285-35.625844-61.8469178-27.259809-20.8027974-57.495475-25.0981058-89.9489584-14.4580766-.0561555.027674-.1122908.0842332-.1684462.11221-2.554731 1.6282867-4.5479879 5.1375194-8.225687 2.9477385-.2245613-.1404896-.4211055-.2526794-.6457072-.4211257-1.2787609 1.5683639-3.1713909 2.5095593-5.1936748 2.5827885-.0842131.3368925-.1965038.6457072-.308835.9825997-2.3301494 6.5412044-9.3205572 8.2537647-14.0088933 12.1840625-12.5733815 10.2020589-22.1487247 23.6191925-27.708972 38.8262822-8.9275092 24.8735037-7.1026985 49.2417097 4.8568026 72.7676637 1.9855485 3.815998 4.2862459 7.45955 6.8781171 10.892689 1.4127667 1.870708 2.0556783 4.211332 1.7967127 6.541224v.084234h0c0 2.44242 1.8528884 3.761892 3.3408066 5.277908 4.7670535 5.152352 9.9501601 9.903535 15.4968116 14.205417.5614942.393028 1.122948.814133 1.6844422 1.207181h0c-.4211055-11.173445-.8515703-22.346884-1.2913943-33.520316-.027997 0-.027997-.027977-.0561554-.027977-9.7136052-6.372779-16.8443815-14.514232-18.0796404-26.64218-1.5440535-14.963354 4.7445118-26.02455 16.9847499-34.08177.0561555-.027977.1122908-.084213.1684463-.112291h0c-.3781273-7.7415694.9343355-15.4726132 3.8461453-22.6556655C85.672261 60.785517 113.91471 44.8395222 137.187944 50.6789245c.030798-.0037773.061677.0063676.084234.027674 15.440656 2.4985754 28.130077 9.5451387 37.226033 22.4872193 7.339063 9.9626424 10.963872 22.1777482 10.247001 34.5309742h0c8.759103 6.653535 15.833724 14.458096 16.98477 25.996472 1.544074 15.524889-5.081404 26.866781-18.135776 34.783633h0v.140369c-.421105 10.724242-.870288 21.448504-1.291414 32.200804.61767-.280757 1.207201-.561474 1.768655-.870289 3.411147-1.841967 6.517217-4.199925 9.208287-6.990428l4e-5 5.05e-4z" fill="#cdecf6"/><path d="M155.464149 106.461899c9.629352-4.744492 18.977987-2.189761 28.270466.870289.336893.112291.701843.224581 1.038715.336892.724954-12.3541597-2.900654-24.5719567-10.247001-34.5309736-9.095956-12.9420806-21.785377-19.988664-37.225993-22.4872395h-.084233c-2.302072.4492034-4.856782-.5053185-7.692271 1.1229682 18.978007 15.8898595 21.588874 36.2715513 17.855039 58.4780139.589552-.280737 1.151046-.533397 1.740578-.814134 2.161642-.982579 4.26719-1.937121 6.3447-2.975816z" fill="#fe6b3c"/><path d="M201.786158 133.69359c-1.151046-11.538396-8.225687-19.342957-16.98473-25.996452h0c-.336892-.112291-.701863-.224582-1.038715-.336893-9.320557-3.060089-18.641114-5.61478-28.270466-.870288-2.07749 1.038714-4.211095 2.021314-6.316643 3.003894-.589552.280757-1.151046.533396-1.740577.814153-1.403685 1.600209-2.6951 3.340807-4.211096 4.828725-9.095955 8.871434-10.359292 19.848296-7.944929 31.470884 3.677759 17.71461 25.294629 32.453484 48.25913 21.953843.027977-.027977.084213-.027977.11229-.056175 13.054392-7.94489 19.707928-19.314819 18.135736-34.811691zm-34.33443 31.021761c-10.772267-.113851-20.413615-6.710029-24.422893-16.709048-4.009278-9.999019-1.59575-21.428806 6.113807-28.953262 7.709556-7.524456 19.194611-9.659556 29.093263-5.408511 9.898652 4.251045 16.258623 14.049817 16.110702 24.82167.044926 7.088286-2.795571 13.889877-7.868374 18.840886-5.072803 4.951008-11.941403 7.625405-19.026505 7.408265z" fill="#fe6142"/><path d="M72.337193 107.781371c-12.2403592 8.057221-18.5288034 19.118355-16.9847499 34.081771 1.2353397 12.127947 8.3660352 20.269401 18.0796202 26.642179.0279768 0 .0279768.027977.0561554.027977 5.7352671 1.779961 11.7095628 2.669951 17.7146097 2.638944 20.9431456-.308835 36.7487916-21.701204 30.8251966-41.970545-5.699033-19.455268-26.4175773-32.2288821-49.466311-21.532738h0c-.0801811.02568-.1559294.063554-.2245815.112291l6.05e-5 1.21e-4zm16.7320705 56.93398c-9.5891115.124759-18.5108717-4.894747-23.382332-13.155225-4.8714602-8.260478-4.9466882-18.497059-.1971589-26.828241 4.7495292-8.331183 13.5965538-13.481271 23.1864631-13.497457 9.6286038-.185619 18.6134063 4.820062 23.5227393 13.105164 4.909332 8.285102 4.984915 18.569935.197879 26.926296-4.787035 8.35636-13.6972987 13.49355-23.3275905 13.449463h0z" fill="#fe6143"/><path d="M113.521662 201.660667c-1.038735-1.038755-1.796733-2.44242-3.53731-2.470517h0c-.336893 10.443505 9.208246 21.504639 18.613036 21.532776 9.966244.027918 18.641115-9.88209 18.613105-21.252039-3.76198 1.937101-6.148265 5.923595-10.471651 7.102698-8.618775 2.358227-16.535567 1.768655-23.21718-4.912918z" fill="#070909"/><path d="M148.24914 189.645011c-6.316623 4.632201-12.352549 8.590637-20.100935 8.450248-7.57996-.140348-13.19476-4.856803-19.904431-9.432848.72992 4.323366 1.23534 7.411534 1.740578 10.527718h0c1.740577.056115 2.498575 1.431763 3.53731 2.470518 6.653515 6.681593 14.598445 7.271145 23.217119 4.912938 4.323366-1.179103 6.70959-5.137519 10.471583-7.102698-1.010617-3.228516 2.386325-6.12014 1.038776-9.825876z" fill="#fdfcfb"/><path d="M105.941702 68.8989535c-1.986258-.1535343-3.947258.5234278-5.415798 1.8696024-1.4685395 1.3461746-2.3131287 3.2410274-2.3325467 5.2331164.084213 5.7270913 3.3969417 8.2256667 7.8045617 8.1695314 4.10852-.0378206 7.429852-3.3591878 7.467628-7.4677091.084173-4.3795214-2.274014-7.9168318-7.523845-7.8045411z" fill="#fea777"/><path d="M54.2294951 181.307053c.2589402-2.329899-.3839765-4.670523-1.796733-6.541244-2.5821029-3.439883-4.8822802-7.082612-6.878117-10.892689-11.9595011-23.525954-13.8123896-47.89414-4.8567824-72.7676639 5.5602508-15.2070879 15.1355934-28.6242206 27.7089719-38.8262823 4.6883564-3.9303382 11.6787844-5.6147602 14.0089136-12.1840827.1196574-.3220374.2227375-.6499937.3088349-.9825795-2.1055477-1.3756072-3.8461252-3.0319717-6.8781372-1.1791034-17.639404 10.5004687-31.5873617 26.2139884-39.9211727 44.974479-6.8219616 15.1879767-8.2818223 30.9655658-7.4957466 47.1922978.9794936 17.90686 7.3066409 35.108486 18.1638535 49.382098 1.9371014 2.638944 4.3514638 4.295308 7.6360948 1.909024h0l2.02e-5-.084254z" fill="#fdfefe"/><path d="M96.7615138 34.0311074c.0561757-.0276741.1122908-.0842131.1684664-.1121899-.0561756-4.576005-2.4985956-8.113376-6.8500393-7.0746612-4.3233861 1.0387552-4.2391529 5.3340838-2.4424199 9.0959555l.2526794.5895518c.2063399.1535645.421988.2942087.6457072.4211256 3.6777597 2.2178385 5.670956-1.3194921 8.2256668-2.9196809l-6.06e-5-1.009e-4z" fill="#fbfdfe"/><g style="fill:#fefefe"><path d="M194.346567 138.494277c.196172-7.087021-2.482395-13.952094-7.426384-19.033563-4.943989-5.081468-11.733033-7.947275-18.822768-7.945509-9.535931-.158015-18.42756 4.798208-23.308146 12.992037-4.880585 8.193829-5.004065 18.372726-.323683 26.682539 4.680381 8.309812 13.449164 13.480272 22.986122 13.553628 7.08236.207419 13.945328-2.470157 19.015962-7.419048 5.070633-4.948891 7.914172-11.744774 7.878897-18.830084zm-25.575347 2.919681c-2.177825.216218-4.344626-.505616-5.957688-1.984704-1.613063-1.479088-2.519602-3.575336-2.49256-5.763701-.141098-2.279589.681261-4.513708 2.266631-6.157799 1.58537-1.644091 3.788115-2.547126 6.071326-2.488994 4.941016.36497 7.720308 3.256594 8.30988 8.422191-.673805 4.604123-3.031992 7.888734-8.197589 7.973007z"/><path d="M88.6762357 111.262526c-9.5899093.016186-18.4369339 5.166274-23.1864631 13.497456-4.7495293 8.331183-4.6743013 18.567764.1971589 26.828242 4.8714603 8.260478 13.7932205 13.279984 23.382332 13.155225 9.6302918.044087 18.5405555-5.093103 23.3275905-13.449463 4.787036-8.356361 4.711453-18.641194-.197879-26.926296-4.909333-8.285102-13.8941355-13.290783-23.5227393-13.105164h0zm.0280172 30.151412c-2.1832788.200147-4.3482429-.540673-5.9512109-2.03642-1.6029679-1.495747-2.4916602-3.604327-2.4429021-5.796219-.1207839-2.28357.7277111-4.512079 2.3366591-6.137061 1.6089479-1.624983 3.8289337-2.495534 6.1135892-2.3974 4.5892049.062531 8.2591032 3.832951 8.1976294 8.42217-.6176699 4.744492-3.2004987 7.888795-8.2537647 7.94493z"/></g><path d="M168.658909 125.01876c-2.286001-.067563-4.494407.83252-6.081892 2.478805-1.587486 1.646286-2.406689 3.885953-2.256065 6.167988-.032002 2.189935.873051 4.289236 2.487322 5.769428 1.614271 1.480193 3.783986 2.200276 5.962946 1.978977 5.13752-.084213 7.523804-3.368924 8.197589-7.972987-.589551-5.165597-3.368884-8.05722-8.3099-8.422211z" fill="#090b0b"/><path d="M88.7604488 125.046838c-2.2846555-.098134-4.5046413.772417-6.1135893 2.3974-1.6089479 1.624982-2.4574429 3.853491-2.336659 6.137061-.0487563 2.19188.8399279 4.300449 2.442882 5.796194 1.6029541 1.495745 3.7679015 2.236573 5.9511704 2.036445 5.0533064-.056115 7.6360948-3.200438 8.2537647-7.94493-.4772206-5.193674-3.3406653-8.029183-8.1975688-8.42217z" fill="#090c0c"/></svg>