<svg width="512px" height="156px" viewBox="0 0 512 156" xmlns="http://www.w3.org/2000/svg" preserveAspectRatio="xMidYMid"><title>Arm</title><path d="M309.550689 3.89505394h34.30794V17.5532936C352.600464 6.33537343 366.088822-.144485358 380.309461.0421749364 396.022255-.207715358 410.636522 8.07701668 418.491925 21.6875626 430.743215 4.17644398 449.314957.0421749364 462.258899.0421749364c17.857445 0 33.615287 8.3984104136 42.035343 23.1172740636C507.086497 28.072952 512 38.9172912 512 60.2812888v91.0621462h-34.329585V70.0866494c0-16.4504946-1.753276-23.117274-3.160226-26.2558552-2.164539-5.6061554-7.359432-12.9872326-19.610722-12.9872326-8.116378.147839-15.671834 4.1709784-20.325019 10.8226938-5.952481 8.3984104-6.645134 21.0176715-6.645134 33.6152871v76.0618925h-34.329585V70.0866494c0-16.4504946-1.753276-23.117274-3.160226-26.2558552-2.164539-5.6061554-7.359432-12.9872326-19.610721-12.9872326-8.109604.1512049-15.657055 4.1743664-20.303374 10.8226938-5.952482 8.3984104-6.666779 21.0176715-6.666779 33.6152871v76.0618925h-34.30794V3.89505394zm-118.833178 0h34.329585V17.2069674c4.100506-4.8221165 8.945214-8.95802124 14.350892-12.25128946 6.416388-3.5507715 13.692123-5.25168993 21.017671-4.9135030036C269.882998-.173992151 279.222987 2.25470492 287.385812 7.05528054L273.294665 38.2246388c-5.177699-3.4692297-11.278755-5.3018089-17.511119-5.2598292-7.359432 0-14.718863 1.0389786-21.363998 8.0520842-9.459034 10.1516868-9.459034 24.1562526-9.459034 33.9616133v76.3649279h-34.221358l-.021645-147.44838106zM34.9789465 78.1387337c0 25.5632023 16.1041684 46.9272003 40.9747188 46.9272003 21.6453877 0 41.6673717-15.757842 41.6673717-46.5808741 0-32.2299823-19.9570478-47.6198529-41.6673717-47.6198529-24.8705504 0-40.9747188 21.0176714-40.9747188 47.2735267M115.521434 3.89505394h34.394521V151.343435h-34.372876v-15.411516c-10.975523 12.920552-27.1627663 20.243731-44.1132997 19.957047C25.9744652 155.888966 0 118.074474 0 77.4460813 0 29.4582568 32.9226346.0421749364 71.7977509.0421749364 88.9077462-.323200471 105.168921 7.48184215 115.58637 21.0598464l-.064936-17.16479246z" fill="#008fbe"/></svg>