<svg width="256px" height="242px" viewBox="0 0 256 242" xmlns="http://www.w3.org/2000/svg" preserveAspectRatio="xMidYMid"><title>Armory</title><path d="M182.015383 66.9131415V29.9266234h37.126367v36.9865181h-37.126367zm49.628151-14.2047112h24.257749V29.8390439h-24.257749v22.8693864zm-23.404735-34.2496588h21.810712V0h-21.810712v18.4587715zm34.047163-2.3767962H256V3.86830545h-13.714038V16.0819753z" fill="#00bcdd"/><path d="M24.5026428 73.2462657c-.2961503 20.2584542-.1246616 40.0954633 3.3405504 59.7622503 2.6837041 15.233391 7.1626614 29.762475 16.206004 42.560852 12.9363273 18.308165 30.4345086 30.78065 50.793578 39.657566 2.9646673 1.29281 5.4699218 1.548461 8.3111928-.141114 2.424257-1.441518 5.084547-2.488802 7.645488-3.701247 32.518319-15.397285 53.007112-39.911951 58.920626-76.024573 3.347512-20.440701 3.91893-40.9522747 3.701247-61.5562377-.001899-.1657935-.211355-.3296887-.392336-.5948318-26.99271-2.5932138-51.168828-12.4041426-72.337882-29.4872072-22.8541988 16.7831175-48.0086255 26.8338774-76.1884682 29.5245424m172.3721462-6.3330609c.062015 10.0824.349939 20.1698623.139849 30.246567-.471436 22.6314532-2.350218 45.0850902-10.035573 66.6452142-10.110243 28.361456-29.485941 48.874929-55.236465 63.541964-9.619191 5.478148-20.104684 9.454662-30.271246 13.943744-1.390894.614449-3.4107916.740376-4.8269976.229707-25.1386067-9.05853-47.4935268-22.367577-65.0043641-42.948126-15.1245491-17.775348-23.90211579-38.429935-27.11863741-61.367663-1.79082356-12.769901-2.61979136-25.674588-3.911335839-38.5153629C.556231064 98.155166.210089549 97.6501917 1.24003492e-14 97.1312958c0-7.7840709 0-15.5681418 0-23.3528455C.383476706 69.9057153.803023004 66.0361442 1.14093812 62.1596124c.35310231-4.0524502.62837025-8.1112284.96185577-12.485141C41.0326404 51.6564006 73.8154691 38.5201086 100.799953 10.4896066c21.105773 25.6094098 48.522459 37.8926876 81.21543 39.1962552 4.501739 0 9.003477 0 13.686196 0 .407523 5.981857.790367 11.6042836 1.17321 17.227343" fill="#0c4062"/><path d="M100.690225 78.2048853c6.290664 7.7790085 12.250373 15.1156899 18.173379 22.4821127 10.081767 12.538296 20.106582 25.122154 30.240872 37.61742 1.619968 1.997116 2.11102 3.860712 1.338372 6.343185-2.196449 7.052555-6.600103 15.564345-10.198203 18.993488-13.114144-16.265487-26.209304-32.507561-39.556318-49.062871-13.2058999 16.409133-26.2339831 32.598052-39.5670759 49.166017-1.0903141-1.586429-2.1572146-2.835576-2.8862001-4.257477-2.1078563-4.110035-3.948671-8.358653-6.1400569-12.421228-2.2211274-4.116363-1.3446996-7.415149 1.5263133-10.913899 13.607095-16.58252 27.0547245-33.295397 40.5618372-49.9595481 2.0376155-2.5147466 4.0885198-5.0193684 6.5070804-7.9871996" fill="#00bcdd"/></svg>