<svg width="256px" height="237px" viewBox="0 0 256 237" xmlns="http://www.w3.org/2000/svg" preserveAspectRatio="xMidYMid"><title>Asana</title><path d="M200.324957 125.270044c-30.748995 0-55.675042 24.927246-55.675042 55.677439 0 30.748995 24.926047 55.676241 55.675042 55.676241 30.748995 0 55.675043-24.927246 55.675043-55.676241 0-30.750193-24.926048-55.677439-55.675043-55.677439h0zm-144.6495549.004793C24.9270063 125.274837 0 150.19729 0 180.947483c0 30.748995 24.9270063 55.676241 55.6754021 55.676241 30.7497139 0 55.6779179-24.927246 55.6779179-55.676241 0-30.750193-24.928204-55.672646-55.6779179-55.672646h0zM183.674444 55.674204c0 30.750912-24.926048 55.680434-55.673845 55.680434-30.7500732 0-55.6758813-24.929522-55.6758813-55.680434C72.3247177 24.9294026 97.2505258 0 128.000599 0c30.747797 0 55.673845 24.9294026 55.673845 55.674204h0z" fill="#f06a6a"/></svg>