<svg width="256px" height="284px" viewBox="0 0 256 284" xmlns="http://www.w3.org/2000/svg" preserveAspectRatio="xMidYMid"><title>Assembla</title><path d="M232.042974 53.0016307 151.19706 5.88373417c-7.403449-4.11051582-15.78295-6.136604008-24.246537-5.8625954215C118.450188-.164302231 110.046786 1.85550659 102.559231 5.88373417L22.9437376 53.0016307C8.9749402 62.4437389.428849509 78.0531601 0 94.9083313v94.0910377c.461673979 16.881983 9.06465208 32.496792 23.0884931 41.9067l80.1945149 47.117897c7.244016 4.048662 15.443937 6.073642 23.739893 5.862595 8.303031.277328 16.520469-1.751979 23.739892-5.862595l80.845915-46.973141c14.06779-9.544421 23.040527-24.960488 24.391292-41.906701V95.0530867c-.420519-17.1499499-9.418779-32.9444801-23.957026-42.051456zM185.286966 189.144124c-.742017.507202-1.638576.737746-2.53322.6514-2.146395-.16708-4.083371-1.350788-5.211196-3.18462l-32.06333-64.633305-32.063331 64.48855c-1.081686 1.879431-3.04527 3.079399-5.211196 3.184619-.651399 0-2.026576 0-2.53322-.651399-2.874178-1.562103-3.94244-5.155347-2.388465-8.033927l36.188861-71.653944-12.231835-24.3912922L76.5756291 186.828037c-1.4390321 2.818104-4.890123 3.936063-7.7082273 2.497031-2.8181043-1.439032-3.9360633-4.890122-2.4970314-7.708227L121.95646 69.7208843c.788761-2.1412478 2.94591-3.4595054 5.211196-3.1846197 2.182895.0487656 4.172008 1.2643346 5.211196 3.1846197l13.172745 27.2140232 6.441618 12.1594575 36.18886 72.377721c1.240792 2.920088-.034512 6.299643-2.895109 7.672038z" fill="#263238"/></svg>