<svg width="256" height="284" xmlns="http://www.w3.org/2000/svg" preserveAspectRatio="xMidYMid"><path d="M232.043 53.002L151.197 5.884A46.828 46.828 0 00126.951.02a49.217 49.217 0 00-24.392 5.863L22.944 53.002A52.184 52.184 0 000 94.908V189a52.184 52.184 0 0023.088 41.907l80.195 47.118a46.25 46.25 0 0023.74 5.863 44.947 44.947 0 0023.74-5.863l80.846-46.973A56.02 56.02 0 00256 189.144v-94.09a51.099 51.099 0 00-23.957-42.052zm-46.756 136.142a3.836 3.836 0 01-2.533.652 6.731 6.731 0 01-5.211-3.185l-32.064-64.633-32.063 64.488a6.37 6.37 0 01-5.211 3.185c-.652 0-2.027 0-2.534-.652a5.935 5.935 0 01-2.388-8.034l36.189-71.654-12.232-24.39-50.664 101.907a5.73 5.73 0 01-10.206-5.211L121.956 69.72a4.922 4.922 0 015.212-3.185 6.08 6.08 0 015.21 3.185l13.174 27.214 6.441 12.16 36.19 72.377a5.935 5.935 0 01-2.896 7.672z" fill="#263238"/></svg>