<svg width="512px" height="53px" viewBox="0 0 512 53" xmlns="http://www.w3.org/2000/svg" preserveAspectRatio="xMidYMid"><title>Astronomer</title><defs><linearGradient x1="-0.799%" y1="49.487%" x2="100.073%" y2="50.542%" id="a"><stop stop-color="#3f2870" offset="0%"/><stop stop-color="#9377d1" offset="100%"/></linearGradient></defs><path d="M66.0225774 1.93146697c-2.6784212 1.28788353-4.7274353 3.01366181-6.1513876 5.17518477-1.4246769 2.16295632-2.1359287 4.53160136-2.1359287 7.10665166 0 3.3053529.7728165 5.953505 2.3198981 7.9451737 1.5478059 1.9931019 3.3759116 3.4623068 5.4879388 4.4090481 2.1105787.9481746 4.9106804 1.9321836 8.3981327 2.9527436 2.552395.6808511 4.5536059 1.3115341 6.0036328 1.8956326 1.4478539.5826653 2.6508983 1.3609855 3.6091328 2.3320941.9575103.9718253 1.4362655 2.2360583 1.4362655 3.7898321 0 2.1393057-.9212959 3.9489362-2.762439 5.4310414-1.841143 1.4828219-4.358772 2.2224412-7.5507143 2.2224412-5.0577111 0-9.3802688-1.8698321-12.9640515-5.6123629l-5.4510002 5.2490034c1.7679899 2.0891378 4.2349187 3.8873013 7.4029595 5.3930572C66.8323327 51.7281971 70.5030301 52.48 74.6771085 52.48c3.6837346 0 6.9249286-.6801344 9.7235818-2.0404031 2.7993775-1.3595521 4.946895-3.1813662 6.4454492-5.4668757 1.4978299-2.2833595 2.2474692-4.7623741 2.2474692-7.4348936 0-3.3039194-.7735409-5.9520717-2.3206225-7.944457-1.5470816-1.9916685-3.376636-3.4623068-5.4872146-4.4097648-2.1127513-.947458-4.912129-1.9314669-8.3981326-2.9520268-2.5545679-.6801344-4.5557788-1.3122509-6.0036327-1.8949161-1.4493027-.5833819-2.6516227-1.3609855-3.609133-2.3328107-.9582345-.9711086-1.4369895-2.2339081-1.4369895-3.7905488 0-1.9429339.8474182-3.5827099 2.5415306-4.91932804 1.6941123-1.33661814 4.0386363-2.00456887 7.0350204-2.00456887 2.2098062 0 4.2349187.45007839 6.0767861 1.34808511 1.8418672.90015677 3.4005374 1.9565509 4.6774593 3.1713326l5.4510001-5.24900337c-1.6702107-1.74871221-3.9162315-3.27955207-6.7402348-4.59180291C82.055442.656483763 78.9004385 0 75.4144348 0c-3.5859556 0-6.7163332.644300109-9.3918574 1.93146697h0zM322.402106 7.55243002c2.262679.36264277 4.403677 1.10727883 6.414304 2.25110862 2.947132 1.67632696 5.267031 3.97330346 6.961143 6.88877946 1.694112 2.9154758 2.541531 6.0982754 2.541531 9.5483986 0 3.4501231-.847419 6.6329227-2.541531 9.5483987-1.694112 2.9154758-4.014011 5.211019-6.961143 6.8873459-2.946408 1.6770437-6.162976 2.5148489-9.649704 2.5148489-3.487454 0-6.703297-.8378052-9.649705-2.5148489-.360696-.2049719-.711253-.4199776-1.053841-.6435833l-2.866736 7.0930347C309.697349 51.3569541 314.219811 52.48 319.166706 52.48c5.05771 0 9.67433-1.1653303 13.848408-3.4981411 4.173354-2.3328107 7.451487-5.5034266 9.834398-9.5125644 2.380738-4.008421 3.572194-8.4181859 3.572194-13.2285778 0-4.8111086-1.191456-9.2208735-3.572194-13.2300112-2.382911-4.00842107-5.661044-7.17975365-9.834398-9.51184772-2.448097-1.3681523-5.05409-2.32349384-7.805664-2.888958567l-2.807344 6.942530807zm-106.2228 0c2.262681.36264277 4.40223 1.10727883 6.413581 2.25110862 2.947132 1.67632696 5.267756 3.97330346 6.961868 6.88877946 1.694112 2.9154758 2.540806 6.0982754 2.540806 9.5483986 0 3.4501231-.846694 6.6329227-2.540806 9.5483987-1.694112 2.9154758-4.014736 5.211019-6.961868 6.8873459-2.946408 1.6770437-6.1637 2.5148489-9.649704 2.5148489-3.487452 0-6.703296-.8378052-9.649705-2.5148489-.360696-.2049719-.711251-.4199776-1.053116-.6435833l-2.866736 7.0930347C203.474551 51.3569541 207.996288 52.48 212.943183 52.48c5.05771 0 9.67433-1.1653303 13.848409-3.4981411 4.173354-2.3328107 7.451486-5.5034266 9.834397-9.5125644 2.381463-4.008421 3.572919-8.4181859 3.572919-13.2285778 0-4.8111086-1.191456-9.2208735-3.572919-13.2300112-2.382911-4.00842107-5.661043-7.17975365-9.834397-9.51184772-2.448098-1.3681523-5.053366-2.32349384-7.806389-2.888958567l-2.805897 6.942530807zM471.853377.728868979V51.7518477h8.103346V32.8005375h12.155021l10.680369 18.9513102H512l-11.638602-20.263561c2.994935-1.2635163 5.377122-3.2071668 7.145837-5.8309519 1.767265-2.6245016 2.650897-5.5872789 2.650897-8.8933482 0-3.0122285-.724289-5.7320493-2.172867-8.16304595-1.448578-2.42884658-3.462102-4.3481299-6.040571-5.75784995-2.577022-1.40900335-5.487214-2.114221721-8.729133-2.114221721h-21.362184zm8.103346 7.288689821h13.258838c2.603095 0 4.726711.81487122 6.372296 2.4424636 1.644137 1.6283091 2.467653 3.7296305 2.467653 6.3039642 0 2.5277491-.823516 4.6176035-2.467653 6.2688466-1.645585 1.6526763-3.769201 2.4782978-6.372296 2.4782978h-13.258838V8.0175588zM422.719049.728868979V51.7518477h37.199491v-7.2894065h-29.096868V28.9368869h22.467449v-7.2886898h-22.467449V8.0175588h28.36099V.728868979h-36.463613zm-19.962133 0L383.309752 25.4380291h-.147754L363.715558.728868979h-7.439898V51.7518477h8.102622V14.4318925h.294787l18.488929 23.4707279 18.489653-23.4707279h.294786v37.3199552h8.103346V.728868979h-7.292867zm-116.196259 0V37.9757222h-.221634L258.199666.728868979h-7.36602V51.7518477h8.102623V14.5049944h.221632l28.139357 37.2468533h7.366021V.728868979h-8.102622zm-135.184949 0V51.7518477h8.103347V32.8005375h12.154297l10.681816 18.9513102h9.207163l-11.638602-20.263561c2.994211-1.2635163 5.377122-3.2071668 7.145112-5.8309519 1.767267-2.6245016 2.651622-5.5872789 2.651622-8.8933482 0-3.0122285-.724288-5.7320493-2.172866-8.16304595-1.449303-2.42884658-3.462102-4.3481299-6.040572-5.75784995-2.578469-1.40900335-5.487939-2.114221721-8.729133-2.114221721h-21.362184zm8.103347 7.288689821h13.258837c2.603095 0 4.725986.81487122 6.371572 2.4424636 1.64486 1.6283091 2.468377 3.7296305 2.468377 6.3039642 0 2.5277491-.823517 4.6176035-2.468377 6.2688466-1.645586 1.6526763-3.768477 2.4782978-6.371572 2.4782978h-13.258837V8.0175588zM100.87175.728868979V8.0175588h15.469368v43.7342889h8.103347V8.0175588h15.468643V.728868979H100.87175zM20.5987834.795520717 0 51.7518477h8.31339086l5.14969584-13.1031579h22.7405065l5.2141576 13.1031579h8.6074521L36.724357 18.8488242h-8.3220823l4.9237176 12.5204927H16.4051492L28.4269006.795520717h-7.8281172z" fill="url(#a)"/></svg>