<svg width="256px" height="366px" viewBox="0 0 256 366" xmlns="http://www.w3.org/2000/svg" preserveAspectRatio="xMidYMid"><title>astro</title><path d="M182.021899 9.14729513c2.981655 3.70168667 4.50214 8.69666477 7.543109 18.68657997L256 246.07324c-24.562965-12.742291-51.265325-21.932285-79.425993-26.890529L133.318122 73.008385c-.707677-2.3917873-2.904751-4.0325362-5.398804-4.0325362-2.500598 0-4.701353 1.6493392-5.403713 4.0493078L79.7837287 219.10908C51.4921611 224.044826 24.6679819 233.251591 0 246.040106L66.760821 27.7833559c3.0503776-9.9727346 4.575771-14.9591633 7.5578352-18.6540186 2.632316-3.26194468 6.0565766-5.7952553 9.945941-7.35854828C88.6701983 0 93.8845156 0 104.313559 0h47.683576c10.442542 0 15.663814 0 20.073505 1.77448285 3.892637 1.56653276 7.318943 4.10497711 9.951259 7.37281228z"/><path d="M189.971616 256.459332c-10.951825 9.365073-32.811706 15.751763-57.991127 15.751763-30.904658 0-56.8073016-9.621146-63.6807756-22.560605-2.4572373 7.415891-3.0082443 15.903116-3.0082443 21.324828 0 0-1.6190686 26.622593 16.897546 45.139616 0-9.615009 7.7946823-17.409282 17.4092829-17.409282 16.479893 0 16.461485 14.377722 16.44635 26.042543-4.09e-4.349339-8.18e-4.696633-8.18e-4 1.041063 0 17.705035 10.820925 32.882474 26.209849 39.279799-2.298521-4.727533-3.587885-10.036343-3.587885-15.646633 0-16.886092 9.913625-23.17338 21.435274-30.480869 9.167086-5.814003 19.352738-12.273506 26.372247-25.231781 3.662335-6.760982 5.742008-14.504941 5.742008-22.734456 0-5.060919-.786218-9.938169-2.243707-14.515986z" fill="#ff5d01"/></svg>