<svg width="256px" height="253px" viewBox="0 0 256 253" xmlns="http://www.w3.org/2000/svg" preserveAspectRatio="xMidYMid"><title>AsyncAPI</title><defs><linearGradient x1="90.6423393%" y1="10.3370074%" x2="12.5432059%" y2="88.4290482%" id="a"><stop stop-color="#21d4fd" offset="0%"/><stop stop-color="#27cdfc" stop-opacity="96" offset="3%"/><stop stop-color="#4e9cf4" stop-opacity="70" offset="23%"/><stop stop-color="#6e73ee" stop-opacity="49" offset="43%"/><stop stop-color="#8753e9" stop-opacity="32" offset="61%"/><stop stop-color="#993ce5" stop-opacity="20" offset="77%"/><stop stop-color="#a42ee3" stop-opacity="13" offset="90%"/><stop stop-color="#a829e2" stop-opacity="10" offset="100%"/></linearGradient></defs><path d="M195.452387 0H60.5479642C27.108246 0 0 26.7796212 0 59.8139324V193.082186c0 33.034592 27.108246 59.814213 60.5479642 59.814213H195.452387c33.439226 0 60.547613-26.779621 60.547613-59.814213V59.8139324C256 26.7796212 228.891613 0 195.452387 0z" fill="url(#a)"/><path d="M75.0252293 110.118117l7.6192065-10.3729672L142.56051 142.705223l-7.619206 10.372967-59.9160747-42.960073zm38.4697577 0 7.619206-10.3729672 59.916074 42.9600732-7.619206 10.372967-59.916074-42.960073zm14.551377-63.4675125c-31.6173042 0-57.4514605 19.0249912-58.4721798 42.6988488l-.0313274 1.9503617h13.0088503v-.4952554c0-17.2763365 20.4431619-31.3393433 45.5318889-31.3393433 25.088728 0 45.53189 14.0630068 45.53189 31.3393433v.4952554h13.008709v-.4952554c-.073761-24.3445099-26.315275-44.1539551-58.577831-44.1539551zm45.439161 115.4236725c0 17.275634-20.443162 31.338782-45.550857 31.338782-25.106992 0-45.5318888-14.063148-45.5318888-31.338782v-.495958H69.3940694v.495958c0 24.344089 26.2408114 44.153604 58.5033666 44.153604 31.617305 0 57.452001-19.025058 58.472742-42.698522l.031328-1.95104h-13.009412l.093431.495958z" fill="#fff"/></svg>