<svg width="256" height="253" xmlns="http://www.w3.org/2000/svg" preserveAspectRatio="xMidYMid"><defs><linearGradient x1="90.642%" y1="10.337%" x2="12.543%" y2="88.429%" id="a"><stop stop-color="#21D4FD" offset="0%"/><stop stop-color="#27CDFC" stop-opacity="96" offset="3%"/><stop stop-color="#4E9CF4" stop-opacity="70" offset="23%"/><stop stop-color="#6E73EE" stop-opacity="49" offset="43%"/><stop stop-color="#8753E9" stop-opacity="32" offset="61%"/><stop stop-color="#993CE5" stop-opacity="20" offset="77%"/><stop stop-color="#A42EE3" stop-opacity="13" offset="90%"/><stop stop-color="#A829E2" stop-opacity="10" offset="100%"/></linearGradient></defs><path d="M195.452 0H60.548C27.108 0 0 26.78 0 59.814v133.268c0 33.035 27.108 59.814 60.548 59.814h134.904c33.44 0 60.548-26.78 60.548-59.814V59.814C256 26.78 228.892 0 195.452 0z" fill="url(#a)"/><path d="M75.025 110.118l7.62-10.373 59.916 42.96-7.62 10.373-59.916-42.96zm38.47 0l7.62-10.373 59.915 42.96-7.619 10.373-59.916-42.96zm14.551-63.467c-31.617 0-57.451 19.025-58.472 42.698l-.031 1.95h13.009v-.494c0-17.277 20.443-31.34 45.532-31.34 25.088 0 45.531 14.063 45.531 31.34v.495h13.01v-.495c-.075-24.345-26.316-44.154-58.579-44.154zm45.44 115.423c0 17.276-20.444 31.34-45.551 31.34-25.107 0-45.532-14.064-45.532-31.34v-.496H69.394v.496c0 24.344 26.24 44.154 58.503 44.154 31.618 0 57.452-19.025 58.473-42.699l.032-1.95h-13.01l.094.495z" fill="#FFF"/></svg>