<svg width="256px" height="256px" viewBox="0 0 256 256" xmlns="http://www.w3.org/2000/svg" preserveAspectRatio="xMidYMid"><defs><linearGradient x1="99.6865531%" y1="15.8007988%" x2="39.8359011%" y2="97.4378355%" id="a"><stop stop-color="#0052cc" offset="0%"/><stop stop-color="#2684ff" offset="92.3%"/></linearGradient></defs><path d="M75.7929022 117.949352c-3.8194672-4.080172-9.7708279-3.848901-12.366664 1.342771L.791180865 244.565041c-1.161181079 2.321166-1.037503285 5.07811.326852365 7.285979 1.36435565 2.207869 3.7747707 3.551721 6.37018042 3.551496H94.716435c2.8552051.06619 5.481075-1.556915 6.698434-4.140442 18.808599-38.888484 7.413271-98.01664-25.6219668-133.312722z" fill="url(#a)"/><path d="M121.756071 4.0114918c-35.0325735 55.504918-32.7212702 116.9780162-9.646082 163.1297952l42.060394 84.120787c1.26832 2.536659 3.860966 4.139021 6.697033 4.139041h87.226819c2.59541 2.24e-4 5.005825-1.343628 6.370181-3.551497 1.364355-2.207868 1.488033-4.964813.326852-7.285979 0 0-117.346648-234.72693408-120.2985-240.59980293-2.639287-5.25754918-9.343328-5.32903279-12.736697.04765573z" fill="#2681ff"/></svg>