<svg width="256px" height="257px" viewBox="0 0 256 257" xmlns="http://www.w3.org/2000/svg" preserveAspectRatio="xMidYMid"><title>Atomico</title><path d="M129.046519 33.8994647c-12.416633 26.9333832-6.73481 58.751026 14.236359 79.7221953 20.97117 20.97117 52.788813 26.652993 79.722196 14.23636 2.592625 17.079256 1.221901 34.526005-4.006152 50.990821-5.295021 16.563799-14.384891 31.654303-26.536641 44.073682l-1.080141 1.088865c-5.367984 5.367983-11.265164 10.179276-17.599357 14.363589-12.216204 8.06294-25.900374 13.641772-40.271804 16.418215-21.347913 4.141771-43.4388002 2.004789-63.5969905-6.152113-6.8153479-2.778214-13.3389527-6.224238-19.4753988-10.287669-12.7016278-8.400892-23.5782307-19.277495-31.9791226-31.979123-8.0545136-12.20906-13.62773926-25.883799-16.40203861-40.244844-4.14113251-21.350166-2.0022610894-43.443097 6.1575043-63.602382 2.77083881-6.8181517 6.20963051-13.3453541 10.26610171-19.4861829 9.2087828-13.923764 21.3855113-25.6364768 35.6563712-34.2976224C69.078591 39.7211544 85.9250528 34.323565 103.327346 32.9828485c8.579971-.6757721 17.209077-.3682359 25.719173.9166162zm84.743866 216.2297673.032351.010784c-6.540191 2.965614-13.64225 4.488272-20.823364 4.46446-7.174537.016377-14.268749-1.509853-20.801796-4.475244h41.592809zm16.526051-12.050807c-.544578.60928-1.056804 1.175426-1.649909 1.76853-1.625038 1.621459-3.357991 3.131038-5.186969 4.518379l-46.52097.010784c2.970915-1.957246 5.898695-4.076247 8.691679-6.297693h44.666169zm8.130925-12.045416c-1.051672 2.183109-2.258967 4.287767-3.612546 6.297693l.016176.016176h-42.487858c1.121507-1.035237 2.264581-2.135177 3.369912-3.240508.997494-.997494 2.011164-2.011164 2.949348-3.057185l39.764968-.016176zm4.022328-12.045415c-.418211 2.134907-.974746 4.240373-1.666085 6.303084l.02696.005392h-37.095998c1.671476-2.038123 3.283643-4.157124 4.814931-6.303084l33.920192-.005392zm.905833-12.045416c.037743.727901.048526 1.482762.064702 2.221447.005392 1.353357-.059311 2.722889-.161756 4.065462l.021568.021568-30.938494-.010784c1.283263-2.048907 2.528782-4.167908 3.688032-6.297693h27.325948zm-2.000381-12.040023c.610388 2.06471 1.08765 4.166462 1.428843 6.2923l.032352.010784h-23.832022c.975926-2.054299 1.908718-4.1733 2.766024-6.303084h19.604803zm-5.359509-12.045416c1.240938 2.017729 2.338202 4.120367 3.283643 6.292301h-15.409936c.717117-2.065083 1.374924-4.178692 1.978813-6.292301h10.14748zm-7.834372-9.775442c1.091723 1.065306 2.134881 2.179057 3.126343 3.337849l.580397.689854-4.520911.021583.551567-2.708311c.090064-.449521.178131-.897046.262604-1.340975zm27.746512-107.977392c.185946 3.8969718.012675 7.8027876-.517619 11.6679854l-53.902426 53.9024256c-3.865197.530294-7.771013.703564-11.667985.517619l66.08803-66.08803zm-3.483142-17.8686245c1.00108 2.8650586 1.793948 5.7986712 2.372419 8.7779483l-74.073375 74.0733752c-2.979217-.57873-5.912811-1.371593-8.777948-2.372419l80.478904-80.4789045zm-.485267 43.1672324c-6.421976 16.9914001-19.835005 30.4044291-36.826405 36.8264051l36.826405-36.8264051zm-6.621204-57.3693921c1.515988 2.2612655 2.883025 4.6189081 4.092422 7.057945l-84.619854 84.6198532c-2.43743-1.211176-4.793281-2.580018-7.052553-4.097814l87.579985-87.5799842zm-9.856321-11.4738784c.686564.6290504 1.360546 1.2742763 2.021948 1.9356778 1.211371 1.2113713 2.363432 2.456891 3.456182 3.7365591l-88.998043 88.9980437c-1.279669-1.09275-2.525188-2.244811-3.73656-3.456182-.664996-.664996-1.310222-1.338979-1.935677-2.021948l89.19215-89.1921506zm-12.439021-8.89117735c2.369198 1.28956464 4.652884 2.73037595 6.836879 4.31348815l-88.183873 88.1838728c-1.57834-2.1895489-3.013759-4.4786554-4.297313-6.8530543l85.644307-85.64430665zm-15.415328-5.91487059c2.883048.69292128 5.713613 1.58839617 8.470612 2.67975449L134.15261 86.3784396c-1.091549-2.7569308-1.987028-5.58751-2.679754-8.4706123l76.154633-76.15463284zM198.914243.286608494 130.022446 69.1784057c-.350606-3.6784982-.379472-7.3805789-.08627-11.064097L187.850146.200338732c3.683512-.2933571902 7.385607-.2644909578 11.064097.086269762zM175.421908 2.44874442 132.17919 45.6914629c6.021395-20.889938 22.35278-37.22132298 43.242718-43.24271848z"/></svg>