<svg width="256px" height="232px" viewBox="0 0 256 232" xmlns="http://www.w3.org/2000/svg" preserveAspectRatio="xMidYMid"><path d="M177.680199 230.74466H34.9673497C15.6554574 230.74466 0 215.088968 0 195.777662c0-19.314825 15.6525254-34.975208 34.9673497-34.985763l80.8654193-.03988c13.30294-.007032 25.595045 7.09192 32.237778 18.617014l29.609652 51.375627z" fill="#1e6efa"/><path d="M26.4910632 141.083014 97.847664 17.4894834C107.503669.764892103 128.889421-4.96539255 145.613533 4.69057708c16.72763 9.65744732 22.463789 31.04319992 12.815173 47.77505202l-40.398229 70.0519789c-6.645196 11.523922-18.9398808 18.619355-32.2423518 18.609982l-59.297062-.044576z" fill="#ff3c5a"/><path d="M179.954256 54.9806963l71.356601 123.5931787c9.656826 16.725285 3.926531 38.110099-12.798754 47.766925-16.726457 9.656826-38.115963 3.931222-47.780998-12.790545l-40.468597-70.0114c-6.656807-11.516885-6.654461-25.712442.004691-37.227802l29.687057-51.3303567z" fill="#ffc5ce"/></svg>