<svg width="256" height="257" xmlns="http://www.w3.org/2000/svg" preserveAspectRatio="xMidYMid"><path d="M129.047 33.9c-12.417 26.933-6.735 58.75 14.236 79.722 20.971 20.97 52.789 26.653 79.722 14.236a112.632 112.632 0 01-4.006 50.99 111.617 111.617 0 01-26.537 44.075l-1.08 1.088a112.866 112.866 0 01-17.6 14.364 111.504 111.504 0 01-40.271 16.418 112.45 112.45 0 01-63.597-6.152 111.527 111.527 0 01-19.475-10.288 113.235 113.235 0 01-31.98-31.979A111.481 111.481 0 012.057 166.13a112.45 112.45 0 016.158-63.602A111.55 111.55 0 0118.48 83.041a113.105 113.105 0 0135.656-34.298 111.77 111.77 0 0149.19-15.76 112.9 112.9 0 0125.72.916zm84.743 216.23l.033.01a50.022 50.022 0 01-20.824 4.464 50.052 50.052 0 01-20.801-4.475h41.592zm16.526-12.052a41.926 41.926 0 01-1.65 1.769 50.86 50.86 0 01-5.186 4.518l-46.521.011a120.691 120.691 0 008.691-6.298h44.666zm8.131-12.045a50.548 50.548 0 01-3.612 6.298l.016.016h-42.488a118.02 118.02 0 003.37-3.24c.998-.998 2.011-2.012 2.95-3.058l39.764-.016zm4.023-12.045a50.204 50.204 0 01-1.666 6.303l.027.005h-37.096a118.603 118.603 0 004.814-6.303l33.92-.005zm.906-12.046c.037.728.048 1.483.064 2.222a51.028 51.028 0 01-.162 4.065l.022.022-30.938-.011a120.082 120.082 0 003.688-6.298h27.326zm-2-12.04a50.326 50.326 0 011.428 6.292l.032.011h-23.832a113.683 113.683 0 002.766-6.303h19.605zm-5.36-12.045a50.44 50.44 0 013.283 6.292h-15.41a118.346 118.346 0 001.98-6.292h10.147zm-7.835-9.776a50.884 50.884 0 013.127 3.338l.58.69-4.52.022.55-2.709c.09-.45.179-.897.263-1.34zm27.747-107.977a63.556 63.556 0 01-.518 11.668l-53.902 53.902c-3.865.53-7.771.704-11.668.518l66.088-66.088zm-3.483-17.869a63.038 63.038 0 012.372 8.778l-74.073 74.074a63.114 63.114 0 01-8.778-2.373l80.479-80.479zm-.486 43.168a63.29 63.29 0 01-36.826 36.826l36.826-36.826zm-6.62-57.37a62.672 62.672 0 014.092 7.058l-84.62 84.62a62.603 62.603 0 01-7.053-4.098l87.58-87.58zm-9.857-11.474a64.732 64.732 0 015.478 5.672l-88.998 88.999a64.732 64.732 0 01-5.672-5.479l89.192-89.192zm-12.44-8.89a62.824 62.824 0 016.838 4.313l-88.184 88.183a62.748 62.748 0 01-4.297-6.853l85.644-85.644zm-15.415-5.916a63.038 63.038 0 018.471 2.68l-81.945 81.945a62.977 62.977 0 01-2.68-8.47l76.154-76.155zM198.914.287l-68.892 68.891c-.35-3.678-.379-7.38-.086-11.064L187.85.2a63.473 63.473 0 0111.064.087zm-23.492 2.162L132.179 45.69A63.229 63.229 0 01175.422 2.45z"/></svg>