<svg width="256px" height="256px" viewBox="0 0 256 256" xmlns="http://www.w3.org/2000/svg" preserveAspectRatio="xMidYMid"><circle fill="#60b57d" cx="128.001873" cy="128.001873" r="128.001873"/><path d="M117.819385 59.1434026c1.552012 1.246722 1.799499 3.5155444.552777 5.0675567-1.246722 1.5520122-3.515545 1.7994989-5.067557.5527769-9.396468-7.5481259-17.2233964-10.0402147-22.0508276-7.5759101-5.6180878 2.8650945-7.796809 12.0831213-6.6629181 24.9464846l.1708046 1.7364794c.0952063.878803.2051103 1.7732726.3296745 2.6826067l.268664 1.8382496c.3335217 2.1498003.7454496 4.3763699 1.235318 6.6697608 6.7662747-1.0488129 14.0490296-1.734282 21.6972036-2.0200359 3.318133-4.2624753 6.691289-8.2633242 10.079253-11.9678815l1.697797-1.83037c4.246635-4.5131748 8.505744-8.5526445 12.696794-12.0491476l1.672598-1.3694789c15.295383-12.2850961 29.531362-17.1461507 38.73783-11.1688284 8.019774 5.2029347 10.169274 16.9891269 7.190786 32.7834987-.36891 1.9562626-2.253834 3.243066-4.210097 2.8741559-1.956262-.3689101-3.243066-2.2538349-2.874156-4.2100974 2.494413-13.2274138.852165-22.2322304-4.0312-25.4003781-6.34676-4.1206498-18.140854.6231257-31.439325 11.7015373l-1.483598 1.2568746c-.744694.6413429-1.493581 1.3019481-2.245984 1.9813816l-1.509294 1.3838431c-1.513582 1.4086905-3.039426 2.8915378-4.572124 4.4450716l-1.534783 1.5769676c-.256111.2667121-.512362.5353556-.768728.8059144l-1.539383 1.6462082-1.540946 1.6914047-1.541309 1.73583c-.513696.5859285-1.027253 1.1791328-1.540469 1.7794842l-1.538428 1.8223672-.299735.3632161c3.586127.0189846 7.234731.1229246 10.931768.3151517l1.435194.0790135 2.852327.1828337c2.366606.1660389 4.706887.3660981 7.017131.5988774l2.757637.2949575c.457124.0517495.912987.1047869 1.36756.1591019l2.711711.3411382c2.246457.296919 4.459165.6252577 6.634412.9837159l2.592078.4445239 2.55469.4729392 2.515876.5008552c8.31998 1.7154892 15.969314 3.8879233 22.710436 6.4340823l1.994853.774976c17.704183 7.074195 28.614323 16.812178 28.054453 27.575938-.464133 8.898267-8.440073 16.243538-21.809288 21.50732-1.85234.729311-3.945181-.181084-4.674492-2.033424-.729311-1.85234.181084-3.945181 2.033424-4.674492 11.024475-4.340602 16.97158-9.817461 17.250998-15.174398.356733-6.858365-7.848914-13.951188-21.507763-19.672452l-1.699555-.693598c-1.150925-.457684-2.337343-.905791-3.557564-1.343447l-1.855472-.648538c-.626801-.213494-1.26184-.424266-1.904908-.632207l-1.953074-.615221-1.999972-.597579c-.337166-.09809-.676234-.195418-1.017176-.291969l-2.067941-.569889c-.348336-.093393-.698494-.185983-1.050448-.277756l-2.133055-.540724c-2.154179-.530702-4.371094-1.03101-6.645037-1.497977l-2.292741-.455743c-.385221-.074068-.771973-.147183-1.160231-.219331l-2.34739-.421173-2.382237-.397306c-.399873-.064193-.801145-.127363-1.20379-.189499l-2.432129-.360278c-.81606-.115879-1.637398-.227507-2.463805-.334774l-2.494213-.308615-2.523351-.2818c-1.268749-.134087-2.54795-.257873-3.836888-.370989l-2.590649-.211897c-.867736-.065817-1.739589-.126783-2.615348-.182788l-2.638778-.153025-2.640474-.121605-2.620258-.089572c-3.044657-.086018-6.045324-.107699-8.992499-.068759l-2.059849.038835-.80987 1.074002c-.503414.675083-1.005386 1.356605-1.505715 2.04444l-1.49586 2.082309c-1.738955 2.451153-3.455336 4.97805-5.140556 7.575181-.481473.742008-.956673 1.484005-1.425565 2.225753l-1.387714 2.224268c-1.4776611 2.399997-2.8887737 4.794928-4.2321242 7.176801.1233775.301679.2486315.604518.3748655.907699l.9798536 2.314305c.1664601.386743.3344948.773979.5041028 1.161677l1.0365162 2.331512 1.0742076 2.341199 1.1118325 2.34946 1.14939 2.356296 1.186882 2.361705 1.21484 2.347694 1.232469 2.31416 1.248984 2.279735c.209478.377037.419598.752603.630336 1.126679l1.271665 2.226426c.426238.736082.854764 1.466056 1.285392 2.189772l1.298005 2.152227c.434646.711052.871208 1.415699 1.309501 2.113791l1.319884 2.074463 1.329152 2.034244c1.111178 1.678198 2.230848 3.313573 3.356106 4.903804l1.352808 1.886459c.903412 1.242994 1.809657 2.456503 2.71725 3.639336l1.362213 1.751095 1.363119 1.704191c.2272.280074.454391.558156.68155.834228l1.362386 1.632164 1.360505 1.583032c1.359191 1.558168 2.713888 3.041301 4.059072 4.445388l1.341827 1.377589 1.334371 1.324c.665135.648455 1.327056 1.276479 1.985136 1.883572l1.310851 1.186128c.652679.578961 1.301098 1.136657 1.944631 1.672585l1.280364 1.042686c8.702089 6.924665 16.413356 9.721287 21.532919 7.110041 4.807711-2.451396 7.101811-9.608058 6.932598-19.757609l-.04385-1.544666c-.020771-.522228-.047694-1.051724-.080763-1.588274l-.117637-1.6306c-.045353-.550444-.096847-1.107729-.154473-1.671639l-.191272-1.711396c-.034943-.288475-.071418-.578552-.109424-.870206l-.246399-1.768622-.283104-1.805168-.319771-1.840429c-.281743-1.548026-.601641-3.131445-.959597-4.746912l-.447807-1.95373-.484305-1.983212c-.083756-.33292-.169032-.667016-.255826-1.00226l-.53898-2.025026-.575382-2.051298c-.098928-.344001-.199372-.689043-.30133-1.0351l-.629915-2.088296-.666224-2.111357c-.342182-1.06123-.697966-2.130626-1.067331-3.207466l-.756829-2.163389-.793006-2.181956c-.540721-1.46054-1.105535-2.932601-1.69439-4.414471l-.901309-2.229946-.937334-2.243375c-.159222-.374944-.319944-.750393-.482165-1.126322l-.991301-2.261109-1.027233-2.271328c-.174198-.379334-.349891-.759041-.527079-1.139094l-1.081059-2.284246c-.183164-.381327-.367821-.762946-.55397-1.144831-.872276-1.789467-.128745-3.947236 1.660722-4.819511 1.789467-.872276 3.947236-.128745 4.819512 1.660722l1.1955 2.489349c.391997.828661.777479 1.656125 1.156404 2.48217l1.117063 2.47365c1.097312 2.468945 2.135245 4.923103 3.112698 7.356451l.957252 2.426188c.156168.403135.310646.805635.463429 1.207474l.896311 2.402868c.145981.39908.290257.797443.432822 1.19506l.83482 2.376536c.542808 1.578097 1.058081 3.143375 1.545495 4.694049l.710185 2.314836c8.500228 28.409058 7.409405 51.514624-5.340606 58.015706-10.313321 5.260336-24.93609-2.046011-39.655142-17.455271l-1.522831-1.622783c-1.015219-1.100881-2.030206-2.23957-3.043577-3.414601l-1.518673-1.789622c-4.045644-4.844034-8.054391-10.257844-11.937794-16.147724l-1.450227-2.230837c-3.610018-5.631967-7.100152-11.672059-10.3975263-18.043062l-.656883-1.27859c-.4361637-.855224-.8655775-1.709893-1.2881947-2.56376l-1.2474147-2.558947c-.9815252-2.044795-1.9236343-4.083545-2.8256817-6.11283l-.5817971 1.151822c-.1795337.36027-.3574144.719979-.5336376 1.079095l-1.0374135 2.147371-.997419 2.131768-.9572103 2.114755c-.1561724.350962-.3106605.701157-.4634598 1.050555l-.896495 2.086587c-.1460264.346092-.290355.691328-.4329815 1.035679l-.8352974 2.055243c-.1357999.340691-.2698888.680439-.4022621 1.019212l-.7736172 2.020724c-.1254931.334761-.2492618.668491-.3713014 1.001158l-.7114547 1.983028-.6697449 1.956132c-.3244094.971108-.6330971 1.9316-.9259427 2.880683l-.5645326 1.882719-.5220725 1.850883c-.0834618.305749-.1651455.610113-.2450466.913062l-.4579802 1.800483c-.3637649 1.485863-.682742 2.934888-.9563731 4.343398l-.3065554 1.67053c-2.040478 11.829392-.7106418 20.553583 4.3446623 23.834383 5.0917438 3.303314 14.5331046.790331 26.1831967-7.620316 1.614071-1.16526 3.867165-.801427 5.032425.812645 1.16526 1.614071.801426 3.867165-.812645 5.032425-13.8075059 9.968167-26.0127293 13.2168-34.3270579 7.822805-10.045486-6.519336-10.751601-23.757237-4.0655776-45.202003l.6931707-2.158259c.4784446-1.447865.9894546-2.913464 1.5324532-4.394865l.8384171-2.233714c1.1496857-2.993444 2.4261716-6.046242 3.8248419-9.142958l1.0718402-2.330531 1.1172266-2.345553c1.4234064-2.938017 2.951979-5.907793 4.5819252-8.896644-.2160433-.552451-.4303147-1.103212-.6414369-1.652803l-.9326345-2.475539c-1.2148007-3.28943-2.3145044-6.532383-3.2961224-9.713029l-.7140258-2.373553c-.4407569-1.50449-.8543802-2.993849-1.2405439-4.46635-.4443806.088876-.8844861.179818-1.3212358.272352l-1.9602634.431116-1.9127882.452487c-.3147679.077167-.6275023.155202-.9381754.234096l-1.8390822.48357-1.7882827.503642c-.58748.171168-1.1662717.345595-1.7361536.523194l-1.6826948.542225c-.5518407.183857-1.0945499.370798-1.6279062.560738l-1.5717879.57873c-10.8029994 4.112865-17.3835762 9.509914-17.6893481 15.38852-.2794525 5.357602 5.0672678 11.422686 15.5832925 16.883013 1.7667708.917376 2.4553415 3.093307 1.5379657 4.860077-.9173759 1.766771-3.0933067 2.455342-4.8600776 1.537966-12.7531903-6.62195-19.9247132-14.757009-19.4605392-23.65605.6452833-12.405871 16.3051588-21.875185 39.5979489-26.6565032-4.7144769-22.5251682-2.315211-40.0508977 8.5199585-45.5765825 8.0085809-4.088217 18.4713976-.7568629 29.8420606 8.3771213zm19.753827 67.0508994c1.196058 5.535573-2.321898 10.989224-7.857471 12.187623-5.535573 1.196059-10.989224-2.321897-12.187623-7.85747-1.193718-5.535573 2.321898-10.989224 7.857471-12.187623 5.535573-1.196058 10.989224 2.321898 12.187623 7.85747zm-34.898414-25.606746-.650729.045484c-.49638.035822-.990632.073412-1.482702.112749l-2.34496.202147-2.3101164.228459c-.382042.040241-.7625767.081555-1.1415765.123934l-2.2553586.266952c-.3727494.046591-.7439085.094224-1.1134496.142888l-2.1976089.304275-.8721009.132935.3081574 1.150655c.4825104 1.753394 1.0051522 3.53545 1.5677515 5.342453l.6942876 2.180142c.1189075.365274.2394106.731486.3615077 1.098606l.7517013 2.213393c.2070069.597225.4181457 1.196656.6334105 1.798168 1.1418099-1.89867 2.3223535-3.801677 3.5408925-5.704525l.7787513-1.208073c1.8763469-2.891681 3.7900061-5.704428 5.7321421-8.430642z" fill="#fff"/></svg>