<svg width="256px" height="249px" viewBox="0 0 256 249" xmlns="http://www.w3.org/2000/svg" preserveAspectRatio="xMidYMid"><defs><linearGradient x1="-388.147851%" y1="-113.677693%" x2="237.683809%" y2="370.654866%" id="a"><stop stop-color="#c06fbb"/><stop stop-color="#6e4d9b" offset="1"/></linearGradient><linearGradient x1="72.9454854%" y1="79.5146865%" x2="-97.0517904%" y2="-119.502084%" id="b"><stop stop-color="#6e4d9b"/><stop stop-color="#77327a" offset=".14"/><stop stop-color="#b31777" offset=".29"/><stop stop-color="#cd0f7e" offset=".84"/><stop stop-color="#ed2c89" offset="1"/></linearGradient><linearGradient x1="-232.211989%" y1="-693.599872%" x2="250.775991%" y2="101.70976%" id="c"><stop stop-color="#c06fbb"/><stop stop-color="#6e4d9b" offset="1"/></linearGradient><linearGradient x1="-821.186214%" y1="-466.930382%" x2="101.985142%" y2="287.264085%" id="d"><stop stop-color="#c06fbb"/><stop stop-color="#6e4d9b" offset="1"/></linearGradient><linearGradient x1="-140.094614%" y1="-230.925718%" x2="418.49908%" y2="261.976742%" id="e"><stop stop-color="#c06fbb"/><stop stop-color="#6e4d9b" offset="1"/></linearGradient><linearGradient x1="191.083716%" y1="225.066658%" x2="20.3577022%" y2="24.5947708%" id="f"><stop stop-color="#6e4d9b"/><stop stop-color="#77327a" offset=".14"/><stop stop-color="#b31777" offset=".29"/><stop stop-color="#cd0f7e" offset=".84"/><stop stop-color="#ed2c89" offset="1"/></linearGradient><linearGradient x1="-388.094004%" y1="-138.727507%" x2="237.674802%" y2="445.404664%" id="g"><stop stop-color="#c06fbb"/><stop stop-color="#6e4d9b" offset="1"/></linearGradient><linearGradient x1="11.503492%" y1="89.6525993%" x2="89.8192643%" y2="11.5773982%" id="h"><stop stop-color="#6e4d9b"/><stop stop-color="#77327a" offset=".14"/><stop stop-color="#b31777" offset=".53"/><stop stop-color="#cd0f7e" offset=".79"/><stop stop-color="#ed2c89" offset="1"/></linearGradient></defs><path d="M167.876207 46.3687469 144.195715 62.173447 119.80056 25.6145151l23.680491-15.80470006 24.395156 36.55893186h0 0z" fill="url(#a)"/><path d="M187.128711 156.199437l40.460612 60.630557-48.198299 32.164713-40.460612-60.631523-7.058757-10.576062 48.199265-32.164714 7.057791 10.577029h0 0z" fill="url(#b)"/><path d="M126.421861 196.710267l8.908192 13.348767-36.6864127 24.482074-15.9669481-23.925795 8.0148613-5.348392 28.6725165-19.133683 7.057791 10.577029h0 0z" fill="url(#c)"/><path d="M207.172143 127.536576l10.290197-6.86657 15.965983 23.925795-23.683389 15.8047-8.908192-13.348766 13.393192-8.938131-7.057791-10.577028h0 0 0zm-6.335401 19.515159-7.05779-10.577029 13.393191-8.93813 7.057791 10.577028-13.393192 8.938131h0 0 0z" fill="url(#d)"/><path d="M41.1093181 130.966968l-8.0138956 5.348391L8.69833531 99.7564274 45.3847478 75.2743531l17.100753 25.6265029-28.6715511 19.133682 28.6715511-19.133682 7.2963342 10.933395-28.6725169 19.132717h0 0z" fill="url(#e)"/><path d="M130.488688 71.3224496 82.2894234 103.487163 74.994055 92.5537678 34.9120223 32.4910791 83.1112871.3263657l40.0820329 60.062689 7.295368 10.9333949z" fill="url(#f)"/><path d="M157.589904 53.2375841l-13.393191 8.9371643-7.296334-10.9324293-17.100753-25.6265026 23.683388-15.80470003 24.397088 36.55893183-10.290198 6.8675358h0 0z" fill="url(#g)"/><path d="M97.7503053 215.84395l-7.0587566-10.577029 28.6725173-19.133683 7.057791 10.577029-28.6715517 19.133683h0 0z" fill="#714896"/><path d="M200.836744 147.051736l-7.057791-10.577028 13.393192-8.938131 7.057791 10.577029-13.393192 8.93813h0 0z" fill="#6f4795"/><path d="M41.1093172 130.966965l-7.2953684-10.932429 28.6715511-19.133683 7.2963342 10.933395-28.6725169 19.132717h0 0z" fill="#88519f"/><path d="M144.196718 62.1747499l-7.296334-10.9324293 13.394158-8.9381301 7.295368 10.933395-13.393192 8.9371644h0 0z" fill="#85509e"/><path d="M187.128711 156.199434l-48.198299 32.163748-7.058757-10.576063 48.199265-32.164714 7.057791 10.577029h0 0z" fill="#8d166a"/><path d="M123.19332 60.3890532l7.295368 10.933395-48.1992647 32.1647138-7.2953685-10.9333954L123.19332 60.3890532h0 0z" fill="#a70d6f"/><path d="M27.4386316 51.6530056l9.0974901 13.6327921-13.632792 9.0974901-9.0974902-13.632792 13.6327921-9.0974902h0z" fill="#9e61ad"/><path d="M76.5679915 215.084186l9.0974902 13.632792-13.6327921 9.09749-9.0974901-13.632792 13.632792-9.09749h0z" fill="#8053a3"/><path d="M40.7042434 228.813811.791684264 168.517994 214.08857 25.8555586l41.852541 59.3337222L40.7042434 228.813811h0 0 0z" fill="url(#h)"/></svg>