<svg width="256px" height="226px" viewBox="0 0 256 226" xmlns="http://www.w3.org/2000/svg" preserveAspectRatio="xMidYMid"><g style="fill:#63c4b1"><path d="M155.893921 58.3659843h-55.832189l27.961449 48.1471497 27.87074-48.1471497"/><path d="M94.6131654 61.480315l-27.8888819 48.231811h55.8442835L94.6131654 61.480315"/><path d="M122.567559 115.980094H66.7222677l27.8888819 48.266079 27.9564094-48.266079"/><path d="M61.3634016 119.100472l-28.0491339 48.219717H89.240189l-27.8767874-48.219717"/><path d="M161.259843 61.480315l-27.864693 48.231811h55.835212l-27.970519-48.231811"/><path d="M189.232378 115.980094h-55.839244l27.867716 48.266079 27.971528-48.266079"/><path d="M128.022173 3.79464567 100.063748 52.0970079h55.829165l-27.87074-48.30236223"/><path d="M89.2411969 173.600252H33.3142677l28.0501417 48.581543 27.8767875-48.581543"/><path d="M194.598299 119.100472l-27.949354 48.219717h55.907779l-27.958425-48.219717"/><path d="M222.55874 173.600252h-55.908787l27.949354 48.581543 27.959433-48.581543"/></g><g style="fill:#fff"><path d="M128.022173 119.100472l-27.958425 48.219717h55.829165l-27.87074-48.219717"/><path d="M89.2411969 58.3659843H33.3142677l28.0501417 48.1471497 27.8767875-48.1471497"/><path d="M.065511811 109.711118H55.8916535L27.9422992 61.4793071.065511811 109.711118"/><path d="M27.9422992 164.247181l27.9493543-48.266079H.065511811L27.9422992 164.247181"/><path d="M227.918614 61.480315l-27.858645 48.231811h55.81707l-27.958425-48.231811"/><path d="M255.879055 115.980094h-55.820094l27.861669 48.266079 27.958425-48.266079"/><path d="M189.232378.669228346h-55.839244L161.26085 48.8466142 189.232378.669228346"/><path d="M155.893921 173.600252H99.9730394l28.0501416 48.581543 27.87074-48.581543"/><path d="M161.259843 176.708535 133.39515 225.36063h55.835212l-27.970519-48.652095"/><path d="M122.567559.669228346H66.7222677L94.6111496 48.8466142 122.567559.669228346"/><path d="M61.3634016 3.79464567 33.3142677 52.0970079H89.240189L61.3634016 3.79464567"/><path d="M194.598299 3.79464567 166.648945 52.0970079h55.907779L194.598299 3.79464567"/><path d="M222.55874 58.3659843h-55.908787l27.949354 48.1471497 27.959433-48.1471497"/><path d="M94.6131654 176.708535 66.7242835 225.36063h55.8442835l-27.9554016-48.652095"/></g></svg>