<svg width="256px" height="256px" viewBox="0 0 256 256" xmlns="http://www.w3.org/2000/svg" preserveAspectRatio="xMidYMid"><title>Authy</title><path d="M256 127.997518C256 198.696135 198.694024 256 127.996691 256 57.3043214 256 1.42108547e-14 198.696135 1.42108547e-14 127.997518 1.42108547e-14 57.3046917 57.3043214 0 127.996691 0 198.694024 0 256 57.3046917 256 127.997518h0z" fill="#f22e46"/><path d="M117.024206 100.8896l30.691097 30.681187c4.430452 4.435407 11.6224 4.435407 16.063587 0 4.431278-4.436232 4.441187-11.6224 0-16.058632l-30.692748-30.6927485c-21.961497-21.9656259-57.4554839-22.319071-79.8819097-1.1156646-.2072775.1742452-.4145549.3575742-.6053162.5483355-.0974451.098271-.1775484.2023226-.2749935.2898581-.1007484.0957935-.2014968.1825032-.2972903.2782968-.1932388.1932387-.3707871.3955612-.5400775.597058-21.2141419 22.4371617-20.8491354 57.9319747 1.1131871 79.8967747l30.6927484 30.68449c4.4395355 4.433755 11.6224 4.433755 16.0611097 0 4.442839-4.436232 4.442839-11.63231.0115613-16.058632L68.6724129 149.248c-13.3987097-13.392929-13.4887226-35.128981-.2782968-48.636697 13.5060645-13.2104256 35.2305549-13.114632 48.6300899.278297z" fill="#fff"/><path d="M156.63649 60.0171355c-4.435406 4.437058-4.435406 11.6224.011562 16.0586322l30.681187 30.6927483c13.390451 13.392929 13.477161 35.125678.267561 48.636697-13.510194 13.198864-35.227252 13.112155-48.622658-.282426l-30.691923-30.688619c-4.438709-4.437058-11.6331351-4.437058-16.0660642 0-4.4428387 4.432929-4.4428387 11.641393 0 16.065238l30.6820132 30.693575c21.968103 21.9648 57.457961 22.322374 79.888516 1.115664.208103-.183329.404645-.354271.611097-.548335.093316-.094968.180851-.192413.272516-.289858.099097-.094968.196542-.183329.289858-.289033.196542-.183329.365006-.384825.540077-.59458 21.214968-22.428078 20.860697-57.911329-1.102451-79.8885164l-30.691923-30.6820129c-4.435406-4.4428387-11.63809-4.4428387-16.069368 8.258e-4z" fill="#f5b1b2"/></svg>