<svg width="256px" height="256px" viewBox="0 0 256 256" xmlns="http://www.w3.org/2000/svg" preserveAspectRatio="xMidYMid"><circle fill="#5d83ac" cx="128" cy="128" r="114.75"/><g style="fill:#f0f0f0"><path d="M0 128C0 57.3075 57.3075 0 128 0c70.6925 0 128 57.3075 128 128 0 70.6925-57.3075 128-128 128C57.3075 256 0 198.6925 0 128zM128 25.5C71.39075 25.5 25.5 71.39075 25.5 128c0 56.60925 45.89075 102.5 102.5 102.5 56.60925 0 102.5-45.89075 102.5-102.5 0-56.60925-45.89075-102.5-102.5-102.5h0z"/><path d="M206.4105 166l-58.52-84.7c-2.05425-2.986-4.55-5.48175-7.49-7.49-2.94-2.006-6.60425-3.01-10.99-3.01-4.57425 0-8.35425 1.074-11.34 3.22-2.98825 2.148-5.46 4.574-7.42 7.28l-60.06 84.7h34.3l43.96-62.16 16.8 24.78c1.58575 2.24 3.24175 4.644 4.97 7.21 1.72575 2.56825 3.24175 4.69 4.55 6.37-2.24-.186-4.87825-.28-7.91-.28h-8.75-23.52l-17.5 24.08h108.92 0z"/></g></svg>