<svg width="256px" height="190px" viewBox="0 0 256 190" xmlns="http://www.w3.org/2000/svg" preserveAspectRatio="xMidYMid"><path d="M22.1828747 162c1.7501282 0 3.193984.612545 4.4190737 1.837635 1.2250897 1.225089 1.8376346 2.712698 1.8376346 4.419073v21.70159H6.25670825c-1.75012818 0-3.19398393-.612545-4.41907366-1.837635C.612544864 186.895573-5.32907052e-15 185.407964-5.32907052e-15 183.701589v-10.325756H23.2329516v-5.119125c0-.306272-.0875064-.525038-.3062724-.743804-.218766-.218766-.437532-.306273-.7438045-.306273H-5.32907052e-15V162H22.1828747h0zm1.0500769 22.751666v-6.169201H5.20663135v5.119124c0 .306273.0875064.525039.30627243.743805.21876602.218766.43753204.306272.74380447.306272H23.2329516h0zM73.4178773 162h5.556657l-10.5007691 27.958298h-4.2440609l-9.406939-20.782772-8.8819005 20.782772-.0875064-.043753.0437532.043753H41.696804L30.7147496 162h5.5129038l7.5693044 18.551359L51.8475474 162h5.9504359l8.5318748 18.551359L73.4178773 162h0zm29.4021537 0c1.750128 0 3.193984.612545 4.419073 1.837635 1.22509 1.225089 1.837635 2.712698 1.837635 4.419073v10.325757H85.8437874v5.119124c0 .306273.0875064.525039.3062724.743805.218766.218766.4375321.306272.7438045.306272h22.1828747v5.206632H86.8938643c-1.7501282 0-3.1939839-.612545-4.4190737-1.837635-1.2250897-1.22509-1.8376346-2.712699-1.8376346-4.419074v-15.444881c0-1.750128.6125449-3.193984 1.8376346-4.419073C83.6998804 162.612545 85.1874893 162 86.8938643 162h15.9261667 0zm-16.9762436 11.375833h18.0263206v-5.119125c0-.306272-.087507-.525038-.306273-.743804-.218766-.218766-.437532-.306273-.743804-.306273H86.8938643c-.3062724 0-.5250385.087507-.7438045.306273-.218766.218766-.3062724.437532-.3062724.743804v5.119125h0zm56.4416336-5.075372v1.050077h-5.206631v-1.050077c0-.306272-.087506-.525038-.306272-.743804-.218767-.218766-.437533-.306272-.743805-.306272h-15.926166c-.306273 0-.525039.087506-.743805.306272-.218766.218766-.306272.437532-.306272.743804v4.069048c0 .306273.087506.525039.306272.743805.218766.218766.437532.306272.743805.306272h15.926166c1.750128 0 3.193984.612545 4.419074 1.837635 1.225089 1.22509 1.837634 2.712699 1.837634 4.419074v4.069048c0 1.750128-.612545 3.193984-1.837634 4.419073-1.22509 1.22509-2.712699 1.837635-4.419074 1.837635h-15.926166c-1.750129 0-3.193984-.612545-4.419074-1.837635-1.22509-1.225089-1.837635-2.712698-1.837635-4.419073v-1.050077h5.206632v1.050077c0 .306272.087506.525038.306272.743804.218766.218766.437532.306273.743805.306273h15.926166c.306272 0 .525038-.087507.743805-.306273.218766-.218766.306272-.437532.306272-.743804v-4.069048c0-.306273-.087506-.525039-.306272-.743805-.218767-.218766-.437533-.306272-.743805-.306272h-15.926166c-1.750129 0-3.193984-.612545-4.419074-1.837635-1.22509-1.22509-1.837635-2.712699-1.837635-4.419074v-4.069048c0-1.750128.612545-3.193983 1.837635-4.419073 1.22509-1.22509 2.712699-1.837635 4.419074-1.837635h15.926166c1.750128 0 3.193984.612545 4.419074 1.837635 1.225089 1.181336 1.837634 2.668945 1.837634 4.419073h0zM153.311229 162h15.926166c1.750129 0 3.193984.612545 4.419074 1.837635 1.22509 1.225089 1.837635 2.712698 1.837635 4.419073v15.444881c0 1.750129-.612545 3.193984-1.837635 4.419074-1.22509 1.22509-2.712699 1.837635-4.419074 1.837635h-15.926166c-1.750128 0-3.193984-.612545-4.419074-1.837635-1.22509-1.22509-1.837634-2.712699-1.837634-4.419074v-15.444881c0-1.750128.612544-3.193984 1.837634-4.419073 1.22509-1.22509 2.712699-1.837635 4.419074-1.837635h0zm15.926166 5.206631h-15.926166c-.306273 0-.525039.087507-.743805.306273-.218766.218766-.306272.437532-.306272.743804v15.444881c0 .306273.087506.525039.306272.743805.218766.218766.437532.306272.743805.306272h15.926166c.306273 0 .525039-.087506.743805-.306272.218766-.218766.306272-.437532.306272-.743805v-15.444881c0-.306272-.087506-.525038-.306272-.743804-.218766-.175013-.437532-.306273-.743805-.306273h0zM216.27209 162c1.750128 0 3.193984.612545 4.419074 1.837635 1.22509 1.225089 1.837634 2.712698 1.837634 4.419073v21.70159h-5.162878v-21.70159c0-.306272-.087506-.525038-.306272-.743804-.218766-.218766-.481285-.306273-.787558-.306273h-11.025807c-.306273 0-.525039.087507-.743805.306273-.218766.218766-.306272.437532-.306272.743804v21.70159h-5.206632v-21.70159c0-.306272-.087506-.525038-.306272-.743804-.218766-.218766-.437532-.306273-.743804-.306273h-11.069561c-.306273 0-.525039.087507-.743805.306273-.218766.218766-.306272.437532-.306272.743804v21.70159h-5.206631V162h35.658861 0zm33.471202 0c1.750128 0 3.193984.612545 4.419073 1.837635C255.387455 165.062724 256 166.550333 256 168.256708v10.325757h-23.232952v5.119124c0 .306273.087507.525039.306273.743805.218766.218766.437532.306272.743804.306272H256v5.206632h-22.182875c-1.750128 0-3.193984-.612545-4.419073-1.837635-1.22509-1.22509-1.837635-2.712699-1.837635-4.419074v-15.444881c0-1.750128.612545-3.193984 1.837635-4.419073C230.623141 162.612545 232.11075 162 233.817125 162h15.926167 0zm-16.976244 11.375833h18.026321v-5.119125c0-.306272-.087507-.525038-.306273-.743804-.218766-.218766-.437532-.306273-.743804-.306273h-15.926167c-.306272 0-.525038.087507-.743804.306273-.218766.218766-.306273.437532-.306273.743804v5.119125h0z" fill="#494368"/><path d="M256 60.2584615 190.358974.0437606838 181.12547 10.1087179l54.700855 50.1497436H20.2174359l54.7008547-50.1935042L65.6847863 0 .0437606838 60.2584615H0v39.6909402C0 117.891282 17.2854701 132.50735 38.5094017 132.50735h40.4786325c21.2239318 0 38.5094018-14.616068 38.5094018-32.5579483V73.8680342h21.005128v26.0813675c0 17.9418803 17.28547 32.5579483 38.509402 32.5579483h40.478632C238.71453 132.50735 256 117.891282 256 99.9494017V60.2584615h0z" fill="#fc60a8"/></svg>