<svg width="256px" height="256px" viewBox="0 0 256 256" xmlns="http://www.w3.org/2000/svg" preserveAspectRatio="xMidYMid"><title>AWS CloudWatch</title><defs><linearGradient x1="0%" y1="100%" x2="100%" y2="0%" id="a"><stop stop-color="#b0084d" offset="0%"/><stop stop-color="#ff4f8b" offset="100%"/></linearGradient></defs><path fill="url(#a)" d="M0 0h256v256H0z"/><path d="M176.189541 149.687586c0-12.509896-10.245353-22.687168-22.838934-22.687168-12.593581 0-22.835717 10.177272-22.835717 22.687168 0 12.509897 10.242136 22.687169 22.835717 22.687169 12.593581 0 22.838934-10.177272 22.838934-22.687169m6.433503 0c0 16.034396-13.130779 29.07792-29.272437 29.07792-16.138441 0-29.26922-13.043524-29.26922-29.07792 0-16.034396 13.130779-29.07792 29.26922-29.07792 16.141658 0 29.272437 13.043524 29.272437 29.07792m27.007843 43.827775-22.42719-20.06696c-1.811031 2.533933-3.905136 4.847385-6.230847 6.914793l22.395022 20.063765c1.910751 1.712722 4.883029 1.552953 6.610424-.3451 1.717746-1.898054 1.563341-4.847385-.347409-6.566498m-56.28028-8.998178c19.335892 0 35.065805-15.625388 35.065805-34.829597 0-19.207404-15.729913-34.829597-35.065805-34.829597-19.332675 0-35.062589 15.622193-35.062589 34.829597 0 19.204209 15.729914 34.829597 35.062589 34.829597m61.407782 19.843284C212.564564 206.772976 209.531168 208 206.491338 208c-2.650603 0-5.30764-.93305-7.427479-2.824712l-23.286062-20.859414c-6.475321 4.153989-14.160139 6.592061-22.42719 6.592061-22.880752 0-41.496091-18.49164-41.496091-41.220349 0-22.728708 18.615339-41.220348 41.496091-41.220348 22.883968 0 41.499308 18.49164 41.499308 41.220348 0 6.521762-1.572991 12.669666-4.300796 18.156126l23.388998 20.926516c4.542053 4.080495 4.908763 11.068782.820272 15.590239M68.0970477 94.0560928c0 1.6615955.102936 3.3168.2991581 4.9176835.1125862.9106819-.170488 1.8213637-.7816708 2.5083697-.4857292.54641-1.1387299.907487-1.8528486 1.028911-7.9099914 2.029064-20.928184 8.170576-20.928184 26.595113 0 13.912667 7.7234198 21.591155 14.2051738 25.585375 2.2131248 1.386793 4.8315603 2.124925 7.5947497 2.153683l38.7908031.035149-.006433 6.390752-38.8197544-.035149c-3.9855549-.04154-7.7684544-1.121577-10.9691219-3.125078C49.2050675 156.151832 38.4 146.846897 38.4 129.10617c0-21.38665 14.7198538-29.29201 23.3600477-32.0847684-.0643351-.9841757-.0965024-1.9747424-.0965024-2.9653088 0-17.4723152 11.9309305-35.5932915 27.7509133-42.1470074 18.5027534-7.700856 38.1056354-3.8823817 52.4298294 10.2060304 4.439116 4.3648836 8.090129 9.6660119 10.891919 15.7979383 3.763599-3.0963194 8.402155-4.8058455 13.291617-4.8058455 9.608436 0 20.423154 7.2439172 22.349988 23.0865904 8.997253 2.0610176 28.008253 9.263395 28.008253 33.158415 0 9.541393-3.010879 17.42119-8.952219 23.422105l-4.587087-4.483112c4.715757-4.76111 7.105803-11.13269 7.105803-18.938993 0-20.900953-17.61493-26.09983-25.193596-27.362003-.862089-.143792-1.624459-.629489-2.116622-1.345253-.479296-.6902015-.662651-1.5369759-.517897-2.3581878-1.051878-12.9732259-8.810682-18.7888099-16.096623-18.7888099-4.596738 0-8.907185 2.2239818-11.827995 6.103168-.710902.9394403-1.865715 1.4187469-3.04948 1.2461965-1.167681-.1725504-2.14879-.9713942-2.550884-2.073799-2.634519-7.2503076-6.430285-13.3470848-11.281147-18.1145856-12.413443-12.2095309-29.388239-15.5199405-45.4237442-8.8511911-13.3463012 5.5280003-23.7975261 21.4473626-23.7975261 36.2483437" fill="#fff"/></svg>