<svg width="256px" height="256px" viewBox="0 0 256 256" xmlns="http://www.w3.org/2000/svg" preserveAspectRatio="xMidYMid"><title>AWS Managed Streaming for Apache Kafka (MSK)</title><defs><linearGradient x1="0%" y1="100%" x2="100%" y2="0%" id="a"><stop stop-color="#4d27a8" offset="0%"/><stop stop-color="#a166ff" offset="100%"/></linearGradient></defs><path fill="url(#a)" d="M0 0h256v256H0z"/><path d="M115.226039 118.326684V89.5566771h6.386981v12.7866699l8.61923-12.7866699h7.070387L127.3134 103.008254l10.813157 15.31843h-7.574958l-8.938579-13.905503v13.905503h-6.386981zM211.2 157.175784l-2.139638 1.85087c-4.311212 3.775265-10.11059 5.664495-15.916356 5.664495-5.805765 0-11.614723-1.88923-15.932322-5.674085l-4.266503-3.695347c-6.259241-5.485481-17.216106-5.485481-23.462572-.012787l-4.292051 3.717724c-8.61923 7.553726-23.216674 7.560119-31.848678-.00959l-4.266503-3.695347c-6.259241-5.485481-17.2161056-5.485481-23.4625722-.012787l-4.2920509 3.717724c-8.6192301 7.553726-23.2166739 7.560119-31.8486777-.00959l-2.1268644-1.84128 4.1802784-4.836558 2.1396384 1.854067c6.2624346 5.485481 17.2192992 5.485481 23.4625725.012787l4.2920509-3.720921c8.6192301-7.550529 23.216674-7.550529 31.848678.012787l4.266502 3.695347c6.262435 5.485481 17.2193 5.485481 23.462573.012787l4.292051-3.720921c8.61923-7.550529 23.216674-7.550529 31.848678.012787l4.266503 3.695347c6.25924 5.485481 17.216105 5.485481 23.462572.012787l2.152412-1.866854L211.2 157.175784zm-6.72549 38.471893 4.180278 4.833361-2.139638 1.854067c-4.308018 3.775264-10.107397 5.661298-15.909968 5.661298-5.808959 0-11.617918-1.88923-15.93871-5.674085l-4.266503-3.695347c-6.25924-5.479088-17.216105-5.479088-23.462572-.012787l-4.292051 3.720921c-8.612843 7.553725-23.210287 7.556922-31.848678-.012787l-4.266503-3.695347c-6.256047-5.479088-17.2129116-5.479088-23.462572-.012787l-4.2920509 3.720921c-8.6160365 7.553725-23.21348 7.556922-31.8486778-.012787L44.8 200.481038l4.1802787-4.833361 2.1396384 1.854067c6.2624343 5.479088 17.2192992 5.482284 23.4625725.00959l4.2920509-3.717724c8.6224233-7.550529 23.2134795-7.553726 31.8486775.00959l4.266503 3.698544c6.262434 5.479088 17.219299 5.482284 23.462572.00959l4.292051-3.717724c8.622424-7.550529 23.21348-7.553726 31.848678.00959l4.266503 3.698544c6.262434 5.479088 17.219299 5.482284 23.462572.00959l2.152413-1.863657zm0-20.266872 4.180278 4.830165-2.139638 1.854067c-8.616037 7.556922-23.21348 7.560118-31.848678-.00959l-4.266503-3.695348c-6.25924-5.485481-17.216105-5.482285-23.462572-.012787l-4.292051 3.720921c-4.308018 3.775265-10.11059 5.661299-15.909968 5.661299-5.808959 0-11.617918-1.889231-15.93871-5.674085l-4.266503-3.695348c-6.256047-5.485481-17.2129116-5.482285-23.462572-.012787l-4.2920509 3.720921c-8.6128429 7.553726-23.2102867 7.553726-31.8486778-.012786L44.8 180.21097l4.1802787-4.830165 2.1396384 1.854067c6.2624343 5.485482 17.2192992 5.482285 23.4625725.00959l4.2920509-3.717724c8.6224233-7.550529 23.2198675-7.556922 31.8486775.00959l4.266503 3.695348c6.262434 5.488678 17.219299 5.485481 23.462572.012786l4.292051-3.717724c8.622424-7.550529 23.219868-7.556922 31.848678.00959l4.266503 3.695348c6.262434 5.488678 17.219299 5.485481 23.462572.012786l2.152413-1.863657zM76.9041568 121.523352c3.5224198 0 6.3869805 2.86741 6.3869805 6.393335 0 3.525924-2.8645607 6.393334-6.3869805 6.393334-3.5224195 0-6.3869802-2.86741-6.3869802-6.393334 0-3.525925 2.8645607-6.393335 6.3869802-6.393335h0zM124.80651 54.393335c3.52242 0 6.38698 2.8674106 6.38698 6.3933348 0 3.5259241-2.86456 6.393335-6.38698 6.393335-3.52242 0-6.386981-2.8674109-6.386981-6.393335 0-3.5259242 2.864561-6.3933348 6.386981-6.3933348h0zm54.289333 73.523352c0 3.525924-2.864561 6.393334-6.38698 6.393334-3.52242 0-6.386981-2.86741-6.386981-6.393334 0-3.525925 2.864561-6.393335 6.386981-6.393335 3.522419 0 6.38698 2.86741 6.38698 6.393335h0zM124.80651 73.5733398c2.126864 0 4.106828-.5722035 5.872828-1.4992371l32.535278 47.3714153c-1.331685 1.489647-2.308893 3.282977-2.823045 5.274501H89.2214486c-.514152-1.991524-1.49136-3.784854-2.8230454-5.274501l32.5352778-47.3714153c1.766.9270336 3.745964 1.4992371 5.872829 1.4992371h0zM76.9041568 140.703356c5.933505 0 10.8929952-4.091734 12.3172918-9.590002h71.1701224c1.424297 5.498268 6.383787 9.590002 12.317292 9.590002 7.044839 0 12.77396-5.734821 12.77396-12.786669 0-7.051849-5.729121-12.78667-12.77396-12.78667-1.472199 0-2.864561.300486-4.186666.760807l-33.043043-48.1130426c1.322105-2.0107036 2.101317-4.4082041 2.101317-6.9911116C137.580471 53.7348214 131.851349 48 124.80651 48c-7.04484 0-12.773961 5.7348214-12.773961 12.7866698 0 2.5829075.779212 4.980408 2.101317 6.9911116L81.0908224 115.890824c-1.3221046-.460321-2.7144666-.760807-4.1866656-.760807-7.0448394 0-12.7739606 5.734821-12.7739606 12.78667 0 7.051848 5.7291212 12.786669 12.7739606 12.786669h0z" fill="#fff"/></svg>