<svg width="256px" height="256px" viewBox="0 0 256 256" xmlns="http://www.w3.org/2000/svg" preserveAspectRatio="xMidYMid"><title>AWS Batch</title><defs><linearGradient x1="0%" y1="100%" x2="100%" y2="0%" id="a"><stop stop-color="#c8511b" offset="0%"/><stop stop-color="#f90" offset="100%"/></linearGradient></defs><path fill="url(#a)" d="M0 0h256v256H0z"/><path d="M128.722581 188.4704c3.964516 0 7.183871 3.1904 7.183871 7.1264 0 3.936-3.219355 7.1264-7.183871 7.1264-3.964516 0-7.183871-3.1904-7.183871-7.1264 0-3.936 3.219355-7.1264 7.183871-7.1264m-60.5580648-57.6672c0 3.936-3.2193549 7.1264-7.1838711 7.1264-3.9645161 0-7.183871-3.1904-7.183871-7.1264 0-3.9328 3.2193549-7.1264 7.183871-7.1264 3.9645162 0 7.1838711 3.1936 7.1838711 7.1264M196.412903 211.2c-8.26129 0-14.732258-6.1888-14.732258-14.0864 0-8.0576 6.609678-14.6144 14.732258-14.6144 8.125807 0 14.735484 6.5568 14.735484 14.6144 0 7.8976-6.470968 14.0864-14.735484 14.0864m-14.732258-80c0-8.0576 6.609678-14.6144 14.732258-14.6144 8.125807 0 14.735484 6.5568 14.735484 14.6144 0 8.0576-6.609677 14.6144-14.735484 14.6144-8.12258 0-14.732258-6.5568-14.732258-14.6144m-52.958064 14.6144c-8.125807 0-14.732258-6.5568-14.732258-14.6144 0-8.0576 6.606451-14.6144 14.732258-14.6144 8.125806 0 14.732258 6.5568 14.732258 14.6144 0 8.0576-6.606452 14.6144-14.732258 14.6144M144.851613 195.2c0 9.1232-6.932258 16-16.129032 16-9.196775 0-16.129033-6.8768-16.129033-16 0-9.1232 6.932258-16 16.129033-16 9.196774 0 16.129032 6.8768 16.129032 16m-35.483871-128c0-10.048 9.222581-19.2 19.354839-19.2 10.132258 0 19.354838 9.152 19.354838 19.2 0 10.048-9.22258 19.2-19.354838 19.2-10.132258 0-19.354839-9.152-19.354839-19.2m-48.3870969 80c-9.1967741 0-16.1290323-6.8768-16.1290323-16 0-9.2608 7.2354838-16.7936 16.1290323-16.7936 8.8935485 0 16.1290323 7.5328 16.1290323 16.7936 0 9.1232-6.9322582 16-16.1290323 16m14.6838711 49.8048c0 7.9584-6.4709677 14.1952-14.7354839 14.1952-8.2612902 0-14.7322582-6.2368-14.7322582-14.1952 0-8.0608 6.6096774-14.6144 14.7322582-14.6144 8.1258064 0 14.7354839 6.5536 14.7354839 14.6144M199.63871 176.368v-24.4256C209.790323 150.3968 217.6 141.696 217.6 131.2c0-11.5872-9.506452-21.0144-21.187097-21.0144-10.580645 0-19.351613 7.744-20.909677 17.8144h-25.870968c-1.396774-9.024-8.587097-16.1568-17.683871-17.5424v-17.904C144.3 90.8704 154.529032 79.7568 154.529032 67.2c0-13.6384-12.058064-25.6-25.806451-25.6-13.748387 0-25.806452 11.9616-25.806452 25.6 0 12.5568 10.229032 23.6704 22.580645 25.3536v17.904C116.4 111.8432 109.209677 118.976 107.812903 128H83.3225808c-1.5290323-11.2736-10.9516131-19.9936-22.3419357-19.9936C48.5322579 108.0064 38.4 118.4128 38.4 131.2c0 11.4688 8.2774192 20.6432 19.3548387 22.1568v22.896c-10.1741936 1.5264-18.0096774 10.2368-18.0096774 20.752 0 11.5488 9.3064515 20.5952 21.183871 20.5952 11.8806451 0 21.1870967-9.0464 21.1870967-20.5952 0-10.48-7.7806452-19.168-17.9096775-20.736v-22.912c10.0193549-1.3696 17.7290323-9.0144 19.1096775-18.9568h24.496774c1.396774 9.024 8.587097 16.1568 17.683871 17.5424v21.1008c-11.077419 1.5136-19.354839 10.688-19.354839 22.1568 0 12.56 9.919355 22.4 22.580646 22.4 12.66129 0 22.580645-9.84 22.580645-22.4 0-11.4688-8.27742-20.6432-19.354839-22.1568v-21.1008c9.096774-1.3856 16.287097-8.5184 17.683871-17.5424h25.870968c1.4 9.024 8.587097 16.1568 17.683871 17.5424v24.4256c-10.148387 1.5488-17.958065 10.2496-17.958065 20.7456 0 11.488 9.306452 20.4864 21.183871 20.4864 11.880645 0 21.187097-8.9984 21.187097-20.4864 0-10.496-7.809677-19.1968-17.96129-20.7456" fill="#fff"/></svg>