<svg width="256px" height="256px" viewBox="0 0 256 256" xmlns="http://www.w3.org/2000/svg" preserveAspectRatio="xMidYMid"><title>AWS Config</title><defs><linearGradient x1="0%" y1="100%" x2="100%" y2="0%" id="a"><stop stop-color="#b0084d" offset="0%"/><stop stop-color="#ff4f8b" offset="100%"/></linearGradient></defs><path fill="url(#a)" d="M0 0h256v256H0z"/><path d="M187.330377 150.562794l6.018654 2.081544-3.797067 10.971075c-.445591 1.292212-1.6646 2.138834-3.004554 2.138834-.130494 0-.264171-.006365-.397848-.022279l-12.260105-1.527739.789332-6.317837 6.928932.865719c-2.724468-4.293583-7.864672-6.973492-14.007456-6.973492-8.046091 0-14.144316 4.401798-15.535195 11.212967l-6.235084-1.273116c2.024254-9.90484 10.570043-16.305429 21.770279-16.305429 7.851942 0 14.500788 3.326014 18.501555 8.704929l1.228557-3.555176zm-4.194917 21.563398 6.235084 1.279481c-2.014705 9.834819-10.764193 16.44229-21.770279 16.44229-7.164459 0-13.479113-3.087306-17.559449-8.039726l-.633375 2.988639-6.228718-1.320857 2.523952-11.909998c.359655-1.69961 1.995608-2.800855 3.727046-2.463479l11.575805 2.266146-1.222191 6.247815-5.834053-1.142621c2.794489 4.284034 7.845575 7.008502 13.650983 7.008502 8.020629 0 14.118854-4.459088 15.535195-11.356192h0zm24.898961.99303-3.828895-.21643c-1.543653-.073204-2.940898.95802-3.284639 2.479393-.843439 3.746143-2.313888 7.298136-4.373153 10.557313-.830707 1.314491-.588816 3.039563.56972 4.07397l2.861327 2.549414-7.412716 7.415899-2.539866-2.845413c-1.037589-1.164901-2.762661-1.40361-4.077153-.572902-3.259177 2.059264-6.814352 3.532896-10.573226 4.382701-1.515008.343741-2.565328 1.731437-2.473028 3.284638l.21643 3.806616h-10.490474l.219613-3.809799c.089118-1.553201-.95802-2.94408-2.47621-3.287821-3.746144-.843439-7.304502-2.320253-10.566861-4.382701-1.314492-.830708-3.039564-.595182-4.07397.572902l-2.546232 2.851779-7.415899-7.415899 2.851779-2.543048c1.161718-1.034407 1.40361-2.756296.572902-4.070788-2.056082-3.262359-3.523348-6.814352-4.36997-10.570043-.340558-1.521374-1.785544-2.581243-3.284638-2.476211l-3.82253.21643v-10.487291l3.835261.21643c1.409976.063656 2.937715-.954837 3.284639-2.473028.846621-3.74296 2.320253-7.29177 4.379518-10.547764.830708-1.317674.585633-3.039564-.572902-4.07397l-2.874059-2.565328 7.415899-7.419082 2.565328 2.870876c1.031224 1.164901 2.762661 1.400427 4.070788.576085 3.252811-2.052899 6.804803-3.520165 10.550947-4.366787 1.51819-.343742 2.565328-1.734621 2.47621-3.287822l-.219613-3.844809h10.490474l-.21643 3.851175c-.0923 1.553201.95802 2.940897 2.473028 3.284639 3.74296.846621 7.288587 2.31707 10.541398 4.369969 1.308126.824343 3.036381.588816 4.07397-.572902l2.571694-2.880424 7.415899 7.419082-2.867693 2.55578c-1.158535 1.037589-1.400427 2.759478-.569719 4.07397 2.056082 3.259176 3.529713 6.807986 4.376335 10.557312.343741 1.518191 1.817373 2.536684 3.284639 2.473028l3.832078-.21643v10.487291zm5.366183-16.171753c-.633375-.601547-1.515008-.919826-2.364812-.865719l-4.595948.264172c-.786149-2.628984-1.83647-5.16885-3.144596-7.584587l3.437412-3.068209c.652472-.58245 1.03759-1.409976 1.063052-2.285243.02228-.872084-.315096-1.721889-.932557-2.33935l-12.180535-12.183718c-.620644-.617461-1.429072-.977116-2.342533-.929374-.875267.025462-1.69961.407397-2.285243 1.059869l-3.077757 3.453326c-2.412555-1.304944-4.946055-2.355264-7.571856-3.13823l.260989-4.618227c.047742-.872085-.260989-1.728255-.865719-2.364813-.598364-.636558-1.435438-.996213-2.310705-.996213h-17.228439c-.87845 0-1.712341.359655-2.313888.996213-.601547.636558-.91346 1.492728-.862536 2.364813l.260989 4.611861c-2.632167.782966-5.162484 1.833287-7.578222 3.138231l-3.074574-3.443779c-.58245-.655654-1.406793-1.037589-2.285243-1.063051-.887998-.038194-1.718706.311913-2.33935.929374l-12.183718 12.183718c-.620643.617461-.958019 1.467266-.932557 2.33935.025462.875267.41058 1.702793 1.063052 2.285243l3.446961 3.077758c-1.308127 2.412554-2.358447 4.949237-3.147779 7.575038l-4.602313-.264172c-.868902-.05729-1.731438.264172-2.364813.865719-.636558.601547-.996213 1.438621-.996213 2.313888v17.228439c0 .872084.359655 1.712341.996213 2.313888.633375.601547 1.499094.907095 2.364813.862536l4.586399-.260989c.786149 2.635349 1.83647 5.175215 3.144596 7.597318l-3.427864 3.052295c-.652472.585633-1.03759 1.409976-1.063052 2.285243-.025462.875267.311914 1.721889.932557 2.342533l12.183718 12.180535c.620644.620644 1.527739.961202 2.33935.932557.87845-.025462 1.702793-.41058 2.285243-1.063052l3.055478-3.424681c2.422103 1.311309 4.961968 2.364813 7.597318 3.150961l-.260989 4.576852c-.050924.875267.260989 1.731437.862536 2.367995.601547.636558 1.435438.996213 2.313888.996213h17.228439c.875267 0 1.712341-.359655 2.310705-.996213.60473-.636558.913461-1.492728.865719-2.367995l-.260989-4.570486c2.638532-.786149 5.181581-1.839652 7.600501-3.150961l3.049112 3.418315c.582451.655655 1.409976 1.03759 2.285243 1.063052.923009.038194 1.721889-.311913 2.342533-.932557l12.180535-12.180535c.617461-.620644.954837-1.467266.932557-2.342533-.025462-.875267-.41058-1.69961-1.063052-2.28206l-3.431047-3.061843c1.308127-2.41892 2.36163-4.958786 3.144596-7.590953l4.589583.260989c.846622.041376 1.731437-.264172 2.364812-.862536.639741-.601547.999396-1.441804.999396-2.313888v-17.228439c0-.875267-.359655-1.712341-.999396-2.313888h0zM47.9655789 175.277153h63.6557871v6.365579H44.7827894c-1.7600825 0-3.1827894-1.42589-3.1827894-3.18279V44.7827894C41.6 43.0258896 43.0227069 41.6 44.7827894 41.6H191.1911c1.760082 0 3.182789 1.4258896 3.182789 3.1827894v70.0213656h-6.365578V47.9655789H47.9655789V175.277153zM152.997628 86.1590512h-3.18279v-6.3655789h3.18279 12.731157 3.182789v6.3655789h-3.182789-12.731157zm3.182789-12.7311574h6.365579V60.6967363h-6.365579v12.7311575zm12.731157 41.3762612V92.5246298h3.18279c1.760082 0 3.182789-1.4258896 3.182789-3.1827895V76.6106829c0-1.7568995-1.422707-3.1827891-3.182789-3.1827891h-3.18279V57.5139469c0-1.7568999-1.422706-3.1827895-3.182789-3.1827895h-12.731157c-1.760083 0-3.18279 1.4258896-3.18279 3.1827895v15.9139469h-3.182789c-1.760083 0-3.182789 1.4258896-3.182789 3.1827891v12.7311574c0 1.7568999 1.422706 3.1827895 3.182789 3.1827895h3.182789v22.2795252h6.365579V92.5246298h6.365579v22.2795252h6.365578zm-60.472997 6.365579h-3.18279v-6.365579h3.18279 12.731157 3.18279v6.365579h-3.18279-12.731157zm3.182789-12.731157h6.365579V60.6967363h-6.365579v47.7418407zm12.731158 25.462315v-6.365579h3.182789c1.760082 0 3.182789-1.42589 3.182789-3.182789v-12.731158c0-1.7569-1.422707-3.182789-3.182789-3.182789h-3.182789V57.5139469c0-1.7568999-1.422707-3.1827895-3.18279-3.1827895h-12.731157c-1.760083 0-3.18279 1.4258896-3.18279 3.1827895v50.9246301h-3.182789c-1.760083 0-3.1827894 1.425889-3.1827894 3.182789v12.731158c0 1.756899 1.4227064 3.182789 3.1827894 3.182789h3.182789v35.010683h6.365579v-35.010683h6.365579v6.365579h6.365579zM60.6967363 89.3418403h3.1827891 12.7311575 3.1827894v6.3655789h-3.1827894-12.7311575-3.1827891v-6.3655789zm6.3655786-6.3655785h6.3655789V60.6967363h-6.3655789v22.2795255zm0 73.2041552h6.3655789v-54.107419h-6.3655789v54.107419zm-3.1827895 6.365579h12.7311575c1.7600825 0 3.1827894-1.42589 3.1827894-3.18279v-57.290208h3.1827895c1.7600825 0 3.1827894-1.42589 3.1827894-3.1827894V86.1590512c0-1.7568998-1.4227069-3.1827894-3.1827894-3.1827894h-3.1827895V57.5139469c0-1.7568999-1.4227069-3.1827895-3.1827894-3.1827895H63.8795254c-1.7600825 0-3.1827891 1.4258896-3.1827891 3.1827895v25.4623149h-3.1827894c-1.7600826 0-3.1827895 1.4258896-3.1827895 3.1827894v12.7311574c0 1.7568994 1.4227069 3.1827894 3.1827895 3.1827894h3.1827894v57.290208c0 1.7569 1.4227066 3.18279 3.1827891 3.18279h0z" fill="#fff"/></svg>