<svg width="256px" height="256px" viewBox="0 0 256 256" xmlns="http://www.w3.org/2000/svg" preserveAspectRatio="xMidYMid"><title>AWS Glacier</title><defs><linearGradient x1="0%" y1="100%" x2="100%" y2="0%" id="a"><stop stop-color="#1b660f"/><stop stop-color="#6cae3e" offset="1"/></linearGradient></defs><path fill="url(#a)" d="M0 0h256v256H0z"/><path d="M48.21248 66.91872c2.6976 9.456 33.8624 19.4816 74.9888 19.4816 41.056 0 72.1856-9.9904 74.9728-19.4336l.2048-1.44c-.2336-4.2144-24.4128-20.7264-75.1776-20.7264-50.7744 0-74.9472 16.5152-75.1808 20.7296l.192 1.3888zm147.6896 61.6864-1.2256 8.6496c10.752 2.6464 12.6816 1.0304 12.700884 1.0144.003116-.0768-.144084-2.8832-11.475284-9.664h0zm-49.7312 81.1808.8064 6.3488c-7.6704.9728-15.6768 1.4656-23.7952 1.4656-24.4256 0-63.1008-5.4112-63.5296-19.9136l-17.7536-129.6768c-.144-.624-.2304-1.2608-.2624-1.9072l-.0096-.0672h.0032c-.0064-.1472-.0288-.288-.0288-.4352 0-11.0912 31.7856-27.2 81.6-27.2 49.8112 0 81.6 16.1088 81.6 27.2 0 .1504-.0288.2976-.0352.448h.0032l-.0064.032c-.0288.7008-.1312 1.3824-.2912 2.0544l-7.6032 53.6384c10.7104 6.112 15.9648 10.8864 16.7936 15.3152.3648 1.9552-.1184 3.7888-1.392 5.3088-1.5552 1.8496-4.1152 2.7712-7.8976 2.7712-2.8192 0-6.3328-.5216-10.6016-1.5424l-.4096 2.8928-6.336-.896.5216-3.6864c-19.728-5.8272-46.7904-18.1568-59.7792-24.304-1.3344 1.1072-3.0208 1.7984-4.8832 1.7984-4.2368 0-7.6864-3.4496-7.6864-7.6896 0-4.24 3.4496-7.6896 7.6864-7.6896 4.24 0 7.6896 3.4496 7.6896 7.6896 0 .0448-.0128.0896-.0128.1344 11.04 5.2128 38.3136 17.728 57.8944 23.6512l8.1568-57.5328c-14.1408 9.6832-44.4352 14.8064-73.4112 14.8064-29.0272 0-59.3696-5.1392-73.4784-14.8512l16.2976 119.0592c.0192.144.0288.2912.0288.4352 0 4.8512 21.6928 13.7568 57.1328 13.7568 7.8496 0 15.5872-.4768 22.9888-1.4144h0zm58.5216-24.6048 7.5872 7.584-4.528 4.5248-8.4896-8.4896h-15.2096l7.2288 12.5344 12.1984 3.4336-1.7344 6.1568-10.1568-2.8576-2.7744 10.3616-6.1824-1.6576 3.2224-12.0352-7.5328-13.0656-7.4336 12.8544 3.1264 12.2848-6.1984 1.5776-2.6048-10.224-10.3584 2.7744-1.6544-6.1824 12.0288-3.2224 7.3664-12.7328h-15.0048l-8.7328 8.5184-4.4672-4.5824 7.5552-7.3696-7.584-7.584 4.5248-4.5248 9.1392 9.1424h14.9472l-7.6288-13.1936-12.1824-3.4272 1.7312-6.16 10.16 2.8576 2.7744-10.3584 6.1824 1.6576-3.2288 12.0544 7.5424 13.0432 7.424-12.8736-3.1232-12.2656 6.1984-1.5776 2.608 10.2272 10.3552-2.7744 1.6576 6.1792-12.0512 3.2288-7.712 13.3824h14.7008l9.4016-9.1712 4.4704 4.5824-7.5584 7.3696z" fill="#fff"/></svg>