<svg width="256px" height="256px" viewBox="0 0 256 256" xmlns="http://www.w3.org/2000/svg" preserveAspectRatio="xMidYMid"><title>AWS CloudFormation</title><defs><linearGradient x1="0%" y1="100%" x2="100%" y2="0%" id="a"><stop stop-color="#b0084d"/><stop stop-color="#ff4f8b" offset="1"/></linearGradient></defs><path fill="url(#a)" d="M0 0h256v256H0z"/><path d="M169.6 127.882252h16v-6.409812h-16v6.409812zm-80 38.458874h16v-6.409812h-16v6.409812zm-32 0H80v-6.409812H57.6v6.409812zm0-19.229437H96v-6.409812H57.6v6.409812zm0-38.458874h28.8v-6.409812H57.6v6.409812zm0 19.229437h105.6v-6.409812H57.6v6.409812zm60.8 70.507936H44.8V89.4233786h73.6v25.6392494h6.4V86.2184723c0-1.7691081-1.4336-3.2049059-3.2-3.2049059h-80c-1.7696 0-3.2 1.4357978-3.2 3.2049059V201.595094c0 1.769108 1.4304 3.204906 3.2 3.204906h80c1.7664 0 3.2-1.435798 3.2-3.204906v-64.098123h-6.4v60.893217zm99.2-80.122654c0 20.710103-18.6464 27.914733-28.5056 28.831336l-51.4944.012819v-6.409812h51.2c.624-.073713 22.4-2.422909 22.4-22.434343 0-18.223097-16.4384-21.921558-19.7312-22.4792118-1.6416-.2788268-2.7968-1.7659033-2.656-3.4260448.0032-.0608931.0096-.1185814.016-.1762697-.176-10.2973635-6.4896-13.5150893-9.2256-14.4252826-5.1072-1.6986003-10.8-.0737129-13.8112 3.9644688-.7008.9486522-1.8592 1.4325933-3.0368 1.2531184-1.1648-.1762697-2.1408-.9774963-2.5376-2.0928038-1.9872-5.5701267-4.8704-9.1788512-8.88-13.1945984-10.0288-9.9672583-23.6416-12.7202727-36.3776-7.3616695-6.6816 2.8171124-12.5216 9.2012855-16.0096 17.518017l-5.9008-2.4870074c4.1344-9.8422665 11.2192-17.4763529 19.4304-20.9376518 15.216-6.4066074 31.4272-3.140808 43.3728 8.7269597 3.424 3.4324544 6.2592 6.7751715 8.4672 11.1017949 4.7776-3.5382167 11.2224-4.5958356 17.3024-2.5735399 7.7824 2.5895642 12.704 9.3487114 13.4976 18.3352682 10.8992 2.7498096 22.48 11.4639497 22.48 28.2544527h0z" fill="#fff"/></svg>