<svg width="256px" height="256px" viewBox="0 0 256 256" xmlns="http://www.w3.org/2000/svg" preserveAspectRatio="xMidYMid"><title>AWS Keyspaces</title><defs><linearGradient x1="0%" y1="100%" x2="100%" y2="0%" id="a"><stop stop-color="#2e27ad" offset="0%"/><stop stop-color="#527fff" offset="100%"/></linearGradient></defs><path fill="url(#a)" d="M0 0h256v256H0z"/><path d="M217.6768 92.864l-10.3072 2.4192 8.0672 9.0496c-.6016 1.1968-1.408 2.1664-2.4192 2.912-1.0176.7488-2.1504 1.2096-3.408 1.3888l-6.2688-10.8416-6.272 10.8416c-1.2544-.1792-2.3904-.64-3.408-1.3888-1.0144-.7456-1.8208-1.7152-2.4192-2.912l8.0672-9.0496-10.304-2.4192c-.1216-.5984-.1824-1.0752-.1824-1.4336 0-2.032.7776-3.824 2.3328-5.376l9.6736 4.7488-1.2512-11.5584c1.1936-.5376 2.4448-.8064 3.7632-.8064 1.3728 0 2.6272.2688 3.76.8064l-1.2512 11.5584 9.6736-4.7488c1.5552 1.552 2.3328 3.344 2.3328 5.376 0 .3584-.0608.8352-.1792 1.4336h0zm-48.3008 74.4256c4.8096 0 10.1472-.96 16.0064-2.8864v6.1664c-5.4208 2.448-10.8864 3.6736-16.4 3.6736-10.1472 0-17.84-2.9088-23.0912-8.7232-5.2448-5.8176-7.872-14.368-7.872-25.6512 0-11.1968 2.6688-19.744 8.0032-25.6512 5.3344-5.9008 13.0752-8.8544 23.2224-8.8544 5.424 0 10.5408 1.0496 15.3504 3.1488v6.1664c-4.8096-1.5744-9.7952-2.3616-14.9568-2.3616-8.3072 0-14.32 2.1216-18.0352 6.3616-3.7216 4.2464-5.5808 11.0464-5.5808 20.4032v1.5744c0 9.0976 1.8816 15.808 5.6448 20.1408 3.76 4.3296 9.664 6.4928 17.7088 6.4928h0zM99.2 41.6c34.4544 0 57.6 9.9296 57.6 19.2 0 9.2704-23.1456 19.2-57.6 19.2-34.0544 0-54.4-9.7632-54.4-19.2 0-9.4368 20.3456-19.2 54.4-19.2h0zm57.6 156.8c0 9.2704-23.1456 19.2-57.6 19.2-26.7424 0-54.4-7.1808-54.4-19.2v-32.3744C54.3136 174.208 73.84 179.2 99.2 179.2c13.0944 0 25.5392-1.392 35.9808-4.0192l-1.5648-6.208c-9.936 2.5024-21.84 3.8272-34.416 3.8272-26.7424 0-54.4-7.136-54.4-19.0816V120.96c9.6032 8.2688 29.3376 13.44 54.4 13.44 13.0816 0 25.5264-1.4048 35.9872-4.064l-1.5776-6.2016C123.6576 126.6656 111.7568 128 99.2 128c-34.0544 0-54.4-9.7632-54.4-19.2V72.96c9.6032 8.2688 29.3376 13.44 54.4 13.44 23.2256 0 46.6496-4.6976 57.6-13.7728V83.2h6.4V60.8c0-16.8064-32.1984-25.6-64-25.6-35.7984 0-60.8 10.528-60.8 25.6v137.6c0 15.312 24.432 25.6 60.8 25.6 31.8016 0 64-8.7936 64-25.6V192h-6.4v6.4z" fill="#fff"/></svg>