<svg width="256px" height="256px" viewBox="0 0 256 256" xmlns="http://www.w3.org/2000/svg" preserveAspectRatio="xMidYMid"><title>AWS Timestream</title><defs><linearGradient x1="0%" y1="100%" x2="100%" y2="0%" id="a"><stop stop-color="#2e27ad" offset="0%"/><stop stop-color="#527fff" offset="100%"/></linearGradient></defs><path fill="url(#a)" d="M0 0h256v256H0z"/><path d="M194.942237 167.3376l4.104918-4.1376H179.99881l-5.035113-5.0752-9.524173 9.6-27.642325-27.8624 4.489061-4.5248 23.153264 23.3376 9.524173-9.6 7.663784 7.7248h16.419674l-4.104918-4.1376 4.48906-4.5248L211.2 160l-11.768703 11.8624-4.48906-4.5248zm-29.502713-50.2624L170.474636 112h10.041654l9.508299 10.6624-4.72399 4.2752-7.612989-8.5376h-4.584302l-7.663784 7.7248-7.663785-7.7248h-17.73401V112h20.362682l5.035113 5.0752zm33.607631-1.8752h-5.035112v-6.4h15.873621v16h-6.349449v-5.0752L195.326379 128l8.209836 8.2752V131.2h6.349449v16h-15.873621v-6.4h5.035112l-8.209837-8.2752-8.209837 8.2752h-19.048346l-5.419254 5.4624-4.48906-4.5248 7.279643-7.3376h19.048346l19.048345-19.2zm-61.249956 42.5376 6.349449-6.4 4.48906 4.5248-6.349448 6.4-4.489061-4.5248zM105.119762 44.8c31.807563 0 53.970313 10.1184 53.970313 19.2 0 9.0816-22.16275 19.2-53.970313 19.2-31.807563 0-53.9703134-10.1184-53.9703134-19.2 0-9.0816 22.1627504-19.2 53.9703134-19.2h0zm31.747243 60.8h-6.349449V176c0 1.7664 1.419102 3.2 3.174725 3.2h25.397794V192c0 9.0816-22.16275 19.2-53.970313 19.2-30.794826 0-53.9703134-11.1328-53.9703134-18.352v-24.2912C60.8545808 176.9088 80.855344 182.4 105.119762 182.4c7.886015 0 15.546625-.6048 22.759598-1.8016l-1.02861-6.3168C119.974297 175.4208 112.662907 176 105.119762 176c-31.807563 0-53.9703134-10.1184-53.9703134-19.2v-33.0432C60.8545808 132.1088 80.855344 137.6 105.119762 137.6c7.886015 0 15.546625-.6048 22.759598-1.8016l-1.02861-6.3168c-6.876453 1.1392-14.187843 1.7184-21.730988 1.7184-31.807563 0-53.9703134-10.1184-53.9703134-19.2V75.7568C60.8545808 84.1088 80.855344 89.6 105.119762 89.6c24.264418 0 44.265181-5.4912 53.970313-13.8432V108.8h6.349449V64c0-14.5952-25.931148-25.6-60.319762-25.6C70.7311482 38.4 44.8 49.4048 44.8 64v128.848c0 13.184 28.1883773 24.752 60.319762 24.752 34.388614 0 60.319762-11.0048 60.319762-25.6v-12.8h44.44614v-6.4h-73.018659v-67.2z" fill="#fff"/></svg>