<svg width="256px" height="256px" viewBox="0 0 256 256" xmlns="http://www.w3.org/2000/svg" preserveAspectRatio="xMidYMid"><title>AWS OpenSearch</title><defs><linearGradient x1="0%" y1="100%" x2="100%" y2="0%" id="a"><stop stop-color="#4d27a8" offset="0%"/><stop stop-color="#a166ff" offset="100%"/></linearGradient></defs><path fill="url(#a)" d="M0 0h256v256H0z"/><path d="M141.632 164.256c-14.1344 0-25.632-11.4976-25.632-25.6288 0-14.1344 11.4976-25.632 25.632-25.632 14.1344 0 25.632 11.4976 25.632 25.632 0 14.1312-11.4976 25.6288-25.632 25.6288h0zm0-57.6608c-17.664 0-32.032 14.368-32.032 32.032 0 17.6608 14.368 32.0288 32.032 32.0288 17.664 0 32.032-14.368 32.032-32.0288 0-17.664-14.368-32.032-32.032-32.032h0zm64.9216 89.712c-2.0832 2.3072-5.6672 2.4992-7.9872.4192l-26.688-24.0736c2.8192-2.5088 5.3504-5.3248 7.4784-8.4512l26.7744 24.1216c2.3136 2.0864 2.4992 5.6736.4224 7.984h0zm-104.1184-57.68c0-21.616 17.584-39.2 39.1968-39.2 21.6128 0 39.1968 17.584 39.1968 39.2 0 21.6128-17.584 39.1968-39.1968 39.1968-21.6128 0-39.1968-17.584-39.1968-39.1968h0zm80.1664 19.8848c2.9344-6.0192 4.6272-12.752 4.6272-19.8848 0-25.1456-20.4544-45.6-45.5968-45.6-25.1424 0-45.5968 20.4544-45.5968 45.6 0 25.1424 20.4544 45.5968 45.5968 45.5968 9.2768 0 17.9072-2.8 25.1168-7.5776l27.536 24.8384c2.2976 2.064 5.1808 3.0816 8.0576 3.078415 3.2992 0 6.5856-1.337615 8.9664-3.971215 4.4352-4.9344 4.0384-12.5696-.8896-17.0208l-27.8176-25.0592zM214.4 64v108.8H208V67.2h-25.6v35.2H176V64c0-1.7664 1.4336-3.2 3.2-3.2h32c1.7696 0 3.2 1.4336 3.2 3.2h0zm-51.2 131.2h6.4v16c0 1.7696-1.4304 3.2-3.2 3.2h-32c-1.7696 0-3.2-1.4304-3.2-3.2V192h6.4v16h25.6v-12.8zm-25.6-112h-6.4V44.8c0-1.7664 1.4304-3.2 3.2-3.2h32c1.7696 0 3.2 1.4336 3.2 3.2v44.8h-6.4V48h-25.6v35.2zm-19.2 105.6h6.4v22.4c0 1.7696-1.4304 3.2-3.2 3.2h-32c-1.7664 0-3.2-1.4304-3.2-3.2v-48h6.4V208h25.6v-19.2zm-25.6-73.6h-6.4V73.6c0-1.7664 1.4336-3.2 3.2-3.2h32c1.7696 0 3.2 1.4336 3.2 3.2v12.8h-6.4v-9.6H92.8v38.4zM48 208h25.6V99.2H48V208zM76.8 92.8h-32c-1.7664 0-3.2 1.4336-3.2 3.2v115.2c0 1.7696 1.4336 3.2 3.2 3.2h32c1.7696 0 3.2-1.4304 3.2-3.2V96c0-1.7664-1.4304-3.2-3.2-3.2h0z" fill="#fff"/></svg>