<svg width="256px" height="256px" viewBox="0 0 256 256" xmlns="http://www.w3.org/2000/svg" preserveAspectRatio="xMidYMid"><title>AWS CloudSearch</title><defs><linearGradient x1="0%" y1="100%" x2="100%" y2="0%" id="a"><stop stop-color="#4d27a8"/><stop stop-color="#a166ff" offset="1"/></linearGradient></defs><path fill="url(#a)" d="M0 0h256v256H0z"/><path d="M149.469682 85.9056483v6.4261127c-2.796228 0-5.451038 1.0185385-7.475893 2.8692592-.784229.7132982-1.873793.9928342-2.902291.7550681-1.031712-.2377664-1.877008-.9735561-2.262695-1.9631776-3.921147-10.0793571-14.087203-16.8524797-25.297827-16.8524797-7.733017 0-15.1028448 3.1905648-20.2196205 8.7555783-4.3936131 4.7649622-6.8105827 10.863343-6.8105827 17.1737857 0 1.404105-.9095776 2.679689-2.2498384 3.100599-6.6852346 2.098126-11.6638058 7.486421-13.0297792 14.076399-.0064282.051409-.0128563.099605-.0224986.144588-.2249836 1.220961-.3342617 2.368022-.3342617 3.505444 0 10.297845 8.7390157 18.677496 19.4771737 18.677496h50.8817054v6.426113H88.3415686c-14.2832608 0-25.9052838-11.261763-25.9052838-25.103609 0-1.487645.1349904-2.968864.4146131-4.52077.0096423-.080326.0224986-.154227.0385687-.228127 1.626312-8.228637 7.3891126-15.072447 15.2667616-18.320846.5206768-7.1361985 3.4647513-13.8996817 8.4272524-19.2815508 6.3252602-6.8823667 15.4210364-10.8312128 24.9474954-10.8312128 12.441607 0 23.864359 6.8052531 29.582163 17.2862426 2.532675-1.3655488 5.396398-2.0949127 8.356543-2.0949127m70.500297 134.0615577c-5.348187 5.346526-14.055063 5.343313-19.40325.003214l-43.797928-43.76504c7.389112-5.565013 13.80758-12.350988 18.95971-20.052683l44.257538 44.43978c5.328904 5.346526 5.319261 14.037843-.01607 19.374729M32.0281101 110.732934c0-41.6347826 33.8825683-75.5068217 75.5302939-75.5068217 41.647725 0 75.530294 33.8720391 75.530294 75.5068217 0 41.634782-33.882569 75.506821-75.530294 75.506821-41.6477256 0-75.5302939-33.872039-75.5302939-75.506821M224.54358 196.058855l-45.366388-45.551498c6.575957-11.788704 10.339616-25.347801 10.339616-39.774423 0-45.1755708-36.765576-81.932934-81.958404-81.932934C62.3655757 28.8 25.6 65.5573632 25.6 110.732934c0 45.178783 36.7655757 81.932934 81.958404 81.932934 16.115272 0 31.140979-4.691063 43.830069-12.755833l44.633582 44.606859c3.927575 3.923142 9.086133 5.883106 14.244692 5.883106 5.158558 0 10.320331-1.963177 14.247906-5.889532 7.835866-7.836644 7.848722-20.598904.028927-28.451613m-116.985176-29.097437c-31.0124174 0-56.2459637-25.225705-56.2459637-56.228484 0-31.0027798 25.2335463-56.2284841 56.2459637-56.2284841 31.012417 0 56.245963 25.2257043 56.245963 56.2284841 0 31.002779-25.233546 56.228484-56.245963 56.228484m0-118.8830807c-34.5575202 0-62.6740738 28.107816-62.6740738 62.6545967 0 34.54678 28.1165536 62.654596 62.6740738 62.654596 34.55752 0 62.674073-28.107816 62.674073-62.654596 0-34.5467807-28.116553-62.6545967-62.674073-62.6545967" fill="#fff"/></svg>