<svg width="256px" height="256px" viewBox="0 0 256 256" xmlns="http://www.w3.org/2000/svg" preserveAspectRatio="xMidYMid"><title>AWS Backup</title><defs><linearGradient x1="0%" y1="100%" x2="100%" y2="0%" id="a"><stop stop-color="#1b660f" offset="0%"/><stop stop-color="#6cae3e" offset="100%"/></linearGradient></defs><path fill="url(#a)" d="M0 0h256v256H0z"/><path d="M167.1712 129.1616c1.4176 9.7152-1.0304 19.3984-6.8992 27.2704-5.8656 7.872-14.4512 12.9888-24.1632 14.4064-1.8016.2624-3.6.390406-5.3856.390406-7.8592.003194-15.4752-2.508806-21.8848-7.289606-9.3216-6.9472-14.7136-17.6064-14.7968-29.2448l6.4-.0448c.0704 9.6128 4.5248 18.4192 12.2208 24.1568 6.4992 4.848 14.4864 6.8736 22.5216 5.6992 8.0224-1.1712 15.1104-5.3952 19.9552-11.8976 4.848-6.5024 6.8704-14.4992 5.6992-22.5216-1.1712-8.0256-5.3952-15.1136-11.8944-19.9584-11.4016-8.496-28.1472-7.2704-39.0816 1.8592l5.3344-.0064.0064 6.4-12.8.0192H102.4c-.848 0-1.664-.336-2.2624-.9376-.6016-.5984-.9376-1.4144-.9376-2.2624v-12.7584h6.4v4.8c5.3344-4.4896 11.9648-7.5904 19.0976-8.7456 10.1024-1.6352 20.3328.7328 28.0704 6.5024 7.872 5.8656 12.9888 14.448 14.4032 24.1632M172.8 185.6c-1.4592 0-2.9312.208-4.3584.608l-9.0784-12.128-5.1264 3.8368 8.4288 11.2512c-2.7456 2.1856-4.8192 5.3088-5.5616 9.232H98.9344c-.64-4.0352-2.5408-7.2448-5.3728-9.4592l8.208-11.0336-5.1392-3.8176-8.9856 12.0768c-1.392-.3232-2.8512-.5504-4.4448-.5504-1.376 0-2.6624.1568-3.8944.4l-18.6208-62.2304c2.8288-.9728 5.088-2.6656 6.7328-4.9344l14.6144 5.728 2.336-5.9584-14.4224-5.6544c.2688-1.3088.4544-2.6784.4544-4.1664 0-3.5072-.8448-6.544-2.3456-9.0208l48.2688-33.7856c2.1472 2.16 5.0368 3.5776 8.4768 4.1216V86.4h6.4V70.1248c3.4912-.528 6.3872-1.92 8.528-4.0736l48.0928 34.1088c-1.4048 2.4224-2.2208 5.3248-2.2208 8.64 0 1.344.1792 2.6976.512 4.0288l-14.4992 5.7984 2.3744 5.9424 14.848-5.9392c1.9392 2.6144 4.7424 4.6624 8.3392 5.5968L173.7696 185.68c-.3296-.016-.6336-.08-.9696-.08m0 25.6c-6.2816 0-9.6-3.3216-9.6-9.6 0-6.0096 4.88-9.6 9.6-9.6 6.1888 0 9.6 3.408 9.6 9.6 0 6.2784-3.3184 9.6-9.6 9.6m-89.6 0c-6.0992 0-9.6-3.5008-9.6-9.6 0-6.1792 3.408-9.584 9.6-9.584 7.9328 0 9.6 5.2128 9.6 9.584 0 6.1888-3.4112 9.6-9.6 9.6M44.8 108.8c0-6.192 3.408-9.6 9.6-9.6 6.1888 0 9.6 3.408 9.6 9.6 0 6.2784-3.3184 9.6-9.6 9.6-6.368 0-9.6-3.232-9.6-9.6m83.2-64c6.2816 0 9.6 3.3184 9.6 9.6 0 6.2688-3.3184 9.5808-9.6 9.5808-6.192 0-9.6-3.4016-9.6-9.5808 0-6.192 3.408-9.6 9.6-9.6m73.6 54.4c6.1888 0 9.6 3.408 9.6 9.6 0 6.1888-3.4112 9.6-9.6 9.6-6.2336 0-9.6-4.9472-9.6-9.6 0-6.1024 3.5008-9.6 9.6-9.6m16 9.6c0-9.7216-6.2816-16-16-16-3.648 0-6.8288.944-9.3824 2.6304L143.024 60.544c.6144-1.8432.976-3.8816.976-6.144 0-9.8688-6.1312-16-16-16-9.7184 0-16 6.2784-16 16 0 2.2368.368 4.2688.9984 6.1056l-49.52 34.6656C60.9888 93.648 57.9296 92.8 54.4 92.8c-9.7184 0-16 6.2784-16 16 0 9.8336 6.0928 15.952 15.904 15.9904l19.0688 63.7184c-3.888 2.7424-6.1728 7.28-6.1728 13.0912 0 9.7184 6.2816 16 16 16 8.5984 0 14.4864-4.9312 15.7344-12.8h58.1312c1.2448 7.8688 7.1328 12.8 15.7344 12.8 9.7184 0 16-6.2816 16-16 0-6.9856-3.2832-12.1472-8.7136-14.5248l23.792-62.464c8.3872-.928 13.7216-6.8864 13.7216-15.8112" fill="#fff"/></svg>