<svg width="256px" height="256px" viewBox="0 0 256 256" xmlns="http://www.w3.org/2000/svg" preserveAspectRatio="xMidYMid"><title>AWS DynamoDB</title><defs><linearGradient x1="0%" y1="100%" x2="100%" y2="0%" id="a"><stop stop-color="#2e27ad" offset="0%"/><stop stop-color="#527fff" offset="100%"/></linearGradient></defs><path fill="url(#a)" d="M0 0h256v256H0z"/><path d="M166.675048 175.520802c-10.681586 8.636106-33.091156 13.200135-54.534328 13.200135-21.4463718 0-43.8623424-4.567203-54.5407283-13.203309v17.39282h.0032c0 8.674193 22.3968 18.341808 54.5375283 18.341808 32.115157 0 54.499128-9.65492 54.534328-18.322765v-17.408689zm.0032-33.049532 6.399992-.034912v.034912c0 3.865777-1.935998 7.47447-5.705593 10.77847 4.569594 4.021297 5.705593 7.96642 5.705593 10.775297 0 .019043-.0032.034912-.0032.053956v28.831455h.0032c0 16.034403-31.398359 24.689552-60.93752 24.689552-29.4687613 0-60.7807203-8.617063-60.93112-24.578467 0-.015869-.0096-.031738-.0096-.047608v-28.95841c0-.006348.0064-.015869.0064-.025391.0096-2.808877 1.1487984-6.738131 5.7119923-10.749905-4.5343939-4.005427-5.6863923-7.912463-5.7151923-10.699123h.0032c0-.012696-.0064-.022218-.0064-.034913v-28.95841c0-.009522.0064-.019043.0064-.028565.0096-2.808877 1.1519984-6.738131 5.7151923-10.743557C52.3839984 98.7670499 51.232 94.8568394 51.2032 92.0733533h.0032c0-.0126954-.0064-.0253911-.0064-.0380864V63.0800304c0-.0095216.0064-.0190432.0064-.0285648C51.2608 47.0392803 82.6239587 38.4 112.14072 38.4c16.675178 0 32.694357 2.6501834 43.948742 7.2713411l-2.447997 5.8653162c-10.505586-4.3132925-25.631966-6.788913-41.500745-6.788913-32.1407578 0-54.5375283 9.6676151-54.5375283 18.3481555 0 8.6773668 22.3967705 18.3449815 54.5375283 18.3449815.867199.0095216 1.715197 0 2.572796-.0317386l.2688 6.3413965c-.947199.0380867-1.894398.0380867-2.841596.0380867-21.4463718 0-43.8623424-4.5672022-54.54072-13.2033085v17.383298h.0031917v.0729993c.032 3.3293917 3.4463952 6.2366589 6.3071917 8.0838523 8.6079884 5.487625 24.0319683 9.235968 41.2319456 10.013567l-.2912 6.341397c-17.4239767-.790294-32.6815565-4.405335-42.5023437-9.946916-2.4191968 1.809107-4.7455936 4.256163-4.7455936 7.030127 0 8.677367 22.3967705 18.344982 54.5375283 18.344982 3.151996 0 6.281591-.104738 9.305588-.314214l.444799 6.331875c-3.167996.218998-6.451191.330083-9.750387.330083-21.4463718 0-43.8623424-4.567202-54.54072-13.203308v17.383298h.0031917c.032 3.402391 3.4463952 6.306484 6.3071917 8.156852 9.8431868 6.281093 28.3263625 10.191303 48.2303366 10.191303h1.407998v6.347745h-1.407998c-20.2207738 0-38.5983494-3.754691-49.8367347-10.099262-2.4063968 1.805934-4.7007936 4.240294-4.7007936 6.992041 0 8.677367 22.3967705 18.348155 54.5375283 18.348155 32.115157 0 54.499128-9.654919 54.534328-18.325938v-.031739-.003174c-.0064-2.758095-2.310397-5.192455-4.723194-6.998388-1.561598.88551-3.235195 1.739282-5.139193 2.523228l-2.451197-5.865315c2.323197-.955336 4.339195-1.986845 5.993592-3.072309 2.886396-1.882106 6.323192-4.824286 6.323192-8.128287h0zm27.411164-46.4178809h-17.932776c-1.059199 0-2.054398-.5205152-2.646397-1.3901561-.598399-.869641-.719999-1.9773223-.3296-2.9517012l10.908786-27.26991h-41.30872l-19.2 38.0864662h20.422373c1.020798 0 1.980797.485603 2.585597 1.301288.598399.818859.774398 1.869411.463999 2.837442l-18.227176 56.81866 65.263914-67.4320889zm9.820787-.9743789-79.996695 82.6476328c-.623999.641122-1.462398.974379-2.310397.974379-.563199 0-1.129598-.142824-1.635198-.444342-1.279998-.755382-1.865597-2.282014-1.414398-3.691213l21.075173-65.689634h-21.225572c-1.110399 0-2.137598-.568123-2.723197-1.504416-.582399-.936292-.636799-2.104277-.1376-3.088177l22.399971-44.4342115c.540799-1.0759427 1.647998-1.7551514 2.860796-1.7551514h47.999937c1.059199 0 2.054397.523689 2.646396 1.3901562.5984.8728147.719999 1.9773222.3296 2.9548749l-10.908786 27.2667363h20.729573c1.279998 0 2.441597.7617296 2.943996 1.9297145.502399 1.1711588.2528 2.5264023-.633599 3.4436512h0zM62.2559856 194.15778c4.5343939 2.554967 10.2431862 4.703678 16.9663776 6.379483l1.5615978-6.157312c-6.076792-1.513937-11.388785-3.500781-15.3663796-5.741535l-3.1615958 5.519364zm16.9663776-44.402473 1.5615978-6.154138c-6.076792-1.517111-11.388785-3.503955-15.3663796-5.744709l-3.1615958 5.519364c4.5343939 2.554967 10.2399862 4.703679 16.9663776 6.379483h0zM62.2559856 92.5938685l3.1615958-5.5193639c3.9711946 2.2407536 9.2863876 4.2244237 15.3663796 5.7447085l-1.5615978 6.1541383c-6.7327914-1.6789783-12.4383837-3.8276896-16.9663776-6.3794829h0z" fill="#fff"/></svg>