<svg width="256px" height="256px" viewBox="0 0 256 256" xmlns="http://www.w3.org/2000/svg" preserveAspectRatio="xMidYMid"><title>AWS CloudTrail</title><defs><linearGradient x1="0%" y1="100%" x2="100%" y2="0%" id="a"><stop stop-color="#b0084d" offset="0%"/><stop stop-color="#ff4f8b" offset="100%"/></linearGradient></defs><path fill="url(#a)" d="M0 0h256v256H0z"/><path d="M80 169.587366h12.8v-6.406316H80v6.406316zm111.9072-47.4644c-.72-9.718383-5.472-16.874239-13.0208-19.401531-6.0768-2.027599-12.7712-.595787-17.8688 3.558709-3.0912-6.09561-7.7376-12.0662973-11.5712-15.8492272-13.7472-13.5685792-28.9088-17.0279901-45.0752-10.2853418C89.9392 86.151497 76.8 105.879749 76.8 121.539991v.6086c-8.6624 2.927687-15.6512 9.289159-18.9632 17.399556l5.9264 2.421588c4.2208-10.336592 14.0992-13.578188 17.0272-14.324524 1.4176-.361957 2.4096-1.640017 2.4096-3.103861v-3.001359c0-12.943963 11.7024-30.5164902 23.632-35.4813856 13.744-5.7304502 26.2176-2.8219824 38.1216 8.9336087 5.0624 4.9937241 10.0128 12.4026299 12.0384 18.0241719.3968 1.108293 1.3696 1.90588 2.5344 2.082053 1.152.176174 2.32-.301097 3.0304-1.242825 3.536-4.702237 9.2704-6.739445 14.304-5.057787 5.552 1.861035 8.7392 7.671564 8.7392 15.945322 0 1.566345 1.1328 2.902062 2.6752 3.158314 2.3456.390786 22.9248 4.423562 22.9248 25.670112 0 22.005698-21.5008 22.415702-22.4 22.422108h-73.6V182.4h73.6064c9.9584-.019219 28.7936-6.066782 28.7936-28.828425 0-19.862786-15.1072-28.806004-25.6928-31.448609h0zM99.2 169.587366H144v-6.406316H99.2v6.406316zM86.4 182.4h19.2v-6.406317H86.4V182.4zm-48 0H48v-6.406317h-9.6V182.4zm9.6-25.625267h28.8v-6.406317H48v6.406317zm-6.4 12.812633h32v-6.406316h-32v6.406316zm44.8-12.812633h22.4v-6.406317H86.4v6.406317zM54.4 182.4H80v-6.406317H54.4V182.4z" fill="#fff"/></svg>