<svg width="256px" height="256px" viewBox="0 0 256 256" xmlns="http://www.w3.org/2000/svg" preserveAspectRatio="xMidYMid"><title>AWS Key Management Service (KMS)</title><defs><linearGradient x1="0%" y1="100%" x2="100%" y2="0%" id="a"><stop stop-color="#bd0816"/><stop stop-color="#ff5252" offset="1"/></linearGradient></defs><path fill="url(#a)" d="M0 0h256v256H0z"/><path d="M166.390062 167.98826h22.4v-6.4h-22.4v6.4zm-28.8 0h22.4v-6.4h-22.4v6.4zm-28.8 0h22.4v-6.4h-22.4v6.4zm35.2-25.6c0-3.5296 2.8736-6.4 6.4-6.4 3.5296 0 6.4 2.8704 6.4 6.4 0 3.5296-2.8704 6.4-6.4 6.4-3.5264 0-6.4-2.8704-6.4-6.4h0zm19.2 0c0-7.0592-5.7376-12.8-12.8-12.8-7.0592 0-12.8 5.7408-12.8 12.8 0 7.0592 5.7408 12.8 12.8 12.8 7.0624 0 12.8-5.7408 12.8-12.8h0zm-44.8-6.4c3.5296 0 6.4 2.8704 6.4 6.4 0 3.5296-2.8704 6.4-6.4 6.4-3.5264 0-6.4-2.8704-6.4-6.4 0-3.5296 2.8736-6.4 6.4-6.4h0zm0 19.2c7.0624 0 12.8-5.7408 12.8-12.8 0-7.0592-5.7376-12.8-12.8-12.8-7.0592 0-12.8 5.7408-12.8 12.8 0 7.0592 5.7408 12.8 12.8 12.8h0zm92.8-48v73.6c0 1.7664-1.4304 3.2-3.2 3.2h-99.2v-6.4h96v-67.2h-70.4v-6.4h73.6c1.7696 0 3.2 1.4336 3.2 3.2h0zm-112.9632002 16.1504c-1.3312.4192-2.2368 1.6544-2.2368 3.0496v67.328l-7.6768 6.5824-8.3232-9.5136v-8.3968c0-.848-.336-1.664-.9376-2.2624l-7.3344-7.3376 7.3344-7.3376c.6016-.5984.9376-1.4144.9376-2.2624v-6.4c0-.848-.336-1.664-.9376-2.2624l-7.3344-7.3376 7.3344-7.3376c.6016-.5984.9376-1.4144.9376-2.2624v-11.168c0-1.3952-.9024-2.6304-2.2336-3.0496-16.4544-5.216-26.1824-22.1408-22.6208-39.3728002 2.5664-12.416 12.1152-22.3712 24.3232-25.3632 10.3968-2.5504 21.0592002-.32 29.2512002 6.1024 8.1856 6.4224 12.88 16.064 12.88 26.4512 0 14.5696002-9.6064 27.7920002-23.3632002 32.1504002h0zm29.7632002-32.1504002c0-12.3648-5.5872-23.8432-15.3312-31.488-9.744-7.6448-22.3904002-10.304-34.7232002-7.28-14.5952 3.5744-26.0032 15.4624-29.0688 30.2816v.0032c-4.064 19.6640002 6.4928 39.0048002 24.7232 45.9840002v7.5744l-8.6624 8.6624c-1.248 1.2512-1.248 3.2736 0 4.5248l8.6624 8.6624v3.7504l-8.6624 8.6624c-1.248 1.2512-1.248 3.2736 0 4.5248l8.6624 8.6624v8.2752c0 .7744.2816 1.5232.7936 2.1088l11.2 12.8c.6336.72 1.5168 1.0912 2.4064 1.0912.7392 0 1.4784-.2528 2.0832-.7712l11.2000002-9.6c.7104-.608 1.1168-1.4944 1.1168-2.4288v-66.5344c15.1872-5.8624 25.6-20.9344 25.6-37.4656002h0zm-40.0000002 7.584c-4.4096 0-8-3.5872-8-8 0-4.4096 3.5904-8 8-8 4.4128 0 8 3.5904 8 8 0 4.4128-3.5872 8-8 8h0zm0-22.4c-7.9392 0-14.4 6.4608-14.4 14.4 0 7.9424 6.4608 14.4000002 14.4 14.4000002 7.9424 0 14.4000002-6.4576002 14.4000002-14.4000002 0-7.9392-6.4576002-14.4-14.4000002-14.4h0z" fill="#fff"/></svg>