<svg width="256px" height="256px" viewBox="0 0 256 256" xmlns="http://www.w3.org/2000/svg" preserveAspectRatio="xMidYMid"><title>AWS Cognito</title><defs><linearGradient x1="0%" y1="100%" x2="100%" y2="0%" id="a"><stop stop-color="#bd0816" offset="0%"/><stop stop-color="#ff5252" offset="100%"/></linearGradient></defs><path fill="url(#a)" d="M0 0h256v256H0z"/><path d="M54.2833949 114.585352h41.2968265v-6.344123H54.2833949v6.344123zm142.1182641 46.153494 4.491824 4.485295-23.590018 23.555729c-.622629.618551-1.435859.929414-2.245912.929414-.81323 0-1.62646-.310863-2.245912-.929414l-11.868073-11.84765 4.491824-4.485295 9.622161 9.605002 21.344106-21.313081zm14.619076 17.481231c-.724283 5.963476-3.151265 11.511411-7.02999 16.047459-2.754181 3.222814-6.232645 5.887346-10.057366 7.701765-5.130336 2.432971-10.829299 3.356041-16.506024 2.664532-5.521068-.672477-10.724468-2.848511-15.060635-6.290198-8.329252-6.613748-12.535175-16.869023-11.254973-27.43516 1.210314-9.985649 7.261888-18.69613 16.185179-23.301963 4.27581-2.204583 8.958235-3.337009 13.72643-3.337009 1.223021 0 2.455573.07613 3.684947.225217 9.962066 1.214899 18.650283 7.302085 23.231053 16.282191 2.747828 5.38616 3.812016 11.419421 3.081379 17.443166h0zm2.579463-20.320226c-5.543304-10.867482-16.058112-18.233009-28.123138-19.701673-7.296832-.89135-14.58731.41554-21.096325 3.771581-10.794355 5.57014-18.113424 16.104556-19.577873 28.177421-1.543866 12.767548 3.541997 25.167136 13.61207 33.163903 5.25105 4.168089 11.559934 6.804072 18.24049 7.619292 1.480333.180807 2.960665.269625 4.437821.269625 5.37494 0 10.683171-1.186351 15.565727-3.501956 4.628421-2.195066 8.837521-5.417881 12.163503-9.313172 4.691955-5.487667 7.63356-12.196577 8.507147-19.4035.883116-7.279881-.406615-14.569279-3.729422-21.081521h0zm-127.5500134-24.28213h12.7067159v-6.344123H86.0501846v6.344123zm-31.7667897 0h25.4134317v-6.344123H54.2833949v6.344123zm-2.7446506-82.4735981H193.625241c3.742128 0 6.785387 3.7017958 6.785387 8.2505318v23.4700829h-9.530038V67.0044301c0-1.7509779-1.419975-3.1720615-3.176678-3.1720615h-73.063617c-1.756703 0-3.176679 1.4210836-3.176679 3.1720615v15.8603075H44.7533581V59.3946547c0-4.4726067 3.1099686-8.2505318 6.7853862-8.2505318h0zm99.6810097 30.8007168c7.376248 0 13.376995 5.9317549 13.376995 13.2211523 0 4.805673-2.652527 9.227527-6.921984 11.543132-4.053442 2.198238-8.939174 2.169689-12.938613.003172-4.253573-2.321949-6.893394-6.7438032-6.893394-11.546304 0-7.2893974 5.99757-13.2211523 13.376996-13.2211523h0zM44.7533581 150.746853V89.2088605h66.7102579v53.9250445c0 1.75415 1.419976 3.172062 3.176679 3.172062h33.209002v-6.344123h-26.531622c.27637-12.69459 8.716807-23.660407 20.87078-27.162362 5.616369 2.623294 12.322338 2.648671 18.024477-.003173 6.918807 1.998399 12.973557 6.620093 16.725215 12.815129l5.435297-3.286256c-3.850135-6.347295-9.692047-11.302055-16.467904-14.182287 3.17668-3.520988 5.044567-8.101445 5.044567-12.976903 0-10.7881811-8.853405-19.5652752-19.730353-19.5652752-10.880126 0-19.730353 8.7770941-19.730353 19.5652752 0 4.856426 1.848827 9.421022 5.003269 12.942011-8.491263 3.571741-15.124169 10.267962-18.675696 18.524839V70.1764915h66.710259v50.7529835h6.353357V89.2088605h9.530038l.003176 47.5809215h6.353358l-.003177-77.3951273c0-8.04752-5.892739-14.5946547-13.138744-14.5946547H51.5387443C44.2927395 44.8 38.4 51.3471347 38.4 59.3946547v91.3521983c0 8.04752 5.8927395 14.591482 13.1387443 14.591482h85.3383037v-6.344123H51.5387443c-3.6754176 0-6.7853862-3.774752-6.7853862-8.247359h0z" fill="#fff"/></svg>