<svg width="256px" height="221px" viewBox="0 0 256 221" xmlns="http://www.w3.org/2000/svg" preserveAspectRatio="xMidYMid"><title>Lightsail</title><path d="M145.725549 4.26325641e-14c29.308235 0 56.876464 11.364417799999957 77.702168 32.02699559999996C244.307795 52.7983239 255.889714 80.4209279 255.999238 109.892289c.107977 29.471361-11.256441 57.202715-32.027769 78.082794-20.771329 20.880079-48.393933 32.461997-77.865294 32.570748h-.435001c-53.9945787 0-99.6697507-38.497645-108.6960347-91.676596-.5437521-3.153761 1.5768809-6.198773 4.785018-6.742525 3.2081371-.489377 6.1987733 1.576881 6.7425254 4.785018 8.1019055 47.523929 48.9376843 81.943434 97.1684913 81.943434h.380626c26.317599-.108751 51.058317-10.44004 69.600262-29.14511 18.541945-18.705071 28.710108-43.500164 28.601358-69.817763-.10875-26.3175992-10.440039-51.0583174-29.14511-69.6002622-18.59632-18.4875697-43.228288-28.6013578-69.437136-28.6013578h-.380627c-48.1764312.1631256-88.9578348 34.7457559-96.8966147 82.2153097-.5437521 3.2081371-3.5343883 5.3287701-6.7425254 4.785018-3.2081371-.543752-5.3287701-3.5343883-4.785018-6.7425254C45.8382977 38.8782714 91.4047193.217500819 145.290547 4.26325641e-14h.435002zM152.141823 30.3957395l8.971909 8.1562807c1.25063 1.1418793 31.048242 28.6557329 32.516372 69.1652608.924379 25.828222-9.950662 50.732066-32.244496 74.113404l-9.406911 9.841912.380627-13.648176c.054375-2.066258.598127-49.535812-46.871427-61.552732-2.82751-.706878-4.785018-3.262513-4.839393-6.144398 0-2.936261 1.903132-5.491896 4.730643-6.253149 45.676259-12.342084 46.893062-58.1950358 46.924962-61.381746l8.4e-4-.1709858h0l-.163126-12.1256707zM94.504106 142.299911c0 10.929416 8.863158 19.738199 19.738199 19.738199-10.875041 0-19.6838238 8.808784-19.738199 19.7382 0-10.929416-8.8631584-19.7382-19.7381994-19.7382 10.9294162 0 19.7381994-8.863158 19.7381994-19.738199zm67.044627-87.7615806c-2.881885 15.7688094-12.12567 42.5214102-41.814532 55.5714596 29.960738 12.615047 39.150147 39.476398 41.923283 55.462709 14.953181-18.541945 22.185083-37.790768 21.478206-57.474592-.815628-23.8707147-13.213175-43.1739125-21.586957-53.5595766zM217.5 115.549l.004021.31563c.168335 8.335424 6.954106 15.016488 15.330606 15.016488-8.482532 0-15.333808 6.851276-15.333808 15.333808 0-8.482532-6.851276-15.333808-15.333808-15.333808 8.482532 0 15.333808-6.851276 15.333808-15.333808L217.5 115.549zM40.7814036 104.99852c2.8818859 0 5.2743949 2.338134 5.2743949 5.274395 0 2.881886-2.3381338 5.274395-5.2743949 5.274395h-9.29816c-2.8818859 0-5.2743949-2.338134-5.2743949-5.274395 0-2.881885 2.3381338-5.274395 5.2743949-5.274395h9.29816zm-26.1544735 0c2.8818858 0 5.2743949 2.338134 5.2743949 5.274395-.0543752 2.881886-2.3925091 5.274395-5.2743949 5.274395H5.27439487C2.39250901 115.54731 0 113.209176 0 110.272915c0-2.881885 2.33813381-5.274395 5.27439487-5.274395h9.35253523zm51.3301933 0c2.8818859 0 5.2743949 2.338134 5.2743949 5.274395-.0543752 2.881886-2.392509 5.274395-5.2743949 5.274395H54.8102065c-2.8818859 0-5.2743949-2.338134-5.2743949-5.274395 0-2.881885 2.3381338-5.274395 5.2743949-5.274395h11.1469169zm23.2725877 0c2.8818859 0 5.2743949 2.338134 5.2743949 5.274395 0 2.881886-2.3381338 5.274395-5.2743949 5.274395h-9.3525352c-2.8818859 0-5.2743949-2.338134-5.2743949-5.274395 0-2.881885 2.3381338-5.274395 5.2743949-5.274395h9.3525352zm25.0125939-68.0777559c0 7.8844047 6.361899 14.2463036 14.246304 14.2463036-7.884405 0-14.246304 6.361899-14.246304 14.2463037L114.242 65.391l-.003076-.2921813c-.164289-7.6337991-6.294571-13.7640802-13.92837-13.9283694l-.3145524-.0033816c7.8844044 0 14.2463034-6.3618989 14.2463034-14.2463036z" fill="#e17107"/></svg>