<svg width="256px" height="256px" viewBox="0 0 256 256" xmlns="http://www.w3.org/2000/svg" preserveAspectRatio="xMidYMid"><title>AWS CodeBuild</title><defs><linearGradient x1="0%" y1="100%" x2="100%" y2="0%" id="a"><stop stop-color="#2e27ad" offset="0%"/><stop stop-color="#527fff" offset="100%"/></linearGradient></defs><path fill="url(#a)" d="M0 0h256v256H0z"/><path d="M209.406825 70.4l-19.053176-17.4432L171.281416 70.4h38.125409zm-26.361288-19.3984-38.649459.0576 20.644382 16.4064 18.005077-16.464zM165.615327 107.2l-30.420291 11.2h58.515707l-28.095416-11.2zm-44.661739 75.2h85.753587v-57.6h-85.753587v57.6zm37.518782-112-21.07315-16.7488L116.465817 70.4h42.006553zm-48.682629-2.832 20.60627-16.4864-41.0791451.0608L109.789741 67.568zm-6.669723 2.832-21.0318618-16.8768L61.0562947 70.4h31.3127639 10.7509594zm-13.9270183 6.4H63.4955078l25.6974919 25.488V76.8zm0 35.4656-30.1598544 27.4624 30.1598544 29.5168v-56.9792zm0 67.3728-31.7605882 31.0464v.5152h31.7605882v-31.5616zm-31.7605882-32.5568v54.688l27.9556698-27.328-27.9556698-27.36zm0-14.5248 27.7524019-25.2672-27.7524019-27.52v52.7872zM54.256353 67.6736l20.5745088-16.5088-20.5745088.032v16.4768zM47.9042352 44.8h-6.3521174v32h6.3521174v-3.2V48v-3.2zM220.586552 74.752c-.473232 1.2352-1.65155 2.048-2.963262 2.048h-49.02882v25.6l42.489315 16.2368-.003177.0064c1.162438.4768 1.978685 1.6192 1.978685 2.9568v64c0 1.7664-1.419698 3.2-3.176059 3.2h-92.105705c-1.753185 0-3.176059-1.4336-3.176059-3.2v-64c0-1.3696.863888-2.5184 2.067614-2.9728l-.009528-.0224L162.242352 102.4V76.8H95.5451174v137.6c0 1.7664-1.4196985 3.2-3.1760588 3.2H54.256353c-1.7531847 0-3.1760589-1.4336-3.1760589-3.2V83.2H38.3760589C36.6228742 83.2 35.2 81.7664 35.2 80V41.6c0-1.7664 1.4228742-3.2 3.1760589-3.2h12.7042352c1.7563603 0 3.1760589 1.4336 3.1760589 3.2v3.1968l136.570528.0032 28.933896 26.432c.968698.8896 1.299008 2.288.825775 3.52h0zm-65.900044 102.2336 18.484663-42.32-5.812188-2.5792-18.484662 42.32 5.812187 2.5792zm17.363514-14.144 4.106644 4.8864 13.720574-11.7056c.673324-.576 1.076684-1.4112 1.117972-2.2976.041289-.8896-.292197-1.7568-.911528-2.3904l-11.452868-11.7088-4.522708 4.496 9.045415 9.248-11.103501 9.472zm-41.263356-9.2928c-.698733-.6432-1.076684-1.5712-1.025867-2.5248.047641-.9568.520873-1.8368 1.283127-2.4064l15.584921-11.6192 3.77951 5.1424-12.488263 9.3152 10.480994 9.6768-4.294032 4.72-13.32039-12.304z" fill="#fff"/></svg>