<svg width="256px" height="256px" viewBox="0 0 256 256" xmlns="http://www.w3.org/2000/svg" preserveAspectRatio="xMidYMid"><title>AWS Systems Manager</title><defs><linearGradient x1="0%" y1="100%" x2="100%" y2="0%" id="a"><stop stop-color="#b0084d" offset="0%"/><stop stop-color="#ff4f8b" offset="100%"/></linearGradient></defs><path fill="url(#a)" d="M0 0h256v256H0z"/><path d="M150.4 175.993789H192v6.400955h-41.6v6.400956H144v-6.400956h-12.8v-6.400955H144v-3.200478h6.4v3.200478zm12.8-19.202867H192v6.400956h-28.8v6.400955h-6.4v-6.400955h-25.6v-6.400956h25.6v-3.200478h6.4v3.200478zm16-19.202866H192v6.400955h-12.8v6.400956h-6.4v-6.400956h-41.6v-6.400955h41.6v-3.200478h6.4v3.200478zm-112 12.801911H96v6.400955H67.2c-4.016 0-8.3072-1.20658-11.4784-3.226081-6.464-4.093412-17.3216-13.675642-17.3216-31.831952 0-22.0192874 14.928-30.1004938 23.616-32.9329168l-.1728-2.9316375c-.0064-18.1371075 11.9936-36.7350838 27.904-43.4464857 18.6336-7.9211828 38.368-3.9973968 52.7968 10.497567 4.4768 4.4838694 8.1632 9.9534858 10.9856 16.3000333 5.6672-4.7207047 13.3824-6.3369459 20.5504-3.9845949 9.1104 2.9892464 14.7808 11.4097034 15.4464 22.7457955 9.0816 2.1731245 28.0736 9.64624 28.0736 34.0402821 0 .912136-.0352 1.792267-.0704 2.633993l-6.3968-.169625c.032-.854528.0672-1.641846.0672-2.464368 0-21.548817-17.7824-26.9608251-25.4272-28.2858229-.864-.1504224-1.6256-.643296-2.112-1.3698045-.4832-.7201075-.6528-1.6034393-.4736-2.451566-.0928-9.5406244-4.128-16.3096349-11.104-18.5979764-6.2496-2.0579072-13.1168.2112314-17.0944 5.62644-.704.9505418-1.8592 1.446616-3.0464 1.2673892-1.1712-.1696253-2.1504-.9761456-2.5472-2.0931127-2.6656-7.4987193-6.496-13.7812573-11.3824-18.6747878-12.5216-12.5810781-29.6384-15.9863863-45.7696-9.1245619-13.4656 5.6776473-24.0064 22.0896976-24.0064 37.3623776l.3168 5.29359c.0896 1.5298285-.9184 2.9092343-2.4064 3.2868909C58.176 96.2890902 44.8 102.555626 44.8 121.732889c0 14.334939 7.8016 22.281726 14.352 26.426345 2.16 1.379406 5.2416 2.230733 8.048 2.230733h0zm144 17.026541-5.6448-.323248c-1.5136-.080012-2.9568.963344-3.3024 2.493172-1.0816 4.794316-2.9632 9.338995-5.5936 13.506017-.8352 1.324997-.592 3.056456.5792 4.099811l4.2144 3.757361-10.4992 10.503969-3.7472-4.202228c-1.0432-1.174575-2.7808-1.41141-4.096-.576086-4.1664 2.630793-8.7136 4.515874-13.52 5.600836-1.5232.345652-2.5792 1.744261-2.4864 3.306094l.32 5.616838h-14.848l.32-5.623239c.0928-1.561833-.9632-2.960442-2.4864-3.306094-4.7936-1.081761-9.3408-2.970043-13.5136-5.604036-1.3216-.838525-3.056-.598489-4.096.576086l-3.7568 4.208628-10.496-10.500768 4.208-3.75096c1.168-1.043355 1.4112-2.774814.576-4.096611-2.6272-4.167022-4.5088-8.711701-5.5904-13.515618-.3424-1.529828-1.872-2.573184-3.3024-2.493172l-5.6384.323248v-14.850216l5.6576.323248c1.488.083212 2.9536-.963344 3.3024-2.489972 1.0848-4.784714 2.9696-9.322992 5.6-13.486813.8352-1.324998.5888-3.059657-.576-4.099812l-4.2368-3.779764 10.4992-10.500768 3.7792 4.234232c1.0432 1.164974 2.7776 1.40501 4.0928.572886 4.16-2.621192 8.6976-4.499872 13.4912-5.581634 1.5232-.345651 2.5792-1.74426 2.4864-3.306093l-.32-5.668046h14.848l-.32 5.674447c-.0928 1.561833.9632 2.957241 2.4864 3.302893 4.784 1.084962 9.3184 2.963642 13.4848 5.588034 1.3152.835325 3.0528.592088 4.0928-.572886l3.7856-4.243833 10.4992 10.500768-4.2272 3.770162c-1.1648 1.043356-1.4112 2.774815-.576 4.099812 2.6304 4.163822 4.5152 8.7053 5.5968 13.496415.3456 1.523428 1.7952 2.573184 3.3024 2.489972l5.6512-.323248v14.850216zm3.0176-21.433599-6.4032.364854c-1.04-3.664547-2.5024-7.188273-4.3616-10.523171l4.7904-4.272637c.656-.585688 1.0432-1.414612 1.0688-2.297943.0256-.876931-.3136-1.731459-.9376-2.352352l-15.2896-15.291883c-.6208-.624093-1.5072-.982546-2.352-.934539-.8832.025604-1.712.409661-2.2976 1.065759l-4.288 4.807118c-3.3312-1.856278-6.848-3.312495-10.5056-4.355851l.3648-6.426559c.0512-.880131-.2624-1.74106-.8704-2.381156-.6016-.640095-1.4432-1.001749-2.3232-1.001749h-21.6256c-.88 0-1.7216.361654-2.3232 1.001749-.608.640096-.9216 1.501025-.8704 2.381156l.3648 6.420158c-3.664 1.040156-7.184 2.499573-10.512 4.35265l-4.2816-4.797516c-.5856-.656098-1.4144-1.040155-2.2976-1.065759-.9056-.041606-1.7312.310446-2.352.934539l-15.2896 15.291883c-.624.620893-.9632 1.475421-.9376 2.352352.0256.880131.4128 1.712255 1.0688 2.297943l4.8 4.282239c-1.8592 3.334898-3.3216 6.852223-4.3648 10.513569l-6.4096-.364854c-.8576-.057609-1.7408.265639-2.3808.867329-.64.604891-1.0016 1.446616-1.0016 2.326748v21.628828c0 .880132.3616 1.721857 1.0016 2.326748.64.60169 1.5264.915336 2.3808.867329l6.3872-.364854c1.04 3.674148 2.4992 7.201075 4.3584 10.539173l-4.7712 4.253435c-.656.585687-1.0432 1.417812-1.0688 2.297943-.0256.880131.3136 1.734659.9376 2.355552l15.2896 15.291883c.6208.624093 1.5264.966544 2.352.93774.8832-.025604 1.7152-.412862 2.2976-1.06896l4.256-4.775113c3.3376 1.865879 6.8672 3.331698 10.5344 4.375053l-.3616 6.375352c-.0512.876931.2624 1.73786.8704 2.381156.6016.640095 1.4432 1.001749 2.3232 1.001749h21.6256c.88 0 1.7216-.361654 2.3264-1.001749.6048-.643296.9184-1.504225.8672-2.381156l-.3616-6.368951c3.6736-1.046556 7.2032-2.509174 10.5408-4.371852l4.2496 4.765511c.5824.656098 1.4144 1.043356 2.2976 1.06896.8544.038405 1.7312-.313647 2.352-.93774l15.2896-15.291883c.624-.620893.9632-1.475421.9376-2.355552-.0256-.880131-.4128-1.712256-1.072-2.297943l-4.7776-4.259836c1.8592-3.338098 3.3184-6.865025 4.3616-10.532772l6.3936.364854c.864.048007 1.7408-.265639 2.3808-.867329.64-.604891 1.0016-1.446616 1.0016-2.326748v-21.628828c0-.880132-.3616-1.721857-1.0016-2.326748-.64-.60169-1.5136-.921738-2.3808-.867329h0z" fill="#fff"/></svg>