<svg width="256px" height="256px" viewBox="0 0 256 256" xmlns="http://www.w3.org/2000/svg" preserveAspectRatio="xMidYMid"><title>AWS Web Application Firewall (WAF)</title><defs><linearGradient x1="0%" y1="100%" x2="100%" y2="0%" id="a"><stop stop-color="#bd0816"/><stop stop-color="#ff5252" offset="1"/></linearGradient></defs><path fill="url(#a)" d="M0 0h256v256H0z"/><path d="M46.0656 131.2h-7.6672v-6.4h7.6768c.64-16.1888 5.888-31.5904 15.3888-44.72l5.1872 3.7536C57.944 95.8624 53.112 109.9712 52.4752 124.8h8.3232v6.4h-8.3328c.5952 14.9184 5.4304 29.1104 14.1856 41.2032l-5.1872 3.7536c-9.5488-13.1936-14.8-28.6848-15.3984-44.9568h0zm129.9648 63.4496c-13.1584 9.5264-28.6016 14.7744-44.832 15.3952V217.6h-6.4v-7.5552c-16.2304-.6208-31.68-5.8688-44.8384-15.3952l3.7504-5.184c12.064 8.7328 26.2144 13.5648 41.088 14.1792V195.2h6.4v8.4448c14.8736-.6176 29.0208-5.4496 41.0816-14.1792l3.7504 5.184zM79.96 61.5872c13.1584-9.5264 28.608-14.7744 44.8384-15.392V38.4h6.4v7.7952c16.2304.6176 31.6736 5.8688 44.832 15.392l-3.7504 5.184c-12.0608-8.7296-26.208-13.5616-41.0816-14.176V60.8h-6.4v-8.2048c-14.8736.6112-29.024 5.4464-41.088 14.176l-3.7504-5.184zM217.5984 124.8v6.4h-7.6736c-.5952 16.272-5.8496 31.7632-15.3952 44.9568l-5.1904-3.7536c8.7552-12.0928 13.5936-26.2848 14.1856-41.2032h-8.3264v-6.4h8.3168c-.6368-14.8288-5.4688-28.9376-14.176-40.9664l5.1904-3.7536c9.4976 13.1296 14.7456 28.5312 15.3856 44.72h7.6832zm-41.6896-49.12 25.088-25.088 4.5248 4.5248-25.088 25.088-4.5248-4.5248zM80.0816 180.5568l-25.088 25.088-4.5248-4.5248 25.088-25.088 4.5248 4.5248zm7.1232-88.8224-47.488-47.488 4.5248-4.5248 47.4912 47.488-4.528 4.5248zm81.456 72.4032 47.6128 47.616-4.5248 4.5248-47.616-47.6128 4.528-4.528zm-67.3376-33.7856c.24-.4256.4992-.8544.7712-1.2832 5.3792-8.4512 3.8368-19.984 2.128-26.9504 4.6112 3.0304 8.768 9.2928 10.1856 11.9232.6048 1.1136 1.7792 1.7888 3.0688 1.6736 1.264-.0992 2.3488-.9312 2.7712-2.1248 4.7648-13.536 2.3424-23.712-1.0176-30.3072 4.0736 2.3712 7.2288 5.7824 9.3184 10.1312 4.5312 9.4144 3.5232 22.3008-2.6368 33.6256-8.4128 15.4752-6.7264 31.6992-4.8128 40.4288-4.8032-2.0704-9.0784-4.4096-12.768-6.9824-9.6864-6.752-12.768-19.984-7.008-30.1344h0zm42.976-1.0784c-.208 1.3088.4064 2.6112 1.552 3.2768 1.1424.6624 2.5824.5568 3.616-.2752.2592-.208 5.5072-4.5408 8.048-15.0208 3.0624 4.4544 6.2656 13.4432 2.0032 29.9552-4.2176 16.336-24.224 20.9312-31.3632 22.0608-1.7248-6.1856-5.2224-23.3536 3.3824-39.1744 6.1056-11.232 7.7248-23.9328 4.6656-34.4128 5.792 6.8032 10.6784 17.5104 8.096 33.5904h0zM95.7488 127.2c-7.3664 12.992-3.4496 29.9168 8.9216 38.5376 5.6 3.904 12.384 7.2928 20.16 10.0736.3552.128.7168.1888 1.0784.1888.0672 0 .1248-.0352.1888-.0384l.0032.0288c1.36-.1056 33.3408-2.8832 39.6128-27.1808 8.0704-31.2512-8.0928-40.5216-8.784-40.9024-.9376-.512-2.0736-.5248-3.024-.0288-.9504.4992-1.5872 1.44-1.696 2.5056-.2272 2.16-.5824 4.0832-1.0112 5.7824-2.2144-24.5376-21.6672-34.5216-25.6-36.2976-4.032-3.088-8.9344-5.2096-14.6176-6.2176-1.4272-.2592-2.8416.4864-3.4496 1.7984-.6144 1.3088-.2656 2.8768.8416 3.808.48.4064 10.4512 9.0528 7.6064 25.5072-3.7152-4.8736-9.6288-10.7488-16.5856-10.7488-1.056 0-2.0416.5216-2.6368 1.392-.5984.8704-.7264 1.9808-.3488 2.9632.0704.1728 6.592 17.36.2848 27.264-.3328.5248-.6496 1.0496-.944 1.5648h0z" fill="#fff"/></svg>