<svg width="256px" height="256px" viewBox="0 0 256 256" xmlns="http://www.w3.org/2000/svg" preserveAspectRatio="xMidYMid"><title>AWS CodeStar</title><defs><linearGradient x1="0%" y1="100%" x2="100%" y2="0%" id="a"><stop stop-color="#2e27ad"/><stop stop-color="#527fff" offset="1"/></linearGradient></defs><path fill="url(#a)" d="M0 0h256v256H0z"/><path d="M201.43942 111.37966c6.302836-3.631682 8.472718-11.704555 4.832917-17.9933326-1.762631-3.0475648-4.613383-5.2284788-8.017742-6.1395738-1.135847-.3047565-2.290784-.45396-3.436175-.45396-2.287602 0-4.546569.5968147-6.57964 1.7713971-3.054378 1.7586989-5.243349 4.5999184-6.15648 7.9998583-.909951 3.3967651-.445431 6.945909 1.320382 9.993474 3.6398 6.288777 11.737083 8.456993 18.036738 4.822137h0zm8.192733 13.472777 3.181643 5.498315-15.456425 8.90143-3.85297-19.850442c-6.274202-.438088-12.236602-3.838028-15.612326-9.66967-2.615312-4.514206-3.305728-9.777605-1.956711-14.8156108 1.35538-5.0348317 4.594293-9.2442806 9.121772-11.8505837 4.517934-2.606303 9.789918-3.3047033 14.84555-1.9523465 5.049269 1.3491824 9.268128 4.5808713 11.880258 9.0982515 5.392886 9.3204697 2.182608 21.2853375-7.16188 26.6661945h0c-1.524007.879349-3.121193 1.526957-4.747012 1.958695l2.029888 10.463307 7.728213-4.44754zm-22.23969 38.456461c-3.05756-1.761873-6.611456-2.228532-10.015815-1.317437-3.40754.911095-6.255111 3.092009-8.017742 6.139574-2.488046 4.298337-2.208061 9.403008.197262 13.38389l2.736213 3.145976-.063633.057142c.604513.514276 1.250387.999982 1.963075 1.409499v-.003175c3.057559 1.761874 6.614637 2.228532 10.015814 1.317437 3.404359-.911095 6.255112-3.092008 8.017743-6.139574 3.6398-6.288777 1.469919-14.36165-4.832917-17.993332h0zm10.343524 21.167879c-2.61213 4.51738-6.834171 7.749069-11.880258 9.098252-1.686271.450785-3.397996.673004-5.096993.673004-3.388451 0-6.73554-.885699-9.748557-2.622176v-.003174c-1.345835-.771415-2.545315-1.695209-3.630255-2.717413l-4.568841 3.952311 7.725031 4.444366-3.181644 5.50149-15.46597-8.904604 11.635271-10.06014c-3.035288-5.739581-3.162554-12.860089.324528-18.882205 2.612129-4.51738 6.830989-7.745894 11.880258-9.095077 5.05245-1.355531 10.321252-.657131 14.84555 1.949172 4.527479 2.606303 7.76321 6.815752 9.115409 11.853758 1.352199 5.038006.6586 10.298231-1.953529 14.812436h0zm-69.286657 13.599759c0-7.266538-5.927402-13.177544-13.207003-13.177544-7.279601 0-13.203822 5.911006-13.203822 13.177544 0 7.263364 5.924221 13.17437 13.203822 13.17437 7.279601 0 13.207003-5.911006 13.207003-13.17437h0zm6.363288 0c0 10.764889-8.778155 19.523464-19.570291 19.523464-10.788954 0-19.5671094-8.758575-19.5671094-19.523464 0-1.514259.1877171-2.980899.518608-4.396747l-8.2022778-2.834871v9.56491h-6.3632873v-18.482212l17.0027043 5.879261c3.4552652-5.545934 9.5990192-9.256979 16.6113622-9.256979 10.792136 0 19.570291 8.758575 19.570291 19.526638h0zm-61.9816026-50.967351c-1.7626308-3.047565-4.610202-5.228478-8.0145607-6.139573-3.404359-.907921-6.958255-.444437-10.0189965 1.317437-3.0543779 1.758699-5.2369856 4.599918-6.1501171 7.999858-.9163136 3.396765-.4454304 6.945908 1.3203821 9.993473 1.759449 3.047566 4.6102019 5.228479 8.0145606 6.139574 3.3979956.911095 6.9582551.447611 10.0189962-1.317437 6.3028365-3.631681 8.4727174-11.704554 4.8297354-17.993332h0zm-1.6480916 23.491648c-3.0161984 1.739651-6.3601059 2.62535-9.7517382 2.62535-1.6989978 0-3.4107219-.222218-5.0938115-.673004-5.0492688-1.349183-9.2713101-4.580871-11.8834397-9.098252-2.6121296-4.514205-3.3089094-9.774429-1.9535293-14.812435 1.3521987-5.038007 4.5879303-9.247456 9.1154096-11.853759v-.003174c.9163133-.526975 1.8676247-.952364 2.8380263-1.323787l-1.9726192-10.149026-7.6932148 4.441191L41.6 124.258796l15.4277907-8.907778 3.6557088 18.831412c1.9217127-.06984 3.8688787.146029 5.777865.653957 5.0492688 1.349182 9.2681283 4.580871 11.8834393 9.098251 5.3928864 9.32047 2.1794263 21.285338-7.16188 26.666195h0zm6.1819338-98.3887335h0c-2.0712499-1.1936297-4.3397619-1.7618736-6.5764576-1.7618736-4.5688403 0-9.0167786 2.3618627-11.460281 6.5840103-1.7658121 3.0475651-2.2303321 6.5967084-1.320382 9.9966483.9131318 3.3967651 3.1021027 6.2379846 6.1564806 7.9966838 3.0511965 1.7618736 6.6082742 2.2317066 10.0158147 1.3174368 3.4043587-.9110947 6.2551117-3.0888339 8.0145607-6.136399 3.642982-6.291952 1.4731011-14.364825-4.8297354-17.9965066h0zm10.2003501 1.4317207c3.4902633 5.8760864 3.8020643 13.4124608.1431741 19.7393328-2.6121296 4.5142057-6.8341709 7.745894-11.880258 9.095077-1.6862713.450786-3.3979955.673004-5.0969932.673004-3.3884509 0-6.7355402-.888873-9.7485568-2.622176-4.5274791-2.6094775-7.7663924-6.8189268-9.1217725-11.8537582-1.3521987-5.038006-.6586003-10.2982304 1.9567107-14.8156105 5.3960678-9.3236445 17.3876832-12.5299367 26.7289894-7.1459053h0c1.056306.6095133 2.020344 1.311088 2.9175674 2.0729792l8.1195549-7.0347958-7.7027594-4.4475405 3.1880071-5.4983152 15.4118826 8.9046041-14.9155463 12.9331044zm64.2946573-15.7171821c0-7.2633632-5.924221-13.1775443-13.207003-13.1775443-7.279601 0-13.207003 5.9141811-13.207003 13.1775443 0 7.2665379 5.927402 13.1743699 13.207003 13.1743699 7.282782 0 13.207003-5.907832 13.207003-13.1743699h0zm20.407063 14.7108505-16.312287-5.612599c-3.286638 6.1935411-9.805827 10.4252122-17.301779 10.4252122-10.792136 0-19.570291-8.7585751-19.570291-19.5234637 0-10.7648887 8.778155-19.5266381 19.570291-19.5266381 10.788954 0 19.570291 8.7617494 19.570291 19.5266381 0 1.0476006-.104995 2.0666301-.267258 3.0697869l7.947746 2.7364595v-8.142713h6.363287v17.0473171zm-31.45373 31.7645164-5.828771-2.549161-22.417863 50.945129 5.828772 2.552336 22.417862-50.948304zm24.190038 24.304332-18.370812-17.90127-4.441574 4.542776 13.054284 12.723584-14.597382 10.929965 3.821155 5.076101 20.534329-15.371156zm-57.947279 12.945802-18.367629-17.898095 20.534329-15.374331 3.821154 5.079275-14.6005633 10.92679 13.0542843 12.723585-4.441575 4.542776z" fill="#fff"/></svg>