<svg width="256px" height="256px" viewBox="0 0 256 256" xmlns="http://www.w3.org/2000/svg" preserveAspectRatio="xMidYMid"><title>AWS App Mesh</title><defs><linearGradient x1="0%" y1="100%" x2="100%" y2="0%" id="a"><stop stop-color="#4d27a8" offset="0%"/><stop stop-color="#a166ff" offset="100%"/></linearGradient></defs><path fill="url(#a)" d="M0 0h256v256H0z"/><path d="M130.2496 54.0184c-1.376 1.376-3.6128 1.376-4.9888 0-.6656-.6656-1.0336-1.552-1.0336-2.496 0-.9408.368-1.8272 1.0336-2.496.688-.6848 1.5904-1.0304 2.496-1.0304.9024 0 1.8048.3456 2.4928 1.0304v.0032c.6656.6656 1.0336 1.552 1.0336 2.4928 0 .944-.368 1.8304-1.0336 2.496h0zm7.4336-2.496c0-2.6528-1.0336-5.1456-2.9088-7.0208h0c-3.8688-3.8688-10.1696-3.8688-14.0384 0-1.8752 1.8752-2.9088 4.368-2.9088 7.0208 0 .4128.0704.8128.1184 1.216l-16.7584 9.216 3.088 5.6064 16.4416-9.0432c.0064.0096.0128.0192.0192.0256 1.936 1.936 4.48 2.9024 7.0208 2.9024 2.5408 0 5.0848-.9664 7.0176-2.8992.0288-.0288.048-.064.0736-.0928l20.2624 11.184 3.0912-5.6032-20.6272-11.3856c.0416-.3744.1088-.7424.1088-1.1264h0zm55.9936 121.3824c-1.3312 1.3312-3.6544 1.3312-4.9856-.0032-.6656-.6656-1.0368-1.5488-1.0368-2.4896 0-.944.3712-1.8304 1.0368-2.496.6656-.6656 1.5488-1.0336 2.4928-1.0336.944 0 1.8272.368 2.4928 1.0336h0c.6656.6656 1.0368 1.552 1.0368 2.4928 0 .944-.3712 1.8272-1.0368 2.496h0zm4.5248-9.5168c-.912-.912-1.9968-1.5936-3.1584-2.0608v-10.8608h-6.4v10.464c-1.6608.416-3.232 1.2096-4.4768 2.4576-1.8752 1.8752-2.912 4.368-2.912 7.024 0 1.2.24 2.3552.6464 3.4496l-19.7824 9.9456 2.8736 5.7184 21.12-10.6176c1.5232.912 3.2512 1.4304 5.072 1.4304 2.6528 0 5.1456-1.0336 7.0176-2.9088 1.8752-1.8752 2.912-4.368 2.912-7.0208 0-2.6528-1.0368-5.1424-2.912-7.0176v-.0032zm-136.368 9.7792c-.6656-.6656-1.0336-1.5488-1.0336-2.4928 0-.944.368-1.8272 1.0336-2.496.6656-.6656 1.5488-1.0304 2.4928-1.0304.944 0 1.8304.3648 2.496 1.0304v.0032c.6656.6656 1.0336 1.5488 1.0336 2.4928 0 .944-.368 1.8272-1.0336 2.4928-1.3312 1.3312-3.6576 1.3344-4.9888 0h0zm12.4224-2.4928c0-2.6528-1.0336-5.1456-2.9088-7.0208-1.2032-1.2032-2.7072-1.9776-4.304-2.4096v-10.7776h-6.4v11.0528c-1.232.4704-2.3744 1.1744-3.3344 2.1344-1.8752 1.8752-2.9088 4.368-2.9088 7.0208 0 2.6528 1.0336 5.1456 2.9088 7.0176 1.872 1.8752 4.3648 2.9088 7.0176 2.9088 1.8272 0 3.5616-.5184 5.0848-1.4368l16.4512 8.1696 2.8448-5.7312-15.0912-7.4944c.4032-1.088.64-2.24.64-3.4336h0zm114.3872-33.008h6.4v-16h-6.4v16zm-128 0h6.4v-16h-6.4v16zm69.6064 69.2608c-1.376 1.376-3.6128 1.376-4.9888 0-.6656-.6656-1.0336-1.552-1.0336-2.496 0-.9408.368-1.8272 1.0336-2.4928.688-.688 1.5904-1.0336 2.496-1.0336.9024 0 1.8048.3456 2.4928 1.0336h0c.6656.6656 1.0336 1.552 1.0336 2.4928 0 .944-.368 1.8304-1.0336 2.496h0zm20.432-17.3728-15.8272 7.9552c-.0288-.0288-.048-.0672-.08-.096v-.0032c-1.0848-1.0848-2.368-1.8336-3.7312-2.3104v-22.2336h-6.4v22.1824c-1.424.4704-2.7744 1.232-3.9072 2.3616-.0192.0224-.032.048-.0544.0704l-20.5088-10.1856-2.8448 5.7312 20.6144 10.2368c-.0448.3872-.1152.7712-.1152 1.168 0 2.6528 1.0336 5.1488 2.9088 7.0208 1.936 1.936 4.48 2.9024 7.0208 2.9024 2.5408 0 5.0848-.9664 7.0176-2.8992 1.8752-1.8752 2.9088-4.3712 2.9088-7.024 0-.3808-.0672-.7488-.1088-1.1232l15.9808-8.0352-2.8736-5.7184zM191.184 84.4568c.9024 0 1.8048.3424 2.4928 1.0304h0c.6656.6656 1.0368 1.552 1.0368 2.496 0 .9408-.3712 1.8272-1.0368 2.496-1.3312 1.3312-3.6544 1.3312-4.9856-.0032-.6656-.6656-1.0368-1.552-1.0368-2.4928 0-.944.3712-1.8304 1.0368-2.496.688-.688 1.5904-1.0304 2.4928-1.0304h0zm-25.696 23.4784 20.8128-11.3536c.736.4192 1.52.7424 2.3424.96v11.3248h6.4V97.1288c1.1648-.4928 2.2368-1.2032 3.1584-2.1248 1.8752-1.8752 2.912-4.368 2.912-7.0208 0-2.6528-1.0368-5.1456-2.912-7.0208v-.0032c-3.2608-3.2608-8.24-3.7376-12.0416-1.4976l-16.752-9.2448-3.0912 5.6032 15.6128 8.6176c-.4288 1.1168-.6752 2.3104-.6752 3.5456 0 1.28.256 2.5152.7136 3.6704l-19.5424 10.6624 3.0624 5.6192zm-35.2384 21.5968c-1.3312 1.3312-3.6576 1.3344-4.9888 0-.6656-.6656-1.0336-1.552-1.0336-2.496 0-.9408.368-1.824 1.0336-2.4928.6656-.6656 1.552-1.0336 2.496-1.0336.944 0 1.8272.368 2.4928 1.0336v.0032c.6656.6656 1.0336 1.5488 1.0336 2.4896 0 .944-.368 1.8304-1.0336 2.496h0zm2.4736-11.0112c-3.04-1.7024-6.8992-1.7024-9.936 0l-20.7296-11.3088-3.0624 5.616 19.5104 10.6464c-.432 1.1232-.6784 2.3232-.6784 3.5616 0 2.6528 1.0336 5.1488 2.9088 7.0208 1.1104 1.1136 2.4576 1.888 3.9072 2.3648v23.6448h6.4v-23.696c1.3856-.4864 2.6656-1.2448 3.7312-2.3104 1.8752-1.8752 2.9088-4.3712 2.9088-7.024 0-1.2384-.2464-2.4384-.6784-3.5616l17.2448-9.408-3.0624-5.6192-18.464 10.0736zM61.8336 85.4872c.688-.688 1.5904-1.0304 2.4928-1.0304.9056 0 1.808.3424 2.496 1.0304h0c.6656.6656 1.0336 1.552 1.0336 2.496 0 .9408-.368 1.8272-1.0336 2.496-1.3312 1.3312-3.6576 1.3312-4.9888-.0032-.6656-.6656-1.0336-1.552-1.0336-2.4928 0-.944.368-1.8304 1.0336-2.496h0zM89.9744 68.124 69.36 79.4648c-3.808-2.2464-8.784-1.7696-12.0512 1.4944-1.8752 1.8752-2.9088 4.3712-2.9088 7.024 0 2.6528 1.0336 5.1456 2.9088 7.0208.9664.9664 2.0992 1.6992 3.3344 2.192v11.6704h6.4V97.4872c.7584-.2144 1.4816-.5184 2.1696-.9088L87.76 106.7l3.0624-5.6192-17.28-9.4272c.4608-1.1552.7136-2.3904.7136-3.6704 0-1.232-.2432-2.4256-.672-3.5424l19.472-10.7104-3.0816-5.6064z" fill="#fff"/></svg>