<svg width="256px" height="256px" viewBox="0 0 256 256" xmlns="http://www.w3.org/2000/svg" preserveAspectRatio="xMidYMid"><title>AWS API Gateway</title><defs><linearGradient x1="0%" y1="100%" x2="100%" y2="0%" id="a"><stop stop-color="#b0084d" offset="0%"/><stop stop-color="#ff4f8b" offset="100%"/></linearGradient></defs><path fill="url(#a)" d="M0 0h256v256H0z"/><path d="M109.008 178.023565h9.392v-6.454609h-9.392v6.454609zm15.792 0h9.6v-6.454609h-9.6v6.454609zM86.4 46.8142756l-41.6 20.648294V195.818922l41.6 14.06782V46.8142756zm6.4 40.844765v83.9099154h9.6v6.454609h-9.6v36.349131c0 1.039192-.496 2.013837-1.3312 2.620571-.5504.400185-1.2064.606733-1.8688.606733-.3392 0-.6848-.054864-1.0176-.16782l-48-16.230114c-1.3056-.442141-2.1824-1.674971-2.1824-3.059485V65.4519587c0-1.2263757.6944-2.3527049 1.7888-2.8948921l48-23.8239614c.9888-.4937776 2.1632-.4356861 3.1008.1549106.9376.5873694 1.5104 1.6233342 1.5104 2.7399815V81.204432h9.6v6.4546086h-9.6zm48 90.3645244h9.6v-6.454609h-9.6v6.454609zm.208-90.3645244h9.392V81.204432h-9.392v6.4546086zm-16 0h9.392V81.204432h-9.392v6.4546086zm-16 0h9.392V81.204432h-9.392v6.4546086zM211.2 67.4625696l-41.6-20.648294V209.886742l41.6-14.06782V67.4625696zm6.4 130.6800114c0 1.384514-.8768 2.617344-2.1824 3.059485l-48 16.230114c-.3328.112956-.6784.16782-1.0176.16782-.6624 0-1.3184-.206548-1.8688-.606733-.8352-.606734-1.3312-1.581379-1.3312-2.620571v-36.349131h-6.192v-6.454609h6.192V87.6590406h-6.192V81.204432h6.192V41.6279973c0-1.1166473.5728-2.1526121 1.5104-2.7399815.9376-.5905967 2.1088-.6486882 3.1008-.1549106l48 23.8239614c1.0944.5421872 1.7888 1.6685164 1.7888 2.8948921V198.142581zm-80.2112-89.961111-5.9776-2.317205-16 41.954958 5.9776 2.317205 16-41.954958zm21.6736 20.486928c1.2512-1.261875 1.2512-3.304759 0-4.563408l-12.8-12.909218-4.5248 4.563409 10.5376 10.627513-10.5376 10.627514 4.5248 4.563408 12.8-12.909218zm-49.3248 12.909218-12.8-12.909218c-1.2512-1.261875-1.2512-3.304759 0-4.563408l12.8-12.909218 4.5248 4.563409-10.5376 10.627513 10.5376 10.627514-4.5248 4.563408z" fill="#fff"/></svg>