<svg width="256px" height="256px" viewBox="0 0 256 256" xmlns="http://www.w3.org/2000/svg" preserveAspectRatio="xMidYMid"><title>AWS AppFlow</title><defs><linearGradient x1="0%" y1="100%" x2="100%" y2="0%" id="a"><stop stop-color="#b0084d"/><stop stop-color="#ff4f8b" offset="1"/></linearGradient></defs><path fill="url(#a)" d="M0 0h256v256H0z"/><path d="M133.3024 60.8l-50.2208 84.4384L79.76 132.848l-6.1792 1.6576 6.2528 23.3408 23.3408-6.256-1.6544-6.1792-13.2 3.5328 48.6208-81.7408h48.048L209.008 108.8l-24.0192 41.6h-25.1072v6.4032h28.8L216.3968 108.8l-27.7152-48h-55.3792zm15.6288 43.6096 1.6576 6.1824 13.3536-3.5808-46.1344 81.792h-48L45.7888 147.2l24.0192-41.6h19.6768v-6.3968H66.1152L38.4 147.2l27.7152 48h55.4304l47.5328-84.2592 3.2704 12.2112 6.1824-1.6576-6.256-23.3376-23.344 6.2528z" fill="#fff"/></svg>