<svg width="256" height="256" xmlns="http://www.w3.org/2000/svg" preserveAspectRatio="xMidYMid"><defs><linearGradient x1="0%" y1="100%" x2="100%" y2="0%" id="a"><stop stop-color="#B0084D" offset="0%"/><stop stop-color="#FF4F8B" offset="100%"/></linearGradient></defs><path fill="url(#a)" d="M0 0h256v256H0z"/><path d="M128 76.16c7.411 0 13.44 6.029 13.44 13.44s-6.029 13.44-13.44 13.44-13.44-6.029-13.44-13.44 6.029-13.44 13.44-13.44zm0 33.28c10.94 0 19.84-8.9 19.84-19.84s-8.9-19.84-19.84-19.84-19.84 8.9-19.84 19.84 8.9 19.84 19.84 19.84zM89.6 84.72l3.53.202c1.443.076 2.953-.96 3.302-2.487a32.081 32.081 0 014.182-10.08 3.201 3.201 0 00-.572-4.096l-2.644-2.361 6.903-6.9 2.355 2.64a3.202 3.202 0 004.093.576 32.147 32.147 0 0110.083-4.172 3.199 3.199 0 002.486-3.303l-.198-3.539h9.76l-.198 3.546a3.201 3.201 0 002.486 3.302 32.045 32.045 0 0110.074 4.176 3.207 3.207 0 004.096-.58l2.361-2.646 6.903 6.9-2.637 2.355a3.202 3.202 0 00-.573 4.096 32.073 32.073 0 014.18 10.083c.348 1.526 1.826 2.566 3.302 2.49l3.526-.202v9.76l-3.523-.202c-1.479-.076-2.954.964-3.303 2.493a32.056 32.056 0 01-4.176 10.09 3.201 3.201 0 00.573 4.096l2.63 2.345-6.899 6.903-2.332-2.618a3.204 3.204 0 00-4.1-.576 32.085 32.085 0 01-10.102 4.186 3.202 3.202 0 00-2.486 3.305l.198 3.498h-9.76l.198-3.504a3.201 3.201 0 00-2.486-3.302 32.15 32.15 0 01-10.096-4.19 3.19 3.19 0 00-4.096.577l-2.342 2.624-6.9-6.903 2.624-2.339a3.206 3.206 0 00.576-4.096 31.87 31.87 0 01-4.179-10.096c-.345-1.53-1.82-2.576-3.302-2.493l-3.517.202v-9.76zm-3.018 16.342l4.285-.243a38.502 38.502 0 002.941 7.107l-3.203 2.855a3.214 3.214 0 00-1.069 2.3c-.022.88.317 1.732.938 2.353l11.696 11.692c.62.624 1.468.99 2.352.935a3.195 3.195 0 002.297-1.069l2.855-3.2a38.722 38.722 0 007.107 2.95l-.243 4.276a3.195 3.195 0 003.193 3.382h16.538a3.2 3.2 0 003.193-3.382l-.243-4.272a38.456 38.456 0 007.114-2.948l2.848 3.194a3.207 3.207 0 002.297 1.069c.82.064 1.735-.31 2.352-.935l11.696-11.692c.621-.621.96-1.472.938-2.352a3.201 3.201 0 00-1.069-2.298l-3.21-2.864a38.534 38.534 0 002.941-7.1l4.292.242c.88.042 1.74-.262 2.38-.867a3.2 3.2 0 001.002-2.326V81.334a3.2 3.2 0 00-1.002-2.326 3.176 3.176 0 00-2.38-.87l-4.298.246a38.475 38.475 0 00-2.94-7.094l3.215-2.87a3.201 3.201 0 001.069-2.298 3.212 3.212 0 00-.938-2.352L153.83 52.077a3.111 3.111 0 00-2.352-.935c-.88.023-1.712.41-2.297 1.07l-2.877 3.225a38.558 38.558 0 00-7.085-2.938l.243-4.317a3.183 3.183 0 00-.867-2.377 3.19 3.19 0 00-2.326-1.005H119.73a3.19 3.19 0 00-2.326 1.005 3.183 3.183 0 00-.867 2.377l.243 4.31a38.736 38.736 0 00-7.091 2.935l-2.87-3.219a3.197 3.197 0 00-2.298-1.066 3.181 3.181 0 00-2.352.935L90.474 63.77c-.621.62-.96 1.472-.938 2.352.026.88.413 1.712 1.069 2.297l3.222 2.874a38.42 38.42 0 00-2.944 7.091l-4.3-.246a3.159 3.159 0 00-2.381.87 3.2 3.2 0 00-1.002 2.326V97.87a3.2 3.2 0 001.002 2.326c.64.605 1.497.912 2.38.867zM179.2 208h19.2v-32h-19.2v32zm-60.8 0h19.2v-32h-19.2v32zm-60.8 0h19.2v-32H57.6v32zm144-38.4H192v-16a3.2 3.2 0 00-3.2-3.2h-57.6v-9.6h-6.4v9.6H67.2a3.2 3.2 0 00-3.2 3.2v16h-9.6a3.2 3.2 0 00-3.2 3.2v38.4a3.2 3.2 0 003.2 3.2H80a3.2 3.2 0 003.2-3.2v-38.4a3.2 3.2 0 00-3.2-3.2h-9.6v-12.8h54.4v12.8h-9.6a3.2 3.2 0 00-3.2 3.2v38.4a3.2 3.2 0 003.2 3.2h25.6a3.2 3.2 0 003.2-3.2v-38.4a3.2 3.2 0 00-3.2-3.2h-9.6v-12.8h54.4v12.8H176a3.2 3.2 0 00-3.2 3.2v38.4a3.2 3.2 0 003.2 3.2h25.6a3.2 3.2 0 003.2-3.2v-38.4a3.2 3.2 0 00-3.2-3.2z" fill="#FFF"/></svg>