<svg width="256px" height="256px" viewBox="0 0 256 256" xmlns="http://www.w3.org/2000/svg" preserveAspectRatio="xMidYMid"><title>AWS MQ</title><defs><linearGradient x1="0%" y1="100%" x2="100%" y2="0%" id="a"><stop stop-color="#b0084d"/><stop stop-color="#ff4f8b" offset="1"/></linearGradient></defs><path fill="url(#a)" d="M0 0h256v256H0z"/><path d="M64.4384 165.1296c-3.1328-5.3536-5.5776-11.0944-7.2672-17.056l6.1568-1.744c1.5424 5.4432 3.7728 10.6784 6.6368 15.568l-5.5264 3.232zm-1.1104-55.456-6.1568-1.744c1.6544-5.84 4.0352-11.4688 7.0784-16.7328l5.5392 3.2064c-2.7776 4.8-4.9504 9.9392-6.4608 15.2704h0zm37.1808-43.0112-2.6176-5.8368C107.3824 56.5632 117.5136 54.4 128 54.4c10.4896 0 20.6208 2.1632 30.1088 6.4256l-2.6176 5.8368C146.8288 62.7744 137.5776 60.8 128 60.8c-9.5776 0-18.8288 1.9744-27.4912 5.8624h0zm91.2416 24.5344c3.0432 5.264 5.424 10.8928 7.0784 16.7328l-6.1568 1.744c-1.5072-5.3312-3.68-10.4704-6.4576-15.2704l5.536-3.2064zm.9216 55.1328 6.1568 1.744c-1.6544 5.84-4.0352 11.4688-7.0784 16.7296l-5.536-3.2064c2.7776-4.8 4.9504-9.936 6.4576-15.2672h0zm-37.1808 43.0112 2.6176 5.8368C148.6208 199.44 138.4896 201.6 128 201.6c-10.4864 0-20.6176-2.16-30.1088-6.4224l2.6176-5.8368c8.6624 3.888 17.9136 5.8592 27.4912 5.8592 9.5776 0 18.8288-1.9712 27.4912-5.8592h0zM80 188.8c-5.2928 0-9.6-4.304-9.6-9.6 0-5.2928 4.3072-9.6 9.6-9.6 5.296 0 9.6 4.3072 9.6 9.6 0 5.296-4.304 9.6-9.6 9.6h0zm0-25.6c-8.8224 0-16 7.1808-16 16 0 8.8224 7.1776 16 16 16 8.8224 0 16-7.1776 16-16 0-8.8192-7.1776-16-16-16h0zm96 25.6c-5.2928 0-9.6-4.304-9.6-9.6 0-5.2928 4.3072-9.6 9.6-9.6 5.296 0 9.6 4.3072 9.6 9.6 0 5.296-4.304 9.6-9.6 9.6h0zm0-25.6c-8.8224 0-16 7.1808-16 16 0 8.8224 7.1776 16 16 16 8.8224 0 16-7.1776 16-16 0-8.8192-7.1776-16-16-16h0zM51.2 128c0-5.2928 4.3072-9.6 9.6-9.6 5.296 0 9.6 4.3072 9.6 9.6 0 5.296-4.304 9.6-9.6 9.6-5.2928 0-9.6-4.304-9.6-9.6h0zm25.2768 3.2h15.024l-4.1568 4.1312 4.512 4.5376 9.6-9.5424c.6048-.5984.9408-1.4112.944023-2.2624.003177-.848-.329623-1.664-.931223-2.2656l-9.6-9.6544-4.5376 4.5152 4.1184 4.1408H76.4768C74.992 117.5072 68.5248 112 60.8 112c-8.8224 0-16 7.1808-16 16 0 8.8224 7.1776 16 16 16 7.7248 0 14.192-5.504 15.6768-12.8h0zM198.4 137.6c-5.2928 0-9.6-4.304-9.6-9.6 0-5.2928 4.3072-9.6 9.6-9.6 5.296 0 9.6 4.3072 9.6 9.6 0 5.296-4.304 9.6-9.6 9.6h0zm0-25.6c-8.8224 0-16 7.1808-16 16 0 8.8224 7.1776 16 16 16 8.8224 0 16-7.1776 16-16 0-8.8192-7.1776-16-16-16h0zM80 67.2c5.296 0 9.6 4.3072 9.6 9.6 0 5.296-4.304 9.6-9.6 9.6-5.2928 0-9.6-4.304-9.6-9.6 0-5.2928 4.3072-9.6 9.6-9.6h0zm0 25.6c8.8224 0 16-7.1776 16-16 0-8.8192-7.1776-16-16-16-8.8224 0-16 7.1808-16 16 0 8.8224 7.1776 16 16 16h0zm96-25.6c5.296 0 9.6 4.3072 9.6 9.6 0 5.296-4.304 9.6-9.6 9.6-5.2928 0-9.6-4.304-9.6-9.6 0-5.2928 4.3072-9.6 9.6-9.6h0zm0 25.6c8.8224 0 16-7.1776 16-16 0-8.8192-7.1776-16-16-16-8.8224 0-16 7.1808-16 16 0 8.8224 7.1776 16 16 16h0zm-14.72 42.2432 5.1168-3.8432H153.6v-6.4h12.8l-5.1168-3.8368 3.8368-5.1232 12.8 9.5968c.8064.6048 1.28 1.552 1.28 2.56 0 1.0048-.4736 1.9552-1.2768 2.56l-12.8 9.6032-3.8432-5.1168zm-14.544 11.7344c-5.7568-2.2272-12.2464-3.3408-18.736-3.3408-6.4864 0-12.976 1.1136-18.7328 3.3408 2.1792-5.5776 3.3504-11.984 3.3504-18.7776 0-6.7904-1.1712-13.1968-3.3504-18.7744 11.5104 4.4544 25.9552 4.4544 37.4688 0-2.1824 5.5776-3.3504 11.984-3.3504 18.7744 0 6.7936 1.168 13.2 3.3504 18.7776h0zm12.3264 7.76c-5.808-5.808-9.2768-15.728-9.2768-26.5376 0-10.8064 3.4688-20.7264 9.2768-26.5376.6272-.624.9376-1.4432.9376-2.2624 0-.816-.3104-1.6352-.9376-2.2624-1.248-1.248-3.2736-1.248-4.5248 0-12.4 12.4-40.6752 12.4-53.0752 0-1.248-1.248-3.2736-1.248-4.5248 0C96.3136 97.5648 96 98.384 96 99.2c0 .8192.3136 1.6384.9376 2.2624 5.8112 5.8112 9.28 15.7312 9.28 26.5376 0 10.8096-3.4688 20.7296-9.28 26.5376-.624.6272-.9376 1.4464-.9376 2.2624 0 .8192.3136 1.6384.9376 2.2624 1.2512 1.2512 3.2768 1.2512 4.5248 0 12.4-12.4 40.6752-12.4 53.0752 0 .6272.6272 1.4432.9376 2.2624.9376.8192 0 1.6384-.3104 2.2624-.9376.6272-.624.9376-1.4432.9376-2.2624 0-.816-.3104-1.6352-.9376-2.2624h0z" fill="#fff"/></svg>