<svg width="256px" height="256px" viewBox="0 0 256 256" xmlns="http://www.w3.org/2000/svg" preserveAspectRatio="xMidYMid"><title>AWS Elastic Beanstalk</title><defs><linearGradient x1="0%" y1="100%" x2="100%" y2="0%" id="a"><stop stop-color="#c8511b" offset="0%"/><stop stop-color="#f90" offset="100%"/></linearGradient></defs><path fill="url(#a)" d="M0 0h256v256H0z"/><path d="M161.557792 147.073673c0-5.304408-4.301519-9.621055-9.587338-9.621055-5.285818 0-9.587338 4.316647-9.587338 9.621055 0 5.304408 4.30152 9.621054 9.587338 9.621054 5.285819 0 9.587338-4.316646 9.587338-9.621054m-35.153571-32.070182c5.285819 0 9.587337-4.316647 9.587337-9.621055 0-5.304408-4.301518-9.6210539-9.587337-9.6210539-5.285819 0-9.587337 4.3166459-9.587337 9.6210539 0 5.304408 4.301518 9.621055 9.587337 9.621055m-28.7620127 35.2772c5.2858187 0 9.5873377-4.316647 9.5873377-9.621055 0-5.304408-4.301519-9.621054-9.5873377-9.621054-5.2858185 0-9.5873373 4.316646-9.5873373 9.621054 0 5.304408 4.3015188 9.621055 9.5873373 9.621055m70.3071417-3.207018c0 7.744949-5.499936 14.219918-12.783117 15.711182v19.566018c0 1.770274-1.428513 3.207018-3.195779 3.207018H129.6V204.8h-6.391558v-35.2772H97.6422083c-1.7672659 0-3.1957792-1.436744-3.1957792-3.207018v-9.944963c-7.2831805-1.491264-12.7831165-7.966234-12.7831165-15.711183 0-8.841749 7.1681325-16.03509 15.9788957-16.03509 8.8107637 0 15.9788957 7.193341 15.9788957 16.03509 0 7.744949-5.499936 14.219919-12.783116 15.711183v6.737945h22.370454v-42.015145c-7.283181-1.491264-12.783117-7.966233-12.783117-15.711183 0-8.8417486 7.168133-16.0350904 15.978896-16.0350904 8.810763 0 15.978895 7.1933418 15.978895 16.0350904 0 7.74495-5.499935 14.219919-12.783116 15.711183v58.050236h19.174675v-16.359c-7.283181-1.491264-12.783117-7.966233-12.783117-15.711182 0-8.841749 7.168133-16.035091 15.978896-16.035091 8.810763 0 15.978896 7.193342 15.978896 16.035091M214.4 131.237417c0 23.497822-17.458541 31.871347-33.795364 31.871347v-6.414037c8.238718 0 27.403806-2.482232 27.403806-25.45731 0-17.189617-13.025996-23.420853-23.952365-25.620868-1.425318-.285425-2.476729-1.500885-2.563015-2.953664-.792553-13.4630623-8.609429-18.2415192-15.068099-18.2415192-4.365434 0-8.459227 2.0877689-11.229968 5.7309414-.706267.9332422-1.86953 1.407881-3.020011 1.228288-1.150481-.1731789-2.118802-.9653123-2.52147-2.0653197-2.502295-6.8213277-6.09435-12.5362339-10.680294-16.9875753-11.782838-11.46509-27.899152-14.5758976-43.117452-8.3125911-12.636111 5.1632992-22.5302432 20.091969-22.5302432 33.9879786 0 1.5361619.0926774 3.0787373.2812285 4.5860363.1981382 1.61313-.8340983 3.120428-2.4032259 3.508478-7.4749274 1.856863-20.011969 7.558941-20.011969 24.899289 0 .657439.0287619 1.286014.0607197 1.879313.7478125 13.350816 12.5338457 23.818523 26.8349577 23.818523h3.5760768v6.414037h-3.5760768c-17.6886377 0-32.2805654-13.126326-33.2169286-29.882996-.0351536-.711958-.0703072-1.452779-.0703072-2.228877 0-20.149695 13.9240099-27.676567 22.2106653-30.364048-.0543283-.8755163-.0766989-1.7542392-.0766989-2.6297553 0-16.589905 11.3961485-33.7538663 26.5089882-39.9241693 17.6279174-7.2510682 36.3136384-3.6527936 49.9755944 9.6402966 4.20245 4.0761204 7.666674 9.0373773 10.33515 14.790768 3.601643-2.9023516 8.021406-4.5026537 12.671264-4.5026537 9.469094 0 19.42075 6.7796365 21.232757 21.8430009C204.927711 104.07718 214.4 115.151014 214.4 131.237417" fill="#fff"/></svg>