<svg width="256px" height="256px" viewBox="0 0 256 256" xmlns="http://www.w3.org/2000/svg" preserveAspectRatio="xMidYMid"><title>AWS Neptune</title><defs><linearGradient x1="0%" y1="100%" x2="100%" y2="0%" id="a"><stop stop-color="#2e27ad" offset="0%"/><stop stop-color="#527fff" offset="100%"/></linearGradient></defs><path fill="url(#a)" d="M0 0h256v256H0z"/><path d="M208 185.6c-1.7664 0-3.2-1.4368-3.2-3.2 0-1.7632 1.4336-3.2 3.2-3.2 1.7664 0 3.2 1.4368 3.2 3.2 0 1.7632-1.4336 3.2-3.2 3.2h0zm-30.4 25.6c-4.4128 0-8-3.5904-8-8 0-4.4096 3.5872-8 8-8 4.4128 0 8 3.5904 8 8 0 4.4096-3.5872 8-8 8h0zm-14.4-56c0-6.176 5.024-11.2 11.2-11.2 6.176 0 11.2 5.024 11.2 11.2 0 6.176-5.024 11.2-11.2 11.2-6.176 0-11.2-5.024-11.2-11.2h0zM144 128c-1.7664 0-3.2-1.4368-3.2-3.2 0-1.7632 1.4336-3.2 3.2-3.2 1.7664 0 3.2 1.4368 3.2 3.2 0 1.7632-1.4336 3.2-3.2 3.2h0zm-9.6 44.8c-3.5296 0-6.4-2.8704-6.4-6.4 0-3.5296 2.8704-6.4 6.4-6.4 3.5296 0 6.4 2.8704 6.4 6.4 0 3.5296-2.8704 6.4-6.4 6.4h0zm67.2-67.2c3.5296 0 6.4 2.8704 6.4 6.4 0 3.5296-2.8704 6.4-6.4 6.4-3.5296 0-6.4-2.8704-6.4-6.4 0-3.5296 2.8704-6.4 6.4-6.4h0zm6.4 67.2c-5.2928 0-9.6 4.3072-9.6 9.6 0 1.4272.3328 2.768.8928 3.9872l-11.216 7.0016c-2.1024-2.2464-4.896-3.8048-8.0544-4.3424l-.7616-16.944C186.6048 169.9872 192 163.216 192 155.2c0-4.7104-1.872-8.9856-4.896-12.1472l11.152-18.752c1.072.2944 2.1824.4992 3.344.4992 7.0592 0 12.8-5.7408 12.8-12.8 0-7.0592-5.7408-12.8-12.8-12.8-7.0592 0-12.8 5.7408-12.8 12.8 0 3.5904 1.4944 6.8256 3.8816 9.152l-10.7904 18.1472c-2.2752-1.0784-4.8096-1.6992-7.4912-1.6992-3.6864 0-7.1104 1.1456-9.9392 3.0912l-11.7152-11.9776c.5376-1.1968.8544-2.5152.8544-3.9136 0-5.2928-4.3072-9.6-9.6-9.6-5.2928 0-9.6 4.3072-9.6 9.6 0 5.2928 4.3072 9.6 9.6 9.6 1.5552 0 3.0048-.4064 4.3104-1.0688l11.616 11.8784c-1.968 2.8416-3.1264 6.2816-3.1264 9.9904 0 .6528.0416 1.296.112 1.9296l-11.7248 2.4384c-2.2752-3.5744-6.2432-5.968-10.7872-5.968-7.0592 0-12.8 5.7408-12.8 12.8 0 7.0592 5.7408 12.8 12.8 12.8 7.0592 0 12.8-5.7408 12.8-12.8 0-.24-.0576-.464-.0672-.6976l11.648-2.4256c2.7136 5.2224 7.9552 8.9184 14.0992 9.4464l.752 16.7008c-6.0032 1.7376-10.432 7.2224-10.432 13.776 0 7.9392 6.4608 14.4 14.4 14.4 7.9392 0 14.4-6.4608 14.4-14.4 0-1.4944-.2944-2.912-.72-4.2688l12.6304-7.8816c1.2416.592 2.6208.9504 4.0896.9504 5.2928 0 9.6-4.3072 9.6-9.6 0-5.2928-4.3072-9.6-9.6-9.6h0zM100.8 48c31.1168 0 52.8 10.1184 52.8 19.2 0 9.0816-21.6832 19.2-52.8 19.2C69.6832 86.4 48 76.2816 48 67.2 48 58.1184 69.6832 48 100.8 48h0zm52.8 144.064c0 8.8064-21.6832 18.624-52.8 18.624-31.1168 0-52.8-9.8176-52.8-18.624v-26.368c9.4624 8.0704 28.5984 13.3568 51.7344 13.3568 5.4496 0 10.9568-.304 16.3584-.9024l-.704-6.3616c-5.1712.5728-10.4384.864-15.6544.864-30.9472 0-51.7344-9.712-51.7344-18.7776v-31.3568c9.4624 8.0704 28.5984 13.3536 51.7344 13.3536 11.088 0 21.8528-1.2288 31.1296-3.5584l-1.5584-6.2048c-8.7744 2.2016-18.9984 3.3632-29.5712 3.3632C68.7872 129.472 48 119.7632 48 110.6944v-31.584C57.5904 87.376 77.1328 92.8 100.8 92.8c23.6672 0 43.2096-5.424 52.8-13.6896V115.2h6.4v-48c0-14.5952-25.4496-25.6-59.2-25.6-33.7504 0-59.2 11.0048-59.2 25.6v124.864c0 14.2656 25.4496 25.024 59.2 25.024 33.7504 0 59.2-10.7584 59.2-25.024V176h-6.4v16.064z" fill="#fff"/></svg>