<svg width="256px" height="256px" viewBox="0 0 256 256" xmlns="http://www.w3.org/2000/svg" preserveAspectRatio="xMidYMid"><title>AWS Identity and Access Management (IAM)</title><defs><linearGradient x1="0%" y1="100%" x2="100%" y2="0%" id="a"><stop stop-color="#bd0816" offset="0%"/><stop stop-color="#ff5252" offset="100%"/></linearGradient></defs><path fill="url(#a)" d="M0 0h256v256H0z"/><path d="M44.8 188.8h166.4V67.2H44.8v121.6zM217.6 64v128c0 1.7664-1.4304 3.2-3.2 3.2H41.6c-1.7696 0-3.2-1.4336-3.2-3.2V64c0-1.7664 1.4304-3.2 3.2-3.2h172.8c1.7696 0 3.2 1.4336 3.2 3.2h0zm-76.8 89.6h48v-6.4h-48v6.4zm41.6-19.2h16V128h-16v6.4zm-41.6 0h25.6V128h-25.6v6.4zm-48 12.8c0-1.7632-1.4336-3.2-3.2-3.2-1.7664 0-3.2 1.4368-3.2 3.2 0 1.7632 1.4336 3.2 3.2 3.2 1.7664 0 3.2-1.4368 3.2-3.2h0zm6.4 0c0 4.1664-2.6848 7.6832-6.4 9.0112V163.2h-6.4v-6.992c-3.7152-1.3248-6.4-4.8416-6.4-9.008 0-5.2928 4.3072-9.6 9.6-9.6 5.2928 0 9.6 4.3072 9.6 9.6h0zm-38.4 25.5776 57.5808.0224.0064-12.8H105.6v-6.4h12.7872l.0064-9.6H105.6v-6.4h12.7968l.0032-9.5776L60.8192 128 60.8 172.7776zm9.6-51.1744 38.400001.016V99.2C108.8032 91.8304 99.8304 85.3664 89.6 85.36h-.0128c-10.2144 0-19.1744 6.4672-19.1808 13.84L70.4 121.6032zm-16 54.3712.0192-51.1744c0-.8512.336-1.664.9376-2.2656.5984-.5984 1.4144-.9344 2.2624-.9344l6.3808.0032.0064-22.4032c.0064-11.1616 11.4816-20.24 25.5808-20.24H89.6c14.1184.0064 25.6032 9.088 25.6 20.24v22.4224l6.4.0032c1.7696 0 3.2 1.4336 3.2 3.2L124.7808 176c0 .8512-.336 1.664-.9376 2.2656-.5984.5984-1.4144.9344-2.2624.9344L57.6 179.1744c-1.7696 0-3.2-1.4336-3.2-3.2h0zM192 115.2h6.4v-6.4H192v6.4zm-51.2 0H176v-6.4h-35.2v6.4z" fill="#fff"/></svg>