<svg width="256px" height="256px" viewBox="0 0 256 256" xmlns="http://www.w3.org/2000/svg" preserveAspectRatio="xMidYMid"><title>AWS Simple Notification Service (SNS)</title><defs><linearGradient x1="0%" y1="100%" x2="100%" y2="0%" id="a"><stop stop-color="#b0084d" offset="0%"/><stop stop-color="#ff4f8b" offset="100%"/></linearGradient></defs><path fill="url(#a)" d="M0 0h256v256H0z"/><path d="M54.4 121.6c3.5296 0 6.4 2.8704 6.4 6.4 0 3.5296-2.8704 6.4-6.4 6.4-3.5296 0-6.4-2.8704-6.4-6.4 0-3.5296 2.8704-6.4 6.4-6.4h0zm76.8 83.2c-37.3952 0-69.4752-27.3088-76.1792-64.064 5.6672-.2752 10.3456-4.2272 11.7216-9.536H86.4v-6.4H66.7424c-1.376-5.3056-6.0512-9.2576-11.7184-9.536C61.712 79.072 94.4352 51.2 131.2 51.2c13.8016 0 28.2624 5.1904 42.9728 15.4272l3.6544-5.2544C162.0256 50.3776 146.336 44.8 131.2 44.8c-40.736 0-76.9632 31.568-82.9984 72.0672C44.2848 119.0624 41.6 123.2 41.6 128c0 4.8 2.6848 8.9376 6.6016 11.1296C54.304 180.2912 89.7792 211.2 131.2 211.2c17.3024 0 35.0144-5.8976 49.872-16.6048l-3.744-5.1904C163.552 199.3344 147.1712 204.8 131.2 204.8h0zm-34.8768-88.1856C102.256 118.064 109.68 118.4 115.2 118.4c5.2544 0 12.2336-.304 18.0128-1.5808l-14.4768 28.9504c-.2208.4416-.336.9344-.336 1.4304v14.2496c-2.5632 1.6352-6.9344 4.3488-9.6 4.9056V147.2c0-.4224-.0832-.8416-.2464-1.232l-12.2304-29.3536zM115.2 105.6c12.88 0 19.7568 1.9328 21.8912 3.2-2.1344 1.2672-9.0112 3.2-21.8912 3.2-12.88 0-19.7568-1.9328-21.8912-3.2 2.1344-1.2672 9.0112-3.2 21.8912-3.2h0zm-9.6 67.2h3.2c.1376 0 .2752-.0096.4096-.0256 3.9168-.5088 8.8992-3.536 13.2608-6.3328l.8416-.5376c.9248-.5888 1.488-1.6096 1.488-2.704v-15.2448l17.7888-35.5712c.8768-1.0208 1.4112-2.1952 1.4112-3.584 0-8.352-18.0448-9.6-28.8-9.6-10.7552 0-28.8 1.248-28.8 9.6 0 1.1712.384 2.1888 1.024 3.0944L102.4 147.84v21.76c0 1.7664 1.4304 3.2 3.2 3.2h0zm92.8-3.2c3.5296 0 6.4 2.8704 6.4 6.4 0 3.5296-2.8704 6.4-6.4 6.4-3.5296 0-6.4-2.8704-6.4-6.4 0-3.5296 2.8704-6.4 6.4-6.4h0zm0-96c3.5296 0 6.4 2.8704 6.4 6.4 0 3.5296-2.8704 6.4-6.4 6.4-3.5296 0-6.4-2.8704-6.4-6.4 0-3.5296 2.8704-6.4 6.4-6.4h0zm6.4 48c3.5296 0 6.4 2.8704 6.4 6.4 0 3.5296-2.8704 6.4-6.4 6.4-3.5296 0-6.4-2.8704-6.4-6.4 0-3.5296 2.8704-6.4 6.4-6.4h0zm-32 9.6h19.6576c1.4272 5.504 6.3968 9.6 12.3424 9.6 7.0592 0 12.8-5.7408 12.8-12.8 0-7.0592-5.7408-12.8-12.8-12.8-5.9456 0-10.9152 4.096-12.3424 9.6H172.8V83.2h13.2576c1.4272 5.504 6.3968 9.6 12.3424 9.6 7.0592 0 12.8-5.7408 12.8-12.8 0-7.0592-5.7408-12.8-12.8-12.8-5.9456 0-10.9152 4.096-12.3424 9.6H169.6c-1.7696 0-3.2 1.4336-3.2 3.2v44.8H144v6.4h22.4V176c0 1.7664 1.4304 3.2 3.2 3.2h16.4576c1.4272 5.504 6.3968 9.6 12.3424 9.6 7.0592 0 12.8-5.7408 12.8-12.8 0-7.0592-5.7408-12.8-12.8-12.8-5.9456 0-10.9152 4.096-12.3424 9.6H172.8v-41.6z" fill="#fff"/></svg>