<svg width="256px" height="256px" viewBox="0 0 256 256" xmlns="http://www.w3.org/2000/svg" preserveAspectRatio="xMidYMid"><title>AWS Kinesis</title><defs><linearGradient x1="0%" y1="100%" x2="100%" y2="0%" id="a"><stop stop-color="#4d27a8"/><stop stop-color="#a166ff" offset="1"/></linearGradient></defs><path fill="url(#a)" d="M0 0h256v256H0z"/><path d="M60.8 198.4h6.4c0-26.8992 17.488-54.4 147.2-54.4v-6.4c-135.3504 0-153.6 30.7328-153.6 60.8M80 217.6h6.4c0-24.2112 0-60.8 128-60.8v-6.4c-58.6784 0-96.8704 7.5488-116.768 23.0784C80 187.2384 80 204.7872 80 217.6M48 83.2h-6.4c0 23.6672 32.1248 38.656 95.6576 44.8C73.7248 134.144 41.6 149.1328 41.6 172.8H48c0-15.536 21.6192-41.6 166.4-41.6v-6.4C69.6192 124.8 48 98.736 48 83.2m19.2-25.6h-6.4c0 30.0672 18.2496 60.8 153.6 60.8V112C84.688 112 67.2 84.4992 67.2 57.6m147.2 41.6v6.4c-58.6784 0-96.8704-7.5488-116.768-23.0784C80 68.7616 80 51.2128 80 38.4h6.4c0 24.2112 0 60.8 128 60.8" fill="#fff"/></svg>