<svg width="256px" height="256px" viewBox="0 0 256 256" xmlns="http://www.w3.org/2000/svg" preserveAspectRatio="xMidYMid"><title>AWS Simple Email Service (SES)</title><defs><linearGradient x1="0%" y1="100%" x2="100%" y2="0%" id="a"><stop stop-color="#bd0816" offset="0%"/><stop stop-color="#ff5252" offset="100%"/></linearGradient></defs><path fill="url(#a)" d="M0 0h256v256H0z"/><path d="M182.4 195.1996c0-5.203293-4.3968-9.600172-9.6-9.600172-5.2032 0-9.6 4.396879-9.6 9.600172 0 5.203293 4.3968 9.600172 9.6 9.600172 5.2032 0 9.6-4.396879 9.6-9.600172h0zm-54.4-3.200057c-5.2032 0-9.6 4.396878-9.6 9.600171 0 5.203293 4.3968 9.600172 9.6 9.600172 5.2032 0 9.6-4.396879 9.6-9.600172 0-5.203293-4.3968-9.600171-9.6-9.600171h0zm-44.8-6.400115c-5.2032 0-9.6 4.396879-9.6 9.600172 0 5.203293 4.3968 9.600172 9.6 9.600172 5.2032 0 9.6-4.396879 9.6-9.600172 0-5.203293-4.3968-9.600172-9.6-9.600172h0zm8.336-48.000856h72.928l-24.4992-22.045194-9.888 8.473751c-.5952.515209-1.3408.771214-2.08.771214-.7392 0-1.4848-.256005-2.08-.771214l-9.8848-8.473751-24.496 22.045194zM86.4 90.1545242V133.6145l24.7328-22.259597L86.4 90.1545242zm77.7504-3.7568672H91.8496l36.1472 30.986154 36.1536-30.986154zM169.6 133.6145V90.1545242l-24.7328 21.1971788L169.6 133.6145zm19.2 61.5851c0 8.672155-7.328 16.000286-16 16.000286-8.672 0-16-7.328131-16-16.000286 0-7.580935 5.6-14.131452 12.8-15.66108v-9.939377h-38.4v16.339492c7.2 1.529627 12.8 8.080144 12.8 15.661079C144 210.271869 136.672 217.6 128 217.6c-8.672 0-16-7.328131-16-16.000286 0-7.580935 5.6-14.131452 12.8-15.661079v-16.339492H86.4v9.939377c7.2 1.529628 12.8 8.080145 12.8 15.66108 0 8.672155-7.328 16.000286-16 16.000286-8.672 0-16-7.328131-16-16.000286 0-7.580935 5.6-14.131452 12.8-15.66108v-13.139434c0-1.766432 1.4304-3.200058 3.2-3.200058h41.6v-19.200342H83.2c-1.7696 0-3.2-1.433626-3.2-3.200058V83.1976c0-1.7664317 1.4304-3.2000573 3.2-3.2000573h89.6c1.7696 0 3.2 1.4336256 3.2 3.2000573v57.601028c0 1.766432-1.4304 3.200058-3.2 3.200058h-41.6v19.200342h41.6c1.7696 0 3.2 1.433626 3.2 3.200058v13.139434c7.2 1.529628 12.8 8.080145 12.8 15.66108h0zm28.8-67.2012c0 18.902738-5.8336 36.99266-16.8736 52.304934l-5.1936-3.744067C205.7824 162.341413 211.2 145.550713 211.2 127.9984c0-45.8728192-37.3216-83.1982858-83.1968-83.1982858-45.8784 0-83.2032 37.3254666-83.2032 83.1982858 0 17.552313 5.4176 34.343013 15.6672 48.560867l-5.1936 3.744067C44.2336 164.99106 38.4 146.901138 38.4 127.9984 38.4 78.5959178 78.5952 38.4 127.9968 38.4c49.4048 0 89.6032 40.1959178 89.6032 89.5984h0z" fill="#fff"/></svg>