<svg width="256px" height="256px" viewBox="0 0 256 256" xmlns="http://www.w3.org/2000/svg" preserveAspectRatio="xMidYMid"><title>AWS AppSync</title><defs><linearGradient x1="0%" y1="100%" x2="100%" y2="0%" id="a"><stop stop-color="#b0084d" offset="0%"/><stop stop-color="#ff4f8b" offset="100%"/></linearGradient></defs><path fill="url(#a)" d="M0 0h256v256H0z"/><path d="M212.864958 89.5386778l-17.621261-4.4527584c17.484884 30.4864876 14.709757 70.4330826-7.64032 96.0404506C172.332252 198.626447 149.67136 208 126.886778 208c-13.257177 0-26.555583-3.173672-38.4680129-9.764652l3.0478819-5.62285c29.850848 16.519124 69.137126 9.758241 91.37937-15.727309 20.669143-23.677518 23.117598-60.742162 6.720564-88.9429647l-4.573409 18.4970597-6.152852-1.554779 6.343147-25.6458362c.424991-1.7150653 2.143983-2.7729562 3.843946-2.3305654L214.4 83.3195622l-1.535042 6.2191156zM66.4270758 165.078488l4.579752-18.5195 6.1528522 1.554779-6.3431466 25.645836c-.3583878 1.458607-1.6523897 2.429943-3.0732547 2.429943-.2537257 0-.5137949-.028851-.7706921-.096172L41.6 169.681915l1.5350415-6.219115 17.5927172 4.443141c-17.3485061-29.970365-14.5162911-67.095918 7.9416195-92.8283093 24.5035754-28.0725731 66.1051028-35.2662301 98.9150278-17.1057725l-3.047882 5.6228496c-30.234608-16.7307023-68.5535566-10.1204881-91.1097858 15.724103-20.7198885 23.7416332-23.2349461 58.0974362-6.9996624 85.7596762h0zm34.0404962-25.174594c4.053271 0 7.351707 3.333958 7.351707 7.434086 0 4.096923-3.298436 7.430881-7.351707 7.430881-4.0564421 0-7.3548782-3.333958-7.3548782-7.430881 0-4.100128 3.2984361-7.434086 7.3548782-7.434086h0zm23.897805-28.386735c1.163967.326984 2.369165.557797 3.634623.557797 1.18934 0 2.324763-.201961 3.425299-.493682l11.83314 25.549664c-2.007606 1.840089-3.46653 4.250797-4.116702 7.001313h-25.388444c-.637487-2.70243-2.05518-5.084287-4.008869-6.914759l14.620953-25.700333zM128 90.7985293c4.056442 0 7.354878 3.3339587 7.354878 7.4308809 0 4.1001278-3.298436 7.4340868-7.354878 7.4340868-4.053271 0-7.351707-3.333959-7.351707-7.4340868 0-4.0969222 3.298436-7.4308809 7.351707-7.4308809h0zm31.782336 56.5394507c0 4.096923-3.298436 7.430881-7.354878 7.430881-4.053271 0-7.351707-3.333958-7.351707-7.430881 0-4.100128 3.298436-7.434086 7.351707-7.434086 4.056442 0 7.354878 3.333958 7.354878 7.434086h0zm-59.314764 13.842341c6.454152 0 11.848998-4.552136 13.285721-10.636611h25.388444c1.439894 6.084475 6.831569 10.636611 13.285721 10.636611 7.551516 0 13.698025-6.209499 13.698025-13.842341 0-7.636047-6.146509-13.845545-13.698025-13.845545-1.252772 0-2.445283.227607-3.599736.54818l-11.801424-25.479139c2.838558-2.538937 4.671727-6.206292 4.671727-10.3320658 0-7.6328419-6.146509-13.8423398-13.698025-13.8423398-7.551516 0-13.694853 6.2094979-13.694853 13.8423398 0 4.0488368 1.757051 7.6584878 4.503633 10.1910138l-14.601923 25.665071c-1.195683-.346219-2.432597-.59306-3.739285-.59306-7.551516 0-13.6980251 6.209498-13.6980251 13.845545 0 7.632842 6.1465091 13.842341 13.6980251 13.842341h0z" fill="#fff"/></svg>