<svg width="256px" height="256px" viewBox="0 0 256 256" xmlns="http://www.w3.org/2000/svg" preserveAspectRatio="xMidYMid"><title>AWS Simple Queue Service (SQS)</title><defs><linearGradient x1="0%" y1="100%" x2="100%" y2="0%" id="a"><stop stop-color="#b0084d" offset="0%"/><stop stop-color="#ff4f8b" offset="100%"/></linearGradient></defs><path fill="url(#a)" d="M0 0h256v256H0z"/><path d="M91.8943891 139.800562l9.6061759-9.490719c.601987-.594959.941405-1.403087.944652-2.246211.003157-.843124-.333059-1.654433-.931844-2.252574l-9.6061756-9.598894-4.5405187 4.486059 4.121049 4.120175H76.8287043v6.363204h14.7102563l-4.1594739 4.107448 4.5149024 4.511512zm73.3143309.289526 12.808234-9.55117c.800514-.601322 1.277621-1.543077 1.277621-2.5421 0-1.002204-.477107-1.94714-1.280823-2.548463l-12.808234-9.538443-3.84247 5.090564 5.123293 3.817922h-12.808234v6.363204h12.805032l-5.123293 3.817922 3.848874 5.090564zM112.666142 128c0 6.754541-1.168751 13.124108-3.352555 18.666459 5.760504-2.214395 12.25748-3.321592 18.748053-3.321592 6.490572 0 12.987549 1.107197 18.74485 3.321592-2.180602-5.542351-3.349353-11.911918-3.349353-18.666459 0-6.754541 1.168751-13.120927 3.349353-18.666459-11.517805 4.425608-25.971896 4.425608-37.492903 0 2.183804 5.545532 3.352555 11.911918 3.352555 18.666459h0zm-15.6868838 30.883811c-.6244016-.620412-.9382032-1.434903-.9382032-2.249393 0-.81449.3138016-1.62898.9382032-2.249392C102.790994 148.610418 106.262026 138.74427 106.262026 128c0-10.74427-3.471032-20.610418-9.2827678-26.385026-.6244016-.620412-.9382032-1.434902-.9382032-2.2493922 0-.8144903.3138016-1.6289805.9382032-2.2493927 1.2520048-1.2440064 3.2757058-1.2440064 4.5277108 0 12.407976 12.3287079 40.701365 12.3287079 53.109341 0 1.252005-1.2440064 3.275706-1.2440064 4.527711 0 .624401.6204122.938203 1.4349024.938203 2.2493927 0 .8144902-.313802 1.6289802-.938203 2.2493922-5.811736 5.774608-9.282767 15.640756-9.282767 26.385026 0 10.74427 3.471031 20.610418 9.282767 26.385026.624401.620412.938203 1.434902.938203 2.249392 0 .81449-.313802 1.628981-.938203 2.249393-.624401.620412-1.444128.932209-2.263855.932209-.819727 0-1.639454-.311797-2.263856-.932209-12.407976-12.328708-40.701365-12.328708-53.109341 0-1.252005 1.244006-3.275706 1.244006-4.5277108 0h0zm114.2238298-30.867903c0-2.965253-1.162348-5.752336-3.272504-7.849012-2.1774-2.166671-5.04004-3.245234-7.899478-3.245234-2.859438 0-5.722079 1.078563-7.899478 3.245234-4.358002 4.326979-4.358002 11.367864 0 15.698024 4.354799 4.326979 11.437752 4.330161 15.798956 0 2.110156-2.096676 3.272504-4.883759 3.272504-7.849012h0zm1.255207 12.347798c-3.426203 3.404314-7.925095 5.106471-12.427189 5.106471-4.502094 0-9.000987-1.702157-12.427189-5.106471-6.855607-6.808629-6.855607-17.886967 0-24.695596 6.855607-6.814991 18.005175-6.808628 24.854378 0 6.855607 6.808629 6.855607 17.886967 0 24.695596h0zM67.1360733 128.089085c0-2.965253-1.1623472-5.752337-3.272504-7.849012-2.1101565-2.096676-4.9151597-3.251598-7.8994781-3.251598-2.9811165 0-5.7861197 1.154922-7.8994781 3.251598-2.1101568 2.096675-3.2693017 4.883759-3.2693017 7.849012 0 2.962071 1.1591449 5.749155 3.2693017 7.849012 4.2235149 4.19017 11.5786432 4.19017 15.7989562 0 2.1101568-2.099857 3.272504-4.886941 3.272504-7.849012h0zm1.2552067 12.347797c-3.4262026 3.404314-7.9250947 5.106472-12.4271888 5.106472-4.4988922 0-8.9977843-1.702158-12.4271888-5.106472-6.8492032-6.808628-6.8492032-17.886966 0-24.695595 6.855607-6.808628 18.0019725-6.808628 24.8543776 0 6.8524051 6.808629 6.8524051 17.886967 0 24.695595h0zm107.275363 35.102616c-12.782617 12.704137-29.782346 19.697298-47.861168 19.697298-18.085226 0-35.0817528-6.993161-47.86437-19.697298-8.7672362-8.708045-13.5927383-19.115065-16.0967479-26.308668l-6.0518905 2.080768c2.7249516 7.826741 7.9923379 19.162789 17.6209276 28.726685C89.4063898 193.945066 108.010349 201.6 127.805475 201.6c19.791923 0 38.395883-7.654934 52.388879-21.561717 8.085197-8.027182 14.524537-18.233761 18.139661-28.73623l-6.058295-2.061678c-3.304524 9.602075-9.202716 18.943259-16.609077 26.299123h0zM63.8411549 106.772351l-6.0454861-2.087131c3.8744906-11.0847013 10.1377168-21.2912805 17.6369379-28.739411C89.4191981 62.051753 108.016754 54.4 127.805475 54.4c19.788721 0 38.386277 7.651753 52.369666 21.545809 7.893074 7.8426489 14.511729 18.3164828 18.15247 28.739411l-6.045487 2.087131c-3.339747-9.544806-9.401243-19.1405177-16.634694-26.3277568-12.773011-12.694592-29.766335-19.68139-47.841955-19.68139-18.078822 0-35.0689444 6.986798-47.8451576 19.68139C73.1335286 87.2309514 67.408248 96.58168 63.8411549 106.772351h0z" fill="#fff"/></svg>