<svg width="256px" height="256px" viewBox="0 0 256 256" xmlns="http://www.w3.org/2000/svg" preserveAspectRatio="xMidYMid"><title>AWS Lake Formation</title><defs><linearGradient x1="0%" y1="100%" x2="100%" y2="0%" id="a"><stop stop-color="#4d27a8"/><stop stop-color="#a166ff" offset="1"/></linearGradient></defs><path fill="url(#a)" d="M0 0h256v256H0z"/><path d="M172.599071 144.6752c2.441549 2.848 6.067073 4.656 10.102189 4.656 7.334248 0 13.298923-5.968 13.298923-13.3024h-6.399866c0 3.808-3.094336 6.9024-6.899057 6.9024-3.80472 0-6.902256-3.0944-6.902256-6.9024h-6.399866c0 3.808-3.094336 6.9024-6.899057 6.9024-3.80792 0-6.902256-3.0944-6.902256-6.9024h-6.399867c0 3.808-3.097535 6.9024-6.902256 6.9024-3.804721 0-6.902256-3.0944-6.902256-6.9024h-6.399867c0 3.808-3.097535 6.9024-6.899056 6.9024v6.4c4.038316 0 7.657441-1.808 10.09899-4.656 2.441549 2.848 6.067073 4.656 10.102189 4.656 4.038316 0 7.660641-1.808 10.10219-4.656 2.438349 2.848 6.063873 4.656 10.102189 4.656 4.035116 0 7.657441-1.808 10.09899-4.656h0zm-2.809542-43.5392h-6.399866c0 3.8048-3.097536 6.8992-6.902257 6.8992-3.80472 0-6.899056-3.0944-6.899056-6.8992h-6.399866c0 3.8048-3.097536 6.8992-6.905456 6.8992-3.801521 0-6.899057-3.0944-6.899057-6.8992h-6.399866c0 3.8048-3.097536 6.8992-6.899057 6.8992v6.4c4.038316 0 7.657441-1.808 10.09899-4.656 2.441549 2.848 6.063873 4.656 10.09899 4.656 4.038315 0 7.66384-1.808 10.105389-4.656 2.438349 2.848 6.060674 4.656 10.098989 4.656 4.038316 0 7.660641-1.808 10.10219-4.656 2.441549 2.848 6.063874 4.656 10.09899 4.656v-6.4c-3.801521 0-6.899057-3.0944-6.899057-6.8992h0zm-50.731743 87.4176c4.035116 0 7.657441-1.808 10.09899-4.656 2.441549 2.848 6.063874 4.656 10.102189 4.656 4.038316 0 7.660641-1.808 10.09899-4.656 2.441549 2.848 6.063874 4.656 10.10219 4.656v-6.4c-3.804721 0-6.902257-3.0944-6.902257-6.8992h-6.399866c0 3.8048-3.094336 6.8992-6.899057 6.8992-3.80472 0-6.902256-3.0944-6.902256-6.8992h-6.399866c0 3.8048-3.097536 6.8992-6.899057 6.8992-3.80792 0-6.905456-3.0944-6.905456-6.8992h-6.399867c0 3.8048-3.094335 6.8992-6.8990556 6.8992v6.4c4.0383156 0 7.6606406-1.808 10.0989896-4.656 2.441549 2.848 6.067073 4.656 10.105389 4.656h0zM73.6027331 64h3.1999335v-3.2h-3.1999335V64zm-6.4030665 3.2v-9.6c0-1.7696 1.4335702-3.2 3.2031334-3.2h9.5998c1.7663632 0 3.1999334 1.4304 3.1999334 3.2v9.6c0 1.7664-1.4335702 3.2-3.1999334 3.2h-9.5998c-1.7695632 0-3.2031334-1.4336-3.2031334-3.2h0zm25.6026668-16h3.1999332V48h-3.1999332v3.2zm-6.3998668 3.2v-9.6c0-1.7696 1.4303702-3.2 3.1999334-3.2h9.5998c1.766363 0 3.199933 1.4304 3.199933 3.2v9.6c0 1.7664-1.43357 3.2-3.199933 3.2h-9.5998c-1.7695632 0-3.1999334-1.4336-3.1999334-3.2h0zm9.5998 19.2H99.2022v-3.2h-3.1999334v3.2zm6.3998664-9.6c1.766364 0 3.199934 1.4304 3.199934 3.2v9.6c0 1.7664-1.43357 3.2-3.199934 3.2h-9.5997996C91.0327702 80 89.6024 78.5664 89.6024 76.8v-9.6c0-1.7696 1.4303702-3.2 3.1999334-3.2h9.5997996zM90.2007875 89.84c-3.2479325 0-15.3308806-.1248-24.4538905-1.7984l20.1563801 31.8464c.326393.512.4991895 1.104.4991895 1.712v4.0352c2.2175539.5312 4.31351.5472 6.3998668.0416V121.6c0-.6048.1695962-1.1968.4927895-1.712l20.9979621-31.792c-7.043053 1.248-16.3228594 1.744-24.0922975 1.744h0zM54.611129 81.8144c-.0223997-.1504-.0511991-.4352-.0511991-.5856 0-1.968 0-7.9552 31.7785379-8.576l.1247975 6.4c-10.2333869.1984-17.7980291 1.1744-22.1083392 2.176 4.7071017 1.0976 13.43972 2.2112 25.8458614 2.2112 11.9517515 0 20.8795655-1.0752 25.7882625-2.2144-1.638366-.3872-3.910318-.8096-7.039853-1.1904l.777584-6.352c11.442961 1.3952 16.111664 3.584 16.111664 7.5456 0 .8448-.303993 2.0032-1.388771 3.1104L99.2022 122.5248V128c0 1.3056-.7967834 2.48-2.0063584 2.9664-2.4607485.9888-4.931097 1.4816-7.4526445 1.4816-2.4895481 0-5.0270953-.4832-7.6478406-1.4464-1.2575741-.464-2.0927565-1.6608-2.0927565-3.0016v-5.472L55.4399117 83.7184c-.0064-.0096-.0127997-.0192-.0191997-.0288l-.0255994-.0448-.47679-.7552.047999-.032c-.1727965-.3264-.3007939-.6752-.3551926-1.0432h0zM86.4024666 144v-9.6H80.0026v6.4h-6.3998669c-1.2415741 0-2.3743504.7168-2.8991395 1.84-.5279888 1.1264-.3551926 2.4544.438391 3.408l15.9996666 19.2c.6079872.7296 1.5103686 1.152 2.4607488 1.152.9471802 0 1.8495613-.4224 2.4575488-1.152l15.9996662-19.2c.793584-.9536.96638-2.2816.438391-3.408-.524789-1.1232-1.657565-1.84-2.895939-1.84H99.2022v-6.4h-6.3998666v9.6c0 1.7664 1.43037 3.2 3.1999332 3.2h2.7679424L89.6024 158.2016 80.431391 147.2h2.7711424c1.7663632 0 3.1999332-1.4336 3.1999332-3.2h0zM204.8 137.6c0 42.3456-34.453682 76.8-76.8016 76.8-42.3447178 0-76.7984-34.4544-76.7984-76.8 0-11.7056 2.5663466-22.9408 7.6222413-33.3952l5.76308 2.7872c-4.6335037 9.5776-6.9854547 19.8752-6.9854547 30.608 0 38.816 31.583342 70.4 70.3985334 70.4 38.818391 0 70.401733-31.584 70.401733-70.4 0-38.8192-31.583342-70.4-70.401733-70.4-4.115114 0-8.233428.3552-12.246145 1.0592l-1.103977-6.304c4.374309-.768 8.867015-1.1552 13.350122-1.1552 42.347918 0 76.8016 34.4512 76.8016 76.8h0z" fill="#fff"/></svg>