<svg width="256px" height="256px" viewBox="0 0 256 256" xmlns="http://www.w3.org/2000/svg" preserveAspectRatio="xMidYMid"><title>AWS Relational Database Service (RDS)</title><defs><linearGradient x1="0%" y1="100%" x2="100%" y2="0%" id="a"><stop stop-color="#2e27ad" offset="0%"/><stop stop-color="#527fff" offset="100%"/></linearGradient></defs><path fill="url(#a)" d="M0 0h256v256H0z"/><path d="M49.3248 44.8l29.7376 29.7376-4.5248 4.5248L44.8 49.3248V73.6h-6.4v-32c0-1.7664 1.4304-3.2 3.2-3.2h32v6.4H49.3248zM217.6 41.6v32h-6.4V49.3248l-29.7376 29.7376-4.5248-4.5248L206.6752 44.8H182.4v-6.4h32c1.7696 0 3.2 1.4336 3.2 3.2h0zm-6.4 140.8h6.4v32c0 1.7664-1.4304 3.2-3.2 3.2h-32v-6.4h24.2752l-29.7376-29.7376 4.5248-4.5248L211.2 206.6752V182.4zm-1.6-56.9184c0-10.6208-12.2624-21.1136-32.8-28.0672l2.0512-6.0608C202.4576 99.344 216 111.7824 216 125.4816c0 13.7024-13.5424 26.144-37.152 34.1312l-2.0512-6.064c20.5408-6.9504 32.8032-17.44 32.8032-28.0672h0zm-163.0208 0c0 10.176 11.4784 20.3904 30.7072 27.328l-2.1728 6.0192c-22.2016-8.0096-34.9344-20.1632-34.9344-33.3472 0-13.1808 12.7328-25.3344 34.9344-33.3472l2.1728 6.0192c-19.2288 6.9408-30.7072 17.1552-30.7072 27.328h0zm32.4832 55.9808L49.3248 211.2H73.6v6.4h-32c-1.7696 0-3.2-1.4336-3.2-3.2v-32h6.4v24.2752l29.7376-29.7376 4.5248 4.5248zM128 100.1152c-22.8672 0-35.2-5.9072-35.2-8.32 0-2.416 12.3328-8.32 35.2-8.32 22.864 0 35.2 5.904 35.2 8.32 0 2.4128-12.336 8.32-35.2 8.32h0zm.0928 24.784c-21.8944 0-35.2928-5.9808-35.2928-9.2352v-15.5552c7.8816 4.3488 21.8624 6.4064 35.2 6.4064 13.3376 0 27.3184-2.0576 35.2-6.4064v15.5552c0 3.2576-13.328 9.2352-35.1072 9.2352h0zm0 24.4352c-21.8944 0-35.2928-5.9808-35.2928-9.2352v-15.7408c7.7792 4.5728 21.5744 6.9408 35.2928 6.9408 13.6416 0 27.3568-2.3648 35.1072-6.9248v15.7248c0 3.2576-13.328 9.2352-35.1072 9.2352h0zM128 171.2576c-22.7744 0-35.2-6.1216-35.2-9.2672v-13.1968c7.7792 4.5728 21.5744 6.9408 35.2928 6.9408 13.6416 0 27.3568-2.3616 35.1072-6.9248v13.1808c0 3.1456-12.4256 9.2672-35.2 9.2672h0zm0-94.1824c-20.0352 0-41.6 4.6048-41.6 14.72v70.1952c0 10.2848 20.928 15.6672 41.6 15.6672 20.672 0 41.6-5.3824 41.6-15.6672V91.7952c0-10.1152-21.5648-14.72-41.6-14.72h0z" fill="#fff"/></svg>