<svg width="256px" height="256px" viewBox="0 0 256 256" xmlns="http://www.w3.org/2000/svg" preserveAspectRatio="xMidYMid"><title>AWS ElastiCache</title><defs><linearGradient x1="0%" y1="100%" x2="100%" y2="0%" id="a"><stop stop-color="#2e27ad" offset="0%"/><stop stop-color="#527fff" offset="100%"/></linearGradient></defs><path fill="url(#a)" d="M0 0h256v256H0z"/><path d="M163.2 196.977556v-18.728167c-8.1088 5.238895-22.7072 7.712728-36.6208 7.712728-15.168 0-26.992-2.646649-33.7792-7.184678v18.200117c0 5.418112 12.6336 11.02184 33.7792 11.02184 21.5808 0 36.6208-5.808548 36.6208-11.02184h0zm-36.6208-39.472523c-15.168 0-26.992-2.64345-33.7792-7.181478v18.273724c.0992 5.398909 12.7136 10.964234 33.7792 10.964234 21.5136 0 36.5216-5.773344 36.6208-10.977035v-18.792173c-8.1088 5.242094-22.7072 7.712728-36.6208 7.712728h0zM163.2 140.130594v-21.637242c-8.1088 5.238894-22.7072 7.712728-36.6208 7.712728-15.168 0-26.992-2.64345-33.7792-7.181478v21.118793c.0992 5.398909 12.7136 10.961034 33.7792 10.961034 21.5136 0 36.5216-5.773345 36.6208-10.973835h0zm-70.4096-31.353358c0 .0096.0032.019201.0032.028802H92.8v.035204c.0992 5.398909 12.7136 10.964234 33.7792 10.964234 23.4944 0 36.5216-6.47101 36.6208-10.973835v-.025603h.0064c0-.009601.0032-.019202.0032-.028802 0-4.506025-13.0432-11.0282408-36.6304-11.0282408-21.152 0-33.7888 5.6069288-33.7888 11.0282408h0zm76.8096.080007v31.218945h.0096c0 .028803-.0096.051205-.0096.080008v28.377077h.0096c0 .028803-.0096.051205-.0096.080008v28.364275c0 11.97233-22.3008 17.422444-43.0208 17.422444-24.4064 0-40.1792-6.839045-40.1792-17.422444v-28.345074c0-.035203-.0096-.064006-.0096-.099209H86.4v-28.357875c0-.032003-.0096-.064006-.0096-.09921H86.4v-31.199743c0-.035203-.0096-.064006-.0096-.099209 0-10.5865992 15.776-17.4288446 40.1888-17.4288446 20.7232 0 43.0304 5.4533145 43.0304 17.4288446 0 .028802-.0096.051204-.0096.080007h0zm44.8-41.2710932c1.7696 0 3.2-1.4337354 3.2-3.2003021V48.0003018C217.6 46.230535 216.1696 44.8 214.4 44.8H41.6c-1.7696 0-3.2 1.430535-3.2 3.2003018v16.3855459c0 1.7665667 1.4304 3.2003021 3.2 3.2003021 3.9072 0 7.0848 3.1586979 7.0848 7.040664 0 3.8819664-3.1776 7.0406643-7.0848 7.0406643-1.7696 0-3.2 1.4337353-3.2 3.2003017v65.5421832c0 1.766567 1.4304 3.200302 3.2 3.200302h32v-6.400604h-16v-9.600905h16v-6.400604H54.4c-1.7696 0-3.2 1.430535-3.2 3.200302v12.801207h-6.4V87.6840458c5.8976-1.4369357 10.2848-6.7462365 10.2848-13.057232 0-6.3141956-4.3872-11.6234964-10.2848-13.060432v-10.365778h166.4v10.365778c-5.8976 1.4369356-10.2848 6.7462364-10.2848 13.060432 0 6.3109955 4.3872 11.6202963 10.2848 13.057232v59.5256152h-6.4v-12.801207c0-1.769767-1.4304-3.200302-3.2-3.200302h-19.2v6.400604h16v9.600905h-16v6.400604h32c1.7696 0 3.2-1.433735 3.2-3.200302V84.8677798c0-1.7665664-1.4304-3.2003017-3.2-3.2003017-3.9072 0-7.0848-3.1586979-7.0848-7.0406643 0-3.8819661 3.1776-7.040664 7.0848-7.040664h0zM89.6 89.6042269V64.0018115c0-1.769767-1.4304-3.2003021-3.2-3.2003021H67.2c-1.7696 0-3.2 1.4305351-3.2 3.2003021v54.4051325c0 1.766567 1.4304 3.200302 3.2 3.200302h9.6v-6.400604h-6.4V67.2021133h12.8v22.4021136h6.4zm96 25.6024151h-3.2v6.400604h6.4c1.7696 0 3.2-1.433735 3.2-3.200302V64.0018115c0-1.769767-1.4304-3.2003021-3.2-3.2003021h-19.2c-1.7696 0-3.2 1.4305351-3.2 3.2003021v25.6024154h6.4V67.2021133h12.8v48.0045287zM160 86.4039248V64.0018115c0-1.769767-1.4304-3.2003021-3.2-3.2003021h-22.4c-1.7696 0-3.2 1.4305351-3.2 3.2003021V83.203623h6.4V67.2021133h16v19.2018115h6.4zm-41.6-3.2003018V67.2021133h-16v19.2018115H96V64.0018115c0-1.769767 1.4304-3.2003021 3.2-3.2003021h22.4c1.7696 0 3.2 1.4305351 3.2 3.2003021V83.203623h-6.4z" fill="#fff"/></svg>