<svg width="256px" height="256px" viewBox="0 0 256 256" xmlns="http://www.w3.org/2000/svg" preserveAspectRatio="xMidYMid"><title>AWS Fargate</title><defs><linearGradient x1="0%" y1="100%" x2="100%" y2="0%" id="a"><stop stop-color="#c8511b"/><stop stop-color="#f90" offset="1"/></linearGradient></defs><path fill="url(#a)" d="M0 0h256v256H0z"/><path d="M166.4 180.8736v-15.5072l9.6-3.84v15.5072l-9.6 3.84zm-16-19.3472 9.6 3.84v15.5072l-9.6-3.84v-15.5072zm-19.2 41.7472v-15.5072l9.6-3.84v15.5072l-9.6 3.84zm-16-19.3472 9.6 3.84v15.5072l-9.6-3.84v-15.5072zM96 180.8736v-15.5072l9.6-3.84v15.5072l-9.6 3.84zm-16-19.3472 9.6 3.84v15.5072l-9.6-3.84v-15.5072zm12.8-7.68 7.3856 2.9536-7.3856 2.9536-7.3856-2.9536 7.3856-2.9536zm35.2 22.4 7.3856 2.9536L128 182.1536l-7.3856-2.9536L128 176.2464zm35.2-22.4 7.3856 2.9536-7.3856 2.9536-7.3856-2.9536 7.3856-2.9536zm17.1872-.0192-16-6.4c-.7616-.3008-1.6128-.3008-2.3744 0l-16 6.4c-1.216.4896-2.0128 1.664-2.0128 2.9728v18.9536l-14.8128-5.9264c-.7616-.3008-1.6128-.3008-2.3744 0L112 175.7536V156.8c0-1.3088-.7968-2.4832-2.0128-2.9728l-16-6.4c-.7616-.3008-1.6128-.3008-2.3744 0l-16 6.4c-1.216.4896-2.0128 1.664-2.0128 2.9728v22.4c0 1.3088.7968 2.4832 2.0128 2.9728l16 6.4c.3808.1504.784.2272 1.1872.2272.4032 0 .8064-.0768 1.1872-.2272l14.8128-5.9264V201.6c0 1.3088.7968 2.4832 2.0128 2.9728l16 6.4c.3808.1504.784.2272 1.1872.2272.4032 0 .8064-.0768 1.1872-.2272l16-6.4c1.216-.4896 2.0128-1.664 2.0128-2.9728v-18.9536l14.8128 5.9264c.3808.1504.784.2272 1.1872.2272.4032 0 .8064-.0768 1.1872-.2272l16-6.4c1.216-.4896 2.0128-1.664 2.0128-2.9728v-22.4c0-1.3088-.7968-2.4832-2.0128-2.9728h0zM208 115.0016c0 18.704-41.2192 28.8-80 28.8-38.7808 0-80-10.096-80-28.8 0-8.9312 9.904-16.7936 27.888-22.1408l1.824 6.1344C63.3312 103.2704 54.4 109.4048 54.4 115.0016c0 10.5952 30.224 22.4 73.6 22.4 43.376 0 73.6-11.8048 73.6-22.4 0-5.5968-8.9312-11.7312-23.312-16.0064l1.824-6.1344C198.096 98.208 208 106.0704 208 115.0016h0zm-80-60.3744L160.6848 67.2 128 79.7728 95.3152 67.2 128 54.6272zm33.856 63.2672c-6.0352 2.7008-16.1664 5.8464-30.656 6.2688V85.3984l35.2-13.536v39.0112c0 3.0432-1.7792 5.7984-4.544 7.0208h0zM89.6 110.8736V71.8624l35.2 13.536v38.7648c-14.4896-.4224-24.6208-3.568-30.6688-6.2752-2.752-1.216-4.5312-3.9712-4.5312-7.0144h0zm1.9328 12.8608c7.0432 3.152 19.088 6.912 36.4672 6.912 17.3792 0 29.424-3.76 36.4576-6.9056 5.0688-2.2432 8.3424-7.2928 8.3424-12.8672V67.2c0-1.3248-.816-2.512-2.0512-2.9888l-41.6-16c-.7424-.2816-1.5552-.2816-2.2976 0l-41.6 16C84.016 64.688 83.2 65.8752 83.2 67.2v43.6736c0 5.5744 3.2736 10.624 8.3328 12.8608h0z" fill="#fff"/></svg>