<svg width="256px" height="256px" viewBox="0 0 256 256" xmlns="http://www.w3.org/2000/svg" preserveAspectRatio="xMidYMid"><title>AWS Simple Storage Service (S3)</title><defs><linearGradient x1="0%" y1="100%" x2="100%" y2="0%" id="a"><stop stop-color="#1b660f"/><stop stop-color="#6cae3e" offset="1"/></linearGradient></defs><path fill="url(#a)" d="M0 0h256v256H0z"/><path d="M194.67488 137.25632l1.2288-8.6528c11.3312 6.7872 11.4784 9.5904 11.475284 9.6672-.019284.016-1.952084 1.6288-12.704084-1.0144h0zm-6.2176-1.728c-19.584-5.9264-46.8576-18.4384-57.8944-23.6544 0-.0448.0128-.0864.0128-.1312 0-4.24-3.4496-7.6896-7.6928-7.6896-4.2368 0-7.6864 3.4496-7.6864 7.6896 0 4.24 3.4496 7.6896 7.6864 7.6896 1.8624 0 3.552-.6944 4.8864-1.7984 12.9856 6.1472 40.048 18.4768 59.776 24.3008l-7.8016 55.0592c-.0224.1504-.032.3008-.032.4512 0 4.848-21.4624 13.7536-56.5312 13.7536-35.44 0-57.1296-8.9056-57.1296-13.7536 0-.1472-.0096-.2912-.0288-.4352l-16.3008-119.0624c14.1088 9.712 44.4544 14.8512 73.4784 14.8512 28.9792 0 59.2736-5.12 73.4112-14.8032l-8.1536 57.5328zm-140.4576-70c.2304-4.2112 24.4288-20.7296 75.2-20.7296 50.7648 0 74.9664 16.5152 75.2 20.7296v1.4368c-2.784 9.4432-34.144 19.4336-75.2 19.4336-41.1264 0-72.5024-10.0224-75.2-19.4784v-1.392zm156.8.0704c0-11.088-31.7888-27.2-81.6-27.2-49.8112 0-81.6 16.112-81.6 27.2l.3008 2.4128 17.7536 129.6768c.4256 14.5024 39.1008 19.9104 63.5264 19.9104 30.3104 0 62.512-6.9696 62.928-19.9008l7.6672-54.0704c4.2656 1.0208 7.776 1.5424 10.5952 1.5424 3.7856 0 6.3456-.9248 7.8976-2.7744 1.2736-1.5168 1.76-3.3536 1.3952-5.3088-.8288-4.4288-6.0864-9.2032-16.7936-15.312l7.6032-53.6384.3264-2.5376z" fill="#fff"/></svg>