<svg width="256px" height="256px" viewBox="0 0 256 256" xmlns="http://www.w3.org/2000/svg" preserveAspectRatio="xMidYMid"><title>AWS Aurora</title><defs><linearGradient x1="0%" y1="100%" x2="100%" y2="0%" id="a"><stop stop-color="#2e27ad"/><stop stop-color="#527fff" offset="1"/></linearGradient></defs><path fill="url(#a)" d="M0 0h256v256H0z"/><path d="M144.291538 57.7444026h-9.625724v-6.457761h9.625724V41.6h6.417149v9.6866416h9.625724v6.457761h-9.625724v9.6866419h-6.417149v-9.6866419zm38.502895 35.517686h-9.625724v-6.4577609h9.625724v-9.6866416h6.41715v9.6866416h9.625724v6.4577609h-9.625724v9.6866414h-6.41715v-9.6866414zM166.084177 195.307629c-6.128378-15.569662-20.271775-29.802567-35.749939-35.972958 15.478164-6.167162 29.621561-20.400067 35.749939-35.972958 6.128377 15.572891 20.271774 29.805796 35.74673 35.972958-15.474956 6.170391-29.618353 20.403296-35.74673 35.972958h0zm51.507248-39.201838c-22.569114 0-48.298674-25.892393-48.298674-48.604339 0-1.782342-1.434233-3.228881-3.208574-3.228881-1.774342 0-3.208575 1.446539-3.208575 3.228881 0 22.711946-25.732769 48.604339-48.301883 48.604339-1.771133 0-3.208574 1.446538-3.208574 3.22888 0 1.785571 1.437441 3.228881 3.208574 3.228881 22.569114 0 48.301883 25.892393 48.301883 48.607567 0 1.782342 1.434233 3.228881 3.208575 3.228881 1.774341 0 3.208574-1.446539 3.208574-3.228881 0-22.715174 25.72956-48.607567 48.298674-48.607567 1.771134 0 3.208575-1.44331 3.208575-3.228881 0-1.782342-1.437441-3.22888-3.208575-3.22888h0zM41.6171491 92.4903862c9.3433696 6.838769 27.4974848 10.4583438 44.9200451 10.4583438 17.4225608 0 35.5766758-3.6195748 44.9200448-10.4583438v30.9262178c-4.623556 6.186535-21.625793 12.282662-44.2783299 12.282662-26.0760861 0-45.56176-8.201357-45.56176-15.534145V92.4903862zm44.9200451-25.0593417c27.8311768 0 44.9200448 8.4628957 44.9200448 14.5299622 0 6.0670666-17.088868 14.5299626-44.9200448 14.5299626-27.8311763 0-44.9200451-8.462896-44.9200451-14.5299626 0-6.0670665 17.0888688-14.5299622 44.9200451-14.5299622h0zM131.457239 188.61416c0 7.44257-19.216153 15.769852-44.9360876 15.769852-25.7006829 0-44.9040023-8.327282-44.9040023-15.769852v-20.632547c9.4588781 7.219777 27.9755626 11.042772 45.7446487 11.042772 12.3562211 0 24.3049532-1.756511 33.6322792-4.946645l-2.059905-6.1155c-8.682403 2.967341-19.896371 4.604384-31.5723742 4.604384-26.181969 0-45.7446487-8.201357-45.7446487-15.534145v-25.898851c9.4332096 7.206862 27.8696794 11.023399 45.56176 11.023399 18.9562589 0 35.2141069-3.929548 44.2783299-10.151601v9.689871h6.417149V81.9610067c0-13.6323334-26.44828-20.9877235-51.3371938-20.9877235-23.8750038 0-49.1232777 6.7871069-51.1382627 19.3732832H35.2V188.61416c0 14.436325 26.4418637 22.227614 51.3211514 22.227614 24.8953306 0 51.3532366-7.791289 51.3532366-22.227614v-11.401177h-6.417149v11.401177z" fill="#fff"/></svg>