<svg width="256px" height="256px" viewBox="0 0 256 256" xmlns="http://www.w3.org/2000/svg" preserveAspectRatio="xMidYMid"><title>AWS CodeDeploy</title><defs><linearGradient x1="0%" y1="100%" x2="100%" y2="0%" id="a"><stop stop-color="#2e27ad" offset="0%"/><stop stop-color="#527fff" offset="100%"/></linearGradient></defs><path fill="url(#a)" d="M0 0h256v256H0z"/><path d="M89.6009971 214.343363h83.2034179v-54.881416H89.6009971v54.881416zm86.4035499-61.338053H86.4008656c-1.7696726 0-3.2001315 1.446286-3.2001315 3.228318v61.338053c0 1.782032 1.4304589 3.228319 3.2001315 3.228319h89.6036814c1.769672 0 3.200131-1.446287 3.200131-3.228319v-61.338053c0-1.782032-1.430459-3.228318-3.200131-3.228318h0zm-57.298354 55.630386 19.379996-44.389381 5.85624 2.605253-19.379996 44.389381-5.85624-2.605253zm36.612704-21.400524-10.899648-10.701876 4.460983-4.629409 13.587758 13.339412c.668828.658577 1.020842 1.581876.96004 2.524545-.060802.942669-.528022 1.811087-1.276853 2.376043l-15.191024 11.457302-3.830557-5.168538 12.189301-9.197479zm-54.869454-1.126683c-.672028-.658578-1.0240424-1.578648-.9632398-2.521317.0608026-.942669.5280218-1.811087 1.2768528-2.376043l15.191024-11.457302 3.833757 5.168537-12.192501 9.194252 10.902848 10.705104-4.460983 4.629409-13.587758-13.34264zm110.890955-73.947866c-6.141052-5.991759-14.310988-9.291101-23.005745-9.291101-11.334865 0-20.592846 4.035398-26.330681 10.753529-1.408058-30.9369768-8.480349-55.8273131-18.592764-67.6816987 36.193486 5.4687715 63.663415 32.2089344 69.740464 68.0045307-.598424-.600467-1.206449-1.194478-1.811274-1.78526h0zm-57.528763 1.110541-1.145647-1.110541c-6.141053-5.991759-14.326989-9.291101-23.044147-9.291101-11.088455 0-20.112826 3.731937-25.853862 10.088496 2.112087-40.673586 14.576599-68.0787825 25.882663-68.1013809.019201 0 .032002.0032285.054402.0032285 11.491672.0677946 24.173794 28.425345 25.949867 70.2352984-.601625-.603695-1.19365-1.197705-1.843276-1.824h0zm-56.571924 2.156517c-.8544352-.891015-1.753672-1.775575-2.704111-2.705331l-.579224-.561727c-6.1410522-5.991759-14.3237885-9.291101-23.0441466-9.291101-9.8980067 0-18.2439494 2.999108-24.0169865 8.235441 7.6067123-34.2912001 34.4942169-59.7594056 69.0044341-65.1474692-10.298023 12.0900531-17.4471164 37.7067609-18.659966 69.4701872h0zM129.685844 38.4c-50.1460603 0-89.3604712 38.213607-91.2837499 88.898209-.0448019 1.207391.6336259 2.301791 1.6224665 2.908715l32.7757463 21.549026 3.4945437-5.410661L45.291977 125.99074c1.6340272-6.906727 6.6789958-12.109289 13.9305225-14.743001 3.4422954-1.250222 7.3818157-1.92158 11.6897299-1.92158 7.0498896 0 13.654961 2.653678 18.5959639 7.476786l.5792237.564956c4.4129814 4.30012 7.0274889 12.154619 7.0274889 12.183674.0224007.196928 4.3809801 16.496708 4.3809801 16.496708l6.173053-1.68841-4.15377-15.47656.025601-.393854c1.548863-14.130351 14.486995-19.1633 26.081071-19.1633 7.04989 0 13.651761 2.653678 18.592764 7.476786 0 0 6.976287 5.359009 7.488308 11.670372l.028801.429366-4.195373 15.447505 6.176254 1.70778 4.364979-16.096396c.025601-.119448.035202-.258266.051203-.397083.867235-12.332178 11.142857-20.23833 26.205876-20.23833 7.024288 0 13.613359 2.653678 18.554362 7.476786 3.840158 3.74485 6.547469 6.579314 7.2995 9.365352l-27.645935 19.418337 3.65775 5.300899 29.233201-20.538563c.796832-.629522 1.369656-2.895802 1.366482-3.018478-.896063-50.697515-40.00807-88.8949806-91.114169-88.930492z" fill="#fff"/></svg>