<svg width="256px" height="256px" viewBox="0 0 256 256" xmlns="http://www.w3.org/2000/svg" preserveAspectRatio="xMidYMid"><title>AWS CloudFront</title><defs><linearGradient x1="0%" y1="100%" x2="100%" y2="0%" id="a"><stop stop-color="#4d27a8"/><stop stop-color="#a166ff" offset="1"/></linearGradient></defs><path fill="url(#a)" d="M0 0h256v256H0z"/><path d="M176.3904 166.7936c0-5.2928-4.3072-9.6-9.6-9.6-5.2928 0-9.6 4.3072-9.6 9.6 0 5.2928 4.3072 9.6 9.6 9.6 5.2928 0 9.6-4.3072 9.6-9.6h0zm6.4 0c0 8.8224-7.1776 16-16 16-8.8224 0-16-7.1776-16-16 0-8.8224 7.1776-16 16-16 8.8224 0 16 7.1776 16 16h0zm-85.536-46.1792c0-5.2928-4.3072-9.6-9.6-9.6-5.296 0-9.6 4.3072-9.6 9.6 0 5.2928 4.304 9.6 9.6 9.6 5.2928 0 9.6-4.3072 9.6-9.6h0zm6.4 0c0 8.8224-7.1808 16-16 16-8.8224 0-16-7.1776-16-16 0-8.8224 7.1776-16 16-16 8.8192 0 16 7.1776 16 16h0zm23.4816-50.192c0 5.2928 4.3072 9.6 9.6 9.6 5.296 0 9.6-4.3072 9.6-9.6 0-5.296-4.304-9.6-9.6-9.6-5.2928 0-9.6 4.304-9.6 9.6h0zm-6.4 0c0-8.8224 7.1808-16 16-16 8.8224 0 16 7.1776 16 16 0 8.8224-7.1776 16-16 16-8.8192 0-16-7.1776-16-16h0zM211.2 128c0-29.6736-15.9104-57.1264-41.5616-71.9712-4.5984.928-9.0464 2.1984-14.5952 4.2048l-2.176-6.0192c2.896-1.0432 5.488-1.888 7.984-2.6112C150.5472 47.1584 139.3536 44.8 128 44.8c-5.4048 0-10.7232.56-15.92 1.5744 3.7632 2.2016 7.1008 4.3968 10.3424 6.8544l-3.8688 5.0976c-4.5696-3.4624-9.3056-6.3968-15.5232-9.6544-31.4208 9.8816-54.0512 37.5936-57.6448 70.1376 6.5888-1.3344 12.9152-2.0608 19.9392-2.2336l.1568 6.3968c-7.36.1824-13.6832.9632-20.5952 2.4832-.0288.848-.0864 1.7056-.0864 2.544 0 27.7056 13.7056 53.2352 36.2464 68.6304-4.0096-11.9392-6.0064-23.2224-6.0064-34.2432 0-6.2848 1.0816-11.4464 2.224-16.9088.2656-1.264.5344-2.5504.7968-3.8848l6.2816 1.2384c-.2688 1.3568-.544 2.672-.8128 3.9616-1.12 5.3504-2.0896 9.9712-2.0896 15.5936 0 12.5056 2.7456 25.4368 8.3328 39.4784C101.6736 208.0448 114.5248 211.2 128 211.2c8.8192 0 17.4272-1.408 25.6384-4.1152 3.2224-6.3584 5.6128-12.3584 7.6096-19.248l6.1472 1.7824c-1.4592 5.024-3.1328 9.5904-5.1264 14.1472 5.1648-2.3232 10.0512-5.1968 14.6368-8.5504-1.104-2.7072-2.288-5.3984-3.5968-8.0192l5.7248-2.864c1.1136 2.2272 2.1344 4.5056 3.1104 6.7968C200.656 175.28 211.2 152.512 211.2 128h0zm6.4 0c0 27.9264-12.6912 53.7568-34.8128 70.8768-5.4784 4.256-11.4208 7.7888-17.7024 10.6336-2.6656 1.2096-5.3792 2.3296-8.1696 3.2704-9.216 3.1968-18.9536 4.8192-28.9152 4.8192-14.72 0-29.3376-3.6672-42.2784-10.6048C56.5344 191.3792 38.4 161.1104 38.4 128c0-2.1952.0576-3.8656.1888-5.4112C40.768 85.2 66.4192 52.8384 102.4032 42.1312 110.5984 39.6576 119.216 38.4 128 38.4c15.3856 0 30.5248 3.9616 43.7888 11.4528C200.0416 65.68 217.6 95.6288 217.6 128h0zm-98.1952-46.5184-4.2048-4.8224c-7.1744 6.2592-12.7552 12.9056-19.2736 22.944l5.3696 3.4848c6.1696-9.5072 11.4176-15.7664 18.1088-21.6064h0zm-9.7248 41.4848-2.08 6.0512c14.6976 5.0464 27.52 13.0976 40.3488 25.3376l4.4192-4.6304c-13.5232-12.8992-27.088-21.4016-42.688-26.7584h0zm42.7872-37.6288c12.0064 18.3104 18.768 38.4096 20.0928 59.744l-6.3872.3968c-1.2576-20.2112-7.6672-39.264-19.0528-56.6304l5.3472-3.5104z" fill="#fff"/></svg>