<svg width="256px" height="256px" viewBox="0 0 256 256" xmlns="http://www.w3.org/2000/svg" preserveAspectRatio="xMidYMid"><title>AWS Certificate Manager</title><defs><linearGradient x1="0%" y1="100%" x2="100%" y2="0%" id="a"><stop stop-color="#bd0816"/><stop stop-color="#ff5252" offset="1"/></linearGradient></defs><path fill="url(#a)" d="M0 0h256v256H0z"/><path d="M114.2208 125.6992c.8.7712 1.1392 1.8976.9056 2.9824l-3.28 15.0688 14.48-8.8768c1.0272-.6336 2.32-.6336 3.3504.0032l14.3744 8.8544-3.184-15.0944c-.224-1.072.112-2.1824.8928-2.9472l12.9248-12.6528-16.8512-2.432c-1.0496-.1536-1.952-.8128-2.4192-1.7632l-7.4432-15.2384-7.6192 15.2768c-.464.9376-1.3632 1.5872-2.4 1.7376l-16.8032 2.4544 13.072 12.6272zm-10.224 24.0192 4.496-20.656-16.4736-15.9136c-.88-.848-1.1968-2.1184-.8256-3.2832.3744-1.1616 1.376-2.0096 2.5824-2.1824l21.5936-3.1584 9.7664-19.5808c.5408-1.088 1.5648-1.8368 2.8768-1.7728 1.216.0064 2.3264.704 2.8608 1.7952l9.5488 19.5456 21.5808 3.12c1.2064.1728 2.2048 1.0144 2.5824 2.1728.3776 1.1584.0704 2.4288-.8032 3.28l-16.2912 15.9488 4.3616 20.672c.2624 1.2544-.2432 2.544-1.2928 3.28-1.0432.736-2.4256.7776-3.5168.1088l-19.0464-11.7376-19.2 11.7696c-.512.3168-1.0944.4736-1.6736.4736-.6496 0-1.2992-.1984-1.8528-.592-1.0432-.7424-1.5456-2.0384-1.2736-3.2896h0zM44.8 67.2672h166.4V51.2H44.8v16.0672zM217.6 48v160c0 1.7664-1.4336 3.2-3.2 3.2h-19.2v-6.4h16V73.6704H44.8V204.8h121.6v6.4H41.6c-1.7696 0-3.2-1.4336-3.2-3.2V48c0-1.7664 1.4304-3.2 3.2-3.2h172.8c1.7664 0 3.2 1.4336 3.2 3.2h0zM76.8 188.8H96v-6.4H76.8v6.4zm32 0h44.8v-6.4h-44.8v6.4zm-32-16H96v-6.4H76.8v6.4zm32 0h70.4v-6.4h-70.4v6.4z" fill="#fff"/></svg>