<svg width="256px" height="256px" viewBox="0 0 256 256" xmlns="http://www.w3.org/2000/svg" preserveAspectRatio="xMidYMid"><title>AWS Glue</title><defs><linearGradient x1="0%" y1="100%" x2="100%" y2="0%" id="a"><stop stop-color="#4d27a8" offset="0%"/><stop stop-color="#a166ff" offset="100%"/></linearGradient></defs><path fill="url(#a)" d="M0 0h256v256H0z"/><path d="M105.6 73.6h6.4v-6.4h-6.4v6.4zm-6.4 3.2V64c0-1.7664 1.4304-3.2 3.2-3.2h12.8c1.7696 0 3.2 1.4336 3.2 3.2v12.8c0 1.7664-1.4304 3.2-3.2 3.2h-12.8c-1.7696 0-3.2-1.4336-3.2-3.2h0zm32-22.4h6.4V48h-6.4v6.4zm-6.4 3.2V44.8c0-1.7664 1.4304-3.2 3.2-3.2h12.8c1.7696 0 3.2 1.4336 3.2 3.2v12.8c0 1.7664-1.4304 3.2-3.2 3.2H128c-1.7696 0-3.2-1.4336-3.2-3.2h0zm12.8 28.8h6.4V80h-6.4v6.4zm-3.2-12.8h12.8c1.7696 0 3.2 1.4336 3.2 3.2v12.8c0 1.7664-1.4304 3.2-3.2 3.2h-12.8c-1.7696 0-3.2-1.4336-3.2-3.2V76.8c0-1.7664 1.4304-3.2 3.2-3.2h0zm-6.4 33.6c-5.6352 0-26.0672-.24-39.3568-3.5072l32.464 51.3984c.32.512.4928 1.104.4928 1.7088v7.2864c4.4928 1.3024 8.6432 1.3152 12.8.0512V156.8c0-.6048.1728-1.1968.4928-1.7088l32.464-51.3984C154.0672 106.96 133.6352 107.2 128 107.2h0zm-50.3872-8.9856c-.5088-.7424-.8128-1.5424-.8128-2.416 0-9.104 30.0288-10.7872 47.9296-10.9824l.0672 6.4c-21.9904.24-35.4272 2.7488-40.1632 4.6176C89.6576 97.9328 104.4576 100.8 128 100.8c23.4816 0 38.2624-2.8512 43.3248-4.9472-2.0672-.8352-6.3488-2.0704-14.912-3.1168l.7744-6.352c19.3984 2.368 22.0128 6.0864 22.0128 9.4144 0 .8736-.304 1.6736-.8128 2.416L140.8 157.728v8.672c0 1.3056-.7936 2.4832-2.0064 2.9696-3.4912 1.4016-6.9984 2.0992-10.5824 2.0992-3.552 0-7.1744-.688-10.9184-2.0672-1.2544-.464-2.0928-1.6608-2.0928-3.0016v-8.672L77.6128 98.2144zm72.544 92.56c.496 1.1968.2208 2.5728-.6944 3.488l-19.2 19.2c-.624.624-1.4432.9376-2.2624.9376-.8192 0-1.6384-.3136-2.2624-.9376l-19.2-19.2c-.9152-.9152-1.1904-2.2912-.6944-3.488.4928-1.1936 1.664-1.9744 2.9568-1.9744h9.6v-9.6h6.4V192c0 1.7664-1.4304 3.2-3.2 3.2h-5.0752L128 206.6752 139.4752 195.2H134.4c-1.7696 0-3.2-1.4336-3.2-3.2v-12.8h6.4v9.6h9.6c1.2928 0 2.464.7808 2.9568 1.9744h0z" fill="#fff"/></svg>