<svg width="256px" height="256px" viewBox="0 0 256 256" xmlns="http://www.w3.org/2000/svg" preserveAspectRatio="xMidYMid"><title>AWS Athena</title><defs><linearGradient x1="0%" y1="100%" x2="100%" y2="0%" id="a"><stop stop-color="#4d27a8"/><stop stop-color="#a166ff" offset="1"/></linearGradient></defs><path fill="url(#a)" d="M0 0h256v256H0z"/><path d="M122.54416 87.1255398c14.375261 0 22.24894 3.2206442 23.68456 4.835802-1.43562 1.615158-9.309299 4.8358019-23.68456 4.8358019-14.37526 0-22.24894-3.2206439-23.68456-4.8358019 1.43562-1.6151578 9.3093-4.835802 23.68456-4.835802h0zm-1.635718 25.7780482c-.527241-.270805-.898851-.809191-.898851-1.447517 0-.896235.724163-1.628053 1.610309-1.628053.257268 0 .492304.074149.711458.186984l-1.422916 2.888586zm18.507434 26.587239c-.238212.193432-.78451.567401-1.908867 1.018742-1.000488.39976-2.185192.760833-3.528704 1.076772-3.569994.838206-7.959435 1.299219-12.361581 1.299219-9.626914 0-16.334946-2.079395-17.780095-3.368942l-4.2655711-39.8341124c6.5396951 2.6758104 16.1729621 3.5623744 22.9731021 3.5623744 6.685799 0 16.109439-.860773 22.645959-3.4334198l-2.55045 17.5184988c-4.805517-1.811814-10.80209-4.442491-16.484225-7.208569-.578059-2.005246-2.378937-3.481778-4.535544-3.481778-2.617149 0-4.74517 2.163216-4.74517 4.816459 0 2.659691 2.128021 4.819683 4.74517 4.819683.61935 0 1.210114-.128955 1.750059-.348178 7.940379 3.920223 13.857549 6.434841 18.310513 7.985521l-2.264596 15.57773zM92.3897798 92.3095197l5.1421892 48.0098413c.3620812 8.910771 23.1065 9.013935 24.084755 9.013935 4.86904 0 9.766665-.522267 13.790849-1.463636 1.648422-.386864 3.141214-.844654 4.433907-1.363696 3.754211-1.508771 5.723425-3.565599 5.859999-6.10923l2.140726-14.713734c1.457854.29982 2.64891.431999 3.59858.431999 2.988758 0 3.776443-1.22507 4.319565-2.069723.571708-.889788.736867-1.982679.47007-3.082018-.60982-2.527513-4.176638-5.854544-6.558752-7.830775l3.010992-20.7004564-.028586-.003224c.012705-.1579693.063523-.3062672.063523-.4674608 0-8.9075469-18.967975-11.2835376-30.173437-11.2835376-11.205461 0-30.1734371 2.3759907-30.1734371 11.2835376 0 .1192832.0412902.2256707.0476422.3449539l-.0285853.003224zm28.6838222-28.1185763c27.683335 0 50.205423 22.8604476 50.205423 50.9596806 0 28.099233-22.522088 50.95968-50.205423 50.95968-27.6865105 0-50.2085994-22.860447-50.2085994-50.95968 0-28.099233 22.5220889-50.9596806 50.2085994-50.9596806h0zM41.5523024 133.871625v6.447736H70.137664v-.380417c9.1377872 19.259388 28.5059578 32.619096 50.935938 32.619096 31.183453 0 56.557726-25.752257 56.557726-57.407416 0-31.6551594-25.374273-57.4074163-56.557726-57.4074163-24.2626196 0-44.9425406 15.6164163-52.9591463 37.4420022H41.5523024v6.4477361h24.6119965c-.9909594 4.149118-1.5721949 8.452981-1.6198371 12.895471H35.2v6.447736h29.6049059c.4478375 4.477953 1.4546775 8.778593 2.8585363 12.895472H41.5523024zm173.1034216 77.440532c-3.843144 3.907327-10.506709 3.929895-14.346676.035462l-34.124569-34.640461c5.491565-4.155565 10.392367-9.059069 14.594415-14.542868l33.914943 34.588879c1.908867 1.940769 2.960173 4.526311 2.953878 7.27627-.003233 2.756407-1.064068 5.338725-2.991991 7.282718h0zm4.535544-19.111089-34.674044-35.369056c7.686286-12.012131 12.171012-26.319657 12.171012-41.681388 0-42.3229382-33.921296-76.750624-75.614634-76.750624-29.960635 0-57.129433 17.9827354-69.2210407 45.8143872l5.8123568 2.5984374C68.7401574 61.3217011 93.628479 44.847736 121.073602 44.847736c38.193219 0 69.262331 31.5358762 69.262331 70.302888 0 38.763788-31.069112 70.302888-69.262331 70.302888-25.5140231 0-48.8904964-14.175347-61.013866-36.993884l-5.5900262 3.062674c13.22867 24.907604 38.7522217 40.378946 66.6038922 40.378946 14.578534 0 28.201047-4.220043 39.759062-11.505985l34.988482 35.514129c3.106276 3.152943 7.238449 4.890608 11.62789 4.890608 4.41485 0 8.572432-1.75056 11.691413-4.919622 3.125333-3.152943 4.853159-7.356867 4.85959-11.841267.00945-4.477953-1.702496-8.681877-4.808771-11.838043h0z" fill="#fff"/></svg>