<svg width="256px" height="256px" viewBox="0 0 256 256" xmlns="http://www.w3.org/2000/svg" preserveAspectRatio="xMidYMid"><title>AWS QuickSight</title><defs><linearGradient x1="0%" y1="100%" x2="100%" y2="0%" id="a"><stop stop-color="#4d27a8" offset="0%"/><stop stop-color="#a166ff" offset="100%"/></linearGradient></defs><path fill="url(#a)" d="M0 0h256v256H0z"/><path d="M208 76.8c0-3.5296-2.8704-6.4-6.4-6.4-3.5296 0-6.4 2.8704-6.4 6.4 0 3.5296 2.8704 6.4 6.4 6.4 3.5296 0 6.4-2.8704 6.4-6.4h0zm-73.6 73.6c0-3.5296-2.8704-6.4-6.4-6.4-3.5296 0-6.4 2.8704-6.4 6.4 0 3.5296 2.8704 6.4 6.4 6.4 3.5296 0 6.4-2.8704 6.4-6.4h0zm-6.4-44.8c3.5296 0 6.4-2.8704 6.4-6.4 0-3.5296-2.8704-6.4-6.4-6.4-3.5296 0-6.4 2.8704-6.4 6.4 0 3.5296 2.8704 6.4 6.4 6.4h0zm-67.2000001 64c0-3.5296-2.8704-6.4-6.4-6.4-3.5296 0-6.4 2.8704-6.4 6.4 0 3.5296 2.8704 6.4 6.4 6.4 3.5296 0 6.4-2.8704 6.4-6.4h0zM214.4 76.8c0 7.0592-5.7408 12.8-12.8 12.8-2.6592 0-5.1328-.816-7.1776-2.2112l-55.4944 56.4448c1.1616 1.9264 1.872 4.1568 1.872 6.5664 0 7.0592-5.7408 12.8-12.8 12.8-7.0592 0-12.8-5.7408-12.8-12.8 0-5.9456 4.0928-10.9152 9.6-12.3456v-26.5088c-1.9424-.5056-3.696-1.456-5.168-2.7392l-54.4320001 53.9904c1.2512 1.9744 2 4.2976 2 6.8032 0 7.0592-5.7408 12.8-12.8 12.8-7.0592 0-12.8-5.7408-12.8-12.8 0-7.0592 5.7408-12.8 12.8-12.8 2.2272 0 4.2944.624 6.1184 1.6288L115.9712 103.424c-.4672-1.3312-.7712-2.736-.7712-4.224 0-7.0592 5.7408-12.8 12.8-12.8 7.0592 0 12.8 5.7408 12.8 12.8 0 5.9456-4.0928 10.9152-9.6 12.3456v26.5088c1.1232.2912 2.176.736 3.1552 1.3024l55.8624-56.8224C189.3408 80.8 188.8 78.8704 188.8 76.8c0-7.0592 5.7408-12.8 12.8-12.8 7.0592 0 12.8 5.7408 12.8 12.8h0zM54.3999999 54.4H201.6v3.2h6.4v-6.4c0-1.7664-1.4304-3.2-3.2-3.2H51.1999999c-1.7696 0-3.2 1.4336-3.2 3.2v99.2h6.4v-96zM201.6 96h6.4v108.8c0 1.7664-1.4304 3.2-3.2 3.2H51.1999999c-1.7696 0-3.2-1.4336-3.2-3.2v-16h6.4v12.8H201.6V96z" fill="#fff"/></svg>