<svg width="256px" height="256px" viewBox="0 0 256 256" xmlns="http://www.w3.org/2000/svg" preserveAspectRatio="xMidYMid"><title>AWS EventBridge</title><defs><linearGradient x1="0%" y1="100%" x2="100%" y2="0%" id="a"><stop stop-color="#b0084d"/><stop stop-color="#ff4f8b" offset="1"/></linearGradient></defs><path fill="url(#a)" d="M0 0h256v256H0z"/><path d="M171.701581 211.2c-6.857459 0-12.438889-5.6096-12.438889-12.5088 0-6.8992 5.58143-12.5088 12.438889-12.5088 6.857458 0 12.438889 5.6096 12.438889 12.5088 0 6.8992-5.581431 12.5088-12.438889 12.5088h0zm-27.277093-54.4h-33.071724L94.8153104 128l16.5374536-28.8h33.071724L160.95876 128l-16.534272 28.8zM88.3874371 69.8176c-6.8574582 0-12.4388886-5.6096-12.4388886-12.5088 0-6.8992 5.5814304-12.5088 12.4388886-12.5088 6.860641 0 12.4420709 5.6096 12.4420709 12.5088 0 6.8992-5.5814299 12.5088-12.4420709 12.5088h0zm83.3141439 109.9648c-2.36113 0-4.614067.4576-6.698353 1.2608l-13.514444-22.9312-.712794.4256L167.389815 129.6c.566416-.992.566416-2.208 0-3.2l-18.373534-32c-.569599-.992-1.619697-1.6-2.755712-1.6h-33.434486l.130467-.0768-12.391157-21.0304c4.04765-3.4688 6.628346-8.6272 6.628346-14.384 0-10.4256-8.435788-18.9088-18.8063019-18.9088-10.3673315 0-18.8031193 8.4832-18.8031193 18.9088 0 10.4256 8.4357878 18.9088 18.8031193 18.9088 2.364312 0 4.6172496-.4576 6.7015351-1.2608l11.5669888 19.6256L88.384255 126.4c-.5664163.992-.5664163 2.208 0 3.2l18.376716 32c.569599.992 1.619697 1.6 2.755712 1.6h36.743886c.264115 0 .521867-.0416.770072-.1024l12.496167 21.2096c-4.050833 3.4688-6.628347 8.6272-6.628347 14.384 0 10.4256 8.432606 18.9088 18.80312 18.9088 10.370514 0 18.803119-8.4832 18.803119-18.9088 0-10.4256-8.432605-18.9088-18.803119-18.9088h0zm18.96859-77.0496c-6.857459 0-12.435707-5.6096-12.435707-12.5088 0-6.8992 5.578248-12.5088 12.435707-12.5088 6.857458 0 12.438888 5.6096 12.438888 12.5088 0 6.8992-5.58143 12.5088-12.438888 12.5088h0zm23.30263 23.6672-12.07931-21.04c4.591793-3.4528 7.579799-8.944 7.579799-15.136 0-10.4256-8.432606-18.9088-18.803119-18.9088-2.637974 0-5.151845.5536-7.433422 1.5488l-9.848647-17.1552c-.566417-.9888-1.619697-1.6-2.755712-1.6h-39.448684v6.4h37.612604l9.110396 15.872c-3.703982 3.456-6.036473 8.3744-6.036473 13.8432 0 10.4256 8.432606 18.9088 18.799938 18.9088 1.931544 0 3.799445-.2976 5.555973-.8448L207.544928 128l-15.891484 27.6736 5.511424 3.2L213.972801 129.6c.569599-.992.569599-2.208 0-3.2h0zM67.9328 176.7904c-6.8606406 0-12.442071-5.6128-12.442071-12.5088 0-6.8992 5.5814304-12.5088 12.442071-12.5088 6.8574586 0 12.4388886 5.6096 12.4388886 12.5088 0 6.896-5.58143 12.5088-12.4388886 12.5088h0zm10.3927885 3.2352c5.0627456-3.392 8.4103309-9.1808 8.4103309-15.744 0-10.4256-8.4357879-18.9088-18.8031194-18.9088-3.0039171 0-5.8328176.7296-8.3530528 1.9936L48.4582541 128l18.4276297-32.0928-5.5146057-3.2L42.027199 126.4c-.5695987.992-.5695987 2.208 0 3.2l12.3879751 21.568c-3.2680327 3.4048-5.2886759 8.0224-5.2886759 13.1136 0 10.4256 8.4357879 18.9088 18.8063018 18.9088 1.5624186 0 3.0739232-.2144 4.5281501-.5792l10.1509478 17.68c.5695987.9888 1.6196967 1.6 2.755712 1.6h39.4518661v-6.4H87.2036902l-8.8781017-15.4656z" fill="#fff"/></svg>