<svg width="256px" height="256px" viewBox="0 0 256 256" xmlns="http://www.w3.org/2000/svg" preserveAspectRatio="xMidYMid"><title>AWS Elastic Kubernetes Service (EKS)</title><defs><linearGradient x1="0%" y1="100%" x2="100%" y2="0%" id="a"><stop stop-color="#c8511b" offset="0%"/><stop stop-color="#f90" offset="100%"/></linearGradient></defs><path fill="url(#a)" d="M0 0h256v256H0z"/><path d="M149.8944 103.036854l-21.8528 25.347188 23.7696 27.724787h-8.8704L121.6 131.200054v25.6h-6.4v-54.4h6.4v22.4l19.7792-21.7632h8.5152zM204.8 154.34883l-25.6-15.363193v-36.585583c0-1.139199-.6016-2.191999-1.5872-2.7647986L140.8 78.1632653V47.2064794l64 37.8207827V154.34883zm4.8288-73.903966-70.4-41.5999808c-.992-.5855997-2.2112-.5919997-3.216-.0256-.9952.5695997-1.6128 1.631999-1.6128 2.7807987v38.3999824c0 1.1359994.6048 2.1887991 1.5872 2.7647987l36.8128 21.47199v36.563183c0 1.1232.592 2.1664 1.5552 2.742399l32 19.199992c.5056.303999 1.0752.457573 1.6448.457573.544 0 1.088-.137574 1.5776-.415973 1.0048-.5664 1.6224-1.632 1.6224-2.784027V83.2000627c0-1.1327993-.5952-2.1791987-1.5712-2.7551987h0zM129.424 213.961603 54.4 174.076821V85.0272621l64-37.8207827v31.0367859L84.6816 99.6992554c-.9216.5887996-1.4816 1.6063996-1.4816 2.7007986v54.399975c0 1.1936.6656 2.287999 1.7216 2.838399l43.0496 22.39999c.9248.48 2.0256.4832 2.9472.0032l41.7664-21.58079 25.7024 15.423992-68.9632 38.076783zm77.024-40.707181-32-19.199992c-.9536-.569599-2.1312-.607999-3.1168-.096l-41.8752 21.635191L89.6 154.85763v-50.700777l33.7184-21.45599c.9216-.5887996 1.4816-1.6063993 1.4816-2.7007987V41.6000819c0-1.1487997-.6144-2.211199-1.6128-2.7807987-.9984-.5663997-2.2208-.5599997-3.216.0256l-70.4 41.5999808c-.9728.576-1.5712 1.6223994-1.5712 2.7551987V176c0 1.18082.6528 2.26882 1.696 2.825619l78.2528 41.599981c.4704.2496.9856.3744 1.5008.3744.5344 0 1.0656-.1344 1.5488-.4l75.3504-41.599981c1.0016-.553599 1.6288-1.599999 1.652086-2.742399.018314-1.145599-.573686-2.214399-1.552886-2.803198h0z" fill="#fff"/></svg>