<svg width="256px" height="256px" viewBox="0 0 256 256" xmlns="http://www.w3.org/2000/svg" preserveAspectRatio="xMidYMid"><title>AWS Lambda</title><defs><linearGradient x1="0%" y1="100%" x2="100%" y2="0%" id="a"><stop stop-color="#c8511b" offset="0%"/><stop stop-color="#f90" offset="100%"/></linearGradient></defs><path fill="url(#a)" d="M0 0h256v256H0z"/><path d="M89.6241126 211.2H49.8903277l43.9451555-91.8528 19.9117968 40.992L89.6241126 211.2zm7.0788231-100.6304c-.5388499-1.104-1.6614544-1.8048-2.8866973-1.8048h-.0096221c-1.2348649.0032-2.3574697.7104-2.8866976 1.8208L41.9134208 213.0208c-.4747011.992-.407345 2.1568.1828243 3.088.5837543.928 1.6101354 1.4912 2.710288 1.4912H91.654423c1.2412797 0 2.3670919-.7136 2.8995271-1.8304l25.6499089-54.08c.41376-.8768.410553-1.8912-.016037-2.7616l-23.4848863-48.3584zM207.985117 211.2h-39.477189L105.173789 78.624c-.529228-1.1136-1.658248-1.824-2.89632-1.824H76.447943l.0288669-32h50.6262561l63.042262 132.5728c.529228 1.1136 1.658247 1.8272 2.896319 1.8272h14.94347v32zm3.207441-38.4h-16.1206L132.029696 40.2272c-.529228-1.1136-1.658247-1.8272-2.899527-1.8272H73.272576c-1.7673002 0-3.2042339 1.4304-3.2074416 3.1968l-.0352816 38.4c0 .8512.3335738 1.664.9397802 2.2656.5997916.6016 1.4144816.9376 2.2676611.9376h27.0162789l63.337347 132.576c.532435 1.1136 1.65504 1.824 2.893112 1.824h44.708526c1.773716 0 3.207442-1.4336 3.207442-3.2V176c0-1.7664-1.433726-3.2-3.207442-3.2h0z" fill="#fff"/></svg>