<svg width="256px" height="256px" viewBox="0 0 256 256" xmlns="http://www.w3.org/2000/svg" preserveAspectRatio="xMidYMid"><title>AWS CodePipeline</title><defs><linearGradient x1="0%" y1="100%" x2="100%" y2="0%" id="a"><stop stop-color="#2e27ad" offset="0%"/><stop stop-color="#527fff" offset="100%"/></linearGradient></defs><path fill="url(#a)" d="M0 0h256v256H0z"/><path d="M96 99.2h16v-6.4H96v6.4zm21.3344 96.5312-5.92-2.4288 24.2944-59.2704 5.92 2.4288-24.2944 59.2704zm28.4928-17.2352 17.5904-15.4304-17.5776-15.2352 4.1952-4.8384 20.3488 17.6416c.6976.6048 1.1008 1.4848 1.104038 2.4096.003162.9248-.393638 1.8048-1.091238 2.416l-20.3488 17.8496-4.2208-4.8128zm-64.1985518-15.1424c-.0062482-.9248.3873518-1.8048 1.0817518-2.416l20.2784-17.9264 4.2368 4.7968-17.5328 15.4976 17.4368 15.0304-4.1824 4.848-20.2112-17.4272c-.6976-.6016-1.1008-1.4784-1.1073518-2.4032h0zM200.112 112H59.088C52.976 112 48 107.0272 48 100.9152V99.2h38.4v-6.4H48V59.0848C48 52.9728 52.976 48 59.088 48h141.024c6.112 0 11.088 4.9728 11.088 11.0848V92.8h-89.6v6.4h89.6v1.7152c0 6.112-4.976 11.0848-11.088 11.0848h0zM70.4 211.2h115.2v-92.8H70.4v92.8zM200.112 41.6H59.088c-9.6448 0-17.488 7.8432-17.488 17.4848v41.8304c0 9.6416 7.8432 17.4848 17.488 17.4848H64v96c0 1.7664 1.4304 3.2 3.2 3.2h121.6c1.7696 0 3.2-1.4336 3.2-3.2v-96h8.112c9.6448 0 17.488-7.8432 17.488-17.4848V59.0848c0-9.6416-7.8432-17.4848-17.488-17.4848h0z" fill="#fff"/></svg>