<svg width="256" height="256" xmlns="http://www.w3.org/2000/svg" preserveAspectRatio="xMidYMid"><defs><linearGradient x1="0%" y1="100%" x2="100%" y2="0%" id="a"><stop stop-color="#B0084D" offset="0%"/><stop stop-color="#FF4F8B" offset="100%"/></linearGradient></defs><path fill="url(#a)" d="M0 0h256v256H0z"/><path d="M109.008 178.024h9.392v-6.455h-9.392v6.455zm15.792 0h9.6v-6.455h-9.6v6.455zM86.4 46.814L44.8 67.463v128.356l41.6 14.068V46.814zm6.4 40.845v83.91h9.6v6.455h-9.6v36.349c0 1.039-.496 2.014-1.331 2.62a3.177 3.177 0 01-2.887.44l-48-16.23a3.226 3.226 0 01-2.182-3.06V65.452c0-1.226.694-2.353 1.789-2.895l48-23.824a3.163 3.163 0 013.1.155 3.233 3.233 0 011.511 2.74v39.576h9.6v6.455h-9.6zm48 90.365h9.6v-6.455h-9.6v6.455zm.208-90.365h9.392v-6.455h-9.392v6.455zm-16 0h9.392v-6.455h-9.392v6.455zm-16 0h9.392v-6.455h-9.392v6.455zM211.2 67.463l-41.6-20.649v163.073l41.6-14.068V67.463zm6.4 130.68a3.226 3.226 0 01-2.182 3.06l-48 16.23a3.173 3.173 0 01-2.887-.44 3.238 3.238 0 01-1.331-2.62v-36.35h-6.192v-6.454h6.192v-83.91h-6.192v-6.455h6.192V41.628c0-1.117.573-2.153 1.51-2.74a3.163 3.163 0 013.101-.155l48 23.824a3.233 3.233 0 011.789 2.895v132.69zm-80.211-89.962l-5.978-2.317-16 41.955 5.978 2.317 16-41.955zm21.673 20.487a3.243 3.243 0 000-4.563l-12.8-12.91-4.524 4.564 10.537 10.628-10.537 10.627 4.524 4.564 12.8-12.91zm-49.324 12.91l-12.8-12.91a3.243 3.243 0 010-4.563l12.8-12.91 4.524 4.564-10.537 10.628 10.537 10.627-4.524 4.564z" fill="#FFF"/></svg>