<svg width="256px" height="256px" viewBox="0 0 256 256" xmlns="http://www.w3.org/2000/svg" preserveAspectRatio="xMidYMid"><title>AWS Redshift</title><defs><linearGradient x1="0%" y1="100%" x2="100%" y2="0%" id="a"><stop stop-color="#4d27a8"/><stop stop-color="#a166ff" offset="1"/></linearGradient></defs><path fill="url(#a)" d="M0 0h256v256H0z"/><path d="M162.640114 112.545563c-3.391452 0-6.146806-2.750149-6.146806-6.132004 0-3.381854 2.755354-6.135194 6.146806-6.135194 3.388255 0 6.143609 2.75334 6.143609 6.135194 0 3.381855-2.755354 6.132004-6.143609 6.132004m-15.569991 37.292921c-3.388255 0-6.14361-2.750149-6.14361-6.132003 0-3.381855 2.755355-6.132005 6.14361-6.132005 3.388255 0 6.146806 2.75015 6.146806 6.132005 0 3.381854-2.758551 6.132003-6.146806 6.132003m-37.366701-6.214955c-3.385058 0-6.140413-2.750149-6.140413-6.132004 0-3.381854 2.755355-6.135194 6.140413-6.135194 3.391452 0 6.146807 2.75334 6.146807 6.135194 0 3.381855-2.755355 6.132004-6.146807 6.132004m-15.5667942 34.185444c-3.3850585 0-6.1436096-2.750149-6.1436096-6.132004 0-3.381854 2.7585511-6.132004 6.1436096-6.132004 3.3914516 0 6.1468062 2.75015 6.1468062 6.132004 0 3.381855-2.7553546 6.132004-6.1468062 6.132004m68.5034862-83.9114655c-6.913959 0-12.539741 5.6151546-12.539741 12.5160515 0 4.230509 2.125651 7.96012 5.357279 10.228515l-5.849535 14.80997c-.821492-.169093-1.671752-.258425-2.537994-.258425-5.497924 0-10.129605 3.57328-11.814143 8.502493l-13.089532-2.97029c-.405952-6.537188-5.807981-11.750348-12.463026-11.750348-6.910761 0-12.5333468 5.615154-12.5333468 12.516051 0 3.225524 1.259408 6.141576 3.2763788 8.362114l-5.7120866 13.371087c-.2045741-.012762-.3931655-.060618-.5977396-.060618-6.9107616 0-12.5365436 5.611964-12.5365436 12.512861 0 6.897707 5.625782 12.512861 12.5365436 12.512861 6.9139582 0 12.5397402-5.615154 12.5397402-12.512861 0-4.428315-2.327028-8.301495-5.814373-10.528415l5.040828-11.795014c1.208265.386041 2.467673.650847 3.800599.650847 4.932149 0 9.167468-2.880957 11.210011-7.018943l13.866274 3.145762c1.134745 5.742772 6.210735 10.088136 12.290416 10.088136 6.913958 0 12.53974-5.611964 12.53974-12.512861 0-3.729612-1.678146-7.044467-4.28007-9.341576l6.146807-15.55653c.389969.038285.763955.118046 1.163514.118046 6.910761 0 12.536543-5.615155 12.536543-12.512862 0-6.9008969-5.625782-12.5160515-12.536543-12.5160515M128 211.219143c-31.1399821 0-54.4070659-9.347956-54.4070659-17.70688V74.0849453c10.5930918 8.6077766 33.0163089 13.157328 54.4741919 13.157328 21.361989 0 43.689312-4.5112663 54.33994-13.0456631V193.512263c0 8.358924-23.27028 17.70688-54.407066 17.70688m.067126-166.4382857c32.022207 0 54.33994 9.5074777 54.33994 18.0418745 0 8.5312064-22.317733 18.0386839-54.33994 18.0386839-32.0254038 0-54.3399404-9.5074775-54.3399404-18.0386839 0-8.5343968 22.3145366-18.0418745 54.3399404-18.0418745M188.8 62.8227318C188.8 46.9599203 157.509784 38.4 128.067126 38.4c-29.4426582 0-60.7328745 8.5599203-60.7328745 24.4227318 0 .0255236.006393.0542372.006393.0797607H67.2V193.512263C67.2 209.158126 98.5253773 217.6 128 217.6c29.474623 0 60.8-8.441874 60.8-24.087737V62.9024925h-.006393c0-.0255235.006393-.0542371.006393-.0797607" fill="#fff"/></svg>