<svg width="256px" height="256px" viewBox="0 0 256 256" xmlns="http://www.w3.org/2000/svg" preserveAspectRatio="xMidYMid"><title>AWS Secrets Manager</title><defs><linearGradient x1="0%" y1="100%" x2="100%" y2="0%" id="a"><stop stop-color="#bd0816"/><stop stop-color="#ff5252" offset="1"/></linearGradient></defs><path fill="url(#a)" d="M0 0h256v256H0z"/><path d="M124.032 138.752c0 2.1888 1.7824 3.968 3.968 3.968 2.1888 0 3.968-1.7792 3.968-3.968 0-2.1888-1.7792-3.968-3.968-3.968-2.1856 0-3.968 1.7792-3.968 3.968h0zm-6.4 0c0-5.7184 4.6496-10.368 10.368-10.368 5.7184 0 10.368 4.6496 10.368 10.368 0 4.5952-3.0208 8.4544-7.168 9.8112V156.8h-6.4v-8.2368c-4.1472-1.3568-7.168-5.216-7.168-9.8112h0zM156.8 121.6H99.2v41.6h57.6v-9.6h-9.6v-6.4h9.6v-9.6h-9.6v-6.4h9.6v-9.6zm-48-6.4h38.3968l.003201-16c.003199-8.3712-9.142401-15.9936-19.187201-16h-.0096c-4.8928 0-9.8336 1.8368-13.5616 5.04-3.584 3.0784-5.6416 7.0752-5.6416 10.9632V115.2zm44.8-15.9968-.0032 15.9968H160c1.7696 0 3.2 1.4336 3.2 3.2v48c0 1.7664-1.4304 3.2-3.2 3.2H96c-1.7696 0-3.2-1.4336-3.2-3.2v-48c0-1.7664 1.4304-3.2 3.2-3.2h6.4v-16c.0032-5.7536 2.8704-11.5168 7.8688-15.8144C115.1424 79.2 121.6032 76.8 128.0032 76.8h.0096c13.6352.0064 25.5904 10.4736 25.5872 22.4032h0zm-92.1376 76.9536 5.1872-3.7504c-8.752-12.096-13.5904-26.288-14.1824-41.2064H60.8v-6.4h-8.3232c.6368-14.8288 5.4688-28.9376 14.1728-40.9664L61.4624 80.08c-9.4976 13.1296-14.7456 28.5344-15.3856 44.72H38.4v6.4h7.6672c.5952 16.2752 5.8496 31.7632 15.3952 44.9568h0zm110.8192 13.3088c-12.0608 8.7296-26.208 13.5616-41.0816 14.1792V195.2h-6.4v8.4448c-14.8736-.6144-29.024-5.4464-41.0912-14.1792l-3.7472 5.184c13.1584 9.5264 28.608 14.7744 44.8384 15.3952V217.6h6.4v-7.5552c16.2304-.6208 31.6736-5.8688 44.832-15.3952l-3.7504-5.184zM83.7088 66.7712c12.0672-8.7296 26.2176-13.5616 41.0912-14.176V60.8h6.4v-8.2048c14.8736.6144 29.0208 5.4464 41.0816 14.176l3.7504-5.184c-13.1584-9.5232-28.6016-14.7712-44.832-15.392V38.4h-6.4v7.7952c-16.2304.6176-31.68 5.8656-44.8384 15.392l3.7472 5.184zM209.9168 124.8c-.64-16.1856-5.888-31.5904-15.3888-44.72l-5.1872 3.7536c8.7072 12.0288 13.5392 26.1376 14.176 40.9664H195.2v6.4h8.3264c-.5952 14.9184-5.4304 29.1104-14.1856 41.2064l5.1872 3.7504c9.5488-13.1936 14.8-28.6816 15.3984-44.9568H217.6v-6.4h-7.6832zm-29.4816-44.5952 25.088-25.088-4.5248-4.5248-25.088 25.088 4.5248 4.5248zM75.5584 176.032l-25.088 25.088 4.5248 4.5248 25.088-25.088-4.5248-4.5248zm16.1728-88.8224L44.24 39.7216l-4.5248 4.5248 47.4912 47.488 4.5248-4.5248zm81.6864 81.6864 42.8576 42.8576-4.5248 4.5248-42.8576-42.8576 4.5248-4.5248z" fill="#fff"/></svg>