<svg width="256px" height="256px" viewBox="0 0 256 256" xmlns="http://www.w3.org/2000/svg" preserveAspectRatio="xMidYMid"><title>AWS Elastic Load Balancing (ELB)</title><defs><linearGradient x1="0%" y1="100%" x2="100%" y2="0%" id="a"><stop stop-color="#4d27a8" offset="0%"/><stop stop-color="#a166ff" offset="100%"/></linearGradient></defs><path fill="url(#a)" d="M0 0h256v256H0z"/><path d="M96 169.6c-22.9376 0-41.6-18.6624-41.6-41.6 0-22.9376 18.6624-41.6 41.6-41.6 22.9376 0 41.6 18.6624 41.6 41.6 0 22.9376-18.6624 41.6-41.6 41.6m96 19.2c0 7.0592-5.7408 12.8-12.8 12.8-7.0592 0-12.8-5.7408-12.8-12.8 0-7.0592 5.7408-12.8 12.8-12.8 7.0592 0 12.8 5.7408 12.8 12.8M179.2 54.4c7.0592 0 12.8 5.7408 12.8 12.8 0 7.0592-5.7408 12.8-12.8 12.8-7.0592 0-12.8-5.7408-12.8-12.8 0-7.0592 5.7408-12.8 12.8-12.8m9.6 60.8c7.0592 0 12.8 5.7408 12.8 12.8 0 7.0592-5.7408 12.8-12.8 12.8-7.0592 0-12.8-5.7408-12.8-12.8 0-7.0592 5.7408-12.8 12.8-12.8m-44.9632 16h26.0512c1.5296 9.0656 9.4176 16 18.912 16 10.5888 0 19.2-8.6112 19.2-19.2 0-10.5888-8.6112-19.2-19.2-19.2-9.4944 0-17.3824 6.9344-18.912 16h-26.0512c-.4032-6.0832-1.936-11.8496-4.4064-17.1072l28.3968-25.0592C171.0144 84.9888 174.9408 86.4 179.2 86.4c10.5888 0 19.2-8.6112 19.2-19.2 0-10.5888-8.6112-19.2-19.2-19.2-10.5888 0-19.2 8.6112-19.2 19.2 0 4.0192 1.2448 7.7472 3.3632 10.8352l-27.104 23.9136C127.6928 88.7616 112.8672 80 96 80c-26.4672 0-48 21.5328-48 48 0 26.4672 21.5328 48 48 48 16.8672 0 31.6928-8.7616 40.2592-21.9488l27.104 23.9136C161.2448 181.0528 160 184.7808 160 188.8c0 10.5888 8.6112 19.2 19.2 19.2 10.5888 0 19.2-8.6112 19.2-19.2 0-10.5888-8.6112-19.2-19.2-19.2-4.2592 0-8.1856 1.4112-11.3728 3.7664l-28.3968-25.0592c2.4704-5.2576 4.0032-11.024 4.4064-17.1072" fill="#fff"/></svg>