<svg width="256px" height="256px" viewBox="0 0 256 256" xmlns="http://www.w3.org/2000/svg" preserveAspectRatio="xMidYMid"><title>AWS CodeCommit</title><defs><linearGradient x1="0%" y1="100%" x2="100%" y2="0%" id="a"><stop stop-color="#2e27ad" offset="0%"/><stop stop-color="#527fff" offset="100%"/></linearGradient></defs><path fill="url(#a)" d="M0 0h256v256H0z"/><path d="M85.2106195 89.9351203h-6.4566371V67.5937664c0-1.7873085 1.1525098-3.1692806 2.9635965-3.1692806l22.8629521-.0223415v6.3832442H89.4397168l15.5572672 15.4187257-4.622952 4.5895524-15.3797098-15.1282884.2162973 14.2697421zm89.8247365 34.7759137 5.978846 2.645854-20.932418 46.227453-5.975618-2.645855 20.92919-46.227452zm4.193585 33.575863 12.809969-9.246129-11.282974-11.3143 4.664921-4.548061 13.949564 13.99207c.668262.670241 1.010464 1.595812.929756 2.534148-.074251.938337-.561727 1.800075-1.333296 2.352226l-15.880099 11.457923-3.857841-5.227877zm-28.938647-28.166064 3.85784 5.227877-12.99721 9.380177 11.321713 11.317491-4.652007 4.554445-13.997989-13.992071c-.671491-.670241-1.016921-1.595811-.936213-2.534148.074252-.941528.558499-1.800075 1.333296-2.355417l16.07057-11.598354zM220.8 77.2165066V214.360504c0 1.7905-1.465657 3.239496-3.276743 3.239496H117.493805c-.871646 0-1.701324-.341504-2.314704-.951103-.613381-.606409-.913614-1.381973-.913614-2.240519v-38.299464h6.456637v35.107842h93.621239V80.3602544h-93.621239v-6.3832442h96.801133c1.811086 0 3.276743 1.4489965 3.276743 3.2394964h0zM106.181777 110.680663c0-6.166213 5.071689-11.1834432 11.312028-11.1834432 6.24034 0 11.312029 5.0172302 11.312029 11.1834432 0 6.166214-5.071689 11.183444-11.312029 11.183444-6.240339 0-11.312028-5.01723-11.312028-11.183444h0zm-50.0260247 100.54886c-6.2403398 0-11.3120285-5.01723-11.3120285-11.183444 0-6.166214 5.0716887-11.183443 11.3120285-11.183443 6.2403399 0 11.3120282 5.017229 11.3120282 11.183443 0 6.166214-5.0716883 11.183444-11.3120282 11.183444h0zm-11.3120285-75.015884c0-6.166213 5.0716887-11.183443 11.3120285-11.183443 6.3436458 0 11.3120282 4.911906 11.3120282 11.183443 0 6.166214-5.0716883 11.183444-11.3120282 11.183444-6.2403398 0-11.3120285-5.01723-11.3120285-11.183444h0zm.0129133-80.259718c0-6.1598304 5.0684602-11.1706772 11.2991152-11.1706772 6.2306547 0 11.2991149 5.0108468 11.2991149 11.1706772 0 6.1566387-5.0684602 11.1706771-11.2991149 11.1706771-6.230655 0-11.2991152-5.0140384-11.2991152-11.1706771h0zm75.8654869 95.241192v-23.286074c8.222527-1.525595 14.51452-8.665254 14.51452-17.228376 0-9.670614-7.961033-17.5411542-17.742839-17.5411542-9.781805 0-17.7428386 7.8705402-17.7428386 17.5411542 0 8.563122 6.2919926 15.702781 14.5145206 17.228376v23.286074c0 3.721431-2.51486 7.094976-6.33719 8.595038l-33.4421517 13.120758c-5.3525523 2.100087-9.2878727 6.230046-10.9891965 11.186635-1.3849488-.625558-2.5632851-1.075577-4.1128781-1.334098v-29.267174c8.3936285-1.385164 14.5145203-8.598229 14.5145203-17.282633 0-8.843984-6.0111289-15.910235-14.5145203-17.2571v-45.71041c8.4033133-1.3819725 14.5274336-8.6014215 14.5274336-17.292208 0-9.6801895-7.9642617-17.553921-17.755752-17.553921C46.3642621 38.4 38.4 46.2737315 38.4 55.953921c0 8.4482233 6.4695504 15.5208576 14.5274336 17.1805011v45.9114829c-8.0481981 1.659643-14.5145203 8.725894-14.5145203 17.167734 0 8.44184 6.4663222 15.508092 14.5145203 17.167735v29.49697c-8.0481981 1.659644-14.5145203 8.725895-14.5145203 17.167735 0 9.670615 7.9610336 17.541155 17.742839 17.541155 9.7818051 0 17.7428387-7.87054 17.7428387-17.541155 0-4.554444-1.7820316-8.69717-4.6681484-11.818576.5359008-4.066127 3.4123328-7.627977 7.6704848-9.297195L110.34308 165.80955c6.333961-2.486274 10.379044-8.221618 10.379044-14.614437h0z" fill="#fff"/></svg>