<svg width="256px" height="256px" viewBox="0 0 256 256" xmlns="http://www.w3.org/2000/svg" preserveAspectRatio="xMidYMid"><title>AWS Route 53</title><defs><linearGradient x1="0%" y1="100%" x2="100%" y2="0%" id="a"><stop stop-color="#4d27a8" offset="0%"/><stop stop-color="#a166ff" offset="100%"/></linearGradient></defs><path fill="url(#a)" d="M0 0h256v256H0z"/><path d="M155.8144 130.174435c2.3648 2.186439 3.5488 5.115564 3.5488 8.793776 0 4.001536-1.44 7.196363-4.3168 9.58448-2.88 2.391318-6.7488 3.585376-11.6032 3.585376-3.8368 0-7.6352-.819514-11.392-2.452141v-4.901082c4.4512 1.472566 8.2464 2.205647 11.392 2.205647 3.104 0 5.4912-.694667 7.1648-2.080799 1.6736-1.389333 2.5088-3.370894 2.5088-5.941481 0-4.942698-3.12-7.414047-9.3696-7.414047-1.9584 0-3.8976.10244-5.8176.304117v-4.039951l12.864-14.030987h-18.128v-5.022728h24.9248v4.840258l-12.6176 13.355528c.208-.041616.4064-.060823.6144-.060823h.6112c4.0448 0 7.248 1.091618 9.616 3.274857m-35.5776-1.069211c2.4864 2.327294 3.7312 5.531724 3.7312 9.613291 0 4.004738-1.4464 7.24118-4.3488 9.712529-2.8992 2.471349-6.7136 3.707023-11.4496 3.707023-4.16 0-8.0608-.819514-11.696-2.452141v-4.901082c4.5312 1.472566 8.4096 2.205647 11.6352 2.205647 3.104 0 5.4816-.701069 7.1328-2.112811 1.6544-1.408541 2.4832-3.43812 2.4832-6.09514 0-2.900314-.7776-5.003521-2.3296-6.309623-1.552-1.306101-4.0832-1.962353-7.5936-1.962353-2.5312 0-5.6928.20808-9.4912.614636v-4.043152l1.1648-18.317433h22.352v5.022728h-17.2096l-.7968 12.436775c2.2464-.406556 4.2656-.611434 6.0608-.611434 4.4096 0 7.8624 1.162046 10.3552 3.49254m46.0256 44.90364c-15.5328 2.791472-29.136 9.1171-38.2624 14.271079-9.1296-5.153979-22.7328-11.479607-38.2624-14.271079-4.3712-.784301-26.1568-5.333247-26.1568-17.926883 0-5.83584 2.0896-9.706126 6.1024-16.617579 4.7936-8.265574 10.7584-18.554324 10.7584-33.366411 0-10.5864643-2.7744-20.7375616-8.2528-30.2099984.6432-.7939046 1.2992-1.5974131 1.9584-2.4073241 8.1152 4.0559571 16.5632 6.1111462 25.152 6.1111462 10.496 0 20.1408-2.7562582 28.7008-8.1951462 8.5568 5.438888 18.2016 8.1951462 28.6976 8.1951462 8.5888 0 17.04-2.0551891 25.1552-6.1111462.656.809911 1.312 1.6134195 1.9552 2.4073241-5.4784 9.4724368-8.2528 19.6235341-8.2528 30.2099984 0 14.812087 5.9648 25.100837 10.768 33.379215 4.0032 6.898649 6.0928 10.768935 6.0928 16.604775 0 12.593636-21.7856 17.142582-26.1536 17.926883m15.6928-67.910873c0-10.10628 2.8512-19.793199 8.4672-28.7918537.7296-1.1620464.6368-2.6570202-.2336-3.7198282-1.6256-1.9911645-3.3312-4.0879696-5.0144-6.1719696-.976-1.2068633-2.672-1.5397913-4.0352-.7907037-7.8816 4.3568727-16.1024 6.5657207-24.4416 6.5657207-10.0608 0-18.8512-2.7050384-26.8768-8.2655731-1.0944-.7586916-2.5504-.7586916-3.6448 0-8.0256 5.5605347-16.816 8.2655731-26.8768 8.2655731-8.3392 0-16.56-2.208848-24.4416-6.5657207-1.36-.7490876-3.0592-.4161596-4.0352.7907037-1.6832 2.084-3.3888 4.1808051-5.0144 6.1719696-.8672 1.062808-.9632 2.5577818-.2336 3.7198282 5.6192 8.9986547 8.4672 18.6855737 8.4672 28.7918537 0 13.089826-5.488 22.549458-9.8976 30.16198-4.32 7.433254-6.9632 12.369549-6.9632 19.82201 0 17.245021 24.0512 22.907996 31.424 24.230103 15.552 2.794673 29.1328 9.386004 37.7856 14.421537.496.291312 1.0528.435367 1.6096.435367.5536 0 1.1104-.144055 1.6096-.435367 8.6528-5.035533 22.2304-11.626864 37.7824-14.421537 7.3728-1.322107 31.424-6.985082 31.424-24.230103 0-7.452461-2.6432-12.388756-6.9632-19.831613-4.4096-7.602919-9.8976-17.062551-9.8976-30.152377m-12.3744 86.404373c-19.6192 3.527755-36.0672 14.079006-41.5808 17.942889-5.5168-3.863883-21.9648-14.415134-41.584-17.942889-38.6176-6.937063-41.616-29.630576-41.616-36.420383 0-11.169088 4.3872-18.727189 8.6304-26.041998 4.0448-6.969075 8.2272-14.178243 8.2272-23.941992 0-15.4235212-8.9056-26.3173036-13.2992-30.751006 4.6208-5.6213581 16.2944-19.8540224 22.0512-27.2712701 8.7232 8.2335609 18.864 12.7248854 28.8896 12.7248854 11.1296 0 20.3328-4.5297392 28.7008-14.1942496 8.3648 9.6645104 17.568 14.1942496 28.6976 14.1942496 10.0256 0 20.1664-4.4913245 28.8928-12.7248854 5.7568 7.4172477 17.4272 21.649912 22.048 27.2712701-4.3936 4.4337024-13.2992 15.3274848-13.2992 30.751006 0 9.763749 4.1856 16.972917 8.2272 23.941992 4.2464 7.314809 8.6336 14.87291 8.6336 26.041998 0 6.789807-3.0016 29.48332-41.6192 36.420383m38.5216-65.673214c-3.952-6.812215-7.3632-12.692873-7.3632-20.731159 0-16.9216966 13.1712-27.8666985 13.2992-27.9691379.6624-.5378064 1.0848-1.3189065 1.1744-2.1704333.0832-.851527-.1728-1.6998528-.7168-2.3593059-.2144-.2560982-21.1904-25.6866617-25.9968-32.274791-.5632-.7714963-1.4368-1.2516807-2.3904-1.3093027-.9568-.0704272-1.8784.310519-2.5312 1.0083872-8.064 8.624111-17.6064 13.3747347-26.88 13.3747347-10.2528 0-18.3168-4.5681539-26.1568-14.8120867-1.2128-1.5814071-3.8688-1.5814071-5.0816 0-7.8432 10.2439328-15.9072 14.8120867-26.16 14.8120867-9.2736 0-18.816-4.7506237-26.88-13.3747347-.6528-.6978682-1.5808-1.0948205-2.5312-1.0083872-.9504.057622-1.8272.5378064-2.3904 1.3093027-4.8064 6.5881293-25.7824 32.0186928-25.9968 32.274791-.5408.6594531-.7968 1.5077789-.7104 2.3561047.0832.8483257.5024 1.6294256 1.1616 2.167232.1344.1088419 13.3056 11.0538438 13.3056 27.9755404 0 8.038286-3.4112 13.918944-7.3632 20.731159-4.4512 7.670145-9.4944 16.361482-9.4944 29.252831 0 21.477046 17.5264 37.447978 46.8864 42.723603 22.1024 3.972725 40.5824 17.990908 40.7648 18.134963.5728.438568 1.2608.659453 1.9488.659453.6848 0 1.3728-.220885 1.9488-.662654.1856-.140854 18.6016-14.149433 40.7616-18.131762 29.36-5.275625 46.8896-21.246557 46.8896-42.723603 0-12.891349-5.0464-21.582686-9.4976-29.252831" fill="#fff"/></svg>