<svg width="256px" height="256px" viewBox="0 0 256 256" xmlns="http://www.w3.org/2000/svg" preserveAspectRatio="xMidYMid"><title>AWS DocumentDB</title><defs><linearGradient x1="0%" y1="100%" x2="100%" y2="0%" id="a"><stop stop-color="#2e27ad" offset="0%"/><stop stop-color="#527fff" offset="100%"/></linearGradient></defs><path fill="url(#a)" d="M0 0h256v256H0z"/><path d="M110.4 44.777065c33.0016 0 56 10.0821395 56 19.1311948 0 9.0490551-22.9984 19.1311949-56 19.1311949-33.0016 0-56-10.0821398-56-19.1311949 0-9.0490553 22.9984-19.1311948 56-19.1311948h0zm-.656 169.64587c-32.6144 0-55.344-10.302148-55.344-19.545704v-27.797626c9.9872 8.360332 30.3104 13.844608 54.9152 13.844608 5.6736 0 11.3824-.315665 16.9728-.93424l-.7072-6.338803c-5.3568.593067-10.832.895978-16.2656.895978-30.448 0-52.2592-9.029924-54.9152-17.769691v-34.359626c9.9872 8.360332 30.3104 13.841419 54.9152 13.841419 5.792 0 11.5072-.318853 16.9856-.950182l-.7328-6.332426c-5.2384.602633-10.704.905543-16.2528.905543-30.448 0-52.2592-9.026735-54.9152-17.766503V75.3742224c9.2128 7.8661098 28.2176 14.0422973 56 14.0422973 27.7824 0 46.7872-6.1761875 56-14.0422973v10.8537648h6.4V63.9082598C172.8 51.5431309 150.9312 38.4 110.4 38.4 69.8688 38.4 48 51.5431309 48 63.9082598V194.877231C48 209.652891 74.544 220.8 109.744 220.8c28.272 0 52.1504-7.457978 59.4176-18.55407l-5.3632-3.485066c-5.0944 7.783207-25.2992 15.662071-54.0544 15.662071h0zm76.5184-79.486926c1.8016 0 3.392.71742 4.4768 2.024718 1.9968 2.3914 1.6736 6.013573 1.4784 7.295363.0928 6.740557 3.8144 8.057421 4.2464 8.188151 1.376.414509 2.3456 1.705865 2.3104 3.140704-.0352 1.43484-.9856 2.678368-2.384 3.025918-.3616.111598-4.176 1.460348-4.176 8.417725.0736 3.752903-1.728 7.913938-5.856 8.038291h-2.4576v-6.377065h1.6896c.128-.424075.2272-1.090478.224-1.616586 0-5.819072 1.952-9.393417 4.0384-11.552053-2.0864-2.155448-4.0384-5.720227-4.0384-11.516979 0-.194501.0192-.39219.0544-.583502.1216-.685535.1216-1.584701.0192-2.10762h-1.9872v-6.377065h2.3616zm-14.976 0h2.4608v6.377065h-1.6864c-.1312.424075-.2304 1.090478-.2272 1.616586 0 5.819072-1.9488 9.393417-4.0352 11.552053 2.0864 2.155448 4.0352 5.720227 4.0352 11.516979 0 .197689-.0192.39219-.0512.583502-.1216.685534-.1216 1.5847-.0192 2.10762h1.984v6.377065h-2.3616c-1.8016 0-3.392-.71742-4.48-2.02153-1.9936-2.391399-1.6672-6.013572-1.4752-7.298551-.0896-6.737369-3.8144-8.057421-4.2464-8.184962-1.3792-.417698-2.3456-1.709054-2.3136-3.143894.0352-1.43165.9888-2.678367 2.3872-3.025917.3648-.111598 4.176-1.460348 4.176-8.417725-.0736-3.749715 1.7248-7.913938 5.8528-8.038291h0zM204.8 188.261026h-54.4v-76.524779h35.2v12.75413c0 1.76007 1.4304 3.188532 3.2 3.188532h16v60.582117zM192 111.736247h.784l9.6736 9.565597H192v-9.565597zm18.2528 8.290184-13.8976-13.742575c-.5952-.593067-1.408-.924674-2.2528-.924674H192h-1.168l-9.8784-11.6253894c-.6112-.7174198-1.504-1.1287404-2.4448-1.1287404H134.4c-1.7696 0-3.2 1.4284624-3.2 3.1885321v82.9018447c0 1.76007 1.4304 3.188532 3.2 3.188532h6.4v-6.377065h-3.2V98.9821168h39.424l5.4208 6.3770652H147.2c-1.7696 0-3.2 1.428462-3.2 3.188532v82.901845c0 1.760069 1.4304 3.188532 3.2 3.188532H208c1.7696 0 3.2-1.428463 3.2-3.188532v-69.15927c0-.851338-.3392-1.664413-.9472-2.263858h0z" fill="#fff"/></svg>