<svg width="256px" height="256px" viewBox="0 0 256 256" xmlns="http://www.w3.org/2000/svg" preserveAspectRatio="xMidYMid"><title>AWS X-Ray</title><defs><linearGradient x1="0%" y1="100%" x2="100%" y2="0%" id="a"><stop stop-color="#2e27ad" offset="0%"/><stop stop-color="#527fff" offset="100%"/></linearGradient></defs><path fill="url(#a)" d="M0 0h256v256H0z"/><path d="M152 135.040828h-6.4v44.426184h-12.8v-31.732988h-6.4v31.732988h-12.8V157.25392h-6.4v22.213092h-6.4v6.346598h57.6v-6.346598H152v-44.426184zm25.6 23.799742c0-25.370524-20.816-46.012833-46.4-46.012833-25.584 0-46.4 20.642309-46.4 46.012833 0 25.370524 20.816 46.012832 46.4 46.012832 25.584 0 46.4-20.642308 46.4-46.012832h0zm6.4 0C184 187.711242 160.3136 211.2 131.2 211.2c-29.1136 0-52.8-23.488758-52.8-52.35943 0-28.870673 23.6864-52.359431 52.8-52.359431 29.1136 0 52.8 23.488758 52.8 52.359431h0zm33.6-34.99514c0 18.10367-10.0224 29.876609-27.4912 32.294662l-.8864-6.286304c10.0288-1.386732 21.9776-7.025684 21.9776-26.008358 0-17.818073-13.5904-24.2630422-24.9888-26.531951-1.4304-.2824236-2.4832-1.4882771-2.5632-2.932128-.7488-13.0327382-8.464-18.8684348-15.7824-18.8684348-4.5984 0-8.8864 2.1483235-11.7632 5.8959891-.704.9202569-1.872 1.3835584-3.0176 1.2153734-1.152-.1713581-2.1248-.9488163-2.528-2.0372576-2.592-6.9400045-6.432-12.9914854-11.104-17.500743-12.2816-11.8776573-29.088-15.1049024-44.9568-8.6250263-13.1744 5.3597018-23.4944 20.7851072-23.4944 35.1157248 0 1.6088624.0992 3.2113783.2912 4.7631213.2016 1.5929962-.832 3.0844467-2.4064 3.4684157C61.088 99.7251862 48 105.624349 48 123.601086c0 .675913.0352 1.28836.0672 1.932539.5856 10.532179 9.7504 20.207567 22.2912 23.523664l-1.648 6.130814c-15.1808-4.014223-26.2976-16.066412-27.0336-29.311761-.0416-.761592-.0768-1.478758-.0768-2.275256 0-20.76924 14.5216-28.4708364 23.0912-31.2030466-.0608-.9329501-.0896-1.8754199-.0896-2.8210628 0-16.9961884 11.808-34.6143433 27.4624-40.9863273 18.2976-7.4762922 37.6896-3.7571859 51.856 9.9514649 4.2816 4.1316349 7.9392 9.3580583 10.7232 15.2921271 3.7312-3.0082874 8.352-4.6679226 13.2224-4.6679226 9.8304 0 20.144 6.9653907 21.9584 22.441569C207.7632 95.9267475 217.6 107.299851 217.6 123.84543h0z" fill="#fff"/></svg>