<svg width="256px" height="256px" viewBox="0 0 256 256" xmlns="http://www.w3.org/2000/svg" preserveAspectRatio="xMidYMid"><title>AWS Step Functions</title><defs><linearGradient x1="0%" y1="100%" x2="100%" y2="0%" id="a"><stop stop-color="#b0084d"/><stop stop-color="#ff4f8b" offset="1"/></linearGradient></defs><path fill="url(#a)" d="M0 0h256v256H0z"/><path d="M144 140.8h67.2v-22.4H144v22.4zm70.4-28.8h-73.6c-1.7696 0-3.2 1.4336-3.2 3.2V144c0 1.7664 1.4304 3.2 3.2 3.2h73.6c1.7696 0 3.2-1.4336 3.2-3.2v-28.8c0-1.7664-1.4304-3.2-3.2-3.2h0zm-75.2 88c0 6.176-5.024 11.2-11.2 11.2-6.176 0-11.2-5.024-11.2-11.2 0-6.176 5.024-11.2 11.2-11.2 6.176 0 11.2 5.024 11.2 11.2h0zm-94.4-49.6h57.6v-12.8H44.8v12.8zm0-32h57.6v-12.8H44.8v12.8zm72-62.4c0-6.176 5.024-11.2 11.2-11.2 6.176 0 11.2 5.024 11.2 11.2 0 6.176-5.024 11.2-11.2 11.2-6.176 0-11.2-5.024-11.2-11.2h0zm62.4 113.6H76.8v-12.8h28.8c1.7696 0 3.2-1.4336 3.2-3.2v-19.2c0-1.7664-1.4304-3.2-3.2-3.2H76.8v-6.4h28.8c1.7696 0 3.2-1.4336 3.2-3.2v-19.2c0-1.7664-1.4304-3.2-3.2-3.2H76.8v-9.6h102.4v12.8h6.4v-16c0-1.7664-1.4304-3.2-3.2-3.2h-51.2v-9.9072c8.1792-1.5104 14.4-8.6816 14.4-17.2928 0-9.7056-7.8976-17.6-17.6-17.6-9.7024 0-17.6 7.8944-17.6 17.6 0 8.6112 6.2208 15.7824 14.4 17.2928V83.2H73.6c-1.7696 0-3.2 1.4336-3.2 3.2v12.8H41.6c-1.7696 0-3.2 1.4336-3.2 3.2v19.2c0 1.7664 1.4304 3.2 3.2 3.2h28.8v6.4H41.6c-1.7696 0-3.2 1.4336-3.2 3.2v19.2c0 1.7664 1.4304 3.2 3.2 3.2h28.8v16c0 1.7664 1.4304 3.2 3.2 3.2h51.2v6.7072c-8.1792 1.5104-14.4 8.6816-14.4 17.2928 0 9.7056 7.8976 17.6 17.6 17.6 9.7024 0 17.6-7.8944 17.6-17.6 0-8.6112-6.2208-15.7824-14.4-17.2928V176h51.2c1.7696 0 3.2-1.4336 3.2-3.2v-15.9136h-6.4V169.6z" fill="#fff"/></svg>