<svg width="256px" height="256px" viewBox="0 0 256 256" xmlns="http://www.w3.org/2000/svg" preserveAspectRatio="xMidYMid"><title>AWS Virtual Private Cloud (VPC)</title><defs><linearGradient x1="0%" y1="100%" x2="100%" y2="0%" id="a"><stop stop-color="#4d27a8"/><stop stop-color="#a166ff" offset="1"/></linearGradient></defs><path fill="url(#a)" d="M0 0h256v256H0z"/><path d="M195.2 132.389448l-17.6-7.04v63.8432c5.1392-.512 9.2832-2.2016 12.2272-5.1904 5.44-5.5296 5.376-13.6352 5.3728-13.7152v-37.8976zm-24 56.8448v-63.8848l-17.6 7.04v37.8336c.0224.6624.7488 17.1424 17.6 19.0112h0zm30.4-19.0112c.0096.3616.1696 10.7104-7.152 18.208-4.7872 4.9056-11.536 7.392-20.048 7.392-21.0336 0-26.992-16.6976-27.2-25.5232v-40.0768c0-1.3088.7968-2.4864 2.0128-2.9728l24-9.6c.7616-.304 1.6128-.304 2.3744 0l24 9.6c1.216.4864 2.0128 1.664 2.0128 2.9728v40zm9.6032-6.2912-.0032-42.7424-36.8-14.72-36.8 14.72v42.6336c-.0064.2912-.432 19.9296 11.3088 32.0128 6.1824 6.3616 14.7584 9.5872 25.4912 9.5872 10.8064 0 19.424-3.248 25.6128-9.6512 11.7248-12.1344 11.1968-31.6448 11.1904-31.84h0zm-6.5888 36.2848c-7.44 7.7024-17.6064 11.6064-30.2144 11.6064-12.5472 0-22.6784-3.8912-30.112-11.5648-13.6288-14.0576-13.1168-35.6256-13.088-36.5344v-44.7008c0-1.3088.7968-2.4864 2.0128-2.9728l40-16c.7616-.304 1.6128-.304 2.3744 0l40 16c1.216.4864 2.0128 1.664 2.0128 2.9728v44.8c.0288.8.6048 22.3296-12.9856 36.3936h0zm-130.8384-49.1936H121.6v6.4H73.776c-19.4496 0-34.2976-12.9664-35.2992-30.832-.0704-.7296-.0768-1.5808-.0768-2.432 0-21.9808 15.3696-30.0736 24.3328-32.9216-.064-1.0272-.096-2.0672-.096-3.1136 0-17.4496 12.448-35.7056 28.9504-42.464 19.3792-7.936 39.8112-4.0928 54.6368 10.2624 4.9952 4.8672 8.8032 10.064 11.5584 15.7888 3.8592-3.312 8.5184-5.0912 13.5104-5.0912 10.576 0 21.7632 8.3008 23.6864 24.2016 6.9856 1.76 15.7536 5.4976 21.9424 13.4336l-5.0432 3.936c-5.7024-7.3152-14.3072-10.3616-20.5184-11.6352-1.424-.288-2.4704-1.4976-2.5536-2.944-.8352-14.1472-9.664-20.592-17.5136-20.592-4.6784 0-8.8256 2.208-11.9968 6.384-.7072.9344-1.8592 1.4176-3.024 1.232-1.1552-.176-2.128-.9664-2.528-2.064-2.4544-6.688-6.3712-12.5952-11.9776-18.0576-12.9408-12.5248-30.8032-15.8688-47.7536-8.9312-14.2368 5.8304-24.976 21.5392-24.976 36.5408 0 1.7312.0992 3.4432.3008 5.0848.1952 1.6032-.8416 3.1008-2.4096 3.4912-8.2624 2.0448-22.128 8.336-22.128 27.4592 0 .6464-.0064 1.296.0576 1.9456.8128 14.4896 12.9728 24.9184 28.9184 24.9184h0z" fill="#fff"/></svg>