<svg width="256" height="256" xmlns="http://www.w3.org/2000/svg" preserveAspectRatio="xMidYMid"><defs><linearGradient x1="0%" y1="100%" x2="100%" y2="0%" id="a"><stop stop-color="#2E27AD" offset="0%"/><stop stop-color="#527FFF" offset="100%"/></linearGradient></defs><path fill="url(#a)" d="M0 0h256v256H0z"/><path d="M209.407 70.4l-19.053-17.443L171.28 70.4h38.126zm-26.361-19.398l-38.65.057 20.644 16.407 18.006-16.464zm-17.43 56.198l-30.421 11.2h58.516l-28.096-11.2zm-44.662 75.2h85.753v-57.6h-85.753v57.6zm37.518-112L137.4 53.651 116.466 70.4h42.006zm-48.682-2.832l20.606-16.486-41.08.06 20.474 16.426zm-6.67 2.832L82.088 53.523 61.056 70.4h42.064zm-13.927 6.4H63.496l25.697 25.488V76.8zm0 35.466l-30.16 27.462 30.16 29.517v-56.98zm0 67.372l-31.76 31.047v.515h31.76v-31.562zm-31.76-32.556v54.688l27.955-27.328-27.956-27.36zm0-14.525l27.752-25.267-27.753-27.52v52.787zm-3.177-64.883l20.575-16.51-20.575.033v16.477zM47.904 44.8h-6.352v32h6.352v-32zm172.683 29.952a3.177 3.177 0 01-2.964 2.048h-49.029v25.6l42.49 16.237-.003.006a3.19 3.19 0 011.978 2.957v64c0 1.766-1.42 3.2-3.176 3.2h-92.105c-1.754 0-3.177-1.434-3.177-3.2v-64c0-1.37.864-2.518 2.068-2.973l-.01-.022 45.583-16.205V76.8H95.545v137.6c0 1.766-1.42 3.2-3.176 3.2H54.256c-1.753 0-3.176-1.434-3.176-3.2V83.2H38.376c-1.753 0-3.176-1.434-3.176-3.2V41.6c0-1.766 1.423-3.2 3.176-3.2H51.08c1.757 0 3.176 1.434 3.176 3.2v3.197l136.57.003 28.935 26.432a3.218 3.218 0 01.826 3.52zm-65.9 102.234l18.484-42.32-5.812-2.58-18.485 42.32 5.813 2.58zm17.363-14.144l4.107 4.886 13.72-11.706a3.223 3.223 0 001.118-2.297 3.212 3.212 0 00-.911-2.39l-11.453-11.71-4.523 4.497 9.046 9.248-11.104 9.472zm-41.263-9.293a3.204 3.204 0 01-1.026-2.525 3.203 3.203 0 011.283-2.406l15.585-11.62 3.78 5.143-12.489 9.315 10.481 9.677-4.294 4.72-13.32-12.304z" fill="#FFF"/></svg>