<svg width="256px" height="256px" viewBox="0 0 256 256" xmlns="http://www.w3.org/2000/svg" preserveAspectRatio="xMidYMid"><title>AWS Elastic Compute Cloud (EC2)</title><defs><linearGradient x1="0%" y1="100%" x2="100%" y2="0%" id="a"><stop stop-color="#c8511b"/><stop stop-color="#f90" offset="1"/></linearGradient></defs><path fill="url(#a)" d="M0 0h256v256H0z"/><path d="M86.4 169.6h80v-80h-80v80zm86.4-80h12.8V96h-12.8v12.8h12.8v6.4h-12.8v9.6h12.8v6.4h-12.8V144h12.8v6.4h-12.8v12.8h12.8v6.4h-12.8v.4352c0 3.2896-2.6752 5.9648-5.9648 5.9648H166.4v12.8H160V176h-12.8v12.8h-6.4V176h-9.6v12.8h-6.4V176H112v12.8h-6.4V176H92.8v12.8h-6.4V176h-.4352C82.6752 176 80 173.3248 80 170.0352V169.6h-9.6v-6.4H80v-12.8h-9.6V144H80v-12.8h-9.6v-6.4H80v-9.6h-9.6v-6.4H80V96h-9.6v-6.4H80v-.4352c0-3.2896 2.6752-5.9648 5.9648-5.9648H86.4V70.4h6.4v12.8h12.8V70.4h6.4v12.8h12.8V70.4h6.4v12.8h9.6V70.4h6.4v12.8H160V70.4h6.4v12.8h.4352c3.2896 0 5.9648 2.6752 5.9648 5.9648V89.6zm-41.6 121.2032c0 .2176-.1792.3968-.3968.3968H45.1968c-.2176 0-.3968-.1792-.3968-.3968v-85.6064c0-.2176.1792-.3968.3968-.3968H64v-6.4H45.1968c-3.7472 0-6.7968 3.0496-6.7968 6.7968v85.6064c0 3.7472 3.0496 6.7968 6.7968 6.7968h85.6064c3.7472 0 6.7968-3.0496 6.7968-6.7968V195.2h-6.4v15.6032zm86.4-165.6064v85.6064c0 3.7472-3.0496 6.7968-6.7968 6.7968H192v-6.4h18.8032c.2176 0 .3968-.1792.3968-.3968V45.1968c0-.2176-.1792-.3968-.3968-.3968h-85.6064c-.2176 0-.3968.1792-.3968.3968V64h-6.4V45.1968c0-3.7472 3.0496-6.7968 6.7968-6.7968h85.6064c3.7472 0 6.7968 3.0496 6.7968 6.7968h0z" fill="#fff"/></svg>