<svg width="256px" height="256px" viewBox="0 0 256 256" xmlns="http://www.w3.org/2000/svg" preserveAspectRatio="xMidYMid"><title>AWS Shield</title><defs><linearGradient x1="0%" y1="100%" x2="100%" y2="0%" id="a"><stop stop-color="#bd0816" offset="0%"/><stop stop-color="#ff5252" offset="100%"/></linearGradient></defs><path fill="url(#a)" d="M0 0h256v256H0z"/><path d="M172.834119 159.9984h-6.4v12.8h-12.8v6.4h12.8v12.8h6.4v-12.8h12.8v-6.4h-12.8v-12.8zm22.4 16c0-14.1152-11.4848-25.6-25.6-25.6-14.1152 0-25.6 11.4848-25.6 25.6 0 14.1152 11.4848 25.6 25.6 25.6 14.1152 0 25.6-11.4848 25.6-25.6h0zm6.4 0c0 17.6448-14.3552 32-32 32-17.6448 0-32-14.3552-32-32 0-17.6448 14.3552-32 32-32 17.6448 0 32 14.3552 32 32h0zm-86.4 9.5072V71.8576l-35.2 13.5392v65.0016c.0384 1.3248 1.2672 33.216 35.2 35.1072h0zm41.6-45.6672V85.3968l-35.2-13.5392V185.48c3.712-.2464 7.1584-.9024 10.3552-1.9168.432 2.1408 1.0688 4.2048 1.84 6.2016-4.688 1.4688-9.824 2.2336-15.3952 2.2336-43.3888 0-44.7904-41.1136-44.8-41.5296V83.1984c0-1.3248.816-2.512 2.0512-2.9888l41.6-16c.7424-.2816 1.5552-.2816 2.2976 0l41.6 16c1.2352.4768 2.0512 1.664 2.0512 2.9888v54.9792c-2.2016.3712-4.3392.9312-6.4 1.6608h0zm-13.616 63.9616c1.7856 1.6928 3.728 3.216 5.8144 4.5472-8.816 3.9936-19.0656 6.0128-30.5984 6.0128-20.2464 0-36.3872-6.16-47.9712-18.3072-20.5792-21.5776-19.2928-54.0352-19.2256-55.4048l-.0032-70.2496c0-1.3088.7968-2.4832 2.0128-2.9728l64-25.6c.7616-.3008 1.6128-.3008 2.3744 0l64 25.6c1.216.4896 2.0128 1.664 2.0128 2.9728v70.4c0 0 .0064.1408.0128.3424-2.048-.944-4.1888-1.7024-6.4096-2.2784l-.0032-66.2976-60.8-24.32-60.8 24.32v68.2336c-.0192.4576-1.2 31.3088 17.4912 50.8704 10.3264 10.8096 24.8992 16.2912 43.3088 16.2912 9.2416 0 17.52-1.4144 24.784-4.16h0z" fill="#fff"/></svg>