<svg width="256px" height="256px" viewBox="0 0 256 256" xmlns="http://www.w3.org/2000/svg" preserveAspectRatio="xMidYMid"><title>AWS OpsWorks</title><defs><linearGradient x1="0%" y1="100%" x2="100%" y2="0%" id="a"><stop stop-color="#b0084d"/><stop stop-color="#ff4f8b" offset="1"/></linearGradient></defs><path fill="url(#a)" d="M0 0h256v256H0z"/><path d="M128 76.16c7.4112 0 13.44 6.0288 13.44 13.44 0 7.4112-6.0288 13.44-13.44 13.44-7.4112 0-13.44-6.0288-13.44-13.44 0-7.4112 6.0288-13.44 13.44-13.44h0zm0 33.28c10.9408 0 19.84-8.8992 19.84-19.84 0-10.9408-8.8992-19.84-19.84-19.84-10.9408 0-19.84 8.8992-19.84 19.84 0 10.9408 8.8992 19.84 19.84 19.84h0zM89.6 84.72l3.5296.2016c1.4432.0768 2.9536-.96 3.3024-2.4864.8096-3.5744 2.2144-6.9664 4.1824-10.08.8352-1.3248.592-3.056-.5728-4.096l-2.6432-2.3616 6.9024-6.8992 2.3552 2.64c1.0368 1.168 2.7744 1.4048 4.0928.576 3.1072-1.9584 6.4992-3.3632 10.0832-4.1728 1.5232-.3456 2.576-1.7408 2.4864-3.3024L123.12 51.2h9.76l-.1984 3.5456c-.0896 1.5584.9632 2.9568 2.4864 3.3024 3.5744.8064 6.9664 2.2144 10.0736 4.176 1.3216.8288 3.056.5888 4.096-.5792l2.3616-2.6464 6.9024 6.8992-2.6368 2.3552c-1.1648 1.04-1.408 2.7744-.5728 4.096 1.9648 3.1104 3.3696 6.5024 4.1792 10.0832.3488 1.5264 1.8272 2.5664 3.3024 2.4896L166.4 84.72v9.76l-3.5232-.2016c-1.4784-.0768-2.9536.9632-3.3024 2.4928-.8064 3.5808-2.2112 6.976-4.176 10.0896-.8352 1.3248-.592 3.056.5728 4.096l2.6304 2.3456-6.8992 6.9024-2.3328-2.6176c-1.0432-1.1712-2.7808-1.408-4.0992-.576-3.1136 1.968-6.5152 3.376-10.1024 4.1856-1.5232.3456-2.576 1.744-2.4864 3.3056L132.88 128h-9.76l.1984-3.504c.0896-1.5584-.9632-2.9568-2.4864-3.3024-3.5808-.8096-6.9792-2.2208-10.096-4.1888-1.3216-.8352-3.056-.5984-4.096.576l-2.3424 2.624-6.8992-6.9024 2.624-2.3392c1.1648-1.04 1.408-2.7744.576-4.096-1.968-3.1072-3.3728-6.5056-4.1792-10.096-.3456-1.5296-1.8208-2.576-3.3024-2.4928L89.6 94.48v-9.76zm-3.0176 16.3424 4.2848-.2432c.7424 2.464 1.7248 4.8416 2.9408 7.1072l-3.2032 2.8544c-.656.5888-1.0432 1.4176-1.0688 2.3008-.0224.88.3168 1.7312.9376 2.352l11.696 11.6928c.6208.624 1.4688.9888 2.352.9344.88-.0256 1.712-.4096 2.2976-1.0688l2.8544-3.2c2.2688 1.2192 4.6464 2.2048 7.1072 2.9504l-.2432 4.2752c-.0512.88.2624 1.7408.8672 2.3808.6048.64 1.4464 1.0016 2.3264 1.0016h16.5376c.88 0 1.7216-.3616 2.3264-1.0016.6048-.64.9184-1.5008.8672-2.3808l-.2432-4.272c2.464-.7424 4.8448-1.728 7.1136-2.9472l2.848 3.1936c.5856.656 1.4176 1.0432 2.2976 1.0688.8192.064 1.7344-.3104 2.352-.9344l11.696-11.6928c.6208-.6208.96-1.472.9376-2.352-.0256-.8832-.4128-1.712-1.0688-2.2976l-3.2096-2.864c1.216-2.2656 2.1984-4.64 2.9408-7.1008l4.2912.2432c.88.0416 1.7408-.2624 2.3808-.8672.64-.6048 1.0016-1.4464 1.0016-2.3264V81.3344c0-.88-.3616-1.7216-1.0016-2.3264-.6368-.6048-1.4976-.9248-2.3808-.8704l-4.2976.2464c-.7424-2.4576-1.7248-4.832-2.9408-7.0944l3.216-2.8704c.656-.5856 1.0432-1.4144 1.0688-2.2976.0224-.88-.3168-1.7312-.9376-2.352l-11.696-11.6928c-.6208-.624-1.456-.9728-2.352-.9344-.88.0224-1.712.4096-2.2976 1.0688l-2.8768 3.2256c-2.2624-1.2128-4.6336-2.1984-7.0848-2.9376l.2432-4.3168c.0512-.88-.2624-1.7408-.8672-2.3776-.6048-.6432-1.4464-1.0048-2.3264-1.0048h-16.5376c-.88 0-1.7216.3616-2.3264 1.0048-.6048.6368-.9184 1.4976-.8672 2.3776l.2432 4.3104c-2.4544.7392-4.8288 1.7248-7.0912 2.9344l-2.8704-3.2192c-.5888-.656-1.4176-1.0432-2.2976-1.0656-.8736-.0288-1.7312.3104-2.352.9344l-11.696 11.6928c-.6208.6208-.96 1.472-.9376 2.352.0256.88.4128 1.712 1.0688 2.2976l3.2224 2.8736c-1.2192 2.2656-2.2016 4.6368-2.944 7.0912l-4.3008-.2464c-.8864-.0576-1.744.2656-2.3808.8704-.64.6048-1.0016 1.4464-1.0016 2.3264v16.5344c0 .88.3616 1.7216 1.0016 2.3264.64.6048 1.4976.912 2.3808.8672h0zM179.2 208h19.2v-32h-19.2v32zm-60.8 0h19.2v-32h-19.2v32zm-60.8 0h19.2v-32H57.6v32zm144-38.4H192v-16c0-1.7664-1.4304-3.2-3.2-3.2h-57.6v-9.6h-6.4v9.6H67.2c-1.7696 0-3.2 1.4336-3.2 3.2v16h-9.6c-1.7696 0-3.2 1.4336-3.2 3.2v38.4c0 1.7664 1.4304 3.2 3.2 3.2H80c1.7696 0 3.2-1.4336 3.2-3.2v-38.4c0-1.7664-1.4304-3.2-3.2-3.2h-9.6v-12.8h54.4v12.8h-9.6c-1.7696 0-3.2 1.4336-3.2 3.2v38.4c0 1.7664 1.4304 3.2 3.2 3.2h25.6c1.7696 0 3.2-1.4336 3.2-3.2v-38.4c0-1.7664-1.4304-3.2-3.2-3.2h-9.6v-12.8h54.4v12.8H176c-1.7696 0-3.2 1.4336-3.2 3.2v38.4c0 1.7664 1.4304 3.2 3.2 3.2h25.6c1.7696 0 3.2-1.4336 3.2-3.2v-38.4c0-1.7664-1.4304-3.2-3.2-3.2h0z" fill="#fff"/></svg>