<svg width="512px" height="75px" viewBox="0 0 512 75" xmlns="http://www.w3.org/2000/svg" preserveAspectRatio="xMidYMid"><title>Axios</title><path d="M254.113792 9.1821109v60.1653862l-6.557196 5.2811108V24.5792631h-12.34302l18.900216-15.3971522zM481.537396 0c5.491113 0 10.590004.828033175 15.296672 2.48406956 4.527505 1.56404723 8.43305 3.32245705 11.716635 5.27522947l.573.3466245-6.798521 12.94333817c-.620378-.5075818-1.496206-1.0881494-2.627483-1.7417025l-.642394-.3637218h0l-.693062-.3781983h0l-.74373-.3926747c-2.091853-1.1330869-4.575928-2.0918527-7.452225-2.8762974-2.876297-.8716053-5.839755-1.3074079-8.890374-1.3074079-8.193089 0-12.289634 2.3097539-12.289634 6.9292619 0 2.7019763 1.481729 4.6195079 4.445187 5.7527309l.675049.2448055h0l.717741.2488077h0l.760431.25281h0l.803122.2568123h0l.845813.2608145h0l.888503.2648168c.151642.0444696.305062.0891061.460261.1339092l.95254.2708203h0l.995231.2748224h0l1.037922.2788248h0l1.080613.282827h0l1.123303.2868293h0l1.765001.4377482h0l1.230031.2968349h0c5.142471 1.3074079 9.587657 2.7891369 13.33556 4.4451869 3.675269 1.5870479 6.510029 3.6944109 8.50428 6.3220889l.255353.3456914C510.954074 44.2776783 512 47.8509875 512 52.2961744c0 5.4039526-1.394568 9.7622513-4.183705 13.0743513-2.701977 3.2249395-6.275558 5.5782737-10.720745 7.0600027-4.445187 1.3945684-9.239016 2.0918526-14.381487 2.0918526-5.926916 0-11.810251-.828025-17.650007-2.484075-5.561671-1.5771905-10.530414-3.7077811-14.906228-6.3917719l-.651926-.4067491 7.060003-13.727783c1.133087 1.1330868 3.007038 2.3969145 5.621854 3.7914829 2.701976 1.3945684 5.839755 2.5712355 9.413337 3.5300013 3.573581.9587658 7.365064 1.4381487 11.374449 1.4381487 8.018768 0 12.028152-2.1354329 12.028152-6.4062987 0-2.8762974-1.873951-4.9245697-5.621854-6.1448171l-.90117-.3162881h0l-.946354-.3213086h0l-.991538-.326329h0l-1.036722-.3313495h0l-1.081906-.3363699h0l-1.127091-.3413903c-.191613-.0573168-.38511-.1148427-.580489-.1725779l-1.194866-.348921h0l-1.24005-.3539414h0l-1.285234-.358962h0l-1.330419-.3639823h0l-2.080347-.5553869h0l-.716041-.1876392c-7.495806-1.9175316-13.074079-4.3580263-16.734821-7.3214842-3.573582-3.0506185-5.360373-7.4086448-5.360373-13.0742152 0-5.0553106 1.263828-9.2825961 3.791483-12.6818566 2.614816-3.39926058 6.101237-5.97049611 10.459263-7.71370665C471.470355.871605267 476.307764 0 481.537396 0zm-121.24574.130732619c5.531341 0 10.581691 1.007317631 15.146209 3.021933531l.545409.24658894c4.706669 2.09185264 8.716053 4.92456976 12.028153 8.49815131 3.399261 3.4864211 6.011353 7.4522251 7.841724 11.8974119 1.830371 4.4453231 2.74828 8.9773981 2.74828 13.596906 0 4.793829-.958766 9.4136093-2.876297 13.8587961-1.917532 4.3580264-4.622232 8.2802501-8.108653 11.7666711-3.399261 3.3992606-7.449501 6.1012369-12.15617 8.105929-4.706668 2.0046921-9.849139 3.0070382-15.427413 3.0070382-5.752595 0-10.982226-1.0023461-15.688895-3.0070382-4.706668-2.0918526-8.762357-4.8809895-12.161617-8.3674106-3.399261-3.5735816-6.014076-7.5829658-7.844447-12.0281526-1.827648-4.4451869-2.745557-9.0211145-2.745557-13.727783 0-4.793829.958766-9.4133369 2.876297-13.8586599 1.830371-4.2431329 4.377977-8.0097395 7.638078-11.2998907l.470575-.4667804c3.486421-3.48642108 7.580242-6.23197767 12.286911-8.23666979 4.706668-2.00468394 9.849139-3.007040891 15.427413-3.007040891zM44.844091.522968608 76.6141029 73.6071955H59.8792818L52.5577976 56.480152H24.1870461l-7.3214842 17.1270435H0L31.9007528.522968608H44.844091zm93.580717 0L158.558889 26.4096341 178.692971.522968608h17.127043L166.9263 37.5227375l27.978529 36.084458h-17.127044l-19.218896-24.8407501-19.088155 24.8407501h-17.388525l28.10927-36.084458L121.167023.522968608h17.257785zM266.105174.188212262V49.0932974h12.688666l-19.232515 15.7834095V4.74425097l6.543849-4.556038708zM360.032898 14.2507407c-4.793829 0-8.893097 1.1330868-12.292358 3.3992605-3.3121 2.2661737-5.839755 5.1424983-7.582966 8.6289194-1.74321 3.48653-2.614816 7.1036919-2.614816 10.8515945 0 3.9222237.91791 7.6701263 2.748281 11.2437079 1.827647 3.4864211 4.398883 6.3191382 7.710983 8.4981514 3.39926 2.1790132 7.452225 3.2685197 12.158893 3.2685197 4.793829 0 8.846793-1.1330868 12.158893-3.3992605 3.314824-2.3533342 5.839756-5.2732119 7.582966-8.7599053 1.743211-3.5735816 2.61754-7.2340513 2.61754-10.981954 0-3.9222237-.915186-7.6268184-2.745557-11.1131033-1.830371-3.4864211-4.445187-6.2755579-7.847171-8.3674106-3.3121-2.1790132-7.27518-3.2685197-11.894688-3.2685197zM38.4377923 19.7418538 27.7170475 42.7523691h21.0492672L38.4377923 19.7418538z" fill="#5a29e4"/></svg>