<svg width="256px" height="318px" viewBox="0 0 256 318" xmlns="http://www.w3.org/2000/svg" preserveAspectRatio="xMidYMid"><path d="M0 0v171.944611l127.983514 72.955928v-49.59175L42.3643479 146.5023V69.8414195l85.6191661 48.8064885V72.9559283L0 0h0z" fill="#002a41"/><g style="fill:#0071b5"><path d="M255.967029 0v171.944611l-127.983515 72.955928v-49.59175l85.619167-48.806489V69.8414195l-85.619167 48.8064885V72.9559283L255.967029 0h0z"/><path d="M0 317.932684V145.988073l127.983514-72.9559289v49.5917509l-85.6191661 48.806488v72.761106l85.6191661-48.806485v49.591752L0 317.932684h0z"/></g><path d="M255.967029 317.932684V145.988073L127.983514 73.0321441v49.5917509l85.619167 48.806488v72.761106l-85.619167-48.806485v49.591752l127.983515 72.955928h0z" fill="#002a41"/></svg>