<svg width="256px" height="249px" viewBox="0 0 256 249" xmlns="http://www.w3.org/2000/svg" preserveAspectRatio="xMidYMid"><path d="M207.506245 218.148743h-87.959657l43.979828-95.694695.04128.09024.04032-.09024h.8208l27.502713 60.496944 13.470076 30.527032 2.11968 4.670719h-.01504 0zm47.941747 23.373754-84.691818-185.0668317c-.53632-1.0694398-1.239679-1.9817595-2.384319-2.5206394V38.24447h40.598709v-1.2188797L197.824647 19.282875l11.145917-17.7423954V0h-48.266867v54.1603059c-.91264.5587198-1.58464 1.3676796-2.0496 2.2953594l-46.022708 99.5961337-30.1209517-65.8195026c-.8255997-1.6463995-1.9247995-3.0246392-4.6758387-3.0246392h-2.7503993c-2.4723194 0-3.849919 1.3782397-4.6758388 3.0246392L11.5475759 217.611783l-2.13023946 4.723839-8.865917686 19.186875c-1.651519564 3.571519.551679856 7.153278 4.675518776 7.153278H29.1485313l4.7180788.03136 117.7871689-.03136h99.123174c4.123839 0 6.322559-3.581439 4.671039-7.153278h0z" fill="#2d2e2b"/></svg>