<svg width="256px" height="282px" viewBox="0 0 256 282" xmlns="http://www.w3.org/2000/svg" preserveAspectRatio="xMidYMid"><path d="M133.941895 168.587659v82.229895c3.48534-.615234 6.840854-1.818026 9.923368-3.557053l68.042105-39.120842c9.971066-5.750373 16.120418-16.380152 16.134737-27.890526v-78.019369c0-3.1663156-.525473-6.2383156-1.434947-9.1823156l-73.950316 42.6644206c-15.205053 10.752-18.492631 20.931369-18.70821 32.87579" fill="#ffc600"/><path d="M253.594947 77.4718695l-26.987789 15.5755789c.909474 2.9372632 1.42821 6.016 1.42821 9.1688426v78.039578c0 11.472843-6.177684 22.164211-16.128 27.890527l-68.042105 39.114105c-3.080327 1.739949-6.433402 2.94496-9.916631 3.56379v31.056842c4.81124-.691923 9.450027-2.280079 13.675789-4.682106l88.360421-50.809263c12.323742-7.115091 19.924705-20.255694 19.94779-34.485895V90.5682905c-.016814-4.4677394-.807744-8.8987716-2.337685-13.096421" fill="#f6eb61"/><path d="M127.744 142.745133c4.021895-6.568421 10.017684-12.234106 18.634105-17.657264l74.442106-42.9541048c-2.450459-3.1410509-5.474953-5.7883404-8.912843-7.8012632l-68.042105-39.1141052c-9.947517-5.699393-22.171795-5.6942643-32.114526.0134737L43.9915789 74.3257642c-3.5705263 2.0547368-6.5616842 4.8235789-9.0273684 7.976421L109.056 125.054185c8.663579 5.456842 14.666105 11.122527 18.688 17.690948" fill="#439879"/><path d="M43.9915789 74.3257642l67.7591581-39.0938947c9.941534-5.709825 22.165813-5.717518 32.114526-.0202106l68.042105 39.127579c3.503158 2.0143158 6.467369 4.7157895 8.906106 7.7945263l26.947368-15.5418947c-3.16856-4.2711479-7.178586-7.8478438-11.782737-10.5094737L147.617684 5.27313262c-12.301953-7.04045058-27.414561-7.03019431-39.706947.02694736L19.9073684 56.0689221c-4.6461202 2.7173219-8.6878443 6.3555614-11.87705261 10.6913684L34.9574737 82.2954484c2.4684923-3.2143033 5.533552-5.9225352 9.0273684-7.976421" fill="#28cdfb"/><path d="M111.750737 247.240291l-67.7591581-39.093895c-9.9497797-5.7541-16.0840806-16.369777-16.1010526-27.863579V102.19608c0-3.072.5052632-6.0631579 1.3541053-8.9330526L2.24336842 77.6807116C.777410831 81.8062005.0189490093 86.1497041 0 90.5278695V191.951027c.0212057474 14.211325 7.60552841 27.336951 19.9073684 34.452211L107.904 277.178817c4.176842 2.398316 8.757895 3.941052 13.635368 4.688842v-31.077053c-3.438756-.626613-6.747729-1.826771-9.788631-3.550315" fill="#fdd757"/><path d="M102.716632 135.631027 29.2446316 93.2562905c-.8488421 2.8698947-1.3473684 5.8610526-1.3473684 8.9330525v78.086737c0 11.466105 6.1709473 22.144 16.1010526 27.863579L111.744 247.240291c3.078737 1.765052 6.393263 2.896842 9.788632 3.536842v-82.209685c-.215579-11.92421-3.496421-22.103579-18.822737-32.936421" fill="#ec8b00"/></svg>