<svg width="256px" height="223px" viewBox="0 0 256 223" xmlns="http://www.w3.org/2000/svg" preserveAspectRatio="xMidYMid"><title>Basecamp</title><path d="M134.919504 7.10542736e-15c45.635481 0 81.314336 34.86508959999999 101.940294 83.60454009999998L238.7785 88.2876691c3.74573 9.4474681 6.939454 19.3741379 9.545952 29.6349479l1.25415 5.157579c3.213037 13.824214 5.371683 28.199476 6.392455 42.781938.164702 2.352885-.376237 4.701415-1.553621 6.745177-19.170851 33.277704-61.820206 49.346921-116.213591 49.92918l-3.091335.016429c-41.6645846.678456-81.5540138-16.844104-109.2402317-47.986861-2.9106028-3.273982-3.7783495-7.886277-2.2565543-11.994161l1.733223-4.434441 1.4521123-3.526504c.257325-.612939.5221934-1.237882.7944405-1.873944 3.1164159-7.281012 6.5715065-14.569163 10.2966914-21.427716 9.9822926-18.378706 19.8602394-30.562071 31.6350758-34.593238 2.4797482-.8489526 5.0245144-1.3078601 7.6851992-1.3256262 10.5048991 0 17.2909813 4.7116732 28.1724198 16.0327092l6.227379 6.543283 2.151523 2.141827 1.351239 1.202427 1.032308.847476.422696-.43402c1.483361-1.579792 3.214705-3.757933 5.11503-6.442495l.963878-1.384057c2.26661-3.306129 4.682726-7.180016 7.193427-11.498534 3.268-5.6211061 6.51959-11.6837948 9.591628-17.7514983l2.244858-4.5034562 1.696419-3.5165124c2.778742-5.9279821 9.836936-8.4809459 15.764918-5.7022043 5.59865 2.6243671 8.186867 9.0659001 6.116296 14.7673835l-.565412 1.3186557-2.474581 5.0910693-1.630437 3.2542132c-3.264112 6.4470755-6.724549 12.8991665-10.247339 18.9585215-2.786538 4.79297-5.505099 9.151784-8.135408 12.988412-8.800384 12.836441-15.671708 19.605975-25.152128 19.605975-7.133637 0-10.996756-1.525017-17.659825-7.727578l-2.0889898-2.004247-2.2934095-2.303814-3.9030765-4.058789-2.5824962-2.718664-2.1008064-2.139469c-.3306917-.329292-.6518032-.645159-.9635466-.947928l-1.7597369-1.66204c-.5502363-.503361-1.0646952-.95694-1.5450718-1.36335l-1.3405782-1.080333c-1.4486758-1.101393-2.5006111-1.656965-3.2284906-1.77873l-.2573094-.023671-.1214076.045532c-2.8199983.965439-7.0426813 5.374154-11.7236404 12.278436l-1.8945865 2.892563c-.9572753 1.510584-1.9278449 3.115936-2.9041534 4.808474l-1.9580303 3.499079c-2.6701585 4.916111-5.2201237 10.151733-7.5909567 15.454914l-2.5883992 5.974862.8591377.852542c22.0231661 21.506679 51.5961283 33.72795 82.6835623 33.951362l2.830135-.012817c45.421438 0 80.029494-11.599746 95.99174-33.516153l1.109042-1.587803-.125204-1.494379c-1.621165-17.734184-5.118081-34.966941-10.209511-50.909949l-1.574983-4.743422c-16.222561-47.0315248-46.542632-81.7458159-83.366802-82.8581569l-1.824282-.027521c-51.1941338 0-85.612918 34.7390775-108.6221703 94.4839909l-2.1912643 5.859501c-.3593345.989485-.7157458 1.985394-1.0692566 2.987685-2.1776428 6.17416-8.9481165 9.413977-15.12227624 7.236334-6.17415973-2.177643-9.41397681-8.948117-7.236333989-15.122276l1.075269829-3.007066 2.20552581-5.918606c26.16168849-68.3010921 67.46005479-110.228117 130.96050579-110.228117z" fill="#1d2d35"/></svg>