<svg width="256px" height="217px" viewBox="0 0 256 217" xmlns="http://www.w3.org/2000/svg" preserveAspectRatio="xMidYMid"><path d="M0 216.305618V0h256v216.305618H0zm111.264503-57.261045c19.563003 0 29.650093-12.215744 29.650093-27.63799 0-12.673783-8.558799-23.209823-19.563002-24.889528 9.628706-1.985064 17.576212-10.6887188 17.576212-23.3625022 0-13.5899757-9.934411-25.9584-29.344504-25.9584H55.9378984V159.044573h55.3266046zm90.659093 0-36.242697-52.617607L201.8197 57.1961528h-26.746305l-36.430698 49.2308132 8.308897 11.695001 28.121801 40.922606h26.850201zm-96.161194-42.296837c8.406004 0 12.990993 5.19168 12.990993 11.604911 0 7.329424-4.890693 11.604912-12.990993 11.604912H77.6406004v-23.209823h28.1218016zm-.916998-40.4645684c7.336097 0 11.921201 4.4282823 11.921201 10.6887191 0 6.5660261-4.585104 10.6888342-11.921201 10.6888342H77.6406004V76.2831676h27.2048036z" fill="#02161f"/></svg>