<svg width="224px" height="256px" viewBox="0 0 224 256" xmlns="http://www.w3.org/2000/svg" preserveAspectRatio="xMidYMid"><path d="M207.953496 52.161792 127.317154 4.28699154c-9.583974-5.71598872-21.530609-5.71598872-31.1145833 0L15.5500822 52.161792C5.848665 58.0143618-.0579442252 68.5395346 4.28679482e-4 79.8694336v95.7334544C-.0522462707 186.927041 5.85362572 197.444768 15.5500822 203.294383l80.6363418 47.858654c9.584949 5.712453 21.529635 5.712453 31.114584 0l80.636341-47.858654c9.707613-5.848573 15.620771-16.374483 15.565801-27.707642V79.8694336c.058373-11.329899-5.848237-21.8550718-15.549654-27.7076416z" fill="#fff"/><path d="M208.411532 52.276683l-80.81395-47.98024898c-9.605084-5.72857869-21.578033-5.72857869-31.1831166 0L15.5843327 52.276683C5.86154721 58.1421436-.0580718526 68.6904991 4.29623687e-4 80.0453532v95.9443158C-.0523613478 187.338765 5.86651886 197.879657 15.5843327 203.742157l80.8139505 47.964067c9.6060598 5.725035 21.5770558 5.725035 31.1831158 0l80.813951-47.964067c9.728995-5.861454 15.655177-16.41055 15.600085-27.76867V80.0453532c.058502-11.3548541-5.861117-21.9032096-15.583903-27.7686702zM99.2301697 246.803014l-80.8139505-47.964066c-7.9861266-4.839309-12.85035986-13.511401-12.81652192-22.849279V80.0453532c-.0370568-9.3387124 4.82800502-18.0122822 12.81652192-22.8492788L99.2301697 9.21582548c7.8651783-4.69224709 17.6703473-4.69224709 25.5355253 0l80.749222 47.98024892c6.656643 4.0318344 11.197586 10.7929253 12.411754 18.4800825-2.686247-5.7123197-8.722211-7.281994-15.761471-3.2364418l-76.396208 47.3167789c-9.531321 5.550497-16.554399 11.813012-16.570582 23.30238v94.212819c0 6.877439 2.767158 11.327547 7.039261 12.638306-1.399003.25638-2.817496.391732-4.239739.404555-4.493961-.003291-8.904176-1.21624-12.7677623-3.51154z" fill="#2f3a3e"/><path d="M187.007319 185.05984l-20.086425 12.013104c-.537949.216203-.898469.728522-.920359 1.307878v5.279952c0 .645866.435959.904213.968799.597426l20.393211-12.400623c.499417-.374389.738323-1.003091.613573-1.614664v-4.634087c-.016147-.597426-.484399-.855772-.968799-.548986z" fill="#3ab14a"/><path d="M144.262952 140.831868c.645865-.322933 1.178705 0 1.194851.920358l.064587 7.007644c2.415478-1.097364 5.11027-1.424347 7.718096-.936505.500546.129173.710452.807332.516693 1.614664l-1.533932 6.151871c-.116283.464278-.356224.888359-.694305 1.227145-.118736.117149-.254907.215192-.403666.29064-.182526.09872-.393057.132861-.597426.09688-2.542857-.563107-5.204737-.135821-7.443603 1.194852-3.273668 1.474693-5.41355 4.693928-5.506006 8.283228 0 3.229329 1.614664 4.117394 7.249843 4.214274 7.443603.129173 10.672932 3.374649 10.753665 10.882839-.177224 7.837116-3.7908 15.200073-9.881746 20.134865l.129173 6.878471c-.011479.854311-.455236 1.644562-1.178705 2.099063l-4.068954 2.341264c-.645866.322933-1.178705 0-1.194852-.904212v-6.765444c-3.487675 1.453198-7.02379 1.792277-9.28432.888065-.419813-.161466-.613573-.791185-.43596-1.517784l1.469345-6.216459c.11173-.491958.364192-.940778.726599-1.291731.114938-.110097.245524-.202595.387519-.274493.210525-.094635.451488-.094635.662013 0 2.878413.780409 5.948613.391556 8.541575-1.081825 3.741777-1.804609 6.173482-5.536126 6.313338-9.687987 0-3.487675-1.921451-4.940873-6.458658-4.973166-5.861232 0-11.302651-1.130265-11.415678-9.687987.134867-7.476276 3.605579-14.500618 9.461934-19.14992l-.29064-7.039937c-.002607-.86661.443293-1.672894 1.178705-2.131357l4.020515-2.567316z" fill="#fff"/></svg>