<svg width="512px" height="229px" viewBox="0 0 512 229" xmlns="http://www.w3.org/2000/svg" preserveAspectRatio="xMidYMid"><title>Batch</title><path d="M511.776904 109.639196c-1.220436-14.4914055-7.230318-29.0853684-22.193489-33.8440464-11.773626-3.7638682-24.070296.7281597-33.844046 7.5995267 1.907573-6.3449382 3.859247-12.6897738 5.856045-19.034712 6.020138-16.7374192 11.219814-33.7414885 17.506602-50.3763499 2.112689-5.43555894-2.266525-12.38897206-7.743107-13.640173113-2.836747-.713121743-5.839637-.3066555694-8.385119 1.135074953-2.545483 1.4417256-4.438698 3.80803977-5.285825 6.6080295-6.481647 17.11688276-12.409483 34.41836936-17.968111 51.84292526-.676881 1.8665504-1.353762 3.722845-2.122945 5.5688839-.840973 2.2665255-1.733226 4.5022837-2.645989 6.7482977-.184604.5025328-.399975 1.0255772-.605091 1.4768311v.1743481c-.492277 1.1383907-1.025577 2.2870371-1.487087 3.4254277-2.102433 4.4510049-4.256145 8.8199636-6.491903 13.1478992-6.224228 11.6015343-14.13553 22.2160523-23.475461 31.4954743-6.496006 6.748298-15.07701 11.110077-24.357458 12.378716-4.99456.635858-10.030144.574324-14.286289-2.543431-3.098269-2.278832-5.210958-5.652981-5.907325-9.43531-.465612-3.599776-.140504-7.256984.953787-10.717281 3.387481-13.5059282 11.169561-25.5021042 22.121699-34.1004405l1.753737-1.2922272c1.878858-1.5237 4.158716-2.4712307 6.563694-2.7280353 6.153463-.1948596 12.306926 8.4610116 18.686016 4.358703 4.697143-3.0767315 7.599526-10.1327023 3.999751-15.1887977-8.091804-11.2813487-23.79339-14.3580802-36.110572-8.2046173-5.70426 3.1037042-10.932652 7.0099225-15.527238 11.5992777-4.320757 4.1831241-8.150262 8.8453978-11.414674 13.8965704-4.539204 6.915877-8.101034 14.4256657-10.583956 22.3165589-.523044.482021-1.025577 1.025577-1.558877 1.476831l-35.136274 33.505606c-3.681822-3.804891-2.6665-10.378841-1.733225-15.075984 1.456319-7.404667 4.235633-14.809335 6.348322-22.039653 4.533051-15.3836578 9.63017-30.6545016 14.265779-46.038159 1.408117-4.8475955 2.881871-9.6848327 4.420237-14.5119167 13.332503-.7999502 26.726541-1.1178791 40.21288-1.1794138 1.458371 0 2.903409-.2872641 4.251018-.8454858 1.346583-.558119 2.571122-1.3763245 3.602852-2.4076449 1.031731-1.0314229 1.849116-2.2558595 2.408056-3.6033653.557913-1.3476084.845075-2.7919287.845075-4.2505046 0-1.4585758-.287162-2.9028961-.845075-4.2505045-.55894-1.3475058-1.376325-2.5719424-2.408056-3.6033653-1.03173-1.0313204-2.256269-1.8495259-3.602852-2.4076449-1.347609-.5582217-2.792647-.8454858-4.251018-.8454858-11.089565 0-22.159645.3248002-33.208188.9742983.594835-2.5468158.594835-5.1962918 0-7.74310758-1.435808-5.56888395-6.98418-7.95847872-12.306926-7.0662266-5.322745.89225213-8.696894 7.04571506-10.809583 11.52748728l-2.440874 5.2099319c-14.809334 1.4768311-29.628924 3.5690085-44.438258 6.4919034-2.829567.8002579-5.231469 2.6815766-6.685737 5.23752-1.454269 2.5559434-1.845013 5.5814985-1.088138 8.4231677.850204 2.8016717 2.743419 5.1698319 5.289927 6.6147676 2.546509 1.4449356 5.550424 1.856192 8.391273 1.1488515 8.204617-1.6477948 16.470769-3.0562199 24.798455-4.2253779l2.584455-.3794635-.912764.1435808c.309724.0185629.619449-.0232806.912764-.1230693-15.455448 31.8544265-32.213379 63.103762-54.62224 90.384115l-7.958478 9.117381c-1.404015-1.859372-2.327035-4.036672-2.687012-6.338067-.399975-4.251017.082046-8.53793 1.415296-12.594088 3.212108-12.084375 7.666189-23.804671 13.29148-34.9721807 2.115766-3.6329019 3.671566-7.5640417 4.615097-11.6608122.436896-2.0585385.33639-4.1951234-.292289-6.2035111-.628679-2.0083878-1.763993-3.8207877-3.297231-5.2624415-4.399726-3.5690085-11.281349-2.112689-15.496471 1.8050158-1.99167 1.8923949-3.649003 4.1080518-4.902258 6.553438-6.421139-4.1452803-13.973489-6.191717-21.608911-5.8560456-11.814649.889278-22.931905 5.9406557-31.372405 14.2555225-6.411909 6.1862814-11.796189 13.356399-15.947725 21.2397028-1.451192-7.613577-5.283774-14.5696566-10.942908-19.8654294-8.63536-7.7020844-19.793639-10.2557716-31.074988-9.6917041 5.183267-5.5446804 9.129688-12.1271422 11.578766-19.3116179 3.240824-10.0916792.5333-21.5371202-8.850731-27.3111196-7.17904-4.3792145-16.060538-4.1023087-24.0805516-3.2921027-2.1126889.2051154-4.3587029.4820213-6.5226707.7999502l.7076483-2.112689c.7427229-2.8371566.3449016-5.8523534-1.1080336-8.3998871-1.4530377-2.5475337-3.8457092-4.4248834-6.6658413-5.23003326-2.8397206-.70960709-5.843636-.29914034-8.3889134 1.14629784-2.5452774 1.44543822-4.4366468 3.81493162-5.2820301 6.61732122-1.4973426 4.7381665-3.0459641 9.4694616-4.6458645 14.1939878-5.1021438 1.734251-10.1103447 3.7334086-15.0041938 5.9893706-15.9740821 7.4934821-30.521894 17.7102817-42.99217382 30.1929915-1.09136793 1.0067065-1.96709801 2.2242717-2.574195584 3.5792643-.6166457 1.3681199-.9482951998 2.8475149-.97646016507 4.3480369C-.0232208815 76.0849777.256086647 77.5751413.824133322 78.964183c.554926468 1.383401 1.385377308 2.6395279 2.440870558 3.6920777 1.05566759 1.0444478 2.31057405 1.8659351 3.69009839 2.4156445 1.37952435.5497093 2.85550422.8163594 4.34015023.7841563 1.4907789-.0247165 2.9612515-.349927 4.3234231-.9561456 1.3621715-.6062187 2.5880439-1.4809334 3.6042883-2.5718399 2.4306179-2.4101063 4.9535377-4.758678 7.5379921-6.9841804 1.076856-.9537867 2.1126889-1.8562946 3.3023584-2.7690583.6722659-.5773999 1.3777604-1.1150075 2.112689-1.6101561-2.3280602 1.6716907.7589271-.5435559 1.1896695-.8614849 5.5723709-4.0921554 11.437339-7.7700802 17.5476251-11.0044428l1.0255772-.5333002C44.8111139 78.605231 37.4679815 98.5629624 30.6068703 118.643763c-1.6101561 4.758678-3.1895449 9.548123-4.7176549 14.35808-1.5281099 4.809957-3.3741488 9.650681-4.6458645 14.676009-.5859122 1.933213-.8491779 3.949498-.7794386 5.968859.2583429 2.168071 1.1635172 4.207944 2.5976843 5.853995 1.4340646 1.647077 3.330767 2.823414 5.4428406 3.3762 2.8375668.724057 5.8450719.322031 8.3932209-1.120956 2.5480464-1.444013 4.4392107-3.816173 5.2777226-6.622152 4.440749-14.573451 9.3327521-28.98281 14.3580801-43.34089 1.5486215-.810206 3.0767315-1.630668 4.6356088-2.389595l2.9228949-1.394785 1.6922023-.769183 1.0973675-.482021.8512291-.358952c10.3461249-4.168766 21.1223768-7.1784249 32.1313323-8.9738002 5.1555763-.8761506 10.3573033-1.4616526 15.5785173-1.753737 6.563693-.3179289 13.16841.4922771 17.434811 5.9688592 5.291978 6.748298.881997 17.178417-3.076731 23.270346-4.162818 6.083723-9.023028 11.659786-14.48115 16.614349-4.933026 4.889952-10.204492 9.427106-15.7733763 13.578642-1.7160982 1.203002-3.4424522 2.399851-5.1791646 3.58952-7.8396143 5.153525-16.1131504 9.614786-24.7266652 13.332503-3.2681042 1.415297-6.5670782 2.679833-9.8968196 3.794636-3.5177296 1.220436-7.0764823 2.369083-10.5839562 3.363893-3.5074739.994809-7.1790401 1.876806-10.8403506 2.59471-3.6202873.762004-7.2805722 1.319918-10.9634197 1.671691-2.8518224.171271-5.6868254.554837-8.4815231 1.148646-2.7432138.552786-5.2066501 2.047052-6.9636689 4.225378l-.3384405.440998c-1.2292568 1.763993-1.84538248 3.882835-1.7537164 6.030394.09935792 2.100382.7350106 4.139229 1.846326 5.923733 1.1113154 1.784505 2.6612702 3.255182 4.5019761 4.270504 3.3331257 1.67169 7.4354344.646113 10.9634198.225627l3.4254277-.440999c4.8407242-.684059 9.650681-1.531186 14.4298706-2.543431 4.7791895-1.012245 9.5003314-2.215247 14.1632205-3.610031 4.6561203-1.374274 9.2301944-2.943407 13.7940127-4.697144 4.5638184-1.753737 8.9943117-3.66131 13.3325031-5.753488 4.3381913-2.092177 8.6763827-4.399726 12.8607375-6.861111 4.1843551-2.461385 8.2764081-5.127886 12.2351351-7.948223 3.958728-2.820337 7.855921-5.856045 11.578766-9.055846.974299-.820462 1.928085-1.671691 2.871616-2.533176 6.59241-5.947322 12.643316-12.467941 18.080926-19.485966.461509-.594834.933275-1.189669 1.374273-1.79476.018461 1.51888.125121 3.036734.317929 4.543307 1.497343 12.060788 9.712216 23.947227 21.588399 26.531681 7.70311 1.337353 15.624668-.352798 22.111444-4.717655 6.399601-4.355626 12.035148-9.740932 16.675884-15.937469 1.589645-1.958852 3.076732-3.989495 4.635609-5.999626 2.433695 7.688752 7.590296 14.223729 14.501661 18.378343 2.150635 1.357864 4.576125 2.223451 7.101096 2.533175 2.524971.31075 5.086863.058458 7.503123-.738415 3.168007-1.542468 5.950398-3.774124 8.143082-6.532927 12.981756-14.465766 24.673335-30.038129 34.941414-46.540691-.143581.717904-.338441 1.435808-.482021 2.112689-1.948597 9.650681-3.620288 19.783383-.697393 29.198181 2.922895 9.414799 11.886439 17.639927 21.649934 16.409235 5.835534-.758927 10.76856-4.625353 15.260588-8.461012 6.871367-5.815022 13.537618-11.906951 20.019266-18.162971 1.404015 3.753612 3.456195 7.231344 6.061161 10.276283 8.994312 10.748049 22.962673 14.296545 36.418245 12.501785 12.11822-1.858345 23.467256-7.093917 32.746678-15.106751 1.240949-1.025577 3.620288-3.189545 3.620288-3.189545 0 0-.65637 2.471641-.851229 3.076731l-.953787 3.599776c-.635858 2.32806-1.251204 4.656121-1.876806 6.984181-1.087112 4.010006-2.52292 8.461011-.933275 12.450506.590732 1.59785 1.562979 3.026479 2.830593 4.163844 1.264536 1.137365 2.784442 1.953724 4.430493 2.379339 2.029617.477919 4.149485.41023 6.145258-.19486 1.995773-.605091 3.795661-1.727072 5.218137-3.25108 1.436833-1.937315 2.418311-4.174099 2.871616-6.543182.830717-2.728035 1.712714-5.415047 2.687012-8.102059 2.463436-6.259098 5.284799-12.371538 8.450756-18.306553 4.254094-8.589208 9.157378-16.841002 14.665753-24.685642 2.552662-3.356714 5.591447-6.315504 9.014823-8.77894 2.282935-1.7992728 4.922771-3.0927307 7.743108-3.7946357 2.103459-.4108462 4.283836-.1120956 6.198588.8492805 1.915778.961376 3.458246 2.5311242 4.385368 4.4632092 3.076732 5.476582 3.32287 12.306926 2.963918 18.460389-.256394 4.272554-.870715 8.516392-1.835783 12.686389-.512789 2.266526-1.025577 4.553563-1.763993 6.748298-.903533 2.358827-1.291201 4.883798-1.13839 7.404667.046151 2.126021.764055 4.183329 2.051154 5.876557 1.298381 1.686049 3.091089 2.922895 5.127886 3.538241 1.696304.37331 3.452092.383566 5.152499.030768 1.700407-.353825 3.306461-1.063524 4.713553-2.081922 3.599776-2.645989 4.102309-7.086738 5.035584-11.107001 1.292227-5.415047 2.481896-10.871118 3.32287-16.409234.950232-5.929887 1.186592-11.951051.717904-17.937345l.010255.030768zM104.181775 50.2480226c-3.805711 6.1450532-8.6380257 11.5912781-14.2862893 16.1015614-4.175022 3.0895511-8.5275715 5.9318357-13.0350856 8.5122903-2.8716161 1.5999004-5.8560456 2.9741738-8.8404751 4.399726 3.0767314-8.6353596 6.1534629-17.2707193 9.2301944-25.9368462.5538116-1.5691331 1.0255771-3.1587777 1.6101561-4.7176549 2.6870122-.676881 5.3740243-1.2717157 8.1020595-1.753737 4.6610431-.9556328 9.3967482-1.5012398 14.152965-1.6306677 1.16403-.121736 2.339341.0694316 3.404916.5538117 1.712714.943531.492277 3.1690334-.338441 4.4715164zm78.559211 94.2197734c-3.210057 3.743357-8.461012 7.681573-12.522297 4.902259-2.758803-1.856295-3.076732-5.774-2.861361-9.09687.689188-8.968672 3.292103-17.685052 7.633371-25.56251 4.341268-7.877458 10.320383-14.7337494 17.534293-20.1064404 3.3762-2.7330606 7.399539-4.5518191 11.681323-5.2817224 2.138329-.3237747 4.324859-.0485098 6.31653.79513 1.990645.8436398 3.709513 2.2227334 4.964819 3.9840596 0 .1640923.184604.358952.297418.5435559-8.923547 17.9086283-20.029522 34.6429703-33.064608 49.8225383h.020512z" fill="#0f0f0f"/><path d="M181.356456 220.001553c0 0 7.271342-1.087111 10.922397-1.589644l2.98443-.430743 8.020013-1.025577c7.671317-.964042 15.363146-1.83886 23.075486-2.625477 32.134409-3.289026 64.403169-5.048917 96.804228-5.281723 3.292102 0 6.594461 0 9.886564 0 3.292102 0 6.625228 0 9.937842 0 3.312614 0 6.625229.082047 9.948099.153837 3.32287.07179 6.625228.143581 9.937842.246138 3.312614.102558 6.625229.205116 9.937843.338441 1.651179.061535 3.292103.164092 4.933026.215371 1.422476.098456 2.85213-.026665 4.235634-.369208 1.853218-.527146 3.543369-1.514777 4.912514-2.871616 2.081922-2.082947 3.261336-4.901233 3.281847-7.845665-.057432-2.935202-1.250178-5.732976-3.326972-7.807719-2.076794-2.074742-4.875594-3.264412-7.810796-3.319793-66.043066-2.926997-132.21433.37331-197.638973 9.855796-4.786369.68406-9.537868 1.41222-14.255523 2.18448-4.717655.772259-9.455821 1.576312-14.214499 2.410106-4.724834.833794-9.445566 1.702458-14.163221 2.604966-2.051154.399975-4.19461.810206-6.286788 1.230693-2.1773.262547-4.305373.839947-6.317555 1.712714-1.698356.910712-3.136215 2.241911-4.174099 3.866425-.112814.164093-.205116.328185-.307673.492277-1.440936 2.572148-1.809118 5.608882-1.025577 8.450756.845075 2.810082 2.740342 5.187369 5.291978 6.635484 1.570158.886099 3.326972 1.391709 5.127886 1.476831 1.920906-.003076 3.835658-.233831 5.702208-.687136 1.98962-.399975 3.97924-.861485 5.979115-1.230693l7.455946-1.384529 8.594337-1.558877c2.966995-.540479 5.938092-1.0666 8.912265-1.579389 2.802903-.492277 5.609907-.971222 8.419989-1.435808l2.748547-.440998 2.47164-.38972z" fill="#0968ac"/></svg>