<svg width="256px" height="328px" viewBox="0 0 256 328" xmlns="http://www.w3.org/2000/svg" preserveAspectRatio="xMidYMid"><path d="M208.26192 138.798398c-14.691161 38.55747-51.907555 66.004029-95.623012 66.004029h0H6.06822007e-4v-81.920971V0H112.638908c56.561879 0 102.401213 45.8514708 102.401213 102.401214 0 12.840353-2.463697 25.073885-6.778201 36.397184z" fill="#07c"/><path d="M208.26192 138.798398c-15.825918-10.0247-34.534241-15.916942-54.662527-15.916942H6.06822007e-4v81.920971H112.638908c43.715457 0 80.931851-27.446559 95.623012-66.004029" fill="#343741"/><path d="M232.315737 159.81143c-21.451158 44.528599-67.035627 75.336952-119.677436 75.336952H0v92.540356h153.598786C210.160666 327.688738 256 281.837267 256 225.287525c0-24.910044-8.902079-47.726551-23.684263-65.476095" fill="#00bfb3"/></svg>