<svg width="256px" height="212px" viewBox="0 0 256 212" xmlns="http://www.w3.org/2000/svg" preserveAspectRatio="xMidYMid"><path d="M0 32.6915521h59.8506876v17.6031434H0V32.6915521zM0 0h59.8506876v17.6031434H0V0zm107.379175 65.1316306H0v17.6031435h103.355599c11.316307 0 37.721022.2514734 47.528487 16.0943025V89.021611c-4.777996-15.5913556-18.86051-23.8899804-43.504911-23.8899804h0zm.251473 32.6915521H0v17.6031433h103.355599c25.147348 0 40.990177 1.005894 47.528487 4.526523v-7.795678c-5.029469-12.3222005-26.153241-14.3339883-43.253438-14.3339883h0zm-.251473 82.9862473H0v-17.603143h103.355599c11.316307 0 37.721022-.251474 47.528487-16.094303v9.807466c-4.777996 15.591356-18.86051 23.88998-43.504911 23.88998h0zm.251473-32.691552H0v-17.603143h103.355599c25.147348 0 40.990177-1.005894 47.528487-4.526523v7.795678c-5.029469 12.3222-26.153241 14.333988-43.253438 14.333988h0zm69.40668 63.119843H256v-10.81336h-76.699411c-6.789783 0-22.884086-.251473-28.667976-9.555992v6.035364c2.766208 9.304518 11.316306 14.333988 26.404715 14.333988h0zm-.251473-19.866405h78.962672v-10.813359h-76.447938c-15.339882 0-24.895874-.502947-28.667976-2.766208v4.777996c3.017682 7.544204 15.842829 8.801571 26.153242 8.801571h0z" fill="#010101"/></svg>