<svg width="256px" height="388px" viewBox="0 0 256 388" xmlns="http://www.w3.org/2000/svg" preserveAspectRatio="xMidYMid"><title>bing</title><defs><radialGradient cx="93.7173476%" cy="77.8181394%" fx="93.7173476%" fy="77.8181394%" r="143.12136%" gradientTransform="matrix(1 0 0 .719543 .937173 .778181)rotate(229.091)translate(-.937173 -.778181)" id="b"><stop stop-color="#00cacc" offset="0%"/><stop stop-color="#048fce" offset="100%"/></radialGradient><radialGradient cx="13.8926614%" cy="71.4480037%" fx="13.8926614%" fy="71.4480037%" r="150.086127%" gradientTransform="matrix(.600049 0 0 1 .138927 .71448)rotate(-23.1954)translate(-.138927 -.71448)" id="c"><stop stop-color="#00bbec" offset="0%"/><stop stop-color="#2756a9" offset="100%"/></radialGradient><linearGradient x1="50.0002111%" y1="-3.51563173e-08%" x2="50.0002111%" y2="99.9999984%" id="a"><stop stop-color="#00bbec" offset="0%"/><stop stop-color="#2756a9" offset="100%"/></linearGradient></defs><path d="M129.424369 122.046918c-7.133299.82883-12.573413 6.621943-13.079101 13.927584-.218073 3.147889-.149666 3.361426 6.985523 21.722283 16.233415 41.774058 20.166292 51.828102 20.827692 53.243122 1.602479 3.42681 3.855777 6.650665 6.671075 9.544198 2.160323 2.220416 3.585169 3.414339 5.994935 5.023999 4.235231 2.828526 6.336973 3.610491 22.817184 8.490115 16.053514 4.753391 24.824063 7.912618 32.381793 11.663704 9.790995 4.859593 16.622318 10.38739 20.943342 16.946216 3.100268 4.706148 5.846025 13.145241 7.040703 21.640269.467138 3.320609.470162 10.661021.00567 13.663024-1.007975 6.515362-3.021278 11.975129-6.101137 16.544084-1.638006 2.429796-1.068067 2.02313 1.313353-.938055 6.739482-8.379378 13.60482-22.700778 17.107975-35.687661 4.239388-15.717523 4.81613-32.595331 1.659548-48.569854-6.147245-31.108124-25.78555-57.954561-53.444187-73.060194-1.737782-.949393-8.357079-4.418911-17.330961-9.084619-1.36173-.708266-3.218564-1.67769-4.126384-2.154276-.907819-.476965-2.764654-1.446389-4.126383-2.154276-1.36173-.707888-5.281756-2.750293-8.711212-4.538342-3.429457-1.788427-7.266714-3.789258-8.527532-4.446501-3.843304-2.003855-6.42201-3.350089-8.344607-4.356551-8.892247-4.655126-12.656183-6.536905-13.729164-6.863448-1.125514-.342417-3.984654-.781964-4.70199-.723005-.151178.012472-.8379.08806-1.526135.168184z" fill="url(#b)"/><path d="M148.810208 277.993827c-.492838.291772-1.184474.714313-1.537473.938433-.353377.224498-1.137231.711667-1.742318 1.083185-2.221172 1.363241-8.128424 5.003212-13.204578 8.136738-3.336105 2.059413-3.83121 2.366303-8.069087 4.996409-1.513284.938811-3.122566 1.928266-3.576476 2.198873-.45391.270608-2.393136 1.464908-4.309686 2.653917-1.91655 1.188631-5.258701 3.252201-7.427339 4.585207-2.168638 1.332627-6.047469 3.725385-8.619372 5.316904-2.572281 1.591141-5.9560061 3.677765-7.519179 4.636607-1.5635509.958464-3.0076717 1.884424-3.2094934 2.057522-.2997089.257002-14.2049938 8.870704-21.1822026 13.121431-5.2991411 3.228013-11.4293792 5.387202-17.7047475 6.235307-2.9215007.394572-8.4500533.396084-11.3632392.002267-7.8993523-1.066555-15.176459-4.012622-21.4087418-8.665859-2.4446497-1.825465-7.0470904-6.424277-8.80656703-8.800028-4.14633887-5.597716-6.82868088-11.602099-8.21789035-18.396006-.31965299-1.563551-.622064969-2.883706-.671764495-2.934351-.129843131-.131146.104704996 2.230621.527794605 5.318417.43996364 3.211383 1.37748945 7.856304 2.3872591 11.828865 7.81405057 30.743787 30.04931617 55.749262 60.15037277 67.646157 8.6677485 3.424165 17.4144872 5.582221 26.931474 6.640462 3.5760982.400619 13.6985499.559355 17.4307389.275898 17.115912-1.296345 32.018967-6.334327 47.307524-15.996444 1.361729-.860577 3.920026-2.473638 5.685021-3.585169 1.765372-1.111153 3.993347-2.523905 4.951811-3.138818.958086-.615292 2.113458-1.342076 2.567368-1.614951.45391-.273253 1.361729-.84357 2.017461-1.268.655731-.424052 3.461581-2.198873 6.235306-3.943837l11.091876-7.005932 3.808533-2.405608.137194-.086549.419517-.264938.199554-.126233 2.80396-1.771042 9.690463-6.12079c12.347403-7.758795 16.029325-10.482631 21.765746-16.10189 2.391625-2.342114 5.997203-6.340753 6.176348-6.84833.036282-.103179.677274-1.091878 1.42409-2.196984 3.035639-4.491855 5.059903-9.994329 6.06372-16.483235.464492-3.002003.461468-10.342415-.00567-13.663024-.902906-6.42012-2.954381-13.702329-5.166105-18.339314-3.62712-7.60346-11.35379-14.512261-22.453603-20.076341-3.064741-1.536339-6.229637-2.942287-6.583014-2.923949-.167429.008874-10.496616 6.322414-22.953622 14.030943-12.457007 7.708529-23.268449 14.399257-24.024713 14.868662-.756643.469783-2.056389 1.263842-2.88862 1.764239l-7.12763 4.421179z" fill="url(#c)"/><path d="M.0533481895 241.013222.106718678 294.701938l.694891215 3.117654c2.172851947 9.747532 5.937570267 16.775385 12.482336507 23.302841 3.0784604 3.070411 5.4325172 4.921576 8.7684703 6.895573 7.0589957 4.177406 14.6562958 6.23833 22.9779996 6.234556 8.7157473-.004541 16.2553355-2.17847 24.0247131-6.927326 1.3110849-.801239 6.4484663-3.964245 11.4161513-7.028987l9.0320857-5.572016v-63.699674-63.699675l-.0026456-58.273545c-.0018897-37.1775132-.0699195-59.2565749-.1874598-60.9886884-.7407686-10.8851411-5.293094-20.8919423-12.9479549-28.46101-2.3492947-2.3229521-4.3565508-3.8744844-10.3363676-7.989454-2.9755465-2.0478094-8.4224634-5.7991221-12.1040078-8.336179-3.6815443-2.5372458-9.7471542-6.7169949-13.4793429-9.288558-3.7321132-2.5713741-9.0551403-6.24014396-11.8289786-8.15257417-5.778562-3.98425039-6.2308088-4.26136587-7.9776243-4.886374264C18.366904.13569962 15.9591415-.162861118 13.6700153.0843541512 6.99810902.80490922 1.65713716 5.62213122.268845335 12.1713194.0528069748 13.1902541.013004155 26.7505903.0102532201 100.349957l-.00311175724 86.974927H0l.0533481895 53.688338z" fill="url(#a)"/></svg>