<svg width="256px" height="222px" viewBox="0 0 256 222" xmlns="http://www.w3.org/2000/svg" preserveAspectRatio="xMidYMid"><title>biome</title><path d="M127.998514-2.13162821e-14 70.9776307 98.7581403c21.6357073-6.6702048 44.9118113-7.6589006 67.4739563-2.3372685l19.270951 4.5486842-18.130548 76.878751-19.298438-4.548536c-14.824494-3.497136-30.2775093-.031946-42.2290793 9.415939-5.9781624 4.728399-10.6878403 10.664809-13.915886 17.324464l-17.8378316-8.629915c4.5128748-9.320099 11.1105694-17.634267 19.4440537-24.231516 16.6706831-13.195241 38.4059432-18.041396 59.0996112-13.158837l9.037785-38.316049c-32.37481-7.632155-66.4955134-.032094-92.5769342 20.611945-26.0814209 20.642406-41.31527080000002 52.110837-41.31527080000002 85.37048l256 .00743L127.99851399999999 0z" fill="#60a5fa"/></svg>