<svg width="512" height="147" xmlns="http://www.w3.org/2000/svg" preserveAspectRatio="xMidYMid"><path d="M123.362 85.044a39.369 39.369 0 00-6.508-9.822l-4.163-3.638c-.687-.606-.808-1.213-.162-1.779a32.174 32.174 0 008.327-10.792 37.186 37.186 0 002.95-10.913c.233-2.055.233-4.13 0-6.184-.43-4.662-.916-7.761-1.455-9.297-.35-1.401-.7-2.614-1.05-3.638-4.447-11.439-14.673-19.119-21.302-23.04a55.9 55.9 0 00-6.265-2.546A66.006 66.006 0 0082.416.808 59.498 59.498 0 0073.847 0H0v33.75h71.786a31.69 31.69 0 017.033.81c3.072.646 5.7 1.94 7.154 4.93.544 1.492.845 3.062.89 4.649v3.395a7.963 7.963 0 01-2.264 4.284 13.743 13.743 0 01-8.569 3.032c-5.497.404-11.035.08-16.572.162H0v91.753h33.75c1.052 0 1.213-.404 1.213-1.374V90.62c0-2.95 0-2.95 2.91-2.95h36.338a23.201 23.201 0 0111.56 2.506.323.323 0 00.202 0l1.172 1.091a11.722 11.722 0 013.072 12.854 11.398 11.398 0 01-3.96 5.133 19.725 19.725 0 01-10.43 3.315c-4.607.08-9.215 0-13.823 0-1.172 0-1.495.404-1.495 1.455v29.83c0 2.83 0 2.95 2.87 2.83 6.135.17 12.275-.006 18.39-.526 6.36-.89 11.776-1.967 16.25-3.234a4.81 4.81 0 00.282-.121 49.15 49.15 0 0013.905-7.235 26.273 26.273 0 006.548-6.468c.153-.115.289-.25.404-.404a35.65 35.65 0 006.548-13.136 71.463 71.463 0 001.698-8.488 38.278 38.278 0 00-4.042-21.989v-.04z" fill="#F7B911"/><path d="M138.721 133.83h22.272V46.807H138.72v87.025zm11.075-96.442a12.732 12.732 0 0012.652-12.934 12.894 12.894 0 00-12.652-13.177c-7.156.111-12.88 5.98-12.813 13.137 0 7.194 5.74 12.934 12.813 12.934v.04zm68.997 7.842c-26.273 0-47.574 20.048-47.574 44.987 0 24.859 21.301 44.867 47.574 44.867s47.575-20.008 47.575-44.867c0-24.939-21.302-44.987-47.575-44.987zm0 69.846c-13.919.158-25.36-10.94-25.626-24.859 0-13.742 11.56-24.939 25.626-24.939a25.262 25.262 0 0125.627 24.94 25.222 25.222 0 01-25.627 24.858zM377.846 45.23a40.016 40.016 0 00-27.203 11.035c-5.941-7.68-15.36-11.035-28.819-11.035a38.803 38.803 0 00-22.635 7.033v-5.416h-22.393v86.984h22.393V72.15a26.677 26.677 0 0118.755-6.872c11.52 0 17.461 6.67 17.461 19.968v48.585h22.312v-48.1c0-7.882-.162-11.116-.97-13.5a24.01 24.01 0 0117.34-6.872c12.126 0 18.876 6.548 18.876 19.968v48.504h22.231V85.327c0-28.173-11.681-40.016-37.308-40.016l-.04-.081zm133.992 51.414c0-1.455.162-3.193.162-4.971 0-27.082-15.562-46.483-42.28-46.483-26.272 0-44.542 20.088-44.542 45.027 0 24.859 18.27 44.867 44.543 44.867 16.976 0 31.204-7.033 39.207-17.947L494.7 105.294a27.89 27.89 0 01-22.433 10.752c-13.298 0-22.433-8.044-24.818-19.402h64.39zm-42.158-33.63c14.875 0 20.17 9.419 20.978 19.402h-43.087c2.061-10.751 10.387-19.401 22.11-19.401z" fill="#E75115"/></svg>