<svg width="256px" height="256px" viewBox="0 0 256 256" xmlns="http://www.w3.org/2000/svg" preserveAspectRatio="xMidYMid"><title>BitBar</title><path fill="#50e4ea" d="M6.731025 6.73h242.53795v242.54H6.731025z"/><g style="fill:#173647"><path d="M242.53795 13.4603496V242.542346H13.4620504V13.4603496H242.53795M256 0H0v256h256V0z"/><path d="M167.248589 77.1870946c16.806657-6.8705433 36.096365-2.9558976 48.895128 9.922758 12.798762 12.8786555 16.593297 32.1923504 9.618303 48.9559284-6.974994 16.763578-23.349843 27.68519-41.506608 27.683861l-7.585442.024644c-4.390836 19.084931-18.902522 34.716142-38.38704 40.124002-23.500579 6.522504-48.4662239-3.428411-61.0366811-24.328265-2.9093609-4.837152-4.9894379-9.985941-6.2602666-15.262473l-6.3174624.032438c-19.943425-.029711-36.1008577-16.194378-36.121641-36.137815 0-20.055597 13.4782243-33.5311259 33.5311263-33.5311259h1.366692c4.5923412-22.9059936 22.8449119-40.6013817 45.8822278-44.4816152 23.037316-3.8802335 46.079337 6.8598018 57.921664 26.9976627zM118.667678 61.692528c-23.8123184.4026177-43.231958 19.2033469-44.4053581 42.990144v4.313032c-4.4812333-1.323359-9.129152-1.996944-13.8017016-2.000169-12.1600539.641564-19.643164 8.642238-19.643164 21.203943.0148526 13.166859 10.684208 23.83742 23.8510656 23.853761l4.8124956-.024948c-.1064346-13.700325 4.9654827-27.314217 14.8819792-37.778195 16.5258703-17.4382497 42.5095033-21.9110422 63.8756823-11.114605l.967961.501271-7.547806 10.941622c-16.514522-7.99707-36.328393-4.09352-48.5755576 9.569918-12.2471644 13.663438-13.9678587 33.784731-4.218443 49.32923 9.7494157 15.544499 28.6128076 22.755578 46.2453686 17.678633 17.290864-4.97856 29.300447-20.593658 29.750439-38.499703l-.005783-1.131569 19.408643-.059305c13.787164.018962 26.10333-8.616222 30.785024-21.584182 4.681694-12.96796.721824-27.479121-9.897942-36.2715508-10.619766-8.7924298-25.614979-9.9747644-37.481471-2.9553189l-5.930419 3.5043383-2.795384-6.2808525c-7.090718-15.9037455-22.862799-26.1580787-40.275629-26.1854941zm37.062421 58.352624 9.165192 9.434757-47.73987 46.375874-22.1285488-22.125853 9.2999748-9.299975 12.963356 12.960661 38.439896-37.345464z"/></g></svg>