<svg width="256px" height="231px" viewBox="0 0 256 231" xmlns="http://www.w3.org/2000/svg" preserveAspectRatio="xMidYMid"><defs><linearGradient x1="108.63338%" y1="13.818022%" x2="46.9265964%" y2="78.7761408%" id="a"><stop stop-color="#0052cc" offset=".18"/><stop stop-color="#2684ff" offset="1"/></linearGradient></defs><g fill="none"><path d="M101.272088 152.561281h53.448624l12.901393-75.3195555H87.0600784z"/><path d="M8.30813067 6.83498206e-4C5.88502974-.0305685468 3.57212663 1.01125669 1.98985644 2.84669011.407586248 4.68212353-.282086001 7.12328571.105843921 9.51533612L34.9245512 220.888266c.895485 5.339259 5.4953944 9.264746 10.9090413 9.309595H212.873162c4.063354.052298 7.552433-2.878529 8.202287-6.889921L255.894156 9.55634756c.38793-2.39205042-.301742-4.83321259-1.884012-6.66864602-1.582271-1.83543342-3.895174-2.8772586531-6.318275-2.8460066081L8.30813067 6.83498206e-4zM154.924006 152.768274h-53.314864L87.1731177 77.3482475h80.6694903l-12.918602 75.4200265z" fill="#2684ff"/><path d="M244.610824 77.2417255h-76.917048L154.78548 152.601582h-53.272329l-62.9023275 74.663219c1.9937259 1.723985 4.5356374 2.682649 7.1712751 2.704595H212.729383c4.060112.052256 7.546408-2.876232 8.195743-6.884424l23.685698-145.8432465z" fill="url(#a)"/></g></svg>