<svg width="256px" height="256px" viewBox="0 0 256 256" xmlns="http://www.w3.org/2000/svg" preserveAspectRatio="xMidYMid"><defs><linearGradient x1="49.9733228%" y1="-0.0235524798%" x2="49.9733228%" y2="99.9898856%" id="a"><stop stop-color="#f9aa4b"/><stop stop-color="#f7931a" offset="1"/></linearGradient></defs><path d="M252.171181 158.953845c-17.102515 68.608521-86.612736 110.313702-155.1228096 93.211577-68.6100885-17.102124-110.316221-86.610757-93.21370621-155.1192667C20.93718 28.4376335 90.3473861-13.2675466 158.957475 3.83457763 227.467548 20.8366894 269.273696 90.345323 252.171181 158.953845h0 0z" fill="url(#a)"/><path d="M188.944877 112.05c2.5-17-10.4-26.2-28.2-32.3l5.8-23.1-14-3.5-5.6 22.5c-3.7-.9-7.5-1.8-11.3-2.6l5.6-22.6-14-3.5-5.7 23c-3.1-.7-6.1-1.4-9-2.1v-.1l-19.3999995-4.8-3.7 15c0 0 10.4 2.4 10.2 2.5 5.6999995 1.4 6.6999995 5.2 6.4999995 8.2l-6.5999995 26.3c.4.1.8999995.2 1.4999995.5-.5-.1-1-.2-1.4999995-.4l-9.2 36.8c-.7 1.7-2.5 4.3-6.4 3.3.1.2-10.2-2.5-10.2-2.5l-7 16.1 18.3 4.6c3.4.9 6.7 1.7 10 2.6l-5.8 23.3 13.9999995 3.5 5.8-23.1c3.8 1 7.6 2 11.2 2.9l-5.7 23 14 3.5 5.8-23.3c24 4.5 42 2.7 49.5-19 6.1-17.4-.3-27.5-12.9-34.1 9.3-2.1 16.2-8.2 18-20.6h0 0zm-32.1 45c-4.3 17.4-33.7 8-43.2 5.6l7.7-30.9c9.5 2.4 40.1 7.1 35.5 25.3h0zm4.4-45.3c-4 15.9-28.4 7.8-36.3 5.8l7-28c7.9 2 33.4 5.7 29.3 22.2h0z" fill="#fff"/></svg>