<svg width="256px" height="287px" viewBox="0 0 256 287" xmlns="http://www.w3.org/2000/svg" preserveAspectRatio="xMidYMid"><defs><linearGradient x1="14.551495%" y1="49.9724928%" x2="411.68505%" y2="49.9724928%" id="a"><stop stop-color="#fff" stop-opacity="0"/><stop stop-color="#fff" offset="1"/></linearGradient><linearGradient x1="5.23920266%" y1="82.9103647%" x2="379.915947%" y2="-193.342226%" id="b"><stop stop-color="#fff" stop-opacity="0"/><stop stop-color="#fff" offset="1"/></linearGradient><linearGradient x1="62.6750831%" y1="44.0122841%" x2="-363.978405%" y2="243.704415%" id="c"><stop stop-color="#fff" stop-opacity="0"/><stop stop-color="#fff" offset="1"/></linearGradient><linearGradient x1="11.1341146%" y1="19.9042951%" x2="355.291211%" y2="478.170894%" id="d"><stop stop-color="#fff" stop-opacity="0"/><stop stop-color="#fff" offset="1"/></linearGradient><linearGradient x1="53.1154739%" y1="2.5340329%" x2="46.2655706%" y2="110.506183%" id="e"><stop stop-color="#1a3b54" stop-opacity="0"/><stop stop-color="#1a3b54" offset="1"/></linearGradient></defs><path d="M142.4 3.9c33.1 19.1 66.2 38.2 99.3 57.3C251 66.6 256 75.5 256 86.9v114c0 10.8-4.9 19.2-14.1 24.6-33 19.1-66.1 38.1-99.1 57.2-9.6 5.6-20 5.5-29.7-.1-32.9-19-65.9-38-98.8-57.1C6.4 221 0 211.9 0 200.4V81.8c0-10.4 4.9-15.7 14.1-21L53.7 38v148.3l74.3 42.9 74.3-42.9v-85.8L128 57.6l-31.2 18v-62c5.6-3.2 11.2-6.5 16.9-9.7 8.7-5.1 19.5-5.3 28.7 0h0z" fill="#2a5d84"/><path d="M159.2 125.2v18 18l-15.6 9-15.6 9.1-15.6-9.1-15.6-9v-18-18l15.6-9 15.6-9 15.6 9 15.6 9z" fill="#1a3b54"/><path d="M158.1 125.9 128 108.5l-30.1 17.4 30.1 17.5 30.1-17.5z" fill="url(#a)"/><path d="M128 178l30.1-17.4v-34.7L128 143.2V178z" fill="url(#b)"/><path d="M128 178l-30.1-17.4v-34.7l30.1 17.3V178z" fill="url(#c)"/><path d="M97.9 14.3v59.4L128 56.3l75.4 43.5v.3l48.1-27.6c-2.3-4.2-5.7-7.7-10.4-10.4-33.1-19-66.2-38.1-99.3-57.2-8.6-5-19-5-27.6 0-5.4 3.1-10.9 6.2-16.3 9.4h0z" fill="url(#d)"/><path d="M52.6 186.8v-.5c0-50.3.2-98 .2-148.3L14.9 59.8c-8.8 5.1-13.8 11.9-13.8 22v118.6c0 4.9 1.3 9.7 3.6 13.9l47.9-27.5h0z" fill="url(#e)"/></svg>