<svg width="256px" height="211px" viewBox="0 0 256 211" xmlns="http://www.w3.org/2000/svg" preserveAspectRatio="xMidYMid"><path d="M125.527954 36.0238689l7.3871.005464c31.974557.0953619 56.36557 1.1074435 71.890378 2.0495847l1.730222.1069759c16.419934 1.0182905 30.039569 12.4740585 33.858159 28.5121338l.5742 2.4496332c3.061651 13.1436265 7.064432 31.6733175 9.816612 50.2093675l.540031 3.664202c1.869671 12.962746 3.402367 28.144765 4.598087 45.123988.636431 10.055618-2.673013 19.729378-9.419187 27.23927-6.746175 7.509893-16.038075 11.837627-26.093694 12.346773l-6.413602.286655c-21.695084.941467-52.162917 1.974107-84.565501 2.003841l-5.715375-.005199c-31.3333637-.0852-60.6546506-1.084866-81.7116444-1.998642l-6.4136018-.286655c-10.182905-.381859-19.3475194-4.83688-26.09369391-12.346773-6.74617451-7.509892-10.055618613-17.183652-9.4191870553-27.23927l.2417072593-3.36361c1.142469226-15.578216 2.492027316-29.49363 4.219218036-41.660971l.37595455-2.5805C7.84172184 100.4289 12.2967427 80.1903763 15.4789005 66.6980273c3.7775293-15.8656229 17.1464625-27.3715166 33.4526879-28.4796908l5.3169501-.3188969c16.0100011-.9110784 40.1504768-1.8290921 71.2794155-1.8755707h0zm5.036266 17.4382247h-4.88234c-34.0327579.0513711-59.5311869 1.1674153-75.0719575 2.1620246-8.7827555.6364315-15.9107889 6.6188882-17.9473699 15.1470711l-.7843444 3.270081c-3.0804754 12.9954803-6.9495719 31.1277717-9.5258469 49.0445927l-.3759234 2.486465c-1.8500954 12.573097-3.2596918 27.2508-4.3336701 43.718466-.3818589 5.346026 1.4001494 10.437478 4.9641662 14.383354 3.5640167 3.945875 8.4008965 6.237029 13.7469216 6.491602l8.411943.374942c21.3793619.916407 50.6328474 1.886354 81.7946314 1.915536l5.750018-.005337c34.381332-.09541 66.195985-1.307583 87.335696-2.285141 5.346025-.254573 10.182905-2.545727 13.746922-6.491602 3.43673-3.945876 5.218738-9.037328 5.218738-14.383354l-.241676-3.269573c-1.223608-16.227607-2.677953-30.644273-4.467917-42.935358-2.927585-19.474805-7.25532-39.2041837-10.310191-52.3146737-2.036581-8.5281829-9.291901-14.6379259-17.94737-15.1470711l-4.712945-.2864539c-15.783083-.9110784-39.678146-1.8290921-70.367485-1.8755707h0zm25.820627 87.1892804c0 15.656217-12.728631 28.384848-28.384847 28.384848-15.625668 0-28.2572557-12.600085-28.5083249-27.919792l-.0038089-.465056h56.8969808zm-92.0280028-35.258308c9.6667851 0 17.3524037 7.67702 17.5611546 17.168978l.0043564.396533h-35.131022c0-9.67376 7.8917513-17.565511 17.565511-17.565511zm127.2863108 0c9.666786 0 17.352404 7.67702 17.561155 17.168978l.004356.396533h-35.131022c0-9.67376 7.891752-17.565511 17.565511-17.565511zM128 0c6.109743 0 10.946622 4.96416615 10.946622 10.9466228 0 5.9824566-4.964166 10.8193365-10.946622 10.8193365-5.982457 0-10.946623-4.9641662-10.946623-10.8193365C117.053377 4.83687984 122.017543 0 128 0z" fill="#683d87"/></svg>