<svg width="256px" height="208px" viewBox="0 0 256 208" xmlns="http://www.w3.org/2000/svg" preserveAspectRatio="xMidYMid"><path d="M100.43032 115.194555c.930804-16.6052014 9.062172-31.2346388 21.329474-41.6052063 12.030209-10.1861629 28.222696-16.4120159 45.89042-16.4120159 17.650161 0 33.842648 6.225853 45.881638 16.4120159 12.258521 10.3705675 20.389889 25.0000049 21.329474 41.5876443.930805 17.061823-5.927293 32.911843-17.957502 44.661055-12.267302 11.951179-29.715496 19.450303-49.25361 19.450303-19.538114 0-37.021434-7.499124-49.279954-19.450303-12.038991-11.749212-18.8795258-27.599232-17.93994-44.643493z" fill="#fff"/><path d="M133.167672 116.676183c.477604-8.520274 4.64988-16.026766 10.94434-21.3479954 6.172805-5.2266093 14.481312-8.421149 23.546776-8.421149 9.056452 0 17.364959 3.1945397 23.54227 8.421149 6.289954 5.3212294 10.46223 12.8277214 10.94434 21.3389844.477604 8.754571-3.041346 16.887355-9.214152 22.915978-6.29446 6.132255-15.247281 9.980121-25.272458 9.980121-10.025178 0-18.996022-3.847866-25.285976-9.980121-6.177311-6.028623-9.68725-14.161407-9.20514-22.906967z" fill="#265787"/><path d="M78.4107749 134.179185c.0586995 3.341357 1.1243213 9.834425 2.7227541 14.905159 3.3594179 10.732979 9.0577853 20.662227 16.9867341 29.412968 8.1366549 8.994571 18.1562089 16.219126 29.7290419 21.348559 12.164344 5.386809 25.344641 8.13214 39.035172 8.109701 13.667954-.018199 26.848251-2.817714 39.012595-8.245161 11.572834-5.179103 21.583357-12.435265 29.706466-21.434351 7.924433-8.786864 13.61377-18.734173 16.982219-29.467152 1.693255-5.422931 2.763392-10.927139 3.19235-16.449408.419927-5.440992.243828-10.891016-.528296-16.336524-1.508126-10.611064-5.179103-20.5674038-10.832317-29.6432506-5.170071-8.3398453-11.834723-15.6411608-19.759156-21.7865476l.018061-.013546-79.971305-61.4041991c-.072245-.05418416-.130945-.11288367-.207706-.16255248-5.246832-4.02768921-14.06982-4.01414317-19.840433.02257673-5.833828 4.08187337-6.502099 10.83231665-1.30945 15.09028855l-.022577.0225767 33.354866 27.1236873-101.6630301.1083683h-.1354604c-8.4030601.0090307-16.4810152 5.522269-18.0794479 12.4894489-1.6435862 7.0981249 4.063812 12.9861369 12.8010077 13.0177443l-.013546.0316075 51.5291357-.0993377L9.16793408 141.399224c-.11739901.085792-.24382872.176099-.35219704.26189-8.67398091 6.642075-11.47801118 17.686613-6.01444173 24.67637 5.54484568 7.107155 17.33441579 7.120702 26.09870359.040638l50.1835627-41.071593c0 0-.7314862 5.544846-.6727867 8.872656zM207.36456 152.74629c-10.340144 10.534304-24.816345 16.508108-40.480083 16.539808-15.686314.026999-30.162515-5.89262-40.502659-16.408863-5.052673-5.124918-8.764288-11.021961-11.053569-17.302808-2.244127-6.172479-3.115589-12.724247-2.537625-19.334714.546357-6.461461 2.469895-12.624909 5.540331-18.2013626 3.016251-5.4816308 7.17037-10.4349661 12.299804-14.6252078 10.051162-8.1908388 22.847654-12.6249092 36.231141-12.643026 13.397034-.018006 26.184496 4.3754263 36.244688 12.5391731 5.120403 4.1721803 9.270007 9.1074542 12.286258 14.5800543 3.083982 5.571938 4.993974 11.712809 5.562907 18.192332.568934 6.601436-.302528 13.144174-2.546655 19.321168-2.293796 6.298909-5.991865 12.195951-11.044538 17.343446z" fill="#ea7600"/></svg>