<svg width="256px" height="283px" viewBox="0 0 256 283" xmlns="http://www.w3.org/2000/svg" preserveAspectRatio="xMidYMid"><path d="M128.337681.0776964981c-6.700825 0-13.402646 1.7332295719-19.407191 5.2006848219L20.2439222 56.4813696C8.23383658 63.415284.835735409 76.2292296.835735409 90.0960623V192.503035c0 13.867829 7.398101171 26.681774 19.408186791 33.614693l88.6865678 51.203984c6.004545 3.466459 12.706366 5.199689 19.407191 5.199689 6.701821 0 13.402646-1.73323 19.408187-5.199689l88.686568-51.203984c12.010085-6.932919 19.408187-19.746864 19.408187-33.614693V90.0960623c0-13.8668327-7.398102-26.6807783-19.408187-33.6146927L147.745868 5.27838132C141.740327 1.81092607 135.039502.0776964981 128.337681.0776964981" fill="#fff"/><path d="M236.432436 56.4823658 147.745868 5.27838132c-12.010086-6.93391439-26.805292-6.93391439-38.815378 0L20.2439222 56.4823658C8.23383658 63.415284.835735409 76.2292296.835735409 90.0960623V192.503035c0 13.867829 7.398101171 26.681774 19.408186791 33.614693l88.6865678 51.203984c12.010086 6.933914 26.805292 6.933914 38.815378 0l88.686568-51.203984c12.010085-6.932919 19.408187-19.746864 19.408187-33.614693V90.0960623c0-13.8668327-7.398102-26.6807783-19.408187-33.6136965h0zm7.209836 131.1228012c0 12.540016-6.689867 24.127751-17.550443 30.398257l-80.202708 46.305121c-10.860576 6.270506-24.241308 6.270506-35.101884 0l-80.2027078-46.305121c-10.8605759-6.270506-17.5504436-17.858241-17.5504436-30.398257V94.9949261c0-12.5410117 6.6898677-24.1287471 17.5504436-30.3982568l80.2027078-46.3051207c10.860576-6.2705058 24.241308-6.2705058 35.101884 0l80.202708 46.3051207c10.860576 6.2695097 17.550443 17.8572451 17.550443 30.3982568v92.6102409h0z" fill="#298aec"/><g style="fill:#44546c"><path d="M73.6801868 109.915642H186.665837v9.905307H73.6801868v-9.905307z"/><path d="M73.6801868 143.223533H186.665837v9.905307H73.6801868v-9.905307z"/><path d="M73.6801868 176.422848H186.665837v9.905308H73.6801868v-9.905308z"/></g></svg>