<svg width="256px" height="256px" viewBox="0 0 256 256" xmlns="http://www.w3.org/2000/svg" preserveAspectRatio="xMidYMid"><path d="M29.2512483 254.992269c-4.7906647-1.262399-8.9244643-3.119497-12.7370813-5.722149-3.2184315-2.196947-7.92243647-6.738982-9.711353-9.37649-2.18486146-3.221351-4.69626883-8.738076-5.71978538-12.563985-1.04394011-3.902621-1.0608599193-5.456726-1.07959220877-99.133356C-.0151875002 34.9926489.00600325967 32.9431837 1.02922748 28.937751 4.64779928 14.7729615 15.8531636 3.99576227 30.3049881.780639226 34.4602052-.143781505 220.080352-.305463349 224.562499.611457561 236.696561 3.09366958 246.234854 10.3914949 251.754322 21.416131c4.388056 8.7647188 3.995771-.8802932 4.196741 103.184459.127914 66.212572.009982 94.009978-.41188 97.473181-1.976131 16.205612-13.134676 28.775168-29.190989 32.882499-4.107245 1.050546-5.53602 1.065546-98.788186 1.036975-90.1636819-.027142-94.794392-.074284-98.3087597-1.000976z" fill="#f06a35"/><path d="M164.337866 206.474219c11.469864-1.564586 20.458-6.161778 28.890067-14.77632 6.099909-6.231907 9.918309-12.977379 12.413694-21.929543 1.036662-3.718969 1.123581-5.529699 1.313546-27.365675.143373-16.480654.023737-24.19931-.40544-26.147953-.622-2.824434-2.385223-5.447339-4.397066-6.540957-.619092-.336512-4.585719-.765426-8.814733-.953102-7.086479-.314524-7.879331-.452722-10.116081-1.763556-3.547991-2.07926-4.525119-4.324536-4.534818-10.4202947-.018546-11.6471466-4.865546-22.4602595-14.442512-32.21952-6.822774-6.9526755-14.433977-11.6587946-23.120445-14.2957795-2.079527-.631296-6.735794-.8461227-22.332246-1.0304285-24.4721444-.2891662-29.9042186.2124658-38.2354186 3.53088-15.3596203 6.1179449-26.395823 19.0114418-30.4215495 35.5412196-.7561188 3.10464-.9028907 8.0803555-1.0814962 36.6629691-.223754 35.807971.0230684 41.066197 2.2605113 48.162332 1.8486016 5.86287 3.7137394 9.455559 7.5561472 14.554852 7.3199004 9.71429 18.2901134 16.730112 29.2579641 18.71141 5.219446.943075 69.6148337 1.179022 76.2098757.279466z" fill="#fff"/><path d="M162.316789 150.44111c4.233709 3.952981 3.340713 10.990791-1.761228 13.880377l-5.24277.852594-30.938714.357982c-20.859774.194692-27.1275793-.215744-28.4088503-.724202l-.0408753-.016984c-2.5169755-1.096732-4.8609058-4.143332-5.265996-6.844644-.3858759-2.573212.9073252-6.110848 2.8896512-7.904839l.4413462-.3839c1.9538231-1.605399 4.2020197-1.893767 22.6344862-1.958071l21.316706-.022609c21.549293.016118 21.738432.301322 24.376244 2.764296zm-30.372556-58.351673c3.285694 1.6598898 4.713396 4.0001849 4.713396 7.7262507 0 3.2358153-1.23967 5.5406903-3.993802 7.3979613l-.533526.341444c-1.340101.799043-2.654338.9388-13.041769 1.019655l-6.702336.038417c-8.308915.016808-14.704914-.157281-15.7271504-.438949-5.8637387-1.616299-8.0547104-10.0292128-3.7450344-14.3802172l.4013078-.398149c2.3071006-2.2345488 3.7744108-2.4659368 17.291449-2.486792l10.185803.0082328c8.60808.0399364 9.295751.2347327 11.151662 1.1721464z" fill="#f06a35"/></svg>