<svg width="256px" height="256px" viewBox="0 0 256 256" xmlns="http://www.w3.org/2000/svg" preserveAspectRatio="xMidYMid"><g fill="#122941"><path d="M127.75619 62.6660136c-21.278766 19.3004263-33.8546934 55.2077644-35.9537773 77.9122354 5.9675283 4.690431 11.7400093 10.007801 17.6843173 16.170377 1.439637 1.309605 10.174984 9.506249 18.278748 23.029551 8.113053-13.518658 16.839112-21.719946 18.278749-23.029551 5.944308-6.162576 11.712145-11.479946 17.679673-16.170377-2.103728-22.709115-14.679655-58.6164531-35.96771-77.9122354"/><path d="M153.386376 164.076844l-.292571.278639c-.273995.246132-26.939791 24.497052-29.419683 60.743401 19.76947-1.346757 40.839257-8.865378 43.272708-9.757025 45.139592-22.523356 54.859465-60.970957 54.269678-91.519129-30.664272 9.36693-48.320726 19.973805-67.830132 40.254114"/><path d="M121.969778 190.789079c-8.51708-16.467591-19.356154-26.271056-19.532626-26.433596l-.292572-.278639c-19.5094054-20.280309-37.1705029-30.887184-67.830131-40.254114-.5944309 30.548172 9.1300861 68.995773 54.265034 91.519129 1.6671927.608363 12.120816 4.346776 24.901079 7.068155 1.05883-11.930413 4.365352-22.560508 8.489216-31.620935"/><path d="M127.765478 19.0496508c-60.2093419 0-109.1895143 48.9801723-109.1895143 109.1848712 0 60.209342 48.9801724 109.189514 109.1895143 109.189514 60.204699 0 109.184871-48.980172 109.184871-109.189514 0-60.2046989-48.980172-109.1848712-109.184871-109.1848712h0 0zm0 236.9503492C57.3161361 256 0 198.683864 0 128.234522 0 57.7851791 57.3161361.473687075 127.765478.473687075c70.449343 0 127.760835 57.311492025 127.760835 127.760834925C255.526313 198.683864 198.214821 256 127.765478 256h0 0z"/></g></svg>