<svg width="256px" height="226px" viewBox="0 0 256 226" xmlns="http://www.w3.org/2000/svg" preserveAspectRatio="xMidYMid"><title>Bluesky</title><path d="M55.4911549 15.1724797C84.8410141 37.2065079 116.408338 81.8843671 128 105.858226c11.591662-23.9738589 43.158986-68.6517181 72.508845-90.6857463C221.686085-.726562511 256-13.0280836 256 26.1164797c0 7.8179155-4.482254 65.6734648-7.111211 75.0670423-9.138028 32.654873-42.436057 40.983887-72.056338 35.942761 51.774648 8.811718 64.945126 37.999324 36.500732 67.186929-54.021408 55.433014-77.643718-13.908282-83.696676-31.675944-1.109634-3.257239-1.628845-4.78107-1.636507-3.485295-.007662-1.295775-.526873.228056-1.636507 3.485295-6.052958 17.767662-29.6752676 87.108958-83.6966761 31.675944-28.4443944-29.187605-15.2739155-58.375211 36.5007324-67.186929-29.6202817 5.041126-62.9183099-3.287888-72.05633803-35.942761C4.48225352 91.7899445 0 33.9343952 0 26.1164797c0-39.1445633 34.3139155-26.843042211 55.4911549-10.944z" fill="#1185fe"/></svg>