<svg width="256px" height="348px" viewBox="0 0 256 348" xmlns="http://www.w3.org/2000/svg" preserveAspectRatio="xMidYMid"><path d="M142.029889 85.6873567l28.6935 28.6934993-28.675897 28.670029-.017603-57.3635283h0 0zm0 175.6464653 28.6935-28.687631-28.675897-28.675897-.017603 57.363528h0 0zm-30.635738-87.823232-62.0284226-62.186853 17.9789127-17.9730448 49.4126709 49.4361418V24.3161273l89.865224 89.8593567-59.335106 59.335106 59.346842 59.352709-89.871092 89.859356V204.24608l-49.4244067 49.44201-17.9789127-17.98478 62.0342904-62.19272h0 0zm16.617585 173.53406C203.788393 347.04465 256 311.04575 256 173.516457c0-137.523425-52.211607-173.51645700000003-127.988264-173.51645700000003C52.2409462-2.8421709400000002e-14 2.84217094e-14 35.9988998 2.84217094e-14 173.516457 7.575126920000001e-15 311.04575 52.2350784 347.04465 128.011736 347.04465h0 0z" fill="#0060a9"/></svg>