<svg width="256px" height="135px" viewBox="0 0 256 135" xmlns="http://www.w3.org/2000/svg" preserveAspectRatio="xMidYMid"><title>Booqable</title><path d="M241.248904 119.034135c-4.799044 5.403882-13.901362 3.931448-29.136344-4.481752-8.804857-4.804001-18.432691-11.323364-28.615786-18.2145526l-3.911617-2.622618c-6.226859-4.1842903-12.666898-8.5073959-18.849137-12.3000287-1.616207-.9717072-3.237372-1.9384567-4.729636-2.7911794l-3.148133-1.7401491c-3.435679-1.903753-6.405336-3.3712292-8.889138-4.4123441-.505685-.2330114-1.006411-.4511497-1.621165-.7089496v-.0049577c-.951876-.416446-1.908711-.8229765-2.865545-1.214634l-.540388-.3222499h-.247884c-16.50415-6.6532198-33.945303-10.024449-51.8970985-10.024449-14.6499737 0-28.8636706 2.270622-42.4923602 6.6631353 24.5009035-22.7062198 55.5856193-43.8111058 66.6065637-50.2213989 4.759383-2.7763063 10.639203-4.2437825 17.004877-4.2437825 6.39542 0 12.577659 1.5170531 17.406449 4.2735287 26.50381 15.1110388 93.680509 66.5321986 98.058149 93.3185975l.004957.039661c.629627 3.733141-.069407 6.678009-2.136764 9.008123m-219.3430747 2.786222c-3.0588947 0-5.2799398-.887427-6.9605967-2.776307-2.2012143-2.48876-2.9696562-5.62202-2.3400296-9.598088.2429268-1.561672.7337381-3.272075 1.4724339-5.116335.0495769-.138816.1288999-.287547.1883922-.421404.3272076-.793231.6742459-1.601334 1.0906918-2.439184.1586461-.322249.3619114-.66433.5304728-.991538.3569537-.6841608.703992-1.3584066 1.1105226-2.0673562l.3866998-.6345844c.0297461-.0495769.0694076-.1041114.0991538-.1536883 3.0291485-5.0618014 7.7835731-9.2807956 13.7575895-12.2107903 17.3519147-8.5073959 36.0424056-12.8205861 55.5558731-12.8205861 7.0647082 0 14.0401775.5701343 20.8966635 1.7153607-.277631.1288999-.560219.287546-.83785.4214036-.887427.4362768-1.784768.8874265-2.692026 1.3584071-.485853.2528422-.971707.5056843-1.467476.7684419-.917173.495769-1.849218 1.0064111-2.781264 1.5269685-.4610651.2577999-.9122149.5056844-1.3732801.7684419-1.2195917.6990343-2.4490988 1.4178994-3.6835636 2.1565952-.2627575.1536883-.5205574.3073767-.783315.4660228-1.2889993.7733996-2.5879141 1.5715877-3.8917866 2.3846489-.5850074.366869-1.1749725.7436534-1.7649376 1.1154802-.8477649.5354305-1.6955299 1.070861-2.5482526 1.6211646-.6593727.4214036-1.3237032.8527227-1.9880336 1.279084-.7932304.5205574-1.5914185 1.0361572-2.3896066 1.5616723-.6742458.4412344-1.3435339.8775111-2.0177798 1.3237032-.8180188.5403882-1.6409953 1.0857341-2.4590142 1.63108-.6643304.4412344-1.3336185.8824688-1.997949 1.3237032-1.343534.8973419-2.6870679 1.7946837-4.0256442 2.6920256-18.5566333 12.3496056-37.7428933 25.1156576-49.0860878 25.1156576m233.7005447-13.846828c-5.790582-35.3037103-83.725467-90.4282644-104.146192-102.073878C144.787131 2.09710283 136.428466 0 127.916113 0c-8.552015 0-16.593388 2.04752593-23.236693 5.92443944C88.8990931 15.1011235 37.9984907 50.057795 13.5719525 81.5242529c-2.4986757 3.2175408-4.66022848 6.3210546-6.44003916 9.2460917l-.44619209.7139073C3.19054986 97.3888606 1.11823548 102.634097.359708924 107.532294c-1.204718649 7.61997.629626619 14.441751 5.314643586 19.741521 4.05043266 4.541244 9.66253759 6.945724 16.23147679 6.945724 15.0912081 0 34.9368408-13.212244 56.2747382-27.411068 17.3320839-11.5910786 38.8980355-26.0179562 49.9090645-26.0179562 1.735191 0 3.956236.4511498 6.603643 1.343534l.689119.2379691c.589965.2032653 1.184888.431319 1.789726.6692881l1.799641.7733997c2.260707.9469187 4.843663 2.2309604 8.140527 4.0553903.381742.2131807.778357.431319.892384.4808959.237969.1338576.475938.2528422.758527.3916575l1.006411.5899651c1.50218.8626381 3.039064 1.7798107 4.531328 2.6821103 5.92444 3.6240713 12.250452 7.8777692 18.373199 11.9876942l3.871956 2.597829c10.440895 7.069666 20.30174 13.747675 29.607324 18.819391 11.268829 6.221901 19.984448 9.117192 27.425941 9.117192 6.950681 0 12.652024-2.444141 16.935468-7.272931 4.590821-5.170871 6.345844-11.838963 5.091548-19.290371" fill="#1d1d1b"/></svg>