<svg width="256px" height="204px" viewBox="0 0 256 204" xmlns="http://www.w3.org/2000/svg" preserveAspectRatio="xMidYMid"><title>Bootstrap</title><path d="M53.1720678 0C38.5648814 0 27.7564746 12.7848136 28.2402712 26.6500339c.4642712 13.320678-.1388475 30.5724746-4.4821695 44.6416271C19.4017627 85.4020339 12.0341695 94.340339 0 95.488v12.956203c12.0341695 1.147661 19.4017627 10.085966 23.7581017 24.196339 4.343322 14.069153 4.9464407 31.32095 4.4821695 44.641627-.4837966 13.863051 10.3246102 26.650034 24.9339661 26.650034H202.847458c14.607186 0 25.413423-12.784813 24.929627-26.650034-.464271-13.320677.138847-30.572474 4.482169-44.641627 4.358509-14.110373 11.706577-23.048678 23.740746-24.196339V95.488c-12.034169-1.147661-19.382237-10.0859661-23.740746-24.196339-4.343322-14.066983-4.94644-31.3209491-4.482169-44.6416271C228.260881 12.7869831 217.454644 0 202.847458 0H53.1698983h.0021695zM173.559322 125.533288c0 19.091526-14.240542 30.670102-37.872814 30.670102H95.4576271c-2.3963542 0-4.338983-1.942629-4.338983-4.338983V52.0677966c0-2.3963542 1.9426288-4.338983 4.338983-4.338983h39.9989149c19.705492 0 32.637831 10.6738983 32.637831 27.0622372 0 11.5026441-8.699661 21.8012204-19.783593 23.6040678v.6009492c15.088813 1.6553222 25.248542 12.1035932 25.248542 26.5372202zm-42.259525-64.0498982h-22.938034v32.3991865h19.319322c14.934779 0 23.170169-6.0138305 23.170169-16.763661 0-10.0729492-7.08122-15.6355255-19.551457-15.6355255h0zm-22.938034 45.2555932v35.705492h23.781966c15.548746 0 23.786305-6.239458 23.786305-17.96556 0-11.728271-8.467526-17.742101-24.786441-17.742101h-22.78183v.002169z" fill="#7e13f8"/></svg>