<svg width="256px" height="256px" viewBox="0 0 256 256" xmlns="http://www.w3.org/2000/svg" preserveAspectRatio="xMidYMid"><defs><path id="b" d="M256 9.14285714C256 4.09344 251.90656 0 246.857143 0H9.14285714C4.09344 0 0 4.09344 0 9.14285714V246.857143C0 251.90656 4.09344 256 9.14285714 256H246.857143C251.90656 256 256 251.90656 256 246.857143V9.14285714"/></defs><mask id="a" fill="#fff"><use href="#b"/></mask><use fill="#1f5296" href="#b"/><path d="M9.14285714 0H246.857143C251.90656 0 256 4.09344 256 9.14285714V118.857143C256 123.90656 251.90656 128 246.857143 128H9.14285714C4.09344 128 0 123.90656 0 118.857143V9.14285714C0 4.09344 4.09344 0 9.14285714 0" fill="#4ba2d9" mask="url(#a)"/><path d="M9.14285714 128H246.857143C251.90656 128 256 132.09344 256 137.142857v109.714286C256 251.90656 251.90656 256 246.857143 256H9.14285714C4.09344 256 0 251.90656 0 246.857143V137.142857C0 132.09344 4.09344 128 9.14285714 128" fill="#1f5296" mask="url(#a)"/><path d="M54.8571429 54.8571429 128 128l-73.1428571 73.142857L-18.2857143 128l73.1428572-73.1428571" fill="#356eb6" mask="url(#a)"/><path d="M54.8571429 205.021623-22.16448 128l77.0216229-77.0216229L131.878766 128l-77.0216231 77.021623h0zM-14.4069486 128l69.2640915 69.264091L124.121234 128 54.8571429 58.7359086-14.4069486 128h0z" fill="#fff" mask="url(#a)"/><path d="M201.142857 54.8571429 274.285714 128l-73.142857 73.142857L128 128l73.142857-73.1428571" fill="#356eb6" mask="url(#a)"/><g style="fill:#fff"><path d="M201.142857 205.021623 124.121234 128l77.021623-77.0216229L278.16448 128l-77.021623 77.021623h0zM131.878766 128l69.264091 69.264091L270.406949 128l-69.264092-69.2640914L131.878766 128h0z" mask="url(#a)"/><path d="M53.9428571-19.2h2.1942858v294.4h-2.1942858V-19.2z" mask="url(#a)"/><path d="M127.085714-19.2H129.28v294.4h-2.194286V-19.2z" mask="url(#a)"/><path d="M200.228571-19.2h2.194286v294.4h-2.194286V-19.2z" mask="url(#a)"/></g><path d="M54.8571429 32c12.6237257 0 22.8571428 10.2334171 22.8571428 22.8571429 0 12.6237257-10.2334171 22.8571428-22.8571428 22.8571428C42.2334171 77.7142857 32 67.4808686 32 54.8571429 32 42.2334171 42.2334171 32 54.8571429 32" fill="#1f5296" mask="url(#a)"/><path d="M54.8571429 82.2857143c-15.1241143 0-27.4285715-12.3044572-27.4285715-27.4285714 0-15.1241143 12.3044572-27.4285715 27.4285715-27.4285715 15.1241142 0 27.4285714 12.3044572 27.4285714 27.4285715 0 15.1241142-12.3044572 27.4285714-27.4285714 27.4285714h0zm0-45.7142857c-10.0827429 0-18.2857143 8.2029714-18.2857143 18.2857143 0 10.0827428 8.2029714 18.2857142 18.2857143 18.2857142 10.0827428 0 18.2857142-8.2029714 18.2857142-18.2857142 0-10.0827429-8.2029714-18.2857143-18.2857142-18.2857143h0z" fill="#fff" mask="url(#a)"/><path d="M201.142857 32C213.766583 32 224 42.2334171 224 54.8571429c0 12.6237257-10.233417 22.8571428-22.857143 22.8571428-12.623726 0-22.857143-10.2334171-22.857143-22.8571428C178.285714 42.2334171 188.519131 32 201.142857 32" fill="#1f5296" mask="url(#a)"/><path d="M201.142857 82.2857143c-15.124114 0-27.428571-12.3044572-27.428571-27.4285714 0-15.1241143 12.304457-27.4285715 27.428571-27.4285715 15.12448 0 27.428572 12.3044572 27.428572 27.4285715 0 15.1241142-12.304092 27.4285714-27.428572 27.4285714h0zm0-45.7142857c-10.082743 0-18.285714 8.2029714-18.285714 18.2857143 0 10.0827428 8.202971 18.2857142 18.285714 18.2857142 10.082743 0 18.285714-8.2029714 18.285714-18.2857142 0-10.0827429-8.202971-18.2857143-18.285714-18.2857143h0z" fill="#fff" mask="url(#a)"/><path d="M54.8571429 178.285714c12.6237257 0 22.8571428 10.233417 22.8571428 22.857143C77.7142857 213.766583 67.4808686 224 54.8571429 224 42.2334171 224 32 213.766583 32 201.142857c0-12.623726 10.2334171-22.857143 22.8571429-22.857143" fill="#4ba2d9" mask="url(#a)"/><path d="M54.8571429 228.571429c-15.1241143 0-27.4285715-12.304458-27.4285715-27.428572 0-15.124114 12.3044572-27.428571 27.4285715-27.428571 15.1241142 0 27.4285714 12.304457 27.4285714 27.428571 0 15.124114-12.3044572 27.428572-27.4285714 27.428572h0zm0-45.714286c-10.0827429 0-18.2857143 8.202971-18.2857143 18.285714 0 10.082743 8.2029714 18.285714 18.2857143 18.285714 10.0827428 0 18.2857142-8.202971 18.2857142-18.285714 0-10.082743-8.2029714-18.285714-18.2857142-18.285714h0z" fill="#fff" mask="url(#a)"/><path d="M201.142857 178.285714c12.623726 0 22.857143 10.233417 22.857143 22.857143C224 213.766583 213.766583 224 201.142857 224c-12.623726 0-22.857143-10.233417-22.857143-22.857143 0-12.623726 10.233417-22.857143 22.857143-22.857143" fill="#4ba2d9" mask="url(#a)"/><path d="M201.142857 228.571429c-15.124114 0-27.428571-12.304458-27.428571-27.428572 0-15.124114 12.304457-27.428571 27.428571-27.428571 15.12448 0 27.428572 12.304457 27.428572 27.428571 0 15.124114-12.304092 27.428572-27.428572 27.428572h0zm0-45.714286c-10.082743 0-18.285714 8.202971-18.285714 18.285714 0 10.082743 8.202971 18.285714 18.285714 18.285714 10.082743 0 18.285714-8.202971 18.285714-18.285714 0-10.082743-8.202971-18.285714-18.285714-18.285714h0z" fill="#fff" mask="url(#a)"/></svg>