<svg width="256px" height="252px" viewBox="0 0 256 252" xmlns="http://www.w3.org/2000/svg" preserveAspectRatio="xMidYMid"><defs><linearGradient x1="46.6458496%" y1="-2.08864266%" x2="57.3625907%" y2="137.781163%" id="a"><stop stop-color="#ff992e"/><stop stop-color="#ff4c2e" offset=".635"/><stop stop-color="#e3302e" offset="1"/></linearGradient></defs><path d="M51.5348709 251.616129c-15.0398164 0-27.7484613-11.580659-29.8540356-26.319679C21.4552381 223.190876.625092369 34.7419759.625092369 32.6364016.399495123 32.110008.0986987952 31.5836145.0986987952 31.0572209L.148831519 24.740498c0-5.2639358 2.055441571-10.5278715 6.266590171-13.6862329C9.9247122 6.31672289 17.9960803 0 128.012337 0c109.765594 0 117.912161 6.31672289 121.596916 11.0542651 3.709821 3.684755 5.790329 8.4222971 5.790329 14.2126265l-.075199 5.2639357c0 1.0527872.075199 1.5791807-.451194 2.6319679L232.513995 225.29645c0 .526393-.27573 1.052787-.27573 1.579181-2.732233 14.212626-15.265414 24.740498-29.47804 24.740498H51.5348709h0z" fill="#e5d1bf"/><path d="M247.553809 24.9510554c0-3.684755-1.478915-6.8431164-3.584489-8.9486907-5.4394-6.31672293-55.271326-8.42229723-116.33298-8.42229723-60.8109916 0-110.5426509 1.57918072-116.3329802 7.89590363-2.13064069 2.6319679-3.68475506 5.2639357-3.68475506 8.9486907l.05013273 5.7903294c0 .5263935-.05013273 1.0527871.47626085 1.5791807-.22559725.5263936 21.05574298 192.1336551 21.05574298 192.1336551 1.529048 11.054265 11.054265 19.476562 22.1085301 19.476562H202.43436c11.530526 0 21.00561-8.422297 22.058397-19.476562h.250664l22.559724-192.1336551v-1.5791807-5.2639358h.250664 0z" fill="#fef9ec"/><ellipse fill="#e5d1bf" cx="127.109946" cy="23.3718747" rx="105.805108" ry="5.79032932"/><path d="M213.964886 205.504051c-.250663 6.843117-5.263936 12.107053-12.107052 12.107053H52.2868595c-6.5172538 0-11.5054596-5.263936-12.0318532-12.107053-1.0026544-17.897381-7.36951-71.589526-7.36951-71.589526-.1503982-4.737542 2.1055743-7.36951 7.36951-7.36951H213.964886c4.762608 0 7.36951 2.631968 7.36951 7.36951.150398 0-6.843117 53.692145-7.36951 71.589526h0 0z" fill="url(#a)"/><g style="fill:#fef9ec"><path d="M97.1556472 136.335936c-3.007963 3.684755-2.306105 9.475084 1.9050436 12.633446l32.6865342 25.793285c4.010618 2.631968 9.951345 2.105574 12.583313-2.105575l25.517555-33.162795c3.007964-3.684755 2.381305-9.475084-1.829844-12.633446l-32.761733-25.793285c-4.010618-2.6319676-9.876147-2.105574-13.034508 2.105575l-25.0663608 33.162795h0z" opacity="0.65"/><path d="M65.8226966 112.121831c-5.0132724.526394-8.3470982 5.263936-7.8207046 10.001478l5.3140684 41.585093c.7519911 5.263935 5.2138031 8.422297 10.4777388 7.895903l40.9083008-5.263936c5.013272-1.052787 8.572695-5.263935 7.519908-10.527871l-5.013272-41.585092c-.751991-4.737543-5.514599-8.422298-10.252142-7.36951l-41.1338974 5.263935h0z" opacity="0.65"/></g></svg>