<svg width="512px" height="277px" viewBox="0 0 512 277" xmlns="http://www.w3.org/2000/svg" preserveAspectRatio="xMidYMid"><title>box</title><path d="M507.48581 245.433943c6.391509 8.948113 5.113207 20.452829-2.556604 26.844338-8.948112 6.391509-21.73113 5.113207-28.122639-2.556604l-44.740563-57.52358-43.46226 56.245279c-6.391509 8.948112-19.174527 8.948112-28.12264 2.556603-8.948112-6.391509-10.226414-17.896225-3.834905-26.844337l51.132071-66.471693-51.132071-66.471693c-6.391509-8.948113-3.834905-21.7311308 3.834905-28.1226398 8.948113-6.3915089 21.731131-3.8349053 28.12264 3.8349054l43.46226 57.5235804 44.740563-54.9669768c6.391509-8.9481125 17.896225-10.2264143 28.122639-3.8349054 8.948113 6.391509 8.948113 19.1745272 2.556604 28.1226392l-49.85377 65.193391 49.85377 66.471693h0zm-232.650926-7.66981c-33.235846 0-60.080184-25.566036-60.080184-58.801883 0-31.957544 26.844338-58.801882 60.080184-58.801882 33.235847 0 60.080185 26.844338 60.080185 58.801882-1.278302 33.235847-28.12264 58.801883-60.080185 58.801883zm-176.4056463 0c-33.2358465 0-60.0801841-25.566036-60.0801841-58.801883 0-31.957544 26.8443376-58.801882 60.0801841-58.801882 33.2358463 0 60.0801843 26.844338 60.0801843 58.801882 0 33.235847-26.844338 58.801883-60.0801843 58.801883zM274.834884 81.8113144c-37.070751 0-70.306598 20.4528286-86.924521 51.1320716-16.617923-30.679243-49.85377-51.1320716-88.2028235-51.1320716-23.0094322 0-43.4622608 7.6698108-60.0801841 19.1745266V19.1745268C39.6273554 8.94811252 30.6792429 0 20.4528286 0 8.94811252 0 0 8.94811252 0 19.1745268V180.240552c1.27830179 53.688675 44.7405626 95.872634 98.4292377 95.872634 38.3490533 0 71.5849003-21.73113 88.2028233-52.410373 16.617923 30.679243 49.85377 52.410373 86.924522 52.410373 54.966977 0 99.707539-43.462261 99.707539-98.429237 1.278302-52.410374-43.462261-95.8726346-98.429238-95.8726346z" fill="#0061d5"/></svg>