<svg width="256px" height="256px" viewBox="0 0 256 256" xmlns="http://www.w3.org/2000/svg" preserveAspectRatio="xMidYMid"><defs><linearGradient x1="50%" y1="0%" x2="50%" y2="100%" id="c"><stop stop-color="#29abe2" offset="0%"/><stop stop-color="#28a9e1" offset="47.57%"/><stop stop-color="#23a2dc" offset="66.39%"/><stop stop-color="#1a96d4" offset="80.12%"/><stop stop-color="#0e85c9" offset="91.3%"/><stop stop-color="#0071bc" offset="100%"/></linearGradient><filter x="-50%" y="-50%" width="200%" height="200%" filterUnits="objectBoundingBox" id="a"><feOffset dy="2" in="SourceAlpha" result="shadowOffsetOuter1"/><feGaussianBlur stdDeviation="2" in="shadowOffsetOuter1" result="shadowBlurOuter1"/><feColorMatrix values="0 0 0 0 0   0 0 0 0 0   0 0 0 0 0  0 0 0 0.273992301 0" in="shadowBlurOuter1" result="shadowMatrixOuter1"/><feMerge><feMergeNode in="shadowMatrixOuter1"/><feMergeNode in="SourceGraphic"/></feMerge></filter><filter x="-50%" y="-50%" width="200%" height="200%" filterUnits="objectBoundingBox" id="b"><feOffset dy="2" in="SourceAlpha" result="shadowOffsetOuter1"/><feGaussianBlur stdDeviation="2" in="shadowOffsetOuter1" result="shadowBlurOuter1"/><feColorMatrix values="0 0 0 0 0   0 0 0 0 0   0 0 0 0 0  0 0 0 0.273992301 0" in="shadowBlurOuter1" result="shadowMatrixOuter1"/><feMerge><feMergeNode in="shadowMatrixOuter1"/><feMergeNode in="SourceGraphic"/></feMerge></filter></defs><path d="M256 204.8c0 28.16-23.04 51.2-51.2 51.2H51.2C23.04 256 0 232.96 0 204.8V51.2C0 23.04 23.04 0 51.2 0h153.6C232.96 0 256 23.04 256 51.2v153.6h0z" fill="#115a91"/><path d="M204.8 28.16c12.70528 0 23.04 10.33472 23.04 23.04v128c0 12.70528-10.33472 23.04-23.04 23.04H51.2c-12.70528 0-23.04-10.33472-23.04-23.04v-128c0-12.70528 10.33472-23.04 23.04-23.04h153.6" fill="#fff"/><path d="M204.8 28.16c12.70528 0 23.04 10.33472 23.04 23.04v128c0 12.70528-10.33472 23.04-23.04 23.04H51.2c-12.70528 0-23.04-10.33472-23.04-23.04v-128c0-12.70528 10.33472-23.04 23.04-23.04h153.6 0zm0-28.16H51.2C23.04 0 0 23.04 0 51.2v128c0 28.16 23.04 51.2 51.2 51.2h153.6c28.16 0 51.2-23.04 51.2-51.2v-128C256 23.04 232.96 0 204.8 0h0 0z" fill="url(#c)"/><g transform="translate(56.32 53.76)" fill="#4d4d4d"><path d="M143.36 0v122.88h-64V92.16h35.84v-64H79.36V0h64 0z" filter="url(#a)"/><path d="M64 0v28.16H28.16v64H64v30.72H0V0h64 0z" filter="url(#b)"/></g></svg>