<svg width="256px" height="256px" viewBox="0 0 256 256" xmlns="http://www.w3.org/2000/svg" preserveAspectRatio="xMidYMid"><title>Branch</title><path d="M256 128.029185C256 57.4150372 198.577803 0 128.003647 0 57.4294914 0 0 57.4150372 0 128.029185c0 66.710597 51.2729449 121.659465 116.471064 127.503847h.313663c1.069858.092421 2.142148.172682 3.216869.240781l.620031.036481c.972598.058371 1.959785.10215 2.961561.131335h.780511c1.210884 0 2.421769.058371 3.647243.058371 1.225473 0 2.312352 0 3.464881-.051075h.48873c1.016365-.029186 2.027868-.070531 3.034507-.124038h.204245c2.271017-.12647 4.527445-.313743 6.769284-.56182C205.996296 248.316935 256 193.907997 256 128.029185zM141.53492 243.07815l-1.232769-35.409222 30.914034-18.97053c7.234215 4.959779 16.639649 5.437249 24.338711 1.235563 7.699062-4.201686 12.388008-12.371022 12.133721-21.140027-.495499-12.280816-10.335241-22.123082-22.612908-22.618708-6.956008-.249614-13.655608 2.642324-18.245923 7.876002-4.590314 5.233678-6.584847 12.254416-5.43198 19.120521l-21.817809 13.498262-1.582903-44.617226 30.425302-18.613008c10.688471 7.984052 25.569948 7.117857 35.260444-2.052379 9.690497-9.170235 11.379313-23.9847112 4.001512-35.1016915-7.3778-11.1169803-21.682308-15.3120173-33.893363-9.9397978-12.211055 5.3722195-18.786877 18.7534991-15.580874 31.7058493l-20.94247 13.00211-1.240063-35.6062252c9.96419-3.8538093 16.367838-13.6275266 15.923864-24.3041668-.518822-12.4493705-10.1443-22.6053935-22.545078-23.7877362-12.400778-1.1823428-23.771135 6.9718483-26.631983 19.0989865-2.8608493 12.1271384 3.665786 24.50548 15.286877 28.9929165l-2.26129 73.7734712-22.7952705-14.527048c1.5208547-6.216565.7947996-12.770829-2.0497507-18.503563-4.5590539-9.485264-13.7501068-16.212507-24.2322838-16.869178-12.9635392-.846335-24.8978533 7.065492-29.1690421 19.337552-4.2711887 12.272059.1710713 25.886542 10.8574712 33.275596 10.6863998 7.389055 24.9890582 6.735646 34.9575889-1.597016l31.774783 20.108761-1.911156 62.493302c-56.8969936-7.259876-101.0869922-56.021434-101.0869922-114.910335.043767-63.8723134 51.9950991-115.8515643 115.8583272-115.8515643 63.863229 0 115.814561 51.9646582 115.814561 115.8442683 0 59.304794-44.780852 108.32902-102.283288 115.056261z" fill="#333e48"/><path d="M127.272727 47.1757344c8.323122.0080205 15.068345 6.7549738 15.076364 15.0802309 0 8.3285815-6.749918 15.0802308-15.076364 15.0802308-8.326445 0-15.076363-6.7516493-15.076363-15.0802308 0-8.3285816 6.749918-15.0802309 15.076363-15.0802309zm56.836364 108.6678646c7.550306-.004058 13.681039 6.102221 13.70914 13.654413.014655 5.538704-3.308442 10.540621-8.419161 12.672428-5.110719 2.131806-11.002091.97347-14.925873-2.934662-3.923782-3.908131-5.106867-9.796034-2.997362-14.917084 2.109504-5.121052 7.09596-8.466243 12.633256-8.475095zm8.436364-39.719274c-7.997681 3.887235-17.631868.564361-21.534546-7.427359-2.854564-5.858831-1.899451-12.8607794 2.419929-17.740533 4.319381-4.8797538 11.152298-6.6762142 17.312268-4.5516139 6.159969 2.1246005 10.433744 7.751808 10.828278 14.2574109.394535 6.505605-3.167878 12.608284-9.025929 15.462095zm-128.1854567 4.481149c9.5923724.008023 17.3665251 7.78417 17.3745455 17.379002-.0040167 9.592245-7.77991 17.365791-17.369696 17.364452-9.589786-.00134-17.3635089-7.777057-17.3648478-17.369303-.0013389-9.592246 7.7702131-17.370133 17.3599983-17.374151z" fill="#009bde"/></svg>