<svg width="256px" height="241px" viewBox="0 0 256 241" xmlns="http://www.w3.org/2000/svg" preserveAspectRatio="xMidYMid"><path d="M0 240.878331h209.073515v-31.804816H31.8048154V31.8048154H209.155698V148.175923h-15.203852l30.982985 31.065168L256 148.175923h-15.121669V0H0v240.878331zM80.6215088 51.364366c4.1091493-.6574639 8.7935795-1.1505618 14.2176565-1.5614768 5.4240767-.4109149 12.0808987-.5752809 20.1348317-.5752809 6.985554 0 13.642375.5752809 19.888282 1.7258427 6.245907 1.1505618 11.752167 3.1229535 16.354414 5.834992 4.684431 2.7942215 8.300482 6.4102729 11.01252 11.0125201 2.712039 4.6022472 4.026967 10.3550562 4.026967 17.2584269 0 4.1091493-.575281 7.8895667-1.808026 11.423435-1.232745 3.533868-2.876404 6.574639-4.848796 9.204494-2.054575 2.629856-4.355698 4.766614-6.903371 6.492456-2.547672 1.725843-5.177528 2.794222-7.807383 3.122954 2.958587.410915 6.163723 1.314928 9.779775 2.712038 3.533868 1.397111 6.903371 3.451686 9.944141 6.245907 3.040771 2.712039 5.670626 6.32809 7.643018 10.601605 2.054574 4.355699 3.04077 9.533227 3.04077 15.696951 0 8.300481-1.561477 15.121669-4.68443 20.38138-3.122953 5.341894-7.314286 9.451043-12.65618 12.573997-5.259711 3.04077-11.423435 5.177528-18.408989 6.32809-6.985553 1.150561-14.299839 1.725842-21.942857 1.725842-5.917175 0-11.669984-.164366-17.422793-.493098-5.7528086-.328732-12.2452645-.904012-19.5595502-1.808025V51.364366zm27.7778492 116.864205v-39.858748h11.505618c3.944783 0 7.560835.328732 10.848154.986196 3.287319.657464 6.081541 1.725843 8.464848 3.369503 2.383306 1.561476 4.191332 3.698234 5.424077 6.32809 1.232744 2.629855 1.890208 5.917175 1.890208 9.861958 0 4.191332-.82183 7.643017-2.465489 10.272873-1.64366 2.629856-3.780418 4.68443-6.32809 6.163724-2.547673 1.479294-5.341894 2.46549-8.218299 2.958587-2.958587.493098-5.752809.739647-8.464847.739647-1.890209 0-4.026967-.082183-6.410273-.164366-2.383307-.164366-4.437881-.410915-6.245907-.657464m8.464847-60.897592h-8.464847V70.5130016c2.46549-.4109149 5.424077-.5752809 9.040128-.5752809 2.547673 0 5.177528.246549 7.725201.6574639 2.629856.4930979 5.013162 1.3149278 7.067737 2.7120385 2.136757 1.3149278 3.8626 3.2051365 5.177528 5.588443 1.314928 2.3833066 1.972391 5.4240771 1.972391 9.1223114 0 3.8626003-.57528 6.9855538-1.725842 9.5332264-1.150562 2.4654891-2.712039 4.4378811-4.766613 5.9171751-2.054575 1.479294-4.437882 2.465489-7.232103 3.04077-2.629856.493098-5.588443.82183-8.79358.82183" fill="#40d1f5" fill-rule="evenodd"/></svg>