<svg width="256px" height="256px" viewBox="0 0 256 256" xmlns="http://www.w3.org/2000/svg" preserveAspectRatio="xMidYMid"><title>Braze</title><path d="M115.665455 146.618182c2.094545-20.014546 14.661818-36.305455 29.323636-36.305455 14.661818 0 22.574545 16.290909 20.48 36.305455-2.094546 20.014545-14.196364 36.538182-27.927273 36.538182-13.730909 0-24.901818-12.567273-21.876363-36.538182M128 237.381818c-32.5796834.046455-63.4768683-14.463273-84.2472727-39.563636 18.1527272 5.818182 38.4.698182 54.2254545-14.894546 1.6712466-1.676493 3.2263612-3.464875 4.6545452-5.352727 7.214546 15.592727 21.178182 23.505455 35.141818 23.505455 23.738182 0 43.752728-24.436364 46.08-54.690909C186.181818 116.130909 169.192727 92.16 146.618182 92.16c-8.191364-.113559-16.251671 2.0627238-23.272727 6.2836364l6.981818-40.7272728c.695982-3.2600182-.069317-6.6613451-2.094546-9.3090909-2.094545-3.2581818-3.956363-4.6545454-6.749091-4.6545454H88.9018182c-1.9262234.1003739-3.4993278 1.5751593-3.7236364 3.4909091-.8657373 3.8355745-1.487589 7.7221477-1.8618182 11.6363636-.2327272 2.56 1.6290909 3.4909091 3.7236364 3.4909091h23.738182c-3.723637 23.2727273-11.1709093 68.4218179-13.2654547 79.8254549-2.1956388 10.794097-7.4463603 20.730078-15.1272728 28.625454-13.0327272 13.032727-37.0036363 16.058182-51.2 1.861818-4.8872727-5.12-12.5672727-17.687272-12.5672727-44.683636C18.6181818 67.5900899 67.5900899 18.6181818 128 18.6181818c60.40991 0 109.381818 48.9719081 109.381818 109.3818182 0 60.40991-48.971908 109.381818-109.381818 109.381818M128 0c-70.692448-4.32866401e-15-127.99999999999999 57.307552-128 128-8.65732801e-15 70.692448 57.307552 128 128 128 70.692448 0 128-57.307552 128-128 0-33.9477107-13.485676-66.5050116-37.490332-90.509668C194.505012 13.4856756 161.947711 2.07869776e-15 128 0" fill="#212124"/></svg>