<svg width="256px" height="256px" viewBox="0 0 256 256" xmlns="http://www.w3.org/2000/svg" preserveAspectRatio="xMidYMid"><title>Broadcom</title><circle fill="#cc092f" cx="128" cy="128" r="128"/><path d="M240.78033 162.570607c-14.639763-5.833832-28.041808-3.87871-41.475388 4.265004 0 0-4.895688 2.987867-6.362029 3.910243-6.259544 3.926011-12.164327 7.64705-17.840487 7.64705-5.416003 0-10.745287-1.450575-12.999984-11.927821-3.516066-16.342611-12.093375-56.501445-15.838064-76.3916565-2.199512-11.6913135-3.405696-17.9902747-4.659182-22.2710456-2.207395-7.5209123-6.243776-11.6124779-11.975121-12.266813 0 0-.898725-.1261369-1.631896-.1261369-.725287 0-1.718615.141904-1.718615.141904-5.676161.6779858-9.688891 4.7695513-11.880519 12.2510459-1.253485 4.2807709-2.45967 10.5797321-4.659182 22.2710456-3.744689 19.8902115-12.3219976 60.0490455-15.8380635 76.3916565-2.254697 10.477246-7.5839808 11.927821-12.9999838 11.927821-5.6761602 0-11.5809436-3.721039-17.8404871-7.64705-1.4663414-.922376-6.3699132-3.910243-6.3699132-3.910243-13.4256957-8.143714-26.8356244-10.098836-41.4675042-4.265004-3.1613059 1.261369-6.27502039 2.673968-9.23923742 4.100892 2.02607387 6.354146 4.54827332 12.607776 7.48883972 18.481026 3.2401415-1.592479 6.6382024-3.172603 10.106967-4.197466 4.9981745-1.474225 10.1224858-1.55306 15.0891261.11037 4.8247362 1.616129 9.1212742 4.47786 13.4020451 7.166152 8.0648777 5.069127 17.201919 10.816239 28.830164 10.816239 17.2334533 0 29.3268283-10.28804 33.1897703-28.231014 2.995751-13.906592 9.633706-44.952036 13.898709-66.363774 0 0 10.926609 52.457182 13.914477 66.363774 3.862942 17.942974 15.9642 28.231014 33.197654 28.231014 11.628245 0 20.765286-5.747112 28.830164-10.816239 4.280771-2.688292 8.577309-5.550023 13.402045-7.166152 4.958756-1.66343 10.090951-1.584595 15.089126-.11037 3.468764 1.024863 6.861744 2.606674 10.101886 4.199153 2.94845-5.873249 5.464006-12.129805 7.49008-18.483951-2.964217-1.426924-6.074091-2.838285-9.235397-4.099654" fill="#fff"/></svg>