<svg width="256px" height="256px" viewBox="0 0 256 256" xmlns="http://www.w3.org/2000/svg" preserveAspectRatio="xMidYMid"><path d="M94.8793826 251.607827C26.6126647 233.315815-13.899839 163.1461 4.39217292 94.8793826 22.6841848 26.6126647 92.8538996-13.899839 161.120617 4.39217292 229.387335 22.6841848 269.899839 92.8538996 251.607827 161.120617c-18.292012 68.266718-88.461727 108.779222-156.7284444 90.48721z" fill="#ea3"/><g style="fill:#fff"><path d="M101.606901 226.500386c-13.6000653-3.644126-12.8085036-50.6984 1.768002-105.098661 14.576506-54.400261 37.418131-95.5462379 51.018196-91.9021113 13.600065 3.6441265 12.808504 50.6983998-1.768002 105.0986613-14.576506 54.400261-37.418131 95.546238-51.018196 91.902111z"/><path d="M176.366192 193.74588c-6.800033-1.822063-6.404252-25.3492.884001-52.549331 7.288253-27.20013 18.709065-47.7731186 25.509098-45.9510553 6.800033 1.8220632 6.404252 25.3492003-.884001 52.5493303-7.288253 27.200131-18.709065 47.773119-25.509098 45.951056z"/><path d="M53.2407091 160.754506c-6.8000327-1.822063-6.4042519-25.3492.8840011-52.54933C61.4129633 81.0050452 72.8337754 60.4320567 79.633808 62.25412c6.8000327 1.8220632 6.4042519 25.3491999-.8840012 52.549331-7.288253 27.20013-18.7090651 47.773119-25.5090977 45.951055z"/></g></svg>