<svg width="256px" height="256px" viewBox="0 0 256 256" xmlns="http://www.w3.org/2000/svg" preserveAspectRatio="xMidYMid"><path d="M128 0c70.692 0 128 57.308 128 128 0 70.692-57.308 128-128 128C57.308 256 0 198.692 0 128 0 57.308 57.308 0 128 0" fill="#ffd539"/><path d="M174.9717 58.3999c1.046 3.634-1.715 36.458 50.742 56.229-3.734 7.564-20.4 14.729-50.285 21.485-3.541-43.786-11.771-65.6-.457-77.714" fill="#fff"/><path d="M183.8779 132.8096c-2.295.516-4.616.977-6.965 1.384-.569-10.574-1.81-19.822-3.033-28.096 3.881.723 7.656-1.756 8.489-5.64.847-3.949-1.668-7.837-5.617-8.685-1.012-.217-2.058-.217-3.068 0 2.435.666 3.871 3.182 3.204 5.617-.5 1.829-2.041 3.093-3.809 3.328-2.4-16.052-3.999-28.424 1.198-40.227-.075 13.145 5.625 24.984 15.856 34.975 9.36 9.145 22.391 16.238 32.737 18.888.574.685.602 1.52-.145 2.662-.844.656-1.78 1.302-2.751 1.873-9.869 5.785-21.944 10.739-36.096 13.921m48.027-24.741c0-6.06-4.912-10.972-10.971-10.972-5.149 0-9.457 3.552-10.64 8.336-16.955-8.825-36.345-26.725-31.605-52.577 3.526-4.892 8.438-9.804 15.246-14.966-12.733-1.493-26.268.816-39.16 5.767-.202-6.701.602-13.876 2.7-22.29-12.36 3.153-24.114 10.104-34.338 19.278-2.605-6.199-4.423-13.215-5.483-21.851-10.464 7.412-18.981 18.19-25.249 30.501-4.694-4.875-8.939-10.804-13.054-18.544-7.099 10.648-11.185 23.73-12.633 37.439-5.996-2.856-11.964-6.818-18.438-12.445-2.809 12.473-1.941 26.136 1.613 39.441-6.76-.479-13.886-2.035-22.135-5.037 1.849 12.662 7.565 25.117 15.662 36.272-6.366 1.89-13.438 2.952-22.012 3.103 6.286 11.196 16.131 20.803 27.739 28.327-5.353 4.183-11.716 7.802-19.881 11.101h.002c9.838 8.165 22.406 13.594 35.873 16.468-3.464 5.656-8.025 11.167-14.287 17.007 12.087 4.089 25.735 4.66 39.311 2.532-1.192 6.619-3.474 13.49-7.289 21.311h.002c12.785-.516 25.77-4.897 37.709-11.783 1.279 6.639 1.619 13.911.855 22.636 25.777-11.106 45.801-39.881 52.862-68.366 1.916-5.15 2.935-12.6 2.935-22.884 0-2.758-.066-5.41-.162-8.005 20.851-3.54 36.025-10.711 44.745-15.825 3.198-1.875 6.44-4.629 7.48-6.887 1.621-1.912 2.603-4.384 2.603-7.087"/></svg>