<svg width="256px" height="387px" viewBox="0 0 256 387" xmlns="http://www.w3.org/2000/svg" preserveAspectRatio="xMidYMid"><path d="M146.437673 115.038455v266.99169c0 2.836565 2.836565 4.609418 5.31856 3.191136l102.470914-55.66759C255.290859 328.84455 256 327.780838 256 326.362555V174.960893c0-1.418282-.709141-2.481994-1.772853-3.191136L152.110803 111.84732c-2.481994-1.418283-5.67313.35457-5.67313 3.191135zm-14.537396 268.055402V3.70327535c0-2.48199446-2.481994-4.254847647-4.963989-3.545706373L2.48199446 46.2517518C1.06371191 46.9608931 7.10542736e-15 48.024605 7.10542736e-15 49.7974582V338.417957c0 1.418282 1.063711909999993 2.836565 2.481994459999993 3.545706L126.936288 386.639563c2.481995.709142 4.963989-1.063711 4.963989-3.545706z" fill="#f14646"/></svg>