<svg width="256px" height="253px" viewBox="0 0 256 253" xmlns="http://www.w3.org/2000/svg" preserveAspectRatio="xMidYMid"><title>Brunch</title><path d="M76.2729388 188.767059c-.3059566-4.08758-1.4441151-8.562705-5.9600344-12.682921 0-.008159-.0081589-.008159-.0203971-.016318-.1754152-.163176-.3712274-.334512-.5588808-.497689-.0285559-.016318-.0448736-.040794-.0652707-.053032-6.2496733-5.707111-11.2428849-16.676674-11.2428849-28.323422 0-16.236097 7.1920196-62.3825096 8.7462791-62.3825096 1.2319852 0 1.2564617 22.2573226.4405775 43.1806736-.5670396 14.530899 1.5828154 20.254327 5.0503235 20.254327 4.6179048 0 5.3562801-14.624726 5.8335723-31.064793.3916245-13.53552 1.5746566-32.2682221 2.5210824-32.3702076h.0040794c1.4767505 0 2.6964974 18.6143986 3.0922013 32.1825546.4895305 16.848009 1.656245 30.836345 5.5153775 30.836345 4.0508653 0 5.2828505-6.469962 4.997291-20.833605-.3508302-17.533352-.3549096-42.1852946.8770756-42.1852946 1.5542595 0 6.8289515 16.1993816 8.1017305 62.3825096.322274 11.638589-4.9932116 22.612232-11.2469643 28.323422-.0203971.016317-.0367148.040794-.0652707.053032-.1876534.163177-.3834656.334513-.5588808.497689-.0081588.008159-.0203971.008159-.0203971.016318-4.5199987 4.120216-5.6540778 8.595341-5.9641138 12.682921-.4895305 6.527074-.7098193 14.889887-.6853428 24.301112l35.5970295 35.59703c.49769-15.514039.448737-30.146923-.236606-41.193996-.257004-4.128374-.889314-8.921694-1.611372-12.744112-.224368-1.219747-1.007617-2.345667-1.007617-3.31249 0-13.38866 0-126.1928163 0-134.4781209 0-11.4713325 10.741116-16.8928833 20.621475 8.2853046 9.880358 25.1781878 7.122669 114.7214843 7.122669 121.0894603 0 1.350289-1.170794 2.945342-3.092201 4.515919-.766931.49769-1.435956.999459-2.080505 1.513466-5.91924 4.748446-6.76368 10.223029-7.073716 15.130573-.738376 11.879275-1.333971 27.903241-1.488989 44.714536l49.05912-49.05912c-.069351-5.764222-.228448-10.949166-.49769-15.269273-.101985-1.656245-.514007-3.341046-.828122-5.115594-.889314-5.025847-7.110432-9.141983-10.708481-12.756351-6.992128-7.020684-11.48765-18.822449-11.48765-32.129521 0-21.608695 11.977181-48.9612139 26.752844-48.9612139 14.775664 0 26.756924 27.3484399 26.756924 48.9612139 0 13.307072-4.495522 25.112917-11.48765 32.129521-3.602129 3.614368-9.823246 7.730504-10.71256 12.756351-.314116 1.778627-.726137 3.459349-.828123 5.115594-.163177 2.598591-.28148 5.527616-.371227 8.685088L256 128 128 0 3.26849658e-13 128 76.9093285 204.909328c-.0856679-6.090575-.2937183-11.573318-.6363897-16.142269z" fill="#3f894a"/></svg>