<svg width="256px" height="276px" viewBox="0 0 256 276" xmlns="http://www.w3.org/2000/svg" preserveAspectRatio="xMidYMid"><title>Bubble</title><path d="M156.687886 71.5306475c-24.759841 0-49.163588 10.6297602-67.7947688 31.5283655V0H52.0240423v173.506229c0 .004132 0 .008265 0 .013086 0 56.326089 45.6612014 101.98729 101.9879787 101.98729C210.33811 275.506605 256 229.845404 256 173.519315c0-56.326089-42.986026-101.9886675-99.312114-101.9886675m-2.675865 164.6941275c-34.631955 0-62.7068375-28.074882-62.7068375-62.706149 0-34.631955 28.0748825-62.706837 62.7068375-62.706837 34.631267 0 62.706149 28.074882 62.706149 62.706837 0 34.631956-28.074882 62.706149-62.706149 62.706149" fill="#262626"/><path d="M25.2199377 225.066041c-13.92896 0-25.219937699999985 11.291666-25.219937699999985 25.219938C1.0658141e-14 264.21425 11.2909777 275.505916 25.2199377 275.505916c13.92896 0 25.2199377-11.291666 25.2199377-25.219937 0-13.928272-11.2909777-25.219938-25.2199377-25.219938" fill="#00f"/></svg>