<svg width="256" height="276" xmlns="http://www.w3.org/2000/svg" preserveAspectRatio="xMidYMid"><path d="M156.688 71.53c-24.76 0-49.164 10.63-67.795 31.529V0H52.024v173.519c0 56.326 45.661 101.988 101.988 101.988 56.326 0 101.988-45.662 101.988-101.988S213.014 71.531 156.688 71.531m-2.676 164.694c-34.632 0-62.707-28.075-62.707-62.706 0-34.632 28.075-62.707 62.707-62.707 34.631 0 62.706 28.075 62.706 62.707 0 34.632-28.075 62.706-62.706 62.706" fill="#262626"/><path d="M25.22 225.066C11.29 225.066 0 236.358 0 250.286c0 13.928 11.291 25.22 25.22 25.22 13.929 0 25.22-11.292 25.22-25.22 0-13.928-11.291-25.22-25.22-25.22" fill="#00F"/></svg>