<svg width="256px" height="223px" viewBox="0 0 256 223" xmlns="http://www.w3.org/2000/svg" preserveAspectRatio="xMidYMid"><g fill="#4a69a5"><path d="M72.4263785 0H53.8655403v52.5075627l22.634771 22.634771H49.3407589L19.6906755 45.4922503V0H0v53.8655403l40.2857641 40.2884801H94.604869l19.465251 19.4625356H62.0134061l43.9088479 45.266826-64.2785123 63.824948H66.994468l64.275797-64.729361-24.443597-24.443598h129.915003v8.147866l-56.130647 33.495876-47.075653 47.529217h26.705988l32.137899-32.591463 63.374099-38.023373v-38.476938h-59.751015l-20.369664-20.3696647 23.085619-23.0856195V18.5581222H179.47847v43.0044353l-18.783546 18.5581222-16.749296-17.539639V18.5581222h-18.107274v52.5102786l42.336311 42.5481552h-25.831451L72.4263785 44.359697V0"/><path d="M170.651616 145.303605h-25.348011l12.221799 13.126212 13.126212-13.126212"/></g></svg>