<svg width="256px" height="289px" viewBox="0 0 256 289" xmlns="http://www.w3.org/2000/svg" preserveAspectRatio="xMidYMid"><defs><path d="M116.612 3.643C92.293 17.641 35.707 50.383 11.389 64.38 4.389 68.414 0 76.006 0 84.073v121.476c0 8.066 4.389 15.659 11.389 19.692 24.2 13.998 80.904 46.739 105.223 60.738 7.117 4.032 15.777 4.032 22.776 0 24.201-13.999 80.905-46.74 105.223-60.738C251.61 221.208 256 213.615 256 205.549V84.073c0-8.185-4.39-15.659-11.389-19.693-24.2-13.997-80.904-46.739-105.223-60.737-3.559-2.017-7.503-3.025-11.433-3.025-3.929 0-7.844 1.008-11.343 3.025z" id="a"/></defs><mask id="b" fill="#fff"><use href="#a"/></mask><use fill="#00c9ff" fill-rule="nonzero" href="#a"/><g mask="url(#b)"><g transform="translate(0 -3)"><path fill="#1a67fd" d="M66.5503 147.8109l61.45 148.048-128-74.143z"/><path fill="#0da7fe" d="M66.5503 147.8109l-66.55-74.38v148.285z"/><path fill="#00c9ff" d="M66.5503 147.8109l61.45-147.811 128 221.716z"/><path fill="#05bbff" d="M66.5503 147.8109l61.45-147.811-128 73.431z"/><path fill="#1a86fd" d="M128 295.8593l128-74.143-189.45-73.905z"/><path fill="#05bbff" d="M256 221.7162V73.9052L128 2e-4z"/><path fill-opacity="0.5" fill="#1a67fd" d="M155.0474 135.3549l16.252 16.252-8.067 8.067-8.185 8.185-45.791 45.791-16.251-16.253 45.79-45.79-45.79-45.791 16.251-16.252z"/><g style="fill:#d6ffff"><path d="M171.2993 144.2518l-16.252-16.252-62.042 62.043 16.252 16.252z"/><path d="M109.2568 82.328 93.1228 98.58l62.043 62.043 16.252-16.253c-.119-.118-62.161-62.042-62.161-62.042"/></g></g></g></svg>