<svg width="256px" height="256px" viewBox="0 0 256 256" xmlns="http://www.w3.org/2000/svg" preserveAspectRatio="xMidYMid"><title>BugHerd</title><circle fill="#222" cx="128" cy="128" r="128"/><path d="M50.4181061 123.011971c1.5786328-.192323 2.7431931-1.187598 2.8240735-2.722079.163226-3.095599.1685008-6.217544-.0741403-9.304069-.0635908-.809393-1.1499082-1.948983-1.9871374-2.198095-.8480393-.252559-1.7469997-.334722-2.6630644-.381157l-1.1053235-.047191c-.369735-.01576-.7400425-.034422-1.1087581-.064606v14.95255c1.4265425-.074938 2.7807029-.072596 4.1143502-.235353zm-4.1064379 23.112345.9308055-.050693h0l1.8278457-.080669c.9032376-.046031 1.7910171-.113212 2.6659026-.258259 1.6864733-.279555 2.8677372-1.461006 2.9512549-3.180198.1456434-2.999584.1664496-6.018489-.0076191-9.014854-.1052031-1.808474-1.3128411-3.062814-3.1686943-3.314852-.8359105-.113433-1.6800996-.166343-2.5431534-.203227l-1.7543973-.065582c-.2976373-.011763-.5981548-.025042-.9019446-.041483v16.209817zm10.9935787-19.779636c4.105577 2.048584 5.4271697 5.491365 5.3515018 9.673387l-.011638.406997c-.0218807.561713-.0266707 1.125883-.0253811 1.690808l.0110963 1.695337c.0060941 1.411831-.0186339 2.817739-.2462321 4.191121-.8729807 5.266471-5.1074792 8.70749-10.4781128 8.815799-3.219391.064986-6.4417126.035127-9.6622758.005855-2.2048697-.019906-3.6870907-1.46569-3.6900212-3.665834-.0184618-14.624402-.0164105-29.248804-.0017582-43.873206.0017582-1.982647 1.2513016-3.613435 3.082246-3.637732l2.600494-.038042c3.0375883-.040207 6.0825236-.036083 9.0767585.32433 4.8200022.579895 7.7334544 4.183377 7.8837864 9.052031.0826387 2.678461.0849831 5.363656.0011722 8.042118-.0893641 2.854333-1.4077341 5.130624-3.5470813 7.021626l-.3445547.295405zm81.0418551 4.035549h-8.600867l.004304 11.524145c-1.55e-4 2.542388-.002429 5.076523-.009579 7.610611-.009084 3.220595-3.229941 5.006821-6.020607 3.368422-1.442074-.846569-1.79197-2.195167-1.789075-3.746626l.007653-10.899767h0l-.002049-10.899986c0-7.412753-.01055-14.825799.006154-22.238552.005861-2.666753 1.492184-4.139468 4.046656-4.097607 2.238277.036591 3.74277 1.523356 3.750389 3.789365l.01011 8.193166h0l-.003956 9.895672h0 8.523503l.060129-1.101048c.008183-.186045.013718-.372838.014011-.559598l-.001476-10.826754c.001216-1.80443.004993-3.608838.014077-5.413214.012894-2.554346 1.51768-4.001593 4.017646-3.977589 2.269632.021661 3.766799 1.469494 3.77559 3.741357l.011201 5.364611h0l-.004168 10.729286h0l-8.79e-4 28.3835h0c-8.79e-4 2.744033-1.372036 4.208844-3.910684 4.19772-2.501138-.010831-3.889585-1.509891-3.894567-4.254802l-.005494-8.485858h0l.001978-10.296454zm-32.349094 20.801485-1.844555-.109415h0l-.003516.051227h0-1.023313 0c-1.896001.001757-2.704804.698157-3.3527267 2.886884-.5749541 1.942544-.1002215 3.660272 1.2641957 4.575048 2.015856 1.351525 6.234237 1.060553 7.96496-.610046 1.20881-1.167107 1.642223-2.59562 1.171886-4.262121-.46682-1.65567-1.698195-2.280644-3.257487-2.451304l-.919444-.080273h0zm2.047374-22.947474h-.005568l.024543-2.043242c.006813-.680959.00271-1.361186-.040953-2.038851-.134215-2.076906-1.4157-3.249868-3.381445-3.236347-1.939371.013996-3.237853 1.226476-3.30203 3.313041-.082346 2.671144-.082932 5.348435 2.93e-4 8.019286.065056 2.078662 1.376432 3.302266 3.307012 3.315663 2.00091.013534 3.278293-1.227634 3.386133-3.392943.032675-.65454.035678-1.310617.030514-1.967096l-.018499-1.969511zm5.62822-7.821695c1.500666 1.654155 1.767793 3.566575 1.725619 5.55764l-.011306.374202c-.021295.550784-.029117 1.103824-.032959 1.657509l-.009081 1.661382c-.01344 1.383417-.06134 2.760811-.292031 4.107035-.824922 4.815377-4.742053 7.892534-9.625646 7.936444l-1.436087.005444h0l-2.710791-.003688h0l-.017777.196792h0l-.107464.711539c-.055976.424156-.07289.869374.113519 1.200482.317954.56438 1.304636.973906 2.035197 1.041234 1.646033.151926 3.31551.045373 4.975316.052106 6.391016.025467 10.332177 4.674281 9.332307 11.003355-.756055 4.785519-3.968413 8.021628-9.229155 9.113796-3.336609.692887-6.706039.634342-10.0074829-.249404-5.9757712-1.599466-8.220202-8.079881-4.3613869-12.561547.3265985-.37923.705066-.713964 1.1114826-1.048845l.8430114-.683184c.1443503-.118306.2900343-.239934.436166-.366539-1.9549023-1.370553-2.7801168-3.285287-2.5834836-5.643797.1922374-2.300843 1.4256634-3.973784 3.3536056-5.364828-3.0212927-2.983192-3.4051816-6.708449-3.2006362-10.604367l.0344683-.875635h0l.0359497-1.756437c.0249711-1.170639.0728391-2.337154.268928-3.478627.7412139-4.314054 4.1897527-7.185046 8.521742-7.624003l.3962-.033178c3.444449-.228328 6.872781-.70284 10.307854-1.068164.290993-.03103.581108-.075232.872687-.096893 2.551542-.18881 3.614709.53979 3.86028 2.640407.27517 2.355875-.716787 3.635683-3.154921 4.049307-.169028.02857-.33951.048757-.520991.066536l-.923134.083926zm95.762086 13.875311c0-3.461509-.076778-6.925653.038095-10.383357.04513-1.354746-.56792-1.954546-1.655117-2.370512-2.520771-.964247-4.495895.376155-4.508202 3.138337-.028719 6.337856-.017584 12.676004.004688 19.01386.002052.621169.106669 1.271903.313265 1.855896.457737 1.292102 1.813362 1.908294 3.374998 1.629032 1.762958-.315561 2.430221-1.036843 2.431394-2.645091l8.79e-4-10.238165zm.102858 16.04911c-1.522954 2.046755-3.361518 3.303143-5.831887 3.368422-4.632452.12236-7.854774-2.844439-7.899023-7.488863-.077072-8.097736-.058317-16.196937-.001173-24.294966.019048-2.733788.968221-5.13328 3.61676-6.376496 2.788615-1.30908 5.587194-1.158032 8.229287.501443.244022.153306.472005.332043.710476.533931l.773405.672833c.095325.081969.194763.166256.299297.252778l8.78e-4-12.470216h0c.003225-2.688707 1.225515-4.02062 3.691194-4.035499 2.532494-.014686 3.819253 1.337717 3.820719 4.082921.007326 14.245319.003517 28.490639.003517 42.73625l.005513 1.268575c-6.94e-4.211393-.003462.422711-.010202.633865-.063591 1.986453-1.091885 3.359933-2.720335 3.65793-2.061278.376741-3.578957-.401916-4.407982-2.268057l-.051193-.123243h0l-.229251-.651608zm-128.3193716.026053c-1.9153413 3.205957-4.8525301 3.810734-8.1472337 3.168488-3.2525051-.634049-5.3923189-3.316609-5.4295356-7.047721-.0931883-9.364957-.0533342-18.731669-.0231505-28.097504.0061538-1.890731 1.365296-3.200396 3.2147023-3.331831 2.3411356-.166563 3.8435767.861791 4.1934723 2.910595.067034.392768.0824738.796403.0861277 1.199051l.0082327 22.939014h0c2.93e-4.632585.0228574 1.267512.0764847 1.897756.195754 2.307282 1.5695485 3.272407 3.8028435 2.681974 1.2548181-.331661 1.9534372-.951659 1.9414222-2.450719-.0668142-8.38988-.039268-16.780637-.0272531-25.171102.0035165-2.570738 1.292328-3.972906 3.6126574-4.009204 2.527219-.039811 3.8936873 1.287126 3.8957386 3.838543.0079121 10.146541.0038095 20.293082.0029304 30.439622 0 2.440767-.7821368 3.698912-2.5067059 4.04199-2.3253111.462803-3.7556631-.4227-4.700733-3.008952zm84.3421266-19.906973.005901-1.035016h0l.027155-2.021734c.016014-1.329613.015966-2.627151-.071445-3.918668-.11165-1.648351-1.196502-2.465355-2.714182-2.458705-1.425663.006522-2.63125.843139-2.731764 2.316732-.080001 1.173254-.090697 2.351192-.081393 3.536521l.030666 2.381316c.004686.398796.007942.798614.007942 1.199554h5.52712zm-5.604483 5.983362-.004673 1.421896h0l-.018185 2.765798c-.005641 1.362284 2.93e-4 2.699026.046594 4.034452.064177 1.849163 1.193279 2.87137 2.849862 2.863173 1.687645-.008196 2.715647-1.004935 2.908763-2.828631.025788-.241794.024909-.486514.031942-.729771.072968-2.469162 1.226979-3.637732 3.573682-3.616948 2.317399.020198 3.498956 1.258438 3.526503 3.694521.065935 5.834363-3.674197 9.65505-9.529234 9.64688-1.40134-.002076-2.845466-.078185-4.195523-.415993-3.975154-.99469-6.465157-3.850545-6.617833-8.413298-.232971-6.958146-.261396-13.94176.059781-20.894637.328797-7.114463 5.783827-10.081848 12.427448-9.047347 4.9507.770753 7.874115 4.323594 8.044961 9.464192.060132 1.811167.065618 3.624652.051714 5.438306l-.043216 3.626897h0c-.026081 1.97972-1.120311 2.981142-3.158438 2.987875l-3.924832.005354h0l-6.029316-.002719zm25.668387-17.673165c.628874-2.815166 2.274614-3.958269 4.928136-3.720867 2.097029.187346 3.130012 1.473301 3.076385 3.969686-.049232 2.292646-1.244269 3.689837-3.24137 3.697448-.433589.001581-.868022-.054377-1.301907-.121969l-.866625-.137095h0c-1.642223-.238866-2.208093.234475-2.208386 1.879899-.001172 8.436131.008791 16.872554-.005568 25.308684-.004981 2.908546-2.506999 4.589391-5.24228 3.562794-1.596508-.599215-2.266116-1.761345-2.267288-4.002764-.004102-9.948071-.003809-19.895849-2.93e-4-29.84392 5.86e-4-2.500483.856277-3.740772 2.729127-3.994567 2.518428-.341321 3.608848.448166 4.400069 3.402671z" fill="#fff"/><path d="M231.693912 148.847273c-.018756 2.731153-1.905379 4.577974-4.635677 4.538163-2.612788-.038055-4.412963-1.928493-4.403623-4.624225.009707-2.73291 1.878454-4.551629 4.635128-4.51094 2.63887.03864 4.422633 1.900683 4.404172 4.597002" fill="#86bad3"/></svg>