<svg width="256px" height="131px" viewBox="0 0 256 131" xmlns="http://www.w3.org/2000/svg" preserveAspectRatio="xMidYMid"><path d="M256 93.602h-9.529c-32.965-58.463-112.805-23.437-98.124 36.781h-17.095v-15.984h-4.539v15.984h-16.178v-16.129H89.578v16.129H74.222v-16.177h-5.505v16.177H53.216v-16.129H42.447v16.129H0C0 33.098 92.09-16.578 168.002 5.137c.925-2.415 3.122-4.195 6.421-5.137 3.104 1.712 5.336 4.76 6.445 9.524 2.366.953 4.709 1.979 7.025 3.082 0 0 4.204-4.252 10.095-4.203 2.994 4.346 2.946 11.41 2.946 11.41C224.83 34.983 244.729 59.247 256 93.602" fill="#fc5252"/><path d="M190.1969 39.7741c0 7.254-5.881 13.135-13.135 13.135-7.254 0-13.135-5.881-13.135-13.135 0-7.254 5.881-13.135 13.135-13.135 7.254 0 13.135 5.881 13.135 13.135" fill="#f9ffff"/><path d="M187.1071 43.6374c0 2.774-2.249 5.022-5.022 5.022-2.774 0-5.023-2.248-5.023-5.022 0-2.773 2.249-5.022 5.023-5.022 2.773 0 5.022 2.249 5.022 5.022" fill="#fc5252"/></svg>