<svg width="256px" height="256px" viewBox="0 0 256 256" xmlns="http://www.w3.org/2000/svg" preserveAspectRatio="xMidYMid"><title>BugSnag</title><path fill="#84a7ff" d="M6.73102519 6.73102519h242.53795v242.54h-242.53795z"/><g style="fill:#173647"><path d="M242.53795 13.4603495V242.542346H13.4620504V13.4603495H242.53795M256 1.42108547e-14H0v256h256V0v1.42108547e-14z"/><path d="M95.6603487 36.0812063l9.6423213 5.6258108.078174 75.9848369h22.977677c27.533316-.199478 38.539634 17.890995 38.784938 36.53677.331564 25.153062-26.476624 43.685621-53.282116 31.107742-11.558308-5.421503-20.4726752-18.818762-20.8390906-31.615395l-.0117719-1.033785-.0322984-22.619626H78.330048v20.408727c-.6631286 24.600455 17.7642996 50.386993 48.874737 52.990986 31.218263 2.614776 55.481762-19.662033 55.481762-50.233342 0-28.878443-20.19038-48.979866-49.068823-48.979866h-7.925196l.002696-12.9498783h5.286159c35.601382.0485216 60.730183 23.4548063 63.773566 55.3901103 3.45862 36.267475-23.124959 69.007879-61.420742 69.356246h-1.164044c-41.7312783 0-65.4502573-29.414876-65.4879964-63.320697v-35.032601H93.366355l-.0727824-63.299132-14.1090052 7.0598939V104.59102H67.0946003V52.6189874l28.5657484-16.5377811zM130.188864 130.06756H105.51293v22.648808c-.002695 14.300396 11.917447 25.33367 26.217842 25.339062 14.045032.002647 23.487654-11.492929 23.506295-22.877159l-.008358-.620778c.002695-14.300396-10.742145-24.487238-25.039845-24.489933zm.617302 14.214135c5.32233 0 9.636931 4.314601 9.636931 9.63693 0 5.32233-4.314601 9.636931-9.636931 9.636931-5.322329 0-9.63693-4.314601-9.63693-9.636931 0-5.322329 4.314601-9.63693 9.63693-9.63693z"/></g></svg>