<svg width="256px" height="293px" viewBox="0 0 256 293" xmlns="http://www.w3.org/2000/svg" preserveAspectRatio="xMidYMid"><title>Builder</title><path d="M256 82.3201829c.01306 12.2811821-2.721917 24.4050811-8.008374 35.4847961-5.286457 11.079715-12.988955 20.83563-22.53953 28.546867L5.80199569 21.6220457c-.83884275-.480587-1.61651988-1.0572914-2.31992448-1.7257442-1.10098111-1.0791362-1.97477564-2.3679832-2.573324896-3.7878993C.310197059 14.6841171 0 13.1549767 0 11.6127293c0-3.08012569 1.22331235-6.03355121 3.39906073-8.2092996C5.57480912 1.22331235 8.52823464 7.7484371e-13 11.6083604 7.7484371e-13H173.719091C195.542109 7.7484371e-13 216.469488 8.67241073 231.9007 24.1123601 247.331911 39.5479405 256 60.4884265 256 82.3201829z" fill="#18b4f4"/><path d="M255.99996 210.379141c.004362 10.813207-2.123328 21.521559-6.256376 31.50903-4.133048 9.991841-10.192813 19.070566-17.834146 26.716268-7.641333 7.645702-16.71569 13.709836-26.698792 17.847254-9.983103 4.141786-20.687086 6.269475-31.491555 6.269475H11.6083604c-2.29807966-.026214-4.53499366-.729618-6.4311278-2.027203-1.89176516-1.297585-3.36410895-3.128184-4.216058614-5.260243-.856318642-2.132059-1.061660357-4.469459-.585442337-6.71948.471849047-2.245652 1.599043991-4.303438 3.241777711-5.91122.6553459-.655346 1.38933331-1.227681 2.18448633-1.703899l86.44449311-49.085408L225.43462 146.369322c9.546206 7.711237 17.248704 17.462784 22.53953 28.53813 5.290826 11.075345 8.030172 23.199244 8.02581 35.471689z" fill="#fd6b3c"/><path d="M225.452096 146.351846 92.2464888 222.013715 5.80636467 271.099123c-.83010481.463111-1.599044 1.026708-2.2849727 1.686423 32.95952973-33.820217 51.38785643-79.200736 51.34853573-126.4337.0611656-47.2417012-18.3627921-92.6309582-51.33105984-126.4555445.70340459.6684528 1.48108173 1.2451572 2.32429345 1.7257442L225.452096 146.351846z" fill="#a97ff2"/></svg>