<svg width="256px" height="225px" viewBox="0 0 256 225" xmlns="http://www.w3.org/2000/svg" preserveAspectRatio="xMidYMid"><title>bun</title><path d="M228.747342 65.5878481c-.518481-.5508861-1.069367-1.1017722-1.620253-1.6202532-.550886-.518481-1.069367-1.1017721-1.620254-1.6202531-.550886-.518481-1.069367-1.1017722-1.620253-1.6202532-.550886-.518481-1.069367-1.1017721-1.620253-1.6202532-.550886-.518481-1.069367-1.1017721-1.620253-1.6202531-.550886-.518481-1.069367-1.1017722-1.620253-1.6202532-.550886-.518481-1.069367-1.1017721-1.620253-1.6202532 16.073441 15.7965569 25.281597 37.2861355 25.632405 59.8197471 0 53.69519-54.505317 97.377215-121.518988 97.377215-37.5250629 0-71.0967085-13.707342-93.4237971-35.191899l1.6202531 1.620253 1.6202532 1.620254 1.6202532 1.620253 1.6202531 1.620253 1.6202532 1.620253 1.6202532 1.620253 1.6202531 1.620253c22.2946836 22.391899 56.6116456 36.812152 95.044051 36.812152C201.494684 224.405063 256 180.723038 256 127.189873c0-22.877974-9.851139-44.5569616-27.252658-61.6020249z"/><path d="M234.936709 114.065823c0 49.288101-50.778734 89.243544-113.417722 89.243544-62.638987 0-113.41772118-39.955443-113.41772118-89.243544 0-30.5579749 19.44303798-57.5513926 49.32050638-73.5594939C87.2992405 24.4982278 105.899747 8.10126582 121.518987 8.10126582c15.619241 0 28.970127 13.38329118 64.097216 32.40506328 29.877468 16.0081013 49.320506 43.001519 49.320506 73.5594939z" fill="#fbf0df"/><path d="M234.936709 114.065823c-.015759-6.331699-.887798-12.632179-2.592405-18.7301268C223.497722 203.244557 91.8683544 208.429367 40.1174684 176.153924c23.2636877 18.031389 51.9715156 27.608284 81.4015186 27.155443 62.541772 0 113.417722-40.020253 113.417722-89.243544z" fill="#f6dece"/><path d="M77.8693671 34.5762025C92.3544304 25.8916456 111.603038 9.59189873 130.527595 9.55949367c-2.911319-.94104351-5.949083-1.43276802-9.008608-1.45822785-7.842025 0-16.202531 4.05063288-26.7341769 10.14278478-3.6617721 2.1387342-7.4531645 4.5043038-11.4713924 6.9670886-7.5503797 4.6663292-16.2025316 9.9483545-25.9240506 15.2303798C26.5397468 57.1301266 8.10126582 84.6420253 8.10126582 114.065823c0 1.296202 0 2.592405 0 3.856202C27.7387342 48.5427848 63.4167089 43.2607595 77.8693671 34.5762025z" fill="#fffefc"/><path d="M112.186329 16.2997468c.091724 15.4834331-6.569668 30.2378843-18.2440505 40.409114-.9073418.8101265-.1944304 2.3655696.9721519 1.9118987 10.9205066-4.2450633 25.6648106-16.9478481 19.4430376-42.5802532-.25924-1.4582278-2.171139-1.0693671-2.171139.2592405zm7.355949 0c8.023837 13.0919573 9.929473 29.0353831 5.217216 43.6496203-.388861 1.1341772 1.004557 2.1063291 1.782278 1.1665823 7.096709-9.0734178 13.286076-27.0906329-5.24962-46.5336709-.939747-.8425317-2.397975.4536709-1.749874 1.5878481v.1296202zm8.943798-.550886c12.562951 8.8941169 20.658715 22.7928298 22.197468 38.1083544-.068153.5665919.320606 1.0868627.883281 1.1820847.562676.0952221 1.100976-.2681619 1.223048-.825629 2.981266-11.3093671 1.296203-30.5903798-23.23443-40.6035443-1.296202-.518481-2.138734 1.2313924-1.069367 2.0091139v.1296203zM68.6663291 49.4501266c14.9376542-4.4626461 27.2732204-15.0662846 33.9281009-29.164557.583292-1.1665823 2.43038-.7129114 2.138735.5832912-5.6060764 25.9240506-24.368608 31.3356962-36.0344308 30.6227848-1.2313924.032405-1.1989874-1.6850633-.0324051-2.041519z" fill="#ccbea7"/><path d="M121.518987 211.443038C54.5053165 211.443038 0 167.761013 0 114.065823c0-32.4050635 20.0263291-62.6389876 53.5655696-80.7534179 9.721519-5.1848102 18.0496203-10.4020254 25.4703798-14.9711393 4.0830379-2.5275949 7.9392405-4.8931645 11.6658228-7.0967088C102.075949 4.5043038 111.797468 0 121.518987 0c9.721519 0 18.211646 3.88860759 28.840507 10.1751899 3.240506 1.8470886 6.481012 3.8562025 9.948354 6.0597468 8.068861 4.9903798 17.174684 10.6288608 29.164557 17.0774684 33.539241 18.1144303 53.56557 48.3159493 53.56557 80.7534179 0 53.69519-54.505317 97.377215-121.518988 97.377215zm0-203.34177218c-7.842025 0-16.202531 4.05063288-26.7341769 10.14278478-3.6617721 2.1387342-7.4531645 4.5043038-11.4713924 6.9670886-7.5503797 4.6663292-16.2025316 9.9483545-25.9240506 15.2303798C26.5397468 57.1301266 8.10126582 84.6420253 8.10126582 114.065823c0 49.223291 50.87594938 89.275949 113.41772118 89.275949 62.541772 0 113.417722-40.052658 113.417722-89.275949 0-29.4237977-18.438481-56.9356964-49.320506-73.5594939-12.249114-6.4810126-21.808608-12.5731645-29.553418-17.3691139-3.532152-2.1711393-6.772658-4.1802532-9.721519-5.9625317-9.818734-5.8329113-16.980253-9.07341768-24.822279-9.07341768z"/><g transform="translate(97.241876 133.279793)"><path d="M47.1226807 4.44172636C45.6669472 10.4040245 42.3532397 15.74908 37.6604022 19.7045112c-3.5232071 3.4153202-8.0842043 5.5589889-12.9620253 6.0921519-5.0243584-.4486626-9.7453917-2.5977044-13.3832911-6.0921519-4.644908-3.974138-7.91197168-9.3171484-9.33265826-15.26278484-.09541267-.71532466.14555961-1.43454169.65267089-1.94799187.50711129-.51345017 1.2232795-.76333788 1.93973417-.67681826h39.9878481c.711172-.07565842 1.4177588.17903191 1.9171106.69102558.4993519.51199368.7363007 1.22472593.6428894 1.93378455h0z" fill="#b71422"/><path d="M11.3150858 19.9637517c3.6304888 3.4964659 8.334467 5.6657762 13.350886 6.156962 5.0049929-.4982556 9.6964827-2.6670709 13.3184811-6.156962 1.1585977-1.0799076 2.2413355-2.2384371 3.2405063-3.4673418-4.0347194-4.577251-9.7800982-7.28578668-15.878481-7.48556962-6.5537949.15520494-12.6120958 3.52362022-16.20253168 9.00860762.74531646.6805063 1.39341768 1.3286076 2.17113928 1.9443038z" fill="#ff6164"/><path d="M11.8335668 17.4037517c3.2549807-4.2073762 8.2584632-6.6912053 13.5777215-6.7402532 4.8528813.1431297 9.4766333 2.096665 12.9620253 5.4764557.7453165-.8101266 1.4582279-1.6526582 2.1387342-2.4951899-4.1225245-3.92613621-9.5706308-6.15858742-15.2627848-6.25417718-6.159461.05311761-11.9722861 2.85848928-15.84607597 7.64759498.76618327.8324467 1.57753307 1.6221605 2.43037977 2.3655696h0z"/><path d="M24.5687566 27.7409669c-5.3998714-.4731412-10.4814492-2.7569964-14.4202531-6.4810127C5.13238447 17.0173554 1.6016649 11.2841934.0705288015 4.89539724-.151852826 3.74343711.157751438 2.55265148.913060447 1.65489092 1.81299919.568161768 3.1645387-.0418250921 4.5748326.00223268757h39.9878481C45.9700686-.0274082757 47.3156254.579878411 48.2244529 1.65489092c.7481245.90109936 1.0461897 2.09336004.8101265 3.24050632h0C47.5034433 11.2841934 43.9727238 17.0173554 38.9566048 21.2599542c-3.9302988 3.7173985-8.9993732 6.0007653-14.3878482 6.4810127h0zM4.5748326 3.76122003c-.51848101 0-.64810127.22683544-.68050633.29164557 1.36979422 5.5402009 4.46837914 10.5002068 8.84658223 14.1610127 3.2014988 3.1541303 7.3639243 5.1498137 11.8278481 5.670886 4.4523973-.5151805 8.6101705-2.4858511 11.8278482-5.6060759 4.3644959-3.6670064 7.4510316-8.62588893 8.8141772-14.16101267-.1440784-.21126309-.3944304-.32392151-.6481013-.29164557L4.5748326 3.76122003z"/></g><g transform="translate(53.792405 88.400517)"><g style="fill:#febbd0"><ellipse cx="117.047089" cy="40.1827746" rx="18.956962" ry="11.1473418"/><ellipse cx="18.956962" cy="40.1827746" rx="18.956962" ry="11.1473418"/></g><path d="M27.8683544 35.7109055c7.2246846.0130823 13.7452735-4.3288719 16.5191308-10.9998505 2.7738573-6.6709786 1.254252-14.3561231-3.8497378-19.46939293C35.4337576.12839229 27.7513862-1.4051707 21.0753798 1.35656396 14.3993734 4.11829861 10.0455696 10.6309895 10.0455696 17.855686c0 9.8485079 7.9742931 17.837316 17.8227848 17.8552195h0zm80.2673416-2.96e-5c7.233314.0525118 13.783641-4.2643136 16.588172-10.9320115 2.804531-6.6676978 1.309078-14.3686961-3.787115-19.50215566-5.096193-5.133459554-12.786091-6.68498193-19.474046-3.929105C94.7747529 4.10348068 90.410096 10.6221813 90.410096 17.855686c-.0179664 9.8180502 7.9076794 17.8016533 17.7256 17.8551899h0z"/><path d="M22.3594937 18.989942c2.7159816.013042 5.1718343-1.6129275 6.2202997-4.1184113 1.0484654-2.5054838.4825966-5.39594771-1.4332591-7.32110368-1.9158557-1.92515598-4.8035455-2.5050154-7.3140771-1.46869534-2.5105317 1.03632007-4.1484066 3.48427004-4.1484066 6.20028342 0 3.692024 2.9834621 6.6900122 6.6754431 6.7079269zm80.2673413 0c2.715982.013042 5.171835-1.6129275 6.2203-4.1184113 1.048466-2.5054838.482597-5.39594771-1.433259-7.32110368-1.915856-1.92515598-4.803545-2.5050154-7.314077-1.46869534-2.5105318 1.03632007-4.1484066 3.48427004-4.1484066 6.20028342-3.851e-4 3.667007 2.944011 6.6547031 6.6106326 6.7079269h.06481z" fill="#fff"/></g></svg>