<svg width="256px" height="288px" viewBox="0 0 256 288" xmlns="http://www.w3.org/2000/svg" preserveAspectRatio="xMidYMid"><title>bunny.net</title><defs><linearGradient x1="-33.9398264%" y1="50.04095%" x2="153.690572%" y2="50.04095%" id="a"><stop stop-color="#fbaa19"/><stop stop-color="#ef3e23" offset="1"/></linearGradient><linearGradient x1="32.8908646%" y1="96.6666487%" x2="67.1130842%" y2="3.11111053%" id="b"><stop stop-color="#f78d1e"/><stop stop-color="#f37121" offset="1"/></linearGradient><linearGradient x1="14.4028408%" y1="75.177305%" x2="63.2274953%" y2="12.4480313%" id="c"><stop stop-color="#febe2d"/><stop stop-color="#f04e23" offset="1"/></linearGradient><linearGradient x1="69.8803244%" y1="3.21352923%" x2="33.1012862%" y2="81.5809617%" id="d"><stop stop-color="#ea4425"/><stop stop-color="#fdbb27" offset="1"/></linearGradient><linearGradient x1="-40.1271778%" y1="49.9893198%" x2="144.708119%" y2="49.9893198%" id="e"><stop stop-color="#f47920"/><stop stop-color="#e93825" offset="1"/></linearGradient><linearGradient x1="-143.227273%" y1="49.9166667%" x2="243.363636%" y2="49.9166667%" id="f"><stop stop-color="#fdca0b"/><stop stop-color="#f5841f" offset="1"/></linearGradient><linearGradient x1="39.6769732%" y1="-25.0126839%" x2="63.8868118%" y2="131.608321%" id="g"><stop stop-color="#e73c25"/><stop stop-color="#faa21b" offset="1"/></linearGradient><linearGradient x1="-562.993864%" y1="49.9979816%" x2="562.904684%" y2="49.9979816%" id="h"><stop stop-color="#fdba12"/><stop stop-color="#f7921e" offset="1"/></linearGradient><linearGradient x1="1.98261285%" y1="41.5011038%" x2="106.167127%" y2="60.0441501%" id="i"><stop stop-color="#febe2d"/><stop stop-color="#f04e23" offset="1"/></linearGradient></defs><path d="M141.23638 46.069962l66.381099 36.0489047L146.280536 0c-9.914002 13.3046568-11.844362 30.9352824-5.044156 46.069962h0z" fill="url(#a)"/><path d="M111.240463 179.773735c8.33985 3.3e-4 15.107315 6.748217 15.131873 15.08803.024425 8.339814-6.703292 15.127332-15.042995 15.176914-8.339704.049042-15.1472152-6.658444-15.2213472-14.997964-.0358826-4.036635 1.5425717-7.920284 4.3843582-10.787332 2.841787-2.867047 6.711316-4.479648 10.748111-4.479648h0z" fill="url(#b)"/><path d="M65.0359902 12.03872 250.929968 112.921849C254.031523 114.43055 256 117.577094 256 121.026127c0 3.449032-1.968477 6.595576-5.070032 8.104278-14.059393 8.460164-29.456769 14.464459-45.531918 17.75543l-38.671866 79.361395c0 0-12.240486 27.843743-45.935451 17.150132 14.123638-14.123638 31.206514-26.902168 31.206514-48.625668 0-22.546495-18.277545-40.824039-40.824039-40.824039-22.5464944 0-40.8240393 18.277544-40.8240397 40.824039 0 28.381786 27.9782543 40.353251 43.5142557 60.059089 6.997221 9.904947 6.07001 23.36355-2.219428 32.215345-19.3023056-19.100539-56.6290632-51.315884-71.9632988-72.434086-8.3835324-10.647161-12.9962565-23.775683-13.1148067-37.326757 1.508734-29.539258 21.3501073-54.972779 49.6344993-63.623627 8.4683963-2.466685 17.2826767-3.534394 26.0951022-3.161005 12.287449.93089 24.223253 4.534585 34.972818 10.559101 16.477578 9.684781 24.480973 7.129075 35.847139-2.421195 6.725542-5.514944 14.056382-23.472141 2.690216-27.641977-3.716218-1.2124465-7.51471-2.1564504-11.366165-2.8247276-21.118202-4.1025806-58.041427-8.0033949-71.6270217-15.7377681-21.5889895-11.9042092-36.11616-36.4524371-27.7764881-60.3953663z" fill="url(#c)"/><path d="M151.66097 194.97346c8.608694-45.262897-37.326758-88.440876-72.5685972-81.984356l2.3539397-.538043c-1.8831518.403532-3.6990481.87432-5.447689 1.412363-28.284392 8.650848-48.1257653 34.08437-49.6344992 63.623627.2143584 13.590719 4.9468494 26.723381 13.4510838 37.326757 15.3342355 21.118202 52.6609931 53.333548 71.9632979 72.434087 8.289439-8.851795 9.21665-22.310399 2.219429-32.215346-15.8722786-19.638582-43.8505329-31.677302-43.8505329-59.991834 0-22.546494 18.277545-40.824039 40.8240389-40.824039 22.546495 0 40.82404 18.277545 40.82404 40.824039l-.134511-.067255z" fill="url(#d)"/><path d="M65.0359902 12.03872 206.27237 88.9789194h0l4.035325 2.2194288c3.362771 2.6229614 6.725542 7.8688841 2.35394 17.5536648-6.725542 14.459915-33.627709 28.449042-64.632458 17.486409 9.684781 2.824727 16.275812-.403533 24.749995-7.532607 6.725541-5.514945 14.056382-23.4721416 2.690216-27.6419776-3.716218-1.2124465-7.51471-2.1564504-11.366166-2.8247276-21.118201-4.1025806-58.041426-8.0033949-71.6270208-15.7377681C71.2234888 60.5298771 56.6963183 35.9816492 65.0359902 12.03872z" fill="url(#e)"/><path d="M65.0359902 12.03872C79.6304162 65.8430552 168.474825 70.2819129 212.997912 92.7452229L65.0359902 12.03872z" fill="url(#f)"/><path d="M113.661658 255.032549c-15.5360016-19.638582-43.5142559-31.677302-43.5142559-59.991834.0794811-20.535756 15.4013147-37.816019 35.7798829-40.353251-32.4551578.110706-58.7377852 26.393334-58.8485899 58.848491-.0072581 3.976923.3984509 7.943855 1.2106958 11.836954 12.845785 14.527171 31.4082807 31.677303 47.0787933 46.204473 6.1202428 5.716711 11.7696988 11.097144 16.4103218 15.670513 3.861598-4.474134 6.214912-10.05149 6.725542-15.939535h0c.367505-5.827903-1.348818-11.596657-4.84239-16.275811h0z" fill="url(#g)"/><path d="M151.459204 199.81585c.212336-1.605601.324645-3.222851.336277-4.84239 8.474183-45.262897-37.461269-88.440876-72.7031082-81.984356 7.5251149-1.818502 15.2654949-2.588014 23.0013532-2.286684 46.204473 1.883151 59.117513 51.248629 49.365478 89.11343z" fill="url(#h)"/><path d="M15.1997247 99.8070419h0c8.4054435.0370287 15.1997247 6.8614551 15.1997247 15.2669801v15.199725H15.1997247C6.80514855 130.273747 0 123.468598 0 115.074022h0c0-8.405525 6.79428116-15.2299514 15.1997247-15.2669801h0z" fill="url(#i)"/></svg>