<svg width="256" height="288" xmlns="http://www.w3.org/2000/svg" preserveAspectRatio="xMidYMid"><defs><linearGradient x1="-33.94%" y1="50.041%" x2="153.691%" y2="50.041%" id="a"><stop stop-color="#FBAA19" offset="0%"/><stop stop-color="#EF3E23" offset="100%"/></linearGradient><linearGradient x1="32.891%" y1="96.667%" x2="67.113%" y2="3.111%" id="b"><stop stop-color="#F78D1E" offset="0%"/><stop stop-color="#F37121" offset="100%"/></linearGradient><linearGradient x1="14.403%" y1="75.177%" x2="63.227%" y2="12.448%" id="c"><stop stop-color="#FEBE2D" offset="0%"/><stop stop-color="#F04E23" offset="100%"/></linearGradient><linearGradient x1="69.88%" y1="3.214%" x2="33.101%" y2="81.581%" id="d"><stop stop-color="#EA4425" offset="0%"/><stop stop-color="#FDBB27" offset="100%"/></linearGradient><linearGradient x1="-40.127%" y1="49.989%" x2="144.708%" y2="49.989%" id="e"><stop stop-color="#F47920" offset="0%"/><stop stop-color="#E93825" offset="100%"/></linearGradient><linearGradient x1="-143.227%" y1="49.917%" x2="243.364%" y2="49.917%" id="f"><stop stop-color="#FDCA0B" offset="0%"/><stop stop-color="#F5841F" offset="100%"/></linearGradient><linearGradient x1="39.677%" y1="-25.013%" x2="63.887%" y2="131.608%" id="g"><stop stop-color="#E73C25" offset="0%"/><stop stop-color="#FAA21B" offset="100%"/></linearGradient><linearGradient x1="-562.994%" y1="49.998%" x2="562.905%" y2="49.998%" id="h"><stop stop-color="#FDBA12" offset="0%"/><stop stop-color="#F7921E" offset="100%"/></linearGradient><linearGradient x1="1.983%" y1="41.501%" x2="106.167%" y2="60.044%" id="i"><stop stop-color="#FEBE2D" offset="0%"/><stop stop-color="#F04E23" offset="100%"/></linearGradient></defs><path d="M141.236 46.07l66.381 36.049L146.281 0a45.734 45.734 0 00-5.045 46.07z" fill="url(#a)"/><path d="M111.24 179.774c8.34 0 15.108 6.748 15.132 15.088.025 8.34-6.703 15.127-15.043 15.177-8.34.049-15.147-6.659-15.221-14.998a15.132 15.132 0 0115.132-15.267z" fill="url(#b)"/><path d="M65.036 12.039L250.93 112.922a9.012 9.012 0 010 16.208 144.532 144.532 0 01-45.532 17.756l-38.672 79.361s-12.24 27.844-45.935 17.15c14.123-14.123 31.206-26.902 31.206-48.625 0-22.547-18.277-40.824-40.824-40.824-22.546 0-40.824 18.277-40.824 40.824 0 28.381 27.978 40.353 43.514 60.059 6.998 9.905 6.07 23.363-2.219 32.215-19.302-19.1-56.63-51.316-71.963-72.434a61.202 61.202 0 01-13.115-37.327c1.509-29.539 21.35-54.972 49.634-63.623a81.043 81.043 0 0126.095-3.161 84.607 84.607 0 0134.973 10.559c16.478 9.685 24.481 7.129 35.847-2.421 6.726-5.515 14.057-23.473 2.69-27.642a81.648 81.648 0 00-11.365-2.825c-21.119-4.103-58.042-8.004-71.628-15.738C71.223 60.53 56.696 35.982 65.036 12.04z" fill="url(#c)"/><path d="M151.661 194.973c8.609-45.262-37.327-88.44-72.569-81.984l2.354-.538A64.409 64.409 0 0076 113.863c-28.285 8.651-48.126 34.085-49.635 63.624a61.202 61.202 0 0013.451 37.327c15.334 21.118 52.661 53.333 71.964 72.434 8.289-8.852 9.216-22.31 2.219-32.215-15.872-19.639-43.85-31.678-43.85-59.992 0-22.547 18.277-40.824 40.823-40.824 22.547 0 40.824 18.277 40.824 40.824l-.134-.068z" fill="url(#d)"/><path d="M65.036 12.039l141.236 76.94 4.036 2.22c3.362 2.622 6.725 7.868 2.354 17.553-6.726 14.46-33.628 28.45-64.633 17.486 9.685 2.825 16.276-.403 24.75-7.532 6.726-5.515 14.057-23.472 2.69-27.642a81.648 81.648 0 00-11.366-2.825c-21.118-4.102-58.041-8.003-71.627-15.738-21.253-11.971-35.78-36.52-27.44-60.462z" fill="url(#e)"/><path d="M65.036 12.039C79.63 65.843 168.475 70.282 212.998 92.745L65.036 12.04z" fill="url(#f)"/><path d="M113.662 255.033c-15.536-19.639-43.515-31.678-43.515-59.992.08-20.536 15.402-37.816 35.78-40.354-32.455.111-58.738 26.394-58.848 58.849a57.443 57.443 0 001.21 11.837c12.846 14.527 31.409 31.677 47.08 46.204 6.12 5.717 11.769 11.098 16.41 15.67a28.113 28.113 0 006.725-15.939 24.615 24.615 0 00-4.842-16.275z" fill="url(#g)"/><path d="M151.46 199.816c.212-1.606.324-3.223.335-4.843 8.475-45.262-37.46-88.44-72.703-81.984a84.002 84.002 0 0123.002-2.287c46.204 1.884 59.117 51.249 49.365 89.114z" fill="url(#h)"/><path d="M15.2 99.807c8.405.037 15.2 6.861 15.2 15.267v15.2H15.2c-8.395 0-15.2-6.805-15.2-15.2 0-8.406 6.794-15.23 15.2-15.267z" fill="url(#i)"/></svg>