<svg width="256px" height="288px" viewBox="0 0 256 288" xmlns="http://www.w3.org/2000/svg" preserveAspectRatio="xMidYMid"><title>C++</title><path d="M255.986979 84.5904965c-.002004-4.8378994-1.036693-9.1128797-3.12911-12.7818704-2.055356-3.607891-5.133381-6.6318286-9.262123-9.0227325-34.080647-19.6510865-68.194348-39.2420749-102.263978-58.91319416-9.184997-5.30265825-18.090538-5.1093426-27.207424.26943995C100.559194 12.142202 32.6433004 51.0527356 12.4052555 62.7748756 4.0706466 67.5997538.0150245322 74.9838106.0130212613 84.5814817 0 124.10101.0130212613 163.619536 0 203.140066c0 4.731726.992620764 8.92357 2.99288682 12.537471 2.05635765 3.717069 5.17745381 6.824143 9.40135068 9.269135 20.2390465 11.72214 88.1639555 50.629669 101.7260995 58.631734 9.120893 5.381788 18.026434 5.574102 27.214436.26944 34.070631-19.672121 68.186336-39.262107 102.271991-58.913194 4.223897-2.44399 7.344993-5.553067 9.401351-9.267131C255.005376 212.05362 256 207.861775 256 203.129048c0 0 0-79.018022-.013021-118.5385515" fill="#649ad2"/><path d="M128.391639 143.475645 2.99288682 215.677537c2.05635765 3.717069 5.17745381 6.824143 9.40135068 9.269135 20.2390465 11.72214 88.1639555 50.629669 101.7260995 58.631734 9.120893 5.381788 18.026434 5.574102 27.214436.26944 34.070631-19.672121 68.186336-39.262107 102.271991-58.913194 4.223897-2.44399 7.344993-5.553067 9.401351-9.267131l-124.616476-72.191876" fill="#004482"/><path d="M91.2499941 164.862566C98.5469086 177.601366 112.264307 186.193395 128 186.193395c15.832852 0 29.628378-8.701207 36.888232-21.57623l-36.496593-21.14152-37.1416449 21.386921" fill="#1a4674"/><path d="M255.986979 84.5904965c-.002004-4.8378994-1.036693-9.1128797-3.12911-12.7818704l-124.46623 71.6670189 124.616476 72.191876c1.997261-3.613901 2.989882-7.805746 2.991885-12.538473 0 0 0-79.018022-.013021-118.5385515" fill="#01589c"/><path d="M249.13479 148.636071h-9.7379v9.739903h-9.739903v-9.739903h-9.736899v-9.736899h9.736899v-9.7379h9.739903v9.7379h9.7379v9.736899zM128 58.8474629c31.134857 0 58.357629 16.7399985 73.169171 41.7082191l.445027.759122-37.001416 21.30679C157.279808 110.013007 143.634528 101.528152 128 101.528152c-23.379174 0-42.3331221 18.952947-42.3331221 42.332121 0 7.645484 2.0383283 14.812185 5.5831162 21.002293C98.5469086 177.601366 112.264307 186.193395 128 186.193395c15.658865 0 29.324933-8.511023 36.646534-21.153297l.241698-.422933 36.946326 21.405952C187.185639 211.619912 159.606608 228.874085 128 228.874085c-31.5485128 0-59.0844739-17.18506-73.7544272-42.706733-7.1616937-12.459343-11.2593844-26.903929-11.2593844-42.307079 0-46.9506617 38.0611467-85.0128101 85.0138116-85.0128101zm75.864873 70.3138091v9.7379h9.736899v9.736899h-9.736899v9.739903h-9.7379v-9.739903h-9.7379v-9.736899h9.7379v-9.7379h9.7379z" fill="#fff"/></svg>