<svg width="256px" height="256px" viewBox="0 0 256 256" xmlns="http://www.w3.org/2000/svg" preserveAspectRatio="xMidYMid"><title>C#</title><circle fill="#05930c" cx="128" cy="128" r="128"/><g style="fill:#fff"><path d="M38.9025888 36.0996419 219.736207 217.266384C196.482539 241.159369 163.974377 256 128 256 57.307552 256 0 198.692448 0 128c0-36.0591057 14.9106206-68.6356494 38.9025888-91.9003581z" fill-opacity="0.1"/><path d="M121.72 174.2c-8.707643 4.236699-18.322683 6.269593-28 5.92-12.938331.567012-25.4918376-4.477719-34.44-13.84-8.8912541-9.966782-13.5286598-23.017561-12.92-36.36-.6258467-14.458782 4.626133-28.555441 14.56-39.08C70.6307317 80.905133 84.0759119 75.5183492 97.96 76c8.110463-.3095215 16.197941 1.0520068 23.76 4v12.6c-7.334523-4.07654-15.609575-6.1590949-24-6.04-10.5691154-.3503444-20.7751887 3.877886-28 11.6-7.4900307 8.538203-11.363362 19.656099-10.8 31-.5540644 10.720667 3.0576495 21.2405 10.08 29.36 6.8132352 7.325413 16.4836446 11.313362 26.48 10.92 9.217583.229064 18.317049-2.11159 26.28-6.76l-.04 11.52zm89.32-68.36-1.6 7.44h-18.4l-4.4 21.12h19.76l-1.88 7.44h-19.36l-6.2 28h-8.84l6.04-28h-17.6l-5.92 28H144l5.92-28h-18.56l1.4-7.44h18.64l4.28-21.08H136.2l1.48-7.44h19.48l5.92-28.28H172l-5.92 28.28h17.72l6.04-28.28h8.64l-5.92 28.28 18.48-.04zm-28.68 7.44H164.6L160 134.4h17.84l4.52-21.12z"/></g></svg>