<svg width="512px" height="130px" viewBox="0 0 512 130" xmlns="http://www.w3.org/2000/svg" preserveAspectRatio="xMidYMid"><g style="fill:#7ed321"><path d="M94.3874861 14.642451l1.8650788-1.9022907 2.4182063-2.4664542-2.9836449-1.74039699C86.1498955 2.97012446 75.3375951 0 64.106704 0 28.9367701 0 .447887916 29.0564226.447887916 64.873359c0 35.816936 28.488882184 64.873359 63.658816084 64.873359 35.169934 0 63.658816-29.056423 63.658816-64.873359 0-7.8116952-1.356272-15.4372164-3.973426-22.6086771l-1.46202-4.0061892-2.985733 3.04507-1.985233 2.0246866-1.161902 1.1849931.537791 1.5700339c2.05007 5.9850007 3.109767 12.3119851 3.109767 18.7900827 0 31.4381238-24.9668343 56.902389-55.7385083 56.902389-30.7713838 0-55.73850789-25.4644262-55.73850789-56.902389 0-31.4381238 24.96683389-56.90238877 55.73850789-56.90238877 9.594697 0 18.8319244 2.47556607 27.0325922 7.12795217l.6174606.3502965h.7099052 4.483e-4 1.1298379l.7909862-.8067679h0zm-3.8416482-3.7664992 1.9208241 1.8832496v-2.6900175h-4.483e-4v2.6900175l1.3273657-2.339721C84.7895627 5.31134 74.6387539 2.5909352 64.1062557 2.5909352c-33.7670006 0-61.11854292 27.8964856-61.11854292 62.2824238 0 34.3857834 27.35183912 62.282424 61.11854292 62.282424 33.7670005 0 61.1185433-27.8964858 61.1185433-62.282424 0-7.0729888-1.158343-13.9889447-3.400076-20.5334899l-.624111 2.755027 1.985233-2.0246865-4.447753-.9611191c2.402127 6.5822486 3.647393 13.5836478 3.647393 20.7642685 0 32.8691195-26.1041709 59.493324-58.278781 59.493324-32.17461 0-58.27878106-26.6242045-58.27878106-59.493324 0-32.8691194 26.10417106-59.49332397 58.27878106-59.49332397 10.2707165 0 20.1487983 2.71349584 28.8696513 7.80047727l1.3553855-2.3236016-1.9208241-1.88324963-1.8650788 1.90229073h0z"/><path d="M49.4999089 80.12262l.3640491-.3716708L122.08241 6.09378634l2.791341-2.8469352 5.582683 5.6938704-2.791341 2.84693516-72.218452 73.6571629-.3640491.3716708-5.582683 5.6938704-2.7913415-2.8469352-20.1513695-20.5526305-2.7913415-2.8469352 5.582683-5.6938704 2.7913415 2.8469352L49.4999089 80.12262h0z"/></g><path d="M149.744308 64.1120841c0-4.7824028.840631-9.5459755 2.521892-14.2907181 1.681261-4.7447425 4.12828-8.9855551 7.341506-12.7215411 3.213226-3.735986 7.17338-6.7810858 11.88091-9.1348512 4.707531-2.3537653 10.050354-3.530648 16.028021-3.530648 7.098508 0 13.151048 1.6063888 18.157619 4.8196148 5.006571 3.2132259 8.742557 7.3975481 11.208406 12.553415l-6.276708 3.8108582c-1.270136-2.6151454-2.802101-4.8196148-4.595446-6.6129598-1.793345-1.793345-3.735986-3.2504378-5.828371-4.3712784-2.092386-1.1208406-4.259195-1.9242592-6.500876-2.4098074-2.241681-.4855481-4.446151-.7285464-6.61296-.7285464-4.782403 0-9.003937.9715447-12.665499 2.9141857-3.661562 1.9426409-6.743874 4.4833625-9.246935 7.6217162-2.503061 3.1383538-4.390109 6.6690018-5.660245 10.591944-1.270137 3.9229422-1.905429 7.9019264-1.905429 11.9369527 0 4.4084904.765758 8.6304729 2.297723 12.6654991 1.531965 4.0350263 3.623902 7.6028862 6.276707 10.7040281 2.652806 3.1011418 5.79116 5.5669912 9.415062 7.3975481 3.623902 1.8305569 7.565674 2.7460596 11.824868 2.7460596 2.241682 0 4.539405-.2802102 6.89317-.8406305 2.353766-.5604203 4.632659-1.4570928 6.837128-2.6900175 2.204469-1.2329247 4.240364-2.7648897 6.108582-4.5954466 1.868217-1.8305569 3.437394-4.0538564 4.70753-6.6690018l6.500876 3.3625219c-1.270137 2.9890578-3.063482 5.6230333-5.380035 7.9019265-2.316554 2.2788932-4.894487 4.2031523-7.7338 5.7723288-2.839314 1.569177-5.847202 2.76489-9.022768 3.58669-3.175565.821801-6.295537 1.232925-9.359019 1.232925-5.454907 0-10.46103-1.195713-15.019264-3.58669-4.558235-2.3909771-8.481177-5.5109491-11.768827-9.3590191-3.28765-3.8480701-5.847201-8.2193486-7.677758-13.1138354-1.830557-4.8944869-2.74606-9.8822277-2.74606-14.9632224h0zm95.943958 41.4711029c-2.989058 0-5.716287-.467166-8.182136-1.40105-2.46585-.933885-4.576617-2.222852-6.33275-3.866901-1.756133-1.6440486-3.119524-3.5494777-4.091068-5.7162868-.971545-2.1668091-1.457093-4.4461506-1.457093-6.8371278 0-2.6900175.597632-5.1370368 1.793345-7.3415062 1.195713-2.2044693 2.876974-4.0910683 5.043783-5.6602451 2.166809-1.5691769 4.763572-2.7832715 7.789842-3.6427321 3.02627-.8594606 6.369962-1.2889667 10.031524-1.2889667 2.914185 0 5.903243.26138 8.966725.7845884 3.063481.5232084 5.791159 1.2701366 8.182136 2.2416813V67.58669c0-5.1558669-1.475923-9.2469352-4.42732-12.2732049-2.951398-3.0262697-6.930382-4.5394045-11.936953-4.5394045-3.138354 0-6.257877.5976322-9.359019 1.793345-3.101142 1.1957128-6.257877 2.9141856-9.471103 5.1558669l-2.690018-5.0437829c3.810858-2.5407215 7.509632-4.4461506 11.096322-5.7162872 3.58669-1.2701366 7.322676-1.9054291 11.208407-1.9054291 7.098508 0 12.740371 2.0547251 16.924693 6.1646235 4.184322 4.1098984 6.276708 9.7885254 6.276708 17.0367776v26.3397548c0 2.0923853.896672 3.1383538 2.690017 3.1383538v6.725044c-.597632.074872-1.158052.130914-1.681261.168126-.523208.037212-.971544.056042-1.345008.056042-1.494305 0-2.858144-.448336-4.091069-1.345009-1.232924-.896672-1.924259-2.241681-2.073555-4.0350261l-.224168-4.5954466c-2.540722 3.437394-5.884413 6.1085817-10.031524 8.0140107-4.14711 1.905429-8.350262 2.858143-12.609457 2.858143h0zm1.905429-5.8283709c3.362522 0 6.706214-.7285464 10.031524-2.1856392 3.32531-1.4570928 5.959285-3.4557758 7.901926-5.9964974.523209-.6725044.971545-1.4010508 1.345009-2.1856392.373464-.7845885.56042-1.5131349.56042-2.1856392v-9.5271454c-2.540721-.9715447-5.193078-1.7184729-7.957968-2.2416813-2.76489-.5232084-5.454907-.7845884-8.070053-.7845884-5.454907 0-9.882227 1.1020105-13.281961 3.3064798-3.399734 2.2044694-5.099825 5.2491209-5.099825 9.1348512 0 1.5691769.29904 3.1011418.896673 4.5954466.597632 1.4943047 1.513134 2.8393135 2.746059 4.0350262 1.232925 1.1957128 2.74606 2.1668091 4.539405 2.9141857 1.793345.7473765 3.922942 1.1208406 6.388791 1.1208406h0zm40.238179-24.6584939c0-4.1098984.709716-7.9951803 2.129597-11.6567425 1.419881-3.6615622 3.418564-6.855958 5.996497-9.5831874 2.577934-2.7272294 5.660246-4.8756567 9.246936-6.4448336 3.58669-1.5691769 7.546844-2.3537654 11.88091-2.3537654 5.529331 0 10.348946 1.2517549 14.458844 3.7548162 4.109899 2.5030613 7.210592 5.8844133 9.302978 10.1436077l-7.397548 2.3537653c-1.644049-2.9890578-3.922943-5.323993-6.837128-7.005254-2.914186-1.6812609-6.164624-2.5218914-9.751314-2.5218914-2.989058 0-5.772329.5976323-8.350262 1.793345-2.577934 1.1957128-4.819615 2.8209317-6.725044 4.8756568-1.905429 2.054725-3.399734 4.5021926-4.483363 7.3415061-1.083628 2.8393135-1.625219 5.9404554-1.625219 9.3029772 0 3.2876498.560421 6.3887916 1.681261 9.3029773 1.120841 2.9141856 2.652806 5.436077 4.595447 7.5656742 1.942641 2.1295972 4.203152 3.8108582 6.781086 5.0437829 2.577933 1.2329247 5.323993 1.849387 8.238178 1.849387 1.868217 0 3.717605-.26138 5.548161-.7845884 1.830557-.5232084 3.530648-1.2517548 5.099825-2.1856393 1.569177-.9338844 2.914186-1.998683 4.035027-3.1943958 1.12084-1.1957127 1.905429-2.4658493 2.353765-3.8108581l7.397548 2.2416813c-.8218 2.0923852-2.017513 4.0161961-3.58669 5.7723292-1.569177 1.7561331-3.418564 3.2876495-5.548161 4.5954465-2.129597 1.307797-4.483363 2.316554-7.061296 3.02627-2.577934.709716-5.249121 1.064798-8.014011 1.064798-4.259194 0-8.182136-.803418-11.768826-2.409807-3.58669-1.606389-6.687832-3.8108581-9.302977-6.6129597-2.615146-2.8021016-4.651489-6.0337093-6.108582-9.6952714-1.457093-3.6615622-2.185639-7.5845044-2.185639-11.7688267h0zm114.549912 29.3660248h-7.621716V71.8458844c0-6.6501716-1.139671-11.6195306-3.418564-14.9071804-2.278893-3.2876497-5.623033-4.9316987-10.031524-4.9316987-2.166809 0-4.315236.4295061-6.444833 1.2889667-2.129597.8594606-4.12828 2.0363432-5.996498 3.530648-1.868217 1.4943047-3.493436 3.2504378-4.875656 5.2679509-1.382221 2.0175132-2.409808 4.2219825-3.082312 6.6129597v35.7548164h-7.621716V22.6409807h7.621716v36.6514887c2.390977-4.4084904 5.641415-7.8830964 9.751313-10.4238179 4.109899-2.5407216 8.518389-3.8108582 13.22592-3.8108582 3.362522 0 6.220665.6164624 8.574431 1.8493871 2.353765 1.2329247 4.259194 2.9513975 5.716287 5.1558669 1.457093 2.2044693 2.521891 4.8568266 3.194396 7.9579685.672504 3.1011418 1.008756 6.5197057 1.008756 10.2556917v34.1856395h0zm41.35902 1.12084c-4.259195 0-8.182137-.803418-11.768827-2.409807-3.58669-1.606389-6.687832-3.8108581-9.302977-6.6129597-2.615146-2.8021016-4.651489-6.0337093-6.108582-9.6952714-1.457093-3.6615622-2.185639-7.5845044-2.185639-11.7688267 0-4.1098984.728546-7.9767986 2.185639-11.6007005 1.457093-3.6239019 3.493436-6.7999159 6.108582-9.5271453 2.615145-2.7272295 5.697457-4.8944869 9.246935-6.5008757 3.549478-1.6063888 7.45359-2.4098074 11.712785-2.4098074 4.259194 0 8.163306.8034186 11.712784 2.4098074 3.549478 1.6063888 6.59413 3.792028 9.134851 6.5569177 2.540722 2.7648897 4.520575 5.9404553 5.940456 9.5271453 1.419881 3.5866901 2.129597 7.3975482 2.129597 11.4325745 0 .5976322-.01883 1.1957128-.056042 1.793345-.037212.5976322-.093254 1.0087566-.168126 1.2329247h-49.877408c.224168 3.1383537.952714 6.0337093 2.185639 8.6865149 1.232925 2.6528056 2.802101 4.9505289 4.707531 6.8931698 1.905429 1.942641 4.109898 3.4557759 6.612959 4.5394046 2.503062 1.0836287 5.174697 1.6252189 8.014011 1.6252189 1.942641 0 3.84807-.26138 5.716287-.7845884 1.868217-.5232084 3.58669-1.2329247 5.155867-2.1295972 1.569177-.8966725 2.970228-1.998683 4.203152-3.3064799 1.232925-1.3077968 2.185639-2.7460595 2.858144-4.3152364l6.61296 1.793345c-.896673 2.1668091-2.16681 4.1282802-3.810859 5.8844133-1.644049 1.7561331-3.549478 3.2876495-5.716287 4.5954465-2.166809 1.307797-4.558234 2.316554-7.17338 3.02627-2.615145.709716-5.305163 1.064798-8.070052 1.064798h0zm21.52014-33.4010504c-.224168-3.1383538-.952715-5.9964974-2.18564-8.5744308-1.232924-2.5779335-2.802101-4.8007846-4.70753-6.6690018-1.905429-1.8682171-4.12828-3.32531-6.669002-4.3712784-2.540721-1.0459685-5.230739-1.5691769-8.070052-1.5691769-2.839314 0-5.529331.5232084-8.070053 1.5691769-2.540722 1.0459684-4.763573 2.5030613-6.669002 4.3712784-1.905429 1.8682172-3.437394 4.1098985-4.595446 6.7250438-1.158053 2.6151454-1.849387 5.4549072-2.073556 8.5183888h43.040281 0zm46.402802 29.4781084c-.448336.224168-1.102011.523209-1.961471.896673-.859461.373464-1.849387.747376-2.970228 1.12084-1.120841.373464-2.390977.709717-3.810858 1.008757-1.419881.29904-2.914186.448336-4.483363.448336-1.644049 0-3.213226-.224168-4.70753-.672504-1.494305-.448336-2.802102-1.139671-3.922942-2.073555-1.120841-.933885-2.017514-2.110767-2.690018-3.5306484-.672504-1.4198809-1.008757-3.0634816-1.008757-4.9316988V52.1190893h-8.070052v-6.0525394h8.070052V26.3397548h7.621717v19.7267951h13.450087v6.0525394h-13.450087v39.6777583c.149296 2.1668091.896672 3.7548161 2.241681 4.7635727 1.345009 1.0087566 2.951398 1.5131349 4.819615 1.5131349 2.166809 0 4.072238-.3550823 5.716287-1.0647986 1.644049-.7097163 2.690017-1.2140946 3.138354-1.5131349l2.017513 6.1646233h0z" fill="#5e5e5e"/></svg>