<svg width="256px" height="200px" viewBox="0 0 256 200" xmlns="http://www.w3.org/2000/svg" preserveAspectRatio="xMidYMid"><title>Combined Shape</title><path d="M0 119.882843c0 22.055982 57.2937323 39.958249 127.979753 39.958249h0v39.942055C57.2937323 199.783147 0 181.897074 0 159.841092h0zm255.999995 0v39.950152c0 9.416706-10.469308 18.056109-27.901955 24.8899h0l-100.126384-24.8899v-39.950152l100.126384 24.881804c17.432647-6.825695 27.910048-15.465098 27.901955-24.881804h0zM127.979753 0C198.673871 0 256 17.9184609 256 39.9582488h0v39.9825396c0 9.3843182-10.469313 18.0561084-27.893863 24.8575126h0L127.979753 79.9407884v39.9420546C57.2937323 119.882843 0 101.988673 0 79.9407884h0V39.9582488C0 17.9184609 57.2937323 0 127.979753 0z" fill="#d33c44" fill-rule="evenodd"/></svg>