<svg width="256px" height="256px" viewBox="0 0 256 256" xmlns="http://www.w3.org/2000/svg" preserveAspectRatio="xMidYMid"><path fill="#53b9ff" d="M39.8626133 54.11456.310594133 93.71648 61.30624 154.894933 0 216.385067l39.4282667 39.6192 61.4297603-61.5072L161.9552 255.5648l39.552-39.602133z"/><path fill="#119eff" d="M140.517333 154.896l-39.65792 39.601067 61.096854 61.0688 39.552-39.602134z"/><path fill-opacity="0.2" d="M140.517333 154.896l-39.65792 39.601067 15.266454 15.181866z"/><path fill="#53b9ff" d="M194.5696 100.985173 256 39.4779733 216.430933 0l-61.412266 61.3835733L93.9165867.310993067 54.3645867 39.91296 216.0096 201.761067l39.552-39.602134z"/><path fill="#119eff" d="M115.36 100.986773l39.658667-39.6017063L93.9165867.312500267l-39.552 39.601953033z"/><path fill-opacity="0.2" d="M115.358933 100.985387 155.0176 61.3837867l-15.2704-15.18592z"/></svg>