<svg width="256px" height="313px" viewBox="0 0 256 313" xmlns="http://www.w3.org/2000/svg" preserveAspectRatio="xMidYMid"><path d="M246.241931 88.0343644l-67.754713 45.6800106c-14.2588-20.006458-44.569704-22.517774-62.096373-5.196005-16.5494411 16.353316-14.891001 43.846432 3.427239 58.26285 19.999451 15.738622 50.842727 8.898182 61.926498-13.679135L256 207.605518c-12.952375 30.076234-40.485757 64.970199-101.181129 67.611107l3.017442 37.055026c-50.904051-7.362319-97.4719449-39.921846-113.7744765-88.519465l-31.5035002 21.013435c-9.66874597-23.705129-13.159020051-49.800736-9.18189064-75.064492 3.84402419-24.430154 14.65457264-46.338485 31.09020944-65.034995L0 88.6508092C16.1816912 69.749403 35.3983184 54.2314373 58.8880435 44.6520169c24.0729156-9.8175951 51.1579725-12.9330954 76.7597165-7.5969905L132.632101 0c50.660611 7.33079741 97.239011 39.6749199 113.60983 88.0343644" fill="#4b608e"/></svg>