<svg width="256" height="237" xmlns="http://www.w3.org/2000/svg" preserveAspectRatio="xMidYMid"><path d="M120.433 229.054a7.092 7.092 0 1114.16.808 7.092 7.092 0 01-14.16-.808zm-58.082-7.673a5.575 5.575 0 119.321 6.119 5.575 5.575 0 01-9.321-6.12zm124.578-2.186a5.566 5.566 0 017.487 2.467 5.575 5.575 0 11-7.487-2.467zm-111.114-27.32a8.608 8.608 0 0111.914-2.488 8.617 8.617 0 012.486 11.923 8.608 8.608 0 01-14.4-9.435zm93.625-3.176a8.599 8.599 0 0111.574 3.767 8.617 8.617 0 11-11.817-3.639l.243-.128zm-51.178-5.258a10.134 10.134 0 019.73-5.685c5.572.333 9.823 5.115 9.502 10.689a10.134 10.134 0 11-19.232-5.004zm-89.63-15.687a7.092 7.092 0 11-.212.11l.211-.11zm189.844 2.017a7.092 7.092 0 1111.863 7.774 7.092 7.092 0 01-11.863-7.774zM99.568 138.319a17.235 17.235 0 0122.603 24.613 17.15 17.15 0 01-14.429 7.788 17.235 17.235 0 01-8.174-32.401zm43.542-1.296a17.235 17.235 0 0120.67 8.645c4.254 8.49.844 18.823-7.63 23.112a17.423 17.423 0 01-7.76 1.884 17.235 17.235 0 01-5.28-33.641zm-82.993 9.57a10.134 10.134 0 1112.242 15.66 10.134 10.134 0 01-12.242-15.66zm119.749.78c3.071-4.679 9.354-5.982 14.032-2.91 4.67 3.078 5.97 9.352 2.91 14.033-3.071 4.678-9.354 5.981-14.032 2.91-4.679-3.072-5.982-9.354-2.91-14.033zM70.099 117.396c.538-9.373 8.478-16.59 17.86-16.234 9.38.356 16.75 8.154 16.578 17.54-.17 9.28-7.654 16.738-16.897 16.914l-.316.003h-.942c-9.411-.55-16.623-8.538-16.251-17.92l.015-.313-.047.01zm81.31-.194c.546-9.505 8.695-16.768 18.2-16.222 4.561.234 8.837 2.29 11.867 5.707A17.235 17.235 0 01168.98 135.4l-.351.004h-.999c-9.505-.546-16.768-8.695-16.222-18.2zm-122.317.784a8.608 8.608 0 019.08-8.106 8.617 8.617 0 018.108 9.088 8.608 8.608 0 01-17.188-.982zm180.619-.39a8.608 8.608 0 0117.188.977 8.617 8.617 0 01-9.088 8.109 8.608 8.608 0 01-8.1-9.085zM5.669 113.009l.208.008a5.557 5.557 0 015.246 5.877 5.566 5.566 0 11-5.454-5.885zm244.844-.575l.232.009a5.585 5.585 0 015.246 5.886 5.575 5.575 0 11-5.478-5.895zM107.592 65.926A17.18 17.18 0 01123 75.344a17.244 17.244 0 01-15.39 25.033 17.17 17.17 0 01-15.407-9.484 17.244 17.244 0 0115.389-24.967zm40.657-.122a17.235 17.235 0 11-14.438 7.788 17.254 17.254 0 0114.438-7.788zM59.174 78.057c3.069-4.68 9.35-5.987 14.03-2.918 4.68 3.068 5.987 9.35 2.92 14.03-3.069 4.68-9.35 5.988-14.03 2.92a10.124 10.124 0 01-2.92-14.032zm124.468-3.758a10.124 10.124 0 0113.61 4.492c2.517 4.999.505 11.092-4.493 13.61-4.999 2.517-11.092.505-13.61-4.493-2.517-4.999-.505-11.092 4.493-13.61zM25.655 59.013a7.092 7.092 0 1111.862 7.777 7.092 7.092 0 01-11.862-7.777zm195.312-2.87a7.092 7.092 0 016.384 12.665 7.101 7.101 0 01-9.531-3.146 7.092 7.092 0 013.147-9.52zm-103.251-8.036c.32-5.585 5.108-9.854 10.694-9.536 5.585.318 9.856 5.103 9.54 10.69-.315 5.585-5.098 9.858-10.684 9.545-5.591-.319-9.866-5.108-9.55-10.699zM78.792 32.48a8.608 8.608 0 117.747 15.375 8.608 8.608 0 01-7.747-15.375zm86.956 2.762a8.617 8.617 0 112.505 11.933 8.608 8.608 0 01-2.505-11.933zM63.996 7.42a5.575 5.575 0 015.057 9.937 5.585 5.585 0 01-7.534-2.467 5.575 5.575 0 012.477-7.47zM184.31 9.06a5.575 5.575 0 119.334 6.101 5.575 5.575 0 01-9.334-6.1zM125.404.4a7.092 7.092 0 114.681 13.388A7.092 7.092 0 01125.404.4z" fill="#0033AD"/></svg>