<svg width="256px" height="237px" viewBox="0 0 256 237" xmlns="http://www.w3.org/2000/svg" preserveAspectRatio="xMidYMid"><title>Cardano</title><path d="M120.432796 229.054204c.223166-3.909745 3.573146-6.898554 7.482936-6.676179 1.878561.106846 3.637656.955862 4.890021 2.360136 1.252366 1.404274 1.89533 3.248682 1.787344 5.127178-.224747 3.909654-3.575936 6.897108-7.485636 6.673151-3.9097-.223956-6.897831-3.574541-6.674665-7.484286zm-58.0821946-7.673688c1.6895741-2.573847 5.1456024-3.290979 7.7197488-1.60186 1.2367319.811526 2.1002857 2.08125 2.4005673 3.529667.3002815 1.448417.0126758 2.956795-.7995066 4.193096-1.6904846 2.57325-5.1467665 3.289158-7.720315 1.599129-2.5735486-1.690029-3.2900685-5.146184-1.6004945-7.720032zm124.5783456-2.185776c1.319698-.667966 2.850993-.783187 4.255786-.320223 1.404794.462963 2.567545 1.466033 3.231527 2.78774 1.015803 2.013528.718548 4.440712-.753137 6.149599-1.471684 1.708888-3.827924 2.362885-5.969855 1.656991-2.14193-.705894-3.647661-2.632641-3.814973-4.881676-.167313-2.249036 1.036748-4.377372 3.050652-5.392431zM75.8146305 191.87541c2.6033495-3.976611 7.9370047-5.090686 11.9144776-2.488654 3.9765485 2.607641 5.0892471 7.943536 2.4863531 11.923194-2.6059829 3.974885-7.9403748 5.085427-11.9161233 2.480761-3.9757486-2.604667-5.0880569-7.93869-2.4847074-11.915301zm93.6250825-3.176168c2.034058-1.037672 4.397328-1.223665 6.56867-.516963 2.171342.706702 3.972417 2.248055 5.006057 4.284165 1.585389 3.106114 1.142435 6.861551-1.122126 9.513563-2.26456 2.652012-5.904258 3.677741-9.220362 2.598456-3.316104-1.079285-5.654828-4.050798-5.924635-7.527666-.262708-3.385371 1.486475-6.59997 4.449506-8.223437l.24289-.128118zm-51.177683-5.258325c1.793262-3.689714 5.63419-5.93425 9.729046-5.685396 5.573101.333505 9.82435 5.115633 9.502766 10.689435-.232501 4.095817-2.911484 7.647396-6.785849 8.996128-3.874364 1.348731-8.179682.228505-10.905343-2.837526-2.725661-3.066031-3.333882-7.472927-1.54062-11.162641zm-89.6308984-15.687316c1.679628-.848875 3.6277902-.995322 5.4154486-.407091 1.7876583.588231 3.2682007 1.862899 4.1155716 3.543286 1.7631555 3.496442.3587494 7.760202-3.1371669 9.524401-3.4959162 1.764199-7.760095.361065-9.5253365-3.134325-1.7292161-3.424055-.4192796-7.586242 2.9201362-9.415038l.211347-.111233zm189.8445734 2.017003c2.146463-3.275231 6.541306-4.190834 9.817116-2.045257 1.574235 1.031085 2.674109 2.645585 3.057426 4.48798.383317 1.842395.018643 3.761601-1.013719 5.334998-2.148233 3.274069-6.543571 4.187295-9.81822 2.039947-3.27465-2.147348-4.189065-6.542438-2.042603-9.817668zM99.568053 138.319047c6.943003-3.747953 15.544476-2.302654 20.881242 3.50866 5.336767 5.811313 6.045874 14.504494 1.721455 21.103875-3.176533 4.87602-8.608973 7.808545-14.428383 7.788889-7.8900195-.006016-14.7685758-5.368822-16.6986289-13.019138-1.9300532-7.650316 1.5813117-15.634334 8.5243149-19.382286zm43.542212-1.296384c8.078687-2.600115 16.847848 1.067931 20.669227 8.645718 4.254995 8.49023.844504 18.822753-7.628583 23.111782-2.406098 1.220211-5.062682 1.865013-7.760436 1.883601-8.4868 0-15.710451-6.178364-17.026403-14.562519-1.315952-8.384155 3.667508-16.478466 11.746195-19.078582zm-82.9931333 9.570251c2.6744641-3.106432 6.9569703-4.295723 10.8502809-3.01322 3.8933105 1.282502 6.6305562 4.784181 6.9351643 8.871955.3046081 4.087773-1.8834203 7.956468-5.5436517 9.801837-4.9960565 2.518848-11.0881166.512052-13.6090161-4.48297-1.8468718-3.659473-1.3072416-8.07117 1.3672226-11.177602zm119.7484413.78016c3.0714-4.678641 9.354043-5.981579 14.032697-2.910198 4.669426 3.077724 5.970614 9.352061 2.910163 14.032826-3.071439 4.678615-9.354093 5.981501-14.032721 2.910081-4.678628-3.07142-5.98154-9.354069-2.910139-14.032709zM70.0986042 117.395532c.538638-9.372126 8.4788537-16.589425 17.8597018-16.233666 9.380848.355758 16.751626 8.153711 16.578882 17.539713-.170804 9.280542-7.6544413 16.738199-16.8972838 16.914606l-.3157703.003185h-.9418004c-9.4117389-.549962-16.6230557-8.537953-16.2518292-17.920013l.0151899-.313243-.04709.009418zm81.3103398-.193069c.546149-9.505595 8.694698-16.768662 18.200293-16.222512 4.560868.234127 8.836528 2.290516 11.866685 5.70731 4.524826 5.066376 5.651745 12.317987 2.877838 18.518604-2.72608 6.09371-8.719876 10.055225-15.373224 10.19317l-.350772.003721h-.998308c-9.505595-.546149-16.768661-8.694698-16.222512-18.200293zm-122.3165559.78391c.2694349-4.745279 4.3338091-8.374183 9.0791817-8.106408 4.7476243.273109 8.3766125 4.340442 8.1089017 9.088374-.2727559 4.745089-4.3396689 8.371147-9.0848529 8.100052-4.7451841-.271096-8.3726653-4.33674-8.1032305-9.082018zm180.6181429-.389542c.271095-4.745184 4.336739-8.372665 9.082018-8.10323 4.745278.269435 8.374182 4.333809 8.106408 9.079182-.27311 4.747624-4.340443 8.376612-9.088374 8.108901-4.745089-.272756-8.371148-4.339669-8.100052-9.084853zM5.66874979 113.008334l.20848354.007826c1.47627288.080109 2.8597556.745236 3.84428265 1.848189.98452702 1.102953 1.48891612 2.552785 1.40154572 4.028646-.176387 3.06787-2.80557689 5.412364-5.87353626 5.237533-3.06795936-.174831-5.413786636-2.802831-5.24051203471-5.870879C.178349947 115.26133 2.69096504 112.951503 5.66874979 113.008334h0zm244.84424521-.57522.232348.008548c3.07154.182015 5.417257 2.814104 5.245829 5.886252-.129435 2.251384-1.602347 4.203104-3.731901 4.945049-2.129555.741944-4.496356.127996-5.996736-1.555555-1.50038-1.68355-1.838855-4.105144-.857588-6.135563.947429-1.960404 2.944999-3.183376 5.108048-3.148731h0zM107.591679 65.9257464c6.504852-.0307121 12.4693 3.6150388 15.407855 9.4183967 2.7066 5.3464182 2.443566 11.7146329-.694722 16.8196326-3.138288 5.1049996-8.701812 8.2147493-14.694297 8.2135983-6.520127.020639-12.4893741-3.653586-15.4078549-9.4841059-2.6751742-5.3409303-2.3957586-11.6859215.7385486-16.7710185 3.1343072-5.0850969 8.6770303-8.1859373 14.6504703-8.1965032zm40.657524-.1220499c7.889138.0101327 14.764236 5.375525 16.690942 13.0257795 1.926707 7.6502545-1.586923 15.6320344-8.530176 19.3776768-6.943252 3.7456422-15.543309 2.2987742-20.878691-3.5126191-5.335383-5.8113929-6.043809-14.5034891-1.719875-21.1021394 3.191624-4.8643892 8.619834-7.7927195 14.4378-7.7886978zM59.1737193 78.0565283c3.068861-4.6798851 9.3503096-5.9861524 14.030481-2.9177279 4.6801713 3.0684244 5.9870246 9.3497511 2.9190367 14.0302087-3.0679879 4.6804576-9.3491927 5.9878968-14.0299364 2.9203455-2.250345-1.4717832-3.8227788-3.778302-4.3704865-6.4108321-.5477076-2.6325302-.0256942-5.3748065 1.4509052-7.6219942zm124.4683437-3.7577837c2.399954-1.2115205 5.183223-1.4187644 7.736138-.5760376 2.552914.8427269 4.665829 2.6662196 5.872878 5.0684256 2.517484 4.9985627.506173 11.091522-4.492389 13.609007-4.998562 2.517485-11.091522.5061758-13.609008-4.4923854-2.517487-4.9985612-.506179-11.0915217 4.492381-13.6090096zM25.6550422 59.0133237c1.5731293-2.399563 4.4371634-3.6147697 7.2558924-3.0786677 2.818729.5361019 5.0366835 2.7178664 5.619081 5.5273951.5823975 2.8095287-.5855315 5.6931654-2.9588918 7.3055546-2.3733604 1.6123892-5.4844488 1.6357875-7.8817927.0592785-3.2692251-2.149864-4.1795438-6.5413091-2.0342889-9.8135605zm195.3121718-2.8709393c3.497175-1.7604948 7.759381-.3537982 9.521605 3.1425061 1.762224 3.4963042.357634 7.7592057-3.137798 9.5231576-3.500739 1.7608037-7.766117.3530604-9.53102-3.1456134-1.758766-3.498045-.349962-7.7595555 3.147213-9.5200503zm-103.25118-8.0351096c.320757-5.5857372 5.107619-9.8546308 10.693501-9.536398 5.585881.3182328 9.856938 5.1031645 9.54123 10.6891894-.315707 5.5860249-5.098708 9.8592443-10.684875 9.5460615-5.590865-.3186587-9.865705-5.1078286-9.549856-10.6988529zM78.7923773 32.4799272c4.2449445-2.1387226 9.4199426-.4319847 11.5596959 3.8124404 2.1397532 4.244425.4342718 9.4198374-3.8096336 11.5606211-2.0393152 1.0287064-4.4038688 1.2047403-6.5730272.4893419-2.1691584-.7153983-3.9650613-2.2635697-4.992282-4.3036336-2.1376919-4.2454636-.4296975-9.4200472 3.8152469-11.5587698zm86.9554777 2.7623539c2.603385-3.9828569 7.94215-5.1019328 11.925833-2.4998128 3.983683 2.6021201 5.104454 7.9405293 2.503599 11.9250386-2.600855 3.9845093-7.938908 5.1069753-11.924243 2.5073855-1.917459-1.2477444-3.259374-3.2074316-3.729415-5.4463102-.470041-2.2388785-.029541-4.5727744 1.224226-6.4863011zM63.9957718 7.41950138c2.7422935-1.38290534 6.0865526-.28766049 7.4795115 2.44954 1.3929588 2.73720052.309993 6.08545602-2.4220776 7.48844962-1.3253211.6777383-2.8663639.7983515-4.2809902.3350614-1.4146263-.4632901-2.5857686-1.4721439-3.2534132-2.8025785-1.3728332-2.7473496-.265324-6.08756717 2.4769695-7.47047252zM184.310742 9.0602293c1.234125-1.88819066 3.484403-2.84670745 5.701005-2.42837107 2.216602.41833637 3.962735 2.1310904 4.42377 4.33920657.461035 2.2081161-.453876 4.4764728-2.317899 5.7468077-1.864022 1.2703349-4.309839 1.2923215-6.196398.0557023-2.572885-1.6864992-3.293577-5.1382342-1.610478-7.7133455zM125.403517.399673978c2.708054-.946996912 5.719913-.169134834 7.630726 1.970760832 1.910814 2.13989567 2.34414 5.22025123 1.097857 7.80426799-1.246282 2.5840167-3.926647 4.1626261-6.790866 3.9995028-3.908136-.2225766-6.896836-3.5695836-6.677365-7.47789536.160847-2.86434815 2.031593-5.34963935 4.739648-6.296636262z" fill="#0033ad"/></svg>