<svg width="256px" height="256px" viewBox="0 0 256 256" xmlns="http://www.w3.org/2000/svg" preserveAspectRatio="xMidYMid"><path d="M107.860446 118.641168l9.228199 9.176743-9.228199 9.174969H42.9010976v30.571402L3.28602642 127.817911 42.9010976 88.7386823v29.9024857h64.9593484 0 0 0zM136.414454 40.5732h78.92851v78.930284h-78.92851V40.5732h0 0 0z" fill="#932279"/><path d="M137.274996 107.860446l-9.174969 9.228199-9.174969-9.228199V42.9010976H88.3518821L128.100027 3.28602642l39.077454 39.61507118h-29.902485v64.9593484h0 0 0zm-.860542 28.554008h78.92851v78.930284h-78.92851v-78.930284h0 0 0z" fill="#efa724"/><path d="M148.057492 137.274996l-9.229973-9.174969 9.229973-9.174969h64.957575V88.3518821l39.616844 39.7481449-39.616844 39.077454v-29.902485h-64.957575 0 0 0zM40.5732 136.414454h78.928509v78.930284H40.5732v-78.930284h0 0 0z" fill="#262577"/><path d="M118.641168 148.057492l9.174969-9.229973 9.176743 9.229973v64.959349h30.571402l-39.748145 39.61507-39.0756805-39.61507h29.9007115v-64.959349h0 0 0zM40.5732 40.5732h78.928509v78.930284H40.5732V40.5732h0 0 0z" fill="#9ccd2a"/><g style="fill:#fff"><path d="M37.7538176 37.7538176h84.5672744v84.5672744H37.7538176V37.7538176h0 0 0 0zm5.6369902 78.9302834h73.2915192V43.3925822H43.3908078v73.2915188h0 0 0zm90.2060382-78.9302834h84.567275v84.5672744h-84.567275V37.7538176h0 0 0zm5.636991 78.9302834h73.291519V43.3925822h-73.291519v73.2915188h0 0 0zm-5.636991 16.912745h84.567275v84.569049h-84.567275v-84.569049h0 0 0zm5.636991 78.92851h73.291519v-73.291519h-73.291519v73.291519h0 0 0zm-101.4800194-78.92851h84.5672744v84.569049H37.7538176v-84.569049h0 0 0zm5.6369902 78.92851h73.2915192v-73.291519H43.3908078v73.291519h0 0 0 0z"/><path d="M60.1882226 187.75773.388574398 127.958082 60.1864484 68.160208l59.7996486 59.797874-59.7978744 59.799648h0 0 0 0 0zM8.36233399 127.958082 60.1882226 179.78397l51.8241144-51.825888-51.8258886-51.8241145L8.36233399 127.958082h0 0 0zm119.59574801-7.971985-59.797874-59.7978744L127.958082.388574398 187.755956 60.1882226l-59.797874 59.7978744h0 0 0zM76.1339675 60.1882226l51.8241145 51.8241144 51.825888-51.8241144-51.825888-51.82588861L76.1339675 60.1882226h0 0 0zM195.729716 187.75773l-59.797875-59.799648 59.797875-59.797874 59.797873 59.797874-59.797873 59.799648h0 0 0zm-51.825889-59.799648 51.825889 51.825888 51.824113-51.825888-51.824113-51.8241145-51.825889 51.8241145h0 0 0zm-15.945745 127.569507-59.797874-59.797873 59.797874-59.797875 59.797874 59.797875-59.797874 59.797873h0 0 0zm-51.8241145-59.797873 51.8241145 51.824113 51.825888-51.824113-51.825888-51.824115-51.8241145 51.824115h0 0 0 0 0z"/></g></svg>