<svg width="512px" height="174px" viewBox="0 0 512 174" xmlns="http://www.w3.org/2000/svg" preserveAspectRatio="xMidYMid"><defs><radialGradient cx="73.2782009%" cy="16.6298885%" fx="73.2782009%" fy="16.6298885%" r="78.9988799%" gradientTransform="matrix(.698912 0 0 1 .220631866816 0)" id="a"><stop stop-color="#fff" offset="0%"/><stop stop-color="#ab710a" offset="100%"/></radialGradient><radialGradient cx="3.34419656%" cy="5.28859345%" fx="3.34419656%" fy="5.28859345%" r="45.151471%" gradientTransform="matrix(.385373 0 0 1 .020554356134 0)" id="b"><stop stop-color="#d5d5d5" offset="0%"/><stop stop-color="#141006" offset="100%"/></radialGradient></defs><path d="M60.3411156 114.717605c1.4140953.687892 2.9640273 1.225143 4.5766531 1.650068-.1323537 7.538068.3256599 18.769851 3.314068 29.028137h0-20.1325714c1.1049796-12.07815 8.8816327-25.409307 12.2418503-30.678205zm75.4242174-25.2743397c3.380245 10.7093337 4.964136 37.5257687 11.634068 55.9525447h0-25.325714c.497197-3.858286-2.136816-7.740082-1.271292-11.631456 2.075864-9.330939 5.202721-18.738504 9.350095-28.108626.086204.134966 5.528381-16.3439457 5.612843-16.2124627z" fill="#ab710a"/><path d="M202.214748 42.2687347c-5.763483-8.2398912-18.901333-15.0517551-21.968109-24.4018503-.783673-2.3902041-.917768-7.2986123.597334-9.59303406 1.370558-2.07238095-.878585-1.58040816-.878585-1.58040816-3.267048 1.26519728-4.680272-2.34492517-4.680272-2.34492517-.491102-1.26519728.173279-5.11129252-2.637497-3.00321089-5.079075 3.80778232-3.404626 13.04903398-2.456381 16.83156458.658286 2.9074286 3.668463 11.0863674 9.652245 16.920381 1.568218 1.5299048 11.949279 12.8618231 10.535184 18.6792925-.05834.2333606-.247293 3.6388572-3.511728 4.2919184-7.514558 1.5037823-9.957878-7.7026395-9.957878-7.7026395-5.635483-24.0483265-14.725224-32.4527891-14.725224-32.4527891-16.681796-.6356462-29.042068.9090612-43.976272 3.7868844-56.252082-2.1054694-98.5800276 15.1754013-98.5800276 15.1754013-12.37942856 17.7519456-19.61970066531 50.688-19.61970066531 50.688 0 0-.03308843539.155864.10710204131.1793742.283863945.0470204.433632653-.2063674.433632653-.2063674C8.29387755 77.8405442 16.2142041 71.7226667 16.2142041 71.7226667c-1.172898 45.7961363 9.2046803 73.6740133 9.2046803 73.6740133h19.6449523c1.3836191-16.495456 14.3542857-34.752435 14.3542857-34.752435 7.302966 5.537959 23.7992926 3.902694 23.7992926 3.902694 2.8978503 11.080272 8.8154557 30.849741 8.8154557 30.849741h23.6730343c2.15249-17.089306 7.618177-32.235973 12.878367-43.595755 0 0 5.865361-13.2963264 6.054313-17.2416869.375293-6.9503129 6.951184-9.0183401 10.521252-9.0183401 3.568326 0 19.795592 9.067102 31.938177 8.4540952 21.13219-1.0631837 29.470476-10.8408163 29.872762-21.9811701.277768-7.686966-1.52381-15.1240272-4.756028-19.7450884zm-67.893115 23.6207891c-.105361.2934422-.238585.5929796-.439728.8794558-.19766.2847347-.467592.5677279-.831565.764517-.36049.2028844-.800218.2829932-1.196408.2638367-.399673-.0182857-.760163-.1166802-1.087565-.2394557-1.288707-.5311565-2.19951-1.3540137-3.077224-2.1603266-.436245-.4057687-.843755-.8289524-1.241687-1.24517-.392708-.4101225-.797606-.8463674-1.144163-1.1964082-.549443-.5128708-1.463728-.9404082-2.425034-1.2817415-.973497-.3361089-2.020137-.622585-3.102477-.8907755-1.085823-.2751565-2.187319-.5355102-3.38634-.9256055-.302149-.1018775-.608653-.2194285-.941279-.3683265-.15151-.0679184-.370068-.1793741-.518095-.2620952-.215946-.1236463-.424054-.2708027-.61649-.4362449-.389224-.3326259-.69834-.7427483-.91951-1.1511293-.219429-.4118639-.362231-.8228571-.45366-1.2129524-.178503-.7810612-.192435-1.4881088-.168054-2.1542313.030476-.6661224.107102-1.2956734.217687-1.9051972.228136-1.2181769.53551-2.3684354.899483-3.4882177.362231-1.1197823.759292-2.2125714 1.197279-3.2835919.218558-.5416054.428408-1.0579591.672217-1.6108843.252517-.5668572.53464-1.1154286.842885-1.6474558 1.247782-2.1237551 2.925714-3.9096599 4.808272-5.3307211.944762-.7096598 1.938286-1.3392109 2.970122-1.8729796 1.033579-.5372517 2.10547-.992653 3.213062-1.3026394-1.876463 1.3130884-3.567456 2.8003265-5.041633 4.4294966-1.465469 1.6282993-2.698449 3.4142041-3.535238 5.3272381-.212463.4745578-.397932.9604353-.555538 1.4506666l-.504163 1.5795374c-.322177 1.0666667-.646966 2.1254966-.91951 3.1834558-.271674 1.055347-.528544 2.1072109-.673959 3.1268572-.074885.508517-.134966 1.0074558-.148027 1.4741768-.014803.4641089.016544.9038368.099265 1.2268844.077496.3343673.181115.491102.257741.5581497.020898.0182857.044408.0374421.074885.0565986.100136.0565986.133224.0714014.236843.1227755.18547.0888163.409252.1741497.641742.2603537.94302.3535239 2.045387.6460953 3.139918.9900409 1.100626.3500408 2.231728.7096598 3.359347 1.2242721 1.121524.5180952 2.301388 1.1250068 3.301007 2.290068.404898.4998095.711401.9473742 1.048381 1.404517.330884.4527891.660898.8907755.991782 1.3200544.331755.4275374.678313.8341769 1.030966 1.2103402.351782.3761632.726204.7148843 1.098014.9525986.379646.2411973.699211.3448163.997006.276898.316082-.0600817.678313-.4040272.961307-.8315647.285605-.4292789.521578-.9351836.725333-1.4550204.213333-.5198367.381388-1.0631836.556408-1.6117551.026993 1.1467755-.005224 2.310966-.413605 3.4917007zm20.916245-14.5902585c-.806313 1.2277551-2.758531 1.3696871-4.358966.3178231-1.601307-1.0518639-2.243048-2.9013333-1.437606-4.1282177.807184-1.2277551 2.758531-1.3688163 4.358095-.3169523 1.602177 1.0509932 2.24566 2.8987211 1.438477 4.1273469z" fill="#e3a835"/><path d="M202.214748 42.2687347c-5.763483-8.2398912-18.901333-15.0517551-21.968109-24.4018503-.783673-2.3902041-.917768-7.2986123.597334-9.59303406 1.370558-2.07238095-.878585-1.58040816-.878585-1.58040816-3.267048 1.26519728-4.680272-2.34492517-4.680272-2.34492517-.491102-1.26519728.173279-5.11129252-2.637497-3.00321089-5.079075 3.80778232-3.404626 13.04903398-2.456381 16.83156458.658286 2.9074286 3.668463 11.0863674 9.652245 16.920381 1.568218 1.5299048 11.949279 12.8618231 10.535184 18.6792925-.05834.2333606-.247293 3.6388572-3.511728 4.2919184-7.514558 1.5037823-9.957878-7.7026395-9.957878-7.7026395-5.635483-24.0483265-14.725224-32.4527891-14.725224-32.4527891-16.681796-.6356462-29.042068.9090612-43.976272 3.7868844-56.252082-2.1054694-98.5800276 15.1754013-98.5800276 15.1754013-12.37942856 17.7519456-19.61970066531 50.688-19.61970066531 50.688 0 0-.03308843539.155864.10710204131.1793742.283863945.0470204.433632653-.2063674.433632653-.2063674C8.29387755 77.8405442 16.2142041 71.7226667 16.2142041 71.7226667c-1.172898 45.7961363 9.2046803 73.6740133 9.2046803 73.6740133h19.6449523c1.3836191-16.495456 14.3542857-34.752435 14.3542857-34.752435 7.302966 5.537959 23.7992926 3.902694 23.7992926 3.902694 2.8978503 11.080272 8.8154557 30.849741 8.8154557 30.849741h23.6730343c2.15249-17.089306 7.618177-32.235973 12.878367-43.595755 0 0 5.865361-13.2963264 6.054313-17.2416869.375293-6.9503129 6.951184-9.0183401 10.521252-9.0183401 3.568326 0 19.795592 9.067102 31.938177 8.4540952 21.13219-1.0631837 29.470476-10.8408163 29.872762-21.9811701.277768-7.686966-1.52381-15.1240272-4.756028-19.7450884zm-67.893115 23.6207891c-.105361.2934422-.238585.5929796-.439728.8794558-.19766.2847347-.467592.5677279-.831565.764517-.36049.2028844-.800218.2829932-1.196408.2638367-.399673-.0182857-.760163-.1166802-1.087565-.2394557-1.288707-.5311565-2.19951-1.3540137-3.077224-2.1603266-.436245-.4057687-.843755-.8289524-1.241687-1.24517-.392708-.4101225-.797606-.8463674-1.144163-1.1964082-.549443-.5128708-1.463728-.9404082-2.425034-1.2817415-.973497-.3361089-2.020137-.622585-3.102477-.8907755-1.085823-.2751565-2.187319-.5355102-3.38634-.9256055-.302149-.1018775-.608653-.2194285-.941279-.3683265-.15151-.0679184-.370068-.1793741-.518095-.2620952-.215946-.1236463-.424054-.2708027-.61649-.4362449-.389224-.3326259-.69834-.7427483-.91951-1.1511293-.219429-.4118639-.362231-.8228571-.45366-1.2129524-.178503-.7810612-.192435-1.4881088-.168054-2.1542313.030476-.6661224.107102-1.2956734.217687-1.9051972.228136-1.2181769.53551-2.3684354.899483-3.4882177.362231-1.1197823.759292-2.2125714 1.197279-3.2835919.218558-.5416054.428408-1.0579591.672217-1.6108843.252517-.5668572.53464-1.1154286.842885-1.6474558 1.247782-2.1237551 2.925714-3.9096599 4.808272-5.3307211.944762-.7096598 1.938286-1.3392109 2.970122-1.8729796 1.033579-.5372517 2.10547-.992653 3.213062-1.3026394-1.876463 1.3130884-3.567456 2.8003265-5.041633 4.4294966-1.465469 1.6282993-2.698449 3.4142041-3.535238 5.3272381-.212463.4745578-.397932.9604353-.555538 1.4506666l-.504163 1.5795374c-.322177 1.0666667-.646966 2.1254966-.91951 3.1834558-.271674 1.055347-.528544 2.1072109-.673959 3.1268572-.074885.508517-.134966 1.0074558-.148027 1.4741768-.014803.4641089.016544.9038368.099265 1.2268844.077496.3343673.181115.491102.257741.5581497.020898.0182857.044408.0374421.074885.0565986.100136.0565986.133224.0714014.236843.1227755.18547.0888163.409252.1741497.641742.2603537.94302.3535239 2.045387.6460953 3.139918.9900409 1.100626.3500408 2.231728.7096598 3.359347 1.2242721 1.121524.5180952 2.301388 1.1250068 3.301007 2.290068.404898.4998095.711401.9473742 1.048381 1.404517.330884.4527891.660898.8907755.991782 1.3200544.331755.4275374.678313.8341769 1.030966 1.2103402.351782.3761632.726204.7148843 1.098014.9525986.379646.2411973.699211.3448163.997006.276898.316082-.0600817.678313-.4040272.961307-.8315647.285605-.4292789.521578-.9351836.725333-1.4550204.213333-.5198367.381388-1.0631836.556408-1.6117551.026993 1.1467755-.005224 2.310966-.413605 3.4917007zm20.916245-14.5902585c-.806313 1.2277551-2.758531 1.3696871-4.358966.3178231-1.601307-1.0518639-2.243048-2.9013333-1.437606-4.1282177.807184-1.2277551 2.758531-1.3688163 4.358095-.3169523 1.602177 1.0509932 2.24566 2.8987211 1.438477 4.1273469z" fill="url(#a)" opacity="0.45"/><path d="M483.325388 76.3898776c-9.524245 0-18.275266 5.4047346-22.522776 10.2948571l-10.294857-8.8798912h-4.891864v14.9429116c-6.247619-9.8472925-17.294803-16.3578775-29.855347-16.3578775-12.531809 0-23.503238 6.4818503-29.723864 16.2934421l-.01219-34.9918911-17.899973-15.526313h-4.878803v35.6397279H349.74302L333.782204 109.20751l-16.083592-31.4026665H293.504l5.272381 10.3758368c-6.142259-7.2037007-15.491483-11.7908027-26.119837-11.7908027-22.135292 0-37.064272 15.830204-37.064272 35.2626934 0 2.133334.188082 4.222259.539864 6.252844-4.915374 2.33883-9.842939 5.05034-18.900463 5.05034-11.153414 0-17.968761-8.212027-17.968761-18.123755 0-9.7610884 6.815347-18.2813605 17.968761-18.2813605 10.37932 0 15.026504 4.1830748 21.068626 6.1962449V69.9768163c-6.97034-4.6480544-13.165714-7.2829387-23.544163-7.2829387-2.014912 0-3.97932.128-5.898449.3500408-.557279 7.13317-5.010286 21.5536326-31.661279 22.8954557-.424054.020898-.860299.0322177-1.300027.0322177-.327401 0-.658286-.0156734-.98917-.0269932-2.871728 5.6851157-4.454748 12.0964354-4.454748 18.8856604 0 23.080054 18.432 42.134639 44.303673 42.134639 10.378449 0 16.574694-2.789878 23.545905-7.589442v-14.037334c5.238422 12.379429 17.870367 21.059919 36.02634 21.059919 11.842177 0 22.909388-5.275864 29.215347-12.099048l-8.62215-9.906503c-4.117768 3.473415-9.137632 5.661605-15.958204 5.661605-12.609306 0-20.333714-6.436571-19.687619-15.572462h46.585034c.795864-4.527892.633034-8.915592-.324789-13.005497l16.02351 31.535891-20.589714 40.537687h23.551129l38.726531-76.02068v47.452299h22.811864l-.006096-14.854966c6.221497 9.799402 17.18596 16.270803 29.70732 16.270803 12.560544 0 23.607728-6.510585 29.855347-16.356136v14.940299h22.909388v-35.004952-8.491537c2.573932-4.5052522 6.049959-7.4666671 11.710694-7.4666671 5.662476 0 8.237279 3.4768979 8.237279 14.0286261v2.960544 33.973986h22.907646v-43.240489c0-13.1247896-7.980408-25.3509664-28.05551-25.3509664zM260.174367 101.098231c2.445062-6.6925711 7.722667-10.2948569 12.354177-10.2948569 6.947701 0 10.939211 4.3746395 10.939211 10.2948569h-23.293388 0zm155.586177 28.697252c-6.045605 0-11.195211-8.235537-11.195211-18.398912 0-10.17034 5.149606-18.4050064 11.195211-18.4050064 6.179701 0 11.327565 8.2346664 11.327565 18.4050064-8.71e-4 10.163375-5.148735 18.398912-11.327565 18.398912z" fill="url(#b)"/></svg>