<svg width="256px" height="288px" viewBox="0 0 256 288" xmlns="http://www.w3.org/2000/svg" preserveAspectRatio="xMidYMid"><path d="M243.866765 204.203335c3.596577 2.445672-3.452713-2.445672 0 0 3.164988 2.014082 4.315892 6.186111 2.877261 9.638824-1.294767 3.021125-4.315891 4.891344-7.624742 4.747481-3.30885-.143863-6.186111-2.445672-7.193153-5.610659-1.007041-3.164987.143864-6.761564 2.877262-8.631783 2.733398-1.87022 6.329974-2.014083 9.063372-.143863zm-100.416414 73.226296c1.726357 0 3.596576 0 5.322933-.143863 3.596576-.143863 7.193153-.431589 10.645866-.863178 2.877261-.287727-5.898385.719315 0 0 3.596577-.43159 6.473838 2.877261 5.754523 6.473837-.43159 1.582494-1.582494 2.877261-3.021125 3.596577-1.007041.431589-2.014082.431589-3.021124.575452-1.150904.143863-2.445672.287726-3.596576.287726-9.494962.719315-18.989924.575452-28.484886-.431589-8.631783-1.007042-16.975841-2.589535-25.319898-5.17907-8.0563306-2.445672-15.8249357-5.61066-23.3058147-9.494962-7.6247421-3.884303-14.6740319-8.487921-21.4355957-13.666991-7.7686051-5.754522-14.8178949-12.372223-21.1478695-19.709239-6.3299745-7.193152-11.9406338-15.105621-16.6881147-23.305815-4.8913439-8.48792-8.9195096-17.40743-11.94063382-26.758529-3.16498727-9.494961-5.17907008-19.277649-6.329974537-29.2042-1.150904466-10.070414-1.150904466-20.284692-.14386306-30.355106C1.74523938 119.32413 3.75932219 109.397579 6.92430947 99.9026181c3.02112419-9.3510992 6.90542683-18.2706088 11.79677073-26.9023922 4.747481-8.4879204 10.5020033-16.4003886 16.8319778-23.7374046 6.3299746-7.1931529 13.3792644-13.8108535 21.0040065-19.7092389 7.7686051-5.8983854 16.1126624-11.0774554 24.7444459-15.2494841C90.22102 9.98820654 99.5721185 6.67935625 109.210943 4.23368427c9.782688-2.44567198 19.853102-3.7404395 29.923516-4.1720286739C149.204873-.226070519 159.41915.49324477 169.345701 2.21960146c9.638825 1.72635669 19.133787 4.45975479 28.341023 8.05633124 9.063372 3.5965764 17.695156 8.2001943 25.751487 13.5231274 8.056331 5.3229331 15.53721 11.5090446 22.442637 18.4144714 2.877261 2.8772612 5.466796 5.7545223 7.337016 9.4949618 1.582494 3.1649873 2.445672 6.7615637 2.733398 10.2142771.431589 7.1931529-2.014083 14.5301689-6.905427 19.853102-5.610659 6.3299746-14.098579 9.7826879-22.442637 9.2072357-4.028165-.2877261-8.056331-1.4386306-11.652907-3.4527134-1.87022-1.0070414-3.596577-2.3018089-5.035207-3.7404395-1.726357-1.5824936-3.308851-3.4527134-5.035207-5.035207-7.04929-6.6177007-15.105621-11.9406338-23.881268-15.9687994-9.063373-4.0281656-18.702198-6.6177007-28.484885-7.480879-10.070415-.8631784-20.284692-.1438631-30.06738 2.3018089-9.494961 2.445672-18.558334 6.4738376-26.9023909 11.7967707-8.0563312 5.3229332-15.2494841 11.9406338-21.1478695 19.4215128-6.0422484 7.6247421-10.7897293 16.2565258-14.0985796 25.4637608-3.3088504 9.351099-5.0352071 19.27765-5.0352071 29.204201 0 10.070414 1.5824937 19.996965 4.891344 29.491927 3.1649873 9.207236 7.9124682 17.695156 13.8108536 25.319898 5.8983853 7.624742 13.0915382 14.242443 21.1478695 19.565376 8.200194 5.466796 17.263566 9.494962 26.902391 11.940634 9.782688 2.589535 19.996965 3.30885 30.067379 2.445672 9.782688-.863179 19.421513-3.308851 28.484886-7.337016 1.007041-.431589 1.87022-1.007042 2.877261-1.150905.863178-.143863 1.726357-.143863 2.589535.143863 1.726357.575453 3.021124 1.87022 3.452713 3.596577.43159 1.582494.143863 3.452713-1.007041 4.747481-.575452.719315-1.438631 1.150904-2.301809 1.582493-1.150904.43159-2.157946 1.007042-3.30885 1.438631-9.207236 3.884303-18.846061 6.329975-28.772612 7.193153-10.070414 1.007041-20.284691.431589-30.067379-1.582494 1.294768 1.438631 2.445672 3.021124 3.596577 4.603618 1.150904 1.582494 2.301808 3.30885 3.30885 4.891344.143863.287726.575452.863178.575452.863178 0 0 .143863 0 .431589 0 .575452 0 1.007042.143863 1.582494.143863 1.007041.143864 2.014083.143864 3.021124.287727 4.172029.287726 8.344057.287726 12.516086.143863 8.200194-.43159 16.400389-1.582494 24.312857-3.884303 7.624742-2.157946 15.105621-5.17907 22.154911-8.919509 6.905427-3.74044 13.379264-8.056332 19.27765-13.235402 1.43863-1.294767 2.877261-2.589535 4.315891-3.884302 1.294768-1.150905 2.301809-2.589535 3.884303-3.308851 2.733398-1.43863 6.042248-1.007041 8.344057.863179 2.445672 1.870219 3.452714 5.035207 2.733398 8.056331-.431589 1.582494-1.150904 2.877261-2.301809 3.884302-1.43863 1.294768-2.733398 2.733399-4.172028 4.028166-5.754523 5.17907-11.940634 9.926551-18.558335 13.954717-6.761563 4.172028-13.810853 7.624742-21.291732 10.35814-7.624742 2.877261-15.393347 4.891344-23.449679 6.186111-8.200194 1.294768-16.544251 1.87022-24.888309 1.582494.719316 1.87022 1.294768 3.740439 1.87022 5.610659.287726.863179.431589 1.726357.719315 2.589535 0 .287726.287726 1.007042.287726 1.007042l1.150905.719315zm80.275586-26.470803c2.301809-1.726356-14.817895 10.933593 0 0 .719315-.575452 1.726357-1.007041 2.877261-1.294767 1.87022-.143863 3.884303.863178 4.891344 2.589535 1.007042 1.726357 1.007042 4.028165-.143863 5.610659-.719315 1.007042-1.726356 1.582494-2.589535 2.301809-1.007041.719315-2.157946 1.438631-3.164987 2.157946-2.014083 1.43863-4.172029 2.877261-6.329975 4.172029-8.631783 5.322933-17.839019 9.782688-27.333981 13.091538-4.747481 1.726357-9.638824 3.164987-14.530168 4.315892-2.157946.431589-4.315892.143863-5.754523-1.726357-1.294767-1.582494-1.582493-3.74044-.575452-5.610659.431589-.863179 1.007041-1.582494 1.87022-2.014083 1.007041-.575452 2.157946-.719315 3.164987-1.007042 2.445672-.575452 4.891344-1.294767 7.337016-2.014082 4.891344-1.582494 9.638825-3.308851 14.242443-5.322934 9.207235-4.028165 17.982882-9.207235 26.039213-15.249484zm17.263567-15.53721c2.014083-2.157946-1.87022 2.014083 0 0 2.301809-2.445672 6.473838-2.014083 8.200194.863178.719316 1.150905.863179 2.733399.575453 4.028166-.43159 1.726357-1.726357 2.877261-2.877262 4.028166-1.294767 1.43863-2.733398 2.877261-4.172028 4.172028-1.294768 1.150905-2.877261 1.87022-4.747481 1.582494-3.021124-.431589-5.035207-3.596576-4.172029-6.617701.575452-1.582493 1.87022-2.589535 3.021124-3.740439 1.438631-1.438631 2.877262-2.877261 4.172029-4.315892zm-32.656914-30.211242c2.014083-2.014083-5.035207 5.322933 0 0 1.726357-1.726357 4.459755-2.014083 6.617701-.863178 2.157946 1.294767 3.021124 4.028165 2.157946 6.329974-.575453 1.150905-1.438631 2.014083-2.301809 2.877261-1.007042 1.007042-1.87022 2.014083-2.877262 2.877261-1.726356 1.582494-3.452713 3.164988-5.17907 4.603618-1.870219 1.438631-3.884302 2.877261-5.898385 4.315892-2.157946 1.582494-4.747481 1.726357-6.761564 0-1.726356-1.438631-2.301809-3.884303-1.43863-5.898385.431589-1.007042 1.150904-1.87022 2.014082-2.445672 1.007042-.719316 2.157946-1.582494 3.164988-2.301809 3.740439-2.877261 7.193153-6.042249 10.502003-9.494962zm-64.306787-95.237344c1.726357 0 3.452714.143863 5.322933.143863 6.761564 1.150904 13.235402 4.315891 18.270609 9.063372 4.891344 4.747481 8.48792 11.077456 9.782688 17.83902 1.43863 7.049289.575452 14.386305-2.301809 20.860143-2.877262 6.329974-7.480879 11.509045-13.379265 15.105621-6.042248 3.740439-13.235401 5.466796-20.284691 4.891344-6.905427-.431589-13.66699-3.164987-18.989924-7.624742-5.322933-4.315892-9.207235-10.214277-11.077455-16.831978-2.014083-6.905427-1.726357-14.386306.719315-21.004006 2.301809-6.473838 6.617701-12.084497 12.22836-16.112663 5.754523-4.172028 12.659949-6.329974 19.709239-6.329974z" fill="#ff6c36"/></svg>