<svg width="256px" height="296px" viewBox="0 0 256 296" xmlns="http://www.w3.org/2000/svg" preserveAspectRatio="xMidYMid"><title>Chartjs</title><path d="M248.572187 148.807481c-41.319402.810945-32.71304 26.968078-61.83317 33.583098-29.581943 6.720314-34.251803-72.247994-63.826358-72.247994-29.5782481 0-36.1304619 76.709115-73.1660793 129.370663l-1.0566299 1.490735 79.4042602 45.835941 120.477977-69.551002v-68.481441z" fill="#36a2eb"/><path d="M248.572187 146.42637c-13.832246-17.752122-23.214455-38.160596-43.399411-38.160596-35.720372 0-26.321538 58.271662-65.799226 58.271662-39.4813835 0-43.6321657-62.679213-88.3579061-3.759164-14.251573 18.773653-25.7230271 39.706748-34.7339375 59.514864L128.09421 286.841771l120.477977-69.551002V146.42637z" fill="#ffce56"/><path d="M7.61253824 170.564452C21.1676961 133.026381 27.017953 102.624257 52.8961496 102.624257c39.4776886 0 48.8746754 110.907348 82.7182354 99.624314 33.838019-11.277492 30.077008-71.431507 82.718236-71.431507 10.019512 0 20.249611 6.138429 30.241414 16.067425v70.404433l-120.477978 69.551002L7.61253824 217.288922v-46.72447h0z" fill="#fe6184" opacity="0.8"/><path d="M128 295.560815 0 221.672459V73.8902038L128 0l128 73.8902038V221.670611l-128 73.890204zM15.0385037 212.99036 128 278.200312l112.961496-65.209952V82.5723027L128 17.3623506 15.0385037 82.5723027V212.99036z" fill="#e7e9ed"/></svg>