<svg width="256px" height="256px" viewBox="0 0 256 256" xmlns="http://www.w3.org/2000/svg" preserveAspectRatio="xMidYMid"><title>Google Chrome</title><path d="M128.002654 199.216326c39.335094 0 71.221583-31.887985 71.221583-71.223078 0-39.335094-31.886489-71.2230785-71.221583-71.2230785-39.335094 0-71.221583 31.8879845-71.221583 71.2230785 0 39.335093 31.886489 71.223078 71.221583 71.223078z" fill="#fff"/><path d="M35.890016 92.996518c-5.313064-9.2025257-11.5583989-18.8613179-18.7360048-28.9763767C5.91689083 83.47748 0 105.549915 0 128.020125c0 22.470209 5.91420317 44.542644 17.1499797 63.999983 11.2357766 19.457338 27.3966963 35.61557 46.8567227 46.845972 19.4600263 11.230401 41.5351496 17.140573 64.0040146 17.135491 11.780994-16.523693 19.779734-28.437181 23.99622-35.740466 8.098985-14.028077 18.573451-34.111767 31.423398-60.251068v-.014782c-5.613185 9.734717-13.690958 17.819208-23.420298 23.440456-19.802002 11.440414-44.204027 11.444-64.0093903.009407-9.7307958-5.618594-17.8106557-13.700308-23.4270175-23.432393-17.4533354-32.548909-29.6812065-54.887645-36.6836132-67.016207z" fill="#229342"/><path d="M128.008029 255.995986c22.468865.003949 44.542645-5.910256 64.001328-17.143345 19.458682-11.233089 35.616914-27.392664 46.850003-46.85269C250.091893 172.54016 256.003521 150.466219 256 127.99728c-.004099-22.468866-5.923677-44.5413012-17.163485-63.9972961-24.247722-2.3897416-42.14296-3.5846124-53.685715-3.5846124-13.087888 0-32.138614 1.1948708-57.152178 3.5846124l-.013438.0094068c11.236304-.0053392 22.275945 2.9479583 32.008727 8.5628954 9.733372 5.6158725 17.815176 13.6936447 23.43508 23.4243298 11.437605 19.8042641 11.437093 44.2069501-.001344 64.0107331l-55.419618 95.988637z" fill="#fbc116"/><path d="M128.002654 178.677204c27.983951 0 50.669173-22.685224 50.669173-50.670517 0-27.985295-22.685222-50.6691738-50.669173-50.6691738-27.983951 0-50.669173 22.6852228-50.669173 50.6691738 0 27.98395 22.685222 50.670517 50.669173 50.670517z" fill="#1a73e8"/><path d="M128.002654 64.0040154h110.837892c-11.231745-19.4600264-27.388633-35.620946-46.847315-46.8567226C172.535124 5.9122784 150.461968-.0017050572 127.993247 1.42108511e-14 105.524382 1.42108511e-14 83.4519466 5.9182354 63.9959517 17.1566997 44.5392458 28.3945112 28.3842362 44.5569363 17.1553551 64.0187975l55.419618 95.9898955.0147821.008063c-11.4442581-19.800422-11.4519427-44.203107-.0201575-64.0107333 5.6158725-9.7320289 13.6976762-17.8138326 23.4283613-23.431049 9.730685-5.6172163 20.770262-8.5749898 32.007383-8.5723022l-.002688.0013439z" fill="#e33b2e"/></svg>