<svg width="256" height="223" xmlns="http://www.w3.org/2000/svg" xmlns:xlink="http://www.w3.org/1999/xlink" preserveAspectRatio="xMidYMid"><defs><linearGradient x1="0%" y1="50%" x2="100%" y2="50%" id="c"><stop stop-color="#D93025" offset="0%"/><stop stop-color="#EA4335" offset="100%"/></linearGradient><linearGradient x1="74.943%" y1="95.826%" x2="19.813%" y2="-4.161%" id="d"><stop stop-color="#1E8E3E" offset="0%"/><stop stop-color="#34A853" offset="100%"/></linearGradient><linearGradient x1="59.898%" y1="-.134%" x2="21.416%" y2="99.86%" id="e"><stop stop-color="#FBBC04" offset="0%"/><stop stop-color="#FCC934" offset="100%"/></linearGradient><path d="M255.983 0H0v204.837c0 9.633 7.814 17.464 17.464 17.464h221.072c9.633 0 17.464-7.814 17.464-17.464L255.983 0z" id="a"/></defs><path d="M255.983 0H0v204.837c0 9.633 7.814 17.464 17.464 17.464h221.072c9.633 0 17.464-7.814 17.464-17.464L255.983 0z" fill="#F1F3F4"/><path fill="#E8EAED" d="M0 0h255.983v111.74H0z"/><path d="M157.076 47.727H98.907A11.63 11.63 0 0187.27 36.09a11.63 11.63 0 0111.637-11.637h58.169a11.63 11.63 0 0111.637 11.637c0 6.417-5.204 11.637-11.637 11.637z" fill="#FFF"/><mask id="b" fill="#fff"><use xlink:href="#a"/></mask><g mask="url(#b)"><g transform="translate(17.455 94.293)"><path d="M14.812 55.255l15.241 46.498 32.638 36.427 47.845-82.908 95.724-.017C187.146 22.213 151.443 0 110.536 0 69.63 0 33.926 22.213 14.812 55.255z" fill="url(#c)"/><path d="M110.52 221.105l32.637-36.443 15.224-46.482H62.674L14.812 55.255c-19.047 33.076-20.445 75.128.017 110.561 20.445 35.434 57.545 55.256 95.69 55.29z" fill="url(#d)"/><path d="M206.26 55.272h-95.724l47.862 82.908-47.862 82.925c38.162-.033 75.263-19.855 95.708-55.289 20.461-35.433 19.064-77.468.016-110.544z" fill="url(#e)"/><ellipse fill="#F1F3F4" cx="110.536" cy="110.544" rx="55.255" ry="55.272"/><ellipse fill="#1A73E8" cx="110.536" cy="110.544" rx="44.898" ry="44.915"/></g></g><path fill="#BDC1C6" opacity=".1" d="M0 111.74h255.983v1.448H0zM0 110.275h255.983v1.448H0z"/></svg>