<svg width="256" height="256" xmlns="http://www.w3.org/2000/svg" preserveAspectRatio="xMidYMid"><path d="M128.003 199.216c39.335 0 71.221-31.888 71.221-71.223 0-39.335-31.886-71.223-71.221-71.223-39.335 0-71.222 31.888-71.222 71.223 0 39.335 31.887 71.223 71.222 71.223z" fill="#FFF"/><path d="M35.89 92.997c-5.313-9.203-11.558-18.862-18.736-28.977a127.98 127.98 0 00110.857 191.981c11.78-16.523 19.78-28.437 23.996-35.74 8.099-14.028 18.573-34.112 31.423-60.251v-.015a63.993 63.993 0 01-110.857.017c-17.453-32.548-29.68-54.887-36.683-67.015z" fill="#229342"/><path d="M128.008 255.996A127.972 127.972 0 00256 127.997 127.983 127.983 0 00238.837 64c-24.248-2.39-42.143-3.585-53.686-3.585-13.088 0-32.139 1.195-57.152 3.585l-.014.01a63.993 63.993 0 0155.444 31.987 63.993 63.993 0 01-.001 64.01l-55.42 95.989z" fill="#FBC116"/><path d="M128.003 178.677c27.984 0 50.669-22.685 50.669-50.67 0-27.986-22.685-50.67-50.67-50.67-27.983 0-50.669 22.686-50.669 50.67s22.686 50.67 50.67 50.67z" fill="#1A73E8"/><path d="M128.003 64.004H238.84a127.973 127.973 0 00-221.685.015l55.419 95.99.015.008a63.993 63.993 0 0155.415-96.014l-.002.001z" fill="#E33B2E"/></svg>