<svg width="256px" height="256px" viewBox="0 0 256 256" xmlns="http://www.w3.org/2000/svg" preserveAspectRatio="xMidYMid"><circle fill="#fc521f" cx="128" cy="128" r="128"/><path d="M158.160232 187.016008l-20.391015-11.768982 61.34414-35.38333c2.352575-1.356549 4.567661-2.914748 6.629983-4.650153 7.97431 11.353463 8.756465 26.303003 1.649857 38.615828-6.4711 11.13792-18.374319 17.997106-31.255631 18.010942-6.284734 0-12.496142-1.665134-17.977334-4.82736v.003055h0zm-4.912909 8.499821c2.352575 1.359604 4.809029 2.502283 7.347976 3.421926-5.856994 12.569469-18.420352 20.720986-32.651899 20.720986-19.865505 0-36.0371618-16.153325-36.0371618-36.006609v-70.772769l31.1242528 17.962058v44.40866c0 1.753737.937975 3.373042 2.456455 4.24991l27.760377 16.015838h0zm-73.4033751-3.681626c-12.8743495-.01299-24.7716494-6.867464-31.2403543-17.998722-4.801764-8.261419-6.0957317-18.101516-3.5930227-27.323471 2.4486195-9.240691 8.4946846-17.11653 16.7888261-21.869775l20.3849041-11.762872.0030553 70.760548c0 2.716154.2322021 5.407866.7057723 8.075135-1.0143568.079438-2.0348241.119157-3.0491808.119157h0zm79.3245301-87.457716-31.115088 17.949837-38.4966708-22.202803c-1.5199535-.8739214-3.3898999-.8739214-4.9098533 0l-27.7603774 16.012783c-2.3525744 1.353494-4.5707159 2.902526-6.6360929 4.647098-7.9681999-11.350408-8.7472992-26.3030037-1.646802-38.6158279 6.4693214-11.1386119 18.3715595-17.999067 31.2525754-18.013998 6.2786238 0 12.4961418 1.6742997 17.9773345 4.833471l61.3349745 35.3894399zM127.9434 36.3412587c19.87467 0 36.037162 16.1533255 36.037162 36.0157748v23.5257436l-61.325809-35.3802742c-2.345915-1.3585072-4.8079922-2.5057045-7.3571414-3.4280369C101.15155 44.4958314 113.721019 36.3412587 127.9434 36.3412587zm79.446742 45.8385365c9.929697 17.1982352 4.014652 39.2635498-13.195804 49.1932468l-61.334974 35.380274v-35.905784l38.493616-22.208913c1.521535-.876869 2.459509-2.496173 2.459509-4.249911V72.3570335c0-2.7039329-.244423-5.3986999-.708827-8.0537481 13.921586-1.160082 27.267234 5.7981592 34.28648 17.8765098z" fill="#fff"/></svg>