<svg width="256px" height="223px" viewBox="0 0 256 223" xmlns="http://www.w3.org/2000/svg" preserveAspectRatio="xMidYMid"><title>Chrome Web Store</title><defs><path d="M255.983159 0H0v204.83705c0 9.633051 7.81422275 17.464114 17.4641142 17.464114H238.535886c9.63305 0 17.464114-7.814222 17.464114-17.464114L255.983159 0h0z" id="b"/><linearGradient x1="0%" y1="50%" x2="100%" y2="50%" id="c"><stop stop-color="#d93025"/><stop stop-color="#ea4335" offset="1"/></linearGradient><linearGradient x1="74.9425053%" y1="95.8262545%" x2="19.8128739%" y2="-4.16095532%" id="d"><stop stop-color="#1e8e3e"/><stop stop-color="#34a853" offset="1"/></linearGradient><linearGradient x1="59.8983718%" y1="-0.134357063%" x2="21.4162235%" y2="99.8597528%" id="e"><stop stop-color="#fbbc04"/><stop stop-color="#fcc934" offset="1"/></linearGradient></defs><path d="M255.983159 0H0v204.83705c0 9.633051 7.81422275 17.464114 17.4641142 17.464114H238.535886c9.63305 0 17.464114-7.814222 17.464114-17.464114L255.983159 0h0z" fill="#f1f3f4"/><path fill="#e8eaed" d="M0 0h255.983159v111.740017H0z"/><g style="fill:#fff"><path d="M157.075982 47.7273864H98.9071772c-6.433261 0-11.6371292-5.2038682-11.6371292-11.6371292h0c0-6.4332609 5.2038682-11.6371291 11.6371292-11.6371291h58.1688048c6.433261 0 11.637129 5.2038682 11.637129 11.6371291h0c0 6.41642-5.203868 11.6371292-11.637129 11.6371292z"/><mask id="a"><use href="#b"/></mask></g><g mask="url(#a)"><g transform="translate(17.455382 94.292744)"><path d="M14.8119693 55.2553122l15.2411025 46.4979938 32.6378528 36.427077 47.8452734-82.9082299 95.724229-.0168409C187.145895 22.2132754 151.44298 0 110.536198 0 69.6294155 0 33.9265012 22.2132754 14.8119693 55.2553122z" fill="url(#c)"/><path d="M110.519357 221.105454l32.637853-36.443919 15.224261-46.481152H62.6740836L14.8119693 55.2553122c-19.04716797 33.0757187-20.44497074 75.1276888.016841 110.5611468 20.4449707 35.433459 57.5456878 55.255313 95.6905467 55.288995z" fill="url(#d)"/><path d="M206.260427 55.2721531h-95.724229l47.862114 82.9082299-47.862114 82.925071c38.1617-.033682 75.262417-19.855536 95.707388-55.288995 20.461811-35.433458 19.064009-77.4685871.016841-110.5443059z" fill="url(#e)"/><ellipse fill="#f1f3f4" cx="110.536198" cy="110.544306" rx="55.2553122" ry="55.2721531"/><ellipse fill="#1a73e8" cx="110.536198" cy="110.544306" rx="44.8980988" ry="44.9149398"/></g></g><g style="fill:#bdc1c6"><path opacity="0.1" d="M0 111.740017h255.983159v1.44832577H0z"/><path opacity="0.1" d="M0 110.27485h255.983159v1.44832577H0z"/></g></svg>