<svg width="512px" height="156px" viewBox="0 0 512 156" xmlns="http://www.w3.org/2000/svg" preserveAspectRatio="xMidYMid"><title>Cinder</title><path d="M496.68945 83.7800892l9.414562 9.4145616v19.6849922l-7.22734 7.227341 7.22734 7.22734v18.258544l.760773.760772H512v8.939079h-12.552749l-5.610698-5.610698v-19.875186l-4.849926-4.849926H467.20951v21.491828h8.558692v8.939079h-28.719168l.095097-9.034176h7.893016V92.7191679h-7.893016v-8.9390787h49.545319zm-124.291233 0 10.270431 10.2704309v50.9717679l-10.270431 10.270431h-48.97474v-8.939079h7.893016V92.7191679h-7.893016v-8.9390787h48.97474zm-53.824666-.0950966v8.9390787h-7.22734v62.5735517h-11.791976l-29.575037-52.112928v43.173849h8.843982v8.939079h-27.482913v-8.843983h7.893017V92.7191679h-7.893017v-8.9390787h19.78009l29.47994 51.5423478V92.6240713h-8.843982v-8.9390787h26.817236zm122.959881.0950966v19.0193168h-10.365527V92.6240713h-24.154532v21.7771177h27.673105v9.509658h-27.673105v22.347697h24.249628V136.08321h10.460625v19.019316h-54.775632v-8.748886h7.893016V92.7191679h-7.893016v-8.9390787h54.585438zm-246.205052 0 9.794948 9.7949479v12.8380389h-12.077266v-8.8439824l-4.469539-4.4695394h-18.163447l-4.849926 4.8499257v42.9836551l4.849926 4.849926h18.163447l4.469539-4.469539v-9.319466h12.077266v13.218425l-9.794948 9.794948h-31.667162l-10.27043-9.890044V93.9554235l10.27043-10.1753343h31.667162zm170.222883 9.4145616h-22.062407v52.7786032h22.062407l4.849926-4.849926V98.0445765l-4.849926-4.8499257zm124.005944-.4754829H467.20951v23.1084691h21.96731l4.659733-4.659732V97.0936107l-4.279346-4.3744428z" fill="#58585a"/><g transform="translate(212.540862 83.970282)"><g style="fill:#f05129"><path d="M21.1114413 48.4992571h13.0282318V59.910847H21.1114413z"/><path d="M2.70280743e-14 48.4992571h12.8380386V59.910847h-12.8380386z"/></g><path fill="#f15a22" d="M11.4115899 37.0876672h11.4115899v13.1233284H11.4115899z"/><path fill="#be1e2d" d="M11.4115899 58.4843982h11.4115899v12.8380386H11.4115899z"/><path fill="#ffd529" d="M11.4115899 1.35140372e-14h11.4115899v12.5527489H11.4115899z"/><path fill="#f36c21" d="M11.4115899 21.0163447h11.4115899v13.02823180000001H11.4115899z"/><g style="fill:#fbb040"><path d="M0 11.3164933h13.5037147v11.4115899H0z"/><path d="M21.1114413 11.3164933h13.0282318v11.4115899H21.1114413z"/></g><path fill="#f7941e" d="M11.4115899 11.3164933h11.4115899v11.4115899H11.4115899z"/><path fill="#d51920" d="M11.4115899 48.4992571h11.4115899V59.910847H11.4115899z"/></g><g transform="translate(52.683507 44.315007)"><g style="fill:#ef4123"><path d="M0 7.0371471h8.08320951v7.0371471H0z"/><path d="M12.4576523 7.0371471h8.55869242v7.0371471H12.4576523z"/></g><path fill="#f15a22" d="M7.0371471 0h7.0371471v8.55869242H7.0371471z"/><path fill="#c9252c" d="M7.0371471 12.5527489h7.0371471v8.46359584H7.0371471z"/><path fill="#ed1c24" d="M7.0371471 7.0371471h7.0371471v7.0371471H7.0371471z"/></g><g transform="translate(73.985141 31.572065)"><path fill="#f7941e" d="M5.13521545-6.75701859e-15h5.13521545v6.27637444H5.13521545z"/><path fill="#ed1c24" d="M5.13521545 9.03417533h5.13521545v6.27637444H5.13521545z"/><g style="fill:#f58220"><path d="M9.12927192 5.13521545h6.18127786v5.13521545H9.12927192z"/><path d="M0 5.13521545h5.80089153v5.13521545H0z"/></g><path fill="#f15a22" d="M5.13521545 5.13521545h5.13521545v5.13521545H5.13521545z"/></g><g transform="translate(62.763744 69.800892)"><path fill="#da2128" d="M3.04309064 0h3.04309064v3.89895988H3.04309064z"/><path fill="#962f34" d="M3.04309064 5.80089153h3.04309064v3.51857355H3.04309064z"/><g style="fill:#c9252c"><path d="M5.51560178 3.13818722H9.2243685v3.04309064H5.51560178z"/><path d="M0 3.13818722h3.70876672v3.04309064H0z"/></g><path fill="#b8292f" d="M3.04309064 3.13818722h3.04309064v3.04309064H3.04309064z"/></g><g transform="translate(50.306092 21.301634)"><g style="fill:#f7941e"><path d="M-1.3514037200000001e-14 5.23031204h6.46656761v5.32540862h-6.46656761z"/><path d="M9.50965825 5.23031204h6.27637444v5.32540862H9.50965825z"/></g><path fill="#faa61a" d="M5.23031204 0h5.32540862v6.27637444H5.23031204z"/><path fill="#f15a22" d="M5.23031204 9.60475483h5.32540862v6.27637444H5.23031204z"/><path fill="#f37021" d="M5.23031204 5.23031204h5.32540862v5.32540862H5.23031204z"/></g><g transform="translate(66.092125)"><path fill="#fff200" d="M7.70282318-3.37850929e-15h7.70282318v10.175334300000001H7.70282318z"/><path fill="#f7941e" d="M7.70282318 14.1693908h7.70282318v8.939078750000002H7.70282318z"/><g style="fill:#fd0"><path d="M13.9791976 7.70282318h9.2243685v7.70282318h-9.2243685z"/><path d="M0 7.70282318h9.69985141v7.70282318H0z"/></g><path fill="#fdb913" d="M7.70282318 7.70282318h7.70282318v7.70282318H7.70282318z"/></g><g transform="translate(0 64.855869)" fill="#58585a"><path d="M-1.01355279e-14 90.4368499 52.6835067 11.4115899l52.6835063 79.02526z"/><path d="M34.9004458 90.4368499 88.820208 2.70280743e-14 140.172363 90.4368499z"/></g></svg>