<svg width="256px" height="259px" viewBox="0 0 256 259" xmlns="http://www.w3.org/2000/svg" preserveAspectRatio="xMidYMid"><g fill="#343434"><circle cx="126.157031" cy="129.007874" r="30.5932958"/><path d="M1.20368953 96.5716086c0 .3685938-.368593916 1.1057817-.368593916 1.4743757 0 3.3173457 2.580157476 6.2660967 6.266096746 6.2660967H59.0729359c2.5801575 0 4.4231271-1.474375 5.5289089-3.685939 10.6892238-23.5900115 34.279235-39.4395504 61.1865912-39.4395504 37.227987 0 67.452689 30.224702 67.452689 67.4526884 0 37.227987-30.224702 67.452689-67.452689 67.452689-27.2759501 0-50.4973674-16.218134-61.1865912-39.070956-1.1057818-2.580158-2.9487514-4.054533-5.5289089-4.054533H7.10119236c-3.31734535 0-6.266096746 2.580157-6.266096746 6.266095 0 .368595 0 1.105782.368593916 1.474377C15.5788527 216.733228 66.0762205 258.015748 126.157031 258.015748c71.138627 0 129.007874-57.869246 129.007874-129.007874C255.164905 57.8692464 197.295658 0 126.157031 0 66.0762205 0 15.5788527 41.2825197 1.20368953 96.5716086h0z"/></g></svg>