<svg width="256px" height="256px" viewBox="0 0 256 256" xmlns="http://www.w3.org/2000/svg" preserveAspectRatio="xMidYMid"><circle cx="128" cy="128" r="128"/><path d="M164.965839 70.5c12.594531 0 22.7956 10.2410736 22.7956 22.8632505 0 6.9202045-3.066302 13.1246815-7.912223 17.3181175 4.845921 4.193951 7.912223 10.398428 7.912223 17.318632 0 6.920763-3.066798 13.125684-7.913398 17.319134 4.846672 4.192077 7.913398 10.396933 7.913398 17.317615 0 12.495956-9.998068 22.658191-22.41849 22.860187l-.37711.003064H73.7834364c-3.0623503 0-5.5448758-2.482525-5.5448758-5.544876 0-2.997194 2.3780099-5.438974 5.3502124-5.541522l.1946634-.003354h91.1824026c6.460093 0 11.705849-5.266327 11.705849-11.773499 0-6.420409-5.106802-11.632843-11.448103-11.770699l-.257746-.0028H73.7834364c-3.0623503 0-5.5448758-2.482525-5.5448758-5.544875 0-2.997194 2.3780099-5.438974 5.3502124-5.541523l.1946634-.003353h91.1824026c6.460093 0 11.705849-5.266328 11.705849-11.773499 0-6.420409-5.106802-11.632843-11.448103-11.7707l-.257746-.002799H73.7834364c-3.0623503 0-5.5448758-2.482525-5.5448758-5.544876 0-2.997194 2.3780099-5.438974 5.3502124-5.541522l.1946634-.003354h91.1824026c6.460093 0 11.705849-5.266327 11.705849-11.7734985 0-6.4204092-5.106802-11.6328429-11.448103-11.7706997l-.257746-.0027992c-3.062351 0-5.544876-2.4825254-5.544876-5.5448758 0-3.0623503 2.482525-5.5448758 5.544876-5.5448758z" fill="#fafafa"/></svg>