<svg width="256px" height="256px" viewBox="0 0 256 256" xmlns="http://www.w3.org/2000/svg" preserveAspectRatio="xMidYMid"><title>Clio</title><path fill="#351330" d="M6.34560283 6.34779662H249.804223V249.658627H6.34560283z"/><path d="M256 0H0v256.002058h256V0zm-9.965629 9.97128132V246.030777H9.96562891V9.97128132H246.034371z" fill="#cc2a41"/><path d="M172.533744 166.935562l-10.670697 3.939911c-5.484584-6.700889-8.711953-14.409303-11.978686-22.095792-.450945-1.195377-.901391-2.388761-1.352336-3.58364-1.100326-2.724894-2.067936-5.511183-2.907326-9.025372-1.889982-8.032297-3.947567-15.590513-5.748321-24.115826-2.762472 8.023328-5.524945 16.046656-8.287417 24.069984-1.081271 3.040015-2.162541 6.079532-3.243314 9.119547-3.095324 8.553997-6.19015 17.107995-9.355234 25.855326l-9.952175-2.19194c2.867111-7.948088 5.685391-15.761141 8.503671-23.573695 1.144054-3.054466 2.28761-6.108931 3.431166-9.163396 3.675324-9.759341 7.351146-19.519179 11.026968-29.27852.349794-.928298.708058-1.924861 1.105189-2.971252h4.214006c-2.828246-11.3608169-9.731029-18.2576462-21.767515-19.5068378.546116-2.8342248 1.056905-5.5557223 1.600032-8.3769918 7.96154.8151884 15.322438 2.4007774 21.14744 8.7679773 5.825003 6.3671999 7.853038 11.0611328 9.717607 17.7754753 1.150034 4.143708 2.225325 8.307847 3.334001 12.463015 1.484879 5.486577 2.969259 10.973154 4.45364 16.459731.437989 1.574072.875979 3.147644 1.313968 4.721715 1.076786 3.040016 2.153572 6.080031 3.230359 9.120046 2.538245 7.961541 6.470682 15.153237 12.184974 21.590535z" fill="#504e4d"/><path d="M76.7405736 136.457099v8.946682c68.2422554 0 102.3633834 0 102.3633834 0-1.984773 1.022759-10.449323 9.881406-25.39365 26.575943l7.822295 6.975576 33.804308-38.08897-33.804308-38.086536-7.822295 6.691642c14.094556 16.092528 22.559106 25.087749 25.39365 26.985663 0 0-34.121128 0-102.3633834 0z" fill="#cc2a41"/><path d="M149.64321 166.935562l-10.670697 3.939911c-5.484584-6.700889-8.711953-14.409303-11.978686-22.095792-.450945-1.195377-.901391-2.388761-1.352336-3.58364-1.100326-2.724894-2.067936-5.511183-2.907326-9.025372-1.889981-8.032297-3.947567-15.590513-5.748321-24.115826-2.762472 8.023328-5.524944 16.046656-8.287417 24.069984-1.08127 3.040015-2.162541 6.079532-3.243314 9.119547-3.095324 8.553997-6.19015 17.107995-9.3552337 25.855326l-9.9521753-2.19194c2.8671114-7.948088 5.6853913-15.761141 8.5036711-23.573695 1.1440542-3.054466 2.2876101-6.108931 3.431166-9.163396 3.6753239-9.759341 7.3511459-19.519179 11.0269689-29.27852.349793-.928298.708057-1.924861 1.105188-2.971252h4.214006c-2.828246-11.3608169-9.731029-18.2576462-21.7675151-19.5068378.5461165-2.8342248 1.0569051-5.5557223 1.6000318-8.3769918 7.9615413.8151884 15.3224383 2.4007774 21.1474403 8.7679773 5.825003 6.3671999 7.853038 11.0611328 9.717607 17.7754753 1.150034 4.143708 2.225325 8.307847 3.334001 12.463015 1.484879 5.486577 2.96926 10.973154 4.45364 16.459731.437989 1.574072.875979 3.147644 1.313968 4.721715 1.076786 3.040016 2.153573 6.080031 3.230359 9.120046 2.538246 7.961541 6.470683 15.153237 12.184974 21.590535z" fill="#e8caa4"/></svg>