<svg width="256px" height="256px" viewBox="0 0 256 256" xmlns="http://www.w3.org/2000/svg" preserveAspectRatio="xMidYMid"><title>CLion</title><defs><linearGradient x1="0%" y1="50%" x2="115.014638%" y2="50%" id="a"><stop stop-color="#ff318c" offset="0%"/><stop stop-color="#fb348c" offset="15%"/><stop stop-color="#f03c8c" offset="28%"/><stop stop-color="#de4a8c" offset="42%"/><stop stop-color="#c45d8b" offset="54%"/><stop stop-color="#a2778b" offset="67%"/><stop stop-color="#79958a" offset="79%"/><stop stop-color="#49b98a" offset="91%"/><stop stop-color="#21d789" offset="100%"/></linearGradient><linearGradient x1="53.8157917%" y1="17.2570133%" x2="43.4444773%" y2="151.487674%" id="b"><stop stop-color="#21d789" offset="9%"/><stop stop-color="#009ae5" offset="90%"/></linearGradient><linearGradient x1="93.0492082%" y1="9.9805967%" x2="-9.59719418%" y2="113.191194%" id="c"><stop stop-color="#21d789" offset="9%"/><stop stop-color="#009ae5" offset="90%"/></linearGradient><linearGradient x1="32.3877917%" y1="46.0393104%" x2="91.6876122%" y2="52.2443908%" id="d"><stop stop-color="#21d789" offset="9%"/><stop stop-color="#009ae5" offset="90%"/></linearGradient></defs><path fill="url(#a)" d="M92.0266667 100.106667 97.5733333 0l58.2133337 32.2666667z"/><path fill="url(#b)" d="M92.0266667 100.106667 97.5733333 0l-73.92 46.5866667L-7.10542736e-15 188.213333z"/><path fill="url(#c)" d="M250.906667 76.72 217.973333 9.76l-62.186666 22.5066667-63.7600003 67.8400003L1.42108547e-14 188.213333 83.0133333 248.64 187.36 154.533333z"/><path fill="url(#d)" d="M208 146.773333V208H107.466667l44.186666 34.186667 64 13.813333L256 164.666667z"/><path d="M48 48h160v160H48z"/><path d="M67.9466667 177.76h60.0000003v10H67.9466667v-10zM128.133333 67.84h13.333334v49.04h26.266666V128h-39.6V67.84zM63.6761695 98.8152265 63.68 98.16c-.1481038-8.3894842 3.135956-16.4756479 9.0917534-22.3861349 5.9557974-5.9104871 14.0668047-9.1326994 22.4549133-8.9205318 8.9153933-.4392402 17.5925593 2.9578608 23.8400003 9.3333334l-8.4 9.7866666c-4.069158-4.2195867-9.633401-6.6713013-15.4933337-6.8266666-10.0734814 0-17.3566847 8.2665251-17.5172901 18.4816089L77.6533333 98.16c0 10.373333 7.1733334 19.013333 17.52 19.013333 6.9333337 0 11.1466667-2.666666 15.9999997-7.093333l8.32 8.586667c-6.20302 7.173133-15.353573 11.104628-24.8266663 10.666666-8.2601161.123689-16.2178459-3.104921-22.0567717-8.948871-5.7221474-5.727072-8.9307715-13.486882-8.9337255-21.5692355h0z" fill="#fff"/></svg>