<svg width="256px" height="399px" viewBox="0 0 256 399" xmlns="http://www.w3.org/2000/svg" preserveAspectRatio="xMidYMid"><g transform="translate(1 1)"><path d="M142.8392 127.7227l72.214-43.489v169.125l-69.798 41.476v37.046l108.455-65.234V23.5627l-110.871 66.979v37.181z" fill="#c08a07"/><path d="M144.645 89.3661l109.065-65.803L215.858.7451l-107.136 64.078 35.923 24.543z" fill="#f6b71f"/><path d="M35.9951 154.0311l107.825-64.361-35.359-24.847-108.17 64.779 35.704 24.429z" fill="#4286c5"/><path d="M142.8392 90.542l-106.844 63.489v242.681l109.26-64.831v-37.047l-71.677 43.356V168.662l69.261-40.939V90.542z" fill="#22496e"/><path d="M.2909 129.6019v246.976l35.704 20.134v-242.681l-35.704-24.429z" fill="#30689c"/><path d="M73.5785 338.1896l72.352-44.03-33.507-21.641-38.845 23.121v42.55z" fill="#4286c5"/><path d="M145.9304 294.1594l69.123-40.801-35.436-20.671-67.53 40.148 33.843 21.324z" fill="#f6b71f"/><path d="M215.053 253.3586V84.2336l-35.436 21.409v127.045l35.436 20.671z" fill="#e4a409"/></g><path d="M147.5441 330.6012v-34.033l69.141-41.089c.003-.002.007-.001.01-.003.003-.002.004-.006.008-.008l.007-.004c.003-.002.002-.006.005-.008.385-.236.628-.65.628-1.1V85.2342c0-.465-.252-.893-.655-1.123 0 0-.002.001-.003 0-.402-.226-.899-.22-1.299.019l-.989.597-68.287 40.774v-34.173l107.31-64.48v240.067l-105.876 63.686zm-109.258-174.838 105.244-62.898v34.181l-69.607 41.505c-.393.233-.636.654-.636 1.111v169.527c0 .466.252.894.658 1.12.195.114.415.17.632.17.23 0 .463-.063.667-.189l69.72-42.173v34.026l-106.678 63.302v-239.682zm-35.706-22.717 33.126 22.663v239.793l-33.126-18.681v-243.775zm106.752-65.799 33.911 23.139-106.197 63.115-33.372-22.83 105.658-63.424zm107.52-64.002 35.363 21.317-106.642 64.43-33.907-23.136 105.186-62.611zm-36.061 229.015-104.924 62.096v-123.958l104.924-62.23v124.092zm2.58-.002v-125.576l31.392-19.164v164.592l-31.392-19.852zm-1.289 2.235 31.427 19.873-66.341 39.35-32.196-20.121 67.11-39.102zm-106.215 62.874 36.686-22.338 32.215 20.134-68.901 41.742v-39.538zm179.522-273.882c-.009-.006-.006-.021-.015-.027L217.5221.6402c-.406-.245-.915-.242-1.321-.003L.6261 129.4972c-.02.012-.013.043-.032.056-.336.224-.555.58-.577.987 0 .009-.014.014-.014.024 0 .004.005.005.005.009-.001.011-.008.018-.008.029v246.974c0 .466.252.893.657 1.12l35.692 20.126c.004.002.005.006.008.008.199.113.419.17.639.17.223 0 .45-.063.651-.176.003-.002.004-.005.007-.007l217.72-130.071c.387-.233.626-.648.626-1.101V24.5622c0-.443-.239-.841-.611-1.077h0z" fill="#241200"/></svg>