<svg width="256px" height="279px" viewBox="0 0 256 279" xmlns="http://www.w3.org/2000/svg" preserveAspectRatio="xMidYMid"><path d="M126.814264.00205949676C153.512769-.22808111 176.475583 18.8538323 181.134394 45.1437466c25.108662-9.5551583 53.437862.5660097 66.807543 23.8683191h0l.02375.0474991.249371.4749915c12.89478 22.9507755 7.728234 51.8197237-12.326028 68.8737567 20.779681 17.083421 26.185889 46.674502 12.789144 70.001861h0l-.090611.155822c-.06324.102155-.132093.200781-.206258.29542-13.275147 22.722742-40.889956 32.715435-65.631941 23.749571-4.043103 26.500023-26.718352 46.150139-53.524015 46.385404-26.805662.231074-49.8193088-19.021616-54.3227874-45.447296-24.3493056 9.263916-51.7267842.02471-65.55227113-21.795921L9.25 211.592l.40061465.665604-1.5674717-2.553078c-.09482068-.156027-.17816417-.318745-.24937049-.486867-12.90735894-22.94639-7.7446891557-51.821495 12.31415264-68.873756C-.681482807 123.264078-6.09274376 93.6202156 7.35878103 70.2826678h0l.0897206-.1539325c.06333219-.1020351.13194207-.2023111.19527426-.2973094C20.9523947 47.1418991 48.5421729 37.1600691 73.2875907 46.0818547 77.4883638 19.7148751 100.115759.236394094 126.814264.00205949676zm.30173 9.56450877324c-24.265573.092137-43.8622752 19.83770153-43.7704599 44.10327443.0658092 1.0133026-.1521346 2.0248907-.6293636 2.9211972-.6701301 1.2604554-1.8147671 2.2020347-3.1807915 2.6165217-1.3660243.414487-2.8408899.2677323-4.0984521-.4078115h0l-.6249159-.3274868c-20.6710321-10.6255964-46.1119399-3.303243-57.9415267 16.7978144-.0642266.1420395-.1355656.2807543-.2137461.4156175h0l-.3524248.6234182C4.85858337 96.937374 11.6408871 122.991918 31.8089646 135.392117c.8857181.444553 1.6300092 1.127163 2.1493362 1.971215 1.5670399 2.533729.7984982 5.857009-1.7218439 7.44549h0L30.986 145.617l-.519631.357268C12.09884 158.78137 6.15127138 183.436449 16.8628149 203.267742l.3401634.618139c.0938429.130083.1810364.264837.2612453.403742h0l.3609617.616595c12.0523681 20.215908 37.9633653 27.3724 58.7160967 16.091229 1.6262535-1.068386 3.7033671-1.172963 5.4287058-.273322 1.7253388.899641 2.8286692 2.662593 2.8836441 4.607618h0l.0712487 1.852467-.0949983-1.852467c.0593944 15.697074 8.488566 30.170081 22.1123277 37.967181 13.623761 7.7971 30.372339 7.733727 43.936707-.166247 13.564367-7.899974 21.883773-22.436354 21.824379-38.133428-.13753-1.954489.798507-3.829179 2.443429-4.893685 1.644921-1.064507 3.738541-1.15045 5.465178-.224347h0l.624479.326632c20.656426 10.597763 46.063042 3.28473 57.894465-16.785085h0l.213746-.427492h.023749c11.92998-20.704942 5.232295-47.143172-15.116602-59.670798-1.740052-.886281-2.869761-2.639099-2.958209-4.589856-.088447-1.950757.878007-3.798615 2.530717-4.838724h0 .011875c19.963601-12.542176 26.585914-38.5352795 15.057228-59.1008077-.089975-.1261344-.173215-.2569398-.249371-.3918679h0l-.360466-.6172644c-12.036417-20.2377834-37.970665-27.3953436-58.716592-16.0786842-.828339.5433446-1.788844.8511988-2.7787.8906089-2.980057.0933118-5.472443-2.2449605-5.569274-5.2249057h0v-.0356243c-.091816-24.2655728-19.837381-43.86227479-44.102954-43.77078043zM92.8535129 151.583381c2.7187122-5.34795 9.1475971-7.632517 14.6313851-5.199406 5.483788 2.433111 8.103967 8.732672 5.963218 14.33706-1.911841 4.084926-2.018714 6.495508-.724362 9.369206h0l9.832322 20.935247c1.923715 4.215549 6.091765 5.640523 9.499829 6.471758h0-.011875c10.699187 2.577735 18.429185 11.884826 18.999138 22.875389.569953 10.990564-6.155868 21.04731-16.531026 24.717927-10.375158 3.670616-21.928917.080982-28.397351-8.822764-6.4684337-8.903746-6.3111516-21.00127.386575-29.73384 2.743076-3.586185 3.562436-6.091765 2.517455-10.592309h0l-5.272405-22.633341c-.724362-2.921198-2.220585-4.381796-6.4717583-6.839877-5.1972501-2.996758-7.139857-9.5371-4.4211448-14.88505zm4.0014311-35.849791c6.024279-.312018 11.23641 4.151462 11.854818 10.152034.618407 6.000573-3.573846 11.433249-9.5351386 12.356442-4.488669.368118-6.6261304 1.484348-8.478597 4.049302h0l-13.1691372 18.999657c-2.6718268 3.776181-1.828717 8.110478-.831235 11.482917 3.114493 10.599896-1.1168105 21.985542-10.3979005 27.978806-9.2810901 5.993265-21.3993158 5.165327-29.7790282-2.034553-8.3797123-7.19988-11.0231527-19.05522-6.4959248-29.13302 4.5272278-10.0778 15.1458135-15.97547 26.09385-14.492788 4.4767942.593739 7.0536227.059373 10.414187-3.099319h0l16.9096947-15.900338c2.1730858-2.089963 2.6718268-4.120551 2.6718268-9.036712-.0048174-6.032352 4.7183054-11.010411 10.7425848-11.322428zm84.208201 46.056176c5.759184-6.108584 14.220478-8.884317 22.478969-7.374242 11.76068 2.123729 20.361239 12.292544 20.503844 24.242585.142605 11.950041-8.212842 22.321198-19.919493 24.724974-11.706651 2.403775-23.472833-3.835726-28.05073-14.87505-1.721844-4.191799-3.467437-6.151139-7.884858-7.492989h0l-22.15835-6.733004c-2.897447-.831235-4.892411-.261245-9.13171 2.196835-2.310097 1.349826-5.027845 1.825959-7.659236 1.341851-5.996828-1.261312-9.903544-7.062641-8.817508-13.093676 1.086036-6.031034 6.771066-10.105134 12.831185-9.195296 2.663952.475607 5.064803 1.901771 6.756753 4.013677 2.564954 3.716808 4.607417 5.023034 7.718611 5.319904h0l23.001459 1.93559c4.595542.439367 7.956107-2.469955 10.331064-5.011159zm-1.18237-83.9649137c7.783706-8.8282184 20.708718-11.0221964 30.983932-5.2071681 10.393321 5.8818676 15.157623 18.3065624 11.361529 29.6294218-3.796094 11.32286-15.08682 18.364956-26.925223 16.793431-4.46492-.605614-7.041748-.059373-10.402312 3.09932h0l-16.885945 15.888463c-2.173086 2.101837-2.671827 4.12055-2.671827 9.048586.005212 5.005816-3.282286 9.419006-8.080133 10.8469-4.797847 1.427893-9.963462-.469554-12.696238-4.663616-2.732775-4.194061-2.381916-9.685945.862355-13.498152 1.742421-2.074356 4.175767-3.449176 6.851752-3.87118 4.500543-.368118 6.638005-1.484348 8.454847-4.049302h0l13.157262-18.999657c2.683702-3.788056 1.828717-8.110478.84311-11.494792-2.393819-8.066222-.558617-16.7957114 4.880537-23.215206h0zm-54.688496-50.4339306c9.523771-.0061908 18.219444 5.4126461 22.409805 13.9650224 4.190362 8.5523762 3.143589 18.7446664-2.697661 26.2667717-2.707451 3.5624357-3.562436 6.0680154-2.458081 10.6279331h0l5.272405 22.5620931c.724362 2.933072 2.220585 4.39367 6.459883 6.839876 5.197704 2.994389 7.143079 9.532777 4.427725 14.881547-2.715353 5.348771-9.141725 7.637163-14.626596 5.208443-5.484871-2.42872-8.109878-8.725095-5.974587-14.330719 1.911841-4.084926 2.030589-6.507382.724362-9.369206h0l-9.820447-20.9471216c-1.935591-4.2155489-6.091766-5.6405231-9.499829-6.4598833h0l-.047499.0237495c-10.71319-2.6094178-18.451121-11.9302992-19.044726-22.9407092-.5936045-11.0104101 6.097353-21.1091968 16.467897-24.8553028 2.695013-.9778204 5.540432-1.4761707 8.407349-1.4724939zM47.3232415 70.7480659c11.7083037-2.4054244 23.4767769 3.835239 28.0543115 14.8768249 1.7218439 4.1799245 3.4793122 6.1511389 7.8848576 7.4929897h0l22.1702244 6.7330034c2.885573.8312351 4.892412.2493701 9.131711-2.2087101 5.215869-3.017352 11.881032-1.4235722 15.167713 3.6269172 3.28668 5.050489 2.044561 11.79005-2.826654 15.337017-4.871215 3.546967-11.666632 2.659925-15.464128-2.018615-2.564954-3.716808-4.595542-5.023034-7.718611-5.319904h0l-22.9895847-1.93559c-4.595542-.439367-7.9561064 2.45808-10.3310635 5.011159-5.765214 6.099085-14.2212473 8.873092-22.4789691 7.374242-11.7637085-2.117924-20.370188-12.285094-20.5165829-24.2370404-.1463949-11.9519458 8.2084721-22.3268693 19.9167757-24.7322937z" fill="#005eec"/></svg>