<svg width="256px" height="168px" viewBox="0 0 256 168" xmlns="http://www.w3.org/2000/svg" preserveAspectRatio="xMidYMid"><title>Cloudinary</title><path d="M75.0596066 75.2015741c.1873246 0 .3668291.0751026.4983415.2085004L99.11784 98.9911724c.194322.1998238.2515318.4959132.1456368.7537444-.1058949.2578312-.3547004.4282352-.6333754.4337932h-6.0225106c-.3900633-1.69e-4-.7095323.309904-.7210048.699798v53.015059c.0085503 3.355636 1.342365 6.572035 3.7110541 8.948941l3.5201999 3.5202c.194322.199824.2515318.495913.1456368.753745-.1058949.257831-.3547004.428235-.6333754.433793H70.850211c-7.027058 0-12.723614-5.696556-12.723614-12.723614v-53.948124c0-.386488-.3133106-.699798-.6997987-.699798h-5.9376866c-.2825257.002888-.5390723-.164403-.6503705-.4240983-.1112982-.2596957-.055511-.5608437.141426-.7634393L74.561265 75.4100745c.1315125-.1333978.311017-.2085004.4983416-.2085004zM127.162806 88.858253c.187324 0 .366829.0751027.498341.2085005l23.581098 23.4962735c.196937.202596.252724.503744.141426.76344-.111298.259695-.367845.426986-.65037.424098h-6.022511c-.389895.011472-.699968.330941-.699799.721004v39.421998c.002913 3.352611 1.328932 6.568588 3.689848 8.948941l3.541406 3.5202c.196937.202596.252724.503744.141426.76344-.111298.259695-.367845.426986-.65037.42417h-27.716273c-7.027058 0-12.723614-5.696628-12.723614-12.723686v-40.312651c1.69e-4-.390063-.309904-.709532-.699799-.721004h-6.001304c-.278675-.005558-.527481-.175962-.633376-.433793-.105894-.257831-.048685-.553921.145637-.753745l23.559892-23.5386855c.131513-.1333978.311017-.2085005.498342-.2085005zm52.113802 13.509949c.183882 0 .359891.074623.487738.206788l23.581098 23.559892c.209549.197725.276503.503669.168695.770845-.107808.267176-.368343.440976-.656433.437898h-6.043717c-.386488 0-.699799.313311-.699799.699799v25.850143c.008551 3.355636 1.342365 6.572035 3.711054 8.948941l3.5202 3.5202c.194322.199824.251532.495913.145637.753745-.105895.257831-.3547.428235-.633375.433793h-27.801097c-7.027058 0-12.723614-5.696556-12.723614-12.723614v-26.783208c0-.386488-.31331-.699799-.699798-.699799h-5.937687c-.288091.003078-.548626-.170722-.656434-.437898-.107808-.267176-.040853-.57312.168695-.770845l23.581098-23.559892c.127848-.132165.303857-.206788.487739-.206788zM126.68567-.00129915197C163.726151.268389097 196.395694 24.3213189 207.650267 59.6115872 235.158643 63.2017038 255.798993 86.5397839 256 114.280715c0 22.895523-14.318834 41.921649-37.437806 49.842756l-.860272.288283-1.060301.339296v-17.092054c14.695774-6.192159 23.326625-18.428034 23.326625-33.378281-.075261-21.0962731-16.782428-38.3223492-37.779556-39.1254846l-.709376-.0208342h-6.361807l-1.526833-6.0649226c-7.493372-30.9311318-35.079933-52.7905308-66.905004-53.0150582-26.186213-.1257079-50.0998832 14.7542036-61.575846 38.2304303l-2.3603139 4.860209-4.4532649.4665325C38.1836676 61.7631686 21.669169 76.4737678 17.2157913 96.2047716c-4.389758 19.4491324 3.8985824 39.5268074 20.6465673 50.2313304l.733491.459477v18.02512h-.1060301l-1.5904517-.721005C11.7447631 152.635559-2.9896596 126.07915.511218289 98.6159526 4.01209618 71.1527552 24.9376165 49.1421067 52.1889105 44.2584264 66.9118072 16.8510474 95.5746387-.176942734 126.68567-.00129915197z" fill="#3448c5"/></svg>