<svg width="256px" height="231px" viewBox="0 0 256 231" xmlns="http://www.w3.org/2000/svg" preserveAspectRatio="xMidYMid"><title>CloudFrame Workers</title><defs><linearGradient x1="50%" y1="100%" x2="25.7%" y2="8.7%" id="a"><stop stop-color="#eb6f07"/><stop stop-color="#fab743" offset="1"/></linearGradient><linearGradient x1="81%" y1="83.7%" x2="40.5%" y2="29.5%" id="b"><stop stop-color="#d96504"/><stop stop-color="#d96504" stop-opacity="0" offset="1"/></linearGradient><linearGradient x1="42%" y1="8.7%" x2="84%" y2="79.9%" id="c"><stop stop-color="#eb6f07"/><stop stop-color="#eb720a" stop-opacity="0" offset="1"/></linearGradient><linearGradient x1="50%" y1="100%" x2="25.7%" y2="8.7%" id="d"><stop stop-color="#ee6f05"/><stop stop-color="#fab743" offset="1"/></linearGradient><linearGradient x1="-33.2%" y1="100%" x2="91.7%" y2="0%" id="e"><stop stop-color="#d96504" stop-opacity="0.8"/><stop stop-color="#d96504" stop-opacity="0.2" offset=".498"/><stop stop-color="#d96504" stop-opacity="0" offset="1"/></linearGradient><linearGradient x1="50%" y1="100%" x2="25.7%" y2="8.7%" id="f"><stop stop-color="#ffa95f"/><stop stop-color="#ffebc8" offset="1"/></linearGradient><linearGradient x1="8.1%" y1="1.1%" x2="96.5%" y2="48.8%" id="g"><stop stop-color="#fff" stop-opacity="0.5"/><stop stop-color="#fff" stop-opacity="0.1" offset="1"/></linearGradient><linearGradient x1="-13.7%" y1="104.2%" x2="100%" y2="46.2%" id="h"><stop stop-color="#fff" stop-opacity="0.5"/><stop stop-color="#fff" stop-opacity="0.1" offset="1"/></linearGradient></defs><path d="M65.820799 3.32378893 95.981106 57.7354448 68.2828649 107.592279c-2.6958488 4.840836-2.6958488 10.73173 0 15.572566l27.6982411 49.979938-30.160307 54.411656c-5.6751082-2.813557-10.38778-7.247752-13.5413623-12.741191L4.26915217 131.412766c-5.69220289-9.909712-5.69220289-22.097144 0-32.0068563L52.2794367 16.0034282c3.1631135-5.470642 7.8748446-9.8825358 13.5413623-12.67963927z" fill="url(#a)"/><path d="M68.2828649 107.65383c-2.6730559 4.824847-2.6730559 10.686168 0 15.511015l27.6982411 49.979938-30.160307 54.411656c-5.6751082-2.813557-10.38778-7.247752-13.5413623-12.741191L4.26915217 131.412766C.452950062 124.82674 21.8113715 116.948129 68.2828649 107.715382v-.061552z" fill="url(#b)" opacity="0.7"/><path d="M68.8983814 8.8018855 95.981106 57.7354448l-4.4932702 7.8170591-23.882039-40.439432c-6.8937844-11.2639514-17.4191161-5.4165449-30.5911685 17.3575644l1.9696527-3.3853405 13.2951557-23.0818676c3.1302859-5.4527355 7.7972076-9.86276248 13.4182591-12.67963927l3.1391339 5.47809657h.0615517z" fill="url(#c)" opacity="0.5"/><path d="M203.696488 16.0034282l48.010285 83.4024815c5.724303 9.8482633 5.724303 22.1585933 0 32.0068563l-48.010285 83.402482c-5.713809 9.896613-16.270621 15.996104-27.698241 16.003428h-48.010285l59.705098-107.653831c2.673056-4.824847 2.673056-10.686168 0-15.511015L127.987962 0h48.010285c11.42762.00732404312 21.984432 6.10681526 27.698241 16.0034282h0z" fill="url(#d)"/><path d="M173.536181 230.449366l-47.394768.430861 57.366135-108.207795c2.604319-4.886003 2.604319-10.748114 0-15.634118L126.141413 0h10.83309l60.19751 106.545901c2.902494 5.121438 2.879081 11.396205-.061551 16.495841-12.95569 22.516719-25.820089 45.085842-38.592883 67.706812-11.694813 20.55825-6.647578 33.791854 15.018602 39.700812h0z" fill="url(#e)"/><path d="M79.9776778 230.818676c-4.9241317 0-9.8482635-1.169481-14.1568788-3.262237l59.212684-106.792108c1.84655-3.323789 1.84655-7.386197 0-10.709986L65.820799 3.32378893C70.2222355 1.14434147 75.066203.00706214019 79.9776778 0h48.0102842l59.705098 107.65383c2.673056 4.824847 2.673056 10.686168 0 15.511015l-59.705098 107.653831H79.9776778z" fill="url(#f)"/><path d="M183.507548 110.054345 122.448314 0h5.539648l59.705098 107.65383c2.673056 4.824847 2.673056 10.686168 0 15.511015l-59.705098 107.653831h-5.539648l61.059234-110.054345c1.846549-3.323789 1.846549-7.386197 0-10.709986z" fill="url(#g)" opacity="0.6"/><path d="M125.033483 110.054345 65.820799 3.32378893c1.8465495-.98482635 4.0624087-1.72344611 6.1551647-2.33896258C85.0249129 24.4360038 104.290578 60.0128557 129.834512 107.65383c2.673056 4.824847 2.673056 10.686168 0 15.511015L71.052689 229.587643c-2.092756-.615517-3.2006856-1.046378-5.1703383-1.969653l59.0895813-106.792107c1.846549-3.323789 1.846549-7.386198 0-10.709987l.061551-.061551z" fill="url(#h)" opacity="0.6"/></svg>