<svg width="256px" height="117px" viewBox="0 0 256 117" xmlns="http://www.w3.org/2000/svg" preserveAspectRatio="xMidYMid"><title>Cloudflare</title><path d="M205.519951 50.8125742c-.85817 0-1.704637.031202-2.551105.0585038-.137125.0073776-.271849.0390729-.397878.0936062-.455113.1548625-.801333.528906-.920581.994566l-3.627719 12.6719416c-1.564208 5.4486618-.982995 10.4799958 1.646126 14.1735411 2.410677 3.416627 6.420671 5.4213601 11.288833 5.6553755l19.679393 1.1934793c.585115.0312022 1.092216.3120207 1.400376.7761516.32703.5022212.400621 1.1283698.19894 1.6927124-.323639.9244266-1.158067 1.5741884-2.133721 1.6615103l-20.447846 1.1934793c-11.109397.5148341-23.06136 9.5790357-27.254691 20.6323697l-1.474492 3.900259c-.128748.328038-.091271.698035.10064.993602.191913.295568.514673.480379.866752.496328h70.42453c.841587.003367 1.582033-.555085 1.809958-1.365121 1.250789-4.495424 1.880751-9.140781 1.872534-13.806917 0-28.1598701-22.58173-50.9841858-50.448842-50.9841858" fill="#fbad41"/><path d="M174.781871 115.36186l1.302859-4.582804c1.568109-5.448662.986894-10.479996-1.638325-14.1735411-2.418478-3.4166268-6.424571-5.4213599-11.296634-5.6553755l-92.3117594-1.1934793c-.5824398-.0106018-1.1246815-.2990828-1.4588886-.7761514-.3283362-.5015841-.403373-1.12777-.2028401-1.6927124.3265151-.9304675 1.1702651-1.5815369 2.1532259-1.6615104l93.1738302-1.1934792c11.062588-.5109339 23.014552-9.5790361 27.207881-20.6323702l5.312851-14.0409323c.214014-.5952705.270237-1.2374346.15603-1.8604235C191.126105 20.511462 166.910115 0 137.958588 0 111.269509 0 88.62553 17.4029556 80.5002228 41.5962621c-5.470441-4.1595274-12.3216697-6.0761129-19.1566891-5.3589559-12.7945308 1.2870855-23.0925677 11.7085776-24.3642192 24.6418364-.3292538 3.2301746-.0916361 6.4930287.7021389 9.6414402C16.7733178 71.1446242 0 88.4539736 0 109.725986c0 1.922828.136527005 3.818354.413481787 5.667076.11404708.897183.878134603 1.569224 1.782652613 1.567908H172.675455c.986039-.016232 1.843571-.679937 2.106416-1.630312" fill="#f6821f"/></svg>