<svg width="256px" height="256px" viewBox="0 0 256 256" xmlns="http://www.w3.org/2000/svg" preserveAspectRatio="xMidYMid"><path d="M256 128c0 70.692-57.308 128-128 128C57.308 256 0 198.692 0 128 0 57.308 57.308 0 128 0c70.692 0 128 57.308 128 128"/><path d="M86.8123 61.6718l24.472 24.472-36.909 36.908c-9.628 9.629-.267 18.989 9.361 9.361l55.095-55.095c35.839-35.839 92.673 20.995 56.834 56.834l-16.448 16.448 23.268 23.268-27.815 27.815-44.932-44.932 41.455-41.455c7.845-7.845-3.254-18.944-11.099-11.099l-58.037 58.037c-36.641 31.827-87.992-18.989-56.968-56.967l41.723-43.595z" fill="#fff"/></svg>