<svg width="256" height="256" xmlns="http://www.w3.org/2000/svg"><path d="M41.416 104.612l-37.07-9.919A128.132 128.132 0 0163.964 17.13l19.174 33.183a89.733 89.733 0 00-41.722 54.3zm63.35-63.248l-9.97-37.069A128.29 128.29 0 01127.875 0v38.348a90.142 90.142 0 00-23.11 3.016zm46.477 0l9.92-37.018a128.183 128.183 0 0177.564 59.516l-33.235 19.173a89.733 89.733 0 00-54.249-41.67zM0 127.825h38.348a89.17 89.17 0 003.016 23.111l-37.069 9.92A127.83 127.83 0 010 127.826zm17.129 63.913l33.388-19.174a90.91 90.91 0 0014.214 18.51l-27.15 27.098a127.825 127.825 0 01-20.452-26.434zm46.835 46.784l19.174-33.183a89.12 89.12 0 0044.688 11.964v38.348a127.161 127.161 0 01-63.862-17.129zm141.477-65.855l33.183 19.225a128.183 128.183 0 01-77.615 59.464l-9.92-37.07a89.733 89.733 0 0054.352-41.62zm46.017-10.482l-36.865-10.124a89.427 89.427 0 000-46.426l37.172-9.92a128.081 128.081 0 01-.307 66.47z"/></svg>