<svg width="256px" height="275px" viewBox="0 0 256 275" xmlns="http://www.w3.org/2000/svg" preserveAspectRatio="xMidYMid"><title>Coda</title><path d="M233.064936 2.84217094e-14H22.914119C10.2929977.022900038.0575574274 10.2302724 0 22.8512832V251.419969c.057576287 12.627585 10.3003805 22.839199 22.9280825 22.858265H233.078899c12.626558-.019087 22.867353-10.231808 22.921101-22.858265v-10.66114c-.383997-13.719148-.767993-42.288488-.767993-55.239643 0-7.240079-5.348024-13.335151-12.225053-13.335151-7.645021 0-12.609049 4.573049-16.428068 8.378105-11.464042 10.291107-28.660103 12.197126-43.56615 9.530096-6.870046-1.529005-13.37006-3.428042-18.711102-6.856084-16.435051-9.530095-27.131099-27.431314-27.131099-46.477541 0-19.046227 10.696048-36.570431 27.124117-46.4775408 5.73202-3.4280416 12.232034-5.3340606 18.725066-6.8560832 14.52205-2.6670303 32.095126-.767993 43.559168 9.5231135 4.203016 3.812038 9.167044 8.3781055 16.428068 8.3781055 6.877029 0 12.225053-6.0950717 12.225053-13.3351514 0-12.5671585.383996-41.5204952.767993-55.2326615v-9.9071099C256 10.2841247 245.680967 2.84217094e-14 233.071918 2.84217094e-14h-.006982z" fill="#f46a54"/></svg>