<svg width="256px" height="256px" viewBox="0 0 256 256" xmlns="http://www.w3.org/2000/svg"><path d="M41.4155893 104.612406 4.34624771 94.6931616C13.1781391 61.9709983 34.6149911 34.0810288 63.963975 17.12876l19.1737974 33.183452c-20.5384793 11.8732403-35.5394439 31.3965546-41.7221831 54.300194zm63.3502267-63.2479662-9.9703748-37.06934153C105.588572 1.42972965 116.709637-.014117987 127.876633 6.268195e-5V38.3477624c-7.801691.0012189-15.570215 1.0152519-23.110817 3.0166774zm46.477285 0 9.919244-37.01821141c32.702101 8.81238361 60.587514 30.20896971 77.564402 59.51546701l-33.234582 19.1737974c-11.871474-20.5084619-31.373186-35.4885704-54.249064-41.671053zM6.98577306e-5 127.825483H38.3477817c-.0098641 7.802409 1.0043561 15.572367 3.0166775 23.110818l-37.06934161 9.919244C1.4289919 150.079973-.0149068619 138.975704 6.98577306e-5 127.825483zM17.1287793 191.738141l33.3879725-19.173797c3.9231815 6.754757 8.7005944 12.975705 14.2141751 18.509106l-27.1500971 27.098967c-7.9448924-7.878345-14.8210054-16.765721-20.4520505-26.434276zm46.8351957 46.784066 19.1737974-33.183452c13.583061 7.852221 28.9983486 11.979426 44.6877306 11.96445v38.347652c-22.425117.021372-44.4570854-5.887923-63.861528-17.12865zm141.47706-65.855603 33.183452 19.224928c-16.998981 29.297789-44.903202 50.676319-77.615532 59.464337l-9.919245-37.069342c22.9051-6.146067 42.445822-21.109517 54.351325-41.619923zm46.017113-10.481676-36.864821-10.123765c4.087101-15.20553 4.087101-31.220624 0-46.426154l37.171602-9.9192449c5.748924 21.7973169 5.6431 44.7258419-.306781 66.4691639z"/></svg>