<svg width="256px" height="164px" viewBox="0 0 256 164" xmlns="http://www.w3.org/2000/svg" preserveAspectRatio="xMidYMid"><title>CodersRank</title><path d="M139.539078.229226287 9.01110668 82.3993233C2.8630435 86.1175452-.141748171 90.2806109.00513414328 94.8927169V107.3987C.152016542 112.015003 3.22815107 116.106726 9.23772518 119.678065l64.59877642 37.287136c.3835728.22452.8116299.362589 1.2543753.404136.4423257.041547.8884284-.014269 1.307253-.163669.4184049-.148981.7994597-.387769 1.1163059-.699999.3164266-.311811.5606709-.689088.7159466-1.105815l14.5035835-35.050326-30.7613621-17.416051c-.8867497-.459952-1.6320728-1.151558-2.1570723-2.001797-.393225-.638728-.6550953-1.349639-.7705029-2.0907654-.1158272-.7411264-.0822541-1.4977804.0977817-2.2258972.1800358-.7285365.503177-1.4134279.9509584-2.0152259.4477813-.601798 1.0109702-1.108752 1.6564133-1.4906461l56.474168-34.6096798 23.287148-56.70489474c.093166-.26558848.101559-.55355343.024341-.824161095-.077219-.270603463-.23711-.510512711-.456595-.686627174-.218225-.17394606-.48639-.2731521663-.765047-.283782591-.279076-.00901647533-.553537.071062946-.783512.229226287h.008393z" fill="#19223c"/><path d="M246.763198 46.0018754 183.049829 7.37618014c-.369305-.2303535-.783933-.37883058-1.215347-.4354852-.431834-.05661266-.870803-.02005993-1.287109.10718215-.416307.12724209-.800299.34227786-1.126798.63054498-.326078.28830908-.58669.64313489-.764627 1.04068247L163.715914 43.7692636l30.320715 18.087513c.872901.4742202 1.598919 1.1834521 2.106712 2.0479597.509053.8674452.777218 1.8549143.777218 2.8600093 0 1.0055147-.268165 1.9929838-.777218 2.8600093-.503177.8632486-1.231293 1.5741592-2.106712 2.056353l-56.910618 33.4891771-24.17264 56.264336c-.233752.267326-.353776.616067-.333213.971102.020564.354616.179197.68699.442326.925779.129257.117506.280335.207314.444424.265647.164508.057914.338669.082674.51241.072182.17416-.010072.344124-.054556.500659-.131355.156115-.076798.295863-.184232.410011-.315587l41.752359-25.230192 16.480201 23.669042c.360491.545563.849399.993345 1.423919 1.304316.57494.31139 1.217025.475899 1.870442.479256h39.55332c.721403.002518 1.429375-.194724 2.045442-.569484.616067-.37476 1.116726-.912349 1.446162-1.554015.339088-.642925.4994-1.365167.464987-2.091605-.034832-.726019-.263549-1.429795-.662229-2.037888l-26.808129-41.085093 54.275129-32.8177153C252.923864 79.5665921 256 75.3993298 256 70.7830272v-12.279365c0-4.6163026-3.076136-8.7793683-9.232605-12.5017868h-.004197z" fill="#67a4ac"/></svg>