<svg width="256px" height="190px" viewBox="0 0 256 190" xmlns="http://www.w3.org/2000/svg" preserveAspectRatio="xMidYMid"><title>Codeception</title><path d="M112.532328 92.3799965 71.1701599 62.1861069l38.9993741 65.1060981L256 6.98557056 112.532328 92.3799965zM94.7883017 172.223216c-42.9522184 0-77.7712234-34.751339-77.7712234-77.6194878 0-42.8675168 34.819005-77.6198352 77.7712234-77.6198352 19.0189743 0 36.4352563 6.8236895 49.9483133 18.1384889l10.901848-12.982535c-16.477928-13.80508813-37.702935-22.139846900000027-60.8501613-22.139846900000027C42.5211254-2.8421709400000002e-14 0 42.4392683 0 94.6037282 0 146.76882 42.5211254 189.208088 94.7883017 189.208088c27.1051273 0 51.5712333-11.431548 68.8633073-29.697058l-12.337034-11.628448c-14.178028 14.9789-34.25103 24.340634-56.5262733 24.340634zm0-22.498691c-30.5020389 0-55.2282539-24.677859-55.2282539-55.1204808 0-30.4426214 24.726215-55.1214288 55.2282539-55.1214288 13.5061043 0 25.8671573 4.8545365 35.4630843 12.8898057l8.184129-9.746999c-11.819026-9.902812-27.04413-15.8810663-43.6472133-15.8810663-37.4911808 0-67.9922084 30.4415153-67.9922084 67.8596884 0 37.4172248 30.5010276 67.8585818 67.9922084 67.8585818 19.4421663 0 36.9921373-8.199931 49.3952253-21.301175l-9.281141-8.747015c-10.06779 10.636049-24.295122 17.310089-40.1140843 17.310089z" fill="#236bfd"/></svg>