<svg width="256px" height="316px" viewBox="0 0 256 316" xmlns="http://www.w3.org/2000/svg" preserveAspectRatio="xMidYMid"><title>CodeIgniter</title><path d="M81.8339408 315.106502c-20.2230032-8.934371-33.9644008-28.182178-35.7670358-50.227517 1.1820557-22.675769 13.1602203-43.401146 32.1814668-55.763479-3.1225972 7.614409-2.3641114 16.282818 1.9700929 23.247096 4.9350826 6.895325 13.4261828 10.205081 21.7399743 8.48125 11.840258-3.329457 18.774985-15.622836 15.445528-27.472945-1.182055-4.147045-3.546167-7.909923-6.777119-10.746856-13.3966315-10.894614-20.1244986-28.014721-17.7308358-45.124977 2.2951582-9.062428 7.3090448-17.258014 14.3915288-23.444105-5.319251 14.184668 9.683006 28.182178 19.75018 35.067652 17.868743 10.717306 35.067653 22.498461 51.53763 35.274513 17.996798 14.184669 27.80786 36.387615 26.271188 59.102786-4.048541 24.173039-21.148947 44.13008-44.455145 51.616433C207.013641 304.743814 255.083907 267.706068 256 215.173542c-.916093-42.031931-26.005226-79.749359-64.353083-96.928569h-1.704131c.84714 2.058747 1.26086 4.275102 1.182056 6.511157.128056-1.448018.128056-2.886186 0-4.334204.20686 1.70413.20686 3.418111 0 5.122241-2.915737 11.948614-14.972706 19.30691-26.95087 16.391173-4.787326-1.182056-9.062427-3.871232-12.135772-7.752315-15.366724-19.700929 0-42.1205857 2.570971-63.7916072 1.576074-27.709356-11.081772-54.1972545-33.540831-70.39141780000003C132.30772 18.7355831 117.335014 43.3420429 106.450251 57.3395527 95.5457871 71.3370624 79.7850443 81.7687041 66.9400388 93.9832798c-13.8399023 12.8745572-26.5273003 27.0296742-37.914437 42.1599872C4.40929149 166.216734-5.25401398 205.884554 2.75441349 243.907346c10.98326771 36.643728 41.44090331 64.175775 79.00072361 71.317362h.2068598l-.1280561-.118206z" fill="#dd4814"/></svg>