<svg width="256px" height="245px" viewBox="0 0 256 245" xmlns="http://www.w3.org/2000/svg" preserveAspectRatio="xMidYMid"><title>Codecov</title><path d="M128.285078-1.4210854700000001e-14C57.5857461-1.4210854700000001e-14 0 56.9756788 0 126.486007v.569757l21.6659243 12.534649h.5701559c13.6837416-9.116108 30.2182627-12.534649 46.752784-9.685865 11.4031181 2.279027 22.23608 7.406838 30.7884186 15.383433l3.9910912 3.418541 2.280624-4.558055c2.280623-4.558054 4.561247-8.546351 6.841871-12.534649 1.140311-1.70927 2.280623-2.848784 3.420935-4.558054l2.280624-2.848784-2.85078-2.279027c-11.973274-9.685866-26.2271713-16.522947-41.6213808-19.371731-14.8240533-2.8487841-29.6481069-2.279027-43.3318484 2.279027C41.051225 59.8244628 80.962138 27.9180826 128.285078 27.9180826c26.797327 0 51.884187 10.2556223 70.699333 29.0575962 13.683741 13.1044063 22.806234 29.627353 26.797325 47.8595702-8.552337-2.848784-17.674832-3.988297-26.797325-3.988297h-1.710468c-3.420936 0-6.841872.569756-10.832963.569756h-.570156c-1.140312 0-2.850779.569757-3.991091.569757-2.280624.569757-3.991092.569757-6.271715 1.139514l-1.710468.569757c-1.710468.569756-3.420935 1.139513-5.131403 1.70927h-.570156c-3.991091 1.139513-7.412027 2.848784-11.403118 4.558054h0c-1.710468.569757-3.420935 1.70927-5.131403 2.848784h-.570156c-8.552338 5.127811-16.534521 11.395136-22.806236 19.371731l-.570156 1.139514c-1.710468 2.279027-2.850779 3.988297-3.991091 5.12781-1.140312 1.139514-1.710468 2.848784-2.85078 4.558055l-.570156 1.139513c-1.140312 1.709271-1.710467 3.418541-2.280623 4.558055v.569757c-1.710468 3.41854-3.420936 7.406838-4.561248 11.395135v.569757c-2.850779 9.116109-4.561247 18.801974-4.561247 29.057596v1.139514c0 1.139514 0 2.848784 0 3.988298 0 .569756 0 1.139513 0 1.709269 0 .569758 0 1.709271 0 2.279029v.569755 1.139515c0 1.139513.570156 2.848784.570156 3.988297 2.85078 13.674163 9.122495 26.778569 18.815145 38.743461l.570156.569758.570156-.569758c3.991091-4.558054 13.113586-18.801973 14.253897-27.348326h0 0c-4.561247-8.546351-6.84187-18.232218-6.84187-27.348325 0-31.90638 25.086859-58.684949 57.585745-60.39422h2.280624c13.113586-.569757 26.227172 3.418541 37.060135 10.825379h.570155L256 127.055764h0v-.569757c0-33.6156505-13.113586-65.5220307-37.630289-89.4518158-23.946549-23.9297851-55.875279-37.03419120000002-90.084633-37.03419120000002" fill="#f07"/></svg>