<svg width="256px" height="256px" viewBox="0 0 256 256" xmlns="http://www.w3.org/2000/svg" preserveAspectRatio="xMidYMid"><title>CodePen</title><path d="M127.574384.00746439363l.221922-.00578657049h0 .408884 0l.280951.00804662776h0l.332778.0179334577h0c2.14562.1428212114 4.138211.8445807184 5.833789 1.9607411814L250.382971 78.7918676c1.197365.7599914 2.277571 1.7422689 3.174434 2.933883l.223505.3066483h0l.154914.2249427c1.382288 2.0547532 2.051207 4.3802527 2.064176 6.6839663v77.8705731c.03119 2.227983-.549156 4.486069-1.794232 6.50898l-.131375.208734h0l-.138569.210581h0c-.884663 1.315039-1.982166 2.401223-3.215827 3.243548l-115.880782 76.900132c-1.730697 1.185767-3.784762 1.93399-6.002764 2.085238l-.513909.024199h0L128 255.997518h-.210725 0l-.313868-.011342h0l-.327342-.018594h0c-2.200096-.15241-4.238309-.89261-5.959021-2.064424L5.6484681 177.225537c-1.02928772-.648859-1.97272142-1.461502-2.78847223-2.429746l-.0274225-.033946c-.25704955-.306621-.49828705-.625252-.72300585-.954576l-.0453913-.067093c-1.422820705-2.115003-2.0898221784-4.516864-2.064176219999474-6.886555V89.1856365C-.0280623264 87.1721938.443071969 85.1341658 1.45299925 83.2673401l.24785184-.4358017h0l.10106335-.167347h0c.20793597-.337173.43219015-.6641921.67238859-.979977.89854936-1.1836251 1.97848934-2.1585076 3.17430723-2.9123233L121.167856 2.10882142c1.623332-1.110524842 3.530675-1.836308753 5.590668-2.0459901594l.457578-.0374909166h0l.358282-.01787595037h0zM70.058 142.6l-36.133 24.307 81.959 54.386v-47.865L70.058 142.6zm115.883-.001-45.826 30.829v47.865l81.957-54.388-36.131-24.306zm-57.940784-38.977947L91.768 127.995l36.232216 24.37093L164.232 127.995l-36.231784-24.373947zM24.221 111.764v32.468l24.132-16.234-24.132-16.234zm207.537.013-24.112 16.221 24.112 16.221v-32.442zM115.884 34.686 33.918 89.083l36.143 24.311 45.823-30.826V34.686zm24.231.013v47.869l45.823 30.826 36.14-24.308-81.963-54.387z"/></svg>