<svg width="256px" height="147px" viewBox="0 0 256 147" xmlns="http://www.w3.org/2000/svg" preserveAspectRatio="xMidYMid"><title>CodeSee</title><path d="M98.1538099 0l11.6922541 29.8460645C91.9999058 36.9230479 68.6152711 53.2306992 45.8460645 73.538319c22.7692066 20.3071173 46.1538413 36.307745 63.9999995 43.999655l-11.3846028 29.231264C69.8461273 134.461932 34.769238 107.38385 2.84217094e-14 73.2306678L2.0861049 71.1903573C36.1575411 38.0118754 70.1106596 12.061529 98.1538099 0zm59.6917521 0C186.461273 12.3076826 221.230008 39.0768578 256 73.2306678l-2.086513 2.0406392c-34.083955 33.189758-68.332305 59.436771-96.375702 71.497931l-11.383975-29.231264c17.846033-7.69191 41.230793-23.6925377 64-43.999655l-1.847379-1.637695c-22.181823-19.5446769-44.788913-35.1688459-62.152621-42.0545595L157.845562 0zM128 49.8459074c13.424096 0 24.308091 10.8829899 24.308091 24.3077141 0 13.4247242-10.883995 24.3072115-24.308091 24.3072115-13.42485 0-24.30784-10.8824873-24.30784-24.3072115 0-13.4247242 10.88299-24.3077141 24.30784-24.3077141z"/></svg>