<svg width="256px" height="259px" viewBox="0 0 256 259" xmlns="http://www.w3.org/2000/svg" preserveAspectRatio="xMidYMid"><defs><linearGradient x1="-0.002%" y1="49.998%" x2="100.002%" y2="49.998%" id="a"><stop stop-color="#0aa1a5" offset="0%"/><stop stop-color="#50d690" offset="100%"/></linearGradient><linearGradient x1="-0.002%" y1="49.998%" x2="100.002%" y2="49.998%" id="b"><stop stop-color="#0aa1a5" offset="0%"/><stop stop-color="#50d690" offset="100%"/></linearGradient></defs><path d="M56.5856614 28.5726041c0 15.7863638-12.6671878 28.5726042-28.2868781 28.5726042C12.6671878 57.1452083 0 44.3589679 0 28.5726041 0 12.7862403 12.6671878 0 28.2987833 0c15.6196903 0 28.2868781 12.7862403 28.2868781 28.5726041zm0 100.7422399c0 15.774459-12.6671878 28.572604-28.2868781 28.572604-15.6315955 0-28.298783299999993-12.798145-28.298783299999993-28.572604C3.55271368e-15 113.52848 12.6671878 100.74224 28.2987833 100.74224c15.6196903 0 28.2868781 12.78624 28.2868781 28.572604zm0 100.730335c0 15.786364-12.6671878 28.572604-28.2868781 28.572604-15.6315955 0-28.298783299999993-12.78624-28.298783299999993-28.572604 0-15.786364 12.667187799999999-28.572604 28.298783299999993-28.572604 15.619690299999998 0 28.2868781 12.78624 28.2868781 28.572604z" fill="#f44a6a"/><path d="M120.576389 0c-15.61969 0-28.2868777 12.7862403-28.2868777 28.5726041 0 15.7863638 12.6671877 28.5726042 28.2868777 28.5726042h107.147266c15.61969 0 28.274973-12.7862404 28.274973-28.5726042C255.998628 12.7862403 243.343345 0 227.71175 0H120.564484h.011905z" fill="url(#a)"/><path d="M120.576389 100.730335c-15.61969 0-28.2868777 12.798145-28.2868777 28.572604 0 15.786364 12.6671877 28.584509 28.2868777 28.584509h61.169184c15.61969 0 28.286878-12.798145 28.286878-28.572604 0-15.786364-12.667188-28.572604-28.286878-28.572604h-61.169184v-.011905z" fill="url(#b)"/></svg>