<svg width="256px" height="296px" viewBox="0 0 256 296" xmlns="http://www.w3.org/2000/svg" preserveAspectRatio="xMidYMid"><path d="M125.305643 214.373041l.934169 77.731189 1.679937 3.459406 127.678997-73.75047-72.305956-41.810658-55.373041 31.939812-2.614106 2.430721z" fill="#a3baf0"/><path d="M.240752351 221.813166 127.919749 295.563636v-83.541065l-55.2927898-31.939812v-63.879624l-2.4e-6-3.120064L4.9545453 74.3924765H.240752351V221.813166z" fill="#4474e1"/><path d="M2.96584007 75.9665017C13.2811402 81.9246739 50.3589941 103.34104 70.344363 114.884695c.7608654.43948 2.2825962 1.31844 2.2825962 1.31844l55.2927898-31.9398121 55.373041 31.9398121 72.305956-41.8106585L127.919749.64200627.240752351 74.3924765c0 0 .979234729.5656112 2.725087719 1.5740252z" fill="#c7d6f7"/></svg>