<svg width="256px" height="257px" viewBox="0 0 256 257" xmlns="http://www.w3.org/2000/svg" preserveAspectRatio="xMidYMid"><title>Commitizen</title><path d="M127.74902 194.258824c-36.17782 0-65.5058827-29.328063-65.5058827-65.505883 0-36.1778194 29.3280627-65.5058822 65.5058827-65.5058822 36.177819 0 65.505882 29.3280628 65.505882 65.5058822 0 36.17782-29.328063 65.505883-65.505882 65.505883z" fill="#3385ff"/><path d="M161.631373 229.898039c-1.663498 0-3.011765-1.348266-3.011765-3.011764 0-1.663499 1.348267-3.011765 3.011765-3.011765 1.663498 0 3.011764 1.348266 3.011764 3.011765 0 1.663498-1.348266 3.011764-3.011764 3.011764zm-5.019608-14.054902c-1.663498 0-3.011765-1.348266-3.011765-3.011764 0-1.663498 1.348267-3.011765 3.011765-3.011765 1.663498 0 3.011764 1.348267 3.011764 3.011765 0 1.663498-1.348266 3.011764-3.011764 3.011764zm15.560784-13.552941c-1.94058 0-3.513725-1.573145-3.513725-3.513725 0-1.940581 1.573145-3.513726 3.513725-3.513726 1.94058 0 3.513726 1.573145 3.513726 3.513726 0 1.94058-1.573146 3.513725-3.513726 3.513725zm31.372549-20.580392c-6.098823 0-11.043137-4.944314-11.043137-11.043137 0-6.098824 4.944314-11.043138 11.043137-11.043138 6.098824 0 11.043137 4.944314 11.043137 11.043138 0 6.098823-4.944313 11.043137-11.043137 11.043137zm-16.815686 19.07451c-4.71291 0-8.533334-3.820424-8.533334-8.533334 0-4.712909 3.820424-8.533333 8.533334-8.533333 4.71291 0 8.533333 3.820424 8.533333 8.533333 0 4.71291-3.820423 8.533334-8.533333 8.533334zm-16.062745 19.07451c-2.77233 0-5.019608-2.247279-5.019608-5.019608 0-2.77233 2.247278-5.019608 5.019608-5.019608 2.772329 0 5.019608 2.247278 5.019608 5.019608 0 2.772329-2.247279 5.019608-5.019608 5.019608zm-10.541177-11.043138c-2.495247 0-4.517647-2.0224-4.517647-4.517647 0-2.495247 2.0224-4.517647 4.517647-4.517647 2.495247 0 4.517647 2.0224 4.517647 4.517647 0 2.495247-2.0224 4.517647-4.517647 4.517647zm-12.047059 3.011765c-1.94058 0-3.513725-1.573145-3.513725-3.513726 0-1.94058 1.573145-3.513725 3.513725-3.513725 1.940581 0 3.513726 1.573145 3.513726 3.513725 0 1.940581-1.573145 3.513726-3.513726 3.513726zm-12.549019 3.011765c-2.77233 0-5.019608-2.247279-5.019608-5.019608 0-2.77233 2.247278-5.019608 5.019608-5.019608 2.772329 0 5.019608 2.247278 5.019608 5.019608 0 2.772329-2.247279 5.019608-5.019608 5.019608zm-30.870588 5.019608c-4.574369 0-8.2823534-3.707985-8.2823534-8.282353 0-4.574369 3.7079844-8.282353 8.2823534-8.282353 4.574368 0 8.282352 3.707984 8.282352 8.282353 0 4.574368-3.707984 8.282353-8.282352 8.282353zm-19.3254907-11.043138c-3.7426196 0-6.7764706-3.033851-6.7764706-6.77647 0-3.74262 3.033851-6.776471 6.7764706-6.776471 3.7426196 0 6.7764706 3.033851 6.7764706 6.776471 0 3.742619-3.033851 6.77647-6.7764706 6.77647zm-30.3686274-17.568627c-5.5446588 0-10.0392157-4.494557-10.0392157-10.039216 0-5.544659 4.4945569-10.039216 10.0392157-10.039216 5.5446588 0 10.0392157 4.494557 10.0392157 10.039216 0 5.544659-4.4945569 10.039216-10.0392157 10.039216zm-9.0352941-24.094118c-4.2969851 0-7.7803922-3.483608-7.7803922-7.780392 0-4.296784 3.4834071-7.780392 7.7803922-7.780392 4.2967843 0 7.7803921 3.483608 7.7803921 7.780392 0 4.296784-3.4836078 7.780392-7.7803921 7.780392zm-10.5411765 11.545098c-3.049462 0-5.5215686-2.472157-5.5215686-5.521568 0-3.049412 2.4721066-5.521569 5.5215686-5.521569 3.049462 0 5.5215686 2.472157 5.5215686 5.521569 0 3.049411-2.4721066 5.521568-5.5215686 5.521568zm-3.0117647-13.05098c-2.0791718 0-3.7647059-1.685584-3.7647059-3.764706 0-2.079122 1.6855341-3.764706 3.7647059-3.764706 2.0791718 0 3.7647059 1.685584 3.7647059 3.764706 0 2.079122-1.6855341 3.764706-3.7647059 3.764706zm-14.5568628 13.05098c-2.2178133 0-4.0156862-1.798023-4.0156862-4.015686 0-2.217663 1.7978729-4.015686 4.0156862-4.015686 2.2178134 0 4.0156863 1.798023 4.0156863 4.015686 0 2.217663-1.7978729 4.015686-4.0156863 4.015686zm-3.0117647 4.517647c-1.2475231 0-2.2588235-1.011451-2.2588235-2.258823 0-1.247373 1.0113004-2.258824 2.2588235-2.258824 1.2475232 0 2.2588236 1.011451 2.2588236 2.258824 0 1.247372-1.0113004 2.258823-2.2588236 2.258823zm-10.03921565-1.505882c-.83167372 0-1.50588235-.674133-1.50588235-1.505882 0-.831749.67420863-1.505883 1.50588235-1.505883.83169882 0 1.50588235.674134 1.50588235 1.505883 0 .831749-.67418353 1.505882-1.50588235 1.505882zm28.36078435-37.145098c-.6930573 0-1.254902-.561694-1.254902-1.254902 0-.693208.5618447-1.254902 1.254902-1.254902.6930572 0 1.2549019.561694 1.2549019 1.254902 0 .693208-.5618447 1.254902-1.2549019 1.254902zm-13.5529412-22.588235c-1.1088816 0-2.0078431-.899012-2.0078431-2.007844 0-1.108831.8989615-2.007843 2.0078431-2.007843 1.1088816 0 2.0078431.899012 2.0078431 2.007843 0 1.108832-.8989615 2.007844-2.0078431 2.007844zm-7.027451-3.011765c-1.6633474 0-3.0117647-1.348267-3.0117647-3.011765 0-1.663498 1.3484173-3.011765 3.0117647-3.011765 1.6633475 0 3.0117647 1.348267 3.0117647 3.011765 0 1.663498-1.3484172 3.011765-3.0117647 3.011765zm30.8705882 25.6c-2.772229 0-5.0196078-2.247279-5.0196078-5.019608 0-2.772329 2.2473788-5.019608 5.0196078-5.019608 2.7722291 0 5.0196079 2.247279 5.0196079 5.019608 0 2.772329-2.2473788 5.019608-5.0196079 5.019608zm-11.545098-8.031373c-2.4950463 0-4.5176471-2.0224-4.5176471-4.517647 0-2.495247 2.0226008-4.517647 4.5176471-4.517647 2.4950463 0 4.5176471 2.0224 4.5176471 4.517647 0 2.495247-2.0226008 4.517647-4.5176471 4.517647zm11.0431373-8.031372c-2.4950463 0-4.5176471-2.0224-4.5176471-4.517647 0-2.495247 2.0226008-4.517647 4.5176471-4.517647 2.4950462 0 4.517647 2.0224 4.517647 4.517647 0 2.495247-2.0226008 4.517647-4.517647 4.517647zm-12.0470589-6.02353c-2.2178133 0-4.0156862-1.798023-4.0156862-4.015686 0-2.217663 1.7978729-4.015686 4.0156862-4.015686 2.2178134 0 4.0156863 1.798023 4.0156863 4.015686 0 2.217663-1.7978729 4.015686-4.0156863 4.015686zm11.2941177-8.533333c-5.5445083 0-10.0392157-4.494557-10.0392157-10.039216 0-5.5446585 4.4947074-10.0392153 10.0392157-10.0392153 5.5445082 0 10.0392157 4.4945568 10.0392157 10.0392153 0 5.544659-4.4947075 10.039216-10.0392157 10.039216zm-21.082353.501961c-3.8811607 0-7.0274509-3.14629-7.0274509-7.027451 0-3.881161 3.1462902-7.027451 7.0274509-7.027451 3.8811608 0 7.027451 3.14629 7.027451 7.027451 0 3.881161-3.1462902 7.027451-7.027451 7.027451zm4.0156863-16.0627453c-3.3266949 0-6.0235294-2.6970353-6.0235294-6.0235294 0-3.3264941 2.6968345-6.0235294 6.0235294-6.0235294 3.3266949 0 6.0235294 2.6970353 6.0235294 6.0235294 0 3.3264941-2.6968345 6.0235294-6.0235294 6.0235294zM54.2117647 88.345098c-3.3264941 0-6.0235294-2.6970353-6.0235294-6.0235294 0-3.3264941 2.6970353-6.0235294 6.0235294-6.0235294 3.3264941 0 6.0235294 2.6970353 6.0235294 6.0235294 0 3.3264941-2.6970353 6.0235294-6.0235294 6.0235294zm14.5568628-16.0627451c-4.1582432 0-7.5294118-3.3711686-7.5294118-7.5294117 0-4.1582432 3.3711686-7.5294118 7.5294118-7.5294118 4.1582431 0 7.5294117 3.3711686 7.5294117 7.5294118 0 4.1582431-3.3711686 7.5294117-7.5294117 7.5294117zM83.827451 61.2392157c-3.0494118 0-5.5215686-2.4721569-5.5215686-5.5215686 0-3.0494118 2.4721568-5.5215687 5.5215686-5.5215687 3.0494117 0 5.5215686 2.4721569 5.5215686 5.5215687 0 3.0494117-2.4721569 5.5215686-5.5215686 5.5215686zm5.0196078-16.0627451c-1.9405804 0-3.5137255-1.5731451-3.5137255-3.5137255 0-1.9405804 1.5731451-3.5137255 3.5137255-3.5137255 1.9405804 0 3.5137255 1.5731451 3.5137255 3.5137255 0 1.9405804-1.5731451 3.5137255-3.5137255 3.5137255zm19.0745102-8.0313726c-1.940581 0-3.513726-1.5731451-3.513726-3.5137255 0-1.9405803 1.573145-3.5137254 3.513726-3.5137254 1.94058 0 3.513725 1.5731451 3.513725 3.5137254 0 1.9405804-1.573145 3.5137255-3.513725 3.5137255zm8.031372 13.0509804c-3.049412 0-5.521568-2.4721066-5.521568-5.5215686 0-3.049462 2.472156-5.5215686 5.521568-5.5215686 3.049412 0 5.521569 2.4721066 5.521569 5.5215686 0 3.049462-2.472157 5.5215686-5.521569 5.5215686zm6.52549-13.0509804c-3.88116 0-7.027451-3.1462902-7.027451-7.0274509 0-3.8811608 3.146291-7.027451 7.027451-7.027451 3.881161 0 7.027451 3.1462902 7.027451 7.027451 0 3.8811607-3.14629 7.0274509-7.027451 7.0274509zm7.027451 10.0392157c-2.495247 0-4.517647-2.0226008-4.517647-4.517647 0-2.4950463 2.0224-4.5176471 4.517647-4.5176471 2.495247 0 4.517647 2.0226008 4.517647 4.5176471 0 2.4950462-2.0224 4.517647-4.517647 4.517647zM149.584314 51.2c-5.544659 0-10.039216-4.4947075-10.039216-10.0392157 0-5.5445082 4.494557-10.0392157 10.039216-10.0392157 5.544659 0 10.039215 4.4947075 10.039215 10.0392157 0 5.5445082-4.494556 10.0392157-10.039215 10.0392157zm20.078431-8.5333333c-3.465537 0-6.27451-2.8091734-6.27451-6.2745098 0-3.4653365 2.808973-6.2745098 6.27451-6.2745098 3.465537 0 6.27451 2.8091733 6.27451 6.2745098 0 3.4653364-2.808973 6.2745098-6.27451 6.2745098zm2.509804 17.0666666c-3.74262 0-6.776471-3.0338509-6.776471-6.7764706 0-3.7425192 3.033851-6.7764705 6.776471-6.7764705 3.74262 0 6.776471 3.0339513 6.776471 6.7764705 0 3.7426197-3.033851 6.7764706-6.776471 6.7764706zm30.619608 28.6117647c-3.74262 0-6.776471-3.0338509-6.776471-6.7764705 0-3.7426197 3.033851-6.7764706 6.776471-6.7764706 3.742619 0 6.77647 3.0338509 6.77647 6.7764706 0 3.7426196-3.033851 6.7764705-6.77647 6.7764705zM192.25098 75.7960784c-2.495247 0-4.517647-2.0224-4.517647-4.517647 0-2.4952471 2.0224-4.5176471 4.517647-4.5176471 2.495247 0 4.517647 2.0224 4.517647 4.5176471 0 2.495247-2.0224 4.517647-4.517647 4.517647zm14.556863-6.5254902c-2.495247 0-4.517647-2.0224-4.517647-4.517647 0-2.4952471 2.0224-4.5176471 4.517647-4.5176471 2.495247 0 4.517647 2.0224 4.517647 4.5176471 0 2.495247-2.0224 4.517647-4.517647 4.517647zm-22.086274-3.0117647c-2.217663 0-4.015687-1.7980235-4.015687-4.0156862 0-2.2176628 1.798024-4.0156863 4.015687-4.0156863 2.217662 0 4.015686 1.7980235 4.015686 4.0156863 0 2.2176627-1.798024 4.0156862-4.015686 4.0156862zm34.635294 0c-1.663498 0-3.011765-1.3482666-3.011765-3.0117647 0-1.663498 1.348267-3.0117647 3.011765-3.0117647 1.663498 0 3.011764 1.3482667 3.011764 3.0117647 0 1.6634981-1.348266 3.0117647-3.011764 3.0117647zm-38.650981-22.5882353c-1.663498 0-3.011764-1.3484172-3.011764-3.0117647 0-1.6633474 1.348266-3.0117647 3.011764-3.0117647 1.663498 0 3.011765 1.3484173 3.011765 3.0117647 0 1.6633475-1.348267 3.0117647-3.011765 3.0117647zm-8.533333-14.5568627c-1.94058 0-3.513725-1.5731451-3.513725-3.5137255 0-1.9405804 1.573145-3.5137255 3.513725-3.5137255 1.94058 0 3.513726 1.5731451 3.513726 3.5137255 0 1.9405804-1.573146 3.5137255-3.513726 3.5137255zm39.152941-3.0117647c-2.495247 0-4.517647-2.0226008-4.517647-4.5176471 0-2.4950462 2.0224-4.517647 4.517647-4.517647 2.495247 0 4.517647 2.0226008 4.517647 4.517647 0 2.4950463-2.0224 4.5176471-4.517647 4.5176471zM179.701961 6.5254902c-1.802039 0-3.262745-1.46075608-3.262745-3.2627451C176.439216 1.46078118 177.899922 0 179.701961 0c1.802039 0 3.262745 1.46078118 3.262745 3.2627451 0 1.80198902-1.460706 3.2627451-3.262745 3.2627451zm16.564706 52.7058823c-1.108832 0-2.007843-.8990117-2.007843-2.0078431 0-1.1088314.899011-2.0078431 2.007843-2.0078431 1.108831 0 2.007843.8990117 2.007843 2.0078431 0 1.1088314-.899012 2.0078431-2.007843 2.0078431zm20.580392 21.082353c-2.77233 0-5.019608-2.2472784-5.019608-5.0196079 0-2.7723294 2.247278-5.0196078 5.019608-5.0196078 2.772329 0 5.019608 2.2472784 5.019608 5.0196078 0 2.7723295-2.247279 5.0196079-5.019608 5.0196079zM230.4 83.3254902c-2.495247 0-4.517647-2.0224-4.517647-4.5176471 0-2.495247 2.0224-4.517647 4.517647-4.517647 2.495247 0 4.517647 2.0224 4.517647 4.517647 0 2.4952471-2.0224 4.5176471-4.517647 4.5176471zm7.529412 21.0823528c-1.940581 0-3.513726-1.573145-3.513726-3.513725 0-1.9405807 1.573145-3.5137258 3.513726-3.5137258 1.94058 0 3.513725 1.5731451 3.513725 3.5137258 0 1.94058-1.573145 3.513725-3.513725 3.513725zm-28.109804 16.062745c-2.495247 0-4.517647-2.0224-4.517647-4.517647 0-2.495247 2.0224-4.517647 4.517647-4.517647 2.495247 0 4.517647 2.0224 4.517647 4.517647 0 2.495247-2.0224 4.517647-4.517647 4.517647zm16.062745 8.031373c-2.495247 0-4.517647-2.0224-4.517647-4.517647 0-2.495247 2.0224-4.517647 4.517647-4.517647 2.495247 0 4.517647 2.0224 4.517647 4.517647 0 2.495247-2.0224 4.517647-4.517647 4.517647zm-15.058824 8.031372c-2.91087 0-5.270588-2.359717-5.270588-5.270588 0-2.91087 2.359718-5.270588 5.270588-5.270588 2.910871 0 5.270589 2.359718 5.270589 5.270588 0 2.910871-2.359718 5.270588-5.270589 5.270588zm12.54902 2.007843c-2.079122 0-3.764706-1.685584-3.764706-3.764705 0-2.079122 1.685584-3.764706 3.764706-3.764706 2.079122 0 3.764706 1.685584 3.764706 3.764706 0 2.079121-1.685584 3.764705-3.764706 3.764705zm-15.058824 17.066667c-4.158243 0-7.529411-3.371168-7.529411-7.529412 0-4.158243 3.371168-7.529411 7.529411-7.529411 4.158244 0 7.529412 3.371168 7.529412 7.529411 0 4.158244-3.371168 7.529412-7.529412 7.529412zm27.105883 13.050981c-2.495247 0-4.517647-2.0224-4.517647-4.517648 0-2.495247 2.0224-4.517647 4.517647-4.517647 2.495247 0 4.517647 2.0224 4.517647 4.517647 0 2.495248-2.0224 4.517648-4.517647 4.517648zm-12.54902-22.086275c-1.663498 0-3.011764-1.348267-3.011764-3.011765 0-1.663498 1.348266-3.011764 3.011764-3.011764 1.663498 0 3.011765 1.348266 3.011765 3.011764 0 1.663498-1.348267 3.011765-3.011765 3.011765zm15.058824 3.011765c-1.108832 0-2.007843-.899012-2.007843-2.007843 0-1.108832.899011-2.007844 2.007843-2.007844 1.108831 0 2.007843.899012 2.007843 2.007844 0 1.108831-.899012 2.007843-2.007843 2.007843zm-5.019608-14.556863c-1.108831 0-2.007843-.899012-2.007843-2.007843 0-1.108832.899012-2.007843 2.007843-2.007843 1.108831 0 2.007843.899011 2.007843 2.007843 0 1.108831-.899012 2.007843-2.007843 2.007843zM113.443137 18.0705882c-2.495247 0-4.517647-2.0226007-4.517647-4.517647 0-2.4950463 2.0224-4.51764708 4.517647-4.51764708 2.495247 0 4.517647 2.02260078 4.517647 4.51764708 0 2.4950463-2.0224 4.517647-4.517647 4.517647zm-4.015686 8.0313726c-1.108831 0-2.007843-.8989616-2.007843-2.0078432 0-1.1088815.899012-2.0078431 2.007843-2.0078431 1.108831 0 2.007843.8989616 2.007843 2.0078431 0 1.1088816-.899012 2.0078432-2.007843 2.0078432zm25.6 8.0313725c-1.108831 0-2.007843-.8989615-2.007843-2.0078431 0-1.1088816.899012-2.0078431 2.007843-2.0078431 1.108831 0 2.007843.8989615 2.007843 2.0078431 0 1.1088816-.899012 2.0078431-2.007843 2.0078431zm10.541176-7.0274509c-2.495247 0-4.517647-2.0226008-4.517647-4.5176471 0-2.4950463 2.0224-4.5176471 4.517647-4.5176471 2.495248 0 4.517648 2.0226008 4.517648 4.5176471 0 2.4950463-2.0224 4.5176471-4.517648 4.5176471zM37.6470588 85.3333333c-2.4950463 0-4.517647-2.0224-4.517647-4.517647 0-2.4952471 2.0226007-4.5176471 4.517647-4.5176471 2.4950463 0 4.5176471 2.0224 4.5176471 4.5176471 0 2.495247-2.0226008 4.517647-4.5176471 4.517647zM47.6862745 58.227451c-1.6633474 0-3.0117647-1.3482667-3.0117647-3.0117647 0-1.6634981 1.3484173-3.0117647 3.0117647-3.0117647 1.663498 0 3.0117647 1.3482666 3.0117647 3.0117647 0 1.663498-1.3482667 3.0117647-3.0117647 3.0117647zm15.0588235-5.0196079c-1.1088313 0-2.0078431-.8990117-2.0078431-2.0078431 0-1.1088816.8990118-2.0078431 2.0078431-2.0078431 1.1088314 0 2.0078432.8989615 2.0078432 2.0078431 0 1.1088314-.8990118 2.0078431-2.0078432 2.0078431zm9.0352942 0c-1.6634981 0-3.0117647-1.3482666-3.0117647-3.0117647 0-1.6633474 1.3482666-3.0117647 3.0117647-3.0117647 1.663498 0 3.0117647 1.3484173 3.0117647 3.0117647 0 1.6634981-1.3482667 3.0117647-3.0117647 3.0117647zM55.7176471 71.2784314c-.8317491 0-1.5058824-.6741334-1.5058824-1.5058824 0-.831749.6741333-1.5058823 1.5058824-1.5058823.831749 0 1.5058823.6741333 1.5058823 1.5058823 0 .831749-.6741333 1.5058824-1.5058823 1.5058824zm-10.5411765 3.0117647c-1.1088816 0-2.0078431-.8990118-2.0078431-2.0078432 0-1.1088313.8989615-2.0078431 2.0078431-2.0078431 1.1088816 0 2.0078431.8990118 2.0078431 2.0078431 0 1.1088314-.8989615 2.0078432-2.0078431 2.0078432zm9.0352941-45.1764706c-1.663498 0-3.0117647-1.3484173-3.0117647-3.0117647 0-1.6633475 1.3482667-3.0117647 3.0117647-3.0117647 1.663498 0 3.0117647 1.3484172 3.0117647 3.0117647 0 1.6633474-1.3482667 3.0117647-3.0117647 3.0117647zM7.52941176 37.145098c-.83169882 0-1.50588235-.6741835-1.50588235-1.5058823 0-.8316988.67418353-1.5058824 1.50588235-1.5058824.83169883 0 1.50588236.6741836 1.50588236 1.5058824 0 .8316988-.67418353 1.5058823-1.50588236 1.5058823zM26.6039216 83.3254902c-2.4950463 0-4.5176471-2.0224-4.5176471-4.5176471 0-2.495247 2.0226008-4.517647 4.5176471-4.517647 2.4950462 0 4.517647 2.0224 4.517647 4.517647 0 2.4952471-2.0226008 4.5176471-4.517647 4.5176471zM4.51764706 96.3764706C2.02262086 96.3764706 0 94.3540706 0 91.8588235c0-2.495247 2.02262086-4.517647 4.51764706-4.517647 2.49504627 0 4.51764706 2.0224 4.51764706 4.517647 0 2.4952471-2.02260079 4.5176471-4.51764706 4.5176471zM87.8431373 219.858824c-2.4952471 0-4.5176471-2.0224-4.5176471-4.517648 0-2.495247 2.0224-4.517647 4.5176471-4.517647 2.495247 0 4.517647 2.0224 4.517647 4.517647 0 2.495248-2.0224 4.517648-4.517647 4.517648zm-13.0509804-3.011765c-2.4952471 0-4.5176471-2.0224-4.5176471-4.517647 0-2.495247 2.0224-4.517647 4.5176471-4.517647 2.495247 0 4.517647 2.0224 4.517647 4.517647 0 2.495247-2.0224 4.517647-4.517647 4.517647zm12.0470588 14.054902c-1.9405804 0-3.5137255-1.573145-3.5137255-3.513726 0-1.94058 1.5731451-3.513725 3.5137255-3.513725 1.9405804 0 3.5137255 1.573145 3.5137255 3.513725 0 1.940581-1.5731451 3.513726-3.5137255 3.513726zm-10.5411765-4.015686c-1.663498 0-3.0117647-1.348267-3.0117647-3.011765 0-1.663498 1.3482667-3.011765 3.0117647-3.011765 1.6634981 0 3.0117647 1.348267 3.0117647 3.011765 0 1.663498-1.3482666 3.011765-3.0117647 3.011765zm-8.5333333-2.007844c-1.1088314 0-2.0078432-.899011-2.0078432-2.007843 0-1.108831.8990118-2.007843 2.0078432-2.007843 1.1088314 0 2.0078431.899012 2.0078431 2.007843 0 1.108832-.8990117 2.007843-2.0078431 2.007843zm28.6117647 2.007844c-1.1088314 0-2.0078431-.899012-2.0078431-2.007844 0-1.108831.8990117-2.007843 2.0078431-2.007843 1.1088314 0 2.0078431.899012 2.0078431 2.007843 0 1.108832-.8990117 2.007844-2.0078431 2.007844zm-39.654902-8.031373c-2.2176627 0-4.0156862-1.798024-4.0156862-4.015686 0-2.217663 1.7980235-4.015687 4.0156862-4.015687 2.2176628 0 4.0156863 1.798024 4.0156863 4.015687 0 2.217662-1.7980235 4.015686-4.0156863 4.015686zm65.7568624-8.031373c-1.108831 0-2.007843-.899011-2.007843-2.007843 0-1.108831.899012-2.007843 2.007843-2.007843 1.108832 0 2.007844.899012 2.007844 2.007843 0 1.108832-.899012 2.007843-2.007844 2.007843zm-5.019607 13.050981c-1.108832 0-2.007844-.899012-2.007844-2.007843 0-1.108832.899012-2.007843 2.007844-2.007843 1.108831 0 2.007843.899011 2.007843 2.007843 0 1.108831-.899012 2.007843-2.007843 2.007843zm64.25098 9.035294c-1.94058 0-3.513726-1.573145-3.513726-3.513726 0-1.94058 1.573146-3.513725 3.513726-3.513725 1.94058 0 3.513725 1.573145 3.513725 3.513725 0 1.940581-1.573145 3.513726-3.513725 3.513726zm24.847059-38.65098c-2.356204 0-4.266667-1.910463-4.266667-4.266667 0-2.356204 1.910463-4.266667 4.266667-4.266667 2.356204 0 4.266666 1.910463 4.266666 4.266667 0 2.356204-1.910462 4.266667-4.266666 4.266667zm-7.027451 8.533333c-1.108832 0-2.007843-.899012-2.007843-2.007843 0-1.108832.899011-2.007843 2.007843-2.007843 1.108831 0 2.007843.899011 2.007843 2.007843 0 1.108831-.899012 2.007843-2.007843 2.007843zm43.419608 1.003921c-1.108832 0-2.007844-.899011-2.007844-2.007843 0-1.108831.899012-2.007843 2.007844-2.007843 1.108831 0 2.007843.899012 2.007843 2.007843 0 1.108832-.899012 2.007843-2.007843 2.007843zm-23.592157-17.066666c-2.495247 0-4.517647-2.0224-4.517647-4.517647 0-2.495247 2.0224-4.517647 4.517647-4.517647 2.495247 0 4.517647 2.0224 4.517647 4.517647 0 2.495247-2.0224 4.517647-4.517647 4.517647zm2.509804 14.054902c-2.77233 0-5.019608-2.247279-5.019608-5.019608 0-2.77233 2.247278-5.019608 5.019608-5.019608 2.772329 0 5.019608 2.247278 5.019608 5.019608 0 2.772329-2.247279 5.019608-5.019608 5.019608zm-1.505883-25.6c-2.079121 0-3.764706-1.685585-3.764706-3.764706 0-2.079122 1.685585-3.764706 3.764706-3.764706 2.079122 0 3.764706 1.685584 3.764706 3.764706 0 2.079121-1.685584 3.764706-3.764706 3.764706zm15.058824 41.662745c-2.495247 0-4.517647-2.0224-4.517647-4.517647 0-2.495247 2.0224-4.517647 4.517647-4.517647 2.495247 0 4.517647 2.0224 4.517647 4.517647 0 2.495247-2.0224 4.517647-4.517647 4.517647zM128.501961 242.94902c-1.108832 0-2.007843-.899012-2.007843-2.007844 0-1.108831.899011-2.007843 2.007843-2.007843 1.108831 0 2.007843.899012 2.007843 2.007843 0 1.108832-.899012 2.007844-2.007843 2.007844zm-20.580392 14.054902c-1.108832 0-2.007844-.899012-2.007844-2.007844 0-1.108831.899012-2.007843 2.007844-2.007843 1.108831 0 2.007843.899012 2.007843 2.007843 0 1.108832-.899012 2.007844-2.007843 2.007844zm-38.6509808-13.050981c-1.1088313 0-2.0078431-.899012-2.0078431-2.007843 0-1.108831.8990118-2.007843 2.0078431-2.007843 1.1088314 0 2.0078432.899012 2.0078432 2.007843 0 1.108831-.8990118 2.007843-2.0078432 2.007843zM250.980392 117.458824c-1.108831 0-2.007843-.899012-2.007843-2.007844 0-1.108831.899012-2.007843 2.007843-2.007843 1.108832 0 2.007843.899012 2.007843 2.007843 0 1.108832-.899011 2.007844-2.007843 2.007844zm4.015686-79.3098044c-.554666 0-1.003921-.4494557-1.003921-1.0039216 0-.5544658.449255-1.0039215 1.003921-1.0039215.554667 0 1.003922.4494557 1.003922 1.0039215 0 .5544659-.449255 1.0039216-1.003922 1.0039216z" fill="#99c9ff"/><path d="M170.682729 157.114227c0 0-13.686462-12.194133-14.352062-13.133803 2.474666-4.631091 3.794823-9.822369 3.794823-15.227483 0-5.290165-1.264439-10.376031-3.638212-14.931325 1.095781-1.235326 5.803671-5.748455 14.123169-13.538887 5.569255 8.370698 8.589553 18.207624 8.589553 28.470212 0 10.217412-2.993694 20.013679-8.517271 28.361286zm-13.963043-70.8858976c0 0-11.532549 12.762353-13.16091 14.2617096-4.774149-2.6789645-10.175749-4.1135684-15.809756-4.1135684-17.880847 0-32.376471 14.4956234-32.376471 32.3764704 0 17.880847 14.495624 32.376471 32.376471 32.376471 5.474886 0 10.730415-1.354792 15.404674-3.890196 1.317647 1.220768 5.778071 5.941709 13.381271 14.163325-8.435953 5.702777-18.392345 8.801381-28.785945 8.801381-28.4154984 0-51.4509808-23.035483-51.4509808-51.450981 0-28.415498 23.0354824-51.4509802 51.4509808-51.4509802 10.470902 0 20.497066 3.1447843 28.970666 8.9263686z" fill="#fff"/></svg>