<svg width="256" height="286" xmlns="http://www.w3.org/2000/svg" preserveAspectRatio="xMidYMid"><path d="M126.936 0a31.937 31.937 0 0115.165 4.126L238.728 58.7a35.72 35.72 0 0110.15 8.581l.096-.057 1.44 2.112.169.242 1.798 2.65-.128.077c2.386 4.347 3.699 9.091 3.747 13.917v110.94a31.935 31.935 0 01-15.702 27.8l-95.579 56.395a31.809 31.809 0 01-12.968 4.256l-.001.142-6.113.05.003-.152a31.956 31.956 0 01-12.846-3.998L11.27 224.309C4.372 220.426.08 213.148 0 205.196V87.707c.057-4.144.779-8.143 2.146-11.821l-.114-.065 2.616-5.467.148.082a28.438 28.438 0 019.8-9.62l95.58-56.383A31.9 31.9 0 01126.099 0h.838zM7.5 78.882l-.214.68c-.85 2.815-1.271 5.856-1.239 9.026v116.578a16.1 16.1 0 008.193 13.876l101.528 57.348a25.899 25.899 0 009.756 3.173l.211.02.024-4.932.02-20.686-.032-23.482-.137-.013a20.516 20.516 0 01-6.062-1.781l-.714-.353-.631-.343-61.507-34.74a14.6 14.6 0 01-5.403-5.298 14.651 14.651 0 01-2.03-7.318l.001-70.615c-.022-2.247.26-4.437.84-6.502l.197-.66L7.5 78.881zm239.558-3.473l-42.2 25.203.093.193c1.042 2.248 1.651 4.641 1.767 7.085l.019.668-.002 67.2a20.527 20.527 0 01-10.098 17.88L138.735 227.8a20.36 20.36 0 01-6.442 2.45l-.497.089.01 4.778.02 27.678-.04 16.256-.006.47.904-.128a25.744 25.744 0 008.262-2.845l.7-.398 95.58-56.394a25.888 25.888 0 009.381-9.563 25.915 25.915 0 003.344-13.002l.002-110.94c-.034-3.428-.898-6.853-2.496-10.072l-.4-.77zM124 86.585c-.914.27-1.794.652-2.615 1.136l-38.813 22.896a10.31 10.31 0 00-2.921 2.573c-.314.405-.595.831-.847 1.274-.125.224-.244.449-.356.68l-.209.52a12.604 12.604 0 00-.93 3.672c-.045.494-.068.994-.063 1.5v47.356a7.802 7.802 0 001.079 3.876 7.743 7.743 0 002.872 2.814l41.23 23.289a11.728 11.728 0 005.865 1.516l.44-.017.003 12.75.028 12.164-.03-24.916a11.684 11.684 0 005.433-1.607l38.813-22.9a11.742 11.742 0 004.255-4.336c.163-.288.307-.584.445-.886a11.766 11.766 0 001.072-5l.001-45.06a10.194 10.194 0 00-.317-2.408 10.786 10.786 0 00-.511-1.53 11.556 11.556 0 00-.801-1.568l-.177-.284-.183-.28a12.881 12.881 0 00-.916-1.19 13.334 13.334 0 00-3.486-2.85l-39.239-22.16A11.682 11.682 0 00124 86.585zm2.157-80.54A25.857 25.857 0 00113.25 9.64L17.67 66.022a22.357 22.357 0 00-7.178 6.739l-.416.635 42.9 24.02.445-.607a18.368 18.368 0 014.708-4.321l.564-.346 57.903-34.16a20.515 20.515 0 0120.533-.199l58.539 33.066a22.812 22.812 0 015.442 4.287l.394.435 42.116-25.154-.463-.527a29.758 29.758 0 00-6.716-5.525l-.687-.402-96.626-54.572a25.852 25.852 0 00-12.97-3.345z" fill="#4285F4"/></svg>