<svg width="256px" height="148px" viewBox="0 0 256 148" xmlns="http://www.w3.org/2000/svg" preserveAspectRatio="xMidYMid"><title>Compose</title><g style="fill:#038dc8"><path d="M202.368 29.568h-.128L152.576.64l-49.024 28.544L53.248 0 0 30.976v56.32L102.784 147.2l49.152-28.416 50.432 29.184L256 116.992v-56.32l-53.632-31.104zm-.256 57.728L160 62.848l42.496-24.832 42.112 24.704-42.496 24.576h0zM102.4 37.632l42.496 24.576-41.984 24.448-42.368-24.704 41.856-24.32h0zm92.416-3.84-41.6 24.192-42.368-24.576 41.728-24.32 42.24 24.704zm-99.2-.768-8.576 4.992L52.352 57.6 11.008 33.024 53.376 8.448l42.24 24.576zM7.424 39.168l41.6 25.088v44.288L7.424 83.2V39.168zm49.92 29.44 41.6 24.704v44.16l-41.6-24.704v-44.16zm98.944.512 42.368 24.96v43.776l-42.368-25.216V69.12h0z"/><g opacity="0.5" transform="translate(7.424 39.168)"><path d="M49.92 73.728l41.6 24.448V54.144L49.92 29.44z"/><path d="M0 43.904l41.6 25.344v-44.16L0 0z"/><path d="M148.864 73.6l42.368 25.216V54.912l-42.368-24.96z"/></g></g></svg>