<svg width="256px" height="256px" viewBox="0 0 256 256" xmlns="http://www.w3.org/2000/svg" preserveAspectRatio="xMidYMid"><defs><path id="a" d="M255.774254 0c-3.374363 68.4647791-13.363559 131.708591-40.029726 191.254384-20.46801 45.705435-67.265449 69.495391-120.0412181 62.801407-43.3791101-5.501589-83.159032-42.606609-92.84346605-86.600351C-7.94571431 118.366562 12.3304449 67.0117363 55.8774239 44.6588453 117.3484 13.1043487 184.550898 4.1254431 255.774254 0"/></defs><g style="fill:#fff"><mask id="b"><use href="#a"/></mask><use href="#a"/></g><g mask="url(#b)"><path d="M113.789102 76.0935034c0 0-5.893396 32.6570116-8.238563 49.2037236-11.9366748-9.303469-35.5592197-26.2296693-35.5592197-26.2296693 0 0 18.5325214 24.9234283 27.2836846 36.0554343-16.6250117 1.884461-49.9509758 7.073472-49.9509758 7.073472 0 0 34.0833724 5.481616 49.9559719 7.316145-9.205808 11.657298-27.3736144 35.291463-27.3736144 35.291463 0 0 24.6807182-17.048036 35.7710544-25.593526 2.262232 15.859637 8.111662 49.638138 8.111662 49.638138 0 0 5.35082-33.750538 7.384231-50.198383 10.964434 8.545489 34.114348 26.395446 34.114348 26.395446 0 0-16.1274-24.141482-24.958501-35.544123 16.041468-1.883463 48.637003-7.30516 48.637003-7.30516 0 0-32.913287-5.241939-48.521093-7.046509 8.077689-10.947254 24.99747-36.0953798 24.99747-36.0953798 0 0-23.710476 18.3882318-34.29021 26.8568248-1.957471-16.341988-7.363248-49.8178966-7.363248-49.8178966M255.800156.461378531C252.425792 68.9261577 242.436596 132.169969 215.770429 191.715762c-20.468009 45.705436-67.265449 69.495391-120.0412174 62.801408-43.3791101-5.50159-83.1590321-42.60661-92.84346609-86.600351C-7.91981265 118.827941 12.3563466 67.4731149 55.9033255 45.1202238 117.374301 13.5657272 184.576799 4.58682163 255.800156.461378531" fill="#e21708"/><g style="fill-opacity:0.3"><path d="M6.19516003 103.901047C10.0871194 92.4394856 15.7756753 81.7349045 23.1319282 72.3046069c2.7778298-3.4203927 5.8654176-6.8367909 9.2957377-10.3600452 3.0306323-2.9380425 6.2391257-5.676354 9.643466-8.2149346 3.124559-2.2789303 6.5688681-4.5189131 10.2649805-6.6989766 1.1710851-.6631068 2.3601561-1.3052418 3.5672131-1.9244078 14.8833724-7.6397095 30.100484-13.9562013 45.6323495-19.2011364 40.264544-13.5946882 82.622451-19.98907509 126.64306-23.55926611 10.860516-.82788485 20.260172-1.373150386 27.621421-1.884461659C180.863653 16.6232719 141.051378 32.5257029 92.5649685 53.7296266 44.0785589 74.9335503 2.68726221 120.999892.492615144 134.190248c1.290991416-11.933925 3.101576896-21.743712 5.702544886-30.289201z" fill="#fa524a"/><path d="M97.01121 259.081814c-4.7073224-.599193-9.5905074-1.511963-14.5336456-2.836179-18.2137705-5.251926-37.2459016-16.483797-52.4330367-32.869725-13.2266667-14.420576-22.98604214-32.096767-27.15878219-51.051235-1.951475409-8.866058-2.88874316808-17.808013-2.8587665873-26.637121C.570554254 225.661831 94.0206321 238.023534 119.012108 238.024217c39.670702.001085 39.175308-7.900397 100.790171-51.235026-1.303981 3.13278-2.644933 6.238597-4.03185 9.334427-14.427728 32.217603-41.942232 53.545875-75.407088 60.983856-8.783138 1.944381-17.86804 2.93205-27.22573 2.93205-5.295862 0-10.676659-.316573-16.126401-.95771z" fill="#ae0e10"/></g></g></svg>