<svg width="256px" height="286px" viewBox="0 0 256 286" xmlns="http://www.w3.org/2000/svg" preserveAspectRatio="xMidYMid"><title>Compose Multiplatform</title><path d="M126.936447 0c5.312221.0898888717 10.525259 1.50609469 15.164891 4.12642434l96.626926 54.57326596c3.892829 2.2010487 7.365499 5.1392304 10.150269 8.5813843l.095264-.0575155 1.439495 2.1123453.169644.2421861 1.797919 2.6502836-.127854.0769655c2.386377 4.3462556 3.698736 9.0908127 3.746999 13.9164529V197.16289c.050677 5.602143-1.372149 11.120475-4.127929 16.003354-2.756036 4.879917-6.747501 8.948484-11.573987 11.797344l-95.578604 56.393086c-3.983488 2.354233-8.406947 3.791413-12.968957 4.256443l-6.14e-4.141716-6.113275.049307.003829-.151189c-4.50463-.404727-8.885444-1.762716-12.846074-3.997923L11.2694511 224.308536C4.37243872 220.425938.0790250697 213.147718 0 205.195715V87.7070848c.0569097513-4.1444127.77879485-8.143583 2.14601289-11.8215026l-.1139847-.0650363 2.61637612-5.4660544.14800064.0816361c2.43459324-3.9457722 5.73582545-7.2186631 9.79986195-9.6200684L110.17659 4.43345785C115.000734 1.58291522 120.492161.0539760447 126.097959 0h.838488zM7.49945182 78.8820889l-.21423296.6796002c-.85116836 2.8150928-1.27131184 5.8563027-1.23924386 9.0260998L6.04582517 205.165618c.05737428 5.762436 3.17859997 11.053557 8.19331073 13.876537l101.5277701 57.348089c3.017239 1.702798 6.335819 2.777656 9.755755 3.172829l.211823.020258.023541-4.932048.020806-20.686588-.03302-23.48131-.136412-.013314c-2.097669-.276666-4.142723-.876683-6.062213-1.781104l-.713781-.35339-.631631-.342266-61.5067025-34.741142c-2.236097-1.261106-4.0995744-3.087912-5.4032751-5.297388-1.3034007-2.20677-2.0023028-4.720335-2.028878-7.318113l1.463e-4-70.614819c-.0221034-2.246744.2603187-4.436549.8408707-6.501528l.1963231-.660927L7.49945182 78.8820889zM247.057049 75.4090975l-42.199684 25.2029045.092934.192709c1.041811 2.2481 1.650987 4.641336 1.766258 7.085433l.019146.667762-.001886 67.200586c.034798 3.604655-.88047 7.15499-2.653476 10.292004-1.771936 3.138741-4.339802 5.755939-7.444128 7.58743l-57.901339 34.163272c-2.0032 1.184197-4.181143 2.006067-6.442237 2.450153l-.496474.088255.009131 4.778503.021322 27.678224-.040755 16.255781-.005402.470147.903161-.128503c2.887005-.47035 5.680475-1.425936 8.26272-2.844728l.698923-.398411 95.580037-56.393932c3.912301-2.309257 7.14808-5.60754 9.381918-9.562839 2.234121-3.958568 3.387544-8.43204 3.343683-13.0019l.001889-110.9407598c-.033385-3.4274755-.897704-6.8518116-2.495408-10.0713573l-.400333-.7707334zM124.000068 86.5846779c-.914312.2704549-1.793726.6525815-2.61556 1.1359105L82.5716168 110.616774c-1.128931.664796-2.1200172 1.538976-2.9209126 2.573684-.3140767.40481-.5950007.830558-.846262 1.273755-.1256307.223343-.2442819.448432-.3559536.680499l-.2093844.519972c-.483329 1.149869-.8043851 2.380002-.9300158 3.671206-.0453666.493799-.0680499.994576-.0635558 1.500589v47.355775c.0146995 1.362744.3863568 2.699314 1.0790703 3.875357.6927134 1.174297 1.6837996 2.14619 2.8720562 2.814475l41.2295359 23.288782c1.788492 1.010279 3.812542 1.533741 5.866254 1.516292l.439707-.017449.002367 12.750077.028168 12.164191-.02879-24.916013c1.914122-.082009 3.779389-.633388 5.431781-1.607025l38.812891-22.899676c1.774533-1.046922 3.241969-2.542276 4.255738-4.336002.162273-.287904.307097-.584532.444942-.886394.718886-1.568638 1.085309-3.273376 1.07135-4.999053l.001745-45.061271c-.008724-.820089-.118651-1.626219-.317566-2.407921-.130866-.521716-.303608-1.032963-.511247-1.530251-.102948-.247772-.216364-.492053-.33676-.732845-.143079-.284414-.300118-.561849-.464136-.834048l-.176668-.284632-.182775-.280706c-.282669-.413534-.588021-.811365-.916057-1.188257-.991086-1.141145-2.170618-2.104313-3.48625-2.851118l-39.23864-22.1598503c-1.570383-.8881389-3.323977-1.4011307-5.126428-1.5005883-1.348785-.0732845-2.701059.0872435-3.995753.4763495zm2.157142-80.53899333c-4.544879.04376105-8.995515 1.28292022-12.906842 3.59408701L17.6700459 66.0223719c-2.9087458 1.7187541-5.3168735 3.9963861-7.1780198 6.7384615l-.4162588.634684 42.8993771 24.0198822.4463412-.6063693c1.2963763-1.6924559 2.8745505-3.1494294 4.7077494-4.32102l.5632933-.3462407 57.9031727-34.1598349c3.102905-1.8339069 6.635067-2.8179788 10.240263-2.8527622 3.604654-.0347979 7.15499.8804698 10.292619 2.6538234l58.53939 33.0657082c2.016598 1.1398164 3.857054 2.5894673 5.442104 4.2873805l.393648.4349873 42.11593-25.1540478-.462341-.5267452c-1.938171-2.1449135-4.214997-4.0208661-6.715978-5.5257656l-.687558-.4011508-96.625649-54.57254433c-3.959628-2.23628303-8.432649-3.39039144-12.970919-3.3451336z" fill="#4285f4"/></svg>