<svg width="241px" height="256px" viewBox="0 0 241 256" xmlns="http://www.w3.org/2000/svg" preserveAspectRatio="xMidYMid"><path fill="#afd4e5" d="M118.874 0 0 56.984l118.874 72.557 121.404-66.093z"/><path fill="#69c" d="M2e-4 170.5869l118.874 85.413v-126.459L2e-4 56.9849z"/><path fill="#7da7d3" d="M118.874 129.5406v126.459l121.404-79.019V63.4486z"/><path fill="#369" d="M184.5564 213.2489l2.831-1.843-2.4-117.857-2.143 1.166z"/><path d="M161.9109 77.054l30.501-16.468c0 0-45.969-50.157-100.11-21.033-25.471 13.702-33.062 27.473-21.786 42.177 18.662 24.338 41.171 21.606 41.171 21.606l29.353-14.286c0 0-31.876 4.205-45.356-6.959-11.057-9.159-6.414-20.817 8.845-31.44 13.388-9.321 40.036-5.565 49.479 1.564 9.442 7.127 13.111 17.095 7.903 24.839" fill="#69c"/></svg>