<svg width="256px" height="256px" viewBox="0 0 256 256" xmlns="http://www.w3.org/2000/svg" preserveAspectRatio="xMidYMid"><title>ConcreteCMS</title><path d="M20.8979592 0H235.102041C246.595918 0 256 9.40408163 256 20.8979592V235.102041C256 246.595918 246.595918 256 235.102041 256H20.8979592C9.40408163 256 0 246.595918 0 235.102041V20.8979592C0 9.40408163 9.40408163 0 20.8979592 0z" fill="#181819"/><path d="M154.122449 213.206465c-7.314286 3.918368-16.718367 6.269388-22.204082 6.791837-21.942857 1.828571-43.8857139-3.918367-59.0367343-18.546939-14.889796-15.673469-18.0244898-36.571428-4.4408164-53.812245 12.5387755-15.934694 32.9142857-22.987755 54.0734697-23.771428 11.755102-.522449 51.461224 4.179592 39.706122 23.248979-9.404081 15.67347-35.265306 0-50.155102 4.963266-16.7183672 5.485714-21.420408 27.689796-5.746939 37.093877 11.493878 6.791837 27.951021 6.269388 38.922449-.783673 15.67347-10.187755 44.930613-57.991837 63.738776-35.265306 3.657143 4.70204-40.489796 52.244898-54.857143 60.081632M43.8857143 89.3860571c-1.567347-7.8367347.522449-16.7183673 8.3591837-15.6734693 6.7918367 1.0448979 9.1428571 10.710204 10.4489796 17.5020408 1.0448979 5.7469387 15.1510204 46.4979594 7.8367346 45.1918364-7.0530612-1.567347-25.077551-38.9224487-26.6448979-47.0204079m37.6163265-45.7142857c10.4489796-8.8816326 15.4122449 6.2693878 16.7183674 13.844898 1.0448979 7.3142857 14.3673468 62.6938776.2612245 61.6489796-10.7102041-.783673-18.0244898-47.8040817-18.8081633-55.1183674-1.044898-5.7469387-3.3959184-15.9346938 1.8285714-20.3755102M135.314286 27.998302c8.881632 1.8285715 6.530612 20.1142858 6.269387 26.9061225 0 7.3142857.783674 61.9102045-10.710204 60.3428575-11.755102-1.828572-8.881632-55.9020412-9.404081-64.5224493.261224-8.8816327 1.567347-25.0775511 13.844898-22.7265307m27.167347 39.1836735c1.044898-5.4857143 2.089796-15.6734694 8.359183-18.0244898 12.277551-4.9632653 12.016327 10.4489796 10.710204 17.7632653-1.567347 7.0530612-10.971428 62.171429-23.510204 56.946939-9.404081-3.918368 2.87347-49.6326533 4.440817-56.6857145" fill="#fff"/></svg>