<svg width="512px" height="106px" viewBox="0 0 512 106" xmlns="http://www.w3.org/2000/svg" preserveAspectRatio="xMidYMid"><title>conda</title><path d="M14.6204054 51.9000995c4.761477-2.7378493 9.0468064-3.213997 10.5942864-3.333034.2380739-1.7855539.5951847-3.4520708 1.0713324-5.1185877-1.5474801-1.1903694-4.5234033-3.5711079-7.2612526-7.1422157 4.4043663-.3571108 8.213548.2380738 10.1181388.5951847.9522954-1.6665171 2.1426647-3.2139971 3.5711078-4.7614771-.8332586-1.4284431-2.3807385-4.2853293-3.333034-8.2135479 3.5711079 1.5474801 6.1899202 3.4520708 7.4993263 4.5234031 1.785554-1.3094062 3.6901449-2.3807385 5.5947357-3.3330338 0-1.6665171 0-4.6424402.7142214-8.213548 2.4997756 2.6188124 4.0472556 5.1185879 4.6424403 6.427994 2.3807385-.4761476 4.880514-.7142215 7.4993264-.5951845.4761476-1.3094062 1.4284431-3.5711078 3.09496-6.3089572 1.1903692 3.0949601 1.6665169 5.5947356 1.9045909 6.9041417 2.6188124.5951847 5.1185877 1.4284431 7.4993263 2.6188124 3.8091816-3.2139969 7.3802894-4.6424401 11.5465818-5.7137724 0-5.2376248-.7142215-10.35621261-3.4520708-15.47480048-2.7378492-1.3094062-5.7137725-2.26170161-8.6896957-2.97592317-3.0949601 1.66651697-5.5947354 3.57110779-7.7374001 5.59473554-1.54748-2.38073853-3.5711079-4.88051398-6.0708834-7.142215582-1.1903692 0-3.4520708-.119036925-7.856437.595184637-2.1426648 2.737849305-3.6901447 5.475698615-4.8805141 8.213547925-2.6188123-1.66651698-5.8328093-3.09496009-9.522954-4.04725551-2.1426647.95229542-4.1662925 2.02362775-6.1899202 3.21399703-.7142216 3.45207091-.9522954 6.66606791-.8332585 9.64199111-3.0949601-.5951848-6.6660679-.8332586-10.4752496-.3571108-1.3094062 1.4284431-2.6188123 2.9759231-3.8091816 4.64244.2380739 4.2853295 1.3094062 7.9754741 2.8568862 11.1894712-3.57110775.8332585-7.26125248 2.3807386-10.71332334 4.7614771-.47614771 1.54748-.8332585 3.2139969-1.19036927 4.761477 2.14266467 3.6901447 4.88051399 6.6660678 7.6183633 8.9277695-2.73784931 2.2617016-5.47569863 5.3566617-7.97547408 9.5229541.238073852 1.7855539.59518463 3.4520709 1.07133234 5.1185878h.11903693c2.85688623-5.9518463 6.3089571-9.8800649 9.64199102-12.4988773 6.7851048 4.6424403 13.4511727 5.9518464 14.4034681 6.0708833-.119037-1.0713323-.3571108-2.1426647-.4761477-3.5711078-2.0236277-.4761476-6.1899202-1.7855539-10.5942864-4.5234032zm59.2803893-35.592041c-2.1426647.8332584-5.4756986 2.3807384-8.6896956 4.9995509-.4761477-2.2617016-1.3094062-5.5947355-3.0949601-9.4039172 2.1426648-2.14266472 4.8805141-4.28532934 8.3325849-6.07088324 2.3807385 3.57110779 3.213997 7.97547414 3.4520708 10.47524954zm-17.736502-4.9995509c-2.4997755 3.2139969-4.0472556 6.3089571-4.880514 8.4516217-1.1903692-2.1426646-3.3330339-4.9995509-6.547031-7.8564371 1.0713323-2.73784931 2.6188124-5.71377246 4.880514-8.45162178 2.8568862 2.38073854 4.9995509 5.23762477 6.547031 7.85643718zm-16.7842066 2.2617016c-1.1903694 4.1662924-1.4284431 7.8564372-1.4284431 10.2371756-2.1426648-1.5474801-5.2376248-3.4520708-9.2848803-4.761477-.3571108-2.8568862-.2380739-6.1899202.5951846-9.76102798 4.1662925.83325848 7.3802895 2.38073858 10.1181388 4.28532938zM28.4286888 32.8541913c-2.7378493-.4761478-6.9041417-.8332585-11.5465818-.2380739-1.5474801-2.9759232-2.7378493-6.6660679-2.9759232-10.8323603 4.0472556-.4761477 7.7374002-.1190369 10.9513972.5951846.8332585 4.6424402 2.3807386 8.213548 3.5711078 10.4752496zm-13.6892465 4.0472555c2.4997754 3.9282186 5.5947355 6.7851047 7.7374002 8.5706586-2.7378493.4761478-6.7851048 1.5474802-11.0704342 4.2853294-2.61881233-2.0236278-5.23762472-4.7614771-7.38028939-8.3325849 3.45207086-2.4997754 7.26125249-3.8091816 10.71332339-4.5234031z" fill="#fff"/><path d="M52.1439812.106041965l1.0057536.0062624.0732652.0027376.3224803-.001937997c4.9951386 0 9.5106481.498465329 13.8378203 1.551020722l.3165633.07700191-.0388639.02091537.3449075.08510246c2.9442416.74699044 5.6039834 1.67092367 8.0287112 2.85539008l.0233813.04550746.5059057.27086059c.2796824.15256029.6160838.33896491 1.0014548.55641228l.5806973.3302214c2.5217263 1.44532815 5.0735397 3.04459218 7.3809698 4.69872886l.554446.4022033c1.3787631 1.012353 2.5945517 1.9986809 3.6081081 2.940618 2.1506408 1.6446077 2.5092578 5.0713923.6179169 7.0801361l-.1703205.20503c-.5798892.6720756-2.133329 2.3129351-3.8908873 4.110281l-.9779494.9946879-.892556.8979769-1.3382309 1.3254751c-1.4920277 1.4609153-2.5576685 2.4381428-3.0121479 2.7398308-2.2674448 1.0797356-4.0349621.7135459-6.1027598-1.0180157l-.2227353-.1907454c-1.8309303-1.5868064-3.7307043-2.8728072-5.8068511-3.9108806L67.877 26.049042l-.1029765.0127836c-2.2187761-1.109388-4.6136669-1.9447085-7.2681833-2.5620657l-.0824029.0727096c-1.660849-.3558962-3.3215926-.5931453-4.9822698-.711765L55.406 22.806042l-.0806403.0548511c-2.4495817-.1113446-4.8845191.086092-7.3390775.5671349l-.0119373.0259299c-1.2815783.2464574-2.538071.6129969-3.6831189 1.0418755l-.3310621.1273555c-.6478047.2556353-1.1905634.507104-1.2839403.5795963L42.573 25.159042l-.0420658.0695252c-2.1693038 1.0846518-3.9592624 2.1358972-5.5767213 3.3220337L36.806 28.546042l-.2167545.1690284c-.8225721.6509199-1.5549398 1.3034717-2.3470875 2.0669483l-1.1215378 1.1010803-.1758867.1620474c-.0356251.0307129-.0653653.0542956-.0905425.0717016-.0140991.0097473-.0272463.0180557-.0400729.0248955l-.0082719.0829905c-1.4488356 1.5695718-2.5871466 3.0695463-3.4892373 4.6254517l.0534542.1139375-.145858.2515996c-1.3551069 2.3636855-2.548155 5.3283125-2.6922892 6.139448l-.0125205.0953386-.1213954.0595326-.1919411.7001044c-.3837 1.4508431-.6687666 2.8829808-.8674939 4.3734356l-.060565.05546.0604052.0647339c-.3494336 2.4460354-.3553524 5.1221184-.0176519 7.6892793l.0184762.0200694c.0364826.4377908.0826202.8404691.1482722 1.3095608l.2190536 1.4443495c.046169.3084928.0803331.5616834.1074999.8048935.0462156.0067315.0893112.0125837.1303588.0177146l.1057778.0938561c5.2071703 20.9470261 29.960678 29.0622618 47.178953 15.5251403 2.7461646-2.1243915 4.6813807-2.5321541 6.6653349-1.4925426.9989163.523442 1.9784773 1.360058 3.4973495 2.9195037l2.5507602 2.6770902c.8560095.8927319 1.6237185 1.6692201 2.4134188 2.4329126l.3971934.381259c.037272.040378.9146382.9453091 1.2023986 1.2697915 2.2229415 2.506618 2.5454292 4.8745451-.1324492 7.7099436C77.9896494 103.917343 58.923446 108.52826 40.6300522 104.05551 21.5868891 99.3994402 6.74272595 85.8494042 1.64360358 66.573601L1.68 66.525042l-.03461962.022532h-.11903693l-.12016111-.0906377c-.489697-1.7139395-.841566828-3.3853212-1.058331641-5.2172158L.595 60.833042l-.023779643-.1600696C-.27706218 54.8348501-.18742741 48.7762552.886184671 43.1619523l-.195831903-.3367598.499093472-2.1656535.05172295-.216233c.22078679-.9171145.42415925-1.6806532.6903727-2.4543664L2.045 37.911042l.17768208-.5760462c1.58857997-5.0459816 4.05834681-10.0433749 7.19991345-14.6159926L9.766 22.227042l-.00876351-.1588112c1.09923041-1.5389225 2.35415851-3.05651 3.89537281-4.6938074L13.981 17.336042l.2708924-.2894492c.5950736-.6286937 1.1968513-1.2303678 1.8063946-1.8050828l.6192195-.5720153c2.2915723-2.1526891 4.8019658-4.0988861 7.4962012-5.81752221L24.8 8.45804197l.0542404-.26981399.0590156-.08239593c2.1442638-1.26133171 4.1557316-2.31079315 6.2845093-3.22728666l.2762347.07349658.3646105-.15769957c3.9287171-1.69480846 8.0744026-2.94311119 12.3291384-3.71395733l.8523692-.147793972L45.426.867041965l.1240023-.157141939C48.236058.274323408 50.2500705.114482692 52.1439812.106041965zM10.2061869 54.9826034l-.0613575.053697c-2.97639221 2.6168274-5.61072554 6.0110645-7.81854167 10.2976189l-.28657975.5662558L1.787 66.416042l.01876353 2.695e-4.25330241-.5074096c2.30503-4.5490176 5.0890825-8.2131079 8.14712096-10.9262985zM52.5810186.355979602h-.4364587c-1.8219797.008121249-3.756978.157435557-6.2351621.518751027l-.1219406.154584031c-2.0169289 2.57718689-3.5930495 5.26242938-4.8643223 8.18635681l-.1816988.05560333c-2.6518697-1.68755347-5.5554496-2.97915359-8.8592813-3.86872453l-.5016235-.13628509-.0376721.01831314c-1.982982.8833331-3.9028057 1.87934994-5.7460117 2.98190988l-.4118012.24798266-.1031585.52872885c-.5372552 2.82157149-.7697855 5.55670919-.7162893 8.20598089l.0216674.7204001-.1484697.1277156c-3.1684339-.6093143-6.4791319-.778359-9.805004-.428458l-.4690021.0523811-.1101977.11957c-1.0743228 1.1754264-2.1237264 2.4366944-3.1354087 3.7311066l-.3515139.4552704-.2479394.3649108.0447009.6153634c.2894805 3.4785907 1.1453909 6.6934368 2.5193429 9.7061539l.263675.5625308-.0842009.175914c-3.62762473.8464458-7.17964613 2.4152553-10.67239965 4.7437576L2.079 38.269042l-.06708049.2260345c-.14547724.4966601-.28696251 1.0278495-.43459298 1.6247941l-.14473773.5975578-.32860975 1.4062555c-.06477256.266278-.144269814.5765052-.18378497.6668576L.949 42.838042l.042475202-.2157178.166792728.2872542c1.98565114 3.4197325 4.59858015 6.4230992 7.58988183 8.8941744l4.1276e-4.1923509c-3.21197735 2.6766477-5.76465731 5.6882365-7.826610809 9.4865718l-.175208776.322753-.058020948-.3626309-.041019181-.2680818c-.022971315.0375279-.045910846.0751228-.0688185.1127845.198727346 1.4904551.483793944 2.9225929.867493904 4.3734357l.15543519.5654219.21436004-.437994c2.47823144-4.9834349 5.51682147-8.8083484 8.99117536-11.6405107l.4028138-.3223917.147777-.0048725.1800604.120453.0580136-.001416c1.5020475 1.0277167 3.052178 1.9309142 4.625125 2.7163947 1.4869138.7291315 2.9927756 1.3547237 4.4965838 1.8814814 1.8819176.6592028 3.6502304 1.1135488 4.6634204 1.2846171l.1668148.0257985-.0987692-.7111565-.1199389-.7747848c-.0834161-.5422041-.143306-.9773789-.1895392-1.4076274L25.11 56.646042l-.114863-.0277212c-3.0935551-.7579485-6.8583818-2.2661988-10.4407072-4.4930497L14.555 52.007042l.0031118-.2152793c3.6479403-2.0975657 7.0532041-3.0178004 10.2334546-3.3141384l.3124997-.0269195.0941195-.6460961c.1529717-.9890315.3455088-1.9577416.5812374-2.9289423l.1849516-.7292239.1794373-.6515258-.4459768-.345672-.3509069-.278892c-1.4023075-1.0283737-2.8791879-2.3652632-4.273482-3.9369046-.5866379-.6333287-1.1609883-1.3009946-1.7292504-2.0151636l-.4186008-.535987.0890771-.2005961c.957428-.0776293 1.8937304-.1147457 2.8131696-.1160448 2.5195165-.0116715 4.9115616.2459386 7.2632976.6770221l.200989-.3419224c.7919053-1.3118769 1.7540815-2.5888178 2.9300824-3.9051956l.3370323-.372863-.2175886-.3805894c-1.2179361-2.1589888-2.2105802-4.4442362-2.931756-7.1905652l-.1503657-.5956785-.0591251-.2438909.1365924.0580683.0923133-.0779033c3.0368655 1.2735243 5.363437 2.7691775 7.5301326 4.5419283l-4.459e-4.003975.2964092-.2117505c1.2095039-.8522842 2.5196819-1.6400712 4.0105082-2.4286622l.5676839-.2958868.5162475-.2623127 5.94e-4-.3476829c.0062542-2.5605607.1474954-4.7147455.5884633-7.1433503l.1278189-.6696621.21294-.0617798.023335.0240873.0936714-.0261657c1.9840007 1.9840008 3.1981647 3.780672 4.6078517 6.3541924l.4889147-.0903709c1.8287864-.3270174 3.6486859-.4964761 5.4735119-.4979963l.6845677.0073223.5931781.0200006.11837-.3157665c.6193116-1.6229196 1.4962765-3.466067 2.6594166-5.4352681l.4289136-.7119755.0856043.2240277.1246709.013192c1.0576081 2.749781 1.7273035 5.253709 1.8953587 6.8748924l.4841488.1135694c2.2575671.5539386 4.3292952 1.2710949 6.2672093 2.1868559l.5032347.2446916.3097127-.2568385c3.2206903-2.6349222 6.3687567-4.1305392 10.7169256-5.2969846l.4125643-.1087922-.0027759-.5210296c-.0045582-.4012045-.0136261-.7969584-.0273509-1.1875711-.3496522-2.8938205-1.2767095-6.7487653-2.4936925-10.89051348l-.3816336-1.2757611L75.97 5.06704197l-.0994962-.19282614c-2.5309322-1.21044584-5.3890616-2.17601518-8.494142-2.95794115l.03665-.02068925c-2.8960598 1.55941682-5.4028401 3.39577914-7.7108413 5.57555799l-.1051029-.01315345c-.0046455.0043831-.0092901.00876758-.013934.01315345l-.1905868-.02274754C57.7222569 4.87871901 55.678264 2.44396282 53.4264433.363042848l-.8454247-.007063246zM14.8339707 36.7789042l.1299404.0554495c1.9733983 3.1010544 4.3579128 5.6765408 7.1780793 8.090862l.7534442.6338453-.2833918.0369641-.4357335.0620125.3219456-.0628108c-1.5814399.275033-3.1513827.6670323-4.7123282 1.2044584-2.0280503.7261469-4.1346716 1.7478906-6.1931991 3.0630609l-.1130374-.0038322-.1496942-.0025926c-2.8724127-2.2195918-5.40455054-5.0230302-7.4110375-8.3671751l.03386461-.1655143c3.12581828-2.2635235 6.72689889-3.7098592 10.76129969-4.5445628l.0385844.0162058c.0270798-.0054947.0541676-.0109516.0812635-.0163707zm10.05072-14.521956.0958941.0999159c.6695411 3.7303 1.8272818 7.0187062 3.2824157 9.9030371l.3946258.7609506L28.526 32.998042l.0125894.0228098-.2503499-.0435391c-3.5397081-.6156015-7.4060556-.7336579-11.5066314-.1185716l-.1303141-.0676988c-1.7414479-3.4828956-2.7691887-7.0359424-2.988913-10.8811188l.1070925-.1308429.0235265-.0030386.0985822-.1163984c3.7413242-.4401557 7.3934526-.2026189 10.9931085.5973046zm4.4017651-13.094611c3.885951.77719016 7.1396035 2.2006631 10.1649959 4.305284l.0487955.1369198c-1.0118642 3.5415243-1.4236348 6.9827504-1.4236348 10.2028438l-.1981379.1013101L37.828 23.873042l-.0685625.0356529c-2.7805577-2.0081806-5.7703013-3.6180426-9.2501798-4.7438856l-.0860697-.1085234c-.217737-2.6128436-.1155287-5.3047445.3542519-8.0143627.013704-.0750584.0268896-.1499398.0403717-.2248694l-.0403717.2248694c.0292349-.1686222.0598932-.337313.0919866-.5060576.0347537-.1816181.0709659-.3637317.108931-.54607113.007358-.03570337.0147925-.07105778.0222904-.10641371.0442407-.20855376.0907653-.41761037.139599-.62689769l.1462089-.09414587zm36.0018521 12.243538-.1992024-.0711561L65.089 21.333042l-.014-.06-.1411126-.6224317c-.7310234-3.1535677-1.5656237-5.7812808-2.9309031-8.6938769l.0224328-.1389883c2.3263207-2.45556061 5.1080097-4.52067656 8.3518392-6.08919775.0046434-.0018697.0093481-.0043045.0140538-.00673845l.0826899.02123307.0787047.02044641c2.0108323 3.01624843 3.1251251 6.88532052 3.4724965 10.53272192L74.001 16.335042l-.0526232.088573c-3.0128729 1.2405947-5.8760497 2.7986451-8.6371233 4.9642473-.0072756.0052754-.0142459.0109496-.0212146.0166278zM49.6972652 3.35606623c2.7060643 2.25505365 4.9069397 4.93831262 6.5758213 7.89094927L56.263 11.375042l-6.24e-5.0101894c-2.1834304 2.8072676-3.8303641 5.7656485-4.8626868 8.4201926l-.0482508.123618-.0432351.1116314-.0049775.0127994-.1292516-.2326529L51.165 19.805042l-.299218-.4806925c-1.6773977-2.6529904-3.6308437-5.0093672-6.2100728-7.2064882l-.035974-.1390119.0172648-.0478074-.0166292-.0728886c1.2204499-3.11892741 2.8280177-5.97682578 4.9005443-8.4856737l.1763501-.01641347z" fill="#43b02a"/><path d="M54.4977759 89.158657c9.0468063 0 17.2603543-3.2139969 23.6883483-8.6896956.4761477-.2380739 4.880514 4.7614771 6.6660679 6.666068.3571108.4761476.3571108.5951845.3571108.5951845C63.5445822 106.657085 26.762172 103.919235 9.38278073 71.1840811c1.42844307-4.761477 3.45207087-7.6183632 3.45207087-7.6183632 4.6424401 1.9045908 8.094511 2.0236277 8.094511 2.0236277C24.7385443 75.7074844 38.07068 89.158657 54.4977759 89.158657z" fill="#fff"/><path d="M150.560575.119036927c29.283084 0 52.614321 23.569311473 52.614321 52.733358473 0 29.1640469-23.450274 52.4952836-52.614321 52.4952836-29.164047 0-52.4952851-23.2121998-52.4952851-52.4952836 0-28.9902532 22.7502781-52.263769702 51.6186301-52.726341009l.876655-.007017464zm0 86.301771673c18.450723 0 33.68745-15.1176897 33.68745-33.4493763 0-18.3316868-15.236727-33.8064871-33.68745-33.8064871-18.450724 0-33.449376 15.3557635-33.449376 33.8064871 0 18.2662163 14.700179 33.1490581 32.896901 33.4448882l.552475.0044881zm68.446232-83.6829593c0-1.42844311 1.309406-2.618812373 2.737849-2.618812373h3.690146L286.262671 64.7560881h.119037V4.40436628c0-1.42844312 1.190369-2.73784931 2.737848-2.73784931h13.451174c1.428443 0 2.737849 1.30940619 2.737849 2.73784931V102.847904c0 1.428444-1.309406 2.618813-2.737849 2.618813h-3.452072l-61.18498-67.1368267h-.119036v62.8514977c0 1.428443-1.190369 2.737849-2.737849 2.737849h-13.332137c-1.428443 0-2.737849-1.309406-2.737849-2.737849V2.7378493zM365.30319 1.66651697c28.211751 0 51.304915 22.97412683 51.304915 51.06684143 0 28.3307886-23.093164 51.3049146-51.304915 51.3049146h-34.639746c-1.428443 0-2.618812-1.309405-2.618812-2.737848V4.40436628c0-1.42844312 1.190369-2.73784931 2.618812-2.73784931h34.639746zM464.222875 0c1.428444 0 2.023629.714221559 2.499776 1.66651697l44.995958 98.44353803c.833259 1.904591-.238073 3.809182-2.499775 3.809182h-12.736951c-2.142665 0-3.213997-.833259-4.285329-2.975923l-7.142216-15.8319116h-43.686552l-7.142216 15.8319116c-.595183 1.428443-1.90459 2.975923-4.285329 2.975923H417.20329c-2.023627 0-3.213997-1.904591-2.380738-3.809182l45.472105-98.44353803C460.770805.833258489 461.485027 0 462.794433 0h1.428442zM363.636673 19.2839821h-16.66517v66.7797157h16.66517c19.045908 0 32.854192-14.2844312 32.854192-33.4493764 0-19.0459081-13.92732-33.3303393-32.854192-33.3303393zm99.752944 17.6174651h-.476147l-14.284432 32.1399701h29.402122l-14.641543-32.1399701z" fill="#43b02a"/></svg>