<svg width="256px" height="246px" viewBox="0 0 256 246" xmlns="http://www.w3.org/2000/svg" preserveAspectRatio="xMidYMid"><defs><linearGradient x1="99.140087%" y1="112.708084%" x2="33.8589812%" y2="37.7549606%" id="a"><stop stop-color="#0052cc" offset=".18"/><stop stop-color="#2684ff" offset="1"/></linearGradient><linearGradient x1="0.92569163%" y1="-12.5823074%" x2="66.1800713%" y2="62.3057471%" id="b"><stop stop-color="#0052cc" offset=".18"/><stop stop-color="#2684ff" offset="1"/></linearGradient></defs><path d="M9.26054484 187.329971c-2.64114702 4.307101-5.60735829 9.304964-8.12660621 13.287001-2.25492248 3.810538-1.0443898355 8.724939 2.72241308 11.052185l52.82294039 32.506425c1.8541938 1.144811 4.0904774 1.496988 6.2067762.977463 2.1162989-.519524 3.9352853-1.867219 5.0485734-3.740509 2.1129176-3.535074 4.8353307-8.126607 7.801542-13.043203 20.926011-34.538077 41.9739213-30.312242 79.9251723-12.18991l52.375977 24.908048c1.983664.944168 4.265082 1.044986 6.324299.279478 2.059216-.765508 3.720773-2.332116 4.605986-4.342781l25.151846-56.886243c1.777019-4.062879-.031128-8.800225-4.063303-10.645854-11.052184-5.201028-33.034654-15.562451-52.82294-25.111214-71.18907-34.578709-131.6916538-32.343892-177.97267616 42.949114z" fill="url(#a)"/><path d="M246.11505 58.2319428c2.641147-4.3071013 5.607358-9.3049641 8.126606-13.2870012 2.254923-3.8105379 1.04439-8.7249391-2.722413-11.0521844l-52.82294-32.50642489C196.82698.127283893 194.518741-.298915762 192.323058.209558312c-2.195684.508474074-4.081597 1.905950908-5.207169 3.858554048-2.112918 3.53507371-4.835331 8.12660624-7.801542 13.04320294-20.926011 34.5380765-41.973921 30.3122412-79.9251722 12.1899094L47.1757299 4.5150757c-1.9836638-.94416742-4.2650824-1.04498591-6.3242987-.279478-2.0592163.76550792-3.7207734 2.33211664-4.6059867 4.34278111L11.0935983 65.4646223c-1.77701888 4.0628789.0311284 8.8002248 4.0633031 10.6458542 11.0521845 5.2010279 33.0346543 15.5624509 52.8229404 25.1112135C139.331444 135.759766 199.834028 133.443683 246.11505 58.2319428z" fill="url(#b)"/></svg>