<svg width="256px" height="259px" viewBox="0 0 256 259" xmlns="http://www.w3.org/2000/svg" preserveAspectRatio="xMidYMid"><title>Consul</title><path d="M216.745115 34.1670844l-30.552823 32.0580884C152.21161 35.5872594 100.065089 37.384755 68.2747392 70.2898021c-31.7903499 32.9050469-31.7903499 85.0825389 0 117.9875859 31.7903498 32.905047 83.9368708 34.702543 117.9175528 4.06463l30.552823 31.936039c-23.822839 21.977768-55.055964 34.16595-87.468134 34.133048-57.8288938.02728-108.6334547-38.374702-124.38230051-94.01781C-10.8541653 108.750186 12.2885721 49.4186659 61.5539027 19.1348607 110.819233-11.1489446 174.207846-5.00895899 216.745115 34.1670844zm16.517238 138.4437496c5.841815 0 10.577542 4.735727 10.577542 10.577542 0 5.841815-4.735727 10.577542-10.577542 10.577542-5.841815 0-10.577541-4.735727-10.577541-10.577542 0-5.841815 4.735726-10.577542 10.577541-10.577542zm12.160105-36.167057c5.841815 0 10.577542 4.735727 10.577542 10.577542-.022304 5.832552-4.744991 10.555238-10.577542 10.577542-5.841815 0-10.577542-4.735727-10.577542-10.577542 0-5.841815 4.735727-10.577542 10.577542-10.577542zm-116.963203-35.23135c15.458342 0 27.989803 12.531461 27.989803 27.989803 0 15.458341-12.531461 27.989803-27.989803 27.989803-15.458341 0-27.989803-12.531462-27.989803-27.989803 0-15.458342 12.531462-27.989803 27.989803-27.989803zm85.478743 34.010865c5.841815 0 10.577542 4.735727 10.577542 10.577542 0 5.841815-4.735727 10.577541-10.577542 10.577541-5.841815 0-10.577542-4.735726-10.577542-10.577541 0-5.841815 4.735727-10.577542 10.577542-10.577542zm0-33.156526c5.841815 0 10.577542 4.735727 10.577542 10.577542 0 5.841815-4.735727 10.577542-10.577542 10.577542-5.841815 0-10.577542-4.735727-10.577542-10.577542 0-5.841815 4.735727-10.577542 10.577542-10.577542zm31.48446-1.220485c5.841815 0 10.577542 4.735727 10.577542 10.577542-.022304 5.832551-4.744991 10.555237-10.577542 10.577542-5.841815 0-10.577542-4.735727-10.577542-10.577542 0-5.841815 4.735727-10.577542 10.577542-10.577542zm-11.55393-35.5974967c5.841815 0 10.577542 4.7357268 10.577542 10.5775418 0 5.8418151-4.735727 10.5775419-10.577542 10.5775419-5.841815 0-10.577542-4.7357268-10.577542-10.5775419 0-5.841815 4.735727-10.5775418 10.577542-10.5775418z" fill="#e03875"/></svg>