<svg width="256px" height="289px" viewBox="0 0 256 289" xmlns="http://www.w3.org/2000/svg" preserveAspectRatio="xMidYMid"><path d="M87.333315 200.77659c-15.3058387-14.405495-24.3092732-34.213051-24.3092732-56.721637 0-22.508587 9.0034345-42.316143 23.4089298-56.721638 12.6048083-12.6048083 12.6048083-32.4123643 0-45.0171727-12.6048084-12.6048083-32.4123644-12.6048083-45.0171727 0C16.2061822 68.4261025 0 104.439841 0 144.054953c0 39.615112 16.2061822 75.62885 42.3161423 101.73881 12.6048084 12.604808 32.4123644 12.604808 45.0171727 0 11.7044649-12.604808 11.7044649-32.412364 0-45.017173z" fill="#fae501"/><path d="M87.333315 87.333315c14.405495-15.3058387 34.213051-24.3092732 56.721638-24.3092732 22.508586 0 42.316142 9.0034345 56.721637 23.4089298 12.604809 12.6048083 32.412365 12.6048083 45.017173 0 12.604808-12.6048084 12.604808-32.4123644 0-45.0171727C219.683803 16.2061822 183.670065 0 144.054953 0 104.439841 0 68.4261025 16.2061822 42.3161423 42.3161423c-12.6048083 12.6048084-12.6048083 32.4123644 0 45.0171727 12.6048084 11.7044649 32.4123644 11.7044649 45.0171727 0z" fill="#4fb5e1"/><path d="M200.77659 200.77659c-14.405495 15.305839-34.213051 24.309273-56.721637 24.309273-22.508587 0-42.316143-9.003434-56.721638-23.408929-12.6048083-12.604809-32.4123643-12.604809-45.0171727 0-12.6048083 12.604808-12.6048083 32.412364 0 45.017172 26.1099602 25.209617 62.1236987 41.415799 101.7388107 41.415799 39.615112 0 75.62885-16.206182 101.73881-42.316142 12.604808-12.604808 12.604808-32.412364 0-45.017173-12.604808-11.704465-32.412364-11.704465-45.017173 0z" fill="#f05751"/><circle fill="#0681b6" cx="64.8247287" cy="64.8247287" r="31.5120209"/><circle fill="#cd4739" cx="64.8247287" cy="223.285177" r="31.5120209"/></svg>