<svg width="256px" height="245px" viewBox="0 0 256 245" xmlns="http://www.w3.org/2000/svg" preserveAspectRatio="xMidYMid"><path d="M232.727273 244.363636h-41.454546l2.909091-34.909091h-20.363636l-2.909091 34.909091H85.0909091l-2.9090909-34.909091H61.8181818l2.9090909 34.909091H23.2727273L0 93.0909091 58.1818182 0H197.818182L256 93.0909091 232.727273 244.363636zM186.181818 46.5454545h-37.402909L151.272727 64h-46.545454l2.493818-17.4545455H69.8181818L46.5454545 93.0909091l11.6363637 93.0909089H197.818182l11.636363-93.0909089-23.272727-46.5454546zM165.818182 155.287273c-3.213091 0-5.818182-9.690182-5.818182-21.643637C160 121.690182 162.605091 112 165.818182 112c3.213091 0 5.818182 9.690182 5.818182 21.643636 0 11.953455-2.605091 21.643637-5.818182 21.643637zm-73.4545456 1.803636c-3.2130909 0-5.8181819-9.690182-5.8181819-21.643636 0-11.953455 2.605091-21.643637 5.8181819-21.643637 3.2130909 0 5.8181818 9.690182 5.8181818 21.643637 0 11.953454-2.6050909 21.643636-5.8181818 21.643636z" fill="#444"/></svg>