<svg width="512px" height="157px" viewBox="0 0 512 157" xmlns="http://www.w3.org/2000/svg" preserveAspectRatio="xMidYMid"><title>Corda</title><path d="M477.81077 145.721695c-20.177005 18.944649-68.269004 14.916275-68.269004-22.450965 0-39.3776617 41.789666-42.4171383 68.018015-40.0252133v-.1380439c-.963798-20.6011759-35.658006-15.5261786-49.510088-4.5956083-4.33207-6.1341708-11.681027-17.1074093-14.690385-22.0619318 15.94031-12.1528867 54.876232-21.0153078 74.794718-9.8312386 14.73049 8.2468872 23.851152 23.8134573 23.843957 40.6953541v66.7831488h-33.261064l-.926149-8.375502zm-130.863147-.90858c-35.389447 27.729263-71.679945 1.400518-76.202766-34.270036-5.632193-44.4300704 30.020792-79.7141019 75.919148-64.3360068V1.13686838e-13h34.987865V154.107237h-33.670173l-1.034074-9.294122zm-.286128-37.427478V76.5265416c-15.162245-6.8143509-38.571987-7.0778894-40.700374 23.9041914-2.183604 31.732537 37.967104 34.957745 40.700374 6.952394M212.357289 56.2516514c10.243697-12.3620442 24.810261-15.9244145 43.699692-10.687111-2.844542 15.4559017-4.798909 25.8970435-5.863102 31.3234254-27.224776-4.6859644-37.249276 3.4109403-37.367241 26.8909602v50.483924h-34.975315V45.1077404h33.677702l.828264 11.143911zm-122.2065369-2.597736c-9.656266 7.0163184-16.8573217 16.8958156-20.5810968 28.2362608-9.7506854-7.0791654-23.393748-4.9150624-30.4750826 4.8340479-3.3998455 4.6821697-4.799825 10.523434-3.89179 16.2380759.908035 5.714643 4.0496576 10.834263 8.7333676 14.231987 7.6425125 5.552314 17.9909925 5.552314 25.633505 0 3.7237751 11.340445 10.9248308 21.219942 20.5810968 28.236261-12.1701164 8.858605-27.3611931 12.519039-42.2304912 10.175839-14.8692982-2.343201-28.1984476-10.498038-37.0544193-22.670071C2.00723653 120.7662-1.65319803 105.575123.690002644 90.7058248 3.03320332 75.8365267 11.1880405 62.5073773 23.3600732 53.6514055c19.9070449-14.4864635 46.883634-14.4864635 66.7906789 0M477.426756 106.524745c-10.441141.125495-33.993948-3.614241-33.454321 13.553405.539626 17.167647 33.454321 14.163309 33.454321-5.6849v-7.855955m-353.824192 14.845998c-12.049043-.030458-21.792401-9.822134-21.76332-21.8711801.029141-12.0466733 9.817036-21.7896231 21.863716-21.7633083 12.029422.0277295 21.766922 9.7865623 21.768274 21.816016-.022158 12.0609974-9.810165 21.8242934-21.87118 21.8159624" fill="#e0081c"/></svg>