<svg width="256px" height="256px" viewBox="0 0 256 256" xmlns="http://www.w3.org/2000/svg" preserveAspectRatio="xMidYMid"><path d="M128 1.10016058e-14C57.4259819 1.10016058e-14 0 57.2326284 0 128c0 70.574018 57.2326284 128 128 128 70.574018 0 128-57.232628 128-128C256 57.2326284 198.574018 0 128 0v1.10016058e-14zm86.429003 150.429003C214.429003 158.163142 209.981873 164.930514 201.280967 166.477341c-15.081571 2.706949-46.791541 4.253777-73.280967 4.253777-26.489426 0-58.1993958-1.546828-73.2809668-4.253777-8.7009063-1.546827-13.1480362-8.314199-13.1480362-16.048338v-49.885196c0-7.7341393 5.9939577-14.8882179 13.1480362-16.0483387 4.4471299-.7734139 14.8882176-1.5468278 23.0090635-1.5468278 3.0936556 0 5.6072507 2.3202417 5.6072507 5.9939577v34.9969788l44.8580056-.966767 44.858007.966767V88.9425982c0-3.673716 2.513595-5.9939577 5.60725-5.9939577 8.120846 0 18.561934.7734139 23.009064 1.5468278 7.347432 1.1601208 13.148036 8.3141994 13.148036 16.0483387-.386707 16.435045-.386707 33.256797-.386707 49.885196h0z" fill="#ed2226"/></svg>