<svg width="256px" height="168px" viewBox="0 0 256 168" xmlns="http://www.w3.org/2000/svg" preserveAspectRatio="xMidYMid"><path d="M207.998979 111.999271c0 10.609597-5.588297 15.80823-15.999562 15.992562v.007H64.0005833v-.007c-10.4112655-.184332-15.9995625-5.382965-15.9995625-15.992562 0-10.607264 5.588297-15.8082306 15.9995625-15.9902294v-.0093333H191.999417v.0093333c10.411265.1819988 15.999562 5.3829654 15.999562 15.9902294m-15.999562 24.009844v-.009334H64.0005833v.009334c-10.4112655.181998-15.9995625 5.382964-15.9995625 15.992562 0 10.609598 5.588297 15.805897 15.9995625 15.990229v.007H191.999417v-.009333c10.411265-.181999 15.999562-5.380632 15.999562-15.990229 0-10.609598-5.588297-15.808231-15.999562-15.990229m40.000073-87.9917609v-.0093333c-10.411266.1843321-15.999563 5.3829649-15.999563 15.9925625v87.9987607c0 10.609597 5.588297 15.805897 15.999563 15.990229v-.016333C247.616388 167.42491 256 151.826678 256 120.000219V80.0001458c0-21.2168618-8.383612-31.6141275-24.00051-31.9827917m-207.9989796-.0093333v.0093333C8.38361209 48.3860183 0 58.783284 0 80.0001458v40.0000732c0 31.826459 8.38361209 47.422358 24.0005104 47.973021v.016333c10.4112656-.181999 15.9995625-5.380632 15.9995625-15.990229V64.0005833c0-10.6095976-5.5882969-15.8082304-15.9995625-15.9925625M231.99949 40.0000729c0-26.5228273-13.971909-39.519409363-40.000073-39.9790730367V0H64.0005833v.0209998633C37.9747528.480663537 24.0005104 13.4772456 24.0005104 40.0000729v.0139999c15.6168983.2753316 24.0005104 8.0732808 24.0005104 23.9865105 0 15.9132298 8.3836121 23.711179 24.0005104 23.9865105v.0116666H184.000802v-.0116666c15.614565-.2753315 23.998177-8.0732807 23.998177-23.9865105 0-15.9132297 8.383612-23.7111789 24.000511-23.9865105v-.0139999z" fill="#e42528"/></svg>