<svg width="512px" height="73px" viewBox="0 0 512 73" xmlns="http://www.w3.org/2000/svg" preserveAspectRatio="xMidYMid"><title>Coursera</title><path d="M168.022161 1.77728975V41.7950139c0 8.8421052 4.928532 14.0631578 13.482548 14.0631578 9.568975 0 15.069252-5.801662 15.069252-16.9662049V1.77728975h17.834903V70.6437673h-17.821606V62.665928c-4.201662 6.5240997-11.018283 9.7152367-20.440998 9.7152367-15.946814.0044309-25.950138-11.5944611-25.950138-28.4144057V1.77728975h17.826039zM359.552355.474161619c20.299169.039961373 34.61939 16.301461681 34.570761 35.457140281.003421 1.8939391-.144612 3.7850859-.443338 5.6554017l-52.480886-.0975069c2.012188 8.265928 8.815512 14.2227147 19.111357 14.2448753 6.231579 0 12.906371-2.2958449 16.97507-7.5080332l12.161772 9.7506925c-6.253739 8.833241-17.285318 14.032133-29.021606 14.0100429-20.720222-.0709847-36.640443-15.614475-36.605045-35.7673836.039948-19.2842105 13.84161-35.785047331 35.731915-35.745228981zM472.713573.474269252c10.872023 0 17.108034 3.332963988 21.309696 9.715248748l1.670914-8.42106592H512V70.6437673h-16.305817l-2.105263-7.0914127c-4.782272 5.2210526-10.730194 8.4210526-20.875347 8.4210526-15.658725-.0221607-33.493628-13.7972299-33.493628-35.2531413 0-21.602216 17.542382-36.245996648 33.493628-36.245996648zm-365.376177 0c20.440997 0 36.680333 15.955691948 36.680333 35.665387248 0 19.5722549-16.239336 35.81159-36.680333 35.81159-20.2991689 0-36.5340719-16.2570637-36.5340719-35.81159 0-19.7185595 16.234903-35.665387248 36.5340719-35.665387248zM290.716898.0354916787c11.496952 0 21.681994 5.0925304813 27.213296 14.5507022213l-15.707479 8.3102493c-2.32687-4.6581717-6.692521-7.2775623-12.223823-7.2775623-5.380609 0-8.004432 1.8925208-8.004432 5.0925208 0 10.7700831 37.544598 3.9313019 37.544598 29.6952465 0 13.3894737-10.911911 21.5357341-28.520775 21.5357341-14.989474-.0132964-25.467036-4.9595568-30.701385-16.3102493l15.849307-8.2969529c2.619391 5.6775623 7.858172 9.0238227 15.281994 9.0238227 6.838782 0 9.458172-2.1806094 9.458172-5.2387812 0-11.0802881-37.544598-4.365651-37.544598-29.6952465 0-13.97008313 12.223823-21.3894834213 27.355125-21.3894834213zM36.534072.328011524C42.6374737.285232133 48.6555125 1.76176399 54.0463158 4.62453186c5.3903601 2.86280332 9.9838227 7.02182824 13.3664266 12.10238224L52.1927978 25.555723c-1.7608864-2.5165651-4.1050416-4.5694848-6.8316898-5.9834238-2.7270027-1.4139391-5.7554792-2.1469252-8.827036-2.1362438-10.4376731 0-18.9916897 8.700277-18.9916897 18.7036011 0 10.0032798 8.5540166 18.7035568 18.9916897 18.7035568 3.2163989.020831 6.3844876-.7827147 9.2019945-2.3348476 2.8170637-1.5516898 5.1895845-3.7996676 6.8910803-6.5294183l15.0692521 8.9883656c-3.341385 5.2290305-7.952133 9.527313-13.4023269 12.4937396-5.4506371 2.9668698-11.5634349 4.5052632-17.7688642 4.472979C16.234903 71.9512465 0 55.6941828 0 36.1396565 0 16.2792687 16.234903.328011524 36.534072.328011524zM260.210526 0l-3.288642 16.6426593c-.606316-.0661274-1.215734-.1001662-1.826039-.1019391-9.564543.0221607-15.06482 5.832687-15.038227 16.9927978h0l.097507 37.1058172-17.830471.0398892-.150693-68.86204545 17.830471-.0398892v7.9778349C244.157341 3.27535069 250.903047.0753462604 260.210526 0h0zm179.173408.0488008864L436.077562 16.6737285c-.589473-.0576177-1.192243-.101939-1.826038-.101939-9.555679 0-15.069253 5.7972299-15.069253 16.9617728h0v37.110205h-17.83047V1.77290194h17.83047v7.9778349c4.170638-6.46647756 10.90748-9.653182491 20.201663-9.7019359536h0zM107.337396 17.5823158c-10.437673 0-18.9916896 8.700277-18.9916896 18.5573407 0 10.0032798 8.5540166 18.7035568 18.9916896 18.7035568 10.601662 0 19.13795-8.700277 19.13795-18.7035568 0-9.8570637-8.554016-18.5573407-19.13795-18.5573407zm368.425485.0065074c-5.057064.0195092-9.896953 2.0460134-13.455956 5.633825-3.563435 3.587856-5.54903 8.4430803-5.531419 13.4976177 0 9.5689308 8.554134 18.1229474 18.996239 18.1229474 10.570637 0 19.120222-8.5540166 19.120222-18.2692078-.017729-5.0545374-2.047646-9.8943822-5.633241-13.454759-3.590028-3.5603767-8.443214-5.5496953-13.495845-5.5304233zm-116.38338-.8752498c-8.265928 0-14.94072 4.9019391-17.564543 12.2903047l34.357895.0620499c-1.001662-6.9584488-8.239335-12.3390582-16.793352-12.3523546z" fill="#0056d2"/></svg>