<svg width="512px" height="89px" viewBox="0 0 512 89" xmlns="http://www.w3.org/2000/svg" preserveAspectRatio="xMidYMid"><g transform="translate(2.813187 2.813187)" fill="#dce1e2"><path d="M52.043956 26.443956c-1.4065934-1.5003663-2.7194139-2.7194139-4.1260073-3.5633699-1.3128205-.8439561-3.1882784-1.2190476-5.5326007-1.2190476-2.9069597 0-5.4388279.7501831-7.5018315 2.1567765-2.0630037 1.4065934-3.8446887 3.1882784-5.2512821 5.4388279-1.4065934 2.1567765-2.5318681 4.5010989-3.3758241 7.1267399-.8439561 2.5318681-1.4065935 4.9699634-1.781685 7.2205128-.1875458 1.1252747-.2813187 2.1567766-.3750916 3.2820513-.0937729 1.1252747-.1875458 2.2505494-.1875458 3.3758242 0 1.9692307.1875458 3.8446886.5626374 5.6263736.3750915 1.781685.9377289 3.4695971 1.781685 4.8761905.843956 1.4065934 1.9692307 2.5318681 3.3758241 3.3758241 1.4065934.8439561 3.1882784 1.2190477 5.4388279 1.2190477 2.5318681 0 4.7824176-.4688645 6.6578754-1.4065934 1.8754579-.937729 3.8446887-2.1567766 6.0014652-3.8446887l-4.8761904 22.974359c-2.4380953 1.0315018-4.6886447 1.781685-6.9391942 2.2505494-2.2505494.4688645-4.5948718.7501832-7.032967.7501832-3.9384616 0-7.5956044-.6564103-10.9714286-1.9692308-3.3758242-1.3128205-6.3765568-3.2820513-8.9084249-5.9076923-2.53186813-2.625641-4.5010989-5.9076923-5.90769231-9.8461538C1.68791209 64.421978.937728938 59.7333333.937728938 54.4820513c0-1.6879121.093772892-3.3758242.187545792-4.9699634.18754578-1.6879121.37509157-3.4695971.65641025-5.3450549.93772894-6.0952381 2.43809524-11.4402931 4.40732601-15.941392 1.96923077-4.5010989 4.21978021-8.4395604 6.84542121-11.6278388 2.5318682-3.1882784 5.2512821-5.8139194 8.2520147-7.78315019 2.9069597-1.96923076 5.8139194-3.56336996 8.6271062-4.68864468 2.8131868-1.12527473 5.5326007-1.87545788 8.0644689-2.34432235 2.5318681-.46886447 4.6886447-.65641025 6.5641025-.65641025 1.9692308 0 3.8446887.18754578 5.8139195.46886446 1.8754578.28131869 3.6571428.84395605 5.3450549 1.5003663L52.043956 26.443956h0z"/><path d="M57.0139194 43.4168498c.8439561-4.9699634 2.1567766-10.0336996 4.1260073-15.0974359 1.9692308-5.0637362 4.5010989-9.5648351 7.5956044-13.6908425 3.1882784-4.0322344 6.9391942-7.40805858 11.2527473-9.93992671C84.3018315 2.15677656 89.3655678.843956044 94.9919414.843956044c4.6886447 0 8.6271066.843956046 11.9091576 2.625641026 3.282051 1.78168498 5.907692 4.12600733 7.970696 7.12673993 2.063004 3.0007326 3.469597 6.3765568 4.407326 10.3150183.937729 3.8446887 1.406593 7.8769231 1.406593 12.0029304 0 1.781685-.093773 3.4695971-.187546 5.2512821-.187545 1.7816849-.375091 3.469597-.65641 5.1575091-.843956 4.9699634-2.156776 10.0336997-4.126007 15.0974359-1.969231 5.0637363-4.501099 9.5648352-7.595604 13.6908425-3.188279 4.0322344-6.939195 7.4080586-11.2527477 9.9399268-4.3135531 2.5318681-9.3772894 3.8446886-15.003663 3.8446886-4.6886447 0-8.7208792-.9377289-11.9091575-2.625641-3.1882784-1.781685-5.8139195-4.1260074-7.8769231-7.12674-1.9692308-3.0007326-3.4695971-6.3765567-4.3135531-10.3150183-.937729-3.8446886-1.4065934-7.9706959-1.4065934-12.1904762 0-1.687912.0937729-3.3758241.1875457-5.1575091 0-1.6879121.1875458-3.3758242.4688645-5.0637363h0zm22.6930403 0c-.1875458 1.0315018-.2813187 2.4380953-.5626374 4.2197802-.1875457 1.781685-.2813186 3.7509158-.2813186 5.8139195 0 1.5003663.0937729 2.9069597.2813186 4.3135531.1875458 1.4065934.4688645 2.625641.937729 3.7509157.4688645 1.1252747 1.1252747 1.9692308 1.8754579 2.625641.843956.6564103 1.7816849 1.0315019 3.0945055 1.0315019 1.4065934 0 2.625641-.3750916 3.7509157-1.2190476 1.1252747-.8439561 2.0630037-1.9692308 2.9069597-3.2820513.8439561-1.3128205 1.5941392-2.8131868 2.1567766-4.5010989.6564102-1.5941392 1.1252747-3.2820513 1.5941392-4.8761905.4688644-1.5941392.7501831-3.0945055 1.0315018-4.5010989.2813187-1.4065934.4688645-2.5318681.5626374-3.4695971.1875457-1.0315018.3750915-2.4380952.5626373-4.3135531.2813187-1.8754579.3750916-3.7509157.3750916-5.8139194 0-1.4065934-.0937729-2.9069597-.2813187-4.2197802-.1875458-1.4065934-.4688645-2.625641-.9377289-3.7509158-.4688645-1.1252747-1.1252748-1.9692307-1.8754579-2.625641-.843956-.6564103-1.781685-1.0315018-3.0945055-1.0315018-1.4065934 0-2.625641.3750915-3.7509157 1.2190476-1.1252748.843956-2.0630037 1.9692308-2.9069598 3.2820513-.843956 1.3128205-1.5941391 2.8131868-2.1567765 4.5010989-.6564103 1.5941392-1.1252747 3.2820513-1.5941392 4.8761904-.4688645 1.5941392-.843956 3.0945055-1.1252747 4.5010989-.2813187 1.5003663-.4688645 2.6256411-.5626374 3.4695971h0z"/><path d="M132.501099 84.4893773l-6.095238-82.14505496h23.34945V36.1025641c-.093773 3.3758242-.187545 6.6578755-.281318 9.9399267-.187546 3.2820513-.281319 6.5641026-.468865 9.9399268h.187546c1.031502-3.3758242 1.969231-6.6578755 2.719414-9.9399268.843956-3.2820512 1.781685-6.5641025 2.90696-9.9399267l11.34652-33.75824176h24.099633L155.194139 84.4893773h-22.69304 0z"/><path d="M195.141392 2.34432234h41.260073l-2.90696 19.41098906h-19.035897l-1.875458 11.440293h17.16044l-3.094506 19.410989h-17.066666l-1.969231 12.5655678h19.035897l-2.906959 19.410989h-41.260074l12.659341-82.23882786h0z"/><path d="M269.972161 84.4893773l-6.939194-34.2271062-.281319.1875457c-.187545 2.0630037-.468864 4.0322345-.65641 6.0014653-.187546 1.9692307-.468864 4.0322344-.843956 6.0014652l-3.375824 21.9428571h-22.224176l12.753114-82.14505495h21.473992c4.313553 0 8.252015.28131868 11.909158.93772894 3.657143.65641025 6.751648 1.78168498 9.377289 3.28205128 2.625641 1.59413919 4.688645 3.65714283 6.095238 6.37655673 1.406594 2.719414 2.156777 6.0952381 2.156777 10.2212455 0 1.0315018-.093773 2.0630036-.187546 3.0945055-.093773 1.0315018-.281319 2.1567765-.375092 3.2820512-.750183 4.5948718-2.344322 8.7208792-4.969963 12.378022-2.625641 3.7509158-6.189011 6.4703297-10.971428 8.1582418l11.252747 34.2271062h-24.193407v.2813187zM266.0337 40.4161172c1.406593 0 2.813186-.2813187 4.032234-.843956 1.219048-.5626374 2.344322-1.4065934 3.188278-2.3443224.937729-.9377289 1.687913-2.0630036 2.25055-3.3758241.562637-1.3128206.937729-2.5318682 1.219048-3.8446887.093772-.4688645.093772-.843956.187545-1.2190476 0-.3750916.093773-.7501832.093773-1.1252747 0-2.6256411-.750183-4.5010989-2.250549-5.8139195-1.500367-1.2190476-3.469597-1.8754578-6.001465-1.8754578h-.843956l-3.282052 20.3487179 1.406594.0937729h0z"/><path d="M337.863736 84.4893773V73.9868132h-14.90989l-3.469597 10.596337h-22.880586l32.445421-82.14505496h27.100367l4.688644 82.14505496h-22.974359v-.0937729zm.093773-27.9443224.562638-19.0358974c.093772-2.5318681.187545-5.1575091.281318-7.6893773.187546-2.625641.281319-5.1575091.468865-7.6893773h-.187546c-.750183 2.5318682-1.500366 5.1575092-2.156777 7.6893773-.750183 2.625641-1.500366 5.1575092-2.250549 7.6893773l-6.001465 19.0358974h9.283516 0z"/><path d="M366.652015 84.4893773l12.753113-82.14505496h22.224176L391.78315 65.0783883h16.691575l-2.906959 19.410989h-38.915751 0z"/><path d="M411.663004 84.4893773l12.753113-82.14505496h22.224176l-9.846154 62.73406596h16.691575l-2.906959 19.410989h-38.915751 0z"/><path d="M460.14359 56.8263736c.562637 1.1252748 1.31282 2.2505495 2.156776 3.3758242.843956 1.1252747 1.875458 2.0630037 2.90696 2.9069597 1.125275.8439561 2.250549 1.5941392 3.469597 2.0630037 1.219048.4688644 2.531868.7501831 4.032235.7501831 1.500366 0 3.094505-.4688644 4.594871-1.4065934 1.594139-.9377289 2.531868-2.2505494 2.813187-4.1260073.093773-.2813187.093773-.6564103.093773-1.2190476 0-1.2190476-.375092-2.3443224-1.219048-3.3758242-.375091-.5626374-.843956-1.1252747-1.406593-1.5941392-.562637-.4688645-1.125275-1.0315018-1.781685-1.5003663-1.875458-1.6879121-3.657143-3.3758242-5.251282-4.9699634-1.594139-1.6879121-3.000733-3.469597-4.126007-5.4388278-.843956-1.4065934-1.406594-3.0007326-1.875458-4.6886447-.468865-1.6879121-.656411-3.4695971-.656411-5.4388278 0-1.3128205.093773-2.719414.281319-4.2197803.375092-2.4380952 1.219048-5.1575091 2.531868-8.2520146 1.312821-3.0945055 3.094506-6.0952381 5.532601-8.814652 2.344322-2.71941394 5.345055-5.06373629 8.814652-7.03296706 3.56337-1.96923076 7.689377-2.906959702 12.378022-2.906959702 2.719414 0 5.345055.375091572 7.970696 1.125274722 2.625641.75018315 5.063736 1.78168498 7.220513 3.0007326L504.87326 30.007326c-.468864-1.0315018-1.125275-2.0630037-1.969231-3.0945055-.843956-1.0315018-1.687912-1.9692308-2.719414-2.8131868-1.031501-.843956-2.156776-1.5003663-3.282051-2.0630037-1.219048-.5626373-2.438095-.843956-3.750916-.843956-1.31282 0-2.625641.4688645-4.032234 1.3128205-1.406593.843956-2.25055 2.0630037-2.531868 3.7509158v.6564102c0 1.4065934.468864 2.7194139 1.500366 3.9384616.468865.6564102 1.031502 1.2190476 1.687912 1.7816849.65641.5626374 1.219048 1.0315019 1.781685 1.5941392 2.063004 1.6879121 3.938462 3.2820513 5.532601 4.8761905 1.594139 1.5941392 2.813187 3.2820513 3.750916 5.1575092.750183 1.3128205 1.31282 2.7194139 1.687912 4.2197802.375091 1.5003663.562637 3.1882784.562637 5.0637362 0 1.6879121-.187546 3.3758242-.468864 4.9699634-.562638 3.8446887-1.781685 7.4080586-3.56337 10.6901099-1.781685 3.2820513-4.032235 6.189011-6.751649 8.7208791-2.719414 2.5318682-5.720146 4.5010989-9.189743 5.9076923-3.469597 1.4065934-7.12674 2.1567766-10.971429 2.1567766-5.626373 0-11.065201-1.1252747-16.128938-3.3758242l4.126008-25.7875458h0z"/></g><g fill="#394a56"><path d="M51.2937729 25.8813187c-1.4065934-1.5003663-2.7194139-2.7194139-4.1260073-3.56337-1.3128205-.843956-3.1882784-1.2190476-5.5326008-1.2190476-2.9069597 0-5.4388278.7501831-7.5018315 2.1567766-2.0630036 1.4065934-3.8446886 3.1882783-5.251282 5.4388278-1.4065934 2.1567766-2.5318681 4.5010989-3.3758242 7.1267399-.843956 2.5318682-1.4065934 4.9699634-1.781685 7.2205128-.1875458 1.1252748-.2813187 2.1567766-.3750916 3.2820513-.0937728 1.1252747-.1875457 2.2505495-.1875457 3.3758242 0 1.9692308.1875457 3.8446886.5626373 5.6263736.3750916 1.781685.937729 3.4695971 1.781685 4.8761905.8439561 1.4065934 1.9692308 2.5318681 3.3758242 3.3758242 1.4065934.843956 3.1882784 1.2190476 5.4388278 1.2190476 2.5318682 0 4.7824176-.4688645 6.6578755-1.4065934 1.8754579-.9377289 3.8446886-2.1567766 6.0014652-3.8446887l-4.8761905 22.974359c-2.4380952 1.0315019-4.6886447 1.781685-6.9391941 2.2505495-2.2505495.4688644-4.5948718.7501831-7.0329671.7501831-3.9384615 0-7.5956044-.6564102-10.9714285-1.9692307-3.3758242-1.3128206-6.3765568-3.2820513-8.90842495-5.9076924-2.53186813-2.625641-4.5010989-5.9076923-5.90769231-9.8461538C1.03150183 63.7655678.281318681 59.0769231.281318681 53.825641c0-1.6879121.093772894-3.3758242.187545788-4.9699633.187545787-1.6879121.375091575-3.4695971.656410261-5.345055.93772893-6.0952381 2.43809523-11.440293 4.407326-15.9413919 1.96923077-4.5010989 4.21978022-8.4395605 6.84542127-11.6278389 2.5318681-3.1882783 5.251282-5.8139194 8.2520146-7.78315014 2.9069597-1.96923077 5.8139194-3.56336997 8.6271063-4.68864469 2.8131868-1.12527473 5.5326007-1.87545788 8.0644688-2.34432234 2.5318682-.468864474 4.6886447-.656410261 6.5641026-.656410261 1.9692308 0 3.8446886.187545787 5.8139194.468864469 1.8754579.281318682 3.6571429.843956042 5.3450549 1.500366302L51.2937729 25.8813187h0z"/><path d="M56.2637363 42.8542125c.843956-4.9699634 2.1567765-10.0336997 4.1260073-15.0974359 1.9692308-5.0637363 4.5010989-9.5648352 7.5956044-13.6908425 3.1882784-4.0322345 6.9391941-7.40805864 11.2527472-9.93992677C83.5516484 1.59413919 88.6153846.281318681 94.2417582.281318681c4.6886447 0 8.6271058.843956049 11.9091578 2.625641029 3.282051 1.78168498 5.907692 4.12600732 7.970696 7.12673989 2.063003 3.0007326 3.469597 6.3765568 4.407326 10.3150183.937729 3.8446887 1.406593 7.8769231 1.406593 12.0029305 0 1.7816849-.093773 3.469597-.187546 5.251282-.187545 1.781685-.375091 3.4695971-.65641 5.1575092-.843956 4.9699633-2.156776 10.0336996-4.126007 15.0974359-1.969231 5.0637362-4.501099 9.5648351-7.595605 13.6908424-3.188278 4.0322345-6.939194 7.4080587-11.2527469 9.9399268-4.3135531 2.5318681-9.3772894 3.8446886-15.003663 3.8446886-4.6886447 0-8.7208791-.9377289-11.9091575-2.625641-3.1882784-1.781685-5.8139194-4.1260073-7.8769231-7.1267399-1.9692307-3.0007326-3.469597-6.3765568-4.3135531-10.3150183-.9377289-3.8446887-1.4065934-7.970696-1.4065934-12.1904762 0-1.6879121.0937729-3.3758242.1875458-5.1575092 0-1.6879121.1875458-3.3758242.4688645-5.0637362h0zm22.6930403 0c-.1875458 1.0315018-.2813187 2.4380952-.5626374 4.2197802-.1875458 1.781685-.2813187 3.7509157-.2813187 5.8139194 0 1.5003663.0937729 2.9069597.2813187 4.3135531.1875458 1.4065934.4688645 2.625641.9377289 3.7509158.4688645 1.1252747 1.1252748 1.9692307 1.8754579 2.625641.8439561.6564102 1.781685 1.0315018 3.0945055 1.0315018 1.4065934 0 2.625641-.3750916 3.7509158-1.2190476 1.1252747-.8439561 2.0630036-1.9692308 2.9069597-3.2820513.843956-1.3128205 1.5941392-2.8131868 2.1567765-4.5010989.6564103-1.5941392 1.1252747-3.2820513 1.5941392-4.8761905.4688645-1.5941392.7501832-3.0945055 1.0315018-4.5010989.2813187-1.4065934.4688645-2.5318681.5626374-3.469597.1875458-1.0315019.3750916-2.4380953.5626374-4.3135532.2813186-1.8754578.3750915-3.7509157.3750915-5.8139194 0-1.4065934-.0937729-2.9069597-.2813186-4.2197802-.1875458-1.4065934-.4688645-2.625641-.937729-3.7509157-.4688644-1.1252748-1.1252747-1.9692308-1.8754579-2.6256411-.843956-.6564102-1.7816849-1.0315018-3.0945054-1.0315018-1.4065935 0-2.6256411.3750916-3.7509158 1.2190476-1.1252747.8439561-2.0630037 1.9692308-2.9069597 3.2820513-.843956 1.3128205-1.5941392 2.8131868-2.1567766 4.5010989-.6564102 1.5941392-1.1252747 3.2820513-1.5941392 4.8761905-.4688644 1.5941392-.843956 3.0945055-1.1252747 4.5010989-.2813187 1.5003663-.4688644 2.625641-.5626373 3.4695971h0z"/><path d="M131.750916 83.9267399l-6.095238-82.14505492h23.34945V35.5399267c-.093773 3.3758242-.187546 6.6578755-.281318 9.9399268-.187546 3.2820513-.281319 6.5641025-.468865 9.9399267h.187546c1.031502-3.3758242 1.969231-6.6578754 2.719414-9.9399267.843956-3.2820513 1.781685-6.5641026 2.906959-9.9399268l11.346521-33.75824172h24.00586L154.350183 83.9267399h-22.599267 0z"/><path d="M194.391209 1.78168498h41.260073l-2.90696 19.41098902h-19.035897l-1.875458 11.440293h17.066667l-3.094506 19.410989h-17.066666l-1.969231 12.5655678h19.035897l-2.90696 19.410989h-41.260073l12.753114-82.23882782h0z"/><path d="M269.221978 83.9267399l-6.939194-34.2271062-.281319.1875458c-.187546 2.0630037-.468864 4.0322344-.65641 6.0014652-.187546 1.9692308-.468865 4.0322344-.843956 6.0014652l-3.375824 21.9428571h-22.224176L247.56044 1.78168498h21.473992c4.313553 0 8.252015.28131868 11.909158.93772894 3.657143.65641026 6.751648 1.78168498 9.377289 3.28205128 2.625641 1.5941392 4.688645 3.65714286 6.095238 6.3765568 1.406594 2.7194139 2.156777 6.0952381 2.156777 10.2212454 0 1.0315018-.093773 2.0630037-.187546 3.0945055-.093773 1.0315018-.281319 2.1567766-.375092 3.2820513-.750183 4.5948718-2.344322 8.7208791-4.969963 12.378022-2.625641 3.7509157-6.189011 6.4703296-10.971429 8.1582417l11.252748 34.2271062h-24.099634v.1875458zm-3.938462-44.07326c1.406594 0 2.813187-.2813187 4.032235-.8439561 1.219048-.5626374 2.344322-1.4065934 3.188278-2.3443223.937729-.937729 1.687912-2.0630037 2.25055-3.3758242.562637-1.3128205.937729-2.5318681 1.219047-3.8446887.093773-.4688644.093773-.843956.187546-1.2190476 0-.3750915.093773-.7501831.093773-1.1252747 0-2.625641-.750183-4.5010989-2.250549-5.8139194-1.500367-1.2190476-3.469597-1.8754579-6.001466-1.8754579h-.843956l-3.188278 20.2549451 1.31282.1875458h0z"/><path d="M337.113553 83.9267399V73.4241758h-14.90989l-3.469597 10.596337H295.85348l32.445421-82.14505492h27.100366l4.688645 82.14505492h-22.974359v-.0937729zm.093773-27.9443223.562637-19.0358975c.093773-2.5318681.187546-5.1575091.281319-7.6893772.187546-2.6256411.281319-5.1575092.468865-7.6893773h-.187546c-.750183 2.5318681-1.500367 5.1575091-2.156777 7.6893773-.750183 2.625641-1.500366 5.1575091-2.250549 7.6893772l-6.001465 19.0358975h9.283516 0z"/><path d="M365.901832 83.9267399l12.753113-82.14505492h22.224176l-9.846154 62.73406592h16.691575l-2.90696 19.410989h-38.91575 0z"/><path d="M410.912821 83.9267399l12.753113-82.14505492h22.224176l-9.846154 62.73406592h16.691575l-2.90696 19.410989h-38.91575 0z"/><path d="M459.393407 56.2637363c.562637 1.1252747 1.31282 2.2505494 2.156776 3.3758241.843956 1.1252748 1.875458 2.0630037 2.90696 2.9069597 1.125275.8439561 2.250549 1.5941392 3.469597 2.0630037 1.219048.4688645 2.531868.7501832 4.032234.7501832 1.500367 0 3.094506-.4688645 4.594872-1.4065934 1.594139-.937729 2.531868-2.2505495 2.813187-4.1260074.093773-.2813187.093773-.6564102.093773-1.2190476 0-1.2190476-.375092-2.3443223-1.219048-3.3758242-.375091-.5626373-.843956-1.1252747-1.406593-1.5941392-.562638-.4688644-1.125275-1.0315018-1.781685-1.5003663-1.875458-1.6879121-3.657143-3.3758241-5.251282-4.9699633-1.594139-1.6879121-3.000733-3.4695971-4.126008-5.4388279-.843956-1.4065934-1.406593-3.0007326-1.875457-4.6886447-.468865-1.687912-.656411-3.469597-.656411-5.4388278 0-1.3128205.093773-2.7194139.281319-4.2197802.375092-2.4380953 1.219048-5.1575092 2.531868-8.2520147 1.312821-3.0945055 3.094506-6.0952381 5.532601-8.814652 2.344322-2.7194139 5.345055-5.06373625 8.814652-7.03296702 3.56337-1.96923077 7.689377-2.906959705 12.378022-2.906959705 2.719414 0 5.345055.375091575 7.970696 1.125274725 2.625641.75018315 5.063736 1.78168498 7.220513 3.0007326l-3.938462 24.9435897c-.468864-1.0315018-1.125275-2.0630036-1.969231-3.0945054-.843956-1.0315019-1.687912-1.9692308-2.719414-2.8131869-1.031501-.843956-2.156776-1.5003663-3.282051-2.0630036-1.219047-.5626374-2.438095-.8439561-3.750916-.8439561-1.31282 0-2.625641.4688645-4.032234 1.3128205-1.406593.8439561-2.250549 2.0630037-2.531868 3.7509158v.6564103c0 1.4065934.468864 2.7194139 1.500366 3.9384615.468865.6564102 1.031502 1.2190476 1.687912 1.781685.65641.5626373 1.219048 1.0315018 1.781685 1.5941392 2.063004 1.6879121 3.938462 3.2820512 5.532601 4.8761904 1.594139 1.5941392 2.813187 3.2820513 3.750916 5.1575092.750183 1.3128205 1.31282 2.7194139 1.687912 4.2197802.375091 1.5003663.562637 3.1882784.562637 5.0637363 0 1.6879121-.187546 3.3758242-.468864 4.9699634-.562638 3.8446886-1.781685 7.4080586-3.56337 10.6901098-1.781685 3.2820513-4.032235 6.189011-6.751649 8.7208792-2.719414 2.5318681-5.720146 4.5010989-9.189743 5.9076923-3.469597 1.4065934-7.12674 2.1567765-10.971429 2.1567765-5.626373 0-11.065201-1.1252747-16.128938-3.3758241l4.313554-25.7875458h0z"/></g></svg>