<svg width="512px" height="125px" viewBox="0 0 512 125" xmlns="http://www.w3.org/2000/svg" preserveAspectRatio="xMidYMid"><path d="M177.359477 75.8033533c-8.43876 0-13.094629-5.3833475-11.930662-13.0946289 1.309463-7.8567777 7.711282-13.0946294 16.004547-13.0946294 4.364876 0 8.293265 2.0369424 10.621199 5.092356l8.147769-6.6928107c-4.364876-4.9468598-10.621199-7.4202899-17.314009-7.4202899-13.676613 0-25.607275 9.1662404-27.644217 22.115374-2.036943 13.0946289 6.69281 22.1153735 20.514919 22.1153735 6.983802 0 13.967604-2.9099174 20.078431-7.7112814l-5.819835-6.6928107c-4.219381 3.7828929-8.584257 5.3833475-12.658142 5.3833475m54.706451-34.7735152c0 0-1.74595-.2909919-1.891446-.2909919-1.891447-.2909916-3.928389-.1454958-5.819835 0-1.745951.1454962-3.491901.4364877-5.237852 1.0184712-1.454959.4364877-3.055414 1.0184712-4.364876 1.8914466l.290991-2.0369424h-9.893719l-6.692811 42.1938051h9.89372l3.928389-24.5888036c.145495-1.4549589.727479-2.7644217 1.454959-3.9283886.727479-1.1639674 1.74595-2.1824382 2.909917-2.9099178 1.163967-.8729751 2.327934-1.4549589 3.637397-1.8914463 1.309463-.4364877 2.618926-.7274796 4.073885-.8729754 1.891446-.1454958 3.928388 0 5.819835.4364877 0 0 .145496 0 .145496 0 .290991 0 1.74595-9.0207446 1.74595-9.0207446m34.62802 3.2009094c-2.764422-2.327934-6.983802-3.6373971-11.930662-3.6373971-12.36715 0-23.570333 8.8752488-25.752771 21.9698778-2.036943 13.0946294 6.547315 21.9698778 18.477977 21.9698778 5.383347 0 9.893719-.7274793 13.676612-3.3464051l-.290992 2.3279343h9.020745l6.547315-41.9028136h-9.311737l-.436487 2.6189259zm-2.036943 18.3324807h0c-1.309462 8.0022734-7.274794 13.5311171-14.986075 13.5311171-7.856778 0-12.36715-5.8198353-11.057687-13.6766129 1.309463-7.8567776 7.565785-13.3856209 15.277067-13.3856209 7.711282.1454958 11.930662 5.5288433 10.766695 13.5311167h0zm57.470873-20.9514066 1.891446-11.9306621-11.348678 8.1477693-.581984 3.9283886h-12.803637l1.309462-8.0022733c.72748-3.7828929 4.801365-3.637397 4.801365-3.637397h4.801364l1.454958-8.7297528h-5.528843-1.309463c-13.531117 0-13.967604 10.4757034-13.967604 10.4757034l-.872975 4.9468599-.72748 4.9468598h-.872975l-11.057687 8.729753h10.475703l-6.69281 42.6302928h10.184711l6.692811-42.7757889h12.803637l-5.237851 33.4640524h10.039215l5.237852-33.4640524h12.512646l1.454959-8.7297527h-12.658142zm26.916738 21.0969028c2.036942-12.9491336 13.822108-22.115374 27.644217-22.115374 6.692809 0 12.949134 2.6189259 17.314008 7.4202899l-8.147767 6.6928107c-2.327935-3.0554136-6.256325-5.092356-10.621199-5.092356-8.293267 0-14.695085 5.3833475-16.004548 13.0946294-1.163967 7.7112814 3.491901 13.0946289 11.930661 13.0946289 4.073887 0 8.438761-1.6004546 12.658145-5.3833475l5.819834 6.6928107c-6.110828 4.9468598-13.094631 7.7112814-20.078433 7.7112814-13.822108 0-22.551861-9.0207446-20.514918-22.1153735m117.851663-4.5103725-3.92839 25.6072748h-9.893718l3.928386-24.8797955c1.018471-5.8198349-2.182438-9.3117362-7.856776-9.3117362-5.965332 0-11.930664 3.6373971-12.803638 9.6027281l-3.92839 24.5888036h-9.893718l3.92839-24.8797955c.872974-5.6743391-2.473432-9.1662404-7.85678-9.3117362-5.528841.2909919-11.93066 3.7828929-12.803638 9.6027281l-3.928386 24.5888036h-9.893722l6.692813-42.1938051h9.893718l-.29099 2.0369424c3.346402-2.0369424 7.129295-2.9099178 11.93066-3.0554136h.872977c6.110825 0 11.057686 2.4734301 13.676611 6.6928107 4.073884-4.2193806 10.330209-6.6928107 16.586531-6.6928107 10.766696 0 17.314011 7.129298 15.56806 17.6050015m-.436487 20.5149192 6.110825-7.565786c3.346406 2.6189259 9.748225 4.6558682 15.131573 4.6558682 4.946861 0 9.893718-1.0184712 10.475702-4.3648763.436487-2.6189259-4.364877-3.4919013-9.748225-4.3648763-11.203183-1.8914466-16.877521-4.2193806-15.713553-12.6581417 1.745951-10.6211992 12.65814-13.6766128 21.678885-13.6766128 6.401818 0 13.094631 2.1824382 17.605001 5.2378517l-6.110825 7.5657857c-3.491903-2.1824381-8.002273-3.7828928-13.094631-3.7828928-5.965332 0-9.457231 1.7459508-9.893718 4.5103725-.290994 1.8914462 1.309461 2.6189258 8.293263 3.7828928 10.184712 1.7459505 18.623472 3.3464051 17.023018 13.094629-1.309461 8.8752488-10.330205 13.8221086-22.115372 13.8221086-6.547316-.1454958-14.986076-2.4734297-19.641943-6.2563226M111.304348 0H13.0946292C5.81983519 0 0 5.81983519 0 13.0946292v98.2097188c0 7.274794 5.81983519 13.094629 13.0946292 13.094629h98.2097188c7.129298 0 13.094629-5.819835 13.094629-13.094629V13.0946292C124.398977 5.81983519 118.579142 0 111.304348 0M61.9812447 75.8033533c4.0738848 0 8.4387611-1.6004546 12.6581417-5.3833475l5.8198352 6.6928107c-6.1108272 4.9468598-13.0946294 7.7112814-20.0784316 7.7112814-13.8221086 0-22.5518612-9.1662403-20.5149188-22.1153735 2.0369423-12.9491336 13.8221086-22.115374 27.6442172-22.115374 6.6928103 0 12.9491332 2.6189259 17.3140095 7.4202899l-8.1477691 6.6928107c-2.3279344-3.0554136-6.256323-5.092356-10.6211993-5.092356-8.2932653 0-14.695084 5.3833475-16.0045468 13.0946294-1.163967 7.7112814 3.4919009 13.0946289 11.930662 13.0946289" fill="#e5422b"/></svg>