<svg width="256px" height="293px" viewBox="0 0 256 293" xmlns="http://www.w3.org/2000/svg" preserveAspectRatio="xMidYMid"><path d="M252.077707 70.214643 131.902733 1.04251093c-2.414922-1.390014572-5.390544-1.390014572-7.805466 0L3.91968461 70.214643C1.49433086 71.6098734 0 74.1969174 0 76.9952019V215.295132c0 2.798284 1.49433086 5.385328 3.91968461 6.780558L124.097267 291.245215c2.414922 1.390014 5.390544 1.390014 7.805466 0l120.177582-69.169525C254.505669 220.68046 256 218.093416 256 215.295132V76.9952019c0-2.8008924-1.494331-5.3853285-3.922293-6.7805589h0zM118.839726 45.3821501c0 .4668154-.247751.8971201-.651977 1.1292238L75.1990057 71.2812771c-.871041.5007182-.871041 1.7577295 0 2.2610556l42.9861353 24.7412161c.404226.2321037.654585.6624084.654585 1.1292238v17.9763044c0 1.004045-1.08489 1.629942-1.953323 1.129224L38.7535018 73.5501564c-.871041-.5007182-.871041-1.7577295 0-2.2610556l78.1302932-45.0176951c.868433-.5007182 1.955931.1277875 1.955931 1.1292239v17.9815205h0zm98.404164 28.1680063-78.195491 45.0072636c-.868433.500718-1.953322-.127788-1.953322-1.129224V99.4518912c0-.4668154.250359-.8971201.654584-1.1292238l43.051333-24.7777268c.871041-.5007182.871041-1.7577295 0-2.2610556l-43.051333-24.8064139c-.404225-.2321037-.651977-.6624084-.651977-1.1292238V27.3667268c0-1.0040443 1.08489-1.6299421 1.955931-1.1292239l78.195491 45.0542058c.865825.5007182.865825 1.7577295-.005216 2.2584477h0z" fill="#405261"/></svg>