<svg width="256px" height="235px" viewBox="0 0 256 235" xmlns="http://www.w3.org/2000/svg" preserveAspectRatio="xMidYMid"><title>Creat React App</title><path d="M233.805001 104.895991c0-13.0480845-15.358485-24.619027-38.973813-31.6827938 5.681314-23.9940819 3.200473-43.0832963-8.105341-49.5410564-2.772203-1.5396665-5.900503-2.3233743-9.071164-2.2725255-10.548306 0-23.880456 7.3667703-37.34517 20.1118509-13.464713-12.6503921-26.758988-19.9792869-37.288356-19.9792869-3.2198101-.071144-6.3992594.7269894-9.2037284 2.310401-11.2490013 6.4766977-13.57834 25.4522858-7.972777 49.3327415-23.5017015 7.0258914-38.7844356 18.5021453-38.8223807 31.4934162-.0378057 12.991271 15.3774924 24.619026 38.9928201 31.663856-5.6813138 24.013019-3.2194112 43.083296 8.105341 49.541056 2.7619378 1.548246 5.886512 2.332658 9.052227 2.272525 10.567243 0 23.899393-7.36677 37.364107-20.11185 13.445776 12.650392 26.74005 19.979286 37.288356 19.979286 3.218449.059133 6.394787-.738219 9.203728-2.3104 11.249002-6.476698 13.559403-25.452286 7.972777-49.238053 23.501702-7.12058 38.784436-18.596834 38.803374-31.569167zm-84.822015-59.1046017c15.509986-13.8813434 25.206095-15.3774227 28.652759-15.3774227h0c1.598488-.0513557 3.181381.3280155 4.582926 1.0983873 5.416186 3.0868472 7.575085 13.976032 5.851754 28.406569-.441427 3.6852374-1.073532 7.3451236-1.893772 10.9649357-7.847395-1.8239977-15.805549-3.1334872-23.823642-3.9201066-4.774751-6.7003468-9.9877-13.077353-15.604675-19.0892143.700695-.7006954 1.458203-1.4013908 2.23465-2.0831484zm-46.94659 69.8422847c1.477142 2.840657 3.048972 5.681313 4.677615 8.540908 1.628643 2.859595 3.333037 5.757065 5.226809 8.616659-5.13212-.73857-10.112739-1.666518-14.8471671-2.764906 1.3256399-4.810179 3.0110961-9.544607 4.9427431-14.392661zm-5.2457465-36.0574053c4.7912415-1.1173251 9.8097355-2.045273 15.0176065-2.7649061-1.893772 2.8027815-3.522415 5.6813138-5.226809 8.6924101-1.704394 3.0110964-3.200473 5.6813139-4.658677 8.5598462-1.9316471-4.9238053-3.6423538-9.7529221-5.1321205-14.4873502zm9.8665485 25.2629083c2.348276-4.9616803 4.930118-9.9233611 7.745524-14.8850418 2.840657-4.9616807 5.889629-9.7907974 9.033289-14.4115993 5.510875-.4166297 11.192188-.6438823 17.043942-.6249445 5.851753.0189377 11.362627.2272525 16.835626.6628199 3.143661 4.5829265 6.154757 9.4688563 8.995414 14.2979731 2.840657 4.8291167 5.454061 9.885486 7.802337 14.8282286-2.329338 4.961681-4.923805 9.9423-7.726586 14.866105-2.802782 4.923805-5.889629 9.809735-9.033289 14.430537-5.510875.435567-11.192189.643882-17.043942.643882-5.851753 0-11.362627-.24619-16.835626-.681758-3.143661-4.582926-6.173695-9.35523-9.014352-14.297973-2.840656-4.942743-5.359372-9.885486-7.726586-14.828229h-.075751zm62.229324-27.9710012c5.151058.719633 10.131676 1.647581 14.847166 2.7459683-1.40139 4.677615-3.067909 9.4688563-4.999556 14.2979731-1.496079-2.8406569-3.048971-5.6813138-4.696552-8.5409084-1.647581-2.8595947-3.389851-5.738127-5.075307-8.503033h-.075751zm5.226808 47.1927802c1.628644-2.865907 3.181536-5.725502 4.658678-8.578784 1.893771 4.923805 3.787542 9.77186 5.113182 14.506288-4.772303 1.117325-9.790797 2.026335-14.998668 2.745968 1.830645-2.802781 3.598165-5.693939 5.302559-8.673472h-.075751zM140.347389 54.31336c3.408788 3.6360408 6.760763 7.575085 10.036987 11.798195-3.238348-.132564-6.552448-.2272526-9.904423-.2272526-3.351975 0-6.779701 0-10.093801.2272526 3.238349-4.2041723 6.552448-8.1621542 9.961237-11.798195zM98.3435419 31.5881047c1.4367927-.7641526 3.0517511-1.1302971 4.6776151-1.0605119 3.411975.1421921 6.757931.9867398 9.828673 2.4808404 6.940135 3.2721013 13.329077 7.6038037 18.937713 12.8397692l2.215712 2.0263353c-5.559583 5.9679028-10.721723 12.2940538-15.453174 18.9377126-8.061365.7809505-16.063572 2.0840769-23.9562062 3.9011688-.8332593-3.6739162-1.515017-7.2720816-1.8937712-10.737683-1.9695222-14.2979731.3030034-25.2060956 5.6245006-28.3118805l.0189377-.0757509zm-10.01805 96.0142033c-3.5582908-1.086306-7.0598544-2.350409-10.4914928-3.787543-13.445776-5.681313-21.7783696-12.972333-21.7783696-19.20284 0-6.2305076 8.370469-13.4836516 21.7973073-19.0702768 3.3704762-1.3960536 6.8088315-2.6222318 10.3021157-3.6739163 2.3674049 7.8458445 5.2522608 15.5261406 8.635597 22.9903831-3.3113323 7.390059-6.1390075 14.987459-8.4651576 22.744193h0zm43.5567391 36.171031c-15.509987 13.881344-25.206095 15.358485-28.671697 15.358485-1.598678.053232-3.182062-.326257-4.5829264-1.098387-5.4161858-3.086847-7.575085-13.976032-5.8517532-28.406569.439838-3.67921 1.0719599-7.332874 1.8937713-10.945998 7.8496753 1.808223 15.8072123 3.111286 23.8236423 3.901169 4.76895 6.704774 9.982207 13.082157 15.604675 19.089214l-2.215712 2.102086zm8.654535-8.540908c-3.408788-3.636041-6.760764-7.575085-10.055926-11.798195 3.257287.151502 6.571387.227252 9.923362.227252 3.351975 0 6.779701 0 10.093801-.208314-3.276225 4.204172-6.609262 8.143216-9.980175 11.779257h.018938zm42.003847 22.725255c-1.436874.787182-3.059132 1.173123-4.696553 1.117325-3.446664 0-13.256399-1.515017-28.709573-15.339547l-2.215712-2.026335c5.553285-5.968311 10.709098-12.294462 15.434236-18.937713 8.069033-.770007 16.078253-2.073245 23.975144-3.901169.833259 3.673916 1.496079 7.272082 1.893771 10.737683 1.874834 14.279036-.303003 25.187158-5.700251 28.274005l.018938.075751zm20.452729-53.858855c-3.238349 1.32564-6.666075 2.556591-10.302115 3.654979-2.376763-7.845228-5.26787-15.525325-8.654535-22.990383 3.326522-7.3817026 6.166923-14.9729742 8.503033-22.7252557 3.558291 1.0863065 7.059854 2.3504088 10.491493 3.7875426 13.426838 5.6813138 21.778369 12.9723331 21.759464 19.2028411-.01897 6.230507-8.370501 13.4079-21.816278 18.994525l.018938.075751zm-62.645953-1.931636c9.601362.010443 17.39328-7.764523 17.403748-17.365886.010446-9.6013629-7.764517-17.3932835-17.36588-17.4037549-9.601363-.0104504-17.393286 7.7645097-17.403792 17.3658729-.010018 4.612277 1.815154 9.039094 5.07298 12.304025 3.257826 3.264931 7.680655 5.099743 12.292944 5.099743h0zM24.8273413 0v209.545791H256V0L24.8273413 1.42108547e-14zM246.966711 200.53144H33.879568V9.03328895h213.087143V200.53144zM85.9961533 136.332594c-5.6813138 24.013019-3.2194112 43.083296 8.105341 49.541056 2.7619378 1.548246 5.8865117 2.332658 9.0522267 2.272525 10.567244 0 23.899393-7.36677 37.364107-20.11185 13.445776 12.650392 26.74005 19.979286 37.288356 19.979286 3.218449.059133 6.394787-.738219 9.203729-2.3104 11.249001-6.476698 13.559402-25.452286 7.972777-49.238053 23.501701-7.04483 38.784435-18.521083 38.80339-31.493417.018921-12.9723328-15.358502-24.6190261-38.97383-31.6827929 5.681314-23.994082 3.200474-43.0832964-8.105341-49.5410564-2.772202-1.5396665-5.900503-2.3233743-9.071164-2.2725255-10.548306 0-23.880456 7.3667702-37.345169 20.1118508-13.464714-12.650392-26.758988-19.9792868-37.288357-19.9792868-3.2198098-.0711441-6.3992592.7269893-9.2037281 2.3104009-11.2490013 6.4766978-13.57834 25.4522859-7.972777 49.3327415-23.5017015 7.0258914-38.7844356 18.5021453-38.8223806 31.4934164-.0378059 12.991271 15.39643 24.5054 39.0117577 31.588105h-.0189377zm45.8482027 27.440745c-15.509987 13.881344-25.206096 15.358485-28.671697 15.358485-1.598679.053232-3.1820622-.326257-4.5829268-1.098387-5.4161858-3.086847-7.5750851-13.976032-5.8517532-28.406569.439838-3.67921 1.0719598-7.332874 1.8937713-10.945998 7.8496747 1.808223 15.8072127 3.111286 23.8236427 3.901169 4.76895 6.704774 9.982207 13.082157 15.604675 19.089214l-2.215712 2.102086zm46.946589-69.8612218c-1.496079-2.8406569-3.048971-5.6813138-4.696552-8.5409084-1.647581-2.8595947-3.408789-5.6813138-5.151058-8.503033 5.151058.719633 10.131676 1.647581 14.847167 2.7459683-1.382453 4.677615-3.048972 9.4688563-4.980619 14.2979731h-.018938zm5.151058 35.9816538c-4.772303 1.117325-9.790797 2.026336-14.998668 2.745969 1.780145-2.802782 3.522414-5.693939 5.226809-8.673473 1.704394-2.979533 3.257286-5.839128 4.658677-8.578784 1.98846 5.018494 3.711792 9.828673 5.075307 14.600977l.037875-.094689zm-9.866548-25.281846c-2.329339 4.961681-4.923805 9.942299-7.726587 14.866104-2.802781 4.923806-5.889628 9.809735-9.033289 14.430537-5.510874.435568-11.192188.643883-17.043941.643883-5.851753 0-11.362628-.246191-16.835627-.681758-3.14366-4.582927-6.173694-9.35523-9.014351-14.297973-2.840657-4.942743-5.435124-9.885486-7.802338-14.828229 2.348277-4.9616809 4.930118-9.9233616 7.745525-14.8850423 2.840657-4.9616808 5.889629-9.7907975 9.033289-14.4115994 5.510874-.4166297 11.192188-.6438822 17.043941-.6249445 5.851753.0189377 11.362628.2272525 16.835627.6628199 3.14366 4.5829265 6.154756 9.4688564 8.995413 14.2979731 2.840657 4.8291167 5.472999 9.9801746 7.821276 14.9229172l-.018938-.094688zm-62.134635 28.179316c-5.13212-.73857-10.112739-1.666518-14.8471671-2.764906 1.4013907-4.658677 3.0868471-9.468856 5.0184941-14.297973 1.477141 2.840657 3.048972 5.681314 4.677615 8.540909 1.628643 2.859594 3.257286 5.662376 5.151058 8.52197zm-5.283622-47.3442814c-1.647581 2.8406569-3.200474 5.6813138-4.658678 8.5598461-1.982147-4.8859298-3.7181038-9.6961089-5.2078705-14.430537 4.7912415-1.1173251 9.8097355-2.045273 15.0176065-2.7649061-1.761208 2.8027815-3.446664 5.7002515-5.151058 8.635597zm33.86063 69.7854714c-3.408788-3.636041-6.760763-7.575085-10.055925-11.798195 3.257286.151502 6.571386.227252 9.923361.227252 3.351975 0 6.779701 0 10.093801-.208314-3.257287 4.204172-6.590324 8.143216-9.961237 11.779257zm42.003847 22.725255c-1.436874.787182-3.059131 1.173123-4.696553 1.117325-3.446664 0-13.256399-1.515017-28.709572-15.339547l-2.215713-2.026335c5.553285-5.968311 10.709099-12.294462 15.434236-18.937713 8.069033-.770007 16.078253-2.073245 23.975144-3.901169.83326 3.673916 1.49608 7.272082 1.893772 10.737683 1.893771 14.279036-.284066 25.187158-5.681314 28.274005v.075751zm9.999112-95.9384524c3.558291 1.0863064 7.059855 2.3504088 10.491493 3.7875426 13.426838 5.6813138 21.77837 12.9723331 21.759464 19.2028408-.01897 6.230507-8.351563 13.559402-21.79734 19.146027-3.238348 1.32564-6.666074 2.556592-10.302115 3.654979-2.376762-7.845228-5.26787-15.525325-8.654535-22.990383 3.332711-7.4309669 6.173183-15.0730387 8.503033-22.8767572v.0757508zm-43.556739-36.1520935c15.509987-13.8813434 25.206096-15.3774227 28.652759-15.3774227h0c1.598488-.0513557 3.181382.3280155 4.582927 1.0983873 5.416186 3.0868472 7.575085 13.976032 5.851753 28.4065691-.441427 3.6852374-1.073532 7.3451236-1.893771 10.9649356-7.847396-1.8239977-15.80555-3.1334872-23.823643-3.9201065-4.77475-6.7003468-9.9877-13.0773531-15.604675-19.0892144.719633-.7764462 1.477141-1.4771416 2.253588-2.1588992l-.018938.0757508zm-8.616659 8.4462199c3.408788 3.6360408 6.760763 7.575085 10.036987 11.798195-3.238348-.132564-6.552448-.2272526-9.904423-.2272526-3.351975 0-6.779701 0-10.093801.2272526 3.238349-4.2041723 6.552448-8.1621542 9.961237-11.798195zM98.3435419 31.5881047c1.4367927-.7641526 3.0517511-1.1302971 4.6776151-1.0605119 3.411975.1421921 6.757931.9867398 9.828673 2.4808404 6.940135 3.2721013 13.329077 7.6038037 18.937713 12.8397692l2.215712 2.0263353c-5.559583 5.9679028-10.721723 12.2940538-15.453174 18.9377126-8.061365.7809505-16.063572 2.0840769-23.9562062 3.9011688-.8332593-3.6739162-1.515017-7.2720816-1.8937712-10.737683-1.9695222-14.2979731.3030034-25.2060956 5.6245006-28.3118805l.0189377-.0757509zM77.8529368 85.5416482c3.3704762-1.3960536 6.8088315-2.6222318 10.3021157-3.6739163 2.3674049 7.8458445 5.2522608 15.5261406 8.635597 22.9903831-3.3234436 7.38297-6.1637684 14.974038-8.503033 22.725255-3.5582909-1.086306-7.0598544-2.350408-10.4914928-3.787542-13.445776-5.681314-21.7783696-12.972333-21.7783696-19.202841 0-6.2305073 8.4083444-13.4647136 21.8351827-19.0513388zm62.4944522 1.8937712c-9.601363-.0104533-17.393281 7.764513-17.403748 17.3658756-.010447 9.601363 7.764516 17.393283 17.365879 17.403755 9.601363.01045 17.393286-7.76451 17.403751-17.365873.035334-4.628644-1.77867-9.079856-5.039242-12.3653182-3.260572-3.2854622-7.697861-5.1331279-12.32664-5.1331279v.0946885zm0 0c-9.601363-.0104533-17.393281 7.764513-17.403748 17.3658756-.010447 9.601363 7.764516 17.393283 17.365879 17.403755 9.601363.01045 17.393286-7.76451 17.403751-17.365873.035334-4.628644-1.77867-9.079856-5.039242-12.3653182-3.260572-3.2854622-7.697861-5.1331279-12.32664-5.1331279v.0946885zm0 0c-9.601363-.0104533-17.393281 7.764513-17.403748 17.3658756-.010447 9.601363 7.764516 17.393283 17.365879 17.403755 9.601363.01045 17.393286-7.76451 17.403751-17.365873.035334-4.628644-1.77867-9.079856-5.039242-12.3653182-3.260572-3.2854622-7.697861-5.1331279-12.32664-5.1331279v.0946885zm93.457612 17.4984466c0-13.0480841-15.358485-24.6190265-38.973813-31.6827934 5.681314-23.9940819 3.200473-43.0832963-8.105341-49.5410563-2.772203-1.5396666-5.900503-2.3233744-9.071164-2.2725255-10.548306 0-23.880456 7.3667702-37.34517 20.1118508-13.464713-12.6503921-26.758988-19.9792869-37.288356-19.9792869-3.2198101-.071144-6.3992594.7269894-9.2037284 2.310401-11.2490013 6.4766977-13.57834 25.4522858-7.972777 49.3327415-23.5017015 7.0258914-38.7844356 18.5021453-38.8223807 31.4934158-.0378057 12.991271 15.3774924 24.619027 38.9928201 31.663856-5.6813138 24.01302-3.2194112 43.083296 8.105341 49.541056 2.7619378 1.548247 5.886512 2.332659 9.052227 2.272526 10.567243 0 23.899393-7.36677 37.364107-20.111851 13.445776 12.650392 26.74005 19.979287 37.288356 19.979287 3.218449.059133 6.394787-.73822 9.203728-2.310401 11.249002-6.476698 13.559403-25.452286 7.972777-49.238053 23.501702-7.158455 38.784436-18.634709 38.803374-31.607042v.037875zm-84.822015-59.1424767c15.509986-13.8813434 25.206095-15.3774227 28.652759-15.3774227h0c1.598488-.0513557 3.181381.3280155 4.582926 1.0983873 5.416186 3.0868472 7.575085 13.976032 5.851754 28.406569-.441427 3.6852374-1.073532 7.3451236-1.893772 10.9649357-7.847395-1.8239977-15.805549-3.1334872-23.823642-3.9201066-4.774751-6.7003468-9.9877-13.077353-15.604675-19.0892143.700695-.7006954 1.458203-1.4013908 2.23465-2.0831484zm-46.94659 69.8422847c1.477142 2.840657 3.048972 5.681313 4.677615 8.540908 1.628643 2.859595 3.333037 5.757065 5.226809 8.616659-5.13212-.73857-10.112739-1.666518-14.8471671-2.764906 1.3256399-4.810179 3.0110961-9.544607 4.9427431-14.392661zm-5.2457465-36.0574053c4.7912415-1.1173251 9.8097355-2.045273 15.0176065-2.7649061-1.893772 2.8027815-3.522415 5.6813138-5.226809 8.6924101-1.704394 3.0110964-3.200473 5.6813139-4.658677 8.5598462-1.9316471-4.9238053-3.6423538-9.7529221-5.1321205-14.4873502zm9.8665485 25.2629083c2.348276-4.9616803 4.930118-9.9233611 7.745524-14.8850418 2.840657-4.9616807 5.889629-9.7907974 9.033289-14.4115993 5.510875-.4166297 11.192188-.6438823 17.043942-.6249445 5.851753.0189377 11.362627.2272525 16.835626.6628199 3.143661 4.5829265 6.154757 9.4688563 8.995414 14.2979731 2.840657 4.8291167 5.454061 9.885486 7.802337 14.8282286-2.329338 4.961681-4.923805 9.9423-7.726586 14.866105-2.802782 4.923805-5.889629 9.809735-9.033289 14.430537-5.510875.435567-11.192189.643882-17.043942.643882-5.851753 0-11.362627-.24619-16.835626-.681758-3.143661-4.582926-6.173695-9.35523-9.014352-14.297973-2.840656-4.942743-5.359372-9.885486-7.726586-14.828229h-.075751zm62.229324-27.9710012c5.151058.719633 10.131676 1.647581 14.847166 2.7459683-1.40139 4.677615-3.067909 9.4688563-4.999556 14.2979731-1.496079-2.8406569-3.048971-5.6813138-4.696552-8.5409084-1.647581-2.8595947-3.389851-5.738127-5.075307-8.503033h-.075751zm5.226808 47.1927802c1.628644-2.865907 3.181536-5.725502 4.658678-8.578784 1.893771 4.923805 3.787542 9.77186 5.113182 14.506288-4.772303 1.117325-9.790797 2.026335-14.998668 2.745968 1.830645-2.802781 3.598165-5.693939 5.302559-8.673472h-.075751zM140.347389 54.31336c3.408788 3.6360408 6.760763 7.575085 10.036987 11.798195-3.238348-.132564-6.552448-.2272526-9.904423-.2272526-3.351975 0-6.779701 0-10.093801.2272526 3.238349-4.2041723 6.552448-8.1621542 9.961237-11.798195zM98.3435419 31.5881047c1.4367927-.7641526 3.0517511-1.1302971 4.6776151-1.0605119 3.411975.1421921 6.757931.9867398 9.828673 2.4808404 6.940135 3.2721013 13.329077 7.6038037 18.937713 12.8397692l2.215712 2.0263353c-5.559583 5.9679028-10.721723 12.2940538-15.453174 18.9377126-8.061365.7809505-16.063572 2.0840769-23.9562062 3.9011688-.8332593-3.6739162-1.515017-7.2720816-1.8937712-10.737683-1.9695222-14.2979731.3030034-25.2060956 5.6245006-28.3118805l.0189377-.0757509zm-10.01805 96.0142033c-3.5582908-1.086306-7.0598544-2.350409-10.4914928-3.787543-13.445776-5.681313-21.7783696-12.972333-21.7783696-19.20284 0-6.2305076 8.370469-13.4836516 21.7973073-19.0702768 3.3704762-1.3960536 6.8088315-2.6222318 10.3021157-3.6739163 2.3674049 7.8458445 5.2522608 15.5261406 8.635597 22.9903831-3.3113323 7.390059-6.1390075 14.987459-8.4651576 22.744193h0zm43.5567391 36.171031c-15.509987 13.881344-25.206095 15.358485-28.671697 15.358485-1.598678.053232-3.182062-.326257-4.5829264-1.098387-5.4161858-3.086847-7.575085-13.976032-5.8517532-28.406569.439838-3.67921 1.0719599-7.332874 1.8937713-10.945998 7.8496753 1.808223 15.8072123 3.111286 23.8236423 3.901169 4.76895 6.704774 9.982207 13.082157 15.604675 19.089214l-2.215712 2.102086zm8.654535-8.540908c-3.408788-3.636041-6.760764-7.575085-10.055926-11.798195 3.257287.151502 6.571387.227252 9.923362.227252 3.351975 0 6.779701 0 10.093801-.208314-3.276225 4.204172-6.609262 8.143216-9.980175 11.779257h.018938zm42.003847 22.725255c-1.436874.787182-3.059132 1.173123-4.696553 1.117325-3.446664 0-13.256399-1.515017-28.709573-15.339547l-2.215712-2.026335c5.553285-5.968311 10.709098-12.294462 15.434236-18.937713 8.069033-.770007 16.078253-2.073245 23.975144-3.901169.833259 3.673916 1.496079 7.272082 1.893771 10.737683 1.874834 14.279036-.303003 25.187158-5.700251 28.274005l.018938.075751zm20.452729-53.858855c-3.238349 1.32564-6.666075 2.556591-10.302115 3.654979-2.376763-7.845228-5.26787-15.525325-8.654535-22.990383 3.326522-7.3817026 6.166923-14.9729742 8.503033-22.7252557 3.558291 1.0863065 7.059854 2.3504088 10.491493 3.7875426 13.426838 5.6813138 21.778369 12.9723331 21.759464 19.2028411-.01897 6.230507-8.370501 13.4079-21.816278 18.994525l.018938.075751zm-62.645953-1.931636c9.601362.010443 17.39328-7.764523 17.403748-17.365886.010446-9.6013629-7.764517-17.3932835-17.36588-17.4037549-9.601363-.0104504-17.393286 7.7645097-17.403792 17.3658729-.010018 4.612277 1.815154 9.039094 5.07298 12.304025 3.257826 3.264931 7.680655 5.099743 12.292944 5.099743h0zM9.07116437 225.377719V15.7561769L0 24.846279v209.564729h231.134783l9.052227-9.033289H9.07116437z" fill="#09d3ac"/></svg>