<svg width="256px" height="540px" viewBox="0 0 256 540" xmlns="http://www.w3.org/2000/svg" preserveAspectRatio="xMidYMid"><title>Crossplane</title><defs><path d="M.13671987 122.022484c-.1803450246 4.15454-.1712208975 8.315142.027343973 12.468852C.109375896 135.557751 8.72789896e-15 136.610494 8.72789896e-15 137.690581v210.042735c0 40.168298 32.7854247 73.035755 72.85801849999999 73.035755H182.507354c40.058922 0 72.858018-32.867457 72.858018-73.035755V137.690581c0-1.230479-.13672-2.40627-.191407-3.609405.199035-4.016991.203598-8.04126.013672-12.058692C252.097767 54.1000524 196.179341 3.79473868e-15 127.669014 3.79473868e-15 59.1450156 3.79473868e-15 3.22658892 54.1000524.13671987 122.008812v.013672z" id="d"/><path d="M.13671987 122.022484c-.1803450246 4.15454-.1712208975 8.315142.027343973 12.468852C.109375896 135.557751 8.72789896e-15 136.610494 8.72789896e-15 137.690581v210.042735c0 40.168298 32.7854247 73.035755 72.85801849999999 73.035755H182.507354c40.058922 0 72.858018-32.867457 72.858018-73.035755V137.690581c0-1.230479-.13672-2.40627-.191407-3.609405.199035-4.016991.203598-8.04126.013672-12.058692C252.097767 54.1000524 196.179341 3.79473868e-15 127.669014 3.79473868e-15 59.1450156 3.79473868e-15 3.22658892 54.1000524.13671987 122.008812v.013672z" id="e"/><path d="M.13671987 122.022484c-.1803450246 4.15454-.1712208975 8.315142.027343973 12.468852C.109375896 135.557751 8.72789896e-15 136.610494 8.72789896e-15 137.690581v210.042735c0 40.168298 32.7854247 73.035755 72.85801849999999 73.035755H182.507354c40.058922 0 72.858018-32.867457 72.858018-73.035755V137.690581c0-1.230479-.13672-2.40627-.191407-3.609405.199035-4.016991.203598-8.04126.013672-12.058692C252.097767 54.1000524 196.179341 3.79473868e-15 127.669014 3.79473868e-15 59.1450156 3.79473868e-15 3.22658892 54.1000524.13671987 122.008812v.013672z" id="f"/></defs><path d="M126.758707 173.661578c-17.688464.030179-32.0075675 14.385998-31.9924755 32.074482v301.877472c-.0108587 8.495805 3.3536511 16.647968 9.3534005 22.663101 5.99975 6.015134 14.14327 9.400509 22.639075 9.41138 17.677879 0 32.006134-14.355586 32.006134-32.074481V205.73606c.015106-17.688484-14.303997-32.044303-31.992462-32.074482" fill="#f7d186"/><path d="M255.179681 134.094848c.185636-4.017421.185636-8.041272 0-12.058692C252.117156 54.1137244 196.198729 0 127.67473 0 59.1507318 0 3.23230516 54.1137244.142436107 122.036156c-.1943702811 4.154122-.1898077324 8.315166.013671987 12.468852-.041015961 1.066415-.15039185616 2.119158-.15039185616 3.199245v210.042735c0 40.168298 32.78542476216 73.035755 72.85801846216 73.035755H182.51307c40.058922 0 72.844347-32.867457 72.844347-73.035755V137.704253c0-1.230479-.123048-2.40627-.177736-3.609405" fill="#ff9234"/><g transform="translate(.6346 .0137)"><mask id="a" fill="#fff"><use href="#d"/></mask><path fill="#ffcd3c" mask="url(#a)" d="M331.873811 126.028376 15.1895775 443.464569-78.600253 349.442315 238.070309 32.0061215z"/><mask id="b" fill="#fff"><use href="#e"/></mask><path fill="#f3807b" mask="url(#b)" d="M237.783197 31.7053378-78.8873647 349.141531-195.591445 232.150339 121.051773-85.2858546z"/><mask id="c" fill="#fff"><use href="#f"/></mask><path fill="#35d0ba" mask="url(#c)" d="M425.964426 220.351414 109.293864 537.773935l-93.7898308-94.022254L332.174595 126.329159z"/></g><path fill="#d8ae64" d="M103.44797 421.138214l55.508267 55.644987v-56.109834l-55.508267.464847"/></svg>