<svg width="256px" height="264px" viewBox="0 0 256 264" xmlns="http://www.w3.org/2000/svg" preserveAspectRatio="xMidYMid"><defs><linearGradient x1="50%" y1="99.3303571%" x2="50%" y2="1.78571429%" id="a"><stop stop-color="#0052cc" offset="18%"/><stop stop-color="#2684ff" offset="100%"/></linearGradient></defs><path d="M128 0C57.299639 0 0 24.1549065 0 53.8969478c.0268595606 1.5225701.181433131 3.0402016.462093863 4.5369216L23.0206761 176.813915c9.5165976 50.501915 53.6305845 87.079453 105.0213329 87.079453 51.390747 0 95.504734-36.577538 105.021332-87.079453l22.474565-118.3800456c.278335-1.482909.432898-2.9863917.462094-4.494913C256 24.1549065 198.700361 0 128 0zm0 196.053823c-36.967509 0-33.9008861-85.90745-75.3212996-98.5940265-3.4446997-1.0502133-6.7213653-2.1844437-9.9140138-3.4026912C70.1608199 84.5580566 99.0071161 79.9233141 128 80.3623236c28.992884-.4390095 57.83918 4.195733 85.235313 13.6947817-3.192648 1.176239-6.469314 2.3524779-9.914013 3.4026912C161.900886 110.062356 165.009518 196.053823 128 196.053823z" fill="#2684ff"/><path d="M42.7646866 94.0991139C70.1606084 84.5992247 99.0070536 79.9644582 128 80.4043321c28.992946-.4398739 57.839392 4.1948926 85.235313 13.6947818C239.448638 84.2271086 256 69.9021989 256 53.8969478 256 24.1549065 198.700361 0 128 0 57.299639 0 0 24.1549065 0 53.8969478c0 15.9632426 16.5093535 30.3301608 42.7646866 40.2021661z" fill="url(#a)"/></svg>