<svg width="256px" height="361px" viewBox="0 0 256 361" xmlns="http://www.w3.org/2000/svg" preserveAspectRatio="xMidYMid"><path d="M127.843868 360.087912l-104.1821537-28.92167L.445186813 70.7657143H255.554813L232.31367 331.125451l-104.469802 28.962461h0z" fill="#264de4"/><path d="M212.416703 314.546637l19.861099-222.4893183H128V337.950242l84.416703-23.403605h0z" fill="#2965f1"/><g style="fill:#ebebeb"><path d="M53.6685714 188.636132l2.8624176 31.936703H128v-31.936703H53.6685714h0z"/><path d="M47.917011 123.994725l2.9032088 31.937407H128v-31.937407H47.917011h0z"/><path d="M128 271.580132l-.139956.037275-35.5685275-9.60422-2.2737583-25.471297H57.957978l4.4743736 50.145758 65.4206594 18.161231.146989-.040791v-33.227956h0z"/></g><path d="M60.4835165 0h38.6813187v16.1758242H76.6593407v16.1758242h22.5054945v16.1758241H60.4835165V0h0z"/><path d="M106.901099 0h38.681319v14.0659341h-22.505495v2.8131868h22.505495v32.3516483h-38.681319V34.4615385h22.505494v-2.8131869h-22.505494V0h0z"/><path d="M153.318681 0H192v14.0659341h-22.505495v2.8131868H192v32.3516483h-38.681319V34.4615385h22.505495v-2.8131869h-22.505495V0h0z"/><path d="M202.126769 188.636132l5.765627-64.641407h-80.002814v31.937407h45.00255l-2.906022 32.704h-42.096528v31.936703h39.326945l-3.707076 41.419956-35.619869 9.614066v33.22655l65.472704-18.145759.480351-5.395692 7.504879-84.079824.779253-8.576h0z" fill="#fff"/></svg>