<svg width="256px" height="311px" viewBox="0 0 256 311" xmlns="http://www.w3.org/2000/svg" preserveAspectRatio="xMidYMid"><defs><linearGradient x1="50.0024502%" y1="0.00264964471%" x2="50.0018377%" y2="99.9995182%" id="a"><stop stop-color="#5c70b5"/><stop stop-color="#507dbf" offset=".675"/><stop stop-color="#428bca" offset="1"/></linearGradient><linearGradient x1="49.9987934%" y1="-27.1396166%" x2="49.9987934%" y2="124.764745%" id="b"><stop stop-color="#5c70b5"/><stop stop-color="#507dbf" offset=".675"/><stop stop-color="#428bca" offset="1"/></linearGradient><linearGradient x1="50.0100865%" y1="-36.8545297%" x2="50.0100865%" y2="134.212088%" id="c"><stop stop-color="#5c70b5"/><stop stop-color="#507dbf" offset=".675"/><stop stop-color="#428bca" offset="1"/></linearGradient><linearGradient x1="49.9982578%" y1="-45.8695652%" x2="49.9982578%" y2="142.961161%" id="d"><stop stop-color="#5c70b5"/><stop stop-color="#507dbf" offset=".675"/><stop stop-color="#428bca" offset="1"/></linearGradient><linearGradient x1="49.9978275%" y1="-62.7904986%" x2="49.9978275%" y2="159.334475%" id="e"><stop stop-color="#5c70b5"/><stop stop-color="#507dbf" offset=".675"/><stop stop-color="#428bca" offset="1"/></linearGradient></defs><path d="M101.722929 20.8259964c-6.2297997 0-11.139031 3.0291001-14.682929 9.1619089-3.5588197 6.1104262-6.028357 12.8550237-7.3489253 20.1741056L67.343388 110.557494c-1.7756794 7.818958-4.3944335 14.444182-7.8488015 19.905515-3.4767504 5.43149-7.0654135 9.907993-10.8405974 13.332517-3.7975665 3.454368-7.5205246 6.110427-11.1987177 8.020401-3.6632714 1.880131-6.5431548 3.058944-8.512816 3.536437l-.3208161.947527c1.5593152.261129 3.543898.925144 6.0059745 2.021887 2.439694 1.089282 4.8271622 2.932109 7.1847869 5.498637 2.3352423 2.551607 4.3347468 5.774689 6.0208962 9.676707 1.656306 3.902018 2.4919199 8.863475 2.4919199 14.839607 0 2.021887-.2163643 3.999009-.6714755 6.013435-.4625719 2.021887-.8953005 4.230295-1.3354899 6.699832l-12.3476867 60.082128c-.6714754 3.805027-.9922915 7.535446-.9922915 11.347934 0 5.133057.6640146 9.378274 2.0069654 12.855024 1.3504117 3.46929 4.3347468 5.140517 9.020153 5.140517h16.6824335l-4.3347468 20.024889H34.9857341c-3.3573771 0-6.7296758-.664014-10.1840438-2.006965-3.4767504-1.350412-6.4983898-3.215621-9.1768306-5.662776-2.6933624-2.40239-4.8271621-5.550864-6.51331143-9.340969-1.65630601-3.812488-2.49191985-8.132314-2.49191985-12.99678 0-2.021887.11191256-4.192991.32081602-6.543155.20890347-2.327781.55956285-4.707788 1.00721312-7.169865l12.66850274-60.388022c.4327286-2.462076.783388-4.842084.9922914-7.21463.2089035-2.327781.3133552-4.491424.3133552-6.505851 0-7.781654-2.0368087-13.936845-6.1551912-18.510338-4.1109217-4.551111-9.08730058-6.863971-14.84706743-6.863971l4.99876138-22.688408c3.543898 0 7.18478685-.932605 10.84059745-2.827658 3.6632714-1.887592 7.132561-4.476503 10.3407213-7.83388 3.2156211-3.334994 6.1328088-7.438455 8.699337-12.340225 2.5516065-4.916693 4.5063461-10.348183 5.8343752-16.361618l12.6685028-60.7759854c1.3354899-7.1101785 3.6707322-13.3772823 6.9982659-18.8609982 3.3349945-5.4314899 7.1251002-10.0049836 11.3479344-13.6607941 4.2079126-3.67073227 8.6694936-6.46854648 13.3623607-8.34121679C90.6808889 1.71879053 95.1350091.763803279 99.3354608.763803279h23.3822662L118.397902 20.7886922H101.73039l-.007461.0373042h0z" fill="url(#a)"/><path d="M152.583461 56.0859162l-39.62451 203.9196208H90.7480364L130.327781 56.0859162h22.25568 0z" fill="url(#b)"/><path d="M190.976933 67.4786157 155.082842 248.575534h-15.884124l36.020925-181.0969183h15.75729 0 0z" fill="url(#c)"/><path d="M226.535286 76.0063534 194.490987 240.055257h-10.78091L215.79914 76.0063534h10.736146 0z" fill="url(#d)"/><path d="M255.080452 88.309275 226.75165 227.767257h-6.013435l28.209428-139.457982h6.132809 0z" fill="url(#e)"/></svg>