<svg width="256px" height="293px" viewBox="0 0 256 293" xmlns="http://www.w3.org/2000/svg" preserveAspectRatio="xMidYMid"><title>Cucumber</title><path d="M190.207416 22.9871061c-2.219801-1.3327212-4.490051-2.5792571-6.810752-3.7396074-2.371151-1.1603504-4.805364-2.2891695-7.277415-3.2666386-.781975-.3279251-1.557644-.6306252-2.345926-.9396316-2.163044-.800894-4.345007-1.6900755-6.571114-2.3396195C123.828598-1.78125297 75.9992907 9.09703798 43.1562432 40.9146063 10.3131956 72.7321746-2.07633217 120.192468 11.0238323 164.003529c13.1001645 43.811062 49.5092854 76.679827 94.4275557 85.245595v35.062761c73.631799-11.05486 138.838446-69.236341 143.700566-145.630279 2.89457-45.9662709-20.135863-92.8910924-58.944538-115.6944999z" fill="#23d96c"/><g style="fill:#173647"><path d="M98.7919863 292.024431v-37.427606c-46.0190749-11.116052-82.2625254-46.528619-94.44266872-92.277565C-7.8308257 116.570315 6.00635759 67.8243412 40.4060533 35.2976935 74.8057489 2.77104579 124.24933-8.31813518 169.245434 6.40166322c1.727913.50450017 3.512583 1.17926914 5.246802 1.83511935l1.56395.58648144c1.040532.40360013 1.83512.71260648 2.629708 1.05314409 2.194575.8639565 4.66032 1.9738569 7.617952 3.4242949 2.476255 1.2402295 4.899958 2.5708487 7.271109 3.9918575 40.315869 23.6862827 65.294933 72.6354112 62.160726 121.8115645-4.81167 75.675025-67.615634 139.506908-149.325742 151.772568l-7.6179527 1.147738zM129.061996 13.1983692h-.163962C69.0358246 12.9044451 18.8120164 58.2761915 13.0447211 117.860666c-5.76729537 59.584475 34.8224736 113.746241 93.6300799 124.937162l5.360315 1.040531v32.666386c71.840823-14.025105 126.181797-71.084073 130.45113-138.245658 2.825201-44.3518703-19.549382-88.4010409-55.684206-109.621579l-.05045-.0315313c-2.087369-1.2612504-4.231495-2.427907-6.369315-3.4999699-2.579257-1.2612504-4.742301-2.2387195-6.753996-3.0333072-.813506-.3468439-1.488275-.6306252-2.16935-.8702628l-1.702688-.6306252c-1.557645-.5927877-3.033308-1.1540441-4.464827-1.5702568-11.688966-3.8391651-23.913509-5.797476-36.216805-5.8031856h-.012613z"/><path d="M104.335182 66.7209641c3.7589-.467598 7.503356.9705757 9.982797 3.8342013 1.891384 2.0684001 3.441127 4.4249467 4.590951 6.981021 4.067533 8.9674904 6.476521 21.8259384 1.450438 29.0402906-10.699984-2.73908-19.788208-9.7863908-25.1051891-19.4674-1.3295001-2.6240734-2.0759745-5.504561-2.1882695-8.4440715.1783056-6.2654111 5.0247977-11.4020961 11.2692726-11.9440414h0zM68.4967514 117.328637c2.4121635 1.781848 4.9833693 3.33766 7.681015 4.647708 9.8902249 4.266941 21.1599762 3.948443 30.7934286-.870263-3.768611-9.826469-11.3890774-17.686142-21.0944129-21.7565697-2.8623234-1.2851877-5.9564086-1.9739542-9.0936155-2.024307-.6693589-.0568723-1.3423355-.0568723-2.0116944 0-4.6964057.1908021-8.7674173 3.3095657-10.1742227 7.7943767-1.4068055 4.484812.1535021 9.37002 3.8995019 12.209055zM106.964889 138.978c-4.899958-3.266638-15.0025737-1.948632-20.8863069-1.841425-3.6129168.051345-7.1813143.805292-10.5062159 2.2198-2.8522338 1.008543-5.4666857 2.592669-7.681015 4.654014-3.7726793 3.30729-4.9550565 8.684296-2.9178225 13.269157 2.0372341 4.584861 6.8202497 7.311208 11.8033317 6.727969 3.1452326.021102 6.254335-.671007 9.0936154-2.024307 9.055778-3.909877 19.8079382-14.630505 21.1007192-23.005208h-.006306zm16.459318 12.612504c-10.498713 3.886418-18.972583 11.864235-23.4844828 22.10972-1.27827 2.578811-1.9695898 5.4087-2.024307 8.286415-.1155525 4.988121 2.8609768 9.529513 7.4809148 11.413888 4.619938 1.884374 9.923606.720299 13.329717-2.925673 1.711002-2.415008 3.18908-4.986864 4.414376-7.681015 3.916183-8.406234 5.461215-23.459257.290088-31.203335h-.006306zm16.125086-45.196908c10.274463-3.016895 18.766964-10.2860167 23.333133-19.9719005 1.273218-2.6518006 1.95939-5.54706 2.011694-8.4882152.144789-6.4772245-4.847417-11.9146665-11.313416-12.3224165-3.826742-.4177033-7.610156 1.0980268-10.090003 4.0423075-1.723199 2.4129107-3.211931 4.9849339-4.445908 7.681015-3.909876 9.0431655-5.309864 21.9457572.510807 29.0276787l-.006307.031531zm26.536709 76.400243c-.057347-2.939929-.747799-5.832946-2.024307-8.481909-4.166933-9.769129-12.329818-17.277421-22.41242-20.615138-5.016198 9.15745-5.541775 20.11318-1.425213 29.708754 1.084098 2.577262 2.574479 4.964 4.414377 7.069308 7.144983 7.75669 22.103413 2.018001 21.453869-7.681015h-.006306zm26.486259-39.603262c-2.413899-1.70926-4.983494-3.187252-7.674709-4.414377-3.325338-1.413124-6.89346-2.167014-10.506216-2.219801-6.890613-.574758-13.813339.630422-20.104332 3.49997 3.718616 9.70264 11.28868 17.432506 20.911532 21.35297 2.863226 1.281675 5.957013 1.968229 9.093616 2.018 5.054861.578623 9.87728-2.276942 11.800228-6.987431 1.922948-4.710488.476643-10.125114-3.539038-13.249331h.018919z"/></g></svg>