<svg width="512px" height="154px" viewBox="0 0 512 154" xmlns="http://www.w3.org/2000/svg" preserveAspectRatio="xMidYMid"><title>curl</title><path d="M498.445465 20.9585215c-4.092599 0-7.403987-3.3172233-7.403987-7.403987 0-4.09259922 3.311388-7.40398703 7.403987-7.40398703 4.086764 0 7.403988 3.31138781 7.403988 7.40398703 0 4.0867637-3.317224 7.403987-7.403988 7.403987M424.912836 147.461685c-4.092599 0-7.403987-3.317209-7.403987-7.403972 0-4.0926 3.311388-7.403987 7.403987-7.403987 4.086764 0 7.398152 3.311387 7.398152 7.403987 0 4.086763-3.311388 7.403972-7.398152 7.403972M498.445465 0c-7.485609 0-13.554534 6.06892502-13.554534 13.5545345 0 1.5973911.402262 3.0840121.909458 4.5065171L422.21358 127.045358c-6.144712 1.288408-10.855278 6.482858-10.855278 13.012355 0 7.485594 6.068925 13.554534 13.554534 13.554534 7.479774 0 13.548699-6.06894 13.548699-13.554534 0-1.504128-.402262-2.879979-.851163-4.232517l63.907449-109.339929C507.475991 25.0569414 512 19.9499344 512 13.5545345 512 6.06892502 505.93106 0 498.445465 0" fill="#0c544c"/><g style="fill:#073551"><path d="M442.985544 20.9585215c-4.092584 0-7.403972-3.3172233-7.403972-7.403987 0-4.09259922 3.311388-7.40398703 7.403972-7.40398703 4.086764 0 7.398152 3.31138781 7.398152 7.40398703 0 4.0867637-3.311388 7.403987-7.398152 7.403987m-73.53845 126.5031635c-4.086778 0-7.403987-3.317209-7.403987-7.403972 0-4.0926 3.317209-7.403987 7.403987-7.403987 4.092585 0 7.403972 3.311387 7.403972 7.403987 0 4.086763-3.311387 7.403972-7.403972 7.403972M442.985544 0c-7.49143 0-13.554535 6.06892502-13.554535 13.5545345 0 1.5973911.402262 3.0840121.909474 4.5065171l-63.58681 108.9843064c-6.150562 1.288408-10.861128 6.482858-10.861128 13.012355 0 7.485594 6.06894 13.554534 13.554549 13.554534 7.485595 0 13.554535-6.06894 13.554535-13.554534 0-1.504128-.402262-2.879979-.851178-4.232517l63.907464-109.339929c5.958155-1.4283256 10.482163-6.5353326 10.482163-12.9307325C456.540078 6.06892502 450.465318 0 442.985544 0"/><path d="M341.708388 84.8309874c5.987317 0 10.901932 3.9410254 12.697536 9.3220175.448901 1.3525387.856998 2.7284044.856998 4.232517 0 7.4797741-6.06894 13.5545341-13.554534 13.5545341-7.48561 0-13.554535-6.07476-13.554535-13.5545341 0-6.5294971 4.710566-11.7239471 10.855278-13.0123549.903637-.1865571 1.743144-.5421796 2.699257-.5421796zm0 6.1505475c-4.086764 0-7.403987 3.3113878-7.403987 7.403987 0 4.0867641 3.317223 7.3981511 7.403987 7.3981511 4.086763 0 7.403987-3.311387 7.403987-7.3981511 0-4.0925992-3.317224-7.403987-7.403987-7.403987zm0-53.5127136c5.981482 0 10.901932 3.9410105 12.697536 9.3220175.448901 1.3525387.856998 2.7342251.856998 4.232517 0 7.4855946-6.06894 13.5545345-13.554534 13.5545345-7.48561 0-13.554535-6.0689399-13.554535-13.5545345 0-6.5294971 4.710566-11.7239471 10.855278-13.0065343.903637-.1923776 1.743144-.5480002 2.699257-.5480002zm0 6.1505475c-4.0926 0-7.403987 3.3172233-7.403987 7.403987 0 4.0867638 3.311387 7.4039722 7.403987 7.4039722 4.086763 0 7.403987-3.3172084 7.403987-7.4039722 0-4.0867637-3.317224-7.403987-7.403987-7.403987z"/><path d="M72.7540454 56.8774532c5.6616986.037521 11.5930652 1.3664526 11.5930652 8.6041121 0 7.5322413-6.8093326 8.628264-11.8463733 8.628264h0-30.3155222c-3.4279859 0-6.8326523 1.7956117-9.8875241 4.2908124h0l-10.4005561 8.7915014c-2.7050774 2.1687258-4.6639265 3.9643375-4.6639265 7.3690039h0v21.360783c0 3.404667 1.9588491 5.200278 4.6639265 7.345685h0l10.4005561 8.791501c3.0548718 2.51852 6.4595382 4.314132 9.8875241 4.314132h0 30.3155222c5.0370407 0 11.8463733 1.072703 11.8463733 8.628264 0 7.345684-6.1097437 8.604944-11.8463733 8.604944l-28.2384647-7.92e-4c-9.366663-.017941-13.484119-.399403-21.2924346-6.80854h0l-12.7325193-10.610433C1.98216876 129.377358 0 124.17708 0 113.589967h0V96.8931102C0 86.3059971 1.98216876 81.105719 10.2373187 74.2730667h0L22.969838 63.6859536c7.8083156-6.4091377 11.9257716-6.7905993 21.2924346-6.8085405zm96.3132856-8.323e-4c7.345684 0 8.604944 5.9231866 8.604944 11.8463733h0l2.83e-4 72.2920298c.001646.429168.009996.910917.012457 1.429051l3.1e-5.529663c-.001274.240264-.00454.486648-.010905.737732l-.01201.379973c-.160707 4.214559-1.315508 9.515013-8.431563 9.515013-7.345684 0-8.604944-6.109743-8.604944-12.03293h0v-2.868315l-13.99178 9.164616c-5.573392 3.591223-10.237318 5.736629-14.901245 5.736629h0-12.732519c-4.850484 0-10.237319-1.445817-15.973948-6.272981-7.7187986-6.646095-7.5555612-14.015099-7.9053556-23.342952h0l-1.7956117-54.1948257c-.1865571-6.2729812.7229086-12.9190764 8.6049443-12.9190764 7.369004 0 8.25515 6.2729811 8.441707 11.8463733h0l1.795612 52.9355658c.186557 3.941018.349794 8.628264 1.795611 11.123465 1.445818 2.51852 5.923187 3.591223 10.050762 3.591223h0 5.73663c1.982168 0 3.77778-.536352 5.386835-1.609055h0l25.301801-15.973948 8.32e-4-50.328549c.037526-5.8348189 1.366796-11.5850751 8.627432-11.5850751zm77.351221 0c6.646095 0 12.196168 2.1454062 16.860094 6.8093327 5.73663 5.7599492 7.718798 11.6831358 7.718798 19.5651716 0 5.9231867-1.072703 12.0329304-8.441707 12.0329304-6.272981 0-8.791501-5.0370406-8.791501-10.5871132 0-2.8683148 0-5.0370406-1.795612-7.5322413-2.035385-2.8982117-5.854853-3.046838-9.765812-3.0544598l-5.671784-4.12e-4c-3.21811 0-5.550073 1.6090546-8.604945 4.1275749h0l-24.042541 19.9149662v43.6077126c0 5.923187-1.25926 11.846373-8.628264 11.846373-7.345684 0-8.604944-5.923186-8.604944-11.846373h0l4.12e-4-72.4053386c.020433-6.1919878.82901-12.4781235 8.604532-12.4781235 6.832652 0 8.628264 5.7366296 8.628264 11.4732592h0v7.0192093l13.455428-11.1467843c4.850484-3.9410179 9.864205-7.3456842 15.25104-7.3456842h0zm43.758266-35.5384304c9.598442.0407271 12.402662 1.9099483 12.402662 12.0322409h0V136.373248h12.919076c5.75995 0 11.846374 1.25926 11.846374 8.628264 0 7.532241-6.809333 8.604944-11.846374 8.604944l-43.991042-6.92e-4c-5.01289-.031757-11.626281-1.181174-11.626281-8.604252 0-7.369004 6.086424-8.628264 11.846373-8.628264h0 13.641985V38.5707094h-13.641985c-5.03704 0-11.846373-1.0727031-11.846373-8.628264 0-7.3456842 6.086424-8.6049444 11.846373-8.6049444z"/></g></svg>