<svg width="256px" height="180px" viewBox="0 0 256 180" xmlns="http://www.w3.org/2000/svg" preserveAspectRatio="xMidYMid"><path d="M127.842941 102.422799c20.715002 0 39.389811-12.4797342 47.314809-31.6188493 7.924999-19.139115 3.539142-41.1676486-11.11208-55.8118635C149.394449.347871373 127.36382-4.02744714 108.228498 3.90670559 89.093176 11.8408583 76.6223849 30.5216345 76.6322857 51.2366345c0 13.5796577 5.396178 26.6027702 15.0007424 36.2027413 9.6045639 9.5999711 22.6302569 14.9899142 36.2099129 14.9834232h0z" fill="#ffcd00"/><path d="M128.161324 128.015872h-.171437c-35.1269285-.008871-65.7772063-23.833413-74.4525941-57.8721972-2.5715534-10.2372317-10.8984883-18.9070403-21.4541027-18.9070403H0C0 121.923497 57.3030242 179.226521 127.989887 179.226521h.171437v-51.210649z" fill="#00ecbb"/><path d="M127.842941 128.015872h.146946c35.129912-1.71e-4 65.784901-23.828374 74.452594-57.8721972 2.596044-10.2372317 10.922979-18.9070403 21.478593-18.9070403h32.083191c-.013525 70.6908245-57.323553 127.9898865-128.014378 127.9898865h-.146946v-51.210649z" fill="#af64ff"/><path d="M218.508567 141.730824c-24.003078 24.005156-56.559486 37.491287-90.506435 37.491287-33.9469481 0-66.5033559-13.486131-90.5064342-37.491287l36.1976756-36.197676c29.9993936 29.980632 78.6181236 29.980632 108.6175176 0l36.197676 36.197676z" fill="#7131ff"/></svg>