<svg width="256px" height="256px" viewBox="0 0 256 256" xmlns="http://www.w3.org/2000/svg" preserveAspectRatio="xMidYMid"><title>Cypress</title><defs><linearGradient x1="6.31990833%" y1="44.0284953%" x2="87.5200593%" y2="58.4063838%" id="a"><stop stop-color="#315c55"/><stop stop-color="#09293f" offset="1"/></linearGradient><linearGradient x1="54.2975471%" y1="27.2620916%" x2="50%" y2="100%" id="b"><stop stop-color="#4fb38d"/><stop stop-color="#315c55" offset="1"/></linearGradient><linearGradient x1="13.9089831%" y1="50%" x2="70.8193808%" y2="54.9595072%" id="c"><stop stop-color="#4fb38d"/><stop stop-color="#97dec0" offset="1"/></linearGradient><linearGradient x1="53.8595989%" y1="30.892265%" x2="38.3884555%" y2="95.7936297%" id="d"><stop stop-color="#97dec0"/><stop stop-color="ivory" stop-opacity="0" offset="1"/><stop stop-color="ivory" stop-opacity="0" offset="1"/></linearGradient></defs><path d="M141.651196 223.943467l-4.335131 10.525866c-.861285 2.0832-2.830543 3.4944-5.046489 3.5904-1.463121.054934-2.940064.096-4.43083.096-51.0241931-.0272-96.1684181-36.113066-107.3552272-85.835733l-17.36842322 3.933333c6.27720596 27.890134 22.03185322 53.203734 44.36453392 71.294934 22.5924484 18.296 51.0520516 28.3968 80.1677195 28.451733.040938 0 .25998 0 .25998 0 1.709278 0 3.405264-.041067 5.100718-.109333 9.135464-.384 17.300122-6.1264 20.787792-14.637334l5.661616-13.76-17.806259-3.549866z" fill="url(#a)"/><path d="M4.54047351 161.9136C1.53178891 150.922133 0 139.5056 0 128.006933 0 75.5157333 32.8631006 27.52 81.781825 8.59312l6.4139109 16.65184C46.0875918 41.54048 17.8059874 82.8341333 17.8059874 128.006933c0 9.9088 1.3128208 19.7216 3.897578 29.178134L4.54047351 161.9136z" fill="url(#b)"/><path d="M225.692888 77.2976c-19.037044-36.6616-56.508767-59.43968-97.768546-59.43968-14.619506 0-28.8285728 2.8232533-42.2040014 8.3738667L78.896522 9.74437333c15.5493745-6.455136 32.04244-9.744373329999997 49.02782-9.744373329999997C175.858013 4.4038824100000004e-15 219.374676 26.4510933 241.48842 69.0469333L225.692888 77.2976z" fill="url(#c)"/><g style="fill:#09293f"><path d="M89.7274399 101.5968c10.3253121 0 18.7361271 5.5232 23.0574361 15.157867l.341855.754133 17.341059-5.9072-.369502-.890667C123.383459 94.3056 107.916492 84.1088 89.7274399 84.1088c-12.7868843 0-23.1807801 4.112-31.7691684 12.5541333-8.5335746 8.3877337-12.8549896 18.9407997-12.8549896 31.3711997 0 12.321067 4.321415 22.8192 12.8549896 31.206934 8.5883883 8.442666 18.9822841 12.554133 31.7691684 12.554133 18.1890521 0 33.6560191-10.1968 40.3708481-26.588267l.369502-.890666-17.368173-5.921067-.328564.781333c-3.869932 9.4704-12.485967 15.130667-23.0436131 15.130667-7.1933202 0-13.2653756-2.5216-18.0795304-7.4832-4.8683839-5.029867-7.3299561-11.347733-7.3299561-18.776 0-7.4832 2.4068116-13.677867 7.3299561-18.9408 4.8003317-4.988267 10.8862102-7.5104 18.0795304-7.5104z"/><path d="M198.340727 85.7264l-24.711953 62.728533L148.752008 85.7264h-20.349706l34.887337 85.616533L138.467634 231.728l17.792436 3.549867L217.569168 85.7264z"/></g><path d="M241.48842 69.0469333C250.491426 86.585413 256 107.185152 256 128.270804c0 49.199945-27.671196 91.91656-68.253251 113.342968l-8.767857-15.547805c35.190974-18.351967 59.227219-55.257732 59.227219-97.795163 0-18.458867-4.513425-35.6912375-12.513223-50.973204 0 0 15.795532-8.2506667 15.795532-8.2506667z" fill="url(#d)"/></svg>