<svg width="256px" height="243px" viewBox="0 0 256 243" xmlns="http://www.w3.org/2000/svg" preserveAspectRatio="xMidYMid"><defs><linearGradient x1="-82.6367258%" y1="-92.819878%" x2="103.767353%" y2="106.041826%" id="a"><stop stop-color="#f9a03c"/><stop stop-color="#f7974e" offset="1"/></linearGradient><linearGradient x1="-258.923825%" y1="-248.970263%" x2="97.6202479%" y2="98.7684937%" id="b"><stop stop-color="#f9a03c"/><stop stop-color="#f7974e" offset="1"/></linearGradient><linearGradient x1="-223.162629%" y1="-261.967947%" x2="94.0283377%" y2="101.690818%" id="c"><stop stop-color="#f9a03c"/><stop stop-color="#f7974e" offset="1"/></linearGradient><linearGradient x1="11.3387123%" y1="-1.82169774%" x2="82.496193%" y2="92.1067478%" id="d"><stop stop-color="#f26d58"/><stop stop-color="#f9a03c" offset="1"/></linearGradient><linearGradient x1="15.8436473%" y1="3.85803114%" x2="120.126091%" y2="72.3802579%" id="e"><stop stop-color="#b84e51"/><stop stop-color="#f68e48" offset="1"/></linearGradient><linearGradient x1="46.9841705%" y1="23.4664325%" x2="51.881003%" y2="147.391179%" id="f"><stop stop-color="#f9a03c"/><stop stop-color="#f7974e" offset="1"/></linearGradient></defs><path d="M255.52 175.618667c.114667-1.114667.197333-2.24.261333-3.370667.077334-1.338667-80.562666-77.8506667-80.562666-77.8506667h-1.928c0 0 81.736 86.2159997 82.229333 81.2213337h0 0z" fill="url(#a)"/><path d="M83.472 149.077333c-.1066667.234667-.2133333.469334-.3226667.704-.1146666.245334-.232.490667-.3493333.733334-2.5706667 5.36 35.986667 43.053333 39.088 38.474666.141333-.202666.282667-.416.424-.618666.157333-.24.312-.469334.466667-.709334 2.48-3.765333-38.2053337-41.032-39.306667-38.584h0 0z" fill="url(#b)"/><path d="M137.957333 202.082667c-.109333.24-.885333 1.552-1.594666 2.245333-.12.24 37.64 37.688 37.64 37.688h3.4c.002666 0-35.445334-38.349333-39.445334-39.933333h0 0z" fill="url(#c)"/><path d="M255.834667 171.568c-1.765334 39.146667-34.152 70.448-73.72 70.448h-5.349334l-39.514666-38.928c3.250666-4.584 6.272-9.333333 8.962666-14.285333h35.901334c11.354666 0 20.594666-9.234667 20.594666-20.594667 0-11.354667-9.24-20.594667-20.594666-20.594667h-21.245334c1.618667-8.557333 2.504-17.381333 2.504-26.408 0-9.165333-.901333-18.114666-2.578666-26.8079997H173.992l81.610667 80.4133337c.096-1.077334.173333-2.154667.232-3.242667h0 0zM21.4666667 0H0v53.2133333h21.4666667c37.4933333 0 68 30.4986667 68 67.9919997 0 10.2-2.2746667 19.882667-6.3173334 28.576L122.312 188.370667c12.858667-19.24 20.376-42.338667 20.376-67.165334C142.688 54.3733333 88.3066667 0 21.4666667 0h0 0z" fill="url(#d)"/><path d="M182.114667 0H95.1866667C116.418667 12.9626667 134 31.344 145.978667 53.2133333h36.136c11.354666 0 20.594666 9.2346667 20.594666 20.5946667 0 11.3573333-9.24 20.592-20.594666 20.592h-8.12l81.610666 80.413333c.192-2.181333.312-4.376.312-6.605333 0-17.938667-6.437333-34.394667-17.125333-47.202667C249.48 108.202667 255.917333 91.744 255.917333 73.808c0-40.696-33.104-73.808-73.802666-73.808h0 0z" fill="url(#e)"/><path d="M176.765333 242.016H95.808c16.296-10.064 30.384-23.349333 41.442667-38.928l39.514666 38.928h0zM122.312 188.370667l-39.16-38.589334C72.3333333 173.032 48.7573333 189.202667 21.4666667 189.202667H0v53.208h21.4666667c42.0106666 0 79.0906663-21.488 100.8453333-54.04h0 0z" fill="url(#f)"/></svg>