<svg width="256px" height="144px" viewBox="0 0 256 144" xmlns="http://www.w3.org/2000/svg" preserveAspectRatio="xMidYMid"><title>daily.dev</title><path d="M219.832837 71.6995129l-28.259766-28.3189315 14.122519-28.309093 45.916598 46.0127298c5.850416 5.8626654 5.850416 15.367924 0 21.2305899l-56.514623 56.6329439c-5.850417 5.862665-15.335817 5.862665-21.186233 0-5.850417-5.862666-5.850417-15.367925 0-21.23059l45.921505-46.0176491z" fill="#7c7c7d"/><path d="M173.921862 4.39576953c5.850417-5.86266554 15.338271-5.8602059 21.188688.00245963l10.595571 10.61775464L82.0886685 138.892247c-5.8504165 5.862666-15.3382711 5.860206-21.1886882-.002459l-10.595571-10.617755L173.921862 4.39576953zM120.941551 43.3299961l-21.1911424 21.235509-28.259766-28.3189314L36.167163 71.6440084 64.4269285 99.96294l-14.1225192 28.309093L4.38781264 82.2593032c-5.85041685-5.8626655-5.85041685-15.367924 0-21.23059L60.8999803 4.39822916c5.8504171-5.86266553 15.3382717-5.86512517 21.1886882-.00245963L120.941551 43.3299961z" fill="#151618"/></svg>