<svg width="256px" height="404px" viewBox="0 0 256 404" xmlns="http://www.w3.org/2000/svg" preserveAspectRatio="xMidYMid"><title>daisyUI</title><path d="M66.406015 280.753083h123.18797c34.017419 0 61.593985 27.576566 61.593985 61.593985 0 34.017418-27.576566 61.593985-61.593985 61.593985H66.406015c-34.0174185 0-61.59398492-27.576567-61.59398492-61.593985 0-34.017419 27.57656642-61.593985 61.59398492-61.593985z" fill="#1ad1a5"/><circle fill="#fff" cx="128" cy="128" r="123.18797"/><path d="M128 0c70.692448 0 128 57.307552 128 128 0 70.692448-57.307552 128-128 128C57.307552 256 0 198.692448 0 128 0 57.307552 57.307552 0 128 0zm0 4.81203008C59.9651629 4.81203008 4.81203008 59.9651629 4.81203008 128c0 68.034837 55.15313282 123.18797 123.18796992 123.18797 68.034837 0 123.18797-55.153133 123.18797-123.18797C251.18797 59.9651629 196.034837 4.81203008 128 4.81203008z" fill-opacity="0.2"/><circle fill="#ff9903" cx="128" cy="128" r="55.1882105"/></svg>