<svg width="256px" height="256px" viewBox="0 0 256 256" xmlns="http://www.w3.org/2000/svg" preserveAspectRatio="xMidYMid"><title>Danfo.js</title><path fill="#ffdf28" d="M0 0h256v256H0z"/><path d="M116.38707 30.7551022c18.266274-.2748632 36.438232.501221 54.052379 8.1771789 40.132716 17.4915369 65.050948 59.9349895 60.147874 103.4334319-4.958316 43.988884-38.704505 80.451368-81.699032 88.081516-5.283031.936421-10.702147 1.525221-16.061979 1.550821-32.343578.152252-102.6371364-.348969-102.6371364-.348969V31.4314811h28.836379l.0094315 171.7908209c0 0 48.8084209-.009431 69.0216419-.212884 39.379537-.394779 68.129684-25.485474 73.552842-63.931284 5.169853-36.6592-24.156968-74.4609687-60.909136-78.2996213-7.755453-.8097684-15.579622-.9579789-24.159664-1.4565052v86.1278315c5.38139 0 10.510821.413642 15.547285-.09701 7.440168-.753179 12.216589-6.457937 12.309557-14.39259.152253-13.006147.041769-40.0734315.041769-40.0734315 2.578863.9283368 4.446316 1.3824 6.111663 2.2339368 17.115621 8.7525057 26.217095 28.4604627 22.131874 47.7695997-3.884463 18.364632-20.144506 32.584758-39.104674 33.36219-13.679832.561852-46.3050105.303158-46.3050105.303158l.1940211-143.8302319" fill="#2e2e2e"/></svg>