<svg width="256px" height="256px" viewBox="0 0 256 256" xmlns="http://www.w3.org/2000/svg" preserveAspectRatio="xMidYMid"><title>Dart</title><defs><radialGradient cy="50.0016175%" fx="50%" fy="50.0016175%" r="50.0036767%" gradientTransform="matrix(1 0 0 .999853 0 7.3502352000043e-5)" id="a"><stop stop-color="#fff" stop-opacity="0.1"/><stop stop-color="#fff" stop-opacity="0" offset="1"/></radialGradient></defs><path d="M52.2087928 203.791207 8.41288046 159.995295C3.21835024 154.669019 0 147.140715 0 139.781797 0 136.375239 1.91971769 131.048963 3.36891634 128L43.7959124 43.7959124l8.4128804 159.9952946z" fill="#01579b"/><g style="fill:#40c4ff"><path d="M202.116159 52.2087928 158.320247 8.41288046C154.499632 4.57344508 146.53845 0 139.800618 0c-5.796795 0-11.480665 1.16688722-15.150714 3.36891634L43.8147331 43.7959124l158.3014259 8.4128804z"/><path d="M104.417586 256H210.52904v-45.47096l-79.160124-25.276283-72.4222905 25.276283z"/></g><path d="M43.7959124 180.208793c0 13.513307 1.6938685 16.825761 8.4128804 23.582414l6.7378327 6.737833H210.52904l-74.097339-84.204088-92.6357886-82.5290396V180.208793z" fill="#29b6f6"/><path d="M178.533745 43.7770916H43.7959124L210.52904 210.510219H256V106.092633l-53.902661-53.9026609c-7.565947-7.584767-14.284958-8.4128805-23.563594-8.4128805z" fill="#01579b"/><path d="M53.9026614 205.466255c-6.7378327-6.756653-8.4128805-13.419203-8.4128805-25.257462V45.4709602l-1.6750478-1.6750478V180.208793c-.0188207 11.838259-.0188207 15.113071 10.0879283 25.257462l5.0439641 5.043964h0l-5.0439641-5.043964z" fill="#fff" opacity="0.2"/><path fill="#263238" opacity="0.2" d="M254.324952 104.417586v104.417585h-45.47096l1.675048 1.693869H256V106.092633z"/><path d="M202.116159 52.2087928c-8.356418-8.3564181-15.188354-8.4128804-25.257462-8.4128804H43.8147331l1.6750478 1.6750478H176.858697c5.025144 0 17.710337-.8469343 25.257462 6.7378326h0z" fill="#fff" opacity="0.2"/><path d="M254.324952 104.417586l-52.208793-52.2087932-43.795912-43.79591234C154.499632 4.57344508 146.53845 0 139.800618 0c-5.796795 0-11.480665 1.16688722-15.150714 3.36891634L43.8147331 43.7959124 3.3877371 128c-1.44919865 3.067784-3.3689163383 8.39406-3.3689163383 11.781797 0 7.358918 3.2371710083 14.868402 8.4128804583 20.213498l40.35171298 40.069401c.9598588 1.185708 2.0891045 2.390237 3.4253786 3.726511l1.6750478 1.675048 5.0439641 5.043964 43.7959123 43.795912 1.675048 1.675048h104.417586 1.675047v-45.47096h45.47096v-.112924-104.304662l-1.637406-1.675047z" fill="url(#a)" opacity="0.2"/></svg>