<svg width="256px" height="346px" viewBox="0 0 256 346" xmlns="http://www.w3.org/2000/svg" preserveAspectRatio="xMidYMid"><path d="M67.3311516 226.747712c0-4.348449 7.1410317-7.111111 13.0254013-5.036621h0l36.2935951 13.33458c2.84245 1.007324 4.607761 2.942185 4.607761 5.046595h0v99.934549c0 4.358423-7.091164 7.121084-12.965561 5.046595h0l-36.3534357-13.344554c-2.8424498-1.007324-4.6077607-2.942185-4.6077607-5.046595h0zM0 9.5047639c0-4.34844943 7.15100514-7.12108462 13.0254013-5.04659498h0L49.368864 17.8027225c2.8424497 1.0571918 4.6177341 2.9421848 4.6177341 5.0465949h0V336.286749c0 4.34845-7.1510051 7.111111-13.0254013 5.046595h0L4.60776064 327.978817C1.76531089 326.981466 0 325.036632 0 322.932222h0zM134.65233 209.972272c0-4.348449 7.151005-7.121085 13.025401-5.046595h0l36.353436 13.344554c2.84245 1.007324 4.607761 2.942184 4.607761 5.046595h0v92.095371c0 4.34845-7.151005 7.111111-13.025401 5.036622h0l-36.353437-13.344554v-.019947c-2.832476-.997351-4.60776-2.932211-4.60776-5.036621h0zm67.361072-112.211937c0-4.3484494 7.091164-7.1210846 12.96556-5.0465949h0l36.353436 13.3445539h.049868C254.224716 107.065618 256 109.000478 256 111.104889h0v151.25822c0 4.348449-7.151005 7.111111-13.025401 5.036621h0l-36.353436-13.344553c-2.84245-.997351-4.607761-2.932211-4.607761-5.036622h0zM134.65233 44.6414321c0-4.2985819 7.151005-7.0612435 13.025401-4.9867539h0l36.353436 13.3445535c2.84245.9973508 4.607761 2.8823438 4.607761 4.986754h0v92.0953713c0 4.34845-7.151005 7.121085-13.025401 5.046595h0l-36.353437-13.344553c-2.832476-1.007325-4.60776-2.942185-4.60776-5.046595h0zM67.3311516 5.6948839c0-4.2985819 7.1410317-7.06124358 13.0254013-4.986753938h0L116.650148 14.04271c2.84245 1.0073243 4.607761 2.9421848 4.607761 5.046595h0v100.19386c0 4.348449-7.091164 7.121085-12.965561 5.046595h0l-36.3534357-13.344554c-2.8424498-.99735-4.6077607-2.942184-4.6077607-5.046595h0z" fill="#10363d"/></svg>