<svg width="256" height="321" xmlns="http://www.w3.org/2000/svg" preserveAspectRatio="xMidYMid"><path d="M253.874 117.16c1.174 0 2.126.952 2.126 2.126v34.204a53.581 53.581 0 01-22.283 43.49L63.056 319.797a1.701 1.701 0 01-2.695-1.38V258.07c0-1.093.525-2.12 1.411-2.759L252.63 117.562a2.126 2.126 0 011.245-.402zm-.425-78.986A2.551 2.551 0 01256 40.726v41.932c0 1.64-.788 3.18-2.118 4.139L2.696 267.99A1.701 1.701 0 010 266.611v-44.34c0-1.093.525-2.12 1.41-2.759L251.956 38.657a2.551 2.551 0 011.494-.483zM176.459 0c1.175 0 2.127.952 2.127 2.126v59.779a3.402 3.402 0 01-1.41 2.757L2.698 190.768A1.701 1.701 0 010 189.389v-39.505a45.076 45.076 0 0118.702-36.555L175.216.402A2.126 2.126 0 01176.46 0z" fill="#252539"/></svg>