<svg width="256px" height="256px" viewBox="0 0 256 256" xmlns="http://www.w3.org/2000/svg" preserveAspectRatio="xMidYMid"><title>Datasette</title><g fill="#0e0c82"><path d="M224 0c17.488171 0 32 14.5118289 32 32v192c0 17.488171-14.511829 32-32 32H32c-17.4881711 0-32-14.511829-32-32V32C0 14.5118289 14.5118289 0 32 0h192zm22.153846 216.615385H9.84615385V224c0 11.835107 9.74593625 21.792384 21.51020365 22.144227L32 246.153846h192c12.05029 0 22.153846-10.103556 22.153846-22.153846v-7.384615zm0-41.846154H9.84615385v32H246.153846v-32zm0-41.846154H9.84615385v32H246.153846v-32zm0-41.8461539H9.84615385v31.9999999H246.153846V91.0769231zm0-44.3076923H9.84615385v34.4615384H246.153846V46.7692308zM224 9.84615385H32C19.9497095 9.84615385 9.84615385 19.9497095 9.84615385 32v4.9230769H246.153846V32c0-11.8351067-9.745936-21.7923841-21.510203-22.14422721L224 9.84615385z"/><g style="fill-opacity:0.3"><path d="M46.7692308 41.8461538c2.7189403 0 4.9230769 2.2041367 4.9230769 4.923077V251.076923c0 2.71894-2.2041366 4.923077-4.9230769 4.923077-2.7189403 0-4.923077-2.204137-4.923077-4.923077V46.7692308c0-2.7189403 2.2041367-4.923077 4.923077-4.923077zm123.0769232 0c2.71894 0 4.923077 2.2041367 4.923077 4.923077V251.076923c0 2.71894-2.204137 4.923077-4.923077 4.923077-2.71894 0-4.923077-2.204137-4.923077-4.923077V46.7692308c0-2.7189403 2.204137-4.923077 4.923077-4.923077zm39.384615 0c2.718941 0 4.923077 2.2041367 4.923077 4.923077V251.076923c0 2.71894-2.204136 4.923077-4.923077 4.923077-2.71894 0-4.923077-2.204137-4.923077-4.923077V46.7692308c0-2.7189403 2.204137-4.923077 4.923077-4.923077zM86.1538462 36.9230769c2.7189403 0 4.9230769 2.2041366 4.9230769 4.9230769V246.153846c0 2.71894-2.2041366 4.923077-4.9230769 4.923077-2.7189404 0-4.923077-2.204137-4.923077-4.923077V41.8461538c0-2.7189403 2.2041366-4.9230769 4.923077-4.9230769zm41.8461538 0c2.71894 0 4.923077 2.2041366 4.923077 4.9230769V246.153846c0 2.71894-2.204137 4.923077-4.923077 4.923077-2.71894 0-4.923077-2.204137-4.923077-4.923077V41.8461538c0-2.7189403 2.204137-4.9230769 4.923077-4.9230769z"/><path d="M251.076923 41.8461538H4.92307692C7.38461538 14.7692308 12.3076923 4.92307692 39.3846154 4.92307692H214.153846c29.538462 0 36.923077 9.84615388 36.923077 36.92307688z"/></g></g></svg>