<svg width="256px" height="256px" viewBox="0 0 256 256" xmlns="http://www.w3.org/2000/svg" preserveAspectRatio="xMidYMid"><title>DataSpell</title><defs><linearGradient x1="111.945283%" y1="50.0381443%" x2="11.8933962%" y2="50.0381443%" id="a"><stop stop-color="#21d789" offset="0%"/><stop stop-color="#fcf84a" offset="91.7%"/></linearGradient><linearGradient x1="49.9669664%" y1="9.16784203%" x2="49.9669664%" y2="157.332035%" id="b"><stop stop-color="#21d789" offset="0%"/><stop stop-color="#087cfa" offset="100%"/></linearGradient><linearGradient x1="148.040952%" y1="124.787619%" x2="-0.964761905%" y2="14.9245351%" id="c"><stop stop-color="#21d789" offset="10.5%"/><stop stop-color="#087cfa" offset="96.7%"/></linearGradient><linearGradient x1="84.5274531%" y1="-7.6975%" x2="39.5116289%" y2="70.41625%" id="d"><stop stop-color="#21d789" offset="23.5%"/><stop stop-color="#087cfa" offset="74%"/></linearGradient><linearGradient x1="49.8666667%" y1="-24.3046154%" x2="49.8666667%" y2="65.3753846%" id="e"><stop stop-color="#878585" offset="8.4%"/><stop offset="53.8%"/></linearGradient></defs><path fill="url(#a)" d="M164.5328 0 169.6 104 40 155.2 0 51.7328z"/><path fill="#21d789" d="M256 60.8l-112 48.5328L164.5328 0z"/><path fill="url(#b)" d="M137.3328 84.8 256 60.8v112.2672l-81.6 30.6672-33.3344-30.4016z"/><path fill="url(#c)" d="M88 52l81.8736 12.6672L256 172.0688 173.3296 204l-31.8992-31.6672z"/><path fill="url(#d)" d="M52.8 0l116.8 64.5328L129.3328 256h-68L2.4 195.2z"/><path fill="url(#e)" d="M206 50H50v156h156z"/><path d="M125.4 179.1328H67.3328v9.5344H125.4v-9.5344zM68 70h22.808c18.504 0 30.9856 12.48 30.9856 28.832 0 16.3536-12.48 29.264-30.9856 29.264L68 128.528V70zm12.9104 12.0496v34.8576h9.8976c10.328 0 17.6448-6.8848 17.6448-17.2128 0-10.3296-6.8864-17.6448-17.6448-17.6448h-9.896-.0016zM128 119.68l7.5408-9.0992c5.2 4.4192 10.92 7.0192 17.4192 7.0192 5.2 0 8.5792-2.08 8.5792-5.4592v-.2608c0-3.3792-2.08-4.9392-11.6992-7.5392-11.96-2.8608-19.5008-6.24-19.5008-17.9408v-.2592c0-10.6608 8.5808-17.68 20.5408-17.68 8.5792 0 15.8592 2.6 21.84 7.5392l-6.76 9.6208c-5.2-3.64-10.4-5.72-15.3392-5.72-4.9408 0-7.5408 2.3392-7.5408 5.2v.2592c0 3.9008 2.6 5.2 12.7408 7.8 11.96 3.12 18.7184 7.28 18.7184 17.68v.2608c0 11.6992-8.8384 18.2-21.5792 18.2-8.84-.2608-17.9392-3.3808-24.96-9.6208h0z" fill="#fff"/></svg>