<svg width="256" height="256" xmlns="http://www.w3.org/2000/svg" preserveAspectRatio="xMidYMid"><defs><linearGradient x1="111.945%" y1="50.038%" x2="11.893%" y2="50.038%" id="a"><stop stop-color="#21D789" offset="0%"/><stop stop-color="#FCF84A" offset="91.7%"/></linearGradient><linearGradient x1="49.967%" y1="9.168%" x2="49.967%" y2="157.332%" id="b"><stop stop-color="#21D789" offset="0%"/><stop stop-color="#087CFA" offset="100%"/></linearGradient><linearGradient x1="148.041%" y1="124.788%" x2="-.965%" y2="14.925%" id="c"><stop stop-color="#21D789" offset="10.5%"/><stop stop-color="#087CFA" offset="96.7%"/></linearGradient><linearGradient x1="84.527%" y1="-7.697%" x2="39.512%" y2="70.416%" id="d"><stop stop-color="#21D789" offset="23.5%"/><stop stop-color="#087CFA" offset="74%"/></linearGradient><linearGradient x1="49.867%" y1="-24.305%" x2="49.867%" y2="65.375%" id="e"><stop stop-color="#878585" offset="8.4%"/><stop offset="53.8%"/></linearGradient></defs><path fill="url(#a)" d="M164.533 0l5.067 104L40 155.2 0 51.733z"/><path fill="#21D789" d="M256 60.8l-112 48.533L164.533 0z"/><path fill="url(#b)" d="M137.333 84.8L256 60.8v112.267l-81.6 30.667-33.334-30.401z"/><path fill="url(#c)" d="M88 52l81.874 12.667L256 172.07 173.33 204l-31.9-31.667z"/><path fill="url(#d)" d="M52.8 0l116.8 64.533L129.333 256h-68L2.4 195.2z"/><path fill="url(#e)" d="M206 50H50v156h156z"/><path d="M125.4 179.133H67.333v9.534H125.4v-9.534zM68 70h22.808c18.504 0 30.986 12.48 30.986 28.832 0 16.354-12.48 29.264-30.986 29.264L68 128.528V70zm12.91 12.05v34.857h9.898c10.328 0 17.645-6.885 17.645-17.213 0-10.33-6.887-17.644-17.645-17.644H80.91zM128 119.68l7.54-9.1c5.2 4.42 10.92 7.02 17.42 7.02 5.2 0 8.58-2.08 8.58-5.46v-.26c0-3.38-2.08-4.94-11.7-7.54-11.96-2.86-19.5-6.24-19.5-17.94v-.26c0-10.66 8.58-17.68 20.54-17.68 8.58 0 15.86 2.6 21.84 7.54l-6.76 9.62c-5.2-3.64-10.4-5.72-15.34-5.72-4.94 0-7.54 2.34-7.54 5.2v.26c0 3.9 2.6 5.2 12.74 7.8 11.96 3.12 18.72 7.28 18.72 17.68v.26c0 11.7-8.84 18.2-21.58 18.2-8.84-.26-17.94-3.38-24.96-9.62z" fill="#FFF"/></svg>