<svg width="256px" height="275px" viewBox="0 0 256 275" xmlns="http://www.w3.org/2000/svg" preserveAspectRatio="xMidYMid"><title>Datadog</title><path d="M214.433958 194.557927l-22.795674-15.038753-19.016551 31.766234-22.117591-6.465541-19.474365 29.723348.997689 9.354951 105.888887-19.513235-6.150254-66.162739-17.332141 36.335735zm-98.745263-28.522666 16.99094-2.336579c2.746883 1.235234 4.660199 1.706005 7.955595 2.543891 5.135289 1.33457 11.073912 2.617313 19.871712-1.81398 2.047206-1.014965 6.314376-4.91502 8.037657-7.139304l69.60498-12.624433 7.100434 85.939433-119.251869 21.491336-10.309449-86.060364zm129.29354-30.96722-6.871527 1.308657L224.911849 0 0 26.0781131 27.7106946 250.933815l26.328615-3.822314c-2.1033523-3.001704-5.3771531-6.633982-10.9659372-11.281224-7.7526024-6.439627-5.0143573-17.383969-.4362189-24.294367 6.050917-11.674253 37.2297674-26.510013 35.463297-45.168087-.6348928-6.785146-1.7103235-15.613179-8.0117423-21.668415-.2375449 2.513657.1900359 4.927977.1900359 4.927977 0 0-2.5870801-3.299715-3.8741417-7.795792-1.2784235-1.7276-2.2847502-2.276112-3.6452347-4.582458-.9717747 2.664822-.8422047 5.757225-.8422047 5.757225 0 0-2.1163093-4.997081-2.4575102-9.216742-1.2525096 1.887402-1.5677965 5.472171-1.5677965 5.472171 0 0-2.746883-7.877854-2.1206283-12.123429-1.2525095-3.692744-4.9711673-11.022084-3.9216506-27.6761428 6.8628886 4.8070458 21.9750645 3.6668298 27.8618595-5.0100383 1.9521873-2.876453 3.2953959-10.7197544-.9760937-26.1817691-2.742564-9.9121016-9.5320297-24.6744386-12.1795758-30.2761797l-.3152869.2289069c1.3950365 4.5133535 4.2714895 13.9676413 5.3771532 18.5587367 3.3429048 13.9071753 4.2369375 18.7530916 2.6691411 25.1668045-1.3345706 5.5758271-4.5349485 9.2210618-12.6460277 13.2981964-8.1110793 4.0900916-18.8783426-5.8652-19.5564254-6.4137128-7.8821723-6.2798239-13.9805983-16.5201694-14.658681-21.4999747-.7083158-5.4462571 3.1399119-8.715739 5.0791423-13.1686265-2.7771161.7903767-5.8695191 2.2026892-5.8695191 2.2026892 0 0 3.6927438-3.8223137 8.2449682-7.1263475 1.8874024-1.2481906 2.993066-2.0428863 4.9798054-3.6927438-2.8764531-.047509-5.2130313.034552-5.2130313.034552 0 0 4.7984074-2.5913991 9.7695747-4.4788015-3.6365968-.1598029-7.1220286-.025914-7.1220286-.025914 0 0 10.7067974-4.7897693 19.1590775-8.3011151 5.813372-2.3840872 11.4928551-1.6800905 14.684595 2.936919 4.1894286 6.0465979 8.5904881 9.3290368 17.9152059 11.3632851 5.7269921-2.5395711 7.4632295-3.8395897 14.6586813-5.804734 6.331652-6.9665447 11.302819-7.8648964 11.302819-7.8648964 0 0-2.466148 2.2631553-3.126955 5.8176911 3.589088-2.8289441 7.523695-5.1914363 7.523695-5.1914363 0 0-1.524606 1.8787644-2.945557 4.8675114l.328244.4923658c4.189429-2.5136571 9.113087-4.4917585 9.113087-4.4917585 0 0-1.407993 1.7794274-3.057851 4.0814537 3.161507-.025914 9.566582.1338889 12.054325.4146238 14.680276.3239249 17.72517-15.6736457 23.357144-17.68198 7.052925-2.5179761 10.205794-4.0425826 22.225567 7.7655594 10.309449 10.1410085 18.3687 28.2808024 14.364989 32.34498-3.355862 3.3731378-9.972568-1.3172946-17.306227-10.4562955-3.874142-4.8415973-6.806742-10.5642704-8.180184-17.8374639-1.157491-6.1372969-5.666526-9.6961517-5.666526-9.6961517 0 0 2.612994 5.830648 2.612994 10.9659373 0 2.807349.349839 13.2981965 4.850236 19.1893105-.444857.8594807-.652169 4.2585325-1.144535 4.9107013-5.234626-6.3273329-16.476979-10.8536433-18.312554-12.1882139 6.206401 5.0834613 20.467734 16.7620333 25.944225 27.9611965 5.182798 10.5858654 2.129266 20.2906551 4.750898 22.7999933.747187.7169537 11.143016 13.6739491 13.142713 20.1826801 3.48975 11.34169.207311 23.266445-4.35787 30.660571l-12.754003 1.986739c-1.865807-.51828-3.122636-.77742-4.794088-1.744875.924266-1.632582 2.755521-5.701079 2.772797-6.543283l-.721273-1.261148c-3.969159 5.623336-10.616098 11.08255-16.140097 14.218143-7.230004 4.09873-15.561352 3.463837-20.986014 1.788066-15.392911-4.74658-29.952255-15.151047-33.463601-17.884973 0 0-.107975 2.181094.552832 2.67346 3.878461 4.379464 12.771279 12.296189 21.370405 17.820188l-18.325511 2.016972 8.663911 67.4498c-3.83959.548513-4.43993.82061-8.642316 1.416632-3.705701-13.090885-10.7931773-21.638183-18.5414606-26.617988-6.8326557-4.392422-16.2567105-5.381472-25.2747795-3.593407l-.5787458.673764c6.2711859-.652169 13.6739494.254821 21.2797058 5.070504 7.4632295 4.720665 13.4795944 16.913198 15.6952411 24.251177 2.837582 9.380865 4.798407 19.418217-2.8375825 30.055911-5.4289811 7.562566-21.2797057 11.739038-34.0898554 2.699374 3.4206469 5.502404 8.0419753 9.998481 14.2699712 10.845005 9.2426568 1.256829 18.0145429-.349839 24.0525027-6.547602 5.152565-5.299411 7.89081-16.381961 7.169538-28.051895l8.158588-1.183406 2.945557 20.947143L256 242.542001l-11.017765-107.47396zm-82.15599-56.8855296c-.375753.8594807-.971775 1.4252695-.082061 4.2239806l.051828.1598029.142527.3627959.371434.8378857c1.602348 3.2781199 3.36018 6.3662039 6.305737 7.9469573.760144-.1295699 1.550521-.2159499 2.366812-.2548209 2.764159-.1209319 4.509034.3152869 5.610379.9113087.099337-.5528318.120932-1.3561655.060466-2.5438901-.21595-4.1505576.820609-11.2078012-7.156581-14.92214-3.010342-1.3950365-7.234322-.9674556-8.642316.7774198.254821.034552.483728.08638.665126.1468459 2.133585.7385488.69104 1.4727785.306649 2.3538542m22.363774 38.7241406c-1.045198-.578746-5.934304-.349839-9.372227.060466-6.547602.773101-13.617802 3.040575-15.164004 4.249895-2.815987 2.176775-1.537563 5.968856.544194 7.528014 5.834967 4.35787 10.948661 7.281832 16.343091 6.569197 3.312672-.436219 6.236634-5.683802 8.305434-10.443338 1.416631-3.27812 1.416631-6.81538-.656488-7.964234M127.22474 83.3178007c1.844212-1.7535134-9.195148-4.0555396-17.764041 1.7880654-6.318695 4.3103605-6.521688 13.5530174-.470771 18.7919629.60466.51828 1.105664.885394 1.567796 1.187724 1.766471-.833566 3.779124-1.671452 6.098426-2.422958 3.913013-1.269785 7.169538-1.926273 9.842998-2.276112 1.278424-1.4295886 2.768478-3.9475648 2.397044-8.5084272-.509642-6.1891249-5.191436-5.2087123-1.671452-8.5602551" fill="#632ca6"/></svg>