<svg width="256px" height="256px" viewBox="0 0 256 256" xmlns="http://www.w3.org/2000/svg" preserveAspectRatio="xMidYMid"><title>DataGrip</title><defs><linearGradient x1="48.6809317%" y1="46.2074978%" x2="50.1853681%" y2="99.4768963%" id="a"><stop stop-color="#21d789" offset=".16"/><stop stop-color="#419fbc" offset=".54"/><stop stop-color="#6b57ff" offset="1"/></linearGradient><linearGradient x1="37.3748863%" y1="64.0206872%" x2="53.5259327%" y2="50%" id="b"><stop stop-color="#6b57ff"/><stop stop-color="#21d789" offset=".95"/></linearGradient><linearGradient x1="34.806371%" y1="22.7672145%" x2="45.5808869%" y2="53.8903979%" id="c"><stop stop-color="#6b57ff"/><stop stop-color="#685cfb" offset="2%"/><stop stop-color="#4a91ca" offset=".28"/><stop stop-color="#34b7a7" offset=".51"/><stop stop-color="#26ce91" offset=".69"/><stop stop-color="#21d789" offset=".8"/></linearGradient><linearGradient x1="8.27109267%" y1="28.101941%" x2="124.61964%" y2="74.0339727%" id="d"><stop stop-color="#21d789" offset="8%"/><stop stop-color="#6b57ff" offset=".89"/></linearGradient><linearGradient x1="7.22073876%" y1="50%" x2="101.29061%" y2="50%" id="e"><stop stop-color="#21d789" offset=".31"/><stop stop-color="#59a3b2" offset=".49"/><stop stop-color="#b74af7" offset=".77"/><stop stop-color="#ff45ed" offset="1"/></linearGradient></defs><path fill="url(#a)" d="M239.68 39.7866667 256 144.586667l-30.16 17.546666z"/><path fill="url(#b)" d="M239.68 39.7866667 148.026667 3.55271368e-15 122.453333 21.2266667z"/><path fill="url(#c)" d="M172.986667 256 30.7733333 142.693333 2.21333333 228.586667z"/><path fill="url(#d)" d="M192.8 184.4 0 118.16 172.986667 256z"/><path fill="url(#e)" d="M0 1.81333333V118.16l222.16 76.346667 17.52-154.7200003z"/><path d="M48 47.68h160v160H48z"/><path d="M64.24 68.48h25.84c20.592 0 34.91136 14.008896 35.195688 32.375447L125.28 101.6c0 18.666667-14.4 33.12-35.2 33.12H64.24V68.48zM78.8 81.6266667v40.0000003h11.28c5.3508817.309436 10.581102-1.67001 14.386299-5.444684 3.805197-3.774674 5.8267-8.988783 5.560368-14.341983v-.24c.278503-5.3731088-1.73249-10.6126621-5.534409-14.4196646-3.80192-3.8070025-9.038782-5.8249928-14.412258-5.5536687H78.8zm49.066667 20.1600003V101.6c-.073775-9.1802219 3.568015-18.0001256 10.09718-24.4539548 6.529166-6.4538292 15.390739-9.9930185 24.569486-9.8127119 9.53309-.5044506 18.881935 2.7618982 26.026667 9.0933334l-9.173333 11.0666666c-4.551739-4.3201473-10.584065-6.7232169-16.84794-6.7242204l-.458727.0042204c-10.554386 0-18.863465 9.1900927-19.037224 20.2852607L143.04 101.6c0 12.106667 8.346667 21.013333 20.08 21.013333 4.887336.162258 9.701673-1.218598 13.76-3.946666v-9.493334h-14.666667V96.5866667h28.773334V125.36c-7.847489 6.813099-17.901037 10.546462-28.293334 10.507292-20.64 0-34.826666-14.533959-34.826666-34.080625zM62.72 177.653333h60v10h-60v-10z" fill="#fff"/></svg>