<svg width="256px" height="321px" viewBox="0 0 256 321" xmlns="http://www.w3.org/2000/svg" preserveAspectRatio="xMidYMid"><title>DataStation</title><path d="M253.873754 117.160215c1.174293 0 2.126246.951953 2.126246 2.126246v34.203712c0 17.237124-8.292598 33.421688-22.283402 43.490246L63.0558795 319.797338c-.28943.20829-.637.320354-.9935871.320354-.9394346 0-1.7009967-.761562-1.7009967-1.700997v-60.347104c0-1.092777.5249425-2.119032 1.4110376-2.75856l190.8570737-137.74867c.362237-.26144.797618-.402146 1.244347-.402146zm-.425249-78.9858795c1.409152 0 2.551495 1.1423433 2.551495 2.551495v41.932413c0 1.6396178-.787846 3.1793694-2.117598 4.1385917L2.69612739 267.99121c-.28972391.208993-.63789368.321466-.99513071.321466C.761562153 268.312676 0 267.551114 0 266.611679v-44.340918c0-1.092688.524857786-2.118871 1.41083377-2.758413L251.955135 38.6570208c.434714-.3137981.957231-.4826853 1.49337-.4826853zM176.459718-2.8e-14c1.174293 3e-23 2.126245.9519526910000286 2.126245 2.1262458500000285V61.904863c0 1.0919745-.524176 2.1175783-1.409193 2.7572286L2.6973964 190.767851c-.28996484.209574-.63862798.322383-.99639972.322383C.761562153 191.090234 0 190.328671 0 189.389237V149.88407c0-14.481605 6.95770104-28.081376 18.701575-36.554765L175.215622.40196445c.362189-.261325489.797472-.4019644500000284 1.244096-.4019644500000284z" fill="#252539"/></svg>