<svg width="256" height="256" xmlns="http://www.w3.org/2000/svg" preserveAspectRatio="xMidYMid"><defs><linearGradient x1="48.681%" y1="46.207%" x2="50.185%" y2="99.477%" id="a"><stop stop-color="#21D789" offset="16%"/><stop stop-color="#419FBC" offset="54%"/><stop stop-color="#6B57FF" offset="100%"/></linearGradient><linearGradient x1="37.375%" y1="64.021%" x2="53.526%" y2="50%" id="b"><stop stop-color="#6B57FF" offset="0%"/><stop stop-color="#21D789" offset="95%"/></linearGradient><linearGradient x1="34.806%" y1="22.767%" x2="45.581%" y2="53.89%" id="c"><stop stop-color="#6B57FF" offset="0%"/><stop stop-color="#685CFB" offset="2%"/><stop stop-color="#4A91CA" offset="28%"/><stop stop-color="#34B7A7" offset="51%"/><stop stop-color="#26CE91" offset="69%"/><stop stop-color="#21D789" offset="80%"/></linearGradient><linearGradient x1="8.271%" y1="28.102%" x2="124.62%" y2="74.034%" id="d"><stop stop-color="#21D789" offset="8%"/><stop stop-color="#6B57FF" offset="89%"/></linearGradient><linearGradient x1="7.221%" y1="50%" x2="101.291%" y2="50%" id="e"><stop stop-color="#21D789" offset="31%"/><stop stop-color="#59A3B2" offset="49%"/><stop stop-color="#B74AF7" offset="77%"/><stop stop-color="#FF45ED" offset="100%"/></linearGradient></defs><path fill="url(#a)" d="M239.68 39.787l16.32 104.8-30.16 17.546z"/><path fill="url(#b)" d="M239.68 39.787L148.027 0l-25.574 21.227z"/><path fill="url(#c)" d="M172.987 256L30.773 142.693l-28.56 85.894z"/><path fill="url(#d)" d="M192.8 184.4L0 118.16 172.987 256z"/><path fill="url(#e)" d="M0 1.813V118.16l222.16 76.347 17.52-154.72z"/><path d="M48 47.68h160v160H48z"/><path d="M64.24 68.48h25.84c20.592 0 34.911 14.009 35.196 32.375l.004.745c0 18.667-14.4 33.12-35.2 33.12H64.24V68.48zM78.8 81.627v40h11.28a18.88 18.88 0 0019.947-19.787v-.24A19.013 19.013 0 0090.08 81.627H78.8zm49.067 20.16v-.187a34 34 0 0134.666-34.267 36.347 36.347 0 0126.027 9.094l-9.173 11.066a24.48 24.48 0 00-16.848-6.724l-.459.004c-10.554 0-18.863 9.19-19.037 20.286l-.003.541c0 12.107 8.347 21.013 20.08 21.013a23.28 23.28 0 0013.76-3.946v-9.494h-14.667V96.587h28.774v28.773a42.91 42.91 0 01-28.294 10.507c-20.64 0-34.826-14.534-34.826-34.08zM62.72 177.653h60v10h-60v-10z" fill="#FFF"/></svg>