<svg width="256px" height="256px" viewBox="0 0 256 256" xmlns="http://www.w3.org/2000/svg" preserveAspectRatio="xMidYMid"><title>dbt</title><path d="M245.121138 10.6473813c6.017991 5.786624 9.952995 13.4249529 10.878862 21.7576676 0 3.4719289-.925867 5.7867378-3.009138 10.1845333-2.082986 4.3977956-27.775715 48.8391111-35.413902 61.1066308-4.397796 7.175396-6.712604 15.739734-6.712604 24.072249 0 8.564338 2.314808 16.897138 6.712604 24.072534 7.638187 12.26752 33.330916 56.940088 35.413902 61.338168C255.074133 217.57696 256 219.659947 256 223.131876c-.925867 8.3328-4.629333 15.971271-10.647324 21.526471-5.786738 6.017991-13.424925 9.952995-21.526187 10.647324-3.471929 0-5.786738-.925867-9.952996-3.009138-4.166542-2.083271-49.53344-27.081386-61.801244-34.719573-.925867-.463076-1.851733-1.157404-3.008853-1.62048l-60.6438404-35.876978c1.3886577 11.573191 6.4810666 22.683591 14.8135824 30.784854 1.62048 1.620195 3.240675 3.009137 5.092409 4.397795-1.388943.694329-3.009138 1.388942-4.397796 2.314809-12.2678043 7.638187-56.9403732 33.330916-61.3381688 35.413902C38.1917867 255.074133 36.1085156 256 32.4050489 256c-8.3327147-.925867-15.9710436-4.629333-21.5262151-10.647324C4.86075733 239.565938.925858133 231.927751 0 223.594951c.231464676-3.471929 1.1573248-6.943858 3.00905244-9.952995C5.09223822 209.24416 30.7848533 164.571307 38.42304 152.303787c4.39808-7.175396 6.7126044-15.508196 6.7126044-24.072249 0-8.564338-2.3145244-16.897138-6.7126044-24.072534C30.7848533 91.4286933 4.86075733 46.75584 3.00905244 42.3580444 1.1573248 39.3489067.231464676 35.8769778 0 32.4050489c.925858133-8.3327147 4.62930489-15.9710436 10.6473813-21.7576676C16.4340053 4.62930489 24.0723342.925858133 32.4050489 0c3.4719289.231464676 6.9438578 1.1573248 10.1845333 3.00905244C46.2930489 4.62930489 78.9293511 23.6094009 96.28928 33.7939911l3.935004 2.3145245c1.388658.9258666 2.546063 1.6201955 3.471929 2.0832711l1.851734 1.15712 61.80096 36.5715911c-1.388658-13.888-8.564054-26.6185956-19.674454-35.1826489 1.388943-.6943289 3.009138-1.3889422 4.397796-2.3148089 12.267804-7.6381867 56.940373-33.56228267 61.338169-35.41398756C216.419556 1.1573248 219.891484.231464676 223.594951 0c8.101262.925858133 15.739733 4.62930489 21.526187 10.6473813zM131.240391 144.434062l13.193671-13.193671c1.851734-1.851733 1.851734-4.629049 0-6.480782l-13.193671-13.193671c-1.851733-1.851734-4.629049-1.851734-6.480782 0l-13.193671 13.193671c-1.851734 1.851733-1.851734 4.629049 0 6.480782l13.193671 13.193671c1.620195 1.620196 4.629049 1.620196 6.480782 0z" fill="#ff694a"/></svg>