<svg width="256px" height="201px" viewBox="0 0 256 201" xmlns="http://www.w3.org/2000/svg" preserveAspectRatio="xMidYMid"><defs><linearGradient x1="0%" y1="5.55111512e-15%" x2="100%" y2="100%" id="a"><stop stop-color="#7d58ff"/><stop stop-color="#ff007d" offset="1"/></linearGradient></defs><path d="M40.3527167 17.0210267l97.4344353 56.4278975 82.119513-56.4278975H40.3527167zM154.164775 82.930436l26.589 15.4048119 37.28459-59.2922367-63.87359 43.8874248zM34.3321617 33.2677934 83.186502 110.96457l39.020053-26.8071646-87.8743933-50.889612zM195.627331 106.945188l43.133742 24.979404V38.3533698l-43.133742 68.5918182zM17.2389274 38.3533698V156.277818l51.7767734-35.57788-51.7767734-82.3465682zM92.2923238 125.44704 128 182.226104l43.660808-69.429541-33.080914-19.1576462L92.2923238 125.44704zm35.7033912 75.086293c-5.579191 0-10.717016-3.084347-14.10224-8.466088v-.004231l-35.7719524-56.880607-54.0264471 37.1264c-5.4849185 3.769758-11.4583375 4.480554-16.3647685 1.946227C2.81530582 171.720708 0 166.482818 0 159.878338V21.2011844C0 12.959335 4.78644838 5.80060343 11.7625791 2.29739435 13.8922701.960420845 16.9818218.00423092881 21.4554585 5.54223334e-13h.0042851.0171403H234.523116h.017141.004285C238.713937.00423092881 241.692076.867340407 243.821767 2.09007884 251.020723 5.51713118 256 12.7943288 256 21.2011844V134.090827c0 6.460628-2.763885 11.732366-7.588899 14.465546-4.829299 2.724718-10.841284 2.41586-16.480466-.850417l-45.400555-26.295223-44.42784 70.652281c-3.385223 5.385972-8.523049 8.470319-14.106525 8.470319z" fill="url(#a)"/></svg>