<svg width="256px" height="256px" viewBox="0 0 256 256" xmlns="http://www.w3.org/2000/svg" preserveAspectRatio="xMidYMid"><title>deno</title><path d="M128 0c70.692448 0 128 57.307552 128 128 0 70.692448-57.307552 128-128 128C57.307552 256 0 198.692448 0 128 0 57.307552 57.307552 0 128 0z"/><path d="M123 72.45c17.9 0 33.25 4.95 45.35 14.4 10.18427 7.9595506 17.67999 18.900947 21.617158 31.277518L190.1 118.55l.1.3.1.35.2.65.3 1.2.8 2.8.85 3.2 3.75 13.7 3.7 13.8 4.2 15.7 6.75 25.25 2.55 9.5-.55.6c-17.622 19.2555-41.71266 32.483385-68.827419 36.287609L143.2 242l-.25-1.65-.45-3.3-.4-2.4-.45-3.15-.6-3.85-.25-1.5-.55-3.65-.35-2.15-.45-2.8-.45-2.7-.45-2.6-.45-2.55-.4-2.5-.45-2.4-.4-2.3-.3-1.7-.35-1.65-.6-3.15-.3-1.5-.35-1.85-.3-1.3-.25-1.25-.25-1.2-.15-.8-.35-1.5-.5-2.2-.2-.7-.25-1-.2-.95-.25-.95-.25-.9-.15-.55-.25-.85-.2-.8-.15-.55-.2-.5-.15-.45-.2-.7-.15-.5-.1-.3c-.216299-.635489-.451695-1.264276-.705861-1.885507L129.55 172.35l-.15-.3 1.15-3-4.55.15-1.25.05c-41.3.85-67.95-16.7-67.95-44.2 0-29.15 29-52.6 66.2-52.6zm-40.3 137.7c.9353846-3.2 4.2459645-5.091219 7.449903-4.289556L90.3 205.9c3.2492308.836923 5.1896805 4.097515 4.4849755 7.347666L94.75 213.4l-.05.15-6.05 22.55-.85-.35c-3.3788438-1.260319-6.6960187-2.679711-9.9404217-4.253373L77.05 231.1l5.6-20.8.05-.15zm34.8-15.25c.95-3.25 4.35-5.15 7.65-4.25 1.624584.443923 2.998687 1.523836 3.814718 2.9913l.085282.1587.2.9.3 1.45.2 1.05-.05.25-.15.7v.15l-8.5 31.5-.05.15c-1.040688 3.148987-4.359776 4.936807-7.561853 4.073176-3.152044-.850136-5.110175-3.978083-4.518266-7.171088L108.95 226.7v-.15l8.5-31.5.05-.15zm-51.6-36.7c3.024 2.64 6.5088 5.0496 10.3216896 7.09609L76.7 165.55l-7.7 28.6-.05.15c-.9942081 3.224745-4.3687353 5.077979-7.6234199 4.186655-3.2046126-.877612-5.1535252-4.103917-4.460983-7.335194L56.9 191l.05-.15 8.5-31.5.05-.2.4-.95zm-27.9-32c.95-3.2 4.35-5.1 7.65-4.25 3.2.886154 5.1396923 4.147503 4.4349757 7.397666L50.05 129.5v.15l-8.5 31.5-.05.15c-.9942081 3.224745-4.3687353 5.077979-7.6234199 4.186655-3.2046126-.877612-5.1535252-4.103917-4.460983-7.335194L29.45 158v-.15l8.5-31.5.05-.15zm190.6-7.15c.95-3.2 4.35-5.1 7.6-4.25 3.249231.886154 5.18968 4.147503 4.484976 7.349938L240.65 122.3v.2L232.1 154v.15c-.91127 3.341323-4.358677 5.31127-7.7 4.4-3.291452-.897669-5.25216-4.256335-4.438883-7.550326L220 150.85l.05-.15 8.5-31.5.05-.15zM27.1 72.75l.2167452.006545c.4330459.020482.8630487.0852672 1.2832548.193455 3.2492308.8861538 5.1896805 4.147503 4.4849755 7.3976659L33.05 80.5l-.05.15-8.5 31.5-.05.15c-.95 3.2-4.35 5.1-7.6 4.25-1.1999921-.309298-2.2797664-.971096-3.1-1.9 1.6682117-14.480254 6.0928224-28.5052116 13.0328143-41.3184187L27.1 72.75zm179.95 4.45c1-3.2 4.35-5.1 7.65-4.25 3.2.8861538 5.188166 4.147503 4.484941 7.3976659L219.15 80.5l-.05.15-8.5 31.5-.05.15c-.994208 3.224745-4.368735 5.077979-7.62342 4.186655-3.204612-.877612-5.153525-4.103917-4.460983-7.335194L198.5 109l.05-.15 8.5-31.5v-.15zM56.5 47.25c.95-3.2 4.35-5.1 7.6-4.25 3.2492308.8861538 5.1896805 4.147503 4.4849755 7.3499383L68.55 50.5l-.05.2L60 82.2l-.05.15c-.9942081 3.2247452-4.3687353 5.077979-7.6234199 4.1866546-3.2046126-.8776117-5.1535252-4.1039166-4.460983-7.3351938L47.9 79.05l.05-.15 8.5-31.5.05-.15zm109.2 5.95c.95-3.2 4.35-5.1 7.65-4.25 3.2.8861538 5.139692 4.147503 4.434976 7.3976659L177.75 56.5v.15l-6.7 24.75-.55-.45c-3.136754-2.3043981-6.460047-4.3427316-9.935173-6.0939468L159.95 74.55l5.7-21.2.05-.15zm-47.95-39.75c.183018.8588654.181344 1.7460389-.003975 2.602842L117.7 16.25l-.05.15-8.5 31.5-.05.15c-1.040688 3.1489872-4.359776 4.9368069-7.561853 4.0731763-3.1520437-.8501364-5.1101751-3.9780834-4.518266-7.1710881L97.05 44.8l.05-.15L105 15.3l.85-.15c3.934302-.7738265 7.906399-1.3412688 11.9-1.7zm78.2 21.75.75.55c3.204823 2.394249 6.28305 4.9531261 9.222294 7.6662574L206.55 44l-.2.65-.05.15c-1.040688 3.1489872-4.359776 4.9368069-7.561853 4.0731763-3.152044-.8501364-5.110175-3.9780834-4.518266-7.1710881L194.25 41.55l.05-.15 1.65-6.2zM146.5 14.5l.9.15c3.513661.5925994 6.997528 1.3491543 10.440198 2.2671415L158.7 17.15l-3.15 11.75-.05.15c-1.040688 3.1489872-4.359776 4.9368069-7.561853 4.0731763-3.152044-.8501364-5.110175-3.9780834-4.518266-7.1710881L143.45 25.8l.05-.15 3-11.15z" fill="#fff"/><path d="M131 93.5c4.418278 0 8 3.581722 8 8 0 4.418278-3.581722 8-8 8-4.418278 0-8-3.581722-8-8 0-4.418278 3.581722-8 8-8z"/></svg>