<svg width="256px" height="274px" viewBox="0 0 256 274" xmlns="http://www.w3.org/2000/svg" preserveAspectRatio="xMidYMid"><title>Dependabot</title><path d="M118.840072 2.1787935c5.08262-2.901782933 13.311707-2.90833122 18.405797 0l109.551233 71.5144448C251.879722 76.5950212 256 83.6791374 256 89.5416798v93.3450482c0 5.85107-4.108809 12.940111-9.202898 15.848442l-109.551233 72.550342c-5.08262 2.901783-13.311707 2.908331-18.405797 0L9.20289876 198.73517C4.12027812 195.833388 0 188.749271 0 182.886728V89.5416798c0-5.8510696 4.10880846-12.9401104 9.20289876-15.8484415L118.840072 2.1787935z" fill="#2b64cf"/><path d="M143.10673 59.9553077c1.05659 0 1.913125.8565351 1.913125 1.9131247l-4.95e-4 32.4112022 43.227954 1.412e-4c4.754653 0 8.609061 3.854408 8.609061 8.6090612l-9.01e-4 33.899472 4.99859 1.08e-4c1.584884 0 2.869687 1.284802 2.869687 2.869687v28.355441c0 1.584884-1.284803 2.869687-2.869687 2.869687l-4.99859-1.71e-4 9.01e-4 16.984758c0 4.754653-3.854408 8.609061-8.609061 8.609061H68.1987385c-4.7546532 0-8.6090612-3.854408-8.6090612-8.609061l-9.014e-4-16.984758-5.4428398 1.71e-4c-1.5848844 0-2.869687-1.284803-2.869687-2.869687v-28.355441c0-1.584885 1.2848026-2.869687 2.869687-2.869687l5.4428398-1.08e-4 9.014e-4-33.899472c0-4.7546532 3.854408-8.6090612 8.6090612-8.6090612l68.9213295-1.412e-4v-9.112213l-15.400156 9.53e-4c-1.056589 0-1.913124-.8565351-1.913124-1.9131247V61.8684324c0-1.0565896.856535-1.9131247 1.913124-1.9131247h21.386818zm23.660053 74.7715153-.036032.036233h0l-10.684598 10.928664c-1.158269 1.184727-3.057643 1.206176-4.24237.047906l-.036233-.036032h0l-3.656954-3.69919c-1.164827-1.178281-3.064291-1.189186-4.242571-.024359-.008166.008073-.016286.016192-.024359.024358l-3.71727 3.760203c-1.155381 1.168724-1.155381 3.049488 0 4.218212l11.645264 11.77976c1.164827 1.17828 3.064291 1.189186 4.242571.024359.01075-.010627.021419-.021336.032007-.032124l18.683721-19.037346c1.148154-1.169884 1.144748-3.044742-.007649-4.210447l-3.712956-3.755838c-1.164827-1.17828-3.064291-1.189186-4.242571-.024359zm-56.657169 0-.036032.036233h0L99.3889839 145.69172c-1.1582692 1.184727-3.057643 1.206176-4.2423702.047906l-.0362331-.036032h0l-3.6569543-3.69919c-1.164827-1.178281-3.0642906-1.189186-4.2425707-.024359-.0081662.008073-.016286.016192-.024359.024358l-3.7172706 3.760203c-1.1553803 1.168724-1.1553803 3.049488 0 4.218212l11.6452648 11.77976c1.1648271 1.17828 3.0642907 1.189186 4.2425707.024359l.0320071-.032124h0l18.6837204-19.037346c1.148154-1.169884 1.144748-3.044742-.007648-4.210447l-3.712956-3.755838c-1.164828-1.17828-3.064291-1.189186-4.242571-.024359z" fill="#fff"/></svg>