<svg width="256px" height="320px" viewBox="0 0 256 320" xmlns="http://www.w3.org/2000/svg" preserveAspectRatio="xMidYMid"><title>DeployHQ</title><g style="fill:#4b25bb"><path transform="matrix(-1 0 0 1 63.999576 0)" d="M9.254561230000001e-15 255.641772V191.73697L63.999576 255.641772z"/><path transform="matrix(-1 0 0 1 319.998446 0)" d="M127.999435 255.64149h63.999576V63.9242627h-63.999576z"/></g><path transform="matrix(-1 0 0 1 256 0)" d="M64.0004236 319.52937H128h63.999576L128 255.621747z"/><path d="M127.999152 95.858331c0 17.647587-14.326028 31.952401-31.9997877 31.952401-17.6737596 0-31.9997883-14.304814-31.9997883-31.952401 0-17.6475873 14.3260287-31.9524011 31.9997883-31.9524011 17.6737597 0 31.9997877 14.3048138 31.9997877 31.9524011" transform="matrix(-1 0 0 1 191.998728 0)"/><g style="fill:#40cf9f"><path transform="matrix(-1 0 0 1 448.000424 0)" d="M256 255.641776h-63.999576L256 191.736973z"/><path transform="matrix(-1 0 0 1 256 0)" d="M127.999999 0 64.0004236 63.9048022h63.9995754 63.999577z"/><path transform="matrix(-1 0 0 1 191.999294 0)" d="M63.9998591 255.644315h63.9995759V127.831889H63.9998591z"/></g></svg>