<svg width="256px" height="302px" viewBox="0 0 256 302" xmlns="http://www.w3.org/2000/svg" preserveAspectRatio="xMidYMid"><title>descript</title><path d="M0 274.036088c0 16.462224 10.6830506 27.138877 27.1513097 27.138877l79.3296733.001506c47.324212 0 86.036899-16.005944 112.356584-44.025757H0v16.885374zM106.480983.00150587482 27.1513097-2.13162821e-14C10.6830506-2.13162821e-14 0 10.6781584 0 27.140382v16.8853743h218.837567C192.517882 16.0059436 153.805195.00150587482 106.480983.00150587482zM175.712152 193.501904c0 13.317956 8.679319 21.958666 22.060627 21.958666h47.535131c5.388982-13.366145 9.009257-28.060471 10.69209-43.917334h-58.227221c-13.381308 0-22.060627 8.639205-22.060627 21.958668zM109.82405 107.78299c0 13.319463 8.679319 21.958667 22.060627 21.958667H256c-1.682833-15.856862-5.303108-30.5511882-10.69209-43.9173332H131.884677c-13.381308 0-22.060627 8.639204-22.060627 21.9586662zm22.045562 85.718914c0-13.319463-8.67932-21.958668-22.060628-21.958668H0v43.917334h109.808984c13.381308 0 22.060628-8.639205 22.060628-21.958666zM65.9815093 107.78299c0-13.3194622-8.6793195-21.9586662-22.0606275-21.9586662H0v43.9173332h43.9208818c13.381308 0 22.0606275-8.639204 22.0606275-21.958667z" fill="#0062ff"/></svg>