<svg width="256px" height="256px" viewBox="0 0 256 256" xmlns="http://www.w3.org/2000/svg" preserveAspectRatio="xMidYMid"><defs><circle id="a" cx="128" cy="128" r="128"/></defs><mask id="b" fill="#fff"><use href="#a"/></mask><use fill="#b3bbc6" href="#a"/><path d="M38.714754 176.727132l107.339838 79.843708L410.061375 273.175 207.754106 85.9239334l3e-6 42.6881956-18.874573-13.517399-35.121096-29.1707966-20.908309 34.0833976-29.394847-24.5397502-51.6864768-3.2788L38.714754 176.727132h0z" fill="#666c76" mask="url(#b)"/><path d="M118.837414 131.158952c0-27.131334-16.675844-45.5277021-48.4393577-45.5277021H39.0315871v91.3201011h32.0282094c30.8370775 0 47.7776175-18.661064 47.7776175-45.792399h0 0zm-22.7638505.132348c0 19.587501-10.0584461 28.057771-26.2048985 28.057771h-8.2055746V103.23353h8.2055746c15.4847123 0 26.2048985 8.867315 26.2048985 28.05777h0 0zm112.8928205 45.660051V85.6312499h-21.043328v51.0863171l-33.616385-51.0863171h-21.969763v91.3201011h21.043328v-54.659713l35.998648 54.659713h19.5875 0z" fill="#fff"/></svg>