<svg width="256px" height="305px" viewBox="0 0 256 305" xmlns="http://www.w3.org/2000/svg" preserveAspectRatio="xMidYMid"><title>Dgraph</title><defs><linearGradient x1="0%" y1="50%" x2="100%" y2="50%" id="a"><stop stop-color="#ff1800" offset="0%"/><stop stop-color="#ff009b" offset="100%"/></linearGradient></defs><path d="M206.7212 54.8100766c2.983205-5.4405574 4.550652-11.5485438 4.550652-17.7576558C211.238446 16.6027868 194.669065.033405404 174.219431 0c-17.029182.0206371912-31.859254 11.6278679-35.970377 28.1533677l-10.244023-.4045024C57.3185125 27.7600304.0169924191 85.0570234 5.60830465e-5 155.74354-.0402073001 189.145327 13.0252205 221.242593 36.3852347 245.118348c-4.8540289 6.411363-7.4630695 14.21826-7.4529569 22.247633.0334053 20.449634 16.6027868 37.019016 37.0524208 37.05242 15.6542432 0 29.1545112-9.829408 34.5343934-23.663391 9.025137 1.975638 18.236982 2.972431 27.475826 2.973093 70.690466-.011167 127.993621-57.314321 128.00496-128.004788.045595-39.43868-18.145365-76.6829239-49.278678-100.8930133v-.0202251zm-32.511882 4.9854922c-1.937701 6.972e-4-3.867693-.2439496-5.743934-.7281044l-15.371091 44.5963906 22.449883-3.660747-31.621976 51.533607 26.312882-6.391138-88.6062527 105.645917c8.4226834 8.076022 9.3706368 21.21465 2.1945272 30.416127-7.1761097 9.201476-20.1498472 11.482761-30.0344056 5.281211-9.8549931-6.282084-13.3480721-19.008638-8.080818-29.441351 5.2672542-10.432713 17.5816897-15.17839 28.4879646-10.978552l25.1094871-54.779739-24.5027335 6.633839 39.8434879-57.03484-24.4926214 5.925961 69.4429514-92.4591386c-7.311327-6.1486857-10.003247-16.2096974-6.739265-25.1879078 3.263982-8.9782104 11.788712-14.9614672 21.341802-14.9791816 12.562331 0 22.747677 10.1808186 22.75326 22.743148 0 12.5623308-10.180818 22.7476775-22.743148 22.7532606v.1112382z" fill="url(#a)"/></svg>