<svg width="256px" height="326px" viewBox="0 0 256 326" xmlns="http://www.w3.org/2000/svg" preserveAspectRatio="xMidYMid"><defs><path d="M244.828364 64.4290247 139.050994 3.38839172c-6.862122-3.97474787-15.326292-3.97474787-22.188414 0L11.0672138 64.4290247C4.21670092 68.4140969 5.68434189e-14 75.7408852 5.68434189e-14 83.6661817V205.837425C.00604377806 213.747388 4.22254667 221.055993 11.0672138 225.020596L63.99189 255.612894v62.372298c.0091619 2.374193 1.2818504 4.563883 3.3402692 5.74701 2.0584188 1.183127 4.5910996 1.180668 6.6472164-.006455l170.9569614-98.651165c6.852809-3.956469 11.072287-11.270231 11.067219-19.183171V83.6481863c-.041347-7.9380904-4.296756-15.256572-11.175192-19.2191616h0z" id="b"/></defs><mask id="a" fill="#fff"><use href="#b"/></mask><path fill="#ef6c00" mask="url(#a)" d="M255.895578 70.8714028 127.98378 144.742806 0 70.8714028V218.614208l63.99189 36.908709v73.889398l191.903688-110.798107z"/><g style="fill:#ff9800"><path mask="url(#a)" d="M127.98378 144.742806 2.84217094e-14 70.8714028 127.98378-3l127.911798 73.8714028z"/><path mask="url(#a)" d="M125.716351 142.493372.809796133 70.3855251 2.84217094e-14 70.8714028 127.98378 144.742806l127.911798-73.8714032-3.005243-1.7815515z"/><path mask="url(#a)" d="M127.98378 145.660575v-.917769L.809796133 71.3032941 2.84217094e-14 71.7891718z"/></g></svg>