<svg width="256px" height="256px" viewBox="0 0 256 256" xmlns="http://www.w3.org/2000/svg" preserveAspectRatio="xMidYMid"><title>Digital Ocean</title><path d="M128.000842 206.550408v49.448043c83.811718 0 149.068444-80.968157 121.651823-168.7933728-11.980983-38.3800764-42.477765-68.8768581-80.857842-80.85784028C80.9696082-21.0693834 0 44.1887943 0 128.000511h49.561262c.0072578 0 .0130638-.013063.0130638-.013063.0072578-52.5978769 52.0608082-93.2626717 107.3599932-73.1966311 20.486986 7.4347699 36.828384 23.7732646 44.267509 44.2587991 20.069049 55.266761-20.534609 107.29979-73.087765 107.374429v-49.288293c0 0-.004356-.002903-.008709-.002903H78.6965015c-.0043533 0-.0087086.007257-.0087086.007257v49.410302h49.3130491zm-49.3217578 37.97655H40.7155986l-.0087091-.008709v-37.967841h37.9809034v37.967841c0 0-.0043534.008709-.0087087.008709zm-37.9460671-37.97655H8.90807947c-.01306381 0-.02322459-.008709-.02322459-.008709v-31.810422c0 0 .01016078-.023224.02322459-.023224H40.7097925c.0130638 0 .0232246.01016.0232246.01016v31.832195z" fill="#0080ff"/></svg>