<svg width="512px" height="139px" viewBox="0 0 512 139" xmlns="http://www.w3.org/2000/svg" preserveAspectRatio="xMidYMid"><path d="M13.0169492 0h65.0847457c24.3633901 0 43.3898301 12.2055593 43.3898301 39.0508475v60.7457627c0 27.2097628-19.02644 39.0508478-43.3898301 39.0508478H13.0169492c-2.3963542 0-4.3389831-1.942629-4.3389831-4.338983V4.33898305c0-2.39635417 1.9426289-4.33898305 4.3389831-4.33898305z" fill="#6142d2"/><path d="M8.6779661 0h39.0508475c24.3633898 0 43.3898305 12.2055593 43.3898305 39.0508475v60.7457627c0 27.2097628-19.0264407 39.0508478-43.3898305 39.0508478H8.6779661c-2.39635417 0-4.33898305-1.942629-4.33898305-4.338983V4.33898305c0-2.39635417 1.94262888-4.33898305 4.33898305-4.33898305z" fill="#461c7c"/><path d="M4.33898305 0H17.3559322C41.719322 0 60.7457627 12.2055593 60.7457627 39.0508475v60.7457627c0 27.2097628-19.0264407 39.0508478-43.3898305 39.0508478H4.33898305c-2.39635417 0-4.33898305-1.942629-4.33898305-4.338983V4.33898305C-2.9346874599999996e-16 1.94262888 1.94262888 4.40203119e-16 4.33898305 0z" fill="#02e2ff"/><path d="M169.463322 103.944678l5.284881-1.509966c.959407-.24314 1.905196-.537161 2.833356-.880814.377492-.16922.564068-.711593.564068-1.6357963V39.1419661c0-.9242034-.186576-1.531661-.564068-1.8223729-.377491-.2950508-1.28-.6508474-2.707525-1.0717288l-5.410712-1.5099661V30.459661h39.51078c6.291525 0 12.079729.8808136 17.36461 2.6424407 5.284881 1.7616271 9.858169 4.2955932 13.715525 7.6149152 3.863124 3.319196 6.955043 7.4417554 9.059797 12.0797289 2.182508 4.7381695 3.271593 10.0837966 3.271593 16.0412203 0 5.0332203-.880813 9.9189153-2.642441 14.6614237-1.713074 4.6586206-4.295736 8.9493137-7.610576 12.6437966-3.314983 3.6881356-7.424 6.6690166-12.33139 8.9339666-4.907389 2.264949-10.509017 3.397423-16.800542 3.397423h-43.537356v-4.529898zm39.007458.377491c7.046508 0 12.604745-2.976542 16.674712-8.9339656 4.069966-5.9574237 6.10061-14.6397288 6.10061-26.0469153 0-3.7749152-.355797-7.7364067-1.06739-11.8888135-.645044-3.9442545-1.897995-7.7645863-3.71417-11.3247458-1.702917-3.3307505-4.158647-6.2187956-7.172339-8.434983-3.019932-2.2215594-6.877288-3.332339-11.576406-3.332339h-1.509966c-1.258306 0-2.599051.1475254-4.026577.4425763-1.226458.2232716-2.41352.6252936-3.523254 1.1932203v66.9418306c1.093424.420881 2.39078.754983 3.905085 1.006644 1.505627.251661 3.228203.377491 5.154712.377491h.754983zm224.412203 5.662373c-4.109017 0-7.883932-.672542-11.324746-2.013288-3.358406-1.289021-6.387909-3.309183-8.868881-5.914034-2.47322-2.6033895-4.404068-5.7882031-5.788203-9.5631183-1.388475-3.7749153-2.117424-8.0965424-2.204204-12.9605424-.082441-4.9464407.629153-9.3722034 2.139119-13.2772881 1.509966-3.9007458 3.588339-7.2113898 6.230779-9.9362712 2.656622-2.7368158 5.87685-4.8629066 9.437289-6.2307797 3.752013-1.4448958 7.742493-2.1705714 11.762983-2.1391186 3.118672-.0087601 6.22625.3716704 9.250712 1.1324746 2.832207.6899254 5.517341 1.8833184 7.927322 3.5232542 2.308339 1.5924068 4.174101 3.6490848 5.597288 6.1656949 1.431864 2.5166102 2.139118 5.4931526 2.139118 8.9339661 0 1.1715254-.08244 2.4515254-.251661 3.835661-.15188 1.2888078-.361811 2.5701096-.629152 3.84l-34.225899-.8808135v2.1391186c.17356 3.1023729.650848 5.9964746 1.449221 8.6823051.703982 2.4936162 1.85515 4.8385868 3.397424 6.920678 1.466576 1.9308474 3.254237 3.4408135 5.345627 4.5298983 2.100067 1.0890847 4.573288 1.6357966 7.424 1.6357966 3.692474 0 6.669017-.4816271 8.938305-1.4492203 2.357195-1.0273693 4.493563-2.5007259 6.291525-4.3389831l1.258305 1.2583051c-.968365 2.087934-2.150547 4.0698691-3.527593 5.9140339-1.458774 1.9621738-3.196877 3.7002768-5.159051 5.1590508-2.178614 1.594759-4.600609 2.827002-7.172339 3.649085-2.768271.924203-5.914034 1.384135-9.437288 1.384135zm7.927322-41.1465759c.391286-.9047495.666819-1.8552659.820068-2.8290169.12583-.8851526.186576-1.9091526.186576-3.085017 0-3.6056949-.629152-6.2047458-1.887457-7.8014915-1.258306-1.5924068-2.976543-2.3907797-5.159051-2.3907797-3.102373 0-5.536543 1.5924068-7.29817 4.7815593-1.761627 3.1891526-2.850712 7.3806102-3.271593 12.5830509l16.609627-1.2583051zM257.605424 104.448l2.264949-.754983c1.596746-.672542 2.664135-1.15417 3.210847-1.44922.546712-.290712.815729-.859119.815729-1.696543V62.7981017c0-1.5924068-.377491-2.6858305-1.128135-3.2715932-.759322-.5857627-1.848407-1.3450848-3.275933-2.2649492l-1.761627-1.006644V52.48l22.14617-4.5298983h3.774915v52.5971523c0 .837424.234305 1.405831.694237 1.700882.459932.290711 1.531661.772339 3.210848 1.444881l2.26061.754983v4.026576h-32.21261V104.448zm36.299932-48.2147797V52.48l22.146169-4.5298983h3.774916V60.407322c1.796001-3.4650597 4.330221-6.4939786 7.424-8.8732203 3.106712-2.3864407 7.172339-3.584 12.205559-3.584 4.113356 0 7.697356 1.0890847 10.760678 3.2715932 3.063322 2.1825085 5.180746 5.2024407 6.352271 9.0597966h.880814c.719967-1.5063309 1.584594-2.939142 2.581695-4.2782373 1.1247-1.5040231 2.4587-2.8394838 3.961491-3.9658305 1.596746-1.2149152 3.462509-2.1998644 5.597288-2.9548474 2.143458-.7549831 4.599322-1.1324746 7.363255-1.1324746 3.106711 0 5.788203.5640678 8.053152 1.7008814 2.219948 1.0945325 4.157605 2.6862321 5.662373 4.6513898 1.509966 1.9742373 2.625085 4.2391864 3.336678 6.7948474.711593 2.56 1.06739 5.2675255 1.06739 8.1182373v31.3317964c0 .837424.234305 1.405831.694237 1.700882.459932.290711 1.531661.772339 3.210847 1.444881l2.260611.754983v4.026576h-31.709288V104.448l2.264949-.754983c1.848406-.672542 2.980881-1.15417 3.397423-1.44922.420882-.290712.629153-.859119.629153-1.696543V70.7254237c0-1.4275254-.104136-2.9374915-.312407-4.5298983-.184043-1.5044462-.608906-2.9694898-1.258305-4.338983-.605215-1.2713859-1.514245-2.3741441-2.64678-3.2108475-1.128135-.8374237-2.577356-1.2583051-4.338983-1.2583051-2.42983 0-4.443118.6508475-6.039864 1.9525424-1.592407 1.3016949-2.850712 2.7465763-3.774915 4.3389831l.251661 5.5365423v31.3317964c0 .837424.234305 1.405831.694237 1.700882.459932.290711 1.531661.772339 3.210847 1.444881l2.260611.754983v4.026576H332.032V104.448l2.264949-.754983c1.848407-.672542 2.980882-1.15417 3.397424-1.44922.420881-.290712.629152-.859119.629152-1.696543V70.7254237c0-1.4275254-.104135-2.9157966-.312406-4.4691525-.189576-1.483853-.614334-2.9280303-1.258305-4.2782373-.605812-1.2698081-1.514798-2.3710224-2.64678-3.2065085-1.128136-.8374237-2.577356-1.2583051-4.338983-1.2583051-1.171526 0-2.282305.2516611-3.332339.7549831-1.032471.4925093-2.003775 1.1041247-2.894102 1.8223729-1.527941 1.2228136-2.791549 2.7432763-3.714169 4.4691525v35.9875252c0 .837424.190915 1.362441.564067 1.575051.381831.208271 1.071729.520678 2.082712.941559l3.518916 1.384136v4.026576h-32.212611V104.448l2.26495-.754983c1.679186-.672542 2.768271-1.15417 3.271593-1.44922.503322-.290712.754983-.859119.754983-1.696543V62.7981017c0-1.5924068-.355797-2.6858305-1.06739-3.2715932-1.029088-.8117526-2.100905-1.567818-3.210847-2.2649492-.298516-.2333995-.640816-.4045494-1.006645-.503322-.2846-.1883594-.578583-.3621426-.880813-.520678v-.004339zM465.408 104.448l2.264949-.754983c1.679187-.672542 2.768271-1.15417 3.271593-1.44922.503322-.290712.754983-.859119.754983-1.696543V62.7981017c0-1.5924068-.355796-2.6858305-1.067389-3.2715932-1.029088-.8117526-2.100905-1.567818-3.210848-2.2649492l-1.887457-1.006644V52.48L487.68 47.9501017h3.774915v13.3380339c.503322-1.5099661 1.214916-3.0372881 2.139119-4.5949831.921818-1.5475259 2.019654-2.9831574 3.271593-4.2782372 1.258305-1.301695 2.60339-2.3690848 4.026576-3.2065085 1.286135-.7984123 2.76464-1.2332667 4.278238-1.2583051.672542 0 1.40583.1041356 2.204203.3124068.798373.2126101 1.509966.5901017 2.139119 1.1324746.629152.5467118 1.154169 1.3667796 1.570712 2.4558644.420881 1.0890847.629152 2.5166101.629152 4.2782372 0 1.4275255-.251661 2.8116611-.754983 4.1524068-.503322 1.3450848-1.006644 2.5166102-1.509966 3.5232543-.728287 1.218555-1.525045 2.3948589-2.386441 3.5232542-1.345084-1.7616271-2.77261-2.9765424-4.282576-3.6490847-1.509966-.6725424-3.271593-1.0066441-5.284881-1.0066441-1.340746 0-2.56.1692203-3.644746.503322-1.093424.3341017-1.891797.8374237-2.395119 1.5099661v34.7292204c0 .9242033.13017 1.6141013.377492 2.0783733.251661.459932 1.301695.898169 3.145762 1.31905l6.291526 1.635797v4.026576H465.408V104.448zM274.093559 35.067661c-2.87452.0262766-5.640052-1.0986857-7.68-3.1240678-2.136918-1.9791893-3.327215-4.7765453-3.271593-7.6886779 0-3.0503051 1.093424-5.640678 3.271593-7.7667797 2.182509-2.1347797 4.742509-3.2021695 7.68-3.2021695 3.015594 0 5.575594 1.0673898 7.671322 3.1978305 2.100068 2.1347797 3.145763 4.7208136 3.145763 7.7667797 0 3.0503051-1.045695 5.614644-3.145763 7.6930169-2.095728 2.0827119-4.655728 3.1240678-7.675661 3.1240678h.004339z" fill="#110122"/></svg>