<svg width="256px" height="259px" viewBox="0 0 256 259" xmlns="http://www.w3.org/2000/svg" preserveAspectRatio="xMidYMid"><title>Discourse</title><path d="M129.095081 0C59.0099164 0 0 56.819755 0 126.929808v131.434571l129.070192-.124441C199.155357 258.239938 256 199.230021 256 129.144857 256 59.0596928 199.10558 0 129.095081 0z"/><path d="M130.339491 49.129302c-27.720489.0163612-53.3879144 14.615809-67.5703572 38.4335351-14.1824431 23.8177259-14.7879221 53.3404969-1.5939442 77.7196829l-14.236049 45.794283 51.1203577-11.548123c29.2734957 13.188903 63.6243577 7.265302 86.7897857-14.96638 23.165428-22.231681 30.496506-56.309916 18.522467-86.1009732-11.97404-29.7910573-40.850206-49.3163687-72.957596-49.3320248h-.074664z" fill="#fff9ae"/><path d="M191.856714 176.491821c-22.346351 28.189878-60.970839 37.624917-93.7972157 22.912418l-51.1203577 11.697453 52.0412211-6.147385c34.4997423 20.209684 78.6720553 11.317752 102.6650863-20.666589 23.993031-31.98434 20.169618-76.880233-8.886358-104.3468275 21.815562 28.6026205 21.443975 68.3610535-.902376 96.5509305z" fill="#00aeef"/><path d="M187.45572 161.546412c-19.280308 30.3681-56.707019 43.784604-90.8895135 32.581529l-49.6270659 16.973751 51.1203577-11.573012c36.4077447 16.445845 79.3608257 2.983673 99.8689797-31.300513 20.508153-34.284185 12.054942-78.4966329-19.654319-102.7970956 24.681063 26.1686251 28.461869 65.7472396 9.181561 96.1153406z" fill="#00a94f"/><path d="M65.8790589 167.024694c-14.2477885-34.343723-2.50618-73.9730196 28.150761-95.0120968 30.6569411-21.0390771 71.8574221-17.7425875 98.7790461 7.9034051-24.933436-32.720739-70.865839-40.7076125-105.3809994-18.3239859C52.9127062 83.9756427 41.4699552 129.171209 61.1751896 165.28252l-14.236049 45.794283 18.9399183-44.052109z" fill="#f15d22"/><path d="M61.1751896 165.28252c-17.6787878-32.654624-10.117564-73.2242575 18.137754-97.3178463 28.2553174-24.0935888 69.5100354-25.1497909 98.9612154-2.5336023-28.251388-29.7475764-74.619442-32.7918345-106.5176644-6.9933337C39.8582724 84.2362388 33.1395004 130.215822 56.3219911 164.062998l-9.3579623 47.038694 14.2111608-45.819172z" fill="#d0232b"/></svg>