<svg width="512px" height="86px" viewBox="0 0 512 86" xmlns="http://www.w3.org/2000/svg" preserveAspectRatio="xMidYMid"><defs><linearGradient x1="19.4143743%" y1="9.06316954%" x2="88.6006499%" y2="80.4988417%" id="c"><stop stop-color="#f34f26" offset="0%"/><stop stop-color="#f69e35" offset="100%"/></linearGradient><path d="M270.356257.364742204c-23.98225 0-43.439637 18.735048296-43.439637 41.857747396 0 24.5831464 18.612031 42.9601801 43.439637 42.9601801 24.207783 0 43.321349-18.6199158 43.321349-42.4775701 0-23.7157101-18.985816-42.340357396-43.321349-42.340357396z" id="a"/><filter x="-50%" y="-50%" width="200%" height="200%" filterUnits="objectBoundingBox" id="b"><feMorphology radius="1" in="SourceAlpha" result="shadowSpreadInner1"/><feGaussianBlur stdDeviation="4" in="shadowSpreadInner1" result="shadowBlurInner1"/><feOffset dx="3" dy="3" in="shadowBlurInner1" result="shadowOffsetInner1"/><feComposite in="shadowOffsetInner1" in2="SourceAlpha" operator="arithmetic" k2="-1" k3="1" result="shadowInnerInner1"/><feColorMatrix values="0 0 0 0 0   0 0 0 0 0   0 0 0 0 0  0 0 0 0.5 0" in="shadowInnerInner1"/></filter></defs><use fill="url(#c)" fill-rule="evenodd" href="#a"/><use fill="#000" fill-opacity="1" filter="url(#b)" href="#a"/><path d="M23.7456761 1.8914302H.392712098v81.4538516H23.6242351c12.325482 0 21.2395736-2.9208948 29.059118-9.3982788 9.2784148-7.6949491 14.7811156-19.2980933 14.7811156-31.2892182 0-24.0484902-17.9653956-40.7663546-43.7187926-40.7663546zm18.5726011 61.1763437c-5.021668 4.5311721-11.4864346 6.488424-21.7600355 6.488424h-4.2677869V15.6836683h4.2677869c10.2736009 0 16.4907538 1.8342336 21.7600355 6.5925164 5.494815 4.8860325 8.7721473 12.4516547 8.7721473 20.2648905 0 7.8290075-3.2773323 15.6595921-8.7721473 20.5266987zm32.4799717 20.2775079H90.66918V1.8914302H74.7982489v81.4538516zM129.525598 33.136488c-9.538646-3.5344089-12.345986-5.865447-12.345986-10.2467892 0-5.1336461 4.998011-9.0386869 11.849181-9.0386869 4.763014 0 8.671209 1.9525203 12.836481 6.5798991l8.294269-10.85241748C143.32099 3.58056537 135.138699.531920849 126.213568.531920849c-14.397867 0-25.398537 10.019678551-25.398537 23.319843751 0 11.2467067 5.12576 16.9812496 20.031472 22.368818 6.232924 2.1875168 9.401432 3.646387 10.992784 4.6431502 3.174817 2.0771158 4.769323 4.9980106 4.769323 8.4157099 0 6.6051336-5.256665 11.4832803-12.350716 11.4832803-7.573509 0-13.673952-3.7820225-17.340842-10.8650347l-10.2467895 9.904546C103.98354 80.534788 112.779344 85.3135737 124.884025 85.3135737c16.487599 0 28.084434-11.0069789 28.084434-26.7580461 0-12.9484591-5.360756-18.8154831-23.442861-25.4190396zm28.448758 9.5212968c0 23.964901 18.815484 42.5248849 43.005918 42.5248849 6.838553 0 12.700845-1.3516236 19.914761-4.7582827V61.7271904c-6.360674 6.3575199-11.980085 8.9156687-19.189269 8.9156687-15.997103 0-27.363674-11.6062986-27.363674-28.1017839 0-15.6264717 11.72143-27.9645711 26.638182-27.9645711 7.560891 0 13.311204 2.6858984 19.914761 9.1585509V5.03943561C213.933464 1.50818104 208.18315.0540422711 201.34302.0540422711c-24.067416 0-43.368664 18.9353472289-43.368664 42.6037425289zm191.65139 13.9483768-21.742687-54.7147314h-17.345573l34.579168 83.5341217h8.54346l35.183218-83.5341217h-17.217823l-21.999763 54.7147314zm46.439389 26.7391202h45.065684V69.5561979h-29.188445V47.5548575h28.071818V33.7626193h-28.071818v-18.078951h29.188445V1.8914302h-45.065684v81.4538516zm107.95482-57.4148243c0-15.2589942-10.489671-24.0390273-28.822545-24.0390273h-23.57692v81.4538516h15.894589V50.6082334h2.08027l21.974529 32.7370484h19.544129l-25.666653-34.3110511c11.98797-2.450902 18.572601-10.637924 18.572601-23.1037732zm-31.882229 13.4515723h-4.622647V14.6995224h4.876569c9.915586 0 15.287384 4.1652716 15.287384 12.0920629 0 8.1775591-5.371798 12.5904445-15.541306 12.5904445z" fill="#0b1015"/></svg>