<svg width="256px" height="249px" viewBox="0 0 256 249" xmlns="http://www.w3.org/2000/svg" preserveAspectRatio="xMidYMid"><path d="M132.668777 248.633094c-30.42164 0-58.2372374-11.116662-79.7430792-29.506303L0 226.35741l20.4468489-50.465151c-7.1237985-15.719137-11.1203453-33.169496-11.1203453-51.575712C9.3265036 55.6625036 64.5488345 0 132.668777 0 200.783194 0 256 55.6625036 256 124.316547c0 68.666935-55.214964 124.316547-123.331223 124.316547h0zm67.346417-124.672v-.346245c0-35.8731512-25.297957-61.4528922-68.91741-61.4528922H83.9864173V186.478504H130.39977c43.958331.001841 69.615424-26.646101 69.615424-62.51741h0 0zm-68.398043 31.974215h-13.779798V92.7143597h13.779798c20.238734 0 33.672288 11.5384173 33.672288 31.4382733v.346245c0 20.067453-13.433554 31.436431-33.672288 31.436431h0z" fill="#2e9fff"/></svg>