<svg width="256px" height="256px" viewBox="0 0 256 256" xmlns="http://www.w3.org/2000/svg" preserveAspectRatio="xMidYMid"><rect fill="#092e20" width="256" height="256" rx="28"/><path d="M186.377012 94.197636v66.226842c0 22.818808-1.669493 33.763267-6.677975 43.224928-4.638679 9.09186-10.761353 14.841142-23.375306 21.149315l-26.528794-12.61515c12.61515-5.935978 18.736627-11.128761 22.632112-19.108822 4.082182-8.161969 5.381874-17.62363 5.381874-42.481734V94.197636h28.568089zm-45.448526-44.1189153V182.316986c-14.655642 2.78249-25.415798 3.895486-37.102255 3.895486-34.8774592 0-53.0575879-15.767441-53.0575879-46.007418 0-29.125785 19.2943213-48.0467136 49.1609061-48.0467136 4.6374828 0 8.1619698.3698019 12.4296498 1.4827977V50.0787207h28.569287zm-38.21525 65.0815333c-14.470143 0-22.8188085 8.905164-22.8188085 24.487105 0 15.213337 7.9776669 23.560805 22.6333085 23.560805 3.152292 0 5.750479-.185499 9.831463-.7408v-45.824312c-3.338987-1.111799-6.121477-1.482798-9.645963-1.482798zm83.663776-64.9295435v29.3112836h-28.568089V50.2307105h28.568089z" fill="#fffffd"/></svg>