<svg width="256px" height="185px" viewBox="0 0 256 185" xmlns="http://www.w3.org/2000/svg" preserveAspectRatio="xMidYMid"><path d="M250.715745 70.4971666c-5.764643-3.9998389-18.975281-5.4997786-29.303599-3.4998595-1.200967-9.9995979-6.725416-18.7492462-16.333153-26.4989347l-5.524449-3.9998393-3.843095 5.7497689c-4.803869 7.4996986-7.205803 17.9992766-6.485223 27.9988749.240194 3.4998595 1.441161 9.7496078 5.044063 15.2493871-3.362709 1.9999198-10.328318 4.499819-19.455668 4.499819H1.15476998l-.480386876 1.9999198C-1.00697093 101.9959-1.00697093 133.244645 18.6888904 157.243681c14.8919927 18.249266 36.9897884 27.498894 66.0531938 27.498894 62.9306788 0 109.5282048-30.248784 131.3858068-84.9965841 8.646963.2499904 27.141857 0 36.509401-18.7492459.240194-.4999801.72058-1.4999404 2.401935-5.2497896L256 73.7470364l-5.284255-3.2498698h0zM139.986573 0h-26.421278v24.9989952h26.421278V0h0zm0 29.9987943h-26.421278v24.9989953h26.421278V29.9987943h0zm-31.225146 0H82.3401495v24.9989953h26.4212775V29.9987943h0zm-31.2251456 0H51.1150037v24.9989953h26.4212777V29.9987943h0zM46.311135 59.9975886H19.8898576v24.9989953H46.311135V59.9975886h0zm31.2251464 0H51.1150037v24.9989953h26.4212777V59.9975886h0zm31.2251456 0H82.3401495v24.9989953h26.4212775V59.9975886h0zm31.225146 0h-26.421278v24.9989953h26.421278V59.9975886h0zm31.225146 0h-26.421278v24.9989953h26.421278V59.9975886h0z" fill="#2396ed"/></svg>