<svg width="256px" height="286px" viewBox="0 0 256 286" xmlns="http://www.w3.org/2000/svg" preserveAspectRatio="xMidYMid"><defs><linearGradient x1="77.0408937%" y1="13.1836579%" x2="22.8410618%" y2="87.5393848%" id="a"><stop stop-color="#7236dc" offset="0%"/><stop stop-color="#3f37ae" offset="100%"/></linearGradient></defs><path d="M240.48144 60.1304836 143.524809 4.15951581c-9.606926-5.54502108-21.438526-5.54502108-31.045452 0L15.5227262 60.1304836C5.91996615 65.6796707 0 75.9281695 0 87.0182116V198.972645c0 11.090043 5.91996615 21.338541 15.5227262 26.883562l96.9566308 55.983466c9.606926 5.545021 21.438526 5.545021 31.045452 0l96.956631-55.983466C250.0842 220.311186 256 210.062688 256 198.972645V87.0182116c0-11.0900421-5.9158-21.3385409-15.51856-26.887728h0zm-9.315302 135.9175904c0 3.328679-1.77474 6.403228-4.657651 8.069651l-22.684177 13.098081c-2.882911 1.662257-6.432391 1.662257-9.315303 0l-22.688343-13.098081c-2.878745-1.662256-4.653485-4.740972-4.653485-8.069651v-26.196163c0-3.328679 1.77474-6.399063 4.653485-8.065485l22.688343-13.098081c2.882912-1.662257 6.432392-1.662257 9.315303 0l22.684177 13.098081c2.882911 1.662256 4.657651 4.736806 4.657651 8.065485v26.196163z" fill="url(#a)"/></svg>