<svg width="256px" height="183px" viewBox="0 0 256 183" xmlns="http://www.w3.org/2000/svg" preserveAspectRatio="xMidYMid"><defs><linearGradient x1="50%" y1="95.3158867%" x2="50%" y2="14.5198648%" id="a"><stop stop-color="#fffa8f"/><stop stop-color="#fb784b" offset="1"/></linearGradient><linearGradient x1="57.4158585%" y1="48.6362007%" x2="68.3114661%" y2="19.7325573%" id="b"><stop stop-color="#5bcb99"/><stop stop-color="#85a8e8" offset="1"/></linearGradient><linearGradient x1="9.85614077%" y1="88.6828183%" x2="151.349423%" y2="-41.4538244%" id="c"><stop stop-color="#34e28b"/><stop offset="1"/></linearGradient><linearGradient x1="0.00029640403%" y1="50.0934579%" x2="100%" y2="50.0934579%" id="d"><stop stop-color="#c297ff"/><stop stop-color="#ae31bb" offset="1"/></linearGradient><linearGradient x1="-63.3906838%" y1="194.889303%" x2="115.247554%" y2="3.93130561%" id="e"><stop/><stop stop-color="#d23de2" offset="1"/></linearGradient><linearGradient x1="68.7499819%" y1="-12.4353404%" x2="61.5187036%" y2="21.0221395%" id="f"><stop/><stop stop-opacity="0" offset="1"/></linearGradient><linearGradient x1="24.8314345%" y1="47.344334%" x2="190.586495%" y2="93.6656212%" id="g"><stop stop-color="#2db5f9"/><stop offset="1"/></linearGradient><linearGradient x1="97.218685%" y1="-45.3425453%" x2="21.8179137%" y2="94.7216551%" id="h"><stop/><stop stop-color="#48080a" offset=".21"/><stop stop-color="#891014" offset=".42"/><stop stop-color="#bc151b" offset=".61"/><stop stop-color="#e01a21" offset=".78"/><stop stop-color="#f71c24" offset=".91"/><stop stop-color="#ff1d25" offset="1"/></linearGradient></defs><path d="M31.0351705 117.481944l.6035698.95403c3.1165231 4.421654 6.7507796 8.454632 10.8253167 12.012986 9.4773922 7.762008 21.3549316 11.994155 33.6052098 11.974047h2.3169293c8.5074032-.692337 16.8455731-2.763728 24.6879519-6.133048-3.5174572.56444-7.0691449.889686-10.6306163.973499-12.2438136-.009757-23.9074409-5.218755-32.0865501-14.329916-10.0333121.082374-19.9885792-1.768539-29.3218111-5.451598z" fill="url(#a)"/><path d="M76.0497968 36.1947189c18.6073193-.0162226 35.8642592 9.7129686 45.4819062 25.6419822-11.148427-10.1120768-26.7512593-13.7030879-41.1985076-9.4818871 9.7349971 4.6922686 22.9940626 8.2747475 41.2569176 9.5208271 0 0-.89562-17.3867047-23.149823-26.4791919-31.1519906-12.6749661-35.4548593-10.1633369-43.3402068-23.3639929-1.1643599 9.2238992 1.3695858 18.5336997 7.0481378 25.8950921 4.5371123-1.1884101 9.2115605-1.7710795 13.9015758-1.7328295z" fill="#f15a24"/><path d="M98.44029 35.3964492c-10.6500868-4.2444587-18.1460345-6.8923779-23.7533928-8.9172573 1.4488929 3.5667739 3.4171741 6.8997299 5.8409982 9.890757 16.9879455 1.402248 32.2696876 10.8754795 41.0816866 25.4667522-6.664443-6.059636-15.059685-9.8793696-24.0065018-10.9226667 7.3994168 4.4148244 15.2274588 8.0679108 23.3639928 10.9031968h.68145c0 0-.93456-17.3282948-23.208233-26.420782z" fill="#ed1c24"/><path d="M121.551173 61.8756411h.11682c.35046-1.9469993 2.433749-16.9194248-14.505146-30.0616708C81.890795 12.2076863 76.9648865 10.3775068 75.7577469 0c-4.1008694 8.27387426-4.4902094 17.9011907-1.0708497 26.4791919 5.5878883 1.9469994 13.103306 4.5754486 23.7339227 8.9172573 22.2931431 9.0924872 23.1692931 26.4791919 23.1692931 26.4791919h-.03894z" fill="#c1272d"/><path d="M198.24348 44.7809863c9.483922-.0116021 18.652626 3.4041897 25.817212 9.6181771 8.282595.3588954 16.165989 3.6585997 22.234733 9.3066572 0 0-21.241764-30.8599406-58.682562-18.0292146-3.354967 1.2093094-6.567237 2.7827994-9.579237 4.6922686 6.10682-3.6571836 13.091691-5.5884535 20.209854-5.5878883z" fill="url(#b)"/><path d="M198.24348 44.7809863c-7.116467-.0074241-14.101466 1.9171519-20.209854 5.5684184l1.090319-.6619799c-30.25637 17.8150446-67.346709 72.5646672-118.7669634 73.2461172 8.1965979 9.075097 19.8578392 14.24765 32.0865501 14.232566 3.5614714-.083812 7.1131591-.409059 10.6306163-.9735 33.44945-13.784755 65.574941-46.7279853 80.157966-62.7128504 13.512176-14.8166655 28.328841-19.859394 40.886987-19.1000642-7.182564-6.2201626-16.374112-9.6298188-25.875621-9.5987071z" fill="url(#c)"/><path d="M120.129863 150.892454c-.676629 2.209609-1.037153 4.503856-1.07085 6.814498-.00545 2.674882.401716 5.3346 1.207141 7.885348-.876648-6.456938 1.534928-12.924346 6.425098-17.230945l.155759-.5841c1.705805-5.610317 5.421774-10.393933 10.435917-13.434296-1.583539.509155-3.137114 1.107184-4.653329 1.791239-6.0219 2.98722-10.544364 8.326827-12.499736 14.758256z" fill="url(#d)"/><path d="M255.524202 92.5798217c.012149-10.3850064-3.236315-20.5117712-9.287187-28.9518812-6.065897-5.6054726-13.924542-8.8758836-22.176323-9.2287771 8.67626 7.5037161 13.652313 18.4154907 13.628995 29.8864408 0 13.2590661-4.809088 28.4261908-20.404553 36.5841188-22.702014 11.876697-57.533832 6.230398-80.157966 13.628996-5.003044 3.03922-8.711266 7.814855-10.416446 13.414826l-.155761.5841c6.619798-5.840998 19.684165-9.988107 45.170386-6.697678 18.204445 2.336399 32.651181 2.978908 45.073037-.584101 12.008446-2.620294 22.560993-9.731945 29.497041-19.878863 5.991422-8.393018 9.217334-18.445064 9.228777-28.7571813z" fill="url(#e)"/><path d="M255.524202 92.5798217c.012149-10.3850064-3.236315-20.5117712-9.287187-28.9518812-6.065897-5.6054726-13.924542-8.8758836-22.176323-9.2287771 8.67626 7.5037161 13.652313 18.4154907 13.628995 29.8864408 0 13.2590661-4.809088 28.4261908-20.404553 36.5841188-22.702014 11.876697-57.533832 6.230398-80.157966 13.628996-5.003044 3.03922-8.711266 7.814855-10.416446 13.414826l-.155761.5841c6.619798-5.840998 19.684165-9.988107 45.170386-6.697678 18.204445 2.336399 32.651181 2.978908 45.073037-.584101 12.008446-2.620294 22.560993-9.731945 29.497041-19.878863 5.991422-8.393018 9.217334-18.445064 9.228777-28.7571813z" fill="url(#f)" opacity="0.49"/><path d="M142.734527 177.663696c-12.42976-3.808362-19.538865-16.850371-16.004335-29.360752-4.890169 4.3066-7.301746 10.774008-6.425098 17.230946 2.504253 7.837854 8.779461 13.892739 16.701778 16.115378 7.922319 2.22264 16.4313.315521 22.647079-5.075892-5.315025 2.426966-11.336858 2.815024-16.919424 1.09032z" fill="url(#g)"/><path d="M151.028744 175.930866c2.472689-7.223367 10.494326-18.360204 19.080594-13.259065 0 0 6.989728 3.893999 8.449977-7.145488 0 0 5.237429 26.050852-19.995684 25.174702 0 0 5.685239-4.147109 5.626829-8.411037-4.033582 2.247162-8.546696 3.495611-13.161716 3.640888z" fill="#2db5f9"/><path d="M161.1142 159.984941c2.812668-1.899542 6.443322-2.094175 9.442948-.506219 3.563009 1.577069 8.041107-4.594919 4.166579-10.124398 0 0 .253109 5.704708-4.341809 5.646299-3.768913-.161133-7.324367 1.751044-9.267718 4.984318z" fill="#5fd2ff"/><g style="fill:#219058"><path d="M186.464134 77.1011765c-6.035699 8.2358075-14.914016 15.1281853-15.945926 16.8220748-1.03191 1.6938896 1.7523 7.1454877 5.840998 7.5348877 4.088699.3894.95403-1.5770695.60357-3.5045989-.35046-1.9275294 1.226609 1.2266097 6.171988.4867499 4.945379-.7398598-1.791239-2.5700392-1.32396-5.0621985.467281-2.4921592 5.548949-7.2233678 7.573828-11.9740463 2.024879-4.7506786 5.490538 0 3.718769 3.7187688-.70092 1.4797195 5.626828-4.1471088 2.433749-8.4305074-3.193079-4.2833987-5.548948-4.4002186-9.073016.4088699z"/><path d="M169.233188 95.1109209c-.895619.8566798-3.504599 2.7647392-3.504599 2.7647392 0 0 2.57004 3.5630089 5.840999 3.5045989 0 0 .70092-.33099-.31152-1.3823695-1.127709-1.4022482-1.830357-3.0980611-2.02488-4.8869686z"/></g><path d="M80.3331954 52.354814c-7.1168355-3.2416152-13.3478431-8.1502867-18.1655044-14.3104456-16.235343 4.3945639-29.4297424 16.2192727-35.5703644 31.8778588-6.140622 15.658586-4.5016792 33.3002918 4.418374 47.5597168 9.339314 3.685518 19.3014289 5.536476 29.341281 5.451598-9.9970974-11.054989-13.6026955-26.4760148-9.5435609-40.8174992 4.0591346-14.3414844 15.2118316-25.5854039 29.5197747-29.7612288z" fill="url(#h)"/><path d="M80.4305454 36.3699489c2.3558693 3.407249 9.1314273 9.2871872 17.1141249 14.5440855 8.9399577 1.047226 17.3278377 4.8667072 23.9870327 10.9226667-8.815931-14.5965567-24.1061373-24.0705453-41.1011576-25.4667522z" fill="#f7b852"/><path d="M80.4305454 36.3699489c-1.4407795-.1168199-2.901029-.17523-4.3612786-.17523-4.699556.0315748-9.3741687.6862824-13.9015758 1.9469995 4.8176613 6.1601589 11.0486689 11.0688304 18.1655044 14.3104456 5.5816531-1.63474 11.4372701-2.1182921 17.2114749-1.4213095-7.9826976-5.3737184-14.7582556-11.2536566-17.1141249-14.6609056z" fill="#ff8431"/><path d="M109.908117 48.4608153c-4.087802-3.8368435-8.955907-6.7457521-14.2715062-8.5278575 3.4267189 6.522448 6.3861572 8.5278575 14.2715062 8.5278575z" fill="#fffb69"/><g style="fill:#c1272d"><path d="M94.8772811 20.7160737c2.6609769 1.6215289 5.2166549 3.4098531 7.6517079 5.3542483.60357.4672799-1.09032-4.1471086-3.0567893-5.0232584-1.4746925-.5182346-3.0611757-.6325151-4.5949186-.3309899z"/><path d="M104.320228 27.3942816c2.631337 1.6663281 5.166472 3.4799249 7.593298 5.4321284.62304.4478098-1.05138-4.1665787-3.017849-5.0621984-1.465169-.5277519-3.044527-.6554446-4.575449-.36993z"/><path d="M113.198546 33.9361997c1.609724 1.5066284 2.993399 3.2378608 4.108168 5.1400784.31152.4478099 0-3.0178491-1.07085-4.0108188-.89379-.6402235-1.942371-1.0300807-3.037318-1.1292596z"/></g><g style="fill:#44c688"><path d="M72.2726179 118.124454c-.2336398-.759329 2.7452692-1.732829 3.543539-1.771769 1.4532294.237528 2.8595708.704117 4.1665787 1.38237-1.834839.693633-3.7654926 1.100777-5.7241783 1.207139-.7115218-.131922-1.3878251-.4104-1.9859394-.81774z"/><path d="M83.0005846 115.573884c-.2531099-.584099 2.0443495-1.616009 2.6868593-1.713358 1.1816484.069334 2.3448248.325627 3.4461889.759329-1.4099946.707031-2.9203539 1.192972-4.4780986 1.44078-.5794607-.045592-1.1430762-.211362-1.6549496-.486751z"/><path d="M91.9957219 112.283455c-.2531099-.467279 1.5381295-1.499189 2.0443494-1.654948.9773923-.049987 1.9565333.055156 2.9010291.311519-1.074342.705263-2.2494053 1.24356-3.4851289 1.59654-.4993064.021909-.9974445-.064435-1.4602496-.253111z"/><path d="M99.1412098 109.031967c-.27258-.40887 1.3044892-1.47972 1.7522992-1.65495.883549-.140891 1.783841-.140891 2.66739 0-.952129.721594-2.009313 1.292867-3.13467 1.693889-.4265104.074825-.8638216.061573-1.2850192-.038939z"/><path d="M105.799948 105.391078c-.253111-.33099 1.051379-1.34343 1.440779-1.518659.767492-.122004 1.549438-.122004 2.31693 0-.78713.676678-1.673641 1.228285-2.62845 1.635479-.380448.039596-.764973-1.82e-4-1.129259-.11682z"/><path d="M61.5057112 118.981134c-.1168199-.85668 3.193079-1.3629 4.0497588-1.265549 1.4953125.50226 2.9016054 1.238264 4.1665788 2.180639-2.0550366.423339-4.16292.528406-6.2498682.311519-.7340107-.266945-1.4039076-.684802-1.9664694-1.226609z"/></g><path d="M63.5500606 18.5743743c2.2546368 1.9978779 4.909807 3.4914111 7.7879976 4.3807486-.9584979-2.8488956-1.32941-5.862556-1.0903197-8.8588472 0-.2141699-6.7171479-.11682-7.7879975-5.62682828-.29205-1.10978967-1.2460796 7.45700768 1.0903196 10.10492688z" fill="#c1272d"/><g style="fill:#f15a24"><path d="M40.6922875 145.869196c.191253-1.817118 1.1471145-3.466864 2.6284493-4.536509l.2141699-.116821c-.5527074-.126271-1.1116001-.223753-1.6744195-.292049-8.0021675-1.18767-10.0465169 3.582479-10.4553868 8.936728 0 .31152 0 .62304 0 .915089 1.8630611-3.288239 5.4609217-5.201026 9.2287772-4.906438h.0584099z"/><path d="M50.4467546 144.077957c-7.9632275-4.828559-12.4413262-5.179019-14.2130957 8.352627 0 0 8.3720975-6.619799 12.3439763-2.23905 4.3028687 4.770149 10.1438669.36993 7.0870778-2.394809-1.5479873-1.488231-3.3060463-2.741176-5.2179584-3.718768z"/><path d="M47.1563256 145.693965c-4.5170386 2.998379-4.5170386 10.065987-4.5170386 10.065987 0 0 8.2358074-4.458628 7.5932976-7.242837-.2675175-1.529249-1.5297168-2.687596-3.076259-2.82315z"/><path d="M9.73499703 90.0681925c1.53446097-.9899699 3.41767927-1.2802405 5.17901847-.7982698h.2336398c-.2469175-.506992-.5198612-1.00089-.8177397-1.4797195-4.1665787-6.9118479-9.15089718-5.5100083-13.590055826-2.4921592C.467279857 85.4732739.233639929 85.6679738 0 85.8626738c3.72943769-.6031808 7.47109921 1.0058096 9.59870707 4.1276388l.13628996.0778799z"/><path d="M18.1849745 98.38188c-2.9010292-11.4872965-5.2374284-15.9264552-16.33532507-7.9826976 0 0 9.50135717-2.7257991 10.59167677 10.7863766.5062199 6.386158 6.6587379 7.671178 6.580858 3.543539.0327444-2.145292-.2493271-4.283788-.8372097-6.347218z"/><path d="M14.1352157 92.2293618c-5.27636841-1.2460796-10.45538682 3.582479-10.45538682 3.582479 0 0 8.11898752-.27258 9.09248722 4.6338582.5646298 2.74527 1.3628996-8.2163372 1.3628996-8.2163372z"/></g><path d="M183.232114 73.4992276c5.103125-5.9275095 11.237881-10.8814908 18.107094-14.6219656 6.700796-3.4343617 14.102377-5.2797603 21.631164-5.3931883l2.161169 1.9469994h-1.129259c-7.681229-.5005595-15.35982 1.016365-22.273674 4.4002187-6.937357 3.4064521-13.203215 8.0365913-18.496494 13.6679358z" fill="#29b36e"/><path d="M223.788111 53.5619537c4.214952.3968396 8.341167 1.4546752 12.227157 3.134669 3.858417 1.6406015 7.357653 4.0219346 10.299627 7.0091979-3.131461-2.7574512-6.777417-4.8682683-10.727967-6.2109282-3.425903-1.0827162-6.956573-1.8005973-10.533267-2.1416993l-2.161169-1.9469994.895619.15576z" fill="#6fd191"/><path d="M127.197471 146.784285c1.16304-.81982 2.379357-1.561319 3.640889-2.219579.881413-.447262 1.784653-.850146 2.706329-1.20714.91509-.3894 1.946999-.681449 2.78421-.992969 3.743937-1.146972 7.602772-1.878257 11.506766-2.180639 7.746874-.501016 15.524857-.194333 23.208233.915089 7.622432 1.122717 15.297033 1.857035 22.994063 2.200109 7.708585.392955 15.432617-.368291 22.916183-2.258519-7.462397 2.031333-15.186297 2.936938-22.916183 2.68686-7.7222-.198689-15.429295-.790043-23.091413-1.77177-7.623333-.932138-15.322921-1.069165-22.974594-.408871-3.790272.341901-7.531496 1.099286-11.156306 2.25852-.895619.31152-1.791239.603569-2.647919.99297-.869899.359343-1.721166.762233-2.550569 1.20714-1.644414.876829-3.185629 1.934782-4.594918 3.154139l-.62304.545159c.197238-.991023.463987-1.966934.798269-2.920499z" fill="#c83ad7"/><path d="M81.7739751 55.781533c-7.4375378 1.6354795-6.2888082 7.5348877-6.2888082 7.5348877 0 0 2.3558693-2.8426191 15.3034154-4.3807487-3.0824263-.8150095-6.0964663-1.8695979-9.0146072-3.154139z" fill="#c1272d"/><path d="M120.266154 165.631239c-.245789-1.637346-.278511-3.299627-.097351-4.945378.165153-1.677872.524507-3.330904 1.07085-4.925909.54867-1.603867 1.280378-3.139148 2.18064-4.575449.938033-1.413098 2.028396-2.718923 3.251489-3.893997l.525689-.486751c0 0-.73986 2.35587-.817739 2.939969-.69817.709012-1.348594 1.463504-1.947 2.25852-1.960912 2.578396-3.294151 5.578184-3.893999 8.761497-.299902 1.604014-.391519 3.240029-.272579 4.867498z" fill="#fba9ff"/><path d="M58.6436221 122.933542c-4.5941788-5.462996-7.7825358-11.966709-9.2871871-18.944304-.7977258-3.642305-1.1184247-7.3728826-.9540298-11.0978964l.1557599-2.7842091.3893999-2.7647392c.134497-.9174094.3164611-1.82723.5451599-2.7257991.1792531-.9089326.4133204-1.8061908.7009198-2.6868592 1.0369001-3.5523863 2.5428714-6.9506432 4.4780986-10.1049269.9528256-1.5799888 1.9995962-3.1013822 3.1346691-4.5559786l1.7912394-2.1027593c.5840999-.7009199 1.2850196-1.3239597 1.9469994-1.9469995 2.6219284-2.5733984 5.5593247-4.8042496 8.7420273-6.6392679 3.184172-1.7996354 6.5693371-3.2177452 10.085457-4.2249888-3.4692859 1.111397-6.795606 2.6275192-9.910227 4.5170387-3.0863274 1.9068468-5.9189905 4.1965283-8.4305074 6.8144979-.6035698.6619798-1.2655497 1.2850196-1.8301795 1.9469994l-1.7912394 2.1611693c-1.0702213 1.4584975-2.0519747 2.9798902-2.9399692 4.5559786-1.7942726 3.1268454-3.1627863 6.4793765-4.0692287 9.968637-.254892.8629457-.4564625 1.7407529-.6035698 2.6284492-.1765492.8816749-.3065293 1.7720384-.3893999 2.6673892l-.2920499 2.6673892v2.6868591c-.0467575 3.5761301.3721204 7.1431374 1.2460796 10.6111474 1.7389694 6.92257 5.2018325 13.292363 10.065987 18.515964l.7787998.837209c0 0-2.9204991.05841-3.563009 0z" fill="#ff737d"/><path d="M103.074148 136.289959c-3.835662.856532-7.7519324 1.300376-11.6819959 1.323959-3.9647209-.111645-7.8953757-.766754-11.6819964-1.946999-3.7895384-1.12533-7.445436-2.659501-10.9031967-4.575449-3.5058361-1.918385-6.707786-4.346093-9.5013571-7.203898l-.8177398-.85668h3.465659c2.3085821 2.468033 4.9262303 4.627593 7.7879976 6.425098 3.3211998 2.010431 6.8535477 3.649283 10.5332668 4.886969 3.6166411 1.318312 7.3962127 2.13711 11.2341866 2.433749 3.8615129.238696 7.7373763.075571 11.5651759-.486749z" fill="#fff4c0"/></svg>