<svg width="512px" height="174.06729px" viewBox="0 0 512 174.06729" xmlns="http://www.w3.org/2000/svg" preserveAspectRatio="xMidYMid"><title>dolt</title><path d="M89.1482724.145512252c11.0516636 0 20.0108066 8.959143258 20.0108066 20.010806548V142.968947c-.041013 8.154916-3.249148 15.985589-8.963367 21.808672-5.7810634 5.888709-13.6586297 9.239079-22.0310038 9.288801H31.0603385c-8.2843706 0-16.2101071-3.328456-22.03096414-9.222221C3.27462703 159.017617.0405308113 151.156997 0 142.868924V76.0957652c.0405289945-8.1897481 3.27459168-16.0509857 9.02937072-21.8773578 5.82115098-5.8938175 13.74694518-9.2225586 22.03096778-9.2223118h37.0382638l1.031292.033071.0075715-24.8728478c0-10.59117732 8.2281021-19.26057843 18.6407439-19.964641062l1.3700627-.046165486zM69.1298943 84.9754126l-1.031292.0422961-28.0798612-.0074845v49.0320588h29.1111532V84.9754126zM226.364063 2.15866381c18.66083 0 33.646488 15.24807029 33.646488 33.88538229V139.529627c0 18.637356-14.985522 33.885817-33.646488 33.885817h-41.811275c-18.660966 0-33.646488-15.248461-33.646488-33.885817V36.0440461c0-18.637312 14.985658-33.88538229 33.646488-33.88538229h41.811275zm-6.380086 40.01874109h-29.058936v91.2149471h29.058936V42.1774049zM345.257668-7.10542736e-15 346.734877.0536968586l1.448091.1585950034C358.54304.960223638 366.720116 9.60865085 366.720116 20.1669363l-.008355 113.8749117 9.214006.003829c11.051663 0 20.010807 8.959143 20.010807 20.010807 0 11.051663-8.959144 20.010806-20.010807 20.010806h-63.756471c-11.051664 0-20.010807-8.959143-20.010807-20.010806 0-11.051664 8.959143-20.010807 20.010807-20.010807l14.526596-.003829V40.0158692l-16.4978.0057439c-11.051663 0-20.010807-8.9591433-20.010807-20.0108066 0-11.05166325 8.959144-20.010806500000008 20.010807-20.010806500000008l35.059576 3.552713676e-15zM457.330821.156129772c11.051663 0 20.010806 8.959143258 20.010806 20.010806528l-.003133 25.7489673 13.786503.0026109c11.051663 0 20.010806 8.9591432 20.010806 20.0108065 0 11.0516633-8.959143 20.0108065-20.010806 20.0108065l-13.786503-.0083547v48.1095532l14.650699.004351c11.051664 0 20.010807 8.959143 20.010807 20.010807 0 11.051663-8.959143 20.010806-20.010807 20.010806h-34.828078c-11.051664 0-20.010807-8.959143-20.010807-20.010806 0-.864526.054823-1.716246.161183-2.551875l-.006272-65.5728362-15.261989.0083547c-11.051664 0-20.010807-8.9591432-20.010807-20.0108065 0-11.0516633 8.959143-20.0108065 20.010807-20.0108065l15.270692-.0026109.006092-25.7489673c0-11.05166327 8.959144-20.010806528 20.010807-20.010806528z" fill="#29e3c1"/></svg>