<svg width="256px" height="256px" viewBox="0 0 256 256" xmlns="http://www.w3.org/2000/svg" preserveAspectRatio="xMidYMid"><title>.NET</title><path fill="#512bd4" d="M0 0h256v256H0z"/><path d="M45.6273965 163.555368c-1.8100772 0-3.3486597-.602947-4.6157474-1.809403-1.2670877-1.237333-1.9006316-2.706526-1.9006316-4.407579 0-1.732491.6335439-3.216842 1.9006316-4.454175 1.2670877-1.237334 2.8056702-1.856 4.6157474-1.856 1.8402807 0 3.3939649.618666 4.6610526 1.856 1.2972351 1.237333 1.9458807 2.721684 1.9458807 4.454175 0 1.701053-.6486456 3.170246-1.9458807 4.407579-1.2670877 1.206456-2.8207719 1.809403-4.6610526 1.809403zm72.3610945-1.020631h-11.765895l-30.9978942-48.903298c-.7842807-1.237334-1.4332632-2.521264-1.9458246-3.851228h-.2717193l.0466713.306279h0l.0434527.349575h0l.0402339.39287h0l.0370152.436165h0l.0494877.735428h0l.0422456.832842h0l.0350035.930257h0l.0277614 1.027671h0l.0205193 1.125087h0l.0096562.804176h0l.0100585 2.19986h0v43.614316H62.9608421V96h12.5350175l29.9576144 47.743439.740101 1.16824h0l.476109.768135h0l.408423.675539h0l.340738.582956h0l.189555.337209h0l.159473.296071h0l.12939.254937h0 .180772l-.034118-.208824h0l-.064228-.450193h0l-.058884-.493583h0l-.053539-.536974c-.008478-.093112-.016733-.188031-.024765-.284759l-.045518-.60206h0l-.040168-.645452h0l-.034818-.688842h0l-.042191-1.114621h0l-.030142-1.21225h0l-.018089-1.30988h0l-.006031-1.407509h0V96h10.362947v66.534737zm50.684632 0h-36.428351V96h34.980491v9.372632h-24.209965v18.837333h22.309614V133.536h-22.309614v19.672702h25.657825v9.326035zm51.771509-57.162105h-18.644211v57.162105h-10.770526v-57.162105h-18.598737V96h48.013474v9.372632z" fill="#fff"/></svg>