<svg width="256px" height="253px" viewBox="0 0 256 253" xmlns="http://www.w3.org/2000/svg" preserveAspectRatio="xMidYMid"><path d="M252.689635 189.792267c-20.742378 11.573001-44.823122 17.9975-70.422204 17.473253-75.4619-1.518338-135.4189465-62.677196-133.9401742-136.5663551.5291928-25.0946179 8.0318604-48.3840455 20.7176497-68.19662713C28.643264 25.0599978 1.0312712 67.2421019.0272886518 116.071263-1.46632085 189.970313 58.5401827 251.124225 134.021865 252.647509c49.83809 1.013874 94.018267-24.253844 118.66777-62.855242" fill="#1f3244"/><path d="M180.943424 191.374899c.835828.014838 1.676601.029675 2.517375.029675 19.693884 0 39.120699-4.876487 56.391177-14.055756 10.178306-17.448524 16.103287-37.701275 16.103287-59.388288C255.955263 52.8253082 203.293164 0 138.316205 0c-20.485201 0-39.7389154 5.27214479-56.5049294 14.5058168-10.8311417 17.4287413-16.800634 37.4688264-17.2358579 58.0529414C63.2895287 136.739455 115.48673 190.05439 180.943424 191.374899" fill="#3e95be"/></svg>