<svg width="512px" height="117px" viewBox="0 0 512 117" xmlns="http://www.w3.org/2000/svg" preserveAspectRatio="xMidYMid"><path d="M310.38987.518081029c1.742792.289618625 2.32203 2.032411401 1.453174 3.190885901-.09654.09653955-.160899.19307909-.214532.28961863l-.150173.28961862c-.053633.09653955-.117993.19307909-.214532.28961863L282.251134 37.3555377l-.863775.8739369c-1.168637 1.4480932 0 3.1908859 2.02733 3.4805046h11.599988c2.032412.2896186 2.901268 2.0324114 2.032412 3.4805045l-.868856.8688559-21.177727 24.0789941-.868856.8688559c-.868856 1.4531741.289619 3.1908859 2.032412 3.1908859h7.829865c1.06456-.004825 2.054533.5460161 2.611648 1.4531741.289619.8637749.289619 1.7377118-.579237 2.316949l-.584318.5843183-49.311382 37.1270751-.868856.873937c-.584318.289619-1.163555.289619-1.453174 0-.305854-.320666-.507746-.72622-.579237-1.163555 0-.289619.289618-.868856.289618-.868856l13.6324-27.8440365.289618-.8739369c.873937-1.7427928 0-3.4805045-2.032411-3.7701232h-11.594907c-1.737712-.2896186-2.611649-1.7427927-2.032411-2.9012672.294699-.2896187.584318-.8739369.584318-.8739369L249.1838 50.1241624c0 0 .2947-.2946997.2947-.5843183.868856-1.7377117-.289619-3.1908859-2.32203-3.1908859h-11.020751c-1.252918.0601715-2.36222-.8030988-2.611649-2.0324114 0-.5741562 0-1.1584745.579238-1.7377118l5.223297-8.9934204 17.112904-29.87644767.289619-.57923725c.873936-1.45317415 2.32203-2.322030026 4.354441-2.322030026l47.863289-.289618625h1.443012zm-126.476962 0c26.401024 0 40.323042 17.986840971 40.323042 39.449105371 0 19.7296337-11.31545 30.4607659-20.30379 34.8101263l20.30379 40.6126613h-38.580249v.294699l-15.085574-35.1099067h-12.763543v35.0997447h-33.941271V.518081029h60.047595zM405.247591.513v30.4556849h-51.343793v15.3751923h50.185318v30.4607659h-50.185318v38.8698679l-34.230889.010162V.513h85.574682zM512 .518081029V30.9737659h-30.455685v84.7109071h-33.94127V30.9686849h-30.171148V.518081029H512zM50.4749372.513c35.6789822 0 62.0800068 20.5934086 62.0800068 57.4359463 0 36.8374567-26.4010246 57.7255647-61.7853071 57.7255647H0V.513h50.4749372zm.2896187 30.4607659H34.2308891v54.2501414h16.2440481c17.1129041 0 27.2698801-12.7635436 27.2698801-27.26988h-.0050811c0-15.6648109-8.6987208-26.9802614-26.9751803-26.9802614zm127.9301361 0h-20.59849v22.9154386h20.59849c5.797453 0 11.025832-3.4754235 11.025832-11.5999881 0-7.8298649-5.517997-11.3154505-11.025832-11.3154505z" fill="#111"/></svg>