<svg width="512px" height="183px" viewBox="0 0 512 183" xmlns="http://www.w3.org/2000/svg" preserveAspectRatio="xMidYMid"><path d="M455.314286 36.5714286c16.457143 0 30.47619 5.4857143 40.838095 15.2380952C506.514286 61.5619048 512 75.5809524 512 92.0380952c0 17.0666668-5.485714 30.4761908-15.847619 40.2285718-10.361905 9.752381-24.380952 15.238095-41.447619 15.238095-17.066667 0-29.257143-5.485714-40.228572-17.676191v53.028572h-19.504761V39.0095238h19.504761v15.8476191c9.752381-11.5809524 22.552381-18.2857143 40.838096-18.2857143zM248.685714 0v143.238095h-19.504762v-15.847619c-10.361904 12.8-24.380952 18.895238-40.838095 18.895238-16.457143 0-31.085714-5.485714-40.838095-15.238095-9.752381-9.752381-15.847619-23.771429-15.847619-40.2285714 0-17.0666666 5.485714-30.4761905 15.847619-40.2285714 10.361905-9.752381 24.380952-15.2380952 40.838095-15.2380952 17.676191 0 29.866667 5.4857142 40.838095 17.6761904V0h19.504762zm87.771429 36.5714286V54.247619H289.52381v92.038095h-18.895239V36.5714286h65.828572zM371.2 37.7904762V146.285714h-18.285714V37.7904762H371.2zM16.4571429 88.3809524v1.8285714c0 24.3809522 20.1142857 39.0095242 38.4 39.0095242 18.2857142 0 38.4-14.628572 38.4-39.0095242h0v-1.8285714h16.4571431 0v1.8285714c0 33.5238092-27.4285717 55.4666662-54.8571431 55.4666662C27.4285714 145.67619 0 123.733333 0 90.2095238h0v-1.8285714h16.4571429 0zM452.87619 54.247619c-23.771428 0-38.4 14.0190477-38.4 37.7904762 0 23.7714288 14.628572 38.3999998 38.4 38.3999998 24.380953 0 39.009524-14.019047 39.009524-38.3999998 0-23.7714285-14.628571-37.7904762-39.009524-37.7904762zm-262.704761-1.8285714c-23.771429 0-38.4 14.0190476-38.4 38.4 0 23.7714284 14.628571 37.7904764 38.4 37.7904764 24.380952 0 39.009523-14.019048 39.009523-37.7904764 0-23.7714286-14.628571-38.4-39.009523-38.4zm-168.2285719-.6095238c6.0593527 0 10.9714286 4.9120759 10.9714286 10.9714286 0 6.0593527-4.9120759 10.9714286-10.9714286 10.9714286-6.0593526 0-10.9714285-4.9120759-10.9714285-10.9714286 0-6.0593527 4.9120759-10.9714286 10.9714285-10.9714286zm32.9142858 0c6.0593526 0 10.9714285 4.9120759 10.9714285 10.9714286 0 6.0593527-4.9120759 10.9714286-10.9714285 10.9714286-6.0593527 0-10.9714286-4.9120759-10.9714286-10.9714286 0-6.0593527 4.9120759-10.9714286 10.9714286-10.9714286zm32.9142857 0c6.0593527 0 10.9714285 4.9120759 10.9714285 10.9714286 0 6.0593527-4.9120758 10.9714286-10.9714285 10.9714286C81.7120759 73.752381 76.8 68.8403051 76.8 62.7809524c0-6.0593527 4.9120759-10.9714286 10.9714286-10.9714286zM54.8571429 0C67.047619 10.9714286 77.4095238 23.7714286 87.1619048 36.5714286h0-20.7238096L54.8571429 20.7238095 43.2761905 36.5714286H22.552381c9.7523809-12.8 20.1142857-25.6 32.3047619-36.5714286zM367.542857 1.82857143c3.657143 1.82857143 5.485714 5.48571428 5.485714 9.75238097 0 4.2666666-1.828571 8.5333333-5.485714 10.3619047-3.657143 2.4380953-7.314286 2.4380953-10.971428 0-3.657143-1.8285714-5.485715-6.0952381-5.485715-10.3619047 0-4.26666669 1.828572-7.92380954 5.485715-9.75238097 3.657142-2.43809524 7.314285-2.43809524 10.971428 0z"/></svg>