<svg width="256" height="217" xmlns="http://www.w3.org/2000/svg" preserveAspectRatio="xMidYMid"><defs><radialGradient cx="49.99%" cy="50%" fx="49.99%" fy="50%" r="55.431%" gradientTransform="matrix(.82793 0 0 1 .086 0)" id="a"><stop stop-color="#5E464D" offset="0%"/><stop stop-color="#5E464D" offset="100%"/></radialGradient></defs><path d="M252.198 121.242c0-64.252-60.217-116.658-124.47-116.658C63.476 4.584 3.233 57.158 3.233 121.41c0 .168-3.233 59.118-3.233 59.118.673 18.986 64.123 36.006 127.961 36.006 64.265 0 128.039-17.02 128.039-36.006-.052 0-3.802-58.626-3.802-59.286z" fill="url(#a)"/><path d="M58.678 132.261a143.96 143.96 0 00-2.78-21.03 146.947 146.947 0 00-5.458-19.606c-1.164-3.13-2.328-6.208-3.674-9.17-1.345-2.961-4.785-11.782-5.302-13.256-.517-1.475-1.177-2.91-1.85-4.32a91.05 91.05 0 00-4.32-8.264l-.22-.375a11.304 11.304 0 0113.193-16.387l1.293.414 1.151.388 2.315.737c1.462.543 2.897 1.087 4.32 1.656a181.219 181.219 0 018.355 3.66c5.48 2.58 10.82 5.446 15.998 8.587a159.079 159.079 0 0128.854 22.31 136.549 136.549 0 0121.28 26.791c.468.77-.599 1.67-.556.535a127.315 127.315 0 00-2.23-28.93A114.485 114.485 0 00118.52 45.61 121.572 121.572 0 0099.987 19.12l-.156-.155a11.33 11.33 0 019.843-18.87l.97.13.789.116 1.513.259c.983.168 1.953.35 2.91.556 1.9.388 3.776.828 5.626 1.293 3.711.945 7.346 2.03 10.928 3.247a162.622 162.622 0 0157.902 34.402 165.248 165.248 0 0128.557 34.803 191.412 191.412 0 013.065 5.192c.035.061-.003.218-.012.019a57.759 57.759 0 00-1.54-10.81 61.484 61.484 0 00-4.126-11.46 71.197 71.197 0 00-6.466-10.864 91.994 91.994 0 00-8.51-10.01 124.159 124.159 0 00-10.01-9.053 97.866 97.866 0 0112.493 5.716 84.415 84.415 0 0111.82 7.644 73.008 73.008 0 0110.567 9.958 68.287 68.287 0 018.575 12.274 73.72 73.72 0 018.613 29.527 39.42 39.42 0 010 7.76 62.842 62.842 0 01-1.487 7.643c-.582 2.587-1.19 5.031-1.953 7.527a38.914 38.914 0 01-1.293 3.75l-.634 1.863-.414.996-.53 1.203a11.278 11.278 0 01-21.042-.905l-.104-.337a169.076 169.076 0 00-16.464-35.682 141.98 141.98 0 00-24.56-29.94 139.51 139.51 0 00-37.824-24.949c-.192-.085 1.14 2.07 1.727 3.207a137.545 137.545 0 0112.61 36.407 149.948 149.948 0 012.535 38.205 158.445 158.445 0 01-2.328 18.96 171.604 171.604 0 01-2.07 9.39 94.741 94.741 0 01-1.292 4.707l-.75 2.38-.401 1.293-.505 1.423a11.317 11.317 0 01-21.65-1.06l-.078-.324a106.608 106.608 0 00-11.303-28.375 113.23 113.23 0 00-18.934-24.289 136.782 136.782 0 00-24.755-19.076c-1.29-.785-2.592-1.55-3.906-2.295.152.004.438-.325.473-.05.21 1.658.357 3.328.523 4.97.31 3.88.479 7.682.427 11.485a124.767 124.767 0 01-2.328 22.31c-.724 3.62-1.59 7.19-2.664 10.695a80.626 80.626 0 01-3.686 10.334z" fill="#FFF"/><path d="M58.678 132.261c.556-6.977.556-13.988 0-20.965a143.636 143.636 0 00-3.065-20.473 128.46 128.46 0 00-2.69-9.88c-1.035-3.234-2.29-6.377-3.35-9.572a122.265 122.265 0 00-1.655-4.772c-.582-1.578-1.294-3.117-1.992-4.63-1.371-3.065-3-6.001-4.656-8.911l-.078-.13a4.398 4.398 0 011.643-6 4.346 4.346 0 013.479-.388c3.013.918 5.639 1.914 8.393 3.013 2.755 1.1 5.368 2.263 7.993 3.492a166.463 166.463 0 0115.339 8.252 151.577 151.577 0 0127.638 21.3 128.724 128.724 0 0121.521 27.613 122.309 122.309 0 018.564 18.22c.021-.036-.276-.342-.26-.284.155-.758.305-1.516.452-2.274 1.04-5.64 1.74-11.336 2.095-17.059.742-11.436.012-22.92-2.173-34.17a121.572 121.572 0 00-11.161-32.229 128.453 128.453 0 00-19.607-28 4.41 4.41 0 013.88-7.346c2.044.258 3.738.582 5.561.957 1.824.375 3.57.776 5.329 1.293 3.518.862 6.967 1.892 10.347 3.091a155.302 155.302 0 0155.367 32.863 158.173 158.173 0 0127.34 33.342 184.053 184.053 0 0113.569 26.87c1.623 3.997-.567 1.828-.17-.266.763-4.165 1.203-8.355 1.591-12.571a61.834 61.834 0 00-3.182-25.117 67.253 67.253 0 00-13.204-22.258 99.78 99.78 0 00-20.306-17.304 97.452 97.452 0 0122.569 15.08 70.072 70.072 0 0116.529 22.258 69.36 69.36 0 016.233 27.586 52.638 52.638 0 01-.271 7.14c-.272 2.366-.724 4.707-1.216 7.035a81.065 81.065 0 01-2.91 10.334c-.427 1.164-.815 2.198-1.41 3.505a4.41 4.41 0 01-8.186-.401v-.09a175.18 175.18 0 00-17.15-37.158 149.314 149.314 0 00-25.866-31.492 146.404 146.404 0 00-52.25-31.04 133.923 133.923 0 00-7.46-2.295c-.758-.209-2.464-3.403.174.07a137.532 137.532 0 0112.575 19.892 130.625 130.625 0 0111.976 34.57 143.559 143.559 0 012.315 36.433 150.025 150.025 0 01-2.237 18.107 143.046 143.046 0 01-1.953 8.936 142.411 142.411 0 01-1.229 4.45 72.945 72.945 0 01-1.474 4.526 4.423 4.423 0 01-8.432-.453v-.103a113.98 113.98 0 00-12.054-30.212 119.684 119.684 0 00-20.047-25.711 143.559 143.559 0 00-25.97-20.073 156.57 156.57 0 00-19.21-9.86c-.006.015.012-.069.006-.053a122.865 122.865 0 013.917 9.46 64.032 64.032 0 012.587 10.632 127.221 127.221 0 011.41 10.773c.601 7.153.601 14.343 0 21.495-.276 3.561-.707 7.092-1.294 10.593a90.7 90.7 0 01-2.224 10.359z" fill="#E911BD"/></svg>