<svg width="256px" height="217px" viewBox="0 0 256 217" xmlns="http://www.w3.org/2000/svg" preserveAspectRatio="xMidYMid"><title>Drizzle</title><path d="M252.197636 121.241942c0-64.2521976-60.217036-116.65757298-124.469233-116.65757298-64.2521981 0-124.49509998 52.57350708-124.49509998 116.82570498C3.23330302 121.578206 0 180.527786 0 180.527786c.672527028 18.985956 64.1228655 36.006063 127.9612 36.006063 64.265131 0 128.0388-17.020107 128.0388-36.006063-.051733 0-3.802364-58.62625-3.802364-59.285844z" fill="#5e464d"/><path d="M58.6779832 132.261039c-.4084692-7.068644-1.3378718-14.097521-2.7806406-21.029403-1.3639518-6.653865-3.1875963-13.2051569-5.4578155-19.6067496-1.1639891-3.1298374-2.3279781-6.2079418-3.6730322-9.1696474-1.3450541-2.9617056-4.7852885-11.7821562-5.302617-13.2565424-.5173284-1.4743862-1.1769223-2.9099727-1.8494493-4.3196928-1.2977901-2.8267502-2.7395782-5.5851411-4.3196928-8.2643226l-.2198646-.3750631c-2.3000658-4.0355656-1.8972055-9.067409 1.0156381-12.6856177 2.9128436-3.6182087 7.7426379-5.0861431 12.1762382-3.700762l1.2933212.4138628 1.1510559.3879963 2.3150449.7371931c1.461453.5431949 2.8970396 1.0863898 4.3196929 1.6554512 2.8280624 1.1553669 5.613014 2.3753999 8.354855 3.660099 5.4796945 2.5800291 10.8198682 5.4465411 15.9983833 8.5876528 10.4415284 6.305764 20.1231453 13.7915504 28.8539963 22.3097909 8.191295 8.0053087 15.34028 17.006877 21.280678 26.7910695.46693.769063-.599485 1.669261-.557135.534343.361684-9.6927539-.385345-19.398893-2.22905-28.9291308-2.061471-10.5759527-5.605653-20.8079276-10.527634-30.3930484-4.971114-9.6147344-11.203969-18.5225409-18.5332934-26.4872184l-.1551985-.1551985c-3.2065128-3.5143615-3.8759328-8.6576077-1.6758344-12.87566746C100.355728 1.87237372 104.956651-.521913597 109.673638.0965444314l.969991.1293321206.788926.116398909 1.513186.258664242c.982924.168131757 1.952915.349196726 2.909973.556128117 1.901182.38799636 3.776498.82772558 5.625947 1.29332121 3.711832.94412448 7.346065 2.0305143 10.928564 3.24623623 21.489872 7.30126684 41.213473 19.02000224 57.901991 34.40234414 11.061949 10.2440626 20.669934 21.9537951 28.556532 34.8032737 1.04932 1.7150976 2.071132 3.4459357 3.065123 5.191837.034777.0610853-.002885.217928-.01222.0186451-.170262-3.6348494-.684056-7.2546902-1.539717-10.8105629-.992614-3.9467351-2.374624-7.7851695-4.125695-11.4588259-1.829109-3.8058971-3.993174-7.4415267-6.466606-10.8638982-2.594472-3.5353334-5.438408-6.8806318-8.510053-10.0103061-3.170154-3.1970167-6.511859-6.2192305-10.010306-9.0532485 4.293271 1.6104562 8.46805 3.5206554 12.493482 5.7164798 4.146254 2.2142865 8.100317 4.7710166 11.820956 7.6435283 3.844306 2.9601676 7.383951 6.2961858 10.566435 9.9585733 3.299461 3.7645534 6.17498 7.8804923 8.574719 12.2736183 4.915256 9.1270812 7.850301 19.1882038 8.613519 29.5265232.255211 2.5803473.255211 5.1795799 0 7.7599275-.337291 2.576138-.834018 5.12888-1.487319 7.643528-.581995 2.586642-1.189856 5.03102-1.952915 7.527129-.375063 1.293322-.788926 2.49611-1.293321 3.750632l-.633728 1.862383-.413862.995857-.530262 1.202789c-1.85764 4.286122-6.165407 6.983359-10.832456 6.782564-4.66705-.200795-8.727235-3.258055-10.20988-7.687889l-.103466-.336264c-4.082365-12.493758-9.60767-24.4688686-16.463979-35.6827319-6.780881-11.0549874-15.044449-21.128794-24.56017-29.940386-11.185445-10.340938-23.967256-18.7602932-37.824525-24.9478496-.191603-.0855546 1.139576 2.0689802 1.72793 3.2071201 5.890611 11.4839299 10.135542 23.7398068 12.609882 36.406992 2.47409 12.5742555 3.326003 25.4138059 2.53491 38.2047084-.393961 6.361098-1.171366 12.692632-2.327978 18.960089-.594928 3.142771-1.293322 6.259675-2.069314 9.389512-.387997 1.564919-.814793 3.129837-1.293322 4.707689l-.750126 2.379711-.400929 1.293321-.504396 1.422654c-1.669734 4.708625-6.229542 7.765217-11.219475 7.520788-4.989932-.244429-9.229176-3.732038-10.430722-8.581312l-.077599-.32333c-2.38636-9.952018-6.193299-19.508567-11.303627-28.375467-5.175802-8.920713-11.546116-17.092468-18.9342228-24.2885725-7.4954714-7.2836812-15.8010585-13.6842774-24.7541679-19.0764879-1.2905589-.7844622-2.592694-1.5493053-3.9059521-2.2942852.1520078.0040163.4374521-.3254001.4722823-.050325.2099403 1.6580256.3573043 3.3283105.523697 4.9700523.3103971 3.8799636.4785289 7.682328.426796 11.4846923-.1045762 7.4914098-.8837169 14.958174-2.3279781 22.309791-.7242599 3.621299-1.5907851 7.190866-2.6642417 10.695766-.9925953 3.524243-2.224101 6.97678-3.6859655 10.333637z" fill="#fff"/><path d="M58.6779832 132.261039c.5561708-6.97718.5561708-13.987557 0-20.964737-.5279714-6.889266-1.552355-13.7314561-3.0651712-20.4732748-.7673706-3.3367687-1.6640733-6.6304267-2.6901082-9.880974-1.0346569-3.233303-2.2891785-6.3760736-3.3497019-9.570577-.5173285-1.6037183-1.0734566-3.1945034-1.6554511-4.7723552-.5819946-1.5778519-1.2933212-3.1169041-1.9917147-4.63009-1.3709205-3.0651712-3.0005052-6.0010104-4.6559563-8.9109831l-.0775993-.1293321c-.5784292-1.0134647-.7305242-2.2153402-.4224463-3.3409159.3080778-1.1255757 1.0509369-2.0825296 2.0649642-2.6600945 1.0539959-.6113638 2.3162461-.7521352 3.4790341-.3879964 3.0134384.9182581 5.6388804 1.9141154 8.3936546 3.0134384 2.7547742 1.0993231 5.367283 2.2633122 7.9927251 3.4919673 5.253418 2.480908 10.3733543 5.2351402 15.3387895 8.2513893 10.0020398 6.0126995 19.2762349 13.1603829 27.6382743 21.3010003 8.39759 8.1811511 15.638156 17.4711807 21.520865 27.6124077 3.354776 5.835171 6.217873 11.929833 8.564029 18.220378.020866-.036472-.276012-.341985-.260846-.284635.155323-.757195.30585-1.515409.452601-2.273623 1.040091-5.639105 1.73975-11.335712 2.095181-17.058907.741672-11.4358984.011438-22.9196996-2.17278-34.1695461-2.187463-11.2142978-5.944886-22.0642387-11.161362-32.2295645-5.258987-10.1652649-11.85294-19.5820907-19.606749-28.0004042-1.260259-1.3740267-1.520312-3.3921141-.649556-5.04074572.870756-1.64863159 2.684171-2.5715773 4.529519-2.30531874 2.043448.25866425 3.737699.58199455 5.561281.9570577 1.823583.37506315 3.569567.77599272 5.328484 1.29332121 3.517833.86221415 6.96669 1.89256005 10.346569 3.09103765 20.548752 6.9664379 39.409719 18.1614203 55.367081 32.8632919 10.592824 9.8138172 19.791879 21.0319653 27.340811 33.3418208 5.252549 8.5770909 9.789403 17.5640511 13.568228 26.869164 1.623641 3.998112-.566916 1.828371-.169421-.265547.76306-4.164494 1.202789-8.3548548 1.590786-12.5710819.683095-8.5019261-.40013-17.0532368-3.181571-25.1162979-2.919067-8.204284-7.403692-15.7635784-13.204809-22.258058-5.963251-6.651135-12.792662-12.4713592-20.305143-17.3046377 8.189452 3.9493088 15.785937 9.0252409 22.568455 15.0801253 6.93694 6.2445086 12.556457 13.8119495 16.528645 22.258058 3.950531 8.6697813 6.072574 18.0604822 6.233808 27.5865413.071251 2.3831158-.01949 4.7683191-.271597 7.1391329-.271598 2.366778-.72426 4.707689-1.215722 7.035668-.491462 2.327978-1.08639 4.63009-1.784783 6.919268-.344886 1.138123-.719949 2.276245-1.12519 3.414368-.426796 1.163989-.814792 2.198646-1.40972 3.504901-.748779 1.644323-2.424773 2.665609-4.229394 2.577231-1.804622-.088378-3.372803-1.268542-3.957329-2.978161v-.090533c-4.245171-13.013174-10.000915-25.4839526-17.149439-37.1571179-7.14231-11.6303054-15.845496-22.2264346-25.866425-31.4923714-15.053843-13.8874405-32.854031-24.4618102-52.250176-31.039709-2.461753-.8338194-4.95398-1.6066895-7.45914-2.2952205-.758832-.2085614-2.464033-3.4030201.17307.0700627 4.747722 6.2527808 8.956188 12.9070307 12.575753 19.8919255 5.59405 10.9046081 9.625636 22.5422201 11.976155 34.5704759 2.318948 11.9962851 3.096918 24.2395385 2.315045 36.4328587-.377804 6.0753-1.125 12.121977-2.237446 18.106497-.556128 2.987572-1.202789 5.975144-1.952915 8.936849-.387996 1.48732-.788926 2.961706-1.228655 4.449025-.439729 1.48732-.879459 2.89704-1.474386 4.526624-.674749 1.813778-2.450251 2.978322-4.382688 2.874587-1.932437-.103735-3.573067-1.451661-4.049767-3.327249v-.103466c-2.55288-10.595137-6.612123-20.769378-12.053753-30.211983-5.4781-9.444677-12.222822-18.0953277-20.0464791-25.7112258-7.8607665-7.6616437-16.5743345-14.3964333-25.9698898-20.0723451-4.7018629-2.8396189-9.5498986-5.4298428-14.5239972-7.7599273-1.551796-.7274043-3.1136936-1.4278711-4.6856928-2.1014002-.0065257.0162959.0114452-.0677191.0054821-.0525147 1.4359158 3.0963858 2.7428966 6.2527957 3.9171512 9.4611798 1.1639468 3.4634113 2.0293192 7.0200919 2.5866424 10.6311003.6337274 3.5824997 1.0863898 7.1779327 1.4097201 10.7733657.6013307 7.1523826.6013307 14.3426153 0 21.4949983-.2759085 3.560945-.7070156 7.091711-1.2933212 10.592301-.5389987 3.493565-1.28177 6.952634-2.2245125 10.359503z" fill="#e911bd"/></svg>