<svg width="256" height="256" xmlns="http://www.w3.org/2000/svg" preserveAspectRatio="xMidYMid"><path d="M51.091 28.487l-1.268 1.153 44.393 43.816a65.494 65.494 0 00-9.8 35.17 60.767 60.767 0 0063.303 62.61 65.725 65.725 0 0035.514-9.8l44.624 44.393a125.57 125.57 0 01-101.009 49.236A124.993 124.993 0 01.01 129.726a122.571 122.571 0 0151.081-101.24zm24.791-16.95A128.798 128.798 0 01129.962.006a124.762 124.762 0 01126.03 125.339c.197 18.693-3.74 37.2-11.53 54.194l-39.782-39.781a65.84 65.84 0 009.801-34.592 60.882 60.882 0 00-63.418-63.304 64.687 64.687 0 00-34.593 9.801L75.882 11.537zm75.872 129.72a36.668 36.668 0 01-37.936-37.475 36.668 36.668 0 0137.936-38.051 37.014 37.014 0 0137.821 38.051 36.437 36.437 0 01-37.82 37.82v-.345z" fill="#00ABE4"/></svg>