<svg width="256px" height="256px" viewBox="0 0 256 256" xmlns="http://www.w3.org/2000/svg" preserveAspectRatio="xMidYMid"><path d="M51.0914 28.4867396l-1.268377 1.15307 44.393197 43.816662c-6.5344073 10.5569293-9.933518 22.7537384-9.8010954 35.1686364-.5279125 16.883438 5.9955593 33.224761 18.0052334 45.103182 12.009675 11.878421 28.421695 18.221929 45.298312 17.508522 12.530489.18558 24.852856-3.215073 35.514558-9.801095l44.623811 44.393197c-24.03803 31.402093-61.464648 49.645433-101.008937 49.236091-33.5287106.495081-65.8502744-12.502515-89.7017595-36.072119C13.2948574 195.423282-.0860600048 163.258518.0103967069 129.72629-.534916186 89.6588351 18.5393625 51.8547343 51.0914 28.4867396h0zm24.7910062-16.9501298C92.8613809 3.82327 111.312865-.110948411 129.961392.00590927948 163.369779-.334114722 195.518721 12.7395618 219.208173 36.2989715c23.689452 23.5594097 36.939896 55.6358999 36.783775 89.0456525.197295 18.693779-3.740208 37.200043-11.5307 54.194292L204.680331 139.758c6.413051-10.398096 9.806623-22.37541 9.801095-34.592102.692565-17.0122709-5.77035-33.5372441-17.820757-45.5657404-12.050406-12.0284963-28.587113-18.4613284-45.598095-17.7378054-12.225198-.0674267-24.219235 3.3308837-34.592102 9.8010954L75.8824062 11.5366098h0zM151.754416 141.256991c-10.084409.351625-19.868032-3.468022-27.046625-10.559337-7.178593-7.091315-11.117627-16.827485-10.88938-26.91544-.391042-10.1864764 3.476111-20.0759643 10.673397-27.295126 7.197285-7.2191618 17.074991-11.1163106 27.262608-10.7561857 10.138348-.2251971 19.925084 3.7191366 27.073919 10.911562 7.148834 7.1924254 11.033602 17.0029575 10.746778 27.1397497.393201 10.14611-3.465054 19.996106-10.644823 27.175874-7.179769 7.179769-17.029764 11.038024-27.175874 10.644824v-.345921h0z" fill="#00abe4"/></svg>