<svg width="256px" height="342px" viewBox="0 0 256 342" xmlns="http://www.w3.org/2000/svg" preserveAspectRatio="xMidYMid"><title>Drools</title><path d="M56.3594107 263.854682c-.5641869 0-1.1353736-.072798-1.7065604-.223994-3.5027188-.939379-5.5858705-4.545695-4.6464923-8.051214 10.8595483-40.54166 8.7833964-149.006945 8.7595969-150.10032-.0741982-3.624516 2.8097349-6.6288459 6.4384508-6.6988443.0461989-.0041999.0909979-.0041999.1343968-.0041999 3.5685173 0 6.4958494 2.8531342 6.5686477 6.4398512.0923979 4.528895 2.1321506 111.443016-9.2033866 153.769634-.7867817 2.932932-3.4439201 4.869087-6.3446529 4.869087z" fill="#0095dd"/><path d="M151.077015 182.145577c-13.217094 0-24.348236-5.445874-25.066419-5.808465-3.245125-1.621163-4.561094-5.569071-2.938532-8.812796 1.619762-3.236725 5.552271-4.559694 8.807196-2.945532.390591.193196 20.68732 9.92997 34.325804-.148396 2.916132-2.16435 7.030637-1.544165 9.189387 1.374768 2.15875 2.917532 1.541364 7.030637-1.376168 9.189387-7.307831 5.403874-15.458442 7.151034-22.941268 7.151034z" fill="#7658b1"/><path d="M177.112211 245.8581c-5.251278 0-11.19554-.320593-17.881785-.727983-3.623116-.222595-6.379652-3.340323-6.158458-6.966239.221195-3.621716 3.309524-6.357253 6.960639-6.155657 13.774281.84558 29.378319 1.807358 33.137232-2.770536 2.735536-3.337523 2.15875-12.476511-1.71916-27.15937-9.51418-36.023965-1.243172-48.161684 7.258831-56.705686.594986-.592186 1.147974-1.143773 1.622563-1.68976 5.746866-6.558848 24.369235-16.711413 28.04135-18.678367 3.200325-1.71636 7.183233-.509588 8.895393 2.686537 1.713561 3.200326.510988 7.180434-2.686537 8.898194-8.266809 4.428097-21.289307 12.245516-24.358036 15.746835-.642585.737783-1.390167 1.496565-2.193749 2.305747-4.881687 4.906886-12.260916 12.319714-3.87371 44.075178 5.367476 20.334528 5.129481 31.591667-.827381 38.853299-5.346476 6.521049-13.877878 8.287808-26.217192 8.287808z" fill="#ff8a12"/><path d="M164.054714 341.025093c-16.238224 0-32.164254-7.246232-43.291197-20.368128-26.1821925-30.881884-45.3253486-30.59489-45.5479435-30.62149-3.6273158.243595-6.6512457-2.659938-6.8290416-6.238255-.1791959-3.578317 2.4765426-6.633046 6.0478598-6.87944 2.5647405-.149797 25.8965993-.684585 56.3528933 35.238583 11.551132 13.623084 28.924729 18.95836 45.339349 13.915677 31.979458-9.819372 54.621133-55.336517 62.10956-124.878505 6.620446-61.462775 10.538955-124.3073176-19.85294-158.1431331-18.070781-20.1259334-47.524698-29.9061067-90.041712-29.9061067-91.3002834 0-110.1004475 59.5028204-113.9447583 85.0872273-5.78886582 38.5243065 9.0423903 78.4317815 31.7344642 85.4106195 3.4691196 1.068175 5.4178744 4.74449 4.3496991 8.21501-1.0681752 3.466319-4.74309 5.405274-8.2136095 4.345499-28.9555287-8.902394-47.67029477-54.660333-40.86925246-99.9240833C10.4600749 35.9917655 57.9147747 1.98947353e-14 128.342942 1.98947353e-14c46.462123 0 79.113565 11.21094009999998 99.821885 34.26980539999998C262.168639 72.1319276 258.24173 138.187996 251.304891 202.601903c-11.065344 102.701618-49.435654 129.312201-71.319947 136.034846-5.238678 1.607162-10.600554 2.388344-15.93023 2.388344z" fill="#db0012"/></svg>