<svg width="256px" height="256px" viewBox="0 0 256 256" xmlns="http://www.w3.org/2000/svg" preserveAspectRatio="xMidYMid"><g fill="#028bf4"><path d="M128 42.6666667c-47.1288889 0-85.3333333 38.2044444-85.3333333 85.3333333v85.333333H64h64c47.128889 0 85.333333-38.204444 85.333333-85.333333 0-47.1288889-38.204444-85.3333333-85.333333-85.3333333h0 0zM128 192H64v-64c0-35.3457778 28.6542222-64 64-64 35.345778 0 64 28.6542222 64 64 0 35.345778-28.650667 64-64 64h0 0z"/><path d="M128 85.3333333c-23.562667 0-42.6666667 19.1039997-42.6666667 42.6666667v42.666667h21.3333337H128c23.562667 0 42.666667-19.104 42.666667-42.666667 0-23.562667-19.104-42.6666667-42.666667-42.6666667h0 0zm0 63.9999997h-21.333333V128c0-11.779556 9.553777-21.333333 21.333333-21.333333 11.779556 0 21.333333 9.553777 21.333333 21.333333 0 11.779556-9.550222 21.333333-21.333333 21.333333h0 0z"/><path d="M128 0H0v256h128c70.691556 0 128-57.308444 128-128C256 57.3084444 198.691556 0 128 0h0 0zm0 234.666667H21.3333333v-64V128C21.3333333 69.0915556 69.0915556 21.3333333 128 21.3333333c58.908444 0 106.666667 47.7582223 106.666667 106.6666667 0 58.908444-47.754667 106.666667-106.666667 106.666667h0 0z"/></g></svg>