<svg width="256px" height="256px" viewBox="0 0 256 256" xmlns="http://www.w3.org/2000/svg" preserveAspectRatio="xMidYMid"><path d="M128.047512 7.3783408e-6C198.721844.0237668475 256.000007 57.3256748 256.000007 128.000007h0v.047505c-.023759 70.686208-57.349419 127.97624-128.047504 127.952495C57.2662946 255.976248-.0237373249 198.638712 7.3783408e-6 127.952503.0237668475 57.2662946 57.3494269-.0237373249 128.047512 7.3783408e-6zM127.394329 32.9204063c-3.515309 13.3011682-15.3676 25.1178311-27.7780646 37.5282962-18.5622554 18.6097595-39.665984 39.6659835-39.665984 71.2918865.0475041 37.195767 30.1651495 67.349041 67.3609166 67.444049 37.267023 0 67.491553-30.188902 67.527181-67.444049 0-31.625903-21.044348-52.6702509-39.665984-71.2918865h0l-1.66309-1.6636242c-11.793075-11.8070099-22.768412-23.1477342-26.114975-35.864672zm.914456 100.9938707c7.74318 8.25385 12.659861 13.942474 17.754684 20.153645.380033.463166.724439.961959 1.033216 1.496381 6.234922 8.990165 5.391723 21.103729-2.030804 29.131934-8.740767 9.465207-23.490813 10.047133-32.956019 1.306365-9.465207-8.740768-10.047133-23.490813-1.306365-32.95602 4.964186-5.866765 10.961588-11.638522 17.505288-19.132305zm-30.8183324-30.948968 3.2540354 3.075895 15.106327 15.450732c.57005.653182.57005 1.615142 0 2.268324h0l-15.795137 17.457783-5.5223601 6.721841c-2.1020596 2.565225-3.8834661 5.356095-5.3085913 8.348858-.2018927.498794-.6294303.866951-1.1519761.985712h0-.5581741c-1.5320095-.130637-3.2896639-2.957135-3.2896639-2.957135h0l-.2793245-.423357c-.3648321-.56853-.6992615-1.153782-1.0032882-1.761835h0l-.296901-.641306c-2.1614399-7.030618-2.3277045-14.524401-.5106699-21.650027h0l.2045834-.740934c1.6771329-5.914876 4.3239894-11.524168 7.8354978-16.586213 2.2564482-3.325292 4.7029131-6.508071 7.3156425-9.548338h0zm29.9988854-31.2339939c4.025978 4.5722766 8.562627 9.1564293 12.838002 13.4318048h0l.095008.2969011c8.942661 8.3251062 17.01837 17.52904 24.13212 27.469288 6.03303 8.479494 9.33457 18.597883 9.45333 29.013173 0 4.50102-.676934 8.966413-2.007051 13.26554h0l-.065889.177372c-.357891.871524-1.13656 1.507542-2.071799 1.663415h0-.427537c-.926332-.296901-1.698274-.914455-2.185192-1.757655h0l-.716249-1.075242c-3.850768-5.7128-8.192879-11.075347-12.976829-16.038136h0l-6.163666-6.508071-20.545555-21.40063c-3.467804-3.337168-9.667099-9.322694-12.279828-12.5767296-.083133-.1781407-.178141-.3444053-.296901-.5106699-.712563-.9738355-1.258861-2.0545554-1.627018-3.2065316h0v-.6413064c-.356282-2.0901835-.071257-4.2397473.807571-6.1636663.57005-1.2232325 1.353868-2.3395805 2.315828-3.289664 3.978474-3.9784744 7.956949-7.8738165 11.721655-12.1491921z" fill="#009dde"/></svg>