<svg width="256px" height="260px" viewBox="0 0 256 260" xmlns="http://www.w3.org/2000/svg" preserveAspectRatio="xMidYMid"><path d="M86.3857687 21.6895737c-3.3290184 17.5698192-7.3978186 43.6471297-9.6171642 70.0943312-3.8838547 46.6062571-1.4795637 77.8620411-1.4795637 77.8620411L9.63340081 231.972567c0 0-4.99352755-34.954693-7.58276406-74.348077C.571073033 133.211689.0162366389 111.758015.0162366389 98.8118326c0-.7397819.3698909291-1.4795638.3698909291-2.2193456 0-.9247273 1.109672792-9.6171642 9.617164132-17.7547646 9.2472733-8.8773823 77.4921498-62.3266217 76.382477-57.1481487z" fill="#1496ff"/><path d="M86.3857687 21.6895737c-3.3290184 17.5698192-7.3978186 43.6471297-9.6171642 70.0943312 0 0-72.68356764-8.6924368-76.7523678611 8.8773821 0-.9247271 1.2946182511-11.6515641 9.8021096311-19.7891645C19.0656195 71.9947402 87.4954415 16.5111007 86.3857687 21.6895737h0z" fill="#1284ea"/><path d="M.0162366389 96.4075415v4.0688005C.756018498 97.3322688 2.05063675 95.1129233 4.63987326 91.5989594c5.36341844-6.8429822 14.05585534-8.6924368 17.56981914-9.0623277 17.7547646-2.4042911 44.0170206-5.178473 70.4642221-5.9182549 46.7912025-1.4795637 77.6770955 2.404291 77.6770955 2.404291l65.65564-62.3266216c0 0-34.399857-6.4730913-73.608295-11.09672789-25.70742-3.1440729-48.270767-4.808582088-61.032004-5.5483639472-.924727 0-9.9870547-1.1096727928-18.4945461 7.0279276672C73.6245316 15.9562643 26.6483836 60.5281214 7.78394616 78.4678314-.72354522 86.6054319.0162366389 95.6677597.0162366389 96.4075415z" fill="#b4dc00"/><path d="M233.602359 176.119037c-17.754765 2.404291-44.017021 5.363418-70.464222 6.288146-46.791203 1.479563-77.8620411-2.404291-77.8620411-2.404291l-65.65564 62.511567c0 0 34.7697474 6.842982 73.9781859 11.281673 24.0429102 2.774182 45.3116392 4.253746 58.2578212 4.993528.924728 0 2.404291-.739782 3.329019-.739782.924727 0 9.987055-1.664509 18.494546-9.80211 9.247273-8.877382 65.100804-72.683568 59.922331-72.128731h0z" fill="#6f2da8"/><path d="M233.602359 176.119037c-17.754765 2.404291-44.017021 5.363418-70.464222 6.288146 0 0 4.993527 73.053458-12.576292 76.197531.924727 0 12.946183-.554836 21.453674-8.692437 9.247273-8.877382 66.765313-74.348077 61.58684-73.79324h0z" fill="#591f91"/><path d="M154.4457 258.974605c-1.294619 0-2.589237-.184945-4.0688-.184945 3.329018-.554837 5.548363-1.66451 9.062327-4.253746 7.027928-4.993528 9.247274-13.685964 9.987055-17.199928 3.144073-17.569819 7.397819-43.64713 9.432219-70.094331 3.698909-46.606258 1.479564-77.6770957 1.479564-77.6770957l65.65564-62.5115671c0 0 4.808582 34.7697474 7.582764 74.1631318 1.664509 25.707419 2.219345 48.455711 2.404291 61.032003 0 .924727.739782 9.987055-7.76771 18.124656-9.247273 8.877382-56.223421 53.634184-74.902913 71.573894-8.877382 8.137601-17.93971 7.027928-18.864437 7.027928h0z" fill="#73be28"/></svg>