<svg width="512px" height="150px" viewBox="0 0 512 150" xmlns="http://www.w3.org/2000/svg" preserveAspectRatio="xMidYMid"><title>DynDNS</title><path d="M153.392713 0c38.351368 0 69.441295 31.089927 69.441295 69.4412955V79.805668c0 38.351369-31.089927 69.441296-69.441295 69.441296H69.4412955C31.089927 149.246964 0 118.157037 0 79.805668V69.4412955C0 31.089927 31.089927 0 69.4412955 0h83.9514175zm0 25.9109312H69.4412955c-23.8007448 0-43.140125 19.1013727-43.5245325 42.8105102l-.0058318.7198541V79.805668c0 23.800745 19.1013727 43.140125 42.8105102 43.524533l.7198541.005831h83.9514175c23.800744 0 43.140125-19.101372 43.524532-42.8105098l.005832-.7198542V69.4412955c0-23.8007448-19.101373-43.140125-42.81051-43.5245325l-.719854-.0058318z" fill="#c74634"/><path d="M366.001203 73.085131c0 12.1083093-3.281564 21.4376624-9.844692 27.988059-6.563128 6.550397-15.788965 9.825595-27.67751 9.825595h-23.109377V38.3481781h24.72166c11.465117 0 20.316383 2.9774531 26.553797 8.9323593 6.237415 5.9549063 9.356122 14.5564374 9.356122 25.8045936zm-16.647908 1.6087419c0-7.8855253-1.661463-13.7310141-4.984388-17.5364666-3.322925-3.8054525-8.37001-5.7081787-15.141253-5.7081787h-7.210121V99.645087h5.51731c7.523604 0 13.040914-2.0498442 16.551929-6.1495327 3.511015-4.0996885 5.266523-10.3669156 5.266523-18.8016814zm21.091037-36.3456948 25.884615 44.7520243v27.7985826h15.867409V83.1002024l25.684211-44.7520243h-17.269231l-16.448887 30.0435223-15.475202-30.0435223h-18.242915zm80.47166 72.5506069V38.3481781h14.533401l30.301619 46.4746964V38.3481781H512v72.5506069h-14.29251l-30.846154-45.40587v45.40587h-15.945344z"/></svg>