<svg width="512px" height="94px" viewBox="0 0 512 94" xmlns="http://www.w3.org/2000/svg" preserveAspectRatio="xMidYMid"><title>Ebanx</title><path d="M355.586382 0c6.665913 0 13.768073 2.28898476 20.562065 6.3615491l1.129351.69518869 48.372328 30.79197291L480.891792.931138016h28.001487L439.989065 46.9785482 512 92.8180628h-30.768548l-57.607576-36.6540431-54.790738 36.6540431h-28.048337l68.467926-45.8014492-42.990467-27.3543753c-3.216623-2.0578736-6.305711-3.7765032-10.095733-3.9965077l-.823178-.0237832c-6.553605 0-12.189836 4.2552924-12.506556 12.8598251l-.014029.7705129v39.2249209c0 16.669713-7.668712 25.2022167-21.597717 25.2022167-8.188242 0-15.159441-3.6456837-21.782622-10.8110293l-.734521-.8106273-56.881406-63.8385881c-1.891557-2.0086814-3.346826-2.6470087-4.948501-2.6470087-2.679915 0-4.78616 1.6891393-4.980678 5.2824175l-.014672.5532997V72.567275c0 14.1193318-7.282202 21.132148-19.413349 21.132148-6.700973 0-12.460732-2.7913705-16.645303-7.9901187l-.536829-.6917185-9.940923-13.3345991h-46.208456v21.1380042h-16.353478V21.6709197C122.784309 7.59843758 130.403244 0 142.387986 0c5.213919 0 11.064039 1.79068519 17.107178 9.50399772l.604941.79122638 49.118994 65.8531257c1.016053 1.3235043 2.131662 1.914982 3.250199 1.914982 1.585082 0 2.874282-1.1121081 3.03913-3.2934723l.017813-.4837857V23.3867903C215.526241 7.74777104 225.086511 0 236.491487 0c7.559584 0 14.177063 3.76300729 19.290171 9.19614842l.606316.65985963 57.508021 64.62332075c2.427401 2.6470087 4.661546 3.6777024 6.699509 3.6777024 3.201312 0 5.649818-2.2878866 5.85668-6.2640244l.014174-.5526086V30.8915285C326.466358 9.90578587 338.210995 0 355.586382 0zM141.85507 15.6360912c-1.320393 0-2.553286.9058831-2.70224 3.1615835l-.015043.4692691v37.7081616h35.242695l-29.468468-39.5235879c-.861514-1.1322013-1.646681-1.6860112-2.663975-1.7951023l-.392969-.020324zM80.3179741.934066123c18.0547076 0 27.6120489 9.803302077 27.6120489 23.386790377 0 8.267022-4.539776 15.2727326-11.9368451 19.6002431l-.2294395.1293416.2897004.1190415c9.9254042 4.2229157 14.8866782 11.5084713 14.8866782 21.0423876 0 15.1500254-10.772506 27.6061925-30.0862993 27.6061925H47.2684308V.934066123h33.0495433zM76.6314874 53.297403H63.671686v23.8787123h12.9598014c12.5205854 0 17.4690862-5.639534 17.4690862-12.5527945 0-6.9132606-5.0480564-11.3259178-17.4690862-11.3259178zm.3865102-36.7740954H63.671686v22.063286h11.8412646c10.3859954 0 16.3564055-4.6088404 16.3564055-11.4723231 0-6.324711-4.4653631-10.5909629-14.8513585-10.5909629zM34.5516622.931138016V16.5233076H16.3564055v22.063286h16.4003271V53.297403H16.3564055v23.8787123h18.1952567v15.6390194H0V.931138016h34.5516622z" fill="#0051ff"/></svg>