<svg width="256px" height="240px" viewBox="0 0 256 240" xmlns="http://www.w3.org/2000/svg" preserveAspectRatio="xMidYMid"><defs><linearGradient x1="49.9996994%" y1="1089.3962%" x2="49.9996994%" y2="-159.499661%" id="a"><stop stop-color="#473788" offset="30.33%"/><stop stop-color="#2c2255" offset="87.2%"/></linearGradient><linearGradient x1="49.9989479%" y1="896.536635%" x2="49.9989479%" y2="-352.359227%" id="b"><stop stop-color="#473788" offset="30.33%"/><stop stop-color="#2c2255" offset="87.2%"/></linearGradient><linearGradient x1="49.9988435%" y1="215.169856%" x2="49.9988435%" y2="-166.715419%" id="c"><stop stop-color="#473788" offset="30.33%"/><stop stop-color="#2c2255" offset="86.31%"/></linearGradient></defs><g style="fill:#2c2255"><path d="M251.481071 152.819687c-5.23538 17.822324-14.944504 33.800313-29.150806 47.912874l-.624883.624992c-17.739354 17.625059-38.397349 28.192684-61.953619 31.748129-5.952492.89756-12.080747 1.368604-18.405855 1.368604-31.641948 0-58.7000086-11.237086-81.2023034-33.741725-14.1149053-14.117248-23.7560676-30.09055-28.9516089-47.912874h0zm4.422186-26.647947c-.210915 4.24572-.649618 8.394631-1.285358 12.463815l-.219169 1.353466H28.2954287c-.6770374-4.051679-1.1566582-8.181185-1.4149448-12.405603l-.0778652-1.411678H255.903257zm-1.509214-26.6479478c.681256 4.0537878 1.163196 8.1835048 1.423613 12.4062358l.078571 1.411045H26.8026187c.2088059-4.243611.6435019-8.392311 1.2750449-12.463183l.2177651-1.3540978H254.394043z"/><path d="M251.485758 86.6907818c-5.230693-17.8715372-14.942161-33.9198307-29.155493-48.1355066-17.831698-17.8316976-38.639641-28.5297788-62.395709-32.12939599-6.008736-.91162182-12.197922-1.38969598-18.588648-1.38969598-31.641948 0-58.7023521 11.17615537-81.2023034 33.51909197C46.0240123 52.7709511 36.378163 68.8192446 31.1849652 86.6907818"/></g><path d="M19.9900619 119.759922c0-60.5185652 45.4521981-110.80306192 104.5810671-119.647433961C123.104097.0585875201 121.630035 0 120.148943 0 53.795061 0 0 53.6192984 0 119.759922c0 66.142966 53.7927175 119.759921 120.148943 119.759921 1.485779 0 2.959841-.056244 4.43156-.110144C65.44226 230.565327 19.9900619 180.28083 19.9900619 119.759922z" fill="#f7941e"/><g transform="translate(63.110477 99.069153)"><path d="M156.201359 14.2695764c-.384334-4.73621513-1.181124-9.35525521-2.371623-13.817280745H2.65049941C1.460001 4.91197769.660867227 9.53101777.276533095 14.2695764H156.201359z" fill="url(#a)"/><path d="M156.201359 27.1025868H.278876596C.663210728 31.8388019 1.4576575 36.457842 2.65049941 40.9198675H153.83208c1.190498-4.4620255 1.984945-9.0810656 2.369279-13.8172807z" fill="url(#b)"/><path d="M78.2401179 98.9355735c31.3958801 0 58.4586271-18.4972519 70.9213651-45.185039H7.31875301C19.7814903 80.4383216 46.8442376 98.9355735 78.2401179 98.9355735z" fill="url(#c)"/></g><path d="M254.368264 139.986677c-.771011 4.368286-1.78106 8.652205-3.03249 12.83301h0H31.1896522c-1.2537729-4.183148-2.1278987-8.467068-2.896567-12.83301h0zm1.333452-26.647948c.126549 2.209922.208572 4.429217.208572 6.66726 0 2.069311-.060931 4.124562-.168732 6.165751h0H26.7627792c-.107801-2.041189-.1687321-4.09644-.1687321-6.165751 0-2.238043.0820226-4.459682.2085716-6.66726h0zm-5.115862-26.6479472c1.272521 4.1808054 2.291944 8.4670684 3.084047 12.8330104h0H28.2954287c.7897598-4.3682855 1.6123286-8.6545485 2.887193-12.8330104h0z" fill="#fff"/></svg>