<svg width="512px" height="137px" viewBox="0 0 512 137" xmlns="http://www.w3.org/2000/svg" preserveAspectRatio="xMidYMid"><title>ecma international</title><path fill="#cbd7de" transform="matrix(1 0 0 -1 0 136.515996)" d="M234.619883 1.46654851e-14H0V136.515996h234.619883V1.46654851e-14"/><path d="M42.6013072 20.1434403c-3.0249742 2.1107671-6.8233918 4.9824561-9.6388029 7.7110423-4.0377021 3.6628827-7.3378741 8.1293429-9.6437564 13.0526316 1.7925008-5.1503268 4.663777-10.128655 8.9036119-14.1713107 3.2733402-2.6762986 6.780461-4.8434812 10.3789474-6.5923632h0zm39.0103887 63.8926728c-3.1673891 4.8035776-9.2378397 7.6381149-15.0702442 9.4888201-17.3213623 6.8290338-42.0122463-6.1933264-45.6726523-28.6453388-.2348813-1.0457517-.6218094-3.4385965-.5278293-5.2287582 1.5668386 13.7323701 9.8910216 25.7832817 21.1998624 30.9129687 11.147162 5.3567251 24.3109735 4.4100447 33.3312693-1.9332645.4654971-.3646371.9298934-.756794 1.3711731-1.1434469-1.577021.8132095-3.2411421 1.501204-4.9616788 2.0529756-6.1011351 2.9404885-13.3589267 4.1059511-20.575301 2.5579635-14.2022703-2.2263502-27.0785001-15.1578947-29.3009975-31.2886137-.180117-1.0429996-.3010664-2.1080151-.3757826-3.1757826-.4272446.3095976-.6885449 1.0677675-.6885449 2.0171999-.2385965-1.1007912-.2385965-2.2002064-.1854833-3.3133815-.1542484-5.1599587 1.0084623-10.4767802 3.1632611-15.4303405-.8363262 2.5579635-1.35989 5.1420708-1.6463709 7.7220502 1.0266254-5.0264878 3.1416581-9.8589612 6.3611971-13.7461301 2.1166839-2.1768145 4.4865497-6.9570003 7.3524596-8.491228 10.8993464-8.6453389 27.4369453-11.5803234 38.5992432-5.2205023 1.5280358.4114207 3.0512556.8531132 4.4266942 1.6498108-1.7834193-.5916752-3.7854833-.9865841-5.3861713-1.5479876l-.5337461-.0055039c-.4612315-.2628139-.6907465-.3880289-.9261782-.5159959-8.2407981-1.0402477-25.1171655-2.8675611-35.5177159 5.8988648-2.9528724 2.1190231-5.2389405 4.9067767-7.3813553 7.7660819 1.0948744-.748538 2.8583419-1.7612659 3.922119-2.881321 5.2394909-5.2328861 12.4371517-9.9649123 19.4454764-10.5304437-3.2319229 1.3195734-6.0081183 2.8895769-9.0648779 4.740282-1.5829377.7292742-4.1187478 1.1489509-5.2679738 2.4891641-6.5494324 5.5892673-12.1453044 11.3161335-13.151978 19.9146887-.1531476.8434813.3924321 1.5094599.1192982 2.2786378 1.6517372-9.5204678 7.6163743-16.5627795 15.110148-22.1781906 1.0168558-1.1929824 2.1644307-1.6855865 3.1905056-2.5043 1.3099416-.4705882 2.4719643-.9232886 3.4351566-1.4310285 11.1261094-4.1582387 13.1116615.4031648 23.0886825.5476436-4.4998968-1.1406949-12.1919505-3.244582-16.0846234-3.497764 6.9993808-1.4420365 20.2094256 2.120399 26.2432749 6.6116271 7.5002408 5.1186791 5.995184 5.3484692 9.8684554 11.8954248.3386309.5352598.6685931 1.754386.9470933 3.2308222 2.3530787 4.5311317 3.7016855 9.6745786 3.7016855 15.1345029 0 10.4754042-4.9186102 19.7880977-12.5575507 25.7997936h0zM26.7237702 51.2036398c-.6584107 4.246302-.8540764 8.5861713.0617819 12.8971448-.0871001-.8503612-.1579635-1.5342277-.1170966-1.8603371-.4138975-5.1998624-.0140351-9.4475404.4621947-12.2077744-.1192983.3673891-.2537324.7471621-.40688 1.1709667.1832817-.8187135.4026144-1.633299.6535948-2.4231166.4148607-1.9470245.7982112-2.7230823.6885449-2.00344 3.326591-8.7168903 10.3441348-15.4468524 18.1264534-18.624011-7.6039904.9453044-17.6760922 11.3216374-19.4685931 23.0505676h0zm22.173237 37.4434124c-6.3585827-1.3264534-12.5794289-4.8393533-17.147162-11.0643275 3.0610251 3.878913 6.7127623 5.9635363 10.2764362 7.2156863-.321431-.2352941-.6343309-.4692122-.9433781-.7113863-2.7804609-1.6484348-5.3909872-3.6298589-7.7270037-6.1121431-.6304782-.8077055-.9180599-1.7915377-1.5065704-2.5056759l-1.2465084-1.879601c-1.6527004-1.5617475-2.6401101-3.4317166-3.7146199-5.4131407-4.6654283-10.2923977-4.1043-23.1083591 2.2983144-33.8837289-11.5766082 16.0302717-7.0099759 38.9349845 6.6907465 49.0773993 5.7012728 4.4981081 12.3086343 6.6941865 18.7968352 7.0519436-1.9984864-.4114207-3.9263846-1.0196078-5.7770898-1.7750258zm21.0311662-63.4234606c-1.078225-.1912625.5875473.2751978 5.4357069 3.1386309.420915.2421741.877193.5352597 1.3534228.8476092 1.8897832 1.00172 3.6776057 2.1919505 5.3308565 3.5417957-4.772893-4.6191951-10.6370829-7.5514276-12.1199862-7.5280358" fill="#ee8421" transform="matrix(1 0 0 -1 0 113.091496)"/><path d="M123.042449 62.3281734c0 10.6776746 6.846646 13.2246302 17.470795 13.2246302h17.779154v15.9009288c0 0-12.209151 0-20.566908 0-21.015755 0-33.042862-7.3697971-33.042862-35.1771586 0-24.0687995 3.932301-36.7210182 31.272102-36.7210182 21.693705 0 26.965119 8.8627451 26.965119 28.0591675 0 3.6532508 0 14.8538012 0 14.8538012l-39.8774-.1403509zm22.661027-14.6350189c0-7.0381837.033022-13.9236327-10.763538-13.9236327-10.662814 0-12.024355 6.5992432-12.024355 13.9236327h22.787893m150.542826-28.1375989h-61.626419v71.8981768h15.406949V34.9597523h10.866185v.00688c3.697282 0 6.712074 2.8111455 7.108359 6.4107327v50.0763674h15.406949V34.9597523h10.785001v.00688c3.961473 0 7.185415 3.2239422 7.185415 7.1854145h0v49.3016856h15.405573V40.0963192c0-11.3367733-9.191607-20.5407636-20.538012-20.5407636M195.594083 34.9666323v-.00688h28.759546V19.5555556h-31.439972l-.009632.0371517c-10.128655.3068455-18.390093 7.9339525-19.704163 17.7764017h-.206398v33.380117h.206398l-.206398.1651187c0 11.1166151 8.859993 20.1651187 19.910561 20.502236l.009632.0371517h31.439972V76.0412797h-28.759546c-3.966976 0-7.190918-3.2239422-7.190918-7.1909185V42.1520468c0-3.9614723 3.223942-7.1854145 7.190918-7.1854145m182.81665 5.1296869c0-11.3367733-9.197111-20.5407636-20.543516-20.5407636-6.296526 0-30.811145 0-30.811145 0v15.4041967h28.760921v.00688c4.829722 0 7.188167 3.2239422 7.188167 7.1854145 0 0 0 1.0884073-2.26763 2.873065-2.940488 2.3034056-15.127623 5.627795-21.770898 8.2820777v-.0330237c-10.362573 3.4674923-15.122119 9.9387685-15.122119 20.0770554 0 13.1764706 5.80117 18.2662539 17.203991 18.2662539h37.362229c-.330238-7.7358102 0-51.5211559 0-51.5211559h0zM363.00516 76.4251806c0 0-17.607155 0-21.960784 0-1.381493 0-2.185071 0-2.292398-.9838321-1.045752-9.4172687 4.672859-9.0608875 24.253182-15.8059856v16.7898177" fill="#231f20"/><path d="M250.249742 113.465428h4.624699v23.050568h-4.624699v-23.050568m10.336429 0h5.681459l8.78569 17.237014h.063295v-17.237014h4.426557v23.050568h-5.645683l-8.818714-17.23839h-.066047v17.23839h-4.426557v-23.050568m29.260406 3.631235h-6.604747v-3.631235h17.831441v3.631235H294.4699v19.419333h-4.623323v-19.419333m15.157895-3.631235h13.604403v3.631235h-8.982456v5.681459h8.224286v3.631235h-8.224286v6.474028h9.04988v3.632611h-13.671827v-23.050568m18.955624 0h4.985208c4.954937 0 10.86481-.165118 10.86481 6.24011 0 2.709323-1.816306 4.954937-4.754042 5.349846v.067423c1.254902.097695 1.980048 1.353973 2.44238 2.377709l3.698658 9.01548h-5.151702l-2.773994-7.201927c-.660475-1.714482-1.254902-2.374957-3.203303-2.374957h-1.486068v9.576884h-4.621947v-23.050568zm4.621947 9.839698h1.520468c2.277262 0 4.886137-.330238 4.886137-3.203303 0-2.773994-2.574475-3.00516-4.886137-3.00516h-1.520468v6.208463m16.710011-9.839698h5.681458l8.782938 17.237014h.067423v-17.237014h4.423805v23.050568h-5.647059l-8.817337-17.23839h-.064672v17.23839h-4.426556v-23.050568m36.886137 0 9.048503 23.050568h-5.117303l-1.9828-5.285174h-9.344341l-2.015824 5.285174h-4.78569l8.98108-23.050568h5.216375zm25.797041 0v3.631235h-6.603371v19.419333h-4.624699v-19.419333h-6.603371v-3.631235h17.831441zm-28.470588 4.623323h-.064672l-3.338149 9.510836h6.738218l-3.335397-9.510836zm32.004128-4.623323h4.623323v23.050568h-4.623323v-23.050568m20.740282-.396285c7.232198 0 11.292742 4.887513 11.292742 11.854146 0 6.969384-3.994496 11.987616-11.292742 11.987616-7.398693 0-11.295494-4.919161-11.295494-11.987616 0-7.065704 3.964225-11.854146 11.295494-11.854146zm0 20.209151c4.721018 0 6.471276-4.194015 6.471276-8.355005 0-4.060544-1.880977-8.222911-6.471276-8.222911-4.590299 0-6.474028 4.162367-6.474028 8.222911 0 4.16099 1.751634 8.355005 6.474028 8.355005m16.280702-19.812866h5.678706l8.784314 17.237014h.067424v-17.237014h4.423804v23.050568h-5.645683l-8.818713-17.23839h-.063296v17.23839h-4.426556v-23.050568m31.668386 0h5.216375l9.049879 23.050568h-5.117303l-1.984176-5.285174h-9.344341l-2.014448 5.285174h-4.787066l8.98108-23.050568zm2.542828 4.623323h-.064671l-3.33815 9.510836h6.738218l-3.335397-9.510836m15.686275-4.623323h4.623323v19.417957H512v3.632611h-13.572755v-23.050568" fill="#cbd7de"/></svg>