<svg width="512px" height="232.726691px" viewBox="0 0 512 232.726691" xmlns="http://www.w3.org/2000/svg" preserveAspectRatio="xMidYMid"><title>edgeDB</title><path d="M433.666909 115.237818c0 35.333527-14.167273 41.666618-30.001454 41.666618h-33.66691V73.5714909h33.66691c15.834181 0 30.001454 6.3330909 30.001454 41.6663271h0zm-17.166545.003782c0-24.6664727-7.499637-25.8330182-18.333091-25.8330182h-10.498909v51.6663272h10.498909c10.833454 0 18.333091-1.166545 18.333091-25.833309h0zm-178.336291 41.662836V73.5714909h53.001018V89.4048h-35.3344v16.999855h26.666473v15.666618h-26.666473v18.999854h35.3344v15.833309h-53.001018zM320 232.726691h17.454545V0H320v232.726691zm148.994909-112.816v21.166545h14.667636c9.166546 0 11.499637-6 11.499637-10.500072 0-3.499928-1.666909-10.666473-14.167273-10.666473h-12zm0-30.5021092V105.2416h12c6.833455 0 10.833455-2.999855 10.833455-7.9997091 0-5.0001454-4-7.8333091-10.833455-7.8333091h-12zm-17.661091-15.8370909h33.998546c17.835636 0 23.168 12.4997818 23.168 21.4999273 0 8.3333818-5.332364 14.3330908-9.000728 15.9999998C510.167273 116.237964 512 126.738036 512 132.071273c0 6.999854-3.499636 24.833163-26.667636 24.833163h-33.998546V73.5714909zM136.6688 115.237818c0 35.333527-14.166691 41.666618-30 41.666618H73.0021818V73.5714909H106.6688c15.833309 0 30 6.3330909 30 41.6663271h0zm51.9968 26.507637c8.999855 0 13.666618-3.000146 15.333236-5.000146v-9.166545h-14.333381v-14.333382h28.500072v33.166545c-2.500072 3.833309-16.166691 11.333237-28.666763 11.333237-20.499782 0-37.833019-8-37.833019-43.333237 0-35.3332361 17.499928-41.666327 33.333237-41.666327 24.833163 0 30.999854 12.9998545 32.999854 24.4997818l-14.666763 3.3332362c-.833164-5.3332362-5.499928-11.9997089-16.1664-11.9997089-10.833455 0-18.333382 1.1665454-18.333382 25.8330179 0 24.666764 7.833309 27.333528 19.833309 27.333528h0zM119.499927 115.2416c0-24.6664727-7.499927-25.8330182-18.333091-25.8330182H90.6667636v51.6663272h10.5000724c10.833164 0 18.333091-1.166545 18.333091-25.833309h0zM0 156.904436V73.5714909h52.9998545V89.4048H17.6666182v16.999855h26.6664727v15.666618H17.6666182v18.999854h35.3332363v15.833309H0z" fill="#4d4d4d"/></svg>