<svg width="256px" height="248px" viewBox="0 0 256 248" xmlns="http://www.w3.org/2000/svg" preserveAspectRatio="xMidYMid"><g style="fill:#e3e3f8"><path d="M61.3423094 145.021111c5.4051199-2.393942 9.8702191-8.378796 7.1676591-12.608093-7.4026643 2.154547-7.0501565 7.102027-7.1676591 12.608093z"/><path d="M118.158527 158.746377c5.064352-1.276769 9.926129-5.74546 7.191379-10.373748-3.950194 2.154548-6.48237 5.107076-7.191379 10.373748z"/></g><g style="fill:#fdfdfd"><path d="M6.52104336 224.819169c0 5.027278 1.27676893 10.453546 4.78788354 12.368699 12.9272854 7.261624 58.2525825 1.595961 73.6536077-1.835355 8.0596039-1.835355 14.6030447-7.82021 22.1838604-11.09193 17.076784-7.42122 29.445483-13.406074 43.090951-23.380831 9.894959-7.261624 25.615177-27.689926 27.290936-39.899029l-13.485872-3.032327c-.319192 13.725266-3.431316 16.837391-15.640419 20.029313-8.2192 2.234346-24.25861 2.713134-32.637406 1.276769-11.09193-1.835355-16.1192077-7.660614-21.1464853-14.283852-9.7353631-12.927286 2.1545475-21.944466-13.2464777-22.822245-16.1990058 19.869716-44.7667107 5.585864-57.2950058 3.590912-5.3464699 7.740412-17.87476507 58.013189-17.71667956 69.504109 7.74192226-2.633336 12.60960376.239394 19.55203486 2.952528 24.577802 9.495969 3.1121243 17.874765-6.7030369 15.401026-6.7030369-1.595962-8.7777864-5.984855-12.68789124-8.777787z"/><path d="M38.6796608 110.14936c9.9747573 1.915153 18.8323418 6.064652 27.290936 10.293949 13.805064 6.862633 16.2788038 5.905056 17.5555728 15.480823.1595961 1.755558-.1595961 2.713134 4.8676815 4.309095 8.4585942 2.633336-4.8676815-2.074749 17.7949669-1.994951 13.485872.079798 44.367721 5.506066 54.342478 11.810113 4.149499 2.633336 3.351518 5.984854 17.395976 5.585864-.159596-16.518198-4.548489-41.175798-11.012132-56.3374294-7.900007-18.3535534-18.353553-21.1464854-39.659635-28.0091185-12.448497-3.9899029-48.9960073-8.3787961-60.3273315-1.3565669C56.3150317 76.554377 54.3200803 84.4543848 44.425121 98.3392469c-2.8727301 4.0697011-3.9101048 7.1818251-5.7454602 11.8101131z"/><path d="M126.537323 144.063534c7.979806 3.271721-.39899 24.418206-11.49092 19.31113-3.590913-10.134353 4.947479-15.879813 7.261623-20.428303-4.787884-.718182-18.433352-2.87273-22.5030525-1.356567-5.2666719 1.994952-6.4636428 13.246478-3.7505088 18.51315 12.7676893 25.05659 69.1849163 19.71012 63.2000623.239394-2.393942-7.900008-4.628288-9.176777-12.687891-11.889911-6.463643-2.154547-12.927286-4.388893-20.029313-4.388893z"/><path d="M26.2311637 141.270602c6.3838447 6.144451 20.8272933 7.102027 30.1636661 7.580816 1.1969708-12.368699 2.2343456-21.625274 12.1293048-20.907091 4.8676816 6.623238 2.3141437 14.443448-2.792932 19.470726 8.6979883-.079798 13.725266-6.623239 12.4484971-16.119208-7.3414214-5.266672-29.6050796-15.800016-40.7768078-17.316179-3.1121243 3.351519-10.7727379 21.705072-11.1717282 27.290936z"/></g><path d="M11.2291288 220.27068c5.2666718-.478788 18.9919379 3.511114 20.1091107 7.979806-8.5383923 1.037374-19.3909282.239394-20.1091107-7.979806zm-4.70808544 4.548489c3.91010484 2.792932 5.98485434 7.181825 12.68789124 8.777787 9.8151612 2.473739 31.2808389-5.905057 6.7030369-15.401026-6.9424311-2.713134-11.8101126-5.585864-19.55203486-2.952528-.15808551-11.49092 12.37020966-61.763697 17.71667956-69.504109 12.5282951 1.994952 41.096 16.278804 57.2950058-3.590912 15.4010252.877779 3.5111146 9.894959 13.2464777 22.822245 5.0272776 6.623238 10.0545553 12.448497 21.1464853 14.283852 8.378796 1.436365 24.418206.957577 32.637406-1.276769 12.209103-3.191922 15.321227-6.304047 15.640419-20.029313l13.485872 3.032327c-1.675759 12.209103-17.395977 32.637405-27.290936 39.899029-13.645468 9.974757-26.014167 15.959611-43.090951 23.380831-7.5808157 3.27172-14.1242565 9.256575-22.1838604 11.09193-15.4010252 3.431316-60.7263223 9.096979-73.6536077 1.835355-3.51111461-1.915153-4.78788354-7.341421-4.78788354-12.368699zM118.158527 158.746377c.709009-5.266672 3.241185-8.2192 7.191379-10.373748 2.73475 4.628288-2.127027 9.096979-7.191379 10.373748zm8.378796-14.682843c7.102027 0 13.56567 2.234346 20.029313 4.388893 8.059603 2.713134 10.293949 3.989903 12.687891 11.889911 5.984854 19.470726-50.432373 24.817196-63.2000623-.239394-2.713134-5.266672-1.5161631-16.518198 3.7505088-18.51315 4.0697005-1.516163 17.7151685.638385 22.5030525 1.356567-2.314144 4.54849-10.852536 10.29395-7.261623 20.428303 11.09193 5.107076 19.470726-16.039409 11.49092-19.31113zm-65.1950136.957577c.1175026-5.506066-.2350052-10.453546 7.1676591-12.608093 2.70256 4.229297-1.7625392 10.214151-7.1676591 12.608093zm-35.1111457-3.750509c.3989903-5.585864 8.0596039-23.939417 11.1717282-27.290936 11.1717282 1.516163 33.4353864 12.049507 40.7768078 17.316179 1.2767689 9.495969-3.7505088 16.03941-12.4484971 16.119208 5.1070757-5.027278 7.6606136-12.847488 2.792932-19.470726-9.8949592-.718183-10.932334 8.538392-12.1293048 20.907091-9.3363728-.478789-23.7798214-1.436365-30.1636661-7.580816zm-7.9798058-6.383844c-2.9525281-8.139402-2.9525281-20.827294 9.575767-21.864668l-6.3838446 17.794967c-1.6757593 3.830306-1.6757593 2.952528-3.1919224 4.069701zm20.4283029-24.737398c1.8353554-4.628288 2.8727301-7.740412 5.7454602-11.8101131 9.8949593-13.8848621 11.8899107-21.7848699 22.5030525-28.4081087 11.3313242-7.0222292 47.8788345-2.633336 60.3273315 1.3565669 21.306082 6.8626331 31.759628 9.6555651 39.659635 28.0091185 6.463643 15.1616314 10.852536 39.8192314 11.012132 56.3374294-14.044458.39899-13.246477-2.952528-17.395976-5.585864-9.974757-6.304047-40.856606-11.730315-54.342478-11.810113-22.6626484-.079798-9.3363727 4.628287-17.7949669 1.994951-5.0272776-1.595961-4.7080854-2.553537-4.8676815-4.309095-1.276769-9.575767-3.7505088-8.61819-17.5555728-15.480823-8.4585942-4.229297-17.3161787-8.378796-27.290936-10.293949zm141.2425632-3.910105c-1.516163-5.027278 1.276769-4.708086 6.14445-8.1394023 2.792932-1.9949514 5.027278-4.069701 8.458595-5.9848543 12.847487-7.1818253 36.786904-8.3787962 47.001056.1595961 4.149499 3.4313165 10.932334 10.1343535 9.894959 18.9121395-2.154547 17.475775-14.124256 27.051542-23.939417 35.031348-9.974758 8.139402-26.572754 16.518198-43.729336 10.932334-1.436365-3.511115-.319192-25.774773-1.994952-33.993973-1.516163-7.341421-.718182-8.139402 3.511115-12.528295 12.448497-12.9272856 39.420241-22.3434564 54.741468-11.2515263 6.463643 4.7878833 4.628287 6.6232383 7.979806 10.2939493 4.149499-4.468691-3.590913-19.470726-32.158618-18.5131493-19.390928.6383844-27.769724 15.8000153-35.909126 15.0818333zM63.7362511 60.8341595c.3989903-11.0919301 10.6131418-34.0737709 20.8272932-42.0535767C96.9322434 9.20481583 109.859529.187635244 128.851467 10.9603731c4.708085 2.6333359 4.468691 3.9899029 4.947479 10.5333437.398991 6.3040466-.159596 8.6181903-1.755557 13.725266-12.608093 40.6970097-23.141437 17.3161787-63.5192544 26.9717437 1.5161631-13.2464777 13.0070835-25.0565903 19.3909282-31.2010408C98.8473968 20.376544 106.747405 13.513911 123.185805 15.7482566c4.548489 7.5808155 5.027277 12.368699-.478789 21.2262835-7.341421 11.8101126-9.176777 11.0919301-8.059604 19.151534 5.74546-1.4363651 7.501018-7.0222291 10.134354-12.6080932 16.039409-33.5151845-7.261624-37.58488546-21.545476-31.440435-9.575767 4.069701-26.6525515 22.9020427-32.2384156 34.233367-1.1171728 2.2343456-2.3141437 5.1070757-3.3515184 7.5808155l-3.9101049 6.9424311zm63.2000619 1.6757592c1.675759-9.9747572 11.570719-12.448497 11.570719-43.1707495 0-13.24647765-16.278804-25.13638833-37.584886-16.27880386C82.6483909 10.5613828 79.8554589 16.306843 70.1200958 30.9896857c-9.1767767 13.8848622-8.8575845 29.1262913-16.7575922 41.9737787-2.3141437 3.6707106-4.3888932 4.9474796-6.9424311 8.6181903-1.8353554 2.7131339-3.1919223 6.1444504-5.0272777 9.3363728-3.7505087 6.1444505-7.5808155 10.6131415-10.6131417 17.9545635-9.575767.239394-17.6353709.39899-18.5929476 10.293949-1.2767689 13.56567 5.1070757 16.917188 5.1070757 22.024264-.079798 5.506066-22.42325434 61.045515-16.1990058 94.161709 1.75555728 9.096979 7.74041165 9.176777 17.3161786 10.293949 23.0616389 2.792932 52.9859107 1.835356 73.6536078-6.463642l37.5050872-17.954563c9.495969-5.34647 25.455581-15.480824 32.557608-22.902043 5.027278-5.186874 7.660614-9.575767 11.969709-15.720218 5.905056-8.61819 6.064652-8.458594 7.341421-20.188908 7.82021 1.436365 22.423254 4.867681 27.290936 9.096978-.558586 5.506066-3.27172 2.87273-3.27172 7.82021 3.112124.079798 8.298998-3.830307 9.575767-8.139402-3.271721-4.787883-6.703037-3.989903-11.411123-7.82021 3.750509-2.952528 10.533344-4.309095 15.720218-6.463642 11.171728-4.628288 30.243464-18.672746 34.951549-31.440435 3.750509-10.29395.957577-27.4505323-5.107075-34.1535692-6.383845-7.0222292-21.226284-10.6131418-33.355589-10.6131418-14.443448 0-29.365685 10.3737476-41.016202 14.8424389-4.468691-3.9101049-4.787883-8.3787962-8.059604-12.6878913-3.750508-5.1070757-28.168714-17.8747651-39.819231-20.3485049z" fill="#020202"/><path d="M179.922224 106.239255c8.139402.718182 16.518198-14.4434489 35.909126-15.0818333 28.567705-.9575767 36.308117 14.0444583 32.158618 18.5131493-3.351519-3.670711-1.516163-5.506066-7.979806-10.2939493-15.321227-11.0919301-42.292971-1.6757593-54.741468 11.2515263-4.229297 4.388893-5.027278 5.186874-3.511115 12.528295 1.67576 8.2192.558587 30.482858 1.994952 33.993973 17.156582 5.585864 33.754578-2.792932 43.729336-10.932334 9.815161-7.979806 21.78487-17.555573 23.939417-35.031348 1.037375-8.777786-5.74546-15.480823-9.894959-18.9121395-10.214152-8.5383923-34.153569-7.3414214-47.001056-.1595961-3.431317 1.9151533-5.665663 3.9899029-8.458595 5.9848543-4.867681 3.4313163-7.660613 3.1121243-6.14445 8.1394023z" fill="#fdf2f2"/><path d="M63.7362511 60.8341595l3.9101049-6.9424311c1.0373747-2.4737398 2.2343456-5.3464699 3.3515184-7.5808155 5.5858641-11.3313243 22.6626486-30.163666 32.2384156-34.233367 14.283852-6.14445046 37.584885-2.0747495 21.545476 31.440435-2.633336 5.5858641-4.388894 11.1717281-10.134354 12.6080932-1.117173-8.0596039.718183-7.3414214 8.059604-19.151534 5.506066-8.8575845 5.027278-13.645468.478789-21.2262835-16.4384-2.2343456-24.3384082 4.6282874-35.2707422 15.2414291-6.3838447 6.1444505-17.8747651 17.9545631-19.3909282 31.2010408 40.3778174-9.655565 50.9111614 13.725266 63.5192544-26.9717437 1.595961-5.1070757 2.154548-7.4212194 1.755557-13.725266-.478788-6.5434408-.239394-7.9000078-4.947479-10.5333437C109.859529.187635244 96.9322434 9.20481583 84.5635443 18.7805828c-10.2141514 7.9798058-20.4283029 30.9616466-20.8272932 42.0535767z" fill="#fef3f3"/><path d="M18.2513579 134.886758c1.5161631-1.117173 1.5161631-.239395 3.1919224-4.069701l6.3838446-17.794967c-12.5282951 1.037374-12.5282951 13.725266-9.575767 21.864668z" fill="#efefef"/><path d="M31.3382395 228.250486c-1.1171728-4.468692-14.8424389-8.458594-20.1091107-7.979806.7181825 8.2192 11.5707184 9.01718 20.1091107 7.979806z" fill="#faf1f1"/></svg>