<svg width="256px" height="256px" viewBox="0 0 256 256" xmlns="http://www.w3.org/2000/svg" preserveAspectRatio="xMidYMid"><title>effect</title><path d="M239.236687 194.538296c3.793075-2.136182 5.088721-6.870769 2.90134-10.574243-2.188805-3.699207-7.034325-4.969254-10.8274-2.833072l-103.500998 58.361001-103.1212651-58.1434c-3.7873851-2.137605-8.6343278-.871824-10.8259764 2.833072-2.187382 3.703474-.8874684 8.436638 2.9013389 10.57282l106.7806496 60.207048c1.874108 1.058094 4.093507 1.322843 6.163923.735292.966635-.147465 1.89855-.468864 2.750583-.948625l106.777805-60.209893h0z"/><path d="M123.504554 60.8263945c1.982548-1.1126205 4.326839-1.3890215 6.51379-.7680014 1.006734.1560676 1.977343.4913251 2.865783.9898685l112.88484 63.3430554c3.117517 1.749336 4.653519 5.152721 4.110229 8.419571.382578 2.841606-.713957 5.822589-4.032008 7.694237l-112.889105 63.654523c-.898656.506922-1.882414.845284-2.902761.998402-2.189418.621364-4.536306.34285-6.51948-.773691L10.6510035 140.734104c-3.28960631-1.854582-4.39467509-4.802854-4.03911884-7.620282-.80924602-3.419028.71822359-7.098324 4.00071874-8.941528zm4.489964 16.329987-98.5246339 55.2875725 98.5801009 55.584818 98.524633-55.554951-98.5801-55.3174395z"/><path d="M129.860477.340589541c1.057762.164325346 2.077504.516923961 3.01085 1.041068669L251.456444 67.9232972c3.018736 1.6934619 4.625651 4.8620262 4.412929 8.0341257.618206 3.4539607-.982814 7.0670956-4.273552 8.9202178L133.010705 151.746392c-.944545.532319-1.978419.887547-3.050672 1.048179-2.299677.652776-4.764796.360443-6.848014-.81209L4.52690287 85.1179969C1.43177253 83.375615-.168024088 80.0742192.165363956 76.8164454c-.710917545-3.5157798.899997564-7.2370431 4.261983164-9.124971L123.016731 1.14983554c2.082638-1.1698038031 4.545709-1.461052291 6.843746-.809245999z"/></svg>