<svg width="256px" height="288px" viewBox="0 0 256 288" xmlns="http://www.w3.org/2000/svg" preserveAspectRatio="xMidYMid"><title>Elasticsearch</title><path d="M0 143.820336c0 12.440537 1.74383247 24.440621 4.71014544 35.955308H179.776543c19.85632 0 35.955309-16.098989 35.955309-35.955308 0-19.865308-16.098989-35.955309-35.955309-35.955309H4.71014544C1.74383247 119.370726 0 131.379799 0 143.820336" fill="#343741"/><path d="M242.013385 68.8634049c5.024754-4.629246 9.698944-9.6000674 13.986615-14.9304419C229.63577 21.0787997 189.213014-7.10522777e-15 143.819437-7.10522777e-15c-56.8183766 0-105.7175964 33.05191750000001-129.0436029 80.8994445H211.334518C222.714373 80.8994445 233.653776 76.5758187 242.013385 68.8634049" fill="#fec514"/><path d="M211.333619 206.742126H14.7749352c23.3349953 47.838538 72.2252263 80.899445 129.0436028 80.899445 45.393577 0 85.816333-21.087789 112.180563-53.932963-4.28767-5.339364-8.961861-10.310185-13.986615-14.939431-8.359609-7.721403-19.299012-12.027051-30.678867-12.027051" fill="#00bfb3"/></svg>