<svg width="256px" height="270px" viewBox="0 0 256 270" xmlns="http://www.w3.org/2000/svg" preserveAspectRatio="xMidYMid"><title>Elastic Path</title><path d="M24.0553373 62.6821737l46.8081718-46.555092C81.3199094 5.72860848 95.2165228-5.68434189e-14 110.008879-5.68434189e-14 124.699502-.0391810993 138.795599 5.76776723 149.155649 16.1270817c21.583208 21.4692974 21.583208 56.3995368 0 77.8674422l-46.316913 46.0664891c-4.3684982 4.356244-10.3025997 6.801015-16.4886696 6.793131-9.431191 0-17.9333844-5.651609-21.5422672-14.317898-3.6088828-8.666288-1.6138021-18.641411 5.054997-25.274273l46.3155128-46.0650966.17085-.1835623c2.944343-3.2944157 2.933903-8.2315235.049822-11.4997652l-.392473-.4165551c-3.133788-3.1168441-8.090711-3.3795817-11.531226-.6962754l-.439889.3667113-36.1810333 35.951768-9.5662831 9.5139344c-15.4397712 15.6073029-15.6019142 40.5612859-.4862034 56.3648989l.7234755.737739c15.6753056 15.590932 40.9404644 15.831094 56.9112113.72026l.828309-.805099h0l.685825-.68302-.004005-.005414 44.546421-44.295826c10.146142-10.0926356 23.537063-15.7856881 37.842428-16.1118428l1.302942-.0148387c14.793756 0 28.688969 5.7282084 39.146769 16.1266815C250.200878 116.570707 256.039394 130.59059 256 145.201784c0 14.279661-5.425935 27.720057-15.304463 38.007271l-.910288.92645-67.9729 67.605389c-10.360281 10.358803-24.456349 16.165239-39.146769 16.125289-14.792357 0-28.687571-5.726816-39.1453706-16.125289-1.6511007-1.645632-3.1969476-3.391725-4.6286932-5.227969l-1.052277-1.393924-17.9848406 17.888993c-9.1481354 8.8023-23.7031262 8.682164-32.7031202-.26993-8.8085046-8.761623-9.11044-22.814887-.8213919-31.938407l.552771-.587918 24.5980543-24.465546c-13.4203732-4.114944-25.7158023-11.448532-35.9320029-21.61208-.2855181-.283046-.561239-.57166-.8271627-.865843-32.22231979-32.926853-32.95133452-85.1763373-2.1525874-118.959478.4635205-.5599908.9597173-1.1027157 1.4863785-1.6266183zM206.63051 139.232407c-3.133788-3.116844-8.090711-3.379582-11.531226-.696275l-.439889.366711-45.315872 45.035969-22.845974 22.725327c-2.204125 2.191959-3.065067 5.386942-2.258518 8.381429.806549 2.994488 3.158056 5.333546 6.16873 6.136074 2.822507.75237 5.822356.047116 8.002454-1.850099l.424795-.395257 68.142796-67.779154h0c3.068204-3.445624 2.922743-8.672366-.347296-11.924725z" fill="#03c"/></svg>