<svg width="256px" height="278px" viewBox="0 0 256 278" xmlns="http://www.w3.org/2000/svg" preserveAspectRatio="xMidYMid"><path d="M90.3171158 59.6452476c-36.263973-6.6048804-64.9364598.3080157-76.363952 20.1010128-8.52745063 14.7699778-6.08994805 34.3525076 5.9114305 55.2850286 1.0214945 1.781667 3.2939055 2.397908 5.075572 1.376414 1.7816665-1.021495 2.3979077-3.293906 1.3764133-5.075573-10.8109791-18.856254-12.9146378-35.7567323-5.9226148-47.8672716 9.4928666-16.4421271 35.068228-22.6083106 68.5905123-16.5027832 2.020486.3679982 3.9567353-.9716083 4.3247331-2.9920944.3679979-2.0204861-.9716083-3.9567351-2.9920944-4.3247332h0 0zm53.6304182-33.6842069c-2.959113 5.7228943-8.932507 9.634661-15.819543 9.634661-9.829482 0-17.797851-7.9683692-17.797851-17.7978507 0-9.82948172 7.968369-17.797850999999987 17.797851-17.797850999999987 9.829481 0 17.797851 7.968369279999986 17.797851 17.797850999999987 0 .2571297000000002-.005453.5129857999999992-.016249.7674591C175.371074 33.8024981 195.843192 85.761892 195.843192 145.791057c0 24.689028-3.451782 48.381588-9.878724 68.919664-.613339 1.960001-2.699443 3.051685-4.659444 2.438345-1.96-.613338-3.051685-2.699442-2.438345-4.659443 6.196532-19.801775 9.539316-42.746189 9.539316-66.698566 0-56.5238534-18.789039-105.1630897-44.458461-119.8300163zM16.4684852 193.318639c.438887-.032407.8822005-.048898 1.3293658-.048898 9.8294816 0 17.7978509 7.968371 17.7978509 17.797851 0 9.829482-7.9683693 17.797851-17.7978509 17.797851-9.82948174 0-17.797850999999998-7.968369-17.797850999999998-17.797851 0-6.691441 3.692730589999997-12.520399 9.151494689999996-15.560177C6.47065759 162.243336 41.4336321 117.653289 94.2703902 87.1479726c21.9467168-12.6709427 44.7987308-21.6646102 66.2679188-26.2644774 2.00815-.430255 3.984868.8488819 4.415123 2.8570321.430255 2.0081501-.848882 3.9848681-2.857032 4.4151231-20.690501 4.4330301-42.817353 13.141302-64.1074114 25.4331234C48.2302588 122.31699 15.3283215 163.723299 16.4684852 193.318639zM222.72727 219.865381c-1.478402-2.594843-2.322973-5.597686-2.322973-8.797789 0-9.82948 7.96837-17.797851 17.797852-17.797851 9.829481 0 17.797851 7.968371 17.797851 17.797851 0 9.829482-7.96837 17.797851-17.797851 17.797851-3.873485 0-7.457959-1.237406-10.37969-3.338485-28.3925 16.703339-82.625386 8.183788-133.6611272-21.281711-21.7252847-12.543099-40.7751369-27.656931-55.4382649-43.770622-1.3822237-1.518962-1.2713758-3.870837.2475857-5.253061 1.5189612-1.382224 3.8708366-1.271376 5.2530607.247585 14.1337336 15.531927 32.5802482 30.167082 53.6562168 42.335296 48.1648129 27.80797 98.8856739 36.083351 124.8473419 22.060934zm-1.165175-63.914509c-1.326898 1.567523-3.673291 1.762588-5.240814.43569-1.567523-1.326898-1.762587-3.67329-.435689-5.240813 21.946123-25.925917 29.339719-51.0854 19.867366-67.4919958-6.875986-11.9095588-22.158793-18.5203333-43.361804-18.7960806-2.053551-.0267064-3.696635-1.7130888-3.669928-3.7666405.026707-2.0535514 1.71309-3.6966337 3.766641-3.669927 23.575303.306599 41.314643 7.9799786 49.705893 22.5140497 11.40396 19.7522405 3.113108 47.9649762-20.631665 76.0157172zM72.5636818 221.491933c-.6924179-1.93348.3136615-4.062191 2.2471413-4.754609 1.9334798-.692418 4.0621906.313662 4.7546081 2.247142 11.4756407 32.044116 29.5910158 51.081199 48.5625598 51.081199 13.644887 0 26.910673-9.774014 37.710497-27.73917 1.058126-1.760157 3.342796-2.329267 5.102954-1.271141 1.760158 1.058125 2.329268 3.342796 1.271142 5.102954-12.017183 19.990193-27.427895 31.344553-44.084593 31.344553-22.83871 0-43.1494346-21.344132-55.5643092-56.010928zm175.9991212-10.424341c0-5.72203-4.638624-10.360654-10.360654-10.360654-5.722032 0-10.360656 4.638624-10.360656 10.360654 0 5.722032 4.638624 10.360654 10.360656 10.360654 5.72203 0 10.360654-4.638622 10.360654-10.360654zM17.797851 221.428246c5.7220314 0 10.3606544-4.638622 10.3606544-10.360654 0-5.72203-4.638623-10.360654-10.3606544-10.360654-5.7220316 0-10.36065455 4.638624-10.36065455 10.360654 0 5.722032 4.63862295 10.360654 10.36065455 10.360654zm110.33014-193.2697406c5.722031 0 10.360654-4.6386231 10.360654-10.3606544 0-5.7220316-4.638623-10.36065457-10.360654-10.36065457-5.722032 0-10.360654 4.63862297-10.360654 10.36065457 0 5.7220313 4.638622 10.3606544 10.360654 10.3606544zm2.718489 130.2189786c-6.951635 1.502023-13.800391-2.915865-15.305354-9.8675-1.499084-6.951634 2.915866-13.80039 9.8675-15.305353 6.951634-1.502024 13.800391 2.915865 15.305354 9.8675 1.502023 6.951634-2.915866 13.80039-9.8675 15.305353z" fill="#47848f"/></svg>