<svg width="256px" height="293px" viewBox="0 0 256 293" xmlns="http://www.w3.org/2000/svg" preserveAspectRatio="xMidYMid"><path d="M255.947266 209.281745c-.073002 12.126032-6.371757 14.83094-6.371757 14.83094 0 0-108.693227 62.806791-115.760022 66.741875-7.002262 3.00557-11.682427 0-11.682427 0 0 0-113.73202325-65.960575-117.88323642-68.860279-4.1522704339-2.899703-4.24853947141-7.415999-4.24853947141-7.415999 0 0 .11425335441-130.612632 0-136.6608265C-.112970015 71.8682021 7.43517072 67.3233224 7.43517072 67.3233224L121.070925 1.64117726c6.995915-3.69264883 13.806697 0 13.806697 0 0 0 100.386572 58.35083964 111.511482 64.62241374 10.903814 5.1843183 9.558162 15.890671 9.558162 15.890671 0 0 .067703 115.857917 0 127.127483zM210.577087 78.1927103c-23.267528-13.3922041-78.07962-45.1513135-78.07962-45.1513135 0 0-5.347701-2.8901756-10.840336 0L32.4388464 84.4441702c0 0-5.926375 3.5581974-5.8364534 8.2915207.0899216 4.733324 0 106.9523651 0 106.9523651 0 0 .0751114 3.534907 3.3355691 5.803642 3.2594005 2.268735 92.5527969 53.890653 92.5527969 53.890653 0 0 3.675156 2.35237 9.172022 0 5.548704-3.079678 90.886599-52.232772 90.886599-52.232772 0 0 4.945699-2.117345 5.002825-11.607283.015869-2.736668.022216-13.359385.023274-26.706066l-100.472262 60.881066v-23.29079c0-9.566163 7.405325-15.880084 7.405325-15.880084l88.869176-53.55082c3.353554-3.502087 4.045423-9.111992 4.18824-11.233571-.003173-9.72814-.007406-18.226101-.010579-23.60945l-100.452162 60.868362v-24.349462c0-9.566163 6.347421-13.76274 6.347421-13.76274l77.126449-46.7160307z" fill="#409eff"/></svg>