<svg width="256px" height="214px" viewBox="0 0 256 214" xmlns="http://www.w3.org/2000/svg" preserveAspectRatio="xMidYMid"><title>eleventy</title><path d="M98.3289303 4.64128464c2.1429287 0 3.8457077 1.21266687 4.7634847 3.18267271.643253 1.38073861.924813 3.13450985.938165 5.33712135l5e-4.1660386V170.876023c-.012832 2.920061-.318249 5.201542-.986588 6.920638-.927298 2.38519-2.696592 3.925031-5.1111513 3.964884h-.0943998l-18.1856559-.022099c-2.4581599 0-4.2272997-1.574207-5.1356845-4.001613-.6385212-1.706271-.9299444-3.973736-.9418099-6.884499l-3.784e-4-131.7080763-4.8965483 1.2404315-1.9540932.4899046-.5709269.1390843-.2894182.0669103-.1365613.0282831-.0496615.008404-.025846.003127-.0215049 4.86e-4-.0059864-.0011421-.0032754-.0019509-9.139e-4-.0026737.0010978-.0033106.0027598-.0038616.0318455-.0298884c.0112945-.011945.0167353-.0235152-.0020746-.0306002l-.011511-.0031498-.056337.002735c-2.0632965.0773416-3.7802361-1.0264713-4.7193926-2.9167481-.6710818-1.3507124-.9585941-3.0762736-.9719047-5.2606403l-4.862e-4-.1606518V21.2836053c0-2.0458809.3299881-3.7639292 1.0758554-5.1645986.851004-1.5981064 2.2133479-2.6951959 3.9273002-3.140296l.1032578-.0259224.1185681-.0274736 31.4459307-8.09358548c.4474239-.11122409.9412715-.17108431 1.4779575-.18714473l.1474283-.00329985h.1379591zM150.841751 0c2.253729 0 4.048048 1.26266924 5.034098 3.34433095.712615 1.50440861 1.029261 3.44145087 1.043286 5.87794588l4.89e-4.17079923V55.6954157l4.42e-4.1105068h13.525587c2.124803 0 3.870696 1.0954462 4.897089 2.9638571l.04833.0895549.047235.0907157c.74281 1.4526065 1.070215 3.3073548 1.084714 5.622547l5.05e-4.1622729v6.4314944c0 2.355684-.328605 4.2396843-1.098556 5.7111466-1.003329 1.9174729-2.750251 3.0499932-4.879242 3.0843862l-.100075 8.067e-4-13.548131-2.211e-4v60.7126441l.001103.482752.003306.476285.005507.46981.007707.463329.004678.229233.014094.56598h0l.017522.555825.020944.545658h0l.024363.535477.010701.211338.02304.417779.025222.411245.027401.404705.029579.398158.015605.196622.032841.388326.017234.191701h0l.017778.19006.037182.375192c.012756.123969.025872.246841.03935.368615l.020487.18184.042596.358737c.091725.746429.197751 1.449244.317987 2.108168l.040605.218016.029648.153734.057757.288003c.019499.09487.039242.188609.059224.281213l.030152.138057.06136.271007.06274.26419.031877.129536.064746.253945c.084329.323046.171884.629023.262329.917831l.078225.243343c.381434 1.155809.810838 2.016431 1.264379 2.574634.842117 1.036452 1.582911 1.662476 2.153615 1.911578l.172206.071335c.67411.26853 1.607654.421236 2.807493.431801l.134412 5.88e-4h8.442718c2.018721 0 3.765115.803251 4.910702 2.382143.951502 1.311397 1.369052 2.976318 1.38754 4.97055l6.44e-4.139666v7.138738c0 2.206969-.428454 4.02687-1.427339 5.443558-1.159905 1.645057-2.936133 2.505096-5.000121 2.534259l-.108895 7.67e-4-12.117189.022107c-3.358195 0-6.288644-.235378-8.839594-.716689-2.727499-.514623-5.501384-1.646821-8.350676-3.381172-2.966515-1.805705-5.398604-4.282952-7.291431-7.403558-1.839062-3.031968-3.276668-7.123153-4.360794-12.284537-1.055409-5.024665-1.594419-10.879029-1.612692-17.54558l-4.81e-4-.351621V79.9624829l-5.591643 2.211e-4c-2.107392 0-3.850034-1.0688207-4.883087-2.907739l-.048655-.0881484-.047574-.0893055c-.752046-1.4372423-1.083034-3.2680578-1.098556-5.5475611v-.1635855-6.4314944c0-2.3909802.325133-4.2984319 1.085218-5.7848199.995929-1.9475942 2.745538-3.1080555 4.891761-3.143301l.100893-8.267e-4h5.59098l6.63e-4-.1821001 2.147143-46.37385623.012274-.20778916c.151422-2.39671106.540238-4.28386812 1.249833-5.73357672C134.990167 1.29826124 136.677462.0385816996 138.829468 0h.099652 11.912631zm100.030735 55.7617198c1.999496 0 3.552711 1.1834017 4.355134 3.0100567.544331 1.2391278.77238 2.7902278.77238 4.7254177 0 .070986 0 .1432592-.001948.2168531l-.002429.1113856-.007752.2288149-.005316.1174798-.013493.2412303-.00817.1238008-.01917.254099c-.016839.2067848-.037277.4220474-.061249.6462521l-.018641.1698375-.033996.2906326-.037632.3002697-.04124.3101086-.032833.2364454-21.207268 110.4134314-.049202.271463-.105959.57524-.106474.569783-.160676.844438-.107762.556135-.162612.823966-.109055.542486-.109574.537026-.110092.531565-.110611.526104-.111132.520643-.167674.770724-.112435.506988-.112958.501526-.113481.496063-.114004.4906-.114529.485137-.115055.479673-.11558.474209-.116106.468745-.116634.46328-.117161.457815-.11769.452349-.118218.446884-.118749.441418-.119279.435952-.11981.430485-.120342.425018-.120874.41955-.121407.414083-.121941.408615-.122475.403147-.123011.397678-.123546.39221-.124082.38674-.124619.38127-.125157.3758-.062781.185849-.125964.367595-.063185.181746h0l-.063319.180379-.158889.444961h0l-.159735.436413-.06413.172171-.128668.340238-.129211.334765c-.057547.147569-.115255.293516-.173125.437841l-.15159.373454-.157766.379815c-.277052.659861-.559172 1.294445-.846711 1.903771l-.123564.259594-.165794.341314-.166998.335818c-1.843666 3.663766-3.908621 6.330026-6.281555 8.003765-2.956567 2.104223-6.730071 3.180081-11.290967 3.308719l-.204745.005128h-1.260722c-7.150099 0-12.37325-1.962122-15.382405-6.109371l-.090509-.126343-.078042-.111575-.039399-.049281c-.857609-1.088219-1.281116-2.586462-1.448521-4.68108l-.010783-.140527-.018236-.268662-.008155-.136709h0l-.007526-.138307-.013201-.281451-.005696-.143164h0l-.005105-.144803-.010243-.369245h0l-.006764-.379712-.001766-.154851-.001973-.314844 9.6e-5-.346101 9.71e-4-.19141.003895-.377515.00293-.186113h0l.003589-.184355.009163-.363452.005581-.179106h0l.00625-.177364.014519-.34952.017229-.342603.019961-.335717c.007112-.110762.014682-.220382.022715-.328865l.012398-.161874.026886-.318647.029695-.311877c.139977-1.38826.36591-2.571841.686713-3.564092.832896-2.576166 2.490983-4.305872 4.99274-4.346214l.089707-7.21e-4.098207.001532.080557.003673.083614.006157.087858.008929.1176.015493.128407.020828.171619.03282.160348.034529.141292.032723.278907.069091.375122.099089.505241.139871.5336.152102.707664.205319 1.693337.497824.481295.145871.430379.127677.409654.118745.388224.109783.366094.100793.259622.069678.246482.064593.307687.078192.283094.069101.195758.045843.181232.0407.16641.035546.19831.039356.130671.023472.114859.018278.067642.009292.060395.006975.053061.004654.023752.001455.041893.001165c.025211 0 .043521-.003862.08026-.019889.08783-.038314.205933-.118348.353702-.256849.462041-.433063.980014-1.220986 1.498128-2.367633.658387-1.457085 1.141227-3.339377 1.432672-5.638282l.024512-.198069.039833-.344291.03706-.350278.017487-.177383h0l.01679-.178876.031482-.362235c.098263-1.193051.151608-2.481645.158284-3.864833l7.16e-4-.297844-.002143-.09517-.003806-.073722-.009268-.125924-.018986-.19638-.026539-.228716-.034067-.260818-.01985-.142373-.045315-.30853-.052784-.340046-.076447-.469019-.088031-.517437-.09957-.565398-.111062-.612901-.148377-.79754-.164776-.864495-.212857-1.092144-.270297-1.356824-.260018-1.280888-.323858-1.569235-.342867-1.635898-23.364348-97.1082365-.040538-.2908772-.037236-.2766788-.034313-.2668616-.03138-.2573447-.035086-.3087551h0l-.030469-.2949404-.010891-.1142394-.019551-.2222793-.016571-.2142634-.007164-.1042196-.01208-.2028025-.009074-.1955372-.003407-.095138-.004548-.1852021-.001519-.0901393h0v-.2510717c.012433-1.7231553.215525-3.1133018.685894-4.2413168.732815-1.757399 2.187266-2.9405952 4.106751-2.977141l.091755-8.713e-4h14.410084c1.928856 0 3.639664.7050603 4.960899 2.0663319 1.215237 1.2520623 1.94074 3.1418461 2.413109 5.7763119l.026469.1499167.044143.2618537 12.676896 67.0966207 9.899639-66.629398.016904-.1272602c.359126-2.6683584.968028-4.6516652 1.97796-6.0200692l.061079-.0813669.060845-.0783719c1.222616-1.548646 2.936052-2.4057319 4.885754-2.43667h.10658 9.989813zM38.4563585 4.84019684c2.142929 0 3.8457079 1.21266687 4.7634851 3.18267271.6432521 1.38073861.9248126 3.13450985.9381646 5.33712135l5e-4.1660386V170.88768c0 3.009978-.3040296 5.352221-.9865881 7.107893-.9272984 2.38519-2.6965916 3.925033-5.1075344 3.964886h-.0942571-18.2115168c-2.4581599 0-4.2272998-1.574207-5.1356845-4.001613-.6385212-1.70627-.9299444-3.973736-.9418099-6.884498L13.680739 39.3660502l-3.5122862.8882649-2.77177572.6926858-.65651436.1584437-.28935732.0665233-.21994747.0457813-.12574385.0200872-.10302399.0109402-.12179205.0099873c-2.14703987.153813-3.94029135-.9588943-4.907907156-2.9064522-.671081811-1.3507125-.9585940749-3.0762736-.971904703223-5.2606404L0 32.9310196V21.5046188c0-2.0458809.329988055-3.7639291 1.07585536-5.1645986.85100402-1.5981063 2.21334794-2.6951958 3.92730021-3.1402959l.10325779-.0259224.11901011-.0276947L36.6930135 5.03064142c.4474239-.11122409.9412715-.17108431 1.4779575-.18714473l.1474284-.00329985h.1379591z"/></svg>