<svg width="512px" height="197px" viewBox="0 0 512 197" xmlns="http://www.w3.org/2000/svg" preserveAspectRatio="xMidYMid"><title>elo</title><path d="M79.8167916 43.3441044c5.7516544-1.9215039 11.9003842-2.954003 18.3031596-2.954003 27.9181658 0 51.2273668 19.8300666 56.5664548 46.1878144l39.575349-8.0726605C185.179108 33.7109223 145.593949 0 98.1199512 0c-10.878522 0-21.3289874 1.77290785-31.1056123 5.03947477L79.8167916 43.3441044z" fill="#fc0"/><path d="M33.111385 171.603675l26.7628266-30.257761C47.9275105 130.76223 40.3900497 115.31605 40.3900497 98.1070424c0-17.1960991 7.5271854-32.6350495 19.4660896-43.2058251L33.0908858 24.6388608C12.8023494 42.6139298 7.3378154e-14 68.8695947 7.3378154e-14 98.1070424 7.3378154e-14 127.362562 12.8074613 153.625818 33.111385 171.603675z" fill="#00a0de"/><path d="M154.676079 109.68987c-5.362324 26.345355-28.645707 46.136644-56.5561278 46.136644-6.4048408 0-12.571643-1.032706-18.3207156-2.964382l-12.8205251 38.320094c9.7792067 3.263867 20.2503263 5.031859 31.1412407 5.031859 47.4280428 0 87.0085538-33.654847 96.1263128-78.407665l-39.570185-8.11655z" fill="#ec3413"/><path d="M228.869272 142.621822c-1.296046-2.100523-3.058874-5.459399-4.119463-7.931696-6.266975-14.549791-6.566459-29.60664-1.273326-44.061422 5.818264-15.8515163 16.934824-27.9873574 31.297179-34.1670684 18.057376-7.7706458 38.028355-6.2385752 55.334437 4.030134 10.993669 6.3072501 18.787499 16.045665 24.705419 29.8136975l.549295 1.3383543h0l1.024427 2.6602499c.164741.4288956.327231.8463346.488591 1.2459917l-108.006559 47.071759zm36.065698-62.8024487c-12.823107 5.511034-19.43294 17.5394738-18.074932 31.6431357l54.319288-23.3778755c-9.340823-10.9781781-21.497835-14.6164003-36.244356-8.2652602zm64.014329 64.9034887-20.99594-14.037569-.030465.030981-1.124617-.758522c-3.241146 5.260086-8.298823 9.520514-14.680428 12.287649-12.141521 5.280224-23.393882 3.922216-31.474288-3.164211l-.743032 1.12978c-.007745-.012908-.010327-.022719-.023235-.022719l-13.780942 20.61642c3.420322 2.377289 7.094172 4.391065 10.952361 6.000021 15.223631 6.323257 30.798382 6.031001 46.141807-.64286 11.099005-4.80931 19.807296-12.144103 25.758779-21.43897zm45.678122-118.6236521V140.718545l17.818821 7.222228-10.125163 23.626757-19.670979-8.190905c-4.414817-1.911022-7.41999-4.837194-9.695041-8.13927-2.174878-3.366621-3.801906-7.985913-3.801906-14.206416V26.0992099h25.474268zm46.164527 85.4200981c.010327-9.761135 4.319808-18.5133155 11.139797-24.4622167l-18.282506-20.3861271c-12.400214 10.9606221-20.209534 26.9758222-20.22459 44.8199438-.020573 17.849802 7.778421 33.882558 20.165726 44.871063l18.261851-20.406264c-6.786942-5.972138-11.068023-14.698501-11.060278-24.436399zm32.483758 32.532295c-3.600012-.010327-7.066289-.604649-10.29969-1.680729l-8.731011 25.960673c5.966974 2.003449 12.358906 3.095019 19.002302 3.105405 28.94829.02834 53.120832-20.51166 58.721195-47.817431l-26.836923-5.480053c-3.051645 14.800738-16.156164 25.922462-31.855873 25.912135zm.079519-92.3885169c-6.635651-.0076629-13.025001 1.0709982-18.98423 3.056375l8.654591 25.9839083c3.243212-1.0709158 6.709489-1.6626562 10.304337-1.6626562 15.735853.0154906 28.8507 11.2033079 31.830572 26.0453548L512 99.6416431c-5.523943-27.3444982-29.673249-47.9609186-58.644775-47.978557z"/></svg>