<svg width="256px" height="256px" viewBox="0 0 256 256" xmlns="http://www.w3.org/2000/svg" preserveAspectRatio="xMidYMid"><title>Emacs</title><defs><linearGradient x1="25.1405003%" y1="20.1364773%" x2="92.3935234%" y2="101.47711%" id="a"><stop stop-color="#8381c5" offset="0%"/><stop stop-color="#7e55b3" stop-opacity="0.99607843" offset="56.639391%"/><stop stop-color="#a52ecb" stop-opacity="0.99215686" offset="100%"/></linearGradient><linearGradient x1="90.7163375%" y1="79.0920364%" x2="32.7486929%" y2="9.82547129%" id="b"><stop stop-color="#411f5d" offset="0%"/><stop stop-color="#5b2a85" offset="100%"/></linearGradient></defs><path d="M253 128c0 69.035596-55.964402 125-124.999973 125C58.9644562 253 3 197.035596 3 128 3 58.9643989 58.9644562 3 128.000027 3 197.035598 3 253 58.9643989 253 128z" fill="url(#a)"/><path d="M128.000027 1.42108547e-14C57.2994407 1.42108547e-14 0 57.3155355 0 128c0 70.684462 57.2994433 128 128.000027 128C198.700601 256 256 198.684472 256 128 256 57.3155257 198.700603 1.42108547e-14 128.000027 1.42108547e-14zm0 7.0500704499999856c66.751968 0 120.879882 54.14315095 120.879882 120.94993255C248.879909 194.806776 194.751992 248.94993 128.000027 248.94993c-66.7519759 0-120.8799362-54.143165-120.8799362-120.949927 0-66.8067708 54.1279577-120.94993255 120.8799362-120.94993255z" fill="url(#b)"/><path d="M85.2294579 217.572538c0 0 10.5366727.745385 24.0916321-.449252 5.489415-.483795 26.331246-2.530958 41.913361-5.948222 0 0 18.99836-4.06589 29.162271-7.811476 10.634894-3.919177 16.422017-7.245469 19.026866-11.958714-.113596-.965705.802001-4.390283-4.102355-6.447332-12.538579-5.259123-27.080346-4.307862-55.854908-4.917941-31.909861-1.096405-42.5250045-6.437633-48.1796348-10.739458-5.4224216-4.364025-2.6957569-16.437466 20.5380378-27.072333 11.703535-5.663215 57.582701-16.11421 57.582701-16.11421-15.451278-7.6374-44.263047-21.0637-50.185598-23.962999-5.19443-2.5428092-13.507076-6.3715686-15.308963-11.0038558-2.042957-4.4471395 4.824764-8.2779808 8.661013-9.3750204 12.355001-3.5637479 29.796495-5.7787312 45.670285-6.0274028 7.979014-.125003 9.274151-.6383659 9.274151-.6383659 11.009525-1.8262605 18.257161-9.3586803 15.237486-21.2878102-2.710864-12.1765256-17.008197-19.331326-30.594866-16.8544112-12.794542 2.332529-43.63272 11.2901875-43.63272 11.2901875 38.11827-.3299126 44.498245.3062914 47.347634 4.2901289 1.682739 2.3527392-.764634 5.5787114-10.930627 7.2390361-11.06755 1.807577-34.07394 3.9843767-34.07394 3.9843767-22.0704553 1.310725-37.6168586 1.3984519-42.2796105 11.2704737-3.0462053 6.4495103 3.2484671 12.151351 6.0074275 15.7204264 11.6588549 12.965817 28.499328 19.958631 39.33926 25.108189 4.0786 1.937544 16.045679 5.596535 16.045679 5.596535-35.1666557-1.934192-60.534582 8.864236-75.4152134 21.297131-16.8304909 15.567387-9.3851857 34.123232 25.0958418 45.548576 20.3658826 6.748253 30.4660566 9.92196 60.8448346 7.186364 17.89342-.964456 20.714142-.390511 20.892542 1.077727.25116 2.067149-19.874454 7.202021-25.36894 8.786886-13.97806 4.031923-50.6202289 12.17328-50.8036471 12.212766h0z" fill="#fff"/></svg>