<svg width="256px" height="245px" viewBox="0.1 31.4 256 244.5" xmlns="http://www.w3.org/2000/svg" preserveAspectRatio="xMidYMid"><path fill="#fff" d="M57.9 219.3c.2-.5.4-1 .6-1.5l.1-.2c.5-1.2 1-2.5 1.5-3.7.6-1.6 1.2-3.3 1.8-4.9.4-.9.7-1.8 1-2.8.8-2.2 1.9-5.1 3.2-7.9.8-1.7 1.4-2.9 2.1-4 .8-1.3 1.6-2.5 2.5-3.7l.7-1 1.1-.7c.1-.1.3-.2.5-.3.5-.3 1.1-.5 1.5-.7.7-.3 1.6-.6 2.6-.9 1.4-.4 3-.8 4.9-1.2 2.8-.6 5.8-1.2 9.6-1.8 5.7-.9 11.8-1.7 19.1-2.5 12.9-1.4 25.8-2.4 38.2-3 6.6-.3 11.6-.4 16.3-.4 1 0 2 0 3 0 3.1.1 6.7.2 10 .7 1.2.2 2.3.4 3.1.7.3.1.6.2.7.3l1 .4.8.7c.3.3.6.6.9.9 1.1 1.1 2.3 2.4 3.5 3.9 3.8 4.8 7.2 10.6 10.2 17.2 2.9 6.4 4.7 12.1 5.8 17.7l1.5 7.9h-18.4l-1.1-5.3c-1.2-5.6-16.3-20.4-23.8-23.3-.8-.3-4-1.2-13.9-1.2-20.4 0-49.2 3.6-53.3 4.5-4.9 2.3-12.4 11.9-16.7 21.5l-1.8 3.9"/><path fill="#ba8449" d="M182.9 190.1c-.9-1.2-1.9-2.3-3-3.3-.2-.2-.5-.5-.7-.7 0 0-.1 0-.2-.1-.5-.2-1.2-.3-1.9-.4-2.9-.4-6-.5-9.1-.6-6.3-.1-12.6.1-18.9.4-12.6.6-25.3 1.6-37.8 3-6.3.7-12.6 1.5-18.8 2.5-3.1.5-6.2 1-9.2 1.7-1.5.3-3 .7-4.4 1.1-.7.2-1.4.4-2 .7-.3.1-.6.2-.7.4 0 0-.1 0-.1.1-.7 1-1.4 2-2.1 3.1-.7 1.1-1.2 2.3-1.8 3.5-1.1 2.4-2.1 4.9-3 7.4s-1.9 5.1-2.8 7.7c-.5 1.3-1 2.6-1.6 3.9-.2.6-.5 1.2-.8 1.8h8.5c4.6-10.3 13.3-22.1 20.5-25 2-.8 34.2-4.8 55.5-4.8 7.9 0 13.3.6 16.3 1.7 8.7 3.4 26.1 19.5 27.9 28.2h4.9c-1-5.5-3-10.9-5.3-16.1-2.6-6-5.7-11.5-9.4-16.2"/><path fill="#fff" d="M179.1 185.9h0 0 0 0 0z"/><path fill="#ba8449" d="M179.1 185.9h0 0 0 0 0z"/><g style="fill:#fff"><path d="M192.1 228.6l-1-5.4c-.9-4.5-2.4-9.3-4.8-14.6-2.6-5.6-5.4-10.5-8.6-14.4-.6-.8-1.2-1.5-1.8-2.1-2.5-.4-5.4-.4-8-.5-.9 0-1.8 0-2.8 0-4.5 0-9.3.1-15.7.4-12.2.6-24.7 1.6-37.4 3-7.1.8-13 1.6-18.4 2.4-3.5.5-6.3 1.1-8.8 1.6-1.6.4-2.8.7-3.9 1-.2 0-.3.1-.4.1-.2.4-.5.7-.7 1.1-.5.8-.9 1.7-1.6 2.9-1.1 2.3-2 4.7-2.8 6.8-.4.9-.7 1.8-1 2.7-.6 1.7-1.2 3.4-1.9 5.1-.5 1.3-1.1 2.6-1.6 4l-.1.2c-.2.6-.5 1.2-.7 1.7l-1.8 4H56.6l-1.7-.8-.2-.1c-4-2.3-4-5.7-3.9-7.1v-.3l.2-.9.3-1.1c.2-.7.4-1.5.6-2.2.4-1.5.9-2.9 1.4-4.3.9-2.6 2-5.4 3.3-8.4 1.4-3.1 2.7-5.8 4.2-8.3.7-1.3 1.5-2.6 2.5-4.1.9-1.4 1.9-2.8 2.9-4.1.9-1.1 1.7-1.8 2.3-2.2h.1c.6-.5 1.2-.8 1.5-.9.9-.5 1.6-.8 2.1-1 1.2-.5 2.3-.8 3.2-1.1 2-.6 3.9-1 5.3-1.3 2.9-.6 6-1.2 9.9-1.8 5.8-.9 11.9-1.6 19.4-2.4 13-1.3 26-2.3 38.6-2.8 6-.2 10.7-.4 15-.4 1.6 0 3.1 0 4.6 0 3.2.1 6.8.2 10.7.8h.1c.9.2 2.3.4 3.9.9h.1c.4.2 1 .4 1.7.7.5.3.9.5 1.2.7l.5.4.4.3.4.4c.4.4.7.7 1.1 1.1 1.3 1.3 2.5 2.7 3.8 4.4 4 5.2 7.5 11.2 10.7 18.3 1.5 3.3 2.8 6.6 3.8 9.8 1.1 3.5 1.9 6.8 2.5 10l1.2 7.7h-18.2v.1z"/><path d="M64.3 228.6l4.4-9.5c3.7-7.9 12.6-22.4 22.5-26.5l.2-.1c3.3-1.2 36.7-5.1 57.1-5.1 11.4 0 15.7 1.1 17.9 2 10.3 4 28.2 20.9 30.6 30.9l2 8.2H64.3z"/><path d="M185.4 228.6l-1.2-5.1c-1.1-4.7-15.2-18.8-22.5-21.7-.7-.3-3.6-1.1-13.2-1.1-19.6 0-48 3.5-52.6 4.4-3.8 1.9-10.7 10-15.2 19.6l-1.8 3.8H62.3l4.2-9.3c4.9-11 14.6-24.6 24.1-28.4 3.7-1.5 37.5-5.3 58-5.3 8.9 0 14.9.7 18.6 2.1 10.3 4 29.6 21.4 32 33l1.6 8h-15.4z"/><path d="M193.1 228.6l-1.9-1.8c-7.2-6.7-9.2-20.6-7-26.3 1.5-3.8 4.7-5.1 7.1-5.1.7 0 1.3.1 1.9.3 1.3-.1 4.3-2.6 5.2-4 1.4-2.6 4.1-4.2 7.4-4.2 4.9 0 12.9 3.9 15.5 7.6 1.5 2.1 1.9 4.6 1.1 6.8-.1.2-.2.6-.4 1.1-2.7 8.1-6.2 18-9 22.6l-1.9 3.1-18-.1h0z"/><path d="M192.5 228.6l6.2-10.1c3-4.9 5.1-8.9 6.5-12-3.5 2.5-8.4 4-15.7 4.4l-.2-.2-.1.7c-4.3 0-7.8-3.5-8-7.8-.1-2.1.7-4.2 2.1-5.8 1.4-1.6 3.4-2.5 5.5-2.6 7.2-.3 8.1-2 9.4-4.5 1.8-3.4 5.7-5.4 10.8-5.4 1.3 0 2.6.1 3.8.4 6.3 1.4 10.4 6.2 10.7 12.4.3 6.3-3.2 15.5-10.2 27.3l-1.9 3.2h-18.9 0z"/><path d="M218.8 208.9c-8.1 0-16.9-5.3-21.4-10.5-4.1-4.7-4.5-8.9-4.1-11.6.5-3.3 3.2-6.6 8.1-6.6.9 0 1.8.1 2.6.2.8-3.6 2.7-11.1 10.4-11.1.4 0 .7 0 1.1 0 3.7.4 6.5 2.7 7.6 6.2 1.2-.6 2.6-1.1 4.2-1.1 2.4 0 4.7 1 6.4 2.8 2.7 2.9 3.3 6.9 1.6 10.7 1.8 1.1 3.2 2.8 3.8 5 .8 2.8.3 5.8-1.5 8.2-3.5 4.9-11.6 7.2-18 7.4-.4.4-.6.4-.8.4"/><path d="M210.8 44.2c-7.3 4.6-15.3 15.1-25.1 29.5-1.5 2.3-4 3.5-6.8 3.5-3.6 0-8.2-2.2-13.5-6.5-8.4-6.8-8.6-10.6-8.7-12.1-.2-4 2.8-7.4 7-7.8 8.1-.7 14.8-5.6 21.3-10.3 6.5-4.7 12.5-9 19.7-9 1.4 0 2.9.2 4.3.5"/></g><path fill="#fff8ee" d="M164.3 57.5c19.6-1.8 31.1-22.1 43-19-8 5-15.9 15-27 31.4-2.7 3.9-21.4-11.9-16-12.4"/><g style="fill:#fff"><path d="M37.3 48.2c4.9-4.5 11.5-6.8 19.6-6.8 7 0 15.3 1.7 24.6 5.1 2.5.9 5.8 1.1 8.3 1.1.7 0 1.4 0 2 0 .6 0 1.2 0 1.7 0 2.3 0 7.2 0 9.3 4.5.7 1.7 1.6 5.2-1.1 9.3-3.3 5.1-12 10.5-20.4 10.5-.1 0-.3 0-.4 0-4.5-.1-8.7-2.5-13.6-5.2-6.1-3.4-13-7.3-21.2-7.3-1.1 0-2.3.1-3.4.2"/><path d="M188.1 96.7c-3.6 0-10.4-1.5-14.7-11.7-2.4-5.4-3.2-11.5-3.2-14.9 0-7 3.7-8.9 6-9.4 1.6-1.6 4.6-5.7 6.8-8.8 9.1-12.4 15.7-20.5 23.4-20.5 1.3 0 2.5.2 3.7.7 10.3 4.1 15.3 12.8 13.6 23.8-1.2 8.1-6.3 17.7-13.8 26.5-3.5 4.1-12.6 13.7-20.7 14.3-.4 0-.7 0-1.1 0"/><path d="M69.9 100.5c-.9 0-1.8 0-2.6-.2-12.8-2.1-28.8-15-34.8-28.3-4.1-9.1-2.3-15.3 0-18.9 3.7-5.9 9.2-9 16-9 8.2 0 16.4 4.5 23.6 8.4 2.8 1.5 6.8 3.7 8.5 4.1.6-.2 1.2-.3 1.9-.3 2.6 0 5 1.4 6.4 3.8 3.3 5.8 1.3 21.4-3.9 30.4-3.6 6.6-9 10-15.1 10h0z"/><path d="M114.5 212.1c-30 0-59.7-14.7-69.6-25.4-10.3-11.1-14-23.7-11.2-37.5 2.4-11.3 8.7-21.4 14.2-30.4 3.8-6.2 7.4-12 8.4-16.2 12.2-53.9 42.8-60.8 68.1-60.8 1.6 0 3.3 0 5.2.1 53.9 1.6 59.3 27.6 62.5 43.2.6 2.9 1.2 5.6 1.9 7.4 18.1 44.4 21.1 71 10 89-10.9 17.7-34.8 26.4-82.4 30.3-2.3.2-4.7.3-7.1.3h0z"/><path d="M113.4 212.2c-30.6 0-58.9-15.2-68.4-25.5-10.3-11.1-14-23.7-11.2-37.5 2.4-11.3 8.7-21.4 14.2-30.4 3.8-6.2 7.4-12 8.4-16.2 12.2-53.9 42.8-60.8 68.1-60.8 1.6 0 3.3 0 5.2.1 53.9 1.6 59.3 27.6 62.5 43.2.6 2.9 1.2 5.6 1.9 7.4 17.8 43.7 20.7 70.1 9.8 88.1-12.5 20.7-41.9 27.4-82.1 31.2-2.8.3-5.6.4-8.4.4"/><path d="M191.3 174.6c.4-.9.8-1.9 1.2-2.8 4.1-9.8 7.2-18.4 2.3-23.9-5.8-6.4-30.3-18-52.1-28.2-41.7-19.7-67.5-32.4-71.2-45-.9-3.2-.5-6.5 1.2-9.3C79.9 54.1 100 42 127.5 42c.3 0 .5 0 .8 0 25.9.2 44.7 7.7 56 22.1 9.6 12.2 11.7 26.5 13.3 36.9.5 3.5 1.2 8 1.9 9.2 19.6 33.7 10.6 58.6 3.5 70.3l-11.7-5.9z"/><path d="M170.8 135.8c-10.1 0-27-2.5-32.8-8.1-4.6-4.4-6.3-11.7-8.1-18.8-.7-3-1.9-7.8-3-10 0 0-.1 0-.1 0-.4 1.1-.9 2.5-1.3 3.6-2.7 7.6-6.5 18.1-14.4 23.8-3.4 2.5-15.7 4.7-25.2 4.7h0c-9.5 0-16.7-2-21.5-6.1-6.9-5.8-12.1-16.5-15.6-31.8-.2-.1-.3-.2-.5-.3-1.6-1.1-3.7-2.4-4.8-4.7-1.8-3.6-1.1-10 .8-13.4 1.4-2.5 3.8-4.1 6.4-4.3.3 0 .5 0 .9 0 1.4 0 2.8.2 4.4.5s3.5.6 5.1.6c.4 0 .7 0 .9 0 9.5-1.4 18.4-2 26.5-2 19.7 0 30.1 4 34 5.6.3.1.6.2.8.3 1.1.3 3.2.7 5.4.7.8 0 1.6 0 2.3-.2 8.9-1.4 17.4-2 25.2-2 20.8 0 31.8 4.7 36.6 6.8.4.2.8.4 1.1.4 0 0 .2 0 .4 0 1.3 0 3.2-.4 4.8-.7 1.2-.3 2.4-.5 3.5-.7.3 0 .6 0 .9 0 3.1 0 5.9 1.8 7.6 4.8 1.9 3.5 3.2 10.8.5 15-1.8 2.8-4.7 4.1-7.1 5.2-.3.1-.7.3-1 .5-.8 1.4-2.2 4.2-3.4 6.5-3.5 6.8-7.4 14.6-11 18.8-3.2 3.6-9.2 5.3-18.3 5.3"/></g><defs><path id="a" d="M42.5 75H212v59.2H42.5z"/></defs><clipPath id="b"><use overflow="visible" href="#a"/></clipPath><g opacity="0.3" clip-path="url(#b)"><path fill="#fff" d="M-277.2-234.6c-8 0-19.3-1.2-27.4-6.9-4.6-3.3-6.7-9.9-9.6-20.5-.8-3-2-7.2-2.9-9.3h0c-.5 1.2-1.1 2.8-1.6 4.1-3 8.1-7.1 19.1-14.6 23.7-3.9 2.4-16 4.6-25.4 4.6-10.1 0-17.4-2.3-21.6-6.7-10.7-11.2-12.8-21.9-14.1-28.2-.2-.9-.4-2.1-.6-2.8-6.3-3.3-6.7-8.2-6.6-10.3.3-3.9 3.3-6.8 7-6.8 2.5 0 4.1 1.2 5.3 2 .1.1.2.2.4.2.1 0 .4.1.5.2 1.6.5 6.3 1.8 7.3 7.9.2 1.1 1.8 7.5 4.4 14.2 4.1 10.7 7 12.5 7.3 12.6 3.4 1.2 7.4 1.8 11.9 1.8 7.4 0 13.6-1.6 16.1-2.4 1.5-2.3 4.5-8.3 6.6-12.4 6.3-12.5 7.4-14.4 10.1-15.8 1.5-.8 3.3-1.2 5.6-1.2 3 0 7.3.7 9.3 1.6 4.6 2 7 8 12.4 23.5 1 2.8 2.2 6.4 3 8.2 4 1.9 13.1 3.2 22.6 3.2 2.7 0 4.7-.1 6-.2.9-1.9 2.2-4.6 3.3-6.9 7.6-16.2 8.8-18.1 10.7-19.6 3.3-2.5 9.1-4.2 12.4-4.2 4.4 0 6.8 2.9 7.4 5.7 1.1 5.8-4.6 8-6.5 8.7-.5.2-1.2.5-1.7.7-.7 1.2-2 3.8-3 5.9-8.2 16-10.9 20.4-14 22.3-3.8 2.1-13 3.1-20 3.1" transform="translate(443.9775 368.7813)"/></g><defs><path id="c" d="M45 70.7h33.4v16.2H45z"/></defs><clipPath id="d"><use overflow="visible" href="#c"/></clipPath><g opacity="0.3" clip-path="url(#d)"><path fill="#fff" d="M-223.9-353.3c-1.2 0-3.5-.2-8.1-1.7-1.2-.4-2.3-.8-3-1.1-1.5-.6-5.4-2.1-5.4-6.7v-6.7h6.6c.9 0 1.5.2 2 .3 1.4.2 5.9.5 7.4.6l.9.1c1.2 0 4.9-.5 6.5-.7 2-.3 2.6-.4 3.4-.4h5.7l.9 5.6c.4 2.8-1.1 6.3-4.8 7.4-.2.1-.9.3-1.5.5-3.5 1.3-7 2.5-10 2.6-.2.2-.4.2-.6.2" transform="translate(285.2881 440.1162)"/></g><defs><path id="e" d="M181 79.3h25.4v17.2H181z"/></defs><clipPath id="f"><use overflow="visible" href="#e"/></clipPath><g opacity="0.3" clip-path="url(#f)"><path fill="#fff" d="M-290.8-329.2c-2.2 0-4.4-.9-7.4-3-2.9-2-5.1-4-5.1-7.5v-6.7h6.5c.9 0 1.8.2 2.7.6.7.3 3.4 1.2 4.6 1.5.4 0 1.2-.2 2.8-.5.8-.2 1.3-.2 2-.2h5.7l.9 5.6c.4 2.7-.8 6.1-4.5 7.4-.2.1-.8.4-1.2.6-1.8.9-3.9 1.9-6 2.3-.2-.1-.6-.1-1-.1" transform="translate(484.2881 425.6104)"/></g><path fill="#fff" d="M171.7 243.3h-24.6V222h24.6v21.3z"/><g style="fill:#ba8449"><path d="M182.9 190.1c-.9-1.2-1.9-2.3-3-3.3-.2-.2-.5-.5-.7-.7 0 0-.1 0-.2-.1-.5-.2-1.2-.3-1.9-.4-2.9-.4-6-.5-9.1-.6-6.3-.1-12.6.1-18.9.4-12.6.6-25.3 1.6-37.8 3-6.3.7-12.6 1.5-18.8 2.5-3.1.5-6.2 1-9.2 1.7-1.5.3-3 .7-4.4 1.1-.7.2-1.4.4-2 .7-.3.1-.6.2-.7.4 0 0-.1 0-.1.1-.7 1-1.4 2-2.1 3.1-.7 1.1-1.2 2.3-1.8 3.5-1.1 2.4-2.1 4.9-3 7.4s-1.9 5.1-2.8 7.7c-.5 1.3-1 2.6-1.6 3.9-.2.6-.5 1.2-.8 1.8h8.5c4.6-10.3 13.3-22.1 20.5-25 2-.8 34.2-4.8 55.5-4.8 7.9 0 13.3.6 16.3 1.7 8.7 3.4 26.1 19.5 27.9 28.2h4.9c-1-5.5-3-10.9-5.3-16.1-2.6-6-5.7-11.5-9.4-16.2"/><path d="M179.1 185.9h0 0 0 0 0z"/></g><path fill="#895b2e" d="M179.1 185.9h0 0 0 0 0zm17.8 17.9c-2.7-6-5.8-11.7-9.9-16.9-1-1.3-2.1-2.6-3.3-3.8-.3-.3-.6-.6-.9-.9l-.2-.2-.1-.1-.2-.2c-.2-.1-.4-.2-.5-.3-.3-.2-.6-.3-.9-.4-1.1-.4-1.9-.5-2.8-.7-3.4-.5-6.6-.6-9.8-.7-6.5-.1-12.8 0-19.2.3-12.8.5-25.5 1.5-38.2 2.8-6.3.7-12.7 1.4-19.1 2.4-3.2.5-6.3 1-9.5 1.7-1.6.4-3.2.7-4.8 1.2-.8.2-1.6.5-2.5.9-.4.2-.9.4-1.4.7-.2.2-.5.3-.8.5-.3.2-.6.5-1 1h0c-.9 1.1-1.8 2.4-2.6 3.6-.8 1.2-1.6 2.5-2.3 3.8-1.4 2.5-2.7 5.1-3.9 7.7-1.1 2.6-2.2 5.2-3.1 7.9-.5 1.3-.9 2.6-1.2 4-.2.7-.4 1.3-.6 2l-.3 1-.1.5c0 .1.2.2.6.5h.1 5.8c.3-.6.5-1.2.8-1.8.5-1.3 1.1-2.6 1.6-3.8 1-2.6 1.9-5.1 2.8-7.7.9-2.5 1.9-5.1 3-7.4.6-1.2 1.2-2.3 1.8-3.5.7-1.1 1.3-2.1 2.1-3.1 0 0 .1 0 .1-.1.2-.1.5-.2.7-.4.6-.2 1.3-.5 2-.7 1.4-.4 2.9-.8 4.4-1.1 3-.7 6.1-1.2 9.2-1.7 6.2-1 12.5-1.8 18.8-2.5 12.6-1.4 25.2-2.4 37.8-3 6.3-.3 12.6-.5 18.9-.4 3.1.1 6.3.2 9.1.6.7.1 1.4.3 1.9.4.1 0 .2 0 .2.1.2.2.5.5.7.7 1.1 1.1 2 2.2 3 3.3 3.7 4.7 6.8 10.2 9.4 15.8 2.3 5.2 4.3 10.6 5.3 16.1h5c-.5-3.1-1.3-6.1-2.2-9-1.2-3.1-2.4-6.1-3.7-9.1"/><path fill="#fff8ee" d="M164.1 195.7c-2.6-1-7.9-1.6-15.5-1.6-21.4 0-53 4-54.7 4.7-6.5 2.6-14.6 13.6-19.1 23.2h115.9c-1.9-7.5-18-22.9-26.6-26.3"/><path fill="#e5d0ae" d="M164.8 193.8c-2.9-1.1-8.4-1.7-16.3-1.7-21.3 0-53.5 4-55.5 4.8-7.3 3-15.9 14.7-20.5 25h2.2c4.5-9.5 12.6-20.5 19.1-23.2 1.7-.7 33.3-4.7 54.7-4.7 7.6 0 12.9.5 15.5 1.6 8.6 3.3 24.7 18.8 26.6 26.3h2c-1.7-8.6-19.1-24.7-27.8-28.1"/><path fill="#ba8449" d="M204.4 194.7c-1.2 2.5-7.5 8.9-12.8 7.4-2.8-.8-2.3 14 4.1 19.9h11.6c3.2-5.1 8.2-20.7 8.8-22.3.7-1.9-10.5-7.5-11.7-5"/><path fill="#895b2e" d="M216.7 198.4c-.2-3.2-2.1-5.5-5.5-6.3-2.7-.6-6.3-.1-7.2 1.6-1.8 3.4-4 7.5-14.9 8.1-.7 0-1.3.7-1.3 1.4 0 .7.7 1.3 1.4 1.3 11.4-.5 14.7-4.9 17.1-9.4.5-.4 3.2-.9 5.4 0 1.6.7 2.3 1.8 2.4 3.5.3 6.2-6.2 17.7-9.7 23.5h3.1c3.9-6.8 9.5-17.3 9.2-23.7"/><defs><path id="g" d="M193.5 196.5H217v27.3h-23.5z"/></defs><clipPath id="h"><use overflow="visible" href="#g"/></clipPath><g opacity="0.15" clip-path="url(#h)"><path fill="#e3ab5e" d="M-291.1-13.7c7.1-1.7 13.4-8.8 13.9-18.9.1-1.9-3.8-5.5-3.8-6.5s11.9.2 12.5 3c.5 2.8-7.4 19.7-10.1 22.5-2.6 2.7-16.7.9-12.5-.1" transform="translate(485.335 236)"/></g><path fill="#fcd4c3" d="M199.8 187.8c-.9 6.2 11.2 14.7 19.4 14.5 6.8-.2 14.5-3.4 13.4-7.2-1.1-3.9-7.7.7-8.3-2-.5-2.6 7.7-7.5 4.4-11.1-3.1-3.3-6.7 5.2-10.3 4-3.6-1.2.7-9.5-3.8-10-5.3-.5-3.3 11.3-7.3 11.5-2.8.3-7.2-1.7-7.5.3"/><path fill="none" stroke="#f8a38f" stroke-width="2" stroke-miterlimit="10" d="M199.8 187.8c-.9 6.2 11.2 14.7 19.4 14.5 6.8-.2 14.5-3.4 13.4-7.2-1.1-3.9-7.7.7-8.3-2-.5-2.6 7.7-7.5 4.4-11.1-3.1-3.3-6.7 5.2-10.3 4-3.6-1.2.7-9.5-3.8-10-5.3-.5-3.3 11.3-7.3 11.5-2.8.3-7.2-1.7-7.5.3z"/><defs><path id="i" d="M203.2 182.8h7.8v6.4h-7.8z"/></defs><clipPath id="j"><use overflow="visible" href="#i"/></clipPath><g opacity="0.5" clip-path="url(#j)"><path fill="#fcd4c3" d="M-295.7-100.3c1.3 1 6 2.3 6.7.6.8-1.7 1.4-5.1.9-5.6-.4 1.6-.9 4.6-2.6 5.3-1.3.5-4.1-.1-5-.3" transform="translate(498.9385 288.042)"/></g><defs><path id="k" d="M215.9 181.2h7.7v7.2h-7.7z"/></defs><clipPath id="l"><use overflow="visible" href="#k"/></clipPath><g opacity="0.5" clip-path="url(#l)"><path fill="#fcd4c3" d="M-302.3-116.9c-.2 1.1-1.1 6.3 1.6 7 2.3.6 4-.8 5.8-3.7-1 .9-3.5 3.1-5.4 2.3-1.9-.9-2.1-2.9-2-5.6" transform="translate(518.459 298.042)"/></g><defs><path id="m" d="M204.5 193h15.8v8.6h-15.8z"/></defs><clipPath id="n"><use overflow="visible" href="#m"/></clipPath><g opacity="0.25" clip-path="url(#n)"><path fill="#fcd4c3" d="M-296.3-81.8c13.6-6.7 16.4 4.2 15.7 6.4-5.4.9-14.9-4.7-15.7-6.4" transform="translate(500.876 276.958)"/></g><defs><path id="o" d="M223 190.9h5.7v5H223z"/></defs><clipPath id="p"><use overflow="visible" href="#o"/></clipPath><g opacity="0.5" clip-path="url(#p)"><path fill="#fcd4c3" d="M-306.4-92.5c-2.3 2.6-1.2 4.7.3 5 1.9.4 4.4-1.6 4-1.6-.5 0-4.2 1.2-4.9-.6-.5-1.4.3-2.2.6-2.8" transform="translate(530.751 283.3955)"/></g><defs><path id="q" d="M66.1 182.6H195v36.5H66.1z"/></defs><clipPath id="r"><use overflow="visible" href="#q"/></clipPath><g opacity="0.15" clip-path="url(#r)"><path fill="#e3ab5e" d="M-227.8-48.9c43.7 25.1 130.4-.4 125.8-8.6-6.1-10.9-8.5-17.7-21.9-17.1-13.3.7-98.9 7.5-102.4 10.1-3.4 2.7-7.2 12.3-1.5 15.6" transform="translate(296.834 257.166)"/></g><path fill="#fff8ee" d="M164.3 57.5c19.6-1.8 31.1-22.1 43-19-8 5-15.9 15-27 31.4-2.7 3.9-21.4-11.9-16-12.4"/><path fill="none" stroke="#e5d0ae" stroke-width="3" stroke-linecap="round" stroke-linejoin="round" stroke-miterlimit="10" d="M164.3 57.5c19.6-1.8 31.1-22.1 43-19-8 5-15.9 15-27 31.4-2.7 3.9-21.4-11.9-16-12.4z"/><path fill="#ba8449" d="M41.8 53.1c8.8-8.2 24.7-5 37.5-.4 7.3 2.6 16.8.5 17.4 2 1.6 3.5-7.9 10.7-15.7 10.5-7.7-.1-20.6-14.6-39.2-12.1"/><path fill="none" stroke="#895b2e" stroke-width="2" stroke-linecap="round" stroke-linejoin="round" stroke-miterlimit="10" d="M41.8 53.1c8.8-8.2 24.7-5 37.5-.4 7.3 2.6 16.8.5 17.4 2 1.6 3.5-7.9 10.7-15.7 10.5-7.7-.1-20.6-14.6-39.2-12.1z"/><path fill="#fcd4c3" d="M177.7 67.2c4.5 1.3 21.6-32.2 29.9-28.9 26.4 10.5-8 50.9-18.9 51.8-11 .8-13.5-23.7-11-22.9"/><path fill="none" stroke="#f8a38f" stroke-width="2" stroke-miterlimit="10" d="M177.7 67.2c4.5 1.3 21.6-32.2 29.9-28.9 26.4 10.5-8 50.9-18.9 51.8-11 .8-13.5-23.7-11-22.9z"/><path fill="#fcd4c3" d="M82.3 63.2c-7.3 3.2-33.2-23.9-44.1-6.5C31 68.2 52.8 91.4 68.4 93.9 84 96.4 86.1 61.5 82.3 63.2"/><path fill="none" stroke="#f8a38f" stroke-width="2" stroke-miterlimit="10" d="M82.3 63.2c-7.3 3.2-33.2-23.9-44.1-6.5C31 68.2 52.8 91.4 68.4 93.9 84 96.4 86.1 61.5 82.3 63.2z"/><defs><path id="s" d="M180.5 44.8h18v44.6h-18z"/></defs><clipPath id="t"><use overflow="visible" href="#s"/></clipPath><g clip-path="url(#t)"><path fill="#fcd4c3" d="M-293.1-458.7c-1.4 4.6-13.2 16.5-11.6 26.7.6 3.8 4.6 15 6.3 14.6s6-3.1 5.6-2.5c-.4.6-6 4.7-8.1 5.8-2.1-1.1-11-21.8-9.7-22.9 3.9-3.5 15.8-21.5 17.5-21.7" transform="translate(491.167 503.5005)"/></g><defs><path id="u" d="M38.6 51.5h44.2v31.6H38.6z"/></defs><clipPath id="v"><use overflow="visible" href="#u"/></clipPath><g clip-path="url(#v)"><path fill="#fcd4c3" d="M-212.3-427.1c8-4.9 22.6-2.8 31.1 5.5 3 3 3.9 13-2.9 19.8-2.7 2.7 16-9.6 16.1-13.2 0-3.6-1.2-4.6-4-5.6-10.3-3.8-21.1-12.6-30.5-12.4-6.1.1-8.9 4.3-9.8 5.9" transform="translate(250.833 484.5005)"/></g><defs><path id="w" d="M181.1 42.2h26.2v44.2h-26.2z"/></defs><clipPath id="x"><use overflow="visible" href="#w"/></clipPath><g opacity="0.25" clip-path="url(#x)"><path fill="#fcd4c3" d="M-294.7-465.2c18.2 10-11.1 25.2-8.9 44.1-3.8-.4-13.2-18.7-10.9-20.3 3.2-2.2 16.7-24.6 19.8-23.8" transform="translate(496 507.375)"/></g><path fill="#e5d0ae" d="M60.9 103.6c.3-1.3.5-2.7.5-4 .1-1.4.2-2.8.5-4.1.1-.7.3-1.4.6-2 .3-.6.5-1.3.7-1.9.5-1.3 1-2.6 1.6-3.8 2.3-5.1 4.9-9.9 8.1-14.4 3.2-4.5 6.7-8.7 10.7-12.3 4-3.7 8.7-6.7 13.7-8.7 5-2.1 10.4-3.4 15.8-4 5.4-.7 10.8-.8 16.2-.7 5.4.1 10.8.4 16.2 1.1 5.4.7 10.8 1.9 16 3.8 2.6 1 5.1 2.1 7.5 3.5 2.4 1.4 4.7 3.1 6.8 5.1 2.1 1.9 3.9 4.2 5.4 6.6 1.5 2.4 2.6 5 3.6 7.7.9 2.6 1.6 5.3 2.2 8s1 5.3 1.6 7.8c.3 1.2.7 2.4 1.1 3.6.5 1.2 1 2.5 1.4 3.8.9 2.5 1.9 5.1 2.8 7.6 3.5 10.2 6.6 20.6 8.5 31.2.9 5.3 1.6 10.7 1.7 16.1.1 5.4-.4 10.8-1.9 16-.4 1.3-.8 2.6-1.3 3.8-.5 1.2-1.2 2.4-1.6 3.7-.2.7-.4 1.3-.7 1.9-.3.6-.7 1.2-1.1 1.8-.7 1.1-1.6 2.3-2.5 3.3-3.5 4.2-8 7.6-12.8 10.2s-10 4.6-15.2 6.1c-5.3 1.5-10.5 2.7-15.9 3.7s-10.7 1.7-16 2.4c-2.7.3-5.4.6-8.1.9l-4 .4c-1.3.1-2.7.2-4.1.3-11 .6-22-1-32.5-3.9-5.3-1.5-10.4-3.3-15.4-5.5-5-2.2-9.9-4.7-14.5-7.7-2.3-1.5-4.6-3.2-6.7-5.1-.5-.5-1.1-1-1.6-1.5-.5-.5-.9-1.1-1.4-1.6-.9-1.1-1.8-2.2-2.6-3.3-3.1-4.6-5.6-10-6.4-15.6-.9-5.7-.1-11.5 1.5-16.8 1.6-5.4 4.1-10.3 6.7-15.1 2.7-4.7 5.6-9.3 8.4-13.8 1.4-2.3 2.7-4.6 3.9-6.9 1.1-3 2.1-5.3 2.6-7.7h0zm4 .9c-.7 2.8-1.9 5.4-3.2 7.9s-2.7 4.8-4.1 7.1c-2.8 4.6-5.7 9.1-8.2 13.7s-4.8 9.4-6.2 14.3c-1.4 4.9-2 10-1.2 15 .8 4.9 2.9 9.6 5.9 13.7.7 1 1.6 2 2.4 3 .4.5.9 1 1.3 1.4.4.5.9.9 1.3 1.3 1.8 1.7 3.9 3.2 6.1 4.7 4.4 2.8 9 5.3 13.9 7.4 4.8 2.1 9.8 3.9 14.9 5.3 5.1 1.4 10.2 2.5 15.4 3.2 5.2.7 10.4.9 15.6.7 1.3-.1 2.6-.2 3.9-.3l4-.4c2.6-.2 5.3-.5 8-.8 5.3-.5 10.6-1.2 15.8-2.1 5.3-.9 10.4-1.9 15.5-3.3s10.1-3 14.9-5.1c4.7-2.2 9.3-4.9 13-8.6.9-.9 1.8-1.9 2.6-2.9.4-.5.8-1.1 1.2-1.6.4-.5.9-1 1.3-1.6.9-1.1 1.3-2.3 1.9-3.5.5-1.2.9-2.5 1.2-3.8 1.3-5.2 1.6-10.6 1.3-15.9-.4-5.3-1.3-10.6-2.6-15.8-2.5-10.4-6.2-20.4-10.1-30.3-1-2.5-2-5-3-7.4l-1.6-3.7c-.5-1.3-1-2.7-1.4-4-.7-2.7-1.2-5.3-1.8-7.9-.5-2.6-1.2-5.1-2-7.5-1.7-4.9-4.2-9.3-7.9-12.8-3.6-3.5-8.1-6.2-12.9-8.2-4.8-2-10-3.3-15.2-4.2-5.2-.9-10.5-1.4-15.8-1.7-5.3-.2-10.7-.3-16 .3-5.3.6-10.5 1.7-15.4 3.8-4.9 2-9.4 4.9-13.2 8.5-3.9 3.6-7 8-9.3 12.6-2.4 4.7-4.1 9.7-5.6 14.7-.4 1.2-.7 2.5-1 3.8-.2.6-.3 1.3-.5 1.9-.1.3-.1.7-.2 1-.1.3-.2.6-.4.9-.5 1.2-1.1 2.4-1.7 3.6-.2 1.1-.6 2.3-.9 3.6h0z"/><path fill="#fff8ee" d="M62.9 104.1c-4.2 18.6-40.9 48-13 78.1 9.5 10.2 40.3 25.9 71.2 23 80.4-7.6 100.7-27 66.8-110.2-5.5-13.5.7-44.7-58.4-46.5-24.8-.7-54.6 2.7-66.6 55.6"/><path fill="#e5bfa1" d="M76.8 67.7c2.6-4 6-7.3 9.8-10 3.8-2.7 8.1-4.7 12.4-6.3 8.8-3.2 18-4.4 27.2-4.7 9.2-.2 18.5.5 27.5 2.8 4.5 1.2 8.9 2.8 13.1 5.1s8.1 5.1 11.4 8.6c3.3 3.5 6 7.4 8.1 11.7 2.1 4.3 3.6 8.8 4.7 13.3 1.1 4.6 1.8 9.1 2.4 13.6.3 2.3.6 4.5 1.1 6.6.2 1.1.5 2.1.8 2.9.1.2.2.4.3.6l.1.1.1.1.2.4.9 1.5c4.4 8.1 7.7 17 8.9 26.3.6 4.6.7 9.3.2 14-.5 4.6-1.7 9.2-3.5 13.5-.9 2.1-1.9 4.2-3.1 6.3-.3.5-.6 1-.9 1.5-.3.5-.6.9-1 1.5-.1.1-.1.2-.2.3-.3-.2.4.7-1.6 0-.5-.9-.2-.7-.3-.9 0-.3.1-.4.1-.6l.3-.9.5-1.6c1.4-4.3 2.6-8.6 3.1-13.1.2-2.2.3-4.4 0-6.7-.3-2.2-.9-4.3-2-6.1-.3-.5-.6-.9-1-1.3-.4-.4-.7-.8-1.1-1.2-.8-.8-1.6-1.5-2.5-2.2-1.8-1.4-3.7-2.5-5.7-3.5-4.1-1.8-8.6-2.5-13-2.3-4.5.2-8.9 1.1-13.2 2.3-2.2.6-4.3 1.3-6.5 2-1.1.4-2.2.7-3.3 1-.6.2-1.1.3-1.8.4-.6.1-1.1.2-1.7.2-4.6.5-9.1.8-13.8.7-4.6-.1-9.2-.6-13.8-1.6-4.5-1-9-2.5-13.2-4.4-4.2-2-8.2-4.4-11.8-7.4-3.6-3-6.8-6.4-9.6-10.1-5.6-7.5-9.3-16.2-11.1-25.3-.9-4.6-1.3-9.2-1.1-13.9.1-2.3.4-4.7.9-7 .6-1.8 1.4-4.1 2.7-6.2h0zm2 1.3c-1.1 1.8-1.8 3.8-2.3 6-.5 2.1-.7 4.3-.9 6.5-.2 4.4.3 8.9 1.2 13.2 1.9 8.7 5.6 17 11 24 2.7 3.5 5.8 6.7 9.2 9.5 3.4 2.8 7.2 5.2 11.2 7.1 4 1.9 8.2 3.3 12.6 4.3 4.3 1 8.8 1.6 13.2 1.7 4.5.2 8.9 0 13.4-.5l1.7-.2c.5-.1 1-.2 1.6-.3 1.1-.3 2.1-.6 3.2-.9 2.2-.6 4.4-1.3 6.6-1.8 4.4-1.1 9-1.9 13.7-1.9 4.6 0 9.3.8 13.5 2.8 2.1 1 4.1 2.2 5.9 3.6.9.7 1.8 1.5 2.6 2.3.4.4.8.8 1.2 1.2.4.4.8.9 1.1 1.4 1.3 2 2 4.3 2.3 6.7s.3 4.7.1 7c-.4 4.6-1.4 9.1-2.7 13.5l-.5 1.6-.2.8c0 .1-.1.3 0 .3-.1-.1.2.2-.2-.7-1.9-.7-1.2.2-1.4-.1 0 0 0 0 0 0 .2-.4.5-.9.8-1.4.3-.5.5-1 .8-1.5 1-2 1.9-4 2.7-6.1 3-8.3 3.6-17.4 2.1-26.1-.7-4.4-2-8.6-3.6-12.7-1.6-4.1-3.5-8.1-5.7-12l-.8-1.4-.2-.4-.1-.2-.1-.2c-.2-.3-.3-.6-.4-.9-.5-1.2-.8-2.5-1.1-3.6-.5-2.3-.9-4.6-1.2-6.8-.7-4.5-1.3-8.9-2.4-13.2-1-4.3-2.4-8.5-4.3-12.4-1.9-3.9-4.2-7.5-7.2-10.7-5.8-6.3-13.8-10.5-22.3-13-8.5-2.5-17.5-3.3-26.5-3.3-8.9 0-17.9 1.1-26.3 3.9-4.2 1.4-8.2 3.3-11.9 5.8-3.8 2.4-7 5.4-9.4 9.1 0 0 0 0 0 0z"/><path fill="#895b2e" d="M75.6 67.2c1.5-2.4 3.3-4.3 5.1-6.1 1.9-1.8 3.9-3.3 6-4.7 4.2-2.8 8.7-5 13.4-6.7 9.4-3.3 19.3-4.6 29.1-4.4 9.7.3 19.5 1.5 28.9 4.9 4.7 1.7 9.2 3.9 13.3 6.9 4.1 2.9 7.7 6.5 10.7 10.6 2.9 4.1 5.1 8.6 6.8 13.3 1.6 4.7 2.7 9.5 3.5 14.2.4 2.4.7 4.7 1.1 7.1.4 2.3.7 4.7 1.1 6.8.2 1.1.5 2.1.9 2.9l.1.2.1.2.2.4.4.8.9 1.6c1.1 2.1 2.2 4.3 3.2 6.5 1.9 4.4 3.5 9.1 4.6 13.9 1.1 4.7 1.6 9.6 1.6 14.5-.1 9.8-2.8 19.5-7.9 27.8h0c-.4.6-1.2.9-1.8.5-.6-.4-.8-1.1-.6-1.6v0c1.4-3.6 2.9-7 4-10.5 1.2-3.5 2-7.1 2-10.6 0-3.5-.9-6.9-3-9.6-.1-.2-.3-.4-.4-.5l-.2-.2-.2-.3c-.3-.3-.6-.6-.9-.9-.6-.6-1.3-1.2-2-1.7-1.4-1.1-3-2.1-4.5-3.1-6.3-3.9-13-7.3-19.8-10.7-6.8-3.3-13.7-6.5-20.5-9.6-13.8-6.3-27.6-12.6-41.2-19.4-6.8-3.5-13.5-7-20.1-11.2-3.5-2.5-6.7-4.7-9.8-7.5-1.5-1.4-3-3-4.2-5.2-.6-1.1-1.1-2.4-1.2-4 0-.8 0-1.6.2-2.4.1-.4.2-.8.4-1.2.1-.3.4-.9.5-1h.2zm5.6 3.4c-.2.3-.1.2-.2.3 0 .1 0 .1-.1.2 0 .1 0 .2 0 .4 0 .3.2.8.4 1.4.6 1.2 1.7 2.5 2.9 3.6 2.5 2.4 5.4 4.6 8.5 6.6 6.1 4.1 12.7 7.7 19.4 11.3 13.3 7 27 13.5 40.6 20.1 6.8 3.3 13.6 6.7 20.4 10.1 6.8 3.5 13.5 7 20 11.3 1.6 1.1 3.2 2.2 4.7 3.5.8.6 1.5 1.3 2.3 2 .4.4.7.7 1.1 1.2l.2.3.3.3c.2.2.3.4.5.6 1.2 1.7 2.1 3.6 2.7 5.6s.7 4.1.7 6.1c-.1 4-1.2 7.9-2.5 11.6-1.3 3.7-2.9 7.1-4.4 10.6l-2.4-1.2h0c4.7-8 6.9-17.2 6.8-26.4-.2-9.2-2.6-18.3-6.5-26.7-1-2.1-2-4.2-3.2-6.2l-1.8-3.2c-.7-1.3-1-2.6-1.3-3.8-.6-2.5-1-4.8-1.4-7.2s-.8-4.7-1.2-6.9c-.9-4.6-2-9-3.6-13.3-1.6-4.2-3.7-8.3-6.3-11.8-2.6-3.6-5.9-6.7-9.5-9.2-3.7-2.5-7.7-4.5-12-5.9-8.6-2.9-17.8-3.9-27-4-4.6 0-9.1.2-13.6 1-4.5.7-8.9 1.8-13.1 3.3s-8.3 3.4-12 5.8c-1.9 1.2-3.6 2.5-5.2 4s-3.1 3-4.2 4.6h0z"/><path fill="#ba8449" d="M77.8 68.3c-11 17 2.1 82.3 71.2 73.5 7.3-.9 31.6-13.9 48 4.3 8.9 10-3.1 35.3 0 30 3.5-5.8 16.9-28.2-3.2-62.7-6.4-11.1 4.2-64.4-65-65.1-26.5-.1-43.7 8.7-51 20"/><defs><path id="y" d="M61.7 64.6H179v111.9H61.7z"/></defs><clipPath id="z"><use overflow="visible" href="#y"/></clipPath><g opacity="0.15" clip-path="url(#z)"><path fill="#e3ab5e" d="M-231.2-389.4c19.9-12.8 80.1-11.9 99.3 18.8 12.8 20.4-10.6 70.8-19.3 77.2-8.6 6.4-20.6 12-52.2 4.4-26.8-6.4 13.5-31.3-17.9-34.9-28.7-3.3-31.6-51.5-9.9-65.5" transform="translate(307.168 461.833)"/></g><defs><path id="A" d="M118.5 119.2h13.1v5.5h-13.1z"/></defs><clipPath id="B"><use overflow="visible" href="#A"/></clipPath><g opacity="0.25" clip-path="url(#B)"><path fill="#e3ab5e" d="M-259.4-265.2c0 1.5-2.9 2.8-6.5 2.8-3.6 0-6.5-1.2-6.5-2.8 0-1.5 2.9-2.8 6.5-2.8 3.6.1 6.5 1.3 6.5 2.8" transform="translate(391 387.166)"/></g><path fill="#f8a38f" d="M120.1 113.8c1.5-1 9.5-.7 10.5.4 1 1 3.2 5.2.7 7-.9.6-.9-1.9-2.9-1.5-2.4.5-1.1 3.6-3 3.6-2.9-.1-.1-3.4-2.6-3.8-1.9-.4-2.3 1.5-3.2 1.3-2.9-.6-1.6-5.6.5-7"/><defs><path id="C" d="M117.9 113.2h14.5v9.9h-14.5z"/></defs><clipPath id="D"><use overflow="visible" href="#C"/></clipPath><g clip-path="url(#D)"><path fill="#f8a38f" d="M-255.8-287.2c-1.9 0-3.7.2-4.3.6-2.1 1.4-3.4 6.4-.6 6.9 0 0 .1 0 .1 0 .7 0 1.1-1.4 2.6-1.4.2 0 .3 0 .5 0 2.5.4-.2 3.8 2.6 3.8h0c1.8 0 .5-3 3-3.5.2 0 .3 0 .4 0 1.4 0 1.6 1.6 2.2 1.6.1 0 .2 0 .3-.1 2.6-1.8.4-6-.7-7-.5-.5-3.4-.9-6.1-.9m0 .7h0c3 0 5.3.4 5.7.7.6.6 1.8 2.8 1.6 4.4-.1.6-.3 1.1-.7 1.4 0-.1-.1-.1-.2-.2-.4-.5-1-1.3-2.1-1.3-.2 0-.4 0-.5.1-1.7.4-2 1.7-2.3 2.6-.2.9-.3.9-.6.9h0c-.8 0-.8-.2-.8-1.1 0-.9 0-2.3-1.8-2.6-.2 0-.4 0-.6 0-1.1 0-1.8.7-2.3 1.1-.1.1-.3.3-.4.3-.4-.1-.8-.3-1-1.1-.3-1.4.7-3.8 1.8-4.6.6-.4 2-.6 4.2-.6" transform="translate(380.2207 400.4053)"/></g><defs><path id="E" d="M74.1 124.9H187V189H74.1z"/></defs><clipPath id="F"><use overflow="visible" href="#E"/></clipPath><g opacity="0.25" clip-path="url(#F)"><path fill="#f7e8d0" d="M-287.3-219.9c3 19.2-21 43.3-53.3 48.3-32.3 4.9-56.1-23.9-59.1-43.2-3-19.2 16.8-11.9 49.1-16.8 32.3-4.9 60.3-7.5 63.3 11.7" transform="translate(474.0986 359.9502)"/></g><defs><path id="G" d="M80 125.9h93.6v47.5H80z"/></defs><clipPath id="H"><use overflow="visible" href="#G"/></clipPath><g opacity="0.5" clip-path="url(#H)"><path fill="#d8cab2" d="M-244.7-146.7c-.9-1.4-1.4-3.1-1.9-4.7-.5-1.6-1-3.2-1.5-4.8-1-3.2-2.1-6.4-3.6-9.4-1.5-3-3.4-5.8-5.8-7.9-2.4-2.1-5.3-3.5-8.4-4.1h0 0c-1.1-.4-1.6-1.5-1.2-2.5.4-1 1.4-1.5 2.3-1.3 7.2 1.7 14.7 2.5 22.1 2.6s15-.3 22.5-1.2c7.5-.9 14.9-2.2 22.2-3.9 7.3-1.7 14.6-3.7 21.7-6.1 1.1-.4 2.2.2 2.5 1.2.3.8 0 1.6-.6 2.1h0 0c-.2.2-.6.5-.9.8-.3.3-.6.7-.9 1-.6.7-1.2 1.5-1.8 2.3-1.2 1.6-2.3 3.2-3.3 4.9-2.2 3.3-4.2 6.7-6.1 10.2-1.9 3.5-3.8 7-5.5 10.5-.9 1.8-1.7 3.6-2.4 5.4-.4.9-.7 1.8-1.1 2.8-.2.5-.3.9-.4 1.4 0 0 0 .1 0 .2 0 .1 0 .1-.1.2 0 .1-.1.2-.2.2-.1.1-.2.2-.4.3-.2.2-.5.3-.7.4-1.9.8-3.9 1.2-5.8 1.6-1.9.4-3.9.7-5.9.9-4 .5-7.9.9-11.9 1-4 .2-8 .2-11.9-.2-2-.2-4-.5-5.9-1-1-.3-1.9-.6-2.8-1.1-.9-.4-1.7-1-2.3-1.8m.1-.1c.5.8 1.4 1.4 2.3 1.8.9.4 1.8.7 2.8 1 1.9.5 3.9.8 5.9.9 4 .3 7.9.3 11.9.1 4-.2 7.9-.7 11.8-1.2 1.9-.3 3.9-.6 5.8-1.1s3.9-.9 5.6-1.7c.2-.1.4-.2.6-.4.2-.1.3-.2.3-.3.1-.5.2-1 .4-1.5.3-1 .6-1.9.9-2.9.7-1.9 1.4-3.7 2.2-5.6 1.6-3.7 3.2-7.3 4.9-10.9 1.7-3.6 3.5-7.2 5.4-10.7.9-1.8 1.9-3.5 3-5.3.5-.9 1.1-1.8 1.7-2.6.3-.4.6-.9.9-1.3.4-.4.7-.9 1.2-1.3h0l1.9 3.4c-7.3 2.5-14.6 4.5-22.1 6.2-7.5 1.7-15 3.1-22.6 4-7.6.9-15.3 1.4-23 1.2s-15.4-1.1-23-2.9l1.1-4h0c3.3 2 6.3 3.9 8.6 6.6 2.3 2.7 3.9 5.8 5.2 9 1.2 3.2 2.2 6.5 3 9.7.4 1.6.9 3.3 1.3 4.9.6 1.9 1.1 3.5 2 4.9" transform="translate(347.2148 315.9766)"/></g><defs><path id="I" d="M81 126.9h91.6v46.5H81z"/></defs><clipPath id="J"><use overflow="visible" href="#I"/></clipPath><g opacity="0.5" clip-path="url(#J)"><path fill="#d8cab2" d="M-244.7-146.7c-.9-1.4-1.4-3-1.9-4.6-.5-1.6-.9-3.2-1.4-4.8-1-3.2-2-6.4-3.5-9.5-1.4-3-3.3-5.8-5.6-8-2.4-2.3-5.3-3.9-8.4-4.6h0v-.1c-.5-.2-.8-.8-.6-1.3.2-.5.7-.8 1.2-.7 7.3 1.7 14.8 2.5 22.4 2.6s15.1-.3 22.6-1.2c7.5-.9 14.9-2.3 22.3-3.9 7.4-1.7 14.7-3.7 21.8-6.1.5-.2 1.1.1 1.3.6.1.4 0 .8-.3 1.1h0 0c-.6.5-1.3 1.3-1.9 2-.6.7-1.2 1.6-1.8 2.3-1.1 1.6-2.2 3.3-3.2 5-2.1 3.3-4.1 6.8-6 10.3-1.9 3.5-3.7 7-5.3 10.6-.8 1.8-1.6 3.6-2.4 5.4-.4.9-.7 1.8-1 2.8-.2.5-.3.9-.4 1.4-.1.4-.4.5-.6.7-.2.2-.5.3-.7.4-1.9.8-3.9 1.2-5.8 1.6-1.9.4-3.9.7-5.9 1-3.9.5-7.9.9-11.9 1.1-4 .2-8 .2-11.9-.2-2-.2-4-.5-5.9-1-1-.3-1.9-.6-2.8-1-1-.5-1.9-1.1-2.4-1.9m0-.1c.5.8 1.4 1.4 2.3 1.9.9.4 1.8.7 2.8 1 1.9.5 3.9.8 5.9.9 4 .4 7.9.3 11.9.1 4-.2 7.9-.6 11.9-1.2 1.9-.3 3.9-.6 5.9-1.1 1.9-.4 3.9-.9 5.6-1.7.2-.1.4-.2.6-.4.2-.1.4-.3.4-.4.1-.5.2-1 .4-1.5.3-1 .6-1.9 1-2.8.7-1.9 1.5-3.7 2.3-5.5 1.6-3.7 3.3-7.2 5.1-10.8 1.8-3.6 3.6-7.1 5.6-10.6 1-1.8 2-3.5 3.1-5.1.5-.9 1.1-1.7 1.7-2.5.6-.8 1.2-1.6 2.1-2.4h0l1 1.8c-7.2 2.5-14.6 4.5-22 6.2s-14.9 3-22.5 4c-7.6.9-15.2 1.4-22.9 1.2-7.6-.2-15.3-1-22.8-2.7l.5-1.9h0c3.3 1.3 6.3 3.3 8.6 5.9 2.3 2.6 4 5.6 5.3 8.7 1.3 3.1 2.3 6.3 3.2 9.6.4 1.6.9 3.2 1.4 4.9.2 1.4.7 3 1.6 4.4" transform="translate(347.2324 315.9883)"/></g><path fill="#333" d="M102.6 169.2c5.1 8 46.8 2.5 47.5-.7 1.8-8.1 16.8-36.7 21.6-40.7-8.6 3-53.3 17.3-89.6 8.6 16.3 5.5 16.5 26.6 20.5 32.8"/><defs><path id="K" d="M82 127.9h89.6v45.4H82z"/></defs><clipPath id="L"><use overflow="visible" href="#K"/></clipPath><g clip-path="url(#L)"><path fill="#333" d="M-279.7-250.3c-6.7 2.3-34.9 11.4-64.1 11.4-8.6 0-17.2-.8-25.5-2.7 16.4 5.3 16.6 26.5 20.6 32.7 1.9 3 9.2 4.1 17.5 4.1 13.4 0 29.5-2.8 30-4.8 1.8-8.2 16.7-36.8 21.5-40.7m-5.6 3.9c-6.5 9.8-15.9 28.7-17.8 35.8-2.5 1.4-15.4 3.8-28.1 3.8-10.2 0-14.8-1.7-15.8-3.2-1-1.5-1.8-4.3-2.6-7.5-1.7-6.1-4.1-14.5-9.8-20.3 5 .6 10.2.9 15.7.9 23.8-.1 47.1-6.1 58.4-9.5" transform="translate(451.25 378.25)"/></g><path fill="#fcd4c3" d="M119.7 173.4c-8.6 0-14.2-1.2-16.4-3.6-.2-.2-.2-1.4.8-3.7 2.4-5.5 9.8-14.9 22.6-15.7.9 0 1.7-.1 2.5-.1 15 0 24 7.6 24 8.9-.2.4-.4 1-.7 1.8-.8 1.9-2 4.9-3.1 8.1-1.3 1.3-16.3 4.3-29.7 4.3"/><path fill="#f8a38f" d="M129.2 149.8c-.9 0-1.7 0-2.6.1-17.5 1.1-25.6 18.4-23.8 20.5 2.6 2.8 9.3 3.8 16.9 3.8 13.5 0 29.8-3.1 30.3-4.6 1.5-4.5 3.2-8.2 3.9-10 .6-1.8-9.5-9.9-24.7-9.8m0 1.3c13.4 0 22.4 6.4 23.3 8.3-.2.4-.4.9-.6 1.5-.8 1.9-2 4.7-3.1 7.9-2.1 1.2-16.1 3.9-29.1 3.9-8.1 0-13.7-1.2-15.8-3.3-.1-.7.6-3.5 3.1-7 2.2-3.2 8.6-10.7 19.7-11.3.8 0 1.7 0 2.5 0h0"/><defs><path id="M" d="M103.1 149.4h50.2v20.7h-50.2z"/></defs><clipPath id="N"><use overflow="visible" href="#M"/></clipPath><g clip-path="url(#N)"><path fill="#fcd4c3" d="M-245-146.6c-1.2 5.4 31.9-21.1 49.7-8.4 3.7-4.9-16-13.2-27.5-11.3-9.7 1.7-19.7 7.9-22.2 19.7" transform="translate(348.084 315.917)"/></g><path fill="#fff7e3" d="M109.8 140.8c1.7 3 4.8 17.6 6.1 17.9s9.5 2.6 10.6 2.1c1.2-.5 1.1-3.3 2.3-2.5 1 .7 1.5 2 2.5 1.5 1.8-.9 7.1-4.2 8-5.6.8-1.5.7-9.8 0-16.4-3.4 1.6-23.5 3.7-29.5 3"/><defs><path id="O" d="M109.8 137.9h30.1v23.2h-30.1z"/></defs><clipPath id="P"><use overflow="visible" href="#O"/></clipPath><g clip-path="url(#P)"><path fill="#ffdc99" d="M-263.4-225.4c-3 1.3-18.7 3.1-26.6 3.1-1.2 0-2.1 0-2.9-.1 1.7 3 4.8 17.6 6.1 17.9 1.2.3 8 2.2 10.1 2.2.2 0 .4 0 .5-.1 1-.4 1.1-2.6 1.9-2.6.1 0 .3 0 .4.2.9.5 1.3 1.6 2.1 1.6.1 0 .3 0 .4-.1 1.8-.9 7.1-4.2 8-5.6.9-1.5.7-9.8 0-16.5m-.5.9c.6 6.8.6 14 0 15.2-.7 1.2-5.5 4.3-7.7 5.4 0 0-.1 0-.1 0-.2 0-.5-.3-.7-.6-.3-.3-.6-.6-1-.9-.3-.2-.5-.3-.8-.3-.9 0-1.2.9-1.5 1.6-.2.4-.4 1-.7 1.1 0 0-.1 0-.3 0-1.7 0-6.8-1.4-8.9-1.9-.4-.1-.7-.2-.9-.2-.6-.7-1.9-5.4-2.9-8.8-.9-3.1-1.7-6-2.4-7.7.5 0 1.2 0 1.9 0 7.5 0 21.5-1.6 26-2.9" transform="translate(402.75 363.25)"/></g><defs><path id="Q" d="M109.9 137.5h29.7v10.3h-29.7z"/></defs><clipPath id="R"><use overflow="visible" href="#Q"/></clipPath><g clip-path="url(#R)"><path fill="#eadcbe" d="M-249.6-200.4c-.5-5.4 24.4-7.2 27.5-6.7 0-1.3-.2-2.1-.2-3.6-4.1 2.1-26.5 4.3-29.5 3.4.3.6 1.4 3.6 2.2 6.9" transform="translate(361.751 348.25)"/></g><defs><path id="S" d="M124 143.8h5.5v14.7H124z"/></defs><clipPath id="T"><use overflow="visible" href="#S"/></clipPath><g clip-path="url(#T)"><path fill="#ffdc99" d="M-255.9-210.6c.5 1.2 1 2.3 1.4 3.5.4 1.2.8 2.4 1.2 3.6l1.1 3.6 1.1 3.6-1.7.5-.8-3.7-.9-3.7c-.3-1.2-.6-2.4-.9-3.6-.4-1.2-.7-2.4-1.1-3.5l.6-.3z" transform="translate(380.458 354.3682)"/></g><defs><path id="U" d="M39.1 51.5h39.4v35.7H39.1z"/></defs><clipPath id="V"><use overflow="visible" href="#U"/></clipPath><g opacity="0.4" clip-path="url(#V)"><path fill="#fcd4c3" d="M-213.2-422.8c13.2 3.4 11.1 26.2 18.9 28 7.9 1.8 18.2-18.8 19.2-23.3-15.2-6.5-22.3-14.1-33.2-11.9-3.6.7-8.6 6.2-4.9 7.2" transform="translate(253.584 481.9165)"/></g><defs><path id="W" d="M59.9 88.7h133.7v42.5H59.9z"/></defs><clipPath id="X"><use overflow="visible" href="#W"/></clipPath><g opacity="0.5" clip-path="url(#X)"><path fill="#e3ab5e" d="M-231.7-255.5c16.6 1.3 30.3 2 35.2-3.1s6.7-27.7 14.7-27.1c6.8.5 9.1 29.9 13.5 30.7 4.4.9 35.5 9.4 43.3 1.4 7.7-8 11.3-13 9.5-17.8-1.8-4.8-47.3-20.3-56.6-21.2-9.3-.9-72.1 7-73.7 10.9-1.6 4-3.3 3.4-3 7.6.6 8.1.5 17.3 17.1 18.6" transform="translate(308.667 381.333)"/></g><path fill="#333" d="M123.5 92.4c1.2 0 5.9-.4 7 .5 6 4.7 5.8 24 12.1 30 5.6 5.4 36.2 9.3 41.5 3.2 5.3-6.1 13.1-24.7 14.9-26.1 1.8-1.3 5.8-2.3 7-4.2 1.2-1.8.2-10-2.6-9.6-2.8.4-8.1 2.1-11.4 1.2-3.3-1-19.4-11.1-59.9-5-3.9.6-7.8 0-10.5-.7-2.7-.7-17.9-9.5-58.6-3.7-4 .6-9.6-1.2-11.6-1-2 .2-2.6 6.5-1.8 8.1s5 3 5.5 5 4.2 21.6 13.8 29.7c10.2 8.6 36.2 2.6 38.5 1 10.3-7.3 12.6-28.4 16.1-28.4"/><defs><path id="Y" d="M49.1 76.1h157.3v53.1H49.1z"/></defs><clipPath id="Z"><use overflow="visible" href="#Y"/></clipPath><g clip-path="url(#Z)"><path fill="#1a1a1a" d="M-237.6-380.1c-7.1 0-15.6.5-25.6 2-.6.1-1.2.1-1.8.1-3.5 0-7.6-1.1-9.5-1.1-.1 0-.2 0-.3 0-2 .2-2.6 6.5-1.8 8.1.8 1.7 5 3 5.5 5 .5 2 4.2 21.6 13.8 29.7 4 3.4 10.6 4.5 17.2 4.5 10 0 19.9-2.5 21.3-3.5 10.4-7.4 12.8-28.5 16.3-28.5.5 0 1.8-.1 3-.1 1.6 0 3.3.1 3.9.5 6 4.7 5.8 24 12.1 30 3.6 3.4 17.4 6.3 28.2 6.3 6.1 0 11.3-.9 13.2-3.1 5.3-6.1 13.1-24.7 14.9-26.1 1.8-1.4 5.8-2.3 7-4.2 1.1-1.8.2-9.6-2.5-9.6 0 0-.1 0-.2 0-2.2.3-6 1.4-9.1 1.4-.8 0-1.6-.1-2.3-.3-2.6-.8-12.7-6.9-35.7-6.9-6.9 0-14.9.5-24.2 1.9-1.1.2-2.3.2-3.3.2-2.7 0-5.2-.4-7.1-.9-2-.2-11.2-5.4-33-5.4m0 2c18.1 0 27.4 3.6 30.8 5 .7.3 1.2.5 1.7.6 1.8.4 4.5 1 7.6 1 1.2 0 2.5-.1 3.6-.3 8.5-1.3 16.5-1.9 23.9-1.9 19 0 28.9 4.2 33.2 6.1.9.4 1.5.6 2 .8.9.3 1.8.4 2.9.4 2.2 0 4.6-.5 6.6-.9.9-.2 1.8-.4 2.5-.5.9 1 1.5 5.4 1 6.6-.4.6-2.1 1.4-3.3 1.9-1.2.5-2.3 1-3.1 1.6-1.1.8-2.2 2.9-5.4 9.3-3.1 6.1-6.9 13.7-9.8 17-1 1.2-4.6 2.4-11.8 2.4-10.5 0-23.9-2.8-26.9-5.7-2.8-2.6-4.2-8.7-5.6-14.6-1.6-6.6-3.1-12.8-6.6-15.6-.9-.7-2.3-1-5.1-1-.8 0-1.6 0-2.2 0-.4 0-.7 0-.9 0-2.8 0-4 3.3-6.1 9.3-2.3 6.6-5.6 15.5-11.3 19.6-1.3.8-10.7 3.2-20.2 3.2-7.3 0-12.8-1.4-15.9-4-3.8-3.2-9.1-10.7-12.9-27.8-.1-.4-.2-.7-.2-.9-.5-1.9-2.3-3-3.8-4-.6-.4-1.6-1.1-1.8-1.4-.4-.9 0-4.2.6-5.3.7 0 1.7.2 2.8.4 1.9.3 4.3.7 6.5.7.7 0 1.5 0 2.1-.2 8.9-1.1 17.4-1.8 25.1-1.8" transform="translate(326.0381 456.2231)"/></g><defs><path id="a0" d="M64.4 83.4h50.5v34.2H64.4z"/></defs><clipPath id="aa"><use overflow="visible" href="#a0"/></clipPath><g opacity="0.5" clip-path="url(#aa)"><path fill="none" stroke="#333" stroke-width="4" stroke-miterlimit="10" d="M-226.3-344.3c-.9 1.2-1.5 18.9 6 23.7 4.9 3.2 25.7 2.5 29.9.2 6.5-3.7 12.9-20.5 11.1-22.9-3-4-24.6-9.3-40.8-5.1-2 .4-5.1 2.6-6.2 4.1z" transform="translate(292.5 434.75)"/></g><path fill="#fff" d="M66.2 90.4c-.9 1.2-1.5 18.9 6 23.7 4.9 3.2 25.7 2.5 29.9.2 6.5-3.7 12.9-20.5 11.1-22.9-3-4-24.6-9.3-40.8-5.1-2 .5-5.1 2.6-6.2 4.1"/><defs><path id="ab" d="M139.8 88.1h50.1v35h-50.1z"/></defs><clipPath id="ac"><use overflow="visible" href="#ab"/></clipPath><g opacity="0.5" clip-path="url(#ac)"><path fill="none" stroke="#333" stroke-width="4" stroke-miterlimit="10" d="M-288.2-324.9c.8 1.3-1 18.9-9 22.8-5.3 2.5-25.8-.9-29.6-3.7-6-4.5-10.2-22-8.1-24.2 3.5-3.6 25.6-6 41.1.2 1.9.7 4.7 3.3 5.6 4.9z" transform="translate(476.5938 423.063)"/></g><path fill="#fff" d="M188.4 98.2c.8 1.3-1 18.9-9 22.8-5.3 2.5-25.8-.9-29.6-3.7-6-4.5-10.2-22-8.1-24.2 3.5-3.6 25.6-6 41.1.2 1.9.7 4.6 3.2 5.6 4.9"/><path d="M89.9 101.2c-.5 3.9-2.5 6.8-4.4 6.5-1.9-.3-2.9-3.6-2.4-7.5s2.5-6.8 4.4-6.5c1.9.3 2.9 3.6 2.4 7.5"/><path d="M169.6 105.6c.4 3.9-.8 7.2-2.6 7.4-1.9.2-3.7-2.8-4.1-6.7-.4-3.9.8-7.2 2.6-7.4 1.8-.1 3.6 2.9 4.1 6.7"/><defs><path id="ad" d="M49.1 81.6h156.3v46H49.1z"/></defs><clipPath id="ae"><use overflow="visible" href="#ad"/></clipPath><g opacity="0.3" clip-path="url(#ae)"><path fill="#333" d="M-218.9-363.5c2.3 1.5 4.4.6 4.9 3.6.5 3 7.4 29 16 32 14.1 4.9 31.9.1 34.3-1.4 2.4-1.5 13.7-26.8 15.6-27.8 1.9-1 7.9.1 9.2.7 3.9 1.7 11.1 29.1 13 30.5 8.7 6.1 36.6 5.6 37.9 4 1.4-1.7 11.8-25.6 13.7-27 2.7-2.1 9-3.5 9.2-2.6.2.9-5.1 1.8-6.7 3.7-1.6 2-12.1 24.9-15.4 26.9-3.3 2-27.7 5.3-40.1-3.4-5.9-4.2-8.2-29.1-12.9-30.5-3-.9-5.3-.8-7.5-.2-2.9 1.9-7 23.1-15.7 28.4-3.5 2.1-30.6 7.4-38.7-1.1-15.1-15.8-10.5-29.9-15.4-31.9-3.3-1.4-4-3.2-4-4.4.3-1.3 1.4-.3 2.6.5" transform="translate(270.375 446.25)"/></g><defs><path id="af" d="M51.6 77.2h20.2v3H51.6z"/></defs><clipPath id="ag"><use overflow="visible" href="#af"/></clipPath><g opacity="0.3" clip-path="url(#ag)"><path fill="#333" d="M-219-376.8c-1.6-.6 6.8 2.9 9.9 2.7 3.1-.2 8.3-2.4 10-2.9 1.5-.5-7.8 1.2-10.1 1.1s-8.9-.6-9.8-.9" transform="translate(270.75 454.25)"/></g><defs><path id="ah" d="M116.6 82.1h21.7v5.3h-21.7z"/></defs><clipPath id="ai"><use overflow="visible" href="#ah"/></clipPath><g opacity="0.3" clip-path="url(#ai)"><path fill="#333" d="M-251.9-365.1c2.9 1.3 4.2 4.6 7 4.9s6.2.8 7.8-.1c1.6-.9 5.6-3 6.7-3.2 1.2-.2-8.7 1.3-12.4 1-3.7-.4-8-2.5-9.1-2.6" transform="translate(368.5 447.25)"/></g><defs><path id="aj" d="M187.4 86h12.3v3.9h-12.3z"/></defs><clipPath id="ak"><use overflow="visible" href="#aj"/></clipPath><g opacity="0.3" clip-path="url(#ak)"><path fill="#333" d="M-287.8-355.4c-1.2-.5 4.4 4 6.1 3.8 1.7-.2 4.7-2.1 6-2.6 1-.4-4 1-5.5.7-1.5-.1-5.4-1.4-6.6-1.9" transform="translate(475.375 441.375)"/></g><defs><path id="al" d="M62.3 82.8h28.9v28.6H62.3z"/></defs><clipPath id="am"><use overflow="visible" href="#al"/></clipPath><g opacity="0.3" clip-path="url(#am)"><path fill="#333" d="M-224.7-350.8c7.4-7.3 25-4.8 28.2-4.2-21.1 1.5-21.5 3.1-25.2 6.8-.5 2.9-1.2 12.5 2.1 20.9-3.7-2-7.6-21-5.1-23.5" transform="translate(287.75 438.625)"/></g><defs><path id="an" d="M165.1 87.8h27.8v30.5h-27.8z"/></defs><clipPath id="ao"><use overflow="visible" href="#an"/></clipPath><g opacity="0.3" clip-path="url(#ao)"><path fill="#333" d="M-290.2-331.1c-6.4-8.2-24.1-8.1-27.4-7.8 20.7 4.3 20.9 5.9 24.1 10.1.2 2.9-.4 12.5-4.7 20.4 3.8-1.6 10.1-20 8-22.7" transform="translate(482.6602 426.7979)"/></g><defs><path id="ap" d="M65.8 84.8h47.8v27.5H65.8z"/></defs><clipPath id="aq"><use overflow="visible" href="#ap"/></clipPath><g clip-path="url(#aq)"><path fill="#d0dddc" d="M-226.4-313.8c.7-8.6 1.5-15.6 18.6-16.1 13.7-.4 24.6 2.8 26.1 6.1 1 2.1.2 11.3-6.6 19.7 4.4-3.9 11.4-19.4 8.4-21.3-11.1-7.1-33.2-7.3-41.4-4.4-1.5.5-3.9 2.2-5.5 4-.3 2.2-.3 10.8.4 12" transform="translate(292.8125 416.375)"/></g><defs><path id="ar" d="M66.8 103H102v13.9H66.8z"/></defs><clipPath id="as"><use overflow="visible" href="#ar"/></clipPath><g clip-path="url(#as)"><path fill="#d0dddc" d="M-226.7-312.3c2.6 16.8 33.3 11.7 35.1 11-.1.9-16.1 5.4-29.5.2-5.4-2-5.8-13.1-5.6-11.2" transform="translate(293.584 415.5)"/></g><defs><path id="at" d="M141.2 89.5h47.7V115h-47.7z"/></defs><clipPath id="au"><use overflow="visible" href="#at"/></clipPath><g clip-path="url(#au)"><path fill="#d0dddc" d="M-287.5-295c.4-8.7.4-15.6-16.4-18.2-13.5-2.1-24.7-.3-26.7 2.8-1.2 1.9-1.6 11.2 4.2 20.4-3.9-4.5-9-20.6-5.7-22.2 11.9-5.7 33.9-3.2 41.6.7 1.4.7 3.7 2.6 5 4.7-.1 2.1-1.1 10.7-2 11.8" transform="translate(474.457 405.0869)"/></g><defs><path id="av" d="M150.2 110.4h36.3v11.7h-36.3z"/></defs><clipPath id="aw"><use overflow="visible" href="#av"/></clipPath><g clip-path="url(#aw)"><path fill="#d0dddc" d="M-287.2-293.7c-4.6 16.3-34.5 7.5-36.2 6.6 0 .9 15.3 7.3 29.3 3.9 5.6-1.4 7.5-12.4 6.9-10.5" transform="translate(473.583 404.3135)"/></g><defs><path id="ax" d="M87.3 95.2h2v2h-2z"/></defs><clipPath id="ay"><use overflow="visible" href="#ax"/></clipPath><g opacity="0.25" clip-path="url(#ay)"><path fill="#fff" d="M-238-329.8c0-.5-.4-1-1-1s-1 .4-1 1 .4 1 1 1 1-.4 1-1" transform="translate(327.375 426)"/></g><defs><path id="az" d="M166.3 99.9h2v2h-2z"/></defs><clipPath id="aA"><use overflow="visible" href="#az"/></clipPath><g opacity="0.25" clip-path="url(#aA)"><path fill="#fff" d="M-278-318.1c0-.5-.4-1-1-1-.5 0-1 .4-1 1s.4 1 1 1c.5 0 1-.5 1-1" transform="translate(446.375 419)"/></g><defs><path id="aB" d="M52 79.1h64.8v9.5H52z"/></defs><clipPath id="aC"><use overflow="visible" href="#aB"/></clipPath><g opacity="0.1" clip-path="url(#aC)"><path fill="#d0dddc" d="M-219.1-366.2c2.4 2.7 3.9 3 7.1 2.6 31.1-4 48.3-3.9 56.8 4 1.8 1.7.8-5.1-2.6-6-26.2-6.9-45.2-.7-49.2-.2-4.1.6-7-.3-12.1-.4" transform="translate(271.125 447.875)"/></g><defs><path id="aD" d="M137.7 82.3h47.9v9.2h-47.9z"/></defs><clipPath id="aE"><use overflow="visible" href="#aD"/></clipPath><g opacity="0.1" clip-path="url(#aE)"><path fill="#d0dddc" d="M-262.6-356.2c-.7.7-.4 7.9 3 5.2 9.8-7.8 30.3-6 44.6-1.2-2.3-4.5-19-7.6-28.4-7.5-4.5.2-17.3 1.5-19.2 3.5" transform="translate(400.625 441.875)"/></g><g style="fill:#d0dddc"><path d="M197.2 91.4c0 .3-1.6.5-3.5.5-1.9 0-3.5-.2-3.5-.5 0-.3 1.6-.5 3.5-.5 2 0 3.5.3 3.5.5"/><path d="M62.4 82.8c0 .3-1.6.3-3.5 0-1.9-.3-3.4-.8-3.3-1.1s1.6-.3 3.5 0c1.9.2 3.4.7 3.3 1.1"/></g><path fill="#fff" d="M-322.4 38.2c-.6-6.1-5.1-8.8-9.2-8.8-1.9 0-3.4.5-4 .8l-.8.4-.7.5c-1 .7-2.7 1.8-4.2 2.3-.1-1.2 0-2.8.2-4.2V29c1.1-10.7-1.1-17-6.7-18.6-.9-.3-1.9-.4-2.9-.4-3.4 0-6.4 1.6-8.3 3-1.6-2.1-4.4-3.2-7.8-3.2-5.1 0-9.2 2.4-10.7 6.2-.2.4-.4 1-.6 1.8-3-6.6-9.1-9.1-14.8-9.1-5.4 0-10.6 2.1-12.5 3.6-.1.1-.2.1-.3.2-5.1 3.6-9.1 8.2-11.9 13.7-1.4-4.7-4.4-9.2-9.7-12.5l-.1-.1c-.2-.1-.3-.2-.4-.2 5.3-9.3 9.9-21.7 7.1-33.5-3-12.6-10.4-14.4-14.5-14.4-1.7 0-3.5.3-5.3.9h-.1-.1c-7.8 3.1-11.2 7.7-12 8.8-.8 1.2-9.3 14.2-11.4 33.2-.2 2.1-.5 4.3-.7 6.5-1.2-1.7-3.2-3.3-6.3-4.2-1-.3-2-.4-3-.4-4.3 0-7.8 2.6-9.7 4.4h0c-1.6-2.4-4.2-3.9-7.1-4-.2 0-.5 0-.7 0-4.6 0-8.2 2-10.9 4.3-1.7-3-4.9-4.9-8.6-4.9-.3 0-.6 0-.9 0-.2 0-.4 0-.6 0-5.1 0-9.1 2.4-10.7 6.4-.1.3-.3.7-.4 1.2-4-5-9.1-7.3-16-7.3-.2 0-.4 0-.7 0-4.3.1-14.9 1.9-21.5 16.6-1 2.3-1.8 4.6-2.4 6.8-1.4-.7-2.8-.8-3.7-.8-3.4 0-6 1.9-7.2 3.8-1 1.5-4.2 6.7-2.6 11.9.9 2.8 2.8 4.9 5.6 6 2.5 1 5.6 1.9 7.9 2.6 1.4 3.3 4 7 8.6 10.5 3.2 2.5 7.4 3.7 12.2 3.7 8.2 0 16.1-3.5 16.9-3.9l.3-.2.1-.1c1.6 1.6 3.6 2.8 6.2 3.3.8.2 1.8.3 3 .3 4.4 0 7.5-2.3 10.4-6.5 2.3 3.7 6.6 5.7 11.6 5.7h0c.3 0 .5.2.9.2 2.6 0 6-.9 8.7-5.4 2.3 4.1 6.5 6.5 11.5 6.5 4.4 0 8.3-1.8 9-2.2l.2-.1c1.5-.8 2.7-1.5 3.7-2 3.3 1.8 8.3 3.7 14.5 3.7 1.1 0 2.1 0 3.2-.2h.3.3c13-2.6 21.5-5.7 26.6-8.1 3.5 4 9.2 7.8 17.2 8.4.9.1 1.8.1 2.7.1 6.6 0 11.9-1.9 15.8-3.9 1.2 1.3 2.8 2.5 4.8 3.3 1.2.5 2.5.7 3.7.7 8.1 0 11.9-9.6 12.9-12.9l1.9-5.2c1.7 1.8 3.9 3.3 6.7 4.1 1.5.4 3.2.7 4.8.7 8.9 0 17.5-6.3 18.8-7.4 2.3-2.3 4.9-6.5 4.4-12.2" transform="translate(578.4404 204.8359)"/><path fill="#e24b31" d="M-281.1 44.9c0 0-1.1-4 3.1-11.6 4.2-7.6 7.4-3.5 7.4-3.5s3.6 3.9-.5 9.7c-4.1 5.8-10 5.4-10 5.4m-32.1 5.5c-4.8 12.5-16.4 7.4-16.4 7.4s-1.3-4.5 2.5-17c3.8-12.5 12.6-7.6 12.6-7.6s6.1 4.7 1.3 17.2m-8.7-52.5c0 0 7.2-18.9 9-9.7 1.8 9.2-15.2 36.5-15.2 36.5.2-6.1 6.2-26.8 6.2-26.8m-103.5 47c.3-12.1 8.2-17.4 11-14.8 2.8 2.6 1.8 8.4-3.5 11.9-5.1 3.6-7.5 2.9-7.5 2.9m219.3-2c-.4-4.1-4.1-2.6-4.1-2.6s-5.9 4.6-11.1 4.1c-5.2-.5-3.5-12.1-3.5-12.1s1.1-10.7-1.9-11.6c-3.1-.9-6.8 2.8-6.8 2.8s-4.7 5.2-6.9 11.8l-.6.2c0 0 .7-11.6-.1-14.3-.6-1.3-6.2-1.2-7.1 1.1-.9 2.3-5.4 18.6-5.7 25.5 0 0-8.8 7.4-16.4 8.7-7.7 1.2-9.5-3.6-9.5-3.6s20.8-5.8 20.1-22.4c-.7-16.6-16.8-10.5-18.6-9.1-1.8 1.3-11.1 7-13.9 22.6-.1.5-.3 2.9-.3 2.9s-8.1 5.4-12.5 6.8c0 0 12.5-21.1-2.8-30.7-6.9-4.2-12.5 4.6-12.5 4.6s20.7-23 16.1-42.5c-2.2-9.3-6.8-10.3-11.1-8.8-6.5 2.6-8.9 6.3-8.9 6.3s-8.4 12.1-10.3 30.2-4.8 39.8-4.8 39.8-4 3.9-7.6 4.1c-3.7.2-2-10.9-2-10.9s2.8-16.9 2.6-19.8-.4-4.4-3.8-5.4c-3.3-1-7 3.3-7 3.3s-9.7 14.7-10.5 16.9l-.5.9-.5-.6c0 0 6.8-20 .3-20.3-6.5-.3-10.8 7.1-10.8 7.1s-7.4 12.5-7.7 13.9l-.5-.6c0 0 3.1-14.5 2.5-18.1-.6-3.6-4-2.8-4-2.8s-4.3-.5-5.4 2.3c-1.1 2.8-5.2 21-5.7 26.8 0 0-10.7 7.7-17.7 7.7-7 .1-6.3-4.5-6.3-4.5s25.8-8.8 18.8-26.3c-3.2-4.5-6.8-5.9-12-5.8-5.2.1-11.3 3.3-15.5 12.6-2 4.5-2.8 8.7-2.8 11.9h0c0 0-4.8.9-7.3-1.1-2.5-2-3.9 0-3.9 0s-4.3 6.1-.1 7.7c4.2 1.6 10.6 3.2 10.6 3.2h0c.6 2.6 2.3 7 7.4 10.8 7.6 5.8 22.3-.9 22.3-.9l6-3.6c0 0 .2 5.4 4.6 6.2 4.4.8 6.2-.1 13.9-18.6 4.5-9.5 4.8-9 4.8-9l.5-.1c0 0-3.5 18.1-2.1 23s7.1 4.4 7.1 4.4 3.2 1.1 5.7-7.9c2.6-9 7.4-18.4 7.4-18.4h.6c0 0-2.1 18.1 1.1 24 3.3 5.9 11.7 1.8 11.7 1.8s5.9-3.1 6.8-4c0 0 7 5.9 16.9 4.8 22.1-4.4 30-10.3 30-10.3s3.8 9.6 15.6 10.5c13.5 1 20.8-7.5 20.8-7.5s-.1 5.5 4.6 7.4c4.7 1.9 7.9-8.3 7.9-8.3l7.9-21.1h.7c0 0 .4 13.5 8.2 15.7 7.8 2.2 17.9-5.6 17.9-5.6s2.2-1.1 1.7-5.2" transform="translate(455.4502 200.8125)"/></svg>