<svg width="256px" height="254px" viewBox="0 0 256 254" xmlns="http://www.w3.org/2000/svg" preserveAspectRatio="xMidYMid"><defs><linearGradient x1="61.0500426%" y1="82.514%" x2="38.4498197%" y2="28.19%" id="a"><stop stop-color="#477cd8" offset="0%"/><stop stop-color="#4573d2" offset="16%"/><stop stop-color="#3f5bc2" offset="43%"/><stop stop-color="#3633a7" offset="76%"/><stop stop-color="#2f1391" offset="100%"/></linearGradient><linearGradient x1="62.8566029%" y1="19.708%" x2="52.4304188%" y2="78.902%" id="b"><stop stop-color="#2055da" offset="0%"/><stop stop-color="#2055da" offset="11%"/><stop stop-color="#00bff6" offset="100%"/></linearGradient></defs><path d="M72.7150149 126.611074c0-29.7495261 24.1167562-53.8662822 53.8662821-53.8662822 29.749527 0 53.866283 24.1167561 53.866283 53.8662822 0 29.749527-24.116756 53.866283-53.866283 53.866283h0c-29.7495259 0-53.8662821-24.116756-53.8662821-53.866283h0M0 126.611074c0 69.892475 56.6590457 126.551521 126.551521 126.551521 69.892475 0 126.55152-56.659046 126.55152-126.551521 0-69.8924746-56.659045-126.5515203432-126.55152-126.5515203432h0C56.6998474.157959542.0984058848 56.759401 0 126.611074" fill="url(#a)"/><path d="M152.457361 38.9183147l-25.965394 33.8562539c29.231725.687615 52.570465 24.5818057 52.570465 53.8216174 0 29.239811-23.33874 53.134002-52.570465 53.821617l-32.5162966 36.953044 32.5162966 35.732194c45.254234 1.044408 87.621733-22.156168 111.116435-60.84771 23.494703-38.691543 24.540096-86.98418 2.741734-126.6561846C218.551774 25.927142 177.227941.914894993 131.970903 0c-1.816386 0-3.662549 0-5.478936 0l25.965394 38.9183147z" fill="url(#b)"/></svg>