<svg width="256px" height="191px" viewBox="0 0 256 191" xmlns="http://www.w3.org/2000/svg" preserveAspectRatio="xMidYMid"><title>envoy</title><path d="M63.8336201 92.173719l.3401086 15.418256 16.2118432 10.089889-.3401086-15.418257-16.2118432-10.089888zm39.5659669 64.053786-.340109-15.078148-14.1711912-8.842823c-.2267391-.11337-.4534781-.340109-.5668477-.453479l.3401086 15.191518 14.7380393 9.182932h0zm-50.6761811 20.293146-37.0718372-22.900645-.9069563-38.545641 18.1391253-7.822498-.3401086-15.4182566L3.52102868 104.304259c-2.26739066 1.020326-3.627825048 3.060977-3.5144555156 5.441738L1.14026849 156.000766c0 2.38076 1.47380393 4.76152 3.85456411 6.121955l44.5542264 27.548796c2.0406515 1.247065 4.5347813 1.587174 6.6888024 1.020326.2267391-.11337.4534781-.11337.6802172-.226739l27.3220574-11.790432-14.8514088-9.182932-16.6653213 7.028911h0z" fill="#b31aab"/><path d="M172.668371 91.2667627c-.113369-2.7208688-1.700543-5.5551071-4.421411-7.1422806L114.169693 50.68047l-1.700543.6802172.340108 16.2118432 42.740314 26.5284706 1.020326 43.307162 16.325213 10.089888.906956-.340109-1.133696-55.8911793zm-64.734003 76.1843263-50.1093332-31.176622L56.57797 84.1244821l22.9006456-9.8631493-.4534781-18.0257557L43.4271042 71.540464c-2.6074993 1.1336953-4.1946727 3.5144555-4.0813032 6.3486938l1.4738039 61.2195472c0 2.834239 1.700543 5.555108 4.4214118 7.142281l58.8387873 36.50499c2.38076 1.473804 5.328368 1.927282 7.822498 1.133695.226739-.11337.453478-.226739.680217-.226739l34.804447-14.964778-17.232169-10.656737-22.220429 9.409672h0z" fill="#d163ce"/><path d="M249.192806 48.4130793 173.688697 1.70483185c-2.834238-1.70054299035-6.121954-2.154021121-8.956193-1.24706486-.226739.113369533-.566847.226739066-.793587.340108599L90.3620907 32.5413447c-2.9476078 1.2470649-4.7615203 3.9679337-4.6481508 7.2556501l1.8139125 78.4517162c.1133696 3.174347 2.0406516 6.348694 5.101629 8.162607l75.3907396 46.708247c2.720868 1.700543 6.121954 2.154021 8.956193 1.247065.226739-.113369.566847-.226739.793586-.340108l73.576827-31.74347c2.947608-1.247064 4.761521-4.081303 4.648151-7.25565l-1.813912-78.4517163c0-3.1743469-1.927283-6.2353243-4.98826-8.1626064zM172.555002 155.547288l-65.52759-40.586293-1.700543-68.2484587 63.940417-27.5487964 65.527589 40.5862927 1.587174 68.1350894-63.827047 27.662166h0z" fill="#e13eaf"/></svg>