<svg width="256px" height="163px" viewBox="0 0 256 163" xmlns="http://www.w3.org/2000/svg" preserveAspectRatio="xMidYMid"><title>epsagon</title><defs><path d="M49.8269497 58.2314954c.769647-.769647 7.4963622-4.3638987 8.3044916-4.7256329l5.9262822-2.6552823-3.7943599-25.1674583 3.7943599-19.78762554L70.2148999.815825867l5.1489387 3.032409353.0615718 6.92682338L82.5215561 0l7.9812399.17701882 1.0005411 11.49083038 1.04672 21.6347784-7.9735434 21.3961879 15.0927786 15.3929409v27.1608442l-10.7057904 7.1808064H67.7982082l-22.3890326 5.110457-5.3875293 14.900367 4.5255246 12.837712 6.4573388 7.150021-9.7437316 3.848236-22.789249-25.136673 1.0928988-12.03728-15.17743975-7.742649L-2.18746847e-14 70.1071493 25.3521737 51.5894414l24.474776 6.642054z" id="a"/><linearGradient x1="-1246.11407%" y1="-445.363409%" x2="12.9734989%" y2="35.839599%" id="c"><stop stop-color="#5ccd53"/><stop stop-color="#0000f3" offset=".99"/></linearGradient><linearGradient x1="81.7683363%" y1="62.1572763%" x2="838.157296%" y2="351.401024%" id="d"><stop stop-color="#5ccd53"/><stop stop-color="#0000f3" offset=".99"/></linearGradient><linearGradient x1="26.8825591%" y1="38.7020969%" x2="394.258018%" y2="212.237889%" id="e"><stop stop-color="#5ccd53"/><stop stop-color="#0000f3" offset=".99"/></linearGradient><linearGradient x1="-9.27872861%" y1="24.4937015%" x2="100.745721%" y2="58.0914602%" id="f"><stop stop-color="#5ccd53"/><stop stop-color="#0000f3" offset=".99"/></linearGradient><linearGradient x1="46.6684251%" y1="50%" x2="98.9940473%" y2="50%" id="g"><stop stop-color="#fff" stop-opacity="0"/><stop stop-color="#fff" stop-opacity="0.8" offset="1"/></linearGradient><linearGradient x1="100%" y1="50%" x2="5.92723867e-15%" y2="50%" id="h"><stop stop-color="#eef1fe"/><stop stop-color="#c6d4fc" offset=".870709685"/><stop stop-color="#c2d1fc" stop-opacity="0" offset="1"/></linearGradient></defs><g fill="#1a1233"><path d="M245.371174 141.692021l-6.164873 4.68715.985149 7.673381 7.134628 2.993927 6.164873-4.68715-.985149-7.681078-7.134628-2.98623zM10.2440022 90.7106007 0 98.5071252l1.63165173 12.7761408 11.87565387 4.97192 10.2440022-7.796524-1.6316517-12.7761414-11.8756539-4.9719199h0zm44.1700439-19.5798208-1.1390777-8.9586916-9.5590163-4.0021647-8.2429198 6.2726235.8697011 6.7728939-7.3347363 5.5799411 2.2011906 17.2323973 16.0240514 6.7190186 13.822861-10.5287714-2.2011906-17.2323974-4.4408634-1.8548493z"/><path d="M240.891829 66.8130599l7.973543-21.3961878-1.04672-21.6347784-1.000541-11.4908304-7.98124-.1770188-7.096146 10.7750586-.061572-6.9268234-5.148938-2.9554446-6.157177 5.0796704-3.79436 19.7876256 3.79436 25.1674583c0 0-5.118153 2.3089412-5.926282 2.6552823-.400216.1770189-1.470026.669593-2.555228 1.2083459l-.769647-5.9801575-28.977211-12.1373339-1.731706 1.3160964-.700379-5.5183693-34.095364-14.2769527-9.751428 7.4193975-9.066442-3.8020564-10.167038 7.6964705-9.451266-3.9559858 11.398473-8.6739222-2.662979-20.86513141L96.5137394 0 79.7739162 12.7453551 81.9366244 29.67759l-12.237388 9.3127293 1.4623294 11.4754374-4.0329506 3.0785882 4.4023811 34.4570982 32.0404067 13.4226449 17.163129-13.0840002.13084.9851482 9.466659 3.9713788 2.008778 15.7469782 27.707294 11.606278 4.271541-3.247911 11.49083 5.857014-1.04672 12.052673 22.119656 24.359329v.123143l.15393.061572.546449.592628.446396-.177018 4.617882 1.93951 4.987313-3.79436-.769647-6.211051-5.610727-2.308942-.369431-.415609-4.571703-12.868499 5.387529-14.900366.6542-.146233-.092358.069268 1.539294 12.268174 10.505683 4.394684.669593 5.279779 9.682159 4.05604 8.350671-6.357284-1.323793-10.413325-7.042271-2.947748-1.146774-8.997174-3.394143-1.416151 4.025254-.923576h21.165294L256 109.397631V82.2752691l-15.108171-15.4622092z"/></g><g style="fill:#a1beff"><path opacity="0.77" d="M211.114184 60.9021706l-28.977211-12.1373338-25.005832 19.0256749 3.979075 31.1630088 28.984908 12.1373335 24.998136-19.0256745-3.979076-31.1630089z"/><path opacity="0.74" d="M179.697192 44.5625639l-34.095364-14.2846492-29.41591 22.3890326 4.679454 36.6736816 34.095364 14.2769531 29.423606-22.3813364-4.68715-36.6736817z"/><path opacity="0.79" d="M126.82244 45.9094462 94.7820336 32.4868018 67.1363117 53.528952l4.3946846 34.4647946 32.0481027 13.4149484 27.645722-21.0344541z"/><path opacity="0.7" d="M98.2916241 35.3421923 82.944862 28.907943 69.6992364 38.9903193l2.1088329 16.5012326 15.346762 6.4265528 13.2456257-10.0746798-2.1088329-16.5012326z"/><path opacity="0.37" d="M144.031748 41.1222416l-17.240094-7.2192893-14.877277 11.321508 2.362816 18.5484938 17.24779 7.2192893 14.877278-11.321508-2.370513-18.5484938z"/><path opacity="0.7" d="M231.671457 130.855391l-7.042271-2.947749-1.146774-8.989477-11.413865-4.779508-9.843786 7.488665 1.57008 12.275871 10.497986 4.394684.677289 5.272083 9.68216 4.05604 8.35067-6.357285-1.331489-10.413324z"/><path d="M206.82725 152.2054l-5.772353-2.416692-4.979616 3.786663.792737 6.211052 5.772352 2.416692 4.979617-3.786664-.792737-6.211051h0zm45.678552-7.527149-7.134628-2.98623-6.164873 4.68715.985149 7.673381 7.134628 2.993927 6.164873-4.68715-.985149-7.681078zM22.1196561 95.6825206l-11.8756539-4.9719199L0 98.5071252l1.63165173 12.7761408 11.87565387 4.97192 10.2440022-7.796524-1.6316517-12.7761414h0z"/><path opacity="0.29" d="M58.8549095 72.9856292 42.830858 66.274307 29.0079971 76.7953821l2.2011906 17.2323973 16.0240514 6.7190186 13.822861-10.5287714z"/></g><g transform="translate(156.292225 12.16812)"><mask id="b" fill="#fff"><use href="#a"/></mask><g style="fill:#a1beff"><use opacity="0.46" href="#a"/><path d="M52.9517167 56.2535025c.769647-.769647 4.3715952-2.4166917 5.1797246-2.7784258l5.9262822-2.6552823-3.7943599-25.1674584 3.7943599-19.78762552L70.2148999.785039986l5.1489387 3.032409354.0615718 6.92682336L82.5215561-.0307858818 90.502796.146232938 91.5033371 11.6370633l1.04672 21.6347784-7.9735434 21.3961879 15.0927786 15.3929409v27.1608442l-10.7057904 7.1808073H67.7982082l-22.3890326 5.141242-5.3875293 14.900367 4.5255246 12.837712 6.4573388 7.150021-9.7437316 3.848236-22.789249-25.136673 1.0928988-12.03728-15.17743975-7.742649L-2.18746847e-14 70.1071493 28.0767242 45.6631592l24.8749925 10.5903433z" mask="url(#b)"/></g></g><g style="fill:#a1beff"><path opacity="0.7" d="M53.2749684 62.1720883l-9.5590163-4.0021647-8.2429198 6.2726235 1.3160964 10.274788 9.5513199 4.0021646 8.2429198-6.2726234-1.3084-10.274788z"/><path opacity="0.22" d="M180.166677 72.6623775l-27.71499-11.6139739-23.912934 18.2021526 3.809753 29.8007338 27.71499 11.613974 23.905237-18.202153z"/><path opacity="0.22" d="M188.4019 69.6992364l-21.034454-8.8124587-18.148277 13.8151645 2.893873 22.6199266 21.034454 8.8047622 18.14058-13.807468-2.886176-22.6199266z"/><path d="M115.916541 8.12747279 96.5137394 4.37493693e-14 79.7816127 12.7376586 82.4445914 33.60279l19.3951056 8.1274728 16.739823-12.7376586-2.662979-20.86513141z"/></g><g opacity="0.3"><g style="fill:#1a1233"><path d="M245.371174 141.692021l-6.164873 4.68715.985149 7.673381 7.134628 2.993927 6.164873-4.68715-.985149-7.681078-7.134628-2.98623zM10.2440022 90.7106007 0 98.5071252l1.63165173 12.7761408 11.87565387 4.97192 10.2440022-7.796524-1.6316517-12.7761414-11.8756539-4.9719199h0zm44.1700439-19.5798208-1.1390777-8.9586916-9.5590163-4.0021647-8.2429198 6.2726235.8697011 6.7728939-7.3347363 5.5799411 2.2011906 17.2323973 16.0240514 6.7190186 13.822861-10.5287714-2.2011906-17.2323974-4.4408634-1.8548493z"/><path d="M240.891829 66.8130599l7.973543-21.3961878-1.04672-21.6347784-1.000541-11.4908304-7.98124-.1770188-7.096146 10.7750586-.061572-6.9268234-5.148938-2.9554446-6.157177 5.0796704-3.79436 19.7876256 3.79436 25.1674583c0 0-5.118153 2.3089412-5.926282 2.6552823-.400216.1770189-1.470026.669593-2.555228 1.2083459l-.769647-5.9801575-28.977211-12.1373339-1.731706 1.3160964-.700379-5.5183693-34.095364-14.2769527-9.751428 7.4193975-9.066442-3.8020564-10.167038 7.6964705-9.451266-3.9559858 11.398473-8.6739222-2.662979-20.86513141L96.5137394 0 79.7739162 12.7453551 81.9366244 29.67759l-12.237388 9.3127293 1.4623294 11.4754374-4.0329506 3.0785882 4.4023811 34.4570982 32.0404067 13.4226449 17.163129-13.0840002.13084.9851482 9.466659 3.9713788 2.008778 15.7469782 27.707294 11.606278 4.271541-3.247911 11.49083 5.857014-1.04672 12.052673 22.119656 24.359329v.123143l.15393.061572.546449.592628.446396-.177018 4.617882 1.93951 4.987313-3.79436-.769647-6.211051-5.610727-2.308942-.369431-.415609-4.571703-12.868499 5.387529-14.900366.6542-.146233-.092358.069268 1.539294 12.268174 10.505683 4.394684.669593 5.279779 9.682159 4.05604 8.350671-6.357284-1.323793-10.413325-7.042271-2.947748-1.146774-8.997174-3.394143-1.416151 4.025254-.923576h21.165294L256 109.397631V82.2752691l-15.108171-15.4622092z"/></g><path fill="url(#c)" d="M245.371174 141.692021l-6.164873 4.68715.985149 7.673381 7.134628 2.993927 6.164873-4.68715-.985149-7.681078z"/><path fill="url(#d)" d="M10.2440022 90.7106007 0 98.5071252l1.63165173 12.7761408 11.87565387 4.97192 10.2440022-7.796524-1.6316517-12.7761414-11.8756539-4.9719199z"/><path fill="url(#e)" d="M54.4140461 71.1307799l-1.1390777-8.9586916-9.5590163-4.0021647-8.2429198 6.2726235.8697011 6.7728939-7.3347363 5.5799411 2.2011906 17.2323973 16.0240514 6.7190186 13.822861-10.5287714-2.2011906-17.2323974z"/><path d="M240.891829 66.8130599l7.973543-21.3961878-1.04672-21.6347784-1.000541-11.4908304-7.98124-.1770188-7.096146 10.7750586-.061572-6.9268234-5.148938-2.9554446-6.157177 5.0796704-3.79436 19.7876256 3.79436 25.1674583c0 0-5.118153 2.3089412-5.926282 2.6552823-.400216.1770189-1.470026.669593-2.555228 1.2083459l-.769647-5.9801575-28.977211-12.1373339-1.731706 1.3160964-.700379-5.5183693-34.095364-14.2769527-9.751428 7.4193975-9.066442-3.8020564-10.167038 7.6964705-9.451266-3.9559858 11.398473-8.6739222-2.662979-20.86513141L96.5137394 0 79.7739162 12.7453551 81.9366244 29.67759l-12.237388 9.3127293 1.4623294 11.4754374-4.0329506 3.0785882 4.4023811 34.4570982 32.0404067 13.4226449 17.163129-13.0840002.13084.9851482 9.466659 3.9713788 2.008778 15.7469782 27.707294 11.606278 4.271541-3.247911 11.49083 5.857014-1.04672 12.052673 22.119656 24.359329v.123143l.15393.061572.546449.592628.446396-.177018 4.617882 1.93951 4.987313-3.79436-.769647-6.211051-5.610727-2.308942-.369431-.415609-4.571703-12.868499 5.387529-14.900366.6542-.146233-.092358.069268 1.539294 12.268174 10.505683 4.394684.669593 5.279779 9.682159 4.05604 8.350671-6.357284-1.323793-10.413325-7.042271-2.947748-1.146774-8.997174-3.394143-1.416151 4.025254-.923576h21.165294L256 109.397631V82.2752691l-15.108171-15.4622092z" fill="url(#f)"/></g><path d="M252.498106 144.685948l.977452 7.69647-6.157177 4.687151-7.134628-3.00932-.977452-7.696471 6.157177-4.68715 7.134628 3.00932zM10.2440022 90.7413866 0 98.5148217l1.59316938 12.7684443 11.87565392 4.979617 10.2824845-7.819614-1.6316517-12.7684449-11.8756539-4.9334375zm44.1700439-19.5875173-1.1467741-8.9509951-9.5513199-4.0021647-8.2583128 6.249534.8620047 6.7651975-7.3347363 5.5876376 2.2011906 17.2323973 16.0394444 6.7113221 13.8536468-10.521075-2.22428-17.2323973-4.4408634-1.8394564zm186.4777829-4.3177199 7.973543-21.3961879-1.04672-21.6578678-1.000541-11.4908304-7.98124-.1770188-7.096146 10.7750586-.061572-6.9268234-5.148938-2.9554446-6.157177 5.0796704-3.79436 19.7876256 3.79436 25.1674583c0 0-5.118153 2.3089412-5.926282 2.6552823-.400216.1770189-1.470026.669593-2.555228 1.2083459l-.769647-5.9801575-28.977211-12.1373339-1.731706 1.3160964-.700379-5.5183693-34.095364-14.2769527-9.751428 7.4193975-9.066442-3.8020564-10.167038 7.6964705-9.451266-3.9559858 11.398473-8.6739222-2.662979-20.86513141L96.5137394 0 79.7739162 12.7453551 81.9366244 29.67759l-12.237388 9.3127293 1.4623294 11.4754374-4.0329506 3.0785882 4.4023811 34.4570982 32.0404067 13.4226449 17.163129-13.0840002.13084.9851482 9.466659 3.9713788 2.008778 15.7469782 27.707294 11.606278 4.271541-3.247911 11.49083 5.857014-1.04672 12.052673 22.119656 24.359329v.123143l.15393.061572.546449.592628.446396-.177018 4.617882 1.93951 4.987313-3.79436-.769647-6.211051-5.610727-2.308942-.369431-.415609-4.571703-12.868499 5.387529-14.900366.6542-.146233-.092358.069268 1.539294 12.268174 10.505683 4.394684.669593 5.279779 9.682159 4.05604 8.350671-6.357284-1.323793-10.413325-7.042271-2.947748-1.146774-8.997174-3.394143-1.416151 4.025254-.923576h21.165294L256 109.397631V82.2752691l-15.108171-15.4391197z" fill="url(#g)"/><path d="M207.296735 68.4447117c.769647-.7696471 6.318802-2.4089953 7.126932-2.7707294l5.926282-2.6552823-3.79436-25.1674583 3.79436-19.7876256 6.157176-5.0796705 5.148939 3.0324094.061572 6.9268234 7.096145-10.7750586 7.98124.1770188 1.000542 11.4908304 1.046719 21.6347784-7.973543 21.3961878 15.092779 15.3929409V109.42072l-10.705791 7.180807h-21.165293l-22.389033 5.110457-5.387529 14.900366 4.525524 12.837713 6.457339 7.150021-9.743732 3.848235-22.789249-25.136672 1.092899-12.03728v-7.019181l-7.165243 4.410078V70.9922434l15.692932-12.7915339 22.912393 10.2440022z" fill="url(#h)"/></svg>