<svg width="256px" height="225px" viewBox="0 0 256 225" xmlns="http://www.w3.org/2000/svg" preserveAspectRatio="xMidYMid"><path fill="#fff" d="M0 0h256v225H0z"/><g transform="translate(6.336634 5.70297)" fill="#a90533"><path d="M38.0033267 153.956119C19.2 134.031208 8.19833663 106.504871 8.22621782 73.662099 8.20023762 44.6168713 17.3262574 19.6511683 33.0151287.653940594l-.0253465.009504951H.0139405941V153.959287H37.9798812l.0234455-.003168h0z"/><path d="M211.672713 153.968792c8.100119-8.675485 15.358099-18.892673 21.934891-30.577426l-36.49901-18.249505c-12.818376 20.839288-31.56404 40.020911-57.485941 40.148911-37.726415-.128-52.5490688-32.387802-52.4673263-73.9104948H228.132752c.188198-4.6878416.188198-6.8676435 0-9.1241188.92008-24.7033663-5.62693-45.4678812-17.536633-61.638336618l-.061466.046257426h31.741466V153.959921h-30.672475l.069069.008871h0z"/><path d="M89.4371485 35.7937426C90.9978614 16.9942178 105.819881 4.35136634 123.198733 4.31334653c17.497346.03801981 30.139564 12.68087127 30.56792 31.48039607H89.4371485h0z"/></g><g transform="translate(6.336634 178.059406)"><path d="M20.0890297 7.60839604V1.22170297H.470811881V39.0894257H20.0890297v-6.3879604H7.77061386v-10.036594H19.6321584v-6.3873267H7.77061386V7.60839604H20.0890297h0z"/><path d="M53.3943762 23.1204752c4.8906139-.7261782 7.5760792-5.5724356 7.7560396-10.4934653-.1799604-8.05069307-5.3988118-11.38186139-12.7746534-11.40594059H38.3385347V39.0887921h7.2998019V24.0329505l9.1247525 15.0558416h9.1247525L53.3943762 23.1204752h0zM45.637703 7.15279208h.9124752c3.9825743.14954455 6.9715644 1.05821782 6.8435644 5.93108912.128 4.4647921-2.759604 5.6763564-6.8435644 5.4748515h-.9124752V7.15279208h0z"/><path d="M86.6990891 1.22170297h-7.2991683V39.0894257h17.7926337v-6.3879604H86.6990891V1.22170297h0z"/><path d="M134.60404 31.3327525l3.193663 7.7560396h7.75604L131.410376.308594059h-5.931089L110.423446 39.0887921h7.755405l3.194298-7.7560396h13.230891 0zm-1.824951-5.9304555h-9.124752l4.106138-14.1433663 5.018614 14.1433663h0z"/><path d="M159.241505 39.0894257h7.755406V13.5401188L187.072 40.0012673h5.474218V1.22170297h-7.755406V26.7710099L164.715723.308594059h-5.474218V39.0894257h0z"/><path d="M224.483485 19.0143366v5.9310891h8.212277c-.171089 4.7664159-4.07192 8.8047525-8.668514 8.6685149-7.259248.1362376-10.856555-6.8790495-10.949703-13.2308911.093148-6.2669307 3.639762-13.58574257 10.949703-13.68712871 3.836198.10075248 7.079287 2.72538614 8.668514 5.93108911l6.387327-3.19366337c-2.80903-5.91714851-8.483485-9.198257421-15.055841-9.124752471C212.714455.235722772 205.469782 9.57338614 205.321505 20.3830495c.148277 10.5403564 7.190812 19.9287129 18.249505 20.0744555 11.943287-.1457426 17.465663-9.6855446 17.33703-20.5306931v-.9124753h-16.424555 0 0z"/></g></svg>