<svg width="256px" height="225px" viewBox="0 0 256 225" xmlns="http://www.w3.org/2000/svg" preserveAspectRatio="xMidYMid"><path d="M77.9645944 80.5683518l48.5703096-28.0418525c1.215461-.7019991 2.713728-.7019991 3.929189 0l48.571313 28.0418525C180.249864 81.2703508 181 82.5670433 181 83.9710413v56.0837047c0 1.402996-.750136 2.700691-1.964594 3.403693l-48.571313 28.041852c-1.215461.701999-2.713728.701999-3.929189 0l-48.5703096-28.041852C76.7491332 142.75644 76 141.458744 76 140.054746V83.9710413c.0010029-1.403998.7501361-2.7006905 1.9645944-3.4026895" fill="#8080f2"/><path d="M254.4167 107.416596 196.323141 6.34980392c-2.11023-3.65427451-6.008432-6.3498039200000145-10.227888-6.3498039200000145l-116.1891259 1.52020028e-23c-4.2204594 0-8.1196659 2.695529410000014-10.2298956 6.3498039200000145L1.58267227 107.193725c-2.110229692 3.655279-2.110229692 8.268299 0 11.923577L59.6762315 219.355859c2.1102297 3.654274 6.0094362 5.522572 10.2298956 5.522572H186.094249c4.219456 0 8.118662-1.812078 10.227888-5.467356l58.093559-100.402197c2.112238-3.65327 2.112238-7.938007.001004-11.592282h0zm-48.104603 48.599843c0 1.485804-.894488 2.860173-2.182512 3.604079l-73.998587 42.693772c-1.287019.742902-2.899307.742902-4.186326 0l-74.0558105-42.693772c-1.2870193-.743906-2.1875312-2.117271-2.1875312-3.604079V70.6278902c0-1.4868078.887461-2.8601726 2.1754842-3.6040784L125.87239 24.3300392c1.287019-.7439059 2.897299-.7439059 4.184318 0l74.06083 42.6937726c1.288024.7439058 2.194559 2.1172706 2.194559 3.6040784v85.3885488h0z" fill="#4b32c3"/></svg>