<svg width="512px" height="226px" viewBox="0 0 512 226" xmlns="http://www.w3.org/2000/svg" preserveAspectRatio="xMidYMid"><title>eta</title><path d="M92.5151923 41.1178617c10.0347167 0 19.3351857 1.4684951 27.9014067 4.4054853 8.810971 2.6922411 16.887694 6.8529772 24.23017 12.4822085 7.097726 5.6292313 13.461205 11.8703355 19.090436 18.7233127 5.873981 6.8529772 11.013714 14.1954528 15.419199 22.0274268L57.6384333 164.471451l-14.3178274-25.698664 86.6412121-49.1945865-1.468495-.7342476h0c-.489499-.4894983-.978997-1.1013713-1.468496-1.8356189l-1.835618-1.8356188c-.489499-.7342476-1.101372-1.4684952-1.835619-2.2027427-.734248-.4894984-1.59087-.9789968-2.569867-1.4684951l-2.202742-2.2027427h0l-2.936991-1.4684951h0c-.978996-.7342476-2.080368-1.3461205-3.304114-1.8356189-2.349592-1.1747961-5.150306-2.0112509-8.402141-2.5093645l-.408829-.060502c-3.18174-.4894983-6.8529776-.7342475-11.0137137-.7342475-9.5452183 0-17.9890652 1.7132443-25.3315408 5.1397329-7.0977264 3.4264886-13.0940814 8.4438469-17.9890651 15.0520749-4.8949838 6.608228-8.5662215 13.5835795-11.0137134 20.9260555-2.4474919 7.342475-3.6712378 14.9297-3.6712378 22.761674v1.101372c0 7.097726 1.2237459 13.950703 3.6712378 20.558931 2.692241 6.363479 6.4858534 12.482209 11.3808371 18.356189 4.8949838 5.873981 10.8913388 10.279466 17.9890652 13.216456 7.3424756 2.93699 15.6639479 4.405485 24.964417 4.405485 10.0347167 0 18.3561887-1.101371 24.9644167-3.304114 6.852977-2.447491 11.99271-5.996355 15.419199-10.646589 3.426489-4.894984 6.485853-10.64659 9.178094-17.254818 2.84521-6.401721 5.345882-13.607361 7.502017-21.616922l.207583-.777628v-.367124l.367124-.367124v-.367124l31.939768 1.835619v1.468495c0 .24475.122375.489499.367124.734248v3.304114c0 .244749.122375.489498.367124.734248v1.835618c0 1.957994-.122375 4.038362-.367124 6.241105-.244749 1.957993-.611873 4.038361-1.101371 6.241104-.244749.978997-.611873 2.080368-1.101372 3.304114-.244749 1.223746-.489498 2.325117-.734247 3.304114l-1.468495 3.671238c-.244749.978996-.611873 2.080368-1.101372 3.304114-2.93699 6.118729-6.852977 12.115084-11.747961 17.989065-4.894983 5.87398-10.891338 11.380837-17.989065 16.52057-6.852977 5.139733-14.9297 8.933345-24.230169 11.380837-9.05572 2.692241-19.212811 4.038362-30.4712737 4.038362-12.9717069 0-24.964417-1.957994-35.9781304-5.873981-11.0137133-4.160736-20.9260554-10.40184-29.737026-18.723313-9.0557199-8.566221-15.7863225-18.111439-20.19180788-28.635654C2.20274267 161.412087-1.13686838e-13 149.541751-1.13686838e-13 136.570044-1.13686838e-13 122.86409 1.83561889 110.749005 5.50685668 100.22479 9.17809447 89.7005751 14.6849512 80.6448552 22.0274267 73.0576305c7.3424756-7.5872248 15.052075-13.8283291 23.1287981-18.7233128 8.0767231-4.8949837 16.52057-8.4438469 25.3315407-10.6465896.9789968-.2447491 1.8356189-.3671237 2.5698665-.3671237l2.9369902-.7342476h2.5698665l2.9369902-.7342475c1.9579935-.2447492 3.7936124-.3671238 5.5068567-.3671238 1.9579935-.2447492 3.7936124-.3671238 5.5068567-.3671238zm329.5394827 0c14.440202 0 27.289534 1.9579935 38.547997 5.8739805 11.258462 3.9159869 20.681305 9.7899674 28.26853 17.6219413 7.831974 7.831974 13.58358 16.1534463 17.254818 24.964417C510.042007 98.144422 512 107.077767 512 116.378236v103.161782h-34.876759V118.213855c0-5.384482-1.101371-10.646589-3.304114-15.786322-1.957993-5.3844823-5.017358-10.4018406-9.178094-15.0520752-4.160736-4.8949837-10.034716-8.5662215-17.621941-11.0137133-7.587225-2.4474919-16.765319-3.6712378-27.534283-3.6712378-1.713244 0-3.548863.1223746-5.506857.3671238-1.713244.2447491-3.671238.6118729-5.87398 1.1013713-2.202743.2447492-4.405486.7342475-6.608228 1.4684951-2.202743.7342476-4.405486 1.7132443-6.608228 2.9369902-3.915987 1.7132443-7.7096 4.1607362-11.380838 7.3424756-3.671237 2.9369902-7.220101 6.4858534-10.646589 10.6465896-3.18174 3.9159867-5.751606 8.8109707-7.709599 14.6849507-1.957995 5.629232-3.18174 12.115085-3.671238 19.457561 0 9.789967 1.34612 18.356189 4.038361 25.698664 2.692241 7.097727 6.730603 13.094082 12.115085 17.989065 5.629231 4.650235 11.380837 8.443847 17.254818 11.380838 6.118729 2.692241 12.482208 4.405485 19.090436 5.139732h1.835619c.489499.24475.856622.367124 1.101371.367124h5.139733c2.93699 0 5.629231-.122374 8.076723-.367124 2.692241-.489498 5.262108-1.223745 7.7096-2.202742 1.223746-.489499 2.325117-.978997 3.304114-1.468495l3.671238-1.468495c.978995-.734248 2.080368-1.468496 3.304114-2.202743 1.223745-.734248 2.325117-1.59087 3.304114-2.569867 1.223745-.734247 2.325117-1.590869 3.304114-2.569866 1.223745-1.223746 2.447491-2.325117 3.671237-3.304114 1.223746-1.223746 2.447492-2.325117 3.671238-3.304114l3.671237-3.671238v40.016492c-.217555.43511-.43511.773528-.652665 1.015256l-.081583.086115v.367124c-2.936989 1.957994-5.996354 3.793613-9.178093 5.506857-3.18174 1.468495-6.485854 2.814615-9.912342 4.038361-3.426489.978997-7.587225 1.713245-12.482209 2.202743-4.894983.734248-10.524215 1.101371-16.887693 1.101371h-4.772609c-11.258463 0-21.782678-1.957993-31.572646-5.87398-9.545218-4.160736-18.356189-10.40184-26.432913-18.723313-8.076723-8.566221-14.195452-18.356189-18.356189-29.369902-3.915987-11.258463-5.87398-23.863046-5.87398-37.813749 0-12.23746 1.957993-23.618297 5.87398-34.1425117 3.915987-10.524215 9.789968-20.1918078 17.621942-29.0027785 7.831974-8.8109707 17.499568-15.4191987 29.002779-19.8246841 11.503212-4.4054853 24.842043-6.608228 40.016492-6.608228zM253.900511 0v43.3206044h66.816528v31.5726449h-66.816528v89.5782017c0 3.426489.244749 6.485854.734247 9.178095.489499 2.692241 1.223746 5.262107 2.202743 7.709599.978997 2.447492 3.059365 4.283111 6.241104 5.506857 3.426489.978997 8.076723 1.468495 13.950704 1.468495l40.750739-.734248v31.939769H272.2567l-.367124.367124h-2.569866c-8.321473 0-15.541574-1.223746-21.660303-3.671238-6.11873-2.447492-11.136088-6.241104-15.052075-11.380837-3.915987-5.139733-6.975352-10.64659-9.178095-16.52057-1.957993-5.87398-3.181739-11.99271-3.671238-18.356189-.244749-.489498-.367123-.978997-.367123-1.468495V0h34.509635z" fill="#0c022f"/></svg>