<svg width="256px" height="162px" viewBox="0 0 256 162" xmlns="http://www.w3.org/2000/svg" preserveAspectRatio="xMidYMid"><title>Ethers</title><path d="M256 138.738687C122.160964 156.230086 26.6334307 177.238606 25.2203015 91.0063227c0 0 2.920467-33.4126547 43.9012135-35.516647 0 0 1.3817264-29.6757131 32.690389-33.0358202 16.831939-1.8213666 35.956287 15.5130182 38.028876 33.7580862 0 0 41.420387-7.6623005 43.210351 32.7217915.628057 14.0684858-2.543633 37.9974738-42.488085 36.9611788 0 0-23.112513-3.140287-26.2528-38.8767539-6.500394 69.1805249 93.51775 65.1609569 94.962282 2.3238125.628057-27.1634834-16.769133-55.1120385-55.959916-49.8677591-21.479564-54.0443409-78.6641917-50.9354567-99.9553382-.8164746-30.4293819 0-53.698909276 23.4265417-53.35347769583 54.012938C1.16570233 191.118675 138.176428 161.442962 256 138.738687z" fill="#24339b"/></svg>