<svg width="256px" height="256px" viewBox="0 0 256 256" xmlns="http://www.w3.org/2000/svg" preserveAspectRatio="xMidYMid"><title>Ethnio</title><path d="M128 0c70.687347 0 128 57.3126531 128 128 0 70.687347-57.312653 128-128 128C57.3126531 256 0 198.687347 0 128 0 57.3126531 57.3126531 0 128 0z" fill="#24373e"/><path d="M128 46.9681633c44.773878 0 80.979592 36.310204 80.979592 80.9795917 0 44.669388-36.310204 80.979592-80.979592 80.979592-44.6693878 0-80.9795918-36.205714-80.9795918-80.979592 0-44.6693877 36.2579591-80.9795917 80.9795918-80.9795917z" fill="#f8f4ef"/><path d="M128 79.7779592c26.592653 0 48.222041 21.5771428 48.222041 48.2220408 0 26.644898-21.577143 48.222041-48.222041 48.222041-26.644898 0-48.2220408-21.629388-48.2220408-48.274286 0-26.644898 21.5771428-48.1697958 48.2220408-48.1697958z" fill="#8eb0bd"/></svg>