<svg width="256px" height="256px" viewBox="0 0 256 256" xmlns="http://www.w3.org/2000/svg" preserveAspectRatio="xMidYMid"><defs><path id="b" d="M98.1465946 242.921514l-84.7308108-84.732541c-16.70745948-16.707459-16.70745948-43.795027 0-60.5024865l84.7308108-84.7308108c16.7074594-16.70745948 43.7950274-16.70745948 60.5024864 0l84.730811 84.7308108c16.707459 16.7074595 16.707459 43.7950275 0 60.5024865l-84.730811 84.732541c-16.707459 16.707459-43.795027 16.707459-60.5024864 0"/></defs><g style="fill:#fff"><mask id="a"><use href="#b"/></mask><use href="#b"/></g><g style="fill:#f4922e"><path d="M247.195676 102.088649c-1.148541-1.504865-2.368-2.971676-3.744865-4.3485409l-29.875892-29.8758919C153.997838 94.2633514 35.5234595 99.731027 9.22464865 100.613189c.10205405-.121081-8.404756758 15.740541-8.321729731 15.456865C34.2503784 117.711568 197.040432 124.208432 247.195676 102.088649" mask="url(#a)"/><path d="M33.0810811 77.1891892c31.763027-.9703784 102.6940539-6.7078919 154.2399999-37.184l-28.922811-28.16C141.500541-5.61643243 113.544649-4.48864865 96.6486486 12.972973L33.0810811 77.1891892" mask="url(#a)"/><path d="M96.6348108 243.027027c16.7074592 16.707459 44.1219462 19.027027 62.9327572.432432l29.860324-29.860324c-49.753946-29.168432-121.3630271-32.32173-153.9684325-31.761297l61.1753513 61.189189" mask="url(#a)"/><path d="M-1.58616216 136.252541l11.072 21.318918c33.25924326 1.09146 134.87048616 6.169946 205.65967616 28.978163l28.305297-28.305298c2.24-2.24 4.154811-4.677189 5.794594-7.238919C201.174486 127.546811 33.6 134.664649 1.82140541 136.252541" mask="url(#a)"/></g></svg>