<svg width="256px" height="231px" viewBox="0 0 256 231" xmlns="http://www.w3.org/2000/svg" preserveAspectRatio="xMidYMid"><path d="M121.309004 84.6732585c2.0935-3.0858433 4.385288-3.4782414 6.244447-3.4782414 1.859159 0 4.956392.3923981 7.050711 3.4782414C151.106348 107.339593 178.345607 152.492 198.439108 185.798721c13.103424 21.720778 23.167792 38.403226 25.232613 40.526223 7.751275 7.970048 18.38183 3.003005 24.559088-6.037145 6.081392-8.900037 7.769302-15.1494 7.769302-21.816644 0-4.540969-88.104796-168.3997306-96.977794-182.0389433C150.48936 3.31359639 147.710044 0 133.105527 0h-10.928806c-14.56109 0-16.665242 3.31359639-25.1990188 16.4322117C88.1055238 30.0714244 1.105152e-4 193.930186 1.105152e-4 198.471155c0 6.667244 1.6882817548 12.916607 7.7698044348 21.816644 6.17720915 9.04015 16.80768155 14.007193 24.55871095 6.037145 2.0650675-2.122997 12.1294346-18.805445 25.2330226-40.526223C77.654822 152.492 104.806818 107.339593 121.309004 84.6732585z" fill="#000020"/></svg>