<svg width="256px" height="195px" viewBox="0 0 256 195" xmlns="http://www.w3.org/2000/svg" preserveAspectRatio="xMidYMid"><g style="fill:#fec32d"><path d="M195.575035 178.073401c-1.290957 5.533385-1.95337 8.903222-4.708607 12.622692-1.836825 2.480312-4.845074 3.903751-7.910101 3.545152-2.663595-.310786-5.242522-1.452327-7.835393-2.450428-29.985868-11.540918-54.185339-31.861541-78.6338367-51.808622-5.8272374-4.754428-18.1242024-15.761432-25.1079222-21.543845 17.0025837-12.020046 24.0410895-19.4540076 24.0410895-19.4540076 27.3979764 23.7860856 59.3411984 51.6313156 92.6779764 65.5589106 5.312249 2.220327 10.282833 1.501136 7.476794 13.530148"/><path d="M161.689401 88.6736187c-7.712872-6.0951907-21.203175-16.2146615-28.819424-22.0897121-19.353401-14.9286848-39.9937747-27.3880155-63.6722805-34.487284-12.8249027-3.8449806-14.509323-16.7356265-4.8131984-28.12214789 1.7621167-2.0699144 4.517354-3.428607006 7.1789572-2.8717821C115.664187 10.3356265 149.037821 37.35807 186.20165 71.4628482c-12.573883 6.6430506-24.512249 17.2107705-24.512249 17.2107705"/></g><g style="fill:#2c6db0"><path d="M135.123175 120.680591c27.536436-27.871128 81.001588-61.5465832 107.964265-62.7847466 3.151688-.1444358 6.144996 1.4314085 7.800529 4.1169182 2.655626 4.3081713 3.514272 9.4660234 4.307175 14.5382102.766008 4.900856-1.789012 9.0835175-6.436856 10.3854319-32.212171 9.0227548-63.495969 30.9600623-88.888778 51.9042493-8.540638-4.033245-24.746335-18.160063-24.746335-18.160063"/><path d="M120.092887 67.9057432C88.4604514 94.3185681 54.1365292 125.831471 17.0304747 137.113401c-3.1327626.95228-6.5912529.16635-8.84445135-2.20937-3.03115954-3.196513-4.19162646-6.485665-5.42082491-9.687159-4.29322957-11.185308-3.075984432-14.45653 8.03859926-18.733821 26.0900856-10.0427708 47.7982879-26.7325763 68.8012451-44.5728876 3.1805759-2.7014474 9.4889339-7.8881867 12.9683424-10.7490116 11.5060548 3.0839533 27.5195018 16.7445914 27.5195018 16.7445914"/><path d="M63.1035019 165.362054c9.0715642-4.64884 23.0370117-10.135408 32.1414475-15.250428 7.3542726 6.48467 24.3817586 19.402211 24.3817586 19.402211-12.34677 8.253758-32.0388481 20.542754-45.7482955 24.087906-3.3140545.85765-6.8333074-.432311-8.9271285-3.140731-4.0083424-5.18674-6.3262879-10.69323-6.5255097-17.245635-.0996109-3.287159 1.7521557-6.354179 4.6777276-7.853323"/><path d="M136.655191 20.6652763c16.211673-9.8056965 34.45242-17.16893389 46.951595-19.843486417 3.437572-.7351284044 7.029541.766007787 8.916171 3.732420237 3.586989 5.63897278 5.078164 11.30583658 4.711596 17.50462258-.180296 3.0580545-1.875674 5.833214-4.563176 7.3004825-7.841369 4.2822723-21.807813 7.6212295-29.834459 11.1245447 0 0-14.154708-11.940358-26.181727-19.8185836"/></g><g style="fill:#fec32d"><path d="M233.097463 101.67284c21.894475 8.503783 29.970926 11.387518 13.997323 33.451331-1.872685 2.585899-4.848062 2.602833-7.955922 1.868701-9.962086-2.35281-27.640031-12.53902-37.425806-18.231783 18.037541-12.478256 31.384405-17.088249 31.384405-17.088249"/><path d="M25.6717198 91.7884514C20.2648405 90.2424903 9.97802335 88.6108638 5.26742412 85.74207c-2.12968093-1.2969338-3.5620856-3.5551128-3.86789105-6.0294474-.77397665-6.2565603.83274709-11.8915487 3.8838288-17.5614008 1.66748638-3.0969027 5.07119063-4.8889027 8.56753303-4.5014164 10.4989884 1.1664436 29.4728716 9.1004514 39.7447471 13.7971051-14.875891 13.6984903-27.9239222 20.3415409-27.9239222 20.3415409"/></g></svg>