<svg width="256px" height="256px" viewBox="0 0 256 256" xmlns="http://www.w3.org/2000/svg" preserveAspectRatio="xMidYMid"><title>Facebook</title><path d="M256 128C256 57.3075 198.6925 0 128 0 57.3075 0 0 57.3075 0 128c0 63.8885 46.80775 116.8425 108 126.445V165H75.5v-37H108V99.8c0-32.08 19.1095-49.8 48.3475-49.8C170.35175 50 185 52.5 185 52.5V84h-16.1405C152.95875 84 148 93.86675 148 103.98925V128h35.5l-5.675 37H148v89.445c61.19225-9.6025 108-62.5565 108-126.445" fill="#1877f2"/><path d="M177.825 165l5.675-37H148v-24.01075C148 93.86675 152.95875 84 168.8595 84H185V52.5c0 0-14.64825-2.5-28.6525-2.5C127.1095 50 108 67.72 108 99.8V128H75.5v37H108v89.445c6.51675 1.0225 13.196 1.555 20 1.555 6.804 0 13.48325-.5325 20-1.555V165h29.825" fill="#fff"/></svg>