<svg width="256px" height="308px" viewBox="0 0 256 308" xmlns="http://www.w3.org/2000/svg" preserveAspectRatio="xMidYMid"><title>Faker</title><g style="fill:#797979"><path d="M43.5048592 91.6503792c1.6332779-1.3575297 3.1016543-1.8248648 3.1016543-1.8248648-.1710597 3.1310767.2230619 5.7920813.9346702 8.0363844.4967573 1.6141193 1.2138396 3.1529722 2.1300353 4.5713992 2.7082171 4.169751 6.1957821 5.802345 6.1957821 5.802345.4160172-8.020647 4.5296607-10.7302326 4.5296607-10.7302326-.6821861 4.6829306-.6377106 16.6810566 3.458827 26.2015556 4.7787236 11.086721-.1560065 10.589279 6.4927417 24.495064 8.3702929 17.482985 32.0935355 17.268134 32.0935355 17.268134-13.6019826 3.917267-28.6285504-.824508-35.9895911-13.001906-2.9011724-4.815672-4.0739576-8.769888-4.6008215-12.213662-3.3541385-1.127625-8.8369438-5.876927-9.1708523-6.173202.2661689.059529 4.6227172 1.053044 8.7178862 1.068781-.1402689-2.991492-.2141667-5.644286-1.2911585-8.317606-3.9617425-.481705-8.2512354-3.124235-8.2512354-3.124235-.4372286 7.688107-4.3811809 11.516423-8.8444704 12.847267 0 0-1.1317309 5.821504-1.1317309 5.821504C46.1904964 148.157554 57.061682 156.6688 57.061682 156.6688c0 0-9.1339034-2.84917-16.1019858-9.601922-.8485929 4.348337-1.6971174 8.696674-2.5457104 13.045012 4.4456362 3.591569 9.0820381 6.693908 13.5159054 9.42402 13.0450122 8.036385 30.8584844 11.69022 35.4723065 11.467842 4.4372884-.787559 9.0155301-1.758493 13.5636653-2.842328-4.6671928-1.075623-15.7675984-3.861159-21.9565381-7.263878 4.5713992.22922 22.2979731 2.574106 39.2842011 2.67811 15.879129-4.585768 28.286431-9.127061 28.286431-9.127061 0 0-6.535165-9.134588-1.900132-19.804607 4.635718-10.670704 14.56676-13.209229 19.337957-13.88731 4.044535-3.049652 9.4466-14.544179 10.099364-25.036297.675344-10.9457675-6.990183-14.7227655-11.382312-20.406737-4.392813-5.6839715-7.235825-13.1113834-12.949219-20.4432072 5.343221 2.6340456 8.867735 7.3913526 8.867735 7.3913526.756768-1.9959245 4.719194-13.2312621 1.238472-20.0358798-3.836527-7.4796193-12.502411-10.8488795-12.502411-10.8488795.971619-1.1138723 3.471828-2.2553194 3.471828-2.2553194-12.549624-6.3077235-24.034572 1.9145001-24.034572 1.9145001-.326382-1.8565451-.096477-3.8512379-.096477-3.8512379-6.396264 5.3795536-8.20676 15.3974251-8.20676 15.3974251 13.542454-.0891563 18.364969 5.1499915 18.364969 5.1499915-14.565391-2.5085562-30.920066-1.1725799-43.5949055 5.2533116-12.674839 6.4255495-24.0277287 19.7907855-24.0277287 19.7907855 1.5368002-7.6956335 5.5662824-11.1606186 5.5662824-11.1606186-6.708277-5.2542696-13.8318868-4.392813-13.8318868-4.392813 1.3431607.9720296 2.8566968 3.4944074 2.8566968 3.4944074-2.9025408.1696913-5.7489741.8689833-8.3997151 2.0629799-1.1768907.5254954-2.3086217 1.1461-3.384245 1.8570241-2.9237523 1.9069734-5.2973766 4.341495-6.9156013 6.9156013-2.2484086 3.5470938-3.0716163 7.3521456-1.9966087 10.4038505.1135836-.106057.2326411-.2100613.3441721-.306539zm68.2972928-3.9549001c0 0 1.958976-6.6487481 8.949159-9.6463982 6.990184-2.9983343 20.963708-.6082883 28.896088 7.969329 7.93238 8.5783015 5.609389 17.7053621-.884037 21.2004541-9.883829 5.313114-13.482925-.511811-21.644525-3.29461-8.162284-2.782114-18.150117-5.0086275-15.316685-16.2287749zm5.750343 22.6551459c4.801303-.675344 6.418844 2.381835 4.615875 6.559113-1.802969 4.177278-4.415393 6.163623-6.641222 6.693223-4.430446 1.040043-9.728507-2.797168-9.862617-5.765395-.134111-2.968228 7.088029-6.819124 11.887964-7.486941zm2.619266 17.385823c3.383561 2.041084 10.908135.43107 11.39805-8.845155 0 0 4.333284 5.668919-.452967 10.588595 1.328792 1.862498 3.458143 11.970073-4.102695 15.902394-8.303922 4.325757-14.054949-4.370918-15.294105-6.796544-5.617601-.572024-6.641222-5.625127-6.641222-5.625127 10.477749 5.053103 15.093623-5.224163 15.093623-5.224163h-6.84e-4zM71.5901239 114.49848c1.1139407-12.926639 10.7302324-25.1403006 22.1207553-22.4019771 11.0340348 2.6562149 9.0901118 12.8000551 6.7226458 19.3447991-2.367466 6.544743-1.5730648 10.106206-3.3979296 15.05599-1.8255491 4.949099-6.5529548 8.815732-12.8082656 8.429137-8.0384371-.496757-13.623194-7.939223-12.6365217-20.427949h-6.842e-4z"/><path d="M179.128511 127.483964c0 0-2.538526 5.917981-13.053223 7.97754-11.745643 2.301779-19.783396 10.78155-14.37312 18.119327 5.535492 7.510204 19.367378 5.528649 19.367378 5.528649-12.429197 6.819124-21.838848-1.06057-21.838848-1.06057 4.401023 10.619386 20.496372 14.046053 33.481855 3.286399 12.9848-10.759655 14.128163-24.39106 14.128163-24.39106-1.550485 3.473196-4.785566 7.220088-4.986048 7.450676.177218-.43107 4.073273-9.973464 3.53204-17.222974-.55697-7.42057-6.330577-13.104541-16.518208-17.682783-.452966 10.403167-8.014489 20.480635-8.014489 20.480635 3.354823-.503599 8.2745-2.485839 8.2745-2.485839z"/><path d="M109.361473 119.292257c3.576516 2.834117 6.284733 1.65449 8.652199-.994199 2.367466-2.649372 1.624383-4.867674-1.870025-3.829684-3.495091 1.03799-5.261112 2.079402-6.864283 3.057863-.378384.230588-1.209734.741715.082109 1.76602z"/><path d="M161.275353 190.434615c7.486256 4.015113 19.492594 13.877047 23.284645 33.369641-.392753-.830666-12.847267-27.002115-40.398141-28.00384-30.506102 8.866366-62.3909444 14.869877-68.0243551 14.73645-.0957206 4.756828 9.0539203 60.597554 12.8904471 79.459965 21.05129 11.041561 52.131468 6.448266 65.670501 3.109181 23.471442-6.633695 39.269147-33.96356 39.269147-33.96356-1.165259 13.69846-10.767866 24.62849-11.064825 24.97061 13.853098-6.493426 32.642295-22.967159 35.394987-29.081517-8.152705-26.31377-16.304725-52.626857-24.45743-78.940627-7.833166 5.035997-19.527491 9.918725-32.564976 14.343697z"/><path d="M32.9454127 135.72083c-1.3367289-.682186-2.3890197-1.579907-3.0054504-2.611739 0 0 1.3582824.459808 3.3173264.68287 1.1131881.128637 2.2360924.150533 3.3535911.066371 1.3426818-.110846 2.7528979-.407806 4.1036536-1.023621 1.3676565-.609657 2.5802645-1.520379 3.5464096-2.663742 2.7827991-3.287767 3.3103472-7.539627 2.2641461-11.621111-.4481764-1.731808-1.140626-3.391087-2.0561375-4.927203-1.0195158-1.732493-2.2980843-3.298715-3.7915039-4.644613-.9208485-.84093-1.9283217-1.582644-3.005382-2.21146-1.1897543-.70066-2.467365-1.23984-3.7992358-1.603171-10.3298159-2.782799-22.6623987 9.987833-16.2632608 27.515294 2.8271377 7.754478 7.3236813 14.291695 12.5850669 19.86482l2.7507767-16.822695z"/><path d="M200.395336 124.638899c0 0 6.804755 17.498038-10.916345 36.887312-11.50137 12.243769-29.859496 15.211997-39.507263 6.856757 0 0-29.310736 10.951926-53.6169502 15.679332-24.2952661 4.726721-41.9999444 5.787975-37.8821955-5.595021-1.8317072-.779348-4.0356402-1.944607-6.2026244-3.175552-12.1843083 4.258702-15.1971485 13.912627-12.0305599 20.873388-6.3524043-3.464985-9.4839599-15.144257 5.7287207-24.636017-1.68528-1.053044-2.7910099-1.781758-2.7910099-1.781758 0 0-13.3863105 5.535492-19.2633742 15.241419-5.8770637 9.705927-1.2387459 19.352325 11.2573016 20.962339 12.4960474 1.610014 47.5523368.747189 97.8274648-12.610521 50.275128-13.357025 88.66845-36.917418 93.866612-51.757189 5.198162-14.839771-16.08098-18.239753-26.469777-16.944489z"/><path d="M117.752977 97.0606552c.199798.4550188 2.164247 2.1334565 2.548789 2.5686324.383858.4351754 1.223419.7081874 1.223419.7081874 1.432796.443386 2.864908.886773 4.297704 1.329476 1.432112.443386 4.63777.990093 4.793093 1.08315.154638.092372 3.872107 1.007883 3.872107 1.007883 0 0 7.196139-.204587 7.319302-.204587.123163 0 2.443417-.710924 2.535789-.77319.091688-.062266 2.442048-2.227881 2.442048-2.227881.31954-1.7112815.639079-3.4218784.958619-5.1331596 0-1.5764861 0-3.1536565 0-4.7301426 0-1.5771704-2.628161-5.5341232-2.658952-5.6579705-.031475-.1238472-1.161838-1.7078599-1.161838-1.7078599-.684238-.5432856-1.369161-1.0865712-2.054084-1.6298568 0 0-5.132475-1.7598621-5.132475-1.7598621 0 0-2.433838-.6842388-2.524842-.7054502-.091688-.0205272-3.228238-.2524841-3.321295-.169007-.093056.0827929-3.341822 0-3.341822 0-1.050306-.0444755-2.101297-.0896352-3.151604-.1341108-1.050306-.0444755-3.665467.9538289-3.787261 1.008568-.121795.0554233-3.074969 2.3510444-3.137235 2.4434166-.06295.0923723-1.237104 3.2330283-1.237104 3.2330283 0 0-.49402 2.5487894-.525495 2.6418459-.031475.0930564.650027 5.4417509.650027 5.4417509 0 0 1.192628 2.9121202 1.39311 3.367139z"/><path d="M79.1968063 126.279019c1.329476.494705 2.6589519.990094 3.9884278 1.484798 1.9945561 0 3.9884278 0 5.9829839 0 .1395847 0 3.3856134-1.993871 3.3856134-1.993871.9736718-.663712 1.9480278-1.327424 2.9216996-1.991819.974356-.663712 1.5771704-3.341823 1.6236986-3.71268.0465282-.371542.4173856-4.613822.4173856-4.613822 0 0 1.0243055-3.282293 1.117362-3.549147.0937407-.266853.4132802-1.993871.6315523-2.227881.2182722-.23401.7129768-2.227881.7129768-2.227881 0 0 .6418157-2.412626.6418157-2.412626-.03079-.873089-.061581-1.746178-.092372-2.619266.030791-.904564.061582-1.809128.092372-2.7136913-.556286-.8498246-1.1125719-1.7003334-1.668858-2.5508422-.6192361-.7088714-1.237788-1.4170585-1.8570241-2.1259299-1.1898912-.1731124-2.3804667-.346909-3.5710421-.5200214-.154638 1.9788185-.309276 3.957637-.4639139 5.9364558-2.3804667-.417386-4.7609334-.8347715-7.1420843-1.2521572-3.4081934 1.6585952-6.8163867 3.3171892-10.22458 4.9757842 0 0-.7855062 1.612067-.7855062 1.612067-.6719224 2.334622-1.3445291 4.668561-2.0171359 7.003184.35512 2.426995.7109241 4.853989 1.066044 7.280984.3558042 2.426995 2.9223839 4.544714 3.0612843 4.637771.1389005.093056 2.1793005 1.580591 2.1793005 1.580591z"/></g><g style="fill:#4b4b4b"><path d="M219.026474 246.907578c-1.314423-3.663414-2.628162-7.326829-3.9419-10.990243-1.499851-4.885465-2.999018-9.77093-4.49887-14.656395 0 0-5.612126-16.790535-5.612126-16.790535-1.282948-4.622717-2.565896-9.245434-3.848843-13.867467-1.994556-5.920718-3.989112-11.841436-5.982984-17.762154 0 0-36.300236 15.799757-36.300236 15.799757-6.782174 1.89671-13.565033 3.792736-20.347208 5.689446-5.936456 1.751651-11.872911 3.503986-17.809367 5.256322 0 0-18.299966 3.770155-18.299966 3.770155-6.5953774 1.401321-13.1914392 2.803327-19.7868167 4.204648-2.0821386.598024-4.163593 1.196049-6.2457316 1.794074 17.0669678 7.729845 35.4976233-6.060987 58.7453203 1.85634 23.24838 7.918011 38.46243 25.229936 38.957134 37.597552 0 0 6.121885-6.926549 6.493426-14.406648 6.739752 28.877614-9.090112 54.231397-61.651966 63.877111 0 0 21.211402 1.54638 32.465077-1.050991 11.253675-2.596686 21.024605-5.998037 21.024605-5.998037 4.277176-1.787916 8.554353-3.576516 12.830845-5.364432 3.122866-1.545695 6.245732-3.091391 9.368598-4.63777 3.354138-2.628161 6.708961-5.256322 10.063784-7.884484 3.679151-3.477985 7.358988-6.956655 11.038139-10.434641 1.777653-2.504314 3.555305-5.009312 5.332957-7.513626l-1.993871-8.487982z"/><path d="M107.765828 178.639023c1.57717-.77319 3.153656-1.545695 4.730827-2.318885-4.730827-12.383354-9.461654-24.766023-14.1924809-37.148692 0 0-35.8335846-8.130809-35.8335846-8.130809 0 0-6.18415-1.268579-12.0309704-4.761618 0 0-2.1300353-5.05584-2.1300353-5.05584-5.8787742-10.449695-16.7893036-11.733326-23.4668582-4.003481-6.6776231 7.729845-3.7130901 20.838492 7.6058613 31.598147 11.31902 10.759654 36.9786582 28.506755 67.1556408 31.227973l8.1616003-1.406795z"/><path d="M125.91663 100.058305c6.089041 2.411258 15.099781 7.902274 21.036237 4.466711 5.936455-3.434879 6.011037-11.2044099-1.958976-17.979058-1.454692-1.232314-9.356965-7.2946696-17.845631-6.5529547-8.488667.7417148-13.505505 7.4212537-12.178766 12.5557815 1.326739 5.1338435 5.291902 5.2686385 10.947136 7.5095202zm-1.952133-8.1848639c.311328-3.7694714 3.821473-6.5666395 7.850955-6.2382049 4.029482.3291188 7.04287 3.6387818 6.737699 7.4055162-.021895.3277504-.071845.6527638-.148479.9723033-1.046201-2.2559352-3.361665-3.9357414-6.163623-4.1635929-3.673678-.2969596-6.923128 1.9966087-7.688107 5.2617962-.471441-1.0106207-.673975-2.1259299-.588445-3.2378179z"/><path d="M84.4804981 131.795352c8.9560013-.274379 10.1137333-8.949159 11.5020538-15.812758 1.3876362-6.864283 6.6336951-14.083686 0-19.2490049-7.0873452-5.5204384-19.6499691 3.0797587-20.9117054 15.3974249-.682186 6.648748.4604927 19.946245 9.4096516 19.664338zm-2.1444043-21.704738c1.8029692-3.613465 6.0103534-5.171476 9.3939141-3.490302.9969359.500179 1.848129 1.24942 2.4714705 2.174511-3.1933424-1.031832-6.8321242.563129-8.4811396 3.861159-1.2542097 2.515262-1.0174631 5.365117.3776998 7.426044-.3140656-.098531-.6192361-.222378-.9127745-.370858-3.384245-1.690069-4.6596661-5.986405-2.8491703-9.600554z"/><path d="M112.279751 121.297077c2.227881.834771 2.427679 1.206313 3.942584 0 1.514904-1.205629 3.648361-3.292557 3.648361-3.292557.278485-.592551.556286-1.184417.834771-1.776968 0-.412596 0-.825192 0-1.237104 0-.061581-.680133-1.746862-.680133-1.746862 0 0-.816981-.55697-.866246-.55697-.048581 0-1.174838-.030106-1.499167.062266-.32433.093056-1.067413.1389-1.54638.371541-.478967.232642-4.019219 2.055454-4.019219 2.055454 0 0-2.042452 5.28985.185429 6.1212z"/><path d="M51.0916987 96.828014c.4406498-1.5764861 3.0612843-3.9104245 3.0612843-3.9104245-1.298001 7.7298455 3.0612842 12.3053505 3.0612842 12.3053505 9.5533418 1.360266 13.5732446-1.607277 13.5732446-1.607277 0 0 18.4908686-25.4153653 3.1536565-29.4968496-15.3372121-4.0814843-22.6175127 7.5006254-22.6175127 7.5006254 2.0643484-.8115072 5.8906116-.6958708 5.8906116-.6958708-7.7914269 5.6087052-6.1225685 15.904446-6.1225685 15.904446z"/><path d="M149.9382 72.6969652c1.876183-.6596062 3.751682-1.3192123 5.62718-1.9795028 5.502648-12.861773-3.416404-18.5509447-3.416404-18.5509447 1.862498-.058434 3.727048.003558 5.581336.1856339-8.42298-10.2651553-20.963024-6.4006431-20.963024-6.4006431 1.050307-2.3184063 3.647677-4.6680138 3.647677-4.6680138-10.017255.2472839-17.530197 7.2657263-18.518922 12.6764128 0 0 4.173856 8.2252343 4.173856 8.2252343L149.9382 72.6969652z"/><path d="M176.752834 129.59484c5.240584-2.852591 3.517671-9.46918-.254537-12.624889 0 0-5.93714 9.862618-6.95734 12.995747-1.019516 3.133129 1.971292 2.48105 7.211877-.370858z"/><path d="M148.686728 181.282922c37.580446-8.904684 68.035914-30.918698 70.38559-40.751209 2.349676-9.831827-13.480873-9.770245-13.480873-9.770245-1.298001 5.503332-5.718183 10.311478-5.718183 10.311478 0 0-4.164277 6.440739-5.132475 8.51193.855298-1.831707 1.710597-3.663414 2.565895-5.495121.361278-1.267895.721872-2.535105 1.08315-3.802999.277801-2.184775.556286-4.369549.834772-6.554324-.216904-2.092402-.433124-4.18412-.650027-6.276522-.700661-2.082139-1.401321-4.163593-2.101298-6.245731-1.474534-2.236093-2.948384-4.472869-4.422235-6.708962-1.257631-.834771-2.514577-1.669542-3.772208-2.504314-.56655.195693-1.133784.392069-1.700333.587762-.56655.196376 9.027846 12.026864 2.443416 27.239545 0 0 .897037-6.214941-.464598-9.894777 0 0-3.739365 15.367319-17.158656 22.416347-13.419291 7.049712-23.223748-5.640181-14.099424-14.902721 0 0-5.194741.710924-6.052776 2.681532-.85872 1.971292-3.28503 2.760903-4.026745 6.223152-.448861 2.13414-.635658 4.314125-.557655 6.492741-.21143 1.726335-.218272 3.471144-.019843 5.198162.329803 2.844381 3.050337 6.060303 3.050337 6.060303.360594.294223.721187.58913 1.081781.883352-2.153983.860088-4.307283 1.719492-6.461267 2.579581-6.863599 2.425626-13.727882 4.851252-20.591481 7.277563-6.585114 1.576486-13.169544 3.153657-19.753974 4.730143-6.4154223 1.453323-12.8315293 2.906646-19.2469521 4.359969-3.9268463.061582-7.8536926.123163-11.7798547.184745-2.4119417-.448177-4.8231991-.896353-7.2351408-1.34453-.9271435-1.623014-1.8549713-3.246712-2.7827991-4.869727-3.625097-1.831707-7.2508783-3.663414-10.8759753-5.495121-1.398584.36333-2.7978523.726661-4.1971206 1.089992-1.9993457 1.237788-3.9980072 2.475576-5.9973529 3.713364-1.999072 1.237788-5.8748057 8.037753-4.8232675 12.550307 1.0819868 4.698668 2.4729073 15.644436 45.1406688 8.718571 42.6677612-6.925181 66.5169042-17.194236 66.5169042-17.194236zm41.047484-24.178946c.665764-.873773 1.331528-1.746861 1.997293-2.620634-.881984 1.308948-1.848129 2.719164-2.80059 4.167014-2.36336 3.592253-5.809871 4.793777-8.35866 6.747278 1.508062-1.157047 3.016124-2.313411 4.524871-3.470459l4.637086-4.823199zm-15.675226 10.852711c2.026031-.747873 4.052062-1.495746 6.078093-2.243619-2.153984 1.503273-5.022313 2.464628-9.034689 3.314453l2.956596-1.070834zm-20.125515-.401648c0 0 8.472928 2.562474 8.472928 2.562474-2.220354 0-4.045219-.277116-5.529333-.754715-2.726692-.877194-6.081514-4.360654-6.105463-4.384602l3.161868 2.576843z"/></g><g style="fill:#383838"><path d="M118.89634 119.569374c1.638752-.77319 1.406795-2.411942 1.423217-2.489261.016421-.077319.400964-1.05099.571339-2.009609.17106-.958619-.757452-1.206313-1.930238-1.839234-1.173469-.633605-3.462932-.216904-3.462932-.216904-.360594.370858-.721872.7424-1.082466 1.113941 3.494408 1.947344-.834087 4.143066-1.144047 7.668264 1.759862.663712 3.984322-1.454007 5.625127-2.227197z"/><path d="M69.6893086 116.631937c0 .185429 1.2056287 8.440769 1.3458976 9.996044.1395847 1.554591 2.4571015 6.00488 2.5987389 6.375053.1416374.370857 8.6720422 5.936455 9.4151255 6.261469.7423991.324329 5.9357714.416701 6.0753561.324329.1395847-.093057 6.8635991-4.084221 7.0024996-4.220385.1389005-.136163 3.7571551-10.342269 3.7571551-10.342269-.6650801-3.462932-1.3301602-6.925865-1.994556-10.388797-2.272357.047212-7.9611182 10.528382-13.4343441 10.990927-5.4725417.462546-8.3785038-4.823199-9.9549899-11.996074-.002737 6.84e-4-4.8108828 2.814274-4.8108828 2.999703z"/><path d="M143.074601 113.632918c.185429 0 8.719255-1.422532 10.636492-2.041084 1.917237-.618552 4.884781-5.008628 4.884781-5.008628.990093-2.927173 1.980187-5.853662 2.97028-8.7808359.990094-2.9264893-2.349676-6.1218843-2.411257-6.3079973-.061582-.1854287-8.906736-12.3662474-14.101477-14.6796586-5.194741-2.3134113-3.648361-1.2706314-4.266229-1.4560602-.617868-.1861129-3.463617 1.2986852-3.58678 1.4560602-.123163.1573749-.30996 4.2942825-.30996 4.2942825 8.843102 4.6377704 10.713811 14.6557103 5.844084 17.9482673-4.870412 3.293241-9.740824.4645981-16.10835 2.365413 0 0 .98941 4.604243 1.113941 4.793093.125216.188166 15.148362 7.417148 15.334475 7.417148z"/><path d="M59.1000293 88.5275135c-.988725 3.1187603-.8655621 7.9303274.0150532 11.3385207 0 0 .0465283 1.6004348.0465283 1.7393348 0 .138901 12.1048681-5.2871128 12.1048681-5.2871128 2.3654135-3.1536565 4.7308269-6.3073131 7.0955561-9.4609696 2.3654135-3.1536565.974356-6.4003695-6.3996852-8.6727264-7.3740413-2.272357-11.4432093 2.2880944-11.4432093 2.2880944 1.051675-.0622657 2.5357889.309276 2.5357889.309276-5.7510269 3.8495273-6.5550074 9.6621357-6.5550074 9.6621357.5289165-.8039806 2.6001073-1.9165528 2.6001073-1.9165528z"/><path d="M147.001448 70.9480509c0 0 2.73627 1.1591005 5.009312-4.0346823 2.272357-5.1938513-3.165973-10.3305002-3.165973-10.3305002.839561.2600107 1.664069.5656602 2.470102.9156483-3.9419-7.9756924-12.152765-6.7697216-12.152765-6.7697216.614446-.8227971 2.273041-1.7161392 2.273041-1.7161392-8.533826-1.9939402-13.758673 5.5346706-13.758673 5.5346706-.129321 1.1387101-.257958 2.2773519-.387279 3.416062 1.546379 2.1951749 3.092075 4.3903497 4.63777 6.5855245l15.074465 6.3991379z"/><path d="M174.611851 121.331289c-1.937765 2.658952-3.875529 5.318588-5.813293 7.97754-.082109 1.030463-.164902 2.060927-.24701 3.09139 2.236092-.886773 4.472869-1.772862 6.709645-2.659636 2.814274-3.678467 1.26721-6.958024-.649342-8.409294z"/><path d="M151.987496 157.931221c-.990094-.541233-1.980187-1.082466-2.970281-1.623015-.517969.270275-1.035253.540549-1.553222.811508 0 .710924 0 1.422532 0 2.133456 0 .069792.927144 2.202565.927144 2.202565.96546 1.314422 1.930237 2.628161 2.895698 3.942584 1.600435.896352 3.200185 1.793389 4.800619 2.689742 2.101982.478967 4.204648.958619 6.306629 1.437586 1.399268.1389 2.798537.278485 4.197805.417385 1.398584.138901 5.495122-.950407 5.588862-1.0202.093057-.069792 4.637771-1.506693 4.729459-1.623698.092372-.116321 2.983965-.981199 8.243024-2.929226 5.259059-1.948028 9.276225-6.306629 10.698073-8.378504 5.163266-2.658952 11.393944-10.744602 3.044863-13.016959 0 0-1.79339-1.020884-1.187839-4.266228.604867-3.246029-1.406795-5.936456-3.355507.417385-1.948712 6.353842-8.919736 13.248231-8.919736 13.248231.866246-1.792705 1.221366-7.872167 1.221366-7.872167-3.895371 5.705183-11.424735 15.752545-21.565838 15.691648-3.184447-.321592-6.368894-.643869-9.554026-.965461l-3.547093-1.296632z"/><path d="M165.413629 171.682367c-4.931309-1.71607-9.863302-3.432141-14.794611-5.148212-.711608-.195008-1.422532-.3907-2.134141-.586393-4.760933 1.906289-9.522551 3.811894-14.284168 5.718184-4.379813 1.298685-8.760309 2.59737-13.140122 3.896055-1.191259.299697-2.383203.600078-3.574463.900458 1.831707-.589129 3.663414-1.178259 5.495121-1.767388 2.7828-.8813 5.565599-1.761915 8.348398-2.643215 0 0 18.451867-6.908759 18.451867-6.908759-.896353-1.623698-1.792706-3.246713-2.689743-4.869727-.509758-2.535105-1.0202-5.070209-1.529958-7.605998-.386595-.463914-.77319-.927828-1.159785-1.391742.484442-1.210418.968883-2.421521 1.452639-3.632623-14.530494.70066-29.060989 1.401321-43.591483 2.102665-14.530495.700661-37.659134-9.02853-43.7817026-13.790148 0 0-5.132475-1.391057-6.9251806-2.349676 0 0 1.9008153 3.989112 4.4290776 5.889927 0 0-6.6555906-2.921015-10.4127457-6.052091.6568693-1.530643 1.3144227-3.0606 1.9712919-4.591243-.1163205-.487178-.2319569-.974356-.3475933-1.461534-.1156363-.486493-2.2278814-10.481169-12.8614993-8.254656-10.6334811 2.226513-8.1939646 17.066968-.8353872 22.075595 0 0 3.8036834-.494704 8.4412485 4.019219 4.6377704 4.513923 7.0415012 6.346315 7.0415012 6.346315 1.4533232.919616 2.9059621 1.839918 4.3592853 2.759534 5.7393948 3.872792 16.4408892 9.229013 24.9747152 12.336141 0 0-7.6840014.510442-12.691945-.296959 0 0 15.6752261 6.18415 27.856729 7.791427 12.182187 1.607961 17.345453 3.772208 17.345453 3.772208.756084-.123847 1.512168-.247694 2.268251-.371542 0 0-4.185488 1.059202-4.185488 1.059202-4.091748 1.082466-8.182812 2.164931-12.2738753 3.247397-3.7824719.649343-7.5649439 1.298685-11.3474158 1.948028-4.3490217.381121-8.6987276.762242-13.0477492 1.143363-3.4424053-2.617898-6.8848105-5.235111-10.3265316-7.853008-2.5255253-.474862-5.0503664-.94904-7.5752074-1.423901-5.8433992 3.773577-9.2132751 13.573928 3.0298093 17.592463 12.2437686 4.019218 57.446635-1.606593 93.806399-20.158359 0-.003421 11.0833 1.016779 14.239009-1.441007z"/><path d="M217.805107 244.417633c-.824507-2.947016-1.649015-5.894033-2.474207-8.841733 0 0-4.32781-12.243085-4.32781-12.243085-1.308949-4.266913-2.617898-8.533826-3.926847-12.800739-.968882-3.133129-1.937764-6.266258-2.906646-9.399388 0 0-2.999018-10.481853-2.999018-10.481853-1.122836-3.638782-2.246356-7.277564-3.369876-10.916346-1.133784-2.215565-2.267568-4.43113-3.401351-6.647379-2.071191.927827-4.142382 1.854971-6.213573 2.782799-3.071547 1.534747-6.143095 3.069495-9.214643 4.604242-4.678825 1.948028-9.356965 3.89674-14.03579 5.844768-4.245702 1.205629-8.492088 2.411257-12.737789 3.616886-4.245702 1.205629 9.460969 3.772209 12.057656 6.786965 2.59737 3.014071 7.512941 4.775986 9.229696 7.652526 1.716071 2.875856 4.034272 4.591242 4.915572 6.817071.881983 2.225829 2.227881 3.238502 3.200184 6.121884 4.034956 8.116441 7.605999 17.64036 7.791427 21.659579 0 0 2.288095-7.854377 2.350361-17.006071 0 0 11.036771 33.856135-5.07021 50.768464-15.645804 16.509998-7.854377 15.984502-2.938121 13.696408 4.916256-2.288095 13.88252-7.915274 13.88252-7.915274 3.050337-2.400994 6.100673-4.802672 9.15101-7.203666 2.638424-2.452996 5.277533-4.905308 7.915958-7.358304 2.050664-2.546052 4.102012-5.09142 6.153359-7.637473.071845-.463914.143006-.927828.214851-1.391742l-3.246713-10.508539z"/></g><g style="fill:#a7a5a5"><path d="M115.000969 258.640905c-4.084906-32.093536-30.331621-44.986647-40.7204183-44.569261 4.0814843 25.574792 8.1622844 51.150269 12.2437686 76.725746.2374309.288065.4741775.576813.7116084.865562 5.1530022 1.792706 10.3060044 3.586096 15.4596913 5.378801 33.143841-9.02853 19.168949-48.912809 15.39674-53.67511.680134 9.151009-3.09139 15.274262-3.09139 15.274262z"/><path d="M229.623964 132.980454c-.688344-1.10573-1.376004-2.210776-2.064349-3.315821-1.128309-1.074939-2.257303-2.149194-3.385613-3.224133-1.592224-.695187-3.184447-1.391058-4.776671-2.086244-2.72806-.479652-5.456804-.958619-8.185548-1.43827-.255221.286012-.509758.572023-.764979.858035 13.727198 2.782799 16.878117 16.231512 6.770542 31.721994 1.414322-.610341 2.829328-1.221366 4.243649-1.831707.91209-1.035938 1.824181-2.071191 2.736271-3.107128.91209-1.035938 3.432142-4.313442 3.455406-4.381181.02258-.068424 1.809127-4.638455 1.809127-4.638455.13069-1.329476.262064-2.658952.393437-3.989112l-.231272-4.567978z"/><path d="M32.4485869 200.390974c-10.3884551-8.410663-4.6376335-19.016364 8.5340997-31.07402 0 0-6.4607193 2.56658-14.8715876 9.153062-8.4108683 6.585798-7.7299139 12.243084-7.7299139 12.243084.2163563 2.400994.4327126 4.802672.6490689 7.203666.2163563 2.400994 2.9986765 5.317904 3.4939969 5.813293.4953205.495389 6.8320558 3.26724 6.8320558 3.26724 2.3808088.383858 4.761686.767716 7.1424948 1.15089 2.3808088.383858 10.2951934 1.701017 10.4190407 1.701017 2.2675673 0 4.5344503 0 6.8020176 0 5.0298392-1.020884 10.0589942-2.041084 15.0888335-3.061968 5.0291549-1.020885-25.9716512 2.013714-36.3601064-6.396264z"/><path d="M33.3501399 153.823735c-16.7630972-16.046083-18.5653822-32.942675-12.8673154-40.495987 5.6980668-7.553312 13.6975708-8.10823 18.3967858-6.623431-.7059975-.927828-1.4119267-1.854972-2.1179243-2.7828-1.4604392-.355804-2.9209469-.711608-4.3814545-1.066728-1.4918458 0-2.9838285 0-4.4757427 0-1.483977.470072-2.9679541.940144-4.4519996 1.410901-1.7161392 1.445112-3.4323469 2.890224-5.1484862 4.336021-.9506129 1.68528-1.9011574 3.37056-2.8517019 5.05584-.6569377 1.81597-1.3139437 3.632624-1.9708814 5.449278 0 1.430059 0 2.860118 0 4.290177.2549474 2.256619.5098947 4.513239.7649105 6.769858.6955972 1.932975 1.3911259 3.865265 2.086723 5.797555 1.1981021 2.442733 2.3962042 4.885465 3.5943063 7.328197 1.7315346 2.759535 3.4630693 5.51907 5.1945355 8.277921 1.445386 1.584697 2.890772 3.16871 4.336158 4.752723 2.6048285 2.195722 5.2097256 4.39076 7.8145541 6.586482 0 0 8.3944466 5.572441 8.3944466 5.572441 2.4112574 1.38353 4.8231991 2.767061 7.2344565 4.150592 2.6986378 1.35274 5.3965913 2.70548 8.0945447 4.05822 3.8187366 1.298685 7.636789 2.597371 11.4548413 3.896056 0 0 12.8718999 1.623014 12.8718999 1.623014-16.2896725-5.000417-35.2088746-12.336825-51.9726562-28.38633z"/><path d="M43.7949764 95.0503617c.226483-.5049682.4536503-1.0099364.6801333-1.5149046.4228596 1.7311241.8450349 3.4629324 1.2678945 5.1947407.7834534 1.5251682 1.5669068 3.0503362 2.3503602 4.5755052.7834534 1.525852 3.0913908 3.772892 3.1844472 3.957637.0923723.184744 5.441751 3.525198 5.441751 3.525198.0410543-1.174838.0821087-2.35036.123163-3.525198-2.3654135-1.252157-9.2755408-8.6261986-8.1622844-19.1073682 0 0-2.0404.0307908-3.7126795 1.0817815 0 0 .9757245-14.1610056 18.1494334-18.7673011-.272327-.3578568-.544654-.716398-.8169811-1.0742548-.272327-.3585411 7.1845072-1.1513002 13.3371822 2.9607011.3605938-.2374308.7211877-.4741774 1.0824658-.7116083-.2059559-.5980247-.4119118-1.1953651-.6178677-1.7933898-1.2576308-.8142441-2.5152617-1.6283514-3.7728926-2.4424587-1.7413876-.546091-3.4834596-1.092182-5.2248472-1.6382045-1.401321-.1341792-2.8033263-.2683585-4.2046473-.4025377-1.278158.144306-2.5563161.2886804-3.8344741.4329863-.3298031.2886119-.6589219.5772238-.988725.8658358.1238472.4535134.2476944.9070269.3708574 1.3604719 0 0-2.1300353 2.1030763-2.1300353 2.1030763-1.4841139.4331232-2.9682278.8662463-4.4523417 1.2986852-1.7523355 1.432796-3.5039868 2.8649078-5.2563223 4.2977037-.8758256 1.3917417-1.7516512 2.7827991-2.6281611 4.1745408-.6903969 1.4847981-1.3807938 2.9702805-2.0709855 4.4550787-.3195395 1.8241805-.639079 3.6483611-.9586869 5.4725417.2576843 1.4109003.5153686 2.8218007.7730529 4.232701l2.0711908.9880408z"/><path d="M74.8368368 106.258877c-.1389004 1.180312-.2778009 2.35994-.4173856 3.540251 0 .700661 0 1.401321 0 2.101982 3.989112-7.930327 8.301869-15.9537113 22.0297516-15.5205881-.535759-.7677159-1.071518-1.5347476-1.6072769-2.3024635-.8347713-.1443744-1.6695426-.2887487-2.5043139-.4324389-.716398-.1135836-1.432796-.2271673-2.149194-.3407509-1.3192124.2524841-2.6384247.5049682-3.9576371.7574523-.8142441.4385971-1.627804.8765099-2.4420482 1.3144227-.8915631.7677159-1.782442 1.5347476-2.6733209 2.3024635-.897037.9374071-1.7933898 1.8754985-2.6897426 2.8129059-.5672339.736925-1.1337836 1.47385-1.7010176 2.210775l-1.8878148 3.555989z"/><path d="M126.069899 79.3135542c0 0-2.48926-1.0598859-6.478372 1.1207831-3.989112 2.1799847-5.680551 6.4229493-5.680551 6.4229493-.417385.9723033-.834771 1.9446066-1.252841 2.9169099.247695 1.1837331.495389 2.3681504.743083 3.5525677.247695 1.1844174 1.646963 2.991492 1.739335 3.0845484.091688.0937407 2.365414 1.782442 2.365414 1.782442 1.252157.641816 2.504314 1.283632 3.756471 1.9247634 1.190575.123848 2.380466.247695 3.571042.371542-9.894093-5.3808538-9.832511-16.1829313 1.236419-21.1765058z"/><path d="M158.062852 45.9055276c0 0-1.924764-2.202633-1.994556-2.2724254-.069793-.0697923-3.571043-2.9912182-3.571043-2.9912182.695871-.4253228 1.391742-.8505772 2.086929-1.2758316.695871-.4252544-1.716071-1.4852087-1.785864-1.5535642-.069792-.068287-2.991491-1.715455-2.991491-1.715455 0 0-4.845779-1.0173946-4.845779-1.0173946 0 0-7.283722 0-7.283722 0-1.252157.2396204-2.504998.4792408-3.757155.7188612-1.243946.2475576-2.488577.4951152-3.733207.7426044-1.243946.2475576-1.947344-.2554264-1.947344-.4403077 0-.1849497-.162848-1.5305737-.162848-1.5305737 0 0-1.574434.4351759-1.574434.4351759 0 0-2.643898 1.3448713-4.174541 3.9655742-1.529957 2.6207029-3.037336 4.962168-3.037336 4.962168-.664395 1.4763136-1.329475 2.9526272-1.994556 4.4289408-.432438 1.971155-.864877 3.9423101-1.298 5.9134651 1.321949-.1005146 2.643214-.2010293 3.965163-.3014756 1.321265-.1005146 2.0404-8.4405642 5.936456-12.5220485.169691.9119534.340066 1.8239069.509758 2.7358603.170375.911885 9.600554-9.0435839 21.238771-5.1938512-.788243.9507497-1.576486 1.9015679-2.364729 2.8523861-.788927.9507498 12.013864 3.2095588 16.157614 13.1650277.033528-1.0717916.067056-2.1436516.100584-3.2155117-.595288-1.1827067-1.190576-2.3654818-1.785864-3.5481885l-1.692806-2.3422178z"/><path d="M184.752953 121.238917c-1.576486.340066-1.273368 7.759951-6.276522 12.429197-2.323675 2.169037-2.884066 2.052032-3.671625 3.740733-1.31716 2.826591 1.59975 6.261469 7.025764 0 5.426697-6.260785 4.49887-16.509997 2.922383-16.16993z"/><path d="M170.213564 140.168382c-1.144732 0-2.176564.689713-2.614477 1.746862-.437912 1.057833-.195692 2.274409.613763 3.083864.809454.80877 2.026715 1.050991 3.083864.612394 1.057149-.437913 1.746177-1.469745 1.746177-2.614477 0-.749925-.298328-1.469745-.828613-2.00003-.530969-.530285-1.250789-.828613-2.000714-.828613z"/></g><g style="fill:#c6cacd"><path d="M157.097391 73.2635149c-.965461-1.2966325-1.930922-2.5925807-2.896383-3.8892132-.371542-.5042839-.719819-.9719611-1.031148-1.394547-2.923752-3.545999-12.726157-10.0030235-21.430358-11.7763651-2.441364-.4649403-4.882728-.9298121-7.324092-1.3946839 0 0-7.745583 0-7.745583 0 0 0-10.670704.8414084-10.80413.8822575-.133427.040849-10.7589707 3.4361102-10.8999239 3.5236928-.1409532.087651-8.7192547 5.2391479-8.7192547 5.2391479 1.3137384 2.5056139 2.6267927 5.0115016 3.9405311 7.5164997 0 0 8.4284532 4.8396209 8.4284532 4.8396209 0 0 5.0681563 8.9943187 5.1940563 9.3644918.125216.3708575 3.087286 11.3829963 3.087286 11.8729112 0 .4905992-1.974029 10.0172555-2.599424 12.2068195-.625394 2.18888-3.213185 21.125872-5.5279646 25.949072-2.3147797 4.823199-12.4367239 13.452818-17.259923 15.582853-4.8231991 2.130036-3.7995779 8.50372-3.7400492 8.592671.0595288.089635 4.8895703 2.635003 4.8895703 2.635003 1.7612306.628132 3.5224612 1.256263 5.2836918 1.885078 1.4423754.019159 2.8840665.039002 4.3264418.058161 8.2738149 1.157732 22.4608219.490599 34.5314779-2.307938 2.795116-1.746177 5.590231-3.492355 8.384662-5.238532 1.27679-3.202922 2.552895-6.405843 3.829-9.609449.682871-3.650414 1.365741-7.301512 2.048611-10.951926 1.451955-3.863212 2.90391-7.727109 4.355864-11.591005 1.451955-3.863212 5.379486-8.162284 5.662076-8.904683.281907-.741715 4.726722-12.05834 4.726722-12.05834 0 0 1.763967-19.7573948 1.763967-19.7573948l-.474177-11.2742023zm-45.472456 48.7020631c-.089636-.044475-.809455-.422175-.912775-.481704-.10332-.059529-1.02499-.504968-1.232314-.85393-.20664-.348962-.882668-1.142679-.950408-1.216577-.067739-.074582-1.20905-1.024305-1.20905-1.024305 0 0 .163533-1.202207.192956-1.269263.030106-.066371 1.016094-1.135152 1.016094-1.135152.054739-.217588.109479-.435176.164218-.652764.066371 0 1.958291-.459808 2.018504-.504968.060213-.04516 3.5642-1.802969 3.5642-1.802969.846403-.1259 1.692122-.2518 2.537841-.378384.549444-.054055 1.098888-.108794 1.647647-.162849.255221.069108.509758.138216.764295.208009.116321.110846.231957.221693.348278.333224.284643.244957.568602.489231.853245.734188-.04037.175849-.04037.359225 0 .535075.074582.296959 0 1.039358 0 1.039358.023264.25659.032844.513864.030107.771822-.007527.252484-.534391 1.484798-.587077 1.57238-.052686.088267-.926459 1.254894-.970935 1.417743-.04516.163533-.905248 1.016779-1.091361 1.202208-.185428.186113-1.157047.883352-1.254209.972303-.097162.088951-1.594961.630868-1.594961.630868 0 0-1.691438.207325-1.76602.207325-.074582 0-1.486851-.106742-1.568275-.141638zm17.497353 18.2247c-.489915 1.51422-2.367466 2.508419-2.411941 2.57479-.044476.065687-2.990808 1.328108-3.057179 1.350688-.067055.021895-2.508419 0-2.553579 0-.04516 0-3.732523-1.395163-3.732523-1.395163 0 0-2.180669-1.787916-2.227197-1.876867-.047212-.088951-1.76602-4.015113-1.76602-4.015113.301749-.462546.603498-.925091.905248-1.387636 1.614803-.981883 3.230291-1.963766 4.845094-2.945648.41807-.378384.83614-.756768 1.253526-1.135153 2.775957-.170375 5.551229-.341435 8.326502-.51181 2.775272-.17106.927827 2.321622 1.178943 3.917951.2518 1.595645-.270959 3.915899-.760874 5.421908v.002053zm23.66303-40.5301997c-.222378 1.6688587-1.113257 2.9976497-2.537157 4.2073847-1.423901 1.209734-4.207385 2.99765-6.923128 3.457458-2.715744.459809-6.74591-.52618-10.329953-2.559737-3.591569-2.047927-7.42057-3.46567-7.449992-3.592254 0 0-5.936455-1.4540071-7.449992-2.0992443-1.513536-.6452372-3.28024-3.1242342-4.455763-4.9196768-1.175522-1.7954425-1.053043-3.2432918-.585708-5.3801695.467335-2.1375619 3.613465-6.0247224 3.613465-6.0247224 1.22684-1.0119891 2.45368-2.023294 3.68052-3.0352832 1.5238-.2969596 3.0476-.5939192 4.5714-.8908788 1.649699-.1341108 3.299399-.2675374 4.949783-.400964 1.040727.1731124 2.082139.3462249 3.12355.5193373 1.679122.3934373 3.358928.7861903 5.03805 1.1796276 1.679806.3927531 4.548819 2.2853575 4.63777 2.315464.089636.0294223 4.141013 2.9976501 4.141013 2.9976501 0 0 2.136878 2.2928841 2.196407 2.4413639.059529.1484798 2.72327 4.0219555 2.634319 4.1184332-.088951.0964777 1.23163 3.9549001 1.262421 4.1109066.030791.1560064.097846 1.8830251-.117005 3.5525677v.0027369z"/><path d="M52.4369121 30.2994781c-.2086928.3170762-.4173856.6341525-.6260785.9512971-2.2723569 13.6462529-4.5447139 27.2925741-6.8170709 40.9391691.7423991.1197418 1.4847982.2394836 2.2278815.3599096 1.0277266.0540548 2.0554533.1081097 3.0838641.1628488 1.7051231-.7184507 3.4102461-1.4362172 5.1153691-2.1539837 1.7044388-.7177664.4652824-10.0400408 2.8156426-20.55248 2.3503601-10.5124392 3.5245139-17.9943165 3.5245139-17.9943165 0 0-4.6856671-2.8256325-9.3241218-1.7124444z"/><path d="M43.1367387 95.8098667c0 0-1.6290357 1.7454932-1.6290357 1.7454932 0 0-2.0102251 7.5129421-2.0102251 7.5129421 0 0 6.8024967 4.823199 6.8024967 4.823199 0 0 1.6695426-5.348011 1.6695426-5.348011 0 0-3.5559889-8.9361579-3.5559889-8.9361579 0 0-1.2767896.2025346-1.2767896.2025346z"/><path d="M32.5414381 147.513685c0 0-2.0644852 15.773757-2.0644852 15.773757 0 0 1.531258 1.577855 1.531258 1.577855 0 0 3.6863364 0 3.6863364 0 0 0 5.9052543-28.785241 5.9052543-28.785241 0 0-6.461472-.463914-6.461472-.463914 0 0-2.5968915 11.897543-2.5968915 11.897543z"/></g><g style="fill:#a1a5a8"><path d="M175.910536 99.6573414c-1.051675-4.9463621-3.524514-7.1728751-3.524514-7.1728751 0 0-3.341822-3.6483611-5.936456-6.5550074-2.594633-2.9066464-4.575504-6.2443631-4.575504-6.2443631 0 0-3.001072-4.0281137-5.734606-7.7038443-.148479.1765336-.296959.3530672-.445439.530285-13.047749-11.5019854-27.084908-11.1938544-27.084908-11.1938544 8.595408 5.6283931 7.605999 13.0488257 7.605999 13.0488257 14.161689 6.9251807 15.767598 15.9920286 15.767598 15.9920286 0 0-1.081782.0239484-.463914 1.1673114.617868 1.143363.618552 3.7414176 1.298685 6.0603028.680134 2.3195694-.834771 2.3188852-1.33016 4.6377704-.494705 2.319569-1.545011 1.421848-2.936069 2.938121-1.391057 1.515589-4.050009 1.328108-6.98813 2.163563-2.937437.835456-9.430863-2.411941-9.430863-2.411941 3.091391 3.092075 3.712679 11.934492-.363331 14.546916 0 0 .069792.765663.255221 1.878235.186113 1.112573-.996936 3.733891-1.781758 6.006248-.785506 2.272357-.858719 2.365414-.858719 2.365414 0 0 .24701 3.988428.773189 6.585114.525496 2.59737-.556286 4.793092-.556286 4.793092 6.863599 10.698074-2.78622 21.561733-2.78622 21.561733 7.299459-1.688702 13.828466-4.158119 17.812788-7.462308-.062266-.371542-.123847-.7424-.186113-1.113941 1.752336-4.823199 3.504671-9.646398 5.257007-14.469598 1.361635-.824507 2.722586-1.649699 4.084221-2.474207 1.133783-.452966 2.266883-.905932 3.400667-1.359582 1.731124-.597341 3.462932-1.195366 5.194056-1.79339 1.418427-.565181 2.734218-1.358898 3.896056-2.349676 1.856339-1.607277 2.411257-2.598739 3.958321-5.62718 1.54638-3.028441 3.153656-5.070893 4.204647-8.595407 1.050991-3.524514 1.113941-4.885465 1.484798-8.286816.371542-3.401351 1.040728-4.513923-.010263-9.4609696z"/><path d="M51.1847552 71.5837087c1.3705302-.6028143 2.7410605-1.2063129 4.1115908-1.8091273.1190575-1.5510324.2374308-3.1020649.3558041-4.6531658.0520022-.5926192.1033201-1.1851699.154638-1.7777892.0513179-.5926192.897037-4.4051976.9127745-4.4676002.0157375-.0623341 1.5463796-6.7578158 1.5463796-6.7578158.1744809-1.5614329.349646-3.1229342.5248112-4.6843671.4789671-1.7211342.9586185-3.4422684 1.4375856-5.1634026.231957-1.803585.4639139-3.60717.6958709-5.410755.1909026-1.3242757.3818052-2.6486198.5727078-3.972964.0663712-.6131463.1334266-1.2262927.200482-1.8394391-1.3862678-.3040073-2.7725355-.6079461-4.1588033-.9119534 1.8091273 4.8700695-5.4260135 34.0281521-6.3538412 41.4483795z"/><path d="M44.0419866 108.408071c0 0 1.8563398 1.57717 1.8563398 1.57717 0 0 2.0711908-5.318588 2.0711908-5.318588 0 0-2.2880945-2.442732-2.2880945-2.442732 0 0-1.6394361 6.18415-1.6394361 6.18415z"/><path d="M38.7088243 145.200274c0 0 2.7996314-8.841733 2.7996314-8.841733-1.7676625-.099215-3.5353249-.19843-5.3029873-.29696 1.5297526 1.350687 2.7357918 4.037009 2.5033559 9.138693z"/></g><g style="fill:#f6fbfd"><path d="M109.850703 115.426308c1.577855-1.098203 3.15571-2.197091 4.734248-3.295294 9.876987-5.705867 6.381895-9.178379 3.324717-12.1616597-7.97754-12.3696686-3.376034-12.7412102-5.198162-21.3338808-3.59157-18.0610982-26.4684088-14.1801643-26.4684088-14.1801643-3.0722321 3.0669634-6.1444642 6.1342006-9.2166963 9.2009588-5.6244427 4.9757843-14.7590303 18.254122-18.239753 27.530347-.1854287 1.580592-.3701731 3.161183-.5556018 4.741775.1847444 2.562474.3701731 5.124948.5556018 7.687422.2949069 1.516273.5891296 3.032547.8833523 4.548135.2942227 1.516274 2.1745108 6.812282 2.2278814 7.139348.0533707.326382 1.4321118 3.665467 1.4321118 3.665467.3263819 1.995924.6527638 3.991849.9791457 5.988458.4009639 2.765009.8012436 5.530017 1.2022075 8.295711.4009639 2.765008 1.2986852 2.737639 4.4557629 9.001161 3.1570777 6.262837 9.14143 7.419885 9.14143 7.419885 18.3581263 6.485899 40.1155505-1.520379 37.0063695-17.207921 0 0-.468019-1.068097-1.625067-3.761945-1.157048-2.693164-.416017-4.084221-.416017-4.084221 6.819808-7.183139-.140953-11.546529-.140953-11.546529 0 0 .260011-.459809-1.342477-.786191-1.602487-.325697-3.940531-2.136877-5.075683-3.547093-1.135836-1.410901 2.335991-3.313769 2.335991-3.313769zm-9.438389-10.084995c0 .111531-.7875591 3.755786-.7875591 3.755786-.3927531 1.113941-.7861903 2.227882-1.1789434 3.341823-.4577557 1.483429-.9148272 2.967543-1.372583 4.451657-.2004819 1.160469-.4009639 2.320254-.6014459 3.480723-.3092759 1.435533-.6185518 2.871066-.9278277 4.307283-.8429822 1.629857-1.6866486 3.259713-2.5296308 4.890254-1.1898912.927144-2.3797824 1.854972-3.5689894 2.782115-.8587197.262748-1.7174394.524811-2.5754748.787559-.0670554.028738-3.2426075 0-3.2426075 0 0 0-2.3893618-.624026-2.5084194-.691081-.1190575-.066371-2.2921999-1.209734-2.2921999-1.209734-.8730886-.910038-1.7461773-1.820075-2.619266-2.730113-.6041828-1.10573-1.2076814-2.21146-1.81118-3.316505-.3318558-.821771-.6630274-1.642858-.9948832-2.463944-.3311716-.821771.0225799-3.940531 0-4.237491-.0218956-.296959-.3044863-5.097579-.3044863-5.157107 0-.059529 1.1139408-4.281967 1.1577321-4.399656.0437912-.118373.9798299-3.800262.9798299-3.87416 0-.074582 2.544684-4.726037 2.6418459-4.845779.0978461-.119742 3.5395672-3.152972 3.6387818-3.2200274.0998988-.0670554 5.1051055-3.2501342 5.1051055-3.2501342 0 0 2.0404-.303802 2.1594575-.3270661.1190576-.0232641 3.1242343 0 3.1242343 0 1.1597847.3092759 2.3202537.6185518 3.4800384.9278278.759505.5638127 1.5190101 1.1283097 2.2785151 1.6921224.7095556 1.0147261 1.4197955 2.0301365 2.1293511 3.0448626.2476948 1.1139409.4953888 2.2278819.7430828 3.3418219.247011 1.113941-.122478 2.80059-.122478 2.918963z"/><path d="M51.4317654 30.8950395c-.7423991 5.6065157-1.4847982 11.2129629-2.2278815 16.8194786-1.5046411 8.7421082-3.0092821 17.4841481-4.5139232 26.2263932-1.504641 8.7418346 1.1591005 1.5539063 1.2288929 1.5771704.0697923.0232641 1.5306421.1389004 1.5306421.1389004.9038794-1.0893081 1.8084431-2.1786162 2.7123225-3.2672401-1.7755996-2.3380439 1.0208842-10.5744313 2.2278814-17.9946587 1.2076815-7.4202273 4.4523417-20.916495 2.3188852-24.3021085l-3.2768194.8020647z"/><path d="M40.7733096 97.3624045c0 0-.8354556 7.0722915-.8354556 7.0722915 0 0 3.0538261 2.055454 3.0538261 2.055454 0 0 1.7619148-6.6466957 1.7619148-6.6466957 0 0-.942881-4.47629-.942881-4.47629 0 0-3.0374043 1.9952402-3.0374043 1.9952402z"/><path d="M34.8910457 137.193312c0 0-2.4424588 10.72818-2.4424588 10.72818-.3297346 2.700006-.6594693 5.400696-.989204 8.100703-.3296662 2.700006-1.6693373 2.813589-.1856339 5.256322 1.4837717 2.442048 3.4012141-2.488577 4.050283-6.89439.6490004-4.406498 1.5149046-12.17945.2784167-17.315346l-.711403.124531z"/></g><path d="M89.0443707 218.584883c-5.9816153.029422-10.8267101-.40028-14.0542644-1.25421.2127983 1.711965.4249123 3.423931.6377106 5.135212.0075266.052002.0150532.104004.0225799.156006 1.0537277 6.60701 2.1074554 13.21402 3.1611831 19.820345 10.7808661 1.068781 21.4741501 1.045517 31.8259981.177902-5.189951-11.80654-13.697776-19.619863-21.5932073-24.035255z" fill="#df6064"/><g style="fill:#aa282a"><path d="M121.003795 133.331468c0 0-1.988397 2.797168-5.417118 4.415393 3.821474 8.823259 15.642383 5.001101 12.170555-5.395223-3.04281 1.974029-6.753437.97983-6.753437.97983z"/><path d="M52.2384829 54.3720929c-.0444755.2970281-.0964777.5940561-.1560065.8911526.6972393.0964777 1.6428573.4604243 2.2217233.7871483.3715417-1.8401918.75061-3.7435388 1.1139408-5.6216374-.6377106-.2517314-1.590171-.4804724-2.3106744-.5940561-.3113286 1.6493576-.653448 3.1939582-.8689832 4.5373926z"/><path d="M181.599297 217.317672c-.971619-2.879276-2.315464-3.896055-3.198132-6.122568-.881984-2.225829-3.198132-3.939163-4.920361-6.81844-.682186-1.142678-1.862498-2.107455-3.204975-3.044862-10.262213 4.482448-21.571311 8.044595-32.768879 10.74597 11.494528 4.333284 20.859704 10.945083 27.225177 17.987269 6.872494-2.693848 13.171596-5.662076 18.75909-8.756204-.608288-1.350687-1.245999-2.686321-1.89192-3.991165z"/></g><g style="fill:#771c1c"><path d="M198.295407 183.750971c-7.212561 6.945708-17.023176 12.793212-28.019578 17.578778 1.342477.935355 2.524842 1.900131 3.204975 3.044863 1.722229 2.879277 4.037009 4.59261 4.920361 6.818439.884036 2.225829 2.227881 3.243292 3.198132 6.121884.645921 1.306897 1.283632 2.642531 1.89192 3.993218 9.008688-4.987416 16.154878-10.307373 20.829597-15.353634l-6.025407-22.203548z"/><path d="M55.2956617 50.3775754c-.364015 1.8772775-.7423991 3.7620816-1.1139407 5.6022734.8115072.4593979 1.5518535 1.0347743 2.1970907 1.7079968.3852264-1.7634202.7711371-3.5269088 1.1570478-5.2903974-.3400667-.9727822-1.1864701-1.6033083-2.2401978-2.0198728z"/><path d="M125.157125 143.901589c0 0 2.444101-.736925 3.757155-2.921015 1.313054-2.184091.990093-2.335307 1.317844-4.1937.328434-1.859077-1.317844-3.690784-1.317844-3.690784-4.127328 3.061285-6.214941 7.234457-3.757155 10.805499z"/></g><g style="fill:#d63d3d"><path d="M137.50695 212.077772c-18.031744 4.340126-35.781582 6.44895-48.4625793 6.507111 7.8954313 4.415392 16.4059933 12.228715 21.5932073 24.035255 19.84224-1.654489 38.445324-6.403791 54.094549-12.555097-6.365473-7.042186-15.730649-13.653985-27.225177-17.987269z"/><path d="M48.8542379 49.7254958c0 0-.3653835 2.1298301-.3653835 2.1298301 0 1.6817904 0 3.3635809 0 5.0453714 1.1885227-1.4689238 2.5248411-1.803106 3.7475758-1.6174036.0595287-.2970965.1115309-.5941245.1560064-.8911526.214851-1.3434344.504284-2.8961774.8169811-4.5418401-1.7872317-.273285-3.6066226-.1841971-4.3551798-.1248052z"/><path d="M119.35957 143.22214c.351014 0 .702029 0 1.052359 0-.587761-3.277504 2.704796-9.337807 6.275838-11.006665-2.114982-.304486-4.229964-.608973-6.344946-.912775-2.311359 1.948028-4.622717 3.895372-6.934076 5.8434.983935 1.406794 1.967871 2.813589 2.95249 4.220384l2.998335 1.855656z"/></g><path d="M228.332121 149.285864c9.557447-12.614626 4.733564-32.435655-29.957342-30.298777 0 0-5.935771-11.494527-18.96573-15.063517-.326382-7.1085565-4.467395-12.184924-8.363451-15.520588-3.895371-3.335664-6.270364-8.4291374-8.384662-10.4921173 0 0 3.991165-7.8064802 3.308979-17.3342999-.682186-9.5277512-4.838252-15.0416209-8.873893-18.5653822 1.109836-.0965461 2.220355-.1930922 3.330875-.2895698-4.860148-5.9216761-12.554413-11.2135103-29.065779-7.9623498.524127-1.3555454 1.048938-2.7110224 1.573065-4.0665679-9.134588 1.202276-15.75323 8.6886008-19.649285 23.0336667-8.347713-.4009639-26.4314598 6.1511013-35.1212922 15.0260888-4.0438512-3.1687098-13.7874113-5.6839715-21.07387-3.8883237 2.0794016-10.653324 4.1588032-21.3065796 6.2382049-31.9599036-2.0924022-3.9403258-9.5868695-6.4852835-13.3344452-1.2691261-2.5850541 15.8253481-5.169424 31.6507645-7.7543412 47.4762494-.662001.8860892-1.2715209 1.8104958-1.8254122 2.7677459-3.0796219 5.3281673-2.3763613 10.559857-.9275541 14.0994241-.3982954 2.4338374-.7965224 4.8676747-1.1948177 7.3008274-7.3459875-3.1926578-19.181813-2.6931635-25.1182686 10.678231-5.74261074 12.926639 1.6337569 32.071639 15.8281535 46.229224-.2176564 1.337002-.4351759 2.673321-.6527638 4.010323.2517314 2.700007 5.2725387 5.920718 8.7256865 2.923068.3267924.244958.6609747.482389.9950884.720504 0 0-12.7187671 6.900548-19.8278027 16.486049-7.1090356 9.584817-5.00897 25.043823 13.7874113 27.580981 18.7966549 2.537841 37.9703938.615814 37.9703938.615814 4.3661276 26.98843 8.731571 53.97686 13.0970144 80.96529 4.3654434 26.98843 13.9878932 10.12126 37.9184599 11.144881 23.931251 1.024306 80.514377-8.261498 102.774717-47.961032 0 0-25.199146-82.689572-25.199146-82.689572 0 0 20.191202-11.082615 29.741807-23.697241zm-33.050786-22.113229c.541233 7.24951-3.354822 16.791904-3.53204 17.222974.200482-.229904 3.434879-3.97748 4.986048-7.450676 0 0-1.142679 13.632089-14.128847 24.39106-12.986167 10.75897-29.080832 7.332303-33.481171-3.286399 0 0 9.409651 7.879694 21.838849 1.061254 0 0-13.831887 1.980872-19.367379-5.529333-5.410276-7.338461 2.627477-15.817548 14.37312-18.119327 10.514697-2.06298 13.053223-7.97754 13.053223-7.97754 0 0-4.919677 1.981556-8.2745 2.486524 0 0 7.561523-10.077469 8.014489-20.480635 10.187631 4.577557 15.961238 10.261529 16.518208 17.682098zM53.2463666 31.4044553c0 0 3.6579405-1.5736124 6.9060219 1.2683734-2.1074554 10.7993406-4.2149108 21.5987495-6.3223662 32.3980901-.6999763.3560094-1.3595825.7864641-1.9665023 1.2839741.5624443.0996936 1.1064141.2873803 1.6106981.5562177-.1409532.7198192-.2825906 1.4397068-.4235438 2.1593891-.8676148.4153329-3.6654671 1.8700246-6.7075927 4.5857683l6.903285-42.2518127zm-8.1923909 50.1472439c1.6175405-2.5747905 3.9918491-5.0086278 6.9156013-6.9156013 1.0749391-.7109241 2.2073543-1.3322129 3.384245-1.857024 2.6514253-1.1939967 5.4985428-1.8926045 8.4017679-2.0616115 2.9032251-.1683227-1.5135362-2.5245673-2.8566969-3.4944758 0 0 7.1236099-.8613882 13.8318868 4.3928814 0 0-4.0294821 3.4649851-5.5662824 11.1606186 0 0 11.3542582-13.3577094 24.0277288-19.7908539 12.6734708-6.4332814 29.0274618-7.7617994 43.5928518-5.2562538 0 0-4.822514-5.2391479-18.364968-5.1499916 0 0 1.810496-10.0178714 8.20676-15.3974251 0 0-.229905 1.9961982.096477 3.8512379 0 0 11.487001-8.2222236 24.034571-1.9145 0 0-2.500208 1.142884-3.472511 2.2553194 0 0 8.666568 3.3692601 12.503095 10.8488794 3.480722 6.8046178-.482389 18.0395448-1.238472 20.0354693 0 0-3.524514-4.7568964-8.867735-7.390942 5.713394 7.3320974 8.563248 14.7519827 12.948535 20.4434808 4.38597 5.6914981 12.05834 9.4609695 11.382996 20.406053-.652764 10.492802-6.055513 21.986644-10.099364 25.036981-4.771197.674659-14.700186 3.220712-19.337957 13.886626-4.63777 10.666598 1.900131 19.802554 1.900131 19.802554 0 0-12.407301 4.541293-28.28643 9.127745-16.986228-.104004-34.7128019-2.450943-39.2842012-2.678794 6.1889397 3.405456 17.2893454 6.188255 21.9565382 7.264563-4.5481353 1.08315-9.1263769 2.054769-13.5636654 2.841643-4.6158747.223062-22.4320839-3.42872-35.4777804-11.46442-4.430446-2.730797-9.0675322-5.832452-13.5156316-9.424705 0 0 2.5486526-13.04296 2.5486526-13.04296 6.9669191 6.752753 16.102191 9.601923 16.102191 9.601923 0 0-10.8711856-8.510562-15.1820267-14.291011.3784524-1.94187.7569049-3.883055 1.1352889-5.824925 4.4660265-1.328791 8.4072418-5.157792 8.8444704-12.847267 0 0 4.2894929 2.641846 8.2512354 3.124234 1.0769918 2.673321 1.1508896 5.327483 1.2918428 8.316923-4.0958533-.015054-8.4517173-1.009253-8.7185705-1.068097.3332243.29696 5.8167139 5.044892 9.1715366 6.173202.5261796 3.44309 1.6989648 7.39799 4.6001372 12.213662 7.3610408 12.178766 22.3876085 16.919172 35.9895907 13.001905 0 0-23.7232422.214167-32.0935351-17.268134-6.6487481-13.906468-1.7140181-13.409027-6.4927417-24.495063-4.0965375-9.520499-4.1410131-21.518626-3.4581428-26.2015558 0 0-4.1184331 2.7082168-4.5303449 10.7295478 0 0-3.490302-1.633278-6.1957821-5.80166-.9161957-1.419111-1.6332779-2.9572801-2.129351-4.5713994-.7129769-2.2415662-1.1057299-4.9053077-.9353545-8.0370686 0 0-1.4697448.4680193-3.1016543 1.8255491-.1115309.0964776-.2305885.2004819-.3414352.3044862-1.0792498-3.046231-.2559053-6.8526513 1.9918191-10.3997451h6.842e-4zm2.8218008 29.5775898c.1758493-.902511.3510144-1.805706.5268638-2.708217 1.857024 2.352412 4.3633907 4.570715 7.7175291 6.011037 0 0 .5562862 3.717469 1.6544894 5.787976 0 0-4.0965375-1.291843-7.0647653-3.450616-.0020528-.002053-.8847208-2.552895-2.836854-5.64018h.002737zm-5.6915666-12.0131805c0 0 .5269323-.9353544 1.1879069-1.5593802 0 0 .5863927 3.4157197 2.7013747 7.3097227-.1956923.998989-.3907003 1.998662-.5863926 2.99765-1.2076814-1.443744-2.5857383-2.736955-4.1034484-3.850896l.8005594-4.8970965zM17.5040595 132.682126c-6.3968799-17.525408 5.9357713-30.298777 16.2632608-27.515294 1.3319392.364015 2.6095499.903195 3.7992358 1.603171 1.0771287.6295 2.0845334 1.370531 3.005382 2.21146 1.493488 1.345898 2.772125 2.91212 3.7916407 4.644613.9155115 1.5368 1.6079611 3.195395 2.0554533 4.927203 1.0468853 4.084222.5200215 8.333344-2.2634619 11.621112-.9661451 1.143363-2.1788215 2.054084-3.5464779 2.663741-1.3507558.615815-2.7610403.912775-4.1036537 1.024306-1.1174987.084161-2.240403.061581-3.3536595-.067056-1.9589756-.222377-3.317258-.682186-3.317258-.682186.6163623 1.031148 1.6694058 1.930922 3.005382 2.61174-.9176326 5.607336-1.8352652 11.214673-2.7528294 16.822694-5.2615225-5.57723-9.758066-12.114447-12.5852038-19.868925l.0021896.003421zm18.2097149 25.259358c-.4030167 2.065717-.8059649 4.13075-1.2089815 6.195782 0 .005474 0 .010264 0 .015741-1.039564.001365-2.0345156-.422178-2.7535821-1.172788.0569286-.348962.1138573-.69724.170786-1.046201.353683-2.162195.7074344-4.324389 1.0611859-6.4859 1.0148629-6.211519 2.0297943-12.422355 3.0447257-18.63319 1.2335457.260011 2.496103.35512 3.7546918.283275l-4.0688258 20.843281zm-.6453056 48.017825c-12.4960475-1.610014-17.1343653-11.256412-11.2573016-20.963024 5.8770637-9.705927 19.2633058-15.241418 19.2633058-15.241418 0 0 1.1057298.72803 2.7910099 1.782442-15.2126122 9.49176-12.0810566 21.170347-5.7286523 24.635333-3.1687781-6.960077-.1560064-16.614002 12.0304914-20.873388 2.1669842 1.231629 4.3709173 2.396888 6.2026245 3.176236-4.1177489 11.382996 13.5903505 10.322426 37.8828797 5.59502 24.3082668-4.727405 53.6162658-15.679331 53.6162658-15.679331 9.647083 8.35524 28.005209 5.387012 39.507263-6.856757 17.720416-19.389958 10.916345-36.887312 10.916345-36.887312 10.388798-1.298001 31.663149 2.099929 26.468409 16.941752-5.194741 14.841139-43.591484 38.400164-93.866612 51.759926-50.2751283 13.359762-85.3396285 14.216429-97.8282862 12.606415l.002258.004106zm183.1287072 49.070868c-2.754745 6.110936-21.543942 22.587406-35.400461 29.078095.296959-.341435 9.898198-11.27215 11.065509-24.97061 0 0-15.797705 27.328497-39.269147 33.96356-13.542454 3.341822-44.619211 7.933064-65.671185-3.109181-3.8358426-18.86241-12.9861677-74.701084-12.8897735-79.459965 5.6334213.134111 37.5182635-5.866663 68.0243655-14.73645 27.550874 1.001726 40.003336 27.173174 40.398141 28.00384-3.792051-19.491225-15.798389-29.354527-23.284645-33.364851 13.036801-4.422235 24.729073-9.304963 32.567713-14.343697l24.459483 78.939259z"/><path d="M111.720728 138.585738c1.239156 2.425626 6.990183 11.122301 15.294105 6.796544 7.560838-3.935742 5.431487-14.039896 4.102696-15.902394 4.78625-4.919676.452966-10.588595.452966-10.588595-.489915 9.276225-8.013805 10.886239-11.39805 8.845155 0 0-4.61519 10.277266-15.092947 5.224163-.003413 0 1.02363 5.053103 6.64123 5.625127zm9.282383-5.25427c0 0 3.713364.994199 6.753437-.97983 3.471827 10.397009-8.349082 14.218482-12.170555 5.395223 3.429405-1.618225 5.417802-4.415393 5.417802-4.415393h-6.84e-4z"/><path d="M115.527832 123.602961c2.227882-.526179 4.827305-2.515261 6.641222-6.693223 1.814601-4.177962.185429-7.234457-4.615875-6.559113-4.801987.674659-12.030286 4.51187-11.887964 7.486941.142321 2.97507 5.432171 6.801333 9.862617 5.765395zm-6.248468-6.076724c1.603171-.97983 3.369192-2.026031 6.864283-3.057863 3.494408-1.032516 4.236807 1.187838 1.870025 3.829684-2.366782 2.641162-5.075683 3.828316-8.652199.994199-1.291843-1.024305-.460493-1.535432-.082109-1.76602z"/><path d="M127.118837 103.924254c8.1616 2.782799 11.760696 8.607724 21.644525 3.29461 6.493426-3.495092 8.808206-12.614626.884037-21.2004541-7.924169-8.5851439-21.907273-10.9738215-28.896088-7.969329-6.988815 3.0044925-8.949159 9.6463982-8.949159 9.6463982-2.833432 11.2201474 7.153717 13.4459759 15.316685 16.2287749zm.029423-23.9312507c8.487982-.7423991 16.390939 5.3206407 17.845631 6.5529547 7.970013 6.7746481 7.895431 14.555127 1.958976 17.979058-5.936456 3.424615-14.943775-2.055453-21.036237-4.466711-5.655234-2.2408817-9.616976-2.3818349-10.945768-7.5102045-1.328107-5.1276854 3.695574-11.8126982 12.177398-12.5550972z"/><path d="M84.228014 134.926429c6.2553109.386595 10.9827166-3.490302 12.8082656-8.429137 1.8248648-4.93952 1.0393587-8.518773 3.3979294-15.05599 2.358571-6.537218 4.311389-16.6885842-6.7226456-19.3447991-11.3905228-2.7383235-21.0074988 9.4753381-22.1207553 22.4019771-.9866723 12.488726 4.5980846 19.931192 12.6372059 20.427949zm-9.1571675-22.798152c1.2624205-12.3176661 13.8243602-20.9178633 20.9117054-15.3974249 6.6336951 5.1646339 1.3944786 12.3847219 0 19.2483209-1.3951628 6.864283-2.5460525 15.539063-11.5020538 15.813442-8.9560013.275064-10.0918376-13.012853-9.4055462-19.661601l-.0041054-.002737z"/><g style="fill:#040002"><path d="M85.1852641 119.692537c.2935384.14848.5987089.272327.9127745.371542-1.3951629-2.06298-1.6339622-4.912835-.3776998-7.426728 1.6462785-3.29461 5.2898499-4.88957 8.4811396-3.861159-.6233415-.925091-1.4745346-1.673649-2.4714705-2.174511-3.3835607-1.683912-7.5909449-.1259-9.3939141 3.490302-1.8029692 3.616886-.5350747 7.909116 2.8491703 9.600554z"/><path d="M132.238996 89.8474101c2.804011.2305884 5.119475 1.9069734 6.163623 4.1635929.076635-.3195395.1259-.6445529.14848-.9723033.304486-3.7694714-2.715744-7.086661-6.737699-7.4055162-4.021956-.3188553-7.539628 2.4707862-7.850956 6.2382049-.086214 1.1105195.115636 2.2251445.585708 3.2350809.767716-3.2624505 4.017166-5.5560189 7.690844-5.2590592z"/></g><path d="M28.0849226 221.635219c0 0-2.3763613 8.563248-9.3057158 14.187691 6.9315441 5.625127 9.3057158 14.188375 9.3057158 14.188375 0 0 2.3823141-8.563248 9.3124213-14.188375-6.9301072-5.624443-9.3124213-14.187691-9.3124213-14.187691z"/><path d="M7.27763202 158.436189c0 0-1.85654506 6.698013-7.27763202 11.098353 5.42108696 4.400339 7.27763202 11.097669 7.27763202 11.097669 0 0 1.86318218-6.69733 7.28426918-11.097669-5.421087-4.40034-7.28426918-11.098353-7.28426918-11.098353z" fill="#040002"/><path d="M7.27763202 158.436189c0 0-1.85654506 6.698013-7.27763202 11.098353 5.42108696 4.400339 7.27763202 11.097669 7.27763202 11.097669 0 0 1.86318218-6.69733 7.28426918-11.097669-5.421087-4.40034-7.28426918-11.098353-7.28426918-11.098353z"/><path d="M100.567636 26.1682496c0 0 2.197091-7.8946785 8.593355-13.0826453-6.392843-5.1878984-8.58925-13.085604300000012-8.58925-13.085604300000012C100.571741-1.2434497900000002e-14 98.3780719 7.89996389 91.985229 13.0856043c6.3928429 5.1879668 8.582407 13.0826453 8.582407 13.0826453z" fill="#040002"/><path d="M100.567636 26.1682496c0 0 2.197091-7.8946785 8.593355-13.0826453-6.392843-5.1878984-8.58925-13.085604300000012-8.58925-13.085604300000012C100.571741-1.2434497900000002e-14 98.3780719 7.89996389 91.985229 13.0856043c6.3928429 5.1879668 8.582407 13.0826453 8.582407 13.0826453z"/><path d="M192.150943 79.5694595c0 0 1.989082-7.1489268 7.775005-11.8451311-5.785923-4.6963413-7.775005-11.8454733-7.775005-11.8454733 0 0-1.98224 7.149132-7.767478 11.8454733 5.785238 4.6962043 7.767478 11.8451311 7.767478 11.8451311z" fill="#040002"/><path d="M192.150943 79.5694595c0 0 1.989082-7.1489268 7.775005-11.8451311-5.785923-4.6963413-7.775005-11.8454733-7.775005-11.8454733 0 0-1.98224 7.149132-7.767478 11.8454733 5.785238 4.6962043 7.767478 11.8451311 7.767478 11.8451311z"/><path d="M250.511037 134.502201c0 0-1.399953 5.050366-5.485543 8.36345 4.084222 3.316506 5.485543 8.364135 5.485543 8.364135 0 0 1.403373-5.049682 5.488963-8.364135-4.08559-3.315821-5.488963-8.36345-5.488963-8.36345z" fill="#040002"/><path d="M250.511037 134.502201c0 0-1.399953 5.050366-5.485543 8.36345 4.084222 3.316506 5.485543 8.364135 5.485543 8.364135 0 0 1.403373-5.049682 5.488963-8.364135-4.08559-3.315821-5.488963-8.36345-5.488963-8.36345z"/><path d="M236.681202 160.975399c0 0-2.190248 7.897484-8.582406 13.086067 6.392158 5.187898 8.582406 13.086066 8.582406 13.086066 0 0 2.195723-7.898168 8.58925-13.086066-6.393527-5.188583-8.58925-13.086067-8.58925-13.086067z"/><path d="M77.8769097 42.3884719c0 0 1.8631822-6.4406712 7.2837218-10.6721406-5.4205396-4.2329063-7.2837218-10.6728248-7.2837218-10.6728248 0 0-1.857024 6.4406711-7.2782478 10.6728248 5.4205396 4.2314694 7.2782478 10.6721406 7.2782478 10.6721406z"/></svg>