<svg width="256px" height="299px" viewBox="0 0 256 299" xmlns="http://www.w3.org/2000/svg" preserveAspectRatio="xMidYMid"><g transform="translate(7 191)"><path d="M181.222.804v.01l-60.144 35.725-.078-.047v-.004L60.782.814.56 36.488 121 107.842l120.444-71.354L181.222.804" fill="#4cad31"/><path d="M121 36.488l60.218 35.67L121 107.842V36.488" fill="#64b32c"/><path d="M60.782.814v71.344L.56 36.488 60.782.814" fill="#8bbe2d"/><path d="M121 36.488v71.354L60.782 72.158 121 36.488" fill="#76b828"/><path d="M181.222 72.158V.814L121 36.488l60.222 35.67" fill="#5db12e"/><path d="M60.782 72.158l60.296-35.619L60.782.814v71.344" fill="#82bb24"/></g><g transform="translate(135)"><path d="M121 71.354l-.007-.004v-.003l-.003.002L.553 0v71.347l60.222 35.681v71.358l60.218 35.67V71.359l.007-.005" fill="#751f82"/><path d="M60.775 107.028l60.218 35.674V71.347l-60.218 35.681" fill="#934c98"/><path d="M60.775 107.028l-.004-71.354L121 71.354l-60.225 35.674" fill="#8a398d"/><path d="M60.775 178.386l60.218 35.67v-71.354l-60.218 35.684" fill="#b987bb"/><path d="M120.993 142.702l-60.218 35.684v-71.358l60.218 35.674" fill="#a466a7"/><path d="M60.771 35.674.553 71.347l60.222 35.681-.004-71.354" fill="#7b1f82"/></g><path d="M.008 71.35l-.004-.003v.005L0 71.354l.004.002v142.7l60.218-35.67v-71.358l60.225-35.681V0L.008 71.35" fill="#0062ae"/><path d="M60.222 107.028.004 142.712V71.347l60.218 35.681" fill="#007ec6"/><path d="M120.447 71.347 60.225 35.674 120.447 0v71.347" fill="#26b2e7"/><path d="M60.222 107.028 0 71.354l60.225-35.68-.003 71.354" fill="#008bd0"/><path d="M.004 142.712l60.218 35.674v-71.358L.004 142.712" fill="#0071bb"/><path d="M60.225 35.674l-.003 71.354 60.225-35.681-60.222-35.673" fill="#009ddc"/></svg>