<svg width="512px" height="199px" viewBox="0 0 512 199" xmlns="http://www.w3.org/2000/svg" preserveAspectRatio="xMidYMid"><title>Fastly</title><path d="M444.020873 49.1074932v19.9492499h-13.245361l19.510758 48.0008859 19.510758-48.0008859H456.57934V49.1074932H512v19.9485911h-13.246679l-33.988904 83.6198867c-9.741378 23.489472-25.741563 45.597909-50.109338 45.597909-5.991298 0-13.967176-.663833-19.498238-1.992817l2.43032-24.3882.422417.077038c.142364.025322.286219.050282.431367.074868l.439119.072621c.073766.011913.147805.023728.222092.035445l.448502.069109c.07518.011318.150559.022534.22611.033646l.455191.065427c.076145.010694.152414.021282.228781.031762l.689289.091365h0l.460485.057549h0l.459855.054771h0l.458027.051916h0l.455002.048988h0l.45078.045981h0l.445359.0429h0l.438742.039742h0l.430927.036508h0l.421915.0332h0l.411705.029813h0l.400297.026353h0l.387693.022815h0l.37389.019202h0l.35889.015513h0l.342693.011747h0l.325299.007907h0l.306706.00399c.049502 3.34e-4.098179 5.02e-4.146007 5.02e-4 11.300314 0 24.047224-7.001708 28.033845-19.192513l-34.438927-84.7442849h-13.247337V49.1074932h55.448991zM375.311695-1e-14v133.525297h13.260187v20.411133h-40.127136V20.348538L348.440793.00362390179 375.311695-1.4211e-14zM46.0868063 6.58891235e-4c5.9860269 0 13.0812972.883902591765 19.2933238 2.003029358765L61.6982458 23.8505449l-.4486171-.0702348h0l-.6433514-.0975402h0l-.4103019-.0599971h0l-.5894698-.082757h0l-.5605887-.0744375h0l-.5342934-.0665308h0l-.3428641-.0401652h0l-.4962142-.0542705h0l-.4768144-.0474647h0l-.3083756-.028066h0l-.301669-.025347h0l-.4416043-.0331901h0l-.2882542-.0190847h0l-.4250737-.02437h0l-.2796281-.0135869h0l-.2775183-.0116019h0l-.413998-.0139485c-.0459276-.0013322-.0918471-.0025946-.1377745-.0037894l-.2822085-.0065108c-.2511831-.0050732-.5035734-.0082937-.7597653-.0100758l-.5346296-.0017705-.2907493 2.998e-4h0l-.5684824.0025354c-.0933105 6.529e-4-.1859059.0014259-.2777911.0023267l-.5428265.006999h0l-.5260122.0104303c-.1725608.0040891-.3423578.0088109-.5094296.014226l-.4930786.0183861c-7.113045.3019516-9.0249344 2.0638172-9.0249344 10.459383v15.5271014h20.2744128v19.9680283H40.5119276v64.4501055h13.4983753v20.407838l-54.009644008765.0056v-20.413768H13.6406958V69.0755215H0V51.3510179l13.6406958-2.2431952V31.1655554c0-21.73319792 4.7305096-31.164896508765 32.4461105-31.164896508765zM129.526816 28.2855418v6.8241366h-3.278314v9.2791652h-.151874c6.446492 1.1940104 12.502279 3.5021019 17.95547 6.724518l.313937.1869216v-7.8414645h26.870243l.017461 83.6162623h6.422542v26.861349h-28.382399l-4.840874-7.902083c-8.311913 5.007574-18.048019 7.89187-28.459159 7.89187-30.5050173 0-55.2338643-24.728847-55.2338643-55.2338639 0-26.7972317 19.0882674-49.121796 44.4064483-54.1562556l.769111-.1472539h-.186466v-9.2791652h-3.277984v-6.8241366h27.055722zM117.60319 70.2473596v3.1751969h-3.219342v-3.1659724c-14.206166.8280978-25.60739 12.0845626-26.6638332 26.2282776l-.0288392.4294734h3.183433v3.2193429h-3.1999053c.7449293 14.300424 12.0580368 25.799457 26.2773737 26.843462l.431771.028428v-3.149829h3.219342v3.158724c14.007867-.748516 25.31799-11.63706 26.730971-25.458559l.03978-.419723v-.881597h-3.22659v-3.2193423h3.225602v-.9231066c-1.231138-14.0136283-12.625015-25.1086978-26.769763-25.8647755zm10.448698 14.3839251 2.044869 2.0455279-9.260387 10.3538168c.151874.4951568.234894 1.0216109.234894 1.5681612 0 2.8810024-2.273833 5.2157834-5.07478 5.2157834-2.802264 0-5.070827-2.334781-5.070827-5.2157834 0-2.8777075 2.268563-5.2131475 5.070827-5.2131475.532504 0 1.044316.089032 1.526771.2463046l.143848.0492081 10.384785-9.0498711zm206.72416 42.4441263c-1.878114.39626-3.650798.594158-5.274561.697693l-.459843.027104h0l-.451512.022507h0l-.442958.01845h0l-.434176.014932h0l-.634307.01698h0l-.411239.008494h0l-1.908135.028776h0l-.350438.006789h0l-.171138.003962c-8.512509.20928-9.904129-1.896861-10.093963-7.635502l-.012463-.454542c-.00512-.23097-.008648-.467506-.010936-.709685l-.003024-.491908h0l-3.38e-4-.507096h0l.001726-.522424h0l.016626-2.544292h0l.002229-.919874h0V69.0755215h21.04268V49.1074932h-21.04268V-1e-14L287.267025-7.105427337601003e-15v119.706701c0 23.50298 5.800219 34.229399 31.07957 34.229399 3.547861 0 7.882183-.540966 12.117483-1.258588l.792742-.136535h0l.789124-.140142h0l.784209-.143215h0l.777997-.145754c.129077-.024475.25784-.049032.386264-.073663l.766247-.148563h0l.756792-.149767c.125272-.025033.250096-.050093.374445-.07517l.740178-.150575h0l.72748-.150446h0l.713485-.149783h0l.698194-.148588h0l-3.995187-23.9899zm-81.051529-58.0364579v-3.5748144c-.186875-.0340882-.37372-.067404-.560491-.099965l-.560047-.0954361h0l-.559337-.091012c-.279447-.0444176-.558528-.0872155-.837095-.1284528l-.556402-.0804113h0l-.554765-.0763548c-.09231-.0123935-.18454-.0246225-.276685-.0366889l-.551812-.0704666c-.091784-.0114254-.183472-.0226926-.275059-.033804l-.548261-.0648147h0l-.545564-.061178h0l-.5426-.0576462h0l-.539371-.0542194h0l-.535879-.0508976h0l-.53212-.0476807h0l-.528096-.0445687h0l-.523808-.0415619h0l-.519255-.0386598h0l-.769763-.0527782h0l-.758026-.0468392h0l-.745395-.0412544h0l-.48947-.0245753h0l-.483194-.0223555h0l-.476652-.0202408h0l-.702131-.0266257h0l-.459137-.0154132h0l-.895601-.0256893h0l-.650816-.0151853h0l-.838209-.0154785h0l-.997295-.0128649h0l-.937354-.0071923h0l-1.830778-.0039376h0c-11.629433 0-13.762184 5.7355072-14.003785 9.4298047l-.013039.2354324h0l-.008245.2293042c-.001.0376809-.001819.0750871-.002467.112209l-.001905.2192417h0c0 5.0853225 1.73519 7.8348756 15.282323 10.7969212l1.188062.2671214h0l1.187308.2685306c.197768.0449252.395466.0899485.593072.1350897l1.184379.2724196c18.335943 4.2493216 35.536481 9.8594165 35.536481 32.6945545 0 23.285875-11.984243 35.315911-37.209894 35.315911-8.102465 0-16.089403-.834871-23.587002-2.053851l-.934624-.154341h0l-.929364-.158146c-.308894-.053328-.616884-.107257-.923943-.161756l-.918359-.16517c-.305171-.055604-.609384-.111744-.912613-.168388l-.906704-.171412c-.150616-.028809-.300979-.057737-.451085-.086778l-.897537-.175579h0l-.891223-.178113c-.148002-.029885-.295734-.059869-.443193-.089945l-.881448-.181547h0l-.874727-.183591h0l-.867846-.185441h0l-.860802-.187094h0l-.853595-.188552c-.141656-.031535-.283005-.063124-.424044-.094761l-.842481-.190371h0l-.83487-.191341h0l-.827094-.192113h0l-.819158-.19269h0l-1.213502-.289691h0l-1.194731-.289889h0l-.785789-.193044h0l-1.162231-.288752h0l-1.142001-.287191c-.125745-.031799-.251105-.063557-.376077-.095269v-20.066203h20.347879l-.01186 3.564931.559446.105452c.55993.102965 1.121174.198525 1.682482.287208l.561281.086409c.093535.014026.18706.027866.28057.041523l.560822.079752c.280271.038794.560297.075979.839921.11162l.558667.069244h0l.557318.065246h0l.55569.061365c.092464.009911.184849.019665.277148.029264l.552728.055764c.091936.008992.183774.017834.27551.026529l.54914.050427h0l.5464.047015h0l.543382.043721h0l.540085.040544h0l.536511.037485h0l.532659.034542h0l.528528.031717h0l.524119.02901h0l.777304.038694h0l.51188.022753h0l.506498.020457h0l.749046.026635h0l.735371.022126h0l.720758.018014h0l.705204.014298h0l.914458.013966h0l.882914.009002h0l1.260361.006247h0l1.73165-6.85e-4h0l1.672908-.003305h0c13.338265 0 15.496134-7.171043 15.496134-10.983717 0-5.026665-3.452237-7.571263-14.517041-9.986957l-.70899-.15242c-.359595-.076147-.726869-.152214-1.101953-.228277-23.555362-4.024837-42.249424-12.0669339-42.249424-35.9942397 0-22.6480684 15.14758-31.5325578 40.373561-31.5325578 6.665096 0 12.707242.4031243 18.340289 1.0831487l.863423.1067867c.143376.0181562.28649.0364902.429346.0549999l.854065.1131491c.141838.0192038.283424.0385791.424764.0581236l.845096.1192816h0l.839334.1232422h0l.833743.1271009c.415503.064498.828975.1304046 1.240513.1976625l.820525.1363003h0l.815542.1398013c.135517.0235863.270835.0473143.405955.0711817l.808389.1448614h0l.803838.1481071c.133603.0249493.267024.0500296.400266.0752388l.797334.1527842c.132541.025716.264911.0515567.397112.0775198l.791221.1572314h0l.787361.1600686h0l.783675.1628036c.130315.0273561.260483.054822.390509.0823955l.778469.1667145c.129469.0279953.258803.0560938.388004.0842936l.773654.1703958h0l.770659.1727222h0l.767838.1749466h0l.76519.1770687h0l.762715.1790888h0l.760412.1810067h0l.758284.1828224h0l1.133812.2774148h0l1.129995.2809258h0l.751497.1890641c.12514.0316223.250227.0632989.375265.0950278v19.9314599h-20.342938z" fill="#ff282d"/></svg>