<svg width="256px" height="165px" viewBox="0 0 256 165" xmlns="http://www.w3.org/2000/svg" preserveAspectRatio="xMidYMid"><path d="M247.942394 23.313675 256 2.4439738l-.350331-1.29288716-79.71692 21.00316056C184.432439 9.85930729 181.513017 0 181.513017 0c0 0-25.457366 16.2570135-44.708872 15.8316119-19.251507-.4254016-25.457366-5.5635854-54.9768992 3.8536378-29.5195334 9.4088821-37.860741 38.2944838-46.4188199 44.5003422C26.850347 70.3914503 0 90.6021961 0 90.6021961l.0583884526.3586719L24.2645727 83.2535923c0 0-6.6396012 6.2559056-20.74458313 25.2655177 0 0-.24189501-.225213-.65895539-.608908l.02502362.133459c0 0 11.335701 17.324688 22.4628719 14.121664 1.1177218-.325307 2.3772441-.859144 3.7535433-1.559805 4.4792285 2.494021 10.3264149 4.946336 16.7825096 5.621973 0 0-4.3707928-5.079795-8.0159005-10.860252.9842625-.633932 1.9935486-1.292887 3.0195172-1.960184l-.4754489.333649 9.2170343 3.38653-1.0176273-8.666515c.0333649-.016682.0583885-.041706.0917533-.058388l9.0585514 3.328142-1.126063-7.882441c1.1510866-.600567 2.293832-1.167769 3.4365775-1.693266l9.4422469-35.7170501 39.0451925-26.6334756-3.102929 7.8073702c-7.9158063 19.4683784-22.7798381 24.0643837-22.7798381 24.0643837l-6.2058584 2.3522205c-4.6126877 5.4551498-6.5561891 6.7980842-8.1410185 25.1070347 3.7201786-.9342153 7.273533-1.1594279 10.4932391-.2919423 16.682415 4.4959109 22.4628719 24.5982209 17.966961 30.1618069-1.1260631 1.392981-3.8035907 3.770225-7.1817797 6.56453h-6.7730605l-.0917533 5.488514c-.2335538.183507-.4671076.358672-.6923202.542179H75.162621l-.0834121 5.355055c-.6089082.467108-1.2178163.917533-1.8017008 1.359617-6.4727771.133459-14.6721841-5.513538-14.6721841-5.513538 0 5.138184 4.2790395 13.045648 4.2790395 13.045648 0 0 .283601-.133459.7590499-.367013-.4170604.308625-.6506142.475449-.6506142.475449 0 0 17.324688 11.552572 28.2349874 7.273533 9.7008244-3.803591 34.8162004-23.605617 56.4949984-32.981135l65.603597-17.282982 8.649833-22.4128242-49.997198 13.1707672V83.5955818l58.663712-15.4562576 8.649832-22.4128246-67.296862 17.7334072V43.3242319l75.946695-20.0105569z"/></svg>