<svg width="256px" height="290px" viewBox="0 0 256 290" xmlns="http://www.w3.org/2000/svg" preserveAspectRatio="xMidYMid"><title>fauna</title><path d="M198.882591 60.8523114c-17.580648 5.9902525-26.046149 16.7345002-31.813367 33.4685984-1.488237 4.4687297-5.20923 9.4134382-9.394945 12.7412662l14.418447 15.783669-45.767897-32.7082386L4.26325641e-13 2.84217094e-14C4.26325641e-13 2.84217094e-14 9.11627288 60.4720111 12.2790368 82.7213482c2.2325156 15.687991 6.0465338 22.7239488 18.1394405 29.8555848l4.8372914 2.662102L56.0929294 126.4591l-12.3720617-6.560783 57.1158003 31.85196-.371456.856279-61.4886108-29.094984c3.2559496 11.409813 9.5813166 33.373161 12.2790368 43.072025 2.8837699 10.458661 6.1395586 14.261664 16.093055 17.971401l18.3258118 6.845406 11.3487081-4.564408-14.4184472 9.793738-72.0932007 93.464631c47.9069048-45.448701 88.4646066-61.612671 118.139287-74.829111 37.860384-16.734018 60.651066-27.478105 75.534235-66.082205 10.604992-27.097804 18.883157-61.8024189 29.396491-75.209412L256 44.6885029c0 0-46.419955 12.5507947-57.117409 16.1638085z" fill="#3a1ab6"/></svg>