<svg width="256px" height="256px" viewBox="0 0 256 256" xmlns="http://www.w3.org/2000/svg" preserveAspectRatio="xMidYMid"><title>fetch</title><circle fill="#fff" cx="128" cy="128" r="115.2"/><g style="fill:#3c790a"><path d="M128 0C57.307552 0 0 57.307552 0 128c0 70.692448 57.307552 128 128 128 70.692448 0 128-57.307552 128-128C256 57.307552 198.692448 0 128 0zm0 25.6c56.553958 0 102.4 45.8460416 102.4 102.4 0 56.553958-45.846042 102.4-102.4 102.4-56.5539584 0-102.4-45.846042-102.4-102.4C25.6 71.4460416 71.4460416 25.6 128 25.6z"/><path d="M87.04 140.8c20.902937-12.742677 38.457323-30.297063 51.2-51.2-.424154-15.3166967 6.681982-28.3064079 15.872-29.0133324 9.190018-.7069245 16.983845 11.1366357 17.408 26.4533324 15.316697.4241548 27.160257 8.2179818 26.453333 17.408-.706925 9.190018-13.696636 16.296155-29.013333 15.872-20.902937 12.742677-38.457323 30.297063-51.2 51.2.27438 9.908166-2.643649 19.307655-7.654892 24.657771-5.011244 5.350116-11.3543766 5.83805-16.6400005 1.28C88.1794836 192.899722 84.75438 183.988166 84.48 174.08c-15.3166971-.424155-27.1602578-8.217982-26.4533333-17.408.7069244-9.190018 13.6966362-16.296155 29.0133333-15.872"/></g></svg>