<svg width="256px" height="244px" viewBox="0 0 256 244" xmlns="http://www.w3.org/2000/svg" preserveAspectRatio="xMidYMid"><title>FFmpeg</title><defs><radialGradient cx="19.9315782%" cy="18.8517713%" fx="19.9315782%" fy="18.8517713%" r="50.6480831%" gradientTransform="matrix(.965227 0 0 1 .00693081526799999 0)" id="a"><stop stop-color="#fff" offset="0%"/><stop stop-color="#007808" offset="100%"/></radialGradient></defs><g style="fill:#0b4819"><path d="M2.13225538 51.5914003V21.1890271l20.40873012 7.0310182v28.282636z"/><path d="M18.589428 176.576617V63.5336995l19.5074245 4.1268113V172.721031z"/></g><path fill="#105c80" d="M114.002641 21.1389545 63.8675164 78.6389138v24.4687782l74.3577126-83.8422848L256 10.1480334 82.7615524 190.717935l23.0625746 1.214258L231.652231 63.2332643V184.871966l-13.978583 13.139868 35.451354 1.915274v33.665433l-111.202751-8.612475 56.68628-54.99216v-27.101759L117.566136 223.094l-97.04057-7.502534L176.180209 48.1948135l-25.616274 1.38534L38.0968525 172.721031V67.6605108L48.749784 55.0839595l-26.2087985 1.4187218v-28.282636z"/><path fill="#0b4819" d="M18.589428 63.5336995l11.2830109-13.5821747 18.8773451 5.1324347-10.6529315 12.5765513z"/><path fill="#084010" d="M45.9165132 75.2715359l17.9510032 3.3673779v24.4687782l-17.9510032-1.468795z"/><path fill="#0c541e" d="M66.0122899 196.142459l16.7492625-5.424524 23.0625746 1.214258-15.2178777 5.628988z"/><path fill="#1a5c34" d="M99.3439064 12.9604407l14.6587346 8.1785138-50.1351246 57.4999593-17.9510032-3.3673779z"/><path fill="#0b4819" d="M45.9165132 101.638897l79.3566198-90.8733023 12.952096 8.4998125-74.3577126 83.8422848z"/><path fill="#1a5c34" d="M138.513146 43.5297224l12.050789 6.0504311L38.0968525 172.721031l-19.5074245 3.855586z"/><path fill="#0b4819" d="M0 222.589102 166.065557 41.9023651l10.114652 6.2924484L20.525566 215.591466z"/><path fill="#1a5c34" d="M190.263109 144.697104l8.345422-1.810957L117.566136 223.094l-14.412544 8.228586z"/><g style="fill:#0b4819"><path d="M190.263109 174.156444v-29.45934l8.345422-1.810957v27.101759z"/><path d="M129.241382 233.525778l61.021727-59.369334 8.345422-4.168538-56.68628 54.99216z"/></g><path fill="#13802d" d="M226.027416 190.475917l-15.146941 14.233118 6.793173-6.697201 13.978583-13.139868z"/><path fill="#0b4819" d="M90.6062493 197.561181 226.027416 58.0006846l5.624815 5.2325797L105.824127 191.932193z"/><g style="fill:#084010"><path d="M226.027416 58.0006846l5.624815 5.2325797V184.871966l-5.624815 5.603951z"/><path d="M249.357044 206.983162l3.767958-7.056054v33.665433l-3.767958 10.106307z"/></g><path fill="#1a5c34" d="M252.478232 0 256 10.1480334 82.7615524 190.717935l-16.7492625 5.424524z"/><path fill="url(#a)" d="M99.3439064 12.9604407 45.9165132 75.2715359v26.3673611l79.3566198-90.8733023L252.478232 0 66.0122899 196.142459l24.5939594 1.418722L226.027416 58.0006846V190.475917l-15.146941 14.233118 38.476569 2.274127v36.715686l-120.115662-10.17307 61.021727-59.369334v-29.45934l-87.109517 86.625482L0 222.589102 166.065557 41.9023651l-27.552411 1.6273573L18.589428 176.576617V63.5336995l11.2830109-13.5821747-27.74018352 1.6398755V21.1890271z"/></svg>