<svg width="256px" height="384px" viewBox="0 0 256 384" xmlns="http://www.w3.org/2000/svg" preserveAspectRatio="xMidYMid"><path d="M64 384c35.328 0 64-28.672 64-64v-64H64c-35.328 0-64 28.672-64 64 0 35.328 28.672 64 64 64z" fill="#0acf83"/><path d="M0 192c0-35.328 28.672-64 64-64h64v128H64c-35.328 0-64-28.672-64-64z" fill="#a259ff"/><path d="M0 64C0 28.672 28.672 0 64 0h64v128H64C28.672 128 0 99.328 0 64z" fill="#f24e1e"/><path d="M128 0h64c35.328 0 64 28.672 64 64 0 35.328-28.672 64-64 64h-64V0z" fill="#ff7262"/><path d="M256 192c0 35.328-28.672 64-64 64-35.328 0-64-28.672-64-64 0-35.328 28.672-64 64-64 35.328 0 64 28.672 64 64z" fill="#1abcfe"/></svg>