<svg width="256px" height="265px" viewBox="0 0 256 265" xmlns="http://www.w3.org/2000/svg" preserveAspectRatio="xMidYMid"><defs><linearGradient id="a" x1="70.786" y1="12.393" x2="6.447" y2="74.468" gradientUnits="userSpaceOnUse" gradientTransform="translate(-2.998711 -.009424)scale(3.3067)"><stop offset=".048" stop-color="#fff44f"/><stop offset=".111" stop-color="#ffe847"/><stop offset=".225" stop-color="#ffc830"/><stop offset=".368" stop-color="#ff980e"/><stop offset=".401" stop-color="#ff8b16"/><stop offset=".462" stop-color="#ff672a"/><stop offset=".534" stop-color="#ff3647"/><stop offset=".705" stop-color="#e31587"/></linearGradient><radialGradient id="b" cx="-7907.187" cy="-8515.121" r="80.797" gradientTransform="translate(26367.937522 28186.305366)scale(3.3067)" gradientUnits="userSpaceOnUse"><stop offset=".129" stop-color="#ffbd4f"/><stop offset=".186" stop-color="#ffac31"/><stop offset=".247" stop-color="#ff9d17"/><stop offset=".283" stop-color="#ff980e"/><stop offset=".403" stop-color="#ff563b"/><stop offset=".467" stop-color="#ff3750"/><stop offset=".71" stop-color="#f5156c"/><stop offset=".782" stop-color="#eb0878"/><stop offset=".86" stop-color="#e50080"/></radialGradient><radialGradient id="c" cx="-7936.711" cy="-8482.089" r="80.797" gradientTransform="translate(26367.937522 28186.305366)scale(3.3067)" gradientUnits="userSpaceOnUse"><stop offset=".3" stop-color="#960e18"/><stop offset=".351" stop-color="#b11927" stop-opacity=".74"/><stop offset=".435" stop-color="#db293d" stop-opacity=".343"/><stop offset=".497" stop-color="#f5334b" stop-opacity=".094"/><stop offset=".53" stop-color="#ff3750" stop-opacity="0"/></radialGradient><radialGradient id="d" cx="-7926.97" cy="-8533.457" r="58.534" gradientTransform="translate(26367.937522 28186.305366)scale(3.3067)" gradientUnits="userSpaceOnUse"><stop offset=".132" stop-color="#fff44f"/><stop offset=".252" stop-color="#ffdc3e"/><stop offset=".506" stop-color="#ff9d12"/><stop offset=".526" stop-color="#ff980e"/></radialGradient><radialGradient id="e" cx="-7945.648" cy="-8460.984" r="38.471" gradientTransform="translate(26367.937522 28186.305366)scale(3.3067)" gradientUnits="userSpaceOnUse"><stop offset=".353" stop-color="#3a8ee6"/><stop offset=".472" stop-color="#5c79f0"/><stop offset=".669" stop-color="#9059ff"/><stop offset="1" stop-color="#c139e6"/></radialGradient><radialGradient id="f" cx="-7935.62" cy="-8491.546" r="20.397" gradientTransform="matrix(3.214113 -.777075 .909343 3.763025 33365.913535 25904.013598)" gradientUnits="userSpaceOnUse"><stop offset=".206" stop-color="#9059ff" stop-opacity="0"/><stop offset=".278" stop-color="#8c4ff3" stop-opacity=".064"/><stop offset=".747" stop-color="#7716a8" stop-opacity=".45"/><stop offset=".975" stop-color="#6e008b" stop-opacity=".6"/></radialGradient><radialGradient id="g" cx="-7937.731" cy="-8518.427" r="27.676" gradientTransform="translate(26367.937522 28186.305366)scale(3.3067)" gradientUnits="userSpaceOnUse"><stop stop-color="#ffe226"/><stop offset=".121" stop-color="#ffdb27"/><stop offset=".295" stop-color="#ffc82a"/><stop offset=".502" stop-color="#ffa930"/><stop offset=".732" stop-color="#ff7e37"/><stop offset=".792" stop-color="#ff7139"/></radialGradient><radialGradient id="h" cx="-7915.977" cy="-8535.981" r="118.081" gradientTransform="translate(26367.937522 28186.305366)scale(3.3067)" gradientUnits="userSpaceOnUse"><stop offset=".113" stop-color="#fff44f"/><stop offset=".456" stop-color="#ff980e"/><stop offset=".622" stop-color="#ff5634"/><stop offset=".716" stop-color="#ff3647"/><stop offset=".904" stop-color="#e31587"/></radialGradient><radialGradient id="i" cx="-7927.165" cy="-8522.859" r="86.499" gradientTransform="matrix(.347204 3.290167 -2.159276 .228162 -15491.59662 28008.376464)" gradientUnits="userSpaceOnUse"><stop stop-color="#fff44f"/><stop offset="6%" stop-color="#ffe847"/><stop offset=".168" stop-color="#ffc830"/><stop offset=".304" stop-color="#ff980e"/><stop offset=".356" stop-color="#ff8b16"/><stop offset=".455" stop-color="#ff672a"/><stop offset=".57" stop-color="#ff3647"/><stop offset=".737" stop-color="#e31587"/></radialGradient><radialGradient id="j" cx="-7938.383" cy="-8508.176" r="73.72" gradientTransform="translate(26367.937522 28186.305366)scale(3.3067)" gradientUnits="userSpaceOnUse"><stop offset=".137" stop-color="#fff44f"/><stop offset=".48" stop-color="#ff980e"/><stop offset=".592" stop-color="#ff5634"/><stop offset=".655" stop-color="#ff3647"/><stop offset=".904" stop-color="#e31587"/></radialGradient><radialGradient id="k" cx="-7918.923" cy="-8503.861" r="80.686" gradientTransform="translate(26367.937522 28186.305366)scale(3.3067)" gradientUnits="userSpaceOnUse"><stop offset=".094" stop-color="#fff44f"/><stop offset=".231" stop-color="#ffe141"/><stop offset=".509" stop-color="#ffaf1e"/><stop offset=".626" stop-color="#ff980e"/></radialGradient><linearGradient id="l" x1="70.013" y1="12.061" x2="15.267" y2="66.806" gradientUnits="userSpaceOnUse" gradientTransform="translate(-2.998711 -.009424)scale(3.3067)"><stop offset=".167" stop-color="#fff44f" stop-opacity=".8"/><stop offset=".266" stop-color="#fff44f" stop-opacity=".634"/><stop offset=".489" stop-color="#fff44f" stop-opacity=".217"/><stop offset=".6" stop-color="#fff44f" stop-opacity="0"/></linearGradient></defs><path d="M248.033 88.713c-5.569-13.399-16.864-27.866-25.71-32.439 6.309 12.219 10.687 25.341 12.979 38.9l.023.215c-14.49-36.126-39.062-50.692-59.13-82.41-1.037-1.617-2.043-3.253-3.019-4.907-.503-.864-.974-1.746-1.412-2.645-.833-1.612-1.474-3.315-1.912-5.076.002-.168-.124-.31-.291-.331-.079-.021-.162-.021-.241 0-.016 0-.043.03-.063.037-.02.006-.063.036-.092.049l.049-.086c-32.19 18.849-43.113 53.741-44.118 71.194-12.855.883-25.146 5.621-35.269 13.593-1.056-.894-2.16-1.731-3.307-2.506-2.92-10.221-3.044-21.039-.36-31.324-11.822 5.727-22.326 13.845-30.848 23.841h-.06c-5.079-6.438-4.722-27.667-4.431-32.102-1.502.604-2.937 1.366-4.279 2.272-4.483 3.2-8.675 6.791-12.526 10.73-4.387 4.449-8.395 9.257-11.98 14.375v.019-.023C13.797 81.77 7.953 94.968 4.841 108.92l-.171.846c-.473 2.659-.893 5.327-1.26 8.003 0 .096-.02.185-.03.281-1.122 5.831-1.817 11.735-2.08 17.667v.662c.086 98.661 106.944 160.23 192.344 110.825 32.903-19.035 55.659-51.694 62.12-89.153.215-1.653.39-3.29.582-4.96 2.639-21.817-.218-43.948-8.313-64.378h0zM100.322 189.031c.599.288 1.161.599 1.776.873l.089.057c-.621-.298-1.243-.608-1.865-.93h0zm29.357-77.297zm105.656-16.315v-.123l.023.136-.023-.013z" fill="url(#a)"/><path d="M248.033 88.713c-5.569-13.399-16.864-27.866-25.71-32.439 6.309 12.219 10.687 25.341 12.979 38.9v.122l.023.136c9.878 28.267 8.449 59.258-3.988 86.497-14.688 31.516-50.242 63.819-105.894 62.248-60.132-1.703-113.089-46.323-122.989-104.766-1.802-9.216 0-13.888.906-21.378-1.236 5.818-1.926 11.738-2.06 17.684v.662c.086 98.661 106.944 160.23 192.344 110.825 32.903-19.035 55.659-51.694 62.12-89.153.215-1.653.39-3.29.582-4.96 2.639-21.817-.218-43.948-8.313-64.378h0z" fill="url(#b)"/><path d="M248.033 88.713c-5.569-13.399-16.864-27.866-25.71-32.439 6.309 12.219 10.687 25.341 12.979 38.9v.122l.023.136c9.878 28.267 8.449 59.258-3.988 86.497-14.688 31.516-50.242 63.819-105.894 62.248-60.132-1.703-113.089-46.323-122.989-104.766-1.802-9.216 0-13.888.906-21.378-1.236 5.818-1.926 11.738-2.06 17.684v.662c.086 98.661 106.944 160.23 192.344 110.825 32.903-19.035 55.659-51.694 62.12-89.153.215-1.653.39-3.29.582-4.96 2.639-21.817-.218-43.948-8.313-64.378h0z" fill="url(#c)"/><path d="M185.754 103.778c.278.195.536.39.797.585-3.219-5.708-7.226-10.934-11.904-15.525-39.832-39.839-10.439-86.381-5.482-88.745l.049-.073c-32.19 18.849-43.113 53.741-44.118 71.194 1.495-.103 2.976-.229 4.504-.229 23.252.043 44.691 12.563 56.154 32.793z" fill="url(#d)"/><path d="M129.683 111.734c-.212 3.188-11.475 14.182-15.413 14.182-36.443 0-42.359 22.046-42.359 22.046 1.614 18.564 14.55 33.854 30.187 41.942.714.371 1.439.705 2.163 1.032 1.254.556 2.508 1.069 3.763 1.541 5.366 1.899 10.987 2.984 16.675 3.217 63.876 2.996 76.25-76.384 30.154-99.419 10.875-1.415 21.887 1.259 30.901 7.503-11.463-20.23-32.902-32.75-56.154-32.793-1.521 0-3.009.126-4.504.229-12.855.883-25.146 5.621-35.269 13.593 1.954 1.654 4.16 3.863 8.806 8.442 8.696 8.568 31 17.443 31.05 18.485z" fill="url(#e)"/><path d="M129.683 111.734c-.212 3.188-11.475 14.182-15.413 14.182-36.443 0-42.359 22.046-42.359 22.046 1.614 18.564 14.55 33.854 30.187 41.942.714.371 1.439.705 2.163 1.032 1.254.556 2.508 1.069 3.763 1.541 5.366 1.899 10.987 2.984 16.675 3.217 63.876 2.996 76.25-76.384 30.154-99.419 10.875-1.415 21.887 1.259 30.901 7.503-11.463-20.23-32.902-32.75-56.154-32.793-1.521 0-3.009.126-4.504.229-12.855.883-25.146 5.621-35.269 13.593 1.954 1.654 4.16 3.863 8.806 8.442 8.696 8.568 31 17.443 31.05 18.485z" fill="url(#f)"/><path d="M83.852 80.545c1.038.661 1.895 1.237 2.645 1.756-2.92-10.221-3.045-21.039-.36-31.324-11.822 5.727-22.326 13.845-30.849 23.841.625-.017 19.216-.351 28.564 5.727h0z" fill="url(#g)"/><path d="M2.471 139.411c9.89 58.443 62.857 103.063 122.989 104.766 55.652 1.574 91.205-30.732 105.894-62.248 12.437-27.239 13.866-58.23 3.988-86.497v-.122c0-.096-.02-.153 0-.123l.023.215c4.547 29.684-10.552 58.443-34.155 77.889l-.073.166c-45.989 37.455-90.002 22.598-98.91 16.533-.622-.297-1.243-.607-1.865-.929-26.814-12.817-37.891-37.247-35.517-58.198-13.004.192-24.901-7.292-30.359-19.096 14.312-8.768 32.148-9.484 47.117-1.891 15.177 6.89 32.448 7.568 48.119 1.891-.049-1.042-22.353-9.92-31.05-18.484-4.646-4.58-6.851-6.786-8.805-8.442-1.056-.895-2.16-1.732-3.307-2.507-.761-.519-1.617-1.081-2.645-1.756-9.348-6.078-27.939-5.744-28.554-5.727h-.059c-5.079-6.438-4.722-27.667-4.431-32.101-1.503.603-2.937 1.365-4.279 2.271-4.484 3.2-8.675 6.791-12.526 10.73-4.403 4.437-8.427 9.234-12.03 14.342v.019-.023C13.797 81.77 7.953 94.968 4.841 108.92c-.062.261-4.616 20.167-2.37 30.491h0z" fill="url(#h)"/><path d="M174.654 88.838c4.678 4.596 8.686 9.828 11.904 15.542.704.532 1.362 1.061 1.921 1.574 29.056 26.784 13.832 64.646 12.698 67.341 23.603-19.447 38.688-48.205 34.155-77.89-14.497-36.142-39.069-50.708-59.137-82.426-1.037-1.617-2.043-3.253-3.019-4.907-.503-.864-.974-1.746-1.412-2.645-.833-1.612-1.474-3.315-1.912-5.076.002-.168-.124-.31-.291-.331-.079-.021-.162-.021-.241 0-.016 0-.043.03-.063.037-.02.006-.063.036-.092.049-4.957 2.351-34.35 48.893 5.489 88.732z" fill="url(#i)"/><path d="M188.459 105.937c-.615-.554-1.257-1.079-1.921-1.574-.261-.195-.519-.39-.797-.585-9.014-6.244-20.027-8.918-30.901-7.503 46.095 23.048 33.728 102.415-30.154 99.419-5.688-.233-11.309-1.318-16.675-3.217-1.255-.47-2.509-.983-3.763-1.541-.725-.331-1.449-.661-2.163-1.032l.089.057c8.908 6.081 52.907 20.938 98.91-16.534l.073-.165c1.147-2.679 16.371-40.55-12.698-67.325h0z" fill="url(#j)"/><path d="M71.911 147.962c0 0 5.916-22.046 42.359-22.046 3.938 0 15.211-10.994 15.413-14.182-15.672 5.677-32.942 4.999-48.119-1.892-14.969-7.592-32.805-6.876-47.118 1.892 5.458 11.804 17.355 19.288 30.359 19.096-2.374 20.955 8.703 45.385 35.517 58.198.599.288 1.161.599 1.776.873-15.65-8.085-28.573-23.375-30.187-41.939h0z" fill="url(#k)"/><path d="M248.033 88.713c-5.569-13.399-16.864-27.866-25.71-32.439 6.309 12.219 10.687 25.341 12.979 38.9l.023.215c-14.49-36.126-39.062-50.692-59.13-82.41-1.037-1.617-2.043-3.253-3.019-4.907-.503-.864-.974-1.746-1.412-2.645-.833-1.612-1.474-3.315-1.912-5.076.002-.168-.124-.31-.291-.331-.079-.021-.162-.021-.241 0-.016 0-.043.03-.063.037-.02.006-.063.036-.092.049l.049-.086c-32.19 18.849-43.113 53.741-44.118 71.194 1.495-.103 2.976-.229 4.504-.229 23.252.043 44.691 12.563 56.154 32.793-9.014-6.244-20.026-8.918-30.901-7.503 46.096 23.048 33.729 102.415-30.154 99.419-5.688-.233-11.309-1.318-16.675-3.217-1.255-.47-2.509-.983-3.763-1.541-.724-.331-1.449-.661-2.163-1.032l.089.057c-.621-.298-1.243-.608-1.865-.93.599.288 1.161.599 1.776.873-15.65-8.088-28.573-23.378-30.187-41.942 0 0 5.916-22.046 42.359-22.046 3.938 0 15.211-10.994 15.413-14.182-.05-1.042-22.354-9.92-31.05-18.485-4.646-4.579-6.852-6.785-8.806-8.442-1.056-.894-2.16-1.731-3.307-2.506-2.92-10.221-3.044-21.039-.36-31.324-11.822 5.727-22.326 13.845-30.848 23.841h-.06c-5.079-6.438-4.722-27.667-4.431-32.102-1.502.604-2.937 1.366-4.279 2.272-4.483 3.2-8.675 6.791-12.526 10.73-4.387 4.449-8.395 9.257-11.98 14.375v.019-.023C13.797 81.77 7.953 94.968 4.841 108.92l-.171.846c-.242 1.128-1.323 6.855-1.479 8.085 0 .093 0-.096 0 0-.989 5.912-1.62 11.878-1.891 17.866v.662c.086 98.661 106.944 160.23 192.344 110.825 32.903-19.035 55.659-51.694 62.12-89.153.215-1.653.39-3.29.582-4.96 2.639-21.817-.218-43.948-8.313-64.378h0zm-12.715 6.583.024.136-.024-.136z" fill="url(#l)"/></svg>