<svg width="256px" height="351px" viewBox="0 0 256 351" xmlns="http://www.w3.org/2000/svg" preserveAspectRatio="xMidYMid"><defs><path d="M1.25273437 280.731641l1.60561096-3.130783L102.211177 89.0833546 58.0613266 5.6082033C54.3920011-1.28304578 45.0741245.473674398 43.8699203 8.18789086L1.25273437 280.731641z" id="a"/><filter x="-50%" y="-50%" width="200%" height="200%" filterUnits="objectBoundingBox" id="c"><feGaussianBlur stdDeviation="17.5" in="SourceAlpha" result="shadowBlurInner1"/><feOffset in="shadowBlurInner1" result="shadowOffsetInner1"/><feComposite in="shadowOffsetInner1" in2="SourceAlpha" operator="arithmetic" k2="-1" k3="1" result="shadowInnerInner1"/><feColorMatrix values="0 0 0 0 0   0 0 0 0 0   0 0 0 0 0  0 0 0 0.06 0" in="shadowInnerInner1"/></filter><path d="M134.417103 148.974235l32.038619-32.812497-32.038618-61.0070506c-3.042276-5.7910963-10.433193-6.3978512-13.443276-.5900391L103.26875 88.6738296l-.529327 1.7437177 31.67768 58.5566877z" id="b"/><filter x="-50%" y="-50%" width="200%" height="200%" filterUnits="objectBoundingBox" id="d"><feGaussianBlur stdDeviation="3.5" in="SourceAlpha" result="shadowBlurInner1"/><feOffset dx="1" dy="-9" in="shadowBlurInner1" result="shadowOffsetInner1"/><feComposite in="shadowOffsetInner1" in2="SourceAlpha" operator="arithmetic" k2="-1" k3="1" result="shadowInnerInner1"/><feColorMatrix values="0 0 0 0 0   0 0 0 0 0   0 0 0 0 0  0 0 0 0.09 0" in="shadowInnerInner1"/></filter></defs><path d="M0 282.99762l2.12250746-2.97202L102.527363 89.5119284l.21206-2.0167961L58.478806 4.35817711c-3.7081791-6.9642189-14.1475025-5.203422881-15.3644577 2.59247762L0 282.99762z" fill="#ffc24a"/><use fill="#ffa712" fill-rule="evenodd" href="#a"/><use fill="#000" fill-opacity="1" filter="url(#c)" href="#a"/><path d="M135.004975 150.380704l32.955224-33.751243-32.964776-62.9301496c-3.129314-5.9567761-11.866606-5.9739703-14.962805-2e-7l-17.611603 33.5887736v2.8606595l32.58396 60.2319597z" fill="#f4bd62"/><use fill="#ffa50e" fill-rule="evenodd" href="#b"/><use fill="#000" fill-opacity="1" filter="url(#d)" href="#b"/><path fill="#f6820c" d="M0 282.99762l.962097168-.967224 3.495614272-1.420836 128.47761156-128 1.627702-4.430965-32.049902-61.0737366z"/><path d="M139.120971 347.551268l116.274945-64.847602-33.204218-204.4943287c-1.038647-6.3980895-8.88804-8.9275224-13.467384-4.3399005L2.54726368e-4 282.997875 115.608454 347.545536c7.306189 4.079443 16.204418 4.081354 23.512517.005732" fill="#fde068"/><path d="M254.354084 282.159837 221.401937 79.2179369c-1.030762-6.3495181-7.558145-8.9769816-12.102724-4.4241869L1.28945312 282.600785 115.627825 346.509458c7.250723 4.048473 16.081401 4.050369 23.334021.005688l115.392238-64.355309z" fill="#fcca3f"/><path d="M139.120907 345.64082c-7.308099 4.075622-16.206328 4.073711-23.512517-.005731L.93134768 282.014551l-.931156635224.983324L115.60839 347.545536c7.306189 4.079443 16.204418 4.081354 23.512517.005732l116.274946-64.847602-.284657-1.751881-115.990289 64.689035z" fill="#eeab37"/></svg>