<svg width="512px" height="116px" viewBox="0 0 512 116" xmlns="http://www.w3.org/2000/svg" preserveAspectRatio="xMidYMid"><defs><linearGradient x1="50%" y1="100%" x2="50%" y2="0%" id="b"><stop stop-color="#d22929"/><stop stop-color="#b71717" offset="1"/></linearGradient><linearGradient x1="50%" y1="0%" x2="50%" y2="100%" id="a"><stop stop-color="#e7762e"/><stop stop-color="#e7562e" offset="1"/></linearGradient></defs><path d="M.0250618727 75.9308538.00170290096 5.15934008C7.62414732e-4 2.30991524 1.96335095 1.22709435 4.37481412 2.73425882L55.1649832 34.4781145v79.2996635L7.58395685 84.9008031C.989947764 81.310681.0343130915 79.0824357.0250618727 75.9308538h0z" fill="url(#b)"/><g style="fill:url(#a)"><path d="M5.17636891 2.20268248e-13C2.3175393 2.20268248e-13-5.79781036e-15 2.31151171 0 5.18375159L1.42648338e-13 75.8518519C.143594249 78.2808586.0201798227 80.8133544 7.73270885 84.9590282c0 0-7.557217785-7.3428125 4.33463125-7.3832706h84.4713804V2.20268248e-13H5.17636891h0z"/><path d="M139.636364 20.6868687v24.1346801h25.858585v22.4107744h-25.858585v46.5454548h-20.686869V0h49.993266v20.6868687h-29.306397 0zm36.20202 93.0909093V0h20.686869v93.0909091h29.306397v20.6868689h-49.993266 0zm96.53872-22.4107746h-15.515151l-3.447812 22.4107746h-22.410774L251.690236 0h25.858586l20.686868 113.777778h-22.410774l-3.447812-22.4107746h0zM262.03367 51.7171717l-1.723906 18.962963h10.343435l-1.723906-18.962963-3.447812-22.4107744-3.447811 22.4107744h0zM330.989899 0c4.571665 0 8.709296.572152639 12.06734 1.72390572 4.184081 1.13689183 7.431337 3.0440673 10.343434 5.17171718 2.534993 3.2125216 4.656184 6.6999282 6.895623 10.3434343.798362 4.966158 1.557801 10.2245133 1.723906 17.2390573-.166105 6.9352915-1.161231 13.2562159-3.447811 18.9629629-1.693988 4.1017313-4.731742 8.0250637-8.619529 10.3434344l15.515151 49.9932662h-22.410774l-12.06734-44.821549h-5.171717v44.821549h-20.686869V0h25.858586 0zm-5.171717 20.6868687v27.5824916h3.447811c1.615036 0 3.139317-.196215 5.171717 0 .798448-.9810865 2.077755-1.7379156 3.447812-3.4478115.916397-.5325943 1.814635-2.0182217 1.723906-3.4478114 1.397273-2.2705192 1.723905-4.7091907 1.723905-6.8956229 0-5.32591-1.061552-8.6055028-3.447811-10.3434344-1.860015-2.4106753-4.609162-3.4478114-8.619529-3.4478114h-3.447811 0zm98.262626 65.5084175c0 10.193472-2.330891 17.4980698-6.895623 22.4107748-4.758974 4.533985-11.648053 6.895623-20.686869 6.895623-18.414317 0-27.582491-9.666236-27.582491-29.3063978V0h20.686869v86.1952862c0 0-.645124 8.3481618 6.895622 8.6195286 7.540747.2713668 6.895623-8.6195286 6.895623-8.6195286V0h20.686869v86.1952862zm41.373737 5.1717172-3.447811-13.7912458-5.171717-17.2390573h-1.723906v53.4410777h-20.686869V0h20.686869l10.343434 31.030303 6.895623 22.4107744h1.723906l6.895623-24.1346801L491.313131 0H512v113.777778h-20.686869V60.3367003h-1.723905l-5.171718 17.2390573-3.447811 13.7912458h-15.515152 0z"/></g></svg>