<svg width="256px" height="194px" viewBox="0 0 256 194" xmlns="http://www.w3.org/2000/svg" preserveAspectRatio="xMidYMid"><defs><clipPath id="a"><path d="M68.3667503 0c-3.626 0-7.103 1.443-9.664 4.011L2.08675027 60.783c-2.783000001 2.793-2.783000001 7.312.004 10.102L122.75875 191.721c2.79 2.794 7.317 2.797 10.112.007l121.032-120.864c2.784-2.781 2.798-7.289.031-10.087l-56.099-56.725c-2.563-2.593-6.057-4.052-9.703-4.052H68.3667503z"/></clipPath></defs><g clip-path="url(#a)"><g transform="translate(-2.95 -.86)"><path d="M68.3506.8562h125.717c1.736 0 3.399.695 4.62 1.929l63.201 63.907-131.126 130.944L-4e-4 66.6922l63.75-63.927c1.219-1.222 2.875-1.909 4.601-1.909" fill="#57bbfb"/><path d="M197.5985 1.9047c-1.044-.677-2.267-1.049-3.531-1.049H68.3505c-1.726 0-3.382.687-4.601 1.91l2.086 2.637 31.918 31.372 66.291-.273 33.554-34.597z" fill="#48acec"/><path d="M131.3549 197.0446l-.592.592L-1e-4 66.6916l1.104-1.106h69.097l61.154 127.777v3.682z" fill="#2b8fcf"/><path d="M87.4283 109.9353l10.873 22.05h65.567l10.776-21.548-44.206-43.935-43.01 43.433z" fill="#2d91d1"/><path d="M196.798 66.5022h64.931L196.325.9012l-32.826 32.684 33.299 32.916v.001z" fill="#7acbff"/><path d="M163.4987 33.5856l-32.645-32.269-32.742 32.826 32.327 32.36 33.06-32.917z" fill="#55b9f9"/><path d="M130.4382 66.5022h-64.602l21.592 43.439 43.01-43.434 44.207 43.936 22.153-43.941h-66.36z" fill="#3b9fdf"/><path d="M65.8359 66.5016v.001h64.602l-32.326-32.36-32.276 32.359z" fill="#52b6f7"/><path d="M163.4987 33.5856l-33.06 32.917h66.359l.001-.001-33.3-32.916z" fill="#8fd3ff"/><path d="M163.4987 33.5856l-32.645-32.269 32.645 32.269z" fill="#ff2690"/><path d="M98.1116 34.1426l-32.526-32.559-65.54 64.919h65.791l-.001-.001 32.276-32.359z" fill="#41a5e5"/><path d="M130.8533 198l33.015-66.015h-65.567L130.8533 198z" fill="#3ca0e0"/><path d="M174.6448 110.4378l-10.776 21.548h32.457l-21.681-21.548z" fill="#4eb2f2"/><path d="M65.5931 131.9854h32.708l-10.873-22.05-21.835 22.05z" fill="#1a7ebe"/><path d="M180.4086 65.9839c5.336-1.131 15.081-10.956 15.932-15.768.044-.248.445-.245.517-.005 1.464 4.915 11.434 14.847 15.844 15.773.258.054.288.902.031.96-4.557 1.032-14.489 11.062-15.861 15.85-.075.261-.494.263-.557-.001-1.089-4.555-10.807-14.497-15.937-15.849-.257-.068-.229-.905.031-.96" fill="#fff"/></g></g></svg>