<svg width="256px" height="256px" viewBox="0 0 256 256" xmlns="http://www.w3.org/2000/svg" preserveAspectRatio="xMidYMid"><path d="M256 28.46208V128c0 70.692448-57.307552 128-128 128h0H22.36928l64.31232-65.8944 14.336 14.336-31.2064 31.20128c4.02688.006656 9.858388.011581 16.2928992.015226l1.4950444 8.19e-4c.7523274 3.98e-4 1.5114524 7.8e-4 2.2755289.001145l1.5342083 7.1e-4c.2566195 1.15e-4.5136524 2.29e-4.7710303 3.4e-4l1.5478617 6.49e-4c.2584848 1.05e-4.517178 2.08e-4.7760111 3.1e-4l2.3314315 8.71e-4c.2590576 9.3e-5.5180502 1.83e-4.7769092 2.72e-4l2.3242811 7.62e-4c.2574433 8.1e-5.5145473 1.59e-4.7712443 2.37e-4l2.297441 6.59e-4c.25364 7e-5.506668 1.38e-4.759016 2.04e-4l3.725636 9.04e-4c.243834 5.4e-5.486646 1.07e-4.728367 1.59e-4l4.218426 8.14e-4c.226172 3.9e-5.450844 7.7e-5.673946 1.14e-4l6.701756 9.01e-4c.180308 1.9e-5.358294 3.7e-5.53389 5.4e-5l7.648752 4.5e-4c59.3664 0 107.66848-48.27648 107.66848-107.66848h0l-2.6e-4-.663581c-3.4e-5-.079552-7.1e-5-.165919-1.12e-4-.25895l-8.34e-4-1.876625c-7e-5-.155941-1.43e-4-.3178-2.18e-4-.485426l-7.53e-4-1.660349c-9.2e-5-.200892-1.86e-4-.407103-2.82e-4-.618486l-6.07e-4-1.329146c-1.05e-4-.231468-2.14e-4-.467807-3.24e-4-.708869l-6.88e-4-1.501848c-1.19e-4-.259355-2.4e-4-.523134-3.63e-4-.791187l-7.61e-4-1.658416c-3.92e-4-.853659-8.01e-4-1.7431-.001225-2.664289l-8.67e-4-1.883513c-.006494-14.105327-.015902-34.4616109-.022119-48.3444065l-8.27e-4-1.8517885c-4.03e-4-.9046368-7.9e-4-1.7764911-.001159-2.6115299l-7.14e-4-1.6197949c-1.14e-4-.2613862-2.27e-4-.5183831-3.37e-4-.7708412l-6.35e-4-1.4590887c-1.01e-4-.2337056-2e-4-.4625737-2.96e-4-.6864549l-7.99e-4-1.876252c-8.1e-5-.1926156-1.6e-4-.3797961-2.36e-4-.5613923l-9.22e-4-2.2864416c-4.6e-5-.1220179-9e-5-.2377045-1.3e-4-.3469105l-3.72e-4-2.257534L256 28.46208zM233.63072 0 169.3184 65.8944l-14.336-14.336 31.20128-31.20128c-4.02688-.006656-9.858388-.0115814-16.292899-.0152263l-1.495045-8.186e-4c-.752327-3.981e-4-1.511452-7.796e-4-2.275529-.0011453l-1.534208-7.103e-4c-.256619-1.149e-4-.513652-2.281e-4-.77103-3.396e-4l-1.547862-6.49e-4c-.258485-1.049e-4-.517178-2.081e-4-.776011-3.097e-4l-2.331431-8.716e-4c-.259058-9.22e-5-.518051-1.828e-4-.77691-2.719e-4l-2.324281-7.619e-4c-.257443-8.03e-5-.514547-1.592e-4-.771244-2.366e-4l-2.297441-6.596e-4c-.25364-6.93e-5-.506668-1.371e-4-.759016-2.037e-4l-3.725636-9.041e-4c-.243834-5.42e-5-.486646-1.072e-4-.728367-1.59e-4l-4.218426-8.142e-4c-.226172-3.9e-5-.450844-7.69e-5-.673946-1.139e-4l-6.701756-9.008e-4c-.180308-1.87e-5-.358294-3.66e-5-.53389-5.4e-5L128 20.33152C68.608 20.33152 20.33152 68.608 20.33152 128h0l4.506e-4 2.349235c2.97e-5.143957 6.08e-5.29398 9.33e-5.449921l8.894e-4 4.093407c5.2e-5.231468 1.053e-4.467807 1.6e-4.708869l7.197e-4 3.109867c6.53e-5.276453 1.318e-4.55703 1.997e-4.841584l8.752e-4 3.595911c7.8e-5.313968 1.572e-4.631315 2.377e-4.951891l7.574e-4 2.968325c8.79e-5.338604 1.769e-4.679989 2.671e-4 1.024005l5.557e-4 2.094476c9.49e-5.353944 1.911e-4.71022 2.884e-4 1.068679l9.071e-4 3.281047c1.043e-4.370214 2.096e-4.742163 3.161e-4 1.115698l6.525e-4 2.259041c1.109e-4.37928 2.23e-4.759847 3.361e-4 1.141551l6.921e-4 2.302682c3.525e-4 1.156971 7.147e-4 2.321491.0010863 3.489526l7.556e-4 2.339565c1.28e-4.39031 2.57e-4.780713 3.871e-4 1.171058l7.923e-4 2.340184c6.702e-4 1.947587.0013653 3.886269.002084 5.797373l8.736e-4 2.278892c.0058982 15.088435.013271 27.933901.021463 28.976333h0v1.024L0 227.5328V128C0 57.307552 57.307552 0 128 0h0 105.63072z"/></svg>