<svg width="512px" height="165px" viewBox="0 0 512 165" xmlns="http://www.w3.org/2000/svg" preserveAspectRatio="xMidYMid"><path d="M112.326102 1.42108547e-14c16.213039 0 29.356355 13.139468299999987 29.356355 29.368539299999984h0V114.047251c0 16.219452-13.138185 29.368539-29.356355 29.368539h0-13.0958625L75.5727839 164.1446v-20.72881H29.3569966c-16.2136807 0-29.356996600000013-13.139468-29.356996600000013-29.368539h2.0000000000000002e-23V29.3685393C-1.4210854700000001e-14 13.148446 13.1388271 1.42108547e-14 29.3569966 1.42108547e-14h0zM485.401073 43.7071685C503.745669 43.7071685 512 55.2377092 512 76.3281911v1.8359345c0 29.2165604-17.948296 37.6017084-38.779066 37.6017084-2.883116 0-6.029791-.132741-9.173901-.526477v12.318653h8.776318v14.541268h-37.334943V127.55801h8.778242V59.5598184h-8.778242V45.0185503h28.558625v5.3718558c6.418396-3.9315803 12.184628-6.6832376 21.35404-6.6832376zM103.670341 29.2460582H41.4685212v15.2992404h8.1844331v58.6479434h-8.1844331v15.29924h35.1931264v-15.29924h-9.0033253V81.0940539h21.2796543V65.7948135H67.6583223V44.5452986h20.4614034v7.6496201h15.5506153V29.2460582zm221.336877 15.1370009c19.402038 0 31.172411 10.2172352 31.693116 33.7579811v8.4069512H312.3301c1.943025 10.7392228 9.443231 13.8410096 22.248602 13.8410096 8.667304 0 16.559321-1.2927853 20.824999-2.0680717l.024368 14.4085267c0 0-6.64011 1.057833-13.665689 1.87155l-.753931.086191c-4.151598.468258-8.359482.835599-11.343742.835599-24.318597 0-38.291065-10.087701-38.291065-34.5377567v-2.1950415c0-20.7005943 10.999575-34.4069387 33.633576-34.4069387zm73.198189 0c19.400755 0 31.171769 10.2172352 31.689268 33.7579811v8.4069512h-44.367669c1.943667 10.7392228 9.445797 13.8410096 22.247961 13.8410096 8.669228 0 16.556115-1.2927853 20.82564-2.0680717l.025651 14.4085267c0 0-1.495613.238248-3.818196.575585l-.510111.073752c-2.089124.30067-4.75073.666838-7.563749 1.010869l-.706165.085496c-.354417.042466-.71065.084473-1.067879.125848l-.753921.086191c-.377412.042569-.755287.084304-1.132664.125004l-.753804.079963c-3.511994.366173-6.924724.630632-9.456231.630632-24.318598 0-38.289142-10.087701-38.289142-34.5377567v-2.1950415c0-20.7005943 10.99701-34.4069387 33.631011-34.4069387zM277.563413 18.0406375v77.849907c0 4.5982545 2.601451 4.7032125 5.081389 4.2142225l.309162-.063935c.873051-.1883166 1.716628-.4307545 2.409766-.5540875v14.2533415h-.041682c-17.985489 4.832554-27.705105-.030781-27.725625-18.4260365v-77.273412h19.96699zm-31.123675-.0089777v26.2436673h-16.922917v-9.4342537h-23.452893v23.4535341h23.452893v17.0562996h-23.452893v23.4503278h9.433613v16.6785961h-39.621685V98.8012349h9.434895V34.8410734h-9.434895V18.0316598h70.563882zm230.838463 41.9251001c-5.373138 0-10.221724 2.093722-13.231168 4.5824617v34.5864921c1.967393.7881116 5.107014 1.3107403 9.042442 1.3107403 10.347411 0 18.203518-5.766232 18.203518-21.3546818v-1.7019106c0-11.6645646-5.107014-17.4231017-14.014792-17.4231017zm-152.012554-.4456775c-8.408875 0-12.547583 4.7870245-13.193976 14.8785722H338.0723c-.129535-9.9588064-4.529878-14.8785722-12.806653-14.8785722zm73.198189 0c-8.409517 0-12.544377 4.7870245-13.195258 14.8785722h26.003193c-.130817-9.9588064-4.533725-14.8785722-12.807935-14.8785722z" fill="#3e81de"/></svg>