<svg width="256px" height="267px" viewBox="0 0 256 267" xmlns="http://www.w3.org/2000/svg" preserveAspectRatio="xMidYMid"><title>Flow</title><g style="fill:#ffca20"><path opacity="0.7" d="M237.300227 115.091771l-88.810724-88.8001645h88.810724z"/><path opacity="0.7" d="M86.287152 0h50.344731l38.476552 38.465993H86.287152z"/></g><path d="M89.1697257 88.8212827.359001856 0H107.140936v88.8107239l-17.9712103.0105588zm78.0195503 88.8001653L256 266.432172h-88.810724v-88.810724z" fill="#ffcf39" opacity="0.9"/><path d="M107.140936 177.632007 18.3407713 88.8107239h88.8107237v88.8107241l-.010559.010559zm95.642318-44.949145-70.797278-70.8395129h70.828955l-.031677 70.8395129zm8.278161 125.481708-80.543123-80.532563h80.543123v80.532563z" fill="#ffe490" opacity="0.7"/><path fill="#fcbc7c" opacity="0.9" d="M107.140936 70.7444834 36.3964529 0h70.7444831z"/><g style="fill:#f9a040"><path opacity="0.8" d="M130.877294 177.621448l88.810724 88.810724h-88.810724z"/><path opacity="0.7" d="M220.765024 213.07816l-88.694576-88.694576h88.694576z"/></g><path fill="#ffcf39" opacity="0.9" d="M131.985976 61.8433491l87.733719 87.7337179h-87.733719z"/><path fill="#ffc737" opacity="0.7" d="M107.140936 266.083729 0 158.921675h107.140936z"/></svg>