<svg width="256" height="267" xmlns="http://www.w3.org/2000/svg" preserveAspectRatio="xMidYMid"><path fill="#FFCA20" opacity=".7" d="M237.3 115.092l-88.81-88.8h88.81z"/><path fill="#FFCA20" opacity=".7" d="M86.287 0h50.345l38.476 38.466h-88.82z"/><path d="M89.17 88.821L.359 0h106.782v88.81l-17.971.011zm78.02 88.8L256 266.432h-88.81v-88.81z" fill="#FFCF39" opacity=".9"/><path d="M107.14 177.632l-88.8-88.821h88.811v88.81l-.01.011zm95.643-44.95l-70.797-70.839h70.829l-.032 70.84zm8.278 125.483l-80.543-80.533h80.543v80.533z" fill="#FFE490" opacity=".7"/><path fill="#FCBC7C" opacity=".9" d="M107.14 70.744L36.397 0h70.745z"/><path fill="#F9A040" opacity=".8" d="M130.877 177.621l88.811 88.811h-88.81z"/><path fill="#F9A040" opacity=".7" d="M220.765 213.078l-88.695-88.694h88.695z"/><path fill="#FFCF39" opacity=".9" d="M131.986 61.843l87.734 87.734h-87.734z"/><path fill="#FFC737" opacity=".7" d="M107.14 266.084L0 158.922h107.14z"/></svg>