<svg width="256px" height="256px" viewBox="0 0 256 256" xmlns="http://www.w3.org/2000/svg" preserveAspectRatio="xMidYMid"><path d="M208.418 208.418c-21.48 21.48-50.04 33.31-80.418 33.31-30.378 0-58.937-11.83-80.418-33.31-21.48-21.48-33.31-50.04-33.31-80.418 0-30.378 11.83-58.937 33.31-80.418 21.481-21.48 50.04-33.31 80.418-33.31 30.378 0 58.938 11.83 80.418 33.31 21.48 21.481 33.31 50.04 33.31 80.418 0 30.378-11.83 58.938-33.31 80.418m37.52-130.244c-6.447-15.243-15.675-28.931-27.428-40.684-11.753-11.753-25.442-20.981-40.684-27.428C162.041 3.385 145.277 0 128 0c-17.277 0-34.04 3.385-49.826 10.062C62.931 16.509 49.243 25.737 37.49 37.49 25.737 49.243 16.509 62.931 10.062 78.174 3.385 93.96 0 110.723 0 128c0 17.277 3.385 34.041 10.062 49.826 6.447 15.242 15.675 28.931 27.428 40.684 11.753 11.753 25.441 20.981 40.684 27.428C93.96 252.614 110.723 256 128 256c17.277 0 34.041-3.386 49.826-10.062 15.242-6.447 28.931-15.675 40.684-27.428 11.753-11.753 20.981-25.442 27.428-40.684C252.615 162.041 256 145.277 256 128c0-17.277-3.385-34.04-10.062-49.826m-57.9463-37.6837H78.8127v167.872c0 2.955 2.396 5.352 5.352 5.352 2.956 0 5.352-2.397 5.352-5.352v-64.759h77.246c2.956 0 5.352-2.396 5.352-5.351 0-2.956-2.396-5.352-5.352-5.352h-77.246v-9.812h76.176c2.955 0 5.351-2.396 5.351-5.352 0-2.956-2.396-5.352-5.351-5.352h-76.176v-61.19h98.475c2.956 0 5.352-2.396 5.352-5.352 0-2.956-2.396-5.352-5.352-5.352" fill="#3b99ed"/></svg>