<svg width="256px" height="231px" viewBox="0 0 256 231" xmlns="http://www.w3.org/2000/svg" preserveAspectRatio="xMidYMid"><title>Fly</title><defs><radialGradient cx="53.095502%" cy="49.5644668%" fx="53.095502%" fy="49.5644668%" r="93.3475634%" gradientTransform="matrix(.776037 0 0 1 .11891427466499993 0)" id="a"><stop stop-color="#ba7bf0" offset="0%"/><stop stop-color="#996bec" offset="45%"/><stop stop-color="#5046e4" offset="100%"/></radialGradient></defs><path d="M179.015724 31.5981633h29.4779C234.713177 31.5981633 256 52.8849859 256 79.1045394V182.757366c0 26.219553-21.286823 47.506376-47.506376 47.506376h-2.322936c-13.494854-2.11091-19.347405-6.158119-23.868555-9.578603l-37.478777-30.815536c-1.934918-1.564894-4.70026-1.564894-6.635178 0l-12.175925 10.012009-34.2921453-28.196387c-1.9326548-1.567981-4.699405-1.567981-6.6320598 0l-47.6404516 41.909504c-9.5879566 7.798204-15.9300391 6.357672-20.0427268 5.905557C6.78172539 210.782261 1.7723975e-13 197.555558 1.7723975e-13 182.757366V79.1045394C1.7723975e-13 52.8849859 21.2868226 31.5981633 47.5094942 31.5981633h29.412421l-.0530066.1184853-.9915351 2.8904181-.3086854.9915351-1.3345188 5.9211478-.1839641 1.0383055-.5861905 5.930502-.0779509 1.6276141-.0124721.5706003.0561246 2.7189262.1340755 1.5933157.3305117 2.4944278.4209347 2.2449849.4988855 2.067257.6485512 2.2387489 1.6837388 4.7394127.5550101 1.4218238 2.9309526 6.1924168 1.0351875 1.9020012 3.3893037 5.8182527 1.2971024 2.0984373 4.7300586 6.9656894.6828496.9229383 6.1550004 8.0102308 1.9893061 2.466366 7.0280503 8.216021 1.44365 1.580844 5.793308 6.232951 2.294874 2.375942 3.79153 3.766586-.7608.636079-.473942.427171c-1.287748 1.200443-2.510018 2.475719-3.654336 3.816474-.549904.648517-1.074137 1.318371-1.57149 2.008015-.758684 1.053507-1.437204 2.162487-2.02984 3.317589-.302938.599773-.574572 1.214852-.813807 1.842758-.617114 1.604192-.988194 3.292451-1.100667 5.007564l-.021826 1.481066c.053835 2.088364.479341 4.15043 1.256568 6.089522.787361 1.965864 1.935882 3.766906 3.386186 5.310013 1.053895 1.122492 2.254339 2.101555 3.570149 2.906008 1.119375.685968 2.313582 1.250332 3.55456 1.680621 2.697554.914355 5.559798 1.239707 8.393749.954119h.01559c2.417799-.234523 4.767876-.932136 6.922037-2.054785.929175-.49265 1.814697-1.06325 2.644094-1.711801 2.375034-1.848406 4.215304-4.295641 5.331839-7.090411.87305-2.179506 1.30022-4.508678 1.262804-6.85344l-.068597-1.225388c-.15827-1.618741-.544571-3.206982-1.147436-4.717586-.26119-.657896-.557838-1.301154-.88864-1.926946-.613803-1.152767-1.31207-2.258532-2.089084-3.308235-.355584-.48034-.723637-.951323-1.103784-1.412469-1.265528-1.510715-2.62786-2.937622-4.078389-4.271708l-1.025834-.87305 1.736746-1.714919 7.464575-7.795086 2.581732-2.834294 4.012911-4.514914 2.609795-3.052556 3.722933-4.533622 2.519372-3.1679235 3.701108-4.948321 1.867702-2.5599065 2.65033-3.963022 2.207568-3.3768316 4.159459-7.2431945 2.37906-4.7518848.068597-.1465476 1.820932-4.408901c.024032-.0569928.044852-.1152875.062361-.17461l1.961244-6.117584.20579-.8917579.851223-4.8703702.165256-1.3189286.049889-.807571.059242-3.0494379-.01559-.5674823-.155902-2.7313984-.193318-2.1202635-.96659-6.114466c-.015591-.0810689-.031181-.1621378-.056125-.2432067l-1.240978-4.5211503-.427171-1.256568-.558128-1.3906434h0zM193.028172 160.85629c-6.180116.087152-11.168954 5.075989-11.256105 11.256105.090452 6.17821 5.077871 11.164247 11.256105 11.252988 6.178076-.090327 11.165474-5.074963 11.259223-11.252988-.088823-6.18062-5.078578-11.168994-11.259223-11.256105h0z" fill="url(#a)"/><path d="M102.630111 230.263785H47.5094942c-10.9799405.014756-21.6230554-3.79053-30.1046247-10.763499 4.1126877.452115 10.4547702 1.892647 20.0427268-5.905557l47.6404516-41.909504c1.9326548-1.567981 4.699405-1.567981 6.6320598 0l34.2921453 28.196387 12.175925-10.012009c1.934918-1.564894 4.70026-1.564894 6.635178 0l37.478777 30.815536c4.52115 3.420484 10.373701 7.467693 23.868555 9.578646h-24.931805c-2.202573-.027192-4.341958-.739957-6.120702-2.039238l-.436525-.336748-32.982571-27.388816-32.549164 27.388816c-1.838255 1.513147-4.139011 2.351586-6.51981 2.375986zm90.398061-69.407495c-6.180116.087152-11.168954 5.075989-11.256105 11.256105.090452 6.17821 5.077871 11.164247 11.256105 11.252988 6.178076-.090327 11.165474-5.074963 11.259223-11.252988-.088823-6.18062-5.078578-11.168994-11.259223-11.256105h0zm-72.765575-34.101945-3.79153-3.766586-2.294874-2.375942-5.793308-6.232951-1.44365-1.580844-7.0280503-8.216021-1.9893061-2.466366-6.1550004-8.0102308-.6828496-.9229383-4.7300586-6.9656894-1.2971024-2.0984373-3.3893037-5.8182527-1.0351875-1.9020012-2.9309526-6.1924168-.5550101-1.4218238-1.6837388-4.7394127-.6485512-2.2387489-.4988855-2.067257-.4209347-2.2449849-.3305117-2.4944278-.1340755-1.5933157-.0561246-2.7189262.0124721-.5706003.0779509-1.6276141.5861905-5.930502.1839641-1.0383055 1.3345188-5.9211478.3086854-.9915351.9915351-2.8904181.3180395-.7483283 1.5777255-3.4672546 1.0944302-2.0641389 1.524719-2.513136 1.5184828-2.2387488 1.0819581-1.4218238 1.2472138-1.5028928 1.3719353-1.5091287 1.1754991-1.1817352 2.8623558-2.519372 2.0922012-1.711801c.0498886-.0436525.1028952-.0810689.1559018-.1184853l2.4757195-1.67438464 1.9674799-1.25344994 3.7354059-1.96747987c.056124-.03429838.121603-.06236069.180846-.090423l5.29754-2.19821444.489532-.18396405 4.708232-1.37817132 1.989306-.44587895 2.687746-.539420002 1.783516-.271269015 2.734517-.339865779 1.864584-.165255837 3.701107-.1964361837L127.954788 0l2.746989.0561246239.71403.0405344507 3.978612.3305116744 5.263243.742092251.608016.12783942 5.200882 1.29398439 1.527837.45523306 1.696211.58619051 2.067257.7826267 1.63385.6922037 2.400887 1.13184658 1.512247.77639063 2.718926 1.59643375 1.013361.62360693 3.707343 2.70645413 1.06325.9229382 2.584851 2.3541162.127839.1278394 2.191979 2.3509982.754564.8512234 2.572379 3.417366.52383.8169251 2.042312 3.4485463.614253 1.1817352 1.150555 2.5723786 1.203561 3.0026673.427171 1.256568 1.240978 4.5211503c.023136.0799829.041873.1611735.056125.2432067l.96659 6.114466.193318 2.1202635.155902 2.7313984.01559.5674823-.059242 3.0494379-.049889.807571-.165256 1.3189286-.851223 4.8703702-.20579.8917579-1.961244 6.117584c-.017509.0593225-.038329.1176172-.062361.17461l-1.820932 4.408901-.068597.1465476-2.37906 4.7518848-4.159459 7.2431945-2.207568 3.3768316-2.65033 3.963022-1.867702 2.5599065-3.701108 4.948321-2.519372 3.1679235-3.722933 4.533622-2.609795 3.052556-4.012911 4.514914-2.581732 2.834294-7.464575 7.795086-1.736746 1.714919 1.025834.87305c1.449886 1.334519 2.812467 2.759461 4.078389 4.271708.3804.461469.748328.932292 1.103784 1.412469.777014 1.049703 1.475281 2.155468 2.089084 3.308235.330511.623607.626725 1.26904.88864 1.926946.595544 1.509128.997771 3.105562 1.147436 4.717586l.068597 1.225388c.038276 2.345665-.391009 4.675463-1.262804 6.85344-1.116535 2.79477-2.956805 5.242005-5.331839 7.090411-.829397.648551-1.714919 1.219151-2.644094 1.711801-2.154161 1.122649-4.504238 1.820262-6.922037 2.054785h-.01559c-2.833951.285588-5.696195-.039764-8.393749-.954119-1.24191-.430587-2.433675-.994062-3.55456-1.680621-1.314739-.80453-2.515514-1.78193-3.570149-2.906008-1.450304-1.543107-2.598825-3.344149-3.386186-5.310013-.777227-1.939092-1.202733-4.001158-1.256568-6.089522l.021826-1.481066c.112473-1.715113.483553-3.403372 1.100667-5.007564.240088-.629843.511357-1.244096.813807-1.842758.592426-1.156791 1.272158-2.263694 2.02984-3.317589.495768-.689086 1.022716-1.359463 1.57149-2.008015 1.144318-1.340755 2.366588-2.616031 3.654336-3.816474l.473942-.427171.7608-.636079h0z"/><path d="M141.699085 200.498983l32.982571 27.388816c1.88469 1.533775 4.239556 2.372676 6.669476 2.375943h-78.83327c2.419595 0 4.764357-.838751 6.632059-2.375943l32.549164-27.388816zm-13.535388-64.639977.299331.087305c.096659.046771.177728.115368.265033.17461l.249443.221381c.617371.567482 1.216033 1.163027 1.79287 1.774161.405344.433407.801335.879286 1.181735 1.340755.483295.583073.93541 1.194208 1.346991 1.830287.177728.280623.342984.564364.498885.860577.134076.255679.255679.520712.361692.788863.187083.467705.327394.960355.371047 1.462358l-.009355.941647c-.125821 1.724443-1.073914 3.282935-2.547434 4.18752-.942807.569662-2.002453.918258-3.099326 1.019598l-1.163027.034298-.982181-.087305c-.459222-.066996-.911208-.1766-1.350109-.327394-.446738-.152214-.875432-.352968-1.278394-.598662l-.767037-.561246c-.903235-.772064-1.518641-1.827047-1.746099-2.993314-.037981-.196199-.068146-.39383-.090423-.592426l-.028063-.897994c.015591-.243207.053007-.483296.106014-.723384.134075-.52383.327393-1.03207.5706-1.515365.314338-.606494.672839-1.189058 1.072604-1.742982.664141-.897994 1.384407-1.752335 2.154562-2.559906.495767-.52383 1.004007-1.032069 1.534073-1.521601l.377282-.339866c.261915-.17461.265033-.17461.564364-.261915h.314922 0zm-1.930064-125.1953274.121604-.0093542V115.635434l-.261915-.483296c-3.455552-6.392966-6.672463-12.912074-9.644081-19.5438411-2.411285-5.3671847-4.594815-10.8338132-6.544755-16.3852722-1.558605-4.4223443-2.875324-8.9262526-3.944314-13.491736-.829397-3.6262743-1.465476-7.3055552-1.727391-11.0222525-.100259-1.5860137-.130429-3.1756812-.090423-4.764357.024944-1.3844073.081069-2.7656967.168374-4.1469861.137193-2.1732701.358574-4.3403042.676613-6.4917481.252561-1.6930929.564364-3.3799496.951001-5.0480981.305567-1.3251648.661023-2.6409754 1.066368-3.9349598.58619-1.8708208 1.287748-3.6979891 2.104673-5.4815049.299331-.6423152.620489-1.2815123.957237-1.9082372 2.026722-3.7541138 4.776829-7.2120142 8.378159-9.5255959 2.340459-1.5223856 5.010972-2.4631586 7.78885-2.7438705h0zm13.61334.2650329 7.062348 2.0142504c3.270819 1.2066794 6.420034 2.7812869 9.31357 4.7456487 3.944007 2.6620153 7.343285 6.0528262 10.015127 9.9901831 1.568372 2.3322899 2.865474 4.8485439 3.878835 7.4770471 1.468595 3.8881893 2.379061 7.9634606 2.700218 12.1073286.093541 1.0850761.146548 2.1732702.168374 3.2614643.024944 1.0102432.018708 2.0236045-.062361 3.0338477-.200584 2.2607932-.625693 4.4960086-1.26904 6.6725942-.517478 1.7811792-1.12842 3.5338641-1.830286 5.2507704-.87305 2.1358537-1.842759 4.231173-2.906008 6.2766038-2.354117 4.5460945-5.063689 8.8957528-7.963461 13.1019816-3.594684 5.1695731-7.42669 10.170014-11.483722 14.9852746-4.405934 5.254351-9.000773 10.347363-13.775477 15.269016 3.240089-6.075323 6.264392-12.263289 9.067245-18.5523065 1.559017-3.504671 3.027612-7.0467583 4.408901-10.6231441 1.519383-3.9283677 2.889185-7.9129634 4.106452-11.9451908.90423-3.0213756 1.702447-6.0739315 2.360352-9.1607858.564364-2.6472115 1.007125-5.3224852 1.281512-8.0133491.230735-2.244985.314922-4.5024421.258797-6.7536631-.021283-1.3780686-.072223-2.7555195-.152784-4.1313959-.330511-5.5376296-1.172381-11.056551-2.787523-16.366564-.611536-2.0132646-1.355243-3.9839856-2.226276-5.8993216-2.067257-4.502442-4.951439-8.7117888-8.855219-11.783053l-1.309574-.9572366h0z" fill="#fff"/></svg>