<svg width="256px" height="256px" viewBox="0 0 256 256" xmlns="http://www.w3.org/2000/svg" preserveAspectRatio="xMidYMid"><title>Fomo</title><path d="M253.971274 0C255.091708 0 256 .908253504 256 2.02864097V253.971358C256 255.091746 255.091708 256 253.971274 256H2.02872518C.908291207 256 0 255.091746 0 253.971358V2.02864097C0 .908253504.908291207 0 2.02872518 0H253.971274zm-20.475632 20.4854092H22.5072564c-1.1204339 0-2.0287243.908254-2.0287243 2.0286415V233.480877c0 .538028.2137399 1.054022.5941997 1.434466l1.4345246.594175H233.495642c1.120433 0 2.028724-.908254 2.028724-2.028641V22.5140507c0-1.1203875-.908291-2.0286415-2.028724-2.0286415h0zM199.684521 186.876473c7.069405 0 12.80029 5.730648 12.80029 12.799759 0 7.069112-5.730885 12.799759-12.80029 12.799759-7.069405 0-12.80029-5.730647-12.80029-12.799759 0-7.069111 5.730885-12.799759 12.80029-12.799759zM175.847 60.9490543c.787061-.7637803 2.038664-.7637803 2.825724 0l12.268958 12.2684479c.388379.3942333.599992.9292867.588044 1.4825133-.015373.5532265-.253135 1.0771847-.660499 1.4517709-10.071171 9.3220881-19.140056 14.8163241-34.76607 14.8163241h-29.984075c-1.120434 0-2.028725.9082537-2.028725 2.028641v24.7904755c0 1.120387.908291 2.028641 2.028725 2.028641h34.621161c.538051 0 1.054066.213731 1.434525.594176.38046.380444.5942.896436.5942 1.434465v18.414747c0 .538029-.21374 1.054022-.5942 1.434466-.380459.380443-.896474.594174-1.434525.594174h-34.609086c-1.120434 0-2.028725.908255-2.028725 2.028642v40.693572c0 .538029-.21374 1.054021-.5942 1.434465-.380459.380445-.896474.594176-1.434525.594176h-18.463814c-1.120434 0-2.028725-.908254-2.028725-2.028641v-40.693572c0-1.120387-.908291-2.028642-2.0287253-2.028642H78.8304639c-1.120434 0-2.0287251-.908253-2.0287251-2.02864v-18.463048c0-.538029.21374-1.054022.5941999-1.434465.3804597-.380445.896474-.594176 1.4345252-.594176h20.7219788c1.1204343 0 2.0287253-.908253 2.0287253-2.028641V70.5247228c0-1.1203875.908291-2.0286409 2.028725-2.0286409h47.421451l.998348-.0043678c14.093576-.1250482 18.966975-2.9285442 23.817308-7.5426598h0z" fill="#eba06d"/></svg>