<svg width="256px" height="258px" viewBox="0 0 256 258" xmlns="http://www.w3.org/2000/svg" preserveAspectRatio="xMidYMid"><title>Font Awesome</title><path d="M103.893529 9.1939549c18.154383 0 30.568061 4.5969774 42.979901 9.1939549l.902846.3353955 1.209185.447764 1.208625.446102c.201467.0741591.402968.1482094.604532.2221312l1.210365.4418302c10.702244 3.8864152 21.741564 7.300732 37.386488 7.300732 15.229341 0 26.174717-3.2336699 36.428045-6.9888994l1.18021-.435456c.392516-.1458207.784212-.2922586 1.175293-.4391595l1.171603-.4419369c.195028-.0738362.389953-.1477495.584801-.2217207l1.168368-.4443673c.194641-.0741255.389257-.1482703.583872-.2224151l1.752241-.6667824c7.021461-2.6655938 14.143091-5.2560459 22.560643-6.8687648l-2.31e-4 183.8792334c-7.716157 1.478464-14.343336 3.77857-20.803571 6.204972l-1.171729.441937c-.780201.295344-1.558773.591924-2.337353.888503l-1.752481.666782c-.194872.073971-.389821.147885-.584871.221721l-1.171727.441937c-10.951341 4.113223-22.382284 7.863515-38.783113 7.863515-15.40392 0-26.426875-3.309203-37.029689-7.121876l-1.221762-.441998c-.406783-.147972-.81317-.296528-1.219386-.44551l-1.21836-.448062-1.218688-.449658-.901008-.329143-1.24327-.458187c-.207256-.076299-.414552-.152552-.621913-.228736l-1.245149-.456125c-.207723-.075829-.415562-.151549-.623543-.227137l-1.249789-.451788c-10.849789-3.898947-22.221003-7.32969-37.709385-7.32969-12.855655 0-22.6574693 2.303742-31.5679531 5.280375l4.033e-4-36.776225c8.910047-2.976436 18.7124771-5.27997 31.5675498-5.27997 16.666319 0 28.494463 3.87426 39.924611 8.066082l1.223339.450177 1.831951.677696h0l.902846.33466c.806616.298865 1.611941.597256 2.41781.893908l1.20944.443515 1.168307.424317c.194956.070396.390048.140619.585303.210652l1.173677.41776c9.996281 3.529067 20.547771 6.469143 35.064658 6.469143 12.706802 0 22.431269-2.251158 31.259776-5.178139l-1.98e-4-110.3276619c-8.828759 2.9270803-18.552482 5.1783422-31.259578 5.1783422-15.424708 0-26.456619-3.3184174-37.072613-7.1371837l-1.200248-.4342992-1.197976-.4376656-1.21836-.4479995-1.218688-.4495878-.901008-.3298791c-1.036005-.3819628-2.071717-.7638159-3.110332-1.1429249l-1.247935-.453445-1.25195-.4497993c-10.662113-3.8049331-21.892304-7.1051257-37.082832-7.1051257-15.251438 0-26.2047459 3.2424036-36.4707611 7.0041056l-1.1594483.4279252-1.1547403.431484-1.1717285.441937c-.3901006.1476724-.7797939.2956533-1.1692846.4437886l-1.1680684.4447145c-.7785797.2965792-1.5571517.5931584-2.3373525.8885031l-1.1717273.4419369c-10.9513408 4.1132232-22.3822835 7.8635149-38.7831127 7.8635149-.30841 0-.6150637-.0013266-.9199929-.0039574l2.185e-4-36.7758238c.3048285.0026335.6114091.0039616.9197744.0039616 16.4008292 0 27.833272-3.7502917 38.7835482-7.8635149l1.1716033-.4419369.584801-.2217207 1.1683673-.4443673c.1946417-.0741255.3892575-.1482703.5838727-.2224151l1.7522403-.6667824c11.4960387-4.3643009 23.2605962-8.5271725 40.5417909-8.5271725z" fill="#528dd7"/><path d="M18.3879098 0C8.23263497 0 0 8.23263497 0 18.3879098V239.042827c0 10.155643 8.23263497 18.38791 18.3879098 18.38791 10.1552748 0 18.3879098-8.232267 18.3879098-18.38791V18.3879098C36.7758196 8.23263497 28.5431846 0 18.3879098 0z" fill="#193154"/></svg>