<svg width="256px" height="256px" viewBox="0 0 256 256" xmlns="http://www.w3.org/2000/svg" preserveAspectRatio="xMidYMid"><title>Forest Admin</title><path d="M21.3333333 0H234.666667C246.448741 0 256 9.55125867 256 21.3333333V234.666667C256 246.448741 246.448741 256 234.666667 256H21.3333333C9.55125867 256 0 246.448741 0 234.666667V21.3333333C0 9.55125867 9.55125867 0 21.3333333 0z" fill="#54bd7e"/><path d="M135.6928 84.6165333c30.8688-2.3258666 49.528-17.0256 55.341867-36.6165333C150.2976 66.7701333 99.4656 43.80752 89.8448 85.2816l-4.9317333 22.109867C93.4928 94.08 104.8256 86.9424 135.6928 84.6165333zm-16.050667 3.7648c-15.1712 2.1856-27.3407997 9.2234667-34.1706663 21.5850667-2.1984 3.9776-2.9706667 8.252267-2.9706667 8.252267l-3.4912 15.6496c4.3733333-7.798934 12.1941333-17.765334 32.690667-22.507734.461333-2.4816 3.260266-16.7066663 7.941866-22.9791997zM75.824 148.147733l-5.3317333 23.904534C84.6192 145.1536 115.021333 139.9328 118.775467 139.148267c26.474133-5.536534 39.220266-18.6816 44.289066-35.763734-23.100266 13.062934-77.019733-3.339733-87.240533 44.7632zM67.9242667 183.5696 64 201.162667C95.3088 199.4 98.7616 169.312 103.8704 145.410133c-9.7408 3.4-31.2074667 16.723734-35.9461333 38.159467z" fill="#fff"/></svg>