<svg width="256px" height="256px" viewBox="0 0 256 256" xmlns="http://www.w3.org/2000/svg" preserveAspectRatio="xMidYMid"><title>Fortran</title><path d="M48 0h160c26.509668 0 48 21.490332 48 48v160c0 26.509668-21.490332 48-48 48H48c-26.509668 0-48-21.490332-48-48V48C0 21.490332 21.490332 0 48 0z" fill="#734f96"/><path d="M34.8922061 216.951238c0-10.179106.0791893-11.085926.9698713-11.104836.5334289-.01024 5.7970211-.246784 11.6968687-.523537 9.5011089-.445509 11.0178509-.649012 13.2721016-1.780634 1.7823198-.894703 2.886004-1.94205 3.6825429-3.494468 1.1294345-2.201259 1.1374421-2.710358 1.1374421-72.324813 0-65.4163286-.0641706-70.2252135-.9588019-71.8602104-1.2113237-2.2137583-3.3125069-3.8768708-5.8944478-4.6655283-1.1077871-.3383637-6.9397299-.7480559-12.9598703-.9104008l-10.9457066-.2951851V38.9781163 27.9645969h93.1078009 93.107794v41.2888747 41.2888744l-9.837261-.055262c-5.410509-.030378-10.460774-.228659-11.222835-.440589-1.362398-.378911-1.3966-.528275-2.04957-8.950716-.838076-10.8098355-1.523166-15.5968649-3.261099-22.7873314-3.757466-15.545897-11.685752-24.0029935-24.632252-26.2752017-5.431842-.953327-29.130318-1.8744457-48.616779-1.8896487l-13.439676-.0105813v31.0447138 31.0447143l7.066222-.350478c8.078899-.400712 14.429593-1.376324 17.495132-2.687669 3.264887-1.396623 6.71232-4.924672 8.326212-8.520899 1.686118-3.7572126 2.789376-8.6946949 3.674761-16.4462759.348194-3.0481715.748305-6.1032721.889173-6.7891097.254976-1.2417263.301739-1.2469794 11.052725-1.2469794h10.796578v49.602068 49.602066h-11.002641-11.002617l-.369937-5.722044c-.669935-10.361856-2.687522-20.174985-5.111945-24.863266-3.313971-6.408602-9.836305-9.289418-22.946249-10.135129-2.895763-.186812-6.092305-.46791-7.10343-.624681l-1.838408-.285048.214767 31.206564c.226509 32.914398.32471 34.20044 2.8224 36.958686 2.568052 2.835968 4.065427 3.030767 30.151503 3.92291.530329.017067.69277 2.622669.69277 11.107977v11.084253H88.3737668 34.8922061v-11.084151z" fill="#fff"/></svg>