<svg width="256px" height="256px" viewBox="0 0 256 256" xmlns="http://www.w3.org/2000/svg" preserveAspectRatio="xMidYMid"><defs><linearGradient x1="0%" y1="-1.92038577e-14%" x2="50%" y2="50%" id="a"><stop stop-color="#ff5959"/><stop stop-color="#df0000" offset="1"/></linearGradient><linearGradient x1="0.846605405%" y1="99.1933919%" x2="50.0399865%" y2="50%" id="b"><stop stop-color="#ffb73d"/><stop stop-color="#ffa000" offset="1"/></linearGradient><linearGradient x1="92.8186757%" y1="92.8186757%" x2="50%" y2="50%" id="c"><stop stop-color="#fff18d"/><stop stop-color="#ffcd01" offset="1"/></linearGradient><linearGradient x1="82.1708514%" y1="82.1708514%" x2="4.07623108%" y2="4.07622973%" id="d"><stop stop-color="#fff"/><stop stop-color="#fff" stop-opacity="0" offset="1"/></linearGradient><linearGradient x1="2.90435541%" y1="97.0956486%" x2="50%" y2="50%" id="e"><stop stop-color="#00a000" stop-opacity="0.25892857"/><stop stop-color="green" offset="1"/></linearGradient><linearGradient x1="0%" y1="50%" x2="100%" y2="50%" id="f"><stop stop-color="#263cce"/><stop stop-color="#263cce" stop-opacity="0" offset="1"/></linearGradient><linearGradient x1="50%" y1="50%" x2="-42.7825311%" y2="-3.5680259%" id="g"><stop stop-color="#652f99"/><stop stop-color="#502679" stop-opacity="0.65178573" offset="1"/></linearGradient></defs><path d="M255.410135 127.410191c0 70.366679-57.043464 127.410142-127.410142 127.410142-70.3666784 0-127.410141866-57.043463-127.410141866-127.410142C.589851134 57.0435131 57.6333146 4.95483871e-5 127.999993 4.95483871e-5V127.410191h127.410142z" fill="url(#a)"/><path d="M127.999994 236.618916c-60.3143059 0-109.2087116-48.894406-109.2087116-109.208712 0-60.3143057 48.8944057-109.2087114 109.2087116-109.2087114 60.314306 0 109.208712 48.8944057 109.208712 109.2087114H127.999994v109.208712h0z" fill="url(#b)"/><path d="M219.007588 127.410309c0 50.261886-40.745308 91.007195-91.007194 91.007195-50.2618855 0-91.0071942-40.745309-91.0071942-91.007195 0-50.2618852 40.7453087-91.0071939 91.0071942-91.0071939v91.0071939h91.007194z" fill="url(#c)" transform="matrix(-1 0 0 -1 256.000788 254.820618)"/><path d="M127.999785 54.6049463c40.209489 0 72.805721 32.5962313 72.805721 72.8057207 0 40.209489-32.596232 72.80572-72.805721 72.80572-40.2094888 0-72.8057202-32.596231-72.8057202-72.80572h72.8057202V54.6049463h0z" fill="url(#d)"/><path d="M182.604523 127.410156c0 30.157141-24.447193 54.604334-54.604334 54.604334-30.1571412 0-54.6043343-24.447193-54.6043343-54.604334 0-30.157141 24.4471931-54.6043341 54.6043343-54.6043341v54.6043341h54.604334z" fill="url(#e)"/><path d="M128.000378 164.540978c-20.104745 0-36.4028607-16.298116-36.4028607-36.402861 0-20.104744 16.2981157-36.4028599 36.4028607-36.4028599 20.104744 0 36.40286 16.2981159 36.40286 36.4028599h-36.40286v36.402861h0z" fill="url(#f)"/><path d="M146.201562 127.410445c0 6.502745-3.469173 12.511529-9.100715 15.762901-5.631542 3.251373-12.569888 3.251373-18.20143 0-5.631542-3.251372-9.100715-9.260156-9.100715-15.762901 0-6.502745 3.469173-12.511529 9.100715-15.762901 5.631542-3.251373 12.569888-3.251373 18.20143 0 5.631542 3.251372 9.100715 9.260156 9.100715 15.762901h0z" fill="url(#g)" transform="matrix(-1 0 0 -1 256.000264 254.82089)"/></svg>