<svg width="256px" height="228px" viewBox="0 0 256 228" xmlns="http://www.w3.org/2000/svg" preserveAspectRatio="xMidYMid"><path d="M90.624 148.451556c9.0808889 0 13.212444 4.316444 13.845333 11.555555h.120889c-.022877.336361-.041841.672976-.056889 1.009778.014223.341333.021334.696889.021334 1.059555v1.038223c.647111 10.823111 9.116444 19.591111 19.982222 20.963555.824889-.092444 1.699555-.135111 2.616889-.135111h3.285333c10.432-1.728 18.446222-10.311111 19.079111-20.835555v-1.031112c0-.448.014222-.874666.035556-1.301333-.00578-.256245-.017635-.512317-.035556-.768h.085334c.64-7.239111 4.764444-11.555555 13.852444-11.555555h13.930667v13.624888c0 9.400889-4.899556 13.624889-13.937778 13.624889h-2.410667c-10.033778 1.116445-18.090666 8.533334-19.946666 18.097778V197.568c0 2.040889-.234667 3.832889-.682667 5.390222v15.395556c0 5.056-4.259556 9.201778-9.400889 9.201778h-8.789333c-5.176889 0-9.393778-4.145778-9.393778-9.201778v-21.070222c0-.867556.120889-1.706667.355555-2.510223-1.514666-10.026666-9.770666-17.92-20.1457773-19.072h-2.4177778c-9.0311111 0-13.9306667-4.224-13.9306667-13.624889v-13.624888H90.624zm36.536889 0c9.912889 0 13.930667 8.163555 13.930667 13.624888 0 9.400889-4.906667 13.624889-13.937778 13.624889-9.031111 0-13.930667-5.148444-13.930667-13.624889 0-8.476444 4.017778-13.624888 13.937778-13.624888zM14.7342222 110.272c9.0808889 0 13.2124445 4.316444 13.8453334 11.548444h.128c-.0213334.341334-.0497778.675556-.064 1.016889.0142222.348445.0213333.696889.0213333 1.059556V124.928c.6542222 10.830222 9.1733333 19.605333 20.032 20.963556.8106667-.085334 1.6711111-.128 2.5742222-.128h3.264c10.2542222-1.685334 18.2257778-10.005334 19.1004445-20.288v-1.578667c0-.497778.0142222-.974222.0426666-1.443556l-.0426666-.632889h.0853333c.64-7.232 4.8071111-11.548444 13.888-11.548444h13.9377781v13.624889c0 9.400889-4.9422226 13.617778-13.9377781 13.617778h-2.4391111c-10.0195556 1.116444-18.1048889 8.533333-19.968 18.104889v3.761777c0 9.400889-4.8924445 13.617778-13.9306667 13.617778-11.3208889 0-13.9306667-5.141333-13.9306667-13.617778 0-.654222.0213334-1.28.0711112-1.898666-1.1377778-10.453334-9.5857778-18.780445-20.2382223-19.968h-2.4391111c-9.03111109 0-13.937777756-4.216889-13.937777756-13.617778V110.272H14.7342222zm154.4604448 0c9.080889 0 13.212444 4.316444 13.845333 11.548444h.128c-.021333.341334-.049778.675556-.064 1.016889.014222.348445.021333.696889.021333 1.059556V124.928c.646788 10.707152 8.980733 19.405634 19.662733 20.914387l.365934.048613.491326-.045524c.666283-.054614 1.358052-.08192 2.08623-.08192h3.264c10.432-1.706667 18.503111-10.304 19.143111-20.835556v-1.031111c0-.355556 0-.711111.021333-1.059556l-.071111-1.016889h.135111c.632889-7.232 4.764444-11.548444 13.845333-11.548444H256v13.624889c0 9.400889-4.935111 13.617778-13.937778 13.617778h-2.439111c-10.012444 1.116444-18.097778 8.540444-19.960889 18.112v3.754666c0 9.400889-4.899555 13.617778-13.930666 13.617778-11.320889 0-13.937778-5.141333-13.937778-13.617778 0-.654222.028444-1.28.071111-1.898666-1.137778-10.453334-9.578667-18.780445-20.231111-19.968h-2.439111c-9.031111 0-13.937778-4.216889-13.937778-13.617778V110.272h13.937778zm36.536889 0c9.92 0 13.937777 8.156444 13.937777 13.624889 0 9.400889-4.906666 13.617778-13.937777 13.617778-8.995556 0-13.937778-5.141334-13.937778-13.617778 0-8.483556 4.017778-13.624889 13.937778-13.624889zm-154.4533338 0c9.9128889 0 13.9235556 8.156444 13.9235556 13.624889 0 9.275544-4.762849 13.504406-13.5713507 13.615526L51.275 137.514l-.3658797-.002223c-8.8024353-.138595-13.5686759-5.254559-13.5686759-13.614888 0-8.483556 4.0177778-13.624889 13.9377778-13.624889zM90.624 73.1448889c9.0737778 0 13.212444 4.3164444 13.838222 11.5555555h.128l-.056889 1.0097778c.014223.3484445.021334.704.021334 1.0666667V87.808c.654222 10.8302222 9.130666 19.598222 20.003555 20.956444.817778-.085333 1.685334-.128 2.595556-.128h3.256889c10.446222-1.720888 18.474666-10.3039996 19.107555-20.8355551v-1.0311111c0-.4408889.014222-.8746667.035556-1.3013334-.001197-.2563822-.013059-.5126038-.035556-.768h.092445c.625777-7.2391111 4.764444-11.5555555 13.845333-11.5555555h13.930667v13.6248889c0 9.4008889-4.899556 13.6248892-13.937778 13.6248892h-2.410667c-10.033778 1.116444-18.090666 8.533333-19.946666 18.104889v3.761777c0 9.400889-4.906667 13.617778-13.937778 13.617778-11.320889 0-13.930667-5.141333-13.930667-13.617778 0-.654222.028445-1.28.071111-1.898666-1.137778-10.453334-9.578666-18.780445-20.2595553-19.968h-2.4177778c-9.0311111 0-13.9306667-4.2240003-13.9306667-13.6248892V73.1448889H90.624zm36.536889-.0071111c9.912889 0 13.930667 8.1564444 13.930667 13.6248889 0 9.4008889-4.906667 13.6248893-13.937778 13.6248893-9.031111 0-13.930667-5.1484449-13.930667-13.6248893 0-8.4764445 4.017778-13.6248889 13.937778-13.6248889zM13.9377778 36.7288889c9.0737778 0 13.2124444 4.3164444 13.8382222 11.5555555h.128l-.064 1.0097778c.0142222.3484445.0213333.6968889.0213333 1.0595556v1.024c.6542223 10.8373333 9.1733334 19.6195555 20.032 20.9777778v-.0071112c.8106667-.0853333 1.6711111-.128 2.5742223-.128h3.264c10.4391111-1.7066666 18.5173333-10.3111111 19.1431111-20.8568888v-1.0097778c0-.3555556 0-.7111111.0213333-1.0524445-.0174043-.3391988-.0387391-.6781845-.064-1.0168889h.128c.6328889-7.2391111 4.7644444-11.5555555 13.8453333-11.5555555h13.9377777v13.6248889c0 9.4008889-4.9422221 13.6177778-13.9377777 13.6177778h-2.4391111c-10.0195555 1.1164444-18.1048889 8.5333333-19.968 18.1048888v3.7617778c0 9.4008889-4.8924444 13.6248889-13.9306666 13.6248889-11.2782223 0-13.9306667-5.1413333-13.9306667-13.6248889 0-.6542222.0213333-1.28.0711111-1.8915555-1.1377778-10.4533334-9.5786667-18.7875556-20.2311111-19.9751111h-2.4462222C4.90666667 63.9715556 0 59.7546667 0 50.3537778V36.7288889h13.9377778zM256 36.7217778v13.6248889c0 9.4008889-4.935111 13.6177777-13.937778 13.6177777h-2.439111c-10.012444 1.1164445-18.097778 8.5404445-19.960889 18.112v3.7546667c0 9.4008889-4.899555 13.6248889-13.930666 13.6248889-11.320889 0-13.937778-5.1413333-13.937778-13.6248889 0-.6542222.028444-1.28.071111-1.8986667-1.137778-10.4533333-9.578667-18.7733333-20.231111-19.968h-2.439111c-9.031111 0-13.937778-4.2168888-13.937778-13.6177777V36.7288889h13.937778c9.080889 0 13.212444 4.3164444 13.845333 11.5555555h.128l-.064 1.0097778c.014222.3484445.021333.6968889.021333 1.0595556v1.024c.654223 10.8373333 9.173334 19.6124444 20.032 20.9777778l-.007111-.0071112c.817778-.0853333 1.671111-.128 2.581334-.128h3.264c10.432-1.7066666 18.503111-10.304 19.143111-20.8355555v-1.0382222c0-.3555556 0-.7111111.021333-1.0595556l-.071111-1.0097778h.135111c.625778-7.2391111 4.764444-11.5555555 13.845333-11.5555555H256zm-205.5253333.0071111c9.9128889 0 13.9235555 8.1564444 13.9235555 13.6248889 0 9.4008889-4.8924444 13.6177778-13.9306666 13.6177778-8.9955556 0-13.9306667-5.1413334-13.9306667-13.6177778 0-8.4835556 4.0533333-13.6248889 13.9377778-13.6248889zm155.2568893 0c9.92 0 13.937777 8.1564444 13.937777 13.6248889 0 9.4008889-4.906666 13.6177778-13.937777 13.6177778-8.995556 0-13.937778-5.1413334-13.937778-13.6177778 0-8.4835556 4.017778-13.6248889 13.937778-13.6248889zM90.624 0c9.0808889 0 13.212444 4.31644444 13.838222 11.5555556h.128l-.056889 1.0097777c.014223.3484445.021334.6968889.021334 1.0595556v1.0382222c.654222 10.8302222 9.130666 19.5982222 20.003555 20.9564445v.0071111c.817778-.0853334 1.685334-.128 2.595556-.128h3.256889c10.446222-1.7208889 18.474666-10.304 19.107555-20.8355556V13.632c0-.4408889.014222-.8746667.035556-1.3013333-.001197-.2563823-.013059-.5126038-.035556-.768h.092445C150.236444 4.31644444 154.375111 0 163.456 0h13.930667v13.6248889c0 9.4008889-4.899556 13.6248889-13.937778 13.6248889h-2.446222c-10.019556 1.1377778-18.062223 8.5475555-19.911111 18.0977778v3.7688888c0 9.4008889-4.906667 13.6177778-13.937778 13.6177778-11.320889 0-13.930667-5.1484444-13.930667-13.6177778 0-.6542222.028445-1.28.071111-1.8986666-1.137778-10.4462222-9.557333-18.7662222-20.2239998-19.968h-2.4533333c-9.0311111 0-13.9306667-4.224-13.9306667-13.6248889V0H90.624zm36.536889 0c9.912889 0 13.930667 8.15644444 13.930667 13.6248889 0 9.4008889-4.906667 13.6248889-13.937778 13.6248889-9.031111 0-13.930667-5.1484445-13.930667-13.6248889C113.223111 5.14844444 117.240889 0 127.160889 0z" fill="#38a1e7"/></svg>