<svg width="256px" height="216px" viewBox="0 0 256 216" xmlns="http://www.w3.org/2000/svg" preserveAspectRatio="xMidYMid"><title>Fresh</title><path d="M240.381883 20.8655042c37.347885 91.1652848 0 140.1800408-31.595523 167.2045598 7.721291 27.024519-23.055776 32.599291-34.74581 19.303228-34.413795 11.867625-104.3300866 11.48156-154.4258236-38.606456-27.02451901-27.024519-5.9453942-87.1424917 65.6309748-127.4013038C147.01603 6.619722 208.78636-12.6835059 240.381883 20.8655042z" fill="#ffdb1e"/><path d="M85.2457012 41.3655322C138.121103 6.64288587 201.258101-7.89630537 227.070377 14.5726519 266.696043 49.0868234 143.155385 127.16452 96.827638 145.602963c-50.1883925 19.97498-23.1638735 65.630975-50.1883925 65.630975-23.1638735 0-19.3032279-30.885165-40.01945209-59.840007C-5.61845306 134.291271 24.7107786 81.1147391 85.2457012 41.3655322z" fill="#fff"/><path d="M83.1265451 38.1384962c-10.314148 6.7726064-19.9832438 14.1330819-28.8188972 21.7773974l-4.347501 3.8444035C12.1861356 97.9032661-8.71747771 136.594638 3.48017349 153.640567c1.14143539 1.595372 2.22888327 3.23033 3.26866939 4.909176 2.71991723 4.391599 5.05977722 8.973423 7.29974362 14.148279l1.6323238 3.921972 5.7871768 15.304156c6.3244497 16.388679 12.4360837 23.170433 25.1711584 23.170433 11.620873 0 15.6614917-5.511885 18.5245589-19.715918l1.3280792-6.947408.816049-3.970065.4953088-2.130708.4947654-1.862129.5271667-1.717168.5925131-1.695826.6908041-1.798102c4.3485684-10.947391 12.1811372-19.185326 25.9268919-25.145152l2.2198765-.922156c26.7095289-10.630393 69.1584539-36.01571 98.3812879-60.0942299l4.047889-3.3942122c1.978083-1.6888665 3.88697-3.3651847 5.724835-5.0281038l3.580497-3.3077209c27.877774-26.3148116 37.262977-49.0542978 20.685366-64.7342127l-1.069974-.970771C202.918374-11.5694959 139.278963 1.2638726 83.1265451 38.1384962zM224.535594 17.4846033c13.024175 11.3441274 5.365072 30.3843492-19.595814 54.0296242l-3.510683 3.2526092c-.602881.5467621-1.21462 1.0958302-1.835177 1.6471682l-3.828836 3.3349753c-1.311338 1.1205443-2.657629 2.2498775-4.038556 3.3877095-27.592759 22.7353993-67.407191 46.7678923-93.4866364 57.7172593l-2.8398748 1.162026c-17.117167 6.812632-27.1104772 16.904923-32.4674129 30.390848l-1.1223305 2.97706-.6201903 1.874309-.5596268 1.94003c-.0902176.33615-.1794067.68054-.2683149 1.03592l-.536058 2.286171-.8699337 4.212642-1.3522485 7.086837-.5893452 2.772517c-1.9783951 8.58818-4.2178068 10.780983-10.3753105 10.780983-8.2380277 0-12.3093562-4.120288-17.2833027-16.490618l-5.8233387-15.384091-.9990328-2.534181c-2.8049126-6.885612-5.7056104-12.805109-9.2204592-18.48021-1.1288105-1.822586-2.3110313-3.600034-3.55353687-5.33667-6.67838891-9.332891 1.80588177-30.371134 20.36534747-53.3379011l3.0971539-3.739701C47.0188089 75.8046785 65.654791 58.8481067 87.3647324 44.5926503 140.934709 9.41388487 201.283381-2.75588128 224.535594 17.4846033z" fill="#ffdb1e"/><path d="M197.474668 20.3018499c35.865398 9.651614-2.818271 43.9727532-33.224716 65.9089413-28.815858 20.7857158-51.006849 32.5066358-61.175789 37.2938368-2.825993 1.335783-12.4853283-17.388348-12.4853283-7.721292 0 3.219779-5.4049038 17.28025-7.2116859 17.959724-10.5395625 3.953301-32.6070126 9.960465-45.0537339 9.960465-26.9550274 0-14.8480429-36.707018 23.2719715-70.4336177 6.8873917-6.0920988 11.4120684-4.9802328 17.6277077-4.9802328-4.1463333-5.9685581-4.1231694-7.080424 3.1116804-11.9371162 32.1746205-21.6273365 72.4025475-36.0661509 89.4820435-38.7686028 2.825992.108098 6.331458 2.7024519 6.331458 4.8566921 3.16573-1.0809808 16.176105-2.995861 19.326392-2.1465189v.0077212z" fill="#ffe600"/><path d="M87.5389247 79.8947751c7.6054718-5.7678045 12.6938023-7.7985041 16.2069903-19.5039815 4.370251.9342762 6.493606-.6177033 9.960465-5.4126251 2.501699 3.5981217 12.79418 4.694545 18.940328 5.4126251-5.520724 3.4823023-8.161405 6.5785401-11.211315 16.2610392-11.30397-4.7177089-24.4533292-2.3318299-33.8964683 3.2429423h0z" fill="#fff"/></svg>