<svg width="256px" height="229px" viewBox="0 0 256 229" xmlns="http://www.w3.org/2000/svg" preserveAspectRatio="xMidYMid"><path d="M106.639312.245431053C169.554944-3.84664258 223.77492 43.7237134 228.378503 106.127836c0 4.603583 0 9.207166 0 13.810749 0 1.534527-1.023018 2.557546-2.557546 2.557546-.511509 0-.511509 0-.511509 0-1.023019 0-1.534528-.511509-2.046037-1.023019-.511509-.511509-.511509-1.534527-.511509-2.046036.511509-4.092074.511509-8.695657 0-12.78773-4.092074-59.8465774-55.754504-104.85938733-115.60108-100.7673137C47.3042447 9.96410593 2.2914347 61.6265356 6.38350833 121.473112 10.475582 181.319689 62.1380116 226.332499 120.96157 222.240426c11.764712-1.023019 22.506405-3.580565 33.248098-7.672638.51151 0 .51151 0 1.023019 0 1.534527-.51151 2.557546.511509 3.069055 1.534527.511509 1.534528 0 3.069055-1.534528 3.580565-11.253202 4.603583-23.017914 7.161129-34.782626 8.184147C59.0689564 232.47061 4.33747152 184.900254.245397884 121.984622-3.84667575 59.0689895 43.7236802 4.84901389 106.639312.245431053zM237.074159 139.887444C248.838871 149.094609 256 162.905358 256 178.762143c0 27.621497-24.040933 50.127902-51.15092 50.127902-27.109988 0-49.616393-21.994895-49.616393-49.616392 0-10.741694 3.580564-20.460369 9.207165-28.644516 19.43735-28.133006 12.787731-67.0077057-15.345276-86.9565646-28.133006-19.4373498-67.0077054-12.7877301-86.9565644 15.3452761-19.4373498 28.1330065-12.7877301 67.0077055 15.3452761 86.9565645 23.0179143 15.856786 52.6854483 14.322258 73.6573253-1.534527-2.557546 9.718674-2.557546 19.948859 0 29.156024-27.109988 13.29924-60.8695952 11.764712-87.4680738-7.161129C23.7748213 158.301775 14.5676556 104.0818 42.1891526 64.6955908 70.3221589 24.7978729 124.542135 15.5907072 163.928343 43.2122042c39.897718 28.1330062 49.104884 82.3529818 21.483387 121.7391908-3.069055 4.092073-4.603583 9.207165-4.603583 14.322258 0 13.810748 11.253202 25.063951 25.063951 25.063951 13.810748 0 25.063951-11.253203 25.063951-25.063951 0-7.672639-3.580564-14.833767-9.207166-19.43735-4.092073-3.580565-9.207165-5.626601-15.345276-5.626601-2.046037 0-4.092073 0-6.13811.511509 3.580564-8.184148 6.13811-16.368295 7.672638-25.57546 10.741693 0 20.971877 4.092073 29.156024 10.741693z" fill="#ed1d7f"/></svg>