<svg width="256px" height="256px" viewBox="0 0 256 256" xmlns="http://www.w3.org/2000/svg" preserveAspectRatio="xMidYMid"><path d="M128 0C57.307552 0 0 57.307552 0 128c0 70.692448 57.307552 128 128 128 70.692448 0 128-57.307552 128-128 0-33.9477107-13.485676-66.5050116-37.490332-90.509668C194.505012 13.4856756 161.947711 0 128 0zm64.512 177.9712-28.808533-75.741867c0 0-11.639467 30.276267-14.8992 39.253334C146.551467 147.712 144.896 152.3712 140.9024 157.952c-5.642526 7.845795-13.311435 14.010419-22.186667 17.834667-19.3208769 8.04411-41.5846809 3.662317-56.4162964-11.103426-14.8316155-14.765744-19.3124646-37.009823-11.354435-56.366315C58.9030312 88.9604346 77.7339519 76.3005174 98.6624 76.2368c11.631367-.1812298 22.954902 3.7403144 31.982933 11.0762667l-7.0144 18.5002663c-4.642133-4.778666-10.9568-11.3322663-25.2586663-11.3322663C80.0660088 94.8574019 65.3606466 109.691162 65.1434667 128c-.045685 15.841047 11.015547 29.546723 26.5091186 32.846739 15.4935717 3.300015 31.1797967-4.708652 37.5932817-19.193406.443733-.9728.750933-1.706666.955733-2.3552H89.9413333v-15.872l60.4330667-.119466-12.8-3.413334 15.36-40.3626663c3.503813-.775472 7.078305-1.1872535 10.666667-1.2288 3.574233-.0520282 7.143947.2740515 10.6496.9728C185.856 109.7216 197.455644 140.1856 209.0496 170.666667c-5.070875 3.332229-10.659202 5.800551-16.5376 7.304533h0z"/></svg>