<svg width="256px" height="288px" viewBox="0 0 256 288" xmlns="http://www.w3.org/2000/svg" preserveAspectRatio="xMidYMid"><title>Ganache</title><path d="M222.483533 215.609119c2.999264 0 4.034885-.69938 5.460544-3.13376 1.425659-2.43438.739729-6.388567.68593-7.464536-.134496-2.367133-.928023-5.003257-1.03562-6.32132 0-.806976 0-5.958179.121047-8.069769 1.802248-33.408844 16.139538-41.357566 20.282019-42.25869 2.642012-.778738 5.47532-.587943 7.989072.537984V97.7904908h0v-.7262792-13.557212c0-7.3838387-5.24535-16.4623289-11.647367-20.1744227L139.620455 2.80930888c-6.455816-3.738993004-16.986864-3.738993004-23.335083-.04034885L11.6742659 63.2115304C5.28569874 66.9101745.0403488453 75.9886647.0537984605 83.385953v13.2075221c-.0053508986.0760475-.0053508986.1525959 0 .2286434v19.2867485c.6052326805.33624 1.2104653595.68593 1.8156980395 1.062519 2.03089188 1.344962 4.03488454 2.084691 6.07922603 3.4969 5.82547287 3.549867 11.23852207 7.735958 16.13953817 12.481243.9549226.914574 4.1424814 4.922559 4.8956599 5.864032 2.3148857 3.190019 4.9170444 6.161342 7.7738775 8.876746 1.5783026 1.439101 3.3155584 2.693535 5.1781018 3.738993 3.0799619 1.600504 8.1639164 1.237365 10.7596921.094147 19.9323296-8.634652 32.4404717-4.303876 38.2103566-.833876 14.2700414 8.567405 19.0312054 20.551012 20.5510114 35.103496.199554 1.884896.262483 3.78176.188295 5.675737 0 3.456551-.121046 9.011242 3.523799 9.939266 5.231901 1.344961 6.496164-4.250078 7.276242-7.962172 1.7619-8.40601 12.951979-13.920352 21.142795-9.683723 5.648838 2.918566 7.962172 4.572869 13.543762 2.111589 6.980351-3.079961 10.584848-10.921087 13.019228-15.090468 2.405016-4.059633 5.887081-7.374112 10.060312-9.576126 10.894188-6.792055 38.277605-5.030156 39.272876 25.150781 0 1.640853 0 5.837133 0 8.392559 0 2.878218.094147 5.689188-.094147 8.661553-.121047 1.977093-.470737 4.034884-.659031 6.065776-.053799 0-1.07597 5.904381 3.752442 5.93128z" fill="#e4a663"/><path d="M255.959625 148.952827c-.739729-.228644-2.891667-1.640853-7.962172-.537985-4.155931.901124-18.479771 8.849847-20.282019 42.258691-.107597 2.057791-.174845 7.208994-.121047 8.069769.107597 1.344961.901124 3.954187 1.03562 6.321319 0 1.075969.820427 4.976358-.68593 7.464536-1.506357 2.488179-2.46128 3.14721-5.460544 3.133761-4.828412 0-3.806241-5.931281-3.806241-5.931281.188295-2.003992.537985-4.034884.659031-6.065776.188295-2.972365.094148-5.783334.094148-8.661552 0-2.555427 0-6.724808 0-8.39256-.995272-30.180936-28.378688-31.942836-39.272877-25.15078-4.173231 2.202014-7.655295 5.516493-10.060312 9.576126-2.43438 4.16938-6.038877 12.010506-13.019227 15.090468-5.58159 2.461279-7.894924.806977-13.543762-2.11159-8.190816-4.236628-19.380896 1.277714-21.142795 9.683723-.780078 3.712094-2.044342 9.293684-7.276242 7.962172-3.644846-.928023-3.523799-6.482714-3.523799-9.939265.074187-1.893978.011258-3.790841-.188295-5.675738-1.519806-14.552483-6.28097-26.53609-20.5510119-35.103495-5.7698849-3.470001-18.2780269-7.800777-38.2103565.833876-2.6899231 1.143217-7.7200791 1.506357-10.7596921-.094147-1.8625434-1.045458-3.5997992-2.299893-5.1781018-3.738993-2.8568332-2.715405-5.4589919-5.686728-7.7738776-8.876746-.7531784-.941473-3.9407372-4.949459-4.8956599-5.864033-4.901016-4.745284-10.3140653-8.931376-16.13953813-12.481242-2.04434149-1.344962-4.03488453-2.205737-6.07922603-3.4969-.60523268-.37659-1.21046536-.72628-1.81569804-1.06252v88.189126c0 7.397289 5.2453499 16.475779 11.6473667 20.174423L116.36607 285.049482c6.402017 3.712094 16.879267 3.712094 23.281284 0l104.732153-60.44257c6.402016-3.698644 11.633917-12.777135 11.620493-20.174423l-.040375-55.479662z" fill="#5e464d"/><g style="fill:#fff"><path d="M141.301656 134.131351c-7.235893 4.18283-19.085003 4.18283-26.320896 0L7.89492407 77.6429674C9.10538943 78.8399831 116.487117 141.219298 116.487117 141.219298c6.402016 3.712094 16.879266 3.712094 23.281283 0 0 0 107.233782-62.1910203 108.444247-63.388036l-106.910991 56.300089z"/><path d="M114.805915 10.8656283c7.249342-4.14248142 19.085003-4.14248142 26.334346.0134496l12.978879 5.3798461c-1.210466-1.1970158-14.498685-9.80476942-14.498685-9.80476942-6.402017-3.69864416-16.865818-3.71209378-23.267835 0 0 0-21.2234923 12.46779322-22.420508 13.65135932l20.873803-9.2398856z"/></g></svg>