<svg width="256px" height="256px" viewBox="0 0 256 256" xmlns="http://www.w3.org/2000/svg" preserveAspectRatio="xMidYMid"><path d="M128 0C57.3075981 0 0 57.307374 0 128c0 70.69285 57.3078221 128 128 128 70.69285 0 128-57.307374 128-128C256 57.307374 198.69285 0 128 0zM27.503973 129.334313l99.16149 99.161714c-54.4510118-.709722-98.4519919-44.710702-99.16149-99.161714zm122.992292 96.649011L30.0166761 105.503735C40.2328216 60.8232766 80.2223482 27.4871709 128 27.4871709c33.397489 0 62.984927 16.2929172 81.262736 41.3592366L195.346089 81.125855C180.519662 59.8637627 155.886614 45.9486835 128 45.9486835c-35.5051492 0-65.740477 22.5524961-77.1688404 54.1129525L155.938588 205.169064c25.525354-9.243413 45.156519-30.79047 51.731306-57.476739h-43.567261v-19.692101h45.948684v-4.48e-4h18.461512V128c0 47.777652-33.335882 87.767178-78.016564 97.983324z" fill="#744c9e"/></svg>