<svg width="256" height="257" xmlns="http://www.w3.org/2000/svg" preserveAspectRatio="xMidYMid"><path d="M255.275 115.989h-80.421C168.773 92.376 146.129 76.98 122 80.054c-24.129 3.073-42.215 23.655-42.215 48.041 0 24.387 18.086 44.97 42.215 48.042 24.13 3.073 46.773-12.322 52.854-35.935h55.788c-5.215 45.169-39.187 81.653-83.774 89.97-44.586 8.316-89.372-13.478-110.44-53.744-21.068-40.266-13.496-89.597 18.67-121.65 32.167-32.053 81.416-39.34 121.446-17.968-6.472 18.09 1.082 38.22 17.845 47.545 16.763 9.324 37.795 5.099 49.68-9.982 11.884-15.08 11.12-36.574-1.806-50.768-12.925-14.194-34.205-16.907-50.262-6.409C141.83-11.846 78.458-3.48 37.493 37.591-3.472 78.662-11.815 142.199 17.151 192.5c28.966 50.303 88.019 74.828 143.978 59.796C217.088 237.264 256 186.422 256 128.337c0-4.842-.242-8.958-.725-12.348zm-127.274 36.32c-13.338 0-24.15-10.84-24.15-24.214 0-13.372 10.812-24.213 24.15-24.213 13.339 0 24.151 10.84 24.151 24.213 0 13.373-10.812 24.214-24.15 24.214zM213.253 35.6a14.49 14.49 0 0113.388 8.968A14.556 14.556 0 01223.5 60.4a14.463 14.463 0 01-15.792 3.15 14.529 14.529 0 01-8.945-13.423c0-8.024 6.488-14.528 14.49-14.528z" fill="#347EFF"/></svg>