<svg width="256px" height="257px" viewBox="0 0 256 257" xmlns="http://www.w3.org/2000/svg" preserveAspectRatio="xMidYMid"><title>GeeTest</title><path d="M255.275481 115.988577H174.85378c-6.080738-23.6121461-28.724636-39.0074894-52.853728-35.9346836-24.1290917 3.0728067-42.215148 23.6550526-42.215148 48.0415726 0 24.386519 18.0860563 44.968765 42.215148 48.041571 24.129092 3.072806 46.77299-12.322537 52.853728-35.934683h55.788026c-5.2153 45.168165-39.187263 81.652512-83.773547 89.968988-44.586286 8.316477-89.3720523-13.477548-110.4399701-53.743225C15.360371 136.162442 22.9315235 86.830711 55.098458 54.7779766c32.1669349-32.0527343 81.415829-39.3393249 121.445868-17.9684507-6.472692 18.0913089 1.082109 38.2201143 17.844739 47.5450335 16.762629 9.32492 37.795207 5.0990491 49.67978-9.9816727 11.884572-15.0807221 11.120221-36.5738662-1.805427-50.7676561-12.925649-14.19378977-34.205-16.90706539-50.262669-6.4088641C141.829557-11.8456864 78.4579002-3.48094523 37.4931671 37.5905933-3.47156598 78.6621317-11.8148942 142.199354 17.1511477 192.501845c28.9660419 50.30249 88.0188243 74.827414 143.9776563 59.79466C217.087636 237.263751 256 186.421709 256 128.337603c0-4.842755-.241507-8.959098-.724519-12.349026zm-127.273984 36.320666c-13.338041 0-24.150661-10.840877-24.150661-24.213777 0-13.3729 10.81262-24.213778 24.150661-24.213778 13.338042 0 24.150661 10.840878 24.150661 24.213778 0 13.3729-10.812619 24.213777-24.150661 24.213777zM213.25333 35.598837c5.860819 0 11.144543 3.5396985 13.387381 8.9685395 2.242838 5.428841 1.003102 11.6777073-3.141123 15.8327623-4.144224 4.1550551-10.376802 5.3980319-15.791492 3.1493323-5.414691-2.2486996-8.945162-7.5462326-8.945162-13.4223678 0-8.0237399 6.487572-14.5282663 14.490396-14.5282663z" fill="#347eff"/></svg>