<svg width="256px" height="203px" viewBox="0 0 256 203" xmlns="http://www.w3.org/2000/svg" preserveAspectRatio="xMidYMid"><path d="M58.7693166 91.1888424c0-4.0702929 3.1419805-7.0694561 7.0694561-7.0694561 3.9274756 0 7.069456 3.0705719 7.069456 7.0694561 0 4.0702929-3.1419804 7.0694561-7.069456 7.0694561-3.9274756 0-7.0694561-3.0705719-7.0694561-7.0694561zm12.5679219-12.7107392c0 4.0702929 3.1419805 7.0694561 7.0694561 7.0694561 3.9274756 0 7.069456-3.0705719 7.069456-7.0694561 0-4.0702929-3.1419804-7.0694561-7.069456-7.0694561-3.9274756 0-7.0694561 2.9991632-7.0694561 7.0694561zm17.209484-8.6404463v12.7107392c9.9258019 0 17.7093445 8.0691771 17.7093445 18.6376569 0 10.56848-7.8549512 18.637657-17.7093445 18.637657-9.925802 0-17.7093445-8.069177-17.7093445-18.637657H56.9841004c0 17.566527 13.9960949 31.348396 31.5626221 31.348396 17.5665275 0 31.5626215-13.781869 31.5626215-31.348396 0-17.5665272-13.996094-31.3483961-31.5626215-31.3483961zM231.006974 189.018689v-12.068061h22.350906v-12.068062h-22.350906v-11.853835h24.635983v-12.13947h-38.203626v60.197489H256v-12.13947h-24.993026v.071409zm-21.636821-17.994979c0 17.280893-13.210599 30.06304-31.848256 30.06304h-19.851604v-60.268898h19.851604c18.637657 0 31.848256 12.924965 31.848256 30.205858zm-13.853277 0c0-10.282845-6.85523-18.066388-16.92385-18.066388h-7.426499v36.061367h7.426499c10.06862 0 16.92385-7.712134 16.92385-17.994979zm-90.617573 6.926639c0 6.926638-4.927197 12.068061-11.7110185 12.068061-6.7838215 0-11.7110181-5.141423-11.7110181-12.068061v-36.98968H68.0524407v36.775454c0 14.210321 10.6398884 24.635983 25.1358438 24.635983 14.4959555 0 25.1358435-10.497071 25.1358435-24.635983v-36.775454h-13.424825v36.98968h0zm-78.1210603 1.213947h13.353417c-1.213947 6.212552-6.7124128 10.996931-13.2820084 10.996931-7.3550906 0-13.2820083-5.926917-13.2820083-14.567364v-8.926081c0-8.497629 6.3553696-14.78159 15.2814504-14.78159 6.9266388 0 13.1391911 3.784659 15.1386332 9.283125l12.4965133-4.355928c-3.4276151-10.56848-14.7101813-17.138075-27.6351465-17.138075-16.3525802 0-28.492050164 10.996931-28.492050164 26.992468v8.926081C.428451883 190.946722 11.7824268 202.372106 25.7785216 202.372106c8.711855 0 16.4239889-4.427336 20.9227336-11.282566v10.068619h11.8538355v-33.490656h-31.776848v11.496793zm151.8861923-71.337239V71.0516039h-13.424826v36.9896791c0 6.926639-4.927196 12.068061-11.711018 12.068061-6.783821 0-11.711018-5.141422-11.711018-12.068061V71.0516039h-13.424825v36.7754531c0 14.210321 10.639888 24.635983 25.135843 24.635983 14.495956 0 25.135844-10.425662 25.135844-24.635983zM22.7079498 131.249093h13.4962343v-22.850767l22.6365411-37.3467221H43.5592748L29.2775453 95.6875872 15.2100418 71.0516039H0l22.6365411 37.4895401v22.707949h.0714087zM158.312971 1.14253835h-45.701534V13.2820084h45.701534V1.14253835zM106.827336 49.2005579H81.762901V37.1324965h22.350907V25.0644351H81.762901V13.2105997h24.635983V1.07112971H68.195258V61.2686192h38.560669V49.2005579h.071409zM25.7785216 62.6253835c8.711855 0 16.4239889-4.4273361 20.9227336-11.2825662v10.0686192h11.8538355V27.920781h-31.776848v11.5682009h13.353417c-1.213947 6.2125523-6.7124128 10.9969316-13.2820084 10.9969316-7.3550906 0-13.2820083-5.9269177-13.2820083-14.567364v-8.9260809c0-8.497629 6.3553696-14.7815899 15.2814504-14.7815899 6.9266388 0 13.1391911 3.7846583 15.1386332 9.2831241l12.4965133-4.3559275C53.0566248 6.56959554 41.7740586 0 28.8490934 0 12.4965132 0 .357043236 10.9969317.357043236 26.9924686v8.9260809C.428451883 51.2 11.7824268 62.6253835 25.7785216 62.6253835zM209.441562 116.039052l-6.998047-7.355091 6.926638-7.497908-6.998047-7.3550907 6.926639-7.4979079-6.998048-7.3550907 7.712134-7.9263598h-13.996095l-7.569316 7.9977685 6.998047 7.3550906-6.926639 7.497908 6.998048 7.355091-6.926639 7.497908 6.998048 7.35509-6.926639 7.497908 7.426499 7.712134h14.067504l-7.569317-7.783542 6.85523-7.497908zm-65.624547 53.199442c1.999442-1.785216 5.355649-4.78438 5.355649-10.354254 0-5.498466-3.356207-8.569038-5.355649-10.354254-.071408-.071409-.142817-.142817-.214226-.214226-.999721-1.07113-1.142538-2.570711-1.213947-3.284798v-4.21311h-13.567643v5.641283h0c0 .071409 0 .142818 0 .214226 0 5.498466 3.356207 8.569038 5.355649 10.354254 1.428173 1.285356 1.428173 1.356764 1.428173 1.856625 0 .49986 0 .571269-1.428173 1.856625-1.928033 1.713807-5.070014 4.570153-5.28424 9.711576h0c0 .071408 0 .214226 0 .285634 0 .071409 0 .071409 0 .142818 0 .071408 0 .071408 0 .142817 0 .071409 0 .214226 0 .285634h0c.214226 5.141423 3.427615 7.997769 5.28424 9.711577 1.428173 1.285355 1.428173 1.356764 1.428173 1.856624 0 .499861 0 .57127-1.428173 1.856625-1.999442 1.785216-5.355649 4.78438-5.355649 10.354254 0 .071409 0 .142817 0 .214226h0v5.641283h13.567643v-4.21311c0-.714087.214226-2.213668 1.213947-3.284798.071409-.071409.142818-.142817.214226-.214226 1.999442-1.785216 5.355649-4.784379 5.355649-10.354254 0-5.498466-3.356207-8.569037-5.355649-10.354254-1.285355-1.142538-1.428173-1.356764-1.428173-1.713807.071409-.214226.214226-.428452 1.428173-1.57099zM128.678382 61.3400279h13.496234V50.1288703h-13.496234v11.2111576zm13.567643-27.2066946h-13.496234v11.2111576h13.496234V34.1333333zm0-16.0669456h-13.496234v11.2111576h13.496234V18.0663877zM244.574616 131.249093l-16.423988-22.993584c7.997768-2.499303 13.567643-9.49735 13.567643-18.0663877 0-10.8541143-8.99749-19.1375174-20.351465-19.1375174h-7.92636v12.2108787h7.4265c3.927475 0 6.998047 3.1419804 6.998047 7.283682 0 4.1417015-3.070572 7.283682-6.998047 7.283682h-7.4265v11.5682004l14.710182 21.922455h16.423988v-.071409z" fill="#f53"/></svg>