<svg width="256px" height="229px" viewBox="0 0 256 229" xmlns="http://www.w3.org/2000/svg" preserveAspectRatio="xMidYMid"><defs><linearGradient x1="49.9419399%" y1="100.039622%" x2="49.9419399%" y2="-0.0283139532%" id="a"><stop stop-color="#e14760"/><stop stop-color="#fa8816" offset="1"/></linearGradient></defs><path d="M254.777001 80.1724585 194.49313 3.04213594c-3.468387-4.29419355-9.909678-3.963870973-13.047742.49548387l-25.6 36.50064519c-8.092903-4.6245162-17.672258-7.1019355-27.581936-6.9367742-10.735483 0-20.810322 2.6425806-29.2335479 7.2670967L74.2557106 4.69374884C71.117646.234394 64.5111944-.095928581 61.2079686 4.19826497L.75893636 81.3285875c-2.47741936 3.1380646 1.6516129 7.1019355 4.62451613 4.4593549L57.4092589 39.3776198c1.4864517-1.3212903 3.963871-1.156129 5.2851613.3303226l6.4412904 20.1496774C39.5718396 67.1247166 17.605388 93.8808456 17.605388 125.591813c.1651613 35.509678 27.7470967 64.578065 62.596129 67.220646.9909677 12.88258 8.2580645 26.92129 32.04129 35.344516 1.981936.660645 3.468387-1.486452 2.312258-3.138065-2.312258-3.138064-4.789677-7.432258-5.615483-12.056774 5.615483 1.981935 11.56129 3.138064 18.00258 3.138064 5.615484 0 10.900645-.990967 16.185807-2.64258-.825807 4.459355-3.303226 8.588387-5.450323 11.56129-1.156129 1.651613.330323 3.79871 2.312258 3.138065 23.948387-8.423226 32.04129-22.627097 33.527742-35.509678 36.500645-.990968 65.734194-31.050322 65.569032-67.716129-.165161-32.2064514-22.627096-58.9625805-52.686451-65.7341934l6.606451-20.6451612c1.321291-1.6516129 3.633549-1.8167742 5.285162-.3303226l52.025806 46.4103226c2.807742 2.6425806 6.936774-1.4864517 4.459355-4.4593549h0z" fill="url(#a)"/><ellipse fill="#fff" transform="translate(72.688244 133.437855)rotate(58.444675)translate(-72.688244 -133.437855)" cx="72.6882436" cy="133.437855" rx="48.390257" ry="35.5082091"/><path d="M58.6322581 154.747097c0 0-.6606452-2.147097-.6606452-6.110968 0-3.963871.6606452-5.945806.6606452-5.945806L76.8 135.092903l-18.1677419-7.76258c0 0-.6606452-2.147097-.6606452-5.945807 0-3.963871.6606452-5.945806.6606452-5.945806l31.3806451 13.378064c0 0 .6606452 2.312258.6606452 6.110968 0 3.79871-.6606452 6.44129-.6606452 6.44129l-31.3806451 13.378065h0z" fill="#e54d42"/><ellipse fill="#fff" transform="translate(184.509737 133.955999)rotate(-58.444675)translate(-184.509737 -133.955999)" cx="184.509737" cy="133.955999" rx="48.7205659" ry="36.1688269"/><path d="M162.353548 141.534194c0 0-.660645-1.486452-.660645-5.615484 0-4.129033.660645-5.615484.660645-5.615484h41.620646c0 0 .660645 1.486451.660645 5.615484 0 3.963871-.660645 5.615484-.660645 5.615484h-41.620646 0z" fill="#e54d42"/></svg>