<svg width="256px" height="360px" viewBox="0 0 256 360" xmlns="http://www.w3.org/2000/svg" preserveAspectRatio="xMidYMid"><title>Gin</title><path d="M125.883281 359.542708c-29.8182295-1.276011-50.5497389-5.241324-67.0951782-12.833332-2.4150488-1.108147-2.0527378-.366465-4.6573942-9.534406-4.5364319-15.967439-7.9844872-30.434494-11.6783291-48.998921-1.8725253-9.410895-2.7494176-13.34496-7.0736843-31.735202-7.7594744-32.999479-10.7065366-48.172721-12.4022694-63.854297-.4294554-3.971461.343675-9.401846 1.5584144-10.946137.7190582-.914135.7336572-3.247985.0214827-3.434222-.4154911-.108655-.518499-.459536-.6704627-2.283839-.1261633-1.514573-.3226311-2.337365-.6607671-2.767233-.3262361-.414741-.4812183-1.026637-.4812183-1.899925 0-.708486-.1151681-1.359334-.255929-1.44633-.1537676-.095034-.2559291-1.831781-.2559291-4.350793 0-2.519013-.1021615-4.25576-.255929-4.350794-.140761-.086996-.2559291.072164-.2559291.353686 0 3.154686-2.2671024-2.590931-3.5886627-9.09491-3.3914837-16.690975-8.95770268-33.276962-7.6772272-22.876281.4504812 3.65904 1.2806185 7.256497 3.6639248 15.877868 2.7998571 10.1282 4.0753373 17.299445 3.5059098 19.711581-.813729 3.447011-6.0718898-17.25371-9.10242523-35.835111-.7690737-4.715492-1.92385934-11.798329-2.56619057-15.739636-1.43525061-8.806616-2.77030193-15.4202293-4.59440504-22.7598879-1.825849955-7.3466864-1.774259445-8.5383484.49475077-11.4279742 4.67713282-5.9564158 18.40201717-10.5870271 19.88566067-6.7091825 1.0168757 2.6578385-1.9801845 4.4990151-10.1305326 6.2234625-7.06396652 1.4945923-7.71732292 2.5632113-3.88259213 6.3503086 3.83386673 3.7862424 26.07098783 7.1702387 52.38114653 7.9712454 46.5983353 1.4186761 76.1399893 1.7922046 84.4565853 1.0678767 2.041034-.1777631 4.942945-.3903327 6.448691-.4723784 2.737719-.149176 2.737719-.149176 2.613171-.8173785-.094325-.5060613.123811-.9787111.898963-1.9478479.562932-.7038048 1.403236-1.7979015 1.867346-2.4313259 1.57869-2.1546283 4.22991-2.975902 5.329533-1.6509369 1.375705 1.6576243.1607 5.4942746-2.11216 6.6696159-1.049514.5427257-.748211.7097783 1.674449.9283801 1.149936.1037613 2.750431.2582298 3.556659.3432648 2.438948.2572445 4.298497-.6237912 3.273827-1.5511066-2.257341-2.042864 1.990296-6.1634062 8.568617-8.3122299.985327-.3218615 1.900913-.6861151 2.034636-.809455.133723-.1233399.425525-.2242553.648452-.2242553.839099 0 3.240244-1.8610367 5.909952-4.5805797 1.519167-1.5475236 3.22542-3.1061468 3.791673-3.463608.566254-.3574613 1.153726-.8819443 1.305492-1.1655214.460299-.8600777-.436564-.6283314-2.429327.6277274-.985327.6210605-2.367344 1.4810998-3.071149 1.9111962-1.461186.8929365-4.712831 3.0489672-7.840706 5.198848-1.177289.8091837-2.428447 1.6662849-2.780349 1.90467-.351903.2383826-.848894.6087043-1.104426.8229373-.565931.4744618-3.192413.5883681-4.653978.2018334-3.795225-1.0037103-4.068046-4.3356761-.828788-10.1220297 1.418216-2.5333853 5.326357-7.7149325 5.818929-7.7149325.122416 0 .546897-.480906.943293-1.0686803.717405-1.063764 1.171835-1.4072541 3.455359-2.6118097 1.642197-.8662584 2.601736-.9604403 2.862477-.280964.154893.4036461-.996045 2.9365836-2.292646 5.045549-2.717851 4.4206829-2.954857 4.870363-2.700804 5.1244161.362567.362567 3.129567-1.2977113 3.539537-2.1238221.171859-.3463052.631682-1.3175764 1.021828-2.1583801 2.639468-5.6883251 8.95702-6.2484693 12.843019-1.1387205 1.027122 1.3505734 1.313177 1.5035627 1.318804.7053302.017608-2.4977114 3.495254-4.5470376 7.737644-4.5596805 1.758491-.0052466 1.874064-.2930004.351253-.8745659-2.081589-.7949668-2.200934-1.1926268-.828717-2.7612773 1.902364-2.174688.999723-2.5973497-2.614282-1.2241368-3.486954 1.3249395-6.87648 2.0422421-9.194417 1.9457517-1.230796-.0512344-2.514362.0104419-2.85237.1370833-.338008.1266337-1.240701.2835208-2.005985.3486419-.765284.0651212-1.484534.1759461-1.598333.246278-.113799.0703318-.765875.0515671-1.449058-.041696-3.79846-.5185404-3.445772-3.8119736 1.310815-12.2404567.635505-1.1260878 1.512467-2.7960249 1.948808-3.7109712.436338-.9149463 2.209735-4.5427406 3.94088-8.061765 1.731142-3.5190244 3.623128-7.4347388 4.204412-8.7015876.581282-1.2668488 1.342156-2.8504686 1.690832-3.5191575.348675-.6686886.633954-1.3314696.633954-1.4728473 0-.1413775.29492-.8611181.65538-1.599423 2.3267-4.7656351 6.037029-16.52944339 5.584976-17.70747993-.091725-.23902698-.014862-.39824531.192254-.39824531.189792 0 .921915-.38392658 1.626938-.85316993.705023-.46924335 1.595559-1.0457632 1.978967-1.28115496.571886-.35110696.671081-.55810504.552228-1.15236937-.660172-3.30085059 5.435211-1.190931525 13.019423 4.50667834 11.156257 8.38109606 21.059544 22.54349376 29.334569 41.95050126 7.354298 17.247665 9.285334 46.4991062 4.516429 68.4145792-3.343391 15.364475-5.618981 38.943822-8.064271 83.560834-1.556872 28.40685-2.446738 41.225849-3.730852 53.7451-.346515 3.378263-.799865 8.445658-1.007446 11.260878-1.042215 14.134526-2.612846 27.257672-5.283783 44.147761-.913086 5.77404-1.04111 7.130848-1.11083 11.772736-.262872 17.501273-6.67833 27.439714-18.844227 29.192342-1.1795.169937-3.64173.748515-5.471622 1.285736-14.832683 4.354633-30.656581 6.663804-52.33749 7.637563-17.582257.789694-22.667252.869186-31.479273.4921zm-60.4005426-26.470562c-3.1573071-12.873666-5.0042498-18.985636-7.2252174-23.909915-2.377394-5.27109-2.9175963-5.969238-2.6239484-3.39106 1.3497647 11.850615 4.6027508 22.840976 9.8974161 33.43887 2.7918404 5.588211 2.7906554 5.43752-.0482503-6.137895h0zm-5.5345322 8.529091c.9214623-3.438432-.5522488-10.67091-4.8433805-23.769666-2.4475979-7.471311-4.2512886-13.969042-4.5909909-16.538877-.2226505-1.68432-.4540386-1.826643-1.4121013-.868598-1.5367029 1.536701-1.0720944 4.716389 2.3887982 16.348415.9312542 3.129936 1.8250224 6.700146 1.9861477 7.933801.946876 7.249727 5.7181919 19.705973 6.4715268 16.894925zm86.7799148-38.113772c4.669919-3.09321 4.057205-12.108925-1.018296-14.983622-4.569168-2.587904-7.023031 3.05139-5.08303 11.68142.870218 3.871106 3.276355 5.173401 6.101326 3.302202zm-13.765536-.68177c3.48235-1.78554 4.638937-7.743568 2.456981-12.656894-2.151184-4.84402-6.466524-2.389174-7.244159 4.120944-.112483.941691-.378041 2.817907-.590129 4.169391-.76024 4.844481 1.25448 6.480508 5.377307 4.366559zm-84.7381225-8.907866c.5582376-4.467958-.5996315-10.923871-4.3454602-24.228957-1.0625995-3.774339-2.2877728-8.668982-2.7226065-10.876984-1.4217908-7.219633-3.5744023-10.737657-2.5347392-4.142545.5046588 3.201315 3.353661 17.810461 3.967842 20.34636.340918 1.407609.9168275 4.958241 1.2798014 7.890292.9039286 7.301784 1.6968761 10.194908 3.2561469 11.880227.7728878.835378.8985515.736077 1.0990156-.868393zm59.2313175-24.694543c19.495378-4.467318 25.781696-28.846282 10.394321-40.310209-9.921653-7.391845-16.135121-7.929005-31.6358225-2.734943-3.167122 1.061259-6.0183558 2.093137-6.3360738 2.293066-1.1295377.710779-2.8770392 3.23114-2.8772107 4.149705-8.95e-5.471465-.4522829 1.978608-1.0048772 3.349208-7.3224884 18.161956 11.320681 37.867958 31.4596632 33.253173zm-24.6965436-13.951852c-7.6690214-1.145295-9.3218726-7.675212-3.4518226-13.637107 4.2641388-4.330857 9.2293671-4.705783 12.8745491-.972157 7.2127869 7.387784 1.5026951 16.240871-9.4227265 14.609264zm97.2357426 10.362524c13.391254-2.249463 21.787774-17.64456 16.265678-29.823281-12.93014-28.51681-59.367549-14.81786-49.183421 14.509019 4.35418 12.538584 16.315121 18.103147 32.917743 15.314262h0zm-26.087468-11.835086c-5.969117-1.469751-7.905279-6.924718-4.706773-13.260922 3.998971-7.92192 12.555488-7.828453 16.776717.18326 2.549522 4.838879 1.971552 6.451378-2.162979 6.034574-3.718531-.374866-4.938596.156706-3.12076 1.359693 1.324612.876587 3.018637 2.402165 3.345422 3.012768 1.021122 1.907985-5.861197 3.722117-10.131627 2.670627h0zM90.9791809 147.969627c1.0008668-.145331 1.7109906-.489761 3.010304-1.460075.935244-.698433 2.418834-1.797103 3.2968626-2.441491 7.9161385-5.809674 10.4624565-7.845608 13.3691555-10.689432.985326-.964013 3.864528-3.561255 6.398226-5.771651 2.533697-2.210395 5.079572-4.445021 5.657501-4.965837.577926-.520816 1.614438-1.445848 2.303361-2.05563 2.161462-1.913162 5.988535-5.411415 8.930455-8.163154 3.453294-3.230057 10.917872-10.779936 10.866264-10.990166-.124216-.502292-2.325891-.922527-4.979896-.950464-2.755194-.029002-2.814772-.042039-2.794262-.611397.027812-.7720918.059993-.7680226-7.4429-.9412661-60.0202498-1.3858865-100.2378207-3.4555258-121.97448069-6.2769388-2.53165346-.3286078-2.7909298-.3206126-2.7909298.0860638 0 .7116619 2.07218378 2.6801607 3.71006929 3.5244271 2.0610506 1.0623947 2.0921189 1.5278631.12589149 1.8861152-2.10802204.384088-2.04445797.1351023-1.21684127 4.7664968 3.32008868 18.579433 8.20112298 22.785256 18.50551998 15.945585 5.9263314-3.933673 43.9008735-8.007923 68.9623851-7.398904 4.3016861.104535 7.2676909.059865 8.7015879-.131056 1.196468-.159305 2.831755-.349978 3.633972-.423716.802217-.073738 1.593704-.296888 1.75886-.495888.165153-.199.739353-.361817 1.276-.361817.536645 0 1.299928-.133173 1.696183-.295939 2.712779-1.114302 23.370187-1.542241 23.370187-.484138 0 .1857-1.062961 1.198894-3.528597 3.363396-.57626.505883-3.559486 2.808126-6.629391 5.116096-4.655063 3.499702-7.764314 5.91566-9.164656 7.121139-.14076.121175-1.679989 1.7359-3.420509 3.588279-7.158077 7.618112-14.633286 12.860826-21.0575043 14.768613-.8984159.266801-1.2624315.528652-1.467771 1.05583-.3459419.888156-1.4624528 2.874672-1.8123539 3.224573-.5824228.582423-.2975098.995969.5656774.821075.4574732-.09269 1.4212073-.25412 2.1416297-.358729zm12.2543791-2.346058c.096365-.155924 2.036819-.255929 4.965907-.255929 5.672987 0 10.261871-.246283 10.261871-.550751 0-.119368-.164526-.217036-.365612-.217036-1.090015 0-1.430395-1.272691-.742586-2.776541.853372-1.865845 1.649368-2.762838 10.367944-11.68345 3.439323-3.519024 6.718857-6.974066 7.287849-7.677871 4.922431-6.088711 8.892039-11.883354 8.446132-12.329262-.192272-.192272-3.970317 3.343406-4.54765 4.255908-.226676.358278-1.320773 1.550145-2.431326 2.648595-2.177168 2.153445-2.303699 2.293909-6.385243 7.088297-1.497904 1.759513-3.049791 3.544618-3.448638 3.966901-.39885.422283-1.294131 1.401211-1.989511 2.175397-2.287931 2.547208-6.488546 6.614831-8.366755 8.101858-4.219093 3.340371-10.736621 6.632586-12.796453 6.463908-.695011-.056916-2.175397.299255-2.175397.523383 0 .539757 1.612251.763679 1.919468.266593h0zm58.70295-1.00708c.325995-.490662.600793-.52877 3.838936-.532348 4.752725-.005247 7.296107-.994244 5.531056-2.150751-.35978-.235736-.636723-.663831-.638138-.986425-.008702-1.983238-1.473903-3.620761-2.284692-2.553391-2.357948 3.104135-2.797878 3.563103-3.98633 4.158847-7.717692 3.8687-12.301084-5.026905-8.442439-16.385376 3.327863-9.796045 3.594086-10.682197 4.380814-14.582039.38105-1.888869.02795-5.60276-.541837-5.699059-1.202056-.203154-6.754424 17.37661-9.074889 28.732673-.999198 4.889952-1.020115 4.941133-2.36818 5.794853-4.734485 2.998319-6.634032 1.612886-5.138029-3.74742.468232-1.67772 1.968345-5.833163 2.655212-7.355171.269286-.596701.489611-1.150068.489611-1.229706 0-.079634.236624-.685523.525831-1.346414 3.368114-7.696746 4.160644-10.501555 3.057175-10.819511-3.181981-.916858-7.554444 1.527162-9.463567 5.289734-.207948.409832-.637719 1.1714-.955048 1.692372-.722383 1.18597-1.979972 3.516595-4.115153 7.626399-2.909969 5.601125-3.551263 6.669047-5.512947 9.180507-2.079421 2.662197-4.242474 3.964367-7.721586 4.648437-2.486896.488978-2.446032.615159.255929.790232 7.018155.454742 39.140759.026711 39.508271-.526443h0zm-28.834605-1.308463c-1.095834-.439791-1.658097-2.728457-1.047205-4.262588 1.20691-3.030891 2.828674-5.55364 8.439685-13.128405 1.199092-1.618751 2.616962-3.605401 3.150827-4.414776 2.846696-4.315796 3.272731 3.312121.539606 9.661321-2.920122 6.783607-7.715549 12.575074-10.264367 12.396336-.127233-.008932-.495578-.12227-.818546-.251888zm67.97062-1.031668c1.425345-.158331 2.657536-.431197 2.889267-.639823.279127-.251294 1.045939-.363759 2.480203-.363759 1.141889 0 2.147337-.115168 2.234333-.255929.086995-.140761.368279-.255929.625078-.255929.427238 0 .927323-.964236.645993-1.245566-.063931-.063931-.721579.018862-1.461442.184-1.308391.292018-2.431264.465113-4.800246.739968-3.143725.364742-11.907749.120018-14.320482-.399884-.847099-.182537-.896056-.256063-1.166593-1.751991-.488088-2.698869-1.917776-3.96659-3.749136-3.3244-1.810654.634929-1.912867.967992-.473781 1.543799 1.044838.418063 2.050888 1.245059 2.050888 1.685877 0 .468539-1.589732 2.056338-2.058842 2.056338-.258631 0-.534454.1039-.612937.230889-.173167.280186-3.182294 1.212994-4.686181 1.452679-2.827302.450609-.25716.619794 9.415478.619794 5.806204 0 11.61456-.123455 12.9884-.276063h0zm16.63216-13.917281c1.379215-.234362 2.872343-1.556952 2.872343-2.544278 0-.73857-.582359-1.128849-1.090956-.731125-.316454.247468-2.278849.764639-3.003908.791653-.211142.007857-.869729.092728-1.463526.188583-3.925862.633745-14.845745-2.827542-19.952663-6.324416-.588404-.402899-1.136635-.732546-1.218286-.732546-.23868 0-2.766143-1.795976-3.534271-2.511398-2.647191-2.465554 2.301908-2.703931 8.76557-.422198 4.086798 1.442674 4.624329 1.651026 5.722052 2.217899 1.693283.874427 1.890397.959667 3.695976 1.598294 4.157841 1.470612 4.502892 1.119268 1.203028-1.224963-4.91457-3.49132-10.143395-5.65434-12.104259-5.007196-2.125445.701461-6.981212-.565114-11.568848-3.017605-8.216996-4.392705-11.325267-5.189271-8.52257-2.184104 3.755628 4.026944 8.626306 8.519996 11.69693 10.790064 1.908875 1.4112 4.51336 3.190636 5.015039 3.426375.211142.099214.90215.481518 1.535575.849564 1.476401.857854 6.363785 3.053807 7.613643 3.420891 2.442984.717505 3.663481 1.005822 4.947342 1.16871.762932.096795 1.5282.250271 1.700597.341057.411513.216707 6.286252.145472 7.691192-.093261h0zm-30.142504-37.6771654c.633425-.0537553 1.669937-.150128 2.303362-.2141665 1.2314-.124489 5.031373-.8930081 7.549906-1.5269188.844566-.2125746 4.472361-.7880209 8.061765-1.2787699 13.270277-1.8143271 17.1968-3.2937506 20.494174-7.7217223 1.444154-1.9393254 1.45026-2.1879323.117208-4.7716973-2.667577-5.1703682.132661-6.7632603 6.389133-3.6344075 2.193273 1.0968531 2.175399 1.0967456 2.175399.0129756 0-.9833843-.194966-1.1685285-1.515855-1.4395164-7.191258-1.4753235-10.513565-6.9124926-6.737667-11.0266185.678494-.7392716.622842-1.5519819-.343487-5.0161275-.425544-1.5255111-.67183-1.6129928-1.910344-.6785651-.48482.365784-1.380185.8839021-1.989698 1.1513761-1.108208.4863139-1.108208.4863139.02526 1.6197878 3.613655 3.6136541-.956015 8.0864493-8.770325 8.5843951-5.118913.3261918-5.561509.4839695-3.245935 1.1571243 3.913196 1.137597 4.498322 3.572616 1.239201 5.1569729-3.035447 1.4756255-2.900124 1.5883904.873312.727747 6.052082-1.3803584 10.706796-1.1790446 11.292823.4884099 1.614398 4.5935502-1.529611 9.2994711-7.856039 11.7588418-1.51348.5883604-2.418934.8636146-5.502475 1.672742-1.559132.4091205-6.058657 1.0970911-6.206745.9490028-.071949-.0719519-.322376-.028298-.556505.0970023-.234129.1253028-1.341874.3036009-2.461658.3962191-6.552926.5419988-10.009278.998479-17.321153 2.2875936-4.04784.7136633-4.549315.8441692-4.549315 1.1839559 0 .2481821 5.022661.4710912 6.398226.2839559.492663-.0670227 1.414008-.1658395 2.047432-.2195923h0zm21.841635-36.3747783c1.00749-.6750128 3.157259-2.1039978 4.777261-3.175519 5.116831-3.3844364 8.600079-7.0312283 9.326024-9.7638902.192118-.7231889.424556-1.502388.516526-1.7315545.281584-.7016346-.66054-3.2384622-.996795-2.684038-1.546098 2.5492453-2.709354 4.0079769-5.002711 6.2734352-3.806221 3.7599176-5.193057 5.0625709-5.655137 5.3118662-.761417.4107866-4.886412 5.0809082-5.249002 5.9426674-.714707 1.6986267-.483465 1.6811135 2.283834-.1729671h0zM26.8387396 73.2324517c0-.2612806.3857465-.981081.8572164-1.5995566 1.1836258-1.5526857 1.702074-2.6273113 1.702074-3.5280126 0-1.0004471-.3411508-.8718658 5.7882552-2.1815981 13.7138735-2.930385 19.5877676-3.6835842 30.0862791-3.8579128 55.3769007-.9195403 71.6309517-1.4276618 89.2314257-2.7894833 4.478784-.3465433 4.470581-.3488313 5.700484 1.5905222 2.658223 4.1915829-4.868395 6.9466796-16.534124 6.0522639-1.126088-.0863377-6.481404-.1903063-11.900701-.2310425-9.853268-.0740608-9.853268-.0740608-15.20391-1.1515809-7.810622-1.5729118-10.097922-1.481627-12.346601.4927402-1.054643.9259871-.71741.922701-3.245442.0316149-6.3911058-2.2527592-14.2975961-2.39071-27.0440118-.4718615-4.2932097.6463002-9.3030208 1.3020313-11.1329135 1.4571832-9.5074621.8061048-18.4236334 2.4537377-29.8614941 5.5181476-4.7551412 1.2739866-6.096537 1.4210921-6.096537.6685763z" fill="#f3d71d"/><path d="M125.883281 359.542708c-29.8182295-1.276011-50.5497389-5.241324-67.0951782-12.833332-2.4150488-1.108147-2.0527378-.366465-4.6573942-9.534406-4.5364319-15.967439-7.9844872-30.434494-11.6783291-48.998921-1.8725253-9.410895-2.7494176-13.34496-7.0736843-31.735202-7.7594744-32.999479-10.7065366-48.172721-12.4022694-63.854297-.4294554-3.971461.343675-9.401846 1.5584144-10.946137.7190582-.914135.7336572-3.247985.0214827-3.434222-.4154911-.108655-.518499-.459536-.6704627-2.283839-.1261633-1.514573-.3226311-2.337365-.6607671-2.767233-.3262361-.414741-.4812183-1.026637-.4812183-1.899925 0-.708486-.1151681-1.359334-.255929-1.44633-.1537676-.095034-.2559291-1.831781-.2559291-4.350793 0-2.519013-.1021615-4.25576-.255929-4.350794-.140761-.086996-.2559291.072164-.2559291.353686 0 3.154686-2.2671024-2.590931-3.5886627-9.09491-3.3914837-16.690975-8.95770268-33.276962-7.6772272-22.876281.4504812 3.65904 1.2806185 7.256497 3.6639248 15.877868 2.7998571 10.1282 4.0753373 17.299445 3.5059098 19.711581-.813729 3.447011-6.0718898-17.25371-9.10242523-35.835111-.7690737-4.715492-1.92385934-11.798329-2.56619057-15.739636-1.43525061-8.806616-2.77030193-15.4202293-4.59440504-22.7598879-1.825849955-7.3466864-1.774259445-8.5383484.49475077-11.4279742 4.67713282-5.9564158 18.40201717-10.5870271 19.88566067-6.7091825 1.0168757 2.6578385-1.9801845 4.4990151-10.1305326 6.2234625-7.06396652 1.4945923-7.71732292 2.5632113-3.88259213 6.3503086 3.83386673 3.7862424 26.07098783 7.1702387 52.38114653 7.9712454 46.5983353 1.4186761 76.1399893 1.7922046 84.4565853 1.0678767 2.041034-.1777631 4.942945-.3903327 6.448691-.4723784 2.737719-.149176 2.737719-.149176 2.613171-.8173785-.094325-.5060613.123811-.9787111.898963-1.9478479.562932-.7038048 1.403236-1.7979015 1.867346-2.4313259 1.677064-2.2888912 4.363677-3.0046249 5.45104-1.4521977.719772 1.0276191.386921 1.3214179-.406525.3588278-1.259442-1.5279194-3.167977-.9157218-4.971985 1.5948552-.422283.587677-1.142083 1.5323291-1.599557 2.0992273-1.781268 2.2073368-.163723 3.7709353 2.967777 2.8687957 2.212867-.6374962 4.134254-2.9020511 4.134254-4.8726511 0-.4681198.084948-.6142809.257015-.4422146.729006.7290062-1.062231 4.0612535-2.614646 4.8640364-1.049514.5427257-.748211.7097783 1.674449.9283801 1.149936.1037613 2.750431.2582298 3.556659.3432648 2.438948.2572445 4.298497-.6237912 3.273827-1.5511066-2.257341-2.042864 1.990296-6.1634062 8.568617-8.3122299.985327-.3218615 1.900913-.6861151 2.034636-.809455.133723-.1233399.425525-.2242553.648452-.2242553.838337 0 3.239202-1.8599771 5.901442-4.5719113 2.717854-2.7685867 3.969565-3.8175196 4.236719-3.5503681.075233.0752329-.302659.4608668-.839757.8569631-3.97186 2.9291361-4.137032 4.0564523-.302378 2.0637402 5.572663-2.8958858 7.896957-3.4911026 6.091769-1.560013-2.317931 2.4795916-9.975525 6.1368817-10.904422 5.2079847-.19466-.1946597-.67952-.0145368-1.675069.622317-.770607.4929526-2.541841 1.2960913-3.936071 1.7847519-4.783882 1.676691-6.029314 2.3760044-8.800138 4.9412989-8.864363 8.2068358 38.748533 4.7912528 64.907573-4.6562425 4.38818-1.5848176 5.226151-2.5303808 4.874412-5.5002633-.604604-5.1049246-10.593167-11.4683495-13.344363-8.5013078-.65546.7068837-.924459.5112925-.330269-.2401408 1.022744-1.2933911 3.788375-1.0283997 7.229996.6927513 2.194451 1.0974417 2.175397 1.0973803 2.175397.0068845 0-.9525474-.494117-1.4007304-1.582732-1.435593-.574543-.0184013-2.859019-.947585-2.423558-.9857568.119096-.0104419.853697.1662464 1.632443.3926335 5.533237 1.6085576 7.588742-1.1685106 4.931702-6.6629233-.277323-.5734679-1.073257-3.2884451-1.768747-6.0332842-3.649072-14.4015728-11.057685-29.9428514-14.27426-29.9435731-.760337-1.689e-4-.745074.0367054-2.013274-4.863069-2.176482-8.4089573-3.782432-11.5034295-6.886541-13.26953545-6.745269-3.83777148-8.396126-10.81331347-1.928293-8.147825295C224.220037 6.31240695 238.369121 23.8124446 248.696646 48.0330788c7.354298 17.247665 9.285334 46.4991062 4.516429 68.4145792-3.343391 15.364475-5.618981 38.943822-8.064271 83.560834-1.556872 28.40685-2.446738 41.225849-3.730852 53.7451-.346515 3.378263-.799865 8.445658-1.007446 11.260878-1.042215 14.134526-2.612846 27.257672-5.283783 44.147761-.913086 5.77404-1.04111 7.130848-1.11083 11.772736-.262872 17.501273-6.67833 27.439714-18.844227 29.192342-1.1795.169937-3.64173.748515-5.471622 1.285736-14.832683 4.354633-30.656581 6.663804-52.33749 7.637563-17.582257.789694-22.667252.869186-31.479273.4921zm-60.4005426-26.470562c-3.1573071-12.873666-5.0042498-18.985636-7.2252174-23.909915-2.377394-5.27109-2.9175963-5.969238-2.6239484-3.39106 1.3497647 11.850615 4.6027508 22.840976 9.8974161 33.43887 2.7918404 5.588211 2.7906554 5.43752-.0482503-6.137895h0zm-5.5345322 8.529091c.9214623-3.438432-.5522488-10.67091-4.8433805-23.769666-2.4475979-7.471311-4.2512886-13.969042-4.5909909-16.538877-.2226505-1.68432-.4540386-1.826643-1.4121013-.868598-1.5367029 1.536701-1.0720944 4.716389 2.3887982 16.348415.9312542 3.129936 1.8250224 6.700146 1.9861477 7.933801.946876 7.249727 5.7181919 19.705973 6.4715268 16.894925zm86.7799148-38.113772c4.669919-3.09321 4.057205-12.108925-1.018296-14.983622-4.569168-2.587904-7.023031 3.05139-5.08303 11.68142.870218 3.871106 3.276355 5.173401 6.101326 3.302202zm-13.765536-.68177c3.48235-1.78554 4.638937-7.743568 2.456981-12.656894-2.151184-4.84402-6.466524-2.389174-7.244159 4.120944-.112483.941691-.378041 2.817907-.590129 4.169391-.76024 4.844481 1.25448 6.480508 5.377307 4.366559zm-84.7381225-8.907866c.5582376-4.467958-.5996315-10.923871-4.3454602-24.228957-1.0625995-3.774339-2.2877728-8.668982-2.7226065-10.876984-1.4217908-7.219633-3.5744023-10.737657-2.5347392-4.142545.5046588 3.201315 3.353661 17.810461 3.967842 20.34636.340918 1.407609.9168275 4.958241 1.2798014 7.890292.9039286 7.301784 1.6968761 10.194908 3.2561469 11.880227.7728878.835378.8985515.736077 1.0990156-.868393zm59.2313175-24.694543c19.495378-4.467318 25.781696-28.846282 10.394321-40.310209-9.921653-7.391845-16.135121-7.929005-31.6358225-2.734943-3.167122 1.061259-6.0183558 2.093137-6.3360738 2.293066-1.1295377.710779-2.8770392 3.23114-2.8772107 4.149705-8.95e-5.471465-.4522829 1.978608-1.0048772 3.349208-7.3224884 18.161956 11.320681 37.867958 31.4596632 33.253173zm-24.6965436-13.951852c-7.6690214-1.145295-9.3218726-7.675212-3.4518226-13.637107 4.2641388-4.330857 9.2293671-4.705783 12.8745491-.972157 7.2127869 7.387784 1.5026951 16.240871-9.4227265 14.609264zm97.2357426 10.362524c13.391254-2.249463 21.787774-17.64456 16.265678-29.823281-12.93014-28.51681-59.367549-14.81786-49.183421 14.509019 4.35418 12.538584 16.315121 18.103147 32.917743 15.314262h0zm-26.087468-11.835086c-5.969117-1.469751-7.905279-6.924718-4.706773-13.260922 3.998971-7.92192 12.555488-7.828453 16.776717.18326 2.549522 4.838879 1.971552 6.451378-2.162979 6.034574-3.718531-.374866-4.938596.156706-3.12076 1.359693 1.324612.876587 3.018637 2.402165 3.345422 3.012768 1.021122 1.907985-5.861197 3.722117-10.131627 2.670627h0zM90.9829481 147.969213c1.0085422-.146345 1.7055982-.485441 3.0013695-1.460075.9282573-.698206 2.3525664-1.754038 3.1651309-2.346299 4.4674895-3.256257 8.3105615-6.180146 9.6671185-7.354943 1.759786-1.524001 2.175397-1.80445 2.175397-1.467937 0 .131826-.662217.778093-1.471592 1.436148-.809376.658053-1.671609 1.360734-1.916075 1.56151-.681449.559666-5.477255 4.131389-8.2284588 6.128227-2.9496053 2.140836-2.9838102 2.259098-.6044865 2.090049 3.3666233-.239199 4.0680383-.412079 3.8941933-.959813-.175629-.553359.871367-1.092625 1.783454-.918583.414562.079108.346994.144172-.313134.301536-.462973.110361-.799594.329324-.74805.48658.127394.388669 1.457903.520206 1.800144.177965.177563-.177564 1.97707-.275938 5.047591-.275938 5.640669 0 10.225788-.246951 10.225788-.550751 0-.119368-.164526-.217036-.365612-.217036-.409868 0-1.169962-.676958-1.169962-1.041997 0-.130706.230336-.00732.511858.27421.363719.363719.853096.511858 1.690921.511858.902841 0 1.147002.083548 1.042212.356627-.374882.976927 41.104232.883897 41.765755-.093675.323676-.478314.623809-.519183 3.838936-.522735 4.752725-.005247 7.296107-.994244 5.531056-2.150751-.35978-.235736-.636723-.663831-.638138-.986425-.00128-.313467-.283997-1.174573-.628048-1.913569-.344053-.738995-.522476-1.343627-.396498-1.343627.329166 0 .523541.380664 1.161312 2.274301.550518 1.63458.599117 1.69132 1.68788 1.970617 1.09013.279652 1.09987.291074.353251.414311-.422283.069702.268725.128825 1.535574.131386 1.617011.003276 2.036448-.051528 1.40761-.183892-.492663-.1037-.817709-.203709-.722324-.222239.095385-.018529 1.069563-.15833 2.164842-.310669 3.4573-.480868 5.931305-1.393905 6.026981-2.224275.072548-.629647.180087-.697859 1.10018-.697859 1.786344 0 1.343285-1.717031-.533932-2.069199-.932004-.174846-1.520369-.698318-1.259432-1.120524.253644-.410403 1.664926-1.078897 2.006604-.950482.172328.064765.082238.189566-.209296.289939-1.607283.553367-1.720245.982343-.397993 1.511402 1.053983.42172 2.061532 1.247754 2.061532 1.690135 0 .468539-1.589732 2.056338-2.058842 2.056338-.258631 0-.534454.1039-.612937.230889-.173167.280186-3.182294 1.212994-4.686181 1.452679-2.827302.450609-.25716.619794 9.415478.619794 10.692076 0 15.145702-.256902 15.877667-.915886.279127-.251294 1.045939-.363759 2.480203-.363759 1.141889 0 2.147337-.115168 2.234333-.255929.086995-.140761.368279-.255929.625078-.255929.427238 0 .927323-.964236.645993-1.245566-.063931-.063931-.721579.01057-1.461442.165578-2.69343.564262-3.008743.604932-3.008743.388073 0-.1214.821917-.372732 1.826479-.558522 8.933644-1.652224 15.786134-6.653725 18.658029-13.618143.398645-.966726 1.556614-3.285714 2.573261-5.153308 6.217169-11.421005 9.848091-21.290123 8.920249-24.2459115-.111831-.3562609-.271265-1.0596205-.354293-1.5630201-.287155-1.7409958-.429925-1.7983085-3.471529-1.3936438-13.59826 1.809165-40.023288 4.5139921-56.176426 5.7501397-11.343986.8681187-26.776602 1.7994577-29.887425 1.8036647-1.223372.001536-1.223372.001536-5.748985 4.340539-5.663203 5.429535-6.138226 5.452594-.728955.035387 2.225909-2.229177 3.947958-4.111026 3.826779-4.181891-.825722-.482853-3.894831-.963296-5.762852-.902126-2.076004.067982-2.134768.053755-2.114394-.511838.027812-.7720918.059993-.7680226-7.4429-.9412661-60.0202498-1.3858865-100.2378207-3.4555258-121.97448069-6.2769388-2.53165346-.3286078-2.7909298-.3206126-2.7909298.0860638 0 .7116619 2.07218378 2.6801607 3.71006929 3.5244271 2.0610506 1.0623947 2.0921189 1.5278631.12589149 1.8861152-2.10802204.384088-2.04445797.1351023-1.21684127 4.7664968 3.32008868 18.579433 8.20112298 22.785256 18.50551998 15.945585 5.9263314-3.933673 43.9008735-8.007923 68.9623851-7.398904 4.3016861.104535 7.2676909.059865 8.7015879-.131056 1.196468-.159305 2.831755-.349978 3.633972-.423716.802217-.073738 1.593704-.296888 1.75886-.495888.165153-.199.739353-.361817 1.276-.361817.536645 0 1.299928-.133173 1.696183-.295939 2.712779-1.114302 23.370187-1.542241 23.370187-.484138 0 .1857-1.062961 1.198894-3.528597 3.363396-.57626.505883-3.559486 2.808126-6.629391 5.116096-4.655063 3.499702-7.764314 5.91566-9.164656 7.121139-.14076.121175-1.679989 1.7359-3.420509 3.588279-7.158077 7.618112-14.633286 12.860826-21.0575043 14.768613-.8984159.266801-1.2624315.528652-1.467771 1.05583-.3459419.888156-1.4624528 2.874672-1.8123539 3.224573-.5824228.582423-.2975098.995969.5656774.821075.4574732-.09269 1.4229016-.254304 2.1453969-.359143zM26.8387396 73.2324517c0-.2612806.3857465-.981081.8572164-1.5995566 1.1836258-1.5526857 1.702074-2.6273113 1.702074-3.5280126 0-1.0004471-.3411508-.8718658 5.7882552-2.1815981 13.7138735-2.930385 19.5877676-3.6835842 30.0862791-3.8579128 55.3769007-.9195403 71.6309517-1.4276618 89.2314257-2.7894833 4.478784-.3465433 4.470581-.3488313 5.700484 1.5905222 2.658223 4.1915829-4.868395 6.9466796-16.534124 6.0522639-1.126088-.0863377-6.481404-.1903063-11.900701-.2310425-9.853268-.0740608-9.853268-.0740608-15.20391-1.1515809-7.810622-1.5729118-10.097922-1.481627-12.346601.4927402-1.054643.9259871-.71741.922701-3.245442.0316149-6.3911058-2.2527592-14.2975961-2.39071-27.0440118-.4718615-4.2932097.6463002-9.3030208 1.3020313-11.1329135 1.4571832-9.5074621.8061048-18.4236334 2.4537377-29.8614941 5.5181476-4.7551412 1.2739866-6.096537 1.4210921-6.096537.6685763z" fill="#d5ad2d"/><path d="M125.883281 359.542708c-29.8182295-1.276011-50.5497389-5.241324-67.0951782-12.833332-2.4150488-1.108147-2.0527378-.366465-4.6573942-9.534406-4.5364319-15.967439-7.9844872-30.434494-11.6783291-48.998921-1.8725253-9.410895-2.7494176-13.34496-7.0736843-31.735202-7.7594744-32.999479-10.7065366-48.172721-12.4022694-63.854297-.4294554-3.971461.343675-9.401846 1.5584144-10.946137.7190582-.914135.7336572-3.247985.0214827-3.434222-.4154911-.108655-.518499-.459536-.6704627-2.283839-.1261633-1.514573-.3226311-2.337365-.6607671-2.767233-.3262361-.414741-.4812183-1.026637-.4812183-1.899925 0-.708486-.1151681-1.359334-.255929-1.44633-.1537676-.095034-.2559291-1.831781-.2559291-4.350793 0-2.519013-.1021615-4.25576-.255929-4.350794-.140761-.086996-.2559291.072164-.2559291.353686 0 3.154686-2.2671024-2.590931-3.5886627-9.09491-3.3914837-16.690975-8.95770268-33.276962-7.6772272-22.876281.4504812 3.65904 1.2806185 7.256497 3.6639248 15.877868 2.7998571 10.1282 4.0753373 17.299445 3.5059098 19.711581-.813729 3.447011-6.0718898-17.25371-9.10242523-35.835111-.7690737-4.715492-1.92385934-11.798329-2.56619057-15.739636-1.43525061-8.806616-2.77030193-15.4202293-4.59440504-22.7598879-1.825849955-7.3466864-1.774259445-8.5383484.49475077-11.4279742 4.67713282-5.9564158 18.40201717-10.5870271 19.88566067-6.7091825 1.0168757 2.6578385-1.9801845 4.4990151-10.1305326 6.2234625-7.06396652 1.4945923-7.71732292 2.5632113-3.88259213 6.3503086 3.83386673 3.7862424 26.07098783 7.1702387 52.38114653 7.9712454 46.5581463 1.4174528 76.1233233 1.7917977 84.4565853 1.0693663 8.231134-.7135789 8.726523-.7087879 10.102694.0977009 1.226694.7188919 1.226694.7188919 2.791994.3300998 1.566555-.3891043 1.941788-.3793073 7.400706.1931906 1.188414.1246323 1.76017.043856 2.865781-.4048797 1.226304-.4977206 1.49029-.5242886 2.354327-.2369545 1.793233.5963377 18.882939.4242996 24.902521-.2506876 16.739346-1.8770195 36.554171-6.4475898 43.143681-9.9517089.775691-.4124885 5.871901-1.6477249 9.193809-2.2284254 3.189544-.5575619 5.251044-1.0491504 6.782119-1.6172694 1.40761-.5223051 1.40761-.5223051 1.572994 1.6987239.735256 9.8742187-.363857 25.8086091-2.342214 33.9562331-.518868 2.13689-1.129428 5.546722-2.039271 11.388843-.295946 1.900273-.664274 3.706602-.818509 4.014065-.154236.307463-.210748.825492-.12558 1.151174.085168.32568-.12843 2.895738-.474664 5.711236-1.821715 14.813875-2.968559 29.838138-4.727685 61.935339-1.556872 28.40685-2.446738 41.225849-3.730852 53.7451-.346515 3.378263-.799865 8.445658-1.007446 11.260878-1.042215 14.134526-2.612846 27.257672-5.283783 44.147761-.913086 5.77404-1.04111 7.130848-1.11083 11.772736-.262872 17.501273-6.67833 27.439714-18.844227 29.192342-1.1795.169937-3.64173.748515-5.471622 1.285736-14.832683 4.354633-30.656581 6.663804-52.33749 7.637563-17.582257.789694-22.667252.869186-31.479273.4921h0zm-60.4005426-26.470562c-3.1573071-12.873666-5.0042498-18.985636-7.2252174-23.909915-2.377394-5.27109-2.9175963-5.969238-2.6239484-3.39106 1.3497647 11.850615 4.6027508 22.840976 9.8974161 33.43887 2.7918404 5.588211 2.7906554 5.43752-.0482503-6.137895h0zm-5.5345322 8.529091c.9214623-3.438432-.5522488-10.67091-4.8433805-23.769666-2.4475979-7.471311-4.2512886-13.969042-4.5909909-16.538877-.2226505-1.68432-.4540386-1.826643-1.4121013-.868598-1.5367029 1.536701-1.0720944 4.716389 2.3887982 16.348415.9312542 3.129936 1.8250224 6.700146 1.9861477 7.933801.946876 7.249727 5.7181919 19.705973 6.4715268 16.894925zm86.7799148-38.113772c4.669919-3.09321 4.057205-12.108925-1.018296-14.983622-4.569168-2.587904-7.023031 3.05139-5.08303 11.68142.870218 3.871106 3.276355 5.173401 6.101326 3.302202zm-13.765536-.68177c3.48235-1.78554 4.638937-7.743568 2.456981-12.656894-2.151184-4.84402-6.466524-2.389174-7.244159 4.120944-.112483.941691-.378041 2.817907-.590129 4.169391-.76024 4.844481 1.25448 6.480508 5.377307 4.366559zm-84.7381225-8.907866c.5582376-4.467958-.5996315-10.923871-4.3454602-24.228957-1.0625995-3.774339-2.2877728-8.668982-2.7226065-10.876984-1.4217908-7.219633-3.5744023-10.737657-2.5347392-4.142545.5046588 3.201315 3.353661 17.810461 3.967842 20.34636.340918 1.407609.9168275 4.958241 1.2798014 7.890292.9039286 7.301784 1.6968761 10.194908 3.2561469 11.880227.7728878.835378.8985515.736077 1.0990156-.868393zm76.9578795-8.280943c2.606976-1.406176 5.267842-2.047918 8.483731-2.046076 2.474122.002559 4.339779.256799 11.411886 1.562166 8.630975 1.593107 13.704269.393746 13.105464-3.098201-1.35658-7.910971-5.379068-9.647117-17.731793-7.653148-7.205324 1.163069-12.423346 1.217812-15.355377.161107-2.31624-.834764-2.17509-.828084-3.894383-.184806-6.216757 2.325985-5.943397 9.737102.433733 11.759044.858233.272103 1.580372.501211 1.604755.509222.02439.007831.898275-.446341 1.941984-1.009308h0zm-17.726562-16.4136c19.495378-4.467318 25.781696-28.846282 10.394321-40.310209-9.921653-7.391845-16.135121-7.929005-31.6358225-2.734943-3.167122 1.061259-6.0183558 2.093137-6.3360738 2.293066-1.1295377.710779-2.8770392 3.23114-2.8772107 4.149705-8.95e-5.471465-.4522829 1.978608-1.0048772 3.349208-7.3224884 18.161956 11.320681 37.867958 31.4596632 33.253173h0zm-24.6965436-13.951852c-7.6690214-1.145295-9.3218726-7.675212-3.4518226-13.637107 4.2641388-4.330857 9.2293671-4.705783 12.8745491-.972157 7.2127869 7.387784 1.5026951 16.240871-9.4227265 14.609264zm97.2357426 10.362524c13.391254-2.249463 21.787774-17.64456 16.265678-29.823281-12.93014-28.51681-59.367549-14.81786-49.183421 14.509019 4.35418 12.538584 16.315121 18.103147 32.917743 15.314262h0zm-26.087468-11.835086c-5.969117-1.469751-7.905279-6.924718-4.706773-13.260922 3.998971-7.92192 12.555488-7.828453 16.776717.18326 2.549522 4.838879 1.971552 6.451378-2.162979 6.034574-3.718531-.374866-4.938596.156706-3.12076 1.359693 1.324612.876587 3.018637 2.402165 3.345422 3.012768 1.021122 1.907985-5.861197 3.722117-10.131627 2.670627h0zM89.5263971 148.190865c.2547876-.136359 1.1814324-.276285 2.0592102-.310951 1.285657-.050774 1.6301017-.155328 1.7715716-.537755.1535702-.415138.5274518-.485411 2.9785636-.559822 3.6852705-.11188 5.1451925-.317219 6.3859595-.898201 1.108073-.518845 11.761114-.935221 18.810785-.73522 12.536925.355677 40.053367-.003967 40.401351-.528069.329416-.496131.594162-.533118 3.841608-.536706 3.648217-.004044 5.136726-.296102 5.744409-1.127158.309792-.423665 1.18382-.450629 13.625168-.420348 13.548869.032979 18.0178-.180793 18.816769-.9001.279127-.251294 1.045939-.363759 2.480203-.363759 1.141889 0 2.147337-.115168 2.234333-.255929.101225-.163787 3.881245-.255929 10.499189-.255929 9.968168 0 10.350587-.01789 10.606417-.495901.229381-.428602.638706-.514571 3.016169-.633481 5.657522-.282963 7.09603-.441887 7.529259-.831826.332337-.299125.985526-.368717 2.929666-.312128 2.50197.072822 2.50197.072822 2.811895-1.066301.170456-.626516.54086-1.772546.823116-2.546732.409704-1.123753.549081-2.362401.691155-6.142297.194393-5.171988.374465-6.821399 1.061734-9.725304.551169-2.328844.565025-17.85977.021345-23.9293654-.339303-3.7879598-7.32837-5.2106796-12.502577-2.5450685-.854028.4399727-21.57541 2.8963157-37.596568 4.4567484-16.198546 1.577713-36.633057 3.0764695-47.602803 3.4913995-2.918712.1104-4.715193.288716-5.157546.51193-.580637.292995-.876685.279676-2.047433-.092107-.918352-.291633-2.252766-.436894-4.055899-.44151-2.628486-.006731-2.686797-.019605-2.666297-.588645.027812-.7720918.059992-.7680226-7.442901-.9412661-60.0202468-1.3858865-100.2378177-3.4555258-121.97447769-6.2769388-2.53165346-.3286078-2.7909298-.3206126-2.7909298.0860638 0 .7116619 2.07218378 2.6801607 3.71006929 3.5244271 2.0610506 1.0623947 2.0921189 1.5278631.12589149 1.8861152-2.10802204.384088-2.04445797.1351023-1.21684127 4.7664968 3.32008868 18.579433 8.20112298 22.785256 18.50551998 15.945585 5.9263314-3.933673 43.9008735-8.007923 68.9623851-7.398904 4.3016861.104535 7.2676909.059865 8.7015879-.131056 1.196468-.159305 2.831755-.349978 3.633972-.423716.802217-.073738 1.593704-.296888 1.75886-.495888.165153-.199.739353-.361817 1.276-.361817.536645 0 1.299928-.133173 1.696183-.295939 2.712779-1.114302 23.370187-1.542241 23.370187-.484138 0 .1857-1.062961 1.198894-3.528597 3.363396-.57626.505883-3.559486 2.808126-6.629391 5.116096-4.655063 3.499702-7.764314 5.91566-9.164656 7.121139-.14076.121175-1.679989 1.7359-3.420509 3.588279-7.158077 7.618112-14.633286 12.860826-21.0575043 14.768613-.8984159.266801-1.2624315.528652-1.467771 1.05583-.3459419.888156-1.4624528 2.874672-1.8123539 3.224573-.7437068.743707.1907619 1.252893 1.2545233.683584h0zM26.8387396 73.2324517c0-.2612806.3857465-.981081.8572164-1.5995566 1.1836258-1.5526857 1.702074-2.6273113 1.702074-3.5280126 0-1.0004471-.3411508-.8718658 5.7882552-2.1815981 13.7138735-2.930385 19.5877676-3.6835842 30.0862791-3.8579128 55.3769007-.9195403 71.6309517-1.4276618 89.2314257-2.7894833 4.478784-.3465433 4.470581-.3488313 5.700484 1.5905222 2.658223 4.1915829-4.868395 6.9466796-16.534124 6.0522639-1.126088-.0863377-6.481404-.1903063-11.900701-.2310425-9.853268-.0740608-9.853268-.0740608-15.20391-1.1515809-7.810622-1.5729118-10.097922-1.481627-12.346601.4927402-1.054643.9259871-.71741.922701-3.245442.0316149-6.3911058-2.2527592-14.2975961-2.39071-27.0440118-.4718615-4.2932097.6463002-9.3030208 1.3020313-11.1329135 1.4571832-9.5074621.8061048-18.4236334 2.4537377-29.8614941 5.5181476-4.7551412 1.2739866-6.096537 1.4210921-6.096537.6685763z" fill="#28a8dd"/><path d="M125.883281 359.542708c-29.8182295-1.276011-50.5497389-5.241324-67.0951782-12.833332-2.4150488-1.108147-2.0527378-.366465-4.6573942-9.534406-4.5364319-15.967439-7.9844872-30.434494-11.6783291-48.998921-1.8725253-9.410895-2.7494176-13.34496-7.0736843-31.735202-7.7594744-32.999479-10.7065366-48.172721-12.4022694-63.854297-.4746409-4.389324.4076335-9.76504 1.8373003-11.194706.9334761-.933478 1.0564372-2.699613.2408504-3.459446-.3730762-.347575-.5661191-1.020638-.7409663-2.583455-.1357644-1.213485-.4006164-2.298095-.621982-2.547106-.4907813-.552075-.6816829-2.172971-.900189-7.643267-.096541-2.416902-.268167-4.486593-.3813913-4.599312-.2468328-.245732-.680478.374286-.6859702.98079-.027375 3.022995-2.2863726-2.745566-3.5925818-9.173995-3.3914837-16.690975-8.95770268-33.276962-7.6772272-22.876281.4504812 3.65904 1.2806185 7.256497 3.6639248 15.877868 2.7998571 10.1282 4.0753373 17.299445 3.5059098 19.711581-.813729 3.447011-6.0718898-17.25371-9.10242523-35.835111-.7690737-4.715492-1.92385934-11.798329-2.56619057-15.739636-1.43525061-8.806616-2.77030193-15.4202293-4.59440504-22.7598879-1.825849955-7.3466864-1.774259445-8.5383484.49475077-11.4279742 4.67713282-5.9564158 18.40201717-10.5870271 19.88566067-6.7091825 1.0168757 2.6578385-1.9801845 4.4990151-10.1305326 6.2234625-7.06396652 1.4945923-7.71732292 2.5632113-3.88259213 6.3503086 3.83386673 3.7862424 26.07098783 7.1702387 52.38114653 7.9712454 46.5581463 1.4174528 76.1233233 1.7917977 84.4565853 1.0693663 8.231134-.7135789 8.726523-.7087879 10.102694.0977009 1.226694.7188919 1.226694.7188919 2.791994.3300998 1.566555-.3891043 1.941788-.3793073 7.400706.1931906 1.188414.1246323 1.76017.043856 2.865781-.4048797 1.226304-.4977206 1.49029-.5242886 2.354327-.2369545 1.793233.5963377 18.882939.4242996 24.902521-.2506876 16.739346-1.8770195 36.554171-6.4475898 43.143681-9.9517089.775691-.4124885 5.871901-1.6477249 9.193809-2.2284254 3.189544-.5575619 5.251044-1.0491504 6.782119-1.6172694 1.40761-.5223051 1.40761-.5223051 1.572994 1.6987239.735256 9.8742187-.363857 25.8086091-2.342214 33.9562331-.518868 2.13689-1.129428 5.546722-2.039271 11.388843-.295946 1.900273-.664274 3.706602-.818509 4.014065-.154236.307463-.210748.825492-.12558 1.151174.085168.32568-.12843 2.895738-.474664 5.711236-1.821715 14.813875-2.968559 29.838138-4.727685 61.935339-1.556872 28.40685-2.446738 41.225849-3.730852 53.7451-.346515 3.378263-.799865 8.445658-1.007446 11.260878-1.042215 14.134526-2.612846 27.257672-5.283783 44.147761-.913086 5.77404-1.04111 7.130848-1.11083 11.772736-.262872 17.501273-6.67833 27.439714-18.844227 29.192342-1.1795.169937-3.64173.748515-5.471622 1.285736-14.832683 4.354633-30.656581 6.663804-52.33749 7.637563-17.582257.789694-22.667252.869186-31.479273.4921h0zm-60.4005426-26.470562c-3.1573071-12.873666-5.0042498-18.985636-7.2252174-23.909915-2.377394-5.27109-2.9175963-5.969238-2.6239484-3.39106 1.3497647 11.850615 4.6027508 22.840976 9.8974161 33.43887 2.7918404 5.588211 2.7906554 5.43752-.0482503-6.137895h0zm-5.5345322 8.529091c.9214623-3.438432-.5522488-10.67091-4.8433805-23.769666-2.4475979-7.471311-4.2512886-13.969042-4.5909909-16.538877-.2226505-1.68432-.4540386-1.826643-1.4121013-.868598-1.5367029 1.536701-1.0720944 4.716389 2.3887982 16.348415.9312542 3.129936 1.8250224 6.700146 1.9861477 7.933801.946876 7.249727 5.7181919 19.705973 6.4715268 16.894925zm86.7799148-38.113772c4.669919-3.09321 4.057205-12.108925-1.018296-14.983622-4.569168-2.587904-7.023031 3.05139-5.08303 11.68142.870218 3.871106 3.276355 5.173401 6.101326 3.302202zm-13.765536-.68177c3.48235-1.78554 4.638937-7.743568 2.456981-12.656894-2.151184-4.84402-6.466524-2.389174-7.244159 4.120944-.112483.941691-.378041 2.817907-.590129 4.169391-.76024 4.844481 1.25448 6.480508 5.377307 4.366559zm-84.7381225-8.907866c.5582376-4.467958-.5996315-10.923871-4.3454602-24.228957-1.0625995-3.774339-2.2877728-8.668982-2.7226065-10.876984-1.4217908-7.219633-3.5744023-10.737657-2.5347392-4.142545.5046588 3.201315 3.353661 17.810461 3.967842 20.34636.340918 1.407609.9168275 4.958241 1.2798014 7.890292.9039286 7.301784 1.6968761 10.194908 3.2561469 11.880227.7728878.835378.8985515.736077 1.0990156-.868393zm76.9578795-8.280943c2.606976-1.406176 5.267842-2.047918 8.483731-2.046076 2.474122.002559 4.339779.256799 11.411886 1.562166 8.630975 1.593107 13.704269.393746 13.105464-3.098201-1.35658-7.910971-5.379068-9.647117-17.731793-7.653148-7.205324 1.163069-12.423346 1.217812-15.355377.161107-2.31624-.834764-2.17509-.828084-3.894383-.184806-6.216757 2.325985-5.943397 9.737102.433733 11.759044.858233.272103 1.580372.501211 1.604755.509222.02439.007831.898275-.446341 1.941984-1.009308h0zm-17.726562-16.4136c19.495378-4.467318 25.781696-28.846282 10.394321-40.310209-10.173436-7.579429-16.658294-8.009182-33.2266263-2.201942-3.4751453 1.218048-5.1282371 1.686188-5.3105277 1.503898-.1822906-.182291-.2646818-.126747-.2646818.178428 0 .243714-.1630473.50568-.3623264.582152-.7559377.29008-1.6153397 1.991898-1.6658115 3.298703-.030691.794667-.423862 2.207247-1.0390515 3.733101-7.3075907 18.125008 11.3598587 37.825126 31.4747042 33.215869h0zm-24.6965436-13.951852c-7.6690214-1.145295-9.3218726-7.675212-3.4518226-13.637107 4.2641388-4.330857 9.2293671-4.705783 12.8745491-.972157 7.2127869 7.387784 1.5026951 16.240871-9.4227265 14.609264zm97.2357426 10.362524c13.391254-2.249463 21.787774-17.64456 16.265678-29.823281-12.93014-28.51681-59.367549-14.81786-49.183421 14.509019 4.35418 12.538584 16.315121 18.103147 32.917743 15.314262h0zm-26.087468-11.835086c-5.969117-1.469751-7.905279-6.924718-4.706773-13.260922 3.998971-7.92192 12.555488-7.828453 16.776717.18326 2.549522 4.838879 1.971552 6.451378-2.162979 6.034574-3.718531-.374866-4.938596.156706-3.12076 1.359693 1.324612.876587 3.018637 2.402165 3.345422 3.012768 1.021122 1.907985-5.861197 3.722117-10.131627 2.670627h0zm-14.892728-87.570676c.188412-.659823.099006-.982995-.558998-2.02056-5.029318-7.930412.582487-18.951164 8.526875-16.745517 3.249667.902224 3.260769 2.696981.059964 9.693221-3.023394 6.608464-2.791661 7.810872 1.505349 7.810872 3.042139 0 2.901358.210448 3.185931-4.762563.731386-12.781296 4.585306-17.093833 12.794663-14.317221 2.130512.720594 2.166931.763401 2.810132 3.303005 2.46745 9.742469 5.832338 12.506541 14.721008 12.092499 6.305121-.293699 7.707564-1.629945 10.121873-9.644105 2.055366-6.822674 3.479816-8.494733 7.731995-9.076025 1.018969-.139297 2.370925-.36163 3.004349-.494071 2.686034-.561623 5.346982-.165839 6.044747.899084.593894.906398.942543.499144.804308-.939505-.119762-1.246392-.119762-1.246392 9.814897-1.246392 9.566167 0 9.944505-.018402 10.200058-.495901.229381-.428602.638706-.514571 3.016169-.633481 5.657522-.282963 7.09603-.441887 7.529259-.831826.332337-.299125.985526-.368717 2.929666-.312128 2.50197.072822 2.50197.072822 2.811895-1.066301.170456-.626516.54086-1.772546.823116-2.546732.409704-1.123753.549081-2.362401.691155-6.142297.194393-5.171988.374465-6.821399 1.061734-9.725304.551169-2.328844.565025-17.85977.021345-23.9293654-.339303-3.7879598-7.32837-5.2106796-12.502577-2.5450685-.854028.4399727-21.57541 2.8963157-37.596568 4.4567484-16.198546 1.577713-36.633057 3.0764695-47.602803 3.4913995-2.918712.1104-4.715193.288716-5.157546.51193-.580637.292995-.876685.279676-2.047433-.092107-.918352-.291633-2.252766-.436894-4.055899-.44151-2.628486-.006731-2.686797-.019605-2.666297-.588645.027812-.7720918.059992-.7680226-7.442901-.9412661-60.0202468-1.3858865-100.2378177-3.4555258-121.97447769-6.2769388-2.53165346-.3286078-2.7909298-.3206126-2.7909298.0860638 0 .7116619 2.07218378 2.6801607 3.71006929 3.5244271 2.0610506 1.0623947 2.0921189 1.5278631.12589149 1.8861152-2.10802204.384088-2.04445797.1351023-1.21684127 4.7664968 3.32008868 18.579433 8.20112298 22.785256 18.50551998 15.945585 4.9034316-3.254711 24.7033312-5.918876 53.1265194-7.148413 22.6586986-.980175 17.5747372.459359-12.188365 3.451162-14.6610848 1.473739-21.5527806 2.425652-28.6640532 3.959212-1.5483708.333908-3.6239016.665879-4.6122919.737711-8.6094293.625698-16.8298084 10.994261-12.5085672 15.777357 1.2772354 1.413747 3.1248276 2.050888 6.6605808 2.296895 1.5664188.108984 2.9565666.265232 3.0892146.347213.132648.081982 1.7878205.432116 3.6781559.778076 4.0262067.736858 4.8470172 1.015076 5.0271683 1.703973.1213154.463915.3533279.508777 2.631273.508777 2.2677643 0 2.5317269.050456 2.8613943.546961.3034013.456948.6859973.567681 2.3248031.672853 1.4807364.095026 2.0678658.243276 2.3949661.604719.2780132.307197.7806425.478828 1.4022814.478828.532921 0 1.0401238.115168 1.1271192.255929.0869954.140761.7485847.255929 1.4702023.255929 1.0085524 0 1.4536744.133193 1.9244201.57584.5856219.55067.83428.579465 5.6883916.658762 4.6255797.075565 5.1155789.126662 5.5220812.57584.4636743.512357 2.9260445.73792 2.9260445.26804 0-.896834 4.4178958-1.642665 10.1091973-1.706637 4.0809448-.045871 5.6104587-.16562 7.5449854-.59071 3.2142667-.706298 3.3206257-.542227 1.552092 2.394262-.4238748.703805-.8813992 1.529419-1.0167217 1.834696-.1353225.305278-.5604513.708366-.9447288.895752-.38428.187386-1.1553277 1.011468-1.7134424 1.831293-.7725014 1.134741-1.3270075 1.638286-2.3227199 2.109257-4.2948452 2.031457-7.7808982 5.485632-5.5362546 5.485632.575953 0 1.322283.180248 1.6585073.400549.5546903.363448.6830643.363448 1.3858941 0 .4260195-.220301.9366824-.400549 1.1348048-.400549.1981249 0 .8023171-.719801 1.3426524-1.599557 1.7019333-2.771041 8.7814835-9.34292 9.689356-8.994537.2655366.101896.4727189-.03498.6084867-.401998.191266-.517035.404634-.562716 3.0088144-.644158 3.3012288-.103241 5.5095225-.352654 5.8943915-.665732.166894-.135761.957448.038573 1.99738.440469 2.959032 1.143552 3.175317 2.419878.638254 3.766418-4.486462 2.381184-5.2460105 7.533274-1.70385 11.55738 3.052402 3.46771 8.180498 2.771849 5.277741-.716167-5.533458-6.649121-1.656967-12.2091 10.022099-14.374518 7.445529-1.380476 18.369661.981838 16.359261 3.537651-1.745065 2.21849-1.743962 5.311134.004428 12.439121.430718 1.755981.783125 3.460207.783125 3.787167 0 1.055666 3.09582.743589 3.406198-.343365h1.3e-5zm37.512321-9.165221c-7.417878-2.65078-7.332364-10.837753.110953-10.622494 2.077379.060077 2.528932-.011312 3.886075-.614322 5.293985-2.352264 10.27062 1.517368 8.732883 6.790335-.904832 3.102705-2.713019 4.270837-7.069344 4.566965-4.017863.27312-4.593396.260871-5.660567-.120484zM26.8387396 73.2324517c0-.2612806.3857465-.981081.8572164-1.5995566 1.1836258-1.5526857 1.702074-2.6273113 1.702074-3.5280126 0-1.0004471-.3411508-.8718658 5.7882552-2.1815981 13.7138735-2.930385 19.5877676-3.6835842 30.0862791-3.8579128 55.3769007-.9195403 71.6309517-1.4276618 89.2314257-2.7894833 4.478784-.3465433 4.470581-.3488313 5.700484 1.5905222 2.658223 4.1915829-4.868395 6.9466796-16.534124 6.0522639-1.126088-.0863377-6.481404-.1903063-11.900701-.2310425-9.853268-.0740608-9.853268-.0740608-15.20391-1.1515809-7.810622-1.5729118-10.097922-1.481627-12.346601.4927402-1.054643.9259871-.71741.922701-3.245442.0316149-6.3911058-2.2527592-14.2975961-2.39071-27.0440118-.4718615-4.2932097.6463002-9.3030208 1.3020313-11.1329135 1.4571832-9.5074621.8061048-18.4236334 2.4537377-29.8614941 5.5181476-4.7551412 1.2739866-6.096537 1.4210921-6.096537.6685763z" fill="#3698a6"/><path d="M130.617968 359.67382c-33.6768355-1.803173-49.7091396-4.451809-66.4135876-10.971883-7.2655415-2.835873-7.2844649-2.848336-8.0267103-5.28409-4.4991815-14.764572-9.1920066-33.890124-13.1139324-53.445663-2.2810649-11.37387-3.0685176-14.916287-7.6278296-34.31428-11.565872-49.208047-14.4750871-69.418589-10.6238727-73.80488.9450175-1.076315 1.0731049-3.14684.2425411-3.920626-.3730762-.347575-.5661191-1.020638-.7409663-2.583455-.1357644-1.213485-.4006164-2.298095-.621982-2.547106-.4917144-.553124-.6821008-2.17607-.900189-7.673639-.1369502-3.452242-.2572174-4.475083-.5472029-4.653816-.5220802-.321787-.778668-.089995-.788146.711982-.0278868 2.359589-2.1108455-3.862131-3.3252368-9.932356-3.7249807-18.619595-10.31142068-35.33933-7.5222878-19.09539.4589689 2.673038 1.8020633 8.020969 3.7827908 15.062315 1.6946255 6.02427 2.6433445 10.611865 2.9510989 14.270237.9806403 11.657174-5.2795577-11.767776-8.54946618-31.991131C4.31211155 101.787221 3.04343594 95.2357621.566010954 87.0158176-.503519094 83.4671822.00732101459 81.6118297 2.88059878 78.6093213c6.0456509-6.3175676 19.73666252-9.8352048 18.73219582-4.8128711-.4146818 2.0734117-3.1595769 3.3792257-10.1149719 4.8119446-7.19478768 1.4820314-7.92350853 2.720211-3.92586892 6.6704989 3.14985752 3.1125502 20.34845452 6.3641569 40.25296762 7.6103215 3.7016017.2317463 8.0264494.3787622 30.7114857 1.0439858 30.5382219.8955136 58.7622179 1.1262029 65.9017299.5386462 8.302765-.6832871 9.259385-.6862994 10.422099-.0328178.934222.5250614 1.169664.5577385 2.22152.3083203 1.122937-.2662737 1.987302-.2273751 7.99355.3597261 1.206631.117945 1.672629.0321268 2.849997-.5248567 1.205401-.5702457 1.512759-.623891 2.140514-.3736052 1.440115.5741743 19.136877.3910775 24.918307-.2578101 16.749975-1.8799652 36.554873-6.4484881 43.143681-9.952231.775691-.4124885 5.871901-1.6477249 9.193809-2.2284254 3.233778-.5652961 5.276307-1.0489533 6.602181-1.5633528 2.245209-.871075 2.776671 11.0105718 1.0651 23.8116644-.935359 6.995641-1.143594 8.351545-1.63369 10.637696-.286669 1.337229-.682005 3.179918-.87852 4.094864-2.836664 13.206989-5.279368 39.462581-7.583646 81.513402-1.672939 30.529441-2.477905 41.836506-4.090389 57.456071-.268833 2.604078-.558961 5.828784-.644733 7.166013-.75623 11.79014-2.451317 25.993844-5.383371 45.109082-.909815 5.931462-1.099822 7.744131-.979177 9.34141 1.240632 16.425245-6.340404 28.657194-18.976744 30.618865-1.266849.196656-4.330563.945914-6.808256 1.664972-12.518659 3.633169-26.720835 5.801681-45.40127 6.932196-12.09224.73183-28.511865 1.307081-31.991131 1.12079h0zm-1.109537-3.616354c.939401-.939387-1.835016-1.386572-13.862312-2.234286-2.8856-.203387-6.686146-.541264-8.445659-.750845-9.6129685-1.145026-17.2299672-1.210544-14.4114078-.123946 5.1088915 1.969553 35.3023848 4.52608 36.7193788 3.109077zm-61.4651148-13.20837c0-.661269-4.569237-18.963498-5.7265404-22.937845-2.1352494-7.332726-5.9265336-16.37946-6.8642756-16.37946-.8768462 0 1.2986454 12.449208 3.3989783 19.450608 2.76905 9.230542 9.1918377 23.112389 9.1918377 19.866697zm-7.9000972-1.077026c.8879535-4.10111-.398781-10.540719-4.7772458-23.908252-2.4067721-7.347928-4.2391115-13.911433-4.6083762-16.507423-.236225-1.660673-.4844225-1.974519-1.2762388-1.613735-2.2857433 1.041452-1.9327787 4.696733 1.5751307 16.311868.9110408 3.016584 1.8328231 6.644378 2.0484049 8.061765 1.3820117 9.086402 6.2498436 21.297442 7.0383252 17.655777zm86.499396-37.947777c4.078598-2.586573 4.792092-8.506365 1.576244-13.077898-5.333083-7.581309-10.820862-.117446-7.633957 10.382863.965124 3.179892 3.508739 4.311534 6.057713 2.695035h0zm-13.68003-.764128c4.433214-2.279713 5.177171-10.983937 1.28856-15.076063-2.323826-2.445453-5.735012 1.089848-6.34928 6.580294-.129687 1.159154-.346185 2.585728-.481111 3.170142-1.204586 5.217574 1.220329 7.547885 5.541831 5.325627h0zm-84.5195872-9.146162c.595012-3.849633-.6520919-11.069212-3.9606044-22.928273-1.2696768-4.551033-2.7071663-10.264956-3.1944194-12.697613-1.1843731-5.913056-3.1883564-9.925322-3.1883564-6.383543 0 1.787756 2.8401624 17.246426 4.2189341 22.963164.3564631 1.47799.9410408 5.048201 1.2990574 7.933801.9500675 7.657499 1.5534561 9.948422 3.0944074 11.748679 1.1571755 1.351894 1.4397468 1.248038 1.7309813-.636215zm76.7693112-8.296656c4.561948-2.503754 8.388497-2.652654 18.458041-.718239 13.337163 2.562131 18.676483-1.303703 12.022441-8.704582-2.724772-3.03061-5.574043-3.358634-15.477484-1.781906-6.608397 1.052124-12.30341 1.140727-14.71592.228979-2.935813-1.109554-4.780701-.723997-7.045604 1.472386-3.87335 3.756142-1.282765 9.408412 4.818279 10.512816.041822.007582.914931-.446743 1.940247-1.009454zm-17.442038-16.227898c2.814726-.714016 3.5304-1.046136 7.95827-3.693005 14.676131-8.773043 14.701291-30.038822.045542-38.492773-.985326-.568372-2.424927-1.406512-3.199113-1.862531-7.030934-4.141457-13.785518-3.916836-27.3844077.910657-2.4633171.874456-4.801188 1.582854-5.1952675 1.574214-.5314853-.011645-.7776839.145191-.9533997.607361-.1302909.342686-.3353848.623067-.4557687.623067-.5759248 0-1.8412226 2.28865-1.8412226 3.330374 0 .653658-.3938262 2.048108-1.0102032 3.576908-7.3719722 18.284694 12.0083777 38.506022 32.0355704 33.425728h0zm-25.6657293-14.486037c-6.8009049-1.151911-8.0902166-7.298019-2.7227498-12.97927 4.1508723-4.393539 8.8017224-4.816319 12.4709951-1.133664 7.4830326 7.510325 1.5952851 16.034262-9.7482453 14.112934h0zm98.2958543 10.879127c16.256549-3.233485 22.850801-21.107314 12.97799-35.177054-15.00404-21.382252-51.93811-8.947154-47.519592 15.999072 2.641308 14.912387 16.711639 22.724442 34.541602 19.177982zm-26.260734-12.164743c-7.097345-1.407139-8.397759-10.103301-2.412034-16.129805 5.278959-5.314928 12.782773-2.250339 15.227287 6.218883.761471 2.638178.288314 3.005961-3.620375 2.814096-4.507978-.221284-4.866693.189746-2.025668 2.321075 2.252229 1.689618 2.925576 2.549306 2.447711 3.125101-1.171585 1.411674-6.344215 2.299504-9.616921 1.65065h0zm.279708-61.788761c1.829892-.075322 3.730165-.204257 4.222829-.28652.492663-.082266 1.241256-.188945 1.663539-.237064.422283-.04812 1.286043-.15367 1.919468-.234554.633424-.080884 1.554768-.197902 2.047432-.260042.492663-.06214 1.29884-.178196 1.791503-.257902.492664-.079707 1.241256-.19454 1.663539-.255187.777988-.111731 3.337842-.555791 7.293978-1.265293 16.96686-3.042876 28.799857-8.510199 41.492479-19.171199.369487-.310348 1.160428-.967356 1.757644-1.460019.597215-.492664 1.572635-1.356424 2.167598-1.919468.594964-.563044 1.859184-1.714725 2.80938-2.559291.950192-.844566 2.331393-2.111414 3.069331-2.815219 2.641874-2.519673 5.47206-5.074917 7.853992-7.091011.616476-.521791 1.466371-1.243628 1.888654-1.604081.422283-.360453 1.310231-1.085214 1.973218-1.610577.844714-.66937 1.255995-1.207775 1.374408-1.799227.151986-.759153.248271-.836356.957581-.767788.6193.059865.855912-.05669 1.1021-.542897.172422-.340519.494706-.720537.716189-.844486.285991-.160048.402694-.612021.402694-1.559563 0-1.138144.084618-1.371329.575841-1.586839.316712-.138949.610575-.495986.653028-.793411.042454-.297428.35005-.665103.683551-.817056.498836-.227283.638246-.539847.78616-1.762583.098889-.817471.263894-1.601476.366677-1.742237.102784-.140761.308185-.716602.45645-1.279646.148262-.563044.500651-1.65714.783084-2.431326.410142-1.124242.549341-2.360751.691477-6.142297.194393-5.171988.374465-6.821399 1.061734-9.725304.551169-2.328844.565025-17.85977.021345-23.9293654-.339303-3.7879598-7.32837-5.2106796-12.502577-2.5450685-.854163.4400444-21.587016 2.8976798-37.596568 4.4566358-12.347581 1.2023624-28.167416 2.4404422-39.413074 3.0845131-2.744839.157205-6.833305.398151-9.085481.535439-5.334733.325189-6.240735.314018-6.719251-.082846-.280401-.232553-1.262812-.318798-3.3247-.291872-2.787067.036396-2.920449.014358-2.795899-.4619238.209071-.7994865-.501928-.898055-7.762438-1.0761279-63.5666868-1.559043-98.1574861-3.3452793-122.1994035-6.3102608-2.6821377-.3307755-2.69396904-.3297543-2.69396904.2325064 0 .7870356 2.15122184 2.9464241 3.82291711 3.8374283 1.86997173.9966824 1.92358673 1.226929.33592991 1.4426285-2.53017471.343746-2.45634378.0090855-1.33444835 6.0486473 3.29458767 17.735919 8.83961957 22.186341 18.76352097 15.059533 3.015635-2.165664 19.8891804-5.082123 35.4842579-6.133175 6.811613-.459078 8.0825848-.526682 17.1472461-.912052 10.4698654-.445112 12.9933693-.471127 12.6526817-.13044-.3357815.335782-9.6029927 1.638146-17.387369 2.443527-22.8530615 2.364408-25.8948524 2.750246-34.1665278 4.333892-2.4633171.471613-5.515271.986107-6.7821198 1.143324-13.7125747 1.701724-18.4274327 17.440029-5.5024745 18.367388 4.6137891.331037 11.7727362 2.020696 11.7727362 2.778607 0 .305151.4940889.37489 2.6560393.37489 2.4289535 0 2.6870886.046763 3.0192078.546961.3034013.456948.6859973.567681 2.3248031.672853 1.4807364.095026 2.0678658.243276 2.3949661.604719.2780132.307197.7806425.478828 1.4022814.478828.532921 0 1.0401238.115168 1.1271192.255929.0869954.140761.7485847.255929 1.4702023.255929 1.0085524 0 1.4536744.133193 1.9244175.57584.5852278.550299.8356902.579508 5.6469337.658506 4.4891797.073707 5.0899911.134327 5.5464021.559599.702341.654426 2.9162603.792269 3.4911589.217371.909449-.909449 4.8926493-1.555248 9.3442305-1.514982 3.6764157.033252 7.8563513-.359663 9.6223845-.90451 1.1938758-.368325-1.411267 4.766261-2.687255 5.296429-.3870926.160836-.705993.422416-.7086675.581289-.0151766.901238-1.6087418 2.763289-2.8777583 3.362593-10.9361502 5.164694-11.1299192 16.395554-.4031881 23.368791 6.9485888 4.51714 8.2441323 5.30383 11.2196095 6.812867 7.0072761 3.553795 16.2530531 6.440097 23.8014011 7.430204.633425.083087 1.439601.202522 1.791504.265414.752078.134411 2.678387.363598 4.478758.53287.703805.066173 1.855486.178485 2.55929.249582.703805.071097 2.342396.160979 3.641315.19974 1.298917.038757 2.412231.121011 2.474033.182782.148344.148275 17.523431.041903 21.780919-.133345zM27.0946686 73.1044871c0-.1909.3857465-.8531164.8572164-1.471592 1.1792648-1.5469631 1.7020741-2.6267482 1.7020741-3.5153723 0-.5683109.1410937-.7872377.5758403-.8934969 12.2365846-2.9908125 24.4955552-4.7444895 34.3584746-4.9150662 60.080242-1.0390642 72.783055-1.4344106 89.703131-2.7917994 4.501029-.3610903 4.585064-.3412379 5.647617 1.3342323 2.744099 4.3270001-1.411689 5.8258178-15.884779 5.7289641-23.119622-.1547117-21.527049-.0808685-27.453603-1.2729783-7.800759-1.569101-10.248157-1.4614061-12.637889.5561108-.806387.6807866-.806387.6807866-3.468297-.2099463-6.6131964-2.2129136-13.183993-2.2554694-27.4605214-.1778451-4.9266342.7169571-10.5171636 1.4179032-12.4234025 1.5576558-6.6405373.4868385-13.8653708 1.8273385-25.051817 4.6481322-7.2183559 1.8201955-8.4640445 2.0296248-8.4640445 1.4230013z" fill="#008ecf"/><path d="M130.617968 359.67382c-33.6768355-1.803173-49.7091396-4.451809-66.4135876-10.971883-7.2655415-2.835873-7.2844649-2.848336-8.0267103-5.28409-4.4991815-14.764572-9.1920066-33.890124-13.1139324-53.445663-2.2810649-11.37387-3.0685176-14.916287-7.6278296-34.31428-11.5372968-49.08647-14.480617-69.482602-10.6461726-73.774092 1.2720188-1.423636 2.2949288.245976 3.4212035 5.584157 6.4223705 30.440011 16.919413 70.291808 24.7739957 94.053924 2.9380885 8.888467 2.4403065 8.035993 4.5873107 7.855998 2.2258046-.186597 2.2616731-.109435 1.1510562 2.476344-2.0605974 4.797569-1.043433 7.227667 5.4170966 12.941897 2.7395131 2.42306 2.486343 3.133954-.9402808 2.640292-2.3731712-.341895-2.2141189-.674091-1.3291572 2.776037.4114699 1.604163.9877888 4.06835 1.2807124 5.47596 4.5069464 21.657689 9.0324271 29.348894 18.3992613 31.270256 28.9475591 5.937758 61.9816851 6.962089 105.6579171 3.276224 17.159766-1.448097 30.528253-6.78043 34.805045-13.882743 1.105759-1.836291 1.135769-1.751885-.690852-1.942808-2.948267-.308165-2.870764-1.022539.251332-2.316619 4.626097-1.917497 6.070187-3.425969 5.998803-6.266295-.030978-1.232631.147681-2.237332.685519-3.855136 1.825777-5.491802 2.196411-9.752867 1.772139-20.373667-.35787-8.958514-.249589-12.515468.482585-15.85291 1.131022-5.155486 1.734897-10.29751 2.735096-23.289544.678176-8.809098 1.178965-13.765927 1.784112-17.659104.569609-3.664558.862425-7.572193 1.275328-17.019281.467769-10.702398.764061-14.807433 1.431613-19.834502.83027-6.252454.971591-6.720916 2.4836-8.232925 2.166475-2.166478 2.102541-3.68588-.302887-7.198199-3.672467-5.362397-3.67518-8.173404-.011159-11.550792 1.403029-1.293266 1.448142-3.173328.371986-15.502305-1.13921-13.051363-1.117753-17.3396.086181-17.223296.61778.059678.854729-.057226 1.100738-.543079.172422-.340519.494706-.720537.716189-.844486.286004-.160048.402707-.612021.402707-1.559563 0-1.138144.084618-1.371329.575841-1.586839.316712-.138949.610575-.495986.653028-.793411.042454-.297428.35005-.665103.683551-.817056.498836-.227283.638246-.539847.78616-1.762583.098889-.817471.263894-1.601476.366677-1.742237.102784-.140761.308185-.716602.45645-1.279646.148262-.563044.500651-1.65714.783084-2.431326.410142-1.124242.549341-2.360751.691477-6.142297.194393-5.171988.374465-6.821399 1.061734-9.725304.551169-2.328844.565025-17.85977.021345-23.9293654-.339303-3.7879598-7.32837-5.2106796-12.502577-2.5450685-.854163.4400444-21.587016 2.8976798-37.596568 4.4566358-12.347581 1.2023624-28.167416 2.4404422-39.413074 3.0845131-2.744839.157205-6.833305.398151-9.085481.535439-5.334733.325189-6.240735.314018-6.719251-.082846-.280401-.232553-1.262812-.318798-3.3247-.291872-2.787067.036396-2.920449.014358-2.795899-.4619238.209071-.7994865-.501928-.898055-7.762438-1.0761279-63.5666868-1.559043-98.1574861-3.3452793-122.1994035-6.3102608-2.6821377-.3307755-2.69396904-.3297543-2.69396904.2325064 0 .7870356 2.15122184 2.9464241 3.82291711 3.8374283 1.86997173.9966824 1.92358673 1.226929.33592991 1.4426285-2.53017471.343746-2.45634378.0090855-1.33444835 6.0486473 3.29458767 17.735919 8.83961957 22.186341 18.76352097 15.059533 3.015635-2.165664 19.8891804-5.082123 35.4842579-6.133175 6.811613-.459078 8.0825848-.526682 17.1472461-.912052 10.4698654-.445112 12.9933693-.471127 12.6526817-.13044-.3357815.335782-9.6029927 1.638146-17.387369 2.443527-22.8530615 2.364408-25.8948524 2.750246-34.1665278 4.333892-2.4633171.471613-5.515271.986107-6.7821198 1.143324-13.7125747 1.701724-18.4274327 17.440029-5.5024745 18.367388 2.2397631.160703 10.4964052 1.720647 11.2544108 2.12632.8814708.471749.6432853 1.251025-.535378 1.751604-1.0537034.44751-1.0537034.44751.0182733 1.156917.8776984.580831 1.0166091.776133.7664384 1.077569-.4651945.560526-.6904863.514983-8.335673-1.685011-9.6059749-2.764239-11.6776389-2.967874-9.0544396-.890009 2.009388 1.591659 1.7449263 2.249171-.6165154 1.532805-2.1310454-.646476-2.0050582-1.288098-1.0307389 5.249315.2412546 1.618751.4287498 3.375412.4166561 3.903693-.0120927.528281.1480555 1.737546.3558872 2.687255.9691138 4.428469 1.0603576 7.503745.1873081 6.313015-.6040496-.823848-2.0633957-5.897406-2.9019022-10.088744-3.7249807-18.619595-10.31142068-35.33933-7.5222878-19.09539.4589689 2.673038 1.8020633 8.020969 3.7827908 15.062315 1.6946255 6.02427 2.6433445 10.611865 2.9510989 14.270237.9806403 11.657174-5.2795577-11.767776-8.54946618-31.991131C4.31211155 101.787221 3.04343594 95.2357621.566010954 87.0158176-.503519094 83.4671822.00732101459 81.6118297 2.88059878 78.6093213c6.0456509-6.3175676 19.73666252-9.8352048 18.73219582-4.8128711-.4146818 2.0734117-3.1595769 3.3792257-10.1149719 4.8119446-7.19478768 1.4820314-7.92350853 2.720211-3.92586892 6.6704989 3.14985752 3.1125502 20.34845452 6.3641569 40.25296762 7.6103215 3.7016017.2317463 8.0264494.3787622 30.7114857 1.0439858 30.5382219.8955136 58.7622179 1.1262029 65.9017299.5386462 8.302765-.6832871 9.259385-.6862994 10.422099-.0328178.934222.5250614 1.169664.5577385 2.22152.3083203 1.122937-.2662737 1.987302-.2273751 7.99355.3597261 1.206631.117945 1.672629.0321268 2.849997-.5248567 1.205401-.5702457 1.512759-.623891 2.140514-.3736052 1.440115.5741743 19.136877.3910775 24.918307-.2578101 16.749975-1.8799652 36.554873-6.4484881 43.143681-9.952231.775691-.4124885 5.871901-1.6477249 9.193809-2.2284254 3.233778-.5652961 5.276307-1.0489533 6.602181-1.5633528 2.245209-.871075 2.776671 11.0105718 1.0651 23.8116644-.935359 6.995641-1.143594 8.351545-1.63369 10.637696-.286669 1.337229-.682005 3.179918-.87852 4.094864-2.836664 13.206989-5.279368 39.462581-7.583646 81.513402-1.672939 30.529441-2.477905 41.836506-4.090389 57.456071-.268833 2.604078-.558961 5.828784-.644733 7.166013-.75623 11.79014-2.451317 25.993844-5.383371 45.109082-.909815 5.931462-1.099822 7.744131-.979177 9.34141 1.240632 16.425245-6.340404 28.657194-18.976744 30.618865-1.266849.196656-4.330563.945914-6.808256 1.664972-12.518659 3.633169-26.720835 5.801681-45.40127 6.932196-12.09224.73183-28.511865 1.307081-31.991131 1.12079h0zm-1.109537-3.616354c.939401-.939387-1.835016-1.386572-13.862312-2.234286-2.8856-.203387-6.686146-.541264-8.445659-.750845-9.6129685-1.145026-17.2299672-1.210544-14.4114078-.123946 5.1088915 1.969553 35.3023848 4.52608 36.7193788 3.109077zm-61.4651148-13.20837c0-.661269-4.569237-18.963498-5.7265404-22.937845-2.1352494-7.332726-5.9265336-16.37946-6.8642756-16.37946-.8768462 0 1.2986454 12.449208 3.3989783 19.450608 2.76905 9.230542 9.1918377 23.112389 9.1918377 19.866697zm-7.9000972-1.077026c.8879535-4.10111-.398781-10.540719-4.7772458-23.908252-2.4067721-7.347928-4.2391115-13.911433-4.6083762-16.507423-.236225-1.660673-.4844225-1.974519-1.2762388-1.613735-2.2857433 1.041452-1.9327787 4.696733 1.5751307 16.311868.9110408 3.016584 1.8328231 6.644378 2.0484049 8.061765 1.3820117 9.086402 6.2498436 21.297442 7.0383252 17.655777zm-11.7002212-47.858067c.595012-3.849633-.6520919-11.069212-3.9606044-22.928273-1.2696768-4.551033-2.7071663-10.264956-3.1944194-12.697613-1.1843731-5.913056-3.1883564-9.925322-3.1883564-6.383543 0 1.787756 2.8401624 17.246426 4.2189341 22.963164.3564631 1.47799.9410408 5.048201 1.2990574 7.933801.9500675 7.657499 1.5534561 9.948422 3.0944074 11.748679 1.1571755 1.351894 1.4397468 1.248038 1.7309813-.636215zm56.1981722 25.323258c-.351903-.050827-1.676335-.21736-2.943184-.370099-1.266849-.152712-6.0463239-1.021796-10.6210556-1.931266-9.5079765-1.890241-14.3939768-2.645334-17.1542817-2.651092-3.0562227-.006398-4.0613585-1.349488-2.3160119-3.094822 1.2792639-1.279261 3.7548271-.993875 11.4124239 1.315654 5.247715 1.582691 9.1557439 2.533161 11.5039748 2.797842.9902407.111637 2.9521211.450615 4.3597308.753328 2.0985367.451305 17.0590757 2.31887 18.5756987 2.31887.237223 0 .49155.230336.565171.511858.126631.484244-10.524327.762592-13.382466.349727h0zm24.185295-11.450137c-3.414716-1.607311-4.66045-4.027914-5.377996-10.450044-.969221-8.674638-2.334331-10.60895-8.352272-11.834901-1.423933-.29007-1.638233-4.940173-.356673-7.739474 1.357143-2.9644 4.448504-6.378161 9.458421-10.444874 1.387265-1.126087 3.262926-2.763445 4.168134-3.638569 1.994222-1.927913 2.267803-2.000853 7.37047-1.964588 11.456951.081386 23.154014 9.129936 26.714882 20.665938.939618 3.044071.837472 3.201237-4.193126 6.451741-6.244676 4.035003-7.56647 6.091649-6.789465 10.564035 1.200356 6.909111-1.921533 9.043227-10.129385 6.924365-5.47228-1.412677-7.982473-1.093687-9.762999 1.240718-.755812.990906-1.069497 1.016653-2.749991.225653h0zm17.81615-3.962831c4.078598-2.586573 4.792092-8.506365 1.576244-13.077898-5.333083-7.581309-10.820862-.117446-7.633957 10.382863.965124 3.179892 3.508739 4.311534 6.057713 2.695035zm-13.68003-.764128c4.433214-2.279713 5.177171-10.983937 1.28856-15.076063-2.323826-2.445453-5.735012 1.089848-6.34928 6.580294-.129687 1.159154-.346185 2.585728-.481111 3.170142-1.204586 5.217574 1.220329 7.547885 5.541831 5.325627h0zm-7.750276-17.442818c4.561948-2.503754 8.388497-2.652654 18.458041-.718239 13.337163 2.562131 18.676483-1.303703 12.022441-8.704582-2.724772-3.03061-5.574043-3.358634-15.477484-1.781906-6.608397 1.052124-12.30341 1.140727-14.71592.228979-2.935813-1.109554-4.780701-.723997-7.045604 1.472386-3.87335 3.756142-1.282765 9.408412 4.818279 10.512816.041822.007582.914931-.446743 1.940247-1.009454zm-29.8052152-12.543799c-17.9630891-3.040182-30.2245269-22.994468-23.0400586-37.495405 2.9762859-6.007251 5.8141091-5.682336 3.3676654.385578-7.9330327 19.676291 16.4277093 41.753966 35.5874124 32.252217 18.721965-9.284697 21.122226-31.396278 4.45197-41.012267-.985326-.568372-2.424927-1.406512-3.199113-1.862531-7.004972-4.126165-13.7373675-3.914704-27.2564432.856108-4.3001224 1.51749-4.8126101 1.669192-5.4384922 1.609868-.5623094-.053297-.3550299-.390701 1.2803874-2.084181 15.0273373-15.560857 47.546457-4.42358 49.568479 16.976411 1.770082 18.733627-15.640234 33.705246-35.3218072 30.374202h0zm74.4959832-1.961108c-22.602904-2.280456-36.246819-23.954977-25.647072-40.74254 14.11517-22.355182 46.62823-19.407064 55.971002 5.075168 6.939395 18.184311-9.694053 37.748766-30.32393 35.667372zm10.497319-5.329901c16.256549-3.233485 22.850801-21.107314 12.97799-35.177054-15.00404-21.382252-51.93811-8.947154-47.519592 15.999072 2.641308 14.912387 16.711639 22.724442 34.541602 19.177982zm-26.260734-12.164743c-7.097345-1.407139-8.397759-10.103301-2.412034-16.129805 5.278959-5.314928 12.782773-2.250339 15.227287 6.218883.761471 2.638178.288314 3.005961-3.620375 2.814096-4.507978-.221284-4.866693.189746-2.025668 2.321075 2.252229 1.689618 2.925576 2.549306 2.447711 3.125101-1.171585 1.411674-6.344215 2.299504-9.616921 1.65065h0zm-72.0351203 1.285616c-6.8009049-1.151911-8.0902166-7.298019-2.7227498-12.97927 4.1508723-4.393539 8.8017224-4.816319 12.4709951-1.133664 7.4830326 7.510325 1.5952851 16.034262-9.7482453 14.112934h0zM27.0946686 73.1044871c0-.1909.3857465-.8531164.8572164-1.471592 1.1792648-1.5469631 1.7020741-2.6267482 1.7020741-3.5153723 0-.5683109.1410937-.7872377.5758403-.8934969 12.2365846-2.9908125 24.4955552-4.7444895 34.3584746-4.9150662 60.080242-1.0390642 72.783055-1.4344106 89.703131-2.7917994 4.501029-.3610903 4.585064-.3412379 5.647617 1.3342323 2.744099 4.3270001-1.411689 5.8258178-15.884779 5.7289641-23.119622-.1547117-21.527049-.0808685-27.453603-1.2729783-7.800759-1.569101-10.248157-1.4614061-12.637889.5561108-.806387.6807866-.806387.6807866-3.468297-.2099463-6.6131964-2.2129136-13.183993-2.2554694-27.4605214-.1778451-4.9266342.7169571-10.5171636 1.4179032-12.4234025 1.5576558-6.6405373.4868385-13.8653708 1.8273385-25.051817 4.6481322-7.2183559 1.8201955-8.4640445 2.0296248-8.4640445 1.4230013z" fill="#1b6f95"/><path d="M130.234075 359.582505c-33.4684075-1.847193-50.1042767-4.660314-66.6001195-11.262107-6.730486-2.693576-6.6114534-2.614417-7.3137176-4.863675-3.9932021-12.789594-9.1230618-33.738717-13.2443282-54.086637-2.399148-11.845318-3.2770128-15.782889-7.8264177-35.104636-11.2737805-47.880739-14.6532806-72.42792-9.9714175-72.42792 1.1082721 0 1.4346123.94739 3.4822239 10.109197 8.2516182 36.920895 17.3102089 70.854366 24.6820916 92.459077 2.0875799 6.118061 1.7734603 5.654855 3.7284332 5.497945 2.0739159-.166482 2.0567149-.204231.999449 2.193158-1.8753201 4.252313-.713781 7.153089 4.9022083 12.24252 3.1613277 2.864895 3.1508679 3.194404-.0864196 2.722573-2.5629579-.373554-2.5215716-.415015-1.8822174 1.885429.2871243 1.033083 1.1062354 4.527206 1.8202442 7.764708 4.7681271 21.619965 9.0818598 28.727831 18.6277573 30.693571 28.449505 5.858497 64.150405 6.83909 108.313698 2.975073 15.3334-1.34158 29.401344-7.521806 32.883094-14.445941.76734-1.526002.733746-1.589345-.954768-1.800307-2.646775-.330686-2.611524-.528801.318734-1.791196 4.379772-1.886888 5.741038-3.326873 5.791556-6.126507.022957-1.272402.273783-2.588517.815754-4.280439 1.723275-5.37973 2.128331-10.539388 1.635711-20.835925-.374931-7.836701-.280677-10.991974.432162-14.46703 1.214097-5.918666 1.819835-11.218624 2.982738-26.097724.357548-4.574732.985393-10.851392 1.395217-13.948133.785099-5.932438 1.167388-10.288781 1.403692-15.995566.665943-16.082755 1.153278-21.82479 2.333466-27.494086.320541-1.53978.53393-1.947462 1.620932-3.096808 2.394349-2.531671 2.313389-3.849851-.498358-8.114075-3.332849-5.054511-3.333107-6.867408-.001535-10.509826 1.550697-1.695361 1.641713-4.70503.523526-17.312075-.828965-9.346188-.832878-15.424802-.010058-15.622889.350776-.084449.774198-.427174.940933-.761611.166735-.334441.484369-.709484.705852-.833433.28002-.156706.402694-.603681.402694-1.467249 0-1.149785.056947-1.261746.767788-1.509547.422282-.147207.767787-.448863.767787-.670344 0-.221481.273404-.527265.607565-.67952.730063-.332639 1.317942-1.921382 1.104979-2.986198-.154986-.77493.176179-2.232853 1.058469-4.659803.407707-1.121496.547892-2.369992.68968-6.142297.194393-5.171988.374465-6.821399 1.061734-9.725304.551169-2.328844.565025-17.85977.021345-23.9293654-.339303-3.7879598-7.32837-5.2106796-12.502577-2.5450685-.854028.4399727-21.57541 2.8963157-37.596568 4.4567484-16.162291 1.5741812-36.544362 3.0699995-47.602803 3.4935215-2.463317.09434-4.695205.249251-4.959754.344247-.264549.094996-1.070725.0097-1.791503-.189541-2.407374-.6654691-3.345863-.7833373-5.085462-.6386913-1.647579.1369913-1.727521.1178633-1.727521-.4133715 0-.8460783 2.456876-.7266414-40.18086-1.9533221-38.9250959-1.1198687-62.4837818-2.4340695-82.7930467-4.618534-10.77066803-1.1584935-10.64411521-1.1652808-9.60551521.5152082.71908845 1.1635098 2.04789023 2.3023326 3.61010315 3.0939647 1.54201909.7814 1.46141346 1.0260656-.41529146 1.2605427-1.84605691.2306509-1.82520458.1066379-.89091998 5.2984583 3.3674335 18.712825 8.4379052 22.993111 18.9692547 16.013078 3.4874888-2.311459 19.0906766-5.020015 35.6792425-6.193554 10.3845617-.734644 27.5710366-1.389618 27.2187196-1.037298-.3496349.349632-10.0571542 1.526698-24.2755356 2.94348-12.4276509 1.238346-20.3663396 2.34841-25.9767983 3.632325-1.2668487.289908-3.3018967.616343-4.5223302.72541-14.9168447 1.333081-20.603345 18.08594-6.5093864 19.17714 1.5630943.121021 3.0147392.288654 3.2258807.372522.2111415.083868 1.8998611.431466 3.7527132.772443 4.7681501.877471 5.2614073 1.240595 3.0012109 2.209428-1.3761024.589867-1.3760154.586277-.0357866 1.451373 1.7238434 1.112716.5960946 1.018086-4.0349748-.338578-12.9227037-3.785682-15.6786035-4.063373-12.5073004-1.260264 1.496961 1.323161 1.4204861 1.521334-.38306.992641-.9415604-.276012-1.4408247-.316556-1.6253849-.131995-.2817364.281737.3744746 5.365852 2.2352142 17.317736.6345576 4.075885-1.7652686-1.960504-2.7012567-6.794589-2.9192147-15.076831-7.5362323-29.441873-8.80367868-27.391101-.58957888.953958 1.12266068 9.710432 3.71057318 18.976041 2.6370236 9.441289 3.8275346 15.280528 3.8275346 18.773146 0 5.835423-5.7053257-17.024457-8.42653654-33.763125-.57208895-3.519024-1.66766234-10.256357-2.43460747-14.971849-1.64536682-10.116387-2.82847562-16.1368744-4.37554291-22.2658274C.635029643 86.4571552.699304509 86.6818455.385579363 86.2828931c-1.019908092-1.2969742.07040196-4.8625009 2.248200427-7.3520507 5.27842373-6.0340315 18.83044981-9.8500871 18.83044981-5.3023841 0 2.0056315-2.8744538 3.3794049-10.3651264 4.9537524-7.02195755 1.4758354-7.6402614 2.7081286-3.49699355 6.9695878 1.33602256 1.3741343 1.88334884 1.5807739 8.23168085 3.1078079 12.7472705 3.0662424 25.8359631 4.3995687 49.1383771 5.0056599 5.5600585.1446153 13.9097437.3807431 18.5548559.5247262 23.9829425.7433971 50.9985235.9734671 58.7357165.5002082 9.851825-.6026054 11.694905-.6212038 12.786343-.1290343.887078.4000171 1.165447.4181215 2.157615.140331.626524-.1754163 1.28124-.2311116 1.454921-.1237698.173683.1073417 1.363254.290482 2.643491.4069783 1.280239.1164989 2.870265.2826685 3.533392.3692698 1.243547.1623998 3.204616-.3652491 4.069049-1.0948261.32577-.2749496.566993-.2860595 1.151681-.0530387 1.446992.5766773 19.125524.3955947 24.924892-.2553071 16.749975-1.8799652 36.554873-6.4484881 43.143681-9.952231.771969-.4105102 5.850823-1.6427062 9.193809-2.2305368 3.819556-.6716295 4.860254-.9146495 6.221545-1.452835 1.009338-.399042 1.433211-.4629193 1.647799-.2483305.710626.7106203.847701 15.2455526.187427 19.873364-.140581.9853265-.487603 3.6917765-.77116 6.0143325-.283556 2.322556-1.029139 6.756527-1.656851 9.853268-.949546 4.68448-2.365184 13.052607-2.83586 16.763353-2.086567 16.450249-3.544743 34.444748-5.091443 62.830581-1.895318 34.783834-2.582403 44.6234-4.342714 62.190759-.338512 3.378263-.689429 7.351561-.779813 8.829552-.634118 10.36917-2.388737 24.904046-5.258825 43.562911-.852438 5.541837-1.012309 7.2075-1.012309 10.547041 0 17.744636-6.393794 27.507433-19.204962 29.324376-1.048024.148643-2.985658.616251-4.305853 1.039149-13.744892 4.402875-33.811976 7.178784-58.130551 8.041265-2.322556.082358-5.547262.256517-7.166014.387016-4.271363.344301-10.905047.461926-14.587955.258667zm-.855154-3.344762c2.594028-.986248-1.550707-1.753524-13.743651-2.544242-2.187763-.141862-5.953959-.483834-8.369325-.75993-10.5962253-1.211159-17.2033663-1.235191-14.9972272-.054488 3.6574973 1.957423 33.6549332 4.672343 37.1102032 3.35866h0zM68.2992452 343.19716c0-4.481113-8.6462353-32.852256-11.6787206-38.321741-3.3548639-6.05093-.1727649 12.735951 4.0856385 24.121313 3.2915802 8.800453 7.5930821 16.845019 7.5930821 14.200428zm-7.90324-2.668547c.1194805-6.06278-.5933817-9.38822-4.7762784-22.280901-2.9314036-9.035268-3.7072807-11.76017-4.4718636-15.705291-.6716525-3.465612-1.0087238-3.839345-2.2607262-2.506646-1.6913736 1.800384-1.3624894 4.640378 1.7434092 15.054694 1.8329024 6.145905 2.3864334 8.42956 2.6883094 11.091043.5065092 4.465604 4.0772056 14.23503 5.9694606 16.332445.6369587.706006 1.0699421-.070048 1.107689-1.985344h0zm-11.958643-45.335451c1.0637588-2.772121-.335546-11.743483-3.7237728-23.87429-2.2548577-8.073-3.0524222-11.293611-3.6497708-14.737981-.647933-3.736032-2.5615631-7.186339-3.0799193-5.553141-.2846366.896814 3.0698587 19.774555 4.3272202 24.351846.2126668.774186.6838782 3.768556 1.0471414 6.654156 1.2691086 10.081224 3.7719437 16.565826 5.0791013 13.15941h0zm57.2275238 23.773659c-2.59651-.196656-8.7047687-1.219399-14.9718492-2.506825-7.9480019-1.632725-10.856244-2.100358-15.6116718-2.510203-3.5830067-.308804-3.5830067-.308804-3.6582626-1.076591-.2560238-2.611987 2.4575305-2.618231 11.2089296-.025747 6.650585 1.970142 8.5709767 2.443457 10.6202953 2.617566.9853268.083714 2.6552639.37166 3.7109712.639874 2.0568429.52253 6.9819335 1.222317 13.1803455 1.872735 5.349928.56138 6.01192.675627 5.37451.927563-.494716.19553-7.506271.239371-9.853268.061628h0zm23.161579-11.635635c-3.242486-1.674876-4.332372-3.987144-5.11023-10.841743-.596563-5.256987-1.098225-6.909163-2.603963-8.575824-1.130505-1.251339-2.974691-2.245803-4.570332-2.464494-5.713565-.783143-2.045096-9.456655 7.293908-17.245293 1.759513-1.46742 3.962133-3.380746 4.89471-4.251852 1.989487-1.858352 2.592026-2.028135 7.005991-1.974339 10.999544.134056 22.521449 9.067822 26.21827 20.328905.991963 3.021678 1.043433 2.945846-4.391461 6.469938-6.10489 3.958557-7.445585 6.431983-6.323188 11.665527 1.130416 5.270961-2.78135 7.542536-9.489288 5.510485-4.758387-1.441443-8.687187-.988884-10.295092 1.185924-.646653.874638-1.226862.917173-2.629325.192766h0zm16.943788-2.909069c7.147696-2.986512 4.77476-18.288485-2.620908-16.901068-4.292261.80523-5.020279 13.746461-.924296 16.430261 1.328919.870722 2.284361.997612 3.545204.470807zm-12.98624-1.18705c4.775767-2.051092 5.635983-11.832188 1.370014-15.577761-2.055279-1.804556-5.422832 1.094941-6.089314 5.242963-.068776.428041-.357398 2.178826-.641382 3.890607-1.1274 6.795735.364958 8.589721 5.360682 6.444191h0zm-7.336554-17.599959c4.367281-2.381778 8.213457-2.546289 17.502796-.748592 9.286759 1.797185 15.68951 1.03252 15.482799-1.849062-.212813-2.966678-1.492609-6.052901-3.092537-7.457644-3.069022-2.694652-5.641298-2.810076-18.452287-.828059-5.146866.796272-10.390722.464281-12.863432-.814392-1.542919-.797884-5.293296 1.043346-6.664597 3.271951-3.122488 5.074587 2.840536 11.287239 8.087258 8.425798h0zm-29.1022931-12.82486c-19.1922242-3.017711-32.1365575-25.11246-22.6892183-38.728343 2.797174-4.031399 3.8753826-3.076323 1.9864957 1.759635-8.0199487 20.532816 16.5630369 42.207345 36.4255777 32.116012 18.881572-9.592938 20.228732-31.878031 2.515678-41.615095-1.175181-.646011-2.712534-1.506158-3.416338-1.911442-5.895984-3.39517-13.3785224-2.820451-27.0846055 2.080319-4.6580673 1.665548-4.7676433 1.606892-2.027324-1.085226 9.9746759-9.799224 29.8353155-8.396103 41.0472595 2.899922 18.21393 18.350522-.033194 48.686266-26.7575251 44.484218zm74.3256981-2.07236c-21.447074-1.821268-35.6106-21.507297-27.318637-37.970478 12.903863-25.619821 49.59896-21.634048 57.589057 6.255246 4.506583 15.730144-12.213781 33.24858-30.27042 31.715232zm3.892568-4.363616c22.088095.633527 31.647557-24.159756 15.424629-40.005088-11.605748-11.33562-34.70804-7.898267-42.074047 6.260127-7.922473 15.227995 4.549379 34.998143 21.34924 33.842419 1.40761-.096844 3.79269-.140684 5.300178-.097458zm-21.222537-13.119934c-5.494871-1.717279-6.928135-7.819523-3.19369-13.597433 4.809751-7.441624 13.312241-5.710752 16.427602 3.344202 1.100264 3.197974.757388 3.588637-2.929134 3.337363-4.636572-.316031-5.5173.367012-2.89206 2.242916 3.094131 2.210958 3.646869 3.164719 2.252069 3.885999-2.084261 1.077811-7.359657 1.50736-9.664787.786953h0zm-69.5579424 1.662316c-6.8705407-.672428-9.2541129-4.284662-6.5080326-9.862746 3.1608773-6.42065 10.3071099-8.508499 14.5366138-4.247027 6.9076248 6.959839 2.2659548 15.117309-8.0285812 14.109773zM27.2380503 73.2205919c-.0785165-.1270406.3711355-.9146136.9992263-1.7501606 1.2228393-1.6267362 1.6726115-2.567127 1.6726115-3.4971245 0-.5554556.2978656-.6433033 6.4622085-1.9058627 17.4001373-3.5638273 14.914104-3.3824811 56.4963371-4.1211793 31.7143663-.5633946 48.4530063-1.1950019 62.1833773-2.3463959 3.735489-.313247 4.719961.1371447 5.350179 2.44769 1.034391 3.7923362-1.975289 4.3758979-22.234115 4.3110864-17.223976-.0550989-14.482605.1516559-25.081047-1.8916279-4.435905-.8552022-7.525122-.4189968-9.061165 1.2794559-.618962.684408-.860766.6766226-3.004696-.0967361-3.8358062-1.3836522-6.540124-1.7673615-12.3753625-1.7559113-5.5907906.0109794-6.2756848.080459-18.2989269 1.8565708-2.8856.4262703-6.8013144.8965885-8.7015876 1.0451502-8.2463871.6447058-16.7958479 2.2668122-29.6588649 5.6272399-4.2154201 1.1012678-4.52815 1.1538152-4.7481748.7978051z" fill="#0c0e0e"/></svg>