<svg width="256px" height="256px" viewBox="0 0 256 256" xmlns="http://www.w3.org/2000/svg" preserveAspectRatio="xMidYMid"><path d="M251.172245 116.593517 139.398753 4.82845302c-6.43232-6.43793736-16.872901-6.43793736-23.313647 0L92.8753863 28.0381721l29.4426087 29.4426088c6.842415-2.3117025 14.687598-.7612046 20.14243 4.6936272 5.480111 5.4885383 7.019374 13.4011341 4.651494 20.2660201l28.375237 28.3752368c6.864886-2.365071 14.785908-.834235 20.268829 4.657112 7.662606 7.659797 7.662606 20.075017 0 27.740432-7.665415 7.665415-20.080635 7.665415-27.748859 0-5.763807-5.769426-7.187906-14.23537-4.269487-21.336201l-26.462394-26.4623945-.002809 69.6375845c1.867901.926928 3.631873 2.160023 5.187989 3.710521 7.662606 7.659797 7.662606 20.075017 0 27.746049-7.665415 7.662607-20.086252 7.662607-27.740432 0-7.662606-7.671032-7.662606-20.086252 0-27.746049 1.893181-1.890372 4.084102-3.320088 6.421084-4.280723V94.1955625c-2.336982-.9550168-4.525094-2.3763067-6.421084-4.2807229-5.805941-5.7975142-7.201951-14.3168264-4.227354-21.4457468L81.4713611 39.4421974 4.83125614 116.076685c-6.44074623 6.443555-6.44074623 16.884136 0 23.322074L116.604747 251.166631c6.435129 6.437938 16.872901 6.437938 23.316456 0L251.172245 139.9184c6.437935-6.440746 6.437935-16.886945 0-23.324883" fill="#de4c36"/></svg>