<svg width="256px" height="256px" viewBox="0 0 256 256" xmlns="http://www.w3.org/2000/svg" preserveAspectRatio="xMidYMid"><title>GitHub Actions</title><path d="M53.6039685 0C83.20802 0 107.207937 23.9920988 107.207937 53.5905987c0 29.0900763-23.1889852 52.7496383-52.092978 53.5521233 0 2.461507.1087068 7.111647 1.5014937 9.919428 1.9324918 3.89425 13.524111 11.144884 24.8918175 11.144884h0 4.083981c2.5665763-18.271188 18.2565038-32.3320787 37.2396388-32.3320787 18.906166 0 34.550278 13.9463807 37.211234 32.1094717h0 21.129126c2.661873-18.163091 18.305068-32.1094717 37.211234-32.1094717 20.774516 0 37.616241 16.8366087 37.616241 37.6068587 0 20.769335-16.841725 37.605943-37.616241 37.605943-18.906166 0-34.550278-13.947296-37.211234-32.110387h0-21.12821c-2.660956 18.163091-18.305068 32.110387-37.21215 32.110387-18.870429 0-34.4934663-13.893248-37.198405-32.00687h0l-4.5155616.134663c-7.4349163-.05588-15.2894511-2.041257-21.5982258-6.327588-1.7199086-1.168917-3.4142106-2.397082-5.1817671-3.560502h0l-5.131e-4 2.441824c-.0096407.789433-.1520355 12.656896-.1634803 25.833187l-3.837e-4 2.789917c.005344 8.641042.0736627 17.544706.2770829 24.038971.4462416 14.246854 12.0347781 25.745473 24.8227608 28.436912 1.6621811.349026 4.5201431.393914 6.3206867.23818 2.5711579-18.264775 18.2592522-32.320169 37.2378062-32.320169 20.774516 0 37.616241 16.837525 37.616241 37.606859C160.448131 239.162475 143.606406 256 122.83189 256c-18.768719 0-34.3230331-13.743927-37.1525896-31.713725h0-3.2538067c-24.4360792-1.333811-39.6284518-23.74659-39.363639-41.923422.3344521-22.877231.0824676-45.763623.0788024-68.646351h0v-7.564061C18.5460568 101.286232 7.10542736e-14 79.6063152 7.10542736e-14 53.5905987 7.10542736e-14 23.9920988 23.9990007 0 53.6039685 0zM122.83189 191.779225c-14.701232 0-26.6196389 11.915435-26.6196389 26.613916 0 14.698481 11.9184069 26.613916 26.6196389 26.613916 14.702148 0 26.620556-11.915435 26.620556-26.613916 0-14.698481-11.918408-26.613916-26.620556-26.613916zm0-84.911326c-14.701232 0-26.6196389 11.915434-26.6196389 26.613915 0 14.697566 11.9184069 26.613 26.6196389 26.613 14.702148 0 26.620556-11.915434 26.620556-26.613 0-14.698481-11.918408-26.613915-26.620556-26.613915zm95.551594 0c-14.702148 0-26.619639 11.915434-26.619639 26.613915 0 14.697566 11.917491 26.613 26.619639 26.613 14.702148 0 26.620555-11.915434 26.620555-26.613 0-14.698481-11.918407-26.613915-26.620555-26.613915zm15.160577 15.408533c2.094678 2.089576 2.152405 5.447004.170433 7.605285l-.160354.168559-16.309351 16.344674c-2.078185 2.083163-5.414459 2.152785-7.576944.197873l-.172266-.163062-7.9847-7.859954c-2.163401-2.129883-2.190891-5.610066-.060476-7.772927 2.076352-2.107897 5.433701-2.187596 7.606265-.219859l.168601.160313 4.092227 4.027082 12.451698-12.477907c2.144159-2.150036 5.62521-2.153701 7.774867-.010077zm-95.989864-.080523c2.094678 2.089575 2.152406 5.447004.170433 7.606201l-.160353.167642-16.309351 16.344675c-2.078185 2.083163-5.414459 2.152785-7.576944.197873l-.172266-.163062-7.984701-7.859955c-2.163401-2.129882-2.19089-5.610065-.060476-7.772927 2.075436-2.107897 5.433702-2.187595 7.606266-.218942l.1686.159397 4.092228 4.027082 12.451698-12.477907c2.144159-2.14912 5.62521-2.153701 7.774866-.010077zM53.6039685 10.9929433c-23.531684 0-42.6082827 19.0709246-42.6082827 42.5976554 0 23.5258149 19.0765987 42.5976555 42.6082827 42.5976555 23.531684 0 42.6082826-19.0718406 42.6082826-42.5976555 0-23.5267308-19.0765986-42.5976554-42.6082826-42.5976554zm-4.4333689 17.137449c8.9642329 5.3856262 17.8075132 10.9563002 26.5307573 16.7111061 7.3075495 4.8204056 7.2892234 13.5625438-.0998775 18.3939424-8.8790163 5.8097705-17.8991439 11.3804446-27.0585502 16.7120221-7.455075 4.3394644-15.7998843-.6504158-16.0023882-9.3440018-.1301156-5.6027368-.0238239-11.2109701-.0311544-16.8173712-.0064141-5.454332-.1136221-10.9114123.0183261-16.3629961.2226627-9.2478136 8.7360724-14.0663871 16.6428869-9.2927015zm-5.9092649 8.8713053v3.8686c-9.163e-4 1.9155204-9.163e-4 3.8053905-.0018326 5.6741909l-9.163e-4 3.7101184v5.4808983c9.163e-4 4.230451.0027489 8.3940283.0100794 12.5576056.0036652 1.9594922 1.0235151 1.8797933 2.3429974 1.0626512 7.6053494-4.7141405 15.214364-9.4227846 22.8270438-14.1268483 1.2580897-.7759186 1.2938257-1.5866481.05956-2.3653149-8.1533011-5.138285-16.3175978-10.2591644-25.2369317-15.8619012z" fill="#4a7ebf"/><g style="fill:#85b3df"><path d="M133.22712 223.879078c3.035726 0 5.497843-2.460588 5.497843-5.496472 0-3.034968-2.462117-5.496472-5.497843-5.496472-3.035726 0-5.497843 2.461504-5.497843 5.496472 0 3.035884 2.462117 5.496472 5.497843 5.496472"/><path d="M112.178903 223.879078c3.035726 0 5.497843-2.460588 5.497843-5.496472 0-3.034968-2.462117-5.496472-5.497843-5.496472-3.035725 0-5.497843 2.461504-5.497843 5.496472 0 3.035884 2.462118 5.496472 5.497843 5.496472"/><path d="M218.383759 245.007057c-14.702149 0-26.619639-11.915435-26.619639-26.613916 0-14.698481 11.91749-26.613916 26.619639-26.613916 14.701232 0 26.620555 11.915435 26.620555 26.613916 0 14.698481-11.919323 26.613916-26.620555 26.613916m0-64.220775c-18.906166 0-34.550278 13.947297-37.211234 32.110387h-6.152086c-2.685696 0-4.864675 2.461503-4.864675 5.496472 0 3.035884 2.178979 5.496472 4.864675 5.496472h6.152086C183.833481 242.052703 199.477593 256 218.383759 256 239.158275 256 256 239.162475 256 218.393141c0-20.769334-16.841725-37.606859-37.616241-37.606859"/></g></svg>