<svg width="256px" height="236px" viewBox="0 0 256 236" xmlns="http://www.w3.org/2000/svg" preserveAspectRatio="xMidYMid"><path d="M128.07485 236.074667h0l47.104-144.9703622H80.9708495L128.07485 236.074667h0z" fill="#e24329"/><path d="M128.07485 236.074423 80.9708495 91.104061H14.9557638L128.07485 236.074423h0z" fill="#fc6d26"/><path d="M14.9558857 91.1044267h0L.641828571 135.159589c-1.3056 4.017981.124342858 8.419961 3.542552379 10.903161L128.074971 236.074789 14.9558857 91.1044267h0z" fill="#fca326"/><path d="M14.9558857 91.1045486h66.0150857L52.6000762 3.79026286c-1.4592-4.493409527-7.8153143-4.492190479-9.2745143 0L14.9558857 91.1045486h0z" fill="#e24329"/><path d="M128.07485 236.074423l47.104-144.970362h66.015085L128.07485 236.074423h0z" fill="#fc6d26"/><path d="M241.193935 91.1044267h0l14.314057 44.0551623c1.3056 4.017981-.124342 8.419961-3.542552 10.903161l-123.89059 90.012039L241.193935 91.1044267h0z" fill="#fca326"/><path d="M241.193935 91.1045486H175.17885l28.370895-87.31428574c1.4592-4.493409527 7.815314-4.492190479 9.274514 0l28.369676 87.31428574h0z" fill="#e24329"/></svg>