<svg width="256px" height="256px" viewBox="0 0 256 256" xmlns="http://www.w3.org/2000/svg" preserveAspectRatio="xMidYMid"><defs><filter x="-50%" y="-50%" width="200%" height="200%" filterUnits="objectBoundingBox" id="c"><feMorphology radius="1" in="SourceAlpha" operator="dilate" result="shadowSpreadOuter1"/><feOffset dx="1" dy="1" in="shadowSpreadOuter1" result="shadowOffsetOuter1"/><feGaussianBlur stdDeviation="1.5" in="shadowOffsetOuter1" result="shadowBlurOuter1"/><feColorMatrix values="0 0 0 0 0   0 0 0 0 0   0 0 0 0 0  0 0 0 0.14 0" in="shadowBlurOuter1" result="shadowMatrixOuter1"/><feMerge><feMergeNode in="shadowMatrixOuter1"/><feMergeNode in="SourceGraphic"/></feMerge></filter><filter x="-50%" y="-50%" width="200%" height="200%" filterUnits="objectBoundingBox" id="a"><feMorphology radius="1" in="SourceAlpha" operator="dilate" result="shadowSpreadOuter1"/><feOffset in="shadowSpreadOuter1" result="shadowOffsetOuter1"/><feGaussianBlur stdDeviation="2" in="shadowOffsetOuter1" result="shadowBlurOuter1"/><feColorMatrix values="0 0 0 0 0   0 0 0 0 0   0 0 0 0 0  0 0 0 0.17 0" in="shadowBlurOuter1" result="shadowMatrixOuter1"/><feMerge><feMergeNode in="shadowMatrixOuter1"/><feMergeNode in="SourceGraphic"/></feMerge></filter><clipPath id="b"><path d="M19.9202025 28.0114768 194.68611.33107173c12.727088-2.01559494 24.678616 6.66761181 26.694211 19.39470047l27.680135 174.7656368c2.015865 12.727089-6.667342 24.678616-19.394431 26.694211L54.9001181 248.866025c-12.7268185 2.015595-24.6783459-6.667611-26.6942109-19.3947L.525772152 54.7056878C-1.49009283 41.9785992 7.19311392 30.0270717 19.9202025 28.0114768h0z"/></clipPath></defs><g transform="translate(-1 -1)"><g transform="translate(3.240506 3.240506)"><path d="M19.9202025 28.0114768 194.68611.33107173c12.727088-2.01559494 24.678616 6.66761181 26.694211 19.39470047l27.680135 174.7656368c2.015865 12.727089-6.667342 24.678616-19.394431 26.694211L54.9001181 248.866025c-12.7268185 2.015595-24.6783459-6.667611-26.6942109-19.3947L.525772152 54.7056878C-1.49009283 41.9785992 7.19311392 30.0270717 19.9202025 28.0114768h0z" fill="#f5f5f5" filter="url(#c)"/><g clip-path="url(#b)"><circle fill="#fbfbfb" filter="url(#a)" cx="129.582177" cy="128.848203" r="116.67092"/><circle fill="#fcfcfc" filter="url(#a)" cx="129.582177" cy="128.848203" r="72.9240844"/><circle fill="#fff" filter="url(#a)" cx="129.582447" cy="128.847932" r="29.1688776"/></g></g><path d="M23.2029531 31.5187006 197.96886 3.83829554c12.579854-1.99227731 24.392994 6.59051256 26.385249 19.17022326l27.680135 174.7656402c1.992538 12.579811-6.590196 24.392988-19.169953 26.385249L58.0983803 251.839814c-12.5795853 1.992277-24.3927274-6.590514-26.3852496-19.170229L4.03299601 57.9039502C2.0404587 45.32414 10.6231927 33.5109631 23.2029491 31.5187012l4e-6-6e-7zm-.0844845-.5334356C10.2440979 33.0241851 1.46036036 45.1140209 3.49956125 57.9884399L31.179696 232.754075c2.0391852 12.87432 14.1289763 21.65811 27.0031696 19.619175l174.7659104-27.680406c12.874367-2.038919 21.658104-14.128755 19.618903-27.003174L224.887545 22.9240346c-2.038912-12.8743185-14.128705-21.65810946-27.003169-19.61917464L23.1184646 30.9852656l4e-6-6e-7z" fill-opacity="0.2"/></g></svg>