<svg width="256px" height="228px" viewBox="0 0 256 228" xmlns="http://www.w3.org/2000/svg" preserveAspectRatio="xMidYMid"><title>glamorous</title><g style="fill:#da233c"><path d="M80.2809503 4.73976128 165.981587 90.4403976l-47.753589 47.7535884L.975883838 20.9418716z"/><path d="M36.7910751 2.18153333C14.6197662 6.01887525-1.58234411 13.6935591.123141188 19.6627577 2.25499781 25.6319562 21.8680788 27.3374415 44.465759 23.5000996c22.1713089-4.2637133 38.7997905-11.9383971 36.6679339-17.90759567-2.1318566-5.969198549-22.1713089-7.24831252-44.3426178-3.4109706"/></g><path d="M37.6438178 2.18153333C16.7516229 5.59250393 1.40225516 13.2671878 3.53411179 18.810015c2.13185662 5.5428272 20.46582361 6.8219412 41.35801851 3.4109706 20.8921949-3.4109706 36.2415626-11.0856544 34.109706-16.20211035C76.8699797.0496767056 58.5360127-1.65580859 37.6438178 2.18153333" fill="#ff8080"/><path fill="#e8e8e8" transform="translate(126.772096 98.29872)rotate(-45)translate(-126.772096 -98.29872)" d="M87.9726773 47.5610185h77.5988367V149.036421H87.9726773z"/><path fill="#555b61" transform="translate(218.467641 190.398507)rotate(-45.008103)translate(-218.467641 -190.398507)" d="M177.962753 177.820674h81.009776v25.155667h-81.009776z"/><path fill="#b2c1c0" transform="translate(148.104754 120.08299)rotate(-45.016206)translate(-148.104754 -120.08299)" d="M107.599865 108.35789h81.009778v23.450199h-81.009778z"/><path fill="#3e4347" transform="translate(184.655926 156.527825)rotate(-45)translate(-184.655926 -156.527825)" d="M139.887366 104.511022h89.53712v104.033606h-89.53712z"/></svg>