<svg width="256" height="228" xmlns="http://www.w3.org/2000/svg" preserveAspectRatio="xMidYMid"><path fill="#DA233C" d="M80.281 4.74l85.7 85.7-47.753 47.754L.976 20.942z"/><path d="M36.791 2.182C14.62 6.019-1.582 13.694.123 19.662c2.132 5.97 21.745 7.675 44.343 3.838 22.171-4.264 38.8-11.938 36.668-17.907-2.132-5.97-22.172-7.249-44.343-3.411" fill="#DA233C"/><path d="M37.644 2.182C16.752 5.592 1.402 13.267 3.534 18.81 5.666 24.353 24 25.632 44.892 22.221c20.892-3.411 36.242-11.086 34.11-16.202C76.87.049 58.536-1.656 37.644 2.182" fill="#FF8080"/><path fill="#E8E8E8" d="M63.46 89.857l54.87-54.87 71.754 71.753-54.87 54.871z"/><path fill="#555B61" d="M180.935 210.151l57.275-57.29L256 170.646l-57.274 57.29z"/><path fill="#B2C1C0" d="M111.178 140.444l57.267-57.299 16.586 16.577-57.266 57.299z"/><path fill="#3E4347" d="M116.218 151.403l63.313-63.313 73.563 73.563-63.313 63.312z"/></svg>