<svg width="256px" height="256px" viewBox="0 0 256 256" xmlns="http://www.w3.org/2000/svg" preserveAspectRatio="xMidYMid"><path d="M256 74.981v106.038l-3.417.333-123.367-51.822L128 128l128-53.019" fill="#f36a22"/><path d="M256 181.019 181.019 256l-1.145-.881-52.309-123.609L128 128l128 53.019" fill="#f3852f"/><path d="M128 128l-2.828 1.943-50.636 123.898.445 2.159h106.038L128 128" fill="#f2c32e"/><path d="M0 181.019l3.174-2.468 121.998-51.002L128 128 74.981 256 0 181.019" fill="#cbdc38"/><path d="M0 74.981l3.174-.215 123.071 50.473L128 128 0 181.019V74.981" fill="#b5d66d"/><path d="M74.981 0 0 74.981 128 128l.225-3.256L80.496 3.026 74.981 0" fill="#69c5e5"/><path d="M74.981 0h106.038L128 128 74.981 0" fill="#6d9fd5"/></svg>