<svg width="512px" height="133px" viewBox="0 0 512 133" xmlns="http://www.w3.org/2000/svg" preserveAspectRatio="xMidYMid"><path d="M169.19055 104.133614c0 21.254487 17.980881 25.787634 17.980881 25.787634h41.100725v-25.787634H169.19055" fill="#6bbfa4"/><path d="M247.309973 3.23967251h25.355477V130.468179h-25.355477V3.23967251z" fill="#73be88"/><path d="M385.422222 130.468179l-64.522978-84.9710406-.090823 84.9710406h-25.354479V3.23967251h23.718674l64.614799 84.97004289V3.23967251h25.445302V130.468179h-23.810495" fill="#a3cc69"/><path d="M486.734347 28.9354854c0-21.25448735-17.980881-25.78763355-17.980881-25.78763355h-41.099727V28.9354854h59.080608" fill="#ece23c"/><path d="M169.19055 104.133614l-.021957.679673V3.14385965h-25.012149V107.266495c0 12.514558 8.992437 22.657747 25.012149 22.657747l15.813115-.002994h2.189723c0 0-17.980881-4.533147-17.980881-25.787634h0zm317.543797-75.1981286.022955-.6796725V129.924242h25.01115V25.8026043c0-12.5145575-8.992436-22.65874465-25.01115-22.65874465l-15.814113.0039922h-2.189723c0 0 17.980881 4.5331462 17.980881 25.78763355h0zm-371.319766-8.5203587-18.2663237 17.9020351c-7.2698012-8.3596725-17.6305653-13.3579103-30.7170058-13.3579103-23.2645614 0-40.1675478 17.0846315-40.1675478 41.8941754 0 25.9004133 17.6305653 42.2584641 39.7134347 42.2584641 20.8113528 0 32.806924-9.9056532 36.1693566-28.0811542H69.7946823V59.8560936h58.5246937c.272468 2.4532085.363291 4.7257699.363291 7.1789785 0 38.5327409-26.081061 65.7056689-62.1605929 65.7056689C31.2619415 132.740741 0 107.930199 0 66.8534269 0 28.4125068 28.081154.876288499 67.1588304.876288499c20.3562417 0 36.8959376 7.178978561 48.2557506 19.538838201h0z" fill="#72736d"/></svg>