<svg width="256px" height="200px" viewBox="0 0 256 200" xmlns="http://www.w3.org/2000/svg"><title>Group</title><defs><linearGradient x1="48.6792116%" y1="-2.76243093e-06%" x2="48.6792116%" y2="99.3922613%" id="a"><stop stop-color="#e459ff"/><stop stop-color="#914dff" offset="1"/></linearGradient><linearGradient x1="23.626192%" y1="46.6452578%" x2="65.8107837%" y2="51.3879731%" id="b"><stop stop-color="#f0a5ff"/><stop stop-color="#ff676b" offset="1"/></linearGradient><linearGradient x1="50.0000024%" y1="-2.19178973%" x2="50.0000024%" y2="103.082188%" id="c"><stop stop-color="#6e3bff"/><stop stop-color="#3633ff" offset="1"/></linearGradient><linearGradient x1="40.569621%" y1="47.6721552%" x2="57.9619703%" y2="52.1491478%" id="d"><stop stop-color="#f0a5ff"/><stop stop-color="#ff676b" offset="1"/></linearGradient></defs><g fill="none" fill-rule="evenodd"><path d="M77.6314833 16.5452756C53.4794163 11.694685-3.30719785 36.4197835.151168296 64.1633858h0C8.7426053 66.717815 16.2242982 69.8412402 15.001562 73.0413386h0 236.327067c1.420472-9.4630906-6.004724-16.7187992-.98061-24.6161417h0c1.585925-2.4938977 2.792519-5.338878 3.631889-8.1757875h0V24.8945866c-.125098-.1129921-.262303-.2098425-.407578-.2824803h0c-58.683268 18.990748-30.18504 14.9754921-92.814961.0080709h0C149.889948 10.9804134 113.817212 1.10167323 97.001562 0h0c-6.4566929 0-19.3700787 16.5452756-19.3700787 16.5452756" fill="url(#a)"/><path d="M155.515342 64.9704724v7.2637796H15.1306959c.1291338 2.1468504-3.4180119 4.3501968-12.96181107 6.4566929h0C10.6432943 89.1830709 35.6589439 99.2676181 44.5409321 100.482283h0c-1.5899607.330906-3.3534449.920079-5.2299213 1.72313h0c28.401378 3.575394 61.9802162 4.786024 78.6788382 5.137107h0 55.095768c-.593209-.13317-1.202559-.266339-1.832086-.403544h0c-12.255611-2.308267-7.356595-.641633-13.31693-4.035433h0c78.900788-18.9947832 33.187402-16.1861217 95.635729-2.42126h0c2.021752-3.6318893-7.663288-12.5098421-3.224311-23.8050192h0c1.686811-4.2977362 1.275197-8.1233268.427756-11.7067914h0-95.260433z" fill="url(#b)"/><path d="M100.633452 93.6220472v7.2637798c-13.1918309-.27441-35.9960632-.427756-57.5291341-.048425h0C28.8794163 104.864764 3.7507746 126.333268.151168296 138.960138h0v5.141142c.112992126.266338.246161417.524606.403543307.770767h0c7.505905507 2.231595 14.164370097 4.894981 14.914960597 7.667323h0H121.21416v-7.263779h129.65443c-1.355906-6.012796-4.104036-11.315355-.520571-16.948819h0c3.68435-7.933662 5.411515-13.377461 5.649606-16.964961h0v-1.593996c-1.033071-13.3411418-29.971161 7.897342-46.003937 8.066831h0c-18.159449-3.232382-14.527559-5.649607-38.740157-10.89567h0c-12.255611-2.308267-7.356595-.641633-13.31693-4.035433h0c14.999705-3.6117123 25.495867-6.43248 33.090552-8.5430115h0v-.7384843h-90.393701z" fill="url(#c)"/><path d="M90.9484124 36.3188976h.4035433c9.6729333 17.1304134 3.5108268 30.2818898-1.6141732 47.214567h0c-1.4446851 3.4260826 3.7690945 6.0773622 5.246063 2.4212598h0c4.1121063-15.7301181 10.6252955-33.0219488 2.8248031-48.8287401h0 .8070866c37.3398618.2865157 75.1276578 7.0660433 108.9566928 23.4055118h0c2.247736.5084645 9.479232 6.0692913 10.895669 1.6141732h0c-16.295078-19.2732284-79.703838-30.2496063-106.535433-29.4626969h0c-1.16624.2219489-3.958759-.1331693-7.150787-.4842519h0c-2.501969-.2784449-5.2541339-.5528544-7.6713583-.5528544h0c-4.491437 0-7.808563.9604331-6.1621063 4.6730315h0z" fill="#974dff"/><path d="M90.9484124 36.3188976h.4035433c5.8312008 11.0328741 7.3283465 24.5192914 1.6141732 35.9153544h0 5.6496063c2.9377958-11.4485237 3.9224408-23.7162402-1.2106299-34.7047244h0c37.7837597.1129921 76.1163387 6.299311 110.1673227 23.4055118h0c2.239665.3954724 9.898917 6.4687992 10.895669 1.6141732h0c-17.126378-19.6364173-78.941141-30.6491142-106.535433-29.8662402h0c-1.331693.2542323-4.1-.1170275-7.207283-.4923228h0c-2.397047-.2865157-4.9999017-.5770669-7.2960631-.5770669h0c-4.221063 0-7.4251968.9725393-6.4809055 4.7053149h0z" fill="#f1a5ff"/><path d="M76.4208533 38.3366142h.4035433c7.8368111 10.6656496 7.4897638 23.5588582 2.4212599 35.1082677h0c-1.6989173 2.8086614 2.5221457 5.6173228 4.0354331 2.4212598h0c2.832874-5.9764763 4.7860236-12.7317913 4.8425196-19.3700787h0c.0564961-7.4695866-3.3534448-15.1732284-7.2637795-21.3877953h0c-.5125-.9241142-1.2550197-1.3034449-2.0177165-1.3034449h0c-1.9531496 0-3.9991142 2.4938977-2.4212599 4.5317914h0z" fill="#974dff"/><g style="fill:#f1a5ff"><path d="M84.8952628 72.2346555c2.3405512-9.765748 4.0757874-20.1489173-1.2106299-29.4586614-.7384843-1.5294291-2.9176181-5.9441929-2.8248032-7.6673228-1.6827756-3.1153544-6.1621063-.0161418-4.4389764 2.8248031h.4035433c7.175 10.2459646 8.0708662 23.0140748 2.8248032 34.3011811h5.246063z"/><path d="M76.4208533 37.9330709h.4035433c7.1709646 10.2459645 8.0708662 23.0181102 2.8248032 34.3011811h0 5.246063c2.3405512-9.7657481 4.0757874-20.1489174-1.2106299-29.4586614h0c-.7384843-1.5294292-2.9216536-5.944193-2.8248032-7.6673229h0c-.5003937-.9241142-1.2429134-1.2994094-1.9975394-1.2994094h0c-1.7957677 0-3.6520669 2.1266732-2.441437 4.1242126h0z"/></g><path d="M120.810617 145.275591v7.263779H15.4696722c.6133859 2.271949-2.7521653 4.620571-12.89724406 6.860236h0c19.54360236 18.990748 43.86919296 24.987402 65.36998036 20.177166h0c3.3615157 15.153051 31.6700787 23.825197 50.4469485 17.755905h0c.258268-3.878051-.431791-7.752067-2.017716-11.299212h0c26.242421 4.467224 90.284744-15.669587 93.622047-17.352363h0c3.022539-.560925 12.320177 2.760237 21.565354 6.085433h0c10.504233 3.777166 20.939863 7.550296 22.013288 5.617323h0c2.021752-3.631889-7.663288-12.509842-3.224311-23.809055h0c1.622244-4.132283 1.303445-7.832775.520571-11.299212h0-130.057973z" fill="url(#d)"/><path d="M90.9484124 117.027559h.4035433c9.7657483 17.231299 3.3251968 30.548228-1.6141732 47.61811h0c-1.4446851 3.430118 3.7690945 6.077362 5.246063 2.42126h0c4.4147637-15.544488 10.4558075-32.787894 2.8248031-48.429232h0l.8070866-.399508c37.3277558.302657 75.1599408 6.456693 108.9566928 23.001968h0c2.247736.508465 9.479232 6.065256 10.895669 1.614174h0c-16.295078-19.269193-79.703838-30.249607-106.535433-29.458662h0c-1.16624.221949-3.954724-.133169-7.142716-.484252h0c-2.506004-.278445-5.2622049-.556889-7.6794293-.556889h0c-4.491437 0-7.808563.964468-6.1621063 4.673031h0z" fill="#373fff"/><path d="M90.9484124 117.027559h.4035433c5.7787402 10.915847 7.324311 24.236811 1.6141732 35.511811h0 5.6496063c2.9579728-11.444488 3.9224408-23.71624-1.2106299-34.704724h0c37.7434057.129134 75.9670277 6.896555 110.1673227 23.405511h0c2.239665.508465 9.487303 6.069292 10.895669 1.614174h0c-16.291043-19.269193-79.703838-30.253642-106.535433-29.458662h0c-1.16624.221949-3.950689-.133169-7.142716-.484252h0c-2.506004-.278445-5.2622049-.556889-7.6794293-.556889h0c-4.491437 0-7.808563.964468-6.1621063 4.673031h0z" fill="#f1a5ff"/><path d="M76.4204498 119.046083h.4035433c7.836811 10.665649 7.4897638 23.558858 2.4212598 35.108267-1.6989173 2.808662 2.5221457 5.617323 4.0354331 2.42126 2.832874-5.976476 4.7860236-12.727756 4.8425197-19.370079.1573819-7.679429-3.6762795-15.201476-7.2637795-21.791338-1.993504-3.506791-7.1790355.855512-4.4389764 3.63189" fill="#373fff"/><g style="fill:#f1a5ff"><path d="M84.8952628 152.53937c1.0411417-6.606004 3.5310039-13.316929 2.0177165-20.177165-.2017716-3.991044-10.2056102-27.658859-11.2992126-13.720473h1.2106299c7.2436024 10.245965 8.0789371 22.993898 2.8248032 34.301181l5.246063-.403543z"/><path d="M75.6137667 118.637697h1.2106299c7.2436024 10.25 8.0789371 22.997933 2.8248032 34.305216h0l5.246063-.403543c1.0411417-6.601968 3.5310039-13.316929 2.0177165-20.177165h0c-.1573819-3.103248-6.2266732-18.07067-9.4429134-18.07067h0c-.9241141 0-1.6101378 1.234843-1.8562992 4.346162h0z"/></g><path d="M43.7330384 41.1610138c6.0168307 0 10.8956693 4.8788386 10.8956693 10.8956693 0 6.0168307-4.8788386 10.8956693-10.8956693 10.8956693-6.0168307 0-10.8956693-4.8788386-10.8956693-10.8956693 0-6.0168307 4.8788386-10.8956693 10.8956693-10.8956693" fill="#000"/><g style="fill:#fff"><path d="M32.4346329 51.2495965h0c.2219488-6.4607284 5.6375-11.517126 12.0982283-11.2911418 6.4607284.2219488 11.517126 5.6415355 11.2911417 12.0982284-.2138779 6.299311-5.3832677 11.2951771-11.6866141 11.2992126-6.000689.4600393-11.2386811-4.0313977-11.6987205-10.0280512-.0040354-.0201772-.0040354-.0403543-.0040354-.0605315.6295275 4.5277559 4.733563 7.7439961 9.281496 7.2637795 5.125 0 9.2814961-4.1524606 9.2814961-9.281496 0-5.125-4.1564961-9.2814961-9.2814961-9.2814961-5.125 0-9.281496 4.1564961-9.281496 9.2814961"/><path d="M37.2779596 51.2495965c1.779626 0 3.2283465 1.444685 3.2283465 3.2283464 0 1.7836614-1.4487205 3.2283465-3.2283465 3.2283465-1.7836614 0-3.2283464-1.4446851-3.2283464-3.2283465 0-1.7836614 1.444685-3.2283464 3.2283464-3.2283464"/></g><path d="M43.7330384 121.871693c6.0168307 0 10.8956693 4.874803 10.8956693 10.891634 0 6.01683-4.8788386 10.895669-10.8956693 10.895669-6.0168307 0-10.8956693-4.878839-10.8956693-10.895669 0-6.016831 4.8788386-10.891634 10.8956693-10.891634" fill="#000"/><g style="fill:#fff"><path d="M32.4346329 131.554311h0c.2219488-6.460728 5.6375-11.517126 12.0982283-11.291142 6.4607284.221949 11.517126 5.641536 11.2911417 12.098229-.2138779 6.303346-5.3832677 11.295177-11.6866141 11.299212-6.000689.46004-11.2386811-4.027362-11.6987205-10.028051-.0040354-.020177-.0040354-.040354-.0040354-.060531.419685 4.660925 4.5438976 8.099114 9.2048228 7.675393.028248-.004035.0484252-.008071.0766732-.008071 5.125-.004035 9.2774607-4.164567 9.2734252-9.289567-.0040354-5.125-4.1645669-9.27746-9.2936023-9.273425-4.9635827.008071-9.0434056 3.918406-9.2613189 8.877953"/><path d="M37.2779596 131.960276c1.779626 0 3.2283465 1.440649 3.2283465 3.228346 0 1.779626-1.4487205 3.228347-3.2283465 3.228347-1.7836614 0-3.2283464-1.448721-3.2283464-3.228347 0-1.787697 1.444685-3.228346 3.2283464-3.228346"/></g></g></svg>