<svg width="256px" height="315px" viewBox="0 0 256 315" xmlns="http://www.w3.org/2000/svg" preserveAspectRatio="xMidYMid"><title>GNOME</title><path d="M210.657507 136.722855c10.613542 63.063968-150.401525 86.092349-89.772099 132.252874 19.045308 14.500828 38.492382 3.392396 35.546985-19.101183-2.45849-18.765934 65.956153-30.129794 60.597497-1.769366-7.016271 37.191299-44.518873 66.549489-77.032656 66.549489-66.0918484 0-129.4325303-76.85705-117.0522819-132.255535C41.2346204 100.49207 201.847922 84.3761951 210.657507 136.722855zm-180.1987312-7.803841c-13.9447415 6.13558-45.6177431-33.4264041-21.91620597-49.8030275C32.2547497 62.7420237 44.4035172 122.780774 30.4587758 128.919014zm39.2905926-31.4255558c-16.586819 3.3897348-41.7011892-47.0438795-12.0928926-59.2618251 29.6029751-12.2152848 28.6930149 55.8774116 12.0928926 59.2618251zM229.008372 0c65.461263 0-4.09482 93.2336735-40.913621 93.2336735C151.27063 93.2336735 163.549772 0 229.008372 0zM120.316018 81.6809037c-19.614698-1.1973161-32.5696584-65.2617091 4.267767-70.0429913 36.850728-4.78128226 15.338949 71.2403073-4.267767 70.0429913z"/></svg>