<svg width="256" height="216" xmlns="http://www.w3.org/2000/svg" preserveAspectRatio="xMidYMid"><path d="M69.512 187.143c1.086 0 2.054.188 2.904.564.85.362 1.692.912 2.527 1.65v-1.754h4.324v19.259c0 1.336-.23 2.527-.69 3.571a7.408 7.408 0 01-1.942 2.653c-.822.724-1.796 1.274-2.924 1.65-1.114.39-2.36.585-3.74.585-3.383 0-6.273-1.023-8.668-3.07l2.047-3.342c1.991 1.712 4.199 2.569 6.622 2.569 1.49 0 2.687-.37 3.593-1.107.919-.724 1.378-1.866 1.378-3.426v-2.089c-.891.766-1.748 1.337-2.57 1.713-.82.362-1.775.543-2.86.543a7.774 7.774 0 01-3.49-.794 8.73 8.73 0 01-2.777-2.151c-.766-.92-1.372-1.984-1.818-3.196a11.427 11.427 0 01-.647-3.864c0-1.365.216-2.653.647-3.865.446-1.225 1.052-2.283 1.818-3.175a8.475 8.475 0 012.778-2.13 7.774 7.774 0 013.488-.794zm38.804.46v12.031c0 1.504.286 2.549.857 3.133.57.585 1.399.878 2.485.878 1.588 0 2.89-.648 3.906-1.943 1.017-1.295 1.525-3.084 1.525-5.368v-8.731h4.324v19.467h-4.324v-4.867c-.432 1.672-1.232 2.98-2.402 3.927-1.17.947-2.611 1.42-4.324 1.42-1.991 0-3.55-.647-4.679-1.942-1.128-1.309-1.692-3.3-1.692-5.974v-12.031h4.324zm-14.136-.46c1.992 0 3.551.648 4.68 1.943 1.127 1.295 1.691 3.286 1.691 5.974v12.01h-4.324v-12.01c0-1.518-.285-2.57-.856-3.154-.571-.585-1.4-.878-2.486-.878-1.601 0-2.91.648-3.927 1.943-1.003 1.295-1.504 3.084-1.504 5.368v8.731H83.13v-19.467h4.324v4.887c.432-1.685 1.233-2.994 2.402-3.927 1.17-.947 2.611-1.42 4.324-1.42zm-23.603 3.885c-1.629 0-2.952.571-3.968 1.713-1.003 1.142-1.504 2.597-1.504 4.366 0 .877.132 1.692.397 2.444a6.25 6.25 0 001.128 1.921 5.496 5.496 0 001.733 1.295c.683.307 1.42.46 2.214.46.766 0 1.553-.153 2.36-.46.822-.32 1.49-.765 2.006-1.336v-8.648c-.515-.571-1.184-1.003-2.005-1.295-.808-.307-1.595-.46-2.36-.46z"/><path d="M127.896 200.974a3.511 3.511 0 11-.001 7.022 3.511 3.511 0 010-7.022zm0-13.794a3.511 3.511 0 11-.001 7.022 3.511 3.511 0 010-7.022z" stroke-opacity=".976" stroke="#666" stroke-width=".397" fill="#666" stroke-linecap="round" stroke-linejoin="round"/><path d="M164.586 187.143c1.573 0 3 .272 4.282.815a8.858 8.858 0 013.28 2.318c.919 1.017 1.636 2.263 2.151 3.74.515 1.461.773 3.119.773 4.97h-16.314c.209 1.337.843 2.452 1.9 3.343 1.073.877 2.508 1.316 4.304 1.316 1.406 0 2.625-.216 3.655-.648 1.045-.445 1.943-1.03 2.695-1.754l2.214 3.05c-1.253 1.253-2.583 2.109-3.99 2.569-1.392.46-2.917.689-4.574.689-1.504 0-2.904-.25-4.199-.752-1.295-.501-2.416-1.198-3.363-2.089a9.888 9.888 0 01-2.235-3.217c-.529-1.24-.793-2.618-.793-4.136 0-1.476.243-2.833.73-4.073.502-1.253 1.198-2.332 2.09-3.238a9.367 9.367 0 013.237-2.13c1.253-.515 2.639-.773 4.157-.773zm19.797-7.332v7.792h8.167v3.906h-8.167v8.418c0 1.253.306 2.186.919 2.799.612.612 1.42.919 2.423.919 1.225 0 2.137-.355 2.736-1.066.599-.71.954-1.566 1.065-2.569l3.802.857c-.223 2.047-1.03 3.676-2.423 4.887-1.379 1.198-3.105 1.797-5.18 1.797-1.142 0-2.187-.188-3.134-.564a7.066 7.066 0 01-2.423-1.567 7.11 7.11 0 01-1.566-2.402c-.362-.947-.543-1.977-.543-3.091v-8.418h-4.408v-3.906h4.408v-7.792h4.324zm-38.804 7.332c1.991 0 3.55.648 4.679 1.943 1.128 1.295 1.692 3.286 1.692 5.974v12.01h-4.324v-12.01c0-1.518-.286-2.57-.857-3.154-.57-.585-1.4-.878-2.485-.878-1.602 0-2.91.648-3.927 1.943-1.003 1.295-1.504 3.084-1.504 5.368v8.731h-4.324v-19.467h4.324v4.887c.431-1.685 1.232-2.994 2.402-3.927 1.17-.947 2.61-1.42 4.324-1.42zm19.007 3.885c-1.365 0-2.59.383-3.676 1.15-1.087.751-1.741 1.754-1.964 3.007h11.238c-.223-1.253-.87-2.256-1.943-3.008-1.072-.766-2.29-1.149-3.655-1.149z"/><path d="M214.352 0a3.679 3.679 0 013.657 4.083l31.453 13.312a3.679 3.679 0 112.327 5.956l-10.332 26.293a3.679 3.679 0 11-5.375 4.837l-41.054 9.221v.041a3.679 3.679 0 01-4.423 3.604l-14.262 28.541a3.68 3.68 0 01-2.306 6.325l-8.442 25.758a3.679 3.679 0 01-2.543 6.337l-.085-.002-14.378 36.158a3.679 3.679 0 11-5.671 4.37h-29.75a3.679 3.679 0 11-5.656-4.382l-18.959-58.974-.154-.002a3.679 3.679 0 01-2.656-6.021l-17.726-37.08-.186.005a3.68 3.68 0 01-3.512-2.584l-14.49-.284a3.68 3.68 0 01-7.013-2.04L14.6 47.136a3.679 3.679 0 11-4.598-5.745L3.801 23.418l-.123.002a3.679 3.679 0 113.28-5.346L42.306 4.425a3.679 3.679 0 112.57 2.786l-9.758 19.515.042.022-3.015 6.03a3.666 3.666 0 01.925 2.908l20.395 11.19a3.676 3.676 0 016.05.424l13.28-6.316a3.679 3.679 0 116.404 1.997l26.381 34.183a3.679 3.679 0 012.523 6.766l7.786 20.277a3.68 3.68 0 013.856 2.776l22.103-1.319 8.952-26.976a3.679 3.679 0 013.067-6.633l15.399-24.884a3.679 3.679 0 115.82-4.43l39.846-2.657a3.68 3.68 0 016.329-1.432l7.221-4.612-13.484-26.738A3.679 3.679 0 11214.353 0zm-78.86 156.37l-22.273 15.561c.044.108.083.218.117.33l29.498-.248c.221-.58.585-1.09 1.048-1.487l-8.39-14.156zm-7.595-10.56c-.304 0-.6-.037-.883-.107l-14.973 24.692c.068.052.133.106.197.162l22.391-15.644-5.516-9.309c-.38.134-.79.206-1.216.206zm33.26-11.514l-13.761 13.207a3.68 3.68 0 01-2.622 4.819l2.182 17.385.137.028 14.063-35.44zm-51.17 3.622l.262 31.75c.079.01.157.022.235.036l15.023-24.776a3.671 3.671 0 01-1.217-3.521l-12.099-4.804a3.676 3.676 0 01-2.205 1.315zm31.976 13.931l-5.082 3.55 8.344 14.082-2.153-17.163a3.657 3.657 0 01-1.109-.469zm-50.99-38.369l18.007 55.948-.26-31.5a3.68 3.68 0 01-2.475-5.644L90.972 113.48zm47.556 19.987l-7.331 7.038c.242.49.378 1.042.378 1.626 0 .996-.396 1.9-1.04 2.562l5.481 9.25 4.753-3.32a3.663 3.663 0 01-.518-1.883c0-1.254.627-2.36 1.584-3.025l-3.307-12.248zm7.901-7.587l-6.512 6.253 3.5 12.963a3.665 3.665 0 013.037.969l13.71-13.157a3.664 3.664 0 01-.767-2.704l-12.968-4.324zm-30.255-14.326h-.05l-5.02 19.525a3.678 3.678 0 011.725 4.336l11.959 4.748a3.695 3.695 0 011.48-1.332l-8.819-27.503a3.67 3.67 0 01-1.275.226zm19.308 14.08l-5.295 13.5 7.839-7.526-1.547-5.728a3.655 3.655 0 01-.997-.245zM118.57 110.67l8.915 27.805a3.717 3.717 0 011.13.047l5.452-13.901a3.665 3.665 0 01-.89-2.4c0-.6.144-1.167.399-1.667l-14.852-10.024-.154.14zm-16.597-21.954L91.18 105.2a3.668 3.668 0 011.077 2.6c0 .96-.367 1.834-.97 2.489l16.309 20.761a3.661 3.661 0 011.729-.43l.154.003 5.009-19.478a3.68 3.68 0 01-1.135-5.629l-11.38-16.801zm36.198 36.942l1.246 4.617 5.205-4.998-4.442-1.48a3.691 3.691 0 01-2.01 1.861zm18.105-9.227l-8.753 8.402 12.27 4.09a3.696 3.696 0 011.31-1.414l-4.827-11.078zm15.46-14.84l-11.346 10.89 2.811 14.472.03.002a3.66 3.66 0 011.277.294l8.3-25.161a3.66 3.66 0 01-1.072-.497zm-12.496 11.995l-1.934 1.856 4.14 9.496-2.206-11.352zm-8.005-4.819l-11.178 11.641a3.663 3.663 0 01.467 2.091l5.19 1.73 9.843-9.448-2.413-5.537-.093.002a3.66 3.66 0 01-1.816-.479zm-9.815-1.807l-21.584 1.287c-.045.45-.17.875-.362 1.262l14.864 10.03a3.665 3.665 0 013.217-.931l3.865-11.648zm8.067-.48l-6.251.372-3.958 11.929 10.719-11.163a3.661 3.661 0 01-.51-1.139zm8.1-1.4l-.81.29a3.68 3.68 0 01-2.288 3.606l2.099 4.815 2.269-2.178-1.27-6.534zm12.886-4.617l-11.61 4.16 1.144 5.885 10.466-10.045zm-18.73-19.248l-8.078 24.341 5.724-.341a3.682 3.682 0 012.353-3.088V81.214zm-62.64-5.692v28.636c.22.032.435.083.641.152l11.203-17.11-6.08-8.975-5.765-2.703zm15.797 8.724l-1.924 2.937 11.59 17.112-7.64-19.897a3.693 3.693 0 01-2.026-.152zm48.182-2.368l-.001 20.008h.023c1.369 0 2.563.749 3.197 1.86l.96-.345-4.179-21.523zM70.35 67.383l17.064 35.711V74.73l-16.65-7.805a3.7 3.7 0 01-.414.458zm83.546 11.664l4.642 23.897 11.589-4.153a3.663 3.663 0 01.671-2.38l-16.26-17.65c-.203.115-.418.211-.642.286zm18.257-8.491l-15.747 4.836.004.164c0 .763-.233 1.472-.63 2.06l16.286 17.679c.294-.157.612-.276.947-.348l-.86-24.391zm16.04-4.925l-14.786 4.54.872 24.723c.208.028.41.072.606.132l14.19-28.392a3.698 3.698 0 01-.882-1.003zM97.856 79.626l4.093 6.042 1.543-2.357a3.676 3.676 0 01-.832-1.43l-4.804-2.255zm-5.531-8.166l4.142 6.116 6.05 2.836c.033-.319.107-.626.216-.916L92.325 71.46zm-13.1-26.388L86.62 64.35a3.679 3.679 0 015.29 4.658l11.77 9.085c.197-.183.414-.344.648-.48L79.225 45.072zm9.877 26.04v3.01l4.376 2.053-3.573-5.275c-.255.1-.524.171-.803.212zm81.576-23.015l-15.367 24.836c.249.246.463.526.635.834l16.144-4.958-.724-20.535a3.652 3.652 0 01-.688-.177zM72.832 66.495l14.58 6.836v-2.365a3.684 3.684 0 01-2.484-2.958l-12.096-1.513zm99.8-18.244l.712 20.173 14.338-4.403a3.663 3.663 0 01.539-2.213l-14.156-14.171c-.36.257-.77.45-1.21.564l-.222.05zM76.448 44.22c-.142 0-.28-.008-.418-.024L69.536 61.44a3.68 3.68 0 011.973 3.188l13.562 1.696c.126-.382.311-.736.546-1.05L77.483 44.07a3.679 3.679 0 01-1.036.149zm-2.475-.957L49.96 62.965c.086.275.14.564.159.862l14.083.277a3.68 3.68 0 014.127-3.05l6.483-17.217a3.686 3.686 0 01-.839-.574zm-57.916 2.774L43.471 61.9a3.673 3.673 0 012.976-1.517c.633 0 1.23.16 1.75.442l5.857-8.78A3.683 3.683 0 0152.8 50.15l-36.743-4.113zm193.545 4.136L196.01 61.75l38.247-8.608-24.657-2.968zm-34.419-3.808l14.232 14.25a3.66 3.66 0 011.936-.551c.746 0 1.44.222 2.02.604l12.808-10.907-30.847-3.71a3.663 3.663 0 01-.149.314zM70.464 43.957l-10.45 4.975a3.679 3.679 0 01-4.433 3.834l-4.963 7.475 19.846-16.284zm148.015.782a3.66 3.66 0 01-1.886-.52l-5.243 4.464 23.593 2.84-13.96-7.768a3.665 3.665 0 01-2.504.984zm10.768-9.183l-7.201 4.598a3.688 3.688 0 01-.12 2.193l14.37 7.996c.08-.105.166-.205.256-.3l-7.305-14.487zm20.583-13.14l-18.795 11.998 7.35 14.572a3.688 3.688 0 011.604-.017l10.22-26.248a3.696 3.696 0 01-.379-.304zM214.528 42.65l-18.238 1.215-15.53 1.138 27.166 3.268 6.602-5.621zm-185.11-3.723c-.964 0-1.841-.371-2.497-.978l-11.026 5.554c.047.222.074.452.078.687l36.295 3.956L32.48 37.287a3.675 3.675 0 01-3.062 1.64zM5.84 22.717L12.008 40.6a3.66 3.66 0 012.243.551l7.861-9.553L5.878 22.69l-.037.027zm17.402 9.502l-7.346 8.926 9.958-4.978a3.687 3.687 0 01.197-2.406l-2.809-1.542zM216.882 6.35l13.39 26.547 18.61-11.881a3.672 3.672 0 01-.217-1.704L217.189 6.02a3.701 3.701 0 01-.307.33zM41.692 9.799L24.335 30.892l2.752 1.509a3.663 3.663 0 012.33-.833c.466 0 .911.087 1.321.244l2.172-4.341-.041-.022L41.692 9.8zm1.329-3.841L7.357 19.73v.01c0 .584-.136 1.136-.378 1.626l16.226 8.904L43.117 6.074l-.096-.116z" fill-opacity=".976" fill="#3498DB"/></svg>