<svg width="256px" height="216px" viewBox="0 0 256 216" xmlns="http://www.w3.org/2000/svg" preserveAspectRatio="xMidYMid"><title>GNUnet</title><path d="M69.5121802 187.142968c1.0861939 0 2.0540188.187996 2.9034744.563986.8494614.362065 1.691957.912122 2.5274869 1.650171v-1.754614h4.3238871v19.259032c0 1.336853-.2297725 2.527484-.6893177 3.571895-.4595451 1.044417-1.1070826 1.92869-1.9426125 2.652819-.8216097.72413-1.7963974 1.274189-2.9243631 1.65018-1.1140455.389916-2.3603831.584874-3.7390128.584874-3.3839083 0-6.2734597-1.023528-8.6686545-3.070584l2.0470559-3.342136c1.9913527 1.712843 4.1985523 2.569264 6.6215986 2.569264 1.4900359 0 2.6876333-.369025 3.5927921-1.107074.9190846-.724129 1.3786269-1.866027 1.3786269-3.425691v-2.088825c-.891233.765901-1.7476544 1.336847-2.5692642 1.712837-.8216041.362065-1.7755032.543097-2.8616971.543097-1.2532977 0-2.4160806-.264584-3.4883488-.793753-1.0722682-.529174-1.9983184-1.24634-2.7781509-2.151499-.765901-.919084-1.3716611-1.98439-1.8172805-3.195916-.4316935-1.21152-.6475403-2.499632-.6475403-3.864336 0-1.364704.2158468-2.652816.6475403-3.864336.4456194-1.225452 1.0513795-2.283795 1.8172805-3.175028.7798325-.905158 1.7058827-1.615362 2.7781509-2.13061 1.0722682-.529169 2.2350511-.793753 3.4883488-.793753zm38.8038958.459543v12.031671c0 1.503956.285476 2.548373.856427 3.13325.570946.584871 1.399516.877307 2.48571.877307 1.58751 0 2.889548-.647538 3.906113-1.942613 1.016565-1.295075 1.524848-3.084506 1.524848-5.368295v-8.73132h4.323879v19.467911h-4.323879v-4.866976c-.431694 1.671065-1.232412 2.980066-2.402155 3.927002-1.169749.946937-2.611044 1.420405-4.323887 1.420405-1.991353 0-3.551012-.647538-4.678978-1.942613-1.127971-1.309001-1.691957-3.300353-1.691957-5.974058v-12.031671h4.323879zm-14.135888-.459543c1.9913528 0 3.551012.647538 4.6789776 1.942613 1.1279713 1.295075 1.6919574 3.286428 1.6919574 5.974058v12.010783h-4.3238791v-12.010783c0-1.517882-.2854757-2.569261-.856427-3.154138-.5709458-.584872-1.3995156-.877308-2.4857095-.877308-1.6014366 0-2.9104374.647538-3.9270024 1.942613-1.0026393 1.295075-1.5039589 3.084509-1.5039589 5.368304v8.731312h-4.3238787v-19.467911h4.3238787v4.887864c.4316935-1.684991 1.2324118-2.993992 2.4021548-3.927002 1.1697486-.946937 2.6110443-1.420405 4.3238871-1.420405zm-23.6027025 3.885225c-1.6292881 0-2.9522147.570949-3.9687798 1.712846-1.0026392 1.141891-1.5039589 2.59711-1.5039589 4.365656 0 .877307.1322921 1.691951.3968763 2.443932.27851.738055.6545004 1.37863 1.1279713 1.921724.487391.5431 1.0652996.974793 1.7337258 1.295081.682352.306361 1.4204071.459542 2.2141653.459542.7659066 0 1.5526991-.153181 2.3603774-.459542.8216098-.320288 1.490036-.765907 2.0052786-1.336858v-8.647758c-.5152426-.570951-1.1836688-1.002645-2.0052786-1.29508-.8076783-.306362-1.5944708-.459543-2.3603774-.459543z"/><path d="M127.895616 200.973629c1.938998 0 3.510866 1.572293 3.510866 3.511816 0 1.939522-1.571868 3.511815-3.510866 3.511815-1.938998 0-3.510867-1.572293-3.510867-3.511815 0-1.939523 1.571869-3.511816 3.510867-3.511816zm0-13.793918c1.938998 0 3.510866 1.572293 3.510866 3.511815 0 1.939522-1.571868 3.511815-3.510866 3.511815-1.938998 0-3.510867-1.572293-3.510867-3.511815 0-1.939522 1.571869-3.511815 3.510867-3.511815z" stroke-opacity="0.97635139" stroke="#666" stroke-width="0.39663559" fill="#666" stroke-linecap="round" stroke-linejoin="round"/><path d="M164.585914 187.142968c1.573585 0 3.000952.271547 4.282102.814642 1.281155.529174 2.374311 1.302043 3.27947 2.318608.919085 1.016565 1.636251 2.2629 2.151499 3.739004.515243 1.462185.772864 3.119325.772864 4.971419h-16.313772c.208881 1.336853.842493 2.450898 1.900835 3.342137 1.072268.877307 2.506598 1.315961 4.30299 1.315961 1.406481 0 2.624967-.215847 3.655458-.64754 1.044417-.445614 1.942615-1.030486 2.694596-1.754615l2.214157 3.049695c-1.253298 1.253298-2.583187 2.109719-3.989668 2.569264-1.392556.45954-2.917403.68931-4.574543.68931-1.503956 0-2.903472-.250659-4.198547-.751976-1.29508-.501322-2.416089-1.1976-3.363025-2.088833-.946936-.905159-1.691951-1.977427-2.235045-3.216804-.529174-1.239372-.793761-2.618002-.793761-4.135889 0-1.476105.243698-2.833843.731095-4.073215.501316-1.253303 1.197594-2.332534 2.088833-3.237693.905159-.919085 1.984387-1.629288 3.237685-2.130611 1.253303-.515242 2.638895-.772864 4.156777-.772864zm19.796625-7.331805v7.791348h8.167335v3.906113h-8.167335v8.417991c0 1.253303.306362 2.186316.919085 2.799039.612723.612723 1.420404.919085 2.423043.919085 1.225452 0 2.137576-.355102 2.736374-1.065305.598797-.710204.953899-1.566625 1.065305-2.569265l3.80167.856419c-.222806 2.047056-1.030488 3.676347-2.423043 4.887873-1.37863 1.197594-3.105398 1.796392-5.180306 1.796392-1.141891 0-2.186308-.187996-3.13325-.563986-.946936-.37599-1.754617-.898199-2.423043-1.566625-.668426-.668426-1.190635-1.469144-1.566625-2.402155-.362059-.946936-.543089-1.977427-.543089-3.091472v-8.417991h-4.407441v-3.906113h4.407441v-7.791348h4.323879zm-38.803896 7.331805c1.991353 0 3.551015.647538 4.678986 1.942613 1.127966 1.295075 1.691949 3.286428 1.691949 5.974058v12.010783h-4.323879v-12.010783c0-1.517882-.285476-2.569261-.856427-3.154138-.570946-.584872-1.399516-.877308-2.485709-.877308-1.601437 0-2.910438.647538-3.927003 1.942613-1.002639 1.295075-1.503959 3.084509-1.503959 5.368304v8.731312h-4.323878v-19.467911h4.323878v4.887864c.431694-1.684991 1.232412-2.993992 2.402155-3.927002 1.169749-.946937 2.611044-1.420405 4.323887-1.420405zm19.007271 3.885225c-1.364704 0-2.590153.382954-3.676346 1.14886-1.086189.751981-1.740689 1.75462-1.963502 3.007918h11.237919c-.222813-1.253298-.87035-2.255937-1.942613-3.007918-1.072268-.765906-2.290754-1.14886-3.655458-1.14886z"/><path d="M214.352444 0c2.031486 0 3.678312 1.6472712 3.678312 3.67926057 0 .13635566-.007416.27097892-.021866.40348828l31.453413 13.31224705c.674366-.8324749 1.704744-1.364622 2.859385-1.364622 2.031486 0 3.678312 1.6472712 3.678312 3.6792606 0 2.0319894-1.646826 3.6792606-3.678312 3.6792606-.18072 0-.358396-.0130362-.53214-.0382198l-10.332237 26.293653c.879342.6723052 1.446591 1.7323604 1.446591 2.9249317 0 2.0319894-1.646826 3.6792606-3.678312 3.6792606-1.331361 0-2.497511-.7075047-3.143175-1.7671318l-41.054189 9.2210802 2.2e-4.040735c0 2.0319894-1.646826 3.6792606-3.678311 3.6792606-.255131 0-.504195-.0259815-.744691-.0754434L176.343338 95.888105c.696998.6695296 1.130824 1.6111134 1.130824 2.6540442 0 1.9506748-1.517661 3.5468068-3.436359 3.6714278l-8.44237 25.756995c.699467.66978 1.135046 1.613059 1.135046 2.658094 0 2.031989-1.646826 3.679261-3.678311 3.679261l-.085081-.002392-14.377933 36.158905c.830814.67458 1.361745 1.704312 1.361745 2.858075 0 2.03199-1.646826 3.679261-3.678311 3.679261-1.493072 0-2.778361-.889814-3.354774-2.168195h-29.750477c-.576414 1.278381-1.861703 2.168195-3.354774 2.168195-2.031486 0-3.678312-1.647271-3.678312-3.679261 0-1.161137.537739-2.196651 1.377711-2.870965l-18.9588617-58.973261-.1538536-.002688c-1.9487147-.092988-3.5000932-1.702793-3.5000932-3.675018 0-.89142.3169351-1.708801.8442439-2.345548L68.0172979 68.3755035l-.1858451.0046145h0c-1.6502708 0-3.046702-1.0870463-3.5126794-2.5843177l-14.4899511-.2836622c-.5625591 1.3111089-1.8649156 2.2294233-3.3817105 2.2294233-2.0314855 0-3.6783116-1.6472712-3.6783116-3.6792606 0-.2007848.0160793-.3978133.0470201-.5898674L14.6007939 47.1360523c-.6306229.5077692-1.4322326.811679-2.3048091.811679-2.0314856 0-3.67831168-1.6472712-3.67831168-3.6792606 0-1.1646295.54097906-2.2028798 1.38529928-2.8770404L3.80101019 23.418473l-.12269856.0020084h0C1.64682608 23.4204814 0 21.7732102 0 19.7412208c0-2.0319894 1.64682608-3.6792606 3.67831163-3.6792606 1.43159982 0 2.67217375.818052 3.2800086 2.0123075L42.3063323 4.42498277c-.0495616-.24081878-.0755969-.49022942-.0755969-.7457222C42.2307354 1.6472712 43.8775615 0 45.909047 0c2.0314856 0 3.6783117 1.6472712 3.6783117 3.67926057 0 2.03198938-1.6468261 3.67926057-3.6783117 3.67926057-.3588086 0-.7056174-.0513882-1.033472-.147208L35.1175076 26.7260045l.0427628.0221354-3.0152772 6.0302475c.591128.6528405.9512174 1.5188925.9512174 2.4690655 0 .1482506-.008766.2944532-.0258076.4381178l20.3945247 11.1898268c.6739094-.8464751 1.7131051-1.3890438 2.8789978-1.3890438 1.3506919 0 2.5313397.7281992 3.1709686 1.8135093l13.2798137-6.3155267c-.0175049-.1455619-.0265126-.293739-.0265126-.4440203 0-2.0319894 1.6468261-3.6792606 3.6783116-3.6792606 2.0314856 0 3.6783117 1.6472712 3.6783117 3.6792606 0 .9368472-.35006 1.7919163-.926483 2.4414725l26.3816915 34.1819234c.193979-.0316106.393053-.048045.595965-.048045 2.031486 0 3.678312 1.6472712 3.678312 3.6792606 0 1.3253633-.700608 2.4870564-1.751589 3.1347389l7.786362 20.2772586c.094478-.007275.189955-.01098.286298-.01098 1.723897 0 3.170799 1.186206 3.569431 2.787108l22.103493-1.31869 8.95149-26.9764992c-1.04866-.6481845-1.74741-1.8085537-1.74741-3.1321592 0-2.0319894 1.646826-3.6792606 3.678312-3.6792606.396463 0 .778276.0627399 1.136056.178835l15.39891-24.8844613c-.62619-.6596935-1.010401-1.55142-1.010401-2.5329029 0-2.0319894 1.646826-3.6792605 3.678311-3.6792605 1.338039 0 2.509205.71462 3.152851 1.783103l39.8453-2.6573532c.4272-1.5588065 1.853744-2.7042559 3.547767-2.7042559 1.111019 0 2.106987.4926978 2.781441 1.2715684l7.221316-4.6112988-13.484475-26.73833124c-.209519.03708737-.425162.05643458-.645323.05643458-2.031485 0-3.678311-1.64727119-3.678311-3.67926057C210.674133 1.6472712 212.320959 0 214.352444 0zm-78.859558 156.370006-22.274168 15.56103c.044021.107704.083086.217961.116909.330487l29.498468-.248565c.220949-.580109.584409-1.089887 1.047582-1.486522l-8.388791-14.15643zm-7.595506-10.559971c-.30454 0-.600435-.037019-.883434-.106804l-14.973098 24.691729c.067687.051625.13353.105545.197414.161644l22.390876-15.643908-5.516477-9.30821c-.380436.133156-.789406.205549-1.215281.205549zm33.258849-11.514135-13.760385 13.207215c.137908.386544.213008.802928.213008 1.236855 0 1.741577-1.209734 3.200545-2.834545 3.582004l2.181351 17.384601.137132.028486h0l14.063439-35.439161zm-51.169891 3.622583.262547 31.750386c.07909.00935.157411.02121.234882.035497l15.023556-24.776782c-.788504-.674815-1.288254-1.677438-1.288254-2.796809 0-.247767.024484-.489814.071165-.723853l-12.099147-4.803578c-.542604.674642-1.318279 1.153793-2.204749 1.315139zm31.977056 13.930951-5.082433 3.550439 8.344491 14.080855-2.153796-17.162337c-.398552-.09536-.771901-.255608-1.108262-.468957zm-50.990911-38.369128 18.007823 55.947693-.260341-31.499245c-1.744323-.288031-3.074715-1.8036-3.074715-3.629964 0-.743614.220547-1.435706.599781-2.014398l-15.272548-18.804086zm47.556606 19.986464-7.331145 7.03807c.24186.490282.377748 1.042236.377748 1.625935 0 .996213-.395831 1.899956-1.038759 2.562449l5.48028 9.250184 4.752893-3.319927c-.328896-.550969-.517877-1.195166-.517877-1.883511 0-1.253558.626749-2.3607 1.583911-3.024998l-3.307051-12.248202zm7.901377-7.586666-6.512458 6.252628 3.500549 12.963333c.167321-.023307.338246-.035355.511984-.035355.97772 0 1.86634.381563 2.525152 1.003939l13.708483-13.157108c-.494917-.62667-.79032-1.418268-.79032-2.278875 0-.143609.008225-.285296.024231-.424615l-12.967621-4.323947zm-30.255091-14.325638-.05075-.001032-5.019556 19.525649c1.131166.627551 1.896804 1.834198 1.896804 3.219707 0 .389091-.060382.764076-.172284 1.116091l11.959125 4.748248c.360546-.568727.872785-1.031743 1.479797-1.332112l-8.81847-27.503464c-.39714.146758-.826544.226913-1.274666.226913zm19.307768 14.080411-5.295169 13.498177 7.83874-7.525494-1.546608-5.727232c-.349045-.035315-.683675-.119442-.996963-.245451zm-16.914299-14.965786 8.915566 27.805353c.135567-.01515.27336-.02293.41297-.02293.245304 0 .484999.024019.716863.069833l5.452169-13.901684c-.554685-.644243-.890013-1.482828-.890013-2.399751 0-.600034.143601-1.166522.398303-1.666953l-14.851839-10.02371-.154019.139842h0zm-16.596616-21.9542277-10.7929787 16.4849157c.6651596.665751 1.0765274 1.585228 1.0765274 2.600804 0 .959598-.3672678 1.833397-.9688746 2.488428l16.3081119 20.761257c.515315-.274915 1.103738-.430739 1.728548-.430739l.154514.003048 5.0086-19.477904c-1.181893-.61201-1.989613-1.846392-1.989613-3.269468 0-.897677.3214-1.720272.855378-2.358929l-11.380213-16.8014127zm36.197595 36.9421777 1.246654 4.617326 5.204595-4.997958-4.441806-1.480132c-.403878.850709-1.124501 1.521787-2.009443 1.860764zm18.105505-9.227498-8.753146 8.40275 12.27021 4.090251c.303951-.579847.758003-1.068602 1.310526-1.414622l-4.82759-11.078379zm15.459546-14.839469-11.34598 10.890547 2.811228 14.471664.030264.001363c.451764.021557.882173.124633 1.27685.294846l8.299563-25.161614c-.386725-.107731-.74778-.27708-1.071925-.496806zm-12.495955 11.994928-1.933511 1.855833 4.138737 9.495691-2.205226-11.351524zm-8.00499-4.818848-11.177716 11.640813c.303511.535098.476809 1.153779.476809 1.812945 0 .09367-.003499.186521-.010374.278432l5.19014 1.730255 9.843173-9.448873-2.412628-5.537217-.093495.002526c-.660408 0-1.280166-.174086-1.815909-.478881zm-9.815393-1.807436-21.583271 1.287024c-.044929.449389-.170702.874954-.362557 1.261929l14.864206 10.029991c.658063-.618278 1.54371-.99701 2.517797-.99701.238998 0 .472672.022799.698967.066343l3.864858-11.648277zm8.067003-.480431-6.250853.372357-3.957523 11.929044 10.718746-11.162464c-.230774-.343048-.405304-.727101-.51037-1.138937zm8.101031-1.399887-.810827.290471c.003437.065199.005177.130848.005177.196903 0 1.541791-.948103 2.862094-2.292958 3.409387l2.098923 4.815013 2.268709-2.178366-1.269024-6.533408zm12.885128-4.616404-11.609349 4.159622 1.144064 5.885809 10.465285-10.045431zm-18.73041-19.2476775-8.07684 24.3411265 5.723678-.341495c.134379-1.416864 1.072065-2.599619 2.352484-3.087552l6.78e-4-20.9120795zm-62.6398354-5.692458 5.595e-4 28.6365895c.2205607.0315.4348128.08257.6409422.151397l11.2034147-17.1105521-6.0798462-8.9738968-5.7650702-2.7035376zm15.7973394 8.7244772-1.923503 2.936915 11.590246 17.1116103-7.639784-19.8971643c-.242065.0501416-.492836.0764894-.749759.0764894-.449075 0-.879353-.0804963-1.2772-.2278504zm48.182286-2.3679966-.00107 20.0075399.022601 6.33e-4c1.369319 0 2.563872.748423 3.197123 1.858616l.960927-.34441-4.179581-21.5223789zM70.3492498 67.3831082 87.412797 103.094229V74.729881l-16.6506731-7.8052509c-.1247017.164173-.2628757.3175485-.4128741.4584781zm83.5460912 11.6636133 4.641942 23.8972175 11.588567-4.152487c-.005511-.0823878-.008311-.1655183-.008311-.2493028 0-.7942275.251591-1.5296803.679404-2.1309675L154.536399 78.761866c-.202542.1143756-.417004.210104-.641058.2848555zm18.256728-8.4911972-15.746655 4.8362015.003588.1639788h0c0 .7635354-.232521 1.472751-.630601 2.0606625l16.286368 17.6786128c.294145-.1572188.612151-.2756189.94718-.3483595l-.85988-24.3910961zm16.040154-4.92459-14.786328 4.5395765.872572 24.723763c.207712.0272282.40997.0717909.605274.1321884l14.190303-28.3927877c-.351314-.2771645-.65088-.6170384-.881821-1.0027402zM97.8562876 79.6261379l4.0922984 6.0415464 1.543438-2.3568783c-.377204-.4024512-.664976-.8897797-.831599-1.4302583l-4.8041374-2.2544098zm-5.5313495-8.1659576 4.1424303 6.1159297 6.0499456 2.8363558c.032967-.3192678.106748-.6264217.216038-.9161523l-10.4084139-8.0361332zM79.2245059 45.0720225l7.3952262 19.27755c.5647905-.3532826 1.2323466-.5574743 1.9475842-.5574743 2.0314855 0 3.6783116 1.6472712 3.6783116 3.6792605 0 .5485044-.1199955 1.0689763-.3351613 1.5365831l11.7691274 9.0847883c.19724-.182401.414491-.3434661.648088-.4795298L79.2245059 45.0720225zm9.8775306 26.0400021-5.839e-4 3.0107847 4.376151 2.0517166-3.5724395-5.2748343c-.2550875.099669-.5240253.1716757-.8031276.212333zm81.5763245-23.0146334-15.36747 24.8360829c.249143.2453007.463491.5258562.634963.8335837l16.144579-4.9584477-.724605-20.5349927c-.237422-.0367938-.467341-.096299-.687467-.1762262zM72.8321001 66.4951519l14.5806969 6.8356779v-2.3651075c-1.3019124-.4301335-2.2819379-1.5678492-2.4849653-2.9578457l-12.0957316-1.5127247zm99.8004349-18.2443195.711724 20.1727642 14.337903-4.4024388c-.006852-.0917546-.010339-.1844468-.010339-.2779538 0-.7097901.200939-1.3726383.549023-1.9347333l-14.155999-14.1714881c-.360334.2566649-.768898.4499806-1.209447.563699l-.222865.0501508zm-96.1860282-4.0312558c-.1410673 0-.2802797-.0079431-.4172148-.0234066l-6.4929967 17.2436299c1.1530213.604337 1.9459642 1.8025626 1.972768 3.1884919l13.5623795 1.6955288c.1250775-.3814657.3108206-.7354314.5458189-1.0504832l-8.1338714-21.2019677c-.3288598.0964615-.67683.1482069-1.0368835.1482069zm-2.4743006-.9567937-24.0132067 19.7020343c.0857927.2749614.1402001.5637789.1590277.8622568l14.0832291.2771596c.284999-1.7482611 1.8018007-3.0826367 3.6301965-3.0826367.168517 0 .3343871.0113351.4968899.0332846l6.4826109-17.2181232c-.3062621-.1523257-.5882898-.3460968-.8387474-.5739754zm-57.9160851 2.7743063 27.4143993 15.8632206c.6686821-.9195187 1.7528454-1.5172696 2.9765914-1.5172696.6333455 0 1.2293032.1601102 1.749626.4420719l5.8575531-8.7797637c-.5988757-.4770361-1.0455896-1.1370568-1.2555832-1.8954775l-36.7425866-4.1127817zM209.60054 50.1734511l-13.590301 11.5757342 38.247892-8.6083854-24.657591-2.9673488zm-34.418384-3.808242 14.232066 14.2489385c.562306-.3488123 1.225596-.5502042 1.935913-.5502042.746326 0 1.440736.2223286 2.020646.6043829l12.806854-10.9069072-30.846657-3.7108223c-.044747.1075464-.094449.2125122-.148822.3146123zM70.4636025 43.9570463l-10.4486914 4.9744576c.0048597.0774118.0073261.155473.0073261.2341103 0 2.0319894-1.6468261 3.6792606-3.6783117 3.6792606-.2612167 0-.5160735-.0272358-.7618871-.0790231l-4.9643609 7.4749007 19.845925-16.2837061zm148.0158825.781623c-.689581 0-1.334839-.1898049-1.886409-.5200333l-5.243089 4.4645765 23.592894 2.839011-13.960133-7.766982c-.656542.6102373-1.53633.9834278-2.503263.9834278zm10.767718-9.1826831-7.201695 4.5976916c.073328.2897458.112288.5931875.112288.9057309 0 .4530014-.081847.8868823-.231557 1.2876538l14.37058 7.995925c.079728-.1047783.164947-.2051492.255228-.3006834l-7.304844-14.4863179zM249.83045 22.416594l-18.79496 11.9970166 7.349696 14.572858c.269916-.0630993.551264-.0964691.840404-.0964691.261817 0 .517245.0273611.763582.0793806l10.219195-26.2479663c-.132685-.0933232-.258924-.1951966-.377917-.3048198zm-35.302571 20.2334329-18.238167 1.2154511-15.529035 1.1376905 27.165561 3.268012 6.601641-5.6211536zM29.4178989 38.9267135c-.9639878 0-1.8413609-.3709204-2.497257-.9778578l-11.0259931 5.5544771c.0469526.2220395.0738853.4514689.0788201.6863097l36.2948694 3.9561141-19.7886354-10.8586094c-.6594604.9884624-1.7846115 1.6395663-3.061804 1.6395663zM5.84143661 22.7173493l6.16688779 17.882946c.0949222-.0073445.1908546-.0110851.2876604-.0110851.7184433 0 1.3887768.2060263 1.9551724.5622337l7.8613273-9.5532045-16.23420917-8.9080767-.03683872.0271866h0zm17.40160279 9.501471-7.3464962 8.9262336 9.958792-4.9783115c-.0755615-.2938333-.1157479-.6018673-.1157479-.9192895 0-.5291097.1116597-1.0321344.3126952-1.4867835l-2.8092431-1.5418491zM216.881817 6.3505888l13.389556 26.5474534 18.610863-11.881374c-.154349-.4061504-.238859-.8467207-.238859-1.3070337 0-.1341055.007173-.2665352.021156-.3969264L217.189265 6.02148127c-.095736.11588068-.198433.22579672-.307448.32910753zM41.6924463 9.79853975 24.3347553 30.891537l2.7523549 1.5094475c.6345174-.5204464 1.4461846-.8327921 2.3307887-.8327921.4653512 0 .9105182.0864369 1.32033.244135l2.1722058-4.3416258-.041547-.021286 8.8235586-17.65087585zm1.3282077-3.8409131L7.35660945 19.7310273l1.381e-5.0101935c0 .5836989-.13588847 1.1356527-.37774836 1.625935l16.2261698 8.9038003L43.1166061 6.0741913l-.0959521-.11656465h0z" fill-opacity="0.97647059" fill="#3498db"/></svg>