<svg width="256px" height="341px" viewBox="0 0 256 341" xmlns="http://www.w3.org/2000/svg" preserveAspectRatio="xMidYMid"><title>GnuPG</title><path d="M.0272631134 164.165788H18.0253561V109.98891C18.0253561 49.2549353 67.2802915 0 128.013632 0c60.735242 0 109.987007 49.2549353 109.987007 109.98891v53.64176c-.259951.181966-.518634.360127-.773512.535118h.001904l-.167383.112857-.019021.01268-.019023.010779-.01902.012046-.083056.057062-.098276.066573-.01902.013315-.107783.072913-.005072.003804-.044383.028531-.025361.015851-.050723.036139-.01268.008242-.065304.043748h-6.35e-4l-.065304.044382-.08813.058965-.044382.028531-.038041.023459-.031701.019654-.098908.067207-.095738.062769-.004439.00317-.124268.082423-.025361.017753-.151533.099542-.01268.008876-.063402.041212-.001904.001268-.025359.015217-.198451.129975-.031701.020289-.044382.028531-.01902.012047-.012682.00951-.102077.066572-.012681.005707-.002536.001902-.006341.003804-.11666.075449-.025362.015851-.038041.024093-.038041.022191-.025362.017118-.063403.039944-.057061.036773-.004438.001903-.063403.039943-.006341.004438-.057062.034238-.01902.011412-.044382.028531-.031701.017753-.031702.020289-.038041.024727-.025362.013948-.334131.209863-.071011.043114-.019021.010778-.178795.110955-.01268.008876-.203523.123635-.005072.00317-.012681.008877-.057062.032969-.003171.001902-.057062.035506-.00634.003804-.050722.031067-.050723.030433-.006338.004439-.025362.016484-.08813.052624-.044382.028531-.067206.040578-.196549.115393-.196547.115393-.197817.116026-.197816.116661-.399435.233322-.200987.11666-.201619.117929-.083693.048186-.526875.304333-.20479.117928-.206693.117929-.206693.119197-.271996.155336-.355055.200987-.210496.119196-.817894.459669-.038041.019021-.21557.119831-.215568.121099-.050723.026629-.287213.158506-.644805.354421-.303063.166115c-.309406.168016-.621981.337301-.937726.506586l-.08052.043748-.147095.078619-.459034.2441-.230785.123001-.038042.020289-.424164.223811-.001902.001268-.234588.122367-.067208.034872-.404507.211764-.237127.123001-.217471.112223c-.29609.153434-.595351.306869-.897147.460303l-.246636.125537c-.354421.179429-.712645.360127-1.074673.54019l-.003171.001268c-.345544.171821-.694258.344276-1.046776.516731l-.349983.171187c-.382951.18577-.769072.373441-1.160267.560479h-.001902c-21.842192 10.434164-56.870855 21.535957-123.3687581 26.309538C47.7155206 204.232421 18.8362752 225.199657 0 250.50363v-86.337842h.0272631134zm68.6605658866 0H187.3388V109.98891c0-32.7607522-26.565685-59.326437-59.325168-59.326437-32.7588502 0-59.325803 26.5656848-59.325803 59.326437v54.176878zm153.69802 8.544767c-.355053.179429-.71201.359493-1.074673.54019m-43.47262-146.6425804c-14.10454-8.4281062-30.593651-13.2771362-48.213865-13.2771362-48.2988238 0-88.1105776 36.3899161-93.5264268 83.2374552C50.2573303 52.2703627 91.7625672 20.1816781 140.75248 20.1816781c13.013381 0 25.499253 2.2698127 37.086076 6.4264865zM256 184.902873v155.243142H37.0042872c24.1411698-13.422328 42.1329226-12.05537 71.9315058-11.113206 40.579559 1.283268 85.418504-15.716234 107.470559-38.225421 22.054591-22.511724-1.995915-5.326451-26.961318 1.006833-24.969207 6.329481-73.283882 7.00345-105.5792592-1.485522 101.7167742 1.386614 141.3034492-31.516794 163.7841042-60.984415 22.479389-29.466988-9.722787-5.115954-30.58414 5.042408-20.860087 10.167872-57.242394 17.431907-97.248794 12.134621C180.374026 246.395776 226.45059 216.13372 256 184.902873h0z" fill="#0093dd"/></svg>