<svg width="512px" height="192px" viewBox="0 0 512 192" xmlns="http://www.w3.org/2000/svg" preserveAspectRatio="xMidYMid"><path d="M292.533152 13.2950639l1.124081.7504437c13.212082 8.7249602 22.684896 20.6906199 28.917011 35.1491255 1.495707 2.2435612.498569 3.489984-2.492846 4.2378378l-5.063657 1.2953223c-11.446574 2.9490126-20.530586 5.4288641-31.826357 8.3778768l-6.442974 1.6787162c-2.320146.5739764-2.960715.3326834-5.427977-2.4770145l-.348097-.3992252c-3.519312-3.9885532-6.155345-6.6521891-10.817723-9.0300585l-.898652-.4427554c-15.704928-7.7278219-30.911288-5.4842607-45.120509 3.7392686-16.951351 10.9685215-25.676311 27.172019-25.427027 47.3640698.249285 19.942767 13.959937 36.395549 33.653418 39.137679 16.951352 2.243561 31.160573-3.739269 42.378379-16.452782 2.243561-2.74213 4.237837-5.733545 6.730683-9.223529h-48.111923c-5.234976 0-6.481399-3.2407-4.736407-7.478538l.864273-2.034237c3.203696-7.454085 8.172834-18.1686696 11.400387-24.2946975l.704121-1.318221c.861527-1.4942118 2.611505-3.5134168 5.976847-3.5134168l80.223658-5.805e-4c3.60305-11.4147273 9.448979-22.2006892 17.246612-32.4064147 18.197774-23.9313194 40.134817-36.39554827 69.799681-41.63052443 25.427027-4.487122393 49.358347-1.99427662 71.046105 12.71351343 19.693482 13.4613672 31.908426 31.6591414 35.149126 55.5904609 4.237837 33.6534186-5.484261 61.0747216-28.667727 84.5074726-16.452782 16.702066-36.644833 27.172019-59.828299 31.908426-6.730683 1.246422-13.461367 1.495707-19.942766 2.243561-22.684896-.498569-43.375516-6.979968-60.825437-21.937043-12.2731-10.608951-20.727357-23.648075-24.928224-38.827673-2.914685 5.887669-6.400772 11.526403-10.470186 16.89063-17.948489 23.682035-41.38124 38.389825-71.046105 42.378378-24.429888 3.2407-47.114785-1.495707-67.057551-16.452782-18.447059-13.959936-28.917011-32.406995-31.659141-55.341176-3.2407-27.1720195 4.736407-51.6019081 21.189189-73.0403818 17.699205-23.1834657 41.131955-37.89125577 69.799682-43.1262319 22.99881-4.15935935 45.037071-1.594874167 64.936332 11.4645006h0zm118.587132 35.7220584-.797869.1775108c-23.183466 5.2349761-38.14054 19.9427662-43.624801 43.3755165-4.487122 19.4441974 4.985692 39.1376794 22.934181 47.1147854 13.710652 5.98283 27.421304 5.234976 40.633386-1.495707 19.693482-10.220668 30.412719-26.174881 31.659142-47.613355-.249285-3.2406995-.249285-5.7335453-.747854-8.2263911-4.436705-24.4018791-26.664543-38.3240499-50.056185-33.3323596h0zM116.415898 94.5644262c.997138 0 1.495707.7478537 1.495707 1.7449921l-.498569 5.9828297c0 .997139-.997138 1.744992-1.744992 1.744992l-54.3440379-.249284c-.9971383 0-1.2464228-.747854-.7478537-1.495708l3.4899841-6.2321143c.4985692-.7478538 1.4957075-1.4957075 2.4928458-1.4957075h49.8569157zm5.484261-22.9341811c.997138 0 1.495707.7478537 1.246422 1.4957074l-1.994276 5.9828299c-.249285.9971383-1.246423 1.4957075-2.243561 1.4957075L.99713831 80.8537744c-.99713831 0-1.246422888-.4985691-.747853732-1.2464229l5.234976132-6.7306836c.49856916-.7478537 1.74499205-1.2464228 2.74213036-1.2464228H121.900159zm12.962798-22.9341812c.997138 0 1.246422.7478537.747853 1.4957075l-4.237837 6.481399c-.49857.7478537-1.744993 1.4957075-2.492846 1.4957075l-90.2410174-.2492846c-.9971383 0-1.2464229-.4985692-.7478538-1.2464229l5.2349762-6.7306836c.4985691-.7478537 1.744992-1.2464229 2.7421303-1.2464229h88.9945947z" fill="#00acd7"/></svg>