<svg width="256px" height="242px" viewBox="0 0 256 242" xmlns="http://www.w3.org/2000/svg" preserveAspectRatio="xMidYMid"><title>Godot</title><path d="M240.339684 202.858881c0 0-.373198 2.289704-.591376 2.269335l-41.54829-4.008975c-3.305974-.319226-5.873554-2.955711-6.10554-6.268589l-1.141451-16.359817-32.142969-2.293156-2.186351 14.826782c-.486886 3.297954-3.366788 5.784008-6.700377 5.784008h-43.851903c-3.332371 0-6.2123449-2.486054-6.6992612-5.784008l-2.1875696-14.826782-32.1429688 2.293156-1.1414511 16.359817c-.2319654 3.313995-2.7995652 5.95051-6.1055396 6.269808l-41.568595 4.007756c-.2147365.020572-.3720503-2.271468-.5867868-2.271468l-.0562451-8.9913 35.2049774-5.677203 1.1529235-16.506014c.2331025-3.34161 2.9293148-6.043507 6.2731582-6.283514l44.2681581-3.157848c.167659-.011473.333013-.018376.498368-.018376 3.326685 0 6.201989 2.487272 6.688905 5.785125l2.2495 15.256235h32.158198l2.2495-15.256235c.485728-3.296837 3.364555-5.784009 6.695809-5.784009.16306 0 .32612.006092.485738.01726l44.274249 3.157848c3.342727.239997 6.040056 2.942006 6.273159 6.283514l1.151705 16.506014 35.189748 5.702483-.057422 8.968153z" fill="#fff" transform="matrix(1 0 0 -1 0 367.350708)"/><path d="M101.962985 0C90.2687715 2.60002454 78.7001962 6.21862129 67.8542285 11.6776974c.2480395 9.5766453.8671292 18.7527725 2.1222126 28.0735736-4.2119878 2.6985474-8.6385497 5.0146229-12.5729161 8.1733092-3.9972615 3.0751562-8.0804135 6.0182024-11.6995432 9.6147173-7.2308736-4.7826879-14.8831286-9.2773989-22.7670902-13.2452687C14.438447 53.4404599 6.49128575 63.3125443 2.30842229e-14 74.358771 4.88373121 82.2594843 9.9824934 89.6644994 15.4877129 96.6918397h.1531791v67.7979583c.1240159.001012.2489303.006678.3717965.017848l41.5640262 4.006475c2.1771887.210142 3.8831976 1.962995 4.0347244 4.144829l1.2819623 18.347685 36.2560201 2.587682 2.4969935-16.934451c.323811-2.19554 2.208027-3.822054 4.428847-3.822054h43.851395c2.219677 0 4.103559 1.626514 4.427324 3.822054l2.496993 16.934451 36.257543-2.587682 1.28044-18.347685c.152722-2.181758 1.857536-3.933529 4.034724-4.144829l41.547275-4.006475c.122866-.011475.246296-.01663.370304-.017848v-5.41042l.017848-.005947V96.6916037h.153179C246.01842 89.6639588 251.113832 82.2584868 256 74.3585349c-6.489078-11.0469881-14.43997-20.9190725-22.938414-30.0647421-7.881678 3.9674129-15.537968 8.4618954-22.768614 13.2452687-3.618292-3.596515-7.693601-6.539485-11.696497-9.6147173-3.932996-3.1589909-8.365954-5.4750664-12.56987-8.1733093 1.251657-9.320801 1.871546-18.4969282 2.120766-28.0735735C177.300641 6.21838525 165.732828 2.59956007 154.032523 0c-4.671289 7.85121964-8.943126 16.3519486-12.663528 24.6638401-4.41179-.7372197-8.844139-1.0105085-13.281818-1.0633526v-.0059491c-.030967 0-.059864.0059491-.086256.0059491-.027518 0-.057161-.0059491-.084771-.0059491v.0059491c-4.446283.052793-8.875358.3261253-13.287909 1.0633526C110.910047 16.35271 106.641485 7.85121964 101.96319 0h-2.05e-4zM15.5698724 173.456529c.0172596 4.016754.0684109 8.41697.0684109 9.293389 0 39.471586 50.0723696 58.443653 112.2821107 58.662187h.153179c62.210503-.218183 112.266883-19.190601 112.266883-58.662187 0-.892257.054496-5.274351.072877-9.293389l-37.359348 3.603444-1.287902 18.445911c-.155021 2.223104-1.923171 3.992617-4.146275 4.152215l-44.273995 3.158763c-.107942.008117-.215922.011893-.322714.011893-2.200184 0-4.097924-1.615702-4.422907-3.825023l-2.538645-17.216946h-36.125052l-2.538645 17.216946c-.34105 2.317294-2.412246 3.984241-4.745606 3.813145l-44.2739952-3.158763c-2.2231035-.159605-3.991246-1.929111-4.1462754-4.152214l-1.2864549-18.445912-37.3756461-3.603459h0z" fill="#478cbf"/><path d="M69.0786259 99.177945c-13.8277712 0-25.0445607 11.205368-25.0445607 25.035423 0 13.839193 11.2160281 25.049891 25.0445607 25.049891 13.8346241 0 25.0483678-11.210698 25.0483678-25.049891 0-13.830055-11.2137437-25.035423-25.0483678-25.035423h0zm117.8406311 0c-13.836908 0-25.04989 11.205368-25.04989 25.035423 0 13.839193 11.212982 25.049891 25.04989 25.049891 13.82701 0 25.041515-11.210698 25.041515-25.049891 0-13.830055-11.214505-25.035423-25.041515-25.035423zm-58.925645 14.650128c-4.453137 0-8.062139 3.285314-8.062139 7.327348v23.058722c0 4.045461 3.608926 7.327348 8.062139 7.327348 4.453212 0 8.071276-3.281887 8.071276-7.327348v-23.058722c0-4.042034-3.617836-7.327348-8.071276-7.327348z" fill="#fff"/><path d="M71.4748812 109.07668c-9.1822188 0-16.625306 7.447199-16.625306 16.626829 0 9.17963 7.4433918 16.619214 16.625306 16.619214 9.1867874 0 16.6268288-7.439737 16.6268288-16.619214 0-9.179478-7.440346-16.626829-16.6268288-16.626829zm113.0435518 0c-9.179934 0-16.617691 7.447199-16.617691 16.626829 0 9.17963 7.43829 16.619214 16.617691 16.619214 9.189072 0 16.625306-7.439737 16.625306-16.619214 0-9.179478-7.436538-16.626829-16.625306-16.626829h0z" fill="#414042"/></svg>