<svg width="201px" height="256px" viewBox="0 0 201 256" xmlns="http://www.w3.org/2000/svg" preserveAspectRatio="xMidYMid"><path d="M79.8243813 232.915461c.2763996-.059005.8893243.27438.9281367.499179.1377516.795097.2025885 1.654583-.6663198 2.182479-.7114147.432323-1.5504848.748881-2.0990212 1.335557-1.2938278 1.384016-2.3776634 2.964789-3.6806897 4.338709-1.022813 1.078676-1.3469987 2.645763-2.2253304 3.590726-1.7716934 1.905855-1.2520981 3.786808-.7959942 5.79205.0634907.279092.5166785.48011.8067632.693691.235119.173423.5972206.251721.7298117.474949 1.0313376 1.737817 2.7624243 1.641123 4.5119075 1.761598 2.6939975-.023332 5.045637-1.274309 7.3712515-2.604706.6102323-.348865 1.2482844-.651737 1.8441589-1.022588.8327882-.518249 1.6702873-1.038742 2.4445199-1.637533.6109057-.472482 1.3286023-1.115918 1.9316557-.474725.5305884.563568.3650182 1.57292-.3340576 2.103059-2.2679565 1.719869-4.3086463 3.794436-7.1383757 4.670523-.5833107.180602-1.1004378.565588-1.6758963.782085-2.3657731.889325-4.8475356.511295-7.2785947.561325-1.5969253.032979-2.8221019-.976372-3.9526029-2.024761-.4004649-.371524-.9092912-.666769-1.198703-1.108066-.3908185-.595874-.7553871-1.273636-.8832667-1.962167-.1972043-1.061401.1972037-2.222414-.7015434-3.170518-.1521094-.16041.0740354-.749778.2164978-1.104476.3268786-.81484.7004214-1.611508 1.0762081-2.405483.1034256-.218517.2986103-.392389.4206567-.604399.1871081-.324635.366813-.65645.5148838-1.000154.3403394-.789937.5128648-1.701697 1.0196721-2.358819.9175926-1.189953 2.0086077-2.250232 3.0684379-3.324197.5797213-.587573 1.2480607-1.087201 1.8661453-1.637981.1929414-.171852.4217786-.352006.51623-.577926.635584-1.520871 2.0947583-1.496865 3.3634588-1.767431zm23.1708927-2.283751c1.861883-.477642 3.601719.01032 5.299153.72151.251945.105669.549433.372197.60754.615841.130572.549883.12429 1.132072.173871 1.701024-.594079-.01548-1.309531.177237-1.759578-.085478-1.356422-.791507-2.518781-.959321-3.706939.288067-.325308.34146-.909292.528344-1.401965.601707-1.554523.231304-2.8470042 2.779475-1.928739 4.552514.666769-1.726599 2.137609-1.783135 3.416181-2.122801.4229-.112175.950572.169384 1.430457.271015-.187557.395978-.294796.864646-.57658 1.174922-1.049959 1.156525-2.191453 2.143667-3.900104 2.238118-.820225.045543-1.5300692 1.205883-1.4053305 1.977199.186211 1.150019.3719729 2.300487.5427036 3.452974.2317539 1.563272.2245739 1.523114 1.7384899 1.491032 2.07165-.043748 4.147114-.072465 6.215399.020864.460815.020865.897625.575683 1.345428.884613-.384312.449599-.723081 1.232805-1.160563 1.292707-2.339525.31925-4.618026 1.275206-7.060078.753592-.349987-.074709-.823366.210665-1.1791849.42806-.682025.417067-1.1868127.361653-1.5495871-.388126-.4893079-1.011595-1.0026213-2.012646-1.4576033-3.039272-.1456038-.328225-.1877815-.723081-.1929414-1.088323-.0258002-1.855601-.0201917-3.711427-.0329797-5.567252-.0098713-1.479365-.0415048-2.958506-.0327549-4.437647.0011214-.195634.1460518-.520717.290758-.563792.9828781-.293451 1.0104731-1.144187 1.2599505-1.91124.1106052-.340339.4531879-.747311.7778227-.851409 1.4187911-.454982 2.7296691-1.047716 3.7482191-2.180012.112848-.12586.322616-.185313.498955-.230407zm13.845708-1.883488c.128104-.123393.730035.081439.992301.286944 1.465904 1.148001 1.412509 1.75554-.172077 2.659897-2.080399 1.187261-2.206933 4.697445-.430303 6.507054 2.025433 2.062901 3.427174 4.556553 3.682933 7.502945.159513 1.841691-.913105 3.310288-1.944219 4.709336-.208197.282232-.796219.391716-1.209921.393642-.846698.003233-1.694069-.120608-2.639705-.200028-.012115-1.207677.544498-1.919316 1.459847-2.253598 1.464558-.535524 1.818359-.986692 1.600066-2.545702-.102528-.733177-.201466-1.483404-.44713-2.174403-.172525-.485269-.582862-.888651-.900318-1.31873-.21919-.29704-.459693-.578375-.693915-.864198-.530364-.647026-.996339-1.365395-1.607694-1.9247-1.753072-1.60388-2.256739-4.22631-1.139699-6.369079.03455-.065959.116887-.134161.108361-.191147-.387453-2.581822 2.044056-2.966583 3.341473-4.218233zm-58.5194941 5.517221c.0121146.045094.0242297.090414.03612.135956.8917924 0 1.7934562-.079868 2.6717873.029166.5478635.067754 1.1675186.302873 1.5686569.667666 1.2790209 1.16348 2.5156393 2.402791 1.617565 4.39906-.0711188.158167-.0908614.396876-.024454.550331.5895926 1.358441-.2111136 2.306321-.9364382 3.280449-.891119 1.196236-1.6305772 2.560285-2.7162081 3.541369-1.1163668 1.009351-2.0967773 2.374298-3.9180527 2.403464-1.0553435.016826-2.109341.503442-3.1575051.480558-1.35171-.029614-2.7054397-.312968-4.0425671-.568952-1.2987635-.24858-2.7379703-2.903541-2.2998143-4.175831.0782983-.227492.2748292-.504788.482129-.581516.9739044-.359634 1.0829385-1.273188 1.5166075-2.032165.8040713-1.40847 1.1619096-3.105007 2.6047064-4.13455 1.5536252-1.109187 3.0190808-2.344684 4.5998529-3.41147.5476387-.369729 1.3252365-.398894 1.9976145-.583535zm77.5902961-14.077147c.114195.061023.227042.095124.305565.166916 1.523787 1.387382 1.525806 1.391869-.148968 2.605155-.561549.406523-1.151366.774458-1.70753 1.187935-.842211.625937-.628629 2.575765.198774 3.658479 1.269149 1.660192 2.404811 3.422014 3.60486 5.135377.627059.895157 1.307064 1.755541 1.900022 2.67246 1.444143 2.233407 1.471065 4.597385.58174 7.038765-.150538.413253-.166019.873844-.275951 1.304147-.069772.272362-.124738.61988-.315212.777374-.699748.578599-1.583688.99275-1.242451 2.199306.028717.102079-.728017.513986-1.161013.638725-.674621.194062-1.419463.169608-2.072098.407868-1.453117.530589-2.813352.424471-4.239996-.14134-.716575-.284028-1.029767-.705133-.795546-1.313571.164449-.426489.662506-.941822 1.076881-1.008005.830321-.132592 1.710447-.033204 2.560285.059677 1.086753.118905 2.167673.334057 2.269079-1.269374.004263-.070221.042177-.190473.082785-.198999 1.405779-.291431 1.636635-1.496415 1.986621-2.584514.170282-.53014.485045-1.202069.302424-1.621155-.501422-1.150917-1.230336-2.202671-1.873548-3.290994-.055639-.094227-.202364-.165795-.207524-.25374-.125637-2.181806-2.12527-3.036805-3.188915-4.551842-.760323-1.082938-1.421034-2.242156-2.053253-3.406534-.376235-.692793-.824712-1.449302-.869582-2.19953-.123617-2.061554 1.247612-3.428969 2.658775-4.631711.733401-.625264 1.739836-.93038 2.623776-1.380875zm-75.7945967 16.71932c-1.2043121-.400914-4.5621623.747759-5.3036401 1.776629-.4237976.588023-.8460247 1.212389-1.3968044 1.664455-.706479.58017-1.2337017 1.167294-1.1879346 2.14075.0085257.181948-.1198031.430528-.2656306.549882-1.3137948 1.073965-1.591092 1.807815-1.0786757 3.298622.1175592.342134.4374826.758752.7535923.858589.6629547.209767 1.3853626.231978 2.0833165.330916 2.8037049.403382 4.4138662-1.757784 6.4460308-2.991038.1063423-.064388.1996718-.25531.1940628-.382741-.048011-1.069702 1.1006627-1.419239 1.3519349-2.165204.2692201-.799584-.1435843-1.802879-.0843558-2.706113.0713435-1.088772-.433669-2.016236-1.5118961-2.374747zM42.5873121 222.37948c.4630586-.657571 2.4095213-.273708 2.9665833.370402.1339367.15525.3479669.248356.537094.34707.9404762.491551 1.0210183.621674.9543861 1.637757.1002502 2.654178-1.4359402 4.570302-3.013521 6.344744l-.2559349.2866c-.6746213.752919-1.8948622 1.080919-2.4023423 2.15264-.0139099.029615-.0592285.065511-.0883944.064389-1.6474038-.080093-2.6410508 1.051305-3.8007171 1.944219-.348416.267875-1.0593816.027595-1.5915405.10522-.4107854.060351-1.0910152.178359-1.1493465.401587-.2023636.775131-.8397429.938009-1.347223 1.33466-.4159453.324859-1.0102493 1.054895-.8924652 1.295847.2339971.478987.8659916.826731 1.4042081 1.076657.6102324.283578 1.2980901.399568 1.9516226.590041.2808867.081663.6023806.301302.8339096.229286 1.3797541-.43008 2.4516994.259573 3.6333522.78029 1.1547307.508826 2.4714426.646128 3.6358203 1.138353.4592449.194063 1.0046403.929034.9730068 1.37953-.0592285.844678-.950796.739234-1.5329849.625039-1.712017-.336525-3.400477-.792853-5.105763-1.166397-.6874092-.150538-1.3938883-.277521-2.0940849-.292104-1.1663973-.024454-2.2930839-.057658-3.2941347-.8025-.3013027-.224126-.780066-.193839-1.1565254-.336077-1.2770019-.481904-2.6156997-.866665-3.7796289-1.547344-.4531873-.265182-.7903858-1.286199-.6598137-1.839896.1406676-.595874.8011547-1.236169 1.3959072-1.522665 1.2897893-.621226 2.0768099-1.634391 2.8835736-2.745374.8792282-1.210145.9741287-2.865177 2.4658336-3.775814.6542053-.398895.6779859-1.74365 1.3068401-2.295328.627956-.551004 1.6110589-.625264 1.7546431-1.758681.0412806-.325981.6185338-.624592.9992561-.854774.3084816-.18666.9057017-.157943 1.0048646-.385659.6710317-1.541959 2.5605092-1.498659 3.4635191-2.781718zm-17.089431-12.470172c.8251603-.899869 2.0700795-.682473 3.0208761.383864.6106814.684716 1.3994967 1.127808 2.0700794 1.674774 1.1536093.940925 2.7550212 1.411836 3.4265015 2.969948.293899.681352 1.0766567 1.163705 1.3263584 1.849768.4628344 1.271168.6970563 2.625571 1.0670097 4.108301-.3531274.789713-.5608752 1.67657-1.0759839 2.315744-.9777181 1.212164-1.5376963 2.921264-3.4000273 3.208433-1.0672345 2.173729-3.3284606 1.284629-4.9974017 1.902938-2.1008159.778496-4.249867.313642-6.3479905-.272361-.2111136-.059004-.4769685-.137975-.6551023-.061921-1.0548951.450496-2.0379974.474053-3.0599128-.159064-.1738716-.107912-.7811878.263612-1.03246.550556-.404055.46104-2.7213684 2.847004-3.1835299 3.200356-.3152121.240952-.5532477.585779-.8119236.895382-.2454391.294123-.4145992.756733-.7208373.873395-.6088865.232203-1.28911647.277522-1.93973215.400016.04240218-.618309-.05272227-1.289565.15928867-1.843037.33383319-.870478.46373196-1.989537 1.75195108-2.149723.1875568-.023109.3351792-.368383.5014227-.56469.2721369-.32127.5597539-.630649.8123723-.966725.2304076-.306463.5707469-.636033.5833106-.965603.0091983-.242972-.3948564-.56312-.6813517-.741927-.5613243-.35066-1.1419427-.712536-1.7651877-.911086-.74708628-.238036-.71208764-.79936-.5005254-1.230113.1743202-.354473.6871848-.743048 1.0580357-.751349.5155569-.011217 1.0930344.23153 1.5486898.517352 1.7636172 1.106047 3.0009088.754939 3.9974725-1.117488.5635681-1.058261 1.1865884-2.096105 1.8903751-3.065298.7883667-1.085855 1.7831357-2.02678 2.5315681-3.136416.778944-1.154507 1.3169362-2.46875 2.0593111-3.650852.7143308-1.137455 1.4641094-2.278501 2.3673435-3.263174zm18.0776939 15.803119c-.2310811-.243644-1.1989279.207748-1.8300253.352005-.0655103.014807-.1236168.082561-.1747687.135732-1.1679672 1.214857-2.3754202 2.394939-3.4877489 3.658704-.8529795.968745-1.8250891 1.909669-1.991557 3.283814.0879453.096247.1758906.192718.2638359.289412.9045799-.601931 1.8964327-1.106944 2.6944465-1.826884 1.4217075-1.282834 2.7231628-2.69826 4.0809305-4.052214.5420302-.540684.9862438-1.269822.444887-1.840569zm7.9331812-207.5838732c2.2497844-.677089 4.4416859-.2986102 6.4103593.6402956 1.1845694.5651382 2.3861891 1.7627198 2.8683181 2.9623205.6005853 1.4939483 1.4912558 2.785757 2.165877 4.2088105.14336.3021998.3930618.5694009.4720329.8834913.4027087 1.5998415.9027856 3.1940743 1.0874256 4.822184.1002847.884613-.3091545 1.8484216-.5871245 2.746047-.1462761.4722572-.2575541.8265063.3515569.8953818 1.0228125.1157647 2.8770675-1.1637047 3.2171821-2.2163561 1.3505887.5413572 2.4487833.3183531 3.5418174-.7854501.5171272-.5225117 1.6433658-.3831902 2.4092975-.7300357 1.6469547-.7459645 3.2055161-1.6911521 4.8636888-2.4081755 1.6783639-.725773 3.3668239-1.3052697 5.3175494-1.2047608 1.9796666.101855 3.9676341-.3472941 5.9784851.1249631.8756387.2055049 1.2148567.544498 1.2424517 1.3819975.0296604.9046498-.5314861.9409801-1.1446039.9500173l-.1368851.0019008c-2.4519237.0381395-4.9105778-.007628-7.3524059.1738714-1.0136145.0753817-2.0012039.6160657-2.9809417.9963394-.8390695.3259809-1.6545827.7145555-2.4723397 1.093483-1.5845853.734074-3.1532422 1.5031467-4.7499432 2.2100743-.5723175.2532914-1.2442464.2898605-1.8044488.5622217-1.6532371.8038469-3.2728211 1.6761206-4.9060912 2.5205749-.0978167.0507032-.2016908.1379754-.2995075.1341614-2.6123339-.1065663-4.3209857 1.7885202-6.3852318 2.8867146-1.6420196.8736198-3.2544246 1.8031026-4.8773744 2.7121701-.2265939.1267577-.4383803.2797648-.6573462.4202081-.6582438.4217781-1.3312946.8226921-1.9711414 1.2709438-.7298112.5115186-1.3662928 1.198255-2.1548839 1.5769578-2.9228351 1.4044329-5.5867695 3.1420253-7.8255606 5.5122855-1.8167882 1.9231305-3.6766518 3.8056533-5.4979271 5.7247453-.160186.1687111-.1325911.5027687-.2678739.7107413-.3185778.4893079-.592285 1.2121644-1.0468185 1.3685367-1.1444108.3939588-1.4356174 1.3256856-1.8558249 2.3085637-.9559566-.029614-1.3864846.4758471-1.927842 1.3483448-.776925 1.2525479-1.0842847 2.9883455-2.7570401 3.5799571-.6322188 1.9233543-2.9979919 2.7563668-3.1456148 4.9991965-.0139093.2093188-.2429713.4825769-.444213.5884707-.9292587.4881859-1.0955023 1.2855269-1.1495708 2.2461943-.0455434.8087828-.085702 1.744099-1.1944407 2.001204-.1444814.0334282-.2375872.3275514-.3371985.5101724-.9034585 1.656378-2.1566786 3.2259326-2.6029112 4.9982993-.4300795 1.7088755-1.7903152 2.4422767-2.5941623 3.7013301-.843781 1.3214228-1.657948 2.6666273-2.4007717 4.0466051-1.6752232 3.1130842-2.8817788 6.3975719-3.3823042 9.9142617-.3089303 2.171711-.2665281 4.464121-.99364722 6.481703-.54135713 1.502249-.06416416 2.512498.20326132 3.811262.24229825 1.176268-.30018063 2.493428-.32171827 3.751136-.02265933 1.320974.1736471 2.64464.25441319 3.968306.10611768 1.738266.26585501 3.47698.27325861 5.21592.01839672 4.176728-.16534614 8.358392-.01390972 12.528839.08009309 2.208279.68449259 4.398162 1.06342009 6.59455.1709549.992526.2930014 2.002551.5741123 2.965237.3520055 1.205434.8727224 2.360614 1.2671302 3.555279.2847004.862627.65084 1.747912.6831465 2.634096.0652859 1.786726-.100509 3.58063-.1076882 5.372066-.0022435.49716.145379 1.027525.3502107 1.486321.4794365 1.074413 1.0436774 2.110687 1.5581127 3.170069.6331159 1.303699 1.2579315 2.611885 1.8708562 3.92568.1868838.400914.3194749.826955.4816804 1.23976.2712391.689428.4765194 1.416322.8318906 2.059759 1.3714527 2.482884 2.7783532 4.946474 4.2007336 7.400417.4049526.698627.9633602 1.309533 1.3553001 2.014217 1.6626592 2.99014 3.0599127 6.120499 5.0956668 8.91321.8152889 1.118162 1.6184627 2.130655 2.6973632 3.026709.9700901.805418 1.3683118 2.1237 1.7279453 3.667005-2.6349938-1.010249-4.5780912-2.302731-5.9412431-4.533221-1.3171599-2.155333-2.8963616-4.147563-3.762129-6.566058-.0747087-.208422-.5202685-.284252-.7937515-.422003-.1525579.341237-.5218385.77356-.4226757 1.008903.6205528 1.475327 1.2785723 2.9437 2.0521316 4.343645 1.0903423 1.973385 2.3334668 3.861965 3.4336804 5.830189 1.0925856 1.954764 2.0629005 3.97773 3.1494291 5.936083.2171706.391267.6750698.709396 1.0932583.918491 1.9177458.95775 3.4493851 2.647781 5.6823429 3.006742.1058932.01705.2272667.051824.303546.120475 2.1889854 1.973161 4.8156778 3.456789 6.5665072 5.923296.8608317 1.212837 1.6227255 2.576213 2.7319127 3.5131 1.4143038 1.19444 2.7200225 2.733932 4.919552 2.669319 1.4804874-.0433 2.970397.169833 4.4529034.304443.3820685.03455.7517982.205953 1.432925.402933-.5043391.339218-.7342982.557062-1.0077812.667442-1.2693732.513538-2.5562464.984898-3.8236012 1.503147-.2405032.098489-.4220023.341461-.6306483.5178.218293.159289.4226756.345051.65959.468444.1579421.082336.3618768.101854.5458439.104771 1.0048646.01548 1.8695106.284476 2.8149224.75292 1.665576.824935 3.5200553 1.296295 5.3280941 1.798391 2.4640383.684492 4.9473712 1.308859 7.4434921 1.864575 1.984378.442194 4.0030813.728465 6.0009201 1.113899.8029495.155026 1.5827911.509275 2.3870868.561548 1.3167114.085478 2.6475569-.064837 3.9674092-.002468 2.4573085.116214 4.9094564.350211 7.3672134.456104.7600985.032531 1.5300688-.203485 2.2984681-.293674.3692806-.043299.7906101-.152558 1.1098607-.028717 1.8264353.708274 3.5030044-.035896 5.2450844-.391715 2.2809683-.465975 4.5996283-.743273 6.8918153-1.159442.594976-.107912 1.141718-.46104 1.72817-.64568.492673-.155251 1.010698-.322391 1.517504-.322616 1.729068-.001346 3.37535-.218517 4.80491-1.312897.188902-.144482.50232-.118009.750227-.19541 2.25988-.704908 4.52133-1.405554 6.77605-2.126391 3.135744-1.002397 6.28405-1.970917 9.390404-3.058342 1.24806-.437035 2.381478-1.192422 3.602391-1.721216.642315-.27797 1.373248-.343704 2.041588-.571644.653308-.222555 1.270719-.548536 1.917521-.79263.478988-.180602.990282-.449373 1.468821-.416169.727792.050703 1.189056-.135508 1.588848-.747311.169161-.2589.582638-.456777.90817-.49716 1.071946-.132367 1.877139-.591836 2.693998-1.34139.729138-.669012 1.815218-.97727 2.778578-1.355973 1.288443-.506358 2.648454-.843557 3.90504-1.413631.891343-.404054 1.61779-1.162134 2.498588-1.599841 1.000378-.497385 1.909894-.958649 2.62759-1.925374.467547-.629078 1.503147-.824936 2.264143-1.250753.859262-.480782 1.765637-.914676 2.526857-1.524684 1.218895-.976596 2.33773-2.078605 3.492236-3.134845.162429-.14852.267425-.361429.434342-.502994 1.17223-.994545 2.544132-1.828903 3.472942-3.012126.770418-.981308 2.052804-1.416099 2.502851-2.77095.287168-.863748 1.072618-1.682403 1.840345-2.236099 1.009576-.728241 1.632596-1.649647 2.159371-2.712394.122944-.248132.355595-.468444.587573-.630873.702216-.492449 1.09999-1.15675 1.564843-1.882074.798239-1.245144 1.50539-2.726753 3.049593-3.362562.184191-.076055.384761-.238484.467995-.412804.604175-1.268028 1.114123-2.585412 1.783808-3.816422.664077-1.220466 1.486769-2.354107 2.226452-3.534189.325532-.519147.612925-1.062074.926118-1.589522.316334-.532607.638276-1.062074.966501-1.587727 1.127135-1.804897 2.259207-3.60643 3.382753-5.413347.055863-.089515.014807-.27797.080317-.316782 1.885664-1.117264 1.396356-3.49246 2.696017-5.042496.867338-1.034703.737663-2.897034 1.080471-4.382682.113521-.492449.303097-.967622.46934-1.44661.097144-.280214.308706-.551004.312296-.828077.036569-2.695568 1.842813-5.03913 1.525133-7.820176-.05878-.513763.408317-1.067683.527672-1.625642.205729-.961341.354024-1.93704.481679-2.912739.322616-2.468077.7684-4.932116.889325-7.41141.139321-2.854633.035447-5.725418-.065511-8.585436-.059677-1.694292-.277296-3.38679-.497608-5.070315-.211787-1.618238-.106791-3.463743-.873844-4.783147-1.367864-2.352761-.785002-4.870419-1.308636-7.26289-.312519-1.428887-.584432-2.867869-.942046-4.285314-.059453-.23467-.466648-.38162-.463957-.379601-.265854-1.308859-.301077-2.500608-.763239-3.4938063-.544273-1.1702105-1.495743-2.1445634-2.198857-3.2492641-.458572-.7206132-.796667-1.518627-1.175371-2.2888211-.626834-1.2749828-1.246489-2.5535546-1.862331-3.8341459-.809455-1.6832996-2.194145-2.9950758-2.877291-4.7921209-.808335-2.1263918-2.597752-3.5916231-4.113014-5.223098-1.236169-1.3308455-2.630058-2.5515356-3.664088-4.0246192-1.534331-2.1862931-3.787032-3.6109167-5.48312-5.5809362-2.611212-3.0332155-5.889867-5.2410459-9.034584-7.602781-1.444815-1.0849581-3.317467-1.5924382-4.796608-2.6428461-1.330621-.9449627-3.059688-1.2678028-4.090802-2.6782928-.180826-.2472342-.674397-.2447661-.986244-.4229005-.577028-.3293462-1.129379-.702889-1.685319-1.0681316-.116886-.0767277-.187781-.2366895-.309827-.2907574-1.758906-.778944-3.517588-1.5592342-5.287936-2.3119295-1.096848-.4664243-2.224432-.7439453-3.175677-1.6368596-.731607-.6865116-1.914156-.8938109-2.897708-1.3108781-.265855-.1126241-.728016-.1599617-.774906-.3282242-.316109-1.1313986-1.249855-1.1257896-2.124148-1.2776747-.554818-.096471-1.234375.0031409-1.362255-.8466981-.021088-.1393215-.342582-.2873923-.547863-.3365252-1.353056-.3250833-2.714189-.616739-4.068815-.9357648-.394408-.0926566-.796444-.1960823-1.159442-.3692805-.92208-.4392779-1.81477-.9398033-2.735728-1.3811003-1.357767-.650391-2.778128-1.1859151-4.084296-1.9247005-1.780667-1.0068839-3.743283-1.4174449-5.663497-1.976077-2.173729-.6322189-4.360696-1.2193435-6.542053-1.8250892-.106566-.0296142-.226594-.0937784-.322167-.0697729-2.733932.6907744-5.368477-.32284-8.049462-.4334446-3.3825286-.1393216-6.8018506-.1839673-10.1612713.1617565-2.7173301.2797647-5.3689256 1.1973572-8.0494622 1.8331657-.2180682.051825-.4374832.171628-.6503915.1590644-1.6350644-.0955732-2.9087005.9575268-4.3862712 1.3544024-.1790315.0480109-.3562683.123617-.5379922.1375267-3.3058008.2553107-5.838266 2.318884-8.7070326 3.6156285-1.4322522.6474749-2.4247773 1.7304134-3.6562358 2.5555736-1.1356608.7614447-2.1470321 1.7061837-3.2362524 2.539869-.2436442.1864348-.7006458.1642246-.8543256.3825171-.3060136.434118-.4697896.9687445-.6921207 1.4620904.4767443-.0024676.9902824.108137 1.4223809-.0318578.7571818-.2452146 1.4625389-.6479234 2.193472-.9765962.3046679-.1368539.7596499-.163776.9050289-.3935103.7098443-1.1201811 1.781341-1.106944 2.91588-1.1868127.6660961-.0468896 1.393664-.3522303 1.9388351-.7520225 1.2022925-.8821448 2.5851876-.6104566 3.8904572-.772213 1.1067197-.1370782 2.2363235-.0935544 3.3556064-.1220469 1.1444108-.0289412 2.2477653.0361206 3.3666002-.5498826.6826973-.3578382 1.6821777-.1177835 2.5396447-.1337124 2.8710099-.052498 5.7422441-.1460524 8.6130298-.1366296 3.3558307.0109932 6.7109886.1485199 10.0668203.1651222 2.367567.0118903 4.680394.2694444 6.931749 1.032908.33989.1153166.749105.1184575 1.10986.0646132 3.124526-.4659758 5.804614.7856744 8.504894 2.0806242 1.484974.7118632 3.108597 1.1354366 4.591776 1.850665 1.271393.6129247 2.446764 1.4331493 3.637614 2.2031196 1.271842.8224678 2.545478 1.6494228 3.757643 2.5553488 1.427541 1.0667853 2.784411 2.2275736 4.18301 3.3336205.80452.6362574 1.611957 1.2718414 2.451251 1.8603121 1.627212 1.1408208 3.311858 2.2015491 4.907886 3.3832013 1.345204.9958909 2.579579 2.1396283 3.89629 3.1756778 1.993576 1.5682085 3.957538 3.1855492 6.046688 4.6175765 1.408471.9653793 2.808192 1.8430376 3.898758 3.2277273.678884.8619537 1.832942 1.3317427 2.668422 2.0931873.973231.8873053 1.770348 1.9697953 2.754797 2.8422936 1.22226 1.0829386 2.564098 2.0299209 3.8411 3.0520605.424022.339666.88753.6737236 1.193095 1.1087387.756957 1.0771058.813269 1.1554041 2.204689 1.3252371-.047786 1.5650675 1.556543 1.928739 2.240586 2.9986653.051152.080093.230408.078074.282233.1579427.519595.8042956.983551 1.6182383 2.107322 1.7660849.270117.0354473.494692.5969958.695037.94272.454085.7832063.853204 1.5989437 1.323217 2.3718307.814841 1.339595 1.683973 2.6459865 2.495897 3.9871527.458348.756957 1.058933 1.512569 1.22742 2.343562.447354 2.206261 1.908099 4.160351 1.515262 6.598365-.106118.659141.686735 1.42597.693691 2.146807.038588 4.100674-.065286 8.202918-.064164 12.304265.001346 4.513254.230631 9.033238.047337 13.537742-.147846 3.632903-.71478 7.253019-1.1913 10.865955-.188229 1.427765-.732503 2.807968-.933521 4.235284-.170282 1.207229.001347 2.459776-.128553 3.676428-.107463 1.008229-.435015 1.992903-.662954 2.988344-.230857 1.010025-.491327 2.01489-.677987 3.033216-.151885.828525-.298162 1.548689-.916022 2.275809-.704459.828974-1.047491 1.997166-1.431579 3.059912-.690998 1.911914-1.777078 3.584445-2.883125 5.267071-.547863.83391-.717921 1.927169-1.304372 2.721593-.645007.873844-1.558561 1.554523-2.379908 2.291289-1.135436 1.01855-2.294429 2.010851-3.441981 3.01594-.055639.04846-.089291.123169-.1465.168711-1.543306 1.228318-3.088406 2.454616-4.634179 3.680018-.087497.069324-.23669.110155-.266753.196082-.612251 1.749034-2.433975 1.553176-3.663414 2.30632-1.031563.631995-2.003672 1.360909-3.001807 2.04742-.120252.082786-.22794.194736-.359409.248805-1.557215.639398-3.108821 1.293603-4.679721 1.897105-1.69205.650168-3.422239 1.203864-5.099257 1.888357-1.235272.504563-2.380805 1.233926-3.625276 1.709324-.97009.370178-2.020498.62661-3.053631.711863-1.410714.116438-2.838703.019519-4.259513.022884-.184192 4.48e-4-.387678.011891-.54921.088394-2.563874 1.213959-5.357708 1.011147-8.002124.86487-4.094617-.226593-8.10196.595426-12.159334.517576-4.963301-.095125-9.925031-.28313-14.8883312-.38162-1.9368156-.038364-3.88956-.072913-5.8113438.123842-2.3633056.242074-4.5718094-.29861-6.8184528-.834135-1.0723939-.25531-2.195491-.336076-3.3013137-.402708-1.535453-.092657-2.9973191-.032531-4.5509448-.658693-2.3554527-.949225-4.9422113-1.32546-7.4320503-1.939283-.215825-.053171-.4661995-.010095-.6602623-.099611-2.140526-.98602-4.3342228-.941598-6.5629178-.383415-.1404433.034999-.3288976.059453-.4421946-.004487-1.5538494-.876312-3.3383313-.250824-4.9132701-.735196-1.4230537-.437931-2.7606296-1.18255-4.0941675-1.8731-.9537127-.493795-1.8854395-.743497-3.1723121-.404728 2.0725475 1.337801 3.100969 3.582201 5.4111032 4.297878.259573.080542.6225717.633789.551453.821122-.1978771.521165-.4996283 1.118834-.9420467 1.405554-.8220193.532608-2.0487663.037691-2.575541-.859934-.1433595-.244542-.3017507-.51466-.5247552-.671929-1.1652748-.82202-2.4615707-1.494398-3.4996392-2.449681-.8390701-.772213-1.4160985-1.847075-2.0353056-2.834441-.4762951-.759425-.8193269-1.601187-1.2657838-2.381029-.0839073-.146501-.3919398-.261817-.5671576-.230183-.1527822.028044-.2932256.268771-.3838633.443989-.0625936.121149-.0323063.290758-.0419533.438829-.0453186.711415-.2169469 1.375267-1.0243829 1.537472-.6073163.121823-1.8535817-.867114-1.7723673-1.544202.1743201-1.449752.443765-2.90915.8834915-4.298327.2559836-.808782.531037-1.457379-.1850891-2.119661-.130572-.1207-.2905337-.289411-.3026483-.446232-.1583913-2.069855-1.8091602-3.198113-2.8909774-4.692061-.465751-.643437-.7004215-1.449527-1.0946046-2.15107-1.0575874-1.88185-2.1445639-3.747098-3.2196502-5.619076-.3627744-.631995-.7578552-1.247837-1.0809195-1.899798-.8859591-1.787847-2.176646-3.355382-2.6466598-5.378124-.3396666-1.460745-.746862-3.015492-1.5709008-4.222945-.8348073-1.223382-1.0562407-2.430386-1.2283176-3.802063-.0989379-.788816-.7486566-1.494397-1.0591573-2.27379-.6972805-1.750829-1.3705556-3.513101-1.9814613-5.295339-.1880052-.548087-.1660193-1.175146-.1985499-1.768328-.1965309-3.570983-.4123558-7.141293-.5581834-10.714295-.1009575-2.479294-.0960219-4.963075-.1456033-7.444389-.0251274-1.259727-.1859862-2.530222-.0699974-3.775366.1467252-1.576733.1920438-3.284039.845352-4.668953 1.8109549-3.83796.6831464-7.976548 1.5498114-11.882486.0782982-.352903.0998356-.83548.3338333-1.015634.850287-.653981.8260573-1.581669 1.0124926-2.485576.5317098-2.574419 1.0887712-5.1461458 1.7371438-7.6929695.212684-.8357048.833461-1.5621508 1.0910151-2.3931443.2822329-.9095155.3634472-1.8816252.5252037-2.8274861.0565366-.3306918-.0242298-.7592008.1563722-.9824295 1.2449198-1.537472.8630756-3.5153439 1.4811602-5.2038039.4525145-1.2368427 1.1365585-2.3895543 1.7234587-3.5768156.163327-.3306924.3988945-.6337893.5142111-.9788401.3650177-1.0925856.8188783-2.0712014 1.6364105-2.9690513.6196551-.6804541.7675022-1.7896419 1.1309495-2.7058883.1444813-.3643444.2102159-.823814.4722571-1.0676825 2.0934121-1.9505012 4.2247395-3.8606189 6.3459708-5.7812813 1.195787-1.08249 2.2921863-2.3193327 3.6272947-3.1882415.9290344-.6046239 1.4311302-1.4322517 2.1250456-2.1705885.7185936-.764137 1.8123011-1.2637648 2.8308513-1.6337182 1.1040273-.4013625 1.9186434-.9739044 2.5753162-1.9630648 1.2128377-1.8271081 2.4119899-3.6993111 3.8848492-5.3070048 1.2328041-1.345653 2.829056-2.3655488 4.2992236-3.4839351 1.2913597-.9824296 2.5811495-1.9834804 3.9622493-2.8277104 1.6718583-1.0216911 3.5162415-1.7719182 5.139864-2.8577732 1.233029-.8244872 2.565445-1.0874257 3.9254564-1.4768977 2.8979321-.8303202 5.7171168-1.9417513 8.6255935-2.7265284 1.4881149-.401587 3.0980524-.3641205 4.6552675-.4962628 3.8399787-.3257565 7.6797331-.663628 11.5241988-.9272395.790834-.0542928 1.600066.2185171 2.40481.2986102.692046.0688755 1.384366.1350339 2.076819.1998545l4.155182.3839048c.147847.0139097.324411.0087496.435464.0868235 1.815217 1.2785721 3.948115.5584078 5.899289.9584243.447579.0919835.862852.3349548 1.299437.4902052.860832.3055651 1.725477.6005856 2.589675.8962792 1.310205.4478031 2.633648.8597102 3.92927 1.3456527 2.212093.8296473 4.41454 1.6868895 6.607339 2.5665666 1.91797.769297 3.964717 1.3535054 5.683689 2.4458667 1.733778 1.1020083 3.511978 2.0913925 5.420975 2.694895 1.526703.4828018 2.79675 1.2949492 4.156761 2.0355299 1.781116.9696415 3.658928 1.7613735 5.496132 2.6278143.166692.0785225.416618.0931052.499852.2207606.973007 1.4932748 2.862934 1.5581123 4.102245 2.6639343.813718.7259974 1.751502 1.5428568 2.756815 1.7665341 1.265111.2815595 2.325615.665647 3.186895 1.6240711.094676.1052203.363896.106118.539563.0778497 1.105149-.1779096 1.56058.51623 2.194818 1.2828346.746862.9030099 1.897106 1.4645585 2.837357 2.2179265 1.371229 1.0981946 2.7106 2.2360988 4.065227 3.3553822.336974.2786429.674621.5568372 1.021691.8224678.334057.2557593.686736.4870646 1.020569.7432725.483699.3715238.954835.7594257 1.438983 1.1305009.083682.0641641.245888.048011.302648.1218221.823814 1.0737406 1.636186 2.15623 2.450129 3.2375987.15368.2046074.284028.575907.455431.5945277 1.346102.1465009 1.845505 1.3721261 2.703645 2.1100143.730484.6281803 1.169538 1.5901944 1.886785 2.2392397 2.065618 1.8689871 3.391866 4.2243873 4.692056 6.608308l.487743.8944126c.342358.6257126.949898 1.1044764 1.30168 1.7265996.481455.8505119.805192 1.7887442 1.256586 2.6585502.203261.3919398.575907.6923449.826281 1.0647663.225921.3363009.544274.7118633.55078 1.074862.017724.9920766.296815 1.535453 1.331294 1.9695704.59924.2514971.778944 1.4246242 1.226523 2.1331222.836602 1.3238909 1.11704 2.8844713 2.170589 4.1742605.76324.9346438.850511 2.4866978 1.060952 3.7919678.348865 2.164307.326878 4.41297.896279 6.508176.40742 1.499557.463284 2.972416.658693 4.464346.118905.906375.682024 1.758681.77513 2.663486.26563 2.5807.518249 5.174638.542877 7.765434.022485 2.830403-.359583 5.666639-.296541 8.4939.05519 2.476827-.615392 4.762732-1.13768 7.119531-.367261 1.656378-.289636 3.406758-.524979 5.099257-.145155 1.042779-.503442 2.055497-.770194 3.081002-.065287.251048-.174994.493346-.216499.747534-.338993 2.077933-.663404 4.158332-1.00307 6.236264-.035223.216274-.126309.427163-.214927.630424-.68023 1.559907-1.476 3.080329-2.018928 4.686004-.518698 1.533882-1.255464 2.906457-2.075464 4.292493-1.102009 1.862107-1.871754 3.917828-2.90197 5.827049-.584433 1.082939-1.416099 2.031267-2.110014 3.057669-.179481.265406-.267426.594752-.384537.89942-.10522.27438-.108137.666096-.302424.815514-1.184794.910188-1.545773 2.293308-2.192126 3.527234-.418637.799584-1.124219 1.445264-1.668044 2.184049-.325308.441522-.591836.92724-.873171 1.399722-.0949.159288-.120476.368607-.236017.505461-1.009351 1.197357-2.040016 2.376542-3.046003 3.576367-.355595.424246-.630648.916919-.995217 1.332191-.505237.575235-1.064093 1.103355-1.592214 1.658846-.248356.261368-.491327.530364-.713883.813943-.157045.200569-.22951.561324-.418189.627956-1.443917.509275-1.718522 2.183377-2.942577 2.908253-.174993.103649-.197204.449373-.315213.669236-.149865.279092-.269668.611803-.500076.803174-.861953.716126-1.959475 1.239311-2.601117 2.106649-.787918 1.065439-1.891272 1.806244-2.649127 2.735054-1.345428 1.649198-3.154813 2.356574-4.765648 3.472268-.831218.575683-1.435168 1.487667-2.28052 2.033286-1.267018.817757-2.581738 1.563329-3.902043 2.298048l-1.320607.733373c-1.754643.976596-3.498517 1.983256-5.31194 2.839601-1.801757.850512-3.688991 1.518851-5.526868 2.295327-.380049.160635-.710069.441522-1.058261.674621-.117559.078747-.206177.232202-.330691.264509-1.521544.395754-3.05251.755163-4.568893 1.169314-.566036.154802-1.106047.413028-1.646955.649718-.822692.359633-1.640898.730933-2.450802 1.118835-.374665.179704-.725549.408766-1.085631.618533-.151212.087945-.286944.217171-.448701.269893-2.047196.669686-4.093718 1.341391-6.14944 1.984154-.85096.265855-1.751951.389921-2.579355.710517-1.326807.513986-2.607398 1.146206-3.916033 1.708651-.338096.145604-.707601.217396-1.062523.323514-1.311327.392613-2.620186.794424-3.935776 1.172454-.351781.101182-.722632.14336-1.08765.189352-.368383.04644-.797565-.045543-1.101559.112624-2.067388 1.075759-4.389189 1.065215-6.586475 1.561477-2.787552.629527-5.6314151 1.006211-8.4366905 1.563497-3.8552347.766156-7.7118151.333384-11.5701907.116887-1.8607607-.104323-3.7354312-.135732-5.5746544-.400914-1.8964327-.273483-3.7583152-.789264-5.6338834-1.204985-.1803777-.040159-.3463969-.144482-.5267747-.185763-1.9312065-.443092-3.8520932-.946084-5.8005754-1.295173-1.4239508-.255311-2.9129633-.175218-4.3209852-.482354-1.5029224-.327775-2.9715189-.867113-4.4066877-1.435841-2.1297565-.843557-4.2420141-1.741631-6.3118693-2.721817-1.0221402-.484373-1.954764-1.172903-2.8887341-1.824865-1.6265392-1.135437-3.2676611-2.257412-4.8159021-3.493582-1.0445746-.834359-1.9343474-1.861658-2.9073548-2.788-.2055045-.195634-.4944678-.3022-.706479-.492898-.463732-.416842-1.1410451-.787693-1.302353-1.309981-.3322628-1.074862-.9541617-1.546446-2.0032235-1.550484-.6752941-.002468-1.0705991-.192268-1.4876663-.845801-.7854501-1.23101-1.609937-2.507338-3.0827963-3.127218-.2651821-.111726-.3641206-.588022-.5711962-.872722-.6860625-.943169-1.2853021-1.977423-2.1023858-2.791366-1.7840333-1.777527-2.7034201-4.118397-4.140608-6.119826-.571869-.796443-.5880221-1.994473-.8455762-3.012799-.1240653-.490206-.1290016-1.033581-.3479669-1.473084-.7394587-1.482506-1.5998419-2.905336-2.3235955-4.395021-1.3153657-2.707459-2.5463756-5.456198-3.8612923-8.164105-.2337728-.481231-.7250997-.831442-1.0598301-1.27072-1.3703314-1.797269-1.9650839-3.929045-2.6100909-6.043996-.0913106-.299283-.4417456-.519146-.6723777-.776027-.4830261-2.150172-1.6081425-4.063656-2.4849033-6.066879-.2355677-.537992-.4033817-1.105822-.629078-1.64875-.3937347-.947207-.8235897-1.879606-1.21036959-2.829954-.50770456-1.246714-1.24177855-2.470769-1.41654739-3.766616-.22367721-1.658173-.96493041-3.097828-1.5134667-4.595366-.96021902-2.621308-2.29106467-5.104417-3.37175975-7.685118-.48414786-1.156076-.66138454-2.438238-1.11973208-3.607776-.49962798-1.274309-1.1825501-2.475256-1.74656662-3.726008-.234221621-.518923-.487961765-1.075984-.5218386604-1.628783C0 133.751712 0 132.474262.0713037899 131.206908c.0513761911-.921856-.4442134979-1.983032.6201040411-2.723388.190473354-.132367.141564992-.632892.173198387-.966052.236465172-2.481538.345948062-4.983043.738785372-7.43923.26136801-1.636186.92342558-3.208208 1.40645163-4.808722.02153759-.071344.05631191-.141341.06416416-.214255.38969638-3.546977 2.41602774-6.733424 2.29173771-10.39482-.00628184-.182621-.01884543-.454758.08704788-.537991 1.13251999-.890671.62100146-2.156904.82134624-3.269457.29502053-1.6379808.90951587-3.226829 1.11075802-4.8706433.23848429-1.9489307.44107258-3.873856 1.26982236-5.6839133.18172368-.3966512.16265392-.8814725.32171826-1.2924822.56356776-1.4564813.94675797-1.5576631 2.30205775-.6860624.2138058.1375267.4511684.2384842.7277922.3827413.681576-1.4950701 1.2992122-2.9598529 2.0101782-4.3777461.642539-1.2810398 1.4187909-2.4947747 2.0779318-3.768187.7968919-1.5388182 1.4688213-3.1449415 2.3105832-4.6572866 1.1834476-2.126167 2.422085-4.2260852 3.7365531-6.2732811.8592618-1.3382493 1.9083235-2.5537789 2.8427421-3.8455877.2532912-.3502107.3775814-.7910586.6017072-1.1659482.2422986-.4056254.4482517-.9577512.8188784-1.1352123.7439453-.3560435 1.2628677-.7295869 1.1971331-1.6402243-.0143584-.1969794.1070151-.4747252.2600216-.6012586.8810235-.7284655 1.8098336-1.4001702 2.6791905-2.1416473.2672016-.2277159.5319346-.6005859.5651386-.9306049.0679778-.6775379.2793157-1.012044 1.0210177-1.0111469.3338333 4.49e-4.7203889-.2133569.9925256-.4392774 1.1542822-.9577513 2.3184356-1.9123616 3.3829771-2.9652371.3641207-.3603069.3968755-1.0344791.6755189-1.5098771.1933895-.3295704.5088263-.7322792.838621-.8101289.9727825-.22951 1.620706-.6586924 1.7322082-1.7290672.0226593-.2171712.227491-.4787633.4224514-.6041754 2.029248-1.3052696 4.066124-2.5995459 6.1207231-3.8644326.4058498-.2499261.8935872-.3710753 1.3496911-.534178.172974-.0619208.3950808-.0244545.5404598-.1171107 1.1246676-.7167994 2.2239841-1.4735327 3.3556064-2.1788898.782534-.4877373 1.6032071-.9140028 2.4081756-1.3653955.4213301-.2360164.8453519-.4670972 1.2682519-.7001971-.0307359-.1065664-.0612474-.2131327-.0919833-.3196991-.3441537-.0226594-.7015434.0065062-1.0299919-.0778495-.9364382-.2405035-1.8609855-.5265501-2.7895713-.7968921-.070446-.0206402-.1438086-.0978167-.2019151-.0850287-1.6723069.3663639-2.4669549-1.1159181-3.6441206-1.769899-.4011383-.2227798-.5626705-.8379482-.9200607-1.185018-1.5572147-1.5112232-1.2612967-3.5225231-1.3954582-5.3664577-.2156007-2.9663589.0251268-5.9834209 1.602758-8.5425841 1.0894446-1.7672068 2.5553493-3.4000279 4.7645259-4.0645533zM28.3116816 213.594261c-.682473-.784329-1.6597426-.732952-2.1385064.19855-.5061338.984224-.9368867 2.016236-1.5314144 2.9437-.7924053 1.236394-1.7095489 2.392695-2.5759896 3.581526-.4179643.57344-.8606075 1.130277-1.2541177 1.719869-.1382001.206851-.102528.535076-.2499266.728914-.5963225.783431-1.2332532 1.536575-1.8549273 2.300712.0785225.136181.1572693.272585.2360161.408991.6387255.086823 1.2752071.202812 1.9168487.255086 2.3204546.189127 4.6137627.604175 6.9319735-.321943 2.0038963-.800482 4.2729747-1.114123 4.6409091-3.832575.0044871-.032306.0365692-.068651.0655103-.088843 1.1713324-.808558 1.0827142-1.81073.4628343-2.907803-.0890667-.157718-.1135212-.353576-.1597369-.533729-.2431961-.948777-.3122959-1.994025-1.4751032-2.393817-.1743201-.059677-.374889-.317905-.3955293-.502993-.1072393-.953264-.8583641-.852756-1.4921534-1.012044-.4011383-.100734-.8731711-.252395-1.1266872-.543601zM79.8002188 71.1032539c-.2005689.5011988-.5267741.9891605-.5819646 1.5060633-.427387 4.0006138-1.2316827 7.9565812-.8348072 12.043345.2288372 2.3559024-.0630422 4.7692379-.1978771 7.1522861-.1933894 3.4202191-.5180242 6.85031 2.3058719 9.5339877.0747088.070894.1085856.197428.1350591.304668.3625497 1.47084.8592613 2.871458.5249795 4.487453-.4327719 2.090271.197877 4.288679-.5029935 6.406545-.2427466.733177.400914 1.07733 1.1015598.960892.3894722-.064836.7334011-.390145 1.1237705-.469564.9184897-.187108 1.8580688-.419087 2.7776804-.378928.3683829.016378.7073761.700197 1.0596059 1.080022-.3813952.318353-.7369907.677313-1.1527117.941598-.2972636.188903-.6809025.23669-1.0149601.373543-.6272832.256881-1.2595025.506583-1.8661454.806764-.8466976.419086-1.8443832.728016-2.4339758 1.390074-.2990589.335852.1588398 1.341838.2658549 2.046074.022435.146501.0237812.30018.0076281.447578-.2207607 2.009057-.4419698 4.017889-.6786593 6.024926-.0201918.170955-.1568208.326654-.2310811.493122-.205056.459918-.5018715.904131-.5898168 1.386036-.247458 1.355973-.5079287 2.722939-.5765799 4.094841-.0744845 1.485198-1.0046402 2.87415-.4679948 4.422167.0522738.150539-.071343.35896-.1043227.54203-.3358523 1.85964-.7749054 3.666781-.666769 5.627826.0778497 1.412509-.5198195 2.93495-1.0925855 4.291596-.6869607 1.627661-1.4703913 3.234008-2.990813 4.369669-1.1632558.868909-1.3054939 2.34648-1.6673712 3.656461-.61629 2.232509-2.1656528 4.053559-2.6040331 6.414173-.2900847 1.561253-.6290779 3.001357-.1399943 4.565079.1162131.372197-.0599018 1.137455-.3324871 1.279918-1.5267036.797789-1.5816692 2.469647-2.3370568 3.708285-.5151081.845127-.7475348 1.857844-1.2220357 2.733259-.9418224 1.736919-1.9527445 3.436597-2.9569362 5.138966-.3968755.672378-.8520818 1.310205-1.2808156 1.963514h0l-.5065825-.061473c-.1729739-.762566-.7055814-1.686664-.4498226-2.256963.6932425-1.544427 1.7528484-2.920591 2.6056041-4.398835.6120271-1.060952 1.5109984-2.024312 1.4378607-3.755174-1.0185502.684268-1.867043 1.184344-2.6340962 1.788296-.8458004.666095-1.5668622 1.494621-2.4306106 2.133122-2.0411383 1.508082-4.1361209 2.943026-6.2059766 4.412296-1.7860518 1.268027-3.561111 2.551984-5.3554642 3.808345-.5090511.356268-1.2509768.586676-.9034585 1.400843.3129688.73385.8316664 1.417893 1.7539704 1.298315 1.4044324-.181948 1.8917207 1.10672 2.840274 1.644936.3807223.216273.6690123.639174 1.0658877.775578 1.2173244.418414 2.4958967.666994 3.6966187 1.123547 1.6590704.631321 3.2506109 1.430905 5.1127177 1.23774.9958909-.103426 2.0104025-.038813 3.0022553-.163552 3.4298661-.430303 6.5442965 1.069478 9.8236237 1.548241.0706702.010321.1337129.065735.2043832.084805 2.6751524.722408 5.3139599 1.66064 8.0335332 2.121007 6.5615716 1.110534 13.2723359.126982 19.8653161 1.318506 2.609418.47136 5.35883.297489 8.038245.213357 2.55176-.080093 5.09118-.494243 7.642939-.637154 2.816718-.157494 5.64196-.157494 8.461818-.269445.402933-.015929.889325-.176339 1.173801-.44354.478764-.449598.765707-.301751 1.250977-.011891.396202.23669.962687.18823 1.45379.265855-.158167-.448925-.227267-.960668-.491328-1.334659-.778719-1.102233-1.87983-2.044504-2.396284-3.246572-.599464-1.395011-2.127289-2.487821-1.630803-4.299897.007404-.026698-.032082-.065062-.046216-.099387-.751348-1.812751-1.654582-3.58063-2.211869-5.451487-.587573-1.972936-.841762-4.04481-1.250079-6.071815-.065286-.323962-.074035-.744618-.280213-.939579-.878107-.83032-.73542-1.959475-1.011596-2.971743-.247458-.906375-.653307-1.768553-.967398-2.657877-.821795-2.326512-2.02162-4.605238-2.341319-7.000401-.355147-2.659672-1.159891-5.09634-2.091617-7.545796-.143584-.377132-.289861-.758304-.380274-1.150244-.582862-2.528651-1.154506-5.059546-1.717401-7.59246-.062594-.281784-.12429-.600137-.056312-.86846.377357-1.491481-.091086-2.880433-.794873-4.079809-1.355748-2.309686-.220761-3.916034 1.169314-5.495011.765258-.869357.765482-1.417669.183294-2.165877-.413702-.531934-.480558-.92522.04644-1.437187.448027-.435016.742375-1.024832 1.171109-1.484526.328673-.352454.736317-.824936 1.150916-.8716 2.091393-.23512 4.008466-1.681057 6.246584-.91535.185089.063491.43681-.063266.656673-.106342 1.523787-.298834 2.999787-.800257 4.623634-.435239.749106.168263 1.602983-.132815 2.409971-.216049.219414-.022435.445335-.062819.660262-.03455 1.861434.244766 3.739919.803847 5.577123.688979 2.940558-.183967 5.908712.117111 8.834015-.899869 2.986999-1.038741 6.216072-1.318955 9.176822-2.556246.884613-.369729 1.962616-.372422 2.744925-.869357 1.221812-.776028 2.545254-.945637 3.883727-1.264438 1.460745-.347519 2.877517-.922753 4.266917-1.508531.690999-.291431.673724-1.138578.204159-1.45895-.986916-.674397-2.082643-1.312449-3.226156-1.603431-1.466129-.373095-3.019755-.441522-4.541971-.542255-1.012941-.066856-1.645384-.71994-1.628783-1.489012.010769-.483699.843108-1.157199 1.443021-1.382895 2.43263-.916471 4.758693-.022211 7.103153.594079 1.360684.357839 2.455738 1.302354 4.037182 1.274983 1.915503-.033204 3.849626.424246 5.758398.766605 1.308186.234445 1.294501.27079 1.35889-1.120854.091086-1.968898.287392-3.932635.378254-5.901309.071119-1.542632.375562-3.120936-.580843-4.551617-1.245368-1.862332-2.444295-3.7556233-3.694151-5.614814-.125187-.1859862-.454758-.2896361-.705357-.3268781-1.432027-.2131332-3.002479-.0951248-4.271404-.6604871-1.683075-.7500029-3.317018-.9638089-5.082879-.8336859-.478315.035223-.965379-.0639398-1.449078-.0852529-1.367864-.0605747-2.7364-.1085856-4.104039-.1702816-1.065215-.0477867-2.177319.0684264-3.184876-.201018-2.018928-.5393378-4.048849-.5352998-6.10098-.5563886-2.910496-.0298388-5.820319-.1373025-8.730366-.2212092-2.161839-.0621451-4.323229-.1574942-6.485517-.2057294-3.290544-.0733626-6.584006-.0677535-9.870737-.2138059-.759201-.0338768-1.753073-.3421342-2.184723-.8852858-.639622-.8049684-1.412957-.6752941-2.108892-.6564491-.30579.0080766-.690326.7661561-.857466 1.2467146-.177461.5101724-.158167 1.094156-.192493 1.6478523-.069548 1.1275843-.763912 1.7470156-1.780892 1.7725916-1.446835.0358958-2.904214-.0955734-4.34544-.2577789-.438605-.0491323-.881921-.3818437-1.249407-.6766403-1.332191-1.0685801-2.358369-2.5710534-4.21756-2.8813298-.212684-.0354472-.396202-.2476827-.634462-.4054011.766829-.7879177 1.5018-.9422709 2.281866-.2420737.796892-1.1455322.708049-2.2744627-.207524-2.3134999-1.575836-.0677536-1.338698-1.0694772-1.283508-2.005242.062818-1.0663368 1.513243-2.0646958 2.479743-1.8825234 1.247163.2348948 2.504647.3176802 3.748669-.1581664.396876-.1516608.878106-.094452 1.321647-.1092589.470687-.0159289.942047-.0035895 1.382895-.0035895.334731-1.1237705-.123169-1.9536421-.988263-2.1591467-1.015409-.2411766-1.867043-.6793326-2.792488-1.094156-1.557214-.6979539-3.303108-1.1022326-5.008843-1.3162628-4.305056-.539787-8.5879025-1.644712-12.987635-.6634038-1.3436335.2995074-2.4757049-.1617564-3.1835301-1.4784684-.1738716-.3232886-.6014829-.5792722-.9682954-.7167989-1.2644381-.4749495-1.7169526-1.6377567-2.1470321-2.6910807-.6008101-1.4706161-.9402519-3.0477982-1.4849739-4.8959957-.1182326.5160058-.1568208.7666052-.2335486 1.0050894-.2333243.7259974-.3452751 1.5480167-.7773741 2.1299807-.2366889.3188021-1.0445746.352006-1.5522789.2649578-.2120113-.0365691-.3594093-.7093951-.4545335-1.1121039-.203037-.857018-.3526789-1.7268239-.5240823-2.5912451h0l-.5644653-.006731zM177.390554 116.05519c-.633117.088618-1.06701.115989-1.482955.216273-.487065.117785-1.219119.157943-1.392542.477418-.67499 1.242379-1.772777 1.373774-2.908339 1.452374l-.365828.024748c-.564914.039261-1.408696.409215-1.150468-.814167.019967-.094003-.488635-.389023-.776925-.436137-.353801-.057883-.792406-.059004-1.090567.104772-.544049.298834-1.114348.664974-1.454911 1.155403-.119355.171628.407196.789489.635584 1.205658.133264.242972.424919.571645.352903.715678-.11554.231529-.454758.39194-.732279.493794-.728914.266977-1.530518.384537-2.202222.748433-1.020345.55235-2.077932.837275-3.200357 1.112553-2.020722.495814-3.973915 1.277899-5.938326 1.987519-.723978.261592-1.368761.771091-2.103283.969193-2.165653.583759-4.363164 1.048388-6.537118 1.603206-.676191.172301-1.301231.631995-1.977198.704236-2.919021.312744-5.844773.65241-8.775236.737215-1.804224.052497-3.617423-.424695-5.433538-.505461-2.30116-.102304-4.611519-.10208-6.912904-.014359-.593182.02266-1.155628.567157-1.75397.820673-.566933.240279-1.150468.513987-1.74881.583984-.495814.058107-1.03246-.27281-1.536127-.235119-2.333242.174544-2.654735-.048459-2.755694 2.414233-.0516 1.257259.183071 2.535606.04689 3.778282-.250599 2.28927 1.057587 4.145095 1.566189 6.215399.496487 2.021396 1.510775 3.910425 2.100142 5.915892.616066 2.094982 1.015634 4.255026 1.473308 6.394655.35582 1.663781.566934 3.363234 1.004641 5.003458.458347 1.717402-.03971 3.738797 1.559459 5.114064.126309.108586.211562.330917.216722.503442.052273 1.72974.45902 3.199684 1.674999 4.634403 1.145756 1.351486 1.703715 3.210004 2.468077 4.869522.176115.382518.126533.865319.203037 1.298091.237586 1.343409.400465 2.707683.750003 4.022151.559753 2.103732 1.288667 4.162594 1.838101 6.268794.0949.363896-.25733 1.138802-.55953 1.235721-.356043.11397-1.054221-.178358-1.300109-.516005-.546293-.750901-1.033133-1.598496-1.311328-2.480192-.675294-2.139629-1.198254-4.326819-1.820153-6.483946-.419759-1.456258-.878555-2.902419-1.384241-4.330633-.075157-.212684-.53014-.444887-.761893-.403382-.214031.038364-.468892.413927-.516006.67507-.06192.34348.021089.730933.113073 1.08092.3105 1.183447.649943 2.359267.984897 3.536208.058107.204383.146277.400465.223453.599015.297937.7684.661609 1.518627.881248 2.308564.360755 1.298315.449598 2.699831.975923 3.918277.857691 1.985275 2.261451 3.630436 3.861293 5.105538.393285.36255.59004.938457.877882 1.415875l.048558.083104c.446109.786698.705769 1.866638 1.806819 1.864263 2.322697-.004494 4.61623-.118688 6.759223-1.343865 1.489013-.851634 3.194972-1.320301 4.792795-1.98707 1.651217-.689204 3.452974-1.177615 4.885451-2.185172 1.399721-.984448 2.878862-1.769001 4.362714-2.562304 1.185691-.634013 2.46202-1.097297 3.69258-1.64875.337872-.151436.705358-.29143.973456-.532158.763689-.684942 1.480039-1.421932 2.22017-2.133123 2.19437-2.108219 4.676357-3.879464 6.853676-6.031431 1.077779-1.064991 1.513242-2.411092 2.433302-3.520728 1.482731-1.788521 2.445418-4.03292 3.483486-6.155498.510173-1.043228.742824-2.233855 1.019897-3.377369.661609-2.731464 1.392318-5.454403 1.865697-8.220192.305565-1.785828.088618-3.656236.323513-5.460461.200568-1.539043 1.004191-3.032991 1.029543-4.555432.072016-4.326818.808558-8.631202.431425-12.969462-.025576-.29704-.014358-.596996-.034101-.894934-.202813-3.077636-.655776-6.127229-.416618-9.247941.109707-1.432925.479661-3.071803-.456553-4.32278zM91.7466448 49.9521806c-.1832943-.0060516-.3679343.0520555-.5532477.0634972-1.7707963.1106046-3.5406955.2488041-5.3132866.3147635-1.2933793.048011-2.6002193-.1469494-3.7852373.6380516-.3082574.2043832-.7892644.193839-1.1924218.2012422-1.6413461.0307365-3.2990703-.1090341-4.9208982.0751574-2.1192123.2409523-4.2864355.1758906-6.308504 1.1899536-1.5500357.7771493-3.271924 1.2092477-4.9112512 1.8120769-.237138.0872725-.4244709.3057898-.6600385.402933-.7044595.2905338-1.4174447.5619977-2.1353655.8188784-.4087664.1462766-.883491.1684874-1.2390865.3899208-.5797208.361204-1.0732915.8579156-1.6274363 1.2644382-.737664.5411326-1.5058391 1.0403118-2.2473168 1.5765092-1.0270753.7430477-1.9421998 1.7988398-3.0859372 2.1836007-1.5123452.5083777-2.6973632 1.3640495-3.8460363 2.3532095-.629527.5418059-1.1569739 1.2020687-1.7865009 1.7436504-.4662001.4011378-1.0490617.6636281-1.5336583 1.0461451-.9258934.7311574-1.8237429 1.4979862-2.7242852 2.260777-1.1280328.9559566-2.2527005 1.9159511-3.3639073 2.8912017-.1599617.1404433-.2232282.385658-.3549221.5651386-.3663639.5000763-.7556114.9833266-1.1163668 1.487442-.2891876.4045036-.5606509.8226921-.8193269 1.2473874-.1906976.3131925-.3313652.6571214-.5240823.9687439-.3181287.5139868-.6600386 1.0129417-.9923009 1.5179537-.4727062.719267-.967174 1.4250732-1.4107142 2.161839-.2781944.461713-.5550425.9478799-.7017677 1.4605199-.4933465 1.726824-.9216306 3.4720444-1.3920935 5.2053744-.0760545.2799891-.2447661.5337294-.363223.8031737-.2613678.5938555-.5655866 1.1740253-.767278 1.7876229-.5725418 1.7427528-.0356715 3.8148518-1.6774662 5.279634-.23826.2124598-.0242303 1.4652319.3336085 1.701248.7334011.4836995.8747416-.4089906 1.1726785-.8917918.2772973-.4495984.6461287-.84423.9889362-1.2512017.2613678-.3105006.6656471-.5595295.791732-.9126564.2272667-.6360331.5785994-.6248156 1.0207934-.346397.4193105.2638359.7955463.5958745 1.1933189.9000933-1.2678028 1.5347796-1.5215431 3.4464684-2.8321975 4.8390105-.6972806.7408043-.8217945 2.0157866-1.2231571 3.0424136-.3048921.779841-.7295874 1.52446-.9404767 2.326736-.4143748 1.577855-.6797812 3.194972-1.0782271 4.777538-.3181287 1.264887-.8807987 2.481539-1.0827143 3.759213-.2360161 1.493948-.1884543 3.031869-.2943475 4.548477-.0107684.151212-.2245743.297264-.3603063.429406-.5189224.505237-.7013191 3.249489-.1186812 3.581303.959546.546293.7798411 1.242676.61629 2.066265-.0708945.358063.0785225.776253.1886785 1.149123.1440328.487513.3789276.948552.5202681 1.436738.3089307 1.064991.5711961 2.143218.8756392 3.209779.2212092.774233.4460083 1.550709.7304845 2.302507.2694444.712537.620777 1.393663.9321753 2.090271.1615322.361877.4403993.724876.4484759 1.092137.0287169 1.325461-.1949604 2.650249.7293626 3.843344.3894723.502769.601483 1.220914.6860631 1.868613.2600221 1.989538.4309765 3.991191.6151685 5.989927.1880052 2.041139.3654663 4.083623.5180248 6.127454.0715673.956629-.260695 2.133346.1857619 2.827262.6721531 1.04435.4554306 2.145236.7919562 3.172985.1267578.387229.2571055.775355.418862 1.148897.2584511.597221.5579591 1.176493.8157374 1.773938.5110696 1.185467.909067 2.433976 1.5511576 3.542041.2822324.486841.361204.684493.1438086 1.225177-.2299591.572318-.361204 1.567984-.040832 1.897779.6613847.68023.7793931 1.366293.811026 2.208728.0181727.485718.1920438.981084.3730949 1.441675.2494774.63536.8148398 1.240208.8193269 1.861209.0159289 2.204242 1.2110424 3.60127 2.8620357 4.783821 1.2541182.898298 1.4782441 1.028421.5626705 2.609641-.0987138.170507-.0825606.407196-.1164379.594529 1.1062712.544049 1.8762415.18823 2.5737463-.658469.4215538-.511967.950796-.945411 1.4737564-1.361357 1.154955-.918938 2.3363835-1.804449 3.4969475-2.695792-.8763121-1.261073-.7751303-2.457533-.1164379-3.649954.4868398-.881248.9938713-1.752175 1.5168317-2.612559.2889633-.475398.5992397-.944514.9530399-1.372574.6748455-.815962 1.3817731-1.605675 2.0882521-2.394715.1945119-.217171.4361371-.391042.6533082-.588246 1.3878302-1.259951 2.7792503-2.516088 4.1605749-3.783218.7984624-.732504 1.4632123-1.735798 2.3962847-2.167223 1.4275408-.660263 2.1443397-1.951848 3.2088818-2.920367.1875567-.170507.2835786-.668789.1693845-.87721-.1072394-.195858-.5821888-.343256-.8372753-.279092-1.119732.280438-2.284334.509275-3.3125312 1.005538-2.8104353 1.356197-5.5598474 2.838479-8.3343869 4.268937-.2977127.153679-.5918359.39149-.9045803.423124-.6629547.06708-1.5273765.445784-1.855825-.468444-.2766239-.770867-.0744845-1.570676.7071519-2.030818.4027087-.23669.8922409-.320372 1.321647-.519146.6079891-.281111 1.2029659-.592958 1.7918857-.912433.6970563-.378254 1.3629276-.818205 2.0772589-1.158096.7163504-.340788 1.5249083-.506807 2.2037924-.902785.8415377-.490654 1.5729193-1.094381 2.6619154-.656.245888.099162.6699099-.223902 1.0046403-.36928 1.0636444-.46306 2.1331221-.914228 3.181062-1.410715.4217786-.199896 1.1417184-.529467 1.1257895-.75808-.0594527-.859934.5947526-1.045696.9882629-1.530517.3704024-.456104.661609-1.490134.4045035-1.83496-.5243066-.703114-1.1906265.007628-1.7115679.383639-.2263696.163326-.3210453.498506-.5252042.706927-.2252472.229959-.4789875.48168-.7697455.588247-1.0939318.401586-2.204241.76122-3.3161206 1.111879-1.8394481.580394-3.6521978 1.37953-5.5378615 1.640674-1.7241316.238708-3.1633384.939578-4.6411334 1.687786-.198999.100734-.4727062.30579-.6050724.241625-.5355241-.259348-1.0856309-.546292-1.5087557-.950796-.1498662-.14336-.0610232-.876087.1032013-.95461 1.2303366-.588471 2.4804163-1.162134 3.7760389-1.57965 1.2994363-.418862 2.7184519-.500301 3.9795244-.998134 2.6863699-1.060279 5.3274207-2.245073 7.9402037-3.478102 1.2673543-.597893 2.584739-1.25165 3.5929693-2.188536.9402514-.873396 1.7499318-2.075913 1.2700467-3.800269-.8906705.741701-1.5823426 1.458501-2.4007719 1.973609-2.8431907 1.788968-5.6958041 3.568963-8.6161712 5.227136-1.3811003.784104-2.9055601 1.334436-4.4051167 1.880055-.4047278.147174-.9559565-.108361-1.7277216-.221209 1.5489143-1.574939 2.5712782-3.149653 4.6759078-3.222118.443316-.015481.8801259-.378255 1.3097568-.600586.635584-.328898 1.2608481-.677313 1.8932917-1.012493.1639998-.087047.3605306-.126085.5034421-.236913 1.3678632-1.059607 2.662813-2.228696 4.1056093-3.172313 1.8271081-1.195114 3.7832178-2.192126 5.6572154-3.318364.3154363-.1898.4973845-.601932.7410287-.911311-.0708945-.10522-.141789-.210665-.2124592-.316109-.4359128.119803-.9169198.159513-1.2992126.37444-1.0658877.59924-2.0669385 1.314244-3.1373134 1.904509-1.7651878.97368-3.5768161 1.862556-5.3451449 2.830627-1.3081862.715902-2.4949989 1.850441-3.8832782 2.181806-2.8375817.677762-5.1775546 2.190556-7.5368216 3.726009-.6459044.420433-1.1895051.711191-1.6772425-.069324-.4273871-.684044-.0074038-1.267579.5186975-1.623399 1.1652754-.787917 2.3906763-1.488115 3.6017187-2.206708.8312178-.493571 1.6873382-.945188 2.5192288-1.437861 1.1417184-.676192 2.2217408-1.478917 3.4173029-2.037324 1.8789334-.878556 3.8191142-1.630578 5.7566031-2.376543 2.3249411-.895381 4.6664851-1.74881 7.0181241-2.570829.4839236-.16916 1.0436775-.120252 1.8551521-.200121.1523337-.580842.3950807-1.507858.6380521-2.434648h0l-.3401152-.297489c-8.0272514 3.600373-15.9602757 7.398847-23.8006438 11.606311-.0103199-.529018-.0493571-1.185915.2436447-1.411387 1.5895215-1.223831 3.1972152-2.450354 4.9229172-3.464417 1.6846458-.989609 3.5339652-1.695414 5.2823265-2.582046 1.191075-.604176 2.2953271-1.386036 3.5043506-1.946912 3.5608867-1.652339 7.1545294-3.234457 10.6938787-4.825325h0v-1.662211c-7.8574184 2.124597-14.3314938 6.870951-21.2717681 10.662918-1.2736366-1.310205-1.1305009-1.985499.4906541-2.547721.2680982-.092881.4985058-.297937.7425991-.45745 1.2512011-.818205 2.4613465-1.710446 3.7652699-2.433527.944739-.524082 2.0449526-.759874 3.0193056-1.239086 1.5381453-.756285 2.9878963-1.701472 4.5525153-2.390901 1.1975816-.527447 2.5156392-.781188 3.7785063-1.161686.1402191-.042401.2683231-.123392.4054012-.177685 1.1955621-.473379 2.3567995-1.138577 3.5976801-1.3636 1.3153658-.238934 2.004794-.894485 2.2764822-2.081298.1184569-.517351.1866596-1.488339.0174994-1.551157-.6221232-.230632-1.4295598-.382293-2.0279018-.170506-1.3669662.483923-2.6435189 1.217548-3.9712235 1.817461-2.774091 1.253669-5.5605208 2.479743-8.3346117 3.732963-.5909383.266977-1.1444103.615169-1.7261506.904132-2.5024027 1.2429-5.0184905 2.458654-7.5065349 3.729374-.5705228.291655-.8567937.163776-1.1040273-.354698-.2205363-.462385-.4045035-.820448.2770724-1.143288 1.6065723-.761221 3.1803892-1.595131 4.7441105-2.44295 1.2532201-.679782 2.4467632-1.471962 3.7125476-2.125495 1.5026981-.776027 3.0446572-1.479141 4.5875134-2.173953 1.8531331-.83391 3.6986382-1.696761 5.5973142-2.415355 1.7048375-.645007 3.4816913-1.097746 5.2147971-1.671634.2440933-.08099.4202082-.368383.8081094-.726446-.5449463-.048011-.8244868-.153904-1.0423308-.079195-2.5091331.857915-5.2589943.84064-7.6406963 2.205811-1.0459208.599464-2.2666104.887081-3.3849967 1.36921-2.1647551.933745-4.3142547 1.903163-6.4680172 2.862036-1.2491821.556164-2.4947747 1.120629-3.7966791 1.706183-.2483556-.54719-.4543092-1.000602-.6371545-1.403535.6696851-.579721 1.1755952-1.214408 1.8340633-1.548914 1.6005142-.813269 3.2748401-1.480936 4.9137187-2.219497.7681751-.346172 1.5127937-.746413 2.2868021-1.078003 2.1483777-.919836 4.5926739-.947207 6.6380745-2.188088.118906-.072016.2849253-.155699.4024845-.126533 1.6274369.403157 3.070906-.34034 4.5570024-.753368.3288971-.091535.5644647-.519371 1.0450232-.990506-.6122519-.053171-.8664407-.119803-1.1087387-.089516-2.0723233.260021-4.1430761.533953-6.2131556.812596-.4971602.066857-1.0111469.104772-1.4804874.264509-1.0243829.34864-1.9953712.951694-3.0415163 1.1222-2.9831849.486167-5.9232946 1.026851-8.5697302 2.606501-1.4771222.881472-2.2049143.769297-3.447366-.418413-.4807822-.459693-.3730943-1.176941.2443175-1.392766 1.4517706-.507929 2.9625447-.876312 4.3622663-1.497314 1.8926184-.839967 3.8413243-1.340941 5.8873988-1.54151.2064022-.020416.5411326-.1382.5765799-.273708.2537403-.969417 1.0389661-.795545 1.6886843-.785898 1.5376968.022659 3.0067419-.133713 4.5022605-.622573 1.5195247-.496935 3.1644603-.613821 4.7575713-.87676.210665-.03455.4487007.022883.6609362.083458 1.5168317.432098 2.4985884-.659365 3.6290894-1.296071.1435837-.080766.151436-.460815.1637754-.705357.0565361-1.113002.0325306-2.233631.1494176-3.339678.1716277-1.621828.4229-3.236028.6721531-4.848433.1215979-.788142-.1256363-1.364049-.7506762-1.853357-.4291818-.336077-.8594855-.722408-1.1450836-1.176942-.3311409-.527447-.5216142-1.147551-.7428234-1.739163-.4623858-1.2370671-1.1738005-2.4564104-1.2942764-3.7293737-.1951847-2.0611058.0015705-4.1594535.0356715-6.2418724.0419534-2.5620797.0742597-5.1243837.13977-7.6857906.0159289-.6290779.0495814-1.2853022.23826-1.8771386.7439458-2.3352616 1.0252805-4.7070923 1.0115955-7.1608107l-1.368e-4-.2031459c.0054192-1.2945362.1364743-2.7308056.7490177-3.7817632.5978935-1.0261777 1.0237101-1.9785447 1.2130621-3.1269935.3136415-1.9011441 2.3462547-2.7220415 3.9303915-1.6130785 1.748137 1.2240553 3.3194863 2.6076231 4.3795413 4.5316508.4715843.8556718.6566728 1.6666978.6497182 2.6266923-.00516.7049086.2743806 1.4223809.4866155 2.1162962.3434803 1.1221996.830545 2.2087281 1.0797976 3.3491004.2328758 1.0645415.4803342 1.2761042 1.5594585 1.1984787 2.0801756-.1496413 4.1670815-.22951 6.2526413-.2636116 1.1136744-.0179479 2.3258388-.1323662 3.3224029.2467856 1.524011.5797208 3.051836.6618328 4.601199.6272832 2.295103-.0509276 4.201631 1.1015598 6.24434 1.8333899.617412.2212097 1.234824.5025444 1.77304.871825 1.24806.8561209 2.453494 1.7750591 3.662069 2.6874918.245439.1853134.428285.4538607.653757.6992996-.443989.3957541-.800482.7138822-1.117713.9970122.551677.5877979 1.165051 1.072843 1.557663 1.6967609.699525 1.1114311 1.233029 2.3265122 1.911913 3.452526.158392.2627139.606643.4374832.945861.4868403.735196.1070151 1.486096.1422381 2.230714.1442571 4.355311.0121146 8.711071-.0251274 13.066382.0166017 3.12834.0298388 6.258924.0946757 9.383001.2553108 4.717412.2425222 9.432805.5467416 14.143263.8996442 1.652788.1240659 3.402944-.8563447 4.966441.4080935.089292.0722407.293451-.0136856.439278.0076275.874068.1287773 1.747464.2622654 2.619289.4045035.470911.0767278.937784.2324272 1.408695.240279.298386.0051605.837275-.1696088.852756-.3100516.035447-.3190263-.094452-.7558362-.319475-.9853462-.638276-.6503915-1.386485-1.1915246-2.039119-1.8293519-1.032685-1.0091274-1.992006-2.094534-3.038824-3.0879568-1.367415-1.2978664-2.540318-2.810211-4.262206-3.7298226-.446233-.23826-.659814-.8895492-1.022365-1.3151415-.228837-.2687716-.519595-.4946921-.812147-.6968315-.394408-.2723615-.864422-.4498226-1.220017-.7612203-1.738041-1.5215437-3.455442-3.0666437-5.165215-4.6198203-.565363-.513762-1.033358-1.1462056-1.637757-1.6029823-1.336679-1.0100251-2.731016-1.9437708-4.103366-2.906682-.294123-.2064022-.606194-.3890232-.889549-.6086619-1.438758-1.1154697-2.861587-2.2518033-4.308422-3.3562798-.893811-.6822493-1.838325-1.2983149-2.729221-1.9841537-1.806467-1.3905225-3.584219-2.8185119-5.388668-4.2112782-1.139699-.8796773-2.586085-1.5222165-3.390156-2.6354424-.99791-1.3813245-2.724734-1.520646-3.731618-2.805051-.614944-.784104-1.567983-1.3932149-2.489165-1.825762-1.274759-.5985668-2.661916-.9575269-4.001512-1.4174451-.245439-.0843553-.49873-.1478466-.739682-.2427466-2.970173-1.1677434-5.97355-2.1773194-9.185572-2.4884928-1.996044-.19339-3.966063-.696832-5.963005-.8296474-3.7881541-.2523941-7.5873008-.3396665-11.3821852-.49066zM66.0444084 161.61691c-1.0347034-.405401-1.6765692-.211787-2.3043014.413477-.5772532.575458-1.2619701 1.05669-1.9462384 1.509204-3.637166 2.404362-6.3316125 5.619525-8.2578834 9.50886.4170667.725998.9658273.804072 1.6539099.365243.5936306-.378928 1.2451435-.675519 1.8075898-1.094156 1.4623146-1.086977 2.8532863-2.272668 4.3418502-3.320608 1.2469388-.878107 2.609193-1.58997 3.8846244-2.429713.6723775-.442419 1.03403-1.106944 1.1255653-1.876466-.5696257.341237-1.2913603.913106-1.3988239.814616-.6288536-.576131-.3625502-1.271393.0578822-1.898452.1245145-.185762.3048922-.340115.4011383-.537543.2221069-.456104.4085416-.929259.634687-1.454462zm-39.4205807-36.241089-.3840875.177012c-.3876776 1.903163-.3562684 3.747097.4352393 5.619076.2824572.668115.0711188 1.564843.0118904 2.351639-.0545171.72869-.314763 1.454014-.2894119 2.173954.0338774.954835.3917156 1.904958.3760115 2.853511-.0619208 3.717708.8807987 7.206802 2.3045257 10.582376.665647 1.578529.7387848 3.334966 1.6857677 4.843273.4913269.782309.5352992 1.83855.8269549 2.756367.1482951.4662.5519015.893138.5727661 1.349916.0594527 1.299885.3809466 2.475031 1.1309495 3.544733.1855376.264958.2088702.63895.3746647.922977.7883668 1.352608 1.6000662 2.691081 2.4034642 4.034939.1195788-.049356.2389328-.098714.3585116-.147846.028044-.173872.1227197-.369505.0744845-.518474-.8202245-2.521472-.79936-5.281429-2.2542714-7.633741-.4549821-.735869-.7544895-1.642693-.862178-2.504197-.3634472-2.907355-.5765798-5.833331-.9101888-8.744948-.2472342-2.160269-.5400112-4.318294-.9155731-6.459492-.1893519-1.079798-.6382769-2.11181-.9140031-3.179941-.313193-1.212389-.4920003-2.463814-.8673379-3.65489-.244766-.777373-.8484928-1.441899-1.0919127-2.219272-.4738276-1.514813-.7690727-3.084591-1.2195681-4.60793-.162205-.548536-.5577343-1.028197-.8466976-1.539042h0zm89.2604353 17.581655c-.196082.369729-.525877.728241-.557062 1.111206-.046665.571869.087497 1.166397.196755 1.741407.302649 1.596252.208197 3.244104 1.060728 4.76834.720164 1.287771 1.134988 2.756143 1.596701 4.173588.148071.454533.0258 1.110084.725324.94227.344154-.082784.580619-.614943.891792-.973904-.506807-1.367639-.961789-2.51003-1.353729-3.673511-.553248-1.642244-1.552055-3.15055-1.383568-5.014676.065061-.718145-.045992-1.487442-.253964-2.18046-.107464-.358288-.602829-.599689-.922977-.89426zM6.46416386 113.511058c-.06820251.155699-.18980032.308706-.19675515.466873-.10589336 2.37385-.49805757 4.783147-.23108075 7.11639.65263486 5.703656.75045153 11.347859-.5269987 16.973217-.05676062.250599-.11307252.541357-.04217786.774233.61561704 2.017805 1.23415067 4.035387 1.90406044 6.03547.61135442 1.825089 1.26914932 3.635371 1.95162279 5.435109.13550753.356492.47764162.634687.72442687.949001.2221068-.366364.6748456-.768175.6245911-1.092137-.1698331-1.095502-.4018113-2.211196-.82022448-3.232663-1.08675255-2.653614-2.22443263-5.276493-2.06761179-8.236794.00964704-.182397-.05631191-.367262-.07022162-.552126-.1494173-1.997839-.36501788-3.994107-.42626549-5.994863-.09579756-3.124974-.06775374-6.253538-.12877703-9.379635-.03185772-1.638429-.16758963-3.274616-.20954311-4.913046-.03656911-1.434046-.0074036-2.869663-.0074036-4.304607-.15928867-.014807-.31835295-.029615-.47764162-.044422zm68.76940604 26.432721c-2.0328374 2.35635-3.7906221 6.917615-3.1898119 8.17106 2.1304298-.979513 3.8891115-5.383957 3.1898119-8.17106zm87.7540571-41.8506753c.537543-.4789875 2.660346.5842084 2.774988 1.3335379.044422.2900852-.164224.7073764-.390369.9344194-.734971.738112-1.128257 1.572919-1.191524 2.628487-.099611 1.663781-.725548 2.177992-2.438463 2.172039-.908618-.003245-3.133051-1.585363-3.461724-2.530551-.376909-1.082938-.721959-2.180684-.998583-3.292564-.086599-.3490888-.035672-.9021123.187108-1.1100849.217171-.2028127.803398-.2279396 1.108963-.082112 1.4935.7132094 2.899952 1.2922573 4.409604-.0531714zm-50.315163-9.5056514c-.369729.0406963-.782309-.0111284-1.102456.1364939-2.649128 1.2220357-3.035459 5.1535497-.669013 6.8523296.247234.177461.876312.2613678.965603.1341615.22637-.3228401.293002-.7861235.328001-1.201396.015255-.1817234-.21403-.3778057-.313193-.5768041-.410786-.8249359-.198775-2.4880443.488859-2.8593439.865768-.4675457 1.642693-.1198031 2.248887.6160657.023556.0284925.048459.0679784.07942.0760549.30534.0785226.641641.2602459.907721.1875567.172525-.0471139.32082-.4601425.346621-.7221837.121598-1.2386374-1.653686-2.652044-3.28045-2.6429346zm-11.514147 3.4462211c.861729-.1166622 2.112258.7782706 1.903836 1.2841807-.194736.4731542-.769297.7901616-.956181.9671743-1.355524 4.483e-4-2.1699151-.6589174-1.982807-1.4257463.085701-.3511084.645007-.7728864 1.035152-.8256087zm79.95239-63.048991c1.050856-.4168427 2.460674.0513762 3.70649.1592887.327103.0282681.661385.3170069.960219.2721368 2.323596-.3504351 3.365703 1.2476117 4.415886 2.8400497.402933.6106813.382068 1.1040275-.42133 1.3833436-.962462.3349549-1.76429.4152723-2.680985-.3589604-.751797-.6346869-1.841018-.8738442-2.788449-1.2702711-.202589-.0848044-.455431-.0518249-.654878-.1408919-1.214857-.5415815-2.338852-.8933627-3.323525.4899809-.681352.9570781-2.010851 1.3582164-2.24081 2.7662385-.083683.513089-.66632.9382326-.998583 1.4192396-.202364.2927771-.438829.5952012-.52655.9283613-.505237 1.9258225-.290085 2.269527 1.661762 2.689735 2.286802.4922244 4.585943.9285856 6.863098 1.4600714.841762.1963064 1.795027.3488646 2.15107 1.3676389-.762342.2537404-1.526703.7248755-2.286802.7181451-1.843934-.0166017-3.697067.048011-5.485587-.7668288-1.046818-.4771931-2.29802-.5296911-3.467557-.705806-.729139-.1097073-1.843935.886408-2.09588 1.6103858-.700422 2.0130949-1.476898 3.9997161-2.190107 6.0085481-.194737.5492097-.366813 1.1392509-.371076 1.712017-.002692.3730943.316783.7484324.491776 1.1228729.295469-.2160493.591163-.4318742 1.013839-.7410287.459693 1.8739972 2.179338 1.8396718 3.507042 2.3520875.645681.2492532 1.405331.1841915 2.091169.3524546 1.437637.352454 2.860466.7652584 4.261308 1.1457565-.028267 1.1051492-.25172 1.6871138-1.239085 1.5466705-2.208056-.3145393-4.417457-.6205528-6.623493-.9490013-.31566-.0471139-.728241-.1090342-.903907-.3221673-.868908-1.0551188-2.001204-1.0127169-3.181735-.9050289-.403606.0367934-.81484.00359-1.22226-.0103199-1.086528-.037242-1.829801-.3125196-1.783136-1.6898062.021314-.6275074-.507256-1.2736361-.836378-2.0249852.230408-.6842683.708498-1.2761042 1.62968-1.4414501.180378-.0325306.397998-.2411766.471809-.4206567.516454-1.2554639.997686-2.5255105 1.494173-3.7892753.866889-2.2073825 1.661762-4.4468464 2.624898-6.6116019 1.070823-2.4070537 2.296-4.7452319 3.45432-7.1132486.032307-.065959.054293-.1530069.108362-.1902491 1.457154-.9990316 2.812902-2.2576364 4.415212-2.893445zM34.6928755 15.4984062c.5702985-.4130288 1.5973738-.5548181 2.2675079-.3441533.4435408.1395459.7517977 1.0968484.884613 1.7371439.1577184.7587526-.087272 1.3609086-1.1168153 1.3759401-.4814556.0071792-1.0118198.3333844-1.4250727.6420904-1.2653353.9447388-2.487371 1.9478087-3.7197271 2.9362959-.2268182.181948-.5384407.3656909-.6140466.6093352-.2680982.8641971-.8693569 1.1522628-1.6819539 1.4268676-.4720328.1597373-.7443939.9095158-1.179409 1.4908073-.4899807.5485363-1.0189987 1.097297-1.4959672 1.6877869-.4141505.5128646-.8233654 1.0434529-1.1414941 1.6175652-1.9819099 3.5763671-2.6594478 7.4275634-2.3410949 11.4764121.0612475.7796171.1303478 1.5592342.2216583 2.3357104.0341011.2907579.0574337.6432119.2286129.8478193 1.7790972 2.1252699 3.6044106 4.1973689 6.7453139 4.0775659.1491933-.0056091.3416856-.0529466.4419704.0190698 1.7337786 1.2458169 3.486627.674397 5.0707637-.1673655 1.1385775-.6050724 2.1703642-1.5363501 3.0249146-2.5181068.9364376-1.0757596 1.6258659-2.369363 2.4012204-3.5819761.5339536-.8348072.1814996-2.5943861-.631546-3.3066982-1.9985116-1.7508292-4.2453793-1.4322519-5.8346765.7239782-.7825335 1.0618497-1.6951904 2.0424846-2.650025 2.9540196-.301527.2880658-.9718854.3914912-1.3959073.2813352-.2972641-.0771764-.586676-.6358085-.6634038-1.022364-.2043831-1.0317868.0083009-1.8968813.9297078-2.6480059 1.2745337-1.0391903 2.3926952-2.2702001 3.5810784-3.415508 1.3225447-1.2749824 2.9129633-1.3364544 4.6180251-.8256089 1.6058989.4810069 2.7617515 1.3651712 3.7553985 2.5905722.5920607.729587 1.1567502 1.4869934 1.6617628 2.277828.1175592.1841915.0080765.5866759-.1115023.8330124-.2171711.4469057-.5633433.831442-.7778226 1.2792451-.3138658.6555514-.7132089 1.3245638-.8018276 2.0227419-.1931656 1.5188513-1.2330289 2.4582055-2.1073219 3.5299265-.1150917.1408919-.152558.3470699-.2728096.4812314-1.1713329 1.3045968-2.4380144 2.5041974-4.0876614 3.1774725-.5011982.2043826-1.0876499.1945113-1.6312506.3030969-.3982217.0794202-.8480438.1007333-1.1733519.3078088-.7908344.5036663-1.4665776.8166346-2.2726679-.0363449-.219863-.2326515-.8554476-.0318577-1.2823861-.1180083-.850287-.1716278-1.6891329-.400465-2.5299977-.6165142-.1018546-.0262493-.182621-.1666926-.279989-.1749935-2.1979591-.186659-3.3865666-1.9610453-4.9832676-3.108148-1.0427799-.7491057-1.0587088-1.8957598-1.2411055-2.8826765-.3737671-2.0218442-1.2366184-3.9880497-.9057017-6.1175822.03971-.2566566-.0222108-.5352996.0473381-.7798414.5770284-2.0263313 1.1823256-4.0450348 1.7584569-6.0715905.1215978-.4278359.2348947-.8814721.2218825-1.3194038-.0323063-1.0946048.0547413-2.0063642 1.1621344-2.7027473.6918958-.4352394 1.062074-1.3609085 1.6305773-2.0198252.450944-.5222874.9826543-.9748018 1.4809359-1.4555844.1606351-.1552503.4163944-.2716881.4812313-.4574501.7084981-2.0292479 2.5773358-2.8770675 4.0822772-4.1114425 1.2586049-1.0322355 2.3410943-2.2906159 3.6524215-3.2407392zM146.05421 16.9747429c.732055-.8574666 3.05924-.4585718 3.755623.5837594 1.294949 1.9383861 1.517729 4.0654507 1.376837 6.3067096-.060126.9532642.113073 1.903163-.877882 2.5827199-.315213.2160493-.496487.8518579-.477418 1.2839564.038813.8754147-.454309 1.3492424-1.096624 1.65391-1.769226.8388455-3.599699 1.4145283-5.612569 1.0295433-.828974-.1586157-1.677691-.2243503-2.520575-.2941232-.683371-.0567606-1.473757 1.3131219-1.128482 2.074791.381395.8406403.992077 1.5807718 1.342736 2.4310592.697281 1.6909278 2.281867 2.6139047 3.338332 3.9961264.615392.8049687 1.693395 1.2666815 2.587431 1.8457295.8375.5422545 1.860312.8904461 2.522594 1.588624.777149.8193271 2.169243 1.2839567 1.975628 2.5867582 1.709774.70087 3.273943 1.4611933 4.915514 1.9733848 1.11345.3475183 2.334589.4621615 3.509511.4736033 1.686216.0161531 2.4342-1.2363942 1.739163-2.7951798-.445111-.9983584-.998807-1.9482573-1.497762-2.923059-.839294-1.6391029-1.654583-3.2909937-2.521697-4.9152894-.270118-.5061342-.675967-.9395788-1.017428-1.4077978-1.255688-1.7212151-.446009-3.7663918.500301-5.0799625.223677-.3107251.759649-.4760712 1.179633-.5498824 1.084509-.1904733 2.186069-.2799891 3.277533-.4325473 1.162358-.1624296 2.116969-.6180849 3.03658-1.4522191 1.549363-1.4053299 3.277982-2.6305065 5.029708-3.781872.425144-.279316 1.233927.0251273 1.866146.0612476-.074036.6284051.076055 1.4493026-.266079 1.8477486-.889101 1.0364981-1.966655 1.9213355-3.022447 2.8023588-.902786.7535925-1.828679 1.5060633-2.84005 2.0945339-.850287.4946923-1.834512.7634639-2.767136 1.1116554-.969193.361877-1.984153.6275077-2.898156 1.0937075-.245215.124963-.407196.9362135-.247234 1.247836 1.136558 2.2154586 2.3651 4.3842524 3.570085 6.5647124.139097.2519453.370851.4655267.459021.7304844.226369.6802299.432098 1.3719018.575907 2.0734447.095573.4657515-.009647.9779429.113297 1.4320279.49043 1.8102821-.53014 4.0434642-2.303853 4.4295707-1.050183.2283886-2.21142-.0518247-3.322403-.1063417-.707376-.0347745-1.414079-.0818878-2.121231-.1115023-1.062972-.0441966-2.120334.0585557-2.96591-.898298-.351332-.3975488-1.047043-.6084381-1.612854-.6734998-1.108066-.1276549-1.354627-.6043991-.912881-1.5729193.069773-.1527828.03612-.3526788.053395-.5696252-2.827037-.6118033-5.032176-2.2408101-7.346124-3.8092428-2.308564-1.5646186-4.016318-3.5595409-5.587218-5.7691664h0l-.375563.0253515c-.035447.6833709-.118905 1.3689852-.091983 2.0498882.023557.5898168.240279 1.1733518.250375 1.7618224.01705.9665008-.615169 1.5695543-1.51414 1.5585611-1.03089-.0123392-1.769899-.6353598-1.781341-1.5648429-.01189-.9703148-.010096-1.9453409.076503-2.9100469.036121-.4027087.341237-.773784.464405-1.1776144.367486-1.2052095.753593-2.4086242 1.027525-3.6360444.088842-.399119-.063492-.9090671-.248805-1.3005583-.440624-.9303804-.199672-1.7640659.297713-2.5349334.187781-.2912066.636033-.6241423.933297-.5960986.924771.0872723 1.223606-.4325472 1.31716-1.1580959.116887-.907048.707152-1.3097567 1.397477-1.809609.674846-.4886348 1.115919-1.3263586 1.592887-2.0545995.667891-1.0203449 1.351486-1.9668785 2.368466-2.7278746.968968-.7253243 1.726151-1.7472397 2.525062-2.6827802zm-87.4712422 6.6014834c-1.857844-1.6682684-3.5072673-3.5649253-6.2645317-2.8604655-1.0095759.2580027-1.9208867 1.133193-2.7276499 1.8867855-.7883668.7367662-1.6043285 1.5480166-1.3030263 2.8806571.0778497.3437045-.2710149.8083338-.4783147 1.1874858-.4762957.8716007-.5440492 2.6863697-.0017947 2.8431906 1.6579479.479212 1.2231576 1.5206459.8588127 2.6206351-.5043397 1.5228894-.074036 3.0024793 1.3526077 3.5869116 1.8232944.7470863 3.7724488 1.1870372 4.8827586 1.5224408 3.5108567.0408317 5.4218721-1.1298279 6.6371774-3.4536476.227491-.4352395.5415811-.9180412.5252037-1.3685365-.0327549-.9128811-.2537403-1.8208265-.4184134-2.7269771-.08615-.4742765-.0753816-1.0600549-.3531268-1.3891768-1.1883832-1.4082464-1.2114916-3.3838746-2.7097026-4.729303zM110.283808 0c.229959.350883775.662954.704908472.657795 1.052427-.037018 2.59662966-.008301 5.2087395-.294348 7.78315848-.40226 3.62191022-1.059831 7.21510372-1.605226 10.82108512-.221658 1.4670262-.026249 1.7048375 1.676121 2.0148895 1.42238.2589001 1.745669.0287168 1.965756-1.3644982.239606-1.5166076.795771-2.8494723 1.609713-4.0892318.316334-.4821286.869582-.8094557 1.318731-1.2027416.218293-.1913708.523634-.3291218.655551-.565587.625714-1.1204051 1.708876-1.2974174 2.817615-1.513018.465976-.0904131.938906-.331814 1.321199-.6205527.539562-.4069714 2.475032-.4094392 3.175005.0904131.149865.107015.283578.3315897.429181.3354036 1.935246.0507031 2.904663 1.4192396 3.861741 2.8001153.182846.2640603.386555.5617731.430753.8655433.364793 2.504646.75247 5.0083947 1.014736 7.5244827.188454 1.8069168-.85971 3.3318254-1.33982 4.9893249-.465527 1.6072452-1.540613 2.7166571-2.467628 3.9622496-.262714.3531273-.772214.5299153-1.181204.7650343-.586676.3371984-1.220466.6039509-1.769002.9927498-.634238.4495979-1.539267.3062381-1.903836-.4280602-.161981-.3264296-.220088-.7044598-.38162-1.2487334.444438.1106046.742151.2162736 1.048613.2548618.664526.0834583 1.099092-.0246785 1.683524-.6304242 1.423952-1.4760002 1.784931-3.4639676 2.849697-5.0967887.453412-.6954858.367486-1.7443231.519371-2.6336474.034999-.206178.03814-.4177402.059453-.6263859.073138-.71994.279764-1.4562574.192493-2.1560058-.151437-1.2099209-.495142-2.3949388-.738786-3.5945396-.174096-.8574666-.434791-1.6195844-1.38985-1.9271685-.22278-.0717921-.364569-.3643448-.577028-.5045637-.783432-.5178004-1.297867-1.7286186-2.609643-.8213463-.813494.5626704-1.796596.875639-2.688389 1.3308457-.294123.149866-.512415.4653024-.813269.5833106-2.166326.8491657-2.757489 2.7897952-2.887612 4.73379-.147622 2.2100742.124739 4.4553715.315885 6.6766632.063267.7342983.45386 1.438085.663628 2.1649798.043075.1489686-.053171.3378715-.085253.5077046-1.859639-.3380958-2.491634-.9732314-2.797647-2.6922029-.247235-1.3887279-.484148-2.7821673-.824936-4.148909-.078971-.3167825-.531262-.695037-.867114-.7600986-.646578-.1256361-1.377735-.1927168-1.986846-.0035896-.410785.1272066-.881248.6952614-.964257 1.1345392-.321943 1.7007991-.520268 3.4265012-.721511 5.1479406-.107688.9227525-.108809 1.8573956-.191594 2.7837378-.110156 1.2307854-.835929 1.9361425-2.044729 1.8879072-.244093-.0096471-.685838-.477866-.668339-.7067032.080542-1.0542218.334506-2.0940852.446233-3.1474096.203934-1.9215598.348864-3.8496257.523858-5.7743264.085013-.9357726-.534936-1.0644845-1.168922-1.0759765l-.140835-9.047e-4c-1.529171.0056088-3.063054.017275-4.5854945.1429111-1.1237706.0926567-2.0462988-.1202517-2.698036-1.145981-.1092589-4.487e-4-.2185173-8.974e-4-.3277757-.0013461-.2180688.7336253-.5658114 1.4567061-.6272837 2.2033437-.1314691 1.5967007-.1556989 3.2055162-.1460518 4.8087231.0083008 1.4071246-1.0275239 2.0321644-1.8809524 2.8312999-1.3494668-.7199398-1.6041042-1.7584571-1.3712284-3.1918308.2420737-1.4903586.124963-3.0359074.2400547-4.551842.0376905-.4949166.3136415-.9712122.4756223-1.4576035.1337129-.4015869.3885746-.8119235.3692805-1.2076774-.1534556-3.1180196.1992227-6.1568436 1.0898932-9.1577524.3019755-1.0181014.3255324-2.1349168.3641206-3.21067627.0475624-1.32972384.6995238-2.32785805 1.5852587-3.20102919.5339536-.52677438 1.1957869-.46866763 1.4353931.25710539.2618169.79173197.3798247 1.66647357.37287 2.50374865-.0118903 1.43987982-.0567609 2.89748332-.2936747 4.31313332-.2979369 1.7815653-.846249 3.5196066-1.2004977 5.2935439-.1927172.9665009-.2070756 1.9684491-.3021998 2.9544683h0l.2869437.0841314c.1469495-.2037101.2680987-.4343421.4460083-.6061944.6418659-.6198797 1.0681316-1.5852587 2.2477654-.3935103.5330562.5384406 1.8381012.3470698 2.7978712.4168428.73744.0536197 1.483853-.0296142 2.224657-.0026922.87362.0316334 1.445938-.2766239 1.522665-1.2087991.149642-1.8190318.268996-3.6405314.439503-5.4573196.039934-.4258167.234445-.8370508.357165-1.2552396.133713-.4543092.339442-.9014393.388126-1.3649468.2764-2.62579526.450271-5.26415408.795321-7.88030221.157719-1.19556245.581292-2.36644633.98445-3.513324745.122944-.350435063.579272-.5839837.882818-.870927645zm37.120541 19.6846695c-.898747-.2187415-1.099988.5025445-1.496864 1.0259536-.363896.4798852-.827853.8868565-1.267355 1.3057184-.317455.3024241-.758079.5128647-.985794.8659919-.884838 1.3739209-1.725254 2.7776804-2.544806 4.1919843-.459245.7926294-.248131 1.2218114.657347 1.2386377.959995.0177236 1.932329-.0516006 2.882676-.1938386 1.870408-.2797648 3.537555-2.3081153 3.41147-4.2063427 0-.9272395.012563-1.8547034-.004712-2.7817186-.010544-.5651383.196307-1.2399838-.651962-1.446386z"/></svg>