<svg width="256" height="256" xmlns="http://www.w3.org/2000/svg" preserveAspectRatio="xMidYMid"><defs><linearGradient x1="63.101%" y1="29.811%" x2="28.874%" y2="83.71%" id="a"><stop stop-color="#087CFA" offset="0%"/><stop stop-color="#0D7BFA" offset="2%"/><stop stop-color="#5566F9" offset="37%"/><stop stop-color="#8A57F8" offset="66%"/><stop stop-color="#AB4EF7" offset="88%"/><stop stop-color="#B74AF7" offset="100%"/></linearGradient><linearGradient x1="49.124%" y1="38.465%" x2="74.872%" y2="4.95%" id="b"><stop stop-color="#087CFA" offset="0%"/><stop stop-color="#0D7BFA" offset="2%"/><stop stop-color="#5566F9" offset="37%"/><stop stop-color="#8A57F8" offset="66%"/><stop stop-color="#AB4EF7" offset="88%"/><stop stop-color="#B74AF7" offset="100%"/></linearGradient><linearGradient x1="13.896%" y1="71.063%" x2="86.031%" y2="34.549%" id="c"><stop stop-color="#087CFA" offset="0%"/><stop stop-color="#1598D3" offset="10%"/><stop stop-color="#23B6AA" offset="22%"/><stop stop-color="#2DCC8B" offset="35%"/><stop stop-color="#35DD74" offset="46%"/><stop stop-color="#39E767" offset="57%"/><stop stop-color="#3BEA62" offset="67%"/></linearGradient></defs><path fill="url(#a)" d="M225.493 99.013L256 166.667 203.787 256l-32.16-78.08z"/><path fill="#B74AF7" d="M171.627 177.92l32.16 78.08-80.907-27.813z"/><path fill="url(#b)" d="M180.347 72.293L163.76 0H71.787L0 109.813l20.773 50.454L0 206.32 148.667 79.84z"/><path fill="url(#c)" d="M256 54.347L148.667 79.84 0 206.32 95.893 256l75.734-78.08z"/><path d="M48 48h160v160H48z"/><path d="M63.013 178h60v10h-60v-10zm-4.507-75.84v-.187A33.869 33.869 0 0193.093 68a36.32 36.32 0 0125.947 9.04l-9.147 11.04a24.347 24.347 0 00-17.253-6.747c-10.453 0-18.627 8.964-18.95 19.864l-.01.856c0 11.848 7.977 20.592 19.328 20.924l.672.01a23.12 23.12 0 0013.653-3.974v-9.493H92.72V96.987h28.613v28.64a42.855 42.855 0 01-28.186 10.48c-20.507 0-34.64-14.427-34.64-33.947zm68.96 0v-.187A34.107 34.107 0 01162.64 68c20.052 0 34.535 14.737 34.95 33.107l.01 1a34.107 34.107 0 01-34.159 34.149l-.988-.016c-20.373-.133-34.986-15.307-34.986-34.08zm54.96 0v-.187a20.027 20.027 0 00-19.973-20.64 19.734 19.734 0 00-19.8 19.65l.014.99a20.053 20.053 0 0020 20.747 19.734 19.734 0 0019.76-20.56z" fill="#FFF"/></svg>