<svg width="256px" height="256px" viewBox="0 0 256 256" xmlns="http://www.w3.org/2000/svg" preserveAspectRatio="xMidYMid"><title>GoLand</title><defs><linearGradient x1="63.100875%" y1="29.811449%" x2="28.8742684%" y2="83.7098692%" id="a"><stop stop-color="#087cfa"/><stop stop-color="#0d7bfa" offset="2%"/><stop stop-color="#5566f9" offset=".37"/><stop stop-color="#8a57f8" offset=".66"/><stop stop-color="#ab4ef7" offset=".88"/><stop stop-color="#b74af7" offset="1"/></linearGradient><linearGradient x1="49.1244199%" y1="38.4645211%" x2="74.8721245%" y2="4.95023911%" id="b"><stop stop-color="#087cfa"/><stop stop-color="#0d7bfa" offset="2%"/><stop stop-color="#5566f9" offset=".37"/><stop stop-color="#8a57f8" offset=".66"/><stop stop-color="#ab4ef7" offset=".88"/><stop stop-color="#b74af7" offset="1"/></linearGradient><linearGradient x1="13.8958333%" y1="71.0629926%" x2="86.03125%" y2="34.5494293%" id="c"><stop stop-color="#087cfa"/><stop stop-color="#1598d3" offset=".1"/><stop stop-color="#23b6aa" offset=".22"/><stop stop-color="#2dcc8b" offset=".35"/><stop stop-color="#35dd74" offset=".46"/><stop stop-color="#39e767" offset=".57"/><stop stop-color="#3bea62" offset=".67"/></linearGradient></defs><path fill="url(#a)" d="M225.493333 99.0133333 256 166.666667 203.786667 256l-32.16-78.08z"/><path fill="#b74af7" d="M171.626667 177.92l32.16 78.08L122.88 228.186667z"/><path fill="url(#b)" d="M180.346667 72.2933333 163.76 0H71.7866667L0 109.813333l20.7733333 50.453334L0 206.32 148.666667 79.84z"/><path fill="url(#c)" d="M256 54.3466667 148.666667 79.84 0 206.32 95.8933333 256l75.7333337-78.08z"/><path d="M48 48h160v160H48z"/><path d="M63.0133333 178h59.9999997v10H63.0133333v-10zm-4.5070507-75.84v-.186667c-.0304253-9.1266341 3.6236748-17.8793862 10.1346892-24.2749392C75.1519861 71.3028408 83.9687107 67.8059161 93.0933333 68c9.4989757-.5006268 18.8152547 2.7452297 25.9466667 9.04l-9.146667 11.04c-4.637398-4.4345384-10.8378875-6.8591503-17.253333-6.7466667-10.4533333 0-18.6273173 8.9637334-18.9500954 19.8636327l-.0099046.856367c0 11.847693 7.977426 20.591628 19.3284371 20.923551l.6715629.009783c4.85551.142753 9.632637-1.247465 13.653333-3.973334V109.52H92.72V96.9866667h28.613333v28.6400003c-7.821137 6.783492-17.833634 10.506209-28.1866663 10.480273C72.64 136.10694 58.5062826 121.68 58.5062826 102.16zm68.9603844 0v-.186667c.031499-9.2103777 3.78673-18.0164849 10.411517-24.4152551C144.50297 71.1593076 153.434075 67.7118951 162.64 68c20.051787 0 34.535247 14.7367136 34.950845 33.107214l.009208.999453c.01146 9.233384-3.721148 18.076908-10.344931 24.509717-6.387219 6.203065-14.936449 9.653371-23.814122 9.639496l-.987667-.01588c-20.373333-.133333-34.986666-15.306667-34.986666-34.08zm54.96 0v-.186667c.165703-5.407613-1.863514-10.6522172-5.625766-14.5400446-3.762252-3.8878274-8.937429-6.0880854-14.347568-6.100178-5.370024-.0178675-10.515496 2.1533441-14.249277 6.0129258-3.547091 3.6666027-5.529061 8.5560829-5.550375 13.6369488l.012986.990348c-.187805 5.428315 1.834395 10.70063 5.604078 14.611048 3.769682 3.910417 8.964371 6.124421 14.395922 6.135717 5.384661.011906 10.540363-2.177034 14.271621-6.059356 3.731259-3.882322 5.713966-9.120795 5.488379-14.500742z" fill="#fff"/></svg>