<svg width="256px" height="227px" viewBox="0 0 256 227" xmlns="http://www.w3.org/2000/svg" preserveAspectRatio="xMidYMid"><path d="M161.800691 62.1582686c11.580604-19.8218464 4.704555-45.1545471-15.355767-56.60348082C126.376197-5.87786239 100.722903.899434344 89.1422994 20.7212807c-.510394.8880681-.990497 1.7934702-1.4394336 2.7142805L48.552583 90.410633c-.8661815 1.3314017-1.6677539 2.703775-2.4017407 4.1123923L5.49529122 164.6811l72.65016268 40.72121 40.4498181-69.565912c.881414-1.321947 1.683512-2.695195 2.401565-4.112392l39.150283-66.9833014c.567824-.8388671 1.135473-1.6941929 1.653571-2.582436" fill="#fbbc04"/><path d="M78.4828567 205.188698c-11.5147684 20.142615-37.4890072 27.553221-57.4342937 15.931646C1.09504723 209.49019-5.98655988 184.2727 5.53643791 164.138314c11.52299779-20.134387 37.26681519-27.577909 57.22033089-15.95616 19.9535158 11.62998 27.2406813 36.871983 15.7259128 56.998314" fill="#34a853"/><path d="M235.256979 75.4167811c-19.830776-11.4286231-45.16978-4.6607813-56.661086 15.1337507l-41.478135 71.6713972c-11.427747 19.754085-4.67794 45.031807 15.076145 56.459555.035719.020661.071263.041146.106982.061632 19.834628 11.432825 45.180636 4.660431 56.669315-15.14198l41.469731-71.663167c11.425996-19.760214 4.669886-45.0417881-15.090328-56.4677848-.030816-.0178594-.061808-.0357188-.092624-.0534031" fill="#4285f4"/></svg>