<svg width="512px" height="66px" viewBox="0 0 512 66" xmlns="http://www.w3.org/2000/svg" preserveAspectRatio="xMidYMid"><title>Google Workspace</title><path d="M402.551189 18.1987484c4.015686 0 7.433292 1.5806425 10.252816 4.7419274 2.904965 3.161285 4.357447 7.006091 4.357447 11.5344181 0 4.6137672-1.452482 8.5012933-4.357447 11.6625782-2.819524 3.1612849-6.23713 4.7419274-10.252816 4.7419274h-.12816c-2.221444 0-4.272007-.4699207-6.15169-1.4097622-1.879683-.9398415-3.289445-2.2214435-4.229286-3.844806h-.256321l.256321 4.2292866v13.5849812h-5.767209V19.0958698h5.510888v4.3574468h.256321c.939841-1.6233625 2.349603-2.9049645 4.229286-3.844806 1.879683-.9398414 3.972966-1.4097622 6.27985-1.4097622zm-32.680851-.1281602c2.734084 0 5.211848.6835211 7.433292 2.0505632 2.221443 1.3670422 3.759365 3.0758448 4.613767 5.126408l-5.126408 2.1787235c-.578548-1.3057925-1.568873-2.3861472-2.819525-3.0758449-1.380642-.7259101-2.926697-1.0792941-4.485607-1.0252816-1.43746-.0623557-2.862123.2938101-4.101126 1.0252816-1.196162.7689612-1.794243 1.7088027-1.794243 2.8195245 0 1.7942428 1.666083 3.0331247 4.998248 3.7166458l4.613767 1.281602c6.15169 1.4524822 9.227535 4.528327 9.227535 9.2275344 0 2.6486441-1.153442 4.9128077-3.460326 6.7924906-2.306883 1.8796829-5.297288 2.7768043-8.971214 2.6913642-3.075845 0-5.767209-.8116813-8.074092-2.4350438-2.271738-1.5300132-4.016968-3.7227383-4.998248-6.2798498l5.126408-2.1787234c.768961 1.7942428 1.836963 3.204005 3.204005 4.2292866 1.374746 1.0080339 3.037235 1.5472196 4.741927 1.5379224 1.879683 0 3.417605-.3844806 4.613767-1.1534418 1.196162-.7689612 1.836963-1.7088027 1.922403-2.8195244 0-1.9651231-1.495202-3.4176054-4.485607-4.3574468l-5.382728-1.281602c-5.980809-1.5379224-8.971214-4.442887-8.971214-8.7148936 0-2.8195245 1.153442-5.083688 3.460325-6.7924907 2.306884-1.7088026 5.211848-2.563204 8.714894-2.563204zm-81.125407.1281602c4.613767 0 8.373133 1.5379224 11.278098 4.6137672 2.990404 3.0758449 4.485607 6.9633709 4.485607 11.6625783 0 4.7846474-1.495203 8.7148936-4.485607 11.7907384-2.990405 3.0758448-6.749771 4.6137672-11.278098 4.6137672-4.528327 0-8.330413-1.5379224-11.406258-4.6137672-2.990404-3.0758448-4.485607-7.006091-4.485607-11.7907384 0-4.6992074 1.495203-8.5867334 4.485607-11.6625783 2.990405-3.0758448 6.792491-4.6137672 11.406258-4.6137672zm208.260326 0c4.613767 0 8.244972 1.4524823 10.893617 4.3574468 2.648644 2.9049646 4.015686 7.0488111 4.101126 12.4315395v.640801h-24.222278c.08544 2.9904046 1.068002 5.4254484 2.947685 7.3051314 1.879683 1.8796829 4.186566 2.7768043 6.920651 2.6913642 3.673925 0 6.57889-1.8369629 8.714893-5.5108886l5.126408 2.563204c-1.330955 2.5006759-3.326736 4.5851579-5.767209 6.0235294-2.392324 1.4524823-5.169128 2.1787234-8.330413 2.1787234-4.528327 0-8.244973-1.5379224-11.149937-4.6137672-2.904965-3.0758448-4.357447-7.006091-4.357447-11.7907384 0-4.6137672 1.409762-8.5012933 4.229287-11.6625783 2.819524-3.1612849 6.45073-4.6992073 10.893617-4.6137672zm-30.630288 0c3.161285 0 5.895369.7689612 8.202253 2.3068836 2.306883 1.5379224 4.058406 3.7166458 5.254568 6.5361703l-5.254568 2.1787234c-1.623363-3.8448061-4.485607-5.7672091-8.586734-5.7672091-2.648644 0-4.955528 1.0680017-6.920651 3.2040051-1.879683 2.1360033-2.819524 4.7419274-2.819524 7.8177722 0 3.0758448.939841 5.7244889 2.819524 7.9459324 1.965123 2.1360033 4.272007 3.204005 6.920651 3.204005 4.186567 0 7.134251-1.922403 8.843054-5.767209l5.254568 2.1787234c-1.196162 2.8195244-2.990405 4.9982478-5.382728 6.5361702-2.392324 1.5379224-5.169128 2.3068836-8.330413 2.3068836-4.613767 0-8.415853-1.5379224-11.406258-4.6137672-2.990405-3.1612849-4.485607-7.0915311-4.485607-11.7907384 0-4.6992074 1.495202-8.5867334 4.485607-11.6625783 2.990405-3.0758448 6.792491-4.6137672 11.406258-4.6137672zm-33.449813 0c4.272007 0 7.646892 1.1107218 10.124656 3.3321652 2.477764 2.2214435 3.716646 5.3400084 3.716646 9.3556947v18.9677096h-5.510889v-4.2292866h-.25632c-2.392324 3.5030455-5.596329 5.2545682-9.612015 5.2545682-3.332165 0-6.15169-.9825615-8.458573-2.9476846-2.306884-1.9651231-3.460326-4.485607-3.460326-7.5614518 0-3.161285 1.196162-5.6817689 3.588486-7.5614518 2.392324-1.879683 5.639049-2.8195244 9.740175-2.8195244 3.417606 0 6.23713.5980809 8.458573 1.7942428v-1.281602c0-2.0505632-.811681-3.7593659-2.435043-5.1264081-1.49838-1.3216633-3.426821-2.0502972-5.422789-2.0510046l-.0881 4.414e-4c-3.246725 0-5.809929 1.3670422-7.689612 4.1011265l-5.126408-3.2040051c2.819524-4.0156862 6.963371-6.0235294 12.431539-6.0235294zM223.639549 4.99824781l9.483855 35.24405509h.256321l9.740175-29.2205257h5.382728l9.740176 29.2205257h.25632l8.971214-35.24405509h6.023529L261.446809 49.8543179h-5.89537l-9.612015-29.6050063h-.25632l-9.740175 29.6050063h-5.89537L217.61602 4.99824781h6.023529zm99.836796 13.20050059c1.623363 0 3.033125.2563204 4.229287.7689612l-1.794243 5.6390488c-.683521-.2563204-1.794243-.3844806-3.332165-.3844806-2.221443 0-4.143846.8544014-5.767209 2.5632041-1.623363 1.7088026-2.435044 3.7593658-2.435044 6.1516896v16.9171464h-5.767209V19.0958698h5.510889v5.126408h.25632c.598081-1.7088026 1.836963-3.1185648 3.716646-4.2292866 1.879683-1.1107217 3.673926-1.7088026 5.382728-1.7942428zm12.68786-13.20050059V32.6808511l13.328661-13.5849813h7.305131v.2563204l-11.918898 11.9188987 12.559699 18.3269086v.2563204h-7.048811l-9.483854-14.4821026-4.741928 4.7419274v9.7401752h-5.767209V4.99824781h5.767209zm97.529913 29.60500629c-2.306884 0-4.272007.5553608-5.89537 1.6660826-1.623362 1.1107217-2.392323 2.5204839-2.306883 4.2292866 0 1.5379224.640801 2.7768043 1.922403 3.7166458 1.281602.9398415 2.776804 1.4524823 4.485607 1.5379224 2.392324 0 4.528327-.8971214 6.40801-2.6913642 1.879683-1.7942428 2.862244-3.8875261 2.947684-6.2798498-1.794242-1.4524823-4.314726-2.1787234-7.561451-2.1787234zm-32.168211-11.1499375c-2.819524 0-5.169128 1.0252816-7.048811 3.0758449-1.794242 2.1360033-2.691364 4.7846474-2.691364 7.9459324 0 3.3321652.897122 6.0235294 2.691364 8.0740926 1.879683 2.0505632 4.229287 3.0758448 7.048811 3.0758448 2.819525 0 5.169128-1.0252816 7.048811-3.0758448 1.879683-2.0505632 2.819525-4.7419274 2.819525-8.0740926 0-3.161285-.939842-5.8099291-2.819525-7.9459324-1.879683-2.1360034-4.229286-3.161285-7.048811-3.0758449zm-112.780976 0c-2.819524 0-5.211848 1.0252816-7.176971 3.0758449-1.965123 2.0505632-2.947685 4.6992073-2.947685 7.9459324 0 3.3321652.982562 6.0235294 2.947685 8.0740926 1.965123 2.0505632 4.357447 3.0758448 7.176971 3.0758448 2.819525 0 5.211848-1.0252816 7.176971-3.0758448 1.965123-2.0505632 2.904965-4.7419274 2.819525-8.0740926 0-3.2467251-.939842-5.8953692-2.819525-7.9459324-1.965123-2.0505633-4.357446-3.0758449-7.176971-3.0758449zm208.132165 0c-2.136003 0-3.972966.640801-5.510888 1.922403-1.537923 1.2816021-2.605924 3.0758449-3.204005 5.3827285h17.686107c-.17088-2.1360034-1.025281-3.8875261-2.563204-5.2545683-1.537922-1.3670421-3.673925-2.0505632-6.40801-2.0505632z" fill="#5f6368"/><path d="M25.8883605 30.2458073v-7.0488111h23.3251564c.267445 1.436813.396197 2.896002.3844806 4.3574469 0 5.126408-1.4097622 11.6625782-6.0235294 16.1481852-4.485607 4.7419274-10.1246558 7.1769712-17.8142678 7.1769712C11.7907384 50.8795995 0 39.4733417 0 25.5038798 0 11.534418 11.7907384 0 25.7602003 0c7.8177722 0 13.3286608 3.07584481 17.5579474 7.04881101l-4.9982478 4.87008759C32.995696 6.83767508 25.1351358 5.46346472 18.4027851 8.43691961 11.6704344 11.4103745 7.3917548 18.1460824 7.56145181 25.5038798c0 10.2528161 8.07409259 18.4550689 18.19874849 18.4550689 6.6643304 0 10.5091364-2.6913642 12.9441802-5.126408 1.922403-1.922403 3.204005-4.7419274 3.7166458-8.5867334H25.8883605z" fill="#4285f4"/><path d="M85.098373 34.4750939c0 9.4838548-7.4332916 16.4045056-16.5326659 16.4045056-9.0993742 0-16.4045056-6.9206508-16.4045056-16.4045056 0-9.4838549 7.4332916-16.4045057 16.4045056-16.4045057 8.9712141 0 16.5326659 6.9206508 16.5326659 16.4045057m-7.3051314 0c0-5.8953692-4.2292867-9.8683355-9.2275345-9.8683355-4.9982478 0-9.2275344 3.9729663-9.2275344 9.8683355 0 5.8953692 4.3574468 9.9964956 9.2275344 9.9964956 4.8700876 0 9.2275345-4.1011264 9.2275345-9.9964956" fill="#ea4335"/><path d="M120.983229 34.4750939c0 9.4838548-7.433292 16.4045056-16.532666 16.4045056-9.099374 0-16.4045054-6.9206508-16.4045054-16.4045056 0-9.4838549 7.4332916-16.4045057 16.4045054-16.4045057 8.971214 0 16.532666 6.9206508 16.532666 16.4045057m-7.305131 0c0-5.8953692-4.229287-9.8683355-9.227535-9.8683355-4.9982476 0-9.2275342 3.9729663-9.2275342 9.8683355 0 5.8953692 4.3574468 9.9964956 9.2275342 9.9964956 4.870088 0 9.227535-4.1011264 9.227535-9.9964956" fill="#fbbc04"/><path d="M155.330163 19.0958698v29.4768461c0 12.0470588-7.176972 17.0453066-15.635545 17.0453066-7.945932 0-12.68786-5.3827284-14.482102-9.7401752l6.279849-2.563204c1.153442 2.6913642 3.844806 5.8953692 8.202253 5.8953692 5.510889 0 8.843054-3.4603254 8.843054-9.612015v-2.4350438h-.25632c-2.207988 2.4728525-5.401857 3.8349437-8.714894 3.7166458-8.074093 0-15.635544-7.1769712-15.635544-16.2763454 0-9.2275345 7.561451-16.5326659 15.635544-16.5326659 3.972966 0 7.048811 1.7942428 8.714894 3.7166458h.25632v-2.6913642h6.792491zm-6.27985 15.5073843c0-5.767209-3.844806-9.9964957-8.843054-9.9964957-4.870088 0-9.099374 4.2292867-9.099374 9.9964957 0 5.6390488 4.229286 9.8683354 9.099374 9.8683354 4.998248 0 8.843054-4.2292866 8.843054-9.8683354" fill="#4285f4"/><path fill="#34a853" d="M160.328411 1.922403h7.176971v48.0600751h-7.176971z"/><path d="M195.316145 39.8578223l5.639049 3.844806c-1.794243 2.563204-6.15169 7.1769712-13.713141 7.1769712-9.355695 0-16.276346-7.1769712-16.276346-16.4045056 0-9.7401753 7.048811-16.4045057 15.507384-16.4045057 8.458574 0 12.68786 6.7924906 13.969462 10.5091365l.768961 1.7942428-21.915394 9.0993742c1.666083 3.3321652 4.229287 4.9982478 7.945933 4.9982478 3.716645 0 6.151689-1.7942428 8.074092-4.6137672m-17.173467-5.8953692 14.610263-6.0235294c-.768961-2.0505632-3.204005-3.4603255-6.023529-3.4603255-3.716646 0-8.843054 3.2040051-8.586734 9.4838549" fill="#ea4335"/></svg>