<svg width="256px" height="125px" viewBox="0 0 256 125" xmlns="http://www.w3.org/2000/svg" preserveAspectRatio="xMidYMid"><path d="M184.31481 67.7044587c13.469-7.736 26.902-15.535 40.417-23.191 12.828-7.268 27.921-.565 30.829 13.579 1.683 8.182-1.97 17.021-9.357 21.326-24.218 14.113-48.471 28.1700003-72.845 42.0120003-7.544 4.284-15.315 3.496-22.19-1.754-6.984-5.33-9.185-12.682-7.547-21.2390003 1.87-6.514 6.15-10.869 11.987-14.127 9.651-5.386 19.145-11.056 28.706-16.606" fill="#fabc05"/><path d="M194.20341 62.0789587c-13.435-7.796-26.904-15.531-40.292-23.406-12.709-7.476-14.449-23.898-3.655-33.48999999 6.244-5.546999996 15.725-6.804 23.147-2.559 24.332 13.91699999 48.632 27.89299999 72.806 42.07999999 7.482 4.391 10.684 11.516 9.577 20.095-1.125 8.712-6.391 14.294-14.62 17.155-6.577 1.638-12.488.108-18.228-3.318-9.491-5.665-19.148-11.053-28.735-16.557" fill="#109d58"/><path d="M71.7518102 56.5628587c-8.621 4.898-17.247 9.787-25.859 14.7-5.038 2.874-10.02 5.846-15.084 8.672-10.203 5.695-22.32500003 2.357-28.11000003-7.674-5.521-9.572-2.348-21.982 7.47800003-27.718 24.025-14.023 48.112-27.944 72.286-41.70899999 7.414-4.222 15.106-3.690999996 21.9619998 1.356 7.236 5.327 9.605 12.82299999 7.98 21.61099999-1.008 2.126-1.61 4.619-3.119 6.294-2.455 2.725-5.245 5.334-8.351 7.25-9.6119998 5.927-19.4389998 11.505-29.1829998 17.218" fill="#e94436"/><path d="M61.8670102 62.0569587c8.553 5.016 17.1 10.043 25.661 15.045 5.007 2.926 10.072 5.755 15.0509998 8.726 10.034 5.99 13.205 18.1560003 7.41 28.1810003-5.53 9.568-17.8629998 13.026-27.7439998 7.383-24.157-13.795-48.256-27.6930003-72.26400003-41.7460003-7.363-4.31-10.749-11.237-9.806-19.698.995-8.931 6.302-14.73 14.72500003-17.717 2.345-.189 4.805-.915 7.011-.445 3.587.764 7.242 1.875 10.454 3.607 9.939 5.36 19.683 11.082 29.502 16.664" fill="#4385f3"/></svg>