<svg width="256px" height="367px" viewBox="0 0 256 367" xmlns="http://www.w3.org/2000/svg" preserveAspectRatio="xMidYMid"><path d="M70.5853976 271.865254c10.614162 13.526124 20.2744618 27.774283 28.9109362 42.641286 7.3738402 13.982879 10.4474762 23.46353 15.8371612 40.310806 3.304519 9.307489 6.291574 12.085306 12.71302 12.085306 6.998654 0 10.173301-4.725896 12.626438-12.0348 5.093866-15.909312 9.091035-28.052338 15.397039-39.524359 12.37391-22.150381 27.749304-41.833194 42.85774-60.751206 4.090966-5.35361 30.534335-36.54452 42.439262-61.155252 0 0 14.632239-27.035008 14.632239-64.791667 0-35.3179512-14.430216-59.8132415-14.430216-59.8132415l-41.544589 11.1256959-25.231231 66.4511406-6.241068 9.163187-1.248214 1.659475-1.659475 2.077951-2.914903 3.318949-4.163117 4.163117-22.467845 18.304728-56.169613 32.431909-9.3435644 54.336975z" fill="#34a853"/><path d="M12.6120081 188.891517c13.7087044 31.313567 40.1448587 58.839202 58.0311104 82.995383L165.64444 159.352866c0 0-13.384024 17.503851-37.662861 17.503851-27.042224 0-48.8895695-21.594817-48.8895695-48.824633 0-18.672698 11.2339225-31.5011595 11.2339225-31.5011595L25.8373003 113.811107l-13.2252922 75.08041z" fill="#fbbc04"/><path d="M166.705061 5.78651629C198.256727 15.959818 225.262874 37.3165365 241.597878 68.8104812L165.673301 159.28793c0 0 11.233922-13.059344 11.233922-31.616601 0-27.8647456-23.46353-48.680331-48.810203-48.680331-23.968587 0-37.7350124 17.4749906-37.7350124 17.4749906v-56.99935L166.705061 5.78651629z" fill="#4285f4"/><path d="M30.0148476 45.7654275C48.8607087 23.2182162 82.0213432 0 127.736265 0c22.179241 0 38.88943 5.82259183 38.88943 5.82259183L90.2898565 96.5164943H36.2054099l-6.1905623-50.7510668z" fill="#1a73e8"/><path d="M12.6120081 188.891517c0 0-12.6120081-24.697313-12.6120081-60.477032 0-33.8172093 13.145926-63.3775051 30.0148476-82.6490575l60.3182995 50.7582819-77.721139 92.3678076z" fill="#ea4335"/></svg>