<svg width="256px" height="265px" viewBox="0 0 256 265" xmlns="http://www.w3.org/2000/svg" preserveAspectRatio="xMidYMid"><path d="M199.061185 207.634845c.024317 9.403805 3.319817 19.020072 3.316213 28.424-.003677 9.545318-3.306429 18.878302-3.277213 28.424-47.411-.007-94.823 0-142.2330001-.004.0227797-9.383754-4.418217-19.036989-4.4220418-28.42-.0036324-9.564489 4.4298598-18.858754 4.4490418-28.424 47.3900001.015 94.7770001.004 142.1670001 0z" fill="#3bab59"/><path d="M144.20343 50.8391621c6.585537-6.5717679 17.099104-10.034255 23.609155-16.6809174 26.975 27.141 54.064 54.176 81.103 81.2610003 2.436 2.508 5.406 4.816 6.357 8.355.929 2.303.645 4.812.687 7.233.004 39.657-.004 79.31.006 118.963.599 7.825-6.861 15.134-14.652 14.512-14.072 0-28.141.004-42.214 0-.057-18.949.011-37.898-.038-56.847.034-20.833.015-41.662.008-62.491-17.563-17.535-35.088-35.11-52.639-52.6530003-6.123-6.176-12.341-12.262-18.407-18.491 3.326-3.183 12.738449-19.7268824 16.179845-23.1610826z" fill="#4586f7"/><path d="M56.8487849 145.220645c.079 20.802-.008 41.609.045 62.414-.038 18.949.019 37.895-.026 56.844-14.808-.007-29.616.004-44.424-.007-6.18399999-.777-11.628999994-5.983-12.4169999936-12.217-.049-16.72-.015-33.442-.011-50.16C9.88278491 192.319645 16.0386327 179.624241 25.8716327 169.814241c9.109-9.147 21.9101522-15.404596 30.9771522-24.593596z" fill="#fdc00d"/><path d="M127.246385.0255447371c1.224.1519999999 2.679-.3300000001 3.767.3559999999 2.955.576 5.546 2.285000003 7.624 4.418000003 8.828 8.84799996 17.664 17.68799996 26.501 26.52799996.886.947 1.92 1.762 2.674 2.83-9.912 10.121-20.01 20.056-29.994 30.105-3.274 3.236-6.469 6.555-9.795 9.738-4.388 4.134-8.541 8.51-12.838 12.739-19.4380001 19.5020003-38.9440001 38.9330003-58.3370001 58.4810003-9.067 9.189-18.244 18.275-27.354 27.422-9.832 9.81-19.61199999 19.677-29.4789999936 29.452-.034-21.434 0-42.87-.00699999998-64.301.02299999998-4.046-.06500000002-8.093.07499999998-12.136-.041-.819.5759999996-1.467.5379999996-2.285.573000004-.962 1.084000004-1.963 1.641000004-2.933 1.402-1.864 3.145-3.425 4.771-5.088C43.8143849 78.4945447 80.6063849 41.6455447 117.398385 4.79554474c1.505-1.58 3.228-3.016 5.324-3.732 1.47-.492000003 2.925-1.208000003 4.524-1.0380000029z" fill="#ec5043"/></svg>