<svg width="256px" height="256px" viewBox="0 0 256 256" xmlns="http://www.w3.org/2000/svg" preserveAspectRatio="xMidYMid"><defs><linearGradient x1="0%" y1="50%" x2="99.999319%" y2="50%" id="a"><stop stop-color="#246fdb"/><stop stop-color="#2973df" offset=".0552"/><stop stop-color="#377deb" offset=".2781"/><stop stop-color="#3f83f2" offset=".5490999999999999"/><stop stop-color="#4285f4" offset="1"/></linearGradient></defs><path d="M173.2 82.8c25 25 25 65.5 0 90.5-12.5 12.5-12.5 32.8 0 45.2 12.5 12.5 32.8 12.5 45.3 0 50-50 50-131 0-181l-45.3 45.3z" fill="#ea4335"/><path d="M218.4 37.5c-50-50-130.9-50-180.9 0-50 50-50 131 0 181l45.3-45.2c-25-25-25-65.5 0-90.5 25-25 65.5-25 90.5 0 12.5 12.5 32.8 12.5 45.3 0 12.3-12.5 12.3-32.8-.2-45.3z" fill="url(#a)"/><path d="M218.4 218.5l-45.3-45.2c-25 25-65.5 25-90.5 0l-45.3 45.2c50.2 50 131.1 50 181.1 0z" fill="#fbbc04"/><path d="M173.2 173.3c12.5-12.5 32.7-12.5 45.2 0 12.5 12.5 12.5 32.8 0 45.3-12.5 12.5-32.7 12.5-45.2 0-12.5-12.5-12.5-32.8 0-45.3z" fill="#ea4335"/><path d="M37.5 173.3c12.5-12.5 32.7-12.5 45.2 0 12.5 12.5 12.5 32.8 0 45.3-12.5 12.5-32.7 12.5-45.2 0-12.5-12.5-12.5-32.8 0-45.3z" fill="#34a853"/></svg>