<svg width="256" height="283" xmlns="http://www.w3.org/2000/svg" preserveAspectRatio="xMidYMid"><path d="M119.553 134.916L1.06 259.061a32.14 32.14 0 0047.062 19.071l133.327-75.934-61.896-67.282z" fill="#EA4335"/><path d="M239.37 113.814L181.715 80.79l-64.898 56.95 65.162 64.28 57.216-32.67a31.345 31.345 0 000-55.537h.177z" fill="#FBBC04"/><path d="M1.06 23.487A30.565 30.565 0 000 31.61v219.327a32.333 32.333 0 001.06 8.124l122.555-120.966L1.06 23.487z" fill="#4285F4"/><path d="M120.436 141.274l61.278-60.483L48.564 4.503A32.847 32.847 0 0032.051 0C17.644-.028 4.978 9.534 1.06 23.399l119.376 117.875z" fill="#34A853"/></svg>