<svg width="256px" height="269px" viewBox="0 0 256 269" xmlns="http://www.w3.org/2000/svg" preserveAspectRatio="xMidYMid"><defs><path d="M166.575339 58.5578555c-4.482207-11.1332218-11.27781-21.6880946-20.386809-30.652507-6.072668-6.0726666-12.723683-10.9886347-19.663873-15.037079C113.222626 5.34973001 98.474721 1.30128568 83.5822294.867523786 97.46261 1.59046028 111.053816 7.08477758 121.753275 17.7842376c10.410287 10.4102855 16.049191 24.1460787 16.772128 37.881872 0 1.0121111.144586 1.8796349.144586 2.8917459 0 1.0121111 0 1.8796349-.144586 2.891746-.433763 15.6154282-4.771382 30.2187452-12.000746 42.9424275-10.265699 17.928825-26.314889 32.242967-45.6895863 40.050681-10.69946 4.337619-22.4110312 6.795604-34.7009515 6.795604-16.6275392 0-32.2429672-4.482207-45.689585963-12.145334 4.048444323 7.084778 8.964412493 13.735793 15.037078963 19.663873 36.1468244 36.146824 94.7046798 36.146824 130.8515038 0 6.072667-6.072666 10.988635-12.723682 15.037079-19.663873 13.880381-24.724428 15.615429-54.5094108 5.205144-80.5351245z" id="a"/><filter x="-7.2%" y="-7.3%" width="120.3%" height="118.9%" filterUnits="objectBoundingBox" id="b"><feMorphology radius="2" operator="dilate" in="SourceAlpha" result="shadowSpreadOuter1"/><feOffset dx="5" dy="4" in="shadowSpreadOuter1" result="shadowOffsetOuter1"/><feGaussianBlur stdDeviation="3" in="shadowOffsetOuter1" result="shadowBlurOuter1"/><feColorMatrix values="0 0 0 0 0.768627451   0 0 0 0 0.489468777   0 0 0 0 0.0235294118  0 0 0 0.2 0" in="shadowBlurOuter1"/></filter><linearGradient x1="1.4629771%" y1="44.2585302%" x2="77.9684478%" y2="83.7160105%" id="c"><stop stop-color="#bf360c" stop-opacity="0.2"/><stop stop-color="#bf360c" stop-opacity="0" offset="1"/></linearGradient><radialGradient cx="12.8815501%" cy="13.4262081%" fx="12.8815501%" fy="13.4262081%" r="99.3077611%" gradientTransform="matrix(.999645 0 0 1 4.572968000002e-5 0)" id="d"><stop stop-color="#fff"/><stop stop-color="#fff" stop-opacity="0" offset="1"/></radialGradient></defs><g transform="translate(.722937 .722937)"><path d="M168.155028 168.155028c-10.554873 10.554872-24.290667 16.193777-38.171047 16.916713-.867524 0-1.879635.144587-2.747159.144587-.867524 0-1.879634 0-2.747158-.144587-14.892492-.433762-29.6403967-4.482206-42.9424281-12.000745-7.0847776-4.048445-13.7357934-8.964414-19.6638725-15.03708-9.1089997-9.108999-15.9046028-19.519285-20.386809-30.652506-10.5548727-26.025714-8.6752378-55.6661104 5.34973-80.3905383C18.7963487 62.7508872 0 92.8250451 0 127.236822c0 34.411777 18.7963487 64.485935 46.8462844 80.390537 13.4466188 7.663127 29.0620468 12.145333 45.6895861 12.145333 12.2899205 0 24.0014915-2.457983 34.7009515-6.795602 19.374698-7.807715 35.568475-21.97727 45.689586-40.050682 7.229364-12.723682 11.566983-27.326999 12.000746-42.942427-.578349 14.024968-6.217254 27.616174-16.772126 38.171047z" fill="#4fc3f7"/><path d="M158.331281 27.182412c-36.146825-36.14682446-94.7046805-36.14682446-130.8515049 0-6.0726666 6.0726665-10.9886347 12.7236822-15.037079 19.6638724C-1.58227076 71.5707123-3.31731833 101.211108 7.2375544 127.236822c4.4822062 11.133222 11.2778092 21.688095 20.386809 30.652507 6.0726664 6.072667 12.7236822 10.988635 19.6638725 15.037079 13.3020313 7.518539 28.0499357 11.566983 42.9424273 12.000746-13.8803805-.722937-27.4715865-6.361841-38.1710465-16.916714-11.2778093-11.133222-16.9167138-26.025714-16.9167138-40.773618 0 0 0-.144587 0-.144587 0-15.760016 4.0484443-31.5200313 12.145333-45.6895864 4.0484443-7.0847776 8.9644124-13.7357933 15.0370789-19.6638725 9.1089998-9.1089997 19.5192852-15.9046028 30.6525071-20.386809 26.0257141-10.5548728 55.8106971-8.6752378 80.5351251 5.34973-4.048444-6.9401902-9.109-13.5912059-15.181666-19.5192851z" transform="translate(34.259)" fill="#4285f4"/><g style="fill:#1a237e"><path d="M127.236822 40.0506815c-11.133222 4.4822062-21.688094 11.2778091-30.6525072 20.3868089-6.0726665 6.0726665-10.9886346 12.7236822-15.0370789 19.6638724-8.0968887 14.024968-12.145333 29.7849842-12.145333 45.5449992 0 0 0 .144587 0 .144587 0 .144588 0 .433762 0 .578349.1445873-15.470841 4.1930316-31.0862689 12.145333-44.9666494 4.0484443-7.0847776 8.9644124-13.7357933 15.0370789-19.6638725 9.1090002-9.1089997 19.5192852-15.9046028 30.6525072-20.386809 26.025714-10.5548728 55.810696-8.6752378 80.535125 5.34973-.433762-.7229365-.867524-1.4458729-1.301286-2.1688094-24.435253-13.3020314-53.641888-14.8924917-79.233839-4.4822062z" opacity="0.2"/><path d="M61.8833634 156.443456c-9.1089997-9.109-15.9046028-19.519285-20.386809-30.652507-4.4822062-11.133222-6.795603-22.844793-6.795603-34.5563642-.1445873 12.2899212 2.0242222 24.4352532 6.795603 36.0022372 4.4822062 11.133222 11.2778093 21.688095 20.386809 30.652507 6.0726665 6.072667 12.7236822 10.988635 19.6638725 15.037079 13.3020314 7.518539 28.0499361 11.566983 42.9424281 12.000746-6.072668-.289175-12.145334-1.590461-17.928826-3.75927-8.6752375-2.024222-17.0613007-5.205143-25.0136021-9.687349-7.0847776-3.903857-13.7357934-8.964412-19.6638725-15.037079z" opacity="0.2"/></g><path d="M227.291232 61.8833634c-6.072667-6.0726665-12.723683-10.9886347-19.663873-15.037079-24.724427-14.0249678-54.509411-15.9046027-80.535124-5.34973-11.133222 4.4822062-21.688095 11.2778093-30.6525075 20.386809-6.0726665 6.0726665-10.9886346 12.7236822-15.0370789 19.6638725-7.9523014 14.0249678-12.0007457 29.7849831-12.0007457 45.5449991 0-14.747905 5.6389046-29.4958091 16.9167138-40.7736183 10.5548728-10.5548728 24.2906663-16.1937773 38.1710473-16.9167138 1.879634-.1445873 3.759269-.1445873 5.494317 0 14.892492.4337619 29.640396 4.4822062 42.942427 12.0007457 7.084778 4.0484443 13.735793 8.9644124 19.663873 15.0370789 9.108999 9.1090005 15.904602 19.5192855 20.386809 30.6525075 10.554872 26.025713 8.675237 55.810697-5.349731 80.390538 7.084778-4.048446 13.735794-8.964414 19.663873-15.03708 36.146824-35.85765 36.146824-94.5600925 0-130.5623296z" fill="#ffc107"/><path d="M69.4019029 128.682695c0 14.747904 5.6389046 29.640396 16.9167138 40.918206 10.5548728 10.554871 24.2906663 16.193776 38.1710473 16.916713.867524 0 1.879634.144587 2.747158.144587.867524 0 1.879635 0 2.747159-.144587 13.88038-.722937 27.471586-6.361842 38.171047-16.916713 9.687348-9.68735 15.181665-21.97727 16.627538-34.556365.144588-1.59046.289175-3.325508.289175-4.915968-.722936 13.880381-6.361841 27.471587-16.916713 38.02646-10.554873 10.554872-24.290667 16.193777-38.171047 16.916713-.867524 0-1.879635.144587-2.747159.144587-.867524 0-1.879634 0-2.747158-.144587-13.880381-.722936-27.4715872-6.361841-38.1710473-16.916713-11.133222-11.133223-16.6275392-25.591953-16.9167138-40.195269 0 .144587 0 .433761 0 .722936 0-.144587 0 0 0 0z" fill="#fff" opacity="0.2"/><g style="fill:#bf360c"><path d="M213.121677 125.790949c-4.482206-11.133222-11.277809-21.688094-20.386809-30.6525072-6.072667-6.0726664-12.723682-10.9886346-19.663872-15.037079-13.302032-7.5185393-28.049936-11.5669837-42.942428-12.0007456-1.879635-.1445873-3.75927-.1445873-5.494317 0-13.880381.7229365-27.4715869 6.2172538-38.171047 16.9167138-11.4223965 11.1332219-17.0613011 25.881126-17.0613011 40.629031 0 0 0 .144587 0 .144587 0 .289174 0 .433762 0 .722937.1445873-14.603317 5.7834918-29.0620474 16.9167138-40.1952693 10.5548728-10.5548728 24.2906663-16.1937773 38.1710473-16.9167138 1.879634-.1445873 3.759269-.1445873 5.494317 0 14.892492.4337619 29.640396 4.4822062 42.942427 12.0007457 7.084778 4.0484443 13.735793 8.9644124 19.663873 15.0370789 9.108999 9.1090005 15.904602 19.5192855 20.386809 30.6525075 4.482205 11.133221 6.651015 22.844793 6.651015 34.556364.289175-12.145333-1.879635-24.290667-6.506428-35.85765z" opacity="0.2"/><path d="M227.291232 191.144408c-5.638905 5.638904-12.000746 10.410285-18.651761 14.314141-.433762.722937-.722937 1.445874-1.156698 2.16881 7.084776-4.048444 13.735792-8.964412 19.663872-15.037078 18.217999-18.218 27.326999-42.219491 27.037824-66.220983.144588 23.56773-8.964412 46.990872-26.893237 64.77511z" opacity="0.2"/></g><path d="M62.903664 28.6282849c9.1089998 9.1089998 15.9046027 19.5192852 20.3868089 30.6525071 4.4822063 11.1332219 6.6510157 22.8447931 6.6510157 34.5563642.1445873-12.2899203-2.0242221-24.4352533-6.6510157-36.0022371-4.4822062-11.133222-11.2778091-21.6880947-20.3868089-30.6525071-6.0726665-6.0726666-12.7236822-10.9886347-19.6638725-15.037079C29.9377602 4.62679352 15.1898558.578349191.297364109.144587298 6.37003061.433761893 12.4426971 1.73504757 18.2261891 3.90385703c8.6752378 2.02422217 17.0613011 5.20514272 25.0136024 9.68734887 7.0847775 3.9038571 13.7357933 8.9644125 19.6638725 15.037079z" opacity="0.2" transform="translate(129.686616 69.401903)" fill="#1a237e"/><path d="M227.291232 61.8833634c-6.072667-6.0726665-12.723683-10.9886347-19.663873-15.037079-4.048444-7.0847775-8.964412-13.7357932-15.037078-19.6638724-36.146825-36.14682446-94.7046805-36.14682446-130.8515049 0-6.0726665 6.0726665-10.9886347 12.7236822-15.037079 19.6638724C18.7963487 62.7508872 0 92.8250451 0 127.236822c0 .289174 0 .433762 0 .722937.289174595-33.6888409 18.5071741-63.0400623 45.5449988-78.9446651-7.229365 13.591206-10.8440474 28.6282849-10.8440474 43.6653639.2891747-15.3262535 4.1930316-30.6525071 12.0007457-44.3883004 4.0484443-7.0847776 8.9644125-13.7357933 15.037079-19.6638725 36.1468244-36.14682437 94.7046799-36.14682437 130.8515049 0 5.349729 5.34973 9.976523 11.2778093 13.735793 17.6396503-24.435254-13.4466186-53.641887-15.0370789-79.233839-4.6267935-11.133222 4.4822062-21.688095 11.2778093-30.6525075 20.386809-6.0726665 6.0726665-10.9886346 12.7236822-15.0370789 19.6638725-7.9523014 13.8803805-12.0007457 29.6403958-12.0007457 45.4004118 0-1.879635.1445873-3.903857.2891746-5.783493 1.012111-13.302031 5.0605554-26.4594747 11.8561584-38.4602205 4.0484443-7.0847776 8.9644124-13.7357932 15.0370789-19.6638725 9.1090002-9.1089997 19.5192852-15.9046027 30.6525072-20.3868089 26.025714-10.5548727 55.810696-8.6752379 80.535125 5.34973 7.084777 4.0484444 13.735793 8.9644125 19.663872 15.0370789 17.928825 17.928825 26.893238 41.20738 27.041227 64.77511.141185-24.001492-8.823228-47.8583962-27.185814-66.0763956z" opacity="0.2" fill="#fff"/><g transform="translate(46.548921 68.678966)"><use filter="url(#b)" href="#a"/><path d="M166.572757 58.5578555c-4.482207-11.1332218-11.27781-21.6880946-20.386809-30.652507-6.072667-6.0726666-12.723683-10.9886347-19.663873-15.037079C113.220044 5.34973001 98.4721392 1.30128568 83.5796476.867523786 97.4600281 1.59046028 111.051234 7.08477758 121.750694 17.7842376c10.410286 10.4102855 16.04919 24.1460787 16.772127 37.881872 0 1.0121111.144587 1.8796349.144587 2.8917459 0 1.0121111 0 1.8796349-.144587 2.891746-.433763 15.6154282-4.771381 30.2187452-12.000746 42.9424275-10.265699 17.928825-26.314889 32.242967-45.6895861 40.050681-10.6994601 4.337619-22.4110312 6.795604-34.7009515 6.795604-16.6275392 0-32.2429673-4.482207-45.689585987-12.145334 4.048444327 7.084778 8.964412497 13.735793 15.037078987 19.663873 36.1468244 36.146824 94.7046796 36.146824 130.8515046 0 6.072666-6.072666 10.988634-12.723682 15.037078-19.663873 13.880381-24.724428 15.615429-54.5094108 5.205144-80.5351245z" fill="#3367d6"/></g><g style="fill:#1a237e"><path d="M80.9688867 87.1861405c19.3746983-7.8077141 35.4238873-21.9772692 45.6895863-40.0506815 7.229364-12.7236822 11.566983-27.3269992 12.000746-42.94242737 0-1.01211108.144586-1.87963486.144586-2.89174595 0-.2891746 0-.433761894 0-.722936489 0 .722936489 0 1.445872979 0 2.168809469-.433761 15.61542814-4.77138 30.21874524-12.000745 42.94242734-10.265698 17.9288249-26.314888 32.2429674-45.689586 40.0506815-10.6994601 4.3376189-22.4110312 6.795603-34.7009515 6.795603-16.6275392 0-32.2429674-4.4822063-45.689586011-12.145333.433761891.7229365.867523791 1.445873 1.301285681 2.1688094C15.1816663 89.7887119 30.3633325 93.9817435 46.5571098 93.9817435c12.0007457 0 23.7123168-2.4579841 34.4117769-6.795603z" opacity="0.2" transform="translate(46.267935 127.236822)"/><path d="M48.0029829 82.5593469c13.157444 7.229365 28.3391103 11.4223966 44.5328876 11.4223966 12.2899205 0 24.0014915-2.4579841 34.7009515-6.795603 19.374698-7.8077141 35.568475-21.9772692 45.689586-40.0506815 7.229364-12.7236822 11.566983-27.3269992 12.000746-42.94242737 0 1.15669838-.144588 2.31339677-.289175 3.47009515C183.481281 21.39892 179.432837 34.2671895 172.926408 45.689586c-10.265699 18.0734123-26.314888 32.2429674-45.689586 40.0506815-10.69946 4.3376189-22.411031 6.795603-34.7009515 6.795603-16.6275393 0-32.2429673-4.4822063-45.6895861-12.145333C19.0855233 64.6305221.289174595 34.8455387 0 .722936489c0 .289174591 0 .433761891 0 .722936491C0 35.8576498 18.7963487 65.9318077 46.8462844 81.8364105" opacity="0.2" transform="translate(0 125.790949)"/></g><path d="M193.457805 97.4518386c8.675237 8.8198254 15.181666 19.0855234 19.519285 29.7849834 10.554872 26.025714 8.675237 55.810696-5.349731 80.390537 7.084778-4.048444 13.735794-8.964412 19.663873-15.037078 11.133222-11.133222 18.796349-24.290667 22.989381-38.315635l-56.822808-56.8228074z" fill="url(#c)"/><path d="M207.627359 206.181486c-4.048444 7.084778-8.964412 13.735794-15.037078 19.663872-36.146825 36.146825-94.7046805 36.146825-130.8515049 0-5.34973-5.349729-9.9765235-11.277809-13.7357932-17.495062-.4337619-.289174-.8675239-.433762-1.3012858-.722937 4.0484443 7.084778 8.9644125 13.735794 15.037079 19.663873 36.1468244 36.146824 94.7046799 36.146824 130.8515049 0 6.072666-6.072667 10.988634-12.723683 15.037078-19.663873 8.096889-14.169554 12.145333-30.074158 12.000746-45.834173-.144588 15.326254-4.048444 30.652507-12.000746 44.3883z" fill="#1a237e" opacity="0.2"/></g><path d="M228.014168 62.6062999c-6.072666-6.0726665-12.723682-10.9886346-19.663872-15.0370789-4.048445-7.0847776-8.964413-13.7357934-15.037079-19.6638725-36.146825-36.14682447-94.70468-36.14682447-130.8515044 0-6.0726665 6.0726664-10.9886346 12.7236822-15.0370789 19.6638725C19.5192852 63.4738236.722936489 93.5479816.722936489 127.959759c0 34.411776 18.796348711 64.485934 46.846284511 80.390537 4.0484443 7.084777 8.9644124 13.735793 15.0370789 19.663872 36.1468244 36.146825 94.7046801 36.146825 130.8515051 0 6.072666-6.072666 10.988634-12.723682 15.037078-19.663872 7.084778-4.048445 13.735794-8.964413 19.663873-15.037079 36.002237-36.002237 36.002237-94.70468-.144588-130.7069171zm-42.219491 65.3534591c0 31.953792-25.881126 57.834918-57.834918 57.834918-31.9537934 0-57.8349196-25.881126-57.8349196-57.834918 0-31.9537934 25.8811262-57.8349196 57.8349196-57.8349196 31.953792 0 57.834918 25.8811262 57.834918 57.8349196z" fill-opacity="0.1" fill="url(#d)"/></svg>