<svg width="256px" height="228px" viewBox="0 0 256 228" xmlns="http://www.w3.org/2000/svg" preserveAspectRatio="xMidYMid"><title>Google Search Console</title><defs><radialGradient cx="21.6597926%" cy="28.7075835%" fx="21.6597926%" fy="28.7075835%" r="82.8696858%" gradientTransform="matrix(.740246 0 0 1 .216598 .287076)rotate(36.502479)translate(-.216598 -.287076)" id="a"><stop stop-color="#f1f2f2"/><stop stop-color="#e6e7e8" offset="1"/></radialGradient></defs><path fill="#737373" d="M165.979466 0H90.0205339L71.0965092 19.0554415v18.9240246h18.9240247V19.0554415h75.9589321v18.9240246h18.924025V19.0554415z"/><path fill="#bfbfbf" d="M90.020534 8.8817842e-15V19.0554415h75.958932V8.8817842e-15z"/><path d="M36.4024641 37.979466 0 74.3819301V208.558521c0 10.513347 8.54209446 18.924025 18.9240246 18.924025H237.075975c10.513347 0 18.924025-8.542094 18.924025-18.924025V74.5133469L219.466119 37.979466H36.4024641z" fill="url(#a)"/><path fill="#fff" d="M28.5174538 109.075975H227.613963v118.537988H28.5174538z"/><path fill="#e0e0e0" d="M36.4024641 37.979466 0 74.3819301v34.6940449h256V74.5133469L219.466119 37.979466z"/><path fill="#d1d1d1" d="M42.710472 213.289528H128v14.193018H42.710472z"/><path d="M28.5174538 86.9979466c0-8.1478439 6.5708419-14.7186858 14.7186858-14.7186858H212.76386c8.147844 0 14.718686 6.5708419 14.718686 14.7186858v22.0780284H28.5174538V86.9979466z" fill="#4285f4"/><path d="M56.9034908 90.1519507c0 3.9425052-3.1540041 7.0965093-7.0965093 7.0965093-3.9425051 0-7.0965092-3.1540041-7.0965092-7.0965093 0-3.9425051 3.1540041-7.0965092 7.0965092-7.0965092 3.9425052 0 7.0965093 3.1540041 7.0965093 7.0965092m23.6550308 0c0 3.9425052-3.1540041 7.0965093-7.0965093 7.0965093-3.9425051 0-7.0965092-3.1540041-7.0965092-7.0965093 0-3.9425051 3.1540041-7.0965092 7.0965092-7.0965092 3.9425052 0 7.0965093 3.1540041 7.0965093 7.0965092" fill="#e6e6e6"/><path d="M227.482546 165.190965l-29.831622-29.831622-9.98768 30.882957-40.739219-40.607803-1.182752 62.685832 15.112936 23.65503c2.234087-.39425-11.301848 15.507187-11.301848 15.507187h77.930185v-62.291581z" fill="#bababa"/><path d="M208.821355 164.008214c0-16.821356-9.856263-31.277208-23.917864-38.2423v39.950718l-18.792608 10.119097-19.055442-10.119097v-40.082135c-14.061601 6.965092-23.65503 21.552361-23.65503 38.2423 0 16.821355 9.724846 31.277207 23.786447 38.2423v25.363449h37.84805v-25.363449c13.930184-6.833676 23.786447-21.420945 23.786447-38.110883" fill="#4d4d4d"/><path fill="#d1d1d1" d="M42.710472 123.268994h66.365503v75.827515H42.710472z"/></svg>