<svg width="256px" height="352px" viewBox="0 0 256 352" xmlns="http://www.w3.org/2000/svg" preserveAspectRatio="xMidYMid"><path d="M232 352H24c-13.28 0-24-10.72-24-24V24C0 10.72 10.72 0 24 0h144l88 88v240c0 13.28-10.72 24-24 24z" fill="#ffba00"/><path fill="#ff9500" d="M168 0l88 88h-88z"/><path d="M156 236v20h-56v-20h56zm-28.08-115.999.77995.005966C157.023272 120.466144 179.84 143.5672 179.84 172c0 18.56-9.72 34.8-24.32 44h0-55.2C85.68 206.8 76 190.56 76 172c0-28.72 23.28-52 52-52l-.08.001z" fill="#fff"/></svg>