<svg width="256px" height="283px" viewBox="0 0 256 283" xmlns="http://www.w3.org/2000/svg" preserveAspectRatio="xMidYMid"><title>Google Play Console</title><path d="M0 251.172514V31.3252701C0 7.24403011 26.3675454-7.80674488 47.4739401 4.24270254L240.176825 114.161911c21.097567 12.04062 21.097567 42.124515 0 54.156307L47.4739401 278.246254C26.3763728 290.286874 0 275.244927 0 251.172514z" fill="#2f80ed"/><path d="M192.941225 87.2205822 91.6905571 145.525784 72.3584766 111.27534c-2.1675296-3.849455-5.7847287-6.672015-10.0456199-7.838761-4.2662172-1.197394-8.8329243-.657894-12.7026776 1.500663L0 132.478836v33.773763l52.7527456-29.298254 19.4203549 34.426993c2.1715487 3.839934 5.879071 6.70885 10.1692039 7.874071 4.3229459 1.162197 8.9300218.568862 12.8174342-1.65073l127.5034564-73.435423-29.72197-16.9486738z" fill="#ccf6ff"/></svg>