<svg width="256px" height="216px" viewBox="0 0 256 216" xmlns="http://www.w3.org/2000/svg" preserveAspectRatio="xMidYMid"><path d="M55.5774312.518934349C69.9640298-1.34690438 84.9125622 1.8555732 97.2260067 9.53169919 104.176529 13.6289064 109.735855 19.5592184 115.437029 25.1731016c4.135397 4.0481062 8.227149 8.1453135 12.373457 12.1825084l.152759.4200865c-3.097267 3.0492757-6.611668 9.1465651-10.543202 18.2918682-8.245573 2.9007591-13.873055 5.8289644-16.882445 8.784616-6.7159286-6.4649675-13.2136302-13.1590731-19.9022801-19.6567746-6.3613098-5.9575904-15.9741982-8.3580846-24.3050044-5.6247946-9.4874081 2.6678221-16.7270805 11.7405993-17.2290021 21.5880814-.3273401 5.122873 1.0092988 10.327581 3.7807785 14.6484707 1.7239913 2.7823911 4.2445103 4.9046463 6.5031572 7.2287612 5.4283904 5.4556688 10.9877169 10.7858572 16.3342723 16.3179053-2.8551366 2.8058219-6.2358327 8.2373009-10.1420882 16.2944369-8.3090573 3.938109-14.0738806 7.519395-17.2944701 10.743858-7.2178498-6.786852-14.1192708-13.939234-21.2716526-20.802465C8.49500953 96.7296534 2.79929132 85.2345593.835250554 73.1066076-1.32519429 60.0948375.726137178 46.3956532 6.74919552 34.6495983 11.8066005 24.8021161 19.4609038 16.2476275 28.7737304 10.2409361 36.8699429 5.15079715 46.0409221 1.58278976 55.5774312.518934349z" fill="#ea4335"/><path fill="#34a853" d="M128.083269 160.779205l62.407396-61.5072099 16.873465 10.0220639 10.557637 17.158078-89.838498 88.8783-62.3201042-61.654513 11.9589944-16.829311 15.641234-10.416299z"/><path fill="#fbbc05" d="M100.592154 64.9121931l15.697248 8.490917 11.793867 18.7656042-62.3201042 61.5072097-27.4802037-27.283799z"/><path d="M203.333309.895375496C221.620711 3.99419537 238.440538 15.4129101 247.660618 31.5671454c10.502162 17.7472906 11.075007 40.7756685 1.756725 59.1394497-3.862613 7.888897-9.760191 14.5448129-16.039666 20.5951499-5.210164 4.981025-10.158455 10.294847-15.45591 15.150392-9.165523-9.034588-18.341958-18.063719-27.431102-27.1801419 6.475878-6.5413469 13.055415-12.9735804 19.553117-19.4931046 4.189953-4.233599 6.81413-10.0384306 7.026901-16.0123879.28915-6.7813963-2.389583-13.6609946-7.305141-18.3637811-5.008303-4.7409762-12.024294-7.4360766-18.93117-6.8632314-5.941224.2836948-11.675131 2.9787952-15.865085 7.1796602-15.635947 15.4722766-31.233704 30.9881987-46.886018 46.449564-9.203713-9.0454988-18.418337-18.0800863-27.491115-27.2565212-.010911-.0163671-.038189-.0436454-.054556-.0600124 9.165523-9.0018535 18.271034-18.0637194 27.425647-27.0764842 6.634093-6.5358912 13.246363-13.0990608 19.885912-19.6404076 8.598134-8.63632373 19.935014-14.29385226 31.779271-16.8907506 7.807062-1.467574906 15.859629-1.63124497 23.704881-.349162804z" fill="#4285f4"/></svg>