<svg width="256px" height="258px" viewBox="0 0 256 258" xmlns="http://www.w3.org/2000/svg" preserveAspectRatio="xMidYMid"><title>Bard</title><defs><radialGradient cx="78.3021802%" cy="55.5203129%" fx="78.3021802%" fy="55.5203129%" r="78.1147983%" gradientTransform="matrix(.999475 0 0 1 .783022 .555203)rotate(78.858)translate(-.783022 -.555203)" id="a"><stop stop-color="#1ba1e3" offset="0%"/><stop stop-color="#1ba1e3" offset="0.01%"/><stop stop-color="#5489d6" offset="30.0221%"/><stop stop-color="#9b72cb" offset="54.5524%"/><stop stop-color="#d96570" offset="82.5372%"/><stop stop-color="#f49c46" offset="100%"/></radialGradient><radialGradient cx="-3.4086494%" cy="-54.2187761%" fx="-3.4086494%" fy="-54.2187761%" r="169.363094%" gradientTransform="matrix(.999462 0 0 1 -.034086 -.542188)rotate(78.858)translate(.034086 .542188)" id="b"><stop stop-color="#1ba1e3" offset="0%"/><stop stop-color="#1ba1e3" offset="0.01%"/><stop stop-color="#5489d6" offset="30.0221%"/><stop stop-color="#9b72cb" offset="54.5524%"/><stop stop-color="#d96570" offset="82.5372%"/><stop stop-color="#f49c46" offset="100%"/></radialGradient></defs><path d="M122.062138 172.769563l-10.269533 23.521197c-3.94773 9.04126-16.4592841 9.04126-20.4067758 0L81.116058 172.769563c-9.1392263-20.932361-25.589214-37.594251-46.1084957-46.702491L6.74034181 113.519526c-8.98713076-3.989205-8.98711407-17.0632896 0-21.0524944L34.1246742 80.3113505c21.0470123-9.3425481 37.7920906-26.622031 46.7751906-48.2682822L91.3026413 6.97665083c3.8602517-9.30218641 16.7126617-9.30220786 20.5731517-2.383e-5l10.402776 25.0666797c8.9831 21.6460128 25.72794 38.9254957 46.774952 48.2680438l27.384547 12.1556811c8.987152 3.9892048 8.987152 17.0632894 0 21.0524944l-28.267435 12.547546c-20.519043 9.10824-36.969031 25.77013-46.108495 46.702491z" fill="url(#a)"/><path d="M217.500574 246.936928l-2.888455 6.619277c-2.113783 4.845873-8.823637 4.845873-10.93742 0l-2.888216-6.619277c-5.148353-11.80243-14.4213-21.199325-25.992282-26.34005l-8.898244-3.953451c-4.811311-2.137619-4.811311-9.131837 0-11.269456l8.400785-3.73249c11.868456-5.273016 21.30754-15.017678 26.367462-27.221032l2.965922-7.152966c2.067064-4.985315 8.959502-4.985315 11.026566 0l2.965923 7.152966c5.059921 12.203354 14.499243 21.948016 26.368177 27.221032l8.399831 3.73249c4.812503 2.137619 4.812503 9.131837 0 11.269456l-8.898005 3.953451c-11.570744 5.140725-20.843929 14.53762-25.992044 26.34005z" fill="url(#b)"/></svg>