<svg width="256px" height="256px" viewBox="0 0 256 256" xmlns="http://www.w3.org/2000/svg" preserveAspectRatio="xMidYMid"><path d="M64 58.1485714c35.328 0 64 28.672 64 63.9999996h0V128H5.85142857C2.63314286 128 0 125.366857 0 122.148571c0-35.3279996 28.672-63.9999996 64-63.9999996h0z" fill="#fbbb05"/><path d="M197.851429 64c0 35.328-28.672 64-64 64H128V5.85142857C128 2.63314286 130.633143 0 133.851429 0h0c35.328 0 64 28.672 64 64z" fill="#e94335"/><path d="M192 197.851429c-35.328 0-64-28.672-64-64h0V128h122.148571C253.366857 128 256 130.633143 256 133.851429h0c0 35.328-28.672 64-64 64h0z" fill="#4285f4"/><path d="M58.1485714 192c0-35.328 28.672-64 63.9999996-64H128v122.148571C128 253.366857 125.366857 256 122.148571 256h0c-35.3279996 0-63.9999996-28.672-63.9999996-64z" fill="#0f9d58"/></svg>