<svg width="256px" height="256px" viewBox="0 0 256 256" xmlns="http://www.w3.org/2000/svg" preserveAspectRatio="xMidYMid"><path fill="#8ab4f8" d="M150.261818 245.516364l-44.436363-43.330909 95.432727-97.454546 46.007273 45.090909z"/><path d="M150.450909 53.9381818 106.174545 8.73090909 9.36 104.629091c-12.48 12.48-12.48 32.712727 0 45.207273l95.36 95.985454L149.810909 203.64l-72.6545454-76.407273 73.2945454-73.2945452z" fill="#4285f4"/><path d="M246.625455 105.370909l-96-95.99999991c-12.494546-12.49454545-32.756364-12.49454545-45.25091 0C92.88 21.8654545 92.88 42.1272727 105.374545 54.6218182l96 95.9999998c12.494546 12.494546 32.756364 12.494546 45.25091 0 12.494545-12.494545 12.494545-32.756363 0-45.250909z" fill="#8ab4f8"/><circle fill="#246fdb" cx="127.265455" cy="224.730909" r="31.2727273"/></svg>