<svg width="512px" height="204px" viewBox="0 0 512 204" xmlns="http://www.w3.org/2000/svg" preserveAspectRatio="xMidYMid"><title>Google Pay</title><path d="M362.926585 55.0572275c14.075602 0 24.952203 3.8388004 33.269604 11.5164011 8.317401 7.6776008 12.156201 17.9144018 12.156201 30.710403v61.4208064h-17.914402v-14.075602h-.6398c-7.677601 11.516401-18.554202 17.274602-31.350203 17.274602-10.876601 0-20.473602-3.199-28.151203-9.597001-7.0378-6.398001-11.516401-15.355201-11.516401-24.952202 0-10.236801 3.838801-18.554202 11.516401-24.952203 7.677601-6.3980005 18.554202-8.9572007 31.350203-8.9572007 11.516401 0 20.473602 1.9194002 27.511403 6.3980006v-4.4786004c0-5.9714673-2.229348-11.9429345-6.688043-15.8336772l-.989558-.8011245c-5.1184-4.4786004-11.516401-7.0378007-18.554202-7.0378007-10.876601 0-19.194001 4.4786005-24.952202 13.4358014l-16.634802-10.236801c10.236801-13.4358014 23.672603-19.833802 41.587004-19.833802zm-90.211808-43.5064042c11.480856 0 22.391027 3.994801 31.113569 11.4454219l1.516234 1.3505793c8.957201 7.6776008 13.435801 19.1940019 13.435801 31.3502031 0 12.1562012-4.4786 23.0328022-13.435801 31.350203-8.957201 8.3174009-19.833802 12.7960013-32.629803 12.7960013l-30.710403-.6398001v59.5014062h-19.194002V11.5508233h49.904405zm92.771009 97.2496097c-7.677601 0-14.075602 1.9194-19.194002 5.7582-5.118401 3.199001-7.677601 7.677601-7.677601 13.435802 0 5.1184 2.5592 9.597001 6.398001 12.156201 4.4786 3.199 9.597001 5.1184 14.715401 5.1184 7.165761 0 14.331522-2.786684 19.936739-7.839873l1.176663-1.117328c6.398001-5.7582 9.597001-12.796001 9.597001-20.473602-5.7582-4.4786-14.075601-7.0378-24.952202-7.0378zm-91.491409-79.335208h-31.990003V80.64923h31.990003c7.0378 0 14.075601-2.5592002 18.554202-7.6776007 10.236801-9.597001 10.236801-25.5920025.6398-35.1890035l-.6398-.6398c-5.118401-5.1184005-11.516402-8.3174008-18.554202-7.6776008zM512 58.2562278 448.659794 203.490842h-19.194002l23.672602-50.544205-41.587004-94.0506091h20.473602l30.070603 72.2974071h.6398l29.430803-72.2974071H512v-.6398001z" fill="#5f6368"/><path d="M165.868166 86.4074306c0-5.7582006-.6398-11.5164011-1.2796-17.2746017H84.6135583v32.6298031h45.4258047c-1.9194 10.236801-7.677601 19.833802-16.634802 25.592003v21.113402h27.511403c15.995001-14.715402 24.952202-36.468604 24.952202-62.0606064z" fill="#4285f4"/><path d="M84.6135583 168.941639c23.0328027 0 42.2268037-7.677601 56.3024057-20.473602l-27.511403-21.113402c-7.677601 5.1184-17.2746016 8.3174-28.7910027 8.3174-21.7532022 0-40.947204-14.715401-47.3452047-35.189003H9.11715089v21.753202c14.71540141 28.791003 43.50640421 46.705405 75.49640741 46.705405z" fill="#34a853"/><path d="M37.2683536 100.483032c-3.8388003-10.236801-3.8388003-21.7532022 0-32.6298032V46.1000266H9.11715089c-12.15620119 23.6726024-12.15620119 51.8238051 0 76.1362074l28.15120271-21.753202z" fill="#fbbc04"/><path d="M84.6135583 33.3040254c12.1562012 0 23.6726027 4.4786004 32.6298027 12.7960012h0l24.312403-24.3124023C126.200562 7.71202289 105.72696-.60537792 85.2533583.0344221425c-31.9900031 0-61.420806 17.9144017575-75.49640735 46.7054045575L37.9081537 68.4930288c5.7582006-20.473602 24.9522024-35.1890034 46.7054046-35.1890034z" fill="#ea4335"/></svg>