<svg width="256px" height="229px" viewBox="0 0 256 229" xmlns="http://www.w3.org/2000/svg" preserveAspectRatio="xMidYMid"><title>Google PaLM</title><path d="M128 228.5418h0c9.895187 0 17.909841-8.014654 17.909841-17.909841V55.4133387h-35.819682V210.631959c0 9.895187 8.014654 17.909841 17.909841 17.909841z" fill="#f9ab00"/><path d="M199.355791 112.05321C180.043012 92.7553568 151.193244 88.8450415 128 100.30734l76.669044 76.669043c3.164071 3.164072 8.611648 1.910383 9.954886-2.343204 6.74604-21.357485 1.65666-45.640244-15.268139-62.579969z" fill="#5bb974"/><path d="M56.6442092 112.05321C75.9569876 92.7553568 104.806756 88.8450415 128 100.30734l-76.6690435 76.669043c-3.1640719 3.164072-8.6116485 1.910383-9.9548865-2.343204-6.7460401-21.357485-1.6566603-45.640244 15.2681392-62.579969z" fill="#129eaf"/><path d="M193.669416 52.5477642c-30.506429 0-56.401073 19.9993222-65.669416 47.7595758h121.249622c4.969981 0 8.283302-5.2535537 6.029647-9.6862393-11.521998-22.611174-34.774941-38.0733365-61.609853-38.0733365z" fill="#af5cf7"/><path d="M140.671212 20.1011026C119.089854 41.6824607 114.925816 74.1141975 128 100.30734l85.743363-85.7433632c3.522269-3.5222687 2.149181-9.58176486-2.582002-11.11902619-24.148436-7.83555536-51.520642-2.31335444-70.490149 16.65615199z" fill="#ff8bcb"/><path d="M115.328788 20.1011026C136.910146 41.6824607 141.074184 74.1141975 128 100.30734L42.2566371 14.5639768c-3.5222687-3.5222687-2.1491809-9.58176486 2.5820021-11.11902619 24.1484353-7.83555536 51.520642-2.31335444 70.4901488 16.65615199z" fill="#fa7b17"/><path d="M62.3305837 52.5477642c30.5064288 0 56.4010733 19.9993222 65.6694163 47.7595758H6.75037772c-4.96998082 0-8.28330137-5.2535537-6.029646404-9.6862393C12.2427289 68.0099267 35.4956722 52.5477642 62.3305837 52.5477642z" fill="#4285f4"/></svg>