<svg width="256px" height="516px" viewBox="0 0 256 516" xmlns="http://www.w3.org/2000/svg" preserveAspectRatio="xMidYMid"><defs><linearGradient x1="50%" y1="100.77683%" x2="50%" y2="-0.0396858904%" id="a"><stop stop-color="#1a73e8" offset="0%"/><stop stop-color="#4285f4" offset="100%"/></linearGradient></defs><path d="M256.00079 404.227562v54.076678c0 31.637493-25.573641 57.299015-57.123252 57.299015-31.549611 0-57.123251-25.632228-57.123251-57.299015V316.726458l114.246503 87.501104z" fill="#34a853"/><path d="M256.00079 57.2990152V404.227562l-114.246503-87.501104V178.751836l93.477074-77.277506c13.709581-11.3074748 20.769429-27.6828069 20.769429-44.1753148z" fill="url(#a)"/><path d="M255.971496 55.3070249c.029294.6444674.029294 1.2889349.029294 1.9626963 0 16.492508-7.059848 32.86784-20.769429 44.1753148l-93.477074 77.277506V57.2990152c0-18.748144 8.99325-35.4457098 22.966476-45.9036589.995995-.7616434 1.991991-1.46469876 3.075868-2.13846019.497997-.32223372.966701-.64446745 1.464698-.9374072.908114-.5858795 1.874815-1.11317105 2.753634-1.58187465l2.519282-1.25964093 2.109166-.96670117c.849525-.3515277 1.699051-.7030554 2.607164-1.02528913.849525-.32223373 1.757638-.61517348 2.636458-.90811323 1.640462-.49799757 3.310219-.96670117 5.038563-1.31822887.497998-.1171759 1.02529-.20505783 1.581875-.322233729.380822-.05858795.761643-.1171759 1.142465-.17576385.673761-.1171759 1.347523-.205057825 2.021284-.29293975.790938-.1171759 1.581875-.205057826 2.402106-.263645776.644468-.05858795 1.288935-.1171758999 1.933403-.1464698749C196.944136.029293975 197.910837 0 198.877538 0h.029294c2.079872 0 4.101157.1171759 6.151735.322233725.995995.117175901 2.021284.263645776 3.075867.439409626.995995.146469875 1.991991.351527699 3.046574.585879499.995995.20505783 1.99199.4687036 2.987985.76164335.820231.20505783 1.669757.4687036 2.489988.76164335 1.611169.52729156 3.222337 1.11317106 4.745624 1.78693248.761643.32223373 1.523287.67376143 2.28493 1.02528913.966701.4687036 1.933402.96670118 2.87081 1.46469875 1.40611.79093733 2.753633 1.61116863 4.101156 2.51928185.14647.1171759.29294.20505783.43941.29293976 1.435405.99599518 2.812221 2.07987218 4.189038 3.19304328.673762.5858795 1.347523 1.142465 2.021284 1.7576385l.058588.0585879c.644468.6151735 1.288935 1.230347 1.933403 1.8748145.644467.6444674 1.288935 1.3182288 1.904108 1.9626963 1.259641 1.3475228 2.402106 2.7829276 3.485983 4.2476264.761644.9959951 1.464699 2.0505782 2.13846 3.0758673.322234.4979976.644468.9667012.937408 1.4646988.585879.9081132 1.113171 1.8748144 1.581874 2.7536336.351528.7030554.908113 1.8455205 1.259641 2.5192819.322234.7030554.644468 1.4061108.937407 2.1091662.351528.8495253.703056 1.7283445 1.025289 2.6071638.322234.8495253.615174 1.7576385.87882 2.6364577.380821 1.259641.703055 2.5192819.995995 3.7496288.175764.5858795.29294 1.1424651.380822 1.7283446.175763.8202313.322233 1.6111686.468703 2.4021059.117176.6444675.175764 1.2889349.263646 1.9334024.117176.7909373.205058 1.5818746.263646 2.4021059.058588.6444675.117176 1.2889349.14647 1.9334024-.029294.2929397 0 .6151735 0 .9374072h0z" fill="#ea4335"/><path d="M162.494421 13.0651129c.703056-.5858795 1.435405-1.1424651 2.167754-1.6697566-13.914638 10.4579491-22.907888 27.1262209-22.907888 45.9036589V178.751836l-48.5108228 40.16204c-10.604419 8.817486-23.4351801 13.065112-36.2366471 13.065112-16.43392 0-32.7506641-7.089142-43.9995506-20.828016-20.00778492-24.431175-16.55109586-60.521352 7.7336094-80.617019L162.494421 13.0651129z" fill="#fbbc04"/></svg>