<svg width="256px" height="231px" viewBox="0 0 256 231" xmlns="http://www.w3.org/2000/svg" preserveAspectRatio="xMidYMid"><path d="M75.390147 0c-8.1937105.144249443-15.6975323 4.61940312-19.719412 11.7594655h0L3.05275724 102.995813c-4.07034299 7.083617-4.07034299 15.796169 0 22.879216h0l52.59802226 91.996935c3.9808285 7.23927 11.4641247 11.861524 19.7188419 12.180241h0H180.586192c8.254717-.283938 15.751697-4.887376 19.739367-12.119804h0l52.598022-91.476953c2.049711-3.598254 3.074281-7.60417 3.074281-11.609515h0c0-4.005345-1.02457-8.01126-3.074281-11.610084h0l-52.598022-91.4763835C196.300829 4.6222539 188.799287.148240535 180.606147 0h0-105.216z" fill="#4285f4"/><path d="M236.495178 155.027249l-36.169619 62.905152c-3.98767 7.232428-11.48465 11.835866-19.739367 12.119804h-40.076034l-58.4720502-58.995058 17.2375234-55.583358-17.2375234-56.2196527 17.7050512 11.892882 23.805719 24.0189576-11.11975-35.9118396 83.375038 56.0075547 40.691012 39.765558z" fill-opacity="0.07"/><path d="M82.0382788 59.2539082l17.7050513 11.8934522 13.8787349 44.6181206-13.6318574 43.277683-17.9519288 12.014326 17.3424321-55.796027-17.3424321-56.0075548zm45.3471782 19.8360089 8.59225 27.7916789h32.98922l-41.58147-27.7916789zm68.418709 36.1718309-83.375038 55.795456 17.342432-55.795456-17.342432-56.0081248 83.375038 56.0081248z" fill="#fff"/></svg>