<svg width="256px" height="283px" viewBox="0 0 256 283" xmlns="http://www.w3.org/2000/svg" preserveAspectRatio="xMidYMid"><title>Google Play</title><path d="M119.553141 134.916362 1.0599006 259.060547c2.69629388 9.556451 9.658383 17.330053 18.8609652 21.05943 9.2025823 3.729376 19.6122577 2.995739 28.2008062-1.987493l133.32697-75.934565-61.895501-67.281557z" fill="#ea4335"/><path d="M239.370822 113.813616 181.71353 80.7909097l-64.897565 56.9509243 65.162453 64.279492 57.215812-32.669522C249.525723 163.942452 256 153.24465 256 141.58271c0-11.66194-6.474277-22.359742-16.80577-27.769094h.176592z" fill="#fbbc04"/><path d="M1.0599006 23.4868015C.343633396 26.134699-.0127538816 28.8670014-9.94374397e-15 31.6100341V250.937314C.00751268399 253.679042.363556675 256.408712 1.0599006 259.060547L123.614758 138.095018 1.0599006 23.4868015z" fill="#4285f4"/><path d="M120.436101 141.273674l61.277429-60.4827643L48.5631521 4.50316009C43.5539929 1.56944036 37.8568091.0156629668 32.0517989 0 17.6444261-.0284873284 4.97836875 9.53420553 1.0599006 23.3985055L120.436101 141.273674z" fill="#34a853"/></svg>