<svg width="256px" height="284px" viewBox="0 0 256 284" xmlns="http://www.w3.org/2000/svg" preserveAspectRatio="xMidYMid"><path d="M256.003159 247.933017c.052748 10.097272-4.230179 19.731787-11.76181 26.45728-7.531631 6.725493-17.587532 9.895069-27.614444 8.703952-18.043435-2.669885-31.265946-18.371617-30.826286-36.606214V36.8452103c-.435675-18.2544489 12.819059-33.96376349 30.886493-36.606214005C226.704325-.933476157 236.743571 2.24455542 244.261279 8.9678962c7.517709 6.7233408 11.792532 16.3468657 11.74188 26.432332V247.933017z" fill="#f9ab00"/><path d="M35.1010243 213.193238c19.3857605 0 35.1010244 15.715264 35.1010244 35.101025 0 19.38576-15.7152639 35.101024-35.1010244 35.101024C15.7152639 283.395287 0 267.680023 0 248.294263c0-19.385761 15.7152639-35.101025 35.1010243-35.101025zm92.3584417-106.386809c-19.47757 1.067639-34.5895895 17.405678-34.1377032 36.907252v94.285084c0 25.588225 11.2588192 41.121783 27.7556982 44.4332 10.356573 2.098994 21.108012-.571146 29.279238-7.271551 8.171226-6.700405 12.895694-16.72051 12.866213-27.287605V142.088076c.017127-9.446389-3.760871-18.503791-10.485619-25.137969-6.724747-6.634179-15.832541-10.289023-25.277827-10.143678h0z" fill="#e37400"/></svg>