<svg width="256px" height="239px" viewBox="0 0 256 239" xmlns="http://www.w3.org/2000/svg" preserveAspectRatio="xMidYMid"><path d="M224.021661 173.15874H131.06335c-22.480849 0-35.0701247 15.736594-35.0701247 32.484826 0 15.455584 10.6784037 32.484827 35.0701247 32.484827h92.958311V173.15874z" fill="#669df6"/><ellipse fill="#1a73e8" cx="224.021661" cy="205.587364" rx="31.9790077" ry="32.4848268"/><path d="M128.028435 86.5512687H35.0701245C12.5892755 86.5512687 0 102.287863 0 119.036096c0 15.455583 10.6784033 32.484826 35.0701245 32.484826h92.9583105V86.5512687z" fill="#669df6"/><ellipse fill="#1a73e8" cx="128.028435" cy="119.036096" rx="31.9790077" ry="32.4848268"/><path d="M224.021661 7.10542736e-15H131.06335C108.582501 7.10542736e-15 95.9932253 15.7365943 95.9932253 32.4848268c0 15.4555837 10.6784037 32.4848269 35.0701247 32.4848269h92.958311V0z" fill="#669df6"/><ellipse fill="#1a73e8" cx="224.021661" cy="32.4848268" rx="31.9790077" ry="32.4848268"/></svg>