<svg width="256px" height="239px" viewBox="0 0 256 239" xmlns="http://www.w3.org/2000/svg" preserveAspectRatio="xMidYMid"><title>Google Domains</title><path d="M247.170454 0c6.332632 0 10.605715 6.46736873 8.103459 12.2803013L166.020375 225.79971c-3.387669 7.814737-11.106166 12.876993-19.633083 12.876993H85.3899954c-6.3326319 0-10.7596998-6.255639-8.2381959-12.068572l6.987068-16.765114 15.244512-89.02256 44.2899265-53.8369952 22.558798-54.1064687C169.600526 5.06225588 175.913909 0 184.440827 0h62.729627z" fill="#4285f4"/><path d="M143.981276 66.2327851c-15.513985-15.0712789-36.763911-24.2526327-60.1311303-24.0024072C37.0387149 42.7500772-.514369596 81.0153422.00532967688 127.692036.505780828 173.637301 37.7123991 210.593694 83.5421758 211.24813c.2117293-.577443 40.9984982-64.596694 40.9984982-64.596694 0 0 19.440602-80.3801547 19.440602-80.4186509z" fill="#fbbc04"/><path d="M143.981276 66.2327851c0 0-60.4968446 145.0345929-60.4391416 145.0345929.73147.019249 1.4628986.019249 2.1943272 0 46.8306784-.519699 84.3645154-38.765716 83.8448164-85.461658-.250226-23.367219-10.028272-44.4246635-25.600002-59.5729349z" fill="#ea4335"/></svg>