<svg width="256px" height="256px" viewBox="0 0 256 256" xmlns="http://www.w3.org/2000/svg" preserveAspectRatio="xMidYMid"><path fill="#fff" d="M195.368421 60.6315789H60.6315789V195.368421H195.368421z"/><path fill="#ea4335" d="M195.368421 256 256 195.368421l-30.315789-5.172416-30.31579 5.172416-5.533259 27.729581z"/><path d="M1.42108547e-14 195.368421v40.421053C1.42108547e-14 246.955789 9.04421053 256 20.2105263 256h40.4210526l6.2252856-30.315789-6.2252856-30.31579-33.0323915-5.172416L1.42108547e-14 195.368421z" fill="#188038"/><path d="M256 60.6315789V20.2105263C256 9.04421053 246.955789 1.42108547e-14 235.789474 1.42108547e-14h-40.421053C191.679582 15.0358547 189.835162 26.1010948 189.835162 33.1957202c0 7.0946254 1.84442 16.2399117 5.533259 27.4358587 13.409565 3.8399077 23.514828 5.7598615 30.31579 5.7598615 6.800961 0 16.906224-1.9199538 30.315789-5.7598615z" fill="#1967d2"/><path fill="#fbbc04" d="M256 60.6315789h-60.631579V195.368421H256z"/><path fill="#34a853" d="M195.368421 195.368421H60.6315789V256H195.368421z"/><g style="fill:#4285f4"><path d="M195.368421 0H20.2105263C9.04421053 0 0 9.04421053 0 20.2105263V195.368421h60.6315789V60.6315789H195.368421V0z"/><path d="M88.2694737 165.153684c-5.0357895-3.402105-8.5221053-8.370526-10.4252632-14.938947l11.6884211-4.816842c1.0610526 4.042105 2.9136842 7.174737 5.5578947 9.397894 2.6273684 2.223158 5.8273687 3.317895 9.5663157 3.317895 3.823158 0 7.107369-1.162105 9.852632-3.486316 2.745263-2.32421 4.126315-5.288421 4.126315-8.875789 0-3.671579-1.448421-6.669474-4.345263-8.993684-2.896842-2.324211-6.534737-3.486316-10.88-3.486316h-6.7536839v-11.570526H102.72c3.738947 0 6.888421-1.010527 9.448421-3.031579 2.56-2.021053 3.84-4.783158 3.84-8.303158 0-3.132632-1.145263-5.625263-3.435789-7.494737-2.290527-1.869474-5.187369-2.812632-8.707369-2.812632-3.435789 0-6.1642104.909474-8.185263 2.745264-2.0197181 1.840674-3.5381792 4.164731-4.4126316 6.753684l-11.5705263-4.816842c1.5326316-4.345264 4.3452632-8.1852635 8.471579-11.5031583 4.1263157-3.3178947 9.3978947-4.9852631 15.7978949-4.9852631 4.732631 0 8.993684.9094737 12.766316 2.7452631 3.772631 1.8357895 6.736842 4.3789474 8.875789 7.6126316 2.138947 3.2505267 3.2 6.8884207 3.2 10.9305267 0 4.126315-.993684 7.612631-2.981053 10.475789-1.987368 2.863158-4.429473 5.052632-7.326315 6.585263v.690527c3.740515 1.542157 6.989694 4.07512 9.397894 7.326315 2.442106 3.284211 3.671579 7.208421 3.671579 11.789474 0 4.581053-1.162105 8.673684-3.486315 12.261053-2.324211 3.587368-5.541053 6.416842-9.616843 8.471579-4.092631 2.054736-8.690526 3.099071-13.793684 3.099071-5.9115787.016718-11.3684208-1.684335-16.4042103-5.08644h0zm71.7978943-58.00421-12.833684 9.28-6.416842-9.734737L163.84 90.0884211h8.825263v78.3326319h-12.597895v-61.271579z"/></g></svg>