<svg width="256px" height="193px" viewBox="0 0 256 193" xmlns="http://www.w3.org/2000/svg" preserveAspectRatio="xMidYMid"><path d="M58.1818182 192.049515V93.1404244L27.5066233 65.0770089 0 49.5040608V174.59497c0 9.658182 7.82545455 17.454545 17.4545455 17.454545h40.7272727z" fill="#4285f4"/><path d="M197.818182 192.049515h40.727273c9.658181 0 17.454545-7.825454 17.454545-17.454545V49.5040608l-31.155585 17.8382159-27.026233 25.7981477v98.9090906z" fill="#34a853"/><path fill="#ea4335" d="M58.1818182 93.1404244l-4.1740564-38.6471417 4.1740564-36.9892219L128 69.8676972l69.818182-52.3636364 4.669306 34.9919481-4.669306 40.6444155L128 145.504061z"/><path d="M197.818182 17.5040608v75.6363636L256 49.5040608V26.2313335c0-21.58545453-24.64-33.89090907-41.890909-20.94545453L197.818182 17.5040608z" fill="#fbbc04"/><path d="M0 49.5040608l26.7588051 20.0691038 31.4230131 23.5672598V17.5040608L41.8909091 5.28587897C24.6109091-7.65957557 0 4.64587897 0 26.2313335v23.2727273z" fill="#c5221f"/></svg>