<svg width="256px" height="264px" viewBox="0 0 256 264" xmlns="http://www.w3.org/2000/svg" preserveAspectRatio="xMidYMid"><path d="M168.200356 131.116813c-.460378-19.950011-16.888816-35.8147284-36.842741-35.5785291H36.3611364v71.1570581h61.5249692v59.839354c-.5247598 9.465207 2.8216154 18.736948 9.2703744 25.685259 6.448759 6.94831 15.445539 10.975884 24.923542 11.157482 9.675655-.095325 18.917099-4.030628 25.691077-10.940086 6.773979-6.909458 10.52553-16.227009 10.429257-25.902655v-95.417883h0z" fill="#b366f6"/><circle fill="#8430ce" cx="35.9397325" cy="131.538217" r="35.9397325"/><path d="M255.912568 35.7591308C255.714483 15.9516231 239.600732 0 219.792233 0h-97.163698c-18.458958 1.85285115-32.5128191 17.3880169-32.5128191 35.9397325 0 18.5517156 14.0538611 34.0868814 32.5128191 35.9397325h62.247375v59.779153c-.537112 13.04918 6.118457 25.343691 17.338343 32.028282 11.219886 6.68459 25.200287 6.68459 36.420172 0 11.219886-6.684591 17.875456-18.979102 17.338343-32.028282l-.0602-95.8994872z" fill="#c58af8"/></svg>