<svg width="256px" height="211px" viewBox="0 0 256 211" xmlns="http://www.w3.org/2000/svg" preserveAspectRatio="xMidYMid"><path fill="#00832d" d="M144.822496 105.321856l24.95643 28.52694 33.562417 21.445337 5.837588-49.792173-5.837588-48.6688463-34.204848 18.8384752z"/><path d="M5.57021739e-4 150.659712v42.430203c0 9.688465 7.863290218261 17.553612 17.553611778261 17.553612h42.4302026l8.7860895-32.058458-8.7860895-27.925357-29.1099561-8.786089-30.873858278261 8.786089z" fill="#0066da"/><path fill="#e94235" d="M59.9838143 9.9475983e-14 0 59.9838143l30.875715 8.7656655 29.1080993-8.7656655 8.62641-27.544725z"/><path fill="#2684fc" d="M5.57021739e-4 150.679394H59.9843714V59.9832573H5.57021739e-4z"/><g style="fill:#00ac47"><path d="M241.658683 25.3977775l-38.317526 31.4364503V155.29339l38.477205 31.558995c5.759605 4.511876 14.185487.399199 14.185487-6.921923V32.1785888c0-7.4028189-8.62641-11.4950719-14.345166-6.7808113"/><path d="M144.822496 105.321856v45.337856H59.9843714v59.983815H185.787731c9.690322 0 17.553612-7.865147 17.553612-17.553612v-37.795782l-58.518847-49.972277z"/></g><path d="M185.787731 0H59.9843714v59.9838143h84.8381246V105.32167l58.518847-48.488742V17.5536117C203.341343 7.86329022 195.478053 0 185.787731 0" fill="#ffba00"/></svg>