<svg width="256px" height="256px" viewBox="0 0 256 256" xmlns="http://www.w3.org/2000/svg" preserveAspectRatio="xMidYMid"><path d="M122.1632.4096C125.8496.1024 129.4336 0 133.12 0 199.7824 2.4576 253.3376 55.9104 256 122.5728V223.232c-.1024 18.2272-14.9504 32.8704-33.0752 32.768534C206.336 253.44 193.6384 239.9232 192.1024 223.232V122.5728c-2.7648-35.1232-33.4848-61.44-68.608-58.6752-.4096 0-.8192.1024-1.2288.1024" fill="#fbbc04"/><path d="M256 223.9488c0 17.6128-14.336 31.9488-31.9488 31.9488-17.6128 0-31.9488-14.336-31.9488-31.9488 0-17.6128 14.336-31.9488 31.9488-31.9488C241.664 192 256 206.336 256 223.9488z" fill="#4285f4"/><path d="M124.0064 254.8736c18.1248.2048 32.9728-14.2336 33.1776-32.3584 0-.1024 0-.1024 0-.2048-.512-17.6128-15.2576-31.5392-32.8704-31.0272-.2048 0-.512 0-.7168 0-34.9184-2.6624-61.2352-32.9728-58.7776-67.9936v-.512c2.56-31.5392 27.648-56.4224 59.1872-58.7776 17.6128.7168 32.4608-13.0048 33.1776-30.6176 0-.2048 0-.3072 0-.512-.2048-18.1248-15.0528-32.768-33.1776-32.565322364 0 0 0 0 0 0h-2.2528C53.8624 3.4816.4096 59.1872 0 127.1808v.512C0 207.4624 69.9392 254.976 122.0608 254.976h1.9456v-.1024z" fill="#ea4335"/></svg>