<svg width="256px" height="229px" viewBox="0 0 256 229" xmlns="http://www.w3.org/2000/svg" preserveAspectRatio="xMidYMid"><path d="M19.3542312 196.033928l11.2899408 19.500888c2.3458567 4.105324 5.7180444 7.331064 9.6769209 9.676921 11.3391492-14.393361 19.2323296-25.438873 23.6795411-33.136536 4.5130779-7.811672 10.0603317-20.030162 16.6417614-36.655471-17.7359639-2.334448-31.176398-3.501672-40.3213025-3.501672-8.7756279 0-22.2159922 1.167224-40.3210929 3.501672 0 4.545266 1.17298825 9.090531 3.51893479 13.195856l15.83529641 27.418342z" fill="#0066da"/><path d="M215.681443 225.211737c3.958877-2.345857 7.331064-5.571597 9.676921-9.676921l4.692013-8.064201 22.433134-38.855029c2.345857-4.105325 3.518935-8.65059 3.518935-13.195856-18.209906-2.334448-31.625833-3.501672-40.247779-3.501672-9.265955 0-22.681882 1.167224-40.247779 3.501672 6.503591 16.716363 11.977506 28.934854 16.421745 36.655471 4.48344 7.788718 12.401044 18.83423 23.75281 33.136536z" fill="#ea4335"/><path d="M128.001268 73.3111515c13.119914-15.8456252 22.16163-28.0641504 27.125147-36.6555758 3.996706-6.9179561 8.395324-17.9635031 13.195856-33.13664091C164.363395 1.1729583 159.818129 0 155.126415 0h-54.250294c-4.6920131 0-9.237279 1.31958557-13.1961555 3.51893479C93.7861943 20.9210065 98.9675428 33.3058067 103.224011 40.6733354c4.703821 8.1418527 12.962907 19.0211248 24.777257 32.6378161z" fill="#00832d"/><path d="M175.360141 155.41973H80.6420959l-40.321003 69.792007c3.9588765 2.346156 8.5041423 3.518935 13.1961552 3.518935H202.485288c4.692013 0 9.237279-1.319526 13.196155-3.518935l-40.321302-69.792007z" fill="#2684fc"/><path d="M128.001268 73.3111515 87.680265 3.51893479c-3.9588765 2.34594655-7.3313637 5.571507-9.6772204 9.67713061L3.51893479 142.223575C1.17298825 146.329198 0 150.874464 0 155.41973h80.6423954l47.3588726-82.1085785z" fill="#00ac47"/><path d="M215.241501 77.7099697l-37.242009-64.5139043c-2.345857-4.10562361-5.718344-7.33118406-9.677221-9.67713061L128.001268 73.3111515l47.358873 82.1085785h80.495858c0-4.545266-1.173078-9.090532-3.518935-13.196155l-37.095563-64.5136053z" fill="#ffba00"/></svg>