<svg width="256px" height="224px" viewBox="0 0 256 224" xmlns="http://www.w3.org/2000/svg" preserveAspectRatio="xMidYMid"><title>gradio</title><defs><linearGradient x1="-6.4516129%" y1="49.7835498%" x2="85.235732%" y2="49.7835498%" id="a"><stop stop-color="#f9d100"/><stop stop-color="#f97700" offset="1"/></linearGradient><linearGradient x1="106.079404%" y1="49.7835498%" x2="14.2679901%" y2="49.7835498%" id="b"><stop stop-color="#f9d100"/><stop stop-color="#f97700" offset="1"/></linearGradient><linearGradient x1="-12.8712871%" y1="75.8627995%" x2="169.795545%" y2="74.878214%" id="c"><stop stop-color="#f9d100"/><stop stop-color="#f97700" offset="1"/></linearGradient></defs><path d="M119.871013 64.7792989c5.035069-2.886107 11.222905-2.886107 16.257974 0l111.65368 64.0000001c10.956444 6.280244 10.956444 22.083236 0 28.36348l-111.65368 64c-5.035069 2.886107-11.222905 2.886107-16.257974 0l-111.65368014-64c-10.95644381-6.280244-10.95644381-22.083236 0-28.36348L119.871013 64.7792989zm8.126475 33.0150653-78.7838707 45.1635718 78.7838707 45.155297 78.783871-45.155297-78.783871-45.1635718z" fill="url(#a)"/><path d="M119.871013 2.16458028c5.035069-2.886107039 11.222905-2.886107039 16.257974 0l111.65368 64.00000002c10.956444 6.2802444 10.956444 22.0832356 0 28.3634801L136.128987 158.52806c-5.035069 2.886107-11.222905 2.886107-16.257974 0L8.21733286 94.5280604c-10.95644381-6.2802445-10.95644381-22.0832357 0-28.3634801L119.871013 2.16458028zm8.126475 33.01506532-78.7838707 45.1635717 78.7838707 45.1552967 78.783871-45.1552967-78.783871-45.1635717z" fill="url(#b)"/><path fill="url(#c)" d="M120.189741 64.7554936l16.174631 28.4110907L24.4336358 156.889528 8.25900493 128.478437z"/></svg>