<svg width="256" height="224" xmlns="http://www.w3.org/2000/svg" preserveAspectRatio="xMidYMid"><defs><linearGradient x1="-6.452%" y1="49.784%" x2="85.236%" y2="49.784%" id="a"><stop stop-color="#F9D100" offset="0%"/><stop stop-color="#F97700" offset="100%"/></linearGradient><linearGradient x1="106.079%" y1="49.784%" x2="14.268%" y2="49.784%" id="b"><stop stop-color="#F9D100" offset="0%"/><stop stop-color="#F97700" offset="100%"/></linearGradient><linearGradient x1="-12.871%" y1="75.863%" x2="169.796%" y2="74.878%" id="c"><stop stop-color="#F9D100" offset="0%"/><stop stop-color="#F97700" offset="100%"/></linearGradient></defs><path d="M119.871 64.78a16.346 16.346 0 0116.258 0l111.654 64c10.956 6.28 10.956 22.083 0 28.363l-111.654 64a16.346 16.346 0 01-16.258 0l-111.654-64c-10.956-6.28-10.956-22.083 0-28.364l111.654-64zm8.126 33.014l-78.783 45.164 78.783 45.155 78.784-45.155-78.784-45.164z" fill="url(#a)"/><path d="M119.871 2.165a16.346 16.346 0 0116.258 0l111.654 64c10.956 6.28 10.956 22.083 0 28.363l-111.654 64a16.346 16.346 0 01-16.258 0l-111.654-64c-10.956-6.28-10.956-22.083 0-28.363l111.654-64zm8.126 33.015L49.214 80.343l78.783 45.156 78.784-45.156-78.784-45.163z" fill="url(#b)"/><path fill="url(#c)" d="M120.19 64.755l16.174 28.412-111.93 63.723-16.175-28.412z"/></svg>