<svg width="256px" height="188px" viewBox="0 0 256 188" xmlns="http://www.w3.org/2000/svg" preserveAspectRatio="xMidYMid"><path d="M242.08678 11.8947553c-15.466335-15.47320576-40.413142-15.90467571-56.405303-.9755634-.76741.7239944-1.214311 1.7242026-1.241626 2.7788776.005642 1.0502239.419028 2.0571894 1.152938 2.8084402l5.055193 5.2325673c1.363093 1.3573492 3.515886 1.5084224 5.055192.3547504 4.009874-3.0262483 8.900302-4.6563911 13.92395-4.6413169 9.425867-.0412337 17.942746 5.6159829 21.559368 14.3205048 3.616622 8.7045219 1.61633 18.731494-5.063477 25.3819698C193.89986 89.3781401 150.886382-.905819089 53.270916 45.5369117c-3.3572811 1.5693684-5.9055967 4.4708209-7.0285667 8.0025615-1.12297 3.5317407-.7183248 7.3721314 1.1160612 10.5922684l16.7323906 28.9417145c3.6328252 6.2657211 11.6177969 8.4625749 17.9444543 4.9369421l.4138754-.2365003-.3251879.2365003 7.4201945-4.1683164c8.2695975-5.1349061 16.0830856-10.9702962 23.3543966-17.4418913 1.539246-1.3203662 3.811572-1.3203662 5.350818 0h0c.90867.7127427 1.442121 1.8014181 1.448563 2.9562528.02122 1.1223911-.44196 2.1995543-1.271188 2.9562527-7.658587 6.7981523-15.898691 12.9114588-24.6255857 18.269642h-.2365002l-7.4201944 4.138754c-3.1363813 1.777539-6.6827192 2.704886-10.2877596 2.69019-7.5772693 5.9e-4-14.5868407-4.016131-18.4174547-10.5538224l-15.8159522-27.345338C11.2330018 90.9745166-7.21401537 132.332493 2.68943136 184.805979c.36295326 1.807136 1.94088564 3.113861 3.78400353 3.133629H24.5065767c1.9394617 0 3.5748631-1.445413 3.8135661-3.370129 1.6625707-13.200089 12.8880209-23.100366 26.1923994-23.100366 13.3043785 0 24.5298287 9.900277 26.1923994 23.100366.2525042 1.929319 1.8973569 3.370129 3.8431286 3.370129h17.5601418c1.939461 0 3.574863-1.445413 3.813566-3.370129 1.716015-13.164317 12.93149-23.012701 26.20718-23.012701 13.27569 0 24.491166 9.848384 26.207181 23.012701.238703 1.924716 1.874104 3.370129 3.813566 3.370129h17.353204c2.099624 0 3.810826-1.684629 3.843128-3.784004.413876-24.448211 7.006319-52.532612 25.808087-66.604375 65.126248-48.7190455 48.009545-90.490897 32.932656-105.6564737zm-66.427 73.6993813-12.416316-6.2376933h0c-.01359-3.6847679 2.5518-6.877044 6.153166-7.6567033 3.601365-.7796592 7.257363 1.0657493 8.768944 4.4262289 1.51158 3.3604796.466851 7.3203272-2.505794 9.4977302v-.0295625z" fill="#02303a"/></svg>