<svg width="256px" height="256px" viewBox="0 0 256 256" xmlns="http://www.w3.org/2000/svg" preserveAspectRatio="xMidYMid"><path d="M127.999014 0C57.3084299 0 0 57.300543 0 127.995071c0 70.692556 57.3104017 127.999014 127.999014 127.999014C198.693542 255.994085 256 198.687627 256 127.995071 256 57.300543 198.693542 0 127.999014 0zm67.859175 61.6955366c-.697993-.5363114-1.591189-.9898101-2.657896-1.360496-1.043047-.3687141-2.182709-.7433434-3.397297-1.1081141-1.192899-.362799-2.326645-.8557323-3.353918-1.4709131-1.021358-.6013787-1.879062-1.4176763-2.557338-2.4074864-.67039-.9858667-1.009528-2.306928-1.009528-3.9336081 0-1.5773866.311534-2.9812608.93263-4.1564139.627011-1.1928987 1.46697-2.2024261 2.504101-2.9990064 1.043047-.8064389 2.259607-1.4176763 3.608272-1.8218816 1.366412-.4022336 2.795918-.6092656 4.235284-.6092656 1.679916 0 3.320399.2444949 4.876096.7137674 1.498517.4613856 2.876759 1.2224747 4.089375 2.2694651l-4.286548 4.6907537c-.542227-.6250395-1.259938-1.102199-2.137359-1.4058459-.93263-.3312512-1.833712-.4949051-2.665784-.4949051-.48899 0-1.00164.0512651-1.520206.1695691-.520538.1163323-1.017414.2977317-1.482744.5461701-.473216.2543536-.869534.59152-1.163322 1.0036123-.303647.4239227-.457442.9444603-.457442 1.537952 0 .976008.354912 1.6976624 1.090368 2.2201718.686163.4889899 1.563585.9148843 2.614519 1.2500789 1.027273.3411099 2.149189.688135 3.330257 1.0193862 1.167266.3371664 2.271437.8162976 3.288851 1.4255632 1.009528.6072939 1.855402 1.4373936 2.510017 2.4528363.662502 1.0154427.993754 2.3897408.993754 4.1090923 0 1.6286517-.307591 3.075904-.916856 4.296407-.609266 1.2165595-1.439366 2.2379173-2.476497 3.0344976-1.03516.7926368-2.26355 1.4058459-3.62799 1.7883622-1.386128.3943466-2.860985.5895482-4.39105.5895482-1.918497 0-3.728548-.2918165-5.372973-.8774213-1.595133-.569831-3.095622-1.486687-4.48175-2.7387376l4.456117-4.8977857c.670389.8478453 1.520206 1.5202064 2.504101 1.9953942 1.050934.4929333 2.157077.7512304 3.277021.7512304.554057 0 1.112058-.0630955 1.67203-.1912582.561944-.1301344 1.070651-.3371664 1.528094-.5895482.461385-.2681558.832071-.6171526 1.119944-1.0272731.285901-.4239227.43181-.9346016.43181-1.4985174.003943-.976008-.362799-1.7173797-1.106143-2.2753803zm-35.280225-19.1021527h6.277999v23.9151539h12.258267v5.775207h-18.534294V42.5933839h-.001972zm-13.66214 0h6.274055v29.6903609h-6.274055V42.5933839zm-22.03412 0h5.250726l12.916825 29.6903609h-7.094297l-2.584942-6.366727h-11.899411l-2.50213 6.366727h-6.920784l12.834013-29.6903609zm-38.9141298 0h11.4498556c1.5064043 0 2.9556282.1459083 4.3141522.44364 1.338807.2839296 2.531706.7808064 3.541233 1.457111 1.005585.6782762 1.813995 1.597104 2.407487 2.7387376.593492 1.1416336.893195 2.5987446.893195 4.3121808 0 2.0703201-.544198 3.8567105-1.620765 5.3079062-1.031216 1.390072-2.545507 2.2931259-4.497523 2.7032465l-.461386.0985866 7.593145 12.6289522h-7.526106l-6.2760274-11.9999692H92.247545v11.9999692h-6.277999V42.5933839h-.0019718zM52.97456 50.9653637c.7886934-1.9184965 1.9106096-3.5727808 3.3342011-4.9214464 1.4176763-1.3486656 3.1232257-2.395656 5.0712982-3.1271691 1.952016-.7236262 4.1169792-1.0903686 6.4317942-1.0903686 2.3759387 0 4.592167.2918166 6.5934763.8616475 1.9283553.5520854 3.6555937 1.5123195 5.1304502 2.8432395l-4.4285131 4.8327185c-.8853083-.8813649-1.8948357-1.5616129-2.9891477-2.0328571-1.1475489-.4929334-2.5948011-.7295414-4.3062657-.7295414-1.4295067 0-2.7426811.236608-3.9020603.7295414-1.1652944.4909616-2.1748219 1.1790965-3.0068934 2.0525744-.8340432.8793931-1.4768282 1.9322987-1.92244 3.1330843-.44364 1.2027573-.6605307 2.521847-.6605307 3.9217776 0 1.4255632.2168907 2.7505681.6605307 3.9434667.4456118 1.1850118 1.0923403 2.2320022 1.92244 3.1094235.8340432.8695344 1.8435707 1.5616129 3.0068934 2.0506027 1.1574075.4870182 2.4745254.7315131 3.9020603.7315131 1.4551392 0 2.7229638-.1636539 3.7837563-.4949051.9976971-.3095621 1.8179382-.6289829 2.4370624-.9562906l.0433782-.0256326.0690106-.0650672.067039-.1202757v-5.0417222h-5.3828321v-5.7633766h11.4084492v15.4228983c-1.9145531.9838949-3.9257211 1.7035776-5.9743521 2.1393307-2.0959525.4534987-4.2707744.6743328-6.4515115.6743328-2.314815 0-4.4778064-.3647707-6.4317942-1.0903686-1.9480725-.7196826-3.6555936-1.7765317-5.0712982-3.1251973-1.4176763-1.3427504-2.5455077-3.0049216-3.3342011-4.9273617-.7926368-1.9165248-1.1968421-4.0893749-1.1968421-6.4613702 0-2.3680517.4042053-4.5448453 1.1968421-6.4732006zM93.9530943 152.844826c-1.9184965.843902-4.3673894 1.802164-5.32368 2.310872-1.7647014.940516-4.4955521 2.999006-6.0295606 5.361143-1.1357185 1.756814-2.1925675 4.144583-2.5356491 5.710139-.2090038.985867-.3135056 2.429176-.2918166 4.124867.0414064 3.955297.7236262 9.215881 2.0821505 12.824153 1.5458389 4.097262 2.387769 5.461702 4.170216 9.6122.7571456 1.756815 1.4669696 3.430816 1.8100512 4.247114.1439365.323364.1005584.69405-.0926715.985867-.473216.723626-1.5359802 2.088065-3.2967381 3.034497-3.0660454 1.656256-9.5234721 2.253692-12.7275388 2.275381h-.0138022c-3.1981515-.023661-9.6555782-.619125-12.725567-2.275381-1.7607579-.946432-2.8195787-2.310871-3.2927947-3.034497-.1971734-.291817-.2346363-.662503-.096615-.985867.3470251-.816298 1.0588209-2.492271 1.8139947-4.247114 1.782447-4.150498 2.6243771-5.514938 4.1702161-9.6122 1.3585243-3.608272 2.040744-8.868856 2.0801787-12.824153.0197173-1.693719-.0808411-3.139-.29576-4.124867-.3430816-1.567528-1.397959-3.955297-2.5336774-5.710139-1.5300651-2.360165-4.266831-4.420627-6.0275889-5.361143-1.3250048-.703909-5.5366272-2.283268-7.1928832-3.19618-2.1097547-1.167266-4.8603228-2.981261-6.7058652-4.428513-2.0565179-1.604991-6.0946278-5.572119-7.6739862-7.532022-3.0266107-3.75418-5.8146416-8.157061-7.1633073-12.904994-1.677945-5.887596-1.6148496-8.407471-1.8356837-10.308222-.0394347-.321393.2050603-.611238.532368-.628983 1.6187931-.053237 7.4492086-.187315 27.8152424-.218965.4022336-.005813.7610891.244597.9050256.619226 5.7278854 15.17446 20.6696808 27.724543 40.3870143 34.552656.806439.274071.8754496 1.392044.088728 1.735125zm50.1431507 43.184904c2.506073 6.6546 3.874456 8.86097 6.770933 15.608241 1.224446 2.849155 2.379882 5.572119 2.941826 6.885293.226749.53434.165625 1.123888-.149852 1.612878-.774891 1.179097-2.500158 3.385466-5.353256 4.92539-4.978627 2.691416-15.466276 3.665452-20.669681 3.68517h-.019717c-5.203404-.019718-15.687111-.993754-20.667709-3.68517-2.853098-1.539924-4.570478-3.746293-5.345369-4.92539-.315478-.48899-.376601-1.078538-.149852-1.612878.561944-1.313174 1.709493-4.036138 2.933939-6.885293 2.898448-6.747271 4.266831-8.953641 6.774876-15.608241 2.208341-5.861963 3.318427-14.399569 3.385466-20.833335.027604-2.734794-.136049-5.091015-.481103-6.696006-.554057-2.537621-2.271437-6.40419-4.116979-9.261232-2.484384-3.846851-6.928671-7.175137-9.785713-8.699287-2.1610194-1.151492-8.9930755-3.712774-11.6844915-5.199461-3.4268725-1.886949-7.8928486-4.840605-10.8879116-7.183025-3.3381445-2.610575-9.8961297-9.044341-12.4554396-12.234605-4.9175029-6.100543-9.4485462-13.250048-11.6391419-20.95361-2.7170486-9.5629072-2.6125467-13.6483387-2.9753457-16.7380449-.0611237-.5343397.3351947-1.0016405.8636192-1.0213579 3.3144838-.1202757 17.481388-.4278661 76.2489001-.3687141 58.761598-.059152 72.928502.2484384 76.241014.3687141.53434.0197174.93263.4870182.865591 1.0213579-.362799 3.0897062-.258297 7.1771094-2.973374 16.7380449-2.194539 7.703562-6.723611 14.853067-11.641114 20.95361-2.561281 3.188293-9.115323 9.622059-12.453467 12.234605-2.999007 2.34242-7.466955 5.296076-10.893827 7.183025-2.687473 1.486687-9.523472 4.047969-11.676605 5.199461-2.860985 1.52415-7.301329 4.852436-9.7936 8.699287-1.841599 2.857042-3.558978 6.723611-4.109092 9.261232-.350969 1.604991-.508707 3.963184-.481103 6.696006.05718 6.433766 1.17121 14.971372 3.377579 20.833335zm78.676105-56.032718c-1.575415 1.959903-5.611554 5.92703-7.668071 7.532021-1.849486 1.447252-4.598083 3.261247-6.711781 4.428513-1.656256.912913-5.865907 2.492271-7.186968 3.19618-1.764701.940517-4.501467 2.999006-6.035476 5.361143-1.131775 1.756814-2.190595 4.144583-2.529734 5.71014-.218862.985866-.311533 2.429175-.299703 4.124866.041406 3.955297.72757 9.215882 2.084122 12.824154 1.547811 4.097261 2.387769 5.461701 4.170216 9.6122.755174 1.756814 1.463026 3.430816 1.813995 4.247113.138021.323365.100558.69405-.096615.985867-.47716.723626-1.532037 2.088066-3.292795 3.034498-3.073932 1.656256-9.523472 2.253691-12.727539 2.27538h-.01183c-3.204067-.023661-9.661493-.619124-12.727539-2.27538-1.764701-.946432-2.819579-2.310872-3.296738-3.034498-.197173-.291817-.234636-.662502-.096615-.985867.347025-.816297 1.054877-2.492271 1.813995-4.247113 1.782447-4.150499 2.622405-5.514939 4.166272-9.6122 1.358525-3.608272 2.044688-8.868857 2.088066-12.824154.01183-1.693719-.084785-3.139-.29576-4.124866-.343082-1.567528-1.401902-3.955297-2.533677-5.71014-1.532037-2.360165-4.266831-4.420626-6.031533-5.361143-.954319-.508707-3.411098-1.46697-5.321708-2.310872-.788693-.343081-.719683-1.459082.088728-1.737097 19.721277-6.828112 34.659129-19.378195 40.385043-34.552655.145908-.374629.508707-.625039.905025-.619227 20.368006.033622 26.198421.165728 27.815243.218965.327307.019717.56983.307591.532368.628983-.214919 1.900751-.157739 4.418655-1.833712 10.308222-1.348666 4.749906-4.136697 9.152786-7.165279 12.906967zM102.041145 51.49576c0 .8636192-.195202 1.5359803-.565888 2.0151115-.372658.4771595-.847845.8261563-1.413733 1.0489621-.5461699.2188624-1.1751528.3509686-1.8494856.3982902-.6703894.0394346-1.3072593.0630954-1.8948358.0630954h-4.0716294v-7.1692224h4.4935803c.5934918 0 1.2126161.0394346 1.8455425.1321061.6388416.0768976 1.212616.2543536 1.705549.4929333.504764.2563254.93263.6270112 1.252051 1.102199.329279.4771595.498849 1.1317749.498849 1.9165248zm25.273678-.8005237 3.937551 9.9690838h-7.835668l3.898117-9.9690838z" fill="#feb672"/></svg>