<svg width="256px" height="257px" viewBox="0 0 256 257" xmlns="http://www.w3.org/2000/svg" preserveAspectRatio="xMidYMid"><title>Grammarly</title><path d="M128 0c70.69589 0 128 57.3601652 128 128.125456 0 68.590221-53.843727 124.594835-121.53574 127.964913h-12.928236C53.8486495 252.720193 0 196.715617 0 128.125456 0 57.3601652 57.3094488 0 128 0z" fill="#15c39a"/><path d="M122.864305 53.0038997c28.74281-1.9272205 54.303839 12.2947052 68.528434 34.5218026 2.250203 3.8784643 1.158467 8.8086251-2.581194 11.4031655-3.939858 2.7360122-9.123601 1.5294972-12.086502-2.6452568-10.276729-14.4781765-28.216962-26.4552374-48.668988-26.4552374-39.2410903 0-69.3532418 39.4065854-53.5377558 80.6789984 6.9668216 18.183137 23.4789898 31.201218 42.7031468 34.222843 23.612454 3.70763 45.209601-4.697933 57.648447-22.963819h0l-7.772944 1.091736h-13.413134c-4.257502 0-8.19736-2.874815-8.955435-7.068254-.995642-5.504056 3.205806-10.300753 8.525681-10.300753h0 47.094113v49.445749c0 5.325214-4.786019 9.532-10.290075 8.539028-4.190771-.758076-7.057578-4.705942-7.057578-8.963444h0v-8.256084l1.630931-9.134277c-13.773487 15.924926-33.993285 25.769232-56.575397 25.769232-42.9914292 0-77.5586096-35.613538-75.0574939-79.232248C55.150001 86.1723771 85.438325 55.5183617 122.864305 53.0038997z" fill="#fff"/></svg>