<svg width="256px" height="302px" viewBox="0 0 256 302" xmlns="http://www.w3.org/2000/svg" preserveAspectRatio="xMidYMid"><g style="fill:#f25f3f"><path d="M127.887881 0l22.031101 12.8925604L138.445 19.694l11.799736-6.9658811v26.0338803L44.1101241 101.236835 44.11 200.453l.1040031-.060583 83.1749049 48.351697L211.928 199.872v-72.405l-84.001271 49.522734-7.29e-4-.208734-21.735489-12.940865L106.19 138.187l-.452327-.279286 127.661461-74.9613809L255.938 75.424l.044403-.0258622L255.982 75.449l.020991.0110773L255.982 75.472l4.03e-4 150.856463L128.655 301.503l8.83e-4.411784-.347883-.206784-.381271.225302-7.29e-4-.452302L0 225.554451V74.9801912L5.623 78.297.226418999 74.9613808z"/><path d="M150.244736 12.7281189v26.0338803L44.1101241 101.236835v99.380197l-21.9210622 12.638493V88.3329587z"/></g><g style="fill:#ffaa5b"><path d="M149.918982 12.8925604 127.887881 0 .226418999 74.9613808 22.2593366 88.579704z"/><path d="M254.807015 200.392417l-21.789563-12.710519-105.628544 61.062216-83.1749049-48.351697-22.1051975 12.917685 83.2471854 49.333177 22.032917 13.618323z"/><path d="M256.002991 75.4600773l-22.603857-12.5137442-127.661461 74.9613809 22.032917 13.618323z"/></g><g style="fill:#eb1919"><path d="M0 74.9801912l22.3120967 13.1612646V213.210083l106.3437863 62.292528v26.412173L0 225.554451z"/><path d="M211.928183 101.824951v98.372371l22.338038 12.636026V106.582399l-22.338038-4.757448"/></g><path fill="#f25f3f" transform="matrix(-1 0 0 -1 383.909132 377.33144)" d="M255.982403 75.3981378v26.0338802L149.847791 164.50641v98.405725l106.134612-62.570429v25.915782l-128.055674 75.675814V151.002977z"/><path fill="#eb1919" d="M106.190511 137.695104v26.145031l21.851246 13.009597v-25.882538z"/></svg>