<svg width="256px" height="288px" viewBox="0 0 256 288" xmlns="http://www.w3.org/2000/svg" preserveAspectRatio="xMidYMid"><path d="M152.575995 32.9634453l59.146063 34.1489974c1.665445-1.7641137 3.610801-3.3217346 5.817676-4.6035719 12.266723-7.0515295 27.912304-2.8646839 35.037287 9.4020393 7.051529 12.2667232 2.864684 27.9123042-9.402039 35.0372869-2.190008 1.258927-4.490053 2.159643-6.83117 2.720123v68.3247c2.31577.561663 4.590617 1.456666 6.757716 2.702423 12.340177 7.124983 16.527022 22.770564 9.40204 35.037287-7.05153 12.266723-22.770564 16.453569-35.037288 9.40204-2.442175-1.403886-4.564091-3.151321-6.340824-5.146667l-58.785294 33.9407c.840357 2.539277 1.295086 5.255507 1.295086 8.07959 0 14.103059-11.458736 25.635247-25.635248 25.635247-14.176512 0-25.635248-11.458735-25.635248-25.635247 0-2.519912.36205-4.953952 1.037058-7.253031l-59.1303213-34.139908c-1.647663 1.729476-3.5660947 3.257924-5.7377691 4.519316-12.3401766 7.051529-27.9857576 2.864683-35.03728712-9.40204-7.05152949-12.266723-2.864683859-27.912304 9.40203932-35.037287 2.1688679-1.246774 4.4433638-2.142221 6.7577158-2.703797V109.66832c-2.3411162-.56048-4.6411619-1.461196-6.8311692-2.720123C.558295189 99.8966677-3.62855044 84.1776333 3.42297904 71.9109101 10.4745085 59.6441869 26.193543 55.4573413 38.4602662 62.5088708c2.1948712 1.2748653 4.1310607 2.8225223 5.7904751 4.5748048L103.41276 32.9254664c-.682042-2.3100132-1.048008-4.7567161-1.048008-7.2902186C102.364752 11.4587354 113.823488 0 128 0c14.176512 0 25.635248 11.4587354 25.635248 25.6352478 0 2.5473915-.36999 5.007029-1.059253 7.3281975zm-6.162357 10.521426 59.286917 34.2303217c-1.832656 6.4364958-1.16004 13.5733708 2.437139 19.8309649 3.608907 6.2779931 9.488089 10.4396271 16.012849 12.0614961v68.410188c-.332511.081621-.663363.169832-.992342.264577L145.72529 44.1686182c.233727-.2235713.46322-.4515306.688348-.6837469zm-36.122708.699249L32.8593279 178.295656c-.3347689-.097216-.6714668-.187641-1.0098706-.271218v-68.416784c6.5247595-1.621869 12.4039419-5.783503 16.0128482-12.0614961 3.6042935-6.2699689 4.2724442-13.4226996 2.4262371-19.8691422l59.2702044-34.2206723c.239166.2474585.48328.4901035.732183.7277769zm24.871819 6.0756427 77.414068 134.081165c-1.732576 1.651862-3.259441 3.576622-4.512576 5.756554-1.245757 2.167099-2.14076 4.441947-2.702423 6.757716H50.6395564c-.5615766-2.314352-1.4570231-4.588848-2.7037975-6.757716-1.2580876-2.165985-2.7818341-4.080054-4.5057292-5.724815L120.858821 50.2659993c2.26612.6540829 4.662094 1.0044964 7.141179 1.0044964 2.486952 0 4.890265-.352641 7.162749-1.0107327zm11.795335 194.478232 58.902023-34.008096c-.176709-.554975-.334624-1.115803-.473467-1.681431H50.6067643c-.0820755.332324-.1707559.663004-.2659851.991827l59.1910028 34.174944c4.660516-4.836694 11.207957-7.842094 18.468218-7.842094 7.518379 0 14.272352 3.222896 18.958084 8.36485z" fill="#e535ab" fill-rule="evenodd"/></svg>