<svg width="256px" height="256px" viewBox="0 0 256 256" xmlns="http://www.w3.org/2000/svg" preserveAspectRatio="xMidYMid"><title>Gravatar</title><path d="M102.397328 25.589038v89.594816c0 14.132436 11.456603 25.589038 25.589038 25.589038 14.132436 0 25.589038-11.456602 25.589038-25.589038V55.5772289c32.264689 11.3750577 53.116043 42.7188679 51.139384 76.8728561-1.976659 34.153988-26.304724 62.883043-59.666259 70.459989-33.361534 7.576946-67.7125003-7.825149-84.2481133-37.7747-16.5356129-29.94955-11.2688536-67.2252078 12.9170906-91.4211203 9.8276301-10.0333892 9.7443615-26.1089213-.186681-36.0399638-9.9310426-9.9310426-26.0065746-10.0143111-36.0399638-.186681C-5.68734932 80.6652912-12.3516695 148.331227 21.5736226 199.102722c33.9252922 50.771495 98.9912554 70.507568 155.4052684 47.138159 56.414013-23.369409 88.46353-83.335404 76.547914-143.22437C241.61119 43.1275451 189.049204-.00399450723 127.986366 2.84217094e-14 113.853931 2.84217094e-14 102.397328 11.4566026 102.397328 25.589038z" fill="#4678eb"/></svg>