<svg width="256px" height="256px" viewBox="0 0 256 256" xmlns="http://www.w3.org/2000/svg" preserveAspectRatio="xMidYMid"><title>graylog</title><path d="M128 0c70.808511 0 128 57.1914894 128 128 0 70.808511-57.191489 128-128 128C57.1914894 256 0 198.808511 0 128 0 57.1914894 57.1914894 0 128 0zm0 43.5744681c-46.8425532 0-84.4255319 37.5829787-84.4255319 84.4255319 0 46.842553 37.5829787 84.425532 84.4255319 84.425532 46.842553 0 84.425532-37.582979 84.425532-84.425532 0-46.8425532-37.582979-84.4255319-84.425532-84.4255319zm11.982979 27.2340425 23.421276 47.9319154c.544681 1.089361 1.634043 1.634042 2.178724 1.634042h19.06383c4.357446 0 8.170212 3.812766 8.170212 8.170213 0 4.357447-3.268085 7.625532-7.625532 7.625532h-29.412766c-1.089361 0-2.178723-.544681-2.178723-1.634043l-11.982979-24.510638-20.153191 74.621277c-.544681 2.178723-3.812766 2.723404-4.902128.54468l-23.4212765-47.931915c-.5446808-1.089361-1.6340425-1.634042-2.1787234-1.634042H70.8085106c-4.3574468 0-8.1702127-3.812766-8.1702127-8.170213 0-4.357447 3.8127659-8.170213 8.1702127-8.170213h29.4127664c1.089361 0 2.178723.544681 2.178723 1.634043l11.982979 24.510638 20.697872-74.0765955c.544681-2.1787234 3.812766-2.7234043 4.902128-.5446809z" fill="#03c3ff"/></svg>