<svg width="256px" height="297px" viewBox="0 0 256 297" xmlns="http://www.w3.org/2000/svg" preserveAspectRatio="xMidYMid"><title>GreenSock</title><path d="M40.1690844 129.719949C31.50624 133.794963 8.57792799 152.13878 4.16187023 157.5738c-4.586162707 5.43502-5.94450072-3.056886-1.18906691-17.153916 3.73563798-11.379521 13.24817328-26.835723 29.21302258-40.083062 9.3407627-7.6430488 29.8926085-18.6823594 42.460362-25.1371749 2.5482388-1.3591719 35.4977331-15.2860972 64.8808611-22.2495599 2.548238-.6795859-3.056886 4.2459528-3.906577 6.9634627-4.416058 12.9079634-92.5654405 68.2771231-92.5654405 68.2771231l-2.8859471 1.529276z"/><path d="M164.324013 285.466035c1.528443 9.171491.170105 9.851077-9.340762 11.040144-9.511702 1.189067-16.475164-2.378134-19.022569-4.755434-2.548239-2.378967-3.056886-7.643048-.509481-12.398482 1.529277-3.05772 3.05772-4.076682 3.90741-7.813154.848857-3.566366 1.528443-4.416057 2.207195-5.774395.678752-1.189901.849691-2.378968 1.018962-10.700769.170105-8.3218 0-23.948107.849691-30.57136.849691-6.793358 30.232819 3.056886 30.232819 3.056886 0 0-6.964297 17.324021-8.832116 21.569974-1.868653 4.246786-1.698548 12.398482-1.698548 14.09703 0 1.698548-.678752 5.09481-1.189067 5.264915-.509481.169271 1.698548 4.585329.678752 7.133567-.679586 2.378134 1.528443 8.49274 1.697714 9.851078z"/><path d="M175.534263 25.7749885c-1.019796-6.4539816 0-19.1935078 1.358338-21.23059788 4.246786-5.77522962 26.665617-6.4539817 31.421885.33937604 2.037924 3.0568859 1.867819 10.19045354 1.528443 14.77661624-.339376 4.5853288-1.528443 14.4364063-1.698548 17.664231-.169271 2.3781339-24.796965 6.1137718-30.231984-.3402099-1.529277-1.697714-2.378134-11.2094155-2.378134-11.2094155z"/><path d="M225.468402 268.990871c10.360559 7.473777 18.342983 8.832115 23.607898 11.549625 5.264915 2.718344 3.906577 7.983259-4.925538 9.511702-7.133568 1.358338-18.342984-1.359172-25.815927-1.359172-7.472944 0-24.118213.849691-28.534271-2.207195-5.09481-3.566367-2.887615-10.191288-2.887615-10.191288 1.359172-3.735638 4.755434-12.059106 3.736472-18.852464-1.018962-6.793358-2.378134-10.529829-4.925539-16.81454-2.547404-6.283877-4.415223-21.739245-2.03709-22.588936 2.378134-.849691 1.697714 0 4.755434.678752 3.056886.678752 6.453982 1.698548 13.078069 1.698548 6.624086 0 13.926925-1.019796 16.475164-1.528443 2.547405-.509481 4.585329-1.019796 3.735638 4.245953-.848857 5.264915-3.396262 15.115992-3.566367 22.759041-.169271 7.643048-.169271 16.475164.34021 18.003607.508647 1.528443 4.245952 3.226991 6.963462 5.09481z"/><g transform="translate(4.16187 2.506467)"><g transform="translate(0 39.798434)" fill="#88ce02"><path d="M184.959942.454733223C166.277583 16.5905213 130.100264 21.0057452 76.4304861 41.7268622c-13.7576543 5.2649148-50.4436205 21.060493-59.275736 37.5356571C46.8772536 62.1086031 57.917398 85.716501 60.294698 110.003985c2.207195 22.759041 13.5875493 34.648876 42.800572 33.968456 30.062713-.678752 39.234205 16.81454 47.556006 37.366386 16.134954-78.638515 41.951715-93.9237781 58.595316-107.3412225 35.328462-28.7043754-8.151696-79.31810089-24.28665-73.542871277z"/><path d="M184.959942.454733223C140.121446 16.0802065 95.7915973 19.9867833 43.6502628 52.0874207 31.2517804 59.7304693 5.09564369 77.0536566-1.18496894e-14 110.17409 19.0217352 89.1127629 63.011374 62.6180841 116.85209 45.8035439c27.175099-8.4927395 47.047359-14.0970303 71.164738-23.4386268-1.697714-10.8708733-1.697714-15.11682614-3.056886-21.910183877z"/></g><path d="M242.19692 133.327254c0 0-3.226991 11.040145-9.680972 14.607346 0 0-4.755434 1.698548-14.266302-3.566367-2.71751-1.528443-4.755434-6.793358-4.586163-8.49274.170105-4.076681 2.71751-5.9445 2.71751-5.9445 0 0 2.718344-4.586163 5.944501-4.416058 3.227825.169271 8.662845.678752 10.361392-.849691 1.52761-1.698548 9.850244 3.056886 9.510034 8.66201z"/><path d="M172.900836 26.4955127c0 0-.678753 8.6628444-1.867819 14.0970303-.170105 1.0197958-5.264915 1.528443-9.002221 3.0577198 7.133568 20.380907 50.104245 20.2108021 55.709369 10.1904535-2.71751-1.867819-8.152529-4.7554338-10.699934-5.7743958-2.548239-1.0197958-2.378134-.8496908-2.548239-5.6051246-.169271-4.7562677-.509481-13.5875494-.849691-15.9656832-.339376-2.3781338-26.665618-2.3781338-30.741465 0z"/><path d="M174.599383 26.4955127c0 0 0 4.9255388-.509481 9.6809726-.169271 2.2080288-.339376 3.5663669-.678752 5.2649148-.170105 1.0197958 5.774396 5.0948098 7.472944 14.0970303 8.15253 18.1728781 27.005828 9.1714915 34.818147.5094809-2.71751-1.8686528-7.133567-4.4160577-12.228377-6.4539817-2.548239-1.0197958-1.359172-3.2269908-1.528443-7.9824246-.170105-4.7554338-.849691-11.7197303-1.189067-14.2671353-.341044-2.5474049-22.080289-3.2269908-26.156971-.848857z" fill="#efefef"/><path d="M172.900836 26.4955127c0 0-.170105 3.0577198-.678753 6.6240867 2.207195 2.207195 5.09481 5.2649147 7.303673 7.1335676 1.528443 1.3591718 5.264081 1.1890669 8.662011 1.1890669 3.056886 0 5.774395.339376 6.963462-.339376 2.718344-1.3591719 6.624087-4.7554338 8.832116-7.3036726-.169271-3.0568859-.339376-5.9445007-.508647-7.3036726-.171773-2.3781338-26.498015-2.3781338-30.573862 0z"/><path d="M188.357038 39.4034761c-2.038758 0-4.416892-.1692711-6.284711-.509481-.849691-.1692711-1.698548-.678752-2.378134-1.0189619-1.189067-.8496909-2.378134-1.867819-3.735638-2.8876148-2.718343-2.037924-2.887615-3.2269909-2.887615-3.735638 1.189067-10.7007684-.340209-19.702155-.340209-19.702155 0 0-1.189067-4.58616272 5.264914-5.77522963 6.453982-1.18906691 10.360559-1.35833801 10.360559-1.35833801 0 0 4.076682 0 10.360558 1.35833801 6.453982 1.18906691 5.264915 5.77522963 5.264915 5.77522963 0 0-1.528443 9.0013866-.339376 19.702155 0 .5086471-.169271 1.697714-2.887615 3.735638-2.378134 1.6985479-4.245953 3.5663668-6.113772 3.9065767-1.868652.3402099-4.246786.509481-6.283876.509481z"/><path d="M188.357038 4.73987577e-14C177.147622 4.73987577e-14 174.938759 3.0568859 171.711769 6.4539817c-.678752.84885702-.170105 5.9445007 1.019795 16.8145402h1.528443c0 0-1.019795-3.0577198-.84969-6.6240867.170104-3.5663669.84969-3.3962619.339376-4.2459528-.678753-1.0197958-2.037924-2.7183437 1.019795-4.41605775 3.056886-1.6985479 7.81232 1.35833801 13.58755 1.52844295 5.774395-.17010494 10.699934-3.22699085 13.75682-1.52844295 3.056886 1.69771405 1.698548 3.39626195 1.019796 4.41605775-.679586 1.018962.169271.6787521.339376 4.2459528.169271 3.5663669-.849691 6.6240867-.849691 6.6240867h1.528443c1.018962-10.8700395 1.698548-15.62547329 1.189067-16.47516416C202.453234 3.0568859 199.566453.169271096 188.357038 4.73987577e-14z"/><path d="M242.19692 133.836735c0 0-3.226991 10.360559-9.510867 13.926926-1.359172-.678752-1.189067-1.697714-2.378134-3.226991-.34021-.508647-1.529277-.849691-2.037924-1.358338-.509481-.509481-.339376-1.359172-1.189067-2.037924-.679586-.679586-1.189067-.170105-1.868653-.679586-.678752-.678752-.849691-1.528443-1.358338-2.03709-.34021-.34021-1.698548-.509481-2.037924-.849691-.849691-.849691-8.321801-2.378134-7.982425-4.076682.678753-2.548238 2.037924-4.416057 2.037924-4.416057 0 0 3.226991-4.755434 6.453148-4.586163 3.226991.170105 6.284711.849691 7.983259-.678752 1.868653-1.699382 12.399316 4.585329 11.889001 10.020348z"/><path d="M220.117465 58.7662551c0 0 10.699935-2.5482388 18.003607 4.4160577 7.303673 7.1335676 6.793358 15.9648493 4.586163 21.399869 1.867819 2.2080289 5.264915 8.3218007 2.71751 15.6254732 11.209415 9.510868 6.283877 24.118213-3.736472 33.799185 0 0-2.378134-8.832115-11.889001-9.341596.339376-3.396262-8.832116-6.114606-4.586163-14.946721-6.453982-1.528443-6.283877-5.944501-7.302839-11.3786869-.849691-5.4358536 2.207195-39.573581 2.207195-39.573581z"/><path d="M216.210888 63.5216889c0 0 12.398483-6.2838768 19.702155.8496908 7.302839 7.1335677 5.264081 14.9458874 3.056886 20.3809071 1.867819 2.207195 6.283877 8.4927395 3.566367 15.9648492-.509481 1.698548-4.245953 1.698548-6.964296 6.114606 6.793357-3.907411 11.040144-2.887615 12.568587 2.03709 2.378134 7.643048-2.887615 16.81454-7.472944 21.910184 0-.170105-.170105-.34021-.170105-.509481-.678752 2.548238-1.528443 7.472943-6.623252 12.907963-2.548239 2.71751-4.586163 2.378134-7.473778 1.698548-3.396262-.849691-4.585329-2.378968-9.340763-4.925539-2.717509-1.528443-1.189066-3.397096-1.189066-4.925538 0-.339377.339376-.849691.84969-1.528443.339376-.849691 1.358338-2.207195 2.886781-3.736472 0 0 2.208029-3.056886 5.435854-2.887615 3.226991.170105 6.623253-.508647 7.472944-1.358338h0c0-5.944501-6.793358-6.114606-4.416058-16.305059.170105-.509481 1.019796-1.359172 3.736472-1.698548-4.076682-.849691-5.944501-1.019796-8.832116-3.736472-2.037924-1.867819-3.566367-4.2459528-4.076682-7.3028387-1.018128-5.2649148-2.716676-32.9494944-2.716676-32.9494944z" fill="#efefef"/><path d="M180.373779 52.8217543c-1.018962-1.3591718-6.283877-8.1525296-16.305059-10.8700394-2.887615-.8496909-4.755434 1.5284429-7.642215 3.2269908-.849691-.509481-4.586162-2.2080288-6.624086-1.0197958-2.037924 1.1882331-3.396262 2.3781338-5.43502 3.2269909-1.019796-.509481-3.736472-.509481-5.944501.339376-2.208029.6795859-5.605125 2.2080289-8.832115 6.6240866-2.037924 7.3036726 36.00638 1.867819 36.00638 1.867819l14.776616-3.3954281z"/><path d="M180.713989 52.8217543c-5.435853-1.8686528-4.586163-8.1525296-16.645269-9.1714915-2.378134-.170105-3.906577 1.697714-5.605125 2.8867809.849691.8496909 1.698548 2.2080289 2.208029 3.5663669-1.528443-1.697714-4.245953-3.9065767-6.964296-4.4160577-2.547405-.5086472-4.245953 1.3591718-6.963463 2.7183437.508647.5086471 1.018962 1.358338 1.697714 2.3781338-2.378134-1.5284429-4.075848-2.0379239-7.302839-.8496909-2.208029.6787521-6.453981 2.547405-9.680972 7.1335677-2.037924 7.3036725 34.308666-.8496909 34.308666-.8496909l14.947555-3.396262z" fill="#88ce02"/><path d="M212.644522 55.5392642c0 0 0-1.8686528-.170105-3.5663669 0-.339376-1.358338-1.1890669-1.358338-1.5284429l-.339376-.3402099c0 0 2.717509-1.528443 4.755433-.6787521 2.207195.6787521 3.396262 3.5663669 3.396262 3.5663669 3.906577-1.358338 4.245953.1701049 6.114606 2.2080289 4.076682-.8496909 4.585329.678752 7.133568 4.4160577 0 0-3.056886-.509481-9.001387.5086472-5.77523.848857-10.530663-4.7554338-10.530663-4.5853289z"/><path d="M211.964936 54.6895733c0 0 1.018962-.8496908.678752-1.0197958 1.867819-1.0189619 4.416057-2.207195 5.605124 1.0197958 3.906577-1.3591718 4.416058.509481 6.283877 2.5482388 4.755434-2.2080289 5.09481.5086471 5.43502 1.6977141-1.528443 0-3.735638.1701049-6.793358.5094809-5.774396.8496909-11.37952-4.9255387-11.209415-4.7554338z" fill="#88ce02"/><path d="M154.218476 50.4436205c0 0 9.680973 3.396262 17.833503 2.886781 8.152529-.6787521 22.079454-1.358338 29.552398 3.0577197 0 0 7.643049-2.7183437 14.776616-.8496908 7.134402 1.867819 20.211636 14.0970303 16.305893 27.0049937-.340209.8496908-2.548238 2.2080288-5.095643 3.0577197 0 0 1.359172 5.7743958-1.018962 10.5298296-2.378134 4.5861626-7.643049 13.4182786-7.813154 25.6466556h0c-.169271 2.037924-.508647 6.283877-.848857 8.321801-13.248173-.508647-33.62908-5.43502-53.670611-5.09481.169271-2.207195.339376-3.566367.509481-5.774396h.508647c-1.018962-5.605125-1.358338-8.492739-2.378134-12.738692-6.453982-4.075848-13.248173-8.8312818-19.021735-17.8335023-5.605125-9.0022204 10.360558-38.2144092 10.360558-38.2144092z"/><path d="M219.778089 142.15937c0 0 10.530664 37.705762-1.867819 53.50134 0 0 1.867819 7.302839-2.378134 15.115993-.679586 3.396261-1.529276 6.453981-2.037924 9.850243-2.208028 14.09703-5.945334 20.041531-6.964296 42.630467l-10.191288-.169271c0 0-1.189066-16.305059-4.755433-24.96707-2.03709-4.924705-10.021183-11.549625-9.680139-18.172878.339376-5.095644 1.358338-9.341596 10.021182-16.135788.678753-9.850244-9.172325-19.192674-7.643048-55.87864l35.496899-5.774396z"/><g style="fill:#efefef"><path d="M216.721203 140.630093c2.71751 17.324021 9.001387 42.970677-2.378134 55.538431.508648 2.378133.848857 5.775229.169272 9.680972-.339377 2.037924-1.018962 4.245953-1.867819 6.623253-1.698548 4.076682-2.378134 10.021182-2.887615 13.587549-2.208029 14.097031-2.208029 14.77745-3.226991 37.366386l-10.191288-.170105c0 0-1.189066-16.305059-4.755433-24.966236-2.03709-4.925538-6.283877-9.171491-6.623253-15.795578-.339376-5.09481 3.226991-15.285263 11.71973-14.945887-.509481-20.551012-10.021182-16.475164-12.568587-59.275736l32.610118-7.643049z"/><path d="M154.218476 50.4436205c0 0 3.736472 1.1890669 7.81232 1.528443 4.076682.339376 8.49274 0 12.398482-.170105 8.15253-.6787521 19.702155-1.5284429 27.345204 2.8876148 0 0 4.245953-1.3591718 8.832116-1.0197958 2.037924.170105 4.076681 1.8686529 6.453981 2.5482388 7.472944 1.867819 14.606512 14.2663014 11.378687 25.4765507-.339376.8496909-2.71751 0-5.43502.8496909.508647 2.3781338.849691 7.8131536-1.868653 13.5875493-2.886781 5.7752298-6.623252 13.2481738-5.9445 27.5153088-17.833503-.849691-25.815927-2.037924-43.480158-2.887615-1.528443-6.284711-2.548239-12.568587-2.71751-15.795578 2.378134-1.189067 3.735638-2.207195 5.605125-4.245953-5.09481.849691-7.133568.509481-10.191288-1.189067-3.056886-1.6985479-8.491905-7.1335676-11.209415-10.6999345-.339376-.3402099-2.207195 5.264081-6.453148 5.4350197-1.529277-2.2080288 4.924705-8.4927394 3.735638-10.8700394-4.245119-8.6628444 3.738139-32.9503283 3.738139-32.9503283z"/></g><path d="M218.078707 126.533063c0 0 .339376 6.114606.339376 7.643048 0 1.698548 1.359172 6.793358 1.528443 9.171492-1.867819 3.226991-10.020348 10.530663-24.796964 13.248173-14.606512 3.056886-33.968457-19.871426-33.968457-19.871426.509481-2.208029 2.208029-8.662844 3.397096-12.059106.170105-.339376.509481-1.189067.509481-1.528443 1.529277-2.208029 52.991025 3.396262 52.991025 3.396262z"/><path d="M214.343069 127.043378c0 4.245953.678753 7.303672 1.189067 10.021182.848857 4.925539 2.207195 8.15253 2.207195 11.379521 0 9.850243-12.907963 8.151695-23.778836 8.491905-14.606512 3.05772-27.004994-19.871426-27.004994-19.871426 1.018962-3.906577 1.698548-8.321801 3.226991-12.059106h0c.169271-2.037924.509481-4.585329.678752-5.774396 20.721117 0 35.327628 1.189067 43.820368 2.03709.34021 1.868653 8.33e-4 5.095644-.338543 5.77523h0z" fill="#efefef"/><path d="M198.037176 148.952728c0 0-9.001386-20.041531-36.007214-14.096197-6.453148 18.172878-15.115992 39.0641-9.510867 61.653036-5.605125 7.643049-12.059107 11.889836-12.059107 25.986032 0 14.09703.679586 16.475164.679586 16.475164l19.871426 1.019796c0 0 6.453982-8.321801 9.001387-17.324021.679586-2.548239 1.359172-7.133568.849691-12.398483.678752-1.018962 3.566367-3.396262 3.906577-7.982424 0 0 9.680972-5.09481 15.286097-17.493293 5.265748-11.211917 3.906577-20.892889 7.982424-35.83961z"/><path d="M198.037176 148.952728c-.508647-1.867819-7.302838-20.210802-32.440013-14.776617-14.775782 39.40431-9.340763 55.70937-7.133568 62.842103-10.021182 12.737859-14.606511 15.455369-12.567753 41.272129h13.248173c6.113772-9.680972 7.472944-13.248173 7.81232-25.986031 0-.509481-1.867819 1.018962-3.226991 2.71751 1.019796-5.264915 3.906577-6.283877 6.114606-9.510868 1.018962-1.359172 1.867819-3.397096 1.867819-6.114606 11.889001-7.982424 16.305059-18.003607 18.852464-28.364165 2.038758-7.132734 4.416057-18.852464 7.472943-22.079455z" fill="#efefef"/><path d="M156.086295 121.608358c0 0 4.586163.169271 8.662845 1.528443 3.906577 1.358338 3.906577 2.207195 5.43502 3.906577 1.528442 1.699381 5.264914 4.245953 4.586162 6.793357-.34021 1.359172-1.189067 1.698548-2.378134 2.887615-.509481.509481-4.246786 4.585329-5.095643 5.09481-.509481.339376-1.189067.849691-1.698548 1.189067-.508647.339376-2.03709 1.359172-2.547405 1.698548-1.698548.849691-2.887615 1.359172-4.755434 1.189067 0 0-4.245953-.170105-6.964296-3.056886 0 0-.339376-1.359172.340209-2.037924 0 0-3.5672-3.05772-4.586162-5.095644-1.019796-2.03709-1.019796-4.924705-.339376-6.453148.339376-1.53011 6.962629-5.776063 9.340762-7.643882z"/><path d="M160.333082 286.866145l-.509481 4.246787c0 0-1.528443 1.867819-12.907963 1.698547-11.549626-.170104-14.606512-3.736471-15.625474-5.605124l-.678752-4.416058c0 0 2.208029-3.226991 2.71751-3.226991 3.736472.339376 16.475164 5.43502 25.30728 6.793358.847189 0 1.01646.339376 1.69688.509481z"/><path d="M184.959942 278.204134c0 1.867819-.170105 1.867819-.170105 3.736472 2.037924 1.528443 7.134401 2.378134 16.81454 2.207195 14.09703-.339376 27.175099 4.246787 43.139948 1.528443l.170105-3.056886-1.528443-.169271-56.558226-4.586163-1.867819.34021z"/><path d="M197.358424 284.148635c1.359172 0 2.71751 0 4.245953 0 9.172326-.339376 17.834336 1.698548 27.175099 2.208029 4.925539-.170105 11.040144-1.359172 10.530663-4.925539l-48.235591-4.076682c-2.887615 3.226991-.68042 5.944501 6.283876 6.794192z"/><path d="M141.989265 212.644522c1.528443 1.018961 11.889001 7.133567 28.703542 6.283876-.34021 3.226991-.170105 9.511702-7.643049 20.551012-3.736472 5.43502-6.964296 14.946721-7.643049 27.005828.170105 2.71751 1.698548 5.09481-.339376 8.66201.678752 2.207195 3.396262 6.623253 4.755434 9.340763 1.358338 2.718344 2.037924 5.77523-6.964296 5.945335-9.171492.169271-23.948108-.849691-21.90935-7.982425 1.019795-3.736472 3.906576-7.643049 4.246786-9.172325.339376-1.528443.339376-6.113772 3.226157-9.171492 2.548239-8.491906 1.698548-16.644435 1.189901-24.287484-.849691-7.983258-1.019796-20.721117 2.3773-27.175098z"/><path d="M157.784843 74.2216234c12.059107-16.1357881 1.867819-29.0429177-17.493292-25.1371747-7.813154 1.5284429-15.625473 6.9642965-16.135788 16.8145401-2.547405.3393761-8.321801.6787521-11.209416 11.2094155-2.207195 8.1525296-3.396262 9.6809726-7.303672 13.7568205-2.547405 2.8876148.170105 8.8321155 2.037924 13.0789022 6.28471 14.606511 25.646655 15.964849 38.724724 27.004994 4.416058-1.189067 9.001386-6.113772 10.360558-9.340763-11.040144-13.078902-8.662844-18.173712-13.078902-24.9670698 4.756268-1.6993817 15.626307-8.3226345 14.097864-22.4196648z"/><path d="M155.406709 73.2026614c.678753-1.0197958 1.867819-3.2269908 2.378134-4.0766817.170105-.170105 2.037924 3.0568859 2.208029 2.8876148 4.585329-7.4737775 5.774396-18.343817.508647-19.3627789-1.189067-.170105-3.396262-.6787521-5.264915-1.3591719-3.396261-1.1890669-6.453147-1.1890669-11.889001-.1692711-7.472944 1.358338-14.945887 6.7933577-14.945887 14.6065113 0 .509481 5.264081 2.0379239 6.793357 8.3226345-2.548238-3.5672007-6.964296-7.4737775-12.229211-4.0766817-5.605125 3.5663669-2.71751 11.7188965-10.190453 20.2108021-2.548239 2.8876148-2.208029 6.2847106.508647 13.0780682 4.416058 10.700769 25.307279 16.475164 36.6868 26.665618 2.71751-1.189067 4.585329-3.906577 5.944501-5.944501-7.643049-7.982425-10.700769-15.456202-12.907964-20.891222-2.71751-6.2838765-5.775229-9.8502434-11.71973-14.6073449 3.05772 1.1890669 5.435853 2.3781338 6.793358 3.3970958 1.528443 1.0189619 3.736471 1.1890669 5.775229.509481 7.304507-2.5457373 11.211083-12.7370246 11.550459-19.1901725z" fill="#efefef"/><path d="M229.288957 75.9201713c-.509481 6.4539817-5.264915 3.2269908-7.81232 2.0379239-5.095644-2.2080289-10.191287-3.7364718-16.135788-3.7364718-5.944501 0-13.587549.509481-20.210802 2.2080289-9.171492 2.5474049-11.889835 2.3781338-15.965683.339376-4.075848-2.2080289-11.208582-7.6430486-11.208582-7.6430486 0 0-.170105 1.6985479 1.528443 3.9065768 2.207195 2.7175098 7.133568 6.1146056 13.75682 8.3218007 3.226991 1.0197958 5.77523.339376 8.662845-.3393761 15.115992-3.7364718 31.080841-4.4160578 44.498286 3.7364718.679586.3393761 3.05772-.6795859 4.076682-2.2080288 1.357504-2.2071951-1.189901-6.6232528-1.189901-6.6232528z"/><path d="M152.010447 140.630093c1.358338.849691 3.056886 1.359172 4.924705 2.887615 0 0-1.528443 0-2.207195-.678752-.849691-.509481-2.548238-2.037924-2.71751-2.208863h0z" fill="#001423"/><path d="M201.094896 5.94450071c-.509481-1.52844295-4.246787-4.24678666-12.907963-4.24678666-9.341597 0-12.059107 2.88761481-12.228378 4.41605776 0 .50948098-.679586 5.94533459-.849691 8.15252959 0 0 0 2.7175099.169272 6.7933577.170104 2.7175099.84969 4.2459529 1.189066 7.8131536.339376 3.735638 1.359172 6.1137718 3.226991 9.1714916.849691.5086471 1.528443 1.0189619 2.378134 1.1890669 3.397096.6787521 9.341597.848857 12.568587 0 1.867819-.509481 4.245953-3.7364719 4.755434-6.6240867.678752-3.5663669 1.358338-6.1146056 1.528443-8.3218007.339376-2.207195.509481-7.1335676.678752-8.4927394.510315-3.735638-.339376-9.51086765-.508647-9.85024369z" fill="#efefef"/><path d="M183.261394 215.871512c0 0 9.00222 3.906577 31.25178.509481 0 0-6.283876 31.591157-3.396262 47.385901 0 0 2.886781 4.076682 24.287484 11.889002 0 0 9.510868 2.378133 9.171492 7.134401 0 0 .339376 1.018962-11.209416.678752-11.548791-.34021-22.419665-2.378134-30.062713-2.378134-7.643049 0-15.795578.339376-17.153916-1.867819-1.528443-2.037924.339376-7.303672 2.547405-10.361392 2.378967-3.226157 1.698547-5.605125 1.529276-11.378687-.511148-15.115992-12.060774-30.741465-6.96513-41.611505z"/><path d="M181.392741 218.759127c-1.189067 1.698548.169271 8.151696 1.867819 14.436407 1.698548 6.283876 5.435854 10.021182 6.284711 20.380907.848857 10.190453 1.018962 11.549625-1.868653 17.493292-2.887615 5.943667-3.736472 11.37952 6.283877 11.549625 10.020348.170105 15.456202-.170105 25.646655 1.359172 10.191288 1.528443 13.757655 2.037924 19.362779 1.189067 5.605125-.848857 6.793358-2.718344 4.416058-4.416058-2.378134-1.698548-12.229211-3.566367-16.475164-6.964296-4.076682-3.056886-15.625473-8.15253-15.794744-9.510868-.509481-4.586163-.679586-21.230598.169271-26.665618.849691-5.435853 2.037924-13.248173 2.378133-15.286097.34021-2.037924 2.037924-4.076681-.84969-3.397096-2.886781.678753-13.756821 2.208029-21.90935 1.698548-8.15253-.508647-9.001387-2.3773-9.511702-1.866985z" fill="#88ce02"/><path d="M187.167971 271.240672c2.886781 1.358338 7.133567 2.378133 10.360558 2.378133 0 0-1.189901 5.605125.678752 9.001387 1.867819 3.397096-13.587549 1.359172-13.587549 1.359172l-.678752-12.059106 3.226991-.679586z" opacity="0.3"/><path d="M232.176572 285.847183c2.717509-.849691 4.586162-3.906577 2.378133-6.793358-2.378133-2.887615-4.416057-3.397096-1.359171-3.566367 3.057719-.170105 14.267135 6.623253 14.267135 6.623253l-5.77523 5.264915-9.510867-1.528443z" opacity="0.3"/><path d="M180.88326 225.38238c3.906577 1.359172 9.851078 1.698548 14.946721 1.528443 5.09481-.169271 12.737859-.849691 17.664231-2.547405 4.924705-1.698548 2.886781 1.867819 2.886781 1.867819l-2.71751 2.548239c0 0-6.453981 2.547405-16.983811 2.378134-12.398482-.170105-16.135788-1.528443-16.135788-1.528443l.339376-4.246787z" opacity="0.3"/><path d="M181.222636 233.875119c3.907411 1.359172 9.851078 1.698548 14.946721 1.528443 5.09481-.169271 11.889002-.169271 16.814541-2.037924 2.037924-.678752.84969 2.208029.84969 2.208029l-.84969 1.528443c0 0-6.624087 2.378134-16.984646 2.207195-12.398482-.169271-14.606511-1.189067-14.606511-1.189067l-.170105-4.245119z" opacity="0.3"/><g style="fill:none"><path d="M183.261394 215.871512c0 0 14.776616 5.264915 31.421885 1.698548 0 0-6.453981 30.40209-3.566367 46.027563 0 0 2.886781 4.075848 24.287484 11.889001 0 0 9.510868 2.378134 9.171492 7.133568 0 0 .339376 1.019796-11.209416.678752-11.549625-.339376-22.419665-2.378134-30.062713-2.378134-7.643049 0-15.795578.34021-17.153916-1.867819-1.528443-2.037924.339376-7.303672 2.547405-10.360558 2.378967-3.226991 1.698547-5.605125 1.529276-11.379521-.511148-14.945887-12.060774-30.57136-6.96513-41.4414z"/><path d="M183.261394 215.871512c0 0 14.776616 5.09481 31.421885 1.528443 0 0-6.453981 30.572195-3.566367 46.197668 0 0 2.886781 4.075848 24.287484 11.889001 0 0 9.510868 2.378134 9.171492 7.133568 0 0 .339376 1.019796-11.209416.678752-11.549625-.339376-22.589769-3.566367-30.062713-2.378134-7.982425 1.359172-15.795578.849691-17.153916-1.867819-1.189067-2.207195.339376-7.303672 2.547405-10.360558 2.378967-3.226991 1.698547-5.605125 1.529276-11.379521-.511148-14.945887-12.060774-30.57136-6.96513-41.4414z"/></g><path d="M170.013221 114.815c0 1.189067 13.248173 7.81232 20.551012 9.171492 7.303672 1.358338 22.58977 0 24.967069-.509481l-.340209 2.378134c0 0-18.172879 2.71751-32.099804-1.018962-13.927759-3.736472-12.398482-4.586163-12.398482-4.586163l-.679586-5.43502z"/><g transform="translate(133.045862 214.512341)" fill="#efefef"><path d="M8.60319274 45.1787057c2.03792396 1.0197958 9.34159646 2.8876148 14.09703026 1.8686529.6787521-.170105 0-11.7197304 1.8686529-16.9846451 2.7175099-7.3036726 7.1335676-13.2481733 9.1706577-26.15530288C26.605966 3.2278247 18.4542702 1.35917186 14.2074836 0c-5.43418592 16.6452691-3.5655331 30.9115705-5.60429086 45.1787057z"/><path d="M19.983547 55.8794741c1.1890669.339376 2.037924 1.697714 2.3781339.8496909.678752-1.5292768-1.189067-4.4160578-1.3591719-6.4539817 0-.170105 0 0 0-.170105-1.528443-1.358338-11.88900143-1.5284429-11.2094155-.8496908-1.18906691 2.2080288-3.05688591 1.8686528-3.73563799 6.2847106-.33937604 2.207195 2.37813383.339376 4.92470489.1692711C6.39683155 58.7662551 1.13191677 62.6736657.282225895 66.0699276c-1.018961969 4.7554338.679585928 6.1146057 5.775229615 8.6628445C10.4735133 75.751734 15.7384281 75.921839 19.8142759 75.751734c4.5861627-.8496909 5.4358536-3.0568859 4.0766818-6.1146056-2.0395917-4.5861627-3.3979297-10.5306635-3.9074107-13.7576543z"/></g><path d="M154.897228 49.7640346c5.605125 3.2269908 13.418279 2.3781338 16.30506 2.2080289.679586 0 7.473777-1.1890669 7.813153-1.0197958.678752.1701049.678752.6795859.678752.6795859 0 0-2.547405 1.358338-8.3218 1.697714-5.43502.3393761-11.889002 0-15.455369-1.697714-4.246786-1.867819-1.019796-1.867819-1.019796-1.867819z"/><path d="M212.644522 52.9910254c1.018961.6787521 7.643048 3.2269909 10.530663 6.2838768 2.547405 2.7183437 1.189067 2.5482388.678752 1.8686528-.678752-.8496908-5.944501-4.4160577-7.982425-5.2649148-2.037924-.848857-4.586162-2.3781338-4.586162-2.7175098 0-.3393761 1.359172-.170105 1.359172-.170105z"/><path d="M154.047538 123.476177c4.925538-.339376 10.021182.849691 13.248173 4.245953 1.698548 1.698548 4.416058 3.566367 4.076682 5.264915 0 .509481-1.019796 1.868652-1.867819 2.887614-.509481.678752-2.037924 2.207195-2.548239 2.71751-.678752.509481-3.056886 2.378134-3.566367 2.71751-.509481.34021-1.189067 1.189901-1.698548 1.359172-1.697714.849691-3.566367.170105-5.264915-.678752-1.697714-.849691.34021-1.019796-1.528443-2.378134-4.585329-3.226991-7.133567-5.435854-5.264914-11.71973.169271-1.189067 2.03709-2.548239 4.41439-4.416058z" fill="#efefef"/></g><path d="M114.900189 87.0886485c-15.2860975 6.1146057-54.1809264 25.4773845-65.220237 31.4218855h0c9.1714916 5.774396 13.4174444 19.701321 14.7766162 33.798351.1692711 1.359172.3393761 2.548239.509481 3.906577.1692711 1.189067.3393761 2.037924.5086472 2.548239 0 .170105 0 .509481.1701049.678752 10.0211824-27.34437 45.8574577-56.218016 47.2166297-58.426045.678752-1.0189622-.849691-5.43502 1.528443-9.680139 3.05772-5.4366874 9.003054-7.8148212.510315-4.2476205z" opacity="0.4"/><path d="M151.246779 215.321093c7.81232-15.625473 7.982425-30.572194 7.81232-48.06632 0-7.303673 5.264914-17.664231 2.548238-14.776617-10.191287 11.378687-35.837109 32.780224-54.350197 33.968457 25.986032-.848857 36.176485 12.229211 43.989639 28.87448z" opacity="0.4"/><path d="M34.7332308 132.946106c9.6809726-6.963462 59.785217-33.6282462 71.8443232-37.3655518 12.058273-3.9065768 8.321801-8.4927395 8.321801-8.4927395 0 0-48.9151777 21.0604933-78.1282002 39.2342053"/><path d="M177.402082 83.8616577c-3.906577-1.528443-6.963463 3.0577197-5.944501 7.4737775 1.019796 4.4160578 10.191287 9.3407628 9.680973 25.4765508-.339376 13.248173-3.226991 18.682359-3.226991 18.682359l-6.453982-8.151696c0 0-1.018962-18.343817-3.226991-21.061326-2.207195-2.71751-9.171491-7.6430491-11.889001-10.190454-2.71751-2.5482388 3.056886-5.9445007 2.71751-10.7007684-.339376-4.5853288 2.887614-13.7568204 2.887614-13.7568204l15.455369 12.2283775z" opacity="0.4"/><path d="M201.010814 156.214628c-.339376 12.737859 2.548238 31.591157 3.736471 40.593377 1.189067 9.001387 2.71751 9.680973 0 13.757654-2.717509 3.906577-6.283876 10.360559-6.283876 10.360559l-11.719731-1.019796c0 0 9.341597-11.889001 9.850244-14.09703.509481-2.207195-4.755434-19.021736-4.755434-19.021736l9.172326-30.573028z" opacity="0.4"/><path d="M178.421878 37.3246139c2.378133 5.264081 5.264914 7.6422148 9.850243 9.1714916 2.71751 1.018962 13.417445 2.3781338 17.664231-2.3781338 1.867819-2.2080289.678752-8.1525296.678752-8.1525296l-9.680972 7.8123197-13.078069-2.3773-1.528442-3.9065768-3.905743-.1692711z" opacity="0.4"/><g style="fill:#88ce02"><path d="M179.440006 49.0435104c4.416057 2.8876148 15.456202 5.6051247 18.513088 6.1146057 3.056886.6787521 7.982424-3.2269909 10.360558-4.2459528 2.548239-1.189067 6.964297-1.8686529 12.059107 2.7175098.509481.509481-1.189067 2.7175099-1.189067 2.7175099-.170105-.170105-1.189067-.170105-2.548239-.8496909-1.358338-.6787521-2.547405-1.1890669-4.585329-1.018962-8.492739 1.018962-9.851077 3.9065768-17.324021 2.2071951-7.472944-1.6993818-9.341597-3.0568859-16.644435-2.7175099" stroke="#000" stroke-width="1.586" stroke-linejoin="round"/><path d="M177.911563 49.5529914c5.605124 2.3781338 16.475164 4.9255387 19.53205 5.6051247 3.056886.6795859 7.982424-2.3781338 10.360558-3.9065768 4.246787-2.7175099 9.680973-.509481 12.229212 2.3781338 1.697714 1.867819 2.378133 3.0568859 2.378133 3.5663669 0 .6787521-2.037924 0-2.037924 0-1.189066-.509481-2.548238-.6787521-3.566366-1.3591718-1.359172-.6787521-2.718344-1.6977141-4.755434-1.528443-8.49274 1.0197958-10.191288 3.9065768-17.494126 2.2080289-7.302839-1.6985479-9.171492-3.2269909-16.983812-2.7183437"/></g><path d="M151.586155 208.186692c-.339376-.339376.339376-.678752 0-.678752-2.207195 0-5.264915-1.698548-6.964297-4.076682-7.302838-10.52983-18.003607-17.493292-37.365552-16.983811-29.0437512.678752-40.5933766-11.209416-42.8005716-33.968457-1.1890669-12.398482-4.5861627-24.457589-11.5496254-31.25178l-4.0766817 2.548239c7.8123197 6.793357 10.3605585 17.833502 12.0591064 32.949494 2.7175098 22.759041 21.0604929 33.289704 42.4611963 33.62908 22.249559.339376 30.231984 4.925539 38.553785 16.135788 2.71751 3.566367 5.775229 4.755434 8.152529 5.264915l1.530111-3.568034z"/><path d="M230.393941 98.97765c.509481 2.547405 1.867819 7.472944 4.585329 9.850244 1.189901 1.189067 1.359172 1.528443.34021 1.528443-1.019796 0-8.49274-.339376-8.49274-.339376l-2.037924-3.566367 5.605125-7.472944z" opacity="0.4"/></svg>