<svg width="256px" height="256px" viewBox="0 0 256 256" xmlns="http://www.w3.org/2000/svg" preserveAspectRatio="xMidYMid"><defs><linearGradient x1="20.9379706%" y1="135.775348%" x2="67.3305702%" y2="141.765059%" id="a"><stop stop-color="#1a7d75" offset="0%"/><stop stop-color="#1a8864" offset="100%"/></linearGradient><linearGradient x1="5.87891947%" y1="11.1173081%" x2="-17.3060707%" y2="72.2714937%" id="b"><stop stop-color="#168a81" offset="1.29262%"/><stop stop-color="#31a97f" offset="100%"/></linearGradient><linearGradient x1="-144.300883%" y1="53.4330921%" x2="-70.3570682%" y2="117.633897%" id="c"><stop stop-color="#27a59b" offset="0%"/><stop stop-color="#64d8a2" offset="100%"/></linearGradient><linearGradient x1="-143.418979%" y1="60.4705186%" x2="-4.6930745%" y2="180.917352%" id="d"><stop stop-color="#27a59b" offset="0%"/><stop stop-color="#64d8a2" offset="100%"/></linearGradient><linearGradient x1="208.845261%" y1="-141.921386%" x2="86.1110263%" y2="-183.711114%" id="e"><stop stop-color="#27a59b" offset="0%"/><stop stop-color="#64d8a2" offset="100%"/></linearGradient></defs><path d="M231.385192 105.753666c12.307853-.591412 23.204049 8.956865 24.26671 21.277257 4.603821 59.5968-48.956604 126.247706-125.818253 128.382433-12.318302.342726-22.580245-9.393633-22.921926-21.745372-.340637-12.352783 9.36751-22.642938 21.685812-22.985665 50.99102-1.415837 83.294041-45.459331 81.569959-81.50831-.590367-12.342335 8.9088-22.827886 21.217698-23.420343z" fill="url(#a)"/><path d="M22.5511546 104.48516c12.3226906 0 22.3122286 10.017437 22.3122286 22.3744 0 51.575118 41.4697012 84.953339 82.8898738 83.931428 12.319347-.304065 22.550988 9.463641 22.854009 21.816425.304065 12.353828-9.437519 22.614726-21.755821 22.918792C64.0788477 257.123854.017481991 205.267658.017481991 126.85956c0-12.356963 10.210982009-22.3744 22.533672609-22.3744z" fill="url(#b)"/><path d="M175.646155 128.59409c0-12.650579 10.319413-22.906253 23.04836-22.906253h33.589289c12.729992 0 23.368098 10.255674 23.368098 22.906253 0 12.651625-10.638106 22.907298-23.368098 22.907298h-33.589289c-12.728947 0-23.04836-10.255673-23.04836-22.907298z" fill="url(#c)"/><path d="M105.167788 128.627527c0-12.669388 10.253584-22.93969 22.887445-22.93969 12.634906 0 22.88849 10.270302 22.88849 22.93969 0 12.669388-10.253584 22.940735-22.88849 22.940735-12.633861 0-22.887445-10.271347-22.887445-22.940735z" fill="url(#d)"/><path d="M150.30947 21.4461786c.512 12.3463053-9.055086 22.7705208-21.367119 23.2832523-53.1492568 2.2134073-85.5963686 43.9868604-84.0170053 83.6515001.4916244 12.346515-8.8915592 22.755788-21.2044278 23.24898-12.3128686.493192-23.140771001-9.472-23.6324080298-21.818514C-2.4852274 65.1737998 51.3350632 1.27453845 127.090792.0196327146 139.402825-.493101849 149.798515 9.09988375 150.30947 21.4461786z" fill="url(#e)"/></svg>