<svg width="512px" height="150px" viewBox="0 0 512 150" xmlns="http://www.w3.org/2000/svg"><g fill="#7d4cdb"><path d="M206.978723 64.5213374c1.79131-.0644456 3.577999.2210018 5.260061.8403647 2.69144 1.1994919 4.889077 3.2872463 6.224924 5.9136778v-5.9136778h10.364499v38.5322799c.250968 4.126729-.677416 8.239685-2.676718 11.85848-2.948124 4.442106-8.477848 6.752001-16.589173 6.929685l-1.027362.011105c-4.438934.152997-8.833757-.924166-12.698845-3.112462-3.229364-1.949656-5.272663-5.382398-5.446808-9.150638h11.578359c.174648 1.023788.677099 1.963154 1.431732 2.676717 1.708893 1.127989 3.749574 1.643645 5.789179 1.462857 3.098555.3817 6.125239-1.125515 7.687782-3.828328 1.032406-2.546716 1.509892-5.284304 1.400607-8.030152v-2.614468c-.826683 1.505687-1.948836 2.82898-3.299209 3.890578-2.385883 1.711783-5.284869 2.55732-8.2169 2.396595-4.775679.172568-9.365863-1.858588-12.449848-5.509057-3.290583-4.2490393-4.937296-9.5428355-4.637568-14.9086934-.187445-5.433358 1.408523-10.778759 4.544194-15.2199392 2.917643-4.1108745 7.725373-6.4561087 12.761094-6.224924zm260.606444.40462c2.97297-.0839757 5.930343.4102802 8.708793 1.4514592l1.033213.4160181c2.861313 1.3054081 5.290758 3.4001289 7.00304 6.0381762 1.661327 2.5289488 2.725661 5.4026518 3.112462 8.4036475.311064 2.6750771.415122 5.3701786.311246 8.0612766h-29.568389c-.190984 3.4072102 1.414775 6.665958 4.232948 8.5903951 1.762034 1.0633341 3.794533 1.593081 5.851429 1.5251064 2.119057.1247299 4.210784-.5282432 5.882553-1.8363526.916272-.7768135 1.667667-1.7292864 2.209848-2.8012158h10.831368c-.442396 2.5565324-1.629113 4.9194467-3.403152 6.7969979l-.549675.548412c-4.008519 4.071202-9.578485 6.215242-15.282188 5.882554-5.218976.067882-10.292623-1.718924-14.317326-5.042189-4.149949-3.3407091-6.224924-8.7667678-6.224924-16.2781761-.377798-5.9240019 1.653784-11.7493685 5.633557-16.1536778 3.853198-3.8105605 9.121275-5.8410824 14.535197-5.6024317zm-180.802918-.5602431c5.921668-.4388778 11.699118 1.9645414 15.56231 6.473921 3.23049 4.066127 5.029481 9.0736898 5.135573 14.2479925l-1e-5.9719467c.10881 5.5263412-1.731352 10.9146004-5.197812 15.2199395-3.912635 4.417114-9.682737 6.725155-15.56231 6.224924-5.874364.465588-11.629556-1.836488-15.56231-6.224924-3.252369-4.0768753-5.054424-9.1098597-5.139747-14.3061618l.004185-.976027c-.097611-5.5340766 1.740875-10.9284348 5.197811-15.2510638 3.881836-4.4747367 9.656494-6.8423465 15.56231-6.3805471zm218.619332-9.3062614v11.3293617H512v7.5632827h-6.598419v21.4759878c-.135247 1.0775308.083214 2.1698362.622492 3.112462 1.211594.5722216 2.560928.7881149 3.890577.6224924H512v7.9056535l-5.011064.155623c-5.042188 0-8.465896-.715866-10.302249-2.614468-1.308132-1.573465-1.955226-3.592845-1.805228-5.6335562V74.0765957l-5.758055-.1244984v-7.5632827h5.758055V55.0594529h10.520122zm-92.938116 12.0763526c1.550786 1.3131446 2.749034 2.9928308 3.485957 4.8865653 1.205565-2.2057116 3.006608-4.0283243 5.197812-5.2600608 2.274184-1.1181518 4.780309-1.6833629 7.314286-1.6496048 1.775824-.0174157 3.53908.2993369 5.197811.9337386 1.871059.7893896 3.502324 2.0557662 4.730943 3.6727051 1.201837 1.5057792 1.995112 3.2960094 2.303221 5.1978116.232601 1.5908323.359076 3.1949317.378763 4.8016696l-.005267 26.8209439h-10.893617V80.6750152c.046395-1.3063427-.209231-2.6057767-.746991-3.7972036-.986574-1.9219267-3.047969-3.0452019-5.197812-2.8323405-2.651618-.2946677-5.182321 1.1857937-6.224924 3.6415806-.607485 1.4691313-.90421 3.0481297-.871489 4.6375684V106.50845h-10.706869V82.2934954c.099173-1.7752239-.154723-3.5524895-.746991-5.2289361-.935878-2.0134563-3.053511-3.2038412-5.260061-2.9568389-2.474294-.3637494-4.926047.7885745-6.224924 2.9257143-.673656 1.5696671-.972051 3.2747839-.871489 4.9799392v24.4639511h-10.488997V66.0153191h10.333374v5.9136779c.979861-1.6963378 2.243121-3.2122505 3.734954-4.4819453 4.699434-3.0765691 10.743621-3.1974529 15.56231-.3112462zm-68.131793-.3734955c1.552747 1.3113386 2.751379 2.9915643 3.485957 4.8865654 1.223301-2.1844001 3.020754-3.9926157 5.197812-5.2289362 2.267212-1.1377715 4.778184-1.7040758 7.314285-1.6496049 1.612817.0105226 3.210485.2916939 4.726839.8299799l.751095.2905065c3.672489 1.5719987 6.313439 4.8790285 7.034164 8.8082674.205074 1.5473544.320727 3.1048135.346531 4.664621l-.00416 27.1447409h-10.893617V80.6438906c.048963-1.316593-.206671-2.6267174-.746991-3.8283283-.993032-1.9156142-3.049774-3.0363537-5.197812-2.8323404-2.638414-.2341603-5.136049 1.2269557-6.224924 3.6415805-.518079 1.2298336-.810821 2.5404947-.866571 3.8695512l-.004918 24.9829714h-10.70687V82.2934954c.098374-1.7853749-.155442-3.572663-.74699-5.2600607-.932088-2.0016887-3.033199-3.1898169-5.228937-2.956839-2.474294-.3637493-4.926047.7885746-6.224924 2.9257143-.658327 1.5851121-.956005 3.2967616-.871489 5.0110639v24.4328271h-10.769119V65.9841945h10.333374v5.6024316c.969587-1.7125068 2.233989-3.2403256 3.734955-4.5130699 4.708476-3.0471829 10.73576-3.1677285 15.56231-.3112462zm-83.538481-2.209848.653618.0311246h.902613v10.893617c-.653617 0-1.244984 0-1.774103-.1556231h-1.276109c-3.437945-.4363123-6.812247 1.1838399-8.62152 4.1395745-.941012 2.286114-1.366108 4.7516712-1.244985 7.2209119v19.4528871h-10.862492V65.4862006h10.146626v7.0964134c1.137589-2.066356 2.586261-3.9454306 4.295197-5.571307 2.210711-1.7342189 4.975348-2.607844 7.781155-2.458845zm25.880122 8.8087335c-2.77172 0-5.400186 1.2313882-7.174225 3.3609929-1.833248 2.7555599-2.718318 6.0335989-2.521094 9.3373861-.19959 3.2996309.673912 6.575261 2.48997 9.337386 1.774039 2.1296047 4.402505 3.3609929 7.174224 3.3609929 2.77172 0 5.400186-1.2313882 7.174225-3.3609929 1.799814-2.7693751 2.671862-6.0395562 2.48997-9.337386.211033-3.2964018-.65166-6.5724483-2.458845-9.3373861-1.774039-2.1296047-4.402505-3.3609929-7.174225-3.3609929zm-84.892401 5.5397164c-.802543 2.2027981-1.192913 4.5344656-1.151611 6.878541-.022218 2.1328547.37982 4.2488447 1.182735 6.224924 1.094231 3.0513969 3.948433 5.0907023 7.15051 5.1727229l.568396-.006036c2.374444.0746004 4.665755-.878222 6.287174-2.6144681v-.0311246c1.91789-2.5755185 2.825836-5.764401 2.552218-8.9638906.237095-3.1242581-.609244-6.2348303-2.396595-8.8082674-1.43481-1.8530921-3.600552-2.9790692-5.921821-3.1026181l-.583225-.0098439c-3.457099-.1863931-6.609131 1.9702602-7.687781 5.2600608zm259.64158-2.956839c-1.580488 1.7220235-2.572401 3.9020507-2.83234 6.2249241h18.301277c-.027517-2.4346366-1.051093-4.7517418-2.832341-6.4116718-1.562768-1.3234278-3.512057-2.0922899-5.544704-2.1989633l-.68022-.0108847c-2.378705-.1353775-4.704969.7341485-6.411672 2.3965957z"/><path d="M74.6990881 24.899696c27.5034449 0 49.7993919 22.2959473 49.7993919 49.7993921 0 27.5034449-22.295947 49.7993919-49.7993919 49.7993919-27.5034448 0-49.7993921-22.295947-49.7993921-49.7993919 0-27.5034448 22.2959473-49.7993921 49.7993921-49.7993921m0-24.899696C33.4439209 0 0 33.4439209 0 74.6990881c0 41.2551669 33.4439209 74.6990879 74.6990881 74.6990879 41.2551669 0 74.6990879-33.443921 74.6990879-74.6990879 0-19.8114299-7.87006-38.8114353-21.878856-52.8202317C113.510523 7.87005991 94.5105181 0 74.6990881 0z"/></g></svg>