<svg width="512px" height="132px" viewBox="0 0 512 132" xmlns="http://www.w3.org/2000/svg" preserveAspectRatio="xMidYMid"><path d="M43.945897 112.520966c-10.8713826 0-21.0759403-2.805563-29.9342459-7.706497l-9.29390611 16.248612c11.60286261 6.440143 24.97661931 10.128634 39.22815201 10.128634 14.2515328 0 27.6252896-3.688491 39.2281522-10.128634l-9.2944541-16.248612c-8.8583058 4.900934-19.0623157 7.706497-29.9336981 7.706497" fill="#0ba0be"/><path d="M98.6429616 0v19.8039761H80.6869074c-.0076711 0-.0295883.0055011-.0416426.0071514 4.4113453 6.8774808 6.9559099 15.1571932 6.9559099 24.216412 0 24.7357161-19.1625859 44.1474634-43.8005875 44.1474634C18.9916331 88.1750029 0 68.7632556 0 44.0275395 0 19.1196387 18.9916331.0522604927 43.8005872.0522604927c11.4653337 0 21.7411215 4.1324296773 29.4559075 11.0577701073 2.0673211-2.30551291 5.2693959-5.65788594 7.1635732-7.06341816 2.0728004-1.53810881 1.7571957-1.48914897 3.9877988-2.51455485C86.6395659.506101609 90.4240849 0 98.6429616 0h0zM199.599428.0522604927c24.638001 0 43.800587 19.0673782073 43.800587 43.9752790073 0 24.7357161-19.162586 44.1474634-43.800587 44.1474634-24.808954 0-43.800587-19.4117473-43.800587-44.1474634 0-24.9079008 18.991633-43.9752790073 43.800587-43.9752790073zm97.726228.0060512149c24.63581 0 43.797848 19.0662778924 43.797848 43.9725283924 0 24.734066-19.162038 44.1441628-43.797848 44.1441628-24.80731 0-43.797847-19.4100968-43.797847-44.1441628 0-24.9062505 18.990537-43.9725283924 43.797847-43.9725283924zM471.20756.0107271537c7.349868 0 13.672925 1.3180646363 18.794928 3.9178865963 5.100089 2.59047008 9.358014 6.03031072 12.655429 10.22380265 3.282617 4.1830398 5.690199 8.9557981 7.156449 14.1873484 1.451452 5.1902921 2.186766 10.5362654 2.186766 15.8921407h0v6.1100768h-65.011863c.16109 2.8440711.875585 6.1326311 2.131429 8.5129591 1.454741 2.7588039 3.392205 5.144633 5.761981 7.0881733 2.388954 1.964444 5.19707 3.5102544 8.343256 4.5972728 3.162076 1.0958199 6.480859 1.6503312 9.8632 1.6503312 4.530794 0 8.509826-1.0622632 11.828608-3.1581838 3.406997-2.1531326 6.587157-5.039562 9.452255-8.5773221h0l.766551-.9483907 13.60662 10.4460473-.770378 1.0001011c-8.76735 11.3850854-21.194294 17.1562943-36.938375 17.1562943-6.523597 0-12.529952-1.1315773-17.856332-3.361175-5.327476-2.2317978-9.907582-5.3674274-13.609364-9.3216211-3.69192-3.9426416-6.574006-8.6515873-8.562975-13.9975605-1.983488-5.3261695-2.990027-11.1683425-2.990027-17.3675369 0-6.2101969 1.09585-12.0655724 3.260703-17.4016438 2.160468-5.339372 5.186111-10.0417161 8.990355-13.9794067 3.809723-3.94264154 8.411747-7.07332005 13.677855-9.30676849 5.27104-2.23179808 11.078498-3.3628251563 17.262929-3.3628251563zM361.498045 1.98710896l22.357537 60.43348354 22.696155-60.43348354h19.646951L393.720426 86.1540071h-19.725304L341.850546 1.98710896h19.647499zM151.854766 5.50109778e-5V19.8040311h-17.956054c-.181798 0-1.381106.3926343-2.647917.8212968l-.448366.152208c-.746792.2542377-1.478269.5064251-2.001065.6839779h0V86.153952h-18.081529V1.97000052h18.081529v6.62002911c1.70843-1.78785895 3.563157-3.60267329 4.830508-4.54336218 2.073348-1.5381088 1.757196-1.48914897 3.988347-2.51455485C139.85137.506156619 143.635889 5.50109778e-5 151.854766 5.50109778e-5h0zM297.325656 18.4375017c-14.029075 0-24.80731 11.5083105-24.80731 25.5933384 0 14.0844779 10.778235 25.5933384 24.80731 25.5933384 14.200028 0 24.63581-11.5088605 24.63581-25.5933384 0-14.0850279-10.435782-25.5933384-24.63581-25.5933384zm-253.5250688-.004951c-14.029623 0-24.8089541 11.5088607-24.8089541 25.5949888 0 14.085578 10.7793311 25.5949885 24.8089541 25.5949885 14.2011237 0 24.6380016-11.5094105 24.6380016-25.5949885 0-14.0861281-10.4368779-25.5949888-24.6380016-25.5949888zm155.7988408 0c-14.029623 0-24.808954 11.5094108-24.808954 25.5949888 0 14.085578 10.779331 25.5949885 24.808954 25.5949885 14.201124 0 24.638001-11.5094105 24.638001-25.5949885 0-14.085578-10.436877-25.5949888-24.638001-25.5949888zm271.265679-3.5325342c-3.566993 0-6.875912.6848875-9.837447 2.0359588-2.979618 1.3604231-5.526922 3.1449814-7.570682 5.3063653-2.053076 2.1707359-3.670551 4.6203776-4.807495 7.2779612-.942432 2.2086935-1.495836 3.7418513-1.650351 5.9048856h0 45.997769c-.190681-2.8050132-.69258-4.7441525-1.493645-7.1151285-.909007-2.6801382-2.288135-5.0445129-4.101766-7.0287612-1.811441-1.9748965-4.109988-3.5482124-6.828793-4.6715379-2.744009-1.1348779-6.010739-1.7097433-9.70759-1.7097433z"/></svg>