<svg width="256px" height="267px" viewBox="0 0 256 267" xmlns="http://www.w3.org/2000/svg" preserveAspectRatio="xMidYMid"><defs><filter x="-50%" y="-50%" width="200%" height="200%" filterUnits="objectBoundingBox" id="a"><feOffset dy="1" in="SourceAlpha" result="shadowOffsetOuter1"/><feGaussianBlur stdDeviation="2" in="shadowOffsetOuter1" result="shadowBlurOuter1"/><feColorMatrix values="0 0 0 0 0   0 0 0 0 0   0 0 0 0 0  0 0 0 0.243359375 0" in="shadowBlurOuter1" result="shadowMatrixOuter1"/><feMerge><feMergeNode in="shadowMatrixOuter1"/><feMergeNode in="SourceGraphic"/></feMerge></filter></defs><g transform="translate(4 3)"><path d="M33.0666667 178.008889l35.2711111-67.786667 28.1066666 47.395556-35.8222222 57.315555-27.5555555-36.924444z" fill="#92c83e"/><path d="M55.6622222 209.422222 122.897778 78.2577778l36.373333 68.3377782-51.804444 89.831111-51.8044448-27.004445z" fill="#4b843d"/><path d="M98.0977778 233.12 191.235556 42.9866667c0 0 30.311111 34.72 37.475555 50.7022222 6.613333 14.8800001 4.96 47.9466671-5.511111 73.8488891-10.471111 25.902222-31.964444 45.191111-44.088889 50.151111C128.96 239.733333 98.0977778 233.12 98.0977778 233.12h0z" fill="#92c83e"/><path d="M248 124C248 55.6622222 192.337778 0 124 0 55.6622222 0 0 55.6622222 0 124c0 62.826667 47.3955556 115.182222 108.568889 122.897778v13.226666l25.902222-12.675555C197.848889 242.488889 248 189.031111 248 124h0zM124 225.955556c-52.9066667 0-101.9555556-49.048889-101.9555556-101.955556C22.0444444 71.0933333 71.0933333 22.0444444 124 22.0444444c52.906667 0 101.955556 49.0488889 101.955556 101.9555556 0 52.906667-49.048889 101.955556-101.955556 101.955556h0z" fill="#fff" filter="url(#a)"/></g></svg>