<svg width="256px" height="272px" viewBox="0 0 256 272" xmlns="http://www.w3.org/2000/svg" preserveAspectRatio="xMidYMid"><title>GrowthBook</title><path d="M83.6548409 96.9752288 256 0c0 0-16.247983 14.2930369-15.533537 45.2324586C241.228264 78.2050659 256 90.4659468 256 90.4659468l-20.251557-9.2270592L77.2114444 143.302005c0 0-3.8491548-10.784634-3.911952-18.913258-.1636843-20.053901 10.3553485-27.4135182 10.3553485-27.4135182z" fill="#029dd1"/><path d="M46.9905864 160.371498 235.289303 91.4923194c0 0-16.247983 14.2930366-15.533537 45.2334886.761801 32.972607 15.533537 45.232458 15.533537 45.232458l-26.306847-10.126808L39.9727506 205.10055c0 0-3.2778039-9.940476-3.3393799-17.315534-.1607876-20.054931 10.3572157-27.413518 10.3572157-27.413518z" fill="#0047bd"/><path d="M10.3572157 216.229024l198.6736253-35.64097c0 0-16.247984 14.293036-15.533538 45.232458.761801 32.972607 15.533538 45.233488 15.533538 45.233488H11.8406691c0 0-11.665852388-7.08578-11.8406691-28.44092-.160787583-20.05493 10.3572157-26.384056 10.3572157-26.384056z" fill="#4817a1"/></svg>