<svg width="256" height="272" xmlns="http://www.w3.org/2000/svg" preserveAspectRatio="xMidYMid"><path d="M83.655 96.975L256 0s-16.248 14.293-15.534 45.232C241.228 78.205 256 90.466 256 90.466l-20.252-9.227-158.537 62.063s-3.849-10.785-3.912-18.913c-.163-20.054 10.356-27.414 10.356-27.414z" fill="#029DD1"/><path d="M46.99 160.371l188.3-68.879s-16.249 14.293-15.534 45.234c.762 32.972 15.533 45.232 15.533 45.232l-26.307-10.127-169.01 33.27s-3.277-9.94-3.339-17.316c-.16-20.055 10.358-27.414 10.358-27.414z" fill="#0047BD"/><path d="M10.357 216.229l198.674-35.64s-16.248 14.292-15.534 45.232c.762 32.972 15.534 45.233 15.534 45.233H11.84S.175 263.968 0 242.614c-.16-20.056 10.357-26.385 10.357-26.385z" fill="#4817A1"/></svg>