<svg width="512px" height="208px" viewBox="0 0 512 208" xmlns="http://www.w3.org/2000/svg" preserveAspectRatio="xMidYMid"><title>gRPC</title><defs><linearGradient x1="100%" y1="0%" x2="0%" y2="100%" id="a"><stop stop-color="#72c9c9"/><stop stop-color="#02b0ad" offset="1"/></linearGradient><linearGradient x1="100%" y1="0%" x2="-8.8817842e-14%" y2="100%" id="b"><stop stop-color="#03b6b4"/><stop stop-color="#74cbca" offset="1"/></linearGradient></defs><path d="M56.6781387 179.867942c3.8012416 5.057428 8.7412645 9.147447 14.4191978 11.938162 6.1406763 3.04169 12.9165876 4.579685 19.7686831 4.487093 5.5402434.145253 11.0553424-.795415 16.2342014-2.768943 4.142056-1.627346 7.839809-4.212545 10.790517-7.543942 2.769042-3.245535 4.790547-7.060258 5.921318-11.173949 1.232874-4.445938 1.843247-9.041368 1.813677-13.654986v-16.043149h-.380779c-3.591082 5.691788-8.770865 10.206918-14.899484 12.987627-5.843514 2.544007-12.152287 3.844798-18.5255119 3.819734-6.2449718.046934-12.4395141-1.120598-18.238932-3.437628-5.4912018-2.180201-10.5154349-5.389189-14.8026307-9.454472-4.2540896-4.084311-7.6332499-8.991-9.9321048-14.421851-2.4462362-5.733338-3.6816152-11.910234-3.6286811-18.143406-.0527572-6.215069 1.1156749-12.379991 3.4389548-18.1447319 2.1959948-5.4539311 5.4033741-10.443488 9.4531455-14.7057774 4.049214-4.22735 8.9254464-7.5757233 14.324998-9.8365782 5.7776776-2.4021443 11.983518-3.6042212 18.2402587-3.5331546 2.8489617.0165179 5.6915308.2717056 8.4978803.7628854 3.0861872.5391421 6.0988662 1.4368012 8.9768392 2.6747426 6.83285 2.9614426 12.73918 7.7130932 17.095268 13.7531657h.380779V72.5292997h12.606847v88.6220773c-.043059 5.207171-.65163 10.394259-1.815004 15.46999-1.217017 5.487819-3.629796 10.63955-7.066309 15.087883-3.910256 4.907591-8.914016 8.832723-14.611577 11.461856-6.240182 3.054195-14.389567 4.581293-24.4481563 4.581293-8.1708291.139294-16.2872752-1.353728-23.87367-4.391567-7.2580912-3.109451-13.7689098-7.73225-19.0973439-13.559459l9.3576189-9.933431zm2.2913098-63.790489c-.0315272 4.551795.8453229 9.064145 2.5792161 13.27288 1.6530449 4.038806 4.0495357 7.731427 7.0649823 10.886043 2.997935 3.126632 6.5629907 5.654769 10.505264 7.449742 4.1067722 1.866546 8.5723053 2.81164 13.0831532 2.768942 8.9334049.032224 17.5416989-3.349301 24.0647229-9.453145 3.203734-3.023005 5.712933-6.705548 7.354216-10.79317 1.76895-4.493421 2.582287-9.306115 2.388163-14.131292.032038-4.526363-.744357-9.022086-2.292637-13.275533-1.47127-4.0425549-3.745423-7.7455563-6.68553-10.8860433-3.021922-3.1836425-6.660969-5.7180195-10.69499-7.4484153-4.466719-1.8984986-9.281037-2.8421104-14.1339449-2.7702691-4.5108567-.0413801-8.9762015.9041265-13.0831532 2.7702691-3.9410201 1.7965664-7.5057143 4.3239967-10.505264 7.4484153-3.0144875 3.155638-5.4112471 6.8479798-7.0663091 10.8860433-1.733101 4.209858-2.6094791 8.723002-2.5778893 13.275533h0zm130.6378265 45.838136h-13.750513V26.6898366h41.636297c13.751396 0 24.60604 2.9922798 32.56393 8.9768395 7.957005 5.9863288 11.936392 15.0268527 11.938161 27.1215718.242027 8.7790201-2.94338 17.3073841-8.881313 23.7781435-5.921759 6.4312347-14.484651 10.1554423-25.688674 11.1726229l38.962881 64.1765747h-16.808688l-37.051023-62.8378767h-22.919732l-.001326 62.8378767zm0-75.4433973h24.448156c5.25316.1105612 10.495026-.5328319 15.565516-1.9105305 3.708424-.9915361 7.182225-2.7117488 10.218684-5.0602522 2.449492-1.971316 4.355559-4.5349627 5.537885-7.4484152 1.161995-2.9494039 1.745761-6.0948049 1.719477-9.2647459.013982-3.1059805-.569789-6.1856403-1.719477-9.0710393-1.196053-2.932976-3.098412-5.5249063-5.537885-7.5452685-3.007233-2.3951381-6.49108-4.1207777-10.218684-5.0615789-5.082104-1.3084215-10.318733-1.9185878-15.565516-1.8136772h-24.448156v47.1755077zm100.460732-59.7823551h39.346313c13.750512 0 24.604714 2.9927221 32.562604 8.9781663 7.957005 5.9863287 11.936392 15.0268527 11.938161 27.1215718 0 12.0982571-3.979387 21.170181-11.938161 27.2157715-7.95789 6.0491286-18.812092 9.0732506-32.562604 9.0723661h-25.593147v62.8378767h-13.753166V26.6898366zM303.8225 86.4735184h22.155519c5.25315.1103599 10.494988-.5330297 15.565516-1.9105304 3.708273-.9919359 7.181999-2.7121111 10.218684-5.0602522 2.449238-1.9715615 4.355251-4.5351363 5.537885-7.4484152 1.162475-2.9492664 1.746258-6.0947614 1.719478-9.2647459.014477-3.106026-.569311-6.1857797-1.719478-9.0710394-1.196294-2.9328409-3.098613-5.5247166-5.537885-7.5452685-3.007475-2.3947576-6.491236-4.1203547-10.218684-5.0615789-5.082137-1.3082428-10.318741-1.9184063-15.565516-1.8136772h-22.156846l.001327 47.1755077zM512 140.524282c-2.419692 3.584939-5.273546 6.856799-8.496553 9.741052-3.489492 3.134797-7.374555 5.799032-11.556056 7.924721-4.464022 2.279392-9.173498 4.042107-14.037092 5.253959-5.217112 1.294845-10.574947 1.936163-15.950276 1.909203-9.588419.089723-19.098997-1.727786-27.978657-5.346831-16.934704-6.843415-30.349301-20.292507-37.149203-37.24473-3.638905-9.041673-5.45596-18.713093-5.346831-28.458943-.108989-9.7458374 1.70806-19.4172303 5.346831-28.4589431 6.799714-16.9517376 20.214497-30.4000577 37.149203-37.2420761 8.879436-3.619942 18.390107-5.4379197 27.978657-5.3481585 8.642397.0463006 17.197634 1.7309661 25.212369 4.9647256 8.548048 3.4209569 16.007001 9.0984001 21.581033 16.4265816l-12.031035 8.9768396c-1.616187-2.4077896-3.543391-4.5915081-5.731591-6.4944768-2.527237-2.2377241-5.316014-4.1613565-8.305501-5.7289378-3.194285-1.6823294-6.555493-3.0265458-10.028958-4.0107872-3.476693-1.0058982-7.07704-1.5203609-10.696317-1.5284244-8.022586-.1315839-15.976368 1.4983933-23.30051 4.7749994-6.64476 3.0147009-12.594258 7.3710108-17.47472 12.795247-4.830383 5.4398345-8.560581 11.7643654-10.984224 18.6236915-5.092078 14.3961306-5.092078 30.1033082 0 44.4994382 2.423216 6.859127 6.15347 13.183301 10.984224 18.622365 4.879068 5.426114 10.828888 9.783112 17.47472 12.796574 7.323453 3.27888 15.277648 4.909394 23.30051 4.776326 3.55515.00137 7.103159-.31835 10.600791-.955265 3.558409-.654281 7.022599-1.744694 10.314211-3.246575 3.469884-1.591526 6.687483-3.683546 9.549998-6.209224 3.215919-2.872679 6.012202-6.183021 8.306828-9.833925L512 140.524282z" fill="#244b5a"/><path fill="url(#a)" transform="translate(35.481868 35.481868)rotate(224.787)translate(-35.481868 -35.481868)" d="M10.3922252 10.3922252h50.1792861v50.1792861H10.3922252z"/><path fill="url(#b)" transform="translate(132.446207 35.06261)rotate(224.787)translate(-132.446207 -35.06261)" d="M117.729815 20.346218h29.432783v29.432783h-29.432783z"/><path fill="#244b5a" d="M36.9094556 14.0272653l-21.4072283 21.567766 21.5664392 21.4072282 18.2455657-.0676646-19.1331663-18.9792625 94.4770571-.3502639-8.280292 8.3360158 9.122783-.0331689 10.704278-10.783883-10.783883-10.7029507-9.122783.0331689 8.342649 8.2763117-94.477057.350264 18.9898766-19.1212256z"/></svg>