<svg width="256px" height="141px" viewBox="0 0 256 141" xmlns="http://www.w3.org/2000/svg" preserveAspectRatio="xMidYMid"><title>GUN</title><path d="M105.184036.357737348c.025679.025805808-.054589.412322259-.229658 1.119878582l-.080801.32277827c-.014423.05703375-.029322.11567653-.044692.17591391l-.097849.38044362c-.01724.06655789-.034943.13468145-.053106.20435623l-.114457.43654759h0l-.125285.4730828h0l-.135918.50892405h0l-.146357.54407137h0l-.156601.57852472h0l-.253681.93086913h0l-.275633 1.00448572h0l-.195626.70939867h0l-.310757 1.12197542h0l-.330953 1.18934647h0l-.350493 1.2543755h0l-.244192.8712209h0l-.381596 1.3575524h0l-.39938 1.4163359h0l-.559034 1.9758407h0l-.7392328 2.6024467h0l-.7813232 2.7397109h0l-.6533166 2.2833126h0l-.5054478 1.7622416h0l-.6932932 2.4115458h0l-.7139926 2.4771885h0l-.919223 3.1803381h0l-.7548635 2.6045866h0l-.770494 2.6521866h0l-21.321513 73.1945513h0l-1.3189706 4.515822h0l-1.0097634 3.446552h0l-.9593205 3.26498h0l-.7907148 2.683296h0l-.939394 3.176697h0l-.5719935 1.926833h0l-.6063924 2.034476h0l-.3896918 1.301424h0l-.416243 1.382647h0l-.185955.614219h0l-.2238507.735287h0l-.1952542.636075h0l-.1654951.532949h0l-.0712245.226579h0l-.0633488.199329h0l-.0553277.171591h0l-.0471614.143363h0l-.0388495.114646c-.0288711.083437-.0489328.136451-.0598065.157767-.1709221.335065-.6868784.525915-4.1348466.634316l-.4562931.013395c-.0787699.002159-.158917.004283-.2404661.006371l-.5063185.012105h0l-.5411639.01128h0l-.5772053.010485h0l-.6144426.009718h0l-.6528761.008979c-.1120819.001436-.225815.002843-.3412243.004221l-.7127687.007925h0l-.7541921.007257h0l-.7968117.006618h0l-.8406272.006008h0l-.8856387.005426h0l-1.415471.007112h0l-1.5234747.005963h0l-1.6355148.004912h0l-1.7515916.003956h0l-1.871705.003097h0l-1.995855.002335h0l-3.6132773.003593h0-4.8322626 0-2.8268735 0l-2.599978-.002095h0l-2.5413479-.004099h0l-2.4742472-.006132h0l-2.398676-.008078h0l-1.3994077-.005745h0l-1.8156512-.008667h0l-2.1827453-.012392h0l-2.0783741-.014042h0l-1.9655326-.015604h0l-1.4854878-.013549h0l-1.40351119-.014448h0l-1.3171975-.015304h0l-.92864587-.012011h0l-.8758253-.012448h0l-1.08243938-.017245h0l-.74546201-.013395h0l-.68654264-.013768h0l-.42405859-.009378h0l-.58427782-.01435h0l-.35418792-.009747h0l-.47693067-.01488h0l-.28092905-.010083c-.04431555-.001691-.08737058-.003387-.129153812-.005089l-.235347377-.010267c-.036650836-.001722-.07200728-.003448-.106058036-.005178l-.188545946-.01044c-.287828331-.017491-.442829171-.03543-.45370845234-.053702-.03032355956-.050928.45555069234-1.858679 1.29538809334-4.86328l.33121419-1.181734h0l.36249704-1.287377c.06291746-.223002.12705915-.450132.19238547-.681254l.40585661-1.433536c.0699064-.246542.14091821-.496801.21299583-.750642l.44493849-1.564932h0l.46861661-1.644325h0l.49039352-1.717157h0l.77226316-2.697941h0l.53651813-1.870526h0l.83253826-2.897235h0l.57076032-1.982883h0l.87498972-3.035009h0l.89190525-3.088143h0l.90240429-3.119131h0l.60426698-2.085699h0l.9056438-3.12156h0l.6004854-2.0668118h0l.8910596-3.062469h0l.5848215-2.0069107h0l.5752288-1.9714665h0l.840698-2.8763873h0l.5429294-1.8541467h0l.5266826-1.7957349h0l.5085346-1.730761h0l.4884854-1.6592249h0l.466535-1.5811266h0l.4426834-1.4964662h0l.4169306-1.4052436h0l.3892767-1.3074588c.0624693-.2093965.1237072-.4144452.183674-.6150094l.344231-1.1484776c.8208611-2.7311903 1.3379073-4.3918473 1.4174614-4.5205683.0958835-.1551424 2.2268701-.2669881 5.2533014-.3354555l.6618114-.0140076c.1124478-.002224.2259339-.0043926.3404063-.0065058l.6982564-.0120155c.1182104-.0018918.2373034-.0037284.3572271-.0055096l.7290944-.0100228c.1230386-.0015598.246804-.0030642.3712443-.0045132l.7543255-.0080298c.2538645-.0024552.5100134-.0046889.7680312-.006701l.7792451-.0053719h0l.7879669-.0040427c.2638324-.001126.5287031-.0020304.7941968-.0027133l.7979347-.0013836c.2663243-2.396e-4.5328563-2.576e-4.7991806-5.39e-5l.7979346.001276h0l.7941967.0026062c.2638323.0010904.5266263.0024026.7879667.0039365l.7792448.0052669c.2580177.0019775.5141665.0041766.7680309.0065977l.7543251.0079284h0l.7381273.0092595c.2430659.0033083.4830169.0068386.7194376.0105907l.6982558.011922c3.5486438.0650369 6.1493535.1833912 6.255502.3551734.0155064.0250906-.0067631.178236-.0637224.4482443l-.0344905.1587996h0l-.0412599.1815754h0l-.0479179.2039476h0l-.0544647.2259162h0l-.0609002.2474811h0l-.0672243.2686424h0l-.0734373.2894002h0l-.0795388.3097542h0l-.0855291.3297047h0l-.1885841.7176464h0l-.1028324.3871345h0l-.1646109.6149556h0l-.23824.8817624h0l-.1922622.7059222h0l-.2737452.998107h0l-.2178686.7894724h0l-.3065236 1.104563h0l-.3240301 1.1609551h0l-.3406461 1.2141185h0l-.4478176 1.5874899h0l-.374777 1.3219301h0l-.3884994 1.3645994h0l-.5035653 1.7608339h0l-.5218766 1.8161529h0l-.321192 1.1136214h0l-.5475578 1.891546h0l-.4480586 1.5415635h0l-.5635052 1.9364974h0l-.5508148 1.9010594h0l-.4299959 1.4901435h0l-.4195532 1.459332h0l-.4082145 1.425273h0l-.2981809 1.044649h0l-.4806482 1.690725h0l-.3688226 1.303605h0l-.3538999 1.256553h0l-.255093.909582h0l-.3256294 1.166396h0l-.2328611.838234h0l-.3653419 1.323354h0l-.3353754 1.225727h0l-.1253675.461534h0l-.1782913.660222h0l-.1121909.41817h0l-.1580014.593271h0l-.0983143.372267h0l-.0925677.353196h0l-.0867091.333718h0l-.0807384.313835h0l-.0746557.293545h0l-.0684612.272849c-.0108877.043728-.0215127.086576-.0318725.128537l-.0589592.241045h0l-.0524846.219334h0l-.0458979.197217h0l-.0391993.174695c-.0716253.326596-.1023868.51562-.0882526.552455.1197112.311958 1.5546664.499773 3.2718107.562958l.2595589.008543c.5228342.015217 1.0664166.019214 1.6028549.011979l.2674946-.004553c1.9553675-.040258 3.7521854-.231554 4.0154575-.574538.1320102-.171974.8909234-2.575117 2.0184501-6.313719l.3490582-1.160749c.0599333-.199837.1207236-.402788.1823385-.608743l.3793276-1.270863h0l.3975701-1.337555h0l.4142628-1.398873h0l.4294058-1.454817h0l.442999-1.505385h0l.4550425-1.550581h0l.4655364-1.590401h0l.4744803-1.6248474h0l.4818747-1.6539196h0l.4877193-1.6776176h0l.492014-1.6959412h0l.4947592-1.7088905h0l.4959545-1.7164657h0l.4956001-1.7186666h0l.493696-1.7154932h0l.4902422-1.7069455h0l.4852386-1.6930236h0l.4786852-1.6737275h0l.4705821-1.6490571h0l.4609294-1.6190124h0l.4497268-1.5835935h0l.4369745-1.5428003c.0716803-.2534354.1427647-.5049472.2132208-.7544233l.4149404-1.4715339h0l.3983137-1.417305c.0649139-.2313999.1290706-.4603163.1924375-.6866372l.370468-1.3258851c1.5019826-5.3872857 2.4700856-9.0124764 2.3998374-9.1261401-.0198138-.0320753-.187077-.0630016-.4882138-.0924813l-.1372154-.0125448c-.0242221-.0020757-.0491173-.0041439-.0746807-.0062043l-.1613592-.0122693c-.0282163-.0020291-.057091-.0040504-.086619-.0060636l-.1849686-.0119821h0l-.2004114-.0117841h0l-.2156167-.011581h0l-.2305845-.0113726h0l-.2453149-.0111589h0l-.3950722-.0163267h0l-.2811018-.0106022h0l-.295001-.0103704h0l-.3086628-.0101334h0l-.4880903-.0147444h0l-.6963866-.0187809h0l-.5554507-.0134043h0l-.5829836-.0128007h0l-.8187552-.0160982h0l-.6441103-.011324h0l-.8973483-.0140656h0l-1.1809444-.015863h0l-.4900521-.0057937h0l-1.2672378-.0130601h0l-1.0551418-.0089402h0l-1.0898408-.0075546h0l-1.408202-.0074316h0l-1.160967-.004285h0l-1.1894915-.0027641h0l-1.2161162-.0012016h0l-1.2026336-4.761e-4h0l-1.4625383-.0025564h0l-1.4291494-.0047867h0l-1.1160469-.0053732h0l-1.3569269-.0085683h0l-.7919721-.0060932h0l-1.0279261-.0091937h0l-.9936266-.0103726h0l-.7212292-.0085246h0l-1.1532733-.0155676h0l-.6610054-.0101241h0l-1.046743-.0181152h0l-.3985727-.0076634h0l-.5753351-.0119238h0l-.5473826-.0124204h0l-.5183911-.012897h0l-.6442943-.0179029h0l-.3013571-.0092411h0l-.4251821-.0142071h0l-.3920343-.0146037h0l-.2424277-.0099464h0l-.3344789-.0152207h0l-.2030953-.0103391h0l-.1868235-.0104858h0l-.170244-.0106267c-.0269752-.0017825-.0532468-.0035706-.0788084-.0053643l-.1447973-.0108267h0l-.127448-.0109528c-.2373415-.0220276-.36874-.0447758-.3831122-.0680314-.0119775-.0193756.0155291-.1718531.0795418-.4469293l.0427646-.1796736h0l.0513831-.2085932h0l.0598587-.2370085h0l.0681914-.2649199h0l.0763812-.2923269h0l.0844279-.3192299h0l.0923318-.3456287h0l.1530049-.566838h0l.1699845-.6233996h0l.2522251-.916243h0l.2804101-1.0097388h0l.1504171-.5386698h0l.3205436-1.1424201h0l.34587-1.2258327h0l.3700528-1.3052123h0l.2927216-1.0285757h0l.4096212-1.4344216h0l.5414776-1.8885846h0l.6900198-2.3960547h0l.605935-2.0955972h0l.6316605-2.1770901h0l.6551526-2.2507056h0l.6764113-2.316444h0l.5549345-1.8951931h0l.7090489-2.4149219h0L40.6907484.249940718l34.0011459-.11987689h0l2.642272-.006550173h0l1.8489115-.003181366h0l1.8131271-.002662165h0 1.4225054 0 1.7056093 0l2.9035937.003166692h0l2.4166608.005375862h0l1.9701595.00658952h0l1.5648581.006850713h0l1.779224.009809282h0l1.3955931.009464435h0l1.0564474.008395283h0l1.4795919.013931394h0l1.3470529.015493501h0l.62156.008317053h0l.39451.005751717h0l.9148.015090464h0l.336625.006315835h0l.621553.013100972h0l.419872.010229141h0l.379187.010568038h0l.337595.01090074h0l.201509.007448935h0l.182353.007592213h0l.162928.007733655c.025521.001300628.050221.002607072.074095.003919295l.133287.007942378h0l.113191.00807923c.15458.012220568.240429.02489682.25347.038000876zM126.827991 92.5620719l-.010058.0453007c-1.856384 8.1337604-6.922681 15.6581344-16.597264 16.0142634l-.294581.008591H81.0148212l2.6101603-8.8030503h28.0758495c-9.98e-4 3.99e-4 3.59e-4.0037506.008312.0041496 8.686143.0245689 13.475669-.7609011 15.111987-7.2409507l.006861-.0283037zM105.276326 66.701142h.250341 0l.346611.0012197h0l.449398.0035618h0l.462668.00532h0l1.993089.0280717h0l.672888.0073128h0l.556607.0040852h0l.428447.0016803h0l.29098 3.348e-4h0l.444642-8.443e-4h0l.301965-.001559h0l.461407-.0040011h0l.313331-.0038743h0l.317983-.0049185c.053388-9.105e-4.106973-.0018673.160755-.0028719 10.476111.2333729 11.085777 1.9163897 10.906113 12.8394981l-.012175.6947961h0l-.013737.7192815h-.056738l-.00488-.2562097h0l-.008379-.4950689h0l-.020225-1.3511197h0l-.007375-.4074247c-.094521-4.6982716-.494095-5.0695442-6.279476-5.0221053l-.50184.0049183h0l-1.968204.0253452h0l-.62566.0074026c-.106706.0011742-.214638.0023114-.323808.0034006l-.669998.005872c-.342546.0025608-.696495.0044933-1.062232.0055026l-.369681 6.906e-4h-5.540356c-6.7902554 4.9935646-9.1484293 15.6309809-2.635098 20.8937518l-.079587-.0360694h0l-.165098-.073383c-.028161-.0123748-.056638-.0248238-.085425-.03735l-.176383-.0761082h0l-.277752-.1179556h0l-.703463-.2954819h0l-.213657-.0902866h0l-.329729-.1408623h0l-.225473-.0977421h0l-.229587-.1009794c-2.8941113-1.2830815-6.6707553-3.3590211-8.2578981-7.5082414-1.508553-4.8498415-.5767543-11.7599661 3.4081712-15.9311221 2.3286908-2.4375187 4.4652789-3.0495426 7.6591069-3.1706277l.227219-.0077491c.076336-.0023229.153273-.0043913.230829-.0062227l.234536-.0048005h0l.23834-.0034826c.040046-4.764e-4.080255-9.023e-4.120628-.0012797l.367859-.002304h0zm21.86102 24.3271276c-.075217.4751594-.163325.9250858-.264524 1.3510909l-.044831.1827114.048676-.2171125c.096044-.43768.182864-.8769157.260679-1.3166898zM247.789797.357525875c.017301.01843272-.005023.170074817-.064023.444422203l-.039778.179249032c-.014711.06460187-.030865.13402791-.048439.20819411l-.056958.23663498h0l-.065337.26457166h0l-.073573.29200415h0l-.081668.31893243h0l-.089622.34535652h0l-.097434.37127642h0l-.105105.39669212h0l-.171731.64158968h0l-.188193.6959389h0l-.20418.74858646h0l-.219688.79953234h0l-.316216 1.14235115h0l-.341807 1.22586288h0l-.366264 1.30534103h0l-.389591 1.38078566h0l-.306821 1.0826732h0l-.318827 1.1211403h0l-.330357 1.1579057h0l-.457586 1.5981237h0l-.476102 1.6564256h0l-.368547 1.2781534h0l-.634679 2.1934692h0l-.658307 2.2656586h0l-.54217 1.8592092h0l-.554746 1.8963349h0l-.566188 1.9294269h0l-.287032.9758625h0l-8.735532 29.676567-13.446765.1193347h0l-.864244.0064219h0l-.639548.0036705h0l-1.047177.0039801h0l-1.020659.0013698h0l-.598179-4.014e-4h0l-.970795-.0026587h0l-.751023-.0038769h0l-.726273-.0053928h0l-.353283-.0032536h0l-.685718-.0075987h0l-.656393-.0090238h0l-.471949-.0076813h0l-.600671-.0114303h0l-.428055-.0094444h0l-.274253-.0067028h0l-.265091-.0070227h0l-.255702-.0073381h0l-.482317-.0156042h0l-.335388-.0124972h0l-.210615-.0087011h0l-.295886-.0135946h0l-.183566-.0094186h0l-.172345-.0096975h0l-.160897-.0099721h0l-.149219-.010242h0l-.137312-.0105073c-.021881-.0017731-.043256-.0035571-.06412-.0053518l-.119024-.010897h0l-.106546-.011151c-.217166-.0244324-.344852-.0506216-.372589-.0783596-.035521-.0355155-.011099-.2684485.067514-.6772667l.032009-.1615094h0l.037021-.1777463h0l.041968-.1937308h0l.046845-.2094631h0l.051656-.224943c.009007-.0387665.018211-.0781674.027611-.1181976l.058746-.2476898h0l.063388-.2625388h0l.067963-.2771356h0l.07247-.29148h0l.117009-.4635637h0l.083443-.3262371h0l.133153-.5145167h0l.093996-.3594171h0l.148665-.5631038h0l.104126-.39102h0l.108061-.4032197h0l.227654-.8420287h0l.11946-.4383045h0l.186038-.6783596h0l.194057-.702686h0l.270822-.9732841h0l.21188-.756136h0l.293761-1.0414596h0l.306127-1.0776414h0l.317955-1.1118046h0l.245903-.8550587h0l.252025-.8722883h0l.257919-.8886664h0l.263587-.9041928h0l.35987-1.2282706h0l.699936-2.3838864h0l.588967-2.0158423h0l.486347-1.6720687h0l.617531-2.1337484h0l.436806-1.5174401h0l.477498-1.6679278h0l.31788-1.1167035h0l.353725-1.2500442h0l.270017-.9608822h0l.15058-.539039h0l.141638-.5096115h0l.215367-.7810472h0l.116309-.4258988h0l.139389-.515791h0l.120798-.4539494h0l.077967-.2983504h0l.086537-.3396139h0l.051446-.2096813h0l.027722-.1177498h0l.022356-.0997491c.022917-.10575.034696-.1741003.034696-.2027818 0-.0462904-.002742-.0896817-.009361-.1303146l-.006649-.0341561c-.047183-.2065039-.211703-.3370705-.660903-.412512l-.075365-.0117538h0l-.080514-.0108072c-.013857-.0017234-.027935-.0034082-.042238-.0050548l-.088535-.0094241c-.030427-.0029907-.061779-.0058319-.094081-.0085268l-.099786-.0076491c-.017115-.0012028-.034474-.0023698-.052081-.0035016l-.10864-.0063696h0l-.11474-.0055413h0l-.120999-.0047326h0l-.193583-.005626h0l-.137341-.0027974h0l-.144156-.0020577h0l-.151129-.001338h0l-.240114-7.002e-4h0l-.256696 8.085e-4h0l-.273811.0022507h0l-.291464.0036264h0l-.526451.0089201h0l-.459199.0095472h0l-.755169.0179695h0l-4.983006.1254526-5.900083 19.8463174h0l-.71234 2.3850443h0l-.687763 2.2918133h0l-.414556 1.3758872h0l-.634309 2.0963824h0l-.521428 1.7142072h0l-.485628 1.5876323h0l-.384538 1.2496249h0l-.352442 1.1378037h0l-.367048 1.1745155h0l-.186858.592196h0l-.169226.5315554h0l-.150802.4683399h0l-.100533.3082211h0l-.089389.2701279h0l-.053237.1583861h0l-.070073.2042257h0l-.04005.1134454h0l-.034601.0949061c-.037153.0997839-.06298.1610593-.076773.1815265-.137693.2042782-3.213889.3614945-7.228488.4566463l-.717792.0161441c-.12112.0025823-.24295.0051102-.365439.0075832l-.742437.014177h0l-.755812.0128427c-.126948.0020282-.254351.0040001-.382159.0059152l-.771296.0108068c-.258446.0033733-.518103.0065165-.778565.0094266l-.783392.0080282h0l-.785777.0066114c-.262051.0019657-.524092.0036921-.785717.0051763l-.783217.0037229c-.390575.001495-.779297.0028281-1.164791.0028281h-.766277c-.761159-7.466e-4-1.505742-.0037695-2.222758-.0091512l-.70742-.0061711c-.116236-.0011606-.231604-.0023874-.346054-.0036809l-.675273-.0085642c-3.317185-.0468515-5.71619-.1543903-5.82304-.3329225-.007655-.0130026.004037-.0910664.03405-.2308017l.03019-.1347924c.005771-.0249545.01191-.0511467.018415-.078566l.043381-.1791567c.007953-.0322856.016264-.0657774.024931-.1004647l.056252-.2223867h0l.100084-.3862786h0l.076985-.2919162h0l.085028-.3188456h0l.142307-.5276584h0l.159597-.585414h0l.176403-.6414679h0l.192725-.6958205h0l.208564-.7484715h0l.301886-1.0769228h0l.413998-1.467383h0l.45262-1.5947304h0l.388397-1.3621808h0l.410536-1.4346085h0l.542554-1.8889678h0l.573114-1.9879568h0l.601433-2.0790685h0l.627515-2.1623031h0l.388096-1.3340574h0l.800005-2.7426946h0l.828533-2.830791h0l.709443-2.416468h0l8.87336-30.165374455 33.635411-.118860502h0l2.075424-.00557999h0l1.532506-.003195761h0l2.502902-.003479251h0l2.431447-.001220895h0l2.351494 9.79289e-4h0l2.263043.0031213h0l2.166094.005205138h0l1.657363.005625381h0l1.585526.006892022h0l1.509339.008128877h0l1.428802.00933595h0l1.016132.007776186h0l1.277392.011376656h0l1.18489.01250182h0l.825347.010096836h0l.76903.010700423h0l.480495.007462735h0l.454106.007721687h0l.427174.007976917h0l.589073.012435787h0l.357463.008598703h0l.328627.008840901h0l.299248.009079377h0l.269325.00931413h0l.238857.009545159c.07448.003219811.143793.006477506.207845.009772466l.176291.009996049c.240498.015159899.372662.031061828.388233.04764924zm-70.76579.003148153c.010934.01827099-.017614.169754336-.082658.443946971l-.043382.179156671c-.007952.03228562-.016264.06577733-.024931.10046463l-.056252.22238673h0l-.064653.2505766h0l-.07291.27826232h0l-.081024.30544388h0l-.088996.33212129h0l-.096823.35829458h0l-.159597.58541391h0l-.176403.64146796h0l-.192725.69582048h0l-.208564.74847153h0l-.301886 1.07692279h0l-.243639.86470702h0l-.346897 1.22572764h0l-.371042 1.30521337h0l-.293436 1.0286463h0l-.623746 2.1778128h0l-.555046 1.9295087h0l-.584709 2.0253469h0l-.612134 2.1133077h0l-.507948 1.7486844h0l-.789636 2.7103044h0l-.819453 2.802938h0l-.702863 2.3967232h0l-.429436 1.4610975h0l-8.729613 29.676567-33.222666.1171762h0l-2.090526.0059583h0l-2.561267.0053252h0l-1.505824.0020854h0l-2.933475.0017324h0l-1.891855-6.111e-4h0l-2.285401-.0026981h0l-2.189231-.0047931h0l-1.676433-.005304h0l-1.210749-.0048155h0l-1.923759-.0095842h0l-1.449374-.0090362h0l-1.364988-.0102209h0l-1.58094-.0143967h0l-.591651-.0062509h0l-.842143-.0098921h0l-.786112-.0104998h0l-.7282456-.0110951h0l-.4524429-.0077212h0l-.4253652-.0079764h0l-.3977437-.008228h0l-.5436359-.0128054h0l-.3263111-.0088405h0l-.2967867-.0090789h0l-.2667183-.0093138h0l-.2361063-.0095448c-.4780078-.0209281-.736627-.0434571-.75097-.0674167-.0099297-.016587.012122-.1410737.0639789-.3658026l.038963-.1645859c.0072218-.0298781.0148056-.0609727.0227484-.0932734l.0519412-.2081926h0l.0604141-.2366335h0l.0687438-.2645702h0l.0769302-.2920027h0l.0849733-.318931h0l.1422274-.5277842h0l.1595184-.5855367h0l.1763259-.6415877h0l.1926498-.695937h0l.2814233-1.0095181h0l.3084375-1.0990803h0l.4217893-1.4936523h0l.3650285-1.2858475h0l.590851-2.0708603h0l.3138665-1.0956833h0l.5487591-1.9095205h0l.4608013-1.5981221h0l.6013638-2.0791673h0l.373484-1.2879496h0l.511754-1.7609276h0l.660219-2.2656575h0l.819412-2.802987h0l.845376-2.8819824h0l9.01637-30.652429382 13.446756-.119334689h0l.864244-.006421946h0l1.06137-.005580267h0l1.036998-.002927466h0l.609012-5.12673e-4h0l.598179 4.01436e-4h0l.970794.002658756h0l.751023.003876833h0l.726273.00539285h0l.353284.00325357h0l.516966.005564007h0l.500728.006370755h0l.641044.009722772h0l.459838.008193522h0l.441026.008949146h0l.421442.009689431h0l.401088.010414381h0l.379959.011123993h0l.35806.011818267h0l.335388.012497204h0l.210616.008701083h0l.295886.013594683h0l.183566.009418534h0l.172346.009697562h0l.160897.009972046h0l.149219.010241985h0l.137313.01050738c.02188.001773093.043255.003557056.06412.005351792l.119024.010896952h0l.106546.011150984c.217166.024432389.344852.050621599.372589.07835963.035517.035515525.011091.268448522-.067524.677266699l-.03201.16150937c-.005755.02827832-.011718.05723317-.017889.0868593l-.039504.18577011h0l-.044416.20162852h0l-.04926.21723459c-.00861.03749225-.017419.07562424-.026426.11439072l-.0564.24017058h0l-.061076.25514582c-.010565.04375822-.021322.0881299-.03227.13310978l-.067964.27713557h0l-.07247.29147999h0l-.11701.46356379h0l-.083444.32623708h0l-.087715.33969834h0l-.139435.53423539h0l-.148665.56310384h0l-.212187.79423969h0l-.227655.84202876h0l-.242583.88779917h0l-.19141.69467187h0l-.199275.71843061h0l-.277544.99339358h0l-.290584 1.0320987h0l-.303086 1.0687853h0l-.235193.82445h0l-.241695.8430991h0l-.331979 1.1516698h0l-.342593 1.181291h0l-.263585.9041928h0l-.359869 1.2282707h0l-.614109 2.0909271h0l-.425016 1.4527387h0l-.656357 2.253427h0l-.31573 1.0885671h0l-.602969 2.0881399h0l-.49271 1.7165873h0l-.518062 1.81723h0l-.296964 1.0488525h0l-.326777 1.1620739h0l-.292217 1.0486505h0l-.255235.9266537h0l-.148415.5457593h0l-.099385.3697083h0l-.088828.3345652h0l-.077967.2983503h0l-.066802.2610638h0l-.038184.1527985h0l-.047523.1965381h0l-.02505.1087891h0l-.01964.0906296c-.016904.0814441-.025558.1351727-.025558.1597568l6.98e-4.0389708c.009485.2551157.119104.4168786.540295.5115852l.065541.0137064h0l.070374.0127202h0l.075365.0117538h0l.080514.0108072c.013857.0017234.027935.0034081.042238.0050547l.088535.0094241c.030427.0029907.061779.0058319.094081.0085268l.099786.007649c.017115.0012029.034474.0023699.052081.0035016l.108639.0063696h0l.11474.0055413h0l.121.0047326h0l.127417.0039437h0l.203507.0044795h0l.144155.0020578h0l.151129.0013379h0l.158261 6.377e-4h0l.251109-3.131e-4h0l.268047-.0017774h0l.384669-.0045328h0l.309651-.0049356h0l.442083-.008502h0l.354167-.0077312h0l.634923-.0152686h0l4.983006-.1252385 5.809615-19.5426574h0l.802794-2.6887042h0l.687763-2.2918134h0l.656849-2.1779848h0l.5444-1.79616954h0l.511633-1.67945098h0l.343037-1.1205039h0l.322606-1.04888479h0l.357978-1.15704414h0l.272208-.87362177h0l.246825-.78591088h0l.178143-.56219758h0l.12182-.38114872h0l.146073-.45213392h0l.065806-.20131523h0l.089391-.27012802h0l.077913-.23094874h0l.045401-.131663158h0l.040052-.113445551h0l.034603-.094906108c.010616-.028509703.020307-.053875859.029057-.07604483l.023411-.056861715c.010277-.02358144.0184-.039848524.024313-.048620218.129593-.192261447 2.862149-.34283491 6.530174-.439212653l.69831-.017432667c.118076-.002798576.236964-.0055434627.356613-.0082342788l.726618-.0154929953c.244978-.0049460135.492592-.0096726909.742436-.0141769784l.755812-.0128426397c.253895-.0040564543.509612-.0078874651.766745-.0114899789l.775235-.0101189965c.129778-.0015712329.259808-.0030845782.390039-.0045396541l.783392-.0080281691h0l.785775-.0066113819c.262052-.00196562695.524093-.00369206907.785718-.00517627269l.783216-.00372284172c.260383-9.9667297e-4.519943-.0017480538.778272-.002251088829L166.867557 0h0l.761057 7.47382589e-4c.503552.001005125471.998923.003028063301 1.482856.006093242651l.716914.00538250386c.11792.001028382.235023.0021226676.351259.0032832383l.686599.0077619008c3.489431.0442443917 6.047354.1529225118 6.157765.3374057598zM255.959898 24.9974756c.432921 2.3076757-2.748495 13.4492472-4.284812 15.005778-1.465573 1.4848166-3.682904 1.6272915-5.351707.3520857l-.050587-.0390766c-1.654582-1.3015013-1.855532-2.7353995-.609185-7.7306992l.087221-.3461476c.029821-.1172489.06039-.2363777.091706-.3574265l.09619-.368947h0l.100675-.3807089h0l.105158-.3927124h0l.148156-.5462856h0l.113349-.4131956h0l.146208-.5262611h0l.106149-.3766715h0l.103301-.3616298h0l.100597-.3469548h0l.065634-.2233317h0l.064537-.2170813h0l.094843-.3141401h0l.061983-.2019307h0l.091211-.2919239h0l.059694-.1874596h0l.087976-.2707268h0l.057669-.1736678h0l.056934-.1683414h0l.056241-.1631236h0l.055589-.1580146c.009214-.025916.018401-.0516237.027565-.0771253l.054693-.1505547h0l.054148-.1457175h0l.053647-.1409887c.008901-.0231102.017783-.0460278.026647-.0687552l.052973-.1340996h0l.052575-.1296428h0l.052222-.1252946c.008677-.0205261.01734-.0408756.025992-.0610507l.05177-.1189762h0l.051522-.1148997h0l.051317-.110932c.025614-.0544922.051167-.1075372.076682-.1591963l.050989-.1014882h0l.050931-.097901h0l.050916-.0944224h0l.050944-.0910525c.01699-.0298013.033993-.059059.051014-.0877913l.051126-.0846389h0l.051281-.0815951c.094183-.1468673.18936-.2789369.286707-.3992231l.05332-.0644601c.008925-.0105546.01787-.0210164.026835-.0313876l.054046-.061158h0l.054582-.0590927h0l.05516-.0571358h0c2.26796-2.2977418 6.233728-1.1083173 6.825666 2.0471744zM67.5271706 21.733401l-.4325051-.0010418h0-.4196073 0l-.2742537.0011767h0l-.352469.0029315h0l-.3374883.0046242h0l-.1631631.0029509h0l-.315238.0071875h0l-.2267841.0065221h0l-.2896141.0102152h0l-.2077015.0088077h0l-.1996059.0097964h0l-.1915601.0107905h0l-.1232613.0077487h0l-.1782608.0124597h0l-.1703474.0134685h0l-.1624837.0144827h0l-.1039783.0102213h0l-.1005201.0106762h0l-.0970766.0111326h0l-.0936479.0115908h0l-.1340751.0182485h0l-.0851404.0127431c-.0139083.0021625-.0276758.0043442-.0413029.0065454l-.118861.0203337h0l-.0750529.0141393h0l-.0717198.0146079h0l-.0684014.0150782h0l-.0650978.0155501h0l-.0618089.0160237h0l-.0585346.0164988h0l-.0552752.0169755c-.0178835.0057382-.0352261.011556-.0520304.0174539l-.0488004.017934h0l-.045585.0184156c-.0073304.0031095-.0145274.0062391-.0215913.0093889l-.0407896.0191412c-.006533.0032306-.0129336.0064814-.019202.0097526l-.0360273.0198702c-.0631522.0368759-.1103905.0762127-.1421231.1180557-.0696394.091828-.2091725.4425115-.3976644.9806279l-.0837186.2418886h0l-.0893473.2635902h0l-.0946099.2840424h0l-.0995061.3032452h0l-.1040363.3211987h0l-.1082001.3379028h0l-.1119977.3533575h0l-.1743161.5562809h0l-.1198897.3865283h0l-.1224056.3976101h0l-.1875247.6144609h0l-.1911254.6323674h0l-.1934904.6460573h0l-.1946192.6555306h0l-.1297629.440201h0l-.2579183.8824134h0l-.1905901.6586505h0l-.1250169.4352532h0l-.1835452.6439858h0l-.1776702.6295648h0l-.1145726.4096159h0l-.165132.5961594h0l-.1050694.3834413h0l-.1006272.3707851h0l-.0958189.3568795h0l-.0906443.3417245c-.0146558.0556218-.0290808.11056-.0432673.1647887l-.0821958.3166495c-.0132019.0512865-.0261501.1018113-.038837.1515485l-.0729232.2887633h0l-.0662839.2686109c-.1571052.6452955-.2485325 1.0899486-.2485325 1.2461128l7.891e-4.0359831c.0010658.0235901.0032384.0463872.0066813.068417l.0061378.0324724c.0404115.1807847.178524.3070497.5148613.3944965l.0614318.0150321h0l.06567.0142453c.0226099.0046194.0459468.009111.0700308.0134777l.0745146.0127294h0l.079121.0120002c.0135776.0019403.0273521.003851.0413263.0057326l.0862609.0109423h0l.0911743.010261c.0156119.0016544.0314338.0032813.047468.004881l.0987745.0092751h0l.1039947.0086417h0l.1093378.0080276h0l.1148036.0074326h0l.1827224.0100753h0l.1290052.006029h0l.1349007.0055012h0l.140919.0049925h0l.1470599.004503h0l.2323729.0058786h0l.2468808.004885h0l.3524581.0050797h0l.3799686.0035819h0l.5151434.0026048h0l.6568841 7.515e-4h0l.2767082-7.845e-4h0l.3558219-.0025181h0l.2570857-.0029995h0l.2487545-.0039574h0l.2404706-.0049206h0l.3078227-.008068h0l.2213246-.0071881h0l.2131977-.0081685h0l.2051179-.0091542h0l.1970853-.010145h0l.1890997-.0111411h0l.1216535-.0079833h0l.2327782-.0173076h0l.165426-.0141603h0l.1059495-.0100048h0l.1524573-.0158578h0l.0973473-.0111412h0l.0939308-.0115986h0l.0905284-.0120574h0l.0871398-.0125177c.0142417-.0021247.0283428-.0042687.0423036-.006432l.0820832-.0132112h0l.1168412-.0206876h0l.0737254-.0143746h0l.0704067-.0148427h0l.067102-.0153122h0l.0638112-.0157834c.0103617-.0026699.0205869-.0053595.0306759-.0080689l.0589012-.0164929h0l.0556454-.016968c.0180073-.0057353.0354744-.0115501.0524035-.0174445l.0491755-.0179225h0l.0459616-.0184022c.0147864-.0062141.0290395-.0125085.0427616-.0188833l.0395755-.0193659c.0823056-.0424836.1422745-.0883768.1805459-.1377501.0847405-.1093231.2722096-.6005986.5250306-1.346018l.0918837-.2734338c.0157459-.0472617.0317027-.0953508.0478629-.1442412l.0993396-.3027506h0l.1038539-.3207342c.0176649-.054885.0355027-.1104673.0535057-.1667208l.1099405-.3453684h0l.1135419-.3602304h0l.1167779-.3738437h0l.1196489-.3862082h0l.1221547-.3973241h0l.1242953-.4071912h0l.1896577-.6265564h0l.256961-.8582893h0l.1941859-.6554145h0l.1940726-.6607584h0l.12871-.4413933h0l.1911447-.6602998h0l.1877448-.6544054h0l.1226657-.4309146h0l.1202417-.4251731h0l.1750186-.6242631h0l.112584-.4053566h0l.1088819-.3952448h0l.1048145-.3838844h0l.1003822-.3712751h0l.0955845-.3574172h0l.0904217-.3423107c.0146197-.0557235.0290091-.1107656.0431606-.1651002l.0819928-.3173095h0l.0759171-.2990813h0l.0694762-.2796043c.1763573-.7185321.2801166-1.2159906.2801166-1.3858208l-1.939e-4-.0178084h0l-.0015951-.0347487c-.0129574-.1822638-.098784-.3157866-.3377687-.4130377l-.0466241-.0178125c-.0323053-.0115957-.0670822-.0226369-.1044874-.0331479l-.0580987-.0153718c-.0300545-.0074901-.0616316-.0146888-.0947974-.0216064l-.0684694-.0134634c-.0117711-.0021824-.0237237-.0043344-.0358601-.0064563l-.0750447-.0123732h0l-.0795751-.0116691h0l-.0842234-.0109835h0l-.088989-.010316c-.0152352-.0016647-.0306739-.0033024-.0463185-.0049134l-.0963582-.009349h0l-.1540611-.0128634h0l-.1658426-.011526h0l-.117303-.0069714h0l-.1863604-.009434h0l-.1992003-.008261h0l-.2862597-.0092965h0l-.3107327-.0074668h0l-.3361467-.0057834h0l-.1778977-.002306h0l-.3760318-.003532h0l-.403798-.0022138h0z"/></svg>