<svg width="512px" height="195px" viewBox="0 0 512 195" xmlns="http://www.w3.org/2000/svg" preserveAspectRatio="xMidYMid"><title>Gusto</title><path d="M454.641159 28.4642319c-31.632695 0-57.373681 25.8522898-57.373681 57.6333913 0 31.7811018 25.740986 57.6333908 57.373681 57.6333908C486.266435 143.731014 512 117.878725 512 86.0976232c0-31.7811015-25.733565-57.6333913-57.358841-57.6333913h0zm0 87.9526961c-16.636289 0-30.185739-13.616232-30.185739-30.3193048 0-16.7104928 13.54945-30.3193044 30.185739-30.3193044 16.62145 0 30.178319 13.6088116 30.178319 30.3193044 0 16.7104928-13.549449 30.3193048-30.185739 30.3193048h.00742zM285.696 74.4255072l-10.032232-5.0309565c-4.35571-2.1667246-7.086377-3.8437101-8.18458-5.0828985-1.046868-1.0980403-1.642791-2.5494443-1.669565-4.0663189 0-1.9441159.875594-3.584 2.597102-4.8602898 1.706666-1.3356522 4.133101-1.944116 7.212521-1.944116 5.632 0 11.872464 3.3984928 18.743653 10.2474203L311.296 46.6736232c-4.160658-5.665835-9.601748-10.2678783-15.87942-13.4307246-6.195301-3.1170931-13.040233-4.7240757-19.975421-4.6901657-10.336463 0-18.869797 3.0502816-25.518376 9.1942816-6.64116 6.144-9.98029 13.5271884-9.98029 22.1866667 0 13.4307246 8.793043 24.6205217 26.438493 33.5026087l9.23826 4.6376811c7.961971 4.029217 11.924406 8.132638 11.924406 12.377043 0 2.30029-1.105623 4.288928-3.302029 6.054957-2.196406 1.773449-5.105159 2.611942-8.71142 2.611942-3.339131 0-7.168-1.150145-11.479189-3.487536-4.295745-2.299793-8.117617-5.391531-11.264-9.112116l-16.844057 18.432c9.497971 12.466087 22.164405 18.743652 38.088347 18.743652 11.968928 0 21.518841-3.272348 28.597797-9.772522 7.123479-6.492753 10.685218-14.625391 10.685218-24.353391 0-7.294145-1.973797-13.6978551-5.89171-19.1369275C303.467594 84.992 296.210551 79.693913 285.696 74.4329275v-.0074203zM115.355826 131.175884V30.7571014H88.1233623v6.7227827c-9.1759613-5.8979-19.8565733-9.0278912-30.7645217-9.015688C25.7335652 28.4641961 0 54.3165217 0 86.0976232c0 31.7811018 25.7335652 57.6333908 57.3662609 57.6333908 10.7770873.016148 21.3364474-3.033533 30.4454492-8.793043 0 .883015-.0445217 1.676986-.0445217 2.211246 0 16.703073-13.5494493 30.319305-30.1783188 30.319305-5.6541446-.013025-11.1895675-1.623236-15.9684638-4.645102l-13.4678261 23.692986c8.8807024 5.417129 19.0783213 8.291866 29.4808116 8.310724 31.6326957 0 57.7224347-25.85971 57.7224347-57.640811 0-1.231768.081623-4.86029 0-6.010435zm-57.9895651-14.766377c-16.6214493 0-30.1783189-13.608811-30.1783189-30.3118838 0-16.7104928 13.5494493-30.3193044 30.1783189-30.3193044 16.6288695 0 30.1783188 13.6088116 30.1783188 30.3193044 0 16.7030728-13.5494493 30.3193048-30.1783188 30.3193048v-.007421zM223.833043 30.72h-27.366029v54.7914203c.044522 7.783884.044522 21.2220287-5.669101 26.9653337-2.730667 2.738087-5.721043 5.216463-12.013449 5.216463-6.336928 0-9.327305-2.478376-12.050551-5.216463-5.721043-5.750725-5.676522-19.2259714-5.63942-26.9653337V30.72h-27.358609v54.6281739c-.089043 11.264-.222609 32.1743771 13.504928 46.0503191 8.051014 8.132637 17.645449 12.288 31.49913 12.288 13.861101 0 23.448116-4.110841 31.49913-12.288 13.727537-13.875942 13.593971-34.8308408 13.504928-46.0503191l.089043-54.6355942V30.72zm155.076638 80.792116c-2.196406 1.676985-7.524174 5.394551-13.549449 4.556058-4.927073-.667826-8.926609-4.288928-9.542493-16.3988407V54.2348986h32.159536V30.6309565h-32.159536V-1e-14L328.540754-9.999999980000002e-15V6.01043478h-.044522V96.0927536c0 14.3211594 3.606261 47.5937394 36.819478 47.5937394 16.806957-.25971 27.009855-9.408928 31.283942-12.985507l.571362-.445218-16.369159-20.242551c-.044522.037102-1.187246.964638-1.892174 1.498899h0z" fill="#f45d48"/></svg>