<svg width="256" height="250" xmlns="http://www.w3.org/2000/svg" preserveAspectRatio="xMidYMid"><g fill="#EF0000"><path d="M139.965 249.18c-63.62 0-115.577-51.957-115.577-115.577S76.344 18.026 139.965 18.026c63.62 0 115.577 51.956 115.577 115.577 0 63.62-51.957 115.577-115.577 115.577zm0-223.025c-59.38 0-107.448 48.069-107.448 107.448 0 59.379 48.069 107.447 107.448 107.447 59.379 0 107.447-48.068 107.447-107.447 0-59.38-48.422-107.448-107.447-107.448z"/><path d="M116.284 249.18C52.664 249.18.707 197.223.707 133.603S52.663 18.026 116.284 18.026c63.62 0 115.577 51.956 115.577 115.577 0 63.62-51.957 115.577-115.577 115.577zm0-223.025c-59.38 0-107.448 48.069-107.448 107.448 0 59.379 48.069 107.447 107.448 107.447 59.379 0 107.447-48.068 107.447-107.447 0-59.38-48.068-107.448-107.447-107.448z"/><path d="M128.654 231.86c-63.62 0-115.576-51.956-115.576-115.576C13.078 52.664 65.034.707 128.654.707c63.62 0 115.577 51.956 115.577 115.577 0 63.62-51.956 115.577-115.577 115.577zm0-223.024c-59.379 0-107.447 48.069-107.447 107.448 0 59.379 48.068 107.447 107.447 107.447 59.38 0 107.448-48.068 107.448-107.447 0-59.38-48.069-107.448-107.448-107.448z"/><path d="M164.476 137.844c-2.34 2.474-4.59 4.948-6.839 7.422-9.543 10.604-16.965 18.38-29.336 18.38-22.62 0-41-18.38-41-41s18.38-41 41-41c13.784 0 26.862 7.422 34.638 19.44 2.474 3.534 6.715 4.241 10.25 2.474 3.534-2.474 4.241-6.716 2.474-10.25-10.25-16.612-27.922-26.155-47.362-26.155-30.75 0-55.845 24.741-55.845 55.49 0 30.75 25.095 55.845 55.845 55.845 18.733 0 29.336-11.31 39.586-23.327.477-.525.947-1.043 1.414-1.555V169.3c0 3.534 3.18 7.069 7.069 7.069 4.594 0 7.775-3.181 7.069-7.07v-38.525c0-3.534-3.181-7.069-7.07-7.069h-36.05c-3.535 0-7.07 3.535-7.07 7.07 0 3.534 3.181 7.068 7.07 7.068h24.157z"/></g></svg>