<svg width="256px" height="270px" viewBox="0 0 256 270" xmlns="http://www.w3.org/2000/svg" preserveAspectRatio="xMidYMid"><g style="fill:#f93535"><path d="M103.995568 27.798338c.921884-.9218837.921884-2.4819945 0-3.4038782L80.3457064.744598338c-.9218837-.921883657-2.4819945-.921883657-3.4038781 0L.921883657 76.7290859c-.921883656999986.9218836-.921883656999986 2.4819944 0 3.4038781L76.9418283 156.152909c.9218836.921883 2.4819944.921883 3.4038781 0l23.6498616-23.649862c.921884-.921884.921884-2.481994 0-3.403878L55.0648199 80.1684211c-.9218836-.9218837-.9218836-2.4819945 0-3.4038782L103.995568 27.798338h0z"/><path d="M179.164543.744598338c-.921884-.921883657-2.481995-.921883657-3.403878 0L99.8470914 76.6227147c-.9218836.9218836-.9218836 2.4819944 0 3.4038781l23.6498616 23.6853182c.921884.921884 2.481994.921884 3.403878 0l48.859834-48.8598334c.921883-.9218837 2.481994-.9218837 3.403878 0l21.877008 21.8770083c.921884.9218836.921884 2.4819944 0 3.4038781l-48.930748 48.930748c-.921883.921884-.921883 2.481994 0 3.403878l23.649862 23.649862c.921883.921883 2.481994.921883 3.403878 0l75.984487-75.984488c.921884-.9218837.921884-2.4819945 0-3.4038781L179.164543.744598338h0z"/></g><g style="fill:#424242"><path d="M45.9523546 224.301385v16.097507h18.2249307v7.48144c-3.6520775 3.120222-8.33241 4.680333-13.8637119 4.680333-5.8858726 0-10.7434903-1.914682-14.8210526-5.814959-3.9711912-3.971191-5.8858726-8.793351-5.8858726-14.714681 0-5.956787 1.9501385-10.778947 5.9922438-14.714682 4.0775623-3.971191 8.899723-5.921329 14.7501385-5.921329 5.8858725 0 10.6371191 1.631025 14.501939 4.963989 3.4747923-3.722992 8.6515236-8.226039 11.5235457-11.559003-7.1977839-6.595014-15.9556786-9.892521-26.0254847-9.892521-10.8498615 0-19.8204986 3.474792-27.3728532 10.601662-7.5878116 7.162327-11.2398892 15.849308-11.2398892 26.521884 0 10.672576 3.6875346 19.359557 11.2753462 26.521884 7.4814405 6.985041 16.7002771 10.49529 27.3728532 10.49529 12.232687 0 23.6498615-5.495844 30.4930748-14.643767l.2481995-.354571v-29.783933H45.9523546v.035457z"/><path d="M158.599446 196.006648l-12.090859 39.357341-11.523545-39.357341h-13.970084l-11.488088 39.357341-12.0908589-39.357341h-17.799446l21.7706369 71.97784h14.85651l11.700831-38.329086 11.700831 38.329086h14.85651l21.770637-71.97784h-17.693075z"/><path d="M181.291967 196.006648l-4.999446 16.522992h21.345152v55.454848h20.210526V212.52964h21.309696v-16.522992h-57.865928z"/></g></svg>