<svg width="256px" height="478px" viewBox="0 0 256 478" xmlns="http://www.w3.org/2000/svg" preserveAspectRatio="xMidYMid"><path d="M9.13221479 5.980788C3.0751745 9.96497004 0 15.1772152 0 21.4850854V455.325487c0 5.502205 3.14942015 10.499739 9.45729033 15.139089 6.26272077 4.647376 13.98226167 6.963038 23.19574527 6.963038 8.806136 0 16.5266801-2.315662 23.2328682-6.963038 6.6700685-4.5942 10.0632953-9.636884 10.0632953-15.139089V21.5232116c0-6.3459964-3.230689-11.4759694-9.7372165-15.5424236C49.7044518 2.03372878 41.865516 0 32.6530356 0 23.0332075 0 15.1942717 2.03372878 9.13221479 5.980788zM198.855933 178.299922l-88.296136 55.346118c-3.956089 3.701246-5.656715 9.324852-4.925295 17.01028.681254 7.610179 4.199895 14.856153 10.426497 21.692773 6.255697 6.880765 13.250841 11.193033 21.251312 13.025094 7.882078 1.786912 13.864873.811686 17.820962-2.852437l34.915521-21.776048v194.579785c0 5.502205 3.032032 10.499739 9.169338 15.139089 5.981791 4.647376 13.664209 6.963038 22.877693 6.963038 9.213484 0 17.169808-2.315662 23.839876-6.963038C252.641889 465.825226 256 460.827692 256 455.325487V193.722951c0-6.35302-3.276842-11.47597-9.739223-15.423029-6.469405-4.029331-14.508001-5.987811-24.164952-5.987811-9.619828 0-17.340372 1.95848-23.239892 5.987811z"/></svg>