<svg width="256px" height="295px" viewBox="0 0 256 295" xmlns="http://www.w3.org/2000/svg" preserveAspectRatio="xMidYMid"><defs><linearGradient x1="49.0838061%" y1="4.31143537%" x2="49.0838061%" y2="95.7864712%" id="a"><stop stop-color="#f1cb2b"/><stop stop-color="#d62b5f" offset="1"/></linearGradient><linearGradient x1="143.212497%" y1="-204.866615%" x2="143.212497%" y2="86.0496667%" id="b"><stop stop-color="#f1cb2b"/><stop stop-color="#d62b5f" offset="1"/></linearGradient></defs><path d="M206.689749.891330988l-1.838323-.653086176c-.80368-.1930366943-1.63378-.2685468538-2.464733-.2220135049-1.302252.0728681561-2.571266.4442826879-3.708179 1.0853520129-12.608322 5.14534408-26.620315 10.89681488-40.564979 16.75976118-2.513312 1.0564604-2.502232 4.6143014.013637 5.6618983l33.829574 14.0834118c1.147141.4772651 1.89372 1.5979859 1.896276 2.8397274.017046 11.080221.164486 21.4522147.02642 32.5477764-.01534 1.2204351-.754249 2.3147358-1.879231 2.7877397l-89.069602 37.5019589c-2.027525.853111-4.2698186-.635785-4.2698186-2.835466l.003409-83.5276172c0-3.2044943-1.7931532-5.6403361-4.4854398-6.9978145-.25653-.1376398-.5164691-.2676946-.7917488-.3824087L48.8536585.677158267c-1.2004922-.509650963-2.5019771-.736778023-3.8040586-.663824641-1.3021668.0728681562-2.5701579.443941784-3.7061341 1.084414524C29.2233181 6.04426018 14.7551114 12.0127161 1.88551263 17.3930281c-2.489125079 1.0406084-2.520786506 4.5508081-.05327472 5.6416145L34.9848456 37.6918805c1.1138175.4917535 1.8323571 1.5954291 1.8323571 2.8133074V147.107465c.2597686 1.162482.7298748 2.159625 1.3638703 2.982055.6462681 1.078108 1.7092909 2.026672 3.307703 2.783478l97.961137 46.617723.527548.206246c1.063619.53181 2.264453.826692 3.530057.826692l.569309-.019602c2.024116-.155111 3.913574-1.07129 5.289973-2.562743 1.376398-1.492306 2.136614-3.449093 2.128943-5.479174v-32.891237c0-1.340604.866748-2.526096 2.144284-2.931772l36.273001-11.527657c1.98406-.630671 4.008175.850555 4.007323 2.932624l-.043465 141.388086c-8.53e-4 1.250264.755953 2.376951 1.913321 2.849102l1.678099.685217c.53948.21903 1.099414.382664 1.67128.489197 2.301099.785782 4.807594.718454 7.062671-.190907l44.412928-18.167608c1.705371-.745726 2.864443-1.582645 3.59142-2.523539 1.112198-1.170152 1.796563-2.711036 1.796563-4.917535V26.928359c0-2.3899051-1.089188-4.3439649-2.752797-5.7397096-.719307-.676779-1.568157-1.2389292-2.52354-1.6442636L206.689749.891330988z" fill="url(#a)"/><path d="M98.8501243 228.987409c.010947-1.198276-.6742694-2.294281-1.7557862-2.808193l-49.4300072-23.491671c-.9697005-.408232-2.0108202-.620445-3.0631046-.623919-1.0522843-.004196-2.0948529.201198-3.0673658.602612-.9725982.402267-1.8557943.992882-2.5986234 1.737757-.7429143.745726-1.3306322 1.630371-1.729319 2.604504-.1602247.386073-.2900238.782373-.3887154 1.185492v81.224557c0 1.227253.7291077 2.336895 1.8552829 2.823535l2.5868622 1.118164c.265223.108236.5357301.202837.8106689.28295 2.106955 1.025267 4.6192445 1.185492 6.963298.23011L93.0648569 276.3287c1.5903155-.654535 2.9513734-1.767586 3.9093126-3.195972.957087-1.429238 1.4692948-3.109893 1.4709993-4.830605.023011-.236928.0306813-.473856.0306813-.715045l.3742742-38.599669z" fill="url(#b)"/></svg>