<svg width="256px" height="262px" viewBox="0 0 256 262" xmlns="http://www.w3.org/2000/svg" preserveAspectRatio="xMidYMid"><g style="fill:#dc3011"><g style="fill-opacity:0.65"><path d="M152.228422 2.78770325 255.861141 119.8427l-79.27273 134.640417-152.7166057-33.886659L8.96986157 65.0758631z"/><path d="M176.152247 10.7228513 253.18324 146.76637 147.649492 261.982843 5.31554324 197.085121 23.0737926 41.8647358z"/></g><path d="M127.177581 0l125.705197 92.9506108-49.547113 148.1799282-156.4248147-1.394587L0 90.7121437z"/></g><path d="M127.939832 79.215521c28.573126 0 51.736527 23.163401 51.736527 51.736527 0 28.573126-23.163401 51.736527-51.736527 51.736527-28.5731254 0-51.7365266-23.163401-51.7365266-51.736527 0-28.573126 23.1634012-51.736527 51.7365266-51.736527zm0 11.1137724c-22.435257 0-40.6227542 18.1874966-40.6227542 40.6227546 0 22.435257 18.1874972 40.622754 40.6227542 40.622754 22.435258 0 40.622755-18.187497 40.622755-40.622754 0-22.435258-18.187497-40.6227546-40.622755-40.6227546zm18.170635 24.3123356 6.681293 9.014036-24.851928 30.899353-24.77988-30.899353 6.635689-9.014036h36.314826z" fill="#fff"/></svg>