<svg width="512px" height="351px" viewBox="0 0 512 351" xmlns="http://www.w3.org/2000/svg" preserveAspectRatio="xMidYMid"><path d="M17.0888296 260.957976c4.2007399.362132 8.1619151 1.983373 11.9113819 3.816322 2.6129271 1.348248 4.3845919 3.905462 5.2648531 6.657671 2.2117954 6.128401.9694015 13.248488-3.0474864 18.351774-2.5015016 3.025201-5.548988 5.86655-9.4823069 6.802524-5.8442655 1.727095-12.2846572-.389989-16.52439605-4.613014-5.053144718-5.599129-6.89723612-14.279173-3.43747551-21.165266 2.70763874-5.844266 8.89175186-9.816584 15.31542986-9.850011zm51.2111425-57.729532c7.7663547 4.523873 15.1204353 10.061719 20.5802829 17.282089 3.6603265 4.863721 6.9028074 10.072862 9.4990207 15.582851 1.8385203 4.02803 3.2870513 8.340196 3.3817623 12.802785.116997 4.289881-2.5293575 8.067204-5.5489876 10.863983-3.4430467 2.807922-6.8192383 5.766268-10.7358433 7.905636-5.0364309 2.646355-10.9586942 3.955604-16.6079651 2.897063-6.9306638-1.158825-13.421197-4.484875-18.6749076-9.109032 1.8886616-1.208966 4.0001742-2.891491 4.0001742-5.353994.3844178-4.607442-4.139456-8.613188-8.6187596-8.27334-1.7048095.752122-2.7856365 2.401219-4.0113166 3.732753-2.8190642-4.41802-5.0364309-9.604875-4.5238738-14.942155 1.4262459-9.476735 4.5405876-18.869902 10.2065724-26.686398.5961262-.713123.6574102-1.654668.7409793-2.534929 2.8692057-1.938803 4.8080087-5.147857 8.1730577-6.351252 4.1115995-1.526528 8.6020457-.083569 12.1398041 2.18394zm203.6801739-83.095539c2.852492 2.813493 4.852579 6.512818 5.615844 10.446137.941545 5.493275.646267 11.187116-1.275822 16.446398-1.593384 5.220283-4.256453 10.880697-9.448879 13.293058-.061284-3.025201-.746551-5.983547-1.259108-8.953036-2.195082-11.699674-5.604701-23.204353-10.59099-34.023765-.896975-2.066942-1.905376-4.089314-3.242481-5.911121 7.749641-.757693 14.474167 4.106029 20.201436 8.702329zm28.101502-21.2544071c4.128313.6351252 7.732927 3.5879001 9.382024 7.3986511 2.183939 5.12.807834 11.655103-3.721611 15.059151-4.111599 3.186768-10.390424 3.075343-14.290315-.412274 1.97223-1.83852 4.20074-4.37345 3.543329-7.26494-1.966659-2.53493-5.877693-2.172797-8.407051-.713123-.601697-4.083744.818977-8.501763 4.055887-11.153689 2.495931-2.3455062 6.067117-3.3483354 9.437737-2.9137761zM138.92143 63.467486c1.754951.6351251 3.487617 1.5989554 4.523874 3.2201958-2.596213.4624157-5.014146 1.5209576-7.459935 2.4457889-9.655016 3.7884658-19.142894 8.0226333-28.251926 12.9810664-4.011316 2.2006529-8.0282043 4.4681611-11.4879649 7.4877911-2.4792166 2.2006529-5.4041349 3.916605-7.5045049 6.5183896-.7186942-6.7523831.6406964-13.9003265 4.752296-19.4158869 1.7883786-2.9193471 4.6965832-4.8024374 7.0365178-7.22037 3.23691-2.9806311 7.248226-5.019717 11.393254-6.4292491 2.780065-.4791295 5.387421-1.7549511 8.234341-1.8719478 6.312253-.2172797 12.758216.1727095 18.764048 2.284222zM70.6120504.116539296c3.5154734.852404788 7.2259413 2.222937974 9.3485963 5.337279654 3.6993254 5.22028295 3.0976279 12.63007615-.7186942 17.62193685l-.2897062-.2897062c-.8579761-.857976-1.693667-1.7716648-2.7299238-2.4179325-1.142111-.7521219-2.9639173-.1114255-3.2759086 1.2479652-.406703 1.9945158.551556 3.8998912 1.509815 5.5879869-3.3706202.6908379-7.036518 1.1532536-10.2901415-.2562785-4.8748639-2.0056584-8.6410446-6.7858107-9.0588901-12.0840914.2674212-4.3734494 2.6574973-8.42933628 5.7049837-11.48239395 2.7187813-2.15051143 6.2565397-3.849749732 9.7998694-3.264766054z" fill="#9b99a6"/><path d="M54.1935086 256.099825c0 2.462503-2.1115126 4.145028-4.0001742 5.353994-2.6296409 1.615669-5.3428509 3.086485-7.9167791 4.791295-2.6797823 1.715952-5.1478563 3.760609-8.0114907 5.186855-.8802612-2.752209-2.651926-5.309423-5.2648531-6.657671 3.2536235-5.220283 8.5853319-8.61876 12.5632209-13.21506 1.2256801-1.331534 2.3065071-2.980631 4.0113166-3.732753 4.4793036-.339848 9.0031774 3.665898 8.6187596 8.27334zM294.995075 113.659086c.657411 2.89149-1.571099 5.42642-3.543329 7.26494-4.317737 3.604613-8.858324 7.042089-13.855756 9.655016-.763265-3.933319-2.763352-7.632644-5.615844-10.446137 4.562873-2.991774 9.928009-4.401306 14.607878-7.186942 2.529358-1.459674 6.440392-1.821807 8.407051.713123zM76.2223225 20.3681171c1.0362568.6462677 1.8719477 1.5599565 2.7299238 2.4179325 1.5599565 1.9109467 3.3706202 3.5823287 5.0531447 5.3818499 6.8470947 7.52679 13.0089228 15.6385636 19.505027 23.4606311 2.980631 3.6324701 5.933406 7.2872252 8.847182 10.975408l-.434559.4512732c-4.145028 1.4095321-8.156344 3.448618-11.393254 6.4292491-1.3928182-1.4318171-2.3399346-3.1867682-3.3984765-4.8581501-5.7551251-9.1870294-11.3431121-18.4854842-16.5411099-28.0012187-1.8329488-3.2759086-4.2508814-6.1785419-6.1339717-9.4210229-.958259-1.6880957-1.916518-3.5934711-1.509815-5.5879869.3119913-1.3593907 2.1337976-2.0000871 3.2759086-1.2479652z" fill="#f79727"/><path d="M156.409657 64.2530355c6.930663-1.1086834 13.967181-.8134059 20.959129-.7019804 20.530141 1.3983895 41.010141 9.2928835 55.863156 23.7726224 2.089227 1.4373885 3.365049 3.6770403 5.20914 5.3707073 5.248139 5.6325571 9.253885 12.2568012 13.337628 18.7361912 1.337105 1.821807 2.345506 3.844179 3.242481 5.911121 4.986289 10.819412 8.395908 22.324091 10.59099 34.023765.512557 2.969489 1.197824 5.927835 1.259108 8.953036-.250708 5.214712.908117 10.429423.189423 15.632992-.35099 2.819065-.033428 5.682699-.551556 8.479478-.802263 5.253711-3.10877 10.095147-5.437563 14.814015-1.114254 2.351078-3.565614 3.526616-5.615843 4.919434-2.089227 1.359391-4.85815 2.601785-7.287225 1.35382-3.838607-2.183939-5.68827-6.551817-6.56296-10.685702-.96383-3.833036-.629554-7.799782-.685266-11.705245-.607269-10.908553-1.214538-21.900675-3.632471-32.591948-1.62124-7.008661-4.395734-14.073036-9.80544-19.031469-3.426333-2.89149-7.348509-5.225854-11.560392-6.763525-6.30111-1.871948-12.869641-2.958346-19.454886-2.819064-7.950206-.178281-15.783416 1.48753-23.432774 3.487617-7.738499 2.011229-15.048009 5.309423-22.268379 8.691186-5.73284 2.429075-11.153689 5.487704-16.663678 8.368052-3.086485 1.665811-6.139543 3.41519-8.919608 5.56013-5.03086 3.838608-10.440566 7.320653-14.563308 12.195517-4.133885 4.874864-7.805354 10.446137-9.05889 16.814103-1.5766707 9.370881.217279 19.009183 3.554472 27.811795 3.816322 9.7163 9.515734 18.658194 16.574537 26.340979 4.880436 6.117258 11.37654 10.596562 17.67765 15.120436 3.448618 2.261936 5.710555 6.262111 5.738411 10.401567-.323133 3.454189-2.958346 6.161828-5.677127 8.050489-2.93049 1.810664-6.356823 2.986203-9.827726 2.880348-8.128487-.072426-16.32383-1.041828-24.040043-3.671469-3.253624-1.091969-6.2453974-2.780065-9.3485966-4.211882 3.0196301-2.796779 5.6659846-6.574102 5.5489876-10.863983-.094711-4.462589-1.543242-8.774755-3.3817623-12.802785-2.5962133-5.509989-5.8386942-10.71913-9.4990207-15.582851-5.4598476-7.22037-12.8139282-12.758216-20.5802829-17.282089-3.5377584-2.267509-8.0282046-3.710468-12.1398041-2.18394-3.365049 1.203395-5.303852 4.412449-8.1730577 6.351252-.8412622-2.445789-.4457019-5.081001-.7855495-7.604788-.4234168-2.947203-.1894233-5.927835-.4735582-8.880609-.4512732-4.072601-.2339935-8.178629-.3064201-12.267944-.1169967-7.994777.0334277-16.034124 1.264679-23.950903 1.1922525-7.348509 4.2118825-14.245745 7.6326442-20.803134 3.7104679-6.941806 8.4460501-13.315343 13.7944723-19.087181 2.9249184-3.365049 6.0448313-6.579674 9.5213057-9.376453 3.1254843-3.37062 7.1813711-5.749554 10.1062895-9.3040262 2.10037-2.6017846 5.0252883-4.3177367 7.5045049-6.5183896 3.4597606-3.01963 7.4766489-5.2871382 11.4879649-7.4877911 9.109032-4.9584331 18.59691-9.1926006 28.251926-12.9810664 2.445789-.9248313 4.863722-1.9833732 7.459935-2.4457889 4.406877-.3287051 8.563047-2.0446572 12.964353-2.4346463z" fill="#787880"/><path d="M398.325478 225.324113c2.278651 3.292622 2.289793 7.471077 2.234081 11.315255 4.99186-6.08383 11.142546-11.632818 18.786333-14.028465 9.894581-3.058629 21.076126-1.771665 30.001305 3.498759 6.12283 3.504331 10.997693 8.958607 14.26246 15.170577 4.752296 8.75247 6.234254 18.908901 6.011403 28.758912-.256278 10.685702-3.025201 21.571969-9.270598 30.36901-5.966834 8.418193-15.62185 14.100892-25.90642 15.09815-7.838782.735408-16.23469-.323134-22.831078-4.913863-4.250881-2.729924-7.638215-6.507247-11.025549-10.19543-.061284 11.610533.016714 23.221066-.038999 34.8316-.08914 4.223025-.596126 8.897323-3.593471 12.145375-2.36222 2.562786-6.094973 3.164483-9.40988 2.807922-2.629641-.21728-5.476562-1.264679-6.813667-3.688183-1.782808-3.259195-2.139369-7.069946-2.234081-10.71913-.011143-33.990337 0-67.975103-.011143-101.96544.016714-3.727182.752122-7.866638 3.654756-10.479565 4.601871-4.039173 12.769358-3.209053 16.184548 1.994516zm-208.114907-37.043395c3.387334 2.741066 4.328879 7.348509 4.367878 11.499107.050141 11.68296.027856 23.36592.011142 35.04888 4.022459-4.445876 8.546333-8.674473 14.156605-11.003265 7.014233-2.919347 14.925441-3.526616 22.357519-2.094798 7.771926 1.493101 14.903156 6.323395 18.780762 13.276343 3.855321 6.089402 4.317737 13.515909 4.46259 20.530142.027856 14.858585-.005572 29.717171.016714 44.575756.055712 3.610185-.200566 7.432078-2.139369 10.585419-3.766181 6.356823-14.385027 6.880522-18.68605.87469-2.027944-3.014059-2.417933-6.769097-2.440218-10.306855-.011143-13.014494 0-26.028988-.005571-39.043482-.061284-6.145115-.529271-12.652362-3.749467-18.050925-2.846921-4.501589-8.680044-5.610272-13.621763-5.264853-8.769184.451273-16.41297 7.627073-18.039782 16.15112-.802264 4.195169-.974973 8.485049-1.069685 12.747073-.033427 11.326399.022285 22.652797-.027856 33.984766-.04457 3.911034-.846834 8.184201-3.788466 11.003265-2.830206 2.80235-7.153514 3.353906-10.925266 2.674211-2.434647-.428988-4.735582-1.74938-6.139543-3.80518-1.983374-2.852492-2.456932-6.440391-2.495931-9.833297.005572-32.703373.005572-65.401175.005572-98.104548-.01595-4.161741-.245136-8.590903 1.754951-12.396083 3.069771-6.150685 12.095234-7.075517 17.215234-3.047486zm317.501284 35.723003c2.863634 2.601785 3.877606 6.613101 3.827464 10.368139 0 22.463374.011143 44.932318-.005571 67.395691-.022285 3.782895-.824548 7.87778-3.599042 10.646703-3.064201 3.23691-8.09506 4.083743-12.223374 2.640784-3.214624-1.130969-5.626986-3.972318-6.624243-7.181371-1.197824-3.582329-.824549-7.398651-.87469-11.103548.022285-21.165266-.061284-42.324962.038999-63.484657.011142-5.131143 2.941632-10.663417 8.239913-11.900239 3.855321-.974973 8.301196-.21728 11.220544 2.618498zm-179.712558-3.086485c8.13963.852404 16.931099 2.863634 22.66394 9.159173 5.51556 6.178542 6.752383 14.858585 7.181371 22.831077.194994 10.351425-.044571 20.708422-.072427 31.059848.022285 5.526703 1.459674 10.902981 3.069772 16.145549.757693 3.036344 2.061371 6.418107.479129 9.415452-2.094799 3.950032-6.635386 6.613101-11.136975 6.139543-2.239652-.250708-4.217454-1.509815-5.833123-3.014059-3.164483-2.980631-5.521132-6.674385-7.838781-10.317998-7.57136 5.944549-16.117693 11.242829-25.783852 12.73593-8.512906 1.331535-17.755648.885833-25.327008-3.599042-6.423678-3.626899-11.15926-10.145288-12.435081-17.426942-.991687-5.805267-.178281-12.056235 2.89149-17.142808 2.752209-4.585157 7.04209-8.150772 11.911382-10.306855 5.114429-2.36222 10.769271-3.030773 16.212405-4.267595 10.401567-2.094799 20.769706-4.390163 30.965136-7.331796-.239565-4.919434-.87469-10.212143-3.93889-14.251316-2.941632-3.365049-7.755212-3.89432-11.950381-4.094886-5.833123-.083569-12.284657.21728-17.025811 4.055887-4.373449 3.259195-6.518389 8.434907-9.783155 12.641219-1.420675 1.777236-3.950033 1.793949-6.028118 1.821806-4.267595.050141-8.596474-3.014059-9.32074-7.337367-.551556-3.916605.579413-7.911208 2.512645-11.304113 3.443046-6.25654 9.811012-10.212144 16.312687-12.696931 10.28457-3.771752 21.493972-3.821894 32.274385-2.913776zm7.014233 48.024374c-9.198172 3.114342-18.836474 4.529445-28.229641 6.902807-3.604613.986116-7.181371 2.941633-9.331882 6.072688-2.729924 4.5963-1.537671 10.980979 2.490359 14.451883 3.732753 3.537758 9.242742 4.156169 14.139891 3.50433 7.181371-.908117 14.557737-4.568444 18.101067-11.136975 2.963917-6.133971 2.729923-13.148204 2.830206-19.794733zm85.15691-30.224157c-6.312252 1.231252-11.688531 5.721698-14.697018 11.315256-3.554473 6.802525-4.100458 14.724875-3.665898 22.257236.462415 7.510076 3.058629 15.287574 8.891752 20.340718 5.142285 4.746725 12.858498 6.451535 19.532883 4.345593 4.774581-1.515386 8.780327-5.003003 11.270686-9.315168 4.451447-7.448792 5.186855-16.474255 4.457018-24.94259-.696409-7.443221-3.41519-15.170577-9.326311-20.062155-4.490446-3.799608-10.741415-5.16457-16.463112-3.93889zm87.095713-49.394907c4.830294 3.287051 5.409706 10.518563 2.679782 15.326572-3.860892 6.273254-13.632905 6.919521-18.725049 1.827378-2.785636-2.679783-3.45976-6.891665-2.774494-10.557563.802263-4.239739 4.473732-7.543504 8.568618-8.568618 3.487617-.835691 7.348509-.172709 10.251143 1.972231z" fill="#464646"/></svg>