<svg width="256px" height="177px" viewBox="0 0 256 177" xmlns="http://www.w3.org/2000/svg" preserveAspectRatio="xMidYMid"><title>Hardhat</title><g style="fill:#f0d50c"><path d="M256 148.406607c0 0-38.992747-5.776704-59.597441-7.433588-19.787447-1.589712-43.235713-2.507716-68.39124-2.507716-25.155527 0-48.6037925.918004-68.3856424 2.507716-20.6102919 1.679275-59.5974409245 9.69501-59.5974409245 9.69501v10.075645c0 8.956129 57.3024328245 16.232984 127.9830833245 16.232984 70.680651 0 127.983083-7.276855 127.983083-16.232984L256 148.406607z"/><path d="M88.6603273 14.7643691C41.9255225 31.4163803 10.7166742 75.664588 10.7140171 125.277403v16.61362c16.6773998-3.98434 33.6814164-6.449885 50.8036417-7.366416-.1156833-3.18689-.1753908-6.398035-.1791226-9.633437.0167928-43.5939576 10.5402444-82.8218026 27.3217911-110.1268009z"/></g><path d="M245.30315 125.277403c.039976-27.2228598-9.429789-53.6047576-26.773355-74.5877614 7.518696 24.0141157 11.265143 49.0495942 11.1056 74.2127234 0 4.578821-.117549 9.105398-.352647 13.579731 5.337357.821489 10.624239 1.942779 15.835555 3.358548l.184847-16.563241z" fill="#fff04d"/><path d="M245.30315 125.277403c.039976-27.2228598-9.429789-53.6047576-26.773355-74.5877614 7.518696 24.0141157 11.265143 49.0495942 11.1056 74.2127234 0 4.578821-.117549 9.105398-.352647 13.579731 5.337357.821489 10.624239 1.942779 15.835555 3.358548l.184847-16.563241z" fill="#ffea00"/><g style="fill:#fff04d"><path d="M218.529795 50.684044C187.104313 12.5902868 135.200193-1.76612429 88.6659248 14.7643691 71.873183 42.0693674 61.355329 81.2972124 61.355329 124.896768c0 3.235401.0597075 6.446547.1791226 9.633436 17.4644515-1.349017 37.6829127-2.183056 59.3343544-2.334191 0 0 4.920274 0 7.153708 0 33.866748-.406419 67.716935 1.702202 101.271429 6.308473.227635-4.478064.345184-9.004641.352647-13.57973.15891-25.1730982-3.591351-50.2182681-11.116795-74.240712h0z"/><path d="M93.7986585 58.4422907l-7.4335871-46.4599191c-.528053-3.41821448-2.977163-6.22684686-6.2916806-7.21528147-21.6593559-6.35612017-44.6887671-6.35612017-66.3481231 0-3.3123348.99025052-5.75894639 3.79851616-6.28608305 7.21528147L0 58.4422907" transform="translate(81.394668)"/><path d="M128.022514 131.210839c-2.239032 0-4.461272 0-6.666718 0h-.246294-.246293C53.507521 131.681036.0338332561 138.756378.0338332561 147.415835v12.549775c-.1091253791.735447.0476737331 1.485701.4422088689 2.115886 3.420866275-2.569233 7.352954475-4.374939 11.531016075-5.295311 10.6407511-2.589054 21.455875-4.399994 32.3596136-5.418458 6.1926498-.679266 12.3780684 1.339713 16.977462 5.541604 8.4214332 7.709645 19.4251762 11.985328 30.8426693 11.984421h71.6490319c11.417391 0 22.420944-4.275246 30.842669-11.984421h0c4.599042-4.206747 10.787555-6.228111 16.98306-5.547202 10.901906 1.01836 21.715177 2.829303 32.354016 5.418458 3.956806.760874 7.693684 2.395997 10.937672 4.785932.184721.18472.397429.34705.559758.514977.39727-.633295.556023-1.387368.447807-2.127081V147.40464c.039183-8.928142-57.26325-16.193801-127.938303-16.193801z"/></g><path fill="#6e6f70" d="M154.980462 93.942147l-26.991533 16.613619v21.578674z"/><g style="fill:#0a0a0a"><path d="M128.016917 132.13444v-21.578674l-26.991534-16.613619z"/><path d="M101.025383 84.0848076h0l26.991534 15.6060547v-59.261586z"/></g><path fill="#6e6f70" d="M154.980462 84.0848076l-26.991533-43.6611289h0v28.0494765h0v31.2121096L154.980462 84.07921h0z"/></svg>