<svg width="256" height="255" xmlns="http://www.w3.org/2000/svg" preserveAspectRatio="xMidYMid"><path d="M217.787 131.997a37 37 0 01-7.453 13.035L191.2 164.06l-37.001-36.794L191.2 90.472l19.134 18.66a21.86 21.86 0 017.17 10.322 21.747 21.747 0 01.283 12.543zm-95.145 84.574a36.675 36.675 0 01-12.739-7.517l-19.081-18.976 37-36.793 37.002 36.793-19.188 19.08a21.99 21.99 0 01-10.38 7.13 22.113 22.113 0 01-12.614.283zm-85.101-94.614a36.743 36.743 0 017.559-13.035l19.134-18.976 37.001 36.794-37.001 36.795-19.187-19.08a22.026 22.026 0 01-7.186-10.348 21.907 21.907 0 01-.32-12.57v.42zm95.145-84.994a36.68 36.68 0 0113.161 7.516l19.082 18.976-37 36.794-37.001-36.794L109.903 44.9a21.996 21.996 0 0110.381-7.13 22.111 22.111 0 0112.613-.282l-.211-.525zm104.078 46.15l-64.805-64.232A73.553 73.553 0 00145.53 3.113c-22.042-7.307-43.925-1.63-61.686 15.768L18.988 83.113A73.094 73.094 0 003.13 109.394c-7.347 21.92-1.639 43.733 15.858 61.394l64.487 64.39a73.337 73.337 0 0026.428 16.084 59.601 59.601 0 0018.66 3.1 60.642 60.642 0 0023.475-5.241 60.367 60.367 0 0019.552-13.943l65.174-64.18a72.994 72.994 0 0016.121-26.281c7.348-21.92 1.586-43.732-16.121-61.341" fill="#00ADE5"/></svg>