<svg width="256px" height="255px" viewBox="0 0 256 255" xmlns="http://www.w3.org/2000/svg" preserveAspectRatio="xMidYMid"><title>Harness</title><path d="M217.787355 131.99694c-1.565102 4.804622-4.101119 9.240742-7.452894 13.035071l-19.134442 19.028065-37.00117-36.794292 37.00117-36.7937045 19.134442 18.6595635c3.352363 2.670606 5.844889 6.259232 7.169025 10.322737 1.324724 4.063505 1.423461 8.423809.283869 12.54256h0zm-95.145025 84.573683c-4.716464-1.616822-9.051496-4.174585-12.73886-7.516956l-19.081547-18.97517 37.000582-36.793704 37.00117 36.793704-19.187925 19.080372c-2.685299 3.333556-6.294495 5.811976-10.380334 7.12906-4.086426 1.317083-8.471414 1.415233-12.613086.282694h0zm-85.1014568-94.613726c1.5897861-4.816376 4.16283-9.254259 7.5586837-13.035071l19.1344423-18.9757571 37.0011698 36.7942921-37.0011698 36.794292-19.1873373-19.080372c-3.3553009-2.681773-5.8525287-6.277451-7.1854806-10.347421-1.3329519-4.06997-1.4440312-8.437915-.3203081-12.570184v.420221zm95.1450258-84.9939032c4.866332 1.5639264 9.350058 4.1246281 13.161431 7.5163677l19.082135 18.9751699-37.00117 36.7942916-37.0005822-36.7942916L109.90347 44.90017c2.685887-3.3341429 6.295083-5.8119759 10.380922-7.1296471 4.086426-1.3170834 8.470827-1.4146452 12.612499-.2821062l-.210992-.5254229zM236.7637 83.1132211l-64.804501-64.2320607c-7.589245-7.0550065-16.597249-12.42971778-26.429239-15.76856248-22.041899-7.30655118-43.925114-1.62975116-61.6854642 15.76856248L18.9876873 83.1132211c-7.0926207 7.5486924-12.496718 16.5061527-15.8578961 26.2811329-7.34710396 21.919066-1.63856699 43.732342 15.8578961 61.393955l64.4871318 64.38957c7.555745 7.173726 16.5666879 12.657754 26.4286509 16.084169 6.012977 2.019998 12.312762 3.06673 18.658976 3.100817 8.099975-.162798 16.083581-1.945945 23.475352-5.241886 7.391771-3.295941 14.04125-8.038264 19.551724-13.9431l65.174178-64.179753c7.189595-7.522245 12.685965-16.481469 16.121783-26.281134 7.347104-21.919066 1.585672-43.732342-16.121783-61.3410595" fill="#00ade5"/></svg>