<svg width="256px" height="256px" viewBox="0 0 256 256" xmlns="http://www.w3.org/2000/svg"><path d="M17.5913461 85.5328619c-23.45512813 23.4551281-23.45512813 61.4789881 0 84.9319041l67.9424253 67.944638c23.4551286 23.452915 61.4789886 23.452915 84.9319036 0l67.944638-67.944638c23.452916-23.455128 23.452916-61.478989 0-84.9319041l-67.944638-67.9424254c-23.455128-23.45291534-61.478988-23.45291534-84.9319036 0L17.5913461 85.5328619zM157.724673 157.725976c16.418589-16.41859 16.418589-43.035735 0-59.4521115-16.416377-16.4185897-43.033522-16.4185897-59.449899 0-16.4185897 16.4185895-16.4185897 43.0335215 0 59.4521115 16.41859 16.416377 43.033522 16.416377 59.452112 0h-.002213z" fill="#2962ff" fill-rule="evenodd"/></svg>