<svg width="256px" height="259px" viewBox="0 0 256 259" xmlns="http://www.w3.org/2000/svg" preserveAspectRatio="xMidYMid"><title>Hasura</title><path d="M233.499698 2.05686804c1.607585-2.470471459 5.207508-2.790179531 7.142134-.55221372C255.17328 18.2989901 259.840841 63.3409266 252.716593 86.8400398l-.348171 1.102523c-2.530992 7.7018874-3.244337 15.8400352-1.785688 23.7454692l.591461 3.215099h0l.570281 3.32465c1.013177 6.156455 1.812957 12.542183 1.812957 17.380411 0 67.720882-56.216455 122.651518-125.587432 122.651518-69.3411889 0-125.58808337-54.901779-125.58808337-122.651518 0-5.278067.95232091-12.397786 2.09512189-19.052425l.58374679-3.277884c.09876101-.536295.19796303-1.06669.2971652-1.589851 1.40047192-7.440408.87652407-15.0869579-1.29892944-22.3819201l-.42718449-1.3635491C-3.98676943 64.8071132.596300401 18.5945164 15.3573732 1.50465432c1.8325383-2.09264347 5.1610021-1.941927865 6.8726701.18030081l.269774.37191291L40.6831848 29.929869c4.523641 5.551304 12.6183489 6.8591541 18.6896901 2.9644602 19.7310056-12.6139428 43.3008541-19.9382758 68.6269141-19.9382758 25.326059 0 48.895287 7.324333 68.626293 19.9382758 5.898657 3.7648708 13.659044 2.695218 18.229691-2.4208137l.46124-.5436465 18.182685-27.87300096zM127.999789 40.9741435c-14.880015 0-28.9864891 3.255197-41.5750507 9.1264046-31.3970907 14.532185-53.5979627 45.0207621-55.532588 80.7118829-.089362 1.685777-.1486264 3.371554-.1486264 5.086498 0 52.3742 43.5987272 94.983429 97.2264771 94.983429 53.628061 0 97.255644-42.609229 97.286052-94.954573 0-1.685777-.059264-3.40041-.148936-5.086187-1.934626-35.6622646-24.135498-66.1796981-55.531968-80.7121935-12.618659-5.900064-26.695346-9.155261-41.57536-9.155261zm-6.458887 52.9839093c.859294 0 1.672977.3784358 2.202002 1.0376103l.2086.2994065 21.308183 35.0807914 24.849462 42.086089c.506695.843043.506695 1.889013 0 2.70289-.41648.737663-1.175286 1.230163-2.035917 1.341761l-.374375.024112h-20.206982c-.859566 0-1.673283-.400291-2.202312-1.065137l-.2086-.300736-13.27274-22.467407-14.790962 22.553666c-.442544.687164-1.181564 1.129403-1.997347 1.229225l-.353681.021533H94.1613776c-1.0416258 0-1.9938896-.553238-2.4701767-1.424828-.4164796-.762912-.4457337-1.680952-.0678069-2.463315l.1869563-.326144 27.3497367-40.749073-20.3857064-33.4533471c-.5060743-.8427333-.5358617-1.8890134-.0297873-2.7317467.4425436-.7631841 1.2041326-1.2591112 2.0654677-1.3711682l.374611-.0241822h20.35623z" fill="#1eb4d4"/></svg>