<svg width="256px" height="256px" viewBox="0 0 256 256" xmlns="http://www.w3.org/2000/svg" preserveAspectRatio="xMidYMid"><g style="fill:#fbc707" transform="matrix(1 0 0 -1 0 31.998218)"><path d="M127.945883.00796951499 55.0723993 8.078438 0 31.9945425h63.970692L127.945883.00367497216"/><path d="M127.945883.00796951499 202.488308 6.40970136l53.403458 25.58484114h-63.975191L127.945883.00367497216"/></g><path d="M127.945883 255.885829l69.535806-2.503309 58.410077-29.483264h-63.975191l-63.970692 31.992095" fill="#f68712" transform="matrix(1 0 0 -1 0 479.790608)"/><path d="M127.945883 255.885625H57.8538315L0 223.899256h63.970692l63.975191 31.991891" fill="#f25c19" transform="matrix(1 0 0 -1 0 479.790402)"/><g style="fill:#fff200"><path d="M31.985346 255.88951v-67.307347L0 127.946899v63.970692l31.985346 63.973556" transform="matrix(1 0 0 -1 0 383.838046)"/><path d="M31.985346.00367497216 26.7016268 66.7613208 0 127.948536V63.9782525L31.985346.00531098847" transform="matrix(1 0 0 -1 0 127.95221)"/></g><g style="fill:#f1471d"><path d="M223.900899.00367497216 230.858876 70.0989986l25.03289 57.8495374V63.9782525L223.900899.00531098847" transform="matrix(1 0 0 -1 0 127.95221)"/><path d="M223.900899 255.88951l5.845281-75.095398 26.145382-52.847213v63.970692l-31.990663 63.973556" transform="matrix(1 0 0 -1 0 383.838046)"/></g><g transform="matrix(1 0 0 -1 0 127.95221)"><path d="M0 127.948536l127.945883-31.9865735-20.582517-81.4916087L31.985346.00367497216 0 127.941787" fill="#fab20b"/><path d="M255.891766 127.948536 223.900899.00367497216 137.958916 15.5867304 127.945679 95.965848l127.946087 31.975939" fill="#f47216"/></g><path d="M255.891766 127.954875l-127.945883 31.986369 14.463407 84.827446 81.491609 11.122457 31.990867-127.928501" fill="#f25c19" transform="matrix(1 0 0 -1 0 383.846022)"/><path d="M0 127.948536l31.985346 127.942611 77.046757-17.241567 18.91378-78.714471L0 127.956307" fill="#f89c0e" transform="matrix(1 0 0 -1 0 383.839682)"/><path d="M127.945883 223.904778 31.985346 127.94649l95.960537-95.956242 95.955016 95.956242-95.955016 95.953993" fill="#f68712" transform="matrix(1 0 0 -1 0 255.895026)"/></svg>