<svg width="256px" height="256px" viewBox="0 0 256 256" xmlns="http://www.w3.org/2000/svg" preserveAspectRatio="xMidYMid"><title>hCaptcha</title><defs><linearGradient x1="49.9788405%" y1="-702.200592%" x2="49.9788405%" y2="97.9686839%" id="g"><stop stop-color="#00d4bf" offset="0%"/><stop stop-color="#0074bf" offset="100%"/></linearGradient><linearGradient x1="50%" y1="-602.242912%" x2="50%" y2="197.926365%" id="i"><stop stop-color="#00d4bf" offset="0%"/><stop stop-color="#0074bf" offset="100%"/></linearGradient><linearGradient x1="49.9788405%" y1="-602.242912%" x2="49.9788405%" y2="197.926365%" id="e"><stop stop-color="#00d4bf" offset="0%"/><stop stop-color="#0074bf" offset="100%"/></linearGradient><linearGradient x1="50.0211595%" y1="-502.497883%" x2="50.0211595%" y2="298.010161%" id="j"><stop stop-color="#00d4bf" offset="0%"/><stop stop-color="#0074bf" offset="100%"/></linearGradient><linearGradient x1="50%" y1="-502.497883%" x2="50%" y2="298.010161%" id="k"><stop stop-color="#00d4bf" offset="0%"/><stop stop-color="#0074bf" offset="100%"/></linearGradient><linearGradient x1="49.9788405%" y1="-502.497883%" x2="49.9788405%" y2="298.010161%" id="a"><stop stop-color="#00d4bf" offset="0%"/><stop stop-color="#0074bf" offset="100%"/></linearGradient><linearGradient x1="50.0211595%" y1="-402.285231%" x2="50.0211595%" y2="397.884046%" id="l"><stop stop-color="#00d4bf" offset="0%"/><stop stop-color="#0074bf" offset="100%"/></linearGradient><linearGradient x1="50%" y1="-402.285231%" x2="50%" y2="397.884046%" id="m"><stop stop-color="#00d4bf" offset="0%"/><stop stop-color="#0074bf" offset="100%"/></linearGradient><linearGradient x1="49.9788405%" y1="-402.285231%" x2="49.9788405%" y2="397.884046%" id="b"><stop stop-color="#00d4bf" offset="0%"/><stop stop-color="#0074bf" offset="100%"/></linearGradient><linearGradient x1="50.0211595%" y1="-302.32755%" x2="50.0211595%" y2="497.841727%" id="n"><stop stop-color="#00d4bf" offset="0%"/><stop stop-color="#0074bf" offset="100%"/></linearGradient><linearGradient x1="50%" y1="-302.32755%" x2="50%" y2="497.841727%" id="o"><stop stop-color="#00d4bf" offset="0%"/><stop stop-color="#0074bf" offset="100%"/></linearGradient><linearGradient x1="49.9788405%" y1="-302.32755%" x2="49.9788405%" y2="497.841727%" id="c"><stop stop-color="#00d4bf" offset="0%"/><stop stop-color="#0074bf" offset="100%"/></linearGradient><linearGradient x1="50.0211595%" y1="-202.32755%" x2="50.0211595%" y2="597.841727%" id="p"><stop stop-color="#00d4bf" offset="0%"/><stop stop-color="#0074bf" offset="100%"/></linearGradient><linearGradient x1="50%" y1="-202.32755%" x2="50%" y2="597.841727%" id="q"><stop stop-color="#00d4bf" offset="0%"/><stop stop-color="#0074bf" offset="100%"/></linearGradient><linearGradient x1="49.9788405%" y1="-202.32755%" x2="49.9788405%" y2="597.841727%" id="d"><stop stop-color="#00d4bf" offset="0%"/><stop stop-color="#0074bf" offset="100%"/></linearGradient><linearGradient x1="50%" y1="-102.369869%" x2="50%" y2="697.799408%" id="r"><stop stop-color="#00d4bf" offset="0%"/><stop stop-color="#0074bf" offset="100%"/></linearGradient><linearGradient x1="49.9788405%" y1="-102.369869%" x2="49.9788405%" y2="697.799408%" id="f"><stop stop-color="#00d4bf" offset="0%"/><stop stop-color="#0074bf" offset="100%"/></linearGradient><linearGradient x1="49.9788405%" y1="-2.36986881%" x2="49.9788405%" y2="797.799408%" id="h"><stop stop-color="#00d4bf" offset="0%"/><stop stop-color="#0074bf" offset="100%"/></linearGradient></defs><g style="fill:url(#g)"><path opacity="0.5" d="M160.006772 223.993228h32.0067725v32.0067725H160.006772z"/><path opacity="0.7" d="M128 223.993228h32.0067725v32.0067725H128z"/><path opacity="0.7" d="M96.0067725 223.993228h32.0067725v32.0067725H96.0067725z"/><path opacity="0.5" d="M64 223.993228h32.0067725v32.0067725H64z"/></g><path fill="url(#i)" opacity="0.7" d="M192 192h31.9932275v32.0067725H192z"/><g style="fill:url(#e)"><path opacity="0.8" d="M160.006772 192h32.0067725v32.0067725H160.006772z"/><path d="M128 192h32.0067725v32.0067725H128z"/><path d="M96.0067725 192h32.0067725v32.0067725H96.0067725z"/><path opacity="0.8" d="M64 192h32.0067725v32.0067725H64z"/><path opacity="0.7" d="M32.0067725 192H64.013545v32.0067725H32.0067725z"/></g><path fill="url(#j)" opacity="0.5" d="M223.993228 160.006772h32.0067725v31.9932275H223.993228z"/><path fill="url(#k)" opacity="0.8" d="M192 160.006772h31.9932275v31.9932275H192z"/><g style="fill:url(#a)"><path d="M160.006772 160.006772h32.0067725v31.9932275H160.006772z"/><path d="M128 160.006772h32.0067725v31.9932275H128z"/><path d="M96.0067725 160.006772h32.0067725v31.9932275H96.0067725z"/><path d="M64 160.006772h32.0067725v31.9932275H64z"/><path opacity="0.8" d="M32.0067725 160.006772H64.013545v31.9932275H32.0067725z"/><path opacity="0.5" d="M0 160.006772h32.0067725v31.9932275H0z"/></g><path fill="url(#l)" opacity="0.7" d="M223.993228 128h32.0067725v32.0067725H223.993228z"/><path fill="url(#m)" d="M192 128h31.9932275v32.0067725H192z"/><g style="fill:url(#b)"><path d="M160.006772 128h32.0067725v32.0067725H160.006772z"/><path d="M128 128h32.0067725v32.0067725H128z"/><path d="M96.0067725 128h32.0067725v32.0067725H96.0067725z"/><path d="M64 128h32.0067725v32.0067725H64z"/><path d="M32.0067725 128H64.013545v32.0067725H32.0067725z"/><path opacity="0.7" d="M0 128h32.0067725v32.0067725H0z"/></g><path fill="url(#n)" opacity="0.7" d="M223.993228 96.0067725h32.0067725v32.0067725H223.993228z"/><path fill="url(#o)" d="M192 96.0067725h31.9932275v32.0067725H192z"/><g style="fill:url(#c)"><path d="M160.006772 96.0067725h32.0067725v32.0067725H160.006772z"/><path d="M128 96.0067725h32.0067725v32.0067725H128z"/><path d="M96.0067725 96.0067725h32.0067725v32.0067725H96.0067725z"/><path d="M64 96.0067725h32.0067725v32.0067725H64z"/><path d="M32.0067725 96.0067725H64.013545v32.0067725H32.0067725z"/><path opacity="0.7" d="M0 96.0067725h32.0067725v32.0067725H0z"/></g><path fill="url(#p)" opacity="0.5" d="M223.993228 64h32.0067725v32.0067725H223.993228z"/><path fill="url(#q)" opacity="0.8" d="M192 64h31.9932275v32.0067725H192z"/><g style="fill:url(#d)"><path d="M160.006772 64h32.0067725v32.0067725H160.006772z"/><path d="M128 64h32.0067725v32.0067725H128z"/><path d="M96.0067725 64h32.0067725v32.0067725H96.0067725z"/><path d="M64 64h32.0067725v32.0067725H64z"/><path opacity="0.8" d="M32.0067725 64H64.013545v32.0067725H32.0067725z"/><path opacity="0.5" d="M0 64h32.0067725v32.0067725H0z"/></g><path fill="url(#r)" opacity="0.7" d="M192 32.0067725h31.9932275V64.013545H192z"/><g style="fill:url(#f)"><path opacity="0.8" d="M160.006772 32.0067725h32.0067725V64.013545H160.006772z"/><path d="M128 32.0067725h32.0067725V64.013545H128z"/><path d="M96.0067725 32.0067725h32.0067725V64.013545H96.0067725z"/><path opacity="0.8" d="M64 32.0067725h32.0067725V64.013545H64z"/><path opacity="0.7" d="M32.0067725 32.0067725H64.013545V64.013545H32.0067725z"/></g><g style="fill:url(#h)"><path opacity="0.5" d="M160.006772 0h32.0067725v32.0067725H160.006772z"/><path opacity="0.7" d="M128 0h32.0067725v32.0067725H128z"/><path opacity="0.7" d="M96.0067725 0h32.0067725v32.0067725H96.0067725z"/><path opacity="0.5" d="M64 0h32.0067725v32.0067725H64z"/></g><path d="M84.2497354 117.84127l8.9125926-19.9517462c3.2507937-5.12 2.8173545-11.3777778-.7449735-14.8994709-.4756825-.4765518-1.0026266-.8990157-1.5712169-1.2596825-2.4703823-1.5037723-5.4769278-1.8455377-8.221799-.9346032-3.0811922.9662389-5.7113616 3.0097891-7.4091005 5.7566138 0 0-12.1904762 28.444444-16.7551323 41.285079-4.5646561 12.840635-2.7089947 36.273439 14.7775662 53.827725 18.5566137 18.556614 45.470476 22.836826 62.604868 9.942011.721756-.373785 1.398812-.828185 2.018201-1.354498l52.825397-44.143068c2.573545-2.153651 6.379682-6.501588 2.952804-11.486138-3.426879-4.98455-9.630476-1.557672-12.190476.094815l-30.422011 22.118942c-.286201.24183-.659791.354302-1.031932.310671-.372142-.04363-.709585-.239465-.932089-.540936-.903215-1.391084-.781889-3.210964.297989-4.469841l46.635344-39.578413c4.063492-3.630053 4.591746-8.899047 1.354498-12.515555-3.237249-3.6165083-8.248889-3.4404237-12.298836.230264l-41.989418 32.833016c-.399315.329651-.917483.478891-1.430967.412138-.513484-.066753-.976271-.343517-1.278028-.764307-.937049-.92464-1.030331-2.405506-.21672-3.440424l47.556402-46.1477244c3.745272-3.4980584 3.957218-9.3659328.474074-13.1250794-1.691744-1.7497584-4.027178-2.728976-6.460952-2.7089947-2.495671-.0110348-4.895057.9623468-6.677672 2.7089947l-48.53164 45.5788358c-1.164868 1.164868-3.440423 0-3.711323-1.354497-.100223-.493564.058065-1.00417.419894-1.354498l37.194498-42.3551318c2.490311-2.2736686 3.531795-5.730692 2.711883-9.001619-.819912-3.2709271-3.368913-5.8279357-6.637253-6.6581028-3.268339-.8301672-6.728612.2004692-9.01008 2.6836371L91.0357672 119.886561c-2.0182011 2.018201-4.9980952 2.113016-6.4203175.948148-.4499259-.345315-.7421425-.857009-.8109228-1.419988-.0687802-.562978.0916511-1.129973.4452085-1.573451z" fill="#fff"/></svg>