<svg width="256" height="256" xmlns="http://www.w3.org/2000/svg" preserveAspectRatio="xMidYMid"><defs><linearGradient x1="49.979%" y1="-702.201%" x2="49.979%" y2="97.969%" id="a"><stop stop-color="#00D4BF" offset="0%"/><stop stop-color="#0074BF" offset="100%"/></linearGradient><linearGradient x1="50%" y1="-602.243%" x2="50%" y2="197.926%" id="b"><stop stop-color="#00D4BF" offset="0%"/><stop stop-color="#0074BF" offset="100%"/></linearGradient><linearGradient x1="49.979%" y1="-602.243%" x2="49.979%" y2="197.926%" id="c"><stop stop-color="#00D4BF" offset="0%"/><stop stop-color="#0074BF" offset="100%"/></linearGradient><linearGradient x1="50.021%" y1="-502.498%" x2="50.021%" y2="298.01%" id="d"><stop stop-color="#00D4BF" offset="0%"/><stop stop-color="#0074BF" offset="100%"/></linearGradient><linearGradient x1="50%" y1="-502.498%" x2="50%" y2="298.01%" id="e"><stop stop-color="#00D4BF" offset="0%"/><stop stop-color="#0074BF" offset="100%"/></linearGradient><linearGradient x1="49.979%" y1="-502.498%" x2="49.979%" y2="298.01%" id="f"><stop stop-color="#00D4BF" offset="0%"/><stop stop-color="#0074BF" offset="100%"/></linearGradient><linearGradient x1="50.021%" y1="-402.285%" x2="50.021%" y2="397.884%" id="g"><stop stop-color="#00D4BF" offset="0%"/><stop stop-color="#0074BF" offset="100%"/></linearGradient><linearGradient x1="50%" y1="-402.285%" x2="50%" y2="397.884%" id="h"><stop stop-color="#00D4BF" offset="0%"/><stop stop-color="#0074BF" offset="100%"/></linearGradient><linearGradient x1="49.979%" y1="-402.285%" x2="49.979%" y2="397.884%" id="i"><stop stop-color="#00D4BF" offset="0%"/><stop stop-color="#0074BF" offset="100%"/></linearGradient><linearGradient x1="50.021%" y1="-302.328%" x2="50.021%" y2="497.842%" id="j"><stop stop-color="#00D4BF" offset="0%"/><stop stop-color="#0074BF" offset="100%"/></linearGradient><linearGradient x1="50%" y1="-302.328%" x2="50%" y2="497.842%" id="k"><stop stop-color="#00D4BF" offset="0%"/><stop stop-color="#0074BF" offset="100%"/></linearGradient><linearGradient x1="49.979%" y1="-302.328%" x2="49.979%" y2="497.842%" id="l"><stop stop-color="#00D4BF" offset="0%"/><stop stop-color="#0074BF" offset="100%"/></linearGradient><linearGradient x1="50.021%" y1="-202.328%" x2="50.021%" y2="597.842%" id="m"><stop stop-color="#00D4BF" offset="0%"/><stop stop-color="#0074BF" offset="100%"/></linearGradient><linearGradient x1="50%" y1="-202.328%" x2="50%" y2="597.842%" id="n"><stop stop-color="#00D4BF" offset="0%"/><stop stop-color="#0074BF" offset="100%"/></linearGradient><linearGradient x1="49.979%" y1="-202.328%" x2="49.979%" y2="597.842%" id="o"><stop stop-color="#00D4BF" offset="0%"/><stop stop-color="#0074BF" offset="100%"/></linearGradient><linearGradient x1="50%" y1="-102.37%" x2="50%" y2="697.799%" id="p"><stop stop-color="#00D4BF" offset="0%"/><stop stop-color="#0074BF" offset="100%"/></linearGradient><linearGradient x1="49.979%" y1="-102.37%" x2="49.979%" y2="697.799%" id="q"><stop stop-color="#00D4BF" offset="0%"/><stop stop-color="#0074BF" offset="100%"/></linearGradient><linearGradient x1="49.979%" y1="-2.37%" x2="49.979%" y2="797.799%" id="r"><stop stop-color="#00D4BF" offset="0%"/><stop stop-color="#0074BF" offset="100%"/></linearGradient></defs><path fill="url(#a)" opacity=".5" d="M160.007 223.993h32.007V256h-32.007z"/><path fill="url(#a)" opacity=".7" d="M128 223.993h32.007V256H128z"/><path fill="url(#a)" opacity=".7" d="M96.007 223.993h32.007V256H96.007z"/><path fill="url(#a)" opacity=".5" d="M64 223.993h32.007V256H64z"/><path fill="url(#b)" opacity=".7" d="M192 192h31.993v32.007H192z"/><path fill="url(#c)" opacity=".8" d="M160.007 192h32.007v32.007h-32.007z"/><path fill="url(#c)" d="M128 192h32.007v32.007H128z"/><path fill="url(#c)" d="M96.007 192h32.007v32.007H96.007z"/><path fill="url(#c)" opacity=".8" d="M64 192h32.007v32.007H64z"/><path fill="url(#c)" opacity=".7" d="M32.007 192h32.007v32.007H32.007z"/><path fill="url(#d)" opacity=".5" d="M223.993 160.007H256V192h-32.007z"/><path fill="url(#e)" opacity=".8" d="M192 160.007h31.993V192H192z"/><path fill="url(#f)" d="M160.007 160.007h32.007V192h-32.007zM128 160.007h32.007V192H128z"/><path fill="url(#f)" d="M96.007 160.007h32.007V192H96.007zM64 160.007h32.007V192H64z"/><path fill="url(#f)" opacity=".8" d="M32.007 160.007h32.007V192H32.007z"/><path fill="url(#f)" opacity=".5" d="M0 160.007h32.007V192H0z"/><path fill="url(#g)" opacity=".7" d="M223.993 128H256v32.007h-32.007z"/><path fill="url(#h)" d="M192 128h31.993v32.007H192z"/><path fill="url(#i)" d="M160.007 128h32.007v32.007h-32.007zM128 128h32.007v32.007H128z"/><path fill="url(#i)" d="M96.007 128h32.007v32.007H96.007zM64 128h32.007v32.007H64z"/><path fill="url(#i)" d="M32.007 128h32.007v32.007H32.007z"/><path fill="url(#i)" opacity=".7" d="M0 128h32.007v32.007H0z"/><path fill="url(#j)" opacity=".7" d="M223.993 96.007H256v32.007h-32.007z"/><path fill="url(#k)" d="M192 96.007h31.993v32.007H192z"/><path fill="url(#l)" d="M160.007 96.007h32.007v32.007h-32.007zM128 96.007h32.007v32.007H128z"/><path fill="url(#l)" d="M96.007 96.007h32.007v32.007H96.007zM64 96.007h32.007v32.007H64z"/><path fill="url(#l)" d="M32.007 96.007h32.007v32.007H32.007z"/><path fill="url(#l)" opacity=".7" d="M0 96.007h32.007v32.007H0z"/><path fill="url(#m)" opacity=".5" d="M223.993 64H256v32.007h-32.007z"/><path fill="url(#n)" opacity=".8" d="M192 64h31.993v32.007H192z"/><path fill="url(#o)" d="M160.007 64h32.007v32.007h-32.007zM128 64h32.007v32.007H128z"/><path fill="url(#o)" d="M96.007 64h32.007v32.007H96.007zM64 64h32.007v32.007H64z"/><path fill="url(#o)" opacity=".8" d="M32.007 64h32.007v32.007H32.007z"/><path fill="url(#o)" opacity=".5" d="M0 64h32.007v32.007H0z"/><path fill="url(#p)" opacity=".7" d="M192 32.007h31.993v32.007H192z"/><path fill="url(#q)" opacity=".8" d="M160.007 32.007h32.007v32.007h-32.007z"/><path fill="url(#q)" d="M128 32.007h32.007v32.007H128z"/><path fill="url(#q)" d="M96.007 32.007h32.007v32.007H96.007z"/><path fill="url(#q)" opacity=".8" d="M64 32.007h32.007v32.007H64z"/><path fill="url(#q)" opacity=".7" d="M32.007 32.007h32.007v32.007H32.007z"/><path fill="url(#r)" opacity=".5" d="M160.007 0h32.007v32.007h-32.007z"/><path fill="url(#r)" opacity=".7" d="M128 0h32.007v32.007H128z"/><path fill="url(#r)" opacity=".7" d="M96.007 0h32.007v32.007H96.007z"/><path fill="url(#r)" opacity=".5" d="M64 0h32.007v32.007H64z"/><path d="M84.25 117.841l8.912-19.951c3.251-5.12 2.818-11.378-.745-14.9a9.13 9.13 0 00-1.57-1.26 9.847 9.847 0 00-8.223-.934 13.437 13.437 0 00-7.409 5.756s-12.19 28.445-16.755 41.285c-4.565 12.841-2.709 36.274 14.778 53.828 18.556 18.557 45.47 22.837 62.605 9.942a10.755 10.755 0 002.018-1.354l52.825-44.143c2.574-2.154 6.38-6.502 2.953-11.487-3.427-4.984-9.63-1.557-12.19.095l-30.423 22.12a1.354 1.354 0 01-1.964-.231 3.738 3.738 0 01.298-4.47l46.636-39.578c4.063-3.63 4.592-8.9 1.354-12.516-3.237-3.616-8.249-3.44-12.299.23l-41.989 32.833a1.87 1.87 0 01-2.709-.352 2.587 2.587 0 01-.217-3.44l47.557-46.148a9.305 9.305 0 00.474-13.125 8.886 8.886 0 00-6.461-2.709 9.481 9.481 0 00-6.678 2.71l-48.531 45.578c-1.165 1.165-3.44 0-3.712-1.355-.1-.493.058-1.004.42-1.354L160.4 70.556a9.17 9.17 0 10-12.936-12.976l-56.428 62.307c-2.018 2.018-4.998 2.113-6.42.948a2.113 2.113 0 01-.366-2.994z" fill="#FFF"/></svg>