<svg width="256px" height="256px" viewBox="0 0 256 256" xmlns="http://www.w3.org/2000/svg" preserveAspectRatio="xMidYMid"><title>Headless UI</title><defs><linearGradient x1="35.8706002%" y1="7.22395026%" x2="60.3143692%" y2="115.987925%" id="a"><stop stop-color="#66e3ff" offset="0%"/><stop stop-color="#7064f9" offset="100%"/></linearGradient><linearGradient x1="39.1716101%" y1="-0.000258114803%" x2="55.0500969%" y2="99.1811839%" id="b"><stop stop-color="#66e3ff" offset="0%"/><stop stop-color="#7064f9" offset="100%"/></linearGradient></defs><path d="M50.6986759 159.08871l156.2250531-52.152317c-3.121299-19.5231135-5.346226-32.5651931-7.923299-42.5187806-2.777156-10.7057073-4.978073-13.5701642-5.842433-14.5623223-3.012187-3.4468433-6.762612-6.1707408-10.972569-7.969271-1.216506-.5200828-4.625926-1.7282755-15.654518-1.0641697-11.66886.7041124-26.987238 3.0884925-51.24534 6.9291052-24.2500976 3.8406124-39.5604728 6.3130067-50.8691818 9.2414737-10.7004558 2.7764428-13.5736523 4.9847948-14.5660654 5.8489328-3.4414333 3.0164809-6.1625664 6.7610783-7.9633162 10.9697492-.5202167 1.2161942-1.7287197 4.6247378-1.0644432 15.6584973.7042934 11.6658604 3.0892863 26.9883044 6.930886 51.2401714 1.0724467 6.801085 2.0408498 12.882054 2.9452265 18.378931h0z" fill="url(#a)"/><path d="M7.62473955 147.062792C.197646837 100.14331-3.52390284 76.6835685 4.52744981 57.8485649 8.72454124 48.0252484 15.0819292 39.2737796 23.1271949 32.2444815 38.549617 18.778334 62.0073849 15.065742 108.922921 7.63255653 155.854464.191369851 179.312232-3.52122222 198.16008 4.52806145c9.820487 4.1973677 18.568702 10.55309895 25.594658 18.59496545 13.477612 15.4264602 17.191158 38.8862015 24.618251 85.8136851 7.435096 46.919483 11.148643 70.387225 3.09729 89.214228-4.194294 9.822807-10.548971 18.57431-18.591742 25.604083-15.422422 13.474149-38.888193 17.186741-85.811733 24.619926-46.915535 7.433186-70.3813069 11.145778-89.2131486 3.096494-9.8203506-4.197608-18.5685161-10.553303-25.5946578-18.594966-13.4776123-15.42646-17.1911587-38.886201-24.62625473-85.813685h-.00800332zm82.76246305 83.325289c12.5652324-.760121 28.7479714-3.296526 52.7019454-7.089131 23.961978-3.792605 40.120707-6.385018 52.317786-9.545522 11.804915-3.064489 17.247182-6.048965 20.760644-9.121455 5.169075-4.519207 9.253203-10.144721 11.948976-16.458624 1.840767-4.288684 3.00125-10.385657 2.264943-22.563599-.760316-12.562003-3.297373-28.748585-7.090953-52.704405-3.793579-23.9558204-6.378655-40.1263993-9.539972-52.3123424-3.065276-11.8098837-6.058523-17.2507512-9.123799-20.7633113-4.51704-5.1698812-10.14129-9.2557127-16.454852-11.9539064-4.289786-1.8402935-10.388326-3.0004785-22.569398-2.2643611-12.565232.7601212-28.739968 3.2965257-52.701946 7.0891305-23.9539742 3.8006062-40.1207063 6.3850182-52.309782 9.5455221-11.8129189 3.0644889-17.2471817 6.056966-20.7606447 9.1214548-5.1717741 4.5185467-9.2586492 10.1440765-11.9569791 16.4586247-1.8327632 4.288684-2.9932464 10.3856564-2.2569399 22.5635983.7603167 12.5700048 3.2893699 28.7485848 7.0909527 52.7044048 3.7935799 23.955821 6.3786562 40.126399 9.5399725 52.312343 3.0652766 11.809883 6.0505196 17.250751 9.1237994 20.763311 4.5172263 5.169677 10.1414258 9.255473 16.454852 11.953907 4.2897863 1.840293 10.3803223 3.000478 22.569398 2.264361h-.0080033z" fill="url(#b)"/></svg>