<svg width="256px" height="297px" viewBox="0 0 256 297" xmlns="http://www.w3.org/2000/svg" preserveAspectRatio="xMidYMid"><title>Helm</title><g fill="#0f1689"><path d="M60.3487518 70.5371632l-.810831-.7675711c-.0925386-.0880336-.1853488-.1766645-.2778868-.265574-7.5890066-7.2908904-13.4621578-15.7210668-17.009862-25.6853188-.9515451-2.6725843-1.679614-5.3962179-1.6216098-8.2621539l.0120698-.3746322c.0126316-.2850516.0117835-.5709152.0314345-.8554194.2676682-3.8772429 2.862618-5.8365018 6.6516386-4.9182917 1.1951404.3095303 2.3516013.7527311 3.4475001 1.3212162 4.0063287 2.0091359 7.2964456 4.9472775 10.317281 8.1847441l.311558.3359523c5.5173675 5.8715711 9.9420687 12.6810827 13.0658164 20.107986.0681839.1769415.1463977.3498529.2342608.5178928.0142676.0257743.0338819.0485893.0611997.0743712l.2116952.1810711c.0198475.0173779.0409873.036183.0635069.0566347 14.7876145-8.8716824 31.5151518-14.0044629 48.7337208-14.9537553l-.043115-.2185776h0l-.111764-.5845954c-.023749-.1207358-.047696-.2366965-.073683-.3505639l-.040742-.1695665c-1.756895-7.2706419-2.296119-14.7822754-1.595736-22.2293135.308206-4.4626797 1.207162-8.8647398 2.673338-13.09094719.709264-2.22594926 1.826297-4.30058801 3.294129-6.11810676.554551-.64919136 1.194649-1.22011238 1.902766-1.697130579 1.444684-1.021546032 3.372805-1.034988191 4.831591-.033684086 1.504898 1.019336155 2.716153 2.415518915 3.51289 4.049218145 1.484053 2.7707218 2.550631 5.74549027 3.165191 8.82796147 1.401172 6.5182072 1.831407 13.2076964 1.276765 19.8516921-.274625 4.0551094-.97841 8.0696747-2.099553 11.9763829.713953.1315213 1.427341.2581108 2.139838.3823496l3.199144.5519174c2.481853.4304779 4.946862.879585 7.381151 1.4579828 4.163866.9682571 8.268939 2.1738908 12.295107 3.6109942 4.05907 1.4897747 8.029509 3.2107402 11.891824 5.1544472 2.226441 1.1102871 4.390408 2.345837 6.563195 3.6122436l1.866211 1.0908464c.935848.5469996 1.877058 1.0947127 2.829241 1.6357077l.080037-.1620877h0l.17839-.3548934c.059876-.1241936.117726-.2536627.166233-.3865464 3.967319-10.97443 10.800524-20.6865375 19.789888-28.1275775 2.098464-1.8015003 4.508324-3.2045682 7.110951-4.1401351.716677-.2498783 1.458614-.4203458 2.212485-.508341 3.767806-.431451 5.34946 1.9394816 5.627967 4.771008.208747 2.0873782.05123 4.1951771-.465447 6.2283439-1.327086 5.0643128-3.398657 9.9024058-6.146072 14.3563533l-.308046.4932942c-3.982184 6.434554-8.690461 12.2466325-14.633889 16.9796035l-.459631.3619386c-.040413.0314652-.079732.0643366-.119827.0995519l-.191979.1774558h0l-.240338.2280893c-.030794.0288596-.063184.0590085-.097406.0905639 6.026335 5.5583112 11.393488 11.7911997 15.995689 18.5758353-.333451.0861121-.673136.1459682-1.015936.1790188-6.373186.0090226-12.74648-.0110014-19.119461.0277112-.760981-.018248-1.468544-.3951733-1.908239-1.0165376-13.905108-15.1918605-32.651087-25.0877399-53.039059-27.9989704-5.777956-.8406536-11.625701-1.0921923-17.453208-.7511397l-.759988.0478461c-17.93888 1.0953498-35.108531 7.6526893-49.2067344 18.7847245l-.4395665.3493643c-3.6615935 2.8882119-7.0770552 6.0754619-10.2111864 9.5289032-.564052.6997324-1.4256568 1.0916816-2.3237568 1.0570908-3.6525195-.0253641-7.3052035-.0278702-10.9579183-.0258103l-8.5999344.0047878c.0285945-.1114165.0771355-.2446219.1443136-.3976896l.0894755-.1930918c.0327513-.0674597.0684006-.137974.1068643-.2114197l.12375-.2290079h0l.1401328-.2458563h0l.1560129-.2619649h0l.17139-.2773337h0l.1862643-.2919627h0l.3061856-.4637551h0l.336824-.492509h0l.2407325-.3430807h0l.3841164-.5348837c.0441617-.0607053.088807-.1218198.1339254-.183328l.4185559-.5637899h0l.2923917-.3864399h0l.3024887-.3940409h0l.4715648-.6036949h0l.4914541-.6166356h0l.3378476-.4170467h0l.3454302-.4209487h0l.3525098-.4241109h0l.3590866-.4265333h0l.3651605-.4282159h0l.5580293-.6438603h0l.3781452-.4291858h0l.382459-.428279h0l.38627-.4266326h0l.389578-.4242463h0c1.8956213-2.0494877 3.8587426-4.0365447 5.8602336-6.0452228l2.013202-2.0189982c.6746113-.6774771 1.3524071-1.3604696 2.0323083-2.0520905zM215.536125 206.944191c-4.233974 5.926117-9.066069 11.401179-14.420055 16.338815l1.120068.93267h0c9.292878 7.602028 16.304408 17.624074 20.260545 28.959743 1.052565 2.764375 1.50409 5.721282 1.324506 8.673808-.048383.661783-.17016 1.315841-.362899 1.950169l-.08694.270611c-.632823 2.10576-2.741817 3.40433-4.907007 3.021391-1.411518-.183226-2.784734-.590614-4.067811-1.206787-1.959706-.966823-3.811018-2.139349-5.522692-3.497792-8.876967-7.293623-15.649732-16.816754-19.626685-27.588611l-.261794-.71348h0l-.357118-.921326h0c-4.801049 3.174539-9.829648 5.990734-15.044895 8.425678-5.189885 2.36569-10.557022 4.321417-16.052212 5.849253-5.583569 1.515261-11.275427 2.598764-17.0252 3.240921l.078173.410148h0l.069538.372554c.023126.119323.046894.234486.073382.347595l.042034.168386c1.823723 7.154448 2.427841 14.565226 1.78694 21.920587-.240207 4.610183-1.135993 9.162632-2.660357 13.520131-.725615 1.803371-1.562252 3.560058-2.505103 5.259968-.382021.659189-.855642 1.260839-1.406702 1.786959-2.39403 2.47157-5.252462 2.492623-7.585879-.044306-.922076-1.023264-1.711641-2.158557-2.350066-3.379092-1.85073-3.474086-2.803238-7.251702-3.483295-11.103844-.875152-5.258091-1.149381-10.598664-.817399-15.918739.170218-3.666802.695278-7.307945 1.567516-10.872451l.167611-.667434c.084265-.320414.161203-.643366.223362-.968622.007028-.036769 2.74e-4-.076178-.015064-.131903l-.066565-.229795c-.006827-.025508-.013865-.05289-.021033-.08236-17.21582-.97295-33.9339263-6.133596-48.7027038-15.033846l-.5597676 1.239112c-.0345914.077529-.0688476.154736-.1028946.232035-4.066296 9.488032-10.2860318 17.89591-18.163482 24.559153l-.4235893.355287c-2.1385375 1.827543-4.5947921 3.24642-7.2463251 4.185904-1.2426133.498473-2.5987201.644223-3.9188788.421189-1.4300018-.256148-2.6287337-1.218803-3.1903302-2.550763l-.0597571-.149498c-.7836655-1.894778-.718633-3.859304-.4779768-5.815785l.0663212-.510152h0c.4744896-2.960682 1.3460339-5.843865 2.5910762-8.57162 3.6890785-8.591915 9.1187574-16.326049 15.9465035-22.71449l.5560254-.518806c.0923746-.086758.1841323-.17414.2745701-.26287.0862075-.123731.1598247-.255775.2197525-.394158-6.4332612-5.579357-12.1815226-11.90261-17.1241473-18.837055l.1904176-.016416h0l.6487442-.062644c.1933069-.017462.3694105-.029411.5455248-.029571 5.059523-.004697 10.1191538.008654 15.1785597-.007666l3.7945072-.018548c.851941-.025998 1.6702364.333308 2.2276248.978132 6.7191614 6.912639 14.5228435 12.678436 23.101086 17.070168l.5997349.304168c9.3251033 4.798627 19.4647875 7.812479 29.8970025 8.886385 28.342945 2.755146 52.723749-5.837207 73.142413-25.77706.924718-.99934 2.244716-1.537566 3.604564-1.469751 2.947776.036454 5.895903.043952 8.844143.042336l5.896557-.009503c.982761-.00165 1.965516-.002842 2.948257-.002842h1.523922l.105642.35633z"/><path d="M189.194219 116.628356c.372545 0 .742005.005619 1.10881.012781l1.092879.022037c.723848.01234 1.438795.014542 2.148277-.026012l.531141-.038942c1.801557-.163007 3.091117.481262 4.405121 1.692072 6.322157 5.825613 12.699376 11.591497 19.070715 17.363735l3.966199 3.595136h0l.449162.398932h0l.675477.595434h0l.798577-.679258c.171417-.146878.339087-.293113.503571-.442844 7.875111-7.168855 15.744409-14.344075 23.607895-21.525658.621191-.640078 1.474566-.997532 2.361763-.9947l.166697.004772c1.210101.049015 2.422309.045563 3.659776.036081l1.498567-.0113c.252275-.001375.505932-.002248.761154-.002248v63.379411c-.024974.0073-.057433.01446-.097024.021476l-.139819.020618h0l-.180501.019748h0l-.219072.018866h0l-.255532.017971h0l-.447039.025255h0l-.897449.037448h0l-1.059332.031484h0l-1.188222.025329h0l-1.817227.024763h0l-1.638593.010939h0l-1.653156.0011h0l-1.082039-.004893h0l-1.300282-.012616h0l-.977824-.01541h0l-.685881-.014723h0l-.637259-.017481h0l-.761729-.027669h0l-.496094-.024075h0l-.423718-.026969h0l-.238749-.019607h0l-.201303-.020923c-.030313-.003597-.058977-.00725-.085949-.010959l-.141174-.02292h0v-32.097326l-.322742-.152943-16.383615 14.941779h0l-16.516029-14.878604h0l-.315482.115441-.007416 2.679023h0l.001125 5.358439h0l-.001314 3.993618h0l9.65e-4 20.157228h-16.497984c-.015462-.053322-.03051-.251179-.045107-.579433l-.017298-.455589h0l-.016851-.575341h0l-.024409-1.075668h0l-.023324-1.31457h0l-.029331-2.092713h0l-.033665-3.101166h0l-.046414-5.883417h0l-.032477-5.840873h0l-.027012-7.154972h0l-.016432-8.245612h0l-.002139-5.378392h0l.008871-6.732129h0l.01271-3.81308h0l.022893-4.033288h0l.025704-2.809532h0l.025058-1.825538h0l.021489-1.094432h0l.015635-.588622h0l.016701-.469488h0l.017778-.344926c.003054-.046806.006153-.088195.009298-.124055zm-152.2408816.072553h16.3988868c.0132461.042165.0260659.180057.0384507.406049l.0182498.404108h0l.0175908.530537h0l.016925.651246h0l.024125 1.190682h0l.0367863 2.50697h0l.0262901 2.424343h0l.0288524 3.478806h0l.0366527 6.391633h0l.0168028 4.371299h0l.0180301 8.267869h0l.0030477 5.582773h0l-.0057913 6.346291h0l-.0104478 4.294282h0l-.0196428 4.748895h0l-.022411 3.515668h0l-.0342977 3.554992h0l-.0202299 1.460889h0l-.0146428.843554h0l-.0155755.732584h0l-.0165148.615892h0l-.0174606.49348h0l-.0184131.365348c-.0094457.149687-.0192511.24918-.0294199.29526H36.995635c-.0516295-2.304074-.0535558-4.603643-.0478406-6.900929l.009046-3.444495c7.103e-4-.57389 5.837e-4-1.147707-.0010369-1.721485l-.0036801-1.707523h0l-.0020153-3.422282h0l.0032293-6.924033h0H16.630062v23.904032c-.0309692.009251-.0699139.018292-.1164377.027124l-.1619121.025867h0l-.2050084.024607h0l-.3831154.034539h0l-.3023439.021441h0l-.7066259.039066h0l-.6098008.025948h0l-.904249.030108h0l-.7361676.019201h0l-1.0436037.021076h0l-1.65971637.021867h0l-1.71581001.010095h0l-1.42636382-6.37e-4h0l-1.38356385-.008916h0l-1.5514582-.021693h0l-.9386262-.021164h0l-.83988538-.026553h0l-.55366981-.023467h0l-.32834714-.017341h0l-.292959598-.018703h0l-.367885246-.030612c-.035858123-.003572-.069994026-.007201-.102358161-.010888l-.172527216-.022803C.0774687518 180.047976.0347944581 180.039917 0 180.031628v-63.323459h16.5642757v22.369096c.0249203.007199.0570352.014273.0960474.021223l.1374306.020476h0l.1770294.019721h0l.335888.028155h0l.414947.026424h0l.6658335.032503h0l.5759956.022302h0l.6349784.0205h0l1.4228131.035512h0l1.8634082.031992h0l1.1353713.013619h0l1.7613622.01394h0l1.7884989.006002h0l2.3435983-.004633h0l1.3950001-.010392h0l1.3078866-.016273h0l1.1928892-.022254h0l1.0500082-.028332h0l.8792432-.034506h0l.4339791-.023709h0l.3564426-.025988h0l.1915783-.018602c.0287358-.003186.0558499-.006414.081305-.009686l.132526-.020147h0l.0118573-4.084151c.0010818-.457866.0019773-.916411.0025788-1.374957l.002036-2.853102h0l-.0014706-14.141993h0zm36.0548083 63.449997v-63.262142c.0291789-.009549.0899244-.018922.1803801-.028115l.2199747-.018141c.0430813-.002982.0893262-.005944.138666-.008885l.5257613-.025898h0l.6817421-.02473h0l.826583-.02352h0l1.3081645-.02941h0l1.5194496-.027092h0l1.7043289-.024678h0l4.3739321-.046204h0l2.1228227-.016171h0l5.0017695-.025922h0l3.9520174-.009585h0l4.3847119.001096h0l3.5623815.012082h0l2.737112.019027h0l1.989776.022219h0l1.670082.028202h0l.566966.012998h0l.731848.021376h0l.579626.023664h0l.296347.017068h0l.220442.018115c.030231.003107.057162.006259.080724.009454v13.482248c-.528534.037895-1.074101.110322-1.619717.111002l-9.629206.007321h0l-11.4142778-.002022v10.486295h20.0579828v13.949825H89.899921c-.0282089.10119-.0546835.253555-.0793507.449098l-.0287285.254864h0l-.0269653.293244h0l-.0370809.505105h0l-.0224348.375752h0l-.0301536.61447h0l-.025871.666267h0l-.0276692.951011h0l-.0155102.746811h0l-.010912.764054h0l-.007233 1.02764h0l.0030328 1.264304h0l.0084273.729354h0l.00843.467659h0l.010712.449213h0l.0204082.632516h0l.0257006.573737h0l.0201207.344716h0l.0225431.310913h0l.0249934.274038c.0043713.042429.0088459.083195.0134244.122231.5081966.034159 1.0526277.101967 1.597167.10261l9.6292137.006839h0l11.415352-.001894v13.425971H73.0081457zm58.1695363.024229c-.012048-.067906-.023517-.230086-.034414-.478964l-.015918-.437392h0l-.015067-.561755h0l-.014221-.680437h0l-.019761-1.23075h0l-.017892-1.465817h0l-.030261-3.560118h0l-.019686-3.515731h0l-.0193-5.581439h0l-.011031-7.948558h0l.006841-10.191766h0l.021577-8.110892h0l.03078-6.586725h0l.03001-4.32655h0l.029414-3.08005h0l.026347-2.056207h0l.014096-.876532h0l.022281-1.109351h0l.015602-.594316h0l.016194-.471484h0l.01678-.342971c.008536-.13841.017289-.226496.026257-.261062h16.338033v46.775485l.502521.02947h0l.459853.029191h0l.431411.022425c.140645.005626.27892.009043.417198.009169l9.701032.005404h0l11.449825-.001446h0v16.599169h-39.358501z"/></g></svg>