<svg width="256px" height="310px" viewBox="0 0 256 310" xmlns="http://www.w3.org/2000/svg" preserveAspectRatio="xMidYMid"><path d="M18.432 180.968727l90.484364-90.4843634C120.645818 78.9410909 127.906909 62.7432727 127.906909 45.056c0-17.5010909-7.074909-33.5127273-18.432-45.056L18.9905455 90.4843636C7.26109091 102.027636 0 118.225455 0 135.912727c0 17.687273 7.07490909 33.512728 18.432 45.056zm219.136-52.875636-90.484364 90.484364c-11.729454 11.543272-18.990545 27.74109-18.990545 45.428363 0 17.501091 7.074909 33.512727 18.432 45.056l90.484364-90.484363C248.738909 207.034182 256 190.836364 256 173.149091c0-17.687273-7.074909-33.512727-18.432-45.056zm-.558545-37.4225455C248.738909 79.1272727 256 62.9294545 256 45.2421818c0-17.5010909-7.074909-33.5127273-18.432-45.055999982L18.9905455 218.577455C7.26109091 230.306909 0 246.318545 0 264.192c0 17.501091 7.07490909 33.512727 18.432 45.056L237.009455 90.6705455z" fill="#1292ee"/></svg>