<svg width="256px" height="197px" viewBox="0 0 256 197" xmlns="http://www.w3.org/2000/svg" preserveAspectRatio="xMidYMid"><title>Hermes</title><g style="fill:#2bb673"><path d="M76.1561054 99.9805886l2.4417187-10.6656352c1.0390292-4.4366548 1.9689604-13.1541101 2.5196459-17.2063242-5.9016861-2.4053527-13.8710403-1.0390292-24.2145764-2.2079371-7.8727492-.9539195-15.3130473-4.1228019-21.4559538-9.1382622v1.4754215C37.6007969 81.8740466 53.068177 97.3996722 72.696138 99.6273186l3.4599674.35327z" fill-opacity="0.2"/><path d="M41.1616006 41.2702414c-7.8895326-.8858477-15.36753-3.9854704-21.570247-8.9408466v.036366c2.1629429 19.6232083 17.6186762 35.1371675 37.2336128 37.3738818l25.3471183 1.9014235c1.2364448-15.45556-5.932857-26.4277087-41.0104841-30.3708247z" fill-opacity="0.6"/><path d="M240.249993 3.9587014h-26.349781c-7.51799-.00146078-14.006331 5.27031652-15.543878 12.6294004l-10.229243 49.9201598c-.690932 3.3523182-3.63744 5.7611261-7.060203 5.7718074l-39.664942.1142933c-2.178861.0083461-4.245004-.9675596-5.622554-2.6557138-1.37755-1.6881542-1.919212-3.9080502-1.474015-6.040961h0c6.436786-30.8383878-16.286784-59.80132785-60.1649883-59.80132785H3.89681692C6.06629496 23.5280829 21.5363034 39.043382 41.1616006 41.2702414c46.3355089 5.1951462 42.7248823 23.9340385 37.4362235 47.0056828L58.1029723 177.757122c-.8052415 3.514321.0347014 7.204055 2.2817893 10.023534 2.2470879 2.819478 5.6564322 4.460535 9.2618256 4.460535h24.910726c7.5104128.003057 13.9948078-5.258603 15.5386818-12.608621l10.764343-51.234532c.711735-3.326902 3.647641-5.706782 7.049814-5.714661l39.914308-.114293c2.175954-.005756 4.238664.969285 5.615357 2.654374 1.376693 1.685089 1.920793 3.900813 1.481213 6.031911l-9.559069 46.288752c-.804986 3.514829.034898 7.204938 2.281766 10.025152 2.246868 2.820214 5.656017 4.463387 9.261849 4.464111h26.354976c7.516914-.003511 14.001859-5.276458 15.538683-12.634596l32.994373-160.9092627c.821827-3.5210721-.010324-7.224669-2.259398-10.05574905-2.249074-2.83108004-5.668511-4.47927881-9.284217-4.47507485z"/></g><path d="M74.1403887 0C96.150167 0 114.251333 7.05741007 125.938788 19.5733524c11.13624 11.9256529 15.562419 27.9693509 12.2825 44.4217716l-.101751.4986795-.019106.0995272-.020969.1335099c-.109959.8110028.083596 1.6331852.540558 2.3088532l.088758.1249323.089442.1146304c.604064.7402663 1.495702 1.1830798 2.449061 1.2202436l.143438.0025187 39.664009-.1142904c1.535938-.0047932 2.863935-1.0566412 3.227287-2.533577l.02803-.1240487 10.232286-49.9348676C196.438072 6.71774478 204.376926.192093912 213.619732.0642534271l.28048-.0019116727 26.345251 2.6336e-6c4.805605-.0055874501 9.350349 2.185019862 12.339575 5.947784872 2.935847 3.69557277 4.05513 8.50975394 3.059362 13.11408354l-.044246.1960164-32.986862 160.8751648c-1.875779 8.981021-9.670834 15.467598-18.795341 15.726324l-.276902.00593-.280497.002096h-26.355759c-4.791961-9.63e-4-9.32254-2.184653-12.308509-5.932569-2.932649-3.680989-4.061673-8.477104-3.087568-13.072451l.03741-.171304 9.558879-46.28518c.182767-.886062-.00348-1.80387-.507605-2.545177l-.086955-.121881-.088012-.112564c-.604197-.739545-1.495134-1.182306-2.444069-1.220508l-.142747-.002682-39.916442.114299c-1.524238.00353-2.845382 1.040241-3.21628 2.493842l-.029447.125601-10.764305 51.234354c-1.903666 9.062896-9.838292 15.576506-19.0716387 15.704061h-.2801911-24.910726c-4.7919784 0-9.3227324-2.181744-12.3088444-5.928495-2.933254-3.680428-4.0624807-8.476567-3.0880225-13.071445l.0552404-.250423 16.8411935-73.527952C50.4472415 100.505468 34.212951 84.0706697 31.647362 63.293615l-.0558026-.4782238c-8.2962711-7.1036661-14.0313781-17.1018642-15.6736966-28.4571997C7.23424819 26.9299926 1.35101096 16.3322302.0240331039 4.32433631-.226308038 2.05898588 1.51046338.0734426811 3.77071795.00198998646L3.89681692 0H74.1403887zm0 7.7927193H8.49815791l.09059885.39096422C10.5940014 16.5881903 15.3410509 23.9067024 21.8405619 29.1475265l.0919887.0672021h0l.0908048.0704938c1.7955816 1.4344975 3.7089372 2.6976133 5.7146352 3.7788013l.464481.2462706.3583934.1844735.3241615.1627626c.172561.0856197.3457486.169923.5195473.2529035l.2711683.1280546c3.5562219 1.6621941 7.4121102 2.7972502 11.468472 3.3057398l.5974445.0703375.9718279.1126476h0l.9541231.1157747h0l.6519012.0828557h0c31.652757 4.0503271 43.3047556 14.6230523 41.7365247 34.2259383-.0641686.8021072-.3670207 1.5281854-.8333786 2.1138722l-.0797047.7400135-.0515237.4382231-.0551713.4417247-.0898592.6710045-.098742.6836454-.1080301.6991436-.0773801.4761169-.0818084.4851217-.131278.7464183-.0934041.5113374-.1492345.7897105-.2166492 1.0997739-.2377239 1.1594984-.1927011.9128925-.1633232.7548897-.0785005.5208089-.0935092.5966573-.1392411.8531871-.0922902.5412507-.0919761.5194784-.1375918.7388821-.0916242.466023-.1375287.6597442-.091892.4139612L79.954206 100.8501c-.1039463.454046-.284173.872888-.52471 1.245076l-17.5285869 76.532173c-.5402433 2.357787.0232814 4.83326 1.5308713 6.724872 1.465348 1.838609 3.6681586 2.93083 6.013447 2.990091l.2013598.002544H94.558899c5.60148.002256 10.446521-3.876907 11.682345-9.322813l.041642-.190605 10.767307-51.248516c1.082128-5.058255 5.50467-8.694207 10.657623-8.79382l.191179-.002068 39.915158-.114296c3.349186-.008859 6.524069 1.491905 8.643048 4.085561 2.071891 2.536018 2.918593 5.852884 2.32255 9.066162l-.042878.218916-9.559069 46.288752-.061421.284278c-.463609 2.297219.110099 4.686524 1.574787 6.524964 1.465885 1.839942 3.668991 2.933299 6.013146 2.993068l.20126.002585 26.353156 1e-6c5.607522-.002619 10.454056-3.890987 11.682189-9.330522l.04137-.190377 32.994374-160.9092633.067112-.3057217c.474145-2.301058-.094585-4.6985911-1.560396-6.5437178-1.467008-1.84663406-3.676205-2.94314012-6.031189-3.00003793l-.202199-.00232422-26.350538-7e-8c-5.607727-.00108961-10.45626 3.88595932-11.684695 9.32484542l-.041379.1903543-10.230141 49.9245316c-1.050393 5.0963732-5.488517 8.7756532-10.675045 8.8794229l-.19008.0021973-39.661244.1142808c-3.354506.0128495-6.535474-1.4896241-8.656306-4.0886529-2.007638-2.4603115-2.864445-5.6576597-2.364524-8.7838152l.037082-.2179781.047571-.2464804.097245-.4770937c2.79597-14.0164713-.927004-27.5101712-10.334718-37.5847691C110.210112 14.1475793 94.4077218 7.91810658 74.7376338 7.79459156l-.5972451-.00187226zM40.7973115 68.9543104l.0317383.1033359c4.4066263 14.1482651 16.7266796 24.7446289 31.8050964 26.6387365l.2594696.0309396 2.0734211-9.0529626.3906255-1.7296754.3693861-1.6753226.0340235-.2256071.1337527-.9241146.0905344-.6444763.1531995-1.1231418.6644047-5.2068298-10.6417374-.798494-.8712605-.0196209-1.117806-.0305906-.7845961-.0255076-.9863237-.0382752-.7029851-.0324814-.9001768-.049187-.6553756-.0418754-.6453801-.0466425-.6416298-.0518539-.4287538-.0376841-.6492575-.0615278-.662161-.0679248-.6813096-.0747663c-4.6256034-.5604717-9.1146232-1.8205082-13.3202118-3.7175657l-.4495075-.2056909c-.4200934-.1889177-.8367912-.3840081-1.2499985-.5850929l-.617181-.3061008zM25.4722591 40.6629288l.1769705.484751c2.3474957 6.2977645 6.2927836 11.8055326 11.3488979 16.034504.263343.1156087.5202718.2643138.7665627.4478066l.1464643.1142837.3050664.2464639c2.3430267 1.8730432 4.8884307 3.4532967 7.5769205 4.7162071 3.4266233 1.5508615 7.1244383 2.6149573 11.0065395 3.1053393l.4050507.048662 9.3222325.6987472 2.4688402.0482994 1.2905229.0289279.9078193.025361.859559.0291271.8142066.0334551.7717617.0383452.4923633.0285579.7074819.0477446.4522024.0353444.4376458.0383506.4239507.0415232.4111171.0448624.3991451.0483682.1953523.0255507.4860112.069051c-.1841047-2.8074105-.7940301-5.1976403-1.8708512-7.2905863-3.7127694-7.2162644-13.8059008-12.0977397-33.2132098-14.4937972l-1.0532693-.1265269h0l-.7962424-.0911363h0c-4.668207-.5257512-9.2042584-1.7608598-13.4583537-3.643189l-.578137-.2607163h0l-.5322717-.2482991h0l-.4827019-.2323886h0l-.1876475-.0929938z" fill="#3d3d3d"/></svg>