<svg width="256px" height="304px" viewBox="0 0 256 304" xmlns="http://www.w3.org/2000/svg" preserveAspectRatio="xMidYMid"><path d="M103.604341.0038c-52.3280001 0-90.3080001 37.98-90.3080001 90.308 0 39.759 21.958 71.185 55.447 84.01L1.46634086 287.5878c-1.919 3.226-1.957 7.242-.099 10.509 1.858 3.267 5.33 5.282 9.08700004 5.282h93.1500001c5.775 0 10.455-4.683 10.455-10.455v-122.761-34.06-125.644c0-5.776-4.68-10.455-10.455-10.455zm151.2685 288.2012-59.412-117.503c28.821-14.554 47.241-43.978 47.241-80.394 0-52.322-37.978-90.30800000000006-90.308-90.30800000000006C146.622841-5.68434189e-14 141.938841 4.684 141.938841 10.455c0 5.778 4.684 10.455 10.455 10.455 40.857 0 69.399 28.541 69.399 69.398 0 40.865-28.542 69.399-69.399 69.399-5.771 0-10.455 4.684-10.455 10.455 0 5.771 4.684 10.455 10.455 10.455 8.144 0 15.887-1.02 23.246-2.771l60.568 119.796c1.847 3.638 5.52 5.736 9.339 5.736 1.59 0 3.2-.362 4.712-1.122 5.151-2.606 7.221-8.893 4.614-14.051z" fill="#283174"/></svg>