<svg width="256px" height="285px" viewBox="0 0 256 285" xmlns="http://www.w3.org/2000/svg" preserveAspectRatio="xMidYMid"><path d="M230.4 0c13.99552 0 25.37047 11.2315104 25.59657 25.1765997L256 25.6v233.244444c0 13.99552-11.234995 25.370471-25.176704 25.59657l-.423296.00343H25.6c-13.99552 0-25.3704704-11.234995-25.596569856-25.176704L0 258.844444V25.6C0 11.60096 11.2349952.2294592 25.1767043.003429088L25.6 0h204.8zm0 14.2222222H25.6c-6.174 0-11.2179375 4.9474688-11.3740532 11.084647L14.2222222 25.6v233.244444c0 6.174 4.9474688 11.217938 11.084647 11.374054l.2931308.003724h204.8c6.1775 0 11.218047-4.947469 11.374056-11.084647l.003722-.293131V25.6c0-6.272-5.102222-11.3777778-11.377778-11.3777778zM64 184.888889l32 28.444444-32 28.444445v-56.888889zM92.4444444 42.6666667v80.7502223c14.2008886-4.622222 34.0515556-9.639111 53.3333336-9.639111 17.582222 0 28.106666 6.912 33.838222 12.711111 12.1088 12.2496 12.397158 27.820214 12.381015 29.896777l-5.71e-4.058778L192 241.777778h-28.444444v-84.942222c-.138667-6.638223-3.338667-14.613334-17.777778-14.613334-28.63168 0-60.7133122 14.256317-61.6660273 14.682891l-.0193063.008665L64 166.016V42.6666667h28.4444444zm99.5555556 0c-1.92 16.1564444-8.469333 31.6444444-21.333333 46.2222222h0-28.444445c11.178667-14.6666667 18.197334-30.1013333 21.333334-46.2222222h0z" fill="#430098"/></svg>