<svg width="256px" height="295px" viewBox="0 0 256 295" xmlns="http://www.w3.org/2000/svg" preserveAspectRatio="xMidYMid"><path d="M128.039402 0 .57527388 73.767737.59086405 221.079121 128.345359 294.54382l127.464137-73.768712.001496-147.2300134L128.039436 0h-3.4e-5z" fill="#0e83cd"/><path d="M68.2420989 211.051307l.0096072-63.701044.0096072-63.701052 11.573225-6.7680728 11.0855709 6.5598941.1195951 26.0306207.1195894 26.030614H128.19719h37.037896l.119589-26.013515.119578-26.0135209 11.257574-6.5048985 11.412353 6.6788784-.005752 63.658884-.005753 63.658876-11.297988 6.310808-11.360676-6.392504-.119658-25.885673-.11967-25.885684h-37.037896-37.037896l-.1196584 25.878361.0342292 26.007943-11.3604459 6.662461-11.470917-6.611376z" fill="#fff"/></svg>