<svg width="164px" height="256px" viewBox="0 0 164 256" xmlns="http://www.w3.org/2000/svg" preserveAspectRatio="xMidYMid"><path d="M125.533525 84.856832c.70144-18.2852267-3.9168-25.66656-7.38304-30.9435733-3.51744-4.9237334-11.9552-12.6600534-22.3231997-12.98432-9.8048-.3054934-12.1634133 5.1131733-21.2087466 5.4408533-1.4830934-16.4727467 10.9482666-25.5112533 10.9482666-25.5112533 0 0-3.39968-4.8042667-6.2122666-5.9767467-3.23584 2.8757333-10.9943467 11.136-12.6532267 22.22592-1.7476267-16.3345067-9.9140267-26.7810133-28.0183467-34.06165333C33.5407787 21.0343253 50.5186987 37.839872 61.5488853 44.4770987c-5.84704-1.9643734-10.92096-4.5602134-17.73568-3.2187734-11.9108266 2.34496-21.72928 9.5453867-27.32544 25.3474134-5.5944533 15.8020266 1.97632 34.2374403 3.6215467 39.5025063 1.6469333 5.270187 13.8274133 27.65312 23.3745067 30.94528 9.5453866 3.295574 9.5488 1.810774 14.6517333-.162133 5.1029333-1.974613 12.8375467-5.597867 24.1988267-1.47968 11.3527466 4.113067 12.8341333 5.09952 19.9099733.49152 7.082667-4.608 16.29696-18.926933 18.435413-23.043413 2.14016-4.113067 3.29216-6.254934 3.954347-8.393387.822613-6.2634667.267947-3.22048.899413-19.6096" fill="#d1d2d3"/><path d="M126.214656 110.16192v8.941227c0 2.09408 1.698133 3.792213 3.792213 3.792213h0 14.06976c4.524374 0 8.866134 1.798827 12.066134 4.998827 3.201706 3.201706 5.000533 7.54176 5.000533 12.06784h0l-9.79e-4 41.236958c-3.2e-5.459016-6.5e-5.916659-9.8e-5 1.372749l-8.73e-4 9.287239c-5e-5.425444-1.01e-4.848064-1.54e-4 1.267679l-6.97e-4 4.879481c-6.3e-5.392665-1.28e-4.781597-1.95e-4 1.166617l-4.17e-4 2.261703c0 4.53632-1.803947 8.886614-5.019307 12.08832-3.213653 3.201707-7.570773 4.992-12.107093 4.97664-4.754774.011947-9.755307.003414-13.9264-.054613-1.020587-.02048-2.005334.36864-2.73408 1.083733-.72704.713387-1.138347 1.6896-1.138347 2.706774h0l-3.17e-4 4.513787c-3.5e-5.182643-7.4e-5.366379-1.17e-4.550997l-7.58e-4 2.244426c-8.5e-5.188339-1.76e-4.376725-2.73e-4.564949l-6.68e-4 1.125734c-.002134 3.174613-.0064 6.18176-.014934 7.995093 0 1.122987-.500053 2.187947-1.363626 2.904747-4.34688 3.283627-19.5328 10.560853-53.4988803 10.560853-33.26464 0-49.10592-5.434026-54.0484267-8.296106-1.09056-.694614-1.75104-1.89952-1.7544533-3.18976-.0150187-7.374166-.0710083-33.629979-.1290068-60.723952l-.0079177-3.698133c-.0673438-31.449485-.1350073-62.923154-.1423177-66.323162l-6.512e-4-.30286H126.214656zm16.819541 27.926699h-12.079786c-1.172367 0-2.301619.437088-3.168518 1.21691l-.181669.172316c-.829895.831488-1.320823 1.935042-1.382592 3.102523l-.006635.251077v55.168c0 1.172367.435602 2.301619 1.216613 3.169906l.172614.181988c.828302.829895 1.934617 1.319336 3.099705 1.380907l.250482.006613h12.079786c1.172367 0 2.301619-.434116 3.169906-1.214929l.181988-.172591c.828302-.829895 1.319124-1.936316 1.380886-3.101412l.006634-.250482v-55.168c0-1.175552-.435602-2.302043-1.215226-3.171335l-.172294-.182265c-.829895-.828302-1.936316-1.320611-3.101412-1.382571l-.250482-.006655z" fill="#fefefe"/><path d="M26.191872 109.062656v117.556907c0 1.3568.7236267 2.609493 1.89952 3.28704 4.79744 2.286933 18.71872 7.74656 43.12576 7.74656 24.5674667 0 38.074027-6.633814 42.5984-9.367894 1.08032-.694613 1.73056-1.892693 1.73056-3.176106.01024-15.588694.01024-116.046507.01024-116.046507h-89.36448z" fill="#faaf41"/><path d="M39.327744 123.713536c2.80064 0 5.0909867 2.189653 5.2514133 4.95104l.0085334.308907v90.847573c0 2.904747-2.3552 5.259947-5.2599467 5.259947-2.8023467 0-5.0909867-2.189654-5.2514133-4.949334l-.0085334-.310613v-90.847573c0-2.904747 2.3552-5.259947 5.2599467-5.259947" fill="#ffda95"/><path d="M89.8184533 133.186048c0-1.896107-1.11616-4.160853-2.94912-5.297493-2.9832533-1.803947-5.3128533-4.57216-6.5809066-7.86944-24.2653867.815786-46.4110934-3.444054-57.56928-6.452907-2.8637867-.812373-5.76512-1.486507-8.6954667-2.018987-6.67648-1.32608-11.75210667-7.190186-11.75210667-14.2404263 0-7.7602134 6.15765334-14.0663467 13.84959997-14.3428267 1.4830934-8.20736 8.64768-14.4384 17.2834134-14.4384 9.7109333 0 17.5837866 7.8728533 17.5837866 17.5837867 0 2.04288-.36864 3.99872-1.00864 5.8248533l.0512.0085333c2.1691734-6.7822933 8.5179734-11.6974933 16.02048-11.6974933 7.4530134 0 13.7693867 4.8571733 15.9744 11.57632-.0648533-.6058667-.09728-1.2219733-.09728-1.8466133 0-10.1000534 8.18688-18.2852267 18.2852267-18.2852267 8.174933 0 15.09376 5.36576 17.435307 12.76416l1.59232-.4164267c2.085546-1.1741866 4.483413-1.85344 7.046826-1.85344 7.936 0 14.368427 6.4341334 14.365015 14.36672 0 7.2686937-5.394775 13.2744537-12.398935 14.2335997-1.5872.223574-3.141973.628054-4.63872 1.204907-4.164266 1.568427-8.420693 2.868907-12.719786 3.9424-.21504 2.11968-.846507 4.11648-1.810774 5.90848-1.744213 3.273387-2.525866 6.97344-2.256213 10.671787-.001707.223573.006827 1.39776.006827 1.62304 0 4.698453-3.80928 7.55712-8.5128537 7.55712-4.69504 0-8.50432-3.805867-8.50432-8.506027" fill="#fefefe"/><g style="fill:#010202"><path d="M86.4017067 112.433152l.1006933.3072-.0324267-.3072z"/><path d="M37.19168 0l2.3381333.938666667C54.5570133 6.98197333 63.3053867 15.2814933 67.0993067 27.5182933c2.3995733-5.3179733 6.0433066-10.0471466 10.2775466-13.91104h0l1.536-1.3704533 1.3175467.54784c.56832.2389333 1.1349333.5649067 1.7083733.9728.89088.6331733 1.7937067 1.4557867 2.70848 2.42688.6946134.7355733 1.3568 1.5172267 1.9694934 2.2971733h0l.33792.4352.3771733.50688 1.3841067 1.9541334L86.90176 22.69696l-.2474667.1911467L86.31296 23.168l-.41984.3703467-.4932267.45568c-1.19808 1.13664-2.40128 2.49344-3.5242666 4.0584533-3.1419734 4.3776-5.0295467 9.4395733-5.1080534 15.1842133h0l-.0017066.6690134.49152-.0802134c1.6913066-.3089066 3.28192-.90112 5.6098133-1.96096h0l1.3294933-.60928C88.69376 39.2192 91.38688 38.5194667 95.8976 38.6594133c9.57952.3003734 18.79552 6.50752 24.15104 14.00832.119467.1826134.24064.3652267.356693.5495467h0l.689494 1.0922667.657066 1.08544C125.84448 62.34624 127.81568 69.0944 127.88736 79.99488c8.439467.80384 15.040853 7.9086933 15.03744 16.5563733 0 8.3421867-6.173013 15.3617067-14.353067 16.4812797-.029013.00512-.05632.011947-.08704.017067h0v6.053547c0 .83968.682667 1.522346 1.522347 1.522346h0 14.06976c5.128533 0 10.047147 2.036054 13.673813 5.66272 3.626667 3.628374 5.66272 8.546987 5.66272 13.673814h0l-.001706 61.472426c0 5.14048-2.046294 10.069334-5.68832 13.696-3.642027 3.628374-8.576 5.6576-13.702827 5.638827-.723627.001707-1.4336.003413-2.131627.00512h0l-4.13696-.001707-5.02784-.027306-2.684586-.03072c-.4096-.008534-.80384.14848-1.097387.4352-.29184.28672-.457387.677546-.457387 1.08544h0l-.00512 12.433066-.011946 4.56192c0 1.798827-.800427 3.50208-2.266454 4.71552-2.066773 1.5616-4.811093 3.039574-8.214186 4.3776h0l-1.158827.438614c-1.774933.653653-3.713707 1.26976-5.812907 1.839786h0l-1.425066.37376-1.471147.360107c-1.49504.35328-3.06176.68608-4.698453.994987h0l-1.660587.30208-1.706667.285013c-1.4438397.2304-2.9337597.44544-4.4714663.64h0l-1.8705067.22528-1.91488.208213-1.96096.187734-2.00704.170666-2.05312.150187-2.0992.129707c-.35328.02048-.7082667.039253-1.06496.058026h0l-2.16576.098987-2.2101333.078507c-.7458134.02048-1.4967467.04096-2.2562134.05632h0l-2.3005866.032426c-.77312.008534-1.5547734.011947-2.3432534.011947h0-1.1997866c-.7953067-.00512-1.5854934-.011947-2.3671467-.02048h0l-2.3227733-.037547-2.2784-.054613c-.75264-.02048-1.4967467-.04608-2.2340267-.07168h0l-2.1879467-.090453c-.3618133-.017067-.7202133-.032427-1.0786133-.0512h0l-2.1213867-.116054-2.0753066-.129706-2.0292267-.14848c-.3362133-.023894-.6673067-.0512-.9984-.078507h0l-1.96096-.16896c-.32256-.03072-.6434133-.059733-.96256-.09216h0l-1.8909867-.191147-1.8432-.206506c-.3037866-.03584-.6058666-.07168-.9045333-.109227h0l-1.7732267-.228693-1.72544-.238934-1.6759466-.254293c-.8260267-.131413-1.6349867-.264533-2.4251734-.40448h0l-1.5547733-.285013c-.256-.047787-.5085867-.09728-.7594667-.146774h0l-1.4830933-.30208-1.4318933-.31232-1.3824-.325973-1.3329067-.3328c-1.3073067-.339627-2.53952-.694613-3.6932267-1.061547h0l-1.1298133-.372053c-.55296-.187733-1.0837333-.37888-1.59744-.575147h0l-1.0001067-.390826c-1.4609066-.595627-2.74432-1.215147-3.8485333-1.85344-1.7425067-1.11104-2.7989333-3.034454-2.8040533-5.101227h0L12.98944 113.629867C5.46474667 111.85152 0 105.14432 0 97.3073067 0 89.66656 5.1712 83.2238933 12.2350933 81.29024c-.08704-2.32448-.0341333-4.61824.2065067-6.88128.3208533-2.9934933.9472-5.85216 1.9063467-8.5623467C19.8485333 50.3108267 29.6379733 41.73312 43.3749333 39.02976c2.45248-.48128 4.6967467-.5358933 7.05536-.2184533-1.78176-1.6674134-3.49184-3.45088-5.04832-5.3009067-8.25344-9.8184533-11.8818133-20.5960533-8.8832-31.08864h0L37.19168 0zm86.751573 114.286933-1.09056.401067c-.2304.083627-.47616.1536-.709973.23552-2.12992.749227-4.31616 1.430187-6.539947 2.066773-1.375573.39424-1.375573.39424-2.686293.766294h0l-.1024.518826c-.310613 1.390934-.781653 2.732374-1.40288 4.00384h0l-.602453 1.175894c-.110934.226986-.186027.467626-.285014.699733-1.12128 2.577067-1.634986 5.399893-1.425066 8.35584h0l.001706.3328.00512 1.29024c0 5.865813-4.686506 9.8304-10.7827197 9.8304-3.0941866 0-5.87776-1.312427-7.8421333-3.403093-1.4336-1.52576-2.4234667-3.462827-2.7784533-5.62176-.0938667-.571734-.1553067-1.155414-.1553067-1.752747 0-1.216853-.7970133-2.69824-1.85344-3.355307-2.9115733-1.76128-5.2667733-4.31616-6.79424-7.348906h0l-.0733867-.150187-1.4933333.032427c-17.22368.293546-34.75456-1.814187-49.1451733-5.106347-1.6725334-.382293-3.3143467-.77824-4.8964267-1.191253h0l-1.1912533-.315734c-.0324267-.01024-.0682667-.017066-.1024-.027306-1.4762667-.41472-2.9661867-.790187-4.46464-1.133227h0l.27136 126.614187c0 .51712.26624 1.001813.6212266 1.2288.6587734.382293 1.39776.75776 2.2186667 1.1264h0l.8465067.36352c.8738133.361813 1.8261333.715093 2.8586666 1.061546h0l1.0564267.339627c.5410133.167253 1.1025067.3328 1.6827733.49664h0l1.1861334.320853 1.2373333.31232 1.2868267.305494 1.3397333.293546c.22528.049494.45568.09728.6877867.145067h0l1.41312.279893c.4778666.09216.9659733.18432 1.4626133.273067h0l1.5121067.259413c.512.085334 1.0325333.16896 1.5616.249174h0l1.6093866.237226 1.65888.226987c.2798934.03584.5614934.073387.8465067.10752h0l1.73056.20992 1.7783467.19456 1.8244266.1792c.3089067.03072.61952.058027.9301334.08704h0l1.8961066.162133 1.9421867.146774 1.9882667.131413 2.0343466.116053 2.0804267.1024c.3498667.01536.7031467.029014 1.0564267.044374h0l2.1486933.078506c.3601067.011947.7236267.022187 1.09056.032427h0l2.2152533.052907c.3720534.006826.7458134.013653 1.1229867.02048h0l2.2818133.0256c.7662934.00512 1.54112.008533 2.32448.008533h0l1.1383467-.001707c1.8909867-.01024 3.7341867-.04096 5.5313067-.095573h0l2.1333333-.073387c.3515733-.011946.70144-.027306 1.0496-.044373h0l2.0650667-.1024L85.2736 249.984c.3328-.022187.6656-.044373.99328-.068267h0l1.9541333-.151893c.3191467-.0256.64-.052907.95744-.080213h0l1.88416-.177494c.3089067-.032426.6178134-.063146.9250134-.095573h0l1.81248-.201387c.2986666-.03584.5956266-.07168.89088-.10752h0l1.7442133-.226986 1.6981333-.244054 1.6520534-.256c.5427203-.088746 1.0786133-.180906 1.6042663-.27136h0l1.558187-.28672c.510293-.098986 1.015467-.197973 1.5104-.300373h0l1.46432-.314027 1.414827-.324266c.928426-.22016 1.82272-.45056 2.688-.684374h0l1.271466-.360106c.208214-.06144.413014-.124587.617814-.186027h0l1.199786-.37376 1.150294-.385707c3.945813-1.363626 6.995626-2.896213 9.11872-4.502186.34304-.285014.54272-.708267.54272-1.165654h0l.017066-16.984746c0-1.629867.657067-3.191467 1.821014-4.329814 1.163946-1.14176 2.737493-1.764693 4.353706-1.73056h0l2.658987.029014 3.9424.023893 5.17632.00512 2.126507-.00512c3.93216.013653 7.709013-1.537707 10.496-4.312747 2.78528-2.776746 4.352-6.546773 4.352-10.48064h0l.001706-61.472426c0-3.923627-1.558186-7.686827-4.333226-10.461867-2.77504-2.77504-6.53824-4.333227-10.461867-4.333227h0-14.06976c-3.34848 0-6.063787-2.715306-6.063787-6.063786h0v-4.816214zm19.090774 21.531819c1.85856 0 3.642026.738987 4.957866 2.054827 1.31584 1.314133 2.05312 3.0976 2.05312 4.957866h0v55.168c0 1.85856-.73728 3.642027-2.054826 4.957867-1.314134 1.314133-3.0976 2.051413-4.95616 2.051413h0-12.07808c-1.85856 0-3.642027-.73728-4.959574-2.05312-1.314133-1.314133-2.05312-3.0976-2.05312-4.95616h0v-55.168c0-1.860266.738987-3.643733 2.054827-4.959573 1.31584-1.314133 3.099307-2.05312 4.957867-2.05312h0zm0 4.543147h-12.07808c-.65536 0-1.283414.259413-1.74592.720213-.462507.464213-.725334 1.093973-.725334 1.749333h0v55.168c0 .65536.262827 1.283414.723627 1.744214.464213.464213 1.092267.725333 1.747627.725333h0 12.07808c.65536 0 1.283413-.26112 1.744213-.723627.464213-.462506.725333-1.09056.725333-1.74592h0v-55.168c0-.65536-.26112-1.28512-.723626-1.747626-.462507-.462507-1.09056-.72192-1.74592-.72192h0zM33.4045867 70.7959467c-7.4274134 0-13.7403734 5.3367466-15.0493867 12.5730133h0l-.3242667 1.7988267-.9472.03584-.88064.03072c-1.26464.0443733-2.4763733.2884266-3.6130133.6912-4.69674667 1.6657066-8.04864 6.13888-8.04864 11.38176 0 5.3452803 3.50378667 9.9822933 8.43776 11.6121603.4727467.155306.9540267.293546 1.4523733.392533 1.6366934.298667 3.26144.648533 4.8759467 1.030827 1.3448533.31744 2.6811733.657066 4.00384 1.030826.56832.1536 1.1758933.295254 1.76128.44544.80896.2048 1.60256.41472 2.432.6144 15.1381333 3.63008 34.2493867 5.937494 52.7069867 5.316267h0l1.6145066-.054613.5802667 1.508693c1.0820267 2.814293 3.0754133 5.189973 5.6610133 6.754987 2.4337067 1.5104 4.0209067 4.46464 4.0209067 7.227733h0l.0085333.331093c.0580267 1.107627.42496 2.128214.98816 3.01056 1.1093334 1.732267 3.0293334 2.894507 5.23776 2.894507 3.7393067 0 6.2412797-2.116267 6.2412797-5.28896h0l-.006826-1.302187.006826-.1536c-.04096-.541013-.058026-1.08032-.058026-1.61792.00512-3.580586.884053-7.1168 2.578773-10.298026h0l.267947-.525654c.68608-1.416533 1.122986-2.945706 1.281706-4.532906h0l.160427-1.588907 1.549653-.385707c1.58208-.395946 3.114667-.846506 4.647254-1.29536 1.344853-.39424 2.674346-.802133 3.98848-1.2288 1.29536-.421546 2.57024-.863573 3.81952-1.334613h0l.713386-.262827c.5376-.186026 1.08544-.3328 1.63328-.479573.919894-.247467 1.850027-.459093 2.798934-.59392h0l.402773-.06144c.047787-.008533.09216-.02048.136533-.029013 5.67808-1.041067 9.898667-6.014294 9.898667-11.8937603.001707-6.15936-4.609707-11.2349867-10.565973-11.9876267-.50176-.0631467-1.010347-.1058133-1.529174-.1058133-1.032533 0-2.046293.13312-3.02592.3874133-1.012053.2628267-1.98656.65536-2.904746 1.17248h0l-.257707.1450667-3.966293 1.0325333-.65024-2.0548267c-2.08896-6.6013866-8.236374-11.1786666-15.269547-11.1786666-8.8439467 0-16.0136533 7.1697066-16.0136533 16.01536 0 .54272.0290133 1.08032.0836266 1.6093866h0l1.71008 16.3054937.47616 4.543146h-.0682666l-1.4916267-4.543146-5.0432-15.361707c-1.9438933-5.9255467-7.4871467-10.0113067-13.8154667-10.0113067-6.3744 0-11.94496 4.1386667-13.8564266 10.11712h0l-.5973334 1.8653867-4.6574933-.76288.896-2.55488c.5802667-1.65376.88064-3.3553067.88064-5.07392 0-8.4565333-6.85568-15.3122133-15.3122133-15.3122133zM79.6398933 17.71008l-.5563733.5444267c-5.07392 5.0653866-9.8269867 13.54752-10.1154133 18.7716266-.2901334 5.2241067.5614933 11.70944.5614933 11.70944h0l-3.2034133-.6126933c-1.3824-.2645333-2.62656-.5768533-4.06528-1.024h0l-.99328-.31744c-.1723734-.05632-.3464534-.1160533-.5256534-.1757867h0l-.1860266-.0648533-.93696-.3242667-3.7410134-1.3380266-1.0274133-.34816c-4.1762133-1.3653334-7.13728-1.7237334-10.5984-1.0427734-12.14976 2.39104-20.6523733 9.84064-25.6221867 23.87456-.8379733 2.36544-1.38752 4.8776534-1.6725333 7.5298134-.00512.0443733-.00512.0904533-.01024.1365333 3.4952533-5.19168 9.3525333-8.5981867 15.94368-8.7671467h0l.5137067-.0068266c9.78432 0 17.91488 7.0775466 19.55328 16.3925333h0l.0750933.4590933.4898133-.4437333c3.26144-2.8347733 7.47008-4.5602133 12.01664-4.67968h0l.512-.0068267c5.5364267 0 10.6154667 2.3825067 14.14144 6.2754134h0l.2065067.2338133.1297067-.4471467c2.5002666-8.3012266 10.1085866-14.3906133 19.16928-14.6141866h0l.5154133-.00512c8.142507 0 15.36 4.77696 18.664107 11.93472h0l.11264.2542933.218453-.10752c1.312427-.61952 2.706773-1.0461867 4.138667-1.3038933-.042667-10.3936-1.872214-16.4778667-5.768534-22.9393067h0l-.622933-1.0069333-.653653-1.0171734c-4.555094-6.3761066-12.58496-11.7845333-20.5465603-12.0337066-3.88096-.1211734-6.0040534.4846933-10.33728 2.4917333h0l-.72192.3310933c-3.9697067 1.80224-6.2805334 2.4814934-9.9959467 2.61632h0l-2.1504.0785067-.1928533-2.1435733c-.7338667-8.13568 1.5650133-15.2302934 5.8299733-21.1694934 1.44384-2.01216 2.8928-3.6164266 4.16256-4.8042666h0l.0750933-.0733867-.49664-.58368-.5853866-.6434133c-.4846934-.5137067-.9540267-.9659734-1.3960534-1.3397334h0l-.3072-.2491733zM40.3012267 6.19178667l-.0580267.37034666c-1.1656533 7.94965337 2.04288 16.20821337 8.61696 24.02645337 4.0123733 4.7735466 9.1733333 9.088 13.5867733 11.79648.68608.4215466 1.3568.8106666 2.0002134 1.1502933h0l.3703466.1928533-.0017066-.3584c-.0290134-2.3313066-.1655467-4.5397333-.4130134-6.6372266C62.6705067 22.08768 55.4513067 12.94336 40.5384533 6.2976h0l-.2372266-.10581333z"/></g></svg>