<svg width="256px" height="330px" viewBox="0 0 256 330" xmlns="http://www.w3.org/2000/svg" preserveAspectRatio="xMidYMid"><title>Hono</title><path d="M134.128914.0285241348c.875962-.1126201228 1.649221.1082482632 2.319113.6626038312C161.092252 30.7691013 184.283386 61.9114813 206.02143 94.1182682c16.093984 24.2307598 29.787355 49.8509988 41.081437 76.8620448 18.036739 48.107688 8.649631 89.962385-28.160663 125.563426-32.207847 27.22109-69.313661 37.822752-111.317443 31.804984-50.2074804-10.236567-84.331909-39.280481-102.37229222-87.132404C.553348662 225.63784-.992704858 209.735348.614241954 193.508843 3.29010127 165.578104 9.91613958 138.631994 20.4923569 112.671176c4.4069118-10.592385 10.1497655-20.3101331 17.2276996-29.1545691 5.7745924 6.8778278 11.2960701 13.9458229 16.5650958 21.2033231 2.4397073 2.550362 4.9794678 4.98013 7.6199441 7.288642C82.0595171 72.011154 106.134565 34.6845598 134.128914.0285241348z" fill="#ff5b11" opacity="0.993"/><path d="M129.490687 53.6994345c24.312923 28.2004191 46.289504 58.2382385 65.929081 90.1141215 6.157578 10.547327 11.237099 21.590945 15.239889 33.130191 8.338206 32.804191-.606946 59.860956-26.835456 81.16897-25.367125 17.849884-53.196486 23.150715-83.488082 15.902492-32.6657067-10.136514-51.5499159-32.113095-56.652628-65.929082-1.2384066-10.661958-.133846-21.042972 3.3130192-31.14238 4.9151952-12.481468 10.8786297-24.408337 17.8903034-35.780607 6.6260383-9.71841 13.2520767-19.436158 19.878115-29.154568 15.0517086-19.3546582 29.9602944-38.7908164 44.7257584-58.3091375z" fill="#ff9758"/></svg>