<svg width="256px" height="325px" viewBox="0 0 256 325" xmlns="http://www.w3.org/2000/svg" preserveAspectRatio="xMidYMid"><title>Hookstate</title><path d="M86.2338065 231.414038c12.7981114-4.539957 21.9811665-16.719214 21.9811665-31.074606v-82.79629c0-14.355393-9.1830551-26.5346498-21.9811665-31.0746061V73.6585885c0-5.1858644 4.2186931-9.4062484 9.4062484-9.4062484h85.7265491c4.52812 0 7.274075 2.5193799 8.508402 4.0208626 1.232636 1.4997919 3.173742 4.6819885 2.297877 9.1238749L157.983715 250.777754c-1.097367 5.571381-6.016076 9.614224-11.695671 9.614224H95.6840172c-5.2112273 0-9.4502107-4.238983-9.4502107-9.45021v-19.52773zM232.988527 85.0465235 198.239685 260.620244c-4.82233 24.361896-26.345273 42.043208-51.180609 42.043208H94.7861711c-28.0242963 0-50.8238384-22.799542-50.8238384-50.823838v-18.501379h20.2903074v17.603533c0 17.360049 14.0730191 31.431377 31.4313771 31.431377h50.6040268c16.195047 0 30.129416-11.453879 33.262577-27.34288l34.187477-173.3806771c4.020863-20.391759-11.587456-39.3784141-32.371494-39.3784141H95.6400549c-17.334686 0-31.3874148 14.0527287-31.3874148 31.3874147v10.8840591H43.9623327V73.1192045c0-28.1984547 22.9398834-51.1383381 51.1366473-51.1383381h86.08332c15.863639 0 30.738125 7.0305915 40.80719 19.2893189 10.070756 12.2587274 14.079782 28.2136724 10.999037 43.7763382h0zM181.1823-3e-4H95.09898c-40.3810935 0-73.1178136 32.7367202-73.1178136 73.1195045v13.3493314C9.18305496 91.0084922 0 103.187749 0 117.543142v82.79629c0 14.355392 9.18305496 26.534649 21.9811664 31.074606v20.425576c0 40.208626 32.5963788 72.805005 72.8050047 72.805005h52.2729049c35.403204 0 65.869101-25.026404 72.744133-59.756647l34.748843-175.5737205C263.70298 43.0743318 228.318375-3e-4 181.1823-3e-4h0z" fill="#3b2c6c"/></svg>