<svg width="256px" height="257px" viewBox="0 0 256 257" xmlns="http://www.w3.org/2000/svg" preserveAspectRatio="xMidYMid"><title>Hootsuite</title><path d="M25.5511693 2.11755514C26.1099414.53887721 27.789444-.322099694 29.3793861.112023015l.2263947.070890079c0 0 50.5289541 19.208728006 85.7754192 32.607773506 4.055247-.6678062 8.081595-1.000161 12.043131-.971778 14.969631.103744 29.10652 3.4644152 43.28333 11.8386227L253.2111 36.827194h0c.975624-.0434122 1.897322.4490714 2.402972 1.2849014.72072 1.1914325.400788 2.7216868-.699703 3.5309018l-.233704.1534199c-1.023731.5962789-26.863789 15.6469821-51.540224 30.0199253.832737.9546465 1.666973 1.930034 2.503588 2.9259477 23.481082 27.9986149 37.765094 68.5119719 44.586954 91.9371159 4.028501 13.834681 1.412352 28.755339-7.082416 40.394347-15.333571 20.9857-48.033999 49.555246-112.189336 49.099876-70.0409015-.485015-106.2182627-35.331261-123.59974613-56.747117-7.4066335164-9.199747-9.38405931-21.635661-5.19632709-32.679154l1.30021567-3.399842C13.7205455 136.669951 32.8286976 90.335837 48.1347649 73.1072397c9.2146273-10.3599349 19.8406835-19.3049901 31.0670718-26.1945288L26.5214237 5.62573649h0c-1.0277505-.84990167-1.4153207-2.25104268-.9702544-3.50818135z" fill="#ff4c46"/><path d="M128.965801 183.474657c.11226-.288622.437165-.431077.72579-.318816 11.19443 6.426307 24.633518 7.609479 36.761642 3.264477l.69822-.256808c.216703-.101008.474046-.045519.629989.135874.164899.191504.169822.466454.027168.662255l-15.353492 16.906767h0c-.976037 1.066796-2.623952 1.162617-3.717075.215936-5.677085-4.878568-15.159081-15.070986-19.702998-20.075786-.112841-.154437-.138593-.355667-.069244-.533899zm21.315394-86.5855648c39.703596-27.6237511 61.227716-3.6451007 73.3045 22.9545078 8.724746 19.170446 11.814233 55.061302-16.508388 60.56154-21.695392 4.230833-41.742767-17.749404-56.569319-38.270914-1.52198-2.101508-4.459645-2.571328-6.561153-1.049346-.396001.286724-.744464.633619-1.03353 1.02764l-.603789.840103c-10.149013 14.230928-34.350642 52.918565-70.1661982 43.127168-34.560183-9.461157-42.1537491-48.336842-27.7809428-75.21051 21.2684269-40.5220893 52.3386739-53.7253546 105.91882-13.9801888zm-5.643266 55.6058148c1.369374-1.316715 3.510652-1.335938 4.902219-.08725l.199839.194195h0l18.973415 21.620511h0c.100709.114993.187633.242189.258179.377724.490344.941437.124631 2.102042-.816804 2.592387-5.711511 2.911531-12.00518 4.500349-18.414213 4.648136-8.436313-.069558-17.070301-5.668879-20.604577-8.242844l-.144474-.116798h0c-.740017-.658556-.851116-1.760943-.288965-2.549638l.130782-.163929c0 0 15.590748-18.084109 15.590748-18.084109l.025806.006531h0c.060145-.067159.122966-.132215.188045-.194916z" fill="#fff"/><path d="M196.358377 120.777582l.218157.354984c4.591098 7.126823 2.535215 16.625701-4.591611 21.216799-7.126736 4.590764-16.625698 2.535213-21.216799-4.591611-4.465577-6.932153-2.647317-16.124214 4.046353-20.848536l.369936-.25322c6.665917-4.770847 15.937287-3.23506 20.708135 3.430854.161797.225905.317099.45619.465829.69073zm-95.977035-8.176688c-7.9894127 2.723487-11.9617155 11.208933-9.5810929 19.111587 2.7234862 7.989411 11.2089319 11.961714 19.1115859 9.581093 7.989412-2.723487 11.896536-11.316362 9.581007-19.111252.021614-.051589-.030372-.198474-.127972-.375089-2.458283-7.691574-10.307718-11.756139-17.780666-9.631957-.343199-.086843-.772821.169263-1.202862.425618z" fill="#ff4c46"/></svg>