<svg width="256px" height="355px" viewBox="0 0 256 355" xmlns="http://www.w3.org/2000/svg" preserveAspectRatio="xMidYMid"><path d="M194.533165 259.738335c-10.035472 9.735478-20.029815 23.101135-30.147545 32.754109 4.812091 25.369997-4.606446 36.508045 6.745153 45.624743 4.112899 3.25891 28.790289 10.230503 42.979788 2.145105.287903-13.159397-6.86854-17.078339-14.518531-21.98733-7.773378-16.500811-4.976607-42.077068-5.141123-58.536627" fill="#2e93ee"/><g style="fill:#2e578b"><path d="M200.291223 343.974975c-1.648464-7.537173-6.965105-13.737809-14.148371-16.500811 5.698733 3.493768 9.066278 9.807074 8.801603 16.500811 1.809675.082504 3.578221.082504 5.346768 0z"/><path d="M212.259757 341.252341c-1.604567-7.53234-6.896779-13.74058-14.066112-16.500811 7.320959 5.651528 9.665311 11.715576 8.637086 18.3159 1.863167-.430274 3.681098-1.038064 5.429026-1.815089h0z"/></g><path d="M182.811402 128.391883c-5.182252 7.549121-7.485475 23.3899 33.725766 46.614792 0 0-17.315302 29.990223-22.785457 35.476743-5.470155 5.48652-8.801602 20.089737-3.454834 27.432598 2.767625 3.861867 5.938858 7.415976 9.459666 10.601771 0 0 13.654823 2.557626 19.495138-.742536 7.224548-8.012031 8.853739-19.630231 4.112899-29.330192 0 0 34.753991-36.466792 32.533026-47.439831-2.220965-10.973039-56.67574-66.53952-73.086204-42.613345z" fill="#2e93ee"/><path d="M223.158935 218.445059c0 0-14.066113 11.633072-17.603205 13.61317 2.865735-.869871 5.62497-2.059892 8.225796-3.547675 0 0 6.251606 7.672877 1.686289 14.149445 0 0 8.225796-4.826486 2.755642-15.923282 1.895472-2.396058 3.626856-4.918211 5.182252-7.549121l-.246774-.742537z" fill="#2e578b"/><g style="fill:#2e93ee"><g transform="translate(20.434178 192.085017)"><path d="M57.8684801 19.594713c-.1000188 2.6992711-.9241263 5.3215026-2.3854811 7.5903731-2.3854811 3.7539345-3.7427375 3.3414142 2.1798361 6.5590723 4.4102582 2.240372 9.1656507 3.7186749 14.0661124 4.372715 8.2257969 1.3613169 6.3749926.4537722 2.714513-7.384113-1.60927-3.5291073-3.5221511-6.9108191-5.7169287-10.1067467-8.2257967-11.34430752-10.5290199-10.560519-10.8580517-1.1138047"/><path d="M28.3378697 15.6757705c-3.0435447 5.6515277 1.6040305 6.5590723 7.5677331 8.6629257 2.2351961.7801399 4.554519 1.2924712 6.9096692 1.526325 6.7040244.7425365 4.9766071-.2475122 2.0153202-5.6927797-1.7834746-3.3580768-3.7610352-6.6087749-5.9225736-9.7354786-11.8040183-16.99583526-6.1693476-3.01139796-10.5701489 5.2390076"/><path d="M2.83789987 13.1593968c.09993467 1.2906203.09993467 2.5870702 0 3.8776905-.41128983 4.7027311-.94596662 3.9189426 4.85322008 4.455219 2.58295375.2919059 5.19042425.2919059 7.77337795 0 7.403217-1.1138047 4.6887041-3.7126824.8225796-8.0441454-1.3208187-1.5093555-2.780494-2.8905273-4.3596722-4.12520268C-2.71451293-1.98009732 2.79677089 5.98154398 3.00241581 13.2006488"/></g><path d="M121.364703 39.4525146c0 0-41.9926922 21.6985663-41.6225313 28.5876549.3701608 6.8890886 11.8451472 5.9402921 16.4515932 15.1807462 0 0-25.7056145 17.8208763-24.0604552 25.9887773 1.6451594 8.167901 18.2201397 5.197755 22.3330378 11.674324 0 0-4.1128981 16.253298-.370161 22.193591 3.7427377 5.940291 3.1669322.82504 8.2257975 8.251076.370161.164337-2.591126-60.4761433 19.042719-111.8761694z"/><path d="M112.5631 59.1709837c14.806434 14.1081934 33.478994 22.9773792 50.506393 33.9091665 11.720449 7.0279128 22.051355 16.1591718 30.476576 26.9375738 10.199989 13.695673 4.112899 29.825216 6.662896 46.614791.78145 5.69278 1.151611 11.468064 1.398385 17.243347.439011 10.500038.136643 21.018075-.904837 31.475298-2.591126 24.998728-3.866124 45.377229-21.46933 64.105651-21.962877 23.431151-46.14672 28.876418-73.579752 8.497917-9.6688416-6.338026-18.47562-13.909276-26.1991622-22.523607-5.6346708-6.600325-12.626598-10.808031-18.6725586-16.954584-7.6773163-8.162651-16.833879-14.78462-26.9806133-19.512208-10.6112778-4.125204-17.9322369 1.485072-23.1556179 3.87769-2.67338391 1.237561-6.37499244 3.630179-9.37740825 1.237561-1.156681585-.869349-1.579741951-2.413896-1.028224598-3.753935 1.565302118-3.759419 3.938701028-7.125924 6.950798248-9.859234 16.1636906-14.85073 42.2805952-15.180746 61.6934755-4.743983 7.3620881 4.125202 15.3822399 8.456665 23.8959392 8.992942 6.0049723.700882 12.0414979-1.02052 16.7806249-4.785235 3.676246-3.386567 6.097809-7.924219 6.868541-12.870633 1.371767-6.88049.874587-14.004307-1.439515-20.626013-3.166931-9.570471-8.84273-18.233396-12.544339-27.680111-12.3386955-32.135329-16.4515938-68.7671298 3.578221-98.7986058l2.796771-4.1252028 3.742737 3.3414143z"/></g><path d="M37.2559315 230.366898c14.1483704 7.095348 29.2015785 22.977378 43.6378517 40.09697 18.8782039 22.482355 65.8063738 55.607733 104.9200368 3.547674 36.645925-49.007408 19.412881-117.692033 17.274174-125.488667l-.246774-.825041c-1.23387-1.567576-33.890282-43.397132-63.832183-49.5024323-7.979022 6.9303403-9.541924 19.1821923 1.069354 40.3032303 17.891107 35.517996 32.203994 87.289291.411289 119.094604-4.73384 4.855787-10.53784 8.529463-16.945141 10.725526-22.579812 7.466617-34.548346-6.270308-48.6967164-19.553461-10.298005-9.933481-23.4482225-16.369524-37.5918911-18.398403h0z" fill="#ffcf00"/><g style="fill:#eca93f"><path d="M190.214622 267.741234c-13.766696-1.566661-26.833518-6.920384-37.756407-15.46951 7.802693 11.413257 19.796737 19.260151 33.355605 21.822322 1.562902-2.062601 3.249191-4.207706 4.400802-6.352812z"/><path d="M126.629213 270.91764c5.371148 11.42071 13.144441 21.539336 22.785457 29.660208 3.079763-.725509 6.082423-1.747809 8.966118-3.05265-12.93189-5.594165-23.963394-14.838473-31.751575-26.607558h0z"/><path d="M78.5905601 267.823738l2.3032231 2.722634 1.0693536 1.278813c-.7331825-3.352172-.3727142-6.851945 1.0282245-9.982991-1.6038439 1.888768-3.0743481 3.887469-4.4008012 5.981544h0z"/><path d="M94.4663475 283.705769c1.6451592 1.320065 3.3314476 2.640129 5.0999941 4.125203-1.1927401-5.69278-1.7274174-11.633072.2056455-14.933235-2.1616646 3.394763-3.9410976 7.019618-5.3056396 10.808032z"/></g><path d="M63.4550941 251.364179l3.6604796 3.753935c-.0604167-2.650754.2160004-5.298434.8225796-7.879137-1.5970692 1.258368-3.0957971 2.637461-4.4830592 4.125202z" fill="#ff9144"/><g style="fill:#eca93f"><path d="M162.575945 225.086638c14.309658-4.330239 29.574967-4.330239 43.884626 0 .37016-2.062601.699192-4.125203.987095-6.1053-28.749159-6.847836-44.871721 6.1053-44.871721 6.1053z"/><path d="M208.311374 179.95692c-.205644-2.475122-.452418-4.826487-.699192-7.095349h0c-30.476577-.742536-46.187849 14.108193-46.187849 14.108193 14.452341-7.390938 30.913559-9.853025 46.887041-7.012844z"/><path d="M196.301711 139.942453c-1.19274-1.361316-2.508867-2.846389-4.112898-4.413967-32.36851 0-41.128983 15.098243-41.128983 15.098243 13.475409-8.510906 29.396097-12.27072 45.241881-10.684276z"/><path d="M207.900085 175.295441c-.797078-7.333839-1.991585-14.618724-3.578222-21.822323l-2.344352-1.44382c-10.323375-6.765333-55.812031-34.197931-69.137821-42.448337-.230679 2.028524-.230679 4.076776 0 6.1053 13.983854 19.635965 45.365269 52.8851 75.060395 59.60918z"/></g><path d="M104.748596 254.664339c4.179559-6.163818 11.349757-9.58616 18.754817-8.95169 20.811266 2.722634 14.230628 27.432599 9.254021 41.953312-3.457091 10.439458-5.450362 21.310294-5.922574 32.300338 0 14.355706 5.470155 18.687168-1.19274 24.297444-10.606181 7.452351-23.438366 11.033982-36.3580217 10.147999-11.5572444-2.64013-11.8451473-26.483802 6.5806375-32.54785 5.0999942-11.138047 4.8943492-22.523607 4.4830592-34.404191-.287903-8.250405-.9870957-24.751216 4.400801-33.001622" fill="#2e93ee"/><g style="fill:#2e578b"><path d="M100.265537 354.287986c1.645159-.247512 3.290319-.536277 4.894349-.907545-1.446241-7.009906.717315-14.279501 5.758058-19.3472-7.567733 4.331462-10.035472 11.715575-10.652407 20.254745z"/><path d="M89.1195824 354.452994c-1.7186282-7.655916.3486419-15.673274 5.5524128-21.533558-6.3980485 3.968969-10.3365044 10.93632-10.4467619 18.480907 1.2658765 1.51416 2.9805142 2.583596 4.8943491 3.052651h0z"/><path d="M99.813117 224.467853c0 0-2.385481 13.819429 6.991927 18.439656 7.896765 4.125203 17.603205 4.125203 22.456425-1.773837 6.704025-8.250405 16.451594-24.751217-10.241117-40.963263-16.451593-10.024243-17.479818 24.00868-17.479818 24.00868l-1.727417.288764z"/><path d="M102.11634 158.217097c3.495964 7.631625 6.662895 13.530665 6.827411 14.066941.164516.536276 21.716104-27.020078 17.685463-31.475297-4.03064-4.455219-21.099168 11.426812-24.512874 17.408356z"/></g><g style="fill:#2e93ee"><path d="M123.256638 118.697654c23.320134 22.56486-25.0886803 52.431327-25.0886803 52.431327 5.2645103 3.341415 11.9274053 14.768226 16.9040123 23.101136 4.976607 8.332909 6.950798 6.971592 13.037888 13.901933 6.087089 6.93034-11.269342 17.284599-11.269342 17.284599 0 0-58.2386407-31.557801-58.074819-51.771294 0-2.516374 13.5321299-24.998729 27.1869525-38.941914 6.8685403-7.012845 26.1580335-26.772566 37.3039885-16.005787z"/><path d="M100.635697 214.196098c0 0-4.1128986 21.492306 8.47257 27.762615 0 0 10.405633.660032 15.670143-3.135155 0 0 13.120146-20.213493 3.331448-30.691508-9.788698-10.478015-27.474161 6.064048-27.474161 6.064048z"/></g><path d="M100.388923 215.722423c0 0 16.821754 9.034194 19.741912 9.859235-2.928275.404229-5.910739-.039469-8.595958-1.278813 0 0-4.112898 8.250405.699193 13.365657 0 0-7.732249-1.361317-4.976607-14.314454l-7.033056-7.260357.164516-.371268z" fill="#2e578b"/><path d="M115.483255 52.6944119c0 0 8.760473-51.812546485 30.188674-52.6788390603C159.77917-.603207569 166.894485 17.4239284 166.894485 17.4239284c8.640857.0383047 17.090051 2.5577421 24.348358 7.2603568 0 0 4.112898-7.1366007 10.652407-4.8264871 6.539508 2.3101135 13.983854 17.3258515 11.31047 41.9945638 6.470823.9967986 12.134599 4.9003948 15.38224 10.6017711-1.732959 2.494582-4.379652 4.2000576-7.362088 4.7439832-4.44193.3712682-23.608037-6.6415765-28.790289-2.0626014-5.278422 3.7051487-7.953256 10.1311043-6.86854 16.5008112 0 0-21.181426-2.1451056-30.599964-14.2319497-9.418537-12.086844-17.520947-35.5179956-39.483824-24.7099644z" fill="#2e93ee"/><g style="fill:#f1f1f2"><path d="M188.404943 56.4483463c0 0 5.26451-17.4083555 15.38224-22.2760947.359185 8.426409 1.279786 16.8192952 2.755642 25.1224847-5.985477-1.3025791-12.041774-2.2529979-18.137882-2.84639h0z"/><path d="M142.587255 20.7653427c0 0 13.037888 6.3115601 21.798362 33.4141422-9.757921-1.6659452-19.632755-2.5487865-29.530611-2.6401298 4.851603-9.5443997 7.494589-20.0633712 7.732249-30.7740124z"/></g><g style="fill:#2e578b"><path d="M147.934023 32.8109346c3.166932 0 5.758058 3.5476744 5.758058 7.9616414 0 4.4139669-2.591126 7.9203892-5.758058 7.9203892-3.166932 0-5.758058-3.5476744-5.758058-7.9203892 0-4.372715 2.549997-7.9616414 5.758058-7.9616414"/><path d="M196.630739 53.9319727c2.508869 0 4.524189-2.6813818 4.524189-6.022796 0-3.3414142-2.01532-6.022796-4.524189-6.022796-.481821.0268719-.955168.138581-1.398385.3300162-1.382201 1.6045864-2.43094 3.4699142-3.084673 5.4865196-.020272.1367552-.020272.2757652 0 .4125203-.041129 3.1351541 1.974191 5.8165359 4.483058 5.8165359z"/></g><path d="M143.821125 65.6062965c0 0-15.629014-12.3756083-23.566908-3.5476744-9.459666 10.6430231 0 27.1850861 0 27.1850861 0 0 1.151612-7.0953488 4.688704-9.4467143 0 0 1.398386 22.3998511 37.756407 47.3160751 36.358022 24.916225 52.192681 22.193591 60.130574 20.089737 7.937895-2.103853 15.999175-7.796632 12.955631-14.190696-3.043545-6.394065-23.566908-23.761169-23.566908-23.761169 0 0-7.773378.948798-23.608037-4.620227-15.834659-5.5690235-37.016085-16.5008106-50.670908-35.4767432 2.020232-1.0799224 3.983343-2.2640666 5.881445-3.5476743" fill="#ff9144"/><path d="M134.69049 94.7302281c20.360933-4.8988887 41.809434.8947755 56.963643 15.3870059l-4.112899-2.227609c0 0 18.672559-.907545 21.263685 1.691333 11.079816 7.509979 18.184021 19.638419 19.330623 33.001622.534676 6.394064-14.559661 10.024242-48.20317-6.765332-20.893523-10.560519-45.241882-41.0870199-45.241882-41.0870199z" fill="#ff6b17"/><path d="M175.5727 98.9791866l.781451.4125204-.781451-.4125204z" fill="#ff9144"/><g style="fill:#ebeef2"><path d="M210.696852 109.127185c0 0-4.524188 18.604665-11.516115 16.500812-2.344352-.701285-1.398386-5.981544-2.344352-9.611723-.945966-3.630178-3.66048-10.560519-3.66048-10.560519l17.520947 3.67143z"/><path d="M245.286327 102.073089c0 0-1.439514 19.099688-8.678215 18.192144-2.42661-.288765-2.344352-5.651528-3.866124-9.075446-1.521773-3.423918-5.264511-9.859234-5.264511-9.859234l17.80885.742536z"/></g><path d="M252.977448 85.3247656c-.904838-13.4481609-18.590301-19.3472009-31.58706-9.9004866-10.611278-2.3513655-22.374167-9.4467143-32.903187 1.1963088-4.30483 3.6092114-5.63984 9.6770999-3.24919 14.7682256 0 0-22.045135-3.5476742-29.653997-14.8094776-7.608862-11.2618035-17.562076-26.3600456-28.214483-27.4325983-5.6758-.5362764-15.258853-1.3613169-20.811266 9.4879663-5.552412 10.8492833-8.2257963 30.4439963 32.903187 61.4655202 41.128984 31.021525 59.143479 39.395687 68.109598 39.354737 11.392728 0 12.091921-4.125505 25.212067-6.105602 6.704024-.948797 11.804018-12.375608 4.441929-22.276095-6.151192-7.761262-13.612761-14.379479-22.045135-19.553461-.41129.41252 15.958046 13.571917 19.001591 19.965981 3.043544 6.394065-5.963703 10.436763-13.860467 12.375609-7.896766 1.938844-18.055624 4.125203-54.372517-20.626014-36.316893-24.7512167-40.224146-49.7911974-40.224146-49.7911974-4.606446-.7012844-5.141123 9.3229582-5.141123 9.3229582 0 0-5.305639-11.5918196 1.809675-18.5221603 8.595958-8.2504054 17.479818 1.9388454 17.479818 1.9388454h-.534677c-5.387896-2.5988778-6.128218 2.0626013-6.128218 2.0626013 14.321384 18.4916882 33.244278 32.8757058 54.866064 41.7057998 15.834659 5.569023 24.142714-.701285 24.142714-.701285 7.519653-.053518 15.025265-.660175 22.456425-1.815089 5.675799-1.526324 19.577396-3.918942 18.302398-22.1110864z" fill="#ffcf00"/><g style="fill:#eca93f"><path d="M200.291219 83.8809447c3.701608-1.1550569 6.539509 3.8364385 1.686288 5.9815439-.699193 1.8563413.41129 3.8776909 3.372577 4.5789754-2.907508 1.4011454-6.396975.1729467-7.793942-2.7432603-1.396967-2.9162067-.172431-6.4161128 2.735077-7.817259"/><path d="M241.996009 82.3546196c-3.043545-.9900487-5.387897 3.1351541-1.357257 4.9502433.534677 1.526325-.370161 3.1764058-2.837899 3.7539349 7.814506 1.6088283 8.225796-7.2603572 4.112898-8.7041782"/></g></svg>