<svg width="256px" height="288px" viewBox="0 0 256 288" xmlns="http://www.w3.org/2000/svg" preserveAspectRatio="xMidYMid"><title>Hotjar</title><path d="M256 100.585451c0 53.067482-23.653872 81.017778-49.307559 99.402631l-4.984387 3.443092h0l-4.99944 3.229261h0l-4.979605 3.040489h0l-4.924879 2.876774h0l-18.62307 10.451022c-.969421.553764-1.925397 1.105123-2.867526 1.655544l-5.483426 3.303005c-19.473226 12.155789-31.858091 25.277242-32.898224 54.980103l-.071118 4.154634H71.7524953c0-51.354967 22.157734-79.189073 46.8374757-97.594615l4.963758-3.55957c.830958-.573701 1.663263-1.13797 2.49619-1.693328l4.999185-3.229402h0l4.979169-3.040605h0l9.758656-5.615035h0l13.786683-7.712308h0l5.651967-3.305121c21.022852-12.649075 34.509972-25.578948 35.597401-56.631937l.071119-4.154634H256zM184.251769.144276645c0 51.351087855-22.153198 79.185790155-46.833255 97.591939455l-4.963887 3.5596899c-.830992.573721-1.663337 1.138009-2.496309 1.693386l-4.999541 3.229507h0l-4.979696 3.040692h0l-9.76029 5.615118h0l-13.7879014 7.713083h0l-5.6520001 3.30556c-.9140414.550028-1.813837 1.100584-2.6989871 1.653134l-5.1319563 3.350973c-16.4993812 11.327915-26.8207706 24.627-27.7663465 51.630008l-.0711181 4.154697H0c0-54.779806 25.2056791-82.793115 51.7974742-101.1521923l4.9963898-3.3333692h0l4.993985-3.132165h0l4.9566882-2.9560275h0l21.0766582-11.8724882h0l5.6520001-3.3055255C114.496148 48.2798112 127.983073 35.3501528 129.070485 4.29870239l.071118-4.154425745h55.110166z" fill="#ff3c00"/></svg>