<svg width="256px" height="251px" viewBox="0 0 256 251" xmlns="http://www.w3.org/2000/svg" preserveAspectRatio="xMidYMid"><path d="M203.939787 250.980392H6.71579231C3.00827645 250.980392 0 248.032585 0 244.396282V6.58410988C0 2.94929042 3.00676261 0 6.71579231 0H249.284207C252.991722 0 256 2.94780649 256 6.58410988V109.950564c-.972696-2.949975-12.365348-36.7002971-29.969881-53.8408309-18.418618-17.9331612-51.815724-32.6068981-46.849397-20.8126625 4.966326 11.7942355 4.966324 42.5165825 4.966324 42.5165825l-50.005127 19.072897-7.500354 27.7413739-61.1987947 16.135128c0 0 4.3611372 31.214733 21.9518083 36.670211 11.2831322 3.499291 85.2409834 11.658016 85.2409834 11.658016l-14.040197 61.889113h45.344422 0z" fill="#a873d1"/></svg>