<svg width="256px" height="361px" viewBox="0 0 256 361" xmlns="http://www.w3.org/2000/svg" preserveAspectRatio="xMidYMid"><path d="M255.554813 70.7657143 232.31367 331.125451l-104.469802 28.962461-104.1821537-28.92167L.445186813 70.7657143H255.554813h0z" fill="#e44d26"/><path d="M128 337.950242l84.416703-23.403605 19.861099-222.4893183H128V337.950242h0z" fill="#f16529"/><g style="fill:#ebebeb"><path d="M82.8202198 155.932132H128v-31.937407H47.917011l.7644835 8.568264 7.8494945 88.009846H128v-31.936703H85.7389011l-2.9186813-32.704h0z"/><path d="M90.0177582 236.54189H57.957978l4.4743736 50.145758 65.4206594 18.161231.146989-.040791v-33.227956l-.139956.037275-35.5685275-9.60422-2.2737583-25.471297h0z"/></g><path d="M24.1807473 0h16.229978v16.0351648h14.8465934V0H71.488v48.5584176H55.258022V32.2981978H40.4114286v16.2602198H24.1814505V0h-7.032e-4 0z"/><path d="M92.8309451 16.1026813H78.5427692V0h44.8140658v16.1026813H109.06233v32.4557363H92.8316484V16.1026813h-7.033e-4 0z"/><path d="M130.469275 0h16.923428l10.410198 17.061978L168.202549 0h16.929759v48.5584176h-16.163165V24.4901978l-11.166242 17.2652308h-.279209l-11.173978-17.2652308v24.0682198h-15.880439V0h0z"/><path d="M193.20967 0h16.234901v32.5077802h22.824088v16.0506374H193.20967V0h0z"/><g style="fill:#fff"><path d="M127.889582 220.572835h39.326945l-3.707076 41.419956-35.619869 9.614066v33.22655l65.472704-18.145759.480351-5.395692 7.504879-84.079824.779253-8.576h-74.237187v31.936703h0z"/><path d="M127.889582 155.854066v.078066h77.143209l.640704-7.17855 1.45512-16.190593.763781-8.568264h-80.002814v31.859341h0z"/></g></svg>