<svg width="256px" height="256px" viewBox="0 0 256 256" xmlns="http://www.w3.org/2000/svg" preserveAspectRatio="xMidYMid"><path fill="#222" d="M0 0h256v256H0z"/><path d="M114.4064 35.2768 91.8272 99.81952l-68.494336.18944L78.84288 141.0304l-19.94752 66.23232 56.07424-39.70048 57.58464 42.14784-21.07904-68.86912 54.94784-41.02144-68.30592.18944L114.4064 35.2768" fill="#e08524"/><path d="M117.22752 34.335744l22.76864 10.725888 19.004928 51.93728h-18.817024l-22.956544-62.65856" fill="#466770"/><path d="M156.3392 142.23872l22.486528 11.04384 54.42048-39.517696-22.486528-11.975168-54.42048 40.449024" fill="#304a51"/><path d="M156.30848 142.19776l22.517248 11.035648 21.28896 68.8384-23.284736-11.842048-20.521472-68.02944" fill="#466770"/><path d="M62.09536 209.61792l52.87424-37.821952 18.534912 13.736448L83.5456 220.532224l-21.451264-10.913792" fill="#304a51"/></svg>