<svg width="256px" height="306px" viewBox="0 0 256 306" xmlns="http://www.w3.org/2000/svg" preserveAspectRatio="xMidYMid"><title>httpie</title><path d="M256 66.2798805C255.732226 29.407965 224.97426 0 188.102344 0H67.9587024C31.3658737 0 .718243862 28.9471472.0107911615 65.5529567-.311290753 83.4942468 6.58801396 100.81275 19.1587608 113.617825c12.5707468 12.805076 29.7588869 20.023026 47.7030654 20.032322h53.6755398c1.799212.053419 3.327366 1.332974 3.696087 3.094809.36872 1.761835-.518086 3.546798-2.144883 4.317218l-82.285187 36.067107C15.4634407 187.918888-.163474983 212.112443.0107911615 238.73608.289878007 275.614486 31.0283733 305.048412 67.9132696 305.048412H96.068589c37.144512 0 68.071229-29.790898 68.012815-66.93541-.075921-27.212683-16.623962-51.669091-41.856536-61.859924-1.43154-.590512-2.37083-1.980254-2.384984-3.52874-.014155-1.548486.899574-2.955166 2.32008-3.571748l94.11068-41.265911C240.586348 117.078867 256.185616 92.8886603 256 66.2798805z"/></svg>