<svg width="256px" height="238px" viewBox="0 0 256 238" xmlns="http://www.w3.org/2000/svg" preserveAspectRatio="xMidYMid"><title>Hugging Face</title><path d="M255.138167 174.711097c-.66751-2.519633-1.748951-4.90999-3.199573-7.075357.310759-1.141107.546936-2.299616.706044-3.469312 1.029233-7.428379-1.545093-14.232754-6.399146-19.490793-2.629019-2.873898-5.44698-4.77077-8.431508-5.935494 1.959024-8.381787 2.950966-16.955001 2.955938-25.569236 0-3.930477-.222503-7.781401-.595414-11.575144-.195157-1.8943861-.43009-3.7850428-.704801-5.6694843-.855208-5.5600969-2.123104-11.0493407-3.793744-16.4204962-1.095114-3.5289772-2.361767-7.0032609-3.794986-10.4091776-2.149209-5.0442372-4.658897-9.9268799-7.509177-14.6056647-1.870768-3.1150465-3.90686-6.128164-6.100817-9.0256793-1.075225-1.4630525-2.1952-2.8913001-3.361167-4.2834996-3.453152-4.1977302-7.204633-8.1381521-11.228338-11.7926758-1.33502-1.2283675-2.708574-2.4139746-4.119419-3.556324-1.388471-1.1582603-2.808017-2.2797267-4.256153-3.3624105-2.914918-2.1690966-5.928035-4.2051884-9.028165-6.0995742C169.148714 5.96656941 149.061264 0 127.581614 0 65.0693691 0 14.4032505 50.6661186 14.4032505 113.178364c-.0016159 8.716163 1.008226 17.402494 3.0093885 25.879994-2.6849563 1.165967-5.2592823 2.982042-7.64466708 5.611062-4.85280979 5.259282-7.42837892 12.03631-6.39790266 19.465932.15537941 1.180884.39155612 2.349337.70480101 3.497902-1.44937915 2.16661-2.53081986 4.55821-3.199572843 7.077843-1.491642354 5.669484-1.000643412 10.782088.894985413 15.264473-2.059709484 5.855939-1.545092872 12.091004 1.13862033 17.514367 1.95156541 3.959068 4.74466572 7.020664 8.18663043 9.75907 4.0933152 3.253024 9.2171067 6.018777 15.4012073 8.670172 7.3736854 3.144879 16.3707748 6.099574 20.460361 7.183501 10.5732582 2.738406 20.708968 4.473684 30.9888698 4.556967 14.6429558.136734 27.2473333-3.306474 36.2717703-12.115865 4.433907.543206 8.896403.815431 13.362629.814188 4.719805-.009944 9.434638-.308273 14.120881-.890013 9.004548 8.865328 21.653675 12.339611 36.346352 12.199148 10.273687-.080797 20.41064-1.816074 30.951579-4.55821 4.120662-1.083927 13.114022-4.038622 20.497652-7.182258 6.181614-2.65761 11.304163-5.42212 15.426068-8.671414 3.415861-2.737164 6.206475-5.800003 8.159283-9.75907 2.71106-5.420877 3.199573-11.655942 1.165968-17.514368 1.878226-4.478656 2.365496-9.602447.875096-15.264473l.014917-.006215zm-10.489975 14.879132c2.077112 3.941665 2.210117 8.395461.37664 12.542226-2.779427 6.287273-9.683245 11.238282-23.095596 16.55723-8.337038 3.307717-15.973004 5.420877-16.035155 5.440766-11.028209 2.860224-21.007297 4.312089-29.633962 4.312089-14.294906 0-24.935288-3.944151-31.684969-11.735496-11.409821 1.942864-23.058305 2.008745-34.49423.195157-6.754654 7.662069-17.3279118 11.540339-31.5109445 11.540339-8.6353662 0-18.6082384-1.451865-29.6339615-4.312089-.0683669-.019889-7.6993606-2.133049-16.0351553-5.440766-13.4123508-5.316462-20.3111967-10.264985-23.09559572-16.55723-1.83347706-4.148009-1.70047228-8.601804.37663972-12.542226.1926704-.365452.3977713-.723446.6177885-1.067767-1.24552135-1.869525-2.07959803-3.982685-2.45002255-6.197774-.37017591-2.215089-.26712828-4.484871.30230618-6.657697.82537544-3.134935 2.53081987-5.742823 4.84535157-7.616077-1.1145054-1.832234-1.8459074-3.870812-2.150451-5.993917-.666267-4.616633.8651525-9.227051 4.3133324-12.989718 2.6837132-2.924862 6.4787-4.534593 10.6814023-4.534593h.1118732c-3.168497-10.154356-4.7744986-20.733829-4.7645543-31.374211 0-58.0124572 47.0364555-105.04891274 105.048913-105.04891274 58.024887 0 105.048912 47.03645554 105.048912 105.04891274.007459 10.665243-1.60973 21.268334-4.796873 31.448793.507159-.049721 1.004373-.075825 1.491643-.075825 4.201459 0 7.997689 1.608487 10.681402 4.533349 3.445694 3.75521 4.980842 8.369357 4.313332 12.989719-.304543 2.123105-1.035448 4.162926-2.150451 5.99516 2.314532 1.872011 4.019976 4.479899 4.845352 7.616077.568067 2.172825.671239 4.441365.300814 6.657697-.370424 2.215089-1.204501 4.327006-2.448779 6.197774.220017.340591.427604.698586.617788 1.064038l.00721.004972z" fill="#fff"/><path d="M243.950849 188.508788c1.244279-1.870768 2.078355-3.982685 2.44878-6.197774.370424-2.216331.267252-4.484871-.300815-6.657697-.825375-3.134935-2.53082-5.742823-4.845351-7.616077 1.113759-1.832234 1.845907-3.870812 2.150451-5.993916.666267-4.616633-.865153-9.227051-4.313333-12.989719-2.683713-2.924862-6.479943-4.534593-10.681402-4.534593-.488513 0-.984484.024861-1.491642.075826 3.183413-10.177973 4.798116-20.783551 4.788172-31.448793 0-58.0124576-47.036456-105.04891309-105.048913-105.04891309-58.0124574 0-105.0489129 47.02402519-105.0489129 105.04891309-.0100686 10.636653 1.5960573 21.218612 4.7645543 31.37421h-.1118732c-4.2014593 0-7.996446 1.609731-10.6801592 4.534593-3.4456939 3.75521-4.9795994 8.368114-4.3133325 12.989719.3041707 2.123104 1.035697 4.161682 2.150451 5.993916-2.3145317 1.873254-4.0199761 4.481142-4.8441085 7.61732-.56906155 2.172826-.67173627 4.442609-.30106314 6.658941.37067312 2.215088 1.20611714 4.328248 2.45126564 6.197774-.2225034.34432-.4263612.702314-.6177886 1.067767-2.07586893 3.941665-2.21011674 8.39546-.37663968 12.542226 2.77818388 6.286029 9.68324498 11.239525 23.09559578 16.55723 8.3370377 3.307717 15.9730035 5.420877 16.0351553 5.440766 11.0282091 2.860224 21.0072965 4.313332 29.6339614 4.313332 14.1830327 0 24.7612633-3.87827 31.5109443-11.541583 11.430953 1.813589 23.083166 1.747708 34.49423-.195156 6.745952 7.791345 17.390064 11.736739 31.684969 11.736739 8.634124 0 18.608239-1.453108 29.633962-4.313332.067124-.019889 7.69936-2.133049 16.035155-5.440766 13.412351-5.315219 20.311197-10.268714 23.095596-16.55723 1.833477-4.148009 1.700472-8.601804-.37664-12.542226-.190184-.369182-.399014-.725933-.619031-1.067767l-.002238-.00373zM105.22811 204.891994c-.58174 1.018046-1.204501 2.011231-1.868282 2.977069-1.746464 2.556924-4.0435935 4.509732-6.7086612 5.96284-5.0976877 2.778184-11.5477978 3.750238-18.0985938 3.750238-10.351998 0-20.9700055-2.422676-26.9117142-3.966526-.2921133-.075825-36.4582251-10.292332-31.8838553-18.993579.7706819-1.461809 2.039821-2.046036 3.6358783-2.046036 6.4476241 0 18.1856063 9.601205 23.2323296 9.601205 1.12619 0 1.9217326-.481055 2.2461648-1.650751 2.1504511-7.713034-32.6793979-10.95487-29.7458346-22.126029.5183457-1.976426 1.9217326-2.778183 3.8969157-2.778183 8.523493-.001243 27.6575353 14.991005 31.6601089 14.991005.3070297 0 .527047-.089498.6463784-.27844l.0522074-.085769c1.8769833-3.101373.8005148-5.356239-12.0673866-13.238326l-1.2355771-.752036c-14.158172-8.570729-24.1024543-13.72311-18.4466437-19.876135.6501074-.711016 1.5711966-1.025504 2.6911714-1.025504 1.3288047 0 2.9360493.445007 4.7061316 1.189585 7.4781003 3.15358 17.8375565 11.754142 22.1757496 15.50065 1.2765973 1.111274 2.0286336 1.789971 2.0286336 1.789971 0 0 5.4817857 5.70056 8.7969608 5.70056.7632237 0 1.409602-.299572 1.8483935-1.04415 2.3518228-3.962796-21.8276998-22.287623-23.1950386-29.845277-.9235752-5.123792.6488644-7.718006 3.5588101-7.718006 1.3822552 0 3.0702971.587955 4.933607 1.770082 5.7801142 3.66944 16.9425711 22.846988 21.0321572 30.3052 1.3698249 2.500987 3.7079743 3.557567 5.8149191 3.557567 4.1803277 0 7.4482675-4.155467.3828549-9.435881-10.6192505-7.946724-6.8926307-20.932714-1.8247758-21.728257.2162881-.033562.4350623-.050964.6525935-.052207 4.6091749 0 6.6427806 7.942995 6.6427806 7.942995 0 0 5.9578682 14.966145 16.1967499 25.196326 9.289203 9.28423 10.585689 16.90528 5.174756 26.40207l-.019889.003729zm33.10203 1.752679-.530776.063395-.906173.104415c-.476082.048479-.952165.095714-1.430733.140463l-.467381.042263-.425119.036048-.605358.048479c-.222503.016159-.445006.033562-.66751.047235l-.666267.044749-.146678.008702-.524561.031075-.222503.011188-.621518.031076-.722203.029833-.656323.022374-.437548.012431h-.22126c-.136734 0-.272225.007458-.408959.008701h-.217531c-.136734 0-.272225 0-.408959.007458l-.555637.006215h-.77814c-.61033 0-1.218174-.006215-1.826019-.017402l-.492242-.011188c-.139219 0-.279682-.007458-.418902-.011187l-.520832-.016159-.648865-.024861-.582983-.024861-.15165-.006215-.555637-.029833c-.154137-.008701-.308273-.016159-.461166-.026104l-.359238-.021131c-.451221-.02859-.902443-.060909-1.353665-.095714l-.472353-.037291-.596657-.050964-.697343-.064638c-.38907-.036048-.77814-.075825-1.16721-.119332h-.018646c5.680671-12.67896 2.808017-24.512656-8.671414-35.973441-7.527822-7.517878-12.5422262-18.620669-13.5739454-21.057018-2.1032158-7.21582-7.6707708-15.239613-16.9177104-15.239613-.7818692.001243-1.5612523.063395-2.3331772.185213-4.0510521.636434-7.5912166 2.968368-10.1170643 6.476213-2.7284625-3.394729-5.3823428-6.093359-7.781401-7.618563-3.6172327-2.292157-7.2257641-3.455638-10.743554-3.455638-4.3879146 0-8.312177 1.802401-11.0468547 5.071584l-.0683669.083283-.1541364-.647621-.0062152-.027347c-.5200859-2.225033-.9570128-4.469955-1.3101592-6.727307 0-.016159 0-.031076-.0074582-.045992l-.0770682-.510888c-.0416416-.275953-.0822889-.55315-.1218174-.829104-.0323189-.229962-.0646378-.459923-.0944707-.688642-.0298328-.228718-.0621518-.45868-.0894985-.688641-.0298329-.231205-.0571797-.461166-.0845264-.691128-.0262281-.218774-.0514617-.437548-.0758252-.656322l-.0073339-.055937c-.1121218-1.009345-.2082084-2.019932-.2885085-3.031763l-.0435062-.58547c-.0124304-.160351-.0236177-.321946-.033562-.484784 0-.037291-.0049721-.075825-.0074582-.11063l-.0408958-.648864c-.0149165-.234934-.0262281-.469867-.0386584-.704801-.0124304-.233691-.0248608-.468624-.034805-.704801l-.0248607-.615303-.0074583-.186455-.0186455-.56931-.0135491-.482298c0-.19267-.0088255-.386584-.0125546-.579254l-.0099443-.607844c-.0024861-.202615 0-.403987-.0049721-.606602-.0062152-.203857 0-.406472 0-.61033 0-52.0210271 42.1761875-94.1972146 94.2096449-94.1972146 52.033457 0 94.209645 42.1761875 94.209645 94.1972146v1.216932c0 .202614-.004972.406472-.009944.607844 0 .169053-.006216.334376-.011188.503429 0 .150407-.006215.299572-.01243.445007 0 .190184-.011187.379125-.017402.56931v.016159c-.01616.412688-.033562.825376-.050965 1.238063l-.007458.136734-.032319.616546-.029833.488513c-.06961 1.157266-.160351 2.314531-.270982 3.469311v.01616c-.019888.216288-.042263.433819-.06588.650107-.054694.503429-.110631 1.006859-.166567 1.510288l-.063395.505915-.078311.594171c-.027347.217531-.05718.43382-.088256.650108-.033562.242392-.06961.48354-.104415.724689l-.087012.56931-.101929.646379c-.034805.215045-.06961.428847-.11063.643892-.042263.213802-.074582.427604-.111873.642649-.074583.427605-.151651.853966-.234934 1.280327-.165324.848993-.338106 1.6955-.520832 2.540764-.045992.210073-.093227.421389-.141706.631462-2.651394-2.576812-6.161726-3.980199-10.035024-3.980199-3.514061 0-7.126321 1.162238-10.742311 3.455638-2.400301 1.523961-5.051695 4.223834-7.782644 7.618563-2.529577-3.509088-6.069741-5.83978-10.115821-6.477457-.771925-.120574-1.552551-.182726-2.33442-.183969-9.24694 0-14.816981 8.021307-16.917711 15.239613-1.042906 2.437592-6.052339 13.536654-13.586375 21.069448-11.47073 11.433439-14.369488 23.219899-8.773344 35.836708l-.007458-.006216zm97.255082-25.37035-.037291.11063c-.026104.070853-.052208.141706-.080798.211316-.044749.105658-.091984.20883-.141706.312002-.120574.246121-.257308.484784-.407715.713502-.207587.309516-.435063.605358-.682427.883798-.057179.064638-.111873.128033-.176511.191428-.087012.095714-.18024.188941-.272224.282169-1.674369 1.659452-4.225077 3.11256-7.108919 4.44758-.326919.147921-.657566.295843-.993185.443764l-.333134.147921c-.222503.0982-.443763.196399-.677454.292113-.227476.096957-.456194.192671-.684913.287141l-.693613.287142c-1.622161.667509-3.2841 1.3027-4.906261 1.931676l-.69237.268496-.686156.268496c-.454951.177754-.904929.355508-1.348693.533262l-.660052.266009-.647621.26601-.31946.133005c-.211316.089498-.420146.176511-.62649.266009-4.770769 2.046036-8.201547 4.12812-7.480586 6.712391.019888.073339.042263.142949.067124.210073.064637.191427.152893.37291.26228.541963.064638.101929.13922.197643.222503.284655.84775.880069 2.390357.740849 4.335707.042263.157866-.057179.31946-.118088.482298-.182726.111873-.042263.222503-.087012.334377-.131762l.167809-.070853c.445007-.188941.916117-.399014 1.398415-.628975.120574-.055937.242392-.110631.364209-.175268 2.377927-1.162238 5.07407-2.729706 7.749082-4.155467.410202-.222504.821647-.435063 1.230605-.646379.668753-.346807 1.343721-.681183 2.024905-1.000643 2.533306-1.190828 4.913718-2.036092 6.829236-2.036092.897471 0 1.691771.183969 2.351823.606601l.11063.073339c.334376.236177.625246.525804.862666.858938.054694.078311.111873.159108.160352.242392.052207.085769.101929.174025.149164.263523.94595 1.794943.154136 3.655767-1.697986 5.4793-1.778784 1.750193-4.54578 3.466825-7.691903 5.056667-.232447.118089-.467381.236177-.703558.350536-9.361298 4.596745-21.616383 8.058598-21.790408 8.102104-3.266697.846507-7.938024 1.959024-13.201035 2.790615l-.779383.120574-.12679.018645c-1.193314.178998-2.390357.336863-3.589886.473597l-.11063.011187c-2.181527.248607-4.41899.428847-6.660183.504673h-.033562c-.805487.029832-1.609731.043506-2.415218.043506h-.927304c-1.228119-.017403-2.454995-.072096-3.679384-.166567-.02859 0-.058423 0-.088256-.006215-.437548-.033562-.87634-.074582-1.312645-.123061-.750794-.080797-1.500344-.18024-2.247408-.297085-.29087-.048478-.601629-.099443-.901201-.15165-.136733-.024861-.272224-.049722-.407715-.077069l-.032319-.006215c-.431333-.08204-.860181-.172782-1.287785-.270981-.247364-.055937-.495971-.111874-.740849-.177754l-.146678-.038535c-.121817-.029832-.241149-.062151-.36048-.09447l-.065881-.017403-.384098-.11063c-.13922-.039777-.277197-.080797-.416417-.121817l-.049721-.014917-.361723-.11063c-.136734-.042263-.272225-.087012-.407716-.130519-.111873-.037291-.222503-.075825-.334376-.111873l-.244878-.085769c-.236177-.082041-.469868-.169053-.703558-.258552l-.221261-.085769-.182726-.073339c-.351779-.141706-.702315-.289627-1.049122-.445007l-.231204-.11063-.038534-.017402c-.082041-.038534-.162838-.077069-.244878-.111874-.160352-.077068-.31946-.156622-.477326-.237419l-.047235-.023618-.228719-.120574c-.406472-.211316-.805487-.437549-1.1958-.678698l-.213802-.130518c-.11063-.067124-.211316-.135491-.316974-.203858l-.27844-.185212c-.100685-.067124-.201371-.135491-.299571-.206344l-.178997-.12679c-.188942-.135491-.374154-.273468-.55688-.416417-.096957-.074582-.19267-.15165-.288384-.222503-.212559-.170296-.420146-.345564-.625247-.525804l-.008701-.007458c-.200129-.172782-.395285-.351779-.58547-.534505l-.009944-.012431c-.099443-.09447-.1964-.188941-.293356-.287141-.095714-.0982-.192671-.195156-.285899-.293356-.09447-.099443-.188941-.200129-.280925-.303301-.089499-.096956-.176511-.195156-.263524-.294599l-.029833-.033562c-.448736-.520832-.868881-1.066524-1.257952-1.634591l-.154136-.227476c-.101929-.150407-.202615-.302058-.302057-.453708l-.293357-.451222c-.144192-.220017-.284655-.44252-.421389-.666267-.0982-.159108-.195156-.318217-.29087-.478568-.080797-.136734-.161595-.272225-.238663-.406473-.043506-.073339-.084526-.147921-.125546-.222503-.041021-.077068-.089499-.155379-.133005-.233691l-.06961-.12306c-.023618-.04102-.031076-.053451-.043506-.080797-.084527-.147922-.166567-.298329-.246121-.451222-.036048-.065881-.072096-.133005-.11063-.198886l-.111874-.213802-.11063-.212559-.213802-.431333c-.034805-.070853-.068367-.141706-.101929-.212559-.073339-.152894-.142949-.303301-.212559-.453708-.027347-.060909-.055936-.121818-.080797-.182726-.095714-.207587-.186455-.41766-.272225-.630219-.058422-.140463-.111873-.279683-.169053-.418903-.160351-.410202-.310758-.824133-.448735-1.243035-.041021-.124304-.082041-.247364-.118089-.371668-.089498-.282169-.170296-.566824-.242392-.853965-.088255-.334377-.166566-.672482-.232447-1.011831-.042263-.200129-.079554-.4015-.11063-.604115-.033562-.200129-.062152-.400257-.08577-.599143-.050964-.396528-.087012-.7943-.108144-1.193314 0-.065881-.006215-.133005-.007458-.198886-.006215-.131761-.009944-.263523-.011187-.395285-.06961-5.310247 2.619075-10.417879 8.365627-16.159459 10.235153-10.226451 16.19675-25.196325 16.19675-25.196325 0 0 .160352-.627733.494728-1.530177.111873-.299571.228719-.5979.351779-.892499.140463-.333133.29087-.662538.452465-.985727l.047235-.094471c.207587-.412687.432577-.814188.677454-1.205744.055937-.090741.110631-.181483.175268-.270981.181484-.270982.374154-.533263.576769-.788085.156622-.195156.323189-.384098.498457-.563095.594171-.611573 1.271625-1.111273 2.038578-1.378526l.096957-.031076c.064637-.021131.128032-.04102.193913-.059666.077068-.019888.154137-.038534.231205-.054693l.034805-.006215c.162837-.032319.325675-.054694.490999-.065881h.014916c.085769 0 .171539-.008701.259794-.008701.220018.001243.438792.018645.656323.052207.922332.145435 1.801158.694857 2.556924 1.542607l.101929.119331c.246121.288384.469867.596657.668753.919846.149164.239906.289627.492242.422632.757009.05345.111873.104415.213802.155379.323189.024861.055937.049721.11063.073339.16781.049721.11063.095714.222503.141706.339348.259794.666267.461166 1.353666.602872 2.054738.150407.757008.23742 1.525204.262281 2.297129.008701.339349.008701.682426 0 1.030476-.006216.131762-.012431.264767-.022375.397772-.101929 1.477969-.423875 2.93232-.955894 4.315818-.053451.136734-.111873.275954-.166567.415174-.267252.63892-.578011 1.257952-.928547 1.854609-.200129.340591-.416417.678697-.647622 1.014316l-.141706.201372c-.548178.76571-1.159752 1.484184-1.828505 2.147965-.658808.660052-1.364852 1.270382-2.111917 1.828505-.74955.553151-1.451865 1.16721-2.100729 1.83472-1.868282 1.96151-2.303345 3.690572-1.883199 5.001974.049722.147921.108144.293356.175268.433819.15538.304544.356751.584227.5979.827862l.065881.065881c.068367.065881.140463.129275.213802.190184l.074582.060909c.181484.13922.372911.263523.57304.371667.057179.031076.11063.062152.176511.091985.27471.136734.561852.246121.857694.329404l.08204.021132.11063.029833.096957.023618.103172.022374.103172.021132.0982.016159c.073339.013674.147921.024861.22126.034805l.072096.009945.128033.013673.079554.007458.131762.009944h.075825l.136734.006216h.431333l.123061-.006216.141706-.008701.172782-.016159.161594-.019889c.036048 0 .073339-.009944.11063-.016159.56931-.083284 1.123704-.243635 1.648265-.477326.111873-.047235.222503-.099443.324432-.154136.218774-.109387.431334-.232448.635191-.367939.284655-.186455.553151-.396528.805487-.625246l.175268-.166567c.027347-.027347.055937-.053451.08204-.082041.171539-.171538.333134-.353022.483541-.543206.26601-.335619.502186-.692371.707287-1.067767 2.43262-4.42272 4.982086-8.780802 7.64591-13.064301l.365453-.58547.369181-.586712c.185213-.295843.370425-.589199.555637-.878826l.187698-.292114.374154-.582983c.502186-.776897 1.005616-1.545093 1.512774-2.305831l.379126-.566824c.760737-1.12619 1.520232-2.222547 2.271025-3.265454l.375397-.514616c.816674-1.128676 1.668153-2.231249 2.551951-3.307717l.351779-.420146c.05718-.070853.11063-.13922.174025-.207587l.344321-.399014c.05718-.065881.111873-.130519.171539-.193914l.333133-.376639.16781-.181484c.161595-.175268.325675-.348049.492242-.519588.111873-.11063.215045-.222504.323189-.325676.630219-.645135 1.325076-1.223146 2.074626-1.72409l.172782-.11063.175268-.111873c.111873-.06961.224989-.136734.340592-.200129 2.938535-1.66691 5.372398-1.78997 6.772056-.390313.848993.848993 1.317617 2.254866 1.292757 4.210161 0 .087012 0 .172782-.007459.26228v.096957c0 .088256-.007458.178997-.013673.269739 0 .11063-.013673.222503-.024861.333133-.011187.111873-.016159.1964-.027346.2946 0 .028589-.006216.057179-.009945.085769-.008701.087012-.019888.175268-.031076.26228 0 .027347 0 .053451-.011187.080798-.01243.118088-.029833.236176-.050964.353022-.013674.108144-.031076.216288-.052208.324432-.008701.062152-.021131.12306-.031076.185212-.032319.176511-.074582.351779-.125546.523318-.095714.320703-.212559.635191-.350536.940978-.059666.133005-.123061.266009-.187699.396528-.134247.269739-.285898.545693-.452464.831591-.083284.140463-.169053.285898-.261038.431333l-.13922.22126c-.141706.222504-.289627.447493-.443763.674968-.154137.227476-.31946.459923-.497214.694857-.229962.313245-.472354.632705-.728419.955894l-.193914.244878c-.548178.682427-1.11003 1.353666-1.684312 2.013717l-.456194.51586-.232448.261037c-.316974.354266-.635191.706045-.955894 1.055337l-.246121.26601c-.162838.176511-.333134.355508-.495971.533262-.166567.18024-.33562.359237-.504673.538234l-.51213.539478-.518346.54072c-.172782.18024-.346807.362966-.522075.543206l-1.055337 1.087656c-5.040508 5.169784-10.351998 10.322165-12.149427 13.536655-.119331.210073-.227475.425118-.325675.645135-.254822.584227-.361723 1.083927-.289627 1.487913.023618.133005.070853.261038.13922.37664.101929.175268.224989.336863.366695.481055.065881.064637.134248.125546.20883.18024.369182.263523.816674.399014 1.270382.385341h.141706l.145435-.009945.146679-.017402.120574-.017403c.01616-.001243.032319-.004972.048478-.008701l.110631-.021131.029832-.007459.121818-.026103.174025-.04475.155379-.045992c.101929-.031076.203858-.065881.308273-.104415.224989-.079554.445007-.171539.660052-.274711.054693-.026103.11063-.050964.16408-.079554l.165324-.08204c.216288-.109387.431333-.227476.647621-.355508.172782-.101929.344321-.206344.51586-.316974l.166567-.110631c.054693-.034805.11063-.070853.165324-.111873l.165323-.11063.087013-.060909.238662-.166566c.222504-.154137.430091-.312002.641407-.472354l.018645-.013673.333134-.258551c.456194-.360481.890013-.723447 1.281569-1.065282l.261037-.229961.024861-.022375.135491-.120574c.320703-.287141.606601-.555637.845264-.77814l.096957-.094471.234933-.222503.140463-.136734.048479-.049722.013673-.013673c.119332-.119331.119332-.119331.238663-.239906l.009944-.009944.04475-.039777c.013673-.014917.032318-.029833.05345-.048479l.017403-.016159.047235-.042263.252336-.222504.141706-.128032c.06961-.059666.145435-.128033.222503-.201372l.170296-.149164c.029833-.024861.059666-.053451.090742-.080798l.177754-.155379.26228-.228718.137977-.120575c.540721-.47111 1.199529-1.039177 1.954052-1.679341l.309516-.261037.51213-.428847.522075-.437549c.683669-.566824 1.419546-1.169696 2.197686-1.796186l.510888-.410201c.435062-.345564.882555-.699829 1.33502-1.055337.181483-.142949.366695-.285898.555636-.427604.463653-.357994.929791-.714746 1.397172-1.066525 1.066524-.805486 2.166611-1.612216 3.279127-2.399058l.478569-.33189c.333133-.231205.666267-.461166 1.000643-.686156l.302058-.2051c.5979-.402744 1.200772-.796786 1.808616-1.182127l.302058-.190184.299571-.186456c.299572-.185212.599143-.369181.894986-.546935l.297085-.176511.595414-.346807c.195157-.113116.38907-.223746.582984-.333134l.116845-.06588.462409-.252337c.191427-.104415.384098-.2051.574282-.3033l.285898-.146678.275954-.140463c.631462-.316974 1.274111-.610331 1.927948-.878826.089499-.037291.177754-.073339.26601-.111873.175268-.07334.349292-.140463.522074-.200129.172782-.058423.343078-.119332.510888-.178997.152893-.050965.300814-.0982.445007-.142949l.048478-.014917c.077068-.023617.154136-.045992.231204-.065881l.022375-.006215c.156623-.044749.313245-.085769.47111-.12306h.012431c.232447-.055937.45868-.103172.67994-.140463.075825-.012431.150407-.024861.222503-.034805.215046-.032319.431334-.054694.647622-.06961.136734-.009944.274711-.013674.411445-.013674h.104414c.13922 0 .273468.008702.406473.022375.060909 0 .121817.011187.181483.019889h.024861c.059666.006215.120574.016159.178997.028589.058423.012431.118088.021132.175268.034805h.019889c.057179.012431.11063.02859.170295.04475.47484.128032.911145.369181 1.272868.702315l.032319.032319.063395.062151.062152.065881c.498457.524561.911145 1.124947 1.221904 1.778784l.048478.11063c.105658.248607.188941.505915.247364.769439.161595.734634.118088 1.500343-.12679 2.211359-.105658.309516-.234933.610331-.387827.898715l-.101928.183969c-.387827.650108-.845264 1.255466-1.366096 1.804887l-.111873.118089c-.244878.259794-.499701.51213-.761981.754522-.083283.078311-.169053.156623-.256065.234934l-.131762.119331c-.273468.242392-.553151.478569-.836563.709773-.049721.039778-.100686.079555-.149164.121818-.197643.159108-.4015.320703-.612816.482298-.728419.556879-1.470511 1.093871-2.226277 1.612216-.445006.304544-.904929.611574-1.379769.923576-.885041.580497-1.776297 1.148564-2.676255 1.705444-.259794.160352-.520832.323189-.786841.484784-2.445051 1.504072-5.156111 3.11256-8.047411 4.861511l-.748307.454951c-.81916.4997-1.592328.977025-2.319504 1.430733l-.366695.231205-.693614.445007c-.274711.174024-.541963.345563-.801758.514616-.196399.125547-.387827.24985-.575525.372911l-.370424.243635c-.180241.118088-.359238.236176-.538235.356751l-.174025.11063c-.183969.12306-.362966.243635-.536991.362966l-.284655.193914-.334377.232447-.308272.215045c-.48727.341835-.968325.691128-1.44565 1.046636l-.166567.12679c-.187698.141706-.369182.283412-.54445.421389l-.228718.182726c-.385341.309516-.734634.606601-1.050365.890013l-.154136.141706c-.088256.080798-.175268.161595-.257309.241149-.058422.054694-.111873.11063-.170295.165324l-.080798.079554c-.177754.177754-.350536.36048-.518345.548179l-.082041.09447c-.182726.211316-.341834.413931-.482297.611574l-.062152.089498c-.161595.236177-.304544.486027-.426361.745821l-.042263.090742-.026104.063395-.021132.054693-.02859.075825c-.008701.026104-.026103.072096-.036048.111874-.050964.147921-.088255.300814-.113116.456194l-.01243.083283-.009944.075825-.006216.073339v.390313c0 .032319 0 .065881.007459.099443.001243.019889.003729.039777.006215.059666 0 .032319.008701.064638.01243.0982l.023618.136733v.006216c.008701.043506.017402.087012.02859.130518.011187.043507.022374.091985.036048.137977.039777.140463.088255.279683.144192.415174 0 .009944.008701.021132.01243.031076.014916.033562.02859.068367.044749.101929.060909.141706.129276.279683.203858.415174l.078311.140463.082041.141706.085769.141706c.014916.023617.031076.044749.049721.06588l.02859.029833.029833.027347.033562.026104c.022375.016159.045992.029833.070853.043506.024861.011187.052208.023618.079554.033562.029833.009944.059666.018646.089499.026104.717231.161594 2.191471-.432576 4.149252-1.466782l.351779-.186455.595414-.324432.292113-.161595c.206344-.111873.418903-.236177.633948-.359237l.394042-.222503c2.589243-1.4904 5.683157-3.405917 8.880244-5.275442.298329-.175268.599143-.349293.899958-.523318l.604115-.385341c.302058-.174025.602872-.345564.90493-.514617 1.285298-.730904 2.587999-1.433219 3.904373-2.105701l.590442-.299572c.392799-.193913.781869-.382855 1.165967-.566824.744579-.353022 1.496615-.687399 2.256109-1.004373l.416417-.169052.050965-.019889c2.205144-.873854 4.205188-1.414574 5.82362-1.414574.350536-.002486.699829.026104 1.045393.085769h.009944c.111873.019889.212559.042264.314488.068367h.018645c.149165.036048.295843.082041.437549.13922.113116.04102.222503.089499.328161.146678.463652.234934.860181.581741 1.156023 1.009345.024861.036048.048478.073339.070853.111873.109387.166567.203858.341835.280926.525804.045992.105658.088256.215045.128033.333134.039777.119331.074582.23369.11063.356751.263523.94222.23742 1.939135-.074582 2.866439v-.003729z" fill="#ff9d00"/><path d="M220.830393 113.727785v-.609087c0-52.0210272-42.163757-94.1972148-94.197215-94.1972148-52.0210269 0-94.2096448 42.1761876-94.2096448 94.1972148l-.0026784.203858c0 .13549 0 .269738 0 .405229.0074019.202615.0095151.40523.0076505.607844l.0074582.447493.0024861.161595.0062152.22126c.0024861.119331.0062152.23742.0062152.356751l.0124303.483541.0198886.568067.0062152.186455.0248607.587956v.027347l.034805.687398v.017403c.0124303.234933.0248607.469867.0397771.703558.0124303.217531.0261037.433819.0410202.650107l.0037291.038534c.0109387.185213.023369.371668.037291.55688l.0037291.048478c.0124304.178998.0261038.359238.0410202.536992l.0024861.034805.0248607.310759c.0744578.896228.1614702 1.792456.2610374 2.686199l.0062152.055936.0745821.656323.0857694.691128c.0575525.459923.1189585.918603.1839692 1.377283.0387827.277197.0790571.55315.1205745.829104l.0062151.033562c.0928548.624004.1930434 1.248008.3008146 1.869525.3091428 1.803645.6722335 3.598587 1.0888989 5.3811l.0062152.02859.0397771.16781c.0372911.159108.0745821.318217.1143592.478568l.068367-.083283c2.7346776-3.269183 6.657697-5.071584 11.0468546-5.071584 3.5177899 0 7.1275644 1.162238 10.7435541 3.455638 2.3990581 1.523961 5.0516954 4.223834 7.7814009 7.618563 2.5258477-3.509088 6.0660123-5.839779 10.1158213-6.476214.7731679-.121817 1.5537941-.183969 2.3344202-.185212 9.2444535 0 14.8169807 8.02255 16.9177104 15.239613 1.0379345 2.438835 6.0473663 13.536654 13.5988063 21.057018 11.479431 11.469486 14.357057 23.306912 8.671414 35.973441h.018646c.387827.042263.776897.082041 1.16721.118089.232447.022374.464895.044749.697342.064637l.082041.007459c.170296.016159.341835.031075.513373.043506l.472354.038534c.449979.034805.9012.065881 1.354908.095714l.357994.021131.284656.01616.177754.009944.554393.029833.151651.006215.584226.024861.647622.02486.522074.014917.087013.003729c.109387.003729.22126.008701.33189.008701l.118089.002486c.73339.017403 1.465538.026104 2.198929.026104h.77814l.55688-.006215c.136734-.007458.272225-.007458.408959-.007458h.216288l.187698-.003729c.073339-.002487.147921-.004973.22126-.004973h.222504l.436305-.01243.656323-.022375.723446-.031075c.207587-.008702.413931-.018646.621518-.029833l.222503-.012431.329405-.018645.195156-.011188.145435-.008701.66751-.044749c.222504-.013673.445007-.031076.66751-.048478l.604115-.047236.426361-.036048.466139-.042263c.478568-.044749.955894-.091985 1.430733-.141706.303301-.033562.604115-.067124.906173-.103172l.530776-.063395c-5.592416-12.616808-2.697387-24.400783 8.736052-35.824277 7.53528-7.529065 12.542226-18.633099 13.586376-21.069448 2.104459-7.21582 7.667042-15.239613 16.91771-15.239613.781869.001243 1.562496.062152 2.334421.185212 4.046079.636434 7.587487 2.968369 10.117064 6.476214 2.730948-3.394729 5.382343-6.094602 7.781401-7.618563 3.615989-2.2934 7.22825-3.455638 10.742311-3.455638 3.873298 0 7.384872 1.40463 10.036267 3.980199.145435-.648865.285898-1.297729.420146-1.949079.08204-.406473.162837-.814189.242392-1.223147.096956-.502186.188941-1.006859.273467-1.511531.022375-.136734.045993-.273468.072096-.411445.04102-.215045.077069-.427604.11063-.643892l.013674-.08204.088255-.563095.087013-.570554.001243-.006215c.034805-.238663.070853-.478568.103172-.718474.026104-.181483.050964-.362967.074582-.545693l.014916-.104415.077069-.594171.063394-.505915c.038534-.333133.075825-.666267.111874-1.000643.016159-.133005.029832-.267253.043506-.401501l.01243-.108144c.023618-.222503.044749-.443763.064638-.666267l.049721-.517102c.103172-1.146079.186456-2.292157.251093-3.440722v-.007458l.033562-.609088.006216-.136733.02486-.578012c.009945-.217531.018646-.437548.026104-.660052v-.016159l.006215-.160352c.006215-.136734.011188-.273467.011188-.408958l.002486-.055937c.004972-.126789.009944-.258551.009944-.38907l.003729-.111873c.003729-.130519.007458-.259794.007458-.390313l.002486-.11063c.003729-.166567.007458-.331891.007458-.498457l.008702-.61406zm-117.553848 94.110202c7.459455-10.941196 6.931165-19.155174-3.3052309-29.385354-10.2363956-10.230181-16.1967499-25.196326-16.1967499-25.196326 0 0-2.2237901-8.691302-7.2953741-7.892031-5.071584.798029-8.7919886 13.785262 1.8260188 21.728257 10.6180075 7.949211-2.1119169 13.337769-6.199017 5.879557-4.0883431-7.460698-15.2396127-26.638246-21.0321572-30.3052-5.7850862-3.668197-9.8535407-1.612217-8.489931 5.947924.6774542 3.752723 6.9771571 10.156841 12.8654153 16.134598 5.9715415 6.072227 11.516722 11.709392 10.3321093 13.698249-2.3530658 3.962796-10.6403821-4.655167-10.6403821-4.655167 0 0-25.9545769-23.617671-31.5979571-17.464646-5.2070749 5.67197 2.8229331 10.493704 15.2023216 17.924569 1.0528509.632705 2.1367777 1.284055 3.2468082 1.955294 14.158172 8.571972 15.2644734 10.833053 13.2507562 14.07116-.742092 1.198286-5.4817856-1.647022-11.3116212-5.147409-9.9380671-5.96657-23.0458743-13.834983-24.8979969-6.791945-1.6022725 6.094602 8.0387093 9.82868 16.7809765 13.213465 7.2841868 2.82169 13.946856 5.402231 12.9648581 8.905105-1.0155598 3.630906-6.5209632.602872-12.5422261-2.708574-6.7558968-3.717919-14.158172-7.791345-16.5820908-3.194601-4.5793421 8.688817 31.5855268 18.918997 31.8838552 18.993579 11.6845318 3.03052 41.3557843 9.452041 51.7351291-5.746552l.002486.036048zm48.055744 0c-7.460697-10.941196-6.931164-19.155174 3.305231-29.385354 10.236396-10.230181 16.19675-25.196326 16.19675-25.196326 0 0 2.222547-8.691302 7.294131-7.892031 5.071584.798029 8.793232 13.785262-1.826019 21.728257-10.61925 7.942996 2.111917 13.337769 6.20026 5.879557 4.087101-7.460698 15.239613-26.638246 21.019727-30.3052 5.780114-3.666954 9.854784-1.612217 8.491174 5.947924-.677454 3.752723-6.977157 10.158084-12.865415 16.147028-5.970298 6.070985-11.515479 11.70815-10.330866 13.698249 2.351823 3.962797 10.646597-4.660139 10.646597-4.660139 0 0 25.954577-23.617671 31.597957-17.464646 5.207075 5.67197-2.824176 10.494947-15.202321 17.924569-1.052851.631462-2.135535 1.281569-3.245566 1.954051-14.158172 8.570729-15.264473 10.833053-13.250756 14.07116.742092 1.198286 5.481786-1.647022 11.310378-5.146166 9.939311-5.96657 23.045875-13.834983 24.897997-6.793188 1.602273 6.094602-8.038709 9.829923-16.780976 13.213465-7.284187 2.82169-13.946856 5.400988-12.964858 8.905105 1.01556 3.630906 6.518477.601629 12.529795-2.709817 6.755897-3.717919 14.158172-7.792588 16.582091-3.194601 4.579342 8.695032-31.585527 18.918997-31.883855 18.99358-11.684532 3.039221-41.355784 9.460741-51.722699-5.737851l.001243.022374z" fill="#ffd21e"/><path d="M157.311289 87.4748797c1.468025.5195888 2.560653 2.1019727 3.59983 3.6060454 1.40463 2.0348488 2.712303 3.9267485 4.718562 2.8602242 2.367983-1.2579517 4.308361-3.1896285 5.5775-5.5513956 1.269139-2.3617671 1.808616-5.0454803 1.551308-7.714277-.191428-1.9950717-.82289-3.9230194-1.849637-5.6446233-1.026747-1.7216039-2.422676-3.1946007-4.085857-4.3120894-1.664424-1.1172402-3.556324-1.8508796-5.537722-2.1492081-1.982641-.2982041-4.006303-.1528933-5.925549.4252424-2.566868.7730437-4.846595 2.289671-6.552039 4.3580818-1.704202 2.0684107-2.758296 4.5955014-3.028034 7.2618121-.268496 2.6675538.259794 5.3549961 1.517746 7.7217353.92979 1.7489506 2.993229.9248182 5.171027.0534505 1.70793-.6824264 3.485471-1.3934426 4.842865-.914874v-1.243e-4zm-63.8671532.0012431c-1.4680247.5195887-2.5618958 2.1019726-3.6010733 3.6060453-1.4046298 2.0336058-2.712303 3.9267485-4.7185619 2.8602243-1.7688393-.9409778-3.3064739-2.2635673-4.5035169-3.8708119-1.197043-1.6072447-2.0224184-3.4593673-2.4177037-5.4246061-.3952852-1.9639957-.3505359-3.9926293.1317618-5.9367365.4835407-1.9453503 1.3909565-3.7589388 2.6576094-5.3114898 1.2691391-1.5513081 2.8651964-2.8018016 4.6750558-3.6632251 1.8098594-.8614234 3.7887716-1.3089161 5.7925445-1.3139202 2.0037729-.0043187 3.9839281.4355915 5.7975166 1.2878165 1.8135885.8525979 3.4158609 2.0970005 4.6912149 3.6420934 1.705445 2.0684107 2.759539 4.5955015 3.029277 7.2630552.268496 2.6675538-.259794 5.3549961-1.518989 7.7217353-.932276 1.7489506-2.995715.9235752-5.1735127.0522075-1.7066875-.6824264-3.484228-1.3934426-4.8416225-.913631v.0012431zm53.9850232 58.1119002c10.122036-7.975315 13.834982-20.994866 13.834982-29.012444 0-6.33948-4.266097-4.344408-11.09409-.964595l-.384097.191427c-6.268627 3.103859-14.618096 7.235708-23.766835 7.235708-9.159927 0-17.501937-4.133092-23.766835-7.236951-7.0492533-3.491686-11.4707298-5.681914-11.4707298.775654 0 8.2724 3.9553383 21.852561 14.8169808 29.745835 1.431977-2.908703 3.44818-5.490487 5.924306-7.583759 2.474883-2.093271 5.356239-3.652037 8.462584-4.580585 1.083927-.323189 2.200173 1.542607 3.343765 3.451909 1.102573 1.843422 2.228763 3.727863 3.376084 3.727863 1.220661 0 2.421433-1.857095 3.593615-3.670683 1.22439-1.894386 2.417704-3.741536 3.572484-3.372355 5.812433 1.865796 10.673944 5.911876 13.561515 11.289247l-.003729.003729z" fill="#32343d"/><path d="M147.367007 145.624071c-5.271713 4.154224-12.278703 6.939866-21.405068 6.939866-8.573214 0-15.276904-2.458724-20.42307-6.201503 1.43322-2.90746 3.450666-5.489244 5.925549-7.581273 2.474884-2.093271 5.35624-3.65328 8.461342-4.583071 2.129319-.635191 4.384185 7.179772 6.718605 7.179772 2.499744 0 4.907504-7.765241 7.167342-7.043038 5.809947 1.867039 10.670215 5.913119 13.561515 11.289247h-.006215z" fill="#ff323d"/><path d="M69.2173779 98.7616402c-.9618607.6476214-2.042307 1.0988432-3.1784412 1.3275618-1.1366315.228718-2.3070736.231204-3.4444508.007458-1.1375016-.2249893-2.2200611-.671239-3.1846565-1.3138882-.9645954-.6438923-1.7924569-1.4705108-2.4363491-2.4351061-.6442652-.9633524-1.0918822-2.0460361-1.3176175-3.1821704-.2253623-1.1373773-.2241192-2.3083165.0037291-3.4456938.2278484-1.1361343.6779515-2.216332 1.3238326-3.1796843.6463784-.9623579 1.476726-1.7874848 2.4425644-2.428891 1.9428642-1.2890276 4.3183046-1.7564089 6.6042465-1.2977288 2.2859419.45868 4.2984161 1.8048872 5.5936588 3.7427792 1.2952428 1.9391351 1.7700823 4.3120895 1.3188605 6.5992744-.4512218 2.288428-1.7912139 4.3046312-3.7253768 5.6060892h0zm126.0437791 0c-.96211.6476214-2.042307 1.0988432-3.178442 1.3275618-1.136134.228718-2.307073.231204-3.44445.007458-1.137378-.2249893-2.220061-.671239-3.184657-1.3138882-.964595-.6438923-1.792457-1.4705108-2.436349-2.4351061-.645135-.9633524-1.092628-2.0460361-1.317617-3.1821704-.22499-1.1373773-.223747-2.3083165.003729-3.4456938.227475-1.1361343.677454-2.216332 1.323832-3.1796843.646379-.9623579 1.476726-1.7874848 2.442565-2.428891 1.942864-1.2890276 4.318304-1.7564089 6.604246-1.2977288 2.285942.45868 4.297173 1.8048872 5.593659 3.7427792 1.295243 1.9391351 1.770082 4.3120895 1.318861 6.5992744-.451222 2.288428-1.791214 4.3046312-3.725377 5.6060892h0z" fill="#ffad03"/></svg>