<svg width="512px" height="72px" viewBox="0 0 512 72" xmlns="http://www.w3.org/2000/svg" preserveAspectRatio="xMidYMid"><title>Huggy</title><defs><linearGradient x1="-1.73686579e-06%" y1="-228.72613%" x2="100.215939%" y2="-228.72613%" id="a"><stop stop-color="#ff0069"/><stop stop-color="#4707ff" offset="1"/></linearGradient></defs><path d="M7.09827329 0H35.6127075c3.9421041 0 7.0981549 3.15101965 7.0981549 7.08969064 0 3.93875976-3.1560508 7.08977946-7.0981549 7.08977946H7.09827329C3.15608046 14.1794701 0 11.0284504 0 7.08969064 0 3.15101965 3.15608046 0 7.09827329 0zM135.098155 42.6709087c3.919316 0 7.092532-3.1744 7.092532-7.0898682 0-3.9154682-3.173216-7.0897203-7.092532-7.0897203-3.91902 0-7.098155 3.1742521-7.098155 7.0897203 0 3.9154682 3.179135 7.0898682 7.098155 7.0898682zm-113.8033647 0c3.9190788 0 7.0925022-3.1741041 7.0925022-7.0898682 0-3.9154682-3.1734234-7.0896315-7.0925022-7.0896315-3.9190789 0-7.0982437 3.1741633-7.0982437 7.0896315 0 3.9157641 3.1791648 7.0898682 7.0982437 7.0898682zm28.514523 0h28.5142566c3.9424 0 7.0984509-3.1510197 7.0984509-7.0898682 0-3.9385526-3.1560509-7.0896315-7.0984509-7.0896315H49.8093133c-3.9424 0-7.0984509 3.1510789-7.0984509 7.0896315 0 3.9388485 3.1560509 7.0898682 7.0984509 7.0898682zm63.9940807-7.0898682c0 3.9157641-3.173216 7.0898682-7.092532 7.0898682-3.919019 0-7.0981545-3.1741041-7.0981545-7.0898682 0-3.9154682 3.1791355-7.0896315 7.0981545-7.0896315 3.919316 0 7.092532 3.1741633 7.092532 7.0896315zm-56.9015489 28.358289c0 3.9157641-3.1735122 7.0898682-7.0925318 7.0898682-3.9190197 0-7.0984509-3.1741041-7.0984509-7.0898682 0-3.9154682 3.1794312-7.0895723 7.0984509-7.0895723 3.9190196 0 7.0925318 3.1741041 7.0925318 7.0895723zm49.8090169-7.0895723H78.1966058c-3.9424 0-7.0984509 3.1510197-7.0984509 7.0895723 0 3.9388485 3.1560509 7.0898682 7.0984509 7.0898682h28.5142562c3.9424 0 7.098451-3.1510197 7.098451-7.0898682 0-3.9385526-3.156051-7.0895723-7.098451-7.0895723zM64 14.1796476h28.5145526c3.942104 0 7.0981549-3.1510196 7.0981549-7.08977939 0-3.93867098-3.1560509-7.089687574032-7.0981549-7.089687574032H64c-3.942104 0-7.0981549 3.151016594032-7.0981549 7.089687574032 0 3.93875979 3.1560509 7.08977939 7.0981549 7.08977939zM120.901845 0h28.514257c3.9424 0 7.098451 3.15101965 7.098451 7.08969064 0 3.93875976-3.156051 7.08977946-7.098451 7.08977946h-28.514257c-3.9424 0-7.098451-3.1510197-7.098451-7.08977946C113.803394 3.15101965 116.959445 0 120.901845 0z" fill="url(#a)"/><path d="M419.877882 6.04041606c6.307958 0 11.9589 1.44420415 16.82142 4.46390024 4.993923 2.8884199 8.41071 7.2210349 10.382058 12.7352453l-10.382058 3.67616c-3.416786-6.5645503-9.067727-9.9781401-16.952823-9.9781401-5.125209 0-9.330534 1.83808-12.878783 5.3829549-3.548249 3.67616-5.256672 8.1400601-5.256672 13.3916116 0 5.3831029 1.839856 9.8469734 5.388105 13.523015 3.679652 3.6763376 8.147814 5.3831029 13.404367 5.3831029 4.336906 0 8.016499-1.1817434 11.039075-3.5449341 3.022576-2.3631908 5.125327-5.5142104 6.045152-9.5841665h-19.975251V30.9857665h31.277133c.131403 1.9693651.262807 3.6761304.262807 4.8577849 0 8.5338266-2.759769 15.4922914-8.147903 21.1379052-5.387838 5.6456139-12.35311 8.4027191-20.76382 8.4027191-8.541965 0-15.638522-2.8885086-21.420837-8.5341225-5.782356-5.6453179-8.673533-12.7351861-8.673533-21.1379052 0-8.2712564 2.891177-15.3609767 8.673533-21.0065018 5.782315-5.77682197 12.878842-8.66523014 21.15803-8.66523014zM264.674375 7.3514912v31.3784972c0 4.7266775 1.182779 8.5341226 3.679682 11.4223353 2.496932 2.8885087 5.782344 4.332763 9.856266 4.332763 3.811086 0 6.965094-1.4442543 9.330653-4.332763 2.365558-2.8882127 3.548189-6.6956578 3.548189-11.4223353V7.3514912h11.564689v31.3784972h-.131403c0 8.0088047-2.234155 14.4422474-6.702169 19.3000324-4.46831 4.857785-10.382058 7.3520832-17.741362 7.3520832-7.490767 0-13.535948-2.4942982-18.135514-7.3520832-4.599601-4.857785-6.833682-11.2912277-6.833682-19.3000324V7.3514912h11.564651zm99.35141 2.23223134c4.993924 2.88839026 8.542113 6.95843516 10.644865 12.47264556l-10.250655 3.8074451c-3.548189-6.5645503-9.330534-9.7155404-17.215541-9.5842553-5.125268.1312851-9.330623 1.9693651-12.747439 5.6455251-3.416845 3.67616-5.125267 8.1400601-4.993864 13.5230742.131433 5.382807 1.971259 9.8466775 5.650941 13.3916116 3.679682 3.5449341 8.147814 5.2516994 13.536007 5.1202959 4.336611-.1311075 7.8848-1.3128508 10.907672-3.6760416 3.022576-2.3631907 4.993628-5.6456139 5.782049-9.7155699l-19.712385.5250219-.262837-10.503162 31.1457-.6564551c.262807 1.9693651.262807 3.5448454.394211 4.857785.131403 8.5339154-2.365263 15.6237836-7.753397 21.2691015-5.25673 5.6456139-12.090303 8.6652301-20.501013 8.7966335-8.542172.1311075-15.63867-2.4945942-21.683851-8.1402081-5.913748-5.6453179-8.936341-12.6037826-9.199174-20.8750982-.131417-8.2714636 2.628341-15.3611838 8.279261-21.2693087 5.650912-5.90809525 12.616006-8.79650152 21.026686-9.05908398 6.307899-.13129115 11.95884 1.18162068 16.952764 4.07004352zM196.206391 7.3514912v23.1072704h27.203181V7.3514912h11.564689v56.8491654h-11.564689V40.8306682h-27.203181v23.3699884h-11.564689V7.3514912h11.564689zm271.638019 0 15.507178 26.7834304 15.375774-26.7834304h13.27323l-22.866571 38.5997689v18.2493965h-11.564778V46.2137711L455.096955 7.3514912h12.747455z" fill="#050000"/></svg>