<svg width="512px" height="119px" viewBox="0 0 512 119" xmlns="http://www.w3.org/2000/svg" preserveAspectRatio="xMidYMid"><path d="M275.763167 42.6222997h5.805666L268.438844 80.083769c-1.432662 4.0894004-5.293347 6.8229862-9.626097 6.8229862h-5.575122v-4.4535126h5.190883c2.239563 0 4.241265-1.3978979 5.017061-3.4984043l.301902-.8233692h-1.890089L249.43549 42.6222997h6.008763l10.261006 31.2587546 10.057908-31.2587546zM318.091646 60.3101c0 10.802604-4.45717 18.5642311-13.704517 18.5642311-3.847878 0-7.020592-1.3484958-9.382746-4.0509765v12.0834006h-5.604398V42.6222997h4.726138l.472065 4.9274073c2.63478-3.6429514 6.347259-5.7361389 10.667201-5.7361389 9.450445 0 12.826257 7.3572613 12.826257 18.4965319zm-6.008763 0c0-9.3150503-2.565251-13.9734904-8.167819-13.9734904-3.983276 0-7.020592 2.9037488-8.910681 5.7379686v17.6878003c1.82239 2.7683503 4.792007 4.4553423 8.167819 4.4553423 5.941064 0 8.910681-4.387643 8.910681-13.9076208zm-80.401055-18.4965319c-4.184544 0-8.572185 1.957789-11.340534 5.6702693V32.0246231h-5.602568v46.106846h5.602568V52.2099767c1.82239-2.7683503 5.467169-5.9410663 9.585843-5.9410663 4.186373 0 6.144162 1.8900898 6.144162 6.1405046v25.7220541h5.602567V52.3435455c0-6.6143994-3.039146-10.5299774-9.992038-10.5299774zm201.438109 33.1470147-1.348496 3.9796178c-3.040975-.4007063-5.470828-1.8864303-6.480828-5.0591463-2.567081 3.3062848-6.548527 4.9932768-11.139266 4.9932768-7.15599 0-11.477762-4.3181141-11.477762-10.9343431 0-7.2913918 5.873365-11.4100675 16.675965-11.4100675h5.196372v-2.9696183c0-5.1305051-3.172715-7.0224245-8.438616-7.0224245-2.362154 0-5.600738.4738947-9.249177 1.7546912l-1.483894-4.1845452c4.319942-1.6192928 8.10195-2.2944556 11.543632-2.2944556 8.842982 0 13.300152 4.4553423 13.300152 11.4741074v17.1498658c0 2.8360495.945959 3.915578 2.901918 4.5230415zm-8.574015-14.5827836h-5.128673c-7.900682 0-10.73673 2.9037488-10.73673 7.4944896 0 4.4553422 2.228585 6.7497978 6.887023 6.7497978 3.511211 0 6.887023-1.8223905 8.97838-5.0609761v-9.1833113zm-67.56382-1.0795285c0 1.214927-.067699 2.2962853-.135398 3.0373175H332.94888c.270797 8.3032211 4.927405 11.8821326 10.396404 11.8821326 3.238584 0 6.413129-.8105612 9.518144-3.3099442l2.632951 3.8497085c-3.308113 2.5670822-7.763454 4.116846-12.151095 4.116846-10.396404 0-16.269769-7.4249606-16.269769-18.4965319 0-10.733075 6.074633-18.5642311 15.256111-18.5642311 9.183307 0 14.650476 6.6839283 14.650476 17.4847026zm-5.401299-1.2844559c-.135399-7.6262286-3.577081-11.5418067-9.181478-11.5418067-5.062804 0-8.97838 3.71431-9.450445 11.5418067h18.631923zM472.685555 60.3101c0 10.802604-4.45717 18.5642311-13.704517 18.5642311-3.847877 0-7.020592-1.3484958-9.382746-4.0509765v12.0834006h-5.604397V42.6222997h4.726137l.472065 4.9274073c2.63478-3.6429514 6.345429-5.7361389 10.665371-5.7361389 9.452275 0 12.828087 7.3572613 12.828087 18.4965319zm-6.008763 0c0-9.3150503-2.565251-13.9734904-8.167819-13.9734904-3.983276 0-7.020592 2.9037488-8.910681 5.7379686v17.6878003c1.82239 2.7683503 4.792007 4.4553423 8.167819 4.4553423 5.941064 0 8.910681-4.387643 8.910681-13.9076208zm45.168187 0c0 10.802604-4.455341 18.5642311-13.704518 18.5642311-3.846047 0-7.020592-1.3484958-9.382745-4.0509765v12.0834006h-5.602568V42.6222997h4.726137l.470235 4.9274073c2.634781-3.6429514 6.34543-5.7361389 10.667201-5.7361389 9.452275 0 12.826258 7.3572613 12.826258 18.4965319zm-6.008763 0c0-9.3150503-2.563422-13.9734904-8.167819-13.9734904-3.983276 0-7.020592 2.9037488-8.910681 5.7379686v17.6878003c1.822389 2.7683503 4.792006 4.4553423 8.167819 4.4553423 5.941064 0 8.910681-4.387643 8.910681-13.9076208zM380.391394 49.4416264l-.676992-6.8193267h-13.164753v4.3894727h8.305047v26.6661841h-8.305047v4.4535126h23.899653v-4.4535126h-9.992038V56.8684167c1.214926-4.9274073 4.927405-9.5858473 9.721241-9.5858473 1.485724 0 2.567082.201268 4.118674.6074635l1.011829-5.5367005c-1.686991-.4061955-2.901918-.5397643-4.658438-.5397643-4.252243 0-8.167819 2.5634228-10.259176 7.6280583z"/><path d="M69.3175129 49.6122454h40.0143451l9.610747 19.7054458H69.3175129v49.6136868H49.6154815V69.3176912H0V49.6122454h49.6154815V0h19.7020314v49.6122454zM192.738726 118.931378h-23.214759L111.518303 0h23.214759l58.005664 118.931378z" fill="#0080ff"/></svg>