<svg width="256px" height="224px" viewBox="0 0 256 224" xmlns="http://www.w3.org/2000/svg" preserveAspectRatio="xMidYMid"><defs><linearGradient x1="47.9522705%" y1="97.5947367%" x2="47.9522705%" y2="0%" id="a"><stop stop-color="#ffb300"/><stop stop-color="#dc3939" offset=".613719707"/><stop stop-color="#ff1bb4" offset="1"/></linearGradient></defs><path d="M13.1805225 4.5H242.819478C247.337456 4.5 251 8.15491795 251 12.6634877V210.336512c0 4.50857-3.662544 8.163488-8.180522 8.163488H13.1805225C8.6625447 218.5 5 214.845082 5 210.336512V12.6634877C5 8.15491795 8.6625447 4.5 13.1805225 4.5z"/><path d="M7.1748879 14.3496957V208.932816c0 3.960989 3.2141377 7.174807 7.1776991 7.174807h227.294826c3.965515 0 7.177699-3.21182 7.177699-7.174807V14.3496957c0-3.9609897-3.214138-7.1748078-7.177699-7.1748078H14.352587c-3.9655147 0-7.1776991 3.2118204-7.1776991 7.1748078zm-7.1748879 0C0 6.4245776 6.4240406 0 14.352587 0h227.294826C249.574128 0 256 6.42669715 256 14.3496957V208.932816c0 7.925118-6.42404 14.349695-14.352587 14.349695H14.352587C6.42587205 223.282511 0 216.855814 0 208.932816V14.3496957z" fill="url(#a)"/><path d="M76.149126 83.3100265h38.486564v7.472727H76.149126v-7.472727zM64.4066385 63.947094 30.521476 94.3930405l10.5462442-26.645114L26.1813095 57.707641 60.066472 27.264574 48.5959027 55.6102185l15.8107358 8.3368755z" fill="#fff"/></svg>