<svg width="512px" height="205px" viewBox="0 0 512 205" xmlns="http://www.w3.org/2000/svg" preserveAspectRatio="xMidYMid"><path d="M99.55552 190.060579v14.22224H0v-14.22224h99.55552zm155.58288-6.4e-4c-9.986729 9.181129-23.067804 14.259551-36.63344 14.22208h0l-104.72704-.14064v-14.08144zm148.028-1.6e-4-4.9664 14.2224-4.9216-14.2224h9.888zm-47.61056 8e-4v14.22224h-71.1112v-14.22224h71.1112zm156.44416 0v14.22224h-71.1112v-14.22224H512zm-240.75328-27.15168c-1.220358 4.988971-3.147012 9.778074-5.7216 14.22224h0-151.7472v-14.22224zm141.45088 4.8e-4-4.992 14.2224h-18.9664l-4.992-14.2224h28.9504zm-57.14176-4.8e-4v14.22224h-71.1112v-14.22224h71.1112zm156.44416 0v14.22224h-71.1112v-14.22224H512zm-412.44448 0v14.22224H0v-14.22224h99.55552zm-28.44448-27.15152v14.2224H28.44432v-14.2224h42.66672zm113.77792 0v14.2224h-42.66672v-14.2224h42.66672zm86.0168 0c1.260281 4.635813 1.899995 9.418332 1.9024 14.2224h0-47.8384v-14.2224zm151.32464 0-4.9936 14.2224H379.208l-4.9936-14.2224h48.016zm-66.67472 0v14.2224h-42.66672v-14.2224h42.66672zm127.99984 0v14.2224H440.8888v-14.2224h42.66672zm-412.44448-27.15136v14.22224H28.44432v-14.22224h42.66672zm284.44464 0v14.22224h-42.66672v-14.22224h42.66672zm127.99984 0v14.22224H440.8888v-14.22224h42.66672zm-229.90976-6.4e-4c4.736661 4.029416 8.749047 8.839495 11.86352 14.22208h0-123.28752v-14.22208zm178.11584 0-4.992 14.2224h-57.0944l-4.992-14.2224h67.0784zM394.224 81.4549786l3.9984 11.496 3.9968-11.496h81.336v14.2224h-42.6656v-13.0688l-4.5888 13.0688H360.144l-4.5888-13.0704v13.0704h-42.6656v-14.2224h81.3344zm-252.00176-6.4e-4 123.288 8e-4c-3.114654 5.382643-7.127198 10.1927713-11.864 14.22224h0-111.424v-14.22304zm-71.1112 0v14.22224H28.44432v-14.22224h42.66672zm0-27.15136v14.22224H28.44432v-14.22224h42.66672zm113.77792 0v14.22224h-42.66672v-14.22224h42.66672zm87.9192 1.6e-4c-.002427 4.8040136-.642141 9.5864769-1.9024 14.22224h0-45.936v-14.22224zm111.97424-1.6e-4 4.9456 14.2224h-76.8384v-14.2224h71.8928zm98.7728 0v14.2224h-76.8384l4.9456-14.2224h71.8928zm-383.99968-27.15152v14.22224H0v-14.22224h99.55552zm165.9696 0c2.574507 4.4440919 4.501156 9.2330768 5.7216 14.22192h0-157.4688v-14.22192zM512 27.1509786v14.2224h-95.8416l4.9456-14.2224H512zm-136.6592 0 4.9456 14.2224h-95.8416v-14.2224h90.896zM99.55552 9.85716419e-5V14.2223386H0V9.85716419e-5h99.55552zm118.94944-4.94187193e-5C232.066886-.0182214039 245.141087 5.05759937 255.13792 14.2221786h0-141.36V4.91529226e-5zM512 5.78571642e-4V14.2229786h-86.4l4.9456-14.222400028358H512zm-146.1008 0L370.8448 14.2229786h-86.4V5.78571642e-4h81.4544z"/></svg>