<svg width="512px" height="150px" viewBox="0 0 512 150" xmlns="http://www.w3.org/2000/svg" preserveAspectRatio="xMidYMid"><path d="M170.745706 19.7479422h31.325704V132.832287h-31.325704V19.7479422zm47.762742 113.0843448V19.7479422h86.141423v21.924581H249.83202v23.3343231h50.428669v21.9288466H249.83202v23.9613491h54.817851v21.935245h-86.141423zm103.691752 0V19.7479422h86.120095v21.924581h-54.802921v23.3343231h50.411607v21.9288466h-50.411607v23.9613491h54.802921v21.935245H322.2002zm103.65976 0V19.7479422h86.141423v21.924581h-54.798656v23.3343231H507.6186v21.9288466h-50.415873v23.9613491h54.798656v21.935245H425.85996zM71.4580647 87.6373648c-.4137518 7.9849836-.5161234 15.3749322-1.1068927 23.3791102 3.1607227.287921 6.7266662.563044 10.0963975.072514l-1.0066539-22.3148731-.1770175-1.0621052c-2.5656879.1002389-4.9948803.2026105-7.8058334-.0746459zM51.7195436 65.2137222c-3.892253 1.9514584-9.6186635 4.9010397-8.9873721 10.2392913.8339019 2.9154574 3.9903591 4.798668 6.4877992 5.9972686 13.8052347 6.0825784 32.1318812 6.2894543 46.7070355 1.7488479 3.5979347-1.3862818 8.4285938-3.3974569 9.0897438-7.8058333-.038389-3.6427222-3.894386-5.9354192-6.6648169-7.330232v-.1727521c.9661319-.3817607 2.0772899-.725132 3.0775459-.8296363v-.0981061c-4.881845-.874424-9.5952034-2.1519361-14.323491-3.4017225.9106806 2.0751573 1.5675649 4.26335 2.3268208 6.4195515 1.4204058-.4542739 2.8770681-.799778 4.4105091-1.0087867 2.4931747.9703973 6.0633837 2.3588119 6.4174191 5.4768798.277256 2.9154574-2.913325 4.3358632-4.9287656 5.5195346-10.6914324 3.8901202-22.7200936 4.2697482-33.8700654 1.3116359-3.0796785-.9703973-7.5243114-2.2159182-7.9060721-6.1380296 2.1860598-5.161234 7.8399572-6.2361357 12.5618465-7.4901876-2.4270597-1.5632994-4.8946414-2.9474485-7.2470551-4.6877655-2.540095.140761-4.8605175 1.2519192-7.1510817 2.2500421h0zM75.339654 34.0650348l-1.3841491 4.4425003-6.9399404 19.8792821c1.7381842.1770175 3.8901202 0 5.5963133.1770175v.1642211l-1.0151849 22.485492.1748848.2367343c2.2201838.2175397 4.9927475.3284422 7.2555861-.057584v-.354035L78.1207487 59.22925l.1364955-.7379285 6.1060384-.1045043c-3.0455546-8.0468331-5.9994014-16.1747104-8.8444783-24.3217824h-.1791503 0zm-3.2247049-9.9876277c5.1057828-3.4785011 9.6869112 1.3841491 13.6431464 4.1631111C101.054116 40.552834 115.48851 54.6459889 126.487057 70.5605048c1.386282 2.0538299 2.013308 5.2422782.76992 7.5669663-2.851476 4.7560132-6.698941 9.0961419-10.345929 13.5045182v.2409998c-9.094009 9.6805129-18.697743 19.6318839-29.0756624 27.8301419-5.0652607 3.081811-9.7146369 9.812743-16.2386927 5.643234-14.8545435-10.855654-29.0692646-24.351641-41.1192532-38.8265567-2.0431662-3.1820501-5.2337473-5.7903927-6.654153-9.3989911-1.9834494-4.8882432 2.3886703-8.39447 4.8903759-12.0755815 12.2867229-15.1531273 27.5464873-30.0119363 43.4012865-40.9678286h0zM84.9177954 9.60462431l-5.6538973-8.01270925c-.693141-.42228278-1.5569012-1.121821947-2.3225554-1.326565116-1.6678037-.722999318-3.4657046.151424635-4.8263936 1.183671446L61.8841888 14.7743893C45.4706114 35.1015471 26.0413377 54.0829451 4.84402144 68.6325066 3.16768674 69.9420098.676644845 71.2195219.158388697 73.3778561c-.556645492 1.9407947.454273908 3.5424834 1.659272773 4.749615C18.7921499 89.8191592 35.0201788 103.69904 49.4652359 119.528246c2.5635551 2.693653 4.642978 5.372376 7.1510818 7.901807 4.2249606 5.621906 9.1878497 11.2886 13.0715717 17.319992 1.2177953 1.273247 1.426804 3.365466 3.331342 3.986094 1.4907862.516123 3.331342.865893 4.7538805 0l1.4140075-1.420406c17.563125-24.88056 39.8374756-47.225291 64.7244346-65.2661505 2.491042-2.2244493 7.249188-3.0519529 7.317435-7.1809402-.177017-1.904538-1.286043-3.7813504-2.921855-4.8221282l-.407354-.0661149c-12.807112-8.7122484-24.739799-18.5655135-35.981479-29.7432109L99.4950825 27.2594572c-5.0332696-5.5792514-9.9236455-11.7599358-14.5772871-17.65483289h0zM70.2807915 21.019056c4.9927475-3.8858547 11.2758035-.6590171 15.477304 2.9154574 4.3998454 3.3633331 8.9831065 7.1745419 13.0054567 11.0689276l.7315303.4201501c11.1393085 10.3352646 21.4852365 21.8222095 29.9842105 33.9660387 1.377751 2.1135467 2.595546 4.5086152 1.825627 7.3131701-2.834414 7.0849668-8.592815 12.7324658-13.628217 18.9195485C106.78266 107.34816 95.2914493 118.694344 82.4267535 127.745699c-2.6019444 1.840555-6.1124367 3.54035-9.2305046 2.079422-9.4693716-4.95649-17.4543552-13.075837-25.742188-20.474317-9.6122653-8.912726-19.2586544-19.290645-26.5440989-30.1462985-1.0834326-1.5227773-1.3884146-3.4017225-1.3564235-5.4107648.9362735-3.7472266 3.5040941-6.8311705 5.9332865-9.9897605 8.607744-10.9708215 19.1520173-21.3764665 29.8007948-30.8820947.2452653-.2431325.6995392-.7613887 1.0855654-1.0087867 4.5725974-3.9541024 9.1153365-7.453931 13.9076063-10.8940428h0z" fill="#1a1918"/></svg>