<svg width="512px" height="281px" viewBox="0 0 512 281" xmlns="http://www.w3.org/2000/svg" preserveAspectRatio="xMidYMid"><title>IETF</title><path d="M256.960848 84.907269c1.763025 1.4456803 3.226336 3.1734445 4.865949 4.7249062l30.835301 30.8000418c-11.976814 12.000321-23.965382 23.988889-35.965703 35.965703-3.279226-3.155814-6.43504-6.43504-9.661376-9.608484-8.656451-8.674082-17.330532-17.312903-25.969353-25.986984 11.976814-11.953308 23.941875-23.9183686 35.895182-35.895183zm84.625186-.1586722c4.813057 4.8659482 9.731896 9.6261148 14.562583 14.4744327l21.156297 21.1562965h0c-1.551462 1.886436-3.52605 3.420268-5.183293 5.183292l-21.808615 21.826246c-3.032403 2.961881-5.959024 6.064805-9.044317 8.956165-8.897398-8.87389-17.818303-17.783042-26.762715-26.727454-3.067663-3.032402-6.047174-6.152956-9.185358-9.114837 1.621982-1.904067 3.526049-3.52605 5.289074-5.289075 10.084501-10.04924 20.116111-20.1513718 30.218243-30.1829822l.282084.2291932.476017-.5112772zm-169.567715.5289074 35.577838 35.5249478c-9.908199 9.943459-19.834028 19.875165-29.777487 29.795117-1.956957 1.886436-3.790503 3.913915-5.800351 5.72983-9.661375-9.573224-19.234599-19.234599-28.860714-28.825453-2.11563-2.221412-4.530974-4.372302-6.664234-6.699494l35.524948-35.5249478zm127.237492-41.8718364 34.943149 35.0841914c-11.741744 11.8827864-23.642161 23.6245308-35.419166 35.4896868-1.097014-.944297-2.144473-1.94468-3.138184-2.997142l-27.291622-27.3974035c-1.657243-1.7630247-3.526049-3.2792259-4.98936-5.0951413 11.741745-11.753498 23.477612-23.5069959 35.207603-35.2604938.211563-.3702352.511277 0 .68758.1763024zm84.166798-.3173444c1.093076.8815123 2.009849 1.9922179 3.032403 2.9618815l32.351503 32.4396543c-11.342126 11.3891395-22.701881 22.7606488-34.079267 34.1145278-.442485.519749-.959345.971258-1.533832 1.339899-1.939327-2.080369-4.002066-4.037327-5.994284-6.064805l-5.865653-5.874399h0l-11.745694-11.731871c-3.914479-3.9125044-7.825573-7.8306505-11.725384-11.7657216 8.268586-8.3391068 16.625323-16.6782135 24.98206-24.9644296 3.52605-3.5260494 7.052099-7.0520987 10.578148-10.4547364zM75.8100616 82.7211184c-.2417918.3565126-.5194464.6873351-.8286216.9872938L51.6918839 107.015599c-2.3271926 2.291932-4.5838642 4.689645-7.0520988 6.911056-8.4625185-8.533039-16.995558-16.9955576-25.4757067-25.5109668-.7353658-.6702806-1.419016-1.3951856-2.0451087-2.1685204.1057815-1.1812265.070521-2.3448228.070521-3.5260494h58.6205709zm418.9475574.6699494v2.8384698h1.287008c-.581308.7514353-1.230484 1.4478237-1.939328 2.0803691L477.409456 105.00575c-2.997142 2.944252-5.888503 6.011915-8.973796 8.815124-8.967919-8.991426-17.959345-17.9828519-26.974278-26.9742778-1.183943-1.0789023-2.296966-2.2331477-3.332116-3.4555284h56.628353zm-280.673531-41.201887c.457429.2950577.867569.6576452 1.216487 1.0754451l20.556868 20.5392376c4.636755 4.7072759 9.379291 9.2911401 13.963155 14.1041975-11.918046 11.9180469-23.836093 23.830217-35.75414 35.73651-6.311629-6.258737-12.570366-12.570366-18.864364-18.8467335-5.571158-5.6240487-11.248098-11.1070555-16.801626-16.7311043.075167-.2983857.227121-.5719023.440756-.7933611 11.37151-11.4420302 22.672498-22.8135394 34.044007-34.0440067.387866-.352605.68758-.8638821 1.198857-1.0401846zm-84.23732.1939327c7.052099 7.0520988 14.123239 14.1232382 21.213419 21.2134183l14.205747 14.2057477h0c-11.847526 11.8475259-23.700928 23.6950515-35.560208 35.5425775-11.953307-12.012075-23.930121-24.0006425-35.9304428-35.9657034l.4936469-.2997142C105.857879 65.478737 117.452705 53.8839113 129.053407 42.2949623c.211563-.2997142.599429-.1586722.793361.0881512zm338.712304-.3878654 24.382631 24.3650012c1.269378 1.3398988 2.679798 2.5563858 3.878654 3.9668056h-2.045108 0v3.1381839h0-57.580387 0c.65232-.8815123 1.463311-1.6219827 2.239042-2.4153438 9.714266-9.6790056 19.393271-19.3932716 29.125168-29.0546469zm-423.2669677.4583864c7.6338969 7.7044179 15.3735753 15.3383148 23.0603629 23.0251025 2.4682346 2.5387555 5.0598809 4.9364691 7.4575944 7.5457456H17.1894907v-2.7326882h0-.5112771c.4348939-.569892.9186166-1.1008071 1.4456802-1.5867223l26.3924796-26.4453703c.2468235-.3526049.5641679 0 .7757309.1939327zM172.141731 2.84217094e-14C184.095038 11.9533074 196.101236 23.8360938 208.036913 35.8951827c-5.289074 5.4830068-10.842602 10.8602321-16.237457 16.2903481l-19.587204 19.5519438c-.156996-.1720508-.368881-.2842251-.599429-.3173444-1.375159-1.1988568-2.609276-2.5740161-3.913915-3.8433939l-31.4171-31.3994697c-.299714-.2115629 0-.4936469.141042-.6699494 9.332278-9.2852633 18.641048-18.5940337 27.926312-27.92631104 2.644537-2.45060431 5.112771-5.05988085 7.669157-7.581006159999973h.123412zm84.554664-1.4210854700000001e-14C265.229434 8.32147653 273.603802 16.783995 282.08395 25.2641438c3.367377 3.4026376 6.840536 6.6994938 10.119762 10.1902827l-35.948073 35.9833339c-.473168-.3942734-.926248-.8120482-1.357529-1.2517475-11.265728-11.1775766-22.425674-22.4433043-33.673772-33.6208808-.158672-.211563-.581798-.4760167-.317344-.7757309 4.724906-4.781323 9.480841-9.5541834 14.246367-14.324223l14.303913-14.30729796c2.381635-2.3850198 4.760308-4.77074481 7.133339-7.157880239999987h.105782zm84.695706 1.42108547e-14C351.53537 10.1550222 361.684515 20.2982909 371.839537 30.4298061c1.763025 1.7630247 3.52605 3.3850074 5.112772 5.2890741-11.794635 11.7946352-23.624531 23.5540099-35.366275 35.4015358-2.908991-2.7150581-5.624049-5.6064185-8.462519-8.3743673l-27.13295-27.1505802c.320316-.6437162.784882-1.2048162 1.357529-1.639613L341.268689 2.84217094e-14h.123412z" fill="#bbbcc1"/><g style="fill:#221e1f"><path d="M298.973727 28.5962605c2.397713 2.2566716 4.672015 4.6543851 7.052099 6.9463172l27.18584 27.0800593c2.83847 2.7679487 5.553528 5.6593092 8.462519 8.3743672 11.741744-11.8475259 23.57164-23.6069006 35.366275-35.4015357 2.221411-2.1861506 4.389932-4.425192 6.628973-6.5937124 14.809407 14.7917772 29.601184 29.6364451 44.463483 44.3753315 3.032402 0 6.064804 0 9.097207 0 19.199339 0 38.398678 0 57.580386 0 0-1.0401846 0-2.0979994 0-3.138184.66995 0 1.357529 0 2.045109 0 5.042251 0 10.084501 0 15.144382 0v15.8672222c-5.289074 0-10.578148 0-15.867222 0h-1.287008v-2.715058h-56.716504c-4.795428 0-9.590855 0-14.386282 0-1.639613-1.639613-3.279226-3.2968562-4.936469-4.9364691l-32.422024-32.4043938c-1.022554-.9696636-1.939327-2.0803692-3.032403-2.9618815-3.526049 3.4378981-7.052098 7.0520988-10.578148 10.4547364-8.356737 8.2862161-16.642953 16.6253228-24.98206 24.9291691l-6.276367 6.2763679-.476017.5112772-.317345-.282084-6.523191-6.4879308-34.943149-35.0489309c-.176303-.1763024-.476017-.5465376-.68758-.1763024-11.753498 11.7534979-23.506996 23.5069958-35.260494 35.2604938-2.15089 2.1156296-4.28415 4.2488895-6.399779 6.3997796-11.929801 11.9533074-23.877231 23.9124917-35.842292 35.8775527-2.274302 2.239041-4.495713 4.513343-6.770015 6.734754l-6.699494-6.734754-35.577838-35.5249478-35.524948 35.5249478c-2.20378 2.15089-4.33704 4.372301-6.558451 6.505561-14.844668-14.915189-29.689336-29.7716104-44.5340041-44.5692643-3.1910746 0-6.3821493 0-9.573224 0H17.1894907c0 1.1812265 0 2.3448228 0 3.5260493-5.7298302 0-11.45966046 0-17.1894907 0V70.3975758h14.7036259c.6449621.0618677 1.294365.0618677 1.9393272 0h.5112771c.0881513.9167729 0 1.7630247 0 2.7326883h72.2840123c1.4456802 1.4633105 2.9089907 2.8913605 4.354671 4.354671C105.781481 89.449996 117.758296 101.438564 129.723357 113.450639c11.859279-11.824019 23.712682-23.6715451 35.560208-35.542578 2.115629-2.1332599 4.266519-4.213629 6.346888-6.3821494.230548.0331194.442433.1452936.599429.3173445 2.045109 2.0979994 4.125478 4.143108 6.188217 6.2058469 5.553527 5.6240488 11.230467 11.1070555 16.801625 16.7311043 6.293998 6.2763677 12.552736 12.5879967 18.864364 18.8467337 11.918047-11.953307 23.830217-23.9007378 35.73651-35.8422917l6.435041-6.3468889 35.912812-35.9128129c2.274302-2.2743019 4.583865-4.5309735 6.805276-6.8581661m0 2.3095624c-3.102924 3.2439654-6.329259 6.3468889-9.485073 9.5555938-25.152486 25.0584576-50.299094 50.1580524-75.439826 75.2987844-14.104198-14.104197-28.208396-28.2083949-42.312593-42.3125925-13.974909 14.0336766-27.967448 28.0732295-41.977618 42.1186595-4.354671-4.248889-8.60356-8.60356-12.922971-12.88771L94.2865604 80.2528839c-1.9040667-1.8688062-3.7199821-3.8081334-5.6769395-5.5887883-23.7832031 0-47.6016666 0-71.3848697 0 0 2.1685204 0 4.3370407 0 6.5055611 22.5138253 0 45.0276506 0 67.5414759 0 .4760166 0 1.075445-.1763025 1.4633105.1763025L129.97018 125.033711c13.939649-13.986663 27.902804-27.9498181 41.889467-41.8894667h.264453l24.805758 24.7352367c5.74746 5.782721 11.583072 11.494921 17.260011 17.330532.485141-.341047.928889-.737462 1.322269-1.181226 27.773516-27.7617622 55.547031-55.5294011 83.320547-83.3029167 14.104197 14.1041975 28.208395 28.208395 42.312592 42.3125926 3.825764-4.0020661 7.86309-7.8101994 11.759375-11.7593747l30.324025-30.3240247c.581798-.1939327.899142.7404704 1.375159 1.0225544 13.293206 13.2814526 26.586412 26.568782 39.879618 39.8619882 23.436475 0 46.87295 0 70.309425 0v-6.8757963h-67.541476c-13.363727-13.4871389-26.868496-26.8332358-40.285114-40.2498537-1.181227-1.1107055-2.239041-2.3800833-3.526049-3.4026376-.51005.626106-1.063854 1.2152582-1.657244 1.7630247-13.381357 13.4342481-26.833235 26.7979752-40.179332 40.2322234-.413442-.219537-.779032-.5192006-1.075445-.8815124l-32.492545-32.5278055c-3.032403-2.9795117-5.976654-6.0648049-9.079577-9.0090561l.01763.0881512z"/><path d="M36.1596364 220.519128v59.94284h0-21.1562963c.023507-20.004454.023507-39.9854 0-59.94284h21.1562963zm315.8987636 0v15.091491h0-18.758583v44.798458h0-20.997624v-44.798458h0-18.740952c-.01763-5.04225 0-10.066871-.01763-15.091491H352.0584zm-161.880927-.01763v12.729038h0-23.853724 0v10.472367h0 21.879137 0v12.640887h-21.861507v11.371509h0 24.25922 0v12.640887h0-45.344995c-.011753-19.933932-.011753-39.885495 0-59.854688h44.921869zm310.697841 0v12.729038h0-22.725388 0v10.754451h0 21.385489v12.711408h-21.385489 0v23.659791h0-21.085775v-59.854688h43.811163z"/></g><path d="M298.956097 30.8881926c3.102923 2.9266209 6.047174 6.0119141 9.079577 8.9914259l32.527805 32.5454357c.296414.3623118.662003.6619754 1.075445.8815124 13.346097-13.4342482 26.797976-26.7979753 40.179333-40.2322234.59339-.5477665 1.147193-1.1369187 1.657243-1.7630247 1.251748 1.0225543 2.309562 2.2919321 3.52605 3.4026376 13.416617 13.4166179 26.921387 26.7627148 40.285114 40.2498537h67.506215v6.7523845c-23.436475 0-46.87295 0-70.309425 0-13.316713-13.2814526-26.609919-26.568782-39.879618-39.8619882-.476017-.2820839-.793361-1.216487-1.375159-1.0225543l-30.324025 30.3240247c-3.896285 3.9491753-7.933611 7.7573086-11.759375 11.7593746-14.104197-14.1041975-28.208395-28.208395-42.312592-42.3125925-27.808776 27.7500086-55.582292 55.5176475-83.320547 83.3029164-.39338.443764-.837128.84018-1.322269 1.181227-5.676939-5.835612-11.512551-11.547812-17.260011-17.330533L172.1241 83.0737234h-.264453c-13.963156 13.998416-27.926311 27.9850786-41.889467 41.9599876L86.1942771 81.2754382c-.3878655-.352605-.9872939-.1057815-1.4633105-.1763025-22.5138253 0-45.0276506 0-67.5414759 0 0-2.1685204 0-4.3370407 0-6.5055611 23.8008333 0 47.6016666 0 71.3848697 0 1.9569574 1.7630247 3.7728728 3.7199821 5.6769395 5.5887883l22.5843461 22.5667161c4.319411 4.28415 8.5683 8.638821 12.922971 12.88771 14.021923-14.033676 28.043846-28.0497224 42.065769-42.0481385 14.104198 14.1041975 28.208395 28.2083955 42.312593 42.3125925 25.187746-25.0819645 50.328478-50.2050663 75.422196-75.3693054 3.102923-3.2792259 6.293998-6.3821494 9.396922-9.643745z" fill="#fdd34f"/></svg>