<svg width="256px" height="145px" viewBox="0 0 256 145" xmlns="http://www.w3.org/2000/svg" preserveAspectRatio="xMidYMid"><title>immer</title><path d="M189.727465 0c22.574556 0 45.149112 14.021611 54.535676 41.7423854-3.96427-1.601453-8.201381-2.4210518-12.477314-2.4124245-4.900339-.0064705-9.741364 1.0708706-14.176903 3.1554556-6.416597-13.5805374-17.826276-18.84646-29.722322-18.84646-15.584894 0-30.236305 16.4155626-46.208334 41.3483754.601798.8348929 1.206367 1.675413 1.813139 2.519625l1.014365 1.4116126c.169395.2357415.338956.4716949.508679.7078234l1.020279 1.4185769c.340732.473363.682096.9471317 1.024073 1.4210119l1.027749 1.4216802c13.555701 18.7154371 28.036337 37.1453361 42.222181 37.1453361 10.88341 0 14.124061-2.240956 22.047209-11.1681126 5.664938 4.0613276 12.461138 6.2429706 19.430963 6.2354216 3.89633 0 7.64276-.66862 11.130368-1.895861.345095-.010785.6147-.032353.798031-.086274-9.872931 25.782855-34.115802 39.998581-55.711154 39.998581-26.588289 0-45.262402-24.101253-63.911046-50.3779707-17.000297 27.2957827-34.12622 49.2035717-58.9392735 49.2035717-21.7678986 0-43.5347188-13.041327-53.4712765-38.823103.1186262.032352.2803891.064705.4745046.086273 3.565255 1.258516 7.3181551 1.899097 11.0980156 1.894783 5.23357.007549 10.3938076-1.221849 15.0612074-3.586823 6.5664966 12.051338 17.4175541 16.790992 28.6881168 16.790992 14.8014468 0 32.3290852-20.3720328 45.9844806-41.2658125-18.784134-26.4414099-33.5902364-45.5770156-49.9994366-46.1282291-8.1280481-.2696049-15.5874761 4.6630862-21.4120201 12.9011331-5.4373914-3.585745-11.8097725-5.4913124-18.3223481-5.4816066-3.4768246 0-6.8242389.5284256-9.9786161 1.5184147C22.7600796 13.7207319 44.9151308 0 67.0691036 0c26.0249815 0 44.1610534 23.4285479 63.1802554 49.3652616C146.419191 23.0261328 164.827478 0 189.727465 0zM24.2193641 48.4823003c13.3759854 0 24.219364 10.8476628 24.219364 24.2289329 0 13.3812702-10.8433786 24.2289329-24.219364 24.2289329C10.8433786 96.9401661 0 86.0925034 0 72.7112332c0-13.3812701 10.8433786-24.2289329 24.2193641-24.2289329zm207.5612719 0C245.156621 48.4823003 256 59.3299631 256 72.7112332c0 13.3812702-10.843379 24.2289329-24.219364 24.2289329-13.375985 0-24.219364-10.8476627-24.219364-24.2289329 0-13.3812701 10.843379-24.2289329 24.219364-24.2289329z" fill="#00e7c3"/></svg>