<svg width="512px" height="73px" viewBox="0 0 512 73" xmlns="http://www.w3.org/2000/svg" preserveAspectRatio="xMidYMid"><path d="M0 0h23.7226667v70.144H0V0zm31.0613333 0h18.432l18.2613334 26.9653333L86.016 0h18.602667v70.144H82.0906667V44.8853333l-14.336 20.992-14.336-20.992V70.144H31.0613333V0zm80.7253337 0h18.602666L148.48 26.9653333 166.741333 0H185.344v70.144h-22.528V44.8853333L148.48 66.048l-14.336-20.992v25.2586667h-22.357333V0zm107.690666 72.0213333c-4.437333 0-8.362666-.512-11.946666-1.7066666-3.584-1.1946667-6.656-2.7306667-9.216-5.12-2.56-2.2186667-4.437334-5.12-5.802667-8.5333334C191.146667 53.248 190.464 49.152 190.464 44.544V0h22.357333v43.6906667c0 2.3893333.512 4.2666666 1.536 5.632C215.381333 50.688 217.088 51.2 219.477333 51.2c2.389334 0 4.096-.6826667 5.12-1.8773333 1.024-1.3653334 1.536-3.2426667 1.536-5.632V0h22.528v44.544c0 4.608-.682666 8.704-2.048 12.1173333C245.248 60.0746667 243.2 62.976 240.64 65.1946667c-2.56 2.2186666-5.632 3.9253333-9.216 5.12-3.584 1.024-7.509333 1.7066666-11.946667 1.7066666zM265.216 18.432h-12.970667V0h48.981334v18.432H288.256v51.712h-23.210667V18.432h.170667zM318.122667 0h16.896l26.624 70.144h-22.016l-2.389334-6.3146667H315.904L313.514667 70.144h-22.016L318.122667 0zM331.264 48.4693333l-4.778667-12.288-4.778666 12.288H331.264zM363.349333 0h27.477334c3.584 0 6.656.341333333 9.557333 1.19466667 2.901333.85333333 5.461333 2.048 7.509333 3.584 2.048 1.536 3.754667 3.584 4.778667 5.97333333 1.194667 2.3893333 1.706667 5.12 1.706667 8.192 0 2.2186667-.341334 4.096-.853334 5.8026667-.512 1.536-1.194666 2.9013333-1.706666 3.9253333-.853334 1.1946667-1.706667 2.3893333-2.56 3.072 1.536 1.024 2.901333 2.2186667 4.266666 3.7546667 1.024 1.3653333 2.048 3.072 2.901334 5.12.853333 2.048 1.365333 4.608 1.365333 7.5093333 0 3.4133333-.512 6.4853333-1.706667 9.216-1.194666 2.7306667-2.901333 5.12-5.12 6.9973333-2.218666 1.8773334-4.949333 3.4133334-8.021333 4.4373334-3.242667 1.024-6.826667 1.536-10.752 1.536H363.52V0h-.170667zm29.525334 21.3333333c0-3.2426666-1.706667-4.7786666-5.290667-4.7786666h-2.56v9.728h2.56c3.584 0 5.290667-1.7066667 5.290667-4.9493334h0 0zm-5.290667 32.256c5.290667 0 8.021333-2.048 8.021333-6.144 0-4.096-2.730666-6.144-8.021333-6.144h-2.56v12.288h2.56zM423.765333 0h23.381334v51.712H466.432v18.432h-42.666667V0zm46.08 0h41.301334v18.432h-18.944v7.8506667h18.602666v17.408h-18.602666V51.712H512v18.432h-42.154667V0z" fill="#fc4349"/><path d="M0 0h23.7226667v70.144H0V0h0zm13.312 61.7813333V8.36266667h-2.7306667V61.7813333H13.312zM31.0613333 0h18.432l18.2613334 26.9653333L86.016 0h18.602667v70.144H82.0906667V44.8853333l-14.336 20.992-14.336-20.992V70.144H31.0613333V0zm13.1413334 61.7813333V13.4826667l23.552 34.304 23.552-34.304v48.2986666h2.7306666V8.36266667h-2.7306666L67.7546667 43.008l-23.552-34.64533333H41.472V61.7813333h2.7306667zM111.786667 0h18.602666L148.48 26.9653333 166.741333 0H185.344v70.144h-22.528V44.8853333L148.48 66.048l-14.336-20.992v25.2586667h-22.357333V0zM124.928 61.7813333V13.4826667l23.552 34.304 23.381333-34.304v48.2986666H174.592V8.36266667h-2.730667L148.48 43.008 124.928 8.36266667h-2.730667V61.7813333H124.928zm94.549333 10.24c-4.437333 0-8.362666-.512-11.946666-1.7066666-3.584-1.1946667-6.656-2.7306667-9.216-5.12-2.56-2.2186667-4.437334-5.12-5.802667-8.5333334C191.146667 53.248 190.464 49.152 190.464 44.544V0h22.357333v43.6906667c0 2.3893333.512 4.2666666 1.536 5.632C215.381333 50.688 217.088 51.2 219.477333 51.2c2.389334 0 4.096-.6826667 5.12-1.8773333 1.024-1.3653334 1.536-3.2426667 1.536-5.632V0h22.528v44.544c0 4.608-.682666 8.704-2.048 12.1173333C245.248 60.0746667 243.2 62.976 240.64 65.1946667c-2.56 2.2186666-5.632 3.9253333-9.216 5.12-3.584 1.024-7.509333 1.7066666-11.946667 1.7066666zm0-12.6293333c-10.581333 0-15.701333-5.12-15.701333-15.5306667V8.36266667h-2.730667V43.8613333c0 5.9733334 1.536 10.4106667 4.778667 13.4826667 3.242667 3.072 7.850667 4.608 13.653333 4.608 5.973334 0 10.581334-1.536 13.824-4.608C236.544 54.272 238.08 49.664 238.08 43.8613333V8.36266667h-2.901333V43.8613333c0 10.24-5.12 15.5306667-15.701334 15.5306667zM265.216 18.432h-12.970667V0h48.981334v18.432H288.256v51.712h-23.210667V18.432h.170667zm12.970667 43.3493333V10.9226667h15.018666V8.36266667h-32.768v2.56000003H275.456v50.8586666h2.730667zM318.122667 0h16.896l26.624 70.144h-22.016l-2.389334-6.3146667H315.904L313.514667 70.144h-22.016L318.122667 0zM307.2 61.7813333l2.048-5.2906666h34.645333l2.048 5.2906666h2.901334L328.533333 8.36266667H324.608L304.298667 61.7813333H307.2h0zm19.285333-50.8586666 16.384 43.008h-32.768l16.384-43.008h0zM331.264 48.4693333l-4.778667-12.288-4.778666 12.288H331.264zM363.349333 0h27.477334c3.584 0 6.656.341333333 9.557333 1.19466667 2.901333.85333333 5.461333 2.048 7.509333 3.584 2.048 1.536 3.754667 3.584 4.778667 5.97333333 1.194667 2.3893333 1.706667 5.12 1.706667 8.192 0 2.2186667-.341334 4.096-.853334 5.8026667-.512 1.536-1.194666 2.9013333-1.706666 3.9253333-.853334 1.1946667-1.706667 2.3893333-2.56 3.072 1.536 1.024 2.901333 2.2186667 4.266666 3.7546667 1.024 1.3653333 2.048 3.072 2.901334 5.12.853333 2.048 1.365333 4.608 1.365333 7.5093333 0 3.4133333-.512 6.4853333-1.706667 9.216-1.194666 2.7306667-2.901333 5.12-5.12 6.9973333-2.218666 1.8773334-4.949333 3.4133334-8.021333 4.4373334-3.242667 1.024-6.826667 1.536-10.752 1.536H363.52V0h-.170667zM389.12 61.7813333c6.144 0 10.752-1.3653333 13.653333-3.9253333 2.901334-2.7306667 4.437334-6.144 4.437334-10.5813333 0-2.9013334-.682667-5.12-1.877334-6.8266667-1.194666-1.7066667-2.56-3.072-3.925333-4.096-1.706667-1.1946667-3.754667-1.8773333-5.802667-2.3893333 1.706667-.512 3.242667-1.1946667 4.608-2.3893334C401.408 30.72 402.432 29.3546667 403.456 27.8186667c1.024-1.536 1.365333-3.584 1.365333-5.9733334 0-4.4373333-1.365333-7.68-4.266666-10.0693333-2.730667-2.21866667-6.656-3.41333333-11.434667-3.41333333h-15.189333V61.7813333H389.12h0zm-12.458667-29.184V10.9226667H389.12c4.608 0 7.850667 1.024 9.898667 3.072 2.048 2.048 3.072 4.608 3.072 7.8506666 0 3.2426667-1.024 5.8026667-3.072 7.8506667-2.048 2.048-5.290667 3.072-9.898667 3.072h-12.458667v-.1706667h0zm0 26.624v-24.064h12.288c2.218667 0 4.266667.1706667 5.973334.6826667 1.877333.512 3.413333 1.1946667 4.949333 2.048 1.365333 1.024 2.56 2.2186667 3.242667 3.7546667.853333 1.536 1.194666 3.4133333 1.194666 5.4613333 0 4.2666667-1.365333 7.3386667-4.266666 9.216-2.901334 1.8773333-6.656 2.9013333-11.264 2.9013333h-12.117334 0zm16.213334-37.888c0-3.2426666-1.706667-4.7786666-5.290667-4.7786666h-2.56v9.728h2.56c3.584 0 5.290667-1.7066667 5.290667-4.9493334h0 0zm-5.290667 32.256c5.290667 0 8.021333-2.048 8.021333-6.144 0-4.096-2.730666-6.144-8.021333-6.144h-2.56v12.288h2.56zM423.765333 0h23.381334v51.712H466.432v18.432h-42.666667V0zm36.864 61.7813333v-2.56h-23.552V8.36266667h-2.730666V61.7813333h26.282666zM469.845333 0h41.301334v18.432h-18.944v7.8506667h18.602666v17.408h-18.602666V51.712H512v18.432h-42.154667V0zm34.304 61.7813333v-2.56h-20.992v-23.04h19.968v-2.56h-19.968V10.9226667h20.992V8.36266667h-23.722666V61.7813333h23.722666 0z" fill="#2c3e50"/></svg>