<svg width="256px" height="346px" viewBox="0 0 256 346" xmlns="http://www.w3.org/2000/svg"><title>incident</title><path d="M96.7291013 344.73746v-46.577127h60.9696497v46.990157C214.061523 331.679343 256 280.685967 256 219.843404c0-49.515998-35.13936-119.191059-75.886404-140.7480714 5.480597 19.3330025-2.748241 44.5278604-13.709434 42.3197364-4.130304-.826061-4.55922-7.35512-5.226424-17.903282-1.397949-22.0812438-3.907903-61.7957108-44.162487-103.51178699999996C113.806322 29.134533 67.6104541 88.4838326 37.5545454 127.118066c-4.1144187 5.274081-7.9111218 10.166904-11.2789086 14.535495C9.2122009 164.147397-.0163462121 191.609857 2.72079258e-4 219.843404-.120101094 278.702666 39.7125438 330.140355 96.7291013 344.753346v-.015886zm65.1477937-98.952566c.029355 9.044227-3.536234 17.729526-9.912107 24.144131-6.375873 6.414605-15.039419 10.032729-24.083659 10.057968-9.04424-.025239-17.707785-3.643363-24.083659-10.057968-6.3758727-6.414605-9.9414611-15.099904-9.9121066-24.144131 0-7.799922 2.6848801-15.139155 6.9899286-20.762724l2.986528-3.860246c7.99055-10.262218 20.254378-26.020919 21.11221-33.757297 25.306059 17.093107 36.902865 45.226835 36.902865 58.380267h0z" fill="#f25533"/></svg>