<svg width="256px" height="256px" viewBox="0 0 256 256" xmlns="http://www.w3.org/2000/svg" preserveAspectRatio="xMidYMid"><path d="M256 128c0 70.6925-57.3075 128-128 128C57.3075 256 0 198.6925 0 128 0 57.3075 57.3075 0 128 0c70.6925 0 128 57.3075 128 128" fill="#7d29e4"/><path d="M169.888 125.664h-50.0915V63.2395c0-2.8805-1.413-5.216-5.216-5.216-3.6125 0-5.2155 2.3355-5.2155 5.216V193.847c0 2.8805 1.4125 5.216 5.2155 5.216 3.613 0 5.216-2.3355 5.216-5.216v-57.752h50.0915c2.8805 0 5.2155-1.4125 5.2155-5.2155 0-3.613-2.335-5.2155-5.2155-5.2155" fill="#fff"/></svg>