<svg width="256px" height="261px" viewBox="0 0 256 261" xmlns="http://www.w3.org/2000/svg" preserveAspectRatio="xMidYMid"><title>InfluxDB</title><path d="M57.7997056 153.553318l.4663469.116917 109.5838235 33.540747c.917815.263055 1.774641.704471 2.521459 1.299164.746588.594692 1.368667 1.330923 1.830336 2.166576.4619.835424.753953 1.753929.860049 2.702353.084877.758923.049122 1.525359-.104673 2.270908l-.137439.554802-18.363201 58.783416c-.646014 1.790522-1.907895 3.295664-3.560329 4.241557-1.502214.859902-3.238186 1.210064-4.94803 1.003798l-.51191-.078619-109.5840535-33.862718c-1.8305665-.557409-3.3667787-1.815147-4.2744672-3.499802-.8249621-1.531296-1.0696187-3.302435-.700252-4.990595l.1292644-.503636 18.2391533-58.658909c.5424498-1.851279 1.7955846-3.413037 3.4855331-4.343971 1.5491194-.853355 3.350026-1.113212 5.0683895-.741988zM242.794986 180.39442l-.248377.257684-73.181234 67.751673c-2.693355 2.692687-4.083365 1.803171-3.224526-1.702807l.093415-.359284 15.257406-49.093198c.684909-2.029641 1.870381-3.853993 3.446869-5.304362 1.401526-1.289216 3.071634-2.246025 4.886185-2.803669l.686985-.190276 50.29501-11.428728c3.564358-1.280968 4.398001.145719 2.216481 2.621911l-.228214.251056zM3.36410268 103.963703l.23364861.265126 35.03700601 37.814064c1.3753414 1.660029 2.3412563 3.619707 2.8204164 5.721153.4257155 1.868157.4562878 3.801958.0926865 5.677752l-.1548254.700463-15.2571757 49.093657c-.9368324 3.674582-2.6399126 3.797068-3.3809608.367459l-.0731575-.367459L.466769127 105.968029c-1.082132556-3.678669.581792273-4.542011 2.897333553-2.004326zM226.784497 41.4047722c1.49026.8923839 2.600325 2.2929836 3.131831 3.9353629l.130462.453716 25.668667 111.3301569c.27157.90953.349819 1.865088.230144 2.806378-.119675.941289-.432671 1.847597-.920577 2.660926-.487905.81333-1.141515 1.51596-1.9171 2.063473-.620469.437826-1.307219.768423-2.033149.979537l-.55137.135741-60.359214 13.838798c-1.838621.458677-3.78403.169846-5.409768-.803664-1.49026-.892384-2.600325-2.292983-3.132008-3.935363l-.130515-.453716-25.59433-111.3301567c-.460058-1.8284952-.176981-3.7644677.786863-5.3846825.883523-1.4851968 2.273522-2.5942599 3.905864-3.1297107l.450995-.1316619 60.333207-13.8387974c1.838621-.4586772 3.78426-.1698463 5.409998.8036634zm-78.676211 26.0307779.111215.3708977 24.277445 105.0941712c.985982 3.822991-1.239516 5.877513-4.852439 5.06037l-.365849-.091328-103.3466869-31.801547c-3.6708784-1.007492-4.4460323-3.937528-1.9900897-6.620445l.2755159-.286411 79.0692417-73.4417573c2.666335-2.66589 5.681062-1.779685 6.821647 1.7160494zM91.2551439.00214395452C92.1962033.0252576298 93.1229937.234995581 93.9821218.619186703c.6873025.307351056 1.3204014.721453647 1.8760835 1.225931227l.4018832.39504761L138.155298 47.6071568c1.266023 1.366826 1.939885 3.1787509 1.874754 5.040617-.059914 1.7064996-.736146 3.3281032-1.894681 4.5685933l-.327821.3286438-83.9149266 77.8144961c-1.3850074 1.279371-3.2190261 1.960368-5.1034463 1.895237-1.7273852-.059703-3.3692943-.741913-4.6272051-1.911904l-.3333218-.331081L1.85881208 89.6199698C.605069645 88.24716-.0606818906 86.4377667.00435346059 84.5800432.0639692836 82.876919.733297539 81.2575306 1.88171353 80.0120681l.32498443-.3301826L86.1464042 1.99171573c.6775444-.65333089 1.4777556-1.165634047 2.3548349-1.507172556.8770793-.341540349 1.8130755-.5055129638 2.7539048-.48239921948zM112.486626 1.90139358l.347293.0907157 95.718329 29.29230442c3.699276.984664 3.822585 2.6426713.482187 3.6946768l-.357909.106614-50.29432 11.4036422c-2.10766.4322107-4.288276.3532712-6.359113-.2303743-1.840744-.5185915-3.547288-1.4225067-5.007618-2.6487071l-.535864-.4748092-35.037144-37.6899005c-3.008962-3.00856073-2.450069-4.4083019 1.044159-3.54416202z" fill="#020a47"/></svg>