<svg width="256px" height="256px" viewBox="0 0 256 256" xmlns="http://www.w3.org/2000/svg" preserveAspectRatio="xMidYMid"><defs><linearGradient x1="49.9998025%" y1="100%" x2="49.9998025%" y2="0%" id="a"><stop stop-color="#7400e1"/><stop stop-color="#4000bf" offset="1"/></linearGradient></defs><path d="M128 249.4912c67.0984 0 121.492-54.3936 121.492-121.4912C249.492 60.90208 195.0984 6.508472 128 6.508472 60.9024 6.508472 6.508792 60.90208 6.508792 128 6.508792 195.0976 60.9024 249.4912 128 249.4912z" fill="#fff"/><path d="M128 0C57.30752 0 0 57.30752 0 128c0 70.6928 57.30752 128 128 128 70.6928 0 128-57.3072 128-128C256 57.30752 198.6928 0 128 0zm0 13.01696c63.5032 0 114.9832 51.47968 114.9832 114.98304 0 63.5032-51.48 114.9832-114.9832 114.9832-63.50336 0-114.98304-51.48-114.98304-114.9832C13.01696 64.49664 64.49664 13.01696 128 13.01696z" fill="#4000bf"/><path d="M129.4456 36.88136c50.324 0 91.1192 40.7952 91.1192 91.11864 0 50.3232-40.7952 91.1184-91.1192 91.1184-50.32328 0-91.11848-40.7952-91.11848-91.1184 0-12.2984 2.43664-24.028 6.85352-34.7328 6.4492 8.7824 16.84952 14.484 28.58152 14.484 19.57064 0 35.43464-15.8648 35.43464-35.4348 0-11.732-5.7008-22.13232-14.484-28.58144 10.7048-4.41696 22.4344-6.8536 34.7328-6.8536z" fill="url(#a)"/></svg>