<svg width="256px" height="263px" viewBox="0 0 256 263" xmlns="http://www.w3.org/2000/svg" preserveAspectRatio="xMidYMid"><path d="M221.6601 144.561222c0 2.341564-.897045 4.587504-2.493582 6.243586-1.596887 1.655733-3.762614 2.586054-6.020813 2.586054-2.2582 0-4.423927-.930321-6.020814-2.586054-1.596887-1.656082-2.493932-3.902022-2.493932-6.243586V65.6773179c0-2.341914.897045-4.5878538 2.493932-6.2435863 1.596887-1.6560828 3.762614-2.5864035 6.020814-2.5864035 2.258199 0 4.423926.9303207 6.020813 2.5864035 1.596537 1.6557325 2.493582 3.9016723 2.493582 6.2435863v78.8839041zm-2.955239 54.656688c-1.126122 1.167804-32.791701 28.532751-90.84567 28.532751-58.0539692 0-89.5083341-27.219234-90.8453197-28.386688-.8427528-.736621-1.5366403-1.638569-2.0424321-2.654006-.5057918-1.015787-.8129797-2.124746-.9047508-3.263478-.0914208-1.139082.0346768-2.28552.3712876-3.373813.3366107-1.088293.8770794-2.097075 1.5905821-2.968199 1.4697384-1.763266 3.5517512-2.85261 5.7927871-3.030198 2.2410359-.177938 4.458954.570592 6.1696791 2.081663.4928317.364632 28.7807438 24.15401 79.7977617 24.15401 51.017019 0 79.516144-23.935091 79.797762-24.15401 1.729991-1.49741 3.955264-2.236132 6.202255-2.058895 2.24699.176887 4.338811 1.256073 5.830616 3.00743 1.435762 1.736995 2.152418 3.991341 1.994095 6.273359-.157972 2.282018-1.177963 4.406763-2.838249 5.91328l-.070404-.073206zM33.9878773 65.6773179c.1271485-2.3492697 1.1460878-4.550725 2.8340453-6.1234432 1.6876072-1.572368 3.9072766-2.3881499 6.1731818-2.2687074 2.1005771.1236458 4.0827626 1.0497632 5.56406 2.5993635 1.4812974 1.5496003 2.3569757 3.6130487 2.4578539 5.7927871v78.7378411c0 2.341914-.8970449 4.587854-2.4939319 6.243586-1.5965367 1.656083-3.7622642 2.586054-6.0204635 2.586054-2.2581992 0-4.4239268-.929971-6.0208137-2.586054-1.596887-1.655732-2.4939319-3.901672-2.4939319-6.243586V65.6773179zm42.7134863-17.5135661c.1274988-2.3492698 1.1460878-4.5507251 2.8340453-6.1234433 1.6876072-1.572368 3.9072766-2.3881499 6.1731818-2.2687074 2.1005771.1236458 4.0827625 1.0497632 5.56406 2.5993635 1.4812974 1.5496003 2.3569757 3.6130487 2.4578538 5.7927872V164.920743c0 2.341564-.8970448 4.587503-2.4935815 6.243586-1.596887 1.655733-3.7626146 2.586053-6.0208138 2.586053-2.2581992 0-4.4239268-.93032-6.0208138-2.586053-1.5968869-1.656083-2.4939318-3.902022-2.4939318-6.243586V48.1637518zm42.9246994-4.3783916c0-2.3419141.897045-4.5878538 2.493932-6.2435863 1.596887-1.6560828 3.762615-2.5864035 6.020814-2.5864035 2.258199 0 4.423927.9303207 6.020464 2.5864035 1.596887 1.6557325 2.493931 3.9016722 2.493931 6.2435863V170.758365c0 2.341914-.897044 4.587853-2.493931 6.243586-1.596537 1.656083-3.762265 2.586403-6.020464 2.586403-2.258199 0-4.423927-.93032-6.020814-2.586403-1.596887-1.655733-2.493932-3.901672-2.493932-6.243586V43.7853602zm42.221005 4.3783916c0-2.3419141.897045-4.5878538 2.493932-6.2435864 1.596887-1.6560828 3.762615-2.5864034 6.020814-2.5864034 2.258199 0 4.423927.9303206 6.020463 2.5864034 1.596887 1.6557326 2.493932 3.9016723 2.493932 6.2435864V164.920743c0 2.341564-.897045 4.587503-2.493932 6.243586-1.596536 1.655733-3.762264 2.586053-6.020463 2.586053-2.258199 0-4.423927-.93032-6.020814-2.586053-1.596887-1.656083-2.493932-3.902022-2.493932-6.243586V48.1637518zM223.982399 7.04060792e-4H32.0176011C27.834661-.0276277346 23.6874485.79936286 19.8134477 2.43512994c-3.8743511 1.63541681-7.3991315 4.04738514-10.37328526 7.09754783C6.46600863 12.5831907 4.10132693 16.2116514 2.48167233 20.2110493.861667456 24.210097.0185643801 28.5016213 0 32.8393814V229.866651c.0185643801 4.33776.861667456 8.629284 2.48167233 12.628332 1.6196546 3.999398 3.9843363 7.627858 6.95849011 10.678371 2.97415376 3.050163 6.49893416 5.462131 10.37328526 7.097548 3.8740008 1.635767 8.0212133 2.461707 12.2041534 2.434377H223.982399c4.176985.02733 8.318243-.796158 12.188041-2.427372 3.869447-1.630863 7.391425-4.036526 10.364528-7.078983 2.973103-3.042457 5.339186-6.662511 6.963394-10.653152 1.623858-3.990992 2.473967-8.27446 2.501638-12.605915V32.8393814c-.018564-4.3318055-.859566-8.6170249-2.475017-12.611519-1.615452-3.9944942-3.973828-7.6198024-6.940276-10.66926455-2.966798-3.04911188-6.483522-5.46248129-10.349467-7.10245163-3.865945-1.639970336-8.005451-2.4739663575-12.182437-2.455442159208"/></svg>