<svg width="512px" height="216px" viewBox="0 0 512 216" xmlns="http://www.w3.org/2000/svg" preserveAspectRatio="xMidYMid"><title>Intel</title><path fill="#00c7fd" d="M1.52856252e-14 3.01176471h40.3002801v40.3002801h-40.3002801z"/><path d="M39.2963585 212.97479V67.6929972H1.00392157V212.831373H39.2963585v.143417zm253.5619045 1.434174v-35.567507c-5.593277 0-10.32605-.286835-13.768067-.860505-4.015686-.573669-7.027451-2.007843-9.035294-4.015686-2.007843-2.007843-3.298599-4.87619-4.015686-8.748459-.57367-3.585434-.860505-8.318208-.860505-14.054902v-50.626331h27.679552V67.6929972h-27.679552V11.1865546h-38.292436V151.592157c0 11.903641 1.003921 21.942857 3.011764 29.97423 2.007843 7.887955 5.44986 14.341736 10.182633 19.217927 4.732773 4.87619 11.043138 8.318207 18.644258 10.469468 7.744538 2.15126 17.496919 3.155182 29.113725 3.155182h5.019608 0zM512 212.97479V0h-38.292437v212.97479H512zM190.028011 82.0347339c-10.612885-11.4733894-25.528291-17.210084-44.459384-17.210084-9.178711 0-17.640336 1.8644257-25.098039 5.5932773-7.60112 3.7288515-13.911484 8.8918767-19.07451 15.4890756l-2.0078427 2.72493v-2.4380953-18.5008403H61.6694678V212.831373H99.67507v-77.301961 5.306442c0-.860504 0-1.721008 0-2.581512.430252-13.62465 3.728852-23.663866 10.039216-30.117647 6.740616-6.884034 14.915406-10.3260507 24.237535-10.3260507 11.043137 0 19.504762 3.4420167 25.098039 10.0392157 5.44986 6.597199 8.318207 15.919328 8.318207 27.822969h0v.430252c0 0 0 0 0 0h0v76.728292h38.579272v-82.321569c.143417-20.652101-5.306443-37.0016808-15.919328-48.4750701zm263.887955 58.0840341c0-10.469468-1.864425-20.221849-5.44986-29.400561-3.728851-9.035294-8.891876-17.0666664-15.345658-23.9507-6.597199-6.8840336-14.485154-12.1904762-23.663865-16.0627451-9.178712-3.8722689-19.361345-5.7366947-30.404482-5.7366947-10.469468 0-20.365266 2.0078432-29.543978 5.8801121-9.178711 4.0156862-17.210084 9.3221288-23.9507 16.0627451-6.740616 6.7406162-12.190476 14.7719886-16.062745 23.9507006-4.015686 9.178711-5.880112 19.074509-5.880112 29.543977 0 10.469468 1.864426 20.365266 5.593277 29.543978 3.728852 9.178711 9.035294 17.210084 15.632493 23.9507 6.597199 6.740616 14.771989 12.190476 24.237535 16.062745 9.465546 4.015686 19.935014 6.02353 31.121569 6.02353 32.412325 0 52.490756-14.771989 64.537815-28.540056l-27.536135-20.938936c-5.736694 6.884034-19.504761 16.206162-36.714845 16.206162-10.756303 0-19.64818-2.438095-26.388796-7.457703-6.740616-4.87619-11.329972-11.760224-13.768067-20.221848l-.430252-1.290757h114.016806v-13.624649h0zm-113.729972-13.337816c0-10.612885 12.190477-29.1137251 38.435855-29.2571425 26.245378 0 38.579271 18.5008405 38.579271 29.1137255l-77.015126.143417z"/></svg>