<svg width="256px" height="256px" viewBox="0 0 256 256" xmlns="http://www.w3.org/2000/svg" preserveAspectRatio="xMidYMid"><title>IntelliJ IDEA</title><defs><linearGradient x1="37.0363882%" y1="51.0173323%" x2="178.130095%" y2="41.8613414%" id="a"><stop stop-color="#fc801d" offset="9%"/><stop stop-color="#b07f61" offset=".23"/><stop stop-color="#577db3" offset=".41"/><stop stop-color="#1e7ce6" offset=".53"/><stop stop-color="#087cfa" offset=".59"/></linearGradient><linearGradient x1="73.5573972%" y1="114.759971%" x2="35.5746707%" y2="1.07475519%" id="b"><stop stop-color="#fe2857"/><stop stop-color="#cb3979" offset="8%"/><stop stop-color="#9e4997" offset=".16"/><stop stop-color="#7557b2" offset=".25"/><stop stop-color="#5362c8" offset=".34"/><stop stop-color="#386cda" offset=".44"/><stop stop-color="#2373e8" offset=".54"/><stop stop-color="#1478f2" offset=".66"/><stop stop-color="#0b7bf8" offset=".79"/><stop stop-color="#087cfa" offset="1"/></linearGradient><linearGradient x1="28.5510351%" y1="23.6142262%" x2="81.8011925%" y2="129.75542%" id="c"><stop stop-color="#fe2857"/><stop stop-color="#fe295f" offset="8%"/><stop stop-color="#ff2d76" offset=".21"/><stop stop-color="#ff318c" offset=".3"/><stop stop-color="#ea3896" offset=".38"/><stop stop-color="#b248ae" offset=".55"/><stop stop-color="#5a63d6" offset=".79"/><stop stop-color="#087cfa" offset="1"/></linearGradient></defs><path fill="url(#a)" d="M40.5333333 180.56 2.88 150.826667l22.16-41.04 33.3066667 11.146666z"/><path fill="#087cfa" d="M256 68.24l-4.613333 148.266667L152.773333 256l-53.7066663-34.666667z"/><path fill="url(#b)" d="M256 68.24l-48.8 47.6-62.666667-76.88 30.933334-34.77333333z"/><path fill="url(#c)" d="M99.0666667 221.333333 20.64 249.68l16.4266667-57.52 21.28-71.226667L0 101.413333 37.0666667 0l83.7866663 9.89333333L207.2 115.84z"/><path d="M49.1466667 48H209.146667v160H49.1466667z"/><path d="M69.0933333 177.76h59.9999997v10H69.0933333v-10zM99.04 78.9866667V68.0533333H69.2v10.9333334h8.3733333v37.7600003H69.2V127.68h29.84v-10.933333h-8.3466667V78.9866667H99.04zm28.426667 49.4400003.186666.106666c-4.066513.131578-8.098334-.786832-11.706666-2.666666-2.963983-1.595825-5.604616-3.730035-7.786667-6.293334l8.24-9.2c1.505422 1.698708 3.247771 3.171621 5.173333 4.373334 1.720568 1.066567 3.709116 1.621511 5.733334 1.6 2.190196.105346 4.319163-.740408 5.84-2.32 1.606233-2.171908 2.364781-4.855273 2.133333-7.546667V68h13.333333v39.066667c.059495 3.164147-.436928 6.314175-1.466666 9.306666-1.776671 5.040673-5.7826 8.977704-10.853334 10.666667-2.84169.961896-5.826917 1.430875-8.826666 1.386667z" fill="#fff"/></svg>