<svg width="512px" height="242px" viewBox="0 0 512 242" xmlns="http://www.w3.org/2000/svg" preserveAspectRatio="xMidYMid"><title>Internet Computer</title><defs><linearGradient x1="26.2645695%" y1="24.0114227%" x2="92.1955024%" y2="77.6603717%" id="a"><stop stop-color="#f15a24" offset=".21"/><stop stop-color="#fbb03b" offset=".6840999999999999"/></linearGradient><linearGradient x1="73.7353438%" y1="76.0134925%" x2="7.80417696%" y2="22.3409907%" id="b"><stop stop-color="#ed1e79" offset=".21"/><stop stop-color="#522785" offset=".8929"/></linearGradient></defs><path d="M387.644031 0c-28.621118 0-59.822337 14.6666618-92.79918 43.5554792-15.645056 13.6889791-29.156695 28.355552-39.288202 40.0888993 0 0 0 0 .088893.0888923v-.0888923c0 0 15.998402 17.4222365 33.687982 36.0889655 9.511483-11.288886 23.200907-26.6665975 38.932632-40.5333614 29.334479-25.6887812 48.444115-31.110993 59.377875-31.110993 41.157163 0 74.578469 32.6221632 74.578469 72.7110624 0 39.822222-33.510198 72.444385-74.578469 72.711063-1.866739 0-4.266833-.266678-7.289173-.888924 12.000468 5.155535 24.889861 8.889014 37.157007 8.889014 75.376277 0 90.132409-49.155698 91.110225-52.71117C510.844399 139.822128 512 130.399983 512 120.71116 512 54.2221181 456.177819 0 387.644031 0z" fill="url(#a)"/><path d="M124.355524 241.778333c28.622229 0 59.822337-14.667239 92.80007-43.555923 15.644611-13.688979 29.15625-28.355552 39.287757-40.0889 0 0 0 0-.088893-.088892v.088892c0 0-15.998402-17.422236-33.687982-36.088965-9.511039 11.288886-23.199795 26.666597-38.933077 40.533361-29.333368 25.688782-48.444559 31.110993-59.377875 31.110993-41.1556073-.08867-74.5778018-32.711055-74.5778018-72.799955 0-39.8222218 33.5110868-72.444385 74.5778018-72.7110621 1.86674 0 4.266611.2666771 7.288952.8889237-12.000025-5.1555348-24.888973-8.8890139-37.1556739-8.8890139-75.3777 0-90.04436182 49.1556979-91.11102571 52.6222777C1.15555625 101.866868 0 111.200122 0 120.888944c0 66.666827 55.8221806 120.889389 124.355524 120.889389z" fill="url(#b)"/><path d="M417.33408 200.444497c-38.579285-.977816-78.667518-31.377893-86.845615-38.933299-21.154159-19.555653-69.956066-72.4446077-73.776215-76.6223265C220.977965 44.7999722 172.533406 0 124.355747 0h-.088893-.088892C65.6890104.266665972 16.5335125 39.9111146 3.37795417 92.8000694c.97777153-3.466802 20.26674723-53.6000937 91.02217773-51.8222465 38.5777291.977816 78.8444131 31.822132 87.1111811 39.3777604 21.155493 19.5554306 69.956288 72.4443857 73.778659 76.6221037 35.732507 40.000007 84.176622 84.800646 132.354059 84.800646h.088893.088892c58.488951-.266677 107.733097-39.911559 120.800274-92.800514-1.066708 3.46658-20.445243 53.155632-91.28801 51.466678z" fill="#29abe2"/></svg>