<svg width="256px" height="256px" viewBox="0 0 256 256" xmlns="http://www.w3.org/2000/svg" preserveAspectRatio="xMidYMid"><path fill="#f06" d="M0 0h256v256H0z"/><g style="fill:#fff"><path d="M87.11168 82.3808c8.097755-.1183515 14.577761-6.7579096 14.499147-14.8561478-.078615-8.0982382-6.6862953-14.6107465-14.7848218-14.5720444-8.0985265.0390483-14.6433804 6.6146925-14.6442452 14.7133122.0134048 3.935878 1.5975943 7.7035266 4.400811 10.4663678 2.8032167 2.7628412 6.5934507 4.2922066 10.529109 4.2485122h0z"/><path d="M56.15616 161.15712c-.8476962 3.622781-1.2907278 7.328447-1.32096 11.04896 0 12.9536 7.02464 21.5552 21.95456 21.5552 12.38016 0 22.4256-7.35232 29.6448-19.23072l-4.41344 17.7152h24.576l14.05952-56.32c3.51232-14.27456 10.31168-21.67808 20.6336-21.67808 8.12032 0 13.16864 5.04832 13.16864 13.39392.040064 2.675551-.329437 5.341484-1.09568 7.90528l-7.23968 25.89696c-1.035833 3.566487-1.553132 7.263456-1.536 10.97728 0 12.288 7.23968 21.2992 22.38464 21.2992 12.9536 0 23.27552-8.33536 28.9792-28.3136l-9.65632-3.7376c-4.83328 13.39392-9.00096 15.81056-12.288 15.81056-3.28704 0-5.05856-2.19136-5.05856-6.58432.094872-2.305187.462665-4.591002 1.09568-6.8096l7.03488-25.2416c1.57935-5.189185 2.393464-10.580965 2.41664-16.00512 0-18.88256-11.4176-28.73344-25.25184-28.73344-12.9536 0-26.12224 11.68384-32.70656 23.98208l4.82304-22.07744h-37.5296l-5.2736 19.456h17.57184L110.31552 158.72c-8.4992 18.88256-24.10496 19.18976-26.0608 18.74944-3.21536-.72704-5.26336-1.9456-5.26336-6.144.093766-3.399191.6097221-6.773544 1.536-10.04544l16.46592-65.32096H55.296l-5.26336 19.456h17.33632l-11.2128 45.74208z"/></g></svg>