<svg width="256px" height="256px" viewBox="0 0 256 256" xmlns="http://www.w3.org/2000/svg" preserveAspectRatio="xMidYMid"><path d="M128.151659.00118559798c20.777251 0 40.341232 4.85427554202 58.691943 14.25711910202h0l2.42654 1.2132702-2.123223 1.6682464c-5.156398 4.0947868-9.251184 9.4028436-11.829383 15.4691943h0l-.758294 1.6682465-1.516588-.7582939c-14.104265-6.6729857-29.118483-10.1611374-44.739336-10.1611374-57.781991 0-104.6445502 47.014218-104.6445502 104.6445502 0 57.630331 46.7109004 104.644549 104.4928912 104.644549 57.78199 0 104.64455-47.014218 104.64455-104.644549 0-13.800948-2.5782-27.298579-8.037915-40.0379151h0L224 86.2962194l1.668246-.7582938c6.21801-2.2748815 11.677726-6.0663507 16.07583-10.9194313h0l1.668246-2.1232227 1.061612 2.4265403C252.208531 91.7559351 256 109.65167 256 127.699063c0 70.521327-57.478673 128-128 128-70.521327 0-128-57.478673-128-128C0 57.177736 57.478673-.300936964 128.151659.00118559798zm0 69.76422810202c32 0 58.236967 26.0853081 58.388625 58.3886253 0 32.303318-26.085308 58.388626-58.388625 58.388626-32.3033178 0-58.3886258-26.085308-58.3886258-58.388626 0-32.3033172 26.2369668-58.3886253 58.3886258-58.3886253zm83.563981-48.2274881c14.741553 0 26.691943 11.95039 26.691943 26.6919431 0 14.7415532-11.95039 26.6919432-26.691943 26.6919432-14.741553 0-26.691943-11.95039-26.691943-26.6919432 0-14.7415531 11.95039-26.6919431 26.691943-26.6919431z" fill="#3880ff"/></svg>