<svg width="257px" height="128px" viewBox="0 0 257 128" xmlns="http://www.w3.org/2000/svg" preserveAspectRatio="xMidYMid"><path d="M1.86210445 124.978162H23.0319472V34.8584381H1.86210445v90.1197239zM12.4045843 23.0401001c6.6315458 0 11.817685-5.1012561 11.817685-11.4774997C24.2222693 5.10103842 19.0361301 0 12.4045843 0 5.85813916 0 .672 5.10125607.672 11.5626004c0 6.3764613 5.18613916 11.4774997 11.7325843 11.4774997zM93.5158182.254431622c-35.7923697 0-58.2385059 24.400623678-58.2385059 63.425080278 0 39.0244571 22.4439597 63.3401971 58.2385059 63.3401971 35.7074868 0 58.1536228-24.31574 58.1536228-63.3401971 0-39.0244566-22.44396-63.425080278-58.1536228-63.425080278zm0 18.704315378c21.8497778 0 35.7923698 17.3440095 35.7923698 44.7203296 0 27.2910018-13.943027 44.6354464-35.7923698 44.6354464-21.9346611 0-35.7923697-17.3440093-35.7923697-44.6354464 0-27.3758848 13.8581439-44.7203296 35.7923697-44.7203296zm67.0837588 71.5020328c.935216 22.6159022 19.469352 36.5584942 47.695591 36.5584942 29.672081 0 48.376832-14.623398 48.376832-37.9188001 0-18.2790294-10.54248-28.5664246-35.452837-34.2622976l-14.113229-3.230781c-15.048466-3.5707487-21.254726-8.3318194-21.254726-16.493655 0-10.2022945 9.352158-17.0038242 23.210084-17.0038242 14.028128 0 23.6345 6.8866304 24.655273 18.3641301h20.914758C254.121198 14.8791351 236.267193.255084569 209.231929.255084569c-26.69682 0-45.65622 14.708280731-45.65622 36.473610931 0 17.5139933 10.712464 28.3966584 33.326407 33.5832329l15.898603 3.7409501c15.473534 3.6558494 21.764895 8.7568878 21.764895 17.5988764 0 10.2022941-10.287395 17.5139931-25.079689 17.5139931-14.963365 0-26.270228-7.396582-27.630534-18.7043152h-21.254725l-.001089-6.53e-4z"/></svg>