<svg width="256px" height="289px" viewBox="0 0 256 289" xmlns="http://www.w3.org/2000/svg" preserveAspectRatio="xMidYMid"><path d="M10.4042781 64.7529412 117.458824 2.87486631c6.449435-3.762170727 14.217621-3.831840555 20.715899-.20900948l.366453.20900948L245.595722 64.7529412c6.451648 3.7634613 10.263985 10.4301643 10.400483 17.6679181L256 82.8235294V206.579679c0 7.258104-3.695035 13.988346-10.048575 17.858535l-.355703.212053-107.328342 61.604278c-3.011765 1.642781-6.84492 2.737968-10.404278 2.737968-3.404604 0-6.809208-.751517-9.974197-2.494168l-.430081-.2438-107.0545459-61.878074C4.21940413 220.880672.147375314 213.951501.00391793081 206.701629L0 206.305882V82.8235294c0-7.258104 3.95896584-13.9883459 10.0629713-17.858535l.3413068-.2120532L117.458824 2.87486631 10.4042781 64.7529412zM188.098396 89.942246H67.9016043c-1.0951872 0-2.1903744.5475936-3.0117647 1.3689839-.766631.7666311-1.0562472 2.0102769-1.0914554 3.0631169l-.0037318.2224446 2.7379679 25.1893046c.2636562 1.581937 1.5428769 3.163874 3.3486865 3.523373l.2106718.035986 33.6770054 5.202139v32.855615l-33.6770054 4.928342c-1.8455932.263656-3.1834041 1.542877-3.5244573 3.348686l-.034901.210672-2.7379679 25.189305c0 1.095187.2737968 2.464171 1.0951872 3.285561.766631.766631 1.7717694 1.294755 2.7928084 1.361764l.2189563.00722H188.098396c1.095187 0 2.190374-.547593 3.011764-1.368984.766631-.766631 1.056248-2.010276 1.091456-3.063116l.003732-.222445-2.737968-25.189305c-.263656-1.581937-1.542877-3.163874-3.348687-3.523372l-.210672-.035986-33.677005-5.202139v-32.855615l33.677005-4.928342c1.845594-.263657 3.183405-1.542877 3.524458-3.348687l.034901-.210672 2.737968-25.1893046c0-1.0951871-.273797-2.4641711-1.095188-3.2855615-.766631-.766631-1.771769-1.2947546-2.792808-1.3617638l-.218956-.0072201zm-4.380749 8.2139037-1.916577 17.2491983-34.224599 5.202139c-2.114845.264355-3.463969 1.80491-3.800936 3.882348l-.032219.224604v39.974331c0 1.852692 1.279239 3.705383 3.343079 4.074157l34.440878 5.234934 1.916577 17.249198H72.5561497l1.9165776-17.249198 34.2245987-5.202139c1.852692-.26467 3.449536-1.80858 3.553933-3.88977l.005425-.217182v-39.974331c0-1.852692-1.279239-3.705384-3.343079-4.074158l-34.4408777-5.234933-1.9165776-17.2491983H183.717647z" fill="#3177bc"/></svg>