<svg width="256px" height="253px" viewBox="0 0 256 253" xmlns="http://www.w3.org/2000/svg" preserveAspectRatio="xMidYMid"><path d="M88.2785497 246.569815l-38.7683308 6.026695c-4.5104446.869843-8.8810958-2.035034-9.7621224-6.488225-.2080039-1.051365-.2057432-2.132745.0066549-3.183253l4.5252041-20.931584C17.1586768 198.81858 0 164.581218 0 126.386743 0 56.5852724 57.3075521 0 128 0c70.692448 0 128 56.5852724 128 126.386743 0 69.801471-57.307552 126.386744-128 126.386744-13.865917 0-27.216884-2.176981-39.7214503-6.203672zm51.8010293-131.069597 19.120168-35.7511843c.558004-1.0433635.849664-2.2054371.849664-3.3853418 0-4.0039083-3.287239-7.2497175-7.342256-7.2497175h-46.516048c-3.49127 0-6.4997129 2.4274794-7.1951278 5.8056686l-11.2312601 54.559234c-.0971881.472118-.1471282.952627-.1471282 1.434399-.0053904 4.003905 3.277471 7.254032 7.3324836 7.259361l13.6411615.017929 2.390567 40.094967c.125428 2.103696 1.171693 4.049393 2.866334 5.330408 3.219791 2.433907 7.828205 1.82972 10.29318-1.34949l42.728729-55.109536c.980819-1.265014 1.512308-2.813816 1.512308-4.406979 0-4.003909-3.28724-7.249718-7.342256-7.249718h-20.960519z" fill="#5146f9"/></svg>