<svg width="256px" height="255px" viewBox="0 0 256 255" xmlns="http://www.w3.org/2000/svg" preserveAspectRatio="xMidYMid"><g transform="matrix(1 0 0 -1 0 255)" fill="#8a4182"><path d="M118.267273 149.665989h19.794545l4.918182 6.732655v52.727684h-29.627273V156.39322l4.914546-6.727231"/><path d="M105.508545 126.148701l6.115091 18.717288-4.918363 6.730847-50.4340003 16.292882-9.154-28.015368 50.4394546-16.296497 7.9518177 2.570848"/><path d="M124.06 106.813107l-16.012364 11.570622-7.958909-2.572656-31.1683634-42.6594346 23.9674546-17.3139887L124.06 98.4985311v8.3145759"/><path d="M148.285455 118.385537l-16.016364-11.568814.003636-8.3199998 31.169091-42.6590735 23.969091 17.3139887-31.174545 42.6630506-7.950909 2.570848"/><path d="M144.701818 144.869605 150.82 126.150508l7.958182-2.569039 50.434545 16.292881-9.156363 28.017175L149.62 151.595028l-4.918182-6.725423"/><path d="M128.170909 254.893559c-70.4614545 0-127.787454455-56.992542-127.787454455-127.045423C.383454545 57.7697627 57.7094545.761310734 128.170909.761310734c70.454546 0 127.774546 57.008451966 127.774546 127.086825266 0 70.052881-57.32 127.045423-127.774546 127.045423h0 0zm0-25.724745c56.269091 0 101.9-45.356837 101.9-101.320678 0-55.9819213-45.630909-101.3586445-101.9-101.3586445-56.2881817 0-101.9130908 45.3767232-101.9130908 101.3586445 0 55.963841 45.6249091 101.320678 101.9130908 101.320678h0z"/><path d="M205.565455 99.6085876l-38.338182 12.3877964 2.534545 7.764972L208.1 107.373559l-2.534545-7.7649714"/><path d="M156.669091 160.809944l-6.643636 4.798192 23.692727 32.428474 6.643636-4.798192-23.692727-32.428474"/><path d="M100.071818 161.104633l-23.6896362 32.430282 6.6441818 4.798192L106.716 165.904633l-6.644182-4.8"/><path d="M50.608 100.093107l-2.5361818 7.764972 38.3343636 12.382373 2.5363637-7.764972L50.608 100.093107"/><path d="M123.807273 46.8411299h8.210945v40.084791h-8.210945v-40.084791h0z"/></g></svg>