<svg width="256px" height="283px" viewBox="0 0 256 283" xmlns="http://www.w3.org/2000/svg" preserveAspectRatio="xMidYMid"><path d="M239.552674 138.960457c0-14.508591-11.761243-26.269834-26.270477-26.269834-.932892 0-1.853593.050045-2.760822.145002L246.60326 6.41597594H93.2669594L129.298799 112.743234c-.528682-.03208-1.05993-.052611-1.596311-.052611-14.508591 0-26.270476 11.761243-26.270476 26.269834 0 11.72788 7.685774 21.65606 18.293414 25.034105-5.602487 9.704903-12.652432 18.445474-20.6564415 25.997153-10.8835289 10.267589-23.3396291 18.052812-36.8120301 22.850727-16.0394587-8.24012-23.6142356-26.564972-16.7792281-42.632662.771208-1.814456 1.5597394-3.653293 2.3123409-5.484431 11.6207318-2.71206 20.2791779-13.129142 20.2791779-25.57626 0-14.508592-11.7612431-26.269835-26.2704762-26.269835-14.5085915 0-26.2704762 11.761243-26.2704762 26.269835 0 8.897123 4.4270677 16.755488 11.1934236 21.507849-6.502015 14.804371-16.05999 30.297825-19.03767419 48.255038-3.56860151 21.520682-.01154888 44.364351 18.60138349 57.265083 43.3480501 30.043749 90.4020054-18.625123 140.0140354-30.859228 17.98031-4.434126 37.716691-3.719379 53.557894-12.894316 11.89598-6.890186 19.738306-18.308171 21.96403-31.127419 2.198777-12.66398-1.006676-25.272782-8.378706-35.496742 3.813052-4.559879 6.109995-10.429914 6.109995-16.838897" fill="#99425b"/><path d="M235.500174 190.198183c-1.932511 11.129264-8.806015 20.850848-18.858666 26.673404-9.370627 5.427328-20.59998 7.047378-32.488902 8.761744-6.369203.918136-12.955269 1.868351-19.389274 3.455038-17.01213 4.194807-33.489804 12.379749-49.424681 20.294576-31.8896445 15.83992-59.429855 29.517634-85.3981357 11.520642-19.0216341-13.183679-18.1432782-37.575539-15.927178-50.942075 2.0537745-12.383599 7.6062156-23.78811 12.9757995-34.817925.9277594-1.906847 1.8369123-3.778406 2.7216843-5.633925 2.6613734 1.063138 5.4921303 1.788792 8.4428671 2.118577-5.4658245 18.038696 3.1297444 37.652531 21.1716491 46.921142l2.4688923 1.268452 2.6151779-.930968c14.2628572-5.079579 27.4054737-13.230516 39.0627765-24.228892 7.534998-7.108972 14.013915-14.973754 19.338587-23.377484 1.596311.240602 3.229193.366998 4.891589.366998 16.558516 0 30.270877-12.379108 32.392662-28.367238 6.777904-.248301 13.977343-.250226 20.794386-.002567 2.120501 15.989414 15.833503 28.369805 32.392661 28.369805 6.923549 0 13.346005-2.169905 18.636672-5.85592 3.673183 7.518957 5.044291 15.979148 3.581433 24.406616zM41.7986406 119.295166c10.9483308 0 19.8544361 8.906747 19.8544361 19.854436 0 3.932391-1.153604 7.599158-3.1348772 10.687198-3.3010526 5.146947-8.9093133 8.675128-15.3555088 9.115268-.4510476.030797-.9053032.05197-1.3640501.05197-2.4393784 0-4.7767419-.445273-6.9376642-1.253053-4.3712481-1.63609-8.013634-4.77225-10.304802-8.777142-1.6585463-2.899409-2.6119699-6.25179-2.6119699-9.824241 0-10.947689 8.9067469-19.854436 19.8544361-19.854436zm66.0492834 19.665804c0-9.946787 7.352782-18.206155 16.907549-19.634365.961764-.144361 1.945985-.220071 2.946887-.220071 6.364712 0 12.031358 3.015539 15.666045 7.6877.903378 1.160661 1.686777 2.42013 2.317474 3.764932 1.197874 2.553584 1.870917 5.399739 1.870917 8.401804 0 1.587329-.192481 3.130386-.546005 4.610567-1.935078 8.10025-8.841945 14.291088-17.305343 15.143138-.658286.066085-1.326837.100732-2.003088.100732-3.96383 0-7.656902-1.172211-10.760341-3.181715-5.466466-3.541012-9.094095-9.689504-9.094095-16.672722zm82.865083-23.609102c-4.253193 4.069694-7.416301 9.269253-8.991439 15.11619-7.35214-.27589-15.148271-.27589-22.458065 0-1.679078-6.2319-5.161705-11.729804-9.846055-15.906005l20.54416-41.5419347 20.751399 42.3317497zM102.215924 12.8325293h135.436832l-31.988451 94.3453037c-1.386507.332992-2.739008.751959-4.05173 1.255619l-31.60028-64.4632385-31.689464 64.0782755c-1.369824-.471579-2.781353-.851408-4.226246-1.139488l-31.880661-94.0764717zM233.136505 138.96097c0 1.990898-.297704 3.912502-.844992 5.726958-1.30374 4.316712-4.039539 8.015559-7.652411 10.544762-3.220852 2.254596-7.13592 3.582717-11.357033 3.582717-9.167238 0-16.900491-6.247299-19.173694-14.707489-.441424-1.642506-.680742-3.367138-.680742-5.146948 0-2.713985.548572-5.301574 1.538566-7.659468.510076-1.215198 1.146547-2.363669 1.877334-3.442847 3.573093-5.273344 9.602887-8.752121 16.438536-8.752121.626847 0 1.245354.032722 1.857444.089825 10.08024.939308 17.996992 9.443128 17.996992 19.764611zm12.83208 0c0-15.957975-11.497543-29.272541-26.641323-32.117413L255.552866 4.49122807e-4H84.3183799L120.599162 107.061061c-14.618306 3.252932-25.5833184 16.31599-25.5833184 31.899909 0 11.701574 6.1844214 21.980712 15.4523914 27.756432-4.457865 6.641884-9.744682 12.891749-15.8020656 18.607157-9.60802 9.06394-20.3112581 15.937444-31.8505062 20.460111-11.6226567-7.300812-16.5360602-21.068993-11.4333835-33.06378l.3997193-.93995c.2502256-.587067.5004511-1.175418.7500351-1.763769 12.765995-4.452732 21.9531228-16.603429 21.9531228-30.867569 0-18.02394-14.6632181-32.686516-32.6865163-32.686516-18.0232982 0-32.68651629 14.662576-32.68651629 32.686516 0 9.097303 3.73926819 17.335499 9.75751379 23.267128-1.0907268 2.324531-2.239198 4.688842-3.4178246 7.109614-5.50239596 11.301854-11.73878693 24.111479-14.09732327 38.335839-4.68435088 28.249825 2.87181954 50.832361 21.27623057 63.588091 11.168401 7.74031 22.5093935 10.783438 33.9228872 10.783438 21.4911679 0 43.2306366-10.796912 64.493394-21.358356 15.313162-7.605574 31.147949-15.470997 46.788972-19.32832 5.819348-1.435269 11.80808-2.298868 18.148411-3.213153 12.572231-1.813815 25.573053-3.688582 37.088561-10.358055 13.348572-7.73197 22.486296-20.701354 25.070035-35.582076 2.218026-12.774977-.451047-25.570486-6.961403-36.421293 3.034787-4.958957 4.787007-10.78408 4.787007-17.011489z" fill="#fff"/></svg>