<svg width="256" height="256" xmlns="http://www.w3.org/2000/svg" preserveAspectRatio="xMidYMid"><defs><linearGradient x1="45.082%" y1="-1.343%" x2="55.522%" y2="97.61%" id="a"><stop stop-color="#FCF84A" offset="0%"/><stop stop-color="#ABE682" offset="32%"/><stop stop-color="#36CDD2" offset="79%"/><stop stop-color="#07C3F2" offset="100%"/></linearGradient><linearGradient x1="-2.942%" y1="38.992%" x2="100.445%" y2="62.105%" id="b"><stop stop-color="#3BEA62" offset="0%"/><stop stop-color="#087CFA" offset="100%"/></linearGradient><linearGradient x1="-3.308%" y1="71.807%" x2="111.745%" y2="15.462%" id="c"><stop stop-color="#009AE5" offset="0%"/><stop stop-color="#0490DD" offset="18%"/><stop stop-color="#1073C6" offset="49%"/><stop stop-color="#2346A1" offset="89%"/><stop stop-color="#293896" offset="100%"/></linearGradient></defs><path d="M46.36 255.991c91.075-7.978 170.982-63.92 209.64-146.768C208.12 40.799 129.873.033 46.36 0c-7.44 0-14.915.33-22.424.99C-14.676 83.893-6.128 181.099 46.36 255.99z" fill="url(#a)"/><path d="M24.209 1.024a301.387 301.387 0 01134.685 108.199H256C208.263 40.76 130.062-.03 46.6 0c-7.441 0-14.905.341-22.391 1.024z" fill="url(#b)"/><path d="M158.894 109.223C147.187 186.6 46.258 255.99 46.258 255.99c91.781-8.67 172.23-63.622 209.742-146.768h-97.106z" fill="url(#c)"/></svg>