<svg width="256px" height="256px" viewBox="0 0 256 256" xmlns="http://www.w3.org/2000/svg" preserveAspectRatio="xMidYMid"><title>Space</title><defs><linearGradient x1="45.0824163%" y1="-1.34304614%" x2="55.5220482%" y2="97.6099761%" id="a"><stop stop-color="#fcf84a"/><stop stop-color="#abe682" offset=".32"/><stop stop-color="#36cdd2" offset=".79"/><stop stop-color="#07c3f2" offset="1"/></linearGradient><linearGradient x1="-2.94159918%" y1="38.9923346%" x2="100.445236%" y2="62.1053821%" id="b"><stop stop-color="#3bea62"/><stop stop-color="#087cfa" offset="1"/></linearGradient><linearGradient x1="-3.30779496%" y1="71.8068763%" x2="111.745094%" y2="15.4620075%" id="c"><stop stop-color="#009ae5"/><stop stop-color="#0490dd" offset=".18"/><stop stop-color="#1073c6" offset=".49"/><stop stop-color="#2346a1" offset=".89"/><stop stop-color="#293896" offset="1"/></linearGradient></defs><path d="M46.360458 255.99099C137.434811 248.012902 217.341572 192.070363 256 109.222831 208.119528 40.7992121 129.872913.0324961365 46.360458 1.54095168e-5c-7.4408043 0-14.9157407.3299439224832-22.4248093.9898317674832C-14.6764568 83.8934929-6.12822306 181.09875 46.360458 255.99099h0z" fill="url(#a)"/><path d="M24.2087057 1.02397931C78.7004741 23.174229 125.519479 60.7860504 158.89409 109.222831H256C208.262655 40.7605274 130.061592-.0289436035 46.599383 0c-7.4408044 0-14.9043634.341336709-22.3906773 1.02397931h0z" fill="url(#b)"/><path d="M158.89409 109.222831C147.18677 186.60037 46.2580617 255.99099 46.2580617 255.99099 138.039359 247.321429 218.488789 192.3687 256 109.222831h-97.10591z" fill="url(#c)"/></svg>