<svg width="256px" height="256px" viewBox="0 0 256 256" xmlns="http://www.w3.org/2000/svg" preserveAspectRatio="xMidYMid"><title>JetBrains</title><path d="M0 3.55074489e-14h256V256H0z"/><path d="M27.8613333 208h95.9999997v16H27.8613333v-16zM23.8506667 66.0053333 30.976 59.264c1.3754173 2.1705182 3.7074523 3.5507022 6.272 3.712 2.7306667 0 4.5226667-1.92 4.5226667-5.632V32.0853333h11.008v25.344c.3327185 4.1266527-1.0928439 8.2019017-3.9253334 11.2213334-2.6978636 2.6348256-6.2790527 4.1502131-10.0256527 4.2668183L37.888 72.9173333c-5.2217015.2103392-10.2092337-2.0819094-13.4504409-6.1321585l-.5868924-.7798415zm33.8773333-33.92h32.128v9.344H68.5226667v6.1013334H87.68V56.064H68.6933333v6.3573333h21.3333334V71.808H57.6l.128-39.7226667zm47.786667 9.6853334H93.568v-9.6853334h35.029333v9.6853334H116.608v30.2506666h-11.093333V41.7706667zM28.288 87.808h18.8586667c3.9546943-.3252519 7.874435.9505853 10.88 3.5413333 1.7137426 1.7176621 2.6535575 4.059496 2.6026666 6.4853334.0654841 3.9922093-2.4242428 7.5808503-6.1866666 8.9173333 4.689642.859626 8.056142 5.004403 7.936 9.770667C62.3786667 123.733333 56.7893333 128 47.232 128H28.288V87.808zm21.3333333 12.330667c0-2.218667-1.792-3.4133337-5.0346666-3.4133337h-5.504v6.9973337H44.416c3.328 0 5.2906667-1.152 5.2906667-3.456l-.0853334-.128zm-3.84 11.349333h-6.6986666v7.381333h6.912c3.4133333 0 5.2906666-1.322666 5.2906666-3.669333-.0796444-2.110578-1.4973155-3.514975-4.7039778-3.692847l-.8000222-.019153zM88.704 128l-8.064-12.117333h-3.712V128H65.8346667L65.92 87.808h17.7066667c4.7350418-.3856069 9.4258077 1.1523491 13.0133333 4.2666667 2.2195852 2.2676777 3.482598 5.2881498 3.552137 8.4391893l-.010804.862144c.15761 5.443446-3.1462245 10.390638-8.2346663 12.330667l7.7952 11.6608L115.584 87.5093333h10.666667l17.066666 40.2773337h-11.904l-2.858666-7.210667h-15.488L110.208 128H88.704zm32.128-27.349333-4.522667 11.306666H125.312l-4.48-11.306666zM82.944 97.408h-5.9306667v9.685333l5.9733334-.085333c3.712 0 5.9733333-1.834667 5.9733333-4.778667 0-3.1999997-2.3466667-4.821333-6.016-4.821333zm62.122667-9.728H156.16v39.978667h-11.093333V87.68zm15.189333 0h10.410667l14.378666 21.333333V87.68h10.965334v39.978667h-9.685334L171.264 105.728v21.930667h-11.008V87.68zm37.589333 34.048 6.144-7.381333c3.598567 3.008549 8.110837 4.708171 12.8 4.821333 3.029334 0 4.608-1.066667 4.608-2.773333 0-1.288983-.694958-2.091494-3.262647-2.936679l-1.218528-.366377c-.223343-.062013-.457098-.124628-.701696-.188041l-1.601129-.39157h0l-.875419-.204481h0l-1.703469-.421769h0l-1.63289-.448009c-6.378535-1.859188-10.849555-4.612178-10.849555-11.427074 0-7.4240003 5.888-12.8000003 15.488-12.8000003 5.934194-.2223552 11.754879 1.6674775 16.426667 5.3333333l-5.333334 7.594667c-3.22753-2.4387661-7.134977-3.8108467-11.178666-3.9253337-2.688 0-4.010667 1.0666667-4.010667 2.56 0 1.3518597.741289 2.1477527 3.3675 2.9680297l1.244257.354733c.227722.059935.465894.120417.714933.181658l1.627977.378246c9.173333 2.005333 14.848 4.992 14.848 12.458667 0 7.877689-6.020314 12.486068-15.170394 12.78454l-.957606.01546c-6.376815.271512-12.641451-1.64466-17.764294-5.409212l-1.00904-.777455z" fill="#fff"/></svg>