<svg width="256px" height="248px" viewBox="0 0 256 248" xmlns="http://www.w3.org/2000/svg" preserveAspectRatio="xMidYMid"><path d="M113.668304 162.397095l-13.527393 3.764144c1.176295 3.411255 2.117331 9.527989 2.117331 17.762054v40.464548h15.174206v-42.817138c2.823108-3.411255 5.881475-5.058068 9.175101-5.058068 1.646813 0 2.940738.352888 4.352292 1.176295l4.117032-13.997911c-2.35259-1.058665-3.411255-1.293924-5.646216-1.293924-1.646813 0-3.646514.352888-4.940439.941036-2.823108 1.411554-6.351993 4.58755-8.586953 7.645917 0-3.411255-.823407-6.116734-2.234961-8.586953zm-52.2274983-19.997016h-1.646813v81.870133h15.7623531v-36.229886h19.8793856v-13.527393H75.5563458v-18.82072H100.37617l.941036-7.1754c-14.9389461-1.058665-28.4663387-3.411255-39.8764003-6.116734zM24.622772 235.209755l7.293029 8.469325c7.0577701-2.823108 15.8799826-9.175102 18.2325726-19.291239.8234066-3.293626 1.0586656-5.410957 1.0586656-16.115241v-65.754891H35.3270566v67.519333c0 8.822213-.3528886 12.115839-1.5291836 15.174206-1.5291835 3.411255-5.175698 7.410658-9.175101 9.998507zm143.155102-41.523213c0 14.350799-2.823108 20.467533-9.29273 20.467533-2.940738 0-6.234364-1.646813-7.645918-4.940439-1.176295-3.058367-1.882072-8.234065-1.882072-15.291835 0-5.999105.588148-10.233767 1.529184-13.527393 1.176295-3.764144 4.117032-6.116734 7.763547-6.116734 2.705478 0 5.058068 1.176295 6.469622 3.175997 2.117331 2.823108 3.058367 8.116435 3.058367 16.232871zm9.292731 23.5259c4.940439-5.881475 7.1754-13.056875 7.1754-23.408271 0-9.763248-1.999702-16.46813-6.587253-22.114346-4.940439-6.116734-11.292432-9.057471-19.526497-9.057471-15.527094 0-25.87849 12.586356-25.87849 31.642335 0 19.055979 10.233767 31.289447 25.87849 31.289447 8.822213.11763 14.586058-3.175996 18.93835-8.351694zm43.052397-33.877296c0 5.528586-3.293626 8.586953-9.175101 8.586953-5.293327 0-8.822212-2.470219-8.822212-8.586953 0-5.646216 3.293626-8.939842 8.939842-8.939842 5.646216 0 9.057471 3.293626 9.057471 8.939842zm26.701897-12.939245-6.234364-9.998508c-3.528885 3.293626-7.763547 5.175698-11.880579 5.175698-1.882072 0-2.940738-.235259-7.05777-1.293924-4.117033-1.176295-7.05777-1.529184-10.351396-1.529184-14.703688 0-24.231677 7.998806-24.231677 20.467533 0 8.939842 3.999403 14.586058 12.351097 16.821019-3.411255.823406-7.05777 2.587849-8.704583 4.58755-1.176295 1.411554-1.764442 3.293626-1.764442 5.528587 0 1.882072.470518 3.528885 1.176295 4.940439.823406 1.293924 1.882072 2.35259 3.293626 2.940737 2.705478 1.058666 7.05777 1.764443 13.762651 1.882072 3.528885 0 5.646216.11763 6.351993.11763 4.117033.235259 6.234364.941036 7.881177 1.764442 1.529183.941036 2.705478 3.058367 2.705478 5.410957 0 2.35259-1.411554 4.70518-3.646514 6.116734-1.999702 1.411554-5.293328 1.999702-9.52799 1.999702-6.94014 0-10.821914-2.587849-10.821914-7.410659 0-2.117331.235259-2.587849.705777-3.881773h-13.880281c-.588147 1.176295-1.293924 2.823108-1.293924 6.116734 0 4.117032 1.529183 7.645918 4.70518 10.704285 5.175698 5.058068 13.645022 6.469622 21.761457 6.469622 8.939842 0 17.644425-2.117331 22.702494-7.763547 3.175996-3.528885 4.58755-7.410659 4.58755-12.468727 0-5.410957-1.529183-9.52799-4.940439-12.939245-3.999403-3.881774-8.586953-5.293328-17.409166-5.410957l-8.116435-.11763c-1.529184 0-2.47022-.588147-2.47022-1.411554 0-1.646813 2.117331-3.058367 5.999105-4.940439 1.176295.11763 1.529183.11763 2.23496.11763 12.233468 0 21.17331-7.528288 21.17331-17.997314 0-3.999403-1.176295-7.05777-3.411255-9.880878 1.882072.235259 2.470219.352889 3.881773.352889 3.999403 0 7.1754-1.293925 10.469026-4.469921zM57.4414027 71.2342314C38.6206826 75.8217819 25.799067 84.8792535 25.799067 95.2306496c0 6.4696224 4.940439 12.3510974 13.0568746 16.9386484-2.4702195-3.881774-3.764144-8.116436-3.764144-12.3510979.1176295-10.7042846 8.469324-20.7027921 22.3496051-28.5839687zM256 111.816409c0-6.822511-4.234662-13.0568744-11.292432-18.2325724.588147 2.117331 1.058665 4.234662 1.058665 6.351993 0 19.4088674-27.172414 36.1122564-65.75489 43.0523974 4.352291.470518 8.822212.705777 13.527392.705777C228.004179 143.576374 256 129.343205 256 111.816409zm-22.231976-10.586655c0-7.1753994-6.116734-13.7626515-16.585759-19.1736085 2.470219 2.9407375 3.764144 6.116734 3.764144 9.41036 0 17.2915365-36.700404 31.2894475-82.105392 31.2894475-45.2873576 0-82.1053913-13.997911-82.1053913-31.2894475 0-2.2349605.5881475-4.3522915 1.7644425-6.351993-7.293029 4.8228095-11.4100616 10.3513961-11.4100616 16.2328715 0 18.70309 41.7584728 33.877296 93.2801944 33.877296 51.521721 0 93.397823-15.409465 93.397823-33.994926zm-40.699807-.941036c-19.055979 12.233468-77.63547 16.938648-102.8081836 1.176295-19.7617561-12.3510975-12.9392451-31.9952241-69.5190349-75.0476214-7.4106586-5.646216 1.411554-11.6453206 6.9401405-7.763547 5.5285865 3.8817735.470518 4.8228095 11.6453206 15.9976121 22.5848641 22.5848641 22.3496051 2.2349605 25.8784901 9.9985075C72.7332378 60.7652058 89.2013679 76.998077 89.2013679 76.998077c16.5857601 10.821914 29.7602641 13.174504 54.2272001-3.4112556 15.527094-10.4690255 9.175101 16.7033891 47.16943-2.9407375 13.880281-7.1753995 13.292133-2.35259 27.407673-21.9967166 5.881475-8.1164356 17.056278 6.2343635 4.352292 8.234065-5.058069.8234065-13.645022 6.3519931-17.291537 15.0565761-5.293327 13.0568746-3.058367 22.7024937-11.998209 28.3487096zM87.4369254 67.1171989c-4.70518-2.117331-9.6456191-10.1161371-11.5276911-13.2921336 5.2933276-5.175698 3.1759965-13.7626516.1176295-18.4678316-2.9407375-4.7051801-6.587252-3.4112555-10.4690255-7.7635471-3.9994031-4.3522915 1.5291835-15.6447236 6.587252-6.9401405 18.9383496 32.5833717 31.4070767 19.0559791 46.8165417 17.0562776 14.821317-1.882072 27.995821 6.2343635 31.995224-16.7033891.705777-3.764144 4.352291-4.5875505 4.70518 1.5291835.352888 6.2343635 2.705478 21.2909396 10.821914 23.1730116 8.116435 1.9997016 14.703688-1.882072 16.58576-3.999403 1.882072-2.117331 2.940737-1.882072 3.764144 3.528885.823406 5.2933276 2.940737 12.7039861 14.350799 4.4699211 23.40827-16.7033891 16.703389-23.1730117 25.87849-27.5253032 5.175698-2.4702195 13.409763 5.5285865 1.529183 11.5276911-16.938648 8.5869535-18.70309 19.1736086-29.407375 25.8784901-17.997313 11.2924321-12.468727.470518-41.405584-3.6465145-11.174803-1.5291835-14.703688 10.8219141-23.408271 7.2930291-19.879385-8.2340651-33.877296-6.5872521-46.9341706 3.8817735zM150.133449 6.77326499c.705777 4.94043901 1.529184 4.82280951 3.293626 5.17569801 1.764443.470518 3.999403-2.35258999 3.999403-4.94043901.11763-2.70547852-1.176295-4.35229153-3.764144-4.23466203-2.705478.11762951-3.646514 1.41155401-3.528885 3.99940303zm87.045831 8.82221251c2.117331 1.9997016 7.763547.7057771 9.057471-.8234065 3.411256-3.764144 3.528885-5.9991045 1.764443-8.58695351-1.764443-2.47021952-5.410957-2.11733102-9.057472.5881475-3.646514 2.70547852-2.940737 7.76354701-1.764442 8.82221251zm-1.529184 24.9374542c-1.764442 2.35259-1.882072 4.1170325-.588147 5.410957 1.411554 1.4115541 4.234662 2.5878491 6.234363 1.0586656 1.999702-1.6468131 1.999702-3.9994031.352889-5.9991046-1.764443-2.117331-4.117033-2.117331-5.999105-.470518zM57.0885142 11.1255565c2.7054785.8234065 3.999403 3.4112555 6.2343635.470518 1.176295-1.411554 1.2939245-3.4112555-.235259-5.52858651-.941036-1.29392451-5.410957-2.23496052-7.293029-.35288851-1.882072 1.88207202-.1176295 4.94043902 1.2939245 5.41095702zM1.92027833 9.47874351C6.86071737 12.5371105 10.0367139 17.1246611 13.8008579 13.0076285c1.2939245-1.411554 2.823108-3.88177349.1176295-8.82221253C11.9187859.53890145 5.44916336-.87265256 3.21420284.53890145.861612826 1.83282596-1.96149519 7.12615349 1.92027833 9.47874351zM47.4428951 32.8870142c1.5291835 1.646813 4.2346621 1.5291835 5.8814751.5881475 1.5291835-.941036 1.2939245-3.4112556-.235259-5.5285866-.941036-1.2939245-3.7641441-1.9997015-5.6462161 0-1.882072 1.9997015-1.0586655 3.7641441 0 4.9404391z" fill="#41bf47"/></svg>