<svg width="256px" height="256px" viewBox="0 0 256 256" xmlns="http://www.w3.org/2000/svg" preserveAspectRatio="xMidYMid"><defs><linearGradient x1="98.0308675%" y1="0.160599572%" x2="58.8877062%" y2="40.7655246%" id="a"><stop stop-color="#0052cc" offset=".18"/><stop stop-color="#2684ff" offset="1"/></linearGradient><linearGradient x1="100.665247%" y1="0.45503212%" x2="55.4018095%" y2="44.7269807%" id="b"><stop stop-color="#0052cc" offset=".18"/><stop stop-color="#2684ff" offset="1"/></linearGradient></defs><path d="M244.657778 0H121.706667c0 14.7201046 5.847538 28.837312 16.256224 39.2459977 10.408686 10.4086858 24.525893 16.2562245 39.245998 16.2562245h22.648889v21.8666667c.019613 30.6252661 24.8414 55.4470541 55.466666 55.4666671V10.6666667c0-5.89103736-4.775629-10.6666667-10.666666-10.6666667z" fill="#2684ff"/><path d="M183.822222 61.2622222H60.8711111c.0196127 30.6252666 24.8414001 55.4470538 55.4666669 55.4666668h22.648889v21.937778c.039238 30.625256 24.87694 55.431136 55.502222 55.431111V71.9288889c0-5.8910373-4.775629-10.6666667-10.666667-10.6666667z" fill="url(#a)"/><path d="M122.951111 122.488889H0c3.7539136200000004e-15 30.653031 24.8491913 55.502222 55.5022222 55.502222h22.72v21.866667c.0195448 30.597542 24.7980628 55.407869 55.3955558 55.466666V133.155556c0-5.891038-4.77563-10.666667-10.666667-10.666667z" fill="url(#b)"/></svg>