<svg width="512" height="177" xmlns="http://www.w3.org/2000/svg" preserveAspectRatio="xMidYMid"><path d="M74.997 9.405h34.453v114.92a52.158 52.158 0 01-7.082 27.637 48.139 48.139 0 01-19.794 18.112 64.197 64.197 0 01-29.372 6.392 66.499 66.499 0 01-27-5.312 43.022 43.022 0 01-19.12-16.093C2.36 147.873 0 138.808 0 127.866h34.683c.107 6.533 2 11.632 5.683 15.244a19.847 19.847 0 0014.607 5.435c13.243 0 19.917-8.073 20.024-24.22V9.405zm110.901 167.22c-12.5 0-23.293-2.668-32.381-8.003a54.07 54.07 0 01-21.051-22.378 71.74 71.74 0 01-7.4-33.356 72.146 72.146 0 017.4-33.515 54.176 54.176 0 0121.05-22.378 62.887 62.887 0 0132.382-8.003 62.993 62.993 0 0132.4 8.003 54.123 54.123 0 0121.033 22.378 72.164 72.164 0 017.418 33.515 71.739 71.739 0 01-7.418 33.356 54.017 54.017 0 01-21.033 22.378c-9.1 5.347-19.9 8.015-32.4 8.003zm39.198-167.22v18.59h-78.378V9.405h78.378zm-38.95 140.663a21.246 21.246 0 0018.985-10.126l.296-.497c4.367-7.082 6.55-16.01 6.55-26.787 0-10.417-2.057-19.124-6.17-26.122l-.434-.718a21.246 21.246 0 00-19.28-10.623 21.511 21.511 0 00-19.182 10.137l-.293.486c-4.403 7.082-6.604 16.029-6.604 26.84 0 10.451 2.057 19.143 6.171 26.076l.433.711a21.529 21.529 0 0018.86 10.639l.668-.016zm143.69-99.464v25.76h-23.263v59.947c0 4.722 1.074 7.909 3.222 9.561a13.279 13.279 0 007.814 2.51l.56-.014a26.061 26.061 0 004.816-.442l3.7-.673 5.312 25.512-1.322.385c-1.576.444-3.523.947-5.92 1.492a60.426 60.426 0 01-10.077 1.287l-1.271.04c-12.452.556-22.444-2.136-29.974-8.072-7.36-5.803-11.072-14.58-11.138-26.334l.002-65.2h-16.908v-25.76h16.908v-29.62h34.276v29.62h23.264zm52.583 125.95c-11.803 0-21.593-3.086-29.372-9.26-7.778-6.172-11.667-15.373-11.667-27.6 0-9.22 2.172-16.46 6.515-21.724a37.516 37.516 0 0117.103-11.562 96.986 96.986 0 0122.733-4.78 174.514 174.514 0 0023.016-3.381c4.627-1.18 6.934-3.754 6.922-7.72v-.495c.26-4.46-1.495-8.8-4.78-11.827-3.21-2.774-7.731-4.166-13.562-4.178a24.38 24.38 0 00-14.73 4.019 18.944 18.944 0 00-7.241 10.215l-31.709-2.567a42.279 42.279 0 0117.58-26.805c9.372-6.586 21.459-9.885 36.26-9.897a74.784 74.784 0 0125.742 4.356 42.827 42.827 0 0119.369 13.561c4.91 6.15 7.365 14.129 7.365 23.937v83.371h-32.506v-17.138h-.956a35.728 35.728 0 01-13.49 14.04c-5.985 3.623-13.515 5.435-22.592 5.435zm9.809-23.671a26.557 26.557 0 0018.519-6.55 21.14 21.14 0 007.242-15.667l-.001-13.741a20.148 20.148 0 01-6.232 2.408c-2.833.69-5.825 1.292-9.03 1.77l-3.083.474c-1.976.311-3.798.606-5.485.854a33.975 33.975 0 00-14.518 5.081 12.5 12.5 0 00-5.506 11.013 12.287 12.287 0 005.099 10.622 22.007 22.007 0 0012.253 3.746l.742-.01zm101.79-118.212l-.608-.002a18.43 18.43 0 01-13.049-5.116 16.182 16.182 0 01-5.47-12.27 16.111 16.111 0 015.47-12.233c7.424-6.733 18.744-6.733 26.168 0a16.111 16.111 0 015.47 12.233 16.182 16.182 0 01-5.056 11.89l-.414.38a18.501 18.501 0 01-12.51 5.118zm-17.764 139.546V50.604h34.276v123.613h-34.276z"/></svg>