<svg width="512px" height="177px" viewBox="0 0 512 177" xmlns="http://www.w3.org/2000/svg" preserveAspectRatio="xMidYMid"><title>Jotai</title><path d="M74.9966962 9.40490258h34.4531568V124.325477c.253745 9.691429-2.19862 19.261784-7.081841 27.636885-4.7481941 7.791067-11.6127536 14.072323-19.7937459 18.111808-9.1468724 4.424898-19.2134513 6.615395-29.3719356 6.391362-9.2717199.13133-18.4684259-1.677858-26.9995188-5.311381-7.8257246-3.354248-14.480217-8.955112-19.1209707-16.093484C2.36061367 147.872599 0 138.807842 0 127.866398h34.6833163c.1062276 6.532998 2.0006201 11.631924 5.6831774 15.243663 3.9239963 3.727555 9.2000888 5.690901 14.6062971 5.435313 13.2430427 0 19.9176778-8.073299 20.0239054-24.219897V9.40490258zM185.898326 176.624951c-12.499449 0-23.293355-2.667571-32.381718-8.002558-9.033219-5.26709-16.345382-13.040491-21.050772-22.378618-5.117137-10.36023-7.655977-21.803233-7.400524-33.355471-.265101-11.604266 2.273574-23.1011839 7.400524-33.5148123 4.710418-9.3346052 12.021374-17.1067239 21.050772-22.3786176 9.876796-5.5336594 21.064259-8.2984124 32.381718-8.0024803 11.322857-.2938632 22.51548 2.4706536 32.399423 8.0024803 9.024761 5.2721702 16.329928 13.0446712 21.033068 22.3786176 5.132403 10.4123314 7.677132 21.9091593 7.418228 33.5148123.249957 11.553696-2.294973 22.996774-7.418228 33.355471-4.698104 9.33747-12.004479 17.111256-21.033068 22.378618-9.100166 5.34679-19.899973 8.014283-32.399423 8.002558zm39.19799-167.22004842V27.9947352h-78.378275V9.40490258h78.378275zM186.146191 150.06797c7.710374.316313 14.9694-3.571822 18.985248-10.126208l.295064-.496554c4.367135-7.081841 6.550703-16.010862 6.550703-26.787064 0-10.416994-2.056967-19.1244457-6.1709-26.1223537l-.432917-.7178233c-3.948243-6.853905-11.377179-10.9469827-19.280312-10.6227615-7.768226-.3295975-15.093559 3.557305-19.181745 10.1365691l-.293318.4861924c-4.402544 7.081841-6.603817 16.028567-6.603817 26.840177 0 10.451224 2.056967 19.143272 6.1709 26.076146l.432917.710918c3.923147 6.691583 11.132824 10.742219 18.859246 10.638364l.668931-.015602zm143.690554-99.4644574v25.7601967h-23.263848v59.9477837c0 4.721228 1.074079 7.908056 3.222238 9.560486 2.277967 1.643528 5.014274 2.519494 7.813673 2.510073l.560604-.013724c1.615466.002035 3.227622-.146141 4.815652-.442615l3.700261-.672775 5.311381 25.512332-1.321221.384247c-1.576572.444831-3.52303.947684-5.919961 1.492441-3.317734.711184-6.688735 1.141495-10.077219 1.286746l-1.271431.041099c-12.452237.554744-22.443535-2.136355-29.973892-8.073299-7.359214-5.802013-11.071721-14.580008-11.137521-26.333986l.001326-65.1988087h-16.907896V50.6035126h16.907896v-29.6198h34.27611v29.6198h23.263848zm52.582669 125.9505424c-11.803068 0-21.593713-3.086503-29.371935-9.259507-7.778222-6.173005-11.667333-15.373497-11.667333-27.601476 0-9.218196 2.171764-16.459378 6.515293-21.723547 4.507576-5.377225 10.432803-9.38258 17.102646-11.561105 7.358689-2.49842 14.990991-4.103344 22.73271-4.780243 7.738667-.614024 15.42774-1.743726 23.015983-3.381579 4.626803-1.1803069 6.934303-3.7533758 6.9225-7.7192067v-.4957289c.258931-4.4593043-1.49543-8.7997219-4.780243-11.8266745-3.210434-2.773721-7.73101-4.1664831-13.561725-4.1782862-5.213744-.2721581-10.377148 1.1366071-14.73023 4.0189448-3.501874 2.4859674-6.055154 6.0880267-7.241182 10.2155556l-31.708943-2.5671673c2.114453-10.8962749 8.429073-20.5240043 17.58067-26.8047682 9.371636-6.5861121 21.457978-9.8850697 36.259026-9.8968728 8.769829-.0688906 17.483421 1.4053484 25.742492 4.3553322 7.600974 2.6134677 14.313085 7.3131728 19.368835 13.5617255 4.910077 6.1493986 7.365115 14.1282728 7.365115 23.9366226v83.3709729h-32.50565v-17.138055h-.956049c-3.110418 5.838673-7.780841 10.699099-13.490907 14.03975-5.984156 3.623542-13.514513 5.435313-22.591073 5.435313zm9.80835-23.671054c6.783364.263607 13.410143-2.080473 18.519014-6.550703 4.5402-3.959988 7.167583-9.661572 7.242558-15.666059l-.001375-13.741285c-1.928865 1.143837-4.035157 1.957632-6.23202 2.407826-2.832737.690479-5.824815 1.292436-9.029348 1.77046l-3.083223.47409c-1.976359.310814-3.797966.605891-5.485804.853755-5.164066.561645-10.130586 2.299927-14.517774 5.081221-3.641335 2.449605-5.731248 6.629432-5.506132 11.012263-.219804 4.178102 1.701543 8.180909 5.098926 10.622761 3.626627 2.439012 7.89278 3.740028 12.25292 3.745583l.742258-.009912zM494.018216 34.6706476l-.608649-.0012772c-4.853521.0793161-9.542374-1.7593252-13.048292-5.1166302-3.515207-3.10388-5.511067-7.5800333-5.470722-12.2692895-.039445-4.6788959 1.957166-9.14380883 5.470722-12.23388034 7.423235-6.73276048 18.744168-6.73276048 26.167403 0 3.513557 3.09007151 5.510167 7.55498444 5.470722 12.23388034.038731 4.5016859-1.799104 8.8069762-5.056223 11.8903112l-.414499.3789783c-3.380673 3.2277757-7.851746 5.051107-12.510462 5.1179074h0zM476.253807 174.217047V50.6035126h34.276111V174.217047h-34.276111z"/></svg>