<svg width="256px" height="358px" viewBox="0 0 256 358" xmlns="http://www.w3.org/2000/svg" preserveAspectRatio="xMidYMid"><g transform="translate(7.968872 106.583658)"><path d="M.783937743 52.4461223V199.38814c0 28.507632 53.166329057 51.620348 118.750142257 51.620348 65.584809 0 118.750132-23.112716 118.750132-51.620348V52.4461223c0 0-4.939714 50.1769957-118.750132 50.1769957C5.72164981 102.624125.783937743 52.4461223.783937743 52.4461223h0z" fill="#9eaab2"/><ellipse fill="#8e979a" cx="119.53407" cy="52.4461323" rx="118.750132" ry="51.6163735"/><path d="M.783937743 52.4461223V199.38814c0 28.507632 53.166329057 51.620348 118.750142257 51.620348 65.584809 0 118.750132-23.112716 118.750132-51.620348V52.4461223c0 0-4.939714 50.1769957-118.750132 50.1769957C5.72164981 102.624125.783937743 52.4461223.783937743 52.4461223h0z" fill="#9eaab2"/><g style="fill:#8e979a"><path d="M222.402251 76.9275019c3.350891-2.5649805 6.619134-5.1319632 9.088488-8.6053951 1.417463-1.9981946 2.584903-4.1248772 3.681629-6.2914142 1.214247-2.1107549 2.256167-4.2942257 3.110838-6.5444458V199.389136c0 13.218356-11.43534 25.276265-30.234895 34.407586V85.5956321c5.070195-2.3886793 9.908286-5.2674142 14.35393-8.6681401l1e-5 9.9e-6z"/><path d="M16.6658988 76.9275019c-3.3529027-2.5649805-6.6191439-5.1319632-9.08849802-8.6053951-1.42045136-1.9981946-2.58689494-4.1248772-3.68262475-6.2914142-1.21425681-2.1107549-2.25519066-4.2942257-3.110848248-6.5444458V199.389136c0 13.218356 11.435330718 25.276265 30.233898818 34.407586V85.5956321c-5.0682023-2.3886793-9.9072996-5.2674142-14.3519377-8.6681401l9.9e-6 9.9e-6z"/><path d="M119.53408 247.150568c-63.9661423 0-116.10248467-21.375482-118.574827082-48.135979-.061758755.659414-.102599222 1.322833-.102599222 1.986232 0 27.684856 53.133447504 50.126214 118.677426304 50.126214 65.543969 0 118.677426-22.441358 118.677426-50.126214 0-.663399-.037842-1.326818-.102599-1.986232-2.473338 26.760457-54.608695 48.135979-118.574827 48.135979h0z"/></g><g style="fill:#dbe1e3"><path d="M119.53408 100.581105c-63.9661423 0-116.10248467-21.3735097-118.574827082-48.1339666-.061758755.6594141-.102599222 1.3208305-.102599222 1.9882235 0 27.6838699 53.133447504 50.1242221 118.677426304 50.1242221 65.543969 0 118.677426-22.4403622 118.677426-50.1242221 0-.667393-.037842-1.3288094-.102599-1.9882235-2.473338 26.7604569-54.608695 48.1339666-118.574827 48.1339666h0z"/><path d="M119.53408 230.705795c-63.9661423 0-116.10248467-21.373509-118.574827082-48.133966-.061758755.661416-.102599222 1.32083-.102599222 1.988233 0 27.68385 53.133447504 50.124183 118.677426304 50.124183 65.543969 0 118.677426-22.440323 118.677426-50.124183 0-.667403-.037842-1.326817-.102599-1.988233-2.473338 26.760457-54.608695 48.133966-118.574827 48.133966h0z"/></g></g><g transform="translate(18.92607 99.610895)"><path d="M216.990381 56.7323791c0 4.5462413-1.960332 8.6442235-5.577214 12.7292663-7.157042 8.0864225-54.526007 26.834189-102.101167 26.8740433-48.0632629.0418266-96.338687-18.7059399-103.57243019-26.8740433C2.11573541 65.3736243.163351907 61.2845871.163351907 56.7323791c0-22.6306091 48.539392993-40.9759277 108.413520093-40.9759277 59.874136 9.861e-4 108.413519 18.3453186 108.413519 40.9759277h-1e-5z" fill="#1a2b2f"/><path d="M5.73858366 7.80152529C22.8457588 19.7359066 66.3607782 30.875383 108.575866 30.875383c42.215107 0 88.117819-11.5369239 102.836325-23.07385771V.640488093c0 0-32.25602 20.639377407-102.836325 20.639377407C37.9935875 21.2798655 5.73858366.640488093 5.73858366.640488093V7.80152529h0z" fill="#1b3134"/><path d="M211.413167 65.3068949c0 0-20.90734 29.4379979-102.836305 29.4379979-81.9309576 0-102.83730216-29.4379979-102.83730216-29.4379979V1.38958195c0 0 29.60336186 20.15727065 100.41675716 20.15727065 70.812399 0 105.257846-20.15727065 105.257846-20.15727065V65.3068949h-.001006 1e-5z" fill="#213f48"/><path d="M108.537037 91.5981846C56.9047259 91.5902157 14.2244458 76.6525659 5.73958973 59.418875v10.0427704c0 0 20.89537747 28.2277355 102.75660727 28.2476776h0 .04084.039864 0c81.864208-.0199421 102.836306-28.2476776 102.836306-28.2476776V59.418875c-8.484896 17.2336909-51.243849 32.1713407-102.87616 32.1793096h-1e-5z" fill="#1b3134"/></g><path d="M127.502952 118.789987c-68.7215668 0-124.73576134-21.3755023-127.393380016-48.1359792-.0657431902.6594241-.108575875051 1.3228327-.108575875051 1.9882334C9.96108949e-4 100.327097 57.0860078 122.76744 127.502952 122.76744c70.416933 0 127.501915-22.440343 127.501915-50.1251988 0-.6654007-.042813-1.3288093-.109542-1.9882334-2.656612 26.7604769-58.670807 48.1359792-127.392373 48.1359792h0z" fill="#8e979a"/><path d="M127.502952 0C57.0860078 0 9.96108949e-4 22.4423346 9.96108949e-4 50.1261946v21.8805391c0 27.6818577 57.085011691051 50.1241923 127.501955891051 50.1241923 70.416933 0 127.501915-22.4423346 127.501915-50.1241923V50.1261946c0-27.68386-57.084982-50.126194599999984-127.501915-50.126194599999984V0z" fill="#9eaab2"/><path d="M127.240965 16.9089494c18.843413 0 36.202584 2.5888872 49.373136 6.8522335l18.870288-6.8522335 4.569162 19.4420645h-56.994366l-.726163-.1474242 20.262848-7.3542723c-9.320582-3.1148327-21.75502-5.019393-35.302111-5.019393-10.857578 0-21.030839 1.2331928-29.4419825 3.3419455l-18.7208816-3.8011518c13.1317043-4.0900233 30.0765141-6.4617587 48.1100701-6.4617587v-1e-5zM53.5468327 34.8100233c.6325292-2.8319377 7.5734163-5.0901167 15.5143969-5.0901167 7.9389883 0 14.0770116 2.2591751 13.7044669 5.0901167-.3785214 2.8827393-7.341323 5.2574631-15.543284 5.2574631-8.200965 9.961e-4-14.3200623-2.3747238-13.6755798-5.2574631h0zm74.0108953 35.9167104c-22.214246 0-41.8913822-3.5322123-55.4533955-9.0725703l-24.9923736 9.0725703 5.1827549-23.6825002H111.93076l.270942.0587804-23.0250682 8.3563579c9.5237976 3.7423814 23.1047572 6.1111185 38.3093542 6.1111185 12.4952 0 23.814983-1.5848094 32.673389-4.2035798l21.815773 4.671751c-13.248239 5.2495041-32.374517 8.6880722-54.417422 8.6880722h0zm61.919138-16.3023191c-8.565541 0-15.884959-2.5918755-16.341167-5.7306148-.446257-3.0839533 5.909914-5.5403579 14.185587-5.5403579 8.279658 0 15.576166 2.4564046 16.306314 5.5403579.744073 3.1387393-5.586199 5.7306148-14.150734 5.7306148h0z" fill="#dbe1e3"/><g style="fill:#8e979a"><path d="M216.017193 108.079823V83.7608193c0 0 34.511191-10.6075642 38.987674-33.6346148v21.8805392c0 14.1656454-14.952561 26.9576865-38.987674 36.0730793h0z"/><path d="M38.9867082 108.079823V83.4948582C11.8357665 75.0090061 1.22621012 59.6250895 0 50.1262045v21.8805392c9.96108949e-4 14.1656454 14.9525914 26.9576865 38.9867082 36.0730793h0z"/></g><path d="M127.502952 96.2739399c-68.7215668 0-124.73576134-21.3755019-127.393380016-48.1359788-.0657431902.6604202-.108575875051 1.3218366-.108575875051 1.9892296 0 27.6828837 57.085011691051 50.1242123 127.501955891051 50.1242123 70.416933 0 127.501915-22.4413286 127.501915-50.1242123 0-.667393-.042813-1.3288094-.109542-1.9892296-2.656612 26.7604769-58.670807 48.1359788-127.392373 48.1359788h0z" fill="#dbe1e3"/><g transform="translate(58.770428 135.470817)"><g transform="translate(102.599222)"><path d="M34.0231072 19.7289339c0 9.7489182-7.13214 17.6540488-16.9129338 17.6540488-9.77978772 0-16.911937758-7.9051206-16.911937758-17.6540488 0-9.75091055 7.132140078-17.65304285 16.911937758-17.65304285 9.7807938 0 16.9129338 7.9021323 16.9129338 17.65304285h0z" fill="#1b3134"/><circle fill="#51c3f1" cx="17.1111595" cy="16.2166537" r="15.5363113"/><circle fill="#fff" cx="17.1101634" cy="13.8180233" r="5.06820233"/></g><path d="M34.2641556 19.7289339c0 9.7489182-7.13214 17.6540488-16.9129338 17.6540488-9.77880157 0-16.912933862-7.9051206-16.912933862-17.6540488 0-9.75091055 7.133136182-17.65304285 16.912933862-17.65304285 9.7807938 0 16.9129338 7.9021323 16.9129338 17.65304285h0z" fill="#1b3134"/><circle fill="#51c3f1" cx="17.5066148" cy="16.2166537" r="15.5353152"/><circle fill="#fff" cx="17.3522179" cy="13.8180233" r="5.06820233"/></g><path d="M128.239076 326.028451c-5.298313 0-10.6265-.277904-19.007761-.98814-3.927647-.336665-7.125167-3.847979-7.125167-7.836389v-79.661811c0-3.713494 2.813021-6.515539 6.544446-6.515539.206194 0 .419352.009942.630537.027872 8.349385.709239 13.665608.987144 18.957955.987144 5.291331 0 10.606558-.277905 18.959938-.988141.209193-.017939.421354-.026875.627548-.026875 3.729432 0 6.544446 2.801039 6.544446 6.515539v79.661811c0 3.98842-3.198516 7.499724-7.126173 7.836389-8.383253.710206-13.710454.98814-19.005759.98814h-1e-5zm-19.588482-91.023439c-1.53599 0-2.565967 1.018023-2.565967 2.537089v79.661811c0 1.90458 1.627632 3.713494 3.484389 3.871896 8.258729.700234 13.493282.97516 18.67007.97516 5.17377 0 10.408333-.27392 18.669064-.97516 1.855761-.157406 3.484389-1.967326 3.484389-3.871896v-79.661811c0-1.610708-1.198309-2.673546-2.852856-2.523134-8.477883.719171-13.887751 1.000094-19.300597 1.000094-5.413862 0-10.824726-.280913-19.299621-1.000094-.097628-.009971-.196243-.013955-.288881-.013955h1e-5z" fill="#dbe1e3"/><g transform="translate(162.365759 231.097276)"><path d="M62.9979144.49106179C53.5538154 6.61214132 35.9744747 18.0046493.902474708 25.9077678 5.93980763 52.6413497 5.93980763 52.6413497 12.5629161 87.6804781c12.133623-3.6108949 37.3829827-11.1305313 57.8390562-27.9946459-2.3338733-19.5894686-4.2055521-34.824965-7.4040579-59.194760449" fill="#f5dd3e"/><g style="fill:#3b3735"><path d="M40.1471751 70.8960623c-6.91201 3.813105-11.6365547-1.7272629-11.6365547-1.7272629l4.0810584-3.8778621c0 0 2.2761089 2.935553 6.0364202.4323312 1.7611106-1.1714142.612617-7.0385158.612617-7.0385158l-3.3807938-16.1319944 5.3202079-2.2432174c0 0 3.2254108 18.6282235 3.5621055 20.4919433.6295309 3.4893597 1.1484937 6.9239433-4.5950605 10.0945681v1e-5z"/><path d="M54.4762123 62.7458988c-3.8927838.5877043-6.0931984-2.3149671-6.0931984-2.3149671l3.5491262-4.3440212c0 0 1.3377942 1.4841924 3.1955274 1.2062879 1.5758444-.2410583 3.4256187-1.289971 4.0711073-3.2702456 1.0997043-3.3907449.0806748-4.5521979-3.372815-4.1677098-3.4495352.3854842-7.7885758.8915374-8.5566057-5.9129028-.6813286-6.0354141 4.5950605-10.6523891 8.1671072-11.2799477 3.5441656-.6205659 5.5214319 1.8816598 5.5214319 1.8816598l-3.5341945 4.2902512c0 0-2.3448106-1.0658465-3.7543147.1962235-1.2820122 1.1505058-1.7750761 2.6516619-1.2869628 3.7921967.4273207.9990874 1.718268 1.4393874 3.7911906 1.2859966 2.0738989-.1494363 5.4885404-1.3557242 7.5903502 2.8737544 2.3637566 4.7504535-.0986148 14.3788327-9.2877298 15.7634341l-1.99e-5-1e-5z"/></g></g></svg>