<svg width="256px" height="180px" viewBox="0 0 256 180" xmlns="http://www.w3.org/2000/svg" preserveAspectRatio="xMidYMid"><title>JSFiddle</title><path d="M148.0993 1.42108547e-14c42.799888 0 77.599035 34.086529099999986 78.393361 76.45188719999999L226.506536 77.933066l-.010905.8655975 1.459463.7594012c16.184026 8.774339 26.938843 25.3328113 27.964441 44.0192203l.061751 1.519666L256 126.514899c0 29.117457-23.396931 52.749364-52.427787 53.294864l-1.36488.008594H54.0530404C24.0942214 179.356849 0 155.101764 0 125.27593c0-17.387396 8.27338955-33.327581 21.8379145-43.5111135l1.2870846-.9377094.2712029-.1907293-.1351981-.6838778c-.1941993-1.1045384-.3405737-2.2208996-.4383983-3.3460993l-.1102339-1.6940552-.0368654-1.7050745c0-21.5190014 17.54733-38.9507333 39.1731849-38.9507333 5.6225074 0 11.0735491 1.1981693 16.063162 3.445589l1.482751.7055546.9158835.4778393.9776694-1.6223653C94.7685769 15.3731092 118.37072 1.19428286 144.717161.0719391472l1.722062-.0546303326L148.0993 1.42108547e-14zM148.0993 11.1304348c-26.176619 0-49.5913923 15.0152324-60.6890134 38.1125723-1.5312168 3.1869026-5.6073238 4.1566634-8.4096634 2.0007725-4.9089204-3.776522-10.8755444-5.8568072-17.151932-5.8568072-15.4950938 0-28.0427502 12.4649952-28.0427502 27.8202986 0 2.8519387.4291866 5.6376756 1.2615068 8.2689453.7810296 2.4691212-.2443025 5.1506688-2.4734486 6.4688018C19.3785627 95.7595364 11.1304348 109.79874 11.1304348 125.27593c0 23.307482 18.5256265 42.365697 41.7591272 43.375254l1.2490768.037673H202.241662c23.526737.144301 42.627903-18.782984 42.627903-42.173958 0-17.244028-10.490299-32.5715784-26.265274-39.0989549-2.004609-.8294683-3.327337-2.7379337-3.430902-4.8702742l.002385-.5864556.149405-2.414953.048214-1.2466552-.012477-1.798077c-.768093-36.2243884-30.577885-65.3690943-67.261616-65.3690943zm16.168101 70.4927538c17.518645 0 31.875594 13.3619518 31.875594 30.0521744 0 16.690222-14.356949 30.052173-31.875594 30.052173-10.548059 0-19.386765-5.283319-31.203165-16.728353l-2.57937-2.54714-3.437217-3.525314c-4.349443-4.63695-6.607283-7.126067-6.773519-7.467351l-1.321155-1.36307-2.384054-2.395586c-1.553067-1.533575-3.035202-2.940815-4.456425-4.225493l-2.087404-1.835568c-7.154795-6.1060645-12.7688586-8.8860376-18.2924929-8.8860376-11.5429946 0-20.7451592 8.5644156-20.7451592 18.9217396 0 10.357323 9.2021646 18.921739 20.7451592 18.921739 6.0029009 0 10.4827189-1.965151 14.5839629-5.612186.524141-.466092 1.036192-.953432 1.570122-1.491051l2.941471-3.132645c2.105609-2.239047 5.627649-2.34722 7.866696-.241611 2.089778 1.965236 2.323327 5.16434.63324 7.402581l-.509514.590968-2.033354 2.191194c-1.048204 1.105517-2.024394 2.066191-3.072321 2.99806-6.013363 5.347389-13.029465 8.425124-21.9803029 8.425124-17.5186452 0-31.875594-13.361951-31.875594-30.052173 0-16.6902226 14.3569488-30.0521744 31.875594-30.0521744 11.6782079 0 21.2611519 6.4761097 35.1096079 20.6203984 5.754864 6.088615 8.715331 9.302988 8.881401 9.643121l2.529215 2.589368c11.124125 11.178852 18.649733 16.121026 26.014578 16.121026 11.542994 0 20.745159-8.564416 20.745159-18.921739 0-10.357324-9.202165-18.9217396-20.745159-18.9217396-6.002901 0-10.482719 1.9651504-14.583963 5.6121847-.52414.4660926-1.036192.9534323-1.570122 1.491051l-1.311726 1.3721299-1.629745 1.760516c-2.10561 2.239047-5.62765 2.347219-7.866697.24161-2.239047-2.10561-2.347219-5.6276497-.24161-7.8666966l2.151239-2.3180461c1.048204-1.1055172 2.024395-2.0661906 3.072321-2.9980599 6.013364-5.3473887 13.029465-8.4251238 21.980303-8.4251238z" fill="#0084ff"/></svg>