<svg width="256px" height="187px" viewBox="0 0 256 187" xmlns="http://www.w3.org/2000/svg" preserveAspectRatio="xMidYMid"><title>JSON-LD</title><path d="M77.8649676 171.873873v14.175164h-6.1031959c-16.340815 0-27.2839109-2.428152-32.8292878-7.284459-5.5453771-4.856306-8.3180655-14.536106-8.3180655-29.0394v-23.526836c0-9.90949-1.7718956-16.767383-5.3156869-20.573677-3.5437911-3.806294-9.9751159-5.709441-19.29397419-5.709441H0V85.8384978h6.00475731c9.38448409 0 15.83221529-1.8867407 19.34319359-5.660222 3.5109783-3.7734814 5.2664675-10.5493414 5.2664675-20.32758V36.2254211c0-14.5032936 2.7726884-24.1666872 8.3180655-28.99018074C44.395094 2.48373923 55.0954996.0725296984 71.0337007 0h6.8312669v14.0767261h-6.6938278c-9.2532326 0-15.2908027 1.4437668-18.1127105 4.3313003-2.8219078 2.8875337-4.2328617 8.9579167-4.2328617 18.2111493v24.4127837c0 10.3032448-1.4929862 17.7845818-4.4789583 22.4440109-2.9859723 4.6594293-8.0883753 7.8094658-15.3072092 9.4501099 7.2844597 1.7718956 12.4032691 4.987558 15.3564285 9.6469868 2.9531593 4.65943 4.429739 12.107953 4.429739 22.345573v24.412783c0 9.253233 1.4109539 15.323616 4.2328617 18.21115 2.7665763 2.830915 8.6239468 4.274126 17.5721117 4.329635l7.2344266.001665zm100.2700644 14.175164v-14.175164h6.890706c9.187607 0 15.175957-1.410954 17.965052-4.232862 2.789095-2.821907 4.183642-8.925103 4.183642-18.309588V124.91864c0-10.23762 1.47658-17.686143 4.429739-22.345573 2.953159-4.6594288 8.07197-7.8750912 15.356429-9.6469868-7.284459-1.6406441-12.40327-4.7906806-15.356429-9.4501099-2.953159-4.6594291-4.429739-12.1407661-4.429739-22.4440109V36.6191757c0-9.3188584-1.394547-15.4056479-4.183642-18.2603686-2.789095-2.8547206-8.777445-4.282081-17.965052-4.282081h-6.890706V0h6.201635c16.340815 0 27.251098 2.41174679 32.730849 7.23524036 5.479751 4.82349354 8.219627 14.48688714 8.219627 28.99018074v23.6252747c0 9.7782386 1.771896 16.5540986 5.315687 20.32758 3.543791 3.7734813 9.975116 5.660222 19.293974 5.660222H256V99.915224h-6.103196c-9.318858 0-15.750183 1.903147-19.293974 5.709441-3.543791 3.806294-5.315687 10.664187-5.315687 20.573677v23.526836c0 14.503294-2.739876 24.183094-8.219627 29.0394-5.479751 4.856307-16.390034 7.284459-32.730849 7.284459h-6.201635z"/><g transform="translate(56.657194 21.814375)"><path d="M118.050587 93.4292366c-.88905-.4710847-1.794874-.8722756-2.70629-1.2287342l.651411-.0531194c0 0-5.802589-2.5692985-6.310018-21.2197782-.501838-18.6532753 5.5314-21.8348441 5.5314-21.8348441l-.866683.0377426c4.558478-2.3386488 8.479523-6.0332386 11.066994-10.9090348 6.741962-12.6815433 1.917888-28.43422316-10.766451-35.17758349-12.689931-6.73497308-28.4384168-1.92208137-35.1761856 10.77204289-2.7705929 5.207093-3.5575978 10.9272072-2.6825266 16.331401l-.2963501-.4557079c0 0 1.5278801 6.768522-14.3394258 16.6179658-15.86451 9.8550354-22.565934 5.619467-22.565934 5.619467-.4543101-.2809733-.88905-.5675382-1.3629304-.8149625C25.5376668 44.370731 9.78498704 49.1892142 3.04442245 61.8791448-3.69334637 74.5676775 1.12653473 90.3133679 13.8122717 97.059524c9.4580381 5.019778 20.6103036 3.620502 28.4677722-2.6755372l-.170541.329899c0 0 5.7760292-4.7513851 22.4219526 4.1852448 13.1400471 7.0508934 15.0914839 13.9619994 15.341704 16.5592544-.3438778 9.635569 4.6786954 19.086618 13.7648982 23.913488 12.6857373 6.744759 28.4384173 1.922082 35.1761853-10.765053 6.743361-12.685737 1.926275-28.439815-10.763656-35.1775834zm-29.3330575 3.419208c-2.1024075.7436707-8.1090866 1.5670204-20.7542851-5.2140826-13.6950043-7.3528348-15.727518-13.4951079-16.0252659-15.3389081.194305-2.2366038.0698939-4.4690139-.3117266-6.6469069l.0838726.125809c0 0-1.1155061-5.9745277 14.554699-15.705152 14.0249034-8.7059801 20.400622-6.9740101 21.5874199-6.5196999.763241.5186124 1.5544395 1.002278 2.3847787 1.4440073 1.5782035.8387263 3.2053327 1.4957287 4.8534302 1.98219 1.9290707 1.8368108 5.4796797 7.0522913 5.8487187 20.7640702.377427 13.8152218-3.6820089 19.1425324-5.8948486 21.0268711-2.2785401 1.0316335-4.411701 2.4085426-6.3267929 4.0818019h0z" fill="#0c479c"/><g style="fill:#fff"><path d="M87.002334 11.3235125c-7.5695059 8.2796276-7.728864 20.4593329-.4361378 27.3508683-3.6051257-3.4709295-3.5268446-10.6951597.1160238-17.609061.468289-.6192597 1.8256279-2.0828373 3.8092158-1.4174476.1998965.0684959.3312969.0866683.4081802.0740875.4487186.0964535.9086202.1537665 1.3838985.1327983 3.0124258-.136992 5.3426873-2.6853224 5.2070932-5.6991459-.0615066-1.3517474-.6220554-2.5483305-1.4887394-3.4667359 6.9921827-4.58084405 15.0159987-5.10504805 18.3038057-2.1024075l.125809.00838726c-7.510794-6.85798627-19.7883515-5.63204784-27.429149 2.72865654z"/><path d="M10.9102783 60.2911561c-7.57090372 8.2810254-7.72886386 20.457935-.4375356 27.3508682-3.60372782-3.4723273-3.52684456-10.6965575.1160238-17.6104588.4696868-.6206576 1.8284236-2.0828373 3.8120115-1.4174477.1971008.068496.3298991.0852706.4081802.0754854.4487187.0964535.9100182.1537665 1.3838986.1327983 3.0138235-.1383898 5.3426873-2.6867202 5.2070932-5.697748-.0629045-1.3517474-.6220555-2.5497283-1.4859437-3.4667358 6.9879888-4.5794462 15.0132028-5.1078439 18.3010103-2.1038054l.1244111.011183c-7.510795-6.86218-19.7911475-5.6376394-27.4291494 2.7258608z"/><path d="M91.4601648 101.746607c-7.5709037 8.283821-7.7288638 20.463526-.4375356 27.355061-3.6065235-3.470929-3.5268446-10.697955.1146259-17.609061.4696868-.622055 1.8270258-2.082837 3.8120116-1.417447.1998964.0657.3285012.085271.4081802.074088.4473207.096453.9100181.153766 1.3838986.134196 3.0110278-.139788 5.3398915-2.689517 5.2042975-5.703339-.061507-1.35035-.622056-2.546933-1.485944-3.465339 6.989387-4.5780481 15.011805-5.1050479 18.302408-2.1024074l.123014.0097852c-7.506602-6.8593842-19.7883523-5.6334457-27.4249562 2.7244632h0z"/></g></g></svg>