<svg width="256px" height="256px" viewBox="0 0 256 256" xmlns="http://www.w3.org/2000/svg" preserveAspectRatio="xMidYMid"><defs><linearGradient x1="15.7913036%" y1="14.7370493%" x2="91.0087401%" y2="85.2281246%" id="a"><stop offset="0%"/><stop stop-color="#fff" offset="100%"/></linearGradient><linearGradient x1="82.1356665%" y1="85.2373953%" x2="-3.11315442%" y2="14.7900497%" id="b"><stop offset="0%"/><stop stop-color="#fff" offset="100%"/></linearGradient></defs><path d="M127.78336 190.559312c56.636288 77.208544 112.063312-21.549632 111.981888-80.9388C239.668928 39.402832 168.499792.158608 127.73696.158608 62.309088.158608 0 54.232336 0 128.216032c0 82.2336 71.424608 127.783952 127.73696 127.783952-12.743152-1.8348-55.20992-10.93432-55.780672-108.746832-.383792-66.15456 21.580112-92.584816 55.688432-80.95848.763888.283312 37.622272 14.823216 37.622272 62.320848 0 47.295872-37.483632 61.943792-37.483632 61.943792h0z" fill="url(#a)"/><path d="M127.717232 66.241296C90.293152 53.342288 44.4484 84.186592 44.4484 145.967392c0 100.876768 74.75288 110.032592 83.814656 110.032592C193.690928 255.999984 256 201.926256 256 127.94256 256 45.70896 184.575392.158608 128.263056.158608c15.596976-2.16 84.065392 16.879856 84.065392 110.45888 0 61.025872-51.124576 94.247936-84.376752 80.053504-.763888-.283312-37.622272-14.823216-37.622272-62.320848 0-47.295872 37.387808-62.108848 37.387808-62.108848h0z" fill="url(#b)"/></svg>