<svg width="256" height="187" xmlns="http://www.w3.org/2000/svg" preserveAspectRatio="xMidYMid"><path d="M77.865 171.874v14.175h-6.103c-16.341 0-27.284-2.428-32.83-7.284-5.545-4.857-8.318-14.537-8.318-29.04v-23.527c0-9.91-1.771-16.767-5.315-20.573-3.544-3.807-9.975-5.71-19.294-5.71H0V85.838h6.005c9.384 0 15.832-1.886 19.343-5.66 3.51-3.773 5.266-10.55 5.266-20.327V36.225c0-14.503 2.773-24.166 8.318-28.99C44.395 2.484 55.095.073 71.034 0h6.831v14.077h-6.694c-9.253 0-15.29 1.443-18.113 4.331-2.821 2.888-4.232 8.958-4.232 18.211v24.413c0 10.303-1.493 17.785-4.48 22.444-2.985 4.66-8.088 7.81-15.307 9.45 7.285 1.772 12.404 4.988 15.357 9.647 2.953 4.66 4.43 12.108 4.43 22.346v24.412c0 9.254 1.41 15.324 4.232 18.212 2.767 2.83 8.624 4.274 17.573 4.33h7.234zm100.27 14.175v-14.175h6.89c9.188 0 15.177-1.411 17.966-4.233 2.789-2.822 4.183-8.925 4.183-18.31V124.92c0-10.238 1.477-17.687 4.43-22.346 2.953-4.66 8.072-7.875 15.357-9.647-7.285-1.64-12.404-4.79-15.357-9.45-2.953-4.66-4.43-12.14-4.43-22.444V36.619c0-9.319-1.394-15.405-4.183-18.26-2.79-2.855-8.778-4.282-17.965-4.282h-6.891V0h6.202c16.34 0 27.25 2.412 32.73 7.235 5.48 4.824 8.22 14.487 8.22 28.99v23.626c0 9.778 1.772 16.554 5.316 20.327 3.544 3.774 9.975 5.66 19.294 5.66H256v14.077h-6.103c-9.32 0-15.75 1.903-19.294 5.71-3.544 3.806-5.316 10.664-5.316 20.573v23.527c0 14.503-2.74 24.183-8.22 29.04-5.48 4.856-16.39 7.284-32.73 7.284h-6.202z"/><path d="M174.708 115.244a25.937 25.937 0 00-2.707-1.23l.652-.052s-5.803-2.57-6.31-21.22c-.502-18.653 5.531-21.835 5.531-21.835l-.866.038a25.82 25.82 0 0011.067-10.91c6.742-12.68 1.917-28.433-10.767-35.177-12.69-6.735-28.438-1.922-35.176 10.772-2.77 5.207-3.558 10.928-2.683 16.332l-.296-.456s1.528 6.769-14.34 16.618c-15.864 9.855-22.565 5.62-22.565 5.62-.455-.282-.89-.568-1.363-.816-12.69-6.743-28.443-1.924-35.183 10.766-6.738 12.688-1.918 28.434 10.767 35.18 9.459 5.02 20.61 3.62 28.468-2.676l-.17.33s5.776-4.751 22.422 4.186c13.14 7.05 15.091 13.962 15.341 16.559-.344 9.635 4.679 19.086 13.765 23.913 12.686 6.745 28.439 1.922 35.176-10.765 6.744-12.686 1.927-28.44-10.763-35.177zm-29.333 3.419c-2.103.743-8.11 1.567-20.755-5.214-13.695-7.353-15.727-13.495-16.025-15.34.194-2.236.07-4.468-.312-6.646l.084.126s-1.115-5.975 14.555-15.705c14.025-8.706 20.4-6.974 21.587-6.52a25.792 25.792 0 002.385 1.444 26.05 26.05 0 004.854 1.982c1.929 1.837 5.48 7.052 5.848 20.764.378 13.815-3.682 19.143-5.894 21.027a25.805 25.805 0 00-6.327 4.082z" fill="#0C479C"/><path d="M143.66 33.138c-7.57 8.28-7.73 20.46-.437 27.35-3.605-3.47-3.526-10.694.116-17.608.469-.62 1.826-2.083 3.81-1.418.2.069.33.087.408.074.449.097.908.154 1.384.133a5.458 5.458 0 005.207-5.699 5.379 5.379 0 00-1.489-3.467c6.992-4.58 15.016-5.105 18.304-2.102l.126.008c-7.511-6.858-19.789-5.632-27.43 2.729zM67.567 82.106c-7.57 8.28-7.728 20.457-.437 27.35-3.604-3.472-3.527-10.696.116-17.61.47-.62 1.828-2.083 3.812-1.418.197.069.33.086.408.076.449.096.91.154 1.384.133a5.458 5.458 0 005.207-5.698 5.394 5.394 0 00-1.486-3.467c6.988-4.58 15.013-5.108 18.301-2.104l.125.012c-7.511-6.863-19.792-5.638-27.43 2.726zM148.117 123.561c-7.57 8.284-7.729 20.464-.437 27.355-3.607-3.47-3.527-10.698.114-17.609.47-.622 1.827-2.083 3.812-1.417.2.065.329.085.409.074.447.096.91.153 1.384.134a5.462 5.462 0 005.204-5.704 5.39 5.39 0 00-1.486-3.465c6.99-4.578 15.012-5.105 18.302-2.102l.123.01c-7.506-6.86-19.788-5.634-27.425 2.724z" fill="#FFF"/></svg>