<svg width="256px" height="220px" viewBox="0 0 256 220" xmlns="http://www.w3.org/2000/svg" preserveAspectRatio="xMidYMid"><title>JSON Schema</title><path d="M70.2063725 0v16.7669464c-6.6163721 0-11.8329339 1.0320366-15.6218823 3.0819767-3.7889485 2.0499014-6.4750395 5.2308495-8.0439855 9.5427284-1.569332 4.3119176-2.3609489 9.8115307-2.3609489 16.4842813v34.24071c0 4.4531343-.5796179 8.5108463-1.7531416 12.158076-1.1735237 3.6476159-3.3224738 6.7858939-6.4608676 9.4156062-3.152643 2.629713-7.6059317 4.651232-13.402266 6.079231-.7351224.169522-1.5692162.310855-2.3609489.466475v2.643614l1.5980706.298426c.2617999.051816.5178375.106779.7628783.168049 5.7963343 1.427999 10.2637563 3.449518 13.402266 6.079231 3.1383938 2.629326 5.2873439 5.76799 6.4608676 9.415606 1.1735237 3.661518 1.7531416 7.704556 1.7531416 12.158076v34.24071c0 6.687038.7916169 12.158076 2.3609489 16.441689 1.568946 4.283612 4.255037 7.464753 8.0439855 9.543037 3.7889484 2.077898 9.0055102 3.124376 15.6218823 3.124376v16.780732c-8.397703 0-15.4380728-.918661-21.1496847-2.742469-5.7112258-1.823808-10.2636018-4.623042-13.6990257-8.383415-3.4353854-3.76076-5.8953057-8.524748-7.4080275-14.293125-1.5126832-5.76799-2.2619775-12.582074-2.2619775-20.456537v-27.38415c0-9.359228-1.9085303-16.031978-5.6973629-20.032926C16.1873284 121.836008 9.5285952 119.842678 0 119.842678V99.301187c9.5285952 0 16.2014617-1.9933298 19.9902942-5.9942771 3.8029659-4.0009473 5.6973629-10.6736979 5.6973629-20.0329257V45.8759328c0-7.8745794.7492943-14.6888171 2.2619775-20.4568848 1.5127218-5.7680678 3.9726421-10.5323654 7.4080275-14.2929314 3.4354239-3.7605275 7.9877999-6.55972321 13.6990257-8.38346164C54.7682997.918931981 61.8229572 0 70.2063725 0zM185.793628 0c8.383415 0 15.438072.918931981 21.149298 2.74265496 5.711612 1.82373843 10.263988 4.62293414 13.699219 8.38346164 3.421329 3.760566 5.895421 8.5248636 7.407989 14.2929314 1.512953 5.7680677 2.262093 12.5823054 2.262093 20.4568848v27.3980514c0 9.3592278 1.894474 16.0319784 5.697324 20.0329257C239.7985 97.3078572 246.47125 99.301187 256 99.301187v20.52759c-9.52875 0-16.187599 1.993329-19.990449 5.994277-3.788948 4.000561-5.697324 10.673698-5.697324 20.032539v27.38415c0 7.874464-.74914 14.688933-2.262093 20.456924-1.512568 5.76799-3.972372 10.532365-7.407989 14.292738-3.421329 3.760759-7.987607 6.559993-13.699219 8.383415-5.711226 1.823808-12.751982 2.742856-21.149298 2.742856v-16.781118c6.616372 0 11.832933-1.046093 15.621882-3.124377 3.788562-2.078284 6.474653-5.259039 8.043985-9.542651 1.569332-4.283612 2.360949-9.755036 2.360949-16.442075v-34.24071c0-4.453134.579618-8.496558 1.753142-12.158076 1.173137-3.647615 3.322087-6.785893 6.460752-9.415606 3.138278-2.629326 7.6057-4.651232 13.402266-6.078845.735238-.183809 1.569332-.31124 2.360948-.466861v-2.643614l-1.597993-.304776c-.261813-.051816-.517876-.105191-.762955-.161698-5.796566-1.413712-10.249701-3.435231-13.402266-6.064944-3.138665-2.6297123-5.287615-5.7679903-6.460752-9.4156062-1.173524-3.6472297-1.753142-7.7049417-1.753142-12.158076v-34.24071c0-6.6727506-.791617-12.1723637-2.360949-16.4842813-1.569332-4.3118789-4.255423-7.492827-8.043985-9.5427284-3.788949-2.0499401-9.00551-3.0819767-15.621882-3.0819767V0zm15.876744 109.282124c0 .975812-1.865899 3.435617-4.127992 5.471423-3.791092 3.404465-9.334531 8.707311-14.568245 13.853188l-3.834991 3.79786-5.111825 5.164915c-3.333874 3.421104-5.579754 5.861045-5.579754 6.165709 0 .537141 3.98666 7.42189 8.878466 15.310641l8.255984 13.345888c.367619.593519.296953 1.356947-.169522 1.865899l-1.96514 1.512953c-1.484379 1.639998-2.487994 2.926279-2.686092 4.538088.256969.719512-.458075 1.170029-1.383845 1.601552l-1.090247.490634c-3.144961 1.461803-5.531177-.076171-14.06344-9.928735l-4.026565-4.684816c-4.035854-4.630142-7.443933-8.149343-7.951099-8.161845-1.286281-.028189-15.522641 15.536929-26.535768 29.009861-9.71256 11.875411-18.265497 12.115985-20.739589 9.783225-4.170469-3.95847-3.562662-10.730076 1.569332-17.375024l.666559-.828921c2.516001-3.034301 7.902493-8.709035 14.0323-14.867824l2.046988-2.047102 3.660985-3.615192c3.687258-3.61187 7.407816-7.167629 10.751979-10.251958l4.636944-4.269711-9.461261-20.314905c-5.715021-12.501972-5.225967-13.603747 3.048793-14.604691l7.727324-.861871 6.715227 10.150459c3.689707 5.584181 7.252369 10.150844 7.888752 10.150844.592134 0 6.380594-4.607872 13.18873-10.480303l6.375062-5.527371c7.692652-6.598238 9.282147-7.392363 12.387027-7.086789l.890081.107069c2.423666.336631 4.597486.174864 5.367699-.366325l.174391-.156914c1.300568-1.555045 5.032752.74914 5.032752 3.110089zm-38.454429-92.8970141c6.163799 0 7.082847 2.1489955 7.082847 2.1489955-20.937686 10.9282124-38.651753 30.4094391-56.945439 66.2901475l-2.946707 5.8741549-11.3746067 22.1181882c-.8970668 1.631132-1.075449-.645695-5.0844258-6.11472l-.6835648-.911748C71.8915229 73.8845169 56.3134099 67.8887357 56.4070411 67.3834557c8.2572413-5.3203104 23.7235033-.1176501 33.2804422 8.3789084l.3533314.3394299.9460752.8251256c1.5576298 1.3987133 2.2890385 2.3021915 4.6099165 4.8861001.2318737 0 2.6786304-3.8611966 5.2201466-7.9753715l5.920026-9.7105068c21.291017-33.5762539 43.557461-47.7702139 56.478964-47.7420315z" fill="#002cc4"/></svg>