<svg width="256px" height="298px" viewBox="0 0 256 298" xmlns="http://www.w3.org/2000/svg" preserveAspectRatio="xMidYMid"><path fill="#feea5f" d="M210.74066 74.864668l-82.857379 47.877253-82.9242876-47.8621446 82.9145746-47.8858866z"/><path fill="#e0cc41" d="M104.249828 258.239798l-82.2390446-47.46518v-95.65293l82.2390446 47.446847z"/><path fill="#efdb50" d="M150.050689 161.648756l84.85328-48.988095v99.18616l-84.85328 48.971321z"/><path d="M50.4350236 74.8789921l77.4460474 44.7002209 77.383559-44.7143311L127.872 30.1565984c-17.092199 9.8711181-42.9045249 24.7785827-77.4369764 44.7223937zM127.658331 0l128.329575 74.6985827-61.2386 48.0433383-67.764235 25.904378-63.5648-20.761946L0 74.6885039 127.658331 0z" fill="#c3c2c2"/><path d="M154.239093 253.505008l76.476472-44.136819v-89.394394l-76.476472 44.151937v89.379276zm-27.310362-104.858709 129.059175-73.7783935V224.205102l-129.059175 73.706809-6.546866-73.706809 6.546866-75.558803z" fill="#b3b3b3"/><path d="M101.558526 164.146696l-76.856441-44.341417v89.392378l76.856441 44.358551v-89.409512zM1.42108547e-14 74.8679055l126.985172 73.7786965L126.928731 297.910728 1.42108547e-14 224.770016V74.8679055z" fill="#a5a5a4"/></svg>