<svg width="256px" height="203px" viewBox="0 0 256 203" xmlns="http://www.w3.org/2000/svg"><title>Group</title><g fill="none"><path fill="#f7df1e" d="M1.85263158 1.83333333H202.947368V200.833333H1.85263158z"/><path d="M204.8 202.666667H0V0h204.8v202.666667zM3.8464 198.837333h197.105067V3.82933333H3.8464V198.837333z" fill="#eee"/><path d="M137.160533 158.024533c4.059734 6.6304 9.341867 11.502934 18.685867 11.502934 7.848533 0 12.861867-3.9232 12.861867-9.341867 0-6.493867-5.149867-8.795733-13.789867-12.573867l-4.733867-2.030933c-13.668266-5.821867-22.747733-13.117867-22.747733-28.539733 0-14.205867 10.8224-25.0197337 27.739733-25.0197337 12.042667 0 20.701867 4.192 26.939734 15.1658667l-14.749867 9.469867c-3.246933-5.824-6.749867-8.117334-12.189867-8.117334-5.5488 0-9.064533 3.52-9.064533 8.117334 0 5.681066 3.52 7.982933 11.645867 11.502933l4.736 2.0288c16.093866 6.901333 25.179733 13.937067 25.179733 29.755733 0 17.051734-13.3952 26.395734-31.387733 26.395734-17.591467 0-28.955734-8.381867-34.517334-19.368534 0-.004266 15.392-8.9472 15.392-8.9472h0zm68.328534 0c4.059733 6.6304 9.341866 11.502934 18.685866 11.502934 7.848534 0 12.861867-3.9232 12.861867-9.341867 0-6.493867-5.149867-8.795733-13.789867-12.573867l-4.733866-2.030933c-13.668267-5.821867-22.747734-13.117867-22.747734-28.539733 0-14.205867 10.8224-25.0197337 27.739734-25.0197337 12.042666 0 20.701866 4.192 26.939733 15.1658667l-14.749867 9.469867c-3.246933-5.824-6.749866-8.117334-12.189866-8.117334-5.5488 0-9.064534 3.52-9.064534 8.117334 0 5.681066 3.52 7.982933 11.645867 11.502933l4.736 2.0288C246.914133 137.088 256 144.123733 256 159.9424c0 17.051733-13.3952 26.395733-31.387733 26.395733-17.591467 0-28.955734-8.381866-34.517334-19.368533l15.394134-8.945067h0zM70.2506667 159.6672c2.976 5.28 5.6832 9.742933 12.1898666 9.742933 6.2229334 0 10.1482667-2.434133 10.1482667-11.901866V93.1008h18.939733v64.661333c0 19.611734-11.498666 28.539734-28.283733 28.539734-15.1658667 0-23.9488-7.848534-28.416-17.301334l15.4218667-9.333333c0-.002133 0 0 0 0h0z" fill="#000"/></g></svg>