<svg width="512px" height="330px" viewBox="0 0 512 330" xmlns="http://www.w3.org/2000/svg" preserveAspectRatio="xMidYMid"><path d="M353.09811 121.259123c-16.401619-.018429-29.684545-13.32625-29.672271-29.7278745.012291-16.4016247 13.315134-29.6895369 29.716762-29.683403 16.401628.0061382 29.694535 13.3040001 29.694535 29.7056294-.018419 16.4113741-13.327641 29.7056481-29.739026 29.7056481z" fill="#ca3c32"/><path d="M424.491797 121.259123c-16.401619-.018429-29.684545-13.32625-29.672271-29.7278745.012291-16.4016247 13.315133-29.6895369 29.716761-29.683403 16.401629.0061382 29.694535 13.3040001 29.694535 29.7056294-.018419 16.4113741-13.327641 29.7056481-29.739025 29.7056481h0z" fill="#9259a3"/><path d="M388.811642 59.411315c-16.405976 0-29.705648-13.2996905-29.705648-29.7056669C359.105994 13.2996717 372.405666 0 388.811642 0c16.405977 0 29.705667 13.2996717 29.705667 29.7056481.008852 7.8811436-3.117993 15.4420463-8.690807 21.0148599-5.572813 5.5728136-13.133716 8.6996583-21.01486 8.690807h0z" fill="#399746"/><path d="M73.998527 121.259123c-16.4059765 0-29.7056481-13.299672-29.7056481-29.7056481 0-16.4059764 13.2996716-29.7056481 29.7056481-29.7056481 16.4059764 0 29.705648 13.2996717 29.705648 29.7056481-.018394 16.3983511-13.3072968 29.6872541-29.705648 29.7056481z" fill="#4d64ae"/><path d="M97.2623884 269.787363c.3521676 10.379934-1.1279421 20.740702-4.3724044 30.606831-2.3109886 6.996101-6.4888012 13.228197-12.082522 18.023652-5.4316841 4.451476-11.9121495 7.438925-18.8247028 8.678054-8.0484697 1.562517-16.2336691 2.311709-24.4320611 2.236268-5.392302.05579-10.7748944-.47016-16.0544008-1.568725-4.123148-.832777-8.1032907-2.260682-11.815505-4.238896-2.84268404-1.469029-5.29196894-3.597846-7.14270639-6.208147-1.623920999-2.092611-2.5151919556-4.660879-2.53666208436-7.309592C-.060449861 305.629899 1.89715569 301.468448 5.30838792 298.725337c4.11591885-3.19663 9.24898228-4.797008 14.45229848-4.505913 2.1296053-.045567 4.2482444.316981 6.2415238 1.068069 1.7037548.657208 3.3096139 1.544361 4.7729299 2.636793 1.3675479 1.104207 2.6609265 2.297237 3.8717474 3.571353 1.0346912 1.335086 1.9692509 2.57004 2.7703021 3.738239 1.4239178 1.956645 3.1211912 3.698879 5.039947 5.173456 1.1362914.781758 2.4622109 1.242947 3.8383702 1.335085 1.178979.013533 2.3371862-.310765 3.3377133-.93456 1.11997-.836946 1.9488795-2.004424 2.3697764-3.337713.7330762-2.05435 1.1822522-4.199165 1.3350853-6.375032.4036672-3.388913.5820703-6.800872.5340342-10.213403V135.110633l43.3902724-11.949013v146.625743zm63.4165526-143.154522v100.331661c-.015061 2.737124.518341 5.449533 1.568725 7.977135 1.1616 2.321102 2.733363 4.413016 4.639421 6.174769 1.968133 1.781988 4.225601 3.21548 6.675427 4.238896 2.535056 1.067965 5.259704 1.612894 8.010512 1.602103 1.862188-.083326 3.689058-.537207 5.373718-1.335086 2.152126-.987983 4.17075-2.244016 6.007884-3.738239 2.180696-1.656148 4.203109-3.510957 6.041261-5.540604 2.028249-2.15683 3.828988-4.516803 5.373718-7.042575v-102.66806h43.390273v143.521671h-43.390273v-13.350853c-5.440596 4.781977-11.545254 8.750567-18.123783 11.782128-5.845588 2.732096-12.205822 4.188465-18.657817 4.272273-6.712623.095509-13.38626-1.035616-19.692508-3.337714-5.831822-2.235791-11.213494-5.503235-15.887515-9.645991-4.436538-4.015534-8.032746-8.870982-10.580552-14.285413-2.56321-5.531321-3.873847-11.56025-3.839071-17.656503V126.632841h43.09058zm173.561089 8.878318 43.390273-11.949014v146.592367H334.24003V135.511159zm-23.363992 134.643353h-43.390273V70.5258813l43.390273-11.9490135V270.154512zm200.262796 0h-43.390273v-11.41498c-2.369776 2.036006-4.739553 3.905125-7.042575 5.573982-2.411891 1.739474-4.982137 3.248097-7.67674 4.505913-3.021123 1.318915-6.177298 2.303821-9.412352 2.937187-4.162588.748837-8.387582 1.095331-12.616556 1.034691-6.044053.090046-12.059529-.846698-17.790012-2.770302-4.899624-1.698673-9.430708-4.315374-13.350853-7.710117-3.601502-3.284396-6.458075-7.301808-8.37766-11.782128-1.952823-4.612933-2.94103-9.576687-2.903811-14.585807-.093848-5.081933.943634-10.121135 3.037319-14.752693 2.147616-4.421755 5.024952-8.450025 8.511169-11.915636 3.788276-3.684519 8.014228-6.890414 12.583179-9.54586 5.00217-2.901309 10.186404-5.476703 15.520367-7.710118 5.573981-2.303022 11.348225-4.405781 17.255978-6.375032l17.522994-5.70749 4.77293-1.034691v-14.218658c.076564-3.889554-.418242-7.76928-1.468594-11.515111-.686419-2.824874-1.998112-5.459666-3.83837-7.710118-1.539489-1.991548-3.610635-3.507303-5.974507-4.372404-2.501324-.913428-5.147537-1.365772-7.810249-1.335086-2.938132-.074266-5.865843.37789-8.644677 1.335086-2.120046.786212-4.028273 2.054554-5.573981 3.704862-1.415355 1.505767-2.455921 3.3239-3.037319 5.306964-.656329 2.163099-.97163 4.415251-.93456 6.675426.016287 2.643256-.297664 5.278196-.93456 7.843626-.488419 2.428204-1.527523 4.71195-3.037319 6.675427-1.604371 1.899705-3.658105 3.368297-5.974507 4.272273-3.06207 1.274798-6.365141 1.867073-9.679368 1.735611-2.848125.03419-5.681244-.417303-8.37766-1.335086-2.340786-.881053-4.501174-2.18181-6.375033-3.83837-1.755028-1.674232-3.191312-3.653363-4.238895-5.840998-.97193-2.302563-1.471343-4.776928-1.468594-7.276215.028362-5.010497 1.811683-9.852628 5.039947-13.684624 3.734326-4.541443 8.342418-8.286936 13.551116-11.014454 6.23547-3.258129 12.881758-5.660672 19.759262-7.142707 7.792034-1.803492 15.766549-2.699505 23.764519-2.67017 8.837897-.148847 17.66042.79282 26.267803 2.803679 6.53498 1.458642 12.746191 4.106043 18.324046 7.810249 4.529951 3.091145 8.185746 7.298758 10.613928 12.216031 2.318674 5.028112 3.460183 10.518774 3.337713 16.0544l.066755 106.773448zm-43.390273-73.997103c-4.307506 1.844221-8.508463 3.927985-12.583179 6.241524-4.084179 2.186983-7.951088 4.757472-11.548488 7.67674-3.25377 2.54259-6.120785 5.544522-8.511169 8.911694-2.101624 2.846544-3.267853 6.275258-3.337839 9.812877-.007733 2.640348.351734 5.268954 1.068194 7.81025.642055 2.258867 1.620993 4.40803 2.903811 6.375032 1.113882 1.639054 2.502807 3.073147 4.105387 4.238896 1.479177 1.03169 3.236558 1.590328 5.039947 1.602102 3.773487-.139384 7.439816-1.292318 10.613928-3.337713 4.170537-2.532335 8.203719-5.284257 12.082522-8.244152l.166886-41.08725z" fill="#1a1a1a"/></svg>