<svg width="256px" height="300px" viewBox="0 0 256 300" xmlns="http://www.w3.org/2000/svg" preserveAspectRatio="xMidYMid"><path d="M10.5838307 156.409656v-.21301-32.539019h7.136222v35.25503c.3315681 2.841269.0875129 5.720223-.7176898 8.465127-.8051429 2.744903-2.1549237 5.299467-3.9687683 7.511456-3.3711321 2.907846-7.69061009 4.480328-12.142212881 4.420151l-.745576681-5.325488c2.871381242.001615 5.641497512-1.060922 7.775251812-2.982318 1.91720914-2.236695 2.66277385-5.272251 2.66277385-14.591929zm53.2199456-4.200621c0 3.994131 0 7.562242.319485 10.651036h-6.3373599l-.4260199-6.33736c-1.3255547 2.242317-3.2212296 4.093607-5.4942329 5.365745-2.2730632 1.272137-4.8424022 1.919781-7.446854 1.876952-6.1775875 0-13.5268194-3.355042-13.5268194-17.041693v-22.739994h7.136222v21.302102c0 7.402529 2.2899915 12.355235 8.7338862 12.355235 1.3257342.014296 2.6409405-.236339 3.8685741-.737131 1.2276336-.500791 2.3428701-1.241631 3.280389-2.17915.9374591-.937459 1.6783581-2.052755 2.1791498-3.280329.5007319-1.227633.751367-2.542899.7371305-3.868634v-23.85837h7.1361621v28.278581l-.1597126.21301zm13.5269857-15.555229c0-4.952766 0-9.000158-.3195316-12.674774h6.3906572l.319485 6.656899c1.4238348-2.405051 3.4735995-4.378674 5.9307807-5.710449 2.4572411-1.331773 5.22978-1.971779 8.0221185-1.851787 9.4794512 0 16.6156732 7.935018 16.6156732 19.757698 0 13.952899-8.574114 20.876111-17.8405552 20.876111-2.3717021.105817-4.7306033-.402272-6.8484402-1.475158-2.1178369-1.072945-3.9228883-2.674318-5.2404873-4.649192v21.302072H77.330762v-42.071648-.159772zm7.0297003 10.384788c.019321.966291.1262746 1.928814.3195448 2.875784.6042161 2.364643 1.9797184 4.460288 3.9087714 5.955305 1.9291128 1.495078 4.3016524 2.304169 6.7422642 2.299264 7.5090043 0 11.9292153-6.12435 11.9292153-15.018009 0-7.775252-4.153904-14.43218-11.662908-14.43218-2.9716113.243343-5.752405 1.562216-7.8210719 3.709304-2.068667 2.147087-3.2831407 4.975017-3.4158158 7.953627v6.656905zm42.6440407-23.095004 8.574114 22.953057c.905337 2.556239 1.863912 5.645033 2.503001 7.935024.745565-2.343229 1.544367-5.325547 2.503002-8.094796l7.775252-22.793285h7.509004l-10.651036 27.692753c-5.325547 13.313809-8.574114 20.183784-13.473641 24.337687-2.467769 2.254041-5.476408 3.831726-8.733845 4.579923l-1.757425-5.964577c2.277652-.748377 4.392163-1.923072 6.230891-3.461577 2.598052-2.117298 4.65984-4.817697 6.017815-7.881786.290653-.530641.488769-1.106982.585793-1.704199-.060536-.642679-.222282-1.27172-.479258-1.863912l-14.485454-35.840823h7.775252l.106535.106511zm47.809038-11.172739v11.18359h10.225016v5.325548h-10.225016v20.982586c0 4.792993 1.384655 7.562242 5.325548 7.562242 1.399669.02291 2.796227-.138238 4.153903-.479258l.319545 5.325488c-2.035827.705308-4.184051 1.030236-6.337419.958635-1.426049.089247-2.854549-.13106-4.187461-.645849-1.332913-.514789-2.538653-1.311857-3.534554-2.33647-2.16922-2.901386-3.158744-6.516872-2.769249-10.118481v-21.302131h-6.071112v-5.325547h6.177587v-9.47944l6.923212-1.650913zm23.370858 31.87666c-.144519 1.806128.1048 3.622066.73079 5.322377.62599 1.700311 1.613695 3.244379 2.894925 4.525549 1.281171 1.28123 2.825238 2.268936 4.52555 2.894926 1.700311.625989 3.516249.875309 5.322377.73079 3.653112.08171 7.282416-.607865 10.651036-2.023744l1.224881 5.325547c-4.133684 1.702764-8.5786 2.519212-13.047562 2.396467-2.605289.178375-5.218295-.208883-7.659804-1.135276-2.441569-.926333-4.653797-2.369847-6.485103-4.231426-1.831269-1.861639-3.238205-4.097376-4.124293-6.55378-.886092-2.456463-1.230369-5.075451-1.009218-7.67745 0-11.716145 6.976421-20.982586 18.373081-20.982586 12.781255 0 15.976584 11.18359 15.976584 18.319812.068311 1.099564.068311 2.202299 0 3.301864h-27.532956l.159712-.21307zm20.876111-5.325488c.205533-1.423835.103485-2.875126-.299326-4.256131-.402751-1.381006-1.096873-2.659664-2.035528-3.749777-.938715-1.090053-2.100131-1.966259-3.406066-2.569554-1.305934-.603283-2.72606-.919622-4.164551-.927697-2.92609.211801-5.667524 1.508739-7.68708 3.636685-2.019557 2.127887-3.171582 4.933325-3.230262 7.866474h20.822813zm17.324856-3.268545c0-4.579923 0-8.520841-.319532-12.142201h6.390658v7.615515h.319485c.670792-2.350467 2.056703-4.433765 3.965358-5.960695 1.908655-1.526936 4.245364-2.421728 6.685737-2.560159.67169-.088161 1.351994-.088161 2.023684 0v6.656942c-.813876-.094272-1.635888-.094272-2.449764 0-2.417462.093615-4.718221 1.064093-6.472487 2.730188-1.754267 1.666036-2.842047 3.913677-3.060201 6.323184-.199133 1.089694-.306026 2.194223-.319485 3.301803v20.716339h-7.029729v-26.627679l.266276-.053237z" fill="#4e4e4e"/><path d="M233.257943 16.9621357c.218693 3.5777416-.632509 7.1395718-2.445277 10.2317751-1.812768 3.0922632-4.504912 5.5748669-7.733619 7.1316759-3.228707 1.5567491-6.847723 2.1171788-10.396034 1.6099269-3.548311-.5073119-6.865309-2.0593355-9.528454-4.458434-2.663138-2.3990387-4.551856-5.5365837-5.425546-9.0128749-.87369-3.4762912-.692804-7.1340087.519612-10.5071148 1.212416-3.3731061 3.401484-6.30900046 6.288328-8.43362064 2.88685-2.12462017 6.340829-3.341811998 9.921861-3.4965188899 2.347894-.1291975001 4.698182.2070220389 6.915615.9893242399 2.217493.78229862 4.258464 1.99525297 6.005552 3.56909798 1.747029 1.57385099 3.165779 3.47754139 4.174541 5.60159931 1.008761 2.1240579 1.587674 4.426611 1.703421 6.7751638z" fill="#767677"/><g style="fill:#f37726"><path d="M127.952969 225.540984c-47.9293318 0-90.0545159-17.201466-111.8359044-42.604263 8.4512489 22.852719 23.7005716 42.567894 43.6953923 56.491841 19.9946412 13.924067 43.7756671 21.388089 68.1405121 21.388089 24.365442 0 48.14587-7.464022 68.14105-21.388089 19.994581-13.923947 35.243844-33.639122 43.695452-56.491841-21.728092 25.402797-63.693623 42.604263-111.836502 42.604263z"/><path d="M127.952969 60.3543133c47.929929 0 90.055173 17.2014652 111.836502 42.6040827-8.451608-22.8525397-23.700871-42.5677137-43.695452-56.4916612-19.99518-13.9239475-43.775608-21.3882682-68.14105-21.3882682-24.364845 0-48.1458709 7.4643207-68.1405121 21.3882682-19.9948207 13.9239475-35.2441434 33.6391215-43.6953923 56.4916612C37.8984531 77.502541 79.8106871 60.3543133 127.952969 60.3543133z"/></g><path d="M61.9716874 274.975202c.281142 4.506408-.7856424 8.994511-3.0643882 12.892456-2.2788056 3.897944-5.6663876 7.029268-9.7311629 8.995049-4.0647752 1.965781-8.6227454 2.67701-13.0931429 2.043065-4.4704572-.634005-8.6509793-2.584413-12.0089515-5.602802-3.3579783-3.018388-5.7413748-6.968135-6.8465441-11.345935-1.1051639-4.377859-.8820615-8.985538.6408842-13.236166 1.5229464-4.250568 4.2767863-7.951534 7.9106367-10.631386 3.6339102-2.679863 7.9832969-4.217282 12.4940711-4.416377 2.9549223-.158055 5.9120578.267632 8.7024821 1.25274 2.7903645.985116 5.3593446 2.510341 7.5600885 4.488558 2.2007438 1.978229 3.9902427 4.370628 5.2660891 7.04064 1.2759063 2.669952 2.013276 5.565176 2.1699379 8.520158z" fill="#9e9e9e"/><path d="M21.5641016 54.5650606c-2.5826185.0713025-5.1286885-.62258-7.3180072-1.9943736-2.1892948-1.3718534-3.9241086-3.3604248-4.98625718-5.7155575-1.06214738-2.3551925-1.4042075-4.9718471-.98316322-7.520908.42104427-2.5490609 1.58639231-4.9167553 3.3494938-6.8052401 1.7631074-1.8885087 4.0452568-3.213549 6.5594441-3.8084832 2.5141275-.5949336 5.1480694-.4331974 7.5706163.4648671 2.4224872.8980693 4.5253697 2.4923659 6.0441348 4.5823997 1.5188249 2.0900456 2.3857592 4.5825192 2.4917558 7.1639413.100912 3.4905278-1.1790618 6.8800239-3.5620695 9.4324944-2.3830076 2.5525303-5.6767359 4.0620835-9.1659477 4.2008599z" fill="#616262"/></svg>