<svg width="256px" height="257px" viewBox="0 0 256 257" xmlns="http://www.w3.org/2000/svg" preserveAspectRatio="xMidYMid"><title>JWT</title><g style="fill:#fff"><path d="M147.386158 69.0712136 147.129388-1.0975284e-14h-38.515546L108.870612 69.0712136l19.257773 26.4473421z"/><path d="M108.870612 187.442327v69.327984h38.515546v-69.327984l-19.257773-26.447342z"/></g><g style="fill:#00f2e6"><path d="M147.386158 187.442327l40.56971 55.975928 31.069207-22.595788-40.569709-55.975927-31.069208-10.014043z"/><path d="M108.870612 69.0712136 68.0441324 13.0952859 36.9749248 35.6910732 77.5446339 91.667001l31.3259781 10.014042z"/></g><g style="fill:#00b9f1"><path d="M77.5446339 91.667001 11.8114343 70.3550652 4e-15 106.816449l65.7331996 21.568706 31.0692076-10.270812z"/><path d="M159.197593 138.399198l19.257773 26.447342 65.7332 21.311935L256 149.697091l-65.7332-21.311936z"/></g><g style="fill:#d63aff"><path d="M190.2668 128.385155 256 106.816449l-11.811434-36.4613838-65.7332 21.3119358-19.257773 26.447342z"/><path d="M65.7331996 128.385155 0 149.697091l11.8114343 36.461384 65.7331996-21.311935 19.2577733-26.447342z"/></g><g style="fill:#fb015b"><path d="M77.5446339 164.84654l-40.5697091 55.975927 31.0692076 22.595788 40.8264796-55.975928v-32.60983z"/><path d="M178.455366 91.667001l40.569709-55.9759278-31.069207-22.5957873-40.56971 55.9759277v32.6098294z"/></g></svg>