<svg width="512px" height="134px" viewBox="0 0 512 134" xmlns="http://www.w3.org/2000/svg" preserveAspectRatio="xMidYMid"><path d="M15.4373424.307268139C6.91133.307268139 0 7.21859813 0 15.7446105V117.887729c0 8.526013 6.91133 15.438455 15.4373424 15.438455 8.5271244 0 15.4384544-6.912442 15.4384544-15.438455V15.7446105c0-8.52601237-6.91133-15.437342361-15.4384544-15.437342361M66.5511593 47.6357001c-4.7951175-6.8479437-14.2341149-8.5126679-21.0820586-3.7175505-6.8479437 4.7951175-8.5126679 14.2341149-3.7175505 21.0820586l43.3217511 61.8694698c4.7951174 6.847944 14.2330028 8.511556 21.0820587 3.717551 6.847944-4.79623 8.512668-14.234115 3.71755-21.082059L66.5511593 47.6357001m19.7464982-6.5665975c11.2560712 0 20.3803615-9.1242901 20.3803615-20.3803612 0-11.25607118-9.1242903-20.381473261-20.3803615-20.381473261-11.2560711 0-20.3814732 9.125402081-20.3814732 20.381473261 0 11.2560711 9.1254021 20.3803612 20.3814732 20.3803612m78.7791535 65.5002814c-10.67225 0-19.356172-8.6828102-19.356172-19.3561723 0-10.6733621 8.683922-19.3550601 19.356172-19.3550601 10.673362 0 19.356172 8.681698 19.356172 19.3550601 0 10.6733621-8.68281 19.3561723-19.356172 19.3561723zm0-65.4680323c25.467945 0 46.112972 20.6450268 46.112972 46.11186 0 .6928011-.022241 1.3811539-.052266 2.0661707v30.7112146c0 7.365043-5.970544 13.335587-13.335586 13.335587-4.449273 0-8.379223-2.187383-10.802359-5.536849-6.519892 3.530728-13.987242 5.536849-21.922761 5.536849-25.466833 0-46.11186-20.646139-46.11186-46.1129723 0-25.4668332 20.645027-46.11186 46.11186-46.11186zm75.630968 0c8.480419 0 15.355051 6.8746327 15.355051 15.3561635v61.5113928c0 8.481531-6.874632 15.357276-15.355051 15.357276-8.481531 0-15.356164-6.875745-15.356164-15.357276V56.4575152c0-8.4815308 6.874633-15.3561635 15.356164-15.3561635zm96.389422 63.4185423c-20.789592 0-37.702611-16.9141321-37.702611-37.7037241 0-20.789592 16.913019-37.7026118 37.702611-37.7026118 20.789592 0 37.702612 16.9130198 37.702612 37.7026118 0 20.789592-16.91302 37.7037241-37.702612 37.7037241zm0-104.212625861c-36.7318 0-66.508901 29.777101061-66.508901 66.508901761 0 36.7318011 29.777101 66.5100141 66.508901 66.5100141 36.732913 0 66.508902-29.778213 66.508902-66.5100141 0-36.7318007-29.775989-66.508901761-66.508902-66.508901761zM470.96794 50.3868876h-18.126256c-5.785945 0-10.495436-4.7106024-10.495436-10.4987717 0-6.3208367 5.854892-10.0839808 11.637501-10.5399173 7.119282-.5649164 26.628916-.1601338 33.544694.0389214 7.917726.2891305 14.71674-6.081748 14.948045-14.1028941.233528-8.02448228-6.081748-14.714516268-14.101783-14.948044715-2.700033-.080066896-26.706758-.737282669-36.670638.037809368-21.901632 1.720326227-38.42099 18.706740647-38.42099 39.514125347 0 21.813781 17.745938 39.561943 39.558607 39.561943h18.126256c6.487642 0 11.968889 5.6024586 11.968889 12.2335545 0 7.6096912-6.563262 11.5151766-13.070921 12.0089226-8.352534.636087-33.405688.192383-42.349828-.03781-8.026706-.195719-14.690051 6.140687-14.894667 14.161833-.200167 8.02337 6.13735 14.690051 14.161833 14.894666 2.199615.053378 15.44735.37587 27.682017.37587 6.918002 0 13.511289-.10342 17.602485-.413679C495.205969 130.914168 512 113.677545 512 91.6836134c0-22.7712477-18.407602-41.2967258-41.03206-41.2967258" fill="#5e3580" fill-rule="evenodd"/></svg>