<svg width="256px" height="256px" viewBox="0 0 256 256" xmlns="http://www.w3.org/2000/svg" preserveAspectRatio="xMidYMid"><path fill="#1d99f3" d="M256 1.61927898e-14v256.000005H0V0z"/><path d="M143.02512 32.3090494l-31.879637 3.051863V166.63176l31.54249-4.748779v-55.967904l42.399254 62.075787 33.239328-10.517413-43.415851-59.6987152 43.755957-56.3073765-33.916576-7.79792-42.06137 56.3050352.336405-57.6654251zM70.76168 64.2975998c-.36.0378667-.707664.1965334-.9780107.4678934l-12.51208 12.509888c-.52608.5276266-.6251733 1.345648-.2373333 1.9844586l14.6490453 24.1269072c-2.598224 4.368032-4.680656 9.077653-6.168976 14.045792l-26.8936277 5.593957c-.7482405.15496-1.2873669.817957-1.2873669 1.585797v17.692246c0 .748341.5119093 1.396298 1.2329061 1.570533l26.1030165 6.380384c1.3919894 5.753973 3.54904 11.208683 6.399936 16.222101L55.96 189.517408c-.4215467.644021-.33344 1.492139.2112 2.034496l12.5076373 12.509888c.52608.524587 1.347312.627397 1.9888427.241867L94.344 189.924384c4.6507093 2.683664 9.665995 4.795643 14.966912 6.22784l5.524176 26.560219c.155467.752874.82072 1.287445 1.583616 1.287445h17.694448c.743877 0 1.393019-.507947 1.570565-1.237403l6.506635-26.615024c5.464304-1.474677 10.632224-3.672677 15.396683-6.478346l23.331781 15.298165c.641531.42256 1.490021.337867 2.03456-.206347l12.512085-12.509813c.52928-.52912.62407-1.347237.235147-1.984384l-8.517488-14.037099-2.755605.871398c-.401707.126986-.839744-.022934-1.076043-.37264 0 0-5.432747-7.95288-12.449099-18.222134-8.387813 16.415611-25.452432 27.660651-45.158618 27.660651-27.9976963 0-50.6959417-22.699088-50.6959417-50.698155 0-20.596938 12.2853494-38.3106558 29.9212587-46.2456958V76.1440585c-3.209744 1.1228853-6.3127893 2.4767787-9.2599467 4.0822293-.0021546-.001968-.0043146-.0074666-.0128-.0149333l-23.8808426-15.662736c-.3216-.2101333-.6943947-.2940267-1.054256-.2570133l4.533e-4.0059946z" fill="#fcfcfc"/></svg>