<svg width="256px" height="247px" viewBox="0 0 256 247" xmlns="http://www.w3.org/2000/svg" preserveAspectRatio="xMidYMid"><path d="M24.5751812 198.657069c2.4132898.099006 4.8513312.433154 7.1222987 1.268524v-.024752l.3465237.123758 29.9619203-29.225557 1.1014502 1.466538c1.5531685 2.103893 3.2053438 4.028337 4.9503379 5.952781l.637356.736363c.4579063.457906.8229937.915812 1.2809 1.373718l.7425507.730175.7239869.736363.6435439.637356.7301749.736363.6435439.637356.8229937.736363.7425507.643544c13.8915016 11.823573 31.4215533 18.518852 49.6580773 18.965982 15.019435.377549 29.843786-3.464134 42.789483-11.088757l2.289532 2.38235c2.660806 2.840256 5.408244 5.680513 8.069051 8.520769-15.932023 10.242103-34.579847 15.447451-53.513153 14.937645-21.357635-.510453-41.9075227-8.26521-58.2778537-21.991876l.0928189-.185638-19.225875 18.953606c2.9920731 9.894983-.6977566 20.593405-9.1535358 26.540084-8.4557793 5.94668-19.7716949 5.801318-28.07193009-.360605-8.30023519-6.161922-11.71403408-16.951596-8.46877329-26.766456 3.24526078-9.81486 12.41814528-16.442775 22.75561078-16.442185h.6187923l-.0123759.006188h0zM207.793376 75.0409426c9.409003 15.4971071 14.148607 33.3791204 13.650557 51.5020784-.539775 22.125463-8.878804 43.348894-23.545045 59.92384l.092819.092819 11.818932 12.555295c4.7647-.643544 9.5294 1.002443 12.827563 4.486244 5.620368 5.954836 5.37427 15.331427-.550725 20.983245-5.954052 5.616241-15.325899 5.370195-20.977057-.550726-3.283597-3.472212-4.685248-8.318051-3.762257-13.007012-6.90607-7.384502-13.836581-14.746107-20.791419-22.084696l-1.200457-1.280899 1.373718-1.101451c3.583511-2.834238 6.897792-5.993162 9.900676-9.436581 12.524429-14.061273 19.637712-32.119756 20.067433-50.945166.397085-14.203174-3.021877-28.2529726-9.900676-40.6855894l10.995938-10.451401h0zM40.8246655 19.0340569c4.2077872-.0618793 8.1680576 1.6026719 11.1011328 4.6038142 3.2815007 3.4758143 4.6806724 8.3233566 3.7560689 13.0132009l22.728239 23.8235013-1.3799067 1.1014502c-3.5704312 2.8402563-6.8685939 5.9527813-9.8944879 9.4365816C44.6462124 96.3311742 40.5368036 133.068 56.8761362 162.729991L45.966829 173.360842c-9.5286038-15.547549-14.3035572-33.54181-13.7371877-51.768159.4702821-22.0599435 9.0653063-43.3711483 23.5017293-59.9671562L43.2193915 48.5690105c-4.750832.6539224-9.5257833-1.0206505-12.8275632-4.4986195-5.6187205-5.9565144-5.3698565-15.3331576.556913-20.9832449 2.3277622-2.1845339 5.2903622-3.5715594 8.45889-3.9602704.4702821-.0495034.9467521-.0618792 1.4232221-.0990067l-.0061879.0061879h0zM232.037656 3.76403475e-6C241.510808.00156235918 250.09408 5.5830995 253.937949 14.2413487c3.84387 8.6582493 2.226916 18.7682231-4.125671 25.7956873-6.352586 7.0274643-16.248548 9.6534985-25.249632 6.7003495v.0309396l-.371276-.1299463-32.529908 30.8777328-1.10145-1.4665376c-1.732618-2.2895313-3.66325-4.5790626-5.680513-6.6829562l-.371275-.4640942-1.002444-1.0086314-1.831625-1.831625-.643544-.5507251-.637356-.5445372-.822993-.7363627-.643544-.5507251-.829182-.7301749c-13.830209-11.650141-31.215447-18.2432621-49.29299-18.6937136-15.123282-.3712753-29.8752891 3.3909815-42.6966643 11.088757l-10.451401-10.9093072c15.9318637-10.2424569 34.5797983-15.4478356 53.5131533-14.9376447 21.375676.5020984 41.937866 8.2942472 58.277853 22.0846951h.185638l21.53397-20.4510836c-2.281172-7.2804992-.959539-15.2121326 3.559106-21.35959192C217.244846 3.624394 224.420524-.00426607639 232.050032 3.76403475e-6h-.012376 0z" fill="#2e3234"/><path d="M127.579338 53.5007847c2.71031.0123759 5.414432.2227652 8.09999.5321613 38.668327 4.8575191 66.06226 40.1348648 61.29756 78.803192-4.85752 38.674515-40.134865 66.068448-78.803192 61.303747-38.6683275-4.857519-66.068448-40.141052-61.3037477-78.803192 4.6161901-35.8713859 34.7513723-61.7121498 70.7093897-61.8359083zm.426966 30.2465648-1.485101.0371275c-15.655444 1.2561482-26.9793417 13.0936438-27.3815567 28.829531.2475169 10.92787 4.9627137 18.64421 13.8980737 24.683622l2.153397 1.169517-5.445372 25.611811h36.51493l-5.439183-25.617999c10.024434-5.160727 15.760638-14.634436 16.045282-25.846951-.210389-16.2371089-12.771871-28.4644436-28.86047-28.8666585z" fill="#047aed"/></svg>