<svg width="256px" height="291.14648px" viewBox="0 0 256 291.14648" xmlns="http://www.w3.org/2000/svg" preserveAspectRatio="xMidYMid"><title>KeyDB</title><path fill="#ff0" opacity="0.88" d="M128.000266 14.2217139 14.2229219 211.234867H241.778113z"/><path d="M128.000266 0c7.854156 0 14.222404 6.36704091 14.222404 14.2217139 0 .6033017-.037568 1.1978266-.110491 1.7813638l91.068363 52.5778046c2.388091-1.8146271 5.367325-2.8916742 8.598088-2.8916742 7.853639 0 14.22137 6.3670416 14.22137 14.221887 0 5.8902848-3.581445 10.9447439-8.685164 13.1041335V198.131316C252.418555 200.29022 256 205.343807 256 211.234867c0 7.855191-6.367731 14.221887-14.22137 14.221887-3.230763 0-6.209997-1.076988-8.598088-2.891571l-91.068363 52.578047c.072923.583537.110491 1.178062.110491 1.781363 0 7.854673-6.368248 14.221887-14.222404 14.221887-7.85519 0-14.222404-6.367214-14.222404-14.221887 0-.603301.037561-1.197826.110473-1.781363l-91.0670368-52.579365c-2.3883096 1.815379-5.3680777 2.892889-8.5994107 2.892889C6.36824839 225.456754 0 219.090058 0 211.234867c0-5.89106 3.58173586-10.944647 8.68560035-13.103551V93.0152286C3.58173586 90.855839 0 85.8013799 0 79.9110951c0-7.8548454 6.36824839-14.221887 14.2218875-14.221887 3.230551 0 6.2096588 1.0770471 8.5976766 2.8916742l91.0689879-52.5760748c-.073055-.5840921-.11069-1.1791957-.11069-1.7830936C113.777862 6.36704091 120.145076 0 128.000266 0zm-5.536159 216.76939H34.8315034l84.5710556 48.824991c.936425-.711619 1.963766-1.309807 3.061548-1.774092V216.76939zm98.703182 0H133.53513l.001722 47.051264c1.097569.464294 2.124743 1.06245 3.061044 1.774005l84.569393-48.825269zm-38.300172-96.498643-40.754938 23.520295c.072923.583528.110491 1.178041.110491 1.78133 0 5.890802-3.581736 10.94539-8.685818 13.104812l-.001722 47.020823h95.138203c.462877-1.094007 1.058774-2.118025 1.767415-3.051793l-47.573631-82.375467zm-109.7354413 0-47.5723869 82.375467c.7086268.933768 1.3045152 1.957786 1.7673868 3.051793h95.1374314v-47.020458c-4.978646-2.105903-8.50845-6.966187-8.679726-12.670357l-.006519-.43482c0-.603289.037561-1.197802.110473-1.78133l-40.7566593-23.520295zM22.8230321 91.2386833c-.9371635.7126528-1.9654313 1.3116827-3.0642597 1.7765453l-.0018416 97.5908814 43.8083218-75.85558-40.7422205-23.5118467zm210.3540419 0L192.43354 114.75053l43.808322 75.85558 4.48e-4-97.5905162c-.916001-.3874284-1.782971-.868081-2.589016-1.4300595l-.47622-.346851zM129.772853 28.3342082c-.58073.0722024-1.172319.1093927-1.772587.1093927-.600348 0-1.192004-.0371903-1.77279-.1093927L78.6449972 110.725012l40.7540938 23.520127c2.280979-1.734797 5.10179-2.796121 8.166337-2.888134l.434838-.00652c3.232075 0 6.212525 1.078235 8.601117 2.894654l40.752412-23.520127-47.580942-82.3908038zm13.308012.9598378 43.839354 75.910748 40.74568-23.5141945c-.055648-.4422566-.090554-.8908184-.104187-1.3447223l-.00652-.4347821c0-.6038979.037642-1.1990015.110707-1.7830936L143.080865 29.294046zm-30.164661 0-84.5821024 48.8339555c.0730653.5840921.1107073 1.1791957.1107073 1.7830936 0 .6026527-.0374935 1.196556-.1107073 1.7795044L69.0768501 105.20307l43.8393539-75.909024z" fill="#000200"/></svg>