<svg width="256px" height="256px" viewBox="0 0 256 256" xmlns="http://www.w3.org/2000/svg" preserveAspectRatio="xMidYMid"><defs><linearGradient x1="0%" y1="0%" x2="50%" y2="71.921%" id="a"><stop stop-color="#5ae8fa"/><stop stop-color="#2684ff" offset="1"/></linearGradient></defs><path d="M59.6689455 0H196.331055c20.747636 0 28.272872 2.16087273 35.857454 6.21730909 7.585746 4.05643641 13.537746 10.00960001 17.594182 17.59418181C253.840291 31.3972364 256 38.9201455 256 59.6689455V196.331055c0 20.747636-2.159709 28.271709-6.217309 35.857454-4.056436 7.584582-10.008436 13.537746-17.594182 17.594182C224.603927 253.839127 217.079855 256 196.331055 256H59.6689455c-20.7476364 0-28.2717091-2.160873-35.8574546-6.217309-7.5845818-4.056436-13.5377454-10.0096-17.59418181-17.594182C2.16087273 224.602764 5.68434189e-14 217.079855 5.68434189e-14 196.331055V59.6689455C5.68434189e-14 38.9213091 2.16087273 31.3972364 6.21730909 23.8114909 10.2737455 16.2269091 16.2269091 10.2737455 23.8114909 6.21730909 31.3972364 2.16087273 38.9201455 0 59.6689455 0zm13.6866909 66.048v132.933818h29.2305456V156.16l16.756363-16.942545 40.029091 59.764363h36.677819l-56.971637-80.430545L191.022545 66.048h-36.491636l-51.944727 55.109818V66.048H73.3556364h0z" fill="url(#a)"/></svg>