<svg width="256px" height="276px" viewBox="0 0 256 276" xmlns="http://www.w3.org/2000/svg" preserveAspectRatio="xMidYMid"><path d="M16.2524996 57.1547059C6.70984964 63.1945026.660185591 73.4605992 0 84.7347053V191.114703c.660185591 11.274106 6.70984964 21.540202 16.2524996 27.579999l95.4464974 53.386999c10.252705 5.02361 22.252295 5.02361 32.505 0l95.544997-53.386999c9.54265-6.039797 15.592314-16.305893 16.2525-27.579999V84.7347053c-.660186-11.2741061-6.70985-21.5402027-16.2525-27.5799994L144.302497 3.76770718c-10.252705-5.02360957-22.252295-5.02360957-32.505 0L16.2524996 57.1547059z" fill="#14bf96"/><g style="fill:#fff"><path d="M226.057495 111.526705c-52.992999 0-92.589998 43.930999-92.589998 97.810497v2.2655h-10.638v-2.2655c0-53.879498-39.3999989-97.613497-92.7883714-97.810497 0 3.349 0 6.7965 0 9.849999-.2140343 40.761422 24.921588 77.365172 63.0413722 91.801998 11.3276642 4.153638 23.2963262 6.287327 35.3614992 6.304 12.161399-.016606 24.227113-2.149771 35.656999-6.304 38.062544-14.492513 63.143801-51.074252 62.942714-91.801998-.493715-3.151999-.690715-6.500999-.986215-9.849999z"/><circle cx="128.049997" cy="86.1137053" r="29.5499993"/></g></svg>