<svg width="256px" height="99px" viewBox="0 0 256 99" xmlns="http://www.w3.org/2000/svg" preserveAspectRatio="xMidYMid"><defs><linearGradient x1="-0.944%" y1="34.58%" x2="100.193%" y2="93.74%" id="a"><stop stop-color="#feec7f"/><stop stop-color="#f3a21b" offset="1"/></linearGradient><linearGradient x1="50%" y1="-26.499%" x2="50%" y2="107.049%" id="b"><stop stop-color="#feec7f"/><stop stop-color="#fee97b" offset=".19"/><stop stop-color="#fcdf6e" offset=".39"/><stop stop-color="#facf58" offset=".61"/><stop stop-color="#f6b93a" offset=".82"/><stop stop-color="#f3a21b" offset="1"/></linearGradient><linearGradient x1="-31.443%" y1="50%" x2="46.858%" y2="50%" id="c"><stop stop-color="#feec7f"/><stop stop-color="#fde373" offset=".11"/><stop stop-color="#f6b434" offset=".71"/><stop stop-color="#f3a21b" offset="1"/></linearGradient><linearGradient x1="50.002%" y1="-9.408%" x2="50.002%" y2="98.339%" id="d"><stop stop-color="#feec7f"/><stop stop-color="#f7bc3f" offset=".61"/><stop stop-color="#f3a21b" offset="1"/></linearGradient><linearGradient x1="50%" y1="0.98%" x2="50%" y2="101.601%" id="e"><stop stop-color="#f9c32e"/><stop stop-color="#f19819" offset=".52"/><stop stop-color="#e96c04" offset="1"/></linearGradient><linearGradient x1="-25.306%" y1="50%" x2="74.694%" y2="50%" id="f"><stop stop-color="#f7b425"/><stop stop-color="#f3a620" offset="6%"/><stop stop-color="#ec8816" offset=".21"/><stop stop-color="#e6720e" offset=".37"/><stop stop-color="#e26208" offset=".55"/><stop stop-color="#e05805" offset=".74"/><stop stop-color="#df5504" offset="1"/></linearGradient><linearGradient x1="50%" y1="-34.375%" x2="50%" y2="144.062%" id="g"><stop stop-color="#feec7f"/><stop stop-color="#f7bd40" offset=".61"/><stop stop-color="#f3a21b" offset="1"/></linearGradient><linearGradient x1="50.354%" y1="-109.762%" x2="50.354%" y2="69.444%" id="h"><stop stop-color="#feec7f"/><stop stop-color="#feea7c" offset=".23"/><stop stop-color="#fce271" offset=".42"/><stop stop-color="#fbd560" offset=".6"/><stop stop-color="#f8c347" offset=".78"/><stop stop-color="#f4ac28" offset=".94"/><stop stop-color="#f3a21b" offset="1"/></linearGradient><linearGradient x1="50.006%" y1="7.134%" x2="50.006%" y2="136.776%" id="i"><stop stop-color="#f9c32e"/><stop stop-color="#f19819" offset=".52"/><stop stop-color="#e96c04" offset="1"/></linearGradient><linearGradient x1="50%" y1="-28.81%" x2="50%" y2="101.905%" id="k"><stop stop-color="#f7b425"/><stop stop-color="#f3a620" offset="6%"/><stop stop-color="#ec8816" offset=".21"/><stop stop-color="#e6720e" offset=".37"/><stop stop-color="#e26208" offset=".55"/><stop stop-color="#e05805" offset=".74"/><stop stop-color="#df5504" offset="1"/></linearGradient><linearGradient x1="50.001%" y1="-14.918%" x2="50.001%" y2="65.637%" id="l"><stop stop-color="#f7b425"/><stop stop-color="#ef961a" offset=".35"/><stop stop-color="#df5504" offset="1"/></linearGradient></defs><path d="M107.410513 97.8615898H58.5320086c-7.5761682-.2443925-16.0077101-.8553738-23.0950932-2.1995327-3.5436915-.6109813-6.8429906-1.4663551-10.0200933-2.3217289-1.5885514-.488785-3.0549065-.8553738-4.5212616-1.3441589-2.6731411-.9069137-5.3216649-1.8848302-7.9427569-2.9327102-1.2219626-.488785-2.321729-1.0997663-3.29929906-1.5885514-2.07733642-1.0997663-3.91028032-1.9551401-5.25443918-2.810514-1.46635512-.8553738-2.56612146-1.5885513-3.29929902-2.0773364L0 81.8538798c0 0 .36658878.2443925 1.2219626.7331775.73317756.4887851 1.8329439 1.0997664 3.29929902 1.9551402 1.46635512.8553738 3.29929902 1.7107476 5.37663544 2.6883177 2.07733644.9775701 4.52126164 1.9551402 7.20957934 2.810514 1.3441589.488785 2.6883177.9775701 4.1546728 1.3441588 1.4663552.4887851 2.9327103.8553739 4.5212617 1.2219626 3.1771027.7331776 6.4764018 1.4663552 10.0200933 2.0773365 6.9651868 1.2219626 14.5413549 1.9551401 22.1175231 2.1995326 3.5436915.2443926 49.4894857.9775701 49.4894857.9775701h0z" fill="url(#a)"/><path d="M256.001165 58.3921978c0-19.5514016-16.129907-38.3696256-35.314719-38.3696256-14.785748 0-31.526635 1.8329439-63.542056 42.5242985C115.719858 114.84687 94.2133165 89.3078516 92.9913539 87.597104c3.0549065 5.9876167 9.1647191 10.2644858 16.3742991 10.2644858h111.320793c19.429205 0 35.314719-19.9179904 35.314719-39.469392z" fill="url(#b)"/><path d="M109.487849 97.8615898c-10.1422896 0-18.4516353-8.1871494-18.4516353-18.329439 0-10.1422896 8.431542-19.7957941 18.3294393-19.7957941 19.429205 0 22.117523 17.5962614 52.422195 26.2721959 19.673598 5.621028 58.776401 11.8530372 58.776401 11.8530372h-111.0764z" fill="url(#c)"/><path d="M220.564249 97.8615898c-3.91028-1.5885514-19.184812-6.598598-21.750934-23.2172894-2.566121-16.8630839 7.576168-25.9056071 4.399065-45.3348125-2.810514-17.1074764-17.107476-25.53901831-31.404438-28.471728548-7.331776-1.46635512-15.396729-1.09976634-23.583879 1.832943898-22.972896 8.30934565-30.671261 34.45934535-26.394392 52.42219555 3.543692 14.7857475 18.207243 29.3271024 53.399766 35.5591117 30.06028 5.2544392 32.504205 5.7432242 45.334812 7.2095793z" fill="url(#d)"/><path d="M198.813315 74.6443004c-2.566121-16.8630839 7.576168-25.9056071 4.399065-45.3348125-.38485-2.1115535-.91564-4.193883-1.588551-6.2320092-11.11986 4.3990653-25.050233 14.6635512-44.479439 39.3471957C115.719858 114.84687 94.2133165 89.3078516 92.9913539 87.597104c3.0549065 5.9876167 9.2869161 10.2644858 16.4964951 10.2644858h111.198597c-4.032477-1.5885514-19.307009-6.598598-21.873131-23.2172894h0z" fill="url(#e)"/><path d="M126.595325 65.8461697c5.010047 9.2869158 26.027804 24.3170557 93.968924 32.0154201-53.766354-6.9651868-78.816587-17.1074764-93.968924-32.0154201z" fill="url(#f)"/><path d="M58.6542048 97.8615898c-2.0773364 0-3.6658878-1.7107476-3.6658878-3.788084 0-2.0773365 1.7107477-4.0324766 3.6658878-4.0324766 3.9102803 0 4.5212616 4.2768691 10.6310746 5.9876167 3.9102804 1.0997664 11.730841 1.7107477 11.730841 1.7107477l-22.3619156.1221962h0z" fill="url(#g)"/><path d="M109.487849 97.8615898c-5.254439 0-10.2644858-2.4439252-13.6859811-5.9876167-9.6535046-3.6658878-11.242056-9.409112-18.4516353-9.409112-4.0324766 0-7.3317756 3.9102803-7.3317756 7.9427569 0 4.0324765 3.299299 7.4539718 7.3317756 7.4539718h44.4794384-12.341822 0z" fill="url(#h)"/><path d="M239.993455 26.7433665c-1.221963-.9775701-2.566122-1.8329439-3.788084-2.5661215-1.344159-.7331775-2.810514-1.4663551-4.521262-1.9551401-3.177103-1.2219626-6.476402-1.8329439-9.653505-2.1995327h-1.344158c-5.743225 0-11.853038.2443925-19.062617 3.0549065.733178 1.9551401 1.344159 4.0324766 1.588551 6.2320092 2.199533 13.4415886-2.077336 22.1175231-4.032476 31.6488314 9.409112-7.5761681 27.494158-7.8205607 37.636448-7.2095794h1.099766c1.099767 0 2.077337-.1221962 2.932711-.3665887 9.897897-2.5661215 10.508878-17.5962615-.855374-26.6387847h0z" fill="url(#i)"/><path d="M199.3021 60.836123c-.855374 4.1546729-1.221962 8.6759345-.488785 13.8081774 2.566122 16.6186914 17.596262 21.2621493 21.750934 23.2172894h.122197c6.720794 0 12.952803-2.4439252 18.207242-6.2320092-1.221962-1.0997664-7.82056-6.9651869-9.7757-12.9528036-6.23201-18.9404203 7.942756-24.5614483 8.79813-24.9280371-6.84299-.1221962-29.204906-.3665887-38.614018 7.0873831h0z" fill="#e35702" opacity="0.47"/><path d="M198.813315 74.6443004c2.199533 14.4191587 14.296963 21.0177567 21.750934 23.2172894-4.276869-2.0773364-15.274532-8.7981307-15.152336-20.4067754.366589-22.7285044 24.19486-23.5838782 24.19486-23.5838782-10.020094 0-22.850701 1.0997663-30.426869 6.9651868-.97757 4.2768691-1.221963 8.6759345-.366589 13.8081774z" fill="#e66a09"/><path d="M114.009111 97.8615898c-4.276869-.1221962-15.2745329-1.4663551-21.1399534-10.2644858 3.1771028 6.4764018 9.5313084 10.2644858 16.7408874 10.2644858h4.399066z" fill="url(#k)"/><path d="M197.469156 74.6443004c-2.566121-16.8630839 8.431542-25.9056071 5.254439-45.3348125-.366588-2.1995326-1.221962-6.2320092-1.221962-6.2320092.733177 1.9551401 1.344159 4.0324766 1.588551 6.2320092 3.177103 19.4292054-6.965187 28.4717286-4.399065 45.3348125 2.566121 16.6186914 17.840654 21.628738 21.750934 23.2172894.122196 0-20.162383-4.8878504-22.972897-23.2172894h0z" fill="url(#l)"/><path d="M107.410513 97.8615898H58.5320086c-1.4663552 0-2.321729-.9775701-2.321729-.9775701 1.3441589.1221963 51.2002334.9775701 51.2002334.9775701h0z" fill="#eb7808"/><g style="fill:#e35702"><path d="M109.243456 97.8615898H79.6719615c-3.4214952 0-5.1322429-.6109813-5.1322429-.6109813l34.7037374.6109813h0z"/><path d="M199.3021 60.836123c9.409112-7.5761681 28.227336-7.8205606 38.736215-7.0873831 0 0-14.663552-.3665887-24.805841 1.832944-10.264486 2.3217289-13.930374 5.2544391-13.930374 5.2544391h0z"/></g></svg>