<svg width="512px" height="275px" viewBox="0 0 512 275" xmlns="http://www.w3.org/2000/svg" preserveAspectRatio="xMidYMid"><path d="M25.6523877 0v182.498415l80.6217893-90.8827448h3.664627L50.2053873 159.044803l78.7894767 115.802208h-25.652388l-67.795596-99.67785-9.8944923 11.360344v88.317506H0V0h25.6523877zM153.010067 184.729644c0-59.45322 38.361583-92.5619001 88.304022-92.5619001 45.961519 0 85.408808 23.4964821 85.408808 88.2898121 0 59.453221-38.361584 92.5619-88.304022 92.5619-45.961519 0-85.408808-23.496482-85.408808-88.289812zm23.796278.011425c0 62.634512 27.497153 85.89876 61.593622 85.89876 35.929613 0 64.526652-32.927858 64.526652-90.193698 0-62.634512-27.497153-85.8987594-61.593622-85.8987594-35.929613 0-64.526652 32.9278574-64.526652 90.1936974zm324.184026 87.216062c-43.328216 0-41.19732-25.276519-41.19732-25.276519v-4.984103c-7.102986 12.816264-20.59866 31.684651-55.758442 31.684651-41.55247 0-48.655456-26.344541-50.786352-40.584833-3.551493-23.85249 4.97209-41.652855 68.188668-45.924943 15.981719-1.424029 34.094334-.712015 38.356126-.356007v-59.097214c0 0 3.906642-32.0406573-37.290678-32.0406573-22.019257 0-49.365754 9.2561903-58.244487 14.2402923l-1.420598-2.492051c4.616942-2.136044 26.28105-14.5962997 64.282026-14.5962997 51.496651 0 57.534189 22.7844677 57.534189 34.8887157v119.262449c0 23.140475 16.336868 22.42846 16.336868 22.42846H512v2.848059h-11.009629zm-90.741725-.955599c26.626704 0 48.348488-24.237303 49.399542-38.707335v-43.771846c-4.204216-.36175-20.67073-1.808753-38.188299.361751-37.137244 4.34101-44.494623 17.364038-42.392515 43.771846 1.401405 17.725789 6.656676 38.345584 31.181272 38.345584z"/></svg>