<svg width="512px" height="228px" viewBox="0 0 512 228" xmlns="http://www.w3.org/2000/svg" preserveAspectRatio="xMidYMid"><defs><linearGradient x1="88.2351222%" y1="153.238579%" x2="16.2897271%" y2="-50.2786784%" id="a"><stop stop-color="#fff" offset="0%"/><stop stop-color="#fff" stop-opacity="0.8629" offset="13.71%"/><stop stop-color="#fff" stop-opacity="0" offset="100%"/></linearGradient><linearGradient x1="69.6286248%" y1="118.972808%" x2="44.7720663%" y2="24.2627264%" id="b"><stop stop-color="#fff" offset="0%"/><stop stop-color="#fff" stop-opacity="0.8629" offset="13.71%"/><stop stop-color="#fff" stop-opacity="0" offset="100%"/></linearGradient><linearGradient x1="98.4090949%" y1="199.021201%" x2="-30.581685%" y2="-165.517986%" id="c"><stop stop-color="#fff" offset="0%"/><stop stop-color="#fff" stop-opacity="0.8629" offset="13.71%"/><stop stop-color="#fff" stop-opacity="0" offset="100%"/></linearGradient></defs><g style="fill:#414042"><path d="M199.444343 159.257943c-3.130851-5.350498-9.872184-7.240582-15.329594-4.416735l-15.817073-17.833686c2.505073-7.28374 3.87433-15.096153 3.87433-23.24892 0-7.984061-1.327081-15.6699461-3.74682-22.8457928l13.397333-15.8602299c3.248552 1.3594483 7.026759 1.2525364 10.276291-.6581456 5.520184-3.2063755 7.38869-10.3194483 4.160736-15.8386513-3.237763-5.5201839-10.339065-7.4092874-15.871019-4.1607357-3.248552 1.8891035-5.190621 5.1592338-5.616307 8.6412261l-20.08472 3.8429425c-10.382222-11.9741302-24.649563-20.467249-40.870744-23.5245364l-7.62213-22.1444904c5.042514-3.3760613 6.699157-10.1487816 3.587924-15.47770114C106.544787.233881992 99.4425036-1.6562023 93.9233005 1.59234943 88.4031166 4.7987249 86.5238216 11.9323954 89.7615841 17.4525793c.8386207 1.4438008 1.9528582 2.6325824 3.2377624 3.5241686l-7.642728 22.7604598C69.6346875 47.113269 55.8548254 55.648564 45.8335534 67.474587l-22.4838621-4.2038927c-.105931-1.7409962-.5728122-3.4819924-1.5075555-5.095479-3.2269732-5.5201839-10.340046-7.3886896-15.85924906-4.1607356-5.520183905 3.2269732-7.38868965 10.340046-4.16171647 15.8602299 2.95135632 5.0523218 9.15126433 7.0061609 14.39485053 4.8188812l15.7748966 18.0681073c-2.0381916 6.6452107-3.1318314 13.6945289-3.1318314 20.9988659 0 8.173364 1.3692567 16.009318 3.895908 23.311693l-16.1996015 18.959694c-3.3446743-1.592889-7.38868966-1.549732-10.80692721.445303-5.541762455 3.249532-7.38868966 10.340046-4.16171648 15.880827 3.22697318 5.498606 10.34004599 7.38869 15.86022989 4.161717 3.4290268-2.017594 5.4358314-5.520184 5.7114483-9.215019l24.787862-4.862039c9.8201993 10.595065 22.7918468 18.216215 37.4417165 21.380414l8.0899924 22.9939c-4.5226667 3.524169-5.9027127 9.893763-2.9297778 14.968644 3.2269732 5.520184 10.3400459 7.387709 15.8710189 4.160736 5.509395-3.226973 7.377901-10.340046 4.150927-15.880828-.83862-1.401624-1.93226-2.590406-3.184796-3.50259l7.718252-22.63295c14.957855-3.099464 28.216889-10.850084 38.185196-21.699188l24.745686 4.777686c.223632 1.358467.636567 2.696337 1.390835 3.947893 3.216184 5.521164 10.318467 7.388689 15.86023 4.161716 5.518222-3.226973 7.375938-10.360643 4.158774-15.86023zm-98.939587 7.197426c-29.1084746 0-52.6967658-23.588292-52.6967658-52.695786 0-29.1094558 23.5882912-52.697747 52.6967658-52.697747 29.098667 0 52.697748 23.5882912 52.697748 52.697747 0 29.107494-23.599081 52.695786-52.697748 52.695786z"/><path d="M90.6541511 117.835966c-.5845824-1.975417-.8072337-3.673256-.7003218-5.107249.1167203-1.602697.636567-3.279938 1.5389425-4.95718.9229732-1.677241 1.9744368-3.036689 3.1524291-4.055785l29.4694251-25.2655328c-8.980597-5.9870652-20.21223-8.6000307-31.6557239-6.4117702-23.0468659 4.4579311-38.1106514 26.7299311-33.673318 49.766008 0 0 .2971954 2.038191 1.3378697 5.139617.0627739.189302.1265287.381547.2020536.572812.1167203.339371.2442299.699341.3707587 1.061272.467862 1.189762.9347432 2.355985 1.4653793 3.503571l.0421762-.02256c2.9935326 6.242085 8.4931188 14.013303 18.3966897 19.236292.1598774.062773.3187739.148107.4776705.23344.4884597.255019.9769195.487479 1.4653793.72092.3393716.148107.6787433.298176.9975172.446283.1490881.062774.2971954.12751.4462835.211862v-.020597c7.50541 3.184797 15.9877395 4.235279 24.5760002 2.591387 4.087172-.786636 7.930115-2.165702 11.475862-3.971433l-25.6902376-27.664675c-1.8900843-1.972475-3.1328123-4.010666-3.6948353-6.006682z"/></g><path d="M134.635147 88.4508935l-25.000705 20.5741605c-.922973.742498-1.783172 1.464399-2.590406 2.250054-.636567.594391-.987709 1.422222-1.062253 2.484475-.084352 1.423203.211862 2.601196.97692 3.587924.880797 1.124045 1.804751 2.208858 2.738513 3.207356l21.741364 22.334774c9.002176-9.596567 13.461088-23.247939 10.785349-37.15433-1.240766-6.4774863-3.893946-12.3380227-7.588782-17.2844135z" fill="#27aae1"/><path d="M94.2626722 123.864227c-1.8900843-1.994054-3.1318314-4.011648-3.6948353-6.028261-.5836015-1.953839-.8062528-3.651678-.7003218-5.095479.1167203-1.592889.636567-3.290728 1.5389425-4.947371.923954-1.697839 1.9744368-3.057288 3.15341-4.055786l29.4694254-25.2655323c-8.980598-5.9870651-20.21223-8.6206284-31.6567051-6.4117701-23.0468659 4.4363525-38.1106513 26.7309119-33.673318 49.7679694 0 0 .2971954 2.03623 1.3378697 5.137655.0637548.168705.1275096.381548.2020537.572812.1167203.339372.2442298.701303.3717394 1.040675.4668812 1.21036.9347433 2.377563 1.4653793 3.525149l.0421763-.044138c.4031264.850391.9769195 1.762575 1.485977 2.655142 12.1232184-1.316291 23.8011341-3.440797 34.7993257-6.391172l-4.1411188-4.459893z" fill="url(#a)"/><path d="M168.339852 90.91379l13.397334-15.8386513c4.703141-6.4961226 7.813394-13.4826667 9.745655-20.7222682-3.429027-1.804751-7.589763-2.0597701-11.177686.0421762-3.249533 1.910682-5.191602 5.1798315-5.616307 8.6618238l-20.085701 3.8429425c-10.382222-11.9957088-24.649563-20.4878467-40.870743-23.5451341l-7.62213-22.1238927c5.042513-3.3750805 6.699157-10.1487816 3.587923-15.47770114C106.460435.232901149 99.3473618-1.6356046 93.8379672 1.59136858c-5.5201839 3.22795403-7.3984981 10.34004602-4.1617165 15.86022992.8386207 1.4438007 1.9538391 2.6325823 3.2377625 3.5457471l-7.6437088 22.7388812c-15.7219311 3.3760613-29.5017931 11.9113563-39.5220843 23.757977L23.264358 63.2903111c-.105931-1.7400153-.5728123-3.4819923-1.5075555-5.1170575-3.2269732-5.5201839-10.340046-7.3671111-15.86022993-4.1401379-5.520183911 3.2269732-7.38868966 10.340046-4.16171648 15.8386513 2.95135632 5.0523219 9.15126441 7.0277395 14.39485061 4.8404598l15.7748965 18.0465288c-2.0381916 6.6452107-3.1210421 13.6945284-3.1210421 21.0204444 0 7.834973 1.3162912 15.350192 3.6516781 22.39951 1.2525364.020597 2.4736859.126528 3.7370115.126528 5.5731495 0 11.0619464-.191264 16.496797-.552214-3.0994636-6.708966-4.9463908-14.097655-4.9463908-21.974805 0-29.1094558 23.5882911-52.7183447 52.6967661-52.7183447 25.903081 0 47.33646 18.7468506 51.763004 43.3767967 5.977257-4.053823 11.444475-8.3852258 16.284935-13.0344212-.062774-.1481073-.073563-.3187739-.12751-.4884598z" fill="url(#b)"/><path d="M134.549814 88.472472l-24.999724 20.574161c-.923954.720919-1.783173 1.464398-2.590406 2.228475-.636567.615969-.986728 1.422222-1.061272 2.506054-.085334 1.423203.211862 2.589425.976919 3.566345.880797 1.147586 1.804751 2.229455 2.738514 3.207356l3.226973 3.310345c10.850084-3.756629 20.828199-8.34305 29.89413-13.54446-.12751-1.507556-.297195-3.03669-.594391-4.586422-1.241747-6.4765053-3.895908-12.3144823-7.590743-17.261854z" fill="url(#c)"/><path d="M248.702274 114.0352l20.339739-22.4426667h21.645242l-23.599081 26.0933637 25.032092 36.369655h-20.860567l-16.305533-23.204781h-10.03108v23.204781h-18.122054V61.486541h18.122054V114.0352h3.779188zm105.647571-15.9239847c6.391172 6.1361537 9.650513 14.2251647 9.650513 24.2689957 0 10.168399-3.259341 18.364322-9.650513 24.627004-6.391173 6.262682-14.861732 9.384705-25.42443 9.384705-10.563678 0-19.034237-3.122023-25.552919-9.384705-6.518682-6.262682-9.777042-14.458605-9.777042-24.627004 0-10.043831 3.25836-18.132842 9.638743-24.2689957 6.528491-6.1135938 15.12754-9.2571954 25.690238-9.2571954 10.563678 9.809e-4 19.035218 3.1436016 25.42541 9.2571954zm-25.423449 6.9218087c-10.297869 0-17.347187 6.90023-17.347187 17.347187 0 10.551909 7.049318 17.854284 17.347187 17.854284 10.296889 0 17.207908-7.302375 17.207908-17.854284 0-10.446957-6.911019-17.347187-17.207908-17.347187zM444.4795 122.50674c0 9.639724-2.867004 17.472736-8.472521 23.460782-5.604537 5.860536-12.907893 8.874667-21.645242 8.874667-7.430866 0-13.55623-.275617-18.640919-.785656v30.106974h-18.122054v-91.50774c15.510069-1.9754176 27.378268-3.0151111 35.584-3.0151111 19.693364-9.808e-4 30.776889 12.6538541 31.296736 32.8660841zm-17.601226.509058c0-12.250728-5.478008-18.386882-16.560552-18.386882-4.172506 0-8.992368.275617-14.596904.785656v33.248613c4.563862.658145 9.777042 1.040674 15.774896 1.040674 8.991387 0 15.38256-7.303356 15.38256-16.688061zm31.741057 13.036383c9.511234 3.651678 17.983755 5.477027 25.287111 5.477027 7.166039 0 10.689226-1.549732 10.689226-4.817901 0-2.867984-2.738513-4.310804-6.911019-5.223969-2.218666-.635586-3.38587-.764077-6.391172-1.294713l-3.38587-.657164c-14.724414-2.739495-21.517732-8.216522-21.517732-18.76941 0-13.0363836 10.562698-20.8497782 27.377288-20.8497782 9.257195 0 17.994544 1.5497318 26.211065 4.6923525l-4.044016 13.6729497c-10.033042-2.867003-17.601226-4.289226-22.814406-4.289226-5.732046 0-8.991387 2.080368-8.991387 5.350499 0 2.866022 2.080368 3.906697 5.733027 5.074881 2.218667.531617 3.25836.657164 6.400981 1.295693l3.640889.657165c15.245241 3.121042 21.636414 7.559356 21.636414 18.6419 0 13.949548-10.945226 20.997885-28.292414 20.997885-9.649533 0-19.033257-1.826329-28.291433-5.478007l3.663448-14.480184z" fill="#414042"/></svg>