<svg width="256px" height="229px" viewBox="0 0 256 229" xmlns="http://www.w3.org/2000/svg" preserveAspectRatio="xMidYMid"><defs><linearGradient x1="-33.9227522%" y1="50.0225181%" x2="157.868335%" y2="50.0225181%" id="a"><stop offset="0%"/><stop stop-color="#2e3192" offset="28%"/><stop stop-color="#3e5aa8" offset="59%"/><stop stop-color="#0093d3" offset="82%"/><stop stop-color="#00aeef" offset="100%"/></linearGradient><linearGradient x1="-46.4245177%" y1="49.9675978%" x2="198.910641%" y2="49.9675978%" id="b"><stop offset="0%"/><stop stop-color="#2e3192" offset="23%"/><stop stop-color="#3e5aa8" offset="47%"/><stop stop-color="#0075be" offset="78%"/><stop stop-color="#00aeef" offset="100%"/></linearGradient><linearGradient x1="-60.2632611%" y1="104.92211%" x2="192.565635%" y2="-14.6784239%" id="c"><stop stop-color="#f58220" offset="0%"/><stop stop-color="#ed1c24" offset="47%"/><stop stop-color="#ae2538" offset="100%"/></linearGradient><linearGradient x1="-3.60831579%" y1="95.5496482%" x2="73.5909474%" y2="2.57918126%" id="d"><stop stop-color="#f58220" offset="0%"/><stop stop-color="#ed1c24" offset="38%"/><stop stop-color="#a71c20" offset="100%"/></linearGradient><linearGradient x1="-9.76088751%" y1="17.4503069%" x2="142.413209%" y2="97.6840441%" id="e"><stop stop-color="#f58220" offset="0%"/><stop stop-color="#ffcb05" offset="50%"/><stop stop-color="#fff200" offset="100%"/></linearGradient><linearGradient x1="28.0614737%" y1="-13.8545035%" x2="63.0765263%" y2="118.707644%" id="f"><stop stop-color="#fff200" offset="0%"/><stop stop-color="#f99d1c" offset="100%"/></linearGradient><linearGradient x1="33.0926777%" y1="77.2655263%" x2="86.9628794%" y2="36.7439474%" id="g"><stop stop-color="#f26522" offset="0%"/><stop stop-color="#c61d23" offset="100%"/></linearGradient><linearGradient x1="40.9350773%" y1="59.8838596%" x2="67.7493779%" y2="-81.3819298%" id="h"><stop stop-color="#2e3192" offset="0%"/><stop stop-color="#61a2d8" offset="100%"/></linearGradient><linearGradient x1="40.9655219%" y1="40.117193%" x2="67.7153346%" y2="181.377544%" id="i"><stop stop-color="#2e3192" offset="0%"/><stop stop-color="#61a2d8" offset="100%"/></linearGradient></defs><g transform="translate(-1)"><path d="M192.9 3.5l-64 110.8 64 110.8c3.6-2.1 6.6-5.1 8.8-9l51.8-89.8c4.4-7.7 4.4-16.5 0-24.2l-51.8-89.8c-2.2-3.7-5.2-6.7-8.8-8.8h0 0z" fill="url(#a)"/><path d="M128.9 114.4l41.4 71.6c.4-.5.8-1.1 1.1-1.7l35.6-61.6c3-5.3 3-11.4 0-16.6l-35.6-61.6c-.4-.6-.7-1.1-1.1-1.7l-41.4 71.6h0z" fill="url(#b)"/><path d="M128.9 114.4 96 57.4l95-54.8c.7.3 1.3.6 1.9 1l-64 110.8h0z" fill="url(#c)"/><path d="M56.1 216.3c-17.3-29.9-34.6-59.9-51.8-89.8-1.8-3.2-2.9-6.6-3.2-10l95 54.8-31.2 53.9c-3.5-2.1-6.6-5.1-8.8-8.9h0 0z" fill="url(#d)"/><path d="M96 171.4l95 54.8c.7-.3 1.3-.6 1.9-1l-64-110.8-32.9 57h0z" fill="url(#e)"/><path d="M56.2 12.4 4.3 102.3c-1.8 3.2-2.9 6.5-3.2 9.9l95-54.8L64.9 3.5c-3.5 2.1-6.5 5-8.7 8.9h0 0z" fill="url(#f)"/><path d="M96 57.3l32.9 57-32.9 57-95-54.8c-.1-1.4-.1-2.9 0-4.3l95-54.9h0z" fill="url(#g)"/><path d="M96 57.3l95-54.8c-3.1-1.4-6.6-2.2-10.2-2.2H77.1C72.7.3 68.5 1.4 65 3.5l31 53.8h0z" fill="url(#h)"/><path d="M64.9 225.2 96 171.4l95 54.8c-3.1 1.4-6.6 2.2-10.2 2.2H77.1c-4.5 0-8.6-1.1-12.2-3.2h0 0z" fill="url(#i)"/></g></svg>