<svg width="512px" height="76px" viewBox="0 0 512 76" xmlns="http://www.w3.org/2000/svg" preserveAspectRatio="xMidYMid"><path d="M283.188571 49.6953168h-25.552c-.369454-.0014015-.711356.1951922-.896.5152-.18526.3225687-.18526.7192599 0 1.0418286.184686.3291429 4.697143 8.0886857 13.678172 8.0886857 8.9824 0 13.481143-7.7590857 13.666286-8.0886857.174148-.3268843.168279-.7202848-.015543-1.0418286-.18065-.316861-.516637-.51326-.881372-.5152h4.57e-4zm.412343-27.4107428c1.1808 0 2.121143-.9682286 2.121143-2.1536 0-1.1917715-.940343-2.1531429-2.121143-2.1531429-5.024914 0-9.096228 4.1138286-9.096228 9.1652572v10.5577142c0 1.1844572.954057 2.1458286 2.135771 2.1458286h6.960457c1.1808 0 2.121143-.9613714 2.121143-2.1458286v-7.0262857c0-1.1908571-.940343-2.1531428-2.121143-2.1531428h-4.853485v-1.3778286c0-2.6692571 2.177371-4.8585143 4.853942-4.8585143l-4.57e-4-4.571e-4zm-26.390857 17.5625143c-1.1808 0-2.121143-.9613715-2.121143-2.1458286V27.1430883c0-5.0514286 4.070857-9.1652572 9.096229-9.1652572 1.181714 0 2.134857.9613714 2.134857 2.1531429 0 1.1853714-.953143 2.1531428-2.134857 2.1531428-2.661943 0-4.839314 2.1897143-4.839314 4.8589715v1.3782857h4.839314c1.181714 0 2.134857.9618285 2.134857 2.1526857v7.0272c0 1.1844571-.953143 2.1458286-2.134857 2.1458286h-6.975086zM4.65508571 3.20023111C2.08594286 3.20023111 0 5.29577397 0 7.88685969V69.1302883c0 2.592 2.08594286 4.6870857 4.65508571 4.6870857 2.56228572 0 4.64045715-2.0946286 4.64045715-4.6870857V7.88685969c0-2.59108572-2.07817143-4.68662858-4.64045715-4.68662858zM468.818286 12.5666311H489.152c7.353143 0 13.338514 6.0356572 13.338514 13.4578286 0 7.4212571-5.985371 13.4569143-13.338514 13.4569143h-20.333714V12.5666311zm29.188571 34.4585143c8.093257-3.4820571 13.779657-11.584 13.779657-21.0011429 0-12.5897142-10.150857-22.83062853-22.634514-22.83062853h-24.981486c-2.561828 0-4.648228 2.09462857-4.648228 4.68571429V69.1312025c0 2.592 2.0864 4.6861715 4.648228 4.6861715 2.561372 0 4.647772-2.0937143 4.647772-4.6857143V48.8550883H488.5056l11.3088 22.4c.550967 1.1060614 1.52164 1.9456438 2.695542 2.3315056 1.173903.3858617 2.453401.2859105 3.553144-.2775628 2.284343-1.1771428 3.195885-3.9981714 2.036571-6.3026286l-10.0928-19.9812571zM49.5657143 4.54240254c-.8771847-.86921845-2.0652384-1.35203342-3.3000967-1.3411313-1.2348582.01090212-2.4142022.514618-3.2759033 1.39918845L13.1396571 35.225374c-1.7728 1.8230857-1.7728 4.7510857 0 6.5741714l29.8500572 30.6185143c.9115428.9334857 2.1065143 1.3988571 3.3170286 1.3988571 1.1739428 0 2.3483428-.4434285 3.2594285-1.3421714 1.8217143-1.8153143 1.8514286-4.7862857.0571429-6.6299429L22.976 38.5122311 49.6237714 11.174174c1.7938286-1.8518857 1.7645715-4.81554289-.0576-6.63177146h-4.571e-4zm59.9003427-1.34948571c-2.561828 0-4.647771 2.09554286-4.647771 4.68708571V46.5520025c0 9.8669715-7.957486 17.8912-17.7426289 17.8912-9.7796571 0-17.7376-8.0242285-17.7376-17.8912V7.88000254c0-2.59154285-2.0854857-4.68708571-4.6550857-4.68708571-2.5618285 0-4.6409143 2.09554286-4.6409143 4.68708571V46.5520025c0 15.0363429 12.1284572 27.2653715 27.0336 27.2653715 14.9106289 0 27.0381719-12.2285715 27.0381719-27.2653715V7.88000254c0-2.59154285-2.085029-4.68708571-4.647772-4.68708571zM147.0176 32.6347454c-16.4832-3.8902857-15.173943-11.1542857-14.690286-13.8957714.512915-2.8128 2.262857-4.7954286 5.374172-6.0726857 6.155428-2.5188572 15.978514-1.3202286 21.466057 2.6203428 1.003256.7208406 2.253182 1.0103931 3.471208.8041256 1.218026-.2062676 2.302925-.8912127 3.012906-1.9021827 1.487086-2.1106286 1.003429-5.0317715-1.089828-6.53851431-8-5.74902858-21.330286-7.364571433-30.354743-3.66811429-6.037029 2.47634286-9.950629 7.1204571-11.018515 13.0921143-1.266742 7.0048-.113828 19.5373714 21.708343 24.6898286 7.004343 1.6516571 12.085029 4.736 13.935543 8.4699428 1.195886 2.4182857 1.095772 5.1533714-.305371 8.3602286-1.460115 3.3531428-5.210515 4.7734857-8.100115 5.3691428-7.168 1.4706286-16.3776-.5312-20.562285-4.4644571-1.879772-1.7723429-4.826057-1.6804571-6.569143.2226286-1.758172 1.8953143-1.658057 4.8594285.220343 6.6253714 4.954514 4.6642286 13.609143 7.4701714 21.963885 7.4701714 2.320915 0 4.626286-.2148571 6.8192-.6665143 7.117715-1.4793142 12.3552-5.3042285 14.7328-10.7794285 2.520229-5.7504 2.555429-11.3993143.114286-16.3222857-3.131428-6.3305143-10.284343-11.0971429-20.128457-13.4139429zm75.508571-29.44182857h-45.095314c-2.569143 0-4.647771 2.09554286-4.647771 4.68708571 0 2.59108576 2.079085 4.68571426 4.647771 4.68571426H195.3312v56.5645715c0 2.592 2.078171 4.6870857 4.647314 4.6870857 2.570515 0 4.647772-2.0946286 4.647772-4.6870857V12.566174h17.900343c2.570057 0 4.647771-2.0950857 4.647771-4.68617146 0-2.59154285-2.077714-4.68708571-4.647771-4.68708571h-4.58e-4zm162.442058.36617143c-1.723429-.71725715-3.708343-.35885715-5.053715.96914285L353.480229 30.5680025 327.044571 4.52823111c-1.335771-1.328-3.323428-1.6864-5.052342-.96914285-1.721143.73142857-2.846172 2.43337143-2.846172 4.32091428V69.1302883c0 2.592 2.084572 4.6870857 4.654629 4.6870857 2.561828 0 4.640914-2.0946286 4.640914-4.6870857v-50.1184l21.792 21.4605714c1.800591 1.7804357 4.698609 1.7804357 6.4992 0l21.7856-21.4605714v50.1184c0 2.592 2.079086 4.6870857 4.647771 4.6870857 2.570515 0 4.646858-2.0946286 4.646858-4.6870857V7.88000254c0-1.888-1.122286-3.58948571-2.8448-4.32091428zm61.509028 9.00754284c2.561829 0 4.647772-2.096 4.647772-4.6870857 0-2.59154286-2.085943-4.68571429-4.647772-4.68571429h-43.338514c-2.570514 0-4.647772 2.09417143-4.647772 4.68571429v61.2512c0 2.592 2.077258 4.6861714 4.647772 4.6861714h43.338514c2.561829 0 4.647772-2.0937143 4.647772-4.6857143 0-2.592-2.085943-4.6875428-4.647772-4.6875428h-38.690743V42.4889168H439.1744c2.569143 0 4.654171-2.0964571 4.654171-4.6866285 0-2.5915429-2.085028-4.6870858-4.653714-4.6870858h-31.388343V12.5666311h38.690743z"/><path d="M285.1056 0h-28.8672C243.426057 0 233 10.5142858 233 23.4340572v29.1177143c0 12.9193143 10.426057 23.4340571 23.2384 23.4340571h19.578514l-12.909257-9.3741714H256.2384c-7.687771 0-13.943314-6.3072-13.943314-14.0598857V23.4340572c0-7.7517714 6.255543-14.06080004 13.943314-14.06080004h28.8672c7.686857 0 13.951543 6.30857144 13.951543 14.06080004v29.1177143c0 7.7531428-6.264686 14.0598857-13.952 14.0598857h-5.486629v9.3741714h5.487086c12.812343 0 23.247086-10.5142857 23.247086-23.4340571V23.4340572C308.352686 10.5147429 297.917943 0 285.1056 0" fill="#ff655d"/></svg>