<svg width="256px" height="194px" viewBox="0 0 256 194" xmlns="http://www.w3.org/2000/svg" preserveAspectRatio="xMidYMid"><title>LanguageTool</title><path d="M36.4518555 0h24.8502767c4.9551179 0 9.707287 1.96841291 13.2110845 5.47221035C78.0170141 8.9760078 79.985427 13.7281769 79.985427 18.6832948v72.4911838h48.576567v26.1566124H72.5121091c-10.3184988 0-18.6832948-8.364796-18.6832948-18.6832945V26.1566127H36.4518555V0h0zM226.462458 18.6832948v19.4306266h-26.156612V26.1566127h-20.554614v91.1744783h-26.156613V26.1566127h-20.548635v11.9573087h-26.156612V18.6832948C106.889372 8.364796 115.254168 0 125.572666 0h82.206497c10.318499 0 18.683295 8.364796 18.683295 18.6832948z"/><path d="M24.3271445 187.484621 0 170.110652c7.14449193-10.005278 14.5191621-17.744646 22.2764661-23.176254 8.6212195-6.032462 17.7805179-9.24001 27.2536957-9.24001 8.7946006 0 16.4143955 2.13438 23.2210935 6.217801 2.7790865 1.68771 5.395951 3.629093 7.8170905 5.799294 1.7607137 1.548472 3.0162311 2.768117 5.6886896 5.440576 4.0505383 4.047549 5.7305402 5.533244 7.7453467 6.740932 2.1851982 1.312315 4.4929588 1.95801 7.8410049 1.95801 3.351036 0 5.667765-.648684 7.86492-1.963988 2.023775-1.210678 3.721712-2.705341 7.772251-6.746912l.035872-.035872c2.660501-2.654522 3.927976-3.883136 5.6857-5.431607 2.417518-2.161915 5.029296-4.096232 7.802144-5.778369 6.79474-4.071464 14.390621-6.199865 23.152339-6.199865 8.761718 0 16.357598 2.128401 23.152339 6.199865 2.738223 1.644129 5.255237 3.536374 7.802144 5.778369 1.760713 1.548471 3.028188 2.777085 5.6857 5.431607l.038861.035872c4.047549 4.041571 5.745487 5.536234 7.769261 6.746912 2.197156 1.315304 4.513884 1.963988 7.86492 1.963988 2.983349 0 6.277587-1.153881 10.112894-3.838296 4.699222-3.28826 9.781078-8.627199 15.090124-16.058666L256 161.328009c-7.147481 10.005278-14.519162 17.744646-22.276466 23.176253-8.62122 6.032462-17.780518 9.24001-27.253696 9.24001-8.791611 0-16.411406-2.13139-23.224083-6.211821-2.782936-1.685269-5.403811-3.624656-7.829047-5.793317-1.763703-1.55146-3.034168-2.780074-5.697658-5.440575l-.038861-.038861c-4.038581-4.029613-5.73054-5.518298-7.742358-6.725986-2.17623-1.303347-4.466054-1.946052-7.781218-1.946052-3.315164 0-5.604989.642705-7.781219 1.946052-2.011817 1.207688-3.703776 2.696373-7.742357 6.725986l-.035872.038861c-2.66648 2.660501-3.936944 3.889115-5.700647 5.440575-2.555875 2.247975-5.081856 4.149187-7.832037 5.793317-6.809688 4.080431-14.426493 6.211821-23.221094 6.211821-8.7946002 0-16.4114059-2.134379-23.2210932-6.2178-2.7786581-1.687216-5.3954779-3.627566-7.8170905-5.796305-1.7577244-1.551461-3.0162311-2.771107-5.6857003-5.440576-4.0505383-4.050538-5.7335295-5.536234-7.748336-6.743922-2.1851982-1.312315-4.4929587-1.958009-7.8410052-1.958009-2.9833485 0-6.277587 1.15388-10.1128938 3.838296-4.6992223 3.28826-9.7810785 8.627198-15.0901235 16.058665z" fill="#239aff"/></svg>