<svg width="256px" height="256px" viewBox="0 0 256 256" xmlns="http://www.w3.org/2000/svg" preserveAspectRatio="xMidYMid"><title>Lateral</title><defs><circle id="d" cx="128" cy="128" r="128"/><linearGradient x1="1.38181042e-06%" y1="73.25%" x2="37.75%" y2="36.5833333%" id="g"><stop stop-color="#0060ff"/><stop stop-color="#1f66d6" offset="1"/></linearGradient><linearGradient x1="34.7222222%" y1="1.11882917e-06%" x2="92.0138889%" y2="90.75%" id="h"><stop stop-color="#1f6ae2"/><stop stop-color="#2e7bed" offset="1"/></linearGradient><path id="e" d="M234.666667 256V0H0l192 256z"/><path id="f" d="M186.453333 0 0 52.6933333v38.4h256V73.6z"/></defs><mask id="a" fill="#fff"><use href="#d"/></mask><g mask="url(#a)"><g transform="translate(-122.168533 -69.99043)"><path fill="url(#g)" d="M378.168533 325.99043v-256h-256v255.786667z"/><g style="fill:#115ede"><path transform="translate(100.616616 100.918377)rotate(-45)translate(-100.616616 -100.918377)" d="M-27.3833837 100.278377H228.616616v1.28H-27.3833837z"/><path transform="translate(116.003283 116.305044)rotate(-45)translate(-116.003283 -116.305044)" d="M-11.996717 115.665044h256v1.28h-256z"/><path transform="translate(131.38995 131.69171)rotate(-45)translate(-131.38995 -131.69171)" d="M3.38994967 131.05171H259.38995v1.28H3.38994967z"/><path transform="translate(146.776083 147.078377)rotate(-45)translate(-146.776083 -147.078377)" d="M18.776083 146.438377h256v1.28h-256z"/><path transform="translate(162.163283 162.465044)rotate(-45)translate(-162.163283 -162.465044)" d="M34.163283 161.825044h256v1.28h-256z"/><path transform="translate(177.550003 177.85171)rotate(-45)translate(-177.550003 -177.85171)" d="M49.550003 177.21171h256v1.28h-256z"/><path transform="translate(192.936403 193.237844)rotate(-45)translate(-192.936403 -193.237844)" d="M64.936403 192.597844h256v1.28h-256z"/><path transform="translate(208.323134 208.62451)rotate(-45)translate(-208.323134 -208.62451)" d="M80.3231337 207.98451H336.323134v1.28H80.3231337z"/><path transform="translate(223.709523 224.011177)rotate(-45)translate(-223.709523 -224.011177)" d="M95.709523 223.371177h256v1.28h-256z"/><path transform="translate(239.096243 239.398377)rotate(-45)translate(-239.096243 -239.398377)" d="M111.096243 238.758377h256v1.28h-256z"/><path transform="translate(90.962216 244.829416)rotate(-45)translate(-90.962216 -244.829416)" d="M90.3222163 116.829416h1.28v256h-1.28z"/><path transform="translate(106.34835 229.442216)rotate(-45)translate(-106.34835 -229.442216)" d="M105.70835 101.442216h1.28v256h-1.28z"/><path transform="translate(121.73555 214.05555)rotate(-45)translate(-121.73555 -214.05555)" d="M121.09555 86.0555497h1.28V342.05555h-1.28z"/><path transform="translate(137.122216 198.66867)rotate(-45)translate(-137.122216 -198.66867)" d="M136.482216 70.6686697h1.28V326.66867h-1.28z"/><path transform="translate(152.508883 183.28195)rotate(-45)translate(-152.508883 -183.28195)" d="M151.868883 55.2819497h1.28V311.28195h-1.28z"/><path transform="translate(167.89539 167.89587)rotate(-45)translate(-167.89539 -167.89587)" d="M167.25539 39.8958697h1.28V295.89587h-1.28z"/><path transform="translate(183.28179 152.50915)rotate(-45)translate(-183.28179 -152.50915)" d="M182.64179 24.5091497h1.28V280.50915h-1.28z"/><path transform="translate(198.66883 137.12243)rotate(-45)translate(-198.66883 -137.12243)" d="M198.02883 9.12242967h1.28V265.12243h-1.28z"/><path transform="translate(214.05523 121.73571)rotate(-45)translate(-214.05523 -121.73571)" d="M213.41523-6.26429033h1.28V249.73571h-1.28z"/><path transform="translate(229.44195 106.348883)rotate(-45)translate(-229.44195 -106.348883)" d="M228.80195-21.651117h1.28v256h-1.28z"/><path transform="translate(244.82835 90.962216)rotate(-45)translate(-244.82835 -90.962216)" d="M244.18835-37.0377837h1.28V218.962216h-1.28z"/></g><path fill="url(#h)" d="M378.168533 325.99043v-256H143.501867l192 256z"/><g transform="translate(143.501867 69.99043)"><mask id="b" fill="#fff"><use href="#e"/></mask><g mask="url(#b)" fill="#3582f7"><g transform="translate(-62.626933 -150.60163)"><path transform="translate(100.61683 100.918217)rotate(-45)translate(-100.61683 -100.918217)" d="M-27.3831703 100.278217H228.61683v1.28H-27.3831703z"/><path transform="translate(254.483016 254.78451)rotate(-45)translate(-254.483016 -254.78451)" d="M126.483016 254.14451h256v1.28h-256z"/><path transform="translate(116.00323 116.305044)rotate(-45)translate(-116.00323 -116.305044)" d="M-11.9967703 115.665044H244.00323v1.28H-11.9967703z"/><path transform="translate(269.869683 270.17171)rotate(-45)translate(-269.869683 -270.17171)" d="M141.869683 269.53171h256v1.28h-256z"/><path transform="translate(131.389928 131.69171)rotate(-45)translate(-131.389928 -131.69171)" d="M3.38992833 131.05171H259.389928v1.28H3.38992833z"/><path transform="translate(285.25635 285.558377)rotate(-45)translate(-285.25635 -285.558377)" d="M157.25635 284.918377h256v1.28h-256z"/><path transform="translate(146.77667 147.078377)rotate(-45)translate(-146.77667 -147.078377)" d="M18.7766697 146.438377H274.77667v1.28H18.7766697z"/><path transform="translate(300.643016 300.945044)rotate(-45)translate(-300.643016 -300.945044)" d="M172.643016 300.305044h256v1.28h-256z"/><path transform="translate(162.16339 162.465044)rotate(-45)translate(-162.16339 -162.465044)" d="M34.1633897 161.825044H290.16339v1.28H34.1633897z"/><path transform="translate(316.029683 316.331177)rotate(-45)translate(-316.029683 -316.331177)" d="M188.029683 315.691177h256v1.28h-256z"/><path transform="translate(177.549736 177.85171)rotate(-45)translate(-177.549736 -177.85171)" d="M49.5497363 177.21171H305.549736v1.28H49.5497363z"/><path transform="translate(331.41635 331.717844)rotate(-45)translate(-331.41635 -331.717844)" d="M203.41635 331.077844h256v1.28h-256z"/><path transform="translate(192.93635 193.237844)rotate(-45)translate(-192.93635 -193.237844)" d="M64.9363497 192.597844H320.93635v1.28H64.9363497z"/><path transform="translate(346.803016 347.10451)rotate(-45)translate(-346.803016 -347.10451)" d="M218.803016 346.46451h256v1.28h-256z"/><path transform="translate(208.323016 208.62451)rotate(-45)translate(-208.323016 -208.62451)" d="M80.3230163 207.98451H336.323016v1.28H80.3230163z"/><path transform="translate(362.189683 362.491177)rotate(-45)translate(-362.189683 -362.491177)" d="M234.189683 361.851177h256v1.28h-256z"/><path transform="translate(223.709683 224.011177)rotate(-45)translate(-223.709683 -224.011177)" d="M95.709683 223.371177h256v1.28h-256z"/><path transform="translate(377.57635 377.877844)rotate(-45)translate(-377.57635 -377.877844)" d="M249.57635 377.237844h256v1.28h-256z"/><path transform="translate(239.09635 239.397844)rotate(-45)translate(-239.09635 -239.397844)" d="M111.09635 238.757844h256v1.28h-256z"/><path transform="translate(166.537789 320.404242)rotate(-45)translate(-166.537789 -320.404242)" d="M165.897789 85.5242424h1.28V555.284242h-1.28z"/><path transform="translate(181.924509 305.017522)rotate(-45)translate(-181.924509 -305.017522)" d="M181.284509 70.1375224h1.28V539.897522h-1.28z"/><path transform="translate(197.310856 289.630802)rotate(-45)translate(-197.310856 -289.630802)" d="M196.670856 54.7508024h1.28V524.510802h-1.28z"/><path transform="translate(212.697928 274.244082)rotate(-45)translate(-212.697928 -274.244082)" d="M212.057928 39.3640824h1.28V509.124082h-1.28z"/><path transform="translate(228.084296 258.857256)rotate(-45)translate(-228.084296 -258.857256)" d="M227.444296 23.9772558h1.28V493.737256h-1.28z"/><path transform="translate(243.471016 243.471122)rotate(-45)translate(-243.471016 -243.471122)" d="M242.831016 8.59112244h1.28V478.351122h-1.28z"/><path transform="translate(258.857416 228.084456)rotate(-45)translate(-258.857416 -228.084456)" d="M258.217416-6.79554423h1.28V462.964456h-1.28z"/><path transform="translate(274.244189 212.697789)rotate(-45)translate(-274.244189 -212.697789)" d="M273.604189-22.1822109h1.28V447.577789h-1.28z"/><path transform="translate(289.630856 197.311122)rotate(-45)translate(-289.630856 -197.311122)" d="M288.990856-37.5688776h1.28V432.191122h-1.28z"/><path transform="translate(305.017522 181.924456)rotate(-45)translate(-305.017522 -181.924456)" d="M304.377522-52.9555442h1.28V416.804456h-1.28z"/><path transform="translate(320.404189 166.537789)rotate(-45)translate(-320.404189 -166.537789)" d="M319.764189-68.3422109h1.28V401.417789h-1.28z"/></g></g></g><path stroke="#0d57d9" fill="#0d57d9" d="M308.621867 234.897097 122.168533 287.59043v38.4h256v-17.493333z"/><g transform="translate(122.168533 234.897097)"><mask id="c" fill="#fff"><use href="#f"/></mask><g mask="url(#c)" fill="#1362dd"><g transform="translate(-92.725333 -86.468946)"><path transform="translate(245.821392 88.61604)rotate(-16.5)translate(-245.821392 -88.61604)" d="M-10.1786082 87.3360403H501.821392v2.56H-10.1786082z"/><path transform="translate(258.181925 130.34404)rotate(-16.5)translate(-258.181925 -130.34404)" d="M2.1819251 129.06404H514.181925v2.56H2.1819251z"/><path transform="translate(270.541925 172.071507)rotate(-16.5)translate(-270.541925 -172.071507)" d="M14.5419251 170.791507H526.541925v2.56H14.5419251z"/><path transform="translate(282.902458 213.799507)rotate(-16.5)translate(-282.902458 -213.799507)" d="M26.9024584 212.519507H538.902458v2.56H26.9024584z"/><path transform="translate(91.516551 332.344058)rotate(-16.5)translate(-91.516551 -332.344058)" d="M90.2365508 76.3440584h2.56V588.344058h-2.56z"/><path transform="translate(133.244551 319.983525)rotate(-16.5)translate(-133.244551 -319.983525)" d="M131.964551 63.9835251h2.56V575.983525h-2.56z"/><path transform="translate(174.972071 307.623525)rotate(-16.5)translate(-174.972071 -307.623525)" d="M173.692071 51.6235251h2.56V563.623525h-2.56z"/><path transform="translate(216.699964 295.262458)rotate(-16.5)translate(-216.699964 -295.262458)" d="M215.419964 39.2624584h2.56V551.262458h-2.56z"/><path transform="translate(258.428018 282.902458)rotate(-16.5)translate(-258.428018 -282.902458)" d="M257.148018 26.9024584h2.56V538.902458h-2.56z"/><path transform="translate(300.155484 270.541925)rotate(-16.5)translate(-300.155484 -270.541925)" d="M298.875484 14.5419251h2.56V526.541925h-2.56z"/><path transform="translate(341.883484 258.181925)rotate(-16.5)translate(-341.883484 -258.181925)" d="M340.603484 2.1819251h2.56V514.181925h-2.56z"/><path transform="translate(383.611484 245.821392)rotate(-16.5)translate(-383.611484 -245.821392)" d="M382.331484-10.1786082h2.56V501.821392h-2.56z"/></g></g></g></g></g><g transform="translate(46.93328 45.22656)"><path fill="#6aabd4" d="M51.2000533 0l-11.52 65.7067733 42.24 22.6133334z"/><path fill="#e4f6fe" d="M122.453387 65.7067733 51.2000533 0l30.72 88.3201067z"/><path fill="#a8cce9" d="M122.453387 65.7067733 81.9200533 88.3201067l80.6399997 47.3600003z"/><path fill="#d8e9f8" d="M162.560053 135.680107 81.9200533 88.3201067 121.173387 153.17344z"/><path fill="#84c1f2" d="M121.173387 153.17344 81.9200533 88.3201067 0 135.680107z"/><path fill="#aecee9" d="M-1.4126477800000002e-14 135.680107 81.9200533 88.3201067l-42.24-22.6133334z"/></g></svg>