<svg width="256" height="256" xmlns="http://www.w3.org/2000/svg" xmlns:xlink="http://www.w3.org/1999/xlink" preserveAspectRatio="xMidYMid"><defs><linearGradient x1="0%" y1="73.25%" x2="37.75%" y2="36.583%" id="c"><stop stop-color="#0060FF" offset="0%"/><stop stop-color="#1F66D6" offset="100%"/></linearGradient><linearGradient x1="34.722%" y1="0%" x2="92.014%" y2="90.75%" id="d"><stop stop-color="#1F6AE2" offset="0%"/><stop stop-color="#2E7BED" offset="100%"/></linearGradient><linearGradient x1="76.5%" y1="48.265%" x2="0%" y2="54.819%" id="g"><stop stop-color="#0D57D9" offset="0%"/><stop stop-color="#0D57D9" offset="100%"/></linearGradient><path id="e" d="M234.667 256V0H0l192 256z"/><path id="h" d="M186.453 0L0 52.693v38.4h256V73.6z"/><circle id="a" cx="128" cy="128" r="128"/></defs><mask id="b" fill="#fff"><use xlink:href="#a"/></mask><g mask="url(#b)"><path fill="url(#c)" d="M378.169 325.99v-256h-256v255.787z" transform="translate(-122.169 -69.99)"/><path fill="#115EDE" d="M-112.514 120.985l181.02-181.02.904.906-181.019 181.02zM-97.127 136.372L83.892-44.648l.905.905-181.02 181.02zM-81.74 151.758L99.278-29.26l.905.905-181.02 181.02zM-66.355 167.145l181.02-181.02.905.906-181.02 181.02zM-50.967 182.532L130.052 1.512l.905.905-181.02 181.02zM-35.58 197.918L145.438 16.9l.905.905-181.02 181.02zM-20.194 213.305l181.019-181.02.905.905-181.02 181.02zM-4.808 228.691l181.02-181.02.905.906-181.02 181.02zM10.579 244.078l181.02-181.02.904.906-181.02 181.019zM25.965 259.465l181.02-181.02.905.906L26.87 260.37z"/><path fill="#115EDE" d="M-122.169 84.782l.906-.905 181.019 181.02-.905.904zM-106.782 69.395l.905-.905L75.142 249.509l-.905.905zM-91.395 54.008l.905-.905 181.02 181.02-.906.904zM-76.009 38.621l.906-.905 181.019 181.02-.905.904zM-60.622 23.234l.905-.905 181.02 181.02-.906.905zM-45.235 7.848l.905-.905 181.02 181.02-.906.905zM-29.849-7.538l.905-.905 181.02 181.019-.906.905zM-14.462-22.925l.905-.905 181.02 181.02-.906.904zM.924-38.312l.906-.905 181.019 181.02-.905.904zM16.311-53.699l.905-.905 181.02 181.02-.905.905zM31.698-69.085l.905-.905 181.019 181.019-.905.905z"/><path fill="url(#d)" d="M378.169 325.99v-256H143.502l192 256z" transform="translate(-122.169 -69.99)"/><g transform="translate(21.333)"><mask id="f" fill="#fff"><use xlink:href="#e"/></mask><g mask="url(#f)" fill="#3582F7"><path d="M-52.972 40.374l181.019-181.02.905.905-181.02 181.02zM100.894 194.24l181.02-181.02.904.906L101.8 195.146zM-37.586 55.76l181.02-181.019.905.905-181.02 181.02zM116.28 209.627L297.3 28.607l.905.906-181.02 181.02zM-22.2 71.147l181.02-181.02.905.906-181.02 181.02zM131.667 225.014l181.02-181.02.905.906-181.02 181.019zM-6.812 86.534l181.019-181.02.905.906L-5.908 87.439zM147.054 240.4l181.02-181.019.904.905-181.019 181.02zM8.574 101.92l181.02-181.019.905.905-181.02 181.02zM162.44 255.787l181.02-181.02.905.905-181.02 181.02zM23.96 117.307l181.02-181.02.905.906-181.02 181.02zM177.827 271.173l181.02-181.019.905.905-181.02 181.02zM39.347 132.693l181.02-181.019.905.905L40.252 133.6zM193.214 286.56l181.02-181.02.904.906-181.019 181.02zM54.734 148.08l181.02-181.02.904.906L55.64 148.986zM208.6 301.947l181.02-181.02.905.905-181.02 181.02zM70.12 163.467l181.02-181.02.905.905-181.02 181.02zM223.987 317.333l181.02-181.019.905.905-181.02 181.02zM85.507 178.853L266.527-2.166l.905.905-181.02 181.02z"/><path d="M-62.627 4.17l.905-.905 332.17 332.17-.904.905zM-47.24-11.217l.905-.905 332.17 332.17-.905.906zM-31.854-26.604l.905-.905 332.17 332.17-.904.906zM-16.467-41.99l.905-.905 332.17 332.17-.904.905zM-1.08-57.377l.905-.905 332.17 332.17-.905.905zM14.306-72.763l.905-.905 332.17 332.17-.904.905zM29.693-88.15l.905-.905 332.17 332.17-.905.906zM45.08-103.537l.905-.905 332.17 332.17-.905.906zM60.466-118.923l.905-.905 332.17 332.17-.904.905zM75.853-134.31l.905-.905 332.17 332.17-.905.906zM91.24-149.697l.905-.905 332.17 332.17-.905.906z"/></g></g><path stroke="#0D57D9" fill="url(#g)" d="M308.622 234.897L122.169 287.59v38.4h256v-17.493z" transform="translate(-122.169 -69.99)"/><g transform="translate(0 164.907)"><mask id="i" fill="#fff"><use xlink:href="#h"/></mask><g mask="url(#i)" fill="#1362DD"><path d="M-92.725 73.628L398.19-71.788l.727 2.454L-91.998 76.082zM-80.365 115.356L410.551-30.06l.727 2.454L-79.638 117.81zM-68.005 157.083L422.911 11.667l.727 2.455-490.916 145.416zM-55.644 198.811L435.27 53.395 436 55.85-54.917 201.266z"/><path d="M-75.144.78l2.455-.726L72.726 490.969l-2.454.728zM-33.416-11.58l2.455-.727L114.454 478.61l-2.454.727zM8.312-23.94l2.454-.727L156.182 466.25l-2.455.727zM50.04-36.3l2.454-.728L197.91 453.888l-2.455.727zM91.767-48.66l2.455-.728 145.416 490.916-2.455.727zM133.495-61.021l2.455-.727 145.415 490.915-2.454.727zM175.223-73.381l2.455-.727 145.415 490.915-2.454.727zM216.95-85.742l2.456-.727L364.82 404.447l-2.454.727z"/></g></g></g><g><path fill="#6AABD4" d="M98.133 45.227l-11.52 65.706 42.24 22.614z"/><path fill="#E4F6FE" d="M169.387 110.933L98.133 45.227l30.72 88.32z"/><path fill="#A8CCE9" d="M169.387 110.933l-40.534 22.614 80.64 47.36z"/><path fill="#D8E9F8" d="M209.493 180.907l-80.64-47.36 39.254 64.853z"/><path fill="#84C1F2" d="M168.107 198.4l-39.254-64.853-81.92 47.36z"/><path fill="#AECEE9" d="M46.933 180.907l81.92-47.36-42.24-22.614z"/></g></svg>