<svg width="256px" height="271px" viewBox="0 0 256 271" xmlns="http://www.w3.org/2000/svg" preserveAspectRatio="xMidYMid"><path d="M99.8070819 202.833747c90.1483321 14.488125 90.1483321-54.732916 88.5385401-54.732916H67.6112491c0 0-45.0741661 40.244791-59.56229088 53.123125 6.43916658 25.756666 37.02520778 51.513332 54.73291588 57.952499 1.6097917 0 33.8056245-51.513333 37.0252078-56.342708h0zM54.7329159 32.1958329c0-17.7077081-8.0489582-32.195832899999985-27.366458-32.195832899999985C6.43916658 1.42108547e-14 0 14.4881248 0 32.1958329V149.710623c0 16.097916 3.21958329 32.195833 6.43916658 38.634999l49.90354092-43.464374c-1.6097916 0-1.6097916-99.807082-1.6097916-112.6854151h0zm201.2239551 0c0-17.7077081-8.048958-32.19583289999997-27.366458-32.19583289999997-20.927291 0-27.366457 14.488124799999971-27.366457 32.19583289999997 0 9.658749800000002 1.609791 82.0993741 0 127.1735401C201.223956 175.467289 178.686872 217.321872 127.17354 215.71208c-11.268542 0-17.707708 0-20.927291-1.609791-3.219584 4.829375-27.3664584 46.683957-28.9762501 48.293749 9.6587499 3.219583 30.5860411 8.048958 49.9035411 8.048958 86.928749 0 130.393123-54.732916 128.783331-127.17354 0-70.830832 0-98.19729 0-111.0756231h0zM122.344165 135.222498V85.3189571c0-17.707708-8.048958-32.1958328-27.366458-32.1958328-20.9272914 0-27.3664579 14.4881248-27.3664579 32.1958328v49.9035409h54.7329159 0zm67.611249 0V85.3189571c0-17.707708-8.048958-32.1958328-27.366458-32.1958328-20.927291 0-27.366458 14.4881248-27.366458 32.1958328v49.9035409h54.732916 0z" fill="#dc0000"/></svg>