<svg width="256px" height="256px" viewBox="0 0 256 256" xmlns="http://www.w3.org/2000/svg" preserveAspectRatio="xMidYMid"><title>LaunchDarkly</title><path d="M129.865412 255.30629c-2.155616.004302-4.124961-1.221068-5.07343-3.156813-.918779-1.822227-.722037-4.008252.507343-5.637144l59.979218-82.584168-105.0200033 42.89867c-.7118056.309552-1.4786842.472513-2.2548578.479157-2.4949511-.012484-4.6849093-1.663552-5.3834731-4.058744-.7159694-2.343527.2321484-4.875695 2.3112293-6.172673l92.3646139-54.539374-162.63162117-9.35766C1.96746731 132.705081 0 130.362987 0 127.624953c0-2.738034 1.96746731-5.080127 4.66443083-5.552587l162.71617817-9.329474-92.3927995-54.5393741c-2.0790809-1.2969784-3.0271987-3.8291465-2.3112292-6.1726734.6955675-2.3852664 2.8707972-4.0338616 5.3552873-4.0587441.7802133-.0026512 1.5509702.1707691 2.2548579.507343L185.334915 91.4344852 125.355696 8.87850272c-1.22938-1.62889274-1.426122-3.81491748-.507343-5.63714458C125.768246 1.28181499 127.728991.0221188008 129.893598 0c1.48108.00984494931 2.894811.620088674 3.917815 1.69114338L253.347064 121.198609c3.537248 3.543103 3.537248 9.2814 0 12.824504L133.755042 253.671506c-1.023814 1.046016-2.425955 1.634784-3.88963 1.634784z"/></svg>