<svg width="256" height="256" xmlns="http://www.w3.org/2000/svg" preserveAspectRatio="xMidYMid"><path d="M129.865 255.306a5.637 5.637 0 01-5.073-3.157 5.355 5.355 0 01.507-5.637l59.98-82.584-105.02 42.899a5.778 5.778 0 01-2.255.479 5.637 5.637 0 01-5.384-4.059 5.412 5.412 0 012.311-6.172l92.365-54.54-162.632-9.357a5.637 5.637 0 010-11.106l162.717-9.33-92.393-54.538a5.412 5.412 0 01-2.311-6.173 5.637 5.637 0 015.355-4.059c.78-.003 1.55.17 2.255.507l105.048 42.955-59.98-82.555a5.355 5.355 0 01-.507-5.638A5.637 5.637 0 01129.894 0c1.48.01 2.894.62 3.917 1.691L253.347 121.2a9.076 9.076 0 010 12.824L133.755 253.672a5.442 5.442 0 01-3.89 1.634z"/></svg>