<svg width="256px" height="283px" viewBox="0 0 256 283" xmlns="http://www.w3.org/2000/svg" preserveAspectRatio="xMidYMid"><path d="M243.263682 54.8723051 138.401327 2.22885572c-6.36816-2.971807627-13.585407-2.971807627-19.953566 0L30.1426202 45.9568823 16.13267 53.1741294c6.3681592-2.9718077 13.5854063-2.9718077 19.9535655 0l49.6716418 22.0762852 2.5472637.8490879 119.721393 62.4079605-120.145937 62.832504-1.2736318.424544-50.9452737 26.746268c-6.3681592 2.971808-13.5854063 3.396352-19.9535655 0l-2.5472636-1.273631 104.8623546 52.218905c6.368159 2.971808 13.585407 2.971808 19.953566 0l105.286899-52.643449C250.905473 222.991708 256 215.349917 256 206.859038V74.8258706c-.424544-8.4908789-5.094527-16.1326699-12.736318-19.9535655z" fill="#a4a7ad"/><path d="M85.7578773 75.2504146 36.0862355 53.1741294c-6.3681592-2.9718077-13.5854063-3.3963516-19.9535655 0l-2.5472637 1.2736318c-.4245439 0-.4245439.4245439-.8490879.4245439C5.09452736 58.6932007 0 66.3349917 0 74.8258706V206.859038c0 8.490879 5.09452736 16.557214 12.7363184 20.37811l2.5472637 1.273631c6.3681592 2.971808 13.5854063 3.210168 19.9535655.238361l51.7943615-27.026856L88.305141 76.5240464l-2.5472637-1.2736318z" fill="#4d515d"/></svg>