<svg width="512px" height="62px" viewBox="0 0 512 62" xmlns="http://www.w3.org/2000/svg" preserveAspectRatio="xMidYMid"><path d="M329.963568 1.54512654c3.145866 1.19894863 6.070309 2.91299705 8.653521 5.07192488.517702.35955968.932101.84855107 1.201878 1.41821596.219292.55426922.325537 1.14679277.312488 1.74272301.023567.96957591-.38618 1.89921751-1.117746 2.53596241-.699436.6472601-1.619068 1.0039398-2.572019.9975587-.986995-.0044469-1.940618-.3577983-2.692206-.9975587-1.821589-1.6236738-3.896083-2.93900825-6.141597-3.89408448-2.491318-.8778411-5.123999-1.28537678-7.764131-1.20187793-3.903022-.02574483-7.731755 1.0669871-11.03324 3.14892021-3.37015 2.1143476-6.129431 5.0724955-8.004507 8.5814084-1.972853 3.6188302-2.990444 7.6809198-2.956619 11.8024413-.045248 4.1381499.972797 8.2186051 2.956619 11.8505165 1.881847 3.4913034 4.640564 6.4322786 8.004507 8.5333333 3.301485 2.0819331 7.130218 3.174665 11.03324 3.1489202 5.138079-.0589245 10.112146-1.8169635 14.146103-4.9998122.728223-.5652209 1.614855-.8887785 2.535963-.925446.912935-.0188322 1.78941.3580523 2.403755 1.033615.662215.7502994 1.006976 1.7285583.961503 2.7282629.008166 1.0743691-.426559 2.1046663-1.201878 2.8484507-5.299772 4.3770465-11.972068 6.7472432-18.845446 6.6944601-5.300192.0410664-10.508317-1.3857602-15.047512-4.1224413-4.51264-2.6885859-8.219573-6.540808-10.73277-11.1534272-2.631892-4.7829846-3.981661-10.1654973-3.918122-15.6244132-.060836-5.4204365 1.289419-10.763471 3.918122-15.5042253 2.527874-4.6018417 6.231464-8.4505894 10.73277-11.15342726 4.537653-2.73762035 9.748319-4.1568191942 15.047512-4.09840375971C323.280391-.0661759551 326.703849.454254715 329.963568 1.54512654zM421.901221 18.701934c2.167238 0 3.924131 1.7568935 3.924131 3.9241315v18.9175587c0 4.1504851 1.11374 7.2913928 3.341221 9.422723 2.419402 2.2015353 5.614405 3.3515635 8.881878 3.1969953 2.038117.0261204 4.054353-.4223892 5.889202-1.3100469 1.683913-.796205 3.123942-2.0287374 4.170516-3.5695775.997206-1.4752224 1.521258-3.2192664 1.502347-4.9998122V22.6501031c-.046321-1.0647145.359687-2.09938 1.117747-2.8484507 1.611332-1.4302821 4.037495-1.4302821 5.648826 0v-.0240376c.737331.7600793 1.128645 1.7905415 1.08169 2.8484507v34.3015962c.032812 1.0448678-.357166 2.0588098-1.08169 2.8123944-1.126865 1.1577156-2.846052 1.5106829-4.337913.8906196-1.491862-.6200633-2.45438-2.0876291-2.42866-3.703014v-.8413145c-1.664485 1.6579524-3.652917 2.9549338-5.841126 3.809953-2.296182.9035507-4.743749 1.36043-7.211268 1.3461033-3.336599.0468282-6.629798-.7599228-9.566948-2.3436619-2.820538-1.5404501-5.120945-3.8826833-6.610329-6.7305165-1.67707-3.2934282-2.503416-6.9541425-2.403756-10.6486385V22.6260655c0-2.167238 1.756894-3.9241315 3.924132-3.9241315zm88.307981-14.51267601v-.04807512c.65462.83215869.937229 1.89737753.781221 2.94460094l-3.605634 34.85446009c-.342053 3.7982152-1.690373 7.4366047-3.906104 10.5404695-4.39122 6.1755575-11.800318 9.4654182-19.326197 8.5814084-3.773874-.3430409-7.387749-1.6873527-10.468357-3.8940845-2.999081-2.1305529-5.359516-5.0395396-6.826666-8.4131455-1.516541-3.4923926-2.084525-7.32317-1.646573-11.1053521.335532-3.7709961 1.598998-7.4003646 3.677746-10.5645071 1.930199-2.9700407 4.635864-5.3556804 7.824226-6.8987793 8.65544-4.1339684 19.033762-1.2573684 24.326009 6.7425352l2.115305-20.66028168c.086751-1.04571552.604959-2.00810228 1.430235-2.65615024 1.750035-1.26155106 4.167276-1.01362889 5.624789.57690141zM184.091643 21.1237181c2.866737 1.74168 5.163816 4.2809956 6.610329 7.3074178 1.597025 3.3780985 2.387012 7.0811641 2.307605 10.8169014.003453.8791426-.352593 1.7214941-.985539 2.3316432-.629837.5975809-1.456762.9387054-2.319599.962264l-29.446035-7.616e-4c.463152 3.4113855 2.207901 6.5184129 4.879624 8.6895774 4.175138 3.2311001 9.699599 4.1352671 14.686949 2.4037559 1.452759-.4530276 2.824063-1.1346224 4.062347-2.0191549.723523-.5635296 1.619078-.8606332 2.535962-.8413146.839015-.0462587 1.664149.2287861 2.307606.7692019.84101.6127155 1.351282 1.5800149 1.38216 2.6200939.0048.9204249-.444937 1.783921-1.201878 2.3076056-1.955009 1.4973879-4.155032 2.6441653-6.50216 3.3892958-6.167561 2.1504745-12.951939 1.6366384-18.725258-1.418216-3.260162-1.7447475-5.966456-4.3677702-7.812207-7.5718309-1.904511-3.348074-2.875746-7.1458522-2.812394-10.9971831-.047664-3.8421376.878534-7.6337609 2.692207-11.0212207 1.696799-3.1815954 4.253939-5.8220302 7.37953-7.6199061 3.270528-1.8496399 6.975974-2.7915619 10.73277-2.7282629 3.58636-.0922696 7.12769.8149101 10.227981 2.6200939zm86.955869-1.0696714c2.436818.9278877 4.596312 2.4627003 6.273803 4.4589672.597517.6636636.949589 1.5120298.997558 2.4037558-.036544.9620879-.521329 1.8516024-1.310047 2.4037559-.634001.427233-1.387392.6418863-2.151361.6129577-1.345315-.0089363-2.635908-.5337774-3.605634-1.466291-1.168286-1.1091509-2.556316-1.9608038-4.074366-2.4999061-1.691717-.5250217-3.457295-.7726085-5.228169-.7331456-2.003565-.07257-3.995027.339741-5.805071 1.201878-1.355922.5608648-2.248703 1.8740559-2.271549 3.3412206-.031395.9183403.238769 1.8217017.769202 2.5720188.790057.883691 1.796599 1.5464347 2.920563 1.9230047 2.015189.7765821 4.094315 1.3757886 6.213709 1.7907981 5.608764 1.1297653 9.570955 2.6922066 11.886573 4.687324 2.292995 1.9161138 3.581779 4.7771244 3.497465 7.7641314.020432 2.2842507-.649865 4.5213647-1.923005 6.4180282-1.392705 2.0305379-3.341513 3.6162922-5.61277 4.5671361-2.840102 1.1727538-5.894322 1.7377436-8.966009 1.6585916-3.360728.0283391-6.701705-.5162971-9.879437-1.6105165-2.690028-.8528618-5.154344-2.2985939-7.211267-4.2306103-.652096-.6278213-1.013509-1.4986961-.997559-2.4037559-.016658-1.1945817.55948-2.3198508 1.538404-3.0046948.759551-.6376637 1.702614-1.016573 2.692206-1.0816901 1.121038.0441161 2.175675.5432238 2.920564 1.3821596 1.235761 1.2510223 2.734194 2.2116618 4.386854 2.8123944 1.976722.8037513 4.091871 1.2120812 6.225728 1.2018779 2.357798.1274894 4.706714-.3788141 6.802629-1.4662911 1.470307-.7544164 2.397399-2.2655763 2.403756-3.9181221-.035538-1.6564461-.951759-3.1682107-2.403756-3.9661971-2.507859-1.3701436-5.245051-2.2703213-8.07662-2.6561503-9.831361-1.8829421-14.747042-5.937277-14.747042-12.1630047-.063291-2.3295798.732375-4.6010777 2.235493-6.3819718 1.568827-1.7967303 3.583554-3.1481726 5.841127-3.9181221 2.467886-.8823052 5.071201-1.3256822 7.692018-1.3100469 3.06499-.0516438 6.110595.495422 8.96601 1.6105164zm127.747605 1.1538028c3.162939 1.7796386 5.771254 4.4004334 7.535775 7.571831 1.860104 3.3926907 2.800639 7.2128398 2.728263 11.0813146.064922 3.8364392-.862447 7.6245784-2.692207 10.9971831-1.742922 3.1754048-4.341137 5.7986024-7.499718 7.571831-6.866641 3.6409916-15.091668 3.6409916-21.95831 0-3.176634-1.7615705-5.789387-4.3868242-7.535774-7.571831-1.830785-3.3722088-2.758221-7.1606216-2.692207-10.9971831-.072921-3.8640977.854494-7.6814056 2.692207-11.0813146 1.749559-3.1826327 4.361529-5.8071001 7.535774-7.571831 3.364965-1.853181 7.156222-2.7937444 10.997183-2.7282629 3.8065-.0645274 7.562625.8765767 10.889014 2.7282629zM112.531831.763882715c1.066623-.003630536 2.089204.425088705 2.834312 1.188314345.691885.70870952 1.089681 1.64967196 1.119541 2.63416093l3.25e-4 48.30299391h27.847512c1.429868-1e-7 2.75112.7628251 3.466053 2.0011267.714934 1.2383016.714934 2.763952 0 4.0022536-.714933 1.2383016-2.036185 2.0015181-3.466053 2.0015181h-31.849765c-1.061805.014963-2.080023-.4220403-2.800376-1.2022693-.689076-.7052495-1.085935-1.6415446-1.117084-2.621594l-6.62e-4-52.25615248c-.012494-1.07522305.422927-2.1071704 1.201878-2.84845071.714501-.76719628 1.715938-1.202603865 2.764319-1.201901095zm241.685634.527309115c1.189959.68702351 1.923005 1.9566953 1.923004 3.33074222V46.6155491c-.061805 1.6307493.311537 3.2485652 1.081691 4.6873239.498214 1.08928 1.567383 1.8051584 2.764319 1.850892h1.923005c.952904-.0302246 1.869575.3664121 2.499906 1.0816902.658004.7670033 1.001493 1.7545349.961502 2.7643192.008186 1.1096308-.54301 2.1487711-1.466291 2.7643193-1.107264.7605182-2.431883 1.1401861-3.773897 1.0816901h-.156244c-2.120998.0229937-4.197831-.6063498-5.949296-1.8028169-1.821115-1.2690884-3.246111-3.0274169-4.110422-5.0719249-1.004315-2.3160454-1.504154-4.8193344-1.466291-7.3434741V4.62193405c0-1.37404692.733045-2.64371871 1.923004-3.33074222 1.18996-.687023507 2.65605-.687023507 3.84601 0zm-147.49446 4.0999441c2.124092 0 3.846009 1.72191705 3.846009 3.84600939V20.3184599h6.538216c.960403-.0434522 1.900038.2884373 2.620094.925446.658362.6235253 1.020975 1.4972923.997559 2.4037558.019099.8777119-.345102 1.7202019-.997559 2.3076057-.720056.6370086-1.659691.9688981-2.620094.925446h-6.538216v19.0497652c-.063114 1.8650789.537371 3.6920852 1.694648 5.1560564.97855 1.3126719 2.52123 2.0840118 4.158498 2.0792488h2.620094c.8931-.0028851 1.741945.3885511 2.319624 1.0696714.658004.7670033 1.001493 1.7545349.961502 2.7643192.024988 1.0687322-.445244 2.0890474-1.27399 2.7643193-.92205.7458449-2.084165 1.1303683-3.269108 1.0816901h-1.38216c-2.431025.0247704-4.81774-.6511871-6.874742-1.9470422-2.078191-1.3111982-3.764003-3.1589483-4.879624-5.3483568-1.203362-2.3572077-1.810015-4.9736564-1.766761-7.6199062V26.9287885h-3.533521c-.960402.0434521-1.900037-.2884374-2.620094-.925446-.653795-.5864412-1.018276-1.4295781-.997558-2.3076056-.024951-.906748.337912-1.7811157.997558-2.4037559.720057-.6370086 1.659692-.9688981 2.620094-.925446h3.533521V9.23714532c0-2.12409234 1.721917-3.84600939 3.84601-3.84600939zM480.751174 26.6763941c-2.193557 1.0142036-4.077074 2.5948643-5.456526 4.579155-1.46116 2.1416944-2.339311 4.6270272-2.547981 7.2112676-.298929 2.5599831.060992 5.1538946 1.045633 7.5357746.917851 2.2487779 2.425011 4.2085014 4.362817 5.6728639 4.021221 2.9363916 9.312612 3.4783917 13.845634 1.4182159l.012019-.0600939c2.18764-1.0325434 4.050046-2.6455206 5.384413-4.6632863 1.429131-2.1549052 2.292967-4.6348189 2.511925-7.2112677.30146-2.545044-.04584-5.1249893-1.009577-7.4997183-1.444418-3.3638479-4.185667-6.0021213-7.602329-7.3167443-3.416662-1.314623-7.219352-1.1942492-10.546028.3338335zm-99.888075.5769015c-2.074453 1.2313709-3.764316 3.0169647-4.879625 5.1560563-1.199901 2.3024504-1.807116 4.8676241-1.76676 7.463662-.046643 2.5852181.56111 5.1402627 1.76676 7.4276056 1.12279 2.1243404 2.811687 3.8964347 4.879625 5.12 4.368637 2.4607801 9.705353 2.4607801 14.07399 0 2.050162-1.2230226 3.715849-2.9969784 4.807512-5.12 1.181581-2.2948991 1.776195-4.8467868 1.730704-7.4276056.042512-2.5920243-.551771-5.1548712-1.730704-7.463662-1.083999-2.1378036-2.750682-3.9253207-4.807512-5.1560563-4.368637-2.4607801-9.705353-2.4607801-14.07399 0zm-216.109672.9014084c-2.386325 2.1468532-3.95024 5.0579454-4.422911 8.2328639h25.612019c-.30344-3.1031804-1.660792-6.0087618-3.846009-8.2328639-2.216514-2.0947785-5.185778-3.2044597-8.232864-3.0768075-3.314129-.1460105-6.56326.9513213-9.110235 3.0768075z" fill="#47545f"/><g transform="translate(0 6.23245)"><path d="M17.4993427 42.6065728h64.6249765c1.6799821-.1230995 3.2877883.7034178 4.1653449 2.1412591.8775567 1.4378413.8775567 3.2456498 0 4.6834911-.8775566 1.4378413-2.4853628 2.2643586-4.1653449 2.1412592H17.4993427c-1.6799821.1230994-3.2877882-.7034179-4.1653448-2.1412592-.8775567-1.4378413-.8775567-3.2456498 0-4.6834911.8775566-1.4378413 2.4853627-2.2643586 4.1653448-2.1412591zm71.788169-14.6268545c2.4758952 0 4.4830047 2.0071096 4.4830047 4.4830047 0 2.4758951-2.0071095 4.4830047-4.4830047 4.4830047H29.193615c-2.4758951 0-4.4830047-2.0071096-4.4830047-4.4830047 0-2.4758951 2.0071096-4.4830047 4.4830047-4.4830047h60.0938967zM13.4850704 13.3047887c2.5090841 0 4.5430986 2.0340146 4.5430986 4.5430986 0 2.5090841-2.0340145 4.5430986-4.5430986 4.5430986-2.509084 0-4.54309857-2.0340145-4.54309857-4.5430986 0-2.509084 2.03401457-4.5430986 4.54309857-4.5430986zm69.228169.0240376c2.4051764.0719736 4.297975 2.0776948 4.2306104 4.4830047.0673646 2.4053099-1.825434 4.4110311-4.2306104 4.4830047l-56.644507.0360563c-1.1594625-.0375833-2.2562159-.5353936-3.0478342-1.3833949-.7916183-.8480013-1.2129116-1.9763608-1.1707574-3.1356661-.0674443-2.400764 1.818162-4.4045565 4.2185916-4.4830047h56.644507zM63.4471362 0c2.4758951 0 4.4830046 2.00710957 4.4830046 4.48300469 0 2.47589513-2.0071095 4.4830047-4.4830046 4.4830047H33.7968075c-2.4758951 0-4.4830047-2.00710957-4.4830047-4.4830047C29.3138028 2.00710957 31.3209124 0 33.7968075 0h29.6503287z" fill="#0dabe3"/><path d="M29.193615 36.9457277H4.48300469C2.00710957 36.9457277 0 34.9386181 0 32.462723c0-2.4758951 2.00710957-4.4830047 4.48300469-4.4830047H29.193615c-2.4758951 0-4.4830047 2.0071096-4.4830047 4.4830047 0 2.4758951 2.0071096 4.4830047 4.4830047 4.4830047z" fill="#80d2eb"/></g><circle fill="#00afe6" cx="232.815775" cy="23.2390232" r="4.54309859"/></svg>