<svg width="256px" height="243px" viewBox="0 0 256 243" xmlns="http://www.w3.org/2000/svg" preserveAspectRatio="xMidYMid"><title>lexical</title><path fill="#76b6ff" d="M43.3898305 75.9322034h47.7288136v21.6949152H43.3898305z"/><path d="M101.966102 75.9322034h47.728813v21.6949152h-47.728813z"/><g style="fill:#76b6ff"><path d="M160.542373 75.9322034h19.525424v21.6949152h-19.525424z"/><path d="M43.3898305 110.644068h78.1016945v21.694915H43.3898305z"/><path d="M132.338983 110.644068h47.728814v21.694915h-47.728814z"/></g><path d="M43.3898305 145.355932h47.7288136v21.694915H43.3898305z"/><path fill="#76b6ff" d="M101.966102 145.355932h47.728813v21.694915h-47.728813z"/><path d="M160.542373 145.355932h19.525424v21.694915h-19.525424z"/><path d="M236.474576 0v21.6949153h-23.864407V221.288136h23.864407v21.694915h-67.254237v-21.694915h21.694915V21.6949153h-21.694915V0h67.254237zm-56.406779 32.5423729v21.6949152H21.6949153V188.745763H180.067797v21.694915H0V32.5423729h180.067797zm75.932203 0V210.440678h-32.542373v-21.694915h10.847458V54.2372881h-10.847458V32.5423729H256z"/></svg>