<svg width="256px" height="256px" viewBox="0 0 256 256" xmlns="http://www.w3.org/2000/svg" preserveAspectRatio="xMidYMid"><defs><path d="M53.4829517 15.7295112H45.838174C42.597311 6.560134 33.8657117 0 23.5942668 0 10.5698308 0 0 10.5698308 0 23.5942668c0 13.024436 10.5698308 23.5964448 23.5942668 23.5964448h29.8886849c8.6865253-.0036065 15.7271074-7.0451635 15.7295112-15.7316892-.0036058-8.6856752-7.0438361-15.7259054-15.7295112-15.7295112z" id="f"/><linearGradient x1="49.994%" y1="0.226%" x2="49.994%" y2="99.725%" id="n"><stop stop-color="#212121" stop-opacity="0.04"/><stop stop-color="#212121" stop-opacity="0" offset=".66"/></linearGradient><path d="M29.8865069-1.74705197e-15H0v31.4590224h29.8865069C38.572182 31.4554166 45.6124123 24.4151864 45.6160181 15.7295112 45.6124123 7.04383604 38.572182.00360576058 29.8865069-1.74705197e-15z" id="g"/><path d="M.71972456.71972456 13.4762667 41.0040003c4.2601667-4.2797687 10.8377247-10.1777909 10.8377247-16.6900089 0-13.0244361-10.5698308-23.59426684-23.59426684-23.59426684z" id="a"/><filter x="-29.7%" y="-12.4%" width="159.3%" height="134.8%" filterUnits="objectBoundingBox" id="l"><feOffset dy="2" in="SourceAlpha" result="shadowOffsetOuter1"/><feGaussianBlur stdDeviation="2" in="shadowOffsetOuter1" result="shadowBlurOuter1"/><feColorMatrix values="0 0 0 0 0   0 0 0 0 0   0 0 0 0 0  0 0 0 0.2 0" in="shadowBlurOuter1"/></filter><radialGradient cx="10.1054816%" cy="14.269%" fx="10.1054816%" fy="14.269%" r="144.565193%" gradientTransform="matrix(.681824 0 0 1 .03215327568000001 0)" id="p"><stop stop-color="#fff" stop-opacity="0.1"/><stop stop-color="#fff" stop-opacity="0" offset="1"/></radialGradient><linearGradient x1="36.626%" y1="20.358%" x2="64.01%" y2="100.652%" id="o"><stop stop-color="#fff" stop-opacity="0.1"/><stop stop-color="#fff" stop-opacity="0" offset="1"/></linearGradient><linearGradient x1="68.935%" y1="65.756%" x2="31.065%" y2="35.799%" id="q"><stop stop-color="#262626" stop-opacity="0.1"/><stop stop-color="#262626" stop-opacity="0" offset="1"/></linearGradient><linearGradient x1="62.531%" y1="13.086%" x2="24.779%" y2="100.996%" id="r"><stop stop-color="#262626" stop-opacity="0.1"/><stop stop-color="#262626" stop-opacity="0" offset="1"/></linearGradient><linearGradient x1="0%" y1="50%" x2="100%" y2="50%" id="s"><stop stop-color="#262626" stop-opacity="0.1"/><stop stop-color="#262626" stop-opacity="0" offset="1"/></linearGradient><radialGradient cx="14.489%" cy="14.584%" fx="14.489%" fy="14.584%" r="99.973%" id="c"><stop stop-color="#fff" stop-opacity="0.1"/><stop stop-color="#fff" stop-opacity="0" offset="1"/></radialGradient><path d="M61.7092552 18.1492685h-8.8208973C49.150911 7.56854769 39.0776641 0 27.2249917 0 12.1967963 0 0 12.1967963 0 27.2249917c0 15.0281954 12.1967963 27.2249917 27.2249917 27.2249917h34.4842635c10.0187969 0 18.1514464-8.1304715 18.1514464-18.1492685 0-10.0187969-8.1326495-18.1514464-18.1514464-18.1514464z" id="j"/><linearGradient x1="49.994%" y1="0.226%" x2="49.994%" y2="99.725%" id="t"><stop stop-color="#212121" stop-opacity="0.04"/><stop stop-color="#212121" stop-opacity="0" offset=".66"/></linearGradient><path d="M34.4842635 0H0v36.3007149h34.4842635c10.0187969 0 18.1514464-8.1326495 18.1514464-18.1514464C52.6357099 8.13047152 44.5030604 0 34.4842635 0z" id="k"/><path d="M.44499834.44499834 15.1639178 46.9278602C20.0840183 41.9903357 27.66999 35.1840877 27.66999 27.66999 27.66999 12.6417946 15.4731938.44499834.44499834.44499834z" id="b"/><filter x="-25.7%" y="-10.8%" width="151.4%" height="130.1%" filterUnits="objectBoundingBox" id="m"><feOffset dy="2" in="SourceAlpha" result="shadowOffsetOuter1"/><feGaussianBlur stdDeviation="2" in="shadowOffsetOuter1" result="shadowBlurOuter1"/><feColorMatrix values="0 0 0 0 0   0 0 0 0 0   0 0 0 0 0  0 0 0 0.1 0" in="shadowBlurOuter1"/></filter><radialGradient cx="10.1054816%" cy="14.269%" fx="10.1054816%" fy="14.269%" r="144.567702%" gradientTransform="matrix(.681812 0 0 1 .03215448834000001 0)" id="u"><stop stop-color="#fff" stop-opacity="0.1"/><stop stop-color="#fff" stop-opacity="0" offset="1"/></radialGradient></defs><g fill="none"><circle fill="#0535c1" cx="127.776687" cy="127.776687" r="127.776687"/><path d="M155.363227 58.0807083h75.504703v75.5047027h-75.504703z"/><g transform="translate(158.510436 73.810219)"><mask id="d" fill="#fff"><use href="#f"/></mask><g mask="url(#d)"><path d="M53.4829517 15.7295112H45.838174C42.597311 6.560134 33.8657117 0 23.5942668 0 10.5698308 0 0 10.5698308 0 23.5942668c0 13.024436 10.5698308 23.5964448 23.5942668 23.5964448h29.8886849c8.6865253-.0036065 15.7271074-7.0451635 15.7295112-15.7316892-.0036058-8.6856752-7.0438361-15.7259054-15.7295112-15.7295112z" fill="#eaeaea"/><path d="M69.2124629 31.6485083v-.1894859c-.0036058-8.6856752-7.0438361-15.7259054-15.7295112-15.7295112h-7.8669336v.3920399h7.8669336c8.6085494.0016545 15.6174953 6.9213145 15.7295112 15.5291352v-.002178z" fill-opacity="0.2" fill="#fff"/><path fill="url(#n)" d="M77.3124424 47.1907116H23.5942668L45.85342 15.7295112z"/><g transform="translate(23.594267 15.729511)"><mask id="e" fill="#fff"><use href="#g"/></mask><g mask="url(#e)"><g transform="translate(-.719725 -16.449236)"><use fill="#000" fill-opacity="1" filter="url(#l)" href="#a"/><use fill="#e1e1e1" href="#a"/></g></g></g><circle fill="#eee" cx="23.5942668" cy="23.5942668" r="23.5942668"/><path d="M23.5942668.39203988c12.961274 0 23.4853668 10.46093082 23.5964448 23.40695882v-.1873079c0-13.024436-10.5720088-23.5964448047-23.5964448-23.5964448047C10.5698308.0152459953 0 10.5698308 0 23.5942668v.1894859C.108899967 10.8529707 10.6329928.39203988 23.5942668.39203988z" fill-opacity="0.2" fill="#fff"/><path d="M53.4829517 46.7964937H23.5942668C10.6351708 46.7964937.111077966 36.3355629 0 23.3917129v.1894859c0 13.024436 10.5698308 23.5942668 23.5942668 23.5942668h29.8886849c8.6856751-.0036058 15.7259054-7.043836 15.7295112-15.7295112v-.1873079c-.1084506 8.6110886-7.1177406 15.535941-15.7295112 15.5400252v-.002178z" fill-opacity="0.1" fill="#212121"/></g></g><path d="M211.993387 89.5397307h-7.644777c-3.240863-9.1693772-11.972463-15.7295112-22.243908-15.7295112-13.024436 0-23.594266 10.5698307-23.594266 23.5942668 0 13.0244357 10.56983 23.5964447 23.594266 23.5964447h29.888685c8.686526-.003606 15.727108-7.045163 15.729512-15.731689-.003606-8.6856753-7.043837-15.7259056-15.729512-15.7295113z" fill="url(#p)"/><path fill="#fff176" d="M92.9286976 53.7247096h66.7927054v58.0807084H92.9286976z"/><path fill="#fff" d="M85.6672479 142.295231h79.8607011v79.860701H85.6672479z"/><g style="fill:#f4481e"><path d="M174.239947 105.996694h11.61527v23.230541H69.6959787v-23.230541h11.6152705V59.5312558l46.4654378-29.0392651 46.46326 29.0392651v46.4654382zm-23.232719 0V72.4075879l-23.230541-14.5163656-23.232719 14.5163656v33.5891061h46.46326z"/><path d="M64.5362983 238.830695l19.680402-132.836179h87.1199737l19.678224 132.836179c-18.645853 10.641705-40.232004 16.720501-63.238211 16.720501-23.006207 0-44.5923584-6.078796-63.2403887-16.720501zm89.2522347-92.758814-54.6547153 17.759407-6.6428979 44.834116 67.3306712-21.880181-6.033058-40.71552v.002178z"/></g><path d="M174.128869 129.227235l16.236985 109.60346c-18.645852 10.641705-40.232004 16.720501-63.238211 16.720501-23.006207 0-44.5923582-6.078796-63.2403885-16.720501l16.239163-109.60346H69.6959787v-23.230541h11.6152705V59.5312558l46.4654378-29.0392651 46.46326 29.0392651v46.4654382h11.61527v23.230541h-11.72417-.002178z" fill="url(#o)"/><path fill="url(#q)" d="M127.776687 105.996694H81.3112492V59.5312558l46.4654378-29.0392651z"/><path d="M127.776687 255.551238c-22.174457.012818-43.9699465-5.74982-63.2403887-16.720543l14.5599256-109.60346h48.6782851v126.324003h.002178z" fill="url(#r)"/><path fill="url(#s)" transform="matrix(-1 0 0 1 197.472666 0)" d="M69.695979 105.996694h58.080708v23.232719H69.695979z"/><circle fill="url(#c)" cx="127.776687" cy="127.776687" r="127.776687"/><path d="M27.5887176 82.7639747h87.1199734v87.1199733H27.5887176z"/><g transform="translate(31.217264 100.913243)"><mask id="h" fill="#fff"><use href="#j"/></mask><g mask="url(#h)"><path d="M61.7092552 18.1492685h-8.8208973C49.150911 7.56854769 39.0776641 0 27.2249917 0 12.1967963 0 0 12.1967963 0 27.2249917c0 15.0281954 12.1967963 27.2249917 27.2249917 27.2249917h34.4842635c10.0187969 0 18.1514464-8.1304715 18.1514464-18.1492685 0-10.0187969-8.1326495-18.1514464-18.1514464-18.1514464z" fill="#fafafa"/><path d="M79.8607016 36.5185149v-.2178c0-10.0187969-8.1326495-18.1514464-18.1514464-18.1514464h-9.0735453v.4552018h9.0735453c9.9323003 3.267e-4 18.0203663 7.9826093 18.1514464 17.9140446h0z" fill-opacity="0.2" fill="#fff"/><path fill="url(#t)" d="M89.2064968 54.4499834H27.2249917l25.6829682-36.3007149z"/><g transform="translate(27.224992 18.149268)"><mask id="i" fill="#fff"><use href="#k"/></mask><g mask="url(#i)"><g transform="translate(-.444998 -18.594267)"><use fill="#000" fill-opacity="1" filter="url(#m)" href="#b"/><use fill="#e1e1e1" href="#b"/></g></g></g><g style="fill:#fff"><circle cx="27.2249917" cy="27.2249917" r="27.2249917"/><path d="M27.2249917.453023862c14.9563214 0 27.0986677 12.070472338 27.2249917 27.007191738v-.2177999c0-15.0281954-12.1967963-27.2249917053-27.2249917-27.2249917053C12.1967963.0174239947 0 12.1967963 0 27.2249917v.2177999C.126323961 12.5234962 12.2686703.453023862 27.2249917.453023862z" fill-opacity="0.2"/></g><path d="M61.7092552 53.9969595H27.2249917C12.2686703 53.9969595.126323961 41.9264872 0 26.9897678v.2177999c0 15.0281954 12.1967963 27.2249917 27.2249917 27.2249917h34.4842635c10.0187969 0 18.1514464-8.1326495 18.1514464-18.1514465v-.2177999c-.1285019 9.929499-8.2045235 17.9336465-18.1514464 17.9336465z" fill-opacity="0.1" fill="#212121"/></g></g><path d="M92.9265196 119.062512h-8.8208973c-3.7374468-10.580721-13.8106938-18.149269-25.6633661-18.149269-15.0281954 0-27.2249917 12.196796-27.2249917 27.224992 0 15.028195 12.1967963 27.224992 27.2249917 27.224992h34.4842634c10.0187974 0 18.1514464-8.130472 18.1514464-18.149269 0-10.018797-8.132649-18.151446-18.1514464-18.151446z" fill="url(#u)"/><g opacity="0.1"><path d="M127.776687 1.33511359c70.349379 0 127.397715 56.84578261 127.761441 127.10804141 0-.2178.013068-.4356.013068-.666468C255.551196 57.2095085 198.343865 0 127.776687 0 57.2095085 0 0 57.2095085 0 127.776687c0 .2178.0152459953.4356.0152459953.666468C.376793885 58.1808962 57.4273085 1.33511359 127.776687 1.33511359z" fill="#fff"/><path d="M255.538128 127.108041c-.363726 70.262259-57.412062 127.108041-127.761441 127.108041-70.3493785 0-127.399893115-56.845782-127.7614410047-127.108041 0 .233046-.0152459953.450846-.0152459953.668646 0 70.567178 57.2095085 127.774509 127.776687 127.774509 70.567178 0 127.774509-57.207331 127.774509-127.774509 0-.2178-.013068-.4356-.013068-.668646z" fill="#263238"/></g><circle fill="url(#c)" cx="127.776687" cy="127.776687" r="127.776687"/></g></svg>