<svg width="256px" height="193px" viewBox="0 0 256 193" xmlns="http://www.w3.org/2000/svg" preserveAspectRatio="xMidYMid"><title>Lightstep</title><path d="M128.423484 127.761131c17.348185 0 31.411845-14.06366 31.411845-31.4121869 0-17.3481857-14.06366-31.4118453-31.411845-31.4118453-17.348186 0-31.4118455 14.0636596-31.4118455 31.4118453 0 17.3485269 14.0636595 31.4121869 31.4118455 31.4121869z" fill="#039c49"/><path d="M119.418616.437715939 17.8534332 54.8850897c-1.0470729.6280798-1.8847175 1.675221-2.0941116 2.7223622L.0533647992 127.760448c-.2094111632 1.047141.2094145788 1.884922 1.0470626508 2.303642L133.867867 192.678421c1.047141.41872 2.303642.41872 3.560143 0l84.811948-38.531791c1.256501-.628421 2.094283-1.675221 2.303642-2.931722l31.411846-140.7254289c.20936-1.04703874-.41872-2.30347157-1.675221-2.51289981-.20936 0-.20936 0-.41872 0L121.303197.228291114c-.41872-.418825059-1.256501-.20939979-1.884581.209424825zM134.915008 187.233696 13.8745699 130.27345h43.1390753l101.1461208 14.449592-23.244758 42.510654zm28.689483-41.882574 49.840301 7.120287-71.619199 32.668346 21.778898-39.788633zM61.2018685 125.666507l38.3224307-75.3887019 118.1087158-13.611811-56.750886 103.2404039-99.6802605-14.239891zM221.193158 31.221338 102.037301 45.0424406l20.313037-39.9976859 123.97216 7.3294419-25.12934 18.8471414zM96.1738572 45.6708619 31.255816 53.2095272l83.974577-44.81415973L96.1738572 45.6708619zm-75.80749 13.821171 73.0851278-8.3764466-37.6943509 74.1322007H5.70748329L20.3663672 59.4920329zM220.146017 148.492546l-54.028524-7.748367 58.007388-105.3346861 25.548401-19.0563988-29.527265 132.1394519z" fill="#121c21"/></svg>