<svg width="256px" height="255.999966px" viewBox="0 0 256 255.999966" xmlns="http://www.w3.org/2000/svg" preserveAspectRatio="xMidYMid"><title>Linear</title><path d="M8.17351507 102.61269 153.38731 247.826434c2.119182 2.119437 1.096853 5.719613-1.849514 6.26996-4.913684.918099-9.925964 1.555518-15.019939 1.895355-1.087633.072475-2.149913-.337533-2.920757-1.108377L1.11657404 122.4029c-.770790492-.770844-1.1809030524-1.833124-1.1083398701-2.920757.3398439841-5.093975.9773578071-10.106255 1.8953027301-15.019939.55041354-2.946367 4.15059178-3.968696 6.26997817-1.849514zm-4.09187701 58.796467c-.96893332-3.614005 3.30062201-5.893758 5.94633374-3.248046l87.8109174 87.810943c2.6457118 2.645712.3659589 6.915318-3.2480459 5.946257-44.0305736-11.80493-78.7041221-46.478581-90.50920524-90.509154zM16.8085843 64.1644626c1.2331204-2.1358276 4.1473983-2.4631163 5.8913246-.7191132L192.554651 233.299989c1.744003 1.744003 1.41697 4.658358-.719114 5.891452-3.593517 2.074621-7.297155 3.979964-11.100157 5.705016-1.431312.648944-3.109499.321655-4.220693-.789539L11.8930308 79.4853127c-1.1112194-1.1111938-1.4385337-2.7893807-.7893856-4.2206925 1.7249498-3.8030025 3.6302412-7.5066403 5.7049391-11.1001576zM127.860072 0C198.629979 0 256 57.3702771 256 128.139928c0 37.56931-16.168267 71.362509-41.92599 94.800784-1.486884 1.352947-3.768173 1.263314-5.189753-.15801L33.2172979 47.1157434c-1.4213241-1.4215803-1.5109572-3.7028696-.1580102-5.1897539C56.4975633 16.1681897 90.2907616 0 127.860072 0z" fill="#222326"/></svg>