<svg width="256px" height="256px" viewBox="0 0 256 256" xmlns="http://www.w3.org/2000/svg" preserveAspectRatio="xMidYMid"><path d="M218.123122 218.127392h-37.931194v-59.403129c0-14.16524-.252875-32.40027-19.728172-32.40027-19.75583 0-22.778472 15.433592-22.778472 31.368993v60.430455H99.7540894V95.9665207h36.4139466v16.6940413h.5097c7.42501-12.6955593 21.230901-20.2781092 35.927953-19.7325544 38.444846 0 45.533238 25.2880154 45.533238 58.1861434l-.015805 67.013241zM56.9550587 79.2685282c-12.1568618.0021817-22.0137144-9.8513485-22.0158969-22.0084762-.0021818-12.1571276 9.851133-22.0141958 22.0079948-22.0163784 12.1568619-.002182 22.0137147 9.8513481 22.0158974 22.0084757.0010477 5.8380587-2.3170564 11.4374221-6.4443561 15.566294-4.1272997 4.128872-9.7257081 6.4490367-15.5636392 6.4500849M75.9206558 218.127392H37.94995V95.9665207h37.9707058V218.127392zM237.033403.0182577091H18.8895249C8.57959469-.0980923971.124827038 8.16056231-.001 18.4706066V237.524091c.121519052 10.315012 8.57560631 18.581843 18.8905249 18.473609H237.033403c10.335325.128118 18.822519-8.138236 18.965597-18.473609V18.4548016c-.147376-10.33041181-8.635258-18.588594468-18.965597-18.454010792945" fill="#0a66c2"/></svg>