<svg width="256px" height="239px" viewBox="0 0 256 239" xmlns="http://www.w3.org/2000/svg" preserveAspectRatio="xMidYMid"><defs><linearGradient x1="50%" y1="0%" x2="50%" y2="100%" id="a"><stop stop-color="#4ad8ac" offset="0%"/><stop stop-color="#4076c4" offset="100%"/></linearGradient></defs><g transform="translate(0 44.444444)"><g style="fill:#40a0b4"><path d="M238.2176 97.2113778l17.777778 10.2631112V11.0744889L238.2176.807822222z"/><path d="M0 11.0753778v96.4053332l17.7777778-10.2684443V.810488889z"/><path d="M78.232 183.513778l17.7777778 10.263111 42.3288892-24.439111-17.777778-10.263111z"/></g><path fill="#338090" d="M103.117511 169.145956l17.777778 10.264888 17.443555-10.072888-17.777777-10.263112z"/></g><g transform="translate(87.111111 133.333333)" fill="#45c1a8"><path d="M81.7729778 64.8551111v-20.528L5.2272.131555556 5.33333333e-4 3.14844444l.008888888887.00533334V17.648z"/><path d="M.00888888889 62.8104889 72.8888889 104.888711 90.6702222 94.6256.00888888889 42.2807111z"/></g><g fill="#7ce1c0"><path d="M194.712 70.3742222l17.776 10.2631111 43.507556-25.1182222-17.781334-10.2613333z"/><path d="M136.989867 124.228978l-17.777778-10.263111-40.9884446 23.665777 17.7777778 10.263112z"/><path d="M216.8928 32.9425778l-17.781333-10.2631111-43.502223 25.1182222 17.777778 10.2648889z"/><path d="M97.8876444 101.652622 80.1098667 91.3895111 39.1214222 115.055289 56.8992 125.3184z"/><path d="M116.5072 25.2222222l17.777778 10.2631111 43.505778-25.1182222L160.009422.104z"/><path d="M.0192 92.4782222l17.7777778 10.2631108 40.9884444-23.6639997-17.7777778-10.2648889z"/></g><g transform="translate(0 92.444444)" fill="url(#a)"><path d="M238.2176 10.2897778v90.3271112L255.995378 90.352V.0266666667z"/><path d="M216.883556 112.932622V22.6072889L199.105778 32.8704v90.327111z"/><path d="M159.9936 55.4513778v90.3271112l17.779556-10.264889V45.1864889z"/><path d="M78.232 135.513778l17.7777778 10.263111V55.4533333L78.232 45.1866667z"/><path d="M56.8986667 32.8714667V123.1968l-17.7777778-10.263111V22.6065778z"/><path d="M.0096 90.3521778l17.7777778 10.2631112V10.2899556L.0096.0250666667z"/></g><g transform="translate(24.888889 67.555556)" fill="#45c1a8"><path d="M78.2190222 55.7077333 95.9968 65.9708444l16.104889-9.2977777-17.7777779-10.2631111z"/><path d="M.0149333333 10.5550222 17.7927111 20.8181333l16.1031111-9.2977777-17.776-10.26311116z"/><path d="M39.1171556 33.1313778l17.7777777 10.2631111 16.1031111-9.2977778-17.776-10.2631111z"/></g><g fill="#a2eacf"><path d="M96.0016.0942222222 78.2220444 10.3573333 238.214933 102.732444l17.779556-10.2631107z"/><path d="M56.8894222 22.6757333 39.1116444 32.9388444 199.102756 125.313956l17.781333-10.263112z"/><path d="M0 55.5198222l159.991111 92.3751108 17.781333-10.263111L17.7777778 45.2567111z"/></g></svg>