<svg width="256px" height="256px" viewBox="0 0 256 256" xmlns="http://www.w3.org/2000/svg" preserveAspectRatio="xMidYMid"><title>Linux Mint</title><circle fill="#69b53f" cx="128" cy="128" r="118"/><path d="M128 0C57.307552 0 0 57.307552 0 128c0 70.692448 57.307552 128 128 128 70.692448 0 128-57.307552 128-128C256 57.307552 198.692448 0 128 0zm0 20c59.646753 0 108 48.353247 108 108 0 59.646753-48.353247 108-108 108-59.646753 0-108-48.353247-108-108C20 68.353247 68.353247 20 128 20z" fill="#fff"/><path d="M78.500005 62.500005v90.5c0 10.772171 8.4297412 19.316508 19.153291 19.497084l.346709.002916h60c10.772173 0 19.316508-8.429738 19.497084-19.153291l.002916-.346709v-50c0-5.3651394-4.134859-9.5-9.5-9.5-5.272632 0-9.357053 3.9935118-9.496327 9.223605l-.003673.276395v50.5h-21v-50.5c0-5.3651394-4.134859-9.5-9.5-9.5-5.272632 0-9.357053 3.9935118-9.496327 9.223605l-.003673.276395v50.5h-21v-50.5c0-16.7262207 13.773781-30.5 30.5-30.5 7.037596 0 13.733892 2.5149862 19.178728 6.9966317l.396156.3314271.425116.3679362.434279-.3757234c5.250084-4.460662 11.71044-7.064186 18.537479-7.3023506l.525866-.0136464.502376-.0042746c16.558963 0 30.224229 13.4996778 30.495879 29.99911l.004121.50089v50c0 22.026577-17.887739 40.134582-39.833742 40.494539l-.666258.005461h-60c-22.0265734 0-40.1345815-17.887741-40.494539-39.833742l-.005461-.666258v-90.5h21z" fill="#f8f8f8"/></svg>