<svg width="256px" height="295px" viewBox="0 0 256 295" xmlns="http://www.w3.org/2000/svg" preserveAspectRatio="xMidYMid"><defs><filter x="-50%" y="-50%" width="200%" height="200%" filterUnits="objectBoundingBox" id="a"><feOffset in="SourceAlpha" result="shadowOffsetOuter1"/><feGaussianBlur stdDeviation="6.5" in="shadowOffsetOuter1" result="shadowBlurOuter1"/></filter><linearGradient x1="48.5477412%" y1="115.276174%" x2="51.0473804%" y2="41.3637237%" id="b"><stop stop-color="#ffeed7"/><stop stop-color="#bdbfc2" offset="1"/></linearGradient><linearGradient x1="54.4065463%" y1="2.40410545%" x2="46.1753957%" y2="90.5422349%" id="c"><stop stop-color="#fff" stop-opacity="0.8"/><stop stop-color="#fff" stop-opacity="0" offset="1"/></linearGradient><linearGradient x1="51.859653%" y1="88.2477484%" x2="47.9469396%" y2="9.74782136%" id="d"><stop stop-color="#ffeed7"/><stop stop-color="#bdbfc2" offset="1"/></linearGradient><linearGradient x1="49.9251097%" y1="85.4900173%" x2="49.9236843%" y2="13.8109272%" id="e"><stop stop-color="#ffeed7"/><stop stop-color="#bdbfc2" offset="1"/></linearGradient><linearGradient x1="53.9014071%" y1="3.10177585%" x2="45.9555354%" y2="93.8949571%" id="f"><stop stop-color="#fff" stop-opacity="0.65"/><stop stop-color="#fff" stop-opacity="0" offset="1"/></linearGradient><linearGradient x1="45.5928761%" y1="5.47459052%" x2="54.811359%" y2="93.5235162%" id="g"><stop stop-color="#fff" stop-opacity="0.65"/><stop stop-color="#fff" stop-opacity="0" offset="1"/></linearGradient><linearGradient x1="49.9844987%" y1="89.8452442%" x2="49.9844987%" y2="40.6316864%" id="h"><stop stop-color="#ffeed7"/><stop stop-color="#bdbfc2" offset="1"/></linearGradient><linearGradient x1="53.5047131%" y1="99.97524%" x2="42.7455968%" y2="23.5451715%" id="i"><stop stop-color="#ffeed7"/><stop stop-color="#bdbfc2" offset="1"/></linearGradient><linearGradient x1="49.8413363%" y1="13.2289558%" x2="50.2412612%" y2="94.6729694%" id="j"><stop stop-color="#fff" stop-opacity="0.8"/><stop stop-color="#fff" stop-opacity="0" offset="1"/></linearGradient><linearGradient x1="49.9272298%" y1="37.3270337%" x2="50.7270446%" y2="92.7824735%" id="k"><stop stop-color="#fff" stop-opacity="0.65"/><stop stop-color="#fff" stop-opacity="0" offset="1"/></linearGradient><linearGradient x1="49.8755597%" y1="2.29900584%" x2="49.8755597%" y2="81.203617%" id="l"><stop stop-color="#fff" stop-opacity="0.65"/><stop stop-color="#fff" stop-opacity="0" offset="1"/></linearGradient><linearGradient x1="49.8334391%" y1="2.27189065%" x2="49.8240398%" y2="71.7989617%" id="m"><stop stop-color="#fff" stop-opacity="0.65"/><stop stop-color="#fff" stop-opacity="0" offset="1"/></linearGradient><linearGradient x1="53.4670683%" y1="48.9213861%" x2="38.9488708%" y2="98.0999776%" id="n"><stop stop-color="#ffa63f"/><stop stop-color="#ff0" offset="1"/></linearGradient><linearGradient x1="52.3731508%" y1="143.008909%" x2="47.57909%" y2="-64.6215389%" id="o"><stop stop-color="#ffeed7"/><stop stop-color="#bdbfc2" offset="1"/></linearGradient><linearGradient x1="30.580815%" y1="34.0241079%" x2="65.8867024%" y2="89.175349%" id="p"><stop stop-color="#ffa63f"/><stop stop-color="#ff0" offset="1"/></linearGradient><linearGradient x1="59.5715091%" y1="-17.2155207%" x2="48.3608522%" y2="66.1184465%" id="q"><stop stop-color="#fff" stop-opacity="0.65"/><stop stop-color="#fff" stop-opacity="0" offset="1"/></linearGradient><linearGradient x1="47.7689553%" y1="1.56481301%" x2="51.3733028%" y2="104.312856%" id="r"><stop stop-color="#fff" stop-opacity="0.65"/><stop stop-color="#fff" stop-opacity="0" offset="1"/></linearGradient><linearGradient x1="43.5495626%" y1="4.5334861%" x2="57.1143288%" y2="92.8267174%" id="s"><stop stop-color="#fff" stop-opacity="0.65"/><stop stop-color="#fff" stop-opacity="0" offset="1"/></linearGradient><linearGradient x1="49.7328042%" y1="17.6085216%" x2="50.5582487%" y2="99.3854667%" id="t"><stop stop-color="#ffa63f"/><stop stop-color="#ff0" offset="1"/></linearGradient><linearGradient x1="50.1697217%" y1="2.89048531%" x2="49.6802359%" y2="94.1704279%" id="u"><stop stop-color="#fff" stop-opacity="0.65"/><stop stop-color="#fff" stop-opacity="0" offset="1"/></linearGradient></defs><g transform="translate(10)" fill="none"><g style="fill:#000"><path d="M235.125423 249.358628c0 17.355643-52.617899 31.497277-117.540856 31.497277-64.9229577 0-117.5408564942-14.049806-117.5408564942-31.497277h0c0-17.355642 52.6178987942-31.497276 117.5408564942-31.497276 64.922957 0 117.449027 14.141634 117.540856 31.497276h0 0z" fill-opacity="0.2" filter="url(#a)"/><path d="M53.2125821 215.473804c-11.3867704-16.345526-13.5906615-69.606226 12.9478599-102.389105 13.1315175-15.7027242 16.5291829-26.6303507 17.5392996-41.4147865.7346304-16.8046692-11.8459144-66.85136184 35.5377434-70.61634238 48.026459-3.85680934 45.363424 43.52684828 45.087938 68.59610898-.183658 21.1206225 15.519066 33.1501949 26.354863 49.6793769 19.926849 30.303502 18.27393 82.462257-3.76498 110.745526-27.915953 35.354085-51.79144 20.018677-67.677821 21.30428-29.7525294 1.744747-30.7626461 17.5393-66.0249029-35.905058h0z"/></g><path d="M169.10052 122.451235c8.264591 7.62179 29.6607 41.690273-4.224125 62.994553-11.937743 7.438132 10.65214 35.721401 21.487938 22.038911 19.192218-24.610117 6.978988-63.912841-4.59144-77.962646-7.713618-9.91751-19.651361-13.774319-12.672373-7.070818h0z" fill="url(#b)"/><path d="M166.8048 117.859796c13.590661 11.019455 38.292607 49.587548 2.203891 74.748638-11.845914 7.805447 10.468483 32.507393 23.049027 19.926848 43.618677-43.894163-1.101945-94.308171-16.529183-111.663813-13.774319-15.151751-25.987548 3.489494-8.723735 16.988327h0z" stroke="#000" stroke-width="0.9773" fill="#000"/><path d="M147.245267 25.0208853c-.459144 12.5805447-14.325292 23.5081712-30.946304 24.5182879-16.6210112 1.0101168-29.6607-8.5400778-29.201556-21.1206225h0c.459144-12.5805448 14.325292-23.50817124 30.946304-24.51828798 16.621011-.91828793 29.6607 8.54007778 29.201556 21.12062258h0 0z" fill="url(#c)"/><path d="M107.483399 54.9570721c.459144 8.1727626-3.397665 15.0599221-8.7237352 15.3354085-5.32607.2754864-10.0093385-6.0607004-10.4684825-14.233463h0c-.4591439-8.1727627 3.3976654-15.0599222 8.7237354-15.3354086 5.3260703-.2754864 10.0093383 6.0607004 10.4684823 14.2334631h0 0z" fill="url(#d)"/><path d="M117.125423 55.5998736c.183657 9.4583658 6.336186 16.9883269 13.68249 16.8046693 7.346303-.1836576 13.131517-7.9891051 12.94786-17.5392996h0c-.183658-9.4583658-6.336187-16.9883269-13.682491-16.8046693-7.346303.1836576-13.223346 8.0809339-12.947859 17.5392996h0 0z" fill="url(#e)"/><g style="fill:#000"><path d="M123.186123 57.7119359c-.091829 5.2342412 2.479377 9.4583657 5.877043 9.4583657 3.305836 0 6.152529-4.2241245 6.244358-9.3665369h0c.091829-5.2342413-2.479378-9.4583658-5.877043-9.4583658-3.397665 0-6.152529 4.2241245-6.244358 9.366537h0 0z"/><path d="M101.973672 57.8037647c.459144 4.3159533-1.193775 7.989105-3.5813234 8.3564202-2.3875486.2754864-4.6832684-2.9385214-5.1424124-7.2544747h0c-.459144-4.3159533 1.1937743-7.9891051 3.5813229-8.3564202 2.3875487-.2754864 4.6832689 2.9385214 5.1424129 7.2544747h0 0z"/></g><path d="M124.563555 54.7734145c-.275487 2.9385214 1.101945 5.32607 3.03035 5.5097276 1.928405.1836576 3.764981-2.1120623 4.040467-4.9587549h0c.275486-2.9385214-1.101946-5.32607-3.03035-5.5097276-1.928405-.1836576-3.764981 2.1120623-4.040467 4.9587549h0 0z" fill="url(#f)"/><path d="M99.9534381 55.5080448c.2754869 2.3875487-.7346303 4.4996109-2.203891 4.6832685-1.4692607.1836576-2.8466926-1.6529183-3.122179-4.1322957h0c-.2754864-2.3875487.7346303-4.4996109 2.203891-4.6832685 1.4692607-.1836576 2.8466927 1.7447471 3.122179 4.1322957h0 0z" fill="url(#g)"/><path d="M71.0273681 145.68392c6.5198444-14.784435 20.3859922-40.771984 20.6614786-60.88249 0-15.9782101 47.8428013-19.8350194 51.6996113-3.8568093 3.856809 15.9782101 13.590661 39.8536963 19.835019 51.4241243 6.244358 11.478599 24.33463 48.118288 5.050584 80.074708-17.355642 28.283269-69.9735412 50.689495-98.0731521-3.856809-9.5501945-18.916731-7.8054474-42.333074.8264592-62.902724h0z" fill="url(#h)"/><path d="M65.1503253 134.664465c-5.6015564 10.560311-17.1719844 38.292607 11.111284 53.444358 30.3953307 16.161868 30.3035017 49.312062-6.2443579 33.51751-33.425681-14.233463-18.6412452-71.901946-9.2747082-85.676265 6.0607004-9.642023 15.2435798-21.487938 4.4077821-1.285603h0z" fill="url(#i)"/><path d="M69.9254226 122.726722c-8.907393 14.508949-30.2116732 48.669261-1.6529183 66.484047 38.3844357 23.6 27.5486381 47.108171-7.5299611 25.895719-49.4038911-29.568871-5.9688716-89.257587 13.7743191-112.031128 22.5898832-25.5284047 4.3159533 4.683268-4.5914397 19.651362h0z" stroke="#000" stroke-width="1.25" fill="#000"/><path d="M156.428146 151.285477c0 16.161867-15.519066 37.098832-42.149416 36.915175-27.4568094.183657-39.1190662-20.753308-39.1190662-36.915175 0-16.161868 18.1821012-29.293385 40.5883272-29.293385 22.498054.091828 40.680155 13.131517 40.680155 29.293385h0z" fill="url(#j)"/><path d="M141.919197 100.504154c-.275486 16.71284-11.203113 20.661478-24.977432 20.661478-13.774319 0-23.7836576-2.479377-24.9774319-20.661478 0-11.3867707 11.2031129-17.9984438 24.9774319-17.9984438 13.774319-.0918288 24.977432 6.5198444 24.977432 17.9984438h0z" fill="url(#k)"/><path d="M58.6304809 126.216216c8.9992218-13.68249 28.0077821-34.711284 3.581323 2.938521-19.8350195 31.038133-7.3463035 50.964981-.9182879 56.474709 18.5494163 16.529182 17.8147859 27.640467 3.2140077 18.916731-31.3136186-18.641245-24.7937743-50.046692-5.8770428-78.329961h0z" fill="url(#l)"/><path d="M188.935539 131.817772c-7.805447-16.070038-32.599221-56.8420229 1.193775-9.458365 30.762646 42.884046 9.182879 72.728404 5.32607 75.666926-3.85681 2.938521-16.80467 8.907393-13.039689-1.469261 3.856809-10.376654 22.957198-30.028016 6.519844-64.7393h0z" fill="url(#m)"/><path d="M51.8351502 258.541508c-20.5696498-10.927627-50.41400779 2.112062-39.5782101-27.456809 2.203891-6.703502-3.2140078-16.80467.2754864-23.324514 4.1322957-7.989105 13.0396887-6.244358 18.3657587-11.570428 5.2342413-5.509728 8.5400778-15.059922 18.3657588-13.590662 9.7338521 1.469261 16.2536965 13.407004 23.0490272 28.099611 5.0505837 10.468483 22.8653697 25.252919 21.6715953 37.007004-1.4692607 17.998444-21.9470817 21.396109-42.1494163 10.835798h0z" stroke="#e68c3f" stroke-width="6.25" fill="url(#n)"/><path d="M201.607913 189.11894c-3.122179 5.877043-16.161868 15.335408-24.885603 12.856031-8.815564-2.387549-12.856031-15.794553-11.111284-25.987549 1.652918-11.38677 11.111284-12.029572 23.049027-6.336187 12.856031 6.336187 16.71284 11.662257 12.94786 19.467705h0z" fill="url(#o)"/><path d="M194.445267 253.490924c15.059922-18.27393 48.577432-14.508949 25.987549-39.57821-4.775098-5.417899-3.305837-16.988327-9.18288-21.947082-6.887159-6.0607-14.508949-1.101945-21.487938-4.224124-6.978988-3.397666-14.325291-9.91751-22.865369-5.32607-8.540078 4.683268-9.458366 16.804669-10.284825 32.782879-.73463 11.478599-11.203113 30.670817-5.601557 41.231129 8.080934 16.345525 29.109728 14.141634 43.43502-2.938522h0z" stroke="#e68c3f" stroke-width="6.2507" fill="url(#p)"/><path d="M187.925423 229.064465c23.324513-34.435798 5.968871-34.160311.091828-36.823346-5.877042-2.754864-12.029572-8.172763-18.916731-4.407782-6.88716 3.856809-7.254475 13.774319-7.438132 26.814007-.275487 9.366537-8.080934 25.069261-3.397666 33.792997 5.693385 10.192996 19.467704-4.59144 29.660701-19.375876h0z" fill="url(#q)"/><path d="M47.0600529 234.02322c-34.8949416-22.589883-18.5494163-30.303502-13.3151751-33.884825 6.3361868-4.59144 6.4280156-13.407004 14.2334631-12.580545 7.8054474.826459 12.3968871 10.468483 17.6311284 22.406226 3.8568093 8.540078 17.2638132 19.926848 16.2536965 29.752529-1.2856032 11.570428-19.7431907 3.948638-34.8031129-5.693385h0z" fill="url(#r)"/><path d="M199.587679 188.843453c-2.754863 4.775098-13.957976 12.305059-21.396109 10.284825-7.621789-1.928404-11.111284-12.672373-9.550194-20.753307 1.377432-9.182879 9.550194-9.642023 19.835019-5.050584 10.927627 4.958755 14.325292 9.18288 11.111284 15.519066h0z" fill="#000"/><path d="M192.057718 186.180418c-1.744747 3.305837-9.09105 8.540078-14.233463 7.162646-5.142412-1.377432-7.713618-8.815564-6.887159-14.41712.73463-6.336187 6.244358-6.703502 13.223346-3.581323 7.529961 3.489494 9.91751 6.428015 7.897276 10.835797h0z" fill="url(#s)"/><g style="stroke:#e68c3f"><path d="M97.1067455 66.3438425c3.6731515-3.3976654 12.5805445-13.7743191 29.4770425-2.9385214 3.122179 2.0202335 5.693386 2.203891 11.662257 4.7750973 12.029572 4.9587548 6.336187 16.896498-6.519844 20.9369649-5.509728 1.7447471-10.468483 8.4482491-20.385992 7.8054475-8.540078-.459144-10.743969-6.0607004-15.9782106-9.0910506-9.2747081-5.2342412-10.65214-12.3050583-5.6015564-16.0700389 5.0505837-3.7649805 6.9789884-5.1424124 7.3463035-5.4178988h0z" stroke-width="3.75" fill="url(#t)"/><path d="M138.429703 75.9858658c-5.050584.2754864-15.97821 11.2031129-27.45681 11.2031129-11.4785988 0-18.3657584-10.6521401-20.1105055-10.6521401" stroke-width="2.5"/></g><path d="M102.800131 65.4255546c1.836576-1.6529183 7.62179-6.1525292 15.24358-1.5610895 1.652918.9182879 3.305836 1.9284046 5.693385 3.3058365 4.866926 2.8466926 2.479377 6.9789884-3.397666 9.5501946-2.663035 1.1019455-7.070817 3.4894942-10.376653 3.3058366-3.673152-.3673152-6.15253-2.7548639-8.540078-4.3159533-4.4996111-2.9385214-4.2241247-5.4178989-2.1120624-7.3463035 1.5610894-1.4692607 3.3058364-2.8466927 3.4894944-2.9385214h0z" fill="url(#u)"/></g></svg>