<svg width="256px" height="320px" viewBox="0 0 256 320" xmlns="http://www.w3.org/2000/svg" preserveAspectRatio="xMidYMid"><title>Lit</title><path fill="#00e8ff" d="M64 192l25.9257031-44.727402L128.15876 128.15876l63.974287 63.974287 10.833008 61.753926L192 320l-64-64-38.0742969-25.614883z"/><path d="M128 256V128l64-64v128l-64 64zM0 256l64 64 9.2016406-60.601699L64 192l-37.542207 23.709199L0 256z" fill="#283198"/><path d="M64 192V64l64-64v128l-64 64zm128 128V192l64-64v128l-64 64zM0 256V128l64 64-64 64z" fill="#324fff"/><path fill="#0ff" d="M64 320V192l64 64z"/></svg>