<svg width="256px" height="256px" viewBox="0 0 256 256" xmlns="http://www.w3.org/2000/svg" preserveAspectRatio="xMidYMid"><path d="M0 127.94c0 12.487 1.799 24.552 5.133 35.961l70.62-23.131c-.892-3.852-1.367-7.864-1.367-11.988 0-4.773.649-9.391 1.832-13.79L5.095 92.109C1.784 103.479 0 115.5 0 127.94" fill="#6a7a55"/><path d="M93.597 87.948 48.946 27.277C30.192 42.024 15.664 61.898 7.466 84.785l71.289 22.937c3.346-7.712 8.457-14.479 14.842-19.774" fill="#a09440"/><path d="M124.211 75.836V0C98.583.745 74.848 9.027 55.136 22.7l44.725 60.772c7.175-4.375 15.465-7.102 24.35-7.636" fill="#afa148"/><path d="M78.044 148.12 7.512 171.222c8.316 23.145 23.104 43.203 42.191 57.981l43.531-59.892c-6.684-5.643-11.941-12.913-15.19-21.191" fill="#4c5c59"/><path d="M55.934 233.725c19.554 13.346 42.993 21.419 68.277 22.155v-74.152c-9.052-.544-17.485-3.368-24.752-7.888l-43.525 59.885" fill="#48555d"/><path d="M200.148 22.212C180.609 8.854 157.182.763 131.909.005v75.926c8.587.717 16.59 3.482 23.527 7.798l44.712-61.517" fill="#e3b23b"/><path d="M131.909 181.633v74.242c25.471-.764 49.068-8.976 68.699-22.522l-44.245-60.119c-7.148 4.657-15.48 7.65-24.454 8.399" fill="#903024"/><path d="M162.495 168.577l44.317 60.217c19.033-14.892 33.734-35.058 41.928-58.294l-71.649-23.052c-3.09 8.2-8.138 15.44-14.596 21.129" fill="#d65841"/><path d="M256 127.94c0-12.642-1.84-24.852-5.254-36.386l-72.044 23.597c1.156 4.351 1.789 8.915 1.789 13.631 0 3.873-.422 7.647-1.21 11.283l71.796 23.1c3.198-11.192 4.923-23.006 4.923-35.225" fill="#e6703e"/><path d="M176.188 107.874l72.154-23.634c-8.332-22.937-23.032-42.818-41.967-57.501l-44.718 61.526c6.252 5.281 11.252 11.987 14.531 19.609" fill="#f4a83a"/></svg>