<svg width="256px" height="247px" viewBox="0 0 256 247" xmlns="http://www.w3.org/2000/svg" preserveAspectRatio="xMidYMid"><g fill="#497bbb"><path d="M165.758529 82.9512863l58.343899 108.0294777-19.343343 28.728048H51.3440438L31.866185 190.406831 90.2011166 82.9512863h75.5574124 0zm16.047711-26.9031199H74.1937603L.492663383 191.810277 36.9239715 246.611932H219.076028l36.431309-54.102174L181.80624 56.0481664h0z"/><path d="M163.870826 145.725233H121.27422l15.693487-42.596607h-24.661194l-33.5437062 67.455089h98.4743862l-13.366367-24.858482z"/><path d="M9.17788725 192.805692l44.83853315 40.35468H206.467433l44.838533-40.35468H9.17788725z"/><path d="M128 0c-20.011437 0-36.2340186 16.2808714-36.2340186 36.3685342 0 2.1298303.2197088 4.2013706.5694494 6.2280723h23.0245872c-.928158-1.8877023-1.493124-3.9816618-1.493124-6.2280723 0-7.8332917 6.326717-14.182428 14.128622-14.182428 7.806389 0 14.128622 6.3491363 14.128622 14.182428 0 2.2464105-.569449 4.34037-1.493123 6.2280723h23.02907c.349741-2.0267017.56945-4.1027258.56945-6.2280723C164.234019 16.2808714 148.011437 0 128 0h0z"/></g></svg>