<svg width="256px" height="233px" viewBox="0 0 256 233" xmlns="http://www.w3.org/2000/svg" preserveAspectRatio="xMidYMid"><g fill="none" fill-rule="evenodd"><g style="fill:#000"><path d="M.387794202 0H24.1799034v157.893062h94.0869586v19.466259H.387795376V3.33759524e-14L.387794202 0z"/><path d="M183.154423 46.5027499c16.221903-2.1629205 33.525229 1.081458 46.502759 11.8960547 14.058952 9.733134 21.629193 27.0364817 22.710651 43.2583684 2.162916 19.466268 0 38.932536-10.814614 55.15443-9.733121 12.977513-24.873566 21.629194-42.176893 22.710652-16.221903 2.162915-34.606723-1.081458-48.665675-11.896055-12.97753-10.814597-19.466277-27.036491-21.629193-43.258377-2.162916-17.303353 0-36.7696209 10.814579-51.9100492 8.651698-15.1404319 25.955024-24.8735659 43.258386-25.9550239h0zm3.244373 18.3848115c10.814579-1.0814626 22.710652 2.1629158 31.362314 9.7331294 7.57024 8.6516809 11.896072 19.4662682 12.97753 30.2808652 1.081458 11.896054 0 24.873566-5.40729 35.688154-5.407289 10.814589-15.140446 18.38481-27.036481 20.547726-10.814615 2.162916-22.710652-1.081458-30.280892-7.570205-8.651664-6.488765-14.058952-16.221895-16.221904-25.955033-2.162916-14.058971-1.081422-28.1179401 4.325867-41.0954526 5.407289-11.8960546 17.303361-20.5477261 30.280855-21.629184h1e-6z"/></g><path d="M.387794202 205.47728H255.612207v27.036481H.387794202V205.47728h0z" fill="#3492ff"/></g></svg>