<svg width="512px" height="96px" viewBox="0 0 512 96" xmlns="http://www.w3.org/2000/svg" preserveAspectRatio="xMidYMid"><title>Lookback</title><g style="fill:#192d41"><path d="M296.12754 31.5450935c-7.934159 0-13.186763 3.3335252-20.222159 8.9250072V1.00558273L273.982619 0 249.66446 11.499741v1.7606907l9.40754 5.7830215v71.8273382c8.641381 3.7681726 16.384 4.7737554 24.318158 4.7737554 17.728461 0 35.202763-12.0669928 35.202763-34.6870792-.066302-16.9070503-9.599079-29.4123741-22.465381-29.4123741zm-8.958159 55.3623022c-4.736921 0-8.324604-2.1364029-11.330302-5.7830216V45.1812374c3.418939-.8172688 6.916776-1.2594388 10.43154-1.3186762 8.641381 0 14.336 7.0353956 14.336 21.3050935.066302 13.824-4.350159 21.739741-13.437238 21.739741h0zm85.437698-2.7036547V56.1174101c0-15.9604029-6.144-24.6349353-21.566619-24.6349353-9.982158 0-18.177841 3.584-25.342158 10.6193957l2.747856 5.4699281c5.248921-3.3298418 10.24-5.3410072 15.36-5.3410072 8.512461 0 11.842302 5.0242302 11.842302 14.8295827v2.5784173c-25.342158 2.5747338-32.705381 10.9324892-32.705381 21.739741 0 10.6193957 7.488461 14.2660144 14.52754 14.2660144 6.018762 0 12.162762-2.5784173 18.177841-6.6007482v5.0279136h24.192921v-9.1717985H373.248l-.640921-.6924892v-.0036835zm-16.833381-.1841727c-2.578417.7514245-5.245238 1.1971223-7.934158 1.3186763-4.99108 0-8.508777-2.4494964-8.320921-7.9194245.128921-6.4718273 4.862158-9.6138129 16.258762-10.6193956v17.2201438h-.003683zm64.83246 1.6317698c-10.111079 0-19.647539-8.0409784-19.647539-26.0788489 0-12.8184173 3.970762-19.732259 11.459223-19.732259 3.072 0 5.436777 1.1308202 8.063079 3.3298417L431.616 57.8117986h1.919079v-23.121036c-5.496107-2.0162377-11.296235-3.0788471-17.150158-3.1419856-20.546302 0-33.28 14.6417266-33.28 33.4936403 0 18.4172662 11.709698 30.4805755 30.01646 30.4805755 8.444966.1293463 16.643578-2.8460091 23.04-8.3614388l-2.755223-5.0242303c-4.412777 2.5121151-8.125698 3.5176979-12.8 3.5176979v-.0036835zm82.306763-.7514244-19.776461-27.33859 25.920461-23.4378129v-1.1308202H476.672v1.2523741l8.38354 8.0483454-18.752461 19.6070216 22.528 32.2338992H512v-9.2307338h-9.087079v-.0036834z"/><path d="M465.08754 84.203741V1.00926619L463.03954 0l-24.192921 11.499741v1.6943885l9.411223 5.7830216v65.2302734l-.769842.6924892h-6.593381v9.2344172h31.55246v-9.2307338h-6.589698l-.769841-.6924892v-.0073669zM15.0395396 9.48857554H0V94.2632518h50.8795396V80.6234245h-35.84V9.48857554zM83.456 31.6703309c-18.5609209 0-32.5764604 13.7650648-32.5764604 31.9871079 0 18.2257267 14.0155395 32.1123454 32.5764604 32.1123454 18.560921 0 32.705381-13.824 32.705381-32.1123454 0-18.2846618-14.019223-31.9871079-32.705381-31.9871079h0zm0 50.7764029c-10.3689209 0-18.1741583-8.0409784-18.1741583-18.7266762C65.2818417 53.0380432 73.0907626 45.056 83.456 45.056c10.24 0 18.306763 8.1698993 18.306763 18.6014388 0 10.6820144-7.8089213 18.789295-18.306763 18.789295zM153.6 31.6077122c-18.560921 0-32.57646 13.7650648-32.57646 31.9871079 0 18.2257267 14.015539 32.1123454 32.57646 32.1123454 18.560921 0 32.705381-13.824 32.705381-32.1123454 0-18.2883453-14.081841-31.9871079-32.705381-31.9871079zm0 50.7137842c-10.368921 0-18.174158-8.0446619-18.174158-18.7266763 0-10.6820143 7.808921-18.6014388 18.174158-18.6014388 10.24 0 18.306763 8.1698993 18.306763 18.6014388 0 10.6820144-7.875223 18.7266763-18.306763 18.7266763zm93.055079-49.266187h-19.581237l-18.627223 18.977151V6.40920863H194.048V94.1343309h14.402302V67.1751367l25.213238 26.9628777h18.881381l-32.256-34.5655252 26.366158-26.5208633v.0036835z"/></g></svg>