<svg width="256px" height="413px" viewBox="0 0 256 413" xmlns="http://www.w3.org/2000/svg" preserveAspectRatio="xMidYMid"><path d="M127.128486 0c-13.330704.0058471726-25.572482 7.36006381-31.8379607 19.126605-6.2654784 11.7665411-5.5340721 26.0287528 1.9022143 37.0926289l15.4135394-15.3918c-.509434-1.5354163-.766403-3.1433097-.760894-4.7610229 0-8.4046038 6.813278-15.2178813 15.217882-15.2178813 8.404604 0 15.217881 6.8132775 15.217881 15.2178813 0 8.4046038-6.813277 15.2178814-15.217881 15.2178814-1.610453.0035438-3.210878-.2534052-4.739283-.7608941l-15.3918 15.3918c12.817633 8.6932755 29.754421 8.2327516 42.080711-1.1442059 12.32629-9.3769575 17.289849-25.5766472 12.332332-40.2493356C156.387711 9.84896827 142.61604-.0205786569 127.128486 0h0z" fill="#34a853"/><path d="M112.780303 105.112113c.023491-12.1832929-3.922025-24.0427362-11.239597-33.7836969L81.5400617 91.3073204c6.2549179 11.4404166 4.0040028 25.6604836-5.4784373 34.6098106l10.8699152 26.566072c16.1055734-10.372542 25.8412134-28.214392 25.8487634-47.37109z" fill="#fbbc04"/><path d="M56.8870939 133.786949h-.521756c-12.2677972.001064-23.1794913-7.796364-27.1524974-19.403003-3.9730061-11.606639-.1285206-24.4551748 9.5665608-31.9721056 9.6950813-7.5169308 23.0962679-8.0395591 33.3473137-1.3005006l19.8049856-19.8049855c-19.2579799-15.6126889-46.4538763-16.8170419-67.0165597-2.9677859C4.35245741 72.1878245-4.75374244 97.8421492 2.47549859 121.556363 9.70473962 145.270576 31.5737 161.482171 56.3653379 161.50524c3.8253169.001875 7.6413323-.376813 11.3916712-1.130478l-10.8699152-26.587813z" fill="#ea4335"/><path d="M127.88938 156.76595c-12.517674-.012681-24.969493 1.811145-36.9577116 5.413218l15.8483366 38.718638c6.89871-1.709614 13.980249-2.57108 21.087635-2.5653 41.183144.012007 76.623394 29.112411 84.648711 69.506046 8.025317 40.393635-13.599217 80.831543-51.65 96.585569-38.050783 15.754027-81.9313023 2.436937-104.8082151-31.807746-22.8769127-34.244683-18.3793778-79.880382 10.7423207-109.000446 6.0766545-6.057665 13.0139089-11.18552 20.5876195-15.217882l-15.6744178-38.609939c-58.4270838 28.614415-86.090383 96.508999-64.29819724 157.808342C29.2076468 388.895793 93.5203541 424.092503 156.898395 409.404661c63.378041-14.687843 105.652517-74.586102 98.259162-139.22237-7.393356-64.636267-62.101743-113.441237-127.159478-113.438081l-.108699.02174z" fill="#4285f4"/></svg>