<svg width="256px" height="256px" viewBox="0 0 256 256" xmlns="http://www.w3.org/2000/svg" preserveAspectRatio="xMidYMid"><title>Loom</title><path d="M256 113.765147h-74.858104l64.830669-37.4299975-14.237148-24.6666533-64.830669 37.4298622 37.421625-64.8255387-24.666922-14.2456816-37.421627 64.8254308V0h-28.475918v74.8597245L76.3259685 10.0271381 51.667011 24.265664l37.4287821 64.8255388L24.264989 51.6684962 10.0268681 76.3279937l64.8308312 37.4299973H0v28.477133h74.8505437l-64.8236756 37.429728 14.2381209 24.666922 64.8236485-37.422976-37.4287822 64.825269 24.6661132 14.238498 37.4287825-64.832019V256h28.476322v-74.852704l37.421627 64.825269 24.665572-14.238498-37.428376-64.83202 64.830669 37.429727 14.238499-24.666922-64.823919-37.422978h74.850003v-28.476727H256zM128 166.72923c-21.471699 0-38.8755841-17.40321-38.8755841-38.875989 0-21.472375 17.4038851-38.8766645 38.8755841-38.8766645 21.471835 0 38.875045 17.4042895 38.875045 38.8766645 0 21.472779-17.40321 38.875989-38.875045 38.875989z" fill="#625df5"/></svg>