<svg width="256px" height="293px" viewBox="0 0 256 293" xmlns="http://www.w3.org/2000/svg" preserveAspectRatio="xMidYMid"><path d="M255.268469 75.5432315c-.007351-2.0831398-1.121643-4.0052921-2.925713-5.0468555L130.194226.783942514c-1.810438-1.045256685-4.040989-1.045256685-5.851427 0L2.92569736 71.7324899C1.11031769 72.7805895-.00572278901 74.7197098-3.77174411e-5 76.8159167L.731412388 217.440326c.007351444 2.08314 1.121642642 4.005292 2.925713292 5.046856L125.805656 292.170358c1.810437 1.045257 4.040989 1.045257 5.851426 0l121.417102-70.948547c1.81538-1.0481 2.93142-2.98722 2.925735-5.083427l-.73145-140.5951525zm-127.575728-2.6916563 51.28044 29.2571328.160914 51.463297-20.209365-11.52731-.095086-28.196562-31.01256-17.6932514L96.9581226 114.18459l.0877714 28.181933-6.8827405 4.008227-13.2461669 8.506512-.1682286-52.275183 50.943983-29.7545038zm-8.87954 56.8173518-14.518852 8.462626-.0512-16.757023 14.570052 8.294397zm-82.2418008 38.612102v-42.751986l32.9142746-19.265822.0731428 23.317935-12.7634242 7.460569.1023999 19.58765 17.0130228 9.69874 77.6776879-45.348556.065829 23.317935-77.6118598 45.348556-37.471073-21.365021zm91.7357408 51.880211-43.4614714-24.810049 19.1195364-12.287996 24.217592 13.809367 24.444334-14.284795 20.238622 11.541939-44.558613 26.031534zm54.125695-31.063761-45.121813-25.724334 20.041136-11.761368 24.927078 14.18971 16.910622-9.881597-.1024-19.587651-12.770738-7.314283-.073143-23.266735 33.184903 18.951308v42.751986l-36.995645 21.642964z" fill="#3f5dff"/></svg>