<svg width="512px" height="113px" viewBox="0 0 512 113" xmlns="http://www.w3.org/2000/svg" preserveAspectRatio="xMidYMid"><title>Lucene</title><g style="fill:#019b8f"><path d="M176.403511 75.2719321c-1.523329 7.2827616-3.912659 12.6874472-7.173207 16.2088398-3.260549 3.5213926-7.88792 5.2846973-13.892546 5.2846973-6.004627 0-9.917285-1.7633047-11.743193-5.2846973-1.70418-3.2866331-1.949582-8.2138236-.736205-14.77733l.135586-.7094941c.023528-.1192925.047522-.2391067.07198-.3594427l7.983558-38.190155H133.16081l-7.835751 37.4624006c-.975556 4.6638888-1.439858 8.8530418-1.439858 12.6039771h.036518l-.046952.2191088c.005217 1.3876896.073036 2.7284272.213892 3.9909117.532121 4.7212745 1.966763 8.5869807 4.303924 11.5866857 2.331945 3.004922 5.493373 5.222095 9.47385 6.66717 3.980478 1.445075 8.696536 2.159788 14.13774 2.159788 5.36295 0 10.334635-.699062 14.909837-2.102402 4.575202-1.398123 8.660017-3.604863 12.249229-6.604568 3.589212-2.999704 6.66717-6.823676 9.244308-11.4666973 2.571921-4.6430214 4.533467-10.2042133 5.889855-16.6887926l7.908787-37.827582h-17.888674l-7.914004 37.827582zM299.605248 36.552264l-15.353272 73.42234h56.665729l3.192729-15.248934H305.33338l2.702343-12.9274236h38.18233l3.213596-15.3689224H311.24932l3.05709-14.6281258h38.777054l3.187512-15.2489342h-56.665728zm141.429561 0h-17.408721l-10.183346 48.6995556-16.913118-48.6995556h-24.300218l-15.348055 73.42234h17.408722l10.360719-49.5603403 18.905966 49.5603403h22.129996l15.348055-73.42234zm16.433166 0-15.348055 73.42234h54.532025l3.187513-15.248934h-36.643351l2.702343-12.9274236h36.64335l3.213597-15.3689224h-36.643351l3.062308-14.6281258h36.638134L512 36.552264h-54.532025zm-398.2668441 73.42234H110.45174l3.062307-14.6385593.15129-.7303629H80.3086191L92.2604865 37.449567H74.3665951l-2.947536 14.1116548-3.0936087 14.7846321-9.0095482 43.1070621-.1147713.521688zm-8.7487043-41.6828546h-31.243882l23.8254816 35.4695536 7.3557979-35.1774084.0626025-.2921452zm2.6971259-15.1498135.3338802-1.5807141 2.947536-14.1116548H0l10.5433103 15.6923689h42.6062422zM239.324276 93.5414387c-11.200637 0-18.379061-9.0773677-16.036683-20.2780046 2.342378-11.200637 13.318689-20.2780046 24.519326-20.2780046 8.686102 0 14.930705 5.472505 16.214057 13.1465324h18.191253c.31823-17.4921917-12.270097-30.7169773-30.732628-30.7169773-20.90403 0-41.390709 16.9444196-45.762453 37.8484495-4.371744 20.9040299 9.030416 37.8484499 29.934446 37.8484499 17.977361 0 35.620842-12.5518087 42.997508-29.3605895h-18.457314c-4.674323 6.9540983-12.703098 11.7901442-20.867512 11.7901442z"/><path d="M148.391693 15.6765617h6.603003l-.791922-9.58966502-5.811081 9.58966502zm7.002616 4.4719078h-9.719044l-2.679388 4.3915678h-6.247734L151.96369.43597449h7.410053l2.640784 24.10406281h-6.248255l-.371963-4.3915678zm27.404416-15.20808609-1.756001 6.73238099h3.438444c1.205621 0 2.212478-.2905801 3.020572-.8717403.811225-.5921156 1.35691-1.42629443 1.637578-2.50253635.280668-1.07624192.168506-1.90520383-.335966-2.48636403-.504994-.5811602-1.360562-.87174031-2.565661-.87174031h-3.438966zM177.758178.436130996h10.316376c3.067524 0 5.240875.683411014 6.520054 2.050233034 1.293264 1.35638826 1.610972 3.29341505.954167 5.81212372-.659935 2.52914245-1.991283 4.47764635-3.994564 5.84446835-1.989717 1.3558666-4.518338 2.0340607-7.585862 2.0340607h-4.100466l-2.181698 8.3631771h-6.21591L177.758178.436130996zM207.697579 15.6765617h6.603003l-.791922-9.58966502-5.811081 9.58966502zm7.002615 4.4719078h-9.719043l-2.679389 4.3915678h-6.247733L211.269576.43597449h7.410053l2.640784 24.10406281h-6.248255l-.371964-4.3915678zm35.536643 3.0676807c-1.295351.5921157-2.601136 1.0386804-3.917354 1.340216-1.31674.3010138-2.647566.4517816-3.992998.4517816-4.014388 0-6.902973-1.119542-8.665235-3.3581043-1.759653-2.2495178-2.138398-5.2951311-1.136236-9.1378834 1.005293-3.85318609 2.973099-6.89879943 5.903419-9.13788345C241.361362 1.12475888 244.835281 0 248.850191 0c1.345432 0 2.597483.150767773 3.756673.452303318 1.159191.301013857 2.231781.748100302 3.218292 1.339694252l-1.301089 4.98890038c-.946863-.78566182-1.93181-1.36160514-2.955883-1.72730828-1.024073-.36622484-2.154571-.54933725-3.392536-.54933725-2.217173 0-4.146374.71053877-5.786561 2.13109464-1.640708 1.42107755-2.786856 3.38001524-3.438444 5.87681304-.648458 2.486364-.522731 4.4400848.376659 5.8606406.899389 1.4205559 2.457671 2.1310947 4.674844 2.1310947 1.237965 0 2.463931-.1831124 3.678942-.5488156 1.215011-.3662248 2.50045-.9421681 3.856838-1.7278299l-1.301089 4.9889003zM267.588538.436026659h6.21591l-2.396634 9.186400371h9.170228l2.396112-9.186400371h6.21591L282.902683 24.5400895h-6.21591l2.665825-10.2198639h-9.170228l-2.665825 10.2198639h-6.215388L267.588538.436026659zm33.931252 0h16.77435l-1.225445 4.698320281h-10.558961l-1.170667 4.48808009h9.929283l-1.225444 4.69779857h-9.929284l-1.44038 5.5215436h10.913709l-1.225445 4.6983203h-17.129097L301.51979.436026659z"/></g></svg>