<svg width="256px" height="372px" viewBox="0 0 256 372" xmlns="http://www.w3.org/2000/svg"><title>Group</title><defs><linearGradient x1="32.157%" y1="46.417%" x2="70.686%" y2="49.75%" id="a"><stop stop-color="#91c5aa" offset="0%"/><stop stop-color="#3965af" offset="100%"/></linearGradient><linearGradient x1="53.539%" y1="68.101%" x2="53.539%" y2="19.969%" id="b"><stop stop-color="#803fa5" offset="0%"/><stop stop-color="#4b114a" offset="100%"/></linearGradient></defs><g fill="none" fill-rule="evenodd"><g style="fill-rule:nonzero"><path fill="#c4baff" d="M129.793852 61.025375l59.47648 222.011532H70.3173724z"/><g style="fill-opacity:0.498;fill:#6750e5"><path transform="matrix(-1 0 0 1 324.605574 0)" d="M119.568669 0l134.944926 283.122117H70.0919786z"/><path d="M56.920184 0l132.56867 283.122117H0z"/></g><path d="M53.3361618 351.581923H21.3985713l-8.3105379 18.118905H.960446194L37.874696 290.412499l35.6096885 79.288329H61.1635289l-7.8273671-18.118905zm-4.5901227-10.58144-11.0646115-25.366468-11.5960994 25.366468h22.6607109zm26.2297276 28.700345v-74.601572h15.6547339c7.505291 0 13.4321274.740854 17.7806854 2.222586 4.670676 1.449519 8.90643 3.913665 12.707393 7.392513 7.698561 7.022117 11.547783 16.250587 11.547783 27.685687 0 11.467312-4.010279 20.744098-12.030955 27.830639-4.026443 3.54327-8.246091 6.007417-12.659074 7.392513-4.123078 1.385097-9.9693869 2.077634-17.5391007 2.077634H74.9757667zm11.2578792-10.581441h5.0732945c5.0572132 0 9.2607566-.531482 12.6107576-1.594463 3.350001-1.127405 6.377841-2.915119 9.083611-5.363196 5.540386-5.057214 8.310538-11.644375 8.310538-19.761686 0-8.181734-2.737941-14.817212-8.213904-19.906637-4.928366-4.541829-12.191961-6.812708-21.7910026-6.812708h-5.0732945v53.43869zm91.1195681-28.265492h30.826297v2.464172c0 5.604809-.660327 10.565313-1.981 14.881661-1.288462 3.994231-3.462709 7.730715-6.522806 11.209562-6.925482 7.795195-15.735208 11.692733-26.429443 11.692733-10.436541 0-19.375113-3.768694-26.81598-11.306196-7.440868-7.569714-11.161246-16.653234-11.161246-27.250833 0-10.823082 3.784801-20.003234 11.354515-27.540737 7.569713-7.569714 16.782078-11.354515 27.63737-11.354515 5.83029 0 11.273959 1.19181 16.331172 3.575465 4.831733 2.383655 9.582866 6.248983 14.25354 11.596099l-8.020635 7.682417c-6.120195-8.149522-13.577057-12.224221-22.370809-12.224221-7.891829 0-14.511203 2.721833-19.85832 8.165586-5.347117 5.347116-8.020635 12.047017-8.020635 20.099906 0 8.310579 2.979523 15.15543 8.938659 20.534759 5.572599 4.99279 11.612173 7.489147 18.118906 7.489147 5.540386 0 10.516995-1.868242 14.929978-5.604781 4.412981-3.768751 6.877128-8.278301 7.392513-13.528783h-18.602076v-10.581441zm78.315541-25.173198h-29.908274v17.925637h29.038567v10.58144h-29.038567v24.931613h29.908274v10.581441h-41.166153v-74.601572h41.166153v10.581441z" fill="url(#a)"/><path fill="url(#b)" d="M26.5414959 263.875684 66.2341711 61.1312002 130.966175 207.693527l67.051911-146.5623268 35.663073 202.7444838h-29.189873l-18.197802-113.829373-55.815204 122.501538-54.2278277-122.623855-20.2744484 113.95169z"/></g><path d="M44.666457 243.947573l24.7383453-133.312195m59.7843347 124.378903-59.0971584-127.814784m61.8458634 126.440432 60.471511-126.440432m22.676817 139.496781-22.676817-136.748076" stroke-opacity="0.356" stroke="#a28bca" stroke-width="2" stroke-linecap="square"/><path d="M215.773346 243.260396c2.277102 0 4.123057 1.845956 4.123057 4.123058 0 2.277102-1.845955 4.123057-4.123057 4.123057-2.277102 0-4.123058-1.845955-4.123058-4.123057 0-2.277102 1.845956-4.123058 4.123058-4.123058zm-171.7940653 0c2.2771018 0 4.1230576 1.845956 4.1230576 4.123058 0 2.277102-1.8459558 4.123057-4.1230576 4.123057-2.2771018 0-4.1230576-1.845955-4.1230576-4.123057 0-2.277102 1.8459558-4.123058 4.1230576-4.123058zm86.5842093-8.246115c2.277101 0 4.123057 1.845956 4.123057 4.123058 0 2.277102-1.845956 4.123057-4.123057 4.123057-2.277102 0-4.123058-1.845955-4.123058-4.123057 0-2.277102 1.845956-4.123058 4.123058-4.123058zM70.0919786 105.825144c2.2771018 0 4.1230576 1.845956 4.1230576 4.123058 0 2.277102-1.8459558 4.123057-4.1230576 4.123057-2.2771018 0-4.1230576-1.845955-4.1230576-4.123057 0-2.277102 1.8459558-4.123058 4.1230576-4.123058zm122.3173744 0c2.277102 0 4.123058 1.845956 4.123058 4.123058 0 2.277102-1.845956 4.123057-4.123058 4.123057-2.277102 0-4.123058-1.845955-4.123058-4.123057 0-2.277102 1.845956-4.123058 4.123058-4.123058z" fill="#dcc6ff" fill-rule="nonzero"/></g></svg>