<svg width="256px" height="159px" viewBox="0 0 256 159" xmlns="http://www.w3.org/2000/svg"><title>Group</title><defs><linearGradient x1="50%" y1="33.756%" x2="1.66533454e-14%" y2="100%" id="a"><stop stop-color="#60676f"/><stop stop-color="#303439" offset="1"/></linearGradient></defs><g fill="none"><path fill="#393e42" d="M21.3308235 158.117647v-42.164706H149.330824v42.164706z"/><path d="M0 158.117647V0h42.6691765l42.661647 42.1647059L128 0h42.669176C170.669176 0 256 0 256 79.0588235c0 79.0588235-85.330824 79.0588235-85.330824 79.0588235H128V52.7058824L85.3308235 94.8705882l-42.661647-42.1647058V158.117647H0zM170.669176 42.1647059v73.7882351c0 0 41.788236 0 42.661648-36.8941175.880941-36.8941176-42.661648-36.8941176-42.661648-36.8941176z" fill="#60676f"/><path d="M252.754824 54.3698824C254.825412 61.5981176 256 69.7825882 256 79.0588235c0 79.0588235-85.330824 79.0588235-85.330824 79.0588235V21.0823529c0 0 51.365648 8.7868236 82.085648 33.2875295zm-82.085648-12.2051765v73.7882351c0 0 41.788236 0 42.661648-36.8941175.880941-36.8941176-42.661648-36.8941176-42.661648-36.8941176z" fill="url(#a)"/></g></svg>