<svg width="256px" height="261px" viewBox="0 0 256 261" xmlns="http://www.w3.org/2000/svg" preserveAspectRatio="xMidYMid"><title>Mailgun</title><path d="M126.142926.0477874502C197.684555.0477874502 256 58.3632329 256 130.0251c-.084718 15.167708-8.325124 29.116283-21.568999 36.50995-13.243875 7.393668-29.441831 7.088313-42.397634-.799255l-.60119-.360714-.240476.601191c-18.107672 32.824673-57.802348 47.058719-92.6427486 33.220602-34.8404004-13.838116-53.9510249-51.428799-44.60197-87.732272 9.3490548-36.3034726 44.2394631-59.9875348 81.4301466-55.2758404 37.190683 4.7116944 65.072495 36.3483807 65.0729 73.8363384.661761 7.042412 6.573581 12.424753 13.647017 12.424753 7.073436 0 12.985255-5.382341 13.647016-12.424753 4e-5-56.1322418-45.468934-101.6550249-101.601136-101.721375-47.0827466-.0847861-88.0707676 32.1525242-99.0830649 77.92939-11.0122973 45.776867 10.8293674 93.12878 52.799306 114.466925 41.9699389 21.338145 93.0986439 11.085459 123.5968129-24.784499l21.642846 18.276181c-24.611968 29.135676-60.816204 45.940073-98.9559 45.930932C55.8643207 257.985377-1.3500312e-13 200.396315-1.3500312e-13 130.085219-1.3500312e-13 59.7741229 55.8643207 2.18506075 126.142926.0477874502h0zm0 83.9261462498c-17.036737-.8476995-33.1528859 7.7668807-41.9127022 22.4036363-8.7598162 14.636756-8.7359909 32.910799.0619618 47.524664 8.7979527 14.613864 24.9365094 23.186391 41.9709784 22.29427 24.550958-1.285771 43.78866-21.583829 43.756647-46.168412-.032092-24.584584-19.322657-44.8324097-43.876885-46.0541583h0zm0 27.4142713c10.292872 0 18.636894 8.344022 18.636894 18.636895 0 10.292873-8.344022 18.636895-18.636894 18.636895-10.292873 0-18.636895-8.344022-18.636895-18.636895 0-10.292873 8.344022-18.636895 18.636895-18.636895z" fill="#f06b66"/></svg>