<svg width="256px" height="328px" viewBox="0 0 256 328" xmlns="http://www.w3.org/2000/svg" preserveAspectRatio="xMidYMid"><title>Malina.js</title><path d="M131.488263.0140271627C137.615869.433007409 142.358613 10.1696655 144.464657 24.510562l.34403 2.5775819.151009 1.3228383h0l.259051 2.7101734.10766 1.3858962h0l.170633 2.8298133c.04682.955685.083498 1.9234641.109777 2.9023779l.047392 2.9691863c.018304 3.5007835-.093882 7.1262149-.347485 10.8351606-.289831 4.2387952-.747802 8.3443842-1.349399 12.2581578l-.477745 2.8984491-.529307 2.8210237c-.554322 2.7804794-1.182539 5.4365788-1.874311 7.9435724l-.712573 2.456376-.752645 2.3514774c-3.988226 11.8688493-9.488957 19.3173747-15.075893 18.9353627-6.30783-.431303-11.148137-10.7364428-13.155347-25.7737364l-.316086-2.6232181c-.04797-.4446092-.093564-.8928416-.13675-1.3445771l-.229961-2.7514925c-.434529-6.0484933-.451293-12.6484961.019683-19.5365382l.248516-3.1532044c.139639-1.5631984.30206-3.1056042.485971-4.6241266l.396094-3.0042848.451102-2.9351013c.31856-1.932452.672261-3.8151186 1.058039-5.6406737l.602341-2.6945831.318495-1.3134493h0l.670204-2.5557798c1.037658-3.7604904 2.218313-7.1854928 3.507062-10.1915576l.874797-1.9410626.904528-1.81143827c3.368296-6.39758033 7.289802-10.070262932 11.254724-9.7991580673zM8.87575335 41.4778916c1.67506195-5.6293918 11.38624705-8.1558206 24.87198125-7.4145108l1.4083657.0883506 2.6262381.2204977 1.3432332.139276h0l1.3622591.158668 2.7784453.3756338 1.4146107.2170267 2.8760594.4926254 1.4598732.2756596h0l1.4733854.2952648 2.9841564.649467c2.0050033.4592131 4.0397375.9709503 6.0958008 1.5355365l3.0990414.8865568 3.0795879.9519343 1.5138172.4945277 2.9724666 1.0238958 1.4573636.5284557 3.554049 1.365629h0l.6948481.2802965 2.7235079 1.1431873c1.1901017.5155682 2.3525671 1.0407559 3.4853643 1.5741215l1.6766907.8060016 2.428261 1.2296375c13.8528084 7.239196 22.1572894 15.5767383 20.3194474 21.753187-1.675062 5.6293918-11.3862468 8.1558206-24.871981 7.4145108l-1.4083657-.0883506-2.6262381-.2204977-1.3432332-.139276h0l-1.3622592-.158668-2.7784452-.3756338-1.4146107-.2170267h0l-1.4304859-.2365406-2.9054467-.5317444-2.9594952-.6101653c-3.4818222-.7576997-7.0611281-1.6760059-10.6928888-2.7566598l-2.3160646-.7092251h0l-2.2773405-.7372369-2.9724666-1.0238958-1.4573636-.5284557-2.8537733-1.0876468c-2.46037-.9688215-4.8224823-1.981214-7.0708321-3.0261768l-2.2098546-1.0554123-2.428261-1.2296375c-13.8528084-7.239196-22.15728991-15.5767383-20.31944765-21.753187zm238.25807965-.131179c1.890352 6.3529187-6.94946 14.9921861-21.520312 22.3709237l-2.480683 1.2175098c-2.110028 1.0038516-4.325251 1.9795863-6.632276 2.9177014l-2.811638 1.1070726c-1.902658.7251992-3.86064 1.4238891-5.86709 2.0912044l-3.045166.9768337-1.548239.4696283c-1.556469.4631374-3.103303.8964558-4.636958 1.3000923l-3.048688.7677378-3.007242.6888297c-1.989613.4329713-3.947394.8134995-5.864942 1.1419097l-2.845097.4535673c-.937607.1381867-1.864106.2633844-2.778445.3756338l-2.705493.297944c-15.557007 1.5118848-27.068742-.9292138-28.906585-7.1056625-1.764328-5.9293908 5.818509-13.8504453 18.684037-20.87942l2.473201-1.3067747c2.533122-1.2949125 5.243034-2.5521264 8.102942-3.7526328l2.768216-1.1255861c3.280493-1.291762 6.735667-2.5060645 10.32877-3.616832l1.548238-.4696283c2.075292-.6175165 4.133456-1.1820215 6.16609-1.69384l3.028752-.7282532c3.007505-.6888196 5.948116-1.2594597 8.793475-1.7130169l2.812558-.4145701 2.742757-.3367584c16.23453-1.7876028 28.359466.6134679 30.249818 6.9663865z" fill="green"/><path d="M83.5338107 100.216217c-22.1874474.010432-40.1683542 17.869949-40.1683542 39.897173 0 22.032755 17.9896053 39.894563 40.182627 39.897171 22.1948795 0 40.1873845-17.862572 40.1873845-39.897171 0-22.0346-17.992505-39.897173-40.1873845-39.897173-.0047576 0-.0095152 0-.0142728 0h0zm88.6434653 1e-6c-22.187448.010431-40.168354 17.869948-40.168354 39.897172 0 22.032755 17.989605 39.894563 40.182627 39.897171 22.194879 0 40.187384-17.862572 40.187384-39.897171 0-22.0346-17.992505-39.897172-40.187384-39.897172-.003172 0-.006344 0-.009515 0h-.004758zM35.4678528 149.02436C15.237684 151.399432-.00250069997 168.426326 0 188.650349c.00264605851 22.030897 17.9914766 39.889806 40.182627 39.892414 22.1930084 0 40.1847382-17.859672 40.1873847-39.892414-.0014613-.212527-.0046332-.42504-.0095152-.637517-22.1658899-1.320586-40.6276494-17.356256-44.8926437-38.993229v.004757h0zm185.0655942.342547c-4.26545 21.63859-22.729697 37.674721-44.897401 38.993229-.003296.21249-.004765.425002-.004765.637517.002654 22.032742 17.994383 39.892414 40.187392 39.892414 22.189292-.005215 40.175224-17.863361 40.17787-39.892414.004929-20.225837-15.235869-37.255462-35.467854-39.630746h.004758 0zm-92.535176 11.599011c-7.499768 15.606076-22.819623 26.050278-40.1832716 27.394218 0 .150656 0 .301315 0 .451971 0 22.032755 17.9902496 39.894563 40.1832716 39.897172 22.19488 0 40.187385-17.862572 40.187385-39.897172 0-.150664-.002312-.301324-.004758-.451971-17.363004-1.34394-32.682859-11.788142-40.182627-27.394218h0zm-44.4501875 49.145931c-7.4997682 15.606077-22.8196228 26.050278-40.1832717 27.394219 0 .150655 0 .301315 0 .451971.0032907 22.030897 17.9921213 39.889806 40.1832717 39.892414 22.1930085 0 40.1847385-17.859673 40.1873845-39.892414 0-.150665-.002312-.301325-.004757-.451971-17.363005-1.343941-32.6828593-11.788142-40.1826275-27.394219zm88.6434655 0c-7.499769 15.606077-22.819623 26.050278-40.182627 27.394219-.002446.150646-.004758.301306-.004758.451971.002647 22.032741 17.994376 39.892414 40.187385 39.892414 22.193008 0 40.184738-17.859673 40.187384-39.892414-.002312-.150674-.005483-.301333-.009515-.451971-17.363004-1.343941-32.682859-11.788142-40.182627-27.394219h.004758 0zm-44.198035 49.241084c-7.498934 15.604691-22.816617 26.048649-40.1785146 27.394218 0 .150656 0 .301315 0 .451971 0 22.032755 17.9902496 39.894563 40.1832716 39.897172 10.658357 0 20.880176-4.20344 28.416772-11.685611 7.536597-7.482171 11.770613-17.630173 11.770613-28.211561 0-.150665-.002312-.301324-.004758-.451971-17.363004-1.343941-32.682859-11.788142-40.182627-27.394218h-.004757 0z" fill="red"/></svg>