<svg width="256px" height="258px" viewBox="0 0 256 258" xmlns="http://www.w3.org/2000/svg" preserveAspectRatio="xMidYMid"><title>Mantine</title><path d="M256 128.661462C256 57.6040256 198.692764 0 128.001579 0 57.307236 0 0 57.6040256 0 128.661462c0 71.055858 57.307236 128.661462 128 128.661462 70.692764 0 128-57.605604 128-128.661462z" fill="#339af0"/><path d="M110.576239 64.1112961c2.555276-.3790594 5.15625.2760136 7.227143 1.8202045 4.241745 3.162622 8.154603 6.7421506 11.680257 10.6843381l.873313.9930709h27.609329c5.384837 0 9.745119 4.3744897 9.745119 9.7766925 0 5.2836973-4.176191 9.583341-9.388188 9.771827l-.356931.0064441h-15.249936c4.260518 9.8090758 6.447987 20.3927698 6.42518 31.0871348.021092 10.311506-2.012658 20.519953-5.978199 30.030189l-.448559 1.053789h15.242042c5.386416 0 9.746697 4.376068 9.746697 9.778271 0 5.282154-4.1777 9.583273-9.389763 9.771825l-.356934.006446h-27.615644c-3.747251 4.331463-7.953803 8.24318-12.545677 11.666359-2.073582 1.546272-4.678185 2.20179-7.236687 1.821303-2.558502-.380486-4.859641-1.765557-6.393534-3.848313-.760918-1.030871-1.311873-2.203821-1.622871-3.450969-.629481-2.517247-.235511-5.181375 1.095596-7.40869.655958-1.098994 1.523002-2.05725 2.551128-2.819502 14.908942-11.10751 23.468482-28.090823 23.468482-46.602286 0-18.511464-8.55954-35.4947772-23.468482-46.602287-1.02932-.7618749-1.897468-1.7201639-2.554286-2.8195015-1.951539-3.2783734-1.826936-7.3763319.287331-10.5220381l.243102-.3455141c1.54933-2.0801435 3.851604-3.4643464 6.410972-3.8487932zm-1.75548 47.4105649c1.7782.758075 3.386032 1.865573 4.728112 3.256792 1.34724 1.397027 2.402841 3.048316 3.10524 4.857563.704181 1.814366 1.042199 3.750191.994561 5.695835-.087533 3.801469-1.646703 7.420668-4.349231 10.095583-2.684525 2.656571-6.307757 4.14829-10.084532 4.151898-3.7778699-.002777-7.4023875-1.494558-10.0876905-4.151898-2.7025279-2.674915-4.2616981-6.294114-4.3492311-10.095583-.0465489-1.945848.2925408-3.881664.9977184-5.695835.7023994-1.809247 1.7580003-3.460536 3.1052404-4.857563 1.3415892-1.391078 2.9488762-2.498571 4.7265327-3.256792 3.5819511-1.526271 7.6313291-1.526271 11.2132801 0z" fill="#fff"/></svg>