<svg width="256px" height="254px" viewBox="0 0 256 254" xmlns="http://www.w3.org/2000/svg" preserveAspectRatio="xMidYMid"><path d="M128 0c70.695163 0 128 56.688374 128 126.623027 0 69.934652-57.304837 126.623026-128 126.623026-70.6951631 0-128-56.688374-128-126.623026C0 56.688374 57.3048369 0 128 0zm58.744657 68.5103213c-25.484815-25.0682257-65.799775-26.0652574-90.1327334-1.9940633-43.0362206 42.573254-30.3454742 117.566389-29.8206298 120.549085l.0163552.091751c0 0 78.182227 13.816011 121.952756-29.483652 24.332958-24.071194 23.469066-64.0948949-2.015748-89.1631207zm-44.058493 5.6973241 12.526434 25.4955249 25.772778 12.3916797-25.772778 12.39168-12.526434 25.495525-12.526434-25.495525-25.772778-12.39168 25.772778-12.3916797 12.526434-25.4955249z" fill="#485160"/></svg>