<svg width="256px" height="256px" viewBox="0 0 256 256" xmlns="http://www.w3.org/2000/svg" preserveAspectRatio="xMidYMid"><path d="M256 128c0 70.692-57.308 128-128 128C57.308 256 0 198.692 0 128 0 57.308 57.308 0 128 0c70.692 0 128 57.308 128 128" fill="#4cd960"/><g style="fill:#fff"><path d="M81.354 154.734c-.501-.51-1.322-.514-1.827-.009l-21.211 21.201 1.372 6.51c2.152 11.202 13.079 18.949 24.282 16.797l32.5-6.245c.881-.169 1.219-1.251.59-1.891l-35.706-36.363"/><path d="M75.013 149.877c.532-.531.537-1.391.01-1.927l-24.13-24.572c-.949-.966-2.574-.113-2.318 1.217l7.839 40.801c.207 1.076 1.532 1.484 2.308.711l16.291-16.23"/><path d="M113.146 109.557c.638.648 1.681.653 2.325.011l37.974-37.832c.896-.893.095-2.408-1.148-2.169L88.649 81.796c-1.006.193-1.392 1.43-.673 2.161l25.17 25.6"/><path d="M186.495 116.846l24.418 24.569c.8.805 2.159.09 1.949-1.025l-7.798-41.45c-.171-.907-1.286-1.255-1.942-.606l-16.617 16.413c-.584.576-.588 1.517-.01 2.099"/><path d="M153.565 83.221l26.125 26.724c.624.638 1.649.647 2.284.018l21.137-20.921-1.333-7.933c-2.153-11.202-12.713-18.607-23.915-16.454l-9.493 1.715-14.784 14.578c-.631.623-.641 1.639-.021 2.273"/><path d="M81.647 142.733l26.628-26.018c.702-.686.713-1.811.025-2.51L78.608 84.006l-16.169 2.826c-10.572 2.031-17.757 11.318-16.724 21.835l33.429 34.04c.685.697 1.804.708 2.503.026"/><path d="M148.35 143.693l27.125-26.896c.456-.452.46-1.188.009-1.645l-27.031-27.428c-.454-.46-1.196-.463-1.653-.005l-26.976 26.976c-.452.452-.456 1.184-.007 1.64l26.883 27.347c.452.461 1.192.465 1.65.011"/><path d="M148.326 154.867c-.506-.518-1.337-.523-1.85-.012l-27.037 26.967c-.508.508-.509 1.331-.002 1.84l7.156 7.179 45.44-8.747c1.034-.199 1.432-1.468.696-2.222l-24.403-25.005"/><path d="M215.704 156l-33.794-34.296c-.583-.592-1.536-.594-2.122-.005l-26.467 26.604c-.577.58-.58 1.517-.006 2.101l29.074 29.577 17.004-3.268c10.053-1.931 16.536-10.792 16.311-20.713"/><path d="M113.926 141.556c-4.173 0-7.556 3.382-7.556 7.555 0 4.173 3.383 7.556 7.556 7.556 4.173 0 7.555-3.383 7.555-7.556 0-4.173-3.382-7.555-7.555-7.555"/><path d="M92.239 77.186l6.282-1.372c.702-.153 1.22-.75 1.273-1.466l-.09-2.866c.17-2.265 1.318-4.591 2.789-6.321 1.728-2.033 3.741-3.625 6.293-4.14l15.186-3.111c3.425-.691 8.324.905 10.991 3.794 1.725 1.917 2.676 3.927 3.131 5.107.231.598.85.95 1.481.835l6.158-1.125c.736-.135 1.221-.852 1.057-1.583-.364-1.622-1.478-4.672-4.864-9.012-3.63-4.889-12.745-7.978-19.354-6.644L107.617 52.3c-7.441 1.502-14.061 6.959-15.839 14.589-.997 3.043-1.028 7.09-.961 9.192.024.732.706 1.262 1.422 1.105"/></g></svg>