<svg width="256px" height="256px" viewBox="0 0 256 256" xmlns="http://www.w3.org/2000/svg" preserveAspectRatio="xMidYMid"><path d="M174.575388 103.525784l80.365954 23.718531c1.411544.419026 1.411544 1.092755 0 1.510138h0l-94.87248 28.002458c-1.411543.41574-2.895389 1.897943-3.312772 3.311129h0l-28.002459 94.874124c-.207048.70495-.481469 1.058247-.754247 1.058247-.272778 0-.545556-.353297-.754248-1.058247h0l-21.534664-72.963157 46.536566-29.226673 2.034332-1.276797 20.294018-47.949753zM38.6038234 146.161298l8.6368712 2.548665-1.784559 60.471244 11.7245197-3.989787 1.5643648-53.084879 8.6319415 2.548666-1.4000408 47.543872 35.7832012-12.176411 2.464861 8.355877-38.5241266 13.108129-.2284104 7.839899 41.222327-12.587221 2.463217 8.350948-52.7447279 16.105398.4913289-16.713397-20.519142 6.982128 2.2183744-75.303131zm178.7927636 0 2.216732 75.303131-20.729477-7.054431.494615 16.7857-52.554112-16.046242 2.46486-8.347661 41.030068 12.524778-.231697-7.912202-38.315434-13.035826 2.468147-8.355877 35.574509 12.102465-1.40004-47.409126 8.635228-2.548666 1.561078 52.95342 11.933211 4.060446-1.781272-60.471244 8.633584-2.548665zm-34.729884-81.3058887-34.471896 81.4406337-74.8923208 47.031182 34.4735388-81.440634 74.890678-47.0311817zM127.999384 0c.272778 0 .547199.35165343.754247 1.05824677h0l22.075291 74.78879713-49.139459 30.8600531-19.472398 46.00087-39.370395-11.619352-4.0571604-1.197923-37.73208445-11.136239c-1.409900201-.417383-1.409900201-1.091112 0-1.510138h0L95.933192 99.2418564c1.4099002-.4157398 2.8937462-1.8962993 3.309486-3.309486h0l28.002458-94.87412363C127.453828.35165343 127.726606 0 127.999384 0zm10.498662 117.115381c-5.550866-5.552509-14.550893-5.552509-20.103402 0-5.552509 5.549223-5.552509 14.550894 0 20.103403 5.552509 5.550865 14.552536 5.550865 20.103402 0 5.552509-5.552509 5.552509-14.55418 0-20.103403zM56.4132621 23.1384671l53.1966189 16.2417874-2.46486 8.3493041-41.672575-12.7236099.3565832 12.1796973 38.0492298 11.6209956-2.466504 8.3493042-35.3115912-10.7862296 1.3244517 44.9606988-8.6319414 2.550309-1.4789163-50.1944192-11.8641952-3.6233449 1.6876078 57.2570661-8.6319414 2.548666-2.1148503-71.674857 20.6522445 6.3067563-.6293611-21.3621242zm142.9651949 0-.632647 21.4278539 20.862579-6.372486-2.113207 71.674857-8.633585-2.548666 1.689251-57.2570661-12.07453 3.6874313-1.47563 50.0695328-8.631941-2.550309 1.321165-44.8358124-35.1029 10.7221432-2.461574-8.3493042 37.833966-11.5569092.359869-12.2437837-41.481959 12.6644532-2.46486-8.3476608 53.006003-16.184274z" fill="#54485b"/></svg>