<svg width="256px" height="158px" viewBox="0 0 256 158" xmlns="http://www.w3.org/2000/svg" preserveAspectRatio="xMidYMid"><path d="M238.371257 157.892216H18.3952096C8.43113772 157.892216 0 149.461078 0 139.497006V18.3952096C0 8.43113772 8.43113772 0 18.3952096 0H237.60479C247.568862 0 256 8.43113772 256 18.3952096V139.497006c0 9.964072-7.664671 18.39521-17.628743 18.39521h0zM18.3952096 12.2634731c-3.0658683 0-6.1317365 3.0658682-6.1317365 6.1317365V139.497006c0 3.832335 3.0658682 6.131737 6.1317365 6.131737H237.60479c3.832336 0 6.131737-3.065869 6.131737-6.131737V18.3952096c0-3.8323353-3.065868-6.1317365-6.131737-6.1317365.766467 0-219.2095804 0-219.2095804 0h0zM36.7904192 121.101796V36.7904192h24.5269461l24.5269461 30.6586826 24.5269456-30.6586826h24.526947v84.3113768h-24.526947V72.8143713L85.8443114 103.473054 61.3173653 72.8143713v48.2874247H36.7904192h0zm154.0598798 0-36.790419-40.6227541h24.526946V36.7904192h24.526946v42.9221557h24.526947l-36.79042 41.3892211h0z"/></svg>