<svg width="256px" height="214px" viewBox="0 0 256 214" xmlns="http://www.w3.org/2000/svg" preserveAspectRatio="xMidYMid"><defs><linearGradient x1="49.9109718%" y1="99.9084071%" x2="49.9109718%" y2="-0.0902654867%" id="a"><stop stop-color="#8ac23e" offset="0%"/><stop stop-color="#8ac23e" stop-opacity="0" offset="100%"/></linearGradient><linearGradient x1="49.9835165%" y1="0.0637125664%" x2="49.9835165%" y2="100.062389%" id="b"><stop stop-color="#698932" offset="0%"/><stop stop-color="#698932" stop-opacity="0" offset="100%"/></linearGradient><linearGradient x1="50.0595611%" y1="0.0637125664%" x2="50.0595611%" y2="100.062389%" id="c"><stop stop-color="#ffed01" offset="0%"/><stop stop-color="#ffed01" stop-opacity="0" offset="100%"/></linearGradient><linearGradient x1="50.0170846%" y1="0.0637125664%" x2="50.0170846%" y2="100.092699%" id="d"><stop stop-color="#e02a89" offset="0%"/><stop stop-color="#e02a89" stop-opacity="0" offset="100%"/></linearGradient><linearGradient x1="49.9631661%" y1="-0.0915929204%" x2="49.9631661%" y2="99.9070796%" id="e"><stop stop-color="#7f1e4f" offset="0%"/><stop stop-color="#7f1e4f" stop-opacity="0" offset="100%"/></linearGradient><linearGradient x1="49.9652038%" y1="-0.0915929204%" x2="49.9652038%" y2="99.9070796%" id="f"><stop stop-color="#e95506" offset="0%"/><stop stop-color="#e95506" stop-opacity="0" offset="100%"/></linearGradient><linearGradient x1="49.9766458%" y1="99.9084071%" x2="49.9766458%" y2="-0.0265486726%" id="g"><stop stop-color="#88d0f1" offset="0%"/><stop stop-color="#88d0f1" stop-opacity="0" offset="100%"/></linearGradient><linearGradient x1="50.0205329%" y1="0.0637125664%" x2="50.0205329%" y2="99.9986726%" id="h"><stop stop-color="#00828b" offset="0%"/><stop stop-color="#00828b" stop-opacity="0" offset="83.25%"/></linearGradient><linearGradient x1="50.078022%" y1="99.9752212%" x2="50.078022%" y2="0.0705752212%" id="i"><stop stop-color="#2073ba" offset="0%"/><stop stop-color="#2073ba" stop-opacity="0" offset="100%"/></linearGradient><linearGradient x1="50.0177116%" y1="0.0637125664%" x2="50.0177116%" y2="99.9986726%" id="j"><stop stop-color="#8ed0e1" offset="0%"/><stop stop-color="#88d0f1" stop-opacity="0" offset="100%"/></linearGradient></defs><path d="M80.9 176c-1.2-1.6-2.8-2.9-4.8-3.8-2-.9-4.6-1.4-7.8-1.4-1.2 0-2.5.1-3.7.4-1.2.3-2.4.6-3.5 1-1.1.4-2.1.8-3 1.3-.9.5-1.6.9-2.2 1.3-1.2-1.2-2.7-2.2-4.5-2.9-1.8-.7-4.1-1.1-6.9-1.1-3.3 0-6.4.2-9.3.7-2.9.5-5.3 1-7.1 1.5v39.3h9.4v-32.8c.6-.1 1.6-.2 2.8-.4 1.2-.2 2.4-.2 3.4-.2 2.9 0 4.9.9 5.9 2.8 1.1 1.9 1.6 5 1.6 9.2v21.4h9.4v-22.5c0-1.7-.1-3.2-.2-4.7-.2-1.5-.4-2.8-.9-4.1.7-.5 1.7-.9 3-1.4 1.3-.5 2.8-.7 4.3-.7 3 0 4.9.9 6 2.8 1 1.9 1.6 5 1.6 9.2v21.4H84v-22.8c0-2.7-.2-5.3-.7-7.6-.4-2.3-1.2-4.3-2.4-5.9zm36.5-.9c-1.3-1.4-3-2.5-5.1-3.3-2.1-.8-4.6-1.1-7.7-1.2h-.2c-2.6 0-5 .2-7.3.6-2.3.4-4 .8-5.2 1.2l1.2 7.6c1.1-.4 2.6-.8 4.4-1.1 1.8-.3 3.8-.5 6-.5h1.1c1.1.1 2.1.3 2.9.6 1.1.4 1.9 1 2.6 1.7.6.8 1.1 1.6 1.4 2.6.3 1 .4 2 .4 3.1v1.6c-1.3-.3-2.5-.5-3.7-.7-1.1-.1-2.2-.2-3.3-.2h-.3c-2.1 0-4.2.2-6.1.7-2 .4-3.8 1.2-5.4 2.2-1.6 1-2.8 2.3-3.7 3.9-.9 1.6-1.4 3.6-1.4 5.9 0 2.4.4 4.5 1.2 6.1.8 1.7 1.9 3 3.3 4 1.4 1 3.1 1.8 5.2 2.3 2 .5 4.2.7 6.7.7h.2c3.6 0 6.8-.2 9.7-.7 2.9-.4 5.1-.8 6.6-1.1v-24.6c0-2.4-.3-4.6-.8-6.6-.5-1.7-1.4-3.4-2.7-4.8zm-5.5 30.2c-1.5.3-3.7.5-6.6.5h-.6c-2.1-.1-3.8-.5-5.1-1.3-1.4-.9-2.1-2.4-2.1-4.6 0-1.1.3-2.1.8-2.8.5-.8 1.2-1.3 2.1-1.7.9-.4 1.8-.7 2.9-.9.5-.1 1-.1 1.5-.2.6 0 1.1-.1 1.7-.1 1.2 0 2.3.1 3.3.2 1 .2 1.7.3 2.3.5v10.4h-.2zm36.5-34c-.8-.1-1.7-.2-2.5-.3-.8-.1-1.6-.1-2.2-.1-3.3 0-6.3.3-9.1.9-2.7.6-5 1.2-6.8 1.9v38.7h9.4v-32.6c.5-.2 1.3-.3 2.4-.5 1.2-.2 2.3-.3 3.3-.3 1.8 0 3.4.1 4.8.4 1.4.3 2.4.6 3.2.8l1.6-7.9c-.5-.2-1.1-.3-1.9-.5-.5-.3-1.3-.4-2.2-.5zm34.3 29.1c-1.6-2.1-3.3-4-5-5.9-1.7-1.8-3.3-3.4-4.9-4.7 2.9-3 5.8-6 8.6-9.1 2.9-3.1 5.6-6.1 8.2-9h-11.1c-.8 1-1.8 2.1-3 3.5-1.2 1.3-2.4 2.7-3.7 4.1-1.3 1.4-2.6 2.8-4 4.3-1.3 1.4-2.6 2.8-3.8 4V152l-9.4 1.6v58.7h9.4v-18.6c1.4 1 2.8 2.3 4.3 3.8 1.5 1.5 2.9 3 4.3 4.7 1.4 1.7 2.7 3.4 3.9 5.1 1.2 1.8 2.3 3.4 3.2 5.1h10.9c-.9-1.8-2.1-3.7-3.5-5.8-1.3-2.1-2.8-4.2-4.4-6.2zm43.6-17.2c-1-2.6-2.3-4.9-4-6.7-1.7-1.9-3.8-3.3-6.2-4.3-2.4-1-5-1.5-7.9-1.5-2.8 0-5.5.5-7.8 1.5-2.4 1-4.4 2.4-6.2 4.3-1.7 1.9-3.1 4.1-4 6.7-1 2.6-1.4 5.5-1.4 8.7 0 3.2.5 6.1 1.4 8.8 1 2.6 2.3 4.9 4 6.8 1.7 1.9 3.8 3.3 6.1 4.4 2.4 1 5 1.6 7.9 1.6 2.9 0 5.6-.5 8-1.6 2.4-1 4.5-2.5 6.2-4.4 1.7-1.9 3-4.1 4-6.8.9-2.6 1.4-5.6 1.4-8.8 0-3.2-.5-6.1-1.5-8.7zm-10.8 18.5c-1.7 2.4-4.2 3.6-7.3 3.6-3.1 0-5.5-1.2-7.3-3.6-1.7-2.4-2.6-5.6-2.6-9.7 0-4 .9-7.2 2.6-9.6 1.7-2.4 4.2-3.5 7.3-3.5 3.1 0 5.5 1.2 7.3 3.5 1.7 2.4 2.6 5.6 2.6 9.6 0 4.1-.9 7.3-2.6 9.7z" fill="#272525"/><path d="M128.1 0h36.1c-13.3 21.8-28 45.8-42.7 69.7H85.4c14.7-23.9 29.4-47.9 42.7-69.7z" fill="#8dc220"/><path d="M42.7 0h36.1c-7.1 11.6-14.3 23.3-21.4 34.9-7.1 11.6-14.2 23.2-21.3 34.8 7.1 11.6 14.2 23.3 21.3 34.9 7.1 11.6 14.2 23.2 21.4 34.8H42.7c-7.1-11.6-14.3-23.2-21.4-34.8C14.2 93.1 7.1 81.4 0 69.8 7.1 58.2 14.2 46.6 21.3 35c7.1-11.7 14.3-23.3 21.4-35z" fill="#44bfef"/><path d="M42.7 0h0c14.7 24 29.4 48 42.7 69.7h36.1C108.2 48 93.5 24 78.8 0h0-36.1z" fill="#00ac71"/><path d="M164.2 0h-36.1c7.1 11.6 14.2 23.3 21.4 34.9 7.1 11.6 14.2 23.2 21.4 34.8-7.1 11.6-14.3 23.3-21.4 34.9-7.1 11.6-14.2 23.2-21.4 34.8h36.1c7.1-11.6 14.2-23.2 21.4-34.8 7.1-11.6 14.2-23.2 21.4-34.9-7.2-11.6-14.3-23.2-21.4-34.8-7.1-11.6-14.3-23.2-21.4-34.9z" fill="#f9bc00"/><path d="M149.3 24.6h-36.1c-4.6 7.5-9.2 15.1-13.8 22.6-4.6 7.5-9.2 15.1-13.9 22.6h36.1c4.6-7.5 9.3-15.1 13.9-22.6 4.5-7.6 9.1-15.1 13.8-22.6z" fill="url(#a)"/><path d="M100.5 45.2h36.1c4.6-7.5 9.2-15.1 13.8-22.6 4.6-7.5 9.2-15.1 13.8-22.6h-36.1c-4.6 7.5-9.2 15.1-13.8 22.6-4.6 7.6-9.2 15.1-13.8 22.6z" fill="url(#b)"/><path d="M191.9 45.2h-36.1c-4.6-7.5-9.3-15.1-13.9-22.6-4.6-7.5-9.2-15.1-13.8-22.6h36.1c4.6 7.5 9.2 15.1 13.8 22.6 4.7 7.6 9.3 15.1 13.9 22.6z" fill="url(#c)"/><path d="M213.2 0h-36.1c7.1 11.7 14.2 23.3 21.3 34.9 7.1 11.6 14.3 23.2 21.4 34.8-7.1 11.6-14.3 23.3-21.4 34.9-7.1 11.6-14.2 23.2-21.4 34.8h36.1c7.1-11.6 14.2-23.2 21.4-34.8 7.1-11.6 14.2-23.2 21.4-34.9-7.1-11.6-14.2-23.2-21.4-34.8-7-11.6-14.2-23.2-21.3-34.9z" fill="#df1b1c"/><path d="M240.9 45.2h-36.1c-4.7-7.5-9.3-15.1-13.9-22.6-4.6-7.5-9.2-15.1-13.8-22.6h36.1c4.6 7.5 9.2 15.1 13.8 22.6 4.6 7.6 9.3 15.1 13.9 22.6z" fill="url(#d)"/><path d="M192.2 115h36.1c4.6-7.5 9.2-15 13.8-22.6 4.6-7.5 9.2-15.1 13.9-22.6h-36.2c-4.6 7.5-9.2 15.1-13.8 22.6-4.6 7.5-9.2 15-13.8 22.6z" fill="url(#e)"/><path d="M143.2 115h36.1c4.6-7.5 9.2-15.1 13.8-22.6 4.6-7.5 9.2-15.1 13.9-22.6h-36.1c-4.6 7.5-9.2 15.1-13.8 22.6-4.7 7.5-9.3 15-13.9 22.6z" fill="url(#f)"/><path d="M63.8 24.6H27.7c-4.6 7.5-9.2 15.1-13.8 22.6C9.2 54.7 4.6 62.3 0 69.8h36.1c4.6-7.5 9.2-15 13.8-22.6 4.6-7.5 9.2-15.1 13.9-22.6z" fill="url(#g)"/><path d="M15 45.2h36.1c4.6-7.5 9.2-15.1 13.8-22.6C69.6 15.1 74.2 7.5 78.8 0H42.7c-4.6 7.5-9.2 15-13.8 22.6-4.6 7.5-9.2 15.1-13.9 22.6z" fill="url(#h)"/><path d="M15 94.3h36.1c4.6 7.5 9.2 15.1 13.8 22.6 4.6 7.5 9.2 15.1 13.8 22.6H42.6c-4.6-7.5-9.3-15-13.9-22.6-4.5-7.5-9.1-15-13.7-22.6z" fill="url(#i)"/><path d="M106.5 45.2H70.4c-4.6-7.5-9.2-15.1-13.8-22.6C51.9 15.1 47.3 7.5 42.7 0h36.1c4.6 7.5 9.2 15 13.8 22.6 4.7 7.5 9.3 15.1 13.9 22.6z" fill="url(#j)"/></svg>