<svg width="512px" height="223px" viewBox="0 0 512 223" xmlns="http://www.w3.org/2000/svg" preserveAspectRatio="xMidYMid"><path d="M434.829208 144.067429c-186.244192-14.840175-339.8400003 30.422358-374.7144109 47.488559-19.2922271 8.904104-20.7762446 20.034235-17.8082096 25.970305 2.2260262 4.452053 11.8721398 7.420088 21.5182533 2.226027 74.2008732-40.068472 223.3446292-71.974848 371.0043672-63.070743 3.710044 0 6.678079-2.968035 6.678079-6.678079 0-2.968035-2.968035-5.936069-6.678079-5.936069h0zm46.004542-56.3926643c-8.162096 8.9041048-19.292227 15.5821833-23.002271 12.6141483-3.710043-2.9680348 0-14.0981658 0-14.0981658 18.550219-11.8721398 54.166638-42.2944979 54.166638-66.0387774 0-21.51825336-19.292227-28.19633198-39.326463-8.1620961-16.324192 17.8082096-28.196332 40.0684717-34.874411 63.8127512-10.388122 10.3881223-27.454323 23.7442795-42.294498 23.7442795-8.162096 0-9.646113-5.9360698-8.904104-13.3561572 12.614148 0 48.230567-10.3881223 48.230567-40.0684717 0-5.1940612-2.226026-9.6461136-5.936069-13.3561572-3.710044-3.7100437-8.162097-5.1940612-13.356158-4.4520525-16.324192 0-36.358428 16.3241922-46.74655 40.0684718-2.226026-.7420088-5.194061-1.4840175-7.420087-2.968035 2.968035-5.9360699 4.452052-11.8721398 6.678078-17.8082096 2.226026-12.6141485-2.968035-20.0342359-12.614148-18.5502184-6.678079 0-14.098166 5.9360699-16.324192 18.5502184-.742009 6.6780786.742008 13.3561572 2.968035 18.5502183-4.452053 14.098166-22.260263 31.1643669-28.196332 30.4223582-5.93607-.7420087.742008-25.228297 6.678078-43.7785154 3.710044-3.7100437 5.93607-7.4200873 8.162096-12.6141485 1.484018-3.7100437.742009-8.1620961-2.968035-9.6461135-8.904104-3.7100437-19.292227.7420087-23.00227 9.6461135-2.226027 4.4520524-4.452053 8.9041048-6.678079 14.098166-5.194061 5.9360699-12.614149 14.098166-14.840175 13.3561572-2.968035-2.2260262 8.162096-17.0662009 6.678079-25.9703057-.742009-6.6780786-7.420087-11.8721398-14.098166-11.130131-10.388122 1.4840174-23.002271 20.7762445-23.002271 20.7762445 1.484018-3.7100436 2.226026-7.4200873 2.968035-11.130131-.742009-7.4200873-14.098166-10.3881223-20.776245 2.968035-4.452052 12.6141485-8.162096 25.9703057-9.646113 39.3264629-2.968035 5.9360699-14.098166 23.7442795-23.002271 24.4862885-7.420087.742009 1.484018-31.9063758 2.968035-33.3903933 3.710044-5.9360699 8.904105-18.5502184 8.162096-24.4862883 0-2.9680349-.742009-5.1940611-2.968035-6.6780786-2.226026-1.4840175-5.194061-2.2260262-7.420087-1.4840175-4.452053 1.4840175-8.162096 4.4520525-10.388122 8.1620961-2.968035-3.7100436-8.162097-5.9360698-13.356158-5.1940611-29.680349 2.9680349-48.230567 54.9086464-46.004541 79.3949347 1.484017 13.356157 8.162096 21.518253 19.292227 19.292227 12.614148-1.484017 23.002271-20.776245 23.002271-20.776245 0 0 2.968035 15.582184 17.066201 14.098166 10.388122-2.968034 19.292227-9.646113 25.970305-18.550218 0 .742009-.742008 1.484018-.742008 2.968035-2.226027 13.356157 19.292227 11.87214 20.776244 1.484017 6.678079-49.7145848 23.002271-69.7488206 27.454323-69.7488206 3.710044 0-10.388122 23.0022708-2.226026 32.6483843 6.678079 7.4200874 17.80821 1.4840175 27.454323-6.6780786-1.484017 5.9360699-2.226026 12.6141485-2.968035 18.5502184-.742008 14.0981655 4.452053 25.2282965 17.80821 24.4862885 17.80821-.742009 36.358428-23.002271 48.972577-43.7785156 2.968035 2.2260262 6.678078 3.7100437 10.388122 4.4520524-1.484018 5.1940611-1.484018 10.3881223-1.484018 14.8401747.742009 16.3241925 11.87214 22.2602625 25.228297 21.5182535 14.840175-.742009 32.648385-11.87214 44.520525-23.002271 0 .7420088 0 1.4840175-.742009 1.4840175-.742009 8.1620965.742009 22.2602625 11.87214 23.0022705 12.614148.742009 34.87441-11.872139 46.004541-25.9703054 8.162096-4.4520525-1.484017-13.3561573-8.162096-5.9360699h0 0zm11.87214-66.7807862c1.484017 0 2.226026 1.4840175 2.226026 2.9680349 0 14.098166-34.132402 43.0365067-34.132402 43.0365067 0 0 22.260262-46.0045416 31.906376-46.0045416h0zm-83.104979 28.9383407c1.484018 0 2.226027 0 2.968035 1.4840174.742009 1.4840175.742009 2.2260262.742009 2.968035 0 8.1620961-10.388122 14.098166-22.260262 14.098166 6.678079-9.6461136 13.356157-18.5502184 18.550218-18.5502184h0zM179.578204 71.3505725c-.742009 8.1620961-15.582184 46.0045415-23.002271 46.0045415-9.646114.742009 5.194061-52.6826201 20.776244-52.6826201 2.968035 0 2.968035 2.2260262 2.226027 6.6780786h0zM54.1787273 81.7386948c9.6461135 0-8.1620961 49.7145852-5.9360699 71.2328382 2.2260262 21.518254 25.9703057 15.582184 24.4862882 2.968035-2.9680349-21.518253 11.8721398-89.0410479 25.9703058-89.0410479 10.3881226 0-11.8721398 46.0045419-7.4200874 74.9428819 2.968035 18.550219 28.196332 13.356158 25.228297.742009-8.162096-37.842445 18.550218-74.2008734 14.840175-100.9131879-1.484018-11.130131-8.162096-17.0662009-14.840175-17.0662009-23.7442795 0-43.0365066 48.9725765-43.0365066 48.9725765 0 0 2.9680349-27.4543232-17.0662009-28.9383407C28.2084215 43.1542406-.72991916 114.387079.0120895751 178.941839.75409831 199.718084 25.9823953 196.00804 24.4983778 179.683848c-1.4840174-28.938341 14.8401747-97.9451532 29.6803495-97.9451532h0z" fill="#20b6ff"/></svg>