<svg width="256" height="222" xmlns="http://www.w3.org/2000/svg" preserveAspectRatio="xMidYMid"><path d="M215.771 151.107a7.111 7.111 0 003.57-6.144l.128-41.153a7.111 7.111 0 013.57-6.145l22.308-12.814A7.111 7.111 0 01256 91.016v74.818a7.11 7.11 0 01-3.57 6.166l-84.19 48.357a7.111 7.111 0 01-7.07.007l-66.07-37.79a7.111 7.111 0 01-3.585-6.172v-37.726c0-.042.05-.07.093-.05.035.022.085 0 .085-.05v-.042c0-.028.014-.057.043-.071l54.416-31.261c.05-.029.028-.107-.029-.107a.057.057 0 01-.057-.057l.107-36.986a7.111 7.111 0 00-10.667-6.187L95.064 87.17a7.111 7.111 0 01-7.097 0l-40.57-23.36a7.111 7.111 0 00-10.66 6.158v66.846a7.111 7.111 0 01-10.638 6.18L3.584 130.12A7.111 7.111 0 010 123.935L.2 7.095A7.111 7.111 0 0110.851.946L87.974 45.24a7.111 7.111 0 007.083 0l77.1-44.296a7.111 7.111 0 0110.653 6.172v116.867a7.111 7.111 0 01-3.562 6.166l-40.378 23.254a7.111 7.111 0 00.028 12.338l22.273 12.68a7.111 7.111 0 007.061-.015l47.54-27.3zm4.672-104.835a7.111 7.111 0 0010.767 6.094l21.334-12.8A7.111 7.111 0 00256 33.472V7.387A7.111 7.111 0 00245.233 1.3L223.9 14.1a7.111 7.111 0 00-3.457 6.095v26.084-.007z" fill="#007FFF"/></svg>