<svg width="256px" height="222px" viewBox="0 0 256 222" xmlns="http://www.w3.org/2000/svg" preserveAspectRatio="xMidYMid"><title>Material UI</title><path d="M215.77133 151.106936c2.201271-1.264122 3.561805-3.605758 3.569877-6.14417l.128003-41.15314c.008072-2.538412 1.368606-4.8800471 3.569877-6.1441699l22.308173-12.8145772c2.200436-1.2636598 4.907486-1.259094 7.103645.0119812 2.19616 1.2710753 3.549105 3.6160536 3.549105 6.1535229v74.818072c0 2.546041-1.362019 4.897577-3.569887 6.165505l-84.190776 48.356895c-2.188116 1.256158-4.878002 1.258865-7.06864.007111l-66.0711639-37.789491c-2.2155498-1.265558-3.5832762-3.621087-3.5840992-6.172616V138.67637c0-.042668.0497791-.071113.092447-.049779.0355565.021334.0853357 0 .0853357-.049779v-.042668c0-.028446.0142226-.056891.0426678-.071113l54.4157296-31.261311c.049779-.028445.028445-.106669-.028445-.106669-.03142 0-.056891-.025471-.056891-.056891l.10667-36.9859132c.01013-2.5456727-1.341276-4.9025803-3.54338-6.1798004-2.202104-1.2772201-4.918959-1.2799042-7.123582-.0070377L95.0639866 87.1691653c-2.1966291 1.2648459-4.9004564 1.2648459-7.0970855 0l-40.5700126-23.360647c-2.1997781-1.2666597-4.9079343-1.2647231-7.1058984.0050815-2.1979642 1.2698045-3.5524247 3.6149166-3.5539525 6.1533113v66.8462959c.0017182 2.535627-1.3468182 4.880348-3.5393753 6.153966-2.1925572 1.273618-4.8973991 1.283433-7.0991416.025761L3.58411931 130.121466C1.3641505 128.853389-.00426658054 126.49124 9.99460175e-6 123.934628L.199136663 7.09583624C.204651844 4.56090773 1.5591396 2.22057417 3.75437523.952964814 5.94961085-.314644544 8.65364265-.317848645 10.8518762.944554738L87.9740124 45.2408928c2.1930061 1.2593935 4.8898568 1.2593935 7.0828629 0L172.157678.944554738c2.201536-1.264293498 4.910099-1.259048636 7.106723.01376146 2.196624 1.272810092 3.548106 3.620114582 3.546016 6.158853962V123.984407c.001013 2.54457-1.357636 4.895764-3.562765 6.165504l-40.378008 23.253978c-2.207598 1.272628-3.56555 3.629155-3.559675 6.177299.005875 2.548144 1.374677 4.898385 3.588121 6.16082l22.272617 12.679463c2.19008 1.246839 4.876488 1.241428 7.061529-.014223l47.539094-27.300312zm4.67213-104.8349035c.002022 2.5602653 1.380152 4.9218101 3.608229 6.1830136 2.228077 1.2612036 4.96212 1.227355 7.158291-.0886226l21.333924-12.8003545c2.142247-1.2836634 3.454122-3.5969908 3.456096-6.0943911V7.38739987c-.004579-2.55899328-1.383714-4.91819576-3.611318-6.17765987-2.227603-1.259464108-4.960122-1.2249486031-7.155202.09038014L223.899555 14.1004747c-2.142246 1.2836634-3.454122 3.5969908-3.456095 6.094391v26.0842781-.0071113z" fill="#007fff"/></svg>