<svg width="256px" height="145px" viewBox="0 0 256 145" xmlns="http://www.w3.org/2000/svg" preserveAspectRatio="xMidYMid"><title>Matomo</title><defs><path d="M105.42629 70.8874508l.034383-.0218799-.662645-1.0095967c-.100022-.1531587-.200044-.3125688-.303193-.459476L58.9348246 0 0 43.9096481l43.0782158 66.3051939c.1844157.281312.3594542.565749.5501211.847062l.2281746.350076.0250055-.015629c6.6764677 9.470831 17.6788845 15.672194 30.1441239 15.672194 20.3732259 0 36.8893551-16.513004 36.8893551-36.8893556 0-7.0828058-2.028571-13.6748795-5.488706-19.2917386" id="b"/><path d="M64.5485578 19.3292471c0-20.37322655-16.5161281-36.8893556-36.889355-36.8893556-20.37322686 0-36.88935595 16.51612905-36.88935595 36.8893556 0 7.4891456 2.24424326 14.4469243 6.07946161 20.2638275-.00312607 0-.00312607 0-.00312607-.0031258l-.01875437.0031258L-31.1787258-7.10542736e-15h-.0406338C-37.7176627-10.5241875-49.3202116-17.5601085-62.5950034-17.5601085c-13.2747918 0-24.8773412 7.035921-31.3756441 17.56010849999999L-94.0081558-7.10542736e-15-138.617958 69.5246513c6.632708-9.7990281 17.847672-16.2348172 30.569217-16.2348172 13.3904424 0 25.0773853 7.1578228 31.5413056 17.8320432h.0468853l29.150155 40.9214907h.0468854c6.7171009 9.098875 17.4850921 15.025177 29.6627677 15.025177 12.18080169 0 22.94879286-5.926302 29.6658933-15.025177h.050011l.29694-.459475c.7595423-1.068985 1.4721987-2.166102 2.1160897-3.313229l43.6752218-68.2556217c0 0 0 0 0 .0031257 4.0008797-5.9012967 6.345144-13.0216112 6.345144-20.6889209M2.37239685 46.1413884c.21254628.2031697.43446976.3969622.65326817.5938805-.21879841-.1969183-.43759582-.3907108-.65326817-.5938805m3.27884512 2.744353c.24380392.1812899.48135571.3688311.72828469.5438695-.24692898-.1750384-.48448077-.3625796-.72828469-.5438695m8.09552923 4.5978853c.3063172.1281531.6282627.2281752.940831.3469513-.3125683-.1187761-.6345138-.2187982-.940831-.3469513m3.9696221 1.3409196c.4375958.1250275.8814438.2344265 1.3252907.3375742-.4438469-.100022-.8876949-.2125467-1.3252907-.3375742m4.3103219.9220776c.4282187.0656394.8533122.1437816 1.287783.1969183-.4344708-.0531367-.8564383-.1312789-1.287783-.1969183m29.8909429-8.6737808c.3281966-.2875632.6532681-.5813778.9720886-.8814437-.3188205.3000659-.6407659.5938805-.9720886.8814437m-19.9606356 8.8769505c.4375958-.050011.8689405-.1344046 1.3034113-.1969183-.4344708.0625137-.8626904.1469073-1.3034113.1969183m4.1977967-.7532906c.4688534-.109399.9377059-.2313008 1.4003082-.3594539-.4626023.1281531-.9283297.2500549-1.4003082.3594539m4.1696661-1.256526c.3938369-.1437816.79705-.2750605 1.1846359-.4344705-.3875859.15941-.7876729.2906889-1.1846359.4344705m8.3674637-4.3259506c.3125693-.2156723.6095093-.4563503.9158265-.6845254-.3063172.2281751-.6032572.4657274-.9158265.6845254m6.2576252-5.5262142c.2594323-.2844375.5282407-.5626237.7782957-.8564382-.250055.2938145-.5188634.5720007-.7782957.8564382" id="c"/><filter x="-3.4%" y="-3.5%" width="106.9%" height="109.7%" filterUnits="objectBoundingBox" id="d"><feOffset dy="2" in="SourceAlpha" result="shadowOffsetOuter1"/><feGaussianBlur stdDeviation="2" in="shadowOffsetOuter1" result="shadowBlurOuter1"/><feColorMatrix values="0 0 0 0 0   0 0 0 0 0   0 0 0 0 0  0 0 0 0.5 0" in="shadowBlurOuter1"/></filter></defs><path d="M250.511293 88.4475592l.034383-.0218798-.662645-1.0095968c-.100022-.1531587-.200044-.3125687-.303191-.459476l-45.560011-69.3964981-58.934825 43.909648 43.078215 66.3051935c.184416.281313.359454.565749.550121.847062l.228176.350076.025005-.015628c6.676467 9.470831 17.678885 15.672194 30.144123 15.672194C239.483871 144.628654 256 128.11565 256 107.739298c0-7.082806-2.028571-13.6748796-5.488707-19.2917388" fill="#95c748"/><path d="M73.7787111 107.739298c0-20.3732264-16.516129-36.8893554-36.8893555-36.8893554C16.516129 70.8499426 0 87.3660716 0 107.739298c0 20.376352 16.516129 36.892481 36.8893556 36.892481 20.3732265 0 36.8893555-16.519254 36.8893555-36.892481" fill="#35bfc0"/><path d="M172.744206 0c20.373227 0 36.889356 16.516129 36.889356 36.8893556 0 7.6673096-2.344265 14.7876241-6.345144 20.6889208h0v-.0031256l-43.675222 68.2556222c-.643891 1.147127-1.356548 2.244243-2.11609 3.313229h0l-.29694.459475h-.050011c-6.717101 9.098874-17.485092 15.025177-29.665894 15.025177-12.177676 0-22.945667-5.926303-29.6627671-15.025177h0-.0468853L68.6244535 88.6819857h-.0468852C62.113648 78.0077654 50.426705 70.8499426 37.0362628 70.8499426c-12.7215452 0-23.9365094 6.4357891-30.56921682 16.2348171h0L51.0768479 17.5601085h.0375083C57.6126589 7.03592097 69.2152083 0 82.4900002 0 95.764792 0 107.367341 7.03592097 113.865644 17.5601085h0 .040634l28.006154 39.5930746.018753-.0031258c0 .0031258 0 .0031258.003127.0031258-3.835218-5.8169033-6.079461-12.774682-6.079461-20.2638275C135.854851 16.516129 152.37098 0 172.744206 0z" fill="#3253a0"/><path d="M250.511294 88.4475592l.034383-.0218798-.662645-1.0095968c-.100022-.1531587-.200044-.3125687-.303192-.459476l-45.560011-69.3964981-58.934825 43.909648L188.16322 127.77495c.184416.281313.359454.565749.550121.847062l.228175.350076.025005-.015628c6.676468 9.470831 17.678885 15.672194 30.144124 15.672194C239.483871 144.628654 256 128.11565 256 107.739298c0-7.082806-2.028571-13.6748796-5.488706-19.2917388" fill="#95c748"/><g transform="translate(145.085004 17.560108)"><mask id="a" fill="#fff"><use href="#b"/></mask><g mask="url(#a)"><use filter="url(#d)" href="#c"/></g></g><path d="M209.486655 36.8893556c0-20.3732266-16.516129-36.889355599999966-36.889356-36.889355599999966C152.224072 3.55271368e-14 135.707944 16.516129 135.707944 36.8893556c0 20.3732265 16.516128 36.8893555 36.889355 36.8893555 20.373227 0 36.889356-16.516129 36.889356-36.8893555" fill="#f38334"/><path d="M172.597299 73.7818367c-12.887207 0-24.214695-6.6170789-30.809894-16.6286536h-.021881l-28.006153-39.5930746h-.040635C107.220434 7.03904666 95.6178847.00312568679 82.3430929.00312568679c-13.2747918 0-24.8773412 7.03592097321-31.3756441 17.55698281321h-.0375081L6.32326439 87.0847597C12.952846 77.2888574 24.170936 70.8530683 36.8893556 70.8530683c13.3904421 0 25.0805108 7.1546971 31.5444311 17.8289174h.0468852L97.630827 129.603477h.0437596c6.7202264 9.095748 17.4882184 15.028302 29.6658934 15.028302 12.177676 0 22.945667-5.929428 29.662767-15.028302h.050011l.29694-.462601c.759543-1.06586 1.472199-2.162976 2.119216-3.306977l43.672096-68.2556226c-6.635833 9.7740227-17.838294 16.2035603-30.544211 16.2035603" fill="#3152a0"/></svg>