<svg width="256px" height="256px" viewBox="0 0 256 256" xmlns="http://www.w3.org/2000/svg" preserveAspectRatio="xMidYMid"><path d="M6.79123171 86.9648684C25.2351716 32.4823178 76.783459-1.43234143 131.421839.0464773399h0L113.909757 20.739032c-32.4140241 5.8607349-60.4025002 27.9947093-71.4024809 60.4897649C26.140539 129.576353 53.572705 182.545803 103.779303 199.543648c50.206599 16.994729 104.173355-8.421008 120.540092-56.765448 10.96414-32.387533 2.270431-66.8475947-19.756021-91.1803186h0l-1.346364-27.1688148c44.154193 32.0478259 64.405751 90.2048284 45.991419 144.6001144-22.662235 66.941092-95.298884 102.83634-162.2399758 80.175663C20.0273609 226.542609-15.8694453 153.905961 6.79123171 86.9648684zM165.185344 11.9237762c.654482-.2836091 1.408695-.3443824 2.136418-.0981724.713697.2415353 1.263774.7323971 1.61439 1.3338977h0l.071681.1168719.06389.134013c.168296.3210081.311658.688765.378665 1.1406695.131955.890696.191147 2.9848036.215246 5.1297943l.005731.5853932c.005737.68241.008268 1.3593639.008806 1.9937359l2e-6.5324532c-.001432 1.7343106-.016299 3.0344217-.016299 3.0344217h0l.503328 18.9332435.743305 21.8550402.927184 37.9802421c0 0 1.59e-4.006987 3.73e-4.020776l7.08e-4.061589c1.11e-4.013604 2.11e-4.028863 2.86e-4.045753l4.7e-5.120733c-.007082 2.169071-.451932 18.048687-11.716651 29.084431-12.112601 11.866391-26.991169 10.780261-36.671277 7.504732-9.680108-3.278645-22.157349-11.453443-24.5711425-28.237802-2.0517247-14.2653812 5.5328355-26.2565133 7.8543665-29.5328818l.154938-.2167149c.315917-.4378241.500526-.6682565.500526-.6682565h0l23.80758-29.6059829 13.867237-16.9090226 11.900673-14.7352057c0 0 1.749958-2.3440945 3.551115-4.6527216l.360411-.4605474c.600144-.7644408 1.193394-1.5073144 1.716832-2.1404888l.305182-.3660358c.443698-.5271925.820655-.9512514 1.085006-1.2079285.308542-.299192.624875-.4939785.934975-.6451328h0l.22751-.1153136z" fill="#0058cc"/></svg>