<svg width="256px" height="251px" viewBox="0 0 256 251" xmlns="http://www.w3.org/2000/svg" preserveAspectRatio="xMidYMid"><title>Matter</title><path d="M76.0197455 64.2869435c10.7687668 8.736315 23.5700558 14.6105513 37.2157055 17.0774875V8.55613423L128.063765 1.42108547e-14 142.880485 8.55613423V81.364431c13.648367-2.4694152 26.452819-8.3432731 37.2273-17.0774875l26.92052 15.5703093c-43.782304 43.3161212-114.2743059 43.3161212-158.0566099 0l27.0480504-15.5703093zM108.737104 250.214755c15.613384-59.591922-19.6652805-120.644386-79.0920698-136.874961v31.152213c12.9539098 4.956795 24.4467092 13.103842 33.4129795 23.685883L0 204.582039v17.123862l14.8283139 8.50976 63.04642-36.404149c4.6861504 13.053292 5.9981953 27.079012 3.81432 40.774965l27.0480501 15.628278zm117.67583-136.874961c-59.394512 16.266505-94.634051 77.304944-79.022508 136.874961l26.978488-15.581903c-2.178828-13.696117-.866901-27.720577 3.81432-40.774965l63.000046 36.357774L256 221.659526v-17.077487l-63.058014-36.404149c8.968657-10.579439 20.460735-18.725975 33.41298-23.685883l.057968-31.152213z" fill="#231f20"/></svg>