<svg width="256px" height="256px" viewBox="0 0 256 256" xmlns="http://www.w3.org/2000/svg" preserveAspectRatio="xMidYMid"><title>mautic</title><path d="M128.134689 255.999052C57.5795122 255.999052 0 198.41954 0 127.864363 0 57.3091859 57.5795122 0 128.134689 0c17.03056 0 33.520467 3.24391618 49.199396 9.73174855 4.325221 1.89228445 6.487832 7.02848505 4.595548 11.35370665-1.892285 4.3252216-7.028486 6.4878323-11.353707 4.5955479-13.516318-5.6768533-27.843614-8.3801168-42.711563-8.3801168-61.0937549 0-110.833803 49.7400481-110.833803 110.8338027 0 61.093755 49.7400481 110.833803 110.833803 110.833803 61.093755 0 110.833803-49.740048 110.833803-110.833803 0-12.975665-2.162611-25.951329-6.758159-38.116015-1.621958-4.5955479.540653-9.4614221 5.136201-11.0833802 4.595548-1.6219581 9.461422.5406527 11.08338 5.1362006C253.295789 98.1284645 256 112.996414 256 128.134689c.269378 70.555177-57.310134 127.864363-127.865311 127.864363z" fill="#4e5e9e"/><path d="M184.092243 114.888698l16.219581 67.040935H175.4418l-11.08338-46.225806 19.733823-20.815129zm30.276551-68.9332188-7.028485 38.9269942-6.758158-6.7581587-72.447462 78.9352933-33.7907934-37.034709-14.8679491 61.904734H54.335596L81.3682309 70.2848506l46.7664581 48.3884164 54.876249-58.1201649-7.028485-6.7581588 38.386341-7.8394641z" fill="#fdb933"/></svg>