<svg width="512px" height="139px" viewBox="0 0 512 139" xmlns="http://www.w3.org/2000/svg" preserveAspectRatio="xMidYMid"><defs><linearGradient x1="20.6825926%" y1="63.5581416%" x2="146.23666%" y2="19.880093%" id="a"><stop stop-color="#f69923"/><stop stop-color="#f79a23" offset=".3123"/><stop stop-color="#e97826" offset=".83829999"/></linearGradient><linearGradient x1="21.1592638%" y1="394.970831%" x2="52.6941244%" y2="13.7454494%" id="b"><stop stop-color="#9e2064" offset=".3233"/><stop stop-color="#c92037" offset=".63020003"/><stop stop-color="#cd2335" offset=".75139999"/><stop stop-color="#e97826" offset="1"/></linearGradient><linearGradient x1="34.9146614%" y1="192.311508%" x2="66.0983571%" y2="-136.283241%" id="c"><stop stop-color="#282662"/><stop stop-color="#662e8d" offset=".0954839"/><stop stop-color="#9f2064" offset=".78820002"/><stop stop-color="#cd2032" offset=".94870001"/></linearGradient><linearGradient x1="30.2375609%" y1="170.497289%" x2="64.6876939%" y2="-44.4029666%" id="d"><stop stop-color="#9e2064" offset=".3233"/><stop stop-color="#c92037" offset=".63020003"/><stop stop-color="#cd2335" offset=".75139999"/><stop stop-color="#e97826" offset="1"/></linearGradient><linearGradient x1="31.5290893%" y1="77.304969%" x2="81.0766856%" y2="-41.4214613%" id="e"><stop stop-color="#282662"/><stop stop-color="#662e8d" offset=".0954839"/><stop stop-color="#9f2064" offset=".78820002"/><stop stop-color="#cd2032" offset=".94870001"/></linearGradient><linearGradient x1="39.839649%" y1="187.679939%" x2="57.3005932%" y2="-51.0282024%" id="f"><stop stop-color="#9e2064" offset=".3233"/><stop stop-color="#c92037" offset=".63020003"/><stop stop-color="#cd2335" offset=".75139999"/><stop stop-color="#e97826" offset="1"/></linearGradient><linearGradient x1="22.3028318%" y1="465.802602%" x2="52.5527609%" y2="17.0754295%" id="g"><stop stop-color="#9e2064" offset=".3233"/><stop stop-color="#c92037" offset=".63020003"/><stop stop-color="#cd2335" offset=".75139999"/><stop stop-color="#e97826" offset="1"/></linearGradient><linearGradient x1="16.6340675%" y1="60.3084809%" x2="159.526257%" y2="27.0993329%" id="h"><stop stop-color="#f69923"/><stop stop-color="#f79a23" offset=".3123"/><stop stop-color="#e97826" offset=".83829999"/></linearGradient><linearGradient x1="-85.4238226%" y1="394.970831%" x2="62.6504617%" y2="13.7454494%" id="i"><stop stop-color="#9e2064" offset=".3233"/><stop stop-color="#c92037" offset=".63020003"/><stop stop-color="#cd2335" offset=".75139999"/><stop stop-color="#e97826" offset="1"/></linearGradient><linearGradient x1="-20.6186724%" y1="129.231948%" x2="125.360894%" y2="-53.713215%" id="j"><stop stop-color="#282662"/><stop stop-color="#662e8d" offset=".0954839"/><stop stop-color="#9f2064" offset=".78820002"/><stop stop-color="#cd2032" offset=".94870001"/></linearGradient><linearGradient x1="9.21825943%" y1="170.497289%" x2="80.3095037%" y2="-44.4029666%" id="k"><stop stop-color="#9e2064" offset=".3233"/><stop stop-color="#c92037" offset=".63020003"/><stop stop-color="#cd2335" offset=".75139999"/><stop stop-color="#e97826" offset="1"/></linearGradient><linearGradient x1="37.046201%" y1="77.304969%" x2="71.7943308%" y2="-41.4214613%" id="l"><stop stop-color="#282662"/><stop stop-color="#662e8d" offset=".0954839"/><stop stop-color="#9f2064" offset=".78820002"/><stop stop-color="#cd2032" offset=".94870001"/></linearGradient><linearGradient x1="-34.7453607%" y1="181.58263%" x2="110.892719%" y2="-46.5540564%" id="m"><stop stop-color="#9e2064" offset=".3233"/><stop stop-color="#c92037" offset=".63020003"/><stop stop-color="#cd2335" offset=".75139999"/><stop stop-color="#e97826" offset="1"/></linearGradient><linearGradient x1="-129.864381%" y1="266.449034%" x2="66.5775346%" y2="32.8608781%" id="n"><stop stop-color="#9e2064" offset=".3233"/><stop stop-color="#c92037" offset=".63020003"/><stop stop-color="#cd2335" offset=".75139999"/><stop stop-color="#e97826" offset="1"/></linearGradient></defs><g fill="none"><g transform="translate(250.163459 25.43155)"><path d="M1.78171571 2.14300075c-.18578434.43851854-.3616956 1.005764-.525234 1.6897037l-.12029483.53464694c-.03929894.18538369-.07778551.37787277-.11542066.57727921l-.11031214.61878343h0l-.104969261.65915958h0l-.099392031.69840766h0l-.09358045.73652769h0l-.087534515.77351964h0l-.081254229.80938354c-.013005995.13782324-.025740547.27709381-.038198772.41778821l-.071394389.86106425h0l-.064528222.894108h0l-.057427701.9260236c-.008966554.1569343-.017627488.3151514-.025977921.4746277l5.735981281 2.7761004c-.08680607-3.348714.02101182-6.5152786.32267665-9.42464612l.05914245-.51853286h0l-.04088096.47509322h0l-.05099095.7854399h0l-.01866512.37474141h0l-.03145327.8549633h0l-.0117303.48082335h0l-.0128233 1.06983375h0l.00177279.89822305h0l.01351934.9815061h0l.01642031.7011069h0l.03706388 1.1225665h0l.03376954.796087h0l.04163487.8346052c.00762397.1423275.0155977.2862724.02393221.431841 1.06842013-.871186 2.3480336-2.0148575 3.67871169-3.2650277l.8929266-.8474029c.1494962-.1432562.2991836-.2873719.4488423-.4321193l.8958531-.8742434h0l.8846246-.87847572h0l.8628528-.87177878h0l.8305375-.85415268h0c-.9177091-1.8749778-1.9074162-3.25256372-2.8280224-4.25879388l-.3041159-.32182903c-.2007797-.20561392-.3973728-.39358084-.5882309-.56528388l-.2817923-.24552952h0l-.2720286-.22217103c-.0889198-.07027919-.1760188-.13683818-.2611034-.19984986l-.249017-.17856604h0l-.23576929-.15831953h0l-.32627409-.2017863h0L9.16362634.91637977h0L8.84034991.756025808h0L8.59793572.651761811h0L8.15552159.491847358h0L7.83331662.388498209h0l-.3145899-.088862948h0l-.23952466-.06024086h0L7.01890867.181096176C6.97394189.171672251 6.92821937.162427189 6.88179594.15340995L6.59528291.102432063h0L6.29457908.0592719908C4.70881454-.139478346 2.66018373.0689104562 1.78171571 2.14300075z" fill="url(#a)"/><path d="M16.9123591 71.4373898l-.7962-2.9086335h0l-.7020463-2.5909689h0l-.2988179-1.1380472h0l-.5818345-2.2482413h0l-.5621036-2.202387h0l-.558875-2.2612246c-.0911442-.3734408-.1812482-.7449377-.2702535-1.1141468l-.5203747-2.1850544h0l-.5228607-2.2400847c-.2538641-1.1039366-.4961781-2.1850221-.7260391-3.2491405l-.4554017-2.1314078c-.0743269-.3503462-.1477034-.6983683-.219884-1.0442464l-.3058607-1.4876584h0l-.68054693-3.496226h0l-.14508188-.7807571h0l-.29480795-1.5312468h0l-.08944707-.5073407h0l-.06909779-.3673897h0l-.27543397.2504998-.57003809-.2826402.04093336.1875143h0c.12462594.7626447.25437655 1.5322717.39390671 2.3054646l.46809696 2.5016961c.04168609.2263549.08263551.4541458.12183934.6832179.26613911 1.4000875.54111524 2.7936892.83465721 4.1940606l.300091 1.4031188c.3936234 1.8866735.8144875 3.7775267 1.2395314 5.6411393.4135134 1.8479022.8584474 3.6727435 1.3033813 5.4975848.2966226 1.2165608.5951029 2.4210146.8988573 3.6180164l.4600143 1.7904954c.4795254 1.871972.9632306 3.7167033 1.4668258 5.5226634.1049277.4064491.2213859.8286085.3420239 1.2235271l.6001272 2.1762684c.2001265.7173034.4012979 1.4277966.6063969 2.1354072l.9189793.4616505.3068545-.2735608c-.0073508-.042951-.0147015-.085902-.0377625-.1173225-.6083784-1.8499199-1.1235041-3.6715902-1.6197486-5.4345993z"/><path d="M7.4228854 32.5217596c-.26477035-1.9087256-.50647973-3.7860307-.72512812-5.6319153-.17745548-1.5328611-.32271785-3.042938-.44169072-4.5382744l-.10201951-1.3404948c-.001799-.0353868-.0027439-.0696099-.00240762-.1020874-.12539566-1.817635-.21619985-3.5881393-.25670231-5.3230432L.170486329 12.8255544l-.015613846.3507774h0l-.038434214.7283309h0c-.0570745287 1.3714059-.0994476198 2.8287138-.11140901319 4.3603932-.01397903888 1.7265444.00245361999 3.5274603.03358771639 5.4142783.0405024606 1.734904.1114166188 3.5441795.2053917558 5.3848755.069616377 1.1817294.145718653 2.3722959.233171255 3.5783271l.105108823 1.3947662h0l7.657824164 3.8795648-.27000702-1.8072948h0l-.54722055-3.5878134z" fill="url(#b)"/><path d="M18.4996784 76.9924826l.1185481.408539h0l.7605814 2.5842668c.1092336.3670293.2199085.7360224.3325156 1.106619l.3629904 1.1749009h0l.1241025.422816c.0219506.0689426.0454921.1376129.0720603.2067477l1.2336204 3.9533661h0c1.0925546-.2259899 2.4243473.1816849 3.831118.7955933l.5663177.2555493h0c-1.0355819-1.2462991-2.469109-2.0796628-4.1821052-2.2727966 4.6901615-3.1280781 7.7760009-7.1575494 7.3424504-11.9640273-.0462664-.4253303-.1040634-.8663709-.189101-1.3115912-.0708165 1.7719789-.7782028 3.0724948-2.8279088 4.4625094l-.252453.1672673h0c2.1200182-3.7315519 2.7036019-6.2629239 2.4529551-9.5357047-.0621212-.7762891-.1588338-1.599709-.3016684-2.48597-.6779872 4.8729233-3.2948254 8.0263664-7.1222204 9.8927215l-2.3218031 2.1391935z" fill="url(#c)"/><path d="M15.7525374 71.2733699l-.4870736-1.8261437h0l-.9797522-3.6965197h0c-.464824-1.78607-.9139377-3.5836706-1.3588716-5.4085118-.4449339-1.8248413-.8741576-3.6612131-1.3033813-5.4975848-.4365744-1.8793228-.845908-3.7544658-1.2395314-5.6411393l-.3886482-1.8652567h0l-.74610002-3.7319227h0c-.13332176-.6756857-.25511303-1.3356611-.37272453-2.0228773-.21417967-1.1481467-.41264907-2.307824-.61111848-3.4675013l-.04093336-.1875143h0L.609529555 34.0414827l.024929545.2413392c.002887997.04175.004185216.0837721.002455685.1253299.15364523 1.7243823.30311069 3.4760053.507057645 5.2359879.19976719 1.7872233.42677513 3.5786265.69255431 5.3899196.22585463 1.5263463.46741953 3.0411622.72051491 4.5716883l.16589559.9176814h0c.35067237 1.8940242.72541455 3.7220365 1.13258607 5.4295552.4554556 1.937984.94334055 3.7554746 1.43641409 5.4482919.3315022 1.1103844.65565369 2.1778177.98816472 3.1907696l.29504217.8533349h0l.61010252 1.6973493h0c.7278631 1.9797817 1.5342775 3.901911 2.40353295 5.7779183l7.69659544 3.8994549c-.410198-1.4152212-.7889755-2.8535033-1.2065242-4.3116756l-.2132719-.8175531h0l-.1130417-.4175045z" fill="url(#d)"/><path d="M9.70307583 73.1751834c.92757457 1.9842856 1.93934627 3.906775 3.05636437 5.7520192l.6194132 1.0018085h0c-.7292863-.2935323-1.651618-.4396964-2.5477949-.5048713l-.4448941-.0261457c-.0734475-.0033352-.1464596-.0061848-.2189096-.0085872l-.42693864-.0093557h0l-.60179017.0020564h0l-.53718204.0158326h0l-.45202391.0233857h0l-.63278673.0519629c-.0052933 7.232e-4-.00761422.0011637-.00698275.0012831 3.89168324 1.3499265 7.30456114 3.0028167 9.45744724 5.5079544-.8555603.9421847-2.4571425 1.6583728-4.4705069 2.2416726 1.4989396.1624341 2.6408719.0962803 3.4642978-.0380221l.3335087-.0612628c.0523721-.0107499.1031473-.0217306.1523395-.0328836l.2762703-.0685176h0l.2389532-.0698461h0l.2899337-.1011207h0l.1486071-.0608887h0c-1.2365054 1.0308112-2.010236 2.7873359-2.6533869 4.7562795l-.2221133.7029056c-.0362955.1183424-.0722745.2372108-.1080044.3565008 1.6374689-2.6763688 3.2616786-4.4486043 4.8433708-5.1260212 1.7664658 5.8573012 3.8093841 12.0912682 6.0514117 18.596521l1.0486382 3.021303c.354071 1.013267.712573 2.03257 1.0752243 3.057527.5214651-.672803.5798374-1.416663.3616224-2.17508l-.716934-2.0251h0l-.8168259-2.366942h0l-1.2651706-3.753641h0l-1.0367025-3.1473805h0l-1.1456342-3.5515824h0l-1.0938461-3.4647922h0l-1.0040467-3.2469068h0l-.7385832-2.4315083h0l-.6011135-2.0074488h0c-.0804253-.2632791-.1538683-.5316829-.2330552-.8030333l-.2264357-.7452207h0L18.2696846 80.195h0l-.660158-2.3074635h0l-.2969107-1.0632536h0l-.0115305-.0157102h0l-7.69659538-3.8994549c.01748795.0677415.03683358.123376.06021487.1796297l.03837094.0864359z" fill="url(#e)"/><path d="M9.13487794 38.082041l.1364927.7458774h0c.09868214.5077252.19038193 1.020575.28782561 1.5363714l.83261115 4.2718585h0l.3058607 1.4876584h0l.4454702 2.1024375c.0759821.3551745.1526691.7128534.2298155 1.0732167.229861 1.0641184.472175 2.1452039.7260391 3.2491405l.5228607 2.2400847h0l.5203747 2.1850544c.0890053.3692091.1791093.740706.2702535 1.1141468l.558875 2.2612246h0l.5587828 2.1978624c.2836369 1.1105124.5755031 2.2393514.8839732 3.3908131.2250613.850084.4587704 1.7119507.6977223 2.5850776l.800524 2.9145248h0l.6048239 2.1420249h0l.6245549 2.1878792c.1058259.3678866.2125408.737248.3201781 1.1078661.0073507.042951.0147014.0859021.0377624.1173226l2.3218031-2.1391935-.0562538.0233813h0l-.1239098.0605031h0c2.7553485-2.6024308 5.1167846-7.8165136 5.6565504-12.5154706.2484797-2.1645586.2255606-4.4683473-.071928-6.9815581-.2144686-1.8731253-.5955527-3.8415211-1.1191824-5.9711992-.4564645-1.8405515-1.0208831-3.7952546-1.7089661-5.8525789-.4260502.8686775-1.0312551 1.7238069-1.7726638 2.5580375l-.4021249.4401762h0l-.1376129.1430795h0l-.2917527.292917h0c2.032243-3.1594961 2.2739473-6.551906 1.6711884-10.0738888-.3694066 1.0446613-1.094816 2.5923399-2.2980197 3.9830604-.1539317.1854967-.3351041.3668136-.5162765.5481305-.0314205.0230609-.0577163.0531043-.0903753.0842366l-.0551968.0467785c.6742434-1.1233571 1.172503-2.1900706 1.4916079-3.2703322.0509261-.1501845.0897452-.3022266.1245287-.454888l.0501573-.2293017c.0815778-.34995.1359148-.7040797.1902518-1.0582095l.0772535-.6851985h0c.0304833-.4030982.0391578-.8173845.0193957-1.2379946l-.0529855-.7741532c-.0051834-.0570759-.0119576-.1138794-.0217586-.1711475l-.0809059-.4957035c-.0136125-.0795389-.0279616-.1576419-.0440563-.2344636-.1575154-.9203788-.330385-1.7406895-.5087156-2.4681934l-.1670723-.6530806h0l-.1510497-.5516295h0l-.196352-.6524647h0l-.25518-.7645243c-.0269751-.0768938-.0539817-.1507429-.0815108-.2211869l-.1540817-.3855927c-.0494423-.1185984-.0968242-.2270702-.1417184-.3248337l-.1267927-.2605832c-.0244061.0984895-.0557945.2021036-.0975817.3061875l-.0709069.1558964c-.4793784 1.1253748-1.5945179 2.6690181-2.6113606 3.7537484-.0157103.0115305-.0314205.023061-.0356003.0503018l-.2097583.2094598c-.0357605.0378851-.0712487.077361-.1054557.1185825l.03978-.0775425h0l-7.31521473 6.698492c.06183222.0513105.06918294.0942616.06500317.1215023z" fill="url(#f)"/><path d="M6.30556601 15.453776c.02954736.5342934.06492403 1.0911672.10570296 1.6700397l.08863435 1.1869041c.01593072.2026484.03243005.4076981.04948219.6151274l.10881987 1.2729591c.01920007.2168617.03892131.4360599.0591479.6575731l.01715712.2112319c.00412645.0336786.00984367.0670849.01858765.1009557.06194089.6525347.1308136 1.3237771.20700576 2.0159923l.16225845 1.4130651c.0574158.4807903.11819955.971573.1824661 1.4730191l.30441812 2.2983736c.14228639 1.0434708.29636549 2.1245182.4686917 3.2519362l.13276684.8543954c.13130412.8705507.27702134 1.7607392.43126033 2.6748895l.48239092 2.81866h0l7.31521473-6.698492c1.525335-2.7632796 1.8588523-4.4826178 1.8380954-6.6187823-.007243-.4297984-.0274578-.8772709-.0557799-1.3357896l-.0308445-.4619554c-.1170361-1.8721165-.3420264-3.8583846-.6612783-5.7754698-.3003706-1.858424-.6677621-3.6434852-1.0884817-5.1718491-.2664991-.9888821-.5497172-1.8688011-.8381239-2.62404694-.2621748-.65363351-.5327091-1.25278553-.8074232-1.82469679l-.8294048.84677044c-.1412395.14302796-.2838348.28685163-.4275658.43123992l-.8742531.87125635h0l-.8909413.87371452h0l-.897061.8650801c-.149433.1428442-.2986806.2848664-.4475227.4258356l-.88642443.8313298c-1.17071338 1.0866607-2.28728898 2.0763455-3.23699576 2.850733z" fill="url(#g)"/></g><path d="M212.120149 30.786986c4.061028.4390301 7.628148 1.2622115 10.701358 2.4695443 3.182969 1.2073328 5.762271 2.8536958 7.737906 4.9390888 2.085393 1.9756355 3.457362 4.5549374 4.115907 7.7379057.329273 1.8658779.329273 4.0061497 0 6.4208153-.329272 2.4146656-.768302 4.88421-1.31709 7.4086331l-7.408633 36.713893c-.329273 2.085393-.713424 4.2256648-1.152454 6.4208158-.43903 2.085393-.603666 4.006149-.493909 5.76227 0 .329272-.054879.713424-.164636 1.152454v.987818h0c0 1.207332-.109758 2.414665-.329273 3.621998-.219515 1.207333-.932939 2.030514-2.140272 2.469544-.768302.329273-1.591484.493909-2.469544.493909h-14.487994 0c-.87806-.109757-1.536605-.384151-1.975635-.823181-.658545-.43903-1.097575-1.042697-1.31709-1.810999-.219515-.878061-.603667-1.591485-1.152454-2.140272-.219515-.219515-.493909-.384152-.823182-.493909-.219515-.219515-.603666-.274394-1.152454-.164636-.658545.219515-1.262211.493908-1.810999.823181-.548788.329273-1.097575.603666-1.646363.823181-.658545.439031-1.371969.823182-2.140272 1.152455-.658545.329272-1.371969.658545-2.140272.987817-1.536605.658545-3.128089 1.207333-4.774452 1.646363-1.646363.329273-3.292726.713424-4.939089 1.152454-.87806.219515-1.701241.329273-2.469544.329273-.658545.109757-1.371969.219515-2.140272.329272h-.987818 0c-.329272.109758-.658545.164637-.987817.164637h-1.811c-1.207332.219515-2.304908.219515-3.292725 0h-1.481727c-.768303-.219515-1.536605-.329273-2.304908-.329273-.658545.109758-1.317091.054879-1.975636-.164636-.987817-.219515-1.975635-.43903-2.963453-.658545-.987818-.109758-1.865878-.384152-2.634181-.823182-2.963453-1.207333-5.378121-2.743938-7.244003-4.609816-1.865878-1.975635-3.12809-4.554937-3.786635-7.737906-.219515-.768302-.384151-1.591484-.493909-2.469544 0-.87806-.054878-1.810999-.164636-2.798817-.109757-.5487876-.109757-1.0975753 0-1.6463629.219515-.5487876.329273-1.0975753.329273-1.6463629 0-.3292726.054878-.9878177.164636-1.9756355.219515-1.0975753.43903-1.865878.658545-2.3049081.43903-1.0975753.713424-2.0305142.823182-2.7988169l1.646363-3.6219984h0c.658545-1.3170904 1.371969-2.4695444 2.140271-3.4573622 2.41467-3.1829683 4.993974-5.5976339 7.737913-7.2439968 2.743938-1.6463629 6.146421-3.0732107 10.20745-4.2805435 1.536605-.5487877 3.07321-.932939 4.609816-1.1524541 1.536605-.219515 3.128089-.4939089 4.774452-.8231814.878061-.2195151 1.810999-.3292726 2.798817-.3292726 1.097576-.1097575 2.140272-.2743938 3.12809-.4939089.768302-.219515 1.536605-.2743938 2.304908-.1646363.768303 0 1.646363-.1097575 2.634181-.3292726.768302-.219515 1.536605-.3292726 2.304908-.3292726.768302 0 1.591484-.1097575 2.469544-.3292725 2.414666-.5487877 4.609816-.9878178 6.585452-1.3170904 2.085393-.4390301 4.061028-1.4268478 5.926906-2.9634532 1.097575-.9878178 1.975636-2.085393 2.634181-3.2927258.109757-.3292726.164636-.6036664.164636-.8231815 0-.219515.054879-.4390301.164636-.6585452.219515-.219515.329273-.5487876.329273-.9878177.109757-.4390301.219515-.7683027.329273-.9878177v-2.4695444h0c-.439031-3.2927258-2.304909-5.5427552-5.597634-6.750088-.878061-.3292725-2.030515-.5487876-3.457363-.6585451-1.31709-.2195151-2.689059-.2743938-4.115907-.1646363-1.426848 0-2.853696.1097575-4.280543.3292726-1.317091.219515-2.469545.4939088-3.457362.8231814-.768303.2195151-1.481727.5487877-2.140272.9878178-.658545.3292726-1.317091.7134239-1.975636 1.152454-.658545.4390301-1.371969 1.0426965-2.140272 1.8109992-.768302.7683027-1.31709 1.4817266-1.646362 2.1402718-.768303 1.0975753-1.426848 2.1402718-1.975636 3.1280895-.548788.9878178-1.481727 1.6463629-2.798817 1.9756355-.87806.2195151-1.810999.3292726-2.798817.3292726h-9.219632c-.548788 0-1.152454.0548788-1.810999.1646363-.548788 0-.987818-.0548788-1.317091-.1646363h-1.481726c-.219515-.1097575-.493909-.1646363-.823182-.1646363-.329272 0-.603666-.1097575-.823181-.3292726-.768303-.219515-1.207333-.9329389-1.317091-2.1402717 0-.5487877.109758-1.0975753.329273-1.646363.219515-.5487876.43903-1.0426965.658545-1.4817266.548788-1.2073328 1.097575-2.3049081 1.646363-3.2927258.658545-1.0975753 1.31709-2.085393 1.975636-2.9634533l1.31709-1.6463629h0c.43903-.5487876.87806-1.0975752 1.31709-1.6463629 1.097576-1.2073328 2.414666-2.3597868 3.951271-3.4573621.329273-.1097575.713424-.3841513 1.152454-.8231815.658545-.4390301 1.207333-.8231814 1.646363-1.152454.548788-.3292726 1.152454-.6585452 1.810999-.9878177 2.085393-1.2073328 4.225665-2.1402718 6.420816-2.798817 2.304908-.7683027 4.609816-1.4817266 6.914724-2.1402718 1.426848-.3292726 2.853696-.5487876 4.280544-.6585451 1.426847-.1097576 2.908574-.3292726 4.445179-.6585452.439031-.1097575 1.097576-.1097575 1.975636 0 .87806.1097575 1.481727.0548788 1.810999-.1646363 4.500059-.1097575 8.725724.0548788 12.676995.4939089zm183.034396 1.3170903c3.731756 1.3170903 6.969603 3.0732108 9.713542 5.2683613.87806.6585452 1.701241 1.4268479 2.469544 2.3049081.87806.7683027 1.591484 1.5914842 2.140272 2.4695444.219515.5487876.603666.9878177 1.152454 1.3170903.658545 1.2073328 1.207333 2.4695444 1.646363 3.7866347.548787 1.2073328 1.152454 2.4695444 1.810999 3.7866347.329272.9878178.548788 2.0305143.658545 3.1280895.219515.9878178.43903 2.0853931.658545 3.2927259.219515 1.4268478.329273 2.9085744.329273 4.4451798.109757 1.5366054.219515 3.0732108.329272 4.6098162 0 .8780602-.164636 1.865878-.493909 2.9634532-.219515.9878178-.274393 1.9207568-.164636 2.798817l-.329272 1.8109992c0 .8780602-.219515 1.865878-.658546 2.9634532-.43903 1.0975753-.987817 1.8109992-1.646362 2.1402718-.548788.4390301-1.37197.7683027-2.469545.9878178-1.097575.1097575-2.304908.219515-3.621998.3292725h-3.786635 0c-1.207333-.1097575-2.304908-.1646362-3.292726-.1646362h-42.476163 0c-.658545 0-1.262211.1097575-1.810999.3292725-.987818.4390301-1.646363.8780603-1.975636 1.3170904-.219515.219515-.548787.6585451-.987817 1.3170903-.329273.5487876-.493909 1.0975753-.493909 1.6463629.109757.6585452.109757 1.3170903 0 1.9756355 0 .5487876.054879 1.152454.164636 1.8109992.329273 2.6341807.932939 4.8293312 1.810999 6.5854517.987818 1.6463629 2.414666 3.1280895 4.280544 4.4451798.768303.548788 1.591484.932939 2.469544 1.152454.987818.109758 1.920757.329273 2.798817.658545.87806.219515 2.030514.384152 3.457362.493909 1.536606.109758 2.908575.054879 4.115908-.164636h1.481726c1.097575-.219515 2.140272-.43903 3.12809-.658545l2.963453-.987818h0c1.207333-.5487877 2.579302-1.2622117 4.115907-2.1402719 1.536606-.8780602 2.743938-1.7561204 3.621999-2.6341806.658545-.7683027 1.371969-1.4817267 2.140271-2.1402718.768303-.7683027 1.591485-1.3170904 2.469545-1.6463629 1.207333-.5487877 2.63418-.7683027 4.280543-.6585452h6.750088 0c.768303-.1097575 1.426848-.0548788 1.975636.1646363h1.646363c.987817.219515 1.701241.4939089 2.140272.8231814.329272.2195151.43903.713424.329272 1.4817267 0 .7683026-.164636 1.4268478-.493909 1.9756355-.87806 1.5366053-1.810999 2.9085744-2.798817 4.1159072-.87806 1.2073333-1.865878 2.4146653-2.963453 3.6219983-3.073211 3.621999-6.365937 6.530573-9.878177 8.725724-3.512241 2.19515-7.737906 4.061028-12.676995 5.597633-1.31709.439031-2.579302.713424-3.786635.823182-1.207332.109757-2.524423.329273-3.951271.658545-.43903.109758-.932939.109758-1.481726 0-.43903 0-.87806.054879-1.317091.164636h-1.810999c-.658545.219515-1.31709.274394-1.975635.164637-.658545 0-1.262212-.054879-1.810999-.164637-.878061-.109757-1.646363-.109757-2.304909 0-.658545.109758-1.371969.054879-2.140271-.164636-.548788-.219515-1.152454-.329272-1.810999-.329272-.658546 0-1.207333-.109758-1.646363-.329273-1.207333-.219515-2.414666-.493909-3.621999-.823182-1.097575-.219515-2.085393-.603666-2.963453-1.152454-1.097575-.43903-2.140272-.823181-3.12809-1.152454-.987817-.43903-1.865878-.932939-2.63418-1.481726-3.073211-2.195151-5.707392-4.719574-7.902542-7.57327-2.085393-2.963453-3.621999-6.3659362-4.609816-10.2074497-.329273-1.2073328-.548788-2.4146656-.658546-3.6219984 0-1.3170903-.164636-2.6341806-.493908-3.951271v-1.152454h0c.109757-.4390301.164636-.8780602.164636-1.3170903-.109758-1.3170904-.109758-2.7439382 0-4.2805436l.658545-4.6098162h0c.109758-.5487876.164636-1.152454.164636-1.8109992.109758-.6585451.274394-1.2622115.493909-1.8109992l.493909-1.9756355 1.31709-3.951271c.768303-1.8658779 1.481727-3.6768771 2.140272-5.4329976.658545-1.7561204 1.481727-3.4024833 2.469545-4.9390887 7.024481-11.4147829 16.683144-19.4819612 28.975987-24.2015348 1.646363-.6585452 3.292726-1.0975753 4.939089-1.3170904 1.646362-.3292726 3.402483-.7134239 5.268361-1.152454.87806-.1097575 1.701242-.1646363 2.469544-.1646363.768303 0 1.591484-.0548788 2.469545-.1646363 5.597634-.1097575 10.262328.5487876 13.994084 1.9756355zM54.1927795 0c1.865878 0 3.1829683.384151346 3.951271 1.15245404.6585452.54878764 1.0426965 1.37196909 1.1524541 2.46954437.1097575.98781775.2743938 1.97563549.4939088 2.96345324.2195151 1.75612044.4390302 3.56711945.6585452 5.43299715.3292726 1.7561204.6036664 3.5671196.8231815 5.4329976 1.2073328 6.9147242 2.1951505 13.939206 2.9634532 21.0734453.8780602 7.1342393 1.9207567 14.2135998 3.1280895 21.2380815.4390302 2.1951506.7683027 4.4451799.9878178 6.750088.219515 2.3049081.5487876 4.5549374.9878177 6.7500879.1097576.5487877.2195151 1.0975753.3292726 1.6463629.1097576.5487877.3841514.9878178.8231815 1.3170904.219515.1097575.3841513.219515.4939089.3292726.219515.1097575.4939088.0548787.8231814-.1646363.8780602-.2195151 1.5914842-.8780603 2.1402718-1.9756355.5487876-1.0975753 1.0975753-2.0853931 1.6463629-2.9634533 1.3170903-2.5244231 2.5793019-4.9939675 3.7866347-7.4086331 1.2073328-2.5244231 2.5244231-5.0488463 3.951271-7.5732694 3.5122409-6.6952092 7.0244818-13.3904183 10.5367226-20.0856275 3.6219985-6.8049667 7.1891183-13.6099334 10.7013593-20.4149001.87806-1.7561205 1.75612-3.457362 2.63418-5.1037246.987818-1.75612042 1.920757-3.51224086 2.798817-5.2683613.43903-.87806022.932939-1.75612044 1.481727-2.63418066.548788-.87806022 1.31709-1.59148415 2.304908-2.140271784C114.55942.274393819 115.43748 0 116.425298 0h28.317442 0c1.097575 0 1.865878.219515055 2.304908.658545165 1.097575.658545165 1.426848 1.920756735.987818 3.786634695-.329273 1.75612045-.658546 3.56711965-.987818 5.43299762l-4.939089 24.69544322-12.347722 61.2447003-2.798817 14.323357c-.219515 1.207333-.493909 2.414666-.823181 3.621999-.329273 1.097575-.87806 1.920757-1.646363 2.469544-.768303.548788-1.646363.87806-2.634181.987818h-15.640447c-.768303-.219515-1.481727-.384151-2.140272-.493909-.548788-.109758-.987818-.493909-1.317091-1.152454-.329272-.548788-.43903-1.262212-.329272-2.140272.219515-.87806.43903-1.810999.658545-2.798817l1.646363-8.396451 8.561087-42.3115265c.219515-1.5366054.43903-2.9634532.658545-4.2805435.329273-1.4268479.603667-2.8536958.823182-4.2805436.219515-.8780602.43903-1.7561205.658545-2.6341807.219515-.9878177.329272-1.9207567.329272-2.7988169-.109757-.7683027-.109757-1.5914842 0-2.4695444.219516-.8780602.054879-1.4268479-.493908-1.6463629-.329273-.1097575-.603667-.0548788-.823182.1646363l-.493909.4939089h0c-.548787.4390301-1.042696.9878177-1.481726 1.6463629l-.987818 1.6463629h0c-.987818 1.6463629-1.975636 3.3476046-2.963453 5.103725-.878061 1.7561205-1.865878 3.5122409-2.963454 5.2683613l-.987817 1.9756355h0c-.219515.6585452-.548788 1.3170904-.987818 1.9756355-.87806 1.4268479-1.701242 2.8536957-2.469544 4.2805436-.658546 1.4268479-1.4268483 2.8536957-2.3049085 4.2805436-.2195151.3292726-.3841514.7134239-.4939089 1.152454-.1097575.3292726-.2743938.6585452-.4939089.9878178-.6585451.9878177-1.2622115 2.0305142-1.8109992 3.1280895-.4390301 1.0975753-1.0426965 2.1951505-1.8109992 3.2927258-.6585451.9878178-1.2622115 2.0305143-1.8109992 3.1280896-.4390301 1.0975752-.9878177 2.1951505-1.6463629 3.2927258-1.9756355 3.1829683-3.7866347 6.4208153-5.4329976 9.7135412-1.6463629 3.1829683-3.3476046 6.3659366-5.103725 9.5489053-.3292726.329272-.5487877.658545-.6585452.987817 0 .329273-.1646363.658545-.4939089.987818-.7683027 1.207333-1.4817266 2.469544-2.1402718 3.786635-.5487876 1.207333-1.2073328 2.414665-1.9756355 3.621998-.4390301.768303-.8780602 1.481727-1.3170903 2.140272-.4390301.658545-.932939 1.207333-1.4817266 1.646363-.6585452.43903-1.2622116.713424-1.8109992.823181-.5487876 0-1.2622116.109758-2.1402718.329273h-3.7866347c-.7683027 0-1.7012417.054879-2.7988169.164636h-3.1280896 0c-.9878177 0-1.9207567-.054879-2.7988169-.164636-.8780603-.109758-1.4817267-.329273-1.8109992-.658545-.7683027-.548788-1.2622116-1.152454-1.4817267-1.810999-.1097575-.768303-.3292725-1.646363-.6585451-2.634181-.2195151-1.31709-.3841514-2.634181-.4939089-3.951271-.1097575-1.426848-.3292726-2.798817-.6585452-4.115907l-.1646363-1.481727c-.3292725-1.31709-.5487876-2.6890594-.6585451-4.1159073-.1097575-1.5366054-.3292726-2.9634532-.6585452-4.2805436v-.8231814h0c0-.3292726-.0548788-.6585452-.1646363-.9878178-.3292726-.9878177-.5487876-2.0305142-.6585451-3.1280895-.1097576-1.0975753-.2743939-2.1951506-.4939089-3.2927258v-.8231815h0c0-.3292726-.0548788-.6036664-.1646363-.8231815-.2195151-1.0975752-.3841514-2.1951505-.4939089-3.2927258 0-1.0975753-.1646363-2.1951505-.4939089-3.2927258-.4390301-2.1951506-.8231814-4.5000586-1.152454-6.9147242-.219515-2.4146656-.5487876-4.7744525-.9878177-7.0793606-.4390302-2.7439382-.8231815-5.5427551-1.1524541-8.3964508-.219515-2.8536957-.7134239-5.5976339-1.4817266-8.2318146-.2195151-1.5366054-.5487876-2.7988169-.9878178-3.7866347-.219515-.219515-.4390301-.3841513-.6585451-.4939089-.1097575-.219515-.3292726-.219515-.6585452 0-.6585451.3292726-1.0975753.8780603-1.3170903 1.646363-.1097575.7683026-.3292726 1.5366053-.6585452 2.304908-.4390301.7683027-.7134239 1.5914842-.8231814 2.4695444-.1097576.7683027-.2195151 1.5914841-.3292726 2.4695444-.2195151 1.2073328-.4939089 2.4146656-.8231815 3.6219984-.219515 1.2073328-.4939088 2.4146656-.8231814 3.6219984l-8.7257235 43.7932532-1.6463629 8.067179-.6585451 2.63418h0c-.1097576.87806-.4390302 1.591484-.9878178 2.140272-.5487876.768303-1.4817266 1.262212-2.7988169 1.481727-.7683027.219515-1.5914842.329272-2.4695444.329272-.8780602-.109757-1.7561205-.164636-2.6341807-.164636H2.99089262h0c-.98781774-.109758-1.75612044-.43903-2.304908073-.987818-.548787638-.548787-.7683026926-1.371969-.6585451651-2.469544l.6585451651-3.621999h0L3.4848015 95.6536847l12.3477222-61.2447003 4.6098161-23.0490803c.1097576-.6585452.2195151-1.42684786.3292726-2.30490808.2195151-.98781775.4390301-1.92075673.6585452-2.79881695.219515-.87806022.4390301-1.70124168.6585451-2.46954437.3292726-.87806022.6036664-1.53660539.8231815-1.9756355.6585452-.76830269 1.6463629-1.317090326 2.9634532-1.646362909.3292726-.1097575272.5487877-.1097575272.6585452 0 .2195151 0 .4939089-.054878763.8231815-.164636291h26.8357154 0zM501.874868 33.0918941c4.061029 2.085393 6.914724 5.1586037 8.561087 9.2196323.548788 1.2073328.87806 2.5244231.987818 3.951271.219515 1.3170903.384151 2.6890594.493909 4.1159072.109757.8780603.109757 1.7012417 0 2.4695444-.109758.7683027-.109758 1.5366054 0 2.3049081-.219515.6585452-.274394 1.0975753-.164636 1.3170903-.109758 1.5366054-.329273 3.1280896-.658546 4.7744525-.329272 1.6463629-.658545 3.237847-.987817 4.7744524l-2.798817 14.6526299-5.432998 26.6710788c-.43903 2.085393-.87806 4.115908-1.31709 6.091543-.43903 1.865878-1.481727 3.073211-3.12809 3.621999-.658545.219515-1.426848.329272-2.304908.329272h-11.52454c-1.317091 0-2.469545-.054879-3.457362-.164636-.987818-.219515-1.701242-.713424-2.140272-1.481727-.329273-.658545-.43903-1.481726-.329273-2.469544.219515-1.097575.43903-2.250029.658545-3.457362l2.304909-11.5245406 4.939088-24.5308074c.768303-4.0610285 1.317091-7.7927845 1.646363-11.1952678.43903-3.5122409.054879-6.4756941-1.152454-8.8903597-1.097575-2.1951506-3.018332-3.731756-5.76227-4.6098162-.548788-.219515-1.152454-.3292726-1.810999-.3292726-.548788 0-1.097576-.1097575-1.646363-.3292726-.548788-.1097575-1.262212-.1097575-2.140272 0-.768303 0-1.371969.0548788-1.810999.1646363-.548788.1097576-.987818.1646363-1.317091.1646363-.329272 0-.658545.0548788-.987817.1646363-2.634181.6585452-4.829331 1.5366054-6.585452 2.6341807-4.061028 2.5244231-6.914724 6.2013003-8.561087 11.0306315-1.536605 4.8293312-2.908575 10.2623288-4.115907 16.2989928l-4.115908 20.5795364-1.975635 10.0428136c-.219515.987818-.43903 1.975636-.658545 2.963453-.219515.987818-.548788 1.811-.987818 2.469545-.768303 1.207333-1.810999 1.920757-3.12809 2.140272-1.207332.219515-2.689059.329272-4.445179.329272h-8.231815c-1.207333 0-2.414666-.054879-3.621998-.164636-1.207333-.109758-1.975636-.493909-2.304908-1.152454-.658546-.987818-.768303-2.414666-.329273-4.280544.43903-1.865878.823181-3.621998 1.152454-5.268361l4.44518-22.3905356 7.243997-36.2199841 1.810999-8.3964509c.219515-1.2073328.43903-2.3049081.658545-3.2927258.219515-.9878178.713424-1.8109992 1.481727-2.4695444.219515-.3292726.603666-.5487876 1.152454-.6585451.548787-.2195151 1.097575-.3841514 1.646363-.4939089h.823181c.548788-.1097575 1.097575-.1646363 1.646363-.1646363h8.725723c.878061 0 1.701242.0548788 2.469545.1646363.87806 0 1.646363.1097575 2.304908.3292726.658545.3292725 1.042696.8231814 1.152454 1.4817266.219515.6585451.329272 1.4268478.329272 2.3049081 0 .4390301-.054878.8231814-.164636 1.152454-.109757.3292726-.109757.6585452 0 .9878177.109758.5487877.219515.8780603.329273.9878178.219515.1097575.493909.2743938.823181.4939089 1.097576.1097575 2.140272-.2743938 3.12809-1.1524541.987818-.9878177 1.975635-1.7561204 2.963453-2.304908 3.402483-2.1951506 7.024482-3.951271 10.865995-5.2683614 1.097576-.3292726 2.140272-.5487876 3.12809-.6585451 1.097575-.1097576 2.304908-.2743939 3.621998-.4939089.329273-.1097575.823182-.1097575 1.481727 0 .658545 0 1.097575-.0548788 1.31709-.1646363 6.585452-.2195151 11.853813.7134239 15.805084 2.798817zM203.065153 77.8729653c-.439031.1097575-.823182.219515-1.152455.3292726-.329272 0-.768302.0548787-1.31709.1646363-.768303.219515-1.591484.3841513-2.469544.4939088-.87806.1097576-1.810999.2743938-2.798817.4939089-.329273.1097575-.823182.1646363-1.481727.1646363-1.536605.3292726-3.018332.5487876-4.44518.6585452-1.426848.1097575-2.853695.3841513-4.280543.8231814l-2.634181.6585452h0c-.768303.1097575-1.536605.3292726-2.304908.6585451-2.524423.9878178-4.774452 2.4695444-6.750088 4.4451799-1.975635 1.9756355-3.128089 4.7195737-3.457362 8.2318146-.109758 1.8658779.219515 3.4024833.987818 4.6098161.43903 1.2073333 1.371969 2.1951503 2.798817 2.9634533 1.426848.658545 3.018332 1.152454 4.774452 1.481727 1.756121.329272 3.621999.43903 5.597634.329272 2.085393-.219515 4.061029-.603666 5.926907-1.152454 3.07321-.87806 5.597633-2.250029 7.573269-4.1159071 2.085393-1.9756355 3.841513-4.3903011 5.268361-7.2439969.329273-.7683027.603667-1.5366053.823182-2.304908.219515-.8780603.548787-1.7561205.987817-2.6341807l.329273-1.4817266c.219515-.5487877.384151-1.1524541.493909-1.8109992.109757-.7683027.164636-1.4268479.164636-1.9756355 0-.6585452.054879-1.2622116.164636-1.8109992.109758-.5487877-.054878-.9878178-.493908-1.3170904-.439031-.4390301-1.207333-.6585451-2.304908-.6585451zm174.802582-30.4577139c-.329273.2195151-.713424.2743938-1.152454.1646363-.43903-.1097575-.823182-.1097575-1.152454 0-.658545.219515-1.317091.3841513-1.975636.4939089-.658545 0-1.262211.1097575-1.810999.3292725-5.158604 1.5366054-9.32939 4.5549374-12.512358 9.0549961-.329273.4390301-.713424 1.0426965-1.152454 1.8109992-.43903.6585451-.768303 1.3719691-.987818 2.1402718-.219515.6585451-.329272 1.3170903-.329272 1.9756355 0 .6585451.274393 1.2073328.823181 1.6463629.768303.5487876 1.920757.8231814 3.457362.8231814h27.494261 0c1.75612-.1097575 2.963453-.6036664 3.621998-1.4817266.987818-1.0975753 1.31709-2.4146656.987818-3.951271-.219515-1.6463629-.384151-2.8536957-.493909-3.6219984-.987818-2.9634532-2.579302-5.2134826-4.774452-6.7500879-2.195151-1.646363-5.542756-2.5244232-10.042814-2.6341807z" fill="#000"/><g transform="translate(260.140093 28.696875)"><path d="M66.7563076.314758642c-.2343392.096661073-.4895677.218007877-.7644794.36323793l-.4269793.235657204c-.2942935.168912684-.6076672.361307364-.9389151.576381584l-.5101269.33952065h0l-.5360337.37293807h0l-.561036.40575364h0l-.5851339.43796734c-.0994802.07564559-.1999268.15260835-.3013209.23087572l-.6195846.4851594h0l-.6414212.51586844h0l-.6623531.54597563h0l-.6823807.57548095h0l-.7015037.60438441h0l-.7197222.63268601h0l-.7370362.66038574c-.124232.11233916-.2491477.22580741-.3747282.34039219l2.411886 6.79215305c2.6088559-2.7840686 5.2298337-5.26264355 7.801408-7.37466415l.9049192-.73399459h0l.0652146-.05005488h0l-.6221026.50625115h0l-.6101116.52749312h0l-.6613108.59818024h0l-.6275392.58795507h0l-.5273701.50740181h0l-.3783243.37083686h0l-.8202032.82207867h0l-.6702097.6888726h0l-.9661221 1.018108h0l-.5138204.5528643h0l-.5341396.5827345h0l-.8390005.9311971h0l-.5843231.6595873h0c.5999107.0570291 1.257551.1063574 1.9578673.1483543l1.0805997.0575427h0l1.1333233.0468225h0l1.1747568.036379h0l1.2048998.0262125h0l1.2237527.0163229c.2049027.0019117.4101204.0034229.615418.0045394l1.2308628.0020078c.2046763-4.395e-4.4089621-.0012623.6126222-.0024624l1.2125697-.0116843c.2002162-.0026869.3993363-.0057397.5971249-.0091527l1.1688736-.0247532h0c.9595305-2.8603358 1.1792005-5.16031652 1.1048931-6.87773452l-.02576-.43479245h0l-.0373384-.40827478c-.0070902-.06583112-.0145895-.13055369-.0224613-.19416588l-.0514076-.368334h0l-.0585883-.34159729c-.0102654-.05469996-.0207566-.10828223-.0314372-.160745l-.066061-.30132797h0l-.0688441-.27437224h0l-.0698681-.2473289h0l-.069133-.22019795h0l-.1290247-.35865259h0l-.1049758-.24907747h0l-.249021-.51381399h0l-.1453982-.27425563h0l-.1214657-.21548016h0l-.1407827-.23668056h0l-.1598344-.2536689h0l-.1786206-.26644516h0l-.1971414-.27500936C71.1124658.960531015 69.2332328-.707226798 66.7563076.314758642z" fill="url(#h)"/><path d="M22.8723321 69.9549402l1.008618-1.8355485h0l1.368892-2.4387861h0l1.1989328-2.1270632c.1988139-.3516881.3972742-.7021805.5956065-1.0518006l1.3245594-2.295763h0l1.3088124-2.2467456c.2162897-.3699759.4315231-.7376116.6455002-1.1027583.6757809-1.1439401 1.3492579-2.2721782 2.014338-3.3759844l1.3171591-2.17245h0c1.1449098-1.8815587 2.2552118-3.6790844 3.3559142-5.4111855l1.3268401-2.0776413c.2185227-.3410882.4359639-.6795504.6526643-1.0153365l.9357514-1.4406h0l1.1345387-1.7040336h0l1.0954311-1.6511896h0l.5035337-.7437917h0l.9792808-1.4669077h0l.1683217-.2418098h0l.3144139-.467079c.028208-.0404165.0564159-.080833.0846239-.1212495l-.4207556-.0171816-.2343261-.6804361-.1160318.1834742h0c-.5056104.7129583-1.012643 1.4356092-1.5146361 2.1689008l-1.6108216 2.3858157c-.1462855.2153396-.294305.4312498-.4447475.6468045-.8981512 1.3385446-1.7840352 2.6788892-2.660352 4.0394343l-.8732277 1.3679602c-1.1821264 1.8315425-2.3456445 3.688093-3.4841545 5.5260352-1.1353101 1.816134-2.2270038 3.6386678-3.3186975 5.4612016-.7277958 1.2150226-1.4444769 2.4217747-2.1509914 3.6267182l-1.0522654 1.8068665c-1.1012934 1.8879584-2.1775787 3.7573085-3.2070477 5.6112502-.2384634.4105648-.4801267.8429379-.6967819 1.2567027-.8442217 1.5024016-1.6602354 2.9643867-2.4544408 4.4295717l.3730019 1.1017828.464372.0235813c.0282079-.0404165.0564159-.080833.0628157-.1244494.6533626-1.3150549 1.3301141-2.5870731 2.0053558-3.8263089h0z"/><path d="M47.1610133 29.2521428c1.3033759-1.7469185 2.6003521-3.4502206 3.8909284-5.1099063 1.3437925-1.7187105 2.6997934-3.3687965 4.0712028-4.9720662.0814241-.0994413.1628481-.1988827.2410723-.2765158 1.3432014-1.5628532 2.6768031-3.0602818 4.0226133-4.489086l-2.4150858-6.77034484-.2912689.26997559h0l-.6096134.5557808h0c-1.1355549 1.05865577-2.3275256 2.19814455-3.5541042 3.42166625-.6915134.689394-1.3916788 1.3997962-2.1032221 2.1308066l-1.439065 1.48938c-.2426419.2527701-.4867499.5078004-.732425.7650761-1.3458102 1.4288041-2.7262282 2.9416411-4.113046 4.4980946-.8828651 1.0066217-1.76753 2.0255106-2.6553449 3.065867l-1.023555 1.206319h0l3.0822745 9.2074009 1.2185716-1.6694258h0l2.4100674-3.3230219z" fill="url(#i)"/><path d="M20.7451357 73.8524824l-.4583185.8461379h0l-1.211812 2.2616021c-.2036773.3822524-.4077546.7672309-.6115504 1.1550353l-.6412691 1.2342162h0c-.1224316.2270906-.2416633.4323731-.3422867.6626636l-.6742063 1.300828h0l-1.4737377 2.8618276h0c1.2002868.777615 2.0012798 2.4545839 2.7048493 4.3400351.1565499-1.82608-.3353373-3.6359159-1.5608769-5.1524008 6.2609712 1.2082751 11.9466132.4162494 15.4164397-3.7975029.3006881-.379157.6045762-.7801222.8898559-1.2060955-1.4690659 1.3741199-3.0767824 1.8578714-5.845699 1.341167l-.3124879-.0615343h0c4.6714384-1.3195598 7.1524571-2.8936842 9.5509713-5.7274664.5667685-.6742811 1.1431367-1.4139867 1.7323044-2.2409252-4.4174235 3.3841033-9.0294907 3.8435436-13.5934579 2.3050472l-3.5687182-.1226349z" fill="url(#j)"/><path d="M22.8368777 67.4917634l1.2995207-2.2829745h0l2.1482422-3.7541871h0c1.0448774-1.8071254 2.1115631-3.6110508 3.2032568-5.4335846 1.0916937-1.8225338 2.2051956-3.6418678 3.3186975-5.4612017 1.1417099-1.8597504 2.3020281-3.6944927 3.4841545-5.5260351 1.1571183-1.8129342 2.357853-3.6194685 3.5335796-5.4073946.4295196-.649864.8558392-1.2779198 1.3071669-1.9245839.7398073-1.0944456 1.5014228-2.1856914 2.2630384-3.2769371l.1160318-.1834742h0l-3.041858-9.1791929-.1716801.2140888c-.0308462.0359039-.0631894.070763-.0976001.1028435-1.246369 1.5102282-2.517746 3.0390647-3.7519064 4.6179173-1.2591685 1.597461-2.4997286 3.2199301-3.7248804 4.8892155-1.0308958 1.408178-2.0399834 2.8195559-3.0522708 4.2527419l-.5955676.8705549h0c-1.2225429 1.8033345-2.3732614 3.5726522-3.4021394 5.2707366-1.1731177 1.9219751-2.2243949 3.7727169-3.1724399 5.5272172-.6153579 1.1572614-1.2025078 2.2741063-1.7396416 3.3537345-.44611.9147623-.8736117 1.8545327-1.2979135 2.7724949-.9870347 2.172056-1.8650284 4.3601115-2.6557892 6.5609666l3.0976829 9.2542171.6029099-1.0985203h0l1.232754-2.2097968c.2066071-.3713799.4131735-.7448542.6187769-1.1212546l.4778749-.8275914h0z" fill="url(#k)"/><path d="M16.696656 63.7904245c-.8298424 2.3343564-1.5428065 4.6858622-2.1096726 7.0588048l-.2973195 1.2986071h0c-.2789511-.6430306-.727228-1.3076516-1.2325595-1.9347279l-.3091473-.3712674c-.0523663-.0609693-.1050785-.1214449-.1580245-.1813676l-.3195826-.3524291h0l-.3198032-.3363223h0l-.3146347-.3173768h0l-.4504729-.4343334h0l-.4085308-.3757399h0l-.4480285-.3932831h0l-.40291515-.332143h0c2.06020285 4.1786137 3.49436775 8.2208142 3.23709275 11.9479985-1.4373234.0787136-3.29564702-.6172326-5.37987921-1.747325.89712539 1.1003307 1.72093794 1.8765328 2.41577021 2.420779l.3113308.2350559c.0502944.0365429.0997751.0717971.1484165.1058046l.2815752.1894211h0l.260218.161515h0l.2376445.1356228h0l.2138547.1117443h0l.1888489.0898796h0l.1626266.0700287c.0248517.0101291.0485601.019515.0711.0281996-1.7464866-.1468965-3.68203535.5881701-5.68142963 1.6012865l-.66865765.3471752h0l-.67235636.3628009h0c3.44461513-.8535164 6.16020474-.9897263 7.97171204-.2783717-.8897013 1.6845028-1.7852174 3.4086349-2.6861004 5.169344l-1.35529364 2.6681148c-2.03881031 4.0421766-4.10365687 8.2617981-6.18943826 12.6240963l-1.39356639 2.928955c-.465518631.98311-.932015095 1.972884-1.3994334100000285 2.96894C.954343084 109.132608 1.59234492 108.580168 2.01925559 107.796255l1.57804823-3.345914h0l1.45229638-3.008319h0l1.85581678-3.7779835h0l1.63923007-3.2841783h0l1.62406325-3.2091754h0l1.5429182-3.0098725h0l2.1412131-4.1165062h0l1.5203511-2.8812363h0l.5225342-.9823771h0l.4504128-.8316209h0l.4098084-.7798217h0l.624499-1.1531354h0l1.280732-2.3517393c.2169813-.3970087.4357256-.7965433.6562329-1.198604l.6057583-1.0918368h0l.0031999-.0218082h0l-3.0976829-9.2542171c-.0397439.0684275-.0683731.1285846-.0942455.1924466l-.0377858.1000686z" fill="url(#l)"/><path d="M44.1214404 35.0884658l-.4827356.7088888h0c-.323957.4871314-.6576065.9728406-.9889733 1.4654855l-1.5892723 2.3964035h0l-1.1345387 1.7040336h0l-.2875315.4413198c-.4311194.6607681-.8638389 1.3324403-1.3008842 2.0146167l-1.3268401 2.0776413h0c-.8805619 1.3856809-1.7672676 2.8132335-2.6729212 4.2921854l-.682993 1.1190001c-1.0852939 1.7789174-2.2051956 3.6418677-3.3314971 5.5484344l-1.2964163 2.2132766c-.6539919 1.1193345-1.3159199 2.2599605-1.9824557 3.4319903-.3953846.6905169-.7923051 1.3915018-1.1919526 2.1013541l-1.9714787 3.5162958h0l-.6043255 1.0954332h0l-1.2264631 2.2320954c-.411979.7525983-.8265825 1.5133662-1.24221 2.2811127-.028208.0404165-.056416.080833-.0628158.1244494l3.5687182.1226349c-.0622247-.0314078-.1276493-.0410075-.2116822-.0756153 4.28578.0941822 10.3294634-2.2270264 14.497397-5.5809039 1.9198143-1.5450806 3.7317696-3.4178753 5.4890821-5.6774088 1.3155845-1.678294 2.5727352-3.5656614 3.8432765-5.6961188 1.0948936-1.844342 2.1935781-3.8663495 3.2742454-6.0692224-1.0331583.3607934-2.1997747.5683383-3.4594325.6508428l-.6734454.0348525h0c-.1496545.007745-.2978869.0057974-.4530549.0061326l-.2389987.0037118h0c4.1462684-.9287854 7.0361805-3.4676882 9.3492351-6.7818419-1.1273819.5474675-2.9410088 1.2170202-5.0145608 1.3806024-.2712981.0270259-.5612045.0290438-.8511109.0310616-.0436164-.0063998-.0886549-.0031071-.1396812-.0039933l-.0816007-.0061974c1.4353056-.36862 2.683937-.8314635 3.7991104-1.4475555.1603208-.080439.3123713-.1719927.461665-.2672513l.2225621-.1447404c.3437135-.2168999.6688187-.4588079.9939239-.7007159l.6065939-.4902158h0c.4597453-.4003742.9040822-.8475646 1.3112025-1.3447712l.2604483-.3017262c.0411751-.0500653.0808534-.1011753.118464-.1550639l.3287157-.4633303c.052237-.0748454.1027401-.1491201.15082-.2237504.6170496-.8841111 1.1383651-1.6969873 1.5785563-2.4364849l.1837292-.3124287c.2384634-.4105648.4487189-.7807132.6339662-1.1322532l.2166552-.4137648h0l.328632-.6655583c.0673062-.1380482.1294012-.2697323.1834937-.3954616l.0959073-.2234535h0l.1632509-.4040673c.0480103-.1247653.0895744-.2393377.1245738-.3429092l.0475606-.1470059c-.0978991.0598944-.2054907.1183667-.3218268.1689551l-.1809438.069162c-1.2800394.5250682-3.4041987.8817243-5.0846121.9470473-.0218082-.0031999-.0436164-.0063998-.0686245.0122085l-.3352786.0019612c-.0588882.0020857-.1188211.0056683-.1791096.0116741l.0936326-.0308168h0l-11.2109431-.419694c.0090087.0904327-.0191993.1308492-.0442074.1494575z" fill="url(#m)"/><path d="M59.8224031 14.6244237c-.4007205.4535902-.814689.9299896-1.2417869 1.4283904l-.8716666 1.0258976h0l-.9064679 1.0831322h0l-1.0950744 1.3226074c-.0234365.0303904-.045376.0618254-.065248.0960392-.6247844.7660181-1.2660727 1.5686007-1.9273909 2.4127998l-1.0074405 1.2981425c-.1705574.2217696-.3424769.4462981-.5158135.6736645l-1.4473085 1.9138547h0l-.9462479 1.2677871c-.479088.6460718-.9672344 1.3111777-1.4649455 1.9987678l-.500918.6952126c-.5022582.6901117-1.007455 1.4002513-1.5207406 2.1296631l-1.0388819 1.4842963h0l-1.0696076 1.5343456h0l11.2109431.419694c3.423398-1.0125736 5.0579325-2.131681 6.7384476-3.8678177.3356526-.351749.6749051-.7280322 1.0164075-1.1196493l.3422024-.3963876c1.3932175-1.6000699 2.7902261-3.3778052 4.0563854-5.1747399 1.2347514-1.7347099 2.3572619-3.4636112 3.2328915-5.0282375.5711504-1.0078038 1.0422685-1.9411745 1.4101544-2.7783036.30827-.734488.5665238-1.4317594.7997695-2.1104224l-1.1629005.0203088h0l-1.1958899.0124362h0l-1.2174901.0042132h0l-1.2277016-.00436c-.2048351-.0014605-.4096212-.0032929-.614121-.0055044l-1.2216644-.0178768h0l-1.2034035-.0273259c-.1984128-.0053612-.3955902-.0111308-.5912949-.0173159l-1.154658-.0421564c-.1888649-.0078768-.3757826-.0161837-.5605158-.0249282l-1.0802872-.0577753c-.7001848-.0420947-1.3578251-.091423-1.9577358-.1484521z" fill="url(#n)"/></g></g></svg>