<svg width="512px" height="148px" viewBox="0 0 512 148" xmlns="http://www.w3.org/2000/svg" preserveAspectRatio="xMidYMid"><title>MDN</title><path d="M279.156137 104.024492h-24.367381v-7.8374617h5.414973v-22.51489c0-5.2724743-.997495-8.9774562-2.992485-11.2574451-1.99499-2.2799888-4.702477-3.277484-8.12246-3.277484-4.559978 0-7.979961 1.5674924-10.25995 4.8449764-2.279989 3.277484-3.419983 6.554968-3.562483 9.832452V96.044531h8.549958v7.837462h-24.367381v-7.837462h5.414974V73.6721403c0-5.4149736-.997495-9.1199555-2.992485-11.2574451-1.994991-2.1374895-4.702477-3.277484-7.979961-3.277484-4.559978 0-7.837462 1.5674924-10.25995 4.7024771-2.279989 3.1349847-3.419984 6.4124687-3.562483 9.832452v22.51489h9.832452v7.8374617h-28.784859v-7.8374617h8.549958V60.1347064h-8.692458v-7.9799611h19.094907v9.1199555c1.709992-2.9924854 3.847481-5.4149736 6.697467-7.4099638 2.849986-1.852491 6.26997-2.8499861 10.40245-2.8499861 4.132479 0 7.552463.9974951 10.687447 2.9924854 3.134985 1.9949903 5.272475 4.9874756 6.412469 9.1199555 1.567492-3.5624826 3.847481-6.4124687 6.982466-8.6924576 3.134985-2.2799889 6.839967-3.4199833 11.257445-3.4199833 4.987476 0 9.262455 1.5674924 12.682438 4.702477 3.419983 3.1349847 5.272474 7.9799611 5.272474 14.5349291v25.9348733h8.692458v7.8374617h0zm60.562204 0h-18.809908V93.7645422c-1.709992 3.1349847-3.98998 5.8424714-6.982466 7.9799608-2.992485 2.279989-6.839966 3.419984-11.827442 3.419984-6.839967 0-12.39744-2.279989-16.529919-6.9824664-4.13248-4.5599777-6.12747-10.9724464-6.12747-18.9524075 0-7.1249652 1.85249-13.6799332 5.699972-19.5224046 3.704982-5.8424715 9.832452-8.8349569 18.239911-8.8349569 8.407459 0 13.964931 3.1349847 17.527414 9.2624548v-28.072363h-12.25494v-7.979961h22.51489v72.1046479h8.549958v7.8374617h0zm-18.952407-23.939883v-6.2699694c-.1425-4.2749791-1.709992-7.8374618-4.559978-10.4024492-2.849986-2.5649875-6.269969-3.9899805-10.25995-3.9899805-5.129975 0-8.977456 1.8524909-11.684943 5.5574728-2.707487 3.7049819-3.98998 8.2649597-3.98998 13.6799332 0 5.8424715 1.424993 10.4024492 4.274979 13.5374339 2.849986 3.1349847 6.412468 4.7024771 10.544948 4.7024771 4.559978 0 8.26496-1.852491 11.114946-5.4149736 2.992485-3.7049819 4.417478-7.5524631 4.559978-11.3999443h0zm87.637072 23.939883H380.90064v-7.8374617h8.549958v-22.51489c0-5.2724743-.997495-8.9774562-3.134984-11.2574451-1.994991-2.2799888-4.844977-3.277484-8.122461-3.277484-4.417478 0-7.979961 1.4249931-10.544948 4.2749792-2.564988 2.8499861-3.989981 6.2699694-4.13248 9.9749513V96.044531h8.549958v7.837462h-27.502365v-7.837462h8.549958V60.1347064h-8.834957v-7.9799611h19.379905v8.8349569c3.704982-6.554968 9.689953-9.832452 18.097412-9.832452 5.129975 0 9.547453 1.5674924 13.109936 4.702477 3.562483 3.1349847 5.272474 7.9799611 5.272474 14.5349291v25.9348733h8.549958v7.6949624h-.284998 0z"/><g style="fill:#0069c2"><path d="M57.4272196 0l-40.754801 131.241859H0L40.6123017 0h16.8149179zm14.8199276 0v131.241859H57.4272196V0h14.8199276zm57.4272198 0-40.6123019 131.241859H72.3896465L113.001948 0h16.672419zm14.819927 0v131.241859h-14.819927V0h14.819927z"/><path d="M416.525466 135.08934H512v12.539939h-95.474534z"/></g></svg>