<svg width="512px" height="212px" viewBox="0 0 512 212" xmlns="http://www.w3.org/2000/svg" preserveAspectRatio="xMidYMid"><path d="M19.4782609 2.7826087H492.521739c9.220754 0 16.695652 7.4748981 16.695652 16.6956522V192c0 9.220754-7.474898 16.695652-16.695652 16.695652H19.4782609c-9.2207541 0-16.6956522-7.474898-16.6956522-16.695652V19.4782609c0-9.2207541 7.4748981-16.6956522 16.6956522-16.6956522z" fill="#fff"/><path d="M19.4782609 0H492.521739C503.279286 0 512 8.72071444 512 19.4782609V192c0 10.757546-8.720714 19.478261-19.478261 19.478261H19.4782609C8.72071444 211.478261 0 202.757546 0 192V19.4782609C0 8.72071444 8.72071444 0 19.4782609 0zm0 5.56521739c-7.6839618 0-13.91304351 6.22908171-13.91304351 13.91304351V192c0 7.683962 6.22908171 13.913043 13.91304351 13.913043H492.521739c7.683962 0 13.913044-6.229081 13.913044-13.913043V19.4782609c0-7.6839618-6.229082-13.91304351-13.913044-13.91304351H19.4782609z" fill="#eaeaea"/><path d="M272.695652 40.2031304l-.001188 84.8955366 31.184061-31.17783 15.740225 15.741398-57.642 57.637704-58.368895-58.368895 15.740812-15.7408122 31.084927 31.0847822.001189-84.0718836z"/><path d="M72.1623188 162.979246V97.2318069l40.2545062 40.2574121 40.559871-40.5569594V162.31513h22.260869V43.192494l-62.819607 62.815098-62.5165087-62.5210221V162.979246z"/><path fill="#f9ac00" d="M447.84683 36.6511988l15.740543 15.7410807-47.149576 47.1471988 45.698909 45.7002427-15.740543 15.74108-45.700511-45.699178-45.700511 45.699178-15.740543-15.74108 45.695199-45.7002427-47.145866-47.1471988 15.740543-15.7410807 47.151178 47.1461345z"/></svg>