<svg width="256px" height="146px" viewBox="0 0 256 146" xmlns="http://www.w3.org/2000/svg" preserveAspectRatio="xMidYMid"><path d="M72.2009141 1.42108547e-14C112.076502 1.42108547e-14 144.399375 32.5485469 144.399375 72.6964154c0 40.1478686-32.325326 72.6939626-72.1984609 72.6939626C32.327779 145.390378 0 112.844284 0 72.6964154 0 32.5485469 32.325326 1.42108547e-14 72.2009141 1.42108547e-14zM187.500628 4.25836743c19.937794 0 36.100457 30.63767807 36.100457 68.43804797h.002453c0 37.7905576-16.162663 68.4380476-36.100457 68.4380476-19.937794 0-36.100457-30.64749-36.100457-68.4380476 0-37.790558 16.16021-68.43804797 36.098004-68.43804797zm55.802765 7.12835007C250.314 11.3867175 256 38.835526 256 72.6964154c0 33.8510776-5.683547 61.3096976-12.696607 61.3096976-7.01306 0-12.694154-27.451261-12.694154-61.3096976 0-33.8584364 5.683547-61.3096979 12.694154-61.3096979z"/></svg>