<svg width="256px" height="277px" viewBox="0 0 256 277" xmlns="http://www.w3.org/2000/svg" preserveAspectRatio="xMidYMid"><title>Medusa</title><defs><linearGradient x1="-66.6972559%" y1="81.8702074%" x2="108.629506%" y2="34.4186803%" id="a"><stop stop-color="#592ee1" offset=".265625"/><stop stop-color="#b836d9" offset="1"/></linearGradient></defs><path d="M223.516603 44.823358 161.173777 8.84957346c-20.398039-11.79943128-45.39303-11.79943128-65.7913727 0L32.7517949 44.823358C12.6410532 56.6227741 0 78.4949069 0 101.806259v72.234807c0 23.599135 12.6410532 45.183181 32.7517949 56.982294l62.3434326 36.262205c20.3983425 11.799113 45.3924235 11.799113 65.7907665 0l62.343433-36.262205c20.398343-11.799113 32.751795-33.383159 32.751795-56.982294v-72.234807c.574353-23.3113521-12.066276-45.1834849-32.464619-56.982901zm-95.382404 157.421375c-35.3375984 0-64.0670994-28.778931-64.0670994-64.177179 0-35.398552 28.729501-64.1771789 64.0670994-64.1771789 35.337599 0 64.35458 28.7786269 64.35458 64.1771789 0 35.398248-28.729805 64.177179-64.35458 64.177179z" fill="url(#a)"/></svg>