<svg width="256" height="150" xmlns="http://www.w3.org/2000/svg" preserveAspectRatio="xMidYMid"><defs><linearGradient x1="153.821%" y1="-7.638%" x2="19.172%" y2="89.239%" id="a"><stop stop-color="#FF5CAA" offset="0%"/><stop stop-color="#FF4E62" offset="100%"/></linearGradient><linearGradient x1="117.325%" y1="-7.638%" x2="-17.323%" y2="89.238%" id="b"><stop stop-color="#FF5CAA" offset="0%"/><stop stop-color="#FF4E62" offset="100%"/></linearGradient><linearGradient x1="80.828%" y1="-7.638%" x2="-53.821%" y2="89.238%" id="c"><stop stop-color="#FF5CAA" offset="0%"/><stop stop-color="#FF4E62" offset="100%"/></linearGradient></defs><path d="M0 149.288L47.297 28.277A44.462 44.462 0 0188.708 0h28.515L69.926 121.012a44.462 44.462 0 01-41.411 28.276H0z" fill="url(#a)"/><path d="M69.386 149.289l47.297-121.012A44.462 44.462 0 01158.095 0h28.514l-47.297 121.012a44.462 44.462 0 01-41.411 28.277H69.386z" fill="url(#b)"/><path d="M138.777 149.289l47.297-121.012A44.46 44.46 0 01227.484 0H256l-47.297 121.012a44.463 44.463 0 01-41.412 28.277h-28.514z" fill="url(#c)"/></svg>