<svg width="256px" height="150px" viewBox="0 0 256 150" xmlns="http://www.w3.org/2000/svg" preserveAspectRatio="xMidYMid"><title>Meilisearch</title><defs><linearGradient x1="153.820608%" y1="-7.63826138%" x2="19.1721041%" y2="89.2387581%" id="a"><stop stop-color="#ff5caa"/><stop stop-color="#ff4e62" offset="1"/></linearGradient><linearGradient x1="117.3253%" y1="-7.63849731%" x2="-17.3229972%" y2="89.2384892%" id="b"><stop stop-color="#ff5caa"/><stop stop-color="#ff4e62" offset="1"/></linearGradient><linearGradient x1="80.8280376%" y1="-7.63849731%" x2="-53.8207274%" y2="89.2384892%" id="c"><stop stop-color="#ff5caa"/><stop stop-color="#ff4e62" offset="1"/></linearGradient></defs><path d="M0 149.288164 47.2969003 28.2765777C53.9619323 11.2236595 70.3991566 0 88.708206 0h28.514657L69.9260625 121.01158c-6.665032 17.052959-23.1022564 28.276584-41.4115092 28.276584H0z" fill="url(#a)"/><path d="M69.3864299 149.288571 116.68323 28.2769847c6.665032-17.0529793 23.102257-28.276628607618 41.41151-28.276628607618h28.514453L139.312393 121.011987c-6.665032 17.052959-23.102257 28.276584-41.4115095 28.276584H69.3864299z" fill="url(#b)"/><path d="M138.77683 149.288571l47.2968-121.0115863c6.665032-17.0529793 23.101239-28.276628607618 41.410492-28.276628607618H256L208.702792 121.011987c-6.666049 17.052959-23.102256 28.276584-41.411509 28.276584H138.77683z" fill="url(#c)"/></svg>