<svg width="254px" height="254px" viewBox="0 0 254 254" xmlns="http://www.w3.org/2000/svg"><defs><linearGradient x1="50.0000061%" y1="100%" x2="50.0000061%" y2="-3.50000005e-06%" id="a"><stop stop-color="#574c4a"/><stop stop-color="#80716d" offset="1"/></linearGradient><linearGradient x1="88.778214%" y1="98.3421257%" x2="30.1494986%" y2="-8.67989994%" id="b"><stop stop-color="#268d83"/><stop stop-color="#2ea19e" offset="1"/></linearGradient><radialGradient cx="41.4063333%" cy="42.7083333%" fx="41.4063333%" fy="42.7083333%" id="c"><stop stop-color="#db7c7c"/><stop stop-color="#c83737" offset="1"/></radialGradient><radialGradient cx="44.2708333%" cy="42.7083333%" fx="44.2708333%" fy="42.7083333%" id="d"><stop stop-color="#db7c7c"/><stop stop-color="#c83737" offset="1"/></radialGradient></defs><path d="M0 171.18976V82.1710911C0 10.2714062 10.2607175 2.63917525e-5 82.0863208 2.63917525e-5h89.1885002c71.825339 0 82.086004 10.2713798082475 82.086004 82.1710647082475V171.18976c0 71.899711-10.260665 82.171091-82.086004 82.171091H82.0863208C10.2607175 253.360851 0 243.089471 0 171.18976h0z" fill="url(#a)"/><g transform="translate(45.789223 47.097648)"><path d="M8.89120419.65492176C-3.56241993 79.582765 2.95305984 153.479665 2.95305984 153.479665H41.880895c-3.7039954-19.703418-16.9918997-109.7234139-5.9381443-110.0206194 5.9239482.9402986 32.9896908 76.3711344 32.9896908 76.3711344 0 0 5.9606539-.742268 11.9587629-.742268 5.9981091 0 11.958763.742268 11.958763.742268 0 0 27.0657456-75.4308437 32.9896906-76.3711344 11.053779.2971844-2.234162 90.3172254-5.938144 110.0206194h38.927835c0 0 6.515477-73.8969237-5.938144-152.82474324h-36.041238C109.98997.736057926 83.8902893 46.510592 80.8912044 46.510592c-2.9990848 0-29.0987653-45.774534074-35.958763-45.85567024H8.89120419h0z" fill="url(#b)"/><path d="M73.2135967 144.266563c0 5.088266-4.1248545 9.213121-9.2131203 9.213121-5.0882659 0-9.2131204-4.124855-9.2131204-9.213121 0-5.088266 4.1248545-9.21312 9.2131204-9.21312 5.0882658 0 9.2131203 4.124854 9.2131203 9.21312h0z" fill="url(#c)"/><path d="M106.995038 144.266563c0 5.088266-4.124854 9.213121-9.2131202 9.213121-5.0882659 0-9.2131204-4.124855-9.2131204-9.213121 0-5.088266 4.1248545-9.21312 9.2131204-9.21312 5.0882662 0 9.2131202 4.124854 9.2131202 9.21312h0z" fill="url(#d)"/><path d="M151.056318 3.26419253c5.617873 38.02593667 6.935966 74.52070827 6.832571 101.70527447-.105757 27.805804-1.698715 45.871022-1.698715 45.871022h-32.767061l-3.521599 2.639176h38.927835c0 0 6.515477-73.8969237-5.938144-152.82474324l-1.834887 2.60927077zM47.9015136 2.3044063c10.2264083 11.375397 27.9137598 41.5670105 30.3505156 41.5670105-6.484224-8.2928456-22.4115095-34.74870911-30.3505156-41.5670105h0zM33.3035754 40.8198704c-11.0537475.297216 2.2341622 90.3171936 5.9381444 110.0206186H5.25962777l-2.30656793 2.639176H41.880895c-3.6852255-19.60357-16.8562435-108.8242654-6.1030928-110.0206194-1.0013427-1.503868-1.866203-2.5426659-2.4742268-2.6391752h0zm89.8969076 0c-5.923946.9402906-32.9896909 76.3711346-32.9896909 76.3711346 0 0-5.9606539-.742268-11.9587629-.742268-3.5489703 0-6.604296.218682-8.6703611.411209l-.6492266 2.970234c0 0 5.9606539-.742268 11.9587629-.742268 5.9981091 0 11.958763.742268 11.958763.742268 0 0 26.8619296-74.9360089 32.9072166-76.3711344-.65142-1.6501575-1.456257-2.6095795-2.556701-2.6391752h0z" opacity="0.1"/><path d="M8.89120419.65492176C-3.56241993 79.582765 2.95305984 153.479665 2.95305984 153.479665l2.29215012-2.576398C4.07228657 133.468944.938595837 70.4220715 11.5303795 3.29409703h36.0412372c.7635055.00897319 1.7872838.63452107 2.9690722 1.64948454-2.35994-2.62509263-4.3219979-4.273447603-5.6082475-4.28865981H8.89120419zm107.95876281 0C109.98997.736050008 83.8902893 46.510592 80.8912044 46.510592c1.2230203 1.5641495 2.2162343 2.6391753 2.6391753 2.6391753 2.9990849 0 29.0987653-45.77459481 35.9587633-45.85567027h31.805669l1.596393-2.63917527h-36.041238zM38.4169775 46.0982209c8.7546775 13.1482418 30.515464 73.7319591 30.515464 73.7319591l.636738-2.954195c-5.3726483-14.732101-25.8439655-69.9613854-30.9872536-70.7777641-.0560164.001507-.1101776-.0060939-.1649484 0h0zm90.0618555 0c5.872224 14.9772246-5.243735 89.6483891-8.577319 107.3814441l3.531311-2.756292c4.507638-26.446415 15.361861-104.347722 5.046008-104.6251521h0z" opacity="0.3" fill="#fff"/></g></svg>