<svg width="256px" height="291px" viewBox="0 0 256 291" xmlns="http://www.w3.org/2000/svg" preserveAspectRatio="xMidYMid"><path d="M190.180109 177.16993v-63.365479l-54.642553 31.735035 54.642553 31.630444" fill="#fff"/><g style="fill:#00aede"><path d="M186.644918 107.621603l-54.738179-31.6513618v63.3784278l54.738179-31.727066"/><path d="M124.792529 139.346677V75.968249l-54.7770271 31.651362 54.7770271 31.727066"/><path d="M121.252358 69.8870039 66.5271284 38.052358v63.472062l54.7252296-31.6374161"/></g><g style="fill:#fff"><path d="M186.644918 183.259144l-54.738179-31.623471v63.368467l54.738179-31.744996"/><path d="M124.792529 215.005136v-63.371455l-54.7770271 31.627455 54.7770271 31.744"/></g><g style="fill:#00aede"><path d="M252.113183 145.53849l-54.817868-31.73105v63.361494l54.817868-31.630444"/><path d="M59.3989728 101.52442V38.052358L4.2633463 69.8870039 59.3989728 101.52442"/></g><path d="M121.252358 221.095346l-54.7252296-31.720093v63.451144l54.7252296-31.731051" fill="#fff"/><path d="M59.3989728 252.827393v-63.450148L4.2633463 221.097339l55.1356265 31.730054" fill="#00aede"/><path d="M121.252358 145.53849l-54.7252296-31.73105v63.361494l54.7252296-31.630444" fill="#fff"/><path d="M190.180109 101.52442V38.052358l-54.642553 31.8346459 54.642553 31.6374161" fill="#00aede"/><g style="fill:#fff"><path d="M131.908732.318754864V63.6762646l54.738179-31.7200934L131.908732.318754864"/><path d="M70.0145058 31.9561712l54.7770272 31.7200934V.318754864L70.0145058 31.9561712"/><path d="M186.644918 258.91063l-54.738179-31.616498v63.347549l54.738179-31.731051"/><path d="M124.792529 290.643673V227.29214l-54.7770271 31.620483 54.7770271 31.73105"/></g><g style="fill:#00aede"><path d="M255.660327 215.005136v-63.371455l-54.67642 31.627455 54.67642 31.744"/><path d="M59.3989728 177.16993v-63.46509L4.2633463 145.539486l55.1356265 31.630444"/><path d="M55.871751 183.259144.656435798 151.635673v63.368467L55.871751 183.259144"/><path d="M255.660327 139.346677V75.968249l-54.67642 31.651362 54.67642 31.727066"/><path d="M252.113183 69.8870039 197.295315 38.052358v63.472062l54.817868-31.6374161"/><path d="M252.113183 221.095346l-54.817868-31.720093v63.451144l54.817868-31.731051"/></g><path d="M190.180109 252.827393v-63.450148l-54.642553 31.720094 54.642553 31.730054" fill="#fff"/><path d="M55.871751 107.621603.656435798 75.9702412v63.3784278L55.871751 107.621603" fill="#00aede"/></svg>