<svg width="256px" height="256px" viewBox="0 0 256 256" xmlns="http://www.w3.org/2000/svg" preserveAspectRatio="xMidYMid"><title>Messenger</title><defs><radialGradient cx="19.2474387%" cy="99.4651948%" fx="19.2474387%" fy="99.4651948%" r="108.959789%" id="a"><stop stop-color="#09f" offset="0%"/><stop stop-color="#a033ff" offset="60.9753877%"/><stop stop-color="#ff5280" offset="93.482299%"/><stop stop-color="#ff7061" offset="100%"/></radialGradient></defs><path d="M128-1.8189894e-14C55.89376-1.8189894e-14 0 52.81792 0 124.16c0 37.316608 15.29344 69.562368 40.199168 91.83488 2.090752 1.87136 3.352832 4.4928 3.438592 7.29856l.697088 22.76864c.22272 7.26272 7.724544 11.98848 14.370304 9.05472l25.406208-11.21536c2.153728-.94976 4.56704-1.1264 6.83648-.50176C102.62272 246.60992 115.048448 248.32 128 248.32c72.10624 0 128-52.81792 128-124.16C256 52.81792 200.10624-1.8189894e-14 128-1.8189894e-14z" fill="url(#a)"/><path d="M51.136512 160.470016l37.6-59.65312c5.980928-9.48992 18.788608-11.8528 27.762688-5.12256l29.905152 22.428928c2.743808 2.05824 6.51904 2.047232 9.251328-.026368l40.388352-30.65216c5.390848-4.09088 12.42752 2.36032 8.819968 8.085248l-37.6 59.653632c-5.98144 9.489408-18.78912 11.8528-27.762688 5.122048l-29.90592-22.42944c-2.743552-2.057728-6.51904-2.04672-9.251072.02688l-40.388608 30.65216c-5.390592 4.090624-12.42752-2.360576-8.8192-8.085248z" fill="#fff"/></svg>