<svg width="256px" height="171px" viewBox="0 0 256 171" xmlns="http://www.w3.org/2000/svg" preserveAspectRatio="xMidYMid"><title>Meta</title><defs><linearGradient x1="13.8784354%" y1="55.9337491%" x2="89.143574%" y2="58.6936324%" id="a"><stop stop-color="#0064e1" offset="0%"/><stop stop-color="#0064e1" offset="40%"/><stop stop-color="#0073ee" offset="83%"/><stop stop-color="#0082fb" offset="100%"/></linearGradient><linearGradient x1="54.3150272%" y1="82.782443%" x2="54.3150272%" y2="39.3067715%" id="b"><stop stop-color="#0082fb" offset="0%"/><stop stop-color="#0064e0" offset="100%"/></linearGradient></defs><path d="M27.6511337 112.135763c0 9.774934 2.1455 17.279733 4.9497844 21.820003 3.6767283 5.946863 9.1606621 8.466268 14.7514258 8.466268 7.2110168 0 13.8077618-1.789401 26.5205174-19.371818 10.1844485-14.092642 22.1850049-33.8739745 30.2595637-46.275143l13.674224-21.0098762c9.498957-14.5911809 20.493532-30.8115176 33.099458-41.8060926C161.197385 4.98539435 172.29879 0 183.471415 0c18.757546 0 36.624843 10.8699402 50.299068 31.2566421C248.735568 53.5840868 256 81.7070524 256 110.72917c0 17.253025-3.400751 29.930171-9.18737 39.945472-5.590763 9.685909-16.487411 19.362915-34.817638 19.362915v-27.615523c15.69509 0 19.612186-14.422034 19.612186-30.92725 0-23.5203787-5.483934-49.6224791-17.564613-68.2731955-8.573098-13.2291-19.683405-21.3125608-31.906524-21.3125608-13.220197 0-23.858673 9.9707887-35.814717 27.749061-6.356378 9.4455418-12.881903 20.9564613-20.208652 33.9451941l-8.065656 14.2884963c-16.202531 28.7283349-20.3065792 35.2716649-28.407845 46.0703849-14.1994715 18.908889-26.3246627 26.075393-42.2868271 26.075393-18.9355961 0-30.909445-8.199193-38.32521913-20.555849C2.97343163 139.412992 0 126.201697 0 111.147587l27.6511337.988176z" fill="#0081fb"/><path d="M21.8021978 33.2062874C34.4793434 13.665322 52.7739602 0 73.7571289 0c12.1518988 0 24.2325776 3.59660593 36.8474061 13.8967868 13.798859 11.2616497 28.505772 29.8055362 46.853804 60.3677841l6.57894 10.9678675c15.882042 26.4581996 24.918069 40.0701076 30.206148 46.4888026 6.801503 8.243705 11.564335 10.700793 17.751565 10.700793 15.69509 0 19.612186-14.422034 19.612186-30.92725L256 110.72917c0 17.253025-3.400751 29.930171-9.18737 39.945472-5.590763 9.685909-16.487411 19.362915-34.817638 19.362915-11.395187 0-21.49061-2.474892-32.654333-13.006537-8.582-8.083461-18.615106-22.443177-26.333565-35.351788l-22.959521-38.3519264c-11.519822-19.2471832-22.087078-33.5979969-28.203088-40.0968146-6.5789404-6.9884546-15.0363058-15.428015-28.5324805-15.428015-10.9233552 0-20.1997497 7.6650438-27.9627209 19.389623L21.8021978 33.2062874z" fill="url(#a)"/><path d="M73.3120045 27.802476c-10.9233552 0-20.1997497 7.6650438-27.9627209 19.389623-10.97677 16.5675338-17.6981499 41.2452358-17.6981499 64.943664 0 9.774934 2.1455 17.279733 4.9497844 21.820003L9.02712477 149.481708C2.97343163 139.412992 0 126.201697 0 111.147587c0-27.3751569 7.51370149-55.9076371 21.8021978-77.9412996C34.4793434 13.665322 52.7739602 0 73.7571289 0l-.4451244 27.802476z" fill="url(#b)"/></svg>