<svg width="256px" height="240px" viewBox="0 0 256 240" xmlns="http://www.w3.org/2000/svg" preserveAspectRatio="xMidYMid"><title>MetaMask</title><path fill="#e17726" d="M250.066018-8.896517910000001e-15 140.218553 81.2793133l20.42709-47.9005407z"/><g style="fill:#e27625"><path d="M6.19062016.0955267053 95.3715526 33.38465l19.3963704 48.5286284z"/><path d="M205.859986 172.858026l48.550661.923997-16.967659 57.642229-59.242559-16.311516z"/><path d="M50.1391619 172.857971l27.557267 42.254909-59.143371 16.312437-16.86458962-57.643281z"/><path d="M112.130724 69.5516472l1.984664 64.0834378-59.371044-2.70118 16.8876101-25.477457.2137433-.24578z"/><path d="M143.254237 68.8369186l40.899762 36.3764734.211515.243798 16.888023 25.477466-59.357217 2.70057z"/><path d="M79.4347776 173.043957l32.4183674 25.258817-37.6580049 18.18161z"/><path d="M176.57078 173.040009l5.130892 43.444514-37.552309-18.18332z"/></g><g style="fill:#d5bfb2"><path d="M144.977922 195.921642l38.106957 18.451889-35.4471 16.846823.368039-11.13465z"/><path d="M111.01133 195.929982l-2.909237 23.973608.238745 11.303647-35.5303235-16.833572z"/></g><g style="fill:#233447"><path d="M100.007166 141.998856l9.958006 20.927966-33.9035775-9.931545z"/><path d="M155.991579 142.000941l24.058137 10.993653-34.013636 9.929044z"/></g><g style="fill:#cc6228"><path d="M82.0263962 172.830401l-5.4804141 45.039622-29.37286-44.055071z"/><path d="M173.976111 172.8305l34.854351.984581-29.483446 44.056433z"/><path d="M202.112267 128.387342l-25.365488 25.851082-19.556445-8.937072-9.363484 19.683913-6.138205-33.848836z"/><path d="M53.8753865 128.386879l60.4341985 2.74955-6.138205 33.848836-9.3652375-19.681409-19.4536318 8.934967z"/></g><g style="fill:#e27525"><path d="M52.165606 123.082486l28.6983024 29.1209.9945728 28.748892z"/><path d="M203.863346 123.029784l-29.745855 57.973233 1.119937-28.80028z"/><path d="M112.906762 124.855691l1.154896 7.269991 2.854113 18.110836-1.834817 55.625366-8.67515-44.684398-.002851-.462066z"/><path d="M143.077997 124.755417l6.521054 35.960034-.002857.462035-8.696861 44.796228-.344183-11.204584-1.356983-44.862003z"/></g><g style="fill:#f5841f"><path d="M177.788479 151.045975l-.971299 24.977922-30.273838 23.587293-6.120042-4.32407 6.860127-35.335486z"/><path d="M78.3167053 151.046455l30.3997587 8.905972 6.859973 35.334693-6.120052 4.324077-30.2756506-23.589316z"/></g><path fill="#c0ac9d" d="M67.0180978 208.857597l38.7320452 18.351905-.163949-7.836634 3.240641-2.84454h38.333859l3.358064 2.835014-.247383 7.831135 38.486358-18.290499-18.727441 15.475531-22.645681 15.553806h-38.868127l-22.6309337-15.617374z"/><path fill="#161616" d="M142.203502 193.479367l5.476262 3.868334 3.2092 25.604793-4.644258-3.921537h-36.475407l-4.555852 4.000441 3.103821-25.681735 5.478161-3.870296z"/><g style="fill:#763e1a"><path d="M242.814251 2.24978946 256 41.8072765l-8.234663 39.9964155 5.863701 4.5237301-7.934631 6.0537876 5.963118 4.6053782-7.896319 7.1916591 4.8479 3.510725-12.86574 15.025831-52.76998-15.364439-.457307-.24512-38.027097-32.0785026z"/><path d="M13.1860054 2.24978557 111.51151 75.0267402 73.4844118 107.105244l-.4573095.245121-52.7703635 15.364439-12.86552589-15.025877 4.84405769-3.508176-7.89276059-7.1941587 5.95204659-4.6003744-8.05321957-6.0711189 6.08495988-4.5264319L-2e-15 41.8087534z"/></g><g style="fill:#f5841f"><path d="M180.391638 103.990363l55.913235 16.278814 18.165372 55.985542-47.9238-9.9e-5-33.020913.416662 24.014125-46.807998z"/><path d="M75.6080363 103.990376l-17.1512172 25.872908 24.0173674 46.807998-33.0047952-.416563H1.63053271l18.06336409-55.985171z"/><path d="M163.383898 33.1117385l-15.639207 42.2387662-3.318839 57.0608473-1.269918 17.884634-.100739 45.687528h-30.111407l-.097612-45.601812-1.274062-17.986117-3.320328-57.0450803-15.6367006-42.2387662z"/></g></svg>