<svg width="256px" height="251px" viewBox="0 0 256 251" xmlns="http://www.w3.org/2000/svg" preserveAspectRatio="xMidYMid"><g fill="#df4f4f"><path d="M.438600784.438237494 219.300393 232.265872c0 0 7.456213 5.25885 13.158024-.876475 5.701809-6.135325 1.315802-12.27065 1.315802-12.27065L.438600784.438237494h0z"/><path d="M69.7375247 22.3501121 236.405823 202.027485c0 0 7.456214 5.258849 13.158024-.876476 5.70181-6.135324 1.315803-12.270649 1.315803-12.270649L69.7375247 22.3501121h0z"/><path d="M21.0528376 69.2415241 187.721136 248.918896c0 0 7.456214 5.25885 13.158024-.876474 5.70181-6.135325 1.315802-12.270651 1.315802-12.270651L21.0528376 69.2415241h0z"/><path d="M128.320766 41.1943244 244.761955 166.724176c0 0 5.209211 3.674045 9.192725-.612341 3.983515-4.286384.919272-8.57277.919272-8.57277L128.320766 41.1943244h0z"/><path d="M37.0918028 123.582973 153.532991 249.112825c0 0 5.209212 3.674045 9.192725-.612341 3.983515-4.286385.919273-8.57277.919273-8.57277L37.0918028 123.582973h0z"/><path d="M188.159737 68.3650492l52.775067 57.0671568c0 0 2.576827 1.721563 4.547343-.286928 1.970515-2.008491.454734-4.016983.454734-4.016983l-57.777144-52.7632458h0z"/><path d="M66.2287188 181.430322l52.7750672 57.067157c0 0 2.576827 1.721564 4.547343-.286927 1.970514-2.008492.454734-4.016983.454734-4.016983l-57.7771442-52.763247h0z"/></g></svg>