<svg width="256px" height="242px" viewBox="0 0 256 242" xmlns="http://www.w3.org/2000/svg" preserveAspectRatio="xMidYMid"><title>Azure</title><defs><linearGradient x1="58.9717389%" y1="7.4114724%" x2="37.1905196%" y2="103.76182%" id="a"><stop stop-color="#114a8b"/><stop stop-color="#0669bc" offset="1"/></linearGradient><linearGradient x1="59.7188447%" y1="52.3127289%" x2="52.6914332%" y2="54.8636556%" id="b"><stop stop-opacity="0.3"/><stop stop-opacity="0.2" offset=".071"/><stop stop-opacity="0.1" offset=".321"/><stop stop-opacity="0.05" offset=".623"/><stop stop-opacity="0" offset="1"/></linearGradient><linearGradient x1="37.2789399%" y1="4.60005789%" x2="62.4733904%" y2="99.9794963%" id="c"><stop stop-color="#3ccbf4"/><stop stop-color="#2892df" offset="1"/></linearGradient></defs><path d="M85.3432536.00290931225h75.7526724L82.4572158 233.000999c-1.6572652 4.909267-6.2608749 8.215898-11.442325 8.215898H12.0605874c-3.88427032 0-7.53095275-1.87012-9.79659784-5.025181-2.26564510136-3.155061-2.872835265-7.208288-1.631180664-10.888757L73.8980192 8.2188071C75.5546242 3.30737742 80.1599649 0 85.3432536 0v.00290931225z" fill="url(#a)"/><path d="M195.422901 156.282432H75.2973984c-2.2854753-.002524-4.339668 1.393855-5.1781601 3.519963-.8384922 2.126108-.2904437 4.548756 1.3815076 6.106954l77.1898721 72.046209c2.24738 2.096419 5.20652 3.261339 8.279903 3.261339h68.01972l-29.56734-84.934465z" fill="#0078d4"/><path d="M85.3432536.00282026831C80.0982223-.017218565 75.4499031 3.37677358 73.8718354 8.37881927L.722997576 225.105126c-1.325633263 3.695057-.7673538371 7.804305 1.496049274 11.011758 2.26340311 3.207453 5.94790469 5.110621 9.87354295 5.100057h60.4758737c4.5855755-.819355 8.3756392-4.042577 9.9207548-8.43705l14.5872916-42.990907 52.1057821 48.600062c2.183522 1.806101 4.922636 2.804757 7.756227 2.827895h67.76661l-29.721534-84.934506-86.642228.020365L161.369401.00282026831H85.3432536z" fill="url(#b)"/><path d="M182.098251 8.20716985c-1.654266-4.90351808-6.252734-8.20426053775-11.427779-8.20426053775H86.2451404c5.1747562 0 9.7727552 3.30130230775 11.4277785 8.20426053775L170.941039 225.30005c1.242591 3.681141.635957 7.735451-1.629688 10.891666-2.265646 3.156214-5.912884 5.02809-9.798091 5.02809h84.428241c3.884695 0 7.531065-1.873201 9.79603-5.029272 2.264965-3.15607 2.871267-7.209829 1.62884-10.890484L182.098251 8.20716985z" fill="url(#c)"/></svg>