<svg width="256px" height="239px" viewBox="0 0 256 239" xmlns="http://www.w3.org/2000/svg" preserveAspectRatio="xMidYMid"><title>Teams</title><defs><linearGradient x1="17.372046%" y1="-6.51032331%" x2="82.6280767%" y2="106.510437%" id="a"><stop stop-color="#5a62c3" offset="0%"/><stop stop-color="#4d55bd" offset="50%"/><stop stop-color="#3940ab" offset="100%"/></linearGradient></defs><g style="fill:#5059c9"><path d="M178.562984 89.3023389h66.125425C250.935667 89.3023389 256 94.3666717 256 100.61393c0 0 0 0 0 0v60.23147c0 22.960292-18.612905 41.573197-41.573196 41.573197h0-.196523c-22.960292.003216-41.575838-18.607047-41.579169-41.567339 0-.001953 0-.003905 0-.005973V95.2142112c0-3.2650773 2.64691-5.9118723 5.911872-5.9118723h0z"/><circle cx="223.255847" cy="50.6046204" r="26.7907017"/></g><g style="fill:#7b83eb"><circle cx="139.906959" cy="38.6977185" r="38.6977185"/><path d="M191.505908 89.3023389H82.3545595c-6.1728303.1527616-11.0559167 5.2755572-10.9126884 11.4486171v68.697332c-.8620116 37.043988 28.4454655 67.784782 65.4884199 68.691359 37.042955-.906577 66.350317-31.647371 65.48842-68.691359v-68.697332c.142999-6.1730599-4.739972-11.2958555-10.912803-11.4486171z"/></g><path d="M142.883742 89.3023389V185.57026c-.029633 4.41458-2.704798 8.380522-6.786977 10.061359-1.299737.549827-2.696644.833527-4.107908.833527H76.6809034c-.7739153-1.964652-1.488334-3.929303-2.0837595-5.953451-2.0839893-6.831428-3.1473475-13.933118-3.1553876-21.075352v-68.703305c-.1431135-6.1631819 4.7319328-11.2779375 10.8948853-11.4306991h60.5471004z" opacity="0.1"/><path d="M136.930291 89.3023389V191.523711c0 1.411264-.2837 2.808171-.833526 4.107908-1.680837 4.082179-5.64678 6.757459-10.061359 6.786978H79.4790817c-1.0121315-1.964652-1.9646515-3.929303-2.7981783-5.953451-.8335268-2.024148-1.488334-3.929303-2.0837595-5.953451-2.0839893-6.831313-3.1473475-13.933118-3.1553876-21.075352v-68.703305c-.1431135-6.1631819 4.7319328-11.2779375 10.8948853-11.4306991h54.5936494z" opacity="0.2"/><path d="M136.930291 89.3023389v90.3144701c-.045369 5.998246-4.896639 10.849517-10.894885 10.894886H74.5972587c-2.0839892-6.831313-3.1473475-13.933118-3.1553876-21.075352v-68.703305c-.1431134-6.1631819 4.7319329-11.2779375 10.8948854-11.4306991h54.5935345z" opacity="0.2"/><path d="M130.976725 89.3023389v90.3144701c-.045369 5.998246-4.896639 10.849517-10.894885 10.894886H74.5972587c-2.0839892-6.831313-3.1473475-13.933118-3.1553876-21.075352v-68.703305c-.1431134-6.1631819 4.7319329-11.2779375 10.8948854-11.4306991h48.6399685z" opacity="0.2"/><path d="M142.883742 58.5228377v18.7534912c-1.012131.0594966-1.964651.1191081-2.976783.1191081-1.012131 0-1.964651-.0594966-2.976783-.1191081-2.009561-.1333505-4.002582-.4521972-5.953451-.95252-12.055873-2.8550331-22.015926-11.3099833-26.790701-22.7422907-.821582-1.9198567-1.45939-3.9133376-1.905155-5.953451h29.707873c6.007664.022742 10.872143 4.8871064 10.895 10.8947705z" opacity="0.1"/><path d="M136.930291 64.4762887v12.8000402c-2.009561-.1333505-4.002582-.4521972-5.953451-.95252-12.055873-2.8550331-22.015926-11.3099833-26.790701-22.7422907h21.849267c6.007549.022742 10.872029 4.8872213 10.894885 10.8947705z" opacity="0.2"/><path d="M136.930291 64.4762887v12.8000402c-2.009561-.1333505-4.002582-.4521972-5.953451-.95252-12.055873-2.8550331-22.015926-11.3099833-26.790701-22.7422907h21.849267c6.007549.022742 10.872029 4.8872213 10.894885 10.8947705z" opacity="0.2"/><path d="M130.976725 64.4762887v11.8474054c-12.055873-2.8550331-22.015926-11.3099833-26.790701-22.7422907h15.895816c6.007664.0228568 10.872029 4.8873361 10.894885 10.8948853z" opacity="0.2"/><path d="M10.9126884 53.5814034H120.063922c6.026961 0 10.912689 4.8858429 10.912689 10.9126884V173.645326c0 6.02696-4.885843 10.912688-10.912689 10.912688H10.9126884C4.88572809 184.558014 0 179.672171 0 173.645326V64.4940918c0-6.0268455 4.88584295-10.9126884 10.9126884-10.9126884z" fill="url(#a)"/><path fill="#fff" d="M94.2080524 95.1248514H72.3884185v59.4158616H58.4871168V95.1248514H36.768788V83.5989345h57.4392644z"/></svg>