<svg width="256px" height="203px" viewBox="0 0 256 203" xmlns="http://www.w3.org/2000/svg" preserveAspectRatio="xMidYMid"><title>Micron</title><path d="M137.593176 35.4520472c2.554571-1.071927 2.81409.6702364 1.39012 1.7579602-1.455564 1.1148041-3.181931 2.3988598-5.289678 3.6761454-9.261449 5.6146408-18.662813 12.4727168-28.332723 20.1567408 4.270658 2.6518596 7.840572 6.3307632 10.34996 10.6848531l.890605 1.6637459 13.226451 28.0596634c1.367553 2.737363 3.901814 4.253858 6.842279 4.253858 2.617759 0 4.900301-1.198218 6.335692-3.387026l.497561-.866832 13.224194-28.0596634c4.962457-9.9993863 15.320657-16.9206497 27.238229-16.9206497 12.055229 0 22.431482 7.0137876 27.310443 17.1824255.498728 1.2073283.577712 2.3131056-.33399 3.6219849-6.596752 9.5356368-15.076258 19.3655684-24.951563 29.2298647l-3.342796 3.289015.004513-17.2117623-6.952857 14.7925923c-7.623093 16.345194-21.449823 26.112142-39.033939 26.112142-16.956112 0-30.420528-9.081767-38.1937773-24.386188l-.8401622-1.725954-6.9528569-14.7925923.00677 67.4636993c-11.1726762 6.210031-20.9440272 10.779809-29.3488177 13.827535l-2.25836.79355v-72.717271c-31.365712 31.325092-48.7015923 59.066562-38.1267505 73.412331 11.9596426 16.235059 43.9720772 7.32794 91.3787316-22.580167l2.601057-1.652153c2.073896-1.326933 3.996595-2.484614 5.619154-3.335386 1.584195-.832718 3.057813.126375 1.013253 1.994913-1.238922 1.137371-2.949492 2.45979-4.887987 3.786723-6.878386 4.693912-13.852095 9.21451-20.7917188 13.448563l-5.1963049 3.120043.0022567 32.764859H59.0784729v-16.363248c-25.5321725 11.089367-46.8533645 14.063682-55.8462678 1.189275-12.04612618-17.25724 10.4042554-55.655532 53.5938962-94.7766051l2.2523716-2.0240437v-4.1748736c0-16.7536546 13.528847-30.2892717 30.2825016-30.2892717 3.8589372 0 7.5508794.7334238 10.9539655 2.0513298l3.335385-2.3018222h0c9.24791-6.3119574 18.917819-12.181604 28.373344-17.9113358 2.012966-1.2186117 4.021418-2.2092979 5.569507-2.8569675zm18.134748-10.6595309 1.234408-.6284245C204.142917-.761031557 240.5433-7.56269039 252.260027 9.21804454c11.00448 15.76084196-2.650501 48.17550356-36.021446 83.29276226l-1.9857 2.0687331v63.2233821H182.64119l.004513-34.626627c-6.815199 5.461186-14.056912 10.893035-21.722883 16.248157l-5.775967 4.014648c-7.160761 4.953567-15.524829 10.640264-22.213533 14.842454l-3.446169 2.122202h0l-.677007.405075c-2.006196 1.220868-3.892787 2.227352-5.434105 2.888561-2.547801 1.092237-2.816347-.649926-1.41043-1.75119 1.448793-1.128344 3.292508-2.38532 5.355121-3.737076l1.559372-.979403h0c7.819425-4.693912 19.825007-13.13844 27.606069-18.908792 58.272208-43.2291228 91.923945-101.6660689 75.492997-119.4984206-10.536111-11.43542736-37.09445-8.82503083-71.284535 6.9311578l-2.455015 1.1477866c-2.216068 1.0832105-4.1839 1.8414578-5.905754 2.4688171-1.678976.6115626-3.014935-.5483752-.731167-2.1258004 1.10307-.761858 2.522436-1.6103729 4.125227-2.4519552z" fill="#0090da"/></svg>