<svg width="256px" height="165px" viewBox="0 0 256 165" xmlns="http://www.w3.org/2000/svg" preserveAspectRatio="xMidYMid"><title>OneDrive</title><path d="M154.66056 110.681557l52.841492-50.5336088c-10.976241-42.7992404-54.569796-68.59703703-97.369285-57.62079533C90.8589801 7.46999082 74.1187452 19.4179992 63.179535 36.0386895c.8179244-.0206283 91.481025 74.6428675 91.481025 74.6428675z" fill="#0364b8"/><path d="M97.6181022 45.5520619l-.0024853.0086987c-10.0969295-6.2536046-21.7414783-9.5591026-33.6184061-9.5430069-.2743812 0-.5440402.0174563-.8179243.0206872C27.8517142 36.4761088-.432413365 65.4695515.00500592252 100.797124.163570414 113.612018 4.16769663 126.083687 11.4981977 136.595916l79.1649379-9.915003 60.6941624-48.9400108-53.7391958-32.1888403z" fill="#0078d4"/><path d="M207.502052 60.1481967c-1.161646-.0775425-2.329009-.1312507-3.510041-.1312507-7.088926-.006934-14.104038 1.4410233-20.610899 4.254176l-.001491-.0054677-32.022074 13.4754964 35.301973 43.6067263 63.111153 15.341487c13.619398-25.283828 4.163437-56.8210134-21.120392-70.4404109-6.533205-3.519237-13.744162-5.5992154-21.14798-6.1005078v-2.486e-4h-2.49e-4z" fill="#1490df"/><path d="M11.4981977 136.595916c11.9532276 17.185856 31.5652693 27.427929 52.4992617 27.417002H203.991762c19.123673.005459 36.706189-10.488627 45.778663-27.323056l-98.413127-58.9489598L11.4981977 136.595916z" fill="#28a8ea"/></svg>