<svg width="256px" height="342px" viewBox="0 0 256 342" xmlns="http://www.w3.org/2000/svg" preserveAspectRatio="xMidYMid"><title>Power BI</title><defs><path d="M142.222222 14.2222222C142.222222 6.36750222 148.589867 0 156.444444 0h85.333334C249.632356 0 256 6.36750222 256 14.2222222V327.111111c0 7.854578-6.367644 14.222222-14.222222 14.222222H14.2222222C6.36764444 341.333333 0 334.965689 0 327.111111V184.888889c0-7.854578 6.36764444-14.222222 14.2222222-14.222222h56.8892445V99.5555556c0-7.8545778 6.3676444-14.2222223 14.2222222-14.2222223h56.8885331V14.2222222z" id="b"/><linearGradient x1="42.5926042%" y1="-9.35203125e-07%" x2="57.2448958%" y2="93.1735417%" id="c"><stop stop-color="#e6ad10"/><stop stop-color="#c87e0e" offset="1"/></linearGradient><linearGradient x1="40.1218519%" y1="0%" x2="62.0283333%" y2="95.5919444%" id="d"><stop stop-color="#f6d751"/><stop stop-color="#e6ad10" offset="1"/></linearGradient><linearGradient x1="27.7741667%" y1="0%" x2="55.0115278%" y2="96.828125%" id="e"><stop stop-color="#f9e589"/><stop stop-color="#f6d751" offset="1"/></linearGradient></defs><mask id="a" fill="#fff"><use href="#b"/></mask><path fill="url(#c)" mask="url(#a)" d="M256 0v341.333333H142.222222V0z"/><path d="M184.888889 100.977778v241.777778H71.1111111V86.7555556h99.5555559c7.854577 0 14.222222 6.3676444 14.222222 14.2222224z" fill-opacity="0.2" mask="url(#a)"/><path d="M184.888889 106.666667v241.777777H71.1111111V92.4444444h99.5555559c7.854577 0 14.222222 6.3676445 14.222222 14.2222226z" fill-opacity="0.18" mask="url(#a)"/><path d="M184.888889 99.5555556V341.333333H71.1111111V85.3333333h99.5555559c7.854577 0 14.222222 6.3676445 14.222222 14.2222223z" fill="url(#d)" mask="url(#a)"/><path d="M0 170.666667v170.666666h113.777778V184.888889c0-7.854578-6.367645-14.222222-14.2222224-14.222222H0z" fill="url(#e)" mask="url(#a)"/></svg>