<svg width="256px" height="256px" viewBox="0 0 256 256" xmlns="http://www.w3.org/2000/svg" preserveAspectRatio="xMidYMid"><title>micro</title><path d="M128 0C57.3023256 0 0 57.3023256 0 128c0 70.697674 57.3023256 128 128 128 70.697674 0 128-57.302326 128-128C256 57.3023256 198.697674 0 128 0zm60.775194 145.364341c-1.24031 4.96124-3.224806 8.930233-5.953489 12.155039-2.48062 3.224806-4.96124 5.209302-7.689922 6.20155-2.728682.992248-5.457364 1.488372-8.434109 1.488372-2.976744 0-5.457364-.496124-7.44186-1.736434-1.984496-.992248-3.472868-2.728682-4.713178-4.713178-1.24031-1.984496-1.984496-4.465116-2.48062-7.193799-.496125-2.728682-.744187-5.705426-.744187-8.930232 0-1.24031 0-2.48062.248062-4.217054.248062-1.736434.496125-3.968993.744187-3.968993h-.496125c-3.968992 9.922481-9.426356 17.116279-16.372093 22.821706-6.945736 5.705426-14.635658 8.434108-23.069767 8.434108-5.705426 0-10.418605-2.232558-13.6434108-6.449612-3.4728682-4.217054-5.2093024-10.666667-5.2093024-19.100775 0-1.24031 0-2.48062.2480621-3.968992.248062-1.240311.248062-1.736435.496124-4.217055h-1.7364341c-2.2325582 4.961241-4.2170543 11.906977-5.7054264 18.108527-1.4883721 6.201551-2.7286821 11.906977-3.4728682 17.116279-.9922481 5.209303-1.4883721 9.922481-1.9844961 13.891473-.496124 3.968993-.7441861 6.697675-.9922481 8.186047.248062 1.24031.4961241 2.48062.7441861 3.968992.496124 1.488372.744186 2.976744 1.24031 4.217054.4961241 1.24031.7441861 2.728683.9922481 3.968993.248062 1.24031.496124 2.232558.496124 2.976744 0 3.472868-.744186 6.20155-2.2325581 7.937984-1.4883721 1.736434-3.2248062 2.728682-4.9612403 2.728682-2.2325581 0-4.2170543-.744186-5.7054264-1.984496-1.7364341-1.488372-2.4806201-3.72093-2.4806201-6.697674 0-4.217054.744186-9.674419 2.2325581-16.124031 1.4883721-6.449613 3.7209303-14.635659 6.4496124-24.310078 1.4883721-4.465116 2.7286822-8.930232 4.2170543-13.395348 1.4883721-4.465117 2.7286822-8.682171 3.9689922-12.403101 1.2403101-3.72093 2.2325582-7.193799 3.2248062-10.170543.9922481-2.976744 1.4883721-5.209302 1.7364341-6.945736.2480621-.744186.4961241-2.48062.7441861-4.961241.248062-2.48062.496124-5.209302.9922481-8.434108.496124-3.224806.744186-6.697675 1.24031-10.1705428.4961241-3.7209302.9922481-6.9457364 1.2403101-9.9224806.496124-2.2325581.7441861-4.7131783 1.2403101-7.4418605.496124-2.7286821 1.2403101-5.4573643 2.2325581-7.6899224.9922481-2.4806202 2.4806199-4.4651163 4.2170539-6.2015504 1.736434-1.7364341 3.968993-2.4806202 6.697675-2.4806202 2.976744 0 4.96124.9922481 5.953488 2.7286822.992248 1.7364341 1.488372 3.9689922 1.24031 6.4496124-.248062 2.4806201-.496124 5.2093023-1.24031 7.9379845-.744186 2.7286821-1.488372 5.2093023-2.232558 7.1937984-1.984496 6.2015504-3.968992 11.9069764-6.20155 16.6201554-2.232558 4.713178-4.217055 9.92248-5.953489 15.379845-1.4883718 3.72093-1.9844958 7.193798-1.9844958 10.170542 0 5.457365 1.7364338 9.426357 4.9612398 12.403101 3.472869 2.976744 7.441861 4.217054 12.155039 4.217054 3.72093 0 7.441861-1.24031 10.914729-3.968992 3.472868-2.728682 6.697674-5.953488 9.674419-9.674419 2.976744-3.72093 5.457364-7.689922 7.44186-12.155038 1.984496-4.217055 3.472868-8.186047 4.465116-11.410853.248062-.496124.496124-1.488372.744186-3.472868.496124-1.984496.744186-4.217055 1.24031-6.697675.496124-2.4806198.992248-4.96124 1.488372-7.6899221.496125-2.7286822.992249-4.9612403 1.240311-6.6976745.496124-1.9844961.744186-3.9689922 1.24031-6.4496124.496124-2.4806201 1.24031-4.7131783 2.232558-6.9457364.992248-2.2325581 2.48062-3.9689922 3.968992-5.4573643 1.736434-1.4883721 3.72093-2.2325582 6.449612-2.2325582 3.224807 0 5.209303.9922481 6.449613 2.7286822.992248 1.7364341 1.488372 3.9689922 1.488372 6.4496124-.248062 2.4806202-.496124 4.9612403-1.24031 7.4418605-.744186 2.4806201-1.24031 4.4651162-1.736434 5.9534883-1.984496 6.2015504-3.968993 11.6589145-5.953489 16.6201555-1.984496 4.96124-3.72093 9.426356-5.457364 12.899224-1.488372 3.720931-2.728682 6.449613-3.72093 8.682171-.992248 2.232558-1.488372 3.72093-1.488372 4.465116 0 6.449613 1.488372 11.162791 4.217054 13.891473 2.728682 2.728682 5.705426 4.217054 8.930233 4.217054 5.457364 0 9.674418-1.736434 12.899224-4.96124 3.224807-3.472868 5.705427-9.674419 7.193799-17.116279h1.984496c.496124 7.193798-.248062 13.147287-1.488372 18.108527h0z" fill="#2e3192"/></svg>