<svg width="256px" height="256px" viewBox="0 0 256 256" xmlns="http://www.w3.org/2000/svg" preserveAspectRatio="xMidYMid"><title>Mida</title><path d="M128.316235 64.9648624c61.073387 0 111.097684 46.4777326 111.097684 103.9136306 0 16.710151-14.210005 29.767582-32.117152 29.767582-17.907145 0-32.11715-13.57525-32.11715-29.767582 0-25.065228-21.05395-44.910282-47.385497-44.910282-26.331548 0-47.3854976 20.362873-47.3854976 44.910282 0 29.753586 11.5853166 57.953716 33.1754926 79.366221 2.852244 2.741114 5.689525 5.272472 8.552645 7.619467-12.524077-.560768-24.5790678-2.925085-35.9129438-6.836598-5.1736453-6.211002-9.7355374-12.973983-15.5388083-23.25293-9.4517443-16.1281-14.1846595-36.410196-14.1846595-58.253526 0-36.925961 32.0598659-66.575458 71.4726536-66.575458 39.412787 0 71.472653 29.635558 70.951468 66.045754 0 4.6837 3.690548 7.806167 7.888193 7.806167 4.732915 0 7.888192-3.652171 7.888192-7.806167 0-44.732129-38.891604-81.6580897-86.713767-81.6580897-47.8221637 0-86.7137671 36.9259607-87.2349512 82.1877937 0 24.436093 5.7893694 47.324891 16.297568 66.045754.3120255.540575.621269 1.072889.9279647 1.597298-15.0483273-9.851036-27.8930242-22.785165-37.6396255-37.904736-2.2183079-11.419815-2.5832657-20.811792-2.5832657-27.863131 0-16.178339 3.1609147-30.285401 8.9465174-42.811017 17.9071459-37.6048381 57.912472-61.6204326 101.6149393-61.6204326zm.522115 75.1956816c17.907146 0 32.117151 13.575248 32.117151 29.767582 0 24.547408 21.05395 44.910281 47.385497 44.910281 5.656654 0 11.069751-.939736 16.082882-2.658815-7.264018 8.317963-15.589223 15.68623-24.762843 21.895763-12.755646-.77598-23.584397-4.402265-33.212774-10.861517-18.730805-12.577033-29.665244-33.023494-29.665244-54.523896 0-4.721658-3.124125-7.869429-7.810313-7.869429-4.686188 0-7.810313 3.681768-7.810313 7.869429 0 26.742003 13.528578 51.910121 35.899548 67.114981 6.382732 4.370077 13.389606 7.732617 21.022267 10.024602-10.128313 4.311607-20.92753 7.354784-32.196994 8.930583-7.074986-4.321811-13.533928-9.525954-20.209778-15.906107-18.951377-18.277603-28.9562363-42.811016-28.9562363-68.925875 0-16.710153 14.2100043-29.767582 32.1171503-29.767582h0zM56.5262035 44.8692648c43.4046051-22.5037162 99.3526795-22.5037162 143.2758405 0 19.68352 9.8586815 36.117719 23.8763868 49.314264 41.6210034C253.579125 99.5062523 256 113.470413 256 128c0 7.658508-.672596 15.159923-1.961941 22.448397-9.915684-56.5131482-62.241333-99.5766021-125.199709-99.5766021-49.4880697 0-94.7709942 27.6823112-115.3028284 69.9755081-5.32815605 10.971752-8.74049671 23.529706-9.99065757 37.178586C1.22636349 148.396242 0 138.341337 0 128c0-14.185787 2.30766472-27.832591 6.56807465-40.5854909C19.8843639 69.6670407 36.5333094 54.8761966 56.5262035 44.8692648h0zM128 0c36.159188 0 68.816454 14.9935037 92.093856 39.1025664-4.169312-2.6369488-8.493127-5.0792909-12.975957-7.3230568-48.099647-25.1272791-109.2753326-24.60817843-157.388994 0-5.345072 2.7353842-10.5134554 5.767409-15.4906441 9.0889082C57.6071275 15.7269603 90.9669496 0 128 0z" fill="#e7d218"/></svg>