<svg width="256px" height="256px" viewBox="0 0 256 256" xmlns="http://www.w3.org/2000/svg" preserveAspectRatio="xMidYMid"><rect fill="#f1c761" width="256" height="256" rx="22"/><g transform="translate(19.561462 32.318937)" fill-opacity="0.35"><path d="M98.5353355 156.877821V35.8995349l-29.421289 4.1317209L46.615814 83.6320532 25.2342857 45.2226977.502644518 49.1307375v95.3536215L23.782485 148.447681V88.0988704l22.7771961 42.9306046h.5026445l24.0061661-43.0981527v64.8709107l27.4668438 4.075588"/><path d="M0 21.6638937v12.5048771L108.863787 16.136505V.170099668L0 21.6638937"/><path d="M0 169.551096l108.863787 21.437661v-15.911122L0 156.989236v12.56186"/></g><g transform="translate(128.425249 32.318937)" fill="#fff"><path d="M0 .170099668V16.136505l108.863787 18.0322658V21.6638937L0 .170099668"/><path d="M108.361143 144.484359V49.1307375l-24.7316413-3.9080398-21.3815283 38.4093555-22.499083-43.6007974-29.4204386-4.1317209V156.877821l27.4668439-4.075588V87.9313223l24.0061661 43.0981527h.501794l22.7780465-42.9306046v60.3488106l23.2798407-3.963322"/><path d="M0 190.988757l108.863787-21.437661v-12.56186L0 175.077635v15.911122"/></g></svg>