<svg width="256px" height="214px" viewBox="0 0 256 214" xmlns="http://www.w3.org/2000/svg" preserveAspectRatio="xMidYMid"><title>Midjourney</title><path d="M240.859776 162.892009c.662626 1.718743.119251 3.157776-1.348956 4.339343-13.754319 11.071724-28.190958 21.114318-43.905075 29.24124l-13.120139 6.775049c2.706665 2.161831 5.761235 2.76939 9.003617 2.648316 3.549443-.133109 6.523419-1.762505 9.270563-3.857964 3.281767-2.503901 6.386299-5.27402 9.834725-7.518634 8.350108-5.435574 17.349713-4.943984 25.248345 1.18485 3.354703 2.60346 6.438813 5.577435 9.919696 7.987614 1.683394 1.16561 3.838431 1.800778 5.904444 2.257211l.457421.09863c2.506819.528059 4.030458 1.79095 3.863069 3.955334-.16593 2.147972-1.867533 3.402841-4.437442 3.236911-5.445057-.351553-9.713286-3.160693-13.713476-6.555876-2.497702-2.119892-4.910433-4.379822-7.605793-6.218545-4.998321-3.409406-10.302976-3.508964-15.395385-.235949-3.001692 1.929164-5.730602 4.289017-8.539377 6.508832-4.527154 3.577523-9.412789 6.211981-15.37387 6.301692-6.538371.098464-11.799628-2.834667-16.62035-6.866219-1.723848-1.441585-3.431286-2.904686-5.187591-4.305792-6.586509-5.253963-13.333842-5.251411-19.942962.003647-.770097.612336-1.532252 1.234946-2.292529 1.859912l-1.519849 1.250728c-1.26745 1.040983-2.540917 2.073851-3.848482 3.061955-8.090454 6.114612-17.355182 6.406357-25.738841.68086-3.050194-2.083059-5.830524-4.561433-8.739587-6.852726-6.609848-5.205825-12.0961139-5.189779-18.8237544-.022245l-.5503731.423687-1.6497207 1.275089c-2.2009257 1.699734-4.4151337 3.384699-6.7397035 4.89612-8.7607387 5.695957-17.6771964 5.45782-26.3839624-.047408-3.6030512-2.278043-6.8925261-5.051589-10.3053649-7.631048l-.5129057-.385377c-1.3620846-1.017096-2.7077586-2.05899-4.1063114-3.023937-1.9506802-1.346039-4.0501504-1.722754-6.1620198-.44017-3.7317837 2.265765-7.4198057 4.603372-11.1158506 6.927486-3.4929174 2.19611-6.8680428 4.609936-10.5002685 6.542017-1.96745562 1.046636-4.33204914 1.533485-6.57520379 1.820125-2.08743574.266217-3.52355068-1.284043-3.60305120247-3.239464-.07835831313-1.926398 1.17972906247-3.136655 3.13466306247-3.692079l.11355324-.031317c2.07868338-.556139 4.2189979-1.261433 6.02198223-2.395227 5.08766876-3.198255 10.01706586-6.648505 15.00371786-10.007219.1411317-.095182.2235496-.276429.3927618-.493779l-3.0955972-5.853363c-1.033051-1.953825-2.0655549-3.910432-3.0923151-5.870046-1.8011609-3.438216-.6290752-5.74446 3.2369112-6.020889 10.4225914-.744314 20.8528412-1.383601 31.2805381-2.054614l60.0203418-3.852129c14.186832-.912432 28.372569-1.834347 42.559036-2.749697 20.006416-1.290971 40.012832-2.58012 60.019248-3.869268 5.319788-.342709 10.640192-.677008 15.959673-1.024589l5.319116-.352812c1.832523-.123627 3.303283.429959 3.982684 2.191734zm-15.220338 6.078508-.177965-.436523-198.6072566 12.78682.4903318.915886c1.2876922 2.412267 2.4271186 4.590882 3.6728699 6.706682.1148309.194886.5163094.234573.9371407.248692l.4299855.010764c.0440291.001297.0871906.002822.1291346.004743l.1218301.007124c1.7260366.127639 3.6128976-.176506 5.1452884.428136 2.4466468.965676 4.7838892 2.349277 6.9409791 3.876197 3.8601515 2.732557 7.4307461 5.881216 11.3397649 8.535731 6.9453553 4.716423 13.4866437 4.576021 20.3189477-.206045 2.8838997-2.018146 5.6186448-4.247443 8.4751933-6.305704 8.9325037-6.435167 17.3942036-6.301693 26.1137336.417195 2.548028 1.963444 4.976441 4.081878 7.520093 6.051157 6.377546 4.93742 12.848087 4.955289 19.193541.05069 2.112964-1.633407 4.125275-3.397006 6.198853-5.081833 9.40567-7.641656 18.940371-8.378235 28.189389-1.563607l.280186.208816c2.960482 2.231484 5.163522 2.119163 8.113429.648403l1.436235-.718057c13.156758-6.596642 26.06451-13.606503 37.982166-22.318131 1.92807-1.409493 3.837906-2.84415 5.75613-4.267136zM41.2179916.675204669C62.7141305 10.3731744 82.0181702 23.4189183 99.5626227 39.09912c21.8312813 19.511908 39.0362153 42.5521076 51.7442643 68.903249 6.68855 13.869947 11.890501 28.275823 14.279701 43.571268l.114805.750269.173425 1.197617c.003275 2.959754-2.367883 4.699283-4.839328 3.700786-12.272255-4.958936-24.944201-8.398245-38.039177-10.362419-17.305586-2.595801-34.3930926-1.950315-51.2176642 3.115472-11.1570595 3.359444-21.7696499 7.94203-31.6320909 14.194855-1.8208537 1.154581-3.7514765.953277-4.9403375-.459863-1.2348109-1.467842-1.2329875-3.23837.1932811-4.787536 10.3037053-11.186963 16.2983364-24.621458 20.2733626-39.067943 3.8834911-14.114624 5.301372-28.5377696 4.4316071-43.1293976-.6535089-10.9674253-3.2839551-21.5792863-6.7258172-31.9967722-4.4523939-13.4767973-10.230769-26.3591641-17.1972758-38.71675445-1.1381703-2.01924034-1.1170188-3.59247544.0335507-4.88490596C37.405978-.210606198 38.9398275-.352831904 41.2179916.675204669zM107.488059 25.8666592c1.993348.581302 4.678132 1.1549457 7.20355 2.1377618 10.083437 3.9247001 18.770511 10.1516332 27.046223 16.9543981 13.449811 11.0560428 25.765463 23.2849007 36.778838 36.771909 7.665236 9.3872613 13.953801 19.7128479 19.686591 30.3717519 6.500609 12.086716 12.098443 24.58163 16.850344 37.45377l.330156.898668c.125086.342071.254183.682684.370152 1.028037.500342 1.488264.437982 2.927661-.727904 4.065102-1.19071 1.161129-2.617562 1.237672-4.124664.648295l-.105275-.042194c-2.16028-.887726-4.34932-1.707324-6.505552-2.60367l-.921912-.38927c-6.065744-2.603824-12.299606-3.124589-18.71982-1.665864-.591878.134567-1.192143.236313-1.792044.328578-2.381733.366869-3.868904-.563797-4.51913-2.870771-6.253191-22.185022-15.069361-43.310645-26.230432-63.4662155l-.558583-1.0034532c-7.19526-12.8579551-15.433615-24.9486065-26.139735-35.2214339-6.32102-6.065744-12.972807-11.7212216-20.319677-16.5244389-1.702332-1.1130073-2.34016-2.6574326-1.779644-4.3433542.551762-1.6585706 1.839087-2.3095267 4.178518-2.5276061zM47.6451347 11.7888671c.0207868.5612446.1710355.9995915.3748924 1.410952 4.6719321 9.4226353 8.7344817 19.1009122 12.0341181 29.0877095 3.1300595 9.47442 5.5307565 19.1308161 6.6802319 29.0599937 1.2869603 11.1147565.7574431 22.1999739-.7672894 33.2549227-2.0075706 14.557713-6.0449572 28.481609-13.0089112 41.486509l-.8099017 1.515394c-.4056102.760159-.8132947 1.525464-1.2279374 2.302454.2571003.06929.3872916.152802.4711683.119616.733374-.289922 1.4631013-.58969 2.1851703-.906598 14.7801682-6.48768 30.1813887-10.405816 46.3568275-10.808424 18.4706895-.459765 36.3603395 2.86955 53.8308095 8.669395l1.192389.396287c.864371.283506 1.786343.575835 2.980456.962689-7.07737-30.978218-21.748134-57.604693-41.522613-81.5569605-19.0626203-23.0897962-42.2483278-41.1316739-68.7694103-54.9939394zm87.7636533 37.5588914.233991.2647535.46495.5185293c.179641.2022056.343156.3924564.49612.5908363 1.084015 1.4047523 2.192373 2.7936638 3.305534 4.1794699l1.818524 2.2618338c2.73231 3.4042 5.429461 6.8314699 7.80207 10.4704267 15.004955 23.013782 26.038569 47.898322 34.082424 74.123199l.242839.795103c.417552 1.373536.991649 1.758988 2.330126 1.55692l.092452-.014683c6.017068-1.002008 11.897748-.481545 17.600466 1.714868l.294809.115103c.544834.215891 1.12723.336236 2.183347.644392-7.725408-19.274501-16.855569-37.216091-28.408308-53.9411047-9.990444-14.4628955-36.741276-40.1397409-42.539344-43.2796468z" fill="#1a222d"/></svg>