<svg width="256px" height="182px" viewBox="0 0 256 182" xmlns="http://www.w3.org/2000/svg" preserveAspectRatio="xMidYMid"><title>Million</title><defs><radialGradient cx="49.9999398%" cy="49.9986554%" fx="49.9999398%" fy="49.9986554%" r="32.3059134%" gradientTransform="matrix(0 0 0 448 0 5)rotate(92 849)translate(0 5)" id="a"><stop stop-color="#845ce7" offset="0%"/><stop stop-color="#af73d8" offset="100%"/></radialGradient><radialGradient cx="50.0606294%" cy="104.166644%" fx="50.0606294%" fy="104.166644%" r="67.3009497%" gradientTransform="matrix(0 0 0 4435 0 5006)rotate(92 7908)translate(0 5006)" id="b"><stop stop-color="#845ce7" offset="0%"/><stop stop-color="#af73d8" offset="100%"/></radialGradient><radialGradient cx="99.1220389%" cy="34.2223886%" fx="99.1220389%" fy="34.2223886%" r="42.5206194%" gradientTransform="matrix(0 0 0 6888 0 9912)rotate(92 7908)translate(0 9912)" id="c"><stop stop-color="#845ce7" offset="0%"/><stop stop-color="#af73d8" offset="100%"/></radialGradient><radialGradient cx="0.877957622%" cy="34.2104631%" fx="0.877957622%" fy="34.2104631%" r="42.5058021%" gradientTransform="matrix(0 0 0 689 0 88)rotate(92 7908)translate(0 88)" id="d"><stop stop-color="#845ce7" offset="0%"/><stop stop-color="#af73d8" offset="100%"/></radialGradient></defs><path d="M64.9945243 153.35526c11.777596-16.858433 35.7451687-28.399292 63.3965247-28.399292 27.650897 0 51.619386 11.540859 63.396676 28.399292-11.77729 16.857211-35.745779 28.397765-63.396676 28.397765-27.651356 0-51.6189287-11.540554-63.3965247-28.397765z" fill="url(#a)"/><path d="M64.5667174 28.0970321C76.3368294 11.4182901 100.288976 0 127.922767 0c27.633486 0 51.586702 11.4182901 63.356355 28.0970321-11.769653 16.6788183-35.722869 28.0970321-63.356355 28.0970321-27.633791 0-51.5859376-11.4182138-63.3560496-28.0970321z" fill="url(#b)"/><path d="M129.133487 91.2087081C112.00945 107.748233 88.7840097 117.040089 64.5667174 117.040089c-24.2171396 0-47.4425797-9.291856-64.5667174-25.8313809l64.5667174-63.111676 64.5667696 63.111676z" fill="url(#c)"/><path d="M256 91.239713c-17.124495 16.539525-40.350699 25.831381-64.566617 25.831381-24.217445 0-47.44319-9.291856-64.56738-25.831381l64.56738-63.1426809L256 91.239713z" fill="url(#d)"/></svg>