<svg width="256px" height="175" viewBox="0 0 256 175" xmlns="http://www.w3.org/2000/svg" preserveAspectRatio="xMidYMid"><title>Milvus</title><path d="M57.9431044 25.5517397c33.945797-34.06898627 88.9912336-34.06898627 122.9370306 0 34.000673 34.068935 34.000673 89.3051563 0 123.3186503-33.945797 34.012982-88.9912336 34.012982-122.9370306-.055902L2.45984326 93.1310522c-3.279791012-3.2951359-3.279791012-8.6006892 0-11.8963379L57.9431044 25.5517397zM167.706259 41.9160253c-24.9261-25.0211844-65.377034-25.0211844-90.3031337 0l-40.778806 40.8829169c-2.4052184 2.45712-2.4052184 6.366664 0 8.7683949l40.8331693 40.9386649c24.9266124 25.020979 65.3770334 25.020979 90.3036464 0 24.926612-25.020979 24.926612-65.5688436-.054876-90.5899767zm-44.825644 1.619617c23.638818 0 42.801379 19.5791586 42.801379 43.7313502 0 24.1516785-19.162561 43.7311965-42.801379 43.7311965-23.6383039 0-42.800865-19.579518-42.800865-43.7311965 0-24.1521916 19.1625611-43.7313502 42.800865-43.7313502zm130.70073 37.7544611-24.434266-24.9650774c-1.476016-1.5083259-3.936213-.1118038-3.443866 1.9545156 4.209056 19.0451158 4.209056 38.9282475 0 57.9733634-.437471 2.066319 2.022214 3.406427 3.443866 1.954515l24.434266-24.9650769c3.035175-3.1539178 3.213715-8.0396256.535619-11.3506777l-.535619-.601562z" fill="#4fc4f9"/></svg>