<svg width="256px" height="146px" viewBox="0 0 256 146" xmlns="http://www.w3.org/2000/svg" preserveAspectRatio="xMidYMid"><title>mindsdb</title><path d="M181.84673 73.4947028l5.025735 40.1264762h0l2.350066 18.568817c.392867 3.081587.786894 6.159109 1.18293 9.23638.342871 2.651818-.203985 3.589285-3.124891 3.73685l-4.864047.224877h0l-1.671717.05408h0l-1.529885.02468c-.243705 0-.481909 0-.714814-.001884l-1.335491-.03297c-.21253-.009149-.42017-.020212-.623124-.033323l-1.163121-.104298c-4.070552-.480303-6.070444-2.080043-8.171128-6.21137l-.577044-1.190553h0l-.59183-1.322453h0l-.936884-2.244914h0l-1.392292-3.51428h0l-4.342152-11.150181c-1.329164-3.387469-2.680029-6.766258-4.09057-10.121177-1.280051-2.271284-.822944-5.125504 1.102392-6.883442 2.779128-3.0872768 5.529322-6.2001126 8.296395-9.3639047l5.570223-6.4030512h0l8.617885-9.9581275c.98353-1.1347319 1.977419-2.279829 2.983364-3.4362318zM47.1465379.13353021C88.6468356 4.5749272 130.167387 8.87744011 171.708193 13.0410689c2.596499.3116186 5.075814 1.2598114 7.217632 2.760321l37.064145 24.0936745c12.361225 8.0200128 24.737098 16.0156124 37.152032 23.9471952 3.521146 2.251224 3.799044 3.5819613.751831 5.5401964l-.508784.3146354c-.771859.4141816-1.461663.9657307-2.035519 1.6275477-6.933218 8.9555816-15.006906 8.840352-24.718238 5.1153307l-.944935-.3715715c-6.806767-2.7415138-13.819823-4.9713212-20.867261-7.1314722l-8.462427-2.5870374c-2.818975-.8700616-5.632449-1.7572693-8.42942-2.6899145-2.433613-.9904383-5.200834-.7023218-7.378217.7682026-7.704208 4.7857137-15.432207 9.5315626-23.183996 14.2375466l-11.645526 7.0290774c-2.13216 1.143651-3.561665 3.2667898-3.819312 5.6725464l-1.572654 9.2388468-3.227804 18.464568c-.709513 4.104349-1.404952 8.210796-2.06854 12.322058l-.969272 6.170843c-.641425 4.193933-2.089176 5.672847-5.981737 5.554895l-.671678-.034253c-5.587854-.330329-11.19008-.339024-16.778932-.026041-3.108617.138342-4.046745-.882945-4.076769-3.607434l.005729-.567769c.108503-3.647877.125864-7.297924.116099-10.948513l-.046657-10.951769h0l.481754.00868-.035263-10.945801c-.003526-1.824481-.001763-3.648962.011461-5.473308l.080224-5.4724933c.065102-2.864484-.733481-3.8323324-3.775911-3.9321553-20.7689558-.6886336-41.5350185-1.521938-62.2981877-2.4999134-3.2594357-.1519044-4.5484535.7725427-5.2385337 3.9972573-2.4022605 11.1975287-5.0486532 22.3437897-7.5473459 33.5175147l-2.434947 11.185797c-.8198019 3.963742-2.3015937 5.573742-6.1637965 5.330901l-.7066251-.061986c-4.8703965-.500692-9.77313085-.609545-14.66095022-.32551-3.684768125.186626-4.383528628-1.345439-4.34368056898-4.561474L.335626355 115.333691c.217233289-14.944183.377335765-29.8877242.232664853-44.8293359C.528100802 63.6079464 2.83115102 56.9023212 7.10018287 51.485917 18.5798197 35.5229286 29.6688451 19.2691517 40.7882514 3.05443592 42.020494.773249858 44.6130984-.417755464 47.1465379.13353021zM78.3954548 93.2813434l4.2379889 21.6710276c1.0272056 5.303927 2.0204748 10.551938 2.9579423 15.810312.0752289.421957.179767.856613.3025884 1.299455l.4122883 1.348571h0l.6794041 2.05572c.7992919 2.505621 1.3178165 4.917593-.2788681 6.485102-1.0559274 1.037546-2.7183314.895779-4.5814995.469798l-2.8946115-.740244c-1.2265652-.304012-2.4523132-.544221-3.5781933-.502096-10.1689184.386271-14.9039974-4.392209-16.5575859-14.426583l-.2578779-1.63579h0l-.2040811-1.549724c-.4786479-4.280027-.0115282-7.664805 3.9340609-11.353913 5.663331-5.97647 10.9496731-12.2992077 15.8284444-18.9316356z" fill="#00b06d"/></svg>