<svg width="512px" height="111px" viewBox="0 0 512 111" xmlns="http://www.w3.org/2000/svg" preserveAspectRatio="xMidYMid"><title>Mint</title><defs><linearGradient x1="-63.2980307%" y1="87.2602815%" x2="55.7311409%" y2="-28.5693766%" id="a"><stop stop-color="#3ac155"/><stop stop-color="#0cb3ff" offset="1"/></linearGradient><linearGradient x1="-1.28121113e-05%" y1="50.0000955%" x2="100%" y2="50.0000955%" id="b"><stop stop-color="#3ac155"/><stop stop-color="#0cb3ff" offset="1"/></linearGradient></defs><path d="M164.138112 27.6623502c-16.123968 3.85814-29.382195 4.0496789-40.855841 2.4012434-7.339876 8.969625-11.830027 17.9819625-15.570041 26.8448062 15.610084-4.3726922 30.962559-10.1662424 43.638828-17.7410373-13.688022 10.0961672-29.515005 17.1684229-45.46412 22.2084979-5.832258 14.6557265-10.3524417 29.0738648-23.2055673 40.2331726l-1.5029461 1.303399c18.7187531-6.5203302 51.3717924-24.3034127 82.9596874-75.2500818h0z" fill="url(#a)"/><path d="M20.3898611 22.4020389c-33.338441 24.3134232-18.15681676 63.5588695-7.7069367 54.3863601 17.079661-14.7758554 42.7325215-50.7931711 91.8665786-63.7117002C59.94831 25.2103857 28.4865494 67.7940809 20.2263523 78.5022381c-8.260197 10.7074898 1.3067356 28.2876879 20.8870799 31.0252919 19.5803444 2.738272 30.5714719-4.555555 38.5059862-11.4436128l.0026695.0013348C105.301644 75.789327 95.2588672 37.7298199 144.822052 4.85187305 62.8427492-11.3621924 26.5885127 17.8818551 20.3898611 22.4027063v-6.674e-4z" fill="url(#b)"/><path d="M211.791915 108.669276c-2.221495 0-4.153346-.820881-5.795553-2.462643-1.641761-1.642651-2.462642-3.574724-2.462642-5.796219V11.1566385c0-2.22149495.820881-4.15334573 2.462642-5.79555237 1.641762-1.64176172 3.573613-2.46330996 5.795553-2.46330996h3.622554c2.511139 0 4.829182.67672617 6.954129 2.02884375 2.125391 1.3525625 3.67105 3.13936875 4.636975 5.36041878l25.356543 54.7694379c0 .096548.048274.144822.144822.144822.096548 0 .144822-.048274.144822-.144822l25.355875-54.7694379c.965926-2.22149495 2.511584-4.0083012 4.636976-5.36041878 2.124947-1.3525625 4.44299-2.02884375 6.954129-2.02884375h4.20251c2.221495 0 4.153345.82088086 5.795552 2.46264258 1.641762 1.64265156 2.462643 3.5747248 2.462643 5.79621975v89.2537755c0 2.221495-.820881 4.153345-2.462643 5.795552-1.641762 1.642207-3.573613 2.46331-5.795552 2.46331h-3.188088c-2.221495 0-4.153346-.820881-5.795552-2.462643-1.641762-1.642651-2.462643-3.574724-2.462643-5.796219V37.3827809c0-.096993-.048496-.1454895-.145489-.1454895-.096549 0-.144823.048274-.144823.1448221l-17.386657 37.2372914c-1.062918 2.2219398-2.705125 4.0572426-4.926619 5.5059082-2.124947 1.3525625-4.394939 2.0288437-6.809975 2.0288437h-.8696c-2.414591 0-4.732633-.6762812-6.954128-2.0288437-2.125392-1.4486656-3.719325-3.2839684-4.781798-5.5059082l-17.387325-37.2372914c0-.0965481-.048274-.1448221-.144822-.1448221-.096548 0-.144822.048274-.144822.1448221v63.0283005c0 2.221495-.820881 4.153345-2.462642 5.795552-1.642652 1.642207-3.574725 2.46331-5.79622 2.46331h-2.608132zm124.302051 0c-2.22194 0-4.154013-.820881-5.79622-2.462643-1.641762-1.642651-2.462642-3.574724-2.462642-5.796219V41.5839557c0-2.221495.82088-4.1533457 2.462642-5.7955524 1.642207-1.6417617 3.57428-2.4626426 5.79622-2.4626426h3.766708c2.22194 0 4.154013.8208809 5.79622 2.4626426 1.641762 1.6417617 2.462643 3.5736125 2.462643 5.7955524v58.8264583c0 2.221495-.820881 4.153345-2.462643 5.795552-1.642207 1.642207-3.57428 2.46331-5.79622 2.46331h-3.766708zm0-91.2819516c-2.22194 0-4.154013-.8211033-5.79622-2.4633099-1.641762-1.6417618-2.462642-3.5736125-2.462642-5.79555239V8.2588623c0-2.22149492.82088-4.1533457 2.462642-5.79555234C331.939953.82110332 333.872026 0 336.093966 0h3.766708c2.22194 0 4.154013.820880859 5.79622 2.46264258 1.641762 1.64265156 2.462643 3.5747248 2.462643 5.79621972v.86959981c0 2.22149489-.820881 4.15334569-2.462643 5.79555239-1.642207 1.6417617-3.57428 2.4626425-5.79622 2.4626425l-3.766708 6.674e-4zm44.610537 91.2819516c-2.221495 0-4.153346-.820881-5.795553-2.462643-1.641762-1.642651-2.462642-3.574724-2.462642-5.796219V41.5839557c0-2.221495.82088-4.1533457 2.462642-5.7955524 1.642207-1.6417617 3.574058-2.4626426 5.795553-2.4626426h1.884021c2.318043 0 4.249894.8208809 5.795553 2.4626426 1.641761 1.5456586 2.511139 3.4775094 2.608132 5.7955524v1.0144218c0 .0965481.048274.1448221.144822.1448221.096548 0 .193096-.048274.289644-.1448221 6.568381-7.1481148 14.247733-10.7221722 23.038054-10.7221722 8.789877 0 15.165163 2.511584 19.125857 7.5347519 4.056798 4.926175 6.085197 13.1850373 6.085197 24.7765869v36.2228699c0 2.221495-.820881 4.153345-2.462643 5.795552-1.642207 1.642207-3.57428 2.46331-5.79622 2.46331h-2.462642c-2.22194 0-4.154013-.820881-5.79622-2.462643-1.545214-1.642651-2.317821-3.574724-2.317821-5.796219V65.6364322c0-7.2446629-.966147-12.1710603-2.898443-14.7791924-1.835303-2.70468-5.167768-4.0570201-9.997395-4.0570201-3.960249 0-7.630855 1.6904807-11.011816 5.071442-3.380961 3.3805164-5.071442 7.0028479-5.071442 10.8669944v37.6717579c0 2.221495-.820881 4.153345-2.462643 5.795552-1.642206 1.642207-3.574279 2.46331-5.796219 2.46331h-2.897776zm78.839933-58.3913244c-1.93185 0-3.574057-.6762813-4.92662-2.0288438-1.352562-1.4491105-2.028843-3.1395912-2.028843-5.071442 0-1.9318508.676281-3.5738349 2.028843-4.9259525 1.352563-1.3525625 2.99477-2.0288438 4.92662-2.0288438h6.954129c.869822 0 1.304734-.4346886 1.304734-1.304066V16.9528582c0-2.2219398.772606-4.1540131 2.31782-5.7962197 1.642207-1.64176174 3.57428-2.4626426 5.79622-2.4626426h2.897776c2.221495 0 4.153346.82088086 5.795552 2.4626426 1.641762 1.6417617 2.462643 3.5736125 2.462643 5.7955523v17.9666127c0 .8693774.434911 1.304066 1.304733 1.304066h16.517725c1.931851 0 3.573835.6762813 4.925953 2.0288438 1.44911 1.3525625 2.173665 2.9945467 2.173665 4.9259525 0 1.9318508-.724555 3.6225539-2.173665 5.0721094-1.352563 1.3521176-2.994547 2.0281764-4.925953 2.0281764h-16.517725c-.869377 0-1.304066.3861921-1.304066 1.1585765v29.2687406c0 6.2782926.676282 10.3350903 2.028844 12.170393 1.352118 1.8353028 4.153123 2.7529541 8.403017 2.7529541 2.318043 0 4.056798-.096548 5.216264-.2896441 1.931851-.1930961 3.622332.2415926 5.071442 1.304066 1.448666 1.0624734 2.172999 2.5113615 2.172999 4.3466643 0 2.125392-.724333 4.057465-2.172999 5.79622-1.352562 1.641761-3.043043 2.559413-5.071442 2.752954-4.249894.386192-7.437536.579288-9.562928.579288-9.36961 0-15.937992-1.980125-19.705145-5.940374-3.767154-4.057243-5.65073-11.2536318-5.65073-21.589167V51.4365281c0-.7723844-.434689-1.1585765-1.304066-1.1585765h-6.954797z" fill="#444"/></svg>