<svg width="512px" height="229px" viewBox="0 0 512 229" xmlns="http://www.w3.org/2000/svg" preserveAspectRatio="xMidYMid"><path fill="#963398" d="M156.60973 17.2511712V228.28973l-40.302703-40.291171H0V17.2511712h156.171532"/><path fill="#1ebdbf" d="M174.725766 0v211.038559l-40.302703-40.302703H18.116036V0z"/><path fill="#492670" d="M18.116036 17.2511712V170.83964h116.341622l22.117477 22.152072V17.6663063z"/><path d="M42.9203604 83.7996396c5.0392792 0 9.1329729 4.381982 9.1329729 9.8018018 0 5.4198199-4.0821621 9.8133336-9.1329729 9.8133336-5.0508109 0-9.1214415-4.3935137-9.1214415-9.8133336 0-5.4198198 4.0821622-9.8018018 9.1214415-9.8018018zm43.347027 0c2.5985749.0182761 5.0832757 1.0689117 6.9066778 2.9204327 1.8234021 1.851521 2.8358933 4.3520081 2.8144033 6.9505583-.0824899 5.3485136-4.4706129 9.6254434-9.8194821 9.5706614-5.3488691-.054783-9.6484731-4.4206914-9.6216528-9.7697725.0273268-5.349081 4.3709042-9.6712438 9.7200538-9.6718799zm44.0043246 0c2.596569.0213205 5.07831 1.0732961 6.899222 2.9244853 1.820913 1.8511892 2.831824 4.3499383 2.810327 6.9465057-.08881 5.3405188-4.474459 9.6064784-9.81539 9.5475164-5.340932-.058962-9.631335-4.4207013-9.602516-9.7618791.029406-5.3411778 4.3671-9.6558899 9.708357-9.6566283z" fill="#fff"/><path d="M489.271351 90.314955c6.763849 3.5781965 12.382897 8.9894283 16.213334 15.613694 7.749191 14.079738 7.749191 31.146928 0 45.226666-3.833897 6.621557-9.452062 12.031938-16.213334 15.613694-7.30623 3.844738-15.46569 5.780478-23.72036 5.627387-8.200942.166254-16.307752-1.771123-23.547387-5.627387-6.677035-3.607363-12.206841-9.017304-15.95964-15.613694-7.652976-14.11162-7.622579-31.142454.080721-45.226666h-.011532c3.821996-6.606712 9.413476-12.0144727 16.144144-15.613694 14.76936-7.5194212 32.244695-7.5194212 47.014054 0zM346.222703 50.7156757c.653146 1.4459462.945954 3.0286995.853333 4.6126126V166.261622c.238628 1.142468-.114892 2.32824-.940173 3.153521-.82528.82528-2.011053 1.1788-3.153521.940172h-15.486847c-1.160796.105538-2.318508-.2323-3.24036-.945585-.767637-.859475-1.139895-2.001347-1.026306-3.148108v-64.345946L294.4 136.221982c-1.102461 1.336617-2.33041 2.564566-3.667027 3.667027-.759931.589757-1.690465.917467-2.652252.934054-.92793-.046424-1.820212-.371985-2.56-.934054-1.350877-1.060001-2.556631-2.292895-3.586307-3.667027l-28.828828-34.306306v64.345946c.119427 1.147387-.253583 2.291567-1.026307 3.148108-.921851.713285-2.079564 1.051123-3.24036.945585H233.25982c-1.142468.238628-2.328241-.114892-3.153521-.940172-.825281-.825281-1.178801-2.011053-.940173-3.153521V55.3513514c0-4.1282883 1.256937-6.1693694 3.770811-6.1693694 1.119683.0454272 2.195079.4497115 3.067387 1.1531531 1.463362 1.1790717 2.783156 2.5259584 3.932253 4.012973l48.432432 54.9477479 47.95964-54.9477479c1.280787-1.4205247 2.647946-2.7607252 4.093693-4.012973.731684-.6548466 1.654317-1.0527079 2.627772-1.1377559l.266643-.0153972c1.185071-.1002805 2.320032.4987267 2.905946 1.5336937zm33.476036 35.9899099h14.841081c1.177165-.1087659 2.352709.2241678 3.298018.934054.761587.8670297 1.129089 2.0112983 1.014775 3.1596397v75.4392797c.116711 1.145089-.251294 2.286744-1.014775 3.148108-.929015.707913-2.088133 1.044962-3.251892.945585h-14.887207c-1.142468.238628-2.328241-.114892-3.153521-.940172-.825281-.825281-1.178801-2.011053-.940173-3.153521V90.8223423c-.115218-1.1420781.219918-2.2840222.934054-3.1827027.891027-.7116312 2.024902-1.0468282 3.15964-.934054zm74.839639 21.8637834c-3.258804 1.828705-5.924318 4.554254-7.68 7.852973-3.759017 7.634446-3.759017 16.581771 0 24.216217 1.752688 3.297954 4.419215 6.020535 7.68 7.841441 3.206071 1.765406 6.798402 2.70398 10.452538 2.735395l.548543-.002422c3.897626.056485 7.745979-.875848 11.185586-2.70991 3.355814-1.822135 6.111558-4.57788 7.933694-7.933694 3.858479-7.558138 3.858479-16.508168 0-24.066306-1.8285-3.351057-4.582637-6.105194-7.933694-7.933694-3.268171-1.743279-6.903167-2.678655-10.601205-2.731906l-.584381-.001067c-3.841871-.057476-7.632754.884284-11.001081 2.732973zm-60.079279-62.293333c2.052418 1.2031323 3.735565 2.9461071 4.866306 5.0392793 2.27998 4.3308684 2.27998 9.5069695 0 13.8378379-1.121171 2.0763646-2.808666 3.7918511-4.866306 4.947027-2.081702 1.1421344-4.409562 1.755095-6.77896 1.7884577l-.474373-.0010703c-2.475923.0345356-4.917493-.5818216-7.080361-1.7873874-2.062347-1.149007-3.75138-2.8660575-4.866306-4.947027-2.27998-4.3308684-2.27998-9.5069695 0-13.8378379 1.123921-2.0981528 2.808673-3.8427893 4.866306-5.0392793 2.010354-1.1821082 4.288055-1.8273008 6.614489-1.8775414l.465872-.0020982c2.543723-.044737 5.051482.6051271 7.253333 1.8796396z" fill="#3e1b67"/></svg>