<svg width="256px" height="256px" viewBox="0 0 256 256" xmlns="http://www.w3.org/2000/svg" preserveAspectRatio="xMidYMid"><title>Miro</title><path d="M0 64C0 28.65376 28.65376 0 64 0h128c35.3464 0 64 28.65376 64 64v128c0 35.3464-28.6536 64-64 64H64c-35.34624 0-64-28.6536-64-64V64z" fill="#fd3"/><path d="M170.1952 48.8H146.956l19.3656 34.0256L123.7168 48.8h-23.2384l21.3024 41.588L77.23904 48.8H54l23.23904 52.9368L54 207.6h23.23904L121.7808 94.1744 100.4784 207.6h23.2384l42.6048-120.988L146.956 207.6h23.2392L212.8 75.26344z"/></svg>