<svg width="256px" height="233px" viewBox="0 0 256 233" xmlns="http://www.w3.org/2000/svg" preserveAspectRatio="xMidYMid"><title>Mistral AI</title><path d="M186.181818 0h46.5454545v46.5454545H186.181818z"/><path fill="#f7d046" d="M209.454545 0h46.5454545v46.5454545H209.454545z"/><path d="M0 0h46.5454545v46.5454545H0z"/><path d="M0 46.5454545h46.5454545V93.090909H0z"/><path d="M0 93.0909091h46.5454545v46.5454545H0z"/><path d="M0 139.636364h46.5454545v46.5454545H0z"/><path d="M0 186.181818h46.5454545v46.5454545H0z"/><path fill="#f7d046" d="M23.2727273 0h46.54545449999999v46.5454545H23.2727273z"/><g style="fill:#f2a73b"><path d="M209.454545 46.5454545h46.5454545V93.090909H209.454545z"/><path d="M23.2727273 46.5454545h46.54545449999999V93.090909H23.2727273z"/></g><path d="M139.636364 46.5454545h46.5454545V93.090909H139.636364z"/><g style="fill:#f2a73b"><path d="M162.909091 46.5454545h46.5454545V93.090909H162.909091z"/><path d="M69.8181818 46.5454545h46.5454545V93.090909H69.8181818z"/></g><g style="fill:#ee792f"><path d="M116.363636 93.0909091h46.5454545v46.5454545H116.363636z"/><path d="M162.909091 93.0909091h46.5454545v46.5454545H162.909091z"/><path d="M69.8181818 93.0909091h46.5454545v46.5454545H69.8181818z"/></g><path d="M93.0909091 139.636364h46.5454545v46.5454545H93.0909091z"/><path fill="#eb5829" d="M116.363636 139.636364h46.5454545v46.5454545H116.363636z"/><g style="fill:#ee792f"><path d="M209.454545 93.0909091h46.5454545v46.5454545H209.454545z"/><path d="M23.2727273 93.0909091h46.54545449999999v46.5454545H23.2727273z"/></g><path d="M186.181818 139.636364h46.5454545v46.5454545H186.181818z"/><path fill="#eb5829" d="M209.454545 139.636364h46.5454545v46.5454545H209.454545z"/><path d="M186.181818 186.181818h46.5454545v46.5454545H186.181818z"/><path fill="#eb5829" d="M23.2727273 139.636364h46.54545449999999v46.5454545H23.2727273z"/><g style="fill:#ea3326"><path d="M209.454545 186.181818h46.5454545v46.5454545H209.454545z"/><path d="M23.2727273 186.181818h46.54545449999999v46.5454545H23.2727273z"/></g></svg>