<svg width="256px" height="256px" viewBox="0 0 256 256" xmlns="http://www.w3.org/2000/svg" preserveAspectRatio="xMidYMid"><defs><linearGradient x1="253.534265%" y1="253.574524%" x2="-6.88643761%" y2="-0.903816157%" id="a"><stop stop-color="#fff" offset="0%"/><stop stop-color="#c2c1c1" offset="100%"/></linearGradient><linearGradient x1="209.797498%" y1="223.26287%" x2="-1.08323776%" y2="-3.11269467%" id="b"><stop stop-color="#fff" offset="0%"/><stop stop-color="#a2a2a1" offset="100%"/></linearGradient><linearGradient x1="271.963921%" y1="334.363466%" x2="7.71592988%" y2="-9.06302352%" id="c"><stop stop-color="#fff" offset="0%"/><stop stop-color="#b3b3b3" offset="100%"/></linearGradient></defs><circle fill="#e9e9e9" cx="128" cy="128" r="128"/><path d="M166.056376 207.91795c-74.0510069-6.013423-37.626846-10.136913-144.3221478-32.128859 29.3798658 22.679194 77.1436241 78.861745 144.3221478 32.128859h0z" fill="url(#a)"/><path d="M242.34094 118.060232C172.069799 104.143453 103.173154 56.2078827 30.8402685 71.67097c-1.0308725.3436241-2.2335571.5154362-1.7181208 1.0308725C75.3395973 80.7770103 172.241611 150.017279 242.34094 118.060232z" fill="url(#b)"/><path d="M223.097987 183.692446c-36.939598-7.903355-117.863088-69.583892-208.7516783-44.842953C93.895302 157.061574 165.54094 201.389091 223.097987 183.692446z" fill="url(#c)"/><path d="M235.296644 81.8078827C194.233557 51.5689566 142.689933-3.06728505 95.6134228 47.2736545c57.3852352 7.0442954 64.9449662 16.4939598 139.6832212 34.5342282z" fill="#a4a4a4"/><path d="M20.8751678 175.445467c85.0469802.171812 133.6697982-64.773155 221.4657722-57.385235-70.099329 35.908725-155.8335574 103.774496-221.4657722 57.385235z" fill="#121212"/><path d="M235.124832 81.8078827c-85.734228-6.8724832-130.405369 62.3677853-221.4657716 57.3852353 34.5342282-15.6349 136.4187916-107.5543628 221.4657716-57.3852353z" fill="#171717"/><path d="M172.241611 36.6213056c-49.138255-1.7181208-99.1355707 41.9221476-143.4630875 36.2523489 31.957047-19.4147651 91.2322145-68.381208 143.4630875-36.2523489z" fill="#212121"/><path d="M84.1020134 219.944795c51.0281876-.171812 93.8093956-45.014765 140.0268456-36.252349-37.798658 21.648323-83.844295 66.319464-140.0268456 36.252349z" fill="#010101"/></svg>