<svg width="256px" height="246px" viewBox="0 0 256 246" xmlns="http://www.w3.org/2000/svg" preserveAspectRatio="xMidYMid"><title>Mithril</title><path d="M213.424178 160.074863c-.114397 47.306469-38.639224 85.764004-85.97261 85.764004-47.4074074 0-85.9793392-38.571932-85.9793392-85.97934l.0269169-.437399h0C16.6682964 144.32847 0 117.095287 0 85.9793392 0 38.5652025 38.5652025 0 85.9793392 0c15.2618878 0 29.5749548 4.0442657 42.0172958 11.0493915C140.438977 4.0442657 154.758773 0 170.020661 0 217.434797 0 256 38.5719318 256 85.9793392c0 31.5668058-17.146072 59.1431798-42.575822 74.0955238zM127.996635 29.1173672c-15.557973 11.5271666-26.284362 29.2115764-28.3973395 49.4732802 8.7479955-3.0146939 18.0948925-4.7239176 27.8522725-4.7239176 10.18805 0 19.918513 1.8707252 28.982783 5.1411297-2.00531-20.4366637-12.772074-38.282575-28.437716-49.8904923zM57.3128302 150.667403c8.7681834 3.896222 18.4582709 6.116867 28.666509 6.116867 9.9256105 0 19.3734458-2.065872 27.9532108-5.773677-14.2255868-12.287569-24.4203664-29.103908-28.2291092-48.228373-15.2282417 11.183976-25.8267749 28.262755-28.3906106 47.885183zm70.1387378-61.6195361c-9.804484 0-19.151381 2.0053098-27.6503956 5.6323634 2.4292506 19.7031777 12.9806796 36.8896247 28.1954626 48.1610807 15.093658-11.183976 25.584523-28.175275 28.128171-47.6765764-8.774912-3.9096811-18.465-6.1168677-28.673238-6.1168677zm14.609153 61.9694561c8.579765 3.701075 18.0276 5.773677 27.953211 5.773677 9.804484 0 19.151381-2.00531 27.657124-5.632364-2.395605-19.413821-12.671135-36.364745-27.515811-47.656389-3.91641 18.835108-14.043897 35.375549-28.094524 47.515076zm-14.609153 79.647136c36.553163 0 66.72029-27.838814 70.428094-63.422969-8.747995 3.007965-18.094892 4.723918-27.859001 4.723918-15.261888 0-29.581684-4.044266-42.024026-11.049392-12.435612 7.005126-26.748679 11.049392-42.0172958 11.049392-10.1880504 0-19.9185133-1.870726-28.9827827-5.134401 3.519386 35.779302 33.7672634 63.833452 70.4550115 63.833452zM85.9793392 15.1676787c-39.0497069 0-70.8116605 31.7619536-70.8116605 70.8116605 0 23.0004998 11.0695791 43.4102458 28.1079831 56.3572798 5.0065452-24.097363 20.1809531-44.4600057 40.7723891-56.5793443.0740215-25.887338 11.6752096-49.0762559 29.8912281-64.8091896-8.586494-3.7145336-18.0276001-5.7804064-27.9599398-5.7804064zm84.0413218 0c-9.925611 0-19.373446 2.0658728-27.953211 5.7736771 18.269853 15.7800384 29.904687 39.0564362 29.904687 65.0312541l-.026917.4373998h0c20.234787 12.307757 35.052546 32.6502113 39.823568 56.6331783 17.583471-12.899929 29.063533-33.639408 29.063533-57.0638488-.006729-39.0429777-31.768682-70.8116605-70.81166-70.8116605z" fill="#010002"/></svg>