<svg width="512px" height="183px" viewBox="0 0 512 183" xmlns="http://www.w3.org/2000/svg" preserveAspectRatio="xMidYMid"><defs><linearGradient x1="100%" y1="50%" x2="0%" y2="50%" id="a"><stop stop-color="#f8c41b"/><stop stop-color="#f9ac18" offset="1"/></linearGradient></defs><path d="M234.055788 64.2383915c-11.003936 0-19.870476 4.4292064-27.068275 13.5314286-4.8491-8.7392169-13.417651-13.5314286-24.268529-13.5314286-11.975111 0-19.01037 6.2144339-23.7931 12.3028995V65.9193228h-20.095323v80.7185612h20.095323v-44.77291c0-11.6703497 6.460952-19.2108364 16.459851-19.2108364 9.87835 0 15.544212 6.8347936 15.544212 18.7516614v45.232085h20.095323v-44.77291c0-11.8504978 6.307894-19.2108364 16.461206-19.2108364 10.023281 0 15.544212 6.7128889 15.544212 18.9047194v45.079027h20.093968V95.9065397c0-19.8298413-10.865778-31.6681482-29.068868-31.6681482" fill="#232b32"/><path d="M402.501079 115.412656c0 8.667429-9.259344 18.586413-21.402412 18.586413-8.802879 0-15.238096-4.399408-15.238096-12.134942v-.303407c0-8.340995 6.586921-13.347217 18.426582-13.347217 7.284487 0 13.508403 1.365333 18.213926 3.185777v4.013376zm-18.287068-51.2311534c-13.129143 0-22.037672 2.6548149-31.103323 6.7155979l4.91818 14.7233863c7.502561-3.1234709 14.463322-4.9046349 23.68474-4.9046349 13.284911 0 20.474582 5.5696931 20.474582 17.2833862v.6758942c-6.408127-2.0303916-12.973375-3.2995556-22.194793-3.2995556-20.161693 0-34.207831 8.7459893-34.207831 26.5508573v.990137c0 16.554667 13.890371 25.728678 29.362794 25.728678 12.660487 0 21.257481-3.830519 26.884063-10.546117v8.55636h19.95581V98.8539259c0-12.8189629-3.649016-19.5237248-9.744254-25.4577778-5.783704-5.9354074-15.682371-9.2146455-28.029968-9.2146455zM485.55073 123.565376c-4.201651 4.468486-9.373122 6.702053-15.514413 6.702053-6.337693 0-11.595851-2.196995-15.771767-6.592339C450.088635 119.282455 448 113.524487 448 106.405249c0-6.9702437 2.088635-12.6171432 6.26455-16.9379897 4.175916-4.3208466 9.434074-6.4812699 15.771767-6.4812699 6.288932 0 11.496974 2.1983492 15.624127 6.5909841 4.127154 4.395344 6.191408 10.0286985 6.191408 16.9027725 0 6.922836-2.100826 12.618497-6.301122 17.08563zm15.366773-47.2814395c-7.322413-7.9048466-16.214688-11.8572698-26.679535-11.8572698-4.816592 0-9.33655.9088677-13.561227 2.7252486-4.226032 1.816381-8.156783 4.5416297-11.792254 8.1743916V39.8899471h-19.972064V146.616212h19.972064v-8.468318c3.930751 3.73164 7.885883 6.418963 11.865397 8.063323 3.980867 1.64436 8.278687 2.467894 12.897523 2.467894 10.367323 0 19.334096-4.01473 26.901672-12.041481 7.564868-8.028106 11.349334-18.006688 11.349334-29.937101 0-12.3733332-3.661207-22.5103914-10.98091-30.4165925zm-197.83382-38.157545h-19.958519V146.616212h58.396444v-19.663238h-38.437925V38.1263915h0z" fill="#eca52e"/><path d="M86.029545 167.321058l-4.0526561 6.77655-4.4810106-5.5e-4.0192963 3.967873c0 2.450286-1.9897566 4.441397-4.4427513 4.441397-2.4529947 0-4.4427513-1.991111-4.4427513-4.441397l-.0167937-3.967873h-15.739l.0192434 3.967873c0 2.450286-1.9897566 4.441397-4.4413968 4.441397-2.4529947 0-4.4427514-1.991111-4.4427514-4.441397l-.0170952-3.967873h-15.738l.0198995 3.967873c0 2.450286-1.9911111 4.441397-4.4441058 4.441397-2.4529948 0-4.4427514-1.991111-4.4427514-4.441397l-.0160423-3.967873-4.7775238 5.5e-4-3.7424762-6.77655H86.029545z" fill="#4273a5"/><path d="M48.469001-7.10542736e-15h.0453571C48.8682149.00733595678 49.2140302.187319873 49.3714286.598687831 49.8116402 1.7405291 50.5498413 3.10450794 51.194582 4.34793651c.3115344.60410582 1.0388995 1.37075132 2.3365079 1.66332275C75.8315344 8.37621164 93.1772275 26.0700106 93.3140317 47.6011005h.016254v78.3685075H3.55013757V47.6011005h.01760846C3.70319577 26.0645926 21.0597249 8.36673016 43.3682963 6.00855026c1.1811217-.28986243 2.0249735-1.06057142 2.3392169-1.66467724.6474498-1.25020106 1.3585609-2.63314286 1.824508-3.764148152.1450318-.351019147.5412183-.57156834254.9369799-.5797248680000071L48.469001-7.10542736e-15z" fill="url(#a)"/><path d="M45.8497354 50.4983704c-1.2854179 0-2.6805502 0-4.3316825 0-4.9669418 0-7.0528677 3.2020317-7.0528677 7.2370793 0 9.1889101 5.0238307 14.7911111 5.0238307 21.5161905 0 6.9472169-2.7347302 12.3381164-11.0418625 14.1314709 8.3071323 1.7933545 11.0418625 5.0306032 11.0418625 11.9778199 0 6.836148-5.0238307 15.129736-5.0238307 24.206222 0 4.032339 1.4493122 6.500233 5.6983704 6.500233h2.4137142v10.979556h-5.4085079c-11.5904339 0-16.901418-7.50527-16.901418-16.470688 0-12.32728 8.3071323-20.284952 8.3071323-27.008677 0-3.9212701-1.3815873-6.0654394-6.7914497-6.0654394h-4.4427514V89.357545h4.4427514c5.4098624 0 6.7914497-1.7012487 6.7914497-5.5128043 0-6.7237248-5.1457355-16.1469629-5.1457355-28.3618201 0-8.3437037 10.0991323-19.5792592 22.4209947-13.5747725v8.5902223zm29.989926 47.0037672c-5.411217 0-7.0826667 2.1441693-7.0826667 6.0654394 0 6.723725 8.3084868 14.681397 8.3084868 27.008677 0 8.965418-5.3136931 16.470688-16.9054815 16.470688h-5.4071534v-10.979556h2.4123597c4.2517672 0 5.6997249-2.467894 5.6997249-6.500233 0-9.076486-5.0224762-17.370074-5.0224762-24.206222 0-6.9472167 2.2850371-10.1844654 10.5921693-11.9778199-8.3071322-1.7933545-10.5921693-7.184254-10.5921693-14.1314709 0-6.7250794 5.0224762-12.3272804 5.0224762-21.5161905 0-4.0350476-2.0832169-7.2370793-7.0542222-7.2370793-1.8353439 0-3.3564444 0-4.7786667 0v-8.4168466c12.4938836-6.4013545 22.8706879 4.9764233 22.8706879 13.4013968 0 12.2148572-5.1457355 21.6380953-5.1457355 28.3618201 0 3.8115556 1.6714497 5.5128043 7.0826667 5.5128043h3.7018412v8.1445926h-3.7018412 0z" fill="#152331"/><path d="M92.1302011 131.127534c-.4808466 1.387006-.6745397 3.016466-.7463281 4.377736 0 .031153.0040635.060952.0040635.089397v28.128846c0 2.452995-1.9884021 4.442752-4.4427513 4.442752H9.9338836c-2.45299471 0-4.44275132-1.989757-4.44275132-4.442752v-28.128846c0-.033863.00406349-.066371.00677248-.102942-.07314286-1.349079-.26954497-2.960931-.74768254-4.338455-1.09578836-3.162751-4.750222220000007-4.440042-4.750222220000007-4.440042L.243809524 124.988952H96.6352593l.2465185 1.724276c0 0-3.6517249 1.25291-4.7515767 4.414306" fill="#5488b5"/><path d="M35.4634497 140.109206c1.8827514 0 3.4079154 1.526519 3.4079154 3.407916 0 1.882751-1.525164 3.407915-3.4079154 3.407915H5.48977778v-6.815831H35.4634497zm55.9177143-.010836v6.815831H61.4088466c-1.8827514 0-3.4079154-1.526518-3.4079154-3.407915 0-1.882752 1.525164-3.407916 3.4079154-3.407916H91.381164z" fill="#87b4d5"/></svg>