<svg width="256" height="291" xmlns="http://www.w3.org/2000/svg" preserveAspectRatio="xMidYMid"><defs><linearGradient x1="38.079%" y1="8.528%" x2="53.243%" y2="60.768%" id="a"><stop stop-color="#E67417" offset="1.093%"/><stop stop-color="#E62F17" offset="99.952%"/></linearGradient><linearGradient x1="49.997%" y1=".659%" x2="49.997%" y2="97.276%" id="b"><stop stop-color="#F2BB30" offset="0%"/><stop stop-color="#E67417" offset="30.905%"/><stop stop-color="#E62F17" offset="100%"/></linearGradient><linearGradient x1="41.259%" y1="84.788%" x2="55.319%" y2="36.662%" id="c"><stop stop-color="#FFF" offset="0%"/><stop stop-color="#FFF" stop-opacity="0" offset="100%"/></linearGradient></defs><path d="M247.128 71.953L132.111 5.55a8.236 8.236 0 00-8.222 0L8.872 71.953a8.228 8.228 0 00-4.11 7.124v132.808a8.222 8.222 0 004.11 7.12l115.017 66.405a8.236 8.236 0 008.222 0l115.017-66.404a8.222 8.222 0 004.11-7.12V79.075a8.228 8.228 0 00-4.11-7.123z" fill="#FFF"/><path d="M248.5 67.245L135.505 2.008a15.03 15.03 0 00-15.009 0L7.505 67.24A15.07 15.07 0 000 80.246v130.467a15.056 15.056 0 007.506 13l112.989 65.235a15.008 15.008 0 0015.009 0l112.991-65.234a15.057 15.057 0 007.505-13V80.245a15.066 15.066 0 00-7.5-13.001zm.566 143.468a8.078 8.078 0 01-4.038 6.995l-112.99 65.234a8.091 8.091 0 01-8.077 0l-112.99-65.234a8.077 8.077 0 01-4.037-6.995V80.246a8.083 8.083 0 014.038-6.998l112.99-65.234a8.091 8.091 0 018.077 0l112.99 65.234a8.083 8.083 0 014.037 6.998v130.467z" fill="#999"/><path d="M4.602 126.725a9.156 9.156 0 01-4.578-7.93V52.734a65.381 65.381 0 013.298-22.361C7.165 20 14.765 9.853 29.83 3.869c28.865-11.466 57.394 4.037 73.51 27.018 13.534 19.298 21.432 26.97 38.45 39.998 15.068 11.535 62.325 32.282 69.472-9.042v56.953a9.156 9.156 0 01-4.578 7.93l-96.462 55.692a9.156 9.156 0 01-9.156 0L4.602 126.725z" fill="url(#a)" transform="translate(22.228 81.62)"/><path d="M4.602 126.725l96.463 55.693a9.156 9.156 0 009.156 0l96.462-55.693a9.156 9.156 0 004.578-7.93V61.844c0-42.185-47.054-45.668-71.304-12.14-19.221 26.573-27.735 36.088-53.465 45.444-30.112 10.95-57.14 5.012-72.51-10.024A45.787 45.787 0 01.024 52.733v66.063a9.156 9.156 0 004.578 7.93z" fill="url(#b)" transform="translate(22.228 81.62)"/><path d="M211.261 61.843c0-42.185-47.054-45.668-71.304-12.14-3.337 4.613-6.347 8.702-9.185 12.376 3.275 2.781 6.874 5.634 11.016 8.806 15.069 11.535 62.326 32.282 69.473-9.042z" fill="url(#c)" opacity=".3" transform="translate(22.228 81.62)"/></svg>