<svg width="256px" height="256px" viewBox="0 0 256 256" xmlns="http://www.w3.org/2000/svg" preserveAspectRatio="xMidYMid"><g fill-rule="evenodd"><path d="M128 256c70.692448 0 128-57.307552 128-128C256 57.307552 198.692448 0 128 0 57.307552 0 0 57.307552 0 128c0 70.692448 57.307552 128 128 128h0zm0-19.2c-60.0885808 0-108.8-48.711419-108.8-108.8C19.2 67.9114192 67.9114192 19.2 128 19.2c60.088581 0 108.8 48.7114192 108.8 108.8 0 60.088581-48.711419 108.8-108.8 108.8h0z" fill="#376660"/><path d="M128 230.4c56.553958 0 102.4-45.846042 102.4-102.4 0-56.5539584-45.846042-102.4-102.4-102.4C71.4460416 25.6 25.6 71.4460416 25.6 128c0 56.553958 45.8460416 102.4 102.4 102.4h0zM128 32c-3.534622 0-6.4 2.8796721-6.4 6.443811V121.6H76.7809926C73.2568678 121.6 70.4 124.440735 70.4 128c0 3.534622 2.9162522 6.4 6.3705446 6.4H134.4V38.4055786C134.4 34.8678752 131.559265 32 128 32h0z" fill="#529990"/></g></svg>