<svg width="256px" height="156px" viewBox="0 0 256 156" xmlns="http://www.w3.org/2000/svg" preserveAspectRatio="xMidYMid"><path d="M31.8458633 153.488694c-11.521421.024892-22.16512622-6.151429-27.86011126-16.166963-5.61289271-9.9539-5.27631043-22.192406.87518675-31.822762L62.2342919 15.4033556C68.2125882 5.54538256 79.032489-.333585033 90.5563073.0146553508 102.071737.290611552 112.546041 6.74705604 117.96667 16.9106216c5.348363 10.113269 4.679818 22.2807958-1.726063 31.7741409L58.9037201 138.780375c-5.9094179 9.208509-16.1163999 14.756779-27.0578568 14.708319h0z" fill="#f62b54"/><path d="M130.25575 153.488484c-11.571913 0-22.220019-6.187193-27.811489-16.130287-5.6004456-9.926905-5.2638135-22.134493.875186-31.737675l57.263955-89.8889714C166.47539 5.73210989 177.327374-.284878136 188.929728.0146553508 200.598885.269918151 211.174058 6.7973526 216.522421 17.0078646c5.311898 10.210512 4.533954 22.450971-2.066413 31.9200053l-57.251799 89.8889721c-5.890722 9.168626-16.050591 14.699958-26.948459 14.671642z" fill="#fc0"/><ellipse fill="#00ca72" cx="226.465527" cy="125.324379" rx="29.5375538" ry="28.9176274"/></svg>