<svg width="256px" height="256px" viewBox="0 0 256 256" xmlns="http://www.w3.org/2000/svg" preserveAspectRatio="xMidYMid"><path d="M127.9983 5e-4c-70.68 0-127.998 57.315-127.998 127.997 0 14.128 2.289 27.717 6.518 40.43h38.281V60.7335l83.199 83.2 83.199-83.2v107.694h38.282c4.231-12.713 6.521-26.302 6.521-40.43 0-70.682-57.319-127.997-128.002-127.997" fill="#f60"/><path d="M108.8673 163.0617l-36.31-36.311v67.765h-13.88-13.88-26.174c22.469 36.863 63.051 61.481 109.373 61.481 46.322 0 86.907-24.618 109.374-61.481h-26.177-24.826-2.93v-67.765l-36.311 36.311-19.13 19.128-19.127-19.128h-.002z" fill="#4c4c4c"/></svg>