<svg width="256px" height="549px" viewBox="0 0 256 549" xmlns="http://www.w3.org/2000/svg" preserveAspectRatio="xMidYMid"><title>MongoDB</title><path d="M175.621976 61.1079707C152.611447 33.8066743 132.796647 6.0788184 128.748652.319937648c-.426239-.426583531-1.065598-.426583531-1.491624 0C123.20882 6.0788184 103.394233 33.8066743 80.383491 61.1079707-117.123869 313.004377 111.490649 482.998814 111.490649 482.998814l1.917437 1.279998c1.704318 26.233565 5.965646 63.987114 5.965646 63.987114h8.522441 8.522442c0 0 4.261328-37.540216 5.965859-63.987114l1.917437-1.493331c.212907.213333 228.828278-169.781104 31.320065-421.6775103zM127.896173 479.158819c0 0-10.226759-8.744521-12.996675-13.222382v-.428799l12.35753-274.291683c0-.853332 1.278505-.853332 1.278505 0l12.357316 274.291683v.428799c-2.769703 4.477861-12.996676 13.222382-12.996676 13.222382z" fill="#01ec64"/></svg>