<svg width="256px" height="256px" viewBox="0 0 256 256" xmlns="http://www.w3.org/2000/svg" preserveAspectRatio="xMidYMid"><path d="M251.927436 159.692002c-13.893345 55.8174-64.726542 95.529132-124.596666 95.529132-60.1412099 0-110.5368243-42.062255-123.86081799-98.110007 16.02140329 0 30.99908189.073207 37.95254159.073207 3.280162 0 3.9171759.056903 4.1069659.043338 5.2320154-.25754 11.7924165-1.984383 16.1569125-12.597547l16.6313732-43.505749 36.9359568 88.930186c3.320849 7.088949 8.864675 6.586818 12.171881 6.586818h.311811c6.451936 0 9.257734-2.260897 11.711092-6.937195l41.720643-87.913003 14.23219 39.620467.867509 1.91833c3.009057 6.601011 5.173695 13.121159 12.620513 13.973194 1.535086.175627 19.361823-.135788 43.393899-.135788 0 0 0 .154145-.355804 2.524617z" fill="#3db5e6"/><path d="M256.003414 126.817301c0 .664164 0 2.334605-.013565 2.334605h-.027131-38.358597l-22.379017-62.5141784c-1.992454-4.6491667-4.988032-11.6189107-13.71713-11.6189107-5.340461 0-10.165852 4.4105818-12.903891 11.6893215L128.035544 160.67729 88.9851024 67.2781545c-3.8223724-8.2953337-6.4654337-12.1966591-14.1101785-12.1966591-5.1913867 0-9.0001841 1.9123239-13.1478557 11.7393022L38.5489365 130.080118.0406190218 130.039807C.0134882534 129.077407 0 128.115249 0 127.152849 0 56.8322013 57.0101324 0 127.330761 0c70.320628 0 128.672653 56.4966822 128.672653 126.817301z" fill="#d8292f"/></svg>