<svg width="256px" height="256px" viewBox="0 0 256 256" xmlns="http://www.w3.org/2000/svg" preserveAspectRatio="xMidYMid"><title>MSW</title><path d="M0 0h256v256H0z"/><g transform="translate(46.353451 52.86651)"><path d="M22.5157089 15.3149583c-7.3742756 5.9706781-12.1597724 14.6285812-13.17240033 24.2563134L.269754945 125.839706l-.043408891.495887-.009757789.139497c-.036151468.516821-.054210691 1.034584-.054210691 1.552345 0 5.965197 2.381127766 11.593386 6.515096886 15.72675 4.13365204 4.133052 9.76142264 6.512794 15.72535934 6.512794l86.7849842-.007349.629545-.008109c8.627894-.194109 16.903108-3.476305 23.319997-9.254098 7.194265-6.477745 11.386467-15.437976 11.883049-24.913331.496583-9.475353-2.736054-18.8247037-9.2138-26.0189697L71.8894913 19.0794742l-.4272403-.4624488C65.5452714 12.3347022 57.569214 8.38065487 48.9818068 7.47744728c-9.6277323-1.01262692-19.0918221 1.86683271-26.4660979 7.83751102zM45.63457 39.3019034l.2403848.03256c.7958791.1320965 1.5345553.4982442 2.1213065 1.0510911l.1442882.1439353.209816.2273817 63.6756085 70.7204305c.740512.822421 1.095104 1.847963 1.03829 2.932038-.056814 1.084078-.516662 2.066938-1.339084 2.807449l-.185034.156868c-.630677.503109-1.397027.807108-2.200481.873281l-.218116.011552-.206.002-75.6729995.005 7.925215-75.3469797c.1157598-1.1006062.6406875-2.0503034 1.4843789-2.7334091.8436914-.6831058 1.8818202-.9989576 2.9824266-.8831978z" fill="#7a1818"/><path d="M139.890265 0 22.0536675.00861361376l-.657951.01524904154-.1846606.008551954C16.0775486.270156355 11.1816309 2.27881492 7.35863132 5.72105919 2.92609499 9.71213283.336513683 15.246993.0305753344 21.0846494-.275362984 26.9223052 1.721482 32.6975291 5.71255508 37.1300648L111.180444 154.264022l.451552.478782.129907.131516c3.611397 3.656125 8.379963 5.950795 13.496097 6.4889 5.931844.623901 11.777945-1.154782 16.321151-4.833248 4.543205-3.678465 7.499274-9.026573 8.123175-14.958418l12.321018-117.1442828.043409-.4958916.009758-.1394999c.036151-.5168162.05421-1.0345765.05421-1.5523358 0-5.9651965-2.381127-11.5933858-6.515097-15.72674956C151.481972 2.37974228 145.854201 0 139.890265 0zm-10.840716 32.0004898-8.879 84.4250002-76.0109995-84.4190002 84.8899995-.006z" fill="#ff6a33"/></g></svg>