<svg width="256" height="256" xmlns="http://www.w3.org/2000/svg" preserveAspectRatio="xMidYMid"><path d="M0 0h256v256H0z"/><path d="M68.87 68.181a35.994 35.994 0 00-13.173 24.257l-9.074 86.268-.043.496-.01.14a22.246 22.246 0 006.46 17.279 22.217 22.217 0 0015.726 6.512l86.785-.007.63-.008a36.064 36.064 0 0023.32-9.254 35.994 35.994 0 0011.883-24.913 35.994 35.994 0 00-9.214-26.02l-63.917-70.985-.427-.462a36.064 36.064 0 00-22.48-11.14 35.994 35.994 0 00-26.467 7.837zm23.118 23.987l.24.033a4.064 4.064 0 012.122 1.051l.144.144.21.227 63.675 70.72a4.001 4.001 0 011.039 2.933 4.001 4.001 0 01-1.34 2.807l-.184.157a4.064 4.064 0 01-2.2.873l-.219.012-.206.002-75.673.005 7.925-75.347c.116-1.1.64-2.05 1.485-2.733a4.001 4.001 0 012.982-.884z" fill="#7A1818"/><path d="M186.244 52.867l-117.837.008-.658.015-.184.009a22.24 22.24 0 00-15.499 37.098L157.534 207.13l.451.478.13.132a22.24 22.24 0 0037.94-13.303l12.322-117.144.043-.496.01-.14a22.246 22.246 0 00-6.46-17.279 22.217 22.217 0 00-15.726-6.512zm-10.841 32l-8.879 84.425-76.011-84.419 84.89-.006z" fill="#FF6A33"/></svg>