<svg width="256px" height="256px" viewBox="0 0 256 256" xmlns="http://www.w3.org/2000/svg" preserveAspectRatio="xMidYMid"><title>multipass</title><path d="M128.001252 0c70.692291 0 128.001252 57.3089616 128.001252 128.001247 0 70.692291-57.308961 128.001252-128.001252 128.001252C57.3089616 256.002499 0 198.693538 0 128.001247 0 57.3089616 57.3089616 0 128.001252 0" fill="#e95420"/><path d="M205.153652 138.771723c-1.596637.055731-3.187702.222914-4.75926.50156L178.85233 96.4399435c8.373291-6.8491022 9.613261-19.1902966 2.766948-27.5635872-6.846314-8.3760744-19.190297-9.6160443-27.563583-2.7669472-8.376079 6.8463134-9.616049 19.1875128-2.766947 27.5607984l.008357.013934c.704973.9557514 1.552056 1.8000455 2.505019 2.5050192l-21.542056 42.8333443c-2.959215-.752343-6.057751-.752343-9.016961 0l-21.291283-42.5825615c8.376074-6.8491022 9.61326-19.1902966 2.766947-27.5635872-6.8490972-8.3760744-19.1902916-9.6160443-27.566371-2.7669472-8.3732856 6.8463134-9.6132555 19.1875128-2.7669472 27.5607984.0055726.0055726.0083614.0083614.0111502.013934.8554394.9780419 1.7749663 1.9003576 2.755797 2.755802L55.359561 139.273283c-1.6245006-.495988-3.3103049-.746766-5.0100434-.752343-10.858803-.069661-19.7197202 8.679799-19.787417 19.538602-.0688398 10.858803 8.6778362 19.719726 19.5366393 19.787422 10.8615868.06884 19.7197202-8.677836 19.7893804-19.536639.0139341-5.804179-2.5579615-11.312994-7.0134969-15.030125l21.7928391-43.084122c1.5687743.303725 3.162623.470913 4.7592605.501565 1.515832-.044586 3.0233026-.211774 4.5084777-.501565l21.2940673 42.582562c-8.376074 6.849102-9.618833 19.187512-2.769731 27.563587 6.846313 8.376074 19.187508 9.616044 27.563582 2.766947 8.376074-6.846313 9.613261-19.187513 2.766947-27.563587-.002784-.002784-.005572-.005573-.011145-.011145-.788563-1.039346-1.713667-1.964451-2.753013-2.755802l21.56714-42.83334c1.549268.415183 3.157051.582366 4.759261.501561 1.513043-.044581 3.020514-.21177 4.508478-.501561l21.542061 42.585346c-8.300842 6.915973-9.420993 19.2516-2.505019 27.552437 6.918757 8.298057 19.254384 9.420997 27.552437 2.502235 8.300841-6.915974 9.423781-19.251595 2.505019-27.549653-3.881526-4.006917-9.223158-6.266731-14.801633-6.263942" fill="#fff"/></svg>