<svg width="256px" height="312px" viewBox="0 0 256 312" xmlns="http://www.w3.org/2000/svg" preserveAspectRatio="xMidYMid"><title>Naive</title><path d="M181.251596 154.622337c.173856-1.039116.268634-2.089923.283521-3.143377v98.19661l-51.452756-47.052029-25.886628-23.606139-15.5812847-14.323934-6.9277548-6.323734-2.5516819-2.329796-.1849045-.160251c-.6286752-.505406-1.2326966-1.035465-1.812064-1.516217-.5793674-.480751-1.084773-.899868-1.775083-.69031-.4921585.180133-.859015.598071-.9738303 1.109427V62.3303434l.5300595.4807517 10.5642097 9.5533985c5.5594616 4.9307863 11.168231 9.8615726 16.715366 14.792359 7.889258 7.0674604 15.753862 14.1760104 23.593812 21.3256504 6.204573 5.637533 12.400928 11.283283 18.589065 16.937251 7.396179 6.742851 14.693743 13.559663 22.089922 20.253205 3.328281 3.00778 6.681216 5.953925 10.046478 8.912397.714964.628675 1.417601 1.232696 2.144892 1.873698.499797.363378 1.150313.447015 1.725775.221886.341646-.189171.591057-.509843.69031-.887542.098616-.468424.098616-.788926.172577-1.171061z" fill="#4c9717"/><g style="fill:#5fbc21"><path d="M74.2781871 155.324974c-.1396979 1.120098-.1809456 2.250286-.1232697 3.377588 0 31.433763 0 62.867526.2342124 94.288962v11.192885c-.2737688 5.402128-2.9226664 10.406604-7.235929 13.670605-8.3946637 7.014043-16.222287 14.681416-24.3211036 22.052942-3.3899156 3.081741-6.7551772 6.163483-10.2437086 9.171262-3.4885313 3.00778-12.4625624 3.377589-17.4303296-.776599-3.7799405-3.280705-7.29958351-6.849804-10.52722884-10.675152-2.84808321-2.850016-4.493875015-6.684313-4.5979582511-10.712133 0-.887542-.073961795-1.861372 0-2.933818 0-1.849045 0-3.69809.0616348291-5.559462.061634829-5.300595 0-10.613517 0-15.914113V89.6345727c-.0106949913-1.3212341.146709719-2.638463.468424701-3.9199751.327045357-1.1147094.739154201-2.2026767 1.232696581-3.254319.69149502-1.544989 1.5250961-3.0223612 2.4900471-4.4130538L24.0088204 58.3240795l12.5611782-12.5488512c.6683149-.6754608 1.4325911-1.248668 2.2681617-1.7011213 1.2175185-.6848322 2.5659089-1.1048915 3.9569561-1.2326966h0c4.125416-.7599271 8.3862146.0255342 11.9694838 2.2065269h0c.9189704.5608288 1.7817391 1.2089373 2.5763358 1.9353337l17.0481938 15.3100915v92.4522435c-.0506228.190259-.0876966.383867-.1109427.579368z"/><path d="M253.401327 230.778331l-36.228952 33.282808c-.142107.107074-.290277.205854-.443771.295847l-.135597.098616-.246539.147924c-6.570166 4.002947-14.996567 3.173379-20.659995-2.03395l-2.181872-1.910679-12.018792-10.983327V46.4532114c.197231-1.7134482.493078-3.4268965.825907-5.1033638.862887-4.3760729 4.7089-6.5456189 7.642718-9.2822053 6.373042-5.9169436 12.943314-11.6120018 19.439625-17.4056757 4.474689-3.993937 8.937051-8.00020086 13.44872-11.96948385 3.932302-3.463877397 11.550367-3.291299876 15.248457-1.14640782.937447.54707112 1.79941 1.21426348 2.564009 1.9846415l4.166514 4.01859085 3.365262 3.21733812 3.069414 2.9707987c.832077.7676727 1.568771 1.632667 2.1942 2.5763359 1.455548 2.3952059 2.183602 5.1618125 2.095585 7.9632199-.061635 18.0713319.073961 36.1426638.110942 54.2386496.073962 30.6941445.139706 61.3882895.197232 92.0824345 0 15.729209.028763 31.454308.086288 47.175298 0 .727291 0 1.442255 0 2.157219.184905 4.684247.086289 7.778316-2.539355 10.84773z"/></g></svg>