<svg width="256px" height="142px" viewBox="0 0 256 142" xmlns="http://www.w3.org/2000/svg" preserveAspectRatio="xMidYMid"><defs><linearGradient x1="13.3220455%" y1="94.9449067%" x2="82.6195455%" y2="1.13156385%" id="a"><stop stop-color="#d4202c" offset="0%"/><stop stop-color="#d82d2b" stop-opacity="0.9583" offset="4.166156%"/><stop stop-color="#e25226" stop-opacity="0.824" offset="17.6%"/><stop stop-color="#eb7123" stop-opacity="0.6833" offset="31.67%"/><stop stop-color="#f28920" stop-opacity="0.5365" offset="46.35%"/><stop stop-color="#f69a1e" stop-opacity="0.3812" offset="61.88%"/><stop stop-color="#f9a41d" stop-opacity="0.2114" offset="78.86%"/><stop stop-color="#faa71d" stop-opacity="0" offset="100%"/></linearGradient><linearGradient x1="86.6243182%" y1="5.04045911%" x2="17.3261364%" y2="98.8545194%" id="b"><stop stop-color="#d4202c" offset="0%"/><stop stop-color="#d82d2b" stop-opacity="0.9583" offset="4.166156%"/><stop stop-color="#e25226" stop-opacity="0.824" offset="17.6%"/><stop stop-color="#eb7123" stop-opacity="0.6833" offset="31.67%"/><stop stop-color="#f28920" stop-opacity="0.5365" offset="46.35%"/><stop stop-color="#f69a1e" stop-opacity="0.3812" offset="61.88%"/><stop stop-color="#f9a41d" stop-opacity="0.2114" offset="78.86%"/><stop stop-color="#faa71d" stop-opacity="0" offset="100%"/></linearGradient></defs><g style="fill:#ff5000"><path d="M232 0c-9 0-16.8 5-20.9 12.3l-.5 1-18.8 37L168 97.2l15.6 30.7.9 1.7c2.4 4.2 6 7.7 10.4 9.8 4.4-2.2 8-5.6 10.4-9.8l.9-1.7 46.7-92 1.1-2.2c1.3-3 2-6.2 2-9.7 0-13.3-10.7-24-24-24h0z"/><path d="M87.9 44.6 72.4 14l-.9-1.7c-2.4-4.2-6-7.7-10.4-9.8-4.4 2.2-8 5.6-10.4 9.8l-.8 1.7-46.7 92-1.1 2.2c-1.3 3-2 6.2-2 9.7 0 13.2 10.7 24 24 24 9 0 16.8-5 20.9-12.3l.5-1 18.8-37L88 44.7l-.1-.1h0z"/></g><path d="M232 0c-9 0-16.9 5-20.9 12.3l-.5 1-18.8 37L168 97.2l15.6 30.7.9 1.7c2.4 4.2 6 7.7 10.4 9.8 4.4-2.2 8-5.6 10.4-9.8l.9-1.7 46.7-92 1.1-2.2c1.3-3 2-6.2 2-9.7 0-13.3-10.8-24-24-24h0z" fill="url(#a)"/><path d="M24 141.9c9 0 16.9-5 20.9-12.3l.5-1 18.8-37L88 44.7 72.4 14l-.9-1.7c-2.4-4.2-6-7.7-10.4-9.8-4.4 2.2-8 5.6-10.4 9.8l-.8 1.7-46.7 92-1.2 2.3c-1.3 3-2 6.2-2 9.7 0 13.2 10.7 23.9 24 23.9h0z" fill="url(#b)"/><path d="M87.9 44.6 72.4 14l-.9-1.7c-2.4-4.2-6-7.7-10.4-9.8 1.4-.7 3-1.3 4.5-1.7 1.9-.5 4-.8 6-.8h0H104h.2.2c9 .1 16.8 5 20.9 12.3l.7 1.7 42.1 83.3 15.5 30.6.9 1.7c2.4 4.2 6 7.7 10.4 9.8-1.4.7-3 1.3-4.5 1.7-1.9.5-4 .8-6.1.8h0-32.2-.2-.2c-9-.1-16.8-5-20.9-12.3l-.9-1.7-42-83.3h0z" fill="#ff8c44"/></svg>