<svg width="256px" height="206px" viewBox="0 0 256 206" xmlns="http://www.w3.org/2000/svg" preserveAspectRatio="xMidYMid"><path d="M77.1257 77.1259c14.097 0 25.524 11.427 25.524 25.523 0 7.043-2.853 13.418-7.464 18.036h0l24.962 34.873c2.526-.837 5.219-1.306 8.026-1.306 2.832 0 5.548.48 8.094 1.332h0l15.03-22.113c1.939-2.849 5.822-3.589 8.671-1.652 2.852 1.938 3.593 5.821 1.654 8.671h0l-14.849 21.846c4.282 4.564 6.924 10.687 6.924 17.439 0 14.097-11.428 25.524-25.524 25.524-14.097 0-25.524-11.427-25.524-25.524 0-6.774 2.658-12.915 6.965-17.485h0l-25.191-35.19c-2.313.691-4.76 1.073-7.298 1.073-2.981 0-5.831-.538-8.49-1.477h0l-23.447 36.81c3.658 4.417 5.859 10.085 5.859 16.269 0 14.097-11.428 25.524-25.524 25.524-14.096 0-25.524-11.427-25.524-25.524 0-14.096 11.428-25.523 25.524-25.523 3.385 0 6.609.673 9.565 1.87h0l23.152-36.346c-4.112-4.53-6.638-10.526-6.638-17.127 0-14.096 11.427-25.523 25.523-25.523zM230.4766-4e-4c14.096 0 25.523 11.427 25.523 25.524 0 14.096-11.427 25.523-25.523 25.523-3.105 0-6.067-.582-8.819-1.597h0l-23.358 36.668c3.796 4.455 6.098 10.221 6.098 16.531 0 14.097-11.427 25.525-25.524 25.525-14.096 0-25.523-11.428-25.523-25.525 0-6.732 2.626-12.838 6.887-17.399h0l-25.23-35.245c-2.28.668-4.685 1.042-7.181 1.042-2.535 0-4.979-.382-7.29-1.07h0l-15.833 23.294c-1.94 2.851-5.821 3.589-8.672 1.653-2.852-1.938-3.592-5.82-1.654-8.672h0l15.411-22.671c-4.625-4.62-7.486-11.004-7.486-18.057 0-14.097 11.428-25.524 25.524-25.524 14.096 0 25.524 11.427 25.524 25.524 0 7.083-2.889 13.489-7.549 18.114h0l24.937 34.836c2.557-.862 5.288-1.348 8.135-1.348 3.262 0 6.37.635 9.237 1.75h0l23.243-36.487c-3.972-4.499-6.401-10.392-6.401-16.865 0-14.097 11.427-25.524 25.524-25.524z" fill="#546fff"/></svg>