<svg width="256px" height="256px" viewBox="0 0 256 256" xmlns="http://www.w3.org/2000/svg" preserveAspectRatio="xMidYMid"><title>nasm</title><path d="M230.449304 0c-14.116349 0-25.555941 11.4430892-25.555941 25.5541927 0 4.9618773 1.437161 9.5775771 3.884881 13.4974252l-16.270342 16.2703419c-20.440207-18.4977667-47.543457-29.7677671-77.28325-29.7677671C51.5909358 25.5541927 0 77.1451285 0 140.778845c0 63.637213 51.5909358 115.222903 115.224652 115.222903 63.635465 0 115.224652-51.58569 115.224652-115.222903 0-29.738045-11.271749-56.843043-29.769515-77.2849984l16.27209-16.2703419c3.919848 2.4459712 8.537296 3.8848807 13.499173 3.8848807C244.560408 51.1083854 256 39.6670446 256 25.555941 256 11.4448375 244.560408 0 230.449304 0z" fill="#113b6a"/><path d="M61.574135 160.175274c-.1783338.332191-.6241685.496538-1.3392523.496538h-8.418407c-1.1242027 0-1.6836814-.53675-1.6836814-1.606753 0-2.246075.0046623-4.479716.015541-6.70196l.0211747-3.324949c.0262256-3.314912.0367158-6.659546.0367158-10.026909 0-2.143503-.3706546-3.661089-1.1102156-4.552758-.739561-.891669-1.9284534-1.339252-3.5579353-1.339252-1.2238598 0-2.5526219.293726-3.9792927.87943-1.4284193.587453-2.6015763 1.035036-3.5212195 1.341001v23.727145c0 .40737-.0909153.776277-.2692492 1.110216-.1783339.33219-.6241685.496537-1.3392523.496537h-8.3414787c-.6626327 0-1.1102157-.13987-1.3392523-.421357-.230785-.277991-.3444291-.67662-.3444291-1.185396v-34.44466c0-.508776.1136441-.917895.3444291-1.22386.2290366-.305965.6766196-.459821 1.3392523-.459821h8.3414787c.7133354 0 1.1609184.18183 1.3392523.536749.1800822.356668.2692492.739561.2692492 1.146932v1.837538c.0326362 0 .0613872.006216.0836628.017613l.0282329.020851c.027974.026226.0646897.036716.1153925.036716 1.6854298-1.274563 3.6488506-2.30785 5.8937591-3.098114 2.2431602-.790263 4.2852577-1.187144 6.1227958-1.187144 2.7047302 0 4.8359946.447583 6.3902965 1.339253 1.5577987.895166 2.7169688 2.066574 3.4845037 3.521219.7657866 1.454645 1.2360984 3.075385 1.4144323 4.86222.1800822 1.785087.2696618 3.570174.2696618 5.355261v21.739247c.0048325.40737-.0860828.776277-.2661651 1.108467zm29.512505-4.096433c-1.0210488.917894-2.1190258 1.709907-3.2904345 2.372539-1.1749054.662633-2.3725397 1.211621-3.5981478 1.645218-1.2256082.433596-2.4249908.737812-3.5981479.917894-1.1749054.176586-2.2449085.267501-3.2135061.267501-2.2466569 0-4.070208-.319952-5.4741501-.958107-1.403942-.636407-2.4879321-1.466884-3.2519703-2.487932-.7657866-1.019301-1.2902979-2.206445-1.5682889-3.559684-.2360301-1.124785-.3712861-2.295708-.409815-3.512769l-.0115425-.735773c-.0524511-2.346314.2675008-4.334212.9581074-5.968939.6888582-1.632979 1.6696945-2.947754 2.9460054-3.942577 1.2745626-.993075 2.8323613-1.709907 4.6698993-2.143503 1.8357897-.433596 3.8778872-.650394 6.1227958-.650394h8.8030487v-1.22386c0-.816489-.0926637-1.505347-.2675008-2.066575-.1818306-.561227-.5105244-1.021048-.9948232-1.377716-.4860471-.356668-1.1609184-.624169-2.0281105-.804251-.7603229-.156042-1.7334827-.245154-2.9218218-.264994l-.5224694-.004255c-.3377853 0-.7259237.010071-1.1636598.029079l-3.5814194.203454h0c-.9196433.050703-1.8392865.125883-2.7571813.229037-.6884212.077366-1.3345536.139979-1.9369221.187841l-1.2475357.095525c-.7059271.043817-1.1882185.02629-1.445229-.052581-.3321906-.103154-.5996913-.538498-.8042508-1.302536l-.8409665-3.979293c-.1031539-.662633-.0122386-1.209873.2675008-1.645217.2797394-.431848 1.0070618-.879431 2.1819672-1.339253.8671921-.307713 1.8742539-.573465 3.0229337-.80425 1.1486798-.229037 2.3218369-.421358 3.5212195-.573466 1.201131-.153857 2.3865266-.267501 3.561432-.344429 1.1714087-.076929 2.1924574-.113644 3.0613979-.113644 3.5701739 0 6.4409993.33219 8.6107279.994823 2.1679802.662632 3.8254361 1.606753 4.9741159 2.830613 1.1486799 1.223859 1.9004799 2.732704 2.2588959 4.517791.356667 1.785087.53675 3.825436.53675 6.122795v12.091735c0 .818238.036715 1.454645.115392 1.914467.07518.459821.21505.80425.419609 1.033287.202811.230785.482551.398629.839218.496537.286733.083922.654031.149941 1.102789.198056l.351856.032729c.664381.052452 1.096229.167844 1.300788.34443.20456.180082.307714.498285.307714.956359v4.900684c0 .946493-.639191 1.586959-1.914771 1.918598l-.305661.071048c-1.428419.356668-3.012443.53675-4.7468275.53675-1.8864924 0-3.547445-.3217-4.9758643-.956359-1.4266708-.638155-2.3987652-1.977408-2.9075412-4.019505l-.155605-.076928zm-1.1469315-11.327697h-6.8868339c-1.4301676 0-2.5526219.33219-3.3691112.994823-.8182377.662633-1.2256082 1.889989-1.2256082 3.675076 0 1.174906.2430236 1.989647.7273224 2.44772.4842988.458073 1.3917034.690606 2.7187171.690606 1.1731571 0 2.5368866-.279739 4.0964336-.842714 1.5560503-.557731 2.8708254-1.171409 3.9408286-1.83579l-.0017484-5.129721zm50.2936445 4.012512c0 2.39352-.47206 4.391908-1.416181 5.993416-.945869 1.605005-2.206444 2.890058-3.78872 3.856907-1.582276.966849-3.383098 1.666197-5.395473 2.099794-2.015872.430099-4.120911.646897-6.315117.646897-.917895 0-1.912718-.036716-2.984469-.111896-1.071752-.076928-2.155742-.190572-3.251971-.340932-1.097977-.152109-2.145251-.328694-3.138326-.533253-.994823-.201063-1.876002-.428351-2.641789-.683614-1.276311-.456324-2.0928-.92314-2.447719-1.40569-.318592-.425826-.394053-1.06301-.22761-1.910325l.914719-3.971196c.153857-.711587.382894-1.146931.690607-1.299039.267719-.134625.749614-.151453 1.448027-.050485l.312583.050485c1.785087.305965 3.722282.548988 5.815082.727322 2.0928.180082 3.802707.267501 5.129721.267501 1.937195 0 3.314912-.216798 4.13315-.652143.816489-.435344 1.223859-1.162666 1.223859-2.187212 0-1.125951-.305965-1.879499-.916146-2.26414-.613678-.382894-1.736133-.67662-3.369111-.88118-2.092801-.307713-4.043983-.667877-5.857044-1.073499-1.811312-.409119-3.405827-1.024546-4.781795-1.844532-1.377716-.818238-2.461706-1.917963-3.253718-3.299176-.792013-1.381214-1.185396-3.197771-1.185396-5.447925 0-2.045594.391635-3.835926 1.178402-5.370996.78327-1.533321 1.862015-2.813129 3.23099-3.834178 1.367226-1.024545 3.00545-1.790332 4.907678-2.304353 1.900479-.510524 3.975796-.765787 6.220704-.765787.867192 0 1.8253.038465 2.872574.115393 1.045526.076928 2.105039.18183 3.175042.307713 1.071752.131128 2.105039.297223 3.099862.501783.994823.208056 1.90048.463318 2.716969.77278 1.021049.358416 1.774597.732567 2.257147 1.118957.484299.38639.60144 1.066507.344429 2.045594l-.840966 3.935584c-.202811.716832-.419609 1.150428-.650394 1.306033-.203589.135208-.659978.170952-1.367941.106006l-2.3568-.280351c-.245482-.030214-.495827-.061248-.75109-.093156-1.022797-.127631-2.02811-.232533-3.022933-.307713l-2.132139-.149977c-.224775-.01437-.445397-.02792-.661758-.040595l-.980235-.048367c-.153032-.006001-.30093-.01098-.443751-.014952l-.796446-.011861c-1.938943-.050703-3.152313.166095-3.636612.648645-.484299.480802-.727322 1.131197-.727322 1.945937 0 .96685.447583 1.58927 1.346246 1.869009.896914.281488 2.036852.54724 3.419814.800754 1.996639.255262 3.891874.573466 5.685703.954611 1.79208.382893 3.367362 1.005313 4.724098 1.870757 1.356736.865444 2.444223 2.022865 3.265958 3.474013.816489 1.4494 1.225608 3.369112 1.225608 5.762632zm61.505948 11.411618c-.180082.332191-.601439.496538-1.262323.496538h-8.418408c-.664381 0-1.111964-.13987-1.341-.421358-.229037-.277991-.344429-.676619-.344429-1.185395v-20.130746c0-2.348062-.356668-3.902364-1.071752-4.669899-.713335-.765787-1.785087-1.146932-3.213506-1.146932-.917895 0-2.042098.243024-3.369111.727323-1.327014.48255-2.473945.982584-3.444291 1.493109v23.727145c0 .40737-.089167.776276-.267501 1.110215-.178334.333939-.624169.496538-1.339252.496538h-8.418408c-.615426 0-1.033287-.13987-1.264072-.421358-.229037-.277991-.344429-.676619-.344429-1.185395v-20.361531c0-2.143503-.344429-3.608638-1.038532-4.40065-.695852-.792012-1.736133-1.187144-3.122591-1.187144-.926637 0-2.043846.229037-3.353376.688858-1.313027.459822-2.505416.970346-3.584161 1.531573v23.727145c0 .407371-.103154.776277-.305965 1.110216-.201063.33219-.657388.496537-1.367226.496537h-8.362459c-.61193 0-1.028043-.139869-1.257079-.421357-.229037-.277991-.339184-.67662-.339184-1.185396v-34.44466c0-.508776.110147-.917895.339184-1.22386.229036-.305965.645149-.459821 1.257079-.459821h8.362459c.709838 0 1.166163.18183 1.367226.53675.202811.356667.305965.739561.305965 1.146931v1.76061l.153857.076928c1.632978-1.325265 3.418065-2.358552 5.35526-3.098113 1.938944-.739561 3.904113-1.110216 5.895508-1.110216 2.295611 0 4.309735.419609 6.045867 1.262324 1.732636.840966 3.010695 2.15749 3.825436 3.942577 1.786836-1.479122 3.814946-2.716969 6.084332-3.711792 2.269386-.994823 4.554507-1.493109 6.850118-1.493109 2.70473 0 4.811518.447583 6.315117 1.339252 1.503599.895166 2.627802 2.056085 3.367363 3.482756.739561 1.428419 1.187144 3.03692 1.341 4.822007.152109 1.785087.229229 3.571922.229229 5.357009v21.816176c.003305.409118-.085862.778025-.265945 1.110215z" fill="#fff"/></svg>