<svg width="256px" height="256px" viewBox="0 0 256 256" xmlns="http://www.w3.org/2000/svg" preserveAspectRatio="xMidYMid"><title>Neat</title><defs><linearGradient x1="50%" y1="100%" x2="50%" y2="-2.22044605e-14%" id="a"><stop stop-color="#21e9f4"/><stop stop-color="#00d4ff" offset="1"/></linearGradient></defs><path d="M256 223.693416c-.016 1.086511-.048 2.173022-.16 3.259533-.272 2.636386-.864 5.240817-1.776 7.717423-3.216 8.755999-10.304 15.834298-19.072 19.045896-3.264 1.198358-6.688 1.789548-10.16 1.917372-64.272.814883-128.56.015978-192.832.015978-1.088-.015978-2.176-.047934-3.264-.159781-2.64-.271627-5.248-.862817-7.728-1.773569-4.848-1.773569-9.232-4.729518-12.688-8.548284-2.96-3.227576-5.232-7.078299-6.64-11.232605C.56 230.627912.048 227.19262 0 223.693416V0l128 127.824809L256 0c0 74.5697981 0 149.123618 0 223.693416h0zm-244-.07989c.032 2.380737.384 4.697561 1.216 6.934496 2 5.480488 6.432 9.906422 11.92 11.903685 2.032.750971 4.176 1.118467 6.336 1.214336 64.352.798905 128.704.798905 193.056 0 2.16-.095869 4.304-.463365 6.336-1.214336 5.488-1.997263 9.92-6.423197 11.92-11.903685.832-2.236935 1.184-4.553759 1.216-6.934496V28.9363412L136.48 136.293203l-.768.719014c-.848.639124-1.68 1.230314-2.64 1.677701-3.184 1.485963-6.96 1.485963-10.144 0-.944-.447387-1.84-1.00662-2.64-1.677701-.272-.223693-.512-.479343-.768-.719014L12 28.9363412C12 93.82341 12 158.726457 12 223.613526h0z" fill="#00d4ff"/><path d="M9.376 246.286451 128 127.824809l118.624 118.461642c-5.792 5.784073-13.792 9.363167-22.624 9.363167H32c-8.832 0-16.832-3.579094-22.624-9.363167z" fill="url(#a)"/></svg>