<svg width="512px" height="170px" viewBox="0 0 512 170" xmlns="http://www.w3.org/2000/svg" preserveAspectRatio="xMidYMid"><title>Neo4j</title><path d="M95.2167207 35.5411211h.2356838c-27.9049651 0-46.6653977 16.073637-46.6653977 47.7024065v19.2789374c2.8793464-1.251062 5.9616561-1.969735 9.0973957-2.121155 3.1834224-.127716 6.3424113.605039 9.1445325 2.121155V83.2435276c0-20.3630826 11.2656869-31.1102651 28.2820592-31.1102651 17.0163728 0 28.2820588 10.7471825 28.2820588 31.1102651v49.3050564h18.241929V83.2435276c0-31.6287695-18.854707-47.7024065-46.6182613-47.7024065zm56.7055283 49.823561h-.188547c0-28.941974 20.881587-49.823561 50.907707-49.823561 30.026119 0 50.389202 21.0229973 50.389202 49.823561v6.4577368h-82.017972c2.133281 15.6328181 15.870404 27.0360631 31.62877 26.2551781 12.349832 0 20.928724-3.723804 26.302315-11.784191h19.985989c-7.494746 17.676287-24.652529 28.941974-46.618261 28.941974-29.507616 0-50.389203-20.881587-50.389203-49.8706979zm82.536477-9.4273531c-3.445882-14.4779013-16.770059-24.4064982-31.62877-23.5683827-14.728555-.8099622-27.876677 9.1658511-31.063128 23.5683827h62.691898zm28.612016 9.4273531c0-28.3360384 20.395934-49.1433765 49.650417-49.8072095l1.445837-.0163515c13.47331-.533554 26.571519 4.5060636 36.212478 13.9329767 9.640958 9.4269131 14.973335 22.4086919 14.742365 35.8905843 0 28.9891109-20.928724 49.8706979-50.954843 49.8706979-30.02612 0-51.096254-20.881587-51.096254-49.8706979zm83.054981 0c.512689-8.8106957-2.763902-17.4205936-9.004544-23.6612349-6.240641-6.2406414-14.850539-9.5172328-23.661235-9.0045435-8.769799-.3480181-17.28688 2.9800336-23.497419 9.1816234-6.210538 6.2015897-9.550868 14.7138625-9.215496 23.484155-.512608 8.8231894 2.768977 17.4450239 9.018434 23.6944809 6.249458 6.249458 14.871292 9.531042 23.694481 9.018434 19.844579.565641 32.665779-13.386841 32.665779-32.7129149zM505.5894 41.9517212v90.0312218c0 23.568383-9.144533 35.399711-32.712915 35.399711h-3.770941v-15.507996h2.168291c11.784191 0 16.073637-5.373591 16.073637-18.854706V41.9517212H505.5894zm-61.136385-18.3833385c9.312328 2.9850297 15.610107 11.6683311 15.555133 21.4472282v58.0724951h10.700046v16.073637h-10.700046v22.531374H441.76622v-22.531374h-46.099757c-8.652029.381821-16.768629-4.188336-20.928724-11.784192-3.442987-7.048285-2.388452-15.4660619 2.686796-21.4472278l41.197533-54.1601433c5.839406-8.1588052 16.354512-11.4975431 25.830947-8.2017972zm-5.986369 17.2991929h-1.60265c-1.535267.0649028-2.942528.8740782-3.770941 2.1682912l-40.631892 53.0759978c-.691902.7238565-1.079916 1.6854574-1.084146 2.6867956 0 2.6032918 2.110385 4.7136768 4.713677 4.7136768h45.581252V45.1570212c0-3.2053-2.121154-4.2894456-3.2053-4.2894456z"/><g style="fill:#018bff"><path d="M496.444867 6.279878660000001e-15c-8.590862 0-15.555132 6.964270069999994-15.555132 15.555132599999993 0 8.5908625 6.96427 15.5551325 15.555132 15.5551325C505.03573 31.1102651 512 24.1459951 512 15.5551326c0-8.59086253-6.96427-15.555132599999993-15.555133-15.555132599999993"/><path d="M56.8473937 109.498706c-3.3508458-.174029-6.6356225.977336-9.1445325 3.2053l-17.1577826-11.21855c.4616016-1.380375.6536308-2.836597.5656412-4.2894458.019078-6.2957182-3.7586885-11.9821346-9.569707-14.4046326-5.8110184-2.4224979-12.50927488-1.1033269-16.96779056 3.3416781-4.458515677 4.445005-5.79800907 11.1392271-3.39315814 16.9575713 2.40485093 5.818343 8.07977603 9.61335 14.3755231 9.613379 3.339307.192695 6.6163931-.961926 9.0973958-3.2053l17.1577825 11.784191c-.4245208 1.388033-.6000621 2.840239-.5185044 4.289446-.0866345 1.449365.0890153 2.902469.5185044 4.289446L24.652983 141.693117c-2.5703309-2.094311-5.7818806-3.242482-9.0973958-3.252437-6.29146379 0-11.96342959 3.789886-14.37106856 9.602441-2.40763898 5.812555-1.07680786 12.503094 3.37192888 16.951831 4.44873675 4.448737 11.13927658 5.779568 16.95183128 3.371929 5.8125546-2.407639 9.602441-8.079605 9.602441-14.371069.0915643-1.452972-.100555-2.909877-.5656412-4.289445l17.1577826-11.784192c2.5873456 2.090992 5.8179314 3.223362 9.1445325 3.2053 4.1211562 2e-5 8.0728359-1.640323 10.9825081-4.558839 2.9096721-2.918516 4.538014-6.875156 4.5258148-10.996293.0546612-8.680875-6.8310466-15.817733-15.5083229-16.073637"/></g></svg>