<svg width="256px" height="256px" viewBox="0 0 256 256" xmlns="http://www.w3.org/2000/svg" preserveAspectRatio="xMidYMid"><title>Neon</title><defs><linearGradient x1="100%" y1="100%" x2="12.0694444%" y2="0%" id="a"><stop stop-color="#62f755" offset="0%"/><stop stop-color="#8ff986" stop-opacity="0" offset="100%"/></linearGradient><linearGradient x1="100%" y1="100%" x2="40.6027778%" y2="76.8972222%" id="b"><stop stop-opacity="0.9" offset="0%"/><stop stop-color="#1a1a1a" stop-opacity="0" offset="100%"/></linearGradient></defs><path d="M0 44.1386667C0 19.7615542 19.7615542 0 44.1386667 0H211.861333C236.238446 0 256 19.7615542 256 44.1386667V186.787556c0 25.216-31.914667 36.16-47.388444 16.256l-48.391112-62.250667v75.484444c0 21.938223-17.784443 39.722667-39.722666 39.722667H44.1386667C19.7615542 256 0 236.238446 0 211.861333V44.1386667zm44.1386667-8.8248889c-4.8782223 0-8.8248889 3.9466666-8.8248889 8.8177778V211.861333c0 4.878223 3.9466666 8.832 8.8177778 8.832h77.6888884c2.439112 0 3.086223-1.976889 3.086223-4.416V115.057778c0-25.2231113 31.914666-36.1671113 47.395555-16.2560002l48.391111 62.2435552V44.1386667c0-4.8782223.455111-8.8248889-4.416-8.8248889H44.1386667z" fill="#00e0d9"/><path d="M0 44.1386667C0 19.7615542 19.7615542 0 44.1386667 0H211.861333C236.238446 0 256 19.7615542 256 44.1386667V186.787556c0 25.216-31.914667 36.16-47.388444 16.256l-48.391112-62.250667v75.484444c0 21.938223-17.784443 39.722667-39.722666 39.722667H44.1386667C19.7615542 256 0 236.238446 0 211.861333V44.1386667zm44.1386667-8.8248889c-4.8782223 0-8.8248889 3.9466666-8.8248889 8.8177778V211.861333c0 4.878223 3.9466666 8.832 8.8177778 8.832h77.6888884c2.439112 0 3.086223-1.976889 3.086223-4.416V115.057778c0-25.2231113 31.914666-36.1671113 47.395555-16.2560002l48.391111 62.2435552V44.1386667c0-4.8782223.455111-8.8248889-4.416-8.8248889H44.1386667z" fill="url(#a)"/><path d="M0 44.1386667C0 19.7615542 19.7615542 0 44.1386667 0H211.861333C236.238446 0 256 19.7615542 256 44.1386667V186.787556c0 25.216-31.914667 36.16-47.388444 16.256l-48.391112-62.250667v75.484444c0 21.938223-17.784443 39.722667-39.722666 39.722667H44.1386667C19.7615542 256 0 236.238446 0 211.861333V44.1386667zm44.1386667-8.8248889c-4.8782223 0-8.8248889 3.9466666-8.8248889 8.8177778V211.861333c0 4.878223 3.9466666 8.832 8.8177778 8.832h77.6888884c2.439112 0 3.086223-1.976889 3.086223-4.416V115.057778c0-25.2231113 31.914666-36.1671113 47.395555-16.2560002l48.391111 62.2435552V44.1386667c0-4.8782223.455111-8.8248889-4.416-8.8248889H44.1386667z" fill-opacity="0.4" fill="url(#b)"/><path d="M211.861333 0C236.238446 0 256 19.7615542 256 44.1386667V186.787556c0 25.216-31.914667 36.16-47.388444 16.256l-48.391112-62.250667v75.484444c0 21.938223-17.784443 39.722667-39.722666 39.722667 1.16931 0 2.290728-.464507 3.117555-1.291334.826827-.826827 1.291334-1.948245 1.291334-3.117555V115.057778c0-25.2231113 31.914666-36.1671113 47.395555-16.2560002l48.391111 62.2435552V8.82488889C220.693333 3.95377778 216.739556 0 211.861333 0z" fill="#63f655"/></svg>