<svg width="512px" height="138px" viewBox="0 0 512 138" xmlns="http://www.w3.org/2000/svg" preserveAspectRatio="xMidYMid"><path d="M340.657183 0v100.203061c12.359223.575018 24.687024 1.270137 36.979912 2.090245v21.244247c-19.432609-1.29531-38.946913-2.284082-58.542216-2.958323V0h21.562304zM512 .0118710746 483.922918 65.1060972l28.070099 72.4376128-.031422.013775c-8.176638-1.166585-16.36375-2.267848-24.575301-3.323549l-15.763246-40.6562562-15.913372 36.8821552c-7.541221-.832712-15.092916-1.62056-22.662067-2.358936l27.371838-63.4300444L435.351871.0118710746h23.325414L472.712335 36.1957639 488.318473.0118710746H512zM245.093161 119.526252 245.092462.0114869428h60.190112V21.4467074h-38.627807v27.7810192h29.227117v21.2442468h-29.227117v49.0493556l-21.561606.004923zm-80.513005-98.077764-6.98e-4-21.4381184407h66.690924V21.4469875h-22.565007v98.6608115c-7.196978.188355-14.386275.41159-21.560909.682305V21.448488h-22.56431zM90.8682168 126.966224V.0139657936h59.8898602V21.4491862H112.42703v29.0357945c8.806121-.1127691 21.326991-.240551 29.116792-.2216979v21.2459925c-9.750868-.1211483-20.757558.133717-29.116792.2171592V103.88974c12.739775-1.002004 25.517954-1.878671 38.331047-2.618828v21.246341c-20.05406 1.155169-40.018046 2.643338-59.8898602 4.448971zM48.5710466 77.8540254 48.5696502.0104745953h21.5623047V128.968837c-7.8823211.810891-15.7496297 1.673628-23.6033221 2.584509L21.5609083 59.8244682v74.8012278C14.3597408 135.563565 7.17323695 136.54141 0 137.562338V.0118710746h20.4911722L48.5710466 77.8540254zM395.425298 124.819071v1.4e-4V.0120101224h21.562305V126.599777c-7.178125-.638944-14.363232-1.229882-21.562305-1.780706z" fill="#db202c"/></svg>