<svg width="256px" height="226px" viewBox="0 0 256 226" xmlns="http://www.w3.org/2000/svg" preserveAspectRatio="xMidYMid"><title>netlify</title><g style="fill:#05bdba"><path d="M69.1805953 188.087106h-2.4170112l-12.0650574-12.065058v-2.416811l18.444359-18.444159h12.7782017l1.7036669 1.703667v12.778202z"/><path d="M54.6985267 51.6279666v-2.4170112L66.7635841 37.145898h2.4170112l18.444159 18.444159v12.7782017l-1.7036669 1.7038669H73.1428857z"/></g><path d="M160.906229 149.197744H143.3536l-1.466085-1.465886v-41.08839c0-7.3102284-2.872576-12.9763857-11.688487-13.1743703-4.536845-.1189907-9.72744 0-15.274406.217783l-.832135.8519335V147.71206l-1.466086 1.465885H95.0737724l-1.4660855-1.465885V77.5211437l1.4660855-1.4660855h39.5035136c15.353601 0 27.795029 12.441428 27.795029 27.7950288v43.881771l-1.466086 1.465886z" fill="#014847"/><g style="fill:#05bdba"><path d="M71.6768002 122.888599H1.46602547L0 121.422514v-17.592226l1.46602547-1.466085H71.6768002l1.4660855 1.466085v17.592226z"/><path d="M254.534115 122.888599H184.323l-1.466086-1.466085v-17.592226l1.466086-1.466085h70.211115L256 103.830288v17.592226z"/><path d="M117.876391 54.1241715V1.46602547L119.342476 0h17.592226l1.466085 1.46602547V54.1241715l-1.466085 1.4658855h-17.592226z"/><path d="M117.876391 223.786517v-52.657686l1.466085-1.466086h17.592226l1.466085 1.466086v52.657686l-1.466085 1.465885h-17.592226z"/></g></svg>