<svg width="256px" height="291px" viewBox="0 0 256 291" xmlns="http://www.w3.org/2000/svg" preserveAspectRatio="xMidYMid"><path d="M2.05386819 218.186819c1.32034384 2.347278 3.22750717 4.107737 5.57478511 5.428081l112.9627507 65.136962h0c4.694556 2.787393 10.416046 2.787393 14.963897 0L248.518052 223.6149C253.212607 220.974212 256 215.986246 256 210.558166V80.2842407h0c0-5.4280802-2.787393-10.4160459-7.481948-13.0567335L135.555301 2.09054441h0c-4.694556-2.787392548-10.416046-2.787392548-14.963897 0h0L7.6286533 67.2275072C2.78739255 69.8681948 0 74.8561605 0 80.2842407h0V210.704871c0 2.640688.586819484 5.134671 2.05386819 7.481948" fill="#009639"/><path d="M91.8372493 195.154155c0 8.068768-6.4550143 14.523782-14.5237823 14.523782-8.0687679 0-14.5237822-6.455014-14.5237822-14.523782h0V95.5415473c0-7.7753582 6.895129-14.0836676 16.4309456-14.0836676 6.8951289 0 14.9638968 2.7873925 19.8051576 8.8022922l4.401146 5.2813754 60.735817 72.6189107V95.834957h0c0-8.0687679 6.455014-14.5237822 14.523782-14.5237822 8.068768 0 14.523782 6.4550143 14.523782 14.5237822h0v99.612607c0 7.775359-6.895129 14.083668-16.430945 14.083668-6.895129 0-14.963897-2.787392-19.805158-8.802292l-65.1369627-77.753582v72.178797h0z" fill="#fff"/></svg>