<svg width="512px" height="192px" viewBox="0 0 512 192" xmlns="http://www.w3.org/2000/svg" preserveAspectRatio="xMidYMid"><title>ngrok</title><path d="M174.892868 65.4312256c-7.120802-7.9872632-15.928806-12.0083447-26.39581-12.0083447-6.451803 0-12.394805 1.2582605-17.856607 3.8022615-5.461202 2.5439409-10.172404 5.9908823-14.161806 10.394884-3.961801 4.4310017-7.093802 9.5736038-9.396003 15.5370061-2.302801 5.9358023-3.453602 12.3642048-3.453602 19.3122075 0 6.811203 1.071001 13.020605 3.185402 18.628207 2.142001 5.580602 5.113202 10.367404 8.968203 14.361006 3.855002 3.993601 8.433004 7.112403 13.733406 9.355204 5.301002 2.2434 11.110204 3.364801 17.428206 3.364801 2.864402 0 5.514603-.219 7.924203-.6294 2.409001-.410401 4.711802-1.093801 6.906603-2.023801 2.195401-.957601 4.336802-2.161201 6.478803-3.610802 2.115001-1.4772 4.336801-3.337201 6.639002-5.553002v23.71621h-.027v2.2974h-29.233211l-21.979209 25.27561v4.349402h82.480833v-10.258204V55.9121018h-31.241413v9.5191238zm-.0804 43.4664174c-1.0974 2.516401-2.543401 4.732201-4.309801 6.619802-1.794001 1.887001-3.909002 3.337201-6.371403 4.404002-2.463001 1.0668-5.086802 1.5864-7.843803 1.5864-2.891401 0-5.568602-.5196-8.031603-1.5864-2.463001-1.066801-4.604402-2.517001-6.398403-4.404002-1.7934-1.887601-3.185401-4.103401-4.229401-6.619802-1.044001-2.517001-1.552801-5.279403-1.552801-8.206204 0-2.8176008.5352-5.4714018 1.633201-7.9332028 1.0974-2.4618009 2.542801-4.5954018 4.417202-6.4278025 1.8468-1.8330007 3.961801-3.2826013 6.371402-4.4046017 2.409001-1.1214004 5.005802-1.6686006 7.763403-1.6686006 2.650201 0 5.193602.5202002 7.683003 1.5870006 2.463001 1.0392004 4.631402 2.516401 6.478803 4.4040017 1.8468 1.8876007 3.292801 4.0482016 4.417201 6.5100025 1.097401 2.461801 1.633201 5.1702021 1.633201 8.1246028-.027 2.817602-.5622 5.497803-1.660201 8.014804zM87.7278343 66.9090261c-1.6596007-1.9968007-3.5334014-3.7200014-5.5416022-5.251802-1.7934007-1.3404005-3.6942014-2.516761-5.7552022-3.4741214-.9906004-.4650602-2.0346008-.8480403-3.1326013-1.2036004-1.5792006-.5197802-3.2928013-.8753404-5.0598019-1.1762405H45.965538L31.2415922 72.9546285v-1.9968008-14.7990058H0v90.4884351h31.2415922v-38.815815-22.2396086h4.3368617 8.7005434 15.9286262.3750002l2.4360009-.0546v61.0824236h31.2414122V90.0234352c0-4.8144019-.4548002-9.1092036-1.3650005-12.8838051-.9102004-3.7476014-2.623801-7.1394028-5.167202-10.230604zM341.889134 52.5747205c7.603203 0 14.643605 1.2036005 21.149408 3.6108014 6.505202 2.407141 12.153605 5.7441023 16.918806 10.038904 4.765202 4.2948016 8.486404 9.4098036 11.163605 15.318606 2.623801 5.9358023 3.962401 12.5010048 3.962401 19.6680081 0 7.194002-1.3656 13.731605-4.069201 19.667407-2.704201 5.935803-6.425403 11.051405-11.137205 15.345606-4.711201 4.322402-10.386604 7.632003-16.999206 9.984604-6.639003 2.352601-13.786806 3.528601-21.496809 3.528601-7.603203 0-14.617205-1.176-21.069008-3.528601-6.451802-2.352601-11.993405-5.716802-16.651206-10.066204-4.685402-4.349402-8.326204-9.546604-10.976405-15.592206-2.650201-6.045002-3.961801-12.774605-3.961801-20.187608 0-6.7014024 1.3116-12.9660049 3.961801-18.7920071 2.650201-5.8266023 6.345003-10.8876043 11.056205-15.181806 4.738801-4.2672016 10.333804-7.659363 16.839006-10.1212839 6.478803-2.461861 13.599606-3.6928215 21.309609-3.6928215zm-91.503636 3.3369013v15.5922061l13.546205-15.5922061h34.079413v1.2583205l-24.816609 28.6672912h-22.728609l-.0264 60.5628235h-31.322412V55.9116218h31.268412zm91.530636 24.3456096c-2.784002 0-5.380803.5196002-7.870804 1.5864006-2.463 1.0398004-4.578001 2.517001-6.371402 4.4046017-1.793401 1.8870007-3.212401 4.0482016-4.309802 6.5100025-1.098 2.461801-1.6332 5.115002-1.6332 7.9326028 0 3.063602.5352 5.854203 1.6332 8.370604 1.097401 2.516401 2.516401 4.732201 4.309802 6.619802 1.767001 1.887601 3.908402 3.337201 6.371402 4.404002 2.490001 1.0668 5.113202 1.586401 7.870804 1.586401 2.757601 0 5.354402-.519601 7.843803-1.586401 2.463001-1.066801 4.578001-2.516401 6.371402-4.404002 1.767001-1.887601 3.212401-4.103401 4.310402-6.619802 1.0974-2.516401 1.6326-5.251802 1.6326-8.179204 0-2.8170007-.5352-5.4978017-1.6326-8.0148027-1.098001-2.516401-2.516401-4.7322019-4.310402-6.6192026-1.767001-1.8876007-3.908401-3.3648013-6.371402-4.4046017-2.463001-1.0668004-5.086202-1.5864006-7.843803-1.5864006zm124.914648 17.4522068 42.726617-40.2652958v-1.5318606h-41.173816L435.61637 88.5462346V0h-31.241412v146.373057h31.241412v-36.846014l34.347014 36.846014H512v-1.7232l-45.169218-46.9404188z"/></svg>