<svg width="256px" height="273px" viewBox="0 0 256 273" xmlns="http://www.w3.org/2000/svg" preserveAspectRatio="xMidYMid"><title>Nhost</title><path d="M232.105302 58.516901 136.961578 3.68108504c-8.577838-4.90811339-19.113054-4.90811339-27.690893 0-8.540914 4.93715523-13.8089594 14.04655056-13.8283844 23.91175976v7.1573195l-6.2018727-3.5829251c-8.5778382-4.9081134-19.1130546-4.9081134-27.6908928 0-8.5528 4.9460773-13.8224094 14.0744322-13.8283848 23.9544137v7.1487887l-6.2018727-3.5743944c-8.5756586-4.9048599-19.1067035-4.9048599-27.682362 0C5.29136713 63.6338496.0198993199 72.746794 0 82.6163378V254.392005c.0129569847 4.979805 2.8656742 9.515888 7.34842197 11.684667 4.48274773 2.168779 9.80996893 1.590197 13.72259003-1.490392l47.1751808-37.14299 72.7675032 41.920224c4.037878 2.287404 8.980083 2.287404 13.017961 0 4.009464-2.320371 6.508981-6.619881 6.508981-11.252091V154.761094c-.030811-17.019551-9.122049-32.73501-23.860575-41.246292l-23.860576-13.7516083V27.6184372c.008794-3.6833738 1.979675-7.0829611 5.171779-8.9208389 3.192103-1.8378778 7.121678-1.8355227 10.311576.0061799l95.143724 54.8102236c9.375227 5.4168052 15.15982 15.4131017 15.184778 26.2406612v128.72085c0 3.668233-1.97914 7.080543-5.161118 8.914659l-25.208438 14.527909V127.240817c-.03385-17.016502-9.124681-32.7280069-23.860575-41.2377619l-58.572295-33.7392116v19.9876038l49.896498 28.7487087c9.379071 5.412957 15.165072 15.411686 15.184778 26.240661v132.158752c0 4.606619 2.490986 8.931721 6.50898 11.252092 4.038325 2.285707 8.979636 2.285707 13.017962 0l31.725948-18.281449C250.693859 247.447955 256 238.294434 256 228.44139V99.7205399c-.077453-17.004718-9.174057-32.6907571-23.894698-41.2036389h0zm-104.14369 69.986471c9.381705 5.414484 15.168113 15.417167 15.184777 26.249192v95.8859l-60.2443263-34.711719 19.3392653-15.20184c6.675163-5.212035 10.567091-13.216309 10.544036-21.685228v-59.254756l15.184778 8.726981-.00853-.00853zm-32.5278421-18.742111v69.244293c0 3.181979-1.4417009 6.142158-3.9326869 8.087174l-74.1580193 58.350495V82.5907455c.0052859-3.6829665 1.974086-7.0836282 5.1653926-8.9220601 3.1913066-1.8384319 7.120768-1.8356109 10.3094317.0074011l14.9032623 8.573428V205.007354l17.3430638-13.649239V55.1045913c.0035269-3.685609 1.9734956-7.0892309 5.1675286-8.9282196 3.194033-1.8389887 7.1266393-1.8338191 10.3158264.0135607l14.8862008 8.5648972v34.9932353l-17.334533-9.9980672V99.754663l17.3515945 10.006598h-.0170615z" fill="#0052cd"/></svg>