<svg width="256" height="273" xmlns="http://www.w3.org/2000/svg" preserveAspectRatio="xMidYMid"><path d="M232.105 58.517L136.962 3.68a27.879 27.879 0 00-27.691 0 27.682 27.682 0 00-13.829 23.912v7.157l-6.202-3.583a27.879 27.879 0 00-27.69 0A27.69 27.69 0 0047.72 55.122v7.148l-6.202-3.574a27.879 27.879 0 00-27.682 0A27.69 27.69 0 000 82.616v171.776a13.018 13.018 0 0021.071 10.194l47.175-37.143 72.768 41.92a13.206 13.206 0 0013.018 0c4.01-2.32 6.509-6.62 6.509-11.252v-103.35a47.73 47.73 0 00-23.86-41.246l-23.862-13.752V27.618a10.322 10.322 0 0115.484-8.914l95.144 54.81a30.387 30.387 0 0115.184 26.24v128.722c0 3.668-1.979 7.08-5.16 8.914l-25.21 14.528V127.241a47.73 47.73 0 00-23.86-41.238l-58.572-33.74v19.988l49.896 28.75a30.361 30.361 0 0115.185 26.24V259.4c0 4.606 2.491 8.931 6.51 11.252a13.214 13.214 0 0013.017 0l31.726-18.282c8.53-4.922 13.837-14.076 13.837-23.929V99.721a47.85 47.85 0 00-23.895-41.204zm-104.143 69.986a30.361 30.361 0 0115.184 26.25v95.885l-60.244-34.711 19.34-15.202a27.418 27.418 0 0010.543-21.685v-59.255l15.185 8.727-.008-.009zm-32.528-18.742v69.245c0 3.182-1.442 6.142-3.933 8.087l-74.158 58.35V82.591a10.314 10.314 0 0115.475-8.915L47.72 82.25v122.757l17.343-13.649V55.105a10.314 10.314 0 0115.484-8.915l14.886 8.565v34.993L78.099 79.75v20.005l17.352 10.006h-.017z" fill="#0052CD"/></svg>