<svg width="256px" height="272px" viewBox="0 0 256 272" xmlns="http://www.w3.org/2000/svg" preserveAspectRatio="xMidYMid"><title>Nightwatch.js</title><path fill="#452815" d="M5.30310544 184.601724l49.27523916 49.275239H256v7.498406H54.5764553l-30.5263904 30.522612-5.3031054-5.299327 28.9753218-28.971543L0 189.904829z"/><ellipse fill="#794422" cx="145.135435" cy="141.717794" rx="101.677176" ry="87.2830322"/><path d="M145.131657 0c13.212276 0 25.713113 4.26649865 36.83894 11.8698457L213.174637.38729484c3.004469-1.108355965 6.120856 1.22965613 5.971053 4.37322042l-.023716.29698858-5.067593 45.19576206c9.586382 19.1436172 15.212829 42.4638876 15.212829 67.6260591 0 65.095761-37.66773 117.869878-84.133664 117.869878-46.4640455 0-84.1298856-52.774117-84.1298856-117.869878 0-24.4565224 5.3150285-47.1730036 14.4147856-66.0056625L70.1589326 5.05750384c-.3646239-3.29106152 2.8508678-5.813201089 5.9548943-4.670209L107.95311 12.1060233C119.163858 4.35490604 131.784822 0 145.131657 0z" fill="#502d17"/><path d="M178.350218 33.0693116c21.673398-.0018892 39.237691 20.0127524 39.237691 44.7013815 0 24.2214679-16.911051 43.9427819-38.021569 44.6746609 14.645937 9.915657 24.16586 25.99227 24.16586 44.140548 0 30.118313-26.235919 54.53867-58.600543 54.53867-32.362735 0-58.596765-24.420357-58.596765-54.53867 0-18.138158 9.5086233-34.207645 24.138643-44.125068l-.801758-.018318c-21.068823-.778417-37.9388451-20.480757-37.9388451-44.6718229 0-24.6847611 17.5656207-44.6957138 39.2339121-44.6957138 14.247596 0 26.721409 8.6517034 33.594152 21.5950218 6.871037-12.9473645 19.345028-21.6006895 33.589222-21.6006895zM144.76026 100.872264c-2.420316 4.558319-5.535505 8.584396-9.178327 11.887708 3.1073-.475581 6.297567-.722187 9.549724-.722187 2.94564 1.72e-4 5.840513.202601 8.669458.593182-3.584466-3.277078-6.651178-7.258436-9.040855-11.758703z" fill="#fff"/><path d="M141.912386 93.0017712c2.165073-.8539379 4.590861-.8274885 6.735152.069902 6.840949 2.8452001 11.737868 6.3402999 16.041563 11.4223638 1.426379 1.687094 1.511395 4.11855.338175 5.987012-4.483174 7.145117-9.916637 12.516235-16.844492 17.842012-1.694651 1.301688-4.069429 1.301688-5.76408 0-6.927855-5.323888-12.361318-10.696895-16.846381-17.842012-1.163774-1.851459-1.061755-4.256465.34951-5.926556 4.469949-5.2804347 8.832211-8.7358603 15.990553-11.5527218z" fill="#ff7f2b"/><path d="M141.237927 138.93305c0 4.332034-3.508325 7.844137-7.83847 7.844137-4.335813 0-7.846027-3.512103-7.846027-7.844137h15.684497zm23.827134 0c0 4.332034-3.510214 7.844137-7.844138 7.844137-4.333923 0-7.844137-3.512103-7.844137-7.844137h15.688275zm-35.736923 15.633487c0 4.335813-3.512103 7.844137-7.846027 7.844137-4.332034 0-7.842248-3.508324-7.842248-7.844137h15.688275zm23.821466 0c0 4.335813-3.508324 7.844137-7.840359 7.844137-4.332034 0-7.846026-3.508324-7.846026-7.844137h15.686385zm23.829024 0c0 4.335813-3.513992 7.844137-7.844138 7.844137-4.330145 0-7.842248-3.508324-7.842248-7.844137h15.686386zm-59.565946 15.291534c0 4.337702-3.508325 7.844137-7.842249 7.844137-4.332034 0-7.840359-3.506435-7.840359-7.844137h15.682608zm23.825245 0c0 4.337702-3.508325 7.844137-7.83847 7.844137-4.335813 0-7.846027-3.506435-7.846027-7.844137h15.684497zm23.827134 0c0 4.337702-3.510214 7.844137-7.844138 7.844137-4.333923 0-7.844137-3.506435-7.844137-7.844137h15.688275zm23.821466 0c0 4.337702-3.508324 7.844137-7.840359 7.844137-4.332034 0-7.844137-3.506435-7.844137-7.844137h15.684496zm-59.558389 15.637265c0 4.335813-3.512103 7.844137-7.846027 7.844137-4.332034 0-7.842248-3.508324-7.842248-7.844137h15.688275zm23.821466 0c0 4.335813-3.508324 7.844137-7.840359 7.844137-4.332034 0-7.846026-3.508324-7.846026-7.844137h15.686385zm23.829024 0c0 4.335813-3.513992 7.844137-7.844138 7.844137-4.330145 0-7.842248-3.508324-7.842248-7.844137h15.686386zm-35.740701 15.291534c0 4.335813-3.508325 7.844137-7.83847 7.844137-4.335813 0-7.846027-3.508324-7.846027-7.844137h15.684497zm23.827134 0c0 4.335813-3.510214 7.844137-7.844138 7.844137-4.333923 0-7.844137-3.508324-7.844137-7.844137h15.688275z" fill="#d6d6d6"/><path d="M116.290471 95.595702c12.608448 0 22.829614-10.2211663 22.829614-22.8296139 0-12.6084476-10.221166-22.8296139-22.829614-22.8296139-12.608447 0-22.8296138 10.2211663-22.8296138 22.8296139 0 12.6084476 10.2211668 22.8296139 22.8296138 22.8296139zm55.855473.0037785c12.610534 0 22.833392-10.222858 22.833392-22.8333924 0-12.6105344-10.222858-22.8333924-22.833392-22.8333924-12.610534 0-22.833392 10.222858-22.833392 22.8333924 0 12.6105344 10.222858 22.8333924 22.833392 22.8333924z" fill="#c2ddeb"/><path d="M116.290471 87.0506553c7.889149 0 14.284567-6.3954186 14.284567-14.2845672 0-7.8891487-6.395418-14.2845673-14.284567-14.2845673-7.889149 0-14.284567 6.3954186-14.284567 14.2845673 0 7.8891486 6.395418 14.2845672 14.284567 14.2845672zm55.855473 0c7.889149 0 14.284567-6.3954186 14.284567-14.2845672 0-7.8891487-6.395418-14.2845673-14.284567-14.2845673-7.889149 0-14.284567 6.3954186-14.284567 14.2845673 0 7.8891486 6.395418 14.2845672 14.284567 14.2845672z"/><path d="M119.88759 72.7641988c2.919434 0 5.286102-2.3666686 5.286102-5.2861022 0-2.9194337-2.366668-5.2861023-5.286102-5.2861023-2.919434 0-5.286102 2.3666686-5.286102 5.2861023 0 2.9194336 2.366668 5.2861022 5.286102 5.2861022zm55.855473.0018893c2.920477 0 5.287991-2.3675145 5.287991-5.2879915 0-2.9204771-2.367514-5.2879915-5.287991-5.2879915-2.920477 0-5.287992 2.3675144-5.287992 5.2879915 0 2.920477 2.367515 5.2879915 5.287992 5.2879915z" fill="#fff"/><path d="M192.521431 235.773763c0 6.019129-3.325068 10.897154-7.41339 10.897154-4.097768 0-7.420947-4.878025-7.420947-10.897154 0 6.019129-3.321289 10.897154-7.419058 10.897154-4.093989 0-7.419057-4.878025-7.419057-10.897154 0 6.019129-3.317511 10.897154-7.417169 10.897154-4.0921 0-7.415279-4.878025-7.415279-10.897154 0-8.509151 9.931751-15.40111 22.185382-15.40111 12.249852 0 22.183493 6.891959 22.183493 15.40111h.136025zm-50.603377 0c0 6.019129-3.323179 10.897154-7.417168 10.897154-4.09588 0-7.419058-4.878025-7.419058-10.897154 0 6.019129-3.317511 10.897154-7.417169 10.897154-4.095879 0-7.4115-4.878025-7.4115-10.897154 0 6.019129-3.325068 10.897154-7.420947 10.897154-4.09399 0-7.4152797-4.878025-7.4152797-10.897154 0-8.509151 9.9317507-15.40111 22.1834927-15.40111 12.253631 0 22.19105 6.891959 22.19105 15.40111h.126579z" fill="#ff7f2b"/></svg>