<svg width="512px" height="141px" viewBox="0 0 512 141" xmlns="http://www.w3.org/2000/svg" preserveAspectRatio="xMidYMid"><title>nim</title><path d="M253.693237 129.15292V39.2071366h44.973814 0c12.683739 0 24.21525 11.5315107 24.216583 24.2161725V129.15292h0-16.144525l-9.23e-4-62.2701576h0c0-6.270259-4.612604-11.5315108-11.531511-11.5315108h-25.369323 0v85.3331794l-16.144115-11.531511zm99.171915 0V39.2071366h16.144115V129.15292h-16.144115zm0-110.7025028h16.144115V0l-16.144115 11.5315108v6.9189064zM415.13531 129.15292h-16.144115V39.2071366h88.792632C501.62164 39.2071366 512 49.5854962 512 63.4233091V129.15292l-16.144115 11.531511-9.23e-4-73.8016686c-9.2e-5-6.9189065-4.612604-11.5315108-11.53151-11.5315108h-20.755797V129.15292H447.42354V55.3512516h-32.28823V129.15292z"/><path d="M103.444986 2.62196198e-13c0 0-7.8652058 6.215530419999738-15.8832958 12.388924699999738C79.3134081 12.1268827 63.1355057 13.9737694 54.3696894 17.1617248 46.2945645 12.0459084 39.1991337 6.39756685 39.1991337 6.39756685c0 0-6.0631761 10.43098945-9.8761393 16.55237665-5.6547531 3.0074872-11.3322924 6.3901636-16.3923654 10.8656813C7.04522262 31.4785797.222673473 28.6293048 0 28.5351385c7.7940328 15.7207933 13.0336284 31.4623894 27.2866449 40.9238556 22.6916377-35.8377675 128.1377091-32.5346585 151.2984721-.2031852 14.967993-7.8070865 20.789284-24.6039773 26.675774-40.1114838-.645441.2126411-8.654883 2.8941094-13.846945 4.8743466-3.099993-3.3749503-10.40682-8.5639226-14.559709-11.0687743-3.93921-7.2134443-9.672516-16.95853955-9.672516-16.95853955 0 0-6.790607 5.05057105-14.661486 10.56101885-10.633413-1.9628477-23.494761-4.3478178-34.311987-3.7573352-7.3637-6.05256716-14.763262-12.79504149999974-14.763262-12.79504149999974h0z" fill="#f3d400"/><path d="M8.05863485 61.9443237c0 0 11.04688745 26.7480311 18.71910145 45.3344743 32.5102116 42.890923 115.5280717 45.872672 151.7196257.830407 8.564338-19.3008893 20.118658-46.4254012 20.118658-46.4254012-9.284942 13.7549936-24.395603 23.2501549-33.702017 28.3648642-6.612975 3.6227856-21.871539 5.8125964-21.871539 5.8125964l-40.059569-20.7592102-40.2897381 20.3439836c0 0-15.0556788-2.4188959-21.8715858-5.6050062-13.7564465-7.3434505-23.0085927-16.0193902-32.76293625-27.8967079z" fill="#ffe953"/></svg>