<svg width="256px" height="256px" viewBox="0 0 256 256" xmlns="http://www.w3.org/2000/svg" preserveAspectRatio="xMidYMid"><title>NocoDB</title><path d="M211.570833 256H44.4291667C19.8916667 256 0 236.108333 0 211.570833V44.4291667C0 19.8916667 19.8916667 0 44.4291667 0H211.570833C236.108333 0 256 19.8916667 256 44.4291667V211.570833C256 236.108333 236.108333 256 211.570833 256" fill="#0381fd"/><path d="M162.302917 117.771667c-4.995834-.220834-9.283334 3.729166-9.5125 8.766666-.229167 5.091667 3.520833 9.3375 8.566666 9.7 5.183334.366667 9.65-3.745833 9.766667-8.995833.1125-5.116667-3.733333-9.245833-8.820833-9.470833h0zM93.8070833 136.255c5.0458334.116667 9.1958337-3.8375 9.3583337-8.916667.166666-5.270833-3.9958337-9.5875-9.2208337-9.570881-5.0333333.020881-9.0916666 4.100048-9.1209929 9.170881-.0290071 5.079167 3.9418263 9.195834 8.9834929 9.316667h0zM165.63625 59.9175c-2.158333 5.6125-4.279167 11.1291667-6.529167 16.975 2.054167.825 3.695834 1.5041667 5.354167 2.1458333 38.2 14.7458334 64.854167 51.9124997 66.0875 92.1708337.266667 8.6875-.533333 9.541666-9.054167 9.545833-18.925.004167-37.85 0-56.779166 0h-6.079167c2.166667 5.6125 4.041667 10.475 5.966667 15.470833h35.65c7.758333-5.5625 14.145833-5.766666 18.85-.504166 4.070833 4.558333 3.929166 12.404166-.308334 16.866666-4.85 5.1-11.316666 4.725-18.733333-1.225-12.266667 0-24.716667.008334-37.1625-.004166-6.929167-.008334-8.445833-1.1375-10.933333-7.75-2.8-7.441667-5.6625-14.858334-8.5875-22.520834h-24.733334c-2.958333 7.654167-5.933333 15.3625-8.920833 23.066667-2.445833 6.295833-3.9875 7.279167-10.7708333 7.2625-13.1083334-.033333-26.2166667-.008333-39.1416667-.008333-7.3541667 5.954166-13.8541667 6.283333-18.7083333 1.091666C36.8320833 207.93 36.7445833 200.355 40.9070833 195.655c4.6708334-5.275 11.4375-5.070833 18.6958334.691667H97.26125c1.8833333-4.820834 3.795833-9.708334 5.979167-15.304167-2.141667-.108333-3.866667-.275-5.5875003-.275-21.4166667-.016667-42.8333334 0-64.25-.020833-6.9916667-.004167-8.0916667-1.1625-7.9875-8.129167.6458333-42.929167 29.3375-81.3916667 70.9041666-95.0625 1.8666667-.6125 3.7291667-1.2333333 6.0874997-2.0125-2.029166-5.2791667-3.9666663-10.3125-5.9791663-15.5458333h-36.625c-8.6708334 6.9416666-14.5583334 5.2083333-19.0583334.2875-4.25-4.6458334-3.875-12.3166667.4666667-16.8208334 4.8708333-5.0541666 10.9833333-4.6833333 18.7958333 1.275 12.7583334 0 25.7083334.1625 38.65-.0833333 5.3291667-.1 8.3124997 2.1041667 10.0624997 6.9666667 2.516667 7.0041666 5.3375 13.9 8.208334 21.3041666 11.170833-1.225 19.8625-.9958333 28.108333 0 2.475-6.4 5.1875-13.4791666 7.954167-20.5375 2.55-6.5041666 4.208333-7.6375 11.1-7.65 11.954166-.0166666 23.904166-.0041666 35.725-.0041666 8.704166-7.45 15.0625-5.3166667 19.441666-.6583334 4.191667 4.4625 3.820834 12.4833334-.470833 16.8208334-5.008333 5.0625-11.329167 4.7625-18.3-.9791667h-34.85z" fill="#fff"/><g style="fill:#0381fd"><path d="M93.8066667 136.254167c-5.0416667-.116667-9.0125-4.2375-8.983493-9.316667.0293263-5.066667 4.0876596-9.15 9.120993-9.166742 5.225-.020758 9.3875003 4.295909 9.2208333 9.566742-.1625 5.079167-4.3125 9.033333-9.3583333 8.916667"/><path d="M162.302917 117.771667c5.0875.225 8.933333 4.354166 8.820833 9.470833-.116667 5.25-4.583333 9.3625-9.766667 8.995833-5.045833-.3625-8.795833-4.608333-8.566666-9.7.229166-5.0375 4.516666-8.9875 9.5125-8.766666"/></g></svg>