<svg width="256px" height="257px" viewBox="0 0 256 257" xmlns="http://www.w3.org/2000/svg" preserveAspectRatio="xMidYMid"><path d="M192.0834 4e-4l-64.243 43.18.233 1.398 62.406 41.603 1.604.04.803-1.359.155-82.975-.958-1.887z" fill="#138ee2"/><g style="fill:#00bdff"><path d="M62.9208 174.2287l-.212 78.211 1.624 3.893 63.925-42.408-.443-2.282-58.764-39.317-4.718-1.215-1.412 3.118z"/><path d="M192.0834 4e-4v86.221L64.9154.9984l-.79 3.538 186.924 207.952 4.95 1.816V42.7774L192.0834 4e-4z"/></g><path d="M0 42.9439v170.778l64.333 42.611v-85.222l127.75 85.555 63.584-42.611L64.915.9989 0 42.9439z" fill="#00e1ff"/></svg>