<svg width="256px" height="274px" viewBox="0 0 256 274" xmlns="http://www.w3.org/2000/svg" preserveAspectRatio="xMidYMid"><path fill="#00a" d="M96.8648649 58.1528216 128 40.177009l31.135135 17.9758126v43.9411314l34.594595 19.973074V38.1797477L128 .230354607 62.2702703 38.1797477v83.8877403l34.5945946-19.973535z"/><path fill="#0aa" d="M186.810811 126.06155 128 160.015914 69.1891892 126.06155 128 92.1071856z"/><g style="fill:#00a"><path d="M62.2701923 130.056586 1.05318379e-4 166.008062v71.903455L62.2701923 273.862229l62.2703397-35.950712v-71.903455l-62.2703397-35.951476zm0 31.957086 34.5946611 19.972932v39.946357l-34.5946611 19.973192-34.5944088-19.973192v-39.946357l34.5944088-19.972932z"/><path d="M193.72973 241.906162l-34.594595-19.973304v-7.989045l-27.675676-15.978552v39.946379l62.270271 35.950702L256 237.91164v-15.978782l-83.027027-47.935654 20.756757-11.984029 34.594594 19.973535v7.989045L256 205.954306v-39.946147l-62.27027-35.952087-62.270271 35.952087v15.978551l83.027027 47.935654z"/></g></svg>