<svg width="256px" height="256px" viewBox="0 0 256 256" xmlns="http://www.w3.org/2000/svg" preserveAspectRatio="xMidYMid"><path fill="#f7df1e" d="M0 0h256v256H0z"/><g transform="translate(117.84127 113.371429)" fill="#2e2e2c"><path d="M102.281464 36.8767277H16.3646051c-8.81398989 0-15.958256381 7.5620027-15.958256381 16.5579888v45.7360086H117.665638V53.4347165c0-8.9959861-6.568963-16.5579888-15.384174-16.5579888h0zM32.9140438 74.0393722c-5.8006705 0-10.5020351-4.7990807-10.5020351-10.7182319 0-5.9191512 4.7013646-10.7194533 10.5020351-10.7194533 5.8006705 0 10.5008136 4.8003021 10.5008136 10.7194533 0 5.9191512-4.7001431 10.7182319-10.5008136 10.7182319h0zm53.7084189 0c-5.7994491 0-10.5020351-4.7990807-10.5020351-10.7182319 0-5.9191512 4.702586-10.7194533 10.5020351-10.7194533 5.7982275 0 10.5008136 4.8003021 10.5008136 10.7194533 0 5.9191512-4.7025861 10.7182319-10.5008136 10.7182319h0z"/><path d="M22.5988907 103.376181h72.5492995c2.0813524 0 3.7657332 1.721024 3.7657332 3.843906 0 2.124103-1.6843808 3.845127-3.7657332 3.845127H22.5988907c-2.080131 0-3.7669547-1.721024-3.7669547-3.845127 0-2.12166 1.6868237-3.843906 3.7669547-3.843906h0z"/><path d="M34.8671438 114.620858h48.6626051c2.0813524 0 3.7669547 1.722246 3.7669547 3.846349 0 2.124103-1.6856023 3.843906-3.7669547 3.843906H34.8671438c-2.0801309 0-3.7669546-1.719803-3.7669546-3.843906 0-2.124103 1.6868237-3.846349 3.7669546-3.846349h0z"/><path d="M67.8450975 8.06270021c0-4.32393629-3.323568-7.829500464-7.5607813-7.829500464-4.2335489 0-7.354356 3.505564174-7.354356 7.829500464 0 2.68841349 1.2202295 5.05924979 3.6631313 6.46880409v13.3223653c0 2.2828918 1.4303191 4.1321685 3.6643528 4.1321685 2.2364767 0 3.6643528-1.8492767 3.6643528-4.1321685V14.7538084c2.4429019-1.3729108 3.9233004-3.8512348 3.9233004-6.69110819h0z"/></g></svg>