<svg width="256px" height="268px" viewBox="0 0 256 268" xmlns="http://www.w3.org/2000/svg" preserveAspectRatio="xMidYMid"><title>Notion</title><path d="M16.0924984 11.5384656 164.089991.608048392c18.178728-1.56021453 22.850456-.5081841614 34.280142 7.801072648l47.243296 33.28160476C253.405586 47.4144843 256 48.9746988 256 55.2066414V237.73391c0 11.438602-4.154628 18.205475-18.695828 19.239674L65.4398551 267.377986c-10.9125862.5171-16.1103294-1.043114-21.8251724-8.327087L8.82635648 213.813593C2.58549836 205.486505 0 199.254562 0 191.970589V29.7261093c0-9.3523717 4.1546284-17.1534443 16.0924984-18.1876437z" fill="#fff"/><path d="M164.089991.608048392 16.0924984 11.5384656C4.1546284 12.572665 0 20.3737376 0 29.7261093V191.970589c0 7.283973 2.58549836 13.515916 8.82635648 21.843004l34.78832622 45.237306c5.714843 7.283973 10.9125862 8.844187 21.8251724 8.327087l171.8643169-10.404402C251.836456 255.939385 256 249.172512 256 237.73391V55.2066414c0-5.9109842-2.335864-7.6138469-9.209723-12.6600265-.395528-.284917-.790783-.5702135-1.185764-.8558891l-47.23438-33.28160476C186.940447.0998642306 182.268719-.952166138 164.089991.608048392zM69.3270182 52.219945c-14.0330153.9450443-17.2158529 1.1590165-25.1863203-5.3225604l-20.2649578-16.119245c-2.0594832-2.0862297-1.0252839-4.6895591 4.1635439-5.2066587l142.273734-10.3954866c11.946786-1.0431148 18.169813 3.1204291 22.841541 6.7579578l24.401755 17.6794595c1.043115.5260152 3.637529 3.6375288.5171 3.6375288L71.1457825 52.0951279l-1.8187643.1248171zM52.9670544 236.173696V81.2221043c0-6.7668733 2.0773142-9.8873024 8.3003413-10.4133176l168.7528033-9.8783868c5.723759-.5170997 8.309257 3.120429 8.309257 9.8783868V224.726179c0 6.766873-1.043115 12.490632-10.386571 13.007731l-161.4866616 9.361288c-9.3434561.517099-13.489169-2.594414-13.489169-10.921502zM212.376402 89.5313611c1.034199 4.6806435 0 9.3612871-4.680644 9.8962178l-7.783241 1.5423831v114.403845c-6.757958 3.637529-12.980985 5.714843-18.178729 5.714843-8.309256 0-10.386571-2.603329-16.609598-10.395486l-50.898655-80.079125v77.475795l16.101414 3.646445c0 0 0 9.361287-12.989901 9.361287l-35.81361 2.077314c-1.0431148-2.08623 0-7.283973 3.6286133-8.318172l9.3523716-2.594414V109.823065l-12.9809849-1.05203c-1.0431148-4.680644 1.5512991-11.4386013 8.8263565-11.9646165l38.4258555-2.5854983 52.958138 81.1133248v-71.760953l-13.498084-1.551299c-1.043115-5.7326741 3.111513-9.8962181 8.300341-10.4044022l35.840357-2.0862297h0z"/></svg>