<svg width="256px" height="308px" viewBox="0 0 256 308" xmlns="http://www.w3.org/2000/svg" preserveAspectRatio="xMidYMid"><path d="M235.733836 269.65287c-13.904096 13.905096-48.045333 4.005027-87.061603-22.239154l64.98945-64.570448c26.113181 38.90727 35.945249 72.936505 22.072153 86.809602h0 0zM34.9234439 128.986894C14.9293053 95.4576617 8.47326049 67.0994651 20.8263461 54.7463795c12.4090861-12.409086 40.9452839-5.8500406 74.6715177 14.3570996L34.9234439 128.986894h0zM224.80276 171.774191l18.76213-18.641129V0l-91.367633 90.7526291c-1.847013-1.5600108-3.696026-3.0870214-5.545039-4.5890317l18.762131-18.4921282L165.398348 0l-58.806407 58.135403C64.66365 33.5222324 27.2243905 26.7301853 9.76126942 44.1933064-7.6238511 61.5774268-.992805129 98.7306844 23.3493636 140.428974L9.71226912 153.911067v153.142061l71.74249728-71.180493-.0970007-85.355591 53.8503733-53.0743685c1.851013 1.5240105 3.704026 3.0790215 5.558038 4.6640325l-52.1543609 51.804359-.0060001 153.180061 48.391336-48.078333c46.832324 30.785214 90.076624 40.837284 109.248757 21.665151 19.124133-19.124133 9.161063-62.205431-21.443149-108.903755h0 0z" fill="#7d4f8f"/><path d="M9.6703191 154.304416v153.533445l71.9258489-71.362409-.0972486-85.573733 84.2714056-83.0573025L165.754284 0 9.6703191 154.304416" fill="#3f2a70"/><path d="M88.2563424 307.885667l.0060156-153.576385L243.616343 0v153.529264L88.2563424 307.885667" fill="#5a2a79"/><path d="M136.995104 258.883822c46.832967 30.784978 90.076936 40.836971 109.248922 21.664985 27.020981-27.020981-4.012997-101.863927-69.315951-167.166881C111.625122 48.0789724 36.7821755 17.0449945 9.76119479 44.0659753-7.62379281 61.4499628-.992797539 98.6029363 23.3491851 140.300907l11.5749918-11.441992c-19.9949857-33.5289764-26.45098119-61.8869562-14.09799-74.2399473C41.3751722 34.0699823 106.142126 65.51996 165.486084 124.864918c59.344957 59.343958 90.794935 124.109911 70.24595 144.658897-13.90399 13.90499-48.044966 4.004997-87.060938-22.238984l-11.675992 11.598991" fill="#7d4f8f"/></svg>