<svg width="256px" height="274px" viewBox="0 0 256 274" xmlns="http://www.w3.org/2000/svg" preserveAspectRatio="xMidYMid"><path d="M191.54779 186.292389l.059495 60.519741-53.704247 26.799239V213.11807l53.644752-26.825681zm64.453028-32.345504v60.731279l-45.804619 22.85934-.033053-60.453635 45.837672-23.136984zm-64.532355-48.660384.059495 59.885126-53.62492 26.647196v-59.904958l53.565425-26.627364zm64.532355-32.0810819v59.5083239l-45.850893 23.30886-.039663-60.0041172 45.890556-22.8130667zm-126.26183-7.0402539 47.933222 24.1946753-49.731296 24.9747225-47.0275738-23.6195563 48.8256478-25.5498415zM63.0648093 32.5107686 108.783491 55.588258 59.8454631 81.1314889 12.8906057 57.5515964l50.1742036-25.0408278zm130.6909097.35036 49.242114 24.6904678-44.039598 22.1189572-48.03238-24.2277281 42.829864-22.5816969zM128.231779 3.55271368e-15 172.562241 22.2247263l-42.505946 22.6940765-45.6790177-23.037826L128.231779 0z" fill="#4dabcf"/><path d="M118.943932 131.913865l-36.1730225-18.18567v78.606252c0 0-44.2379144-94.1278635-48.3364659-102.5827787-.5288454-1.0907436-2.703722-2.2872562-3.2590096-2.5781211C23.2427536 83.0088899 0 71.2354701 0 71.2354701V210.110262l32.1537979 17.187474V154.7071c0 0 43.7685642 84.106244 44.2114722 85.025113.442908.918868 4.8389351 9.783639 9.5324376 12.897216 6.2535964 4.138215 33.0528353 20.254777 33.0528353 20.254777l-.006611-140.970341z" fill="#4d77cf"/></svg>