<svg width="256px" height="168px" viewBox="0 0 256 168" xmlns="http://www.w3.org/2000/svg" preserveAspectRatio="xMidYMid"><title>Nuxt</title><path d="M143.618122 167.029035h95.165817c3.022915 0 5.992264-.771014 8.609924-2.237293 2.617659-1.466278 4.791106-3.574798 6.301752-6.114544C255.206261 156.137993 256 153.257377 256 150.325361c0-2.932017-.798609-5.81155-2.31196-8.350214L189.777766 34.5996651c-1.510646-2.5388264-3.684093-4.6471837-6.301211-6.1130836-2.617118-1.4658459-5.585926-2.2376171-8.607759-2.2376171-3.022374 0-5.991183.7717712-8.608301 2.2376171-2.617118 1.4658999-4.790024 3.5742572-6.30067 6.1130836l-16.341703 27.4735723-31.950808-53.72374864c-1.511728-2.5386641-3.685716-4.64669675-6.303376-6.11232078C102.745738.771560187 99.7763886 7.10542736e-15 96.7540148 7.10542736e-15c-3.0223737 0-5.9917234.7715601869999927-8.6099237 2.237167979999993C85.526432 3.70279201 83.3524438 5.81082466 81.8407159 8.34948876L2.31153321 141.975147c-1.512977798 2.538664-2.311533210000014 5.418197-2.311533210000014 8.350214 1.52020028e-23 2.932016.793339571000014 5.812632 2.304039490000015 8.351837 1.51069993 2.539746 3.68418488 4.648266 6.30178997 6.114544 2.61765914 1.466279 5.58717114 2.237293 8.60986954 2.237293h59.7370605c23.6687685 0 41.1234365-10.084319 53.1339365-29.758424l29.158927-48.9829073 15.618303-26.2144663 46.873847 78.7418726h-62.49215l-15.627501 26.213925zm-67.6392746-26.240979-41.6887386-.009198L96.781609 35.7961702l31.181418 52.4915335-20.877428 35.0841003c-7.9757991 12.765281-17.0369687 17.416252-31.1067516 17.416252z" fill="#00dc82"/></svg>