<svg width="512px" height="98px" viewBox="0 0 512 98" xmlns="http://www.w3.org/2000/svg" preserveAspectRatio="xMidYMid"><title>Nvidia</title><path d="M312.804734 18.3939138v63.8377007h18.015215V18.3939138h-18.015215zm-141.741336-.1081995v63.8918005h18.177515V32.5680473l14.174133.0540998c4.652579 0 7.898563 1.1360947 10.116653 3.5164835 2.867287 3.0295858 4.003381 7.9526627 4.003381 16.8791209v29.1597633h17.636518V46.9044801c0-25.2104818-16.067625-28.6187658-31.756552-28.6187658h-32.351648 0zm170.7929.1081995v63.8377007h29.213863c15.580727 0 20.666103-2.5967878 26.130177-8.3854607 3.895182-4.0574809 6.38377-13.0380388 6.38377-22.8300929 0-8.9805579-2.10989-16.9873204-5.842772-21.9644971-6.600169-8.9264581-16.229924-10.65765-30.620457-10.65765h-25.264581 0zm17.852916 13.8495351h7.736264c11.252747 0 18.502113 5.0312764 18.502113 18.123415 0 13.0921386-7.249366 18.1775148-18.502113 18.1775148h-7.736264V32.2434489zm-72.872359-13.8495351-15.039729 50.5832629-14.390533-50.5832629h-19.475908l20.557903 63.8377007h25.967879l20.774302-63.8377007h-18.393914 0zm125.186814 63.8377007h18.015215V18.3939138h-18.015215v63.8377007zm50.529163-63.8377007-25.156382 63.783601h17.744717l4.003381-11.306847h29.75486l3.786983 11.2527472H512l-25.372781-63.7295012h-24.074387 0zm11.685545 11.6314455 10.928149 29.86306H462.98563l11.252747-29.86306z"/><path d="M54.8030431 28.9974641v-8.7641589c.865596-.0540998 1.7311919-.1081995 2.5967878-.1081995 24.0202874-.7573965 39.7633136 20.6661031 39.7633136 20.6661031 0 0-16.9873203 23.5874894-35.2189349 23.5874894-2.4344886 0-4.8148774-.3786982-7.0870667-1.1360946V36.6255283c9.3592561 1.1360947 11.2527472 5.2476754 16.8250211 14.6069315L84.1792054 40.737109c0 0-9.1428571-11.9560439-24.5071851-11.9560439-1.6229924-.0540998-3.2459848.0540997-4.8689772.216399m0-28.9974641v13.0921386l2.5967878-.1622992c33.3795436-1.1360947 55.1817411 27.3744717 55.1817411 27.3744717 0 0-24.9940826 30.4040575-51.0160606 30.4040575-2.2721893 0-4.4902789-.216399-6.7083685-.5950973v8.114962c1.8393913.216399 3.7328825.3786982 5.5722738.3786982 24.2366864 0 41.7650043-12.3888419 58.7523243-26.9957734 2.813187 2.2721893 14.336433 7.7362637 16.716822 10.1166526-16.121724 13.5249366-53.7210482 24.3989856-75.0363483 24.3989856-2.0557904 0-4.0033812-.1081995-5.9509721-.3245985v11.4150465h92.0777684V0H54.8030431h0zm0 63.2426036v6.9247675c-22.397295-4.0033812-28.6187658-27.3203719-28.6187658-27.3203719 0 0 10.7658495-11.9019443 28.6187658-13.8495351v7.5739645h-.0540997c-9.3592562-1.1360947-16.7168217 7.6280642-16.7168217 7.6280642 0 0 4.1656805 14.7692308 16.7709214 19.0431108M15.0397295 41.8732037c0 0 13.2544379-19.5841082 39.8174134-21.6398985v-7.1411666C25.4268808 15.4725275 0 40.3584108 0 40.3584108c0 0 14.3905325 41.6568048 54.8030431 45.443787v-7.5739645c-29.646661-3.6787828-39.7633136-36.3550296-39.7633136-36.3550296z" fill="#76b900"/></svg>