<svg width="512px" height="172px" viewBox="0 0 512 172" xmlns="http://www.w3.org/2000/svg" preserveAspectRatio="xMidYMid"><title>nvm</title><g style="fill:#333"><path d="M511.711876 110.871259c0 15.558692 0 31.117384 0 46.676077 0 6.338726-2.20895 7.587263-7.779346 4.4179-11.140792-6.338727-22.281584-12.773494-33.422376-19.01618-4.033735-2.20895-5.85852-5.18623-5.762478-9.892254.192082-13.733908 0-27.371774.096041-41.1056809 0-4.8981068-1.728744-8.2595526-6.146644-10.564544-4.4179-2.3049915-8.739759-4.8981068-12.965577-7.3951809-3.169363-1.9208262-6.338726-2.0168675-9.508089-.0960413-4.802066 2.785198-9.700172 5.570396-14.598279 8.355594-2.88124 1.6327022-4.129777 3.8416523-4.129777 7.2991395.096042 22.5697076 0 45.0433746-.096041 67.6130816 0 6.914975-2.112909 8.06747-8.163511 4.609983-11.044751-6.338726-21.99346-12.677453-33.134252-18.824097-4.033735-2.20895-5.85852-5.18623-5.762479-9.892254.192083-13.733908 0-27.371774.096042-41.1056809 0-4.8981068-1.728744-8.2595526-6.146644-10.564544-4.321859-2.2089501-8.547677-4.7060242-12.677453-7.2030982-3.553528-2.2089502-6.914974-2.1129089-10.564544.0960413-4.129776 2.497074-8.355594 4.9941481-12.677453 7.2991395-4.225817 2.2089501-6.050602 5.4743546-5.954561 10.1803788.192083 13.9259895 0 27.9480215.096041 41.8740105 0 4.225818-1.536661 7.011016-5.18623 9.027884-11.620999 6.530809-23.145956 13.2537-34.766954 19.784509-4.609983 2.593116-7.107057 1.152496-7.107057-4.129776 0-31.597591 0-63.291223-.096042-94.8888138 0-3.8416524 1.536661-6.6268504 4.898107-8.5476766 20.456799-11.7170397 40.913598-23.4340795 61.274356-35.1511192 3.361445-1.9208262 6.530809-1.9208262 9.892254.0960413 13.15766 7.5872634 26.411361 15.0784856 39.56902 22.7617903 2.016868 1.1524957 3.361446 1.1524957 5.378313 0 12.773495-7.4912221 25.739071-14.6943203 38.512565-22.2815838 4.129777-2.4010327 7.683305-2.497074 11.909123 0 19.78451 11.5249572 39.761102 22.953873 59.641653 34.2867475C510.367298 56.8000018 512 59.8733237 512 64.291224c-.096041 15.5586921 0 31.1173843 0 46.676076h-.288124v-.096041z"/><path d="M.0998202501 110.583135c0-15.270568.0960413099-30.6371776-.09604130949-45.9077458C-.0922623689 59.8733237 1.6364812 56.8000018 5.86229882 54.3989691 25.9349325 42.9700533 45.9115249 31.4450961 65.792076 19.920139c3.6495697-2.1129088 6.8189329-2.2089501 10.4685027-.0960413 20.0726337 11.6209984 40.1452673 23.1459556 60.3139423 34.5748714 3.937694 2.2089501 5.666437 5.1862307 5.666437 9.7001723-.096041 31.1173842-.096041 62.2347686-.192082 93.4481946 0 6.338726-2.304992 7.683304-7.779346 4.609982-11.236834-6.434767-22.473667-12.965576-33.806541-19.208262-3.7456114-2.112908-5.5703963-4.898106-5.4743549-9.316007.1920826-13.829948 0-27.659897.0960413-41.4898453.0960413-4.8981067-1.6327023-8.3555939-6.0506025-10.564544-4.5139416-2.3049914-8.9318418-4.9941481-13.3497421-7.5872635-3.0733219-1.8247848-6.0506025-1.8247848-9.2199657 0-4.7060241 2.785198-9.4120483 5.570396-14.2141138 8.1635113-3.7456111 2.0168675-5.0901894 5.0901895-5.0901894 9.2199658.0960413 13.9259897-.0960413 27.9480207.0960413 41.8740107.0960413 4.706024-1.7287435 7.683305-5.7624785 9.892255-11.2368333 6.242685-22.2815839 12.677453-33.42237576 19.016179-5.47435464 3.169364-7.87538738 1.824785-7.87538738-4.4179 0-15.750775 0-31.405508-.0960413099-47.156283h0 0z"/><path d="M148.186175 62.330768c.359394-.0032722.692948.1864936.873693.4971495l2.782118 4.7810835 11.756-.08-.62189-1.1194318c-.347245-.6250405.054983-1.3871483.739922-1.4768956l.116694-.0085935 5.474355-.0960413c.361632-.0063444.698506.183081.880968.495372l5.013837 8.5829956 1.305114 2.4565946 15.443772-2.1138259c.361753-.0495257.718172.1020718.934168.3887544l.066612.1004734 3.841301 6.6262451 1.728258 2.9764441 16.711188 28.7163519c.177858.30563.181079.68247.008471.991096l-20.840964 37.264028c-.369406.660506-1.310218.687194-1.716474.048692l-55.607919-87.3975923c-.421324-.6621843.049531-1.529437.834355-1.5367718l10.276421-.0961279zm36.003862-8.643455c.355767-.0074636.6887.1746931.874256.47833l5.282272 8.6437179c.402514.6586598-.061328 1.505655-.833084 1.521246l-9.50809.1920826c-.351167.0070943-.680311-.1705675-.867088-.4680279l-2.299317-3.6616606-3.576685 1.162e-4c-.300478 0-.582567-.1349068-.771082-.363242l-.074844-.103457-2.785198-4.4179002c-.414794-.6579499.047336-1.5167674.824952-1.533081l13.733908-.288124zm-41.004289-13.7342451c.36238-.0054222.699461.1854296.881049.4990814l.757189 1.3068517 5.549249-.172625c.321115-.0100349.62483.1346471.819562.3842296l.067737.0984134 6.146643 10.1803788c.398012.6592063-.067117 1.5020228-.83702 1.5166877l-10.084337.1920827c-.357995.0068189-.692316-.1782886-.876537-.4853229l-3.167297-5.2778443-1.641647 8.699e-4c-.305215 0-.591131-.1391607-.779441-.3734997l-.0745-.1061301-3.745611-6.1466438c-.402448-.6604272.065025-1.5081654.838318-1.5202481l6.146643-.0962813zm16.125879-11.5245346c.353476-.0087278.685283.1698584.872682.4696963l1.137677 1.8217714 8.076446-.1786167c.318401-.0070756.61854.1377461.811319.3854657l.067086.0976224 6.722892 11.1407919c.398214.6598978-.068324 1.5032298-.838949 1.5165164l-11.140792.192374c-.355088.0058309-.686783-.1768352-.871438-.4801957l-3.736564-6.136958-4.707065.0860367c-.30972.0056313-.601847-.1323938-.794177-.3690736l-.076078-.107343-4.129777-6.7228917c-.403526-.6569029.056683-1.5040836.827392-1.5231135l7.779346-.1920826zm-29.002512 1.7286971c.357902-.0081342.69285.1756743.878221.4819392l2.20895 3.6495698c.398135.6577882-.064084 1.5000741-.832779 1.5175445l-4.225818.0960413c-.357902.0081341-.69285-.1756744-.878221-.4819392l-2.20895-3.6495698c-.398135-.6577882.064084-1.5000742.832779-1.5175445l4.225818-.0960413zm12.952606-2.5927364c.362693-.0129533.703934.1716152.891608.4822472l2.785198 4.6099829c.394448.6528796-.057925 1.4892535-.820224 1.5164785l-5.378314.1920826c-.362693.0129533-.703934-.1716152-.891608-.4822472l-2.785198-4.6099828c-.394448-.6528796.057925-1.4892535.820224-1.5164785l5.378314-.1920827zm-11.700213-8.7402183c.353922-.0066778.685001.1742511.870523.4757246l3.073322 4.9941481c.405594.6590902-.059041 1.5093204-.832793 1.5239195l-5.09019.0960413c-.353922.0066777-.685001-.1742511-.870523-.4757248l-3.073321-4.9941481c-.405594-.6590902.059041-1.5093202.832793-1.5239193l5.090189-.0960413zm28.709584-3.265254c.359526-.0092186.696312.1753329.882013.4833249l3.937693 6.5308091c.395958.6567109-.064154 1.4963617-.830747 1.516018l-7.491222.1920826c-.359526.0092186-.696312-.1753329-.882013-.4833248l-3.937694-6.530809c-.395958-.6567109.064154-1.4963618.830747-1.5160181l7.491223-.1920827zm-17.949963-5.2824746c.356049-.0056516.688242.1784607.872162.4833809l3.649569 6.0506025c.39835.6604223-.069258 1.5041265-.84042 1.5163672l-6.050602.0960413c-.356049.0056516-.688242-.1784607-.872162-.4833809l-3.64957-6.0506025c-.39835-.6604222.069258-1.5041266.84042-1.5163672l6.050603-.0960413zm-15.186423-8.45137561c.357669-.00993526.693392.17198537.880368.47705234l1.824785 2.9772806c.401917.65575833-.056004 1.50082012-.824834 1.5221765l-3.457488.09604131c-.357669.00993526-.693392-.17198545-.880368-.47705254l-1.824784-2.9772806c-.401917-.65575833.056004-1.50081991.824834-1.5221763l3.457487-.09604131zm25.936199-1.824912292997c.357902-.008134153223.69285.175674325997.878221.481939175997l2.20895 3.649569757c.398135.65778822-.064084 1.50007416-.832779 1.5175445l-4.225817.09604131c-.357902.00813415-.69285-.17567433-.878221-.48193918l-2.20895-3.64956976c-.398135-.657788213.064084-1.500074157.832779-1.5175444935l4.225817-.096041309497z"/></g><path d="M227.717724 68.9972481c4.4179-7.5872634 8.8358-15.1745269 13.157659-22.7617903.960413-1.6327023 2.112909-2.3049914 4.033735-2.3049914 12.869536.0960413 25.739071 0 38.512565 0 3.64957 0 4.609983 1.4406196 3.073322 4.8020654-4.033735 6.818933-8.163511 13.5418247-11.813081 20.5528403-4.321859 7.3951808-8.643718 14.6943203-12.965577 22.0895012-9.508089 16.5191047-19.016179 33.0382107-28.62031 49.4612747-4.706024 7.875387-9.316007 15.750774-14.69432 23.241997-1.152496 1.632702-2.401033 3.265404-3.745611 4.706024-3.457487 3.649569-6.338727 3.649569-9.796214-.096042-1.632702-1.728743-6.914974-9.412048-4.129776-4.898106-4.513942-7.107057-9.988296-15.174527-14.502238-22.281584 1.44062-3.361446 17.287436-31.981756 21.417212-39.184854.480207-.480207 14.022031-22.8578321 20.072634-33.3263349h0z" fill="#f4dd4b"/><path d="M186.323919 141.508437l21.897419-40.241309-5.954561-9.988296"/></svg>