<svg width="256px" height="160px" viewBox="0 0 256 160" xmlns="http://www.w3.org/2000/svg" preserveAspectRatio="xMidYMid"><title>Nx</title><path d="M39.3706931 0l55.9643054 94.219626.0489198-42.6483229 32.4729947 50.7592339-33.4122557 52.510564-55.3870512-89.8853277-.1271916 94.1022187H0V0h39.3706931zm94.8947199 44.4681135 16.202253 25.4383483.205464.3522229c10.587993-16.1092456 28.576123-25.8039314 47.853394-25.7905712 31.247455 0 56.655045 26.4472299 57.273993 57.5828175l.011149 1.052539h-.029352l-9.53e-4.395149c-.0564 2.585434-1.437296 4.96989-3.668434 6.302855-2.310823 1.38057-5.182636 1.423461-7.533657.112516-2.26995-1.265742-3.721437-3.607895-3.855022-6.190492l-.009247-.277589-.004465-.357661c-.124354-4.9239957-2.83267-6.9222478-6.389241-8.3957195l-.526328-.2121625h0l-.537229-.2063422h0l-.546923-.2021941h0l-2.837699-1.0072744h0l-.579696-.2124206h0l-.580927-.2199776h0l-.580949-.2292067c-.096759-.0390631-.193469-.0785805-.290105-.1185868l-.578716-.2461857h0l-.575716-.259595c-2.295255-1.0674289-4.489505-2.4968166-6.234607-4.7697424l-.204648-.273608h0l-.203464-.2849806h0l-.304447-.4472699h0l-.408054-.6296592h0l-1.28978-2.0643488h0l-.469708-.7279886h0l-.370916-.5532812h0l-.257411-.3710188h0l-.402995-.5580327h0l-.280895-.3720085h0l-.291465-.3711848c-.049495-.0617568-.099459-.1234502-.149905-.1850657l-.308577-.3686424c-3.041028-3.5522638-7.798811-6.7448513-17.003179-6.7448513-7.611549-.0025965-14.912095 3.0199299-20.294274 8.4021085-5.382178 5.3821786-8.404705 12.6827244-8.402108 20.2942735.020934 1.085233.277923 2.151553.751556 3.125324l.148569.289282 34.243893 53.890104H167.18847l-16.720804-25.232858-16.427284 25.232858H96.2840435l36.0441435-56.747023-36.9344847-57.8428555h38.8717107zm121.585389 66.7560515c.383803 2.68257.004027 5.419001-1.095805 7.895663-1.321694 3.05792-3.185662 3.61105-4.427624 3.582492l-.206597-.010234h0l-.193107-.019479h0l-.178315-.026568h0l-.236883-.048438h0l-.196267-.05228h0l-.253087-.087025h0l-.091873-.042675h0l-.111467-.062758h0l-.16704-.1043h0l-.134662-.092494h0l-.148003-.110778h0l-.156803-.12899c-.026615-.023012-.053407-.04678-.080281-.071303l-.161484-.156175c-.697499-.715883-1.322945-1.939708-.212909-3.645231.820964-1.268062 1.957746-1.978887 3.147165-2.617567l1.201214-.634753c1.439023-.776206 2.826751-1.683016 3.703828-3.567107zM134.363253 0v40.4371458l-.088056.4500626H95.3937023l-.009784-.4500626L95.4328382 0h38.9304148z" fill="#012f55"/><path d="M194.368337 84.9835588c-9.314464-.1765795-17.729802 5.5342485-21.006182 14.2552435 5.454356-8.1567955 15.839927-11.4343088 24.988258-7.8858794 4.226675 1.7219786 9.783969 4.500626 14.186756 3.0134626-4.18724-5.8763681-10.953257-9.3705036-18.168832-9.3828267h0z" fill="#96d8e9"/><path d="M238.484256 104.121003c0-4.7647931-2.592752-5.8703816-7.973935-7.8271755-3.99186-1.3893237-8.521838-2.9547588-11.819036-7.2597054-.645741-.8512053-1.242564-1.8100343-1.878522-2.8275671-1.424722-2.6354004-3.356619-4.962988-5.684486-6.8487787-3.140654-2.3090168-7.259705-3.4341732-12.601753-3.4341732-10.719061.0075047-20.375907 6.4775913-24.459923 16.3881488 5.162965-7.1639942 13.743264-11.0456098 22.532625-10.1934668 8.789362.852143 16.464211 6.3097218 20.154834 14.3320859 1.843901 3.0425816 5.480331 4.495557 8.913196 3.561365 5.253991-1.1251566 4.891984 3.8451 12.826784 5.527943l-.009784-1.418676z" fill="#48c4e5"/></svg>