<svg width="256px" height="267px" viewBox="0 0 256 267" xmlns="http://www.w3.org/2000/svg" preserveAspectRatio="xMidYMid"><title>Observable</title><path d="M128 221.867008c-11.819008 0-22.059008-2.574336-30.72-7.72096-8.6301696-5.127168-15.5300864-12.3904-19.9146496-20.964352-4.6616576-8.921088-8.0741376-18.3552-10.1547008-28.07296C65.0031104 154.569728 63.9277056 143.854592 64 133.12c0-8.500224.5547008-16.625664 1.6746496-24.395776 1.1094016-7.759872 3.1680512-15.648768 6.1654016-23.6556288 2.997248-8.0069632 6.8586496-14.948864 11.5625984-20.8357376 4.89728-6.0309504 11.2293888-10.9400064 18.5066494-14.3473664 7.637197-3.6781056 16.319693-5.512192 26.090701-5.512192 11.819008 0 22.059008 2.5737216 30.72 7.72096 8.630272 5.1268608 15.529984 12.3904 19.914752 20.9639424 4.629504 8.825344 8.010752 18.1832704 10.155008 28.0730624C190.922752 111.01184 192 121.68192 192 133.12c0 8.500224-.555008 16.625664-1.67424 24.395776-1.193984 8.067072-3.303424 15.996928-6.293504 23.655424-3.093504 8.006656-6.933504 14.949376-11.563008 20.836352-4.629504 5.885952-10.752 10.669056-18.378752 14.347264-7.626752 3.678208-16.319488 5.512192-26.090496 5.512192zm22.592512-65.251328C156.71296 150.470656 160.11776 141.96736 160 133.12c0-9.141248-3.06176-16.9728-9.172992-23.49568C144.704512 103.10144 137.09824 99.84 128 99.84c-9.09824 0-16.703488 3.26144-22.827008 9.78432C99.1776768 115.837952 95.8666752 124.31872 96 133.12c0 9.141248 3.0613504 16.9728 9.172992 23.49568C111.296512 163.13856 118.90176 166.4 128 166.4c9.09824 0 16.62976-3.26144 22.592512-9.78432zM128 266.24c70.687744 0 128-59.604992 128-133.12C256 59.60448 198.687744 0 128 0 57.3119488 0 0 59.60448 0 133.12c0 73.515008 57.3119488 133.12 128 133.12z"/></svg>