<svg width="256px" height="332px" viewBox="0 0 256 332" xmlns="http://www.w3.org/2000/svg" preserveAspectRatio="xMidYMid"><title>Obsidian</title><defs><radialGradient cx="72.8188161%" cy="96.9336384%" fx="72.8188161%" fy="96.9336384%" r="163.793124%" gradientTransform="matrix(1 0 0 0 0 7282)rotate(256 5452)translate(0 7282)" id="a"><stop stop-color="#fff" stop-opacity="0.4"/><stop stop-opacity="0.1" offset="1"/></radialGradient><radialGradient cx="52.9165858%" cy="90.6316753%" fx="52.9165858%" fy="90.6316753%" r="190.361461%" gradientTransform="matrix(1 0 0 0 0 5292)rotate(-82 4659)translate(0 5292)" id="b"><stop stop-color="#fff" stop-opacity="0.6"/><stop stop-color="#fff" stop-opacity="0.1" offset="1"/></radialGradient><radialGradient cx="31.1735808%" cy="97.1379223%" fx="31.1735808%" fy="97.1379223%" r="178.71402%" gradientTransform="matrix(1 0 0 0 0 3117)rotate(-77 6806)translate(0 3117)" id="c"><stop stop-color="#fff" stop-opacity="0.8"/><stop stop-color="#fff" stop-opacity="0.4" offset="1"/></radialGradient><radialGradient cx="71.8134715%" cy="99.9936686%" fx="71.8134715%" fy="99.9936686%" r="92.0858865%" gradientTransform="matrix(0 0 0 8704 0 7181)rotate(240 7097)translate(0 7181)" id="d"><stop stop-color="#fff" stop-opacity="0.3"/><stop stop-opacity="0.3" offset="1"/></radialGradient><radialGradient cx="117.012845%" cy="34.768667%" fx="117.012845%" fy="34.768667%" r="328.728831%" gradientTransform="matrix(1 0 0 0 1 1701)rotate(102 372)translate(-1 1701)" id="e"><stop stop-color="#fff" stop-opacity="0"/><stop stop-color="#fff" stop-opacity="0.2" offset="1"/></radialGradient><radialGradient cx="-9.43113772%" cy="8.71165644%" fx="-9.43113772%" fy="8.71165644%" r="153.492398%" gradientTransform="matrix(1 0 0 0 0 943)rotate(45 3951)translate(0 943)" id="f"><stop stop-color="#fff" stop-opacity="0.2"/><stop stop-color="#fff" stop-opacity="0.4" offset="1"/></radialGradient><radialGradient cx="103.901931%" cy="-22.1716021%" fx="103.901931%" fy="-22.1716021%" r="394.770981%" gradientTransform="matrix(1 0 0 0 1 39)rotate(80 3803)translate(-1 39)" id="g"><stop stop-color="#fff" stop-opacity="0.1"/><stop stop-color="#fff" stop-opacity="0.3" offset="1"/></radialGradient><radialGradient cx="99.3483412%" cy="89.1929661%" fx="99.3483412%" fy="89.1929661%" r="203.824388%" gradientTransform="matrix(0 0 0 5317 0 9935)rotate(208 3144)translate(0 9935)" id="h"><stop stop-color="#fff" stop-opacity="0.2"/><stop stop-color="#fff" stop-opacity="0.2" offset=".5"/><stop stop-color="#fff" stop-opacity="0.3" offset="1"/></radialGradient></defs><path d="M209.055661 308.304559c-2.043036 14.929872-16.737173 26.638035-31.43131 22.551965-20.823243-5.657636-44.946774-14.615559-66.634378-16.265703l-33.3171888-2.514505c-5.3522205-.376664-10.382344-2.696109-14.1440895-6.521996L6.16655365 246.77777c-6.2339187704-6.406919-7.91671753-15.973941-4.24322687-24.123531 0 0 35.36022392-77.47818 36.77463292-81.485672 1.2572524-4.007492 6.1291054-39.210559 8.9579233-58.0693451.7931129-5.0075344 3.2912808-9.5875089 7.0720448-12.9654154L122.462401 9.4713779c4.510403-4.04601154 10.489733-6.05284131 16.527801-5.54719033 6.038067.50565098 11.600337 3.47901863 15.374979 8.21885173l57.047828 71.9777002c3.19215 4.1104637 4.908192 9.1755554 4.871853 14.3798244 0 13.5940421 1.178674 41.6464861 8.800767 59.7194891 7.563079 16.254131 16.947849 31.596649 27.973866 45.732556 2.731131 3.545787 3.041833 8.392734.785783 12.258211-4.950432 8.407876-14.851294 24.595001-28.759649 45.261087-8.805063 14.209413-14.309776 30.213357-16.108547 46.832652h.078579z" fill-opacity="0.3"/><path d="M209.605709 305.790054c-2.043036 15.008451-16.737173 26.716614-31.431311 22.709122-20.744664-5.736214-44.789617-14.694138-66.555799-16.344281l-33.2386103-2.514505c-5.3647881-.390533-10.3987805-2.73973-14.1440896-6.600575L6.87375813 244.106108c-6.295182632-6.471484-7.97944132-16.140376-4.24322687-24.359265 0 0 35.43880214-77.792493 36.77463284-81.878563 1.3358307-4.007492 6.1291055-39.2891378 8.9579234-58.3050805.7758981-5.0356972 3.2754675-9.6460141 7.0720448-13.0439937L123.169606 5.62104241c4.520651-4.0370886 10.506441-6.030546178 16.544933-5.509986503 6.038492.520559675 11.594806 3.509026243 15.357846 8.260226133l56.96925 72.29201336c3.181306 4.1162884 4.896041 9.1775217 4.871853 14.3798244 0 13.6726202 1.178674 41.8036422 8.722189 59.9552242 7.557556 16.330641 16.942099 31.75187 27.973866 45.968291 2.791075 3.545782 3.133734 8.436453.864361 12.336789-5.02901 8.486454-14.851294 24.673579-28.838227 45.496822-8.772906 14.275518-14.249333 30.328967-16.029968 46.989808h0z" fill="#6c31e3"/><path d="M70.3650046 307.440198c26.6380354-53.983275 25.9308309-92.722365 14.536981-120.224761-10.3723324-25.459361-29.7811664-41.48933-45.0253518-51.468771-.3143131 1.492988-.7857828 2.907397-1.414409 4.243227l-35.83169354 79.75695c-3.71604621 8.234629-2.000231081 17.905587 4.32180514 24.359265l57.2835627 58.933707c1.8073004 1.8073 3.9289138 3.300287 6.1291055 4.400383h0z" fill="url(#a)"/><path d="M142.814175 197.902082c7.150623.707205 14.144089 2.27877 21.058977 4.793275 21.844761 8.172141 41.725065 26.559457 58.147924 61.998259 1.178674-2.043035 2.357348-4.007492 3.614601-5.89337 10.036313-14.892944 19.652838-30.064519 28.838227-45.496822 2.291764-3.884536 1.980308-8.774409-.785783-12.336789-11.059157-14.212565-20.470153-29.633946-28.052444-45.968291-7.543515-18.073003-8.643611-46.282604-8.722189-59.9552242 0-5.1861662-1.650144-10.2937541-4.871853-14.3798244l-56.96925-72.29201336-.942939-1.17867413c4.164649 13.75119819 3.928914 24.75215679 1.335831 34.73159769-2.357348 9.2722365-6.757732 17.680112-11.39385 26.5594571-1.571566 2.9859745-3.143131 6.0505272-4.636118 9.1936582-7.389659 14.1136175-11.625754 29.6638391-12.415368 45.5754001-.785783 19.015942 3.064553 42.82516 15.715655 74.649361h.078579z" fill="url(#b)"/><path d="M142.735596 197.902082c-12.651102-31.824201-16.501438-55.633419-15.715655-74.649361.785783-18.858786 6.286262-33.002876 12.415368-45.5754001l4.714696-9.1936582c4.55754-8.8793451 8.879345-17.2872206 11.315272-26.5594571 2.89308-11.4659098 2.429393-23.5217765-1.335831-34.73159769-8.13615-8.93939713-21.960291-9.64113018-30.95984-1.5715655L55.4351323 66.5192058c-3.7965773 3.3979796-6.2961467 8.0082965-7.0720448 13.0439937l-8.2507189 54.6904795c0 .550048-.1571565 1.021518-.2357348 1.571566 15.2441854 9.900862 34.5744411 25.930831 45.0253518 51.311614 2.0430351 5.029009 3.7717572 10.293754 5.0290096 16.029968 17.1713148-4.76188 35.0274278-6.568748 52.8046008-5.343323v.078578z" fill="url(#c)"/><path d="M178.252977 328.499176c14.615559 4.007492 29.309696-7.700671 31.352732-22.7877 1.673116-14.310825 5.905057-28.204368 12.493945-41.01786-16.501437-35.438802-36.381741-53.826118-58.147923-61.998259-23.180592-8.64361-48.404218-5.736214-74.0207358.47147 5.7362141 26.009409 2.3573483 60.033802-19.4874123 104.273371 2.4359265 1.257253 5.1861662 1.964457 7.9364058 2.200192l34.4958633 2.593083c18.701629 1.335831 46.596917 11.000958 65.377125 16.265703h0z" fill="url(#d)"/><path d="M127.177098 122.074047c-.864361 18.858786 1.492987 40.389233 14.144089 72.134856l-3.928913-.392891c-11.39385-33.081454-13.908355-50.054361-13.043994-69.148882.785783-19.094521 6.993466-33.7886588 13.122572-46.3611829 1.571565-3.143131 5.186166-9.0365016 6.757731-12.0224761 4.55754-8.8793451 7.622093-13.5154634 10.215176-21.6090257 3.771757-11.3152717 2.985975-16.6585944 2.514505-22.0019171 2.907396 19.2516774-8.172141 35.9888501-16.501438 53.0403358-7.711175 14.3229723-12.266049 30.131065-13.358307 46.361183h.078579z" fill="url(#e)"/><path d="M88.6737428 188.551267c1.5715655 3.457445 2.9073962 6.286263 3.8503355 10.608068l-3.3788659.785782c-1.3358306-5.029009-2.3573482-8.64361-4.3218051-12.965415-11.4724282-26.952348-29.8597446-40.860703-44.789617-51.075879 18.0730034 9.743706 36.6960546 25.06647 48.6399525 52.647444z" fill="url(#f)"/><path d="M92.6812348 202.616779c6.2862621 29.466853-.7857827 66.94869-21.6090257 103.40901 17.4443771-36.146007 25.9308309-70.799026 18.8587861-102.937541l2.7502396-.550048v.078579z" fill="url(#g)"/><path d="M164.658935 199.866539c34.18155 12.808259 47.3827 40.860703 57.204985 64.355608-12.179633-24.516422-29.073962-51.625927-58.462237-61.683947-22.316231-7.70067-41.175017-6.757731-73.4706878.550048l-.7072045-3.143131c34.2601283-7.857827 52.1759753-8.800766 75.4351443 0v-.078578z" fill="url(#h)"/></svg>