<svg width="256px" height="271px" viewBox="0 0 256 271" xmlns="http://www.w3.org/2000/svg" preserveAspectRatio="xMidYMid"><path d="M17.1555807 205.218876c20.4196229-13.120815 44.3040497-35.67044 35.2160395-62.08247-4.9416056-14.427216-11.8144133-26.80963-12.7232143-42.401247-.8178094-13.2040312 1.1163923-26.4339708 5.6800064-38.8512439C63.7032329 12.8654601 118.004094-10.337366 167.050949 4.37385054 212.491 18.0058658 243.731035 70.7731251 224.930214 116.752777c-10.877212 26.55403-15.733618 47.115653 8.60521 67.677276 6.560407 5.680006 22.521225 13.972815 22.464576 23.912827 0 13.007214-25.56018-2.840004-28.400183-5.026806 3.237604 5.680006 35.38644 39.163644 14.938417 41.549247-18.829221 2.186802-35.47164-24.111628-46.774853-35.38644-18.999621-18.971221-15.705217 23.004026-15.790418 31.666035 0 13.688816-9.798011 41.407247-27.15043 23.344827-14.200016-14.910017-8.91761-38.680844-18.886021-55.266462-11.161213-18.147621-29.195233 18.14762-33.881238 24.793227-5.055206 7.412409-30.4164344 43.338449-40.5268458 24.196828-8.1792092-15.534818 4.8848055-39.760045 11.3600128-53.960061-2.3572027 5.112006-18.9712213 12.638014-23.8276268 15.108817-10.529798 5.804366-22.4693109 8.558125-34.4776387 7.952009-25.5600287-1.846002-5.96400668-15.392817 4.458805-22.095225h.1136002z" fill="#2f93e0"/></svg>