<svg width="256px" height="256px" viewBox="0 0 256 256" xmlns="http://www.w3.org/2000/svg" preserveAspectRatio="xMidYMid"><title>okta</title><path d="M140.84428 1.77777778l-5.265799 64.85333332c-2.490581-.2844444-4.981161-.4266667-7.542901-.4266667-3.202175 0-6.333191.2133334-9.393047.7111112l-2.988696-31.4311112c-.07116-.9955555.711594-1.8488888 1.707826-1.8488888h5.336958l-2.56174-31.78666671C120.065722.853333333 120.848476 0 121.773549 0h17.434063c.996233 0 1.778986.853333333 1.636668 1.84888889h0v-.07111111zm-43.9765366 3.2c-.2846378-.92444445-1.28087-1.49333334-2.2059428-1.13777778l-16.366672 5.97333333c-.9250728.35555557-1.3520295 1.42222227-.9250728 2.27555557l13.306816 29.0133333-5.0523205 1.8488889c-.9250728.3555556-1.3520295 1.4222222-.9250728 2.2755556l13.5914537 28.5155555C103.200934 71.04 108.537892 68.9777778 114.159488 67.6977778L96.9389028 4.97777778h-.0711594zM56.7338171 23.04l37.6433457 53.0488889c-4.7676827 3.1288889-9.1084088 6.8266667-12.8086998 11.0933333L59.0109193 64.9955556c-.7115944-.7111112-.640435-1.8488889.0711595-2.4888889l4.1272477-3.4133334-22.4152248-22.6844444c-.7115944-.7111111-.640435-1.8488889.1423189-2.4888889l13.306816-11.1644444c.7827539-.64 1.8501455-.4977778 2.4194211.2844444h.0711594zm-31.594793 30.72c-.7827539-.5688889-1.921305-.2844444-2.4194211.5688889l-8.6814521 15.0755555c-.4981161.8533334-.1423189 1.92.7115944 2.3466667l28.8907342 13.6533333-2.7040589 4.6222223c-.4981161.8533333-.1423189 1.9911111.7827539 2.3466666l28.7484152 13.1555557c2.0636239-5.333333 4.8388422-10.3111112 8.2544955-14.7911112L25.1390241 53.76zM3.86235042 94.72c.14231889-.9955556 1.1385511-1.5644444 2.06362387-1.3511111L68.902082 109.795556c-1.6366672 5.333333-2.56174 10.951111-2.7040589 16.782222l-31.5236335-2.56c-.9962323-.071111-1.7078267-.995556-1.4943484-1.991111l.9250728-5.262223-31.80827134-2.986666c-.99623222-.071111-1.636667209-.995556-1.494348321-1.991111L3.79119098 94.6488889h0L3.86235042 94.72zm-2.34826164 42.524444c-.996232216.071112-1.63666721.995556-1.4943483222 1.991112L3.07959654 156.373333c.14231889.995556 1.1385511 1.564445 2.06362387 1.351111l30.88319859-8.035555.9250728 5.262222c.1423188.995556 1.1385511 1.564445 2.0636238 1.351111l30.4562419-8.391111c-1.7789861-5.262222-2.9175372-10.88-3.2021749-16.64l-64.82625327 5.973333h.07115945zm10.10464102 45.084445c-.4981161-.853333-.1423189-1.92.7115944-2.346667l58.7777005-27.875555c2.2059428 5.262222 5.1946394 10.168889 8.7526116 14.577777l-25.7597186 18.346667c-.7827539.568889-1.921305.355556-2.4194211-.497778L48.9774377 179.84 22.719603 197.973333c-.7827539.568889-1.921305.284445-2.4194211-.568889l-8.7526116-15.075555h.0711595zm71.2306032-12.231111-45.7555224 46.293333c-.7115944.711111-.640435 1.848889.1423189 2.488889l13.3779754 11.164444c.7827539.64 1.8501456.497778 2.4194211-.284444l18.5014554-26.026667 4.1272477 3.484445c.7827539.64 1.921305.497778 2.4905806-.355556l17.9321798-26.026666c-4.8388422-2.986667-9.3218871-6.613334-13.1644971-10.737778h-.0711594zm-9.0372494 74.311111c-.9250728-.355556-1.3520294-1.422222-.9250728-2.275556l27.1117481-59.164444c4.9811611 2.56 10.3892791 4.48 16.0108751 5.546667l-7.969858 30.577777c-.213478.924445-1.28087 1.493334-2.205943 1.137778l-5.05232-1.848889-8.467974 30.791111c-.2846378.924445-1.28087 1.493334-2.2059428 1.137778l-16.366672-5.973333h0l.0711594.071111zm46.6805954-55.111111-5.265799 64.853333c-.07116.995556.711594 1.848889 1.636667 1.848889h17.434064c.996232 0 1.778986-.853333 1.636667-1.848889l-2.56174-31.786667h5.336958c.996232 0 1.778986-.853333 1.707827-1.848888l-2.988697-31.431112c-3.059856.497778-6.190871.711112-9.393046.711112-2.56174 0-5.052321-.142223-7.542901-.497778h0zm62.762629-175.5733336c.426957-.9244444 0-1.92-.925073-2.2755555l-16.366672-5.97333334c-.925073-.35555556-1.921305.21333333-2.205943 1.13777777l-8.467973 30.79111107-5.052321-1.8488888c-.925073-.3555556-1.921305.2133333-2.205943 1.1377777l-7.969857 30.5777778c5.692755 1.1377778 11.029713 3.0577778 16.010875 5.5466667l27.182907-59.0933334h0zm35.722041 25.8133334-45.755523 46.2933333c-3.842609-4.1244444-8.254495-7.7511111-13.164497-10.7377778l17.93218-26.0266666c.569276-.7822223 1.707827-.9955556 2.490581-.3555556l4.127247 3.4844445 18.501456-26.0266667c.569275-.7822222 1.707827-.9244445 2.419421-.2844445l13.377975 11.1644445c.782754.64.782754 1.7777778.142319 2.4888889h-.071159zm24.763486 36.4088889c.925073-.4266667 1.209711-1.4933334.711595-2.3466667l-8.752612-15.0755556c-.498116-.8533333-1.636667-1.0666666-2.419421-.5688888l-26.257835 18.1333333-2.704059-4.6222222c-.498116-.8533334-1.636667-1.1377778-2.419421-.4977778l-25.759718 18.3466667c3.557972 4.4088888 6.475509 9.3155555 8.752611 14.5777774l58.777701-27.8755552.071159-.0711111zm9.250728 23.6088889 2.988697 17.1377774c.142318.995556-.498117 1.848889-1.494349 1.991111l-64.826253 6.044445c-.284638-5.831111-1.423189-11.377778-3.202175-16.64l30.456242-8.3911112c.925073-.2844445 1.921305.3555552 2.063624 1.3511112l.925073 5.262222 30.883198-8.0355554c.925073-.2133334 1.921305.3555555 2.063624 1.3511111h0l.142319-.0711111zm-2.917537 62.9333334c.925072.213333 1.921305-.355556 2.063624-1.351111L255.126346 144c.142319-.995556-.498116-1.848889-1.494348-1.991111l-31.808271-2.986667.925072-5.262222c.142319-.995556-.498116-1.848889-1.494348-1.991111l-31.523634-2.56c-.142318 5.831111-1.067391 11.448889-2.704058 16.782222l62.976107 16.426667h0l.07116.071111zM233.280397 201.6c-.498116.853333-1.636667 1.066667-2.419421.568889l-53.583061-36.977778c3.415653-4.48 6.190871-9.457778 8.254495-14.791111l28.748416 13.155556c.925072.426666 1.28087 1.493333.782753 2.346666l-2.704058 4.622222 28.890734 13.653334c.853913.426666 1.20971 1.493333.711594 2.346666L233.280397 201.6h0 0zm-71.65756-21.831111 37.643346 53.048889c.569275.782222 1.707827.924444 2.419421.284444l13.306816-11.164444c.782754-.64.782754-1.777778.142319-2.488889l-22.415225-22.684445 4.127248-3.413333c.782754-.64.782754-1.777778.071159-2.488889l-22.557543-22.186666c-3.771451 4.266666-8.041018 8.035555-12.8087 11.093333h0 .071159zm-.355797 72.248889c-.925073.355555-1.921305-.213334-2.205943-1.137778l-17.220585-62.72c5.621596-1.28 10.958554-3.342222 15.868556-6.044444l13.591454 28.515555c.426956.924445 0 1.991111-.925073 2.275556l-5.052321 1.848889 13.306816 29.013333c.426957.924444 0 1.92-.925073 2.275555l-16.366672 5.973334h0-.071159z"/></svg>