<svg width="512px" height="323px" viewBox="0 0 512 323" xmlns="http://www.w3.org/2000/svg" preserveAspectRatio="xMidYMid"><path d="M505.049145 209.646574c1.70296-.243359 2.919359 4.623833 2.919359 8.274227 0 9.004306-5.352157 15.088296-11.920718 15.575015h0l-110.449089 7.787508-219.681781 16.791813c-3.649199.24336-7.055118 1.946877-9.487918 4.623832h0l-54.251425 57.676229c-4.1357593 4.137113-10.9475976 1.946877-10.9475976-3.650394h0v-48.915282c0-2.190237-1.7029591-3.893754-4.1357586-3.893754h0l-73.7138204 5.597271c-8.02823782.486719-8.51479771 3.163675-10.46103718 3.407034C1.21639968 272.920073 0 268.296241 0 264.402487c0-9.004306 5.35215858-15.088296 11.9207168-15.575015h0l51.5753462-3.407035 43.790388-3.407034c2.18952-.24336 4.135759 1.460157 4.135759 3.650394h0v36.260582l36.491991-38.937538c2.432799-2.433596 5.838718-4.137113 9.244637-4.380473h0l319.913115-24.335961h0l17.516153-1.216798c8.028241-.48672 8.514798-3.163675 10.461039-3.407035zM402.601781.11544947c9.294572-.980313835 15.409424 4.41141224 15.409424 11.27360913h0v89.2085584c9.294574-13.2342361 20.545899-25.4881591 33.509384-26.468473 17.610768-1.4704709 25.437781 12.7440799 25.437781 28.919258 0 22.057061-15.898616 39.70271-27.394532 49.015692 2.935126 12.253923 9.049979 23.282453 20.301304 22.30214 13.208076-.980314 22.747245-19.851356 25.437776-32.595436 3.424317-17.890727 19.078338-5.636804 16.387802 3.676177-5.136473 15.9301-19.322928 46.074751-45.249895 48.035378-22.502654 1.960628-37.422886-22.792296-37.422886-41.663338 0-2.911532 2.903355-6.089954 6.793851-9.993251l.717814-.71778c7.884916-7.86469 19.149082-18.649368 19.149082-35.853876 0-7.107275-3.668911-11.7637658-9.049979-11.2736089-6.848633.490157-19.812118 10.7834519-28.617502 41.9084159h0l1.88e-4 50.579128c-2.3e-4.074378-5.41e-4.14891-9.55e-4.223577l-.003882.449483c-.001816.150273-.00421.300943-.007347.451867l-.011814.453386c-.148602 4.689869-1.17307 9.484693-8.047794 10.092488-5.625662.490157-13.697265-.735235-13.697265-11.273609-6.114851 7.842511-14.431048 13.479315-25.437779 14.459629-13.452672.980314-29.595878-5.146648-29.595878-30.389729 0-18.380884 6.359444-32.350357 15.409424-57.838516h0l-25.926968-4.901569c-.244594 11.273609-1.956752 36.271611-7.093227 53.427104 0 .245078-.244594.490157-.244594.735235-5.136475 19.11612-16.632395 43.869044-40.358016 45.829672-10.028355.735235-17.61077-3.431099-22.013463-10.048217-5.870257 7.107275-13.94186 12.74408-24.703997 13.724394-12.963484.980314-22.258058-4.656491-27.88372-14.214551-7.582416 9.803139-17.610771 17.890728-30.574255 18.871042-22.013463 1.715549-33.753977-12.74408-33.753977-35.291299h0V80.011027c-5.870257 5.1466478-12.474295 9.8031382-17.366176 12.253923 1.22297 7.842511 1.712158 15.685021 1.712158 22.547218 0 72.788302-31.5526303 108.0796-64.8174191 110.775464C21.7688691 228.773652 0 188.335706 0 137.114308 0 39.5730813 57.7241923 12.6144508 60.1701324 11.634137c.9783764-.2450784 1.9567523-.7352354 3.1797228-.7352354 6.3594448-.4901569 10.0283553 7.8425107 10.0283553 14.2145507 0 3.6761769-.9783763 6.6171183-3.6689105 6.8621968-.4891882 0-.9783764 0-1.4675642-.2450785-10.0283557 6.37204-45.2498965 27.2037091-45.2498965 100.7272464 0 51.956633 21.2796812 73.278459 41.5809859 71.56291 23.7256213-1.715549 41.5809858-33.575749 41.8255798-87.247931 0-5.391726-.489188-11.518688-.978376-17.4005708h0l-5.381069.4901569C76.0687447 101.577931 56.99041 89.07893 56.99041 67.0218688c0-14.949786 10.5175435-28.1840229 25.9269677-29.4094152 20.7904933-1.7155492 32.7756003 13.9694722 39.1350453 33.5757491 7.827009-3.676177 17.366177-12.9891586 22.013463-17.8907277h0v-2.4507844c0-21.5669045 11.740514-37.7420828 26.171562-38.9674751 25.193186-1.96062769 25.43778 27.9389443 25.43778 44.1141225 0 42.153495-26.171562 102.197717-29.840472 105.873894h0v16.665335c0 11.518688 4.647286 19.361199 15.16483 18.625963 9.294573-.735235 16.876988-10.293295 21.524275-20.341512-.244594-1.960628-.244594-3.676177-.244594-5.636804 0-47.7903 33.264788-79.6504992 67.997141-82.5914409 7.82701-.490157 13.208078 3.6761769 13.208078 11.0285308 0 4.9015691-.733782 6.6171181-3.66891 6.8621961-2.690534 0-5.381069-.245078-8.316197 0-21.76887 1.71555-47.206649 22.30214-47.206649 63.7204 0 14.949786 6.359445 23.037375 16.3878 22.30214 7.827009-.490157 12.963484-7.842511 16.143206-16.175179h0v-44.114122c0-5.391727-1.22297-7.107276-1.22297-9.067903 0-2.695863 3.424317-5.146648 7.337821-5.391726 9.294574-.980314 15.409425 4.411412 15.409425 11.273609h0v47.545221c0 6.37204 2.935128 12.989158 9.783761 12.499001 11.251326-.980314 16.3878-19.851355 19.078335-32.595435.244594-.245078.244594-.490157.244594-.735235v-.735236c3.179722-11.763766 4.402693-35.536376 4.647286-50.241084-7.093227-3.431098-12.229702-9.0679028-12.229702-17.4005701 0-7.8425108 7.093227-13.7243939 14.431049-14.2145508 6.848633-.490157 14.920236 2.2057061 18.099958 13.7243938 2.509535.3725192 5.186837.8069698 7.87756 1.2663698l1.274949.219331h0l.849282.1478627c.707131.1236764 1.412379.2484066 2.11293.3735167l.838228.1502713c9.609555 1.729225 18.110494 3.4794529 18.110494 3.4794529 7.582415 1.4704708 14.920236 8.3326677 13.697266 14.9497857 0 3.431099-13.94186 31.615121-13.94186 60.289301 0 7.842511 3.66891 15.194865 11.495919 14.459629 13.208078-.980314 17.855365-19.851355 20.545899-32.595435.244594-1.470471.733782-2.695863 1.22297-3.921255h0V14.820157c0-8.3326676-2.935128-8.82282452-2.935128-10.7834522 0-1.96062766 5.136475-3.676176872 9.049979-3.92125533zM178.064457 57.9539658c0-18.8710414-3.179722-27.203709-7.827009-26.9586305-3.179722.2450784-4.402692 7.1072753-4.402692 11.7637658h0 .244593v81.8562049c5.870257-12.499001 11.985108-50.976319 11.985108-66.6613402zm-76.068745 21.5669043c-2.6905338-12.9891583-8.5607908-22.3021399-17.3661761-21.5669043-5.6256625.4901569-7.093227 4.6564908-7.093227 7.8425104 0 7.1072756 6.3594451 15.439943 21.2796811 14.2145508h0z"/></svg>