<svg width="256" height="256" xmlns="http://www.w3.org/2000/svg" preserveAspectRatio="xMidYMid"><path d="M246.95 94a9.05 9.05 0 00-9.05 9.05c0 74.476-60.374 134.85-134.85 134.85a9.05 9.05 0 100 18.1C187.522 256 256 187.522 256 103.05a9.05 9.05 0 00-9.05-9.05z" fill="#005EB8"/><path d="M192.326 152c8.703-14.198 17.12-33.129 15.464-59.632C204.36 37.47 154.636-4.179 107.682.335c-18.38 1.767-37.255 16.75-35.578 43.587.729 11.662 6.437 18.546 15.714 23.838 8.83 5.037 20.173 8.228 33.033 11.844 15.534 4.37 33.553 9.277 47.401 19.483 16.598 12.231 27.944 26.41 24.074 52.913z" fill="#003B5C"/><path d="M15.674 56C6.971 70.198-1.446 89.129.21 115.632c3.43 54.899 53.154 96.546 100.108 92.033 18.38-1.767 37.255-16.75 35.578-43.587-.729-11.662-6.437-18.546-15.714-23.838-8.83-5.037-20.173-8.228-33.033-11.844-15.534-4.37-33.553-9.277-47.401-19.483C23.15 96.682 11.804 82.503 15.674 56z" fill="#005EB8"/></svg>