<svg width="256px" height="256px" viewBox="0 0 256 256" xmlns="http://www.w3.org/2000/svg" preserveAspectRatio="xMidYMid"><title>OpenSearch</title><path d="M246.9496 94.000008c-4.9984 0-9.0504 4.052-9.0504 9.0504 0 74.4752-60.3736 134.8488-134.8488 134.8488-4.9984 0-9.0504 4.052-9.0504 9.0504 0 4.9984 4.052 9.0504 9.0504 9.0504 84.4716 0 152.9496-68.478 152.9496-152.9496 0-4.9984-4.052-9.0504-9.0504-9.0504z" fill="#005eb8"/><path d="M192.3256 152c8.7032-14.197992 17.1204-33.128792 15.4644-59.631592-3.4304-54.8992-53.1544-96.54691998-100.1076-92.033479978C89.3012 2.10188802 70.4272 17.084808 72.104 43.922008c.7288 11.6624 6.4368 18.5456 15.7136 23.8376 8.8296 5.0372 20.1736 8.228 33.0336 11.8448 15.5336 4.3692 33.5524 9.2768 47.4012 19.4824 16.5976 12.2316 27.944 26.4104 24.0732 52.913192z" fill="#003b5c"/><path d="M15.6744399 56.000008c-8.70339996 14.198-17.12046396 33.1288-15.464467564 59.6316 3.430315604 54.8992 53.154427564 96.5468 100.107627664 92.0336 18.3812-1.7672 37.2552-16.75 35.5784-43.5872-.7288-11.6624-6.4372-18.5456-15.7136-23.8376-8.8296-5.0372-20.1736-8.228-33.0336-11.8448-15.5336-4.3692-33.5524001-9.2768-47.4010001-19.4824-16.59792-12.2316-27.94412-26.4104-24.07336-52.9132z" fill="#005eb8"/></svg>