<svg width="256px" height="260px" viewBox="0 0 256 260" xmlns="http://www.w3.org/2000/svg" preserveAspectRatio="xMidYMid"><title>OpenAI</title><path d="M239.183914 106.202783c5.87039-17.6785734 3.838366-37.0294025-5.576315-53.1028966-14.155921-24.6410843-42.607896-37.3162735-70.394592-31.3603814-15.65893-17.41804617-39.418098-25.16349054-62.333997-20.32076602C77.9631105 6.26146349 59.3690093 22.9572536 52.0959621 45.2214219c-18.2523127 3.7430648-34.00579 15.1713271-43.22923697 31.3603814C-5.443491 101.182962-2.19544431 132.215255 16.8986662 153.320094c-5.8925797 17.670562-3.8789379 37.023897 5.5251569 53.102897 14.1737322 24.649353 42.6442111 37.323575 70.4457507 31.360381 12.3660652 13.924877 30.1315392 21.84757 48.7543942 21.743548 28.481391.025249 53.713643-18.361202 62.413809-45.481259 18.249563-3.749305 34.000712-15.175878 43.229237-31.360381 14.137439-24.557765 10.87548-55.422505-8.0831-76.482497h0zm-97.559946 136.338424c-11.368286.01797-22.380092-3.966565-31.104587-11.25501l1.534765-.869701 51.670449-29.825615c2.616053-1.534437 4.229726-4.334063 4.246186-7.366876v-72.850217l21.844833 12.636238c.218518.111397.370621.320538.409271.562748v60.367455c-.056282 26.818198-21.782719 48.544635-48.600917 48.600978zM37.1575749 197.93062c-5.7010769-9.844261-7.7480931-21.383636-5.7809512-32.588194l1.5347658.920859 51.7216078 29.825616c2.6059376 1.529306 5.8352744 1.529306 8.441212 0l63.1811927-36.425108v25.221318c-.011845.26466-.143677.509491-.358112.665065l-52.335514 30.183727c-23.2562807 13.397729-52.9692806 5.431532-66.4042011-17.803283zM23.5493181 85.3811273c5.740668-9.9078176 14.801873-17.4648625 25.5794301-21.3332448v61.3906325c-.039599 3.02091 1.5677904 5.824041 4.1950266 7.315717l62.8742392 36.271632-21.8448332 12.636238c-.2399483.127332-.5274347.127332-.7673829 0l-52.2331964-30.132568c-23.2106589-13.453436-31.1708334-43.143972-17.8032834-66.404201v.2557943zM203.0146 127.075598l-63.078875-36.6297435L161.7294 77.8607748c.239948-.1273314.527434-.1273314.767383 0l52.233196 30.1837272c16.30235 9.407245 25.707315 27.381607 24.141525 46.138237-1.56579 18.756629-13.820785 34.922833-31.457242 41.496891v-61.390632c-.091741-3.012131-1.763565-5.753145-4.399662-7.2134zm21.742516-32.6905113-1.534766-.9208595-51.61929-30.0814099c-2.621767-1.5384422-5.870604-1.5384422-8.492371 0L99.9806554 99.8079259V74.5866077c-.027355-.2611989.0904396-.5164208.3069536-.6650651l52.233196-30.1325688c16.342293-9.414622 36.653451-8.5360695 52.121774 2.2545103 15.468324 10.7905797 23.30669 29.5489118 20.114537 48.1369672v.2046354zM88.0606409 139.097931l-21.8448333-12.58508c-.2207677-.13376-.3707111-.358675-.4092709-.613906V65.684966c.0249128-18.8564293 10.9435238-36.0003628 28.0205485-43.9966605C110.90411 13.6920079 131.063833 16.2835462 145.5632 28.338998l-1.534766.8697006-51.6704488 29.8256156c-2.6160525 1.5344371-4.2297255 4.3340625-4.2461854 7.3668759l-.0511589 72.6967409zM99.9294965 113.5185 128.06687 97.3011417 156.255402 113.5185v32.434718l-28.086215 16.217359-28.1885316-16.217359-.0511589-32.434718z"/></svg>