<svg width="256px" height="256px" viewBox="0 0 256 256" xmlns="http://www.w3.org/2000/svg" preserveAspectRatio="xMidYMid"><title>OpenTelemetry</title><path d="M135.440226 139.917846c-10.906369 10.905218-10.906369 28.58725 0 39.492469 10.906369 10.905219 28.590268 10.905219 39.496637 0 10.906369-10.905219 10.906369-28.587251 0-39.492469-10.906369-10.905219-28.590268-10.905219-39.496637 0zm29.5251 29.547948c-5.40125 5.40068-14.152313 5.40068-19.553562 0-5.40125-5.400679-5.40125-14.150819 0-19.551498 5.401249-5.40068 14.152312-5.40068 19.553562 0 5.401249 5.374715 5.401249 14.150819 0 19.551498zm9.504121-166.95369906-17.112612 17.11080686c-3.349814 3.3494599-3.349814 8.8539987 0 12.2034586l66.814495 66.8074447c3.349813 3.3494599 8.854933 3.3494599 12.204746 0l17.112613-17.1108069c3.349813-3.34946 3.349813-8.8539987 0-12.2034586L186.648226 2.51209494c-3.349813-3.349459919-8.828965-3.349459919-12.178779 0h0zM54.577289 221.161723c3.0382029-3.037883 3.0382029-7.997161 0-11.035043l-8.6991277-8.69821c-3.0382029-3.037882-7.9980041-3.037882-11.0362069 0l-17.9695416 17.967646-.0259676.025964-4.9338336-4.933312c-2.72659233-2.726306-7.16704263-2.726306-9.86766738 0-2.726592293 2.726304-2.726592293 7.166285 0 9.866625l29.60300198 29.599879c2.7265923 2.726304 7.1670426 2.726304 9.8676674 0 2.7006247-2.726305 2.7265923-7.166287 0-9.866626l-4.9338337-4.933313.0259676-.025966 17.9695415-17.967644z" fill="#f5a800"/><path d="M145.100153 51.637507l-38.016487 38.0124753c-3.375781 3.3754247-3.375781 8.9318931 0 12.3073177l23.474662 23.472184c16.593261-11.94381 39.860182-10.463816 54.791521 4.465947l19.008243-19.006237c3.375781-3.375425 3.375781-8.931894 0-12.3073186L157.40877 51.637507c-3.375781-3.4013895-8.932836-3.4013895-12.308617 0zm-24.409493 83.684568-13.866669-13.865205c-3.245943-3.245602-8.5692902-3.245602-11.8152334 0l-48.8968884 48.917693c-3.2459432 3.245601-3.2459432 8.568386 0 11.813986l27.7073712 27.704448c3.2459432 3.2456 8.56929 3.2456 11.8152332 0l31.4466974-31.49531c-6.647691-13.735381-5.453184-30.326892 3.609489-43.075612z" fill="#425cc7"/></svg>