<svg width="256px" height="237px" viewBox="0 0 256 237" xmlns="http://www.w3.org/2000/svg" preserveAspectRatio="xMidYMid"><g style="fill:#da2430"><path d="M74.8392681 106.892926l-40.8678534 14.870388c.5244189 6.552062 1.6519831 13.024128 3.2404773 19.365407l38.8171596-14.136456c-1.2443839-6.552062-1.6888068-13.319987-1.180895-20.100609"/><path d="M255.444071 61.7023618c-2.850655-5.8790791-6.147003-11.5613424-9.966499-16.9160027L204.621146 59.656747c4.755324 4.8632555 8.742432 10.3296563 12.007035 16.1757211l38.81716-14.1326459-.00127.0025396h0z"/><path d="M182.950275 61.4614413c-5.14058-4.4608621-10.946243-8.3103751-17.408625-11.3248661h-.00254C127.598099 32.4485466 82.3304594 48.904889 64.6424308 86.8585985c-.9969407 2.1415528-1.8798697 4.306117-2.6538302 6.4876166-2.2076842 6.4230506-3.497307 12.9898749-3.9907473 19.5461949l-.1439238.05319c-.0037662.048035-.0074889.09607-.0111679.144104l-24.5955401 8.949808-15.8264849 5.849001c-.0022746-.029199-.0045386-.058398-.0067919-.087599l-.4339574.157908c-1.5364333-19.435245 1.7395978-39.5117293 10.5531374-58.4111276 1.1538888-2.4752098 2.3840677-4.8910739 3.6864439-7.2461023C60.2738161 8.1856616 126.383568-14.4341613 182.138317 11.9725342c11.53972 5.4679482 21.77273 12.6369015 30.556219 21.0729768 5.909474 5.4666104 11.183869 11.4879859 15.781195 17.9405466L187.616767 65.858985c-.210258-.2149023-.421842-.4287315-.634749-.6414678l-.113112.0418176c-1.25848-1.3069746-2.564746-2.5743577-3.918631-3.7978935z"/></g><path d="M19.2613217 193.896477l-.0644265.023453C10.6957214 181.949719 4.50808591 168.501485.938735714 154.347253L39.7635139 140.206988l.0025396.00254c.0079979.041778.0160303.083549.0240973.125313l.2521092-.09324.0058426.01558c1.9941636 10.560641 6.145261 20.635213 12.1977219 29.493514 2.3077088 3.293217 4.8863168 6.414958 7.722421 9.326783l-.154192.056133c.0976128.102987.1955366.205719.2937708.308192l-40.4875295 14.970784c-.1201238-.171736-.2397818-.343774-.3589731-.51611z" fill="#e82429"/><path d="M173.465486 183.446858c-21.051552 13.017432-48.053099 15.532394-72.113603 4.312103-8.5113317-3.969331-15.926844-9.337959-22.1182889-15.694475l-40.7713502 14.843722c.1037469.145909.2078406.291597.3122806.437064l-.0201765.007461c11.2100735 16.016617 26.5022032 29.404047 45.2668069 38.298489 40.4693001 19.16316 86.3867721 12.501076 119.6343211-13.284422 14.88801-11.151506 27.316519-26.015439 35.712551-44.018959 8.818619-18.895589 12.075604-38.964454 10.515045-58.384462l-1.135608.413206c-.015354-.208011-.031247-.415949-.047679-.623814l-40.489477 14.957152.001947.003895c-.644637 8.923655-2.862892 17.876523-6.806672 26.459358-6.314384 13.753363-16.163571 24.708959-27.940097 32.273682z" fill="#da2430"/><path d="M218.552379 75.1291912l.607107-.2209955v-.0012698c6.386991 13.1422179 10.285215 27.4272371 11.453411 42.0550971l-40.77262 14.833564c.007539-.101158.014872-.202313.021997-.303464l-.771023.28486c1.110101-15.087638-2.274734-30.093478-9.433912-43.1225596l38.547774-14.2501926.001947-.003895c.11593.2425614.231037.4855149.345319.7288554z" fill="#e82429"/><g style="fill:#c22035"><path d="M74.8906707 106.654031 34.309659 121.650133c.5199947 6.609971 1.6398335 13.136198 3.2192932 19.531938l38.5458264-14.257983c-1.2464293-6.621656-1.6943649-13.438066-1.1685275-20.273952"/><path d="M254.22692 61.0828228c-2.829784-5.9283294-6.105556-11.6580091-9.897428-17.0585537l-40.571274 14.9961027c4.720851 4.9058679 8.680212 10.4174224 11.920928 16.3145912l38.541931-14.2560353.005843.0038951h0z"/></g><g style="fill:#ac223b"><path d="M34.3084904 121.652665l40.481687-14.828613-.1655414 8.132951-39.0560834 14.748764-1.2659048-8.062839.0058426.009737h0z"/><path d="M203.766009 58.8974817 244.8787 44.7894599l4.272915 6.4483242-39.946111 14.1216545-5.433653-6.465852-.005842.0038951h0z"/></g><g style="fill:#b92135"><path d="M38.7638909 187.20102l40.5303756-14.748764 12.2578533 11.564526-42.5032395 15.956243-10.2830418-12.7759-.0019476.003895h0z"/><path d="M249.380647 109.861639l-41.165276 14.844194-3.032328 16.478185 43.891839-15.642688.311608-15.677743-.005843-.001948h0z"/></g></svg>