<svg width="256px" height="256px" viewBox="0 0 256 256" xmlns="http://www.w3.org/2000/svg" preserveAspectRatio="xMidYMid"><title>OpenAPI</title><path d="M67.6513497 147.203564h-.2582549H.10055942c.011427207.329103.020568972.660492.038852503.989596.027425296.635353.073134123 1.26842.111986626 1.903773.018283531.271967.029710738.543935.05027971.813617.052565152.735912.11655751 1.467253.182835309 2.198594.01599809.166838.029710738.331389.045708827.49137.077705006.813617.166837219 1.627234.262825757 2.433995.004570882.079991.013712648.157696.025139855.235401.105130302.873038.217116933 1.746077.345101643 2.614545 0 .009141.00228544.022854.00685633.031996.77476462 5.3845 1.93805427 10.71872 3.48986895 15.961522.00685632.022855.01599809.043424.02056897.066278.24225679.825044.49822622 1.645518.76105198 2.46142.01599809.047995.03199617.095989.04570882.143983.01371265.047994.02971074.095989.04570883.143983.23997134.738198.49136989 1.47411.74276844 2.212307.0662778.185121.12798472.372527.19654796.557648.22625869.637638.45708827 1.275276.69477417 1.912914.10970119.287966.21940237.573646.32681812.863897.20568972.527937.409094 1.051303.61706916 1.57924.15769546.395382.32224723.790763.48679901 1.186144.16912266.41138.34281621.820474.51650975 1.234139.21483149.502797.43880474 1.003308.66049255 1.50382.1325556.299393.26739661.5965.39995221.893608.274253.601071.5576477 1.202142.8410425 1.798642.093703.191977.1828353.383954.2788238.575931.331389.687918.6696343 1.36898 1.0124505 2.04547.0571361.10513.1074158.207975.1599809.313106.3862396.749624.7793355 1.499249 1.1838586 2.242018.0182836.031996.0365671.063992.0525652.100559.0845613.15541.1782644.303964.2628257.457088l57.6913963-34.754706.212546-.127985c-2.2762996-4.797142-3.6932732-9.898247-4.2189247-15.083913z" fill="#93d500"/><path d="M84.2527957 178.214718l-.1622663.162266-47.5806037 47.582889c.2445422.228544.486799.459374.7381976.681062.4433756.402237.895893.80219 1.3461249 1.195285.233115.207976.4616592.413665.6947742.614784.5393642.46623 1.0832992.921033 1.6249488 1.375836.1485537.123414.2925365.244542.4388047.36567.6102129.505083 1.2318529 1.001024 1.8557784 1.494679.0799905.061707.1599809.125699.2399714.189692.6742052.530222 1.3552667 1.046732 2.0431845 1.567813.0297108.018283.0548506.036567.0777051.057136 2.8659434 2.141458 5.8370172 4.148076 8.901794 6.017567.1051304.066277.2102607.127984.3176764.194262.5827875.349673 1.1655751.694774 1.7529335 1.035305.3588143.20569.7176286.409094 1.0764429.612498.3382453.196548.6764906.383955 1.0193068.573646.6170692.338245 1.2387093.674205 1.8603493 1.003309.0845613.045709.1714081.091418.2582549.137126 1.7300791.905035 3.4898689 1.746078 5.2633714 2.555124h0l1.6889412-4.100082 23.9308565-58.116488.0891322-.214832c-2.6145449-1.39869-5.1193887-3.055635-7.4756787-4.984547z" fill="#4d5a31"/><path d="M79.2979588 173.474712c-.5142243-.57136-1.0033087-1.156433-1.4832514-1.748362-.4250921-.525652-.8364715-1.055874-1.2341383-1.592953-.4548029-.617069-.9004639-1.236424-1.3209851-1.869491-.4250921-.635353-.8410425-1.275276-1.2341384-1.926627l-57.7645303 34.79813c.8867512 1.47411 1.812355 2.909367 2.7562422 4.328626.0319962.047994.061707.100559.0937031.148554h0c.0114273.018283.0228545.034281.0342817.052565.0319961.045709.0594214.095988.0914176.143983.0022855.00457.0068563.009141.0091418.013712.0754195.114272.1531246.223974.2308296.338246.0045708.006856.0091417.013712.0137126.020569 0 0 0 0 0 0 .0022855.002285.0045709.006856.0068563.009141 1.0033088 1.483252 2.0340428 2.943649 3.0967731 4.365193.0228544.029711.0479942.061707.0708487.091418.0228544.029711.0457088.059421.0685632.089132.4616592.612498.9256037 1.222711 1.403261 1.828353.0617069.079991.1234138.157696.1896916.235401.4890845.626211.9873107 1.24328 1.4946787 1.855778.1188429.143983.2422568.290251.3610997.436519.4570883.546221.9141766 1.090156 1.3804066 1.62952.1988334.23083.4068086.461659.6079274.690203.3976668.452518.7907627.90275 1.1975713 1.348411.2216878.244542.4525174.49137.678776.735912.1028449.111987.2034043.221688.3085346.333674.2971074.319962.5919293.639924.8913222.9576.1188429.1257.2445422.249113.3656706.374813.5256515.548506 1.0558739 1.097012 1.5975235 1.636376l47.6514523-47.651453c-.5462205-.54622-1.0581593-1.108439-1.5632419-1.672943z" fill="#6ba43a"/><path d="M142.460702 178.189578c-.523366.422806-1.053589.836471-1.592953 1.234138l.118843.198834 34.74328 57.673112c1.60895-1.051303 3.199617-2.134602 4.753718-3.272752 3.361884-2.479704 6.616352-5.167383 9.751978-8.060751l-47.585175-47.585175-.189691-.187406z" fill="#4d5a31"/><g style="fill:#93d500"><path d="M170.681332 237.768749l-1.179288-1.956338-32.430413-53.833571c-.655922.395381-1.327841.75191-1.997476 1.11301-.67649.363385-1.357552.703915-2.047755 1.030734-6.230113 2.955075-12.974451 4.463467-19.72793 4.463467-4.424615 0-8.846944-.639924-13.123004-1.9152-.7290561-.217117-1.4398284-.502797-2.1597424-.758767-.7199141-.253684-1.4489699-.473086-2.1574567-.765623l-23.9148584 58.077636-.9370309 2.2763-.8021899 1.949481-.0045709.009142c.0617069.02514.1256993.045709.1874062.070849.0662778.027425.1302701.047994.1965479.075419h.0022855c.0022854 0 .0045709.002286.0045709.002286.015998.006856.0319961.011427.0457088.018283.564504.23083 1.1335789.429663 1.7003684.651351.7107722.276538 1.4215445.557648 2.1346022.818188.3633852.132556.7244849.287966 1.0878701.41595h.0022854 0c7.4916768 2.646541 15.2438939 4.497749 23.1263811 5.535339.3085346.036567.6147837.079991.9233183.123414.3222473.036567.6467804.068563.9690274.10513.607927.068564 1.213569.139412 1.823782.198834.150839.011427.301678.02514.452517.038852.74734.070849 1.494679.134841 2.237447.187406.253684.018284.509654.029711.761052.047995.655922.043423 1.307273.084561 1.960909.114272.399952.022854.799905.034281 1.202142.047994.518795.018284 1.035305.038853 1.558671.054851.74734.018283 1.501535.02514 2.253445.027425.178265 0 .354244.004571.530223.006856 6.296391 0 12.590496-.523366 18.816039-1.567812h0c.10513-.015999.207975-.034282.31539-.047995.658208-.114272 1.316415-.237686 1.974622-.358814.374812-.073134.75191-.143983 1.122152-.217117.383954-.07999.770193-.159981 1.154147-.242257.642209-.134841 1.282133-.274253 1.924342-.422806.114272-.02514.23083-.047995.347387-.079991 9.464013-2.205451 18.603493-5.6199 27.189896-10.138218l.002285-.002285h0c.562219-.297108 1.110725-.635353 1.670658-.939317.667349-.36567 1.330127-.742768 1.992905-1.122151.459374-.262826.923318-.505083 1.378121-.77705 0 0 .002285-.002286.002285-.002286.004571-.002285.009142-.006856.013713-.009142 0 0 0 0 .002286 0h0c.006856-.00457.013712-.006856.020569-.011427.00457-.002285.006856-.004571.009141-.006856l-.084561-.143983.084561.143983c.004571-.002286.009142-.004571.013713-.006856.006856-.004571.013713-.006857.020569-.011428.02514-.015998.05028-.02971.075419-.045708.148554-.089133.297108-.178265.445662-.267397h0l-1.170146-1.954052z"/><path d="M84.280221 107.07807c.5256515-.425092 1.0558739-.836472 1.5929526-1.234138l-.1188429-.198834-34.7409941-57.6731125c-1.6135216 1.0535885-3.2087597 2.1391731-4.7651453 3.2818938-3.3595988 2.4728475-6.6117818 5.1582411-9.740551 8.0493244l47.5851745 47.5851743.1874062.189692z"/></g><g style="fill:#4d5a31"><path d="M33.2074629 62.4708255c-.5416496.5416496-1.0535884 1.1015827-1.5815254 1.6500886-.5279369.548506-1.0650156 1.0947264-1.5815254 1.6523741-3.5150088 3.8052599-6.7283394 7.7910696-9.626279 11.9300039-.1394119.1942625-.2788238.3976668-.4159503.5965002-.3268181.4753718-.6490654.9507436-.9667417 1.4284009-.331389.4959407-.6604926.9987378-.9804544 1.4992495-.1211284.1828353-.2399713.3679561-.3565288.5507914C6.75347922 98.948755.889036689 118.423001.10055942 138.061798c-.0297107379.761052-.0457088274 1.52439-.0617069169 2.285442C.0228544136 141.108292 1.299123e-13 141.871629 1.299123e-13 142.632681H67.3930948c0-.763337.0708487-1.522104.1097012-2.285441.0388525-.763338.0502797-1.526675.1256993-2.285442.8707531-8.776094 4.2577772-17.344214 10.1633577-24.543354.4799427-.585073 1.0215923-1.133579 1.5358166-1.698083.5119388-.564504.9873106-1.151863 1.5335311-1.695798L33.2074629 62.4708255z"/><path d="M172.260572 45.7436802c-.091418-.0571361-.187407-.1119867-.278824-.1668373-.59193-.3633851-1.190715-.7130577-1.789501-1.0627302-.347387-.2011188-.694774-.3953813-1.044447-.5942147-.351958-.196548-.699345-.393096-1.053588-.585073-.607927-.3336745-1.21814-.662778-1.830639-.9873107-.095988-.0479943-.189691-.1005594-.287965-.1508391-3.951528-2.066039-8.010472-3.8852503-12.153977-5.4644903-.105131-.0434234-.214832-.0845613-.322248-.1234139-.902749-.3382453-1.807784-.6742052-2.719675-.9895961-7.361406-2.5711215-14.974212-4.3743347-22.708145-5.3890707-.315391-.0434234-.633067-.0868468-.948458-.1279847-.317677-.0388525-.633068-.0708487-.948458-.1051303-.610213-.0708487-1.218141-.1394119-1.830639-.1988334-.169123-.0159981-.340531-.0274253-.511939-.0457088-.724485-.0662778-1.453541-.1302702-2.178025-.1828353-.28111-.020569-.56679-.0365671-.847899-.0525652-.62164-.0411379-1.250137-.0845613-1.871777-.1119866-.333674-.0182835-.662778-.0274253-.991881-.0388525l-.002286 67.2925354v.2628257c3.467015.3588143 6.902033 1.0970119 10.234207 2.2283053l49.717491-49.7174913c-1.844351-1.2798471-3.711557-2.5231272-5.631327-3.6887023z"/></g><path d="M111.086163 29.3113568c-.761052.0159981-1.52439.0182835-2.285442.0479943-4.76743.191977-9.5257193.678776-14.2451557 1.4695388-.1028448.0182835-.2056897.0342816-.31082.0525651-.662778.1142721-1.3186996.2354005-1.9769068.3588143-.3725269.0708487-.7473393.1394119-1.1198662.2148315-.3885251.077705-.7747646.1576954-1.1610042.2422568-.6399236.1325556-1.2798472.2719675-1.9197708.4205212h0c-.1165575.0251398-.2308296.0525651-.3496725.077705-9.4640127 2.2077363-18.6080635 5.6244712-27.1921813 10.1427887 0 0 0 0 0 0h-.0022854c-.5599332.2971074-1.1061537.6330673-1.6638013.9393164-.6673489.3656707-1.3301269.7427685-1.9929049 1.1221517-.4913699.2833948-.9918816.5439351-1.480966.8364716-.0045709.0022854-.0114272.0068563-.0159981.0091417 0 0-.0022854 0-.0022854 0-.0342817.020569-.0685633.0388525-.1028449.0594215-.1279847.077705-.2605403.1416974-.388525.2194024l.0068563.0114272 1.1792877 1.9586232h0l33.6074152 55.7921948c.6559217-.395382 1.3278414-.754196 1.9974758-1.11301.6742052-.363385 1.3575521-.703916 2.04547-1.030734 4.7994268-2.2854417 9.9005315-3.7024153 15.0861985-4.2280668.761052-.077705 1.522104-.1416974 2.285441-.1805499.761052-.0388525 1.522104-.077705 2.285442-.077705l.002285-67.3908093c-.763337 0-1.524389.0319961-2.285441.0457088z" fill="#6ba43a"/><path d="M226.601511 137.060775c-.031996-.605642-.068564-1.208998-.109701-1.816926-.018284-.301678-.034282-.601071-.059422-.90732-.05028-.710772-.109701-1.42383-.175979-2.134602-.013713-.185121-.031996-.367956-.047994-.553077-.077705-.795334-.162267-1.590667-.253684-2.383715-.009142-.063993-.015998-.127985-.022855-.191977-.00457-.029711-.006856-.061707-.011427-.091418-.10513-.857041-.219402-1.714081-.340531-2.568836-.002285-.02514-.00457-.057136-.011427-.079991-.774764-5.373072-1.935769-10.698151-3.483012-15.934097-.011428-.036567-.020569-.068563-.031997-.100559-.244542-.813617-.493655-1.622664-.749624-2.429424-.034282-.105131-.070849-.212546-.102845-.319962-.239972-.729056-.482228-1.453541-.733627-2.180311-.070849-.194263-.139412-.390811-.207975-.589644-.221688-.628496-.450232-1.254707-.683347-1.880918-.111987-.299393-.226259-.596501-.342816-.893608-.196548-.518795-.399952-1.03759-.605642-1.549529-.164552-.41138-.329104-.8159027-.498226-1.2204258-.164552-.4022377-.333675-.7999045-.502797-1.2021422-.221688-.5119389-.445662-1.0238777-.67192-1.5335311-.127985-.2856802-.25597-.5759313-.388525-.8638969-.278824-.6079274-.564504-1.2158548-.85247-1.8214967-.089132-.1828353-.175979-.3702415-.265111-.5530768-.33596-.6924888-.676491-1.3849775-1.023878-2.0706099-.05028-.0937031-.098274-.1896917-.148554-.2856802-.388525-.7564811-.786191-1.5152476-1.190714-2.2625869-.015999-.0251399-.027426-.0548506-.043424-.0799905-1.963194-3.6109973-4.118365-7.1031517-6.449515-10.4627505l-49.73349 49.7357745c1.131294 3.334459 1.867206 6.767192 2.22602 10.231921h.265111 67.292536c-.015998-.34053-.02514-.674205-.041138-1.005594z" fill="#4d5a31"/><path d="M159.345542 142.632681c0 .763338-.070848 1.522104-.109701 2.285441-.036567.763338-.050279 1.526675-.125699 2.285442-.870753 8.776095-4.257777 17.3465-10.161072 24.54564-.479943.585073-1.021593 1.133579-1.535817 1.698083-.511939.564504-.987311 1.151862-1.533531 1.695797l47.653738 47.651453c.541649-.54165 1.051303-1.101583 1.57924-1.652374.527937-.550792 1.065015-1.094727 1.57924-1.652374 3.526436-3.818973 6.748908-7.813924 9.653704-11.966571.116557-.164552.226259-.326818.338245-.489085.354244-.509653.699345-1.023878 1.046732-1.538102.303964-.459374.607928-.918747.90275-1.382692.146268-.221688.292536-.452517.434234-.674205 10.92898-17.161379 16.777425-36.615056 17.563616-56.237856.029711-.761052.045709-1.524389.061707-2.285441.015998-.761052.038853-1.522104.038853-2.285441h-67.386239v.002285z" fill="#6ba43a"/><path d="M246.754533 9.2474671c-12.329956-12.32995613-32.320712-12.32995613-44.648383 0-9.836539 9.8342542-11.802019 24.5364984-5.944433 36.3430885l-68.771216 68.7735014c-11.80659-5.855301-26.508834-3.892107-36.3453736 5.942147-12.3299561 12.329957-12.3276707 32.320712 0 44.650668 12.3322416 12.329956 32.3229976 12.325386 44.6529536-.002285 9.834254-9.834254 11.797448-24.536499 5.939862-36.345374l68.771216-68.771216c11.808875 5.8553008 26.508834 3.8921067 36.343088-5.944433 12.329956-12.3230998 12.329956-32.3161408.002286-44.6460969z" fill="#424143"/></svg>