<svg width="256px" height="256px" viewBox="0 0 256 256" xmlns="http://www.w3.org/2000/svg" preserveAspectRatio="xMidYMid"><path d="M209.765144 128.149979c0 16.013321-4.900763 31.339911-13.266397 44.575093l33.446928 33.446927c16.73643-22.31524 25.783632-49.456847 25.783632-77.350897 0-29.2641103-9.754704-55.7500813-26.470363-77.3352892L196.48314 84.214794c8.639421 13.0076743 13.253767 28.273016 13.266397 43.888362l.015607.046823z" fill="#b8d3f4"/><path d="M127.513484 210.354816c-45.3673968-.085858-82.1259746-36.837458-82.2204447-82.204837.0687109-45.3856652 36.8348094-82.165722 82.2204447-82.2516604 16.731268 0 32.057858 4.9007631 44.606308 13.2663968l32.744589-32.7758038C182.54365 9.66665129 155.403429.630863298 127.513484.636494403 57.1235437.636494403 0 57.7600381 0 128.149979c0 70.358725 57.1235437 127.513484 127.513484 127.513484 28.023868.077413 55.262505-9.254953 77.350897-26.501579l-33.446927-33.43132c-11.86172 9.754704-27.157095 14.624252-43.90397 14.624252h0z" fill="#7fadf2"/></svg>