<svg width="256px" height="251px" viewBox="0 0 256 251" xmlns="http://www.w3.org/2000/svg" preserveAspectRatio="xMidYMid"><path d="M57.8196917 170.722795v9.156013c0 7.103802 5.7567112 12.860514 12.8605138 12.860514h0H185.330319c7.103802 0 12.860513-5.756712 12.860513-12.860514h0v-9.156013H256v56.051635c0 13.081521-10.703063 23.784583-23.784584 23.784583h0H23.7845838C10.7030627 250.559013 0 239.855951 0 226.77443h0v-56.051635h57.8196917zm-.0105242-74.3531342v57.8091672H0V96.3696608h57.8091675zm198.1908325 0v57.8091672h-57.809168V96.3696608H256zM232.215416 0C245.296937 0 256 10.7030627 256 23.7951079h0v56.04111h-57.809168v-9.1560124c0-7.1038026-5.756711-12.8605138-12.860513-12.8605138h0H70.6696814c-7.1038027 0-12.8605139 5.7567112-12.8605139 12.8605138h0v9.1560124H0V23.7845838C0 10.7030627 10.7030627 0 23.7845838 0h0z" fill="#da1a32"/></svg>