<svg width="256px" height="256px" viewBox="0 0 256 256" xmlns="http://www.w3.org/2000/svg" preserveAspectRatio="xMidYMid"><defs><linearGradient x1="50.0025785%" y1="1.63039062%" x2="50.0025785%" y2="98.5448437%" id="a"><stop stop-color="#ff1b2d" offset=".3"/><stop stop-color="#fa1a2c" offset=".4381000000000001"/><stop stop-color="#ed1528" offset=".5939"/><stop stop-color="#d60e21" offset=".7581"/><stop stop-color="#b70519" offset=".9272"/><stop stop-color="#a70014" offset="1"/></linearGradient><linearGradient x1="49.9902998%" y1="0.852967626%" x2="49.9902998%" y2="99.5189748%" id="b"><stop stop-color="#9c0000"/><stop stop-color="#ff4b4b" offset=".7"/></linearGradient></defs><path d="M85.9 200.1C71.7 183.4 62.6 158.7 62 131v-6c.6-27.7 9.8-52.4 23.9-69.1 18.4-23.8 45.4-34.5 75.9-34.5 18.8 0 36.5 1.3 51.5 11.3C190.8 12.4 161.1.1 128.5 0h-.5C57.3 0 0 57.3 0 128c0 68.6 54 124.7 121.9 127.9 2 .1 4.1.1 6.1.1 32.8 0 62.7-12.3 85.3-32.6-15 10-31.7 10.4-50.5 10.4-30.4.1-58.6-9.8-76.9-33.7h0z" fill="url(#a)"/><path d="M85.9 55.9c11.7-13.9 26.9-22.2 43.5-22.2 37.3 0 67.5 42.2 67.5 94.4 0 52.2-30.2 94.4-67.5 94.4-16.6 0-31.7-8.4-43.5-22.2 18.4 23.8 45.7 39 76.1 39 18.7 0 36.3-5.7 51.3-15.7C239.5 200 256 165.9 256 128c0-37.9-16.5-72-42.7-95.4-15-10-32.5-15.7-51.3-15.7-30.5 0-57.8 15.1-76.1 39h0z" fill="url(#b)"/></svg>