<svg width="256px" height="305px" viewBox="0 0 256 305" xmlns="http://www.w3.org/2000/svg" preserveAspectRatio="xMidYMid"><defs><linearGradient x1="50%" y1="16.6199552%" x2="50%" y2="119.282511%" id="a"><stop stop-color="#2684ff" offset="0%"/><stop stop-color="#0052cc" offset="82%"/></linearGradient><linearGradient x1="41.179673%" y1="31.1603357%" x2="67.7136955%" y2="78.6783874%" id="b"><stop stop-color="#2684ff" offset="0%"/><stop stop-color="#0052cc" offset="62%"/></linearGradient></defs><circle fill="url(#a)" cx="127.996078" cy="76.0579131" r="76.0579131"/><path d="M121.515807 302.952652C71.8432945 271.266206 30.5322167 228.083335 1.07656696 177.056341c-1.1385990098-2.045371-1.386203341-4.468898-.684749656-6.702262.701453686-2.233364 2.290263196-4.080111 4.393851916-5.107178l57.59766848-28.265917c4.0290044-1.96468 8.891304-.47432 11.1273068 3.410668 29.1202265 48.806799 72.1794945 87.78286 123.6367425 111.912569-18.97764 19.121267-39.993406 36.105438-62.671039 50.648431-3.96544 2.475916-8.9951 2.475916-12.960541 0z" fill="url(#b)"/><path d="M134.476348 302.952652c49.678936-31.678625 90.991688-74.863247 120.439241-125.896311 1.141543-2.040054 1.395431-4.459323.702279-6.691919-.693153-2.232596-2.272546-4.082687-4.368748-5.117521l-57.640302-28.265917c-4.029005-1.96468-8.891304-.47432-11.127307 3.410668-29.114109 48.811812-72.175113 87.789445-123.6367421 111.912569 18.9660824 19.134062 39.9833203 36.119422 62.6710381 50.648431 3.965441 2.475916 8.995101 2.475916 12.960541 0z" fill="#2684ff"/></svg>