<svg width="256" height="305" xmlns="http://www.w3.org/2000/svg" preserveAspectRatio="xMidYMid"><defs><linearGradient x1="50%" y1="16.62%" x2="50%" y2="119.283%" id="a"><stop stop-color="#2684FF" offset="0%"/><stop stop-color="#0052CC" offset="82%"/></linearGradient><linearGradient x1="41.18%" y1="31.16%" x2="67.714%" y2="78.678%" id="b"><stop stop-color="#2684FF" offset="0%"/><stop stop-color="#0052CC" offset="62%"/></linearGradient></defs><circle fill="url(#a)" cx="127.996" cy="76.058" r="76.058"/><path d="M121.516 302.953A366.903 366.903 0 011.076 177.056a8.527 8.527 0 013.71-11.81l57.597-28.265a8.527 8.527 0 0111.128 3.41 284.748 284.748 0 00123.636 111.913 368.779 368.779 0 01-62.67 50.649 12.236 12.236 0 01-12.961 0z" fill="url(#b)"/><path d="M134.476 302.953a366.647 366.647 0 00120.44-125.897 8.527 8.527 0 00-3.667-11.81l-57.64-28.265a8.527 8.527 0 00-11.127 3.41A284.62 284.62 0 0158.845 252.305a366.647 366.647 0 0062.67 50.649 12.236 12.236 0 0012.961 0z" fill="#2684FF"/></svg>