<svg width="256px" height="248px" viewBox="0 0 256 248" xmlns="http://www.w3.org/2000/svg" preserveAspectRatio="xMidYMid"><title>Optimizely</title><path d="M85.2556223 135.865417v29.789221c22.7294747-.026567 44.5204397-8.790643 60.5926707-24.37004 16.072232-15.579398 25.113277-36.701516 25.141173-58.7335846h-30.73238c-.017934 14.1341055-5.819028 27.6850466-16.129353 37.6792136-10.310989 9.994832-24.2903367 15.617257-38.8721107 15.63519h0z" fill="#3be081"/><path d="M85.2469878 217.922268c-14.476831 0-28.3604679-5.574603-38.5970008-15.497037-10.2365993-9.922434-15.9874135-23.380387-15.9874135-37.412871 0-14.033147 5.7508142-27.490436 15.9874135-37.413535 10.2365329-9.922434 24.1201698-15.497037 38.5970008-15.497037V82.5316697c-11.1790944-.0151945-22.2513196 2.1035929-32.5852902 6.2362247-10.3339705 4.1319676-19.7271064 10.1974117-27.6430025 17.8482936-7.9158961 7.650881-14.1995953 16.739085-18.49229184 26.743879C2.23370009 143.365526.0160566163 154.092303 0 164.928007c-.0158828754 10.835705 2.17013647 21.568459 6.43332938 31.585874 4.26322612 10.01675 10.52009172 19.121558 18.41340512 26.795022 7.8933134 7.6728 17.2685161 13.764148 27.5902654 17.924676 10.3217493 4.161193 21.3877975 6.311197 32.5668919 6.326474h.243096v-29.637785z" fill="#0037ff"/><path d="M85.2556223 217.922932v29.570037c22.5767097 0 44.2288577-8.693006 60.1928247-24.167461 15.963967-15.474454 24.932615-36.462405 24.932615-58.346358h-30.540428c-.009298 14.032484-5.761906 27.489109-15.995848 37.414864-10.233279 9.925755-24.1116685 15.510985-38.5891637 15.528918z" fill="#0cf"/><path d="M85.2556223 52.943782v29.5700364c22.5767097 0 44.2288577-8.6930062 60.1928247-24.167527C161.412414 42.8719034 170.381062 21.8840852 170.381062 0h-30.540428c-.009298 14.0330147-5.761906 27.4891746-15.995848 37.4151292-10.233279 9.9260209-24.1116685 15.5107859-38.5891637 15.5286528z" fill="#861dff"/><path d="M170.875224 52.943782v29.5700364c22.57671 0 44.228193-8.6930062 60.192161-24.167527C247.032016 42.8719034 256 21.8840852 256 0h-30.523159c-.009298 14.0358708-5.764563 27.494621-16.001826 37.4211069-10.237264 9.9264195-24.119639 15.5092583-38.599791 15.5226751z" fill="#ff8110"/></svg>