<svg width="256px" height="256px" viewBox="0 0 256 256" xmlns="http://www.w3.org/2000/svg" preserveAspectRatio="xMidYMid"><defs><radialGradient cx="26.1956818%" cy="9.36015909%" fx="26.1956818%" fy="9.36015909%" r="105.50989%" gradientTransform="matrix(1 0 0 .996094 .261957 .093602)rotate(58.071241)translate(-.261957 -.093602)" id="c"><stop stop-color="#51c3f7"/><stop stop-color="#046cf4" offset="1"/></radialGradient><path d="M127.754545 256c70.416512 0 127.5-57.307345 127.5-128 0-70.6924218-57.083488-128-127.5-128C57.3382659 0 .254545455 57.3075782.254545455 128c0 70.692655 57.083720445 128 127.499999545 128z" id="b"/><radialGradient cx="-15.3135%" cy="-13.6326789%" fx="-15.3135%" fy="-13.6326789%" r="181.00096%" gradientTransform="matrix(1 0 0 .909547 -.153135 -.136327)rotate(15.269975)translate(.153135 .136327)" id="d"><stop stop-color="#fff"/><stop stop-color="#5cb5ff" offset="1"/></radialGradient><radialGradient cx="69.5505569%" cy="-14.976051%" fx="69.5505569%" fy="-14.976051%" r="205.050435%" gradientTransform="matrix(1 0 0 .576945 .695506 -.149761)rotate(117.132184)translate(-.695506 .149761)" id="e"><stop stop-color="#fff"/><stop stop-color="#7ac2ff" offset="1"/></radialGradient><radialGradient cx="40.0708592%" cy="19.9807672%" fx="40.0708592%" fy="19.9807672%" r="98.9201276%" gradientTransform="matrix(1 0 0 .667344 .400709 .199808)rotate(59.049023)translate(-.400709 -.199808)" id="f"><stop stop-color="#fff"/><stop stop-color="#cbe7ff" offset="1"/></radialGradient></defs><path d="M127.754545 256c70.416512 0 127.5-57.307345 127.5-128 0-70.6924218-57.083488-128-127.5-128C57.3382659 0 .254545455 57.3075782.254545455 128c0 70.692655 57.083720445 128 127.499999545 128z" fill="url(#c)"/><mask id="a" fill="#fff"><use href="#b"/></mask><path fill="#e8f5ff" mask="url(#a)" d="M136.981818 58.7636364l57.763637 61.0909086-49.756796-11.636363z"/><path d="M138.3786 67.2429818l14.525 42.9930002-8.211033-2.0178-6.313967-40.9752002z" fill="#64a4d8" mask="url(#a)"/><path fill="url(#d)" mask="url(#a)" d="M21.3636364 140.8-94 13.9636364 6.17220664 35.9065018z"/><path fill="url(#e)" mask="url(#a)" d="M159.487855 196.996655 136.503324 58.7636364 79.7349818 127.880145z"/><path d="M89.1156364 116.735418l34.9359996 43.464-37.6879996-40.053963 2.752-3.410037z" fill="#4492d2" mask="url(#a)"/><path fill="url(#f)" mask="url(#a)" d="M56.7247255 335.584582-40.5537164 108.739491 4.62124364 35.4909091 159.711855 197.174109z"/></svg>