<svg width="256px" height="255px" viewBox="0 0 256 255" xmlns="http://www.w3.org/2000/svg" preserveAspectRatio="xMidYMid"><path d="M255.214617.257580247V63.993679l-63.604938 63.604938V63.7297778L255.214617.257580247" fill="#a596ff"/><path d="M128.006321.257580247V63.993679l63.604938 63.604938V63.7297778L128.006321.257580247"/><path d="M255.345778 254.803753h-63.736099l-63.604938-63.604938H191.872l63.473778 63.604938" fill="#a596ff"/><path d="M255.345778 127.595457h-63.736099l-63.604938 63.604938H191.872l63.473778-63.604938"/><path d="M.801185185 254.936494v-63.737679L64.4061235 127.593877v63.868839L.801185185 254.936494" fill="#a596ff"/><path d="M128.009481 254.936494v-63.737679l-63.6049378-63.604938v63.868839l63.6049378 63.473778"/><path d="M.671604938.385580247H64.4077037L128.012642 63.9905185H64.1453827L.671604938.385580247" fill="#a596ff"/><path d="M.671604938 127.593877H64.4077037l63.6049383-63.6049387H64.1453827L.671604938 127.593877"/></svg>