<svg width="256px" height="256px" viewBox="0 0 256 256" xmlns="http://www.w3.org/2000/svg" preserveAspectRatio="xMidYMid"><title>Overloop</title><defs><linearGradient x1="100.000913%" y1="-7.14383695%" x2="0.00217923797%" y2="92.8571023%" id="a"><stop stop-color="#93c" offset="0%"/><stop stop-color="#f80" offset="100%"/></linearGradient></defs><path d="M167.445744 169.059823c1.764549 22.564783-4.489086 42.06668-20.470598 58.039402-20.827165 20.836767-74.4763139 31.890586-132.3772948 28.196836-3.6108343-.228573-7.01423805-1.766416-9.57254165-4.324612-2.55829445-2.558195-4.095838406-5.962113-4.324465451-9.572661C-2.983677 183.505673 8.06989729 129.854883 28.9062413 109.027259c15.9723693-15.9727217 35.4738364-22.2356376 58.0381222-20.4710496 8.365151.6582918 16.4564775 2.1851634 25.7272165 4.8366168-4.159947-11.9223977-6.37249-20.7179088-7.497048-30.0619966-2.386255-19.8127576 2.185116-36.6449156 15.478662-49.9387547 15.871799-15.8721491 42.769744-18.21274251 59.528389-3.91317965 9.199426-6.1375662 20.242943-8.895352111 31.247147-7.803319 11.005117 1.09203311 21.290701 5.96613604 29.104088 13.79194665 7.823444 7.8134677 12.696525 18.0975415 13.788168 29.1005247 1.092558 11.0029835-1.663979 22.0441843-7.799672 31.2428993 14.299247 16.7681574 11.958706 43.6666961-3.913094 59.5388451-13.293545 13.293839-30.125332 17.86531-49.937653 15.479002-9.343882-1.115439-18.139199-3.346317-30.061333-7.497213-6.642202-2.348822-13.23869-4.82656-19.784892-7.433213l-8.86846-3.501747c-2.56911-1.005724-5.055936-1.965733-7.469619-2.870884-13.668399-5.15662-24.959684-8.640081-34.5504199-10.37724-14.9479249-2.715455-25.6906461-1.161154-34.9613859 5.046904-2.5339106 1.713388-4.8920065 3.673635-7.0399106 5.851484-12.0684187 12.077827-21.0283053 51.337625-20.114031 96.128902 44.7994325.914295 84.0579064-8.027503 96.1354674-20.105331 13.759826-13.760129 15.542661-29.677993 6.875342-58.130832l4.543942 1.792017c11.931278 4.699473 21.128876 8.064076 29.037347 10.514385.457137 2.944027.804561 5.860626 1.03313 8.813797zm-19.666037-66.770913 1.673122 4.260611 4.260517 1.673159c40.118349 15.799005 56.22786 17.737309 67.866569 6.098343 5.531359-5.522338 6.153065-15.3967163 1.883405-19.6756135-1.345811-1.3549841-2.985105-2.3835652-4.790797-3.0080284-11.995276-4.1417531-13.622684-20.4253346-2.687965-26.8619665 2.969562-1.7571821 5.372274-4.3290006 6.924712-7.4105382 1.551523-3.0815376 2.186944-6.5434214 1.830377-9.975225-.355653-3.4318039-1.688665-6.6894343-3.839952-9.3866939-2.151287-2.6973511-5.03125-4.7210501-8.297952-5.8312777-3.921322-1.3507785-8.188239-1.3080809-12.082132.1209611-3.893894 1.4289506-7.176138 4.1568391-9.293597 7.7236839-6.43649 10.9349601-22.719712 9.3075162-26.861374-2.6880252-.626278-1.8062796-1.658493-3.4451523-3.017105-4.7909021-4.260517-4.2697544-14.143821-3.6480341-19.666036 1.8834464-11.63871 11.6389663-9.691306 27.7488318 6.098208 67.8680661h0z" fill="url(#a)"/></svg>