<svg width="512px" height="237px" viewBox="0 0 512 237" xmlns="http://www.w3.org/2000/svg" preserveAspectRatio="xMidYMid"><title>p5.js</title><path d="M28.6968989 56.8984111v16.717736h.750396c1.4945213-2.3264366 3.4488953-4.6988585 5.863122-7.110995 2.4100462-2.4121364 5.365645-4.5734441 8.8605255-6.4901938 3.4927903-1.9062985 7.4433431-3.4907001 11.8537486-4.7406633 4.4041347-1.2457828 9.3580025-1.8728547 14.8469716-1.8728547 8.4863726 0 16.3038685 1.6241161 23.4587586 4.8660777 7.1527998 3.2503225 13.3106458 7.7004425 18.4693568 13.3545406 5.154531 5.6582785 9.146888 12.3136012 11.977073 19.963878 2.828094 7.6544573 4.243186 15.8900014 4.243186 24.7066314 0 8.816631-1.373287 17.093979-4.119862 24.829956-2.742395 7.735977-6.657413 14.472819-11.728334 20.212617-5.077192 5.739797-11.228767 10.321602-18.467267 13.724512-7.2384996 3.409181-15.4343289 5.114817-24.5812172 5.114817-8.4863726 0-16.264154-1.747441-23.3333442-5.238141-7.0754609-3.49488-12.520535-8.233453-16.3456734-14.22826h-.497477v75.865245H0V56.8984111h28.6968989zm69.8767086 59.3920669c0-4.659144-.7085913-9.276483-2.1215932-13.852018-1.4171824-4.5734438-3.5366853-8.6912157-6.3647795-12.3533154-2.8301843-3.6537388-6.404494-6.6093375-10.7312899-8.8584353-4.3267959-2.2449172-9.3998073-3.3673759-15.2211244-3.3673759-5.4910594 0-10.4010321 1.1642634-14.7236475 3.4948806-4.3267959 2.3306171-8.0307004 5.3280206-11.1054428 8.9817593-3.0810131 3.6620998-5.4074497 7.8216765-6.9876709 12.4808207-1.5844015 4.659144-2.3703316 9.320378-2.3703316 13.975341 0 4.659144.7859301 9.276484 2.3703316 13.847838 1.5802212 4.579714 3.9066578 8.695396 6.9876709 12.357496 3.0768326 3.657919 6.7786469 6.613518 11.1054428 8.854255 4.3226154 2.249097 9.2325881 3.367376 14.7236475 3.367376 5.8213171 0 10.8943285-1.160083 15.2211244-3.490701 4.3247057-2.330617 7.9011056-5.32384 10.7312899-8.985939 2.8280942-3.65792 4.9475971-7.817496 6.3647795-12.47664 1.4130019-4.659144 2.1215932-9.318288 2.1215932-13.975342zM390.473472 51.1753352V183.918089c0 7.1528-.583177 13.933537-1.74744 20.338031-1.168444 6.404494-3.367376 11.977072-6.613518 16.721916-3.241962 4.744844-7.654458 8.523997-13.227036 11.354181-5.576759 2.830185-12.850793 4.241097-21.836733 4.241097-2.493656 0-4.989402-.16722-7.487238-.497477-2.493656-.334439-4.489835-.668877-5.988536-1.001225l2.497836-25.454938c1.331482.334439 2.742394.583177 4.241096.750396 1.498702.163039 2.826004.248739 3.992357.248739 3.490701 0 6.318795-.664696 8.484283-1.996179 2.159217-1.335663 3.825138-3.164623 4.993582-5.491059 1.160083-2.330617 1.910479-5.033297 2.244917-8.11222.330258-3.078923.497477-6.360599.497477-9.855479V51.1753352h29.948953zm-74.77414 81.5757798L315.699 151.344l17.834256-5.382571 3.503242 10.777275-17.762856 6.057514 11.026013 15.634992-9.295295 6.743113-11.6071-15.359081-11.304016 14.953574-9.027744-6.874798 11.026013-15.0978-17.898721-6.45884 3.505332-10.785636 17.97397 5.792053v-18.59268h12.027238zM492.53987 88.8393618c-2.665056-3.4948805-6.322975-6.5278181-10.982119-9.1071737-4.659144-2.5793557-9.732155-3.8711237-15.223215-3.8711237-4.826363 0-9.230498 1.0012247-13.222855 2.9974035-3.996538 1.9919983-5.988536 5.3238402-5.988536 9.9808939 0 4.6570538 2.201022 7.9491811 6.609337 9.8554796 4.408315 1.9146596 10.858795 3.8711236 19.343077 5.8673026 4.489834 1.001225 9.021474 2.330617 13.599098 3.992357 4.577625 1.661741 8.737202 3.866944 12.480821 6.613518 3.739438 2.742395 6.776557 6.155756 9.107174 10.231723 2.326436 4.078057 3.49488 9.025654 3.49488 14.849062 0 7.324199-1.375377 13.52176-4.119862 18.592681-2.742394 5.075101-6.404494 9.192873-10.982119 12.353316-4.577624 3.160442-9.899374 5.449254-15.97152 6.862256-6.074236 1.413002-12.349135 2.119503-18.84142 2.119503-9.320378 0-18.383656-1.705636-27.202377-5.114816-8.818721-3.405001-16.13874-8.275259-21.960057-14.594053l19.71514-18.469357c3.327661 4.326796 7.650276 7.903196 12.978297 10.7292 5.32384 2.830184 11.226677 4.241096 17.718961 4.241096 2.159217 0 4.36442-.244558 6.613518-.746215 2.244917-.497477 4.322615-1.285498 6.237275-2.368242 1.910479-1.082744 3.448895-2.53546 4.617339-4.368601 1.160083-1.83314 1.74326-4.073876 1.74326-6.741022 0-4.993582-2.286723-8.565802-6.858076-10.7292-4.579715-2.163398-11.444062-4.326796-20.58886-6.488103-4.494015-1.001225-8.862616-2.286722-13.105802-3.871124-4.241096-1.580221-8.02652-3.657919-11.354181-6.237275-3.331842-2.579356-5.988537-5.777422-7.984716-9.610921-1.996178-3.825139-2.997403-8.5658021-2.997403-14.2240806 0-6.6553228 1.371197-12.3909402 4.119862-17.2152131 2.742394-4.8305436 6.36478-8.7727354 10.854614-11.8600192 4.489835-3.0747424 9.564936-5.3635547 15.223215-6.858076 5.654098-1.4987018 11.479595-2.2490978 17.468132-2.2490978 8.647321 0 17.093979 1.4987018 25.327433 4.4898346C500.641638 60.8886784 507.169456 65.4683933 512 71.6199683l-19.46013 17.2193935zm-238.448259 6.1118605c-3.078923-6.8998808-7.359733-12.7253784-12.850793-17.468132-5.488969-4.7406633-11.937358-8.3609583-19.338896-10.8546141-7.405719-2.4936557-15.434329-3.743619-24.08165-3.743619-3.162532 0-6.697127.1713996-10.605875.497477-3.910839.3386188-7.278215.9176152-10.106309 1.7516208l1.74535-38.1844963h72.121626V4e-15l-100.569786 3e-23-2.995313 96.571158c2.656694-1.3273022 5.695902-2.5751752 9.107173-3.7436191 3.409181-1.160083 6.901971-2.2010223 10.480461-3.1144569 3.5764-.915525 7.2385-1.6199357 10.982119-2.1236834 3.743619-.497477 7.276124-.7462156 10.605876-.7462156 4.822182 0 9.564936.5392818 14.22408 1.6199357 4.657054 1.0827441 8.858435 2.9974035 12.602054 5.7397978 3.743619 2.7423943 6.776557 6.3647795 9.109264 10.8546145 2.326437 4.489834 3.492791 10.148113 3.492791 16.970655 0 5.32384-.873721 10.108398-2.621161 14.349494-1.74535 4.236916-4.117772 7.777782-7.108905 10.601695-2.997403 2.832275-6.488103 4.993583-10.484641 6.488104-3.992358 1.502882-8.233454 2.249098-12.727469 2.249098-7.982625 0-14.890867-2.123684-20.712184-6.36478-5.825497-4.241096-9.980894-9.855479-12.47873-16.845241l-.332348.123325-21.671604 20.306677c4.383233 7.148619 10.03315 13.128795 17.01455 17.877819 10.146023 6.899881 22.622663 10.357137 37.434101 10.357137 8.81663 0 17.133693-1.417182 24.953279-4.241096 7.817496-2.826004 14.640038-6.904061 20.463446-12.232082 5.821317-5.31966 10.438656-11.851658 13.852017-19.587635 3.407091-7.735977 5.112728-16.508712 5.112728-26.328657.002088-8.98385-1.536328-16.92258-4.615251-23.8308217z" fill="#ed225d"/></svg>