<svg width="256px" height="285px" viewBox="0 0 256 285" xmlns="http://www.w3.org/2000/svg" preserveAspectRatio="xMidYMid"><path d="M206.052 203.265C237.813 190.014 256 183.436 256 183.436L189.698 0 0 40.15c0 0 4.022 11.406 10.833 56.141L152.495 64.46l53.557 138.805" fill="#e80022"/><path d="M22.837 187.856c3.068 27.315 6.069 58.652 9.577 96.507 32.167-16.533 61.92-30.989 88.56-43.423l-25.941-69.291-72.196 16.207" fill="#b6b1b1"/><path d="M13.422 114.016c2.152 15.307 4.524 33.606 7.085 55.417l85.945-20.253 30.88 84.2c18.626-8.527 35.475-15.96 50.227-22.289L141.076 86.93 13.422 114.016" fill="#748282"/></svg>