<svg width="256px" height="259px" viewBox="0 0 256 259" xmlns="http://www.w3.org/2000/svg" preserveAspectRatio="xMidYMid"><title>pandacss</title><path d="M0 29.6421081C0 13.2711996 13.2712538 0 29.6421623 0H226.358302C242.728824 0 256 13.2711996 256 29.6421081V229.052455c0 16.371296-13.271176 29.642472-29.641698 29.642472H29.6421623C13.2712538 258.694927 0 245.423751 0 229.052455V29.6421081z" fill="#f6e458"/><path d="M164.056125 57.8249988c-14.124058-4.0571904-28.53086-4.608581-43.211886-3.2955618-8.215859.8536561-16.114114 2.484511-23.7327238 5.3462731-16.4673515 6.1855983-28.8312665 16.8982851-36.2038496 33.0286672-5.2855411 11.5638637-7.1958096 23.8473707-7.3948928 36.4515807-.2103929 13.319204 1.4588069 26.454818 4.1111056 39.478108 2.4041031 11.804004 5.6057008 23.377164 10.178106 34.549059.4344196 1.06126.9755074 1.419145 2.1349924 1.416832 14.4611047-.030997 28.9229067-.030997 43.3847082-.030997 4.280675 0 8.562125 0 12.843574-7.75e-4.327674 0 .655348-.017816 1.032599-.038732.192111-.01007.397391-.02169.622038-.03176-.08676-.20683-.164225-.396617-.237816-.574785-.142534-.350138-.267251-.654573-.406687-.95281-1.045767-2.237168-2.113225-4.464265-3.180682-6.692137-2.315407-4.832221-4.630039-9.664441-6.723898-14.591168-6.351294-14.940531-11.2145-30.324157-12.698715-46.607918-.654573-7.18481-.56394-14.328564 1.42999-21.329783 2.278224-8.002833 7.167768-13.652301 15.274402-16.0141859 7.444315-2.1682246 14.992432-2.154281 22.395691.2401392 6.607701 2.1364637 10.915488 6.6503067 12.748293 13.4082877 1.407525 5.190105 1.40675 10.435985.342392 15.668695-.820347 4.028142-2.470336 7.704595-5.44109 10.645138-5.329541 5.275316-11.984495 6.488407-19.125925 6.084043-1.270413-.072042-2.536954-.210703-3.842227-.354786-.611193-.066619-1.230907-.134788-1.86379-.197534.017817.202182.027887.388096.037958.56239.017817.343167.034084.64063.104577.924924.304434 1.22316.594925 2.450969.884641 3.678777.698728 2.957585 1.397456 5.915171 2.295266 8.810785 1.764636 5.685876 3.815115 11.235415 6.140592 16.653265 16.575801-1.293653 31.842457-5.413976 48.04643-15.141163.243238-.153379.464786-.29204.686333-.429927 6.960164-4.33335 12.593364-9.954157 16.478197-17.212557 6.291647-11.754427 7.517906-24.324551 5.648693-37.29904-1.92886-13.3904709-7.937762-24.6297598-18.282339-33.4457344-7.173964-6.114796-15.470386-10.1193107-24.474057-12.7056098z"/></svg>