<svg width="256px" height="193px" viewBox="0 0 256 193" xmlns="http://www.w3.org/2000/svg" preserveAspectRatio="xMidYMid"><defs><linearGradient x1="49.3851066%" y1="49.5025198%" x2="50.2861654%" y2="50.4169361%" id="a"><stop offset="0%"/><stop stop-opacity="0" offset="100%"/></linearGradient><linearGradient x1="50.1473165%" y1="49.9352226%" x2="49.9457334%" y2="50.1421881%" id="b"><stop offset="0%"/><stop stop-opacity="0" offset="100%"/></linearGradient><linearGradient x1="81.502757%" y1="46.5470292%" x2="93.7343617%" y2="50.2023826%" id="c"><stop stop-color="#c37a44" offset="0%"/><stop stop-color="#bb713d" offset="44.42%"/><stop stop-color="#a05728" offset="64.06%"/><stop stop-color="#964e23" offset="100%"/></linearGradient><linearGradient x1="63.4752804%" y1="61.3196282%" x2="41.3882459%" y2="43.4141742%" id="d"><stop stop-color="#e9b880" offset="0%"/><stop stop-color="#e4af76" offset="100%"/></linearGradient><linearGradient x1="50.8943679%" y1="51.1174227%" x2="49.1602649%" y2="49.2735752%" id="e"><stop stop-color="#c37a45" stop-opacity="0" offset="0%"/><stop stop-color="#c37a45" offset="13.34%"/><stop stop-color="#d08d55" offset="29.45%"/><stop stop-color="#dea167" offset="50.21%"/><stop stop-color="#e8af73" offset="69.66%"/><stop stop-color="#ecb477" offset="86.31%"/><stop stop-color="#ecb477" stop-opacity="0" offset="100%"/></linearGradient><linearGradient x1="47.4226244%" y1="28.9370967%" x2="22.3147813%" y2="77.4928036%" id="f"><stop stop-color="#af6938" offset="8.81%"/><stop stop-color="#9a5227" offset="48.29%"/><stop stop-color="#8d4520" offset="77.92%"/></linearGradient><linearGradient x1="41.1470316%" y1="57.2875436%" x2="56.5791467%" y2="44.9502686%" id="g"><stop stop-color="#e4af76" offset="3.27%"/><stop stop-color="#e9b880" offset="100%"/></linearGradient><linearGradient x1="49.6244666%" y1="50.4701302%" x2="50.6772404%" y2="49.2234974%" id="h"><stop stop-color="#af6a38" stop-opacity="0" offset="0%"/><stop stop-color="#af6a38" offset="8.6%"/><stop stop-color="#b87542" offset="19.77%"/><stop stop-color="#d59c66" offset="58.28%"/><stop stop-color="#e4af76" offset="77.71%"/><stop stop-color="#e4af76" stop-opacity="0" offset="92.39%"/></linearGradient><linearGradient x1="8.2111437%" y1="50.006371%" x2="93.2434018%" y2="50.006371%" id="i"><stop stop-color="#743f1a" stop-opacity="0" offset="0%"/><stop stop-color="#743f1a" stop-opacity="0.8872" offset="49.29%"/><stop stop-color="#743f1a" stop-opacity="0.9" offset="50%"/><stop stop-color="#743f1a" stop-opacity="0.8466" offset="52.97%"/><stop stop-color="#743f1a" stop-opacity="0" offset="100%"/></linearGradient><linearGradient x1="49.9010615%" y1="50.0914476%" x2="49.9976296%" y2="49.9936958%" id="j"><stop stop-color="#322214" offset="0%"/><stop stop-color="#322314" stop-opacity="0.9891" offset="23.97%"/><stop stop-color="#322214" stop-opacity="0" offset="100%"/></linearGradient><linearGradient x1="51.3801612%" y1="48.2357544%" x2="48.7140837%" y2="51.5684302%" id="k"><stop stop-color="#c69866" offset="4.76%"/><stop stop-color="#ba8c5e" offset="41.56%"/><stop stop-color="#b5875b" offset="81.35%"/></linearGradient><linearGradient x1="63.0385807%" y1="46.8436812%" x2="24.9836379%" y2="8.90684578%" id="l"><stop stop-color="#845f35" offset="0%"/><stop stop-color="#91673c" offset="43.11%"/><stop stop-color="#976a40" offset="44.07%"/><stop stop-color="#986b40" offset="87.37%"/><stop stop-color="#ab8157" offset="100%"/></linearGradient><linearGradient x1="49.9985955%" y1="50.0035042%" x2="50.108427%" y2="50.1142021%" id="m"><stop stop-color="#322214" stop-opacity="0" offset="0%"/><stop stop-color="#322214" offset="100%"/></linearGradient><linearGradient x1="45.656315%" y1="62.6225439%" x2="50.4753225%" y2="33.5379615%" id="n"><stop stop-color="#a9794b" offset="0%"/><stop stop-color="#ae7f53" offset="38.57%"/><stop stop-color="#ac7d50" offset="45.57%"/><stop stop-color="#a9794b" offset="62.36%"/><stop stop-color="#b2875d" offset="100%"/></linearGradient></defs><path d="M140.514532 191.333032l70.257266-44.428271c.25999-.159994.599977-.089997.759971.169993.159994.25999.089996.599977-.169994.75997l-70.487257 44.568266c-.089996.059998-.189992.089997-.289988.089997l-.069998-1.159955z" fill="url(#a)"/><path d="M140.58453 192.492987c-.059998 0-.129995-.01-.189993-.029999l-95.7862728-35.698611c-.2899887-.109996-.4299833-.419984-.3199875-.709972.1099957-.289989.4199836-.429984.7099723-.319988l95.536283 35.598615.049998 1.159955z" fill="url(#b)"/><path d="M241.100618 21.809628l-11.059569 18.3092875-44.428272 18.889265-2.469903 1.0499592-39.928447 37.338547c-.76997.7699701-1.28995 1.8699273-1.379946 2.4799036-.039999.2099917-.219992.1199956-.389985.1099957-.179993-.0099996-.429983.059998-.449982-.1599938-.02-.7999689-.109996-1.6899342-1.399946-2.4899031l-20.009221-12.9594957h0l-14.589433-9.4596319-41.0984004-10.5395899-34.3986615-8.8196568L7.7097 21.7096319l.32998716-.3799852.01999922-.0299989L89.8565035.0404750959c.1199953-.039998443629.1399946-.0204758741.1899926.0499980545L117.945411 41.8788471l.549978.8199681c.599977.8799657.659974 1.4199447.659974 1.8099295h.509981c0-.0299988 0-.0599976 0-.0899965 0-.0399984 0-.0899965.009999-.1399945 0-.0299989.01-.0599977.01-.0999961.009999-.0399985.009999-.0799969.019999-.1199954.01-.0399984.01-.0799969.019999-.1299949.029999-.1399946.069998-.2999883.109996-.4599821.01-.0499981.029999-.0999961.039998-.1399946.049998-.1599937.099997-.3299871.159994-.4899809.029999-.0599977.049998-.1299949.079997-.1899926.079997-.1999922.159994-.3799852.24999-.539979.079997-.1599938.159994-.2899887.239991-.3999844l25.149021-36.57857666c.059998-.0899965.089997-.12999494.219992-.10999572l94.966305 16.33936418.159993.4499825z" fill="#e8b67f"/><path fill="url(#c)" d="M119.585347 84.3671938h-.01l-14.579433-9.4496323-41.0984004-10.5395899 55.2578494-19.8692269.149995-.2899887v.2899887z"/><path d="M119.155363 44.5087447 63.8975136 64.367972l-4.9798062-1.2799502-29.4188553-7.5497063L7.7097 21.6896327l.34998638-.4099841L89.8565035.0204758741C89.9764988-.0195225695 89.9964981 0 90.0464961.0704739286L117.945411 41.8588478l.549978.8199681c.599977.899965.659974 1.439944.659974 1.8299288z" fill="url(#d)"/><path d="M119.350356 46.6186626 67.1023889 65.3979319l-8.1496829-2.0899187 59.027703-21.2191743.549979.8199681c.599976.8799657.659974 1.4199447.659974 1.8099296h.149994l.01 1.899926z" fill="url(#e)"/><path fill="#d2a679" d="M30.248823 55.7383078l-.7399712-.1899926L7.71969961 21.6996323l.32998716-.3799852z"/><path d="M185.612777 59.0081805l-2.469903 1.0499592-39.928447 37.338547c-.76997.7699701-1.28995 1.8699273-1.379946 2.4799036-.039999.2099917-.219992.1199956-.389985.1099957-.179993-.0099996-.429983.059998-.449982-.1599938-.02-.7999689-.109996-1.6899342-1.399946-2.4899031l-20.009221-12.9694953-.26999-39.8484495v-.2899887l.369986.2899887 65.927434 14.4894362z" fill="url(#f)"/><path d="M241.100618 21.809628l-11.059569 18.3092875-40.438427 17.1893312-3.979845 1.6899342-65.947434-14.4894362c-.039998-.5099801.309988-1.669935.689973-2.4099062.079997-.1599938.159994-.2899887.239991-.3999844l25.149021-36.57857667c.059998-.0899965.089997-.12999494.219992-.10999572l94.966305 16.33936419.159993.4599821z" fill="url(#g)"/><path d="M189.602622 57.3082467l-6.449749 2.7398934-.829968.7999688-63.017547-13.9294579.289988-2.4199059h.079997c-.039998-.5099801.309988-1.669935.689973-2.4099062l69.237306 15.2194078z" fill="url(#h)"/><path fill="url(#i)" opacity="0.75" d="M121.055289 44.8087331v40.5084237l-1.469942-.949963h-.01l-1.929925-1.259951V45.0487237l1.509941-.539979h.509981z"/><path d="M140.194545 191.843012l-95.8662699-35.768608c-.539979-.229991-.6199759-.739971-.6499747-1.369947 0 0-4.1198397-81.6968212-4.1298393-81.7068208-.0099996-.2099919.2499903-.3399868.229991-.4699817-.0699972-.309988-.6599743-1.4799425-.8499669-1.5999378L2.84217094e-14 48.8085774.32998716 48.0586066 104.995914 74.9175615l34.588654 22.409128c1.28995.7999688 1.389946 1.6899342 1.399946 2.4899031.01.2199914.26999.1499941.449982.1599938.179993.0099996.349987.0999966.389985-.1099958.089997-.6099762.609977-1.7099334 1.379947-2.4699039l39.928446-37.338547 72.407182-30.7788024.439983.6099763L216.89156 64.237977c-.75997.7599704-1.109956 1.6899343-.959962 2.0699195l-3.999845 80.0668845c-.059997.50998-.299988.659975-.809968 1.009961l-70.077273 44.358274c-.279989.179993-.579978.229991-.849967.099996z" fill="#bf9064"/><path d="M141.434496 99.9765864l-.689973 91.9064236c-.189992.049998-.379985.039999-.559978-.039998l-95.8662695-35.758609c-.539979-.229991-.6199759-.74997-.6499747-1.369946 0 0-4.1298393-81.6968216-4.1298393-81.7068212v-.0199992c0-.0199993 0-.0399985.0099996-.0599977 0-.0199992.0099996-.0299988.0199992-.0399985.0099996-.0199992.0199992-.0299988.0299988-.049998.0099997-.0199992.0199993-.0299988.0299989-.0499981.0399984-.0599976.0999961-.1199953.1199953-.1699933.0099996-.0099997.0099996-.0199993.0099996-.0299989 0 0 0 0 0-.0099996L140.994514 99.856591c.039998.179993.279989.1099957.439982.1199954z" fill="#bd8f63"/><path d="M140.754523 191.613021v.25999c-.189993.049998-.379985.039998-.559978-.039999l-95.8662699-35.758608c-.3799852-.159994-.5299794-.469982-.5999767-.849967l97.0262246 36.388584z" fill="url(#j)" opacity="0.54"/><path d="M97.4062097 135.86519l37.1185553 12.139528-.089996 36.198591-36.4285826-13.379479-.5999767-34.95864zm18.5992763 24.319054.089996 16.769347 17.978301 6.604743.001-17.094334-18.069297-6.279756zm5.311576 5.417523 3.633076 5.782041 3.558702-3.11786.619436.706947-3.672158 3.216882 3.68104 5.857996-.5334.335147-3.627621-5.77316-3.541544 3.104443-.619436-.706947 3.655-3.203464-3.686495-5.866878.5334-.335147zm10.697801 6.512013v1.649935l.949963.309988v1.859928l-.949963-.379985v1.499941l-2.079919-3.159877 2.079919-1.77993zm-3.199875-2.009922.729971.229991v6.589743l-.729971-.259989v-6.559745zm-30.6788067-16.129373.2699895 16.509358 17.1793312 6.279756-.099996-16.729349-17.3493247-6.059765zm26.8589547 19.679235 1.879927 3.029882-3.749854-1.359947 1.869927-1.669935zm2.899887-2.779892v4.299833l-1.949924-2.749893 1.949924-1.54994zm-7.43971-3.829851.719972.239991v6.579744l-.719972-.249991v-6.569744zm1.619937 1.769931 1.859927 2.869888-1.859927 1.429945v-4.299833zm-15.539396-7.96969.709973.229991.001637.422272c2.113439.850194 4.201434 2.97021 5.20816 6.267468-.659974-1.109957-1.239952-1.319949-2.269912-.969962-.379985-.78997-1.499941-1.209953-2.169915-.78997-.183159-.348002-.452203-.608778-.745681-.776428l.035709 6.276214c0 .579978-.399985 1.099958-1.389946.899965-.899965-.219991-1.269951-.909964-1.169955-2.089918h0l.499981.079997c0 .789969.059997 1.239951.659974 1.379946.50998.119995.739971-.069997.739971-.539979h0l-.066113-6.224952c-.283951-.020605-.546869.049367-.733856.215186-.229991-.579978-1.319948-1.359947-2.139916-.77997-.579978-.919964-1.669935-1.26995-2.279912-.599977.778462-2.354848 2.894445-3.180425 5.113191-2.585002l-.00339-.414881zm11.379558 6.129762 2.029921 3.199875-2.009922 1.669935.039998-1.569939-.979962-.229991v-1.819929l.919965.339987v-1.589938zm5.149799.689973 3.799852 1.379946-1.899926 1.669935-1.899926-3.049881zm-7.089724-25.19902.039999 17.099335 18.069296 6.299755v-17.46932l-18.109295-5.92977zm3.369869 14.769426 10.79958 3.689856v2.149916l-10.79958-3.719855v-2.119917zm-9.338177 4.068391.038539.01145c.069997.069997.069997.819968-.159994.989961-.109996.049998-.279989.059998-.419984-.049998-.139994-.109995-.219991-.269989-.159993-.50998.059997-.239991.659974-.49998.739971-.429983l-.038539-.01145zm.999961-1.709933.038539.011449c.079997.069998.079997.819969-.159994.989962-.109996.049998-.279989.059998-.419983-.049998-.139995-.109996-.219992-.26999-.159994-.50998.059997-.239991.659974-.499981.739971-.429984l-.038539-.011449zm-2.799891-.069997.038539.011449c.079997.069997.079997.819968-.159994.989962-.109996.049998-.279989.059997-.419983-.049998-.139995-.109996-.219992-.26999-.159994-.509981.059997-.23999.659974-.49998.739971-.429983l-.038539-.011449zm-2.829889-.409984.038538.011449c.079997.069997.079997.819968-.159994.989962-.109995.049998-.279989.059997-.419983-.049998-.139995-.109996-.219992-.26999-.159994-.509981.059998-.23999.659974-.49998.739971-.429983l-.038538-.011449zm22.307672-11.228114 2.619898 5.169799-1.789931-.609976v7.489709l-1.78993-.619976.009999-7.429711-1.77993-.579978 2.729894-3.419867zm-29.8888374-11.379557.3099879 16.869344 17.3893235 5.979767-.149994-17.089335-17.5493174-5.759776zm23.9790664 9.409634 2.619899 5.169799-1.789931-.609976v7.489708l-1.78993-.619976.019999-7.429711-1.78993-.579977 2.729893-3.419867zm-20.089218-6.019766 1.419945.469982.659974 2.389907-.739971-.049998 2.109918 5.099802-1.089958-4.199837.619976-.01-.629975-2.929886 7.329715 2.419906v4.029843c0 1.529941-1.659936 3.459866-3.999845 2.499903h0l.01 4.049843 3.359869 2.159916-8.129684-2.819891 3.269873.159994-.059998-4.009844c-2.319909-.689973-3.999844-3.479865-3.999844-5.179798h0l-.129995-4.079842z" fill="#322214"/><path d="M141.434496 99.9765864c-.399984.0099996-.699972.5399796-.709972 1.0199606l-.089996.039998L39.5384615 72.9976362c-.0099996-.1899926.2099918-.309988.229991-.4299833.0099996-.0099996.0099996-.0199992 0-.0299988-.0699972-.309988-.6599743-1.4799424-.8499669-1.5999378L0 48.8085774l.32998716-.7499708L104.985915 74.9075618h.009999l34.588654 22.4091281c1.28995.8099684 1.389946 1.6899342 1.399946 2.4899031 0 .0099996 0 .0299988.01.0399984.039998.1899926.279989.1199953.439982.129995z" fill="url(#k)"/><path d="M216.90156 64.2279774c-.759971.7599704-1.109957 1.6899343-.959963 2.0699195l-73.627135 34.8386451-.149994-.119996c-.01-.579977-.379985-.969962-.659974-1.02996.149994.019999.289988.069998.329987-.1199954.019999-.1199953.049998-.2599898.099996-.409984.039998-.1299949.099996-.2699895.169993-.4199837.209992-.4799813.52998-.9999611.939964-1.4599432.059998-.0599976.119995-.1299949.179993-.1899926l39.928446-37.338547 72.407183-30.7788024.439983.6099763-39.098479 34.3486634z" fill="#cd9c6b"/><path d="M95.9962646 109.13623c.1099957.029999.1499942.039999.1499942-.049998l-.3799853-20.3392087c-.0299988-.6899731-.1999922-2.0499202-1.0299599-2.5998988L57.8677482 63.7479961l-17.2793276-4.4598265 37.468542 22.3891288c.9399635.6199759 1.0199604 1.7799308 1.0599588 2.6398973l.539979 19.7792303c0 .099996.0199992.119996.0899965.149995l16.2493677 4.889809z" fill="url(#l)"/><path d="M141.434496 99.9765864c-.409984.0099996-.709972.5699776-.709972 1.0599586-.009999.039999-.079997.029999-.089996 0-.079997-1.0899575-.52998-2.30991-1.119957-2.7398933l-34.868643-22.4791253.339987-.9099646h.009999l34.588654 22.4091281c1.28995.8099684 1.389946 1.6899342 1.399946 2.4899031 0 .0099996 0 .0299988.01.0399984.039998.1899926.279989.1199953.439982.129995z" fill="#d4a271"/><path fill="#deb37e" d="M104.985915 74.9175615l-.339987.8999649L0 48.8085774l.32998716-.7399712z"/><path d="M215.951597 66.2978969l-3.999844 80.0668851c-.059998.50998-.299989.659974-.809969 1.00996l-70.077273 44.358274c-.099996.069998-.209992.109996-.309988.139995l.689973-91.9064243c.179993.0099997.349986.0999963.389985-.1099957 0-.0299988.01-.049998.01-.0799969l74.087117-33.5686937c0 .049998.009999.0699972.019999.0899965z" fill="#dbad77"/><path d="M211.951753 146.334783v.039998c-.059998.50998-.299989.659975-.809969 1.009961l-70.077273 44.358274c-.099996.069997-.209992.109996-.309988.139994v-.259989l71.19723-45.288238z" fill="url(#m)" opacity="0.54"/><path d="M210.641804 111.496138l-1.599938 32.598732-23.299094 14.509435 1.199954-33.928679 23.699078-13.179488zm-12.459516 23.599082-11.579549 6.809735-.549979 16.049376 11.529552-7.169721.599976-15.68939zm-5.529784 6.889732-.021108.540217c1.383158-.690232 2.690186-.209287 3.240982 2.079681-.379985-.529979-1.069958-.319987-1.52994.759971-.209992-.449983-1.27995-.079997-1.439944.859966-.085429-.152551-.238813-.208288-.414993-.188513l-.254981 6.18828c-.019999.529979-.049998 1.099957-.719972 1.509941-.309988.139994-1.129956.24999-1.01996-.899965h0l.389984-.299988c-.029998.729971.159994.949963.559979.709972.479981-.289989.389984-.749971.409984-1.179954h0l.215937-5.863244c-.281267.185263-.536282.508095-.605922.893437-.119996-.359986-1.27995-.139994-1.419945.889966-.329987-.439983-1.229952-.01-1.569939 1.099957.62667-2.88268 2.178296-5.275232 3.723635-6.30564l.01622-.474096.439983-.319988zm16.899342-13.60947-11.039571 6.529746-.609976 15.729387 10.919575-6.869732.729972-15.389401zm-3.409867 5.299793.319987.299989-2.405906 5.457787 1.985922 2.741894-.319987.679973-1.979923-2.709894-2.379907 5.39979-.329988-.299989 2.423906-5.490786-2.05392-2.808891.359986-.679973 2.008922 2.774892 2.370908-5.364792zm-6.719739 6.269756 1.249951 1.519941-1.329948 2.859889v-1.259951l-.559978.339987.029999-1.629937.559978-.329987.049998-1.499942zm2.159916-1.979923-.25999 6.029766-.449982.299988.24999-6.009766.459982-.319988zm2.109918 3.149878 1.069958 1.409945-2.29991 1.399946 1.229952-2.809891zm-12.249523.439983c.049998 0 .019999.689973-.149995 1.02996-.059997.119995-.169993.24999-.259989.25999-.089997.009999-.129995-.089997-.079997-.349987.049998-.25999.439983-.939963.489981-.939963zm10.639586-2.769892 1.059958 1.309949-1.239951 2.449904.179993-3.759853zm-7.599705 1.51994c.039999.01.01.699973-.149994 1.02996-.059998.119996-.169993.249991-.25999.25999-.089996.01-.129995-.089996-.079997-.349986.049998-.25999.439983-.939964.489981-.939964zm4.439828-21.83915-11.699545 6.559745-.609976 16.369363 11.609548-6.839734.699973-16.089374zm7.7097 16.429361-.27999 6.019766-.399984.25999.269989-6.009767.409985-.269989zm-13.249485 4.959807c.049998 0 .019999.689973-.149994 1.02996-.059998.119995-.169993.24999-.25999.25999-.089996.009999-.129995-.089997-.079997-.349987.049998-.25999.439983-.939963.489981-.939963zM205.602 136.64516l-.159994 3.83985-1.03996-1.239951 1.199954-2.599899zm2.479903-1.829929-.059998 1.479942.579978-.319987-.069997 1.639936-.559979.329987-.019999 1.349948-1.209953-1.449944 1.339948-3.029882zm-12.829501 3.059881c.049998 0 .02.689973-.149994 1.02996-.059997.119995-.169993.24999-.25999.25999-.089996.009999-.129995-.089997-.079997-.349987.049998-.25999.439983-.939963.489981-.939963zm9.77962-2.31991-1.239952 2.83989-1.069958-1.449944 2.30991-1.389946zm-8.829657-13.60947-.149994 4.119839c-.059997 1.399946-1.179954 3.939847-2.849889 4.999806h0l-.179993 3.889849 2.229913-.479982-5.429788 3.139878 2.259912-2.149916.119995-3.819852c-1.449944.829968-2.609898-.709972-2.539901-2.269911h0l.129995-3.779853.979962-.52998.319987 1.81993-.529979.429983 1.169954 3.389868-.449982-3.08988.399984-.459982-.309988-2.429905 4.829812-2.779892zm14.199448-9.859617-11.199564 6.259757-.699973 16.089374 11.099568-6.639742.799969-15.709389zm-2.919887 13.869461-.139994 1.909925-6.559745 3.879849.089997-1.929924 6.609742-3.85985zm-4.639819-8.249679 1.449944 3.059881-1.089958.609976-.329987 6.869733-1.03996.599976.199993-6.869732-1.04996.629975 1.859928-4.899809zm3.639858-2.019922 1.409946 3.009883-1.159955.649975-.239991 6.819735-1.109957.619975.349987-6.869732-1.089958.619976 1.839928-4.849812z" fill="#322214"/><path d="M183.732851 60.8381093l-39.58846 36.7985681c-1.119956 1.0699584-1.859928 2.6698966-1.829929 3.4998646-.019999.039998-.119995.069997-.159994 0 .049999-.639976-.359986-1.079958-.659974-1.149956.149994.019999.289989.069998.329987-.1199954.02-.1199953.049998-.2599898.099996-.409984.039999-.1299949.099997-.2699895.169994-.4199837.23999-.539979.629975-1.1599548 1.109957-1.6399362l39.928446-37.338547.599977.7799696z" fill="#d7aa77"/><path d="M175.00319 105.476373c0 .109995.049998.159993.119996.129995l11.889537-6.0997634c.019999-.0099996.029999-.0299988.039998-.0699972l.659975-19.4892417c.019999-1.0699583.619976-2.1299171 1.439944-2.8598887l39.488463-35.488619-12.019532 5.1497996-39.688456 35.9586007c-1.01996.9999611-1.369947 2.1799152-1.389946 3.1798763l-.539979 19.5892384z" fill="url(#n)"/><path fill="#f8ce93" d="M183.732851 60.8381093l72.257188-30.9587953-.439983-.5999767-72.407182 30.7688028z"/></svg>