<svg width="256px" height="256px" viewBox="0 0 256 256" xmlns="http://www.w3.org/2000/svg" preserveAspectRatio="xMidYMid"><path d="M64.0457143 126.72c0-36.6994286 29.8587428-66.56 66.5599997-66.56 36.699429 0 66.56 29.8605714 66.56 66.56 0 36.701257-29.860571 66.56-66.56 66.56-36.7012569 0-66.5599997-29.858743-66.5599997-66.56h0z" fill="#21bbd1"/><path d="M256 20.48C256 9.216 246.120229 0 234.856229 0H130.605714C59.9149714 0 0 56.0274286 0 126.72V256h31.0857143V126.72c0-53.6393143 44.7616-97.28 98.4009147-97.28 53.639314 0 97.837714 43.6388571 97.837714 97.28 0 53.639314-44.297143 97.28-97.936457 97.28-25.735315 0-52.587886-10.0608-67.2164574-26.432V256h68.4342854C201.298286 256 256 197.412571 256 126.72V20.48h0z" fill="#20222d"/></svg>