<svg width="256px" height="268px" viewBox="0 0 256 268" xmlns="http://www.w3.org/2000/svg" preserveAspectRatio="xMidYMid"><title>Partytown</title><path d="M22.498377 68.9706199c4.2739399.064533 8.2511305-2.1786299 10.4069467-5.8695896 2.1558161-3.6909597 2.1558161-8.2571205 0-11.9480802-2.1558162-3.6909597-6.1330068-5.9341226-10.4069467-5.8695896-6.4713329.0977118-11.6661506 5.3715591-11.6661506 11.8436297 0 6.4720706 5.1948177 11.7459179 11.6661506 11.8436297h0zm181.392621-10.0413676c4.273946.064044 8.250879-2.1795726 10.406273-5.8707773 2.155394-3.6912047 2.154874-8.257364-.001362-11.9480772-2.156236-3.6907132-6.13368-5.9334231-10.407611-5.8684048-6.471324.0984467-11.665544 5.3728869-11.664806 11.8449594 7.38e-4 6.4720726 5.19616 11.7453285 11.667506 11.8422999h0z" fill="#ff37ad"/><path d="M213.503062 211.096876c4.273946.064044 8.250879-2.179572 10.406274-5.870777 2.155394-3.691205 2.154873-8.257364-.001362-11.948077-2.156236-3.690713-6.13368-5.933423-10.407612-5.868405-6.471324.098447-11.665543 5.372887-11.664805 11.844959 7.37e-4 6.472073 5.196159 11.745329 11.667505 11.8423h0zM70.8719025 23.6886152c4.2739399.064533 8.2511305-2.1786299 10.4069467-5.8695896 2.1558161-3.6909597 2.1558161-8.25712047 0-11.94808018C79.123033 2.17998571 75.1458424-.0631771582 70.8719025.00135582199 64.4005696.0990676309 59.2057519 5.37291493 59.2057519 11.8449855c0 6.4720706 5.1948177 11.7459179 11.6661506 11.8436297z" fill="#fcc954"/><path d="M140.945474 105.939269c-2.84662 0-5.534841-1.310064-7.287786-3.552926-1.752944-2.242863-2.37525-5.1680677-1.687074-7.9302516.369902-1.48231.672304-2.97002.899106-4.45503-2.775271 1.1454987-5.731625 1.789973-8.731859 1.9035128-5.378436.2052014-10.195269-.7020047-14.299296-2.6892181-4.023202-1.9272939-7.373366-5.020621-9.614765-8.8776597-4.4145297-7.6518515-4.0338271-17.7175192.963907-25.6447726 4.765532-7.5681509 12.835886-11.6640784 21.586645-10.9944739 6.739245.5265035 12.646885 3.0510205 17.377317 7.3818496.861305-2.4300163 1.687511-5.0328338 2.473216-7.8030525 4.833033-17.0587148 6.428744-34.18763002 6.442244-34.36043119.220576-2.44193714 1.402722-4.69606542 3.2861-6.26596916 1.883378-1.56990375 4.313527-2.326830922 6.755267-2.104087158 5.084217.463605378 8.830877 4.959597948 8.370057 10.044067608-.067501.7668051-1.768512 19.029728-7.068648 37.7354539-2.675718 9.4446635-5.837439 17.4259173-9.420363 23.7979601.264601 1.4202096.475203 2.8782194.631804 4.3713294.745205 7.2117486.151201 14.9743008-1.714512 22.4452511-1.033248 4.1089124-4.724531 6.9916504-8.96136 6.9984474h0zm-20.123235-43.8266952c-.955807 0-2.640618.2808019-3.996027 2.4300163-1.298709 2.0601139-1.552511 4.8735328-.588604 6.5448441 1.282508 2.2221149 5.054434 2.4165162 7.190148 2.3355157 2.424616-.0918006 4.908633-1.6119109 7.33865-4.3821295-.405888-.8472651-.884695-1.6576239-1.43101-2.4219163-2.006114-2.7864188-4.546831-4.2120284-7.997454-4.4820302-.129601-.0081-.305102-.0243001-.515703-.0243001h0z" fill="#2890e9"/><path d="M114.361095 131.268139c-38.3429579-30.224003-78.4193275-43.3190914-89.5137022-29.246597-1.0438612 1.338524-1.8111439 2.871254-2.2572152 4.509031-.0675004.197101-.1215008.405002-.156601.610204v.0243c-.148501.631804-.2592018 1.269008-.3321023 1.917013L.393328263 236.180045C-3.08429514 256.592182 17.1226408 272.935392 36.3602703 265.272741l117.7207917-46.907416c2.076314-.826205 7.184749-3.982527 8.583358-5.724038.369796-.361836.716104-.746923 1.036807-1.152908 11.091675-14.075195-10.999874-49.988136-49.340132-80.22294v.0027z" fill="#f0a420"/><path d="M163.687727 211.493779c11.099775-14.080595-10.983674-49.998936-49.326632-80.22564-38.3429579-30.226703-78.4247276-43.3163914-89.5245023-29.235797-11.0997746 14.080595 10.9836739 49.998937 49.326632 80.22564 38.3429583 30.226704 78.4247273 43.316392 89.5245023 29.235797h0z" fill="#fcc954"/><path d="M156.994382 203.293824c9.107161-11.556078-10.956674-42.563087-44.817602-69.255466-33.8609274-26.69508-68.6965618-38.9666625-77.8037231-27.413285-9.1098613 11.556078 10.9539737 42.563087 44.8149016 69.255466 33.8609275 26.69508 68.6965625 38.969363 77.8064235 27.413285h0z" fill="#f0a420"/><path d="M76.0586374 249.456034c-14.3262964.070201-26.003875-7.101047-40.1573702-18.257522C19.4311564 218.211424 8.49338277 202.66472 7.62937695 193.81136l-4.66833141 27.326884c2.16001454 7.797652 9.52296406 17.682419 20.20153596 26.101075 8.8830597 7.003848 17.8444201 11.81258 27.1351826 12.479484l25.7608733-10.265469v.0027zM61.726941 199.856701c-27.4429847-21.637946-45.2712047-46.467313-44.7690013-60.669409l-4.5495306 26.63028c.3510024 12.684685 15.1741021 33.183223 36.261244 49.807235 18.8947272 14.896 38.5832596 25.380171 53.6601609 23.363257l25.593472-10.200669c-20.620038 1.42561-42.3767847-10.146668-66.196345-28.930694z" fill="#2e6ac9"/><path d="M118.535323 145.051732c4.27394.064533 8.251131-2.17863 10.406947-5.86959 2.155816-3.690959 2.155816-8.25712 0-11.94808-2.155816-3.69096-6.133007-5.934123-10.406947-5.86959-6.471333.097712-11.66615 5.37156-11.66615 11.84363 0 6.472071 5.194817 11.745918 11.66615 11.84363z" fill="#2890e9"/><g style="fill:#ff37ad"><path d="M182.412353 122.007077l.086401-.097201c.108-.116101.307802-.329402.596704-.621004.583204-.583204 1.52011-1.47961 2.799918-2.559617 3.559301-2.979515 7.44949-5.539756 11.593879-7.630252 10.127768-5.124634 25.207369-9.306962 44.985002-4.746632 5.942348 1.370394 11.870496-2.335908 13.240889-8.2782553 1.370394-5.9423477-2.335908-11.8704957-8.278255-13.240889-25.601573-5.9022398-45.95701-.5049034-59.921504 6.5664441-5.67023 2.8611917-10.99119 6.3674263-15.857206 10.4490702-1.460562 1.226797-2.866813 2.516836-4.214729 3.866426-.523432.525602-1.033889 1.063967-1.53091 1.614611l-.118801.135001-.0432.0486-.0189.0216-.0081.0081c-.0027.0054-.0081.010801 8.361956 7.209049l-8.370056-7.198248c-3.87727 4.621418-3.328503 11.499073 1.232531 15.4472 4.561033 3.948126 11.446339 3.50556 15.464381-.994003h0z"/><path d="M73.029217 43.2475468c-1.6632144-2.6417064-4.3094539-4.5128177-7.354505-5.2002465-3.0450512-.6874288-6.2384925-.1346417-8.8753042 1.5363219-2.6386773 1.6651546-4.5073538 4.3107774-5.1945549 7.3543136-.6872011 3.0435362-.1365759 6.235414 1.5306303 8.8727956.4266028.6831046 9.1773617 14.8609 10.9755738 34.2767306 1.8306123 19.726333-3.9663267 37.859655-17.2531161 54.119164 4.4739301 5.686238 9.8577664 11.596578 16.0084077 17.506918 8.5104573-9.833466 14.9122004-20.401337 19.1188287-31.582113 5.1759348-13.756592 7.0065471-28.34209 5.4459366-43.3487912-2.4867167-23.8735607-12.8736866-41.1104767-14.4018969-43.535093h0z"/></g><path d="M220.242308 156.578109c6.00214 1.552511 10.243869 3.245422 12.077181 4.033828 4.395943 2.697847 10.031609 2.244855 13.940194-1.120508 2.552238-2.205033 4.045561-5.391968 4.106727-8.764259.087135-5.157124-3.172199-9.778061-8.059554-11.426477-5.618738-2.494817-26.905681-10.918873-55.04527-9.423063-18.940628 1.007107-37.15495 6.253242-54.132665 15.608805-16.075908 8.858759-31.004308 21.411144-44.5556994 37.424952 6.4651571 4.601294 13.2002774 8.810969 20.1691354 12.606384 22.882654-26.079475 49.283432-40.21677 78.70013-42.085183 11.030436-.669918 22.097747.391443 32.799821 3.145521h0z" fill="#2890e9"/></svg>