<svg width="256px" height="233px" viewBox="0 0 256 233" xmlns="http://www.w3.org/2000/svg" preserveAspectRatio="xMidYMid"><path d="M137.909029-1.4210854700000001e-14 138.299882.00665661441l1.085597.05156873959c5.413085.371777316 10.586628 2.447707196 14.799117 6.009462456l.82947.73209737.786351.75689373L248.925059 101.10948c9.328053 9.369261 9.411063 24.006499.373662 33.644154l-.630317.649245-.647356.621442-96.549736 89.485121c-9.764683 9.054517-24.813862 9.329271-34.677167.769526l-.679592-.611526-.65213-.631646-53.9481284-54.162209c-.7324065-.735313-.612342-1.956129.2492793-2.534673 11.3877083-7.646385 19.6741802-19.063619 23.264377-32.166228l.3433064-1.315802.324877-1.383531c.1532365-.652578.6818036-1.137799 1.3247707-1.248908l.2818006-.024111h40.2470164c.81015 0 1.48395.583784 1.623682 1.353632l.026588.296638v15.627831c0 4.743659 3.548988 8.667449 8.137541 9.203318l.555456.047878.574807.016608h19.802389c4.743659 0 8.667449-3.548988 9.203318-8.137541l.047878-.555456.016608-.574807v-15.627831c0-.81015.583783-1.48395 1.353631-1.623682l.296638-.026588h7.064636c4.831557 0 8.780434-3.574689 9.312018-8.244583l.047224-.565485.015602-.564776v-10.275834c0-4.854124-3.596812-8.876752-8.247976-9.417901l-.563037-.048057-.563831-.015926H85.1619068c-.6913972 0-1.3094979-.430993-1.5485184-1.079761-4.7515011-12.896887-14.1699527-23.6898005-26.3751944-30.3617426l-1.2297439-.6533829-1.2366945-.6205126c-.9361203-.4696993-1.1838977-1.6579022-.5862202-2.4582833l.204824-.2273733L119.791162 7.08249617c4.396991-4.07721801 9.958585-6.508532346 15.76479-6.964582298l1.105344-.0785168653.85841-.03616963522L137.909029-1.42941e-14zM28.6493897 93.4974121c15.8153137 0 28.6493885 12.5798599 28.6493885 28.1145979 0 15.534734-12.8340767 28.114598-28.6493885 28.114598C12.8340773 149.726608 0 137.146744 0 121.61201c0-15.534738 12.8340754-28.1145979 28.6493897-28.1145979z" fill="#d40000"/></svg>