<svg width="256px" height="245px" viewBox="0 0 256 245" xmlns="http://www.w3.org/2000/svg" preserveAspectRatio="xMidYMid"><defs><linearGradient x1="35.5377941%" y1="63.2007052%" x2="53.8769118%" y2="45.6117772%" id="a"><stop stop-color="#914f00" offset="19.81%"/><stop stop-color="#9f5600" offset="33.48%"/><stop stop-color="#b76200" offset="60.93%"/><stop stop-color="#c66900" offset="84.08%"/><stop stop-color="#cb6c00" offset="100%"/></linearGradient><linearGradient x1="22.2313187%" y1="75.3602029%" x2="97.8434066%" y2="-2.21251409%" id="b"><stop stop-color="#fbba00" offset="0%"/><stop stop-color="#fdc000" offset="6.471223%"/><stop stop-color="#ffd500" offset="30.61%"/><stop stop-color="#ffe300" offset="54.52%"/><stop stop-color="#ffeb00" offset="77.87%"/><stop stop-color="#ffed00" offset="100%"/></linearGradient></defs><path d="M53.9234043 76.2553191c10.0221276 26.4714899 25.1642553 50.6553189 44.5548936 71.2442549 19.3906381 20.588937 42.5940421 37.147235 68.4119151 48.803405L255.237447 0 53.9234043 76.2553191h0z" fill="#d18f00"/><path d="M77.2357447 191.400851c0 0 0-.108936 0 0 0-.108936 0-.108936 0 0-11.9829787-11.982979-12.5276596-12.52766-24.4017021-24.401702h0-.1089362C25.4910638 157.521702 0 186.934468 0 244.125957c57.9540426.653617 86.6042553-25.491063 77.2357447-52.725106h0z" fill="#e94f35"/><path d="M72.987234 187.15234h0c0-.108936 0-.108936 0 0-7.734468-7.843404-8.1702127-8.170212-15.9046808-15.90468h0 0c-17.7565958-6.100426-34.3148936 12.963404-34.3148936 50.219574 37.6919149.435745 56.32-16.667234 50.2195744-34.314894h0z" fill="#f39200"/><path fill="#4b5b5c" d="M95.3191489 222.120851l-72.333617-72.333617L50.0017021 138.24l56.8646809 56.864681z"/><path d="M106.866383 195.104681 50.0017021 138.24l-9.6953191 4.139574c8.2791489 11.982979 17.4297872 23.312341 27.4519149 33.879149 10.5668085 11.220426 21.8961702 21.460426 33.9880851 30.828937l5.12-11.982979h0z" fill="#3a4949"/><path d="M98.4782979 147.499574c-19.3906383-20.588936-34.532766-44.772765-44.5548936-71.2442549l-35.2953192 13.399149c11.7651064 31.0468089 29.5217021 59.4791489 52.2893617 83.7719149 22.7676596 24.292766 50.1106382 43.683404 80.3948932 57.300426l15.468937-34.42383c-25.708937-11.65617-49.021277-28.214468-68.3029791-48.803405h0z" fill="url(#a)"/><path d="M56.973617 75.0570213c9.9131915 26.0357447 24.7285107 49.8927657 43.79234 70.1548937 19.06383 20.262128 41.940426 36.602553 67.322554 48.040851L255.237447 0 56.973617 75.0570213h0z" fill="url(#b)"/><g style="fill:#aa2322"><path d="M160.680851 35.84c.762553 11.7651064 10.566809 21.133617 22.549787 21.133617 12.52766 0 22.658724-10.1310638 22.658724-22.6587234 0-5.2289362-1.742979-10.0221276-4.793192-13.8348936l-40.415319 15.36h0z"/><path d="M222.774468 57.4093617c-8.170213 0-14.924255 6.6451064-14.924255 14.9242553 0 5.9914894 3.594893 11.2204256 8.714893 13.5080851l12.200851-27.1251064c-1.851914-.8714893-3.921702-1.307234-5.991489-1.307234h0z"/></g><g style="fill:#441a0d"><circle cx="180.61617" cy="47.4961702" r="3.15914894"/><circle cx="180.61617" cy="33.7702128" r="3.15914894"/></g><g style="fill:#d89687"><circle cx="193.252766" cy="33.7702128" r="3.15914894"/><circle cx="194.015319" cy="44.9906383" r="3.15914894"/><circle cx="169.504681" cy="38.9991489" r="3.15914894"/></g><g style="fill:#441a0d"><circle cx="213.732766" cy="66.4510638" r="2.06978723"/><circle cx="220.377872" cy="71.1353191" r="2.06978723"/></g><g style="fill:#d89687"><circle cx="221.358298" cy="63.0740426" r="2.06978723"/><circle cx="213.732766" cy="75.3838298" r="2.06978723"/></g><ellipse fill="#aa2322" transform="translate(169.440507 93.556997)rotate(-71.867645)translate(-169.440507 -93.556997)" cx="169.440507" cy="93.5569974" rx="22.6577664" ry="22.5488348"/><g style="fill:#441a0d"><circle transform="translate(156.332304 98.949697)rotate(-71.867645)translate(-156.332304 -98.949697)" cx="156.332304" cy="98.9496974" r="3.15901551"/><circle transform="translate(182.717527 95.21603)rotate(-71.867645)translate(-182.717527 -95.21603)" cx="182.717527" cy="95.21603" r="3.15901551"/><circle transform="translate(165.382765 77.87167)rotate(-71.867645)translate(-165.382765 -77.87167)" cx="165.382765" cy="77.8716705" r="3.15901551"/><circle transform="translate(169.687269 90.984426)rotate(-71.867645)translate(-169.687269 -90.984426)" cx="169.687269" cy="90.9844262" r="3.15901551"/></g><g style="fill:#d89687"><circle transform="translate(165.761841 102.958995)rotate(-71.867645)translate(-165.761841 -102.958995)" cx="165.761841" cy="102.958995" r="3.15901551"/><circle transform="translate(156.6987 87.246924)rotate(-71.867645)translate(-156.6987 -87.246924)" cx="156.6987" cy="87.2469243" r="3.15901551"/><circle transform="translate(176.131116 107.261353)rotate(-71.867645)translate(-176.131116 -107.261353)" cx="176.131116" cy="107.261353" r="3.15901551"/><circle transform="translate(178.138112 82.094657)rotate(-71.867645)translate(-178.138112 -82.094657)" cx="178.138112" cy="82.0946574" r="3.15901551"/></g><circle fill="#aa2322" transform="translate(106.190118 86.20203)rotate(-64.106303)translate(-106.190118 -86.20203)" cx="106.190118" cy="86.2020303" r="22.6585767"/><g style="fill:#441a0d"><circle transform="translate(119.33477 80.482293)rotate(-64.106303)translate(-119.33477 -80.482293)" cx="119.33477" cy="80.4822931" r="3.15912848"/><circle transform="translate(98.038958 97.007224)rotate(-64.106303)translate(-98.038958 -97.007224)" cx="98.0389583" cy="97.0072238" r="3.15912848"/><circle transform="translate(97.744645 72.36876)rotate(-64.106303)translate(-97.744645 -72.36876)" cx="97.7446454" cy="72.3687598" r="3.15912848"/><circle transform="translate(104.138164 84.47037)rotate(-64.106303)translate(-104.138164 -84.47037)" cx="104.138164" cy="84.47037" r="3.15912848"/></g><g style="fill:#d89687"><circle transform="translate(115.506241 90.066998)rotate(-64.106303)translate(-115.506241 -90.066998)" cx="115.506241" cy="90.0669985" r="3.15912848"/><circle transform="translate(110.44254 72.663857)rotate(-64.106303)translate(-110.44254 -72.663857)" cx="110.44254" cy="72.663857" r="3.15912848"/><circle transform="translate(111.174362 100.461023)rotate(-64.106303)translate(-111.174362 -100.461023)" cx="111.174362" cy="100.461023" r="3.15912848"/><circle transform="translate(91.836906 84.448049)rotate(-64.106303)translate(-91.836906 -84.448049)" cx="91.8369062" cy="84.448049" r="3.15912848"/></g><circle fill="#aa2322" transform="translate(122.776249 135.956545)rotate(-8.522267)translate(-122.776249 -135.956545)" cx="122.776249" cy="135.956545" r="15.2517062"/><g style="fill:#441a0d"><circle transform="translate(127.785788 127.787182)rotate(-8.522267)translate(-127.785788 -127.787182)" cx="127.785788" cy="127.787182" r="2.17881517"/><circle transform="translate(122.339916 144.998444)rotate(-8.522267)translate(-122.339916 -144.998444)" cx="122.339916" cy="144.998444" r="2.17881517"/><circle transform="translate(112.753991 131.491731)rotate(-8.522267)translate(-112.753991 -131.491731)" cx="112.753991" cy="131.491731" r="2.17881517"/><circle transform="translate(120.923005 135.848524)rotate(-8.522267)translate(-120.923005 -135.848524)" cx="120.923005" cy="135.848524" r="2.17881517"/></g><g style="fill:#d89687"><circle transform="translate(129.310393 134.540375)rotate(-8.522267)translate(-129.310393 -134.540375)" cx="129.310393" cy="134.540375" r="2.17881517"/><circle transform="translate(119.942732 126.806909)rotate(-8.522267)translate(-119.942732 -126.806909)" cx="119.942732" cy="126.806909" r="2.17881517"/><circle transform="translate(131.055616 141.94834)rotate(-8.522267)translate(-131.055616 -141.94834)" cx="131.055616" cy="141.94834" r="2.17881517"/><circle transform="translate(114.06007 140.423473)rotate(-8.522267)translate(-114.06007 -140.423473)" cx="114.06007" cy="140.423473" r="2.17881517"/></g><g transform="translate(153.6 132.902128)"><path d="M35.7310638 3.92170213C25.1642553-2.83234043 11.2204255.326808511 4.57531915 10.893617-2.1787234 21.4604255.980425532 35.4042553 11.547234 42.0493617c3.0502128 1.9608511 6.4272341 3.0502128 9.9131915 3.3770213L39.1080851 6.31829787c-1.1982979-.87148936-2.2876596-1.74297872-3.3770213-2.39659574h0z" fill="#aa2322"/><g style="fill:#441a0d"><circle transform="translate(9.374622 24.988421)rotate(-57.512988)translate(-9.374622 -24.988421)" cx="9.37462196" cy="24.9884214" r="3.15909943"/><circle transform="translate(23.386853 6.645499)rotate(-57.512988)translate(-23.386853 -6.645499)" cx="23.3868528" cy="6.64549855" r="3.15909943"/><circle transform="translate(24.46543 20.388733)rotate(-57.512988)translate(-24.46543 -20.388733)" cx="24.4654298" cy="20.3887333" r="3.15909943"/></g><g style="fill:#d89687"><circle transform="translate(17.594466 31.046209)rotate(-57.512988)translate(-17.594466 -31.046209)" cx="17.594466" cy="31.0462094" r="3.15909943"/><circle transform="translate(12.770228 13.682285)rotate(-57.512988)translate(-12.770228 -13.682285)" cx="12.7702277" cy="13.6822849" r="3.15909943"/><path d="M23.9659574 36.0578723c-.653617 1.0893617-.653617 2.3965958 0 3.3770213l2.1787235-4.7931915c-.8714894.1089362-1.6340426.653617-2.1787235 1.4161702h0z"/><path d="M36.493617 11.2204255c-1.5251064-.9804255-3.4859574-.5446808-4.3574468.9804256-.9804255 1.5251063-.5446808 3.4859574.9804255 4.3574468.3268086.2178723.6536171.3268085.9804256.4357447l2.3965957-5.7736171c.1089362.1089362.1089362 0 0 0h0z"/></g></g><path d="M192.381277 26.6893617c1.742978 0 3.159149-1.4161702 3.159149-3.1591489 0-.3268085 0-.5446809-.108937-.8714894l-5.882553 2.2876596c.544681.9804255 1.634043 1.7429787 2.832341 1.7429787h0z" fill="#441a0d"/></svg>