<svg width="256px" height="205px" viewBox="0 0 256 205" xmlns="http://www.w3.org/2000/svg" preserveAspectRatio="xMidYMid"><path d="M141.170227 0c21.566984 9.60000346 40.630799 24.4870744 40.630799 24.4870744-2.98445-11.8020138-5.145602-18.1192257-5.145602-18.1192257C194.360902 16 221.257296 33.0166391 230.400083 41.600015c5.304834-.2478593 9.548804-1.5808518 12.270085-2.7199498 4.638209-1.9418119 8.537091 2.8282378 10.012675 7.6809756 1.467393 4.8268817 3.233281 12.2775084 3.314177 20.3578953.091136 9.0091553-1.908736 16.7930941-5.942786 23.1372884-8.064515 12.6827565-24.146441 21.0452555-41.167375 29.8956905-17.761798 9.23546-32.578059 18.607111-44.159504 35.845645-5.981186 8.903683-10.657283 18.830855-13.753349 29.135883-3.303425 10.972164-5.91309 19.866631-13.33658 19.866631-6.717955 0-10.725892-8.654339-13.755397-13.541893-5.827586-9.399299-13.075461-21.0898-24.8094813-22.078472-10.4222757-1.544193-18.9767748 2.313729-25.158665 7.410691-3.0551051 2.519041-5.5859221 5.384706-7.5258908 8.130051-1.7377286 2.07872-3.3745932 4.210689-4.9658898 6.28429-4.8624657 6.339586-9.0629152 11.815428-14.6122804 13.403141-.9071619.260608-1.7998343.392192-2.6540554.392192-.709837 0-1.5275013-.095744-2.3842312-.367104h0l-.0144896.022528c-17.4891071-5.123586-18.3915587-37.105678-18.3915587-37.105678-8.4084766 2.002433-17.09118054 7.532035-17.09118054 7.532035 7.82986524-26.823178 22.83776824-44.352528 22.83776824-44.352528-11.60618-.910507-28.416646898 2.235028-29.0911209491 2.362492L0 132.895792c23.3654868-30.068747 39.1328397-41.0885269 39.1328397-41.0885269-12.1264046-5.2968822-27.5470794-8.0585767-28.1714442-8.1690928l-.0195932-.0034541c28.4615783-16.434694 56.7051981-24.4766809 56.7051981-24.4766809-2.3991561-2.264971-7.2305813-4.8343018-12.2321942-7.1260897l-.7705165-.3503146c-7.5839494-3.4216847-15.2919043-6.1398822-15.2919043-6.1398822 19.6505159-5.6534548 54.4291524-9.1854369 54.4291524-9.1854369-2.0354622-1.7157333-4.7819897-3.4735634-7.6905038-5.11894l-.6738212-.3776358c-.5634973-.3129157-1.1314232-.621233-1.6998728-.9238526l-.6821408-.3603385c-6.7052745-3.5150516-13.265958-6.1755514-13.265958-6.1755514 29.3033065-.9999875 48.9252018 0 48.9252018 0-5.17325-7.1088665-18.506247-16.41155148-18.506247-16.41155148 27.762698 2.61155934 47.552529 9.50108498 47.552529 9.50108498-.192241-1.5421566-1.19804-4.3156834-2.36716-7.15349071l-.2724-.65548847c-.091569-.21852236-.183809-.43689387-.276423-.65458329l-.278669-.65049081C142.870867 3.4911831 141.170227 0 141.170227 0zM96.4951388 174.848575c-.8248323 2.204673-1.7510406 4.590594-2.737665 6.978051-3.7980174 9.193475-8.342019 18.69671-13.2433968 19.470855-.2908161.045568-.5872642.06912-.8796163.06912-3.6075533 0-6.8418585-3.329026-9.8652195-10.165764 5.3176339-7.497219 15.8689337-16.22887 26.7258976-16.352262zm84.3074862-26.789898c-2.976257 11.158532-3.373569 22.365704-3.690497 31.368716l-5.12e-4.009216c-.205312 5.82093-.382464 10.847236-1.213441 14.505989-1.113088 4.900354-3.551233 7.385603-7.24941 7.385603l-.125952-.001024c-3.56813-.057856-7.359491-3.114498-11.514372-9.310212 2.448384-14.026245 12.139012-31.942667 23.794184-43.958288zM60.1666777 114.434601l-21.7666639 32.765452 20.5112394-18.754055 1.2554245-14.011397zm62.3477983-25.1028568-49.3086896 23.5489368 41.0967186-10.053636 8.211971-13.4953008zm-44.1077917-5.697026-39.0542989 28.0110178 31.8166643-14.0052528 7.2376346-14.005765zm88.3389757-8.212483-43.802128 4.7170577 32.021004 1.8749447 11.781124-6.5920024zm-48.051217-12.8547886-43.802128 4.7160337 32.187916 3.0663691 11.614212-7.7824028zm61.697046-5.49069-32.650764 6.9232665 25.404937-1.4325765 7.245827-5.49069zm-74.190875-11.5350058 33.956365 8.6882848 14.807045-4.9160722-48.76341-3.7722126zm34.969613-16.7417404 27.478538 12.8000046 13.152261-2.7199498-40.630799-10.0800548z" fill="#5c007b"/></svg>