<svg width="256px" height="250px" viewBox="0 0 256 250" xmlns="http://www.w3.org/2000/svg" preserveAspectRatio="xMidYMid"><defs><linearGradient x1="50%" y1="0%" x2="50%" y2="100%" id="a"><stop stop-color="#fbb32f" offset="0%"/><stop stop-color="#c11511" offset="50.4738739%"/><stop stop-color="#c11411" offset="100%"/></linearGradient></defs><path d="M128 .5784c-70.692 0-128 55.835-128 124.711 0 43.086 22.427 81.066 56.526 103.47v-103.405c-.001-.158-.023-.31-.023-.467 0-.158.022-.31.023-.468v-.877h.043c.701-40.146 32.335-72.481 71.323-72.481 39.427 0 71.388 33.053 71.388 73.826 0 40.772-31.961 73.825-71.388 73.825-15.356 0-29.543-5.062-41.187-13.592v58.207c12.96 4.304 26.84 6.673 41.295 6.673 70.692 0 128-55.835 128-124.711C256 56.4134 198.692.5784 128 .5784" fill="url(#a)"/><path d="M171.1966 127.4716c0 23.59-19.123 42.713-42.713 42.713-23.59 0-42.714-19.123-42.714-42.713 0-23.59 19.124-42.713 42.714-42.713 23.59 0 42.713 19.123 42.713 42.713" fill="#fcb42f"/></svg>