<svg width="256px" height="256px" viewBox="0 0 256 256" xmlns="http://www.w3.org/2000/svg" preserveAspectRatio="xMidYMid"><title>Perl</title><path d="M128.000166 0C198.499939 0 256 57.500061 256 128.000135 256 198.499939 198.499939 256 128.000166 256 57.500061 256 0 198.499939 0 128.000135 0 57.500061 57.500061 0 128.000166 0zm0 8.68741713c-65.7153621 0-119.31274887 53.59738677-119.31274887 119.31271787 0 65.715061 53.59738677 119.312448 119.31274887 119.312448 65.71506 0 119.312447-53.597387 119.312447-119.312448 0-65.7153311-53.597387-119.31271787-119.312447-119.31271787zm-3.01e-4 29.95146927c49.218231 0 89.360978 40.1427471 89.360978 89.3609786 0 49.218231-40.142747 89.360978-89.360978 89.360978-49.2182315 0-89.3609786-40.142747-89.3609786-89.360978 0-49.2182315 40.1427471-89.3609786 89.3609786-89.3609786zm9.886056 168.3080316H94.6251526c10.2662664 4.363983 21.5473584 6.78116 33.3747124 6.78116 11.827323 0 23.108144-2.416304 33.373838-6.78116h0-11.863809c.053404.780258.104761 1.539774.154944 2.273913h0l-9.038426 1.898069-2.740491-4.171982zm-4.622213-17.247014H68.5853886c6.7756212 6.526423 14.6165222 11.951652 23.2312991 15.986481h0 45.2414413l-4.99598-7.606031c.726553-2.858347 1.127444-5.652513 1.201559-8.38045h0zM125.02902 64.211471l-4.331592.3901139-6.869875 4.3170216.945978 2.9458883 3.320559-1.0734981 1.053359-2.5729937c3.611752 2.0646927 4.836973 4.5837104 3.675662 7.5578961-1.735569 2.8922133-5.551273 2.137363-9.568041 2.5187167h0l-.428646-3.4191486c1.48929-1.7148575 4.615801 2.5023704 4.203801.4070322-1.529268-1.9126689-2.880834-3.0725345-5.930008-1.9444885h0l-2.174992-1.5386003-10.5017376.2121408-7.5252035 1.1519784-2.8469975 3.5245115 1.7335217 2.6228755 4.5122141-.0875416-3.43989 1.7098904.791035 3.8516184 9.9791368-.7338681c6.232611 1.4224602 9.231722 3.1446028 9.237743 3.2525547h0l12.655417-1.8960216-9.224287 4.4147383c3.619338.2801149 3.296897-.1887804 6.916838-1.0766891h0l-6.791667 4.2729498c2.27012.7373601 5.417041-1.2269668 7.688336-1.6585335.111744.8774026-7.397414 4.5501448-7.600222 5.5025356-1.095354 5.1436689-6.267019 11.8801559-9.882264 25.6312569-1.823381 7.781115-1.143218 12.90609.392733 19.194121.154944.634346.318919 1.626413.489908 2.655869l.050916.306307c.204499 1.227217.418894 2.463501.639753 3.17618 1.727381 5.404488 11.475743 11.597994 16.591958 12.494663h0l3.097039.416364 3.785059 1.79975 1.147041-2.94065h3.577885l1.15228-1.788642 2.325842 3.52975 2.941523 2.043409.963199-3.268901 6.625042 1.655313 1.407589-.76626 2.677152-8.176196-4.20058-6.124629 2.555473.130138 2.559869 4.344146 1.148185-1.789816.895194-4.729322c.637837.125472 1.278324.25561 1.915017.381685.684829 2.814275 1.364691 5.62566 2.048918 8.437345h0l-.38602 6.392492 1.919081 1.020967 1.533062 2.682691 1.788942-2.045155-.256182 4.088535 1.664644-.637537-.515014 2.430875 2.684167 1.148185 1.663199 3.962761-1.407017 5.241115 2.299291 1.658534-1.658503 13.421375-4.474585 11.590979-4.443637-1.402923-2.358535-13.327421h-8.762978c.056023 5.571714.393335 11.139304.71984 15.986481h0 14.757498c2.903863-1.360025 5.721359-2.874963 8.438219-4.54021h0l.087812-2.172374v-4.471363l.380511-4.218673.384846-4.347336.767704-4.855366.124901-4.600027-.380812-3.322304 1.658834-2.685612 1.407589-2.429429-.386321-2.80991-.636121-2.941523.892304-3.192468 2.560711.51092 3.191023 1.659106 1.662898 1.022442 3.708325-.766832 2.424763-.767674 1.533332-1.147042c0 0 .01461-.004882.04219-.014057l.120017-.039812c.337248-.111603 1.153298-.379641 1.99818-.642122l.390354-.12016c.648541-.197644 1.27318-.377252 1.669106-.465093 1.151106-.255881 1.787498.384876 1.787498.384876l2.941523 2.940952-.767404 1.533332-2.554329 1.147011v1.919111l-2.811656 2.044854c0 0-2.174691 1.407288-3.582009 1.788943-1.302686.357105-3.49177 1.81418-3.79785 2.020512l-.035947.024342-1.27715 1.281244c0 0-.064783.121679-.172163.303445h0 14.506824c3.413068-5.385251 6.241371-11.175187 8.398542-17.276485-1.043996-.586209-2.351219-1.374896-2.921654-1.945934-1.022443-1.021238 2.043951-2.685611 2.043951-2.685611 0 0-.569729-1.00901-1.11899-2.050017l-.192046-.367152c-.315457-.608832-.599805-1.188962-.732915-1.541528-.381685-1.020968 1.278323-3.836717 1.278323-3.836717h0l-3.067296-3.447778c0 0-.173608.078511-.437377.181797-.372624 2.533317-1.039662 7.112331-1.039662 7.112331 0 0 .129868 4.473711-.25558 5.365985-.350126.821671-1.561816 2.392391-1.761333 2.648472l-.027911.035695h-2.810211l.640758-3.576441c0 0 1.148185-3.838192 1.148185-4.60385 0-.767403.385147-8.176768.385147-8.176768h0l.039105-.576275c-.286828-.446167-.576276-.854373-.866024-1.096557h0l-.89694 4.856239-2.300765 2.299592.642232-21.089872.125472-4.853891 1.78807-4.218673 1.793037-.510348 1.404368-2.301037c0 0 .510348-2.811084 1.278052-3.962761.765628-1.147915 2.043681-2.044855 2.809338-2.044855.771769 0 1.794181-2.429429 2.430302-2.811385.642203-.385748.642203-2.429429.642203-3.195959 0-.1464849-.005419-.3063657-.014149-.4750368-.34547-.9777683-.702621-1.9497265-1.082228-2.9111485h0l-.43813.7005734-1.537998-2.1694535-.635519 2.424191-1.533061-.8908288-.897542 2.8107828-1.78807-2.0433792-2.430603-2.9426972-2.298418-2.9406502-3.448921-3.0657913-2.559868-2.5555034-1.913843.1249002-2.810783 2.1746916-3.197706.7677047-2.428556 1.9179069-5.496695 3.0663934.129837.6404864 2.681246 6.1333885 2.81575 3.70688 1.021238 1.408161-1.021238 1.148185-2.81575-2.044553-1.022442.255882 2.299893 1.663199-.1249 2.299592-.897542 1.148185h-2.043379l-1.915318-.766831 1.278323 1.917937 2.810512.127218c0 0 6.007345-.127218 6.644008-.257056.503239-.098136 2.819891-.119165 3.789635-.123671l.228706-8.65e-4c.031761-9.1e-5.060145-1.59e-4.084856-2.1e-4l.115205-1.54e-4-2.810211 1.789244-1.15258 2.429429.896969 2.680374-1.15258-.124901-8.307207-2.044854-2.425636-2.684438-2.04338-1.919954-.89697-2.04368-.766229-.510649-5.679365-4.344416-9.459758 9.329319c-.99589 4.617275 2.681819 8.375783 4.227704 10.021763-.475608-.030344-.957057-.064181-1.432665-.09892-1.113476-.534251-2.226651-1.070277-3.33543-1.603384-1.832443-.13363-2.624652.975179-2.374008 3.340397 1.586164 2.291133 3.175248 4.581092 4.759967 6.872495-.510348.424854-1.022442.854072-1.53279 1.278023-2.00575-1.662899-4.006532-3.321703-6.006743-4.984601 2.138808 5.945752.628235 4.581934-1.40786 2.173517 1.619399 3.153935 3.240303 6.306425 4.85913 9.459487-.515015.510619-1.027079 1.022713-1.537427 1.533061-3.348555.974848-5.920977-.389271-6.772972-6.904013l-3.8e-5.002967-.031354.196784c-.039155.25638-.06768.473342-.087702.655748l-.009944.090468-.013521-.017956h0l-.03135-.032517c-.613634.937821-.545058-.793654-1.197796-.380781-4.441121 2.810581-4.600125 2.202283-3.836175 1.133855L138.909 136.53l-.19561.130103c-4.405785 2.856673-12.647367 3.197582-11.615925 2.507209l.055191-.033111c.748909-.40841 1.544747-.802177 2.345226-1.180584l.533877-.249988c3.468638-1.610033 6.847984-2.92868 6.697096-3.897784-.008894-.057027-.0164-.099205-.025772-.134978l-.015862-.049913c-.069285-.181012-.254-.289884-1.172509-1.932031-.712554 1.821635-4.87987 1.611271-10.617877.47621 1.09187-.334977 2.452995-.480111 3.771327-.603541l.393904-.036546c3.135966-.289849 5.845707-.551531 3.815472-3.109389h0l-.442344-.719268c-.165149 1.248852-4.223068.941614-8.837996.410554.32568-.074455.661983-.144802 1.003613-.212484l.412174-.080031h0l.6234-.116457h0l.416059-.076054c3.3924-.61781 6.584208-1.173362 4.590285-3.023139h0l-6.672034.15961 6.125501-1.44844 2.004877-2.097656-4.300646-.384876 2.941494-1.787798.640787-2.555474-1.919111-3.071661 3.451871-.892274 3.592215-4.130559.327378-6.582446c-2.669868 1.943615-9.033189 2.990532-12.762827 1.961678 4.554811-1.218207 10.5111-3.732258 12.835467-4.3826481h0l-.032964-1.5867361-11.860889 4.2163252c8.645392-7.6970659 1.767057-.959676-.78083-4.4523984 7.540677-7.7638957 13.642848-5.0228331 12.265604-8.0912735 1.851107-6.2279145-7.901921-4.8203255-6.765115-5.4368794h0l7.283049-3.9514122c-5.862753-3.160897-4.971909-5.372255-3.483326-7.0109826l.158635-.170399c.026719-.0280527.053555-.0559333.080475-.0836437l.162266-.1642372c1.030721-1.0274443 2.08711-1.8150804 1.345207-2.4745851h0l-4.735132-4.4731093-5.515661-1.4954316zm62.384748 125.488433h-10.935652l-.834504 2.498577-.955311 7.635805c4.558303-2.975932 8.819873-6.371479 12.725467-10.134382h0zm-57.201281-14.717189H56.3591607c3.1924677 4.846305 6.8578946 9.35587 10.9382711 13.453165h0 65.9770832c-.046691-4.679109-1.067959-9.163026-3.062028-13.453165h0zm69.428081 0h-14.601681c-.201905.205127-.403841.346644-.577449.346644-.636091 0-1.788642-.25561-1.788642-.25561h0l-2.680373 1.407287-1.6632 1.914415.124901 3.838193-1.147313 4.985203-.40646 1.217033h11.801946c4.079474-4.097867 7.746376-8.60686 10.938271-13.453165h0zm-77.424829-8.056293H51.6529283c1.1937021 2.327618 2.4933091 4.59247 3.8874719 6.791666h0 73.9440888c-1.450788-2.124508-3.873504-4.388487-7.26875-6.791666h0zm-13.810044-7.132741H48.4041366c.8018422 1.995243 1.6766258 3.95373 2.6208585 5.872239h0 69.3396369c-2.643888-1.736743-7.935156-3.542333-11.554223-5.418516-.13655-.148231-.270783-.299653-.404714-.453723h0zm-3.015609-4.375363H46.7809449c.3556752 1.047789.735885 2.084832 1.130665 3.114258h0 59.4777841c-.71108-.948628-1.377817-1.985911-1.999308-3.114258h0zm-1.348374-2.749823H45.9058603c.1505486.498367.3046194.994988.4639583 1.489592h0 58.3634354c-.23809-.482051-.468022-.97807-.691542-1.489592h0zm23.958153-110.3968742c-47.218021 0-85.7282141 38.5102232-85.7282141 85.7282442 0 7.681321 1.0238872 15.130091 2.935954 22.221109h0 7.548865c.3956529-1.347171 3.2825981-4.358445 12.2028674-4.989268.8920028-1.165134 1.3941627-2.741935 1.5073828-4.721134.116411-2.143775-.0221865-4.30212-.4082364-6.482953-.3941779-2.187816-.9173802-4.171982-1.5721358-5.940213-.6489455-1.770579-1.2208557-2.89134-1.7023042-3.372789-.7274259-.688923-1.4493127-.861357-2.1779127-.519981-.7230307.346644-1.3859745.84474-1.9748029 1.489591-.5975887.641932-1.069103 1.252074-1.4338395 1.819589-.3638634.563722-.5453587.727727-.5453587.471544.0819724-.839502.280988-1.957915.5940665-3.326098.3160287-1.376672 1.4280294-2.212923 3.3599346-2.512304-.4633562-.632028-1.2505981-1.060072-2.3640438-1.27715-1.1184429-.206873-1.741409-.317173-1.8852445-.317173-.3542303.745789-.6533106 1.542665-.9179823 2.39177-.2553095.843566-.3801797 1.732949-.3801797 2.65909-.5549919-.779385-.8068094-1.641043-.7633396-2.593705.0488583-.943962.0738444-1.792766.0738444-2.538585-.9048572 0-1.9401235.662943-3.100832 1.966675-1.1598656 1.315953-1.9053839 2.338666-2.2392038 3.084184-.1642759-2.075198.0738444-3.357887.6877492-3.838162.6156809-.489034 1.0787361-1.020967 1.3778164-1.61127-.4884326-.528411-.6407573-1.276849-.4335836-2.239174.2004605-.96961.5511988-1.667294 1.0533587-2.113431.8785766-.589129 1.7594711-.744344 2.6295886-.463055.8616583.27283 1.5677708.562277 2.1218896.861659.2771949-.533107.7484383-1.013983 1.3941628-1.450487.6451524-.433614 1.4857683-.482623 2.537983-.143866 0-2.022969.4067312-3.291358 1.2345529-3.828559.8228246-.524617 1.4434726-.896368 1.8408716-1.113445-2.9750587-1.861914-4.8903467-2.039316-5.751433-.537171-.8578653 1.517588-1.7763895 2.70253-2.7471737 3.590439 1.633728-4.677062 3.7474295-7.071782 6.3405625-7.180908 2.591658-.11614 5.0601918.862833 7.3991592 2.927796.061231-.207444.0988606-.839472.0910336-1.883197-.0096332-1.044599.2418833-2.014209.7705946-2.919036.5150142-.910396 1.4589459-1.507955 2.8113849-1.798576 1.3597542-.289477 3.435224.199558 6.2273425 1.482277-.4283456.151421-.9442328.085765-1.5499795-.220901-.6066197-.299081-1.2614054-.390114-1.9485525-.268435-.6979544.107952-1.408161.631124-2.1411561 1.57623-.735584.931679-1.4323643 2.719478-2.08715 5.340608L70.888 109.68l.0866089-.198715c.4945638-1.079969 1.5263157-2.363089 3.1030787-3.853883l.3020318-.281959c1.8502339-1.694146 3.4909459-1.802098 4.9329735-.3163.5287114.588829.8537712 1.412526.9792434 2.482532.1245691 1.069103.0907326 1.822508-.107982 2.250854-.4461369-2.559868-1.6430601-3.611752-3.6085309-3.165615-1.9666449.446438-3.3649017 2.195102-4.1965165 5.258003 1.1306951 0 2.4901482-.541265 4.0795034-1.632554 1.5771029-1.086593 3.7818681-.540963 6.600538 1.632554-1.134458-.051628-1.8715171 0-2.2129232.164878-.3384861.15669-.619745.233996-.8438369.233996 1.523428 0 2.653792.945106 3.4074984 2.840857.7542784 1.893703 1.1356321 3.39058 1.1356321 4.469918-1.3862755-3.208814-3.3748359-5.024007-5.9653198-5.431069-2.593404-.419586-4.2352901.034739-4.9247853 1.359724 1.6771977.550626 2.4655836 1.404097 2.37455 2.555503-.0989207 1.15255-.788416 2.611496-2.0573774 4.379156-.2728299-1.520237-.4808766-2.637777-.6448514-3.366377-.1511507-.714-1.1691978-1.27715-3.0281918-1.683038.7802579 3.828559 1.3077952 8.032933 1.5847192 12.611375.2742748 4.569712.0390746 8.887305-.7049686 12.920088-.1902554.52844-.2909222 1.16104-.2909222 1.888164.1345034.134534.2771949.264371.4251245.381655.2074748.012854.4158225.022187.6270602.035011 8.0691172.460737 12.1229421 3.619338 13.5302301 5.006216h0 17.5980228c-.989448-2.736096-1.622349-4.028117-2.256092-7.473847-1.0379152-9.067326-3.4626481-19.86727 3.095564-30.988482 4.875205-8.267831 7.537486-14.2669877 5.877477-16.6226025-.043469-2.9811999-2.967472-7.5727673-6.905157-8.6074316-2.701197.0647542-4.4701758.1295083-6.1725678.1942323l-.7841434.0298704c-1.702392.064714-3.471371.1293933-6.1725677.1940077h0l-2.4685338-5.0671759.4338847-1.1029696-1.6661196-.1356774-1.6343-2.7854054 5.4812523-6.9238518 3.4229416-.8631033 4.786519-.4907807 3.7197037-.2433583 7.537757-.9815614 4.567364-2.8519647 1.002574-3.5140053 5.895599-1.3748964 4.405978-1.075515 5.545163 1.2756746 6.648102 5.4961235c6.323614 9.5630736 8.048948 8.5248872 5.655703 19.4115003.13211 3.3632987-.377331 8.2528852-1.00052 13.2710583l-.151479 1.2061152c-1.862992 14.687021-4.335821 29.517033 5.722283 9.691344h0l3.702515-4.728991 5.115342-4.47049 2.301036-1.4067159 3.832623-1.4072879 4.092328-2.4259371 1.660279-3.8381921 3.19596-4.0882335 3.833225-3.0661224 5.370651-3.833797 4.469317-2.0477744 4.474283-.6378372 5.751704.5120941 2.735524.4335836c-15.531013-22.1108091-41.219437-36.6109504-70.189916-36.6109504zM68.5240975 117.594399c-1.6976081.355103-2.9581405.978671-3.7722349 1.888164-.8196336.896368-.8797206 2.321478-.1817662 4.253383 1.0769901 2.805846 1.9220011 5.994791 2.5286208 9.528364.620046 3.542875.9179824 6.92617.9179824 10.147808h1.1957492c.7805288-3.446603 1.2266657-7.444706 1.3176993-11.979077.0983488-4.535845-.5733551-9.149027-2.0060506-13.838642zm71.5207055 17.646897-.114213.114578c-.173897.17658-.358023.373157-.533919.573472l-.115842.133919h0l-.112188.133955c-.09163.111348-.178187.221618-.256506.328024L138.909 136.53l.008052-.005651c.736092-.504566 1.35282-1.084135 1.783625-1.746244.197711-.304006-.169275-.018933-.655874.463191zM63.1837908 114.11134c.1987145 0 .562578-.168099 1.1041436-.531932.5371705-.355405 1.2602313-.33382 2.1703265.051628-.1129491-1.268691-.6714029-2.009242-1.68948-2.22635-1.0224121-.211539-1.5511235.688351-1.5849901 2.706654zm-7.8091115 3.565061c-.3159986-.33409-.8065083-.515887-1.4767372-.541264-.6644189-.030646-1.1621836.051628-1.4954316.243328-.1648479.27283-.3119045.644851-.454295 1.133314-.1470566.49051-.164005.870991-.056023 1.152581.338185-.529013.8093983-.787844 1.4248083-.779686.6060177.009061 1.0868942.034167 1.4510587.091063.0988907-.189954.1899544-.437406.2637687-.718695.0732423-.282433.1820672-.481148.3428511-.580641h0zm3.2397305-.480876c.3075394.108825.7411231.338185 1.3121602.688321.5800683.355103 1.069976.753706 1.4814033 1.199843-.1123471-.246278-.3034454-.779354-.5713081-1.580324-.2737029-.805906-.4808766-1.339012-.6279332-1.61127-.2086186 0-.5076989.133931-.8797506.398001-.3731956.273131-.6066197.571037-.7145716.905429h0zm4.7584623-.606048c-.1073799.207475-.1467555.887337-.115839 2.030856.0174601 1.143218.1602119 1.775517.4079353 1.922302.1076508-.779084.3235847-1.84906.6492164-3.200324.3288529-1.351296.9696102-2.031158 1.9234762-2.031158-.89697.109126-1.4954316.233726-1.7764196.398874-.281289.155245-.6451223.454326-1.0883693.87945h0zm93.8705729 71.846403-2.380691-13.453165h-5.389617c-.585637 4.169935-.786971 8.793894-.776735 13.453165h8.547043zm-2.604482-14.717792-.083748-.472387-1.747249.472387h1.830997zM46.8022282 211.54288l-1.0691029-10.205306-9.7842456-2.52862 9.0906562-3.972395-.849105-9.255233 6.2676212 6.887065 9.2949099-4.059063-4.790583 8.896036 6.4663056 7.610427-9.7104012-2.099703-4.9160552 8.726792zm161.2295668 1.057423-4.924785-9.175549-10.159488 1.383085 7.00757-7.220313-4.348811-8.364103 8.532774 4.059063 7.162815-7.385162-1.078164 10.196245 8.996402 4.659873-9.922813 1.75917-1.2655 10.087691zm-60.41151 26.3231-3.36141-16.41862 3.516624-.65012 2.786309 13.630295 8.744584-1.615034.571037 2.788898-12.257144 2.264581zm-17.948491 1.434713-.931679-16.844618 7.532217-.376417c1.893433-.091034 3.279708-.008459 4.153047.250644.871261.260276 1.591101.762135 2.148411 1.507653.559086.754008.862832 1.624095.918855 2.619986.06945 1.261104-.26437 2.325842-.996161 3.188644-.736758.861659-1.879706 1.437934-3.421226 1.728856.795701.393034 1.46304.831013 1.99729 1.320348.527568.489607 1.254994 1.363819 2.180833 2.63281l2.348601 3.179614-4.279061.210936-2.788928-3.537336c-.99294-1.264897-1.663199-2.057407-2.018573-2.382437-.360673-.320092-.732694-.5372-1.11757-.645724-.38602-.107982-.987402-.142692-1.815494-.098349l-.718967.034138.38602 7.03385-3.577615.177402zm3.044809-9.90153 2.642142-.130138c1.715128-.086368 2.784833-.206873 3.205021-.363292.419284-.15961.740551-.415792.966088-.767102.2206-.346344.320695-.774689.289477-1.276578-.029501-.572482-.215362-1.018619-.554119-1.35271-.33379-.332646-.796875-.527567-1.381308-.591749-.294414-.022186-1.165405 0-2.616193.071467l-2.789198.139771.23809 4.270331zm-19.585379 8.93222 1.233951-16.823635 13.118802.871291-.207173 2.849316-9.546126-.636392-.277195 3.729036 8.887577.588828-.208047 2.832398-8.887877-.588829-.334091 4.578141 9.884912.658278-.208649 2.836762-13.456084-.895194zm-16.0781174-3.504974 3.9890414-16.432618 5.600855 1.23076c2.117524.463356 3.482517.852326 4.088534 1.160136.931108.45869 1.632283 1.177657 2.100607 2.153709.468323.973675.541535 2.112257.225235 3.415958-.247422 1.009588-.645122 1.818414-1.199813 2.416876-.550326.606921-1.169499 1.03936-1.863359 1.299336-.683655.264641-1.34982.390415-1.991751.380782-.874483-.025107-2.100004-.208619-3.681202-.558183l-2.273612-.498397-1.507654 6.199346-3.4868814-.767705zm6.8047914-12.885348-1.134488 4.659571 1.909478.421031c1.377515.303174 2.317684.419585 2.825082.350738.501016-.073814.930235-.259976 1.285338-.567816.35131-.311935.583861-.704969.706413-1.194575.142692-.594097.078481-1.131267-.199587-1.602511-.268736-.463657-.680163-.814395-1.222301-1.031473-.401794-.167768-1.229586-.390114-2.485723-.662643l-1.684212-.372322zm118.983324-82.228508 16.65671 2.637747-1.810256 11.421766-2.819844-.446167 1.27715-8.055389-3.940304-.625014-1.104686 6.951879-2.8187-.444993 1.103572-6.951547-7.076177-1.123109.532535-3.365173zm9.116907-19.069522c1.719493 0 3.161521.255008 4.326624.770895.857564.384575 1.628189.904827 2.313319 1.572166.678688.662041 1.186116 1.390069 1.51524 2.177883.446137 1.053088.666737 2.261661.666737 3.634239 0 2.486596-.765055 4.474284-2.312115 5.96824-1.538028 1.490736-3.681502 2.23508-6.428405 2.23508-2.723241 0-4.854764-.739979-6.39219-2.221684-1.533062-1.481102-2.303656-3.4603-2.303656-5.934373 0-2.507909.766229-4.504056 2.291102-5.980793 1.533062-1.481102 3.642398-2.221653 6.323344-2.221653h0zm.112347 3.508165c-1.905384 0-3.357045.440899-4.340352 1.320619-.986258.883544-1.477039 2.005479-1.477039 3.361109 0 1.35566.485543 2.474073 1.46885 3.34419.978672.86485 2.443157 1.303431 4.396104 1.303431 1.931635 0 3.373632-.424553 4.326324-1.269594.953866-.849105 1.425109-1.975104 1.425109-3.378027 0-1.403194-.480876-2.533287-1.442027-3.39642-.961151-.851724-2.411638-1.285308-4.356969-1.285308zm-4.111022-16.98761-.215332 3.452413c-1.910923-.043741-3.439318-.528982-4.591869-1.455123-1.151677-.921775-1.948853-2.265454-2.38623-4.024052-.541566-2.170628-.242485-4.144558.892274-5.911344 1.134187-1.7679305 2.993151-2.976534 5.565573-3.6169903 2.724415-.6798921 5.011152-.503063 6.873067.5275373 1.854598 1.0320453 3.070487 2.6900068 3.642397 4.986378.498066 1.996116.311905 3.772234-.559357 5.31812-.510348.918855-1.380736 1.727681-2.597498 2.426509l-1.598717-3.075455c.805635-.402938 1.373451-.975149 1.711636-1.716302.337583-.735584.397399-1.541219.176829-2.42094-.299381-1.208905-.982163-2.08718-2.039315-2.624351-1.05658-.5371701-2.564534-.5637517-4.512515-.078209-2.071677.515887-3.453316 1.252073-4.141637 2.218191-.696781.961151-.891401 2.039587-.598462 3.230971.222075.878576.690368 1.562803 1.404097 2.056233.714602.495146 1.707542.727697 2.975059.706414zm-11.195899-15.0422792 15.527791-6.5917779 1.329982 3.1355717-15.528393 6.5879848-1.32938-3.1317786zm-6.163733-12.8459729 14.770322-7.8534542 1.597543 3.0068783-12.260064 6.5182346 3.975314 7.4764957-2.512305 1.3328715-5.57081-10.4810259zm4.250492-23.7570904 3.867333 5.522103c.765657 1.0924333 1.290004 1.9415384 1.576531 2.5473152.285383.5969866.428074 1.2082724.437707 1.8365066.007526.6279331-.130138 1.2471061-.416695 1.8671521-.277195.6183-.718967 1.1385522-1.317428 1.5552176-.644551.453452-1.358249.6968104-2.143173.7262819-.787543.0306155-1.524-.1596098-2.208258-.5666721.341407 1.012809.376116 1.9526466.103316 2.815479-.272829.8703884-.809428 1.580595-1.606905 2.1388079-.627903.4379487-1.342806.7233318-2.138778.846185-.797477.1245692-1.556693.0545479-2.261661-.2013335-.70527-.2544365-1.364992-.7274259-1.966645-1.410208-.372052-.4292487-1.191685-1.5298703-2.450743-3.3010217l-3.292532-4.7039144 13.817931-9.6718986zm-.346644 4.4004691-3.192167 2.2394748 1.27715 1.8274453c.761262 1.0883994 1.251772 1.7504401 1.468579 1.9923534.38602.4379788.81292.6979544 1.281244.7790538.463356.0837485.919126-.0338366 1.365263-.3498352.428045-.2982073.692415-.6585787.796002-1.0784651.100366-.4239505.016858-.8879088-.254737-1.3903697-.160483-.2990803-.702049-1.1038125-1.620001-2.4168759l-1.121333-1.6027814zm-5.492933 3.8463503-3.694025 2.5861188 1.806734 2.5811518c.704969 1.0054938 1.176784 1.6237938 1.424236 1.8540269.363864.3638635.788687.5713081 1.259931.6282041.472989.056023.957057-.0866385 1.446994-.4292186.415191-.2897482.69356-.6375362.844138-1.0396314.147358-.4067613.156961-.844439.021675-1.3168564-.134503-.4718154-.645152-1.3419328-1.533061-2.6106233l-1.576622-2.2531719zm-8.761803-22.7127929 2.490118 2.3220491-6.227643 6.6819385c-.988576 1.0571518-1.598688 1.7761186-1.832142 2.1484412-.363562.6013817-.485241 1.2485511-.373195 1.9231751.117314.6795911.524346 1.3468999 1.216761 1.9917513.706414.6641178 1.377817 1.015127 2.00575 1.0618179.628234.0472628 1.173292-.1079519 1.636648-.4630552.468323-.3513403 1.15255-1.0180772 2.067041-1.9923534l6.362718-6.8258041 2.489818 2.3252703-6.041182 6.4756679c-1.383054 1.4814032-2.425335 2.4691058-3.131748 2.9528723-.702049.4855426-1.429474.7723707-2.187817.8535002-.749311.0825744-1.550581-.0338667-2.385959-.3457712-.840345-.3162996-1.746647-.9316795-2.724446-1.8406006-1.173863-1.1006215-1.944458-2.0661677-2.296641-2.9062116-.354231-.8406459-.505381-1.6424881-.453753-2.4049246.051658-.7662296.242184-1.4379336.576305-2.0171288.494002-.8628023 1.385101-1.9791981 2.675978-3.3619817l6.133389-6.5786526zm-24.423556 3.4002133 9.185784-14.1453089 4.583409 2.9747878c1.732077 1.1259989 2.81867 1.9359992 3.252284 2.4162737.676942.7411532 1.057152 1.6430602 1.142917 2.7077981.083749 1.069705-.237789 2.1653594-.970483 3.2869933-.562277.8701174-1.194876 1.4980506-1.896895 1.8837995-.700874.3863208-1.397685.5931934-2.109336.6153799-.700875.0215843-1.338441-.0782095-1.909478-.2944143-.770896-.3069674-1.801496-.8788776-3.096738-1.7195235l-1.863058-1.2071284-3.464425 5.3347676-2.853981-1.8534248zm10.48512-9.8971646-2.602736 4.0103251 1.559612 1.0139831c1.125999.7314899 1.927541 1.1481853 2.404323 1.247377.471243.0951277.91738.0604182 1.341361-.117284.420759-.1774312.767975-.4718454 1.040203-.8879087.333519-.5153152.454897-1.0384875.372323-1.572467-.085495-.5231723-.332917-.9865285-.739979-1.3681832-.299081-.2906212-.966389-.7618646-1.991722-1.4291734l-1.383385-.8966689zm-24.65695 3.0617273 6.860814-15.4043662 11.421165 5.0832512-1.161311 2.6085762-8.311-3.7036586-1.524903 3.4168305 7.735297 3.4436831-1.151678 2.594578-7.734725-3.4436831-1.867453 4.1924225 8.606318 3.8331949-1.156675 2.594879-11.715849-5.2157075zm-16.45044-4.9329735 4.647891-16.2155406 6.890286 1.9789271c1.73292.4937008 2.949983 1.0054938 3.652031 1.520508.701146.5155861 1.182022 1.2123665 1.441998 2.092388.256182.8838448.247723 1.7959569-.024986 2.758282-.35104 1.2129685-.995891 2.1177956-1.937204 2.706624-.939536.5859084-2.156599.7805288-3.637701.5762752.588527.6206481 1.043123 1.239219 1.363517 1.8671521.316299.6238391.68513 1.6757528 1.10616 3.1615211l1.074071 3.7343042-3.912007-1.1219048-1.35563-4.2113877c-.480876-1.5021146-.827521-2.4592017-1.044598-2.874693-.211569-.4166654-.479703-.7367581-.787844-.956786-.315999-.2208709-.844138-.4376778-1.598688-.6544546l-.662372-.1911284-1.940394 6.7694801-3.27453-.9395667zm5.960051-8.4195544 2.416876.6927163c1.572166.450231 2.572422.6673088 3.001641.6503906.428345-.0221564.797447-.1648479 1.113475-.4239505.310731-.2602766.541536-.6334722.679862-1.123109.15961-.5453587.138598-1.0256332-.057197-1.4460916-.194319-.4210605-.544485-.7499134-1.051913-.9923686-.255882-.1073799-1.043425-.3551033-2.372503-.7356141l-2.552584-.7314899-1.177657 4.1095168zm-22.937758 1.2742597v-2.8463955h7.340518v6.7172501c-.713699.6932883-1.748664 1.2993361-3.099959 1.8277464-1.356232.5243463-2.729955.7846229-4.115086.7846229-1.763566 0-3.299517-.3679274-4.612881-1.1047156-1.311588-.7455182-2.295197-1.8020679-2.958442-3.1781383-.658247-1.3789904-.9871-2.877312-.9871-4.4915027 0-1.7551061.367927-3.3187828 1.099447-4.6869961.740853-1.3605971 1.815224-2.4084168 3.240604-3.1361437 1.078435-.5622469 2.425335-.8403449 4.036606-.8403449 2.091515 0 3.728163.4376778 4.902899 1.3159834 1.177657.8800216 1.936903 2.0938631 2.274215 3.6438426l-3.383295.6311242c-.23809-.8266176-.684257-1.4843233-1.343107-1.9616778-.65301-.4808765-1.472643-.7189667-2.450712-.7189667-1.489291 0-2.671614.4729894-3.551364 1.411954-.879751.9491999-1.317429 2.3427605-1.317429 4.2014535 0 2.0016856.446137 3.5052753 1.339013 4.504056.883243 1.0002557 2.053042 1.4980506 3.490675 1.4980506.713698 0 1.429474-.1371525 2.148441-.4196156.714873-.2765928 1.334347-.6182999 1.849331-1.0127789v-2.1388079h-3.902374zm-24.61056 8.7521702-2.636904-16.6573125 3.27447-.5193792 8.579737 10.0433482-1.763566-11.1229573 3.127384-.4977949 2.638349 16.6584866-3.378328.5371705-8.437346-9.8008629 1.723286 10.8612357-3.127082.4980658zm-6.2667482 2.3955925-4.9294514-16.1297451 3.2580937-.9958907 4.9288799 16.1297451-3.2575222.9958907zm-17.9919301 7.5663552-6.8564497-15.4102063 4.6560797-2.0699608 7.4709264 9.2636923-1.9138429-11.7412572 4.6648398-2.0751988 6.8608147 15.4055403-2.8895943 1.2879568-5.4006948-12.1281801 2.3433325 13.4867603-2.9966431 1.3343466-8.4510729-10.767282L82.244583 44.02471l-2.8884203 1.2856087zM63.5251969 57.2129318 53.1436637 43.9199491l4.0147202-3.1361437 9.4941964 7.1809074-4.6995494-10.9265908 4.0243535-3.1449038L76.3629815 47.18593l-2.4898171 1.9441875-8.172704-10.4641076 5.5305621 12.5258802-2.5817237 2.0186038-10.8066878-8.4070011 8.1738781 10.4643785-2.4912922 1.9450605zm-1.5674999.9742763-2.4300011 2.7985607-3.8589034-1.4003039-4.4217525 5.0858703 1.9791982 3.5641882-2.369312 2.7285094-8.4204274-16.0261583 2.3599798-2.7153841 17.1612184 5.9647177zm-9.1481242.3603715-6.2495289-2.3526948 3.2312713 5.8258494 3.0182576-3.4731546zM42.3976951 83.7055458 28.755419 73.7923359l4.2134348-5.8033619c1.0571518-1.4557549 1.9494256-2.426509 2.6765805-2.9065125.7233318-.4840676 1.5417913-.6976534 2.4603456-.6407574.9138883.059214 1.7723255.3807818 2.5823259.9696102 1.0209671.7402501 1.6489002 1.6591054 1.8785313 2.7459997.230504 1.0822582-.0042145 2.2911326-.7008745 3.612625.7822749-.34255 1.5234281-.5593569 2.2213824-.6407573.6967804-.0866686 1.8102562-.0741153 3.3526495.0382317l3.8714266.2693077-2.3946894 3.2916594-4.4179593-.1648479c-1.572166-.060689-2.5896109-.0647831-3.0579343-.004365-.4683233.060087-.8531991.1986844-1.1691977.4154913-.3166007.2168069-.7020485.6416605-1.1607386 1.2771496l-.4073332.556166 5.695711 4.1392893-2.0013845 2.758282zm-5.8725402-8.4793704 1.4817043-2.0352211c.956786-1.3255865 1.5018437-2.1878168 1.631982-2.5986722.1260442-.4070321.1216791-.8059062-.0177612-1.1916551-.1374535-.3851468-.4067613-.7277269-.8187606-1.0268072-.4586901-.3329169-.9173802-.4756084-1.3813385-.4365037-.4586901.0379307-.8873368.2547375-1.2902749.6492165-.1908273.1987145-.6932882.8587382-1.5032886 1.9794991l-1.5625327 2.1440761 3.4602702 2.5160676zM32.860902 91.3086576l-2.6170655-1.1087796 2.8677089-6.7572278 6.1850167 2.6249225c.3591973.9316795.5155861 2.1177956.4683233 3.5685532-.0475639 1.4504868-.338185 2.8157801-.8841157 4.0929297-.6880503 1.6237938-1.6290619 2.8977524-2.819543 3.8165777-1.1957492.9176813-2.5554733 1.411382-4.0803764 1.4802593-1.523127.0653551-3.0310817-.2168069-4.5209441-.84474-1.6165087-.6871472-2.9106067-1.6366481-3.881391-2.8495865-.965215-1.2086035-1.5114467-2.6126704-1.6237938-4.2017546-.0962716-1.2123965.1733372-2.5636615.8059364-4.0447637.8126194-1.9278412 1.861884-3.2619169 3.1262094-4.002468 1.2695635-.7405512 2.6815175-.9617231 4.2405583-.6667369l-.7367581 3.3567436c-.8575642-.0992218-1.636347.0562939-2.3346024.4718154-.6965094.4166653-1.2336799 1.074371-1.6194288 1.9748029-.5803693 1.3731805-.6104128 2.646236-.0857955 3.8209728.5272663 1.1820521 1.6454082 2.1309208 3.3526495 2.8539817 1.8400286.7802579 3.3996112.961723 4.6677297.5325044 1.2686905-.4289176 2.1831507-1.3037011 2.7460298-2.6336828.281289-.6576756.4289176-1.3681832.454596-2.1387778.0222768-.7665306-.0516278-1.4688801-.2156328-2.0968133l-1.9710099-.8362508-1.524301 3.5875186zm-9.0652789 26.9136744c-1.6938451-.299381-3.0704874-.801842-4.1276392-1.51235-.7805288-.52841-1.4463927-1.173262-2.0057496-1.948552-.5541188-.770625-.9273145-1.572166-1.1163958-2.408116-.2570556-1.113476-.2655147-2.343062-.0264913-3.698421.4336138-2.448093 1.5374263-4.270902 3.3135448-5.470445 1.7749445-1.204208 4.0188143-1.563977 6.7222172-1.088369 2.6803736.472989 4.6511126 1.572437 5.9069789 3.296897 1.2561372 1.728284 1.6719296 3.806975 1.2383459 6.246308-.4336137 2.467661-1.5330612 4.300104-3.2945794 5.495853-1.7635653 1.190782-3.9683304 1.551123-6.6101713 1.087195h-6.02e-5zm.4933997-3.473456c1.8791334.328853 3.3867871.142692 4.508421-.551168 1.1260291-.696811 1.802971-1.714858 2.0355222-3.053268.2386922-1.332902-.0466909-2.516399-.8660234-3.546999-.8097294-1.022413-2.1779126-1.70667-4.1013888-2.048347-1.9050828-.33379-3.3958182-.164848-4.4827425.498096-1.0839742.671674-1.7446 1.697036-1.9920223 3.078947-.2430573 1.387148.0391047 2.582025.8365518 3.594834.7963032 1.013651 2.1484411 1.68972 4.061682 2.027905h0zm7.9214585 21.165734-16.861536.293842-.1252013-7.16721c-.0303445-1.801797.0997938-3.109592.3851769-3.931845.2894471-.823998.8140945-1.490735 1.5814981-1.993196.7708956-.50216 1.6494722-.760992 2.6468079-.780258 1.2642954-.020109 2.3162091.335265 3.156855 1.061547.8310128.728299 1.3734514 1.832412 1.6115416 3.30915.4195854-.744044.8782755-1.363819 1.3857036-1.849331.5068259-.489035 1.4031938-1.148186 2.7025299-1.984165l3.2522837-2.116923.0741153 4.066348-3.6298444 2.529223c-1.2952419.897542-2.1093364 1.507955-2.4463473 1.836507-.332947.329725-.559357.672576-.6854313 1.034995-.1205051.365007-.1721329.935744-.1552147 1.720065l.0096332.688623 7.0417079-.12195.0557219 3.404578zm-9.7926746-3.235065-.0420248-2.515194c-.0264912-1.633728-.11322-2.65617-.2570856-3.063202-.1470566-.398875-.3903848-.714873-.7314899-.939567-.3425801-.221172-.7624365-.333519-1.2701656-.32503-.569562.013125-1.0209671.173307-1.3681832.480275-.3414061.308713-.5541189.740852-.6404864 1.294941-.0295016.277194-.0347096 1.103842-.0096332 2.486626l.0443729 2.654996 4.2746958-.073845zm12.1873942 18.818578-16.6100497 2.933365-.9485978-5.378538c-.3580234-2.04076-.505953-3.38766-.449057-4.033957.0773364-.996161.4802745-1.892258 1.2033354-2.680975.7189667-.787814 1.7413788-1.298433 3.0617273-1.533332 1.0227131-.176528 1.9106218-.142391 2.6686933.104761.7621656.246248 1.3903697.61857 1.8881645 1.121633.4980959.498066.8616583 1.034966 1.0912894 1.598688.2993813.770925.5844634 1.917937.8543431 3.438445l.3848758 2.18315 6.2664472-1.104986.5888285 3.351746zm-14.3874933-.91738 4.7083096-.831585-.3203937-1.83184c-.2337252-1.321523-.4759095-2.192212-.7286-2.607432-.2503424-.411428-.5838613-.716047-1.0005266-.905129-.4149495-.18294-.8657525-.237789-1.3594532-.152023-.6013817.108855-1.0699759.372924-1.4029229.800969-.3256318.420188-.4948748.913888-.4948748 1.473245-.0075259.416666.1003959 1.225492.3131086 2.433493l.285353 1.620302zm173.1050564-14.037929 1.022412 4.09293c0 0-1.151376 3.193039-1.277149 3.958095-.130139.768006-.255912 3.838192-.255912 4.730767 0 .896368-.130138 5.370651-.130138 5.370651l-2.685612 5.751734-.636392-3.196261-1.151106-2.941222-1.915287-4.599153v-5.241115c0 0-.255611-2.685311.51092-3.066093.76653-.385749 2.169453-1.408161 2.169453-1.408161l2.430874-1.533061 1.917937-1.919111z" fill="#1b1918"/></svg>