<svg width="256px" height="298px" viewBox="0 0 256 298" xmlns="http://www.w3.org/2000/svg" preserveAspectRatio="xMidYMid"><title>Perplexity</title><path d="M34.8310588-2.8421709400000002e-14 119.52 78.0282353v-.0178824V.180047059h16.485647V78.3774118L221.073882-3e-14V88.9637647H256V217.285647h-34.818824v79.217882l-85.175529-74.832941v75.692236H119.52v-74.458353l-84.5929412 74.507294v-80.126118H0V88.9637647h34.8310588V-3e-14zM107.091765 105.248H16.4855529v95.753412h18.4208v-30.204236L107.091765 105.248zm-55.6800003 72.774588v83.052236L119.52 201.087059v-84.926118l-68.1082353 61.861647zM136.48 200.293647v-84.212706l68.128 61.865412v39.339294h.087529v42.941177L136.48 200.293647zm84.701176.707765h18.333177V105.248h-89.931294l71.598117 64.870588v30.882824zM204.588235 88.9637647V37.4572235l-55.904 51.5065412h55.904zm-97.36847 0H51.3167059V37.4572235l55.9030591 51.5065412z" fill="#3f7e8b"/></svg>