<svg width="256px" height="292px" viewBox="0 0 256 292" xmlns="http://www.w3.org/2000/svg" preserveAspectRatio="xMidYMid"><path d="M203.573531 139.85597l-17.748494-35.75419 5.658944 23.921868 12.08955 11.832322z" fill="#73b08f"/><path d="M182.744685 91.5718826l13.700648 57.8754764-44.056985-46.557603-64.2049862-59.9332831L71.7963155 0 182.744685 91.5718826z" fill="#c5e4d3"/><path d="M155.917143 104.324072 98.2232384 76.6641846 66.7270865 42.8278208l-4.1210137-22.2890362 93.3110702 83.7852874z" fill="#76c39b"/><path d="M200.050714 151.984676l-54.464072-13.883937L40.8480608 77.8496676 0 21.7899753l157.107886 83.3036557 42.942828 46.891045z"/><path d="M143.090857 136.501153v1.608734l-7.034666 13.138067-36.7365861-12.06557-68.2623428-51.2115647L4.48185922 49.8972965 34.9654096 68.129688l4.6897913 7.2393311L143.090857 136.501153z" fill="#73b08f"/><path d="M44.121314 98.0093387l-5.0816143-.5905534-17.7856358-6.4960815 36.4181882 33.3662452 9.5985984 7.381911 38.1120645 12.696887-61.261601-46.3584083z" stroke="#000" stroke-width="1.12244904"/><path d="M193.432742 149.497171h0l-.771676 29.57016-2.829458-4.833566-16.462373-1.137327-38.069203-21.893306 8.745633-15.353722 49.387077 13.647761z" fill="#76c39b"/><path d="M38.4981481 116.924238l47.3866154 36.213182 49.2192575 16.382169 37.961661 3.448864-37.699857-21.842878-96.8676769-34.201337z" fill="#c5e4d3"/><path d="M61.4766266 145.772128l32.9247321 18.26294 38.3264293 3.858363-46.300386-14.404562-7.4595111-4.630053-17.4912643-3.086688z" fill="#76c39b"/><path d="M134.641623 167.151704l-53.8731653-4.699159 27.7528453 10.651402 18.229806 2.506211 7.890514-8.458454z" fill="#73b08f"/><g style="fill:#76c39b"><path d="M122.438812 175.456973l-4.630039.682605-21.6068476 3.071728 10.5461986-7.167357 15.690688 3.413024z"/><path d="M156.946049 180.124768l-1.054906 1.870388-78.854579 45.691166-15.5599374 20.574377 5.5382811-22.177581 17.1423035-23.513586 49.0533458-33.132764 23.735492 10.688z"/></g><path d="M70.7367044 202.618716l-13.8901167 18.26294v-7.973957l13.8901167-10.288983z"/><path d="M185.20157 183.326885l-52.731006 35.75419-4.372815-7.459497-18.262937 38.583648 4.115593 5.658944 3.086695 35.75419-22.1212958-40.898674 18.0057098-44.242607 43.985362-27.265773 28.294694 4.115579z" fill="#c5e4d3"/><path d="M112.921514 205.705418l-35.2397442 19.034601-1.0289054 26.236882 10.8034288 35.239745v-18.00571l25.4652208-62.505518z"/><g style="fill:#73b08f"><path d="M69.1933676 256.121386l.5144456 1.800581 4.6300389 19.549047-6.17339-3.858364 1.0289055-17.491264z"/><path d="M133.384043 216.570559l-4.726984-5.833911-19.742116 37.390058 31.420547 41.102545-7.785619-18.297278.834172-54.361414z"/></g><path d="M137.100603 214.337781l-4.115591 2.158395-.257224 44.786842 7.716732 16.187996 14.40456-5.395994-.514446-10.792002-15.690685-15.378621-1.543346-31.566616z" fill="#76c39b"/><path d="M208.129058 182.777915l-23.92187 6.687836-25.979652 22.121289-14.147347-.514446 40.898675-27.523003 23.150194-.771676z"/><g style="fill:#73b08f"><path d="M198.296885 185.732856l-7.496552-13.791793-67.469004-5.281966 30.253955 12.618025 44.711601 6.455734z"/><path d="M158.964673 210.730612l3.343918 7.886188 7.202281 5.166838h1.286121l-.514446 8.43008-22.121288 9.24589-7.459514-17.132106-2.057796-10.061716 6.687837-5.438755 13.632887 1.903581z"/></g><path d="M170.796993 255.092495l-13.375657-5.91616-5.144498 10.546199 1.800581 2.572242-.25723 11.317874 9.774523 11.060645-1.543337-20.835168 2.315012-1.028906 7.716727 7.459511-3.601133-8.488402-8.231187-4.372809 1.800581-3.086702 8.745618 3.858364v-3.086688z"/><path d="M174.140911 211.107118l-5.144485 12.34678 1.028906 10.546199 10.546199 13.118441-1.286121-21.092398 1.543336-1.028891 8.231187 7.202281-3.343918-7.973956-9.260078-4.887269 1.543337-2.572242 9.517308 4.115593-.25723-3.601148-13.118441-6.17339z"/><path d="M221.727421 156.575557l-28.551895-6.687835v26.751342l3.343904 5.91616 25.207991.257215 23.92187 8.231187-.771676-3.343918-14.661778-8.488402-29.323584-11.575104 16.719589-.257216-16.205143-7.459511 20.320722-3.343918z" fill="#c5e4d3"/><path d="M255.030218 181.029135l-10.803429-17.491265-24.693546-7.459511-19.549046 3.601148 15.433453 7.716727-14.404562.514445 27.008558 11.575105 15.433467 7.459511 11.575105-5.91616z" fill="#73b08f"/><path d="M240.95192 201.84704l4.115593-6.173375-3.086688-7.973957 12.861211-7.202281.25723 14.661792-7.716727 6.945051-6.430619-.25723z"/><path d="M251.264829 178.835515l-8.828195-4.119812-4.708369 4.119812" stroke="#000" stroke-width="0.30000001"/></svg>