<svg width="256px" height="256px" viewBox="0 0 256 256" xmlns="http://www.w3.org/2000/svg" preserveAspectRatio="xMidYMid"><title>PhpStorm</title><defs><linearGradient x1="40.1962634%" y1="64.0579993%" x2="55.5765239%" y2="47.9648996%" id="a"><stop stop-color="#af1df5"/><stop stop-color="#bc20e4" offset=".21"/><stop stop-color="#dd29b8" offset=".63"/><stop stop-color="#ff318c" offset="1"/></linearGradient><linearGradient x1="42.8848611%" y1="78.6026201%" x2="63.3781297%" y2="-4.05749636%" id="b"><stop stop-color="#6b57ff" offset="2%"/><stop stop-color="#b74af7" offset=".42"/><stop stop-color="#ff318c" offset=".75"/></linearGradient><linearGradient x1="73.2580633%" y1="102.209324%" x2="32.0486817%" y2="-3.68844786%" id="c"><stop stop-color="#293896"/><stop stop-color="#3b3aa2" offset="8%"/><stop stop-color="#6740c0" offset=".29"/><stop stop-color="#8a44d8" offset=".49"/><stop stop-color="#a347e9" offset=".68"/><stop stop-color="#b249f3" offset=".86"/><stop stop-color="#b74af7" offset="1"/></linearGradient><linearGradient x1="62.8702905%" y1="72.4464855%" x2="39.7469083%" y2="45.5677461%" id="d"><stop stop-color="#6b57ff" offset="2%"/><stop stop-color="#b74af7" offset=".78"/></linearGradient></defs><path fill="url(#a)" d="M141.306667 45.0133333 132.773333 19.2 43.68 0 1.42108547e-14 49.4133333 48 73.9733333v-28.96z"/><path fill="url(#b)" d="M48 61.8133333l-48-12.4L24.4 195.973333l23.52-.186666z"/><path fill="url(#c)" d="M208 45.0133333h-83.493333L158.053333 15.2l64.64 12L256 109.973333l-47.973333 47.653334z"/><path fill="url(#d)" d="M208.053333 108.88 208 205.013333H70.56L74.1066667 225.92 160.4 256l95.6-57.226667z"/><path d="M47 43.7706208h162V205.770621H47z"/><path d="M67.9466667 175.093333h60.0000003v10H67.9466667v-10zM120.266667 116.96l7.813333-9.6c4.908098 4.532531 11.294885 7.12894 17.973333 7.306667 5.333334 0 8.693334-2.16 8.693334-5.68v-.16c0-1.363479-.342517-2.459092-1.42136-3.450779l-.242595-.210973c-.169434-.139668-.35447-.277454-.556255-.413837l-.315383-.20358c-.164116-.101323-.337977-.201991-.522066-.302205l-.38196-.199883c-.065981-.033233-.133135-.066431-.201478-.0996l-.42449-.198741c-.146354-.066175-.297612-.132297-.45392-.198427l-.484209-.198472c-.083274-.033102-.167846-.066221-.253733-.099365l-.531261-.199211c-.091223-.03327-.183798-.06658-.277742-.099936l-.580248-.200757c-.099496-.033573-.200397-.067207-.302721-.100911l-.631174-.203109h0l-.6662-.205126h0l-.702088-.207501c-.120053-.034801-.241637-.069716-.364771-.104753l-.757534-.211735h0l-.795574-.215006h0l-2.439626-.633175h0l-.766366-.204298h0l-1.125504-.31043c-.123431-.034811-.246315-.069739-.368648-.104795l-.727356-.211952h0l-.713923-.2155287c-.117855-.036248-.235142-.0726665-.351856-.109266l-.693367-.2218559h0l-.679396-.2267149c-.112056-.0382192-.223521-.0766623-.33439-.1153398l-.658034-.2349651h0l-.643522-.2411063c-.106033-.0407246-.211452-.0817265-.316253-.1230163l-.621353-.2512797h0l-.606304-.2587031c-6.286434-2.7571496-10.048544-6.8267518-10.164575-14.8804684l-.002765-.5731991c0-10.7918597 8.589603-17.9807853 20.679632-18.1309353l.387034-.0023981c8.115139-.1435297 16.023382 2.5649019 22.346667 7.6533334L159.2 82.08c-4.495622-3.5169871-9.955484-5.5818756-15.653333-5.92-5.066667 0-7.733334 2.32-7.733334 5.3333333V81.68c0 2.2307246.851922 3.6436043 3.45621 4.9320293l.414607.1973308c.142891.065512.290513.1307902.442986.1959282l.472094.1950865h0l.50193.194806h0l.532496.1950865h0l.56379.1959281h0l.595812.1973309h0l.628563.1992946h0l.662043.2018195h0l1.057433.3086907h0l1.136861.3175278h0l1.218748.3282584h0L148.8 89.68c.287373.0752941.571792.1512378.853239.2278954l.835403.2321786c.275481.0781495.547969.1570772.817444.2368473l.799365.2419017c.131714.0407595.26267.0817458.392865.1229667l.77202.2502062h0l.75364.2562245c.372204.1296811.737469.2617636 1.095729.3964645l.707157.2729573c7.675529 3.0423461 11.938086 7.4219626 12.063617 15.4483368l.002854.554021c0 11.946667-9.12 18.667182-22.106666 18.667182-9.400329.034077-18.484509-3.392662-25.52-9.627182zM68 65.3333333h24.5333333c14.1503997 0 22.7861037 8.311248 22.9574027 20.3539328l.002597.5260672c0 13.8666667-10.8 21.0666667-24.2399997 21.0666667h-9.92v17.973333H68V65.3333333zm23.6266667 30.2133334c6.5866666 0 10.4533333-3.92 10.4533333-9.0666667v-.16c0-5.92-4.1066667-9.0933333-10.6666667-9.0933333h-10.08v18.32h10.2933334z" fill="#fff"/></svg>