<svg width="256px" height="288px" viewBox="0 0 256 288" xmlns="http://www.w3.org/2000/svg" preserveAspectRatio="xMidYMid"><title>Pinecone</title><path d="M108.633615 254.43629c9.080247 0 16.441242 7.360994 16.441242 16.441242 0 9.080247-7.360995 16.441242-16.441242 16.441242-9.0802473 0-16.4412422-7.360995-16.4412422-16.441242 0-9.080248 7.3609949-16.441242 16.4412422-16.441242zm91.21605-29.997951 16.247385 4.81404-12.897137 43.52784c-1.126931 3.803391-4.741864 6.315773-8.699524 6.046178l-3.983712-.273424-.097414.080436-41.390083-2.904506 1.151662-16.906395 27.808214 1.887178-18.205272-26.262064 13.925832-9.655243 18.229279 26.294641 7.91077-26.648681zM23.0126771 194.347476l16.9032095 1.197503-1.9799896 27.803749 26.2142345-18.228646 9.6770161 13.910711-26.2484116 18.247601 26.7920194 7.894643-4.7889491 16.254798-43.7332797-12.884592c-3.8180818-1.124874-6.3384111-4.755764-6.0571303-8.726151l3.2212808-45.469616zm109.1386289-23.67608 30.507373 36.832072-13.749432 11.388418-18.155981-21.919752-5.886325 33.701759-17.586692-3.07428 5.891983-33.754341-24.4426009 14.411619-9.0621724-15.382457 41.0780453-24.200057c3.7766-2.224885 8.609793-1.378651 11.405802 1.997019zm85.353222-24.711198 15.239489-8.291394 22.200803 40.804829c1.944821 3.574559 1.143401 8.020538-1.927138 10.691041l-3.14106 2.713701-32.050376 27.892935-11.385212-13.090689 21.547554-18.746127-32.095042-5.781885 3.078856-17.07366 32.072442 5.778844-13.540316-24.897595zM37.7821805 103.299272l11.4800318 13.007616-21.2515806 18.743291 32.1561916 5.614014-2.980466 17.09111-32.1916344-5.618336 13.8273811 24.997609-15.1810014 8.398001-22.55670644-40.775585c-1.969421654-3.560108-1.199941425-8.010617 1.85048481-10.702808l34.84729953-30.754912zM146.476311 89.8796828l30.404139 36.7331642-13.75335 11.383685-18.151655-21.929431-5.886325 33.711846-17.586692-3.074281 5.87181-33.623214-24.349001 14.273365-9.0276053-15.402769 37.4011803-21.9286817.036819-.1424673.164914.0214275 3.485288-2.0321855c3.776044-2.2131497 8.599727-1.3621414 11.390478 2.0095418zm39.179475-18.065366 6.649749-16.0240465 43.012704 17.8496526c3.754247 1.5579582 5.923261 5.5138407 5.218117 9.5168862l-.716125 3.9817748-7.345061 41.7809611-17.085982-3.009726 4.923458-27.9684311L191.776157 113.7129l-8.385855-15.1877138 28.59077-15.7843824-26.325286-10.926487zM103.71696 40.2373824l.739553 17.3332709-28.4132459 1.2143527 21.4297697 24.4899026-13.0564839 11.4244233-21.4657597-24.5264961-5.0011202 28.0008774-17.0780155-3.0546044 8.1844923-45.7587525c.7152942-3.9991448 4.1103135-6.9661527 8.1692313-7.1393332l4.0207679-.1798589.0901678-.0653642 42.3806432-1.7384176zm58.121195-36.96543414 30.266669 36.96503064-13.813617 11.3104785-17.963878-21.9431347-6.058948 33.667193-17.57115-3.1619036 6.069237-33.7431046-24.526448 14.339769-9.007342-15.4146271 41.194997-24.07177543c3.790611-2.214995207 8.629121-1.344831784 11.41048 2.05207429z" fill="#201d1e"/></svg>