<svg width="256px" height="331px" viewBox="0 0 256 331" xmlns="http://www.w3.org/2000/svg" preserveAspectRatio="xMidYMid"><title>Pinia</title><defs><linearGradient x1="55.342075%" y1="0%" x2="42.816933%" y2="42.862855%" id="a"><stop stop-color="#52ce63"/><stop stop-color="#51a256" offset="1"/></linearGradient><linearGradient x1="55.348642%" y1="0%" x2="42.808103%" y2="42.862855%" id="b"><stop stop-color="#52ce63"/><stop stop-color="#51a256" offset="1"/></linearGradient><linearGradient x1="50%" y1="0%" x2="50%" y2="58.811243%" id="c"><stop stop-color="#8ae99c"/><stop stop-color="#52ce63" offset="1"/></linearGradient><linearGradient x1="51.37763%" y1="17.472551%" x2="44.584719%" y2="100%" id="d"><stop stop-color="#ffe56c"/><stop stop-color="#ffc63a" offset="1"/></linearGradient></defs><path d="M67.559655 173.328355c30.3663019-2.985062 41.080993-27.648549 44.735353-64.82345 3.65436-37.1749012-21.1736333-70.8140468-31.5017446-69.7987748-10.3281106 1.0152721-43.1509936 40.3216029-46.8053538 77.4965048-3.6543602 37.174901 3.2054429 60.110783 33.5717454 57.12572z" fill="url(#a)" transform="translate(72.876665 106.136087)rotate(-38)translate(-72.876665 -106.136087)"/><path d="M184.454259 186.277487c30.366303 2.985063 36.393846-20.032632 32.739486-57.207534-3.65436-37.1749005-35.644984-76.399419-45.973095-77.414691-10.328111-1.015272-35.988364 32.5420612-32.334003 69.716962 3.65436 37.174901 15.20131 61.920201 45.567612 64.905263z" fill="url(#b)" transform="translate(178.339794 119.084792)rotate(52)translate(-178.339794 -119.084792)"/><path d="M129.232337 151.601006c27.340894 0 34.877993-26.184165 34.877993-67.0134259 0-40.8292614-25.578876-80.84240863-34.877993-80.84240863-9.299117 0-35.6273351 40.01314723-35.6273351 80.84240863 0 40.8292609 8.2864411 67.0134259 35.6273351 67.0134259z" fill="url(#c)" transform="translate(128.857666 77.673089)rotate(7)translate(-128.857666 -77.673089)"/><path d="M113.385791 330.307183c56.896331 0 103.03808-16.527782 103.03808-91.482476 0-74.954694-46.141749-136.461935-103.03808-136.461935-56.8963318 0-103.0017636 61.507241-103.0017636 136.461935 0 74.954694 46.1054318 91.482476 103.0017636 91.482476z" fill="url(#d)"/><g style="fill:#eaadcc"><ellipse cx="165.427298" cy="216.677236" rx="14.7171317" ry="6.84517753"/><ellipse transform="translate(57.273494 212.570129)rotate(7)translate(-57.273494 -212.570129)" cx="57.2734938" cy="212.570129" rx="14.7171317" ry="6.84517752"/></g><path d="M121.06293 209.635735c.583737-.972388 1.845226-1.287452 2.817614-.703715.972388.583738 1.287451 1.845226.703714 2.817614-2.902081 4.834279-7.599873 7.798121-13.928532 8.859302-6.301324 1.056597-12.0463681-.271239-17.1073304-3.961871-.9163688-.668248-1.1175102-1.952834-.4492619-2.869203.6682483-.916368 1.9528343-1.11751 2.869203-.449261 4.1625613 3.035485 8.7893593 4.104864 14.0081973 3.229777 5.191503-.870505 8.832021-3.167311 11.086396-6.922643z" transform="matrix(-1 0 0 1 108.791064 214.799573)rotate(3)translate(-108.791064 -214.799573)"/><path d="M66.3331568 178.621277c-4.064355 0-7.7438001 1.647154-10.4071643 4.310275-2.6634175 2.663175-4.3107368 6.342369-4.3107368 10.406472 0 4.064453 1.6472837 7.743773 4.3106075 10.407016 2.6633805 2.663299 6.3428763 4.3105 10.4072936 4.3105 4.0640565 0 7.7431937-1.647216 10.4063038-4.310569 2.6629788-2.663221 4.3100585-6.342511 4.3100585-10.406947 0-4.064086-1.6471153-7.74325-4.3101872-10.406403-2.6630951-2.663176-6.3421809-4.310344-10.4061751-4.310344z" transform="matrix(-1 0 0 1 66.332387 193.338409)rotate(2)translate(-66.332387 -193.338409)"/><path d="M57.0104955 191.099336c0-2.646036 2.1462109-4.791624 4.7912225-4.791624 2.6466187 0 4.7920261 2.145588 4.7920261 4.791624 0 2.646037-2.1454074 4.791625-4.7920261 4.791625-2.6450116-8.04e-4-4.7912225-2.145588-4.7912225-4.791625z" fill="#fff" transform="matrix(-1 0 0 1 61.80212 191.099336)rotate(2)translate(-61.80212 -191.099336)"/><path d="M155.50438 182.356672c-4.064344 0-7.743556 1.647133-10.406719 4.310215-2.66325 2.663169-4.310413 6.342383-4.310413 10.406532 0 4.064499 1.647128 7.743839 4.310284 10.407076 2.663179 2.66326 6.342442 4.31044 10.406848 4.31044 4.064068 0 7.743437-1.647236 10.406749-4.310629 2.663147-2.663227 4.310383-6.342496 4.310383-10.406887 0-4.064041-1.647272-7.743184-4.310512-10.406343-2.663296-2.663215-6.342615-4.310404-10.40662-4.310404z" transform="matrix(-1 0 0 1 155.50438 197.073804)rotate(2)translate(-155.50438 -197.073804)"/><g style="fill:#fff"><path d="M65.710496 175.551815c9.823917-.343058 18.0654579 7.341709 18.4084979 17.165087.3430605 9.823968-7.3421581 18.065088-17.1662529 18.408153-9.8233486.343039-18.0639271-7.341963-18.4069868-17.165908-.3430391-9.823355 7.341571-18.064299 17.1647418-18.407332zm12.251591 17.380091c-.2242945-6.422954-5.6129777-11.447501-12.0365871-11.223184-6.4227837.224289-11.4471353 5.612411-11.2228389 12.035421.2243195 6.423669 5.612183 11.448298 12.035076 11.224005 6.4237187-.224321 11.4486675-5.61263 11.22435-12.036242z"/><path d="M154.883258 179.287184c9.823762-.343054 18.064683 7.341581 18.407729 17.165113.343066 9.824123-7.341545 18.065067-17.165484 18.408126-9.823504.343045-18.064702-7.342091-18.407756-17.165881-.343034-9.8232 7.342185-18.06432 17.165511-18.407358zm12.250822 17.380117c-.224301-6.42312-5.612375-11.447522-12.035818-11.22321-6.42295.224294-11.447899 5.612603-11.223608 12.035447.224314 6.423503 5.612786 11.448277 12.035845 11.223979 6.423552-.224316 11.447904-5.612438 11.223581-12.036216z"/><path d="M146.182488 194.834732c0-2.646037 2.145588-4.791625 4.791625-4.791625 2.646036 0 4.791624 2.145588 4.791624 4.791625 0 2.646037-2.145588 4.791624-4.791624 4.791624-2.646037 0-4.791625-2.145587-4.791625-4.791624z" transform="matrix(-1 0 0 1 150.974113 194.834732)rotate(2)translate(-150.974113 -194.834732)"/></g><g style="fill:#ecb732"><path d="M38.0834294 243.160497l22.3299423 23.234628 16.0215177-17.043806c1.4241114-1.515012 3.8067419-1.588702 5.321754-.164591 1.5150122 1.424112 1.5887018 3.806742.1645903 5.321754l-16.2836225 17.323083 23.1001319 24.036799c1.4407696 1.499179 1.3934193 3.882478-.1057599 5.323248-1.4991792 1.440769-3.8824785 1.393419-5.3232481-.10576L60.4736093 277.32482l-10.72471 11.40955c-1.4241114 1.515012-3.8067418 1.588702-5.321754.16459-1.5150121-1.424111-1.5887017-3.806741-.1645903-5.321754l10.9868148-11.688141-22.5949484-23.51108c-1.4407696-1.499179-1.3934193-3.882479.1057599-5.323248 1.4991791-1.44077 3.8824785-1.393419 5.3232481.10576z"/><path d="M188.039951 243.160497c1.44077-1.499179 3.824069-1.54653 5.323248-.10576 1.49918 1.440769 1.54653 3.824069.10576 5.323248l-22.595642 23.51108 10.987509 11.688141c1.384552 1.472929 1.35336 3.765944-.041677 5.200899l-.122914.120855c-1.515012 1.424112-3.897642 1.350422-5.321754-.16459l-10.725403-11.40955-22.834432 23.761032c-1.400749 1.457535-3.692391 1.542779-5.196309.22238l-.12694-.11662c-1.499179-1.44077-1.546529-3.824069-.105759-5.323248l23.099438-24.036799-16.282929-17.323083c-1.384553-1.472928-1.35336-3.765943.041677-5.200898l.122913-.120856c1.515012-1.424111 3.897643-1.350421 5.321754.164591l16.020824 17.043806 22.330636-23.234628z"/></g><path d="M136.601631 126.739074c1.470265 1.470264 1.470265 3.854034 0 5.324298l-17.530559 17.531125 10.685382 10.685946c1.429423 1.429424 1.46913 3.722308.119118 5.199702l-.119118.124597c-1.470265 1.470265-3.854035 1.470265-5.324299 0l-10.685947-10.685382-10.685947 10.685382c-1.470264 1.470265-3.8540339 1.470265-5.3242984 0-1.4702644-1.470264-1.4702644-3.854034 0-5.324299l10.6853824-10.685946-17.5305599-17.531125c-1.4294238-1.429424-1.46913-3.722307-.1191187-5.199701l.1191187-.124597c1.4702644-1.470265 3.8540341-1.470265 5.3242986 0l17.5311243 17.530559 17.531125-17.530559c1.470264-1.470265 3.854034-1.470265 5.324298 0z" fill="#ffc73b"/></svg>