<svg width="512px" height="100px" viewBox="0 0 512 100" xmlns="http://www.w3.org/2000/svg" preserveAspectRatio="xMidYMid"><title>pipedream</title><path d="M55.604637 52.0642668c0 5.5519441-.5916394 10.3797216-1.7701851 14.4738662-1.1832788 4.0941446-2.8304029 7.4972544-4.9461053 10.2045963-2.1157025 2.7073419-4.6857841 4.7189158-7.7055115 6.039455-3.0197275 1.3205391-6.3707731 1.9784421-10.0484035 1.9784421-2.6905128.0206225-5.3710243-.3297711-7.9658329-1.0412853-2.4612198-.695768-4.7047164-2.0494389-6.7162904-4.0610129l-.3123856.1041286.2082571 8.4344112v11.5582672H0V21.0339638l11.3500102-.7288997 3.123856 5.5188122c2.2516736-2.0316667 4.8657-3.6212773 7.7055115-4.685784 2.9953438-1.1250295 6.1720034-1.689769 9.371568-1.6667734 3.8858876 0 7.3221292.5734238 10.3087248 1.7188377 2.9818626 1.1454139 5.4998799 2.9818626 7.5493187 5.5188123 2.0494389 2.5322166 3.5924344 5.8832621 4.6337198 10.0484035 1.0412853 4.1651413 1.561928 9.2674395 1.561928 15.3068944zm-16.7646939-.1041285c0-3.6113669-.2271896-6.5932294-.6768355-8.9550539-.449646-2.3618245-1.1454139-4.2172056-2.0825707-5.5708765-.8775068-1.3078589-2.1567317-2.2946896-3.6444987-2.8114705-1.6969257-.5521214-3.4743495-.8160953-5.2584909-.780964-2.1762445-.0409102-4.3324298.4224023-6.2997763 1.353671-1.8411818.8992919-3.3510455 2.1535674-4.5295912 3.7486272v27.0734187c.9702886 1.5287962 2.3239595 2.8114704 4.0610128 3.8527558 1.7370533 1.0412853 3.8858875 1.561928 6.4559691 1.561928 1.6641003.0227953 3.3196801-.2413929 4.8940411-.780964 1.4577994-.5206427 2.7073418-1.4909313 3.7486272-2.915599 1.0412853-1.4199345 1.8553811-3.4031098 2.4470205-5.9353264.5916394-2.5322166.8850926-5.8122654.8850926-9.8401464zm24.4702054 31.7592028V21.0339638l16.5564368-.7288997v63.414277H63.3101485h0zM80.8037421 6.97661176c0 2.29082774-.7288997 4.00894854-2.1866992 5.15436244-1.4577995 1.1454138-3.7864921 1.7181208-6.9766117 1.7181208-3.1238561 0-5.4478156-.5017102-6.9766118-1.5098638-1.5287962-1.0081535-2.2908277-2.79253791-2.2908277-5.36261944 0-4.65265221 3.0907242-6.976611760000014 9.2674395-6.976611760000014C74.8352839-1.4210854700000001e-14 77.1592434.591639396 78.6170429 1.77018507c1.4577995 1.18327879 2.1866992 2.91559894 2.1866992 5.20642669zM146.092333 52.0642668c0 5.5519441-.59164 10.3797216-1.770185 14.4738662-1.183279 4.0941446-2.830403 7.4972544-4.946106 10.2045963-2.115702 2.7073419-4.685784 4.7189158-7.705511 6.039455-3.019728 1.3205391-6.370773 1.9784421-10.048404 1.9784421-2.690512.0206225-5.371024-.3297711-7.965833-1.0412853-2.461219-.695768-4.704716-2.0494389-6.71629-4.0610129l-.312386.1041286.208258 8.4344112v11.5582672H90.4876957V21.0339638l11.3500103-.7288997 3.123856 5.5188122c2.251674-2.0316667 4.8657-3.6212773 7.705511-4.685784 2.995344-1.1250295 6.172004-1.689769 9.371568-1.6667734 3.885888 0 7.32213.5734238 10.308725 1.7188377 2.981863 1.1454139 5.49988 2.9818626 7.549319 5.5188123 2.049439 2.5322166 3.592434 5.8832621 4.63372 10.0484035 1.041285 4.1651413 1.561928 9.2674395 1.561928 15.3068944h0zm-16.764694-.1041285c0-3.6113669-.22719-6.5932294-.676836-8.9550539-.449646-2.3618245-1.145414-4.2172056-2.08257-5.5708765-.877507-1.3078589-2.156732-2.2946896-3.644499-2.8114705-1.696926-.5521214-3.47435-.8160953-5.258491-.780964-2.176244-.0409102-4.33243.4224023-6.299776 1.353671-1.841182.8992919-3.351046 2.1535674-4.529591 3.7486272v27.0734187c.970288 1.5287962 2.323959 2.8114704 4.061012 3.8527558 1.737054 1.0412853 3.885888 1.561928 6.455969 1.561928 1.664101.0227953 3.319681-.2413929 4.894042-.780964 1.457799-.5206427 2.707341-1.4909313 3.748627-2.915599 1.041285-1.4199345 1.855381-3.4031098 2.44702-5.9353264.59164-2.5322166.885093-5.8122654.885093-9.8401464h0zm51.231238 32.9046166c-10.900364 0-18.866197-2.8304028-23.897498-8.4864755-5.031302-5.6560726-7.549319-14.0052877-7.549319-25.0429123 0-10.067336 2.257696-17.8911753 6.768355-23.4809843 4.510659-5.5850759 11.525135-8.382347 21.033964-8.382347 8.051029 0 14.402869 2.3949563 19.055521 7.1848688 4.652653 4.7899126 6.976612 12.1830385 6.976612 22.1793777 0 1.1832788-.033132 2.4612199-.104128 3.8527557-.059709 1.2528472-.163903 2.5031779-.312386 3.7486272h-36.757372c.416514 5.2774235 1.959509 9.0071182 4.633719 11.1938174 2.67421 2.1866992 6.716291 3.2800488 12.130975 3.2800488 5.831197 0 11.454138-1.0412853 16.868822-3.123856l1.770185 13.0160667c-2.979419 1.2913149-6.085357 2.2684639-9.267439 2.915599-3.540371.7620315-7.32213 1.1454138-11.350011 1.1454138zm7.601383-39.1523286c-.141993-4.6526522-1.183278-7.9516335-3.123856-9.8922107-1.940577-1.9405772-4.614787-2.915599-8.017897-2.915599-3.885887 0-6.697358.9892211-8.434411 2.9676632-1.737053 1.9784422-2.778339 5.258491-3.123856 9.8401465h22.70002zm60.706935 38.0069148-1.561928-5.4146838-.312385-.1041285c-1.874314 2.2245641-4.198273 3.90482-6.976612 5.0502339-2.778339 1.1454138-6.072587 1.7181208-9.892211 1.7181208-8.188289 0-14.265609-2.6742101-18.222493-8.0178971-3.956884-5.3484202-5.935326-13.7118347-5.935326-25.0949766 0-10.4128534 1.978442-18.4307505 5.935326-24.0536913 3.956884-5.6229408 9.963207-8.4344112 18.014236-8.4344112 6.039455 0 11.174885 1.9074454 15.411023 5.7270693l.208257-.2082571-.208257-8.3302826V2.70734188l16.139923-.83302827V83.7193411h-12.599553zm-3.54037-45.0876551c-.970288-1.3868028-2.376024-2.5322166-4.217205-3.4362416-1.841182-.8992919-3.975817-1.353671-6.403905-1.353671-2.224564 0-4.094145.3123856-5.622941.9371568-1.539083.6342884-2.847197 1.7243838-3.748627 3.1238561-.970289 1.4577994-1.666057 3.3841773-2.082571 5.7791336-.416514 2.3949562-.624771 5.3626195-.624771 8.9029896 0 3.6776305.189325 6.7494222.572707 9.2153752.378649 2.4612199 1.041285 4.4443952 1.978442 5.9353264.937157 1.4909313 2.167767 2.5511491 3.696563 3.1759203 1.528796.6247712 3.436242.9371568 5.727069.9371568 2.981863 0 5.329488-.5537744 7.028676-1.6660565 1.703922-1.1122821 2.934532-2.3239596 3.696563-3.6444987V38.631686h0zm25.199105 45.0876551V21.0339638l12.911939-.6247712 1.457799 10.5169819h.312386c2.011574-3.8196239 4.496459-6.6642262 7.44519-8.5385398 2.938263-1.8709961 6.356944-2.8477619 9.840146-2.8114704 1.386803 0 2.67421.0851961 3.852756.2603214 1.183279.1751252 2.186699.3975816 3.019728.6768354l-1.041286 15.9316657c-1.047765-.3656002-2.128972-.6271826-3.227984-.780964-1.206867-.175466-2.424946-.2624717-3.644499-.2603214-4.236138 0-7.738643 1.4577995-10.516982 4.3733985-2.778339 2.9155989-4.165141 7.0097435-4.165141 12.2871669v31.6550743H270.52593h0zm71.01566 1.1454138c-10.900364 0-18.866197-2.8304028-23.897498-8.4864755-5.031301-5.6560726-7.549319-14.0052877-7.549319-25.0429123 0-10.067336 2.257696-17.8911753 6.768355-23.4809843 4.510659-5.5850759 11.525135-8.382347 21.033964-8.382347 8.051029 0 14.402869 2.3949563 19.055521 7.1848688 4.652653 4.7899126 6.976612 12.1830385 6.976612 22.1793777 0 1.1832788-.033132 2.4612199-.104128 3.8527557-.059709 1.2528472-.163903 2.5031779-.312386 3.7486272h-36.757372c.416514 5.2774235 1.959509 9.0071182 4.633719 11.1938174 2.67421 2.1866992 6.716291 3.2800488 12.130975 3.2800488 5.831197 0 11.454138-1.0412853 16.868822-3.123856l1.770185 13.0160667c-2.979419 1.2913149-6.085357 2.2684639-9.267439 2.915599-3.540371.7620315-7.32213 1.1454138-11.350011 1.1454138h0zm7.601383-39.1523286c-.141993-4.6526522-1.183278-7.9516335-3.123856-9.8922107-1.940577-1.9405772-4.614787-2.915599-8.017897-2.915599-3.885887 0-6.697358.9892211-8.434411 2.9676632-1.737053 1.9784422-2.778339 5.258491-3.123856 9.8401465h22.70002 0zm55.188123 31.9674598-.312385-.1041285c-1.940578 2.2908277-4.373399 4.0610128-7.288998 5.3105552-2.915599 1.2495424-6.176715 1.8743136-9.788082 1.8743136-5.968458 0-10.725239-1.7181208-14.265609-5.1543624-3.54037-3.4362416-5.310555-8.6947326-5.310555-15.7754729 0-2.9155989.50171-5.5850759 1.509863-8.0178971 1.008154-2.428088 2.46122-4.4964594 4.373399-6.1956477 1.907445-1.7039215 4.250337-3.0386599 7.028676-4.0089486 2.778339-.9702886 5.968458-1.4577994 9.579825-1.4577994 2.361824 0 4.543791.1561928 6.560098.4685784 2.011574.3123856 3.852755.7478322 5.518812 1.3016066v-3.6444986c0-3.1948528-.899292-5.5377448-2.707342-7.0286761-1.803317-1.4909312-4.894041-2.2387634-9.267439-2.2387634-3.469374 0-6.508034.2792538-9.111247.8330282-2.603213.5537745-5.36262 1.4199346-8.278219 2.6032134l-1.353671-12.9119382c3.194853-1.3868027 6.579031-2.4280881 10.152533-3.123856 3.793273-.714277 7.646326-1.0629696 11.506202-1.0412853 4.652653 0 8.571672.5017102 11.766525 1.5098637 3.194853 1.0081535 5.779133 2.5511491 7.757576 4.6337197 1.978442 2.0825707 3.403109 4.7189159 4.269269 7.9137686.866161 3.1948527 1.301607 6.94348 1.301607 11.2458816v39.0482002h-12.391295l-1.249543-6.039455h0zm-2.394956-21.0339638c-1.10514-.4447517-2.258325-.7592567-3.436242-.9371568-1.823743-.3011313-3.67053-.4405115-5.518812-.4165141-7.009744 0-10.516982 2.7783386-10.516982 8.3302827 0 3.123856.833028 5.2916227 2.499085 6.5080333 1.666056 1.2164106 3.819624 1.8222494 6.455969 1.8222494 1.386803 0 2.707342-.1893246 3.956884-.572707 1.249543-.3786492 2.361825-.9182243 3.332113-1.6139922.970289-.695768 1.751253-1.476732 2.342892-2.3428921.59164-.86616.885093-1.8222493.885093-2.8635346v-7.9137686h0zm93.923937 27.0734188V43.4215985c0-3.332113-.833028-5.7791336-2.499085-7.3410616-1.666056-1.561928-3.990016-2.342892-6.976611-2.342892-2.707342 0-4.927173.7478322-6.664226 2.2387635-1.737054 1.4909313-2.603214 3.8006915-2.603214 6.9245475v40.8183852h-16.139922V42.9009559c0-3.2658495-.814096-5.6040084-2.447021-7.0286761-1.632925-1.4199345-3.871688-2.1346349-6.71629-2.1346349-1.940578 0-3.76756.4354466-5.466748 1.3016067-1.703922.8661601-3.03866 2.0305064-4.008949 3.4883059v45.1917836H426.09396V21.0339638l11.662396-.8330283 2.603213 5.9353264c2.189807-2.062122 4.728267-3.7191724 7.497254-4.894041 2.696494-1.1635999 5.601701-1.7658989 8.53854-1.7701851 7.842772 0 13.394716 2.8114704 16.660565 8.4344112 2.153568-2.9155989 4.737849-5.0502339 7.757576-6.4039048 3.132386-1.3771202 6.522756-2.0693947 9.944275-2.0305064 3.123856 0 5.987391.4875109 8.590604 1.4577995 2.603214.9702886 4.841977 2.4470205 6.716291 4.4254626 1.874313 1.9784422 3.332113 4.4443952 4.373398 7.3931259C511.479357 35.6971546 512 39.1523287 512 43.1092129v40.6101282h-16.139923 0z"/></svg>