<svg width="256px" height="88px" viewBox="0 0 256 88" xmlns="http://www.w3.org/2000/svg" preserveAspectRatio="xMidYMid"><path d="M238.92973 54.4781916l-17.987294-31.1518492c-.147456-.2576536-.421648-.4165601-.718512-.4164103h-11.779242c-.117031 0-.209566.0435462-.310267.0870923-.035381-.0054432-.068041-.0272163-.103422-.0272163h-6.493824c.002721-.0625977.005443-1.6955794.010886-1.7554554.468122-8.3336504 7.756664-10.4456402 10.241518-10.8892669.394367-.0705111.679888-.41589954.674966-.8164909L212.45093.82657507c-3.49e-4-.227718969-.094539-.445226559-.260379-.601281219-.16584-.1560546606-.388668-.2368582274-.615988-.22337458322C206.855246.304020898 190.514542 3.98911646 189.654505 21.2143527l-.010887 1.7527337h-4.996924c-.191284 7.205e-4-.374446.0773992-.509194.2131675-.134747.1357682-.210041.3195043-.209323.5107878v8.4152995c0 .4000805.321158.7266769.718517.7266769h4.218536c.394637 0 .718512.3238747.718512.718512v36.5924001c0 .44907.361978.8110477.808326.8110477h10.260569c.230664-.0027652.448912-.1049452.59876-.2803286.182135-.1515724.288591-.3754284.291215-.6123682v-36.480813c0-.217731.089814-.4164104.231339-.5633788.138921-.11681.313857-.1821706.495338-.1850712l9.904034-.1333602c.299779-.0031007.577782.1562046.726677.4164103l12.334456 21.3648451c.144417.2510379.148537.5589579.010887.8137692l-16.357035 30.4306156c-.13855.2574703-.131936.5687384.017427.8200908.149362.2513523.419593.4059699.711972.4073672h11.801015c.303804 0 .58277-.1679024.726677-.4354618l16.792496-31.2226118c.139505-.2550513.136412-.5642803-.008165-.8164909m16.966681-30.419729-12.881505 23.9721726c-.142703.262002-.415031.4272718-.713322.4330483-.298292.0054798-.57666-.1493995-.729145-.4058319l-6.178115-10.5545056c-.147347-.2509617-.15251-.5607584-.013608-.8164909l7.220501-13.3686776c.139795-.2649857.413488-.4321264.713069-.4354618 1.902424-.0217731 8.905194-.0816491 11.871778-.0489894.290186.0037723.557029.1597999.702633.4108414.145604.2510414.148534.5601389.007714.8138949m-86.70589 17.6634791h-23.005992c-.28236.0033649-.545901-.1413006-.694611-.3813522-.148709-.2400516-.160875-.5404411-.032065-.7917325 1.219293-2.4032049 4.735647-7.6450764 12.24192-7.6450764 7.370191 0 10.951864 5.2337066 12.211982 7.6369115.128925.2513628.117769.5517003-.02945.7928053-.147219.2411051-.409286.3882365-.691784.3884443M157.74604 21.0755492c-13.923891 0-25.210517 11.3492234-25.210517 25.346599 0 14.0000971 11.286626 25.3465989 25.210517 25.3465989 7.51716 0 17.227958-3.7014254 22.597747-14.1770035.124981-.2526913.110768-.5519799-.037598-.7916899-.148365-.2397101-.409892-.3859269-.691801-.3867786h-12.34262c-.20348.0011814-.398584.0811739-.544328.2231741-.92201.8802876-1.97513 1.6120547-3.121717 2.1691442-1.605765.778388-3.551735 1.2846123-5.908672 1.2846123-7.421902 0-11.003576-4.871729-12.010581-7.4572835-.091069-.2480718-.054684-.5250335.097369-.7411658.152052-.2161322.400436-.3439491.664689-.3420454l35.250634.0054432c.406042-.0117086.744832-.3137484.802882-.7157903.122474-.987954.288494-1.9867945.342927-3.0046865.431464-6.9326235-2.018379-13.7358117-6.770568-18.8017899-4.752188-5.0659782-11.385058-7.9452397-18.331084-7.9573383m-52.018635 39.00377c-4.670691 1.084928-9.5703816-.3211596-12.9549888-3.7177552-3.3904329-3.4027474-4.791877-8.3103722-3.7095902-12.9903701 1.1320374-5.1705101 5.1638175-9.2129113 10.3313314-10.3585478 4.6707056-1.0854691 9.5706566.3206934 12.9549886 3.7177552 3.390895 3.4024761 4.792413 8.3103585 3.709591 12.9903701-1.132657 5.1701719-5.164158 9.2122928-10.331332 10.3585478m7.737612-36.6277815c-11.302955-4.9397699-20.8695071-.029938-23.9122965 1.9350834-1.5948789 1.0342218-1.5241163-2.3406072-3.0482327-2.3406072h-8.9541834c-.2148526-7.234e-4-.4211533.0841198-.573333.2357888-.1521797.151669-.2377147.3576834-.2377147.5725372v62.426172c0 .4463484.3619777.8110476.808326.8110476H87.712895c.2148538 0 .4208682-.0855349.5725372-.2377146.151669-.1521797.2365122-.3584804.2357888-.573333V68.4946186c0-.6259763.6776874-1.0206136 1.2138498-.6994605 2.2426283 1.3608182 7.3974074 3.9763106 13.7333772 3.9763106 14.724052 0 26.535954-12.759031 25.022724-27.8287312-.906305-9.0004513-6.763266-16.8741451-15.028876-20.4911998M28.9854267 60.0793192c-4.6706915 1.084928-9.5703817-.3211596-12.9549888-3.7177552-3.3894554-3.4032927-4.7898504-8.3108446-3.7068687-12.9903701 1.1320375-5.1705101 5.1638175-9.2129113 10.3313314-10.3585478 4.6707053-1.0854691 9.5706569.3206934 12.9549889 3.7177552 3.3899173 3.4030216 4.7903858 8.310831 3.7068686 12.9903701-1.1320375 5.1705101-5.1638175 9.2129112-10.3313314 10.3585478m7.7403337-36.6277815c-11.3029556-4.9397699-20.8667856-.029938-23.9150183 1.9350834-1.5921572 1.0342218-1.5241163-2.3406072-3.04823266-2.3406072H.808325984c-.446426114 0-.8083259839999432.3618999-.8083259839999432.808326v62.426172c0 .4463484.3619776289999432.8110476.8083259839999432.8110476H10.9736376c.2148538 0 .4208682-.0855349.5725372-.2377146.151669-.1521797.2365122-.3584804.2357888-.573333V68.4946186c0-.6259763.6776874-1.0206136 1.2138498-.6994605 2.2453499 1.3608182 7.4001291 3.9763106 13.7333768 3.9763106 14.7294957 0 26.535954-12.759031 25.0227242-27.8287312-.9063049-9.0004513-6.7605446-16.8741451-15.026154-20.4911998m31.8839693-.4028022H58.422645c-.2138793-.00145-.4194968.0824986-.5712458.2332258-.1517491.1507271-.2370802.3557727-.2370802.5696569v46.5427026c0 .44907.3646993.8110476.8110477.8110476h10.1870847c.446866-.0014996.8083259-.3641791.8083259-.8110476V23.8570615c-.0014935-.4473091-.3637384-.8095541-.8110476-.8110476"/></svg>