<svg width="256px" height="256px" viewBox="0 0 256 256" xmlns="http://www.w3.org/2000/svg" preserveAspectRatio="xMidYMid"><path d="M94.0114747 58.8463838l28.5530503 49.4519592c4.53301-1.212767 9.482344-.858505 13.981738 1.246384l15.010909-25.9982219-25.090586-43.4450102-32.7498991 18.9129697h.0025858l.292202-.1680808zm-43.044202 63.9715552h57.1190303c.455111-1.698909 1.111919-3.374545 2.032485-4.964848 1.551515-2.691879 3.633131-4.876929 6.022465-6.544808l-15.008324-25.9904648H50.9517576v37.8233538h.0155151v-.323233zm94.6656973 15.54101c-1.556687 2.691879-3.625374 4.869172-6.009536 6.534465l15.018667 26.011152h50.168242v-37.49495H147.66804c-.460282 1.698909-1.122262 3.35903-2.03507 4.949333zm-3.278869-24.74408c3.465051 3.449535 5.52598 7.979959 5.939717 12.730182h30.011475l25.090586-43.4475965-32.470626-18.7526464-28.571152 49.4700609zm-57.5224242 78.467878L113.402828 142.592c-3.449535-3.454707-5.510464-7.972202-5.934545-12.706909H77.4412929L52.3507071 173.312l32.7421414 18.925899-.2611717-.155152zm76.9215352 5.285495-28.547879-49.454545c-4.530424 1.223111-9.484929.879192-13.989495-1.238626l-15.01608 26.00598 25.07507 43.434666 32.752485-18.905212-.274101.157737z" fill="#ed7d1a"/><path d="M127.888808.232727273C57.3724444.232727273 0 57.5896566 0 128.095677 0 198.622384 57.3724444 256 127.888808 256 198.4 256 255.759515 198.622384 255.759515 128.095677 255.759515 57.5896566 198.4.232727273 127.888808.232727273h0zm0 25.889616127c56.32 0 101.975919 45.6507475 101.975919 101.9733336 0 56.338101-45.655919 102.012121-101.975919 102.012121-56.3277575 0-101.9914343-45.67402-101.9914343-102.012121 0-56.3225861 45.6636768-101.9733336 101.9914343-101.9733336h0z" fill="#5282b0"/></svg>