<svg width="512px" height="180px" viewBox="0 0 512 180" xmlns="http://www.w3.org/2000/svg" preserveAspectRatio="xMidYMid"><path d="M462.21154 4.26282052c19.182692 0 33.189102 3.95833335 43.237179 8.52564108h0l-8.373397 30.9054488c-6.850962-3.349359-18.878205-8.0689103-35.472757-8.0689103-16.594551 0-24.663461 7.4599359-24.663461 16.2900641 0 10.8092949 9.439102 15.6810898 31.362179 23.9022437 29.839744 11.1137821 43.998398 26.6426281 43.693911 50.5448721 0 28.469551-21.923077 52.524038-68.357372 52.524038-19.334936 0-38.365385-5.024038-47.956731-10.352564h0l7.764423-31.666666c10.352564 5.176282 26.185897 10.504807 42.475962 10.504807 17.660256 0 26.947115-7.155448 26.947115-18.269231 0-10.657051-7.916667-16.594551-28.317308-23.902243-24.358974-8.5256412-41.258013-21.1618592-45.520833-40.3445516h0v49.1746796c0 48.108975-23.141026 65.008013-60.288462 65.008013-8.830128 0-20.248397-1.522436-27.860577-3.958333h0l4.262821-30.905449c5.328525 1.826923 12.027243 3.044872 19.639423 3.044872 16.13782 0 26.185897-7.307693 26.185897-33.645834h0V7.00320515h38.213141V45.2163463c5.024039-23.7500001 27.860577-40.95352578 63.028847-40.95352578zM51.7628207 5.78525643c23.5977564 0 40.4967949 4.56730767 51.7628203 13.54967957 9.591346 7.6121795 16.442308 19.7916667 17.8125 34.1025641h0 69.727565l12.027243 20.4006411c3.501603 6.2419872 6.850962 12.4839744 10.048077 18.2692309h0 .456731c3.349359-6.5464744 6.394231-12.7884616 9.591346-18.8782052h0l10.809295-19.7916668h72.620193V176.450321h-73.838142L220.448719 154.375c-3.501603-6.089744-6.546475-12.33173-9.591347-18.573718h0-.761218c-3.044871 6.546475-6.241987 12.483974-9.286859 18.573718h0l-11.570512 22.075321h-72.163462V82.2115387c-2.588141 6.3942308-6.241987 12.0272436-11.113782 16.5945513-12.9407054 12.331731-32.2756414 17.8125-54.9599363 17.8125-5.0240385 0-9.5913462-.304487-13.0929487-.761218h0v60.440705H0V9.286859c11.875-1.97916667 28.4695514-3.50160257 51.7628207-3.50160257zM268.405449 63.7900643l-33.341346 48.2612177 33.341346 52.524039V63.7900643zm-113.116987 0V164.423077l33.798077-50.544872-33.798077-50.0881407zM53.7419873 34.7115386c-7.7644231 0-13.0929487.7612179-15.8333333 1.5224359h0v49.7836539c3.1971153.761218 7.3076923 1.0657052 12.7884615 1.0657052 20.4006411 0 32.8846155-10.2003206 32.8846155-27.5560898 0-15.5288462-10.8092949-24.8157052-29.8397437-24.8157052zM136.258013 7.10542736e-15c12.331731 0 20.096154 8.221153869999993 20.248398 19.334935999999992 0 10.5048077-7.916667 19.0304487-20.552885 19.0304487-12.027244 0-20.096154-8.525641-19.791667-19.0304487C115.857372 8.22115387 123.926282 7.10542736e-15 136.258013 7.10542736e-15zM287.588142 0c12.331731 0 20.096154 8.22115387 20.248397 19.334936 0 10.5048077-7.916666 19.0304487-20.552884 19.0304487-12.027244 0-20.096154-8.525641-19.791667-19.0304487C267.187501 8.22115387 275.256411 0 287.588142 0z" fill="#ea1e63"/></svg>