<svg width="256px" height="229px" viewBox="0 0 256 229" xmlns="http://www.w3.org/2000/svg" preserveAspectRatio="xMidYMid"><path d="M130.3072 0c42.698 61.443 83.974 120.842 125.693 180.877-41.518 15.998-82.426 31.759-124.098 47.816h0v-24.72c3.023-1.851 6.255-3.831 9.772-5.985-3.743-65.205-7.48-130.293-11.367-197.988zm-4.6264.0042c-3.205241 55.8686897-6.319391 110.136771-9.424071 164.250182l-.776019 13.525968c-.387959 6.762209-.775876 13.523884-1.16391 20.28785 3.32 1.969 6.436 3.817 9.756 5.786h0v24.811c-11.0408-4.2512-22.04128-8.486969-33.031117-12.718684L74.5612 209.60056C49.84132 200.08192 25.1002 190.555-2e-4 180.8902c5.95214286-8.566571 11.8968367-17.122429 17.8392741-25.675044l8.9126126-12.827425C59.4298204 95.3559041 92.1182286 48.3091286 125.6808.0042z"/></svg>