<svg width="256px" height="298px" viewBox="0 0 256 298" xmlns="http://www.w3.org/2000/svg" preserveAspectRatio="xMidYMid"><title>Planless</title><path d="M126.670494 171.378639l92.42581 38.602933-207.4599265 86.009267c-7.95032003 3.239046-11.337847697.901718-11.6173863592-7.308869L0 287.525912v-59.597537c0-3.386137 1.92336818-6.492542 4.77094651-8.047137l.88100065-.418552L126.670494 171.378639zM256 109.071777v78.898241l-93.423701-36.570558c-1.329506-.338475-1.994259-1.693138-1.994259-2.709325 0-.846188.461634-1.927957 1.384902-2.460919L256 109.071777zM0 9.86929927C0 1.12401724 3.04186158-1.73474232 10.5803881.996661288l1.0559894.407086062L219.096304 87.7524196l-92.42581 38.2636954L5.65194716 78.2705428C2.62951838 77.0390313.431383943 74.1288157.0567018874 70.5569299L0 69.4665311V9.86929927z" fill="#ff6254"/></svg>