<svg width="256px" height="137px" viewBox="0 0 256 137" xmlns="http://www.w3.org/2000/svg" preserveAspectRatio="xMidYMid"><title>Plasmic</title><path d="M256 120.554561C252.033658 53.3062642 196.248431 0 128 0 59.7601175 0 3.96634166 53.3062642 0 120.554561c.230800053 2.897823.70094831 5.034861 1.64124482 6.881261 1.63905514 3.216732 4.25435113 5.832028 7.47108322 7.471083 3.43635636 1.752371 7.86429816 1.854949 16.30987046 1.863497v-8.54815C25.4221985 71.573661 71.3514091 25.6444504 128 25.6444504c56.648591 0 102.577802 45.9292106 102.577802 102.5778016v8.54815c8.445572 0 12.873514-.111126 16.30987-1.863497 3.216732-1.639055 5.832028-4.254351 7.471083-7.471083.940297-1.8464 1.410445-3.983438 1.641245-6.881261z" fill="#0091ff"/><path d="M128 59.8370509c-37.7681036 0-68.385201 30.6170974-68.385201 68.3852011v8.54815H33.9703486v-8.54815c0-51.9300121 42.0996394-94.0296515 94.0296514-94.0296515 51.930012 0 94.029651 42.0996394 94.029651 94.0296515v8.54815h-25.64445v-8.54815c0-37.7681037-30.617097-68.3852011-68.385201-68.3852011z" fill="#46a758"/><path d="M187.837051 136.770402v-8.54815c0-33.0470908-26.78996-59.837051-59.837051-59.837051-33.0470907 0-59.8370509 26.7899602-59.8370509 59.837051v8.54815h17.0963003c4.7210129 0 8.5481501-3.827137 8.5481501-8.54815 0-18.884052 15.3085485-34.1926006 34.1926005-34.1926006 18.884052 0 34.192601 15.3085486 34.192601 34.1926006 0 4.721013 3.827137 8.54815 8.54815 8.54815h17.0963z" fill="#e54d2e"/></svg>