<svg width="256px" height="192px" viewBox="0 0 256 192" xmlns="http://www.w3.org/2000/svg" preserveAspectRatio="xMidYMid"><title>Playwright</title><g style="fill:#2d4552"><path d="M84.380258 108.351608c-9.5564085 2.712074-15.825994 7.467289-19.9560296 12.218795 3.9557569-3.461844 9.2545726-6.638908 16.4022263-8.664992 7.3108082-2.072063 13.5477627-2.05723 18.7012225-1.062729v-4.029918c-4.3962742-.401954-9.4362674-.081577-15.1474192 1.538844zM63.9874191 74.4747851l-35.4909409 9.3502405c0 0 .6468337.9136656 1.8445366 2.1328753l30.0918594-7.9293125c0 0-.4264268 5.4946012-4.1295165 10.4100037 7.0047451-5.2995573 7.6840614-13.963807 7.6840614-13.963807zm29.7082236 83.4098109C43.750467 171.336691 17.3261001 113.45538 9.32588954 83.4126895 5.62969676 69.5452921 4.01617216 59.042587 3.58611152 52.2649975c-.04620241-.7037895-.02484399-1.2970789.02491816-1.8406802-2.59089468.15648-3.831314434 1.5032469-3.5789439683 5.3952252C.462146344 62.5934239 2.07567095 73.0953873 5.77186373 86.9672344 13.7685145 117.005475 40.1964412 174.886786 90.1418394 161.434691c10.8712856-2.928624 19.0386556-8.263037 25.1695596-15.072516-5.651081 5.103772-12.723832 9.123307-21.6157563 11.522421zM103.081481 39.05096v3.554545h19.590415c-.401954-1.2585151-.806874-2.3924394-1.208828-3.554545h-18.381587z"/><path d="M127.050371 68.3253408c8.810347 2.5021979 13.469894 8.6790819 15.932786 14.1455018l9.823389 2.7899433c0 0-1.340092-19.1313574-18.64486-24.0467598-16.188642-4.5994759-26.150712 8.9950084-27.362506 10.7541114 4.709234-3.3550514 11.5862-6.1019812 20.251191-3.6427967zm78.196281 14.2337536c-16.203475-4.620241-26.161837 9.0024246-27.355831 10.7370544 4.712942-3.3513434 11.586199-6.0990147 20.247483-3.6287061 8.796256 2.5059059 13.452094 8.6753738 15.922403 14.1455013l9.837479 2.800326c0 0-1.361599-19.1350651-18.651534-24.0541756zm-9.75961 50.4429456-81.718195-22.845349c0 0 .884743 4.485268 4.2791 10.292829l68.803026 19.234441c5.66443-3.277182 8.636069-6.681921 8.636069-6.681921zm-56.655427 49.174048C74.1267345 164.828307 81.9492548 82.3855573 92.419329 43.3189354c4.3109889-16.0996486 8.74286-28.0660728 12.418288-36.08756754-2.192946-.45141905-4.009153.70371536-5.8038532 4.35370574-3.9023608 7.9147768-8.892666 20.8017636-13.7220415 38.8422101C74.8446146 89.4931639 67.0220942 171.932947 131.724008 189.280728c30.497299 8.170336 54.255571-4.24721 71.966001-23.748632-16.810855 15.22603-38.273839 23.762723-64.858394 16.643992z"/></g><path d="M103.081481 138.564869v-16.636575l-46.2236203 13.107245c0 0 3.415567-19.845529 27.5223973-26.683931 7.3108083-2.072063 13.5485044-2.057972 18.701223-1.062729V39.05096h23.144218c-2.519997-7.786923-4.957674-13.7821121-7.005264-17.947745-3.386941-6.8947641-6.859167-2.3242112-14.741758 4.268717-5.5517052 4.6380396-19.5829989 14.5326231-40.6974259 20.2222682-21.1147238 5.6933531-38.1848455 4.1834316-45.3071361 2.9501314-10.09711765-1.742046-15.3784313-3.959465-14.88436958 3.7206659.42998647 6.7738814 2.04358524 17.2765865 5.73977802 31.147692C17.3261001 113.451672 43.7540267 171.332983 93.6993508 157.880888c13.0464332-3.515239 22.2550262-10.4634 28.6380782-19.319727h-19.255948v.003708zM28.4929926 83.8250256l35.4944265-9.3502405c0 0-1.0345483 13.6545549-14.3407682 17.1623783-13.3099279 3.5041153-21.1536583-7.8121378-21.1536583-7.8121378z" fill="#e2574c"/><path d="M236.66429 39.8400349c-9.226391 1.6174551-31.361276 3.6324142-58.716365-3.6999009-27.362506-7.3278653-45.517161-20.1441023-52.710053-26.16821421-10.196419-8.54040049-14.681687-14.47566735-19.09576-5.49808676-3.902361 7.91841077-8.8926659 20.80539747-13.722783 38.84584397-10.4663661 39.0658803-18.2888865 121.505663 46.412286 138.853444 64.687823 17.332949 99.126046-57.97772 109.593154-97.0473085 4.830117-18.0367384 6.94816-31.6950014 7.531067-40.5016405.664484-9.9761607-6.188008-7.080167-19.291546-4.7841371zM106.667915 72.1609566c0 0 10.196419-15.8586249 27.490063-10.9432225 17.304768 4.9154025 18.64486 24.0467598 18.64486 24.0467598l-46.134923-13.1035373zm42.214763 71.1628354c-30.418687-8.910465-35.110123-33.167101-35.110123-33.167101l81.714487 22.846091c0-.003709-16.494186 19.120233-46.604364 10.32101zm28.890968-49.8496564c0 0 10.182329-15.8475007 27.473006-10.9180076 17.289935 4.9228185 18.651534 24.054176 18.651534 24.054176l-46.12454-13.1361684z" fill="#2ead33"/><path d="M86.9284358 126.509229l-30.0705751 8.522602c0 0 3.266503-18.608521 25.4184449-25.983108l-17.027405-63.9017147-1.4713576.4471919c-21.1145754 5.6940947-38.1846972 4.1834316-45.3069877 2.9501314-10.09704352-1.7413043-15.37835718-3.959465-14.88436961 3.7214075.43006063 6.7738814 2.04358523 17.2758449 5.73977801 31.147692 7.9966508 30.0382409 34.4245775 87.9195519 84.369679 74.4674569l1.4713577-.462024-8.2385646-30.909635zM28.4929926 83.8257672l35.4944265-9.3509821c0 0-1.0345483 13.6545549-14.3407682 17.1623783-13.3098537 3.5041153-21.1536583-7.8113962-21.1536583-7.8113962z" fill="#d65348"/><path d="M150.25466 143.657517l-1.37569-.334467c-30.418687-8.909723-35.110123-33.166359-35.110123-33.166359l42.136894 11.778277 22.308422-85.7236392-.269946-.0711948c-27.362506-7.3278653-45.516419-20.1441023-52.710053-26.16821421-10.196419-8.54040049-14.681687-14.47566735-19.09576-5.49808676-3.898653 7.91841077-8.8889579 20.80539747-13.719075 38.84584397C81.9529629 82.3855573 74.1304425 164.82534 138.831615 182.17238l1.326002.298869 10.097043-38.813732zm-43.586745-71.4965604c0 0 10.196419-15.8586249 27.490063-10.9432225 17.304768 4.9154025 18.64486 24.0467598 18.64486 24.0467598l-46.134923-13.1035373z" fill="#1d8d22"/><path d="M88.4606056 126.07242l-8.0642857 2.288614c1.9052005 10.740021 5.2632183 21.04694 10.5338527 30.152449.9173737-.20246 1.8273313-.376739 2.7617621-.632595 2.4488018-.660776 4.7196169-1.478774 6.9058883-2.370933-5.8891387-8.739152-9.784825-18.804306-12.1372174-29.437535zm-3.1488833-75.6443947c-4.1441262 15.4670539-7.8514432 37.7294959-6.8309855 60.0594247 1.8265897-.792783 3.7562633-1.531428 5.8995212-2.13955l1.4928644-.333725c-1.8199152-23.8517161 2.114335-48.1572984 6.5462066-64.694498 1.1235417-4.1834316 2.2500499-8.0746683 3.37285-11.7033744-1.8087909 1.1509814-3.7562633 2.3308856-5.9744239 3.5463872-1.4958308 4.6172745-3.0064939 9.6639422-4.5060328 15.2653355z" fill="#c04b41"/></svg>