<svg width="256px" height="256px" viewBox="0 0 256 256" xmlns="http://www.w3.org/2000/svg" preserveAspectRatio="xMidYMid"><title>Pluralsight</title><defs><linearGradient x1="49.9986825%" y1="1.57575758%" x2="49.9986825%" y2="100.442688%" id="a"><stop stop-color="#df5430"/><stop stop-color="#d7197e" offset="1"/></linearGradient></defs><path d="M256 128c0 70.695125-57.31011 128-128.003373 128C57.3033649 256 0 198.695125 0 128 0 57.3048748 57.3033649 0 127.996627 0 198.68989 0 256 57.3048748 256 128" fill="url(#a)"/><g style="fill:#fffffe"><path d="M95.0918816 61.4788543V194.507655l115.2070824-66.511028L95.0918816 61.4788543zM106.12084 80.5822244l82.120208 47.4144026-82.120208 47.414403V80.5822244h0z"/><path d="M68.6088904 76.0020026V179.984506l90.0462176-51.994624-90.0462176-51.9878794zm11.0289584 19.1033701 56.9660882 32.8845093-56.9660882 32.898V95.1053727h0z"/></g></svg>