<svg width="256px" height="210px" viewBox="0 0 256 210" xmlns="http://www.w3.org/2000/svg" preserveAspectRatio="xMidYMid"><title>PM2</title><defs><linearGradient x1="67.1299837%" y1="64.6873025%" x2="46.1614684%" y2="45.7804854%" id="a"><stop stop-color="#520bf5" offset="0%"/><stop stop-color="#9d1fe0" offset="100%"/><stop stop-color="#9d1fe0" offset="100%"/></linearGradient><linearGradient x1="67.4626279%" y1="34.9939767%" x2="42.4094293%" y2="56.9018791%" id="b"><stop stop-color="#9e1fa7" offset="0%"/><stop stop-color="#e540ae" offset="100%"/></linearGradient><linearGradient x1="100%" y1="50%" x2="29.9733771%" y2="50%" id="c"><stop stop-color="#4b6af2" offset="0%"/><stop stop-color="#4ca7eb" offset="100%"/></linearGradient></defs><path d="M175.280684 0l-9.355082 16.0383089c-1.067879 1.8310606-2.992361 2.8515104-4.971459 2.8515104-.983081 0-1.980535-.2515193-2.891753-.783303-2.742279-1.5996629-3.66787-5.1209333-2.068208-7.8632125L161.968844 0h-16.798616c.001438.980206707-.222774 1.97191144-.748809 2.88025549L118.576732 47.5184665c-6.337901 10.9915549-19.937437 17.3634564-30.5113706 17.3634564 0 0-2.7581152 0-8.2743455 0-3.1748924 0-5.749013-2.5741206-5.749013-5.749013 0-3.1748924 2.5741206-5.7490129 5.749013-5.7490129h8.2743455c7.4947002 0 16.0829546-5.3265391 20.3485526-11.2450694C111.257646 38.1931408 119.38675 24.1468649 132.801227 0h-15.269378C93.4089903 51.9466437 79.0364579 41.8858711 35.9188608 41.8858711c-2.8543849 4.3232577-5.7245796 8.6623252-8.5315352 12.9352791h30.0903338c3.1748924 0 5.7490129 2.5741205 5.7490129 5.7490129 0 3.1748924-2.5741205 5.749013-5.7490129 5.749013H19.89205c-2.565497 3.9811915-5.0045158 7.8229694-7.2394446 11.441973l94.4548456-.664011-4.226962.0028745c5.720268.1164175 14.973304-3.2323825 19.453223-10.2749234l22.270239-35.199769c1.697396-2.6833518 5.247411-3.4824646 7.9322-1.7836312 2.681915 1.697396 3.481028 5.2474115 1.783631 7.9322006l-22.277425 35.2127043c-6.716284 10.5523132-19.428789 15.778166-29.330027 15.6100074l-96.88667744.7100031C1.33423619 97.3854048 9.14060494e-14 102.663254.056518065 105.125013H128.48803L194.016717 4.51728692C189.880332 2.13307443 183.955944.205527213 176.374433 0h-1.093749z" fill="url(#a)"/><path d="M128.488605 105.12487H.0556557131C-.356835966 111.215949 1.54269831 117.542738 5.1171471 123.102033c1.45867596 0 2.5243312 0 3.19696571 0h.04742936H91.1048455c13.3794465-1.469554 25.2503925 4.094556 35.6128385 16.692329l21.563335 34.860508c1.693085 2.686226.885348 6.236241-1.800878 7.927888-.951462.599335-2.010717.885348-3.057038.885348-1.911546 0-3.778538-.951461-4.870851-2.687663-13.295192-21.550494-21.391061-33.740478-24.287605-36.56995-4.344817-4.244209-9.909655-9.577377-23.1598015-9.577377H12.3384219l7.6720577 12.183596h30.7040409c3.1748924 0 5.749013 2.57412 5.749013 5.749013 0 3.174892-2.5741206 5.749013-5.749013 5.749013H27.2499242l7.2322583 11.486527c51.7411165 0 58.9273827 5.749013 76.6918325 40.037841h15.072475c-12.871862-22.986271-21.005437-36.545571-24.400726-40.677899-5.0929341-6.198492-11.956282-10.846469-20.8419267-10.846469H73.027877c-3.1748924 0-5.7490129-2.574121-5.7490129-5.749013 0-3.174893 2.5741205-5.749013 5.7490129-5.749013h7.9759603c12.1906865 0 25.8699167 7.831593 30.8083187 17.363456l27.281941 44.638211c.191154.330568.342066.672635.461358 1.020727h20.554158l-6.56681-11.258282c-1.6011-2.742279-.674071-6.262112 2.068208-7.863212.911218-.530347 1.908672-.783303 2.891753-.783303 1.977661 0 3.90358 1.02045 4.971459 2.852947l9.94723 17.05185h5.056997c4.005625.012658 6.940379-.413586 12.664341-4.10651L128.488605 105.12487z" fill="url(#b)"/><path d="M194.017148 4.51728692 186.031769 16.669263l9.894051 14.841077c1.760636 2.6416714 1.047758 6.2118084-1.595351 7.9724437-.978769.6539502-2.086891.9658341-3.182078.9658341-1.858369 0-3.682243-.8982832-4.788928-2.559748l-7.187704-10.7808365-7.936512 12.0758017 28.352695 46.4045952c6.628611 10.845513 6.596992 24.3010778-.080487 35.1178458-.086235.136539-.176782.271641-.273078.402431l-3.472404 4.686883c-1.128243 1.520613-2.865883 2.325475-4.623643 2.325475-1.190046 0-2.390152-.367937-3.419226-1.129681-2.551124-1.891425-3.085782-5.491744-1.195794-8.042869l3.320055-4.478481c4.270079-7.075598 4.249957-15.8227209-.066114-22.8868205l-25.52418-41.7737653-36.349572 55.3155648 28.58553-43.0902888 14.116701 21.8088806c7.243756 11.191891 7.215011 25.6017922-.0733 36.7663752l-16.758373 25.672217-25.870558-41.157184 33.256603 52.909604 15.322557-20.429118c1.905797-2.538189 5.507554-3.052726 8.048618-1.148365 2.539626 1.904361 3.054163 5.508992 1.149802 8.048618l-17.967102 23.956137 8.738499 13.901113 42.35729-66.878267c4.830608-7.626066 4.886661-17.5172426.142288-25.1964867l-20.48517-33.1646184c-1.667214-2.7005988-.830732-6.2434281 1.871304-7.9120791 2.703473-1.668651 6.243428-.8307324 7.912079 1.8698665L228.734 84.2460357c7.039666 11.3974182 6.956306 26.0732113-.209839 37.3915803l-44.741693 70.642434c-.179657.284576-.386621.53897-.605084.780428l7.960946 12.672118c3.468764-2.740207 5.938221-5.04136 7.408372-6.903456 16.870651-21.36841 34.429317-47.041427 52.675999-77.019054 6.24811-10.265072 6.411587-22.9845535.229961-33.2192338-23.516338-38.9323156-49.642532-80.211551-57.435514-84.07356528z" fill="url(#c)"/></svg>