<svg width="512px" height="368px" viewBox="0 0 512 368" xmlns="http://www.w3.org/2000/svg" preserveAspectRatio="xMidYMid"><title>pnpm</title><path d="M511.999952 126.273838v114.794397H397.205554V126.273838h114.794398zm0-126.273838v114.794398H397.205554V0h114.794398zM385.726115 0v114.794398H270.931717V0h114.794398zM259.452277 0v114.794398H144.657879V0h114.794398z" fill="#f9ad00"/><path d="M385.726115 252.547675v114.794398H270.931717V252.547675h114.794398zm126.273837 0v114.794398H397.205554V252.547675h114.794398zm-252.547675 0v114.794398H144.657879V252.547675h114.794398zm126.273838-126.273837v114.794397H270.931717V126.273838h114.794398zM21.5032866 159.770843c3.8570918 0 7.4409729.498207 10.7516433 1.494623 3.3106704.996415 6.1552756 2.523181 8.5338155 4.580296 2.3785399 2.057116 4.242801 4.644582 5.5927831 7.762398 1.3499821 3.117815 2.0249731 6.830266 2.0249731 11.137352 0 4.114231-.5785637 7.714184-1.7356912 10.799857-1.1571276 3.085673-2.7963916 5.673139-4.917792 7.762397-2.1214005 2.089258-4.6767238 3.648166-7.6659699 4.676724-2.9892461 1.028558-6.3159878 1.542837-9.980225 1.542837-2.7642491 0-5.3356436-.417852-7.7141835-1.253555h0v16.006931l-.1551966.04479c-.648174.180302-1.6249996.374297-2.9304768.581987-1.414267.224997-2.8606764.337496-4.33922825.337496-1.41426698 0-2.68389302-.096428-3.80887811-.289282-1.1249851-.192855-2.07318683-.578564-2.84460518-1.157128-.77141835-.578564-1.349982119-1.366053-1.735691295-2.362469-.385709177-.996415-.5785637649999857-2.298183-.5785637649999857-3.905305h0v-46.285101L.00492850614 170.902838C.0509278968 169.322859.418923022 168.022876 1.10891388 167.00289c.73927592-1.092843 1.75176251-2.089258 3.03745977-2.989246 1.99283074-1.285698 4.46779796-2.314255 7.42490165-3.085674 2.9571037-.771418 6.2677741-1.157127 9.9320113-1.157127zm112.6270794 0c3.857092 0 7.440973.498207 10.751643 1.494623 3.310671.996415 6.155276 2.523181 8.533816 4.580296 2.37854 2.057116 4.242801 4.644582 5.592783 7.762398 1.349982 3.117815 2.024973 6.830266 2.024973 11.137352 0 4.114231-.578564 7.714184-1.735691 10.799857-1.157128 3.085673-2.796392 5.673139-4.917792 7.762397-2.121401 2.089258-4.676724 3.648166-7.66597 4.676724-2.989246 1.028558-6.315988 1.542837-9.980225 1.542837-2.764249 0-5.335644-.417852-7.714183-1.253555h0v16.006931l-.155197.04479c-.648174.180302-1.625.374297-2.930477.581987-1.414267.224997-2.860676.337496-4.339228.337496-1.414267 0-2.683893-.096428-3.808878-.289282-1.124985-.192855-2.073187-.578564-2.844605-1.157128-.771419-.578564-1.349983-1.366053-1.735692-2.362469-.385709-.996415-.578563-2.298183-.578563-3.905305h0v-46.285101l.004928-.342853c.045999-1.579979.413995-2.879962 1.103985-3.899948.739276-1.092843 1.751763-2.089258 3.03746-2.989246 1.992831-1.285698 4.467798-2.314255 7.424902-3.085674 2.957104-.771418 6.267774-1.157127 9.932011-1.157127zm-54.2885665 0c7.2641895 0 12.8569726 1.59105 16.7783492 4.773151 3.9213763 3.182101 5.8820653 7.601685 5.8820653 13.258753h0v30.181743l-.168413.048214c-.645751.176783-1.6021.353566-2.8690471.53035-1.3821246.192854-2.8124628.289282-4.2910146.289282-1.414267 0-2.683893-.096428-3.8088781-.289282-1.1249851-.192855-2.0731868-.578564-2.8446052-1.157128-.7714184-.578564-1.3660533-1.366053-1.7839049-2.362469-.4178516-.996415-.6267775-2.298183-.6267775-3.905305h0v-22.756841l-.0046744-.310251c-.0560934-1.835056-.6170278-3.19412-1.6828032-4.077191-1.1249851-.932131-2.6517506-1.398196-4.5802965-1.398196-1.2856972 0-2.5553233.160712-3.8088781.482136-1.2535548.321425-2.3303263.803561-3.2303143 1.44641h0v33.460271l-.168413.048214c-.6457504.176783-1.6020993.353566-2.8690468.53035-1.3821246.192854-2.8124628.289282-4.2910146.289282-1.414267 0-2.683893-.096428-3.8088781-.289282-1.1249851-.192855-2.0731868-.578564-2.8446052-1.157128-.7714183-.578564-1.3660533-1.366053-1.7839049-2.362469-.4178516-.996415-.6267774-2.298183-.6267774-3.905305h0v-28.928188l.0049285-.342853c.0459994-1.579979.4139945-2.879962 1.1039853-3.899948.739276-1.092843 1.7517626-2.089258 3.0374598-2.989246 2.1856853-1.542837 4.9338632-2.796392 8.2445337-3.760665 3.3106704-.964273 6.9909788-1.446409 11.0409251-1.446409zm141.2659855 0c2.442825 0 4.837436.321424 7.183834.964273 2.346397.642848 4.435655 1.655335 6.267774 3.03746 1.832119 1.382124 3.294599 3.214243 4.387442 5.496355 1.092842 2.282113 1.639264 5.062433 1.639264 8.340961h0v30.374598l-.168413.048214c-.64575.176783-1.602099.353566-2.869047.53035-1.382124.192854-2.812463.289282-4.291015.289282-1.414267 0-2.683893-.096428-3.808878-.289282-1.124985-.192855-2.073186-.578564-2.844605-1.157128-.771418-.578564-1.366053-1.366053-1.783905-2.362469-.417851-.996415-.626777-2.298183-.626777-3.905305h0v-23.046123l-.00506-.316514c-.05734-1.76575-.602075-3.058442-1.634204-3.878074-1.092843-.867845-2.571395-1.301768-4.435656-1.301768-.899988 0-1.864261.208926-2.892819.626777-1.028557.417852-1.799976.851775-2.314255 1.301769.064285.257139.096428.498207.096428.723205h0v32.737066l-.183815.048214c-.699767.176783-1.683125.353566-2.950072.53035-1.382125.192854-2.780321.289282-4.194588.289282-1.414267 0-2.683893-.096428-3.808878-.289282-1.124985-.192855-2.073187-.578564-2.844605-1.157128-.771418-.578564-1.366053-1.366053-1.783905-2.362469-.417851-.996415-.626777-2.298183-.626777-3.905305h0v-23.046123l-.004942-.3001c-.059299-1.774156-.652286-3.072318-1.778963-3.894488-1.18927-.867845-2.619608-1.301768-4.291015-1.301768-1.157127 0-2.153543.176783-2.989246.53035-.835703.353567-1.542837.691062-2.1214 1.012487h0v33.84598l-.168413.048214c-.645751.176783-1.6021.353566-2.869047.53035-1.382125.192854-2.812463.289282-4.291015.289282-1.414267 0-2.683893-.096428-3.808878-.289282-1.124985-.192855-2.073187-.578564-2.844605-1.157128-.771418-.578564-1.366053-1.366053-1.783905-2.362469-.417852-.996415-.626777-2.298183-.626777-3.905305h0v-29.121043l.004928-.342424c.045999-1.575979.413995-2.843962 1.103985-3.803949.739276-1.028558 1.751763-1.992831 3.03746-2.892819 2.185686-1.542837 4.901721-2.796392 8.148107-3.760665 3.246385-.964273 6.637412-1.446409 10.173079-1.446409 2.635679 0 5.223145.369638 7.762397 1.108914 2.539252.739276 4.741009 1.848189 6.60527 3.326741 1.928546-1.285697 4.09816-2.346397 6.508842-3.1821 2.410683-.835704 5.319573-1.253555 8.72667-1.253555zm-199.0259346 12.82483c-1.2214124 0-2.3142551.144641-3.278528.433923-.964273.289282-1.7999762.626777-2.5071097 1.012486h0v21.214005l.3910663.187498c.6607055.303567 1.3660533.562492 2.1160434.776775.899988.257139 1.864261.385709 2.8928188.385709 6.6213408 0 9.9320113-3.953519 9.9320113-11.860557 0-4.114231-.819632-7.167762-2.458896-9.160593-1.639264-1.992831-4.0017327-2.989246-7.0874061-2.989246zm112.6270796 0c-1.221413 0-2.314255.144641-3.278528.433923-.964273.289282-1.799976.626777-2.50711 1.012486h0v21.214005l.391066.187498c.660706.303567 1.366054.562492 2.116044.776775.899988.257139 1.864261.385709 2.892819.385709 6.621341 0 9.932011-3.953519 9.932011-11.860557 0-4.114231-.819632-7.167762-2.458896-9.160593-1.639264-1.992831-4.001733-2.989246-7.087406-2.989246z" fill="#4e4e4e"/></svg>