<svg width="256px" height="256px" viewBox="0 0 256 256" xmlns="http://www.w3.org/2000/svg" preserveAspectRatio="xMidYMid"><title>PocketBase</title><path d="M9.45943152 170.335917c-4.6762843 0-8.467183458-3.790475-8.467183458-8.467183V9.45943152c0-4.6762843 3.790899158-8.467183458 8.467183458-8.467183458H161.868734c4.676708 0 8.467183 3.790899158 8.467183 8.467183458V85.6640827h76.204651c4.676708 0 8.467184 3.7911814 8.467184 8.4671834V246.540568c0 4.676708-3.790476 8.467184-8.467184 8.467184H94.1312661c-4.676002 0-8.4671834-3.790476-8.4671834-8.467184v-76.204651z" fill="#fff"/><g style="fill:#16161a"><path d="M161.868734 0H9.45943152C4.23514375 0 0 4.23514375 0 9.45943152V161.868734l.00376012403.269337C.146328782 167.238077 4.32508151 171.328165 9.45943152 171.328165l75.21207238-6.61e-4 3.307e-4 75.213064c0 5.224481 4.2351951 9.459432 9.4594315 9.459432H246.540568C251.76528 256 256 251.76528 256 246.540568V94.1312661l-.00376-.2693204c-.142567-5.0996982-4.321269-9.1901111-9.455672-9.1901111l-75.213064-3.307e-4 6.61e-4-75.21207238C171.328165 4.2350052 167.093306 0 161.868734 0zm0 1.98449612c4.12855 0 7.474935 3.34650068 7.474935 7.4749354V85.6640827c0 .5480035.444245.992248.992248.992248h76.204651c4.128448 0 7.474936 3.3466804 7.474936 7.4749354V246.540568c0 4.128705-3.346231 7.474936-7.474936 7.474936H94.1312661c-4.128255 0-7.4749354-3.346488-7.4749354-7.474936v-76.204651c0-.548003-.4442445-.992248-.992248-.992248H9.45943152c-4.12843472 0-7.4749354-3.346385-7.4749354-7.474935V9.45943152c0-4.12828083 3.34665457-7.4749354 7.4749354-7.4749354H161.868734z"/><path d="M57.4401378 128c-3.8968801 0-7.0559862-3.158965-7.0559862-7.055986V43.3281654c0-3.8968801 3.1591061-7.0559862 7.0559862-7.0559862h26.4818219c5.129702 0 9.9207166.5158631 14.3730439 1.5475189 4.5489944.9379522 8.4693004 2.5793157 11.7602124 4.9240905 3.387579 2.2510007 6.049097 5.2991868 7.985259 9.1446287 1.935457 3.7516679 2.903539 8.3945774 2.903539 13.9278818 0 5.3463207-1.016062 9.9891596-3.048892 13.9278111-1.935457 3.9393572-4.59768 7.1752324-7.985259 9.7076259-3.387579 2.5323934-7.307885 4.4085802-11.7602127 5.6278546-4.4523273 1.2192744-9.1946556 1.8289116-14.2276906 1.8289116h-5.1395804c-3.8970212 0-7.0559862 3.1589647-7.0559862 7.0559867v16.979525c0 3.897021-3.158965 7.055986-7.0559862 7.055986h-7.2302691zm14.2862553-54.6083941c0 3.8970211 3.158965 7.0559862 7.0559862 7.0559862h3.8328117c11.614859 0 17.421936-4.8770977 17.421936-14.631293 0-4.7832531-1.5001031-8.1595425-4.5003084-10.1293622-2.9035383-1.969608-7.2112179-2.954412-12.9216276-2.954412h-3.8328117c-3.8970212 0-7.0559862 3.1591062-7.0559862 7.0558451v13.6032359z"/><path d="M142.111972 219.727821c-3.897021 0-7.055986-3.158965-7.055986-7.055986v-77.615849c0-3.897021 3.158965-7.055986 7.055986-7.055986h24.609164c4.915905 0 9.446554.375378 13.59124 1.12543 4.241354.656912 7.904822 1.876187 10.988993 3.657823 3.084877 1.782342 5.494497 4.127046 7.229564 7.034113 1.831734 2.907772 2.746895 6.565595 2.746895 10.974175 0 2.06317-.337276 4.126341-1.011828 6.190217-.578591 2.06317-1.542439 3.985926-2.891543 5.767563-1.349811 1.782342-3.036897 3.376995-5.060554 4.783959-1.960153 1.361805-4.280867 2.372222-6.963553 3.030546-.155937.038808-.26601.177811-.26601.337981h0c0 .167227.120657.310464.285062.34151 6.606519 1.233387 11.619798 3.560451 15.041245 6.981899 3.470134 3.470134 5.205201 8.300662 5.205201 14.490878 0 4.689409-.915867 8.722611-2.746895 12.0989-1.831734 3.376289-4.386001 6.190217-7.663507 8.441076-3.277505 2.157015-7.132896 3.798943-11.567583 4.924373-4.337315 1.031585-9.060592 1.547378-14.169126 1.547378h-27.356765zm14.198762-61.924041c0 3.897021 3.158965 7.055986 7.055986 7.055986h2.342587c5.205201 0 8.964631-.98431 11.277583-2.954341 2.313658-1.969326 3.470134-4.736684 3.470134-8.300662 0-3.37629-1.204457-5.768269-3.614782-7.174527-2.312952-1.500808-5.97642-2.251565-10.988287-2.251565h-2.487235c-3.897021 0-7.055986 3.15967-7.055986 7.055986v6.569123zm0 38.689384c0 3.896315 3.158965 7.055986 7.055986 7.055986h4.366244c11.374955 0 17.06208-4.127046 17.06208-12.380433 0-4.033202-1.397791-6.940974-4.193372-8.722611-2.698915-1.782342-6.988249-2.673513-12.868708-2.673513h-4.366244c-3.897021 0-7.055986 3.158965-7.055986 7.055987v9.664584z"/></g></svg>