<svg width="256px" height="207px" viewBox="0 0 256 207" xmlns="http://www.w3.org/2000/svg" preserveAspectRatio="xMidYMid"><path fill="#fff" transform="matrix(1 0 0 -1 0 183.376462)" d="M59.9147438 19.9720987h112.567094v143.432266H59.9147438z"/><path d="M61.2673646 206.978723H0v-26.131906c0-43.89572 35.5494147-77.357197 79.3961136-77.357197h73.1322994c11.020682 0 19.953425 8.9509 19.953425 19.982475v25.091569h-34.006156c-35.258919 0-70.0693849 24.949952-77.2083174 58.415059" fill="#24c1ce" transform="matrix(1 0 0 -1 0 310.468344)"/><path d="M59.9147438 12.5517485c0 39.5981989 39.0099451 70.9662906 78.5609382 70.9662906h34.006156c-.005446 11.0261285-8.932743 19.9715809-19.957056 19.9715809H79.3961136C35.5494147 103.48962 0 70.0335906 0 26.1324237V5.17446809e-4h61.2673646C60.3995086 4.07108883 59.9147438 8.2614897 59.9147438 12.5517485" fill="#3dd0ad" transform="matrix(1 0 0 -1 0 103.490138)"/><path d="M123.460684 74.4400477c-10.027549 0-18.155983-8.1248024-18.155983-18.155983 0-10.0221026 8.128434-18.155983 18.155983-18.155983 10.025734 0 18.155983 8.1338804 18.155983 18.155983 0 10.0311806-8.130249 18.155983-18.155983 18.155983" fill="#404953" transform="matrix(1 0 0 -1 0 112.56813)"/><path d="M116.198291 54.4684664c-3.003 0-5.446795-2.4419797-5.446795-5.4413481 0-3.0048152 2.443795-5.4522417 5.446795-5.4522417 3.003 0 5.446795 2.4474265 5.446795 5.4522417 0 2.9993684-2.443795 5.4413481-5.446795 5.4413481" fill="#fff" transform="matrix(1 0 0 -1 0 98.043342)"/><path fill="#404953" transform="matrix(1 0 0 -1 0 188.823258)" d="M101.673505 87.1492357h49.021154v14.5247863h-49.021154z"/><path d="M32.6844006 121.645603c-10.0221026 0-18.155983-8.137511-18.155983-18.159614-.0036312-10.0221024 8.1302492-18.1523516 18.1523518-18.1523516 10.0257338 0 18.1559829 8.1338804 18.1559829 18.1523516 0 10.022103-8.1284335 18.159614-18.1559829 18.159614" fill="#ffda00" transform="matrix(1 0 0 -1 0 206.97924)"/><path d="M230.541041 155.769773c-16.104357 16.104357-36.96195 24.554152-58.059203 25.376618V90.9111554l58.059203-58.0592024c33.944425 33.9426102 33.944425 88.97521 0 122.916005v.001815zm-58.059203-92.6372715V19.9720987c11.307546.6118566 22.477107 4.266656 32.176033 10.9843697l-32.176033 32.1760331z" fill="#404953" transform="matrix(1 0 0 -1 0 201.11849)"/><path d="M61.2673646 187.007295h-1.3526208v-59.141299c0-13.515314 10.9553202-24.423428 24.4706339-24.376223l88.0964603.330439v24.772023h-34.006156c-35.258919 0-70.0693849 24.949952-77.2083174 58.41506" fill="#3a4287" transform="matrix(1 0 0 -1 0 290.496916)"/></svg>