<svg width="256px" height="178px" viewBox="0 0 256 178" xmlns="http://www.w3.org/2000/svg" preserveAspectRatio="xMidYMid"><g transform="translate(-1)" fill="none"><g transform="translate(51.398438)"><path d="M103.202016 177.979687.795164062.6046875H52.0021172L154.408969 177.979687h-51.206953 0z" fill="#ff4081"/><g style="fill:#fff"><path d="M103.202016 177.979687l25.600453-44.34375 25.6065 44.34375h-51.206953 0z" fill-opacity="0.2"/><path d="M77.6015625 133.635937l25.6004535 44.34375 25.600453-44.34375H77.6025703h-.0010078 0z" fill-opacity="0.1"/></g><g style="fill:#000"><path d="M52.0011094 89.2921875l25.6004531 44.3437495 25.6004535-44.3437495H52.0021172h-.0010078 0z" fill-opacity="0.1"/><path d="M52.0011094 89.2921875l25.6004531-44.34375 25.6004535 44.34375H52.0021172h-.0010078 0z" fill-opacity="0.2"/><path d="M26.4016641 44.9484375l25.6004531 44.34375 25.6004531-44.34375H26.4026719h-.0010078 0z" fill-opacity="0.3"/><path d="M26.4016641 44.9484375 52.0021172.6046875l25.6004531 44.34375H26.4026719h-.0010078 0z" fill-opacity="0.4"/><path d="M.795164063.6046875l25.606500037 44.34375L52.0021172.6046875H.795164063h0z" fill-opacity="0.5"/></g></g><g transform="translate(0 44.34375)"><path d="M52.1936016 133.635937.986648438 44.9484375 26.5931484.6046875 103.399547 133.635937H52.1925938h.0010078 0z" fill="#536dfe"/><g style="fill:#fff"><path d="M52.1936016 133.635938l25.6065-44.3437505 25.6004534 44.3437505H52.1936016h0z" fill-opacity="0.2"/><path d="M26.5931484 89.2921875l25.6004532 44.3437505 25.6065-44.3437505H26.5931484h0z" fill-opacity="0.1"/></g><path d="M26.5931484 89.2921875l25.6004532-44.34375 25.6065 44.34375H26.5931484h0z"/><g style="fill:#000"><path d="M.986648437 44.9484375l25.606499963 44.34375 25.6004532-44.34375H.986648437h0z" fill-opacity="0.1"/><path d="M.986648437 44.9484375 26.5931484.6046875l25.6004532 44.34375H.986648437h0z" fill-opacity="0.2"/></g></g><g transform="translate(26.203125)"><path d="M25.9904766 89.2921875.390023438 44.9484375 25.9904766.6046875l25.6065 44.34375-25.6065 44.34375h0z" fill="#303f9f"/><path d="M51.5969766 44.9484375l-25.6065-44.34375-25.600453162 44.34375H51.5969766h0z" fill-opacity="0.2" fill="#000"/></g><g transform="translate(179.390625 88.6875)"><path d="M26.4157734 89.2921875.809273437 44.9484375 26.4157734.6046875l25.6004532 44.34375-25.6004532 44.34375h0z" fill="#3f51b5"/><path d="M52.0162266 44.9484375l-25.6004532 44.34375-25.606499963-44.34375H52.0162266h0z" fill-opacity="0.2" fill="#000"/></g><g transform="translate(154.195312)"><path d="M77.2115391 133.635937.405140625.6046875H51.6120937l51.2069533 88.6875-25.6065001 44.3437495h-.0010078 0z" fill="#7986cb"/><g style="fill:#fff"><path d="M51.6110859 89.2921875l25.6004532 44.3437505 25.6064999-44.3437505H51.6110859h0z" fill-opacity="0.2"/><path d="M51.6110859 89.2921875l25.6004532-44.34375 25.6064999 44.34375H51.6110859h0z" fill-opacity="0.1"/></g><g style="fill:#000"><path d="M26.0045859 44.9484375l25.6065-44.34375 25.6004532 44.34375H26.0045859h0z" fill-opacity="0.1"/><path d="M.405140625.6046875l25.600453175 44.34375L51.6120937.6046875H.405140625h0z" fill-opacity="0.2"/></g></g></g></svg>