<svg width="256" height="142" xmlns="http://www.w3.org/2000/svg" preserveAspectRatio="xMidYMid"><path d="M0 112.012c0-4.753 5.746-7.133 9.107-3.772l24.452 24.452c3.361 3.361.98 9.107-3.772 9.107H5.335A5.335 5.335 0 010 136.464v-24.452zm0-25.756c0 1.415.562 2.772 1.563 3.773l50.208 50.208c1 1 2.357 1.562 3.772 1.562H83.12c4.753 0 7.134-5.746 3.773-9.107L9.107 54.907C5.747 51.546 0 53.926 0 58.679v27.577zm0-53.333c0 1.415.562 2.772 1.563 3.772l103.541 103.542c1 1 2.358 1.562 3.772 1.562h27.578c4.753 0 7.133-5.746 3.772-9.107L9.107 1.573C5.747-1.787 0 .593 0 5.346v27.577zm53.333 0c0 1.415.563 2.772 1.563 3.772l95.997 95.997c3.36 3.361 9.107.98 9.107-3.772v-27.578a5.336 5.336 0 00-1.563-3.772L62.441 1.573c-3.361-3.36-9.108-.98-9.108 3.773v27.577zm62.44-31.35c-3.36-3.36-9.106-.98-9.106 3.773v27.577c0 1.415.562 2.772 1.562 3.772l42.664 42.664c3.36 3.36 9.107.98 9.107-3.773V48.01a5.336 5.336 0 00-1.563-3.772L115.774 1.573z" fill="#F9BD2B"/><path d="M226.867 112.666L176.651 62.45c-3.361-3.361-9.107-.98-9.107 3.772v70.242a5.335 5.335 0 005.335 5.335h77.786a5.335 5.335 0 005.335-5.335v-6.397c0-2.946-2.399-5.299-5.32-5.68a41.207 41.207 0 01-23.813-11.72zm-33.724 12.066a8.537 8.537 0 01-8.533-8.533c0-4.71 3.823-8.534 8.533-8.534a8.537 8.537 0 018.534 8.534 8.537 8.537 0 01-8.534 8.533z"/><path d="M8.656 107.833l.451.406 24.452 24.453c3.215 3.214 1.177 8.612-3.166 9.075l-.606.032H5.335a5.336 5.336 0 01-5.3-4.713L0 136.464v-24.452c0-4.547 5.258-6.922 8.656-4.179zm0-53.332l.451.406 44.226 44.226V141.8L1.563 90.03a5.336 5.336 0 01-1.517-3.072L0 86.257V58.679c0-4.546 5.258-6.921 8.656-4.178zM0 5.346C0 .799 5.258-1.576 8.656 1.167l.451.406L53.333 45.8v42.667l-51.77-51.77a5.335 5.335 0 01-1.517-3.072L0 32.923V5.346z" fill="#1D4AFF"/><path d="M53.333 45.8l51.771 51.77a5.333 5.333 0 011.516 3.072l.047.7V141.8L54.896 90.03a5.337 5.337 0 01-1.516-3.072l-.047-.701V45.8zm0 53.332l33.56 33.56c3.215 3.214 1.176 8.612-3.166 9.075l-.607.032H53.333V99.132zM61.99 1.167l.452.406 42.663 42.664a5.333 5.333 0 011.516 3.07l.047.702v40.457l-51.771-51.77a5.336 5.336 0 01-1.516-3.072l-.047-.701V5.346c0-4.547 5.258-6.922 8.656-4.179z" fill="#F54E00"/></svg>