<svg width="256px" height="247px" viewBox="0 0 256 247" xmlns="http://www.w3.org/2000/svg" preserveAspectRatio="xMidYMid"><path fill="#468bcc" d="M16.6956522 131.33913 0 74.573913 52.3130435 0 153.6 131.33913z"/><path fill="#4ba8ff" d="M0 74.573913 52.3130435 0 128 23.373913l25.6 107.965217z"/><g style="fill:#468bcc"><path d="M52.3130435 0 128 23.373913 203.686957 0 153.6 131.33913z"/><path d="M128 23.373913 203.686957 0 256 74.573913 153.6 131.33913z"/></g><path fill="#4ba8ff" d="M203.686957 0 256 74.573913l-16.695652 56.765217H153.6z"/><g style="fill:#468bcc"><path d="M256 74.573913l-16.695652 56.765217L128 229.286957l25.6-97.947827z"/><path d="M239.304348 131.33913 128 229.286957 16.6956522 131.33913H153.6z"/><path d="M128 229.286957 16.6956522 131.33913 0 74.573913l153.6 56.765217z"/><path d="M16.6956522 131.33913 0 74.573913l153.6 56.765217z"/></g><path fill="#fff" d="M77.9130435 159.165217l18.9217391 12.243479-30.0521739 23.373913z"/><path d="M77.0631413 158.899623l-11.1304348 35.617391c-.2602003.832641.7079844 1.504033 1.3965763.968461l30.0521739-23.373913c.4838044-.376292.4516394-1.117483-.0629443-1.450449l-18.9217391-12.243478c-.4945398-.319996-1.1579363-.080238-1.333632.481988zm1.3501039 1.649775L95.29856 171.475256 68.4806678 192.33369l9.9325774-31.784292z" fill="#082744"/><path fill="#fff" d="M178.086957 159.165217l-18.92174 12.243479 30.052174 23.373913z"/><path d="M177.603227 158.417635l-18.921739 12.243478c-.514584.332966-.546749 1.074157-.062945 1.450449l30.052174 23.373913c.688592.535572 1.656777-.13582 1.396576-.968461l-11.130434-35.617391c-.175696-.562226-.839093-.801984-1.333632-.481988zm-.016695 2.131763 9.932578 31.784292-26.817893-20.858434 16.885315-10.925858z" fill="#082744"/><path fill="#4ba8ff" d="M66.7826087 61.2173913l36.7304343-45.4121739h48.973914L128 94.6086957z"/><path fill="#468bcc" d="M103.513043 15.8052174h48.973914l36.730434 45.4121739L128 94.6086957z"/><path fill="#166ebf" d="M152.486957 15.8052174l36.730434 45.4121739v94.6086957L128 94.6086957z"/><path fill="#0b457f" d="M189.217391 61.2173913v94.6086957l-36.730434 24.486956L128 94.6086957z"/><path fill="#0c3861" d="M189.217391 155.826087l-36.730434 24.486956L128 245.982609V94.6086957z"/><path fill="#166ebf" d="M152.486957 180.313043v53.426087L128 245.982609l-24.486957-65.669566L128 94.6086957z"/><path fill="#4ba8ff" d="M128 245.982609l-24.486957-12.243479v-53.426087l-36.7304343-24.486956L128 94.6086957z"/><path fill="#166ebf" d="M103.513043 180.313043l-36.7304343-24.486956V61.2173913L128 94.6086957z"/><path fill="#468bcc" d="M66.7826087 155.826087V61.2173913L128 94.6086957z"/><path d="M152.486957 14.9147826h-48.973914c-.268827 0-.523265.1214514-.692322.3304677l-36.7304352 45.412174c-.1281817.1584792-.1981119.3561381-.1981119.559967v94.6086957l.0015344.052315c.0163129.277723.1618299.533141.394976.688571l36.3339247 24.222676v52.949481c0 .337272.190555.645597.49222.79643l24.486956 12.243478c.250682.125341.545748.125341.79643 0l24.486956-12.243478.042331-.022605c.27705-.157658.449889-.452613.449889-.773825v-52.949704l36.333925-24.222453c.247717-.165145.39651-.443166.39651-.740886V61.2173913c0-.2038289-.06993-.4014878-.198112-.559967l-36.730435-45.412174c-.169057-.2090163-.423495-.3304677-.692322-.3304677zm-.425183 1.7808696 36.265183 44.836953v93.8166538l-36.333925 24.222898-.042678.030296c-.22203.167626-.353832.430384-.353832.71059v52.875799L128 244.987103l-23.596522-11.798261v-52.875799l-.001534-.052315c-.016313-.277722-.16183-.53314-.394976-.688571l-36.3339245-24.222675V61.5323826l36.2649595-44.8367304h48.123771z" fill="#082744"/><g style="fill:#fff"><path d="M80.1391304 86.8173913l28.9391306 8.9043478-28.9391306 11.1304349z"/><path d="M175.86087 86.8173913l-28.939131 8.9043478 28.939131 11.1304349z"/></g></svg>