<svg width="256px" height="142px" viewBox="0 0 256 142" xmlns="http://www.w3.org/2000/svg" preserveAspectRatio="xMidYMid"><title>PostHog</title><path d="M0 112.012238c0-4.752892 5.74647061-7.13334 9.10731886-3.772331l24.45202894 24.452135c3.3608483 3.361009.9805608 9.107266-3.7723317 9.107266H5.33492848C2.38852989 141.799308 0 139.410858 0 136.464374v-24.452136zm0-25.7559932c0 1.4148245.562072622 2.7720316 1.56256477 3.7723317L51.7707846 140.236706c1.0004601 1.0003 2.3574539 1.562602 3.7722783 1.562602h27.5773399c4.7528925 0 7.13334-5.746257 3.7723317-9.107266L9.10731886 54.9065733C5.74647061 51.545565 0 53.9260124 0 58.678905v27.5773398zm0-53.3333866c0 1.4148777.562072622 2.7718715 1.56256477 3.7723317L105.104065 140.236706c1.0003 1.0003 2.357507 1.562602 3.772331 1.562602h27.57734c4.752893 0 7.13334-5.746257 3.772332-9.107266L9.10731886 1.57329328C5.74652396-1.78750162 0 .592732447 0 5.34562498V32.9228582zm53.3333333 0c0 1.4148777.5623021 2.7718715 1.5626021 3.7723317l95.9967986 95.9968521c3.361009 3.361009 9.107266.980561 9.107266-3.772331v-27.57734c0-1.4148248-.562302-2.7720319-1.562602-3.772332L62.4405988 1.57323993c-3.3610083-3.3607949-9.1072655-.980507483-9.1072655 3.77238505V32.9228582zM115.773932 1.57329328c-3.361008-3.36084825-9.107265-.980560833-9.107265 3.7723317V32.9228582c0 1.4148777.562302 2.7718715 1.562602 3.7723317l42.663465 42.663519C154.253743 82.7197172 160 80.3392697 160 75.5863772V48.0090373c0-1.4148244-.562302-2.7720316-1.562602-3.7723317L115.773932 1.57329328z" fill="#f9bd2b"/><path d="M226.866993 112.666301l-50.216131-50.2166648c-3.361008-3.3610083-9.107266-.9805609-9.107266 3.7723317V136.46384c0 2.946484 2.38845 5.334934 5.334934 5.334934h77.786536c2.946484 0 5.334934-2.38845 5.334934-5.334934v-6.396585c0-2.946484-2.398586-5.29919-5.320529-5.679571-8.966424-1.167817-17.353473-5.262912-23.812478-11.721383zm-33.723717 12.06602c-4.710213 0-8.533226-3.823014-8.533226-8.533227 0-4.710746 3.823013-8.53376 8.533226-8.53376 4.710747 0 8.53376 3.823014 8.53376 8.53376 0 4.710213-3.823013 8.533227-8.53376 8.533227z"/><path d="M8.65608667 107.833264l.45123219.406109 24.45208234 24.452136c3.2146733 3.214877 1.1766362 8.6121-3.1661747 9.075346l-.6062104.031919H5.33493381c-2.73594649 0-4.990868958-2.059428-5.2990418276-4.712753L0 136.46384v-24.452135c0-4.546245 5.2576404-6.92186 8.65608667-4.178441zm0-53.3322663.45123219.4061091L53.3333333 99.1331746v42.6666664L1.56256477 90.02911C.728821313 89.195082.199535861 88.1139429.0462669171 86.9579665L0 86.2567783V58.6794385c0-4.5462451 5.2576404-6.9218598 8.65608667-4.1784408zM0 5.34562498C0 .799379948 5.2576404-1.57608838 8.65608667 1.16720334l.45123219.40608994L53.3333333 45.7993078v42.6666666L1.56256477 36.6951899C.728821313 35.8614731.199535861 34.7801635.0462669171 33.6240907L0 32.9228582V5.34562498z" fill="#1d4aff"/><path d="M53.3333867 45.7998412l51.7706783 51.7707313c.834028.8335834 1.363149 1.9150189 1.516356 3.0711065l.046246.701225v40.456937L54.8959354 90.02911c-.8335834-.834028-1.3629644-1.9151671-1.5162696-3.0711435l-.0462791-.7011882V45.7998412zm0 53.3322664 33.5593478 33.5594014c3.2148775 3.214877 1.1767028 8.6121-3.1661204 9.075346l-.6062113.031919H53.3333867V99.1321076zm8.6560251-97.96490426.451187.40608994L105.104065 44.2367056c.834028.8335834 1.363149 1.915019 1.516356 3.0711066l.046246.7012251v40.4569371L54.8959354 36.6951899c-.8335834-.8337168-1.3629644-1.9150264-1.5162696-3.0710992l-.0462791-.7012325V5.34562498c0-4.546245032 5.2578844-6.92171336 8.6560251-4.17842164z" fill="#f54e00"/></svg>