<svg width="256" height="247" xmlns="http://www.w3.org/2000/svg" preserveAspectRatio="xMidYMid"><path fill="#468BCC" d="M16.696 131.34L0 74.573 52.313 0 153.6 131.34z"/><path fill="#4BA8FF" d="M0 74.574L52.313 0 128 23.374l25.6 107.965z"/><path fill="#468BCC" d="M52.313 0L128 23.374 203.687 0 153.6 131.34z"/><path fill="#468BCC" d="M128 23.374L203.687 0 256 74.574l-102.4 56.765z"/><path fill="#4BA8FF" d="M203.687 0L256 74.574l-16.696 56.765H153.6z"/><path fill="#468BCC" d="M256 74.574l-16.696 56.765L128 229.287l25.6-97.948z"/><path fill="#468BCC" d="M239.304 131.34L128 229.286 16.696 131.339H153.6z"/><path fill="#468BCC" d="M128 229.287L16.696 131.339 0 74.574l153.6 56.765z"/><path fill="#468BCC" d="M16.696 131.34L0 74.573l153.6 56.765z"/><path fill="#FFF" d="M77.913 159.165l18.922 12.244-30.052 23.374z"/><path d="M77.063 158.9l-11.13 35.617c-.26.833.708 1.504 1.396.968l30.052-23.373a.89.89 0 00-.062-1.45l-18.922-12.244a.89.89 0 00-1.334.482zm1.35 1.65L95.3 171.474 68.48 192.334l9.932-31.785z" fill="#082744"/><path fill="#FFF" d="M178.087 159.165l-18.922 12.244 30.052 23.374z"/><path d="M177.603 158.418l-18.922 12.243a.89.89 0 00-.062 1.45l30.052 23.374c.688.536 1.656-.135 1.396-.968l-11.13-35.617a.89.89 0 00-1.334-.482zm-.016 2.131l9.932 31.785-26.818-20.859 16.886-10.926z" fill="#082744"/><path fill="#4BA8FF" d="M66.783 61.217l36.73-45.412h48.974L128 94.61z"/><path fill="#468BCC" d="M103.513 15.805h48.974l36.73 45.412L128 94.61z"/><path fill="#166EBF" d="M152.487 15.805l36.73 45.412v94.61L128 94.608z"/><path fill="#0B457F" d="M189.217 61.217v94.61l-36.73 24.486L128 94.609z"/><path fill="#0C3861" d="M189.217 155.826l-36.73 24.487L128 245.983V94.609z"/><path fill="#166EBF" d="M152.487 180.313v53.426L128 245.983l-24.487-65.67L128 94.609z"/><path fill="#4BA8FF" d="M128 245.983l-24.487-12.244v-53.426l-36.73-24.487L128 94.61z"/><path fill="#166EBF" d="M103.513 180.313l-36.73-24.487V61.217L128 94.61z"/><path fill="#468BCC" d="M66.783 155.826V61.217L128 94.61z"/><path d="M152.487 14.915h-48.974a.89.89 0 00-.692.33L66.09 60.657a.89.89 0 00-.199.56v94.61l.002.051a.89.89 0 00.395.689l36.334 24.223v52.95c0 .336.19.645.492.796l24.487 12.243a.89.89 0 00.796 0l24.487-12.243.043-.023a.89.89 0 00.45-.774v-52.95l36.333-24.222a.89.89 0 00.397-.74v-94.61a.89.89 0 00-.198-.56l-36.73-45.412a.89.89 0 00-.693-.33zm-.425 1.78l36.265 44.838v93.816l-36.334 24.223-.043.03a.89.89 0 00-.353.711v52.876L128 244.987l-23.597-11.798v-52.876l-.001-.052a.89.89 0 00-.395-.689L67.673 155.35V61.532l36.265-44.836h48.124z" fill="#082744"/><path fill="#FFF" d="M80.14 86.817l28.938 8.905-28.939 11.13zM175.86 86.817l-28.938 8.905 28.939 11.13z"/></svg>