<svg width="256px" height="256px" viewBox="0 0 256 256" xmlns="http://www.w3.org/2000/svg" preserveAspectRatio="xMidYMid"><path d="M254.953118 144.253071c8.958386-70.1313602-40.568688-134.2478041-110.57207-143.20618942C74.3776647-7.9115038 10.0052669 41.6155696 1.04688158 111.618952-7.9115038 181.622335 41.6155696 245.866756 111.618952 254.953118c70.13136 8.958386 134.247804-40.568688 143.334166-110.700047z" fill="#ff6c37"/><g transform="translate(50.181225 45.198924)"><path d="M124.018448 36.9853339 70.012182 90.9916 54.7829269 75.7623449c53.1104271-53.1104276 58.3574821-48.503258 69.2355211-38.777011h0z" fill="#fff"/><path d="M70.012182 92.2713693c-.3839308 0-.6398846-.1279769-.8958385-.3839308L53.7591114 76.6581834c-.5119077-.5119077-.5119077-1.2797693 0-1.7916771 54.0062666-54.0062661 59.6372516-48.8871887 71.0271986-38.649034.255954.2559539.383931.5119077.383931.8958385 0 .3839308-.127977.6398847-.383931.8958386L70.7800436 91.8874385c-.1279769.2559539-.5119077.3839308-.7678616.3839308zM56.574604 75.7623449l13.437578 13.437578 52.086612-52.0866121c-9.470293-8.4464776-15.86914-11.0060163-65.52419 38.6490341h0z" fill="#ff6c37"/><path d="M85.497391 106.476809 70.7800436 91.7594616 124.78631 37.7531955c14.461393 14.5893705-7.166709 38.2651032-39.288919 68.7236135z" fill="#fff"/><path d="M85.497391 107.756578c-.3839308 0-.6398846-.127977-.8958385-.38393L69.8842051 92.6553001c-.2559539-.2559538-.2559539-.5119077-.2559539-.8958385 0-.3839308.127977-.6398847.3839308-.8958385l54.006266-54.0062661c.511908-.5119078 1.279769-.5119078 1.791677 0 3.3274 3.0714464 5.119078 7.4226621 4.991101 11.9018548-.255954 14.2054397-16.381048 32.2501874-44.2800195 58.6134362-.3839308.255953-.7678616.38393-1.0238155.38393h0zM72.5717207 91.7594616c8.1905238 8.3185004 11.645901 11.6459014 12.9256703 12.9256704 21.500125-20.4763095 42.360365-41.4645267 42.488342-55.9259202.127977-3.3274003-1.151792-6.6548005-3.3274-9.2143392l-52.0866123 52.214589z" fill="#ff6c37"/><path d="M55.0388808 76.1462757 65.9169201 87.024315c.2559539.2559539.2559539.5119078 0 .7678617-.1279769.1279769-.1279769.1279769-.2559538.1279769l-22.5239404 4.8631235c-1.1517924.1279769-2.1756079-.6398847-2.4315617-1.7916771-.127977-.6398847.1279769-1.2797693.5119077-1.6637001l13.0536473-13.0536473c.2559538-.2559539.6398846-.3839308.7678616-.1279769z" fill="#fff"/><path d="M42.7530951 94.0630464c-1.919654 0-3.3274003-1.5357232-3.3274003-3.4553772 0-.8958385.3839308-1.7916771 1.0238155-2.4315617l13.0536473-13.0536473c.7678616-.6398847 1.791677-.6398847 2.5595386 0l10.8780394 10.8780394c.7678616.6398846.7678616 1.7916771 0 2.5595387-.2559539.2559538-.5119077.3839308-.8958385.5119077l-22.5239404 4.8631235c-.2559539 0-.5119077.1279769-.7678616.1279769h0zM54.65495 77.5540219 42.1132104 90.0957615c-.2559538.2559538-.3839308.6398846-.1279769 1.0238154.1279769.3839308.5119077.5119078.8958385.3839308l21.1161941-4.6071696-9.3423161-9.3423162z" fill="#ff6c37"/><path d="M152.557304 7.03873136c-8.190523-7.934569897-21.372148-7.678616029-29.306717.63988467-7.93457 8.31850067-7.678617 21.37214797.639884 29.30671787 6.782778 6.5268236 17.020932 7.678616 25.083479 2.8154925L134.38458 25.211456l18.172724-18.17272464z" fill="#fff"/><path d="M138.223888 44.0240653c-12.157809 0-22.012033-9.854224-22.012033-22.0120327 0-12.15780869 9.854224-22.01203260000002 22.012033-22.01203260000002C143.854873-1.8186616100000003e-14 149.357881 2.17560788 153.453143 6.14289283c.255954.25595386.383931.51190773.383931.89583853 0 .38393081-.127977.63988467-.383931.89583854L136.176257 25.211456l13.565555 13.565555c.511908.5119077.511908 1.2797693 0 1.791677-.127977.127977-.127977.127977-.255954.2559539-3.3274 2.047631-7.294685 3.1994234-11.26197 3.1994234zm0-41.33654969c-10.750063 0-19.452494 8.70243149-19.324517 19.45249399 0 10.7500624 8.702431 19.4524939 19.452494 19.324517 2.943469 0 5.886939-.6398847 8.574454-2.047631l-13.437578-13.3096011c-.255954-.2559539-.383931-.5119077-.383931-.8958385 0-.3839308.127977-.6398847.383931-.8958386L150.63765 7.1667083c-3.455377-2.94346948-7.806593-4.47919269-12.413762-4.47919269h0z" fill="#ff6c37"/><path d="M152.941235 7.42266217l-.255954-.25595387L134.38458 25.211456l14.461393 14.4613935c1.407747-.8958385 2.815493-1.919654 3.967285-3.0714464 8.190524-8.0625468 8.190524-21.1161941.127977-29.17874093h0z" fill="#fff"/><path d="M148.97395 41.0805958c-.383931 0-.639884-.127977-.895838-.3839308l-14.589371-14.5893705c-.255954-.2559539-.383931-.5119077-.383931-.8958385 0-.3839308.127977-.6398847.383931-.8958386l18.172725-18.17272457c.511908-.51190774 1.279769-.51190774 1.791677 0l.383931.25595386c8.574454 8.57445461 8.574454 22.39596341.127977 31.09839491-1.27977 1.2797694-2.687516 2.4315618-4.223239 3.3274003-.383931.1279769-.639885.2559539-.767862.2559539h0zM136.176257 25.211456l12.92567 12.9256703c1.023816-.6398847 2.047631-1.5357232 2.815493-2.3035848 7.294685-7.2946852 7.678616-19.1965401.639884-26.87515613L136.176257 25.211456z" fill="#ff6c37"/><path d="M126.194056 39.2889187c-3.071446-3.0714464-8.062547-3.0714464-11.133993 0L66.8127587 87.5362228l8.0625468 8.0625468 51.0627965-44.7919268c3.3274-2.8154926 3.583354-7.806593.767862-11.1339933-.255954-.1279769-.383931-.2559539-.511908-.3839308h0z" fill="#fff"/><path d="M74.7473286 96.878539c-.3839308 0-.6398847-.127977-.8958386-.3839308l-8.0625468-8.0625469c-.5119077-.5119077-.5119077-1.2797693 0-1.7916771l48.2473038-48.247304c3.583354-3.5833542 9.342316-3.5833542 12.925671 0 3.583354 3.5833541 3.583354 9.3423161 0 12.9256703-.127977.1279769-.255954.2559539-.383931.3839308L75.5151902 96.4946082c-.1279769.2559538-.3839308.3839308-.7678616.3839308h0zm-6.1428928-9.3423162 6.2708697 6.2708697 50.1669585-44.0240652c2.815492-2.3035848 3.071446-6.5268236.767861-9.3423162-2.303585-2.8154925-6.526823-3.0714464-9.342316-.7678616-.127977.1279769-.255954.2559539-.511908.3839308L68.6044358 87.5362228z" fill="#ff6c37"/><path d="M29.8274248 142.438327c-.5119077.255954-.7678616.767862-.6398847 1.27977l2.1756079 9.214339c.5119077 1.279769-.2559539 2.815493-1.6637001 3.199423-1.0238155.383931-2.1756079 0-2.8154926-.767861l-14.0774627-13.949486 45.9437192-45.9437193 15.8691398.2559539 10.7500625 10.7500624c-2.5595387 2.175608-18.0447477 17.148909-55.5419893 35.961518h0z" fill="#fff"/><path d="M28.8036093 157.411629c-1.0238155 0-2.0476309-.383931-2.6875156-1.151793L12.1666079 142.31035c-.2559539-.255953-.3839308-.511907-.3839308-.895838 0-.383931.1279769-.639885.3839308-.895839l45.9437193-45.9437189c.2559538-.2559538.6398846-.3839308.8958385-.3839308l15.8691398.2559539c.3839308 0 .6398847.1279769.8958386.3839308l10.7500624 10.750062c.2559539.255954.3839308.639885.3839308 1.023816 0 .383931-.1279769.639885-.5119077.895838l-.8958386.767862c-13.565555 11.901855-31.9942334 23.80371-54.9021046 35.193657l2.1756079 9.086362c.3839308 1.6637-.3839308 3.455377-1.919654 4.351216-.7678616.383931-1.4077463.511908-2.047631.511908zm-14.0774627-15.997117 13.1816242 13.053647c.3839308.639885 1.1517924.895839 1.7916771.511908.6398846-.383931.8958385-1.151792.5119077-1.791677l-2.1756079-9.214339c-.2559539-1.151793.2559539-2.175608 1.2797694-2.687516 22.6519172-11.389947 40.9526188-23.163825 54.3901969-34.809726l-9.4702932-9.4702931-14.7173474-.2559539-44.7919268 44.66395z" fill="#ff6c37"/><path d="M1.9284532 152.420528l11.0060163-11.006016 16.3810476 16.381047-26.10729456-1.791677c-1.15179241-.127977-1.91965401-1.151792-1.79167708-2.303584 0-.511908.12797694-1.023816.51190774-1.27977h0z" fill="#fff"/><g style="fill:#ff6c37"><path d="M29.3155171 158.947352l-26.2352715-1.791677c-1.91965401-.127977-3.199423345-1.791677-3.07144641155-3.711331.12797693355-.767862.38393080155-1.535723 1.02381547155-2.047631L12.038631 140.390696c.5119077-.511907 1.2797693-.511907 1.791677 0l16.3810476 16.381048c.3839308.383931.5119077.895839.2559539 1.407746-.2559539.511908-.6398847.767862-1.1517924.767862h0zm-16.3810476-15.741163-10.11017777 10.110178c-.3839308.255954-.3839308.895838 0 1.151792.12797694.127977.25595387.255954.51190774.255954l22.65191733 1.535723-13.0536473-13.053647z"/><path d="M54.2710192 101.357732c-.7678616 0-1.2797694-.639885-1.2797694-1.27977 0-.3839305.127977-.6398844.3839308-.8958382l12.4137626-12.4137626c.5119077-.5119078 1.2797693-.5119078 1.7916771 0l8.0625468 8.0625468c.3839308.3839308.5119078.7678616.3839308 1.2797694-.1279769.3839308-.5119077.7678616-1.0238154.8958385L54.526973 101.357732c-.1279769 0-.2559538 0-.2559538 0h0zm12.4137625-11.9018552-8.4464776 8.4464776 13.8215089-2.9434695-5.3750313-5.5030081z"/></g><path d="M74.6193516 95.7267466 60.5418889 98.798193c-1.0238155.2559538-2.0476309-.3839308-2.3035848-1.4077463-.1279769-.6398847 0-1.2797693.5119077-1.7916771l7.806593-7.8065929 8.0625468 7.9345699z" fill="#fff"/><g style="fill:#ff6c37"><path d="M60.2859351 100.077962c-1.7916771 0-3.1994234-1.407746-3.1994234-3.199423 0-.8958386.3839308-1.6637002.8958385-2.3035849l7.806593-7.8065929c.5119077-.5119078 1.2797693-.5119078 1.7916771 0l8.0625468 8.0625468c.3839308.3839308.5119078.7678616.3839308 1.2797694-.1279769.3839308-.5119077.7678616-1.0238154.8958385l-14.0774628 3.0714461c-.2559538 0-.5119077 0-.6398846 0h0zm6.3988466-10.6220852-6.9107544 6.9107544c-.2559539.2559539-.2559539.5119078-.1279769.7678616.1279769.2559539.3839308.3839308.7678616.3839308l11.7738779-2.5595387-5.5030082-5.5030081z"/><path d="M153.069212 19.7084478c-.255954-.7678616-1.151792-1.1517924-1.919654-.8958385-.767861.2559539-1.151792 1.1517924-.895838 1.919654 0 .1279769.127977.2559539.127977.3839308.767861 1.5357232.511907 3.4553772-.511908 4.8631235-.511908.6398847-.383931 1.5357232.127977 2.0476309.639884.5119078 1.535723.3839308 2.047631-.2559538 1.919654-2.4315618 2.303584-5.5030082 1.023815-8.0625469h0z"/></g></g></svg>