<svg width="256px" height="330px" viewBox="0 0 256 330" xmlns="http://www.w3.org/2000/svg" preserveAspectRatio="xMidYMid"><g fill-opacity="0.9"><path d="M18.7517656 0 0 91.4585788l53.7815678 50.7433262-34.9425934 62.288644 71.1014212 125.186814h77.7846154l71.406183-125.186814-35.24548-62.288644 51.959561-50.7433262L238.739223 0l-73.140044 97.4094066H92.3719267L18.7517656 0z" fill="#6ccb94"/><path d="M18.8389744 204.490549 53.78063 142.201905l75.044571 62.289582-109.9862266-9.38e-4z" fill="#5dbd85"/><path d="M53.7815678 142.202842l75.0445712 62.289583-36.45515-107.0811429-38.5894212 44.7915599z" fill="#64c48c"/><path d="M239.130256 204.490549l-35.246417-62.288644-75.055824 62.289582 110.302241-9.38e-4z" fill="#6ecc95"/><path d="M89.9394579 329.677363h77.7846151l-38.896996-125.186814-38.8876191 125.186814z" fill="#5ebe86"/><path d="M203.883839 142.202842l-75.055824 62.289583 36.771164-107.0811429 38.28466 44.7915599z" fill="#76d29c"/><path d="M238.739223 0l17.102301 91.4595165-51.957685 50.7433255-38.285597-44.7924977L238.739223 0z" fill="#74d09b"/><path d="M128.825201 204.490549l38.89981 125.186814 71.405245-125.186814H128.825201z" fill="#64c48c"/><path d="M128.825201 204.490549 89.9282051 329.677363 18.8389744 204.490549H128.825201z" fill="#58b880"/><path d="M18.7517656 0 0 91.4604542 53.7815678 142.20378 92.370989 97.4112821 18.7517656 0z" fill="#5fbf87"/><path d="M128.825201 204.490549l36.773041-107.0792669H92.370989l36.454212 107.0792669z" fill="#6ecc95"/></g></svg>