<svg width="256px" height="296px" viewBox="0 0 256 296" xmlns="http://www.w3.org/2000/svg" preserveAspectRatio="xMidYMid"><path fill="#673ab8" d="M128 0l128 73.8999491V221.699847l-128 73.899949L0 221.699847V73.8999491z"/><g style="fill:#fff"><path d="M34.8647584 220.478469c17.0166678 21.780341 71.0949426 5.184496 122.1501096-34.704172 51.055167-39.888669 80.240764-88.345689 63.224096-110.1260306-17.016668-21.7803415-71.094942-5.1844963-122.1501097 34.7041726-51.0551674 39.888668-80.2407637 88.345688-63.2240959 110.12603zm7.2695767-5.679616c-5.6434726-7.223316-3.1777628-21.402972 7.5738562-39.253949 11.3215435-18.797227 30.540901-39.547537 54.0602787-57.922889 23.519378-18.3753516 48.302898-32.0038577 69.280696-38.4416423 19.921779-6.1137077 34.276749-5.075806 39.920221 2.1475095 5.643473 7.2233155 3.177763 21.4029718-7.573856 39.2539498-11.321544 18.797226-30.540901 39.547536-54.060279 57.922888-23.519378 18.375352-48.302898 32.003858-69.280696 38.441642-19.9217791 6.113708-34.2767483 5.075806-39.9202209-2.147509z"/><path d="M220.238964 220.478469c17.016668-21.780342-12.168929-70.237362-63.224096-110.12603C105.959701 70.4637701 51.8814262 53.8679249 34.8647584 75.6482664 17.8480906 97.428608 47.0336869 145.885628 98.0888543 185.774297c51.0551677 39.888668 105.1334417 56.484513 122.1501097 34.704172zm-7.269577-5.679616c-5.643472 7.223315-19.998442 8.261217-39.920221 2.147509-20.977798-6.437784-45.761318-20.06629-69.280696-38.441642-23.5193777-18.375352-42.7387352-39.125662-54.0602787-57.922888-10.751619-17.850978-13.2173288-32.0306343-7.5738562-39.2539498 5.6434726-7.2233155 19.9984418-8.2612172 39.9202209-2.1475095 20.977798 6.4377846 45.761318 20.0662907 69.280696 38.4416423 23.519378 18.375352 42.738735 39.125662 54.060279 57.922889 10.751619 17.850977 13.217329 32.030633 7.573856 39.253949z"/><path d="M127.551861 167.666971c10.826771 0 19.603604-8.776832 19.603604-19.603603 0-10.826772-8.776833-19.603604-19.603604-19.603604-10.826771 0-19.603604 8.776832-19.603604 19.603604 0 10.826771 8.776833 19.603603 19.603604 19.603603h0z"/></g></svg>