<svg width="256px" height="192px" viewBox="0 0 256 192" xmlns="http://www.w3.org/2000/svg" preserveAspectRatio="xMidYMid"><title>prerender</title><path d="M64 0v64h32c17.672889 0 32-14.3271111 32-32V0H64z" fill="#f0da50"/><path d="M32 0C14.3271111 0 0 14.3271111 0 32v128c0 17.672889 14.3271111 32 32 32h32V0H32z" fill="#4bc69a"/><path d="M160 128c-17.672889 0-32 14.327111-32 32v32h64v-64h-32z" fill="#f0da50"/><path d="M224 0h-32v192h32c17.672889 0 32-14.327111 32-32V32c0-17.6728889-14.327111-32-32-32z" fill="#5d7b8c"/></svg>