<svg width="256" height="220" xmlns="http://www.w3.org/2000/svg" preserveAspectRatio="xMidYMid"><path d="M150.163 20.369c4.66-4.66 4.66-12.215 0-16.874-4.66-4.66-12.214-4.66-16.874 0-4.66 4.66-4.66 12.214 0 16.874 4.66 4.66 12.214 4.66 16.874 0zM183.9 54.105c5.178-5.177 5.178-13.57 0-18.747-5.176-5.177-13.57-5.177-18.747 0-5.177 5.176-5.177 13.57 0 18.747s13.57 5.177 18.748 0zM217.633 87.848c5.694-5.694 5.694-14.925 0-20.618-5.693-5.694-14.924-5.694-20.618 0-5.693 5.693-5.693 14.924 0 20.618 5.694 5.693 14.925 5.693 20.618 0zM251.342 121.549c6.21-6.21 6.21-16.28 0-22.492-6.211-6.21-16.281-6.21-22.492 0-6.21 6.211-6.21 16.281 0 22.492 6.211 6.21 16.28 6.21 22.492 0z" fill="#5D88D6"/><path d="M83.66 19.432c4.142-4.142 4.142-10.86 0-15.002C79.515.287 72.8.287 68.655 4.43c-4.142 4.142-4.142 10.86 0 15.002 4.143 4.143 10.86 4.143 15.003 0zM117.393 53.168c4.66-4.66 4.66-12.215 0-16.874-4.66-4.66-12.214-4.66-16.873 0-4.66 4.66-4.66 12.214 0 16.874 4.66 4.66 12.214 4.66 16.873 0zM151.102 86.876c5.177-5.177 5.177-13.57 0-18.747s-13.57-5.177-18.747 0-5.177 13.57 0 18.747c5.176 5.177 13.57 5.177 18.747 0zM184.823 120.594c5.694-5.693 5.694-14.924 0-20.618-5.694-5.694-14.925-5.694-20.618 0-5.694 5.694-5.694 14.925 0 20.618 5.693 5.694 14.924 5.694 20.618 0zM218.57 154.355c6.21-6.21 6.21-16.28 0-22.492-6.211-6.21-16.281-6.21-22.492 0-6.211 6.211-6.211 16.281 0 22.492 6.21 6.211 16.28 6.211 22.491 0z" fill="#32DBFC"/><path d="M17.19 18.531A9.284 9.284 0 104.06 5.402a9.284 9.284 0 0013.13 13.13zM50.878 52.217c4.143-4.143 4.143-10.86 0-15.003-4.143-4.143-10.86-4.143-15.003 0-4.143 4.143-4.143 10.86 0 15.003 4.143 4.143 10.86 4.143 15.003 0zM84.627 85.974c4.66-4.66 4.66-12.214 0-16.874-4.66-4.66-12.214-4.66-16.874 0-4.66 4.66-4.66 12.214 0 16.874 4.66 4.66 12.215 4.66 16.874 0zM118.348 119.694c5.177-5.177 5.177-13.57 0-18.747s-13.57-5.177-18.748 0c-5.177 5.176-5.177 13.57 0 18.747s13.57 5.177 18.748 0zM152.065 153.421c5.694-5.694 5.694-14.925 0-20.618-5.694-5.694-14.925-5.694-20.618 0-5.694 5.693-5.694 14.924 0 20.618 5.693 5.694 14.924 5.694 20.618 0zM185.765 187.099c6.211-6.211 6.211-16.281 0-22.492-6.21-6.21-16.28-6.21-22.491 0-6.211 6.211-6.211 16.28 0 22.492 6.21 6.21 16.28 6.21 22.491 0z"/><path d="M83.664 150.562c4.143-4.143 4.143-10.86 0-15.003-4.143-4.143-10.86-4.143-15.003 0-4.143 4.143-4.143 10.86 0 15.003 4.143 4.143 10.86 4.143 15.003 0z" fill="#5D88D6"/><circle fill="#5D88D6" cx="43.382" cy="175.845" r="10.609"/><circle fill="#5D88D6" cx="10.609" cy="208.651" r="10.609"/><circle fill="#5D88D6" cx="76.166" cy="208.633" r="10.609"/><path d="M149.244 216.157c4.143-4.142 4.143-10.86 0-15.002-4.143-4.143-10.86-4.143-15.003 0-4.143 4.142-4.143 10.86 0 15.002 4.143 4.143 10.86 4.143 15.003 0zM116.447 183.343c4.143-4.143 4.143-10.86 0-15.003-4.143-4.143-10.86-4.143-15.003 0-4.143 4.143-4.143 10.86 0 15.003 4.143 4.143 10.86 4.143 15.003 0z" fill="#5D88D6"/></svg>