<svg width="256px" height="330px" viewBox="0 0 256 330" xmlns="http://www.w3.org/2000/svg" preserveAspectRatio="xMidYMid"><title>Prestashop</title><path d="M88.4030736 6.59015658e-4C145.077585.0477739172 256 2.96462687 256 115.186202c0 113.355126-104.422696 120.998409-169.2975608 120.998409v93.700468H0V0zM152.753543 161.11892H85.7650077l5.782727 22.066437h61.2058083c6.093478 0 11.033219-4.93974 11.033219-11.033218 0-6.093479-4.939741-11.033219-11.033219-11.033219zm16.543243-27.032361h-29.561084l5.782727 22.066437h23.778357c6.093479 0 11.033219-4.93974 11.033219-11.033219 0-6.093478-4.93974-11.033218-11.033219-11.033218zm-17.611744-27.032361H84.6965068l5.782727 22.066437h61.2058082c6.093478 0 11.033219-4.93974 11.033219-11.033219 0-6.093478-4.939741-11.033218-11.033219-11.033218zM96.6971348 80.0218364h-22.020292l-7.025867 22.0664376h29.046159c6.0934782 0 11.0332192-4.9397402 11.0332192-11.0332187 0-6.0934785-4.939741-11.0332189-11.0332192-11.0332189zm57.1249092-27.0323611H91.7223738l-7.025867 22.0664377h69.1255372c6.093478 0 11.033219-4.9397403 11.033219-11.0332188 0-6.0934786-4.939741-11.0332189-11.033219-11.0332189z"/></svg>