<svg width="256px" height="220px" viewBox="0 0 256 220" xmlns="http://www.w3.org/2000/svg" preserveAspectRatio="xMidYMid"><title>Presto</title><g style="fill:#5d88d6"><path d="M150.162811 20.3685668c4.659592-4.6595914 4.659592-12.21428181 0-16.87387323-4.659591-4.65959143-12.214282-4.65959143-16.873873 0-4.659591 4.65959142-4.659591 12.21428183 0 16.87387323 4.659591 4.6595914 12.214282 4.6595914 16.873873 0z"/><path d="M183.900597 54.1049022c5.176936-5.1769359 5.176936-13.5704074 0-18.7473434-5.176936-5.1769359-13.570407-5.1769359-18.747343 0-5.176936 5.176936-5.176936 13.5704075 0 18.7473434 5.176936 5.176936 13.570407 5.176936 18.747343 0z"/><path d="M217.633416 87.8478652c5.693583-5.6935823 5.693583-14.9247031 0-20.6182853-5.693582-5.6935823-14.924703-5.6935823-20.618285 0-5.693582 5.6935822-5.693582 14.924703 0 20.6182853 5.693582 5.6935822 14.924703 5.6935822 20.618285 0z"/><path d="M251.341805 121.548984c6.210927-6.210927 6.210927-16.280829 0-22.4917554-6.210927-6.2109267-16.280829-6.2109267-22.491756 0-6.210926 6.2109264-6.210926 16.2808284 0 22.4917554 6.210927 6.210927 16.280829 6.210927 22.491756 0z"/></g><g style="fill:#32dbfc"><path d="M83.6594047 19.4324598c4.1429451-4.1429451 4.1429451-10.85998621 0-15.00293129-4.1429451-4.142945089-10.8599862-4.142945089-15.0029313 0-4.1429451 4.14294508-4.1429451 10.85998619 0 15.00293129 4.1429451 4.1429451 10.8599862 4.1429451 15.0029313 0z"/><path d="M117.393398 53.1675311c4.659592-4.6595914 4.659592-12.2142818 0-16.8738732-4.659591-4.6595914-12.214282-4.6595914-16.873873 0-4.6595913 4.6595914-4.6595913 12.2142818 0 16.8738732 4.659591 4.6595915 12.214282 4.6595915 16.873873 0z"/><path d="M151.101877 86.8760181c5.176935-5.1769359 5.176935-13.5704075 0-18.7473434-5.176936-5.176936-13.570408-5.176936-18.747344 0-5.176936 5.1769359-5.176936 13.5704075 0 18.7473434 5.176936 5.1769359 13.570408 5.1769359 18.747344 0z"/><path d="M184.822959 120.594222c5.693582-5.693583 5.693582-14.924703 0-20.6182856-5.693582-5.6935823-14.924703-5.6935823-20.618285 0-5.693582 5.6935826-5.693582 14.9247026 0 20.6182856 5.693582 5.693582 14.924703 5.693582 20.618285 0z"/><path d="M218.56943 154.3551c6.210927-6.210927 6.210927-16.280829 0-22.491756-6.210927-6.210927-16.280829-6.210927-22.491756 0-6.210926 6.210927-6.210926 16.280829 0 22.491756 6.210927 6.210926 16.280829 6.210926 22.491756 0z"/></g><path d="M17.189495 18.5314796c3.6256006-3.6256006 3.6256006-9.5038606 0-13.12946118-3.6256006-3.62560058-9.50386054-3.62560058-13.12946112 0-3.625600578 3.62560058-3.625600578 9.50386058 0 13.12946118 3.62560058 3.6256005 9.50386052 3.6256005 13.12946112 0z"/><path d="M50.878128 52.2170848c4.1429451-4.1429451 4.1429451-10.8599863 0-15.0029314-4.142945-4.1429451-10.8599862-4.1429451-15.0029313 0-4.1429451 4.1429451-4.1429451 10.8599863 0 15.0029314 4.1429451 4.142945 10.8599863 4.142945 15.0029313 0z"/><path d="M84.6271272 85.9740804c4.6595914-4.6595914 4.6595914-12.2142818 0-16.8738732-4.6595915-4.6595914-12.2142818-4.6595914-16.8738733 0-4.6595914 4.6595914-4.6595914 12.2142818 0 16.8738732 4.6595915 4.6595914 12.2142818 4.6595914 16.8738733 0z"/><path d="M118.347686 119.693855c5.176936-5.176936 5.176936-13.570408 0-18.747344-5.176936-5.1769355-13.570407-5.1769355-18.7473433 0-5.176936 5.176936-5.176936 13.570408 0 18.747344 5.1769363 5.176936 13.5704073 5.176936 18.7473433 0z"/><path d="M152.065066 153.420997c5.693582-5.693582 5.693582-14.924703 0-20.618285-5.693582-5.693582-14.924703-5.693582-20.618285 0-5.693583 5.693582-5.693583 14.924703 0 20.618285 5.693582 5.693583 14.924703 5.693583 20.618285 0z"/><path d="M185.765293 187.098838c6.210927-6.210927 6.210927-16.280829 0-22.491756-6.210926-6.210926-16.280828-6.210926-22.491755 0-6.210927 6.210927-6.210927 16.280829 0 22.491756 6.210927 6.210927 16.280829 6.210927 22.491755 0z"/><g style="fill:#5d88d6"><path d="M83.6637898 150.562258c4.1429451-4.142945 4.1429451-10.859986 0-15.002931-4.1429451-4.142945-10.8599862-4.142945-15.0029313 0-4.1429451 4.142945-4.1429451 10.859986 0 15.002931 4.1429451 4.142945 10.8599862 4.142945 15.0029313 0z"/><circle cx="43.3822202" cy="175.844839" r="10.6086745"/><circle cx="10.6086745" cy="208.650564" r="10.6086745"/><circle cx="76.1664927" cy="208.632687" r="10.6086745"/><path d="M149.243602 216.157463c4.142945-4.142945 4.142945-10.859987 0-15.002932-4.142945-4.142945-10.859986-4.142945-15.002931 0-4.142945 4.142945-4.142945 10.859987 0 15.002932 4.142945 4.142945 10.859986 4.142945 15.002931 0z"/><path d="M116.446627 183.342794c4.142945-4.142945 4.142945-10.859986 0-15.002931-4.142945-4.142945-10.859986-4.142945-15.002931 0-4.1429455 4.142945-4.1429455 10.859986 0 15.002931 4.142945 4.142946 10.859986 4.142946 15.002931 0z"/></g></svg>