<svg width="256px" height="256px" viewBox="0 0 256 256" xmlns="http://www.w3.org/2000/svg" preserveAspectRatio="xMidYMid"><rect fill="#56b3b4" x="182.857143" y="48.7619048" width="24.3809524" height="12.1904762" rx="5"/><rect fill="#ea5e5e" y="243.809524" width="73.1428571" height="12.1904762" rx="5"/><rect fill="#bf85bf" x="146.285714" y="146.285714" width="48.7619048" height="12.1904762" rx="5"/><rect fill="#ea5e5e" x="73.1428571" y="146.285714" width="60.952381" height="12.1904762" rx="5"/><rect fill="#56b3b4" y="146.285714" width="60.952381" height="12.1904762" rx="5"/><g style="fill:#bf85bf"><rect y="195.047619" width="73.1428571" height="12.1904762" rx="5"/><rect y="97.5238095" width="73.1428571" height="12.1904762" rx="5"/></g><rect fill="#f7ba3e" x="60.952381" y="24.3809524" width="134.095238" height="12.1904762" rx="5"/><rect fill="#ea5e5e" y="24.3809524" width="48.7619048" height="12.1904762" rx="5"/><rect fill="#f7ba3e" x="48.7619048" y="219.428571" width="24.3809524" height="12.1904762" rx="5"/><g style="fill:#56b3b4"><rect x="48.7619048" y="73.1428571" width="24.3809524" height="12.1904762" rx="5"/><rect y="219.428571" width="36.5714286" height="12.1904762" rx="5"/></g><rect fill="#f7ba3e" y="73.1428571" width="36.5714286" height="12.1904762" rx="5"/><g style="fill:#d0d4d8"><rect opacity="0.5" x="158.47619" y="219.428571" width="24.3809524" height="12.1904762" rx="5"/><rect opacity="0.5" x="85.3333333" y="219.428571" width="60.952381" height="12.1904762" rx="5"/><rect opacity="0.5" x="195.047619" y="219.428571" width="60.952381" height="12.1904762" rx="5"/></g><rect fill="#56b3b4" x="97.5238095" y="121.904762" width="109.714286" height="12.1904762" rx="5"/><rect fill="#f7ba3e" x="36.5714286" y="121.904762" width="48.7619048" height="12.1904762" rx="5"/><rect fill="#ea5e5e" y="121.904762" width="24.3809524" height="12.1904762" rx="5"/><rect fill="#bf85bf" x="109.714286" y="48.7619048" width="60.952381" height="12.1904762" rx="5"/><rect fill="#56b3b4" y="48.7619048" width="97.5238095" height="12.1904762" rx="5"/><rect fill="#f7ba3e" x="36.5714286" y="170.666667" width="121.904762" height="12.1904762" rx="5"/><rect fill="#bf85bf" y="170.666667" width="24.3809524" height="12.1904762" rx="5"/><rect fill="#ea5e5e" x="146.285714" y="73.1428571" width="73.1428571" height="12.1904762" rx="5"/><rect fill="#f7ba3e" x="146.285714" y="97.5238095" width="73.1428571" height="12.1904762" rx="5"/><rect fill="#56b3b4" width="158.47619" height="12.1904762" rx="5"/><g style="fill:#d0d4d8"><rect opacity="0.5" x="170.666667" width="85.3333333" height="12.1904762" rx="5"/><rect opacity="0.5" x="170.666667" y="170.666667" width="36.5714286" height="12.1904762" rx="5"/><rect opacity="0.5" x="219.428571" y="170.666667" width="36.5714286" height="12.1904762" rx="5"/><rect opacity="0.5" x="207.238095" y="146.285714" width="48.7619048" height="12.1904762" rx="5"/><rect opacity="0.5" x="207.238095" y="24.3809524" width="48.7619048" height="12.1904762" rx="5"/><rect opacity="0.5" x="219.428571" y="121.904762" width="36.5714286" height="12.1904762" rx="5"/><rect opacity="0.5" x="219.428571" y="48.7619048" width="36.5714286" height="12.1904762" rx="5"/><rect opacity="0.5" x="231.619048" y="73.1428571" width="24.3809524" height="12.1904762" rx="5"/><rect opacity="0.5" x="231.619048" y="97.5238095" width="24.3809524" height="12.1904762" rx="5"/><rect opacity="0.5" x="134.095238" y="195.047619" width="121.904762" height="12.1904762" rx="5"/><rect opacity="0.5" x="85.3333333" y="195.047619" width="36.5714286" height="12.1904762" rx="5"/><rect opacity="0.5" x="182.857143" y="243.809524" width="73.1428571" height="12.1904762" rx="5"/><rect opacity="0.5" x="85.3333333" y="243.809524" width="85.3333333" height="12.1904762" rx="5"/><rect opacity="0.5" x="85.3333333" y="73.1428571" width="48.7619048" height="12.1904762" rx="5"/><rect opacity="0.5" x="85.3333333" y="97.5238095" width="48.7619048" height="12.1904762" rx="5"/></g></svg>