<svg width="256px" height="256px" viewBox="0 0 256 256" xmlns="http://www.w3.org/2000/svg"><title>Group</title><g fill="none" fill-rule="evenodd"><path d="M222.776889 8.54755556C233.065479 14.0093584 241.474435 22.4381347 246.912 32.7395556c5.568 10.432 8.533333 20.7786666 8.533333 49.3013333v50.0977781c0 .646702-.390389 1.229473-.987896 1.476879-.597507.247405-1.285198.110791-1.74277-.346213v-.007111l-18.88-18.915555c-1.499192-1.502201-2.34068-3.538139-2.339556-5.660445V85.5324444c0-21.3973333-2.225778-29.1555555-6.4-36.9777777-4.079778-7.7251976-10.38771-14.0455175-18.104889-18.1404445-7.718774-4.1443555-15.381851-6.3671463-36.222817-6.4134826L139.555556 24c-.64541-.0034274-1.225562-.394297-1.471148-.9911654-.245587-.5968684-.108513-1.2828469.347592-1.7395013l18.88-18.92266663c1.493333-1.500444448 3.527111-2.34666666999993 5.646222-2.34666666999993h10.616889c28.465778 0 38.791111 2.972444439999929 49.201778 8.547555559999928zM183.601778 40c17.635555 0 31.928889 14.3288889 31.928889 32v20.2595556c-.0031.6383237-.385319 1.2137306-.972516 1.4640622-.587198.2503315-1.267009.1282067-1.729707-.3120622l-25.742222-24.6613334c-1.706666-1.7066666-3.697778-2.944-5.824-3.7191111C179.458277 64.3477535 177.545039 63.9983586 175.616 64H99.6266667c-.6467022-5.688e-4-1.2294736-.3903894-1.4768789-.9878965-.2474053-.5975071-.1107911-1.2851983.3462122-1.7427702l18.908444-18.9297777C118.897778 40.8462222 120.924444 40 123.043556 40h60.558222z" fill="#e55638"/><path d="M234.218667 138.737778l18.887111 18.922666c1.493333 1.500445 2.339555 3.541334 2.339555 5.660445v10.645333c0 28.522667-2.965333 38.869334-8.533333 49.301334-5.437565 10.30142-13.846521 18.730197-24.135111 24.192-10.410667 5.568-20.736 8.540444-49.201778 8.540444h-49.984c-.645409-.003427-1.225561-.394297-1.471148-.991165-.245586-.596869-.108512-1.282847.347593-1.739502v.007111l18.88-18.922666c1.493333-1.500445 3.527111-2.346667 5.646222-2.346667h23.104c21.347555 0 29.084444-2.225778 36.892444-6.414222 7.717179-4.094927 14.025111-10.415247 18.104889-18.140445 4.174222-7.822222 6.4-15.580444 6.4-36.977777v-30.606223c.003397-.643596.392093-1.222508.986511-1.469277.594419-.246768 1.278834-.113352 1.737045.338611zm-39.907556-40.0071113 18.887111 18.9440003c1.493334 1.500444 2.332445 3.534222 2.332445 5.660444v60.686222c0 17.671111-14.293334 32-31.928889 32h-20.216889c-.638324-.003099-1.213731-.385318-1.464062-.972516-.250332-.587197-.128207-1.267008.312062-1.729706V213.312l24.604444-25.806222c1.706667-1.706667 2.944-3.697778 3.719111-5.831111.679645-1.807223 1.02657-3.72254 1.024-5.653334V99.8613333c5.69e-4-.6467022.39039-1.2294736.987897-1.4768788.597507-.2474053 1.285198-.1107911 1.74277.3462122z" fill="#f4c942"/><path d="M2.72355556 122.730667l18.89422224 18.922666c1.4933333 1.500445 2.3395555 3.541334 2.3395555 5.660445v23.153778c0 21.397333 2.2186667 29.155555 6.4 36.977777 4.0778906 7.724169 10.3832331 14.044377 18.0977778 18.140445 7.808 4.188444 15.552 6.414222 36.8995556 6.414222h30.5351113c.647997-.002314 1.233405.38645 1.482636.984605.249231.598155.113066 1.287575-.344858 1.746062l-18.8942227 18.922666C96.64 255.153778 94.6062222 256 92.4942222 256h-10.624c-28.4657778 0-38.784-2.972444-49.1946666-8.547556-10.2912243-5.460661-18.7027694-13.88955-24.14222227-24.192-5.51232-10.32768-8.4737663967-20.571724-8.532444092667-48.451087L0 123.861333c.00339658045-.643596.392093147-1.222508.986511347-1.469277.594418203-.246769 1.278833153-.113352 1.737044213.338611zm39.89333334 39.857777h-.0071111l25.7564444 24.661334c1.6995556 1.706666 3.6977778 2.944 5.8168889 3.719111C75.9324444 191.637333 77.8382222 192 79.8293333 192h75.9893337c.645409.003427 1.225561.394297 1.471148.991165.245586.596869.108512 1.282847-.347593 1.739502l-18.901333 18.929777C136.547556 215.153778 134.513778 216 132.401778 216H71.8435556c-8.4774994-.009425-16.604038-3.38614-22.5918673-9.387305C43.263859 200.61153 39.9052315 192.477499 39.9146468 184v-20.259556c.0031194-.638323.3853386-1.21373.972536-1.464062.5871975-.250331 1.267008-.128207 1.7297061.312062z" fill="#7b8fea"/><path d="M92.0604444 40c.6383237.0030996 1.2137307.3853187 1.4640623.9725162.2503315.5871974.1282067 1.267008-.3120623 1.729706L68.6008889 68.5155556c-1.7066667 1.7066666-2.9368889 3.6977777-3.712 5.8311111-.682071 1.8067728-1.031408 3.7221034-1.0311111 5.6533333v76.16c-.0062238.642305-.3959613 1.218623-.9897542 1.463582-.5937929.244959-1.2765154.111066-1.7338014-.340026l-18.8871111-18.944c-1.4948445-1.501618-2.3335724-3.53451-2.3324456-5.653334V72c0-17.6711111 14.2933345-32 31.9288901-32h20.2168888zM131.854222 0c.645409.00342737526 1.225562.394296954 1.471148.991165377.245587.596868423.108512 1.282846923-.347592 1.739501293l-18.88 18.92266663C112.597333 23.1537778 110.570667 24 108.451556 24H85.3475556C64 24 56.256 26.2257778 48.448 30.4142222c-7.7171784 4.094927-14.0251104 10.4152469-18.1048889 18.1404445-4.130283 7.739883-6.3529256 15.4171063-6.3992604 36.3065903l-7.396e-4 31.27741c-.0033966.643596-.3920931 1.222508-.9865113 1.469277-.5944182.246769-1.2788332.113352-1.7370442-.338611L2.34666667 98.3466667C.844866986 96.8456299 1.42108547e-14 94.8095482 1.42108547e-14 92.6862222V82.0408889C1.42108547e-14 53.5182222 2.96533333 43.1715556 8.53333333 32.7395556 13.9708984 22.4381347 22.3798539 14.0093584 32.6684444 8.54755556c10.30656-5.51936 20.5294848-8.4878464044 48.3463285-8.546664196444L131.854222 0z" fill="#d97ee8"/></g></svg>