<svg width="256px" height="238px" viewBox="0 0 256 238" xmlns="http://www.w3.org/2000/svg" preserveAspectRatio="xMidYMid"><title>Processing</title><path d="M140.871732 0c34.660457 0 64.17401 11.4774928 85.111645 32.4151282C245.464178 51.8959284 256 78.2354843 256 105.534246c0 27.298762-10.535822 53.638318-30.016623 73.119118-20.728259 20.728259-49.861774 32.184632-84.073379 32.411687l-1.038266.003441v-57.564134c19.819884 0 34.60081-5.748138 44.407656-15.554984 8.501765-8.501765 13.156478-20.138547 13.156478-32.415128 0-12.2765807-4.654713-23.9133632-13.156478-32.4151282-9.708777-9.708777-24.292651-15.439615-43.814571-15.5532609l-.593085-.0017228V0z" fill="#0468ff"/><path fill="#1f34ab" d="M117.846078 49.8889163l46.051307 34.5384805L48.7691171 237.931754l-46.05130735-34.53848z"/><path fill="#85aeff" d="M51.4869268 92.6625142l38.3760894 76.7521788-51.4869268 25.743464L0 118.405978z"/></svg>