<svg width="256px" height="256px" viewBox="0 0 256 256" xmlns="http://www.w3.org/2000/svg"><title>ProcessWire</title><path d="M234.02346 56.2065308c-7.765275-11.5948518-20.682511-24.8430635-33.653079-33.4192005C173.426584 4.33370223 142.216153-2.21573572 114.611028.642976615 85.8219124 3.7470262 61.1714319 14.5951994 40.9049183 32.6861551 22.1317268 49.454423 9.73715371 69.9560837 4.27586162 89.5083961-1.24942998 109.060708-.513435537 127.16233 1.45988289 140.794548c2.07998429 13.834889 8.97059891 31.243166 8.97059891 31.243166 1.4079894 3.33872 3.3599746 4.693409 4.3733003 5.258751 5.0346287 2.752044 13.3012329.330672 19.6478516-6.794775.3199976-.437341.490663-1.04535.3199976-1.557358-1.7706533-6.816109-2.4106485-11.946858-3.039977-15.914921-1.4399892-7.850792-2.0799843-21.003002-1.1199916-33.163197.4799964-6.581438 1.7599867-13.621551 3.9999698-21.0030019 4.330634-14.5815662 13.4612317-29.8031426 27.7331239-42.4540114C77.715307 42.7876498 97.4271581 34.3715153 116.16835 32.1954806c6.570617-.7893459 19.071856-1.5466913 34.122409 2.1653679 3.210642.8000128 16.991872 4.3947369 31.733094 14.3788963 10.730585 7.2961166 19.37052 16.2989271 25.322475 25.205736 6.058621 8.5014692 12.639904 22.8376982 14.570557 33.3338662 2.730646 11.946857 2.730646 24.608393.789327 36.939256-2.399982 12.352198-6.730616 24.363056-13.461232 34.933891-4.639965 8.192131-14.261225 19.018971-25.631806 27.147101-10.250589 7.210782-21.951834 12.416198-33.96241 15.296244-6.079954 1.440024-12.181242 2.357371-18.431861 2.560041-5.557291.17067-12.927902 0-18.101197-.874681-7.690608-1.226686-9.290596-3.189384-11.050583-5.856093 0 0-1.226657-1.920031-1.567988-7.061447.117332-46.987416.095999-34.443216.095999-58.838273 0-6.890776-.223998-13.141543-.159999-18.8163.319998-9.312148 1.109325-15.712251 7.765275-22.645695 4.81063-5.109415 11.541246-8.192131 18.954524-8.192131 2.250649 0 10.005257.106669 16.821206 5.770759 7.306611 6.101431 8.533269 14.442898 8.821267 16.672266 1.663987 13.045542-6.954615 22.763031-10.261256 25.22707-4.095969 3.072049-7.775942 4.565406-10.261256 5.440087-5.290627 1.770695-11.103916 2.282703-16.330543 1.941364-.799994-.053334-1.525322.469341-1.685321 1.269354l-1.759987 9.130812c-1.71732 6.933444 2.133317 9.472152 4.373301 10.368166 7.157279 2.208035 13.503898 3.125383 21.023841 2.560041 11.530579-.810679 22.90116-5.354752 32.554421-14.357563 8.213271-7.808125 12.895902-17.440278 14.49589-28.213784 1.599988-11.957524-.479996-24.832397-5.930622-35.733904-5.994621-12.0215253-16.34121-22.059019-29.973107-27.5524401-13.770562-5.4187532-24.725146-5.6107562-38.847706-2.0053653l-.159999.0533342c-9.173264 3.1573837-17.0238715 7.0507793-25.1944765 15.4882474-5.5999577 5.824093-10.1865897 12.8748718-12.9812353 20.8323328-2.7733124 8.021462-3.5199734 14.005557-3.6479724 23.307039-.1706654 6.890777.1599987 13.290879.1599987 19.285642v39.477963c0 12.629535-.4266634 14.816237 0 21.312341.2346649 4.309402.8319938 9.184147 2.7199795 14.421563 1.9413187 5.770759 6.0159546 11.690854 8.8106001 14.421564 3.9146371 4.170733 8.8959328 7.52012 13.7918959 9.600154 11.210582 4.981413 26.4318 5.770758 38.77304 5.290751 8.170605-.309338 16.383877-1.440024 24.437149-3.349387 16.106545-3.829395 31.573095-10.79484 45.172992-20.458993 14.581224-10.272165 27.253128-24.288388 34.250408-36.192578 8.970599-14.144227 14.773222-30.016481 17.791866-46.326074 2.719979-16.341594 2.59198-33.099196-1.055992-49.195452-2.879978-14.9335725-10.570587-31.3178343-19.445186-44.5447121l.40533.3946729h0z" fill="#417edf"/></svg>