<svg width="256px" height="256px" viewBox="0 0 256 256" xmlns="http://www.w3.org/2000/svg"><defs><linearGradient x1="50%" y1="0%" x2="50%" y2="100%" id="a"><stop stop-color="#da552f" offset="0%"/><stop stop-color="#d04b25" offset="100%"/></linearGradient></defs><g fill="none" fill-rule="evenodd"><path d="M128 256c70.6944 0 128-57.3056 128-128C256 57.3056 198.6944 0 128 0 57.3056 0 0 57.3056 0 128c0 70.6944 57.3056 128 128 128h0z" fill="url(#a)"/><path d="M96 76.8v102.4h19.2v-32h29.056c19.296-.512 34.944-16.16 34.944-35.2 0-19.552-15.648-35.2-34.944-35.2H96h0zm48.4928 51.2H115.2V96h29.2928C153.056 96 160 103.168 160 112c0 8.832-6.944 16-15.5072 16h0z" fill="#fff"/></g></svg>