<svg width="256px" height="257px" viewBox="0 0 256 257" xmlns="http://www.w3.org/2000/svg" preserveAspectRatio="xMidYMid"><path d="M128.001129.667C57.3110392.667 0 57.9712627 0 128.663612c0 70.69009 57.3110392 127.99887 128.001129 127.99887C198.69122 256.662482 256 199.353702 256 128.663612 256 57.9712627 198.688961.667 128.001129.667h0zm0 239.560234c-20.112623 0-36.4191185-13.435522-36.4191185-30.004041h72.8382375c0 16.56626-16.306495 30.004041-36.419119 30.004041h0zm60.152648-39.940635H67.8417054v-21.815782H188.156036v21.815782h-.002259zm-.431437-33.044427H68.1850476c-.3975541-.458542-.8041435-.910308-1.1881447-1.375627-12.3151421-14.953456-15.21548-22.759973-18.0322412-30.715573-.0474355-.262024 14.9331262 3.060715 25.5564045 5.450557 0 0 5.4663691 1.264945 13.4581102 2.721891-7.6732461-8.994662-12.2293065-20.428861-12.2293065-32.116048 0-25.6580518 19.6789284-48.0792001 12.5794252-66.2017945 6.9097615.5624487 14.3006539 14.5830076 14.7998549 36.5049544 7.345716-10.1511828 10.419984-28.689402 10.419984-40.0558355 0-11.7685052 7.754564-25.4389454 15.511387-25.9065232-6.914279 11.3957982 1.791252 21.1652387 9.530004 45.4002276 2.902597 9.1030856 2.532149 24.4224719 4.772908 34.1377004.743156-20.1781299 4.212719-49.6197224 17.013509-59.7844582-5.647075 12.8007906.835767 28.8181554 5.269851 36.5185075 7.153715 12.4235659 11.490669 21.8361112 11.490669 39.6379515 0 11.935659-4.406977 23.173339-11.840788 31.95793 8.452543-1.585699 14.28936-3.015539 14.28936-3.015539l27.449304-5.355686c.002259-.002259-3.986835 16.401366-19.312998 32.197365h0z" fill="#da4e31"/></svg>