<svg width="256px" height="261px" viewBox="0 0 256 261" xmlns="http://www.w3.org/2000/svg" preserveAspectRatio="xMidYMid"><path d="M141.0316-1e-4h-24.531-104.246c-6.127 0-12.255 6.127-12.255 12.269v162.5c0 7.644 4.603 16.865 10.723 19.928l107.309 62.857c6.135 4.588 15.333 4.588 19.936 0l107.302-62.857c6.127-4.602 10.73-12.269 10.73-19.928v-162.5c0-7.666-6.134-12.262-12.262-12.262h-102.706v-.007z" fill="#13c779"/><path d="M200.8173 72.0549l-72.048 42.913-72.047-42.913h144.095zm0 72.048-72.048 42.928-72.047-42.928v-55.191l72.04 42.929 72.048-42.929v55.191h.007zm6.135-87.374h-78.19-78.182c-3.064 0-6.128 3.064-6.128 7.659v3.072 76.658c0 3.071 0 9.198 6.128 12.247 6.134 4.603 78.182 47.531 78.182 47.531 0 0 72.048-42.914 78.19-47.531 6.12-4.588 6.12-9.184 6.12-12.247v-76.658-3.072c0-4.595-1.525-7.659-6.12-7.659h0z" fill="#fff"/><path d="M128.7622-1e-4h-12.255-104.253c-6.127 0-12.254 6.127-12.254 12.269v162.5c0 7.644 4.603 16.865 10.723 19.928l107.309 62.857c3.063 1.525 6.135 3.064 10.723 3.064l.007-260.618z" fill-opacity="0.1" fill="#231f1f"/></svg>