<svg width="512px" height="135px" viewBox="0 0 512 135" xmlns="http://www.w3.org/2000/svg" preserveAspectRatio="xMidYMid"><path d="M41.6960106 25.4902737c22.9581272 0 41.6960105 18.5690735 41.6960105 41.5272007 0 22.9581273-18.7378833 41.6960106-41.6960105 41.6960106-7.2588197 0-14.1800198-1.856907-20.0883614-5.064293h0v31.398615L0 125.93208V67.1862842c0-23.126937 18.7378833-41.6960105 41.6960106-41.6960105zM249.332015 0v25.4902737h20.088361v21.6076491h-20.088361v20.4259809c0 11.1414441 8.946917 20.0883614 20.088361 20.0883614h0v21.6076489c-22.620508 0-41.020772-18.062644-41.696011-40.514342h0V9.28453676L249.332015 0zM132.853281 25.4902737v21.6076491c-11.141445 0-20.088362 8.9469173-20.088362 20.0883614h0v42.0336298H91.15727V66.0046159l.0255612-.6722206c1.0181052-22.138924 19.2761468-39.8421216 41.6704498-39.8421216h0zm44.903396 0c22.958127 0 41.5272 18.5690735 41.69601 41.6960105 0 22.9581273-18.737883 41.6960108-41.69601 41.6960108-22.958128 0-41.696011-18.7378835-41.696011-41.6960108 0-22.9581273 18.737883-41.6960105 41.696011-41.6960105zm138.592812 0c22.958127 0 41.696011 18.5690735 41.696011 41.6960105 0 22.9581273-18.737884 41.6960108-41.696011 41.6960108-22.958127 0-41.696011-18.7378835-41.696011-41.6960108 0-22.9581273 18.737884-41.6960105 41.696011-41.6960105zm153.9545 0C493.262117 25.4902737 512 44.0593472 512 67.1862842c0 22.9581273-18.737883 41.6960108-41.696011 41.6960108-22.958127 0-41.69601-18.7378835-41.69601-41.6960108 0-22.9581273 18.737883-41.6960105 41.69601-41.6960105zm-50.136498 0v83.3920213h-21.607649V25.4902737h21.607649zm-44.734586 55.369601c7.765249 0 14.01121 6.2459611 14.01121 14.01121 0 7.7652493-6.245961 14.0112103-14.01121 14.0112103-7.765249 0-14.01121-6.245961-14.01121-14.0112103 0-7.7652489 6.245961-14.01121 14.01121-14.01121zM177.756677 47.0979228c-11.141445 0-20.088362 8.9469173-20.088362 20.0883614 0 11.1414441 8.946917 20.0883614 20.088362 20.0883614 10.972634 0 19.919551-9.115727 20.088361-20.0883614 0-11.1414441-8.946917-20.0883614-20.088361-20.0883614zm138.592812 0c-11.141444 0-20.088361 8.9469173-20.088361 20.0883614 0 11.1414441 8.946917 20.0883614 20.088361 20.0883614 10.972634 0 20.088361-9.115727 20.088361-20.0883614 0-11.1414441-8.946917-20.0883614-20.088361-20.0883614zm-274.6534784 0c-11.1414442 0-20.0883614 8.9469173-20.0883614 20.0883614 0 11.1414441 8.9469172 20.0883614 20.0883614 20.0883614 10.9726343 0 20.0883613-9.115727 20.0883613-20.0883614 0-11.1414441-8.9469172-20.0883614-20.0883613-20.0883614zm428.6079784 0c-11.141444 0-20.088361 8.9469173-20.088361 20.0883614 0 11.1414441 8.946917 20.0883614 20.088361 20.0883614 10.972635 0 20.088362-9.115727 20.088362-20.0883614 0-11.1414441-8.946917-20.0883614-20.088362-20.0883614z" fill="#3e4245"/></svg>