<svg width="256px" height="271px" viewBox="0 0 256 271" xmlns="http://www.w3.org/2000/svg" preserveAspectRatio="xMidYMid"><title>Pulumi</title><path d="M43.7054707 150.706877c10.0127015-5.781009 10.0293416-24.496968.0371201-41.803643-9.9922215-17.3064195-26.2094086-26.6496791-36.22213582-20.86867-10.01273741 5.7810091-10.02938258 24.497224-.03717131 41.803643 9.99219593 17.306676 26.20948543 26.649679 36.22218703 20.86867zm.0599041 37.057646c9.9922215 17.306675 9.9755815 36.022634-.0371201 41.803643-10.0129575 5.781009-26.2300422-3.56225-36.22223816-20.86867-9.99221383-17.306419-9.97557378-36.022634.03717131-41.803643 10.01272715-5.781009 26.22996545 3.56225 36.22218695 20.86867zm68.2336732 39.449204c9.992222 17.306419 9.975582 36.02161-.03712 41.804668-10.012701 5.780497-26.2300932-3.563531-36.2223147-20.86995-9.9919655-17.306419-9.9753255-36.022378.0373761-41.803644 10.0127016-5.781009 26.2298376 3.562251 36.2220586 20.868926zm-.022272-78.860265c9.992222 17.306419 9.975582 36.022635-.03712 41.803644-10.012701 5.781009-26.2298373-3.562251-36.2220588-20.86867-9.9922215-17.306675-9.9755815-36.022634.0371201-41.803643 10.0127016-5.78101 26.2300937 3.56225 36.2220587 20.868669z" fill="#f26e7e"/><path d="M248.477403 129.881728c9.991198-17.30642 9.975838-36.0226348-.03712-41.8036439-10.012701-5.781009-26.229837 3.5622506-36.222059 20.8689259-9.992221 17.306419-9.975581 36.022378.03712 41.803643 10.012702 5.781009 26.230094-3.56225 36.222059-20.868925zm.002048 37.038957c10.01219 5.781009 10.03011 24.496968.037377 41.803643-9.992222 17.30642-26.209614 26.649679-36.222315 20.86867-10.012702-5.781009-10.029342-24.497224-.037121-41.803643 9.992222-17.306419 26.209358-26.649679 36.222059-20.86867zm-68.220105 39.384436c10.012958 5.781009 10.029598 24.496969.037376 41.803644-9.992221 17.305139-26.209613 26.649166-36.222315 20.868669-10.012701-5.780497-10.029342-24.497224-.03712-41.803643 9.992222-17.306675 26.209357-26.649935 36.222059-20.86867zm-.0384-78.843113c10.012701 5.78101 10.029341 24.497225.03712 41.803644-9.992222 17.306675-26.209357 26.649935-36.222315 20.868926-10.012702-5.78101-10.029342-24.497225-.03712-41.803644 9.992221-17.306675 26.209357-26.649935 36.222315-20.868926z" fill="#8a3391"/><path d="M164.153314 20.9349482c0 11.5620438-16.200495 20.9349995-36.184938 20.9349995-19.984443 0-36.1849393-9.3729557-36.1849393-20.9349995C91.7834367 9.37287888 107.983933 0 127.968376 0c19.984443 0 36.184938 9.37287888 36.184938 20.9349482zM95.9337209 60.278962c0 11.5620182-16.2004958 20.9349739-36.1849389 20.9349739-19.984443 0-36.1849644-9.3729557-36.1849644-20.9349739 0-11.5620181 16.2005214-20.9349738 36.1849644-20.9349738 19.9844431 0 36.1849389 9.3729557 36.1849389 20.9349738zM196.277057 81.2139359c19.984443 0 36.184939-9.3729557 36.184939-20.9349739 0-11.5620181-16.200496-20.9349738-36.184939-20.9349738-19.984443 0-36.184939 9.3729557-36.184939 20.9349738 0 11.5620182 16.200496 20.9349739 36.184939 20.9349739zm-32.123743 18.4973346c0 11.5620185-16.200495 20.9347175-36.184938 20.9347175-19.984443 0-36.1849393-9.372699-36.1849393-20.9347175 0-11.5620182 16.2004963-20.9349738 36.1849393-20.9349738 19.984443 0 36.184938 9.3729556 36.184938 20.9349738z" fill="#f7bf2a"/></svg>