<svg width="256px" height="326px" viewBox="0 0 256 326" xmlns="http://www.w3.org/2000/svg" preserveAspectRatio="xMidYMid"><path d="M235.066415 204.999379c5.643289-64.503098-20.360594-119.4684783-58.081299-122.7686123-37.720705-3.3001341-72.874169 46.3146713-78.5174588 110.8177693-5.6432899 64.503099 20.3605928 119.468479 58.0812988 122.768613 37.720705 3.300134 72.874169-46.314672 78.517459-110.81777z" fill="#d04b06"/><path d="M255.158589 204.99774c5.643289-64.503098-20.360594-119.4684779-58.081299-122.7686119-37.720705-3.3001341-72.874169 46.3146709-78.517459 110.8177699-5.64329 64.503098 20.360594 119.468478 58.081299 122.768612 37.720705 3.300134 72.874169-46.314671 78.517459-110.81777z" fill="#c65c14"/><path d="M99.5584771 315.816665c37.7207049-3.300134 63.7245879-58.265514 58.0812989-122.768612-5.64329-64.503098-40.796754-114.1179038-78.5174593-110.8177698-37.7207053 3.3001341-63.7245883 58.2655138-58.0812985 122.7686128 5.6432899 64.503098 40.7967536 114.117903 78.5174589 110.817769z" fill="#d04b06"/><path d="M79.4716694 315.814631c37.7207056-3.300134 63.7245886-58.265514 58.0812986-122.768613-5.64329-64.503098-40.7967537-114.1179034-78.517459-110.8177694C21.3148038 85.5283827-4.68907928 140.493763.954210577 204.996861 6.59750044 269.499959 41.7509642 319.114765 79.4716694 315.814631z" fill="#c65c14"/><path d="M254.978523 213.93336c5.64329-64.503099-20.360593-119.4684786-58.081298-122.7686127-37.720706-3.300134-72.874169 46.3146717-78.517459 110.8177697-5.64329 64.503098 20.360593 119.468478 58.081298 122.768612 37.720706 3.300134 72.874169-46.314671 78.517459-110.817769z" fill="#f17008"/><path d="M97.9568814 121.30061l-2.6381017-24.0770168c0 0 1.4535593-12.8694237 27.9604063-14.7134915 26.506848-1.8440678-12.192542-59.0492203-12.192542-59.0492203 0 0 8.899254-31.95227123 23.499932-20.58413564 14.600678 11.36813564 15.186441 77.78494914 15.186441 77.78494914 0 0 9.415593 24.9925421 10.383186 33.8223731" fill="#8f6646"/><path d="M234.886349 213.934998c5.64329-64.503098-20.360593-119.468478-58.081298-122.7686121-37.720706-3.300134-72.874169 46.3146711-78.5174593 110.8177701-5.6432898 64.503098 20.3605933 119.468478 58.0812983 122.768612 37.720705 3.300134 72.874169-46.314671 78.517459-110.81777z" fill="#f48d39"/><path d="M79.2881333 324.752162c37.7207057-3.300134 63.7245887-58.265514 58.0812987-122.768613-5.64329-64.503098-40.7967539-114.1179033-78.5174591-110.8177693C21.1312676 94.4659138-4.87261544 149.431294.770674426 213.934392 6.41396429 278.43749 41.567428 328.052296 79.2881333 324.752162z" fill="#f17008"/><path d="M99.3792634 324.753818c37.7207056-3.300134 63.7245886-58.265514 58.0812986-122.768612-5.64329-64.503098-40.796754-114.1179039-78.517459-110.8177698C41.2223978 94.4675703 15.2185147 149.43295 20.8618046 213.936049c5.6432898 64.503098 40.7967535 114.117903 78.5174588 110.817769z" fill="#f48d39"/><ellipse fill="#f17008" cx="123.235797" cy="207.95878" rx="68.5602712" ry="117.239322"/><circle fill="#f7f3f0" cx="127.305763" cy="159.796068" r="23.9294915"/><circle fill="#160c06" cx="135.532475" cy="169.901559" r="8.22671186"/><circle fill="#f9f6f4" cx="137.506712" cy="170.235661" r="2.54698305"/></svg>