<svg width="256px" height="383px" viewBox="0 0 256 383" xmlns="http://www.w3.org/2000/svg" preserveAspectRatio="xMidYMid"><path d="M253.4216 214.246117H2.1916v-14.168c0-9.52 7.717-17.237 17.236-17.237h216.757c9.52 0 17.237 7.717 17.237 17.237v14.168z" fill="#dfdedf"/><path d="M235.9192 378.552817H19.6932c-9.666 0-17.502-7.836-17.502-17.502v-146.805h251.23v146.805c0 9.666-7.835 17.502-17.502 17.502" fill="#fff"/><path d="M250.302 211.397517v-12.706c0-7.501-6.08-13.582-13.581-13.582H19.279c-7.501 0-13.581 6.081-13.581 13.582v12.706h244.604zm0 151.469v-145.771H5.698v145.771c0 7.501 6.08 13.581 13.581 13.581h217.442c7.501 0 13.581-6.08 13.581-13.581zm-229.748-183.454.846-9.236-3.592 9.31c.487-.037.974-.074 1.471-.074h1.275zm213.401-15.57 1.254 15.57h1.512c.809 0 1.601.066 2.384.163l-5.15-15.733zm17.247 22.164c2.977 3.394 4.798 7.826 4.798 12.685v164.175c0 10.631-8.649 19.279-19.279 19.279H19.279c-10.63 0-19.279000000000085-8.648-19.279000000000085-19.279l-1.0000000000000001e-23-164.175c0-5.152 2.0430000000000854-9.827 5.347000000000086-13.29l19.22-49.817 8.381-91.5540003L42.404 44.8955167l-7.552 82.4920003 2.66 1.026-3.61 9.358-3.812 41.641h195.593L214.829 44.6675167l9.464-.763 6.402 79.4690003.004-.001 20.503 62.634zm-230.0455 8.39c2.376 0 4.302 1.926 4.302 4.302 0 2.376-1.926 4.302-4.302 4.302-2.376 0-4.302-1.926-4.302-4.302 0-2.376 1.926-4.302 4.302-4.302zm14.708 0c2.376 0 4.302 1.926 4.302 4.302 0 2.376-1.926 4.302-4.302 4.302-2.376 0-4.302-1.926-4.302-4.302 0-2.376 1.926-4.302 4.302-4.302zm14.2446 0c2.376 0 4.302 1.926 4.302 4.302 0 2.376-1.926 4.302-4.302 4.302-2.376 0-4.302-1.926-4.302-4.302 0-2.376 1.926-4.302 4.302-4.302z"/><path d="M36.0217 287.748117c.739-.855 1.128-1.979 1.128-3.374 0-1.396-.389-2.475-1.128-3.33-.778-.855-1.868-1.26-3.268-1.26h-6.847v9.223h6.847c1.4 0 2.49-.405 3.268-1.259zm-3.268-13.497c2.956 0 5.291.9 7.041 2.744 1.751 1.844 2.607 4.318 2.607 7.379 0 3.103-.856 5.533-2.567 7.377-1.751 1.846-4.085 2.79-7.081 2.79h-6.847v12.414h-5.291v-32.704h12.138zm28.5444 20.0565v-9.54h5.698v21.54h-5.698v-1.942c-1.727 1.726-3.971 2.589-6.777 2.589-2.59 0-4.662-.863-6.259-2.546-1.597-1.683-2.374-3.842-2.374-6.518v-13.123h5.698v11.914c0 1.511.388 2.763 1.208 3.67.777.906 1.813 1.381 3.151 1.381 3.583 0 5.353-2.461 5.353-7.425zm27.9262 5.9141c1.122-1.166 1.683-2.72 1.683-4.662 0-1.942-.561-3.54-1.683-4.705-1.166-1.166-2.59-1.77-4.36-1.77-1.597 0-3.021.604-4.273 1.813-1.252 1.209-1.856 2.762-1.856 4.662 0 1.899.604 3.454 1.856 4.618 1.252 1.21 2.676 1.814 4.273 1.814 1.77 0 3.194-.604 4.36-1.77zm-3.367-16.101c2.806 0 5.309 1.08 7.425 3.238 2.115 2.201 3.15 4.92 3.15 8.201 0 3.28-1.035 6-3.15 8.158-2.116 2.159-4.576 3.237-7.425 3.237-2.806 0-5.18-.777-7.122-2.33v11.959h-5.698v-31.816h5.698v1.727c1.899-1.597 4.273-2.374 7.122-2.374zm31.0775 16.101c1.122-1.166 1.683-2.72 1.683-4.662 0-1.942-.561-3.54-1.683-4.705-1.166-1.166-2.59-1.77-4.36-1.77-1.597 0-3.021.604-4.273 1.813-1.252 1.209-1.857 2.762-1.857 4.662 0 1.899.605 3.454 1.857 4.618 1.252 1.21 2.676 1.814 4.273 1.814 1.77 0 3.194-.604 4.36-1.77zm-3.368-16.101c2.806 0 5.31 1.08 7.426 3.238 2.114 2.201 3.15 4.92 3.15 8.201 0 3.28-1.036 6-3.15 8.158-2.116 2.159-4.576 3.237-7.426 3.237-2.805 0-5.179-.777-7.122-2.33v11.959h-5.697v-31.816h5.697v1.727c1.9-1.597 4.274-2.374 7.122-2.374zm18.9915 8.935h10.403c-.345-1.338-.993-2.33-1.899-2.979-.907-.647-1.985-.992-3.195-.992-1.164 0-2.287.345-3.28 1.036-1.036.691-1.727 1.683-2.029 2.935zm5.309-8.935c2.936 0 5.483 1.036 7.598 3.065 2.115 2.072 3.194 4.704 3.324 7.942v1.943h-16.403c.302 1.51.949 2.718 1.943 3.626.992.906 2.114 1.38 3.452 1.38 2.461 0 4.231-.949 5.353-2.848l5.094 1.079c-.907 2.202-2.288 3.843-4.101 4.965-1.813 1.122-3.928 1.682-6.346 1.682-3.108 0-5.741-1.078-7.856-3.193-2.115-2.115-3.195-4.878-3.195-8.202 0-3.323 1.08-6.086 3.238-8.245 2.115-2.114 4.749-3.194 7.899-3.194zm26.6324 17.5258c1.079 0 2.288-.346 3.583-1.036l1.64 4.748c-1.986 1.079-3.842 1.597-5.612 1.597-2.633 0-4.705-.734-6.216-2.159-1.51-1.423-2.244-3.539-2.244-6.431v-8.936h-4.619v-4.662h4.619v-6.517h5.698v6.517h7.036v4.662h-7.036v8.504c0 2.461 1.036 3.713 3.151 3.713zm11.9546-8.5908h10.403c-.345-1.338-.993-2.33-1.899-2.979-.907-.647-1.985-.992-3.195-.992-1.164 0-2.287.345-3.28 1.036-1.036.691-1.727 1.683-2.029 2.935zm5.309-8.935c2.936 0 5.483 1.036 7.598 3.065 2.115 2.072 3.194 4.704 3.324 7.942v1.943h-16.403c.302 1.51.949 2.718 1.943 3.626.992.906 2.114 1.38 3.452 1.38 2.461 0 4.231-.949 5.353-2.848l5.093 1.079c-.906 2.202-2.287 3.843-4.1 4.965-1.813 1.122-3.928 1.682-6.346 1.682-3.108 0-5.741-1.078-7.856-3.193-2.115-2.115-3.195-4.878-3.195-8.202 0-3.323 1.08-6.086 3.238-8.245 2.115-2.114 4.749-3.194 7.899-3.194zm20.2862 8.935h10.403c-.345-1.338-.993-2.33-1.899-2.979-.907-.647-1.985-.992-3.195-.992-1.164 0-2.287.345-3.28 1.036-1.036.691-1.727 1.683-2.029 2.935zm5.309-8.935c2.936 0 5.483 1.036 7.598 3.065 2.115 2.072 3.194 4.704 3.324 7.942v1.943h-16.403c.302 1.51.949 2.718 1.943 3.626.992.906 2.114 1.38 3.452 1.38 2.461 0 4.231-.949 5.353-2.848l5.094 1.079c-.907 2.202-2.288 3.843-4.101 4.965-1.813 1.122-3.928 1.682-6.346 1.682-3.108 0-5.741-1.078-7.856-3.193-2.115-2.115-3.195-4.878-3.195-8.202 0-3.323 1.08-6.086 3.238-8.245 2.115-2.114 4.749-3.194 7.899-3.194zm28.6612.3451c.648 0 1.166.043 1.512.172l-.303 5.483h-1.251c-5.137 0-7.685 3.065-7.685 9.238v6.949h-5.697v-21.54h5.697v3.928c1.943-2.806 4.533-4.23 7.727-4.23z"/><path fill="#00d8a2" d="M211.0954 132.638217l30.741-14.841v-14.84l-71.023-33.9220003 71.023-36.571v-14.31l-29.681-13.78099996-84.096 41.87099996-85.51-41.87099996-27.561 14.84099996v12.72l66.782 36.571-66.782 33.9220003v15.37l28.621 14.841 84.803-43.4620003z"/><path d="M214.9494 126.584517v-6.392l23.14-11.991v7.18l-23.14 11.203zm-198.099-18.551 22.36 12.836v5.11l-22.36-11.312v-6.634zm114.533-26.9940003 76.919 38.0050003v7.642l-76.919-39.4050003v-6.242zm-85.526 39.1170003 78.879-39.1090003v6.232l-78.879 39.9080003v-7.031zm55.852-63.9050003-79.822-38.538 20.674-10.50699996 85.498 44.32299996 84.067-44.30399996 21.404 10.96299996-77.841 39.174c-3.112 1.566-3.107 6.011.008 7.57l77.038 38.5570003-19.968 10.347-84.708-43.4030003-86.206 44.2890003-19.689-11.303 79.589-39.5620003c3.153-1.567 3.127-6.075-.044-7.606h0zm-83.865-25.481v-7.014l74.446 37.142-7.526 3.007-66.92-33.135zm152.654 33.548c-.102-.062-7.13-3.378-7.13-3.378l74.721-37.605v7.045l-67.591 33.938zm7.479 3.683 65.675-32.976c.665-.334 1.085-1.015 1.085-1.759v-15.603c0-.739-.414-1.415-1.071-1.752L213.0334.221516741c-.561-.2870000001-1.226-.2880000001-1.788-.003L128.9424 41.9825167c-.555.282-1.211.285-1.769.006L43.4204.206516741c-.557-.2780000001-1.214-.2750000001-1.77.007L11.2794 15.6475167c-.661.336-1.077 1.014-1.077 1.755v15.855c0 .749.425 1.433 1.097 1.765l65.951 32.584-65.646 32.5950003c-.657.327-1.079.992-1.092 1.727l-.287 15.591c-.014.755.406 1.451 1.079 1.792l31.537 15.956c.557.281 1.214.282 1.772.002l82.558-41.4550003c.558-.281 1.217-.279 1.775.004l81.529 41.4540003c.548.278 1.195.285 1.749.017l31.402-15.203c.679-.329 1.111-1.017 1.111-1.771v-16.29c0-.751-.427-1.436-1.101-1.767l-65.659-32.2570003z"/></svg>