<svg width="256px" height="158px" viewBox="0 0 256 158" xmlns="http://www.w3.org/2000/svg" preserveAspectRatio="xMidYMid"><path d="M51.6757015 46.770915 64.880661 59.978967 22.5289233 102.32452l42.3517377 42.357922-13.2049595 13.195682-48.95421743-48.954217c-1.756537934-1.756538-2.7214552555436-4.097558-2.7214552555436-6.596295C-.00609772466 99.83506.964946136 97.4816704 2.72148407 95.728225h0l48.95421743-48.95731zm110.2072935 69.602816 19.986804 18.663215H94.1016591l-19.986804-18.663215h87.7681399zM204.327507 0l48.935663 48.9604024c1.762723 1.7596305 2.730674 4.0944652 2.736859 6.5901098 0 2.4987371-.974136 4.8459418-2.736859 6.6148497h0l-48.935663 48.9449401-13.198774-13.2018671 42.33009-42.3517377-42.33009-42.3548302L204.327507 0zm-22.457708 69.6120932-19.986804 18.6632155H74.1148551l19.986804-18.6632155h87.7681399zm-19.986804-46.7740075 19.980619 18.6694005H94.1016591l-19.980619-18.6694005h87.7619549z" fill="#1d222d"/></svg>