<svg width="256px" height="396px" viewBox="0 0 256 396" xmlns="http://www.w3.org/2000/svg" preserveAspectRatio="xMidYMid"><path d="M127.994592 394.550526v-99.047642c0-.207953.114374-.415905.311928-.519881l127.391531-73.490315c.190808-.102253.307522-.303483.301949-.51988v-28.156731c.007684-.214063-.102407-.415287-.287047-.523899-.18464-.108612-.414006-.107068-.597168.004018l-126.226998 72.824868c-.183162.111087-.412528.11263-.597168.004018-.184641-.108612-.294732-.309836-.286629-.523899v-28.177525c0-.207953.103976-.405507.291133-.509483l127.401928-73.490315c.184327-.10882.298604-.305849.301949-.519881v-28.156731c-.005186-.208741-.11759-.400165-.297558-.506029-.179969-.105864-.401893-.111104-.586657-.013851l-126.226998 72.81447c-.182038.115635-.413079.121184-.600458.014422-.187379-.106763-.300402-.308349-.293737-.523905v-28.167128c0-.207952.114374-.405507.311928-.509483l127.391531-73.459122c.189088-.104023.305132-.304098.301949-.519881V74.3456965c-.012684-.4154331-.231-.7974861-.582685-1.0189659L128.587256.158741661c-.362941-.2120496192-.81199-.2120496192-1.17493 0L103.289868 14.0811429c-.185344.102548-.300378.2976606-.300378.5094829 0 .2118223.115034.4069349.300378.5094829l126.226998 72.8144702c.174587.1105674.280401.3028298.280401.509483 0 .2066531-.105814.3989155-.280401.5094829l-24.122457 13.9120032c-.369887.199658-.815442.199658-1.185328 0L77.389419 29.6983547c-.3860438-.2228826-.8616694-.2228826-1.2477133 0L52.0920314 43.5999606c-.1853446.1025481-.3003778.2976606-.3003778.509483 0 .2118223.1150332.4069349.3003778.5094829L178.298234 117.443794c.190699.100885.309986.298942.309986.514682 0 .21574-.119287.413797-.309986.514682l-24.122457 13.912003c-.386044.222883-.86167.222883-1.247714 0L26.1915822 59.2171724c-.3860438-.2228825-.8616694-.2228825-1.2477133 0L1.42108547e-14 73.6490566V321.392935c0 .207952.10397610999998579.415904.30153071999998576.509483l24.41359078 14.088763C24.8982833 336.102267 25.1276495 336.103811 25.3122895 335.995199c.1846401-.108612.2947313-.309836.2866289-.523899V89.4534254c-.0041708-.2122137.1074656-.4098849.2913536-.5158908.1838879-.106006.4108913-.1035508.5924433.0064078l24.434386 14.0887626c.1663618.103976.2807355.301531.2807355.519881V350.92215c0 .207953.1039761.415905.2911331.519881l24.4135908 14.099161c.186219.107515.4155986.107744.6020312 5.98e-4.1864326-.107145.3017111-.305452.3025609-.520479V118.972243c-.0081024-.214063.1019888-.415287.2866289-.523898.1846401-.108612.4140062-.107069.5971681.004018l24.4135912 14.078365c.187157.103976.30153.311928.30153.51988v247.411155c0 .207953.103976.405507.280736.519881l24.486374 14.067968c.177747.084409.386103.073335.553901-.029442.167798-.102776.272336-.283348.277908-.480041l-.010398.010397h0z" fill="#300d4f"/></svg>