<svg width="512px" height="193px" viewBox="0 0 512 193" xmlns="http://www.w3.org/2000/svg" preserveAspectRatio="xMidYMid"><path fill="#3d3d3d" d="M376.818362 158.243566l14.790819-37.403017h42.706886l-20.267541-56.7383605L439.396722 3.2018623e-5 512.000001 192.769205h-53.542295l-12.406557-34.525639z"/><path fill="#5a0fc8" d="M331.139673 192.76973 408.862952 3.04174426e-4l-51.527869 2.56149508e-4L304.16787 124.572484 266.360657 8.1647082e-4h-39.60682L186.158952 124.572484l-28.628459-56.7648529-25.907672 79.8169179 26.304 45.145181h50.70977l36.683803-111.7140989 34.976 111.7140989z"/><path d="M48.9117387 126.594779h31.7384918c9.6141639 0 18.1752131-1.073049 25.6831475-3.219148l8.208-25.2873441 22.940066-70.6743607c-1.747935-2.7704918-3.743476-5.3899803-5.986623-7.8581246C119.71646 6.51845082 102.483673 0 79.7959354 0H0v192.769205h48.9117387v-66.174426zm42.0107541-82.2462954c4.6006557 4.6302951 6.9007213 10.8264918 6.9007213 18.5891148 0 7.8221639-2.023082 14.0259672-6.0689836 18.6114098C87.3188207 86.6440902 79.1517387 89.1915 67.2535092 89.1915H48.9117387V37.4026475h18.4765902c11.0890491 0 18.9337705 2.3152787 23.5341639 6.9458361z" fill="#3d3d3d"/></svg>