<svg width="256px" height="256px" viewBox="0 0 256 256" xmlns="http://www.w3.org/2000/svg" preserveAspectRatio="xMidYMid"><title>PyCharm</title><defs><linearGradient x1="-46.685879%" y1="50%" x2="90.5139289%" y2="50%" id="a"><stop stop-color="#21d789" offset="0%"/><stop stop-color="#07c3f2" offset="100%"/></linearGradient><linearGradient x1="-19.1597915%" y1="105.481057%" x2="105.922196%" y2="-7.57713839%" id="b"><stop stop-color="#fcf84a" offset="1%"/><stop stop-color="#a7eb62" offset="11%"/><stop stop-color="#5fe077" offset="21%"/><stop stop-color="#32da84" offset="27%"/><stop stop-color="#21d789" offset="31%"/><stop stop-color="#21d789" offset="58%"/><stop stop-color="#21d789" offset="60%"/><stop stop-color="#20d68c" offset="69%"/><stop stop-color="#1ed497" offset="76%"/><stop stop-color="#19d1a9" offset="83%"/><stop stop-color="#13ccc2" offset="90%"/><stop stop-color="#0bc6e1" offset="97%"/><stop stop-color="#07c3f2" offset="100%"/></linearGradient><linearGradient x1="42.2298893%" y1="115.966514%" x2="61.1794942%" y2="22.2526636%" id="c"><stop stop-color="#21d789" offset="0%"/><stop stop-color="#24d888" offset="16%"/><stop stop-color="#2fd985" offset="30%"/><stop stop-color="#41dc80" offset="43%"/><stop stop-color="#5ae079" offset="55%"/><stop stop-color="#7ae46f" offset="67%"/><stop stop-color="#a1ea64" offset="79%"/><stop stop-color="#cff157" offset="90%"/><stop stop-color="#fcf84a" offset="100%"/></linearGradient><linearGradient x1="-9.711365%" y1="144.549783%" x2="118.64101%" y2="8.29174756%" id="d"><stop stop-color="#21d789" offset="0%"/><stop stop-color="#23d986" offset="9%"/><stop stop-color="#2ade7b" offset="17%"/><stop stop-color="#36e669" offset="25%"/><stop stop-color="#3bea62" offset="27%"/><stop stop-color="#47eb61" offset="35%"/><stop stop-color="#67ed5d" offset="49%"/><stop stop-color="#9af156" offset="69%"/><stop stop-color="#e0f64d" offset="92%"/><stop stop-color="#fcf84a" offset="100%"/></linearGradient><linearGradient x1="105.92021%" y1="50.4805683%" x2="-8.03965366%" y2="49.366207%" id="e"><stop stop-color="#fcf84a" offset="39%"/><stop stop-color="#ecf74c" offset="46%"/><stop stop-color="#c1f451" offset="61%"/><stop stop-color="#7eef5a" offset="82%"/><stop stop-color="#3bea62" offset="100%"/></linearGradient></defs><path fill="url(#a)" d="M179.493333 40.4l74.8 62.213333-26.933333 54.8-45.093333-12.506666h-39.013334z"/><path fill="url(#b)" d="M104.133333 80.8l-14.4799997 76.613333L88.2666667 183.44 51.76 199.253333 0 204.826667 15.7066667 39.3066667 109.493333 0 167.28 37.8933333z"/><path fill="url(#c)" d="M104.133333 80.8l7.04 147.626667L87.7866667 256 1.42108547e-14 204.826667 72.08 97.4133333z"/><path fill="url(#d)" d="M200.72 70.0266667h-88.693333L190.4 0z"/><path fill="url(#e)" d="M256 229.013333 177.92 255.52 73.9466667 226.24 104.133333 80.8l12.053334-10.7733333L179.493333 64.08 173.76 127.653333l50.346667-19.52z"/><path d="M48 48h160v160H48z"/><path d="M67.9466667 177.76h60.0000003v10H67.9466667v-10zM68 68h24.5333333c14.1503997 0 22.7861037 8.311248 22.9574027 20.3539327l.002597.5260673c0 13.866667-10.8 21.066667-24.2399997 21.066667h-9.92V127.92H68V68zm23.6266667 30.2133333c6.4750282 0 10.3214783-3.7882447 10.4500063-8.806042l.003327-.4206246c0-5.92-4.1066667-9.0933334-10.6666667-9.0933334h-10.08v18.32h10.2933334zM122.64 98.16V98c-.155825-8.3068947 3.092055-16.3162119 8.98957-22.1683997 5.897514-5.8521878 13.931651-9.0381777 22.237097-8.818267 8.832943-.4466029 17.434018 2.9122819 23.626666 9.2266667L169.12 85.92c-4.030392-4.1736266-9.533783-6.6046897-15.333333-6.7733333-9.994371 0-17.22454 8.2143703-17.383977 18.3251447L136.4 98c0 10.266667 7.12 18.826667 17.386667 18.826667 6.230303 0 10.256749-2.203857 14.483546-5.870273l.635823-.560839c.212642-.190541.426085-.384646.640631-.582222l8.373333 8.453334c-6.110354 7.143736-15.168495 11.077782-24.56 10.666666-8.194099.123909-16.088214-3.080222-21.877952-8.880011-5.789737-5.799789-8.98017-13.699451-8.842048-21.893322z" fill="#fff"/></svg>