<svg width="256px" height="226px" viewBox="0 0 256 226" xmlns="http://www.w3.org/2000/svg" preserveAspectRatio="xMidYMid"><title>Pypi</title><path fill="#f7f7f4" d="M37.2320142 86.7728206 73.337857 99.9142748l36.640177-13.3359484-36.1058425-13.1414655z"/><path d="M74.2033497 72.5270119h-.6623168L36.9008556 85.8629717v1.819698l36.1058433 13.1414543h.6623164l36.6401777-13.3359486v-1.8196979L74.2033497 72.5270119zm-.3319823 1.9382569 33.2726396 12.1107607-33.8071088 12.3082819-33.27264-12.1146337 33.8071092-12.3044089z" fill="#ccc"/><path fill="#efeeea" d="M37.2320142 86.7728206 73.337857 99.9142748v42.4360792L37.2320142 129.2089z"/><path d="M37.5631722 85.8629715l-1.2993992.9098491V129.2089l.6370832.909849 36.1058427 13.141455 1.2993992-.90985V99.9142748l-.6370831-.9098491-36.1058428-13.1414542zm.634317 2.2893546 34.1711679 12.4360899v40.37953l-34.1711679-12.439962V88.1523261z" fill="#ccc"/><path fill="#f7f7f4" d="M73.495411 57.1026513l36.105842 13.1414539 36.640177-13.3359481-36.105843-13.1414653z"/><path d="M110.466746 42.8568428h-.662317L73.1642524 56.1928024v1.8196979l36.1058426 13.141454h.662316l36.640177-13.3359482v-1.819698l-36.105842-13.1414653zm-.33281 1.9376431 33.27264 12.1107607-33.810982 12.308282-33.2765129-12.1107608 33.8148549-12.3082819z" fill="#ccc"/><path fill="#efeeea" d="M73.495411 57.1026513l36.105842 13.1414539v42.4360788L73.495411 99.53873z"/><path d="M73.826569 56.1928022l-1.2993992.9098491V99.53873l.6370832.909849 36.105842 13.141454 1.299399-.909849V70.2441052l-.637083-.9098491-36.105842-13.1414539zm.633489 2.2887411 34.171168 12.4399627v40.375657L74.460058 98.8610736V58.4815433z" fill="#ccc"/><path fill="#f7f7f4" d="M.968241184 142.816356 37.0740832 155.95781l36.6401765-13.335949-36.105842-13.141465z"/><path d="M37.939576 128.570547h-.6623169L.63708263 141.906507v1.819698l36.10584257 13.141454h.6623163L74.045418 143.53171v-1.819698l-36.105842-13.141465zm-.3307774 1.936521 33.276513 12.110761-33.8148551 12.308282L3.79781641 142.81535l33.81098219-12.308282z" fill="#ccc"/><path fill="#efeeea" d="M.968241184 142.816356 37.0740832 155.95781v42.436078L.968241184 185.252434z"/><path d="M1.29939922 141.906506-6.9e-15 142.816356-6.89638465e-15 185.252434.637083147 186.162283 36.7429252 199.303737l1.2993992-.909849V155.95781l-.6370832-.90985-36.10584198-13.141454zm.63552115 2.291493 34.16729493 12.43609v40.375657l-34.16729493-12.43609v-40.375657z" fill="#ccc"/><path fill="#efeeea" d="M37.2318261 156.003076l36.105842 13.141454v42.436078l-36.105842-13.141454z"/><path d="M37.5629841 155.093227l-1.2993992.909849v42.436078l.6370832.90985 36.105842 13.141454 1.2993992-.90985V169.14453l-.6370832-.909849-36.105842-13.141454zm.6345051 2.288344 34.1711679 12.439963v40.375657l-34.1711679-12.43609v-40.37953z" fill="#ccc"/><path fill="#f7f7f4" d="M37.2318261 113.146224l36.105842 13.141454 36.6401769-13.335949-36.1058424-13.1414649z"/><path d="M74.2031609 98.9004151h-.6623169L36.9006675 112.236375v1.819698l36.1058426 13.141454h.6623163l36.6401766-13.335949v-1.819698L74.2031609 98.9004151zm-.3317935 1.9397439 33.2726396 12.11076-33.8071088 12.304409-33.27264-12.11076 33.8071092-12.304409z" fill="#ccc"/><path fill="#efeeea" d="M37.2318261 113.146224l36.105842 13.141454v42.436078l-36.105842-13.141454z"/><path d="M37.5629841 112.236374l-1.2993992.90985v42.436078l.6370832.909849 36.105842 13.141454 1.2993992-.909849v-42.436078l-.6370832-.90985-36.105842-13.141454zm.6345051 2.290842 34.1711679 12.43609v40.375657l-34.1711679-12.43609v-40.375657z" fill="#ccc"/><path fill="#fff" d="M218.391582 142.771066v42.436079l36.640177-13.335948v-42.436079z"/><path d="M254.700601 128.525269l-36.640177 13.335948-.637083.909849v42.436079l1.2994.909849 36.640176-13.335948.637083-.909849v-42.436079l-1.299399-.909849zm-.639549 2.291637v40.375657l-34.701764 12.629738v-40.375657l34.701764-12.629738z" fill="#ccc"/><path fill="#ffd242" d="M182.128186 155.957813v42.436079l36.640176-13.335948v-42.436079z"/><path d="M218.437204 141.712016l-36.640177 13.335948-.637083.909849v42.436079l1.2994.909849 36.640176-13.335948.637083-.909849v-42.436079l-1.299399-.909849zm-.638721 2.288462v40.37953l-34.705637 12.629738v-40.375657l34.705637-12.633611z" fill="#ccc"/><path fill="#ffd242" d="M145.864789 169.144535v42.436079l36.640176-13.335948v-42.436079z"/><path d="M182.173807 154.898738l-36.640176 13.335948-.637083.909849v42.436079l1.299399.909849 36.640177-13.335948.637083-.909849v-42.436079l-1.2994-.909849zm-.637893 2.289185v40.375657l-34.705637 12.633611v-40.375657l34.705637-12.633611z" fill="#ccc"/><path fill="#fff" d="M109.60114 182.331257v42.436078l36.640176-13.335948v-42.436078z"/><path d="M145.910158 168.08546l-36.640177 13.335948-.637082.909849v42.436078l1.299399.909849 36.640177-13.335948.637082-.909849v-42.436078l-1.299399-.909849zm-.640686 2.289907v40.375658l-34.701764 12.633611v-40.379531l34.701764-12.629738z" fill="#ccc"/><path fill="#efeeea" d="M73.4952977 169.189803l36.1058423 13.141454v42.436078l-36.1058423-13.141454z"/><path d="M73.8264558 168.279954l-1.2993993.909849v42.436078l.6370832.90985 36.1058423 13.141454 1.299399-.90985v-42.436078l-.637083-.909849-36.1058422-13.141454zm.6336022 2.289062 34.171168 12.436089v40.379531l-34.171168-12.439963v-40.375657z" fill="#ccc"/><path fill="#ffd242" d="M218.391582 99.9142325v42.4360785l36.640177-13.335948V86.5782844z"/><path d="M254.700601 85.6684354l-36.640177 13.3359481-.637083.909849v42.4360785l1.2994.909849 36.640176-13.335948.637083-.909849V86.5782844l-1.299399-.909849zm-.639549 2.2902425v40.3756571l-34.701764 12.633611v-40.37953l34.701764-12.6297381z" fill="#ccc"/><path fill="#353564" d="M182.28574 43.9159199v42.4360788l36.640177-13.3359594V30.5799605z"/><path d="M218.594758 29.6701116l-36.640176 13.3359595-.637083.9098488v42.4360788l1.2994.9098489 36.640176-13.3359594.637083-.9098489V30.5799605l-1.2994-.9098489zm-.637484 2.2893692v40.3756574l-34.705637 12.6336109V44.5930918l34.705637-12.633611z" fill="#ccc"/><path fill="#ffc91d" d="M182.28574 43.9159199l36.105842 13.141454 36.640177-13.3359481-36.105842-13.1414653z"/><path d="M219.257075 29.6701115h-.662317l-36.640176 13.3359596v1.8196979l36.105842 13.141454h.662317l36.640176-13.3359482v-1.819698l-36.105842-13.1414653zm-.331559 1.9369295 33.280386 12.1107607-33.814856 12.308282-33.27264-12.1107608 33.80711-12.3082819z" fill="#ccc"/><path fill="#ffd242" d="M218.391582 57.0573739v42.4360788l36.640177-13.3359481V43.7214258z"/><path d="M254.700601 42.8115768l-36.640177 13.3359481-.637083.909849v42.4360788l1.2994.9098493 36.640176-13.3359484.637083-.909849V43.7214258l-1.299399-.909849zm-.639549 2.2888733v40.3795304l-34.701764 12.629738V57.7340611l34.701764-12.633611z" fill="#ccc"/><path fill="#ffd242" d="M182.128186 113.100954v42.436079l36.640176-13.335948V99.7650063z"/><path d="M218.437204 98.8551573l-36.640177 13.3359477-.637083.909849v42.436079l1.2994.909849 36.640176-13.335948.637083-.909849V99.7650063l-1.299399-.909849zm-.638721 2.2909657v40.375657l-34.705637 12.629738v-40.375657l34.705637-12.629738z" fill="#ccc"/><path fill="#3775a9" d="M182.128186 70.2440958v42.4360792l36.640176-13.3359485V56.9081477z"/><path d="M218.437204 55.9982987l-36.640177 13.3359481-.637083.909849v42.4360792l1.2994.909849 36.640176-13.335949.637083-.9098485V56.9081477l-1.299399-.909849zm-.638721 2.2895964v40.3756573l-34.705637 12.6336106V70.921506l34.705637-12.6336109z" fill="#ccc"/><path fill="#2f6491" d="M146.022344 14.2458084l36.105842 13.141454 36.640176-13.3359481L182.66252.909848986z"/><path d="M182.993678-1.71994185e-15h-.662316L145.691185 13.3359595v1.819698l36.105843 13.141454h.662316l36.640176-13.3359482v-1.819698L182.993678 0zM182.659074 1.93625815l33.27264 12.11463365-33.807109 12.304409-33.27264-12.1107607 33.807109-12.30828195z" fill="#ccc"/><path fill="#3775a9" d="M182.128186 27.3872624v42.4360788l36.640176-13.3359481V14.0513143z"/><path d="M218.437204 13.1414653l-36.640177 13.3359481-.637083.909849v42.4360788l1.2994.909849 36.640176-13.3359481.637083-.909849V14.0513143l-1.299399-.909849zm-.638721 2.292075v40.3756573l-34.705637 12.629738V28.0632783l34.705637-12.629738z" fill="#ccc"/><path fill="#afafde" d="M109.758947 155.582301l36.105842 13.141454 36.640176-13.335948-36.105842-13.141465z"/><path d="M146.730282 141.336493h-.662317l-36.640177 13.335959v1.819698l36.105843 13.141454h.662316l36.640177-13.335948v-1.819698l-36.105842-13.141465zm-.333777 1.93974 33.27264 12.110761-33.807109 12.304409-33.27264-12.110761 33.807109-12.304409z" fill="#ccc"/><path fill="#ffd242" d="M145.864789 126.287676v42.436079l36.640176-13.335948v-42.436079z"/><path d="M182.173807 112.041879l-36.640176 13.335948-.637083.909849v42.436079l1.299399.909849 36.640177-13.335948.637083-.909849v-42.436079l-1.2994-.909849zm-.637893 2.291689v40.375657l-34.705637 12.629738v-40.375657l34.705637-12.629738z" fill="#ccc"/><path fill="#3775a9" d="M145.864789 83.4308176v42.4360784l36.640176-13.335948V70.0948695z"/><path d="M182.173807 69.1850205l-36.640176 13.3359481-.637083.909849v42.4360784l1.299399.909849 36.640177-13.335948.637083-.909849V70.0948695l-1.2994-.909849zm-.637893 2.2903195v40.375657l-34.705637 12.629738V84.105078l34.705637-12.629738z" fill="#ccc"/><path fill="#e9e9ff" d="M110.135474 112.996985l36.105842 13.141465v42.436079l-36.105842-13.141466z"/><path d="M110.466633 112.087136l-1.2994.909849v42.436078l.637083.909849 36.105842 13.141466 1.299399-.909849V126.13845l-.637082-.909849-36.105842-13.141465zm.635544 2.289034 34.167295 12.43609v40.37953l-34.167295-12.439962V114.37617z" fill="#ccc"/><path fill="#3775a9" d="M109.60114 139.474398v42.436079l36.640176-13.335948V126.13845z"/><path d="M145.910158 125.228601l-36.640177 13.335948-.637082.909849v42.436079l1.299399.909849 36.640177-13.335948.637082-.909849V126.13845l-1.299399-.909849zm-.640686 2.288539v40.37953l-34.701764 12.629738v-40.375657l34.701764-12.633611z" fill="#ccc"/><path fill="#2f6491" d="M73.4952977 126.332944l36.1058423 13.141454v42.436079l-36.1058423-13.141454z"/><path d="M73.8264558 125.423095l-1.2993993.909849v42.436079l.6370832.909849 36.1058423 13.141454 1.299399-.909849v-42.436079l-.637083-.909849-36.1058422-13.141454zm.6336022 2.291566 34.171168 12.43609v40.375657l-34.171168-12.43609v-40.375657z" fill="#ccc"/><path fill="#2f6491" d="M73.4952977 83.4760855 109.60114 96.6175394l36.640176-13.3359481-36.105842-13.1414653z"/><path d="M110.466633 69.2302771h-.662317L73.1641392 82.5662366v1.8196979l36.1058428 13.141454h.662316l36.640177-13.3359482v-1.8196979l-36.105842-13.1414653zm-.332697 1.9390987 33.27264 12.1107607-33.807109 12.304409-33.27264-12.1107608 33.807109-12.3044089z" fill="#ccc"/><path fill="#3775a9" d="M109.60114 96.6175394v42.4360786l36.640176-13.335948V83.2815913z"/><path d="M145.910158 82.3717424l-36.640177 13.3359481-.637082.9098489v42.4360786l1.299399.909849 36.640177-13.335948.637082-.909849V83.2815913l-1.299399-.9098489zm-.640686 2.2910425v40.3756571l-34.701764 12.629738V97.2925229l34.701764-12.629738z" fill="#ccc"/><path fill="#2f6491" d="M73.4952977 83.4760855 109.60114 96.6175394v42.4360786l-36.1058423-13.141454z"/><path d="M73.8264558 82.5662364l-1.2993993.9098491v42.4360785l.6370832.909849 36.1058423 13.141454 1.299399-.909849V96.6175394l-.637083-.909849-36.1058422-13.141454zm.6336022 2.2901967 34.171168 12.4360898V137.66818l-34.171168-12.436089V84.8564331z" fill="#ccc"/><path fill="#353564" d="M109.758947 27.4325303v42.4360788l36.640176-13.3359595V14.0965708z"/><path d="M146.067965 13.1867219l-36.640177 13.3359595-.637082.9098489v42.4360788l1.299399.9098489 36.640177-13.3359595.637083-.9098489V14.0965708l-1.2994-.9098489zm-.639701 2.289421v40.3756573L110.7265 68.4854112V28.1097538l34.701764-12.6336109z" fill="#ccc"/><path fill="#2f6491" d="M109.758947 27.4325303l36.105842 13.1414539 36.640176-13.3359481-36.105842-13.1414653z"/><path d="M146.730282 13.1867218h-.662317l-36.640177 13.3359596v1.8196979l36.105843 13.141454h.662316l36.640177-13.3359482v-1.8196979l-36.105842-13.1414654zm-.329904 1.9369813 33.268767 12.1107607-33.807109 12.3082819-33.27264-12.1107607 33.810982-12.3082819z" fill="#ccc"/><path fill="#3775a9" d="M145.864789 40.5739842V83.010063l36.640176-13.3359481V27.2380361z"/><path d="M182.173807 26.3281872l-36.640176 13.3359481-.637083.9098489V83.010063l1.299399.909849 36.640177-13.3359481.637083-.909849V27.2380361l-1.2994-.9098489zm-.637893 2.288925v40.3795304l-34.705637 12.629738V41.2507232l34.705637-12.633611z" fill="#ccc"/><path fill="#2f6491" d="M109.758947 27.4325303l36.105842 13.1414539V83.010063l-36.105842-13.1414539z"/><path d="M110.090105 26.5226812l-1.299399.9098491v42.4360788l.637083.909849 36.105842 13.141454 1.299399-.9098491V40.5739842l-.637083-.909849-36.105842-13.141454zm.636395 2.2919522 34.167295 12.4360898v40.3756574L110.7265 69.1902908V28.8146334z" fill="#ccc"/><g style="fill:#fff"><ellipse cx="205.090583" cy="168.866427" rx="7.0369197" ry="4.92730417"/><ellipse cx="159.542648" cy="56.7652232" rx="7.0369197" ry="4.92730417"/></g></svg>