<svg width="256" height="226" xmlns="http://www.w3.org/2000/svg" preserveAspectRatio="xMidYMid"><path fill="#F7F7F4" d="M37.232 86.773l36.106 13.141 36.64-13.336-36.106-13.141z"/><path d="M74.203 72.527h-.662l-36.64 13.336v1.82l36.106 13.141h.662l36.64-13.336v-1.82L74.203 72.527zm-.332 1.938l33.273 12.111-33.807 12.308L40.064 86.77l33.807-12.305z" fill="#CCC"/><path fill="#EFEEEA" d="M37.232 86.773l36.106 13.141v42.436L37.232 129.21z"/><path d="M37.563 85.863l-1.3.91v42.436l.638.91 36.106 13.141 1.3-.91V99.914l-.638-.91-36.106-13.141zm.634 2.29l34.172 12.435v40.38l-34.172-12.44V88.152z" fill="#CCC"/><path fill="#F7F7F4" d="M73.495 57.103l36.106 13.141 36.64-13.336-36.105-13.141z"/><path d="M110.467 42.857h-.663l-36.64 13.336v1.82l36.106 13.141h.662l36.64-13.336v-1.82l-36.105-13.141zm-.333 1.937l33.273 12.111-33.811 12.309-33.277-12.111 33.815-12.309z" fill="#CCC"/><path fill="#EFEEEA" d="M73.495 57.103l36.106 13.141v42.436L73.495 99.54z"/><path d="M73.827 56.193l-1.3.91v42.436l.637.91 36.106 13.141 1.3-.91V70.244l-.638-.91-36.105-13.141zm.633 2.289l34.171 12.44v40.375l-34.17-12.436v-40.38z" fill="#CCC"/><path fill="#F7F7F4" d="M.968 142.816l36.106 13.142 36.64-13.336-36.106-13.142z"/><path d="M37.94 128.57h-.663L.637 141.908v1.82l36.106 13.14h.662l36.64-13.335v-1.82L37.94 128.571zm-.331 1.937l33.276 12.11-33.815 12.31-33.272-12.112 33.81-12.308z" fill="#CCC"/><path fill="#EFEEEA" d="M.968 142.816l36.106 13.142v42.436L.968 185.252z"/><path d="M1.3 141.907l-1.3.91v42.435l.637.91 36.106 13.142 1.3-.91v-42.436l-.638-.91L1.3 141.907zm.635 2.291l34.167 12.436v40.376L1.935 184.574v-40.376z" fill="#CCC"/><path fill="#EFEEEA" d="M37.232 156.003l36.106 13.142v42.436l-36.106-13.142z"/><path d="M37.563 155.093l-1.3.91v42.436l.638.91 36.106 13.141 1.299-.91v-42.435l-.637-.91-36.106-13.142zm.634 2.289l34.172 12.44v40.375l-34.172-12.436v-40.38z" fill="#CCC"/><path fill="#F7F7F4" d="M37.232 113.146l36.106 13.142 36.64-13.336L73.872 99.81z"/><path d="M74.203 98.9h-.662L36.9 112.236v1.82l36.106 13.142h.662l36.64-13.336v-1.82L74.203 98.9zm-.332 1.94l33.273 12.11-33.807 12.305-33.273-12.11 33.807-12.305z" fill="#CCC"/><path fill="#EFEEEA" d="M37.232 113.146l36.106 13.142v42.436l-36.106-13.142z"/><path d="M37.563 112.236l-1.3.91v42.436l.638.91 36.106 13.142 1.299-.91v-42.436l-.637-.91-36.106-13.142zm.634 2.291l34.172 12.436v40.376l-34.172-12.436v-40.376z" fill="#CCC"/><path fill="#FFF" d="M218.392 142.771v42.436l36.64-13.336v-42.436z"/><path d="M254.7 128.525l-36.64 13.336-.637.91v42.436l1.3.91 36.64-13.336.637-.91v-42.436l-1.3-.91zm-.639 2.292v40.376l-34.702 12.63v-40.376l34.702-12.63z" fill="#CCC"/><path fill="#FFD242" d="M182.128 155.958v42.436l36.64-13.336v-42.436z"/><path d="M218.437 141.712l-36.64 13.336-.637.91v42.436l1.3.91 36.64-13.336.637-.91v-42.436l-1.3-.91zm-.639 2.288v40.38l-34.705 12.63v-40.376L217.798 144z" fill="#CCC"/><path fill="#FFD242" d="M145.865 169.145v42.436l36.64-13.336v-42.436z"/><path d="M182.174 154.899l-36.64 13.336-.637.91v42.436l1.299.91 36.64-13.336.637-.91v-42.436l-1.3-.91zm-.638 2.289v40.376l-34.706 12.633v-40.375l34.706-12.634z" fill="#CCC"/><path fill="#FFF" d="M109.601 182.331v42.436l36.64-13.336v-42.436z"/><path d="M145.91 168.085l-36.64 13.336-.637.91v42.436l1.3.91 36.64-13.336.637-.91v-42.436l-1.3-.91zm-.64 2.29v40.376l-34.702 12.634v-40.38l34.701-12.63z" fill="#CCC"/><path fill="#EFEEEA" d="M73.495 169.19l36.106 13.141v42.436l-36.106-13.141z"/><path d="M73.826 168.28l-1.299.91v42.436l.637.91 36.106 13.141 1.3-.91v-42.436l-.638-.91-36.106-13.141zm.634 2.289l34.171 12.436v40.38l-34.17-12.44v-40.376z" fill="#CCC"/><path fill="#FFD242" d="M218.392 99.914v42.436l36.64-13.336V86.578z"/><path d="M254.7 85.668l-36.64 13.336-.637.91v42.436l1.3.91 36.64-13.336.637-.91V86.578l-1.3-.91zm-.639 2.29v40.376l-34.702 12.634v-40.38l34.702-12.63z" fill="#CCC"/><path fill="#353564" d="M182.286 43.916v42.436l36.64-13.336V30.58z"/><path d="M218.595 29.67l-36.64 13.336-.638.91v42.436l1.3.91 36.64-13.336.637-.91V30.58l-1.3-.91zm-.638 2.29v40.375L183.252 84.97V44.593l34.705-12.634z" fill="#CCC"/><path fill="#FFC91D" d="M182.286 43.916l36.106 13.141 36.64-13.336-36.106-13.141z"/><path d="M219.257 29.67h-.662l-36.64 13.336v1.82l36.105 13.141h.663l36.64-13.336v-1.82l-36.106-13.14zm-.331 1.937l33.28 12.11-33.815 12.31-33.273-12.112 33.808-12.308z" fill="#CCC"/><path fill="#FFD242" d="M218.392 57.057v42.436l36.64-13.335V43.72z"/><path d="M254.7 42.812l-36.64 13.336-.637.91v42.435l1.3.91 36.64-13.336.637-.91V43.722l-1.3-.91zm-.639 2.288v40.38L219.36 98.11V57.734L254.061 45.1z" fill="#CCC"/><path fill="#FFD242" d="M182.128 113.101v42.436l36.64-13.336V99.765z"/><path d="M218.437 98.855l-36.64 13.336-.637.91v42.436l1.3.91 36.64-13.336.637-.91V99.765l-1.3-.91zm-.639 2.291v40.376l-34.705 12.63v-40.376l34.705-12.63z" fill="#CCC"/><path fill="#3775A9" d="M182.128 70.244v42.436l36.64-13.336V56.908z"/><path d="M218.437 55.998l-36.64 13.336-.637.91v42.436l1.3.91 36.64-13.336.637-.91V56.908l-1.3-.91zm-.639 2.29v40.376l-34.705 12.633V70.922l34.705-12.634z" fill="#CCC"/><path fill="#2F6491" d="M146.022 14.246l36.106 13.141 36.64-13.336L182.663.91z"/><path d="M182.994 0h-.663l-36.64 13.336v1.82l36.106 13.141h.662l36.64-13.336v-1.82L182.995 0zm-.335 1.936l33.273 12.115-33.807 12.304-33.273-12.11 33.807-12.309z" fill="#CCC"/><path fill="#3775A9" d="M182.128 27.387v42.436l36.64-13.336V14.051z"/><path d="M218.437 13.141l-36.64 13.336-.637.91v42.436l1.3.91 36.64-13.336.637-.91V14.051l-1.3-.91zm-.639 2.293v40.375l-34.705 12.63V28.063l34.705-12.63z" fill="#CCC"/><path fill="#AFAFDE" d="M109.759 155.582l36.106 13.142 36.64-13.336-36.106-13.142z"/><path d="M146.73 141.336h-.662l-36.64 13.336v1.82l36.106 13.142h.662l36.64-13.336v-1.82l-36.106-13.142zm-.333 1.94l33.272 12.111-33.807 12.304-33.273-12.11 33.808-12.305z" fill="#CCC"/><path fill="#FFD242" d="M145.865 126.288v42.436l36.64-13.336v-42.436z"/><path d="M182.174 112.042l-36.64 13.336-.637.91v42.436l1.299.91 36.64-13.336.637-.91v-42.436l-1.3-.91zm-.638 2.292v40.375l-34.706 12.63v-40.376l34.706-12.63z" fill="#CCC"/><path fill="#3775A9" d="M145.865 83.43v42.437l36.64-13.336V70.095z"/><path d="M182.174 69.185l-36.64 13.336-.637.91v42.436l1.299.91 36.64-13.336.637-.91V70.095l-1.3-.91zm-.638 2.29v40.376l-34.706 12.63V84.105l34.706-12.63z" fill="#CCC"/><path fill="#E9E9FF" d="M110.135 112.997l36.106 13.141v42.437l-36.106-13.142z"/><path d="M110.467 112.087l-1.3.91v42.436l.637.91 36.106 13.141 1.3-.91v-42.436l-.638-.91-36.105-13.14zm.635 2.29l34.167 12.435v40.38l-34.167-12.44v-40.376z" fill="#CCC"/><path fill="#3775A9" d="M109.601 139.474v42.436l36.64-13.335v-42.437z"/><path d="M145.91 125.229l-36.64 13.336-.637.91v42.435l1.3.91 36.64-13.336.637-.91v-42.436l-1.3-.91zm-.64 2.288v40.38l-34.702 12.63V140.15l34.701-12.634z" fill="#CCC"/><path fill="#2F6491" d="M73.495 126.333l36.106 13.141v42.436L73.495 168.77z"/><path d="M73.826 125.423l-1.299.91v42.436l.637.91 36.106 13.141 1.3-.91v-42.436l-.638-.91-36.106-13.14zm.634 2.292l34.171 12.436v40.375l-34.17-12.436v-40.375z" fill="#CCC"/><path fill="#2F6491" d="M73.495 83.476l36.106 13.142 36.64-13.336-36.106-13.142z"/><path d="M110.467 69.23h-.663l-36.64 13.336v1.82l36.106 13.141h.662l36.64-13.336v-1.82l-36.105-13.14zm-.333 1.94l33.273 12.11-33.808 12.305-33.272-12.111 33.807-12.305z" fill="#CCC"/><path fill="#3775A9" d="M109.601 96.618v42.436l36.64-13.336V83.282z"/><path d="M145.91 82.372l-36.64 13.336-.637.91v42.436l1.3.91 36.64-13.336.637-.91V83.282l-1.3-.91zm-.64 2.29v40.376l-34.702 12.63V97.293l34.701-12.63z" fill="#CCC"/><path fill="#2F6491" d="M73.495 83.476l36.106 13.142v42.436l-36.106-13.142z"/><path d="M73.826 82.566l-1.299.91v42.436l.637.91 36.106 13.141 1.3-.91V96.619l-.638-.91-36.106-13.142zm.634 2.29l34.171 12.437v40.375l-34.17-12.436V84.856z" fill="#CCC"/><path fill="#353564" d="M109.759 27.433v42.436l36.64-13.336V14.097z"/><path d="M146.068 13.187l-36.64 13.336-.637.91v42.436l1.3.91 36.64-13.337.636-.91V14.098l-1.299-.91zm-.64 2.29v40.375l-34.701 12.633V28.11l34.701-12.634z" fill="#CCC"/><path fill="#2F6491" d="M109.759 27.433l36.106 13.141 36.64-13.336-36.106-13.141z"/><path d="M146.73 13.187h-.662l-36.64 13.336v1.82l36.106 13.14h.662l36.64-13.335v-1.82L146.73 13.187zm-.33 1.937l33.27 12.11-33.808 12.309-33.273-12.111L146.4 15.124z" fill="#CCC"/><path fill="#3775A9" d="M145.865 40.574V83.01l36.64-13.336V27.238z"/><path d="M182.174 26.328l-36.64 13.336-.637.91V83.01l1.299.91 36.64-13.336.637-.91V27.238l-1.3-.91zm-.638 2.29v40.379l-34.706 12.63V41.25l34.706-12.634z" fill="#CCC"/><path fill="#2F6491" d="M109.759 27.433l36.106 13.141V83.01L109.759 69.87z"/><path d="M110.09 26.523l-1.3.91v42.436l.638.91 36.106 13.14 1.299-.909V40.574l-.637-.91-36.106-13.141zm.636 2.292l34.168 12.436v40.375L110.726 69.19V28.815z" fill="#CCC"/><ellipse fill="#FFF" cx="205.091" cy="168.866" rx="7.037" ry="4.927"/><ellipse fill="#FFF" cx="159.543" cy="56.765" rx="7.037" ry="4.927"/></svg>