<svg width="512px" height="173px" viewBox="0 0 512 173" xmlns="http://www.w3.org/2000/svg" preserveAspectRatio="xMidYMid"><title>PyScript</title><path d="M170.139104 16.1474186c12.970139-12.96591864 34.25309-21.91866464 51.437403-11.75094079 3.77656 2.23449356 7.300155 5.06381453 10.242638 8.32178049 9.074613 10.0469119 11.85276 24.0399959 11.915276 37.1931994.124769 26.2214694-9.355276 56.0923563-34.555647 68.7815683-9.634622 4.85147-20.3977 6.591901-31.126224 6.122106-6.041461-.264741-12.117399-1.490625-18.161911-1.568526l-.566579-.003876v46.425554h-20.047398V3.22212232h20.047398V29.8640595h.263781c2.19097-5.077795 6.687654-9.8540876 10.551263-13.7166409zm1.431014 20.3111798c-1.706497 1.9754412-3.301319 4.0225274-4.861975 6.1116908l-1.03346 1.3855636c-2.246773 3.0007743-4.877647 6.4911938-6.095019 9.9123283-.910574 2.558681-.255604 6.2690324-.255604 8.9685729v42.46883l.844976.173205c13.803839 2.80858 27.722946 4.557248 40.304946-3.453592 17.279275-11.0018011 22.710801-32.5809788 21.389783-51.8499577l-.039878-.5588299c-.677826-9.1297436-2.677489-18.3487577-9.483691-25.0176936-13.437824-13.1666563-31.313245.9126842-40.770078 11.8598826zm90.101185-33.23647608c.852015 2.96094797 2.595611 5.65310253 3.874952 8.44100978 3.133724 6.8264029 6.502215 13.5488759 9.773106 20.3111798 9.21389 19.0439732 18.409315 38.1111592 27.443833 57.2405976 2.806636 5.9428666 5.71829 11.8366575 8.55118 17.7670785l1.208738 2.544101c1.239773 2.625946 3.650737 5.806888 4.054322 8.704792.195918 1.39746-.933304 3.115373-1.46729 4.395682l-.036265.088604c-1.577413 3.93694-3.423884 7.700575-5.605358 11.342607l-.860398 1.439108c-1.960495 3.272919-4.012594 6.591769-6.601982 9.375936l-.391908.419862c-2.032969 2.167467-4.196292 4.296144-6.706454 5.896651-11.047171 7.046397-23.326202 5.407786-35.346728 2.65206v17.673364l.842389.107706c13.762752 1.741313 27.700305 2.563378 40.571315-3.871869 13.107306-6.553389 20.99965-19.511658 27.501865-32.110129 11.88204-23.023243 20.787311-47.7071017 30.7786-71.6090825l.389829-.930845c5.491932-13.0848841 10.865162-26.2188315 16.354456-39.3034518 1.806904-4.3038599 3.561051-8.6311963 5.389058-12.9252963 1.036661-2.43312103 2.490097-5.03558986 2.941164-7.64966508h-14.244204c-1.432334 0-4.196765-.52782689-5.436538.27116744-1.487728.95990109-2.136631 4.47980217-2.814549 6.05958991-2.363483 5.49562493-4.505389 11.08858523-6.7871 16.61823803-6.304379 15.2795466-12.598207 30.5680618-18.778609 45.8979907-2.719587 6.7419928-6.710602 13.7707161-8.388253 20.8387429h-.527563l-3.890778-8.1772282-6.855683-13.9804225-21.368944-43.7877382-8.309119-16.8820196-3.532035-6.58715304-5.898155-.27116744h-15.826894zM0 64.6832248c2.39809088 1.9870665 5.91828212 3.1561464 8.70479134 4.5494405L80.4533745 105.106957c7.171693 3.585846 14.2989552 7.250456 21.4602475 10.856347l3.071437 1.541386c3.546807 1.773403 7.696882 4.777348 11.606389 5.474259v-12.925297l-.271168-5.172756-6.05959-3.333407-15.2993299-7.6496655-40.358578-20.3111798-17.6733643-8.9034189 17.6733643-8.7699453 40.0947965-19.9170902 15.5631114-7.7799732 6.05959-3.2682535.271168-5.1076023V6.65128255c-4.078327.72698197-8.432833 3.88761255-12.133952 5.73804015L26.3781556 51.428993C17.6293127 55.8035463 8.44607439 59.7536751 0 64.6832248zM395.672334 6.65128255V19.5765788c0 1.3824791-.495909 3.9720227.271695 5.1727563.957527 1.5003895 4.233694 2.4228336 5.795281 3.2030994l15.035548 7.5161917c13.291953 6.6459763 26.536425 13.3998392 39.831015 20.0473982 5.919258 2.9591015 12.09966 7.3333911 18.464709 9.1672004v.5275632c-6.83458 1.9691293-13.679711 6.5114477-20.047398 9.6947635l-38.512107 19.2560536c-4.634642 2.3175847-9.224441 4.8667697-13.980423 6.9234749l-.183236.077572c-1.805388.750401-5.401869 1.885159-6.403389 3.454463-.767604 1.200733-.271695 3.790013-.271695 5.172756v13.189078l14.507985-7.056948 77.024215-38.5121074L512 64.9470064c-2.653642-2.6805482-7.705059-4.181729-11.078825-5.8683483L404.904688 11.070415c-2.964904-1.48297995-6.043235-3.50038129-9.232354-4.41913245z" fill="#fda703"/></svg>