<svg width="256px" height="255px" viewBox="0 0 256 255" xmlns="http://www.w3.org/2000/svg" preserveAspectRatio="xMidYMid"><defs><linearGradient x1="12.9593594%" y1="12.0393928%" x2="79.6388325%" y2="78.2008538%" id="a"><stop stop-color="#387eb8"/><stop stop-color="#366994" offset="1"/></linearGradient><linearGradient x1="19.127525%" y1="20.5791813%" x2="90.7415328%" y2="88.4290372%" id="b"><stop stop-color="#ffe052"/><stop stop-color="#ffc331" offset="1"/></linearGradient></defs><path d="M126.915866.0722755491C62.0835831.0722801733 66.1321288 28.1874648 66.1321288 28.1874648l.0722755 29.1270467h61.8678717v8.7453417H41.6307171c0 0-41.486166002-4.7049094-41.486166002 60.7114618-4.624e-6 65.416358 36.210050802 63.096556 36.210050802 63.096556h21.6103896V159.51214c0 0-1.1648552-36.210051 35.6318464-36.210051H154.95878c0 0 34.475438.557297 34.475438-33.3190286V33.9695088c0-4.7e-6 5.234323-33.8972332509-62.518352-33.8972332509h0 0zM92.8018069 19.6589497c6.1553999-4.5e-6 11.1304351 4.9750349 11.1304351 11.1304348 4e-6 6.1553999-4.9750352 11.1304348-11.1304351 11.1304348-6.1553999 4.6e-6-11.1304348-4.9750349-11.1304348-11.1304348-4.7e-6-6.1553999 4.9750349-11.1304348 11.1304348-11.1304348h0 0z" fill="url(#a)"/><path d="M128.757101 254.126271c64.832302 0 60.783738-28.11519 60.783738-28.11519l-.072275-29.127046h-61.867872v-8.745342h86.441559c0 0 41.486166 4.704896 41.486166-60.711485 2.3e-5-65.4163514-36.210051-63.0965491-36.210051-63.0965491h-21.61039v30.3557243c0 0 1.164874 36.2100508-35.631846 36.2100508h-61.361948c0 0-34.475437-.557296-34.475437 33.319052v56.013552c0 0-5.2343225 33.897233 62.518356 33.897233h0 0zm34.114059-19.586674c-6.155401 0-11.130434-4.975033-11.130434-11.130435 0-6.155403 4.975033-11.130435 11.130434-11.130435 6.155403 0 11.130435 4.975032 11.130435 11.130435 2.3e-5 6.155402-4.975032 11.130435-11.130435 11.130435h0 0z" fill="url(#b)"/></svg>