<svg width="256px" height="310px" viewBox="0 0 256 310" xmlns="http://www.w3.org/2000/svg" preserveAspectRatio="xMidYMid"><title>PyTorch</title><path d="M127.825375 0v45.053206l-69.2239365 69.221375c-36.2289887 36.744698-36.2252919 95.853013.0110905 133.264191l1.1091627 1.126985c37.0204638 37.718963 97.7899043 37.718963 135.5088673 0 37.341774-36.650259 37.715192-96.57689 1.120254-134.37043l-1.120254-1.138438 23.050478-23.050477c50.291951 50.291951 50.291951 130.968622 0 181.609823-49.244202 50.291951-130.2701229 50.291951-180.5620738 0-49.7890314-49.789032-50.2869217-129.700427-1.493671-180.0919057l1.493671-1.5179173L127.825375 0zm45.402456 50.9904502c9.258492 0 16.763983 7.5054911 16.763983 16.7639836 0 9.2584925-7.505491 16.7639837-16.763983 16.7639837-9.258493 0-16.763984-7.5054912-16.763984-16.7639837 0-9.2584925 7.505491-16.7639836 16.763984-16.7639836z" fill="#ee4c2c"/></svg>