<svg width="256" height="296" xmlns="http://www.w3.org/2000/svg" preserveAspectRatio="xMidYMid"><defs><linearGradient x1="81.562%" y1="44.842%" x2="-18.086%" y2="44.842%" id="a"><stop stop-color="#FF3364" offset="0%"/><stop stop-color="#C91540" stop-opacity="0" offset="100%"/></linearGradient></defs><path fill="#24386C" d="M201.317 271.722l-5.894-162.51-10.675-42.844L256 73.911v196.582l-43.525 25.12z"/><path fill="#7589BE" d="M255.995 73.9L212.47 99.037l-89.82-19.702L17.516 122.14 0 73.9l63.988-36.95L127.996 0l63.99 36.95z"/><path fill="#B2BFE8" d="M.003 73.9l43.525 25.137 25.231 75.037 85.19 68.162-25.948 53.363-64.008-36.952-63.99-36.95v-147.8"/><path fill="#24386C" d="M156.857 202.807L128 245.347v50.256l40.946-23.625 21.097-31.503"/><path fill="#7589BE" d="M128.019 195.107l-40.963-70.922 8.823-23.507 33.542-16.262 39.525 39.77z"/><path fill="#B2BFE8" d="M87.056 124.179L128 147.804v47.288l-37.87 1.629-22.906-29.25 19.83-43.292"/><path fill="#24386C" d="M128.001 147.8l40.946-23.623 27.866 46.4-33.722 27.862-35.09-3.35z"/><path d="M168.947 271.975l43.525 23.626V99.04l-42.245-24.38L128 50.276 85.756 74.658 43.53 99.04v97.542l42.226 24.381 42.245 24.383 40.946-23.646v50.276zm0-100.531L128 195.088l-40.945-23.644v-47.269L128 100.531l40.946 23.644v47.269" fill="#DC244C"/><path fill="url(#a)" d="M128.019 245.363v-50.264l-40.733-23.442v50.18z"/></svg>