<svg width="256px" height="296px" viewBox="0 0 256 296" xmlns="http://www.w3.org/2000/svg" preserveAspectRatio="xMidYMid"><title>qdrant</title><defs><linearGradient x1="81.5619048%" y1="44.8421053%" x2="-18.0857143%" y2="44.8421053%" id="a"><stop stop-color="#ff3364" offset="0%"/><stop stop-color="#c91540" stop-opacity="0" offset="100%"/></linearGradient></defs><path fill="#24386c" d="M201.31705 271.722427l-5.894335-162.509757-10.674934-42.8444332L256 73.9112545V270.492509l-43.525243 25.120117z"/><path fill="#7589be" d="M255.995151 73.8998107 212.469908 99.037384l-89.820274-19.7027369L17.5160008 122.140288 1.1370484e-14 73.8998107 63.9883137 36.9499053 127.996024 0l63.990253 36.9499053z"/><path fill="#b2bfe8" d="M.00310340412 73.8998107 43.5283462 99.037384l25.2306755 75.036432 85.1903833 68.162393-25.948338 53.363034-64.0077102-36.951845L.00310340412 221.697492V73.897871"/><path fill="#24386c" d="M156.856906 202.807459l-28.855839 42.539912v50.255751l40.945538-23.624664 21.097329-31.503431"/><path fill="#7589be" d="M128.018523 195.107138l-40.9629943-70.922482 8.8231718-23.506347L129.42068 84.4156955l39.525731 39.7701235z"/><path fill="#b2bfe8" d="M87.0555287 124.178837l40.9455383 23.624664v47.28812l-37.869289 1.629306-22.9070017-29.249583 19.8307524-43.292488"/><path fill="#24386c" d="M128.001067 147.799621l40.945538-23.622724 27.866629 46.399771-33.722365 27.86275-35.089802-3.350125z"/><path d="M168.946605 271.974579l43.525243 23.626603V99.0393237L170.226759 74.658205l-42.225692-24.3811186L85.7559782 74.658205 43.5302858 99.0393237v97.5419313l42.2256924 24.381118 42.2450888 24.383059 40.945538-23.646v50.275147zm0-100.530898-40.945538 23.644061-40.9455383-23.644061v-47.268724l40.9455383-23.64406 40.945538 23.64406v47.268724" fill="#dc244c"/><path fill="url(#a)" d="M128.018523 245.362888v-50.263509l-40.7321787-23.442338v50.180105z"/></svg>