<svg width="512px" height="151px" viewBox="0 0 512 151" xmlns="http://www.w3.org/2000/svg" preserveAspectRatio="xMidYMid"><path d="M299.947636 79.757511c-2.264072-3.6954191.719018-6.795558.719018-6.795558l26.22577-27.0618382c2.979745-3.1001389-1.310954-3.1001389-1.310954-3.1001389h-24.43993c-4.290699 0-7.270444 3.1001389-7.270444 3.1001389l-24.202487 25.7508841c-2.979745 3.1001389-2.979745-1.1939046-2.979745-1.1939046V14.1863961c0-4.29069922-4.290699-4.29069922-4.290699-4.29069922h-18.48044c-4.17365 0-4.17365 4.17364982-4.17365 4.17364982V131.734166c0 4.294043 4.294044 4.294043 4.294044 4.294043h18.360046c4.170305 0 4.170305-4.17365 4.170305-4.17365v-20.624117c0-4.290699 3.100139-7.273789 3.100139-7.273789l8.701792-8.1065116 21.697628 36.4826486c2.147022 3.695419 6.437721 3.695419 6.437721 3.695419h23.24937c4.290699 0 2.026628-3.695419 2.026628-3.695419l-31.834112-52.575279zm-79.51338 51.976655V46.9736257c0-4.2940435-4.290699-4.2940435-4.290699-4.2940435h-18.597489c-4.290699 0-4.290699 4.2940435-4.290699 4.2940435v84.7605403c0 4.294043 4.290699 4.294043 4.290699 4.294043h18.597489c4.290699 0 4.290699-4.294043 4.290699-4.294043zm-.715674-105.625445V13.9489529c0 0 0-4.17364976-4.173649-4.17364976H197.42233c0 0-4.170306 0-4.170306 4.17364976V26.108721c0 0 0 4.1736498 4.170306 4.1736498h18.239652c0 0 4.0566 0 4.0566-4.1736498h0zm-46.378345 105.625445V14.3067899c0-4.2906993-4.290699-4.2906993-4.290699-4.2906993h-18.955326c-4.2907 0-4.2907 4.2906993-4.2907 4.2906993V131.734166c0 4.294043 4.2907 4.294043 4.2907 4.294043h18.955326c4.290699 0 4.290699-4.294043 4.290699-4.294043zm-42.559189-5.003029c0 0 2.384465-2.742302-.357837-5.126767l-15.139513-13.233279c6.795558-10.1331403 10.848814-22.1725147 10.848814-35.2887443 0-34.8105133-28.2557426-63.0629118-63.0662559-63.0629118C28.2523985 10.0160906 0 38.2684892 0 73.0790025 0 107.89286 28.2557428 136.145259 63.0662561 136.145259c12.7550483 0 24.5569795-3.812469 34.5730701-10.370584l16.6879108 14.42384c0 0 2.742302 2.384465 5.126767-.357837l11.327044-13.109541zM99.428511 72.9652973c0 20.1458864-16.3334179 36.4793047-36.4826486 36.4793047-20.1458865 0-36.4793044-16.3334183-36.4793044-36.4793047 0-20.1492308 16.3334179-36.4793044 36.4793044-36.4793044 20.1492307.1170495 36.4826486 16.3300736 36.4826486 36.4793044z" fill="#54565b"/><path d="M510.369146 128.038747l-20.266281-17.045748c7.033002-11.206651 11.203307-24.43993 11.203307-38.6263262C501.306172 32.4260483 468.880124 0 428.942843 0c-39.93728 0-72.363328 32.4260483-72.363328 72.3666728 0 39.9372802 32.426048 72.3633282 72.363328 72.3633282 15.497351 0 29.924534-4.889323 41.726465-13.233279l21.577235 18.122603c0 0 3.220532 2.742302 5.962834-.478231l12.875442-15.259907c-.120393 0 2.501515-3.217188-.715673-5.84244h0zM473.41161 72.3666728c0 24.5569795-19.908443 44.4654232-44.468767 44.4654232-24.556979 0-44.468767-19.9084437-44.468767-44.4654232 0-24.5603237 19.911788-44.4687669 44.468767-44.4687669 24.560324 0 44.468767 19.9084432 44.468767 44.4687669z" fill="#009848"/><path d="M400.329264 72.3666728c0-15.7363521 12.756834-28.493186 28.493186-28.493186 15.736352 0 28.493186 12.7568339 28.493186 28.493186 0 15.7363521-12.756834 28.4931862-28.493186 28.4931862-15.736352 0-28.493186-12.7568341-28.493186-28.4931862z" fill="#54565b"/></svg>