<svg width="256px" height="192px" viewBox="0 0 256 192" xmlns="http://www.w3.org/2000/svg" preserveAspectRatio="xMidYMid"><path fill="#41cd52" d="M231.39151 0h-8.899673H35.5114422L0 36.0842074V156.748201v9.842034 25.000948h24.6049796 8.8996735H220.485047l35.511443-36.083321V34.842095v-9.8402609V0z"/><path d="M95.4533604 33.5122102c16.6650756 0 28.3568026 4.7884718 34.9879326 14.4523013 6.71838 9.5751706 10.033945 24.3812214 10.033945 44.4181521 0 13.2093024-1.396027 23.8483804-4.10083 31.9172344-2.792927 8.156627-7.241891 14.362756-13.524014 18.618388l13.524014 22.252518-16.665075 7.891537-14.39653-24.027472c-2.094041.620613-5.3223541.976136-9.8594426.976136-16.8395779 0-28.6185576-4.610267-35.2496871-13.831689-6.631129-9.219648-9.9466936-23.848381-9.9466936-43.70888 0-19.9482718 3.4028162-34.7534359 10.1211973-44.4172657 6.7183806-9.6647159 18.4101087-14.5409601 35.0751834-14.5409601zm84.9831566 6.3843336v23.9379261h22.336436v15.3371182h-22.336436V115.434c0 6.737197.52351 11.170146 1.483279 13.298848.958896 2.216474 3.490068 3.280382 7.416394 3.280382l13.262259-.53284.784393 14.363642c-7.153767 1.417657-12.651497 2.127816-16.489699 2.127816-9.161429 0-15.443551-2.127816-18.84724-6.383447-3.401944-4.255632-5.146978-12.324486-5.146978-24.203903V79.0838157h-12.389741V63.8344699h12.389741V39.8965438h17.537592zm-84.6635996 8.426022c-10.0990014 0-17.0638304 3.4276353-20.8944861 10.3731072-3.7435952 6.9454718-5.6589233 17.9499856-5.6589233 33.1939431 0 15.1537569 1.8282675 26.0680699 5.4848025 32.5625369 3.656535 6.494467 10.7084242 9.831902 21.0686069 9.831902 10.3601826 0 17.3250116-3.247234 20.9815466-9.6515 3.569475-6.404266 5.397743-17.318579 5.397743-32.5625366 0-15.3341587-1.828268-26.4288736-5.571864-33.3743454-3.743595-6.9454719-10.708424-10.3731072-20.8074256-10.3731072z" fill="#fff"/></svg>