<svg width="512px" height="95px" viewBox="0 0 512 95" xmlns="http://www.w3.org/2000/svg" preserveAspectRatio="xMidYMid"><title>Qualcomm</title><path d="M138.191024 26.9848192c1.372109 0 2.548203 1.1107553 2.548203 2.5482033v48.6772163c0 1.3721095-1.241433 2.4828648-2.548203 2.4828648h-6.599194c-1.241432 0-2.482864-.9800782-2.482864-2.3521877v-4.5083596c-3.332266 4.9003909-9.082058 8.2979953-17.445392 8.2979953-13.9824486 0-22.6071366-9.2780735-22.6071366-23.0645066V29.4023454c0-1.3721094 1.2414323-2.4828647 2.5482032-2.4828647h6.5991931c1.3721095 0 2.4828643 1.1107553 2.4828643 2.4828647v27.7688818c0 8.9513807 4.704376 14.8971884 13.982449 14.8971884 9.082058 0 14.439819-6.1418233 14.439819-14.7665113V29.4023454c0-1.3721094 1.241432-2.4828647 2.482864-2.4828647h6.599194M40.8365909 2.13162821e-14C18.2294542 2.13162821e-14 0 17.5760687 0 41.0326065 0 64.5544828 18.2294542 82.065213 40.8365909 82.065213c3.8549741 0 7.5792712-.5227084 11.1075527-1.5027865l4.4430211 11.4342454c.4573698 1.2414324 1.3721094 2.0254949 3.0055731 2.0254949h7.0565629c1.6988021 0 2.9402345-1.1107553 2.156172-3.2669273l-5.749792-14.9625268c11.3035683-7.1219015 18.817501-19.7322408 18.817501-34.8254447 0-23.3911993-18.2294541-40.967267999999976-40.8365908-40.967267999999976m17.7720843 64.8811756-5.1617451-13.3944018c-.4573698-1.1107553-1.3721094-2.156172-3.3322658-2.156172h-6.7298702c-1.6988021 0-3.005573 1.1107552-2.2215105 3.2669272l6.7952087 17.5760687c-2.2215105.588047-4.6390367.8494011-7.1219014.8494011-16.530652 0-28.2915902-13.0023705-28.2915902-29.9903923 0-16.9880218 11.7609382-29.9903923 28.2915902-29.9903923 16.530652 0 28.2915901 13.0023705 28.2915901 29.9903923 0 9.9314589-3.9856512 18.4254698-10.5195058 23.8485691M511.796826 77.9488847c.588047 1.3721094-.130677 2.6788803-1.764141 2.6788803h-7.383255c-1.37211 0-2.482865-.6533854-2.940235-2.0254949l-13.655756-36.7202625-13.851771 36.7202625c-.588047 1.437448-1.568126 2.0254949-2.940235 2.0254949h-6.599193c-1.37211 0-2.352188-.5880469-2.940235-2.0254949L445.739557 41.685992l-13.786433 36.9162781c-.588047 1.3721095-1.568126 2.0254949-2.940235 2.0254949h-6.925886c-1.372109 0-2.352187-.6533854-2.940234-2.0254949L405.491013 41.685992l-14.113126 36.9162781c-.588047 1.437448-1.568125 2.0254949-2.940235 2.0254949h-6.599193c-1.372109 0-2.352187-.5880469-2.940234-2.0254949L365.111792 41.685992l-13.786433 36.9162781c-.45737 1.3721095-1.568126 2.0254949-2.940235 2.0254949h-7.18724c-1.698802 0-2.352188-1.3721094-1.764141-2.6788803l18.686824-48.873232c.588047-1.437448 1.568125-2.156172 2.940235-2.156172h8.036641c1.372109 0 2.352188.6533855 2.940234 2.156172l13.459741 35.6748458 13.329063-35.6748458c.588047-1.437448 1.568125-2.156172 2.940235-2.156172h7.905964c1.372109 0 2.352187.6533855 2.940234 2.156172L425.8113 64.7504985l13.198386-35.6748458c.588047-1.437448 1.568126-2.156172 2.940235-2.156172h7.971303c1.372109 0 2.352187.6533855 2.940234 2.156172l13.394402 35.6748458 13.067709-35.6748458c.588047-1.437448 1.568125-2.156172 2.940235-2.156172h8.036641c1.372109 0 2.352187.6533855 2.940234 2.156172l18.556147 48.873232M202.157459 26.9848192h-6.599193c-1.372109 0-2.548203 1.1107553-2.548203 2.5482033v4.4430211c-3.332266-5.031068-9.86612-8.624688-17.576069-8.624688-14.570495 0-27.050157 11.499584-27.050157 28.2915902 0 16.9880218 12.545 28.4222672 26.984819 28.4222672 7.840625 0 14.178464-3.59362 17.706746-8.624688v4.7043753c0 1.3721094 1.241432 2.4828647 2.548203 2.4828647h6.599193c1.372109 0 2.482865-1.1107553 2.482865-2.4828647V29.5330225c-.065339-1.437448-1.176094-2.5482033-2.548204-2.5482033m-25.482032 44.3648724c-9.604766 0-16.465314-7.8406255-16.465314-17.5760687 0-9.8661204 6.795209-17.4453917 16.465314-17.4453917 9.539427 0 16.465313 7.5792713 16.465313 17.4453917-.065338 9.8007818-6.991224 17.5760687-16.465313 17.5760687m104.21498 1.6988021c1.437448 1.7641408.196015 3.1362502-.588047 3.7242971-4.573698 3.4629429-10.650183 5.3577608-17.249376 5.3577608-16.661329 0-27.768882-12.218308-27.768882-28.2915902 0-16.0732822 11.107553-28.4222672 27.768882-28.4222672 6.599193 0 12.610339 1.8948178 17.249376 5.3577607.784062.5880469 1.894818 1.7641407.588047 3.7242971l-3.136251 4.3776825c-1.241432 1.6988022-2.67888 1.2414324-3.920312.4573698-2.940235-1.7641407-6.403178-3.2669272-10.388829-3.2669272-9.735443 0-16.203959 7.8406254-16.203959 17.7720843 0 9.9314589 6.468516 17.7067458 16.203959 17.7067458 4.05099 0 7.252579-1.5681251 10.192813-3.2669273 1.241432-.6533854 2.548203-1.2414323 3.920313.5880469l3.332266 4.1816669h0zm31.101147-47.566461c-15.681251 0-28.160913 12.2836465-28.160913 28.2915902 0 16.1386207 12.545001 28.2915901 28.160913 28.2915901 15.681251 0 28.161167-12.218308 28.161167-28.2915901.065085-15.9426051-12.479916-28.2915902-28.161167-28.2915902m0 45.8023203c-9.604766 0-16.465313-7.7099483-16.465313-17.4453916 0-9.8661204 6.795209-17.4453916 16.465313-17.4453916 9.604766 0 16.465314 7.5792712 16.465314 17.4453916 0 9.7354433-6.795209 17.4453916-16.465314 17.4453916M225.287305 1.437448c1.437448 0 2.482864 1.24143236 2.482864 2.54820327V78.0795617c0 1.3721095-.980078 2.5482033-2.482864 2.5482033h-6.599194c-1.372109 0-2.548203-1.2414324-2.548203-2.5482033V4.05098981c0-1.37210945 1.241433-2.54820327 2.548203-2.54820327h6.599194" fill="#3253dc"/></svg>