<svg width="256px" height="257px" viewBox="0 0 256 257" xmlns="http://www.w3.org/2000/svg" preserveAspectRatio="xMidYMid"><path d="M213.554286 0c23.417523.0808856956 42.376962 19.0522859 42.443077 42.4698554h0V213.554286c-.066191 23.427981-19.041874 42.403664-42.469855 42.469855h0-25.439069l-11.661804-28.3177h37.127651c7.773812-.100971 14.051184-6.378343 14.152155-14.152155h0V42.4698554c-.100971-7.7738118-6.378343-14.0511841-14.152155-14.1521554h0H42.4698554c-7.7738118.1009713-14.0511841 6.3783436-14.1521554 14.1521554h0V213.554286c.1009713 7.773812 6.3783436 14.051184 14.1521554 14.152155h0 62.6068866l22.935329-48.494898 31.624779 76.812598H42.4698554C19.0418742 255.95795.0661915219 236.982267 0 213.554286h0V42.4698554C.0661915219 19.0418742 19.0418742.0661915219 42.4698554 0h0H213.554286zm-43.982811 139.727431v45.509155l-39.417167-22.747883 39.417167-22.761272zM86.452666 94.2182765v45.5091545l-39.4171672-22.761272L86.452666 94.2182765zm80.976572-49.231292v45.5091547l-39.417167-22.7612721 39.417167-22.7478826z" fill="#4695eb"/><path d="M86.452666 139.727431l39.417167 22.761272-39.417167 22.747883v-45.509155zm83.118809-45.5091545 39.417167 22.7478825-39.417167 22.761272V94.2182765zm-80.9765715-49.231292 39.4171675 22.7478826-39.4171675 22.7612721V44.9869845z" fill="#ff004a"/><path d="M86.452666 94.2182765l39.417167 22.7478825v45.522544l-39.417167-22.761272V94.2182765zm83.118809 0v45.5091545l-39.417167 22.761272v-45.522544l39.417167-22.7478825zm-41.559404-26.4834094 39.417167 22.7612721-39.417167 22.7612718-39.4171675-22.7612718 39.4171675-22.7612721z" fill="#091313"/></svg>