<svg width="256px" height="236px" viewBox="0 0 256 236" xmlns="http://www.w3.org/2000/svg" preserveAspectRatio="xMidYMid"><path d="M200.133973 0l55.555414 117.51424-55.555414 117.517653h-47.295146L208.39424 117.51424 152.838827 0h47.295146zm-90.053526 99.8357161 20.05527-38.091302-2.289317-8.8684674L102.847147 0H55.552l48.646827 102.898347 5.88162-3.0626309zm17.765954 74.4329039-17.333372-39.033937-6.314202-3.101136L55.552 235.031893h47.295147l24.999253-52.87936 1e-6-7.883913z" fill="#40b4e5"/><path d="M152.84224 235.031893 97.2868267 117.51424 152.84224 0h47.295147l-55.555414 117.51424 55.555414 117.517653H152.84224zm-97.2868267 0L-7e-15 117.51424 55.5554133 0H102.85056L47.2951467 117.51424 102.85056 235.031893H55.5554133z" fill="#003764"/></svg>