<svg width="256px" height="272px" viewBox="0 0 256 272" xmlns="http://www.w3.org/2000/svg" preserveAspectRatio="xMidYMid"><title>Qwik</title><path d="M224.802633 271.548066l-48.758903-48.482927-.74508.106441v-.531652L71.6062201 120.251664l25.550567-24.6666751L82.1459867 9.46423235 10.923994 97.7115967C-1.21249511 109.938494-3.44814914 129.82085 5.28159772 144.493127l44.50039238 73.787694c6.8134297 11.376473 19.1626783 18.18096 32.4704368 18.07452l22.0374941-.212881 120.512712 35.405606z" fill="#18b6f6"/><path d="M251.41376 96.0096521l-9.794685-18.0745201-5.110223-9.249866-2.022363-3.6151234-.21288.2128802-26.828397-46.4628684C200.738387 7.12474433 188.176258-.105173442 174.549179 4.00642427e-13L151.021523.639029547 80.8637673.851690324C67.5565576.958020713 55.4201892 7.97527771 48.7129802 19.3517514L6.02242644 103.983883 82.3544777 9.25113264 182.427394 119.187811l-17.77934 17.968629 10.646206 86.014591.10644-.21288v.21288h-.21288l.21288.212331 8.303976 8.080671 40.348487 39.445392c1.70359 1.594956 4.471582-.318772 3.300192-2.338939l-24.911377-49.014579 43.435799-80.272859 1.383721-1.594956c.532201-.638092 1.064402-1.275635 1.490711-1.913728 8.516855-11.589354 9.687697-27.112054 2.661551-39.7647119z" fill="#ac7ef4"/><path fill="#fff" d="M182.745617 118.763148 82.3533804 9.35773736 96.6190999 95.053337l-25.550567 24.773115L175.080283 223.065139l-9.368377-85.695819z"/></svg>