<svg width="256px" height="257px" viewBox="0 0 256 257" xmlns="http://www.w3.org/2000/svg" preserveAspectRatio="xMidYMid"><path d="M245.733754 102.437432h-81.911139c-2.72714.017207-5.34757-1.058539-7.275988-2.9869571-1.928419-1.9284182-3.004164-4.5488479-2.986958-7.2759889V10.2633479c5.4e-5-2.71604099-1.08326-5.31991463-3.009802-7.23441573-1.926542-1.9145011-4.537156-2.9814689565-7.253144-2.9643869374h-30.660551C109.920185.0474632135 107.30957 1.11443107 105.383029 3.02893217c-1.926542 1.9145011-3.009857 4.51837474-3.009803 7.23441573V92.174486c.017206 2.727141-1.058539 5.3475707-2.9869571 7.2759889-1.9284183 1.9284181-4.548848 3.0041641-7.2759889 2.9869571H61.4497286c-2.7271409.017207-5.3475706-1.058539-7.2759889-2.9869571-1.9284182-1.9284182-3.0041636-4.5488479-2.9869571-7.2759889V10.2633479c.0172064-2.727141-1.0585389-5.34757068-2.9869571-7.27598894-1.9284183-1.92841825-4.548848-3.0041635917-7.275989-2.987160419725H10.1991418c-2.71604095 0-5.31991458 1.083463769725-7.23441569 3.010005759725-1.9145011 1.92654199-2.9814689533 4.53715632-2.964590213696 7.2531436V245.79796C-.0168672756 248.525101 1.05887807 251.14553 2.98729632 253.073949c1.92841825 1.928418 4.54884794 3.004163 7.27598888 2.98716H245.733754c2.727141.017003 5.34757-1.058742 7.275989-2.98716 1.928418-1.928419 3.004163-4.548848 2.986957-7.275989V112.892808c.069522-2.760231-.98308-5.430703-2.91726-7.401149-1.93418-1.970446-4.58464-3.072468-7.345686-3.054227zM204.553817 189.4159c.016924 4.076944-1.590691 7.992758-4.467527 10.881631-2.876835 2.888872-6.785903 4.512788-10.862883 4.512788h-20.525892c-4.07698 0-7.986048-1.623916-10.862883-4.512788-2.876836-2.888873-4.484451-6.804687-4.467527-10.881631v-20.461749c-.016924-4.076944 1.590691-7.992758 4.467527-10.881631 2.876835-2.888872 6.785903-4.512788 10.862883-4.512788h20.525892c4.07698 0 7.986048 1.623916 10.862883 4.512788 2.876836 2.888873 4.484451 6.804687 4.467527 10.881631V189.4159h0z" fill="#f60"/></svg>