<svg width="512px" height="180px" viewBox="0 0 512 180" xmlns="http://www.w3.org/2000/svg" preserveAspectRatio="xMidYMid"><g fill="#c00"><path d="M219.115365 150.633753c0 0 22.56927-1.934509 22.56927-31.081108 0-29.1465997-27.341058-31.854912-27.341058-31.854912h-49.265491v91.953652h24.761712v-22.182367l21.408565 22.182367h36.6267l-28.759698-29.017632zm-9.543577-18.829219h-19.73199v-21.021662h19.860958c0 0 5.545592 2.063476 5.545592 10.446347 0 8.382872-5.67456 10.575315-5.67456 10.575315zm93.243325-43.4619647h-25.148614c-17.926449 0-23.98791 16.2498737-23.98791 23.9879097v67.320906h25.148615v-16.120906h23.601008v16.120906h24.374811v-67.320906c0-19.6030231-17.797481-23.9879097-23.98791-23.9879097zm-.386901 49.1365237h-23.729975v-22.311335c0 0 0-5.029723 7.867002-5.029723h8.640806c6.964232 0 7.093199 5.029723 7.093199 5.029723v22.311335h.128968zm35.852896-49.1365237h26.180353v91.3088157h-26.180353V88.3425693zm62.93602 67.7078087V88.3425693h-26.051385v67.7078087 23.601007h26.051385 35.208061v-23.601007h-35.208061zm43.848867.257934v23.343073h42.172292c8.640806 0 23.47204-6.319395 23.987909-23.987909v-9.027708c0-15.089169-12.380856-23.987909-23.987909-23.987909h-21.021662V111.81461h41.656423V88.3425693h-39.979849c-10.31738 0-24.116877 8.5118388-24.116877 24.3748107v8.124937c0 15.862973 13.670529 23.98791 24.116877 23.98791 29.017632.128967-6.964232 0 19.860957 0v11.349118l-42.688161.128967z"/><path d="M9.02770781 179.522418H110.911839c0 0-19.4740556-88.8584382 45.009572-124.8403021 14.05743-6.8352645 58.809068-32.3707809 132.062468 21.795466 2.321411-1.9345089 4.513854-3.4821159 4.513854-3.4821159 0 0-67.062972-66.93400504-141.735013-59.4539043-37.529471 3.3531486-83.6997477 37.529471-110.7828711 82.6680101C12.8967254 141.348111 9.02770781 179.522418 9.02770781 179.522418zM221.307809 20.763728l.515869-8.6408061c-1.160706-.6448363-4.384887-2.19244331-12.509824-4.51385389l-.515869 8.51183879c4.255919 1.4186398 8.382871 2.9662469 12.509824 4.6428212zm-12.25189 27.3410579-.515869 8.124937c4.25592.1289673 8.511839.6448363 12.767759 1.5476071l.515869-7.9959698c-4.384887-.9027708-8.640806-1.4186398-12.767759-1.6765743zM161.338035 7.86700252h1.289673L160.048363-7.10542736e-15c-3.997985 0-8.124937.2579345090000071-12.380857.7738035260000071l2.450378 7.609068014C153.857935 7.99596977 157.597985 7.86700252 161.338035 7.86700252zm6.190428 47.45994958 2.966247 8.8987406c3.740051-1.8055416 7.480101-3.3531486 11.220151-4.5138539L178.877582 51.2c-4.384887 1.2896725-8.124937 2.7083123-11.349119 4.1269521zM108.97733 21.4085642l-5.803526-8.8987405c-3.2241818 1.6765743-6.5773304 3.4821158-10.0594463 5.5455919l5.9324937 9.0277078c3.3531486-2.063476 6.5773296-3.9979849 9.9304786-5.6745592zm26.438287 58.0352645 6.190428 9.2856423c2.192444-3.2241813 4.771789-6.1904282 7.609068-9.156675l-5.803526-8.7697733c-2.966247 2.7083123-5.674559 5.6745592-7.99597 8.640806zm-18.700252 41.5274563 10.446348 8.253904c.515869-5.029723 1.41864-10.059446 2.708312-15.089169l-9.285642-7.351133c-1.676574 4.771788-2.83728 9.543576-3.869018 14.186398zM60.2277078 59.7118388l-9.1566751-7.9959698c-3.3531486 3.2241814-6.5773299 6.4483627-9.5435768 9.6725441l9.9304786 8.5118388c2.7083124-3.4821159 5.6745592-6.9642317 8.7697733-10.1884131zM21.279597 117.360202l-14.83123428-5.416625C3.99798489 117.489169 1.28967254 123.937531 0 127.419647l14.8312343 5.416625c1.6765743-4.384887 4.3848866-10.704282 6.4483627-15.47607zm93.501259 36.368765c.257935 6.835265.902771 12.380857 1.547607 16.249874l15.476071 5.545592c-1.160705-5.029723-2.321411-10.704282-3.095214-16.765743l-13.928464-5.029723z"/></g></svg>