<svg width="256px" height="121px" viewBox="0 0 256 121" xmlns="http://www.w3.org/2000/svg" preserveAspectRatio="xMidYMid"><title>Rancher</title><path d="M255.866635 26.3656212l-2.815746-16.63849882c-.26222-1.57332146-.623116-3.05893162-1.044179-4.37339778l-.215367-.64258482c-.990112-2.82397632-2.252332-4.711139779999979-3.348038-4.711139779999979-1.044743 0-1.988563 1.7661575799999787-2.546292 4.411286599999979L245.779544 5.01320113c-.01848.10261033-.036402.20633624-.05375.31113266l-.097099.64126388c-.014998.10889812-.029394.2187766-.043174.32959035l-.075164.67574529c-.022511.22874915-.04244.46087884-.059671.69602846l-.043483.7141481c-.023438.48165783-.035621.97395306-.035621 1.47400096v4.35160737c0 5.375515-4.479596 9.8551108-9.855111 9.8551108h-5.247527 0v12.0309146h17.278441c5.503504 0 9.215169-4.3516074 8.31925-9.7271224zM216.57418 12.2868914h-54.523081c-.383965 0-.639942 0-.895919.1279885l-.00227-2.93330629h0l-.017897-.73727093c-.004438-.12169906-.009594-.24277835-.015454-.36319281l-.043483-.7141481c-.034462-.47029925-.079716-.92851874-.134835-1.37177375l-.089961-.65329857c-.032376-.21378468-.067102-.42346765-.104062-.62868832l-.117469-.60191453C160.07202 1.76615758 159.1282 2.13162821e-14 158.083457 2.13162821e-14c-1.460941 0-3.217908 3.3549572699999786-4.231201 7.812188869999979L153.690438 8.56488079c-.051525.25404188-.100577.51109957-.146977.77078683l-2.883334 17.02995358c-.895919 5.375515 2.815746 9.7271224 8.191261 9.7271224h16.382522c1.66385 0 3.3277-.2559769 4.607584-.7679307-.511954 2.8157459-2.943734 4.8635612-5.887469 4.8635612h-23.037921c-3.711665 0-6.527411-3.3276998-5.887469-7.0393649l2.303792-13.9507413c.639943-3.7116652-2.175803-7.0393649-5.887469-7.0393649H27.2792589c-2.4317806 0-4.4795958 1.407873-5.5035034 3.5836766L.273695468 48.6356119c-.383965357.5119538-.383965357 1.2798845.127988452 1.7918383l4.22361893 4.9915497c.51195381.6399422 1.40787298.7679307 2.04781524.2559769L21.2638017 44.1560161v70.1376719c0 3.3277 2.6877575 6.015457 6.0154572 6.015457h32.5090669c3.3276998 0 6.0154573-2.687757 6.0154573-6.015457V89.975882c0-3.3276997 2.6877575-6.0154572 6.0154573-6.0154572h81.0166906c3.327699 0 6.015457 2.6877575 6.015457 6.0154572v24.317806c0 3.3277 2.687757 6.015457 6.015457 6.015457h32.509067c3.3277 0 6.015457-2.687757 6.015457-6.015457V87.8000783h-17.278441c-5.375515 0-9.85511-4.4795958-9.85511-9.8551108V61.1784802c0-3.1997113 1.535861-6.0154572 3.967642-7.8072956v20.0941871c0 5.375515 4.479595 9.8551108 9.85511 9.8551108h26.49361c5.375515 0 9.855111-4.4795958 9.855111-9.8551108v-51.195381c0-5.5035034-4.479596-9.9830993-9.855111-9.9830993z" fill="#2453ff"/></svg>