<svg width="256px" height="247px" viewBox="0 0 256 247" xmlns="http://www.w3.org/2000/svg" preserveAspectRatio="xMidYMid"><defs><radialGradient cx="78.7636112%" cy="37.8476394%" fx="78.7636112%" fy="37.8476394%" r="89.8725577%" id="c"><stop stop-color="#f80090" offset="0%"/><stop stop-color="#4d008e" offset="100%"/></radialGradient><radialGradient cx="68.7389016%" cy="4.39833672%" fx="68.7389016%" fy="4.39833672%" r="81.7284786%" id="d"><stop stop-color="#57008e" offset="0%"/><stop stop-color="#5c008e" offset="29.1746283%"/><stop stop-color="#f80090" offset="100%"/></radialGradient><linearGradient x1="18.2386532%" y1="0%" x2="81.1591125%" y2="84.3374763%" id="a"><stop stop-color="#f70090" offset="0%"/><stop stop-color="#e50090" offset="66.9712865%"/><stop stop-color="#d6008f" stop-opacity="0.2" offset="82.7147533%"/><stop stop-color="#c10090" stop-opacity="0" offset="100%"/></linearGradient><linearGradient x1="64.9060589%" y1="71.5585538%" x2="44.2897699%" y2="50%" id="b"><stop stop-color="#b2008f" stop-opacity="0.151340138" offset="0%"/><stop stop-color="#f70090" stop-opacity="0.4" offset="40.0350765%"/><stop stop-color="#f60090" stop-opacity="0.891668" offset="64.8995536%"/><stop stop-color="#ff0090" offset="100%"/></linearGradient></defs><path d="M16.6852208 157.125328C3.56690702 87.3798324 38.2363025 20.1145078 117.808706 11.1662199 106.835616-.558801732 91.8452087-.646905628 84.9481697.779380087 72.770288 4.66044372 73.1525932 12.540855 59.3390152 22.7199675c-13.7325715 7.8434632-20.6295996 1.8368507-30.6332697 9.967984-9.9822606 8.0704359-3.0168927 26.5972217-7.2034632 30.1991342-4.1558442 7.2034632-17.04727278 13.6206407-19.39393944 22.7191688C.168948918 97.2420641 7.37241212 105.553752 7.09535584 115.527778c.83116884 8.311689-8.27456277 13.011671-6.966303026 19.748018C4.0477368 146.281025 11.600845 152.904887 15.1615723 155.958047c.8165362.575484 1.6789158 1.992783 1.5236485 1.167281h0z" fill="#ff0090"/><path d="M158.275491 60.578542c-2.907005 0-5.264069-2.3570644-5.264069-5.2640693 0-2.9070048 2.357064-5.2640692 5.264069-5.2640692 2.907005 0 5.264069 2.3570644 5.264069 5.2640692 0 2.9070049-2.357064 5.2640693-5.264069 5.2640693h0zM19.7566405 164.732808C7.1500258 104.116773 46.1602355 53.4676156 121.704062 78.4026805c44.327342 25.9319135 100.08922 24.2434215 102.60336 7.4805195 6.206639-20.0953231-28.259741-61.5064935-79.792208-72.3116883C42.2814476-6.37654026-12.8335943 104.116774 19.7566405 164.732808h0z" fill="url(#c)"/><path d="M187.458604 171.493257c15.180468 1.644606 29.590165-1.998684 42.943723-12.883117-20.17413 22.502511-45.39955 33.816381-74.343065 36.895031 13.819567 11.748848 27.146528 17.041177 39.896104 14.775965-35.426632 9.775654-65.107419-.984607-101.2129387-36.940463-1.8906926 9.679349 8.3323137 24.759994 18.8693177 34.386591-61.1374541-26.505419-66.4973823-109.0728084 8.053565-129.3830403C44.3844415 41.214641.686373501 113.357693 22.1558444 172.485931c21.0064924 45.540762 76.9844223 80.599292 138.3363186 72.889369 29.800765-3.6502 74.301847-24.196365 92.481501-72.889369-12.812745 11.497835-35.715723 21.511905-45.936047 22.280053 34.591031-17.287203 53.263969-46.662088 48.022719-86.810597-7.16523 17.058355-16.618944 30.159238-28.44426 39.156918 25.119577-39.156918 20.809143-59.395879 2.21645-81.6390652 13.298702 36.5714282-3.904277 77.1607272-41.373922 106.0200172h0z" fill="url(#d)"/><path d="M169.707072 213.625541c-2.624665-.490411 5.949857 3.473301-10.627706-.915225-16.577562-4.388526-33.456864-8.617572-64.3369387-39.369643-1.8906926 9.679349 8.3323137 24.759994 18.8693177 34.386591 28.44453 19.837663 9.100121 10.559533 52.440201 25.542217 3.477814-6.922619 3.655126-13.074135 3.655126-19.64394h0z" fill="url(#a)"/><path d="M114.601372 57.8510108c0 0 3.76808-5.561648 5.234847-8.0699857 1.797422-3.0737932 4.55772-8.6764071 4.55772-8.6764071 0 0-29.004328-9.4628431-36.1222942-10.6174515-22.1266233 5.7437136-22.2071426 15.0137894-9.8365798 29.2029495 1.3764156 1.5792208 36.166307-1.8391052 36.166307-1.8391052h0z" fill="url(#b)"/></svg>