<svg width="256px" height="174px" viewBox="0 0 256 174" xmlns="http://www.w3.org/2000/svg" preserveAspectRatio="xMidYMid"><defs><path d="M40.8216471 49.1072941c0 0-12.7435295 3.4202353-19.1157647 3.4202353-6.3717648 0-18.88141181-3.4202353-18.88141181-3.4202353-1.0850771 0-1.96470588-.8796288-1.96470588-1.9647059V2.67670588c0-.5210724.2069952-1.02080302.57544903-1.38925685C1.80366756.9189952 2.30339819.712 2.82447059.712H40.8216471c1.0850771 0 1.9647058.87962879 1.9647058 1.96470588V47.1425882c2.499e-4.521149-.2066651 1.0210248-.5751731 1.3895328-.368508.368508-.8683838.5754229-1.3895327.5751731z" id="e"/><path d="M53.2823529 84.0117647c0 0-11.3487058 2.2814118-17.0230588 2.2814118-5.5731765 0-16.7190588-2.2814118-16.7190588-2.2814118-10.4150588 0-18.85788236-6.1614118-18.85788236-16.5764706V36.5642353c0-19.7138824 15.98117646-35.69505883 35.69505886-35.69505883 19.7811764 0 35.7623529 15.98117643 35.7623529 35.69505883v30.8710588c4.706e-4 10.4150588-8.4428235 16.5764706-18.8574118 16.5764706z" id="f"/><path d="M53.2823529 84.0117647c0 0-11.3487058 2.2814118-17.0230588 2.2814118-5.5731765 0-16.7190588-2.2814118-16.7190588-2.2814118-10.4150588 0-18.85788236-6.1614118-18.85788236-16.5764706V36.5642353c0-19.7138824 15.98117646-35.69505883 35.69505886-35.69505883 19.7811764 0 35.7623529 15.98117643 35.7623529 35.69505883v30.8710588c4.706e-4 10.4150588-8.4428235 16.5764706-18.8574118 16.5764706z" id="g"/><path d="M53.2823529 84.0117647c0 0-11.3487058 2.2814118-17.0230588 2.2814118-5.5731765 0-16.7190588-2.2814118-16.7190588-2.2814118-10.4150588 0-18.85788236-6.1614118-18.85788236-16.5764706V36.5642353c0-19.7138824 15.98117646-35.69505883 35.69505886-35.69505883 19.7811764 0 35.7623529 15.98117643 35.7623529 35.69505883v30.8710588c4.706e-4 10.4150588-8.4428235 16.5764706-18.8574118 16.5764706z" id="h"/><path d="M53.2823529 84.0117647c0 0-11.3487058 2.2814118-17.0230588 2.2814118-5.5731765 0-16.7190588-2.2814118-16.7190588-2.2814118-10.4150588 0-18.85788236-6.1614118-18.85788236-16.5764706V36.5642353c0-19.7138824 15.98117646-35.69505883 35.69505886-35.69505883 19.7811764 0 35.7623529 15.98117643 35.7623529 35.69505883v30.8710588c4.706e-4 10.4150588-8.4428235 16.5764706-18.8574118 16.5764706z" id="i"/><path d="M53.2823529 84.0117647c0 0-11.3487058 2.2814118-17.0230588 2.2814118-5.5731765 0-16.7190588-2.2814118-16.7190588-2.2814118-10.4150588 0-18.85788236-6.1614118-18.85788236-16.5764706V36.5642353c0-19.7138824 15.98117646-35.69505883 35.69505886-35.69505883 19.7811764 0 35.7623529 15.98117643 35.7623529 35.69505883v30.8710588c4.706e-4 10.4150588-8.4428235 16.5764706-18.8574118 16.5764706z" id="m"/><path d="M53.2823529 84.0117647c0 0-11.3487058 2.2814118-17.0230588 2.2814118-5.5731765 0-16.7190588-2.2814118-16.7190588-2.2814118-10.4150588 0-18.85788236-6.1614118-18.85788236-16.5764706V36.5642353c0-19.7138824 15.98117646-35.69505883 35.69505886-35.69505883 19.7811764 0 35.7623529 15.98117643 35.7623529 35.69505883v30.8710588c4.706e-4 10.4150588-8.4428235 16.5764706-18.8574118 16.5764706z" id="n"/></defs><path d="M75.5369465 157.504941c4.7684706 6.654118 11.4941177 10.272941 20.0691765 10.272941 11.112941 0 20.059294-4.595294 26.172706-12.701176 5.325176-7.059294 8.180235-16.466823 8.180235-25.887059v-13.347764l-26.693647.186823-1.071059 18.740706c0 6.407059-2.273411 8.537882-7.9999997 8.537882-4.4357647 0-7.5764706-4.642823-8.5712941-12.752l-4.5411765-33.3599997C79.310123 85.6931767 74.9948289 76.7600002 68.5157701 70.279059c-5.5510589-5.5529411-12.5134118-9.1294118-20.3482353-10.9176471L26.1647112 53.559059c-3.1030588 0-5.3463529 2.4367059-5.3463529 5.2075294 0 4.594353.5444706 6.8442354 3.2178823 10.1209412.7647059.9374118 1.9985883 1.7670589 3.7247059 2.632 1.7816471.8927059 4.0955294 1.816 6.8296471 2.7609412 2.2.7609412 4.5482353 1.4931765 6.896 2.1727059.9668178.2796452 1.9362734.5500888 2.9082353.8112941 8.373647 2.2564706 14.8018823 10.2974118 15.7411765 18.7058824l7.6258823 39.0752938c1.1891765 9.134118 3.7308235 16.816941 7.7750588 22.459294zm54.2028235-41.021176h-25.543529l.038117 2.390588.241883 15.107765c0 6.322823-4.584942 10.202823-10.7736474 10.202823-4.448 0-8.6178824-4.689882-13.5910588-14.434823L65.6672995 101.75153c-6.4484706-11.1882357-15.1021177-17.3025886-28.6202353-19.9576474l-20.4832941-5.2621177c-3.2705883 0-5.7727059 4.0475294-5.7727059 6.9341177 0 3.2978823 1.4381176 6.792 3.6465882 9.52 1.9952941 2.4658823 6.2324706 4.616 10.1788235 5.4451764l8.5981177 1.832471c6.832 2.307294 13.1647059 7.011294 16.109647 12.567529l10.8790589 26.077176c4.1002353 8.983059 8.2955294 15.556706 13.3129411 20.302118 5.8781177 5.56 12.8018824 8.449882 21.0635295 8.449882 7.5694119 0 15.4249409-2.693647 21.5016469-7.517647 6.753882-5.361412 10.899765-12.947764 11.450824-21.950588l2.207529-21.708235z" fill="#053949"/><g style="fill:#00d8fe"><path d="M69.5096524 119.463059l-4.7077647-24.1129411c-1.1858823-10.2334118-8.9068235-19.8597647-18.9844706-22.5769412-.2743218-.0726711-.548363-.1463971-.8221176-.2211765-.6635294-.1811764-1.4032941-.3887059-2.2009412-.6192941-2.2757647-.6588235-4.5505882-1.3684706-6.6663529-2.0997647-2.5552942-.8832941-4.6945883-1.7364706-6.2588236-2.5204706-.6211764-.3115294-1.1369412-.6051765-1.5341176-.8724706-.3402353-.2282353-.5628236-.4174117-.6522353-.5270588-1.8527059-2.2710588-2.1585883-3.5341177-2.1585883-7.146353 0-.1232941.0611765-.2748235.1656471-.3887059.0230588-.0244706 21.3157647 5.5435295 21.3157647 5.5435295 7.1072941 1.6174118 13.2875294 4.7882353 18.1821177 9.6847059 5.7482353 5.749647 9.6188235 13.7628235 11.2367058 24.2649411l4.5317647 33.288c1.2442353 10.143059 5.7835295 16.854118 13.2381177 16.854118 8.2385887 0 12.6832937-4.145883 12.7058827-13.107765l.811294-14.201882 17.541647-.122353v8.60847c0 8.44-2.552471 16.850353-7.23153 23.054118-5.236705 6.942117-12.801411 10.828235-22.415529 10.828235-.9562194.001536-1.9116164-.056143-2.8607059-.172706-12.2141176-.744941-20.5505882-9.069647-28.2141176-25.839059l-10.944-26.232c-3.6136471-6.912941-11.0225883-12.4094112-19.0070589-15.0705877l-8.9891764-1.930353c-2.9858824-.6277647-6.2790588-2.2983529-7.4955294-3.8018823-1.5745883-1.9449412-2.5985883-4.4329412-2.5985883-6.56 0-.2625882.2574118-1.0037647.64-1.6221177.1157647-.1877647.2329412-.3491764.3407059-.4752941l19.5317647 5.0174118c12.2790588 2.3985882 19.7835294 7.6818823 25.5265883 17.621647l7.973647 15.456z"/><path d="M69.5096524 119.463059l-4.7077647-24.1129411c-1.1858823-10.2334118-8.9068235-19.8597647-18.9844706-22.5769412-.2743218-.0726711-.548363-.1463971-.8221176-.2211765-.6635294-.1811764-1.4032941-.3887059-2.2009412-.6192941-2.2757647-.6588235-4.5505882-1.3684706-6.6663529-2.0997647-2.5552942-.8832941-4.6945883-1.7364706-6.2588236-2.5204706-.6211764-.3115294-1.1369412-.6051765-1.5341176-.8724706-.3402353-.2282353-.5628236-.4174117-.6522353-.5270588-1.8527059-2.2710588-2.1585883-3.5341177-2.1585883-7.146353 0-.1232941.0611765-.2748235.1656471-.3887059.0230588-.0244706 21.3157647 5.5435295 21.3157647 5.5435295 7.1072941 1.6174118 13.2875294 4.7882353 18.1821177 9.6847059 5.7482353 5.749647 9.6188235 13.7628235 11.2367058 24.2649411l4.5317647 33.288c1.2442353 10.143059 5.7835295 16.854118 13.2381177 16.854118 8.2385887 0 12.6832937-4.145883 12.7058827-13.107765l.811294-14.201882 17.541647-.122353v8.60847c0 8.44-2.552471 16.850353-7.23153 23.054118-5.236705 6.942117-12.801411 10.828235-22.415529 10.828235-.9562194.001536-1.9116164-.056143-2.8607059-.172706-12.2141176-.744941-20.5505882-9.069647-28.2141176-25.839059l-10.944-26.232c-3.6136471-6.912941-11.0225883-12.4094112-19.0070589-15.0705877l-8.9891764-1.930353c-2.9858824-.6277647-6.2790588-2.2983529-7.4955294-3.8018823-1.5745883-1.9449412-2.5985883-4.4329412-2.5985883-6.56 0-.2625882.2574118-1.0037647.64-1.6221177.1157647-.1877647.2329412-.3491764.3407059-.4752941l19.5317647 5.0174118c12.2790588 2.3985882 19.7835294 7.6818823 25.5265883 17.621647l7.973647 15.456z"/></g><g style="fill-opacity:0.25"><path d="M16.414123 80.9745885c.4122328.7088105.8922872 1.3759379 1.4334118 1.992 1.3214117 1.5035294 4.8964706 3.1741176 8.1383529 3.8018823l9.76 1.930353c8.6691765 2.6611764 16.7134118 8.1581176 20.6371765 15.0705882l11.8823529 26.232c1.616 3.256471 3.2592941 6.194823 4.9562353 8.821176-.32367-1.632725-.5914342-3.276038-.8028235-4.927058L69.5096524 118.992l-7.973647-15.456c-5.7430589-9.9397645-13.2475295-15.2230586-25.5265883-17.6216468l-19.5317647-5.0164706-.0635294.0771764v-4.705e-4z"/><path d="M111.606123 120.672941v13.222589c0 9.080941-3.661647 18.352941-16.544 18.352941-7.8390588 0-15.8235294-4.825412-18.4268235-22.990118l-5.0644706-34.8922351c-1.3138824-10.2334118-11.5007059-24.5228236-22.6710588-27.24-.4272942-.1025883-15.9435295-4.6771765-17.6771765-5.460706-.6889412-.3115294-2.3247059-1.2898823-2.424-1.4-.5995294-.6625882-1.0527059-1.2395294-1.394353-1.8141176 2.5392942.6541176 20.5585883 5.4701177 20.5585883 5.4701177 6.9538823 1.6174118 13.0004706 4.7882353 17.7891765 9.6847059 5.6235294 5.749647 9.4108235 13.7628235 10.9934117 24.2649411l4.4334118 33.288c1.2178823 10.143059 5.6592941 16.854118 12.952 16.854118 8.0607061 0 12.4094121-4.145883 12.4310591-13.107765l.793882-14.201882 4.250353-.030589z"/></g><path d="M130.429652 132.013177v-16.470589h-27.294117v2.352942c0 21.179764-5.8047061 30.352941-18.8235296 30.352941-11.4884706 0-19.3905883-8.207059-24.4207059-21.672471-5.738353-15.361882-14.4414118-22.327529-31.4084706-22.327529H5.25318178c-2.93552941 0-5.25317647183377 2.420706-5.25317647183377 5.34447C-.00320625583 113.247628 1.45100369 116.752738 4.0404759 119.331765c2.58890988 2.590587 6.1031956 4.043075 9.7656471 4.036235l14.7327059-.060706c3.0621176 0 6.021647 2.240941 9.061647 6.820706 2.5336471 3.817412 4.6677647 8.340235 8.0592942 16.558588 3.0409411 7.368471 7.2094117 13.615059 12.7844705 18.321882 6.8207059 5.758589 15.4061177 8.887059 25.8677648 8.887059 11.2630588 0 22.7204706-4.105412 31.3727056-11.292706 9.341177-7.76 14.744941-18.467293 14.744941-30.589646z" fill="#053949"/><path d="M125.72377 120.248471v11.764706c0 10.671058-4.745882 20.074823-13.046118 26.969411-7.804235 6.483294-18.1962349 10.207059-28.3656466 10.207059-9.352 0-16.8616471-2.736471-22.832-7.776941-4.9392942-4.170353-8.6964706-9.8-11.4701177-16.521412-3.5072941-8.497882-5.7303529-13.210353-8.4889412-17.365647-3.8221176-5.758588-8.0032941-8.924235-12.992-8.924235l-14.7327059.060706c-2.4124546.004808-4.72717797-.952856-6.43105882-2.660706-1.70508804-1.696372-2.6623708-4.003269-2.65929411-6.408471 0-.369411.25788235-.638588.54729411-.638588H28.4828289c14.8630588 0 21.9091765 5.63953 27 19.268235 2.4329412 6.513883 5.6291765 12.125647 9.7472941 16.402824 5.1647059 5.363765 11.5242353 8.328941 19.0818824 8.328941 15.6352936 0 23.0192936-10.829176 23.5039996-32.705882h17.907765z" fill="#00d8fe"/><path d="M4.85129943 109.158588c.42917647.545883 1.03529412 1.035295 1.79388235 1.723765 1.62117647 1.470588 3.80188242 2.307294 6.13741182 2.307294h19.2941176c10.7552942 0 16.3472942 8.402824 23.3717647 23.870118 2.6475295 5.828706 9.8682353 19.894588 30.2752942 19.894588 20.4070589 0 26.3529409-19.922823 26.3529409-29.17647v-7.529412h-4.260706c-.484706 21.876706-7.868706 32.705882-23.5039996 32.705882-7.5576471 0-13.9171765-2.965176-19.082353-8.329412-4.117647-4.276706-7.3134118-9.88847-9.7468235-16.402353-5.0908235-13.628235-12.1369412-19.268235-27-19.268235H5.25318178c-.15435294 0-.2997647.076706-.40188235.204235z" fill-opacity="0.25"/><path d="M179.6753 157.504941c-4.768471 6.654118-11.494118 10.272941-20.069177 10.272941-11.112941 0-20.059294-4.595294-26.172706-12.701176-5.325176-7.059294-8.180235-16.466823-8.180235-25.887059v-13.347764l26.693647.186823 1.071059 18.740706c0 6.407059 2.273412 8.537882 8 8.537882 4.435765 0 7.576471-4.642823 8.571294-12.752l4.541177-33.3599997c1.771764-11.5021176 6.087058-20.4352941 12.566117-26.9162353 5.551059-5.5529411 12.513412-9.1294118 20.348236-10.9176471l22.002823-5.8023529c3.103059 0 5.346353 2.4367059 5.346353 5.2075294 0 4.594353-.54447 6.8442354-3.217882 10.1209412-.764706.9374118-1.998588 1.7670589-3.724706 2.632-1.781647.8927059-4.09553 1.816-6.829647 2.7609412-2.2.7609412-4.548236 1.4931765-6.896 2.1727059-.966818.2796452-1.936274.5500888-2.908236.8112941-8.373647 2.2564706-14.801882 10.2974118-15.741176 18.7058824l-7.625882 39.0752938c-1.189177 9.134118-3.730824 16.816941-7.775059 22.459294zm-54.202824-41.021176h25.54353l-.038118 2.390588-.241882 15.107765c0 6.322823 4.584941 10.202823 10.773647 10.202823 4.448 0 8.617882-4.689882 13.591059-14.434823l14.444235-27.998588c6.44847-11.1882357 15.102118-17.3025886 28.620235-19.9576474l20.483294-5.2621177c3.270589 0 5.772706 4.0475294 5.772706 6.9341177 0 3.2978823-1.438117 6.792-3.646588 9.52-1.995294 2.4658823-6.232471 4.616-10.178824 5.4451764l-8.598117 1.832471c-6.832 2.307294-13.164706 7.011294-16.109647 12.567529l-10.879059 26.077176c-4.100235 8.983059-8.29553 15.556706-13.312941 20.302118-5.878118 5.56-12.801883 8.449882-21.06353 8.449882-7.569411 0-15.424941-2.693647-21.501647-7.517647-6.753882-5.361412-10.899764-12.947764-11.450823-21.950588l-2.20753-21.708235z" fill="#053949"/><g style="fill:#00d8fe"><path d="M185.702594 119.463059l4.707765-24.1129411c1.185882-10.2334118 8.906823-19.8597647 18.98447-22.5769412 1.010501-.2699319 2.018239-.5501031 3.023059-.8404706 2.275765-.6588235 4.550588-1.3684706 6.666353-2.0997647 2.555294-.8832941 4.694588-1.7364706 6.258824-2.5204706.621176-.3115294 1.136941-.6051765 1.534117-.8724706.340236-.2282353.562824-.4174117.652236-.5270588 1.852705-2.2710588 2.158588-3.5341177 2.158588-7.146353 0-.1232941-.061177-.2748235-.165647-.3887059-.023059-.0244706-21.315765 5.5435295-21.315765 5.5435295-7.107294 1.6174118-13.287529 4.7882353-18.182118 9.6847059-5.748235 5.749647-9.618823 13.7628235-11.236706 24.2649411l-4.531764 33.288c-1.244236 10.143059-5.78353 16.854118-13.238118 16.854118-8.238588 0-12.683294-4.145883-12.705882-13.107765l-.811294-14.201882-17.541647-.122353v8.60847c0 8.44 2.55247 16.850353 7.231529 23.054118 5.236706 6.942117 12.801412 10.828235 22.415529 10.828235.984942 0 1.938824-.057883 2.860706-.172706 12.214118-.744941 20.550588-9.069647 28.214118-25.839059l10.944-26.232c3.613647-6.912941 11.022588-12.4094112 19.007059-15.0705877l8.989176-1.930353c2.985883-.6277647 6.279059-2.2983529 7.49553-3.8018823 1.574588-1.9449412 2.598588-4.4329412 2.598588-6.56 0-.2625882-.257412-1.0037647-.64-1.6221177-.101451-.1667765-.215343-.325659-.340706-.4752941l-19.531765 5.0174118c-12.279059 2.3985882-19.783529 7.6818823-25.526588 17.621647l-7.973647 15.456z"/><path d="M185.702594 119.463059l4.707765-24.1129411c1.185882-10.2334118 8.906823-19.8597647 18.98447-22.5769412 1.010501-.2699319 2.018239-.5501031 3.023059-.8404706 2.275765-.6588235 4.550588-1.3684706 6.666353-2.0997647 2.555294-.8832941 4.694588-1.7364706 6.258824-2.5204706.621176-.3115294 1.136941-.6051765 1.534117-.8724706.340236-.2282353.562824-.4174117.652236-.5270588 1.852705-2.2710588 2.158588-3.5341177 2.158588-7.146353 0-.1232941-.061177-.2748235-.165647-.3887059-.023059-.0244706-21.315765 5.5435295-21.315765 5.5435295-7.107294 1.6174118-13.287529 4.7882353-18.182118 9.6847059-5.748235 5.749647-9.618823 13.7628235-11.236706 24.2649411l-4.531764 33.288c-1.244236 10.143059-5.78353 16.854118-13.238118 16.854118-8.238588 0-12.683294-4.145883-12.705882-13.107765l-.811294-14.201882-17.541647-.122353v8.60847c0 8.44 2.55247 16.850353 7.231529 23.054118 5.236706 6.942117 12.801412 10.828235 22.415529 10.828235.984942 0 1.938824-.057883 2.860706-.172706 12.214118-.744941 20.550588-9.069647 28.214118-25.839059l10.944-26.232c3.613647-6.912941 11.022588-12.4094112 19.007059-15.0705877l8.989176-1.930353c2.985883-.6277647 6.279059-2.2983529 7.49553-3.8018823 1.574588-1.9449412 2.598588-4.4329412 2.598588-6.56 0-.2625882-.257412-1.0037647-.64-1.6221177-.101451-.1667765-.215343-.325659-.340706-.4752941l-19.531765 5.0174118c-12.279059 2.3985882-19.783529 7.6818823-25.526588 17.621647l-7.973647 15.456z"/></g><g style="fill-opacity:0.25"><path d="M238.798123 80.9745885c-.412232.7088105-.892287 1.3759379-1.433411 1.992-1.321412 1.5035294-4.896471 3.1741176-8.138353 3.8018823l-9.76 1.930353c-8.669177 2.6611764-16.713412 8.1581176-20.637177 15.0705882l-11.882353 26.232c-1.616 3.256471-3.259294 6.194823-4.956235 8.821176.32367-1.632725.591434-3.276038.802823-4.927058l2.909177-14.90353 7.973647-15.456c5.743059-9.9397645 13.247529-15.2230586 25.526588-17.6216468l19.531765-5.0174118.063529.0771765v4.706e-4z"/><path d="M143.606123 120.672941v13.222589c0 9.080941 3.661647 18.352941 16.544 18.352941 7.839059 0 15.82353-4.825412 18.426824-22.990118l5.06447-34.8922351c1.313883-10.2334118 11.500706-24.5228236 22.671059-27.24.427294-.1025883 15.94353-4.6771765 17.677177-5.460706.688941-.3115294 2.324706-1.2898823 2.424-1.4.599529-.6625882 1.052706-1.2395294 1.394353-1.8141176-2.539294.6541176-20.558589 5.4701177-20.558589 5.4701177-6.953882 1.6174118-13.00047 4.7882353-17.789176 9.6847059-5.623529 5.749647-9.410824 13.7628235-10.993412 24.2649411l-4.433412 33.288c-1.217882 10.143059-5.659294 16.854118-12.952 16.854118-8.060705 0-12.409411-4.145883-12.431058-13.107765l-.793883-14.201882-4.250353-.030589z"/></g><path d="M124.782594 132.013177v-16.470589h27.294118v2.352942c0 21.179764 5.804705 30.352941 18.823529 30.352941 11.488471 0 19.390588-8.207059 24.420706-21.672471 5.738353-15.361882 14.441412-22.327529 31.408471-22.327529h23.229647c2.935529 0 5.253176 2.420706 5.253176 5.34447.003212 3.654687-1.450998 7.159797-4.040471 9.738824-2.588909 2.590587-6.103195 4.043075-9.765647 4.036235l-14.732705-.060706c-3.062118 0-6.021648 2.240941-9.061648 6.820706-2.533647 3.817412-4.667764 8.340235-8.059294 16.558588-3.040941 7.368471-7.209411 13.615059-12.78447 18.321882-6.820706 5.758589-15.406118 8.887059-25.867765 8.887059-11.263059 0-22.720471-4.105412-31.372706-11.292706-9.341176-7.76-14.744941-18.467293-14.744941-30.589646z" fill="#053949"/><path d="M129.488476 120.248471v11.764706c0 10.671058 4.745883 20.074823 13.046118 26.969411 7.804235 6.483294 18.196235 10.207059 28.365647 10.207059 9.352 0 16.861647-2.736471 22.832-7.776941 4.939294-4.170353 8.696471-9.8 11.470118-16.521412 3.507294-8.497882 5.730353-13.210353 8.488941-17.365647 3.822117-5.758588 8.003294-8.924235 12.992-8.924235l14.732706.060706c2.447059 0 4.732706-.964706 6.431059-2.660706 1.705088-1.696372 2.66237-4.003269 2.659294-6.408471 0-.369411-.257883-.638588-.547294-.638588h-23.229647c-14.863059 0-21.909177 5.63953-27.000001 19.268235-2.432941 6.513883-5.629176 12.125647-9.747294 16.402824-5.164706 5.363765-11.524235 8.328941-19.081882 8.328941-15.635294 0-23.019294-10.829176-23.504-32.705882h-17.907765z" fill="#00d8fe"/><path d="M250.360947 109.158588c-.429177.545883-1.035294 1.035295-1.793882 1.723765-1.621177 1.470588-3.801883 2.307294-6.137412 2.307294h-19.294118c-10.755294 0-16.347294 8.402824-23.371765 23.870118-2.647529 5.828706-9.868235 19.894588-30.275294 19.894588-20.407059 0-26.352941-19.922823-26.352941-29.17647v-7.529412h4.260706c.484706 21.876706 7.868706 32.705882 23.504 32.705882 7.557647 0 13.917176-2.965176 19.082353-8.329412 4.117647-4.276706 7.313412-9.88847 9.746823-16.402353 5.090824-13.628235 12.136942-19.268235 27.000001-19.268235h23.229647c.154353 0 .299764.076706.401882.204235z" fill-opacity="0.25"/><path d="M145.663064 125.414588c0 0-12.743529 3.420236-19.115765 3.420236-6.371764 0-18.881411-3.420236-18.881411-3.420236-1.085078 0-1.964706-.879628-1.964706-1.964705V78.9840002c0-.5210724.206995-1.020803.575449-1.3892568.368454-.3684538.868184-.575449 1.389257-.575449h37.997176c1.085077 0 1.964706.8796287 1.964706 1.9647058v44.4658828c2.5e-4.521149-.206665 1.021024-.575173 1.389532-.368508.368508-.868384.575423-1.389533.575173z" fill="#00d8fe"/><path d="M139.680355 132.645771c-1.523897.327247-2.977534.615301-4.350417.86112-3.598884.644144-6.501025.975462-8.782639.975462-2.260398 0-5.109345-.325298-8.621877-.957563-1.386979-.249553-2.860066-.544604-4.41222-.882542-2.256103-.492827-4.501644-1.032823-6.741234-1.62124-.030236-.007961-.057851-.015237-.083342-.021966-3.76784-.483615-6.634503-3.700916-6.634503-7.549159V78.9840002c0-4.2040981 3.407666-7.6117647 7.611765-7.6117647h37.997176c4.204098 0 7.611765 3.4076666 7.611765 7.6117647v44.4634058c.001454 3.85742-2.876804 7.080149-6.656148 7.554564-2.300783.595444-4.613638 1.143406-6.938326 1.643801zm6.167632-7.239572c1.003176-.092183 1.780167-.939458 1.779783-1.957728V78.9840002c0-1.0853136-.879392-1.9647058-1.964706-1.9647058h-37.997176c-1.085314 0-1.964706.8793922-1.964706 1.9647058v44.4658828c0 1.015584.77543 1.862289 1.776052 1.955771l.246557.023034.238784.0656c.048507.013326.102952.02774.250439.066627 2.157289.566787 4.326205 1.088356 6.503427 1.563953 1.48587.323506 2.892296.605205 4.20918.842145 3.210954.577981 5.753392.868281 7.621678.868281 1.890073 0 4.488914-.296692 7.78753-.887093 1.306517-.233935 2.697062-.509487 4.158542-.82333 2.312106-.497688 4.613399-1.044351 6.902325-1.63962l.222921-.057974.22937-.021078z" fill="#043849"/><g transform="translate(104.841417 76.307294)"><mask id="a" fill="#fff"><use href="#e"/></mask><path fill-opacity="0.25" mask="url(#a)" d="M.64705882 14.7647059H11L5.3529412 54.2941176H.64705882z"/></g><ellipse fill="#fff" cx="105.232005" cy="98.7552946" rx="11.7849412" ry="11.7628235"/><path d="M105.232005 113.341648c-8.0668489 0-14.6084701-6.529345-14.6084701-14.5863534 0-8.0570089 6.5416212-14.586353 14.6084701-14.586353 8.06685 0 14.608471 6.5293441 14.608471 14.586353 0 8.0570084-6.541621 14.5863534-14.608471 14.5863534zm0-5.647059c4.950438 0 8.961412-4.003447 8.961412-8.9392944 0-4.9358472-4.010974-8.9392941-8.961412-8.9392941-4.950437 0-8.9614113 4.0034469-8.9614113 8.9392941 0 4.9358474 4.0109743 8.9392944 8.9614113 8.9392944z" fill="#063a49"/><circle fill="#053949" cx="105.232005" cy="98.765177" r="3.688"/><ellipse fill="#fff" cx="147.584946" cy="98.7552946" rx="11.7849412" ry="11.7628235"/><path d="M147.584946 113.341648c-8.066849 0-14.60847-6.529345-14.60847-14.5863534 0-8.0570089 6.541621-14.586353 14.60847-14.586353 8.06685 0 14.608471 6.5293441 14.608471 14.586353 0 8.0570084-6.541621 14.5863534-14.608471 14.5863534zm0-5.647059c4.950438 0 8.961412-4.003447 8.961412-8.9392944 0-4.9358472-4.010974-8.9392941-8.961412-8.9392941-4.950437 0-8.961411 4.0034469-8.961411 8.9392941 0 4.9358474 4.010974 8.9392944 8.961411 8.9392944z" fill="#063a49"/><circle fill="#053949" cx="147.584946" cy="98.765177" r="3.688"/><path d="M138.050842 95.5054219c-1.281114.2072157-2.564903.397537-3.853385.5712304-3.161966.4235451-5.707226.6414654-7.684981.6414654-1.954618 0-4.463744-.2185902-7.574239-.6432761-1.189772-.1621559-2.454174-.3532627-3.788758-.5718543-1.983682-.3254412-3.962113-.6821111-5.943173-1.0715861-13.8179409-.249426-23.9178299-9.297896-23.9178299-22.2182247V41.3421177C85.2884761 18.5093137 103.79779 0 126.630594 0c22.885189 0 41.409411 18.4944068 41.409411 41.3421177v30.870944c5.26e-4 12.9243225-10.105608 21.9739612-23.930726 22.2189763-2.014303.3892627-4.034485.7471749-6.058437 1.0733839zm5.740876-6.7165858c11.012394-.105742 18.601624-6.8404606 18.601229-16.5756596V41.3421177c0-19.7268882-15.993914-35.69505888-35.762353-35.69505888-19.71402 0-35.6950591 15.98103938-35.6950591 35.69505888v30.8710588c0 9.734101 7.5873698 16.4686079 18.5967451 16.5751911l.265778.0025731.260628.0521257.221866.0443873c1.922099.3781279 3.850059.7258283 5.782426 1.042851 1.28577.2105962 2.500459.3941892 3.638519.5492972 2.879726.3931782 5.155704.591457 6.810979.591457 1.68366 0 4.000455-.1983596 6.932903-.5911598 1.236955-.1667483 2.471659-.3497927 3.705344-.5493365 2.048688-.3301963 4.091897-.6935365 6.128823-1.0898777l.253713-.0493671.258459-.0024817z" fill="#043849"/><g transform="translate(90.253182 4.777882)"><mask id="b" fill="#fff"><use href="#f"/></mask><path d="M53.2823529 84.0117647c0 0-11.3487058 2.2814118-17.0230588 2.2814118-5.5731765 0-16.7190588-2.2814118-16.7190588-2.2814118-10.4150588 0-18.85788236-6.1614118-18.85788236-16.5764706V36.5642353c0-19.7138824 15.98117646-35.69505883 35.69505886-35.69505883 19.7811764 0 35.7623529 15.98117643 35.7623529 35.69505883v30.8710588c4.706e-4 10.4150588-8.4428235 16.5764706-18.8574118 16.5764706z" fill="#00d8fe" mask="url(#b)"/><mask id="c" fill="#fff"><use href="#g"/></mask><path d="M10.5167059 66.4941176V26.2112941c0-18.0564706 13.4094117-32.97223528 30.8117647-35.35435292-1.6182789-.22455671-3.2499822-.3385464-4.8837647-.34117647h-.0672941C16.6635294-9.48423529.68188235 6.4969412.68188235 26.2108235v40.2828236c0 10.4150588 8.44282355 18.8578823 18.85788235 18.8578823h9.8343529C18.9595294 85.352 10.5167059 76.9091765 10.5167059 66.4941176z" fill-opacity="0.25" mask="url(#c)"/><mask id="d" fill="#fff"><use href="#h"/></mask><circle fill-opacity="0.25" mask="url(#d)" cx="32.5703529" cy="65.9821176" r="3.688"/><mask id="j" fill="#fff"><use href="#i"/></mask><circle fill-opacity="0.25" mask="url(#j)" cx="22.688" cy="46.688" r="3.688"/><mask id="k" fill="#fff"><use href="#m"/></mask><circle fill-opacity="0.25" mask="url(#k)" cx="36.4112941" cy="28.6847059" r="3.688"/><mask id="l" fill="#fff"><use href="#n"/></mask><circle fill-opacity="0.25" mask="url(#l)" cx="49.9821176" cy="47.6291765" r="3.688"/></g></svg>