<svg width="256px" height="230px" viewBox="0 0 256 230" xmlns="http://www.w3.org/2000/svg" preserveAspectRatio="xMidYMid"><title>React Query</title><path d="M157.980086 142.487022l-4.910442 8.526756c-1.479285 2.568642-4.217765 4.15169-7.181919 4.15169h-37.617177c-2.964153 0-5.702634-1.583048-7.181919-4.15169l-4.9109024-8.526756h61.8023594zm13.747108-23.870159-8.658417 15.034015H91.0890359l-8.6579568-15.034015h89.2961149zm-8.340259-23.3420429 8.354072 14.5063599H82.4172662l8.3540719-14.5063599h72.6155969zm-17.49921-22.066187c2.964154 0 5.702634 1.5830473 7.181919 4.1516896l5.228601 9.0783535H95.8600287l5.2286003-9.0783535c1.479285-2.5686423 4.217766-4.1516896 7.181919-4.1516896h37.617177z" fill="#00435b"/><path d="M53.5228243 69.2519666c-4.16707-20.2059396-5.0613355-35.703723-2.3677818-46.9572732 1.6019716-6.692968 4.5307631-12.1529979 8.9842169-16.09231444C64.8409457 2.0434872 70.7853914.00271399669 77.464599.00271399669c11.0187036 0 22.602109 5.02467445331 34.981009 14.57023050331 5.049123 3.8934546 10.289465 8.5864013 15.731775 14.0814734.433164-.5576564.9228-1.0836605 1.468333-1.5698065 15.386342-13.7113582 28.340298-22.23040036 39.419929-25.51508646 6.587946-1.953073377 12.773212-2.139144854 18.405764-.24361869 5.945526 2.00085134 10.682911 6.13690146 14.025266 11.93018745 5.516092 9.5610124 6.970751 22.1242518 4.914232 37.6366308-.838258 6.3229932-2.27132 13.2105715-4.296085 20.6733569.763891.0922484 1.529696.2616191 2.28776.5128306 19.521873 6.4692715 33.345402 13.4261866 41.714499 21.376703 4.979399 4.7303542 8.231008 9.996667 9.406442 15.826123 1.240672 6.153001.03092 12.324619-3.307543 18.113595-5.505801 9.547192-15.629345 17.076963-30.051652 23.041088-5.791038 2.394795-12.343254 4.563682-19.663936 6.514294.334035.754207.593194 1.555173.766489 2.395471 4.16707 20.20594 5.061336 35.703723 2.367782 46.957273-1.601972 6.692968-4.530763 12.152998-8.984217 16.092315-4.701686 4.158892-10.646132 6.199665-17.325339 6.199665-11.018704 0-22.60211-5.024675-34.981009-14.57023-5.102863-3.934895-10.401037-8.686391-15.905619-14.257206-.566378.885962-1.261764 1.70945-2.084195 2.44235-15.386342 13.711358-28.3402984 22.2304-39.4199292 25.515086-6.5879454 1.953073-12.7732116 2.139145-18.4057636.243619-5.9455259-2.000852-10.6829113-6.136902-14.0252667-11.930188-5.5160918-9.561012-6.9707506-22.124252-4.9142312-37.636631.8685578-6.551552 2.3756998-13.709245 4.5179741-21.484893-.8373691-.084845-1.6781657-.261926-2.5096491-.537467-19.5218735-6.469272-33.345402-13.426187-41.71449935-21.376703-4.979399-4.730355-8.23100819-9.996667-9.406442002-15.826123-1.240672428-6.153001-.030920292-12.324619 3.307543072-18.113596C9.28982045 91.5162659 19.4133646 83.9864941 33.8356726 78.0223691c5.9635887-2.4661511 12.7343933-4.6927309 20.3203723-6.6880755-.2702826-.6616513-.4837083-1.3573502-.6332206-2.082327z" fill="#002b3b"/><path d="M189.647082 161.332552c1.941035-.343993 3.801072.900413 4.234437 2.809612l.023836.113066.20683 1.074389c6.709875 35.276657 1.983308 52.914985-14.179702 52.914985-15.81388 0-35.94473-15.050805-60.39255-45.152414-.540169-.665089-.831583-1.497682-.824357-2.354461.017755-1.995855 1.619424-3.607041 3.601108-3.650304l.114741-7.47e-4 1.287461.00913c10.287754.055773 20.288993-.302929 30.003716-1.076107 11.467698-.912694 23.442524-2.475078 35.92448-4.687149zM78.6458633 134.666898l.0619813.104621.6459786 1.127399c5.1768384 9.000122 10.5704247 17.542326 16.1807577 25.626612 6.6071431 9.52065 14.0371881 19.158811 22.2901361 28.914482 1.276738 1.50921 1.130982 3.74936-.309383 5.081624l-.093695.083789-.830381.714724c-27.3059715 23.396806-45.0537948 28.067587-53.2434696 14.012343-8.0164369-13.757929-5.1100307-38.773676 8.7192182-75.047241.3038895-.797089.8750181-1.463992 1.6158863-1.886857 1.7314442-.988255 3.9267309-.417596 4.9629704 1.268504zM203.503403 82.6131343l.111893.0364141 1.027752.3549362c33.704759 11.7245394 46.510075 24.6093444 38.415948 38.6544144-7.916307 13.736516-30.930013 23.73787-69.041115 30.004061-.849882.139737-1.72186-.022769-2.464353-.459266-1.753718-1.030976-2.339616-3.288417-1.308639-5.042134 5.458572-9.285173 10.374807-18.524022 14.748705-27.716546 4.960517-10.425409 9.615712-21.6156058 13.965584-33.5705903.659505-1.8125527 2.59683-2.797004 4.432007-2.2939527l.112218.0326633zM84.4464723 76.7099745c1.7537178 1.0309765 2.3396153 3.2884172 1.3086388 5.0421346-5.458572 9.2851725-10.374807 18.5240209-14.7487051 27.7165459-4.9605171 10.425409-9.6157118 21.615606-13.9655841 33.57059-.6729642 1.849544-2.6764365 2.836841-4.5442251 2.26129l-.1118928-.036414-1.0277526-.354937C17.6521928 133.184645 4.84687687 120.29984 12.9410033 106.25477c7.9163081-13.7365164 30.9300132-23.7378701 69.0411153-30.0040608.8498818-.1397369 1.7218607.0227683 2.4643537.4592653zM192.652212 18.9624716c8.016436 13.7579291 5.11003 38.7736762-8.719219 75.0472412-.303889.7970896-.875018 1.4639917-1.615886 1.8868567-1.731444.9882556-3.926731.4175967-4.96297-1.268504l-.061982-.1046206-.645978-1.1273989c-5.176839-9.0001225-10.570425-17.5423264-16.180758-25.6266118-6.607143-9.5206506-14.037188-19.1588116-22.290136-28.9144821-1.276738-1.50921-1.130982-3.7493599.309383-5.081624l.093695-.0837894.830381-.7147241c27.305971-23.3968054 45.053795-28.06758639 53.24347-14.012343zM77.4488122 10.5899281c15.8138797 0 35.9447288 15.0508048 60.3925498 45.1524143.540169.6650889.831583 1.497682.824357 2.354461-.017755 1.9958545-1.619424 3.6070413-3.601108 3.6503034l-.114741 7.479e-4-1.287462-.00913c-10.287754-.0557736-20.288992.3029285-30.003715 1.0761067-11.4676977.9126943-23.4425245 2.4750775-35.9244804 4.6871487-1.9410351.3439934-3.8010716-.9004131-4.2344368-2.8096123l-.0238364-.1130656-.2068292-1.0743886c-6.7098755-35.2766571-1.9833082-52.9149855 14.179702-52.9149855z" fill="#ff4154"/><path d="M30.7189861-1.39989681e-23h31.5759448c4.6178196 0 8.8829638 2.46984572 11.1815173 6.47495629L89.3310931 34.1008556c2.2807584 3.9741038 2.2807584 8.8601562 0 12.8342599L73.4764482 74.5610148c-2.2985535 4.0051108-6.5636977 6.4749564-11.1815173 6.4749564H30.7189861c-4.6178197 0-8.882964-2.4698456-11.1815175-6.4749564L3.68282375 46.9351155c-2.28075853-3.9741037-2.28075853-8.8601561 0-12.8342599L19.5374686 6.47495629c2.2985535-4.00511057 6.5636978-6.47495629 11.1815175-6.47495629zm26.7634694 8.33810638C62.102714 8.33810638 66.369722 10.8105395 68.667368 14.818982l11.0557951 19.287793c2.2762319 3.9710835 2.2762319 8.8513377 0 12.8224212L68.667368 66.216989c-2.297646 4.0084429-6.564654 6.4808757-11.1849125 6.4808757H35.5314612c-4.6202586 0-8.8872665-2.4724328-11.1849125-6.4808757L13.2907533 46.9291962c-2.2762317-3.9710835-2.2762317-8.8513377 0-12.8224212l11.0557954-19.287793c2.297646-4.0084425 6.5646539-6.48087562 11.1849125-6.48087562h21.9509943zM52.295383 17.4579102H40.7185336c-4.6155159 0-8.8788992 2.4674028-11.1783073 6.469366h0l-5.8422218 10.167989c-2.2850387 3.9769544-2.2850387 8.8684864 0 12.8454409h0l5.8422218 10.1679889c2.2994081 4.0019633 6.5627914 6.4693659 11.1783073 6.4693659h0H52.295383c4.6155161 0 8.8788991-2.4674026 11.1783072-6.4693659h0l5.8422221-10.1679889c2.2850385-3.9769545 2.2850385-8.8684865 0-12.8454409h0l-5.8422221-10.167989c-2.2994081-4.0019632-6.5627911-6.469366-11.1783072-6.469366h0zm-4.9946291 8.7289551c4.6120587 0 8.8727984 2.4637392 11.1734847 6.4609794l.8282627 1.439034c2.2914693 3.9812269 2.2914693 8.8809869 0 12.8622137l-.8282627 1.439034c-2.3006863 3.9972401-6.561426 6.4609795-11.1734847 6.4609795h-1.5875912c-4.6120587 0-8.8727983-2.4637394-11.1734844-6.4609795l-.8282627-1.439034c-2.2914693-3.9812268-2.2914693-8.8809868 0-12.8622137l.8282627-1.439034c2.3006861-3.9972402 6.5614257-6.4609794 11.1734844-6.4609794h1.5875912zm-.7917131 8.5986722c-2.0527159 0-3.9457731 1.0924988-4.970693 2.866224-1.0247471 1.7734263-1.0247471 3.9590219 0 5.7324482 1.0249199 1.7737252 2.9179771 2.8662241 4.9665284 2.8662241h0c2.0527157 0 3.9457726-1.0924989 4.9706926-2.8662241 1.0247473-1.7734263 1.0247473-3.9590219 0-5.7324482-1.02492-1.7737252-2.9179769-2.866224-4.966528-2.866224h0zM0 40.5179856h10.3208271" transform="translate(80.57554 73.669065)" fill="#ffd94c"/></svg>