<svg width="256px" height="256px" viewBox="0 0 256 256" xmlns="http://www.w3.org/2000/svg" preserveAspectRatio="xMidYMid"><defs><radialGradient cx="33.434401%" cy="32.3892028%" fx="33.434401%" fy="32.3892028%" r="64.0150274%" gradientTransform="matrix(1 0 0 .998082 .334344 .323892)rotate(54.654716)translate(-.334344 -.323892)" id="a"><stop stop-color="#fff" stop-opacity="0.904382"/><stop stop-color="#ff6d6d" offset="1"/></radialGradient></defs><circle fill="#fff" cx="127.769784" cy="127.769784" r="127.769784"/><path d="M113.641241 191.300085c-.554162.292485-1.140849.364664-1.839239.194683-.740149-.199315-1.524497-.891981-1.790682-1.55996-.238282-.580159-.220262-2.175453.123497-3.538438-1.819015-.404246-5.403153-1.284512-7.191435-1.776828-12.9950362-3.575052-22.9565766-8.463036-28.0961628-13.701283-2.7784067-2.831742-3.9674621-5.443923-3.9546634-8.261089.0131627-2.079365.6416657-3.782545 2.2397387-5.828578 1.3111679-1.67844 3.767156-3.71207 6.5476698-5.404203-3.4146438-.92232-8.4874466-2.473787-11.2559686-3.456949-4.5873166-1.642376-9.9712521-4.141731-12.6734617-5.88998-4.7231505-3.036408-7.7178876-6.272949-9.5682481-10.204951-1.1398203-2.413257-1.6344401-4.70309-1.5193347-6.876614.1172067-2.213205.8629156-4.316297 2.2543912-6.316136 2.2812853-3.274585 6.8035284-6.682599 13.3551074-9.984713 1.3779863-.698581 3.5616989-1.689736 5.2098525-2.405432-4.630106-3.128417-7.65238-6.9967231-8.5945647-10.8013544-.300586-1.2254239-.3342985-3.6889274-.0718165-4.8258355 1.5940313-6.7652534 10.664322-14.173049 25.8686879-20.4985392 1.2162362-.5080259 4.7271629-1.8506166 6.4962687-2.4953874-.1121462-2.0145911.3424256-3.2264371 2.1424202-5.1468665 1.1838784-1.234665 2.4282081-1.922325 3.9294372-2.1890244.6874882-.119854 1.1811805-.0852494 1.5427543.0308182.5882044.1888175.9813029.5618557 1.2203386 1.201471.2198701.6022438.208856 1.0801074-.0611269 1.6386527-.1550032.3206729-.4525559.7075066-1.007046 1.2483685-.436171.4187733-.5837354.5737455-.6832146.9547295h.1304343c2.8548076-.8770589 9.3119902-2.4217649 13.4325022-3.212827 15.075382-2.8882933 32.822048-4.0217529 46.177636-2.9446319 12.096204.9685749 25.345663 3.7268196 29.598044 6.1027746 1.279114.7085149 2.301145 1.7028322 2.841375 2.6910917.411254.7810725.482958 1.0271988.482958 2.3224017 0 1.3693882-.077699 1.5632604-.493091 2.3315854-1.386813 2.5516885-5.338607 4.3382594-14.87135 5.7771559-12.19365 1.8428942-31.828635 2.742683-46.71091 2.1284042-14.652634-.5973564-25.655964-2.6318466-31.7493335-5.7847889-.7343522-.3810287-.9561974-.6596512-1.1408079-.6220203-.1905962.0365111-1.6793648.5407317-3.319528 1.0904561-9.0109643 3.0651693-16.2031491 6.5217129-20.7905515 10.0398813-1.2666407.9682167-3.1043835 2.7347077-3.8926417 3.7500965-.6626697.8490623-1.3259515 2.0724927-1.4023478 2.7440601-.1025821.8278228.3268275 1.7118829 1.0659529 2.6575951.9324001 1.1930075 2.3800939 2.4442543 4.2813326 3.7158991 1.2882393.8562839 4.9290969 2.8082129 6.4737812 3.4584829l1.9984728-.413323c9.7683487-3.4171553 21.5666898-6.3979248 33.2726509-8.4080479 15.812464-2.7135294 35.236498-4.3780326 53.711517-4.5785994 11.008618-.1187294 17.345139.3141769 24.112943 1.6319857 5.283646 1.0280593 10.41412 2.8749824 12.580821 4.4854636 1.545728 1.1389263 2.574375 2.4581896 3.101547 3.855609.555618 1.4728236.572433 3.04696.001902 4.647831-1.486481 4.167841-7.35292 7.93911-17.225553 10.71947-9.336329 2.629324-22.221371 4.470415-37.84154 5.28121-9.324816.495852-22.912388.554208-30.465596.140961-19.28633-1.067002-34.0663515-3.667119-44.5259855-7.805597l-.7122614-.284387c-4.7722942 1.67914-11.7020346 4.796149-14.9078642 6.673144-2.6675174 1.571066-5.0121717 3.360339-6.1192606 4.734451-.6866366.848123-1.0922723 1.633516-1.1552995 2.489513-.0654398.888765.2273216 1.825021.791562 2.92728.891753 1.719191 2.9859352 4.019392 4.8960724 5.419342 5.8942552 4.314196 16.8418966 8.424188 31.0697583 11.739362l3.0824128.713512 1.9925778-.680324c13.1594269-4.529816 31.2848469-8.023163 48.8083329-9.39518 9.715624-.757152 20.766088-.850497 28.844781-.235329 6.417538.487581 11.9012 1.298459 16.570921 2.440708 4.122868 1.018298 7.191658 2.225222 9.316239 3.654042 2.368658 1.592965 3.625561 3.47579 3.978708 5.662511.269732 1.671166-.111117 3.266205-1.097032 4.688289-.901394 1.300172-2.332889 2.463081-4.270947 3.367572-5.636969 2.61036-15.931212 4.245904-31.97516 4.997302-3.998173.177171-17.673086.177291-21.905495 1.5e-5-17.68926-.778732-34.405958-2.714569-49.7345552-5.747101l-2.8998011-.576421-.9936159.431492c-2.8810275 1.256796-5.9545724 2.978934-7.9272526 4.441151-1.1537216.856115-2.4797064 2.229287-2.8712278 3.048218-.2102874.428649-.2297399.513456-.2021586.942552.0539805.761064.3537883 1.282016 1.0863371 2.210756 3.1783978 4.075019 11.5337426 8.467823 22.0357561 11.746304 4.000987 1.246639 8.322098 2.341625 12.677821 3.215511l2.107672.423575c4.109207-1.724899 9.068118-2.386227 17.370919-2.386226 9.546082.011894 19.98966 1.346632 23.221768 2.112199 3.775068.894174 6.442824 2.69378 6.930612 3.876195.300463.765115.326228 1.589139.121201 2.333172-.214781.779434-.67932 1.461086-1.313528 1.888967-.932489.633593-3.784544 1.233513-7.998218 1.526611-2.9775.213373-11.677393.285519-15.642201.131466-7.222925-.272212-12.216238-.722209-18.787035-1.680605l-2.071472-.298759c-1.081159.579989-1.876156 1.376656-2.436378 2.223233-.451662.673449-.895304 1.08176-1.340522 1.316746zm36.639174-39.355195c4.921361.082034 6.957007.070194 13.512476-.058744 7.911547-.163133 16.13329-.918011 21.724848-1.990195 2.742272-.523026 5.182015-1.164616 6.77252-2.034368-.866677-.394917-2.04401-.817082-3.226217-1.167487-5.726646-1.674229-13.216645-2.760362-23.650055-3.435147-3.154209-.210419-18.008131-.197988-21.549683 5.94e-4-11.921528.689966-22.341917 2.01066-32.417916 4.127705-1.28203.271262-2.800271.613955-4.25421.955181 14.057424 2.106398 28.990291 3.355308 43.088237 3.602461h0zm24.894463-44.325484c11.07564-1.726306 19.531213-4.393861 22.625034-6.750676-.278223-.193605-.64284-.413822-.989842-.58809-3.46433-1.7711334-10.082648-3.0325588-18.476311-3.583001-3.451639-.2220592-16.174027-.1853297-21.909967.0602044-27.43848 1.2134589-48.378853 4.0935476-66.7765539 9.2347536 4.9860647 1.199038 11.5279289 2.331792 17.3639679 2.984161 10.967011 1.228944 23.552884 1.708384 35.426756 1.345564 13.209839-.398049 23.329512-1.239547 32.736916-2.702916zm-22.534226-35.8627246c9.038714-.309406 16.785773-.9815414 22.151807-1.8997907-.728811-.1738217-1.468911-.3405729-2.154537-.4825575-11.856513-2.4611466-24.204677-3.2281487-38.07454-2.3417257-8.137673.5226824-16.185856 1.5193031-23.631089 2.93884 5.735867.9082166 12.51575 1.4817418 21.375114 1.8205744 2.311394.0937586 17.461696.0700197 20.333245-.0353405h0z" fill="#1b1a22" transform="matrix(-1 0 0 1 125.112908 125.216966)rotate(220)translate(-125.112908 -125.216966)"/><ellipse fill="url(#a)" cx="127.877321" cy="127.957171" rx="41.5508462" ry="41.6306961"/><path d="M207.37897 124.788213c.812201.321565.996374.420098 1.876535 1.469145.83246.992138.935781 1.226774 1.122901 2.089623.221375 1.1043.077536 2.522797-.446803 3.887885-1.730302 4.553301-10.107027 15.182826-18.750619 23.700259-9.53867 9.409934-23.861962 19.948846-37.26697 27.426625-3.665036 2.042659-9.60442 5.009864-12.355038 6.173099l-.100006.083798-6.880138 2.820605c-.692498.25166-1.657974.59294-2.65215.938685l-.664355.230224c-1.326491.458031-2.607497.890357-3.263985 1.095125-15.713059 4.927724-27.422941 5.083166-32.9926902.925284l5.1855652-5.862769c.490268.465405 1.784633.9763 2.838101 1.200806 1.25661.271102 3.79985.44312 5.392391.370556 5.775655-.253606 13.507039-2.228858 22.38011-5.672887 1.609669-.633185 3.074394-1.203936 3.243833-1.298417l15.715453-7.672449c6.61585-3.698187 13.421583-8.108017 19.99139-12.938314 11.194751-8.236385 20.161013-16.761185 27.661629-26.26781.433911-.549387.89379-1.152921 1.340224-1.754613l8.624622-10.94446zm-6.58583-33.8658533c1.466014.8595338 2.464966 2.0763626 2.986175 3.5617151.49432 1.4092892.55436 3.0810245.1024 4.9470619-.624714 2.6264863-3.367597 7.3390963-6.754348 11.5229463-4.33745 5.359793-8.91322 9.764467-17.42255 16.749767-14.281669 11.721854-30.231205 22.932259-44.088541 31.017623-10.259338 5.984507-21.213375 11.284996-30.892938 14.946349l-1.796604.967827-11.3271714 3.451211c-1.7227511.51108-4.0326446 1.1555-5.5373353 1.506164-7.1412949 1.681681-12.7961323 1.977831-16.6486561.935782-2.3513324-.637606-4.2744633-1.769347-5.7868892-3.38933-1.4851683-1.591067-2.5782331-3.663194-3.2561726-6.244374l7.869882-1.221249c.276259 1.207068.6538129 2.112461 1.2752115 2.751356.5985611.615136 1.4140777.95604 2.4852259 1.164339 1.7314072.341088 4.6776172.204616 7.7310158-.306463 3.6622734-.622872 10.9742964-2.689473 15.7093755-4.470791l14.8605239-6.030734c17.398239-7.887563 35.290797-19.141433 57.089842-35.849025 4.551827-3.498912 14.321266-11.648552 16.822699-14.037272 6.07604-5.817093 10.335217-11.037467 11.85059-14.621099.153784-.3565582.291545-.7597122.380316-1.0868028l4.347949-6.2650015zm-35.020985-34.4260696c1.638769.4235603 2.98636 1.4326423 3.853813 2.8863171 1.135056 1.9021352 1.382585 4.1523568.591931 6.8952403-.709064 2.4601784-2.284109 5.3572144-4.787752 8.7874302-2.843074 3.8766504-6.522659 8.0227453-11.125318 12.5213468-5.793151 5.664046-14.31832 12.6957585-22.247689 18.3607255-14.305612 10.212926-30.436006 19.18766-43.4284666 24.176345l-1.9636489.759528-6.9182619 2.089439-6.2832345 1.412973c-3.2176806.491004-6.4064461.511815-8.4896231.06888-2.5393726-.540178-4.1157064-1.440967-5.4623769-3.025404-1.8205468-2.149848-2.588731-4.9152-2.2806101-8.870308l6.8876892 2.11375c.0359137 1.182388.1410763 1.774135.5889842 2.39185.2547108.346429.3239597.398918.7606331.592115.8263827.375528 2.7248345.575171 4.1588028.489347.9591472-.057871 2.5346131-.329725 4.0971975-.639237l.5195213-.104323c2.069272-.420938 3.9913573-.873992 4.2748185-.941202l.0358642-.008522h0l17.9656748-7.390664.0400186-.020436c.3400743-.1737 2.7589454-1.410047 3.8327638-1.982442 9.079528-4.854976 17.910976-10.541307 27.486849-17.6757872 2.840679-2.1242475 14.227338-11.6627338 16.508501-13.8514417 7.55863-7.2232518 12.598147-12.8698015 15.908835-17.8334389.680333-1.0282359 1.087723-2.0942273 1.720909-2.9681266l3.754175-8.2339545z" fill="#1b1a22"/></svg>