<svg width="256px" height="256px" viewBox="0 0 256 256" xmlns="http://www.w3.org/2000/svg" preserveAspectRatio="xMidYMid"><defs><circle id="a" cx="128" cy="128" r="128"/></defs><g style="fill:#fff"><mask id="b"><use href="#a"/></mask><use href="#a"/></g><g mask="url(#b)"><g transform="translate(-2 -1)"><path d="M185.588388 12.4807473C168.751889 4.47811859 149.91586 0 130.033911 0 95.3500698 0 63.8492188 13.6279973 40.5939705 35.8213782 15.8698025 59.4166058 229.34929 33.2809293 185.588388 12.4807473z" fill="#fcc397"/><path d="M231.401796 48.7266969c.148013.1849782-10.567733 14.5070331-42.773603 18.5729852-65.005356 8.2068469-176.6087136 9.0745557-176.4405031 8.7049392 6.9039151-15.1702817 16.6474846-28.7752128 28.5516538-40.1357385 14.0259658 4.3792139 29.2926502 5.4704849 43.7331986 2.8093389 23.8439807-4.3621262 45.0577937-18.1395349 68.6430697-23.7541528 10.468757-2.5149842 21.874185-3.2496059 32.616069-2.3963176 17.849395 8.4837425 33.451523 20.9288116 45.670115 36.1989456z" fill="#fc9f95"/><path d="M257.961711 109.343099c.082116.521967-146.586989 14.308578-218.0479338 10.290173-23.2826994-1.309237-37.02314271-15.386033-36.86556137-16.154614 1.9637523-9.5779283 4.98439264-18.7705759 8.93471467-27.4507374C32.6282657 64.727606 56.9174137 58.2060871 80.4698477 58.463451c29.5354923.3023256 58.5104563 10.1495017 88.0459473 9.4152824 21.934369-.5578556 44.043043-7.5585905 62.680875-19.1287334 13.735454 17.1657248 23.195176 37.901465 26.765041 60.593099z" fill="#f77c88"/><path d="M259.131496 128.910143c0 .717918-.017472 2.149617-.017472 2.149617 0 0-40.737455 10.275008-93.202148 9.661992C92.4271468 139.86313-.0018332952 128.009991 0 127.79293c.072609279-8.596894.982464738-16.994098 2.65201085-25.114058 17.60582645 10.863177 38.95725065 16.183512 59.50781695 13.944159 16.3415348-1.770764 31.8638373-7.817275 46.9980812-14.252491 15.134245-6.4352163 30.182255-13.3455153 46.17885-17.0598007 23.499041-5.4418605 48.636547-3.5415283 71.100768 5.3122921 10.928448 4.3097099 21.771948 10.5056356 31.111385 17.9770846 1.041713 6.616989 1.582584 13.400344 1.582584 20.310027z" fill="#f25192"/><path d="M112.194229 171.016926c-38.8734371 7.178736-105.58499259-1.101231-105.75310756-1.613186C2.26108681 156.674444 0 143.074904 0 128.947259c0-.373086.00157686901-.745804.00472430587-1.118147C5.90601894 123.14968 12.7991299 118.977159 19.5282573 115.734969c16.6433574-8.076412 35.5288252-11.445182 53.9400003-9.631229 18.195588 1.813954 35.5719424 8.551495 52.3877704 15.807309 14.167287 6.113003 28.24276 12.7165 42.948385 17.279396 1.440527.44697-13.819493 23.924348-56.610184 31.826481z" fill="#d34ca3"/><path d="M254.617923 163.852293c-2.714378 4.584153-28.530345 20.027104-63.525282 22.671903-46.334974 3.50184-101.0724745-10.504154-82.914965-17.631794 28.586907-11.229236 53.379473-31.398671 82.914964-39.820598 22.064186-6.320703 46.522311-5.321334 68.182246 2.316221-.182408 11.226431-1.792623 22.105747-4.656963 32.464268z" fill="#9a50a5"/><path d="M242.591209 193.572845c-22.3731 38.84298-184.6385415 48.583906-208.3431853 22.455141-12.0664771-13.300438-21.4067683-29.119498-27.1386487-46.574954 19.9269337-11.389237 43.2535046-16.226446 65.6746079-13.160001 29.0180821 3.973422 55.0179381 20.169436 83.6479621 26.475083 23.110984 5.096346 47.601727 3.498339 69.850361-4.534883 10.057578-3.659483 20.03018-8.563546 28.848643-14.626627-2.929691 10.595594-7.171563 20.6463-12.53974 29.966241z" fill="#59569e"/><path d="M242.057658 193.029135c-22.326065 39.021823-64.362686 65.317205-112.540923 65.317205-38.0649032 0-72.2959986-16.41448-96.00111-42.551263 3.9337978 1.50391 8.3335257 2.80392 12.3660829 3.939967 22.5504558 6.219269 46.8256121 6.046512 69.2467151-.561462 14.35813-4.232558 27.853909-10.970099 41.953334-16.066445 26.904705-9.701837 56.51772-13.118477 84.975901-10.078002z" fill="#39477f"/></g></g></svg>