<svg width="256px" height="338px" viewBox="0 0 256 338" xmlns="http://www.w3.org/2000/svg" preserveAspectRatio="xMidYMid"><path d="M63.5120941.566211765c0 0-63.283199982 0-63.283199982 63.283200035V285.334588c0 0 63.283199982 1.264941 63.283199982-62.331482V111.310808 98.6533647 79.6672c0-8.7381333 7.0836706-15.8177882 15.8177883-15.8177882h17.0867451 29.7441885c61.38378 0 62.648721-63.283200035 62.648721-63.283200035H63.5120941h0z" fill="#27ccf5"/><path d="M192.026102 114.940988v111.688283 12.657443 18.986164c0 8.738134-7.083671 15.817789-15.817788 15.817789h-17.086745-29.740173c-61.3837803 0-62.6527372 63.2832-62.6527372 63.2832H192.026102c0 0 63.2832 0 63.2832-63.2832V52.6054902c0 0-63.2832-1.2649412-63.2832 62.3354978h0z" fill="#22e071"/></svg>