<svg width="256px" height="256px" viewBox="0 0 256 256" xmlns="http://www.w3.org/2000/svg" preserveAspectRatio="xMidYMid"><path fill="#dd4b39" d="M0 0h256v256H0z"/><path d="M151.32996 232.673587h-28.849167l-14.215529-27.037374H89.3112253v27.037374h-25.504332v-97.69692h43.9008987c25.922435 0 40.695435 12.543106 40.695435 34.284506 0 14.773-6.132187 25.643707-17.42099 31.49716l20.347723 31.915254zm-62.0187347-77.3492v29.964106H107.84716c10.313228 0 16.306049-5.295986 16.306049-15.191106 0-9.616387-5.992821-14.773-16.306049-14.773H89.3112253zm75.3980547-20.34772h77.070467v20.34772h-51.566134v18.2572h46.54888v20.208346l-46.54888.139374v18.39656h52.959814v20.34772H164.70928v-97.69692z" fill="#fff"/></svg>