<svg width="256px" height="244px" viewBox="0 0 256 244" xmlns="http://www.w3.org/2000/svg" preserveAspectRatio="xMidYMid"><title>reCAPTCHA</title><g transform="translate(40.633424)"><path d="M170.667642 84.9655627c-.004064-1.2237756-.032305-2.4409682-.087163-3.6523093V12.2513683l-19.092743 19.0927434C135.861395 12.2168282 112.089689 0 85.4633463 0 57.7540706 0 33.1371485 13.2262114 17.5758241 33.7090917l31.2953492 31.6244959c3.0669565-5.6720915 7.4238835-10.543869 12.6772273-14.223404 5.463632-4.2636688 13.205081-7.7497793 23.9139298-7.7497793 1.2937091 0 2.2922426.1511637 3.0259147.4359771 13.2682689 1.0472351 24.7693049 8.3696723 31.5411929 18.9976566L97.877053 84.9464234c28.05874-.1101219 59.75638-.1747322 72.788151.0142224" fill="#1c3aa9"/><path d="M84.9655627.0030476546c-1.2237756.00406353947-2.4409682.0323051388-3.6523093.0871629217H12.2513683L31.3441117 19.182954C12.2168282 34.809295-2.30985476e-13 58.5810009-2.30985476e-13 85.2073433-2.30985476e-13 112.916619 13.2264146 137.533541 33.7090917 153.094865l31.6244959-31.295349c-5.6720915-3.066956-10.543869-7.423883-14.223404-12.677227-4.2634656-5.463632-7.7497793-13.2050811-7.7497793-23.9139298 0-1.2937091.1511637-2.2922426.4359771-3.0259147 1.0472351-13.2682691 8.3696723-24.7693048 18.9976566-31.5411934l22.1523854 22.1523855c-.1101219-28.0587401-.1749354-59.7563797.0142224-72.78815082171" fill="#4285f4"/><path d="M.0030476546 85.2053115c.00406353947 1.2237756.0323051388 2.4409682.0871629217 3.6523093v69.0618852L19.182954 138.826763c15.626341 19.127283 39.3980469 31.344111 66.0243893 31.344111 27.7092757 0 52.3261977-13.226211 67.8875217-33.709091l-31.295349-31.624496c-3.066956 5.672091-7.423883 10.543869-12.677227 14.223404-5.463632 4.263668-13.2050811 7.749779-23.9139298 7.749779-1.2937091 0-2.2922426-.151164-3.0259147-.435977-13.2682691-1.047235-24.7693048-8.369672-31.5411934-18.997657l22.1523855-22.1523852c-28.0587401.1101219-59.7563797.1747322-72.78815082171-.0142224" fill="#ababab"/></g><path d="M55.0132742 203.167831c-2.0754528 0-3.9361475.393635-5.5822873 1.180824-1.6460383.769349-3.0415593 1.869715-4.1866648 3.301016-1.1271852 1.431321-1.9949134 3.166919-2.6033065 5.20641-.5904323 2.021733-.8856485 4.285002-.8856485 6.789768v7.219284c0 2.522645.2952162 4.794977.8856485 6.816791.6083118 2.021753 1.4671206 3.748209 2.5764872 5.17959 1.1093666 1.431382 2.451127 2.531585 4.0255454 3.301017 1.5744183.769431 3.3457152 1.154025 5.3138905 1.154025 2.0217531 0 3.7931109-.295217 5.3138906-.885649 1.5386795-.590412 2.8268012-1.440281 3.8646292-2.549465 1.0377061-1.127185 1.8338957-2.486886 2.3885485-4.079387.5725324-1.592359.9124881-3.399354 1.0198265-5.421168h-4.9650357c-.1252586 1.55658-.3399354 2.889583-.6441116 3.998726-.304156 1.091406-.7514501 1.994934-1.3418824 2.710584-.5725324.697791-1.3239824 1.216644-2.2544517 1.5566-.9124678.322035-2.0396936.483053-3.3814743.483053-1.4313412 0-2.6480055-.313096-3.6498712-.939307-1.0019266-.644092-1.8159958-1.5208-2.4421872-2.630126-.6083119-1.109306-1.055606-2.406428-1.3418823-3.891449-.2683765-1.485041-.4025546-3.086258-.4025546-4.803916v-7.272923c0-1.842795.1610178-3.515774.4830736-5.018675.3399354-1.502879.8498486-2.782102 1.5297398-3.837809.6798911-1.055627 1.5386795-1.869696 2.5764872-2.442188 1.037706-.590412 2.2723312-.885628 3.7035098-.885628 1.1987442 0 2.2274292.178796 3.0862583.536774.8588087.339935 1.574459.876688 2.146971 1.610218.5725324.71567 1.0108868 1.628138 1.3150427 2.737403.3041559 1.109306.5099132 2.433247.6172516 3.971907h4.965117c-.0895198-2.111212-.4205357-3.980847-.9930681-5.609107-.5725324-1.628159-1.368722-2.99686-2.3885485-4.106207-1.0198265-1.109265-2.2633915-1.950194-3.7303292-2.522645-1.4492207-.572553-3.1220174-.858809-5.0186745-.858809l6.1e-5 4.68e-4zm121.1991278 0c-2.075452 0-3.936147.393635-5.582287 1.180824-1.646038.769349-3.041559 1.869715-4.186665 3.301016-1.127164 1.431321-1.994933 3.166919-2.603306 5.20641-.590412 2.021733-.885608 4.285002-.885608 6.789768v7.219284c0 2.522645.295196 4.794977.885608 6.816791.608312 2.021753 1.467141 3.748209 2.576487 5.17959 1.109306 1.431341 2.451127 2.531585 4.025545 3.301017 1.574459.76935 3.345716 1.154025 5.313891 1.154025 2.021733 0 3.792908-.295217 5.313891-.885649 1.538659-.590412 2.826801-1.440281 3.864629-2.549465 1.037726-1.127185 1.833895-2.486886 2.388548-4.079387.572553-1.592359.912509-3.399354 1.019827-5.421168h-4.964833c-.125157 1.55658-.339935 2.889583-.644111 3.998726-.304156 1.091406-.75145 1.994934-1.341862 2.710584-.572533.697791-1.323983 1.216644-2.254452 1.5566-.912468.322035-2.039694.483053-3.381474.483053-1.431342 0-2.648006-.313096-3.649872-.939307-1.001926-.644092-1.816016-1.5208-2.442187-2.630126-.608312-1.109306-1.055606-2.406428-1.341882-3.891449-.268356-1.485041-.402555-3.086258-.402555-4.803916v-7.272923c0-1.842795.16112-3.515774.483074-5.018675.339956-1.502879.849849-2.782102 1.52976-3.837809.679871-1.055627 1.538679-1.869696 2.576284-2.442188 1.037726-.590412 2.272331-.885628 3.70351-.885628 1.198724 0 2.227429.178796 3.086258.536774.858809.339935 1.574479.876688 2.146971 1.610218.572512.71567 1.010867 1.628138 1.315022 2.737403.304156 1.109306.509914 2.433247.617272 3.971907h4.965077c-.089845-2.111212-.420678-3.980847-.993231-5.609107-.572532-1.628159-1.368702-2.99686-2.388548-4.106207-1.019847-1.109346-2.263392-1.950194-3.73033-2.522645-1.4492-.572553-3.122017-.858809-5.018674-.858809l2.23e-4 4.68e-4zm-92.9107978.536753-12.5868135 39.074995h5.0454938l3.0326195-10.198265h13.2040652l3.0862582 10.198265h5.0454936l-12.6136327-39.074995h-4.2134841zm22.1401948 0v39.074995h4.911194v-15.297397h7.54132c1.878635 0 3.542593-.259437 4.991855-.77829 1.44922-.536753 2.665885-1.306083 3.649871-2.308091 1.001926-1.001946 1.753376-2.236369 2.254248-3.703509.518853-1.485021.77829-3.166717.77829-5.045494 0-1.735497-.259416-3.327836-.77829-4.777097-.500973-1.467141-1.243483-2.728464-2.227429-3.784171-.984047-1.073486-2.209549-1.905455-3.67669-2.495826-1.449221-.590412-3.113078-.885628-4.991855-.885628l-12.452514 5.08e-4zm27.884008 0v4.240303h10.251904v34.834692h4.911193v-34.834692h10.278724v-4.240303h-25.441821zm61.645925 0v39.074995h4.911194v-18.06162h15.726711v18.06162h4.938013v-39.074995h-4.938013v16.800297h-15.726711v-16.800297h-4.911194zm44.201151 0-12.586813 39.074995h5.045493l3.03262-10.198265h13.204065l3.086258 10.198265H256l-12.613633-39.074995h-4.213484zm-128.820297 4.240303h7.54132c1.198744 0 2.21849.214555 3.059439.644091.858789.429374 1.55658 1.001907 2.093332 1.717577.554633.715671.957208 1.547619 1.207684 2.495826.268377.930347.402575 1.896515.402575 2.898523 0 1.109285-.134178 2.129091-.402575 3.059439-.250476.912488-.653051 1.708677-1.207684 2.388548-.536752.661991-1.234523 1.180844-2.093332 1.55658-.840909.375714-1.860735.563572-3.059439.563572h-7.54132v-15.324156zm-24.9582589 2.630126 5.3407099 17.766404H80.0806397l5.3136874-17.766404zm155.8712789 0 5.34071 17.766404h-10.654398l5.313688-17.766404zm-231.1747607 2.630126c-1.23452356 0-2.29915059.313096-3.1937388.939307-.87668833.626212-1.61025879 1.476061-2.2006098 2.549465l-.08051904-2.952161H0v29.038053h4.75027764v-20.772814c.44729411-1.234544 1.08244565-2.20955 1.90545461-2.925342.84090886-.715651 1.90547493-1.073486 3.19373885-1.073486.4115146 0 .7782897.018286 1.1003252.053639.3220558.018286.670931.062578 1.0466662.134097l-.0268397-4.615978c-.0715792-.035962-.1878574-.071721-.3488955-.107481-.1431178-.053841-.3041559-.09854-.4830736-.134096-.1789379-.03576-.366775-.062782-.5635926-.080662-.1789379-.035759-.3399354-.053638-.4830735-.053638l-1.423e-4.001097zm15.9682879 0c-1.3776618 0-2.710584.241516-3.998726.72461-1.288203.483074-2.4332474 1.279243-3.4351131 2.388549-.9840267 1.091385-1.7802163 2.522645-2.3885485 4.293942-.6083118 1.753376-.9124678 3.909328-.9124678 6.467936v3.274197c0 2.218489.2594367 4.141965.7782897 5.770022.5188531 1.628058 1.2613633 2.978981 2.2274292 4.052568.984047 1.055586 2.1737904 1.842815 3.5694131 2.361729 1.3955413.518874 2.9611012.77829 4.6966389.77829 1.2524235 0 2.3706689-.12536 3.354655-.375715 1.0019266-.250497 1.887575-.572552 2.6569453-.966167.7693499-.411535 1.4313411-.876688 1.9859736-1.395541.5546325-.518854 1.0287663-1.055606 1.4223811-1.610259l-2.4690066-3.0058c-.3936148.483053-.8140692.930367-1.2613633 1.341882-.4472941.393594-.9393075.74251-1.4760604 1.046646-.5367529.286276-1.1271852.509933-1.7712765.670951-.6440913.160916-1.368722.241537-2.1737905.241537-2.2006098 0-3.8914485-.706731-5.0723131-2.120152-1.1629647-1.413441-1.7444369-3.67669-1.7444369-6.789971v-.670951h16.2098653v-2.764223c0-2.21849-.1878574-4.177725-.5635926-5.877504-.3757148-1.699717-.9750869-3.130957-1.7981162-4.293942-.823009-1.162965-1.8786352-2.039693-3.1669195-2.630126-1.2882029-.608332-2.8446808-.912508-4.6698195-.912508h-4.07e-5zm0 4.079387c1.0377061 0 1.8965149.187736 2.5764872.563593.6798708.375715 1.2166237.903507 1.6102588 1.583378.4115147.679891.7067105 1.494001.8856281 2.442187.1967972.930348.3220355 1.959114.3757149 3.086259v.644091H20.0744539c.0715792-1.628159.2683764-2.978981.5904323-4.052568.3220558-1.073587.7425102-1.923375 1.2613633-2.549465.5367529-.644091 1.1540045-1.091365 1.8517955-1.341862.6977707-.250476 1.4581605-.375714 2.2812711-.375714l-1.829e-4 1.01e-4z" fill="#a6a6a6"/></svg>