<svg width="256px" height="596px" viewBox="0 0 256 596" xmlns="http://www.w3.org/2000/svg" preserveAspectRatio="xMidYMid"><title>Recoil</title><path d="M128.011254 0c27.821883 0 50.356948 22.5350648 50.356948 50.3569482 0 20.739529-12.565407 38.5644017-30.514507 46.2929054l-.545553.2310993v21.2133601c0 20.477831 15.220983 37.911466 35.46748 40.758866l.615058.081808 6.079841.793023c32.910447 4.16337 58.419347 27.821884 64.961785 60.335819 6.542439 32.513935-7.731972 64.234847-36.479049 80.888326-12.87037 7.410213-26.891593 11.943294-41.68634 13.473467l-.74038.074006-91.3958783 8.59108c-9.318018.859108-18.1073541 3.700774-26.2358379 8.392825-16.5873937 9.582359-19.8255702 26.169753-17.3143313 38.461606 2.4861265 12.168935 11.7731175 26.021894 30.3617479 28.606144l6.6459831.867871c40.0397215 4.972253 70.2991525 38.896757 70.9003365 79.138293l.009119 1.221351v19.6934c17.644758 7.798057 30.002697 25.5089 30.002697 46.061408 0 27.821883-22.535065 50.356948-50.356949 50.356948-27.821883 0-50.3569478-22.535065-50.3569478-50.356948 0-20.674105 12.5006366-38.498323 30.3843198-46.226821l.54357-.231099v-19.296888c0-20.477831-15.2209827-37.911466-35.4674801-40.758866l-.6150579-.081809-6.0798416-.793022c-32.9104464-4.16337-58.41934671-27.821884-64.96178486-60.335819-6.60852339-32.513935 7.73197236-64.234847 36.47904906-80.888326 12.8703702-7.410213 26.8915931-11.943294 41.68634-13.473467l.7403802-.074006 91.3958782-8.591081c9.318018-.859108 18.107354-3.700773 26.235838-8.392824 16.587394-9.582359 19.82557-26.169753 17.314331-38.461606-2.486126-12.168935-11.773117-26.021894-30.361748-28.606144l-6.645983-.867871c-40.039721-4.972253-70.299152-38.896757-70.900336-79.138293l-.00912-1.221351V96.352271c-17.5786718-7.8641428-29.8705253-25.5089003-29.8705253-45.9953228C77.6543057 22.5350648 100.18937 0 128.011254 0zm60.534074 336.968608 28.218395 30.927889c21.001227 23.094807 32.675553 52.860938 32.90694 83.97623l.003507.943296h-39.849397c0-21.328349-7.837186-41.749915-22.036743-57.609721l-.432236-.4792-47.97788-52.603846 38.329436-3.634688 1.211472-.134799c2.871207-.326186 5.737831-.702797 8.567272-1.195028l1.059234-.190133zM42.695217 143.537128c0 21.328348 7.8371867 41.749915 22.036744 57.60972l.4322355.479201 48.1100505 52.736016-35.4216856 3.370347-1.0522201.096195c-3.8576992.369921-7.7081191.929104-11.4711874 1.677548l-1.0240654.208814-28.4827358-31.258315c-21.0012265-23.029383-32.67555313-52.85963-32.90693954-83.976211l-.00350694-.943315H42.695217z" fill="#1c1e21"/></svg>