<svg width="256px" height="256px" viewBox="0 0 256 256" xmlns="http://www.w3.org/2000/svg" preserveAspectRatio="xMidYMid"><circle fill="#ff4500" cx="128" cy="128" r="128"/><path d="M213.149867 129.220267c0-10.376534-8.391111-18.616889-18.616889-18.616889-5.034667 0-9.614222 1.982578-12.970667 5.188266-12.817067-9.156266-30.367289-15.106844-49.900089-15.8691551l8.544711-39.9815111 27.773156 5.9505778c.3072 7.0200888 6.104178 12.6663111 13.277867 12.6663111 7.324444 0 13.275022-5.9505778 13.275022-13.2778667 0-7.3244444-5.950578-13.2750222-13.275022-13.2750222-5.188267 0-9.767823 3.0520889-11.904 7.4780444l-30.976-6.5621333c-.915912-.1536-1.831823 0-2.443378.4579555-.762311.4579556-1.220267 1.2202667-1.371022 2.1361778l-9.463467 44.5582218c-19.837156.611556-37.6917334 6.562134-50.6624001 15.872-3.3564445-3.205688-7.936-5.188266-12.9706667-5.188266-10.3765333 0-18.6168889 8.391111-18.6168889 18.616889 0 7.6288 4.5767111 14.037333 10.9880889 16.938666-.3072 1.828978-.4579555 3.6608-.4579555 5.646223 0 28.686222 33.4193777 52.036266 74.6211553 52.036266 41.201778 0 74.621156-23.196444 74.621156-52.036266 0-1.831823-.1536-3.817245-.457956-5.646223 6.408534-2.901333 10.985245-9.463466 10.985245-17.092266zM85.2721778 142.495289c0-7.324445 5.9505778-13.275022 13.2778666-13.275022 7.3244446 0 13.2750226 5.950577 13.2750226 13.275022 0 7.324444-5.950578 13.277867-13.2750226 13.277867-7.3272888.150755-13.2778666-5.953423-13.2778666-13.277867zm74.3168002 35.2512c-9.156267 9.156267-26.552889 9.767822-31.587556 9.767822-5.188266 0-22.584889-.765155-31.5903998-9.767822-1.3710222-1.373867-1.3710222-3.510045 0-4.883911 1.3738667-1.371022 3.5100445-1.371022 4.8839108 0 5.799823 5.799822 18.008178 7.7824 26.706489 7.7824 8.698311 0 21.057422-1.982578 26.703645-7.7824 1.373866-1.371022 3.510044-1.371022 4.883911 0 1.220266 1.373866 1.220266 3.510044 0 4.883911zm-2.443378-21.822578c-7.324444 0-13.275022-5.950578-13.275022-13.275022 0-7.324445 5.950578-13.275022 13.275022-13.275022 7.327289 0 13.277867 5.950577 13.277867 13.275022 0 7.170844-5.950578 13.275022-13.277867 13.275022z" fill="#fff"/></svg>