<svg width="256px" height="220px" viewBox="0 0 256 220" xmlns="http://www.w3.org/2000/svg" preserveAspectRatio="xMidYMid"><path d="M245.969687 168.943256c-13.661428 7.121223-84.433639 36.220132-99.50111 44.074377-15.06647 7.856246-23.436733 7.780243-35.339104 2.090066-11.9023723-5.690178-87.2167257-36.112129-100.7831496-42.596331C3.56511141 169.270267 0 166.535181 0 163.9511v-25.875808c0 0 98.0490639-21.345667 113.878559-27.023845 15.828494-5.679178 21.320666-5.884183 34.791087-.950029 13.471421 4.935154 94.016937 19.467608 107.330354 24.34376 0 0-.006001 23.110722-.006001 25.509797.002001 2.55808-3.070095 5.364168-10.024312 8.988281" fill="#912626"/><path d="M245.964922 143.220067c-13.660987 7.117993-84.430919 36.217965-99.497905 44.071957-15.065986 7.856994-23.435978 7.779993-35.337967 2.089999-11.9029882-5.685995-87.2139164-36.112966-100.7799034-42.59396-13.56598713-6.484994-13.85098686-10.947989-.52399955-16.165984C23.1511343 125.402084 98.0490629 96.0171117 113.880047 90.3381172c15.827986-5.6769946 21.318981-5.8839944 34.788967-.9479991 13.470988 4.9339953 83.818921 32.9349689 97.130908 37.8099639 13.314988 4.880996 13.825986 8.898991.165 16.019985" fill="#c6302b"/><path d="M245.969687 127.074354c-13.661428 7.121223-84.433639 36.220132-99.50111 44.077378-15.06647 7.853245-23.436733 7.777243-35.339104 2.087065-11.9033723-5.687178-87.2167257-36.112129-100.7831496-42.596332C3.56511141 127.401364 0 124.669279 0 122.085199V96.2063895c0 0 98.0490639-21.3446669 113.878559-27.0238445 15.828494-5.6781774 21.320666-5.8841838 34.791087-.9500296C162.141067 73.1676697 242.686583 87.6971237 256 92.5742761c0 0-.006001 23.1107219-.006001 25.5127969.002001 2.55708-3.070095 5.363168-10.024312 8.987281" fill="#912626"/><path d="M245.964922 101.351164c-13.660987 7.119993-84.430919 36.217965-99.497905 44.074958-15.065986 7.853992-23.435978 7.776992-35.337967 2.086998-11.9029882-5.685995-87.2139164-36.111966-100.7799034-42.59396-13.56598713-6.4829936-13.85098686-10.9469894-.52399955-16.1669844C23.1511343 83.5351806 98.0490629 54.1482087 113.880047 48.4702141c15.827986-5.6779946 21.318981-5.8839944 34.788967-.9489991 13.470988 4.9339952 83.818921 32.9329685 97.130908 37.8099639 13.314988 4.8789953 13.825986 8.8989915.165 16.0189841v.001001" fill="#c6302b"/><path d="M245.969687 83.6525661c-13.661428 7.1212226-84.433639 36.2211319-99.50111 44.0783779-15.06647 7.854245-23.436733 7.777243-35.339104 2.087064-11.9033723-5.687177-87.2167257-36.1131278-100.7831496-42.5953303C3.56511141 83.9805764 0 81.2474909 0 78.6654102V52.7856015c0 0 98.0490639-21.343667 113.878559-27.0218444 15.828494-5.6791774 21.320666-5.8841838 34.791087-.9500296C162.141067 29.7488817 242.686583 44.2783357 256 49.1554881c0 0-.006001 23.1107222-.006001 25.5117972.002001 2.5550799-3.070095 5.3611675-10.024312 8.9852808" fill="#912626"/><path d="M245.964922 57.929387c-13.660987 7.1199932-84.430919 36.2199654-99.497905 44.074958-15.065986 7.853993-23.435978 7.776993-35.337967 2.088998-11.9019883-5.6879946-87.2139164-36.1119657-100.7799034-42.5949594C-3.21684053 55.0153898-3.50184026 50.550394 9.82514705 45.331399 23.1511343 40.113404 98.0490629 10.729432 113.880047 5.04943744c15.827986-5.678994588 21.318981-5.882994393 34.788967-.9479991 13.470988 4.93499529 83.818921 32.93396856 97.130908 37.81096386 13.314988 4.8759954 13.825986 8.8969916.165 16.0169848" fill="#c6302b"/><g style="fill:#fff"><path d="M159.282977 32.7570853l-22.009055 2.2851473-4.927503 11.8553798-7.958822-13.2296434-25.41445-2.284155 18.963845-6.8385737-5.68955-10.4979845 17.754294 6.943752 16.738233-5.4801861-4.523659 10.8551938 17.066667 6.3910698"/><path d="M131.03169 90.2747287 89.9546047 73.2378295l58.8611473-9.0344186-17.784062 26.0713178"/><path d="M74.0816124 39.3466047c17.3752558 0 31.4602166 5.460341 31.4602166 12.1947286 0 6.7353799-14.0849608 12.1947287-31.4602166 12.1947287-17.3742636 0-31.4602171-5.4593488-31.4602171-12.1947287 0-6.7343876 14.0859535-12.1947286 31.4602171-12.1947286"/></g><path d="M185.29476 35.9977674l34.835845 13.7664497-34.806078 13.7525581-.029767-27.5190078" fill="#621b1c"/><path d="M146.754853 51.2426667l38.539907-15.2448993.029767 27.5190078-3.77848 1.4784496-34.791194-13.7525581" fill="#9a2928"/></svg>