<svg width="256px" height="344px" viewBox="0 0 256 344" xmlns="http://www.w3.org/2000/svg" preserveAspectRatio="xMidYMid"><path d="M0 324.4331c0 10.808 8.761 19.567 19.567 19.567 10.806 0 19.567-8.759 19.567-19.567v-127.742l-.905-.329-37.902 22.382-.327 1.057v104.632z" fill="#ee3a43"/><path d="M0 83.7621v136.039l39.134-23.11v-101.73l.014-.41-35.98-20.815-.468.133c-1.733 2.953-2.7 6.352-2.7 9.893" fill="#cf3239"/><path d="M117.9269 3.297 9.6569 66.889c-2.929 1.721-5.295 4.146-6.957 6.98l36.434 21.092 88.815-52.165.749-1.215V1.439l-.749-.82c-3.472-.024-6.925.86-10.022 2.678" fill="#af272b"/><path d="M245.5227 65.1601l-107.945-61.961c-2.976-1.707-6.313-2.557-9.628-2.58v42.177l88.324 50.698.571.152 36.912-18.357.165-.446c-1.614-4.016-4.525-7.459-8.399-9.683" fill="#7a1313"/><path d="M255.9997 204.6469l-.652-122.62c-.013-2.505-.522-4.932-1.427-7.184l-37.647 18.651.009 100.15.144.734 34.267 22.835.843-.079c2.846-3.473 4.487-7.858 4.463-12.487" fill="#af272b"/><path d="M251.5365 217.1335l-35.254-23.489-97.539 57.159c-.073.043 48.623 17.648 48.623 17.648l78.885-46.811c1.991-1.181 3.861-2.77 5.285-4.507" fill="#cf3239"/><path d="M228.8354 343.8739c-3.197 0-6.438-.783-9.434-2.438l-101.44-55.957c-9.462-5.22-12.902-17.121-7.682-26.583 5.217-9.463 17.125-12.91 26.584-7.682l101.44 55.957c9.463 5.22 12.902 17.121 7.682 26.583-3.566 6.466-10.254 10.12-17.15 10.12" fill="#ee3a43"/><g transform="translate(82 96)"><path d="M45.4768 48.6336l40.924-24.12.242-.719c-1.992-2.972-4.619-5.532-7.823-7.382l-21.397-12.353c-7.362-4.251-16.432-4.251-23.793 0l-21.398 12.353c-3.165 1.828-5.766 4.348-7.75 7.273l.18.828 40.815 24.12z" fill="#cf3239"/><path d="M78.8198 82.3314c4.133-2.386 7.33-5.931 9.379-10.066l-.241-.743-41.643-23.819-.875.106-1.212.069-41.179 24.264.048.617c2.058 3.922 5.167 7.281 9.135 9.572l21.398 12.354c7.361 4.25 16.431 4.25 23.793 0l21.397-12.354z" fill="#7a1313"/><path d="M4.4787 23.6896c-2.629 3.877-4.143 8.485-4.143 13.329v24.707c0 3.927 1.005 7.697 2.772 11.056l42.333-24.973-40.962-24.119z" fill="#af272b"/><path d="M88.201 72.2615c1.599-3.229 2.515-6.809 2.515-10.536v-24.707c0-4.799-1.487-9.365-4.07-13.22L45.44 47.8095l42.761 24.452z" fill="#ee3a43"/></g></svg>