<svg width="256px" height="250px" viewBox="0 0 256 250" xmlns="http://www.w3.org/2000/svg" preserveAspectRatio="xMidYMid"><defs><linearGradient x1="73.8440616%" y1="26.6921802%" x2="30.4585012%" y2="67.386722%" id="a"><stop stop-color="#b1278f"/><stop stop-color="#af278e" offset=".48"/><stop stop-color="#a8258a" offset=".65"/><stop stop-color="#9e2383" offset=".76"/></linearGradient><linearGradient x1="111.45912%" y1="16.5892875%" x2="-0.0733783563%" y2="76.3231516%" id="b"><stop stop-color="#ec178d"/><stop stop-color="#ea178d" offset=".47"/><stop stop-color="#e3188c" offset=".64"/><stop stop-color="#d81a8a" offset=".76"/><stop stop-color="#c71d88" offset=".86"/><stop stop-color="#b12085" offset=".95"/><stop stop-color="#9e2383" offset="1"/></linearGradient><radialGradient cx="56.9149816%" cy="88.8833143%" fx="56.9149816%" fy="88.8833143%" r="141.731287%" id="d"><stop stop-color="#ec178d"/><stop stop-color="#cb1c8c" offset=".24"/><stop stop-color="#772888" offset=".77"/><stop stop-color="#512e87" offset="1"/></radialGradient><radialGradient cx="37.4328838%" cy="107.316971%" fx="37.4328838%" fy="107.316971%" r="81.7439196%" id="e"><stop stop-color="#ba258e"/><stop stop-color="#b5258d" offset=".23"/><stop stop-color="#a5278b" offset=".51"/><stop stop-color="#8b2987" offset=".83"/><stop stop-color="#7a2a85" offset="1"/></radialGradient><radialGradient cx="-17.8113765%" cy="68.5756164%" fx="-17.8113765%" fy="68.5756164%" r="115.435554%" id="f"><stop stop-color="#e21a8d" offset="9%"/><stop stop-color="#952584" offset="1"/></radialGradient><radialGradient cx="5.23908%" cy="62.2269711%" fx="5.23908%" fy="62.2269711%" r="80.2174636%" id="g"><stop stop-color="#e21a8d" offset="9%"/><stop stop-color="#952584" offset="1"/></radialGradient><radialGradient cx="6.17172913%" cy="59.6559061%" fx="6.17172913%" fy="59.6559061%" r="84.7637675%" id="h"><stop stop-color="#e21a8d" offset="9%"/><stop stop-color="#952584" offset="1"/></radialGradient><radialGradient cx="22.0505567%" cy="60.4802396%" fx="22.0505567%" fy="60.4802396%" r="133.158635%" id="i"><stop stop-color="#e21a8d"/><stop stop-color="#df1a8d" offset=".25"/><stop stop-color="#d51c8c" offset=".44"/><stop stop-color="#c51e8a" offset=".6"/><stop stop-color="#af2187" offset=".76"/><stop stop-color="#952584" offset=".89"/></radialGradient><linearGradient x1="4.05138932%" y1="47.6374918%" x2="91.0546504%" y2="51.9359766%" id="c"><stop stop-color="#b1278f"/><stop stop-color="#af278e" offset=".48"/><stop stop-color="#a8258a" offset=".65"/><stop stop-color="#9e2383" offset=".76"/></linearGradient><linearGradient x1="3.18749749%" y1="44.8011675%" x2="95.4743141%" y2="53.5945109%" id="j"><stop stop-color="#ec178d"/><stop stop-color="#ea178d" offset=".47"/><stop stop-color="#e3188c" offset=".64"/><stop stop-color="#d81a8a" offset=".76"/><stop stop-color="#c71d88" offset=".86"/><stop stop-color="#b12085" offset=".95"/><stop stop-color="#9e2383" offset="1"/></linearGradient><radialGradient cx="95.195158%" cy="26.5531645%" fx="95.195158%" fy="26.5531645%" r="109.020649%" id="m"><stop stop-color="#ec178d"/><stop stop-color="#cb1c8c" offset=".24"/><stop stop-color="#772888" offset=".77"/><stop stop-color="#512e87" offset="1"/></radialGradient><radialGradient cx="103.819561%" cy="39.4798802%" fx="103.819561%" fy="39.4798802%" r="117.774443%" id="n"><stop stop-color="#ba258e"/><stop stop-color="#b5258d" offset=".23"/><stop stop-color="#a5278b" offset=".51"/><stop stop-color="#8b2987" offset=".83"/><stop stop-color="#7a2a85" offset="1"/></radialGradient><radialGradient cx="101.124411%" cy="82.9324871%" fx="101.124411%" fy="82.9324871%" r="100.719861%" id="o"><stop stop-color="#e21a8d" offset="9%"/><stop stop-color="#952584" offset="1"/></radialGradient><radialGradient cx="98.5486449%" cy="73.0939312%" fx="98.5486449%" fy="73.0939312%" r="110.462498%" id="p"><stop stop-color="#e21a8d" offset="9%"/><stop stop-color="#952584" offset="1"/></radialGradient><radialGradient cx="99.5515693%" cy="72.2464762%" fx="99.5515693%" fy="72.2464762%" r="112.771912%" id="q"><stop stop-color="#e21a8d" offset="9%"/><stop stop-color="#952584" offset="1"/></radialGradient><radialGradient cx="77.3596357%" cy="60.3652515%" fx="77.3596357%" fy="60.3652515%" r="125.522698%" id="r"><stop stop-color="#e21a8d"/><stop stop-color="#df1a8d" offset=".25"/><stop stop-color="#d51c8c" offset=".44"/><stop stop-color="#c51e8a" offset=".6"/><stop stop-color="#af2187" offset=".76"/><stop stop-color="#952584" offset=".89"/></radialGradient><linearGradient x1="59.8890778%" y1="137.595586%" x2="42.4570427%" y2="-75.9662138%" id="k"><stop stop-color="#b1278f"/><stop stop-color="#af278e" offset=".48"/><stop stop-color="#a8258a" offset=".65"/><stop stop-color="#9e2383" offset=".76"/></linearGradient><linearGradient x1="68.5552427%" y1="128.237426%" x2="37.7518358%" y2="-32.5667788%" id="l"><stop stop-color="#ec178d"/><stop stop-color="#ea178d" offset=".47"/><stop stop-color="#e3188c" offset=".64"/><stop stop-color="#d81a8a" offset=".76"/><stop stop-color="#c71d88" offset=".86"/><stop stop-color="#b12085" offset=".95"/><stop stop-color="#9e2383" offset="1"/></linearGradient><radialGradient cx="16.8509016%" cy="17.9116162%" fx="16.8509016%" fy="17.9116162%" r="71.8957579%" id="s"><stop stop-color="#ec178d"/><stop stop-color="#cb1c8c" offset=".24"/><stop stop-color="#772888" offset=".77"/><stop stop-color="#512e87" offset="1"/></radialGradient><radialGradient cx="19.4919641%" cy="16.6080961%" fx="19.4919641%" fy="16.6080961%" r="72.0934328%" id="t"><stop stop-color="#ba258e"/><stop stop-color="#b5258d" offset=".23"/><stop stop-color="#a5278b" offset=".51"/><stop stop-color="#8b2987" offset=".83"/><stop stop-color="#7a2a85" offset="1"/></radialGradient><radialGradient cx="56.3611222%" cy="-43.4976803%" fx="56.3611222%" fy="-43.4976803%" r="66.7156912%" id="u"><stop stop-color="#e21a8d" offset="9%"/><stop stop-color="#952584" offset="1"/></radialGradient><radialGradient cx="57.4765699%" cy="-39.6175144%" fx="57.4765699%" fy="-39.6175144%" r="53.6090645%" id="v"><stop stop-color="#e21a8d" offset="9%"/><stop stop-color="#952584" offset="1"/></radialGradient><radialGradient cx="57.4970798%" cy="-37.2164949%" fx="57.4970798%" fy="-37.2164949%" r="52.3293595%" id="w"><stop stop-color="#e21a8d" offset="9%"/><stop stop-color="#952584" offset="1"/></radialGradient><radialGradient cx="49.1649706%" cy="11.7621644%" fx="49.1649706%" fy="11.7621644%" r="70.9158683%" id="x"><stop stop-color="#e21a8d"/><stop stop-color="#df1a8d" offset=".25"/><stop stop-color="#d51c8c" offset=".44"/><stop stop-color="#c51e8a" offset=".6"/><stop stop-color="#af2187" offset=".76"/><stop stop-color="#952584" offset=".89"/></radialGradient></defs><g transform="translate(0 -1)"><g transform="translate(0 66.7393)"><path d="M24.3050584 20.2210117c-1.7929961-.3984436-3.8848249-1.1953308-5.3789884-2.1914397 2.3906615 2.1914397 12.0529183 17.3322957 13.5470818 20.4202334.2988326-3.0879377-2.9883269-12.9494163-8.1680934-18.2287937h0z" fill="url(#a)"/><path d="M33.9673152 55.3836576c0 0 3.0879377-14.244358.9961089-23.5081712-2.0918288-9.2638132-7.3712062-19.025681-7.3712062-19.1252918h0c0 0 .4980545 4.8809338-1.1953307 5.4785992-1.6933853.5976653-6.8731518-3.4863813-6.8731518-3.4863813 0 0 7.2715953 7.8692607 10.2599222 14.7424124 2.5898833 5.8770428 3.2871595 9.3634241 2.1914397 16.6350195-1.0957199 7.2715953-1.2949417 7.0723735-1.2949417 7.0723735l3.2871596 2.1914397h0z" fill="url(#b)"/><path d="M14.6640887 1.59377432c-.9961089 1.49416342-1.7929961 2.98832685-2.4902723 4.58210117C8.68743505 12.7501946 5.6991082 19.5237354 3.30844673 26.5961089-10.1390241 69.229572 19.0469681 153.002335 61.1823767 151.807004c4.7813229-.099611 9.1642023 3.785214 7.7696498 10.160311-.4980545 2.390662-.7968872 4.781323-.996109 7.271596-.5976653 3.287159.4980545 6.574319 2.7891051 8.96498 3.1875486 3.38677 7.570428 6.375097 12.9494163 5.877043 3.3867705-.298833 4.4824903-1.09572 7.3712063-3.187549 2.3906614-1.693385 4.2832685-3.884825 6.6739299-5.677821.1992218-.199222.4980545-.298832.6972763-.498054-6.9727627-5.279378-5.7774319-11.953308-2.5898833-22.711284-1.2949416-1.09572-2.3906615-2.19144-3.4863813-3.386771-1.1953307-1.294941-2.1914397-2.689494-3.2871595-4.084046-.8964981-1.09572-2.0918288-2.091829-2.888716-3.187549-2.1914397-3.187549-2.0918288-7.670039-2.0918288-11.554864.0996109-4.084047.7968872-8.267704 0-12.25214-.6972762-3.38677-1.9922179-6.67393-3.5859922-9.761868-3.0879377-6.076264-7.3712062-11.4552526-12.5509728-15.838132-5.2793774-4.4824902-10.5587548-8.9649805-15.7385214-13.6466926-4.1836575-3.785214-7.7696498-7.3712062-10.0607003-12.6505836-1.5937744-3.5859923-2.888716-7.2715954-3.884825-11.0568094-.7968871-2.9883268-1.2949416-6.0762646-2.2910505-8.9649805-.7968872-2.1914397-1.7929961-4.3828794-2.9883269-6.4747082-1.892607-3.4863813-3.4863813-7.2715953-5.5782101-10.6583657-2.1914397-3.7852141-4.8809339-7.8692607-8.6661479-10.459144 1.1953308-1.3945525 1.6933853-3.1875487 1.4941635-5.0801557-.0996109-1.2949416-.3984436-3.78521397-2.0918288-3.98443576.3984436-1.29494163.7968871-2.68949416.9961089-3.98443579.3984436-1.39455253 0-2.88871596-1.1953307-3.78521401-.996109-.199221791-1.9922179-.298832686-2.9883269-.199221791 0 .199221791-.1992218.398443581-.2988327.597665371h0zM88.8742055 168.541634c1.2949416 1.195331 1.3945525 3.28716.2988327 4.582101-.8964981 1.494164-2.7891051 1.892607-4.2832685.996109 0 0-.0996109 0-.0996109-.099611-1.2949416-1.19533-1.3945525-3.287159-.2988327-4.582101.8964981-1.494163 2.7891051-1.892607 4.2832685-.996109 0 .099611 0 .099611.0996109.099611h0z" fill="url(#d)"/><path d="M99.4116732 174.319066c3.9844358-1.693385 8.2677038-1.195331 12.1525288-.398443 3.386771.697276 6.67393 1.693385 9.96109 2.888716 4.980545-5.4786.597665-13.24825-3.785214-15.5393-4.38288-2.291051-9.562646-3.28716-14.543191-4.681712-2.390661-.697276-4.582101-2.490273-6.474708-3.984436-3.0879378 10.558755-4.1836576 16.73463 2.6894942 21.715175h0z" fill="url(#e)"/><path d="M15.0412451 90.8451362c-.1992218-2.9883269 2.5898833-1.4941634 4.6817121 0-2.6894942-2.3906615-6.8731518-6.67393-5.2793774-9.2638132 1.1953307-1.7929962 2.9883268-.996109 4.4824902.1992217-1.9922179-2.3906614-3.9844358-5.677821-2.9883268-8.0684824h0c-3.3867704-2.888716-6.87315176-5.0801557-8.76575876-4.2832685-1.79299611.7968871 1.29494163 5.2793774 5.27937746 9.8614786-2.78910509-2.2910506-5.37898836-3.6856031-6.67392999-2.3906615-1.9922179 2.0918288 3.98443579 9.1642023 9.26381319 14.6428016.0996109-.1992218 0-.3984436 0-.6972763h0z" fill="url(#f)"/><path d="M8.56653696 60.0653696c-1.7929961 1.8926071 2.78910504 7.9688716 7.67003894 13.34786.9961089-1.4941635 2.789105-.2988327 4.4824902 1.2949416-2.5898832-3.3867704-5.3789883-7.7696498-3.3867704-9.0645914.0996109-.0996109.1992218-.0996109.3984436-.1992218-3.6856031-3.785214-7.570428-7.0723736-9.16420234-5.3789884h0z" fill="url(#g)"/><path d="M16.9338521 99.511284c-.2988326-1.3945525.0996109-1.892607.7968872-2.0918287 1.1953307 0 2.3906615.2988326 3.3867704.9961089-1.6933852-.9961089-4.8809338-3.2871595-5.7774319-6.1758755-2.789105-2.0918288-5.37898831-3.2871595-5.67782099-.5976654-.59766537 5.777432 12.94941639 15.9377437 12.94941639 15.9377437l.0996108-.199222c-3.2871595-3.785214-5.5782101-6.773541-5.7774319-7.869261h0z" fill="url(#h)"/><path d="M17.4319066 59.0692607c-.3984436 1.2949416 1.4941634 4.4824903 3.4863813 7.3712062-1.1953307-.9961089-2.4902723-1.4941634-3.6856031-.6972762-1.9922179 1.2949416.7968872 5.677821 3.3867705 9.0645914-1.7929962-1.6933852-3.7852141-2.888716-4.6817121-.8964981-.996109 2.3906615.9961089 5.6778211 2.9883268 8.0684825-1.4941634-1.1953307-3.2871595-1.9922179-4.4824902-.1992218-1.5937744 2.4902724 2.4902723 6.8731518 5.2793774 9.2638133-2.0918288-1.4941634-4.781323-3.0879378-4.6817121 0 .1992218 3.4863813 4.0840467 6.3750973 6.0762646 7.570428-.9961089-.5976654-2.1914397-.996109-3.3867704-.996109-.6972763.0996109-1.0957198.6972763-.7968872 2.0918288.996109 4.4824902 34.8638133 40.1431902 40.9400779 36.2583662 6.2754863-4.084047.1992218-24.902724-13.6466926-46.6178992-5.6778211-8.9649806-22.5120623-31.277821-26.0980545-30.6801557-.3984436-.1992218-.5976654.0996109-.6972763.3984436h0z" fill="url(#i)"/></g><g transform="translate(127.501946 64.747082)"><path d="M13.9455253 162.863813c.4980545 1.792996.896498 3.984436.7968872 5.777432.6972762-3.187549 8.9649805-19.125292 10.8575875-21.914397-2.7891051 1.294942-9.6622568 8.964981-11.6544747 16.136965h0z" fill="url(#c)"/><path d="M39.5455253 136.86537c0 0-13.8459144 4.48249-20.8186771 10.857587C11.7540856 154.098054 5.8770428 163.6607 5.8770428 163.6607h0c0 0 3.9844358-2.888716 5.2793774-1.693385 1.2949417 1.195331.3984436 7.670039.3984436 7.670039 0 0 3.1875487-10.160311 7.6700389-16.236576 3.785214-5.179766 6.4747082-7.570428 13.3478599-10.259922 6.8731518-2.689494 6.7735409-2.490272 6.7735409-2.490272l.1992218-3.785214h0z" fill="url(#j)"/><path d="M2.58988327 180.494942c1.79299611.099611 3.48638132.099611 5.27937743-.099611 7.4708171-.199222 14.8420233-1.09572 22.1136187-2.589884 43.629572-9.761867 101.6031126-76.8 79.4894946-112.7595326-2.490273-4.0840467-1.294942-9.8614786 4.880933-11.8536965 2.291051-.7968872 4.582102-1.6933852 6.773541-2.6894942 3.087938-1.1953307 5.478599-3.6856031 6.375098-6.8731517 1.294941-4.4824903 1.693385-9.7618677-1.394553-14.1447471-1.992218-2.7891051-3.187549-3.3867704-6.474708-4.8809338-2.689494-1.1953308-5.478599-1.7929962-8.168094-2.888716-.298832-.0996109-.498054-.1992218-.796887-.3984436-1.09572 8.6661479-7.470817 10.9571985-18.3284044 13.6466926-.2988327 1.5937743-.6972763 3.1875487-1.1953307 4.781323-.5976654 1.6933852-1.1953308 3.2871595-1.892607 4.8809338-.4980545 1.2949417-.7968872 2.7891051-1.3945526 4.0840467-1.5937743 3.4863813-5.5782101 5.677821-8.9649805 7.570428-3.5859922 1.9922179-7.570428 3.4863814-10.6583658 6.0762646-2.5898832 2.2910506-4.7813229 4.9805448-6.6739299 7.9688716-3.6856031 5.677821-6.1758755 12.1525292-7.4708171 18.8264592-1.2949417 6.8731517-2.4902724 13.646693-3.9844358 20.420233-1.1953308 5.4786-2.5898833 10.459144-5.8770428 15.041246-2.2910506 3.187548-4.8809339 6.076264-7.5704281 8.865369-2.1914397 2.19144-4.5821011 4.183658-6.6739299 6.474708-1.4941634 1.792997-2.888716 3.785214-4.0840467 5.777432-2.0918288 3.386771-4.4824903 6.67393-6.4747082 10.160312-2.1914397 3.785214-4.3828794 8.168093-4.7813229 12.750194-1.7929962-.298833-3.6856032.099611-5.08015569 1.294942-.99610895.697276-2.98832684 2.29105-2.39066147 3.785214-1.29494164.398443-2.68949417.697276-3.9844358 1.09572-1.39455253.298832-2.490272375 1.494163-2.689494165 2.888716.298832685.996109.697276265 1.892607 1.394552525 2.689494.19922179.099611.49805448.099611.69727627.099611h0zM110.070039 32.7719844c.398443-1.6933852 2.091829-2.8887159 3.884825-2.5898832 1.693385.0996109 3.087938 1.4941634 2.988327 3.1875486v.0996109c-.398444 1.6933852-2.091829 2.888716-3.884825 2.5898833-1.693385-.0996109-3.087938-1.4941635-2.988327-3.1875487 0 0 0 0 0-.0996109h0z" fill="url(#m)"/><path d="M109.771206 20.7190661c-3.486381-2.5898832-5.080155-6.574319-6.375097-10.2599221-1.09572-3.28715956-1.892607-6.67392999-2.490272-10.06070042-7.2715958-1.59377432-11.754086 6.07626459-11.5548642 11.05680932.1992218 4.9805448 1.9922179 9.9610895 3.1875486 14.9416343.5976654 2.3906614.0996109 5.1797665-.1992218 7.570428 10.6583654-2.5898833 16.5354084-4.781323 17.4319064-13.2482491h0z" fill="url(#n)"/><path d="M79.688716 135.470817c-2.5898833 1.693385-2.5898833-1.494163-2.3906615-4.084047-.6972763 3.585993-2.3906615 9.263814-5.3789884 9.164203-2.1914396-.099611-2.3906614-1.992218-2.0918287-3.984436-1.0957199 2.888716-2.888716 6.375097-5.4785993 6.574319h0c-.7968871 4.382879-.9961089 8.566537.6972763 9.662257 1.6933852 1.09572 3.9844358-3.785214 5.8770428-9.562646-.5976654 3.585992-.4980545 6.474708 1.1953307 6.972763 2.7891051.697276 5.9766537-8.068483 8.0684825-15.340078-.0996109.398443-.2988327.498054-.4980544.597665h0z" fill="url(#o)"/><path d="M56.2801556 156.588327c2.4902724.697276 5.4785993-6.474708 7.7696498-13.248249-1.6933852-.099611-1.6933852-2.291051-1.0957198-4.48249-1.5937743 3.984435-3.9844358 8.566537-6.1758755 7.470817-.0996109-.099611-.1992218-.099611-.2988327-.199222-1.5937743 4.980545-2.3906614 9.861478-.1992218 10.459144h0z" fill="url(#p)"/><path d="M86.263035 129.593774c-.9961089.996109-1.6933852.896498-2.1914397.398444-.5976653-1.09572-.896498-2.19144-.896498-3.486381 0 1.992217-.3984436 5.877042-2.3906615 8.068482-.3984436 3.486381-.1992218 6.375097 2.2910506 5.279377 5.2793774-2.390661 7.3712062-19.224902 7.3712062-19.224902h-.1992218c-1.6933852 4.781323-3.1875486 8.168093-3.9844358 8.96498h0z" fill="url(#q)"/><path d="M50.9011673 149.416342c1.2949416-.298832 3.0879378-3.585992 4.5821012-6.77354-.2988327 1.494163 0 2.888716 1.1953307 3.486381 2.1914397 1.09572 4.5821012-3.486381 6.1758755-7.470817-.5976654 2.390661-.5976654 4.781323 1.5937743 4.48249 2.5898833-.298833 4.3828794-3.685603 5.4785992-6.574319-.2988326 1.892607-.0996108 3.884825 2.0918288 3.984436 2.9883269.099611 4.6817121-5.57821 5.3789884-9.164203-.2988327 2.589884-.1992218 5.677821 2.3906614 4.084047 2.9883269-1.892607 3.4863814-6.67393 3.4863814-8.96498 0 1.19533.2988327 2.390661.896498 3.486381.4980545.498054 1.0957199.597665 2.1914397-.398444 3.3867704-3.087937 17.3322961-50.3035016 10.9571985-53.5906612-6.67393-3.3867704-21.6155642 12.351751-33.5688716 35.1626462-4.8809339 9.463035-15.8381323 35.162646-13.5470817 37.951751.0996108.199222.3984435.398443.6972762.298832h0z" fill="url(#r)"/></g><g transform="translate(21.914397)"><path d="M184.379767 55.981323c1.294941-1.2949417 2.988326-2.7891051 4.582101-3.5859923-3.087938.996109-21.017899 1.7929961-24.40467 1.5937744 2.490273 1.7929961 12.650584 3.8848249 19.822569 1.9922179h0z" fill="url(#k)"/><path d="M149.017899 46.8171206c0 0 10.857587 9.7618677 19.822568 12.6505837 9.064591 2.8887159 20.221012 3.1875486 20.221012 3.1875486h0c0 0-4.482491-2.0918288-4.183658-3.785214.298833-1.6933852 6.474708-4.1836576 6.474708-4.1836576 0 0-10.459144 2.3906615-17.83035 1.4941634-6.375097-.6972762-9.761868-1.892607-15.5393-6.4747081-5.777432-4.5821012-5.57821-4.6817121-5.57821-4.6817121l-3.38677 1.7929961h0z" fill="url(#l)"/><path d="M205.298054 56.9774319c-.796887-1.5937743-1.693385-3.0879377-2.789105-4.4824903-3.884824-6.3750972-8.367315-12.3517509-13.248249-17.8303502C159.078599 1.69338521 71.9190661-15.0412451 51.8972763 22.1136187c-2.2910506 4.2832685-7.8692607 6.0762646-12.6505837 1.6933852-1.7929961-1.5937743-3.785214-3.0879378-5.7774319-4.4824903-2.5898833-2.0918288-5.9766537-2.8887159-9.1642023-2.0918288-4.5821012 1.0957199-9.2638133 3.3867705-11.5548638 8.2677043-1.4941635 3.0879377-1.2949417 4.4824903-.996109 7.9688716.2988327 2.888716 1.1953307 5.677821 1.5937743 8.566537v.896498c8.0684825-3.3867704 13.248249.996109 21.0178989 9.0645915 1.4941634-.5976654 3.0879377-.996109 4.681712-1.2949417 1.6933852-.3984436 3.4863813-.5976653 5.1797666-.896498 1.3945525-.1992218 2.789105-.6972763 4.1836575-.8964981 3.785214-.2988327 7.7696498 1.9922179 11.0568094 3.9844358 3.4863813 2.0918288 6.7735408 4.781323 10.6583657 6.0762646 3.2871596 1.0957198 6.7735409 1.6933852 10.2599222 1.7929961 6.7735409.2988327 13.6466926-.6972763 20.0217898-2.9883268 6.574319-2.2910506 13.049027-4.6817121 19.722957-6.7735409 5.378989-1.6933852 10.259922-2.9883268 15.937743-2.3906615 3.884825.3984436 7.76965 1.1953308 11.554864 2.1914397 2.988327.7968872 5.877043 1.892607 8.86537 2.4902724 2.291051.3984436 4.681712.6972763 7.072373.6972763 3.984436.0996109 7.968872.5976653 12.052919.5976653 4.382879 0 9.263813-.2988327 13.447471-2.2910506.597665 1.6933853 1.892607 3.0879378 3.685603 3.7852141 1.09572.4980544 3.486381 1.4941634 4.48249.0996108.996109.996109 1.892607 1.9922179 2.888716 2.888716.996109 1.0957198 2.589883 1.3945525 3.884825.8964981.697276-.6972763 1.294941-1.5937744 1.593774-2.4902724-.099611-.0996109-.199222-.2988327-.298833-.4980545h0zM23.707393 37.7525292c-1.6933852.4980545-3.4863813-.3984436-4.1836576-2.0918288-.7968872-1.4941634-.1992218-3.3867704 1.2949416-4.1836576 0 0 .0996109 0 .0996109-.0996109 1.6933853-.4980545 3.4863814.3984436 4.1836576 2.0918288.7968872 1.4941634.1992218 3.3867704-1.2949416 4.1836576-.0996109 0-.0996109.0996109-.0996109.0996109h0z" fill="url(#s)"/><path d="M13.3478599 44.0280156c-.5976653 4.2832684-3.0879377 7.6700389-5.67782099 10.6583657-2.29105058 2.5898833-4.78132296 4.9805448-7.47081712 7.1719845C2.49027237 68.9307393 11.355642 68.9307393 15.5392996 66.340856c4.1836576-2.5898832 7.6700389-6.6739299 11.355642-10.1603113 1.7929961-1.6933852 4.4824903-2.6894941 6.67393-3.6856031-7.6700389-7.8692607-12.4513619-11.8536965-20.2210117-8.466926h0z" fill="url(#t)"/><path d="M127.800778 12.7501946c2.689494 1.3945525 0 2.9883268-2.390661 4.0840466 3.486381-1.1953307 9.263813-2.5898832 10.658365.0996109.996109 1.892607-.597665 3.0879378-2.390661 3.785214 2.988327-.4980544 6.972763-.5976653 8.466926 1.3945526h0c4.183658-1.4941634 7.869261-3.3867705 8.068483-5.3789883.199221-1.9922179-5.179767-1.5937744-11.256032-.2988327 3.386771-1.2949417 5.877043-2.888716 5.378989-4.5821012-.796887-2.78910506-9.96109-1.0957198-17.332296.6972763.398444-.0996109.597665 0 .796887.1992218h0z" fill="url(#u)"/><path d="M157.783658 22.4124514c-.697277-2.4902724-8.367316-1.4941635-15.340078-.0996109.796887 1.5937743-1.09572 2.5898832-3.386771 3.2871595 4.183658-.5976654 9.363424-.7968872 9.463035 1.5937743v.3984436c5.179767-1.1953307 9.861479-2.888716 9.263814-5.1797665h0z" fill="url(#v)"/><path d="M119.433463 9.96108949c1.394553.39844361 1.593774.99610891 1.394553 1.69338521-.597666.996109-1.494164 1.892607-2.589884 2.4902724 1.792996-.996109 5.279378-2.5898833 8.267705-1.892607 3.187548-1.3945526 5.57821-3.08793777 3.38677-4.58210119-4.781323-3.48638132-20.320623 3.18754859-20.320623 3.18754859l.099611.1992218c4.980545-.896498 8.666148-1.39455249 9.761868-1.09571981h0z" fill="url(#w)"/><path d="M154.197665 30.6801556c-.896498-.9961089-4.681712-.896498-8.168093-.5976653 1.394553-.4980545 2.490272-1.3945526 2.490272-2.7891051-.099611-2.3906615-5.279377-2.1914397-9.463035-1.5937743 2.390662-.6972763 4.482491-1.892607 3.187549-3.5859922-1.494163-2.0918288-5.378988-1.892607-8.466926-1.3945526 1.792996-.6972762 3.38677-1.892607 2.390661-3.785214-1.394552-2.6894941-7.171984-1.1953307-10.658365-.0996109 2.390661-.9961089 5.080155-2.6894941 2.390661-4.0840466-3.187549-1.5937744-7.470817.2988326-9.562646 1.4941634 1.09572-.5976654 1.892607-1.3945526 2.589883-2.4902724.199222-.6972763-.09961-1.2949416-1.394552-1.6933852-4.382879-1.39455254-52.196109 10.1603113-51.7976654 17.3322957.3984435 7.4708171 21.5159533 12.5509728 47.2155644 11.4552529 10.658366-.4980544 38.350194-3.785214 39.645136-7.2715953-.099611-.3984436-.199222-.6972763-.398444-.8964981h0z" fill="url(#x)"/></g></g></svg>