<svg width="256px" height="277px" viewBox="0 0 256 277" xmlns="http://www.w3.org/2000/svg" preserveAspectRatio="xMidYMid"><title>Redwood</title><path d="M112.389931 3.92764488C101.983252 9.16447338 80.0455822 19.3600825 68.1611538 27.4933992c-11.8846896 8.1334996-10.4069401 15.71059-15.6102796 20.9473663-5.2033395 5.2370374-20.8136191 18.3291087-31.2205592 26.1844037-10.4067312 7.8552949-7.8051398 28.8026608-10.4067312 36.6579558-2.60169582 7.855295-7.80511365 26.184143-10.4068095 34.039438-2.60169585 7.855295 5.2033917 18.329109 10.4068095 28.802661 5.2033917 10.473814 18.211871 39.276475 23.4152105 49.750027 5.2036006 10.473814 20.813619 5.237038 33.8223595 15.71059 13.0084793 10.473814 31.220298 23.56693 44.2287772 31.421964 13.008479 7.855034 18.21208 7.855034 31.220559 0 13.008479-7.855034 31.220298-20.94815 44.228777-31.421964 13.008741-10.473552 28.618759-5.236776 33.82236-15.71059 5.203339-10.473552 18.211819-39.276213 23.415158-49.750027 5.202817-10.473552 13.008218-20.947366 10.406418-28.802661-2.6018-7.855295-7.804617-26.184143-10.406418-34.039438-2.601539-7.855295 0-28.8026609-10.406679-36.6579558-10.40694-7.855295-22.487026-17.8570753-31.220559-26.1844037-8.733533-8.3270673-5.203339-13.0920713-15.61028-20.9473663-10.406678-7.8552166-33.822098-18.32892582-44.228777-23.56575432-10.40694-5.23685984-20.813619-5.23685984-31.220559 0z" fill="#fff"/><path d="M75.643942 49.3187425l48.693634 33.2379993c1.098973.7319523 2.382894 1.1326713 3.700251 1.1551367 1.319447-.0096653 2.606502-.4114293 3.69999-1.1551367l48.730728-33.3498036c1.893358-1.3554962 2.937474-3.6156143 2.747825-5.9473081-.189911-2.331955-1.585636-4.3904074-3.672823-5.4175439l-48.693634-24.1086581c-1.847121-.8962366-3.999092-.8962366-5.846214 0L76.4581801 37.8420862c-2.1250648 1.0326222-3.5390754 3.1310421-3.7073042 5.5008747-.1679676 2.3700938.9354465 4.6495426 2.8930661 5.9757816zm68.933342 43.6713232c.003918 2.204216 1.082777 4.2658032 2.886013 5.5147196l39.036409 26.6799477c2.498878 1.722778 5.842557 1.507529 8.103197-.521667l32.746113-29.2882779c1.459464-1.3037736 2.269784-3.1919075 2.212575-5.1557965-.056947-1.9638891-.975936-3.801084-2.508543-5.0165636l-31.266012-25.0031446c-2.272657-1.8053255-5.443144-1.9257502-7.844323-.2980576l-40.479416 27.6859246c-1.771366 1.226451-2.846307 3.2384055-2.886013 5.4029153zM47.4862452 129.283352c1.5775374 1.417145 2.3886408 3.507728 2.1830567 5.626785-.2050615 2.131073-1.4359534 4.025215-3.2932627 5.067502L23.065371 153.951084c-2.3630407 1.412443-5.3464907 1.208687-7.4987229-.512001-2.1519711-1.720428-3.0257162-4.600694-2.1955956-7.238543l8.6212065-27.126903c.6763113-2.149359 2.3907306-3.805525 4.5510608-4.396939 2.1590241-.628245 4.4870607-.077583 6.1424431 1.453195l14.8004823 13.153459zm126.4331288 2.831939-42.144463-28.8408c-2.239743-1.507006-5.160499-1.507006-7.400241 0l-42.1444637 28.8408c-1.6762804 1.160362-2.7381598 3.024724-2.8860131 5.067764-.109192 2.057146.706091 4.054734 2.2201507 5.440271l42.1073691 37.672031c1.214174 1.083039 2.781001 1.679676 4.402947 1.676813 1.621684 0 3.187205-.596648 4.403207-1.676813l42.10737-37.672031c1.5185-1.379791 2.323596-3.385476 2.183057-5.440271-.117552-2.042779-1.170027-3.914978-2.84892-5.067764zm-112.4097907-7.452225-32.7090189-29.2882779c-1.4717413-1.3369492-2.2838896-3.258781-2.2201507-5.2537559.0355266-1.9665013.9456343-3.8128391 2.4790246-5.0304085l31.2660124-25.1520428c2.2885916-1.8003622 5.465348-1.9205257 7.8814175-.2980576L108.64919 87.3261867c1.876901 1.2308919 3.00905 3.3337526 3.00905 5.5894299 0 2.2556773-1.132149 4.3582768-3.00905 5.5891687L69.6498747 125.184733c-2.51429 1.715203-5.86241 1.500737-8.1402914-.521667zm167.9485627 42.06897-33.301215-19.935381c-2.473017-1.490288-5.621039-1.188573-7.770136.745275l-40.701457 36.330641c-1.71677 1.533391-2.523172 3.852284-2.131073 6.129121.391837 2.277098 1.926011 4.187436 4.055256 5.049478l56.463769 22.879124c.774532.321568 1.604444.48614 2.442192.484345 2.620609.008326 4.999323-1.540216 6.068255-3.949755l17.501549-39.199936c1.424459-3.102046.289959-6.786623-2.62714-8.532912zm4.625249-47.658399 8.621207 27.126903h-.073927c.637389 2.028934.27507 4.242815-.975153 5.958541-1.250484 1.715725-3.238928 2.727449-5.352237 2.723566-1.1857.003883-2.349719-.318207-3.366929-.931563l-23.348023-13.973445c-1.818909-1.06423-3.007221-2.956282-3.181981-5.067502-.218123-2.120624.59507-4.216693 2.183057-5.626785l14.800482-13.190814c1.672101-1.498387 3.982636-2.04513 6.142182-1.453195 2.159024.617014 3.867696 2.281539 4.551322 4.434294zm-123.510283 70.91003c.398106-2.267693-.400197-4.58084-2.108869-6.111096L67.7627858 147.54193c-2.1490976-1.933848-5.2971192-2.235563-7.7701357-.745275l-33.3012158 19.935381c-2.8834008 1.754125-4.0241701 5.391944-2.6639719 8.495818l17.5383809 39.199675c1.4531943 3.268447 5.2098701 4.79818 8.5104471 3.46541l56.4266756-22.879124c2.129767-.854206 3.669427-2.756968 4.070146-5.030148zm19.980834 11.178599 45.28935 18.333027c2.214404.947724 3.744398 3.03047 3.996219 5.44027.286564 2.439841-.796997 4.837886-2.812086 6.22264l-45.326445 31.487792c-1.086434.762777-2.375841 1.178124-3.700251 1.191186-1.323104-.020898-2.610682-.436246-3.69999-1.191186l-45.2896116-31.487792c-2.0224034-1.381358-3.1192869-3.77679-2.8491803-6.22264.3024984-2.435138 1.8873501-4.515534 4.1443335-5.44027l45.2893504-18.333027c1.592689-.635038 3.365622-.635038 4.958311 0z" fill="#bf4722"/></svg>