<svg width="256px" height="151px" viewBox="0 0 256 151" xmlns="http://www.w3.org/2000/svg" preserveAspectRatio="xMidYMid"><path d="M208.615113 119.908171H96.6828809c-10.5363832 0-19.1090251-8.572136-19.1090251-19.107507 0-10.5384074 8.5716297-19.1110493 19.1090251-19.1110493h61.1290401c17.840186 0 32.352639-14.5129594 32.352639-32.3526384 0-17.8396789-14.511947-32.3541567-32.352639-32.3541567H47.2233747C44.1695014 7.14344129 34.994818 0 24.1519938 0 10.8106997 0 0 10.8106997 0 24.1519938 0 37.493288 10.8117119 48.3039877 24.1530061 48.3039877c11.2390156 0 20.6867868-7.6767622 23.3812888-18.0755304h0H157.812934c10.534865 0 19.107506 8.5726419 19.107506 19.1090252 0 10.5363832-8.572135 19.1090251-19.107506 19.1090251H96.6838932c-17.839679 0-32.3541567 14.5139716-32.3541567 32.3541564 0 17.840185 14.5134655 32.352639 32.3541567 32.352639H208.614537c2.877781 10.120834 12.188396 17.53044 23.233469 17.53044 13.341294 0 24.151994-10.8107 24.151994-24.151994 0-13.341294-10.8107-24.151994-24.151994-24.151994-11.044337 0-20.354446 7.408618-23.232893 17.528416z" fill="#f26b00"/></svg>