<svg width="256px" height="290px" viewBox="0 0 256 290" xmlns="http://www.w3.org/2000/svg" preserveAspectRatio="xMidYMid"><title>Release</title><path d="M119.502813 2.06556497c4.775658-2.753976321 12.218333-2.754196928 16.994374 0h0L247.500593 66.0778438C252.277226 68.8323829 256 75.2723293 256 80.7830916h0V208.806389c0 5.497849-3.727531 11.953452-8.499407 14.705248h0l-111.003406 64.012279c-4.775658 2.753976-12.218333 2.754197-16.994374 0h0L8.49940744 223.511637C3.72277358 220.757098 0 214.317152 0 208.806389h0V80.7830916c0-5.4978482 3.72753056-11.9534519 8.49940744-14.7052478h0zm14.486791 4.34838916c-3.224049-1.85921036-8.755444-1.8590464-11.979208 0h0L11.0069909 70.426233c-3.21720453 1.8552637-5.98738306 6.6528568-5.98738306 10.3568586h0V208.806389c0 3.715962 2.76459489 8.498375 5.98738306 10.356859h0l111.0034051 64.012279c3.224049 1.85921 8.755444 1.859046 11.979208 0h0l111.003405-64.012279c3.217205-1.855264 5.987383-6.652857 5.987383-10.356859h0V80.7830916c0-3.7159614-2.764595-8.498375-5.987383-10.3568586h0zM127.999665 146.468278c1.30459 0 2.376699.995368 2.498315 2.268093l.011489.241711v125.490196c0 1.386126-1.123677 2.509804-2.509804 2.509804-1.304589 0-2.376698-.995369-2.498314-2.268093l-.01149-.241711V148.978082c0-1.386127 1.123678-2.509804 2.509804-2.509804zm60.506127-10.039216 41.676401 64.977268-63.918332 35.593922 22.241931-100.57119zM20.0817198 80.8822075l.2190281.1028729L121.980486 134.77593c1.225239.648179 1.693039 2.166884 1.04486 3.392123-.61005 1.153166-1.991225 1.635383-3.173095 1.147733l-.219028-.102873L17.9534848 85.4220635c-1.225239-.6481788-1.6930388-2.166884-1.04486-3.3921231.6100506-1.1531662 1.991225-1.6353827 3.173095-1.1477329zm215.2215122 0c1.18187-.4876498 2.563044-.0054333 3.173095 1.1477329.648179 1.2252391.180379 2.7439443-1.04486 3.3921231h0L135.751728 139.212913l-.219028.102873c-1.18187.48765-2.563044.005433-3.173095-1.147733-.648179-1.225239-.180379-2.743944 1.04486-3.392123h0l101.679739-53.7908496z"/></svg>