<svg width="256px" height="297px" viewBox="0 0 256 297" xmlns="http://www.w3.org/2000/svg"><title>Shape</title><path d="M141.674538-7.10542736e-15C218.04743-7.10542736e-15 256 36.3493031 256 94.4136694c0 43.4301266-26.707125 71.7534206-62.785454 76.4745076 30.455606 6.137252 48.25928 23.603821 51.540008 58.064367l.474771 6.337312.414381 5.924347.358104 5.541906.248721 4.178686.267152 4.93045.138534 2.813774.197476 4.469965.159272 4.221849.07893 2.426711.106686 3.888362.092045 4.445977.033379 2.148353.060192 6.225635.019346 6.496421.001077 3.88422h-78.758435l.00395-1.620034h0l.028046-3.146199h0l.047005-3.065056.136231-7.423902.034454-2.48883.026981-3.902592h0l-.00369-2.495633-.022944-2.617221-.031883-2.054159-.064798-2.875805-.093379-3.049733-.125352-3.242697-.160716-3.454694-.094679-1.812794-.161114-2.83269-.185299-2.976027-.28716-4.20488-.247296-3.341704c-.071023-1.030722-.153251-2.037132-.246682-3.019758l-.201802-1.933696c-2.600881-22.827538-11.655243-32.157419-27.163084-35.269294l-1.307259-.245086c-.881465-.154002-1.782848-.289438-2.704149-.407554l-1.396891-.164341c-.235304-.025278-.471854-.049512-.709649-.072722l-1.441706-.127128h0l-1.471584-.103491h0l-1.50146-.080789h0l-1.514713-.0585-1.543951-.038107-1.57319-.018619h0L0 198.740492v-61.840268h127.619345c2.086684 0 4.108828-.039571 6.066432-.120296l1.936092-.094503h0l1.893066-.122291h0l1.850039-.150433c.304755-.027437.607716-.056061.908885-.085879l1.785501-.193304c1.175992-.138504 2.323299-.296356 3.441924-.474025l1.656423-.281424c20.708867-3.754459 31.062913-14.74761 31.062913-36.1997633 0-24.0748003-16.866554-38.6654905-50.601275-38.6654905H0V-7.10542736e-15h141.674538zM83.2762921 250.785352c10.3331635 0 14.6564956 5.737466 16.1966694 11.229168l.2032002.789705h0l.1667538.782305.1086072.617837.046417.305548.0777493.603077.058554.59068.022424.290056.031827.568263.009679.277694.007578.541247v29.50558H0v-46.10116h83.2762921z" fill="#121212"/></svg>