<svg width="256px" height="256px" viewBox="0 0 256 256" xmlns="http://www.w3.org/2000/svg" preserveAspectRatio="xMidYMid"><title>renovate</title><circle fill="#497c9b" cx="128" cy="128" r="128"/><path d="M178.208444 70.8609715l14.609 14.609c4.87 4.869 4.87 11.826 0 16.6950005l-38.956 39.653c-1.243125 1.2675-1.32082 3.24955-.233085 4.606369l7.983173 9.049105 1.105801-1.103113c4.174-4.174 11.131-4.174 15.305 0l32.695 32c4.174 4.869 4.174 11.826 0 16l-5.565 5.565c-2.087 2.087-4.869 2.782-7.652 2.782-2.783 0-5.565-.695-7.652-2.782l-32.696-32.696c-3.667405-3.667405-4.112515-9.482492-1.335329-13.671222l-8.21656-9.316139c-4.599-4.615-4.599-12.08 0-16.695l38.956-38.9570005c1.392-1.391 1.392-4.174 0-4.869l-13.913-14.609c-1.352-1.326-3.516-1.326-4.869 0l-6.261-6.261c4.615-4.599 12.08-4.599 16.695 0zm-7.261929 86.9918645-.576182-.004503c-.696 0-2.087 0-2.783 1.391l-5.565 4.87c-1.392 2.087-1.392 4.869 0 6.261l32.695 32.695c1.662 1.885 4.6 1.885 6.261 0l4.87-5.565c2.087-1.391 2.087-4.174 0-6.261l-32-32c-1.18523-1.18523-1.865874-1.36056-2.901818-1.386497h0z" fill="#e8feff"/><g style="fill:#77b3b2"><path d="M156.565911 72.4455556 165.565 81.391c2.783 2.783 2.783 7.653 0 11.131l-70.261 70.261c-2.782 2.782-7.652 2.782-10.434 0l-9.6950889-9.641444c-2.783-2.783-2.783-7.652 0-10.435l70.2609999-70.2610004c3.478-3.478 8.348-3.478 11.13 0z"/><path d="M107.282194 53.5447778l12.521-12.522 12.522 12.522-12.522 12.522z"/><path d="M44.6731944 115.457778l12.522-12.522 12.521 12.522-12.521 12.522z"/><path d="M69.0211944 90.4147778l12.521-12.522 12.522 12.522-12.522 12.5210002z"/></g><g style="fill:#73a9ae"><path d="M94.0641944 90.4147778l12.5219996-12.522 12.522 12.522-12.522 12.5210002z"/><path d="M69.7161944 115.457778l12.522-12.522 12.522 12.522-12.522 12.522z"/></g><g style="fill:#f0f9fe"><path d="M81.5421944 102.935778l12.522-12.5210002 12.5219996 12.5210002-12.5219996 12.522z"/><path d="M119.108194 65.3707778l12.521-12.522 12.522 12.522-12.522 12.522z"/><path d="M57.1951944 127.979778l12.521-12.522 12.522 12.522-12.522 12.522z"/></g><g style="fill:#77b3b2"><path d="M94.0641944 65.3707778l12.5219996-12.522 12.522 12.522-12.522 12.522z"/><path d="M56.4991944 77.8927778l12.522-11.826 12.521 11.826-12.521 12.522z"/><path d="M94.7601944 41.0227778l12.5219996-12.522 12.521 12.522-12.521 12.522z"/><path d="M19.6291944 90.4147778l12.522-12.522 12.522 12.522-12.522 12.5210002z"/><path d="M57.1951944 53.5447778l12.521-12.522 12.522 12.522-12.522 12.522z"/></g></svg>