<svg width="256px" height="308px" viewBox="0 0 256 308" xmlns="http://www.w3.org/2000/svg" preserveAspectRatio="xMidYMid"><title>replit</title><path d="M0 19.2C0 8.59648 8.59648-2.13162821e-14 19.2-2.13162821e-14h89.6C119.40352-2.13162821e-14 128 8.59648 128 19.2v83.2H19.2C8.59648 102.4 0 93.80352 0 83.2v-64zm128 83.2h108.8c10.60352 0 19.2 8.59648 19.2 19.2v64c0 10.60352-8.59648 19.2-19.2 19.2H128V102.4zM0 224c0-10.60352 8.59648-19.2 19.2-19.2H128V288c0 10.60352-8.59648 19.2-19.2 19.2H19.2C8.59648 307.2 0 298.60352 0 288v-64z" fill="#f26207"/></svg>