<svg width="256px" height="289px" viewBox="0 0 256 289" xmlns="http://www.w3.org/2000/svg" preserveAspectRatio="xMidYMid"><title>Replay</title><path d="M114.621191 56.4199457 20.2016937 1.80552736C18.1541117.622247763 15.8319064 0 13.4681939 0c-2.3637124 0-4.68581822.624009573-6.73280294 1.80806556-2.04710417 1.18404604-3.74711179 2.88689047-4.92936615 4.9374884C.623770442 8.79622156 0 11.1223089 0 13.490401v109.227463c0 2.368988.623601229 4.695175 1.80582573 6.745643 1.18221455 2.050469 2.88221222 3.753552 4.92926661 4.938046 2.04708426 1.183499 4.36919006 1.807599 6.73300206 1.807599 2.3637124 0 4.6860173-.62211 6.7335993-1.805608l94.4194973-54.6136322c2.047482-1.1841953 3.747579-2.8874777 4.930082-4.938643 1.182504-2.0510658 1.804612-4.3778498 1.804612-6.7463401 0-2.3684902-.622108-4.6952743-1.804612-6.7464396-1.182503-2.0510657-2.8826-3.7543481-4.930082-4.9385434zm0 152.1030583-94.4194973-54.61413c-2.047582-1.183498-4.3698869-1.805606-6.7336988-1.805606-2.363812 0-4.6858183.624099-6.73290256 1.808593-2.04705439 1.184494-3.74708192 2.886581-4.92930642 4.938045C.623571367 160.900375 0 163.226562 0 165.594554v109.227264c0 2.367993.623571367 4.69418 1.80578592 6.745643 1.1822245 2.050469 2.88225203 3.753552 4.92930642 4.937051 2.04708426 1.184494 4.36909056 1.808593 6.73290256 1.808593 2.3638119 0 4.6861168-.622108 6.7336988-1.805607l94.4194973-54.61413c2.047482-1.183498 3.748575-2.887577 4.930082-4.938045 1.182504-2.051464 1.804612-4.378647 1.804612-6.746639 0-2.368988-.622108-4.69617-1.804612-6.746639-1.181507-2.051464-2.8826-3.754547-4.930082-4.939041zm134.644115-76.036549-94.420094-54.6136317c-2.047483-1.1832995-4.369688-1.8055075-6.732704-1.8055075-2.364011 0-4.686216.6239997-6.733699 1.8080955-2.046487 1.1839962-3.746584 2.8868805-4.929087 4.9374485-1.182503 2.0506676-1.805607 4.376755-1.805607 6.744847V198.785269c0 2.367993.623104 4.69418 1.805607 6.745644 1.182503 2.050468 2.8826 3.753551 4.929087 4.93705 2.047483 1.184494 4.369688 1.808593 6.733699 1.808593 2.363016 0 4.685221-.623104 6.732704-1.805607l94.420094-54.614129c2.047482-1.184494 3.747579-2.887578 4.930083-4.939042C255.376896 148.86731 256 146.540128 256 144.172135c0-2.368988-.623104-4.69617-1.804611-6.746639-1.182504-2.051463-2.882601-3.754547-4.930083-4.939041z" fill="#f41c52"/></svg>