<svg width="256px" height="256px" viewBox="0 0 256 256" xmlns="http://www.w3.org/2000/svg" preserveAspectRatio="xMidYMid"><title>rescript</title><path d="M247.286123 18.7650117c-2.823295-3.8556418-6.230518-7.2474837-10.098894-10.05330511C225.227899 0 208.145313 0 173.982311 0H81.96993C47.809099 0 30.7286835 0 18.7650117 8.71170659 14.9011548 11.5075016 11.5075016 14.9011548 8.71170659 18.7650117 0 30.7265126 0 47.8069281 0 82.0155183v91.9667927c0 34.160831 0 51.232563 8.71170659 63.204918 2.80582141 3.868376 6.19766331 7.275599 10.05330511 10.098894C30.7265126 256 47.8069281 256 81.96993 256h92.012381c34.160831 0 51.232563 0 63.204918-8.713877 3.85913-2.834481 7.264413-6.239764 10.098894-10.098894C256 225.227899 256 208.145313 256 173.982311V82.0155183c-.010854-34.2085902-.010854-51.2890057-8.713877-63.2505066zM118.553453 174.123417c0 8.006174 0 12.054849-1.302522 15.217808-1.747296 4.213485-5.095212 7.5614-9.308697 9.308697-3.16513 1.302522-7.163875 1.302522-15.2199783 1.302522-8.0061734 0-12.0548484 0-15.217808-1.302522-4.213485-1.747297-7.5614001-5.095212-9.3086962-9.308697-1.3025228-3.162959-1.3025228-7.211634-1.3025228-15.217808V89.6960611c0-9.6820861 0-14.5209583 1.8626076-18.1962434 1.6600573-3.2423333 4.2975809-5.8806163 7.5394361-7.541607 3.6687725-1.8604367 8.5184991-1.8604367 18.152826-1.8604367h24.1096966l-.004342 112.025643zm54.923045-50.227449c-16.785148 0-30.392199-13.607051-30.392199-30.3921987 0-16.7851477 13.607051-30.3921984 30.392199-30.3921984 16.785147 0 30.392206 13.6070507 30.392206 30.3921984h0c.005752 8.0551317-3.188763 15.7826017-8.880733 21.4823067-5.691971 5.699706-13.415095 8.904712-21.470227 8.909892h-.041246z" fill="#d44140"/></svg>