<svg width="256px" height="256px" viewBox="0 0 256 256" xmlns="http://www.w3.org/2000/svg" preserveAspectRatio="xMidYMid"><title>Retool</title><path d="M244.271999 213.333333c6.476799 0 11.728001 5.2512 11.728001 11.728v7.4816C256 245.497599 245.497599 256 232.542933 256H140.7904c-12.954667 0-23.457067-10.502401-23.457067-23.457067v-7.4816c0-6.4768 5.2512-11.728 11.728-11.728h115.210666zM232.542933 85.3333332C245.497599 85.3333332 256 95.8353065 256 108.7904v60.814933c0 6.4768-5.251202 11.728-11.728001 11.728H23.4567465C10.5019306 181.333333 0 170.830933 0 157.876266V97.061653c0-6.4773333 5.25096531-11.7283198 11.72832-11.7283198h220.814613zM115.2096 0c12.954666 0 23.457066 10.50192 23.457066 23.4567465v18.1482667c0 6.4773333-5.2512 11.7283201-11.728 11.7283201H11.72832C5.25096531 53.3333333 0 48.0823465 0 41.6050132V23.4566399C0 10.50192 10.50192 0 23.4567465 0H115.2096z" fill="#262626"/></svg>