<svg width="256px" height="256px" viewBox="0 0 256 256" xmlns="http://www.w3.org/2000/svg" preserveAspectRatio="xMidYMid"><title>Rider</title><defs><linearGradient x1="90.8320951%" y1="81.8025397%" x2="-19.1233284%" y2="19.0400096%" id="a"><stop stop-color="#dd1265" offset="0%"/><stop stop-color="#dd1265" offset="48%"/><stop stop-color="#fdb60d" offset="94%"/></linearGradient><linearGradient x1="35.983477%" y1="7.27061065%" x2="53.6996856%" y2="92.9939676%" id="b"><stop stop-color="#087cfa" offset="14%"/><stop stop-color="#dd1265" offset="48%"/><stop stop-color="#087cfa" offset="96%"/></linearGradient><linearGradient x1="39.5446571%" y1="11.3522538%" x2="56.9381078%" y2="91.6944908%" id="c"><stop stop-color="#dd1265" offset="28%"/><stop stop-color="#fdb60d" offset="97%"/></linearGradient></defs><path fill="url(#a)" d="M256 99.6 76.5333333 0 196.693333 178.533333l24.693334-16.186666z"/><path fill="url(#b)" d="M184.4 58.9866667 161.92 4.02666667 112.186667 52.9866667 132.533333 230.64 180.72 256 256 212.026667z"/><path fill="url(#c)" d="M76.5333333 3.78956126e-14 0 51.5466667 28.4533333 227.36 101.84 255.573333l94.853333-77.04z"/><path d="M48 48.32h160v160H48z"/><path d="M67.9466667 178.08h60.0000003v10H67.9466667v-10zM68 68.1066667h27.4666667c6.4224943-.3953996 12.7347673 1.8047686 17.5200003 6.1066666 3.327722 3.5046879 5.177684 8.1438178 5.188603 12.9564525l-.01527.9635475c.40833 8.4233423-4.881763 16.0743027-12.906667 18.6666667l14.72 21.493333H104.48L91.6 109.04H81.3333333v19.253333H68V68.1066667zM94.6666667 97.44c6.2382223 0 9.9098373-3.2144889 10.1476803-8.0054894l.01232-.6611773c0-5.68-3.946667-8.6133333-10.4000003-8.6133333H81.3333333v17.28h13.3333334zm34.4800003-29.3333333h23.466666c18.615795 0 31.595753 12.5901507 31.99073 29.1412968l.00927.9653698c0 16.9333337-13.066666 30.0799997-32 30.0799997h-23.466666V68.1066667zM142.48 80.0533333V116.32h10.24c4.863237.286408 9.618724-1.509389 13.078741-4.938876 3.277911-3.248989 5.099935-7.673619 5.075779-12.2674285l-.021187-.9270288c.246964-4.8831669-1.583133-9.6429519-5.037926-13.1028248-3.454792-3.4598728-8.211882-5.2969627-13.095407-5.0571752l-10.24.0266666z" fill="#fff"/></svg>