<svg width="256px" height="248px" viewBox="0 0 256 248" xmlns="http://www.w3.org/2000/svg" preserveAspectRatio="xMidYMid"><path d="M0 3.79862486C0 1.70070025 1.70069564 0 3.79862486 0H173.71422C219.159524 0 256 36.9650162 256 82.5639207v14.5488721c0 2.0980468-1.699748 3.7987172-3.798486 3.7987172h-47.260137c-2.097817 0-3.798487-1.700901-3.798487-3.7987172V82.5639207c0-15.1997117-12.280158-27.5213838-27.42867-27.5213838H58.655827c-2.0980468 0-3.7987171 1.7006703-3.7987171 3.7987172V243.894198c0 2.096433-1.7062054 3.812325-3.7991784 3.667027C22.5334429 245.603171 0 221.766804 0 192.648995V3.79862486zM104.370047 110.085305H192c35.34622 0 64 28.750414 64 64.216331v18.347359c0 29.117809-22.532613 52.954176-51.057932 54.91223-2.092973.145298-3.799178-1.570594-3.799178-3.667027v-69.592562c0-5.066494-4.093463-9.173795-9.14289-9.173795h-36.57133c-29.024173 0-52.78351-22.616331-54.728648-51.243358-.142069-2.092973 1.572209-3.799178 3.670025-3.799178z" fill="#ed1846"/></svg>