<svg width="256px" height="226px" viewBox="0 0 256 226" xmlns="http://www.w3.org/2000/svg" preserveAspectRatio="xMidYMid"><title>RisingWave</title><path d="M84.7559776 122.242119c3.7101067-1.685007 7.3555677-3.551303 10.9237344-5.60732 9.353966-5.382465 18.178117-12.042388 26.216681-19.9839835 17.968721-17.7537033 29.590911-39.5056087 34.841274-62.432381.281069-1.2268648.415982-2.1333112.664728-3.3854724 1.439071-7.1995742 5.11826-13.9367905 10.736823-19.487897 14.972529-14.79405001 38.585109-15.56698885 53.901947.3274451 3.840804 3.9869592 9.979343 8.7510734 10.582873 21.1771198.0092 5.2531738-.308408 10.5105635-.947838 15.7370356-3.375635 27.6782385-15.767953 54.4556514-37.143227 75.5737474-27.891851 27.558784-65.234636 39.702357-101.4545516 36.499579-11.7233747-1.038549-23.3272953-3.684811-34.4562097-7.933164-11.9622833-4.56596-23.3722663-10.99119-33.7900771-19.263042 20.3802902 1.1046 40.9784087-2.636424 59.923843-11.221667" fill="#4acfd2"/><path d="M110.040491 8.40382773c10.850657-10.71995946 28.334534-10.61455882 39.055899.23609764 6.866508 6.95223393 9.916103 15.45877773 7.921921 24.33352123l-.279663 1.2451342c-5.251768 22.9267725-16.872553 44.6786777-34.842679 62.4323812-8.037159 7.941596-16.862716 14.601518-26.2166818 19.983983-3.5681668 2.056018-7.2136277 3.922314-10.9237344 5.60732 3.4796305-5.656507 6.4758226-11.52241 8.9970086-17.542901 9.5563356-22.8283988 12.2236766-47.8716184 7.9795396-71.945151-.030917-.3583625-.330255-1.8030556-.330255-1.8030556-1.079304-8.2648245 2.25136-16.2359325 8.638645-22.54732967" fill="#f0b400"/><path d="M95.8532653 20.0302382c2.4228121 2.4523243 4.1021973 5.3557636 5.0479937 8.4376816.302149 1.4236129.577596 2.8556577.831963 4.2862974 4.244137 24.0735318 1.576795 49.1167508-7.9809451 71.9465538-4.1106292-19.5764331-12.8350008-38.3813327-26.1927897-54.6762891-1.2184326-1.4938801-2.484647-2.9652745-3.781779-4.4141835-6.7695391-7.3372979-4.1443575-18.797873 2.9006288-25.7585387 8.1046152-8.0076466 21.1672818-7.9261367 29.1749283.1784785" fill="#e23e2b"/><path d="M13.2467666 123.066354c3.6974584 3.742429 7.5677741 7.2066 11.5870562 10.39673 10.4164049 8.273256 21.8263878 14.695675 33.7872653 19.263041 11.1303195 4.251164 22.7342397 6.89602 34.4562088 7.933164 36.2213201 3.204183 73.5612931-8.939389 101.4545491-36.496768 26.05366-25.740269 38.601972-59.8142242 37.911948-93.7504566-1.534634-8.427844-4.93135-7.3387035-4.816112-11.6896464.808072.6548914 4.42402 4.1471693 7.07731 7.9387856 33.22091 50.0414666 27.536297 118.1823504-16.799476 161.9869034-40.639719 40.15066-101.332283 47.580711-149.3978373 22.493926-11.5013301-6.003627-22.2803138-13.865117-31.8872411-23.590093-4.3832661-4.43667-8.3758466-9.113652-11.979147-13.985978-9.7376241-13.165256-16.62942803-27.763964-20.68103298-42.959941C1.92110439 122.963763.600081619 115.171134 0 107.333534c3.92793473 5.504731 8.34211825 10.769147 13.2467666 15.73282" fill="#3a7ceb"/></svg>