<svg width="256" height="226" xmlns="http://www.w3.org/2000/svg" preserveAspectRatio="xMidYMid"><path d="M84.756 122.242a127.343 127.343 0 0010.924-5.607 128.387 128.387 0 0026.216-19.984c17.97-17.754 29.591-39.506 34.842-62.433.28-1.226.416-2.133.664-3.385 1.44-7.2 5.119-13.937 10.737-19.488 14.973-14.794 38.585-15.567 53.902.328 3.841 3.986 9.98 8.75 10.583 21.177.01 5.253-.308 10.51-.948 15.737-3.375 27.678-15.768 54.455-37.143 75.573-27.892 27.56-65.235 39.703-101.455 36.5a128.386 128.386 0 01-34.456-7.933 127.3 127.3 0 01-33.79-19.263c20.38 1.104 40.979-2.637 59.924-11.222" fill="#4ACFD2"/><path d="M110.04 8.404c10.851-10.72 28.335-10.615 39.056.236 6.867 6.952 9.916 15.459 7.922 24.333l-.28 1.246c-5.251 22.926-16.872 44.678-34.842 62.432a128.35 128.35 0 01-26.217 19.984 127.342 127.342 0 01-10.923 5.607 127.348 127.348 0 008.997-17.543c9.556-22.828 12.223-47.871 7.98-71.945-.032-.358-.331-1.803-.331-1.803-1.08-8.265 2.251-16.236 8.638-22.547" fill="#F0B400"/><path d="M95.853 20.03a20.551 20.551 0 015.048 8.438c.302 1.424.578 2.856.832 4.286 4.244 24.074 1.577 49.117-7.98 71.947a127.375 127.375 0 00-26.194-54.677 126.525 126.525 0 00-3.781-4.414c-6.77-7.337-4.145-18.798 2.9-25.758 8.105-8.008 21.168-7.926 29.175.178" fill="#E23E2B"/><path d="M13.247 123.066a129.16 129.16 0 0011.587 10.397 127.284 127.284 0 0033.787 19.263 128.25 128.25 0 0034.456 7.933c36.222 3.204 73.562-8.94 101.455-36.496 26.054-25.74 38.602-59.815 37.912-93.75-1.535-8.429-4.932-7.34-4.816-11.69.808.654 4.424 4.147 7.077 7.938 33.22 50.042 27.536 118.183-16.8 161.987-40.64 40.15-101.332 47.58-149.397 22.494-11.502-6.004-22.28-13.865-31.888-23.59a129.226 129.226 0 01-11.979-13.986 127.32 127.32 0 01-20.68-42.96A128.257 128.257 0 010 107.334a128.89 128.89 0 0013.247 15.732" fill="#3A7CEB"/></svg>