<svg width="256px" height="230px" viewBox="0 0 256 230" xmlns="http://www.w3.org/2000/svg" preserveAspectRatio="xMidYMid"><path d="M4.27808883 5.10765458C17.5611059.324381379 43.8606094-5.24148563 73.6923239 9.68083091 81.7331183 14.1397798 89.3251622 19.7817984 95.8184471 26.0547876c10.4660869-1.8908718 21.2476599-2.8454866 32.1910549-2.8454866 32.754032 0 63.808932 8.5833746 87.443809 24.1645386 12.232533 8.0768305 21.962941 17.6528958 28.905657 28.4698245 7.725309 12.057792 11.650516 25.0137649 11.641015 38.9148339 0 13.518951-3.915706 26.493282-11.650534 38.542235-6.942716 10.826448-16.673124 20.392994-28.905657 28.469825-23.625358 15.581164-54.680258 24.15502-87.443809 24.15502-10.944075 0-21.724968-.955295-32.1910549-2.845487-6.4932849 6.272309-14.0853287 11.915008-22.1261231 16.373957-29.8419134 14.922316-56.131218 9.355769-69.41423512 4.562977-4.3637593963-1.574707-5.7011721-7.112697-2.48308652-10.44433 9.36800824-9.699811 24.86690124-28.880499 21.05660094-46.313779C8.03127548 152.088427 0 133.795722 0 114.385899c0-19.046742 8.03127548-37.3394474 22.8516032-52.5194555 3.8103004-17.43328-11.6885926-36.6044486-21.05660089-46.3042603-3.22760453-3.332313-1.8806728747-8.87914213 2.48308652-10.45452862zM126.672769 48.7391292c-57.4686308 0-104.0598195 30.1499195-104.0598195 67.3363838 0 16.201936 8.8424262 31.076658 23.5866023 42.695898 4.1543425 13.242221 1.7195306 28.174057-7.2955965 44.785987-.4297126.802312-.8308685 1.603944-1.2701001 2.396736 7.7355081-.639809 15.5560068-2.768655 23.4723749-6.654427 5.9779016-3.36087 11.7076306-7.62876 16.5969721-12.34472h0l8.9954093-8.678564c12.3093643 3.312595 25.8119975 5.145673 39.9741575 5.145673 57.467951 0 104.059139-30.140401 104.068658-67.346583 0-37.1864643-46.600707-67.3363838-104.068658-67.3363838zM76.8818526 100.599738c8.4705071 0 15.336391 6.835287 15.336391 15.265678 0 8.430392-6.8658839 15.266359-15.336391 15.266359-8.4698271 0-15.335711-6.835967-15.335711-15.266359 0-8.430391 6.8658839-15.265678 15.335711-15.265678zm49.3707224 0c8.469827 0 15.336391 6.835287 15.336391 15.265678 0 8.430392-6.866564 15.266359-15.336391 15.266359-8.470507 0-15.336391-6.835967-15.336391-15.266359 0-8.430391 6.865884-15.265678 15.336391-15.265678zm49.370043 0c8.460308 0 15.335711 6.835287 15.335711 15.265678 0 8.430392-6.865884 15.266359-15.335711 15.266359-8.470507 0-15.336391-6.835967-15.336391-15.266359 0-8.430391 6.865884-15.265678 15.336391-15.265678z" fill="#f5455c"/></svg>