<svg width="256px" height="214px" viewBox="0 0 256 214" xmlns="http://www.w3.org/2000/svg" preserveAspectRatio="xMidYMid"><path d="M256 6.35407821c-.00364-.41165362-.044687-.82212454-.122635-1.2263473 0-.12263473-.061317-.23300599-.098108-.35564072-.03679-.12263473-.159425-.55185629-.257532-.82165269l-.183953-.39243114c-.114246-.23406795-.245404-.45949573-.392431-.67449102-.085844-.1348982-.171688-.26979641-.269796-.40469461l-.171689-.23300599c-.098107-.11037126-.208479-.19621557-.306587-.29432335l-.245269-.29432336-.196216-.1348982c-.179724-.15368506-.368071-.29699174-.564119-.42922156l-.478276-.306586822c-.210819-.11051696-.427833-.208787787-.649964-.294323353l-.515066-.208479042c-.233006-.073580839-.478275-.110371258-.711281-.15942515l-.527329-.1103712574c-.289942-.01848352746-.580765-.01848352746-.870707 0h-.490539C245.661892.308185999 202.236934 4.45323989 153.428311 26.2209046c-29.3097 13.0360718-51.997125 33.0500598-66.271808 57.344l-3.6790419 1.5942515C31.2228024 108.484282 0 153.822342 0 206.444905v.88297c0 2.472837 1.43713609 4.720381 3.67904192 5.763832.84277262.386211 1.75865055.588734 2.68570059.588734H179.831569c.337109 0 .673694-.026932 1.005605-.085932l.441485-.110371c.208479-.061317.416958-.098108.625437-.171689.208479-.07358.306587-.147161.466012-.220742.159425-.073581.367904-.147162.539593-.24527.323775-.191246.631385-.408623.91976-.649964l69.901796-58.938251c1.447031-1.216062 2.274688-3.015317 2.25648-4.905389V6.35407821H256zM192.79406 187.988378l-6.70812 5.653461V68.2478267l57.196838-48.2077126V145.434126l-50.488718 42.554252zM78.5965988 154.742102h94.7721202v46.22103H23.7543473l54.8422515-46.22103zM158.591234 37.846677c22.338921-9.8358728 45.706779-17.1452697 69.66879-21.7921916l-51.126419 43.1061078c-23.599294 2.8794843-46.810441 8.3450431-69.215042 16.2981557 12.655904-15.4519761 29.726659-28.2673054 50.672671-37.6120719zM95.7654611 93.7435872C120.662619 83.4951481 146.726192 76.349083 173.368719 72.4664614v69.5584196H82.7661796c.6533494-16.865603 5.0963486-33.367573 12.9992815-48.2812938h0zm-17.4509222 8.1184188c-5.3582262 13.903919-8.2066319 28.648364-8.4127425 43.547593l-56.411976 47.606803c4.2676886-38.678994 27.2371736-71.030036 64.8247185-91.154396z" fill="#3c72ff"/></svg>