<svg width="512px" height="127px" viewBox="0 0 512 127" xmlns="http://www.w3.org/2000/svg" preserveAspectRatio="xMidYMid"><path d="M18.7675441 75.028503v50.018996H.0104206242V75.028503H18.7675441zm106.2903659 0v50.018996h-18.757123V75.028503h18.757123zM44.1556581 11.6051109l4.95327 10.330312c.4055855.8404265.4334559 1.8139461.0766156 2.6761997-.3568403.8622535-1.0645105 1.5313725-1.9453809 1.8394041-16.6278426 5.9050204-28.4830393 21.1677612-28.4830393 39.06692v3.2755495H-3.55271368e-15v-3.2755495C-3.55271368e-15 40.1610946 16.6313161 18.5209318 40.0672999 9.94128455c1.5879451-.58295811 3.3587416.13769745 4.0883582 1.66382635zm40.8280054-1.70898239C108.426594 18.5035641 125.05791 40.1541475 125.05791 65.500579v3.2755495h-18.757123V65.500579c0-17.8991588-11.8413026-33.1584261-28.4830394-39.06692-.8808704-.3080316-1.5885405-.9771506-1.9453808-1.8394041-.3568403-.8622536-.3289699-1.8357733.0766156-2.6761997l4.9463229-10.3581004c.7296166-1.5261289 2.5004131-2.24678439 4.0883582-1.66382629z" fill="#27272a"/><path d="M62.5341655 29.7717323c20.7162009 0 37.5142465 15.9956581 37.5142465 35.7288467v59.54692H81.291289v-59.54692c0-9.8683311-8.3990231-17.8644234-18.7571235-17.8644234-10.3581004 0-18.7571234 7.9891452-18.7571234 17.8644234v59.54692H25.0199186v-59.54692c0-19.7331886 16.7980461-35.7288467 37.5142469-35.7288467zM74.4345183.805870706c1.0377868.141322351 1.945831.769402144 2.4441867 1.690605124.4983558.92120298.5271867 2.02492278.0776044 2.97088741l-.8996473 1.88265943-6.9644504 14.58887383c-.5825539 1.2034761-1.833133 1.9370944-3.1678698 1.8583446-1.1231117-.0625237-2.2531705-.0937856-3.3901764-.0937856-1.135848 0-2.2682225.0312619-3.3901764.0937856-1.3339675.0792185-2.5837795-.6547545-3.1643962-1.8583446l-6.967924-14.58887383-.8996472-1.88265943c-.4495823-.94596463-.4207514-2.04968443.0776043-2.97088741.4983557-.92120298 1.4064-1.549282773 2.4441868-1.690605124 7.8971871-1.074494275 15.9035184-1.074494275 23.8007055 0z" fill="#ffc905"/><path d="M484.579864 59.220353c1.394048-.0022525 2.737151.0591134 4.029308.1841609 6.678463.6275531 12.021927 2.8760922 16.030394 6.7456173 4.216879 4.0733062 6.573098 9.596237 7.068657 16.5687924.067155.9355405.100732 1.9023429.100732 2.9004071.0058.4421038-.027911.8838419-.100732 1.3199457-.028574.3996932-.21023.7729588-.507138 1.0420624-.414509.2848304-1.548041.4272456-3.400597.4272456h0-39.143337c-.324198.7294437-.486296 2.0667571-.486296 4.0119403 0 7.9405153 1.721718 14.2206783 5.165156 18.8404883 3.443437 4.61981 8.123455 6.929715 14.040054 6.929715 3.510936-.022846 6.974649-.811131 10.149688-2.309905 3.57617-1.680492 6.876567-3.894031 9.78844-6.564993h0l3.400597 4.255088c-5.256626 5.949019-11.438372 9.778019-18.545238 11.487002-2.964311.704297-6.001769 1.0541-9.048575 1.042697-3.141118.017005-6.273525-.332724-9.333406-1.042697-1.47617-.346021-2.92688-.79284-4.341926-1.337314-7.91872-2.938732-14.216003-9.103428-17.322551-16.957829-1.620986-3.9691-2.431479-8.3851288-2.431479-13.2480868-.056822-4.7225789.810472-9.4106881 2.553053-13.8003799 1.631812-4.0724824 4.094867-7.7599666 7.231913-10.8270285 3.181061-3.0794983 6.941365-5.4974272 11.063229-7.1138127 3.216397-1.271024 6.60009-2.0689767 10.045482-2.3689552 1.269-.1204161 2.600524-.181782 3.994572-.1841609zm-206.828548.0174309c1.312999 0 2.605156.0590502 3.879946.1840977 3.395348.3152099 6.731791 1.0923498 9.916961 2.309905 4.194927 1.5756826 8.067529 3.9027751 11.427951 6.8671913 3.273285 2.8956347 5.924991 6.4253341 7.794627 10.3754681 1.930525 4.1309309 2.906396 8.6434461 2.855251 13.2029308.053037 4.691594-.921521 9.3379342-2.855251 13.6128082-1.847175 4.053449-4.493609 7.692296-7.780733 10.698508-3.342101 3.034768-7.216551 5.425386-11.427951 7.051289-1.573196.618037-3.187703 1.125255-4.831696 1.517938-5.88188 1.380139-12.003385 1.380139-17.885265 0-1.596973-.378169-3.166077-.865613-4.696228-1.458888-4.17847-1.588225-8.014919-3.960361-11.302904-6.988765-3.257946-3.027996-5.858991-6.693104-7.641791-10.767978-1.886477-4.309521-2.833756-8.9713185-2.778833-13.6753328-.051427-4.5670035.897029-9.0899529 2.778833-13.2515604 1.800989-3.9736509 4.402485-7.5329703 7.641791-10.4553596 3.307346-2.9581237 7.141658-5.2676662 11.302904-6.8081411 3.136293-1.1741351 6.415362-1.9241039 9.750231-2.2300135 1.264369-.121574 2.539159-.1840977 3.852157-.1840977zm-91.138779-27.9759043c11.775306-.0023137 20.870195 2.0679169 27.284668 6.210694 6.414473 4.142777 9.62171 9.9088557 9.62171 17.298236-5.08e-4 1.5510526-.116614 3.0999105-.347355 4.6337043-.620508 4.5425427-2.534028 8.8108855-5.51251 12.2963365-3.899629 4.5503392-10.111479 7.5943193-18.635549 9.1319403h0l28.257259 32.4011943c1.892893 2.230071 4.268607 3.999978 6.947083 5.175576 2.571874 1.154467 5.357629 1.755641 8.176716 1.764559h0v4.862958h-28.868602l-30.21981-37.0279508c-2.028549-2.4361104-3.794265-4.0802533-5.297151-4.9324288-1.502886-.8521755-2.903881-1.2782632-4.202985-1.2782632h0v23.9118588c-.048428 2.47023.156423 4.938919.611343 7.367381.402931 1.908132 1.213424 3.390177 2.431479 4.446133 1.21574 1.058273 2.981456 1.769191 5.297151 2.132755 2.315694.363564 5.422198.545346 9.319511.545346h0v4.862958h-48.372537v-4.862958c2.185154.044641 4.369025-.138124 6.516364-.545346 1.664984-.372827 2.964088-1.067535 3.897313-2.084125.933225-1.01659 1.561936-2.438426 1.886133-4.265509.36309-2.315933.526946-4.658732.489769-7.002659h0V50.0328992c.036569-2.2988538-.07947-4.5976003-.347354-6.8810855-.245463-1.7460335-.773442-3.1261872-1.583935-4.1404613-.888448-1.0679915-2.113102-1.802784-3.473541-2.0841248-1.981716-.4355412-3.996498-.7039465-6.023121-.8023881h0v-4.8629599zm154.294709 28.1530549 1.458887 10.57346h.729444c3.411017-3.7931072 6.838245-6.5001538 10.281682-8.1211398 3.443438-1.620986 7.434537-2.431479 11.973297-2.431479 5.346938 0 9.764125.9262777 13.251561 2.7788331 3.403784 1.7874774 6.165035 4.5924427 7.898833 8.0238806h0 .486296c2.874875-3.3717902 6.440398-6.0867994 10.455359-7.9613568 4.069853-1.9072797 8.513898-2.8827151 13.008413-2.855251 4.860642.0046313 9.094889.6113432 12.70274 1.8201356 3.607852 1.2087924 6.423736 2.9455631 8.447653 5.2103121 1.623302 1.8641339 2.819358 4.2956129 3.588168 7.2944369.768811 2.9988241 1.153216 7.172863 1.153216 12.5221167h0V104.97043c.006947 3.320705.108838 5.954808.305672 7.902306.196834 1.947499.659973 3.446911 1.389416 4.498236.746107 1.07567 1.878301 1.822172 3.160923 2.084125 1.885359.385762 3.798319.621543 5.720923.705129h0v4.862958h-38.413895v-4.862958c1.942348-.020151 3.877245-.243677 5.773026-.66692 1.2999-.289438 2.459648-1.01965 3.282497-2.066757.771126-1.011958 1.257422-2.410638 1.458887-4.196038.231826-2.424293.333862-4.859248.305672-7.294437h0V90.0133605c.045469-3.5799969-.198473-7.1578131-.729444-10.6985074-.486296-2.9154591-1.256264-5.2658888-2.309905-7.051289-.956052-1.6880127-2.426122-3.0266528-4.196038-3.8208956-1.741402-.7711262-3.868367-1.1566892-6.380895-1.1566892-2.83441.0138941-5.163999.7086024-6.988766 2.0841248-1.879346 1.4426932-3.433398 3.2654199-4.560759 5.3492537-2.107282 3.8116328-3.160923 8.5530168-3.160923 14.224152h0v16.0199732c0 3.320705.081049 5.954807.243148 7.902306.162098 1.947499.60787 3.446911 1.337313 4.498236.763301 1.086705 1.919214 1.834063 3.223447 2.084125 1.946612.394886 3.920829.63876 5.90502.729444h0v4.862958h-38.535468v-4.862958c1.940152-.095294 3.870147-.339156 5.773026-.729444 1.28752-.245775 2.448641-.933847 3.282496-1.945183.771126-.970276 1.257422-2.367797 1.458888-4.192564.230533-2.445284.332564-4.900982.305671-7.356961h0V90.0307282c.045469-3.5799969-.198473-7.1578131-.729443-10.6985074-.488612-2.9154591-1.279421-5.2658888-2.372429-7.051289-1.001401-1.6948396-2.510726-3.0316002-4.314139-3.8208956-1.780768-.7711261-4.009624-1.1566892-6.686567-1.1566892-2.676942 0-4.884957.6483944-6.624043 1.9451831-1.819705 1.3898016-3.296713 3.178134-4.317612 5.2276798-1.112794 2.1070272-1.930931 4.3569052-2.431479 6.6865672-.571211 2.5540139-.856637 5.1636279-.851018 7.7807327h0l7.51e-4 16.6152992c.008505 3.138409.089304 5.626172.242397 7.46329.162099 1.945183.60787 3.424911 1.337314 4.439186.767191 1.038501 1.894405 1.753229 3.160922 2.004233 1.882422.39357 3.793051.63748 5.713976.729444h0v4.862958h-38.431262v-4.862958c1.96052-.098791 3.911035-.342606 5.83555-.729444 1.447308-.326513 2.541474-.974907 3.282496-1.945183.741022-.970276 1.227318-2.367798 1.458887-4.192565.276298-2.442199.398114-4.899408.364722-7.35696h0V90.8991136c-.002315-4.6198101-.063681-8.4696518-.184097-11.5495251-.120416-3.0798734-.342723-5.1871552-.66692-6.3218453-.175852-.8718701-.483922-1.7117429-.913542-2.4905292-.408721-.6455316-1.001588-1.153703-1.702035-1.4588874-.94418-.408863-1.950583-.6554729-2.976825-.7294437-1.215739-.1227318-2.796201-.1840977-4.741384-.1840977h0V64.031271l23.460299-4.6163365zm-63.142036 6.8741384c-2.36281-.019517-4.68225.6347459-6.686567 1.8861329-2.107115 1.339433-3.875098 3.1490294-5.165156 5.28673-1.527888 2.534485-2.636331 5.29914-3.282496 8.1871371-.801562 3.4887791-1.188643 7.0599565-1.153216 10.6394572-.041635 3.6784711.345378 7.3492708 1.153216 10.9381819.635979 2.916254 1.744789 5.708814 3.282496 8.267028 1.278714 2.127894 3.02482 3.936954 5.106106 5.290204 2.018661 1.268568 4.361711 1.924912 6.745617 1.889606 2.419994.026311 4.798958-.625888 6.867192-1.882659 2.156451-1.346106 3.968116-3.177994 5.290203-5.349254 1.569546-2.580757 2.718592-5.394748 3.404071-8.336499.843249-3.5368522 1.251516-7.1634303 1.215739-10.7992402.037992-3.5625776-.370434-7.1158843-1.215739-10.5769335-.700007-2.8955815-1.848576-5.6638671-3.404071-8.2045047-1.322087-2.1712598-3.133752-4.0031477-5.290203-5.3492538-2.067948-1.2578165-4.446886-1.9112122-6.867192-1.8861329zm206.648406-.0187965-.3131.0014288c-3.480489.0023157-6.580046 1.4415196-9.298671 4.3176119-2.718625 2.8760923-4.480868 6.5429941-5.28673 11.0007056h0 17.624749c3.241972-.0023157 5.326097-.1852556 6.252375-.5488196.930909-.3647218 1.399837-1.2331072 1.389586-2.6121031-.002485-3.5638534-1.015602-6.4816282-3.039518-8.7533243-1.913253-2.2160487-4.714708-3.4639696-7.641791-3.4040705zM186.612537 38.0700227H176.02171c-1.461203 0-2.191805.6947082-2.191805 2.0841248h0v34.3498507h7.919674c7.623266 0 13.325663-1.4878335 17.107192-4.4635006 2.989561-2.3457983 4.794645-5.8957576 5.415251-10.6498779.17155-1.3350092.255095-2.6798575.250306-4.0258345-.002527-5.1987336-1.586462-9.3808774-4.752016-12.5464315-3.165554-3.165554-7.551479-4.748331-13.157775-4.748331h0z" fill="#27272a"/></svg>