<svg width="256px" height="256px" viewBox="0 0 256 256" xmlns="http://www.w3.org/2000/svg" preserveAspectRatio="xMidYMid"><path d="M38.314903 153.174534v102.116343H.0212742382V153.174534H38.314903zm216.99723 0v102.116343h-38.293629V153.174534h38.293629zM90.1460388 23.6924286l10.1123542 21.0898615c.828024 1.7157735.884923 3.7032639.156415 5.4635986-.7285078 1.7603348-2.1732526 3.1263756-3.9715947 3.7552379-33.9465928 12.0554017-58.1495845 43.2150693-58.1495845 79.7571194v6.687202H0v-6.687202C-7.10542736e-15 81.9909327 33.9536842 37.8114313 81.799446 20.2956419c3.2418713-1.1901389 6.8570432.2811163 8.3465928 3.3967867zm83.3524652-3.4889751c47.859945 17.5725208 81.813629 61.7732964 81.813629 113.5193355v6.687202h-38.293629v-6.687202c0-36.5420502-24.174626-67.6946264-58.149584-79.7571194-1.798342-.6288623-3.243087-1.9949032-3.971595-3.7552379-.728508-1.7603348-.671609-3.7478251.156415-5.4635987l10.098171-21.1465928c1.48955-3.1156704 5.104722-4.5869255 8.346593-3.3967867z" fill="#27272a"/><path d="M127.666704 60.7805172c42.293185 0 76.587257 32.6559557 76.587257 72.9422718v121.568088h-38.293629V133.722789c0-20.146704-17.147036-36.4711361-38.293628-36.4711361-21.146593 0-38.2936292 16.3102491-38.2936292 36.4711361v121.568088H51.079446V133.722789c0-40.2863161 34.294072-72.9422718 76.587258-72.9422718zm24.29518-59.13529086c2.118694.28851683 3.972513 1.57077391 4.989932 3.451457 1.017419 1.88068309 1.076279 4.13398363.158433 6.06521886l-1.836676 3.8435458-14.218282 29.7839335c-1.189314 2.4569582-3.742435 3.9546774-6.467369 3.7939058-2.29289-.1276454-4.599963-.1914682-6.921218-.1914682-2.318892 0-4.630693.0638228-6.921219.1914682-2.723363.1617286-5.274919-1.3367149-6.460277-3.7939058L100.059834 15.005448l-1.8366761-3.8435458c-.9178453-1.93123523-.8589855-4.18453577.1584332-6.06521886 1.0174187-1.88068309 2.8712379-3.16294017 4.9899329-3.451457 16.122512-2.193635121 32.467847-2.193635121 48.59036 0z" fill="#ffc905"/></svg>