<svg width="387px" height="103px" viewBox="0 0 387 103" xmlns="http://www.w3.org/2000/svg" preserveAspectRatio="xMidYMid"><title>ROS</title><path d="M260.5625.894531c24.90625 0 40.640625 21.074219 40.640625 51.054688C301.203125 81.929688 285.46875 103 260.5625 103c-24.765625 0-40.503906-21.070312-40.503906-51.050781 0-29.980469 15.738281-51.054688 40.503906-51.054688zm91.003906 0c13 0 22.851563 4.953125 31.335938 13.4375l-10.125 10.605469c-6.023438-6.363281-12.863282-9.476562-22.304688-9.476562-11.222656 0-16.011718 5.65625-16.011718 12.304687l.005538.4198939c.003714.1385219.009317.2756159.016878.4113265l.028616.4030257c.01731.1994821.03917.3959516.065805.5895583l.059703.383441c.044135.253142.097023.5013726.159196.7450475l.100289.36214c.375847 1.2558424 1.014902 2.3910192 1.993923 3.4569963l.289038.3027264h0l.307936.2992271h0l.327234.2959947h0l.346929.293029c.416394.3402408.873811.6749713 1.375094 1.0060975l.44048.2829843c.150452.0940635.30455.1878772.462363.2814856l.484644.2802538h0l.507323.2792887h0l.530399.2785904h0l.553874.2781587h0l.577746.2779939h0l.602016.2780958c.102381.0463727.205789.0927606.310234.1391695l.639167.2787488h0l.664432.2795176h0l.690095.2805531h0l.716155.2818554h0l.742613.2834244h0l.769469.2852601h0l.796723.2873627h0l.824375.289732h0l1.289279.4396238h0l.895245.2968221h0l.924288.3001251h0l1.441761.456964h0l.99864.3095493h0l1.124396.3569112h0l1.1071.3581225h0l1.089581.35987h0l1.071839.3621537h0l1.053873.3649738h0l1.035684.36833c.342171.1233956.681274.24744 1.01727.3722224l.998635.3766513h0l.979774.3816162h0l.960691.3871175c1.585125.6500781 3.089805 1.3253124 4.509383 2.0368749l.841498.4313863c9.420388 4.940476 14.862619 11.6640821 14.862619 23.6836132C386.050781 90.839844 375.101562 103 350.609375 103c-13.960937 0-26-6.222656-34.074219-15.980469l10.261719-10.324219c6.433594 7.214844 15.875 11.738282 24.90625 11.738282 13.410156 0 19.839844-4.808594 19.839844-14.425782 0-4.5984538-2.033877-7.8117188-7.148084-10.7212153l-.559785-.3106186h0l-.583645-.3085895c-.099279-.0512789-.199563-.1024856-.30086-.1536262l-.619971-.3060999h0l-.644547-.3048096c-.109488-.0507105-.220012-.1013796-.331578-.1520134l-.681946-.3034285c-.115757-.0505173-.232568-.1010116-.350438-.151489l-.719988-.3027125c-.122134-.0504348-.245339-.1008652-.369621-.1512972l-.758674-.3026614c-.128616-.0504633-.258323-.1009406-.389124-.151438l-.798004-.3032754h0l-.82458-.3040541h0l-.851443-.3051286h0l-.878593-.3064985h0l-.906028-.3081641h0l-.93375-.3101252h0l-1.453226-.4695114h0l-1.004304-.3163211h0l-1.715269-.5315464h0l-1.17712-.3705537h0l-1.151914-.369471h0l-1.126747-.369033h0l-1.101621-.3692397h0l-1.076533-.3700909c-.177334-.0617886-.353624-.1236395-.528871-.1855661l-1.038976-.3725765c-.342158-.1245668-.680151-.249544-1.013986-.3750392l-.989037-.3781467c-.162763-.0633192-.324487-.1267948-.485175-.1904401l-.951686-.3840165c-.313085-.1287562-.622028-.2582989-.926835-.3887355l-.902023-.3940991h0l-.877251-.4001074c-10.37853-4.8399165-15.414705-11.1168537-15.414705-23.8434167 0-17.113281 13.957031-27.578125 31.609375-27.578125zM10.921875 79.121094c6.027344 0 10.917969 5.054687 10.917969 11.285156 0 6.230469-4.890625 11.285156-10.917969 11.285156C4.890625 101.691406 0 96.636719 0 90.40625c0-6.230469 4.890625-11.285156 10.921875-11.285156zm76.210937 0c6.03125 0 10.921876 5.054687 10.921876 11.285156 0 6.230469-4.890626 11.285156-10.921876 11.285156-6.03125 0-10.917968-5.054687-10.917968-11.285156 0-6.230469 4.886718-11.285156 10.917968-11.285156zm-38.105468 0c6.03125 0 10.917968 5.054687 10.917968 11.285156 0 6.230469-4.886718 11.285156-10.917968 11.285156-6.03125 0-10.921875-5.054687-10.921875-11.285156 0-6.230469 4.890625-11.285156 10.921875-11.285156zM171.613281 2.449219c16.695313 0 30.789063 9.195312 30.789063 29.558593 0 15.839844-8.074219 25.597657-21.074219 28.992188l19.566406 40.445312h-16.554687l-19.023438-39.171874h-21.621094v39.171874h-14.09375V2.449219h42.011719zM260.5625 15.746094c-16.695312 0-25.863281 14-25.863281 36.203125 0 22.203125 9.167969 36.203125 25.863281 36.203125 16.832031 0 26-14 26-36.203125 0-22.203125-9.167969-36.203125-26-36.203125zM10.921875 40.664062c6.027344 0 10.917969 5.050782 10.917969 11.285157 0 6.230469-4.890625 11.285156-10.917969 11.285156C4.890625 63.234375 0 58.179688 0 51.949219c0-6.234375 4.890625-11.285157 10.921875-11.285157zm38.105469 0c6.03125 0 10.917968 5.050782 10.917968 11.285157 0 6.230469-4.886718 11.285156-10.917968 11.285156-6.03125 0-10.921875-5.054687-10.921875-11.285156 0-6.234375 4.890625-11.285157 10.921875-11.285157zm38.105468 0c6.03125 0 10.921876 5.050782 10.921876 11.285157 0 6.230469-4.890626 11.285156-10.921876 11.285156-6.03125 0-10.917968-5.054687-10.917968-11.285156 0-6.234375 4.886718-11.285157 10.917968-11.285157zm84.480469-24.210937h-27.917969v31.816406h27.917969c9.578125 0 16.28125-5.089843 16.28125-15.835937 0-10.324219-6.566406-15.980469-16.28125-15.980469zM10.921875 2.207031c6.027344 0 10.917969 5.050781 10.917969 11.285157 0 6.230468-4.890625 11.285156-10.917969 11.285156C4.890625 24.777344 0 19.722656 0 13.492188 0 7.257812 4.890625 2.207031 10.921875 2.207031zm38.105469 0c6.03125 0 10.917968 5.050781 10.917968 11.285157 0 6.230468-4.886718 11.285156-10.917968 11.285156-6.03125 0-10.921875-5.054688-10.921875-11.285156 0-6.234376 4.890625-11.285157 10.921875-11.285157zm38.105468 0c6.03125 0 10.921876 5.050781 10.921876 11.285157 0 6.230468-4.890626 11.285156-10.921876 11.285156-6.03125 0-10.917968-5.054688-10.917968-11.285156 0-6.234376 4.886718-11.285157 10.917968-11.285157z" fill="#232e4a"/></svg>