<svg width="256px" height="176px" viewBox="0 0 256 176" xmlns="http://www.w3.org/2000/svg" preserveAspectRatio="xMidYMid"><path d="M31.433 5.591 35.291.872l20.623 16.285 34.804-15.65 21.518 32.871 33.638-2.763 19.25-30.108 34.962 15.95L220.71 1.189l4.136 1.96.707 171.117-5.277.158-19.333-14.488-35.741 14.488-19.071-29.717-35.662.386-19.513 29.128-35.62-15.12-19.648 15.358-4.77-.258.515-168.61" fill="#b2271b"/><g style="fill:#d82a1f"><path d="M2.332 0h31.32c1.288 0 2.332 1.044 2.332 2.332v171.143c0 1.288-1.044 2.332-2.332 2.332H2.332c-1.288 0-2.332-1.044-2.332-2.332V2.332C0 1.044 1.044 0 2.332 0"/><path d="M57.507 0h31.32c1.288 0 2.332 1.044 2.332 2.332v171.143c0 1.288-1.044 2.332-2.332 2.332h-31.32c-1.288 0-2.332-1.044-2.332-2.332V2.332C55.175 1.044 56.219 0 57.507 0"/><path d="M112.34 0h31.32c1.288 0 2.332 1.044 2.332 2.332v171.143c0 1.288-1.044 2.332-2.332 2.332h-31.32c-1.288 0-2.332-1.044-2.332-2.332V2.332c0-1.288 1.044-2.332 2.332-2.332"/><path d="M167.173 0h31.32c1.288 0 2.332 1.044 2.332 2.332v171.143c0 1.288-1.044 2.332-2.332 2.332h-31.32c-1.288 0-2.332-1.044-2.332-2.332V2.332c0-1.288 1.044-2.332 2.332-2.332"/><path d="M222.348 0h31.32C254.956 0 256 1.044 256 2.332v171.143c0 1.288-1.044 2.332-2.332 2.332h-31.32c-1.288 0-2.332-1.044-2.332-2.332V2.332c0-1.288 1.044-2.332 2.332-2.332"/></g></svg>