<svg width="256px" height="302px" viewBox="0 0 256 302" xmlns="http://www.w3.org/2000/svg" preserveAspectRatio="xMidYMid"><path d="M248.495374 128.680652v-9.68371c0-10.596233-8.668965-19.2676913-19.267691-19.2676913H26.7723173c-10.5962328 0-19.26769119 8.6714583-19.26769119 19.2676913v9.68371C3.01930306 131.433179 0 136.367284 0 141.987027V167.8917c0 5.619744 3.01930306 10.556341 7.50462611 13.308869v10.050215c0 10.596233 8.67145839 19.267691 19.26769119 19.267691H229.227683c10.598726 0 19.267691-8.671458 19.267691-19.267691v-10.050215C252.98319 178.448041 256 173.511444 256 167.8917v-25.904673c0-5.619743-3.01681-10.556341-7.504626-13.306375zM128.757942 0C74.193576 0 29.1807787 40.7693177 22.4390814 93.501159H235.076803C228.335106 40.7693177 183.322309 0 128.757942 0zM95.9694579 237.235941H159.26512l6.462456 7.482188 9.721108-8.39471-10.304525-11.932605H90.0879254l-10.3045249 11.932605 9.7211087 8.39471 6.4649487-7.482188zm109.5999531-22.818052v40.983735c0 11.264419-9.217476 20.481895-20.481895 20.481895h-11.147237v-.039891c-2.440873 0-4.595025-1.1419-6.031126-2.894642h-.027426l-13.328814-17.026276-.014959.012466c-1.423635-1.844991-3.627652-3.056702-6.133349-3.074154-.017453 0-.032412-.004987-.049865-.004987-.014959 0-.029919.004987-.047371.004987h-38.590234c-.017452 0-.032412-.004987-.047371-.004987-.017453 0-.032412.004987-.049865.004987-2.321198.014959-4.378114 1.059623-5.804242 2.675237l-.027426-.012466-13.6404681 17.425193h-.0199458c-1.4361013 1.752742-3.5902531 2.894642-6.0311265 2.894642v.039891H72.9394807c-11.2644189 0-20.4818948-9.217476-20.4818948-20.481895v-40.983735h-25.032042v41.100917c0 25.032042 20.4818949 45.513937 45.5139368 45.513937H185.094996c25.034535 0 45.513937-20.481895 45.513937-45.513937v-41.100917h-25.039522z" fill="#0a0b09"/><path d="M210.785129 167.619206H45.21737c-7.8196784 0-14.21737-6.397691-14.21737-14.21737 0-7.819678 6.3976916-14.21737 14.21737-14.21737h165.567759c7.817179 0 14.214871 6.397692 14.214871 14.21737 0 7.819679-6.397692 14.21737-14.214871 14.21737" fill="#d7252c"/></svg>