<svg width="256px" height="256px" viewBox="0 0 256 256" xmlns="http://www.w3.org/2000/svg" preserveAspectRatio="xMidYMid"><title>RubyMine</title><defs><linearGradient x1="55.2713581%" y1="73.8248625%" x2="39.5092184%" y2="35.4035019%" id="a"><stop stop-color="#fe2857" offset="0%"/><stop stop-color="#fe3052" offset="6%"/><stop stop-color="#fd533b" offset="33%"/><stop stop-color="#fc6c2a" offset="58%"/><stop stop-color="#fc7b20" offset="81%"/><stop stop-color="#fc801d" offset="100%"/></linearGradient><linearGradient x1="19.0472854%" y1="2.91715286%" x2="50.1410335%" y2="36.3282769%" id="b"><stop stop-color="#6b57ff" offset="0%"/><stop stop-color="#fe2857" offset="100%"/></linearGradient><linearGradient x1="9.77490556%" y1="7.99954354%" x2="73.276839%" y2="97.5122675%" id="c"><stop stop-color="#6b57ff" offset="0%"/><stop stop-color="#fe2857" offset="30%"/><stop stop-color="#fe2857" offset="63%"/><stop stop-color="#fe3052" offset="64%"/><stop stop-color="#fd533b" offset="70%"/><stop stop-color="#fc6c2a" offset="76%"/><stop stop-color="#fc7b20" offset="81%"/><stop stop-color="#fc801d" offset="85%"/></linearGradient></defs><path fill="url(#a)" d="M212.906667 0l-73.253334 26.24L81.92 0 62.9066667 47.8933333H50.6133333V189.28L228.4 190.826667 256 50.0266667z"/><path fill="url(#b)" d="M210.72 91.8666667 93.7333333 22.5333333 210.72 159.653333z"/><path fill="url(#c)" d="M106.56 249.333333l95.68-12.746666-14.853333-28.56H210.72v-48.373334L93.7066667 22.32 0 45.3333333.106666667 179.733333 53.9733333 256l52.2933337-6.64.24-.026667z"/><path d="M50.6666667 48H210.666667v160H50.6666667z"/><path d="M70.6133333 177.76h59.9999997v10H70.6133333v-10zM129.893333 67.92H144.16l15.813333 25.44 15.813334-25.44h14.266666v60.133333h-13.146666V88.8l-16.933334 25.68h-.346666L142.88 89.0666667v38.9866663h-12.986667V67.92zM70.6666667 68h27.4666666c7.6088887 0 13.4399997 2.0266667 17.4933337 6.08 3.517357 3.6838962 5.376608 8.6451093 5.146666 13.7333333V88c.195029 4.2470667-1.065595 8.4334667-3.573333 11.8666667-2.400774 3.0847913-5.628171 5.4244243-9.306667 6.7466663l14.693334 21.333334H107.12L94.6666667 109.52H83.76v18.453333H70.6666667V68zm26.6666666 29.0933333c2.6756997.1185095 5.3025387-.7444592 7.3866667-2.4266666 1.756199-1.5691731 2.731752-3.8324573 2.666667-6.1866667v-.16c.201511-2.447224-.791767-4.8410239-2.666667-6.4266667-2.226911-1.5573234-4.913859-2.3183123-7.6266667-2.16h-13.28v17.2533334l13.52.1066666z" fill="#fff"/></svg>