<svg width="256" height="256" xmlns="http://www.w3.org/2000/svg" preserveAspectRatio="xMidYMid"><defs><linearGradient x1="67.622%" y1="100.513%" x2="37.049%" y2="13.665%" id="a"><stop stop-color="#FF1F51" offset="17%"/><stop stop-color="#FF3648" offset="28%"/><stop stop-color="#FF593B" offset="47%"/><stop stop-color="#FF7231" offset="65%"/><stop stop-color="#FF812B" offset="81%"/><stop stop-color="#FF8629" offset="94%"/></linearGradient><linearGradient x1="61.538%" y1="22.904%" x2="43.606%" y2="91.688%" id="b"><stop stop-color="#9039D0" offset="2%"/><stop stop-color="#FF1F51" offset="63%"/></linearGradient><linearGradient x1=".475%" y1="8.066%" x2="81.833%" y2="97.528%" id="c"><stop stop-color="#9039D0" offset="11%"/><stop stop-color="#FF1F51" offset="39%"/><stop stop-color="#FF1F51" offset="63%"/><stop stop-color="#FF3648" offset="66%"/><stop stop-color="#FF593B" offset="71%"/><stop stop-color="#FF7231" offset="77%"/><stop stop-color="#FF812B" offset="81%"/><stop stop-color="#FF8629" offset="85%"/></linearGradient></defs><path fill="url(#a)" d="M212.48 0l-72.54 26.46L81.92 0 25.6 142.5l64.86-26.44-.86 72.52 139.1 2.56L256 50.34z"/><path fill="url(#b)" d="M186.02 82.78l-92.16-60.6-74.24 46.08 163 63.16z"/><path fill="url(#c)" d="M106.66 249.18l95.58-12.8-30.72-58.88L192 153.6l1.7-15.36L93.86 22.18 0 45.22v134.84L53.76 256l52.9-6.82z"/><path d="M42.66 42.66h170.66v170.66H42.66z"/><path d="M126.3 59.74h17.06l17.92 32.42 18.78-32.42h16.2v76.8H180.9V86.18l-19.62 33.28-19.62-32.42v49.5H126.3v-76.8zm-66.56 0H91.3c8.533 0 15.36 2.56 20.48 7.68 4.26 4.26 6 10.24 6 18a29.46 29.46 0 01-4.26 15.36 18.86 18.86 0 01-11.1 8.54l17.06 27.3h-18l-14.44-23.98h-12.8v23.9H58.88v-76.8h.86zm30.72 37.54A12.74 12.74 0 0099 94.72a10.82 10.82 0 003.42-7.68A10.96 10.96 0 0099 78.5a12.74 12.74 0 00-8.54-2.5H75.1v22.14h15.36v-.86zm-30.72 87.9h64v10.24h-64v-10.24z" fill="#FFF"/></svg>