<svg width="256px" height="255px" viewBox="0 0 256 255" xmlns="http://www.w3.org/2000/svg" preserveAspectRatio="xMidYMid"><defs><linearGradient x1="84.7503645%" y1="111.399353%" x2="58.2543962%" y2="64.5837087%" id="a"><stop stop-color="#fb7655" offset="0%"/><stop stop-color="#fb7655" offset="0%"/><stop stop-color="#e42b1e" offset="41%"/><stop stop-color="#900" offset="99%"/><stop stop-color="#900" offset="100%"/></linearGradient><linearGradient x1="116.651024%" y1="60.8903211%" x2="1.74616041%" y2="19.2879503%" id="b"><stop stop-color="#871101" offset="0%"/><stop stop-color="#871101" offset="0%"/><stop stop-color="#911209" offset="99%"/><stop stop-color="#911209" offset="100%"/></linearGradient><linearGradient x1="75.7744024%" y1="219.327131%" x2="38.9781357%" y2="7.82868176%" id="c"><stop stop-color="#871101" offset="0%"/><stop stop-color="#871101" offset="0%"/><stop stop-color="#911209" offset="99%"/><stop stop-color="#911209" offset="100%"/></linearGradient><linearGradient x1="50.012428%" y1="7.23449921%" x2="66.4830414%" y2="79.1354134%" id="d"><stop stop-color="#fff" offset="0%"/><stop stop-color="#fff" offset="0%"/><stop stop-color="#e57252" offset="23%"/><stop stop-color="#de3b20" offset="46%"/><stop stop-color="#a60003" offset="99%"/><stop stop-color="#a60003" offset="100%"/></linearGradient><linearGradient x1="46.1741749%" y1="16.347907%" x2="49.9323342%" y2="83.0468449%" id="e"><stop stop-color="#fff" offset="0%"/><stop stop-color="#fff" offset="0%"/><stop stop-color="#e4714e" offset="23%"/><stop stop-color="#be1a0d" offset="56%"/><stop stop-color="#a80d00" offset="99%"/><stop stop-color="#a80d00" offset="100%"/></linearGradient><linearGradient x1="36.9653573%" y1="15.5936471%" x2="49.5282324%" y2="92.4776332%" id="f"><stop stop-color="#fff" offset="0%"/><stop stop-color="#fff" offset="0%"/><stop stop-color="#e46342" offset="18%"/><stop stop-color="#c82410" offset="40%"/><stop stop-color="#a80d00" offset="99%"/><stop stop-color="#a80d00" offset="100%"/></linearGradient><linearGradient x1="13.6086166%" y1="58.3456855%" x2="85.7636612%" y2="-46.7167814%" id="g"><stop stop-color="#fff" offset="0%"/><stop stop-color="#fff" offset="0%"/><stop stop-color="#c81f11" offset="54%"/><stop stop-color="#bf0905" offset="99%"/><stop stop-color="#bf0905" offset="100%"/></linearGradient><linearGradient x1="27.6242038%" y1="21.1345847%" x2="50.7445145%" y2="79.0557818%" id="h"><stop stop-color="#fff" offset="0%"/><stop stop-color="#fff" offset="0%"/><stop stop-color="#de4024" offset="31%"/><stop stop-color="#bf190b" offset="99%"/><stop stop-color="#bf190b" offset="100%"/></linearGradient><linearGradient x1="-20.6671297%" y1="122.281897%" x2="104.241521%" y2="-6.34211007%" id="i"><stop stop-color="#bd0012" offset="0%"/><stop stop-color="#bd0012" offset="0%"/><stop stop-color="#fff" offset="7%"/><stop stop-color="#fff" offset="17%"/><stop stop-color="#c82f1c" offset="27%"/><stop stop-color="#820c01" offset="33%"/><stop stop-color="#a31601" offset="46%"/><stop stop-color="#b31301" offset="72%"/><stop stop-color="#e82609" offset="99%"/><stop stop-color="#e82609" offset="100%"/></linearGradient><linearGradient x1="58.7919609%" y1="65.2049657%" x2="11.9636556%" y2="50.1275621%" id="j"><stop stop-color="#8c0c01" offset="0%"/><stop stop-color="#8c0c01" offset="0%"/><stop stop-color="#990c00" offset="54%"/><stop stop-color="#a80d0e" offset="99%"/><stop stop-color="#a80d0e" offset="100%"/></linearGradient><linearGradient x1="79.3194899%" y1="62.7538068%" x2="23.088288%" y2="17.8876818%" id="k"><stop stop-color="#7e110b" offset="0%"/><stop stop-color="#7e110b" offset="0%"/><stop stop-color="#9e0c00" offset="99%"/><stop stop-color="#9e0c00" offset="100%"/></linearGradient><linearGradient x1="92.8800277%" y1="74.1223655%" x2="59.8414537%" y2="39.7039965%" id="l"><stop stop-color="#79130d" offset="0%"/><stop stop-color="#79130d" offset="0%"/><stop stop-color="#9e120b" offset="99%"/><stop stop-color="#9e120b" offset="100%"/></linearGradient><radialGradient cx="32.0008013%" cy="40.2100469%" fx="32.0008013%" fy="40.2100469%" r="69.5729556%" id="o"><stop stop-color="#a80d00" offset="0%"/><stop stop-color="#a80d00" offset="0%"/><stop stop-color="#7e0e08" offset="99%"/><stop stop-color="#7e0e08" offset="100%"/></radialGradient><radialGradient cx="13.5493795%" cy="40.859922%" fx="13.5493795%" fy="40.859922%" r="88.3861936%" id="p"><stop stop-color="#a30c00" offset="0%"/><stop stop-color="#a30c00" offset="0%"/><stop stop-color="#800e08" offset="99%"/><stop stop-color="#800e08" offset="100%"/></radialGradient><linearGradient x1="56.5701955%" y1="101.716594%" x2="3.10480737%" y2="11.9932603%" id="m"><stop stop-color="#8b2114" offset="0%"/><stop stop-color="#8b2114" offset="0%"/><stop stop-color="#9e100a" offset="43%"/><stop stop-color="#b3100c" offset="99%"/><stop stop-color="#b3100c" offset="100%"/></linearGradient><linearGradient x1="30.8698732%" y1="35.5989756%" x2="92.4707626%" y2="100.693616%" id="n"><stop stop-color="#b31000" offset="0%"/><stop stop-color="#b31000" offset="0%"/><stop stop-color="#910f08" offset="44%"/><stop stop-color="#791c12" offset="99%"/><stop stop-color="#791c12" offset="100%"/></linearGradient></defs><path d="M197.467337 167.763618 51.9461307 254.173266l188.4224323-12.785849 14.512241-189.9944522-57.413467 116.3706532z" fill="url(#a)"/><path d="M240.677307 241.257487l-16.194895-111.77809-44.113045 58.249648 60.30794 53.528442z" fill="url(#b)"/><path d="M240.896 241.257487l-118.646352-9.313768-69.6731656 21.986412L240.896 241.257487z" fill="url(#c)"/><path d="M52.7437186 253.954573l29.639397-97.0999-65.2221106 13.946211 35.5827136 83.153689z" fill="url(#d)"/><path d="M180.357789 188.050653 153.085427 81.2253266 75.0375879 154.384724l105.3202011 33.665929z" fill="url(#e)"/><path d="M248.693065 82.7304523l-73.776884-60.2564825-20.544322 66.4184925 94.321206-6.16201z" fill="url(#f)"/><path d="M214.190955.990552764 170.799598 24.9696482 143.424322.668944724l70.766633.32160804z" fill="url(#g)"/><path d="M0 203.37206l18.1772864-33.151356-14.70391957-39.493468L0 203.37206z" fill="url(#h)"/><path d="M2.49567839 129.479397l14.79396981 41.963417 64.2830151-14.422191 73.3909547-68.2066331 20.711558-65.7868542L143.062834 0 87.617608 20.7501508c-17.4684623 16.2476381-51.3659497 48.3955778-52.5880603 49.000201-1.2092462.6174874-22.3839196 40.6383922-32.53386931 59.7290452h0z" fill="#fff"/><path d="M54.441809 54.0944724c37.8596985-37.5380905 86.666935-59.71618094 105.397387-40.8184925 18.718874 18.8976884-1.13206 64.8233166-38.991759 102.3485431-37.8596983 37.525226-86.0623114 60.925427-104.7798993 42.027738-18.73045227-18.884824.5145729-66.0325625 38.3742713-103.5577886h0z" fill="url(#i)"/><path d="M52.7437186 253.91598l29.4078392-97.408643 97.6659292 31.37608c-35.312562 33.112764-74.587336 61.105528-127.0737684 66.032563h0z" fill="url(#j)"/><path d="M155.092261 88.6223116l25.072563 99.3125624c29.49789-31.015879 55.972663-64.360201 68.938613-105.6032157l-94.011176 6.2906533h0z" fill="url(#k)"/><path d="M248.847437 82.8333668c10.034171-30.282613 12.349749-73.7254271-34.966512-81.79135675L175.056402 22.4868342l73.791035 60.3465326h0z" fill="url(#l)"/><path d="M0 202.934673c1.38934673 49.979176 37.4480402 50.72402 52.8080402 51.162694l-35.479799-82.860382L0 202.934673h0z" fill="#9e1209"/><path d="M155.232482 88.7766834c22.666935 13.9320606 68.349428 41.9119596 69.275659 42.4265326 1.439517.810452 19.695276-30.784322 23.837588-48.6399999l-93.113247 6.2134673h0z" fill="url(#o)"/><path d="M82.1129648 156.507337l39.3133672 75.84804c23.245829-12.607035 41.448844-27.967035 58.121005-44.420503l-97.4343722-31.427537h0z" fill="url(#p)"/><path d="M17.1738693 171.339899l-5.5702512 66.328443c10.5101507 14.356583 24.9696482 15.604422 40.1366834 14.485226-10.9732663-27.310955-32.8940703-81.92-34.5664322-80.813669h0z" fill="url(#m)"/><path d="M174.826131 22.6540704l78.099296 10.960402c-4.16804-17.6627136-16.96804-29.06050255-38.78593-32.623919636L174.826131 22.6540704h0z" fill="url(#n)"/></svg>