<svg width="512px" height="197px" viewBox="0 0 512 197" xmlns="http://www.w3.org/2000/svg" preserveAspectRatio="xMidYMid"><defs><linearGradient x1="50%" y1="0%" x2="50%" y2="100%" id="a"><stop stop-color="#883030"/><stop stop-color="#ff6565" offset="1"/></linearGradient></defs><path d="M384.588481 0h5.320176c20.441201 27.2621565 32.533587 61.0246894 32.533587 97.5841584 0 36.5686976-12.098492 70.3390476-32.54907 97.6048026l-.622267.82424h-5.3471c21.48502-27.122938 34.294015-61.296579 34.294015-98.4290426 0-36.3804563-12.295432-69.9207209-32.999379-96.7725188L384.588481 0h5.320176-5.320176zM123.781112 0h5.320176c-21.084262 26.9861462-33.6293408 60.8362227-33.6293408 97.5841584 0 36.7611396 12.5540958 70.6223366 33.6520708 97.6132436l.641944.815799h-5.3471c-20.827196-27.408052-33.1713372-61.490964-33.1713372-98.4290426 0-36.1938743 11.8517482-69.6464716 31.9228602-96.764347297L123.781112 0h5.320176-5.320176zM76.039604 27.8811881 5.99202683 98.0066007 76.039604 168.132013h-5.9920264L0 98.0066007l70.0475776-70.1254126h5.9920264zm365.912818 0L512 98.0066007l-70.047578 70.1254123h-5.992026l70.047578-70.1254123-70.047578-70.1254126h5.992026zm-207.026839 0V140.180418c0 7.744813 1.909488 13.553336 5.728522 17.425743 3.819032 3.872406 8.511842 5.808581 14.078568 5.808581 5.566727 0 10.259537-1.936175 14.078569-5.808581 3.819033-3.872407 5.728521-9.68093 5.728521-17.425743V27.8811881h4.272118V140.761276c0 8.519294-2.459679 15.231365-7.379112 20.136414-4.272139 4.259647-9.838782 6.389439-16.700096 6.389439-6.861313 0-12.427957-2.129792-16.700096-6.389439-2.330257-2.323444-4.142652-5.163166-5.43724-8.519252-1.294588-3.356086-1.941872-7.228434-1.941872-11.617162V27.8811881h4.272118zm-55.46586 0c2.845502 0 5.787966.3223657 8.827479.967108 3.039513.6447415 5.820303 2.2243359 8.342452 4.7388287 2.52215 2.5144937 4.55924 6.2217032 6.111331 11.1217417 1.552092 4.9000377 2.328127 11.6052531 2.328127 20.1158455 0 5.9316248-.452688 10.9927727-1.358074 15.1835941-.905387 4.1908222-2.166443 7.64014-3.783205 10.3480556-1.616762 2.7079156-3.524514 4.8032951-5.723311 6.2862017-2.198796 1.4829057-4.591568 2.482241-7.178388 2.9980346l22.505219 65.956762h-5.044273l-22.117198-65.183076h-20.953136v65.183076h-4.268231V27.8811881h22.311208zm129.813669 0L334.3271 112.457448l24.878423-84.5762599h4.270092V165.59736h-4.270092V44.3623684l-23.131567 75.4451006h-3.493711l-23.306853-75.4451006V165.59736H305.0033V27.8811881h4.270092zm-129.619658 3.8684321h-18.236988V96.545852h18.236988c7.243095 0 12.578331-2.4177451 16.005867-7.2533088 3.427537-4.8355646 5.141279-12.9914264 5.141279-24.4678312 0-11.6053536-1.584403-20.0191087-4.753257-25.241518-3.168854-5.2224085-8.63343-7.8335738-16.393889-7.8335738z" fill="url(#a)"/></svg>