<svg width="256px" height="267px" viewBox="0 0 256 267" xmlns="http://www.w3.org/2000/svg" preserveAspectRatio="xMidYMid"><g style="fill:#0a0b09"><path d="M223.580086 124.98141l.117871.636317c.326906 1.613352 1.742273 2.841784 3.448633 2.841784.155626 0 20.621813.002762 20.621813.002762 1.917237-.037755 3.44495-1.644661 3.44495-3.570187-1.444835-10.399309-4.165986-20.368575-7.99954-29.7632227l10.872633-8.8743597c1.50377-1.2275108 1.907108-3.5876835.896-5.2443165l-11.618532-19.0333238c-1.011108-1.6566331-3.293928-2.3767482-5.073036-1.6004604l-15.108605 6.595223c-5.841036-7.5685755-12.562417-14.4216403-20.014043-20.4026475l6.155971-15.0984748c.733008-1.7975252-.04328-4.0619281-1.723856-5.032518l-19.311424-11.1498129c-1.680576-.97059-4.029698-.5101583-5.220374 1.0230791l-9.831137 12.6664748c-8.761093-3.5618993-18.03695-6.1182158-27.686676-7.5271367l-2.340835-17.06912227c-.264287-1.92276259-2.068259-3.515856119-4.009439-3.515856119h-22.298705c-1.941179 0-3.745151 1.593093529-4.009438 3.515856119l-2.333468 17.00189927c-9.654331 1.3748489-18.9403166 3.8934101-27.7115396 7.4212374l-9.8734965-12.718964c-1.1906762-1.5332374-3.5397985-1.9927482-5.2203741-1.0221583L48.4420144 26.213295c-1.6805756.9705899-2.4568633 3.2359136-1.7238561 5.0334388l6.1384748 15.0542734c-7.4718849 5.9533813-14.2153669 12.7788201-20.0812662 20.3225324l-15.2366043-6.5151079c-1.7846331-.7633957-4.0619281-.0257842-5.0601439 1.6382158L1.00282014 80.8656115c-.99913668676 1.6649209-.578302154 4.0214101.93467626 5.2369497l10.6985899 8.5990215c-3.92564026 9.5208053-6.71769781 19.6291223-8.17726616 30.1656403-.00368345 1.948547 1.53139569 3.557295 3.44771223 3.59505H28.0660719c2.425554-.080115 3.8713094-1.537841 3.9670792-3.347338 8.1238561-45.5818127 48.0386762-80.126158 95.8093809-80.126158 47.842533 0 87.665267 34.5406618 95.737554 79.992633z"/><path d="M32.1160288 158.30377c-.3149353-1.614274-1.7229353-2.800346-3.4375828-2.800346-.1556259 0-.2550791.006447-.4641151.008288l-.0036834.002763H8.05847482c-1.91723741.037755-3.456 1.594014-3.456 3.519539l9.2086e-4.011972C12.988777 219.578014 64.922705 266.184748 127.761496 266.184748h-.002762c62.838791 0 114.772719-46.606734 123.158101-107.139683l-9.21e-4 9.21e-4.003683-.02118c0-1.925525-1.527712-3.472576-3.44495-3.510331h-20.168748c-.14918-.019338-.297439-.046043-.452144-.046043-1.885928 0-3.412719 1.48259-3.511251 3.343654-.011051.033151-.046044.050648-.051569.081957-8.072288 45.451971-47.761496 79.948432-95.532201 79.948432h.002762c-47.7707046 0-87.4599133-34.496461-95.532201-79.948432l-.1132662-.590273"/></g><path d="M171.938993 142.082763c0-24.149641-19.651223-43.7290364-43.891108-43.7290364-24.241727 0-43.8901872 19.5793954-43.8901872 43.7290364 0 24.152402 19.6484602 43.729956 43.8901872 43.729956 24.239885 0 43.891108-19.577554 43.891108-43.729956" fill="#3e64a0"/></svg>