<svg width="256px" height="286px" viewBox="0 0 256 286" xmlns="http://www.w3.org/2000/svg" preserveAspectRatio="xMidYMid"><title>Rush</title><path d="M246.715502 95.4919651c-6.898113-8.3600054-16.638769-13.53289-27.427634-14.5661596-10.7898-1.0346236-21.334473 2.1971803-29.694945 9.0949201-4.388758 3.6216729-7.888894 8.0317683-10.383122 12.9609264l-9.798085-3.8772588c2.650456-3.8181482 6.124445-7.8132549 10.101576-11.516777 8.242811-7.6769175 17.296176-12.8460669 24.839091-14.1828273.501974-.0891796.945491-.3800639 1.226383-.8056514.502861-.7613418 1.295159-1.63138 1.994215-2.3989317 1.527073-1.6768102 2.969401-3.2607056 1.587024-4.8227029-.353917-.3996741-.861214-.6266852-1.391482-.6266852-.037353 0-.07564.0011206-.112992.0034084-13.096797.7980876-31.693782 6.9420028-44.611286 21.7925099-2.365688 2.7196981-4.381894 5.2317152-6.087092 7.6288259l-38.168409-15.1040387c-2.159267-2.7737195-5.192962-4.8852687-6.984492-5.0449516-.289016-.0280145-.668753.0686356-1.109282.2469949.938347-2.354482 1.859325-5.1565428 2.467988-8.5243573 1.134869-6.2799259 1.284466-11.5457254 3.084914-11.9598736 3.328174-.7648903 2.966646.9357323 3.633252-1.497844.993863-3.6283498-3.753575-7.92578-2.368582-11.0475335 1.022157-2.3037756 2.025778-3.9684929 2.931207-5.2135057 3.367115.6417664 6.326617 1.1775445 9.21585 3.0674986 3.039064-2.815181 5.578162-7.0059693 5.011801-10.1604063-.583216-3.249313-6.86683-3.0935989-5.570691-8.9403733.851362-3.8412135 6.280393-5.0089995 9.720111-4.9380294 1.90807.0373528 1.286334-8.22553551-.991855-9.53568212-2.874805-1.65299787-28.094847-10.4055336-36.59866-1.78597355-4.7550014 4.81943452-7.0372525 17.65149407-1.6072878 22.30050687.6179538.5290545 1.2199398 1.0173947 1.8147348 1.4877121-.775209.4585046-1.6213877.8448251-2.9617901.9796217-2.953386.297421-4.5936373-.9934422-5.8690459.0518269-1.2935246 1.0595566.9275147 2.3714307-.071437 4.0981535-1.8255675 3.1555577-3.5057861-1.1629769-9.500664 4.7699422-2.7862327 2.7576111-3.4826741 8.0373712-6.2355695 14.6525377-4.4230755 10.629183-8.3021086 8.5845886-13.3946849 24.9553513-1.2476275 4.0107949 4.0761154 2.0394585 13.9517073 6.8757017-4.8147654 9.115931-7.9337174 17.7504787-6.4610865 23.1516817 1.8135212 6.649251 14.6903573 17.015097 21.3722918 22.921496.4496333.39734.9282617.903656 1.4339242 1.491728C75.3131209 149.370834 43.2752272 162.52366.529709802 194.459767c-2.013358222 3.252302 2.225615048 8.643886 4.114728798 9.021616 25.1491186-21.219146 55.3987508-28.040219 86.6909909-25.796255-4.1277089 2.580606-7.7450862 4.745663-10.7239655 6.505443l1.5751641-4.026343-10.7417081 3.322851-49.6511012 15.614838-5.925075 6.836948 2.849919 7.992081 8.9142263 1.545002 48.2970653-19.31369.4589715-1.173529c15.6143702-4.418734 18.5059375-.287149 20.2405044 4.458187l-7.6573073 8.169039c-13.2709541-5.179421-28.8913941-3.229096-40.6374234 6.462954-17.256956 14.240257-19.7119634 39.865623-5.4712394 57.121645 8.012625 9.710306 19.6293205 14.73378 31.3323942 14.73378 9.095387 0 18.2435347-3.035002 25.7906515-9.263007 8.3600051-6.897647 13.5328901-16.638769 14.5661591-27.428101.906364-9.462378-1.468008-18.736591-6.71882-26.513894l12.814784-15.535929c.581909.174623 1.123523.232053 1.615879.152679 1.824213-.292752 4.535647-2.335246 7.634429-5.388597.596756 1.13006 1.803902 1.848213 3.120492 1.723968 1.759874-.166219 3.047655-1.773413 2.876206-3.590016-.059764-.631775-.29602-1.199209-.64228-1.672095 5.806947.901975 10.523195 1.092474 10.913064-.226451 1.601171-5.411475-1.407497-7.74742-5.046819-9.334444 2.02928-2.67198 3.993846-5.410541 5.781734-8.050912 6.433072-6.026861 11.192275-11.626033 11.95287-15.053612 1.583055-7.136237-4.381427-18.349523-10.090837-24.800338.415549-4.287064.917709-9.204176 1.397598-14.103452.793606 3.730929 2.416535 8.393622 4.131398 13.296634.998485 2.854915 2.031054 5.806947 2.883396 8.553772.20544.662591.763023 1.15546 1.445784 1.278397.109724.018676.219914.028015.329638.028015.569815 0 1.115772-.262403 1.471323-.723429.324969-.421152.723009-.765031 1.144348-1.128939 1.18987-1.02776 2.987937-2.580746 1.780884-5.864377-5.200899-14.14921-1.259534-26.205267.634669-31.99914.234388-.717733.437027-1.337415.599931-1.885426.082643-.277811.182095-.564539.282014-.851362l11.165661 3.980726c-.473866 1.925907-.811068 3.899484-1.003714 5.910134-1.033036 10.789333 2.197273 21.334939 9.095387 29.694945 6.89858 8.359538 16.638768 13.532423 27.427634 14.566159 1.318971.126066 2.634254.189098 3.942159.189098 9.392341 0 18.415358-3.228815 25.752832-9.284018 8.359539-6.898113 13.53289-16.639235 14.566627-27.428101 1.033176-10.789333-2.197227-21.334939-9.095387-29.6949445l-4.7e-5.0036886zm-125.194173 5.8019979c-4.583179 1.607287-8.715323 3.807736-11.543858 6.606295-3.898597-3.782523-6.946672-6.559137-7.773568-8.0541799.321234-.0233455.605488-.1153265.850102-.2941527 1.310613-.9571167.145208-3.2875061 1.817956-4.5753345 2.736227-2.1062731 7.584003 2.7960845 10.737506.8563578 1.431823-.8808705 2.239669-3.00582 2.233039-5.0388818l8.025232 2.8610315-4.346223 7.6386306-1.86e-4 2.34e-4zm-33.4423562 85.659122c2.8398805-1.710568 6.0646808-3.692877 9.5893767-5.937682 1.7976463 2.733939 4.2270205 6.316345 6.9046505 9.958235l-3.360625 3.585161c-2.1432519-4.09722-5.7004914-7.415916-13.1332155-7.605481l-1.867e-4-2.33e-4zm18.0959912 21.311594c.351116-.054162.712877-.122331 1.093128-.217113 2.180464-.543902 5.173818-1.934731 8.62661-3.903779.16622.146609.331038.289483.494597.427688l-11.660585 14.13707c-1.331438-1.526932-2.753176-2.930741-4.253074-4.209978l5.699558-6.233702-2.34e-4-1.86e-4zm-9.3157678 18.382673c.2222487.26894.4323577.545163.6441943.820453L85.681722 241.800043c-.451501-1.456943-1.1832874-2.853328-2.2142692-4.102683-.6775316-.821013-1.4480248-1.51666-2.2736133-2.110288l11.7520991-12.853538c1.3991395 1.161296 2.7143754 2.460937 3.9132109 3.913771l4.67e-5 4.7e-5zm6.5950898 21.533842c-.749436 7.824461-4.501003 14.888794-10.5633492 19.891257-12.5154953 10.327093-31.0984729 8.546769-41.4246319-3.967886-10.3270929-12.514562-8.546769-31.098006 3.9678859-41.425566 5.473574-4.516924 12.1050823-6.716485 18.7025062-6.716485 2.1391902 0 4.2744117.232987 6.3649033.692052l-17.8205152 19.0116 1.8092723 2.518787c-3.2391343 4.351032-3.2395079 10.497982.3674574 14.869184 4.2405608 5.1388 11.8440802 5.867178 16.9828804 1.626804 1.5412199-1.27186 2.6770694-2.849219 3.4098363-4.568798l15.0536125-18.250538c2.587049 4.980051 3.697779 10.601168 3.150095 16.31987l4.7e-5-2.81e-4zm141.258643-124.057716c-.749342 7.823993-4.500675 14.887859-10.563349 19.890789-6.062813 5.002463-13.70658 7.343545-21.534309 6.595556-7.823994-.749762-14.88786-4.500955-19.890322-10.563348-5.002463-6.062393-7.344946-13.710316-6.595557-21.53431.103654-1.082902.270808-2.149462.487593-3.199727l16.742423 5.968965c-.009338 2.71783.892216 5.45443 2.757237 7.714737 4.240468 5.1388 11.84408 5.867178 16.982881 1.626664 5.1388-4.240467 5.867178-11.84408 1.626711-16.982881-4.240561-5.1388-11.844081-5.867178-16.982881-1.626664-.600865.495718-1.135476 1.041161-1.614851 1.619521l-16.484689-6.523186c1.768558-3.207011 4.139335-6.086625 7.049392-8.487938 5.321362-4.3912323 11.864157-6.7328276 18.675426-6.7328276.948338 0 1.902514.0466909 2.858977.1372713 7.823993.7493422 14.887859 4.5009559 19.890322 10.5633493 5.002463 6.062392 7.344946 13.710315 6.595557 21.534309l-5.61e-4-2.8e-4z" fill="#555"/></svg>