<svg width="256px" height="256px" viewBox="0 0 256 256" xmlns="http://www.w3.org/2000/svg" preserveAspectRatio="xMidYMid"><defs><linearGradient x1="50%" y1="100%" x2="50%" y2="3.55271367e-13%" id="c"><stop stop-color="#dbdbda" offset=".25"/><stop stop-color="#fff" offset="1"/></linearGradient><filter x="-50%" y="-50%" width="200%" height="200%" filterUnits="objectBoundingBox" id="a"><feOffset dy="2" in="SourceAlpha" result="shadowOffsetOuter1"/><feGaussianBlur stdDeviation="2" in="shadowOffsetOuter1" result="shadowBlurOuter1"/><feColorMatrix values="0 0 0 0 0   0 0 0 0 0   0 0 0 0 0  0 0 0 0.266007133 0" in="shadowBlurOuter1" result="shadowMatrixOuter1"/><feMerge><feMergeNode in="shadowMatrixOuter1"/><feMergeNode in="SourceGraphic"/></feMerge></filter><radialGradient cx="57.0254209%" cy="39.0167405%" fx="57.0254209%" fy="39.0167405%" r="61.0315689%" id="e"><stop stop-color="#2abce1"/><stop stop-color="#2abbe1" offset=".113629426"/><stop stop-color="#3375f8" offset="1"/></radialGradient><linearGradient x1="49.0502524%" y1="35.7034487%" x2="25.7128956%" y2="77.5718894%" id="d"><stop stop-opacity="0"/><stop offset="1"/></linearGradient><filter x="-50%" y="-50%" width="200%" height="200%" filterUnits="objectBoundingBox" id="b"><feOffset dy="1" in="SourceAlpha" result="shadowOffsetOuter1"/><feGaussianBlur stdDeviation="2" in="shadowOffsetOuter1" result="shadowBlurOuter1"/><feColorMatrix values="0 0 0 0 0   0 0 0 0 0   0 0 0 0 0  0 0 0 13 0" in="shadowBlurOuter1" result="shadowMatrixOuter1"/><feMerge><feMergeNode in="shadowMatrixOuter1"/><feMergeNode in="SourceGraphic"/></feMerge></filter></defs><g transform="translate(4 2)"><circle fill="url(#c)" filter="url(#a)" cx="124" cy="124" r="124"/><circle fill="url(#e)" cx="124" cy="124" r="114.7"/><g transform="translate(9.6875 8.71875)"><path d="M114.50625 28.48125c-.775 0-1.453125-.58125-1.453125-1.35625V6.878125c0-.775.678125-1.35625 1.453125-1.35625.775 0 1.453125.58125 1.453125 1.35625V27.125c-.096875.775-.678125 1.35625-1.453125 1.35625h0z" fill="#f3f3f3"/><path d="M114.50625 28.578125c-.871875 0-1.55-.678125-1.55-1.453125V6.878125c0-.775.678125-1.453125 1.55-1.453125.871875 0 1.55.678125 1.55 1.453125V27.125c0 .775-.775 1.453125-1.55 1.453125h0zm0-22.959375c-.678125 0-1.35625.58125-1.35625 1.259375V27.125c0 .678125.58125 1.259375 1.35625 1.259375.678125 0 1.35625-.58125 1.35625-1.259375V6.878125c-.096875-.678125-.678125-1.259375-1.35625-1.259375h0z" fill="#fff"/><path d="M124.19375 17.63125c-.775-.096875-1.35625-.678125-1.35625-1.453125l.678125-9.009375c.096875-.775.775-1.35625 1.55-1.259375.775.096875 1.35625.678125 1.35625 1.453125l-.678125 9.009375c-.096875.775-.775 1.35625-1.55 1.259375h0z" fill="#f3f3f3"/><path d="M124.19375 17.728125c-.871875-.096875-1.453125-.775-1.453125-1.55l.678125-9.009375c.096875-.775.775-1.453125 1.646875-1.35625.871875.096875 1.453125.775 1.453125 1.55l-.678125 9.009375c-.096875.871875-.775 1.453125-1.646875 1.35625h0zm.871875-11.721875c-.678125 0-1.35625.484375-1.35625 1.1625l-.678125 9.009375c0 .678125.484375 1.259375 1.259375 1.35625.678125 0 1.35625-.484375 1.35625-1.1625L126.325 7.3625c0-.678125-.58125-1.259375-1.259375-1.35625h0z" fill="#fff"/><path d="M131.459375 30.225c-.775-.19375-1.259375-.871875-1.1625-1.646875L134.26875 8.71875c.19375-.775.871875-1.259375 1.646875-1.065625.775.19375 1.259375.871875 1.1625 1.646875l-3.971875 19.859375c-.096875.678125-.871875 1.1625-1.646875 1.065625h0z" fill="#f3f3f3"/><path d="M131.459375 30.321875c-.871875-.19375-1.35625-.96875-1.259375-1.74375l3.971875-19.859375c.19375-.775.96875-1.35625 1.840625-1.1625.871875.19375 1.35625.96875 1.259375 1.74375L133.3 29.159375c-.19375.775-.96875 1.259375-1.840625 1.1625h0zM136.0125 7.75c-.678125-.096875-1.35625.290625-1.55.96875l-3.971875 19.859375c-.096875.678125.290625 1.35625 1.065625 1.55.678125.096875 1.35625-.290625 1.55-.96875L137.078125 9.3c.096875-.775-.3875-1.35625-1.065625-1.55h0z" fill="#fff"/><path d="M143.084375 21.50625c-.775-.19375-1.259375-.96875-1.065625-1.74375l2.421875-8.71875c.19375-.775.96875-1.1625 1.74375-.96875.775.19375 1.259375.96875 1.065625 1.74375l-2.421875 8.71875c-.19375.775-.96875 1.1625-1.74375.96875h0z" fill="#f3f3f3"/><path d="M143.084375 21.603125c-.775-.19375-1.35625-1.065625-1.065625-1.840625l2.421875-8.71875c.19375-.775 1.065625-1.259375 1.840625-1.065625.775.19375 1.35625 1.065625 1.065625 1.840625L144.925 20.5375c-.19375.775-.96875 1.259375-1.840625 1.065625h0zm3.196875-11.334375c-.678125-.19375-1.453125.19375-1.646875.871875l-2.421875 8.71875c-.19375.678125.19375 1.35625.96875 1.55.678125.19375 1.453125-.19375 1.646875-.871875L147.25 11.81875c.096875-.678125-.290625-1.35625-.96875-1.55h0z" fill="#fff"/><path d="M147.83125 35.165625c-.775-.290625-1.065625-1.1625-.775-1.840625l7.75-18.696875c.290625-.678125 1.1625-1.065625 1.840625-.678125.775.290625 1.065625 1.1625.775 1.840625l-7.75 18.696875c-.290625.678125-1.1625 1.065625-1.840625.678125h0z" fill="#f3f3f3"/><path d="M147.83125 35.2625c-.775-.290625-1.1625-1.1625-.871875-1.9375l7.75-18.696875c.290625-.775 1.1625-1.065625 2.034375-.775.775.290625 1.1625 1.1625.871875 1.9375l-7.75 18.696875c-.3875.775-1.259375 1.1625-2.034375.775h0zm8.815625-21.215625c-.678125-.290625-1.453125 0-1.74375.678125l-7.75 18.696875c-.290625.678125.096875 1.35625.775 1.646875.678125.290625 1.453125 0 1.74375-.678125l7.75-18.696875c.19375-.58125-.096875-1.35625-.775-1.646875h0z" fill="#fff"/><path d="M160.909375 28.965625c-.678125-.3875-.96875-1.1625-.678125-1.840625L164.3 19.084375c.3875-.678125 1.1625-.96875 1.9375-.58125.678125.3875.96875 1.1625.678125 1.840625l-4.06875 8.040625c-.3875.678125-1.1625.96875-1.9375.58125h0z" fill="#f3f3f3"/><path d="M160.909375 29.0625c-.775-.3875-1.065625-1.259375-.678125-2.034375L164.3 18.9875c.3875-.775 1.259375-1.065625 2.034375-.678125.775.3875 1.065625 1.259375.678125 2.034375l-4.06875 8.040625c-.3875.775-1.259375 1.065625-2.034375.678125h0zm5.328125-10.559375c-.678125-.290625-1.453125-.096875-1.74375.58125L160.425 27.125c-.290625.58125 0 1.35625.58125 1.74375.678125.290625 1.453125.096875 1.74375-.58125l4.06875-8.040625c.290625-.58125 0-1.35625-.58125-1.74375h0z" fill="#fff"/><path d="M162.846875 43.303125c-.678125-.484375-.871875-1.35625-.3875-1.9375l11.2375-16.759375c.3875-.678125 1.259375-.775 1.9375-.3875.678125.484375.871875 1.35625.3875 1.9375l-11.2375 16.759375c-.3875.678125-1.259375.871875-1.9375.3875h0z" fill="#f3f3f3"/><path d="M162.846875 43.4c-.678125-.484375-.871875-1.453125-.484375-2.13125L173.6 24.509375c.484375-.678125 1.35625-.871875 2.13125-.3875.678125.484375.871875 1.453125.484375 2.13125l-11.2375 16.759375c-.484375.678125-1.453125.871875-2.13125.3875h0zm12.7875-19.084375c-.58125-.3875-1.453125-.290625-1.840625.290625l-11.2375 16.759375c-.3875.58125-.19375 1.35625.3875 1.74375.58125.3875 1.453125.290625 1.840625-.290625l11.2375-16.6625c.3875-.58125.19375-1.453125-.3875-1.840625h0z" fill="#fff"/><path d="M176.990625 39.71875c-.58125-.484375-.775-1.35625-.290625-1.9375l5.61875-7.071875c.484375-.58125 1.35625-.678125 1.9375-.19375.58125.484375.775 1.35625.290625 1.9375l-5.61875 7.071875c-.484375.58125-1.35625.678125-1.9375.19375h0z" fill="#f3f3f3"/><path d="M176.89375 39.815625c-.678125-.484375-.775-1.453125-.290625-2.13125l5.61875-7.071875c.484375-.678125 1.453125-.775 2.13125-.19375.678125.484375.775 1.453125.290625 2.13125l-5.61875 7.071875c-.484375.678125-1.453125.775-2.13125.19375h0zm7.265625-9.203125c-.58125-.484375-1.35625-.3875-1.840625.19375L176.7 37.878125c-.3875.58125-.290625 1.35625.290625 1.840625.58125.484375 1.35625.3875 1.840625-.19375l5.61875-7.071875c.3875-.58125.290625-1.453125-.290625-1.840625h0z" fill="#fff"/><path d="M176.021875 54.25c-.58125-.58125-.58125-1.453125 0-1.9375l14.3375-14.240625c.58125-.58125 1.453125-.484375 1.9375 0 .484375.484375.58125 1.453125 0 1.9375L178.05625 54.25c-.58125.58125-1.453125.58125-2.034375 0h0z" fill="#f3f3f3"/><path d="M175.925 54.346875c-.58125-.58125-.58125-1.55 0-2.13125L190.2625 37.975c.58125-.58125 1.55-.58125 2.13125 0 .58125.58125.58125 1.55 0 2.13125l-14.3375 14.240625c-.58125.58125-1.55.58125-2.13125 0h0zm16.371875-16.275c-.484375-.484375-1.35625-.484375-1.840625 0L176.11875 52.3125c-.484375.484375-.484375 1.35625 0 1.840625.484375.484375 1.35625.484375 1.840625 0l14.3375-14.240625c.484375-.484375.484375-1.259375 0-1.840625h0z" fill="#fff"/><path d="M190.553125 53.475c-.484375-.58125-.484375-1.453125.096875-1.9375l6.878125-5.8125c.58125-.484375 1.453125-.3875 1.9375.19375.484375.58125.484375 1.453125-.096875 1.9375l-6.878125 5.8125c-.58125.484375-1.453125.3875-1.9375-.19375h0z" fill="#f3f3f3"/><path d="M190.45625 53.571875c-.58125-.678125-.484375-1.646875.096875-2.13125l6.878125-5.8125c.58125-.58125 1.55-.484375 2.13125.19375.58125.678125.484375 1.646875-.096875 2.13125l-6.878125 5.8125c-.58125.58125-1.55.484375-2.13125-.19375h0zm8.9125-7.653125c-.484375-.58125-1.259375-.58125-1.840625-.19375L190.65 51.5375c-.484375.484375-.58125 1.259375-.096875 1.840625.484375.58125 1.259375.58125 1.840625.19375l6.878125-5.8125c.58125-.484375.58125-1.259375.096875-1.840625h0z" fill="#fff"/><path d="M186.678125 67.425c-.484375-.678125-.290625-1.55.3875-1.9375l16.85625-11.2375c.678125-.3875 1.55-.19375 1.9375.3875.484375.678125.290625 1.55-.3875 1.9375l-16.85625 11.2375c-.58125.3875-1.453125.19375-1.9375-.3875h0z" fill="#f3f3f3"/><path d="M186.58125 67.425c-.484375-.678125-.290625-1.646875.3875-2.13125l16.85625-11.2375c.678125-.484375 1.646875-.290625 2.13125.484375.484375.678125.290625 1.646875-.3875 2.13125l-16.85625 11.2375c-.678125.484375-1.646875.290625-2.13125-.484375h0zm19.18125-12.690625c-.3875-.58125-1.1625-.775-1.74375-.3875l-16.85625 11.2375c-.58125.3875-.775 1.1625-.290625 1.840625.3875.58125 1.1625.775 1.74375.3875l16.85625-11.2375c.58125-.484375.678125-1.259375.290625-1.840625h0z" fill="#fff"/><path d="M201.1125 69.459375c-.3875-.678125-.19375-1.55.484375-1.9375l7.846875-4.45625c.678125-.3875 1.55-.096875 1.9375.58125.3875.678125.19375 1.55-.484375 1.9375L203.05 70.040625c-.678125.3875-1.55.096875-1.9375-.58125h0z" fill="#f3f3f3"/><path d="M201.015625 69.55625c-.3875-.775-.19375-1.646875.484375-2.034375l7.846875-4.45625c.678125-.3875 1.646875-.096875 2.034375.58125.3875.775.19375 1.646875-.484375 2.034375L203.05 70.1375c-.678125.3875-1.646875.096875-2.034375-.58125h0zm10.26875-5.8125c-.3875-.678125-1.1625-.871875-1.74375-.484375l-7.846875 4.45625c-.58125.3875-.775 1.1625-.484375 1.74375.3875.678125 1.1625.871875 1.74375.484375L210.8 65.4875c.58125-.290625.775-1.065625.484375-1.74375h0z" fill="#fff"/><path d="M194.621875 82.34375c-.290625-.775 0-1.55.775-1.840625l18.696875-7.75c.678125-.290625 1.55.096875 1.840625.775.290625.775 0 1.55-.775 1.840625l-18.696875 7.75c-.678125.290625-1.55 0-1.840625-.775h0z" fill="#f3f3f3"/><path d="M194.525 82.440625c-.290625-.775 0-1.646875.775-2.034375l18.696875-7.75c.775-.290625 1.646875.096875 1.9375.871875.290625.775 0 1.646875-.775 2.034375l-18.696875 7.75c-.775.290625-1.646875-.096875-1.9375-.871875h0zM215.740625 73.625c-.290625-.678125-1.065625-.96875-1.646875-.775l-18.696875 7.75c-.678125.290625-.96875 1.065625-.678125 1.74375.290625.678125 1.065625.96875 1.646875.775l18.696875-7.75c.678125-.290625.96875-1.065625.678125-1.74375h0z" fill="#fff"/><path d="M208.28125 87.1875c-.290625-.775.096875-1.55.871875-1.840625l8.525-2.809375c.678125-.290625 1.55.19375 1.74375.871875.290625.775-.096875 1.55-.871875 1.840625l-8.525 2.809375c-.678125.290625-1.453125-.096875-1.74375-.871875h0z" fill="#f3f3f3"/><path d="M208.184375 87.284375c-.290625-.775.096875-1.646875.96875-1.9375l8.525-2.809375c.775-.290625 1.646875.19375 1.9375.96875.290625.775-.096875 1.646875-.96875 1.9375l-8.525 2.809375c-.775.19375-1.646875-.19375-1.9375-.96875h0zm11.2375-3.68125c-.19375-.678125-.96875-1.065625-1.646875-.871875l-8.525 2.809375c-.678125.19375-.96875.96875-.775 1.646875.19375.678125.96875 1.065625 1.646875.871875l8.525-2.809375c.678125-.290625.96875-.96875.775-1.646875h0z" fill="#fff"/><path d="M199.5625 98.715625c-.19375-.775.290625-1.55 1.065625-1.646875l19.859375-3.875c.775-.19375 1.453125.3875 1.646875 1.1625.19375.775-.290625 1.55-1.065625 1.646875l-19.859375 3.875c-.775.096875-1.55-.3875-1.646875-1.1625h0z" fill="#f3f3f3"/><path d="M199.36875 98.715625c-.19375-.871875.3875-1.646875 1.1625-1.840625L220.390625 93c.775-.19375 1.55.3875 1.74375 1.259375.19375.871875-.3875 1.646875-1.1625 1.840625L201.1125 99.975c-.775.19375-1.55-.3875-1.74375-1.259375h0zm22.571875-4.359375c-.096875-.678125-.775-1.1625-1.453125-1.065625l-19.859375 3.875c-.678125.096875-1.1625.871875-.96875 1.55.096875.678125.775 1.1625 1.453125 1.065625l19.859375-3.875c.678125-.19375 1.1625-.871875.96875-1.55h0z" fill="#fff"/><path d="M211.9625 106.175c-.096875-.775.3875-1.453125 1.1625-1.55l8.9125-1.065625c.775-.096875 1.453125.484375 1.55 1.259375.096875.775-.3875 1.453125-1.1625 1.55l-8.9125 1.065625c-.678125.096875-1.453125-.484375-1.55-1.259375h0z" fill="#f3f3f3"/><path d="M211.865625 106.175c-.096875-.871875.484375-1.646875 1.259375-1.74375l8.9125-1.065625c.775-.096875 1.55.484375 1.646875 1.35625.096875.871875-.484375 1.646875-1.259375 1.74375l-8.9125 1.065625c-.775.096875-1.55-.484375-1.646875-1.35625h0zm11.721875-1.35625c-.096875-.678125-.775-1.259375-1.453125-1.1625l-8.9125 1.065625c-.678125.096875-1.1625.775-1.065625 1.453125.096875.678125.775 1.259375 1.453125 1.1625l8.9125-1.065625c.678125-.096875 1.1625-.775 1.065625-1.453125h0z" fill="#fff"/><path d="M201.1125 115.571875c0-.775.58125-1.453125 1.35625-1.453125h20.246875c.775 0 1.35625.678125 1.35625 1.453125 0 .775-.58125 1.453125-1.35625 1.453125H202.46875c-.775 0-1.35625-.678125-1.35625-1.453125h0z" fill="#f3f3f3"/><path d="M201.015625 115.571875c0-.871875.678125-1.55 1.453125-1.55h20.246875c.775 0 1.453125.678125 1.453125 1.55 0 .871875-.678125 1.55-1.453125 1.55H202.46875c-.775 0-1.453125-.678125-1.453125-1.55h0zm22.959375.096875c0-.678125-.58125-1.35625-1.259375-1.35625H202.46875c-.678125 0-1.259375.58125-1.259375 1.35625 0 .678125.58125 1.35625 1.259375 1.35625h20.246875c.678125-.096875 1.259375-.678125 1.259375-1.35625h0z" fill="#fff"/><path d="M211.865625 125.35625c.096875-.775.678125-1.35625 1.453125-1.35625l9.009375.678125c.775.096875 1.35625.775 1.259375 1.55-.096875.775-.678125 1.35625-1.453125 1.35625l-9.009375-.678125c-.678125-.096875-1.259375-.775-1.259375-1.55h0z" fill="#f3f3f3"/><path d="M211.76875 125.35625c.096875-.871875.775-1.453125 1.55-1.453125l9.009375.678125c.775.096875 1.453125.775 1.35625 1.646875-.096875.871875-.775 1.453125-1.55 1.453125l-9.009375-.678125c-.775-.096875-1.35625-.871875-1.35625-1.646875h0zm11.81875.871875c.096875-.678125-.484375-1.35625-1.1625-1.35625l-9.009375-.678125c-.678125 0-1.259375.484375-1.35625 1.259375-.096875.678125.484375 1.35625 1.1625 1.35625l9.009375.678125c.678125 0 1.259375-.58125 1.35625-1.259375h0z" fill="#fff"/><path d="M199.36875 132.428125c.19375-.775.871875-1.259375 1.646875-1.1625L220.875 135.2375c.775.19375 1.259375.871875 1.065625 1.646875-.19375.775-.871875 1.259375-1.646875 1.1625L200.434375 134.075c-.678125-.096875-1.1625-.871875-1.065625-1.646875h0z" fill="#f3f3f3"/><path d="M199.271875 132.428125c.19375-.871875.96875-1.35625 1.74375-1.259375l19.859375 3.971875c.775.19375 1.35625.96875 1.1625 1.840625-.19375.871875-.96875 1.35625-1.74375 1.259375l-19.859375-3.971875c-.775-.19375-1.259375-.96875-1.1625-1.840625h0zm22.571875 4.553125c.096875-.678125-.290625-1.35625-.96875-1.55l-19.859375-3.971875c-.678125-.096875-1.35625.290625-1.55 1.065625-.096875.678125.290625 1.35625.96875 1.55l19.859375 3.971875c.775.096875 1.35625-.3875 1.55-1.065625h0z" fill="#fff"/><path d="M208.0875 144.053125c.19375-.775.96875-1.259375 1.74375-1.065625l8.71875 2.421875c.775.19375 1.1625.96875.96875 1.74375-.19375.775-.96875 1.259375-1.74375 1.065625l-8.71875-2.421875c-.775-.19375-1.1625-.96875-.96875-1.74375h0z" fill="#f3f3f3"/><path d="M207.990625 144.053125c.19375-.775 1.065625-1.35625 1.840625-1.065625l8.71875 2.421875c.775.19375 1.259375 1.065625 1.065625 1.840625-.19375.775-1.065625 1.35625-1.840625 1.065625l-8.71875-2.421875c-.775-.19375-1.259375-.96875-1.065625-1.840625h0zM219.325 147.25c.19375-.678125-.19375-1.453125-.871875-1.646875l-8.71875-2.421875c-.678125-.19375-1.35625.19375-1.55.96875-.19375.678125.19375 1.453125.871875 1.646875l8.71875 2.421875c.678125.096875 1.35625-.290625 1.55-.96875h0z" fill="#fff"/><path d="M194.428125 148.703125c.290625-.775 1.1625-1.065625 1.840625-.775l18.696875 7.75c.678125.290625 1.065625 1.1625.775 1.840625-.290625.775-1.1625 1.065625-1.840625.775l-18.696875-7.75c-.775-.290625-1.065625-1.1625-.775-1.840625h0z" fill="#f3f3f3"/><path d="M194.33125 148.60625c.290625-.775 1.1625-1.1625 1.9375-.871875l18.696875 7.75c.775.290625 1.065625 1.1625.775 2.034375-.290625.775-1.1625 1.1625-1.9375.871875l-18.696875-7.75c-.775-.3875-1.065625-1.259375-.775-2.034375h0zm21.215625 8.815625c.290625-.678125 0-1.453125-.678125-1.74375l-18.696875-7.75c-.678125-.290625-1.35625.096875-1.646875.775-.290625.678125 0 1.453125.678125 1.74375l18.696875 7.75c.678125.19375 1.453125-.096875 1.646875-.775h0z" fill="#fff"/><path d="M200.725 161.78125c.3875-.678125 1.1625-.96875 1.840625-.678125l8.040625 4.06875c.678125.290625.96875 1.1625.58125 1.9375-.3875.678125-1.1625.96875-1.840625.678125l-8.040625-4.06875c-.678125-.3875-.96875-1.259375-.58125-1.9375h0z" fill="#f3f3f3"/><path d="M200.628125 161.684375c.3875-.775 1.259375-1.065625 2.034375-.678125l8.040625 4.06875c.775.3875 1.065625 1.259375.678125 2.034375-.3875.775-1.259375 1.065625-2.034375.678125l-8.040625-4.06875c-.775-.290625-1.065625-1.259375-.678125-2.034375h0zm10.4625 5.328125c.290625-.678125.096875-1.453125-.58125-1.74375L202.46875 161.2c-.58125-.290625-1.35625 0-1.74375.58125-.290625.678125-.096875 1.453125.58125 1.74375l8.040625 4.06875c.678125.290625 1.453125.096875 1.74375-.58125h0z" fill="#fff"/><path d="M186.484375 163.621875c.484375-.678125 1.259375-.871875 1.9375-.3875l16.85625 11.2375c.678125.3875.775 1.259375.3875 1.9375-.484375.678125-1.259375.871875-1.9375.3875l-16.85625-11.2375c-.678125-.484375-.871875-1.35625-.3875-1.9375h0z" fill="#f3f3f3"/><path d="M186.3875 163.525c.484375-.678125 1.453125-.871875 2.13125-.484375l16.85625 11.2375c.678125.484375.871875 1.35625.3875 2.13125-.484375.678125-1.453125.871875-2.13125.484375l-16.85625-11.2375c-.775-.484375-.871875-1.453125-.3875-2.13125h0zm19.084375 12.7875c.3875-.58125.290625-1.453125-.290625-1.840625l-16.85625-11.2375c-.58125-.3875-1.35625-.19375-1.74375.3875-.3875.58125-.290625 1.453125.290625 1.840625l16.85625 11.2375c.58125.3875 1.35625.19375 1.74375-.3875h0z" fill="#fff"/><path d="M190.06875 177.66875c.484375-.58125 1.35625-.775 1.9375-.290625L199.078125 182.9c.58125.484375.678125 1.35625.19375 1.9375-.484375.58125-1.35625.775-1.9375.290625l-7.071875-5.521875c-.58125-.484375-.678125-1.35625-.19375-1.9375h0z" fill="#f3f3f3"/><path d="M189.971875 177.571875c.484375-.678125 1.453125-.775 2.13125-.290625l7.071875 5.521875c.678125.484375.775 1.453125.290625 2.13125-.484375.678125-1.453125.775-2.13125.290625l-7.071875-5.521875c-.678125-.484375-.775-1.453125-.290625-2.13125h0zm9.3 7.265625c.484375-.58125.3875-1.35625-.19375-1.840625L192.00625 177.475c-.58125-.3875-1.35625-.290625-1.840625.290625-.484375.58125-.3875 1.35625.19375 1.840625l7.071875 5.521875c.58125.3875 1.35625.290625 1.840625-.290625h0z" fill="#fff"/><path d="M175.634375 176.7c.58125-.58125 1.453125-.58125 1.9375 0l14.3375 14.240625c.58125.58125.484375 1.453125 0 1.9375-.58125.58125-1.453125.58125-1.9375 0l-14.3375-14.240625c-.484375-.484375-.484375-1.453125 0-1.9375h0z" fill="#f3f3f3"/><path d="M175.634375 176.603125c.58125-.58125 1.55-.58125 2.13125 0l14.3375 14.240625c.58125.58125.58125 1.55 0 2.13125-.58125.58125-1.55.58125-2.13125 0l-14.3375-14.240625c-.678125-.58125-.678125-1.55 0-2.13125h0zm16.275 16.178125c.484375-.484375.484375-1.35625 0-1.840625L177.571875 176.7c-.484375-.484375-1.35625-.484375-1.840625 0-.484375.484375-.484375 1.35625 0 1.840625l14.3375 14.240625c.484375.58125 1.259375.58125 1.840625 0h0z" fill="#fff"/><path d="M176.50625 191.134375c.58125-.484375 1.453125-.484375 1.9375.096875l5.909375 6.78125c.484375.58125.3875 1.453125-.19375 1.9375-.58125.484375-1.453125.484375-1.9375-.096875l-5.909375-6.78125c-.484375-.484375-.3875-1.35625.19375-1.9375h0z" fill="#f3f3f3"/><path d="M176.409375 191.134375c.678125-.58125 1.55-.484375 2.13125.096875L184.45 198.0125c.58125.58125.484375 1.55-.19375 2.13125-.678125.58125-1.55.484375-2.13125-.096875l-5.909375-6.78125c-.484375-.678125-.484375-1.646875.19375-2.13125h0zm7.75 8.815625c.58125-.484375.58125-1.259375.19375-1.840625l-5.909375-6.78125c-.484375-.484375-1.259375-.58125-1.840625-.096875-.58125.484375-.58125 1.259375-.19375 1.840625l5.909375 6.78125c.484375.58125 1.259375.58125 1.840625.096875h0z" fill="#fff"/><path d="M162.55625 187.453125c.678125-.484375 1.55-.290625 1.9375.3875L175.73125 204.6c.3875.678125.19375 1.55-.3875 1.9375-.678125.484375-1.55.290625-1.9375-.3875l-11.2375-16.759375c-.3875-.678125-.19375-1.55.3875-1.9375h0z" fill="#f3f3f3"/><path d="M162.55625 187.35625c.678125-.484375 1.646875-.290625 2.13125.3875l11.2375 16.759375c.484375.678125.290625 1.646875-.484375 2.13125-.678125.484375-1.646875.290625-2.13125-.3875l-11.2375-16.759375c-.484375-.775-.290625-1.646875.484375-2.13125h0zm12.7875 19.084375c.58125-.3875.775-1.1625.3875-1.74375l-11.2375-16.759375c-.3875-.58125-1.1625-.678125-1.840625-.290625-.58125.3875-.775 1.1625-.3875 1.74375l11.2375 16.759375c.3875.484375 1.259375.678125 1.840625.290625h0z" fill="#fff"/><path d="M160.521875 201.790625c.678125-.3875 1.55-.19375 1.9375.484375l4.45625 7.846875c.3875.678125.096875 1.55-.58125 1.9375-.678125.3875-1.55.19375-1.9375-.484375l-4.45625-7.846875c-.290625-.678125-.096875-1.55.58125-1.9375h0z" fill="#f3f3f3"/><path d="M160.521875 201.69375c.775-.3875 1.646875-.19375 2.034375.484375l4.45625 7.846875c.3875.678125.19375 1.646875-.58125 2.034375-.775.3875-1.646875.19375-2.034375-.484375l-4.45625-7.846875c-.3875-.678125-.19375-1.55.58125-2.034375h0zm5.8125 10.26875c.58125-.3875.871875-1.1625.484375-1.74375l-4.45625-7.846875c-.3875-.58125-1.1625-.775-1.74375-.484375-.58125.3875-.871875 1.1625-.484375 1.74375l4.45625 7.846875c.290625.58125 1.1625.871875 1.74375.484375h0z" fill="#fff"/><path d="M147.6375 195.396875c.775-.290625 1.55 0 1.840625.678125l7.846875 18.696875c.290625.678125-.096875 1.55-.775 1.840625-.678125.290625-1.55 0-1.840625-.678125L146.8625 197.2375c-.290625-.678125.096875-1.55.775-1.840625h0z" fill="#f3f3f3"/><path d="M147.6375 195.3c.775-.290625 1.646875 0 2.034375.775l7.846875 18.696875c.290625.775-.096875 1.646875-.871875 1.9375-.775.290625-1.646875 0-2.034375-.775l-7.846875-18.696875c-.290625-.678125.096875-1.55.871875-1.9375h0zm8.815625 21.215625c.678125-.290625.96875-1.065625.678125-1.646875l-7.846875-18.696875c-.290625-.678125-1.065625-.96875-1.74375-.678125-.678125.290625-.96875 1.065625-.678125 1.646875l7.846875 18.696875c.3875.678125 1.065625.96875 1.74375.678125h0z" fill="#fff"/><path d="M142.890625 209.153125c.775-.290625 1.55.096875 1.840625.871875l2.809375 8.525c.290625.678125-.19375 1.55-.871875 1.74375-.775.290625-1.55-.096875-1.840625-.871875l-2.809375-8.525c-.290625-.678125.096875-1.453125.871875-1.74375h0z" fill="#f3f3f3"/><path d="M142.79375 209.05625c.775-.290625 1.646875.096875 1.9375.871875l2.809375 8.525c.290625.775-.19375 1.646875-.96875 1.9375-.775.290625-1.646875-.096875-1.9375-.871875l-2.809375-8.525c-.19375-.775.19375-1.646875.96875-1.9375h0zm3.778125 11.140625c.678125-.19375 1.065625-.96875.871875-1.646875l-2.809375-8.525c-.19375-.678125-.96875-.96875-1.646875-.775-.678125.19375-1.065625.96875-.871875 1.646875l2.809375 8.525c.19375.678125.96875 1.065625 1.646875.775h0z" fill="#fff"/><path d="M131.459375 200.3375c.775-.19375 1.55.290625 1.646875 1.065625L137.175 221.2625c.19375.775-.3875 1.453125-1.1625 1.646875-.775.19375-1.55-.290625-1.646875-1.065625l-4.06875-19.859375c-.096875-.678125.3875-1.453125 1.1625-1.646875h0z" fill="#f3f3f3"/><path d="M131.459375 200.240625c.871875-.19375 1.646875.3875 1.840625 1.1625l4.06875 19.859375c.19375.775-.3875 1.646875-1.1625 1.74375-.871875.19375-1.646875-.3875-1.840625-1.1625l-4.06875-19.859375c-.19375-.775.290625-1.55 1.1625-1.74375h0zM136.0125 222.8125c.678125-.096875 1.1625-.775 1.065625-1.55l-4.06875-19.859375c-.096875-.678125-.871875-1.1625-1.55-.96875-.678125.096875-1.1625.775-1.065625 1.55l4.06875 19.859375c.19375.678125.871875 1.065625 1.55.96875h0z" fill="#fff"/><path d="M124.096875 212.93125c.775-.096875 1.453125.3875 1.646875 1.1625l1.1625 8.9125c.096875.775-.484375 1.453125-1.259375 1.55-.775.096875-1.453125-.3875-1.646875-1.1625l-1.1625-8.9125c-.096875-.775.484375-1.453125 1.259375-1.55h0z" fill="#f3f3f3"/><path d="M124.096875 212.834375c.871875-.096875 1.646875.484375 1.74375 1.259375l1.1625 8.9125c.096875.775-.484375 1.55-1.35625 1.646875-.871875.096875-1.646875-.484375-1.74375-1.259375l-1.1625-8.9125c-.096875-.775.484375-1.55 1.35625-1.646875h0zm1.453125 11.625c.678125-.096875 1.259375-.775 1.1625-1.453125l-1.1625-8.9125c-.096875-.678125-.775-1.1625-1.453125-1.065625-.678125.096875-1.259375.775-1.1625 1.453125l1.1625 8.9125c.096875.678125.775 1.1625 1.453125 1.065625h0z" fill="#fff"/><path d="M114.11875 202.08125c.775 0 1.453125.58125 1.453125 1.35625v20.246875c0 .775-.678125 1.35625-1.453125 1.35625-.775 0-1.453125-.58125-1.453125-1.35625V203.4375c.096875-.775.678125-1.35625 1.453125-1.35625h0z" fill="#f3f3f3"/><path d="M114.11875 201.984375c.871875 0 1.55.678125 1.55 1.453125v20.246875c0 .775-.678125 1.453125-1.55 1.453125-.871875 0-1.55-.678125-1.55-1.453125V203.4375c0-.775.775-1.453125 1.55-1.453125h0zm0 22.959375c.678125 0 1.35625-.58125 1.35625-1.259375V203.4375c0-.678125-.58125-1.259375-1.35625-1.259375-.678125 0-1.35625.58125-1.35625 1.259375v20.246875c.096875.678125.678125 1.259375 1.35625 1.259375h0z" fill="#fff"/><path d="M104.43125 212.93125c.775.096875 1.35625.678125 1.35625 1.453125l-.678125 9.009375c-.096875.775-.775 1.35625-1.55 1.259375-.775-.096875-1.35625-.678125-1.35625-1.453125l.678125-9.009375c.096875-.775.775-1.35625 1.55-1.259375h0z" fill="#f3f3f3"/><path d="M104.43125 212.834375c.871875.096875 1.453125.775 1.453125 1.55l-.678125 9.009375c-.096875.775-.775 1.453125-1.646875 1.35625-.871875-.096875-1.453125-.775-1.453125-1.55l.678125-9.009375c.096875-.871875.775-1.453125 1.646875-1.35625h0zm-.871875 11.721875c.678125 0 1.35625-.484375 1.35625-1.1625l.678125-9.009375c0-.678125-.484375-1.259375-1.259375-1.35625-.678125 0-1.35625.484375-1.35625 1.1625L102.3 223.2c0 .678125.58125 1.259375 1.259375 1.35625h0z" fill="#fff"/><path d="M97.165625 200.3375c.775.19375 1.259375.871875 1.1625 1.646875L94.35625 221.84375c-.19375.775-.871875 1.259375-1.646875 1.065625-.775-.19375-1.259375-.871875-1.1625-1.646875l3.971875-19.859375c.096875-.678125.871875-1.1625 1.646875-1.065625h0z" fill="#f3f3f3"/><path d="M97.165625 200.240625c.871875.19375 1.35625.96875 1.259375 1.74375l-3.971875 19.859375c-.19375.775-.96875 1.35625-1.840625 1.1625-.871875-.19375-1.35625-.96875-1.259375-1.74375L95.325 201.403125c.19375-.775.96875-1.259375 1.840625-1.1625h0zM92.6125 222.8125c.678125.096875 1.35625-.290625 1.55-.96875l3.971875-19.859375c.096875-.678125-.290625-1.35625-1.065625-1.55-.678125-.096875-1.35625.290625-1.55.96875L91.546875 221.2625c-.096875.775.3875 1.35625 1.065625 1.55h0z" fill="#fff"/><path d="M85.540625 209.05625c.775.19375 1.259375.96875 1.065625 1.74375l-2.421875 8.71875c-.19375.775-.96875 1.1625-1.74375.96875-.775-.19375-1.259375-.96875-1.065625-1.74375l2.421875-8.71875c.19375-.775.96875-1.1625 1.74375-.96875h0z" fill="#f3f3f3"/><path d="M85.540625 208.959375c.775.19375 1.35625 1.065625 1.065625 1.840625l-2.421875 8.71875c-.19375.775-1.065625 1.259375-1.840625 1.065625-.775-.19375-1.35625-1.065625-1.065625-1.840625L83.7 210.025c.19375-.775.96875-1.259375 1.840625-1.065625h0zM82.34375 220.29375c.678125.19375 1.453125-.19375 1.646875-.871875l2.421875-8.71875c.19375-.678125-.19375-1.35625-.96875-1.55-.678125-.19375-1.453125.19375-1.646875.871875L81.375 218.74375c-.096875.678125.290625 1.35625.96875 1.55h0z" fill="#fff"/><path d="M80.79375 195.396875c.775.290625 1.065625 1.1625.775 1.840625l-7.75 18.696875c-.290625.678125-1.1625 1.065625-1.840625.678125-.678125-.3875-1.065625-1.1625-.775-1.840625l7.75-18.696875c.290625-.678125 1.1625-1.065625 1.840625-.678125h0z" fill="#f3f3f3"/><path d="M80.79375 195.3c.775.290625 1.1625 1.1625.871875 1.9375l-7.75 18.696875c-.290625.775-1.1625 1.065625-2.034375.775-.775-.290625-1.1625-1.1625-.871875-1.9375l7.75-18.696875c.3875-.775 1.259375-1.1625 2.034375-.775h0zm-8.815625 21.215625c.678125.290625 1.453125 0 1.74375-.678125l7.75-18.696875c.290625-.678125-.096875-1.35625-.775-1.646875-.678125-.290625-1.453125 0-1.74375.678125l-7.75 18.696875c-.19375.58125.096875 1.35625.775 1.646875h0z" fill="#fff"/><path d="M67.715625 201.596875c.678125.3875.96875 1.1625.678125 1.840625l-4.06875 8.040625c-.3875.678125-1.1625.96875-1.9375.58125-.678125-.3875-.96875-1.1625-.678125-1.840625l4.06875-8.040625c.3875-.678125 1.1625-.96875 1.9375-.58125h0z" fill="#f3f3f3"/><path d="M67.715625 201.5c.775.3875 1.065625 1.259375.678125 2.034375L64.325 211.575c-.3875.775-1.259375 1.065625-2.034375.678125-.775-.3875-1.065625-1.259375-.678125-2.034375l4.06875-8.040625c.3875-.775 1.259375-1.065625 2.034375-.678125h0zM62.3875 212.059375c.678125.290625 1.453125.096875 1.74375-.58125L68.2 203.4375c.290625-.58125 0-1.35625-.58125-1.74375-.678125-.290625-1.453125-.096875-1.74375.58125l-4.06875 8.040625c-.290625.58125 0 1.35625.58125 1.74375h0z" fill="#fff"/><path d="M65.778125 187.259375c.678125.484375.871875 1.35625.3875 1.9375l-11.2375 16.759375c-.3875.678125-1.259375.775-1.9375.3875-.678125-.484375-.871875-1.35625-.3875-1.9375l11.2375-16.759375c.3875-.678125 1.259375-.871875 1.9375-.3875h0z" fill="#f3f3f3"/><path d="M65.778125 187.1625c.678125.484375.871875 1.453125.484375 2.13125L55.025 206.053125c-.484375.678125-1.35625.871875-2.13125.3875-.678125-.484375-.871875-1.453125-.484375-2.13125L63.646875 187.55c.484375-.678125 1.453125-.871875 2.13125-.3875h0zm-12.7875 19.084375c.58125.3875 1.453125.290625 1.840625-.290625l11.2375-16.759375c.3875-.58125.19375-1.35625-.3875-1.74375-.58125-.3875-1.453125-.290625-1.840625.290625l-11.2375 16.6625c-.3875.58125-.19375 1.453125.3875 1.840625h0z" fill="#fff"/><path d="M51.634375 190.84375c.58125.484375.775 1.35625.290625 1.9375l-5.61875 7.071875c-.484375.58125-1.35625.678125-1.9375.19375-.58125-.484375-.775-1.35625-.290625-1.9375l5.61875-7.071875c.484375-.58125 1.35625-.678125 1.9375-.19375h0z" fill="#f3f3f3"/><path d="M51.73125 190.746875c.678125.484375.775 1.453125.290625 2.13125L46.403125 199.95c-.484375.678125-1.453125.775-2.13125.19375-.678125-.484375-.775-1.453125-.290625-2.13125L49.6 190.940625c.484375-.678125 1.453125-.775 2.13125-.19375h0zM44.465625 199.95c.58125.484375 1.35625.3875 1.840625-.19375l5.61875-7.071875c.3875-.58125.290625-1.35625-.290625-1.840625-.58125-.484375-1.35625-.3875-1.840625.19375l-5.61875 7.071875c-.3875.58125-.290625 1.453125.290625 1.840625h0z" fill="#fff"/><path d="M52.603125 176.3125c.58125.58125.58125 1.453125 0 1.9375l-14.3375 14.240625c-.58125.58125-1.453125.484375-1.9375 0-.484375-.484375-.58125-1.453125 0-1.9375L50.56875 176.3125c.58125-.58125 1.453125-.58125 2.034375 0h0z" fill="#f3f3f3"/><path d="M52.7 176.215625c.58125.58125.58125 1.55 0 2.13125L38.3625 192.5875c-.58125.58125-1.55.58125-2.13125 0-.58125-.58125-.58125-1.55 0-2.13125l14.3375-14.240625c.58125-.58125 1.55-.58125 2.13125 0h0zm-16.371875 16.275c.484375.484375 1.35625.484375 1.840625 0L52.50625 178.25c.484375-.484375.484375-1.35625 0-1.840625-.484375-.484375-1.35625-.484375-1.840625 0L36.328125 190.65c-.484375.484375-.484375 1.259375 0 1.840625h0z" fill="#fff"/><path d="M38.071875 177.0875c.484375.58125.484375 1.453125-.096875 1.9375l-6.878125 5.8125c-.58125.484375-1.453125.3875-1.9375-.19375-.484375-.58125-.484375-1.453125.096875-1.9375l6.878125-5.8125c.58125-.484375 1.453125-.3875 1.9375.19375h0z" fill="#f3f3f3"/><path d="M38.16875 176.990625c.58125.678125.484375 1.646875-.096875 2.13125l-6.878125 5.8125c-.58125.58125-1.55.484375-2.13125-.19375-.58125-.678125-.484375-1.646875.096875-2.13125l6.878125-5.8125c.58125-.58125 1.55-.484375 2.13125.19375h0zm-8.9125 7.653125c.484375.58125 1.259375.58125 1.840625.19375L37.975 179.025c.484375-.484375.58125-1.259375.096875-1.840625-.484375-.58125-1.259375-.58125-1.840625-.19375l-6.878125 5.8125c-.58125.484375-.58125 1.259375-.096875 1.840625h0z" fill="#fff"/><path d="M41.946875 163.1375c.484375.678125.290625 1.55-.3875 1.9375l-16.85625 11.2375c-.678125.3875-1.55.19375-1.9375-.3875-.484375-.678125-.290625-1.55.3875-1.9375l16.85625-11.2375c.58125-.3875 1.453125-.19375 1.9375.3875h0z" fill="#f3f3f3"/><path d="M42.04375 163.1375c.484375.678125.290625 1.646875-.3875 2.13125L24.8 176.50625c-.678125.484375-1.646875.290625-2.13125-.484375-.484375-.678125-.290625-1.646875.3875-2.13125l16.85625-11.2375c.678125-.484375 1.646875-.290625 2.13125.484375h0zM22.8625 175.828125c.3875.58125 1.1625.775 1.74375.3875l16.85625-11.2375c.58125-.3875.775-1.1625.290625-1.840625-.3875-.58125-1.1625-.775-1.74375-.3875l-16.85625 11.2375c-.58125.484375-.678125 1.259375-.290625 1.840625h0z" fill="#fff"/><path d="M27.5125 161.103125c.3875.678125.19375 1.55-.484375 1.9375l-7.846875 4.45625c-.678125.3875-1.55.096875-1.9375-.58125-.3875-.678125-.19375-1.55.484375-1.9375l7.846875-4.45625c.678125-.3875 1.55-.096875 1.9375.58125h0z" fill="#f3f3f3"/><path d="M27.609375 161.00625c.3875.775.19375 1.646875-.484375 2.034375l-7.846875 4.45625c-.678125.3875-1.646875.096875-2.034375-.58125-.3875-.775-.19375-1.646875.484375-2.034375L25.575 160.425c.678125-.3875 1.646875-.096875 2.034375.58125h0zm-10.26875 5.8125c.3875.678125 1.1625.871875 1.74375.484375l7.846875-4.45625c.58125-.3875.775-1.1625.484375-1.74375-.3875-.678125-1.1625-.871875-1.74375-.484375L17.825 165.075c-.58125.290625-.775 1.065625-.484375 1.74375h0z" fill="#fff"/><path d="M34.003125 148.21875c.290625.775 0 1.55-.775 1.840625l-18.696875 7.75c-.678125.290625-1.55-.096875-1.840625-.775-.290625-.775 0-1.55.775-1.840625l18.696875-7.75c.678125-.290625 1.55 0 1.840625.775h0z" fill="#f3f3f3"/><path d="M34.1 148.121875c.290625.775 0 1.646875-.775 2.034375l-18.696875 7.75c-.775.290625-1.646875-.096875-1.9375-.871875-.290625-.775 0-1.646875.775-2.034375l18.696875-7.75c.775-.290625 1.646875.096875 1.9375.871875h0zM12.884375 156.9375c.290625.678125 1.065625.96875 1.646875.775l18.696875-7.75c.678125-.290625.96875-1.065625.678125-1.74375-.290625-.678125-1.065625-.96875-1.646875-.775l-18.696875 7.75c-.678125.290625-.96875 1.065625-.678125 1.74375h0z" fill="#fff"/><path d="M20.34375 143.375c.290625.775-.096875 1.55-.871875 1.840625l-8.525 2.809375c-.678125.290625-1.55-.19375-1.74375-.871875-.290625-.775.096875-1.55.871875-1.840625l8.525-2.809375c.678125-.290625 1.453125.096875 1.74375.871875h0z" fill="#f3f3f3"/><path d="M20.440625 143.278125c.290625.775-.096875 1.646875-.96875 1.9375l-8.525 2.809375c-.775.290625-1.646875-.19375-1.9375-.96875-.290625-.775.096875-1.646875.96875-1.9375l8.525-2.809375c.775-.19375 1.646875.19375 1.9375.96875h0zm-11.2375 3.68125c.19375.678125.96875 1.065625 1.646875.871875l8.525-2.809375c.678125-.19375.96875-.96875.775-1.646875-.19375-.678125-.96875-1.065625-1.646875-.871875l-8.525 2.809375c-.678125.290625-.96875.96875-.775 1.646875h0z" fill="#fff"/><path d="M29.0625 131.846875c.19375.775-.290625 1.55-1.065625 1.646875l-19.859375 3.875c-.775.19375-1.453125-.3875-1.646875-1.1625-.19375-.775.290625-1.55 1.065625-1.646875l19.859375-3.875c.775-.096875 1.55.3875 1.646875 1.1625h0z" fill="#f3f3f3"/><path d="M29.25625 131.846875c.19375.871875-.3875 1.646875-1.1625 1.840625l-19.859375 3.875c-.775.19375-1.55-.3875-1.74375-1.259375-.19375-.871875.3875-1.646875 1.1625-1.840625l19.859375-3.875c.775-.19375 1.55.3875 1.74375 1.259375h0zM6.684375 136.20625c.096875.678125.775 1.1625 1.453125 1.065625l19.859375-3.875c.678125-.096875 1.1625-.871875.96875-1.55-.096875-.678125-.775-1.1625-1.453125-1.065625l-19.859375 3.875c-.678125.19375-1.1625.871875-.96875 1.55h0z" fill="#fff"/><path d="M16.6625 124.3875c.096875.775-.3875 1.453125-1.1625 1.55l-8.9125 1.065625c-.775.096875-1.453125-.484375-1.55-1.259375-.096875-.775.3875-1.453125 1.1625-1.55l8.9125-1.065625c.678125-.096875 1.453125.484375 1.55 1.259375h0z" fill="#f3f3f3"/><path d="M16.759375 124.3875c.096875.871875-.484375 1.646875-1.259375 1.74375l-8.9125 1.065625c-.775.096875-1.55-.484375-1.646875-1.35625-.096875-.871875.484375-1.646875 1.259375-1.74375l8.9125-1.065625c.775-.096875 1.55.484375 1.646875 1.35625h0zM5.0375 125.74375c.096875.678125.775 1.259375 1.453125 1.1625l8.9125-1.065625c.678125-.096875 1.1625-.775 1.065625-1.453125-.096875-.678125-.775-1.259375-1.453125-1.1625l-8.9125 1.065625c-.678125.096875-1.1625.775-1.065625 1.453125h0z" fill="#fff"/><path d="M27.5125 114.990625c0 .775-.58125 1.453125-1.35625 1.453125H5.909375c-.775 0-1.35625-.678125-1.35625-1.453125 0-.775.58125-1.453125 1.35625-1.453125H26.15625c.775 0 1.35625.678125 1.35625 1.453125h0z" fill="#f3f3f3"/><path d="M27.609375 114.990625c0 .871875-.678125 1.55-1.453125 1.55H5.909375c-.775 0-1.453125-.678125-1.453125-1.55 0-.871875.678125-1.55 1.453125-1.55H26.15625c.775 0 1.453125.678125 1.453125 1.55h0zM4.65 114.89375c0 .678125.58125 1.35625 1.259375 1.35625H26.15625c.678125 0 1.259375-.58125 1.259375-1.35625 0-.678125-.58125-1.35625-1.259375-1.35625H5.909375c-.678125.096875-1.259375.678125-1.259375 1.35625h0z" fill="#fff"/><path d="M16.759375 105.20625c-.096875.775-.678125 1.35625-1.453125 1.35625l-9.009375-.678125c-.775-.096875-1.35625-.775-1.259375-1.55.096875-.775.678125-1.35625 1.453125-1.35625L15.5 103.65625c.678125.096875 1.259375.775 1.259375 1.55h0z" fill="#e2e2e2"/><path d="M16.85625 105.20625c-.096875.871875-.775 1.453125-1.55 1.453125l-9.009375-.678125c-.775-.096875-1.453125-.775-1.35625-1.646875.096875-.871875.775-1.453125 1.55-1.453125l9.009375.678125c.775.096875 1.35625.871875 1.35625 1.646875h0zm-11.81875-.871875c-.096875.678125.484375 1.35625 1.1625 1.35625l9.009375.678125c.678125 0 1.259375-.484375 1.35625-1.259375.096875-.678125-.484375-1.35625-1.1625-1.35625L6.39375 103.075c-.678125 0-1.259375.58125-1.35625 1.259375h0z" fill="#fff"/><path d="M29.25625 98.134375c-.19375.775-.871875 1.259375-1.646875 1.1625L7.75 95.228125c-.775-.19375-1.259375-.871875-1.065625-1.646875.19375-.775.871875-1.259375 1.646875-1.1625l19.859375 3.971875c.678125.19375 1.1625.96875 1.065625 1.74375h0z" fill="#f3f3f3"/><path d="M29.353125 98.134375c-.19375.871875-.96875 1.35625-1.74375 1.259375L7.75 95.421875c-.775-.19375-1.35625-.96875-1.1625-1.840625.19375-.871875.96875-1.35625 1.74375-1.259375l19.859375 3.971875c.775.19375 1.259375.96875 1.1625 1.840625h0zM6.78125 93.58125c-.096875.678125.290625 1.35625.96875 1.55l19.859375 3.971875c.678125.096875 1.35625-.290625 1.55-1.065625.096875-.678125-.290625-1.35625-.96875-1.55L8.33125 92.515625c-.775-.096875-1.35625.3875-1.55 1.065625h0z" fill="#fff"/><path d="M20.5375 86.509375c-.19375.775-.96875 1.259375-1.74375 1.065625L10.075 85.153125c-.775-.19375-1.1625-.96875-.96875-1.74375C9.3 82.634375 10.075 82.15 10.85 82.34375l8.71875 2.421875c.775.19375 1.1625.96875.96875 1.74375h0z" fill="#f3f3f3"/><path d="M20.634375 86.509375c-.19375.775-1.065625 1.35625-1.840625 1.065625L10.075 85.153125C9.3 84.959375 8.815625 84.0875 9.009375 83.3125c.19375-.775 1.065625-1.35625 1.840625-1.065625l8.71875 2.421875c.775.19375 1.259375.96875 1.065625 1.840625h0zM9.3 83.3125c-.19375.678125.19375 1.453125.871875 1.646875l8.71875 2.421875c.678125.19375 1.35625-.19375 1.55-.96875.19375-.678125-.19375-1.453125-.871875-1.646875L10.85 82.34375c-.678125-.096875-1.35625.290625-1.55.96875h0z" fill="#fff"/><path d="M34.196875 81.859375c-.290625.775-1.1625 1.065625-1.840625.775l-18.696875-7.75c-.678125-.290625-1.065625-1.1625-.775-1.840625.290625-.775 1.1625-1.065625 1.840625-.775l18.696875 7.75c.775.290625 1.065625 1.1625.775 1.840625h0z" fill="#f3f3f3"/><path d="M34.29375 81.95625c-.290625.775-1.1625 1.1625-1.9375.871875l-18.696875-7.75c-.775-.290625-1.065625-1.1625-.775-2.034375.290625-.775 1.1625-1.1625 1.9375-.871875l18.696875 7.75c.775.3875 1.065625 1.259375.775 2.034375h0zm-21.215625-8.815625c-.290625.678125 0 1.453125.678125 1.74375l18.696875 7.75c.678125.290625 1.35625-.096875 1.646875-.775.290625-.678125 0-1.453125-.678125-1.74375l-18.696875-7.75c-.678125-.19375-1.453125.096875-1.646875.775h0z" fill="#fff"/><path d="M27.9 68.78125c-.3875.678125-1.1625.96875-1.840625.678125l-8.040625-4.06875c-.678125-.290625-.96875-1.1625-.58125-1.9375.3875-.678125 1.1625-.96875 1.840625-.678125l8.040625 4.06875c.678125.3875.96875 1.259375.58125 1.9375h0z" fill="#f3f3f3"/><path d="M27.996875 68.878125c-.3875.775-1.259375 1.065625-2.034375.678125l-8.040625-4.06875c-.775-.3875-1.065625-1.259375-.678125-2.034375.3875-.775 1.259375-1.065625 2.034375-.678125l8.040625 4.06875c.775.290625 1.065625 1.259375.678125 2.034375h0zM17.534375 63.55c-.290625.678125-.096875 1.453125.58125 1.74375l8.040625 4.06875c.58125.290625 1.35625 0 1.74375-.58125.290625-.678125.096875-1.453125-.58125-1.74375l-8.1375-4.06875c-.58125-.290625-1.35625-.096875-1.646875.58125h0z" fill="#fff"/><path d="M42.140625 66.940625c-.484375.678125-1.259375.871875-1.9375.3875L23.44375 56.1875c-.678125-.3875-.775-1.259375-.3875-1.9375.3875-.678125 1.259375-.871875 1.9375-.3875L41.85 65.1c.58125.3875.775 1.259375.290625 1.840625h0z" fill="#f3f3f3"/><path d="M42.2375 67.0375c-.484375.678125-1.453125.871875-2.13125.484375l-16.759375-11.2375c-.678125-.484375-.871875-1.35625-.3875-2.13125.484375-.678125 1.453125-.871875 2.13125-.484375L41.85 64.90625c.775.484375.871875 1.453125.3875 2.13125h0zM23.153125 54.25c-.3875.58125-.290625 1.453125.290625 1.840625L40.3 67.328125c.58125.3875 1.35625.19375 1.74375-.3875.3875-.58125.290625-1.453125-.290625-1.840625l-16.85625-11.2375c-.58125-.3875-1.35625-.19375-1.74375.3875h0z" fill="#fff"/><path d="M38.55625 52.89375c-.484375.58125-1.35625.775-1.9375.290625L29.546875 47.6625c-.58125-.484375-.678125-1.35625-.19375-1.9375.484375-.58125 1.35625-.775 1.9375-.290625L38.3625 50.95625c.58125.484375.678125 1.35625.19375 1.9375h0z" fill="#f3f3f3"/><path d="M38.653125 52.990625c-.484375.678125-1.453125.775-2.13125.290625L29.45 47.759375c-.678125-.484375-.775-1.453125-.290625-2.13125.484375-.678125 1.453125-.775 2.13125-.290625l7.071875 5.521875c.678125.484375.775 1.453125.290625 2.13125h0zm-9.3-7.265625c-.484375.58125-.3875 1.35625.19375 1.840625L36.61875 53.0875c.58125.3875 1.35625.290625 1.840625-.290625.484375-.58125.3875-1.35625-.19375-1.840625l-7.071875-5.521875c-.58125-.3875-1.35625-.290625-1.840625.290625h0z" fill="#fff"/><path d="M52.990625 53.8625c-.58125.58125-1.453125.58125-1.9375 0L36.61875 39.621875c-.58125-.58125-.484375-1.453125 0-1.9375.58125-.58125 1.453125-.58125 1.9375 0L52.89375 51.925c.58125.484375.58125 1.453125.096875 1.9375h0z" fill="#f3f3f3"/><path d="M52.990625 53.959375c-.58125.58125-1.55.58125-2.13125 0l-14.3375-14.240625c-.58125-.58125-.58125-1.55 0-2.13125.58125-.58125 1.55-.58125 2.13125 0l14.3375 14.240625c.678125.58125.678125 1.55 0 2.13125h0zm-16.275-16.178125c-.484375.484375-.484375 1.35625 0 1.840625l14.3375 14.240625c.484375.484375 1.35625.484375 1.840625 0 .484375-.484375.484375-1.35625 0-1.840625l-14.3375-14.3375C38.071875 37.2 37.296875 37.2 36.715625 37.78125h0z" fill="#fff"/><path d="M52.11875 39.428125c-.58125.484375-1.453125.484375-1.9375-.096875L44.271875 32.55c-.484375-.58125-.3875-1.453125.19375-1.9375.58125-.484375 1.453125-.484375 1.9375.096875l5.909375 6.78125c.484375.484375.3875 1.35625-.19375 1.9375h0z" fill="#f3f3f3"/><path d="M52.215625 39.428125c-.678125.58125-1.55.484375-2.13125-.096875L44.175 32.55c-.58125-.58125-.484375-1.55.19375-2.13125.678125-.58125 1.55-.484375 2.13125.096875l5.909375 6.78125c.484375.678125.484375 1.646875-.19375 2.13125h0zm-7.75-8.815625c-.58125.484375-.58125 1.259375-.19375 1.840625l5.909375 6.78125c.484375.484375 1.259375.58125 1.840625.096875.58125-.484375.58125-1.259375.19375-1.840625l-5.909375-6.78125c-.484375-.58125-1.259375-.58125-1.840625-.096875h0z" fill="#fff"/><path d="M66.06875 43.109375c-.678125.484375-1.55.290625-1.9375-.3875L52.796875 25.9625c-.3875-.678125-.19375-1.55.3875-1.9375.678125-.484375 1.55-.290625 1.9375.3875l11.2375 16.759375c.484375.678125.290625 1.55-.290625 1.9375h0z" fill="#f3f3f3"/><path d="M66.06875 43.20625c-.678125.484375-1.646875.290625-2.13125-.3875L52.7 26.059375c-.484375-.678125-.290625-1.646875.484375-2.13125.678125-.484375 1.646875-.290625 2.13125.3875L66.553125 41.075c.484375.775.290625 1.646875-.484375 2.13125h0zm-12.7875-19.084375c-.58125.3875-.775 1.1625-.3875 1.74375L64.13125 42.625c.3875.58125 1.1625.678125 1.840625.290625.58125-.3875.775-1.1625.3875-1.74375l-11.2375-16.6625c-.3875-.58125-1.259375-.775-1.840625-.3875h0z" fill="#fff"/><path d="M68.103125 28.771875c-.678125.3875-1.55.19375-1.9375-.484375l-4.45625-7.846875c-.3875-.678125-.096875-1.55.58125-1.9375.678125-.3875 1.55-.19375 1.9375.484375l4.45625 7.846875c.290625.678125.096875 1.55-.58125 1.9375h0z" fill="#f3f3f3"/><path d="M68.103125 28.86875c-.775.3875-1.646875.19375-2.034375-.484375L61.6125 20.5375c-.3875-.678125-.19375-1.646875.58125-2.034375.775-.3875 1.646875-.19375 2.034375.484375l4.45625 7.846875c.3875.678125.19375 1.55-.58125 2.034375h0zM62.290625 18.6c-.58125.3875-.871875 1.1625-.484375 1.74375l4.45625 7.846875c.3875.58125 1.1625.775 1.74375.484375.58125-.3875.871875-1.1625.484375-1.74375l-4.45625-7.846875c-.290625-.58125-1.1625-.871875-1.74375-.484375h0z" fill="#fff"/><path d="M80.9875 35.165625c-.775.290625-1.55 0-1.840625-.678125L71.3 15.790625c-.290625-.678125.096875-1.55.775-1.840625.775-.290625 1.55 0 1.840625.678125L81.7625 33.325c.290625.678125-.096875 1.55-.775 1.840625h0z" fill="#f3f3f3"/><path d="M80.9875 35.2625c-.775.290625-1.646875 0-2.034375-.775L71.10625 15.790625c-.290625-.775.096875-1.646875.871875-1.9375.775-.290625 1.646875 0 2.034375.775L81.859375 33.325c.290625.678125-.096875 1.55-.871875 1.9375h0zm-8.815625-21.215625c-.678125.290625-.96875 1.065625-.678125 1.646875l7.846875 18.696875c.290625.678125 1.065625.96875 1.74375.678125.678125-.290625.96875-1.065625.678125-1.646875L73.915625 14.725c-.3875-.678125-1.065625-.96875-1.74375-.678125h0z" fill="#fff"/><path d="M85.734375 21.409375c-.775.290625-1.55-.096875-1.840625-.871875l-2.809375-8.525c-.290625-.678125.19375-1.55.871875-1.74375.678125-.19375 1.55.096875 1.840625.871875l2.809375 8.525c.290625.678125-.096875 1.453125-.871875 1.74375h0z" fill="#f3f3f3"/><path d="M85.83125 21.50625c-.775.290625-1.646875-.096875-1.9375-.871875l-2.809375-8.525c-.290625-.775.19375-1.646875.96875-1.9375.775-.290625 1.646875.096875 1.9375.871875L86.8 19.56875c.19375.775-.19375 1.646875-.96875 1.9375h0zm-3.778125-11.140625c-.678125.19375-1.065625.96875-.871875 1.646875l2.809375 8.525c.19375.678125.96875.96875 1.646875.775.678125-.19375 1.065625-.96875.871875-1.646875L83.7 11.140625c-.19375-.678125-.96875-1.065625-1.646875-.775h0z" fill="#fff"/><path d="M97.165625 30.225c-.775.19375-1.55-.290625-1.646875-1.065625L91.45 9.3c-.19375-.775.3875-1.453125 1.1625-1.646875.775-.19375 1.55.290625 1.646875 1.065625l4.06875 19.859375c.096875.678125-.3875 1.453125-1.1625 1.646875h0z" fill="#f3f3f3"/><path d="M97.165625 30.321875c-.871875.19375-1.646875-.3875-1.840625-1.1625L91.25625 9.3c-.19375-.775.3875-1.646875 1.1625-1.74375.871875-.19375 1.646875.3875 1.840625 1.1625l4.06875 19.859375c.19375.775-.290625 1.55-1.1625 1.74375h0zM92.6125 7.75c-.678125.096875-1.1625.775-1.065625 1.55l4.06875 19.859375c.096875.678125.871875 1.1625 1.55.96875.678125-.096875 1.1625-.775 1.065625-1.55L94.1625 8.71875c-.19375-.678125-.871875-1.065625-1.55-.96875h0z" fill="#fff"/><path d="M104.528125 17.63125c-.775.096875-1.453125-.3875-1.646875-1.1625l-1.1625-8.9125c-.096875-.775.484375-1.453125 1.259375-1.55.775-.096875 1.453125.3875 1.646875 1.1625l1.1625 8.9125c.096875.775-.484375 1.453125-1.259375 1.55h0z" fill="#f3f3f3"/><path d="M104.528125 17.728125c-.871875.096875-1.646875-.484375-1.74375-1.259375l-1.1625-8.9125c-.096875-.775.484375-1.55 1.35625-1.646875.871875-.096875 1.646875.484375 1.74375 1.259375l1.1625 8.9125c.096875.775-.484375 1.55-1.35625 1.646875h0zm-1.453125-11.625c-.678125.096875-1.259375.775-1.1625 1.453125l1.1625 8.9125c.096875.678125.775 1.1625 1.453125 1.065625.678125-.096875 1.259375-.775 1.1625-1.453125l-1.1625-8.9125c-.096875-.678125-.775-1.1625-1.453125-1.065625h0z" fill="#fff"/><circle fill-opacity="0.200000003" fill="url(#d)" cx="114.990625" cy="115.184375" r="114.7"/></g><path d="M204.115625 51.15 111.6 110.4375h-.096875v.096875l-.096875.096875-57.7375 95.228125 84.8625-68.296875.096875-.096875v-.096875l65.4875-86.21875z" fill-opacity="0.05" filter="url(#b)"/><path d="M202.371875 45.628125l-91.45 65.003125 27.125 26.93125 64.325-91.934375" fill="#cd151e"/><path d="M111.01875 110.4375l13.659375 13.465625 77.69375-78.275L111.01875 110.4375z" fill="#fa5153"/><path d="M111.01875 110.4375l27.125 26.93125-91.45 65.003125 64.325-91.934375z" fill="#acacac"/><path d="M46.69375 202.371875l77.984375-78.46875L111.01875 110.4375l-64.325 91.934375z" fill="#eee"/></g></svg>