<svg width="256px" height="256px" viewBox="0 0 256 256" xmlns="http://www.w3.org/2000/svg" preserveAspectRatio="xMidYMid"><rect fill="#78787a" width="256" height="256" rx="14"/><g transform="translate(12 80)"><path d="M68.4370779 34.4952847c0 18.8280053-15.2631612 34.0898263-34.0911665 34.0898263-18.8280053 0-34.089826319-15.261821-34.089826319-34.0898263C.256085081 15.6672794 15.5179061.404118228 34.3459114.404118228c18.8280053 0 34.0911665 15.263161172 34.0911665 34.091166472" fill="#fff"/><path d="M53.5704077 34.4949925c0 10.61722-8.606984 19.2234484-19.2242041 19.2234484-10.61722 0-19.2234484-8.6062284-19.2234484-19.2234484 0-10.6172201 8.6062284-19.2242041 19.2234484-19.2242041 10.6172201 0 19.2242041 8.606984 19.2242041 19.2242041" fill="#1b94b8"/></g><g transform="translate(176 80)"><path d="M69.167646 34.4952847c0 18.8280053-15.2631613 34.0898263-34.0911665 34.0898263-18.8280053 0-34.089826324-15.261821-34.089826324-34.0898263C.986653176 15.6672794 16.2484742.404118228 35.0764795.404118228c18.8280052 0 34.0911665 15.263161172 34.0911665 34.091166472" fill="#fff"/><path d="M54.3009758 34.4949925c0 10.61722-8.6069841 19.2234484-19.2242041 19.2234484-10.61722 0-19.2234484-8.6062284-19.2234484-19.2234484 0-10.6172201 8.6062284-19.2242041 19.2234484-19.2242041 10.61722 0 19.2242041 8.606984 19.2242041 19.2242041" fill="#1b94b8"/></g><path d="M127.903 209.484c-17.907 0-38.038-5.336-58.089-21.416-3.734-2.994-4.33-8.444-1.34-12.174 3.002-3.733 8.448-4.329 12.173-1.34 48.448 38.867 96.529 2.085 98.55.495 3.763-2.948 9.2-2.296 12.156 1.45 2.951 3.751 2.326 9.175-1.416 12.14-.398.317-26.926 20.845-62.034 20.845"/></svg>