<svg width="512px" height="79px" viewBox="0 0 512 79" xmlns="http://www.w3.org/2000/svg" preserveAspectRatio="xMidYMid"><title>Samsung</title><path d="M486.108639 34.4422268v10.6749687h7.50199v10.591321c.020139.8112364-.014961 1.6770232-.127795 2.4221678l-.062998.3617077c-.012161.0806364-.026952.1635856-.044501.2485242l-.061046.2604615c-.011596.0442973-.023913.0890112-.036966.1341013l-.087296.2747321c-.674761 1.9502029-2.705787 4.421545-7.270301 4.421545-4.861204 0-6.812481-2.8369999-7.346172-4.8303784l-.06289-.2604615h0l-.046874-.2485242h0c-.134401-.8167414-.191733-1.837433-.191733-2.7838755V22.2559576c0-1.0518116.063122-2.1919936.253395-3.1208623l.128226-.564457c.009535-.0390949.019621-.0788225.030277-.1191381l.070965-.2485921c.013028-.042489.02667-.0854767.040948-.1289186l.093471-.2657438c.693227-1.8482759 2.528-4.3099355 6.990913-4.3099355 3.445394 0 5.299806 1.4037666 6.291292 2.8546249l.175969.2722565c.055404.0907153.107615.1812834.156811.271373l.138719.268502h0l.121694.2636438h0l.105734.2567982h0l.090843.2479653h0l.077016.2371452h0l.064257.2243376h0l.052564.2095428h0l.041938.1927607h0c.019139.0958661.036639.1976354.05264.3034424l.043645.3276685c.006572.0560083.012803.1125597.018712.1694209l.04495.5138195h0l.030375.4927711h0l.025924.6719026h0l.006501.3443247h0v4.0620897h18.433542l.003534-2.5286511h0l.011594-.9043541h0l-.003062-.7010229h0l-.016382-.8162325h0l-.014924-.4394401h0l-.032757-.6849499h0l-.047287-.7016418h0l-.040756-.4691147h0C510.466515 6.07987418 501.178192 1.32545282 489.876412.498142731l-.756369-.049376402h0l-.761938-.037982551c-.382295-.016183151-.766529-.028184371-1.15248-.036139802l-.774123-.010556819c-.12938-.001308257-.258934-.001308257-.388654-.001308257l-.777375.005300724c-.12916.00177347-.258114.003995228-.386854.006670196l-.769812.021527692h0l-.764318.032640938h0l-.75846.043990399h0l-.75224.055576072c-.24967.020482548-.498242.042935412-.745657.067397959l-.73871.079456062c-.12252.014260642-.244734.029033547-.366637.044323636l-.727612.097986116c-1.688739.243299156-3.313347.589895506-4.853086 1.053292626l-.654631.20578921c-7.142459 2.34320909-12.332902 7.32512851-13.398594 16.36056197l-.109483 1.0029707h0l-.075752.776554h0l-.070321.8141518h0l-.058339.8099835c-.033443.5293181-.054532 1.0280129-.054532 1.4403961l.001459 31.1677171h0l.005022.3868365h0l.016338.5879945h0l.018177.4121564h0l.025134.4402847h0l.033064.4786987h0l.041962.5273988h0l.08175.9049108h0l.068452.6941493c1.034602 11.4832702 9.738496 16.5915674 20.388289 17.7968185l.746094.0777857c1.248512.1191919 2.521535.1863888 3.81007.2054769l.77491.0057108h0l.779514-.0057108c1.295895-.0190881 2.574732-.086285 3.827773-.2054769l.74866-.0777857c10.684411-1.2052511 19.331708-6.3135483 20.384092-17.7968185l.085246-1.0126756h0l.063054-.8568143h0l.056591-.9599689h0l.034034-.8268843h0l.029876-1.1707954h0V34.4422268h-25.891357zM359.006208 2.3317928h-18.51155v54.1483516c.029136.9436228 0 2.0037888-.162596 2.7810558l-.054471.2355899h0l-.067541.2508471c-.024808.0859088-.051969.1739859-.081658.2638567l-.096821.2746187c-.698349 1.8616693-2.477432 4.2909552-6.733447 4.2909552-3.99113 0-5.813391-2.1924305-6.576646-4.0078223l-.111875-.2831329c-.017233-.0465418-.033773-.0927287-.04964-.1385141l-.087294-.2695187h0l-.072119-.2576329c-.01081-.0418234-.021027-.083058-.030673-.1236568l-.051179-.2355899h0c-.185153-.777267-.208649-1.837433-.185153-2.7810558V2.3317928h-18.505911v52.4678758l-.003319.421825h0l.006488.7375718h0l.025808 1.0852354h0l.050738 1.3189818h0l.035445.6640596h0l.02403.3523969h0l.023407.2592862c.906865 9.7072572 6.601802 14.7600491 14.644321 16.8742881l.685184.1717112c1.496435.3570511 3.069269.6172074 4.70352.7910018l.758577.074119h0l.766971.0620847h0l.775038.0502805c.389482.0222276.781866.0401149 1.176968.0537914l.793775.0217769h0l.800697.0107782c.134008.0013365.268291.0013365.402842.0013365l.805575-.0053652c.133702-.0017947.267119-.004043.400245-.0067495l.795202-.0217769c.395798-.0136765.788851-.0315638 1.178976-.0537914l.776293-.0502805h0l.768162-.0620847h0l.759706-.074119c10.826973-1.1497169 18.948305-6.0789149 20.066968-17.8370011l.014826-.1168866h0l.030318-.3080769h0l.044749-.6143446h0l.040047-.7433717h0l.021958-.5374583h0l.022638-.8242968h0l.006364-.535525h0l-.002107-.5034571h0l-.011854-.4535064c-.002859-.0704283-.006178-.1380303-.009982-.2024333V2.3317928zm-170.087084 0-9.234158 57.2151259-9.228519-57.2151259h-29.860401l-1.58367 73.1946839h18.293502l.495308-67.7585138 12.586651 67.7585138h18.560423l12.597929-67.7585138.497188 67.7585138h18.339555L218.74569 2.3317928h-29.826566zm-110.5570746 0-13.5584698 73.1946839h19.7719069L94.7927418 7.7679629l9.9719512 67.7585138h19.634687L110.897302 2.3317928H78.3620494zM423.700767 61.2621695 406.463672 2.3317928h-27.162053v72.4315148h17.968309l-1.043248-60.8157427 18.51155 60.8157427h26.050194V2.3317928h-18.085792l.998135 58.9303767zM257.497199 21.3809447c-.325193-1.4455099-.231207-2.9812468-.062971-3.7838901.047591-.2130072.103867-.4277699.170261-.6422085l.107362-.3211548c.730297-2.0291483 2.438668-3.9352049 6.355933-3.9352049 4.227506 0 6.705926 2.635377 6.705926 6.5903223v4.4756297h18.045377v-5.1015787c0-11.51276306-7.534836-15.94145818-15.586011-17.49367311l-.662759-.1211885h0l-.664218-.108752971h0l-.664811-.096836618h0l-.66454-.085439428h0l-.6634-.074561403h0l-.661396-.064202544c-.220035-.019732057-.439591-.037824165-.658525-.054362852l-.654789-.045042323h0l-.650186-.036240961h0l-.644718-.027958764h0l-.638383-.020195732h0l-.631183-.012951867h0L264.44279.4144714h0l-.41067.001447035h0l-.816345.01164924c-.135487.002922443-.270684.00633804-.405584.010250844l-.805767.029475735c-.267359.01183569-.533467.025692636-.798265.041603261l-.790401.053925347c-11.008889.842117378-19.599875 5.364127488-21.318265 15.968426538-.508467 3.2293708-.634408 6.0959542.174814 9.7539027 1.27375 6.0109846 6.281253 10.2884132 12.029291 13.8761315l.889752.5466559c.149132.0902493.298649.1800804.448502.2695108l.902738.5319152h0l.908368.5231438h0l.911576.5152171h0l1.36808.7598109h0l3.59469 1.9699399h0l.873388.4842824h0l.85843.4826906h0l.841051.4819437h0l.821249.4820412c3.917613 2.3314629 7.056461 4.695945 8.185883 7.5226234.625059 1.6792887.488407 3.7963714.1862 5.1469481l-.051799.2177924c-.074688.3246915-.168541.6496336-.286631.9689872l-.126357.3172745c-.831343 1.9423715-2.648691 3.5982085-6.641627 3.5982085-4.554578 0-7.29616-2.6184595-7.29616-6.564946l-.005639-7.0245393h-19.423218v5.5837286c0 13.1055966 8.314833 18.798511 18.728446 20.4887064l.775124.11793c.519184.0738079 1.043111.1380598 1.571034.1931665l.794787.0758524c.930529.0806122 1.872148.1338458 2.820844.1619017l.814807.0179332c.136059.0019784.272239.0034557.408529.0044384l.409184.0014709c.272345 0 .543702-.0019388.814011-.0058453l.807717-.0176508c.134074-.0039352.267871-.0083694.401383-.0133063l.797586-.0356821c.264679-.0139238.528157-.029887.79037-.0479182l.782788-.0603265c.519248-.0443921 1.033196-.0971713 1.541352-.1585672l.757828-.0985852h0l.748771-.1116825c.24804-.0394295.494509-.0810707.739346-.1249521l.729553-.138394c8.815159-1.7662629 15.374006-6.5554232 16.691175-15.763461.181348-1.3734155.292862-2.6417179.352953-3.8011095l.032644-.7567512c.004239-.1234221.007893-.2454893.010988-.3661962l.012063-.7078775h0v-.6749826h0l-.011279-.6418376h0l-.020917-.6084425h0l-.029487-.5747975c-.005561-.0929819-.011428-.1845515-.017577-.2747036l-.040067-.523861h0l-.045605-.4895907h0l-.049931-.4550705h0l-.080356-.6173333h0l-.083271-.5382562h0l-.108489-.5932077h0l-.05043-.242698c-1.271072-6.3739094-6.85124-10.8760282-13.050606-14.5819014l-.889437-.52411h0l-.895471-.5139735h0l-.899115-.5045339h0l-1.350273-.7406258h0l-1.790803-.9609661h0l-3.053924-1.6243688h0l-1.256745-.6799221c-.137404-.0751509-.274014-.1501843-.409779-.2251147l-.804064-.4484628h0l-.78141-.4466883c-3.846431-2.2301662-6.753711-4.4199164-7.377122-6.9612131zm-238.0420297-.1795139c-.332183-1.3833615-.2802518-2.8385895-.1098339-3.6841912l.0705453-.3166102h0l.080067-.3132739c.6096113-2.1978958 2.2763609-4.4633092 6.5843189-4.4633092 4.2810779 0 6.8017916 2.6607533 6.8017916 6.647654v4.5301417h18.2568471v-5.1419928c0-10.98633615-6.8346412-15.60026661-14.4718045-17.4051166l-.665977-.149950025c-.5564217-.11920279-1.1161392-.224197454-1.6768575-.31633986L33.651071.483954134h0l-.6732745-.092671068h0L32.305324.309908855h0l-.670789-.070598008c-.2232178-.021794486-.4460081-.041879713-.668224-.060342458l-.6647778-.050607564h0L29.641083.0869675027h0l-.6552412-.0326997363h0l-.6491507-.0245268042h0l-.642179-.0168745263h0L26.7462438-8.39999997e-6h0-.3116487c-.273708 0-.5463621.00191284338997-.8179036.00576951345997L24.8054642.023193587c-.5385145.0155506135-1.0723429.0390004668-1.601015.0705974264l-.789082.0535367526c-.1308495.009951508-.261362.020419956-.3915302.031409217l-.7768186.072216303c-.2575231.026176008-.51361.054466251-.768202.084901712l-.7592326.097773021c-.6288585.086892201-1.2480064.18738566-1.8565249.301964492l-.7250613.144286561h0l-.7145043.157994418h0l-.7035944.17188817c-.2326739.05963234-.4634708.12161129-.6923318.18596784l-.6807163.20023338C7.26154528 3.77395828 2.15548908 8.34186326.866550481 16.2680877c-.531962699 3.2810632-.623129451 6.1673838.145678829 9.8657464 1.35352082 6.3910908 6.87384965 10.8419228 13.04979409 14.5817097l.9080694.5423527c.151989.0895937.3042662.1788001.4567806.267637l.9175249.5287302h0l1.3816111.7783413h0l1.8392478 1.0147418h0l2.7129195 1.4866388h0l1.3178994.7336162h0l1.2811885.7309998h0l.829655.4873064c.1364747.0812754.2720147.1625915.4065693.2439662l.7950939.4890936c3.3906283 2.1236869 6.0461778 4.3110726 7.0712359 6.875627.6713593 1.6677135.5143683 3.7841869.1971058 5.1786842l-.0542465.2255305c-.0783356.3209429-.1745481.6422856-.2935076.9584635l-.1267222.3142501c-.8528801 1.9767371-2.683281 3.6719079-6.7283715 3.6719079-4.5724355 0-7.3074381-2.663573-7.3074381-6.6645716l-.0253763-7.0433365H-3.59760088e-6v5.5968867c0 15.7103059 11.84498599760088 20.8740268 24.96287269760088 21.261988L25.7842989 78.4124789h0l.824171.0059576h0l.8149552-.0057761c.4059107-.0057902.8094269-.0159549 1.2103497-.03059l.7983287-.0352589c.3973765-.020638.7920269-.0458102 1.1837524-.0756121l.7794921-.0658055h0l.7713386-.0783219c.2557147-.0282123.5100115-.058539.7628315-.0910085l.7539708-.1038654c.2498076-.0367835.4980794-.0757381.7447565-.1168923l.7351885-.1300896c9.1285827-1.7093111 15.9317919-6.551603 17.3016187-16.0226649.1887111-1.3530005.3066448-2.6047548.3725466-3.7518594l.0364318-.7491955h0l.0222491-.7179641c.0051898-.2340913.0082215-.46294.0093009-.6865087l-.0024131-.6548292h0l-.012893-.6229256h0l-.0221384-.5907978h0l-.0301496-.5584462h0l-.0369266-.5258702h0l-.0424693-.4930704h0l-.0713964-.6776155h0l-.0769246-.6025552h0l-.1039656-.6853394h0l-.1183206-.6644018h0c-1.2666258-6.2984478-6.6803584-10.7793666-12.7712595-14.4648621l-.8957827-.5337812c-.1499685-.0880567-.3002392-.1756699-.4507617-.2628544l-.9057536-.5180813h0l-.90938-.5085045h0l-.91059-.4996395h0l-.9093831-.4914864h0l-4.0124941-2.1298801h0l-1.2831306-.6876858h0l-.8332698-.4543462h0l-.81273-.4518878h0l-.7897734-.4501412c-.1295816-.0749176-.258106-.149792-.3855228-.2246382l-.7508075-.4488562c-3.3152002-2.0193934-5.7495829-4.0397919-6.3121757-6.3530966z" fill="#1428a0"/></svg>