<svg width="512px" height="104px" viewBox="0 0 512 104" xmlns="http://www.w3.org/2000/svg" preserveAspectRatio="xMidYMid"><path fill="#f37368" d="M381.461756 36.9858357V101.81983h-20.886119V26.8328612z"/><path d="M85.8651558 89.7813031l15.6645892 13.6339939 65.994334-34.3750704-6.816997-16.3898017-74.8419262 37.1308782zM360.575637 48.0090652l53.085553-27.5580737-8.992635-15.51954674-44.092918 21.90141644v21.176204z" fill="#f7a199"/><path d="M211.18187 31.9093484V101.81983h-20.015864V2.17563739L211.18187 31.9093484zM85.8651558 89.7813031l15.6645892 13.6339939 30.168839-75.4220959-9.717847-25.81756371L85.8651558 89.7813031z" fill="#f37368"/><path d="M121.980737 2.17563739h20.596034L180.722946 101.81983h-21.176204L121.980737 2.17563739zm92.247025 0 43.947875 68.02492921V101.81983L191.166006 2.17563739h23.061756zm81.658924 0h20.741076V101.81983h-20.741076V2.17563739zm64.688951 18.27535411h-31.909348V2.17563739h74.406799L413.66119 20.4509915h-32.199434-20.886119z" fill="#f04939"/><path fill="#f7a199" d="M475.014164 63.9637394V101.81983H454.41813V63.9637394"/><path fill="#f04939" d="M489.228329 2.17563739 454.41813 63.9637394h20.596034l36.115581-61.78810201z"/><path fill="#f37368" d="M454.41813 63.9637394 418.447592 2.17563739h22.626629l24.222096 42.35240791z"/><path d="M8.55750708 13.7790368c0 13.7790369 8.55750712 22.046459 25.67252122 26.3977337l18.1303116 4.2062323c16.2447593 3.7711048 26.1076488 13.0538244 26.1076488 28.1382437.1450425 6.5269121-2.0305949 12.9087818-5.9467422 18.1303116 0-15.0844193-7.8322947-23.2067989-26.5427762-28.1382437l-17.8402267-4.0611898C13.7790368 55.2611898 2.75580737 47.5739377 2.75580737 31.184136c0-6.2368272 2.0305949-12.4736544 5.80169971-17.4050992" fill="#f04939"/><g style="fill:#f37368"><path d="M258.175637 65.1240793V2.17563739h20.015864V101.81983h-20.015864z"/><path d="M61.3529745 68.7501416c7.6872521 4.9314448 11.168272 11.8934845 11.168272 21.9014165-6.5269122 8.2674221-17.6951842 12.7637389-30.894051 12.7637389-22.1915014 0-38.00113318-11.023229-41.337110514-30.0237956H21.6113314c2.7558074 8.7025496 10.0079321 12.7637394 19.8708216 12.7637394 11.7484419.1450425 19.725779-6.2368272 19.8708215-17.4050992M8.55750708 13.6339943C14.7943343 5.51161473 25.5274788.580169972 38.5813031.580169972c22.7716714 0 35.8254958 12.038526928 39.1614731 28.863456128h-20.596034c-2.3206799-6.6719547-7.9773371-11.8934845-18.2753541-11.8934845-11.168272.1450425-18.7104816 6.5269122-19.1456091 16.6798867-7.4740085-4.1218484-11.4583569-12.1835694-11.16827192-20.596034z"/></g></svg>