<svg width="256px" height="256px" viewBox="0 0 256 256" xmlns="http://www.w3.org/2000/svg" preserveAspectRatio="xMidYMid"><path d="M31.2763264 165.0445l68.2091166.031868L61.282729 237.1287C6.17113944 203.483033-15.2246749 134.043833 11.3910298 75.2164969 40.5178905 10.8505962 116.298716-17.7153971 180.664617 11.4050901L57.8984045 134.171302H167.203801l-80.3824876 81.179174 33.1931486-62.625937H40.4796495c-2.2370958-8.049721-3.377951-16.373502-3.377951-24.729151.0637349-50.1657592 40.71387-90.8222678 90.8796295-90.8860027 1.070747 0 2.122373.0701084 3.186746.0701084l11.701732-11.7208527c-4.856601-.7138311-9.76419-1.0643732-14.678153-1.0643732-57.1192395 0-103.7413371 46.4755072-103.7413371 103.6011202-.0318675 12.66413 2.2817103 25.226283 6.8260105 37.049112zM194.6863 18.8557028c55.149831 33.6456669 76.552019 103.1231082 49.904447 161.9695642-29.145982 64.353154-104.939554 92.900027-169.292708 63.754046L197.127348 121.8131H87.5223976l81.6189444-81.2301613-33.205895 62.6896723h79.522065c3.416192 11.49778 3.416192 24.722777 3.416192 24.722777-.063735 50.16576-40.720243 90.815895-90.886003 90.87963-1.198216 0-2.390059-.082856-3.581902-.082856l-11.58701 11.701732c5.022312.732952 10.095612 1.102615 15.168912 1.102615 12.740612.006373 25.372874-2.332699 37.259438-6.908866 53.352505-20.535393 79.955463-80.427102 59.42007-133.7796076h-68.189996L194.6863 18.8557028z" fill="#e12826"/></svg>