<svg width="256px" height="416px" viewBox="0 0 256 416" xmlns="http://www.w3.org/2000/svg" preserveAspectRatio="xMidYMid"><defs><linearGradient x1="0%" y1="50%" x2="100%" y2="50%" id="b"><stop stop-color="#4f4f4f"/><stop offset="1"/></linearGradient><linearGradient x1="0%" y1="50%" x2="100%" y2="50%" id="a"><stop stop-color="#c40000"/><stop stop-color="red" offset="1"/></linearGradient></defs><g style="fill:url(#b)"><path d="M0 288v-32c0-5.393778 116.376889-14.428444 192.199111-32h0C228.828444 232.490667 256 242.968889 256 256h0v32c0 13.024-27.171556 23.509333-63.800889 32h0C116.376889 302.424889 0 293.390222 0 288" transform="matrix(1 0 0 -1 0 544)"/><path d="M0 160v-32c0-5.393778 116.376889-14.428444 192.199111-32h0C228.828444 104.490667 256 114.968889 256 128h0v32c0 13.024-27.171556 23.509333-63.800889 32h0C116.376889 174.424889 0 165.390222 0 160" transform="matrix(1 0 0 -1 0 288)"/></g><g style="fill:url(#a)"><path d="M0 224v-96c0 8 256 24 256 64h0v96c0-40-256-56-256-64" transform="matrix(1 0 0 -1 0 416)"/><path d="M0 96V0c0 8 256 24 256 64h0v96c0-40-256-56-256-64" transform="matrix(1 0 0 -1 0 160)"/><path d="M0 352v-96c0 8 256 24 256 64h0v96c0-40-256-56-256-64" transform="matrix(1 0 0 -1 0 672)"/></g></svg>