<svg width="256px" height="316px" viewBox="0 0 256 316" xmlns="http://www.w3.org/2000/svg" preserveAspectRatio="xMidYMid"><path d="M163.431107 153.479627c9.05433-9.111131 21.562961-13.930971 34.389943-13.25117 16.246387-.533265 31.819476 6.507263 42.151343 19.056445C250.657464 171.989199 256 189.657427 256 212.289585c0 31.21387-9.822693 55.675952-29.46808 73.386246-20.61209 17.631997-46.594025 27.753384-73.70175 28.710871-4.984964.695392-10.09613.695392-15.396598.695392l-1.405565-6.7e-5c-46.3673418-.173434-91.0930681-17.28668-125.7425744-48.147137h0L0 257.722171l40.4476214-47.893517 23.7259058 18.299236-22.4638895 26.249938c27.7652473 20.613641 61.4588983 31.682515 96.0394383 31.550407 41.267932 0 69.8526-15.649002 80.958343-42.908553.632207-2.773986.949715-5.610395.946512-8.455509 0-8.076905-3.344343-12.115357-10.033029-12.115357-3.055921.274065-6.077949.844657-9.023416 1.703722-3.708496.851977-7.491629 1.338078-11.295046 1.451319-9.838584-.196027-19.229839-4.146675-26.249938-11.042642-8.240039-7.553839-12.720744-18.362963-12.241558-29.531181-.168771-11.778911 4.374562-23.137244 12.620163-31.550407zM123.172788.0184491647C163.867948-.62742691 203.501475 13.0154377 235.176732 38.5730462h0l10.853339 8.5186098-33.695834 48.0828198-24.86172-16.4062115 17.920631-25.7451319c-24.331443-16.0005032-52.913634-24.3113249-82.031058-23.8521074-14.420348-.2373403-28.7256128 2.6022009-41.9620407 8.3293073-4.2389111 2.1758193-8.3096821 4.6646844-12.178457 7.445896-13.5456413 9.7595925-20.3184619 21.433243-20.3184619 35.0209515 0 8.0769041 3.3443431 12.1153561 10.0330293 12.1153561 3.0558667-.2744591 6.0778566-.8450446 9.0234163-1.7037219 3.7087799-.8503831 7.4917566-1.3364639 11.2950456-1.4513187 9.6940943.2075809 18.9540391 4.0602586 25.9344344 10.7902391 8.268777 7.6087076 12.730548 18.4972796 12.178457 29.7204826.168771 11.778912-4.374562 23.137244-12.620163 31.550407-9.0543296 9.111132-21.5629606 13.930971-34.389943 13.251171-16.2250335.56403-31.7943223-6.428166-42.1513434-18.930244-10.7271383-12.683264-16.4693123-30.603895-16.5324131-53.257087h0v-4.1015524c0-57.6741435 45.8742913-97.9324624353 111.4991375-97.9324624353z" fill="#1e7b85"/></svg>