<svg width="256px" height="256px" viewBox="0 0 256 256" xmlns="http://www.w3.org/2000/svg" preserveAspectRatio="xMidYMid"><title>seaborn</title><path d="M128.901644 2.3933895c-16.375284 0-32.5913455 3.22557503-47.7201327 9.4921248-15.1287885 6.2665492-28.8761011 15.4522099-40.4551728 27.0312835-11.5790734 11.5790715-20.7647342 25.3263841-27.0312834 40.4551727-6.26654973 15.1287872-9.49212477 31.3448485-9.49212477 47.7201325 0 16.375284 3.22557504 32.591345 9.49212477 47.720133 6.2665492 15.128788 15.45221 28.876101 27.0312835 40.455172 11.5790716 11.579074 25.3263842 20.764735 40.4551728 27.031284 15.1287871 6.26655 31.3448486 9.492125 47.7201326 9.492125 16.375284 0 32.591345-3.225575 47.720132-9.492125 15.128789-6.266549 28.876102-15.45221 40.455173-27.031284 11.579074-11.579071 20.764734-25.326384 27.031284-40.455172 6.064403-14.640762 9.280858-30.299783 9.482061-46.135956l.010063-1.584177-.010063-1.584177c-.201203-15.836173-3.417658-31.4951937-9.482061-46.1359555-6.26655-15.1287886-15.45221-28.8761012-27.031284-40.4551728-11.579071-11.5790735-25.326384-20.7647342-40.455173-27.0312834-15.128787-6.26654977-31.344848-9.4921248-47.720132-9.4921248z" fill="#fff"/><g transform="translate(11.703974 10.272144)" fill="#afdad2" stroke="#fff" stroke-width="0.25"><path d="M88.7230562 63.7084523c1.2737781 0 2.4955556-.5060767 3.3962537-1.4067748.9006962-.9006962 1.4067729-2.1224737 1.4067729-3.3962518 0-1.2737761-.5060767-2.4955556-1.4067729-3.3962518-.9006981-.9006962-2.1224756-1.4067748-3.3962537-1.4067748-1.2737761 0-2.4955556.5060786-3.3962518 1.4067748-.9006962.9006962-1.4067729 2.1224757-1.4067729 3.3962518 0 1.2737781.5060767 2.4955556 1.4067729 3.3962518.9006962.9006981 2.1224757 1.4067748 3.3962518 1.4067748z"/><path d="M78.3802547 70.9498228c1.233667 0 2.416969-.4901401 3.2893017-1.3624728.8723345-.8723345 1.3624747-2.0556365 1.3624747-3.2893017 0-1.233667-.4901402-2.416969-1.3624747-3.2893016-.8723327-.8723346-2.0556347-1.3624748-3.2893017-1.3624748-1.2336651 0-2.4169671.4901402-3.2893017 1.3624748-.8723326.8723326-1.3624728 2.0556346-1.3624728 3.2893016 0 1.2336652.4901402 2.4169672 1.3624728 3.2893017.8723346.8723327 2.0556366 1.3624728 3.2893017 1.3624728z"/><path d="M68.4310184 75.5587719c1.1615239 0 2.275632-.4614795 3.0969542-1.2828016.8213222-.8213222 1.2828016-1.9354303 1.2828016-3.0969543 0-1.1615239-.4614794-2.275632-1.2828016-3.0969542-.8213222-.8213221-1.9354303-1.2828016-3.0969542-1.2828016-1.161524 0-2.2756321.4614795-3.0969543 1.2828016-.8213221.8213222-1.2828016 1.9354303-1.2828016 3.0969542 0 1.161524.4614795 2.2756321 1.2828016 3.0969543.8213222.8213221 1.9354303 1.2828016 3.0969543 1.2828016z"/><path d="M97.4479028 57.9864798c1.3115002 0 2.5694632-.5210648 3.4968342-1.4484361.927371-.9273713 1.448436-2.185334 1.448436-3.4968342 0-1.3115021-.521065-2.5694647-1.448436-3.496836-.927371-.9273713-2.185334-1.4484362-3.4968342-1.4484362-1.3115021 0-2.5694629.5210649-3.4968342 1.4484362-.9273713.9273713-1.4484361 2.1853339-1.4484361 3.496836 0 1.3115002.5210648 2.5694629 1.4484361 3.4968342.9273713.9273713 2.1853321 1.4484361 3.4968342 1.4484361z"/><path d="M60.9668489 65.1724294c.8812484 0 1.7265236-.3501245 2.3496605-.9732614.6231369-.623137.9732614-1.4684103.9732614-2.3496605 0-.8812483-.3501245-1.7265236-.9732614-2.3496605-.6231369-.6231369-1.4684121-.9732614-2.3496605-.9732614-.8812502 0-1.7265235.3501245-2.3496604.9732614-.623137.6231369-.9732614 1.4684122-.9732614 2.3496605 0 .8812502.3501244 1.7265235.9732614 2.3496605.6231369.6231369 1.4684102.9732614 2.3496604.9732614z"/><path d="M52.7613825 83.3764598c1.0469832 0 2.0512242-.4159717 2.791552-1.1562995.7403278-.7403278 1.1562976-1.7445688 1.1562976-2.79155 0-1.0469832-.4159698-2.0512242-1.1562976-2.791552-.7403278-.7403278-1.7445688-1.1562995-2.791552-1.1562995-1.0469812 0-2.0512222.4159717-2.79155 1.1562995-.7403297.7403278-1.1562995 1.7445688-1.1562995 2.791552 0 1.0469812.4159698 2.0512222 1.1562995 2.79155.7403278.7403278 1.7445688 1.1562995 2.79155 1.1562995z"/><path d="M57.7828524 52.1160113c1.2615877 0 2.4716745-.5012346 3.3637504-1.3933104.8920777-.8920777 1.3933104-2.1021627 1.3933104-3.3637503 0-1.2615877-.5012327-2.4716726-1.3933104-3.3637504-.8920759-.8920758-2.1021627-1.3933104-3.3637504-1.3933104-1.2615876 0-2.4716726.5012346-3.3637503 1.3933104-.8920758.8920778-1.3933104 2.1021627-1.3933104 3.3637504 0 1.2615876.5012346 2.4716726 1.3933104 3.3637503.8920777.8920758 2.1021627 1.3933104 3.3637503 1.3933104z"/><path d="M70.6198391 61.0188078c.9756786 0 1.9115283-.3876422 2.6014362-1.0775501.6899098-.6899098 1.0775501-1.6257576 1.0775501-2.6014363 0-.9756786-.3876403-1.9115264-1.0775501-2.6014362-.6899079-.6899079-1.6257576-1.0775501-2.6014362-1.0775501-.9756768 0-1.9115265.3876422-2.6014344 1.0775501-.6899098.6899098-1.0775501 1.6257576-1.0775501 2.6014362 0 .9756787.3876403 1.9115265 1.0775501 2.6014363.6899079.6899079 1.6257576 1.0775501 2.6014344 1.0775501z"/><path d="M134.064079 50.0376332c1.140935 0 2.235292-.4532982 3.042054-1.26006.806764-.8067637 1.260062-1.9011211 1.260062-3.0420557 0-1.1409346-.453298-2.235292-1.260062-3.0420557-.806762-.8067618-1.901119-1.26006-3.042054-1.26006-1.140934 0-2.235294.4532982-3.042056 1.26006-.806761.8067637-1.26006 1.9011211-1.26006 3.0420557 0 1.1409346.453299 2.235292 1.26006 3.0420557.806762.8067618 1.901122 1.26006 3.042056 1.26006z"/><path d="M43.8306011 72.8439912c.6915945 0 1.354958-.2747748 1.8439908-.7638057.4890328-.4890328.7638057-1.1523963.7638057-1.8439927 0-.6915944-.2747729-1.3549579-.7638057-1.8439907-.4890328-.4890328-1.1523963-.7638057-1.8439908-.7638057-.6915964 0-1.3549598.2747729-1.8439926.7638057-.489031.4890328-.7638057 1.1523963-.7638057 1.8439907 0 .6915964.2747747 1.3549599.7638057 1.8439927.4890328.4890309 1.1523962.7638057 1.8439926.7638057z"/><path d="M52.4965058 70.3884842c.820637 0 1.607773-.3260427 2.1880503-.9063201.5802793-.5802774.906322-1.3674134.906322-2.1880503 0-.820637-.3260427-1.6077729-.906322-2.1880522-.5802773-.5802774-1.3674133-.9063201-2.1880503-.9063201-.8206369 0-1.6077729.3260427-2.1880502.9063201-.5802793.5802793-.9063201 1.3674152-.9063201 2.1880522 0 .8206369.3260408 1.6077729.9063201 2.1880503.5802773.5802774 1.3674133.9063201 2.1880502.9063201z"/><path d="M36.6950033 60.5824039c1.0879461 0 2.1314784-.4322452 2.9007736-1.2015384.7692933-.7692952 1.2015385-1.8128276 1.2015385-2.9007736 0-1.0879461-.4322452-2.1314784-1.2015385-2.9007736-.7692952-.7692933-1.8128275-1.2015404-2.9007736-1.2015404-1.087946 0-2.1314803.4322471-2.9007736 1.2015404-.7692951.7692952-1.2015403 1.8128275-1.2015403 2.9007736 0 1.087946.4322452 2.1314784 1.2015403 2.9007736.7692933.7692932 1.8128276 1.2015384 2.9007736 1.2015384z"/><path d="M52.8362476 58.7738979c.5671367 0 1.1111211-.225326 1.5121482-.6263531.401027-.401027.626353-.9450114.626353-1.5121481 0-.5671367-.225326-1.111123-.626353-1.5121481-.4010271-.4010271-.9450115-.626353-1.5121482-.626353-.5671367 0-1.1111229.2253259-1.51215.626353-.4010252.4010251-.6263511.9450114-.6263511 1.5121481 0 .5671367.2253259 1.1111211.6263511 1.5121481.4010271.4010271.9450133.6263531 1.51215.6263531z"/><path d="M81.4706291 55.4398248c1.0587704 0 2.0743197-.4206548 2.822984-1.169319.7486642-.7486642 1.1693171-1.7642116 1.1693171-2.8229839 0-1.0587705-.4206529-2.0743198-1.1693171-2.822984-.7486643-.7486642-1.7642136-1.169319-2.822984-1.169319-1.0587723 0-2.0743216.4206548-2.8229858 1.169319-.7486642.7486642-1.1693171 1.7642135-1.1693171 2.822984 0 1.0587723.4206529 2.0743197 1.1693171 2.8229839.7486642.7486642 1.7642135 1.169319 2.8229858 1.169319z"/><path d="M111.801181 57.7507144c.913727 0 1.790154-.3630285 2.436258-1.0091323.646104-.6461019 1.00913-1.5225289 1.00913-2.4362579 0-.9137271-.363026-1.7901541-1.00913-2.4362579-.646104-.6461038-1.522531-1.0091304-2.436258-1.0091304-.913729 0-1.790156.3630266-2.436258 1.0091304-.646104.6461038-1.009132 1.5225308-1.009132 2.4362579 0 .913729.363028 1.790156 1.009132 2.4362579.646102.6461038 1.522529 1.0091323 2.436258 1.0091323z"/><path d="M118.107944 36.2544009c.598025 0 1.171636-.2375977 1.594501-.6604634.422868-.4228676.660466-.9964781.660466-1.5945017 0-.5980254-.237598-1.1716359-.660466-1.5945016-.422865-.4228676-.996476-.6604654-1.594501-.6604654-.598024 0-1.171634.2375978-1.594502.6604654-.422866.4228657-.660463.9964762-.660463 1.5945016 0 .5980236.237597 1.1716341.660463 1.5945017.422868.4228657.996478.6604634 1.594502.6604634z"/><path d="M125.438901 49.2360712c.999279 0 1.957765-.3970178 2.664362-1.1036156.706598-.7065978 1.103616-1.665083 1.103616-2.6643627 0-.9992796-.397018-1.9577667-1.103616-2.6643627-.706597-.7065977-1.665083-1.1036156-2.664362-1.1036156-.99928 0-1.957767.3970179-2.664363 1.1036156-.706598.706596-1.103616 1.6650831-1.103616 2.6643627 0 .9992797.397018 1.9577649 1.103616 2.6643627.706596.7065978 1.665083 1.1036156 2.664363 1.1036156z"/><path d="M87.7958723 47.0379392c1.0267952 0 2.0116735-.4079513 2.7377267-1.1340046.7260552-.7260532 1.1340047-1.7109334 1.1340047-2.7377286 0-1.0267951-.4079495-2.0116734-1.1340047-2.7377266-.7260532-.7260552-1.7109315-1.1340047-2.7377267-1.1340047-1.0267951 0-2.0116734.4079495-2.7377285 1.1340047-.7260533.7260532-1.1340028 1.7109315-1.1340028 2.7377266 0 1.0267952.4079495 2.0116754 1.1340028 2.7377286.7260551.7260533 1.7109334 1.1340046 2.7377285 1.1340046z"/><path d="M39.2937157 84.2490518c.8332192 0 1.6324225-.3310401 2.2215966-.9202142.5891742-.5891741.9202161-1.3883793.9202161-2.2215966 0-.8332192-.3310419-1.6324226-.9202161-2.2215967-.5891741-.5891741-1.3883774-.920216-2.2215966-.920216-.8332173 0-1.6324226.3310419-2.2215967.920216-.5891741.5891741-.920216 1.3883775-.920216 2.2215967 0 .8332173.3310419 1.6324225.920216 2.2215966.5891741.5891741 1.3883794.9202142 2.2215967.9202142z"/><path d="M142.775806 50.85997c1.268981 0 2.486157-.5041706 3.383463-1.4014746.897304-.897306 1.401475-2.1144819 1.401475-3.3834633 0-1.2689795-.504171-2.4861572-1.401475-3.3834613-.897306-.897306-2.114482-1.4014765-3.383463-1.4014765-1.26898 0-2.486157.5041705-3.383461 1.4014765-.897306.8973041-1.401477 2.1144818-1.401477 3.3834613 0 1.2689814.504171 2.4861573 1.401477 3.3834633.897304.897304 2.114481 1.4014746 3.383461 1.4014746z"/><path d="M96.6050259 47.6190495c1.1647798 0 2.2820074-.4627723 3.1056314-1.2863944.8236217-.823622 1.2863947-1.9408516 1.2863947-3.1056295 0-1.1647797-.462773-2.2820074-1.2863947-3.1056313-.823624-.8236221-1.9408516-1.2863925-3.1056314-1.2863925-1.1647779 0-2.2820055.4627704-3.1056295 1.2863925-.8236221.8236239-1.2863944 1.9408516-1.2863944 3.1056313 0 1.1647779.4627723 2.2820075 1.2863944 3.1056295.823624.8236221 1.9408516 1.2863944 3.1056295 1.2863944z"/><path d="M45.5756583 51.1592392c1.0798916 0 2.115699-.4290461 2.8792983-1.1926455.7635994-.7635994 1.1926455-1.7994068 1.1926455-2.8792984 0-1.0798916-.4290461-2.115699-1.1926455-2.8792984-.7635993-.7635994-1.7994067-1.1926455-2.8792983-1.1926455-1.0798917 0-2.115699.4290461-2.8792984 1.1926455-.7635994.7635994-1.1926436 1.7994068-1.1926436 2.8792984 0 1.0798916.4290442 2.115699 1.1926436 2.8792984.7635994.7635994 1.7994067 1.1926455 2.8792984 1.1926455z"/><path d="M68.2379251 40.6459875c1.2484734 0 2.44598-.4960233 3.3287843-1.3788276.8828043-.8828044 1.3788276-2.0803128 1.3788276-3.3287862 0-1.2484735-.4960233-2.44598-1.3788276-3.3287843-.8828043-.8828043-2.0803109-1.3788277-3.3287843-1.3788277-1.2484735 0-2.4459819.4960234-3.3287843 1.3788277-.8828043.8828043-1.3788295 2.0803108-1.3788295 3.3287843 0 1.2484734.4960252 2.4459818 1.3788295 3.3287862.8828024.8828043 2.0803108 1.3788276 3.3287843 1.3788276z"/><path d="M156.562818 46.9855772c.771156 0 1.510831-.3063828 2.05612-.8516733.54529-.5452886.851673-1.2849633.851673-2.0561192 0-.771156-.306383-1.5108307-.851673-2.0561212-.545289-.5452886-1.284964-.8516733-2.05612-.8516733-.771156 0-1.51083.3063847-2.056121.8516733-.545288.5452905-.851673 1.2849652-.851673 2.0561212 0 .7711559.306385 1.5108306.851673 2.0561192.545291.5452905 1.284965.8516733 2.056121.8516733z"/><path d="M55.2734785 35.110466c.9809978 0 1.9219508-.3897547 2.6156218-1.0834257.693671-.693671 1.0834257-1.634624 1.0834257-2.6156237 0-.9809978-.3897547-1.9219508-1.0834257-2.6156218-.693671-.693671-1.634624-1.0834257-2.6156218-1.0834257-.9809997 0-1.9219527.3897547-2.6156237 1.0834257-.693671.693671-1.0834257 1.634624-1.0834257 2.6156218 0 .9809997.3897547 1.9219527 1.0834257 2.6156237.693671.693671 1.634624 1.0834257 2.6156237 1.0834257z"/><path d="M71.9544916 51.6783808c.8349285 0 1.6357712-.3317214 2.2261549-.9221051.5903837-.5903837.9221032-1.3912264.9221032-2.2261549 0-.8349285-.3317195-1.6357711-.9221032-2.2261548-.5903837-.5903837-1.3912264-.9221052-2.2261549-.9221052-.8349285 0-1.6357711.3317215-2.2261548.9221052-.5903837.5903837-.9221052 1.3912263-.9221052 2.2261548 0 .8349285.3317215 1.6357712.9221052 2.2261549.5903837.5903837 1.3912263.9221051 2.2261548.9221051z"/><path d="M79.4950746 44.8458608c.8482527 0 1.6618764-.3370141 2.2616812-.9368189.5998066-.5998047.9368207-1.4134303.9368207-2.2616812 0-.8482527-.3370141-1.6618764-.9368207-2.2616812-.5998048-.5998047-1.4134285-.9368188-2.2616812-.9368188-.8482509 0-1.6618746.3370141-2.2616793.9368188-.5998067.5998048-.9368208 1.4134285-.9368208 2.2616812 0 .8482509.3370141 1.6618765.9368208 2.2616812.5998047.5998048 1.4134284.9368189 2.2616793.9368189z"/><path d="M30.0982279 52.9706565c.8539884 0 1.6731166-.3392932 2.2769779-.9431545.6038613-.6038613.9431545-1.4229895.9431545-2.2769779 0-.8539902-.3392932-1.6731166-.9431545-2.2769779-.6038613-.6038613-1.4229895-.9431545-2.2769779-.9431545-.8539902 0-1.6731166.3392932-2.2769779.9431545-.6038613.6038613-.9431564 1.4229877-.9431564 2.2769779 0 .8539884.3392951 1.6731166.9431564 2.2769779.6038613.6038613 1.4229877.9431545 2.2769779.9431545z"/><path d="M38.9653825 40.4502972c.7834656 0 1.5349465-.3112741 2.0889388-.8652683.5539941-.5539922.8652682-1.3054731.8652682-2.0889387 0-.7834638-.3112741-1.5349446-.8652682-2.0889388-.5539923-.5539922-1.3054732-.8652664-2.0889388-.8652664-.7834637 0-1.5349446.3112742-2.0889387.8652664-.5539923.5539942-.8652664 1.305475-.8652664 2.0889388 0 .7834656.3112741 1.5349465.8652664 2.0889387.5539941.5539942 1.305475.8652683 2.0889387.8652683z"/><path d="M107.120434 49.6207132c.656654 0 1.286502-.2608921 1.750828-.7252166.464325-.4643245.725217-1.0941719.725217-1.7508268 0-.6566549-.260892-1.2865023-.725217-1.7508268-.464326-.4643245-1.094174-.7252166-1.750828-.7252166-.656653 0-1.286503.2608921-1.750827.7252166-.464325.4643245-.725217 1.0941719-.725217 1.7508268 0 .6566549.260892 1.2865023.725217 1.7508268.464324.4643245 1.094174.7252166 1.750827.7252166z"/><path d="M27.8262492 69.2716502c1.0852884 0 2.126271-.4311907 2.8936846-1.1986044.7674136-.7674136 1.1986025-1.8083962 1.1986025-2.8936846 0-1.0852864-.4311889-2.126269-1.1986025-2.8936827-.7674136-.7674155-1.8083962-1.1986044-2.8936846-1.1986044-1.0852865 0-2.126271.4311889-2.8936846 1.1986044-.7674136.7674137-1.1986025 1.8083963-1.1986025 2.8936827 0 1.0852884.4311889 2.126271 1.1986025 2.8936846.7674136.7674137 1.8083981 1.1986044 2.8936846 1.1986044z"/><path d="M18.6866387 62.371886c.81588 0 1.5984521-.3241516 2.1753658-.9010653.5769136-.5769137.9010653-1.3594858.9010653-2.1753658 0-.8158781-.3241517-1.5984503-.9010653-2.1753639-.5769137-.5769137-1.3594858-.9010673-2.1753658-.9010673-.8158782 0-1.5984503.3241536-2.175364.9010673-.5769136.5769136-.9010672 1.3594858-.9010672 2.1753639 0 .81588.3241536 1.5984521.9010672 2.1753658.5769137.5769137 1.3594858.9010653 2.175364.9010653z"/><path d="M115.564838 48.9019552c.820669 0 1.607837-.3260559 2.188137-.906356.5803-.5803001.906356-1.3674664.906356-2.1881355 0-.8206691-.326056-1.6078373-.906356-2.1881374-.5803-.5803001-1.367468-.906356-2.188137-.906356-.820669 0-1.607835.3260559-2.188136.906356-.5803.5803001-.906356 1.3674683-.906356 2.1881374 0 .8206691.326056 1.6078354.906356 2.1881355.580301.5803001 1.367467.906356 2.188136.906356z"/><path d="M45.2098774 64.9705454c1.2652031 0 2.4787559-.5026714 3.3733891-1.3973046.8946332-.8946331 1.3973026-2.1081859 1.3973026-3.3733872 0-1.2652031-.5026694-2.4787559-1.3973026-3.373389-.8946332-.8946332-2.108186-1.3973027-3.3733891-1.3973027-1.2652031 0-2.4787559.5026695-3.3733891 1.3973027-.8946331.8946331-1.3973026 2.1081859-1.3973026 3.373389 0 1.2652013.5026695 2.4787541 1.3973026 3.3733872.8946332.8946332 2.108186 1.3973046 3.3733891 1.3973046z"/><path d="M150.305928 43.2803436c1.268348 0 2.484916-.5039188 3.381773-1.4007761.896858-.8968574 1.400778-2.1134275 1.400778-3.3817748 0-1.2683472-.50392-2.4849173-1.400778-3.3817728-.896857-.8968574-2.113425-1.400778-3.381773-1.400778-1.268349 0-2.484917.5039206-3.381774 1.400778-.896858.8968555-1.400778 2.1134256-1.400778 3.3817728 0 1.2683473.50392 2.4849174 1.400778 3.3817748.896857.8968573 2.113425 1.4007761 3.381774 1.4007761z"/><path d="M30.3630951 88.3451531c.7361464 0 1.4422407-.2924736 1.9627755-.8130065.5205329-.5205349.8130066-1.2266292.8130066-1.9627736 0-.7361463-.2924737-1.4422406-.8130066-1.9627736-.5205348-.5205348-1.2266291-.8130084-1.9627755-.8130084-.7361444 0-1.4422387.2924736-1.9627735.8130084-.520533.520533-.8130066 1.2266273-.8130066 1.9627736 0 .7361444.2924736 1.4422387.8130066 1.9627736.5205348.5205329 1.2266291.8130065 1.9627735.8130065z"/><path d="M99.7030704 34.1983517c1.0121286 0 1.9829406-.402123 2.6986246-1.1178069.715684-.7156838 1.117807-1.6864957 1.117807-2.6986245 0-1.0121288-.402123-1.9829408-1.117807-2.6986246-.715684-.7156838-1.686496-1.1178069-2.6986246-1.1178069-1.0121288 0-1.9829407.4021231-2.6986245 1.1178069-.7156839.7156838-1.1178069 1.6864958-1.1178069 2.6986246 0 1.0121288.402123 1.9829407 1.1178069 2.6986245.7156838.7156839 1.6864957 1.1178069 2.6986245 1.1178069z"/><path d="M178.997355 39.4535162c1.033909 0 2.025611-.4107775 2.756694-1.1418602.731085-.7310847 1.14186-1.7227851 1.14186-2.7566938 0-1.0339088-.410775-2.025611-1.14186-2.7566957-.731083-.7310827-1.722785-1.1418602-2.756694-1.1418602-1.033909 0-2.025611.4107775-2.756694 1.1418602-.731084.7310847-1.14186 1.7227869-1.14186 2.7566957 0 1.0339087.410776 2.0256091 1.14186 2.7566938.731083.7310827 1.722785 1.1418602 2.756694 1.1418602z"/><path d="M127.133525 37.4673461c.823247 0 1.612887-.32708 2.195012-.909203.582125-.5821248.909205-1.3717652.909205-2.1950143 0-.8232473-.32708-1.6128876-.909205-2.1950125-.582125-.582123-1.371765-.909203-2.195012-.909203-.823248 0-1.61289.32708-2.195013.909203-.582125.5821249-.909205 1.3717652-.909205 2.1950125 0 .8232491.32708 1.6128895.909205 2.1950143.582123.582123 1.371765.909203 2.195013.909203z"/><path d="M59.4540894 78.4212157c1.0733213 0 2.1028271-.4264358 2.8617813-1.185388.7589522-.7589542 1.185388-1.78846 1.185388-2.8617813 0-1.0733213-.4264358-2.1028271-1.185388-2.8617813-.7589542-.7589522-1.78846-1.185388-2.8617813-1.185388-1.0733213 0-2.1028271.4264358-2.8617813 1.185388-.7589522.7589542-1.185388 1.78846-1.185388 2.8617813 0 1.0733213.4264358 2.1028271 1.185388 2.8617813.7589542.7589522 1.78846 1.185388 2.8617813 1.185388z"/><path d="M137.661929 38.8040601c1.027609 0 2.013267-.4082732 2.739896-1.1349019.726629-.7266287 1.134902-1.7122869 1.134902-2.7398941 0-1.0276091-.408273-2.0132672-1.134902-2.739896-.726629-.7266287-1.712287-1.1349018-2.739896-1.1349018-1.027607 0-2.013265.4082731-2.739894 1.1349018-.726629.7266288-1.134902 1.7122869-1.134902 2.739896 0 1.0276072.408273 2.0132654 1.134902 2.7398941.726629.7266287 1.712287 1.1349019 2.739894 1.1349019z"/><path d="M165.10033 42.5805622c.851603 0 1.668441-.3383467 2.270614-.9405195.602174-.6021747.940519-1.4190125.940519-2.2706139 0-.8516033-.338345-1.6684411-.940519-2.2706158-.602173-.6021728-1.419011-.9405195-2.270614-.9405195-.851602 0-1.668439.3383467-2.270614.9405195-.602175.6021747-.94052 1.4190125-.94052 2.2706158 0 .8516014.338345 1.6684392.94052 2.2706139.602175.6021728 1.419012.9405195 2.270614.9405195z"/><path d="M195.413823 49.5405819c.767595 0 1.503855-.3049687 2.046628-.8477416.542771-.5427711.84774-1.2790309.84774-2.0466263 0-.7675953-.304969-1.5038552-.84774-2.0466281-.542773-.542771-1.279033-.8477398-2.046628-.8477398-.767596 0-1.503855.3049688-2.046626.8477398-.542771.5427729-.847742 1.2790328-.847742 2.0466281 0 .7675954.304971 1.5038552.847742 2.0466263.542771.5427729 1.27903.8477416 2.046626.8477416z"/><path d="M87.0981145 28.2719076c.6615784 0 1.2961505-.2628475 1.763958-.7306549.4678074-.4678075.7306568-1.1023796.7306568-1.7639599 0-.6615803-.2628494-1.2961524-.7306568-1.7639599-.4678075-.4678075-1.1023796-.7306549-1.763958-.7306549-.6615803 0-1.2961524.2628474-1.7639599.7306549-.4678075.4678075-.7306549 1.1023796-.7306549 1.7639599 0 .6615803.2628474 1.2961524.7306549 1.7639599.4678075.4678074 1.1023796.7306549 1.7639599.7306549z"/><path d="M109.781311 21.4235098c.968543 0 1.897548-.3848066 2.582411-1.0696699.684863-.6848633 1.069668-1.6138681 1.069668-2.5824105 0-.9685423-.384805-1.8975472-1.069668-2.5824105-.684863-.6848632-1.613868-1.0696698-2.582411-1.0696698-.968544 0-1.897547.3848066-2.58241 1.0696698-.684865.6848633-1.06967 1.6138682-1.06967 2.5824105 0 .9685424.384805 1.8975472 1.06967 2.5824105.684863.6848633 1.613866 1.0696699 2.58241 1.0696699z"/><path d="M194.768374 41.0016999c1.276048 0 2.500002-.5069796 3.402303-1.409281.902302-.9023014 1.409282-2.1262558 1.409282-3.4023035 0-1.2760458-.50698-2.5000021-1.409282-3.4023035-.902301-.9023014-2.126255-1.4092791-3.402303-1.4092791-1.276048 0-2.500002.5069777-3.402304 1.4092791-.902301.9023014-1.409281 2.1262577-1.409281 3.4023035 0 1.2760477.50698 2.5000021 1.409281 3.4023035.902302.9023014 2.126256 1.409281 3.402304 1.409281z"/><path d="M104.270265 42.9674794c1.205889 0 2.36255-.4791044 3.215241-1.3317961.852694-.8526917 1.331798-2.0093527 1.331798-3.2152411 0-1.2058902-.479104-2.3625512-1.331798-3.2152429-.852691-.8526917-2.009352-1.3317962-3.215241-1.3317962-1.205888 0-2.362549.4791045-3.215241 1.3317962-.852691.8526917-1.3317977 2.0093527-1.3317977 3.2152429 0 1.2058884.4791067 2.3625494 1.3317977 3.2152411.852692.8526917 2.009353 1.3317961 3.215241 1.3317961z"/><path d="M121.092799 25.9270438c1.20296 0 2.356814-.4779422 3.207435-1.328563.850622-.8506227 1.328563-2.0044747 1.328563-3.2074366 0-1.20296-.477941-2.3568138-1.328563-3.2074346-.850621-.8506227-2.004475-1.328563-3.207435-1.328563-1.202962 0-2.356814.4779403-3.207436 1.328563-.850621.8506208-1.328563 2.0044746-1.328563 3.2074346 0 1.2029619.477942 2.3568139 1.328563 3.2074366.850622.8506208 2.004474 1.328563 3.207436 1.328563z"/><path d="M160.416148 31.4526823c1.246195 0 2.441517-.4951185 3.322708-1.3763101.881194-.8811934 1.376312-2.0765136 1.376312-3.3227098 0-1.2461944-.495118-2.4415146-1.376312-3.322708-.881191-.8811915-2.076513-1.3763101-3.322708-1.3763101-1.246194 0-2.441516.4951186-3.322708 1.3763101-.881193.8811934-1.376312 2.0765136-1.376312 3.322708 0 1.2461962.495119 2.4415164 1.376312 3.3227098.881192.8811916 2.076514 1.3763101 3.322708 1.3763101z"/><path d="M209.064761 60.9939329c1.179862 0 2.311559-.4687634 3.145848-1.3030521.834287-.8342887 1.303052-1.9659859 1.303052-3.1458465 0-1.1798626-.468765-2.3115598-1.303052-3.1458485-.834289-.8342868-1.965986-1.3030521-3.145848-1.3030521-1.179861 0-2.311558.4687653-3.145847 1.3030521-.834289.8342887-1.303052 1.9659859-1.303052 3.1458485 0 1.1798606.468763 2.3115578 1.303052 3.1458465.834289.8342887 1.965986 1.3030521 3.145847 1.3030521z"/><path d="M108.753822 7.13347392c.673628 0 1.319757-.26763657 1.796082-.7439622.476328-.47632752.743962-1.12245401.743962-1.79608277 0-.67362687-.267634-1.31975524-.743962-1.79608087-.476325-.47632753-1.122454-.74396221-1.796082-.74396221-.673627 0-1.319756.26763468-1.796081.74396221-.476328.47632563-.743963 1.122454-.743963 1.79608087 0 .67362876.267635 1.31975525.743963 1.79608277.476325.47632563 1.122454.7439622 1.796081.7439622z"/><path d="M149.317891 34.0970065c1.13118 0 2.216183-.4494234 3.016049-1.2492893.799866-.799864 1.249287-1.8848684 1.249287-3.0160488 0-1.1311804-.449421-2.2161829-1.249287-3.0160488-.799866-.7998659-1.884869-1.2492874-3.016049-1.2492874-1.13118 0-2.216185.4494215-3.016049 1.2492874-.799866.7998659-1.249289 1.8848684-1.249289 3.0160488 0 1.1311804.449423 2.2161848 1.249289 3.0160488.799864.7998659 1.884869 1.2492893 3.016049 1.2492893z"/><path d="M143.610785 25.9041678c.913084 0 1.788894-.362773 2.434541-1.0084205.645648-.6456476 1.008421-1.5214576 1.008421-2.4345411 0-.9130834-.362773-1.7888934-1.008421-2.434541-.645647-.6456476-1.521457-1.0084186-2.434541-1.0084186-.913083 0-1.788893.362771-2.434541 1.0084186-.645647.6456476-1.008418 1.5214576-1.008418 2.434541 0 .9130835.362771 1.7888935 1.008418 2.4345411.645648.6456475 1.521458 1.0084205 2.434541 1.0084205z"/><path d="M126.309191 18.4075102c1.171592 0 2.295356-.4654773 3.123798-1.2939188.828439-.8284395 1.293918-1.9522035 1.293918-3.1237958 0-1.1715924-.465479-2.2953564-1.293918-3.1237978-.828442-.8284396-1.952206-1.29391875-3.123798-1.29391875-1.171591 0-2.295356.46547915-3.123796 1.29391875-.828441.8284414-1.293919 1.9522054-1.293919 3.1237978 0 1.1715923.465478 2.2953563 1.293919 3.1237958.82844.8284415 1.952205 1.2939188 3.123796 1.2939188z"/><path d="M77.5781609 36.423208c1.313323 0 2.5730329-.5217879 3.5016914-1.4504483.9286603-.9286585 1.4504483-2.1883683 1.4504483-3.5016914 0-1.3133212-.521788-2.573031-1.4504483-3.5016914-.9286585-.9286585-2.1883684-1.4504464-3.5016914-1.4504464-1.3133231 0-2.573033.5217879-3.5016914 1.4504464-.9286604.9286604-1.4504484 2.1883702-1.4504484 3.5016914 0 1.3133231.521788 2.5730329 1.4504484 3.5016914.9286584.9286604 2.1883683 1.4504483 3.5016914 1.4504483z"/><path d="M47.0249746 29.1310031c.7151671 0 1.4011396-.2841391 1.9068396-.7898391.5057-.5057.7898391-1.1916725.7898391-1.9068396 0-.7151671-.2841391-1.4011396-.7898391-1.9068396-.5057-.5057-1.1916725-.7898391-1.9068396-.7898391-.715167 0-1.4011396.2841391-1.9068396.7898391-.5057.5057-.789839 1.1916725-.789839 1.9068396 0 .7151671.284139 1.4011396.789839 1.9068396.5057.5057 1.1916726.7898391 1.9068396.7898391z"/><path d="M59.8460967 27.3224705c.9271763 0 1.8165036-.3683722 2.4721174-1.023986.6556138-.655612 1.0239842-1.5449393 1.0239842-2.4721175 0-.9271763-.3683704-1.8165036-1.0239842-2.4721174-.6556138-.6556138-1.5449411-1.0239861-2.4721174-1.0239861-.9271782 0-1.8165056.3683723-2.4721194 1.0239861-.6556119.6556138-1.0239841 1.5449411-1.0239841 2.4721174 0 .9271782.3683722 1.8165055 1.0239841 2.4721175.6556138.6556138 1.5449412 1.023986 2.4721194 1.023986z"/><path d="M177.312194 48.5029063c1.142818 0 2.238981-.4540478 3.047076-1.2621404.808094-.8080944 1.26214-1.9042595 1.26214-3.0470776 0-1.142818-.454046-2.2389813-1.26214-3.0470757-.808095-.8080944-1.904258-1.2621403-3.047076-1.2621403-1.142818 0-2.238983.4540459-3.047076 1.2621403-.808094.8080944-1.26214 1.9042577-1.26214 3.0470757 0 1.1428181.454046 2.2389832 1.26214 3.0470776.808093.8080926 1.904258 1.2621404 3.047076 1.2621404z"/><path d="M130.034499 25.7881903c.6346 0 1.243294-.2521297 1.692023-.7008603.448731-.4487306.70086-1.0574245.70086-1.692025 0-.6346005-.252129-1.2432944-.70086-1.692025-.448729-.4487288-1.057423-.7008585-1.692023-.7008585-.634601 0-1.243295.2521297-1.692025.7008585-.448731.4487306-.70086 1.0574245-.70086 1.692025 0 .6346005.252129 1.2432944.70086 1.692025.44873.4487306 1.057424.7008603 1.692025.7008603z"/><path d="M79.2199231 26.2698199c1.2036339 0 2.3581313-.478209 3.2092291-1.3293069.8510979-.8510959 1.329307-2.0055952 1.329307-3.2092291 0-1.2036339-.4782091-2.3581313-1.329307-3.2092292-.8510978-.8510978-2.0055952-1.3293069-3.2092291-1.3293069-1.2036339 0-2.3581313.4782091-3.2092292 1.3293069-.8510978.8510979-1.3293069 2.0055953-1.3293069 3.2092292 0 1.2036339.4782091 2.3581332 1.3293069 3.2092291.8510979.8510979 2.0055953 1.3293069 3.2092292 1.3293069z"/><path d="M12.622102 81.9063194c1.0465327 0 2.0503421-.4157919 2.7903519-1.1558016.7400116-.7400117 1.1558035-1.7438211 1.1558035-2.7903538 0-1.0465326-.4157919-2.0503439-1.1558035-2.7903537-.7400098-.7400098-1.7438192-1.1558016-2.7903519-1.1558016-1.0465326 0-2.0503439.4157918-2.79035369 1.1558016-.74000978.7400098-1.15580163 1.7438211-1.15580163 2.7903537 0 1.0465327.41579185 2.0503421 1.15580163 2.7903538.74000979.7400097 1.74382109 1.1558016 2.79035369 1.1558016z"/><path d="M23.133756 83.2671795c1.2158263 0 2.3820181-.4830531 3.2417364-1.3427713.8597182-.8597183 1.3427713-2.0259101 1.3427713-3.2417364 0-1.2158262-.4830531-2.382018-1.3427713-3.2417363-.8597183-.8597182-2.0259101-1.3427713-3.2417364-1.3427713-1.2158262 0-2.3820181.4830531-3.2417363 1.3427713-.8597182.8597183-1.3427713 2.0259101-1.3427713 3.2417363 0 1.2158263.4830531 2.3820181 1.3427713 3.2417364.8597182.8597182 2.0259101 1.3427713 3.2417363 1.3427713z"/><path d="M60.182753 42.8487383c1.1701405 0 2.292515-.4649019 3.1199305-1.2923174.8274155-.8274154 1.2923173-1.9497881 1.2923173-3.1199305 0-1.1701405-.4649018-2.292515-1.2923173-3.1199305-.8274155-.8274136-1.94979-1.2923173-3.1199305-1.2923173-1.1701424 0-2.292515.4649037-3.1199305 1.2923173-.8274155.8274155-1.2923174 1.94979-1.2923174 3.1199305 0 1.1701424.4649019 2.2925151 1.2923174 3.1199305.8274155.8274155 1.9497881 1.2923174 3.1199305 1.2923174z"/><path d="M13.918686 72.0837253c.906922 0 1.7768185-.3603236 2.4181086-1.0016136.64129-.6412901 1.0016117-1.5111866 1.0016117-2.4181067 0-.9069202-.3603217-1.7768185-1.0016117-2.4181086-.6412901-.6412882-1.5111866-1.0016117-2.4181086-1.0016117-.9069201 0-1.7768166.3603235-2.4181067 1.0016117-.64129.6412901-1.0016136 1.5111884-1.0016136 2.4181086 0 .9069201.3603236 1.7768166 1.0016136 2.4181067.6412901.64129 1.5111866 1.0016136 2.4181067 1.0016136z"/><path d="M151.809869 22.4407135c.992457 0 1.944397-.3943053 2.64617-1.0960781.701772-.7017727 1.09608-1.6537141 1.09608-2.6461698 0-.9924556-.394308-1.9443951-1.09608-2.6461679-.701773-.7017727-1.653713-1.0960799-2.64617-1.0960799-.992456 0-1.944395.3943072-2.646168 1.0960799-.701773.7017728-1.09608 1.6537123-1.09608 2.6461679 0 .9924557.394307 1.9443971 1.09608 2.6461698.701773.7017728 1.653712 1.0960781 2.646168 1.0960781z"/><path d="M47.6302064 38.1545377c.9030926 0 1.7693187-.3588035 2.4079019-.9973867.6385832-.6385813.9973848-1.5048074.9973848-2.4079001 0-.9030926-.3588016-1.7693187-.9973848-2.4079-.6385832-.6385832-1.5048093-.9973867-2.4079019-.9973867-.9030908 0-1.7693168.3588035-2.4079.9973867-.6385832.6385813-.9973849 1.5048074-.9973849 2.4079 0 .9030927.3588017 1.7693188.9973849 2.4079001.6385832.6385832 1.5048092.9973867 2.4079.9973867z"/><path d="M31.1213148 79.1732436c1.2666645 0 2.48162-.5032505 3.3772886-1.3989173.8956667-.8956686 1.3989172-2.110624 1.3989172-3.3772885 0-1.2666663-.5032505-2.4816218-1.3989172-3.3772885-.8956686-.8956686-2.1106241-1.3989192-3.3772886-1.3989192-1.2666644 0-2.4816218.5032506-3.3772885 1.3989192-.8956686.8956667-1.3989191 2.1106222-1.3989191 3.3772885 0 1.2666645.5032505 2.4816199 1.3989191 3.3772885.8956667.8956668 2.1106241 1.3989173 3.3772885 1.3989173z"/><path d="M186.379764 46.6713255c1.241009 0 2.431357-.4930572 3.308882-1.3705821.877526-.8775268 1.370584-2.0678743 1.370584-3.3088821 0-1.2410096-.493058-2.4313571-1.370584-3.308882-.877525-.8775269-2.067873-1.370584-3.308882-1.370584-1.241008 0-2.431356.4930571-3.308883 1.370584-.877524.8775249-1.370584 2.0678724-1.370584 3.308882 0 1.2410078.49306 2.4313553 1.370584 3.3088821.877527.8775249 2.067875 1.3705821 3.308883 1.3705821z"/><path d="M203.25118 46.1139317c.853538 0 1.672231-.3391152 2.275774-.9426566.603541-.6035433.942657-1.4222362.942657-2.2757741 0-.8535378-.339116-1.6722326-.942657-2.275774-.603543-.6035433-1.422236-.9426566-2.275774-.9426566-.853538 0-1.672233.3391133-2.275774.9426566-.603543.6035414-.942657 1.4222362-.942657 2.275774 0 .8535379.339114 1.6722308.942657 2.2757741.603541.6035414 1.422236.9426566 2.275774.9426566z"/><path d="M91.9846625 38.1480809c.950694 0 1.8625793-.3777138 2.5348205-1.0499569.6722432-.6722432 1.0499589-1.5841266 1.0499589-2.5348205 0-.9506959-.3777157-1.8625793-1.0499589-2.5348224-.6722412-.6722432-1.5841265-1.049957-2.5348205-1.049957-.9506939 0-1.8625792.3777138-2.5348224 1.049957-.6722412.6722431-1.0499569 1.5841265-1.0499569 2.5348224 0 .9506939.3777157 1.8625773 1.0499569 2.5348205.6722432.6722431 1.5841285 1.0499569 2.5348224 1.0499569z"/><path d="M170.678393 34.1182981c.79625 0 1.559993-.3163528 2.123026-.8793857.563035-.5630347.879388-1.3267779.879388-2.1230284 0-.7962485-.316353-1.5599917-.879388-2.1230265-.563033-.5630328-1.326776-.8793856-2.123026-.8793856-.796249 0-1.559994.3163528-2.123027.8793856-.563033.5630348-.879387 1.326778-.879387 2.1230265 0 .7962505.316354 1.5599937.879387 2.1230284.563033.5630329 1.326778.8793857 2.123027.8793857z"/><path d="M169.388127 26.594937c1.298661 0 2.544306-.5159634 3.462599-1.4342563.918291-.9182928 1.434256-2.1639382 1.434256-3.4625987 0-1.2986624-.515965-2.5443078-1.434256-3.4626007-.918293-.9182909-2.163938-1.4342543-3.462599-1.4342543-1.298662 0-2.544307.5159634-3.4626 1.4342543-.918291.9182929-1.434256 2.1639383-1.434256 3.4626007 0 1.2986605.515965 2.5443059 1.434256 3.4625987.918293.9182929 2.163938 1.4342563 3.4626 1.4342563z"/><path d="M109.013989 34.9405043c1.161033 0 2.274672-.4612826 3.095646-1.2822583.820976-.8209739 1.282258-1.9346107 1.282258-3.0956444 0-1.1610336-.461282-2.2746723-1.282258-3.0956462-.820974-.8209757-1.934613-1.2822583-3.095646-1.2822583-1.161034 0-2.274671.4612826-3.095645 1.2822583-.820975.8209739-1.282258 1.9346126-1.282258 3.0956462 0 1.1610337.461283 2.2746705 1.282258 3.0956444.820974.8209757 1.934611 1.2822583 3.095645 1.2822583z"/><path d="M201.530761 56.1036084c.996054 0 1.951448-.3957363 2.655765-1.1000531.704319-.7043187 1.100055-1.659711 1.100055-2.6557669 0-.9960541-.395736-1.9514482-1.100055-2.6557651-.704317-.7043187-1.659711-1.100055-2.655765-1.100055-.996056 0-1.951448.3957363-2.655767 1.100055-.704317.7043169-1.100053 1.659711-1.100053 2.6557651 0 .9960559.395736 1.9514482 1.100053 2.6557669.704319.7043168 1.659711 1.1000531 2.655767 1.1000531z"/><path d="M22.2336504 90.015684c.5841636 0 1.1444801-.2320913 1.5575461-.6451573.4130661-.4130661.6451573-.9733826.6451573-1.5575461 0-.5841636-.2320912-1.1444801-.6451573-1.5575461-.413066-.4130661-.9733825-.6451573-1.5575461-.6451573-.5841635 0-1.14448.2320912-1.557548.6451573-.413066.413066-.6451554.9733825-.6451554 1.5575461 0 .5841635.2320894 1.14448.6451554 1.5575461.413068.413066.9733845.6451573 1.557548.6451573z"/><path d="M68.5285209 28.9336621c1.0906775 0 2.1368278-.4333317 2.9080538-1.2045558.7712241-.7712241 1.2045539-1.8173762 1.2045539-2.9080538 0-1.0906756-.4333298-2.1368278-1.2045539-2.9080537-.771226-.7712241-1.8173763-1.2045539-2.9080538-1.2045539-1.0906756 0-2.1368278.4333298-2.9080537 1.2045539-.7712241.7712259-1.2045539 1.8173781-1.2045539 2.9080537 0 1.0906776.4333298 2.1368297 1.2045539 2.9080538.7712259.7712241 1.8173781 1.2045558 2.9080537 1.2045558z"/><path d="M98.5487301 22.2277407c.7790419 0 1.5262829-.3095175 2.0771479-.8603826.550867-.5508671.860384-1.2981059.860384-2.0771496 0-.7790419-.309517-1.5262807-.860384-2.0771478-.550865-.5508651-1.298106-.8603826-2.0771479-.8603826-.7790418 0-1.5262825.3095175-2.0771477.8603826-.550867.5508671-.8603826 1.2981059-.8603826 2.0771478 0 .7790437.3095156 1.5262825.8603826 2.0771496.5508652.5508651 1.2981059.8603826 2.0771477.8603826z"/><path d="M183.803263 31.2736346c.980225 0 1.920434-.3894481 2.613558-1.0825721.693124-.693122 1.082572-1.633333 1.082572-2.6135566 0-.9802255-.389448-1.9204345-1.082572-2.6135585-.693124-.693124-1.633333-1.082572-2.613558-1.082572-.980224 0-1.920435.389448-2.613557 1.082572-.693124.693124-1.082572 1.633333-1.082572 2.6135585 0 .9802236.389448 1.9204346 1.082572 2.6135566.693122.693124 1.633333 1.0825721 2.613557 1.0825721z"/><path d="M90.3394476 16.2957352c1.218942 0 2.3881228-.4842911 3.2500444-1.3462126.8619215-.8619216 1.3462107-2.0311024 1.3462107-3.2500444 0-1.2189401-.4842892-2.38812087-1.3462107-3.25004245-.8619216-.86192158-2.0311024-1.34621263-3.2500444-1.34621263-1.2189401 0-2.3881209.48429105-3.2500424 1.34621263-.8619216.86192158-1.3462127 2.03110235-1.3462127 3.25004245 0 1.218942.4842911 2.3881228 1.3462127 3.2500444.8619215.8619215 2.0311023 1.3462126 3.2500424 1.3462126z"/><path d="M162.447374 20.6855216c1.127152 0 2.208291-.447822 3.005308-1.244839.797019-.7970171 1.244841-1.878158 1.244841-3.0053103 0-1.1271522-.447822-2.2082913-1.244841-3.0053102-.797017-.7970171-1.878156-1.2448391-3.005308-1.2448391-1.127152 0-2.208293.447822-3.00531 1.2448391-.797017.7970189-1.244839 1.878158-1.244839 3.0053102 0 1.1271523.447822 2.2082932 1.244839 3.0053103.797017.797017 1.878158 1.244839 3.00531 1.244839z"/><path d="M69.6228537 16.1543017c.9029582 0 1.7690556-.3587505 2.4075441-.9972372.6384886-.6384885.9972372-1.5045859.9972372-2.4075441 0-.9029602-.3587486-1.7690576-.9972372-2.4075461-.6384885-.63848665-1.5045859-.99723717-2.4075441-.99723717-.9029583 0-1.7690556.35875052-2.4075442.99723717-.6384885.6384885-.9972372 1.5045859-.9972372 2.4075461 0 .9029582.3587487 1.7690556.9972372 2.4075441.6384886.6384867 1.5045859.9972372 2.4075442.9972372z"/><path d="M77.7994416 13.5221584c.9961791 0 1.9516924-.3957874 2.6560982-1.1001932.7044058-.7044058 1.1001933-1.6599192 1.1001933-2.65609817 0-.99618092-.3957875-1.95169428-1.1001933-2.65610007-.7044058-.70440579-1.6599191-1.10019135-2.6560982-1.10019135-.9961809 0-1.9516942.39578556-2.6561 1.10019135-.7044058.70440579-1.1001914 1.65991915-1.1001914 2.65610007 0 .99617897.3957856 1.95169237 1.1001914 2.65609817.7044058.7044058 1.6599191 1.1001932 2.6561 1.1001932z"/><path d="M135.694541 8.81372685c1.168713 0 2.289717-.46433585 3.116122-1.29074052.826406-.82640656 1.29074-1.9474087 1.29074-3.11612385 0-1.16871326-.464334-2.28971539-1.29074-3.11612195C137.984258.464335858 136.863254 0 135.694541 0c-1.168714 0-2.289718.464335858-3.116122 1.29074053-.826405.82640656-1.290741 1.94740869-1.290741 3.11612195 0 1.16871515.464336 2.28971729 1.290741 3.11612385.826404.82640467 1.947408 1.29074052 3.116122 1.29074052z"/><path d="M117.987963 9.74879476c.909623 0 1.782113-.36139683 2.425313-1.00459875.643202-.64320002 1.004599-1.51568979 1.004599-2.42531302 0-.90962324-.361397-1.782113-1.004599-2.42531492-.6432-.64320003-1.51569-1.00459685-2.425313-1.00459685-.909623 0-1.782113.36139682-2.425315 1.00459685-.6432.64320192-1.004597 1.51569168-1.004597 2.42531492 0 .90962323.361397 1.782113 1.004597 2.42531302.643202.64320192 1.515692 1.00459875 2.425315 1.00459875z"/><path d="M144.496637 13.9341891c.695557 0 1.362719-.2763478 1.854554-.7681803.491832-.4918325.76818-1.158995.76818-1.8545533 0-.6955563-.276348-1.36271888-.76818-1.85455133-.491835-.49183435-1.158997-.76818215-1.854554-.76818215-.695556 0-1.362719.2763478-1.854553.76818215-.491832.49183245-.76818 1.15899503-.76818 1.85455133 0 .6955583.276348 1.3627208.76818 1.8545533.491834.4918325 1.158997.7681803 1.854553.7681803z"/><path d="M135.738354 17.9603942c1.289826 0 2.526997-.512452 3.439042-1.4244963.912044-.9120443 1.424496-2.149217 1.424496-3.4390414 0-1.2898262-.512452-2.526997-1.424496-3.43904129-.912045-.91204428-2.149216-1.42449635-3.439042-1.42449635-1.289824 0-2.526995.51245207-3.439039 1.42449635-.912045.91204429-1.424498 2.14921509-1.424498 3.43904129 0 1.2898244.512453 2.5269971 1.424498 3.4390414.912044.9120443 2.149215 1.4244963 3.439039 1.4244963z"/><path d="M155.040918 13.2406354c.89133 0 1.746274-.3541299 2.376538-.9843956.630266-.6302657.984395-1.485208.984395-2.37653807 0-.89133003-.354129-1.7462724-.984395-2.37653809-.630264-.63026568-1.485208-.98439558-2.376538-.98439558-.89133 0-1.746273.3541299-2.376538.98439558-.630266.63026569-.984394 1.48520806-.984394 2.37653809 0 .89133007.354128 1.74627237.984394 2.37653807.630265.6302657 1.485208.9843956 2.376538.9843956z"/><path d="M4.22191635 95.2290187c1.11966573 0 2.19362306-.4448483 2.9853456-1.2365708.79172253-.7917225 1.23657075-1.8656799 1.23657075-2.9853456 0-1.1196657-.44484822-2.1936231-1.23657075-2.9853456-.79172254-.7917225-1.86567987-1.2365707-2.9853456-1.2365707-1.11966573 0-2.19362306.4448482-2.9853456 1.2365707C.444848217 88.8134792 0 89.8874366 0 91.0071023c0 1.1196657.444848217 2.1936231 1.23657075 2.9853456.79172254.7917225 1.86567987 1.2365708 2.9853456 1.2365708z"/><path d="M100.017566 12.9514498c.602815 0 1.181019-.2395002 1.607275-.6657561.426254-.426254.665755-1.0044587.665755-1.6072732 0-.6028164-.239501-1.18102104-.665755-1.60727507-.426256-.42625593-1.00446-.6657561-1.607275-.6657561-.6028142 0-1.1810207.23950017-1.6072748.6657561-.4262559.42625403-.6657561 1.00445867-.6657561 1.60727507 0 .6028145.2395002 1.1810192.6657561 1.6072732.4262541.4262559 1.0044606.6657561 1.6072748.6657561z"/><path d="M178.105633 23.3571153c.727458 0 1.425218-.289021 1.939608-.8034114.514391-.5143904.803412-1.2121501.803412-1.939606 0-.7274579-.289021-1.4252176-.803412-1.939608-.51439-.5143904-1.21215-.8034113-1.939608-.8034113-.727456 0-1.425217.2890209-1.939606.8034113-.51439.5143904-.803411 1.2121501-.803411 1.939608 0 .7274559.289021 1.4252156.803411 1.939606.514389.5143904 1.21215.8034114 1.939606.8034114z"/><path d="M126.837971 9.6352951c1.052115 0 2.06128-.41800846 2.805238-1.16196688.743958-.74395841 1.161969-1.75312288 1.161969-2.80523967 0-1.05211489-.418011-2.06127936-1.161969-2.80523777-.743958-.74395842-1.753123-1.16196688-2.805238-1.16196688-1.052117 0-2.061281.41800846-2.805239 1.16196688-.743957.74395841-1.161967 1.75312288-1.161967 2.80523777 0 1.05211679.41801 2.06128126 1.161967 2.80523967.743958.74395842 1.753122 1.16196688 2.805239 1.16196688z"/><path d="M36.2464166 69.8745064c1.2120915 0 2.3747019-.481569 3.2317795-1.3386466.8570776-.8570776 1.3386467-2.0196881 1.3386467-3.2317796 0-1.2120914-.4815691-2.3747019-1.3386467-3.2317814-.8570776-.8570776-2.019688-1.3386466-3.2317795-1.3386466-1.2120915 0-2.374702.481569-3.2317795 1.3386466-.8570795.8570795-1.3386485 2.01969-1.3386485 3.2317814 0 1.2120915.481569 2.374702 1.3386485 3.2317796.8570775.8570776 2.019688 1.3386466 3.2317795 1.3386466z"/></g><path d="M174.343403 58.5608099l-4.717304-.1127151-4.718195.1081749-4.717304.3278041-4.714687.543365-4.710507.7521692-4.705013.9517087-4.69849 1.1397126-4.691245 1.3142-4.683559 1.4734825-4.675677 1.6161996-4.667791 1.7412967-4.660048 1.8480396-4.652548 1.9359952-4.645351 2.0050347-4.638495 2.0553127-4.6319886 2.087242-9.245869 4.2004424L85.5547158 84.629l-4.6095084 2.0480262-4.6047739 2.0022651-4.6004061 1.9449101-4.596424 1.8775069-4.5928457 1.8016218-4.5896925 1.7188167-4.5869951 1.630629-4.5847664 1.538526-4.5830242 1.4438982-4.5817758 1.348038-4.5810169 1.252112-4.5807365 1.15718-4.5809111 1.064165-4.5815033.973856-4.5824744.886923-4.5837708.803898-5.02825042.794353-.22164768 1.529407c-.84193844 5.80952-1.26524086 11.675102-1.26524086 17.551741 0 4.578191.25690823 9.150408.76877642 13.695412l.32015511 2.842735 6.63948033-2.947302 4.6311721-2.088159 9.2454301-4.200244 4.6141762-2.07925 4.6080416-2.041879 4.6015362-1.986215 4.5946779-1.912033 4.5874818-1.819408 4.579982-1.708716 4.5722391-1.580642 4.5643527-1.436194 4.5564697-1.276658 4.5487858-1.103606 4.5415385-.918819 4.5350194-.724288 4.5295217-.522106 4.5253431-.314478 4.5227272-.103636 4.5218343.108177 4.522727.318721 4.525343.525796 4.529522.727224 4.535019.920886 4.541538 1.104762 4.548786 1.276933 4.55647 1.435669 4.564355 1.579433 4.572239 1.70695 4.579982 1.817221 4.587481 1.909553 4.594678 1.983556 4.601537 2.039148 4.608041 2.07654 9.234191 4.195159 4.625415 2.085611 4.630521 2.057434 4.635257 2.015662 4.639623 1.961729 4.643605 1.897117 4.647185 1.823377 4.650335 1.742067 4.653035 1.654735 4.655263 1.56289 4.657007 1.467969 4.658255 1.371338 4.659012 1.27425 4.659293 1.177845 4.65912 1.083133 6.552027 1.394634.544456-1.870668c3.087332-10.607605 4.725444-21.589089 4.865908-32.644671l.009834-1.541372-.009707-1.554694-.032272-1.663513c-.394527-14.99445-3.537054-29.77825-9.273444-43.6271186l-.423286-1.0091183-.755735-1.7482854-4.762886-2.1421451-4.630611-2.0519604-4.638495-2.0023771-4.645351-1.9335144-4.652548-1.8458523-4.660048-1.7395316-4.667791-1.6149896-4.675677-1.4729583-4.683559-1.314475-4.691243-1.1408689-4.698491-.9537746-4.705012-.7551059-4.710507-.547054-4.714687-.3320486zm-4.766394 1.9838453 4.620015.1081749 4.620015.3232639 4.620015.5345803 4.620015.7396955 4.620015.9362984 4.620013 1.1222363 4.620015 1.2955675 4.620015 1.4545748 4.620016 1.5978162 4.620015 1.7241233 4.620015 1.8326313 4.620015 1.9227742 4.620015 1.9942945 4.620015 2.0472301 4.023742 1.8097095c.286065.657132.566371 1.3170831.84087 1.9797824 5.640636 13.6176979 8.726938 28.1486757 9.114208 42.8654847l.031915 1.635929.009707 1.528051-.009707 1.528052c-.138226 10.879478-1.751837 21.672274-4.782526 32.085261l-4.608194-.980616-4.620015-1.073649-4.620015-1.167513-4.620015-1.263182-4.620015-1.359686-4.620015-1.455934-4.620015-1.550709-4.620016-1.642682-4.620015-1.730442-4.620015-1.812498-4.620013-1.887312-4.620015-1.953321-4.620015-2.008962-4.620015-2.052731-4.620015-2.083168-9.24003-4.1978-4.620015-2.081891-4.620015-2.047231-4.620015-1.994296-4.620015-1.922774-4.620015-1.83263-4.620015-1.724123-4.620015-1.597816-4.620016-1.454577-4.620015-1.295565-4.620015-1.122239-4.620015-.936296-4.620015-.739697-4.620015-.534581-4.620015-.323262-4.6200149-.108177-4.620015.108177-4.6200151.323262-4.6200151.534581-4.620015.739697-4.6200151.936296-4.620015 1.122239-4.6200151 1.295565-4.6200131 1.454577-4.6200151 1.597816-4.620015 1.724123-4.6200151 1.83263-4.620015 1.922774-4.6200151 1.994296-4.620015 2.047231-4.6200151 2.081891-9.2400301 4.1978-4.6200151 2.083168-4.02481039 1.786635c-.50235626-4.460544-.75560184-8.954377-.75560184-13.460711 0-5.785589.41743648-11.550573 1.24355879-17.250958l3.53685344-.55896 4.6200151-.810585 4.620015-.894548 4.6200151-.982425 4.6200151-1.073649 4.620015-1.167511 4.6200151-1.263182 4.620015-1.359688 4.6200151-1.455934 4.620015-1.5507071 4.6200151-1.6426822 4.6200131-1.7304419 4.6200151-1.8125001 4.620015-1.8873122 4.6200151-1.9533184 4.620015-2.0089646 4.6200151-2.0527291 4.6200151-2.0831691 9.2400299-4.1978005 4.620015-2.0818914 4.620015-2.0472301 4.620015-1.9942945 4.620015-1.9227742 4.620015-1.8326313 4.620015-1.7241233 4.620016-1.5978162 4.620015-1.4545748 4.620015-1.2955675 4.620015-1.1222363 4.620015-.9362984 4.620015-.7396955 4.620015-.5345803 4.620015-.3232639 4.620015-.1081749z" fill="#fff"/><path d="M169.577009 60.0445182l4.643329.1087207 4.64291.3248659 4.642098.5371354 4.64094.7430459 4.639505.9402481 4.637859 1.1265711 4.636078 1.300072 4.63422 1.4590474 4.632345 1.6020804 4.635226 1.7299114L220.58929 71.752l4.626056 1.9253349 4.624421 1.9962216 4.622873 2.0485071 4.201427 1.8932996c.31342.7169112.620008 1.4371762.919703 2.1607034 5.743334 13.8656335 8.849438 28.6741864 9.166866 43.6662084h0l.017307 1.023371.009707 1.534404-.009737 1.531227c-.140769 11.079581-1.805359 22.069634-4.932696 32.663117h0l-5.071164-1.077802-4.629338-1.07591-4.62938-1.169976-4.629312-1.265821-4.629133-1.362464-4.628834-1.458804-4.628419-1.553613-4.627888-1.645556-4.627244-1.733213-4.626493-1.815092-4.625638-1.88965-4.62469-1.955325-4.623649-2.01056-4.62252-2.053852-4.621302-2.08375-9.238638-4.197171-4.61716-2.080616-4.61561-2.045303-4.613974-1.991735-4.612258-1.919622-4.610471-1.828956-4.614344-1.722007-4.60769-1.593554-4.60581-1.450104-4.603952-1.291061-4.602169-1.117904-4.600526-.932346-4.599089-.736347-4.597933-.532026-4.59712-.32166-4.5967009-.107631-4.5967006.107631-4.5971203.32166-4.5979328.532026-4.5990895.736347-4.6005254.932346-4.6021695 1.117904-4.6039519 1.291061-4.6058076 1.450104-4.6076952 1.593555-4.6047948 1.718332-4.6122584 1.829477-4.6139742 1.920214-4.6156093 1.992369-4.6171603 2.045955-4.618623 2.081261-9.2413176 4.198383-4.6224993 2.08428-4.64629409 2.064656c-.55650033-4.701895-.83715754-9.441846-.83715754-14.195651 0-5.932657.43711133-11.843738 1.30197703-17.6862h0l3.8920297-.616195 4.6113736-.808991 4.6110646-.89273 4.6108331-.980382 4.6106919-1.071388 4.6106502-1.165048 4.6107171-1.260542 4.610898-1.356911 4.6111957-1.453064 4.6116111-1.5478031 4.6121424-1.6398085 4.6127841-1.7276702 4.6135373-1.8099065 4.6143904-1.8849744 4.6153399-1.9513137 4.6163813-2.0073673 4.61751-2.0516078 4.6187277-2.0825865 9.2414221-4.1984304 4.62287-2.0831671 4.624421-2.0491571 4.626056-1.9968552 4.627771-1.9259264 4.62956-1.8363049 4.625686-1.7262395 4.63234-1.6020787 4.63422-1.4590474 4.636078-1.300072 4.637861-1.1265711 4.639505-.9402481 4.64094-.7430459 4.642098-.5371354 4.642909-.3248659 4.64333-.1087207z" stroke="#fff" fill="#7db0bc"/><path d="M95.6567681 115.984834l4.6200149.108177 4.620015.323262 4.620015.53458 4.620015.739696 4.620015.936298 4.620015 1.122238 4.620015 1.295566 4.620016 1.454576 4.620015 1.597817 4.620015 1.724123 4.620015 1.832629 4.620015 1.922775 4.620015 1.994296 4.620015 2.04723 4.620015 2.081891 4.620015 2.098858 4.620015 2.098943 4.620015 2.083167 4.620015 2.052731 4.620015 2.008963 4.620015 1.95332 4.620013 1.887312 4.620015 1.812499 4.620015 1.730441 4.620016 1.642683 4.620015 1.550709 4.620015 1.455934 4.620015 1.359686 4.620015 1.263181 4.620015 1.167514 4.620015 1.073648 3.954374.840632c-1.079325 3.46378-2.316644 6.88281-3.709777 10.24613-6.044533 14.592793-14.904756 27.853055-26.073597 39.021894-11.168839 11.168841-24.429101 20.029064-39.021894 26.073597-14.592793 6.044533-30.234339 9.15583-46.029466 9.15583-15.795126 0-31.4366724-3.111297-46.0294646-9.15583-14.5927937-6.044533-27.8530553-14.904756-39.0218942-26.073597-11.1688408-11.168839-20.0290645-24.429101-26.0735973-39.021894-4.0370995-9.746419-6.7657389-19.960667-8.13286833-30.37604l3.75745043-1.669343 4.6200151-2.083167 4.620015-2.098943 4.6200151-2.098858 4.6200151-2.081891 4.620015-2.04723 4.6200151-1.994296 4.620015-1.922775 4.6200151-1.832629 4.620015-1.724123 4.6200151-1.597817 4.6200131-1.454576 4.6200151-1.295566 4.620015-1.122238 4.6200151-.936298 4.620015-.739696 4.6200151-.53458 4.6200151-.323262 4.620015-.108177z" fill="#5c7da2"/><path d="M104.896798 147.1301v15.493013h27.720091v21.39557h27.72009v14.634733h27.72009v6.176958h27.720089l-1.42e-4 5.398572c-.893548.953836-1.803239 1.893743-2.728783 2.819287-11.168839 11.168841-24.429101 20.029064-39.021894 26.073597-14.592793 6.044533-30.234339 9.15583-46.029466 9.15583-15.795126 0-31.4366724-3.111297-46.0294646-9.15583-14.5927937-6.044533-27.8530553-14.904756-39.0218942-26.073597-8.4721113-8.47211-15.6158528-18.147617-21.2099038-28.695291l9.187e-4-14.434999h27.7200904v-19.306724h27.7200884V147.1301h27.7200901z" fill="#444876"/><path d="M105.84326 146.183639l-3.73e-4 15.493 27.720463 1.2e-5-4.63e-4 21.394988 27.720553 5.83e-4-5.53e-4 14.634417 27.720644 3.16e-4-6.44e-4 6.176684 27.720732 2.73e-4 9.69e-4 5.321701c-.62354.681274-1.255198 1.355663-1.894872 2.023015l-6.87e-4-5.453449-25.826142-5.4e-4 1.64e-4 25.883722c-.627936.369551-1.259309.733444-1.894045 1.091629l6.1e-5-33.151418-25.82618-9.33e-4-4.4e-5 43.982558c-.629845.181382-1.261068.357585-1.893601.528596l-1.37e-4-59.144408-25.826218-7.46e-4-1.56e-4 63.185171c-.630947.029229-1.262309.053496-1.894029.072791l4.42e-4-84.652922-25.826257-4e-5 1.23e-4 82.651164c-.632524-.11853-1.264083-.242132-1.894615-.370796l7.87e-4-97.773901H78.1221433l-2.562e-4 1.589533.0012822 1.19e-4-.0011063 87.785167c-.6339786-.288888-1.2652254-.583183-1.893675-.882843l8.325e-4-85.010891H50.4021817l-2.946e-4 17.414448.0011938 8.43e-4-.0010986 50.930214c-.6363352-.537251-1.2672734-1.081266-1.8927022-1.63197l-2.12e-5-47.405723H22.6822201l-.0012376 15.236431c-.6506614-1.179348-1.281741-2.37004-1.8929207-3.571597l.0020059-13.557355 27.7198194-8.43e-4 2.71e-4-19.305881 27.719729-1.19e-4 3.594e-4-3.481H105.84326z" fill="#fff"/><path d="M127.996873 0c16.808399 0 33.453348 3.31088604 48.982283 9.74318081C192.508093 16.1754779 206.619 25.604085 218.50433 37.4894168c11.885332 11.88533 21.313939 25.9962373 27.746236 41.525174 6.224802 15.028002 9.526327 31.1011782 9.732852 47.3562062l.010329 1.626076-.010329 1.626077c-.206525 16.255028-3.50805 32.328204-9.732852 47.356206-6.432297 15.528937-15.860904 29.639844-27.746236 41.525174-11.88533 11.885332-25.996237 21.313939-41.525174 27.746236-15.528935 6.432295-32.173884 9.743181-48.982283 9.743181-16.808398 0-33.4533468-3.310886-48.9822823-9.743181-15.5289366-6.432297-29.6398439-15.860904-41.5251738-27.746236-11.8853319-11.88533-21.313939-25.996237-27.74623613-41.525174C3.31088604 161.450221 0 144.805272 0 127.996873c0-16.808398 3.31088604-33.4533468 9.74318081-48.9822823C16.1754779 63.4856541 25.604085 49.3747468 37.4894168 37.4894169c11.88533-11.8853319 25.9962373-21.313939 41.525174-27.74623613C94.5435262 3.31088604 111.188475 0 127.996873 0zm0 4.20293033c-16.25647 0-32.3548735 3.20217139-47.3738915 9.42325327-15.0190193 6.2210813-28.6665862 15.3400941-40.1616441 26.8351539-11.4950597 11.4950578-20.6140725 25.1426247-26.8351538 40.1616441-6.22108188 15.0190179-9.42325327 31.1174214-9.42325327 47.3738914 0 16.256471 3.20217139 32.354874 9.42325327 47.373892 6.2210813 15.01902 15.3400941 28.666587 26.8351539 40.161645 11.4950578 11.495059 25.1426247 20.614072 40.1616441 26.835153 15.0190179 6.221082 31.1174214 9.423254 47.3738914 9.423254 16.256471 0 32.354874-3.202172 47.373892-9.423254 15.01902-6.221081 28.666587-15.340094 40.161645-26.835154 11.495059-11.495057 20.614072-25.142624 26.835153-40.161644 6.020402-14.534533 9.21352-30.079938 9.413263-45.801209l.009991-1.572683-.009991-1.572682c-.199743-15.721271-3.392861-31.2666759-9.413263-45.8012095-6.221081-15.0190193-15.340094-28.6665862-26.835154-40.1616441-11.495057-11.4950597-25.142624-20.6140725-40.161644-26.8351538-15.019018-6.22108188-31.117421-9.42325327-47.373892-9.42325327z" fill="#444876"/></svg>