<svg width="256px" height="265px" viewBox="0 0 256 265" xmlns="http://www.w3.org/2000/svg" preserveAspectRatio="xMidYMid"><path d="M233.559383 141.926599l.171536.013443 17.891371 1.870336c1.256072.135344 2.409437.748243 3.224587 1.706689l.132687.162918-.16983.084551c.836038 1.055435 1.204858 2.406071 1.019719 3.739943-3.909046 31.07702-18.638486 59.784413-41.603672 81.083353-23.828922 22.10072-55.128254 34.380131-87.628799 34.380131-15.785058.02527-31.4358244-2.880856-46.1561116-8.569026l-.8019973-.313022c-1.2048578-.445243-2.1728985-1.361488-2.6853959-2.532509l-.0771029-.186984c-.5018418-1.166146-.5297221-2.478576-.0836404-3.660361l7.0620478-17.229671c.9569081-2.435766 3.6688392-3.662685 6.1179932-2.799123l.1628654.060677c36.0968957 13.937864 76.9804227 6.087702 105.3488807-20.228198 18.056831-16.591758 29.700144-39.006631 32.89196-63.320266.338143-2.510619 2.516228-4.337012 5.012244-4.270372l.170658.007491h0zM43.4790584 206.236792l.2522066-.001974.2531496.002205c8.1198215.093058 14.6575516 6.658698 14.7458057 14.748741l6.53e-4.253305c0 .083822-9.83e-4.168374-.0024407.252196-.1414051 8.283853-6.9703899 14.885423-15.2542421 14.744747-8.2838525-.141404-14.8846943-6.97039-14.7447472-15.254242.1385193-8.114794 6.6944411-14.61527 14.7496151-14.744978zm-38.54938167-59.15442H151.245907c2.688532.022839 4.860623 2.175734 4.928235 4.843789l.0018.170985v18.316316c.022301 2.688531-2.094005 4.896962-4.759871 5.00971l-.170893.004335H4.92967673C2.24043139 175.404668.0690245784 173.251074 0 170.583674v-.170941-18.316225-.171032c.0675844901-2.609384 2.14770093-4.726418 4.75508624-4.838611l.17459049-.004493zM169.561494 7.31085903c1.266813.45701499 2.293822 1.40748956 2.84705 2.63494292.508038 1.23911565.508038 2.62838295 0 3.86676965L166.034388 30.81178c-.883417 2.5205071-3.639356 3.8507342-6.162049 2.9746066-33.394895-11.6535181-70.4502835-5.0322674-97.7421696 17.4656989C45.1214853 65.4887952 33.0444813 84.7351764 27.622986 106.242579c-.5612465 2.172097-2.5168625 3.691107-4.7596618 3.697667h-1.1049995l-17.50870376-4.207162c-1.30544476-.306863-2.42647995-1.137071-3.10216241-2.295279h-.08528031c-.708482582-1.15748-.908198865-2.556223-.551770901-3.8667701C7.46330374 72.0393435 23.0207648 47.4450851 44.9188535 29.3663881 79.7394601.699812731 127.018281-7.66640438 169.561494 7.31085903zM104.754289 80.7452242H251.06979c2.622585.0213913 4.765953 2.0726387 4.92222 4.6702462l.007815.1739668v18.3163158c.0223 2.689245-2.092606 4.89769-4.759099 5.010439l-.170936.004335H104.754289c-2.67162-.045657-4.8181902-2.190815-4.8859584-4.841222l-.0018408-.173552V85.7592689c-.0229643-2.67162 2.0662662-4.8719517 4.7143232-5.0081079l.173476-.0059368zM206.325863 24.861606l.252186-.0019735.253127.002206c8.119822.0930576 14.657552 6.6586981 14.745806 14.7480346l6.53e-4.2532823c0 .0845513-9.83e-4.1691026-.002441.2529253-.140676 8.2838522-6.97039 14.884694-15.254242 14.7440181-8.283852-.140676-14.884694-6.9703897-14.744018-15.2535133.137805-8.1155083 6.694412-14.6152997 14.748929-14.7449795z" fill="#4fb58b"/></svg>