<svg width="256px" height="269px" viewBox="0 0 256 269" xmlns="http://www.w3.org/2000/svg" preserveAspectRatio="xMidYMid"><path d="M234.152874.00343857381c.655151-.04139610011 1.276773.29359024719 1.602467.86355552419.325695.569965282.298706 1.275586222-.069574 1.819008062h0L169.388124 92.7434941c-.485866.5484163-1.183433.8623608-1.916117.8623608-.732684 0-1.430251-.3139445-1.916117-.8623608h0L142.179265 66.684305c-.570963-.5926915-1.380075-.8942033-2.199666-.819695-.819591.0745082-1.561068.5169827-2.015791 1.2029183h0l-14.179265 18.0114984c-.448621 1.0142255-.301249 2.1931982.383223 3.065787h0l42.154571 43.6874643c.485866.548416 1.183433.862361 1.916117.862361.732684 0 1.430251-.313945 1.916117-.862361h0l82.776248-93.123279c.488712-.5252453 1.246092-.7036363 1.917853-.4517257.671762.2519106 1.125092.8843178 1.147934 1.6013958h0V266.343681c.031713.517258-.159956 1.023274-.5264 1.389717-.366443.366444-.872459.558113-1.389717.5264h0H1.91951123c-.51725778.031713-1.023274278-.159956-1.389717572-.5264-.366443294-.366443-.5581129695-.872459-.52639927643-1.389717h0V1.91955542C-.0283193115 1.40229764.163350364.896281144.529793658.52983785.896236952.163394556 1.40225345-.0282751193 1.91951123.00343857381h0zM169.004901 152.909563c-11.408993-.200614-22.404458 4.26972-30.436819 12.374444-8.03236 8.104724-12.403903 19.139839-12.100975 30.546574 0 26.442412 19.161168 43.304241 44.070687 43.304241 11.530942.286947 22.838199-3.212919 32.190763-9.963808.866977-.787241 1.029742-2.089359.383224-3.065787h0l-6.898021-10.347031c-.775536-.889243-2.095223-1.054204-3.065787-.383223-5.995606 4.09457-13.052174 6.357997-20.310839 6.514797-13.412818 0-21.843732-8.430914-23.376625-18.394722.027816-.411225.355222-.738631.766446-.766447h0 57.866729c1.233674-.083448 2.215893-1.065666 2.299341-2.29934h0v-2.29934c0-26.825636-16.861829-45.220358-41.388124-45.220358zm-57.100283-14.562488c-11.639748-9.514304-26.3677423-14.423636-41.3881235-13.796041-26.0591892 0-42.1545707 15.328935-42.1545707 33.723656 0 41.771348 63.6150794 28.35853 63.6150794 47.902922 0 6.131574-6.1315739 12.263148-19.1611685 12.263148-12.3748316.10211-24.3139909-4.563768-33.3404332-13.029595-.5388902-.503824-1.2689387-.750671-2.0030044-.677264-.7340658.073406-1.4007772.459929-1.8292293 1.060487h0l-9.9638076 13.796042c-.6465181.976428-.4837534 2.278546.3832233 3.065787 10.347031 9.580584 24.9095191 16.095381 45.2203577 16.095381 29.8914228 0 44.4539108-15.328935 45.2203578-35.25655 0-41.388124-63.6150795-29.508199-63.6150795-47.136474 0-6.514798 5.7483505-11.113478 15.7121581-11.113478 10.9836123-.150513 21.6807316 3.505465 30.2746463 10.347031.5052385.413909 1.1560391.606595 1.8051811.534468.649141-.072127 1.241772-.402971 1.643829-.917692h0l9.963808-13.412817c.413909-.505239.606595-1.15604.534468-1.805181-.072127-.649142-.402971-1.241772-.917692-1.64383zm57.483506 31.424317c10.423315-.583048 19.421413 7.226622 20.310839 17.628275-.027816.411224-.355223.73863-.766447.766446h0-39.088784c-.411225-.027816-.738631-.355222-.766447-.766446 1.281391-10.197327 10.034663-17.794507 20.310839-17.628275z" fill="#2cb134"/></svg>