<svg width="256px" height="295px" viewBox="0 0 256 295" xmlns="http://www.w3.org/2000/svg" preserveAspectRatio="xMidYMid"><title>Semantic Release</title><path d="M127.410138 176.958525c-22.703779 0-36.8934928-24.577769-25.541603-44.239631 5.268645-9.125161 15.004903-14.746544 25.541603-14.746544 22.703779 0 36.894083 24.57777 25.542194 44.239632-5.268645 9.125161-15.004903 14.746543-25.542194 14.746543zm0-8.847926c15.892645 0 25.825917-17.204498 17.8793-30.967742-3.687816-6.387613-10.503079-10.322581-17.8793-10.322581-15.892645 0-25.825327 17.204498-17.878709 30.967742 3.687815 6.387613 10.503078 10.322581 17.878709 10.322581zM82.5806452 38.3410138v21.2350231c1.1797235 6.4884792 12.3870967 32.4423963 20.6451608 47.7788021-10.6175111-7.6682031-34.2119811-25.3640556-40.7004604-34.2119819-4.3643871-5.0380092-7.7637603-10.8363502-10.0276497-17.1059907l-41.8801844 23.59447v50.7281106c5.3087558 2.949309 13.5668203 8.847926 18.2857143 10.617512 6.4884793 2.359447 34.8018433 5.308755 51.9078341 5.898617-12.3870968 5.308756-38.9308756 17.105991-50.1382488 18.285714-9.4377881 1.769586-15.9262673.589862-20.0552996 0v50.138249l40.7004609 23.004608c5.3087557-2.359447 14.156682-7.078341 18.2857142-10.027649 5.3087558-4.129033 21.8248848-27.133641 30.6728114-41.880185-1.1797238 12.976959-4.7188943 41.880185-8.8479266 52.497696-3.5391705 8.847926-7.6682027 13.56682-10.0276497 17.105991L128 282.543779l43.059908-24.774194c.589862-5.308756 1.179723-16.516129 0-22.414746-.589862-6.48848-12.387097-32.442397-20.0553-47.778802 10.617512 8.258064 33.62212 25.953917 40.700461 34.801843 6.488479 7.668203 8.847926 14.156682 10.02765 17.695853l43.649769-24.774194v-49.548387c-4.718894-2.949309-14.156682-8.847926-20.055299-11.207373-5.898618-2.359447-34.211982-5.308756-51.317972-5.898618 12.387096-5.898617 38.930875-17.10599 50.138248-18.285714 10.617512-1.769585 17.105991-.589862 21.235023.589862V79.6313364l-41.290322-23.59447-18.285714 11.2073732c-5.308756 4.1290323-21.824885 27.1336406-31.262673 41.2903224 1.769585-12.9769583 5.308756-41.8801841 9.437788-52.4976956 3.53917-8.8479263 7.668203-14.1566821 10.617511-17.1059908L128 12.3870968l-45.4193548 25.953917zM128 0l128 73.7327189V221.198157l-128 73.732719L0 221.198157V73.7327189L128 0z" fill="#494949"/></svg>