<svg width="256px" height="160px" viewBox="0 0 256 160" xmlns="http://www.w3.org/2000/svg" preserveAspectRatio="xMidYMid"><path d="M26.5234742 66.6177453l44.3489396 44.9949927c12.7788153 12.995571 33.7183412 12.995571 46.4964032 0l35.11446-35.712044c5.047102-5.1329759 13.315437-5.1329759 18.362539 0l17.395415 17.6919494-44.24154 45.1040486c-13.744433 13.978499-31.784848 20.858994-49.8252626 20.858994-18.0404153 0-36.0805291-6.989626-49.8254889-20.968125L0 93.5926434l26.5234742-26.9748981z" fill="#f06332"/><path d="M211.650871 20.9684206l44.349165 45.1038975-26.630873 27.0838032-44.349166-45.1035211c-12.885688-13.105304-33.610715-13.105304-46.496403 0l-35.113708 35.7115172c-5.0471011 5.1329003-13.3154364 5.1329003-18.3625379 0L67.6513305 66.0723181l44.3490145-45.1038975c27.489619-27.95789413 72.160907-27.95789413 99.650526 0h0z" fill="#029d74"/></svg>