<svg width="256px" height="388px" viewBox="0 0 256 388" xmlns="http://www.w3.org/2000/svg"><defs><linearGradient x1="17.6326981%" y1="22.2856515%" x2="0%" y2="77.7143485%" id="a"><stop stop-color="#aace36" offset="0%"/><stop stop-color="#2fa042" offset="100%"/></linearGradient><linearGradient x1="0%" y1="30.3118343%" x2="100%" y2="45.4269918%" id="b"><stop stop-color="#79a933" offset="0%"/><stop stop-color="#70a333" offset="13%"/><stop stop-color="#559332" offset="34%"/><stop stop-color="#277b2f" offset="58%"/><stop stop-color="#005f27" offset="86%"/><stop stop-color="#005020" offset="100%"/></linearGradient><linearGradient x1="13.7968044%" y1="0%" x2="64.4963053%" y2="100%" id="c"><stop stop-color="#79ab35" offset="0%"/><stop stop-color="#7cba3d" offset="53%"/><stop stop-color="#00aa4b" offset="100%"/></linearGradient></defs><path d="M252.875852 231.535407l-.001185.001186c-7.182223-35.905186-29.093926-66.492445-59.188148-85.166223-.002371-.001185-.009482-.005926-.011852-.007111-.009482-.007111-.022519-.014222-.033186-.020148-.008296-.005926-.018962-.013037-.029629-.018963-.008296-.004741-.011852-.007111-.018963-.011852-2.784-1.723259-5.639111-3.346963-8.557037-4.861629l-80.630519-40.416-.001185.00237.001185-.00237.001186-.001186-4.334223-2.1736291c-.2536293-.1220741-.5048886-.2465186-.7561479-.3733334h-.0011851c-.0177778-.0094815-.0343704-.0177778-.0521482-.0260741l-.0011852-.0011851c-.0165926-.0082963-.0331852-.0165926-.0497777-.0248889-.0011852-.0011852-.0035556-.0023704-.0047408-.0023704-.0165926-.0082963-.032-.0165926-.0474074-.0237037-.0035556-.0023704-.0035556-.0023704-.0071111-.0047407-.0154074-.0071112-.0296296-.0142223-.0438519-.0213334-.0035555-.0023703-.0071111-.0047407-.0106666-.0059259-.0130371-.0071111-.0260741-.013037-.0391111-.0201482-.0047408-.0023703-.0094815-.0047407-.0154074-.0071111-.0106667-.0059259-.0213334-.0118518-.032-.0165926-.0071112-.0035555-.0154075-.0082963-.0213334-.0118518-.0071111-.0035556-.0154074-.0071111-.0225185-.0106667-.0118518-.0059259-.0213333-.0106666-.032-.0165926-.0011852-.0011852-.0035556-.0023703-.0047407-.0023703C90.5457778 93.9875556 83.4014815 87.6053333 78.176 79.8281481c-5.9247407-8.8201481-9.3807407-19.4358518-9.3807407-30.861037C68.7952593 27.7404444 80.7371852 9.3037037 98.2684444 0L72.242963 13.2965926C29.4103704 34.6725926 0 78.9191111 0 130.036148l1.93185185 22.428445h.00118519c0-.001186-.00118519-.003556-.00118519-.004741.03318519.009481.06755556.022518.10074074.033185-.03318518-.010667-.06637037-.018963-.09955555-.028444C8.95051852 192.95763 34.637037 227.047111 69.8192593 245.532444l.0035555.002371c.0154074.007111.0296296.015407.0450371.023704.0047407.00237.0059259.00237.0106666.00474.0130371.007111.0296296.017778.0426667.023704.0047407.003556.0071111.004741.013037.007111.0142222.008296.0260741.014222.0414815.021333.0023704.002371.0071111.004741.0094815.005926.0462222.024889.0888889.046223.1339259.071111.0082963.003556.0094815.004741.0165926.008297.0106667.005926.0237037.011852.0343704.017778.0082963.00474.0154074.008296.0237037.014222.0106666.00474.0213333.010666.032.016592.0106666.004741.0154074.007111.0248889.013037.0106666.005926.0189629.009482.0296296.015408.013037.007111.0213333.011852.0331852.017778.0071111.003555.0154074.008296.0225185.011851.0177778.008297.0379259.018963.0568889.02963l8.0853333 4.053333c-.0094815-.022518-.0177778-.046222-.0272592-.069926.0106666.024889.0201481.047408.0296296.071112l-.0023704-.001186c.0011852.001186.0011852.001186.0011852.002371l9.6201482 4.820148 67.2568884 33.712592c18.506667 8.973038 31.277037 27.936 31.277037 49.886815v.126815c0 .017778-.001185.036741-.001185.054519v.199111c-.001185.016592-.001185.033185-.001185.049778v.078222c0 .010666 0 .022518-.001185.030815v.096c0 .008296-.001185.017777-.001185.026074v.069926c0 .010666-.001185.022518-.001185.030814v.020149c0 .037925-.001186.074666-.001186.112592v.009482c-.227555 14.296888-5.873777 27.278222-14.972444 36.980148-4.168296 4.448-9.063111 8.206222-14.494815 11.087407l16.712296-8.535704 9.314371-4.753777c42.829037-21.381926 72.242963-65.630815 72.242963-116.751408l-2.552889-25.707852" fill="#7cba3d"/><path d="M0 130.036148C0 78.9191111 29.4103704 34.6725926 72.242963 13.2965926L98.2684444 0C80.7371852 9.3037037 68.7952593 27.7404444 68.7952593 48.9671111c0 11.4251852 3.456 22.0408889 9.3807407 30.861037-8.8177778 22.0693329-13.9496296 44.7146669-15.6776296 67.2497779-11.1502223 5.635555-23.730963 8.79763-36.9813334 8.798815-1.2728889 0-2.5493333-.02963-3.834074-.088889-6.848-.311704-13.46251856-1.456593-19.75111115-3.323259L0 130.036148h0zM186.634667 338.368v-.055704.055704h0zm0 .06163v-.047408.047408h0zm-.001186.064c0-.017778.001186-.036741.001186-.054519 0 .018963-.001186.035556-.001186.054519h0zm0 .058074v-.043852.043852h0zm0 .065185v-.053333.053333h0zm0 .056889v-.040297.040297h0zm-.001185.068741c0-.016593 0-.033186.001185-.049778-.001185.015407-.001185.033185-.001185.049778h0zm0 .052148v-.030815.030815h0zm-.001185.058074c.001185-.009482.001185-.021334.001185-.030815 0 .009481 0 .020148-.001185.030815h0zm0 .067555v-.027259.027259h0zm-.001185.054519c0-.009482.001185-.018963.001185-.026074 0 .008296-.001185.016592-.001185.026074h0zm0 .069926v-.026074.026074h0zm-.001185.050963v-.020148.020148h0zm-.001185.120889v-.009482.009482h0z" fill="#c5d83e"/><path d="M78.4805926 249.891556l-8.0877037-4.054519c-.018963-.010667-.0391111-.021333-.0568889-.02963-.0071111-.003555-.0154074-.008296-.0225185-.011851-.0118519-.005926-.0201482-.010667-.0331852-.017778-.0106667-.005926-.018963-.009482-.0296296-.015408-.0094815-.005926-.0142223-.008296-.0248889-.013037-.0106667-.005926-.0213334-.011852-.032-.016592-.0082963-.005926-.0154074-.009482-.0237037-.014222-.0106667-.005926-.0237037-.011852-.0343704-.017778-.0071111-.003556-.0082963-.004741-.0165926-.008297-.045037-.024888-.0877037-.046222-.1339259-.071111-.0023704-.001185-.0071111-.003555-.0094815-.005926-.0154074-.007111-.0272593-.013037-.0414815-.021333-.0059259-.00237-.0082963-.003555-.013037-.007111-.0130371-.005926-.0296296-.016593-.0426667-.023704-.0047407-.00237-.0059259-.00237-.0106666-.00474-.0154075-.008297-.0296297-.016593-.0450371-.023704l-.0035555-.002371c-35.1834074-18.486518-60.87111115-52.577185-67.88740745-93.072592 6.28859259 1.866667 12.90311115 3.011555 19.75111115 3.323259 1.2847407.059259 2.5611851.088889 3.834074.088889 13.2503704-.001185 25.8311111-3.163259 36.9813334-8.798815-2.7176297 35.447704 2.9807407 70.616889 15.9822222 102.818371" fill="url(#a)"/><path d="M104.406519 101.033481l-4.334223-2.1736291c-.2536293-.1220741-.5048886-.2465186-.7561479-.3733334h-.0011851c-.0177778-.0094815-.0343704-.0177778-.0521482-.0260741l-.0011852-.0011851c-.0165926-.0082963-.0331852-.0165926-.0497777-.0248889-.0011852-.0011852-.0035556-.0023704-.0047408-.0023704-.0165926-.0082963-.032-.0165926-.0474074-.0237037-.0035556-.0023704-.0035556-.0023704-.0071111-.0047407-.0154074-.0071112-.0296296-.0142223-.0438519-.0213334-.0035555-.0023703-.0071111-.0047407-.0106666-.0059259-.0130371-.0071111-.0260741-.013037-.0391111-.0201482-.0047408-.0023703-.0094815-.0047407-.0154074-.0071111-.0106667-.0059259-.0213334-.0118518-.032-.0165926-.0071112-.0035555-.0154075-.0082963-.0213334-.0118518-.0071111-.0035556-.0154074-.0071111-.0225185-.0106667-.0118518-.0059259-.0213333-.0106666-.032-.0165926-.0011852-.0011852-.0035556-.0023703-.0047407-.0023703C90.5457778 93.9875556 83.4014815 87.6053333 78.176 79.8281481c-8.8177778 22.0693329-13.9496296 44.7146669-15.6776296 67.2497779C77.44 139.528296 89.8204444 127.540148 97.8346667 112.768l6.5718523-11.734519h0zm148.469333 130.501926c-30.683259 20.295112-67.376593 32.05926-106.576593 32.05926-2.985481 0-5.985185-.067556-8.99674-.206223-17.109334-.784592-33.591704-3.783111-49.2029634-8.675555l67.2568884 33.712592c18.506667 8.973038 31.277037 27.936 31.277037 49.886815v.126815c0 .017778-.001185.036741-.001185.054519v.199111c-.001185.016592-.001185.033185-.001185.049778v.078222c0 .010666 0 .022518-.001185.030815v.096c0 .008296-.001185.017777-.001185.026074v.069926c0 .010666-.001185.022518-.001185.030814v.020149c0 .037925-.001186.074666-.001186.112592v.009482c-.227555 14.296888-5.873777 27.278222-14.972444 36.980148-4.168296 4.448-9.063111 8.206222-14.494815 11.087407l16.712296-8.535704 9.314371-4.753777c42.829037-21.381926 72.242963-65.630815 72.242963-116.751408l-2.552889-25.707852h0z" fill="url(#b)"/><path d="M146.299259 263.594667c-2.985481 0-5.985185-.067556-8.99674-.206223-17.109334-.784592-33.591704-3.783111-49.2029634-8.675555l-9.6201482-4.820148c-13.0014815-32.201482-18.6998518-67.370667-15.9822222-102.81363 14.9416296-7.54963 27.3220741-19.537778 35.3362963-34.309926l6.5718515-11.734518 80.630519 40.416c2.917926 1.514666 5.773037 3.13837 8.557037 4.861629.007111.004741.010667.007111.018963.011852.010667.005926.021333.013037.029629.018963.010667.005926.023704.013037.033186.020148.00237.001185.009481.005926.011852.007111 30.094222 18.673778 52.005925 49.261037 59.188148 85.166223-30.680889 20.293926-67.374223 32.058074-106.575408 32.058074" fill="url(#c)"/></svg>