<svg width="256px" height="200px" viewBox="0 0 256 200" xmlns="http://www.w3.org/2000/svg" preserveAspectRatio="xMidYMid"><path d="M75.3598531 199.749533l5.3458132-150.4865372h13.199609l4.8074406 135.3571282c-8.6101715 4.885163-16.454489 9.978851-23.3547585 15.127514l.0018957.001895zm41.5494799-24.594532 5.692723-125.8920052h14.08489l5.213116 115.3008502c-3.924054 1.433133-7.904979 3.006546-11.908652 4.686117-4.468114 1.876722-8.824383 3.82927-13.080181 5.903143l-.001896.001895zm44.787299-17.159681 5.482302-108.7323242h12.316223l5.205533 103.2576052c-7.317319 1.330766-15.028939 3.154409-23.004058 5.474719h0zM33.5348519.0262140077c.1806909-.0160968903.363639-.02431832925.5484987-.02431832925H221.594384c.250495 0 .49749.01510643035.740125.04445688295.204806-.0281111215.3914-.04256120451.558415-.04256120451V0c5.124019 0 28.628536 13.5730577 31.187702 18.0051539 2.559165 4.4358875 2.559165 31.5782115 0 36.0122034-2.559166 4.4358876-26.065579 18.0089452-31.183911 18.0089452-5.122123 0-28.628536-13.5730576-31.187702-18.0089452-1.947656-3.3759384-2.413046-19.9012315-1.396169-29.5612097H65.687301c1.0166881 9.6611384.55125 26.1868741-1.3963144 29.5612097-2.5591659 4.4358876-26.0655786 18.0089452-31.1839104 18.0089452-5.1221231 0-28.62853587-13.5730576-31.18770177-18.0089452-2.559165905-4.4358876-2.559165905-31.5744202 0-36.0103077C4.47854033 13.5749533 27.9849531.00379135689 33.1070762.00379135689V0c.1308017 0 .2736125.00886436787.4277757.0262140077z"/></svg>