<svg width="256px" height="256px" viewBox="0 0 256 256" xmlns="http://www.w3.org/2000/svg" preserveAspectRatio="xMidYMid"><path d="M256 127.948408 128.051592 0 0 127.948408 128.051592 256 256 127.948408zM128.051592 34.0232702l47.100148 47.1689372c-15.429477-4.1480048-31.299207-6.2804783-47.162058-6.2804783-15.931641-.0137579-31.7944919 2.0980788-47.1620587 6.2804783l47.2239687-47.1689372zM86.1037754 179.856939c12.8419154-7.091498 27.2780116-10.796399 41.9478166-10.765742 14.913556 0 29.235523 3.749217 41.947817 10.765742l-41.947817 41.947817-41.9478166-41.947817zM187.49257 162.363778c-18.112266-11.535994-38.797259-17.334946-59.502888-17.334946-21.083269-.01114-41.7305943 6.003339-59.509768 17.334946L35.46097 129.344834c26.704071-19.618756 58.8493887-30.2673652 92.638775-30.2673652 33.789386 0 65.900309 10.5798202 92.638774 30.2673652l-33.245949 33.018944z" fill="#73cc58"/></svg>