<svg width="256px" height="227px" viewBox="0 0 256 227" xmlns="http://www.w3.org/2000/svg" preserveAspectRatio="xMidYMid"><path d="M148.367708 12.4025287C144.036807 5.21480737 136.258026.820118864 127.866362.820118864c-8.391665 0-16.170446 4.394688506-20.501346 11.582409836L73.6403017 70.165071c52.4258513 26.1739878 87.0487833 78.176656 90.9747223 136.641471H140.93597c-3.918457-50.112209-34.061125-94.409844-79.2377023-116.4476452L30.4849684 144.32869c25.3648023 11.375736 43.1928695 34.882516 47.3068559 62.375345H23.4120041c-1.3101562-.092674-2.4853888-.839366-3.1258763-1.986045-.6404875-1.146679-.6599749-2.538922-.0518323-3.703078l15.0684892-25.626683c-5.1051618-4.259431-10.9397526-7.558753-17.2211306-9.738139L3.16692493 191.276772C.0305635285 196.656417-.818661742 203.068719.809210488 209.079324 2.43708272 215.08993 6.40620885 220.197261 11.8287436 223.258872c3.536978 1.992857 7.5235659 3.051244 11.5832605 3.075202h74.4711392c2.8131307-34.713196-12.7408061-68.368027-41.0026919-88.719575l11.8395273-20.501346c35.6788343 24.505089 55.7537583 66.038743 52.7909663 109.220921h63.092892c2.990062-65.42995-29.046559-127.5118834-84.106772-162.9857006l23.935321-41.0026919c1.110122-1.8599956 3.511943-2.4776068 5.381604-1.3838409 2.716428 1.4863476 103.993077 178.2079504 105.889452 180.2580844.680034 1.219364.655455 2.709427-.064426 3.905699-.71988 1.196272-2.024951 1.915773-3.420803 1.885931h-24.396602c.30752 6.526262.30752 13.035439 0 19.528037h24.499109c6.283701.040626 12.322694-2.433861 16.770848-6.872387 4.448154-4.438526 6.935721-10.472143 6.908432-16.755919.002825-4.1091-1.094404-8.144071-3.177934-11.685767L148.367708 12.4025287z" fill="#362d59"/></svg>