<svg width="256px" height="299px" viewBox="0 0 256 299" xmlns="http://www.w3.org/2000/svg" preserveAspectRatio="xMidYMid"><g style="fill:#ffc700"><path d="M185.191304 245.965913c-1.274434 0-2.469217-.71687-3.026782-1.911652-.796522-1.672696-.159305-3.743652 1.513391-4.540174 19.753739-9.87687 36.241739-24.93113 47.711652-43.490087 11.70887-18.957217 17.842087-41.180174 17.842087-64.279304 0-42.2156525-21.426435-80.7673047-57.349565-103.0699134-1.593044-.9558261-2.070957-3.1064348-1.11513-4.6994783.955826-1.5930434 3.106434-2.0709565 4.699478-1.1151304 18.160695 11.3106087 33.294608 27.0817391 43.888348 45.6406957 10.912347 19.1961739 16.647304 41.0208694 16.647304 63.1641734 0 24.373566-6.531478 47.791305-18.877565 67.863653-12.107131 19.674087-29.550957 35.604521-50.419826 45.959304-.477913.398261-.955826.477913-1.513392.477913z"/><path d="M71.8462609 244.691478c-.4779131 0-1.0354783-.079652-1.5133913-.398261C25.648 221.751652 0 180.730783 0 131.744696 0 79.8114783 30.9846957 33.3742609 78.9353043 13.4612174c1.7523479-.7168696 3.7436522.0796522 4.4605218 1.832.7168696 1.7523478-.0796522 3.7436522-1.832 4.4605217C36.162087 38.6313043 6.85008696 82.5993043 6.85008696 131.744696c0 46.277913 24.29391304 85.148174 66.58921734 106.574608 1.6726957.876174 2.3099131 2.867479 1.5133914 4.540174-.7168696 1.194783-1.9116522 1.832-3.1064348 1.832z"/></g><path d="M128.399304 213.388174c2.226392 2.636517 3.289188 6.436629 3.632188 9.78364 4.879591-.766138 10.234551-2.486099 15.165725-5.960336 1.43374-1.035478 3.425044-.637217 4.460522.796522 1.035478 1.433739.637218 3.425043-.796522 4.460522-8.841391 6.133217-18.479304 7.646608-25.807304 7.646608-6.372174 0-10.832696-1.11513-11.230956-1.274434-1.672696-.477913-2.708174-2.150609-2.230261-3.902957.477913-1.672696 2.150608-2.708174 3.902956-2.230261.116369.03879 4.313015 1.078759 10.207318.994867-.233412-2.338859-.944586-4.802074-2.162448-6.25191-1.672696-1.991305-4.938435-3.106435-8.204174-2.787826-1.832.159304-5.177391.955826-7.009391 4.221565-1.035479 1.911652-.955827 6.690783-.955827 9.000696l-9e-5 5.373529c-1.3e-5.18594-2.8e-5.370562-4.5e-5.553868l-9.49e-4 4.147634c-6.8e-5.16237-1.4e-4.323438-2.17e-4.483208l-8.17e-4 1.402891c-.004979 7.143538-.021658 11.429265-.077534 13.049652-.079652 2.389565-.079652 4.938435 0 7.646609.079652 11.469913.238957 24.453217-7.248348 31.940522-3.6639996 3.664-8.8413909 5.575652-15.3728691 5.575652-9.2396522 0-15.7711305-2.947131-19.3554783-8.682087-2.7878261-4.460522-3.1860869-9.398957-3.1860869-13.700174v-20.86887c0-1.752347 1.4337391-3.186087 3.1860869-3.186087h26.0462609c1.7523478 0 3.1860869 1.43374 3.1860869 3.186087v16.886261c0 1.752348-1.4337391 3.186087-3.1860869 3.186087-1.7523478 0-3.186087-1.433739-3.186087-3.186087v-13.700174H68.5008696v17.682783c0 8.363478 1.9913043 16.089739 16.1693913 16.089739 4.8587826 0 8.3634782-1.194783 10.9123478-3.743652 5.5756523-5.575652 5.4960003-17.20487 5.3366953-27.400348 0-2.787826-.079652-5.416348 0-7.965217.053102-1.433739.070802-5.416348.076702-11.900625l7.34e-4-.899722c1.11e-4-.152536 2.16e-4-.306363 3.16e-4-.461482l7.66e-4-1.430891c7.1e-5-.162856 1.37e-4-.327001 1.99e-4-.492435l9.36e-4-9.507019h0c-.079653-4.460522 0-9.080348 1.752347-12.186783 2.389566-4.221565 6.690783-6.929739 11.947826-7.407652 5.416348-.477913 10.673392 1.433739 13.700174 5.018087zm77.820174-55.517565c.477913.716869 11.230957 18.001391 14.815305 42.852869.238956 1.433739-.557566 2.787826-1.832 3.345392-12.585044 5.496-27.08174 31.064347-31.542261 40.383652-.477913 1.194782-1.593044 1.832-2.787826 1.832-.477913 0-.955826-.079652-1.354087-.318609-1.593044-.796522-2.230261-2.628522-1.513392-4.221565.637218-1.433739 16.08974-32.976 32.498087-42.295305-2.389565-14.656-7.407652-26.364869-10.673391-32.816695l-36.241739 77.581217c-.557565 1.115131-1.672696 1.832-2.867478 1.832h-49.702957c-1.752348 0-3.186087-1.433739-3.186087-3.186087 0-1.752348 1.433739-3.186087 3.186087-3.186087h47.632l37.994087-81.484174c.477913-1.035478 1.513391-1.752347 2.708174-1.832 1.194783-.079652 2.230261.477913 2.867478 1.513392zm-149.5071302-.477913c1.0354783.159304 1.9116522.876174 2.3099131 1.832l37.5958261 82.280695c.7168695 1.593044 0 3.504696-1.5930435 4.221566-.3982609.238956-.8761739.318608-1.2744348.318608-1.1947826 0-2.3895652-.716869-2.8674783-1.832l-35.5248695-77.899826c-4.7791305 6.053565-13.5408696 18.957218-14.178087 33.613218C57.5885217 210.68 74.8730435 239.992 75.589913 241.266435c.876174 1.513391.3982609 3.425043-1.1151304 4.380869-1.5133913.876174-3.4250435.398261-4.3808696-1.11513-.1593043-.318609-18.32-31.144-33.6928695-40.065044-.9558261-.557565-1.5930435-1.593043-1.5930435-2.787826 0-23.656695 18.3996522-42.613913 19.1165217-43.410434.7168696-.71687 1.7523479-1.115131 2.7878261-.876174zM141.78087 0c1.803193 2.66453526e-15 3.315152 1.11639691 3.891728 2.70504181 4.351424.52240486 11.89278 1.83488131 18.291764 4.93859663 1.063341-2.05574552 3.470723-3.41451499 6.172681-2.22729061C184.155826 11.6292174 199.369391 23.816 209.644522 41.9766957l.01969.0319991c.058643.0956791.246335.4044879.537005.9070902l.32403.5664839c3.405836 6.0166506 15.420889 29.1398041 13.297362 52.4986007-.264491 3.1738928-2.822224 4.6400524-5.229414 4.3579754.997506 1.637742 1.614841 3.276556 1.884022 4.881677.238957 1.11513 1.43374 7.168695-2.628521 12.425739-3.441507 4.53986-9.575566 6.992993-18.154651 7.359399 3.819399 10.088258 3.180042 19.987873 3.180042 20.43921-.079652 1.593043-1.433739 2.867478-3.106435 2.867478h-.238956 0c-1.752348-.159305-3.106435-1.672696-2.947131-3.425044 0-.035171.03106-.54401.03575-1.414226l-2.97e-4-.493847c-.021481-3.333709-.453368-10.507321-3.460496-17.288101-.093675-.208165-.162868-.421771-.208646-.637262l-6.163528 4.5e-5h0c-5.416348 0-11.947826.079652-18.957218.079652-6.549533 0-13.526399-.026708-20.497557-.09559-1.468897 4.634261-2.203312 10.29971-2.203312 17.30046V179.536h0c.079652 6.053565 0 12.744348-1.752348 16.408348-2.469217 5.097739-7.805913 8.204174-14.257739 8.283826-.079652.159304-.159304.159304-.318609.159304-6.531478 0-12.664695-3.186087-15.213565-7.965217-2.150609-3.982609-2.070957-8.522783-1.991304-14.257739 0-1.752348.079652-3.504696 0-5.496 0-1.752348 1.354087-3.186087 3.106434-3.265739 1.752348-.079653 3.186087 1.354087 3.26574 3.106434v5.655305h0c-.079653 4.858782-.159305 8.682087 1.194782 11.230956 1.513391 2.787826 5.496 4.699479 9.797218 4.619826 1.911652 0 6.61113-.557565 8.682087-4.77913 1.274434-2.628522 1.194782-10.514087 1.11513-13.54087v-37.277217c0-6.830419.677686-12.566113 1.990886-17.460119-2.84901-.038223-5.672971-.086099-8.442712-.143011-5.569752.118003-11.377259.194049-17.163528.240571l-2.16835.016086c-4.332685.0295-8.635213.043267-12.798323.046545l-4.1125904-2.4e-5c-6.7633732-.00522-13.0383037-.034721-18.3189479-.064222H67.1467826h0c-8.3634783 0-14.7356522-2.230261-18.7182609-6.690783-4.6994782-5.177391-4.5401739-11.549565-4.4605217-12.664695 0-2.177175.6187226-4.298102 1.8394566-6.3460709-2.694563 2.1024959-7.2944158.9442999-7.6540653-3.3714945-2.123527-23.3587966 9.8915256-46.4819501 13.2973614-52.4986007l.3240301-.5664839c.2906698-.5026023.478362-.8114111.5370048-.9070902l.0196907-.0319991C62.6066087 23.816 77.8201739 11.6292174 91.8389565 5.41634783c2.5300416-1.11168492 4.8017989.00894358 5.9540253 1.84360507 8.1695912-3.74888675 17.9249762-4.68295119 20.5512512-4.8971078.650021-1.390158452 2.079413-2.362845099999997 3.76255-2.362845099999997h0zm30.745739 139.072696c3.475263 0 6.292521 2.781596 6.292521 6.212869 0 3.431273-2.817258 6.21287-6.292521 6.21287-3.475264 0-6.292522-2.781597-6.292522-6.21287 0-3.431273 2.817258-6.212869 6.292522-6.212869zm-65.155479 2.070956c1.752348 0 3.186087 1.433739 3.186087 3.186087 0 1.752348-1.433739 3.186087-3.186087 3.186087H78.0591304c-1.7523478 0-3.1860869-1.433739-3.1860869-3.186087 0-1.752348 1.4337391-3.186087 3.1860869-3.186087H107.37113zM53.0483478 99.3262609c-2.309913 2.2302611-3.4250435 4.3808691-3.4250435 6.4518261v.238956c0 0-.0114842.140108-.013781.39068l5.67e-5.183088c.0131005 1.391619.3263216 5.045468 3.040507 7.949015 2.9471304 3.186087 7.805913 4.779131 14.4966956 4.779131h10.5937391 0c6.336773.070801 14.1053183.12587 22.4315383.13024l2.092667 1.6e-5c9.464733-.004862 19.543082-.077576 28.990482-.267924l1.047052-.021637c10.595187.224474 22.050723.297123 32.569538.303519l3.025902 7.3e-5c6.991431-.00381 13.473195-.034223 18.886647-.064635h10.593739 0c7.885565 0 13.381565-1.752348 16.010087-5.177392 2.628522-3.425043 1.593043-7.646608 1.593043-7.646608l-.079652-.318609c-.876174-5.336696-8.363478-10.992-20.072348-15.133913-15.133913-5.2570435-36.719652-8.0448696-62.606608-8.0448696h-.079652c-29.949218-1.0354783-65.9520005 3.5843478-79.0946092 16.2490435zm93.5370072-84.151398.205242.1835799c2.232525 2.0126397 4.798869 4.7821783 7.416012 8.5372094 11.251855 16.0635045 15.142534 38.5938376 16.339373 55.8906852 18.500652 2.5783016 31.205286 7.0269739 39.189894 12.1208437-3.121053-14.8566079-8.077216-32.3184955-17.853789-46.983355-10.975383-16.4630741-26.142547-26.4339982-45.296732-29.7489632zm-33.563695.3241786-.091561.0161387C99.4523585 17.9477541 88.2075851 23.1845406 79.4132174 31.144c-7.0093913 6.3721739-12.7443478 14.7356522-16.9659131 24.7718261-4.1498958 9.974311-6.9023092 21.8784786-8.2572403 35.4083711 8.1700829-5.2676665 20.651315-9.2607332 35.7716197-11.6193148C91.2092916 62.4921103 95.1353551 40.2678103 106.176348 23.816c2.397908-3.5447332 4.753171-6.2621657 6.845312-8.3169585zm18.563731-1.5599111c-5.165468 0-10.089075.3210159-14.762555.9599478-7.524248 6.3423658-21.8391522 23.6153371-24.8451296 64.500589 12.1174586-1.7447989 25.8328096-2.4638504 40.3245546-1.9777542 13.850035 0 25.818727.7557533 36.076761 2.073094-3.031855-43.4396489-18.758768-59.7144418-25.951212-64.9285561-3.489244-.4175465-7.10418-.6273205-10.842419-.6273205zm14.27249-9.08528094-.013436.07896c-.209405 1.04283546-.825196 1.94628804-1.684514 2.53791844 7.198945.92320441 13.921016 2.6694942 20.151988 5.2331247-.698328-.9104781-.973998-1.9608091-.919572-2.98758048-5.957327-2.95514359-13.173482-4.29054349-17.534466-4.86242266zm-27.879551-.38191219-.141042.01259992c-3.283522.30703716-12.061834 1.41013193-19.3032039 4.75890242.132895.86882979.0335865 1.77284069-.3542907 2.61086639 6.4930746-2.28471788 13.5899196-3.81277616 21.2861286-4.58115302-.838883-.67986156-1.395671-1.67867483-1.487592-2.80121571z" fill="#150007"/></svg>