<svg width="256px" height="323px" viewBox="0 0 256 323" xmlns="http://www.w3.org/2000/svg" preserveAspectRatio="xMidYMid"><title>ShipIt</title><defs><linearGradient x1="50%" y1="0%" x2="50%" y2="100%" id="a"><stop stop-color="#8783dc"/><stop stop-color="#444361" offset="1"/></linearGradient></defs><path d="M63.0313966 311.178492c-2.8985355 0-5.5072175-.362317-7.8260459-1.086951-2.3188284-.724634-4.5341377-1.997919-6.6459279-3.819856-.5382994-.455484-.9523759-.97308-1.2422295-1.552787-.2898535-.579707-.4347803-1.159414-.4347803-1.739121 0-.952376.3416131-1.790881 1.0248393-2.515515.6832263-.724634 1.542435-1.086951 2.5776263-1.086951.7867453 0 1.4906754.248446 2.1117901.745338 1.5734907 1.283637 3.1366296 2.256717 4.6894164 2.919239 1.5527869.662523 3.4678907.993784 5.7453115.993784 1.5320831 0 2.9399432-.238094 4.2235803-.714282 1.2836372-.476188 2.3188284-1.118007 3.1055738-1.925456.7867454-.807449 1.180118-1.728769 1.180118-2.76396 0-1.24223-.3726688-2.298125-1.1180065-3.167686-.7453377-.86956-1.8840481-1.604546-3.4161312-2.204957-1.532083-.600411-3.4782426-1.066247-5.8384787-1.397508-2.2360131-.331262-4.2028765-.838505-5.9005901-1.521731-1.6977137-.683227-3.1159257-1.552787-4.2546361-2.608682-1.1387104-1.055896-1.9979191-2.298125-2.5776262-3.726689-.5797071-1.428564-.8695607-3.03311-.8695607-4.813639 0-2.691498.6935782-4.989622 2.0807345-6.894374 1.3871562-1.904752 3.2608524-3.35402 5.6210885-4.347803 2.360236-.993784 4.968918-1.490676 7.8260459-1.490676 2.6914972 0 5.1863082.403725 7.4844328 1.211174 2.1449163.753619 3.9201082 1.696609 5.3255759 2.828971l.2955126.245547c1.2008219.952376 1.8012328 2.049679 1.8012328 3.291908 0 .910969-.351965 1.739122-1.0558951 2.484459-.7039301.745338-1.5320831 1.118007-2.484459 1.118007-.6211148 0-1.1801181-.186335-1.6770099-.559003-.6625224-.579708-1.5527868-1.128359-2.6707934-1.645955-1.1180066-.517595-2.2981246-.952376-3.5403541-1.304341-1.2422295-.351965-2.4016437-.527947-3.4782426-.527947-1.780529 0-3.2815563.227742-4.503082.683226-1.2215257.455484-2.1428459 1.076599-2.7639606 1.863344-.6211148.786746-.9316722 1.697714-.9316722 2.732905 0 1.24223.362317 2.267069 1.0869508 3.074518.7246339.80745 1.7701771 1.449268 3.1366296 1.925456 1.3664524.476188 3.0020546.900617 4.9068065 1.273285 2.484459.455484 4.6687126.993784 6.5527607 1.614899 1.8840481.621114 3.4471869 1.418212 4.6894164 2.391291 1.2422295.97308 2.1739016 2.194606 2.7950164 3.664578.6211147 1.469971.9316721 3.260852.9316721 5.372642 0 2.691497-.7453377 5.010326-2.2360131 6.956485-1.4906754 1.94616-3.4471869 3.436835-5.8695345 4.472027-2.4223475 1.035191-5.0413814 1.552787-7.8571016 1.552787zm39.9376784-34.471869c2.981351 0 5.24842.641818 6.801207 1.925455 1.552787 1.283638 2.619034 2.991703 3.198741 5.124197.579707 2.132494.869561 4.503082.869561 7.111764v15.900538c0 1.076599-.351965 1.977215-1.055896 2.701849-.70393.724634-1.594194 1.086951-2.670793 1.086951-1.076599 0-1.966863-.362317-2.670793-1.086951-.70393-.724634-1.055896-1.62525-1.055896-2.701849v-15.900538c0-1.366452-.16563-2.59833-.496891-3.695633-.331262-1.097302-.931672-1.977215-1.801233-2.639737-.869561-.662523-2.11179-.993784-3.726689-.993784-1.5734904 0-2.919239.331261-4.0372456.993784-1.1180065.662522-1.9565114 1.542435-2.5155147 2.639737-.5590033 1.097303-.8385049 2.329181-.8385049 3.695633v15.900538c0 1.076599-.3519651 1.977215-1.0558951 2.701849-.7039301.724634-1.5941946 1.086951-2.6707935 1.086951-1.0765989 0-1.9668634-.362317-2.6707934-1.086951-.7039301-.724634-1.0558951-1.62525-1.0558951-2.701849v-38.384892c0-1.076599.351965-1.977215 1.0558951-2.701849.70393-.724634 1.5941945-1.086951 2.6707934-1.086951 1.0765989 0 1.9668634.362317 2.6707935 1.086951.70393.724634 1.0558951 1.62525 1.0558951 2.701849v15.403646l-.9316722-.186335c.3726689-.70393.8902645-1.459619 1.5527869-2.267068.6625224-.80745 1.4699716-1.563139 2.4223475-2.267069.952376-.70393 2.0082711-1.273286 3.1676853-1.708066 1.1594147-.43478 2.4223477-.65217 3.7887997-.65217zm25.962597 30.061954c0 1.076599-.351965 1.977215-1.055895 2.701849-.70393.724634-1.594195 1.086951-2.670793 1.086951-1.076599 0-1.966864-.362317-2.670794-1.086951-.70393-.724634-1.055895-1.62525-1.055895-2.701849v-25.65204c0-1.076598.351965-1.977215 1.055895-2.701849.70393-.724634 1.594195-1.086951 2.670794-1.086951 1.076598 0 1.966863.362317 2.670793 1.086951.70393.724634 1.055895 1.625251 1.055895 2.701849v25.65204zm-3.7888-33.478085c-1.40786 0-2.401644-.227743-2.981351-.683227-.579707-.455484-.86956-1.262933-.86956-2.422347V269.0048c0-1.200822.320909-2.018623.962727-2.453404.641819-.43478 1.625251-.65217 2.950296-.65217 1.449267 0 2.463755.227742 3.043462.683226.579707.455484.86956 1.262934.86956 2.422348v1.180118c0 1.200822-.310557 2.018623-.931672 2.453403-.621114.43478-1.635602.652171-3.043462.652171zm28.63339 3.416131c2.898536 0 5.496866.734986 7.79499 2.204957 2.298125 1.469972 4.120062 3.488595 5.46581 6.055869 1.345749 2.567274 2.018623 5.548625 2.018623 8.944052 0 3.395428-.672874 6.38713-2.018623 8.975109-1.345748 2.587978-3.146981 4.616953-5.403698 6.086924-2.256717 1.469972-4.792936 2.204958-7.608656 2.204958-1.656306 0-3.209093-.26915-4.658361-.80745-1.449267-.538299-2.722553-1.221525-3.819855-2.049678-1.097303-.828153-1.94616-1.666658-2.546571-2.515515-.600411-.848857-.900616-1.563139-.900616-2.142846l1.925456-.807449v16.335318c0 1.076599-.351965 1.977215-1.055895 2.701849-.703931.724634-1.594195 1.086951-2.670794 1.086951-1.076599 0-1.966863-.351965-2.670793-1.055895-.70393-.70393-1.055895-1.614899-1.055895-2.732905v-38.074334c0-1.076599.351965-1.977216 1.055895-2.70185.70393-.724634 1.594194-1.08695 2.670793-1.08695 1.076599 0 1.966863.362316 2.670794 1.08695.70393.724634 1.055895 1.625251 1.055895 2.70185V284.16l-1.055895-.559003c0-.5383.289853-1.19047.86956-1.956512.579707-.766041 1.366453-1.532083 2.360236-2.298125.993784-.766041 2.142846-1.397508 3.447187-1.8944 1.304341-.496891 2.681145-.745337 4.130413-.745337zm-.931672 6.832262c-1.821937 0-3.416131.455484-4.782584 1.366453-1.366452.910968-2.432699 2.142845-3.19874 3.695632-.766042 1.552787-1.149063 3.322964-1.149063 5.310531 0 1.94616.383021 3.716337 1.149063 5.310532.766041 1.594194 1.832288 2.846776 3.19874 3.757744 1.366453.910968 2.960647 1.366452 4.782584 1.366452 1.821937 0 3.405779-.455484 4.751528-1.366452 1.345749-.910968 2.401644-2.16355 3.167685-3.757744.766042-1.594195 1.149062-3.364372 1.149062-5.310532 0-1.987567-.38302-3.757744-1.149062-5.310531-.766041-1.552787-1.821936-2.784664-3.167685-3.695632-1.345749-.910969-2.929591-1.366453-4.751528-1.366453zm29.751397 23.229692c0 1.076599-.351965 1.977215-1.055895 2.701849-.70393.724634-1.594195 1.086951-2.670794 1.086951-1.076599 0-1.966863-.362317-2.670793-1.086951-.70393-.724634-1.055895-1.62525-1.055895-2.701849v-25.65204c0-1.076598.351965-1.977215 1.055895-2.701849.70393-.724634 1.594194-1.086951 2.670793-1.086951 1.076599 0 1.966864.362317 2.670794 1.086951.70393.724634 1.055895 1.625251 1.055895 2.701849v25.65204zm-3.7888-33.478085c-1.40786 0-2.401644-.227743-2.981351-.683227-.579707-.455484-.869561-1.262933-.869561-2.422347V269.0048c0-1.200822.32091-2.018623.962728-2.453404.641819-.43478 1.62525-.65217 2.950295-.65217 1.449268 0 2.463755.227742 3.043463.683226.579707.455484.86956 1.262934.86956 2.422348v1.180118c0 1.200822-.310557 2.018623-.931672 2.453403-.621115.43478-1.635602.652171-3.043462.652171zm11.80118 4.65836h14.72042c.993783 0 1.821936.331261 2.484459.993784.662522.662522.993783 1.490675.993783 2.484459 0 .952376-.331261 1.749473-.993783 2.391292-.662523.641818-1.490676.962728-2.484459.962728h-14.72042c-.993784 0-1.821937-.331262-2.484459-.993784-.662522-.662523-.993784-1.490676-.993784-2.484459 0-.952376.331262-1.749473.993784-2.391292.662522-.641819 1.490675-.962728 2.484459-.962728zm6.645928-7.763934c1.076599 0 1.956511.362317 2.639738 1.086951.683226.724633 1.024839 1.62525 1.024839 2.701849v27.639606c0 .579707.113871 1.055895.341613 1.428564.227742.372669.5383.641819.931672.807449.393373.165631.817801.248446 1.273286.248446.414076 0 .799397-.064699 1.155963-.194098l.210489-.085403c.414076-.186335.890264-.279502 1.428564-.279502.579707 0 1.107655.26915 1.583843.807449.476188.5383.714281 1.283637.714281 2.236013 0 1.159415-.631466 2.11179-1.8944 2.857128-1.262933.745338-2.619033 1.118007-4.068301 1.118007-.869561 0-1.832289-.072464-2.888184-.21739-1.055895-.144927-2.049678-.496892-2.981351-1.055895-.931672-.559004-1.708065-1.418212-2.32918-2.577627-.621115-1.159414-.931672-2.753608-.931672-4.782583v-27.950164c0-1.076599.362317-1.977216 1.086951-2.701849.724634-.724634 1.62525-1.086951 2.701849-1.086951z" fill="#222"/><path d="M0 125.062295c108.44926 35.593169 179.882985 58.447902 256 21.389133-13.502249 17.912098-29.130118 35.102124-54.108491 49.115785-52.536644 11.460529-105.0732889 8.535896-157.6099335 0C2.91481718 171.297309.651544223 156.170746 0 125.062295z" fill="#444361"/><path d="M0 125.062295c114.102935 57.318744 180.638323 63.985367 256 21.389133-13.502249 17.912098-1.571846 37.655257-54.108491 49.115785-52.536644 11.460529-116.2431752 24.269904-157.6099335 0C2.91481718 171.297309.651544223 156.170746 0 125.062295z" fill="url(#a)"/><path d="M135.214117 0c27.691488 13.6750514 66.108915 66.1830474 100.641621 139.184287-34.168595 7.327746-67.337011 19.759611-94.006558 7.691081C150.208618 99.7668139 143.273699 48.5438933 135.214117 0z" fill="#e78724"/><path d="M161.993443 27.6983607c23.928157 24.6036899 47.429796 61.3491939 70.504918 110.2365123-6.969816.742574-15.881854.742574-26.736116 0 2.906448-12.280821-11.683152-49.0263255-43.768802-110.2365123z" fill="#fba919"/><path d="M128.419672 34.4131148V139.257921c-5.563032 13.437107-21.40658 12.322668-47.5306439-3.343319-7.4329521-4.457366-20.1271089-5.350277-38.0824707-2.678731 6.8743344-22.826913 37.3736217-56.6836379 85.6131146-98.8227562z" fill="#e78724"/><path d="M99.042623 71.3442623 74.0066763 124.222951H58.7540984c6.5688802-20.261892 24.1070709-36.3096802 40.2885246-52.8786887z" fill="#fba919"/></svg>