<svg width="512px" height="178px" viewBox="0 0 512 178" xmlns="http://www.w3.org/2000/svg" preserveAspectRatio="xMidYMid"><path d="M6.50824915 104.151233c1.13174004-1.780674 2.59573403-1.946801 4.21547205-1.131741 3.0837321 1.619739 13.3057327 6.323209 23.3616064 6.323209 6.6502706 0 10.3829361-2.917605 10.3829361-6.489335 0-5.1914686-5.6794661-6.8112066-16.5504002-10.0558741C12.0163968 87.9278948 2.12145862 80.6286907 1.96052311 67.322958c0-13.9546662 10.54906309-24.6646648 31.80293339-24.6646648 12.9786702 0 20.9319993 4.2206635 27.7432054 8.2752001 1.7858651.975996 2.2738631 2.273863 1.6249295 3.57173l-7.1382686 11.3589322c-.975996 1.4588025-2.4347985 1.619738-3.893601.9708045-4.059728-2.4347985-11.5198677-5.1914681-18.8242633-5.1914681-8.4361356 0-10.3829361 3.7326656-10.3829361 6.3283996 0 4.7034701 6.1674641 6.4893351 13.7937307 8.5970711C56.3151939 81.9265577 66.69813 88.9038908 66.69813 102.853366c0 16.877462-14.9254707 24.986568-33.095609 24.986568-11.5885973.012116-22.9267208-3.371995-32.612802418-9.734035-.98637893466-.789103-1.297867019-1.946801-.64893351-3.384837l6.167464078-10.569829zM154.465089 126.542034h-16.571166c-3.893601 0-6.001337-2.756669-6.001337-6.489335V78.8428257c0-9.2511961-5.51853-15.7405312-15.413469-15.7405312-8.2752 0-14.442664 4.7086615-18.0092024 11.0318696v49.6512009c0 1.458802-.8150604 2.434798-1.9468005 2.595734-.1907999.127962-.420452.184916-.6489335.160935H77.5379154c-.5323416.042034-1.0589039-.134112-1.4588026-.487998-.6710429-.555411-1.0341907-1.399537-.975996-2.268671V17.3602692c0-8.27520007-1.619738-11.3589321-1.619738-14.60359965C73.4833788 1.13693151 74.2932478 0 76.0791128 0h15.0864063c4.869597 0 7.3043955 2.26867155 7.3043955 7.29920411V56.3014713c5.6794664-7.1434601 14.2765374-13.6327952 26.9333364-13.6327952 16.5504 0 29.850941 10.5490631 29.850941 30.8269374v37.9703975c.0451 3.905936.315506 7.806017.809869 11.680803.487998 1.775482-.160935 3.39522-1.619738 3.39522h.020766zm265.164615-79.9901398V123.9463c.044593.673151-.192105 1.334631-.65364 1.826673-.461536.492042-1.106534.770537-1.781158.769061H398.85864c-.706269.064622-1.404722-.188023-1.906216-.689517-.501494-.501494-.754139-1.199947-.689518-1.906217v-9.894938c-5.679466 7.138269-14.115601 13.64837-26.933336 13.64837-16.5504 0-29.850941-10.543872-29.850941-30.8269377V58.8868224c-.010992-3.905539-.34263-7.8035823-.991571-11.6548458-.321871-1.7858651.327063-3.4107946 1.785865-3.4107946h16.384273c4.059728 0 6.167465 2.7566696 6.167465 6.4893351v41.2150651c0 9.2460048 5.51853 15.7353398 15.413468 15.7353398 8.2752 0 14.276537-4.70347 18.009203-11.0318697V46.5518942c-.02945-1.4722942 1.12433-2.6976082 2.595734-2.7566695h18.170138c1.640504 0 2.6165 1.1369315 2.6165 2.7566695zm90.663799 79.9901398h-16.550401c-3.893601 0-6.001337-2.756669-6.001337-6.489335V78.8428257c0-9.2511961-5.51853-15.7405312-15.574404-15.7405312-8.114264 0-14.281729 4.7086615-18.014394 11.0318696v49.6512009c0 1.458802-.970805 2.756669-2.429607 2.756669h-18.336265c-1.619738 0-2.595734-1.136931-2.595734-2.756669V46.3909587c-.035117-1.3856082 1.049779-2.5422138 2.434798-2.595734h18.497201c1.619738 0 2.429607.975996 2.429607 2.595734v9.9001296c5.679466-7.14346 14.281729-13.6327951 27.099463-13.6327951 16.384274 0 29.850942 10.5490631 29.850942 30.8269374v37.9703974c-.037427 3.909022.235114 7.81486.81506 11.680803.321871 1.785865-.327062 3.405603-1.624929 3.405603zm-252.720666 13.253818c-1.484919-.429384-3.086109-.03354-4.199898 1.038294-2.927988 2.902031-4.885171 6.837163-4.885171 12.132461 0 15.901467 18.4972 24.015731 41.209873 24.176667 23.688669.327062 45.269602-7.787202 45.269602-29.368135 0-14.764535-10.709999-20.116939-30.017069-23.034544l-24.8256-3.57173c-7.787202-1.136932-12.97867-1.785865-12.97867-5.518531 0-2.595734 2.273863-5.030532 8.763198-3.244667 4.054537 1.463994 8.924134 3.732665 16.711336 3.732665 20.604937.160936 37.316272-13.305732 37.316272-33.9106691 0-9.7340027-3.732665-18.0092028-10.870934-23.3616064 5.030533-.1609355 9.90013-.6489335 11.519868-2.273863l.633359-9.7132368c.093106-.7129333-.150267-1.4286657-.658668-1.9370664-.5084-.5084008-1.224133-.7517738-1.937066-.6586676-19.146134 1.619738-25.474534-1.4588025-36.179341-1.4588025-23.688669 0-39.102138 15.9014667-38.780267 36.5064035.327063 13.7885392 7.626267 21.0929343 11.197997 24.4985383-8.602263-.975996-16.711336 4.864405-16.711336 14.276537 0 7.1798 4.672321 11.421229 11.493911 14.016964 1.502801.556537 3.036911 1.024571 4.594449 1.401696 5.487382 1.199229 15.875509 3.400411 25.298024 5.025341l1.983141.337445h.03634l10.471191 1.791057c6.655462 1.136931 8.2752 4.059728 8.2752 7.138269 0 6.977333-8.924134 10.061065-18.170138 10.061065-12.490672 0-21.902804-2.595734-21.902804-11.03187v-.03634c.046507-2.011361-1.262575-3.803633-3.192753-4.371216l-9.464046-2.642458zm34.071605-77.352874c9.412131 0 16.872271 6.6554621 16.872271 17.0383982 0 9.5730672-6.489335 16.7113358-16.545209 16.7113358-9.900129 0-17.199334-6.9773331-17.199334-17.0383982 0-10.3725533 7.787203-16.7009528 16.872272-16.7009528v-.010383zM160.819446 84.7091846c0-25.5783632 19.390133-42.8503775 43.992501-42.8503775 24.43624 0 43.826373 17.2720143 43.826373 42.8503775 0 25.4381934-19.390133 42.6842554-43.826373 42.6842554-24.628325.010378-44.018458-17.256445-44.018458-42.6738725l.025957-.0103829zm66.310622 0c0-13.1967119-9.287536-22.9722462-22.323313-22.9722462-13.201903 0-22.484248 9.7755343-22.484248 22.9722462 0 13.1967118 9.282345 22.8113194 22.484248 22.8113194 13.009819.010374 22.297356-9.6042246 22.297356-22.8009365l.025957-.0103829zm10.232384-56.4053007c4.963738-1.0030368 8.213457-5.7920688 7.311798-10.7752199-.901659-4.9831511-5.623462-8.32980343-10.623955-7.52989649-29.264306 5.29529749-58.144443.10382939-58.663589 0-4.990832-.8199596-9.722425 2.49756939-10.652633 7.46903299-.930209 4.9714637 2.281795 9.7753157 7.231455 10.8153176.866975.1609355 14.759344 2.7047548 33.55765 2.7047548 10.671619.0496378 21.326563-.8485533 31.839274-2.683989h0z" fill="#5d50c6"/></svg>