<svg width="256px" height="255.999866px" viewBox="0 0 256 255.999866" xmlns="http://www.w3.org/2000/svg" preserveAspectRatio="xMidYMid"><title>Shortcut</title><path d="M256 64.0007524C256 28.6552078 227.348149 5.9028917e-5 192.002217 5.9028917e-5H64.0067807C55.6007455-.0113754144 47.2753367 1.63851635 39.5089585 4.85497742 31.7425803 8.07143849 24.6883583 12.791045 18.7516169 18.7426216h0c-24.99093914 24.9951897-24.99093914 65.5314565 0 90.5133594l22.7920273 22.794027C17.2753168 141.146591 0 164.554023 0 191.99922c0 35.345287 28.6532379 64.000585 63.998976 64.000585h128.003241c8.405777.01155 16.730928-1.639032 24.496855-4.8557 7.765927-3.217312 14.819762-7.937499 20.755793-13.889011h0c24.993513-24.995448 24.993513-65.531779 0-90.513682l-22.792091-22.794027C238.726134 114.853382 256 91.4433701 256 64.0007524zM36.3092548 219.701132c-5.3773882-5.379387-9.0722665-12.208114-10.6334499-19.65218-1.561248-7.444712-.9212041-15.182903 1.841892-22.269633 2.7630961-7.086731 7.5296593-13.214976 13.7178258-17.637813 6.1881019-4.422837 13.5299987-6.947409 21.1291902-7.266689l78.2959571 78.303732H63.996396c-5.1444749.011511-10.2402516-.996641-14.9926246-2.966503-4.7524375-1.969862-9.0671064-4.862734-12.6945166-8.510914h0zm183.3877792-55.393503c7.34538 7.346025 11.471512 17.308857 11.471512 27.696752 0 10.388539-4.126132 20.351372-11.471512 27.696751-7.34538 7.34538-17.306922 11.472158-27.694817 11.472158-10.387894 0-20.350082-4.126778-27.694817-11.472158L36.3092548 91.6975042c-7.2997776-7.3557-11.3875317-17.3043423-11.3681217-27.6677263.0196131-10.3630616 4.1447779-20.2962881 11.4722264-27.6242527 7.3275131-7.3279645 17.2600946-11.4533873 27.6227047-11.4730004 10.3626745-.0194101 20.3106718 4.0686021 27.6657268 11.3688957L219.697034 164.307629zm0-72.6101248c-6.928703 6.9641786-16.23685 11.0477398-26.05262 11.4302318l-78.298472-78.2982146h76.664015c7.745932.0021285 15.317065 2.3008815 21.756205 6.6057462 6.439785 4.3048003 11.458612 10.4223381 14.421791 17.5792458 2.963178 7.1569078 3.738481 15.0320347 2.227221 22.6289687-1.51126 7.5975789-5.241356 14.5759478-10.71814 20.0540221h0z" fill="#58b1e4"/></svg>