<svg width="256" height="256" xmlns="http://www.w3.org/2000/svg" preserveAspectRatio="xMidYMid"><path d="M256 64c0-35.345-28.652-64-63.998-64H64.007a63.797 63.797 0 00-45.255 18.743c-24.991 24.995-24.991 65.531 0 90.513l22.792 22.794C17.275 141.147 0 164.554 0 192c0 35.345 28.653 64 63.999 64h128.003a63.786 63.786 0 0045.253-18.745c24.993-24.995 24.993-65.532 0-90.514l-22.792-22.794C238.726 114.853 256 91.443 256 64.001zM36.31 219.702a39.17 39.17 0 0126.055-66.826l78.296 78.304H63.996A38.927 38.927 0 0136.31 219.7zm183.387-55.393a39.17 39.17 0 01-27.695 66.865 39.165 39.165 0 01-27.695-11.472L36.31 91.698a39.174 39.174 0 01.104-55.292 39.168 39.168 0 0155.289-.105l127.995 128.007zm0-72.61a38.887 38.887 0 01-26.053 11.43L115.346 24.83h76.664a39.164 39.164 0 0136.178 24.185 39.175 39.175 0 01-8.491 42.683z" fill="#58B1E4"/></svg>