<svg width="256px" height="280px" viewBox="0 0 256 280" xmlns="http://www.w3.org/2000/svg" preserveAspectRatio="xMidYMid"><path d="M70.8815851 129.427786c0 0-3.2113072-.665699-4.1544883-.380803-.9431811.284897-6.3299804-.660057-8.6935473-2.369438-2.3635669-1.703739-4.7243268-.471067-6.8970119-1.799645-2.1698779-1.328578-5.479433-1.139587-7.9328267-1.232672-2.4562008-.093085-5.5748741.093085-6.7089371 1.610654-1.134063 1.514748-5.5720669 6.163361-7.1777205 8.056091-1.6056535 1.895551-8.1237087 8.71897-10.6753504 9.759831 0 0 .6596653 1.046501.2835157 1.802465-.3789566.761606-.0954409 2.936411-.0954409 3.698017 0 .761605.1880748 1.988636-.4687835 2.750241-.6652795.758784-1.0414291 1.988636-1.0414291 2.462524 0 .473888-.7579134 2.180447 0 4.456801.7551063 2.276353 1.4147717 4.831962-1.7010945 3.791102-3.1186732-1.040861-2.4562008-3.884188-5.0050355-3.982914-2.54883459-.093085-5.85558267 0-6.80157087-3.503384-.94879527-3.509026-2.73971654-9.480575-3.118673233-10.428351-.376149607-.944954-1.698287407-5.30585.757913383-9.096951 2.4562008-3.791102 2.92779135-6.541343 3.30674805-7.396034.37614961-.851869 2.17268501-6.256445 3.49201579-7.01805 1.3221378-.758786.84774016-3.128224 1.60565353-4.169084.75510625-1.043681.47159055-2.750241.94318105-3.698017.4715906-.947776.6624725-3.695196 1.3221378-5.779738.6624725-2.084542 2.8351576-5.311491 4.1572954-7.0152298 1.3221378-1.7037392 2.0800511-4.2621691 2.0800511-5.1168592 0-.8546908-.4715905-2.6515148 1.6982875-4.1690836 2.1698779-1.5175688 6.0436575-6.4454375 6.4226141-7.2042219 0-.1889905 0-3.6951954-.1908818-4.9278679-.1880748-1.2326719-.4715906-2.3694387.7551062-2.8433262 1.2323111-.4767083 2.9305985-1.5203897 2.9305985-1.5203897 0 0-1.1789764-1.5147486-3.7306181-2.7953733-2.5516418-1.2778045-10.2037599-9.951642-10.9111458-15.068501-.7101929-5.1196797-.9937086-13.2237238 5.9510237-16.0670501 6.9447323-2.846147 14.5940434-4.4088481 15.7309135-4.5498862 1.1340629-.141038 5.1004764-.9957283 6.6612165.1410381 0 0-1.7010945-.2820761-2.4084803 0-.710193.2848968 3.3965748.1438587 4.3902835 1.2806251 0 0-1.9818032-.5669728-3.1158662-.4259348-1.1312559.141038 1.9846103 1.4216631 2.5516417 2.4173915.5642245.9957283 2.6919961 1.7065599 2.4084804 3.2720818-.2807087 1.5627012-.4238701 3.9800926-.1431614 4.6909242.2863228.7108316.9937086 1.9914567 1.13687 3.9800926.1431614 1.9914567.710193 4.693745 1.2744174 5.9715493.5670314 1.2806252 1.9846102 5.2607178 1.4175787 8.1040441 0 0 .5670315 1.4216631 3.3993819-1.8475979 2.8351575-3.2720818 5.670315-3.8390547 7.0850867-3.8390547 1.4175787 0 3.5453504-1.4244839 4.960122-.8546903 1.4203859.5697935 2.9811259-.141038 4.6794136.2848968 1.6982869.4259348 8.7833737 0 10.3441139-.5697936 1.5551264-.5697936 6.9419255-1.2806251 8.0731814-1.2806251 1.1340628 0-1.4147721-1.8475979.7101929-3.2692611 2.1277713-1.4216631-2.2681262-2.1324947.9937085-6.2536253 3.2562203-4.1239514.1375474-5.2607178-.4266774-6.1125874-.5642242-.8546903-.7073854-3.5569786-.7073854-5.1196797 0-1.5655219-.4238705-5.5456145-.4238705-5.5456145l.5670317-.7108316c0 0-.4575553-.7559638-.9066892-1.023936-.4463264-.2679722-.8926535-1.881447-1.2463461-2.9561567-.3621141-1.0747096-4.2892287-6.8995793-5.4485549-7.7937604-1.1621345-.8998225-1.3389805-2.2396835-1.1621345-3.4949218.1796536-1.2580591 1.0695001-2.3299479.8926541-3.6754506-.1796536-1.3426818-.0898268-3.1338645-.1796536-3.7600733-.0870199-.62902951.1796536-4.38910285.9852871-4.74733939 0 0 .6231731-.27079298.8926534.623388 0 0-.4491339-3.1338645722.533347-3.1338645722 0 0 1.1621338-.3582365448 1.6084601 1.2552382922.4435202 1.61347482.8926542 2.5076558.9824809 2.95615667.0898261.44850087.4463264 1.1621532.4463264 1.1621532 0 0 .9796733-.44285935 1.7853068-.08744356.8028274.35823654 1.3417881.71647309 1.3417881 1.16497396 0 .44850087 0-.35823655.9824802-.35823655.9796733 0 1.8751336-.27079298 2.144614.71647309.2638659.98444529.4463271 1.70373913.5333463 2.68818444.0926337.98444532.2694803 1.79118272.6259806 2.50765582.3593072.7164731.8898465 1.9688907.8898465 3.6726298 0 1.7037391.6287876 4.8376037.8954603 6.2733707.2666735 1.4329462 3.303941 6.9870229 3.303941 6.9870229 0 0 4.642921.8970018 6.784728.4485009 2.144614-.4485009 5.892075.3582366 5.448555 2.3299479-.446326 1.9688907-.713 7.7937604-.892653 12.363392-.179654 4.5696315-.89546 13.4381015-1.60846 16.5747868-.715808 3.1338646-5.089249 11.2886823-6.874556 12.6313642-1.782499 1.3455029-3.7502675 2.2396839-8.6598616 4.5696317-4.9124018 2.3299478-10.6276301 4.927868-10.6276301 4.927868 0 0 3.0372674 4.2988384 3.7502672 4.5696316.7130006.2679717.6259807-.6262093 1.5158272-.2707932.4435195.1777077 1.98461.7841716 1.0049367.3808026-.0021053.0374031 5.3790611 1.4198201 5.3790611 1.4198201.5156775-.0102316.8348076-.1038962.7705659-.4094752-.2695964-1.2514968.9829034-2.8637851 1.5164791-3.2245772.5363846-.3579733-.8031722 1.612289 0 2.5058125.8059811.8991611 12.3480735-2.5311808 12.1318355-1.9167068-.213431.6144733.62625.6623912 1.362023.0845606.730156-.5750124 3.78839-2.5734611 5.967627-2.5650047 2.184854.0112744 7.127453.4481708 8.452968-.0366435 1.325515-.4819948 7.352117-4.2139364 9.365665-5.2004763 2.007931-.992178 8.947228-.8963423 11.87628-2.8750602 2.929051-1.9815366 9.379705-6.6182764 12.103751-8.3066697 2.721238-1.6855746 22.915689-14.0765208 27.223613-14.7501869 4.307925-.6736661 14.634026-4.7607617 16.403253-6.0263519 1.769226-1.2627716 7.335266-4.3379587 8.450159-5.3019496 1.117702-.9639908 6.700593 1.4854479 9.609987 5.6373733 0 0 5.675564-2.7876811 6.899981-2.8947912 1.221608-.1071101 3.485094-1.6883932 5.22062-3.021632 1.738335-1.3360575 6.972997-4.8735091 9.261757-5.9925277 0 0 1.157018-.5101823 1.378874-1.3247828.221855-.8146003 1.145784-2.3705153 1.977039-2.0491851 0 0 1.822584-2.3338725 2.561166-1.6320195 0 0 1.600728-1.5192721 2.51904-.6933969 0 0 .90708.1296595 1.213184.620111 0 0 1.151401-.9329853 1.684977-.2254949 0 0 .831255-.9414414 2.232594.1634838 0 0 .932354 1.1528428-.783514 3.2724952 0 0-1.075577.5580999-1.8282 2.1140149-.747007 1.555915-2.839187 4.5127173-5.130755 5.6711974-2.297185 1.1584802-4.948216 3.193572-4.849926 7.3539534.101099 4.1632001-1.665319 9.002885-6.020984 7.9148719-4.355666-1.088013-8.174947.3805227-11.988613 2.4635321 0 0-.334187 2.1985756-.702074 2.7228513-.370694.521457-2.07533.3523358-4.420256 1.8265089-2.342118 1.4713544-3.77154 2.023817-5.619398 3.4106108-1.850667 1.3867938-2.246637 2.3225977-3.802432 3.0470002-1.555796.7300397-3.302555 2.7087575-4.333199 3.805227-1.036261 1.09365-4.847118 3.7854957-9.351624 5.9840715-4.507313 2.2013939-23.033636 8.8337642-27.316286 12.3204789-4.288267 3.4867154-12.171151 9.7329252-24.134488 15.6070682-.497068.242407-.957629.479176-1.426614.713127-.72454.662392-11.011325 10.104992-14.532928 12.574161-3.650784 2.559368-5.111097 2.925797-6.206332 8.780209-.718923 3.858782-3.653592 10.088079-5.681181 15.048968-.446519 4.82841-.702074 9.518705-.811597 12.376853-.140415 3.695298-4.855542 40.442515-5.990094 44.416863-1.137359 3.979986-1.418189 6.964975-.850913 10.090898.567275 3.120286-.850914 6.815584-2.549932 9.941507-1.704636 3.125924-4.538205 10.513702-4.114153 14.775556.424053 4.261854.850914 5.826225-.424052 6.392781-1.277775.566556-5.3891185.42844-5.9535861 1.849058-.5672752 1.420618-2.6931551 1.420618-2.6931551 1.420618 0 0-.6374824 6.339227.4746023 7.455427 1.114893 1.110562 5.0465065 5.781126.2639799 9.259385-4.7881432 3.483897-9.8346496 6.573177-11.0113257 9.005704-1.1822919 2.426889-3.8052397 3.810864-4.7881431 4.597278-.9829034.786413-2.7521292 1.905431-2.8841188 2.362059-.129182.462264-1.5698372 1.316326-2.9487101.924529 0 0-1.1794836.521457-2.4263669-.8597 0 0-2.0275891.197309-2.4235588-1.11338 0 0-1.7046351.126841-1.9012158-1.183849 0 0-.8537217-1.905432 1.7046352-2.691845 2.5527404-.792051 6.6191518-6.508348 6.7511414-7.427239.1291813-.918892 2.0332057-6.638008 3.473861-9.000067 1.4406559-2.367696 3.3418713-8.543439 3.6058512-14.192087 0 0-.5869339-.391798-.5869339-.980903 0-.594743.0336995-3.309138.3173374-4.349233.2864462-1.045733.8509138-4.073003.4746016-8.526527-.3791197-4.447888.5672759-11.742649 0-16.76273-.5672751-5.02008.5111101-39.870322 2.0219726-44.416863 1.5136714-4.546542 2.078139-5.586637 1.9854647-7.387778-.0954818-1.80114 0-7.29476.5672759-7.576629.5644675-.284688.6599494-7.198925.4717933-7.959971-.1909637-.755408-4.2545668-3.596644-4.8190343-5.586637 0 0 .0926735 2.08301 0 2.841236-.0954819.758227-.1881554-.188852-1.7018269-1.801141-1.516479-1.612288-4.3500493-5.02008-4.5382047-7.483612-.3381908-.18309-4.5253047-2.65651-4.5253047-2.65651-.520943.022758-.7791951-.222649-.9055135-.437027z" fill="#991b21"/><path d="M90.1960921 87.4311756c-.4284932 7.6932209-18.4196545 42.7338374-18.4196545 42.7338374-.6288281 3.100464-.4980542 5.994607-.1808581 7.715831.7623845 4.126416-3.0495378 10.316039-3.0495378 10.316039l4.1513784 2.184739c5.6065871-3.250259 3.2025718-12.998209 3.2025718-12.998209-.4646653-1.743834-.5064014-3.422663-.2698959-4.999745l.0445193.04522c0 0 20.4035238-40.4416976 19.4157628-43.626951-.0027824.0056522-2.4346218-.3448104-4.894286-1.3707614h0 0z"/></svg>