<svg width="256px" height="256px" viewBox="0 0 256 256" xmlns="http://www.w3.org/2000/svg" preserveAspectRatio="xMidYMid"><path d="M97.2800192 3.739673l2.8800018 11.6390974c-11.3293579 2.7860001-22.1720356 7.2697175-32.1600187 13.2989687l-6.1600035-10.2792028C72.8467373 11.7537029 84.7951803 6.81153332 97.2800192 3.739673zm61.4400358 0-2.880002 11.6390974c11.329358 2.7860001 22.172036 7.2697175 32.160019 13.2989687l6.200003-10.2792028c-11.019143-6.6485389-22.981336-11.59081752-35.48002-14.6588633h0zM18.3999736 61.8351679C11.7546212 72.8410466 6.81206547 84.7885562 3.73996516 97.2724198l11.64000674 2.8797772c2.7862177-11.3284732 7.2702854-22.170304 13.3000077-32.1575068l-10.280006-6.1595223zm-6.4000037 66.1548701c-.0038655-5.817313.4306986-11.626646 1.3000008-17.378653l-11.86000687-1.79986c-1.919902437 12.713613-1.919902437 25.643412 0 38.357026l11.86000687-1.799861c-.8693022-5.752006-1.3038663-11.561339-1.3000008-17.378652h0zM194.160075 237.581539l-6.160003-10.279203c-9.975578 6.025549-20.804507 10.509158-32.120019 13.298969l2.880002 11.639098c12.470993-3.075671 24.405687-8.017732 35.40002-14.658864h0zm49.840029-109.591501c.003866 5.817313-.430698 11.626646-1.300001 17.378652l11.860007 1.799861c1.919903-12.713614 1.919903-25.643413 0-38.357026l-11.860007 1.79986c.869303 5.752007 1.303867 11.56134 1.300001 17.378653zm8.260005 30.717618-11.640007-2.879777c-2.786218 11.328473-7.270285 22.170304-13.300008 32.157506l10.280006 6.19952c6.649059-11.018283 11.591723-22.979541 14.660009-35.477249h0zm-106.880062 83.993486c-11.521838 1.733328-23.238182 1.733328-34.76002 0l-1.800001 11.859081c12.714606 1.919752 25.645416 1.919752 38.360022 0l-1.800001-11.859081zm76.000044-45.896441c-6.918612 9.36944-15.204214 17.647653-24.580014 24.558096l7.120004 9.659251c10.342877-7.604037 19.484863-16.718343 27.120016-27.037903l-9.660006-7.179444zM196.800077 34.6172785c9.377268 6.9165273 17.662946 15.2015582 24.580014 24.5780941l9.660006-7.1994417c-7.610813-10.3136835-16.725527-19.4276857-27.040016-27.0379033l-7.200004 9.6592509zM34.619983 59.1953726c6.9170676-9.3765359 15.2027458-17.6615668 24.5800142-24.5780941l-7.2000041-9.6592509c-10.3144893 7.6102176-19.4292035 16.7242198-27.0400157 27.0379033l9.6600056 7.1994417zM237.6001 61.8351679l-10.280006 6.1595223c6.02602 9.9747988 10.509979 20.8028816 13.300008 32.1175098l11.640007-2.8797771c-3.075911-12.4700186-8.018358-24.4037806-14.660009-35.397255h0zM110.620027 13.2989317c11.521838-1.7333282 23.238182-1.7333282 34.76002 0l1.800001-11.85908036c-12.714606-1.919752452-25.645416-1.919752452-38.360022 0l1.800001 11.85908036zM40.7799866 234.201801l-24.7800144 5.779552 5.7800034-24.778078-11.6800068-2.739788-5.7800033 24.778079c-.9465211 4.041614.26323782 8.285331 3.19863375 11.220498 2.93539595 2.935166 7.17944485 4.144831 11.22137455 3.198384l24.7600143-5.67956-2.7200015-11.779087zm-28.1800163-32.437484 11.6800067 2.719789 4.0000023-17.178668c-5.8303109-9.798292-10.1774596-20.405854-12.9000074-31.477559l-11.64000674 2.879777c2.60941102 10.604235 6.57544954 20.827749 11.80000684 30.417641l-2.9400017 12.63902zm56.0000324 25.997984-17.18001 3.99969 2.7200016 11.679094 12.6400073-2.939772c9.5906412 5.224149 19.8149541 9.189878 30.4200176 11.799085l2.8800018-11.639098c-11.0493175-2.754868-21.6304526-7.128511-31.4000183-12.978993l-.08.079994zM128.000037 23.9980665C90.1565244 24.0177003 55.3105242 44.590631 37.01511 77.715217c-18.2954142 33.124586-17.1522469 73.571995 2.9848761 105.61053l-10.0000058 42.656692 42.6600247-9.999225c37.417927 23.565308 85.647232 20.89354 120.232846-6.660561 34.585613-27.554101 47.96342-73.964262 33.350093-115.6978252-14.613328-41.7335632-54.021753-69.6631076-98.242907-69.6267613z" fill="#3a76f0"/></svg>