<svg width="256px" height="275px" viewBox="0 0 256 275" xmlns="http://www.w3.org/2000/svg" preserveAspectRatio="xMidYMid"><title>sigstore</title><path d="M252.929365 99.1701466c-2.729454-10.9178143-8.188361-20.0159929-15.466904-28.2043536-5.458907-6.368725-11.827632-11.8276322-18.196357-18.1963572-6.368725-5.4589071-10.917814-11.8276322-13.647268-19.106175-1.819636-3.6392715-3.639271-7.2785429-6.368725-10.9178143-4.549089-6.368725-11.827632-10.9178143-19.106175-14.55708577-11.827632-6.36872501-24.565082-8.188360730000028-38.21235-8.188360730000028-7.278543 3e-23-14.557086.9098178590000284-21.835629 2.7294535800000284C109.178143 4.54908929 99.1701466 9.09817859 89.1621502 14.5570857c-6.3687251 3.6392715-11.8276322 8.1883608-17.2865394 12.7374501-9.0981785 7.2785428-18.1963571 14.5570857-25.4749 23.6552643-5.4589072 7.2785429-12.73745 11.8276322-20.0159929 16.3767214-7.2785429 3.6392715-12.73745 9.0981786-18.19635717 14.5570858C2.72945358 87.3425144 0 93.7112394 0 100.989782c0 5.458907.909817859 10.917815 1.81963572 15.466904 1.81963571 8.188361 5.45890715 15.466904 8.18836068 23.655264 1.8196358 4.54909 2.7294536 9.098179 2.7294536 13.647268 0 4.549089 0 9.098179-.9098178 13.647268-.9098179 10.007996 0 20.925811 1.8196357 30.933807 1.8196357 9.098179 7.2785429 16.376722 16.3767214 20.015993.9098179.909818 2.7294536.909818 3.6392715.909818 1.8196357.909818 1.8196357 1.819636.9098178 2.729454 0 0 0 0-.9098178.909817-3.6392715 4.54909-6.368725 10.007997-5.4589072 16.376722.9098179 10.007996 11.8276322 16.376721 20.9258108 11.827632 5.4589071-1.819636 10.9178143 0 12.73745 3.639271.9098179.909818.9098179 1.819636 1.8196357 2.729454 1.8196357 4.549089 3.6392714 8.188361 6.368725 11.827632 3.6392715 4.549089 8.1883608 6.368725 14.5570858 5.458907 3.6392714-.909818 7.2785428-1.819635 10.9178143-3.639271 6.3687248-3.639272 11.8276318-8.188361 18.1963568-13.647268 1.819636-1.819636 3.639272-1.819636 6.368725-1.819636 3.639272 0 7.278543 1.819636 10.917815 4.54909 5.458907 3.639271 10.917814 6.368725 17.286539 8.18836 11.827632 3.639272 22.745446 4.54909 34.573079 1.819636 11.827632-2.729454 21.835628-8.188361 30.933807-14.557086 6.368725-4.549089 10.917814-9.098178 14.557086-15.466903 3.639271-6.368725 5.458907-12.73745 7.278542-20.015993 2.729454-10.007997 3.639272-20.015993 3.639272-30.933807.909818-9.098179 1.819636-17.28654 4.549089-25.4749 1.819636-6.368725 4.549089-12.73745 7.278543-19.106175 1.819636-5.458908 3.639271-10.917815 4.549089-17.28654.909818-10.007996 0-19.106175-2.729453-28.2043534zM135.562861 7.27854287c2.729454-.90981786 6.368725-.90981786 9.098179-.90981786.909817 0 1.819635 0 2.729453 0 10.007997 0 19.106175 1.81963572 28.204354 4.54908929 5.458907 1.8196357 10.917814 5.4589072 15.466903 9.0981786 4.54909 3.6392714 6.368725 8.1883607 8.188361 12.73745 0 0 0 0 0 .9098179 0 .9098178 0 1.8196357-.909818 1.8196357-.909818 0-.909818 0-1.819636-.9098179-3.639271-3.6392714-6.368725-7.2785428-10.007996-10.0079964-5.458907-4.5490893-10.917814-8.1883607-18.196357-10.0079965-10.007997-2.7294535-19.106175-4.5490893-29.114172-6.36872497-1.819635 0-2.729453 0-4.549089 0 0 0-.909818 0-.909818 0 .909818 0 .909818 0 1.819636-.90981786-.909818 0 0 0 0 0zM94.6210573 120.095957c5.4589067 0 10.0079967 4.54909 10.9178147 10.917815 0 5.458907-4.54909 10.917814-10.9178147 10.917814-5.4589071 0-10.9178143-4.549089-10.0079964-10.917814 0-6.368725 4.5490893-10.917815 10.0079964-10.917815zm34.5730787 11.827633h0c0-10.007997 0-20.925811 0-30.933808 0-20.9258104 18.196357-28.2043533 32.753443-22.7454461 2.729453.9098178 5.458907 2.7294535 8.188361 4.5490892 1.819635 1.8196358 1.819635 4.5490893.909817 7.2785429-1.819635 1.8196357-3.639271 2.7294536-6.368725.9098179-1.819635-.9098179-4.549089-1.8196357-6.368725-2.7294536-5.458907-1.8196357-11.827632 0-14.557085 3.6392714-.909818 1.8196357-1.819636 3.6392715-1.819636 6.368725-.909818 4.5490893 0 8.1883603 0 12.7374503 0 18.196357 0 35.482896 0 53.679253 0 10.917815-5.458907 19.106175-16.376721 21.835629-9.098179 2.729454-17.28654 1.819636-24.565083-5.458907-1.8196354-1.819636-2.7294533-4.549089-.909818-6.368725.909818-1.819636 3.639272-2.729454 6.368725-1.819636 2.729454.909818 5.458908 2.729454 8.188361 3.639272 9.098179.909817 15.466904-2.729454 15.466904-12.73745-.909818-10.917815-.909818-20.925811-.909818-31.843625zm-80.0639716 69.146157c0 0-.9098179 0-.9098179 0-.9098178-.909818-1.8196357-.909818-2.7294536-1.819636-1.8196357-1.819636-3.6392714-2.729454-5.4589071-4.549089-2.7294536-2.729454-4.5490893-5.458907-6.368725-9.098179-3.6392715-7.278543-7.2785429-15.466903-9.0981786-24.565082-.9098179-4.549089-1.8196357-9.098179-1.8196357-13.647268 0-4.549089-.9098179-9.098178-1.8196357-12.73745-.9098179-6.368725-1.8196358-13.647268-1.8196358-20.015993 0-8.188361.9098179-15.4669034 3.6392715-22.7454463 2.7294535-8.1883607 6.368725-15.4669036 12.73745-21.8356286 5.4589071-5.4589071 10.0079964-10.9178143 15.4669036-16.3767214.9098178-.9098179 2.7294536-1.8196358 3.6392714-1.8196358 0 .9098179-.9098178 2.7294536-1.8196357 3.6392715-2.7294536 3.6392714-5.4589071 6.368725-8.1883607 10.0079964-4.5490893 5.4589072-8.1883608 10.9178143-10.9178143 16.3767215-3.6392715 6.368725-6.368725 12.73745-8.1883608 20.0159927-.9098178 3.639272-1.8196357 7.278543-1.8196357 10.917814 0 3.639272-.9098178 7.278543 0 11.827633 0 5.458907.9098179 10.007996 1.8196357 14.557085.9098179 5.458908 1.8196358 10.007997 1.8196358 15.466904 0 6.368725 1.8196357 12.73745 3.6392714 19.106175 0 1.819636 1.8196357 2.729454 1.8196357 4.549089 2.7294536 5.458907 5.4589072 10.007997 10.0079965 13.647268 1.8196357 1.819636 3.6392714 4.549089 5.4589071 6.368725 0 0 0 .909818.9098179.909818 0 .909818 0 .909818 0 1.819636h0zm23.6552643 22.745446c-3.6392714 0-6.368725.909818-10.0079964 1.819636-3.6392715.909818-5.4589072-.909818-6.3687251-4.549089 0-.909818-.9098178-2.729454 0-3.639272.9098179-2.729453 2.7294536-2.729453 4.5490893-.909818 1.8196358 1.819636 4.5490893 3.639272 6.368725 4.54909.9098179.909818 1.8196358.909818 3.6392715.909818.9098178 0 1.8196357.909817 3.6392714 1.819635-.9098178 0-.9098178 0-1.8196357 0h0zm69.1461573 19.106175c-2.729454 1.819636-6.368725 2.729454-10.007996 2.729454-2.729454 0-5.458908-.909818-8.188361-.909818-.909818 0-.909818 0-1.819636 0-3.639271.909818-6.368725.909818-10.007996 1.819636-.909818 0-2.729454 0-3.639272.909818-2.729453 0-5.458907 0-8.188361 0-3.639271 0-6.3687246-1.819636-9.0981781-4.54909-.9098179-.909818-1.8196357-2.729453-2.7294536-4.549089-.9098179-.909818-.9098179-1.819636-.9098179-3.639271 0-.909818.9098179-.909818 1.8196358-.909818 0 0 .9098178 0 .9098178 0 4.5490893 2.729453 10.007996 3.639271 14.557086 4.549089 6.368725.909818 12.73745 1.819636 19.106175 1.819636 3.639271 0 6.368725.909818 10.007996.909818 1.819636 0 4.54909 0 6.368725 0 .909818 0 .909818 0 .909818 0 1.819636.909817.909818.909817.909818 1.819635zm33.663261-22.745446c-6.368725 3.639271-13.647268 6.368725-20.925811 8.188361-1.819636 0-4.549089.909817-6.368725.909817-1.819636 0-4.549089 0-6.368725.909818-3.639271.909818-7.278543 0-10.917814 0-2.729454 0-5.458907-.909818-8.188361 0-.909818 0-.909818 0-1.819636 0-3.639271-.909818-8.188361-1.819635-11.827632-2.729453-4.549089-.909818-9.098179-2.729454-12.73745-4.54909-3.6392714-.909817-7.2785428-2.729453-10.0079964-4.549089-1.8196357-.909818-3.6392715-2.729453-5.4589072-3.639271-5.4589071-5.458907-10.9178143-10.007997-15.4669036-14.557086-3.6392714-4.549089-7.2785428-8.188361-10.9178143-12.73745-3.6392714-5.458907-6.368725-10.917814-9.0981786-17.286539-.9098178-2.729454-1.8196357-5.458908-2.7294535-8.188361-.9098179-2.729454-1.8196358-4.549089-1.8196358-7.278543 0-2.729454 0-4.549089 0-7.278543 2.7294536 7.278543 4.5490893 15.466904 8.1883608 22.745447 6.368725 14.557085 15.4669036 27.294535 27.2945357 37.302532 12.7374501 10.007996 26.3847179 16.376721 41.8516219 19.106175 8.18836 1.819636 16.376721 1.819636 24.565082 1.819636 10.007996-.909818 20.015993-2.729454 29.114171-7.278543 1.819636-.909818 2.729454-1.819636 4.54909-1.819636 0 .909818 0 .909818-.909818.909818zm.909818-79.154154c-5.458908 0-10.007997-4.549089-10.007997-10.917814 0-5.458907 4.549089-10.917815 10.917814-10.917815 5.458908 0 10.007997 4.54909 10.007997 10.917815 0 6.368725-4.549089 11.827632-10.917814 10.917814zm56.408707 51.859618c0 3.639271-.909818 7.278543-1.819636 10.917814-.909818 3.639272-.909818 8.188361-2.729453 11.827633-.909818 3.639271-1.819636 6.368725-3.639272 10.007996-.909818 2.729454-2.729453 5.458907-5.458907 7.278543-2.729454 1.819636-4.549089 3.639271-8.188361 4.549089-3.639271 1.819636-6.368725 2.729454-10.917814 2.729454-2.729454 0-4.549089 0-7.278543 0 0 0-.909818 0-.909818 0-1.819636-.909818-1.819636-.909818-.909818-2.729454.909818-1.819636 2.729454-2.729453 4.54909-3.639271 2.729453-1.819636 5.458907-4.54909 7.278542-6.368725 6.368726-6.368725 11.827633-14.557086 17.28654-21.835629 3.639271-3.639271 5.458907-9.098179 8.188361-13.647268.909817-.909818.909817-1.819636 1.819635-2.729453 2.729454 1.819635 2.729454 2.729453 2.729454 3.639271zM96.440693 40.0319858c15.466904-7.2785429 31.843625-10.0079965 48.220347-8.1883607 3.639271 0 7.278542.9098178 10.007996 2.7294535 5.458907 1.8196357 10.917814 3.6392715 16.376721 5.4589072 5.458908 1.8196357 10.917815 4.5490893 15.466904 7.2785429 6.368725 3.6392714 11.827632 8.1883607 17.286539 13.6472678 7.278543 7.2785429 13.647268 14.5570858 18.196358 23.6552644 2.729453 5.4589071 4.549089 10.9178143 6.368725 16.3767211 1.819635 6.368725 3.639271 13.647268 3.639271 20.015993 0 2.729454 0 5.458907 0 8.188361 0 3.639271-.909818 7.278543-.909818 10.917814h0c0-2.729453 0-5.458907 0-9.098178 0-10.917815-2.729453-20.925811-5.458907-30.933808-1.819636-4.5490888-3.639271-9.0981781-5.458907-13.6472674-1.819636-5.4589072-4.549089-10.0079965-8.188361-14.5570858-.909818-.9098178-2.729453-.9098178-3.639271-1.8196357-.909818 0-.909818 0-1.819636-.9098178-4.549089-4.5490893-10.007997-9.0981786-15.466904-13.6472679-7.278543-5.4589072-15.466903-10.0079965-23.655264-12.73745-3.639271-1.8196358-7.278543-2.7294536-10.917814-3.6392715-8.188361-1.8196357-16.376722-3.6392714-24.565082-2.7294536-2.729454 0-5.458908 0-8.188361 0-2.729454 0-5.458907.9098179-9.098179 1.8196358-5.458907.9098178-10.917814 2.7294535-15.4669034 4.5490893 0 0-.9098179 0-.9098179 0 0 0-.9098178 0 0-.9098179 0 0 0-.9098179-.9098178-1.8196357M244.741004 141.021768c-.909818-7.278543 0-15.466903 0-22.745446-.909818-7.278543-1.819636-14.557086-3.639271-21.835629 4.549089 6.368725 5.458907 14.557086 6.368725 21.835629 0 7.278543 0 15.466903-2.729454 22.745446zm5.458907 4.549089c0 0 0 0 0 0 0-2.729453.909818-6.368725 1.819636-10.007996.909818-3.639271.909818-8.188361.909818-11.827632 0-.909818 0-2.729454 0-3.639272 0-7.278543-1.819636-14.557085-3.639272-21.8356283-3.639271-8.1883607-7.278543-14.5570857-12.73745-21.8356286-4.549089-5.4589071-8.18836-10.9178143-12.73745-16.3767214-.909818-.9098179-.909818-.9098179-1.819635-1.8196357.909817 0 .909817 0 .909817.9098178 9.098179 7.2785429 16.376722 14.5570858 21.835629 24.5650822 4.549089 9.0981786 8.188361 18.196357 9.098179 28.204354 2.729453 11.827632.909817 22.745446-3.639272 33.66326z" fill="#2f2e71"/></svg>