<svg width="256px" height="256px" viewBox="0 0 256 256" xmlns="http://www.w3.org/2000/svg" preserveAspectRatio="xMidYMid"><title>SingleStore</title><defs><linearGradient x1="67.3449258%" y1="-26.0044686%" x2="-18.5227789%" y2="22.9877555%" id="a"><stop stop-color="#ff7bff" offset="0%"/><stop stop-color="#a0f" offset="35.0158%"/><stop stop-color="#80c" offset="100%"/></linearGradient><linearGradient x1="36.2591509%" y1="-19.3628763%" x2="111.72205%" y2="44.9975357%" id="b"><stop stop-color="#ff7bff" offset="3.54358%"/><stop stop-color="#80c" offset="57.6537%"/><stop stop-color="#311b92" offset="100%"/></linearGradient></defs><path d="M133.793438 0c27.426676 7.62806846 52.415409 26.8506986 62.776485 50.3452712 15.846508 38.1403422 12.189714 86.3497868-5.180417 115.0312978-14.627657 23.494331-37.178448 36.004516-63.0815 35.69926-40.2256954-.305015-72.8327889-32.342893-73.1375619-72.619061 0-40.2764106 31.6930158-73.5345882 73.1375619-73.5345882 6.704282 0 16.371046.9297752 27.341668 5.5064424 0 0-7.886908-4.6713352-28.142724-7.8093867C69.3015772 44.9912153.621898574 89.095884 16.4683968 190.701711c21.9412202 39.055628 63.9955536 65.602278 111.8396092 65.295573 70.395087-.30429 127.991155-57.972567 127.688065-128.761058C255.996071 59.498847 200.836263 1.83073691 133.793438 0z" fill="url(#a)"/><path d="M181.635561 54.0037552c-9.75153-20.4432196-29.864378-36.6148349-54.548338-43.0224104-5.485432-1.52560406-11.275395-2.13587466-17.674905-2.4409858-9.4469981 0-18.5892235 1.22051703-28.036222 3.6615028-23.4651095 7.017822-39.920922 20.7484032-49.6726935 31.4275348C19.20906 57.9701518 10.9810571 72.9211776 6.1052197 87.8722034c0 .305256-.3047489.6102705-.3047489 1.2205411-.3047489 1.2205412-1.52369618 4.8819233-1.52369618 5.7974499-.3047489.6102706-.3047489 1.5255558-.60947364 2.1358263-.3047489 1.2205412-.6094978 2.4408409-.91422254 3.6613823 0 .305256 0 .61027-.3047489.915285-7.92325395 39.360883 5.23917425 74.683403 13.16242816 87.803617 1.9817735 3.281744 3.6091456 6.01963 5.2401161 8.531714C2.87119611 100.298588 54.558966 53.6984992 113.373885 52.477958c30.778697-.6100291 61.557393 11.8999143 76.489824 36.9200426-.91432-13.7307261-1.828397-21.3587463-8.228148-35.3942454z" fill="url(#b)"/></svg>