<svg width="512px" height="269px" viewBox="0 0 512 269" xmlns="http://www.w3.org/2000/svg" preserveAspectRatio="xMidYMid"><title>SK Hynix</title><path d="M45.4183793 177.262781l-2.3340621-1.095616c-7.4935084-3.548499-13.3008637-6.76918-13.3008637-12.719225 0-5.017204 4.017687-8.663224 11.9377027-8.663224 2.915544 0 5.2992338.345113 7.766241.793758 1.2879949.223415 2.6592346.410502 3.7934004.410502 6.8094155 0 10.7022106-3.987933 13.3037074-11.568124l1.2034463-3.592654-1.1373418-.464384c-3.387664-1.344849-13.4590767-4.956602-26.0252572-4.956602-23.4653031 0-35.85154268 15.051796-35.84514902 30.661219 0 7.875097 2.46700716 13.584524 6.33090132 18.082789 4.6710713 5.423462 11.2081885 9.0884 17.4812417 12.20046l1.21027.595754c9.6693348 4.741842 18.3903377 8.24691 18.3903377 15.2763.0064119 6.241081-6.4398295 9.784657-15.0582978 9.784657-11.809539 0-22.1260863-6.741131-23.43967406-7.554869L0 232.619682l1.20993056.701681c3.89074237 2.204418 15.66759284 8.198762 33.54589914 8.198762 21.8953879-.012896 38.4787365-12.565716 38.4787365-31.885277 0-19.216936-15.3658655-26.342413-27.8161869-32.372067zm85.6484327 8.97001 39.715455-48.699143h-28.296783l-31.680081 42.02867h-.474257v-42.02867H87.0004007l.0128237 103.165292h1.3840815c10.0858489 0 22.0876331-4.671184 22.0876331-21.510842v-23.68959h.474257l32.295235 43.912437h29.687276l-41.874895-53.178154z" fill="#e31837"/><g transform="translate(110.704069)"><path d="M95.4267314 63.3521489c32.1927176 1.3007096 58.1442446 12.8795865 75.9194296 24.2150684l-1.899226 1.0476209c-8.790594 4.791043-22.285689 11.1836785-42.218371 11.2681613-5.587584.0127147-8.676139-.4295738-11.912056-.4232165-14.628978.0512219-16.9037756 8.278878-17.3458826 19.216936l-.0435887 1.276823h0l-.0462305 1.274019c-.407351 10.813905-1.222025 21.196248-5.5298058 27.892775l-.5618558-1.568694c-1.869613-5.132948-4.6366856-11.820526-9.4022412-19.583413l-.4085569-.707347c-3.3764768-5.781818-6.0256139-8.74603-6.2042831-8.955613l.751591-2.149423h0l18.901077-52.8036971h0zM61.4014134 27.0211c11.5999151 8.9389022 23.3043748 20.5275106 33.3966815 35.3987684l.6286545.9337336-36.844757 45.213328-.7047696-.101943c-1.5248765-.201723-5.4168908-.624399-11.0855524-.610078-3.421769.007266-6.535953.172556-9.381003.423217 7.035748-4.401997 13.540204-12.3541081 13.494795-24.1573079-.032041-15.6797177-9.823328-22.9397881-9.848757-34.9095499-.044865-13.1807423 12.12993-20.6389798 20.344708-22.1901682z" fill="#e31837"/><path d="M14.5329268 112.065895c-1.7980461.00606-2.726214-1.143057-3.0142859-3.150354l-.0998746-.866476c-.8544952-7.779451-8.7427629-79.9110448-10.551850485-96.6880352L.609177051 8.97719301C.390992668 7.05335022.00587170544 4.10405644 7.10542736e-15 2.9925741-.00634048297 1.03179201 1.27517002.00644555929 2.78105793 0l.28499925.00567796096C8.09726711.209726513 31.4481984 5.90976011 56.1899285 23.2602858l-.4436524.129298c-7.3565032 2.220799-19.9896133 9.7957795-19.9330966 25.1494425.0508586 13.8729647 9.9769206 21.5044848 10.0281789 35.415775.0835534 22.6259177-25.9258986 28.0981257-31.3084316 28.1110937zm79.9339201 43.072108c.3972423 1.050775.7688736 1.934262 1.1470439 2.54947.583058.980845 1.3328596 1.429491 2.2683679 1.429491.5830579-.006357 1.3007096-.205251 2.1017513-.563077l86.516686-40.225112c1.692783-.784486 3.03928-1.407485 3.96764-1.835526l1.272497-.599568c1.694823-.790081 3.830871-1.7705 4.648284-2.251967 1.089283-.621202 1.589151-1.525759 1.589151-2.447753-.006412-.519485-.154393-1.03897-.448465-1.513045l-.125438-.193897c-1.71896-2.56216-9.091793-10.2763085-21.212484-18.6833757l-2.099091 1.1506611c-9.92078 5.3981748-24.776627 12.7091676-46.164339 12.7927796l-.949009-.001651c-4.684104-.027834-6.084965-.342119-9.457718-.350855l-.332728 1.28e-4c-11.200816.036327-14.001001 4.83157-14.411103 14.654734l-.047273 1.614586c-.041733 1.59074-.0837 3.467536-.164154 5.478741l-.062063 1.412738c-.415294 8.629726-1.68149 19.903341-8.0375561 27.582498z" fill="#f58025"/></g><path d="M293.342681 182.35482c7.344823 0 9.591662 4.086617 11.493663 8.615588l14.233597 34.323088h.390885l13.603722-41.862107h14.109948l-21.799301 58.663803c-8.541581 23.087278-19.543739 26.073225-28.982412 26.073225-6.67051 0-11.572465-2.383636-12.085084-2.646284l3.562738-10.803646.266257.136681c.947312.475068 4.137533 1.952337 7.634542 1.952337 7.497108 0 12.200424-4.16514 16.359062-17.211289l-25.784911-56.164282.498287-.146932.663147-.175296c1.290751-.321713 3.463528-.754886 5.83586-.754886zm-63.444769-28.337342c6.952449 0 11.431496 5.055893 11.431496 11.790485v24.048325l.883546-.751247.425759-.346471c2.665852-2.13246 8.867534-6.405748 16.869588-6.405748 10.944488 0 19.018297 5.709246 19.018297 19.620536v37.440675h-14.609743v-33.435739c0-6.157891-3.39614-10.931701-9.823146-10.931701-6.113026 0-11.29692 4.825032-12.764301 6.036194v38.331246h-14.507226v-85.396555h3.07573zm158.812469 28.575651.446653.004613c7.328741.150377 19.769172 4.036877 20.022295 20.338206l.003924.508133v35.966864h-14.090712V206.97476c0-6.843393-3.761378-12.097817-11.014982-12.097817-4.442323 0-8.540521 3.060562-10.397661 4.647447l-.397013.346055-.547111.49796v39.04254h-14.103535l-.001103-38.091137-.008624-1.053392c-.081191-6.548576-.656746-10.774253-1.124432-13.376704l-.177639-.944569-.283747-1.396862.348993-.081294c.872765-.191582 3.126907-.630727 4.924612-.630727 6.157891 0 8.842773 3.870342 9.445084 6.157891l.32447-.314858c2.195951-2.090436 8.269478-7.086164 16.630528-7.086164zm50.209572.804112v55.933602h-13.981947v-55.933602h13.981947zm23.227485-1.112896c5.094329-.101039 7.630043 2.748586 9.881589 6.080802l.619035.934703.757843 1.167105 8.093044 12.713024 13.443536-20.56251h16.647413l-19.313059 28.046903L512 239.319945h-16.61539l-13.507599-20.633349-13.507619 20.633349h-16.628194l19.428398-28.252336-3.184274-4.578725-15.116352-21.603483.461061-.230678c.978125-.476582 3.241395-1.495461 5.912312-2.029437l.766087-.145218c.751621-.127609 1.460892-.180586 2.139008-.195723zm-30.213336-24.313153c4.812244 0 8.695355 3.793328 8.695355 8.471051 0 4.658469-3.883111 8.432725-8.695355 8.432725-4.805851 0-8.688962-3.774256-8.688962-8.432725 0-4.677723 3.883111-8.471051 8.688962-8.471051z" fill="#f58025"/></svg>