<svg width="512px" height="77px" viewBox="0 0 512 77" xmlns="http://www.w3.org/2000/svg" preserveAspectRatio="xMidYMid"><path d="M135.203396 23.7893019c6.644512 0 11.488175 2.2821104 14.763857 6.039054v-4.6573681h14.872529v49.5543966h-14.872529v-4.6573681c-3.275682 3.7724682-8.119345 6.039054-14.763857 6.039054-12.978532 0-23.690479-11.3950273-23.690479-26.1588842 0-14.7638569 10.696422-26.1588842 23.690479-26.1588842zm243.98399-18.44317764V74.7098599h-14.872529v-4.6573681c-3.275682 3.7724681-8.119345 6.0390539-14.763856 6.0390539-12.978533 0-23.690479-11.3950273-23.690479-26.1588841 0-14.7638569 10.696422-26.1588842 23.690479-26.1588842 6.644511 0 11.488174 2.2821103 14.763856 6.039054V5.34612426h14.872529zM273.154639 23.6185318c14.329169 0 25.848393 11.2087325 25.848393 25.739721 0 14.5309885-11.503699 25.7397211-25.848393 25.7397211-14.329169 0-25.832868-11.2087326-25.832868-25.7397211 0-14.5309885 11.503699-25.739721 25.832868-25.739721zM26.1588842 2.66037532c11.3950273 0 20.3216495 5.44912068 25.3671316 15.66428138l-13.382171 7.8243784c-2.3752578-4.9523347-5.65094-8.0261977-11.9849606-8.0261977-4.9523348 0-7.4362644 2.4839297-7.4362644 5.2473014 0 3.1670103 1.692177 5.3559733 12.4817465 8.616131l.6320308.1907008c.6333495.1914652 1.2703419.3854755 1.9081569.5843011l.6379848.2005149c.1063416.0337147.2126801.0675842.3190022.1016189l.6376324.2062761c9.2398019 3.0222024 18.1584615 7.454587 18.1584615 20.2181043 0 13.382171-10.696422 21.2997228-25.7707701 21.2997228C13.1803517 74.8030072 3.86561552 67.8635287 0 57.6638926l13.6771377-7.9330503c2.4839296 5.7440873 6.7376591 9.6097028 14.5620376 9.6097028 7.5294117 0 9.4078835-2.965191 9.4078835-5.6509399 0-4.2537296-3.9587629-5.9459067-14.3757429-8.8179503-10.2927835-2.8720437-20.39927224-7.8243784-20.39927224-21.0978775 0-13.382171 11.30187994-21.11340208 23.28684054-21.11340208zM411.944209 22.4697143c14.46889 0 25.165312 11.193208 25.165312 26.1588842 0 2.0802911-.201819 4.0674348-.589933 5.9459066h-35.178654c1.893996 5.1696786 6.442692 6.955003 11.891813 6.955003 4.067435 0 7.529412-1.5835051 9.516556-3.7724681l11.891813 6.8308065c-4.859188 6.7376592-12.18678 10.1996362-21.610188 10.1996362-16.95282 0-27.447423-11.3950273-27.447423-26.1588842 0-14.7638569 10.696422-26.1588842 26.360704-26.1588842zM205.483081.0832983013V15.1421218c-5.85276-.527835-9.718375 1.2574894-9.718375 7.312068h9.718375v15.0588235h-9.718375v37.2123711H180.0849V37.5130133h-7.001577V22.4541898h7.001577c0-14.63966045 8.041722-23.411037041 25.398181-22.3708914987zm39.494481 0V15.1421218c-5.852759-.527835-9.718375 1.2574894-9.718375 7.312068h9.718375v15.0588235h-9.718375v37.2123711h-15.679806V37.5130133h-7.001576V22.4541898h7.001576c0-14.63966045 8.041723-23.411037041 25.398181-22.3708914987zM473.856155 24.1774159v16.844148c-6.147726-.9935718-14.872529 1.4903578-14.872529 11.3018799v22.4019406h-14.872528V25.1709878h14.872528v8.8179503c1.987144-6.6445118 8.631656-9.8115222 14.872529-9.8115222zM75.5114615 4.7406664v69.9691935H60.5147362V4.7406664h14.9967253zm244.2944815.21734385.108672 69.41030925-.108672-.0465737h-14.872529V4.95801025h14.872529zM138.184112 37.8545536c-6.830807 0-11.798666 4.6573681-11.798666 12.0936325 0 7.4362644 4.952334 12.0936325 11.798666 12.0936325 6.846331-.0155245 11.798665-4.6728926 11.798665-12.0936325 0-7.4362644-4.952334-12.0936325-11.798665-12.0936325zm214.347604 0c-6.830806 0-11.798666 4.6573681-11.798666 12.0936325 0 7.4362644 4.952335 12.0936325 11.798666 12.0936325 6.846331-.0155245 11.798666-4.6728926 11.798666-12.0936325 0-7.4362644-4.952335-12.0936325-11.798666-12.0936325zm-79.377077 0c-6.33402 0-11.208732 4.5797453-11.208732 11.5036992 0 6.9239539 4.874712 11.5036992 11.208732 11.5036992 6.334021 0 11.208733-4.5797453 11.208733-11.5036992 0-6.9239539-4.874712-11.5036992-11.208733-11.5036992zm138.696422-2.188963c-5.65094 0-9.407883 2.7788963-10.805094 7.8243784h21.315222c-1.583506-5.7440873-6.039054-7.8243784-10.510128-7.8243784z" fill="#0a0a0a"/><path d="M112.149424 24.7363001 93.9546392 49.7308423 112.64621 74.7253844H95.6468163L79.6565191 52.6339351l-2.1268648-2.9030928 17.1235901-24.9945422h17.4961796zm382.633839-.0155245 17.12359 24.9945421-2.126865 2.9030928-15.990297 22.0914494h-16.999394l18.691571-24.9945422-18.194785-24.9945421h17.49618z" fill="#ff6b35"/></svg>