<svg width="256px" height="289px" viewBox="0 0 256 289" xmlns="http://www.w3.org/2000/svg" preserveAspectRatio="xMidYMid"><path d="M239.348 64.287 128 0 16.652 64.287C6.348 70.236 0 81.231 0 93.129v109.345c0 11.899 6.348 22.893 16.652 28.842l89.177 51.487c13.72 7.921 30.623 7.921 44.342 0l89.177-51.487C249.652 225.367 256 214.373 256 202.474V93.129c0-11.898-6.348-22.893-16.652-28.842h0zm-17.28 122.846c0 8.805-4.65 16.942-12.198 21.344l-63.805 37.216c-10.974 6.401-24.544 6.401-35.518 0l-63.806-37.216c-7.548-4.402-12.198-12.539-12.198-21.344v-80.919c0-8.806 4.65-16.942 12.198-21.345l81.565-47.574 81.564 47.574c7.548 4.403 12.198 12.539 12.198 21.345v80.919h0z" fill="#bac4c5"/><g transform="translate(68 84)"><path d="M92.404 26.041l-.654.459-30.125 31.969-.402.593.152.063 30.984.047.045-.11 29.389-27.966-29.389-5.055" fill="#ed1a3b"/><path d="M92.404 92.083l-.185.042-30.875-32.688-.121-.375h31.181l29.389 27.62-29.389 5.401" fill="#c2315d"/><path d="M61.223 59.062l31.181 33.021-1.44 25.677-29.741-29.363-.077-.272-.063-28.667.14-.396" fill="#94407e"/><path d="M28.206 90.241l-.039-.304 32.666-30.645.394-.232-.004 29.337-29.53 29.363-3.487-27.519" fill="#577f9f"/><path d="M61.227 59.06 28.206 90.241.695 86.596 31.892 59.06l.171-.143 28.791-.021.373.164" fill="#00aec5"/><path d="M61.227 59.064l-.394-.647-32.125-30.5-.502-.034L.695 31.79l31.197 27.274h29.335" fill="#93c483"/><path d="M28.206 27.883l33.021 31.181.148-.772v-28l-.152-.565L31.655.381l-3.449 27.502" fill="#fcde11"/><path d="M61.223 59.062l31.181-33.021L90.638.381 61.223 29.727v29.335" fill="#f78e36"/></g></svg>