<svg width="256px" height="256px" viewBox="0 0 256 256" xmlns="http://www.w3.org/2000/svg" preserveAspectRatio="xMidYMid"><title>Skype</title><defs><linearGradient x1="42.1728972%" y1="0.58411215%" x2="57.8271028%" y2="99.4158879%" id="d"><stop stop-color="#00b7f0" offset="1%"/><stop stop-color="#009de5" offset="34%"/><stop stop-color="#0082d9" offset="76%"/><stop stop-color="#0078d4" offset="100%"/></linearGradient><linearGradient x1="6.6588785%" y1="75%" x2="93.3411215%" y2="25%" id="e"><stop stop-color="#0078d4" offset="0%"/><stop stop-color="#007ad5" offset="37%"/><stop stop-color="#0082d9" offset="57%"/><stop stop-color="#0090df" offset="74%"/><stop stop-color="#00a3e7" offset="88%"/><stop stop-color="#00bcf2" offset="100%"/></linearGradient><path d="M179.902617 104.187363c-13.568763-.002447-26.88887 3.641444-38.566903 10.550486 19.53506-32.9417937 11.499312-75.2733952-18.74842-98.7649921C92.3395629-7.51873994 49.3362186-4.82613708 22.2550408 22.2550408-4.82613708 49.3362186-7.51873994 92.3395629 15.9728569 122.587294c23.4915969 30.247732 65.8231984 38.28348 98.7649921 18.74842-17.4905142 29.642685-12.843127 67.344407 11.322376 91.85227 24.165503 24.507863 61.79812 29.685139 91.683911 12.613337 29.885791-17.071801 44.541402-52.11793 35.705297-85.382477-8.836104-33.264548-38.95138-56.418128-73.369497-56.4088l-.177319.177319z" id="b"/><radialGradient cx="48.5394537%" fx="48.5394537%" fy="50%" r="50.0213274%" id="c"><stop offset="0%"/><stop stop-opacity="0" offset="100%"/></radialGradient><linearGradient x1="30.4363905%" y1="16.1242604%" x2="80.4363905%" y2="102.736686%" id="f"><stop stop-color="#00b7f0" offset="0%"/><stop stop-color="#007cc1" offset="100%"/></linearGradient><linearGradient x1="45.6360947%" y1="99.8150888%" x2="54.3639053%" y2="0.184911243%" id="g"><stop stop-color="#0078d4" offset="0%"/><stop stop-color="#00bcf2" offset="100%"/></linearGradient></defs><path d="M246.663256 143.906841c.745263-5.227852 1.130362-10.500741 1.152574-15.7814 0-31.7908927-12.628883-62.2797133-35.108439-84.7592692-22.479556-22.4795559-52.968376-35.10843888-84.759269-35.10843888-5.280659.02221252-10.553548.40731118-15.781399 1.15257411C82.6200845-6.51395807 46.1254758-1.16479484 22.391681 22.569-1.34211393 46.3027949-6.69127717 82.7974036 9.23298794 112.344042c-.74526294 5.227851-1.1303616 10.500741-1.15257412 15.781399 0 66.201107 53.66660098 119.867708 119.86770818 119.867708 5.280659-.022212 10.553548-.407311 15.781399-1.152574 29.546638 15.924265 66.041247 10.575102 89.775042-13.158693 23.733795-23.733795 29.082958-60.228403 13.158693-89.775041h0z" fill="#fff"/><circle fill="url(#d)" cx="75.9936272" cy="76.1709463" r="75.8925726"/><circle fill="url(#e)" cx="179.902617" cy="180.079936" r="75.8925726"/><mask id="a" fill="#fff"><use href="#b"/></mask><circle fill="url(#c)" mask="url(#a)" cx="125.547018" cy="133.577871" r="141.811601"/><circle fill="url(#f)" cx="127.948122" cy="128.125441" r="119.867708"/><circle fill="url(#g)" cx="127.948122" cy="128.125441" r="119.867708"/><path d="M84.2389651 113.407956c-2.8191342-5.285995-4.2240224-11.210959-4.0783392-17.199952-.1812647-7.5696085 2.4034953-14.9456312 7.2700829-20.7463341 5.1203327-5.7769461 11.6604681-10.1166621 18.9731432-12.5896557 7.943867-2.8030411 16.31224-4.212767 24.736014-4.1669988 5.521609-.0386004 11.037056.3765408 16.490676 1.2412337 3.887903.6516591 7.71385 1.6303897 11.437081 2.9257651 3.381697 1.1678886 6.425754 3.146526 8.865955 5.7628705 1.862914 2.0991649 2.874716 4.8183842 2.837105 7.6247211.137889 2.9716248-.91517 5.8755142-2.925765 8.0680188-1.87933 2.0003247-4.526692 3.0980114-7.270083 3.0144247-1.898367-.0295827-3.77001-.4522119-5.496891-1.2412337-4.176211-1.84981-8.470915-3.4195983-12.855635-4.698956-4.07929-1.0673892-8.284907-1.5744494-12.500996-1.5072123-5.463664-.1829902-10.869313 1.1684222-15.60408 3.9010201-4.059318 2.4668118-6.44144 6.9588149-6.206169 11.7030602-.032 3.0295362 1.112131 5.9534254 3.191744 8.1566784 2.544108 2.624428 5.54948 4.758242 8.865955 6.294828 3.635041 1.773191 8.865954 4.166999 16.313356 7.181423l2.305149.886596c7.032895 2.68028 13.775943 6.066657 20.125717 10.107188 5.059482 3.279289 9.328937 7.639584 12.500996 12.766975 3.118622 5.378505 4.683883 11.516784 4.521637 17.731909.251006 7.613537-1.956186 15.105552-6.294828 21.366951-4.451631 6.022743-10.639104 10.539598-17.731909 12.944294-8.388361 2.991402-17.250551 4.433386-26.154567 4.255659-12.174088.403933-24.286221-1.897372-35.4638188-6.738126-2.8636611-1.288634-5.384354-3.232301-7.3587424-5.674211-1.5537791-2.301111-2.358857-5.02599-2.3051482-7.80204-.1970318-2.961831.9413159-5.856487 3.1030841-7.8907 2.2164525-1.961651 5.1116028-2.979726 8.0680188-2.837106 3.3056319.046973 6.554417.866759 9.4865715 2.393808 3.635042 1.773191 6.472147 3.191744 8.865955 4.078339 2.3733 1.002632 4.83757 1.774572 7.358742 2.305149 3.111125.707472 6.29658 1.034949 9.486572.975255 5.646749.41611 11.268937-1.08314 15.958718-4.255659 3.595274-2.752751 5.615397-7.091048 5.408233-11.6144.085205-3.283138-1.125017-6.467933-3.369063-8.865955-2.891271-2.948742-6.245538-5.404544-9.929869-7.270083-4.344318-2.305148-10.550486-5.053594-18.441186-8.422657-7.089571-2.823606-13.888994-6.327239-20.3030365-10.461827-4.7965996-3.19076-8.9770434-6.727222-11.8803794-11.70306z" fill="#fff"/></svg>