<svg width="256px" height="256px" viewBox="0 0 256 256" xmlns="http://www.w3.org/2000/svg" preserveAspectRatio="xMidYMid"><path d="M53.8412698 161.320635c0 14.831746-11.9873015 26.819048-26.8190476 26.819048-14.831746 0-26.819047597-11.987302-26.819047597-26.819048 0-14.831746 11.987301597-26.819048 26.819047597-26.819048h26.8190476v26.819048zm13.4095239 0c0-14.831746 11.9873015-26.819048 26.8190476-26.819048 14.8317457 0 26.8190477 11.987302 26.8190477 26.819048v67.047619c0 14.831746-11.987302 26.819048-26.8190477 26.819048-14.8317461 0-26.8190476-11.987302-26.8190476-26.819048v-67.047619z" fill="#e01e5a"/><path d="M94.0698413 53.6380952c-14.8317461 0-26.8190476-11.9873015-26.8190476-26.8190476 0-14.831746 11.9873015-26.819047600000008 26.8190476-26.819047600000008C108.901587-7.10542736e-15 120.888889 11.9873016 120.888889 26.8190476v26.8190476H94.0698413zm0 13.6126985c14.8317457 0 26.8190477 11.9873015 26.8190477 26.8190476 0 14.8317457-11.987302 26.8190477-26.8190477 26.8190477H26.8190476C11.9873016 120.888889 0 108.901587 0 94.0698413c0-14.8317461 11.9873016-26.8190476 26.8190476-26.8190476h67.2507937z" fill="#36c5f0"/><path d="M201.549206 94.0698413c0-14.8317461 11.987302-26.8190476 26.819048-26.8190476 14.831746 0 26.819048 11.9873015 26.819048 26.8190476 0 14.8317457-11.987302 26.8190477-26.819048 26.8190477h-26.819048V94.0698413zm-13.409523 0c0 14.8317457-11.987302 26.8190477-26.819048 26.8190477-14.831746 0-26.819048-11.987302-26.819048-26.8190477V26.8190476c0-14.831746 11.987302-26.81904760000001 26.819048-26.81904760000001C176.152381-1.4210854700000001e-14 188.139683 11.9873016 188.139683 26.8190476v67.2507937z" fill="#2eb67d"/><path d="M161.320635 201.549206c14.831746 0 26.819048 11.987302 26.819048 26.819048 0 14.831746-11.987302 26.819048-26.819048 26.819048-14.831746 0-26.819048-11.987302-26.819048-26.819048v-26.819048h26.819048zm0-13.409523c-14.831746 0-26.819048-11.987302-26.819048-26.819048 0-14.831746 11.987302-26.819048 26.819048-26.819048h67.250794c14.831746 0 26.819047 11.987302 26.819047 26.819048 0 14.831746-11.987301 26.819048-26.819047 26.819048h-67.250794z" fill="#ecb22e"/></svg>