<svg width="256px" height="256px" viewBox="0 0 256 256" xmlns="http://www.w3.org/2000/svg" preserveAspectRatio="xMidYMid"><title>slidev</title><defs><linearGradient x1="0%" y1="-8.88888889%" x2="100%" y2="100%" id="a"><stop stop-color="#3acbd4"/><stop stop-color="#2988b1" offset="1"/></linearGradient><linearGradient x1="-10.5555556%" y1="-12.2222222%" x2="84.5361111%" y2="100%" id="b"><stop stop-color="#95f0cf"/><stop stop-color="#3ab9d5" offset="1"/></linearGradient><linearGradient x1="-0.132239836%" y1="-8.07272088%" x2="12.3609146%" y2="104.494726%" id="c"><stop stop-color="#ffeb83"/><stop stop-color="#ffeb83" offset="1e-4"/><stop stop-color="#ffdd35" offset=".0833333"/><stop stop-color="#ffbb13" offset=".601773"/><stop stop-color="#ffa800" offset="1"/></linearGradient></defs><path d="M71.3846154 34.4615385H219.076923C239.468975 34.4615385 256 50.9925631 256 71.3846154V219.076923C256 239.468975 239.468975 256 219.076923 256H71.3846154c-20.3920523 0-36.9230769-16.531025-36.9230769-36.923077V71.3846154c0-20.3920523 16.5310246-36.9230769 36.9230769-36.9230769z" fill="url(#a)"/><path d="M110.769231 0c61.176157 0 110.769231 49.5930739 110.769231 110.769231 0 61.176157-49.593074 110.769231-110.769231 110.769231C49.5930739 221.538462 0 171.945388 0 110.769231 0 49.5930739 49.5930739 0 110.769231 0z" fill="url(#b)"/><path d="M138.158769 157.353846c-2.896984-10.811815-4.345354-16.2176-2.912246-19.951015 1.249969-3.256369 3.823015-5.829416 7.079385-7.079385 3.733415-1.433108 9.1392.015262 19.951015 2.912246l53.738585 14.399262c10.811569 2.896984 16.217354 4.345354 18.73403 7.453292 2.1952 2.710646 3.136985 6.225723 2.591262 9.670892-.625477 3.949539-4.582892 7.906954-12.497477 15.821539l-39.339569 39.339569c-7.914585 7.914585-11.872 11.872-15.821785 12.497477-3.445169.545723-6.96-.396061-9.670646-2.591261-3.107938-2.516677-4.556308-7.922462-7.453292-18.734031l-14.399262-53.738585z" fill="url(#c)"/></svg>