<svg width="256px" height="256px" viewBox="0 0 256 256" xmlns="http://www.w3.org/2000/svg" preserveAspectRatio="xMidYMid"><path d="M104.898332 197.429207c-25.6119813 0-46.4564569-20.844474-46.4564569-46.456456 0-25.611981 20.8444756-46.456456 46.4564569-46.456456 25.61198 0 46.456456 20.844475 46.456456 46.456456 0 25.611982-20.844476 46.456456-46.456456 46.456456zm0-76.6756c-16.6648917 0-30.2298347 13.554254-30.2298347 30.229834 0 16.67558 13.554254 30.229834 30.2298347 30.229834 16.67558 0 30.229834-13.554254 30.229834-30.229834 0-16.67558-13.564943-30.229834-30.229834-30.229834zm8.977099 39.400204c-4.971781 4.971781-13.032631 4.971781-18.0044122 0-4.9717813-4.971782-4.9717813-13.032632 0-18.004413 4.9717812-4.971781 13.0326312-4.971781 18.0044122 0 4.971782 4.971781 4.971782 13.032631 0 18.004413zm-8.977099 72.165842c-8.2843435 0-16.4511018-1.23998-24.2757969-3.68787-4.3185478-1.346873-6.72368-5.943347-5.3768059-10.261895 1.3468734-4.318548 5.943348-6.734369 10.2618951-5.376806 6.2426537 1.956174 12.7739227 2.939606 19.3907077 2.939606 35.809739 0 64.949247-29.139508 64.949247-64.949247 0-35.80974-29.139508-64.9492474-64.949247-64.9492474-35.8097401 0-64.9492478 29.1395074-64.9492478 64.9492474 0 6.627474.9941212 13.169432 2.950295 19.422775 1.3468737 4.318548-1.058258 8.915022-5.3768057 10.272585-4.3185478 1.346874-8.9150218-1.058258-10.2725851-5.376806-2.4585791-7.846074-3.6985581-16.023522-3.6985581-24.318554 0-44.853035 36.493866-81.3469017 81.3469017-81.3469017 44.853035 0 81.336211 36.4938667 81.336211 81.3469017 0 44.853034-36.493866 81.336212-81.336211 81.336212zm49.502956 23.420638c-2.971674 0-5.847143-1.6248-7.300911-4.457511-2.063069-4.029931-.481027-8.968469 3.548905-11.031538 33.639777-17.28488 54.537699-51.491198 54.537699-89.278491 0-55.3073407-44.991998-100.2993393-100.299339-100.2993393-37.9048767 0-72.1539531 20.9941281-89.3960755 54.7835573-2.0630686 4.029932-6.99091638 5.633353-11.02084827 3.570284-4.029931904-2.052379-5.63335308-6.990916-3.570284493-11.0208482C20.953888 58.7012071 60.804249 34.2864473 104.898332 34.2864473c64.339946 0 116.686304 52.3463569 116.686304 116.6863037 0 43.955119-24.307866 83.752033-63.442032 103.858935-1.197221.619989-2.479958.908605-3.741316.908605zm78.567638-33.810808c-1.2186 0-2.44789-.277926-3.613043-.855158-4.008553-1.998932-5.644042-6.862643-3.645111-10.881885 25.708187-51.651541 15.542497-113.7787669-25.280607-154.60187C159.45741 14.6178141 97.1591518 4.53763961 45.4114057 30.5237522c-4.0085529 2.0096212-8.8829534.3955106-10.8925746-3.6130424-2.0096212-4.008553-.3955105-8.8829533 3.6130424-10.8925745C96.1329622-13.0999934 165.9673-1.81190826 211.899972 44.1207638c45.76164 45.7616403 57.14593 115.4142562 28.327107 173.3084502-1.411011 2.85409-4.27579 4.500269-7.258153 4.500269z" fill="#f26c5d"/></svg>