<svg width="256px" height="234px" viewBox="0 0 256 234" xmlns="http://www.w3.org/2000/svg" preserveAspectRatio="xMidYMid"><title>snaplet</title><g style="fill:#ef4357"><path d="M65.8552677 195.984485c6.4315958 0 12.6002435-2.529385 17.149712-7.031657 4.5499871-4.502273 7.1084148-10.609722 7.1141198-16.9796 0-3.155377-.6280673-6.279117-1.8473787-9.193847-1.2198302-2.914212-3.0070473-5.562363-5.2605175-7.791976-2.2534702-2.230132-4.9285908-3.998159-7.8718459-5.203986-2.9437737-1.205309-6.098632-1.824559-9.2840897-1.821459-6.4295213 0-12.5955759 2.529396-17.1422437 7.032706-4.5464604 4.502791-7.1006353 10.61024-7.1006353 16.978562.0053938 6.366248 2.561332 12.470585 7.1065996 16.972339 4.5453712 4.501754 10.708314 7.033213 17.1362794 7.038918h0z"/><path d="M189.284754 175.397266c3.185458.002585 6.339797-.616665 9.283571-1.821974 2.943774-1.205308 5.618376-2.973854 7.871846-5.203467 2.25347-2.230132 4.041206-4.878283 5.260517-7.792495 1.21983-2.91473 1.847379-6.03847 1.847379-9.193329-.005186-6.370396-2.564133-12.477327-7.113601-16.980118-4.549987-4.502273-10.718116-7.031138-17.149712-7.031138-6.427966.005186-12.591427 2.536645-17.136746 7.038399-4.54532 4.501754-7.101154 10.606091-7.106341 16.972857 0 6.367804 2.55376 12.475772 7.100636 16.978563 4.546356 4.502791 10.712411 7.032702 17.142451 7.032702z"/></g><g style="fill:#231f20"><path d="M6.17466392 233.511946c-.7622901.00306-1.51851736-.134378-2.2299812-.405624-.75730083-.286806-1.44969446-.719347-2.03718892-1.272731-.58748927-.553903-1.058430833-1.216719-1.385617071-1.951625C.194693084 229.14706.0177491524 228.355104 0 227.552257c-.0152129188-.802848.129095578-1.601027.425857635-2.348381.143209716-.405054 5.953356025-16.899211 8.633403715-72.783716 1.45254175-30.3941 1.49346205-43.746884-.98198399-73.5938242-2.3936573-28.570579 1.51389631-45.3682933 11.51800734-49.9679657 14.0343738-6.3827403 26.7594529 3.9106655 39.0753288 13.8799242C72.2547081 53.7409857 86.2894968 65.0275262 105.11077 62.311952c12.827406-1.9044287 17.532984-13.7988097 23.241083-31.7312979 4.459745-13.9609869 9.042406-28.36777191 22.504103-30.394043551 6.341872-.911823018 13.318035 1.519736151 20.724146 7.254094291C207.136698 34.9776957 248.932995 132.563172 255.970357 204.475062c.079351.796105-.001038 1.599471-.235979 2.364458-.234942.764987-.620288 1.476555-1.133219 2.09425-.513448.617176-1.144109 1.128031-1.857232 1.503523-.712605.375492-1.49367.607841-2.297036.68408-1.619698.152479-3.233691-.33815-4.488269-1.364011-1.254579-1.02586-2.046535-2.502933-2.201607-4.107072-7.221996-73.938198-49.877671-165.5257618-79.787367-188.6455361-4.521462-3.4851771-8.551776-5.2076166-11.395454-4.7820764-5.912441.8713072-9.165322 11.1243114-12.64329 22.0053828-5.237179 16.4533405-11.742939 36.9188433-33.101376 40.0996333-24.2021148 3.6071082-41.8782416-10.6984081-56.0558106-22.2888688-11.845318-9.5841721-19.4558237-15.298236-26.1866202-12.1575365-2.8436771 1.2968475-6.5671152 12.7249235-4.4599001 37.9114075 2.5368525 30.5362062 2.475446 44.1524562 1.00247 75.1543982-2.8437289 59.14672-9.1653222 75.884117-9.4312784 76.572865-.4170865 1.133218-1.1650104 2.117588-2.14865398 2.828118-.98359177.711049-2.15845622 1.116103-3.3750708 1.163869h0z"/><path d="M34.7618911 186.137192c-.6000091-.005221-1.1858595-.181557-1.6868093-.508816-.5009498-.327259-.8956312-.790919-1.1364335-1.335486-.168349-.370306-.2599919-.770173-.2696385-1.176265-.0095948-.406091.0631179-.810108.2137814-1.187675.1506636-.378085.3762699-.72194.6634383-1.011857.2872202-.289917.6301937-.520191 1.0086418-.676819l24.1204811-10.2529-25.3275009-5.105964c-.3941628-.077277-.7689805-.231312-1.1028779-.452769-.3339492-.221457-.6203396-.505669-.8427823-.837596-.2224945-.331408-.376581-.702751-.4534428-1.093283-.0768617-.391051-.0750465-.792993.0054457-1.182489.0758245-.392606.2294442-.766024.4519906-1.098988.2224945-.332963.5095073-.618731.8443901-.841226.3348828-.222495.710997-.376529 1.1065602-.453806.3955112-.077795.8026399-.076758 1.1977362.002593l34.9630698 7.051884c.6415518.12551 1.2255351.450694 1.6668937.928357.4418772.477663.7177912 1.081873.7883256 1.726018.0643108.645701-.0793512 1.295032-.4097219 1.855677-.3308893.560126-.8318909 1.003041-1.4314333 1.264433L35.9689628 185.87369c-.3775664.175299-.7899333.265541-1.2070717.263502h0z"/><path d="M220.397164 156.51323h-.163888l-36.026999-1.924656c-.632216-.02282-1.242131-.239609-1.74417-.620806-.502039-.381716-.872344-.908131-1.058535-1.507154-.160776-.625993-.114099-1.286734.132252-1.885239.246871-.597987.680969-1.1021 1.238501-1.437657l30.380617-18.540174c.693415-.415426 1.52375-.544048 2.312076-.357858.788325.185672 1.471368.670596 1.902354 1.350526.420094.690304.550272 1.515971.363044 2.299629-.187746.784177-.677856 1.464626-1.365566 1.894575l-22.013474 13.413982 26.207158 1.398241c.812702.047195 1.573021.409721 2.11707 1.009264.544048.599542.827223 1.387349.788325 2.192271-.085575.746835-.445508 1.43662-1.011857 1.937103-.565831.501001-1.298144.777953-2.056908.777953h0z"/><path d="M124.447049 177.403339c-5.016241.212641-9.961428-1.229684-14.060202-4.101367-4.098775-2.871165-7.119306-7.009356-8.587044-11.764204-.3117-1.007708-.215234-2.096324.270209-3.034535.484924-.938211 1.319926-1.652372 2.327635-1.990522 1.022749-.356821 2.14715-.297178 3.125296.166482.978146.46366 1.730167 1.292439 2.091656 2.305334 2.680307 8.105231 9.738414 11.630914 19.374139 9.908526 9.635724-1.722387 14.791477-7.578298 14.607362-16.088584 0-1.075131.430985-2.105659 1.198047-2.86546.76758-.760319 1.808481-1.187156 2.893466-1.187156 1.084985 0 2.125886.426837 2.892948 1.187156.76758.759801 1.198566 1.790329 1.198566 2.86546.266059 12.522448-7.917486 21.802389-21.337692 24.214043-1.982743.304439-3.988824.43306-5.994386.384827h0z"/><path d="M55.9731915 141.316179c-.2992526.031118-.6010983.031118-.9003508 0-1.0574973-.237016-1.9770376-.880124-2.5563532-1.788254-.5793156-.90813-.7709513-2.0066-.5326384-3.054762 2.0454974-8.692327 13.236609-22.166989 27.0867636-24.315176 13.8501545-2.147669 27.9865953 8.105231 30.3188983 15.98745.150404.510856.198119 1.046087.139513 1.575095-.058087.529008-.221457 1.04142-.479738 1.508192-.25828.466771-.606803.878568-1.02586 1.211532-.419057.332963-.900351.58139-1.415874.730238-1.039345.301846-2.156486.183078-3.107663-.329333-.951177-.512931-1.658077-1.378014-1.966146-2.405949-1.145665-3.890283-11.1703663-11.853928-21.1743217-10.273128-10.0039555 1.580282-18.9851623 11.91409-20.458605 18.236253-.247389.841745-.7644684 1.581319-1.4729241 2.107215-.7079372.526415-1.5693903.810627-2.4547007.810627z"/><path d="M135.737738 127.820771c-.381715.005187-.761356-.04927-1.125438-.162333-.51708-.144699-1.000448-.389495-1.422617-.719347-.42165-.329852-.773804-.739055-1.035715-1.203752-.262429-.464697-.42943-.976072-.492184-1.50508-.062237-.529008-.01919-1.064758.127584-1.576651 2.045497-7.355804 9.471836-20.404667 23.751939-22.6539878 12.990776-2.0263079 27.946142 6.5856308 32.139827 15.3796098.225606.48648.351634 1.012376.370824 1.547608.019189.535231-.068979 1.068388-.258799 1.569909-.190339.501001-.479219.959994-.849525 1.350007-.370305.390014-.814776.70327-1.307998.922134-.492703.226643-1.025342.354228-1.567834.374973-.542493.020227-1.083429-.065867-1.59221-.25465-.508263-.188793-.973479-.475588-1.369198-.843819-.3952-.36875-.712604-.811665-.933543-1.302812-2.536645-5.328977-13.76821-12.380342-23.444907-10.840514-10.229043 1.601027-15.691828 11.732566-17.164752 16.878984-.22042.847969-.712086 1.602583-1.401871 2.150262-.689785.548197-1.539828.859897-2.423583.889459z"/></g><path d="M157.851308 142.329593c-8.596898-.010892-16.838531-3.398099-22.917455-9.418417-6.024467-5.967417-9.437087-14.038419-9.50814-22.470909-1.213606-.201231-2.44329-.304439-3.677124-.30807-4.065581.001038-8.028992 1.106768-11.47273 3.164713 1.168485 3.337417 1.784105 6.873473 1.790847 10.472283-.010891 8.514435-3.430253 16.677235-9.509177 22.697553-6.0789239 6.020837-14.3205568 9.408044-22.9169362 9.418416-8.596898-.010372-16.8385309-3.397579-22.9169361-9.418416-5.3412689-5.29008-8.6296239-12.233568-9.3563875-19.61686l-6.3929575 1.153964c-.3013789.077276-.6097595.124472-.9206294.141587-1.1964916-.005186-2.3532556-.4258-3.2690618-1.188193-.9158061-.762913-1.532619-1.819373-1.7432368-2.985784-.1211532-.651924-.1114029-1.320964.0286805-1.969258.1400834-.648294.4077511-1.262876.7877551-1.808481.3799522-.546123.8648243-1.011857 1.4268175-1.372309.5619931-.359933 1.1901123-.606803 1.848416-.726089l8.9442799-1.632664c1.3729832-5.777078 4.3463191-11.115391 8.6535849-15.378572 6.0778866-6.0161694 14.3164076-9.4007831 22.9096752-9.4111558 8.5927489.0103727 16.83127 3.3949864 22.9096752 9.4111558 1.039345 1.028972 2.001413 2.120699 2.881538 3.265846 4.92496-2.843159 10.550597-4.3674277 16.316783-4.3695023 1.757137-.0025932 3.509086.1379573 5.237698.4195763 1.565241-4.8150101 4.269924-9.2420806 7.947566-12.8849747 6.078924-6.0203181 14.320557-9.4075249 22.917455-9.4184163 8.59638.0108914 16.838012 3.3980982 22.916936 9.4184163 1.374902 1.3619362 2.613922 2.8338231 3.708242 4.3943965.086094-.0202267.172706-.0388976.259837-.0549753l7.712625-1.3982407c1.328743-.2364976 2.69794.0565313 3.809376.8152947 1.111435.759282 1.874866 1.9230995 2.123292 3.2373212.245315 1.3194081-.047714 2.6808257-.814776 3.7860374-.767061 1.1052118-1.945401 1.8644939-3.276737 2.1103269l-5.278151.956882c.828779 2.853013 1.261839 5.829979 1.26547 8.851029-.010892 8.514435-3.430772 16.677236-9.509178 22.698072-6.078924 6.020318-14.320556 9.407525-22.916936 9.418417zm0-54.1014372c-5.885473.0051863-11.528743 2.3234859-15.690272 6.4450803-4.16153 4.1215944-6.501612 9.7109269-6.507317 15.5398679.010892 5.827386 2.353048 11.413088 6.51354 15.534164 4.160492 4.120557 9.800132 6.439894 15.684049 6.450785 5.883399-.010891 11.523038-2.330228 15.68353-6.450785 4.160492-4.121076 6.502649-9.706778 6.513541-15.534164-.005705-5.828941-2.345788-11.4182735-6.507317-15.5398679-4.161529-4.1215944-9.8048-6.439894-15.689754-6.4450803zM79.6405928 101.783725c-5.883917.010892-11.5235568 2.330747-15.6840488 6.451304-4.160492 4.120558-6.5026489 9.706259-6.5135402 15.534164.0108913 5.827385 2.3530482 11.413087 6.5135402 15.533644 4.160492 4.120557 9.8001318 6.440413 15.6840488 6.451304 5.8833984-.010891 11.5230381-2.330747 15.6835302-6.451304 4.160492-4.120557 6.502649-9.706259 6.51354-15.533644-.016078-5.824274-2.3608275-11.40479-6.5202823-15.521198-4.1599734-4.116408-9.7965014-6.433151-15.6767879-6.444043v-.020227z" fill="#b4bcf6"/></svg>