<svg width="256px" height="425px" viewBox="0 0 256 425" xmlns="http://www.w3.org/2000/svg" preserveAspectRatio="xMidYMid"><defs><linearGradient x1="50%" y1="-352.925786%" x2="50%" y2="96.7175267%" id="a"><stop stop-color="#002e3b"/><stop stop-color="#002639" offset="1"/></linearGradient><linearGradient x1="50%" y1="-2.80786187%" x2="50%" y2="428.758892%" id="b"><stop stop-color="#002e3b"/><stop stop-color="#002639" offset="1"/></linearGradient><radialGradient cx="16.4234038%" cy="142.999709%" fx="16.4234038%" fy="142.999709%" r="295.57111%" id="c"><stop stop-color="#00bc85"/><stop stop-color="#149d91" offset="1"/></radialGradient><radialGradient cx="16.423338%" cy="-42.999755%" fx="16.423338%" fy="-42.999755%" r="357.003966%" id="d"><stop stop-color="#00bc85"/><stop stop-color="#149d91" offset="1"/></radialGradient><radialGradient cx="11.4670327%" cy="-40.4580495%" fx="11.4670327%" fy="-40.4580495%" r="343.189366%" id="e"><stop stop-color="#004473"/><stop stop-color="#00345f" offset="1"/></radialGradient></defs><path d="M65.6992339 330.300644.107733463 362.384436 127.400289 424.384842l127.639047-62.195032-65.758816-32.538545-61.928475 30.753445-61.6528111-30.104066z" fill="url(#a)"/><path d="M57.6019991 98.1748765v-.020697l69.9292679-34.1065382 69.934443 34.1065382 57.538181-35.9555422L127.484698 0 0 62.1796642v.0551942l57.5537042 35.9641653.0482949-.0241472h0z" fill="url(#b)"/><path d="M.15618046 298.428426 63.071162 267.624645l64.713631 32.042618L.15618046 362.461971v-64.033545z" fill="url(#c)"/><path d="M196.677541 99.4103235c-1e-6 33.5891715-2e-6 100.7675155-2e-6 100.7675155l-70.341277 34.423802 64.686172 32.338973 62.978483-30.796888-7e-6-173.9529429-57.323369 35.9758022v1.2437382z" fill="url(#d)"/><path d="M255.003891 298.216498 57.5889764 199.96591l1e-6-101.7843682L1.42108547e-14 62.2302408v.9072835V235.931797l255.003891 126.321691v-64.03699z" fill="url(#e)"/></svg>