<svg width="256px" height="255px" viewBox="0 0 256 255" xmlns="http://www.w3.org/2000/svg" preserveAspectRatio="xMidYMid"><title>snowflake</title><path d="M100.211702 161.190001c8.150285.578742 14.607676 7.254267 14.776197 15.441938l.003375.328303v62.094978c0 8.751063-7.166021 15.841715-15.9649707 15.841715-8.7349599 0-15.8129269-6.920822-15.9822124-15.526144l-.0031015-.315571v-34.734848L52.633017 221.703374c-7.6246471 4.396608-17.3759844 1.794197-21.8031987-5.763789-4.34964-7.479729-1.8659093-17.039437 5.5414299-21.494621l.2949479-.173195 54.2749854-31.0145c2.9144901-1.682404 6.1544569-2.331174 9.2705205-2.067268zm64.452556 1.853675.381908.213593 54.26389 31.0145c7.646839 4.376448 10.241401 14.08967 5.845625 21.667816-4.347816 7.45983-13.91479 10.091966-21.502865 5.931548l-.298485-.167759-30.38763-17.383002v34.734848c0 8.751063-7.14383 15.841715-15.985314 15.841715-8.73496 0-15.794877-6.920822-15.963727-15.526144l-.003094-.315571v-62.094978c0-8.336877 6.502125-15.183782 14.779573-15.770241 2.971738-.252432 6.056839.330175 8.870119 1.853675zM23.6714423 82.5093782l.2993375.1666344 54.2343006 31.0346604c3.8132482 2.179061 6.3578795 5.635501 7.4323203 9.504296.356914 1.246225.5196523 2.490617.5825285 3.736842.0406843 1.720889-.1849297 3.463771-.7267734 5.155338-1.1065571 3.553817-3.4642325 6.730876-6.9260263 8.824295l-.3620491.212667-54.2343006 31.05482c-7.656085 4.367284-17.41666871 1.7832-21.81059578-5.772953-4.37045521-7.499082-1.88541005-17.012764 5.54440667-21.474559l.29197118-.171265L38.302823 127.457631 7.99656187 110.087458c-7.656085006-4.378281-10.2728387-14.0401873-5.83637785-21.6055044 4.33686309-7.4779192 13.90189428-10.1049331 21.51125828-5.9725754zm230.1760637 5.9725754c4.425365 7.5653171 1.808611 17.2272234-5.845624 21.6055044l-30.30811 17.370173 30.30811 17.322523c7.654235 4.385612 10.270989 14.049351 5.845624 21.645824-4.416119 7.556153-14.185949 10.140237-21.812445 5.772953l-54.274985-31.05482c-3.619072-2.087427-6.132265-5.360599-7.247391-9.036962-.530748-1.691567-.776704-3.434449-.715677-5.155338.031438-1.246225.214518-2.490617.562186-3.736842 1.085536-3.868795 3.630167-7.323402 7.400882-9.504296l54.274985-31.0346604c7.626496-4.3672842 17.396326-1.7703718 21.812445 5.805941zm-122.541743 9.3576815c.9191 0 2.185867.5168167 2.831272 1.1747501l22.557711 22.3257488c.643555.637774 1.165057 1.904158 1.165057 2.816834v6.582999c0 .892517-.521502 2.157068-1.165057 2.785679l-22.557711 22.327581c-.645405.656101-1.89183 1.193077-2.831272 1.193077h-6.633424c-.911703 0-2.178471-.536976-2.833122-1.193077l-22.5466154-22.327581c-.6454042-.628611-1.1669056-1.893162-1.1669056-2.785679v-6.582999c0-.912676.5215014-2.17906 1.1669056-2.816834l22.5466154-22.3257488c.654651-.6579334 1.921419-1.1747501 2.833122-1.1747501h6.633424zm-3.191885 19.0544089h-.253353c-.909854 0-2.176622.527813-2.81093 1.163754l-6.531713 6.443715c-.654651.667097-1.15581 1.924317-1.15581 2.825997v.252911c0 .890684.501159 2.136909 1.15581 2.785679l6.531713 6.462041c.643555.637774 1.901076 1.163754 2.81093 1.163754h.253353c.911703 0 2.18032-.52598 2.823875-1.163754l6.531713-6.462041c.643555-.64877 1.194645-1.894995 1.194645-2.785679v-.252911c0-.90168-.55109-2.1589-1.194645-2.825997l-6.531713-6.443715c-.643555-.635941-1.912172-1.163754-2.823875-1.163754zM156.981387-7.10542736e-15c8.73496 0 15.812927 6.922610980000007 15.982213 15.505002000000006L172.966701 15.8197229V50.565567l30.38763-17.4031612c7.635743-4.3746153 17.396326-1.7795356 21.80135 5.7839487 4.338688 7.4996261 1.867426 17.0203141-5.550257 21.4762437l-.295368.1732453-54.26389 31.0438238c-2.91449 1.6622436-6.14521 2.3201769-9.252027 2.0654339-8.168535-.5968276-14.608157-7.2832984-14.776206-15.4624489l-.003367-.3279513V15.8197229c0-8.72723821 7.125337-15.819722900000006 15.966821-15.819722900000006zm-57.9550837 0C107.719242-7.10542736e-15 114.818362 6.92261098 114.988164 15.505002l.00311.3147209V77.914701c0 8.3277133-6.520617 15.1856149-14.779572 15.7904002-2.9805826.2436672-6.0745284-.347704-8.8885607-1.8543075l-.3819598-.2111264-54.2749854-31.0438238c-7.6357427-4.3782806-10.2432499-14.0511837-5.8363778-21.649489 4.3697181-7.4652572 13.9261681-10.0903213 21.5050748-5.9508661l.2981239.1669174L83.0409894 50.565567V15.8197229c0-8.72723821 7.1438301-15.819722900000006 15.9853139-15.819722900000006z" fill="#29b5e8"/></svg>