<svg width="256px" height="256px" viewBox="0 0 256 256" xmlns="http://www.w3.org/2000/svg" preserveAspectRatio="xMidYMid"><path d="M96.4465116 7.38232558C128.714419-.893023256 164.375814 3.92930233 192.833488 21.492093c35.84 21.4325582 59.23721 61.975814 59.832559 103.709767 1.309767 42.150698-20.658605 83.944187-55.962791 106.865117-39.293023 26.433488-93.648372 27.445581-133.7748839 2.32186C22.027907 209.979535-1.8455814 160.744186 4.28651163 113.473488 9.22790698 63.5237209 47.8065116 19.467907 96.4465116 7.38232558h0 0z" fill="#010101"/><path d="M91.5051163 27.8027907C152.468837 3.39348837 227.244651 48.4613953 233.555349 113.830698c9.823256 58.820465-38.995349 118.593488-98.589768 120.32-56.6772089 5.655814-111.4493019-42.388838-113.0567438-99.304186-4.2269767-46.0800004 26.135814-91.8027911 69.5962791-107.0437213h0 0z" fill="#fff"/><g style="fill:#010101"><path d="M97.6372093 121.689302c27.3265117-22.3255811 54.0576747-45.425116 81.9795347-67.0958136-14.645581 22.504186-29.707907 44.7106976-44.353488 67.2148836-12.561861.059535-25.123721.059535-37.6260467-.11907h0 0z"/><path d="M120.736744 134.132093c12.621396 0 25.183256 0 37.745116.178605-27.505116 22.206511-54.117209 45.484651-82.0986042 67.095814 14.6455814-22.504186 29.7079072-44.770233 44.3534882-67.274419h0 0z"/></g></svg>