<svg width="512px" height="117px" viewBox="0 0 512 117" xmlns="http://www.w3.org/2000/svg" preserveAspectRatio="xMidYMid"><path d="M13.3907692 116.578462c-4.48748051.065914-8.945372-.736506-13.128205097-2.363077v-6.826667C4.52763729 108.7484 8.9308241 109.629037 13.3907692 110.014359c4.2010257 0 8.6646154-.787692 8.6646154-6.038974 0-3.938462-2.8882051-4.9887183-6.5641025-6.0389747l-3.6758975-.7876924C7.35179487 95.8358974 0 93.9979487 0 85.0707692c0-9.9774359 8.13948718-12.3405128 16.5415385-12.3405128 4.0696473-.1543714 8.1181607.6553313 11.8153846 2.3630769v6.5641026c-3.8117806-1.6682646-7.9175909-2.560832-12.0779487-2.625641-5.2512821 0-8.66461543 1.0502564-8.66461543 5.5138461 0 3.9384616 3.15076923 4.988718 6.82666663 5.7764103l3.9384616 1.3128205c4.9887179 1.3128205 11.0276923 4.2010256 11.0276923 12.0779492.2625641 9.977435-7.0892308 12.865641-16.0164103 12.865641m44.6358975 0c7.876923 0 19.6923077-2.363077 19.6923077-22.0553851 0-19.4297436-12.0779488-22.0553846-19.6923077-22.0553846-8.1394872 0-19.6923077 3.1507692-19.6923077 22.0553846 0 19.4297441 11.2902564 22.0553851 19.6923077 22.0553851m0-38.0717953c4.4635897 0 11.8153846 1.0502564 11.8153846 16.0164102 0 14.4410261-7.8769231 16.0164101-11.8153846 16.0164101-3.1507693 0-11.8153846-1.050256-11.8153846-16.0164101 0-14.7035897 7.3517948-16.0164102 11.8153846-16.0164102m29.9323077 37.2841023h7.876923V59.3394872h-7.876923v56.4512818zm54.3507696 0V87.1712821c0-11.0276924-6.301539-14.4410257-15.753847-14.4410257-5.462575.0621463-10.876204 1.0383744-16.01641 2.8882051v6.5641026c4.74074-1.6503147 9.690842-2.6226563 14.70359-2.8882051 5.513846 0 8.664615 1.3128205 8.664615 6.8266666v3.6758975h-9.452307c-6.826667 0-17.854359 2.3630769-17.854359 13.9158979 0 10.765128 7.08923 13.128205 13.653333 13.128205 5.324285-.023278 10.386105-2.315422 13.915897-6.301539l.787693 5.513846 7.351795-.262564h0zm-7.876923-11.027692c0 0-5.776411 5.513846-11.552821 5.513846-4.201026 0-7.614359-1.575385-7.614359-7.089231 0-6.8266664 4.201026-8.6646151 11.552821-8.9271792h7.614359v10.5025642zm36.758974-24.9435898c2.256324-.032288 4.49376.415199 6.564102 1.3128205v-7.3517949c-1.798933-.8540646-3.791977-1.2164364-5.77641-1.0502564-4.326137.0392925-8.22888 2.6068868-9.977436 6.5641026l-1.050256-5.7764103h-6.038974v42.2728203h7.876923V84.8082051c0 0 3.675897-4.9887179 8.402051-4.9887179m80.869743-6.5641026h-8.927179l-4.988718 24.4184616C236.832821 103.975385 235.52 112.114872 235.52 112.114872c0 0-1.837949-8.92718-3.413333-14.4410258l-7.351795-24.4184616h-11.552821l-7.351795 24.4184616c-1.575384 5.5138458-3.413333 14.4410258-3.413333 14.4410258 0 0-1.31282-8.664616-2.625641-14.4410258L194.56 73.2553846h-9.189744l11.552821 42.5353844h11.027692l6.564103-22.5805126c1.575384-5.7764102 4.46359-15.7538461 4.46359-15.7538461 0 0 2.625641 9.9774359 4.201025 16.0164102l6.564103 22.5805125h11.027692l11.290256-42.7979484zm9.977436 42.5353844h7.876923V72.9928205h-7.876923v42.7979485zm58.026667 0V86.9087179c0-10.7651282-6.038974-14.1784615-13.653333-14.1784615-5.962928.3747389-11.616641 2.7845179-16.016411 6.8266667l-1.575384-6.0389744h-6.038975v42.2728203h7.876924V84.8082051c4.048994-3.0306492 8.874138-4.851458 13.915897-5.251282 5.513846 0 7.614359 2.1005128 7.614359 7.3517948v28.8820511h7.876923zm47.786667 0V59.3394872h-7.876923v17.3292307c-3.033985-2.8799067-7.111687-4.397191-11.290257-4.2010256-5.77641 0-19.167179 2.625641-19.167179 22.0553846 0 18.9046151 11.027692 22.0553851 17.591795 22.0553851 5.227118.139756 10.240192-2.077565 13.653333-6.038975l.787692 5.251282h6.301539zm-7.876923-10.502564c-3.145082 2.808941-7.095826 4.554618-11.290257 4.988718-4.988718 0-11.290256-1.575385-11.290256-15.7538461 0-13.3907692 6.038974-15.491282 12.077949-15.491282 3.878793.1556002 7.586471 1.6386714 10.502564 4.2010256v22.0553845h0zm32.557948 11.290257c8.92718 0 16.016411-2.625641 16.016411-12.865641 0-7.8769236-6.301539-10.7651287-11.027693-12.0779492l-4.201025-1.0502564c-3.675898-1.0502564-6.826667-1.8379487-6.826667-5.7764103 0-4.4635897 3.413333-5.5138461 8.664615-5.5138461 4.160358.064809 8.266169.9573764 12.077949 2.625641v-6.5641026c-3.697224-1.7077456-7.745737-2.5174483-11.815385-2.3630769-8.402051 0-16.541538 2.3630769-16.541538 12.3405128 0 8.9271795 7.351795 10.7651282 11.815385 12.0779488l3.413333 1.0502564c3.675897 1.0502564 6.564103 1.8379485 6.564103 6.0389745 0 5.251282-4.201026 6.038974-8.664616 6.038974-4.459945-.385322-8.863132-1.265959-13.128205-2.625641v6.826667c.262564-.525128 5.77641 1.837949 13.653333 1.837949" fill="#444"/><path d="M445.833846 47.5241026c-5.77641 1.5753846-11.55282 2.8882051-17.329231 4.7261538-11.901405-10.7214966-26.87419-17.4270998-42.797948-19.1671795 23.578747-16.9321159 51.84162-26.10837345 80.869743-26.25641023l-9.977436 9.18974363c0 0 42.272821-1.5753847 52.775385-16.0164103-.316038 1.52095267-.755088 3.01372364-1.312821 4.46358974-3.008453 8.57816666-8.378287 16.13233936-15.491282 21.79282056-6.642065 5.195173-13.977198 9.4371777-21.79282 12.6030769-7.772843 3.3914658-15.753373 6.2855039-23.893333 8.6646154-.262565-.2625641-.787693 0-1.050257 0M512 46.2112821c-26.806814-1.2149777-53.62415 2.1593891-79.294359 9.9774358 5.424357 5.6610668 9.941254 12.1264289 13.390769 19.1671795C467.364103 63.5405128 496.771282 48.3117949 512 46.2112821m-63.277949 35.1835897c2.526219 6.4809054 4.117548 13.2882574 4.726154 20.2174362l37.021539-38.0717952-41.747693 17.854359z" fill="#f99d1c"/></svg>