<svg width="256px" height="230px" viewBox="0 0 256 230" xmlns="http://www.w3.org/2000/svg" preserveAspectRatio="xMidYMid"><path d="M54.3346939 215.771429 3.52653061 127.651701c-4.70204081-8.163266-4.70204081-18.220408 0-26.383674L54.3346939 13.2136054C59.0585034 5.02857143 67.7877551 0 77.1918367 0H178.742857c9.42585 0 18.176871 5.02857143 22.857143 13.2136054l50.829932 88.0979596c4.702041 8.163265 4.702041 18.220408 0 26.383673l-50.808163 88.119728c-4.72381 8.185034-13.453062 13.213605-22.857143 13.213605H77.2571429c-9.4693878-.043537-18.1768708-5.093877-22.922449-13.257142z" fill="#fff"/><path d="M58.6666667 209.785034l-47.782313-82.873469c-4.44081629-7.684354-4.44081629-17.153742 0-24.816327L58.6666667 19.2c4.462585-7.7061224 12.6693877-12.42993197 21.5292517-12.42993197h95.5646256c8.859864 0 17.088436 4.72380957 21.529252 12.42993197l47.82585 82.851701c4.440817 7.684353 4.440817 17.153741 0 24.816326l-47.804081 82.938776c-4.462585 7.706122-12.669388 12.429932-21.529252 12.429932H80.2394558c-8.9034014 0-17.1102041-4.745579-21.5727891-12.451701z" fill="#7c4dff"/><path d="M71.5719895 95.174127c-2.1718173-2.135726-3.5122442-5.1139336-3.5012412-8.4258277 0-17.1755102 13.9102041-31.0857143 31.0857143-31.0639456h59.0367344c12.255783 0 22.204082 9.9482994 22.204082 22.2040817v18.4380952c0 1.2190476-.979592 2.2204082-2.220408 2.2204082h-42.741685l40.608351 40.6204082c.064623.064622.128385.129777.191286.195449 2.534893 1.964009 4.162456 5.038488 4.162456 8.490265 0 17.741497-14.410884 32.152381-32.152381 32.152381H89.4911565c-11.8204082 0-21.4421769-9.6-21.4204082-21.463945v-19.287075c0-1.153742.9142857-2.133334 2.1333333-2.133334h43.2326534L72.4244898 96.1088435c-.302996-.3002907-.5871645-.6123486-.8525003-.9347165z" fill="#f7f7f7"/><g style="fill:#444"><path opacity="0.3" d="M146.960544 170.688435l-43.080272-33.567347h9.534694z"/><path opacity="0.3" d="M101.507483 64.6095238l33.937415 33.937415h11.515646z"/></g></svg>