<svg width="256px" height="239px" viewBox="256 239 256 239" xmlns="http://www.w3.org/2000/svg" preserveAspectRatio="xMidYMid"><title>SolidJS</title><defs><linearGradient id="a" gradientUnits="userSpaceOnUse" x1="27.5" y1="3" x2="152" y2="63.5" gradientTransform="translate(249.559296 233.120835)scale(1.610062)"><stop offset=".1" stop-color="#76b3e1"/><stop offset=".3" stop-color="#dcf2fd"/><stop offset="1" stop-color="#76b3e1"/></linearGradient><linearGradient id="b" gradientUnits="userSpaceOnUse" x1="95.8" y1="32.6" x2="74" y2="105.2" gradientTransform="translate(249.559296 233.120835)scale(1.610062)"><stop stop-color="#76b3e1"/><stop offset=".5" stop-color="#4377bb"/><stop offset="1" stop-color="#1f3b77"/></linearGradient><linearGradient id="c" gradientUnits="userSpaceOnUse" x1="18.4" y1="64.2" x2="144.3" y2="149.8" gradientTransform="translate(249.559296 233.120835)scale(1.610062)"><stop stop-color="#315aa9"/><stop offset=".5" stop-color="#518ac8"/><stop offset="1" stop-color="#315aa9"/></linearGradient><linearGradient id="d" gradientUnits="userSpaceOnUse" x1="75.2" y1="74.5" x2="24.4" y2="260.8" gradientTransform="translate(249.559296 233.120835)scale(1.610062)"><stop stop-color="#4377bb"/><stop offset=".5" stop-color="#1a336b"/><stop offset="1" stop-color="#1a336b"/></linearGradient></defs><path d="M512 289.472c0 0-85.333-62.791-151.347-48.301l-4.829 1.61c-9.66 3.221-17.711 8.05-22.542 14.491l-3.219 4.829-24.152 41.862 41.863 8.051c17.71 11.27 40.251 16.101 61.182 11.27l74.063 14.491L512 289.472z" fill="#76b3e1"/><path d="M512 289.472c0 0-85.333-62.791-151.347-48.301l-4.829 1.61c-9.66 3.221-17.711 8.05-22.542 14.491l-3.219 4.829-24.152 41.862 41.863 8.051c17.71 11.27 40.251 16.101 61.182 11.27l74.063 14.491L512 289.472z" opacity=".3" fill="url(#a)"/><path d="M333.282 289.472l-6.439 1.611c-27.371 8.05-35.421 33.811-20.932 56.352 16.101 20.931 49.913 32.201 77.284 24.151l99.824-33.811c0 0-85.334-62.792-149.737-48.303z" fill="#518ac8"/><path d="M333.282 289.472l-6.439 1.611c-27.371 8.05-35.421 33.811-20.932 56.352 16.101 20.931 49.913 32.201 77.284 24.151l99.824-33.811c0 0-85.334-62.792-149.737-48.303z" opacity=".3" fill="url(#b)"/><path d="M465.308 361.925c-18.439-23.036-49.008-32.588-77.283-24.15l-99.823 32.201L256 426.328l180.327 30.592 32.201-57.963c6.441-11.271 4.831-24.15-3.22-37.032z" fill="url(#c)"/><path d="M433.106 418.277c-18.439-23.036-49.006-32.588-77.282-24.15L256 426.328c0 0 85.333 64.402 151.346 48.303l4.83-1.612c27.371-8.049 37.031-33.81 20.93-54.742z" fill="url(#d)"/></svg>