<svg width="512px" height="125px" viewBox="0 0 512 125" xmlns="http://www.w3.org/2000/svg" preserveAspectRatio="xMidYMid"><path d="M269.00137 99.3125326c-8.397079 5.7059264-19.864287 3.5172354-25.574471-4.8798442-5.710185-8.3970792-3.517235-19.8685455 4.879844-25.587246 8.392821-5.7059261 19.864287-3.5129769 25.574471 4.8841024 5.714443 8.392821 3.525752 19.8685455-4.879844 25.5829878m11.39482-30.0114678c-8.154365-12.0165099-24.514192-15.1249622-36.517927-6.9620814-12.012252 8.1628808-15.12922 24.5184494-6.962081 36.5221849 7.221828 10.6368677 20.860695 14.2818477 32.221449 9.3296147l10.17273 16.521637 8.073459-5.484502-10.168471-16.521637c8.788829-8.7419895 10.415444-22.7811225 3.180841-33.4052162M0 106.127325c3.78124055 2.043913 9.60639491 3.576849 16.1469191 3.576849 14.3073967 0 21.5632907-6.847112 21.5632907-16.2491151-.1021957-7.255894-3.9856319-12.0590915-13.4898311-15.3293536-6.1317415-2.0439138-8.0734596-3.3724578-8.0734596-5.7229587 0-2.4526965 2.1461095-3.9856319 5.9273501-3.9856319 4.1900233 0 8.584438 1.635131 10.8327432 2.7592836l2.6570879-10.6283518c-3.0658707-1.5329353-8.1756552-2.963675-14.0008096-2.963675-12.36567855 0-20.33694241 7.0515026-20.33694241 16.4535062C1.1241526 79.863032 5.10978453 85.483795 15.533745 88.9584485c5.7229586 1.8395224 7.255894 3.1680664 7.255894 5.7229587 0 2.5548922-1.9417181 4.0878276-6.6427199 4.0878276-4.5988061 0-10.52615612-1.9417181-13.38763546-3.6790449L0 106.127325zm65.2008506 3.679044c13.2854397 0 26.2642924-8.380046 26.2642924-26.5708792 0-15.1249622-10.219569-25.6511183-25.4467269-25.6511183-16.1469191 0-26.7752709 10.3217647-26.7752709 26.4686839 0 16.1469186 11.2415259 25.7533136 25.8555097 25.7533136h.1021957zm.2043913-11.1393299c-6.5405241 0-10.1173733-6.4383285-10.1173733-14.9205708 0-7.4602854 2.8614793-15.0227665 10.219569-15.0227665 7.0515027 0 9.912982 7.5624811 9.912982 14.9205708 0 8.9932208-3.7812405 15.0227665-9.912982 15.0227665h-.1021957zm30.5565115 10.0151779h15.5337446V79.863032c0-1.4307396.102196-2.8614793.510979-3.8834362 1.124152-2.8614793 3.679045-5.8251544 7.971264-5.8251544 5.620763 0 7.869068 4.3944147 7.869068 10.8327432v27.6950324h15.533745V79.1476622c0-14.7161794-7.664677-21.5632907-17.884246-21.5632907-8.380047 0-13.387635 4.8031975-15.431549 8.0734596h-.306587l-.71537-6.949307H95.5529707c.2043913 4.4966104.4087827 9.7085906.4087827 15.9425277v34.0311652zM192.33229 79.1476622c0-11.7525044-5.211981-21.5632907-21.869878-21.5632907-9.095417 0-15.942528 2.5548923-19.417181 4.4966104l2.861479 9.912982c3.270262-1.9417182 8.686634-3.6790449 13.796418-3.6790449 7.664677 0 9.095417 3.7812406 9.095417 6.4383285v.6131742c-17.679855 0-29.330164 6.1317414-29.330164 19.1105941 0 7.9712642 6.029546 15.3293532 16.14692 15.3293532 5.92735 0 11.037134-2.146109 14.307396-6.131741h.306587l.919762 5.007589h14.000809c-.613174-2.759284-.817565-7.35809-.817565-12.0590917V79.1476622zm-15.022767 11.3437217c0 .9197612-.102196 1.8395224-.306587 2.6570879-1.021957 3.1680664-4.292219 5.7229587-8.07346 5.7229587-3.474653 0-6.131741-1.9417181-6.131741-5.9273501 0-5.92735 6.336133-7.8690681 14.511788-7.8690681v5.4163716zm22.278661 18.1908331h15.533745V83.4398812c0-1.328544.102195-2.4526966.306587-3.4746535 1.021957-4.9053931 4.905393-7.8690681 10.628351-7.8690681 1.737327 0 2.963675.2043913 4.190024.4087827V57.8909586c-1.124153-.2043914-1.839523-.3065871-3.270262-.3065871-4.905393 0-10.934939 3.0658707-13.489831 10.4239604h-.408783l-.613174-9.2998078h-13.28544c.306587 4.292219.408783 9.0954165.408783 16.4535062v33.5201867zm132.060465-49.1856364h-8.993221V89.746505c0 1.7373268-.306587 3.3724578-.817566 4.5988061-1.635131 4.0878276-5.825154 8.2778509-11.8547 8.2778509-8.073459 0-11.037134-6.4383285-11.037134-15.840332V59.4965806h-8.993221V88.417961c0 17.271072 9.299808 21.665486 17.06668 21.665486 8.78883 0 14.103005-5.21198 16.351311-9.197612h.204391l.510978 8.07346h7.971264c-.306587-3.883436-.408782-8.380047-.408782-13.592027V59.4965806zm9.810786 36.6882529c0 4.3944145-.102196 9.4020035-.408783 12.7744615h7.766873l.510978-8.175655h.204391c3.781241 6.540524 9.402004 9.299807 16.555702 9.299807 11.037135 0 22.278661-8.788829 22.278661-26.5708791 0-14.9205708-8.584438-25.1401399-20.847921-25.1401399-7.971264 0-13.694223 3.4746535-16.862289 8.9932208h-.204391V36.4003546h-8.993221v59.7844789zm8.993221-15.9425277c0-1.4307397.204391-2.657088.510978-3.7812406 1.737327-6.7449155 7.460285-11.0371345 13.592027-11.0371345 9.606395 0 14.716179 8.4822423 14.716179 18.49742 0 11.3437216-5.518567 19.0083983-15.022766 19.0083983-6.438329 0-11.752505-4.2922189-13.489831-10.526156-.204392-1.0219569-.306587-2.1461095-.306587-3.2702621v-8.8910251zm83.800466 5.620763c.204391-1.0219569.306587-2.3505009.306587-4.1900233 0-9.0954165-4.190023-23.3006175-20.336942-23.3006175-14.409593 0-23.300618 11.7525044-23.300618 26.6730753 0 14.8183751 9.197612 24.9357487 24.322574 24.9357487 7.869069 0 13.387636-1.737327 16.555702-3.168067l-1.635131-6.438328c-3.270262 1.430739-7.255894 2.554892-13.694222 2.554892-8.993221 0-16.657898-5.0075887-16.862289-17.0666802h34.644339zm-34.542144-6.4383285c.71537-6.2339372 4.598807-14.6139838 13.796419-14.6139838 10.015177 0 12.467874 8.8910251 12.365678 14.6139838h-26.162097z" fill="#070707"/><path d="M496.693535 108.787313H490.4085c0-50.6251906-41.772489-91.8100539-93.113049-91.8100539v-6.285035c54.810955 0 99.398084 43.9952448 99.398084 98.0950889zm4.343316-33.7671598c-7.54119-31.7573109-33.277471-58.2643181-65.545761-67.53006071l1.447773-5.03739592c34.056713 9.78097923 61.219476 37.78259843 69.19074 71.35388273l-5.092752 1.2135739zm7.077052-29.8028183c-7.775389-16.9559683-21.03528-31.7445364-37.305685-41.63622758L472.984134 0c16.990034 10.3302811 30.807743 25.7575722 38.9323 43.4672337l-3.802531 1.7501012z" fill="#499cd2"/></svg>