<svg width="256px" height="256px" viewBox="0 0 256 256" xmlns="http://www.w3.org/2000/svg" preserveAspectRatio="xMidYMid"><title>SonarLint</title><g style="fill:#cb2029"><path d="M128 256C57.4199488 256 0 198.58679 0 128 0 57.4132104 57.4199488 0 128 0c70.580051 0 128 57.4132104 128 128 0 70.58679-57.419949 128-128 128m0-232.7987711c-57.7473146 0-104.7570332 46.9923195-104.7570332 104.7332311 0 57.740911 47.0097186 104.733231 104.7570332 104.733231 57.747315 0 104.757033-46.99232 104.757033-104.733231 0-57.7409116-47.009718-104.7332311-104.757033-104.7332311"/><path d="M217.777405 121.321739c-3.33913-6.678261-7.529411-15.058823-15.779028-15.058823-8.184143 0-12.374424 8.315089-15.779028 15.058823-3.142711 6.219949-4.910486 9.493606-8.838874 9.493606-3.928389 0-5.696164-3.273657-8.838875-9.493606-3.339131-6.678261-7.529412-15.058823-15.779028-15.058823-8.249617 0-12.374425 8.315089-15.779028 15.058823-3.142711 6.219949-4.910486 9.493606-8.838875 9.493606-3.928389 0-5.696164-3.273657-8.838875-9.493606-3.33913-6.678261-7.529412-15.058823-15.779028-15.058823-8.2496163 0-12.3744245 8.315089-15.7790281 15.058823-3.1427109 6.219949-4.9104859 9.493606-8.8388746 9.493606-3.9283888 0-5.6961637-3.273657-8.8388747-9.493606-3.3391304-6.678261-7.5294118-15.058823-15.7790281-15.058823-8.1841433 0-12.3744246 7.92225-15.713555 14.600511 0 0-2.5534527 5.696164-3.6664962 8.380563-1.1130435 2.684399-5.4342711 12.898209-1.5058823 17.808695 2.2260869 2.749873 5.434271-1.178516 7.2675191-4.059335 1.3749361-2.226087 4.6485934-8.642455 4.6485934-8.642455 3.3391304-5.958056 5.1069054-9.16624 8.969821-9.16624 3.9283887 0 5.6961636 3.273657 8.8388746 9.493606 3.3391305 6.678261 7.5294118 15.058823 15.7790282 15.058823 8.1841432 0 12.3744245-8.315089 15.7790281-15.058823 3.142711-6.219949 4.9104859-9.493606 8.8388746-9.493606 3.928389 0 5.696164 3.273657 8.838875 9.493606 3.33913 6.678261 7.529412 15.058823 15.779028 15.058823 8.184143 0 12.374424-8.315089 15.779028-15.058823 3.142711-6.219949 4.910486-9.493606 8.838875-9.493606 3.928388 0 5.696163 3.273657 8.838874 9.493606 3.339131 6.678261 7.529412 15.058823 15.779029 15.058823 8.249616 0 12.374424-8.315089 15.779028-15.058823 3.142711-6.219949 4.910486-9.493606 8.838874-9.493606 3.928389 0 5.696164 3.273657 8.838875 9.493606 0 0 1.440409 2.815345 3.53555 6.481841.916624 1.505883 4.321228 7.267519 7.332992 7.0711 2.684399-.196419 3.666496-8.707928.654732-16.171867-2.029668-4.975959-4.583121-10.737596-4.583121-10.737596z"/></g></svg>