<svg width="256px" height="232px" viewBox="0 0 256 232" xmlns="http://www.w3.org/2000/svg" preserveAspectRatio="xMidYMid"><title>SonarCloud</title><path d="M239.000417 104.177714c-9.25584-11.7615235-21.794231-20.5113364-36.026919-25.1410872v-.9147758C202.973498 35.0816509 169.309749 0 127.809422 0 86.2786016 0 52.5996069 35.0054196 52.5996069 78.1370973v1.0672384C22.1985588 89.1601453 0 118.768388 0 153.697576c0 43.0402 33.694241 78.137097 75.1945685 78.137097 19.9260657-.043152 38.9848135-8.156183 52.8283005-22.488237 13.813589 14.338914 32.857053 22.454808 52.767316 22.488237 41.424096 0 75.209815-35.005419 75.209815-78.137097 0-17.99059-6.098505-35.584777-16.999583-49.519862h0zm-58.210232 107.897803c-30.96516 0-56.182478-26.19308-56.182478-58.393187.076657-5.334713-4.164435-9.732378-9.498422-9.849086-2.571792.040022-5.02158 1.103397-6.807127 2.954758-1.785548 1.851361-2.759593 4.338018-2.706541 6.909574 0 14.590674 3.918289 28.281818 10.611399 39.975701-10.408538 11.730342-25.3300575 18.458893-41.0124475 18.493717-30.9804062 0-56.2129712-26.208326-56.2129712-58.393187 0-32.169614 25.232565-58.3779402 56.2129712-58.3779402 6.7083557 0 13.2337562 1.2501936 19.484724 3.5676255.0762313 0 .1372163.0762314.2134477.0762314 2.1649693.7623131 5.2142218 2.2412003 6.1594898 3.0644993 1.87218 1.707324 4.368635 2.561661 6.894322 2.359375 2.525686-.202286 4.85434-1.443074 6.430912-3.426614 3.430201-4.1546447 2.972826-10.2753934-1.036746-13.8740991-4.146983-3.6438568-10.611399-6.1289977-12.19701-6.7083557-8.265101-3.1358043-17.0329399-4.737472-25.8729082-4.7263415-1.2044547 0-2.3936632 0-3.598118.0762313 1.2806861-31.1023762 25.9491394-55.969031 56.2129712-55.969031 30.96516 0 56.182479 26.1930796 56.182479 58.3931868.055226 18.701775-8.700488 36.3374782-23.631708 47.5988332-4.255233 3.249868-5.238112 9.25412-2.2412 13.691144 1.829551 2.652849 4.802572 4.146983 7.760347 4.146983 1.905783 0 3.811566-.579358 5.503901-1.829551 14.181786-10.631359 24.361427-25.736981 28.891668-42.8724917 21.710679 8.3701987 36.789233 30.1723547 36.789233 54.8103147-.076231 32.10863-25.29355 58.30171-56.350188 58.30171h0z" fill="#f3702a"/></svg>