<svg width="256px" height="145px" viewBox="0 0 256 145" xmlns="http://www.w3.org/2000/svg" preserveAspectRatio="xMidYMid"><defs><linearGradient x1="49.7191011%" y1="-27.7011704%" x2="49.7191011%" y2="100.084483%" id="a"><stop stop-color="#f6871f" offset="0%"/><stop stop-color="#f57e20" offset="23.93%"/><stop stop-color="#f36621" offset="62.62%"/><stop stop-color="#f04923" offset="100%"/></linearGradient><linearGradient x1="50.2079545%" y1="-25.000033%" x2="50.2079545%" y2="100.195383%" id="b"><stop stop-color="#f6871f" offset="0%"/><stop stop-color="#f57e20" offset="23.93%"/><stop stop-color="#f36621" offset="62.62%"/><stop stop-color="#f04923" offset="100%"/></linearGradient><linearGradient x1="50.0305882%" y1="-26.1661483%" x2="50.0305882%" y2="100.311149%" id="c"><stop stop-color="#f6871f" offset="0%"/><stop stop-color="#f57e20" offset="23.93%"/><stop stop-color="#f36621" offset="62.62%"/><stop stop-color="#f04923" offset="100%"/></linearGradient><linearGradient x1="49.9360465%" y1="-23.1964773%" x2="49.9360465%" y2="100.193452%" id="d"><stop stop-color="#f6871f" offset="0%"/><stop stop-color="#f57e20" offset="23.93%"/><stop stop-color="#f36621" offset="62.62%"/><stop stop-color="#f04923" offset="100%"/></linearGradient><linearGradient x1="49.5253165%" y1="-89.8451915%" x2="49.5253165%" y2="101.504131%" id="e"><stop stop-color="#f6871f" offset="0%"/><stop stop-color="#f57e20" offset="23.93%"/><stop stop-color="#f36621" offset="62.62%"/><stop stop-color="#f04923" offset="100%"/></linearGradient><linearGradient x1="50.151087%" y1="-13.84615%" x2="50.151087%" y2="100.178769%" id="f"><stop stop-color="#f6871f" offset="0%"/><stop stop-color="#f57e20" offset="23.93%"/><stop stop-color="#f36621" offset="62.62%"/><stop stop-color="#f04923" offset="100%"/></linearGradient><linearGradient x1="49.6594937%" y1="-95.2380781%" x2="49.6594937%" y2="100.836155%" id="g"><stop stop-color="#f6871f" offset="0%"/><stop stop-color="#f57e20" offset="23.93%"/><stop stop-color="#f36621" offset="62.62%"/><stop stop-color="#f04923" offset="100%"/></linearGradient><linearGradient x1="49.5962963%" y1="-51.0899673%" x2="49.5962963%" y2="100.373025%" id="h"><stop stop-color="#f6871f" offset="0%"/><stop stop-color="#f57e20" offset="23.93%"/><stop stop-color="#f36621" offset="62.62%"/><stop stop-color="#f04923" offset="100%"/></linearGradient><linearGradient x1="50.4142857%" y1="-33.2107591%" x2="50.4142857%" y2="100.080323%" id="i"><stop stop-color="#f6871f" offset="0%"/><stop stop-color="#f57e20" offset="23.93%"/><stop stop-color="#f36621" offset="62.62%"/><stop stop-color="#f04923" offset="100%"/></linearGradient><linearGradient x1="50.0343434%" y1="-7.14284164%" x2="50.0343434%" y2="100.167761%" id="j"><stop stop-color="#f6871f" offset="0%"/><stop stop-color="#f57e20" offset="23.93%"/><stop stop-color="#f36621" offset="62.62%"/><stop stop-color="#f04923" offset="100%"/></linearGradient><linearGradient x1="50.3245902%" y1="-220.198737%" x2="50.3245902%" y2="147.927152%" id="k"><stop stop-color="#f6871f" offset="0%"/><stop stop-color="#f57e20" offset="23.93%"/><stop stop-color="#f36621" offset="62.62%"/><stop stop-color="#f04923" offset="100%"/></linearGradient><linearGradient x1="49.1592105%" y1="-121.473836%" x2="49.1592105%" y2="112.576421%" id="l"><stop stop-color="#f6871f" offset="0%"/><stop stop-color="#f57e20" offset="23.93%"/><stop stop-color="#f36621" offset="62.62%"/><stop stop-color="#f04923" offset="100%"/></linearGradient><linearGradient x1="50.4220779%" y1="-94.4840187%" x2="50.4220779%" y2="103.334164%" id="m"><stop stop-color="#f6871f" offset="0%"/><stop stop-color="#f57e20" offset="23.93%"/><stop stop-color="#f36621" offset="62.62%"/><stop stop-color="#f04923" offset="100%"/></linearGradient><linearGradient x1="49.9306056%" y1="-1.53385045e-09%" x2="49.9306056%" y2="100.017117%" id="n"><stop stop-color="#f7941e" offset="0%"/><stop stop-color="#f68b1f" offset="0%"/><stop stop-color="#f6871f" offset="0%"/><stop stop-color="#f57e20" offset="24.02%"/><stop stop-color="#f36621" offset="63.06%"/><stop stop-color="#f04923" offset="100%"/></linearGradient></defs><path d="M109.970428 81.4817121l-1.494163-54.4871596c0-1.6933852-1.394553-2.9883268-2.988327-2.9883268-1.693385 0-2.988327 1.2949416-2.988327 2.9883268l-1.394553 54.4871596 1.394553 26.1976649c0 1.693386 1.394552 2.988327 2.988327 2.988327 1.693385 0 2.988327-1.294941 2.988327-2.988327l1.494163-26.1976649z" fill="url(#a)"/><path d="M99.2124514 81.4817121l-1.6933853-56.5789884c0-1.5937743-1.2949416-2.789105-2.789105-2.789105-1.4941634 0-2.7891051 1.1953307-2.7891051 2.789105l-1.4941634 56.4793775 1.4941634 26.3968868c0 1.593775 1.2949417 2.789105 2.7891051 2.789105 1.4941634 0 2.789105-1.19533 2.789105-2.789105l1.6933853-26.2972759z" fill="url(#b)"/><path d="M76.0031128 25.3011673c-.0996109-1.2949416-1.0957198-2.3906615-2.3906614-2.3906615-1.2949417 0-2.2910506.996109-2.3906615 2.3906615l-1.6933852 56.0809339 1.6933852 26.7953308c0 1.294942 1.0957198 2.29105 2.3906615 2.29105 1.2949416 0 2.2910505-.996108 2.3906614-2.390661l1.9922179-26.7953307-1.9922179-55.981323z" fill="url(#c)"/><path d="M86.7610895 23.4085603c0-1.3945525-1.1953307-2.5898833-2.5898833-2.5898833-1.3945525 0-2.5898832 1.0957199-2.5898832 2.5898833l-1.5937744 57.9735409L81.581323 107.97821c0 1.394553 1.1953307 2.589883 2.5898832 2.589883 1.3945526 0 2.4902724-1.095719 2.5898833-2.589883l1.7929961-26.5961088-1.7929961-57.9735409z" fill="url(#d)"/><path d="M32.4731518 109.870817c.7968871 0 1.3945525-.597665 1.4941634-1.494163l2.5898832-26.9945528-2.5898832-27.8910506c-.0996109-.7968872-.6972763-1.4941634-1.4941634-1.4941634-.7968872 0-1.3945526.5976653-1.4941635 1.4941634l-2.2910506 27.8910506 2.2910506 26.9945528c0 .896498.6972763 1.494163 1.4941635 1.494163z" fill="url(#e)"/><path d="M120.828016 81.4817121l-1.394553-64.7470817c0-1.0957199-.597665-2.0918288-1.494163-2.6894942-.498055-.2988327-1.09572-.5976654-1.792996-.5976654-.597666 0-1.195331.1992218-1.792997.4980545-.896498.5976654-1.494163 1.5937743-1.494163 2.6894942v.5976653l-1.195331 64.1494164 1.195331 25.9984438v.099611c0 .697276.298833 1.394552.796887 1.892607.597665.697276 1.494164 1.19533 2.490273 1.19533.896498 0 1.693385-.398443 2.29105-.896498.597665-.597665.996109-1.394552.996109-2.29105l.099611-2.589884 1.294942-23.3089489z" fill="url(#f)"/><path d="M44.3268482 55.4832685c-.0996108-.996109-.7968871-1.6933852-1.6933852-1.6933852-.896498 0-1.6933852.6972762-1.6933852 1.6933852L38.848249 81.3821012l2.0918288 27.1937738c.0996109.996109.7968872 1.693386 1.6933852 1.693386.8964981 0 1.6933852-.697277 1.6933852-1.693386l2.3906615-27.1937738-2.3906615-25.8988327z" fill="url(#g)"/><path d="M52.8933852 37.3540856c-.9961089 0-1.892607.7968872-1.892607 1.892607l-1.9922179 42.1354086 1.9922179 27.1937738c.0996109 1.09572.8964981 1.892607 1.892607 1.892607.996109 0 1.892607-.796887 1.892607-1.892607l2.2910506-27.1937738-2.2910506-42.1354086c0-.9961089-.896498-1.892607-1.892607-1.892607z" fill="url(#h)"/><path d="M65.2451362 108.575875l2.0918288-27.0941629-2.0918288-51.7976654c-.0996109-1.1953307-.996109-2.0918288-2.1914397-2.0918288-1.1953307 0-2.0918288.8964981-2.1914397 2.0918288l-1.892607 51.7976654 1.892607 27.0941629c0 1.195331.996109 2.091829 2.1914397 2.091829 1.1953307.099611 2.0918288-.896498 2.1914397-2.091829z" fill="url(#i)"/><path d="M128.697276 7.8692607c-.498054-.29883268-1.09572-.49805447-1.792996-.49805447-.796887 0-1.593774.29883268-2.19144.79688716-.796887.59766536-1.294941 1.59377431-1.294941 2.68949411v.3984436l-1.394553 70.3252919.697277 12.9494163.697276 12.6505837c0 1.892607 1.593774 3.38677 3.486381 3.38677 1.892607 0 3.386771-1.593774 3.486381-3.486381l1.494164-25.5999999-1.494164-70.6241246c-.09961-1.29494159-.697276-2.39066143-1.693385-2.9883268z" fill="url(#j)"/><path d="M2.88871595 96.3237354c.49805448 0 .89649806-.3984436.99610895-.9961089l2.19143969-13.9455253L3.8848249 67.2373541c-.09961089-.5976654-.49805447-.996109-.99610895-.996109-.49805447 0-.99610895.3984436-.99610895.996109L0 81.3821012l1.892607 13.9455253c0 .5976653.49805448.9961089.99610895.9961089z" fill="url(#k)"/><path d="M12.351751 104.790661c.4980544 0 .9961089-.398443 1.0957198-.996108l2.888716-22.4124518-2.888716-22.9105059c-.0996109-.5976653-.4980545-.9961089-1.0957198-.9961089-.4980545 0-.996109.3984436-1.0957199.9961089L8.76575875 81.3821012l2.49027235 22.4124518c.0996109.597665.4980545.996108 1.0957199.996108z" fill="url(#l)"/><path d="M22.3128405 108.874708c.6972762 0 1.1953307-.498054 1.2949416-1.294941l2.6894942-26.1976658-2.6894942-27.1937744c-.0996109-.6972762-.5976654-1.2949416-1.2949416-1.2949416-.6972763 0-1.1953308.4980545-1.2949417 1.2949416l-2.3906614 27.1937744 2.3906614 26.1976658c.0996109.697276.5976654 1.294941 1.2949417 1.294941z" fill="url(#m)"/><path d="M223.626459 48.0124514c-4.283268 0-8.367315.896498-12.152529 2.3906614C208.983658 22.2132296 185.276265 0 156.389105 0c-7.072373 0-13.945525 1.39455253-20.02179 3.78521401-2.390661.89649805-2.988327 1.892607-2.988327 3.68560311V106.982101c0 1.892607 1.494164 3.386771 3.386771 3.585992h86.960311c17.332296 0 31.377432-13.845914 31.377432-31.1782097-.099611-17.3322958-14.144747-31.3774319-31.477043-31.3774319z" fill="url(#n)"/><path d="M25.0023346 129.494163c-3.6856031-.896498-4.681712-1.294941-4.681712-2.789105 0-.996109.7968871-2.091828 3.2871595-2.091828 2.0918288 0 3.785214.896498 5.2793774 2.390661l3.3867705-3.287159c-2.1914397-2.291051-4.8809339-3.685604-8.4669261-3.685604-4.5821012 0-8.2677043 2.589884-8.2677043 6.773541 0 4.582101 2.9883269 5.976654 7.2715953 6.873152 4.3828794.996109 5.1797666 1.693385 5.1797666 3.187549 0 1.792996-1.2949417 2.490272-4.0840467 2.490272-2.1914397 0-4.2832685-.796887-5.9766537-2.689494l-3.3867704 2.988327c1.7929961 2.589883 5.1797665 4.183657 8.9649805 4.183657 6.3750973 0 9.0645914-2.988327 9.0645914-7.371206.1992218-4.880934-3.8848249-6.175875-7.570428-6.972763zm21.4163424-9.363424c-6.3750972 0-10.0607003 4.880934-10.0607003 11.953308 0 7.072373 3.785214 11.953307 10.0607003 11.953307 6.2754864 0 10.0607004-4.880934 10.0607004-11.953307 0-7.072374-3.785214-11.953308-10.0607004-11.953308zm0 19.224903c-3.785214 0-5.2793774-3.187549-5.2793774-7.371206 0-4.183658 1.5937743-7.371206 5.2793774-7.371206 3.7852141 0 5.2793775 3.187548 5.2793775 7.371206 0 4.183657-1.5937743 7.371206-5.2793775 7.371206zm28.7875487-5.877043c0 3.685603-1.7929961 5.976654-4.781323 5.976654-2.9883268 0-4.7813229-2.390662-4.7813229-6.076265v-12.949416h-4.6817121v13.049027c0 6.773541 3.785214 10.558755 9.3634241 10.558755 5.8770428 0 9.3634242-3.884825 9.3634242-10.558755v-12.949416h-4.6817121v12.949416h.1992218zm24.603891-3.187548c0 1.294941.0996109 4.183657.0996109 5.080155-.2988327-.597665-1.0957198-1.792996-1.5937743-2.589883l-8.2677043-12.25214h-4.4824902v23.209338h4.5821011v-10.259922c0-1.294941-.0996109-4.183657-.0996109-5.080155.2988327.597665 1.0957199 1.792996 1.5937743 2.589883l8.4669257 12.650584h4.183658v-23.209339h-4.5821012v9.861479h.0996109zm17.8303503-9.861479h-7.271595v23.209339h6.873151c5.976654 0 11.853697-3.486382 11.853697-11.554864 0-8.566537-4.880934-11.654475-11.455253-11.654475zm-.398444 18.726848h-2.29105v-14.144747h2.490272c4.880934 0 6.972763 2.390662 6.972763 7.072374 0 4.183657-2.291051 7.072373-7.171985 7.072373zm26.197666-14.44358c2.091829 0 3.38677.896499 4.283268 2.490273l4.283269-1.992218c-1.494164-2.988327-4.084047-5.179767-8.466926-5.179767-6.076265 0-10.259923 4.880934-10.259923 11.953308 0 7.271595 4.084047 11.953307 10.160312 11.953307 4.183657 0 6.972762-1.992218 8.566537-5.279377l-3.884825-2.291051c-1.195331 2.091829-2.490273 2.988327-4.582101 2.988327-3.486382 0-5.4786-3.187549-5.4786-7.371206 0-4.283269 1.992218-7.271596 5.378989-7.271596zm17.232685-4.283268h-4.681713v23.209339h13.945526v-4.582102h-9.263813v-18.627237zm21.515953-.298833c-6.375097 0-10.060701 4.880934-10.060701 11.953308 0 7.072373 3.785214 11.953307 10.060701 11.953307 6.375097 0 10.0607-4.880934 10.0607-11.953307 0-7.072374-3.685603-11.953308-10.0607-11.953308zm0 19.224903c-3.785214 0-5.279378-3.187549-5.279378-7.371206 0-4.183658 1.593775-7.371206 5.279378-7.371206 3.785214 0 5.279377 3.187548 5.279377 7.371206 0 4.183657-1.494163 7.371206-5.279377 7.371206zm28.787548-5.877043c0 3.685603-1.792996 5.976654-4.781322 5.976654-2.988327 0-4.781323-2.390662-4.781323-6.076265v-12.949416h-4.681712v13.049027c0 6.773541 3.785214 10.558755 9.363424 10.558755 5.877042 0 9.363424-3.884825 9.363424-10.558755v-12.949416h-4.681712v12.949416h.199221zm17.73074-13.049027h-7.271596v23.209339h6.873152c5.976654 0 11.853697-3.486382 11.853697-11.554864 0-8.566537-4.880934-11.654475-11.455253-11.654475zm-.398444 18.726848h-2.191439v-14.144747h2.490272c4.880934 0 6.873152 2.390662 6.873152 7.072374 0 4.183657-2.291051 7.072373-7.171985 7.072373z" fill="#f04923"/></svg>