<svg width="256px" height="262px" viewBox="0 0 256 262" xmlns="http://www.w3.org/2000/svg" preserveAspectRatio="xMidYMid"><path d="M74.2028387 33.6020645 131.154581 241.796129c3.827613 13.991226 18.270967 22.23071 32.253935 18.398968 13.99329-3.831742 22.224516-18.279226 18.394839-32.268387L124.84129 19.7264516C121.011613 5.73935484 106.570323-2.50219355 92.5873548 1.3316129 78.6064516 5.15716129 70.3731613 19.6087742 74.2028387 33.6v.0020645z" fill="#f96316"/><path d="M179.662452 32.8134194 37.0456774 193.858065c-9.6206451 10.859354-8.6152258 27.464258 2.2338065 37.086967 10.8490322 9.620645 27.4374193 8.617291 37.0580645-2.237935L218.954323 67.6645161c9.620645-10.8593548 8.615225-27.4580645-2.233807-37.0828387-10.853161-9.6289032-27.445677-8.6234839-37.058064 2.2296774v.0020646z" fill="#b200f8"/><path d="M18.0645161 122.054194l203.3878709 67.292903c13.764129 4.552258 28.614194-2.919226 33.166452-16.695742 4.56258-13.774452-2.910968-28.63071-16.681291-33.189161L34.555871 72.1754839C20.7855484 67.6190968 5.94167742 75.0905806 1.38735484 88.8670968-3.16283871 102.641548 4.31070968 117.501935 18.0686452 122.054194h-.0041291z" fill="#00b4f2"/></svg>