<svg width="256px" height="322px" viewBox="0 0 256 322" xmlns="http://www.w3.org/2000/svg" preserveAspectRatio="xMidYMid"><defs><linearGradient x1="49.9279136%" y1="90.7207251%" x2="49.9279136%" y2="36.2883187%" id="a"><stop stop-color="#0052cc" offset="18%"/><stop stop-color="#2684ff" offset="100%"/></linearGradient></defs><path d="M255.461938 127.520788c0-70.4277864-57.093002-127.520788-127.520789-127.520788C65.1710463-.0885209711 11.6783652 45.5310512 1.85586153 107.527923-7.96664212 169.524795 28.8047319 229.445395 88.5280788 248.764182v63.894909c0 4.952728 4.014979 8.967707 8.9677066 8.967707h60.5320196c4.952728 0 8.967707-4.014979 8.967707-8.967707V248.80902c52.674885-16.961308 88.406708-65.949945 88.466426-121.288232zm-127.520789 43.089831c-23.810238 0-43.1122492-19.302012-43.1122492-43.11225 0-23.810238 19.3020112-43.1122497 43.1122492-43.1122497 23.810238 0 43.11225 19.3020117 43.11225 43.1122497 0 23.810238-19.302012 43.11225-43.11225 43.11225z" fill="#2684ff"/><path d="M127.941149-1.18601854e-4V84.4309579c23.810238 0 43.11225 19.3020111 43.11225 43.1122491 0 23.810238-19.302012 43.11225-43.11225 43.11225 10.452997 0 20.477865 4.152437 27.86925 11.543821 7.391384 7.391385 11.543821 17.416253 11.543821 27.86925v38.785331c59.745398-19.322276 96.533014-79.261887 86.710513-141.281089-9.8225-62.0192026-63.33142-107.6577941281-126.123584-107.572888601854z" fill="url(#a)"/></svg>