<svg width="256px" height="258px" viewBox="0 0 256 258" xmlns="http://www.w3.org/2000/svg" preserveAspectRatio="xMidYMid"><g fill="#ffa64d"><path d="M13.221978 183.044689C30.007326 165.978022 244.278388 4.78241758 247.935531 8.43956044 250.748718 11.2527473 91.4285714 228.055678 74.5494505 245.028571c-16.8791208 16.972894-44.2608058 16.785348-61.1399267-.281318-16.97289376-17.066667-16.97289376-44.729671-.1875458-61.702564h0z" opacity="0.5"/><path d="M22.6930403 175.449084C43.3230769 163.352381 252.811722 80.2695971 255.34359 84.770696c1.969231 3.469597-168.791209 154.537729-189.5150186 166.540659-20.6300366 12.002931-46.9802198 4.782418-58.88937726-16.22271-11.90915751-20.817583-4.87619048-47.542857 15.75384616-59.639561h0z" opacity="0.3"/><path d="M82.0512821 235.27619C94.0542125 214.458608 176.386813 3.46959707 171.979487.937728938 168.50989-1.03150183 18.6608059 171.041758 6.65787546 191.859341-5.25128205 212.676923 1.96923077 239.214652 22.7868132 251.12381 43.5106227 263.12674 70.0483516 256 82.0512821 235.27619h0z" opacity="0.3"/><path d="M32.7267399 171.041758c23.0681319-6.282784 216.5216121-30.194872 217.9282051-25.224908 1.031502 3.844688-172.7296703 103.431502-195.7978021 109.714286-23.0681319 6.282783-46.69890114-7.595605-52.79413924-30.945055-6.09523809-23.349451 7.68937729-47.261539 30.66373624-53.544323h0z" opacity="0.2"/><path d="M32.7267399 171.041758c23.0681319-6.282784 179.3875461 29.069597 180.7003661 33.945788 1.031502 3.844688-135.5956042 44.167033-158.663736 50.449817-23.0681319 6.282784-46.69890114-7.595605-52.79413923-30.945055-6.0014652-23.255678 7.78315018-47.167766 30.75750913-53.45055h0z" opacity="0.1"/><path d="M86.4586081 225.054945c6.2827838-23.255678-28.8820513-180.7003662-33.8520147-182.0131868C48.7619048 42.0102564 8.81465201 179.575092 2.62564103 202.830769c-6.18901099 23.255678 7.59560437 47.073993 30.75750917 53.075458 23.0681319 6.189011 46.8864469-7.595604 53.0754579-30.851282h0z" opacity="0.1"/><path d="M86.4586081 225.054945C92.7413919 201.799267 116.372161 6.93919414 111.495971 5.62637363 107.651282 4.59487179 8.90842491 179.575092 2.62564103 202.924542-3.56336996 226.18022 10.2212454 249.998535 33.3831502 256c23.0681319 6.189011 46.8864469-7.689377 53.0754579-30.945055h0z" opacity="0.2"/></g></svg>