<svg width="256px" height="160px" viewBox="0 0 256 160" xmlns="http://www.w3.org/2000/svg" preserveAspectRatio="xMidYMid"><path d="M106.932331 100H50C22.3857624 100 0 77.6142376 0 50 0 22.3857624 22.3857624 0 50 0h66.421053c11.045695 0 20 8.9543048 20 20 0 11.0456952-8.954305 20-20 20H48.977444c-5.522848 0-10 4.4771528-10 10 0 5.5228472 4.477152 10 10 10h56.93233c27.614238 0 50 22.3857624 50 50 0 27.614238-22.385762 50-50 50H20c-11.0456952 0-20-8.954305-20-20 0-11.045695 8.9543048-20 20-20h86.932331c5.522847 0 10-4.477153 10-10 0-5.522847-4.477153-10-10-10zm42.081302 60c13.299397-8.994333 22.804821-23.33203 25.554006-40h32.275794c5.429684 0 9.831313-4.477153 9.831313-10V50c0-5.5228472-4.401629-10-9.831313-10h-58.632907c4.670267-5.3075648 7.510076-12.316456 7.510076-20 0-7.683544-2.839809-14.6924352-7.510076-20h68.46422C238.393484 0 256 17.9086104 256 40v80c0 22.09139-17.606516 40-39.325254 40h-67.661113z" fill="#009287"/></svg>