<svg width="256px" height="213px" viewBox="0 0 256 213" xmlns="http://www.w3.org/2000/svg" preserveAspectRatio="xMidYMid"><title>SpiderMonkey</title><path d="M73.8541651.0197460704C65.8954972-.261602877 57.1469659 2.46619918 45.335484 8.03763407 32.7593879 12.0853097 25.5643563 23.0221757 40.3471443 23.0147603l-.3589193 9.6238166-9.3196733 3.5770336-.3468059 9.3501211c0 0-1.4392851 10.8874298 10.4268391 10.2382031-1.5570431.3637094-2.8610956 1.1230622-1.1193928 2.86529 3.209182 3.2081042 7.437346 2.1435672 22.7699324 2.5002603 15.3329151.3566471 16.9846762 17.4104941 16.9846762 17.4104941 0 0 3.4437615 27.9456979 2.9321748 55.1758039-16.6115984-8.8397-33.1971584-16.665235-38.3554497-15.536891-11.4103161 2.496018-21.1580887 13.756849-11.4123411 29.948249 8.9062529 14.796785 23.9438217 25.340351 39.0976149 34.845402-8.4867481 13.690688-23.2076856 24.705602-49.4088654 17.793803-14.17262218.424967-33.3862849 9.923187-14.09509174 10.469411 37.29795044 3.029996 64.49778194 1.279201 80.79888404-16.400714.1374081-.132035.2537982-.269597.3893026-.401478-.0459051.047594-.088279.105935-.133877.151994 23.3609919 14.538381 52.4355599 19.043633 79.2293619 13.115738 1.31221-.428498 5.565138-.981816 5.207324-1.490456.219699.023029.405008.058341.626704.082905.119752-.700397 26.746458 2.857767 46.38543-5.10386 19.028143-7.71394 31.447291-22.15804 34.078834-37.150943 10.814927-61.616965-50.433951-66.5088027-58.460844-69.0092887-6.126238-1.6614872-12.251556-3.320871-18.377764-4.9822507-3.476196-8.6925272-8.116108-17.2017718-14.052509-26.5051542-3.775362-5.9165954-8.241204-10.7189674-13.091343-14.6303249.011668.009181.067553.0475939.0783.0583409 0 0 1.799524-5.6878485 8.650495-11.5826689 1.382987-1.1029499 24.437464-18.7191878 66.363117-.8817151l2.956502 28.5733848 19.046919-.9853469-2.299506-38.7508413c-6.733936-7.8902785-63.900195-31.61127551-105.180885-.118217-6.061388 5.2483005-9.861064 12.5559838-9.861064 12.5559838.041452.0117756.098258.0475939.139711.0706232-6.957868-2.4815299-13.891003-3.8524947-20.190591-4.5868377-.004222-.0230293-.008014-.0475939-.011776-.0706232 0 0-8.013485-22.0622082-22.6117717-29.41898033C83.1242072 1.44839321 78.6293378.194206829 73.854142.0255141422l2.31e-5-.0057680718zM182.149718 103.235655c.190068.73924.370004 1.482012.541342 2.226545-.170878-.747531-.355112-1.488-.541342-2.226545h0zm-67.658881 1.733779c6.195123 10.404525 10.714193 19.718874 12.683777 31.256226-.96938 7.005263-2.433471 13.93895-4.55034 20.476508 0 0-5.277128-3.194318-12.854085-7.616342 1.396036-8.821568 2.346711-18.288816 3.473566-28.603881.374456-5.017926.811552-10.304358 1.247113-15.512511h-3.1e-5zm68.881644 3.698628c.044523.238891.109006.473176.151994.71222.25716 1.334164.468262 2.713558.705617 4.051448 6.631318 1.865619 13.291591 3.68851 19.922908 5.554129 0 0 32.803563 6.391947 27.800862 39.474703-4.710105 31.147711-51.710663 28.689364-51.544542 27.648731 5.628526-35.167597 6.736543-58.120118 2.963023-77.441231h1.38e-4z"/></svg>