<svg width="512px" height="153px" viewBox="0 0 512 153" xmlns="http://www.w3.org/2000/svg" preserveAspectRatio="xMidYMid"><path d="M54.6024929 92.0814419c0 3.3868658-.7163143 6.5346785-2.1489429 9.4430161-1.4326286 2.869058-3.4624673 5.339413-6.0096911 7.331662-2.5869251 2.031951-5.651196 3.585795-9.1931928 4.701658-3.5419968 1.11544-7.4421507 1.673371-11.6607182 1.673371-5.0542815 0-9.5912202-.677458-13.5709881-2.071652C8.03919192 111.804582 4.01957062 109.493454 0 106.30594l6.64626471-10.7979309c3.18379741 2.6697067 6.04922349 4.6222549 8.63606419 5.8572209 2.5470548 1.235389 5.1737236 1.833021 7.879964 1.833021 3.3032395 0 5.929866-.837108 7.959578-2.55018 2.0296698-1.7134948 2.9848259-3.9844983 2.9848259-6.893258 0-1.2349664-.1990137-2.3905301-.5571709-3.4662686-.3581994-1.0761608-1.03477-2.1916007-1.9898839-3.3471643-.9551561-1.1154399-2.3082552-2.39053-4.019596-3.7053215-1.6714704-1.3152139-3.860368-2.9885849-6.5666085-4.9411326-2.0296698-1.434318-4.0594241-2.9484612-6.0094799-4.4626043-1.9500981-1.5538445-3.7011824-3.1875141-5.33286698-4.9407102-1.5918987-1.7531962-2.86546835-3.7053215-3.86041031-5.8969223-.95515612-2.151477-1.47249891-4.6619559-1.47249891-7.4110654 0-3.1875141.67657067-6.1363976 1.98988393-8.7659806 1.31331326-2.629583 3.14401155-4.861054 5.45226677-6.7337767 2.3082552-1.8726804 5.0543238-3.3071251 8.3177351-4.3430777 3.2236255-1.0359527 6.7258365-1.5538868 10.5464187-1.5538868 4.0195537 0 7.8799218.5179764 11.6208901 1.5937571 3.7407993 1.075823 7.2032666 2.629752 10.4271033 4.7016573l-6.0096911 9.7221926c-4.0989565-2.8690584-8.436966-4.3430778-12.9739047-4.3430778-2.7460686 0-5.0542816.717159-6.845194 2.151477-1.7909124 1.434318-2.7062827 3.2276379-2.7062827 5.4188163 0 2.0720742.7959705 3.9447968 2.3878692 5.5784665 1.5918987 1.673371 4.3380095 3.9447968 8.2381634 6.9726607 3.939982 2.8690584 7.2033933 5.4192386 9.7504059 7.5707156 2.5869252 2.151477 4.6167639 4.2235513 6.1287952 6.1359753 1.5124537 1.9128463 2.5075224 3.8252704 3.1043102 5.8175195.5967878 2.0319505.8755422 4.1834275.8755422 6.5743798zm68.2530101-18.2089964c0 2.9881625-.318455 6.2158003-.954945 9.6820688-.59721 3.4666909-1.671681 6.654205-3.183712 9.6026661-1.512454 2.9484612-3.462468 5.3791149-5.890165 7.2518376-2.427697 1.912424-5.532007 2.868636-9.233105 2.868636-6.2086208 0-11.1037166-2.470355-14.6852881-7.4507668-3.5819938-4.9407103-5.3727795-11.7541431-5.3727795-20.4005972 0-8.8855072 1.7907857-15.8982916 5.4521823-21.1177563 3.6216952-5.219887 8.5564924-7.8097686 14.7651123-7.8097686 5.890165 0 10.546208 2.4703551 13.968974 7.3316626 3.422766 4.9010089 5.133726 11.5949153 5.133726 20.0420178zm21.570521-.7572828c0-5.7773957-.83584-11.0369841-2.467398-15.7386414-1.671682-4.7413586-3.979853-8.805682-7.044461-12.2322491-3.064187-3.426736-6.646181-6.056488-10.824962-7.9690387-4.178782-1.9125507-8.795123-2.8688472-13.849447-2.8688472-5.571709 0-10.4668049 1.075823-14.6852879 3.1477705-4.2184829 2.1117756-8.1586339 5.4186896-11.7406277 9.9611189l-.1191042-11.2760371H63.8355983V152.047845h19.8194366v-48.96912c1.9500136 2.271003 3.8202021 4.183427 5.6511115 5.737694 1.7907858 1.553845 3.6216952 2.828935 5.4923061 3.785147 1.8701885.956212 3.8202021 1.673371 5.8897425 2.072074 2.06954.398281 4.298308.597632 6.64618.597632 5.253253 0 10.188473-1.07616 14.725411-3.147812 4.536939-2.111776 8.476668-5.060237 11.779907-8.885507 3.30324-3.8252708 5.890165-8.287875 7.760776-13.3481118 1.910312-5.0999381 2.825555-10.718106 2.825555-16.7746785zm8.835247 40.2833873h20.376101V0h-20.376101v113.39855zm107.294674.039701V36.0595824h-20.376523v41.6377111c0 3.7057438-.159228 6.5743798-.477684 8.6067527-.318456 2.0319505-.835841 3.824848-1.552155 5.4986414-2.865257 6.3750282-8.158634 9.6022434-15.839584 9.6022434-6.009269 0-10.188051-2.1514767-12.576046-6.4945544-.954945-1.6336697-1.591857-3.5063923-1.950014-5.5784665-.358157-2.0716519-.557086-5.0602368-.557086-9.0046113V36.0595824H186.85033v43.9488383c0 2.9881625.039701 5.5383428.079825 7.5707156.039701 2.0319505.198929 3.9046731.397858 5.498219.198929 1.5939683.43756 3.0282863.716314 4.263675.238631 1.2349664.636912 2.4302314 1.154297 3.5460937 1.870189 4.741359 4.854972 8.327576 9.033754 10.75823 4.178781 2.430231 9.31293 3.625918 15.362323 3.625918 5.452182 0 10.267453-.956634 14.406533-2.869058 4.13908-1.912424 8.158634-5.020535 12.058661-9.363613l.039702 10.359949 20.456348.039701zm87.793692-.039701V69.5293677c0-2.9885849-.039701-5.5387651-.079825-7.6505407-.039701-2.1117756-.158805-3.9443745-.397858-5.498219-.198929-1.5542669-.477261-2.9087598-.756016-4.0643234-.318456-1.195265-.676613-2.3508286-1.074471-3.4666909-1.870611-4.6218321-4.855395-8.2078805-9.034176-10.718106-4.178782-2.5102254-9.312931-3.7852733-15.401602-3.7852733-5.452605 0-10.267876.9562965-14.406956 2.8688472-4.13908 1.9125507-8.158634 5.0601523-12.058661 9.3635286l-.039702-10.3596532h-20.496049v77.219314h20.535751V71.7606698c0-3.5862173.119526-6.415152.397858-8.4074011.238631-1.9922491.756438-3.8649717 1.472753-5.6578692 1.313102-3.1081114 3.382642-5.4188163 6.128795-7.0127845 2.746153-1.5939683 6.009269-2.39053 9.829893-2.39053 6.009691 0 10.188473 2.151477 12.576046 6.4945547.915666 1.6336696 1.552155 3.5063923 1.910312 5.5383428.358158 2.0323728.557087 5.0602367.557087 8.9653322v44.0681113l20.336821.040124zm84.289835-5.100361-31.040567-38.6095934 26.225719-28.130414-15.440459-6.6541206-27.301458 31.6764232h-2.148943V0h-20.53575v113.39855h20.53575V72.3181786l30.723802 42.6342154 18.981906-6.654205zM512 80.5663518V67.9353995l-61.727201-30.9992612v13.9057046l47.835941 23.3093569-47.835941 23.6278128v13.5871644L512 80.5663518z" fill="#0c1724"/></svg>