<svg width="256px" height="256px" viewBox="0 0 256 256" xmlns="http://www.w3.org/2000/svg" preserveAspectRatio="xMidYMid"><title>Spotify</title><path d="M127.999236 0C57.3087105 0 0 57.3085507 0 128.000764 0 198.696035 57.3087105 256 127.999236 256 198.697403 256 256 198.696035 256 128.000764 256 57.3131363 198.697403.00611405337 127.997707.00611405337L127.999236 0zm58.699624 184.613841c-2.292715 3.760143-7.21441 4.952384-10.974463 2.644328-30.052912-18.357445-67.885771-22.515001-112.4408705-12.335102-4.2934915.978248-8.5732266-1.711935-9.5514518-6.007058-.9828106-4.295122 1.6966093-8.574959 6.0008001-9.553208 48.7584112-11.139805 90.5821232-6.34333 124.3217202 14.276315 3.760053 2.308055 4.952265 7.214583 2.644265 10.974725h0zm15.666888-34.853161c-2.888821 4.695593-9.033298 6.178251-13.725722 3.289361-34.406014-21.148511-86.85264-27.273264-127.5483353-14.919819-5.2778305 1.59424-10.8521855-1.380247-12.4540293-6.649033-1.5896159-5.277956 1.3863285-10.841745 6.6549882-12.446684 46.4855664-14.105121 104.2757464-7.272666 143.7868734 17.007768 4.692423 2.88889 6.175046 9.033514 3.286225 13.719936v-.001529zm1.345059-36.293021C162.457218 88.964062 94.394144 86.7110334 55.0068244 98.6655362c-6.3248371 1.9182838-13.0134518-1.6523229-14.9301617-7.9773111-1.91671-6.3280453 1.650755-13.0122341 7.9801775-14.9351039C93.2707135 62.0270714 168.433562 64.6790421 215.929451 92.8755277c5.701219 3.3764859 7.565961 10.7240493 4.188027 16.4055333-3.362649 5.689127-10.729908 7.564613-16.400557 4.186598h-.006114z" fill="#1ed760"/></svg>