<svg width="512px" height="209px" viewBox="0 0 512 209" xmlns="http://www.w3.org/2000/svg" preserveAspectRatio="xMidYMid"><g style="fill:#06c"><path d="M193.937461 171.926226c-9.46239 0-20.576682-4.353635-25.383136-11.564581-1.049831-1.352131-1.501384-2.852251-1.501384-4.505418 0-4.053865 3.755358-7.509452 7.809222-7.509452 2.103456 0 4.056395 1.049831 6.008068 3.30507 3.004034 3.752828 7.360199 5.556513 13.06723 5.556513 10.063197 0 15.920747-5.857549 15.920747-12.016135 0-6.607609-6.608874-11.114292-14.868386-14.118326-8.260777-3.002769-17.123625-5.857549-22.97991-13.216483-2.853515-3.755359-4.356165-8.259512-4.356165-13.817291 0-15.4704572 12.916713-24.4825584 27.336075-24.4825584 9.611643 0 20.125129 5.2567429 25.381871 13.2177485.751325 1.2016135 1.201614 2.55248 1.201614 4.2043823 0 4.2056476-3.604841 7.5107166-7.810488 7.5107166-2.252709 0-4.204382-1.202878-6.006802-3.60484-3.154552-4.3561654-7.360199-6.6088745-12.766195-6.6088745-7.811753 0-12.317171 4.3561651-12.317171 9.7634255 0 5.557779 6.608874 9.311873 14.869651 12.315906 8.260776 3.154552 17.12236 6.309104 22.979909 14.267579 2.853516 4.056395 4.354901 8.861584 4.354901 14.568615 0 16.071265-14.26758 26.734003-30.939651 26.734003zm57.032751 21.2401c0 4.666055-3.460647 7.52463-7.523365 7.52463-4.062719 0-7.523366-2.858575-7.523366-7.52463v-81.256899c0-17.9065709 14.444659-32.3512299 32.35123-32.3512299 17.907836 0 32.352495 14.444659 32.352495 32.3512299v27.839487c0 17.905306-14.444659 32.35123-32.352495 32.35123-6.770776 0-12.489191-2.10725-17.304499-6.46974v27.535922zm0-53.417412c0 9.629351 7.673883 17.304499 17.304499 17.304499 9.630616 0 17.304499-7.675148 17.304499-17.304499v-27.839487c0-9.630616-7.673883-17.3044993-17.304499-17.3044993-9.630616 0-17.304499 7.6738833-17.304499 17.3044993v27.839487zm107.409068-38.786186c-1.975705 0-3.795834-.760179-5.466709-2.429789l-.303565-.3035655c-2.883873-2.2767414-6.070046-3.4910034-9.86588-3.4910034-8.956447 0-14.421891 6.2243579-14.421891 18.5200259v50.551247c0 4.706531-3.491004 7.590403-7.590403 7.590403-4.099399 0-7.590403-2.883872-7.590403-7.590403v-50.551247c0-18.9753742 10.777841-33.7008314 29.602697-33.7008314 7.284308 0 16.088973 3.3392207 21.100333 8.3493165 1.517828 1.6696104 2.276742 3.3404855 2.276742 5.3123965 0 4.0993993-3.642786 7.7434504-7.740921 7.7434504zm78.33584 21.399977c0 4.056395-3.454323 7.509452-7.509452 7.509452h-42.055207v9.763426c0 9.010837 8.71233 17.271613 18.775527 17.271613 6.006802 0 10.813256-1.951673 14.568615-5.707032 1.650637-2.253974 3.603575-3.454322 6.006802-3.454322 4.056394 0 7.811753 3.454322 7.811753 7.508187 0 3.005298-1.653167 4.956972-3.455588 6.759392-6.15732 6.608874-14.568615 9.912679-24.931582 9.912679-17.572649 0-33.795696-14.416832-33.795696-32.290517V111.84922c0-17.8724199 14.420627-32.2917819 32.293046-32.2917819 17.87242 0 32.291782 14.419362 32.291782 32.2917819v10.513485zm-15.018904-7.509452v-3.004033c0-9.612908-7.661235-17.2716132-17.272878-17.2716132-9.612908 0-17.272877 7.6587052-17.272877 17.2716132v3.004033h34.545755zm90.027033 7.509452c0 4.056395-3.454322 7.509452-7.509451 7.509452h-42.053943v9.763426c0 9.010837 8.711065 17.271613 18.774262 17.271613 6.006803 0 10.814522-1.951673 14.568615-5.707032 1.651902-2.253974 3.603576-3.454322 6.008068-3.454322 4.055129 0 7.810487 3.454322 7.810487 7.508187 0 3.005298-1.651902 4.956972-3.455587 6.759392-6.157321 6.608874-14.56735 9.912679-24.931583 9.912679-17.572649 0-33.795696-14.416832-33.795696-32.290517V111.84922c0-17.8724199 14.420627-32.2917819 32.293047-32.2917819 17.873684 0 32.291781 14.419362 32.291781 32.2917819v10.513485zm-15.018903-7.509452v-3.004033c0-9.612908-7.661235-17.2716132-17.272878-17.2716132-9.612908 0-17.271613 7.6587052-17.271613 17.2716132v3.004033h34.544491z"/><path d="M57.5509623 159.793978c0 5.705766-4.6243147 10.330081-10.3300815 10.330081-5.7045019 0-10.3288166-4.624315-10.3288166-10.330081 0-5.705767 4.6243147-10.330082 10.3288166-10.330082 5.7057668 0 10.3300815 4.624315 10.3300815 10.330082"/><path d="M100.977906 159.793978c0 5.705766-4.6255795 10.330081-10.3300814 10.330081-5.704502 0-10.3288167-4.624315-10.3288167-10.330081 0-5.705767 4.6243147-10.330082 10.3288167-10.330082 5.7045019 0 10.3300814 4.624315 10.3300814 10.330082"/><path d="M94.4430261 139.13508H43.4275766c-4.0968696 0-7.7889852-2.469-9.3523476-6.25598l-13.4378334-32.533369H10.1188505C4.5307153 100.345731 0 95.8150158 0 90.2268806c0-5.5881352 4.5307153-10.1188505 10.1188505-10.1188505h17.2867912c4.0968696 0 7.7889851 2.4702644 9.3523475 6.2559793l13.4378335 32.5333696h37.5459947l13.8274096-32.6193798c2.181877-5.1467004 8.120377-7.5448679 13.267077-5.3680502 5.144171 2.1818771 7.547398 8.1203775 5.366786 13.265813l-16.443132 38.789348c-1.58613 3.740181-5.2542134 6.16997-9.3169319 6.16997"/></g><g style="fill:#9c0"><path d="M105.747047 46.5373523c-3.871725-4.0323619-10.2769572-4.1613773-14.3080542-.2896521l-12.596704 12.094556V10.1196094c0-5.58940004-4.5294505-10.118850486214-10.1188505-10.118850486214-5.5881352 0-10.1188505 4.529450446214-10.1188505 10.118850486214v47.9861187L46.4822049 46.2970296c-4.0032702-3.8982872-10.4097674-3.8160715-14.3093194.1884636-3.899552 4.0032702-3.8160715 10.4097674.1871987 14.3093194l29.3029262 28.5414826c.1340747.1302802.2782684.2453822.4174026.3668084.0733616.0645076.1441936.131545.220085.1947878.3440409.2833279.7019952.5413585 1.0725981.7728273.0518591.0316214.1075128.0607131.1606368.0935993.3642786.2175553.738676.4110783 1.1219275.5793042.035416.0151783.0657725.0366808.1011885.0518591.0240323.0101189.0480646.017708.070832.026562.2302038.0961291.4629374.1783447.6982006.255501.0860103.0290917.1707557.0632428.2567659.0898048.2302038.0683022.4642022.1239559.6969358.1770799.0935994.0215025.1859339.0493294.2795333.0670373.2339984.0467997.4692616.0771563.7045249.106248.0935994.0113837.184669.0316214.2782684.0392105.3162141.0316214.6324282.0467997.9486422.0467997.0101189 0 .0202377.0025297.0316214.0025297h.0012649c.026562 0 .0543888-.0037946.0809508-.0037946.2959764-.0025297.5919528-.0151782.8853994-.0430051.1745502-.0164431.3478355-.0493294.519856-.0746265.1454584-.0215025.2909169-.0366808.4351105-.0645077.2061716-.0392105.4098135-.0948642.6134553-.1467233.1075128-.0290917.2175553-.0493294.3238033-.0809508.2099661-.061978.413608-.1378693.6197796-.2137607.0986587-.035416.1998473-.0657725.298506-.1062479.1960528-.0784211.3870461-.1707556.5793042-.2630902.1049831-.0493294.211231-.0948642.3136844-.1479881.1745502-.0910697.3440409-.1935231.5147965-.2959764.1163668-.0695671.2352633-.1353396.3491004-.2099662.149253-.0973939.2934466-.2061715.4389051-.3124195.1290153-.0948642.2592955-.1884636.3845163-.2896521.1264856-.1024533.2479119-.2137607.3706029-.3225383.0935994-.0834805.1909933-.1581071.282063-.2453822l29.724123-28.5402177c4.031097-3.8717252 4.160113-10.2769576.289652-14.3080546"/><path d="M70.2865471 208.736707c-10.1378234 0-20.7120221-3.817336-32.0792858-11.450744-4.6394929-3.115341-5.8752575-9.401677-2.7599164-14.04117 3.115341-4.638228 9.4016769-5.873993 14.0424347-2.759916 17.7181072 11.898503 27.7294449 9.032339 38.1430069.554007 4.3346626-3.527685 10.7082735-2.876284 14.2359575 1.458379 3.527685 4.334663 2.875019 10.708274-1.459644 14.235958-9.8304632 8.002746-19.7469366 12.003486-30.1225529 12.003486"/></g></svg>