<svg width="256px" height="256px" viewBox="0 0 256 256" xmlns="http://www.w3.org/2000/svg" preserveAspectRatio="xMidYMid"><path d="M38.9437824 35.879008C89.5234256-13.1200214 170.398168-11.8028432 219.397197 39.0402357c5.532149-7.376198 10.27399-15.5427029 13.698654-23.9726434 16.069574 48.9990294 25.816692 90.0949897 22.128593 121.9707027-1.844049 26.870435-12.381475 52.687128-29.768227 73.235108-45.310931 53.740871-125.922237 60.590198-179.6631079 15.279267h0L44.765 224.638l-.0546677-.036016c-.1683076-.117152-.3343253-.239316-.4978371-.366492-.4905353-.381527-.935964-.796885-1.3362859-1.24024L42.732 222.831l-1.6807325-1.4933c-1.6391551-1.40499-3.2783102-2.80998-4.732446-4.39999l-.5362668-.605287c-48.9990294-50.579644-47.4184156-131.4543856 3.1612277-180.453415zm18.9673662 171.496603c-4.7418416-3.688099-11.5911683-3.161228-15.2792672 1.580614-3.2429836 4.16955-3.2270083 9.96858.0479258 13.815044L42.732 222.831l2.033 1.807.1994841.135953c4.6046744 3.027787 10.7999432 2.401932 14.3337224-1.877566l.1935559-.241509c3.688099-4.741841 2.8977921-11.591168-1.5806138-15.279267zM231.778672 28.2393744c-13.171782 27.6607424-45.837801 48.7355937-74.025415 55.3214848-26.607 6.3224554-49.789336 1.0537426-74.2888511 10.5374257C27.6160498 115.436572 28.6697923 181.822354 59.2283268 196.838185h0l1.8440495 1.053743c0 0 22.0732724-4.388838 43.9012867-10.184686l1.869851-.500163c8.718312-2.349525 17.295355-4.910541 24.302743-7.49221 36.354119-13.435218 76.396336-46.628109 89.568118-85.0897128-6.849326 40.0422178-41.359395 78.7672568-75.869465 96.4174448-18.440494 9.483683-32.666019 11.591168-62.961118 22.128594-3.688099 1.317178-6.585891 2.634356-6.585891 2.634356.3696597-.050987.7393193-.100741 1.1081135-.149261l.736178-.095397h0l.7323314-.092106c6.6907058-.829233 12.7026443-1.243849 12.7026443-1.243849 42.9400098-2.107486 110.3795338 12.118039 141.7283758-29.768228 32.139148-42.676574 14.225524-111.6967121-.526872-156.2173356z" fill="#6db33f"/><path d="M57.9111486 207.375611c4.4784059 3.688099 5.2687128 10.537426 1.5806138 15.279267-3.6880989 4.741842-10.5374256 5.268713-15.2792672 1.580614-4.7418415-3.688099-5.2687128-10.537426-1.5806138-15.279267 3.6880989-4.741842 10.5374256-5.268713 15.2792672-1.580614zM231.778672 28.2393744c14.752396 44.5206235 32.66602 113.5407616.526872 156.2173356-31.348842 41.886267-98.788366 27.660742-141.7283758 29.768228 0 0-6.0119385.414616-12.7026443 1.243849l-.7323314.092106c-.6120926.078127-1.2281921.159679-1.8442915.244658 0 0 2.897792-1.317178 6.585891-2.634356 30.295099-10.537426 44.520624-12.644911 62.961118-22.128594 34.51007-17.650188 69.020139-56.375227 75.869465-96.4174448-13.171782 38.4616038-53.213999 71.6544948-89.568118 85.0897128-25.026386 9.220247-70.0738807 18.177059-70.0738807 18.177059l-1.8440495-1.053743c-30.5585345-15.015831-31.612277-81.401613 24.2360791-102.7399001 24.4995151-9.4836831 47.6818511-4.2149703 74.2888511-10.5374257 28.187614-6.5858911 60.853633-27.6607424 74.025415-55.3214848z" fill="#fff"/></svg>