<svg width="256px" height="256px" viewBox="0 0 256 256" xmlns="http://www.w3.org/2000/svg" preserveAspectRatio="xMidYMid"><g fill="#2e3b4e"><path d="M212.65112 5.1534007e-15H42.6694771C19.1066886 5.1534007e-15 0 19.1008864 0 42.6694771V212.65112c0 23.568591 19.1066886 42.669477 42.6694771 42.669477H212.65112c23.568591 0 42.669477-19.100886 42.669477-42.669477V42.6694771C255.326399 19.1008864 236.225513 0 212.65112 0v5.1534007e-15zm-3.74823 195.447557C208.90289 202.885995 202.87439 208.908692 195.441755 208.908692H59.907853c-7.4384375 0-13.4669372-6.022697-13.4669372-13.461135V59.907853c0-7.4384375 6.0284997-13.4669372 13.4669372-13.4669372h135.533902c7.432635 0 13.461135 6.0284997 13.461135 13.4669372v135.539704h0z"/><path d="M100.569764 162.479381c-4.2704287 0-7.7285479-3.481328-7.7285479-7.769164V100.61038c0-4.2878359 3.4581192-7.7691639 7.7285479-7.7691639h54.181069c4.282033 0 7.728548 3.481328 7.728548 7.7691639v54.099837c0 4.287836-3.446515 7.769164-7.728548 7.769164h-54.181069 0z"/></g></svg>