<svg width="256" height="197" xmlns="http://www.w3.org/2000/svg" preserveAspectRatio="xMidYMid"><path d="M67.694 156.077c.18-.267.2-.612.049-.899a.871.871 0 00-.77-.46H15.986a15.99 15.99 0 01-15.986-16l.061-74.22a18.005 18.005 0 012.386-8.94l27.238-47.47A16.098 16.098 0 0143.649 0h165.276a9.566 9.566 0 018.11 14.639c-6.134 9.807-13.79 22.05-17.773 28.416a2.808 2.808 0 002.38 4.299h40.27c7.78 0 14.088 6.308 14.088 14.089v71.205a47.085 47.085 0 01-5.86 22.752c-4.844 8.777-12.704 21.214-17.66 30.196a22.045 22.045 0 01-19.302 11.395H58.062a9.602 9.602 0 01-7.948-14.992l17.58-25.922z" fill="#E27152"/><path d="M91.6 148.608a9.98 9.98 0 00-8.154 4.228L62.452 182.62a2.882 2.882 0 002.353 4.54h144.787c5.331 0 10.256-2.85 12.914-7.473 3.784-6.583 10.286-16.153 14.184-22.933a5.434 5.434 0 00-4.713-8.146H91.6zM50.776 107.144a17.778 17.778 0 00-13.956 6.833l-17.135 21.92a5.557 5.557 0 00-.617 5.86 5.557 5.557 0 005 3.126h50.046a10.683 10.683 0 019.653-6.107h96.72c3.957 0 7.63-2.06 9.696-5.435 3.67-5.993 9.535-15.57 13.158-21.489a3.432 3.432 0 00-2.938-5.225c-25.164.086-120.33.414-149.627.517z" fill="#FFFBF9"/><path d="M204.497 130.782a5.23 5.23 0 004.44 7.994h28.066a8.17 8.17 0 005.774-2.391 8.172 8.172 0 002.392-5.776V65.188a8.001 8.001 0 00-8.003-8.003H106.242c-4.91 0-9.48 2.51-12.115 6.653-4.645 7.31-10.051 18.958-14.625 26.152a4.15 4.15 0 00-.135 4.225 4.148 4.148 0 003.638 2.154h124.318a10.328 10.328 0 018.768 15.783c-3.949 6.345-8.33 13.383-11.594 18.63z" fill="#FFFBF9"/><path d="M181.635 47.354a3.188 3.188 0 002.665-1.444L202.9 17.428a3.618 3.618 0 00-3.03-5.595H58.233A15.25 15.25 0 0042.98 27.087v53.946a15.534 15.534 0 0016.273 15.516h2c.052-.43 16.144-28.211 25.026-41.833a16.234 16.234 0 0113.598-7.362h81.76z" fill="#FFFBF9"/></svg>