<svg width="256px" height="197px" viewBox="0 0 256 197" xmlns="http://www.w3.org/2000/svg" preserveAspectRatio="xMidYMid"><title>sst</title><path d="M67.6938784 156.076627c.1809283-.266695.1997182-.611277.048793-.898277-.1509251-.28306-.4470173-.459443-.7694759-.459443-6.8283032 0-33.4317434 0-50.9873713 0-4.2423307 0-8.31037014-1.685634-11.30826527-4.688075C1.67922738 147.028391-.00368542298 142.959472 0 138.718415c.0180533778-22.095688.0500471499-60.7540485.061121663-74.2197255.0024611713-3.137607.825257615-6.2179352 2.386351197-8.9415587C8.07822424 45.7457826 22.2860106 20.9840537 29.6845867 8.08843745 32.5549834 3.08457104 37.8816114 0 43.6491956 0H208.925288c3.478249 0 6.681924 1.89095903 8.367861 4.93022221 1.685331 3.04365758 1.586836 6.75950799-.257603 9.70861009-6.134593 9.8071054-13.791469 22.0505309-17.773712 28.4163606-.541573.8655468-.570667 1.9565721-.075462 2.8506067.494598.8943377 1.435607 1.4480331 2.456322 1.4480331 8.828213 0 27.316243 0 40.268835 0 7.781132 0 14.088471 6.3082478 14.088471 14.0890767v71.2048586c0 7.957211-2.016275 15.787439-5.860927 22.752121-4.843244 8.777601-12.702869 21.213775-17.659154 30.19655-3.879505 7.030143-11.273323 11.394244-19.30236 11.394244H58.0616401c-3.5549242 0-6.8192113-1.964755-8.4839341-5.106604-1.6650259-3.137607-1.4583372-6.944074.5367238-9.884993 6.7625386-9.971062 14.8809793-21.943853 17.5794486-25.922459z" fill="#e27152"/><g style="fill:#fffbf9"><path d="M91.6003646 148.60765c-3.2439819 0-6.284912 1.578956-8.1538989 4.228632-5.1550947 7.313204-15.6913687 22.259644-20.9940548 29.782264-.619763.881912-.6976501 2.030216-.2027489 2.986076.4952043.955556 1.4807638 1.554408 2.5557268 1.554408 23.7449539 0 115.8638582 0 144.7863342 0 5.331477 0 10.255941-2.850607 12.9138-7.473221 3.784948-6.583125 10.286853-16.152327 14.184238-22.932443.967679-1.681694.964951-3.753127-.00697-5.430578-.971922-1.681695-2.76575-2.715138-4.706259-2.715138-29.240691 0-117.984994 0-140.3761674 0z"/><path d="M50.7757124 107.143536c-5.4530052.016365-10.5968865 2.534815-13.9557292 6.833455-4.7941471 6.132168-11.8759925 15.192528-17.1351588 21.919305-1.3100487 1.673511-1.5495893 3.949814-.6172779 5.86123.9318872 1.915356 2.8732152 3.125485 5.0003206 3.125485h50.0457861c1.7668549-3.728579 5.5251341-6.107318 9.6531496-6.107318 19.7921082 0 77.4358252 0 96.7209102 0 3.956785 0 7.628995-2.059007 9.694972-5.434821 3.670391-5.992457 9.535258-15.569841 13.158675-21.488653.64916-1.062234.674011-2.391164.063946-3.474006-.609762-1.087086-1.758672-1.755642-3.002744-1.751419-25.163287.08609-120.3300922.414306-149.6268496.516742z"/><path d="M204.496937 130.781508c-1.00344 1.61199-1.054051 3.64251-.131529 5.303596.922523 1.661086 2.672709 2.690589 4.572002 2.690589h28.065718c2.165685 0 4.242876-.861303 5.773948-2.391163 1.531678-1.534103 2.39177-3.609476 2.39177-5.775161 0-15.688944 0-49.8641002 0-65.4215152 0-4.4216832-3.582806-8.0023677-8.002671-8.0023677-25.626063 0-105.465478 0-130.924554 0-4.910523 0-9.4804035 2.5102675-12.1146236 6.65283-4.6447372 7.3092635-10.0513738 18.9577772-14.6248914 26.15218-.8125108 1.2755905-.8643345 2.8957631-.1348628 4.2246925.7288655 1.3289295 2.1232565 2.1535628 3.6379633 2.1535628H207.322693c3.750096 0 7.205919 2.0344592 9.027325 5.3114746 1.821103 3.277319 1.722002 7.284716-.259724 10.471722-3.947997 6.345221-8.328766 13.383547-11.593357 18.62956z"/><path d="M181.635411 47.3535296c1.074963 0 2.077191-.5452096 2.664829-1.4434871 3.103664-4.7538398 13.123823-20.0982017 18.598345-28.4821252.725835-1.1116336.784629-2.5348155.152441-3.6997881-.632492-1.1689124-1.853531-1.8950504-3.181551-1.8950504-24.125601 0-107.1135327 0-141.6359984 0-4.0458856 0-7.9256929 1.6038072-10.7866037 4.4668395-2.8603047 2.8587894-4.4677487 6.7388998-4.4677487 10.7875129 0 15.1843449 0 38.4080311 0 53.9451409 0 4.2492406 1.7398823 8.3096732 4.8144523 11.2424098 3.07457 2.9327367 7.2153141 4.4750222 11.4587965 4.2740917 9.092e-4 0 1.9993039 0 1.9993039 0 .0524298-.4306519 16.1444472-28.2114903 25.0263025-41.8329414 2.996986-4.5938228 8.1117733-7.3626026 13.5978123-7.3626026 20.7425133 0 71.7437033 0 81.7596193 0z"/></g></svg>