<svg width="256px" height="213px" viewBox="0 0 256 213" xmlns="http://www.w3.org/2000/svg" preserveAspectRatio="xMidYMid"><title>Stability AI</title><defs><linearGradient x1="50%" y1="0%" x2="50%" y2="100%" id="a"><stop stop-color="#9d39ff"/><stop stop-color="#a380ff" offset="1"/></linearGradient></defs><path d="M72.418311 212.449785c49.477517 0 81.658016-26.205147 81.658016-65.626258 0-30.571474-19.57281-49.9976015-54.5691024-58.0427263l-22.4690609-6.7394703c-19.7105557-4.4248186-31.2153779-9.7381406-28.5047129-23.3119196 2.2550319-11.2921755 9.0013794-17.6669772 24.6893727-17.6669772 49.8723415 0 68.3502565 17.6669772 68.3502565 17.6669772V16.2373709c0 0-17.98994-16.2373709-68.3502565-16.2373709C25.7565874 0 2.1513352e-14 24.4237956 2.1513352e-14 62.235882 2.1513352e-14 92.8073562 17.8493354 110.58622 54.0523968 119.033601c2.5337423.633537 3.8287489.959012 3.8850197.976427 5.5067711 1.704247 12.9375435 3.955979 22.2923173 6.755194 18.5037869 4.424819 23.2622342 9.121105 23.2622342 23.200074 0 12.872199-13.3743825 20.189093-31.073657 20.189093-50.9863541 0-72.41831099999997-25.793163-72.41831099999997-25.793163l-6.908357e-15 47.077733c0 0 13.402465599999978 21.010826 72.41831099999997 21.010826z" fill="url(#a)"/><path d="M225.442113 209.266419C242.957 209.266419 256 196.596076 256 179.453847c0-17.514886-12.670343-29.812572-30.557887-29.812572-17.514886 0-30.185229 12.297686-30.185229 29.812572 0 17.514886 12.670343 29.812572 30.185229 29.812572z" fill="#e80000"/></svg>