<svg width="256px" height="228px" viewBox="0 0 256 228" xmlns="http://www.w3.org/2000/svg" preserveAspectRatio="xMidYMid"><path d="M231.347179 0C244.96042 0 255.994974 10.8933637 256 24.3360823c-.005026 0-.005026 178.4218697-.005026 178.4218697 0 13.439056-11.034554 24.336082-24.647795 24.336082H24.6515053c-13.613241 0-24.651505299999997-10.897026-24.651505299999997-24.336082L1.79938042e-15 24.3360823C1.79938042e-15 10.8933637 11.0382643 0 24.6515053 0H231.347179z" fill="#0090f9"/><path d="M195.958986 136.498536c-9.505138 0-17.702632 5.695757-21.369161 13.85296h-29.768113l-11.699193-36.961982 11.856696-36.7495358h29.566655c3.640889 8.2121458 11.867687 13.9591826 21.413116 13.9591826 12.915265 0 23.420365-10.5050999 23.420365-23.4203657 0-12.9152658-10.5051-23.4203658-23.420365-23.4203658-9.094897 0-16.988373 5.2159213-20.867348 12.8090427h-37.313617c-4.307531 0-8.131563 2.7434867-9.512464 6.8239196L114.73493 103.459484H81.575004c-3.582283-8.3549979-11.8823376-14.2192465-21.5339897-14.2192465-12.911603 0-23.4203658 10.5051-23.4203658 23.4203665 0 12.911603 10.5087628 23.416702 23.4203658 23.416702 8.9923362 0 16.8088924-5.095046 20.731822-12.545316h33.8045907l13.53429 40.068092c1.377238 4.080433 5.20127 6.82392 9.5088 6.82392h37.41984c3.856998 7.651727 11.783441 12.911603 20.918629 12.911603 12.915265 0 23.420365-10.5051 23.420365-23.420366 0-12.911603-10.5051-23.416703-23.420365-23.416703h0 0zm0-80.1947903c5.996111 0 10.875049 4.8789376 10.875049 10.8750494 0 5.9961118-4.878938 10.8750494-10.875049 10.8750494-5.996112 0-10.871387-4.8789376-10.871387-10.8750494 0-5.9961118 4.875275-10.8750494 10.871387-10.8750494h0 0zM60.0410143 123.53199c-5.9961118 0-10.8713866-4.878938-10.8713866-10.871386 0-5.996112 4.8752748-10.87505 10.8713866-10.87505 5.9961118 0 10.8750494 4.878938 10.8750494 10.87505 0 5.992448-4.8789376 10.871386-10.8750494 10.871386h0 0zm135.9179717 47.258298c-5.996112 0-10.871387-4.878937-10.871387-10.875049 0-5.996112 4.875275-10.871387 10.871387-10.871387 5.996111 0 10.875049 4.875275 10.875049 10.871387 0 5.996112-4.878938 10.875049-10.875049 10.875049h0 0z" fill="#fff"/></svg>