<svg width="256px" height="257px" viewBox="0 0 256 257" xmlns="http://www.w3.org/2000/svg" preserveAspectRatio="xMidYMid"><title>Stackbit</title><path d="M177.246486 78.768379l61.362973 30.971113c5.221527 2.615246 9.613698 6.630962 12.68574 11.599081 2.632167 4.257175 4.205169 9.070801 4.603852 14.03747L256 137.870264v70.898808c0 12.532373-4.977321 24.55038-13.837165 33.413763-8.226998 8.229189-19.176089 13.11171-30.73239 13.771006l-2.676655.076777H.158466803L78.8400441 177.247611h98.4064419V78.768379zM255.856072 2.48689958e-13 177.247665 78.7686149H78.8411059v98.4789961l-61.5221203-30.884402c-5.2086682-2.62846-9.58559631-6.651372-12.64333968-11.621615-2.62092288-4.259197-4.183963195-9.069645-4.5770579191-14.03165L-2.7000624e-13 118.218162V47.3336286C-.00941501996 41.12112 1.20600829 34.9675985 3.5768365 29.2253342c2.37082821-5.7423823 5.85052903-10.9609603 10.2400922-15.3572597 4.3895749-4.3962995 9.602844-7.88399895 15.3415692-10.26361623C33.9407688 1.62143405 39.0097.440354176 44.1617046.101744891L47.2612475 2.48689958e-13H255.856072z" fill="#ff364e"/></svg>