<svg width="256px" height="306px" viewBox="0 0 256 306" xmlns="http://www.w3.org/2000/svg" preserveAspectRatio="xMidYMid"><title>Stately</title><path d="M83.60475.0445842031 252.705211 169.14537C254.657598 171.219104 256 174.147685 256 177.320043c0 3.537483-1.586179 6.709842-4.148552 8.783576L136.433077 301.52199c-4.757455 4.758538-12.444573 4.758538-17.202027 0L3.56868376 185.859841c-4.75824501-4.758537-4.75824501-12.444572 0-17.20311L74.8203076 97.283002l7.9304626 7.930896 1.6620718 1.636371c11.3192056 11.807189 26.701536 41.204758 3.462132 65.955014-2.440159 2.439943-2.440159 6.222287 0 8.662229l35.625975 35.748621c2.439942 2.439943 6.222286 2.439943 8.662229 0l35.626191-35.626191c1.09754-1.098624 1.951303-2.684803 1.951303-4.392329 0-1.586179-.731332-3.172359-1.829957-4.269899l-30.501446-30.501446.122431-.12243-53.8049529-53.8044116C59.3254823 63.9758395 59.0814881 24.5678461 83.60475.0445842031zM154.651383 9.18374993c12.245217-12.24499991 32.098461-12.24499991 44.343677 0 12.244134 12.24499987 12.244134 32.09802597 0 44.34302587-12.245216 12.2449999-32.09846 12.2449999-44.343677 0-12.245216-12.2449999-12.245216-32.098026 0-44.34302587z"/></svg>