<svg width="256px" height="189px" viewBox="0 0 256 189" xmlns="http://www.w3.org/2000/svg" preserveAspectRatio="xMidYMid"><defs><linearGradient x1="50%" y1="82.7990841%" x2="50%" y2="-5.78133944%" id="a"><stop stop-color="#2684ff"/><stop stop-color="#0052cc" offset=".82"/></linearGradient></defs><circle fill="url(#a)" cx="128" cy="128.433426" r="59.8647801"/><path d="M1.61622537 59.2547248 33.7997412 97.3740064c1.1895886 1.3988403 2.8901894 2.2625519 4.7214565 2.3979625 1.8312671.1354106 3.6404097-.4687778 5.0228063-1.6774361 52.1180816-46.7312884 116.656667-46.7312884 168.911992 0 1.382397 1.2086583 3.191539 1.8128467 5.022806 1.6774361 1.831267-.1354106 3.531868-.9991222 4.721457-2.3979625l32.183516-38.1192816c2.432063-2.8842722 2.079561-7.1909293-.789148-9.6413304-75.483726-66.1511925-175.5682846-66.1511925-251.18925358 0-2.868709151 2.4504011-3.221211339 6.7570582-.78914805 9.6413304z" fill="#2684ff"/></svg>