<svg width="256px" height="286px" viewBox="0 0 256 286" xmlns="http://www.w3.org/2000/svg" preserveAspectRatio="xMidYMid"><title>stdlib</title><defs><linearGradient x1="32.9015371%" y1="78.1302971%" x2="85.8888408%" y2="33.9943071%" id="a"><stop stop-color="#a4681d" offset="0%"/><stop stop-color="#e18f2f" offset="31%"/><stop stop-color="#f0ad3e" offset="100%"/></linearGradient><linearGradient x1="-5.51622512%" y1="75.391885%" x2="87.6031534%" y2="17.0590233%" id="b"><stop stop-color="#f0ad3e" offset="0%"/><stop stop-color="#e18f2f" offset="69%"/><stop stop-color="#a4681d" offset="100%"/></linearGradient><linearGradient x1="-0.00257204963%" y1="50.0235984%" x2="100.006185%" y2="50.0235984%" id="c"><stop stop-color="#006991" offset="0%"/><stop stop-color="#008bbf" offset="25%"/><stop stop-color="#008bbf" offset="62%"/><stop stop-color="#00aeef" offset="100%"/></linearGradient></defs><g transform="translate(35.298957)"><path d="M92.754232-6.61381977e-15 49.1124285 25.0964748c-5.5582796 3.2534109-10.3571346 7.6592562-14.0685643 12.9249948-5.3425676 7.4405892-5.3425676 17.4608584 0 24.9014475 3.7291595 5.2036845 8.5250595 9.5504305 14.0685643 12.7536071l28.9526976 16.7162084c-1.3858762-1.0105963-2.6683289-2.1512108-3.835538-3.4041138-9.9375303-10.7324145-9.2903941-27.4840825 1.4420204-37.4186578C91.6993113 40.9084655 99.2817385 18.0311656 92.754232-6.61381977e-15z" fill="url(#a)"/><path d="M176.338229 192.947065 155.22504 180.7549c6.125632 3.445483 9.851837 9.98481 9.695224 17.008749-.159568 7.02394-4.175359 13.388924-10.448739 16.553686l-45.172472 26.19572c-9.9700352 5.428261-16.2788746 15.770621-16.544821 27.120622v17.555417l84.488215-48.768659c7.484913-4.757485 11.943948-13.078652 11.76074-21.949442-.186162-8.867835-4.987972-16.99693-12.664958-21.43528v-.088648z" fill="url(#b)"/><path d="M49.1124285 75.5671907c-5.5435048-3.2031766-10.3394048-7.5499227-14.0685643-12.7536071-5.3425676-7.4405892-5.3425676-17.4608583 0-24.9014475 3.7232495-5.2243692 8.5191495-9.5947549 14.0685643-12.8156613L15.8513994 44.483967C6.09707658 50.317058.0896430078 60.8160307 0 72.1837616-.087654589 83.5485375 5.75725619 94.139114 15.4199752 100.125863l160.9182538 92.90985c7.676986 4.43835 12.478796 12.567445 12.664958 21.43528.183208 8.87079-4.275827 17.191957-11.76074 21.949442l27.6141-15.942009c9.807513-5.664658 15.844496-16.131126 15.844496-27.454532 0-11.323407-6.036983-21.789875-15.844496-27.454533L49.1124285 75.5671907z" fill="#f0ad3e"/><path d="M92.754232-6.61381977e-15 49.1124285 25.0964748c-5.5582796 3.2534109-10.3571346 7.6592562-14.0685643 12.9249948-5.3425676 7.4405892-5.3425676 17.4608584 0 24.9014475 3.7291595 5.2036845 8.5250595 9.5504305 14.0685643 12.7536071l28.9526976 16.7162084c-1.3858762-1.0105963-2.6683289-2.1512108-3.835538-3.4041138-9.9375303-10.7324145-9.2903941-27.4840825 1.4420204-37.4186578C91.6993113 40.9084655 99.2817385 18.0311656 92.754232-6.61381977e-15z" fill="url(#a)"/><path d="M176.338229 192.947065 155.22504 180.7549c6.125632 3.445483 9.851837 9.98481 9.695224 17.008749-.159568 7.02394-4.175359 13.388924-10.448739 16.553686l-45.172472 26.19572c-9.9700352 5.428261-16.2788746 15.770621-16.544821 27.120622v17.555417l84.488215-48.768659c7.484913-4.757485 11.943948-13.078652 11.76074-21.949442-.186162-8.867835-4.987972-16.99693-12.664958-21.43528v-.088648z" fill="url(#b)"/><path d="M49.1124285 75.5671907c-5.5435048-3.2031766-10.3394048-7.5499227-14.0685643-12.7536071-5.3425676-7.4405892-5.3425676-17.4608583 0-24.9014475 3.7232495-5.2243692 8.5191495-9.5947549 14.0685643-12.8156613L15.8513994 44.483967C6.09707658 50.317058.0896430078 60.8160307 0 72.1837616-.087654589 83.5485375 5.75725619 94.139114 15.4199752 100.125863l160.9182538 92.90985c7.676986 4.43835 12.478796 12.567445 12.664958 21.43528.183208 8.87079-4.275827 17.191957-11.76074 21.949442l27.6141-15.942009c9.807513-5.664658 15.844496-16.131126 15.844496-27.454532 0-11.323407-6.036983-21.789875-15.844496-27.454533L49.1124285 75.5671907z" fill="#f0ad3e"/></g><g transform="translate(0 37.935776)"><path d="M46.8213404 165.137937c-9.665674-5.986749-15.5076298-16.577326-15.418981-27.942102.0856938-11.367731 6.0931274-21.866703 15.8504051-27.699794L15.86518 127.547891C6.04880301 133.203684 0 143.673108 0 155.002424c0 11.329316 6.04880301 21.795785 15.86518 27.454533l27.6170556 15.939054 84.5709534 48.771614v-17.555417c-.301406-11.317497-6.604335-21.618487-16.541866-27.034929l-45.2374813-26.086386c-.6382714-.325046-1.255858-.685551-1.8527599-1.078561l-17.5997414-10.274395z" fill="#00aeef"/><path d="M166.095344 84.7866657l40.56569-23.4151026c9.804557-5.6676131 15.84154-16.1311263 15.84154-27.4545328 0-11.3263615-6.036983-21.7898747-15.84154-27.4545329L195.630168 0c3.770529 10.1739271.540758 21.6214419-7.993166 28.326246l-59.583813 34.4666529-80.8004245 46.6795021c-9.7572777 5.836046-15.7647113 16.335019-15.8513999 27.699795-.087654 11.367731 5.7543018 21.958307 15.4199758 27.942101l17.6647505 10.191657c-5.5139552-3.593232-8.776231-9.777963-8.631438-16.355704.144793-6.57774 3.6759702-12.611769 9.3406284-15.956783L166.095344 84.7866657z" fill="url(#c)"/><path d="M46.8213404 165.137937c-9.665674-5.986749-15.5076298-16.577326-15.418981-27.942102.0856938-11.367731 6.0931274-21.866703 15.8504051-27.699794L15.86518 127.547891C6.04880301 133.203684 0 143.673108 0 155.002424c0 11.329316 6.04880301 21.795785 15.86518 27.454533l27.6170556 15.939054 84.5709534 48.771614v-17.555417c-.301406-11.317497-6.604335-21.618487-16.541866-27.034929l-45.2374813-26.086386c-.6382714-.325046-1.255858-.685551-1.8527599-1.078561l-17.5997414-10.274395z" fill="#00aeef"/><path d="M166.095344 84.7866657l40.56569-23.4151026c9.804557-5.6676131 15.84154-16.1311263 15.84154-27.4545328 0-11.3263615-6.036983-21.7898747-15.84154-27.4545329L195.630168 0c3.770529 10.1739271.540758 21.6214419-7.993166 28.326246l-59.583813 34.4666529-80.8004245 46.6795021c-9.7572777 5.836046-15.7647113 16.335019-15.8513999 27.699795-.087654 11.367731 5.7543018 21.958307 15.4199758 27.942101l17.6647505 10.191657c-5.5139552-3.593232-8.776231-9.777963-8.631438-16.355704.144793-6.57774 3.6759702-12.611769 9.3406284-15.956783L166.095344 84.7866657z" fill="url(#c)"/></g></svg>