<svg width="256" height="236" xmlns="http://www.w3.org/2000/svg" preserveAspectRatio="xMidYMid"><defs><linearGradient x1="32.521%" y1="-18.705%" x2="102.581%" y2="72.992%" id="a"><stop stop-color="#613AB5" offset="0%"/><stop stop-color="#613AB5" offset="19.808%"/><stop stop-color="#D11E8E" offset="100%"/></linearGradient><linearGradient x1="-2.438%" y1="26.908%" x2="67.621%" y2="118.609%" id="b"><stop stop-color="#613AB5" offset="0%"/><stop stop-color="#613AB5" offset="19.808%"/><stop stop-color="#D11E8E" offset="100%"/></linearGradient><linearGradient x1="67.479%" y1="118.709%" x2="-2.581%" y2="27.009%" id="c"><stop stop-color="#D11E8E" offset="0%"/><stop stop-color="#613AB5" offset="80.192%"/><stop stop-color="#613AB5" offset="100%"/></linearGradient><linearGradient x1="102.438%" y1="73.093%" x2="32.377%" y2="-18.613%" id="d"><stop stop-color="#D11E8E" offset="0%"/><stop stop-color="#613AB5" offset="80.192%"/><stop stop-color="#613AB5" offset="100%"/></linearGradient></defs><path d="M256 56.391L214.943.813H97.41L61.182 112.775l41.057 55.579L137.66 56.391H256zM153.761 66.863l40.252 55.578-34.616 111.963H41.057L0 178.826h118.34L153.76 66.863z" fill="#D11E8E"/><path fill="#D11E8E" d="M158.866 235.204l-58.858-.175 17.707-56.218z"/><path fill="#9F20A8" d="M99.997 235.012l-58.858-.176 17.707-56.217zM135.417 122.595l58.858.176-17.707 56.217z"/><path fill="#613AB5" d="M0 178.465l58.857.175-17.706 56.217zM194.275 122.765l-58.858-.175 17.707-56.218z"/><path fill="#D11E8E" d="M117.713 178.811l58.857.176-17.706 56.217z"/><path fill="url(#a)" d="M99.997 235.03l17.704-56.215-58.857-.175z"/><path fill="url(#b)" d="M117.713 178.815l58.857.173-41.153-56.393z"/><path fill="#613AB5" d="M97.13 0l58.858.175-17.707 56.218z"/><path fill="#9F20A8" d="M156 .2l58.857.174-17.706 56.218zM120.579 112.615l-58.857-.175 17.706-56.217z"/><path fill="#D11E8E" d="M255.996 56.746l-58.857-.175L214.846.353zM61.722 112.44l58.857.174-17.707 56.218z"/><path fill="#613AB5" d="M138.283 56.393l-58.857-.175L97.132 0z"/><path fill="url(#c)" d="M138.295 56.393l58.858.173L156 .174z"/><path fill="url(#d)" d="M120.574 112.615l17.707-56.217-58.855-.175z"/></svg>