<svg width="256px" height="236px" viewBox="0 0 256 236" xmlns="http://www.w3.org/2000/svg" preserveAspectRatio="xMidYMid"><title>stepsize</title><defs><linearGradient x1="32.5211793%" y1="-18.7047263%" x2="102.580638%" y2="72.9922366%" id="a"><stop stop-color="#613ab5"/><stop stop-color="#613ab5" offset=".198075"/><stop stop-color="#d11e8e" offset="1"/></linearGradient><linearGradient x1="-2.43757963%" y1="26.9081723%" x2="67.6207613%" y2="118.609414%" id="b"><stop stop-color="#613ab5"/><stop stop-color="#613ab5" offset=".198075"/><stop stop-color="#d11e8e" offset="1"/></linearGradient><linearGradient x1="67.4788207%" y1="118.709138%" x2="-2.58063795%" y2="27.0087523%" id="c"><stop stop-color="#d11e8e"/><stop stop-color="#613ab5" offset=".801925"/><stop stop-color="#613ab5" offset="1"/></linearGradient><linearGradient x1="102.437661%" y1="73.0925715%" x2="32.3769713%" y2="-18.6126792%" id="d"><stop stop-color="#d11e8e"/><stop stop-color="#613ab5" offset=".801925"/><stop stop-color="#613ab5" offset="1"/></linearGradient></defs><g style="fill:#d11e8e"><path d="M256 56.3912664 214.943128.812664791H97.40867L61.1821338 112.775231l41.0568722 55.578799 35.421371-111.9627636H256zM153.761059 66.8630252l40.251707 55.5781408-34.616204 111.962764H41.0562805L0 178.825789h118.339689l35.42137-111.9627638z"/><path d="M158.865705 235.204491l-58.85735-.175637 17.70641-56.217537z"/></g><g style="fill:#9f20a8"><path d="M99.9965146 235.011751l-58.8573494-.175637 17.7064094-56.217537z"/><path d="M135.417227 122.595095l58.85735.175637-17.70641 56.217537z"/></g><g style="fill:#613ab5"><path d="M-3.6142426200000004e-15 178.464648l58.8574152.174979-17.7064094 56.217537z"/><path d="M194.274577 122.765469l-58.85735-.174979 17.70641-56.2181949z"/></g><path fill="#d11e8e" d="M117.712791 178.811317l58.85735.175636-17.70641 56.217538z"/><path fill="url(#a)" d="M99.9965146 235.030828l17.7044364-56.215564-58.8573499-.174979z"/><path fill="url(#b)" d="M117.712791 178.815264l58.85735.173005-41.152914-56.393174z"/><path fill="#613ab5" d="M97.1304142 6.57815113e-5 155.987764.175307728 138.281354 56.3932398z"/><g style="fill:#9f20a8"><path d="M155.999604.199186416l58.85735.175241947L197.150544 56.5919z"/><path d="M120.578892 112.615382l-58.8573498-.174979 17.7064094-56.2175373z"/></g><g style="fill:#d11e8e"><path d="M255.996053 56.7464865l-58.857349-.1756366L214.845771.353378279z"/><path d="M61.7215422 112.439087l58.8573498.174979-17.70641 56.217538z"/></g><path fill="#613ab5" d="M138.283328 56.3932398l-58.8573498-.1756366L97.1323876 1e-14z"/><path fill="url(#c)" d="M138.295168 56.3932398l58.85735.1730054L155.999604.173531627z"/><path fill="url(#d)" d="M120.574287 112.615382l17.707067-56.2175375-58.8553758-.1749788z"/></svg>