<svg width="256px" height="252px" viewBox="0 0 256 252" xmlns="http://www.w3.org/2000/svg" preserveAspectRatio="xMidYMid"><title>stigg</title><defs><radialGradient cx="-100.1136%" cy="-37.2%" fx="-100.1136%" fy="-37.2%" r="279.1152%" gradientTransform="matrix(1 0 0 .667824 0 -.123569472)" id="c"><stop stop-color="#ffbe6e" offset="0%"/><stop stop-color="#fa9b68" offset="31.3%"/><stop stop-color="#f0465a" offset="100%"/></radialGradient><radialGradient cx="98.1828%" cy="107.6%" fx="98.1828%" fy="107.6%" r="331.87906%" gradientTransform="matrix(.645755 0 0 1 .34780765986000006 0)" id="d"><stop stop-color="#ffbe6e" offset="0%"/><stop stop-color="#fbab69" offset="28.2%"/><stop stop-color="#f27b5d" offset="84.8%"/><stop stop-color="#f06e5a" offset="100%"/></radialGradient><linearGradient x1="-4.9%" y1="-41.5%" x2="77.9%" y2="102%" id="a"><stop stop-color="#003ee2" offset="0%"/><stop stop-color="#1458e6" offset="10.8%"/><stop stop-color="#2c77ec" offset="25.9%"/><stop stop-color="#3f8ef0" offset="41.8%"/><stop stop-color="#4c9ff3" offset="58.7%"/><stop stop-color="#54a9f5" offset="77.1%"/><stop stop-color="#57adf6" offset="100%"/></linearGradient><linearGradient x1="125.2%" y1="50%" x2="-45.7%" y2="50%" id="b"><stop stop-color="#003ee2" offset="0%"/><stop stop-color="#1e64e8" offset="26.8%"/><stop stop-color="#3c8bf0" offset="58.8%"/><stop stop-color="#4fa4f4" offset="84.4%"/><stop stop-color="#57adf6" offset="100%"/></linearGradient></defs><path d="M213.917245 16.5112263c-16.749491 18.2564267-28.49878 31.6797628-35.247868 40.2700085-6.483593 8.2523232-14.583325 20.0928403-24.299197 35.5215514l14.625986 70.2975348c5.727892.709026 27.78879 5.596516 34.043811 5.897203 42.600967 2.063971 50.590159-12.991177 51.859724-13.555428.241292-1.369794 4.952047-27.366184-7.168217-68.2150028-7.400003-25.0799321-18.819756-48.7932504-33.814239-70.2158669z" fill="url(#c)"/><path d="M154.355332 92.3027862l59.547064-75.7915599C189.540266 7.01249638 163.798508 1.52891152 137.680223.274155074 95.1238025-1.83436263 70.9797899 8.89383485 69.7102247 9.45437389c-.248716 1.36608191-7.7118226 28.13933231 4.3750324 69.04383341 1.7246596 5.7628372 6.3850216 10.6047814 8.5099411 16.232344l71.7601338-2.4277651z" fill="url(#d)"/><path d="M69.7436343 9.45808607 1.12029216 96.1189062C.867863982 97.481276-3.86145214 123.39971 8.22540288 164.304211c5.33781142 17.882379 12.63049672 35.121898 21.74594492 51.406256l65.7649643-91.876432C87.9326575 109.097671 81.605993 93.6254449 76.848745 77.6433911 64.76189 36.73889 69.4912061 10.824168 69.7436343 9.45808607z" fill="url(#a)"/><path d="M254.895989 154.94952c-1.265853.564251-25.328197 11.296161-67.932877 9.232189-16.66199-.839607-33.19995-3.326518-49.371981-7.424358l-73.6867544 85.613986c17.9799669 5.004085 36.4571164 8.009329 55.0961614 8.9612 42.600967 2.063972 66.663312-8.664226 67.932877-9.228477l67.962574-87.15454z" fill="url(#b)"/></svg>