<svg width="256" height="252" xmlns="http://www.w3.org/2000/svg" preserveAspectRatio="xMidYMid"><defs><radialGradient cx="-100.114%" cy="-37.2%" fx="-100.114%" fy="-37.2%" r="279.115%" gradientTransform="matrix(1 0 0 .66782 0 -.124)" id="a"><stop stop-color="#FFBE6E" offset="0%"/><stop stop-color="#FA9B68" offset="31.3%"/><stop stop-color="#F0465A" offset="100%"/></radialGradient><radialGradient cx="98.183%" cy="107.6%" fx="98.183%" fy="107.6%" r="331.879%" gradientTransform="matrix(.64575 0 0 1 .348 0)" id="b"><stop stop-color="#FFBE6E" offset="0%"/><stop stop-color="#FBAB69" offset="28.2%"/><stop stop-color="#F27B5D" offset="84.8%"/><stop stop-color="#F06E5A" offset="100%"/></radialGradient><linearGradient x1="-4.9%" y1="-41.5%" x2="77.9%" y2="102%" id="c"><stop stop-color="#003EE2" offset="0%"/><stop stop-color="#1458E6" offset="10.8%"/><stop stop-color="#2C77EC" offset="25.9%"/><stop stop-color="#3F8EF0" offset="41.8%"/><stop stop-color="#4C9FF3" offset="58.7%"/><stop stop-color="#54A9F5" offset="77.1%"/><stop stop-color="#57ADF6" offset="100%"/></linearGradient><linearGradient x1="125.2%" y1="50%" x2="-45.7%" y2="50%" id="d"><stop stop-color="#003EE2" offset="0%"/><stop stop-color="#1E64E8" offset="26.8%"/><stop stop-color="#3C8BF0" offset="58.8%"/><stop stop-color="#4FA4F4" offset="84.4%"/><stop stop-color="#57ADF6" offset="100%"/></linearGradient></defs><path d="M213.917 16.511c-16.75 18.257-28.499 31.68-35.248 40.27-6.483 8.253-14.583 20.093-24.299 35.522l14.626 70.297c5.728.71 27.789 5.597 34.044 5.898 42.6 2.063 50.59-12.992 51.86-13.556.241-1.37 4.952-27.366-7.169-68.215a241.763 241.763 0 00-33.814-70.216z" fill="url(#a)"/><path d="M154.355 92.303l59.547-75.792A241.763 241.763 0 00137.68.274c-42.556-2.108-66.7 8.62-67.97 9.18-.248 1.366-7.712 28.14 4.375 69.044 1.725 5.763 6.385 10.605 8.51 16.233l71.76-2.428z" fill="url(#b)"/><path d="M69.744 9.458L1.12 96.118C.868 97.482-3.86 123.4 8.225 164.305a253.954 253.954 0 0021.746 51.406l65.765-91.876a252.833 252.833 0 01-18.887-46.19c-12.087-40.905-7.358-66.82-7.105-68.186z" fill="url(#c)"/><path d="M254.896 154.95c-1.266.564-25.328 11.296-67.933 9.232a252.8 252.8 0 01-49.372-7.425l-73.687 85.614a253.757 253.757 0 0055.097 8.962c42.6 2.064 66.663-8.665 67.932-9.229l67.963-87.154z" fill="url(#d)"/></svg>