<svg width="256px" height="256px" viewBox="0 0 256 256" xmlns="http://www.w3.org/2000/svg" preserveAspectRatio="xMidYMid"><title>Stimulus</title><path d="M256 143.189333v45.184h-52.693333c-4.419277-.175907-8.749989-1.257299-12.725635-3.171272l-1.311699-.668728-12.8-7.424c-3.747291-1.934474-8.152389-2.063439-11.987388-.386894l-.812612.386894-16.384 9.6c-1.448168.721765-2.363451 2.200602-2.363451 3.818667 0 1.43828.723186 2.766553 1.90099 3.550886l.462461.267781 34.474667 20.224c3.879364 2.098793 8.145035 3.372684 12.529242 3.748201l1.465425.091799H256v30.122666c-.044055 3.904034-3.04558 7.091675-6.865474 7.435975L248.490667 256H7.50933333c-3.85803326-.020259-7.042588408-2.935065-7.4648851627-6.703109L0 248.661333v-30.122666h60.0746667c4.4072422-.174971 8.7257006-1.256481 12.6876049-3.171055l1.3070617-.668945 115.1999997-67.669334c3.900372-2.080745 8.175551-3.351625 12.56887-3.742425l1.468464-.097575H256zm0-75.4346663v45.1840003h-60.074667c-4.40434.193567-8.718824 1.275926-12.685629 3.17633l-1.309037.66367-115.2000003 67.712c-3.9003715 2.080745-8.1755508 3.351625-12.5688701 3.742425l-1.4684633.097575H0v-45.184h60.0746667c4.4043403-.193568 8.7188244-1.275926 12.6856291-3.176331l1.3090375-.663669L189.269333 71.5946667c3.900372-2.0807457 8.175551-3.3516251 12.56887-3.7424252l1.468464-.0975748H256zM248.490667-1e-14c3.882138 1.52020028e-23 7.085635 2.94751644000001 7.471481 6.74152155000001L256 7.38133333V37.504h-60.074667c-4.407242.1749709-8.7257 1.2564804-12.687605 3.171055l-1.307061.668945-115.2000003 67.669333c-3.8934515 2.098092-8.1715811 3.371702-12.5678868 3.747928l-1.4694466.092072H0V67.6693333h52.6933333c4.416404.1943601 8.7431865 1.276601 12.7236799 3.1765095l1.3136535.6634905 12.8 7.4666667c3.7472912 1.9344739 8.1523892 2.0634389 11.987388.3868948l.812612-.3868948 16.3840003-9.6426667c1.424922-.7300094 2.321235-2.1962968 2.321235-3.7973333 0-1.4231436-.708198-2.7398187-1.866344-3.5275524L74.24 41.472c-3.8863595-2.0813196-8.1490456-3.3524532-12.5302349-3.7426564L60.2453333 37.632H0V7.50933333C0 3.56940757 3.03424385.338167423 6.89345124.0248932234L7.50933333-1.4214e-14l240.98133367 3.4694621539564e-18z" fill="#77e8b9"/></svg>