<svg width="256px" height="256px" viewBox="0 0 256 256" xmlns="http://www.w3.org/2000/svg" preserveAspectRatio="xMidYMid"><path d="M81.4837093 119.338346v-17.964912H256V0H0v137.303258h182.215539v17.964912H0V256h256V118.696742H81.4837093v.641604zm48.7619047-93.0325816c7.057644 0 12.83208 5.7744361 12.83208 12.8320802 0 7.0576441-5.774436 12.8320802-12.83208 12.8320802-7.057644 0-12.83208-5.7744361-12.83208-12.8320802.641604-7.0576441 6.41604-12.8320802 12.83208-12.8320802zM75.7092732 65.443609H189.273183l-5.132832 17.9649123H80.8421053L75.7092732 65.443609zm54.5363408 164.250627c-7.057644 0-12.83208-5.774437-12.83208-12.832081 0-7.057644 5.774436-12.83208 12.83208-12.83208 7.057644 0 12.83208 5.774436 12.83208 12.83208 0 7.057644-5.774436 12.832081-12.83208 12.832081zm-54.5363408-39.137845 4.4912281-17.964912H184.140351l5.132832 17.964912H75.7092732z" fill="#ffc600"/></svg>