<svg width="256px" height="302px" viewBox="0 0 256 302" xmlns="http://www.w3.org/2000/svg" preserveAspectRatio="xMidYMid"><title>storyblok</title><path d="M244.494792-1.4210854700000001e-14 244.220859.292195748c7.149404 0 11.5242 5.540597892 11.768352 12.319305852L256 13.2127265V243.764303c0 7.118951-4.155673 11.473177-10.851791 11.730533l-.635154.012084H89.5579969l-42.4231702 45.819945v-46.112141H12.9661863c-6.86847999 0-12.618714118-4.146112-12.9510215923-10.843696L0 243.755172V12.9205307C0 6.06712005 5.56691661.32709268 12.6478332.0134903958L13.2583821-1.4211e-14l231.2364099 1.52020028e-23zM165.565416 46.9887288H47.1348267V211.458411H151.430447c7.953203 0 15.61421-1.47011 22.681695-3.232416 6.604841-1.36358 12.430169-4.278233 17.728398-7.519008l1.127358-.698997c4.937325-2.948415 9.080611-7.047572 12.080278-11.940581l.584582-.989081h-.301327c2.94022-5.277786 4.419461-11.450421 4.419461-18.791839 0-11.450421-2.657155-20.563276-7.962334-27.612498-5.588244-6.747896-12.957056-11.450421-22.380369-14.089314 7.481025-3.188264 13.694497-8.765939 17.668712-15.860751 3.835069-7.049222 5.898702-14.3906402 5.898702-22.0242541.129412-10.381172-3.418984-20.4732366-10.016836-28.4890855-3.241546-3.8259381-7.368811-7.0492224-11.779141-9.4050507-4.406068-2.4629666-9.058717-3.6532585-14.447927-3.8010175l-1.166283-.0157894zm-16.929091 91.9229562c3.405906 0 5.962619 1.661863 8.236267 4.446854 2.104765 2.90247 3.20156 6.414138 3.122842 9.998573 0 4.16379-1.424454 7.496647-3.688971 9.72464-2.37409 2.060371-5.236323 3.404276-8.36006 3.58575l-.725401.021041H89.6036524v-27.776858h59.0326726zm-4.82123-55.5628478c2.709751.0260582 5.323042 1.0092767 7.377943 2.7758596 1.990583 1.944928 3.122842 5.0038522 3.122842 9.1676416 0 4.4585216-1.009947 7.9315306-3.275992 9.7036486l-.41298.294925c-2.098752 1.542456-4.679886 2.843721-7.290945 3.034789l-.653127.024135H89.5945213V83.3488372h54.2205737z" fill="#0ab3af"/></svg>