<svg width="256" height="256" xmlns="http://www.w3.org/2000/svg" preserveAspectRatio="xMidYMid"><circle fill="#FFE121" cx="128" cy="128" r="128"/><path d="M122.4 60.8v86.4c-24 0-43.2-19.2-43.2-43.2 0-24 19.2-43.2 43.2-43.2zm11.2 134.4v-86.4c24 0 43.2 19.2 43.2 43.2 0 23.613-18.586 42.58-42.043 43.185l-1.157.015zM154 60.8c11.2 0 20.4 9.2 20.4 20.4s-9.2 20.4-20.4 20.4-20.4-9.2-20.4-20.4 9.2-20.4 20.4-20.4zm-52 93.6c11.2 0 20.4 9.2 20.4 20.4s-9.2 20.4-20.4 20.4-20.4-9.2-20.4-20.4 9.2-20.4 20.4-20.4z"/></svg>