<svg width="256px" height="319px" viewBox="0 0 256 319" xmlns="http://www.w3.org/2000/svg" preserveAspectRatio="xMidYMid"><defs><path d="M9.87245893 293.324145.0114611411 30.5732167C-.314208957 21.8955842 6.33948896 14.5413918 15.0063196 13.9997149L238.494389.0317105427C247.316188-.519651867 254.914637 6.18486163 255.466 15.0066607c.020773.3323713.031167.6653101.031167.99833V302.318596c0 8.839012-7.165435 16.004447-16.004448 16.004447-.239453 0-.478875-.005374-.718087-.016117l-213.6270715-9.594673c-8.3199296-.373675-14.9627611-7.06565-15.27510157-15.388108h0z" id="a"/></defs><mask id="b" fill="#fff"><use href="#a"/></mask><use fill="#ff4785" fill-rule="nonzero" href="#a"/><path d="M188.665358 39.126973l1.526545-36.71548766L220.883535 0l1.32222 37.8634126c.046016 1.317734-.984915 2.423272-2.302649 2.4692883-.564237.0197036-1.117199-.1611913-1.560697-.5105633l-11.83568-9.323726-14.013155 10.6298328c-1.050497.7968662-2.548081.5912577-3.344947-.4592396-.335442-.4422072-.506327-.9874722-.483269-1.5420318zm-39.251655 80.853336c0 6.226666 41.941975 3.242387 47.572316-1.131416 0-42.4021104-22.751978-64.6837519-64.414689-64.6837519-41.6627118 0-65.0056495 22.6283131-65.0056495 56.5707999 0 59.116499 79.7796605 60.247915 79.7796605 92.493278 0 9.05133-4.432203 14.425558-14.18305 14.425558-12.70565 0-17.728814-6.488863-17.137853-28.551479 0-4.786197-48.4587575-6.278336-49.9361587 0-3.7620647 53.465572 29.5480226 68.887096 67.6649717 68.887096 36.935028 0 65.89209-19.687271 65.89209-55.326883 0-63.359309-80.961582-61.662185-80.961582-93.058985 0-12.7284338 9.455368-14.425558 15.069492-14.425558 5.909604 0 16.546892 1.0415999 15.660452 24.801341z" fill="#fff" mask="url(#b)"/></svg>