<svg width="256px" height="256px" viewBox="0 0 256 256" xmlns="http://www.w3.org/2000/svg" preserveAspectRatio="xMidYMid"><title>Storyblocks</title><circle fill="#ffe121" cx="128" cy="128" r="128"/><path d="M122.4 60.8v86.4c-24 0-43.2-19.2-43.2-43.2 0-24 19.2-43.2 43.2-43.2zm11.2 134.4v-86.4c24 0 43.2 19.2 43.2 43.2 0 23.612903-18.58564 42.579396-42.042516 43.185076L133.6 195.2zM154 60.8c11.2 0 20.4 9.2 20.4 20.4 0 11.2-9.2 20.4-20.4 20.4-11.2 0-20.4-9.2-20.4-20.4 0-11.2 9.2-20.4 20.4-20.4zm-52 93.6c11.2 0 20.4 9.2 20.4 20.4 0 11.2-9.2 20.4-20.4 20.4-11.2 0-20.4-9.2-20.4-20.4 0-11.2 9.2-20.4 20.4-20.4z"/></svg>