<svg width="256px" height="256px" viewBox="0 0 256 256" xmlns="http://www.w3.org/2000/svg" preserveAspectRatio="xMidYMid"><title>strapi</title><path d="M0 88.7466264C0 46.911034 0 25.9932981 12.9965887 12.9965887 25.9932981 0 46.911034 0 88.7466264 0h78.5071096c41.835472 0 62.752604 0 75.749434 12.9965887C256 25.9932981 256 46.911034 256 88.7466264v78.5071096c0 41.835472 0 62.752604-12.99683 75.749434C230.00634 256 209.089208 256 167.253736 256H88.7466264c-41.8355924 0-62.7533283 0-75.7500377-12.99683C0 230.00634 0 209.089208 0 167.253736V88.7466264z" fill="#4945ff"/><g style="fill:#fff"><path d="M176.64 77.6532528H90.4527698V121.6H134.4v43.946264h43.946264V79.36c0-.9426113-.764377-1.7067472-1.706264-1.7067472z"/><path d="M132.692528 121.6h1.70666264v1.70666264H132.692528z"/></g><g style="fill:#9593ff"><path d="M90.4527698 121.6h42.2397582c.943095 0 1.707472.764377 1.707472 1.706264v42.24H92.159517c-.9426113 0-1.7067472-.76317-1.7067472-1.706264V121.6z"/><path d="M134.4 165.546264h43.946264l-42.489962 42.489962c-.537359.537359-1.456302.156982-1.456302-.602566v-41.887396z"/><path d="M90.4526491 121.6h-41.886551c-.7601509 0-1.1408906-.919185-.6034113-1.456785l42.4899623-42.4899622V121.6z"/></g></svg>