<svg width="256px" height="140px" viewBox="0 0 256 140" xmlns="http://www.w3.org/2000/svg" preserveAspectRatio="xMidYMid"><title>Streamlit</title><path d="M123.888449 2.18175866c1.919999-2.909011546 6.257489-2.909011546 8.249168 0h0L172.891085 62.932228l43.321147 64.518787c-.511547.910233-1.101744 1.773969-1.763839 2.581332-.452266.538453-.880639 1.047892-1.414826 1.570985h0L213.023 131.598l.009714.005332c-.11712.112-.22944.19952-.36936.30612l-.15032.114573c-.49039.366177-.995408.712345-1.513812 1.037653-.41984.262827-.767146.494933-1.268906.736426-.500906.241494-1.302186.531627-1.784319.697173-.482986.1664-.644266.22272-1.000106.301227-.177493.03584-.35584.070826-.533333.09216-.121173.021333-.241493.042666-.362666.057173-.021334.006827-.049494.006827-.070827.014507h0l-.541013.064c-.56832.05632-1.158826.085333-1.762985.085333-50.271355 5.480952-100.989566 5.480952-151.2609208 0-.0571733 0-.1134933 0-.1706666-.00768h0l-.1706665-8.53e-4h0l-.0785066-.005974h-.0776533c-.0571733-.006826-.1143466-.006826-.1706666-.014506h0-.0571733c-.0785066-.006827-.1501866-.006827-.2269865-.013654-.4693331-.03584-1.0163194-.154453-1.4079991-.241493-.3925331-.078507-.6263463-.142506-.9531728-.214186-3.8690109-.917333-7.4239954-3.249492-9.0530078-7.025489-.0426666-.09984-.0785066-.198827-.1211732-.298667h0l-.0068267-.021333L.225164964 26.0247307C-.841501046 23.1805724 2.07433716 20.3355608 4.91849541 21.68724c.07167996 0 .2133332 0 .28501316.0708266h0l77.90245873 41.173308zM250.894237 21.75892c2.851839-1.5641591 5.90933 1.1374926 4.913491 4.1241574h0v.1425066l-39.594643 101.426284-43.321146-64.51964 77.931472-41.173308z" fill="#ff4b4b"/><path d="M250.894237 21.75892h-.070826l-77.931472 41.173308 43.321146 64.51964 39.594643-101.426284v-.1425066c.995839-2.9866648-2.061652-5.6883165-4.913491-4.1241574" fill="#7d353b"/><path d="M132.137617 2.18175866c-1.991679-2.909011546-6.329169-2.909011546-8.249168 0L83.1059673 62.932228 127.984446 86.65488l85.049121 44.948452c.534187-.523093.96256-1.032532 1.414826-1.570985.662095-.807363 1.252292-1.671099 1.763839-2.581332l-43.321147-64.518787-40.753468-60.75046934z" fill="#bd4043"/></svg>