<svg width="512px" height="214px" viewBox="0 0 512 214" xmlns="http://www.w3.org/2000/svg" preserveAspectRatio="xMidYMid"><title>Stripe</title><path d="M512 110.08c0-36.4088889-17.635556-65.1377778-51.342222-65.1377778-33.848889 0-54.328889 28.7288889-54.328889 64.8533338 0 42.808888 24.177778 64.426666 58.88 64.426666 16.924444 0 29.724444-3.84 39.395555-9.244444v-28.444445c-9.671111 4.835556-20.764444 7.822223-34.844444 7.822223-13.795556 0-26.026667-4.835556-27.591111-21.617778h69.546667c0-1.848889.284444-9.244445.284444-12.657778h0zm-70.257778-13.5111111c0-16.0711111 9.813334-22.7555556 18.773334-22.7555556 8.675555 0 17.92 6.6844445 17.92 22.7555556h-36.693334zm-90.311111-51.6266667c-13.937778 0-22.897778 6.5422222-27.875555 11.0933334l-1.848889-8.8177778h-31.288889V213.048889l35.555555-7.537778.142223-40.248889c5.12 3.697778 12.657777 8.96 25.173333 8.96 25.457778 0 48.64-20.48 48.64-65.564444-.142222-41.2444447-23.608889-63.7155558-48.497778-63.7155558h0zm-8.533333 97.9911108c-8.391111 0-13.368889-2.986666-16.782222-6.684444l-.142223-52.7644446c3.697778-4.1244444 8.817778-6.9688888 16.924445-6.9688888C355.84 76.5155556 364.8 91.0222222 364.8 109.653333c0 19.057778-8.817778 33.28-21.902222 33.28h0zM241.493333 36.5511111l35.697778-7.68V1.42108547e-14L241.493333 7.53777778V36.5511111zm0 10.8088889h35.697778v124.444444h-35.697778V47.36zm-38.257777 10.5244444L200.96 47.36h-30.72v124.444444h35.555556V87.4666667c8.391111-10.9511111 22.613333-8.96 27.022222-7.3955556V47.36c-4.551111-1.7066667-21.191111-4.8355556-29.582222 10.5244444zm-71.111112-41.3866666-34.7022218 7.3955555L97.28 137.813333c0 21.048889 15.786667 36.551111 36.835556 36.551111 11.662222 0 20.195555-2.133333 24.888888-4.693333V140.8c-4.551111 1.848889-27.022222 8.391111-27.022222-12.657778V77.6533333h27.022222V47.36h-27.022222l.142222-30.8622222zM35.9822222 83.4844444c0-5.5466666 4.5511111-7.68 12.0888889-7.68 10.8088889 0 24.4622222 3.2711112 35.2711111 9.1022223V51.4844444c-11.8044444-4.6933333-23.4666666-6.5422222-35.2711111-6.5422222C19.2 44.9422222 0 60.0177778 0 85.1911111c0 39.2533329 54.0444444 32.9955559 54.0444444 49.9199999 0 6.542222-5.6888888 8.675556-13.6533333 8.675556-11.8044444 0-26.88-4.835556-38.82666666-11.377778v33.848889C14.7911111 171.946667 28.16 174.364444 40.3911111 174.364444c29.5822222 0 49.92-14.648888 49.92-40.106666-.1422222-42.3822224-54.3288889-34.8444447-54.3288889-50.7733336z" fill="#635bff"/></svg>