<svg width="256px" height="256px" viewBox="0 0 256 256" xmlns="http://www.w3.org/2000/svg" preserveAspectRatio="xMidYMid"><path d="M20.64 58.4320102 121.856 113.66401l3.072-58.3679998L93.632 4.80001024C63.236649 13.2694016 37.41184 32.5974426 20.64 58.4320102zM165.504 5.60001024 132.096 55.2960102l1.024 62.4639998 103.36-57.4719998c-16.169298-25.8533888-41.219604-45.5755776-70.976-54.68799996z" fill="#006eaf"/><path d="M60.032 236.32001l62.848-102.176L20.608 58.4640102C7.61534464 78.4923136 0 102.348483 0 128.00001c0 45.690307 24.0119501 85.67123 60.032 108.32zM236.48 60.2880102 133.12 134.14401l63.904 101.504C232.454922 212.883548 256 173.242132 256 128.00001c0-24.885678-7.200625-48.0598218-19.488-67.7119998-.003072-.00512-.029082.00512-.031949 0H236.48z" fill="#00a7e1"/><path d="M129.024 255.93601l-6.144-100.288-62.816 80.672c19.7056102 12.384676 42.943642 19.68 67.936 19.68.345887 0 .678769-.061235 1.024-.064zm68-20.288-64.928-82.048-3.072 102.336c25.057556-.198779 48.339702-7.656212 68-20.288z" fill="#5bc9ec"/><path d="M165.504 5.60001024l-36.48 43.55199996-35.36-44.38399996c-.0124928.003072-.019456.0285696-.0319488.0319488L124.928 55.2960102l-3.072 58.3679998L20.64 58.4320102c-.008192.012288-.024064.0197632-.0319488.0319488L122.88 134.14401l-62.848 102.176c.008192.00512.0242688-.00512.0319488 0L122.88 155.64801l6.144 100.288 3.072-102.336 64.928 82.048-63.904-101.504 103.36-73.8559998L133.12 117.76001l-1.024-62.4639998 33.408-49.69599996h0z" fill="#fff"/><path d="M128 1.02400001e-5c-11.915776 0-23.39115 1.7219276799999-34.336 4.7679999999999l35.36 44.38399996 36.48-43.55199996C153.634857 1.96527104 141.059697 1.02400001e-5 128 1.02400001e-5h0z" fill="#013a78"/></svg>