<svg width="256px" height="290px" viewBox="0 0 256 290" xmlns="http://www.w3.org/2000/svg" preserveAspectRatio="xMidYMid"><path d="M241.026415 73.9018868 130.415094 9.66037736 9.66037736 77.2830189V212.528302L130.415094 280.150943l115.924529-67.622641V77.2830189v-5.7962264l-5.313208 2.4150943z" fill="#202a5a"/><path d="M9.66037736 77.2830189 130.415094 144.90566l115.924529-67.6226411L130.415094 9.66037736 9.66037736 77.2830189z" fill="#2c448a"/><path d="M246.339623 71.4867925l-38.64151 20.2867924-.483019 8.6943401-76.8 44.437735v135.245283l115.924529-67.622641V71.4867925z" fill="#283a79"/><path d="M9.66037736 77.2830189V212.528302L130.415094 280.150943V144.90566L9.66037736 77.2830189z" fill="#202a5a"/><g style="fill:#3558a7"><path d="M0 212.528302v-43.471698l130.415094 77.283019v43.471698L0 212.528302z"/><path d="M0 77.2830189v24.1509431l130.415094 77.283019v-24.150943L0 77.2830189z"/></g><path d="M256 212.528302v-24.150944l-105.781132-45.886792-19.803774 12.075472v23.667924l64.24151 28.498113-64.24151 39.607548v43.471698L256 212.528302z" fill="#416fb5"/><g style="fill:#477fc1"><path d="M194.656604 206.732075l-7.728302-2.898113-56.513208 32.845283L9.66037736 169.056604v-5.796227L0 169.056604l130.415094 77.283019 64.24151-39.607548z"/><path d="M56.9962264 86.9433962l73.4188676-43.4716981 77.283019 48.3018868 38.64151-20.2867924L130.415094 0 0 77.2830189l130.415094 77.2830191 19.803774-12.075472-93.2226416-55.5471698z"/></g><path d="M207.215094 100.467925l.483019-8.6943401-77.283019-48.3018868-73.4188676 43.4716981 8.2113208 4.8301887 65.2075468-38.6415094 76.8 47.3358495z" fill="#202a5a"/></svg>