<svg width="256px" height="245px" viewBox="0 0 256 245" xmlns="http://www.w3.org/2000/svg" preserveAspectRatio="xMidYMid"><path d="M129.7408 243.648c28-100.1088 27.1872-100.5632 47.424-171.9424l4.864 2.816c2.6496 1.5168 4.8128.2688 4.8128-2.7776V37.696c5.376-18.8032 9.5744-33.344 10.816-37.696h21.92L256 33.728 232.0768 54.4l18.0928 19.5648L130.944 243.648c-.576.96-1.3888.7424-1.2032 0h0zm13.024-215.7824c1.088 0 1.9584.5952 1.9584 1.344v17.44c0 .7296-.8768 1.3248-1.9584 1.3248h-29.44c-1.088 0-1.9648-.5952-1.9648-1.3312V29.1968c0-.736.8768-1.344 1.9584-1.344h29.44l.0064.0128zm36.352-19.3152L146.72 27.2512c.3712.576.6016 1.2352.6016 1.952V46.656c0 .896-.3584 1.7152-.9344 2.368l32.7232 18.8928c2.2272 1.2928 4.0576.2368 4.0576-2.336v-54.688c0-2.5792-1.8176-3.6288-4.0512-2.3424zM108.7552 46.656V29.1968c0-.7168.2304-1.376.6016-1.9456L76.96 8.5376c-2.2272-1.28-4.0576-.2304-4.0576 2.3424v54.688c0 2.5728 1.8304 3.6288 4.064 2.336l32.7168-18.8928c-.576-.6592-.9216-1.472-.9216-2.368l-.0064.0128zm16.3008 196.992h1.2032C98.2656 143.5392 99.072 143.0848 78.8352 71.7056l-4.864 2.816c-2.6432 1.5168-4.8128.2688-4.8128-2.7776V37.696C63.7824 18.8992 59.584 4.352 58.3424 0H36.4288L0 33.728 23.9168 54.4 5.824 73.9712 125.056 243.648zm2.0544-159.2384c4.884848 0 8.8448-3.9599518 8.8448-8.8448 0-4.8848482-3.959952-8.8448-8.8448-8.8448-4.884848 0-8.8448 3.9599518-8.8448 8.8448 0 4.8848482 3.959952 8.8448 8.8448 8.8448zm0 52.576c4.884848 0 8.8448-3.959952 8.8448-8.8448 0-4.884848-3.959952-8.8448-8.8448-8.8448-4.884848 0-8.8448 3.959952-8.8448 8.8448 0 4.884848 3.959952 8.8448 8.8448 8.8448zm0 52.5888c4.884848 0 8.8448-3.959952 8.8448-8.8448 0-4.884848-3.959952-8.8448-8.8448-8.8448-4.884848 0-8.8448 3.959952-8.8448 8.8448 0 4.884848 3.959952 8.8448 8.8448 8.8448z"/></svg>