<svg width="256px" height="256px" viewBox="0 0 256 256" xmlns="http://www.w3.org/2000/svg" preserveAspectRatio="xMidYMid"><path fill="#e44041" d="M0 0h256v256H0z"/><path d="M153.490604 185.360812c-6.776387 2.509773-18.070366 4.517591-28.109458 4.517591-31.3721618 0-51.4503458-21.082093-51.4503458-61.489438 0-43.67005 23.3408888-62.7443248 51.1993688-62.7443248 12.297888 0 21.584048 2.7607503 28.109458 5.7724778l8.031273-35.8897538C155.7494 32.5156367 142.196625 28.5 122.620396 28.5 72.6759137 28.5 27.5 61.3780262 27.5 130.898738c0 53.709142 29.1133667 96.62626 90.602805 96.62626 19.074274 0 34.132912-3.513682 40.909299-6.52541l-5.5215-35.638776h0zm30.870208 39.654413h44.172004V31.009773h-44.172004v194.005452h0z" fill="#fff"/></svg>