<svg width="512px" height="201px" viewBox="0 0 512 201" xmlns="http://www.w3.org/2000/svg" preserveAspectRatio="xMidYMid"><title>Stylis</title><defs><linearGradient x1="47.1649%" y1="1.3158%" x2="47.1649%" y2="81.5789%" id="a"><stop stop-color="#745dc0"/><stop stop-color="#5497d8" offset="1"/></linearGradient></defs><path d="M374.762887 163.628866h83.13402c5.830466 0 14.657716-7.927291 17.154639-13.195876l16.992594-36.583984c5.91967-13.319653-2.416693-24.1170472-16.992594-24.1170472h-26.391752c-2.915233 0-5.278351-1.7724701-5.278351-3.9587629 0-2.1862928 2.363118-3.9587629 5.278351-3.9587629h44.865979L512 42.2268041h-76.536082L406.43299 100.28866c-5.99911 13.284025-1.380025 23.670235 13.195876 23.670235h23.752577v.082342c2.915233 0 5.278351 1.77247 5.278351 3.958763 0 2.186293-2.363118 3.958763-5.278351 3.958763h-52.783505l-15.835051 31.670103zm-201.896908 7.917526c-8.016758 0-14.515464 6.498705-14.515464 14.515464 0 8.016758 6.498706 14.515464 14.515464 14.515464h67.298969l13.195877-29.030928h-80.494846zm51.463918-129.3195879-37.813839 81.8611469c-1.222466 2.646564-.96805 6.800098.568742 9.277492l15.988652 25.777881c1.536527 2.477394 5.145336 4.485542 8.060569 4.485542h47.505154l58.061856-121.4020619h-31.670103l-39.587629 84.4536079h-29.030928L256 42.2268041h-31.670103zm145.154639 34.3092784-42.226804 87.0927835h31.670103l42.226804-87.0927835h-31.670103zm15.835052-34.3092784-13.195877 26.3917526h21.126598c5.830466 0 12.668569-4.2282227 15.273963-9.4440247l3.748157-7.5037031c2.605394-5.2158021-.008973-9.4440248-5.839175-9.4440248h-21.113666zM0 163.628866h77.8556701c5.830466 0 14.6577155-7.927291 17.1546392-13.195876l16.9925937-36.583984c5.91967-13.319653-2.416693-24.1170472-16.9925937-24.1170472H68.6185567c-2.915233 0-5.2783505-1.7724701-5.2783505-3.9587629 0-2.1862928 2.3631175-3.9587629 5.2783505-3.9587629h44.8659793l18.474227-39.5876289H55.4226804L26.3917526 100.28866c-5.9991093 13.284025-1.3800248 23.670235 13.1958763 23.670235h23.7525773v.082342c2.915233 0 5.2783505 1.77247 5.2783505 3.958763 0 2.186293-2.3631175 3.958763-5.2783505 3.958763H15.8350515L0 163.628866zM353.649485 0l-76.536083 163.628866h34.309278L387.958763 0h-34.309278zM163.628866 0l-40.550928 91.7773196c4.57026 4.3910598 5.663406 14.1011134 2.120841 22.0716864l-24.910119 49.77986h58.061855l10.556701-26.391753c2.607242-5.214746 1.871704-10.556701-3.958762-10.556701h-22.43299l21.113402-44.865979h23.752577c2.915233 0 4.045856-2.6365361 5.278351-5.2783505l15.835051-34.3092784h-29.030927L197.938144 0h-34.309278z" fill="url(#a)" fill-rule="evenodd"/></svg>