<svg width="512px" height="96px" viewBox="0 0 512 96" xmlns="http://www.w3.org/2000/svg" preserveAspectRatio="xMidYMid"><title>Stytch</title><path d="M30.7242402 78.138808c2.4246012.0478814 4.8462158-.1938961 7.2133119-.7220139 1.6138883-.3778365 3.14287-1.0543393 4.5082963-1.994427 1.0724015-.7343398 1.9039264-1.7692421 2.3893776-2.975759.4802364-1.239228.7248583-2.5585744.7215398-3.8878764-.0170667-1.5037609-.4143402-2.9786034-1.1557911-4.2875202-.7409768-1.3084427-1.8012421-2.4087672-3.0822359-3.1966772-2.8251933-1.9531826-7.6828817-4.0756095-14.5731126-6.3677546-3.0054834-1.0595541-6.0111091-2.2765007-9.0166399-3.6513137-2.9338035-1.3188723-5.6598207-3.0582478-8.09238632-5.1624228-2.40871977-2.1174016-4.38380456-4.6820915-5.81583822-7.5514685-1.58937864-3.3682444-2.36178651-7.0635521-2.25407702-10.7863087-.06371547-3.9458555.74856197-7.8567718 2.37814204-11.4510544 1.57183792-3.365163 3.88346745-6.3318672 6.76246812-8.67857817 3.1447188-2.50178039 6.7472503-4.36614533 10.6058289-5.48889821C25.8709607.593144704 30.605153-.0565492507 35.3565541.00945125453 40.7657321-.0887767636 46.1616835.579093167 51.3836025 1.99312626c3.8494764 1.07007384 7.5771159 2.53553916 11.1241334 4.37304784l-5.9619477 16.2863666c-2.7472556-1.3998915-5.6044962-2.5722277-8.5428035-3.5052043-3.6565285-1.0849645-7.4585027-1.5981964-11.271428-1.5215861-4.9516023 0-8.5056836.6838035-10.6621488 2.051221-1.0578949.6582984-1.917959 1.590232-2.4895019 2.6974305-.5713534 1.1071511-.8328049 2.3481806-.756479 3.59177-.0729125 1.5090706.3291966 3.0029235 1.1496281 4.2716388.9034417 1.2562947 2.054018 2.3149007 3.3811866 3.110633 1.591986.9989201 3.2751838 1.8438612 5.026743 2.5245359 1.9010345.7519279 4.0011325 1.5214439 6.3004361 2.3105865 4.7712648 1.7662081 8.9228682 3.5087124 12.4542413 5.2295042 3.2298624 1.5090706 6.1951918 3.5302828 8.7793661 5.984561 2.3262784 2.2670192 4.1163798 5.0242304 5.240882 8.0701523 1.2311687 3.62761 1.8147531 7.4420049 1.7251532 11.2706221 0 8.5660331-3.0056256 15.2082761-9.017351 19.9267292-6.0103031 4.7194011-15.0571889 7.0826572-27.1394722 7.0897683-3.6759655.0246519-7.3488495-.21997-10.9890699-.7324434-2.9278302-.412918-5.8264575-1.0121468-8.6784833-1.7919977-2.21316449-.6020732-4.38224013-1.3549019-6.49200919-2.2546933C2.76134983 90.1764809 1.18349117 89.4317115 0 88.7220236l5.82708799-16.4219042c3.23109498 1.6990792 6.63072311 3.0539811 10.14360731 4.0466909 4.8089536 1.2890057 9.7758211 1.8925012 14.7535449 1.7919977zM151.603677 1.3611105v18.1573306h-27.839489v75.0408488h-20.580476V19.5184411H74.1386538V1.3611105h77.4650232zm96.049651-.0046317c-2.254694 4.50826781-26.486484 48.0245598-32.483513 57.4695251v35.6389454h-20.489454V58.8260039c0 0 .01017-.0203505.030135-.0602901l.088895-.1778252c1.880355-3.7611235 25.456208-50.90176015 29.027005-57.2314098zm-61.527148-.06481532L199.999939 28.397979l-11.270622 20.4118011c-2.708619-4.7252684-7.865593-13.7497559-13.029017-22.9222124l-.794094-1.4117547c-5.157663-9.1767156-10.196549-18.28851547-12.67475-23.18414952h23.894724zm150.171771.06944702v18.1573306h-27.7826v75.0408488h-20.637365V19.5184411h-29.045058V1.3611105h77.465023zm52.871989 94.4601629c-14.44881 0-25.453477-4.1324982-33.012104-12.3979687-7.558627-8.2649965-11.342207-20.0390846-11.349318-35.3227385-.116622-6.9183434 1.056709-13.7984291 3.460262-20.2870724 2.101567-5.6179125 5.33143-10.746202 9.490002-15.0690881 4.046691-4.1164746 8.949084-7.29447335 14.358262-9.30966476 5.76663-2.15306618 11.879333-3.230369647 18.03328-3.178311642 3.438455-.024063968 6.870747.262560837 10.256579.856579602 2.732086.49671994 5.430038 1.15920914 8.08153 1.98366553 1.994427.62426465 3.935284 1.40823991 5.804556 2.34425052 1.544531.78904785 2.648648 1.40885147 3.380617 1.84845978l-5.770422 16.64694687c-3.036914-1.6128453-6.23691-2.8974895-9.545943-3.8320305-4.036735-1.1144993-8.210478-1.6495386-12.397968-1.589189-3.074841.0038874-6.125977.5416289-9.017351 1.589189-2.962011 1.0765734-5.63863 2.8195992-7.82079 5.0943458-2.42536 2.5924233-4.279461 5.6639451-5.444259 9.01664-1.471998 4.3527053-2.166042 8.9314963-2.05179 13.5249835-.038874 3.9713133.395851 7.9321969 1.296591 11.8006363.788858 3.414751 2.27413 6.6299171 4.361949 9.4449652 2.080235 2.7026927 4.788142 4.8573566 7.889057 6.2776806 3.70915 1.6383978 7.736404 2.427256 11.789732 2.310634 2.61736.0184888 5.231401-.1592887 7.821738-.5300141 2.074071-.2981922 4.129654-.7196435 6.153947-1.2619835 1.619909-.4091254 3.205211-.9410358 4.745476-1.5895683 1.367227-.6229325 2.606929-1.1984577 3.719106-1.7242051l5.567518 16.4778448c-3.731906 2.136175-7.746834 3.737121-11.924843 4.7563789-5.836792 1.5009165-11.848518 2.2134489-17.875414 2.1186342zM490.211584 1.4953681H512V94.727586h-21.788416V54.7722019h-35.106561V94.727586h-20.591854V1.4953681h20.591854v35.1083482h35.106561V1.4953681z" fill="#10303e"/></svg>