<svg width="256px" height="332px" viewBox="0 0 256 332" xmlns="http://www.w3.org/2000/svg" preserveAspectRatio="xMidYMid"><defs><linearGradient x1="55.1170996%" y1="58.6795405%" x2="63.6801778%" y2="39.5971572%" id="a"><stop stop-color="#ff9700"/><stop stop-color="#f48e00" offset=".53"/><stop stop-color="#d06f00" offset="1"/></linearGradient></defs><path d="M255.288325 166.794648c0-3.886596-2.872391-6.127771-6.397279-5.014276L6.39727934 238.675387C2.86530029 239.795974 0 243.859878 0 247.73938v78.590081c0 3.886596 2.86530029 6.134863 6.39727934 5.014276L248.891046 254.455814c3.524888-1.120587 6.397279-5.184491 6.397279-9.071085v-78.590081h0z" fill="url(#a)"/><g style="fill:#ff9800"><path d="M5.68434189e-14 164.291056c0 3.886596 2.865300289999943 7.950499 6.397279339999943 9.071088L248.926508 250.26425c3.531979 1.120587 6.397279-1.12768 6.397279-5.007183v-78.597174c0-3.879502-2.8653-7.943406-6.397279-9.063994L6.39727934 80.693793C2.86530029 79.5732052 5.68434189e-14 81.8143808 5.68434189e-14 85.7009761v78.5900799z"/><path d="M255.288325 5.30235244c0-3.88659543-2.872391-6.13486323-6.397279-5.014275497L6.39727934 77.1759986C2.86530029 78.2965864 0 82.36049 0 86.2470854v78.5900796c0 3.886596 2.86530029 6.127771 6.39727934 5.014276L248.891046 92.9564272c3.524888-1.1205878 6.397279-5.1844914 6.397279-9.0639945V5.30235244z"/></g></svg>