<svg width="256px" height="256px" viewBox="0 0 256 256" xmlns="http://www.w3.org/2000/svg" preserveAspectRatio="xMidYMid"><defs><path id="e" d="M8.69849462 14.5892473 26.0404301 0v81.5346237L9.13892473 117.099355.330322581 39.7488172 8.69849462 14.5892473z"/><path id="f" d="M.440430108.495483871H114.456774V102.84043H.440430108z"/><path id="g" d="M129.596559 1.15612903H23.507957L.16516129 15.4701075V117.870108H114.126452v-1.211183l16.516129-35.1243013V.0550537634z"/><path d="M8.09290323.385376344C3.96387097.0550537634 1.43139785 2.8627957.0550537634 5.28516129 1.43139785 9.24903226 3.68860215 12.2769892 7.54236559 12.0567742c3.85376341-.2202151 6.16602151-3.24817205 7.76258061-7.10193549C13.9286022 2.91784946 11.7264516.715698925 8.09290323.385376344h0z" id="h"/><path d="M8.53333333.220215054C18.2227957.440430108 14.5892473 24.8292473 14.3690323 32.7569892c-.2202151 7.927742 1.4313978 15.0296775 1.5965591 20.2047312.1651613 5.1750538 2.8077419 20.7552688-8.86365592 20.6451613-11.67139785-.1101075-4.5144086-30.4447312-4.40430107-36.7208602-.05505376 0-3.85376344-36.9410752634 5.83569892-36.665806446zm32.81204297 0C31.655914.440430108 35.2894624 24.8292473 35.5096774 32.7569892c.2202151 7.927742-1.4313978 15.0296775-1.5965591 20.2047312-.1651613 5.1750538-2.807742 20.7552688 8.8636559 20.6451613 11.6713978-.1101075 4.5144086-30.4447312 4.4043011-36.7208602.0550537 0 3.8537634-36.9410752634-5.835699-36.665806446z" id="i"/><path d="M129.816774 6.93677419c0 0 .660645-7.872688168 6.826667-6.166021502 0 0 10.24 9.744516112 0 20.424946212-10.24 10.6804301-20.535054 14.0387097-33.252473 17.0666667-12.7174196 3.027957-12.2219357 6.276129-24.2236562 7.6524731-12.0017204 1.3763441-14.4791398-4.1290322-14.3690322-8.9737634.1101075-4.8447312 4.4593548-10.9006452 15.3049462-10.6804301 10.8455914.220215 9.6344086 4.2941935 20.6451612 2.4774193 11.010753-1.8167742 22.461936-7.4873118 26.260645-10.4051613 3.79871-2.9178494 7.15699-6.8817204 2.807742-11.39612901h0zM11.7264516 8.97376344c0 0-12.332042998 2.69763436-11.230967729 12.93763436 1.101075269 10.24 9.909677429 12.3320431 20.149677429 14.6993549 10.24 2.3673118 8.3131183 7.1569892 20.5901075 8.3131183C53.5122581 46.08 58.412043 40.5195699 57.2008602 33.2524731c-1.2111828-7.2670968-13.3780645-6.8266666-27.4167742-6.9367742-14.0387097-.1101075-18.0576344-6.4963441-18.0576344-6.4963441V8.97376344h0z" id="l"/></defs><circle fill="#2dcc9f" cx="127.889892" cy="127.889892" r="127.889892"/><path fill="#d0f5f5" d="M68.1015054 91.4993548l23.728172-14.3690322H198.744086l-8.973763 24.7741934-79.057205 7.267097-42.6116126-17.6722582z"/><path fill="#c8eeee" d="M181.982968 91.5461505l16.774881-14.4268387.206452 80.9400432-16.901505 35.564731-8.808602-77.350538z"/><g transform="translate(181.126882 76.524731)"><mask id="a" fill="#fff"><use href="#e"/></mask><path d="M-39.4184946 101.188817c0 0 47.07096772-10.900645 53.8425806-26.5909675 6.7716129-15.6903226-11.89161288 3.7987096-11.89161288 3.7987096L-41.3453763 92.5453763l1.9268817 8.6434407h0zm-41.1251613-1.101075c0 0-6.3862366 1.871828-15.3049463-2.1470968-8.9187098-4.0189248-19.7092468-5.835699-19.7092468-5.835699l-1.59656-5.8356989 5.560431-2.7526882 21.6361285 8.5333334 9.4141936 8.0378495h0z" fill="#9deeee" opacity="0.35" mask="url(#a)"/></g><path fill="azure" d="M68.2116129 91.3341935H182.227957V193.67914H68.2116129z"/><g transform="translate(75.974194 90.83871)"><mask id="b" fill="#fff"><use href="#f"/></mask><path d="M65.7341935 86.8748387c0 0 47.0709675-10.9006452 53.8425805-26.5909677 6.771613-15.6903226-11.891613 3.7987096-11.891613 3.7987096L63.8073118 78.2313978l1.9268817 8.6434409h0zm-41.1251612-1.1010753c0 0-6.3862366 1.871828-15.30494628-2.1470967-8.918709676-4.0189248-19.70924732-5.835699-19.70924732-5.835699l-1.5965591-5.8356989 5.56043008-2.7526882L15.1948387 77.735914l9.4141936 8.0378494h0z" fill="#9deeee" opacity="0.35" mask="url(#b)"/></g><g transform="translate(76.524731 76.524731)"><mask id="c" fill="#fff"><use href="#g"/></mask><g mask="url(#c)" fill="#d0f5f5" opacity="0.35"><g transform="translate(-24.168602 -20.739111)"><ellipse cx="28.627957" cy="56.4877626" rx="1.2111828" ry="1.20070606"/><ellipse cx="28.627957" cy="56.4877626" rx="1.10107527" ry="1.09155097"/><ellipse cx="28.627957" cy="56.4877626" rx="1.10107527" ry="1.09155097"/><ellipse cx="29.8941935" cy="48.1373977" rx="1.2111828" ry="1.20070606"/><ellipse cx="29.8941935" cy="48.1373977" rx="1.10107527" ry="1.09155097"/><ellipse cx="29.8941935" cy="48.1373977" rx="1.10107527" ry="1.09155097"/><ellipse cx="40.96" cy="27.670817" rx="1.2111828" ry="1.20070606"/><ellipse cx="40.96" cy="27.670817" rx="1.10107527" ry="1.09155097"/><ellipse cx="40.96" cy="27.670817" rx="1.10107527" ry="1.09155097"/><ellipse cx="36.2253763" cy="36.5123799" rx="1.2111828" ry="1.20070606"/><ellipse cx="36.2253763" cy="36.5123799" rx="1.10107527" ry="1.09155097"/><ellipse cx="36.2253763" cy="36.5123799" rx="1.10107527" ry="1.09155097"/><ellipse cx="1.26623656" cy="45.5176754" rx="1.2111828" ry="1.20070606"/><ellipse cx="1.26623656" cy="45.5176754" rx="1.10107527" ry="1.09155097"/><ellipse cx="1.26623656" cy="45.5176754" rx="1.10107527" ry="1.09155097"/><ellipse cx="23.728172" cy="13.3169218" rx="1.2111828" ry="1.20070606"/><ellipse cx="23.728172" cy="13.3169218" rx="1.10107527" ry="1.09155097"/><ellipse cx="23.728172" cy="13.3169218" rx="1.10107527" ry="1.09155097"/><ellipse cx="29.3987097" cy="24.6144743" rx="1.2111828" ry="1.20070606"/><ellipse cx="29.3987097" cy="24.6144743" rx="1.10107527" ry="1.09155097"/><ellipse cx="29.3987097" cy="24.6144743" rx="1.10107527" ry="1.09155097"/><ellipse cx="4.73462366" cy="37.822241" rx="1.2111828" ry="1.20070606"/><ellipse cx="4.73462366" cy="37.822241" rx="1.10107527" ry="1.09155097"/><ellipse cx="4.73462366" cy="37.822241" rx="1.10107527" ry="1.09155097"/><ellipse cx="42.1711828" cy="2.78345497" rx="1.2111828" ry="1.20070606"/><ellipse cx="42.1711828" cy="2.78345497" rx="1.10107527" ry="1.09155097"/><ellipse cx="42.1711828" cy="2.78345497" rx="1.10107527" ry="1.09155097"/><ellipse cx="4.67956989" cy="50.8116975" rx="1.2111828" ry="1.20070606"/><ellipse cx="4.67956989" cy="50.8116975" rx="1.10107527" ry="1.09155097"/><ellipse cx="4.67956989" cy="50.8116975" rx="1.10107527" ry="1.09155097"/><ellipse cx="47.1260215" cy="10.9155097" rx="1.2111828" ry="1.20070606"/><ellipse cx="47.1260215" cy="10.9155097" rx="1.10107527" ry="1.09155097"/><ellipse cx="47.1260215" cy="10.9155097" rx="1.10107527" ry="1.09155097"/><ellipse cx="35.6197849" cy="52.2307138" rx="1.2111828" ry="1.20070606"/><ellipse cx="35.6197849" cy="52.2307138" rx="1.10107527" ry="1.09155097"/><ellipse cx="35.6197849" cy="52.2307138" rx="1.10107527" ry="1.09155097"/><ellipse cx="17.7823656" cy="61.0722766" rx="1.2111828" ry="1.20070606"/><ellipse cx="17.7823656" cy="61.0722766" rx="1.10107527" ry="1.09155097"/><ellipse cx="17.7823656" cy="61.0722766" rx="1.10107527" ry="1.09155097"/><ellipse cx="74.2675269" cy="1.30986116" rx="1.2111828" ry="1.20070606"/><ellipse cx="74.2675269" cy="1.30986116" rx="1.10107527" ry="1.09155097"/><ellipse cx="74.2675269" cy="1.30986116" rx="1.10107527" ry="1.09155097"/><ellipse cx="3.52344086" cy="84.4860449" rx="1.2111828" ry="1.20070606"/><ellipse cx="3.52344086" cy="84.4860449" rx="1.10107527" ry="1.09155097"/><ellipse cx="3.52344086" cy="84.4860449" rx="1.10107527" ry="1.09155097"/><ellipse cx="82.0851613" cy="9.66022606" rx="1.2111828" ry="1.20070606"/><ellipse cx="82.0851613" cy="9.66022606" rx="1.10107527" ry="1.09155097"/><ellipse cx="82.0851613" cy="9.66022606" rx="1.10107527" ry="1.09155097"/><ellipse cx="34.6288172" cy="79.3557554" rx="1.2111828" ry="1.20070606"/><ellipse cx="34.6288172" cy="79.3557554" rx="1.10107527" ry="1.09155097"/><ellipse cx="34.6288172" cy="79.3557554" rx="1.10107527" ry="1.09155097"/><ellipse cx="77.956129" cy="30.6180046" rx="1.2111828" ry="1.20070606"/><ellipse cx="77.956129" cy="30.6180046" rx="1.10107527" ry="1.09155097"/><ellipse cx="77.956129" cy="30.6180046" rx="1.10107527" ry="1.09155097"/><ellipse cx="77.5707527" cy="37.1673105" rx="1.2111828" ry="1.20070606"/><ellipse cx="77.5707527" cy="37.1673105" rx="1.10107527" ry="1.09155097"/><ellipse cx="77.5707527" cy="37.1673105" rx="1.10107527" ry="1.09155097"/><ellipse cx="44.7587097" cy="62.7096031" rx="1.2111828" ry="1.20070606"/><ellipse cx="44.7587097" cy="62.7096031" rx="1.10107527" ry="1.09155097"/><ellipse cx="44.7587097" cy="62.7096031" rx="1.10107527" ry="1.09155097"/><ellipse cx="66.4498925" cy="18.6655215" rx="1.2111828" ry="1.20070606"/><ellipse cx="66.4498925" cy="18.6655215" rx="1.10107527" ry="1.09155097"/><ellipse cx="66.4498925" cy="18.6655215" rx="1.10107527" ry="1.09155097"/><ellipse cx="67.2756989" cy="13.6443871" rx="1.2111828" ry="1.20070606"/><ellipse cx="67.2756989" cy="13.6443871" rx="1.10107527" ry="1.09155097"/><ellipse cx="67.2756989" cy="13.6443871" rx="1.10107527" ry="1.09155097"/><ellipse cx="66.9453763" cy="25.7060253" rx="1.2111828" ry="1.20070606"/><ellipse cx="66.9453763" cy="25.7060253" rx="1.10107527" ry="1.09155097"/><ellipse cx="66.9453763" cy="25.7060253" rx="1.10107527" ry="1.09155097"/><ellipse cx="62.2107527" cy="23.8503886" rx="1.2111828" ry="1.20070606"/><ellipse cx="62.2107527" cy="23.8503886" rx="1.10107527" ry="1.09155097"/><ellipse cx="62.2107527" cy="23.8503886" rx="1.10107527" ry="1.09155097"/><ellipse cx="64.1376344" cy="30.2359618" rx="1.2111828" ry="1.20070606"/><ellipse cx="64.1376344" cy="30.2359618" rx="1.10107527" ry="1.09155097"/><ellipse cx="64.1376344" cy="30.2359618" rx="1.10107527" ry="1.09155097"/><ellipse cx="56.1548387" cy="25.0510947" rx="1.2111828" ry="1.20070606"/><ellipse cx="56.1548387" cy="25.0510947" rx="1.10107527" ry="1.09155097"/><ellipse cx="56.1548387" cy="25.0510947" rx="1.10107527" ry="1.09155097"/><ellipse cx="47.5113978" cy="30.0176516" rx="1.2111828" ry="1.20070606"/><ellipse cx="47.5113978" cy="30.0176516" rx="1.10107527" ry="1.09155097"/><ellipse cx="47.5113978" cy="30.0176516" rx="1.10107527" ry="1.09155097"/><ellipse cx="33.2524731" cy="31.8732883" rx="1.2111828" ry="1.20070606"/><ellipse cx="33.2524731" cy="31.8732883" rx="1.10107527" ry="1.09155097"/><ellipse cx="33.2524731" cy="31.8732883" rx="1.10107527" ry="1.09155097"/><ellipse cx="27.7470968" cy="34.5475881" rx="1.2111828" ry="1.20070606"/><ellipse cx="27.7470968" cy="34.5475881" rx="1.10107527" ry="1.09155097"/><ellipse cx="27.7470968" cy="34.5475881" rx="1.10107527" ry="1.09155097"/><ellipse cx="20.2047312" cy="32.9648392" rx="1.2111828" ry="1.20070606"/><ellipse cx="20.2047312" cy="32.9648392" rx="1.10107527" ry="1.09155097"/><ellipse cx="20.2047312" cy="32.9648392" rx="1.10107527" ry="1.09155097"/><ellipse cx="16.6262366" cy="28.5440578" rx="1.2111828" ry="1.20070606"/><ellipse cx="16.6262366" cy="28.5440578" rx="1.10107527" ry="1.09155097"/><ellipse cx="16.6262366" cy="28.5440578" rx="1.10107527" ry="1.09155097"/><ellipse cx="14.9746237" cy="33.7835025" rx="1.2111828" ry="1.20070606"/><ellipse cx="14.9746237" cy="33.7835025" rx="1.10107527" ry="1.09155097"/><ellipse cx="14.9746237" cy="33.7835025" rx="1.10107527" ry="1.09155097"/><ellipse cx="15.1948387" cy="41.9155572" rx="1.2111828" ry="1.20070606"/><ellipse cx="15.1948387" cy="41.9155572" rx="1.10107527" ry="1.09155097"/><ellipse cx="15.1948387" cy="41.9155572" rx="1.10107527" ry="1.09155097"/><ellipse cx="16.516129" cy="47.8099324" rx="1.2111828" ry="1.20070606"/><ellipse cx="16.516129" cy="47.8099324" rx="1.10107527" ry="1.09155097"/><ellipse cx="16.516129" cy="47.8099324" rx="1.10107527" ry="1.09155097"/><ellipse cx="45.9148387" cy="46.3363386" rx="1.2111828" ry="1.20070606"/><ellipse cx="45.9148387" cy="46.3363386" rx="1.10107527" ry="1.09155097"/><ellipse cx="45.9148387" cy="46.3363386" rx="1.10107527" ry="1.09155097"/><ellipse cx="67.3307527" cy="37.2764655" rx="1.2111828" ry="1.20070606"/><ellipse cx="67.3307527" cy="37.2764655" rx="1.10107527" ry="1.09155097"/><ellipse cx="67.3307527" cy="37.2764655" rx="1.10107527" ry="1.09155097"/><ellipse cx="79.9380645" cy="19.8662276" rx="1.2111828" ry="1.20070606"/><ellipse cx="79.9380645" cy="19.8662276" rx="1.10107527" ry="1.09155097"/><ellipse cx="79.9380645" cy="19.8662276" rx="1.10107527" ry="1.09155097"/><ellipse cx="90.8387097" cy="11.1338199" rx="1.2111828" ry="1.20070606"/><ellipse cx="90.8387097" cy="11.1338199" rx="1.10107527" ry="1.09155097"/><ellipse cx="90.8387097" cy="11.1338199" rx="1.10107527" ry="1.09155097"/><ellipse cx="99.7023656" cy="6.82219355" rx="1.2111828" ry="1.20070606"/><ellipse cx="99.7023656" cy="6.82219355" rx="1.10107527" ry="1.09155097"/><ellipse cx="99.7023656" cy="6.82219355" rx="1.10107527" ry="1.09155097"/><ellipse cx="116.989247" cy="5.075712" rx="1.2111828" ry="1.20070606"/><ellipse cx="116.989247" cy="5.075712" rx="1.10107527" ry="1.09155097"/><ellipse cx="116.989247" cy="5.075712" rx="1.10107527" ry="1.09155097"/><ellipse cx="141.983656" cy="13.5898095" rx="1.2111828" ry="1.20070606"/><ellipse cx="141.983656" cy="13.5898095" rx="1.10107527" ry="1.09155097"/><ellipse cx="141.983656" cy="13.5898095" rx="1.10107527" ry="1.09155097"/><ellipse cx="145.341935" cy="18.610944" rx="1.2111828" ry="1.20070606"/><ellipse cx="145.341935" cy="18.610944" rx="1.10107527" ry="1.09155097"/><ellipse cx="145.341935" cy="18.610944" rx="1.10107527" ry="1.09155097"/><ellipse cx="119.962151" cy="26.7975763" rx="1.2111828" ry="1.20070606"/><ellipse cx="119.962151" cy="26.7975763" rx="1.10107527" ry="1.09155097"/><ellipse cx="119.962151" cy="26.7975763" rx="1.10107527" ry="1.09155097"/><ellipse cx="99.2619355" cy="31.545823" rx="1.2111828" ry="1.20070606"/><ellipse cx="99.2619355" cy="31.545823" rx="1.10107527" ry="1.09155097"/><ellipse cx="99.2619355" cy="31.545823" rx="1.10107527" ry="1.09155097"/><ellipse cx="93.095914" cy="28.8715231" rx="1.2111828" ry="1.20070606"/><ellipse cx="93.095914" cy="28.8715231" rx="1.10107527" ry="1.09155097"/><ellipse cx="93.095914" cy="28.8715231" rx="1.10107527" ry="1.09155097"/><ellipse cx="93.7015054" cy="34.2201228" rx="1.2111828" ry="1.20070606"/><ellipse cx="93.7015054" cy="34.2201228" rx="1.10107527" ry="1.09155097"/><ellipse cx="93.7015054" cy="34.2201228" rx="1.10107527" ry="1.09155097"/><ellipse cx="138.350108" cy="19.4841848" rx="1.2111828" ry="1.20070606"/><ellipse cx="138.350108" cy="19.4841848" rx="1.10107527" ry="1.09155097"/><ellipse cx="138.350108" cy="19.4841848" rx="1.10107527" ry="1.09155097"/><ellipse cx="134.551398" cy="13.6443871" rx="1.2111828" ry="1.20070606"/><ellipse cx="134.551398" cy="13.6443871" rx="1.10107527" ry="1.09155097"/><ellipse cx="134.551398" cy="13.6443871" rx="1.10107527" ry="1.09155097"/><ellipse cx="115.227527" cy="9.66022606" rx="1.2111828" ry="1.20070606"/><ellipse cx="115.227527" cy="9.66022606" rx="1.10107527" ry="1.09155097"/><ellipse cx="115.227527" cy="9.66022606" rx="1.10107527" ry="1.09155097"/><ellipse cx="108.510968" cy="8.02289961" rx="1.2111828" ry="1.20070606"/><ellipse cx="108.510968" cy="8.02289961" rx="1.10107527" ry="1.09155097"/><ellipse cx="108.510968" cy="8.02289961" rx="1.10107527" ry="1.09155097"/><ellipse cx="103.831398" cy="17.3010828" rx="1.2111828" ry="1.20070606"/><ellipse cx="103.831398" cy="17.3010828" rx="1.10107527" ry="1.09155097"/><ellipse cx="103.831398" cy="17.3010828" rx="1.10107527" ry="1.09155097"/><ellipse cx="104.822366" cy="12.9894565" rx="1.2111828" ry="1.20070606"/><ellipse cx="104.822366" cy="12.9894565" rx="1.10107527" ry="1.09155097"/><ellipse cx="104.822366" cy="12.9894565" rx="1.10107527" ry="1.09155097"/><ellipse cx="129.486452" cy="22.595105" rx="1.2111828" ry="1.20070606"/><ellipse cx="129.486452" cy="22.595105" rx="1.10107527" ry="1.09155097"/><ellipse cx="129.486452" cy="22.595105" rx="1.10107527" ry="1.09155097"/><ellipse cx="131.688602" cy="28.6532129" rx="1.2111828" ry="1.20070606"/><ellipse cx="131.688602" cy="28.6532129" rx="1.10107527" ry="1.09155097"/><ellipse cx="131.688602" cy="28.6532129" rx="1.10107527" ry="1.09155097"/><ellipse cx="123.595699" cy="36.9490003" rx="1.2111828" ry="1.20070606"/><ellipse cx="123.595699" cy="36.9490003" rx="1.10107527" ry="1.09155097"/><ellipse cx="123.595699" cy="36.9490003" rx="1.10107527" ry="1.09155097"/><ellipse cx="91.8847312" cy="46.9366916" rx="1.2111828" ry="1.20070606"/><ellipse cx="91.8847312" cy="46.9366916" rx="1.10107527" ry="1.09155097"/><ellipse cx="91.8847312" cy="46.9366916" rx="1.10107527" ry="1.09155097"/><ellipse cx="78.8369892" cy="49.3926813" rx="1.2111828" ry="1.20070606"/><ellipse cx="78.8369892" cy="49.3926813" rx="1.10107527" ry="1.09155097"/><ellipse cx="78.8369892" cy="49.3926813" rx="1.10107527" ry="1.09155097"/><ellipse cx="71.0193548" cy="50.75712" rx="1.2111828" ry="1.20070606"/><ellipse cx="71.0193548" cy="50.75712" rx="1.10107527" ry="1.09155097"/><ellipse cx="71.0193548" cy="50.75712" rx="1.10107527" ry="1.09155097"/><ellipse cx="61.7152688" cy="66.2025662" rx="1.2111828" ry="1.20070606"/><ellipse cx="61.7152688" cy="66.2025662" rx="1.10107527" ry="1.09155097"/><ellipse cx="61.7152688" cy="66.2025662" rx="1.10107527" ry="1.09155097"/><ellipse cx="53.7875269" cy="68.0582028" rx="1.2111828" ry="1.20070606"/><ellipse cx="53.7875269" cy="68.0582028" rx="1.10107527" ry="1.09155097"/><ellipse cx="53.7875269" cy="68.0582028" rx="1.10107527" ry="1.09155097"/><ellipse cx="83.5716129" cy="71.1145455" rx="1.2111828" ry="1.20070606"/><ellipse cx="83.5716129" cy="71.1145455" rx="1.10107527" ry="1.09155097"/><ellipse cx="83.5716129" cy="71.1145455" rx="1.10107527" ry="1.09155097"/><ellipse cx="91.6094624" cy="65.1110152" rx="1.2111828" ry="1.20070606"/><ellipse cx="91.6094624" cy="65.1110152" rx="1.10107527" ry="1.09155097"/><ellipse cx="91.6094624" cy="65.1110152" rx="1.10107527" ry="1.09155097"/><ellipse cx="101.904516" cy="52.2307138" rx="1.2111828" ry="1.20070606"/><ellipse cx="101.904516" cy="52.2307138" rx="1.10107527" ry="1.09155097"/><ellipse cx="101.904516" cy="52.2307138" rx="1.10107527" ry="1.09155097"/><ellipse cx="142.534194" cy="40.2782307" rx="1.2111828" ry="1.20070606"/><ellipse cx="142.534194" cy="40.2782307" rx="1.10107527" ry="1.09155097"/><ellipse cx="142.534194" cy="40.2782307" rx="1.10107527" ry="1.09155097"/><ellipse cx="150.406882" cy="33.2923045" rx="1.2111828" ry="1.20070606"/><ellipse cx="150.406882" cy="33.2923045" rx="1.10107527" ry="1.09155097"/><ellipse cx="150.406882" cy="33.2923045" rx="1.10107527" ry="1.09155097"/><ellipse cx="152.223656" cy="37.7676635" rx="1.2111828" ry="1.20070606"/><ellipse cx="152.223656" cy="37.7676635" rx="1.10107527" ry="1.09155097"/><ellipse cx="152.223656" cy="37.7676635" rx="1.10107527" ry="1.09155097"/><ellipse cx="148.204731" cy="43.0071081" rx="1.2111828" ry="1.20070606"/><ellipse cx="148.204731" cy="43.0071081" rx="1.10107527" ry="1.09155097"/><ellipse cx="148.204731" cy="43.0071081" rx="1.10107527" ry="1.09155097"/><ellipse cx="133.725591" cy="61.2905868" rx="1.2111828" ry="1.20070606"/><ellipse cx="133.725591" cy="61.2905868" rx="1.10107527" ry="1.09155097"/><ellipse cx="133.725591" cy="61.2905868" rx="1.10107527" ry="1.09155097"/><ellipse cx="125.577634" cy="67.7307375" rx="1.2111828" ry="1.20070606"/><ellipse cx="125.577634" cy="67.7307375" rx="1.10107527" ry="1.09155097"/><ellipse cx="125.577634" cy="67.7307375" rx="1.10107527" ry="1.09155097"/><ellipse cx="118.420645" cy="72.4244067" rx="1.2111828" ry="1.20070606"/><ellipse cx="118.420645" cy="72.4244067" rx="1.10107527" ry="1.09155097"/><ellipse cx="118.420645" cy="72.4244067" rx="1.10107527" ry="1.09155097"/><ellipse cx="108.015484" cy="80.7201941" rx="1.2111828" ry="1.20070606"/><ellipse cx="108.015484" cy="80.7201941" rx="1.10107527" ry="1.09155097"/><ellipse cx="108.015484" cy="80.7201941" rx="1.10107527" ry="1.09155097"/><ellipse cx="102.950538" cy="88.2518957" rx="1.2111828" ry="1.20070606"/><ellipse cx="102.950538" cy="88.2518957" rx="1.10107527" ry="1.09155097"/><ellipse cx="102.950538" cy="88.2518957" rx="1.10107527" ry="1.09155097"/><ellipse cx="92.8206452" cy="98.1850095" rx="1.2111828" ry="1.20070606"/><ellipse cx="92.8206452" cy="98.1850095" rx="1.10107527" ry="1.09155097"/><ellipse cx="92.8206452" cy="98.1850095" rx="1.10107527" ry="1.09155097"/><ellipse cx="91.003871" cy="105.935021" rx="1.2111828" ry="1.20070606"/><ellipse cx="91.003871" cy="105.935021" rx="1.10107527" ry="1.09155097"/><ellipse cx="91.003871" cy="105.935021" rx="1.10107527" ry="1.09155097"/><ellipse cx="91.2791398" cy="117.068841" rx="1.2111828" ry="1.20070606"/><ellipse cx="91.2791398" cy="117.068841" rx="1.10107527" ry="1.09155097"/><ellipse cx="91.2791398" cy="117.068841" rx="1.10107527" ry="1.09155097"/><ellipse cx="106.749247" cy="128.912169" rx="1.2111828" ry="1.20070606"/><ellipse cx="106.749247" cy="128.912169" rx="1.10107527" ry="1.09155097"/><ellipse cx="106.749247" cy="128.912169" rx="1.10107527" ry="1.09155097"/><ellipse cx="111.924301" cy="136.116406" rx="1.2111828" ry="1.20070606"/><ellipse cx="111.924301" cy="136.116406" rx="1.10107527" ry="1.09155097"/><ellipse cx="111.924301" cy="136.116406" rx="1.10107527" ry="1.09155097"/><ellipse cx="119.411613" cy="137.207957" rx="1.2111828" ry="1.20070606"/><ellipse cx="119.411613" cy="137.207957" rx="1.10107527" ry="1.09155097"/><ellipse cx="119.411613" cy="137.207957" rx="1.10107527" ry="1.09155097"/><ellipse cx="133.505376" cy="129.78541" rx="1.2111828" ry="1.20070606"/><ellipse cx="133.505376" cy="129.78541" rx="1.10107527" ry="1.09155097"/><ellipse cx="133.505376" cy="129.78541" rx="1.10107527" ry="1.09155097"/><ellipse cx="137.964731" cy="108.936787" rx="1.2111828" ry="1.20070606"/><ellipse cx="137.964731" cy="108.936787" rx="1.10107527" ry="1.09155097"/><ellipse cx="137.964731" cy="108.936787" rx="1.10107527" ry="1.09155097"/><ellipse cx="126.018065" cy="91.5811262" rx="1.2111828" ry="1.20070606"/><ellipse cx="126.018065" cy="91.5811262" rx="1.10107527" ry="1.09155097"/><ellipse cx="126.018065" cy="91.5811262" rx="1.10107527" ry="1.09155097"/><ellipse cx="113.245591" cy="85.195553" rx="1.2111828" ry="1.20070606"/><ellipse cx="113.245591" cy="85.195553" rx="1.10107527" ry="1.09155097"/><ellipse cx="113.245591" cy="85.195553" rx="1.10107527" ry="1.09155097"/><ellipse cx="97.8305376" cy="85.0863979" rx="1.2111828" ry="1.20070606"/><ellipse cx="97.8305376" cy="85.0863979" rx="1.10107527" ry="1.09155097"/><ellipse cx="97.8305376" cy="85.0863979" rx="1.10107527" ry="1.09155097"/><ellipse cx="91.9397849" cy="84.3223123" rx="1.2111828" ry="1.20070606"/><ellipse cx="91.9397849" cy="84.3223123" rx="1.10107527" ry="1.09155097"/><ellipse cx="91.9397849" cy="84.3223123" rx="1.10107527" ry="1.09155097"/><ellipse cx="97.0047312" cy="75.044129" rx="1.2111828" ry="1.20070606"/><ellipse cx="97.0047312" cy="75.044129" rx="1.10107527" ry="1.09155097"/><ellipse cx="97.0047312" cy="75.044129" rx="1.10107527" ry="1.09155097"/><ellipse cx="107.52" cy="63.8011541" rx="1.2111828" ry="1.20070606"/><ellipse cx="107.52" cy="63.8011541" rx="1.10107527" ry="1.09155097"/><ellipse cx="107.52" cy="63.8011541" rx="1.10107527" ry="1.09155097"/><ellipse cx="114.621935" cy="60.7993889" rx="1.2111828" ry="1.20070606"/><ellipse cx="114.621935" cy="60.7993889" rx="1.10107527" ry="1.09155097"/><ellipse cx="114.621935" cy="60.7993889" rx="1.10107527" ry="1.09155097"/><ellipse cx="126.623656" cy="48.7923283" rx="1.2111828" ry="1.20070606"/><ellipse cx="126.623656" cy="48.7923283" rx="1.10107527" ry="1.09155097"/><ellipse cx="126.623656" cy="48.7923283" rx="1.10107527" ry="1.09155097"/><ellipse cx="133.835699" cy="47.4278895" rx="1.2111828" ry="1.20070606"/><ellipse cx="133.835699" cy="47.4278895" rx="1.10107527" ry="1.09155097"/><ellipse cx="133.835699" cy="47.4278895" rx="1.10107527" ry="1.09155097"/><ellipse cx="130.972903" cy="43.7166163" rx="1.2111828" ry="1.20070606"/><ellipse cx="130.972903" cy="43.7166163" rx="1.10107527" ry="1.09155097"/><ellipse cx="130.972903" cy="43.7166163" rx="1.10107527" ry="1.09155097"/><ellipse cx="128.110108" cy="55.1233239" rx="1.2111828" ry="1.20070606"/><ellipse cx="128.110108" cy="55.1233239" rx="1.10107527" ry="1.09155097"/><ellipse cx="128.110108" cy="55.1233239" rx="1.10107527" ry="1.09155097"/><ellipse cx="120.292473" cy="52.0669812" rx="1.2111828" ry="1.20070606"/><ellipse cx="120.292473" cy="52.0669812" rx="1.10107527" ry="1.09155097"/><ellipse cx="120.292473" cy="52.0669812" rx="1.10107527" ry="1.09155097"/><ellipse cx="112.19957" cy="47.4278895" rx="1.2111828" ry="1.20070606"/><ellipse cx="112.19957" cy="47.4278895" rx="1.10107527" ry="1.09155097"/><ellipse cx="112.19957" cy="47.4278895" rx="1.10107527" ry="1.09155097"/><ellipse cx="107.299785" cy="44.3169693" rx="1.2111828" ry="1.20070606"/><ellipse cx="107.299785" cy="44.3169693" rx="1.10107527" ry="1.09155097"/><ellipse cx="107.299785" cy="44.3169693" rx="1.10107527" ry="1.09155097"/><ellipse cx="112.364731" cy="40.6602735" rx="1.2111828" ry="1.20070606"/><ellipse cx="112.364731" cy="40.6602735" rx="1.10107527" ry="1.09155097"/><ellipse cx="112.364731" cy="40.6602735" rx="1.10107527" ry="1.09155097"/><ellipse cx="127.394409" cy="31.6004005" rx="1.2111828" ry="1.20070606"/><ellipse cx="127.394409" cy="31.6004005" rx="1.10107527" ry="1.09155097"/><ellipse cx="127.394409" cy="31.6004005" rx="1.10107527" ry="1.09155097"/><ellipse cx="125.467527" cy="25.4877151" rx="1.2111828" ry="1.20070606"/><ellipse cx="125.467527" cy="25.4877151" rx="1.10107527" ry="1.09155097"/><ellipse cx="125.467527" cy="25.4877151" rx="1.10107527" ry="1.09155097"/><ellipse cx="114.732043" cy="17.1919277" rx="1.2111828" ry="1.20070606"/><ellipse cx="114.732043" cy="17.1919277" rx="1.10107527" ry="1.09155097"/><ellipse cx="114.732043" cy="17.1919277" rx="1.10107527" ry="1.09155097"/><ellipse cx="105.593118" cy="23.5775009" rx="1.2111828" ry="1.20070606"/><ellipse cx="105.593118" cy="23.5775009" rx="1.10107527" ry="1.09155097"/><ellipse cx="105.593118" cy="23.5775009" rx="1.10107527" ry="1.09155097"/><ellipse cx="73.6068817" cy="20.3574255" rx="1.2111828" ry="1.20070606"/><ellipse cx="73.6068817" cy="20.3574255" rx="1.10107527" ry="1.09155097"/><ellipse cx="73.6068817" cy="20.3574255" rx="1.10107527" ry="1.09155097"/><ellipse cx="45.5845161" cy="19.2658746" rx="1.2111828" ry="1.20070606"/><ellipse cx="45.5845161" cy="19.2658746" rx="1.10107527" ry="1.09155097"/><ellipse cx="45.5845161" cy="19.2658746" rx="1.10107527" ry="1.09155097"/><ellipse cx="36.4455914" cy="20.2482705" rx="1.2111828" ry="1.20070606"/><ellipse cx="36.4455914" cy="20.2482705" rx="1.10107527" ry="1.09155097"/><ellipse cx="36.4455914" cy="20.2482705" rx="1.10107527" ry="1.09155097"/><ellipse cx="36.6658065" cy="14.6813605" rx="1.2111828" ry="1.20070606"/><ellipse cx="36.6658065" cy="14.6813605" rx="1.10107527" ry="1.09155097"/><ellipse cx="36.6658065" cy="14.6813605" rx="1.10107527" ry="1.09155097"/><ellipse cx="31.8210753" cy="14.135585" rx="1.2111828" ry="1.20070606"/><ellipse cx="31.8210753" cy="14.135585" rx="1.10107527" ry="1.09155097"/><ellipse cx="31.8210753" cy="14.135585" rx="1.10107527" ry="1.09155097"/><ellipse cx="29.7290323" cy="18.9929868" rx="1.2111828" ry="1.20070606"/><ellipse cx="29.7290323" cy="18.9929868" rx="1.10107527" ry="1.09155097"/><ellipse cx="29.7290323" cy="18.9929868" rx="1.10107527" ry="1.09155097"/><ellipse cx="23.2877419" cy="55.0687463" rx="1.2111828" ry="1.20070606"/><ellipse cx="23.2877419" cy="55.0687463" rx="1.10107527" ry="1.09155097"/><ellipse cx="23.2877419" cy="55.0687463" rx="1.10107527" ry="1.09155097"/><ellipse cx="18.9935484" cy="75.7536372" rx="1.2111828" ry="1.20070606"/><ellipse cx="18.9935484" cy="75.7536372" rx="1.10107527" ry="1.09155097"/><ellipse cx="18.9935484" cy="75.7536372" rx="1.10107527" ry="1.09155097"/><ellipse cx="18.4980645" cy="81.9209001" rx="1.2111828" ry="1.20070606"/><ellipse cx="18.4980645" cy="81.9209001" rx="1.10107527" ry="1.09155097"/><ellipse cx="18.4980645" cy="81.9209001" rx="1.10107527" ry="1.09155097"/><ellipse cx="16.5711828" cy="89.7254895" rx="1.2111828" ry="1.20070606"/><ellipse cx="16.5711828" cy="89.7254895" rx="1.10107527" ry="1.09155097"/><ellipse cx="16.5711828" cy="89.7254895" rx="1.10107527" ry="1.09155097"/><ellipse cx="21.415914" cy="92.5635221" rx="1.2111828" ry="1.20070606"/><ellipse cx="21.415914" cy="92.5635221" rx="1.10107527" ry="1.09155097"/><ellipse cx="21.415914" cy="92.5635221" rx="1.10107527" ry="1.09155097"/><ellipse cx="27.6369892" cy="107.845236" rx="1.2111828" ry="1.20070606"/><ellipse cx="27.6369892" cy="107.845236" rx="1.10107527" ry="1.09155097"/><ellipse cx="27.6369892" cy="107.845236" rx="1.10107527" ry="1.09155097"/><ellipse cx="30.0593548" cy="121.435045" rx="1.2111828" ry="1.20070606"/><ellipse cx="30.0593548" cy="121.435045" rx="1.10107527" ry="1.09155097"/><ellipse cx="30.0593548" cy="121.435045" rx="1.10107527" ry="1.09155097"/><ellipse cx="27.7470968" cy="131.750202" rx="1.2111828" ry="1.20070606"/><ellipse cx="27.7470968" cy="131.750202" rx="1.10107527" ry="1.09155097"/><ellipse cx="27.7470968" cy="131.750202" rx="1.10107527" ry="1.09155097"/><ellipse cx="25.5449462" cy="139.663946" rx="1.2111828" ry="1.20070606"/><ellipse cx="25.5449462" cy="139.663946" rx="1.10107527" ry="1.09155097"/><ellipse cx="25.5449462" cy="139.663946" rx="1.10107527" ry="1.09155097"/><ellipse cx="20.5350538" cy="139.936834" rx="1.2111828" ry="1.20070606"/><ellipse cx="20.5350538" cy="139.936834" rx="1.10107527" ry="1.09155097"/><ellipse cx="20.5350538" cy="139.936834" rx="1.10107527" ry="1.09155097"/><ellipse cx="12.9376344" cy="124.655121" rx="1.2111828" ry="1.20070606"/><ellipse cx="12.9376344" cy="124.655121" rx="1.10107527" ry="1.09155097"/><ellipse cx="12.9376344" cy="124.655121" rx="1.10107527" ry="1.09155097"/><ellipse cx="17.0666667" cy="107.954391" rx="1.2111828" ry="1.20070606"/><ellipse cx="17.0666667" cy="107.954391" rx="1.10107527" ry="1.09155097"/><ellipse cx="17.0666667" cy="107.954391" rx="1.10107527" ry="1.09155097"/><ellipse cx="37.1062366" cy="89.3434467" rx="1.2111828" ry="1.20070606"/><ellipse cx="37.1062366" cy="89.3434467" rx="1.10107527" ry="1.09155097"/><ellipse cx="37.1062366" cy="89.3434467" rx="1.10107527" ry="1.09155097"/><ellipse cx="47.4563441" cy="80.7747716" rx="1.2111828" ry="1.20070606"/><ellipse cx="47.4563441" cy="80.7747716" rx="1.10107527" ry="1.09155097"/><ellipse cx="47.4563441" cy="80.7747716" rx="1.10107527" ry="1.09155097"/><ellipse cx="49.9337634" cy="88.1427406" rx="1.2111828" ry="1.20070606"/><ellipse cx="49.9337634" cy="88.1427406" rx="1.10107527" ry="1.09155097"/><ellipse cx="49.9337634" cy="88.1427406" rx="1.10107527" ry="1.09155097"/><ellipse cx="50.2090323" cy="114.012499" rx="1.2111828" ry="1.20070606"/><ellipse cx="50.2090323" cy="114.012499" rx="1.10107527" ry="1.09155097"/><ellipse cx="50.2090323" cy="114.012499" rx="1.10107527" ry="1.09155097"/><ellipse cx="51.4752688" cy="124.163923" rx="1.2111828" ry="1.20070606"/><ellipse cx="51.4752688" cy="124.163923" rx="1.10107527" ry="1.09155097"/><ellipse cx="51.4752688" cy="124.163923" rx="1.10107527" ry="1.09155097"/><ellipse cx="52.4662366" cy="130.931539" rx="1.2111828" ry="1.20070606"/><ellipse cx="52.4662366" cy="130.931539" rx="1.10107527" ry="1.09155097"/><ellipse cx="52.4662366" cy="130.931539" rx="1.10107527" ry="1.09155097"/><ellipse cx="57.6963441" cy="133.442106" rx="1.2111828" ry="1.20070606"/><ellipse cx="57.6963441" cy="133.442106" rx="1.10107527" ry="1.09155097"/><ellipse cx="57.6963441" cy="133.442106" rx="1.10107527" ry="1.09155097"/><ellipse cx="77.5707527" cy="137.426267" rx="1.2111828" ry="1.20070606"/><ellipse cx="77.5707527" cy="137.426267" rx="1.10107527" ry="1.09155097"/><ellipse cx="77.5707527" cy="137.426267" rx="1.10107527" ry="1.09155097"/><ellipse cx="86.2141935" cy="142.065358" rx="1.2111828" ry="1.20070606"/><ellipse cx="86.2141935" cy="142.065358" rx="1.10107527" ry="1.09155097"/><ellipse cx="86.2141935" cy="142.065358" rx="1.10107527" ry="1.09155097"/><ellipse cx="85.0580645" cy="137.644577" rx="1.2111828" ry="1.20070606"/><ellipse cx="85.0580645" cy="137.644577" rx="1.10107527" ry="1.09155097"/><ellipse cx="85.0580645" cy="137.644577" rx="1.10107527" ry="1.09155097"/><ellipse cx="70.6339785" cy="127.11111" rx="1.2111828" ry="1.20070606"/><ellipse cx="70.6339785" cy="127.11111" rx="1.10107527" ry="1.09155097"/><ellipse cx="70.6339785" cy="127.11111" rx="1.10107527" ry="1.09155097"/><ellipse cx="64.5780645" cy="118.597013" rx="1.2111828" ry="1.20070606"/><ellipse cx="64.5780645" cy="118.597013" rx="1.10107527" ry="1.09155097"/><ellipse cx="64.5780645" cy="118.597013" rx="1.10107527" ry="1.09155097"/><ellipse cx="65.5690323" cy="113.739611" rx="1.2111828" ry="1.20070606"/><ellipse cx="65.5690323" cy="113.739611" rx="1.10107527" ry="1.09155097"/><ellipse cx="65.5690323" cy="113.739611" rx="1.10107527" ry="1.09155097"/><ellipse cx="59.2378495" cy="111.229044" rx="1.2111828" ry="1.20070606"/><ellipse cx="59.2378495" cy="111.229044" rx="1.10107527" ry="1.09155097"/><ellipse cx="59.2378495" cy="111.229044" rx="1.10107527" ry="1.09155097"/><ellipse cx="54.6133333" cy="108.063546" rx="1.2111828" ry="1.20070606"/><ellipse cx="54.6133333" cy="108.063546" rx="1.10107527" ry="1.09155097"/><ellipse cx="54.6133333" cy="108.063546" rx="1.10107527" ry="1.09155097"/><ellipse cx="48.6124731" cy="102.496636" rx="1.2111828" ry="1.20070606"/><ellipse cx="48.6124731" cy="102.496636" rx="1.10107527" ry="1.09155097"/><ellipse cx="48.6124731" cy="102.496636" rx="1.10107527" ry="1.09155097"/><ellipse cx="56.0997849" cy="100.968465" rx="1.2111828" ry="1.20070606"/><ellipse cx="56.0997849" cy="100.968465" rx="1.10107527" ry="1.09155097"/><ellipse cx="56.0997849" cy="100.968465" rx="1.10107527" ry="1.09155097"/><ellipse cx="79.2774194" cy="105.662134" rx="1.2111828" ry="1.20070606"/><ellipse cx="79.2774194" cy="105.662134" rx="1.10107527" ry="1.09155097"/><ellipse cx="79.2774194" cy="105.662134" rx="1.10107527" ry="1.09155097"/><ellipse cx="86.0490323" cy="110.19207" rx="1.2111828" ry="1.20070606"/><ellipse cx="86.0490323" cy="110.19207" rx="1.10107527" ry="1.09155097"/><ellipse cx="86.0490323" cy="110.19207" rx="1.10107527" ry="1.09155097"/><ellipse cx="99.4270968" cy="116.304756" rx="1.2111828" ry="1.20070606"/><ellipse cx="99.4270968" cy="116.304756" rx="1.10107527" ry="1.09155097"/><ellipse cx="99.4270968" cy="116.304756" rx="1.10107527" ry="1.09155097"/><ellipse cx="102.069677" cy="122.253708" rx="1.2111828" ry="1.20070606"/><ellipse cx="102.069677" cy="122.253708" rx="1.10107527" ry="1.09155097"/><ellipse cx="102.069677" cy="122.253708" rx="1.10107527" ry="1.09155097"/><ellipse cx="97.9956989" cy="130.167453" rx="1.2111828" ry="1.20070606"/><ellipse cx="97.9956989" cy="130.167453" rx="1.10107527" ry="1.09155097"/><ellipse cx="97.9956989" cy="130.167453" rx="1.10107527" ry="1.09155097"/><ellipse cx="98.0507527" cy="136.662181" rx="1.2111828" ry="1.20070606"/><ellipse cx="98.0507527" cy="136.662181" rx="1.10107527" ry="1.09155097"/><ellipse cx="98.0507527" cy="136.662181" rx="1.10107527" ry="1.09155097"/><ellipse cx="104.767312" cy="135.734363" rx="1.2111828" ry="1.20070606"/><ellipse cx="104.767312" cy="135.734363" rx="1.10107527" ry="1.09155097"/><ellipse cx="104.767312" cy="135.734363" rx="1.10107527" ry="1.09155097"/><ellipse cx="118.475699" cy="129.185057" rx="1.2111828" ry="1.20070606"/><ellipse cx="118.475699" cy="129.185057" rx="1.10107527" ry="1.09155097"/><ellipse cx="118.475699" cy="129.185057" rx="1.10107527" ry="1.09155097"/><ellipse cx="136.147957" cy="122.144553" rx="1.2111828" ry="1.20070606"/><ellipse cx="136.147957" cy="122.144553" rx="1.10107527" ry="1.09155097"/><ellipse cx="136.147957" cy="122.144553" rx="1.10107527" ry="1.09155097"/><ellipse cx="142.47914" cy="115.595247" rx="1.2111828" ry="1.20070606"/><ellipse cx="142.47914" cy="115.595247" rx="1.10107527" ry="1.09155097"/><ellipse cx="142.47914" cy="115.595247" rx="1.10107527" ry="1.09155097"/><ellipse cx="147.323871" cy="108.008968" rx="1.2111828" ry="1.20070606"/><ellipse cx="147.323871" cy="108.008968" rx="1.10107527" ry="1.09155097"/><ellipse cx="147.323871" cy="108.008968" rx="1.10107527" ry="1.09155097"/><ellipse cx="148.590108" cy="102.442058" rx="1.2111828" ry="1.20070606"/><ellipse cx="148.590108" cy="102.442058" rx="1.10107527" ry="1.09155097"/><ellipse cx="148.590108" cy="102.442058" rx="1.10107527" ry="1.09155097"/><ellipse cx="152.774194" cy="99.6040258" rx="1.2111828" ry="1.20070606"/><ellipse cx="152.774194" cy="99.6040258" rx="1.10107527" ry="1.09155097"/><ellipse cx="152.774194" cy="99.6040258" rx="1.10107527" ry="1.09155097"/><ellipse cx="149.691183" cy="93.655073" rx="1.2111828" ry="1.20070606"/><ellipse cx="149.691183" cy="93.655073" rx="1.10107527" ry="1.09155097"/><ellipse cx="149.691183" cy="93.655073" rx="1.10107527" ry="1.09155097"/><ellipse cx="147.929462" cy="84.5952" rx="1.2111828" ry="1.20070606"/><ellipse cx="147.929462" cy="84.5952" rx="1.10107527" ry="1.09155097"/><ellipse cx="147.929462" cy="84.5952" rx="1.10107527" ry="1.09155097"/><ellipse cx="151.397849" cy="74.8258188" rx="1.2111828" ry="1.20070606"/><ellipse cx="151.397849" cy="74.8258188" rx="1.10107527" ry="1.09155097"/><ellipse cx="151.397849" cy="74.8258188" rx="1.10107527" ry="1.09155097"/><ellipse cx="146.71828" cy="76.8451881" rx="1.2111828" ry="1.20070606"/><ellipse cx="146.71828" cy="76.8451881" rx="1.10107527" ry="1.09155097"/><ellipse cx="146.71828" cy="76.8451881" rx="1.10107527" ry="1.09155097"/><ellipse cx="136.147957" cy="95.7835974" rx="1.2111828" ry="1.20070606"/><ellipse cx="136.147957" cy="95.7835974" rx="1.10107527" ry="1.09155097"/><ellipse cx="136.147957" cy="95.7835974" rx="1.10107527" ry="1.09155097"/><ellipse cx="131.35828" cy="111.556509" rx="1.2111828" ry="1.20070606"/><ellipse cx="131.35828" cy="111.556509" rx="1.10107527" ry="1.09155097"/><ellipse cx="131.35828" cy="111.556509" rx="1.10107527" ry="1.09155097"/><ellipse cx="129.706667" cy="119.306521" rx="1.2111828" ry="1.20070606"/><ellipse cx="129.706667" cy="119.306521" rx="1.10107527" ry="1.09155097"/><ellipse cx="129.706667" cy="119.306521" rx="1.10107527" ry="1.09155097"/><ellipse cx="127.779785" cy="127.165688" rx="1.2111828" ry="1.20070606"/><ellipse cx="127.779785" cy="127.165688" rx="1.10107527" ry="1.09155097"/><ellipse cx="127.779785" cy="127.165688" rx="1.10107527" ry="1.09155097"/><ellipse cx="124.421505" cy="123.945612" rx="1.2111828" ry="1.20070606"/><ellipse cx="124.421505" cy="123.945612" rx="1.10107527" ry="1.09155097"/><ellipse cx="124.421505" cy="123.945612" rx="1.10107527" ry="1.09155097"/><ellipse cx="122.549677" cy="115.267782" rx="1.2111828" ry="1.20070606"/><ellipse cx="122.549677" cy="115.267782" rx="1.10107527" ry="1.09155097"/><ellipse cx="122.549677" cy="115.267782" rx="1.10107527" ry="1.09155097"/><ellipse cx="119.631828" cy="110.464958" rx="1.2111828" ry="1.20070606"/><ellipse cx="119.631828" cy="110.464958" rx="1.10107527" ry="1.09155097"/><ellipse cx="119.631828" cy="110.464958" rx="1.10107527" ry="1.09155097"/><ellipse cx="122.769892" cy="106.917417" rx="1.2111828" ry="1.20070606"/><ellipse cx="122.769892" cy="106.917417" rx="1.10107527" ry="1.09155097"/><ellipse cx="122.769892" cy="106.917417" rx="1.10107527" ry="1.09155097"/><ellipse cx="115.172473" cy="117.123419" rx="1.2111828" ry="1.20070606"/><ellipse cx="115.172473" cy="117.123419" rx="1.10107527" ry="1.09155097"/><ellipse cx="115.172473" cy="117.123419" rx="1.10107527" ry="1.09155097"/><ellipse cx="114.016344" cy="112.920948" rx="1.2111828" ry="1.20070606"/><ellipse cx="114.016344" cy="112.920948" rx="1.10107527" ry="1.09155097"/><ellipse cx="114.016344" cy="112.920948" rx="1.10107527" ry="1.09155097"/><ellipse cx="109.006452" cy="108.609321" rx="1.2111828" ry="1.20070606"/><ellipse cx="109.006452" cy="108.609321" rx="1.10107527" ry="1.09155097"/><ellipse cx="109.006452" cy="108.609321" rx="1.10107527" ry="1.09155097"/><ellipse cx="113.300645" cy="100.859309" rx="1.2111828" ry="1.20070606"/><ellipse cx="113.300645" cy="100.859309" rx="1.10107527" ry="1.09155097"/><ellipse cx="113.300645" cy="100.859309" rx="1.10107527" ry="1.09155097"/><ellipse cx="103.225806" cy="101.350507" rx="1.2111828" ry="1.20070606"/><ellipse cx="103.225806" cy="101.350507" rx="1.10107527" ry="1.09155097"/><ellipse cx="103.225806" cy="101.350507" rx="1.10107527" ry="1.09155097"/><ellipse cx="107.850323" cy="102.278326" rx="1.2111828" ry="1.20070606"/><ellipse cx="107.850323" cy="102.278326" rx="1.10107527" ry="1.09155097"/><ellipse cx="107.850323" cy="102.278326" rx="1.10107527" ry="1.09155097"/><ellipse cx="108.455914" cy="96.9843035" rx="1.2111828" ry="1.20070606"/><ellipse cx="108.455914" cy="96.9843035" rx="1.10107527" ry="1.09155097"/><ellipse cx="108.455914" cy="96.9843035" rx="1.10107527" ry="1.09155097"/><ellipse cx="116.218495" cy="92.3997894" rx="1.2111828" ry="1.20070606"/><ellipse cx="116.218495" cy="92.3997894" rx="1.10107527" ry="1.09155097"/><ellipse cx="116.218495" cy="92.3997894" rx="1.10107527" ry="1.09155097"/><ellipse cx="129.266237" cy="81.4297022" rx="1.2111828" ry="1.20070606"/><ellipse cx="129.266237" cy="81.4297022" rx="1.10107527" ry="1.09155097"/><ellipse cx="129.266237" cy="81.4297022" rx="1.10107527" ry="1.09155097"/><ellipse cx="135.046882" cy="76.8997657" rx="1.2111828" ry="1.20070606"/><ellipse cx="135.046882" cy="76.8997657" rx="1.10107527" ry="1.09155097"/><ellipse cx="135.046882" cy="76.8997657" rx="1.10107527" ry="1.09155097"/><ellipse cx="139.010753" cy="72.0423639" rx="1.2111828" ry="1.20070606"/><ellipse cx="139.010753" cy="72.0423639" rx="1.10107527" ry="1.09155097"/><ellipse cx="139.010753" cy="72.0423639" rx="1.10107527" ry="1.09155097"/><ellipse cx="141.928602" cy="67.3486947" rx="1.2111828" ry="1.20070606"/><ellipse cx="141.928602" cy="67.3486947" rx="1.10107527" ry="1.09155097"/><ellipse cx="141.928602" cy="67.3486947" rx="1.10107527" ry="1.09155097"/><ellipse cx="147.433978" cy="67.1849621" rx="1.2111828" ry="1.20070606"/><ellipse cx="147.433978" cy="67.1849621" rx="1.10107527" ry="1.09155097"/><ellipse cx="147.433978" cy="67.1849621" rx="1.10107527" ry="1.09155097"/><ellipse cx="148.92043" cy="62.1092501" rx="1.2111828" ry="1.20070606"/><ellipse cx="148.92043" cy="62.1092501" rx="1.10107527" ry="1.09155097"/><ellipse cx="148.92043" cy="62.1092501" rx="1.10107527" ry="1.09155097"/><ellipse cx="141.59828" cy="56.7060728" rx="1.2111828" ry="1.20070606"/><ellipse cx="141.59828" cy="56.7060728" rx="1.10107527" ry="1.09155097"/><ellipse cx="141.59828" cy="56.7060728" rx="1.10107527" ry="1.09155097"/><ellipse cx="123.870968" cy="56.8152279" rx="1.2111828" ry="1.20070606"/><ellipse cx="123.870968" cy="56.8152279" rx="1.10107527" ry="1.09155097"/><ellipse cx="123.870968" cy="56.8152279" rx="1.10107527" ry="1.09155097"/><ellipse cx="114.566882" cy="53.6497301" rx="1.2111828" ry="1.20070606"/><ellipse cx="114.566882" cy="53.6497301" rx="1.10107527" ry="1.09155097"/><ellipse cx="114.566882" cy="53.6497301" rx="1.10107527" ry="1.09155097"/><ellipse cx="93.9217204" cy="54.5229708" rx="1.2111828" ry="1.20070606"/><ellipse cx="93.9217204" cy="54.5229708" rx="1.10107527" ry="1.09155097"/><ellipse cx="93.9217204" cy="54.5229708" rx="1.10107527" ry="1.09155097"/><ellipse cx="82.8008602" cy="54.9595912" rx="1.2111828" ry="1.20070606"/><ellipse cx="82.8008602" cy="54.9595912" rx="1.10107527" ry="1.09155097"/><ellipse cx="82.8008602" cy="54.9595912" rx="1.10107527" ry="1.09155097"/><ellipse cx="65.403871" cy="54.6321259" rx="1.2111828" ry="1.20070606"/><ellipse cx="65.403871" cy="54.6321259" rx="1.10107527" ry="1.09155097"/><ellipse cx="65.403871" cy="54.6321259" rx="1.10107527" ry="1.09155097"/><ellipse cx="59.2929032" cy="60.7448114" rx="1.2111828" ry="1.20070606"/><ellipse cx="59.2929032" cy="60.7448114" rx="1.10107527" ry="1.09155097"/><ellipse cx="59.2929032" cy="60.7448114" rx="1.10107527" ry="1.09155097"/><ellipse cx="57.476129" cy="70.5687701" rx="1.2111828" ry="1.20070606"/><ellipse cx="57.476129" cy="70.5687701" rx="1.10107527" ry="1.09155097"/><ellipse cx="57.476129" cy="70.5687701" rx="1.10107527" ry="1.09155097"/><ellipse cx="59.9535484" cy="75.9173698" rx="1.2111828" ry="1.20070606"/><ellipse cx="59.9535484" cy="75.9173698" rx="1.10107527" ry="1.09155097"/><ellipse cx="59.9535484" cy="75.9173698" rx="1.10107527" ry="1.09155097"/><ellipse cx="70.1384946" cy="76.2994126" rx="1.2111828" ry="1.20070606"/><ellipse cx="70.1384946" cy="76.2994126" rx="1.10107527" ry="1.09155097"/><ellipse cx="70.1384946" cy="76.2994126" rx="1.10107527" ry="1.09155097"/><ellipse cx="75.7539785" cy="70.2413048" rx="1.2111828" ry="1.20070606"/><ellipse cx="75.7539785" cy="70.2413048" rx="1.10107527" ry="1.09155097"/><ellipse cx="75.7539785" cy="70.2413048" rx="1.10107527" ry="1.09155097"/><ellipse cx="73.551828" cy="61.6180521" rx="1.2111828" ry="1.20070606"/><ellipse cx="73.551828" cy="61.6180521" rx="1.10107527" ry="1.09155097"/><ellipse cx="73.551828" cy="61.6180521" rx="1.10107527" ry="1.09155097"/><ellipse cx="67.6610753" cy="59.5441053" rx="1.2111828" ry="1.20070606"/><ellipse cx="67.6610753" cy="59.5441053" rx="1.10107527" ry="1.09155097"/><ellipse cx="67.6610753" cy="59.5441053" rx="1.10107527" ry="1.09155097"/><ellipse cx="51.4752688" cy="59.816993" rx="1.2111828" ry="1.20070606"/><ellipse cx="51.4752688" cy="59.816993" rx="1.10107527" ry="1.09155097"/><ellipse cx="51.4752688" cy="59.816993" rx="1.10107527" ry="1.09155097"/><ellipse cx="35.7849462" cy="65.2201703" rx="1.2111828" ry="1.20070606"/><ellipse cx="35.7849462" cy="65.2201703" rx="1.10107527" ry="1.09155097"/><ellipse cx="35.7849462" cy="65.2201703" rx="1.10107527" ry="1.09155097"/><ellipse cx="21.9113978" cy="68.7131334" rx="1.2111828" ry="1.20070606"/><ellipse cx="21.9113978" cy="68.7131334" rx="1.10107527" ry="1.09155097"/><ellipse cx="21.9113978" cy="68.7131334" rx="1.10107527" ry="1.09155097"/><ellipse cx="7.9827957" cy="71.2237006" rx="1.2111828" ry="1.20070606"/><ellipse cx="7.9827957" cy="71.2237006" rx="1.10107527" ry="1.09155097"/><ellipse cx="7.9827957" cy="71.2237006" rx="1.10107527" ry="1.09155097"/><ellipse cx="5.28516129" cy="65.5476356" rx="1.2111828" ry="1.20070606"/><ellipse cx="5.28516129" cy="65.5476356" rx="1.10107527" ry="1.09155097"/><ellipse cx="5.28516129" cy="65.5476356" rx="1.10107527" ry="1.09155097"/><ellipse cx="8.31311828" cy="55.1233239" rx="1.2111828" ry="1.20070606"/><ellipse cx="8.31311828" cy="55.1233239" rx="1.10107527" ry="1.09155097"/><ellipse cx="8.31311828" cy="55.1233239" rx="1.10107527" ry="1.09155097"/><ellipse cx="23.4529032" cy="41.7518245" rx="1.2111828" ry="1.20070606"/><ellipse cx="23.4529032" cy="41.7518245" rx="1.10107527" ry="1.09155097"/><ellipse cx="23.4529032" cy="41.7518245" rx="1.10107527" ry="1.09155097"/><ellipse cx="44.0980645" cy="35.1479412" rx="1.2111828" ry="1.20070606"/><ellipse cx="44.0980645" cy="35.1479412" rx="1.10107527" ry="1.09155097"/><ellipse cx="44.0980645" cy="35.1479412" rx="1.10107527" ry="1.09155097"/><ellipse cx="54.1178495" cy="37.4947757" rx="1.2111828" ry="1.20070606"/><ellipse cx="54.1178495" cy="37.4947757" rx="1.10107527" ry="1.09155097"/><ellipse cx="54.1178495" cy="37.4947757" rx="1.10107527" ry="1.09155097"/><ellipse cx="57.3109677" cy="32.3099086" rx="1.2111828" ry="1.20070606"/><ellipse cx="57.3109677" cy="32.3099086" rx="1.10107527" ry="1.09155097"/><ellipse cx="57.3109677" cy="32.3099086" rx="1.10107527" ry="1.09155097"/><ellipse cx="59.1277419" cy="12.5528361" rx="1.2111828" ry="1.20070606"/><ellipse cx="59.1277419" cy="12.5528361" rx="1.10107527" ry="1.09155097"/><ellipse cx="59.1277419" cy="12.5528361" rx="1.10107527" ry="1.09155097"/><ellipse cx="58.8524731" cy="17.3556604" rx="1.2111828" ry="1.20070606"/><ellipse cx="58.8524731" cy="17.3556604" rx="1.10107527" ry="1.09155097"/><ellipse cx="58.8524731" cy="17.3556604" rx="1.10107527" ry="1.09155097"/><ellipse cx="83.2412903" cy="33.1285719" rx="1.2111828" ry="1.20070606"/><ellipse cx="83.2412903" cy="33.1285719" rx="1.10107527" ry="1.09155097"/><ellipse cx="83.2412903" cy="33.1285719" rx="1.10107527" ry="1.09155097"/><ellipse cx="83.076129" cy="41.206049" rx="1.2111828" ry="1.20070606"/><ellipse cx="83.076129" cy="41.206049" rx="1.10107527" ry="1.09155097"/><ellipse cx="83.076129" cy="41.206049" rx="1.10107527" ry="1.09155097"/><ellipse cx="57.0356989" cy="43.6620387" rx="1.2111828" ry="1.20070606"/><ellipse cx="57.0356989" cy="43.6620387" rx="1.10107527" ry="1.09155097"/><ellipse cx="57.0356989" cy="43.6620387" rx="1.10107527" ry="1.09155097"/><ellipse cx="39.8589247" cy="43.2799959" rx="1.2111828" ry="1.20070606"/><ellipse cx="39.8589247" cy="43.2799959" rx="1.10107527" ry="1.09155097"/><ellipse cx="39.8589247" cy="43.2799959" rx="1.10107527" ry="1.09155097"/><ellipse cx="44.3182796" cy="40.9877388" rx="1.2111828" ry="1.20070606"/><ellipse cx="44.3182796" cy="40.9877388" rx="1.10107527" ry="1.09155097"/><ellipse cx="44.3182796" cy="40.9877388" rx="1.10107527" ry="1.09155097"/><ellipse cx="83.4064516" cy="25.7060253" rx="1.2111828" ry="1.20070606"/><ellipse cx="83.4064516" cy="25.7060253" rx="1.10107527" ry="1.09155097"/><ellipse cx="83.4064516" cy="25.7060253" rx="1.10107527" ry="1.09155097"/><ellipse cx="110.272688" cy="22.9225703" rx="1.2111828" ry="1.20070606"/><ellipse cx="110.272688" cy="22.9225703" rx="1.10107527" ry="1.09155097"/><ellipse cx="110.272688" cy="22.9225703" rx="1.10107527" ry="1.09155097"/><ellipse cx="115.833118" cy="22.3222173" rx="1.2111828" ry="1.20070606"/><ellipse cx="115.833118" cy="22.3222173" rx="1.10107527" ry="1.09155097"/><ellipse cx="115.833118" cy="22.3222173" rx="1.10107527" ry="1.09155097"/><ellipse cx="120.953118" cy="10.751777" rx="1.2111828" ry="1.20070606"/><ellipse cx="120.953118" cy="10.751777" rx="1.10107527" ry="1.09155097"/><ellipse cx="120.953118" cy="10.751777" rx="1.10107527" ry="1.09155097"/><ellipse cx="125.577634" cy="8.13205471" rx="1.2111828" ry="1.20070606"/><ellipse cx="125.577634" cy="8.13205471" rx="1.10107527" ry="1.09155097"/><ellipse cx="125.577634" cy="8.13205471" rx="1.10107527" ry="1.09155097"/><ellipse cx="124.091183" cy="14.3538952" rx="1.2111828" ry="1.20070606"/><ellipse cx="124.091183" cy="14.3538952" rx="1.10107527" ry="1.09155097"/><ellipse cx="124.091183" cy="14.3538952" rx="1.10107527" ry="1.09155097"/><ellipse cx="91.9397849" cy="18.8292542" rx="1.2111828" ry="1.20070606"/><ellipse cx="91.9397849" cy="18.8292542" rx="1.10107527" ry="1.09155097"/><ellipse cx="91.9397849" cy="18.8292542" rx="1.10107527" ry="1.09155097"/><ellipse cx="93.4812903" cy="23.1408805" rx="1.2111828" ry="1.20070606"/><ellipse cx="93.4812903" cy="23.1408805" rx="1.10107527" ry="1.09155097"/><ellipse cx="93.4812903" cy="23.1408805" rx="1.10107527" ry="1.09155097"/><ellipse cx="110.492903" cy="30.1813843" rx="1.2111828" ry="1.20070606"/><ellipse cx="110.492903" cy="30.1813843" rx="1.10107527" ry="1.09155097"/><ellipse cx="110.492903" cy="30.1813843" rx="1.10107527" ry="1.09155097"/><ellipse cx="115.723011" cy="30.1268067" rx="1.2111828" ry="1.20070606"/><ellipse cx="115.723011" cy="30.1268067" rx="1.10107527" ry="1.09155097"/><ellipse cx="115.723011" cy="30.1268067" rx="1.10107527" ry="1.09155097"/><ellipse cx="137.689462" cy="27.9982823" rx="1.2111828" ry="1.20070606"/><ellipse cx="137.689462" cy="27.9982823" rx="1.10107527" ry="1.09155097"/><ellipse cx="137.689462" cy="27.9982823" rx="1.10107527" ry="1.09155097"/><ellipse cx="143.910538" cy="34.7113208" rx="1.2111828" ry="1.20070606"/><ellipse cx="143.910538" cy="34.7113208" rx="1.10107527" ry="1.09155097"/><ellipse cx="143.910538" cy="34.7113208" rx="1.10107527" ry="1.09155097"/><ellipse cx="152.058495" cy="48.5740181" rx="1.2111828" ry="1.20070606"/><ellipse cx="152.058495" cy="48.5740181" rx="1.10107527" ry="1.09155097"/><ellipse cx="152.058495" cy="48.5740181" rx="1.10107527" ry="1.09155097"/><ellipse cx="156.242581" cy="60.3627685" rx="1.2111828" ry="1.20070606"/><ellipse cx="156.242581" cy="60.3627685" rx="1.10107527" ry="1.09155097"/><ellipse cx="156.242581" cy="60.3627685" rx="1.10107527" ry="1.09155097"/><ellipse cx="158.224516" cy="69.968417" rx="1.2111828" ry="1.20070606"/><ellipse cx="158.224516" cy="69.968417" rx="1.10107527" ry="1.09155097"/><ellipse cx="158.224516" cy="69.968417" rx="1.10107527" ry="1.09155097"/><ellipse cx="159.270538" cy="81.4297022" rx="1.2111828" ry="1.20070606"/><ellipse cx="159.270538" cy="81.4297022" rx="1.10107527" ry="1.09155097"/><ellipse cx="159.270538" cy="81.4297022" rx="1.10107527" ry="1.09155097"/><ellipse cx="160.151398" cy="93.4367628" rx="1.2111828" ry="1.20070606"/><ellipse cx="160.151398" cy="93.4367628" rx="1.10107527" ry="1.09155097"/><ellipse cx="160.151398" cy="93.4367628" rx="1.10107527" ry="1.09155097"/><ellipse cx="160.646882" cy="102.769524" rx="1.2111828" ry="1.20070606"/><ellipse cx="160.646882" cy="102.769524" rx="1.10107527" ry="1.09155097"/><ellipse cx="160.646882" cy="102.769524" rx="1.10107527" ry="1.09155097"/><ellipse cx="158.389677" cy="111.338199" rx="1.2111828" ry="1.20070606"/><ellipse cx="158.389677" cy="111.338199" rx="1.10107527" ry="1.09155097"/><ellipse cx="158.389677" cy="111.338199" rx="1.10107527" ry="1.09155097"/><ellipse cx="155.141505" cy="120.834692" rx="1.2111828" ry="1.20070606"/><ellipse cx="155.141505" cy="120.834692" rx="1.10107527" ry="1.09155097"/><ellipse cx="155.141505" cy="120.834692" rx="1.10107527" ry="1.09155097"/><ellipse cx="142.148817" cy="137.371689" rx="1.2111828" ry="1.20070606"/><ellipse cx="142.148817" cy="137.371689" rx="1.10107527" ry="1.09155097"/><ellipse cx="142.148817" cy="137.371689" rx="1.10107527" ry="1.09155097"/><ellipse cx="123.595699" cy="148.068889" rx="1.2111828" ry="1.20070606"/><ellipse cx="123.595699" cy="148.068889" rx="1.10107527" ry="1.09155097"/><ellipse cx="123.595699" cy="148.068889" rx="1.10107527" ry="1.09155097"/><ellipse cx="95.6834409" cy="153.635799" rx="1.2111828" ry="1.20070606"/><ellipse cx="95.6834409" cy="153.635799" rx="1.10107527" ry="1.09155097"/><ellipse cx="95.6834409" cy="153.635799" rx="1.10107527" ry="1.09155097"/><ellipse cx="82.0851613" cy="154.618195" rx="1.2111828" ry="1.20070606"/><ellipse cx="82.0851613" cy="154.618195" rx="1.10107527" ry="1.09155097"/><ellipse cx="82.0851613" cy="154.618195" rx="1.10107527" ry="1.09155097"/><ellipse cx="69.8632258" cy="157.347072" rx="1.2111828" ry="1.20070606"/><ellipse cx="69.8632258" cy="157.347072" rx="1.10107527" ry="1.09155097"/><ellipse cx="69.8632258" cy="157.347072" rx="1.10107527" ry="1.09155097"/><ellipse cx="56.0447312" cy="160.567147" rx="1.2111828" ry="1.20070606"/><ellipse cx="56.0447312" cy="160.567147" rx="1.10107527" ry="1.09155097"/><ellipse cx="56.0447312" cy="160.567147" rx="1.10107527" ry="1.09155097"/><ellipse cx="50.3191398" cy="160.348837" rx="1.2111828" ry="1.20070606"/><ellipse cx="50.3191398" cy="160.348837" rx="1.10107527" ry="1.09155097"/><ellipse cx="50.3191398" cy="160.348837" rx="1.10107527" ry="1.09155097"/><ellipse cx="33.6378495" cy="156.965029" rx="1.2111828" ry="1.20070606"/><ellipse cx="33.6378495" cy="156.965029" rx="1.10107527" ry="1.09155097"/><ellipse cx="33.6378495" cy="156.965029" rx="1.10107527" ry="1.09155097"/><ellipse cx="28.5178495" cy="155.273125" rx="1.2111828" ry="1.20070606"/><ellipse cx="28.5178495" cy="155.273125" rx="1.10107527" ry="1.09155097"/><ellipse cx="28.5178495" cy="155.273125" rx="1.10107527" ry="1.09155097"/><ellipse cx="34.0232258" cy="146.049519" rx="1.2111828" ry="1.20070606"/><ellipse cx="34.0232258" cy="146.049519" rx="1.10107527" ry="1.09155097"/><ellipse cx="34.0232258" cy="146.049519" rx="1.10107527" ry="1.09155097"/><ellipse cx="36.4455914" cy="134.861122" rx="1.2111828" ry="1.20070606"/><ellipse cx="36.4455914" cy="134.861122" rx="1.10107527" ry="1.09155097"/><ellipse cx="36.4455914" cy="134.861122" rx="1.10107527" ry="1.09155097"/><ellipse cx="36.3354839" cy="119.306521" rx="1.2111828" ry="1.20070606"/><ellipse cx="36.3354839" cy="119.306521" rx="1.10107527" ry="1.09155097"/><ellipse cx="36.3354839" cy="119.306521" rx="1.10107527" ry="1.09155097"/><ellipse cx="35.0692473" cy="110.082915" rx="1.2111828" ry="1.20070606"/><ellipse cx="35.0692473" cy="110.082915" rx="1.10107527" ry="1.09155097"/><ellipse cx="35.0692473" cy="110.082915" rx="1.10107527" ry="1.09155097"/><ellipse cx="36.6107527" cy="102.551213" rx="1.2111828" ry="1.20070606"/><ellipse cx="36.6107527" cy="102.551213" rx="1.10107527" ry="1.09155097"/><ellipse cx="36.6107527" cy="102.551213" rx="1.10107527" ry="1.09155097"/></g></g></g><path d="M110.933333 125.082151c.165162-3.193119-.110107-6.441291-.825806-9.579355-.330323-1.486452-.935914-2.91785-1.871828-4.184086-.88086-1.156129-2.257204-1.761721-3.688602-1.651613-1.431398.055054-2.807742.715699-3.743656 1.871828-.9359141 1.211183-1.5965593 2.64258-1.9268819 4.129032-.7156989 3.138065-1.0460215 6.331183-.8258064 9.524301.0550538.88086-.6055914.990968-.7156989.055054-.1651613-1.651613-.2752689-3.303226-.2202151-4.954839 0-1.651613.2202151-3.303226.5505376-4.954839.3303226-1.706666 1.0460215-3.303225 2.0920431-4.679569.5505376-.715699 1.2662366-1.321291 2.0920426-1.706667.825807-.385376 1.706667-.660645 2.642581-.660645 1.871828-.110108 3.688602.715699 4.844731 2.257204.550538.715699.990968 1.486452 1.266237 2.312258.330322.770753.550537 1.596559.715699 2.422366.330322 1.651613.495484 3.303225.495484 4.954838.055053 1.651613-.055054 3.303226-.220216 4.954839-.055053 1.101075-.660645.990968-.660645-.110107h0zm28.627957.110107c-.165161-1.651613-.275268-3.303226-.220215-4.954839 0-1.651613.165162-3.303225.495484-4.954838.165161-.825807.385376-1.651613.715699-2.422366.330323-.825806.715699-1.596559 1.266237-2.312258 1.156129-1.486452 2.972903-2.367312 4.844731-2.257204.935914.055053 1.816774.275269 2.64258.660645.825807.44043 1.541506.990968 2.092043 1.706667 1.046022 1.376344 1.761721 2.972903 2.092043 4.679569.330323 1.651613.550538 3.303226.550538 4.954839.055054 1.651613-.055054 3.303226-.220215 4.954839-.110107.935914-.770753.825806-.715699-.055054.165161-3.193118-.110107-6.44129-.825806-9.524301-.330323-1.486452-.990968-2.917849-1.926882-4.129032-.935914-1.156129-2.257204-1.816774-3.743656-1.871828-1.431398-.110108-2.807742.495484-3.688602 1.651613-.88086 1.211182-1.541505 2.64258-1.871828 4.184086-.660645 3.138064-.935914 6.331182-.825807 9.579355.110108 1.101075-.550537 1.211182-.660645.110107h0z" fill="#94b3ca"/><path d="M126.513548 144.075699c-4.129032-.330323-6.661505 2.477419-8.037849 4.899785 1.376344 3.963871 3.633548 6.991828 7.487312 6.771613 3.853763-.220215 6.166021-3.248172 7.76258-7.101936-1.376344-2.036989-3.578494-4.239139-7.212043-4.569462z" fill="#ff8aff"/><g transform="translate(126.623656 143.690323)"><mask id="d" fill="#fff"><use href="#h"/></mask><path d="M-3.35827957-1.2111828c0 0-4.45935484 8.14795699 5.61548387 12.4421505 10.0748387 4.2941936-2.3122580634 6.7716129-3.74365591 6.0008603-1.43139785-.7707527-10.18494619-9.13892477-10.18494619-9.13892477l-1.3212904-5.39526882 9.63440863-3.90881721h0z" fill="#ff8aff" opacity="0.35" mask="url(#d)"/></g><path d="M116.493763 131.578495c0 0-.550537 10.24 1.926882 17.396989 1.376344-2.367312 3.908817-5.230108 8.03785-4.899785 3.633548.330323 5.835699 2.532473 7.156989 4.569462 2.917849-7.156989 2.862796-17.066666 2.862796-17.066666-11.451183 7.927742-19.984517 0-19.984517 0h0z" fill="#733335"/><path d="M103.28086 147.764301c9.689463.220215 6.055914 24.609032 5.835699 32.536774-.220215 7.982796 1.431398 15.029678 1.596559 20.204731.110108 5.175054 2.807742 20.755269-8.863656 20.645162-11.6713975-.110108-4.5144082-30.444731-4.4043007-36.72086-.0550538 0-3.8537635-36.941076 5.8356987-36.665807zm32.812043 0c-9.689462.220215-6.055914 24.609032-5.835699 32.536774.220215 7.982796-1.431398 15.029678-1.596559 20.204731-.110107 5.175054-2.807742 20.755269 8.863656 20.645162 11.671398-.110108 4.514409-30.444731 4.404301-36.72086.055054 0 3.853764-36.941076-5.835699-36.665807h0z" fill="#cdeeee"/><g transform="translate(94.747527 147.544086)"><mask id="j" fill="#fff"><use href="#i"/></mask><path d="M15.0296774 28.5178495l-9.63440858 5.3952688c0 0-.16516129 14.0937634-1.48645162 20.8103226C2.58752688 61.44 3.41333333 70.9092473 8.14795699 74.4877419c4.73462361 3.5784947-9.41419355 1.6516129-9.41419355 1.6516129 0 0-10.12989244-8.5333333-9.85462364-11.0658064.2752688-2.5324731-1.9268817-33.2524731-1.3212903-37.2713979.6055914-4.0189247 5.11999996-28.90322577 5.11999996-28.90322577L4.67956989-3.4683871l3.63354839 1.43139785C6.88172043 4.12903226 6.05591398 10.3501075 5.89075269 16.6812903c-.16516129 9.304086 9.13892471 7.1569893 9.13892471 7.1569893v4.6795699zm35.2344086 0-10.1849462 5.3952688c0 0-.4404301 14.0937634-1.7617204 20.8103226-1.3212904 6.7165591-.6606452 16.1858064 4.0739784 19.764301 4.7346237 3.5784947-9.4692473 1.6516129-9.4692473 1.6516129 0 0-10.1849462-8.5333333-9.8546236-11.0658064.2752688-2.5324731-1.9268817-33.2524731-1.3212903-37.2713979.6055914-4.0189247 5.0649462-28.90322577 5.0649462-28.90322577L38.8129032-3.4683871l3.6335484 1.43139785c-1.1010753 6.16602151-1.7066667 12.44215055-1.9268817 18.71827955-.1651613 9.304086 9.6894624 7.1569893 9.6894624 7.1569893l.0550537 4.6795699h0z" fill="#9deeee" opacity="0.35" mask="url(#j)"/></g><path d="M186.026667 138.515269c0 0 .660645-7.872688 6.826666-6.166022 0 0 10.24 9.744516 0 20.424947-10.24 10.68043-20.535053 14.038709-33.252473 17.066666-12.717419 3.027957-12.221935 6.276129-24.223656 7.652473-12.00172 1.376344-14.479139-4.129032-14.369032-8.973763.110108-4.844731 4.459355-10.900645 15.304946-10.68043 10.845592.220215 9.634409 4.294193 20.645162 2.477419 11.010752-1.816774 22.461935-7.487312 26.260645-10.405161 3.798709-2.91785 7.156989-6.881721 2.807742-11.396129h0zm-118.0903229 2.036989c0 0-12.332043 2.697634-11.2309678 12.937634 1.1010753 10.24 9.9096775 12.332043 20.1496775 14.699355 10.24 2.367312 8.3131182 7.15699 20.5901075 8.313119 12.2769897 1.156129 17.1767737-4.404301 15.9655917-11.671398-1.211183-7.267097-13.378065-6.826667-27.4167745-6.936774-14.0387097-.110108-18.0576344-6.496345-18.0576344-6.496345v-10.845591h0z" fill="#ddf5f5"/><g transform="translate(56.209892 131.578495)"><mask id="k" fill="#fff"><use href="#l"/></mask><path d="M11.3410753 19.1587097c0 0-4.51440863 6.0008602 1.9268817 9.304086 6.4412903 3.3032258 14.203871 4.7896774 17.3419355 7.6524731 3.1380645 2.8627957 18.387957 6.1109678 28.4627957 0 10.0748387-6.1109677 3.1380645 14.0937635 3.1380645 14.0937635l-37.1062366-.7707527c0 0-22.73720427-11.2309678-22.73720427-11.9466667 0-.7156989-4.67956989-23.9483871-4.67956989-23.9483871 0 0 17.67225806-9.41419354 18.11268816-9.96473118.4404301-.55053763 10.1849462-1.15612903 10.1849462-1.15612903L11.3410753 19.1587097zM64.0275269 33.747957c0 0 .0550537 6.7716129 11.8916129 6.3311828 11.8365591-.4404301 16.7363441-3.8537635 16.7363441-3.8537635 0 0 8.2030111 1.2111828 26.0404301-6.0008602 17.837419-7.212043 23.783226-14.9746236 23.783226-14.9746236l-3.578495 13.3780645-43.5475267 19.323871H73.3316129c0 0-4.7896774-1.5965592-6.276129-1.871828-1.4864516-.2752688-4.7896774-3.7436559-4.7896774-3.7436559l1.7617204-8.5883871h0z" fill="#c2f5f5" opacity="0.35" mask="url(#k)"/></g><path d="M70.1384946 40.7948387h1.6516129v39.6387097h-1.6516129V40.7948387zm13.7634409 13.7634409h1.6516129v13.7634408h-1.6516129V54.5582796zM194.009462 34.7389247h1.651613v30.8301076h-1.651613V34.7389247zm-14.313978 21.4709678h1.651613v15.9655914h-1.651613V56.2098925z" fill="#249e7c"/></svg>