<svg width="256px" height="263px" viewBox="0 0 256 263" xmlns="http://www.w3.org/2000/svg" preserveAspectRatio="xMidYMid"><title>supabase</title><defs><linearGradient x1="20.8617445%" y1="20.6868812%" x2="63.4256086%" y2="44.0710077%" id="a"><stop stop-color="#249361"/><stop stop-color="#3ecf8e" offset="1"/></linearGradient><linearGradient x1="1.99116498%" y1="-13.1584008%" x2="21.4025077%" y2="34.708062%" id="b"><stop/><stop stop-opacity="0" offset="1"/></linearGradient></defs><path d="M149.601512 258.578826c-6.717427 8.459331-20.33763 3.824435-20.499488-6.977009l-2.36678-157.9841637h106.228378c19.240807 0 29.971776 22.2233027 18.007497 37.2922337L149.601512 258.578826z" fill="url(#a)"/><path d="M149.601512 258.578826c-6.717427 8.459331-20.33763 3.824435-20.499488-6.977009l-2.36678-157.9841637h106.228378c19.240807 0 29.971776 22.2233027 18.007497 37.2922337L149.601512 258.578826z" fill-opacity="0.2" fill="url(#b)"/><path d="M106.399023 4.36908575c6.717427-8.46027014 20.337866-3.824653358 20.499723 6.97693915l1.037155 157.9839281H23.0369844c-19.24139433 0-29.97266934-22.223302-18.00780265-37.292234L106.399023 4.36908575z" fill="#3ecf8e"/></svg>