<svg width="256" height="233" xmlns="http://www.w3.org/2000/svg" preserveAspectRatio="xMidYMid"><path d="M108.754 232.633h-1.782a43.106 43.106 0 01-21.43-7.816c-1.794-1.18-3.542-2.503-5.325-3.766l-.153-.106a95.906 95.906 0 00-11.476-7.51 42.906 42.906 0 00-19.847-4.946h-.957a34.24 34.24 0 00-7.816.79 11.44 11.44 0 00-5.29 10.06 18.76 18.76 0 001.725 6.895 17.899 17.899 0 011.594 4.144c-.201 0-.72-.625-1.689-1.83a53.272 53.272 0 00-28.005-20.225 10.272 10.272 0 01-6.518-15.868c34.429-50.58 38.726-68.668 54.725-135.907l1.38-5.81c1.016-4.281 2.087-8.76 3.212-13.435a10.355 10.355 0 016.057-7.084l19.399-8.135c1.25-.517 2.59-.782 3.943-.78.546.005 1.09.053 1.63.142a83.615 83.615 0 0130.449-4.722h13.424a83.603 83.603 0 0130.509 4.722 10.33 10.33 0 00-5.903 3.14l-58.397 4.428-4.18-4.45a10.355 10.355 0 00-5.903-3.118 34.417 34.417 0 00-10.626 6.411 49.517 49.517 0 00-11.511 37.404v73.072a49.588 49.588 0 0011.511 37.463 60.663 60.663 0 0041.064 11.098h13.424a60.663 60.663 0 0041.064-11.098 49.588 49.588 0 0011.535-37.463V65.237a49.588 49.588 0 00-11.511-37.391 34.511 34.511 0 00-10.567-6.4c.527-.079 1.06-.118 1.594-.118 1.354 0 2.694.269 3.943.791l19.399 8.076a10.355 10.355 0 016.045 7.084 4133.74 4133.74 0 018.82 37.959c12.29 53.945 16.883 74.122 47.9 119.756a10.272 10.272 0 01-6.506 15.868 47.132 47.132 0 00-26.341 18.607c-.626.815-.91 1.18-.98 1.18.278-.995.675-1.954 1.18-2.856l.697-1.594a18.89 18.89 0 001.712-6.895 11.11 11.11 0 00-3.837-8.903 59.305 59.305 0 00-12.987-1.629h-1.382a20.473 20.473 0 00-16.86 6.836c-.63.853-1.213 1.74-1.747 2.657l-.071.13a25.373 25.373 0 01-2.137 3.175 7.757 7.757 0 01-6.328 3.106 26.105 26.105 0 01-10.733-3.649c-1.417-.708-2.574-1.298-3.683-1.77a33.708 33.708 0 00-13.059-3.047 21.583 21.583 0 00-3.754.319 44.866 44.866 0 00-16.175 7.804c-1.181.744-2.256 1.476-3.377 2.184a35.078 35.078 0 01-19.092 6.116z" fill="#F93"/><path d="M138.98 219.292l.944-15.928 14.369-4.155 5.903 18.572a27.687 27.687 0 00-21.216 1.51zM55.27 202.573v6.4c-11.512-2.043-20.91 1.735-20.615 10.33h-.094v-2.455c-.472-16.612 7.721-30.532 12.326-45.905 3.778-12.704 5.502-51.347 8.56-38.584a84.418 84.418 0 01-.213 32.775 135.707 135.707 0 000 18.679l.036 18.76zM203.362 202.573v6.4c10.07.531 20.91 1.735 20.614 10.33h.095v-2.455c.472-16.612-7.722-30.532-12.327-45.905-3.778-12.704-5.501-51.347-8.56-38.584a84.312 84.312 0 00.225 32.775 135.93 135.93 0 010 18.679l-.047 18.76z" fill="#DB902E"/><path d="M135.992.253a75.374 75.374 0 0152.198 15.432 64.323 64.323 0 0116.86 49.588v73.13a64.311 64.311 0 01-16.86 49.59 75.35 75.35 0 01-52.198 15.43H122.58a75.362 75.362 0 01-52.198-15.43 64.311 64.311 0 01-16.86-49.59v-73.13a64.311 64.311 0 0116.86-49.588A75.386 75.386 0 01122.58.253h13.412zM96.204 44.312c-7.013 8.94-10.48 20.976-9.535 33.11v48.832c-.944 12.135 2.522 24.171 9.535 33.111 8.41 7.657 18.937 11.332 29.52 10.304h7.585c10.584 1.028 21.111-2.646 29.52-10.304 7.013-8.94 10.48-20.976 9.535-33.11V77.422c.944-12.134-2.523-24.171-9.535-33.111-8.41-7.656-18.936-11.33-29.52-10.304h-7.585c-10.583-1.026-21.11 2.648-29.52 10.304z" fill="#292E37"/><path d="M129.286 89.795c7.884 0 14.275 6.391 14.275 14.275 0 5.106-2.682 9.586-6.713 12.11l2.096 21.704a3.01 3.01 0 01-2.987 3.306h-13.342a3.01 3.01 0 01-2.998-3.306l2.096-21.712c-4.025-2.524-6.701-7-6.701-12.102 0-7.884 6.39-14.275 14.274-14.275z" fill="#292E37"/></svg>