<svg width="256px" height="233px" viewBox="0 0 256 233" xmlns="http://www.w3.org/2000/svg" preserveAspectRatio="xMidYMid"><title>SuperTokens</title><g transform="translate(0 16.680488)"><path d="M108.754325 215.952896c-.590337 0-1.180673 0-1.782817 0-7.7153186-.633892-15.1175632-3.333774-21.4292251-7.816059-1.7946238-1.180674-3.5420207-2.503028-5.3248378-3.766349l-.1534875-.10626c-3.6412856-2.773686-7.4764711-5.283128-11.476147-7.509084-6.1201547-3.224903-12.9293432-4.922137-19.8471226-4.947022h-.9563456c-2.6270741-.037069-5.2496853.228362-7.8160589.791051-3.4217262 2.178345-5.4342029 6.005644-5.2894176 10.059339.1300128 2.387216.7151045 4.727583 1.7237834 6.895133.7012449 1.30988 1.2366666 2.701976 1.5939093 4.144164h0c-.2007145 0-.7202109-.625757-1.6883632-1.830044-6.8294914-9.665292-16.682996-16.78125-28.00557682-20.224938-3.38995377-.662195-6.22013499-2.983804-7.532384227-6.178846-1.312249239-3.195042-.93085324-6.835692 1.015066167-9.689406C36.2137415 125.194519 40.5113933 107.1066 56.50952 39.8672411l1.3813881-5.8089139c1.0153793-4.2819095 2.0858566-8.7605979 3.2114321-13.4360652.7820007-3.187888 3.0291984-5.8161893 6.0568554-7.0840413l19.3984665-8.13484085c1.2503354-.51692274 2.5904747-.78174069 3.9434497-.77924455.5459636.00487369 1.0907193.05224375 1.6293296.14168082C101.900084 1.31883303 112.225229-.282585374 122.580012.0431218836h13.424259C146.378804-.290211683 156.724694 1.3113194 166.512876 4.76581612c-2.261541.36346925-4.338158 1.4682295-5.903368 3.14059167l-58.396114 4.42752581h0l-4.1795848-4.45113928c-1.5697136-1.66222914-3.6454287-2.7582067-5.9033678-3.1169782-3.901235 1.47548119-7.5017796 3.64780975-10.6260621 6.41105748-8.8102942 10.3583633-12.9730395 23.8840833-11.5115672 37.4037383v73.0718871c-1.4696448 13.538504 2.6931084 27.085597 11.5115672 37.462772 11.8997304 8.534508 26.4850007 12.476473 41.0638267 11.098331h13.424258c14.578825 1.378142 29.164096-2.563823 41.063827-11.098331 8.826925-10.373422 12.998343-23.920924 11.53518-37.462772V48.5569985c1.449652-13.5149073-2.711878-27.0324105-11.511567-37.3919317-3.108784-2.75128448-6.688467-4.91909222-10.567028-6.39925068.527585-.07931354 1.060395-.11878093 1.593909-.11806735 1.353923-3.1634e-4 2.694397.26858096 3.94345.79105128l19.398466 8.07580715c3.02312 1.2708518 5.265517 3.8986615 6.045049 7.0840414 3.542021 14.9237138 6.611772 28.2417115 8.819631 37.9586549 12.290812 53.9449745 16.883632 74.1226865 47.899927 119.7557195 1.945792 2.852054 2.328607 6.490854 1.018941 9.685395-1.309667 3.19454-4.136601 5.517438-7.524453 6.182857-10.695136 2.912119-20.021739 9.500522-26.340827 18.607416-.625757.814664-.909118 1.180673-.979959 1.180673.278393-.996022.674758-1.955226 1.180674-2.85723l.696597-1.593909c1.001602-2.16942 1.582533-4.509167 1.711977-6.895134.151256-3.398386-1.262707-6.678779-3.837189-8.902278-4.255757-1.02065-8.611416-1.567087-12.987409-1.62933h-1.381388c-6.379412-.480726-12.616797 2.048298-16.860019 6.8361-.630285.853109-1.213616 1.739929-1.747397 2.656516l-.07084.129874c-.631347 1.110973-1.34572 2.172664-2.137019 3.176012-1.490194 1.989123-3.843295 3.143723-6.328411 3.105171-3.801477-.415321-7.465285-1.660774-10.732322-3.648281-1.416809-.708404-2.573869-1.298741-3.683702-1.771011-4.104836-1.879612-8.545428-2.915482-13.058249-3.046137-1.258415-.003401-2.514715.103266-3.754542.318781-5.862626 1.484654-11.364582 4.139247-16.175228 7.804253-1.180674.743824-2.255087 1.475842-3.376726 2.184246-5.633383 3.852425-12.268214 5.977869-19.091492 6.115889h0z" fill="#f93"/><g style="fill:#db902e"><path d="M138.979568 202.611285l.944539-15.927287 14.368797-4.155971 5.903368 18.571995c-6.991348-2.341339-14.627804-1.797395-21.216704 1.511263z"/><path d="M55.2698128 185.892947c0 .377816 0 5.903368 0 6.399251-11.5115672-2.042566-20.9097287 1.73559-20.6145604 10.330893h-.0944538v-2.455801c-.4722695-16.612077 7.721605-30.532218 12.3262319-45.904588 3.7781554-12.704047 5.5019388-51.347493 8.5598833-38.584412 2.0711099 10.834132 1.9989088 21.969136-.2125212 32.775498-.4289784 6.218696-.4289784 12.45956 0 18.678256l.0354202 18.760903z"/><path d="M203.361697 185.892947c0 .377816 0 5.903368 0 6.399251 10.071146.531303 20.909729 1.73559 20.614561 10.330893h.094454v-2.455801c.472269-16.612077-7.721605-30.532218-12.326232-45.904588-3.778156-12.704047-5.501939-51.347493-8.559884-38.584412-2.06997 10.834651-1.993754 21.970196.224328 32.775498.428269 6.218721.428269 12.459536 0 18.678256l-.047227 18.760903z"/></g></g><g style="fill:#292e37"><path d="M135.992464.253213765C154.706391-1.28419054 173.320335 4.21873292 188.190042 15.6846172c12.399927 13.3893424 18.528845 31.4155709 16.860019 49.5882895h0v73.1309203c1.670342 18.172899-4.45878 36.199729-16.860019 49.58829-14.868652 11.467948-33.483413 16.971113-52.197578 15.431403h0-13.412452c-18.714046 1.538557-37.3283977-3.964487-52.1975776-15.431403-12.4012388-13.388561-18.5303611-31.415391-16.8600185-49.58829h0V65.2729067c-1.6703426-18.1728984 4.4587797-36.1997287 16.8600185-49.5882895C85.2526681 4.21976452 103.866204-1.28303832 122.580012.253213765h0 13.412452zM96.2043664 44.311675c-7.013351 8.9398442-10.4795923 20.9767657-9.5349528 33.1112201v48.8311659c-.9446395 12.134455 2.5216018 24.171376 9.5349528 33.111221 8.4090616 7.656718 18.9361536 11.331225 29.5196266 10.303896h7.585228c10.58354 1.028099 21.110864-2.646488 29.519627-10.303896 7.013351-8.939845 10.479592-20.976766 9.534953-33.111221V77.4228951c.943782-12.1343343-2.522344-24.170854-9.534953-33.1112201-8.40936-7.6560298-18.936221-11.330456-29.519627-10.3038964h-7.585228c-10.583339-1.0257902-21.109969 2.6485555-29.5196266 10.3038964z"/><path d="M129.286238 89.7954966c7.883502 0 14.274344 6.3908412 14.274344 14.2743434 0 5.106359-2.681282 9.586472-6.712743 12.109236l2.096309 21.705255c.083167.844173-.193638 1.684262-.762335 2.31365-.568697.629387-1.376513.989669-2.224769.992241h-13.341611c-.850313 7.56e-4-1.661299-.358082-2.232609-.987873-.571311-.629792-.849667-1.471801-.766302-2.318018l2.096331-21.712638c-4.024901-2.524115-6.700958-7.000471-6.700958-12.101853 0-7.8835022 6.390841-14.2743434 14.274343-14.2743434z"/></g></svg>