<svg width="256px" height="299px" viewBox="0 0 256 299" xmlns="http://www.w3.org/2000/svg" preserveAspectRatio="xMidYMid"><title>SurrealDB</title><defs><linearGradient x1="31.0469515%" y1="11.7049903%" x2="68.9568365%" y2="88.3026737%" id="a"><stop stop-color="#ff00a0" offset="0%"/><stop stop-color="#9600ff" offset="100%"/></linearGradient></defs><path d="M128 78.567619l71.100952 39.375238V102.15619L128 62.872381c-10.575238 5.8514285-61.6838095 34.1028571-71.1009524 39.283809 8.7466667 4.845715 100.6019044 55.588572 156.4342854 86.430477v15.725714C205.744762 208.518095 128 251.459048 128 251.459048c-21.272381-11.733334-64.0914286-35.382858-85.3333333-47.146667v-47.146667L128 204.312381l14.232381-7.862857-113.7980953-62.841905v78.598095L128 267.184762c9.813333-5.424762 92.281905-50.986667 99.535238-55.009524v-31.420952L85.3333333 102.15619 128 78.567619zm-99.5657143 7.8628572v31.4514288L170.63619 196.48l-42.666666 23.588571-71.1009526-39.375238V196.48l71.1009526 39.28381c10.575238-5.851429 61.683809-34.102858 71.100952-39.28381-8.746666-4.845714-100.5714284-55.588571-156.4038093-86.460952V94.2933333C50.2552381 90.087619 128 47.1466667 128 47.1466667 149.241905 58.9104762 192.060952 82.56 213.333333 94.2933333V141.44L128 94.2933333l-14.232381 7.8628567 113.767619 62.872381V86.4304762L128 31.4209524c-9.84381 5.4552381-92.2819048 51.0171428-99.5657143 55.0095238zM128 0 0 70.7352381V227.900952l128 70.735238 128-70.704761V70.7352381L128 0zm113.737143 220.038095L128 282.910476 14.232381 220.038095V78.5980952L128 15.7257143l113.767619 62.8723809-.030476 141.4399998z" fill="url(#a)"/></svg>