<svg width="256px" height="258px" viewBox="0 0 256 258" xmlns="http://www.w3.org/2000/svg" preserveAspectRatio="xMidYMid"><title>Survicate</title><path d="M64.076722 59.9195338V.0284341324c-16.9587898 0-33.2259888 6.7535240676-45.2368573 18.7808581676C7.12197951 30.5432626.387789129 46.3631112.0159379139 62.9478083L0 64.3987513c.0567543462 17.0060313 6.81042691 33.2974699 18.7857807 45.3175107 11.6831937 11.726158 27.410072 18.456256 43.889752 18.816782l1.3960939.015075c16.9269801-.043675 33.1492667-6.814729 45.1241764-18.834041 11.974182-12.0193127 18.727038-28.3107513 18.783816-45.3153267V.0284341324C111.760244.0331968722 96.1464926 6.21659484 84.2873211 17.3314817 72.427713 28.4463613 65.2053526 43.6655827 64.076722 59.9195338zm127.800624 68.6460552h64.076796c-.005096-16.292166-6.158879-31.9772526-17.222441-43.8902896-11.062834-11.9139107-26.211447-19.169901-42.390787-20.3049368h59.613228c.001455-17.0360214-6.720101-33.377759-18.692099-45.4438034C225.582755 7.15478713 209.835118.389576957 193.326507.0160114383L191.882442 0c-16.930547.0529465564-33.152106 6.83577287-45.120464 18.8664335-11.676447 11.7371659-18.377619 27.538386-18.736764 44.0961487l-.015023 1.4026122c.043675 17.0068322 6.784884 33.3048218 18.751787 45.3343256 11.966903 12.029503 28.186278 18.812203 45.115368 18.866069zm-127.7722353-7.28e-4H.0284341324c0 16.287071 6.1481691376 31.96779 17.2018675676 43.882283 11.0537348 11.915221 26.1923763 19.176889 42.3648737 20.323353H.0284341324c0 17.036094 6.7228861676 33.377759 18.6954738676 45.442202 11.6806372 11.770898 27.4283076 18.535343 43.9369196 18.907658l1.4442831.015916c16.9284359-.057505 33.1456272-6.841661 45.1103463-18.871892 11.672896-11.736811 18.372596-27.535736 18.730995-44.091427l.014969-1.402457c-.041492-17.005522-6.781245-33.303512-18.745964-45.333743-11.9647191-12.030231-28.1819104-18.815116-45.1103463-18.871893zm127.9818753.02111h-.158685c-16.930547.040763-33.157201 6.811817-45.133567 18.834041-11.977093 12.022224-18.72995 28.317302-18.784543 45.325736v64.370145c16.216463-.001457 31.828758-6.179261 43.689385-17.287954 11.860628-11.108692 19.087356-26.32209 20.223629-42.572038v59.859992c16.958208.001455 33.225625-6.750674 45.23693-18.777265 11.717637-11.73326 18.452377-27.552191 18.82395-44.136573L256 192.750843c-.053865-17.007705-6.805994-33.302784-18.781631-45.325736-11.975638-12.022952-28.200836-18.795462-45.131383-18.839136z" fill="#171d1a"/></svg>