<svg width="512px" height="238px" viewBox="0 0 512 238" xmlns="http://www.w3.org/2000/svg" preserveAspectRatio="xMidYMid"><g style="fill:#0d2c40"><path d="M503.297609 218.598545c4.419663-8.84e-4 8.02752 3.534816 8.115913 7.953596-9.1e-4 4.371317-3.529369 7.92263-7.90059 7.951761-4.37122.029132-7.946699-3.474837-8.005871-7.845754-.059173-4.370917 3.42014-7.970392 7.790548-8.059603zm.071988 1.596334c-3.504046-.009805-6.355407 2.817494-6.375453 6.321498-.01881 3.358003 2.56953 6.124004 5.869195 6.374922l.423434.018307.492301-.011723c1.349271-.085424 2.636396-.600974 3.671551-1.470619l.376002-.342567c1.211496-1.196225 1.890078-2.830022 1.882676-4.532556-2.5e-4-3.50406-2.83566-6.347354-6.339706-6.357262zm-3.047823 2.407517h3.408683c1.716967 0 2.844778.824817 2.987522 2.21051l.015366.305423c.091387 1.00673-.469071 1.946738-1.37004 2.355575l-.280195.106252 1.86666 2.705305h-1.974873l-1.650235-2.461827h-1.3256v2.380668h-1.677288v-7.601906h3.408683-3.408683zm3.354577 1.487917h-1.677289v2.245403h1.704342v-.054106c.865698 0 1.325599-.297583 1.325599-1.055069 0-.67332-.427504-1.047387-1.092512-1.1222l-.26014-.014028z"/><path d="M215.12858 128.160218v63.222965c-.293777 8.730902 4.196454 16.927304 11.71247 21.379772 7.516016 4.452467 16.861773 4.452467 24.377789 0 7.281141-4.313328 11.722653-12.140251 11.72605-20.562914l-.01358-.816858v-63.222965h23.022141v61.789153c.409006 17.032763-8.444032 32.949675-23.130443 41.586318-14.686411 8.636643-32.899714 8.636643-47.586125 0-14.398442-8.467297-23.190028-23.932162-23.144026-40.585724l.013583-1.000594v-61.789153h23.022141zm-95.202305.036753.949498.017353h59.435539v22.021178h-59.516698c-4.482295 0-8.115913 3.633619-8.115913 8.115914 0 4.90433 2.968312 7.972332 8.832167 9.08272l.663451.115315 36.629823 5.410609c19.153555 2.975835 27.485893 17.395107 27.485893 31.327425-.089811 8.268482-3.510772 16.151248-9.488708 21.864403-5.748015 5.493419-13.392873 8.53438-21.319164 8.507329l-.952402-.018216H93.2816681v-1.974872c0-12.953336 8.8706509-19.681654 17.4943549-20.184953l.550026-.023672h43.284871c4.482295 0 8.115913-3.633618 8.115913-8.115913 0-4.930417-2.943157-7.99935-8.829472-9.109772l-.666147-.115316-36.629822-5.410609c-19.1265021-2.948782-27.4858928-17.368054-27.4858928-31.273319.1332265-8.242452 3.572245-16.085821 9.5444781-21.76809 5.7425317-5.463721 13.3641787-8.488878 21.2662977-8.467514h0zm203.600671-9.22e-4.950039.018275h59.381433v22.021178H324.34172c-4.482295 0-8.115913 3.633619-8.115913 8.115914 0 4.90433 2.968312 7.972332 8.832167 9.08272l.663451.115315 36.629822 5.410609c19.207662 2.975835 27.567053 17.395107 27.567053 31.327425-.097042 8.270934-3.524018 16.153568-9.506216 21.86593-5.752113 5.492656-13.399666 8.532834-21.328415 8.505796l-.952696-.01821h-59.246168v-22.183497h59.327327c4.482295 0 8.115913-3.633618 8.115913-8.115913 0-4.930417-2.968313-7.99935-8.856424-9.109772l-.666248-.115316-36.602769-5.410609c-19.153555-2.948782-27.512946-17.368054-27.512946-31.273319.133058-8.247306 3.575797-16.094943 9.553962-21.778015 5.748235-5.464493 13.376607-8.486622 21.283326-8.458511h0zm103.26095-.053157.95056.017326h64.305086v1.947819c0 12.926847-8.896588 19.68055-17.521373 20.184919l-.55006.023705h-46.314812c-4.322214 0-7.855287 3.378709-8.102136 7.639042l-.013778.476872v20.154518c2.497915-4.135744 6.907478-6.715437 11.706551-6.889746l.656691-.00878h48.235578c-3.133144 12.2405-12.989859 22.891319-30.056124 23.281596l-.973718.011075h-20.073359c-2.528333-.196545-5.019434.701426-6.840863 2.465935-1.681319 1.628778-2.642768 3.851311-2.689339 6.176108l.00753.583045c0 4.322213 3.378709 7.855287 7.639042 8.102136l.476872.013777h46.314811c8.635558.264895 17.686116 6.72887 18.059475 19.391925l.011959.816699v1.974873h-64.25098c-8.24348.284248-16.255202-2.757164-22.233366-8.440236-5.748235-5.464492-9.152327-12.930247-9.523965-20.828277l-.029996-.949738v-45.85491c.118853-8.251908 3.551582-16.109259 9.525422-21.803234 5.744076-5.474976 13.373375-8.507357 21.284292-8.486449h0z"/></g><path d="M48.5359327 27.6311052l1.3526522-.8386443C94.0674087-.402461705 125.994156-.573650697 149.681491.196572113l3.25214.110958303C181.258168 1.30849306 211.449366 11.047589 215.588482 12.4543473l.162318-9.38740636c-.015509-.12003253.031792-.23960643.125218-.31654629.062285-.05129324.139236-.07883294.217639-.08016373l1.900407.27168469c8.332327 1.25891702 42.577306 7.03268644 57.922707 15.97810929 1.443031.8955566 2.756158 1.9828761 3.903854 3.2311678l.559898.6374176c4.490805 4.6260706 9.847308 22.9139286 11.416385 28.3245375.378742 1.3526522-1.217387 2.4077209-1.650236 2.7053044l-1.569161 1.0857032c-4.574177 3.0975366-13.098227 8.123926-23.617223 7.1654753-10.821218-.9468565-24.942907-7.1149506-41.824007-18.2337519l4.869548 11.5245969.243477.2705305 2.329252 1.164201c6.774997 3.3349841 25.391757 12.0563758 35.355639 11.8483133 7.83441-.5213928 15.454719-2.7471719 22.330595-6.5151892l1.331645-.7485769c.445472-.2247195 1.890713-.8237415 1.361826 1.1768311l-.732862 2.7887885c-.105465.3859286-.210507.7507219-.310899 1.0622547l-.146573.4233378-.324636.8386444c-.315037 1.1605407-.920168 2.2218466-1.758448 3.0840471-3.694314 2.7329576-7.768286 4.9112112-12.092711 6.4656776-11.288927 4.5409162-23.382825 6.7406435-35.5477 6.4656776-4.308198-.0946857-8.512832-.5207711-12.32393-.9520347l-3.720641-.417535c-11.77339-1.2783723-20.152403-1.6062652-21.99201 9.4313769-1.281412 7.6623239 2.568927 16.7150236 8.154288 24.9343416l.583846.84721H188.29196l-.608771-1.107414c-7.004782-13.051139-10.831661-30.4905421-36.291582-30.4905421-23.312227 0-22.508423 22.3640121-19.941735 30.9850401l.193013.612916h-21.209587c-8.738133-31.8143805-31.9766982-45.5032209-47.3157744-48.2085254l-1.0542639-.1722044c-10.9793106-1.6881576-29.7381124-1.2865129-39.8228862 17.7566833-4.2876641 9.0588675-3.9444003 19.6293285.9219634 28.3909285 4.8663637 8.761601 13.658714 14.639275 23.6151479 15.786693 10.1989977 1.109175 17.8550093-1.271493 22.1834964-6.84442 4.331972-5.594837 5.1281037-13.158088 2.0560313-19.532298-2.6238565-6.1956705-8.5168134-10.382496-15.2308639-10.8212181-3.984666-.651305-8.0170029.8505348-10.6047934 3.9497445-.6243939.9884578-1.0152958 2.1033433-1.1464967 3.2600726l-.0438373.58146.0117685.438161c.1838845 3.04399 2.4779734 5.577081 5.5341056 6.027516.890544-.01737 1.7772061-.113654 2.649618-.287418l.8672778-.199537.8927504-.297583.6222201-.189371h.4328487c3.0502992-.61528 6.1082477 1.020092 7.290051 3.898674 1.1196031 2.727078.2570832 5.843434-2.0497949 7.6141l-.3977612.282353h-.1893713l-.2975835.189371c-.8432714.531696-1.7528489.950102-2.7053044 1.24444-2.3824543.785702-4.8768599 1.178593-7.3854811 1.163281-10.6418966-.389574-19.0991966-9.073197-19.2076615-19.721669-.009046-7.3560347 3.7608393-14.2010839 9.9825733-18.1255398 9.6710552-5.7005896 21.6731272-5.5866979 31.214441.2323109l.7893105.4981213c12.9026187 8.0918715 18.8582347 23.7709426 14.581591 38.3882696-5.6270333 17.259843-21.1013747 26.539037-41.6075823 24.645324-14.4528104-1.239743-27.639204-8.742346-36.0887612-20.533261-3.51385132-5.00761-6.09800776-10.606615-7.62895851-16.52941-2.36639192-10.995666-1.492434821-22.4416847 2.51593313-32.950608C11.484329 58.4273072 26.0241386 41.9238602 47.0579273 28.5584749l2.8306576-1.766014-1.3526522.8386443zM273.81546 25.3818937c-4.811502-5.1524143-12.253857-6.8974166-18.854151-4.4207163-6.600295 2.4767004-11.057527 8.6869143-11.291767 15.7326977-.289274 9.5922339 7.210367 17.6232501 16.79994 17.9902745 7.045317.2478815 13.545656-3.774464 16.46769-10.1900428 2.922033-6.4155788 1.689791-13.9597988-3.121712-19.1122131zm-12.8882-.4623682.570238.0062753c4.349305.1449767 8.290884 2.5992673 10.339983 6.4383643 2.049099 3.8390969 1.89441 8.47975-.405796 12.1738701-2.300206 3.6941201-6.396473 5.8804825-10.745778 5.7355055-3.234382-.1195917-6.288001-1.5222319-8.486056-3.8979589-2.198056-2.375727-3.359586-5.5289538-3.227913-8.7628658.228278-6.493552 5.524835-11.6149251 11.955322-11.6931905h0zm2.463951 6.1743694.108212.0270531c-2.948782 0-5.518821 1.5961296-5.518821 3.5710018 0 1.9748723 2.407721 3.5980549 5.410609 3.5980549 3.002888 0 5.410609-1.5961296 5.410609-3.5980549 0-1.8965608-2.185227-3.4289172-4.945513-3.5849642l-.465096-.0130907z" fill="#02d35f"/></svg>