<svg width="512px" height="92px" viewBox="0 0 512 92" xmlns="http://www.w3.org/2000/svg" preserveAspectRatio="xMidYMid"><title>SvelteKit</title><path d="M428.990414 70.1906599l-13.730239-25.5097643-8.643662 10.455331v15.0544333h-7.24831V21.4007513h7.24831v23.6285736l18.819269-23.6285736h8.363937l-13.65908 17.1466446 17.354393 31.643264h-8.504618zm24.184752 0V21.4007513h7.248309v48.7899086h-7.248309zm45.025073-41.8196879v41.8196879h-7.249127V28.370972h-13.799761v-6.9702207H512v6.9702207h-13.799761z" fill="#8d8d93"/><path d="M122.204193 71.0265629c-3.974654.1000052-7.886487-1.0054819-11.220893-3.1710332-3.115299-2.0546108-5.428867-5.1184785-6.552269-8.6771968l6.830358-2.5093448c.947414 2.1847543 2.49437 4.0564153 4.461693 5.3981995 1.997288 1.338314 4.357044 2.0317386 6.760836 1.986701 2.310686.1206939 4.590948-.5695758 6.446759-1.951531 1.63685-1.3747071 2.528301-3.4417201 2.404653-5.5756857.009255-.9807041-.217997-1.9491923-.662507-2.8234219-.38651-.7820663-.891989-1.4994487-1.498409-2.1265635-.766787-.698364-1.636618-1.274389-2.578867-1.707794-1.162521-.5796248-2.126836-1.0210231-2.892944-1.3241947-.766108-.3031716-1.892914-.7096724-3.380418-1.2195023-1.85829-.6505103-3.252006-1.1614308-4.181151-1.5327615-1.258619-.535735-2.480984-1.1529285-3.659325-1.8476565-1.268289-.6727303-2.421275-1.5432678-3.415588-2.5788671-.860305-1.0105034-1.554135-2.1516094-2.055405-3.380418-1.975636-4.8040786-.658135-10.3332978 3.271636-13.7302386 2.787979-2.4624514 6.574625-3.6939497 11.359938-3.694495 3.996303 0 7.284025.8827964 9.863165 2.6483894 2.503429 1.6646888 4.341419 4.1570364 5.192086 7.0405608l-6.690496 2.2296199c-.672195-1.5100045-1.807412-2.7669648-3.241373-3.5889847-1.734145-.9625262-3.698351-1.432861-5.680378-1.3601827-1.943705-.1113106-3.869076.4283112-5.471811 1.5335794-1.328126 1.0297775-2.069555 2.6433328-1.985884 4.3218312.011788 1.2823516.569234 2.4989748 1.532762 3.3452479.926135.9121009 2.013206 1.6447646 3.206203 2.1609156 1.116719.4645723 2.813062 1.0916359 5.08903 1.8811908 1.392627.512011 2.426191.8953377 3.100693 1.14998.674503.2546424 1.661991.6843172 2.962467 1.2890246 1.042627.4611173 2.045032 1.0082817 2.996818 1.6358181.852301.6128099 1.66704 1.2762371 2.439823 1.986701.840413.7286322 1.558403 1.5874584 2.126563 2.543697.541346.991623.96228 2.044371 1.253855 3.1358632.355951 1.2824621.53212 2.6081346.523766 3.9390498 0 4.5541174-1.557058 8.1202007-4.670565 10.6982499-3.113507 2.5780492-7.108447 3.8698002-11.984821 3.8752529zm44.676645-.835903-16.727876-48.7899086h7.806942l11.081849 34.0135643c.612322 1.8295328 1.124277 3.691139 1.53358 5.5765037.407758-1.8857439.919736-3.7474344 1.533579-5.5765037l10.941987-34.0135643h7.736601l-16.658353 48.7899086h-7.248309zm38.682188 0V21.4007513h30.249547v6.8311761h-23.000419v13.3818094h14.845867v6.8311761h-14.845867v14.9145709h24.53727v6.8311761h-31.786398zm50.25233 0V21.4007513h7.249946v41.819688h23.836322v6.9702206h-31.086268zm58.406883-41.8196879v41.8196879h-7.249128V28.370972h-13.79976v-6.9702207h34.849467v6.9702207h-13.800579zm28.783036 41.8196879V21.4007513h30.249547v6.8311761h-22.997965v13.3818094h14.845048v6.8311761h-14.845048v14.9145709h24.53727v6.8311761h-31.788852z" fill="#4a4a55"/><path d="M71.3662407 12.1215736C62.8599869-.0530021121 46.0593178-3.66407041 33.9125511 4.07743841L12.5798481 17.6743579C6.75224647 21.3402051 2.73831157 27.291185 1.52253617 34.0677083.50491691 39.7125268 1.39918803 45.5355069 4.06377948 50.6148255 2.2373614 53.3847157.99191867 56.4963748.402818733 59.761502-.82510444 66.667989.780799164 73.7779525 4.85796914 79.4861958 13.3642229 91.6624073 30.1657099 95.2718398 42.3108408 87.530331l21.3335209-13.5969195c5.8276739-3.6657726 9.8416328-9.616788 11.0573119-16.3933503 1.0171071-5.6450039.1231672-11.4679893-2.5404254-16.5479352 1.8254766-2.7699122 3.0703335-5.8812197 3.659325-9.1458586 1.228867-6.9065087-.3771189-14.0168365-4.4551504-19.7246938" fill="#ff3e00"/><path d="M31.8285189 80.6320864c-6.876493 1.7874499-14.137922-.9042782-18.1878428-6.742024-2.45145-3.4321446-3.4172693-7.7069857-2.6794699-11.8596807.1236085-.6748507.2938693-1.3403166.5095573-1.9916085l.4015933-1.2268635 1.0935444.8023687c2.5231681 1.8552038 5.344608 3.2659238 8.3426719 4.171336l.7925539.2404652-.0727939.791736c-.0971058 1.1257508.2077389 2.2495033.8604403 3.1718511 1.2194863 1.7599159 3.4078253 2.571561 5.4799904 2.0325039.4628335-.1230761.9041442-.3161496 1.3086544-.5725363l21.3343387-13.601009c1.055323-.6646654 1.7825417-1.7424331 2.0038771-2.9698276.2210383-1.2518434-.0701316-2.5400049-.8080941-3.5750803-1.2196654-1.7597344-3.4075254-2.571855-5.4799904-2.0341397-.4628802.1229425-.9042107.3160246-1.3086544.5725363l-8.1414663 5.1896327c-1.3396209.8512781-2.8014676 1.4928357-4.3349178 1.9024563-6.8764931 1.78745-14.137922-.9042782-18.1878428-6.742024-2.4521666-3.4318306-3.4183242-7.7068641-2.6802878-11.8596807.7332405-4.0754286 3.1495916-7.6533384 6.6561435-9.8558036l21.331885-13.5961016c1.3392535-.8525452 2.8011722-1.4949619 4.3349178-1.9049101 6.8765057-1.78770045 14.1380758.90408 18.1878428 6.7420241 2.451736 3.4320236 3.4178525 7.7068751 2.6802878 11.8596807-.1253166.6758622-.2966585 1.3423739-.5128289 1.9948801l-.4015933 1.2268635-1.0927265-.800733c-2.5230255-1.855437-5.344507-3.2661778-8.3426719-4.1713359l-.7933718-.2404653.0736118-.7917359c.0960349-1.1256546-.2087116-2.2490452-.8604403-3.1718512-1.2188881-1.7582464-3.405016-2.569677-5.4759008-2.0325039-.462859.1230034-.9041805.3160815-1.3086544.5725363L25.2140887 35.7591441c-1.0551838.6642759-1.782184 1.7418628-2.0030592 2.9690097-.2221117 1.2518958.068507 2.5405217.8064583 3.5758982 1.2198192 1.7595363 3.4075381 2.5716045 5.4799904 2.0341398.4627281-.123378.9039942-.3164319 1.3086544-.5725364l8.1398305-5.1871789c1.3391025-.8526354 2.8010784-1.4948014 4.3349178-1.9040922 6.8743619-1.7869158 14.1336483.9029907 18.1837532 6.7379344 2.4521667 3.4318307 3.4183243 7.7068642 2.6802879 11.8596808-.7316043 4.0751815-3.1453537 7.6539436-6.6496003 9.8590752l-21.331885 13.5961016c-1.3391866.8526705-2.8011251 1.4950959-4.3349178 1.9049101" fill="#fff"/></svg>