<svg width="512" height="92" xmlns="http://www.w3.org/2000/svg" preserveAspectRatio="xMidYMid"><path d="M428.99 70.19l-13.73-25.51-8.643 10.456v15.055h-7.249V21.4h7.249v23.628l18.819-23.628h8.364l-13.66 17.146 17.355 31.644h-8.505zm24.185 0V21.4h7.248v48.79h-7.248zM498.2 28.372v41.82h-7.249V28.37h-13.8v-6.97H512v6.97h-13.8z" fill="#8D8D93"/><path d="M122.204 71.027a19.692 19.692 0 01-11.22-3.171 16.257 16.257 0 01-6.553-8.678l6.83-2.509a12.604 12.604 0 004.462 5.398 11.75 11.75 0 006.76 1.987c2.312.12 4.592-.57 6.448-1.952a6.77 6.77 0 002.404-5.575c.01-.981-.218-1.95-.662-2.824a8.436 8.436 0 00-1.499-2.126 10.095 10.095 0 00-2.578-1.708c-1.163-.58-2.127-1.021-2.893-1.324a83.322 83.322 0 00-3.38-1.22c-1.86-.65-3.253-1.161-4.182-1.533a31.483 31.483 0 01-3.66-1.847 13.514 13.514 0 01-3.415-2.58 12.495 12.495 0 01-2.055-3.38 12.077 12.077 0 013.271-13.73c2.788-2.462 6.575-3.694 11.36-3.694 3.997 0 7.284.883 9.863 2.648a12.807 12.807 0 015.193 7.04l-6.691 2.23a7.787 7.787 0 00-3.241-3.589 10.883 10.883 0 00-5.68-1.36 8.757 8.757 0 00-5.473 1.534 5.145 5.145 0 00-1.985 4.322 4.507 4.507 0 001.532 3.345 10.526 10.526 0 003.207 2.16c1.116.465 2.813 1.092 5.089 1.882 1.392.512 2.426.895 3.1 1.15.675.255 1.662.684 2.963 1.289a20.53 20.53 0 012.997 1.636 26.227 26.227 0 012.44 1.986c.84.73 1.558 1.588 2.126 2.544.541.992.962 2.045 1.254 3.136a14.39 14.39 0 01.524 3.94c0 4.553-1.557 8.12-4.671 10.697-3.113 2.578-7.108 3.87-11.985 3.876zm44.677-.836L150.153 21.4h7.807l11.082 34.013a52.993 52.993 0 011.533 5.577c.408-1.886.92-3.748 1.534-5.577l10.942-34.013h7.737l-16.659 48.79h-7.248zm38.682 0V21.4h30.25v6.83h-23v13.383h14.845v6.83h-14.846V63.36h24.537v6.832h-31.786zm50.252 0V21.4h7.25v41.82h23.837v6.97h-31.087zm58.407-41.82v41.82h-7.249V28.37h-13.8v-6.97h34.85v6.97h-13.8zm28.783 41.82V21.4h30.25v6.83h-22.998v13.383h14.845v6.83h-14.845V63.36h24.537v6.832h-31.789z" fill="#4A4A55"/><path d="M71.366 12.122C62.86-.053 46.06-3.664 33.913 4.077L12.58 17.674A24.473 24.473 0 001.523 34.068a25.776 25.776 0 002.54 16.547 24.527 24.527 0 00-3.66 9.147 26.081 26.081 0 004.455 19.724c8.506 12.176 25.308 15.786 37.453 8.044l21.333-13.597A24.472 24.472 0 0074.702 57.54a25.788 25.788 0 00-2.54-16.548 24.537 24.537 0 003.659-9.146 26.073 26.073 0 00-4.456-19.724" fill="#FF3E00"/><path d="M31.829 80.632A16.947 16.947 0 0113.64 73.89a15.684 15.684 0 01-2.68-11.86c.124-.674.294-1.34.51-1.991l.401-1.227 1.094.802a27.509 27.509 0 008.343 4.172l.792.24-.073.792a4.78 4.78 0 00.86 3.172 5.104 5.104 0 005.48 2.032 4.701 4.701 0 001.31-.572l21.334-13.601a4.441 4.441 0 002.004-2.97 4.739 4.739 0 00-.808-3.575 5.107 5.107 0 00-5.48-2.034 4.692 4.692 0 00-1.31.572l-8.14 5.19a15.579 15.579 0 01-4.335 1.902 16.947 16.947 0 01-18.188-6.742 15.68 15.68 0 01-2.68-11.86 14.716 14.716 0 016.656-9.855L40.062 12.88a15.55 15.55 0 014.335-1.905 16.946 16.946 0 0118.188 6.742 15.684 15.684 0 012.68 11.86 15.093 15.093 0 01-.512 1.994L64.35 32.8l-1.093-.8a27.495 27.495 0 00-8.342-4.172l-.794-.24.074-.792a4.792 4.792 0 00-.86-3.172 5.104 5.104 0 00-5.476-2.032 4.696 4.696 0 00-1.31.572L25.215 35.759a4.437 4.437 0 00-2.003 2.97 4.736 4.736 0 00.806 3.575 5.108 5.108 0 005.48 2.034 4.722 4.722 0 001.31-.572l8.139-5.188a15.522 15.522 0 014.335-1.904 16.945 16.945 0 0118.184 6.738 15.68 15.68 0 012.68 11.86 14.722 14.722 0 01-6.65 9.86L36.163 78.726a15.54 15.54 0 01-4.334 1.905" fill="#FFF"/></svg>