<svg width="512px" height="94px" viewBox="0 0 512 94" xmlns="http://www.w3.org/2000/svg" preserveAspectRatio="xMidYMid"><path d="M269.290692 21.6368763c3.501974-.0492627 6.980982.5725889 10.249047 1.8319552 3.0103 1.1745444 5.669482 3.1007472 7.723919 5.5948902V25.845422c0-2.0508667 1.662556-3.7134227 3.713423-3.7134227h7.921968V66.247461c0 18.2865438-9.341321 27.4298157-28.023963 27.4298157-4.80075.0307096-9.582696-.6024401-14.210031-1.8814675-4.036691-1.046639-7.812899-2.9178849-11.090756-5.4958656l3.515374-5.891964c1.007961-1.630457 3.103492-2.1812655 4.773948-1.2893903l.177282.101095c1.774793 1.0155589 3.649696 1.8451623 5.59489 2.4756152 3.401495 1.1321889 6.961184 1.7171143 10.546121 1.7329306 4.535031.3997199 9.047053-.9858618 12.576124-3.8619597 2.904065-3.2467668 4.35317-7.5404116 4.010497-11.8829526v-2.8222013c-2.10915 2.2129554-4.701964 3.9076049-7.575382 4.9512303-3.161872 1.1974231-6.521855 1.7854201-9.902461 1.7329306-4.649326.0631152-9.241991-1.0255166-13.368322-3.1687874-3.919005-2.034524-7.19371-5.120633-9.456849-8.9122144-2.35489-3.9653735-3.555283-8.5097198-3.465862-13.1207603-.08018-4.5942974 1.119883-9.12025 3.465862-13.0712479 2.309749-3.6538482 5.581836-6.6004396 9.456849-8.516116 4.13636-2.1108123 8.724926-3.1814776 13.368322-3.1192751zM35.2955495 56.4440251c4.0827646.1853876 7.6908352 2.7129932 9.2597359 6.4868355 1.526498 3.6718465.8551216 7.8801732-1.7134797 10.8914156l-.2184354.2481286-.1118632.1255901c-.5966042.7327145-.5593164 1.8087644.1118632 2.498562 2.7723925 2.336446 5.9023201 4.2094887 9.2685524 5.5482084l.6339082.244731.1481342.0426034c.8911271.2176161 1.8130751-.2433579 2.1736585-1.0868292l.0547978-.1440695.1233547-.3122445c1.0249048-2.4782353 2.9580178-4.4774206 5.4104427-5.5832412 2.5546093-1.1518966 5.4626307-1.2397047 8.0820859-.2440398 2.8980024 1.1687282 5.1285034 3.5624367 6.0900132 6.535624.0624656.1588244.1457113.3086666.2475615.4456107-25.9444466 13.2197848-35.2527595 9.0607514-54.463533-13.566371-2.8158508-3.411144-5.0263779-7.2795664-6.5356239-11.4373419 7.023312 2.1684618 14.5702614 1.9244495 21.438827-.6931722zM159.918015 21.3893148c3.599913.012138 7.187147.4273272 10.694658 1.2378075 3.096659.6513058 6.071028 1.7875817 8.81319 3.3668366l-2.327079 4.4561073c-1.24229 2.4976604-4.158684 3.6684754-6.783185 2.7231766-3.377431-1.236795-6.949447-1.8572861-10.54612-1.8319552-2.801609-.1551806-5.596472.4072003-8.120018 1.633906-1.622474.7923356-2.684981 2.4050702-2.772689 4.2085457-.06134 1.8977594 1.155666 3.6015685 2.970738 4.1590335 2.998852 1.0893453 6.101264 1.8690959 9.258801 2.3270782 3.452377.5241736 6.861448 1.3019713 10.199534 2.3270782 2.638982.7981251 5.026811 2.2649342 6.931722 4.258058 2.042871 2.3684864 3.074101 5.4443968 2.871714 8.5656284.071165 4.7340033-2.330816 9.1626552-6.337575 11.6849035-5.158667 3.1939403-11.171619 4.7317353-17.230281 4.4065949-4.237163-.0217679-8.451553-.621444-12.526613-1.7824429-3.434204-.8436138-6.699334-2.2668759-9.654899-4.2085457l2.129029-4.2085458c1.28438-2.5355614 4.290206-3.673481 6.931723-2.624152 1.275757.537781 2.581799 1.0006821 3.911472 1.3863445 3.217329.9342643 6.55226 1.4011546 9.90246 1.3863444 7.261805 0 10.892707-1.9144757 10.892707-5.7434271.048518-1.7529291-1.090089-3.3185133-2.772689-3.8124473-2.899444-.9584676-5.883694-1.6382134-8.912215-2.0300044-3.552015-.512792-7.06068-1.2906564-10.496608-2.3270782-2.659169-.8564549-5.048577-2.3925028-6.931722-4.4561073-2.098206-2.4398842-3.163746-5.6009864-2.970738-8.8131898-.097875-4.7436744 2.236986-9.2079285 6.189037-11.8334404 4.956844-3.19866 10.794055-4.7575592 16.685646-4.4561072zm229.83611-10.7441697c1.984709 0 3.605757 1.5570243 3.708275 3.5162067l.005147.197216v8.1200176h13.863445v9.9024606h-13.863445v24.7561513c-.153541 2.1026032.52176 4.1818189 1.881468 5.7929394 1.404043 1.3833601 3.330617 2.1035745 5.297816 1.9804921.774261.0666512 1.552817.0666512 2.327078 0 2.784874-.5979003 5.598714.8819713 6.684161 3.5153735l1.386345 2.8717136c-1.550147 1.2266653-3.336884 2.1200341-5.248304 2.624152-2.109911.5980275-4.293097.8980073-6.486112.8912215-4.844704.3105638-9.615356-1.3093217-13.269297-4.5056196-3.332678-3.5039811-5.039503-8.2471585-4.703669-13.0712479V10.6451451h8.417092zm-52.978164 11.0412435c3.170293-.0379638 6.316837.5509615 9.2588 1.7329306 2.792271 1.0897708 5.310824 2.7800748 7.377333 4.9512303v-2.3765906c0-1.9847097 1.557025-3.6057569 3.516207-3.7082754l.197216-.0051473 8.516116-.1485369v52.1364548h-11.536366V67.386244c-1.974452 2.4388631-4.527535 4.3451655-7.426846 5.5453779-3.143955 1.2706443-6.512007 1.8937338-9.90246 1.8319552-4.731848.076541-9.403779-1.0658655-13.566371-3.3173243-3.900508-2.1475724-7.111228-5.3582931-9.258801-9.2588006-4.471411-8.7887872-4.471411-19.1856638 0-27.974451 2.150865-3.9822117 5.398474-7.2641876 9.357825-9.4568498 4.158278-2.1429515 8.79115-3.1989738 13.467347-3.0697628zm120.017821 3.267812c4.124281 2.1585861 7.556397 5.4362568 9.902461 9.4568498 4.722571 8.5510637 4.722571 18.9282643 0 27.479328-2.346064 4.020593-5.77818 7.2982637-9.902461 9.4568498-8.963489 4.5434529-19.555596 4.5434529-28.519086 0-4.12428-2.1585861-7.556396-5.4362568-9.90246-9.4568498-4.722571-8.5510637-4.722571-18.9282643 0-27.479328 2.346064-4.020593 5.77818-7.2982637 9.90246-9.4568498 8.96349-4.543453 19.555597-4.543453 28.519086 0zm-344.407577-7.8229439c7.822944 9.2092883-6.684161 41.9864327-25.1522499 57.1371974-2.9590935-3.4390255-3.3871424-8.3851573-1.0628604-12.2814175 2.2726313-3.8096766 6.6785873-5.7807463 11.0162864-4.9596718l.2956206.0603202.1628684.0262623c.4354596.050228.8766652-.0573027 1.241849-.3062916.4108318-.2801126.6901514-.7151922.773824-1.2053398.5235849-3.3371407.5563089-6.731691.0981721-10.0760079l-.0981721-.6681617-.0454706-.1459221c-.3222928-.9045688-1.28501-1.4298976-2.2320954-1.1909101-4.464955.8210629-8.9543103-1.3073855-11.1447215-5.2838244-2.1406292-3.8860652-1.6161133-8.6847329 1.2836624-12.0136924l.2061601-.2298384.1118633-.12559c.5966041-.7327145.5593164-1.8087644-.1118633-2.498562-2.7718595-2.3372007-5.901884-4.2103629-9.268481-5.5483548l-.6339795-.2445846-.1481343-.0426034c-.9406341-.2297059-1.9156089.2966717-2.2284563 1.2308986-.535798 1.5327297-1.4166835 2.9218184-2.5746397 4.0600088-2.4269511 2.3754378-5.8531778 3.4299445-9.1958037 2.8302381-3.3426259-.5997064-6.1885782-2.7795159-7.6383792-5.8504885-.5232061-3.3406075-1.5586376-6.580506-3.0697628-9.6053867 7.52587-1.43585682 51.3442584-2.9707382 59.4147634 6.9317223zm121.107092 5.0004609 7.674407.049794-20.201019 47.1357122c-1.210882 2.8897468-3.980049 4.8093382-7.093388 4.9439343l-.283945.007296h-6.535624l19.804921-46.1454662.990246-2.3270782c.974616-2.2442808 3.197747-3.6873657 5.644402-3.6641921zM512 21.5378517v11.5363665c-.929668-.1851286-1.874362-.28457-2.822201-.2970738-4.089541-.2106842-8.084643 1.2762823-11.041244 4.1095211-2.8624 3.2905142-4.304463 7.5810974-4.010496 11.932465v25.4493236h-12.180027V22.1319993h7.872456c1.98471 0 3.605757 1.5570243 3.708276 3.5162067l.005147.197216v3.8619596c4.255595-5.8255581 11.294916-8.939467 18.468089-8.1695299zm-319.502889.5446127c2.388209-.0064561 4.55145 1.3824181 5.545752 3.537329l.09865.2256286 12.03149 27.6278649-6.040501 14.0119817-20.20102-45.4028042h8.565629zm134.673463 14.2595658c-5.785324 6.7908368-5.785324 16.7770193 0 23.5678561 2.889497 2.9781946 6.893047 4.6119302 11.041244 4.5056195 4.157804.1332075 8.180932-1.4832281 11.090755-4.4561072v-.0495123c5.848234-6.7675469 5.848234-16.8003093 0-23.5678561-6.165325-5.9804286-15.966673-5.9804286-22.131999 0zm104.272909-.1485369c-5.785324 6.7908368-5.785324 16.7770193 0 23.5678561 2.889498 2.9781946 6.893047 4.6119301 11.041244 4.5056195 4.150382.1461594 8.172417-1.4518811 11.090756-4.4065949v-.0990246c5.848233-6.7675469 5.848233-16.8003093 0-23.5678561-6.165326-5.9804286-15.966674-5.9804286-22.132 0zm-171.906714-.2475615c-2.930283 2.7296423-4.537037 6.5930726-4.406595 10.5956327-.15419 4.050156 1.452938 7.9686604 4.406595 10.7441697 6.594779 5.5026975 16.180879 5.5026975 22.775659 0 2.97191-2.766594 4.597596-6.6863041 4.456107-10.7441697.117766-4.0102815-1.507551-7.8749259-4.456107-10.5956327-6.616101-5.4435487-16.159559-5.4435487-22.775659 0zM65.1514681 40.1049652c5.5236677 0 10.0014851 4.4778174 10.0014851 10.0014851 0 5.5236678-4.4778174 10.0014852-10.0014851 10.0014852-5.5236677 0-10.0014852-4.4778174-10.0014852-10.0014852 0-5.5236677 4.4778175-10.0014851 10.0014852-10.0014851zM25.3435767 0c1.8392852.051831274 3.3157131 1.50969526 3.4114157 3.32622061l.0049332.18915288v4.60464415c-.0133772 1.18575674.5714664 2.29290966 1.5457414 2.95160336l.1871892.1181594 1.7824429 1.0397584c1.0236803.5910221 2.2709332.6257881 3.3209162.104298l.1944573-.104298 3.9114719-2.32707826.193677-.11141806c.786241-.41964741 1.7056848-.52623883 2.5714626-.29247881.8657779.23376002 1.606627.78863053 2.0748107 1.54697263l.11128.1937564 1.9309798 3.1687874.1123644.1922787c.4236868.7807567.5373324 1.6960825.3124195 2.5611318-.2249128.8650494-.7699976 1.6091053-1.5203152 2.0846208l-.1917886.113199-3.8619596 2.3270782c-1.0221383.6011916-1.6678945 1.6739583-1.7284794 2.8484448l-.0044512.221318v1.8814675c-.023109 1.1762608.5433021 2.2807988 1.4995935 2.9495647l.1838248.120198 3.8619596 2.3270783.0495123-.0495124c.8324724.4825676 1.4307486 1.2852793 1.6553065 2.2209371.2072842.8636841.0794067 1.7709517-.352672 2.5407991l-.1143392.1894941-1.8319552 3.1687874-.113199.1917886c-.4755155.7503176-1.2195714 1.2954024-2.0846208 1.5203152-.8650493.2249129-1.7803751.1112673-2.5611318-.3124195l-.1922787-.1123644-3.8124473-2.3765906c-1.0236803-.5910221-2.2709332-.6257881-3.3209162-.104298l-.1944573.104298-1.7824429 1.0397584c-1.0221383.6011916-1.6678945 1.6739583-1.7284794 2.8484448l-.0044512.221318v4.1095211l-.0052016.1928787c-.0966798 1.7879308-1.5293624 3.2206134-3.3172932 3.3172932l-.1928787.0052016h-3.6143981c-1.8767709 0-3.4100393-1.4707094-3.5101719-3.3224948l-.0052016-.1928787v-4.0104965c.0133772-1.1857568-.5714664-2.2929097-1.5457414-2.9516034l-.1871892-.1181594-1.7824429-1.0397584c-1.0236803-.5910221-2.2709332-.6257881-3.3209162-.104298l-.1944573.104298-3.86195958 2.3270783-.19227869.1123644c-.78075671.4236868-1.69608249.5373324-2.56113186.3124195-.86504937-.2249128-1.60910526-.7699976-2.08462081-1.5203152l-.11319891-.1917886-1.831955205-3.1687874-.112364397-.1922787c-.42368682756-.7807567-.537332392-1.6960825-.312419554-2.5611318.224912837-.8650494.769997632-1.6091097 1.520315246-2.0846219l.19178858-.1131978 3.86195961-2.3270783c.99357843-.5842697 1.63357249-1.6155784 1.72271902-2.7557607l.01021157-.2149774v-1.9804921c.00657094-1.1597282-.55881513-2.2430101-1.5021594-2.9017891l-.18125889-.1184614-3.86195961-2.3270782-.19178857-.113199C.932639029 18.8201082.387554234 18.0760523.162641396 17.2110029c-.2249128369-.8650493-.1112672729-1.7803751.312419555-2.5611318l.112364397-.1922787 1.683418292-3.267812.11319891-.1917886c.47551556-.7503176 1.21957144-1.29540237 2.08462081-1.52031521.86504938-.22491284 1.78037515-.11126727 2.56113187.31241955l.19227868.1123644 3.91147189 2.67366436c1.0236803.5910221 2.2709332.6257881 3.3209162.104298l.1944573-.104298 1.7824429-1.0397584c1.0221383-.6011915 1.6678945-1.67395827 1.7284794-2.84844478l.0044512-.22131796V3.51537349c0-1.87677093 1.4707093-3.41003929 3.3224948-3.5101718795L21.6796663 0h3.6639104zm-7.1855849 20.2795214c-2.1342731 2.1485016-2.7616394 5.3723034-1.5888247 8.1643791 1.1372748 2.7074674 3.7494253 4.4903347 6.6679781 4.577614l.2744763.0031914-.0495123-.0495123.2456442-.0039551c3.9148637-.1263282 7.0727888-3.2633399 7.2251263-7.1772778l.0055872-.2456125-.0050094-.2744491c-.1066127-2.9179084-1.9068594-5.518155-4.6218236-6.6374151-2.7998068-1.154237-6.0193689-.5054642-8.1536421 1.6430374z"/></svg>