<svg width="256px" height="256px" viewBox="0 0 256 256" xmlns="http://www.w3.org/2000/svg" preserveAspectRatio="xMidYMid"><title>Swagger</title><path d="M127.998721 249.895198c-67.2142325 0-121.89903583-54.679687-121.89903583-121.896477 0-67.2167911 54.68480333-121.89647723 121.89903583-121.89647723 67.214232 0 121.899035 54.68480333 121.899035 121.89903523 0 67.214232-54.684803 121.893919-121.899035 121.893919z" fill="#85ea2d"/><g style="fill:#173647"><path d="M127.998721 12.2019289c63.954585 0 115.796791 51.8422068 115.796791 115.7967921 0 63.952026-51.842206 115.796791-115.796791 115.796791-63.9520267 0-115.7967921-51.844765-115.7967921-115.796791 0-63.9520267 51.8447654-115.7967921 115.7967921-115.7967921m0-12.2019289C57.419939 0 1.45439161e-13 57.419939 1.45439161e-13 127.998721c0 70.578781 57.41993899999986 127.99872 127.99872099999986 127.99872C198.577502 255.997441 256 198.577502 256 127.998721 256 57.419939 198.577502 0 127.998721 0h0z"/><path d="M80.598231 86.6185998c-.3940233 4.3803108.1458398 8.90902-.1458398 13.3379441-.34541 4.4314831-.8878317 8.8117931-1.7731048 13.1921041-1.2306831 6.250642-5.1197441 10.976363-10.4825546 14.914038 10.4364999 6.793063 11.6160112 17.324231 12.3042726 28.006356.3454101 5.759392.1970117 11.567398.7880466 17.275618.4426366 4.428925 2.1645695 5.562381 6.7444506 5.708221 1.8703313.048613 3.7867173 0 5.956404 0v13.683354c-13.5349558 2.312968-24.7083305-1.524921-27.4664935-12.992534-.8878317-4.183299-1.4788666-8.466384-1.6733197-12.798081-.2967967-4.577323.1944531-9.154645-.1483983-13.731968-.9850582-12.552456-2.6097647-16.784368-14.6172405-17.375403V120.23595c.8852731-.197011 1.7219329-.34541 2.607206-.442636 6.5960522-.34541 9.4002698-2.36414 10.8279646-8.860407.6908201-3.640878 1.0848433-7.332927 1.2306831-11.0735896.4938084-7.1359153.2967968-14.4202289 1.5249213-21.5075309 1.721933-10.1883164 8.023747-15.1110489 18.5088602-15.7020838 2.952616-.1483984 5.9564039 0 9.3516565 0v13.9801509c-1.4276947.0997851-2.6583779.2942381-3.9376742.2942381-8.5149968-.2967967-8.9601919 2.6072061-9.5998401 9.6945081zm16.3903453 32.3866672h-.1970117c-4.9227325-.245625-9.1546449 3.592264-9.4028284 8.514997-.2456249 4.971346 3.5922642 9.205817 8.5149967 9.448883h.591035c4.8741191.296797 9.0548601-3.446424 9.3516561-8.317985v-.49125c.099786-4.971346-3.886502-9.05486-8.8578477-9.154645zm30.8617457 0c-4.774334-.148398-8.76318 3.592264-8.90902 8.317985 0 .296797 0 .542422.051172.83666 0 5.365369 3.640878 8.811794 9.154645 8.811794 5.413982 0 8.811794-3.543651 8.811794-9.106032-.051172-5.365369-3.645995-8.90902-9.108591-8.860407zm31.60118 0c-5.019959-.099785-9.205817 3.889061-9.351657 8.90902 0 5.019959 4.034901 9.05486 9.05486 9.05486h.099785c4.528709.788047 9.106032-3.592264 9.402828-8.857848.243067-4.874119-4.185857-9.106032-9.205816-9.106032zm43.36303.736875c-5.710779-.245625-8.566169-2.16457-9.991305-7.581111-.887831-3.443865-1.427695-7.038688-1.624706-10.582339-.394023-6.5960525-.34541-13.2407179-.788047-19.8367701-1.033671-15.650912-12.352886-21.1135075-28.794403-18.409075v13.5861277c2.607206 0 4.625936 0 6.644666.0486132 3.495037.0486133 6.153415 1.3790815 6.496267 5.2681425.34541 3.543651.34541 7.1359153.69082 10.7307381.69082 7.1384736 1.082284 14.3716156 2.312968 21.4103046 1.084843 5.808005 5.07113 10.139703 10.039918 13.683354-8.70945 5.856619-11.270602 14.223217-11.713238 23.626046-.245625 6.447653-.394023 12.94392-.736875 19.442746-.296797 5.905232-2.361581 7.824177-8.317985 7.972575-1.67332.048613-3.298026.197012-5.168357.296797v13.928979c3.495037 0 6.693278.197012 9.891519 0 9.942692-.591035 15.947709-5.413982 17.917826-15.062436.836659-5.316755 1.327909-10.679566 1.476308-16.044935.342851-4.922732.296796-9.894078.788046-14.765639.736875-7.629723 4.231913-10.779351 11.861636-11.270601.739434-.099785 1.427695-.245625 2.118515-.49125v-15.604857c-1.281855-.148399-2.169687-.294238-3.103573-.34541z"/></g></svg>