<svg width="512px" height="180px" viewBox="0 0 512 180" xmlns="http://www.w3.org/2000/svg" preserveAspectRatio="xMidYMid"><defs><linearGradient x1="-9.93457377e-06%" y1="50.0147277%" x2="100.005309%" y2="50.0147277%" id="a"><stop stop-color="#ffa588" offset="0%"/><stop stop-color="#fcb371" offset="27.1%"/><stop stop-color="#f4d837" offset="83.57%"/><stop stop-color="#f1e425" offset="100%"/></linearGradient></defs><path d="M460.924179 179.246154c-13.762307 0-26.733677-5.378373-36.488568-15.133265l-75.982699-75.9826981c-7.645726-7.6457261-12.654995-17.1897014-14.447786-27.577343-1.054582-6.0638517-1.001853-12.2858908.158188-18.3497425h-22.462616c-5.483831 0-7.803913 3.638311-8.700309 5.800206-.896395 2.1618949-1.84552 6.3802265 2.056437 10.2821833l32.850257 32.8502574c7.645726 7.6457261 12.654995 17.1897009 14.447786 27.5773429 1.687333 9.596705.527291 19.509784-3.216478 28.684655-3.796498 9.122142-10.018537 16.926056-17.980638 22.568074-8.64758 6.063852-18.877034 9.28033-29.686509 9.28033h-1.054583c-13.762307 0-26.733677-5.378373-36.488568-15.133265l-7.276623-7.276622c-3.480123 5.114727-7.803913 9.543975-12.865911 13.076828-8.64758 6.063852-18.877034 9.28033-29.686509 9.28033-13.762307 0-26.733676-5.378373-36.488568-15.133265L58.4426136 44.8922918c-1.7927909-1.7927909-4.1656024-2.7419156-6.6438723-2.7419156-5.4838311 0-7.8039135 3.6383111-8.7003089 5.800206-.8963955 2.161895-1.8455201 6.3802266 2.0564366 10.2821833L78.0051265 91.083023c7.6457261 7.6457261 12.6549948 17.189701 14.4477858 27.577343 1.6873326 9.596704.5272914 19.509784-3.2164779 28.684655-3.7964984 9.122142-10.0185376 16.926056-17.9806385 22.568074-8.6475798 6.063852-18.877034 9.28033-29.6865087 9.28033H26.5414808c-11.6531411 0-21.09165811-9.438517-21.09165811-21.091658 0-11.653142 9.43851701-21.091659 21.09165811-21.091659h14.8168898c5.4838311 0 7.8039135-3.638311 8.7003089-5.800205.8963955-2.161895 1.8455201-6.380227-2.0564366-10.282184L15.2047146 88.1301909C7.55898849 80.4844648 2.5497197 70.9404895.756928763 60.5528479-.930403884 50.9561435.229637311 41.0430642 3.97340662 31.8681929 7.76990508 22.7460508 13.9919442 14.9421373 21.9540451 9.30011878 30.601625 3.23626708 40.8838083.0197892228 51.693283.0197892228c13.7623069 0 26.7336767 5.3783728072 36.4885685 15.1332646772L207.34972 134.320922c1.792791 1.792791 4.165602 2.741916 6.643872 2.741916 5.483831 0 7.803913-3.638311 8.700309-5.800206.896395-2.161895 1.84552-6.380227-2.003708-10.229455l-84.999382-84.9993816c-8.225746-8.2257467-8.225746-21.5662204 0-29.84469619 8.225747-8.2784758 21.566221-8.22574665 29.844697 0L250.48216 91.1357521c.05273.0527292.05273.0527292.105459.1054583l43.079711 43.0797116c1.792791 1.792791 4.165603 2.741916 6.643873 2.741916h1.054583c5.483831 0 7.803913-3.638311 8.700309-5.800206.896395-2.161895 1.84552-6.380227-2.056437-10.282184L275.21213 88.1301909c-7.645726-7.6457261-12.654995-17.1897014-14.447786-27.577343-1.687333-9.5967044-.527292-19.5097837 3.216478-28.684655 3.796498-9.1221421 10.018537-16.9260556 17.980638-22.56807412 8.64758-6.0638517 18.929763-9.2803295572 29.739238-9.2803295572h85.895778c11.653141 0 21.091658 9.4385169972 21.091658 21.0916580772 0 11.6531411-9.438517 21.0916581-21.091658 21.0916581h-12.654995c-5.483831 0-7.803914 3.638311-8.700309 5.800206-.896396 2.1618949-1.84552 6.3802265 2.056436 10.2821833l75.982699 75.9826983c1.792791 1.792791 4.165602 2.741915 6.643872 2.741915 4.798352 0 8.700309-3.901956 8.700309-8.700308 0-11.653142 9.438517-21.091659 21.091658-21.091659 11.653141 0 21.091749 9.438517 21.091749 21.091659.052638 28.104634-22.831811 50.936354-50.883716 50.936354h0z" fill="url(#a)"/><path d="M460.924179 160.790953c-8.858496 0-17.189701-3.427394-23.46447-9.702163l-75.982698-75.982698c-9.649433-9.6494336-12.391349-23.5171988-7.171164-36.1194645 2.689187-6.4329557 7.065706-11.6531411 12.496808-15.1859938h-55.101957c-11.494954 0-21.355304 6.5911432-25.784552 17.1897014-4.429248 10.5985581-2.056437 22.2516992 6.063852 30.3719876l32.850257 32.8502573c9.649434 9.649434 12.391349 23.517199 7.171164 36.119465-5.220185 12.602265-16.978785 20.458908-30.635633 20.458908h-1.054583c-8.858497 0-17.189702-3.427394-23.46447-9.702163l-30.319258-30.319258c1.370957 6.380226.738208 13.129557-1.89825 19.562513-5.220185 12.602265-16.978784 20.458908-30.635633 20.458908-8.858496 0-17.189701-3.427394-23.46447-9.702163L71.3612542 31.9209221c-5.2729145-5.2729145-12.2858908-8.1730175-19.7207003-8.1730175-11.4949537 0-21.3553038 6.5911431-25.784552 17.1897013-4.3765191 10.5985582-2.0564367 22.2516993 6.0638517 30.3719876L64.770111 104.159851c9.6494336 9.649434 12.3913492 23.517199 7.1711638 36.119464-5.2201854 12.602266-16.9787848 20.458909-30.6356334 20.458909H26.5414808c-1.4764161 0-2.6364573-1.160041-2.6364573-2.636457 0-1.476417 1.1600412-2.636458 2.6364573-2.636458h14.8168898c11.4949536 0 21.3553038-6.591143 25.784552-17.189701 4.4292482-10.598558 2.0564366-22.251699-6.0638517-30.371988L28.2288134 75.0533629c-9.6494336-9.5967045-12.3913491-23.4644697-7.1711637-36.0667354C26.277835 26.3316327 37.9837053 18.47499 51.693283 18.47499c8.8584964 0 17.1897014 3.4273945 23.4644697 9.7021628L194.325621 147.345021c5.272914 5.272914 12.285891 8.173017 19.7207 8.173017 11.494954 0 21.355304-6.591143 25.784552-17.189701 4.376519-10.598558 2.109166-22.19897-6.011122-30.319258l-85.052112-84.9993825c-1.054583-1.0545829-1.054583-2.6891864 0-3.7437693 1.054583-1.0545829 2.689187-1.0545829 3.74377 0l84.946653 84.9466528c0 0 .052729.052729.052729.052729l43.079711 43.079712c5.272915 5.272914 12.285891 8.173017 19.720701 8.173017h1.054583c11.494953 0 21.355303-6.591143 25.784552-17.189701 4.376519-10.598558 2.056436-22.251699-6.063852-30.371988l-32.850258-32.850257c-9.649433-9.6494336-12.391349-23.5171988-7.171163-36.1194645 5.220185-12.6022657 16.978784-20.4589083 30.635633-20.4589083h85.895778c1.476416 0 2.636457 1.1600412 2.636457 2.6364573 0 1.476416-1.160041 2.6364572-2.636457 2.6364572h-12.654995c-11.494954 0-21.355304 6.5911432-25.784552 17.1897014-4.376519 10.5985581-2.056437 22.2516992 6.063851 30.3719876l75.982699 75.9826983c5.272914 5.272914 12.285891 8.173017 19.7207 8.173017 14.975077 0 27.15551-12.180432 27.15551-27.155509 0-1.476416 1.160041-2.636458 2.636457-2.636458 1.476416 0 2.6366 1.160042 2.6366 2.636458.052586 17.87518-14.500658 32.428424-32.428567 32.428424h0z" fill="#fff"/></svg>