<svg width="512px" height="155px" viewBox="0 0 512 155" xmlns="http://www.w3.org/2000/svg" preserveAspectRatio="xMidYMid"><title>swimm</title><path d="M238.836721-1.4210854700000001e-14c-4.410531 0-8.130803 1.5404590600000143-11.159784 4.622306480000014-3.032078 3.08184741-4.545278 6.81471662-4.545278 11.19664582 0 4.3847687 1.5132 8.0820666 4.545278 11.0928747 3.028981 3.0145253 6.749253 4.5194647 11.159784 4.5194647 4.406917 0 8.127189-1.5049394 11.158752-4.5194647 3.029497-3.0108081 4.545794-6.708106 4.545794-11.0928747 0-4.3819292-1.516297-8.11479841-4.545794-11.19664582-3.031563-3.08184742-6.751835-4.622306480000013-11.158752-4.622306480000013zM508.493465 72.2515466c-2.340271-5.4657954-5.330015-9.7720388-8.97233-12.9176977-3.644896-3.1425612-7.59904-5.3310477-11.860368-6.5613292-4.262876-1.2297652-8.248513-1.8451641-11.962074-1.8451641-2.751741 0-5.604673.3113133-8.559826.9323912-2.958252.6210779-5.810667 1.5865108-8.558795 2.8932009-2.75329 1.310304-5.295424 2.9628978-7.632598 4.9624279-2.338722 1.9990138-4.330508 4.3052108-5.981037 6.9232375-1.925703-3.0300135-4.091473-5.5453016-6.496279-7.5448317-.497688-.4135356-1.00312-.8007413-1.510102-1.182268v.0418182c-3.163212-2.4073867-6.543776-4.1405193-10.145305-5.1808119-4.263909-1.2297652-8.250578-1.8451641-11.963106-1.8451641-2.751742 0-5.603641.3113133-8.559827.9323912-2.958768.6210779-5.810667 1.5865108-8.558794 2.8932009-2.752258 1.310304-5.296458 2.9628978-7.632599 4.9624279-2.338722 1.9990138-4.329475 4.3052108-5.981037 6.9232375-1.926735-3.0300135-4.092505-5.5453016-6.496278-7.5448317-.497689-.4135356-1.003121-.8007413-1.510102-1.182268-1.943773-1.4600235-3.946917-2.6908213-6.018725-3.67484-2.612864-1.2395744-5.294909-2.1017524-8.043553-2.5844688-2.751742-.4806513-5.36254-.724849-7.838075-.724849-4.814258 0-9.316169.8296527-13.508832 2.4822465-4.196277 1.6546589-7.873182 3.9959626-11.034329 7.0270086l-4.125548-9.5092551h-24.3382V152.626668h28.463748V98.8453486c0-7.7694109 1.577734-13.4938596 4.744044-17.1754112 3.161147-3.6800027 6.734281-5.5225855 10.724564-5.5225855 5.498321 0 9.693565 1.6376219 12.581087 4.9082192 2.887522 3.2736949 4.331541 9.0662918 4.331541 17.3803721v54.1907248h14.062278 14.400437V98.2335637c0-4.3630336.445544-7.9743719 1.340248-10.8376288.89367-2.8648057 2.095041-5.11318 3.609789-6.7508018 1.512167-1.634008 3.229296-2.7935599 5.157063-3.4755582 1.923638-.6799332 3.84676-1.022223 5.775044-1.022223 2.061999 0 4.088892.3737826 6.083259 1.123929 1.991786.7501465 3.74557 2.0119207 5.259286 3.7842902 1.512167 1.7754671 2.71457 4.090957 3.610306 6.9521488.892638 2.8642895 1.340764 6.3398476 1.340764 10.4282233v54.1907248h14.270852 14.192895.207543V98.2335637c0-4.3630336.445028-7.9743719 1.340764-10.8376288.892122-2.8648057 2.095557-5.11318 3.609273-6.7508018 1.512683-1.634008 3.229811-2.7935599 5.157579-3.4755582 1.922606-.6799332 3.846244-1.022223 5.774012-1.022223 2.063548 0 4.089408.3737826 6.084808 1.123929 1.991786.7501465 3.744537 2.0119207 5.259285 3.7842902 1.511135 1.7754671 2.71457 4.090957 3.609273 6.9521488.893671 2.8642895 1.340765 6.3398476 1.340765 10.4282233v54.1907248H512V93.1652995c0-8.4741253-1.170394-15.44486-3.506535-20.9137529zm-242.84972 23.6685922-4.189566-14.4577436-8.84894-30.5345233h-29.288754l15.440214 51.0961771 15.291526 50.602619h28.172569l-8.129254-27.809111-.035623.128036-8.412172-29.0254542zM161.076012 50.9273556l-20.624639 73.6083154-21.244169-73.6083154H89.9189671L120.651223 152.626152h35.888288l14.849079-49.003718 1.650529-14.5573845 1.442986 14.5573845 14.850629 49.003718h7.92326l8.128738-27.808595-20.589533-73.8902014h-23.719187zM58.6792132 94.395581c3.5055021 1.3681267 6.5644269 3.0088463 9.1783233 4.9206097 7.5603199 5.3315643 11.3435775 12.9176973 11.3435775 22.7589173 0 4.511204-1.0666225 8.749816-3.19677 12.712737-2.1332452 3.967051-5.052776 7.451902-8.7663365 10.457134-3.7125281 3.008846-8.0430363 5.365638-12.9930737 7.073473-4.9497792 1.707836-10.2458236 2.563818-15.8815764 2.563818-4.2639089 0-8.424408-.548283-12.4785547-1.640719-4.0579155-1.092436-7.8053437-2.595311-11.2403743-4.510688-3.4397803-1.912796-6.42983417-4.203505-8.97294943-6.869029C3.12551905 139.19631 1.23722539 136.222571 0 132.94268c3.16127621-1.502358 6.66783662-3.178184 10.5187778-5.022832 3.8481016-1.846196 7.2191658-3.518408 10.106636-5.02438 1.2372512 2.051157 3.161302 3.930912 5.774992 5.639263 2.6108504 1.710417 6.1880113 2.562785 10.7248228 2.562785 4.6732111 0 8.1120621-1.092952 10.3126811-3.280406 2.197831-2.185905 3.3005411-4.23603 3.3005411-6.151408 0-1.364512-.7573743-2.630417-2.269335-3.793066-1.5148002-1.159552-3.2318251-2.082651-5.1558759-2.768263-2.7519998-1.092436-5.0213864-1.672212-6.8061465-1.742425-1.7885804-.067632-3.8509411-.442447-6.187082-1.12806-7.4261919-1.774434-13.0976708-4.132259-17.0162955-7.073989-3.91867636-2.937601-6.77511844-5.9108239-8.55992493-8.9191539-1.78856497-3.004716-2.78493294-5.8752008-2.99097799-8.6114542-.20605021-2.7326395-.30859776-4.9206097-.30859776-6.560813 0-4.3738753.96061598-8.5412409 2.88654603-12.5072596 1.92405598-3.9639535 4.57068422-7.4142143 7.94174845-10.3549123 3.3673471-2.9376004 7.2859718-5.2954248 11.7569583-7.0734733 4.4662367-1.7754671 9.2448194-2.6660401 14.3338894-2.6660401 4.2601918 0 8.3181072.6153989 12.1681191 1.8456804 3.8482049 1.2297652 7.3537069 2.940698 10.5195005 5.1255706 3.1616635 2.1884864 5.8777822 4.7868947 8.1468075 7.792127 2.2685089 3.0078137 3.9510467 6.3553358 5.0527759 10.0472129l-22.0681422 7.3801401c-.8249029-2.460563-2.5108997-4.4399584-5.0540149-5.945414-2.5459548-1.5023581-5.2593889-2.2550859-8.1469107-2.2550859-2.8874702 0-5.2273799.9576887-7.0131209 2.8704847-1.7875995 1.9153775-2.6804958 3.8281735-2.6804958 5.7409695 0 2.3258155.8571185 4.1358729 2.5788931 5.4332701 1.7161472 1.2999785 3.6091183 2.2230768 5.671479 2.7672299 1.5110314.2762067 2.9909831.5136928 4.4342277.7186537 1.4432963.2044446 2.851744.4439958 4.2282344.7171049 4.811521 1.0955339 8.9719685 2.3263317 12.4785031 3.6908445z" fill="#4154ff"/></svg>