<svg width="512" height="155" xmlns="http://www.w3.org/2000/svg" preserveAspectRatio="xMidYMid"><path d="M238.837 0c-4.41 0-8.131 1.54-11.16 4.622-3.032 3.082-4.545 6.815-4.545 11.197 0 4.385 1.513 8.082 4.545 11.093 3.029 3.014 6.75 4.52 11.16 4.52 4.407 0 8.127-1.506 11.158-4.52 3.03-3.011 4.546-6.708 4.546-11.093 0-4.382-1.516-8.115-4.546-11.197C246.964 1.54 243.244 0 238.837 0zm269.656 72.252c-2.34-5.466-5.33-9.772-8.972-12.918-3.645-3.143-7.599-5.331-11.86-6.561-4.263-1.23-8.249-1.846-11.962-1.846-2.752 0-5.605.312-8.56.933a38.092 38.092 0 00-8.559 2.893 34.485 34.485 0 00-7.633 4.962 30.323 30.323 0 00-5.98 6.924c-1.926-3.03-4.092-5.546-6.497-7.545a39.64 39.64 0 00-1.51-1.182v.041c-3.163-2.407-6.544-4.14-10.145-5.18-4.264-1.23-8.25-1.846-11.963-1.846-2.752 0-5.604.312-8.56.933a38.083 38.083 0 00-8.559 2.893 34.485 34.485 0 00-7.633 4.962 30.348 30.348 0 00-5.98 6.924c-1.927-3.03-4.093-5.546-6.497-7.545-.498-.414-1.003-.801-1.51-1.182-1.944-1.46-3.947-2.691-6.019-3.675a31.36 31.36 0 00-8.043-2.585c-2.752-.48-5.363-.725-7.838-.725-4.815 0-9.317.83-13.51 2.483-4.195 1.654-7.872 3.996-11.034 7.027l-4.125-9.51h-24.338v101.7h28.463V98.845c0-7.77 1.578-13.494 4.745-17.175 3.16-3.68 6.734-5.523 10.724-5.523 5.498 0 9.694 1.638 12.581 4.909 2.888 3.273 4.332 9.066 4.332 17.38v54.19h28.462V98.235c0-4.363.446-7.975 1.34-10.838.894-2.865 2.096-5.113 3.61-6.75 1.513-1.635 3.23-2.794 5.158-3.476 1.923-.68 3.846-1.023 5.775-1.023 2.062 0 4.088.374 6.083 1.124 1.992.75 3.745 2.012 5.26 3.785 1.511 1.775 2.714 4.09 3.61 6.952.892 2.864 1.34 6.34 1.34 10.428v54.19h28.671V98.235c0-4.363.446-7.975 1.341-10.838.892-2.865 2.096-5.113 3.61-6.75 1.512-1.635 3.23-2.794 5.157-3.476 1.923-.68 3.846-1.023 5.774-1.023 2.064 0 4.09.374 6.085 1.124 1.992.75 3.744 2.012 5.26 3.785 1.51 1.775 2.714 4.09 3.608 6.952.894 2.864 1.341 6.34 1.341 10.428v54.19H512v-59.46c0-8.475-1.17-15.446-3.507-20.914zM265.643 95.92l-4.189-14.458-8.849-30.534h-29.289l15.44 51.096 15.292 50.603h28.173l-8.13-27.81-.035.129-8.412-29.026zM161.077 50.927l-20.625 73.609-21.244-73.609H89.92l30.732 101.7h35.889l14.849-49.005 1.65-14.557 1.443 14.557 14.85 49.004h7.924l8.129-27.808-20.59-73.89h-23.719zM58.679 94.396c3.506 1.368 6.565 3.008 9.179 4.92 7.56 5.332 11.343 12.918 11.343 22.76 0 4.51-1.067 8.749-3.197 12.712-2.133 3.967-5.052 7.452-8.766 10.457-3.713 3.009-8.043 5.366-12.993 7.073-4.95 1.708-10.246 2.564-15.882 2.564-4.264 0-8.424-.548-12.478-1.64-4.058-1.093-7.806-2.596-11.24-4.511-3.44-1.913-6.43-4.204-8.974-6.87-2.545-2.665-4.434-5.638-5.671-8.918 3.161-1.503 6.668-3.179 10.519-5.023 3.848-1.846 7.219-3.519 10.106-5.025 1.238 2.052 3.162 3.931 5.775 5.64 2.611 1.71 6.188 2.563 10.725 2.563 4.673 0 8.112-1.093 10.313-3.28 2.198-2.187 3.3-4.237 3.3-6.152 0-1.365-.757-2.63-2.269-3.793-1.515-1.16-3.232-2.083-5.156-2.769-2.752-1.092-5.021-1.672-6.806-1.742-1.788-.068-3.85-.442-6.187-1.128-7.426-1.775-13.098-4.132-17.016-7.074-3.919-2.938-6.775-5.91-8.56-8.92-1.789-3.004-2.785-5.874-2.991-8.61-.206-2.733-.309-4.921-.309-6.562 0-4.373.96-8.54 2.887-12.507 1.924-3.964 4.57-7.414 7.942-10.355 3.367-2.937 7.285-5.295 11.756-7.073 4.467-1.776 9.245-2.666 14.334-2.666 4.26 0 8.318.615 12.168 1.845 3.849 1.23 7.354 2.941 10.52 5.126a35.316 35.316 0 018.147 7.792c2.268 3.008 3.95 6.356 5.053 10.047l-22.069 7.38c-.824-2.46-2.51-4.44-5.054-5.945-2.546-1.502-5.259-2.255-8.147-2.255-2.887 0-5.227.958-7.013 2.87-1.787 1.916-2.68 3.829-2.68 5.741 0 2.326.857 4.136 2.579 5.434a16.128 16.128 0 005.671 2.767c1.511.276 2.991.514 4.434.719 1.444.204 2.852.444 4.229.717 4.811 1.095 8.972 2.326 12.478 3.69z" fill="#4154FF"/></svg>