<svg width="512px" height="121px" viewBox="0 0 512 121" xmlns="http://www.w3.org/2000/svg" preserveAspectRatio="xMidYMid"><title>SWR</title><path d="M0 64.4565599c.123513802 31.0548989 25.4085536 56.4810971 56.4810973 56.4810971 31.1695902-.038818 56.4316917-25.2920975 56.4810977-56.4634522v-8.0107523c.091753-17.9289107 19.559292-29.034566 35.040865-19.9880622 2.380288 1.3904125 4.495903 3.193714 6.248034 5.3252093h36.524796C184.102616 17.1543027 161.751911.0299962091 136.218079 0c-31.171355.0494055209-56.4246338 25.311507-56.4634524 56.4810973v7.9754626c-.0194093 12.8507289-10.4422097 23.2558845-23.2911741 23.2558845-12.8366131-.0194093-23.2364752-10.4192714-23.2558845-23.2558845 0-3.6736533-2.9784471-6.6521004-6.6521005-6.6521004H6.63445566C2.96609574 57.8150464 0 60.7899645 0 64.4565599zm216.131509 56.4810971c-25.5056-.095282-47.808664-17.207237-54.504876-41.8182442h36.471861c11.227405 13.9094186 33.301086 10.4492676 39.732626-6.2286246 1.035751-2.685543 1.563332-5.5387118 1.556274-8.4165834v-8.0107523C239.435035 25.2938622 264.697136.0388186236 295.868491 0c30.754937 0 55.828239 24.7027605 56.463452 55.2812489l.176449 9.175311c.091753 17.9306752 19.559292 29.034566 35.040865 19.9898267 2.380288-1.3904125 4.495903-3.1954785 6.248034-5.3269738h36.524796c-6.664452 24.6480612-29.008099 41.7811902-54.540166 41.8182442-31.072544 0-56.357584-25.443843-56.481097-56.4634522l-.176449-8.2930696v-.3528966c-.372306-12.5789985-10.671592-22.5889099-23.255884-22.6030258-12.836613.0194093-23.236475 10.421036-23.255885 23.2558845v7.9754626c-.038818 31.1784127-25.304449 56.4422791-56.481097 56.4810971zm221.354379-79.1194125c11.227404-13.9076542 33.301085-10.4475032 39.732625 6.2303891 1.037516 2.6908364 1.565097 5.5492986 1.556274 8.4324637 0 3.6754178 2.978447 6.6521005 6.652101 6.6521005h19.938656C509.03214 63.1243754 512 60.1494572 512 56.4810973 511.961181 25.3044491 486.695551.0388186236 455.518903 0c-25.539126.031760692-47.893359 17.1648895-54.557811 41.8182445h36.524796z"/></svg>