<svg width="256px" height="317px" viewBox="0 0 256 317" xmlns="http://www.w3.org/2000/svg" preserveAspectRatio="xMidYMid"><path d="M198.813842 98.6548438c3.716437.0095552 7.142387 2.0111822 8.975569 5.2440502l35.586022 61.635308c25.366831 43.936316 11.462314 104.795724-32.341494 141.562062-.925532.777265-1.980268 1.386101-3.116233 1.798814-14.087528 5.137113-28.964737 7.77166-43.959677 7.784646-39.45326 0-76.2778099-18.46187-94.8066993-50.555582l-42.349668-73.350382c-1.3723655-2.376729-1.744345-5.201293-1.0341038-7.85229.7102413-2.650998 2.4445213-4.911263 4.8213012-6.283542l28.8461205-16.654631c3.2032796-1.872546 7.1639181-1.886841 10.3806311-.037466 3.2167129 1.849375 5.1971469 5.279352 5.1906162 8.989795-.0065307 3.710443-1.9990264 7.133427-5.2222295 8.971467L49.8997747 191.38664l37.1749677 64.388484c20.1523026 34.904718 68.0657686 49.45952 112.0430626 34.281624 35.131053-30.494426 46.484986-79.268811 26.334215-114.173528l-35.586022-61.635308c-1.883405-3.20387-1.904198-7.171641-.054476-10.395075 1.849722-3.223433 5.285883-5.2074801 9.00232-5.1979932zM90.0737861 195.244687c.1205898.21667 6.6610287 11.866744 12.8949539 22.894675l.583327 1.031677c3.298106 5.831677 6.450382 11.381442 8.448325 14.841774 14.57395 25.243898 41.265095 34.887101 71.40106 25.777759 5.471524-1.652518 11.246701 1.443397 12.89922 6.91492 1.652519 5.471523-1.443396 11.2467-6.914919 12.899219-8.966006 2.764127-18.289664 4.195141-27.671932 4.247146-28.102213.312781-54.096701-14.863708-67.6383739-39.490026-2.0247662-3.506817-5.1360857-8.982207-8.3914299-14.736686l-.5757757-1.01805h0l-.5776148-1.02178h0l-.5783028-1.023448c-.1927544-.341198-.3854316-.682331-.5778398-1.023053l-.5762256-1.020594c-5.3669921-9.507648-10.372667-18.424401-10.805669-19.201403-2.7813416-4.992984-.9884509-11.295321 4.0045335-14.076663 4.9929844-2.781342 11.2953211-.988451 14.0766631 4.004533zM19.2716914 5.10585289 141.537008 216.876022c3.334909 5.77405 12.788542 15.682651 24.682463 11.844519 5.440114-1.753197 11.271445 1.23564 13.024643 6.675754 1.753197 5.440114-1.23564 11.271445-6.675754 13.024643-3.784336 1.23344-7.738641 1.865999-11.718904 1.874641-16.345191 0-30.199922-10.883262-37.236243-23.070156L1.34827881 15.4548706C-1.45536393 10.5105662.253414433 4.23044182 5.17569332 1.3883072 10.0979722-1.45382742 16.3912379.205899175 19.2716914 5.10585289zM109.027773 66.0675149l29.13488 50.4636691 18.530422-10.699436c4.945165-2.812693 11.233437-1.106171 14.078259 3.820581 2.844823 4.926752 1.179271 11.225999-3.728859 14.102831l-27.493851 15.874137c-1.468428.847835-3.120956 1.32138-4.811835 1.380751l-.363789.005952-.324148-.004684c-3.571262-.112007-6.842237-2.061818-8.636826-5.169217L91.1043603 76.4165326c-2.8036428-4.9443044-1.0948644-11.2244288 3.8274145-14.0665634 4.9222789-2.8421346 11.2155442-1.182408 14.0959982 3.7175457z" fill="#00abc7"/></svg>