<svg width="256px" height="251px" viewBox="0 0 256 251" xmlns="http://www.w3.org/2000/svg" preserveAspectRatio="xMidYMid"><path fill="#7099a6" d="M123.929417 11.5932444v11.6405639h-20.82052v7.5710984h20.82052v23.1864889h8.138931V30.8049067h21.341034v-7.5710984h-21.341034V0h-8.138931z"/><path fill="#eb912c" d="M55.8841702 41.1205283v16.8930133H24.369473v10.5995378h31.5146972v34.3065396h11.6878831V68.6130794h31.9878908V58.0135416H67.5720533V24.2275149H55.8841702z"/><path fill="#59879b" d="M187.952518 41.1205283v16.8930133h-31.514697v11.1200508h31.514697v33.7860266h12.161077V69.1335924h31.514697V58.0135416h-31.514697V24.2275149h-12.161077z"/><path fill="#e8762c" d="M120.900978 98.6608762v18.9277458H85.8373283v14.101171h35.0636497v37.855492h14.195809v-37.855492h35.06365v-14.101171h-35.06365V79.7331302h-14.195809z"/><path fill="#5b6591" d="M224.009874 108.219388v11.877161h-21.341033v9.605831h21.341033v23.707002h10.646857V129.70238h21.341034v-9.605831h-21.341034V96.3895467h-10.646857z"/><path fill="#7099a6" d="M20.8205206 109.260414v11.356648H0v8.044292h20.8205206v22.713295h8.1389308v-22.713295l21.3410337-.75711v-7.287182H28.9594514V97.9037663h-8.1389308z"/><path fill="#c72035" d="M55.8841702 162.731297v16.893013H24.369473v11.120051h31.5146972v33.786026H68.045247v-33.786026h31.5146971V179.62431H68.045247v-33.786027H55.8841702z"/><path fill="#1f447e" d="M187.952518 162.731297v16.893013h-31.514697v10.599538h31.514697v34.306539h12.161077v-34.306539h31.514697V179.62431h-31.514697v-33.786027h-12.161077z"/><path fill="#5b6591" d="M122.93571 205.649961v11.829841h-21.341033v9.605831h21.341033v23.707002h10.646858v-23.707002h21.341033v-9.605831h-21.341033V193.7728H122.93571z"/></svg>