<svg width="256px" height="256px" viewBox="0 0 256 256" xmlns="http://www.w3.org/2000/svg" preserveAspectRatio="xMidYMid"><path d="M224.287568 43.9155813l-11.962904 84.1998847-84.199885-11.962903 11.962904-84.1998855 84.199885 11.9629038h0z" opacity="0.8" fill="#a295ae"/><path d="M31.8853252 212.290983l11.9629038-84.199885 84.199885 11.962904-11.962904 84.199885-84.1998848-11.962904h0z" opacity="0.8" fill="#5d6f6d"/><path d="M43.8482612 32.0645356l84.1998848 11.9629039-11.962903 84.1998855-84.1998856-11.962904 11.9629038-84.1998854h0z" opacity="0.8" fill="#8cd592"/><path d="M212.226084 224.263692l-84.199885-11.962904 11.962904-84.199885 84.199885 11.962904-11.962904 84.199885h0z" opacity="0.8" fill="#665e74"/><path d="M119.642193 255.595097l-51.079259-67.99736 67.99736-51.079259 51.079259 67.99736-67.99736 51.079259h0z" opacity="0.8" fill="#3c3647"/><path d="M255.463211 136.38964l-67.99736 51.07926-51.079259-67.99736 67.997361-51.0792593 51.079258 67.9973593h0z" opacity="0.8" fill="#837193"/><path d="M136.436624.553850534 187.515883 68.5512107l-67.99736 51.0792593-51.0792588-67.9973603L136.436624.553850534h0z" opacity="0.8" fill="#a2f4ac"/><path d="M.463311092 119.700163 68.4606712 68.6209042 119.53993 136.618264l-67.9973601 51.079259-51.079258808-67.99736h0z" opacity="0.8" fill="#7ea685"/><path d="M127.963225 95.7423436 160.2954 128.074519l-32.332175 32.332175-32.3321751-32.332175 32.3321751-32.3321754h0z" fill="#3c3647"/></svg>