<svg width="256px" height="154px" viewBox="0 0 256 154" xmlns="http://www.w3.org/2000/svg" preserveAspectRatio="xMidYMid"><defs><linearGradient x1="-2.77777778%" y1="32%" x2="100%" y2="67.5555556%" id="a"><stop stop-color="#2298bd"/><stop stop-color="#0ed7b5" offset="1"/></linearGradient></defs><path d="M128-1.0658141e-14C93.8666667-1.0658141e-14 72.5333333 17.0666667 64 51.2 76.8 34.1333333 91.7333333 27.7333333 108.8 32c9.737481 2.4343704 16.697363 9.4985481 24.401067 17.3184C145.750756 62.0567704 160.275437 76.8 192 76.8c34.133333 0 55.466667-17.0666667 64-51.2-12.8 17.0666667-27.733333 23.4666667-44.8 19.2-9.737481-2.4343704-16.697363-9.4985481-24.401067-17.3184C174.249244 14.7432296 159.724563-1.0658141e-14 128-1.0658141e-14zM64 76.8C29.8666667 76.8 8.53333333 93.8666667 0 128c12.8-17.066667 27.7333333-23.466667 44.8-19.2 9.7374815 2.43437 16.697363 9.498548 24.4010667 17.3184C81.7507556 138.85677 96.275437 153.6 128 153.6c34.133333 0 55.466667-17.066667 64-51.2-12.8 17.066667-27.733333 23.466667-44.8 19.2-9.737481-2.43437-16.697363-9.498548-24.401067-17.3184C110.249244 91.5432296 95.724563 76.8 64 76.8z" fill="url(#a)"/></svg>