<svg width="256px" height="227px" viewBox="0 0 256 227" xmlns="http://www.w3.org/2000/svg" preserveAspectRatio="xMidYMid"><title>Tapcart</title><path d="M243.56268 83.2548079l-70.727187-70.7268598c-3.952388-3.97065713-8.650596-7.12139017-13.824191-9.27130336-5.173595-2.1499132-10.721082-3.25664473999999-16.323573-3.25664473999999-5.60249 0-11.149977 1.1067315399999857-16.323572 3.256644739999986-5.173595 2.14991319-9.871803 5.30064623-13.824192 9.27130336L81.0655716 44.1530775c16.4538783 2.6245796 31.4331414 11.0294941 42.2472054 23.7053582 10.814064 12.6756676 16.754433 28.7916678 16.754433 45.4537733 0 16.662106-5.940369 32.778106-16.754433 45.453773-10.814064 12.676323-25.7933271 21.080714-42.2472054 23.705817l31.6249984 31.655119c3.952388 3.970723 8.650596 7.120978 13.824191 9.271349 5.173595 2.149717 10.721082 3.256334 16.323573 3.256334 5.602491 0 11.149978-1.106617 16.323573-3.256334 5.173595-2.150371 9.871803-5.300626 13.824191-9.271349l70.576582-70.757308C251.526389 135.394115 256 124.583325 256 113.312209c0-11.271116-4.473611-22.0812513-12.43732-30.0574011zM80.1003927 45.1174052l.9645241-.964786c-10.0034184-1.5956229-20.2339879-1.0021753-29.9858312 1.7394829-9.7519088 2.7417238-18.792964 7.5662434-26.4994661 14.1409193-7.7065021 6.5747414-13.8949754 14.7427483-18.13852155 23.9414145C2.19757149 93.1724472-4.12114787e-13 103.181759-4.12114787e-13 113.312209c0 10.129795 2.197571490000412 20.139107 6.441097950000412 29.337118C10.6846441 151.847994 16.8731174 160.016 24.5796195 166.590873c7.7065021 6.574217 16.7475573 11.398802 26.4994661 14.140461 9.7518433 2.741658 19.9824128 3.335564 29.9858312 1.73981l-.9645241-.964524c-18.0786399-18.090885-28.234038-42.619133-28.234038-68.194411 0-25.5759325 10.1553981-50.1044429 28.234038-68.1948038z" fill="#1b191b"/></svg>