<svg width="256px" height="256px" viewBox="0 0 256 256" xmlns="http://www.w3.org/2000/svg" preserveAspectRatio="xMidYMid"><path d="M128.418357 12.3705591c5.810669 0 10.794687 3.4981378 12.981869 8.4984273.218718.4989965.704375.7725843 1.191755.7725843.347882 0 .697487-.1410956.948927-.4404935 2.664228-3.1798125 6.640765-5.0828821 10.861853-5.0828821 1.212421 0 2.44551.1583024 3.671709.4852312 5.62295 1.505593 9.534044 6.1858365 10.343473 11.5939266.096443.6469748.673376 1.0668201 1.270977 1.0668201.242828 0 .490823-.0705477.711264-.223688 2.395566-1.6776608 5.254402-2.5741339 8.163181-2.5741339 2.39901 0 4.830743.6108406 7.060979 1.8961869 5.04085 2.9079453 7.606913 8.4399242 6.986925 13.8721039-.087832.7674223.552823 1.4023523 1.272698 1.4023523.139498 0 .282439-.0240894.423659-.0757098 1.570637-.571265 3.222218-.8586182 4.872076-.8586182 3.623488 0 7.243531 1.3782629 10.007646 4.1416713 4.116034 4.1124198 5.161404 10.1193058 3.156775 15.205629-.325494.8242051.318605 1.7258399 1.183144 1.7258399.037889 0 .074055-.0017209.110221-.0051619.415047-.0361342.828373-.055062 1.243421-.055062 4.896186 0 9.656319 2.5311172 12.280937 7.0737063 2.910501 5.0364239 2.362844 11.1086957-.892095 15.5033064-.547656.7416124-.103331 1.8376841.805985 1.9977071 5.259569.9240036 9.769984 4.7817631 11.244179 10.2758871 1.506916 5.6180136-.594155 11.3427076-4.877242 14.7462086-.721598.572986-.576934 1.746488.260051 2.137082 4.841076 2.252367 8.199347 7.145975 8.199347 12.832814 0 5.807287-3.499491 10.785208-8.504175 12.970469-.85765.375108-1.050536 1.538286-.334105 2.138802 4.09709 3.42759 6.075886 9.024955 4.601692 14.5208-1.506916 5.618013-6.191273 9.525672-11.604116 10.33439-.912761.135934-1.372586 1.225123-.843874 1.9805 3.065499 4.368801 3.525323 10.284491.678543 15.210791-2.624618 4.540869-7.383029 7.071986-12.279215 7.071986-.533879 0-1.071202-.030972-1.605081-.091196-.046499-.005162-.09472-.008603-.139498-.008603-.849039 0-1.487971.880987-1.18831 1.703471 1.828965 5.012334.740541 10.845432-3.285939 14.866655-2.764115 2.763409-6.384159 4.141672-10.005925 4.141672-1.770411 0-3.540822-.33037-5.213069-.987669-.148108-.058503-.299661-.086034-.447769-.086034-.706098 0-1.341586.619444-1.274421 1.379983.468436 5.313453-2.094183 10.666482-7.024813 13.510762-2.228514 1.285346-4.660246 1.896187-7.059257 1.896187-3.02761 0-6.003554-.972183-8.457675-2.785777-.223885-.165185-.478769-.240895-.730209-.240895-.585545 0-1.157312.409521-1.269254 1.044451-.924816 5.25495-4.785966 9.763126-10.284919 11.234305-1.227921.328649-2.459288.485231-3.671709.485231-4.341641 0-8.423232-2.013192-11.08746-5.35819-.249718-.313164-.6131-.462862-.976481-.462862-.471881 0-.942038.251218-1.160756.722684-2.25607 4.836825-7.153978 8.192147-12.845816 8.192147-5.812392 0-10.794688-3.496417-12.981869-8.496707-.218718-.498996-.704375-.772584-1.191756-.772584-.347882 0-.697486.139375-.948926.438773-2.664228 3.179812-6.640765 5.082882-10.8618525 5.082882-1.2124223 0-2.4455101-.156582-3.6717092-.485231-5.6229505-1.505593-9.5340446-6.185837-10.3434738-11.592206-.0964427-.648696-.6733763-1.068541-1.2709761-1.068541-.2428289 0-.4908242.070547-.7112647.225409-2.3955661 1.67766-5.2544015 2.574134-8.163181 2.574134-2.3990102 0-4.8307428-.610841-7.0609789-1.897908-5.0408505-2.907946-7.6051913-8.439924-6.9869248-13.872104.0878317-.767422-.5528233-1.400632-1.2726984-1.400632-.1394975 0-.2824396.022369-.4236593.07399-1.5706371.572985-3.2222174.858618-4.8720754.858618-3.6234879 0-7.2435314-1.378263-10.0076464-4.139951-4.1160343-4.11414-5.1614036-10.121026-3.1567744-15.20735.3254939-.822484-.3186052-1.72584-1.1831446-1.72584-.0378881 0-.0740541.001721-.1102201.005163-.4150478.036134-.8283734.055061-1.2434212.055061-4.8961863 0-9.6563197-2.531117-12.2809373-7.073706-2.9105012-5.036424-2.3628447-11.108695.8920945-15.503307.5476564-.741611.1033313-1.837683-.805985-1.997706-5.2595684-.924004-9.7699842-4.781764-11.2441788-10.275888-1.5069163-5.618013.5941555-11.342707 4.8772422-14.744487.7215976-.574707.5769336-1.748209-.2600507-2.137082-4.8410763-2.252367-8.1993468-7.145975-8.1993468-12.834536 0-5.805566 3.4994901-10.785208 8.5058966-12.970468.8559284-.375108 1.0488138-1.538286.3323827-2.137082-4.0970901-3.42759-6.0758865-9.026676-4.6016918-14.5225198 1.5069162-5.6180128 6.1912732-9.5256725 11.6041166-10.3343908.9127606-.1359333 1.3725854-1.2251224.8438731-1.9805001-3.0654983-4.3688008-3.5253231-10.2844906-.6785429-15.2090703 2.6246176-4.5425891 7.3830287-7.0719855 12.2792151-7.0719855.5338789 0 1.06948.0292515 1.6050811.0911956.0464991.0051625.0947204.0068827.1412196.0068827.8473175 0 1.48625-.8809868 1.1865889-1.7017503-1.8289658-5.0140547-.7405417-10.8471523 3.2842165-14.8683761 2.7658372-2.7634085 6.3858807-4.1399507 10.0076464-4.1399507 1.7704113 0 3.5408227.3286495 5.213069.987669.1481085.0585031.2996611.0843133.4477696.0843133.7060982 0 1.3415863-.619444 1.2744208-1.3782629-.4684358-5.3151736 2.0941833-10.668202 7.024813-13.5124823 2.2285143-1.2853463 4.6602464-1.8961869 7.0592572-1.8961869 3.0276101 0 6.0052768.9721829 8.4576751 2.787498.2238851.1634644.4787691.2391742.7302085.2391742.5855447 0 1.1573119-.4078007 1.2692544-1.0444514.9248157-5.2549498 4.7859658-9.7614048 10.2849187-11.234305 1.227922-.3286494 2.4592875-.4852311 3.6717095-.4852311 4.341641 0 8.423232 2.013193 11.087459 5.3581905.249718.314884.6131.464583.976482.464583.47188 0 .942038-.2529396 1.162479-.7244054 2.254346-4.8368251 7.152255-8.1921466 12.844093-8.1921466" fill="#fff"/><g style="fill:#2f2f2f"><path d="M181.462373 184.199116c-12.940465 0-11.925123-18.251515 0-18.251515 11.925124 0 12.940466 18.251515 0 18.251515m-106.929922 0c-12.9404659 0-11.9251234-18.251515 0-18.251515 11.9251234 0 12.9404654 18.251515 0 18.251515m146.025736-67.432255h-4.383808c-7.86204 0-14.614408-4.694813-17.636423-11.423475-3.022014 6.728662-9.774382 11.423475-17.634707 11.423475-7.86204 0-14.612693-4.694813-17.634707-11.423475-3.022015 6.728662-9.774382 11.423475-17.636423 11.423475-7.860325 0-14.612692-4.694813-17.634707-11.423475-3.022014 6.728662-9.774382 11.423475-17.634707 11.423475-7.862041 0-14.6126929-4.694813-17.6364226-11.423475-3.0220145 6.728662-9.7726668 11.423475-17.6347072 11.423475-7.8620404 0-14.6126928-4.694813-17.6347076-11.423475-3.0220146 6.728662-9.7743821 11.423475-17.6364224 11.423475h-4.3340698c-6.5757117 7.067921-2.4045769 13.039244 13.8340352 13.039244v36.295705c0 34.111074 39.3170622 51.166611 78.6341234 51.166611 39.317063 0 78.634124-17.055537 78.634124-51.166611v-36.295705c16.252333 0 20.493788-5.971323 13.969529-13.039244"/><path d="M129.257157 0c-5.757607 0-11.268239 1.80253417-15.844139 4.97238987-3.178089-1.23710044-6.598008-1.89163281-10.119117-1.89163281-2.426874 0-4.8520318.32041245-7.2085858.95095671-5.5689455 1.4906889-10.4312676 4.6639715-14.0329877 8.91843183-1.0187718-.1148001-2.0444045-.173057-3.0717525-.173057-4.862322 0-9.6663306 1.2885036-13.8906335 3.7250089-4.990955 2.8785717-8.8636615 7.1981426-11.2407968 12.235643-5.8347864.877279-11.2185003 3.5793668-15.4685299 7.82526-4.0819494 4.0762631-6.7043447 9.2576921-7.692245 14.7458261-5.3408363 2.3491201-9.9115905 6.3482786-12.9095937 11.5382745-2.8830911 4.987811-4.0750889 10.6644232-3.6102955 16.2159541-4.53473708 3.6273428-7.91349348 8.6562759-9.48109924 14.4973779-1.49214116 5.5652383-1.17313167 11.3566509.71348359 16.5997629C1.96207987 114.836162 0 120.569317 0 126.614318c0 5.76057 1.80772044 11.270979 4.9892398 15.847565-2.11129398 5.405889-2.52120402 11.449176-.95531336 17.291991 1.49385626 5.563525 4.66851522 10.417688 8.92540526 14.015902-.6380189 5.767424.5316825 11.711332 3.5588424 16.949305 2.8745157 4.975816 7.1948646 8.858461 12.2527086 11.238423.8798487 5.733155 3.5485518 11.1716 7.8277382 15.446622 4.0768041 4.071122 9.1946767 6.72352 14.7567615 7.708746 2.3359727 5.301369 6.318446 9.852254 11.5512309 12.871328 4.2260181 2.438218 9.0300267 3.726722 13.8923487 3.726722.7906629 0 1.5761813-.034269 2.3565535-.09938 3.629162 4.520044 8.657849 7.888657 14.4960658 9.451311 2.3565541.630544 4.7817124.950957 7.2085857.950957 3.258699 0 6.445363-.567148 9.434791-1.643185 4.675376 3.421731 10.403826 5.375047 16.44271 5.375047 5.757606 0 11.268238-1.802534 15.844138-4.97239 3.178089 1.238814 6.599723 1.891633 10.119118 1.891633 2.426873 0 4.852031-.318699 7.208585-.950957 5.568946-1.490689 10.431268-4.663971 14.031273-8.918431 1.020487.1148 2.046119.173057 3.073467.173057 4.862322 0 9.666331-1.288504 13.890634-3.72501 4.99267-2.878571 8.863661-7.198142 11.240796-12.235642 5.836502-.877279 11.218501-3.579367 15.468531-7.825261 4.080234-4.076263 6.702629-9.257691 7.692245-14.745825 5.340836-2.347407 9.91159-6.346566 12.909593-11.536562 2.883091-4.987811 4.075089-10.664423 3.610296-16.215954 4.534737-3.627343 7.913493-8.656276 9.481099-14.499091 1.492141-5.565238 1.173132-11.356651-.713483-16.59805 3.438785-4.677679 5.400864-10.409121 5.400864-16.455835 0-5.758856-1.809435-11.270978-4.98924-15.845851 2.111295-5.405889 2.521204-11.45089.953598-17.293705-1.492141-5.5635252-4.6668-10.417688-8.923689-14.0159023.638018-5.7674239-.531683-11.7113319-3.558843-16.9493044-2.876231-4.9758167-7.194865-8.8567482-12.252709-11.2384235-.879848-5.7331552-3.548551-11.1698861-7.827737-15.4449078-4.076805-4.0728362-9.194677-6.7252344-14.756762-7.7087464-2.334258-5.3013695-6.316731-9.8539676-11.551231-12.873041-4.224303-2.4365053-9.028311-3.7250088-13.890634-3.7250088-.790663 0-1.577896.0325552-2.358268.0976658-3.629162-4.51832948-8.657849-7.88865716-14.496066-9.45131033-2.356554-.63054427-4.781712-.95095671-7.20687-.95095671-3.260414 0-6.447079.56714715-9.436507 1.6448981C141.024491 1.95331649 135.296041 0 129.257157 0m0 13.7074841c5.786763 0 10.750277 3.4834144 12.92846 8.4626581.217818.4968963.701477.7693325 1.186852.7693325.346451 0 .694617-.1405017.945023-.4386394 2.653267-3.1664289 6.613444-5.0614886 10.817166-5.0614886 1.207433 0 2.435448.1576361 3.656603.4831888 5.599817 1.4992561 9.49482 6.1598007 10.300919 11.5451286.096046.6442517.670606 1.06233 1.265748 1.06233.241829 0 .488804-.0702509.708338-.2227466 2.38571-1.6705997 5.232784-2.5632996 8.129596-2.5632996 2.389141 0 4.810869.6082696 7.03193 1.8882059 5.020112 2.8957061 7.575618 8.4044013 6.95818 13.8137172-.08747.7641922.550549 1.3964499 1.267462 1.3964499.138924 0 .281278-.0239881.421916-.0753911 1.564176-.5688606 3.208961-.8550044 4.852031-.8550044 3.608581 0 7.213732 1.3724619 9.966475 4.1242394 4.0991 4.0951108 5.140169 10.0767142 3.143787 15.1416295-.324155.8207357.317294 1.7185757 1.178277 1.7185757.037732 0 .073749-.0017131.109767-.00514.41334-.0359821.824965-.0548301 1.238305-.0548301 4.876043 0 9.616592 2.520464 12.230412 7.0439336 2.898528 5.0152258 2.353124 11.0619397-.888424 15.4380538-.545403.7384908-.102906 1.829949.802669 1.9892988 5.23793.9201148 9.729789 4.7616374 11.197919 10.2326372 1.500717 5.5943667-.591711 11.2949667-4.857177 14.6841417-.718629.570574-.57456 1.739137.258981 2.128087 4.82116 2.242887 8.165614 7.115898 8.165614 12.778802 0 5.782845-3.485093 10.739814-8.469187 12.915878-.854123.373528-1.046214 1.531811-.332731 2.1298 4.080234 3.413163 6.05089 8.986969 4.58276 14.459682-1.500716 5.594367-6.165801 9.485579-11.556376 10.290894-.909006.135361-1.366939 1.219966-.840401 1.972164 3.052886 4.350413 3.510819 10.241204.675751 15.14677-2.61382 4.521756-7.352654 7.04222-12.228697 7.04222-.531682 0-1.066795-.030842-1.598477-.090812-.046309-.005141-.094331-.008567-.138924-.008567-.845547 0-1.481851.877279-1.183422 1.696301 1.821441 4.991237.737495 10.799784-3.27242 14.804083-2.752744 2.751777-6.357894 4.124239-9.964759 4.124239-1.763128 0-3.526255-.328979-5.191622-.983512-.147499-.058257-.298428-.085672-.445928-.085672-.703193 0-1.336066.616837-1.269177 1.374176.466509 5.291089-2.085568 10.621587-6.995912 13.453895-2.219346 1.279937-4.641074 1.888206-7.030215 1.888206-3.015154 0-5.978855-.968091-8.42288-2.774052-.222963-.16449-.476799-.239881-.727204-.239881-.583135 0-1.15255.407798-1.264032 1.040056-.921011 5.232831-4.766276 9.722033-10.242606 11.18702-1.222869.327266-2.449169.483189-3.656603.483189-4.323779 0-8.388578-2.00472-11.041845-5.335638-.24869-.311845-.610577-.460915-.972464-.460915-.469939 0-.938163.250162-1.155981.719643-2.246787 4.816468-7.124545 8.157667-12.792966 8.157667-5.788479 0-10.750277-3.481701-12.92846-8.460945-.217819-.496896-.701478-.769332-1.186852-.769332-.346452 0-.694618.138788-.945023.436926-2.653268 3.166429-6.613444 5.061488-10.817166 5.061488-1.2074338 0-2.4354488-.155922-3.6566035-.483188-5.5998172-1.499257-9.49482-6.159801-10.3009194-11.543416-.096046-.645964-.670606-1.064043-1.2657475-1.064043-.2418296 0-.4888047.070251-.7083381.22446-2.3857105 1.6706-5.2327845 2.5633-8.1295965 2.5633-2.389141 0-4.8108689-.60827-7.0319297-1.88992-5.020112-2.895706-7.5739027-8.404401-6.9581803-13.813717.0874705-.764192-.5505486-1.394736-1.2674622-1.394736-.1389238 0-.2812773.022274-.4219157.073677-1.5641759.570574-3.2089612.855005-4.8520316.855005-3.6085804 0-7.2137307-1.372462-9.9664739-4.122526-4.0991004-4.096825-5.140169-10.078428-3.143787-15.143343.3241548-.819022-.3172944-1.718576-1.178277-1.718576-.0377323 0-.0737495.001713-.1097668.00514-.4133402.035982-.8249653.05483-1.2383056.05483-4.8760428 0-9.6165925-2.520464-12.2304121-7.043934-2.8985272-5.015225-2.3531238-11.061939.8884242-15.438053.5454033-.738491.1029063-1.829949-.802669-1.989299-5.23793-.920115-9.7297894-4.761638-11.1979191-10.232637-1.5007167-5.594367.5917111-11.294967 4.8571767-14.682429.7186289-.572287.5745601-1.74085-.2589808-2.128087-4.8211596-2.242887-8.1656139-7.115897-8.1656139-12.780515 0-5.781132 3.4850929-10.739814 8.4709025-12.915877.8524071-.373529 1.0444988-1.531812.3310152-2.128087-4.0802342-3.413164-6.0508896-8.988683-4.5827599-14.4613962 1.5007167-5.5943667 6.1658017-9.4855789 11.556376-10.2908935.9090055-.1353613 1.3669385-1.2199658.8404013-1.972164-3.0528865-4.350413-3.5108195-10.2412046-.6757513-15.145057 2.6138197-4.5234696 7.3526542-7.0422199 12.2286971-7.0422199.5316825 0 1.0650801.0291285 1.5984777.0908123.0463078.00514.0943308.0068537.1406386.0068537.8438315 0 1.4801354-.8772789 1.1817072-1.6945878-1.8214413-4.9929511-.7374951-10.8014975 3.2707048-14.8057964 2.7544583-2.7517774 6.3596085-4.1225258 9.9664739-4.1225258 1.7631276 0 3.5262554.3272662 5.1916219.983512.1474992.0582568.2984283.0839583.4459276.0839583.703193 0 1.3360665-.6168368 1.2691774-1.3724618-.4665085-5.2928023 2.0855676-10.6233002 6.9959124-13.4556092 2.2193456-1.2799363 4.6410734-1.8882059 7.0302144-1.8882059 3.0151542 0 5.9805704.9680911 8.4228798 2.7757655.2229632.1627764.4767987.2381676.7272043.2381676.5831356 0 1.1525505-.4060842 1.2640324-1.0400554.9210111-5.2328321 4.766276-9.7203197 10.2426052-11.1870205 1.2228703-.3272662 2.4491693-.4831888 3.6566043-.4831888 4.323778 0 8.388577 2.0047196 11.041844 5.3356382.24869.3135587.610577.4626276.972464.4626276.469939 0 .938163-.251875 1.157696-.7213564 2.245072-4.8164672 7.12283-8.1576665 12.791252-8.1576665"/></g></svg>