<svg width="256px" height="389px" viewBox="0 0 256 389" xmlns="http://www.w3.org/2000/svg" preserveAspectRatio="xMidYMid"><linearGradient id="d" gradientUnits="userSpaceOnUse" x1="-385.7729" y1="802.0126" x2="-385.7729" y2="802.8324" gradientTransform="matrix(359.4979 0 0 -51.2998 138810.6406 41533.4219)"><stop offset="0" style="stop-color:#e6e7e8"/><stop offset="1" style="stop-color:#a7a9ac"/></linearGradient><ellipse opacity="0.39" fill="url(#d)" cx="126.1" cy="375.1" rx="90" ry="12.8"/><linearGradient id="e" gradientUnits="userSpaceOnUse" x1="-385.702" y1="808.0942" x2="-385.702" y2="808.9103" gradientTransform="matrix(327.5602 0 0 -28.3446 126466.7188 23288.6289)"><stop offset="0" style="stop-color:#e6e7e8"/><stop offset="1" style="stop-color:#a7a9ac"/></linearGradient><path opacity="0.46" fill="url(#e)" d="M158.6 368.1c-12.5 0-23.8.7-32.5 1.8-8.7-1.1-20.1-1.8-32.5-1.8-27.4 0-49.6 3.2-49.6 7.1 0 3.9 22.2 7.1 49.6 7.1 12.5 0 23.8-.6 32.5-1.8 8.7 1.1 20.1 1.8 32.5 1.8 27.4 0 49.6-3.2 49.6-7.1-.1-3.9-22.2-7.1-49.6-7.1h0 0z"/><radialGradient id="f" cx="-383.1929" cy="798.0082" r="0.2189" gradientTransform="matrix(51.699 0 0 -39.7224 20040.6934 31807.1367)" gradientUnits="userSpaceOnUse"><stop offset="0" style="stop-color:#ff8b6c"/><stop offset="1" style="stop-color:#ce4920"/></radialGradient><ellipse fill="url(#f)" cx="223.4" cy="112.5" rx="12.9" ry="10"/><linearGradient id="g" gradientUnits="userSpaceOnUse" x1="225.4983" y1="110.5025" x2="228.282" y2="102.3205" gradientTransform="translate(0 8)"><stop offset="0" style="stop-color:#b2251a;stop-opacity:6.926769e-02"/><stop offset="0" style="stop-color:#b32000"/><stop offset="1" style="stop-color:#c7392e"/></linearGradient><path fill="url(#g)" d="M234.8 109.9c0 0-7.3-6.5-13.5-.5 0 0 5 1.3 4.5 4.4-.5 3.1-4.7 4.2-4.7 4.2s14.5 4.1 13.7-8.1h0 0z"/><path fill="#7f1e0b" d="M225.8 113.8c.5-3.1-4.5-4.4-4.5-4.4 6.3-6 13.5.5 13.5.5l.1.6c-2.7-.7-9.5-1.6-8.4 8.1-2.9.1-5.5-.7-5.5-.7s4.3-1.1 4.8-4.1h0 0z"/><radialGradient id="h" cx="-379.687" cy="798.0023" r="0.2147" gradientTransform="matrix(51.699 0 0 -39.7224 19651.3555 31807.1367)" gradientUnits="userSpaceOnUse"><stop offset="0" style="stop-color:#ff8b6c"/><stop offset="1" style="stop-color:#ce4920"/></radialGradient><ellipse fill="url(#h)" cx="28.5" cy="112.5" rx="12.9" ry="10"/><linearGradient id="i" gradientUnits="userSpaceOnUse" x1="23.8934" y1="110.7868" x2="23.7818" y2="102.661" gradientTransform="translate(0 8)"><stop offset="0" style="stop-color:#b2251a;stop-opacity:6.926769e-02"/><stop offset="0" style="stop-color:#b32000"/><stop offset="1" style="stop-color:#c7392e"/></linearGradient><path fill="url(#i)" d="M17 109.9c0 0 7.3-6.5 13.5-.5 0 0-5 1.3-4.5 4.4.5 3.1 4.7 4.2 4.7 4.2s-14.5 4.1-13.7-8.1h0 0z"/><path fill="#7f1e0b" d="M26 113.8c-.5-3.1 4.5-4.4 4.5-4.4-6.3-6-13.5.5-13.5.5l-.1.6c2.7-.7 9.5-1.6 8.4 8.1 2.9.1 5.5-.7 5.5-.7s-4.2-1.1-4.8-4.1h0 0z"/><radialGradient id="j" cx="-386.0009" cy="795.2947" r="0.2584" gradientTransform="matrix(511.0235 0 0 -725.8977 197379.0469 577344)" gradientUnits="userSpaceOnUse"><stop offset="0" style="stop-color:#f28567"/><stop offset="1" style="stop-color:#bf441e"/></radialGradient><path fill="url(#j)" d="M124.7 13.2c0 0-69.2-6.6-87.1 89.6s-57.2 120.9-25.9 164c0 0 0 56 47.1 103.6 0 0 18.1 14.7 30.8-3.6 12.8-18.4 30.1-28.8 44.8-25s28.3 22.4 33.9 28.5c5.6 6.1 29 25.2 58.6-55.3 0 0 55.5-30.6 13.5-117.1 0 0-16.1-36.9-24.5-89.6-8.5-52.5-34.9-94.3-91.2-95.1h0 0z"/><linearGradient id="k" gradientUnits="userSpaceOnUse" x1="127.9845" y1="785.1328" x2="127.9845" y2="643.4194" gradientTransform="matrix(1 0 0 -1 0 794)"><stop offset="0" style="stop-color:#b11a0a;stop-opacity:0.25"/><stop offset="1" style="stop-color:#b11a0a"/></linearGradient><path opacity="0.7" fill="url(#k)" d="M240.3 198c0 0-16.1-36.9-24.5-89.6-6.6-41.2-24.2-75.7-58.5-89.2C170.9 29.5 168.9 44 168.9 44c-31-2.9-39.7 31.3-39.7 31.3s3.5-28.9 2.4-28.6c-1.2.3-4.7 24.3-4.7 24.3l-1.5-11.4-.6 11.4-5.2-22 3.8 27.8c-6.2-39-45.3-32.1-45.3-32.1-1.6-11.5 8.6-20.6 18.2-26.5-21.3 8.1-48.4 29.5-58.7 84.7-17.8 96.2-57.3 120.8-26 163.9 0 0 0 56 47.1 103.6 0 0 18.1 14.7 30.8-3.6 12.8-18.4 30.1-28.8 44.8-25s28.3 22.4 33.9 28.5c5.6 6.1 29 25.2 58.6-55.3 0 .1 55.5-30.5 13.5-117h0 0z"/><g style="fill:#ad1813"><path d="M119.7 71.3c0 0-5.7-24.8-31.7-24.8S56.3 81.7 56.3 81.7s0 20.3 24.8 25c0 0-12.1-4.4-18.4-13.8 0 0 6 4.8 20.3 5.5 0 0-22.2-4.8-25.3-16.6 0 0 5.8-32.4 30.4-33.3 24.7-1 31.6 22.8 31.6 22.8h0 0z"/><path d="M119.8 84.7l-.5.7c0 0 .5-30.6-27.8-32-28.3-1.5-32.7 28.3-32.7 28.3s.8 7.7 27.8 9.2c16.9.9 25.4-1.5 29.4-3.4 2.6-.8 2.6 1.1 2.6 1.1-8.4 8.1-27.5 10.6-27.5 10.6 15.8.8 25.1-4.8 25.1-4.8-5.2 9.1-19.7 12.6-19.7 12.6 20.4-.2 25.6-18.2 25.6-18.2l-2.3-4.1h0z"/></g><linearGradient id="l" gradientUnits="userSpaceOnUse" x1="-383.9757" y1="796.1348" x2="-383.9757" y2="795.8724" gradientTransform="matrix(118.1692 0 0 -70.0185 45463.2539 55805.1367)"><stop offset="0" style="stop-color:#fff"/><stop offset="1" style="stop-color:#ddc48c"/></linearGradient><path fill="url(#l)" d="M59.6 81.8c0 0 6-29.3 32.4-27.5 26.4 1.8 26.9 31.1 26.9 31.1s-9.4 5.5-32.8 3.6c-23.6-2.1-26.5-7.2-26.5-7.2h0 0z"/><radialGradient id="m" cx="-383.4181" cy="796.3013" r="0.239" gradientTransform="matrix(92.1201 0 0 -59.9196 35408.2891 47783.6602)" gradientUnits="userSpaceOnUse"><stop offset="0" style="stop-color:#6caf11"/><stop offset="0.3299" style="stop-color:#6aac10"/><stop offset="0.6098" style="stop-color:#64a10f"/><stop offset="0.8706" style="stop-color:#59900c"/><stop offset="1" style="stop-color:#52840a"/></radialGradient><path fill="url(#m)" d="M109.5 62c-3.5-1.8-7.4-2.7-11.5-2.7-14.1 0-25.5 11.4-25.5 25.5 0 .8.1 1.6.1 2.4 3.5.7 7.8 1.3 13.2 1.8 23.5 2 32.8-3.6 32.8-3.6s-.2-14.3-9.1-23.4h0 0z"/><g style="fill:#ad1813"><path d="M134.2 70.5c0 0 5.5-24.1 30.8-24.1s30.8 34.2 30.8 34.2 0 19.7-24.1 24.2c0 0 11.7-4.2 17.8-13.4 0 0-5.8 4.7-19.7 5.3 0 0 21.6-4.7 24.5-16.1 0 0-5.6-31.4-29.5-32.3-23.9-.8-30.6 22.2-30.6 22.2h0 0z"/><path d="M134.1 83.5l.5.6c0 0-.5-29.7 27-31.1s31.7 27.5 31.7 27.5-.8 7.5-27 8.9c-16.4.9-24.6-1.4-28.6-3.3-2.5-.8-2.6 1.1-2.6 1.1 8.1 7.8 26.7 10.3 26.7 10.3-15.3.8-24.4-4.7-24.4-4.7 5.2 8.9 19.2 12.4 19.2 12.4-19.8-.2-24.8-17.7-24.8-17.7l2.3-4h0z"/></g><linearGradient id="n" gradientUnits="userSpaceOnUse" x1="-384.5492" y1="796.2324" x2="-384.5492" y2="795.9505" gradientTransform="matrix(114.676 0 0 -67.9978 44262.3906 54197.5938)"><stop offset="0" style="stop-color:#fff"/><stop offset="1" style="stop-color:#ddc48c"/></linearGradient><path fill="url(#n)" d="M192.6 80.7c0 0-5.8-28.4-31.4-26.7-25.6 1.7-26.1 30.2-26.1 30.2s9.1 5.3 31.9 3.5c22.8-2 25.6-7 25.6-7h0 0z"/><radialGradient id="o" cx="-383.8433" cy="796.3267" r="0.2075" gradientTransform="matrix(89.4254 0 0 -58.0704 34490.3945 46312.1758)" gradientUnits="userSpaceOnUse"><stop offset="0" style="stop-color:#6caf11"/><stop offset="0.3299" style="stop-color:#6aac10"/><stop offset="0.6098" style="stop-color:#64a10f"/><stop offset="0.8706" style="stop-color:#59900c"/><stop offset="1" style="stop-color:#52840a"/></radialGradient><path fill="url(#o)" d="M144.1 61.5c3.4-1.7 7.1-2.7 11.1-2.7 13.6 0 24.8 11.1 24.8 24.8 0 .8-.1 1.5-.1 2.3-3.4.7-7.6 1.3-12.8 1.7-22.8 1.9-31.9-3.5-31.9-3.5s.2-13.7 8.9-22.6h0 0z"/><linearGradient id="p" gradientUnits="userSpaceOnUse" x1="-385.6572" y1="795.8278" x2="-385.6572" y2="795.5438" gradientTransform="matrix(309.5371 0 0 -204.8136 119501.8281 163105.5312)"><stop offset="0" style="stop-color:#ce4920;stop-opacity:0"/><stop offset="1" style="stop-color:#9c1710"/></linearGradient><path fill="url(#p)" d="M66.6 111.5c0 0 57.8 9.3 113.6-6.8s3.2 99.6-45 101c-48.3 1.4-73.7-33.6-84.5-72-.1 0-8.9-27.2 15.9-22.2h0 0z"/><radialGradient id="q" cx="-385.6651" cy="795.7128" r="0.5201" gradientTransform="matrix(309.5371 0 0 -193.8552 119501.8281 154390.2969)" gradientUnits="userSpaceOnUse"><stop offset="0" style="stop-color:#e04c89"/><stop offset="1" style="stop-color:#96003a"/></radialGradient><path fill="url(#q)" d="M66.6 111c0 0 57.8 8.8 113.6-6.4 55.8-15.1 3.2 94.3-45 95.6-48.3 1.3-73.8-31.8-84.6-68.2 0 0-8.8-25.6 16-21h0 0z"/><radialGradient id="r" cx="-385.5668" cy="795.814" r="0.2159" gradientTransform="matrix(278.6017 0 0 -157.6357 107547.1953 125597.7031)" gradientUnits="userSpaceOnUse"><stop offset="0" style="stop-color:#e04c89"/><stop offset="1" style="stop-color:#96003a"/></radialGradient><path fill="url(#r)" d="M71.9 119.2c0 0 61.6 12.7 107-6.9 0 0 13.7-6.9 18 1.1 4.3 8-19.3 72.5-65.6 75-46.3 2.6-63.7-37.5-72-56.2 0 0-3.6-8.7.7-12.2 3.1-2.6 4.6-2.3 11.9-.8h0 0z"/><path fill="#590d00" d="M71.9 119.2c0 0 61.6 12.7 107-6.9 0 0 13.7-6.9 18 1.1 4.3 8-19.3 72.5-65.6 75-46.3 2.6-63.7-37.5-72-56.2 0 0-3.6-8.7.7-12.2 3.1-2.6 4.6-2.3 11.9-.8h0 0z"/><path opacity="0.7" fill="#250000" d="M110.8 138.9c11.8-3.7 25.7-5.8 41.1-4.3 3.2-7 2.3-12.5 1.7-14.6-6.2 1.2-12.4 2.1-18.6 2.6 1.5 3.7-1.1 7.3-6.7 6.8-5.3-.5-4.9-4.1-4.1-6.2-6.3.2-12.3.2-17.9-.1-3.1 9.9 2.2 14.4 4.5 15.8h0 0z"/><linearGradient id="s" gradientUnits="userSpaceOnUse" x1="-379.7827" y1="799.929" x2="-379.4332" y2="799.929" gradientTransform="matrix(43.9187 0 0 -26.7078 16755.0508 21490.3672)"><stop offset="0" style="stop-color:#cebc99"/><stop offset="4.692215e-02" style="stop-color:#d8caaf"/><stop offset="0.1236" style="stop-color:#e6ddcc"/><stop offset="0.2054" style="stop-color:#f1ece2"/><stop offset="0.2937" style="stop-color:#f9f7f3"/><stop offset="0.393" style="stop-color:#fefdfc"/><stop offset="0.5266" style="stop-color:#fff"/><stop offset="0.6615" style="stop-color:#fefdfc"/><stop offset="0.7491" style="stop-color:#faf8f4"/><stop offset="0.8233" style="stop-color:#f2eee5"/><stop offset="0.8899" style="stop-color:#e8e0d0"/><stop offset="0.951" style="stop-color:#dbceb5"/><stop offset="1" style="stop-color:#cebc99"/></linearGradient><path fill="url(#s)" d="M94.9 122.3c-11.2-1-19.3-2.4-22-2.9-.1 2.9.7 12.2 11 13.3 8.4.9 10.5-6 11-10.4h0 0z"/><linearGradient id="t" gradientUnits="userSpaceOnUse" x1="-381.8981" y1="798.58" x2="-381.5298" y2="798.58" gradientTransform="matrix(44.3134 0 0 -34.2383 17088.9551 27460.6016)"><stop offset="0" style="stop-color:#cebc99"/><stop offset="4.692215e-02" style="stop-color:#d8caaf"/><stop offset="0.1236" style="stop-color:#e6ddcc"/><stop offset="0.2054" style="stop-color:#f1ece2"/><stop offset="0.2937" style="stop-color:#f9f7f3"/><stop offset="0.393" style="stop-color:#fefdfc"/><stop offset="0.5266" style="stop-color:#fff"/><stop offset="0.6615" style="stop-color:#fefdfc"/><stop offset="0.7491" style="stop-color:#faf8f4"/><stop offset="0.8233" style="stop-color:#f2eee5"/><stop offset="0.8899" style="stop-color:#e8e0d0"/><stop offset="0.951" style="stop-color:#dbceb5"/><stop offset="1" style="stop-color:#cebc99"/></linearGradient><path fill="url(#t)" d="M178.8 112.4c-4.9 2.1-10 3.9-15.2 5.3.8 3.3 3.8 9.7 9.7 9.6 7.5-.2 12.5-9.2 12.6-17.2-3.8.7-7.1 2.3-7.1 2.3h0 0z"/><g transform="translate(97.808967 207.594542)" style="fill:#e04c89"><path d="M75.8-42.1c-.2.2-.3.3-.5.5 2.2 2.6 4.7 4.8 6.7 6.4.2-.2.3-.4.4-.5-2-1.5-4.5-3.7-6.6-6.4h0 0z"/><path d="M96.4-96.9c.2.1.4.3.6.4 1-1.6 2.2-3.7 3-6-.2-.1-.4-.2-.6-.3-.8 2.3-1.9 4.4-3 5.9h0 0z"/><path d="M83.3-96.2c.2-.1.4-.2.7-.3-.2-2.5-.5-4.9-.7-6.8-.2.1-.4.1-.7.2.2 2 .5 4.5.7 6.9h0 0z"/><path d="M90.8-64.4c-.1.2-.2.4-.3.6 3.6 2.4 6 3.4 7.8 3.7.1-.2.2-.4.3-.6-1.7-.3-4.2-1.3-7.8-3.7h0 0z"/><path d="M57.3-88c.2-.1.4-.1.7-.2l-.8-9.6c-.2.1-.5.1-.7.1l.8 9.7h0z"/><path d="M44.9-86c.2-.1.5-.1.7-.1l-.9-10c-.2 0-.5.1-.7.1l.9 10h0z"/><path d="M63.7-30.8c-.2.2-.4.3-.6.4 1.1 2.8 2.8 6.1 5.5 8.9.2-.2.4-.3.5-.4-2.7-2.8-4.4-6.2-5.4-8.9h0 0z"/><path d="M84.3-53.2c-.2.2-.3.4-.4.6 1.5 1.9 3.7 4.4 6.6 6.2.1-.2.3-.4.4-.6-2.9-1.8-5.2-4.3-6.6-6.2h0 0z"/><path d="M70.9-91.5c.2-.1.4-.2.7-.2l-.4-8.6c-.2.1-.5.1-.7.2l.4 8.6h0z"/><path d="M29.5-84.6l-.4-10.1c-.2 0-.5 0-.7.1l.4 10.1c.2-.1.5-.1.7-.1h0 0z"/><path d="M98.7-85.4c-.1.2-.1.5-.2.7 3.9-.5 6.3-2 7.8-3.7v-1c-1.3 1.7-3.5 3.4-7.6 4h0 0z"/><path d="M95.7-75.6c-.1.2-.1.4-.3.6 1.5.8 4.4 1.8 8.2 1.5.1-.2.1-.5.2-.7-3.8.4-6.6-.7-8.1-1.4h0 0z"/><path d="M-16.4-86.9c.3.1.5.1.7.1-.8-3-1.1-5.8-1.3-8.3-.2 0-.5-.1-.7-.1.2 2.6.5 5.4 1.3 8.3h0 0z"/><path d="M-34.2-89.5c.3-.1.5-.1.8-.1-1.2-1.6-2.5-4.1-3-7.7h-.7c.5 3.6 1.7 6.1 2.9 7.8h0 0z"/><path d="M-18.9-27.2c.2.2.4.3.5.5 1.9-2.5 4.3-5.2 7.1-7.2-.2-.2-.4-.3-.5-.5-2.8 2.1-5.2 4.8-7.1 7.2h0 0z"/><path d="M1.5-25.3c-.2-.1-.4-.2-.6-.3-1.6 2.4-3.4 5.5-5.1 9 .2.1.4.2.6.3 1.7-3.6 3.5-6.7 5.1-9h0 0z"/><path d="M1.3-85c.2 0 .4 0 .6 0-.6-2.6-1.3-5.9-1.7-9.3h-.7C0-90.9.7-87.6 1.3-85h0 0z"/><path d="M16.4-20.3c-.2-.1-.5-.1-.7-.1-1.3 3.9-2.1 7.6-2.5 10.6.2.1.4.1.7.2.5-3.1 1.2-6.7 2.5-10.7h0 0z"/><path d="M46.4-21.6c1.6 4.6 3.8 8.1 5.8 10.7.2-.1.4-.2.6-.3-2-2.5-4.3-6.1-5.8-10.6-.2 0-.4.1-.6.2h0 0z"/><path d="M-40-82.3c-3.1-.8-6.2-2.3-8.7-3.8 0 .3 0 .5-.1.8 2.5 1.5 5.6 3 8.7 3.7v-.7h.1z"/><path d="M-30.8-59c-.1-.2-.2-.4-.3-.6-3.6 1.4-6.1 3.4-7.9 5.3.1.2.2.4.3.6 1.8-1.9 4.3-3.9 7.9-5.3h0 0z"/><path d="M16.7-84.4h.7l-1-9.8h-.7l1 9.8h0z"/><path d="M33.6-19.2h-.3-.3c-.4 3.6-.7 7.9-.8 11.8h.7c.1-3.9.4-8.2.7-11.8h0 0z"/><path d="M-37.4-72.7c-.1-.2-.2-.5-.3-.7-2.1.2-4.8.8-8.2 2 .1.2.2.4.2.6 3.5-1.2 6.2-1.7 8.3-1.9h0 0z"/><path d="M-22-45.4c-.2-.2-.3-.4-.4-.6-2.5 1-5.6 2.7-8.3 5.4.2.2.3.4.4.6 2.8-2.7 5.9-4.4 8.3-5.4h0 0z"/></g><path opacity="0.5" fill="#ce4920" d="M107.3 25.3c0 0 1.4 7.4 18.2 7.4s16.2-7.9 16.2-7.9-2.9 6-16 6-18.4-5.5-18.4-5.5h0 0z"/><path fill="#c62619" d="M141 22.9c0 2.9-7.3 5.1-16.2 5.1s-16.2-2.3-16.2-5.1c0-2.9 7.3-5.1 16.2-5.1s16.2 2.3 16.2 5.1h0 0z"/><linearGradient id="u" gradientUnits="userSpaceOnUse" x1="-1663.7563" y1="795.2643" x2="-1663.2562" y2="795.2643" gradientTransform="matrix(58.4858 0 0 -52.4975 97416.3438 41762.5391)"><stop offset="0" style="stop-color:#cebc99"/><stop offset="0.5266" style="stop-color:#fff"/><stop offset="1" style="stop-color:#cebc99"/></linearGradient><path fill="url(#u)" d="M124.9 0c-7.6 0-13.8 11.6-14.6 22.5 0 0 1.5 3.9 15.1 3.9 12.1 0 14.1-3.9 14.1-3.9-.8-10.9-7.1-22.5-14.6-22.5h0 0z"/><linearGradient id="v" gradientUnits="userSpaceOnUse" x1="-1660.3477" y1="795.2609" x2="-1660.3477" y2="795.5981" gradientTransform="matrix(34.3329 0 0 -40.3218 57129.4062 32083.4004)"><stop offset="0" style="stop-color:#fff;stop-opacity:0"/><stop offset="1" style="stop-color:#fff"/></linearGradient><path fill="url(#v)" d="M133.5 13.8c0 4.7-3.9 8.5-8.6 8.5-4.8 0-8.6-3.8-8.6-8.5s3.9-11.7 8.6-11.7c4.7 0 8.6 7 8.6 11.7h0 0z"/><linearGradient id="w" gradientUnits="userSpaceOnUse" x1="192.143" y1="613.3253" x2="85.0064" y2="492.3978" gradientTransform="matrix(1 0 0 -1 0 794)"><stop offset="0" style="stop-color:#961307;stop-opacity:0.2"/><stop offset="6.760179e-02" style="stop-color:#961307;stop-opacity:0.2141"/><stop offset="0.4783" style="stop-color:#961307;stop-opacity:0.3"/><stop offset="1" style="stop-color:#8c1306"/></linearGradient><path opacity="0.7" fill="url(#w)" d="M240.3 198c0 0-10.4-24-18.9-60.9-2.6 13.6-8 46.8-5.2 66.8 3.5 25.7 13.4 131-32.4 147.1 0 0-13.8 2.2-31.4-17.7-17.5-19.9-41.3-43.6-41.3-43.6l12-5.3c0 0 6.2 8.2 18.7 4.4 0 0-8.2 1.5-14-4.7 0 0 8.5 2.9 14-4.1 0 0 3.8 1.2 2.7 3.8 0 0 4.4-3.5 1.2-7.9 0 0 24.5-21.3 14.6-45.6l-7-9.4c0 0 5.9-5 6.2-6.4.3-1.5-1.8-16.1-1.8-16.1s17.6-17.3 29.9-36.3c-13.4 20-33.2 37.4-52.3 37.9-43.6 1.2-68.7-25.8-81-57.9H54c0 0 .1.3.3.9 2.1 6 15.4 40.8 47.6 55.8l-18.7 4.1c0 0 66.8 19.6 69.7 35.1 2.9 15.5-107.2 40.6-140.7 14.6-10.6-8.2-10.8-23-9.8-35.5-4.5 17.6-3.5 32 9.3 49.6 0 0 0 56 47.1 103.6 0 0 18.1 14.7 30.8-3.6 12.8-18.4 30.1-28.8 44.8-25 14.7 3.8 28.3 22.4 33.9 28.5 5.6 6.1 29 25.2 58.6-55.3-.1.2 55.4-30.4 13.4-116.9h0 0z"/><linearGradient id="x" gradientUnits="userSpaceOnUse" x1="-385.4965" y1="796.5849" x2="-385.4965" y2="796.0838" gradientTransform="matrix(299.5021 0 0 -166.3488 115543.6797 132713.9531)"><stop offset="0" style="stop-color:#7a0400;stop-opacity:0"/><stop offset="0.9101" style="stop-color:#710300;stop-opacity:0.9101"/><stop offset="1" style="stop-color:#700300"/></linearGradient><path opacity="0.6" fill="url(#x)" d="M95.4 284.5c58.4-8.8 71.5-38.3 64.8-54-6.7-15.8-77.1-27.5-77.1-27.5s72.6 14.3 74.7 34.2c2.9 27.5-80.9 58.2-146.1 29.6 0 0 0 2.4.4 6.5 12.7 6.5 41.3 17.5 83.3 11.2h0 0z"/><path fill="#020202" d="M113.5 87.2c.2-.9.3-1.7.3-2.6 0-8-6.5-14.4-14.4-14.4S85 76.8 85 84.7c0 1.5.2 2.8.6 4.2.2 0 .4.1.5.1 13.5.9 22.4-.4 27.4-1.8h0 0z"/><linearGradient id="y" gradientUnits="userSpaceOnUse" x1="-385.9982" y1="795.654" x2="-385.9563" y2="795.8242" gradientTransform="matrix(473.8713 0 0 -325.8868 183038.3125 259615.4062)"><stop offset="0" style="stop-color:#770501"/><stop offset="1" style="stop-color:#991000"/></linearGradient><path fill="url(#y)" d="M250.2 222.7c1.4 19.6.9 53.3-17.1 66.4 0 0 2.4-47.6-12.6-75.6 0 0 26.3 64.2-19 136.9 0 0-12.8 32.1-41.7 2.7-28.9-29.5-67.5-14-67.5-14l14.9 2.1c0 0-14.9 3.8-20.8 16.1-5.8 12.1-34.4 11.7-68-53.2 6.2 19.4 17.9 43.8 40.2 66.3 0 0 18.1 14.7 30.8-3.6 12.8-18.4 30.1-28.8 44.8-25s28.3 22.4 33.9 28.5c5.6 6.1 29 25.2 58.6-55.3.1.1 44.8-24.5 23.5-92.3h0 0z"/><path fill="#8c0000" d="M125.3 281.5c0 0 8.9 5 15.5-2.5 0 0 2.5-1 3.6.2-.2 0-9.8-7.4-19.1 2.3h0 0z"/><g transform="translate(249.512671 551.922027)" style="fill:#4a0100"><path d="M-106-273.2c.4.2.6.4.6.4-.1-.1-.3-.3-.6-.4h0 0z"/><path d="M-106-273.2c-2.3-1.4-10.4-5.6-18.4 2.7 0 0 9 1.4 13.6-3.1l1.8.7c.1-.1 1.8-.7 3-.3h0 0z"/></g><linearGradient id="a" gradientUnits="userSpaceOnUse" x1="89.102" y1="46.1762" x2="89.102" y2="81.2712" gradientTransform="translate(0 8)"><stop offset="0" style="stop-color:#b08bab"/><stop offset="7.104230e-02" style="stop-color:#a07f9b;stop-opacity:0.9929"/><stop offset="0.2465" style="stop-color:#7e647b;stop-opacity:0.9754"/><stop offset="0.426" style="stop-color:#644f61;stop-opacity:0.9574"/><stop offset="0.609" style="stop-color:#51414f;stop-opacity:0.9391"/><stop offset="0.7975" style="stop-color:#463844;stop-opacity:0.9203"/><stop offset="1" style="stop-color:#423540;stop-opacity:0.9"/></linearGradient><path opacity="0.6" fill="url(#a)" d="M91.9 54.3c-26.4-1.8-32.4 27.5-32.4 27.5s2.9 5.2 26.4 7.1 32.8-3.6 32.8-3.6-.5-29.3-26.8-31h0 0zm-5.8 33.4c-21.9-1.8-24.6-6.6-24.6-6.6s5.6-27.4 30.2-25.7 25.1 29 25.1 29-8.7 5.1-30.7 3.3h0 0z"/><path fill="#020202" d="M140.2 86c-.1-.8-.2-1.7-.2-2.5 0-7.8 6.3-14 14-14s14 6.3 14 14c0 1.4-.2 2.8-.6 4-.2 0-.4.1-.5.1-13.2 1.1-21.8-.3-26.7-1.6h0 0z"/><linearGradient id="b" gradientUnits="userSpaceOnUse" x1="163.9294" y1="45.9284" x2="163.9294" y2="79.9448" gradientTransform="translate(0 8)"><stop offset="0" style="stop-color:#b08bab"/><stop offset="7.104230e-02" style="stop-color:#a07f9b;stop-opacity:0.9929"/><stop offset="0.2465" style="stop-color:#7e647b;stop-opacity:0.9754"/><stop offset="0.426" style="stop-color:#644f61;stop-opacity:0.9574"/><stop offset="0.609" style="stop-color:#51414f;stop-opacity:0.9391"/><stop offset="0.7975" style="stop-color:#463844;stop-opacity:0.9203"/><stop offset="1" style="stop-color:#423540;stop-opacity:0.9"/></linearGradient><path opacity="0.6" fill="url(#b)" d="M161.3 54c25.6-1.7 31.4 26.7 31.4 26.7s-2.8 5-25.6 6.9c-22.8 1.9-31.9-3.5-31.9-3.5s.5-28.4 26.1-30.1h0 0zm5.5 32.5c21.3-1.8 24-6.4 24-6.4s-5.4-26.6-29.4-25S137 83.3 137 83.3s8.5 5 29.8 3.2h0 0z"/><linearGradient id="z" gradientUnits="userSpaceOnUse" x1="-375.1322" y1="796.8036" x2="-375.1322" y2="796.2686" gradientTransform="matrix(22.9552 0 0 -53.0963 8737.7881 42368.332)"><stop offset="0" style="stop-color:#ce4920;stop-opacity:0.3"/><stop offset="1" style="stop-color:#ad1813"/></linearGradient><path fill="url(#z)" d="M120.8 74.6l3.7 6-.6-7.1 2.2 4.7-.2-9.9 1.6 8.3 1.6-11.6.2 14.7 3.2-7.7c0 0-4.4 13.9-4.4 19.5L127 81v9l-1.6-7.3.2 6.5-4.8-14.6h0z"/><g style="fill:#fff"><path opacity="0.3" d="M60.4 85.6c0 0 23 13.7 55.5 2.8-.1 0-29.1 20.5-55.5-2.8h0 0z"/><path opacity="0.3" d="M65.9 95.7c0 0 20.8 11.9 46.6 1.1 0-.1-23.2 19.7-46.6-1.1h0 0z"/><path opacity="0.3" d="M137.2 87.1c0 0 27.8 11.2 54.3-2.6 0 .1-23.3 22-54.3 2.6h0 0z"/><path opacity="0.3" d="M140.5 95.2c0 0 21.7 9.9 43.7.3.1 0-20 17.4-43.7-.3h0 0z"/><path opacity="0.3" d="M66.7 61.7c0 0 9.2-12.6 23.6-12.2 14.4.4 21.3 9.3 24.4 14.2-.1.1-20.7-25.6-48-2h0 0z"/><path opacity="0.3" d="M140.8 61c0 0 19-24.8 42.8-1.5 0-.1-21.1-17-42.8 1.5h0 0z"/></g><path opacity="0.4" fill="#660300" d="M254.5 272.5c-8.4 18.8-19 27.5-19 27.5.4-3.7.7-9.2.9-13.6-1 1-2.1 2-3.3 2.8 0 0 .1-2 .1-5.4-2.5 19-6.5 31.3-6.5 31.3s22-12.1 27.8-42.6h0 0z"/><g style="fill:#fff"><path opacity="0.15" d="M130.9 285.9c0 0 7.8.7 11.2-4.3 0 0 2.9 8.9-11.2 4.3h0 0z"/><path opacity="0.25" d="M52.8 130.9c0 0-7.5-20.4 9.3-18.7s63 5.3 96.9-1.7c34.1-6.9 36.2-7.7 42.3.4 0 0-6.4-7.1-18.1-3.3-11.8 3.9-59.4 16-120.9 6.9 0 .1-12-1.8-9.5 16.4h0 0z"/></g><radialGradient id="A" cx="-385.6026" cy="795.8958" r="0.2145" gradientTransform="matrix(283.646 0 0 -156.7657 109507.6406 124930.0625)" gradientUnits="userSpaceOnUse"><stop offset="0" style="stop-color:#e04c89"/><stop offset="1" style="stop-color:#96003a"/></radialGradient><path fill="url(#A)" d="M129.2 197.1C94 195.8 73.3 175.9 62 158.8c14 24.3 37.3 42.3 73.1 41.3 32.4-.8 66.8-50.5 68.9-78.5-7 26.4-29.7 77.2-74.8 75.5h0 0z"/><g transform="translate(112.779727 217.575049)"><radialGradient id="B" cx="-1400.6006" cy="578.239" r="0.218" gradientTransform="matrix(283.3736 0 0 -166.8517 396908.125 96420.9609)" gradientUnits="userSpaceOnUse"><stop offset="0" style="stop-color:#e04c89"/><stop offset="1" style="stop-color:#96003a"/></radialGradient><path opacity="0.7" fill="url(#B)" fill-opacity="0.5" d="M84.6-100.9c-.5 15.4-23.8 69.4-66.1 71.8-46.4 2.6-63.7-37.6-72.1-56.2 0 0-3.6-8.7.7-12.2 1.4-1.2 2.5-1.8 3.8-2h0c0 0-8.7-1.9-6.7 16.6.7 6.6 1.7 14.7 4.5 23.4 13.9 24.7 37.4 43.1 73.6 42.1 17-.5 34.4-14.2 47.6-31.3C80-65.6 89.3-86.5 84.6-100.9h0 0z"/><radialGradient id="C" cx="-1400.3652" cy="581.8604" r="0.1893" gradientTransform="matrix(220.2698 0 0 -27.4445 308479.0312 15867.6289)" gradientUnits="userSpaceOnUse"><stop offset="0" style="stop-color:#e04c89"/><stop offset="1" style="stop-color:#96003a"/></radialGradient><path opacity="0.7" fill="url(#C)" fill-opacity="0.5" d="M66-105.2c0 0 5.1-2.6 10-2.8-3.4-.3-8-.1-12.7 2.2-8.1 3.9-57.8 12.6-97.7 8.6 17.2 2.5 64 7.6 100.4-8h0 0z"/></g><radialGradient id="D" cx="-385.3781" cy="796.381" r="0.2081" gradientTransform="matrix(229.0526 0 0 -108.8605 88402.3672 86855.6953)" gradientUnits="userSpaceOnUse"><stop offset="0" style="stop-color:#e04c89"/><stop offset="1" style="stop-color:#96003a"/></radialGradient><path fill="url(#D)" d="M73.2 158.4c11.2 16.3 28.9 31.6 58.1 30 26.9-1.5 46.1-23.9 56.7-43.9-57.3-26.6-103 4.5-114.8 13.9h0 0z"/><path opacity="0.3" fill="#fff" d="M65 148.7c0 0 18.4 44.5 64.9 41.9 46.6-2.6 66.7-64.3 66.7-64.3s-16.9 67.5-67.5 68.1C78.4 195 65 148.7 65 148.7h0 0z"/><linearGradient id="E" gradientUnits="userSpaceOnUse" x1="-385.3779" y1="796.3961" x2="-385.3779" y2="797.1298" gradientTransform="matrix(229.352 0 0 -99.336 88517.75 79290.1797)"><stop offset="0" style="stop-color:#fff;stop-opacity:0.4"/><stop offset="1" style="stop-color:#fff"/></linearGradient><path opacity="0.3" fill="url(#E)" d="M188 144.6c-5.2-2.4-10.3-4.4-15.2-5.9 0 .7 0 1.4-.1 2-1.5.6-3.3-.1-4.8.8 2.8 4-2.5 3.5-5 3.7-.4 2.5 1.9 3.3 2.3 5.4.5 2.6-1 5.8-3.4 5.2-2-.5-3.5-3.3-5.2-4.4-3.4-2.4-4.3-1.6-4.9 1.5-.5 2.9-.5 4.9-3.9 3.6-2-.8-5.1-5.2-7.6-3.1-2.2 1.8 1.2 8.5-1.6 9.9-2.7 1.3-4-3.6-4.5-5-1.2-3.7-4.5-4-6.9-.6-1.7 2.3-1.1 11.5-6 9.4-2.3-1-2.8-6-6-3.6-2.3 1.7-1.3 8.3-5.4 8.3-2 0-1.7-.9-2.3-2.5-.3-.7-.4-1.7-.9-2.4-.4-.6-1-.3-1.3-.7-1.7-2.4-.4-5.3-1.9-7.5-2.5-3.5-4.4.1-4.7 2.8-.3 2.5-.1 6.9-3.8 5.3-.1-1.7.7-3.5 0-5.1-1-2.7-2.9-2-5.2-2.9-.5-2.7 2.5-4.5 2.3-6.7-.3-2.4-2.7-.4-4.1-1.6-.1-.8 0-1.5.1-2.2-7.1 3.9-12.4 7.8-15.4 10.2 11.2 16.3 28.9 31.6 58.1 30 27.5-1.5 46.7-23.8 57.3-43.9h0 0z"/><radialGradient id="c" cx="-386.2939" cy="794.814" r="6.434251e-02" gradientTransform="matrix(4.887497e-9 108.8605 1713.9268 -1.738116e-8 -1362122.375 42213.4141)" gradientUnits="userSpaceOnUse"><stop offset="0" style="stop-color:#a33665"/><stop offset="1" style="stop-color:#7d002f"/></radialGradient><path opacity="0.6" fill="url(#c)" d="M73.2 158.4c11.2 16.3 28.9 31.6 58.1 30 26.9-1.5 46.1-23.9 56.7-43.9-57.3-26.6-103 4.5-114.8 13.9h0 0zm32.9 9.7c-17.8-16.3 13.2-30 18.2-29.2 5 .8 8 27.7 8 27.7l.4-28.5c0 0 19.4-1.9 26.9 12.9 7.5 14.8-35.7 33.4-53.5 17.1h0 0z"/><linearGradient id="F" gradientUnits="userSpaceOnUse" x1="-363.4198" y1="797.8744" x2="-363.4198" y2="797.3734" gradientTransform="matrix(11.1957 0 0 -56.6893 4197.8467 45366.0469)"><stop offset="0" style="stop-color:#361221"/><stop offset="1" style="stop-color:#96003a"/></linearGradient><path opacity="0.4" fill="url(#F)" d="M130.4 135.1c0 0 2.2 16.1 1.4 28.4 0 0-1-22.3-5.5-27.2l4.1-1.2h0z"/><linearGradient id="G" gradientUnits="userSpaceOnUse" x1="-385.3332" y1="799.9542" x2="-385.3332" y2="798.7488" gradientTransform="matrix(227.2561 0 0 -25.7273 87691.6562 20687.5703)"><stop offset="0" style="stop-color:#fff;stop-opacity:0"/><stop offset="1" style="stop-color:#fff"/></linearGradient><path fill="url(#G)" d="M65.4 114.4c0 0 65.3 8.4 113.9-6.5-.1 0-52.2 24-113.9 6.5h0 0z"/><linearGradient id="H" gradientUnits="userSpaceOnUse" x1="-385.421" y1="796.537" x2="-385.421" y2="796.0677" gradientTransform="matrix(239.7318 0 0 -99.4105 92526.5234 79368.4766)"><stop offset="0" style="stop-color:#fff;stop-opacity:0"/><stop offset="1" style="stop-color:#fff"/></linearGradient><path fill="url(#H)" d="M68.8 159.2c0 0 22.7 34.8 61.6 32.1 38.9-2.7 58.6-43 58.6-43s-15.7 49.5-60.5 49.8c-44.9.3-59.7-38.9-59.7-38.9h0 0z"/><linearGradient id="I" gradientUnits="userSpaceOnUse" x1="-385.3227" y1="797.1155" x2="-385.3227" y2="797.9468" gradientTransform="matrix(255.5011 0 0 -86.6308 98536.8438 69287.3281)"><stop offset="0" style="stop-color:#fff;stop-opacity:0"/><stop offset="1" style="stop-color:#fff;stop-opacity:0.3"/></linearGradient><path fill="url(#I)" d="M22.5 189.6c0 0 87.8 13.5 128 43.4.1 0-61.6-24.1-128-43.4h0 0z"/><linearGradient id="J" gradientUnits="userSpaceOnUse" x1="-381.0015" y1="797.4061" x2="-381.0015" y2="797.8152" gradientTransform="matrix(46.2602 0 0 -84.2048 17758.2676 67414.5625)"><stop offset="0" style="stop-color:#ce4920;stop-opacity:0"/><stop offset="1" style="stop-opacity:0.8"/></linearGradient><path opacity="0.4" fill="url(#J)" d="M142.5 235.4c-.2-.8.3-2 .4-2.8.4-2.6 2.1-3.2 1.8-6.8-8.1-3-16.1-6-22.1-7.8.1.1.1.1.1.1v.7c-4.1 2.4 4.3 3.3 1.7 6.5 3.2-.4 1.6 2.7 1.1 4-.8 2.2-.8 3.6.1 5.6 1 2.2.9 3.1.9 5.5 0 1 .4 1.9.3 2.8-.1.9-.9 1.6-1 2.4-.2 2.4 1.7 2 2.9 3.8 1.3 1.8.1 3.4-.6 5.2-.5 1.2-1.9 4.2-.4 5.4 1.9 1.6 3.1-1 3.3-2.3.2-1.2-.4-2.3-.4-3.3 0-1.5.5-1.8.9-3.1.9-2.9-.6-3.3-1.5-5.8-.9-2.6 1-3.7 1-6.2 0-1.6-2.4-4.9-.3-5.7.1-.5-.4-1.6-.2-1.8.3-.9.3-.6.8-1.4.6-.9 1.7-2.3 2.8-1.5 1.1.8.2 2.6.5 3.8.3 1.2 1.5 2 .9 3.8-.4 1.1-2.1 1.6-2.3 2.8-.2 1.5 1.2 1.8 1.4 3.1.3 1.6-1.1 2.2-1 3.8.1 1.4 1.4 2.2 1.2 3.7 1.6.7 2.6-.1 3.3-1.6 1-2.1-.5-2.3-.8-4.1-.1-1 .5-1.5.6-2.4.1-1.3-.1-1.1-.3-2.1-.4-1.5-.7-2.8-.7-4.5 0-2.7 2.6-7 3.5-2.6.4 1.6.1 2.5.8 4.2.6 1.6.5 2.5.5 4.3 1.9 1.1 2.7-2 2.3-3.5-.5-1-1.3-1.4-1.5-2.2h0 0z"/><g transform="translate(357.302144 325.364522)"><path fill="#920b04" fill-opacity="0.779" d="M-175.6-142.4c-.7 5.2-1.5 20 9.7 20 11.2 0 9.3-16.1 9.3-16.1s-.2-12.6-12.3-23.7c-.2.8-5.7 12.7-6.7 19.8h0 0z"/><linearGradient id="K" gradientUnits="userSpaceOnUse" x1="-3596.9475" y1="472.034" x2="-3597.2979" y2="472.0374" gradientTransform="matrix(39.0922 0 0 -73.9556 140451.2656 34765.9414)"><stop offset="0" style="stop-color:#fff;stop-opacity:0.7861"/><stop offset="1" style="stop-color:#ffada6;stop-opacity:0.69"/></linearGradient><path fill="url(#K)" d="M-168.9-162.1c0 .7-8.1 12.7-9 19.8-.7 5.2-1.3 17.1 9.9 17.1 11.2 0 9.3-16.1 9.3-16.1s-.6-9.1-10.2-20.8v-.2.2h0z"/><linearGradient id="L" gradientUnits="userSpaceOnUse" x1="-3595.3528" y1="473.4803" x2="-3595.3528" y2="473.1066" gradientTransform="matrix(28.9715 0 0 -47.6624 103994.3047 22410.1758)"><stop offset="0.1255" style="stop-color:#85211b"/><stop offset="1" style="stop-color:#fff"/></linearGradient><path fill="url(#L)" fill-opacity="0.7" d="M-168.2-138.2c8.3 0 6.9-9.8 6.9-9.8s-.5-7-7.6-14.1c0 0-5.5 9.5-6.6 13.5-.5 3.1-.9 10.4 7.3 10.4z"/><linearGradient id="M" gradientUnits="userSpaceOnUse" x1="-3596.311" y1="472.9652" x2="-3596.311" y2="472.5462" gradientTransform="matrix(33.6359 0 0 -54.5934 120796.7344 25682.7285)"><stop offset="0" style="stop-color:#fff;stop-opacity:0"/><stop offset="1" style="stop-color:#fff"/></linearGradient><path fill="url(#M)" d="M-160.1-141.6c0 0-.2-5.4-4.8-12.8 3 6 3.2 10 3.2 10s1.7 14.5-8.4 14.5c-3.3 0-5.4-1.1-6.8-2.8 1.1 3.1 3.5 5.6 8.4 5.6 10.1.1 8.4-14.5 8.4-14.5h0 0z"/></g><path opacity="0.3" fill="#fff" d="M81.3 38.7c0 0 28.1-3.4 37.4 18 0 0-2.8-12.7-.4-13.7 2.3-1.1 5.7 19.4 5.7 19.4s1.3-11.2 2.1-11.4c.9-.2.9 8.3.9 8.3s1.7-19.4 5.3-19.6c3.6-.2.4 20.7.4 20.7s6.4-22 34-21.1c0 0-18.6-4.5-30.8 8 0 0 1.3-12.5-3-12.5s-6.4 12.7-6.4 12.7-.2-3-.9-3c-.7 0-1.5 8.7-1.5 8.7s-4.5-16.7-7-16.1c-2.6.7-1.5 9.7-1.5 9.7s-11.3-12.5-34.3-8.1h0 0z"/><g transform="translate(234.54191 202.604288)"><path fill="#af2419" d="M-108.5-97.7c0 0 .4-3.6-3.5-3.4-3.8.3-10 4.3 3.5 3.4h0 0z"/><path fill="#95110a" d="M-112-101c-1.9.1-4.3 1.2-4.7 2.1.8.3 3.6 1.3 7.3.3l1 1.1c-.1-.2.3-3.8-3.6-3.5h0 0z"/><path fill="#6e0301" d="M-108.8-99.5c-.4-.9-1.3-1.6-3.1-1.5-1.8.1-4.2 1.1-4.7 2 1.5.1 5.6.5 7.8-.5h0 0z"/><g transform="translate(20.959064)"><path fill="#af2419" d="M-127.1-97.7c0 0-.4-3.6 3.5-3.4 3.8.3 10 4.3-3.5 3.4h0 0z"/><path fill="#95110a" d="M-123.6-101c1.9.1 4.3 1.2 4.7 2.1-.8.3-3.6 1.3-7.3.3l-1 1.1c.1-.2-.2-3.8 3.6-3.5h0 0z"/><path fill="#6e0301" d="M-126.7-99.5c.4-.9 1.3-1.6 3.1-1.5 1.8.1 4.2 1.1 4.7 2-1.5.1-5.6.5-7.8-.5h0 0z"/></g></g><linearGradient id="N" gradientUnits="userSpaceOnUse" x1="-385.3772" y1="796.4901" x2="-385.3772" y2="796.8221" gradientTransform="matrix(228.7532 0 0 -93.9605 88286.8203 75020.5391)"><stop offset="0" style="stop-color:#fff;stop-opacity:0.7"/><stop offset="1" style="stop-color:#fff"/></linearGradient><path opacity="0.2" fill="url(#N)" d="M131.2 188.4c26.9-1.5 46.1-23.9 56.7-43.9-2.4-1.2-4.8-2.2-7.2-3.1.1 2-.3 3.9-1.9 4.5-2.4.8-2.8-1.3-3.7 1.8-.8 2.4-1.6 1.1-3.6 1.7-1.9.5-1.3 2.1-1.2 3.6.2 4-.2 8.4-5 8.4-1.9 0-3.7-1.2-5.6-1-.8.1-1 .1-1.6.6-.7.5-1.1 2-1.8 2.1-1.2.1-1.8-2.8-3.4-1.3-1.4 1.3.6 4.2-1.9 4.8-1.8.5-2.9-1.8-4.8-1.3-1.8.5-1.2 2.6-1.3 4.3-.2 2.6-1 2.7-3.4 1.9-1-.4-1.3-.5-2.2-.4-.9.1-1.8.6-2.8 0-1.2-.7-1.1-2.1-2.2-3-.8-.7-3.3-2.3-4.2-1.3-.8.8.4 4 .4 5.2-.1 1.4.8 4.8-.5 5.4-.9.4-3.8-.2-4.5-.8-1.3-1.1-1.6-3.5-2.9-4.8-1.2-1.1-3.4-1.5-4.6-.3-1.2 1.2 0 3.7-.8 5.2-.8 1.7-3 2.1-4.6 1.5-1.8-.7-1.7-2.4-2.8-3.4-1.5-1.4-4.3.1-5.7-1.2-1.4-1.3-.4-3.4-1-5-.2-.4-1-1.8-1.4-1.9-1-.3-1.2.6-1.9.9-.5.3-1.6.2-2.1.7-.8.7-.4 1.4-.6 2.3-.6 2.4-2.7 1.9-4.5 1.1-1.6-.6-1.7-1.4-1.7-3.1 0-1.3-.1-3.5-1-4.5-1-1.2-2.6-.4-4-.9-.3-1.6 1.6-2.9.4-4.1-.7-.7-1.5-.3-1.9-1.2-.4-.7.2-1.9-.1-2.7-.7-2.6-2.4-.4-3.4-1.7-.2-.3-.2-.7-.1-1.2-3.7 2.4-6.5 4.5-8.4 6 11.9 16.4 29.6 31.8 58.8 30.1h0 0z"/><linearGradient id="O" gradientUnits="userSpaceOnUse" x1="127.4754" y1="104.8421" x2="126.6783" y2="89.7234" gradientTransform="translate(0 8)"><stop offset="0" style="stop-color:#a6261a;stop-opacity:0.5"/><stop offset="0.9987" style="stop-color:#ab2015;stop-opacity:0.5004"/><stop offset="1" style="stop-color:#ab2015;stop-opacity:0.5"/></linearGradient><path fill="url(#O)" d="M120.5 113.3c4.6-.2 9.2-.5 14-.9 2-1 3.8-2.2 4.7-3.6 1.8-2.9-.1-6.2-1.1-7.7.9 1.7.6 4.8-1.4 5.7-2.4 1.1-15.5 1.9-19.1-.3-3.6-2.1-1.2-5.7-1.2-5.7-4.7 6.9-.4 10.6 4.1 12.5h0 0z"/><linearGradient id="P" gradientUnits="userSpaceOnUse" x1="-381.2929" y1="800.2346" x2="-381.2929" y2="799.5016" gradientTransform="matrix(50.0023 0 0 -24.3524 19192.5508 19580.2949)"><stop offset="0" style="stop-opacity:0.3"/><stop offset="1" style="stop-color:#b82c1e;stop-opacity:0.8"/></linearGradient><path fill="url(#P)" d="M116.3 107.3c2.7 2.9 5.2 4.7 6.9 5.9 3.3-.2 6.7-.4 10.2-.7 2.1-1.5 6.2-4.8 6.3-8.4-.4-1.2-1-2.3-1.5-2.9.9 1.7.6 4.8-1.4 5.7-2.4 1.1-15.5 1.9-19.1-.3-3.6-2.1-1.2-5.7-1.2-5.7-1.1 1.5-1.7 2.9-2 4.1.5.7 1 1.5 1.8 2.3h0 0z"/><radialGradient id="Q" cx="-385.3781" cy="796.3805" r="0.437" gradientTransform="matrix(229.0526 0 0 -108.8325 88402.3672 86833.3594)" gradientUnits="userSpaceOnUse"><stop offset="0" style="stop-color:#b3174b"/><stop offset="1" style="stop-color:#2b0011"/></radialGradient><path opacity="0.5" fill="url(#Q)" d="M114.3 137.8c-20.5 5.6-35.2 15.9-41.1 20.7 11.2 16.3 28.9 31.6 58.1 30 26.9-1.5 46.1-23.9 56.7-43.9-17.7-8.3-34.3-11-49.1-10.5 7.4 1 28.5 4.8 32.8 15.2 5.3 12.7-24.2 24.6-39.3 26.3-15.2 1.7-40.6-2-39.8-18.4.3-9.4 11.9-15.8 21.7-19.4h0 0z"/><path opacity="0.3" fill="#fff" d="M117.6 100c0 0 8.9-3.6 19.5 0 0 0-9.6-6.7-19.5 0h0 0z"/><radialGradient id="R" cx="-382.4863" cy="796.5195" r="0.4486" gradientTransform="matrix(63.1559 0 0 -120.0655 24290.2852 95817.0703)" gradientUnits="userSpaceOnUse"><stop offset="0" style="stop-opacity:0"/><stop offset="1"/></radialGradient><path fill="url(#R)" fill-opacity="0.2" d="M141.4 219.2c0 0 7.8-.1 8.4-6.5.6-6.6-3.5-44.4-3.5-44.4s-.3-9.3-12.2-9.3c-11.8 0-12.2 9.3-12.2 9.3s-4 37.8-3.7 44.4c.4 6.5 8.5 6.5 8.5 6.5h7.4 7.3 0z"/><g transform="translate(239.532164 432.155945)"><linearGradient id="S" gradientUnits="userSpaceOnUse" x1="-2537.2703" y1="365.5951" x2="-2536.7285" y2="365.5951" gradientTransform="matrix(48.3641 0 0 -84.2048 122593.25 30590.6836)"><stop offset="0" style="stop-color:#3ed8bb"/><stop offset="1" style="stop-color:#3fb5ba"/></linearGradient><path fill="url(#S)" d="M-98.3-197.9c-.2-.8.3-2 .4-2.8.4-2.6 2-4.6 2.9-7.1-8.1-3-17.2-5.8-23.2-7.6.1.1.1.1.1.1v.7c-4.1 2.4 4.3 3.3 1.7 6.5 3.2-.4 1.6 2.7 1.1 4-.8 2.2-.8 3.6.1 5.6 1 2.2.9 3.1.9 5.5 0 1 .4 1.9.3 2.8-.1.9-.9 1.6-1 2.4-.2 2.4 1.7 2 2.9 3.8 1.3 1.8.1 3.4-.6 5.2-.5 1.2-1.9 4.2-.4 5.4 1.9 1.6 3.1-1 3.3-2.3.2-1.2-.4-2.3-.4-3.4 0-1.5.5-1.8.9-3.1.9-2.9-.6-3.3-1.5-5.8-.9-2.6 1-3.7 1-6.2 0-1.6-2.4-4.9-.3-5.7.1-.5-.4-1.6-.3-1.8.3-.9.3-.6.8-1.4.6-.9 1.7-2.3 2.8-1.5 1.1.8.2 2.6.5 3.8.3 1.2 1.5 2 .9 3.8-.4 1.1-2.1 1.6-2.3 2.8-.2 1.5 1.2 1.8 1.4 3.1.3 1.6-1.1 2.2-1 3.8.1 1.4 1.4 2.2 1.2 3.7 1.6.7 2.6-.1 3.3-1.6 1-2.1-.5-2.3-.8-4.1-.2-1 .5-1.5.6-2.4.1-1.3-.1-1.1-.3-2.1-.4-1.5-.7-2.8-.7-4.5 0-2.7 2.6-7 3.5-2.6.4 1.6.1 2.5.8 4.2.6 1.6.5 2.5.5 4.3 1.9 1.1 2.7-2 2.3-3.5-.5-.7-1.2-1.1-1.4-2h0 0z"/><linearGradient id="T" gradientUnits="userSpaceOnUse" x1="-2537.4326" y1="370.1733" x2="-2536.9309" y2="370.1733" gradientTransform="matrix(49.8908 0 0 -31.239 126475.2578 11356.3496)"><stop offset="0" style="stop-color:#f6d62c"/><stop offset="0.3846" style="stop-color:#fbb316"/><stop offset="0.6509" style="stop-color:#f6d60e"/><stop offset="1" style="stop-color:#fbb316"/></linearGradient><path fill="url(#T)" d="M-118.2-215.2v.7c-4.1 2.4 4.3 3.3 1.7 6.5 2.5-.4 2.1 1.5 1.5 3 .1 0 .2-.1.3-.1 1.2-.1 1.2.5 2.1.8.3.1 1.3.1 1.5.3.5.4.2 1.4.5 1.8.1.1.2.2.4.3.2-.4.3-.4.6-1 .6-.9 1.7-2.3 2.8-1.5.9.7.4 2.1.4 3.3.8-.2 1.4-.5 2.4-.5.3.3.5.6.7.8.9-1.9 2.3-2.9 2.9.1.1.4.2.8.2 1.1.8-.3 1.6-.6 2.5-.5.1-.2.1-.4.1-.6.4-2.6 6.3-5.7 2.2-7.6-8.2-3-16.5-5.3-22.6-7.1-.2.1-.2.2-.2.2h0 0z"/><g transform="translate(7.984405 32.935673)"><linearGradient id="U" gradientUnits="userSpaceOnUse" x1="-2590.1316" y1="345.2133" x2="-2589.6262" y2="345.2133" gradientTransform="matrix(10.4346 0 0 -16.2682 26911.1543 5392.686)"><stop offset="0" style="stop-color:#6caf11"/><stop offset="1" style="stop-color:#52840a"/></linearGradient><path fill="url(#U)" d="M-111.8-219.5c.4.1.8.2 1.2.2.1-1.1-.9-1.6-1.1-2.9-.2-1 .5-1.5.6-2.4.1-1.3-.1-1.1-.3-2.1-.1-.2-.1-.4-.2-.6-1.4-.2-2.8-.2-4.2-.3-.1.1-.1.2-.1.3-.2 1.5 1.2 1.8 1.4 3.1.2 1.1-.4 1.7-.7 2.5 1.5-.1 3 1 3.4 2.2h0 0z"/><linearGradient id="V" gradientUnits="userSpaceOnUse" x1="-2590.6523" y1="339.601" x2="-2590.1519" y2="339.601" gradientTransform="matrix(10.9786 0 0 -25.2812 28318.2676 8360.0664)"><stop offset="0" style="stop-color:#6caf11"/><stop offset="1" style="stop-color:#52840a"/></linearGradient><path fill="url(#V)" d="M-122.4-231.2c-.4-.3-.7-.5-1.1-.6.1.2.1.2.2.4 1 2.2.9 3.1.9 5.5 0 1 .4 1.9.3 2.8-.1.9-.9 1.6-1 2.4 0 0 0 0 0 .1.1 0 .1 0 .1-.1 1.7-.5 2.5 2.1 4.4 1.6.2-.1.3-.1.5-.2-.3-.5-.5-1-.8-1.6-.9-2.6 1-3.7 1-6.2 0-.2 0-.3-.1-.5-.6-.1-1.2-.2-1.8-.4-.8-.8-1.6-2.4-2.6-3.2h0 0z"/></g><g transform="translate(6.986355 18.962963)"><linearGradient id="W" gradientUnits="userSpaceOnUse" x1="-2571.5271" y1="364.2965" x2="-2571.0308" y2="364.2965" gradientTransform="matrix(7.2858 0 0 -11.8768 18627.9961 4109.9497)"><stop offset="0" style="stop-color:#fe980e"/><stop offset="1" style="stop-color:#ff5906"/></linearGradient><path fill="url(#W)" d="M-104.1-213.9c0-.3 0-.6-.1-.9-.2-.8-1-1.2-1.2-2.1-.2-.8.3-2 .4-2.8v-.1c-.9 0-1.9.1-2.8 0v.1c.4 1.6.1 2.5.8 4.2.3.7.4 1.2.5 1.8.8-.3 1.7-.3 2.4-.2h0 0z"/><linearGradient id="X" gradientUnits="userSpaceOnUse" x1="-2578.6868" y1="357.2923" x2="-2578.1848" y2="357.2923" gradientTransform="matrix(9.4815 0 0 -17.9984 24334.9863 6214.1133)"><stop offset="0" style="stop-color:#fe980e"/><stop offset="1" style="stop-color:#ff5906"/></linearGradient><path fill="url(#X)" d="M-111.1-217.1c0-1.1.5-2.6 1.1-3.5-.4-.3-.8-.5-1.4-.5-.8-.1-1.4.1-2.1.2-.1.5-.1.9 0 1.3.3 1.2 1.5 2 .9 3.8-.4 1.1-2.1 1.6-2.3 2.8v.2c.8 0 1.1.3 1.8.5.7.3 1.7.3 2.7.2 0-.1 0-.2-.1-.4-.3-1.5-.6-2.9-.6-4.6h0 0z"/><linearGradient id="Y" gradientUnits="userSpaceOnUse" x1="-2584.0588" y1="354.0741" x2="-2583.5569" y2="354.0741" gradientTransform="matrix(12.2162 0 0 -23.3544 31444.4023 8050.3364)"><stop offset="0" style="stop-color:#fe980e"/><stop offset="1" style="stop-color:#ff5906"/></linearGradient><path fill="url(#Y)" d="M-117.3-218.8c.1-.5-.4-1.6-.3-1.8.3-.8.3-.7.7-1.2-.2-.3-.2-.6-.4-1.1-.3-.9-.6-1.1-1.5-1.2-.4 0-.8.2-1.2.1-.4-.1-.8-.5-1.2-.7-.3-.1-.5-.2-.7-.2-.2.7-.5 1.4-.7 1.8-.8 2.2-.8 3.6.1 5.6.2.3.3.6.4.9.6.5 1.2 1 1.6 1.6 1 1.5 1.4 1.8 3.2 1.9h.3v-.1c0-1.4-2.3-4.7-.3-5.6h0 0z"/></g><g style="fill:#fff"><path opacity="0.3" d="M-105.7-206.7c.6.2.9.5.9 1.1 0 .4 0 .9.1 1.3 0 .4 0 .4.3.4.3 0 1.3-.3 1.3.1.4.1.8-.8 1.1-1 .4-.2.8.1 1 .4.2.2.1.6.4.7.3.1.4-.1.6-.1.3 0 .2.2.4.3.3.1.3-.3.4-.5.2-.4.5-.7.8-.9.2-.1.5-.2.8-.2.1 0 .3.2.4.1.3-.2.3-1.2.2-1.5-.2-.5-.8-.8-1.3-.7-.2 0-.4.1-.6.3-.1.1-.2.4-.2.5-.4.3-.7-.2-.8-.5-.2-.4-.3-.8-.6-1-.6-.5-1.5-.4-2 .2-.4.3-.4.9-.7 1.2-.3.3-.4-.4-.7-.6-.6-.5-1.4 0-2 .2"/><path opacity="0.3" d="M-113.6-204.1c-.4.1-.7.8-.7 1.2 0 .6.6.7.7 1.2.2.8-.7 1.3-.9 2-.3 1.2 1.2 1 1.3 2 0 .2-.1.4.1.5.2.2.7.3.9.2.3-.2.5-.8.6-1.1.2-.5.3-1 .4-1.5.2-.6.6-1.2.3-1.9-.3-.6-.8-.8-1.2-1.1-.3-.3-.5-.7-.8-.9-.4-.2-.4-.3-.5-.7"/><path opacity="0.3" d="M-112.9-193.8c-.1.5.5.8.4 1.3-.1.4-.4.8-.4 1.2s.4 1 .2 1.4c-.1.5-.7.8-1 1.2-.3.5-.5.8-.2 1.3.3.5.8.8 1.4.6 1.2-.4.7-1.9.6-2.7 0-.4 0-.7.1-1.1.2-.5.1-.7-.1-1.2-.2-.6.2-1.8-.7-1.8"/><path opacity="0.3" d="M-111.8-178.6c-.5.6-1 1.3-1.2 2-.1.3-.2.8-.1 1.1.3.8 1 .8 1.5.3.5-.5.8-1.2.9-1.9.1-.5 0-.7-.3-.9-.2-.2-.3-.5-.5-.7"/><path opacity="0.3" d="M-105.3-195.7c-.1.3-.5.6-.7.8-.3.3-.7.6-.9.9-.3.4-.6 1.2-.3 1.5.2.2.4.2.6.4.2.2.4.5.5.7.2.3.2 1 .5 1.2.4.2.8-.2.8-.6.1-.5-.1-1 .2-1.5.3-.5.4-1 .3-1.6 0-.2-.2-.4-.3-.6-.1-.2-.3-.3-.5-.5-.1-.1-.1-.2-.1-.3"/><path opacity="0.3" d="M-106.1-188.8c-.3.3-.5.9-.6 1.3-.1.6.5.7.9 1 .4.4.2.6.4 1 .2.4.6.3.8.1.8-.5 1-2.1.3-2.7-.2-.2-.5-.5-.7-.6-.3-.1-.7-.1-.9-.2"/><path opacity="0.3" d="M-99.2-196.8c.4.4.5 1.6.4 2.1-.1.4-.2.7-.3 1-.2.8.6 1 1 .3.3-.4.5-1 .5-1.5-.1-.5-.4-.6-.6-.9-.2-.2-.2-.4-.4-.6-.2-.1-.3-.2-.4-.4"/></g></g><linearGradient id="Z" gradientUnits="userSpaceOnUse" x1="-382.1938" y1="796.5477" x2="-381.6929" y2="796.5477" gradientTransform="matrix(55.6064 0 0 -113.5782 21372.6445 90658.3828)"><stop offset="0" style="stop-color:#3ed8bb"/><stop offset="0.3846" style="stop-color:#3fb5ba"/><stop offset="0.6509" style="stop-color:#3ed8bb"/><stop offset="1" style="stop-color:#3fb5ba"/></linearGradient><path fill="url(#Z)" d="M134.2 216.4h7.1c0 0 6.3-.1 6.8-6.2.6-6.2-2.2-42-2.2-42s-.3-8.8-11.8-8.8h.1c-11.4 0-11.8 8.8-11.8 8.8s-2.5 35.8-2.2 42c.4 6.2 6.8 6.2 6.8 6.2h7.2 0z"/><linearGradient id="a0" gradientUnits="userSpaceOnUse" x1="-381.9124" y1="810.2372" x2="-381.9124" y2="811.1387" gradientTransform="matrix(55.1922 0 0 -13.5735 21212.8652 11224.6758)"><stop offset="0" style="stop-color:#fff;stop-opacity:0.3387"/><stop offset="1" style="stop-color:#2cab98"/></linearGradient><path fill="url(#a0)" fill-opacity="0.7" d="M134.1 216.4h6.4c6.4 0 7.7-4.4 7.7-6.8-2.2 2.4-5.9 3.1-8 3.9-2.8 1.2-5.3 1-6.7.7-1.4-.2-1.5-1.1-6.1-.5-2.4.3-5-1-7-2.2.8 2.9 2.6 4.9 7.3 4.9h6.4 0z"/><linearGradient id="aa" gradientUnits="userSpaceOnUse" x1="-382.1989" y1="802.634" x2="-381.6988" y2="802.634" gradientTransform="matrix(55.6912 0 0 -27.0886 21405.3262 21943.7227)"><stop offset="0" style="stop-color:#6caf11"/><stop offset="0.3846" style="stop-color:#52840a"/><stop offset="0.6509" style="stop-color:#6caf11"/><stop offset="1" style="stop-color:#52840a"/></linearGradient><path fill="url(#aa)" d="M147.5 194.7h0c.1.6.1 1.2.1 1.8-2.4-1.2-4.9-.6-7.9.7-3.9 1.8-8.3.6-12.7-1-2.3-.9-4.8-.3-6.5.4-.2 4-.4 7.5-.5 9.7 1.1.5 2.7.8 4.4.2 0 0 4.2 1.2 6.3.9 0 0 .8-.2 2 .4s2.7.6 3.5.1c0 0 2.5.1 3.4-.5 0 0 1.6-.1 2.2-.5 0 0 2.4-.1 3.7-1.3 0 0 1.3 0 2.6-.1-.2-2.4-.4-6.3-.6-10.8h0 0z"/><linearGradient id="ab" gradientUnits="userSpaceOnUse" x1="-382.162" y1="810.7532" x2="-381.661" y2="810.7532" gradientTransform="matrix(55.1922 0 0 -13.3022 21212.7148 10986.4268)"><stop offset="0" style="stop-color:#81c819"/><stop offset="0.3846" style="stop-color:#71b612"/><stop offset="0.6509" style="stop-color:#81c819"/><stop offset="1" style="stop-color:#71b612"/></linearGradient><path fill="url(#ab)" d="M144 204.7c2 .2 3.3.2 4.1.1-.1-1.8-.2-4-.3-6.5-.7 0-1.4 0-1.9-.1-1-.1-2.9.4-3.9.8-1 .5-2 .4-3.2.2-1.2-.2-1.5-.7-3.1-.1-1.7.6-3.3.8-3.3.8s-.4-.2-1.1-.1c-.7.1-2.4-.1-2.4-.1l-2.2.2c-1.8.9-5.1.3-6.3.1-.1 1.1-.1 2.2-.2 3.1 3.4-.5 5.2 1.5 5.2 1.5 3.1-1 4.9.4 4.9.4 4.5-1.3 9.4-.6 13.7-.3h0 0z"/><linearGradient id="ac" gradientUnits="userSpaceOnUse" x1="-381.8534" y1="797.9422" x2="-381.3532" y2="797.9422" gradientTransform="matrix(51.699 0 0 -58.7348 19862.7422 47040.793)"><stop offset="0" style="stop-color:#f6d62c"/><stop offset="0.3846" style="stop-color:#fbb316"/><stop offset="0.6509" style="stop-color:#f6d60e"/><stop offset="1" style="stop-color:#fbb316"/></linearGradient><path fill="url(#ac)" d="M145.9 167.8c-1-8.8-11.6-8.7-11.6-8.7s-10.9-.2-11.9 8.7c-.4 3.1-.8 9.2-1.1 15.7 1.1 1.8 2.6 3.6 4.1 4.1 3.6 1.2 3.9-1.1 8.9.5 5 1.5 6.8-.5 9.2-1.6 1.1-.5 2.5-.2 3.7.4-.5-7.8-.9-15.5-1.3-19.1h0 0z"/><linearGradient id="ad" gradientUnits="userSpaceOnUse" x1="-382.0582" y1="801.6786" x2="-381.5582" y2="801.6786" gradientTransform="matrix(53.9945 0 0 -29.3011 20749.7051 23680.8867)"><stop offset="0" style="stop-color:#fe980e"/><stop offset="0.3846" style="stop-color:#ff5906"/><stop offset="0.6509" style="stop-color:#fe980e"/><stop offset="1" style="stop-color:#ff5906"/></linearGradient><path fill="url(#ad)" d="M147.1 186.4c0 .2 0 .4.1.6-1.3-.6-2.6-.9-3.7-.4-2.4 1.2-4.2 3.1-9.2 1.6-5-1.5-5.4.8-8.9-.5-1.6-.5-3-2.3-4.1-4.1-.3 4.5-.5 9.2-.7 13.2 1.8-.7 4.2-1.3 6.5-.4 4.4 1.6 8.8 2.7 12.7 1 3-1.4 5.6-1.9 7.9-.7-.2-3.4-.4-6.8-.6-10.3h0 0z"/><linearGradient id="ae" gradientUnits="userSpaceOnUse" x1="-382.0582" y1="801.6786" x2="-381.5582" y2="801.6786" gradientTransform="matrix(53.9945 0 0 -29.3011 20749.7051 23680.8867)"><stop offset="0" style="stop-color:#fe980e"/><stop offset="0.3846" style="stop-color:#ff5906"/><stop offset="0.6509" style="stop-color:#fe980e"/><stop offset="1" style="stop-color:#ff5906"/></linearGradient><path fill="url(#ae)" d="M147.1 186.4c0 .2 0 .4.1.6-1.3-.6-2.6-.9-3.7-.4-2.4 1.2-4.2 3.1-9.2 1.6-5-1.5-5.4.8-8.9-.5-1.6-.5-3-2.3-4.1-4.1-.3 4.5-.5 9.2-.7 13.2 1.8-.7 4.2-1.3 6.5-.4 4.4 1.6 8.8 2.7 12.7 1 3-1.4 5.6-1.9 7.9-.7-.2-3.4-.4-6.8-.6-10.3h0 0z"/><path fill="#3fb5ba" d="M127.7 210.2c-.1-.1-.2-.3-.3-.5-.1-.1-.1-.3-.2-.4-.1.3 0 .6.2.8.1.1.3.2.3.5v.1c0-.2 0-.4 0-.5h0 0z"/><g transform="translate(242 325)"><radialGradient id="af" cx="-2489.8691" cy="504.5945" r="0.3642" gradientTransform="matrix(3.5179 0 0 -5.8555 8642.0586 2822.885)" gradientUnits="userSpaceOnUse"><stop offset="0" style="stop-color:#fff;stop-opacity:0"/><stop offset="0.9171" style="stop-color:#fff;stop-opacity:0.9171"/><stop offset="1" style="stop-color:#fff"/></radialGradient><path opacity="0.3" fill="url(#af)" d="M-116.9-133.2c-1.2-.2-1.4 2.6-.3 2.9 1.1.3 1.3-1.5 1-2.1-.2-.4-.4-.8-.8-.8"/><path opacity="0.3" fill="#fff" d="M-116.9-132.9c-.9-.3-.3.9-.2 1.3.4.1.4-.9.3-1.1"/><path opacity="0.3" fill="#fe980e" d="M-117.2-130.4c-.5-.1-.7-.7-.7-1.2-.1.7.2 1.4.7 1.6.9.2 1.1-.9 1.1-1.7-.1.7-.4 1.5-1.1 1.3h0 0z"/><radialGradient id="ag" cx="-2522.95" cy="527.5634" r="0.2162" gradientTransform="matrix(6.0182 0 0 -3.4868 15079.1416 1705.3)" gradientUnits="userSpaceOnUse"><stop offset="0" style="stop-color:#fff;stop-opacity:0"/><stop offset="0.9171" style="stop-color:#fff;stop-opacity:0.9171"/><stop offset="1" style="stop-color:#fff"/></radialGradient><path opacity="0.3" fill="url(#ag)" d="M-104.2-135.1c-.5 0-1.2.2-1.6.5-.2.1-.3.3-.3.5.1.3.3.4.5.5.5.3.8.4 1.4.2.4-.1 1-.3 1.2-.7.3-.5-.7-1-1.2-1"/><path opacity="0.3" fill="#fff" d="M-105.4-134.2c-.2-.1-.1-.3.1-.4.2-.1.5-.1.7-.2.4-.1.9-.2 1.2.1-.4 0-.8 0-1.1.2-.1 0-.8.6-.9.3"/><path opacity="0.3" fill="#fe980e" d="M-103-134.1c-.2.4-.8.6-1.2.7-.6.1-.9.1-1.4-.2-.2-.1-.4-.2-.5-.4-.1.1-.1.2-.1.3.1.2.3.4.5.5.5.3.8.4 1.4.2.4-.1 1-.3 1.2-.7.2-.2.1-.3.1-.4h0 0z"/><radialGradient id="ah" cx="-2515.6245" cy="487.6609" r="0.4696" gradientTransform="matrix(4.9922 0 0 -11.432 12460.1006 5443.5977)" gradientUnits="userSpaceOnUse"><stop offset="0" style="stop-color:#fff;stop-opacity:0"/><stop offset="0.9171" style="stop-color:#fff;stop-opacity:0.9171"/><stop offset="1" style="stop-color:#fff"/></radialGradient><path opacity="0.3" fill="url(#ah)" d="M-98-133.6c.1-.5-.5-.7-.9-.7-.6.1-.5.8-.6 1.2-.1.4-.3.9-.1 1.4.1.4.5.8.7 1.2.2.5.1 1 .2 1.5.1.5.6.7 1.1.5.8-.4.6-2.1.3-2.7-.2-.4-.4-.6-.5-1-.1-.3.1-1.2-.1-1.4"/><path opacity="0.3" fill="#fff" d="M-98.9-133.9c0-.1-.1-.1-.2-.1-.1.3-.6 1.9-.1 1.9.1-.3.2-.6.3-.9.1-.3.3-.4.3-.8-.1-.1-.2-.1-.3-.1"/><path opacity="0.3" fill="#fe980e" d="M-97.7-128.6c-.4.2-1-.1-1.1-.5-.1-.5 0-1-.2-1.5-.2-.4-.5-.8-.7-1.2-.2-.5 0-1 .1-1.4 0-.2 0-.5.1-.7-.3.2-.2.7-.3 1-.1.4-.3 1-.1 1.4.1.4.5.8.7 1.2.2.5.1 1 .2 1.5.1.5.6.7 1.1.5.2-.1.4-.3.5-.6-.1.2-.2.3-.3.3h0 0z"/><radialGradient id="ai" cx="-2516.2922" cy="506.2047" r="0.2841" gradientTransform="matrix(5.0729 0 0 -5.7462 12665.9053 2782.3076)" gradientUnits="userSpaceOnUse"><stop offset="0" style="stop-color:#fff;stop-opacity:0"/><stop offset="0.9171" style="stop-color:#fff;stop-opacity:0.9171"/><stop offset="1" style="stop-color:#fff"/></radialGradient><path opacity="0.3" fill="url(#ai)" d="M-98.6-126.9c-.1-.2-.1-.5-.1-.7h0c-.1-.5-.9-.3-1.1-.1-.3.3-.6.8-.5 1.2.2.8 1.4 1.7 2.2 1.4.5-.2.5-.8.1-1.1-.3-.2-.7-.4-.7-.8"/><path opacity="0.3" fill="#fff" d="M-99.5-127.5c-.3.1-.9.7-.2.8.1-.2.3-.3.4-.5.1-.2.1-.4-.2-.3"/><path opacity="0.3" fill="#6caf11" d="M-98.1-125.1c-.8.4-2-.6-2.2-1.4v0 .4c.2.8 1.4 1.7 2.2 1.4.3-.2.4-.5.4-.8-.1.2-.3.3-.4.4h0 0z"/><radialGradient id="aj" cx="-2504.8157" cy="489.6212" r="0.4864" gradientTransform="matrix(4.4096 0 0 -10.6382 10927.6338 5083.9512)" gradientUnits="userSpaceOnUse"><stop offset="0" style="stop-color:#fff;stop-opacity:0"/><stop offset="0.9171" style="stop-color:#fff;stop-opacity:0.9171"/><stop offset="1" style="stop-color:#fff"/></radialGradient><path opacity="0.3" fill="url(#aj)" d="M-116.9-125.5c-.1-.2.1-.5.1-.7s.1-.6 0-.8c-.2-.5-.8-.6-1.2-.4-1.2.7-.8 2.2.3 2.7-.4.4-.8.8-.8 1.4 0 .5.4 1.1 1 1.2.7.1.8-.7.5-1.1-.2-.3-.2-.4.1-.7.2-.2.4-.3.5-.6.1-.3-.1-.4-.3-.5-.2-.1-.2-.2-.2-.5"/><g style="fill:#fff"><path opacity="0.3" d="M-117.4-127.1c-.3-.4-1.6.8-.9 1.4.5.5.3-.3.4-.6.1-.2.6-.7.5-.8"/><path opacity="0.3" d="M-117.6-124.7c.1-.2.3-.3.4 0 .1.2-.2.4-.3.5-.1.2-.3.3-.3.5-.1.2.1.5-.1.7-.4.5-.5-.4-.4-.6.2-.5.7-.6.7-1.1"/></g><g style="fill:#6caf11"><path opacity="0.3" d="M-118-124.3c.1-.1.2-.2.3-.3-.7-.4-1.1-1.2-.9-2-.5.8-.2 1.8.6 2.3h0 0z"/><path opacity="0.3" d="M-117.6-122.1c-.5-.1-1-.7-1-1.2 0-.2.1-.3.1-.5-.2.2-.3.5-.3.8 0 .5.4 1.1.9 1.2.4.1.6-.2.6-.5.1.2-.1.2-.3.2h0 0z"/></g><radialGradient id="ak" cx="-2489.6477" cy="507.2473" r="0.3725" gradientTransform="matrix(3.3232 0 0 -5.6997 8170.3081 2769.0618)" gradientUnits="userSpaceOnUse"><stop offset="0" style="stop-color:#fff;stop-opacity:0"/><stop offset="0.9171" style="stop-color:#fff;stop-opacity:0.9171"/><stop offset="1" style="stop-color:#fff"/></radialGradient><path opacity="0.3" fill="url(#ak)" d="M-103.1-123.5c-.8 0-.9 1-.9 1.6-.1.5-.1 1.2.5 1.3.6.1.8-.3.9-.8 0-.4.4-1.1.3-1.5-.1-.2-.4-.5-.6-.6"/><path opacity="0.3" fill="#fff" d="M-103.3-123.2c-.4-.2-.6 1.5-.5 1.8.2 0 .4-.7.5-.9s.5-.5.4-.8c-.1-.1-.3-.2-.4-.1"/><path opacity="0.3" fill="#6caf11" d="M-102.7-121.5c-.1.6-.2.9-.9.8-.4 0-.5-.4-.5-.7-.1.5 0 1 .5 1 .6.1.8-.3.9-.8 0-.4.4-1 .3-1.4-.1.5-.3.9-.3 1.1h0 0z"/><radialGradient id="al" cx="-2516.6147" cy="495.5087" r="0.3518" gradientTransform="matrix(5.4095 0 0 -8.5634 13500.1699 4127.8379)" gradientUnits="userSpaceOnUse"><stop offset="0" style="stop-color:#fff;stop-opacity:0"/><stop offset="0.9171" style="stop-color:#fff;stop-opacity:0.9171"/><stop offset="1" style="stop-color:#fff"/></radialGradient><path opacity="0.3" fill="url(#al)" d="M-113.1-116.1c.2-.5.3-1.1-.2-1.3-.6-.3-1 .1-1.3.6-.2.5-.4 1.2-.1 1.6.1.2.3.3.3.5.1.3 0 .6.1.8.3 1.3 1.8.7 2.2-.2.2-.5 0-.9-.4-1.1-.4-.3-.8-.6-.6-.9"/><g style="fill:#fff"><path opacity="0.3" d="M-113.9-117.3c0 0-.8 1.2-.3 1.1.3-.1.8-1.1.3-1.1"/><path opacity="0.3" d="M-114.2-114.3c.3.3.8.4 1.1.2.2-.1.3-.4.5-.4.3-.1.2.2.1.4-.2.4-.5.6-.9.7s-.9-.1-.8-.6"/></g><path opacity="0.3" fill="#3fb5ba" d="M-112.2-114.2c-.4.9-1.9 1.5-2.2.2h0v.4c.3 1.3 1.8.7 2.2-.2.1-.2.1-.4.1-.5 0 0 0 0-.1.1h0 0z"/><radialGradient id="am" cx="-2462.2515" cy="549.1902" r="0.2803" gradientTransform="matrix(2.5115 0 0 -2.7619 6072.7251 1400.5715)" gradientUnits="userSpaceOnUse"><stop offset="0" style="stop-color:#fff;stop-opacity:0"/><stop offset="0.9171" style="stop-color:#fff;stop-opacity:0.9171"/><stop offset="1" style="stop-color:#fff"/></radialGradient><path opacity="0.3" fill="url(#am)" d="M-111.3-116.9c-.7-.2-.8 1.6.3 1.4.4-.1.6-.5.5-.9-.1-.3-.5-.5-.8-.5"/><path opacity="0.3" fill="#fff" d="M-111.4-116.6c-.4-.1-.3.4.1.3.4-.1.1-.4-.1-.3"/><path opacity="0.3" fill="#3fb5ba" d="M-111.1-115.6c-.5.1-.7-.2-.8-.6-.1.5.2 1 .8.9.4-.1.6-.5.5-.8-.1.3-.2.5-.5.5h0 0z"/><radialGradient id="an" cx="-2509.1541" cy="514.4838" r="0.28" gradientTransform="matrix(4.4348 0 0 -4.9154 11027.668 2412.9761)" gradientUnits="userSpaceOnUse"><stop offset="0" style="stop-color:#fff;stop-opacity:0"/><stop offset="0.9171" style="stop-color:#fff;stop-opacity:0.9171"/><stop offset="1" style="stop-color:#fff"/></radialGradient><path opacity="0.3" fill="url(#an)" d="M-98.9-116.8c-.2-.5-.9-.4-1.3-.1-.4.3-.8.9-.9 1.4-.1.5.2.9.7.9.5 0 1-.4 1.2-.8.3-.5.4-1 .3-1.4h0"/><path opacity="0.3" fill="#fff" d="M-99.4-116.9c-.5-.3-1.9 1.3-1.3 1.6.3-.2.5-.4.7-.7.1-.2.2-.3.4-.5 0-.1.1-.3.2-.4"/><path opacity="0.3" fill="#3fb5ba" d="M-98.9-116.5c0 .4-.2.8-.4 1.1-.2.4-.8.8-1.2.8-.4 0-.6-.3-.7-.5-.1.5.2.9.7.9.5 0 1-.4 1.2-.8.4-.6.5-1 .4-1.5h0 0z"/><radialGradient id="ao" cx="-2492.5403" cy="506.6475" r="0.3852" gradientTransform="matrix(3.4038 0 0 -6.0991 8384.792 2979.3872)" gradientUnits="userSpaceOnUse"><stop offset="0" style="stop-color:#fff;stop-opacity:0"/><stop offset="0.9171" style="stop-color:#fff;stop-opacity:0.9171"/><stop offset="1" style="stop-color:#fff"/></radialGradient><path opacity="0.3" fill="url(#ao)" d="M-98.6-111.5c.1-.4-.6-.8-.9-.8-.6 0-.7.7-.7 1.2 0 .6.3 2.4 1.3 1.8.3-.2.4-.6.4-.9 0-.2.1-.4.1-.6-.1-.3-.3-.4-.2-.7"/><path opacity="0.3" fill="#fff" d="M-99.6-111.9c-.4-.1-.5 1.5-.1 1.7.4.2.4-.7.4-.9 0-.4-.2-.6-.5-.7"/><path opacity="0.3" fill="#3fb5ba" d="M-99-109.3c-1 .6-1.3-1.2-1.3-1.8 0-.2.1-.4.1-.6-.2.3-.3.6-.3.9-.1.6.3 2.4 1.3 1.8.2-.1.3-.3.4-.5 0 .1-.1.2-.2.2h0 0z"/><radialGradient id="ap" cx="-2541.4956" cy="489.4379" r="0.2384" gradientTransform="matrix(11.2598 0 0 -8.9589 28503.1602 4225.1421)" gradientUnits="userSpaceOnUse"><stop offset="0" style="stop-color:#fff;stop-opacity:0"/><stop offset="0.9171" style="stop-color:#fff;stop-opacity:0.9171"/><stop offset="1" style="stop-color:#fff"/></radialGradient><path opacity="0.3" fill="url(#ap)" d="M-115.5-159.3c-.5.2-1 .6-.9 1.2.1.6.8.9 1.2.4.3-.3.1-.6.3-.9.1-.1.6-.1.7-.2.4-.4.6-.9.4-1.5.8.1 2.2.8 2.9.1.7-.8-.9-1.2-1.5-1.4-.9-.2-1.9-.8-2.6-.1-.3.3-.5.5-.6.9-.1.4.3 1.1.2 1.3 0 .1-.1.1-.1.1"/><g style="fill:#fff"><path opacity="0.3" d="M-115.2-159.1c-.2.1-.7.4-.4.6.3 0 .5-.4.4-.6"/><path opacity="0.3" d="M-115.2-161v.2c.3.2.5-.4.7-.4.3-.1.8 0 1.1.1.4.1.7.2 1 .3.2 0 .4 0 .5.1.2 0 .3.1.5.1 0-.1 0-.1 0-.1-.6-.4-1.3-.4-1.9-.6-.5-.2-1.7-.4-1.8.4"/></g><g transform="translate(8.510721 3.358674)" style="fill:#fbb316"><path d="M-119.5-163.6c-.7.8-2.1 0-2.9-.1 0 .1 0 .3 0 .4.8.1 2.1.8 2.8 0 .2-.2.2-.4.2-.6 0 .2 0 .2-.1.3h0 0z"/><path d="M-123.9-162.8c.1-.2-.1-.6-.2-1v.1c0 .2.1.6.2.9h0 0z"/><path d="M-122.7-162.2c-.2.1-.6.1-.7.2-.2.3-.1.6-.3.9-.4.5-1.1.2-1.2-.3v.3c.1.6.8.9 1.2.4.3-.3.1-.6.3-.9.1-.1.6-.1.7-.2.4-.3.5-.8.5-1.2-.1.3-.3.6-.5.8h0 0z"/></g><radialGradient id="aq" cx="-2496.1118" cy="506.818" r="0.3098" gradientTransform="matrix(3.7686 0 0 -4.9671 9294.6631 2365.571)" gradientUnits="userSpaceOnUse"><stop offset="0" style="stop-color:#fff;stop-opacity:0"/><stop offset="0.9171" style="stop-color:#fff;stop-opacity:0.9171"/><stop offset="1" style="stop-color:#fff"/></radialGradient><path opacity="0.3" fill="url(#aq)" d="M-111.9-153.1c-.6.4-1.2 1-1.3 1.8-.1.6.4.9.9.7.5-.2.9-.7 1-1.2.1-.4 0-1.2-.6-1.1"/><path opacity="0.3" fill="#fff" d="M-112-152.8c-.3.1-.8.8-.8 1 .3.1.9-.7.8-1"/><path opacity="0.3" fill="#fbb316" d="M-112.2-150.7c-.5.2-.9 0-.9-.5 0 0 0 0-.1 0v0c0 .6.6 1 1.2.8.5-.2.7-.9.7-1.4-.1.5-.5.9-.9 1.1h0 0z"/><radialGradient id="ar" cx="-2467.5999" cy="505.886" r="0.4084" gradientTransform="matrix(2.7391 0 0 -5.2897 6639.1162 2531.2336)" gradientUnits="userSpaceOnUse"><stop offset="0" style="stop-color:#fff;stop-opacity:0"/><stop offset="0.9171" style="stop-color:#fff;stop-opacity:0.9171"/><stop offset="1" style="stop-color:#fff"/></radialGradient><path opacity="0.3" fill="url(#ar)" d="M-120.4-146.1h0c-.1.9-.2 1.8-.2 2.7.2-.1.5-.1.7-.1.2-.1.4-.2.5-.4.2-.4.3-1 .2-1.4-.3-.5-.7-.8-1.2-.8h0 0z"/><path opacity="0.3" fill="#fff" d="M-120.3-145.8c0 0-.1-.1 0 0 .2.3.2.6.7.6.1-.4-.4-.8-.8-.7"/><path opacity="0.3" fill="#fbb316" d="M-119.2-144.9c0 .4 0 .8-.2 1-.1.2-.3.4-.5.4-.2.1-.5.1-.7.1 0 .2 0 .4-.1.7.2-.1.4-.1.4-.1.4-.2.7-.5.9-.9.3-.3.4-.9.2-1.2h0 0z"/><radialGradient id="as" cx="-2511.5547" cy="507.6502" r="0.271" gradientTransform="matrix(4.7548 0 0 -4.9511 11835.71 2365.1687)" gradientUnits="userSpaceOnUse"><stop offset="0" style="stop-color:#fff;stop-opacity:0"/><stop offset="0.9171" style="stop-color:#fff;stop-opacity:0.9171"/><stop offset="1" style="stop-color:#fff"/></radialGradient><path opacity="0.3" fill="url(#as)" d="M-105.4-149.5c-1.1-.3-3.1 2.3-1.3 2.5.6.1 1-.2 1.4-.7.3-.4.4-1 .3-1.4-.1-.1-.2-.4-.4-.4"/><path opacity="0.3" fill="#fff" d="M-105.6-149.3c-.4 0-1.4.7-1.3 1.2.4 0 1.3-.9 1.3-1.2"/><path opacity="0.3" fill="#fbb316" d="M-105.3-147.7c-.4.5-.8.8-1.4.7-.4-.1-.7-.2-.7-.5-.1.4.1.8.7.8.6.1 1-.2 1.4-.7.2-.3.4-.8.3-1.1-.1.3-.2.6-.3.8h0 0z"/><radialGradient id="at" cx="-2487.7131" cy="507.5686" r="0.3425" gradientTransform="matrix(3.2032 0 0 -4.9754 7868.2476 2377.624)" gradientUnits="userSpaceOnUse"><stop offset="0" style="stop-color:#fff;stop-opacity:0"/><stop offset="0.9171" style="stop-color:#fff;stop-opacity:0.9171"/><stop offset="1" style="stop-color:#fff"/></radialGradient><path opacity="0.3" fill="url(#at)" d="M-100.2-149c-.6-.1-1 1.2-1 1.6-.1.6.3 1.1.9.8.5-.3.7-.8.7-1.3 0-.3-.2-1.2-.6-1.1 0 0 0 .1 0 0"/><path opacity="0.3" fill="#fff" d="M-100.4-148.7c-.3.1-.6.8-.5 1.1.3.2.9-1.1.5-1.1"/><path opacity="0.3" fill="#fbb316" d="M-100.3-146.6c-.5.3-.8-.1-.9-.5v.1c-.1.6.3 1.1.9.8.5-.2.7-.8.7-1.3v-.2c-.1.4-.3.9-.7 1.1h0 0z"/><radialGradient id="au" cx="-2512.6223" cy="512.922" r="0.2523" gradientTransform="matrix(5.0484 0 0 -4.5061 12568.333 2169.9937)" gradientUnits="userSpaceOnUse"><stop offset="0" style="stop-color:#fff;stop-opacity:0"/><stop offset="0.9171" style="stop-color:#fff;stop-opacity:0.9171"/><stop offset="1" style="stop-color:#fff"/></radialGradient><path opacity="0.3" fill="url(#au)" d="M-116.1-142.4c-.9-.1-2.1 1.2-1.3 1.9.6.5 2.1.6 2.3-.4.1-.5-.6-1.5-1-1.5"/><path opacity="0.3" fill="#fff" d="M-117-141.9c-.2-.1-.4.1-.4.3.3.1.4-.1.6-.2.3-.1.5 0 .8-.1.1-.6-1.1-.3-1.3 0"/><path opacity="0.3" fill="#fbb316" d="M-117.4-140.5c-.2-.2-.3-.3-.3-.5-.1.3 0 .6.3.8.6.5 2.1.6 2.3-.4v-.3c-.3.9-1.8.8-2.3.4h0 0z"/><radialGradient id="av" cx="-2471.0088" cy="511.1416" r="0.3771" gradientTransform="matrix(2.7125 0 0 -4.6908 6594.5654 2255.991)" gradientUnits="userSpaceOnUse"><stop offset="0" style="stop-color:#fff;stop-opacity:0"/><stop offset="0.9171" style="stop-color:#fff;stop-opacity:0.9171"/><stop offset="1" style="stop-color:#fff"/></radialGradient><path opacity="0.3" fill="url(#av)" d="M-107.6-142.9c-.7 0-.9.7-1 1.3-.1.4-.3 1.1.4 1.1.6 0 1.2-2 .6-2.4 0 0 0 0 0 0"/><path opacity="0.3" fill="#fff" d="M-107.9-142.6c-.4.1-.6 1-.5 1.3.3.1.5-.4.5-.6 0-.2.3-.8 0-.7"/><path opacity="0.3" fill="#fbb316" d="M-108.3-140.5c-.3 0-.4-.2-.5-.4-.1.4 0 .7.5.7.5 0 1-1.2.9-1.9 0 .7-.4 1.6-.9 1.6h0 0z"/><radialGradient id="aw" cx="-2524.4482" cy="506.523" r="0.2489" gradientTransform="matrix(6.0957 0 0 -5.2211 15289.7236 2500.7681)" gradientUnits="userSpaceOnUse"><stop offset="0" style="stop-color:#fff;stop-opacity:0"/><stop offset="0.9171" style="stop-color:#fff;stop-opacity:0.9171"/><stop offset="1" style="stop-color:#fff"/></radialGradient><path opacity="0.3" fill="url(#aw)" d="M-97.9-145c-.8-.4-2.2.1-2.2 1.1 0 1 1.4 1.7 2.2 1.4.5-.1.9-.7.9-1.3-.1-.5-.5-1-.9-1.2"/><path opacity="0.3" fill="#fff" d="M-97.7-144.5c-.4-.4-1.9-.5-2 .3-.2.6.7.2.9.1.3-.2.8-.1 1.1-.4"/><path opacity="0.3" fill="#fbb316" d="M-97.1-143.6c-.1.5-.5.8-.8 1-.8.3-2.1-.4-2.2-1.2v.2c0 1 1.4 1.7 2.2 1.4.5-.2.9-.8.8-1.4 0 .1 0 .1 0 0h0 0z"/></g><g transform="translate(260.491228 431.157895)"><linearGradient id="ax" gradientUnits="userSpaceOnUse" x1="-2711.9753" y1="377.656" x2="-2711.9753" y2="377.741" gradientTransform="matrix(13.3739 0 0 -16.6674 36143.3438 6081.417)"><stop offset="0" style="stop-color:#e3c091"/><stop offset="1" style="stop-color:#7f5327"/></linearGradient><path fill="url(#ax)" d="M-126.3-214.8h0-3.4v6.7c0 .5 1.5 1.7 3.4 1.7s3.4-.4 3.4-.9v-7.5h-3.4 0z"/><g style="fill:#cb9257"><path opacity="0.5" d="M-124-214.8v7.2c0 .5-1.5.9-3.4.9-.7 0-.8-.4-1.3-.5.6.2 1.1.8 2.3.8 1.9 0 3.4-.4 3.4-.9v-7.5h-1 0z"/><g transform="translate(.998051)"><path d="M-130.3-208c0 0 .1 0 0 0l.1-6.8-.1-1.1v7.9h0z"/><path d="M-125.8-206.6h0l.1-8.3h-.1v8.3h0z"/><path d="M-127.8-206.5h.5.1v-8.4h-.1-.5v8.4h0z"/><path d="M-124.9-206.8c.1-.1.2-.1.3-.1v-8h-.3v8.1h0z"/><path d="M-129.8-206.8h0l.1-8.1h-.1v8.1h0z"/><path d="M-128.9-206.8c.1 0 .2.1.3.1v-8.1h-.3v8.3-.3z"/><path d="M-126.8-206.5h0l.1-8.4h-.1v8.4h0z"/></g></g><g transform="translate(.998051 5.988304)"><radialGradient id="ay" cx="-2712.2903" cy="381.4538" r="0.2755" gradientTransform="matrix(9.1893 0 0 -9.7554 24796.4141 3505.6873)" gradientUnits="userSpaceOnUse"><stop offset="0" style="stop-color:#fff;stop-opacity:0"/><stop offset="0.9171" style="stop-color:#fff;stop-opacity:0.9171"/><stop offset="1" style="stop-color:#fff"/></radialGradient><path opacity="0.5" fill="url(#ay)" d="M-128.6-217.2c0 0-.7-.7-1.2-.1-.5.5 0 1.8 1.1 1.5 0 0 .3.3.3.7 0 .4-.4 1-.4 1.5s1.4 1.2 1.3-.1c0 0 1.1-1.4.5-2 0 0 .4-.6.8-.6.4 0 1.2-.5.8-1-.4-.5-.8-1.1-1.9-.1-1.2.9-1.3.2-1.3.2h0 0z"/><g style="fill:#fff"><path opacity="0.7" d="M-129.1-217.3c-.2 0-.4-.1-.5 0-.1.2.1.3.2.4s.4.2.4 0c.1-.1 0-.3-.1-.4"/><path opacity="0.7" d="M-128.4-216.7c.3-.1.6-.2 1-.4 0 0 0 0 0-.1.2-.1.4-.1.5-.2.2-.1.3-.2.4-.3.3-.2.8.2.4.4-.4.1-.7.2-1 .4-.4.1-.8.2-1.1.2"/><path opacity="0.7" d="M-128-215.1c0 .2-.5.9-.2.9.2 0 .4-.7.2-.9"/></g><g transform="translate(0 1.996101)" style="fill:#cb9257"><path d="M-128.4-217.1v-.2c0-.4-.3-.7-.3-.7-.7.2-1.2-.3-1.3-.8-.1.6.4 1.4 1.3 1.2 0 .1.2.3.3.5h0 0z"/><path d="M-126.2-218.5c-.4 0-.8.6-.8.6.1.1.1.1.1.2.2-.1.4-.5.7-.5.3 0 1.1-.5.8-.9-.1.4-.6.6-.8.6h0 0z"/><path d="M-126.8-217.3c-.1.7-.7 1.4-.7 1.4.1 1.2-1.1.7-1.3.2v.3c0 .5 1.4 1.2 1.3-.1 0 0 .8-1.1.7-1.8h0 0z"/></g></g></g><path fill="#fbb040" d="M130.8 220.7c.2.1.1.3.1 1.3 1.4 1 3.8 2 6.3 2.5.2.1.3-1 .4-.9 1 .7 2.1 1.5 3.1 2.5 0 0-8.7.8-12.9-5.5 0 0 1.2-.1 3.1.2h0l-.1-.1z"/><path fill="#ea6709" d="M128 220.6c6.8 4.8 6.1 3.8 12.7 5.3-1-1-2.2-1.9-3.2-2.6-.3.3-.1.9-.7.9-1.7-.3-5-1.9-5.9-2.4-.2-.2.1-1.1-.1-1.3-1.8-.3-2.9-.1-2.9-.1 0 .2.1.2.1.2h0 0z"/><linearGradient id="az" gradientUnits="userSpaceOnUse" x1="-383.3331" y1="799.2006" x2="-383.3331" y2="798.6996" gradientTransform="matrix(92.1201 0 0 -23.2912 35408.2891 18689.5645)"><stop offset="0" style="stop-opacity:3.000000e-02"/><stop offset="0.8884" style="stop-opacity:0.4475"/><stop offset="1" style="stop-opacity:0.5"/></linearGradient><path fill="url(#az)" d="M117.5 77.6c-16.1 5.3-35.9 2.5-44.2.9-.5 2-.8 4.1-.8 6.3 0 .8.1 1.6.1 2.4 3.5.7 7.8 1.3 13.2 1.8 23.5 2 32.8-3.6 32.8-3.6s0-3.4-1.1-7.8h0 0z"/><g style="fill:#fff"><circle cx="88" cy="69.1" r="7.8"/><circle cx="95.5" cy="77.3" r="4.3"/></g><linearGradient id="aA" gradientUnits="userSpaceOnUse" x1="-383.9307" y1="799.3304" x2="-383.9307" y2="798.8789" gradientTransform="matrix(89.5252 0 0 -22.4786 34528.9297 18041.6367)"><stop offset="0" style="stop-opacity:0"/><stop offset="1" style="stop-opacity:0.4"/></linearGradient><path fill="url(#aA)" d="M167 87.6c5.3-.5 9.5-1.1 12.8-1.7.1-.8.1-1.5.1-2.3 0-2.4-.4-4.7-1-6.9-16.4 3.5-35.9 1.4-42.8.4-1 4.1-1 7.1-1 7.1s9.1 5.3 31.9 3.4h0 0z"/><g style="fill:#fff"><circle cx="164.6" cy="69.7" r="7.8"/><circle cx="157.1" cy="77.9" r="4.3"/></g></svg>