<svg width="256px" height="256px" viewBox="0 0 256 256" xmlns="http://www.w3.org/2000/svg" preserveAspectRatio="xMidYMid"><path d="M128 0h0c70.776471 0 128 57.2235294 128 128h0c0 70.776471-57.223529 128.000602-128 128.000602h0C57.2235294 256.215126 0 198.776471 0 128h0C0 57.2235294 57.2235294 0 128 0z" fill="#fff"/><path d="M126.278992 112.080672c7.099159 0 11.186554-3.872269 11.186554-10.541176.215126-5.5932775-4.087395-10.3260506-9.680672-10.5411767-.430252 0-.860504 0-1.07563 0H110.57479V79.1663866c.430252-6.6689076-4.732773-12.692437-11.6168068-12.9075631-6.6689076-.4302521-12.692437 4.7327731-12.907563 11.6168068 0 .4302521 0 1.0756302 0 1.5058823v82.1781514c0 19.791597 7.9596638 28.611765 25.5999998 28.611765 6.668908.215126 13.337815-1.505883 19.146219-4.732774 2.796638-1.721008 4.517647-4.947899 4.302521-8.174789 0-5.378152-3.657143-11.186555-8.605042-11.186555-.645379 0-1.505883.215126-2.151261.430252l-.860504.430252c-1.721008.860504-3.872269 1.505882-5.808403 1.505882-3.226891 0-6.884034-1.07563-6.884034-9.895798v-46.467227h15.489076z" fill="#1d1c39"/><path d="M178.984874 146.715966c-11.831933 0-21.512605 9.680673-21.512605 21.512605 0 11.831933 9.680672 21.512605 21.512605 21.512605 11.831933 0 21.512605-9.680672 21.512605-21.512605 0-11.831932-9.680672-21.512605-21.512605-21.512605" fill="#ff22b1"/></svg>