<svg width="256px" height="256px" viewBox="0 0 256 256" xmlns="http://www.w3.org/2000/svg" preserveAspectRatio="xMidYMid"><title>TeamCity</title><defs><linearGradient x1="53.1428329%" y1="67.3286946%" x2="46.4838519%" y2="39.3026281%" id="a"><stop stop-color="#07c3f2" offset="0%"/><stop stop-color="#6b57ff" offset="100%"/></linearGradient><linearGradient x1="35.7837694%" y1="53.9355231%" x2="66.6132475%" y2="42.8140474%" id="b"><stop stop-color="#07c3f2" offset="0%"/><stop stop-color="#009ae5" offset="100%"/></linearGradient><linearGradient x1="73.9786852%" y1="64.1458767%" x2="21.7623532%" y2="35.0716525%" id="c"><stop stop-color="#009ae5" offset="0%"/><stop stop-color="#6b57ff" offset="100%"/></linearGradient><linearGradient x1="39.6291606%" y1="80.7276743%" x2="64.8468144%" y2="10.2874222%" id="d"><stop stop-color="#07c3f2" offset="30%"/><stop stop-color="#3bea62" offset="60%"/></linearGradient></defs><path d="M65.2133489 221.374183 11.5630425 80.2961128c-6.80652425-17.8747942-4.53070134-37.9393207 6.1063342-53.8357805C28.3064122 10.5638725 45.9862374.805789179 65.1066882.278102996 91.1758758-.39062697 114.59291 16.1305365 122.703439 40.9137068l46.95735 143.4244832c9.466133 28.930204-93.8347056 64.979637-104.4474401 37.035993h0z" fill="url(#a)"/><path d="M226.190933 176.605693 94.7050182 247.718c-15.5482653 8.409274-33.8952251 9.968175-50.6395123 4.302728-16.7442871-5.665448-30.3749975-18.044027-37.6221745-34.166164-7.140983836-15.813316-7.52501958-33.854545-1.06342101-49.957384 6.46159861-16.102838 19.21010891-28.874905 35.30148921-35.366718L179.340243 76.5365195c23.588508-9.5189915 50.628021-1.6773879 65.462973 18.9846128 9.3163 12.9213747 12.614143 29.2297327 9.05035 44.7554237-3.563792 15.525691-13.643736 28.763608-27.662633 36.329137h0z" fill="url(#b)"/><path d="M176.513736 177.832227 40.73473 112.21266c-17.2155269-8.340048-29.3283402-24.4976705-32.5058406-43.3604547-3.17750037-18.8627842 2.9734896-38.0966879 16.5067433-51.6159369C43.1866507-1.20589525 71.5745106-5.30759848 94.4916969 7.15735875L227.017553 79.1495702c26.67968 14.5237535 36.73198 47.7920528 22.558727 74.6585898-13.906632 26.380204-46.212716 37.002932-73.062544 24.024067h0z" fill="url(#c)"/><path d="M37.5882408 250.197732c-18.1798352-8.294369-31.46651067-24.57334-35.94951701-44.045717-4.48300635-19.472378.34786751-39.92201 13.07080791-55.330199L129.58305 12.0101671c9.185469-11.1291418 24.683971-14.73325799 37.837866-8.79904808C182.648254 10.0743341 190.077698 27.459028 184.513284 43.206792L124.62333 213.135075c-5.943801 16.992224-18.770107 30.695231-35.3333564 37.748456-16.5632495 7.053224-35.3314132 6.804274-51.7017328-.685799h0z" fill="url(#d)"/><path d="M48.0409844 48.0062728H208.031958V207.988965H48.0409844z"/><path d="M67.9865257 177.752236h59.9966153v9.998918H67.9865257v-9.998918zm16.1324232-97.7760886H65.7999824V67.7641353h49.8638536v12.2120121H97.3448693v47.9681436H84.1189489V79.9761474zm36.5287101 18.5434564.002562-.6520587c-.156068-8.3461015 3.1093-16.3927124 9.037351-22.2700937 5.928051-5.8773813 14.002647-9.0738054 22.347545-8.8465399 8.870167-.4532792 17.509563 2.9149402 23.731994 9.2523324l-8.426191 9.7056167c-4.047052-4.1997225-9.582091-6.6415252-15.412464-6.7992645-10.020175 0-17.276306 8.2395564-17.436316 18.3240316l-.0027.5272623c0 10.318884 7.146264 18.904621 17.439016 18.904621 6.097838 0 10.100753-2.094814 14.236981-5.616007l.637695-.552886c.319674-.281979.640813-.572195.964431-.870345l8.426191 8.505746c-6.161197 7.15108-15.261663 11.081963-24.69194 10.665513-8.207727.130445-16.118737-3.066854-21.930739-8.863486-5.695762-5.6807-8.900238-13.383657-8.923416-21.4144422h0z" fill="#fff"/></svg>