<svg width="256px" height="274px" viewBox="0 0 256 274" xmlns="http://www.w3.org/2000/svg" preserveAspectRatio="xMidYMid"><path d="M145.726081 42.0651946v42.0695473l72.860871 42.0695701V84.1347419l-72.860871-42.0695473zM-1.98726454e-7 84.1347419v42.0695701L36.4304238 147.234755v-42.065228L-1.98726454e-7 84.1347419zM109.291294 105.169527l-36.4304239 21.034785v126.200004l36.4304239 21.034785v-84.134798l36.434787 21.034785V168.26954l-36.434787-21.034785v-42.065228z" fill="#e55b2d"/><path d="M145.726081 42.0651946 36.4304238 105.169527v42.065228l72.8608702-42.065228v42.065228l36.434787-21.030443V42.0651946zm109.295636 21.0347848-36.434765 21.0347625v42.0695701l36.434765-21.034785V63.0999794zm-72.865212 84.1347756-36.430424 21.034785v42.069548l36.430424-21.034785v-42.069548zm-36.430424 63.104333-36.434787-21.034785v84.134798l36.434787-21.034785v-42.065228z" fill="#ed8e24"/><path d="M145.726081-3.41864288e-5-1.98726454e-7 84.1347419 36.4304238 105.169527 145.726081 42.0651946l72.860871 42.0695473 36.434765-21.0347625L145.726081-3.41864288e-5zm0 126.2043461864288L109.291294 147.234755l36.434787 21.034785 36.430424-21.034785-36.430424-21.030443z" fill="#f8bf3c"/></svg>