<svg width="256px" height="257px" viewBox="0 0 256 257" xmlns="http://www.w3.org/2000/svg" preserveAspectRatio="xMidYMid"><path d="M99.4047197 111.84937l-39.3286098 16.421243L0 93.6321353l34.6384778-58.9936575 59.5348837 34.6384778 5.2313582 42.5724144zm57.9538553 33.075394 5.00929 42.339507 59.534883 34.638477L256 162.909091l-60.07611-34.638478-38.565315 16.654151z" fill="#00b3e3"/><path d="M128.270613 160.204261l34.097252 27.06001v69.276955H94.1733615v-69.276955l34.0972515-27.06001zm34.097252-90.9273054V0H94.1733615v69.2769556L128.270613 96.683757l34.097252-27.4068014z" fill="#ffc843"/><path d="M157.358575 113.343892l5.00929-44.0669364 59.534883-34.6384778L256 93.6321353l-60.07611 34.6384777-38.565315-14.926721zm-97.2824651 14.926721L0 162.909091l34.0972516 58.993657 60.0761099-34.638477 9.9357285-42.418982-44.0329801-16.574676z" fill="#ff4338"/><path d="M162.367865 108.786469l33.556025 19.484144-33.556025 19.484144-6.600743-19.484144 6.600743-19.484144zm-68.1945035 0-34.0972516 19.484144 34.0972516 19.484144 7.5793205-19.484144-7.5793205-19.484144z" fill="#002f32"/><path d="M128.270613 88.7610994l34.097252-19.4841438v39.5095134l-22.498656-3.947336-11.598596-16.0780336zM94.1733615 147.754757v39.509514l34.0972515-19.484144-11.942904-18.496036-22.1543475-1.529334z" fill="#ff350f"/><path d="M162.367865 147.754757v39.509514l-34.097252-19.484144 13.699397-15.000769 20.397855-5.024601zm-34.097252-58.9936576-34.0972515-19.4841438v39.5095134l22.3709655-3.678926 11.726286-16.3464436z" fill="#008c3c"/><path fill="#00250d" d="M128.270613 88.7610994 94.1733615 108.786469v38.968288l34.0972515 20.02537 34.097252-20.02537v-38.968288z"/></svg>