<svg width="256px" height="259px" viewBox="0 0 256 259" xmlns="http://www.w3.org/2000/svg" preserveAspectRatio="xMidYMid"><title>threejs</title><path d="M.0870894703 3.58491767C-.445865301 1.42734685 1.55522924-.4988131 3.69089875.116059507h0L65.9202231 18.0320789c.5571231-.0019835 1.1080134.1567304 1.5786795.45479L190.228501 53.8212267c.508774.010518 1.009735.154617 1.446333.4159781l62.234002 17.9181632c2.138121.6155784 2.806976 3.3156054 1.203449 4.8580705h0L67.3123337 257.662036c-1.6029186 1.54188-4.273894.770016-4.8072581-1.389212h0L31.3526494 130.158635c-.0416903-.129476-.0743871-.261763-.0978166-.395754zM53.393 195.295l13.5199449 54.733113L107.627 210.863l-54.234-15.568zm41.9375845-43.2842-39.418389 37.995629 52.5121115 15.075476L95.3305845 152.0108zm5.8514155-.4058 13.052 52.903 39.311-37.814-52.363-15.089zm-63.07-18.174 13.109 53.073 39.372-37.95-52.481-15.123zm103.704-26.278-40.051 38.606 53.373493 15.380573L141.816 107.153zm5.612-1.373 13.322 53.984 40.161-38.631-53.483-15.353zM79.847 89.239l-40.1369323 38.639773L93.181 143.286 79.847 89.239zm5.59071-1.4574963 13.0937228 53.0696603 39.4183892-37.995629L85.43771 87.7815037zM22.384 69.759 35.71 123.71l40.108-38.612-53.434-15.339zm166.191513-7.4903949-39.418389 37.9956289 52.512112 15.075476-13.093723-53.0711049zM194.209 60.979l13.28 53.826 40.007543-38.4835732L194.209 60.979zm-67.859364-16.5057248L87.108 82.25l52.265 15.003-13.023364-52.7797248zM131.95 43.054l13.112 53.134 39.43-38.007-52.542-15.127zM64.3375331 26.480059 24.9191442 64.4756882 77.431256 79.5511637 64.3375331 26.480059zM69.976 25.211l13.061 52.937 39.323-37.855-52.384-15.082zM6.89415059 7.04963876 20.217 60.985l40.022-38.577L6.89415059 7.04963876z"/></svg>