<svg width="256px" height="257px" viewBox="0 0 256 257" xmlns="http://www.w3.org/2000/svg" preserveAspectRatio="xMidYMid"><title>Thymeleaf</title><path fill="#005f0f" d="M-1.97940601e-14 0h255.99999999999997v256.431459H-1.97940601e-14z"/><path d="M218.18659 34.9646529c-31.527701 38.6338748-70.031769 70.9921101-111.093142 99.0428551-13.3486122 9.555234-28.0848284 18.059663-38.3473268 31.144561-3.9195732 6.88633-4.8654801 16.58375 1.8359453 22.171496 11.1603788 10.517438 28.5439923 12.80529 42.5253355 6.917322 19.574312-7.455449 33.093274-24.426643 44.457348-41.249454 25.358663-36.53364 40.737138-78.5550498 60.62184-118.0267801h0z" fill="#fff"/><path d="M200.104098 48.3235138C160.850157 79.4260876 129.451869 96.234868 89.3072076 110.69382c-12.1159662 5.184366-25.100799 11.763678-30.7294677 24.485158-5.7952018 12.035569-3.8958385 28.819435 2.75217 39.963503-.4973568-4.691383 2.0089275-12.270785 5.737606-15.82903 12.3728-13.778749 28.4883605-22.806665 42.6637741-33.269028l.033847-.028833.033986-.022843c32.806145-22.53022 63.562579-48.2756992 90.304975-77.6692332h0z" fill="#aea99f"/></svg>