<svg width="256px" height="290px" viewBox="0 0 256 290" xmlns="http://www.w3.org/2000/svg" preserveAspectRatio="xMidYMid"><title>TikTok</title><path d="M189.720224 104.421475c18.677965 13.344806 41.559314 21.19662 66.272324 21.19662V78.0872726c-4.676937 9.928e-4-9.34196-.486457-13.917635-1.4554v37.4135094c-24.711024 0-47.589395-7.851814-66.272323-21.1956279v96.9965519c0 48.522599-39.355366 87.855131-87.899806 87.855131-18.1130783 0-34.9484624-5.473138-48.9336054-14.859773 15.961747 16.312195 38.2216232 26.431494 62.8482614 26.431494 48.547418 0 87.90477-39.332532 87.90477-87.857117v-96.994566h-.001986zm17.168955-47.9527496c-9.545478-10.4230863-15.812832-23.892982-17.168955-38.7845235v-6.1134741h-13.188942c3.319821 18.9271492 14.64335 35.0973778 30.357897 44.8979976h0zM69.6735517 225.606854c-5.3331574-6.989097-8.2151671-15.538827-8.2022611-24.329801 0-22.192368 18.0008954-40.186314 40.2091474-40.186314 4.138856-9.92e-4 8.252893.632395 12.197165 1.883284v-48.593085c-4.609428-.631402-9.261546-.89945-13.9116776-.801165v37.82253c-3.9472513-1.25089-8.0632733-1.886262-12.2031219-1.882291-22.2082522 0-40.2081548 17.99196-40.2081548 40.187306 0 15.6937 8.9974693 29.280742 22.118903 35.899536z" fill="#ff004f"/><path d="M175.80259 92.8487613c18.682928 13.3438137 41.561299 21.1956277 66.272323 21.1956277V76.6308799c-13.793538-2.936612-26.004602-10.1411398-35.185734-20.1621545-15.71554-9.8016126-27.038076-25.9718412-30.357897-44.8979976H141.8876V201.414056c-.078428 22.131809-18.048548 40.05229-40.209147 40.05229-13.0588895 0-24.6603931-6.221686-32.0078796-15.859492-13.1204409-6.618794-22.1179103-20.206829-22.1179103-35.898543 0-22.193361 17.9999026-40.187307 40.2081549-40.187307 4.2550098 0 8.3561403.662178 12.2031219 1.882291v-37.82253c-47.6916509.984828-86.047298 39.933158-86.047298 87.834283 0 23.911845 9.5514348 45.588966 25.0535295 61.427609 13.985143 9.385642 30.8205271 14.859773 48.9336054 14.859773 48.5454322 0 87.8998052-39.334518 87.8998052-87.856124V92.8487613h-9.92e-4z"/><path d="M242.074913 76.6308799V66.5145593c-12.438408.0188626-24.632595-3.4627798-35.185734-10.0468267 9.34196 10.2225469 21.643366 17.2712099 35.185734 20.1631473zm-65.543631-65.0601521c-.316693-1.80882595-.559921-3.6295651-.728692-5.45725362V0h-47.833617v189.845313c-.076443 22.128831-18.04557 40.049312-40.208155 40.049312-6.5066109 0-12.6498681-1.543756-18.0902446-4.286778 7.3474865 9.636813 18.9489901 15.857506 32.0078796 15.857506 22.158613 0 40.131711-17.918496 40.209147-40.050305V11.5707278h34.643682zM99.9659254 113.580765v-10.769562c-3.9968897-.546024-8.0265409-.820028-12.0611559-.818053C39.3553659 101.99315 0 141.326686 0 189.845313c0 30.418456 15.4673478 57.226209 38.9711641 72.995359-15.5020947-15.837651-25.0535294-37.515765-25.0535294-61.426616 0-47.900133 38.3546543-86.848463 86.0482907-87.833291z" fill="#00f2ea"/></svg>