<svg width="512px" height="125px" viewBox="0 0 512 125" xmlns="http://www.w3.org/2000/svg" preserveAspectRatio="xMidYMid"><path d="M124.121181 0h67.893465c11.933233 0 23.393887 4.58239776 32.029695 12.7729139l.883186.8601256 25.176126 25.1548393c8.437713 8.4381934 13.321317 19.7823463 13.637516 31.6797699l.016376 1.2326451v52.4209182H217.21209V78.1268868c0-3.8407158-1.442366-7.5346-4.000636-10.3756251l-.565163-.5954799-16.076738-16.0662807c-2.715643-2.7155859-6.343551-4.3204476-10.160893-4.5223598l-.820638-.0216868h-14.921386v77.5757575h-46.545455V0zm201.69697 0v77.5757576h14.920921c3.840716 0 7.534195-1.4237956 10.375166-3.9795905l.595474-.5648905 16.088064-16.0663118c2.716049-2.7155859 4.339485-6.3344615 4.543871-10.1502207l.021958-.8204188V0h46.545455v52.4204528c0 8.5450458-2.384025 16.833287-6.734329 24.0284346l-.703169 1.1268702h22.35845c3.840716 0 7.534195-1.4237956 10.375166-3.9795905l.595474-.5648905 16.088064-16.0663118c2.716049-2.7155859 4.339485-6.3344615 4.543871-10.1502207l.021958-.8204188V0H512v52.4204528c0 11.9332327-4.602318 23.3938579-12.793742 32.029271l-.86015.8831441-25.165731 25.1553051c-8.437743 8.438193-19.792088 13.301864-31.690584 13.616733l-1.232722.016306h-44.620738V94.9479176l-15.546865 15.5402554c-8.437743 8.438193-19.792088 13.301864-31.690584 13.616733l-1.232723.016306h-67.893496V0h46.545486zM108.60603 0v46.5454545H77.5756955v77.5757575H31.030303V46.5454545H0V0h108.60603z" fill="#f42"/></svg>