<svg width="256px" height="230px" viewBox="0 0 256 230" xmlns="http://www.w3.org/2000/svg" preserveAspectRatio="xMidYMid"><path d="M34.404 15.29h23.547V0H34.404c-6.522 0-12.871 1.835-18.363 5.306l8.17 12.925c3.043-1.924 6.568-2.941 10.193-2.941h0zM15.29 34.404c0-2.794.587-5.482 1.744-7.991L3.148 20.012C1.059 24.542 0 29.384 0 34.404v27.064h15.29V34.404h0zM0 76.911h15.29v38.532H0V76.911zm205.901-58.194c4.61-2.919 9.204-5.677 13.753-8.257-2.6-2.678-5.633-4.938-8.941-6.645C205.876 1.319 200.427 0 194.954 0h-13.532v15.29h13.532c4.006 0 7.788 1.211 10.947 3.427h0zM0 130.887h15.29v38.609H0v-38.609zM73.395 0h38.532v15.291H73.395V0zm53.975 0h38.609v15.291H127.37V0zm17.049 214.067h38.532v15.291h-38.532v-15.291zM214.068 86.85h15.291v38.609h-15.291V86.85zm0 54.052h15.291v38.532h-15.291v-38.532zM15.29 194.954v-10.015H0v10.015c0 12.523 6.814 24.067 17.783 30.129l7.395-13.384c-6.099-3.37-9.888-9.786-9.888-16.745h0zM214.068 61.267v10.14h15.29V48.698c-5.026 3.742-10.128 7.936-15.29 12.569h0zm0 133.687c0 9.585-7.153 17.734-16.639 18.956l1.952 15.165c8.231-1.06 15.806-5.078 21.331-11.313 5.575-6.293 8.646-14.393 8.646-22.808v-.076h-15.29v.076h0zM36.315 214.067h38.609v15.291H36.315v-15.291zm54.052 0h38.609v15.291H90.367v-15.291z" fill="#383838"/><path d="M35.015 121.738l71.72 71.72c0 0 71.72-137.979 149.265-168.924L253.088 2.69C210.857 19.437 146.782 63.489 99.454 130.839l-49.876-29.488-14.563 20.387" fill="#af2f2f"/></svg>