<svg width="256px" height="256px" viewBox="0 0 256 256" xmlns="http://www.w3.org/2000/svg" preserveAspectRatio="xMidYMid"><title>Tor Browser</title><defs><linearGradient x1="50%" y1="100%" x2="50%" y2="0%" id="a"><stop stop-color="#420c5d"/><stop stop-color="#951ad1" offset="1"/></linearGradient><linearGradient x1="50%" y1="100%" x2="50%" y2="0%" id="b"><stop stop-color="#420c5d"/><stop stop-color="#951ad1" offset="1"/></linearGradient></defs><circle fill="#f2e4ff" cx="128" cy="128" r="123"/><path d="M128.262572 232.719853v-15.516548c49.150523-.141931 88.947829-40.020847 88.947829-89.206853 0-49.1824585-39.797306-89.0613741-88.947829-89.2033046V23.2765981c57.719576.1454787 104.46083 46.9683429 104.46083 104.7198539 0 57.755059-46.741254 104.581471-104.46083 104.723401zm0-54.309696c27.72257-.145479 50.161778-22.652104 50.161778-50.413706 0-27.758052-22.439208-50.2646775-50.161778-50.410156V62.073294c36.295171.1419305 65.678328 29.5960525 65.678328 65.923157 0 36.330654-29.383157 65.784776-65.678328 65.926707v-15.513001zm0-77.550813c14.870765.141931 26.888728 12.230859 26.888728 27.137107 0 14.909798-12.017963 26.998726-26.888728 27.140656v-54.277763zM0 127.996452C0 198.692022 57.30443 256 128 256c70.692022 0 128-57.307978 128-128.003548C256 57.30443 198.692022 0 128 0 57.30443 0 0 57.30443 0 127.996452z" fill="url(#a)"/><path d="M12.5 14.5c63.7888885 0 115.5 51.487254 115.5 115 0 63.512746-51.7111115 115-115.5 115v-230z" fill="url(#b)" transform="matrix(-1 0 0 1 140.5 0)"/></svg>