<svg width="512px" height="310px" viewBox="0 0 512 310" xmlns="http://www.w3.org/2000/svg" preserveAspectRatio="xMidYMid"><path d="M288.4362 23.1020749l-8.153674 32.6146939C291.833564 32.614694 310.519065 15.2881378 331.922458 0c-15.627874 18.006029-29.896803 36.0120579-38.390212 54.3578233 14.608665-20.7239202 34.313375-31.9352212 56.396241-39.7491583-29.557066 26.1597024-52.998877 54.6975596-70.66517 82.8956805l-14.268929-6.1152552c2.378155-22.7623384 10.871565-45.8644133 23.441812-68.2870154h0z" fill="#68b044"/><path d="M250.72546 85.2738352l26.839175 11.2113011c0 6.7947277-.679473 27.8583847 3.7371 33.9736397 44.845205 57.755187 37.371004 173.945034-9.172882 176.662925-70.665171 0-97.844082-47.902831-97.844082-92.068563 0-40.428631 48.242568-66.92807 77.120162-90.709617 7.813937-6.454992 6.454991-20.72392-.679473-39.0696858h0z" fill="#f5f8de"/><path d="M277.564635 96.1453999l9.852355 5.0960461c-1.019209 6.454991.339737 20.72392 6.794728 24.121284 28.537858 17.666292 55.037296 36.691531 65.569125 56.056505 37.371003 67.607543-26.159703 130.458776-81.536735 124.343521 29.896803-22.082866 38.729949-67.607543 27.518648-117.548793-4.416573-19.364975-11.551038-37.031267-24.121284-57.075714-5.435783-9.172883-3.397364-21.403393-4.076837-34.9928491h0z" fill="#7e4798"/><path d="M248.687041 78.8180759l44.505468 18.3457654c-6.115255 19.7047107 11.551038 33.6339027 17.326556 36.6915307 12.909983 7.134464 25.140494 14.608665 34.992849 23.441811 18.685502 16.98682 29.21733 40.768368 29.21733 65.569125 0 24.800756-11.211301 48.92204-30.576276 64.889651-18.006028 14.948401-43.146522 21.403393-67.267806 21.403393-14.948401 0-28.537857-.679473-43.146522-5.435782-33.633903-11.211301-58.43466-39.749159-60.473078-74.062535-2.038419-26.499438 4.076836-46.883622 24.800756-68.287015 10.531829-11.211301 32.274958-24.121284 47.223359-34.313376 7.474201-4.756309 15.288138-19.025238.339737-45.8644133h0l3.057627-2.3781548zm3.397364 7.1344643c1.698682 2.3781548 5.775519 12.5702466 6.794728 15.6278738 2.038419 8.49341 1.019209 16.647084-.679473 20.384184-9.172882 16.98682-25.480229 21.743129-37.031267 31.255748-2.279631 1.868551-4.579816 3.691882-6.865285 5.519283l-1.244947.997464c-18.024432 14.477672-34.72713 29.770498-32.658135 70.263679 1.358946 22.762338 19.025238 50.960459 45.864413 63.870442 5.110681 2.498555 10.449156 4.465592 15.951967 6.015334-6.567491-2.892054-12.163642-6.486129-16.63144-11.450348 0-.339737-1.698681-1.698682-1.698681-1.698682-9.51262-10.871565-21.403393-29.21733-25.48023-46.543887-1.698682-6.794727-3.057628-12.23051-1.019209-19.364974 7.110682-25.35113 21.817429-36.91681 37.207822-47.497815l1.015668-.696358c.169419-.115867.338902-.231649.50844-.347363l1.52708-1.040052c.509357-.346378 1.018962-.692604 1.528566-1.039135 3.737101-2.378155 8.49341-4.756309 12.230511-7.813937 6.168897-4.023194 9.79683-14.822294 12.889823-25.543382l.307591-1.071595c.713897-2.498597 1.40231-4.980508 2.090723-7.358663-2.038418 10.531829-4.416573 29.557067-13.589455 36.691531-3.737101 2.717891-7.813938 5.435782-11.890774 8.153674l-1.497091 1.007641c-16.120484 10.850246-31.681566 21.540663-38.93154 47.574663-1.698682 5.775519-.339737 11.890774 1.019209 17.666293 4.076837 16.647083 15.627874 34.313376 24.800757 44.845204 0 .139891.288012.45259.626849.795784l.297347.298315c.398307.39886.774486.784443.774486.944319 6.57021 7.764794 9.202541 10.804133 29.128137 15.810444-4.881239-1.989358-9.556648-4.352661-12.82079-6.637561-16.307347-11.211301-24.461021-25.140493-25.819966-45.864413-1.01921-16.307347 8.833146-32.954431 28.19812-43.146523 13.24972-7.134464 17.326557-17.666292 21.403393-30.576275-3.057627 14.948401-6.454991 23.781547-20.044447 31.935221-16.307347 9.172883-27.858384 27.858384-26.839175 40.428631 1.358945 15.288138 11.890774 32.95443 24.121284 43.486259 4.93285 4.384756 12.739472 7.443156 20.38848 9.353517-2.000938-1.578356-4.195348-3.836785-6.119552-6.635626-2.378154-3.397364-4.076836-8.153674-5.775518-12.570247-1.698682-4.076837-3.397364-8.833146-3.397364-12.909983 0-9.852355 1.019209-22.082866 8.153673-30.236539 6.454992-7.474201 8.49341-8.49341 11.211301-17.326556-2.038418 9.852355-3.397364 10.531828-9.512619 19.364974-7.813937 10.871565-8.153673 21.74313-7.134464 28.537857.679473 4.416574 2.378155 8.49341 3.7371 11.890774 1.698682 4.416573 3.737101 8.49341 6.454992 12.230511 2.378155 2.717891 3.7371 4.416573 7.134464 6.115255 3.7371-7.134465 6.115255-21.403393 6.454992-29.21733.339736-6.794728.679472-14.608665-.339737-22.422602-1.358945-10.531829-4.416573-20.723921-4.756309-28.877594 1.698682 7.474201 5.435782 18.006029 7.4742 28.198121 1.698682 8.153673 2.038419 15.96761 1.358946 22.082865-.679473 7.134465-1.019209 12.909984-2.038418 19.025239-.93483 4.674148-3.29872 9.062485-7.09167 13.68931 8.597806-5.481859 13.581139-15.210794 15.924816-26.259557 3.057627-13.589456 3.397364-26.499439 3.397364-33.294167 0-4.835318-1.699233-12.007081-3.586173-19.164026l-.33463-1.262358c-.391957-1.471455-.788102-2.936419-1.175243-4.374373-1.698682-6.794728-8.153674-13.589455-9.852356-18.685501-3.057627-8.49341-1.698682-14.608665-2.038418-26.499439 1.358946 10.871564 1.358946 20.384184 4.416573 25.480229 2.378155 4.416574 6.454992 10.531829 8.833146 16.647084 4.75631 11.211301 7.134465 23.441811 7.474201 29.21733.339737 9.852355-1.019209 25.140493-4.416573 37.371003-1.263432 4.106155-2.88578 7.918652-4.705254 11.255479 3.852422-5.938735 6.796871-12.913751 8.102618-19.069416.220829-1.036196.439109-2.075789.654205-3.117463l.320175-1.563908c3.917399-19.303381 6.635715-39.093663 4.121666-51.035398-.679473-3.057627-1.698682-13.249719-5.775519-24.121284-5.775519-15.96761-14.268928-28.877593-15.288138-31.935221-3.242938-8.431639-4.009451-28.935854-4.367916-41.124344l-.0074-.282407c.103056 3.001189.305879 6.279708.58373 9.622187l.090208 1.057398c.061762.706017.126735 1.413873.194686 2.121578l.104133 1.061195c.017719.176764.035616.353456.053689.530046l.110511 1.058054c1.088063 10.211126 2.741822 19.867172 4.257569 22.898666 1.019209 3.057627 10.192091 17.666292 16.647083 32.95443 4.416573 9.852355 5.775519 19.364974 6.115255 22.082866 3.397364 28.537857.679473 40.428631-6.794728 65.90886-.902975 3.125684-2.132576 6.109356-3.561052 8.881334 4.297747-5.513424 7.462279-11.426908 8.657098-16.355534 7.134464-31.595485 9.852356-72.363853-.339736-103.619601-5.435783-16.307347-18.345766-30.576275-20.72392-40.428631-2.038419-9.172883-2.038419-18.685502-1.358946-30.9160119h0l3.397364 1.6986819c-1.698682 3.7371-.679473 22.762339 2.038418 29.896803 3.397364 9.512619 13.24972 20.384184 19.364975 35.672321 1.5458 3.567232 3.091601 8.882408 4.462607 14.401511l.233285.947842c.115754.474631.23015.950112.343078 1.425472l.223867.950267c2.144503 9.178769 3.712998 18.069535 3.910046 19.645912 3.397363 28.537857 1.698681 55.377032-6.794728 78.139371-4.014694 10.538571-12.477073 20.150541-18.680432 24.592892 16.508583-2.228169 39.260131-10.664604 52.993808-21.875769 17.666292-14.608665 27.178911-37.031267 27.178911-59.793605 0-22.762339-8.833146-44.505468-26.159702-59.793606-9.852356-8.833146-25.819966-19.704711-36.012058-25.48023-10.192092-5.775518-22.762339-21.743129-18.685502-37.031267h0z" fill="#010101"/><g style="fill:#7e4798"><path d="M12.909983 29.896035h183.79739c6.794728 0 12.909983 5.7755187 12.909983 12.909983v54.3578233c0 7.1344647-6.115255 12.9099827-12.909983 12.9099827h-37.71074c-8.49341 0-12.23051 4.75631-12.23051 10.192092v177.682135c0 6.115255-4.75631 10.531828-10.531828 10.531828H73.7227978c-5.7755187 0-10.1920919-4.416573-10.1920919-10.531828V118.567234c0-5.435782-5.0960459-8.833146-8.8331463-8.833146H12.909983C5.77551872 109.734088 0 103.958569 0 96.8241049V42.4662816C0 35.6715537 5.77551872 29.896035 12.909983 29.896035z"/><path d="M484.4641 101.920151h16.307347c6.115255 0 10.871564 4.756309 10.871564 10.531828v58.094924c0 7.4742.339737 10.531828-8.833146 10.531828-18.006029 0-26.159702 9.512619-26.159702 20.044447v98.183818c0 4.416574-4.416573 8.49341-9.512619 8.49341h-58.43466c-5.096046 0-9.512619-3.7371-9.512619-8.49341V187.533722c0-2.038418 0-4.756309.339736-6.454991 3.057627-41.44784 35.672321-74.402271 76.780425-78.818844 1.019209 0 5.775519-.339736 8.153674-.339736h0z"/></g></svg>