<svg width="512px" height="120px" viewBox="0 0 512 120" xmlns="http://www.w3.org/2000/svg" preserveAspectRatio="xMidYMid"><path d="M387.034114 39.2822214c7.702166 0 15.512621 2.784869 19.79202 6.911259l-10.165391 11.3452831c-2.031139-2.4756187-5.777164-4.1242351-9.304988-4.1242351-7.277078 0-12.305357 6.1876995-12.305357 13.2034786 0 7.1165282 4.815466 13.0989588 12.517632 13.0989588 3.531056 0 7.382676-1.3415214 9.522647-3.8166013l9.735457 11.4498032c-4.38823 4.1269291-11.875428 6.60147-19.685883 6.60147-16.797031 0-29.848579-10.313012-29.848579-27.3336307 0-16.8148107 13.051548-27.3357856 29.742442-27.3357856zm-121.355307 0c17.867016 0 24.499195 8.4575105 24.499195 27.1283618V92.30356h-16.046534v-5.4679114h-.321103c-2.6755 4.2287552-8.665473 6.7043739-15.084841 6.7043739-8.559337 0-19.364779-4.0240252-19.364779-16.0912516 0-14.854789 18.722573-17.3298686 34.234654-17.3298686v-.8243082c0-5.0557575-4.170569-7.4284722-9.626628-7.4284722-5.02828 0-9.844288 2.3727147-13.160377 5.2604873l-8.879901-9.1794535c6.312692-5.7777004 15.084841-8.6649343 23.750314-8.6649343zm59.093581 0c17.867018 0 24.498658 8.4575105 24.498658 27.1283618V92.30356h-16.045995v-5.4679114h-.321644c-2.675499 4.2287552-8.665474 6.7043739-15.08484 6.7043739-8.558798 0-19.36424-4.0240252-19.36424-16.0912516 0-14.854789 18.722033-17.3298686 34.234653-17.3298686v-.8243082c0-5.0557575-4.171106-7.4284722-9.626629-7.4284722-5.028279 0-9.844286 2.3727147-13.160376 5.2604873l-8.88044-9.1794535c6.313231-5.7777004 15.08538-8.6649343 23.750853-8.6649343zM176.393993 27.4195096v13.5132677h12.517633v12.6868045h-12.517633v19.6002184c0 4.8483333 1.606054 7.2188931 6.634873 7.2188931 1.497695 0 3.321671-.2371823 4.61508-.6411655l.519337-.1831428.214967 12.3791704c-2.461072.8237695-6.419368 1.5462516-10.165391 1.5462516-13.918372 0-18.725687-6.910502-18.928123-17.5427833l-.006723-.7142975V53.6195818h-8.559337V41.5836036c3.51651-.2332844 6.779801-.9622316 8.666551-2.938955 2.272404-2.1693653 2.896475-6.1565839 3.013108-10.2578624l.013666-.9645827h0l13.981992-.0026939zm255.139592-8.163748v43.6988685h.319371l17.010492-22.0204102h21.291343l-20.54292 24.3914916 21.3978 26.9787124h-21.71717l-17.439545-23.4688667h-.319371v23.4688667h-17.652459V19.2557616h17.652459zM231.879098 39.488891c1.391087 0 2.888311.1029039 3.743329.412693l-.748882 14.852095c-1.60336-.4121539-3.100584-.5145191-4.491672-.5145191-9.414893 0-12.518171 7.4257781-12.518171 11.6572274v26.4069572h-17.543219V40.933316h16.901013v7.4257785h.214966c2.673345-5.2604876 7.916592-8.8702035 14.442636-8.8702035zm276.377035 0c1.391086 0 2.888849.1029039 3.743867.412693l-.748881 14.852095c-1.6039-.4121539-3.101123-.5145191-4.492212-.5145191-9.414355 0-12.517632 7.4257781-12.517632 11.6572274v26.4069572h-17.543757V40.933316h16.901013v7.4257785h.215504c2.673347-5.2604876 7.916592-8.8702035 14.442098-8.8702035zM274.131468 71.6716092v-1.7536753h-2.246105c-7.704319 0-16.369792.9293671-16.369792 7.0141629 0 3.9211212 4.064971 5.2599486 7.596027 5.2599486 7.16825 0 11.01987-4.0218699 11.01987-10.5204362zm59.093583 0v-1.7536753h-2.246107c-7.704318 0-16.369792.9293671-16.369792 7.0141629 0 3.9211212 4.064432 5.2599486 7.595489 5.2599486 7.168248 0 11.02041-4.0218699 11.02041-10.5204362zM53.1529588 78.0814951c4.3823026.0571089 8.7651442.60557 11.0785951 3.030545 2.4244359 2.3129118 3.0300062 6.6952147 3.0300062 11.0775176v13.0143733h0c-.0285543 4.382841-.606109 8.764605-3.0300062 11.078595-2.3134509 2.423897-6.6962925 2.972358-11.0785951 3.029467-4.3828417-.057109-8.7656834-.60557-11.0780565-3.029467-2.273414-2.169366-2.9226451-6.156111-3.0188906-10.25733l-.0262011-4.918243c-.0040856-2.7413142-.0010214-5.8516087.0091926-8.0394514l.0048152-.8774051c.0290933-4.3828417.606109-8.7651446 3.0310839-11.0780564 2.3129119-2.424975 6.6952148-2.9734361 11.0780565-3.030545zm39.0374609-38.4934716c4.382303.0576476 8.7651443.606109 11.0785953 3.0305452 2.423897 2.3129118 3.030006 6.6952148 3.030006 11.0780564v13.0138338h0c-.029093 4.3828416-.606109 8.7651446-3.030006 11.0791339-2.313451 2.4238974-6.6962923 2.9718198-11.0785953 3.0294677-4.3828417-.0576479-8.7656833-.6055703-11.0785951-3.0294677-2.272909-2.169365-2.9221085-6.1565838-3.0183518-10.2578623l-.0265603-4.9182492c-.0041904-2.7413138-.0010476-5.8516083.0094284-8.039451l.0049387-.8774052c.029093-4.3828416.6061088-8.7651446 3.030545-11.0780564 2.3129118-2.4244362 6.6957534-2.9728976 11.0785951-3.0305452zm-39.0406398-.5474376c4.3823029.0571089 8.7651446.6061091 11.0785952 3.030545 2.4244362 2.3129121 2.9723585 6.6957535 3.0300065 11.0780564-.057648 4.3823029-.6061091 8.7651446-3.0300065 11.0791339-2.3139893 2.4238974-6.6962923 2.9723586-11.0791339 3.0294678-4.382303-.0571092-8.7651443-.6055704-11.0775177-3.0294678-2.4249746-2.3139893-2.9734361-6.6962922-3.0310837-11.0791339.0576476-4.3823029.6061091-8.7651443 3.0310837-11.0780564 2.3123734-2.4244359 6.6952147-2.9728974 11.0780564-3.030545zM131.231275 0c4.382303.057108938 8.765144.605570246 11.078595 3.03054506 2.424436 2.31291197 2.972359 6.69521481 3.030006 11.07805644-.057647 4.3823028-.606109 8.7651444-3.030006 11.0785952-2.313989 2.424436-6.696292 2.9728973-11.079134 3.0300063-4.382303-.057109-8.765144-.6055703-11.077517-3.0300063-2.424975-2.312912-2.973436-6.6957536-3.031084-11.0785952.057648-4.38284163.606109-8.76514447 3.031084-11.07805644C122.465592.605570246 126.848433.057108938 131.231275 0zM92.1901503 0c4.3828417.057108938 8.7651447.605570246 11.0791337 3.03054506 2.423898 2.31291197 2.972359 6.69521481 3.030007 11.07805644-.057648 4.3823028-.606109 8.7651444-3.030007 11.0785952-2.313989 2.424436-6.6968307 2.9728973-11.0791337 3.0300063-4.3828416-.057109-8.7651446-.6055703-11.0780564-3.0300063-2.4244362-2.312912-2.973436-6.6957536-3.0305449-11.0785952.0571089-4.38284163.60557-8.76514447 3.0305449-11.07805644C83.4250057.605570246 87.8078474.057108938 92.1901503 0zM53.1497799 0c4.3823029.057108938 8.7651446.605570246 11.0785952 3.03054506 2.4244362 2.31291197 2.9723585 6.69521481 3.0300065 11.07805644-.057648 4.3823028-.6061091 8.7651444-3.0300065 11.0785952-2.3139893 2.424436-6.6962923 2.9728973-11.0791339 3.0300063-4.382303-.057109-8.7651443-.6055703-11.0775177-3.0300063-2.4249746-2.312912-2.9734361-6.6957536-3.0310837-11.0785952.0576476-4.38284163.6061091-8.76514447 3.0310837-11.07805644C44.3840969.605570246 48.7669382.057108938 53.1497799 0zM14.1086015 0c4.3828416.057108938 8.7651444.605570246 11.0791339 3.03054506 2.4238973 2.31291197 2.9723586 6.69521481 3.0300063 11.07805644-.0576477 4.3823028-.606109 8.7651444-3.0300063 11.0785952-2.3139895 2.424436-6.6968311 2.9728973-11.0791339 3.0300063-4.38284163-.057109-8.76514447-.6055703-11.07805644-3.0300063C.60610901 22.8742847.057108938 18.4914431 4.26325641e-14 14.1086015.057108938 9.72575987.605570246 5.34345703 3.03054506 3.03054506 5.34345703.605570246 9.72629864.057108938 14.1086015 0z" fill="#250e62"/></svg>