<svg width="256px" height="174px" viewBox="0 0 256 174" xmlns="http://www.w3.org/2000/svg" preserveAspectRatio="xMidYMid"><defs><linearGradient x1="28.0276375%" y1="64.7748416%" x2="65.9335499%" y2="20.3838598%" id="a"><stop stop-color="#85f" offset="0%"/><stop stop-color="#00b6ff" offset="100%"/></linearGradient><linearGradient x1="49.1979953%" y1="50.8639512%" x2="57.1260448%" y2="43.3468532%" id="b"><stop stop-color="#fff" offset="7%"/><stop stop-color="#009fff" offset="89%"/></linearGradient><linearGradient x1="19.3675746%" y1="222.565203%" x2="129.608939%" y2="308.847796%" id="c"><stop stop-color="#fff" offset="7%"/><stop stop-color="#009fff" offset="89%"/></linearGradient><linearGradient x1="11.0147792%" y1="39.4618813%" x2="75.4298469%" y2="63.2664677%" id="d"><stop stop-color="#4036c1" offset="0%"/><stop stop-color="#539eff" offset="98%"/></linearGradient></defs><path d="M136.783412 169.367928 252.361179 53.7726222c2.330499-2.3231973 3.640375-5.4785143 3.640375-8.7691781 0-3.2906639-1.309876-6.4459809-3.640375-8.7691781h0L222.002285 5.85783313c-3.740147-3.75201423-8.820613-5.85993434184-14.118377-5.8578125606095H48.2848669c-5.3023036 0-10.3870934 2.1080444406095-14.1359151 5.8578125606095L3.68482719 36.2868811C1.35879123 38.5659311.0335189273 41.6757481 0 44.932039c-.0322647266 3.2562909 1.22991899 6.3922439 3.50944363 8.7178147l.17538356.1753835L119.262594 169.420543c2.323198 2.330498 5.478515 3.640374 8.769178 3.640374 3.290664 0 6.445981-1.309876 8.769178-3.640374l-.017538-.052615z" fill="url(#a)"/><path d="M33.219419 6.78736601C37.3934586 2.59262355 43.4013883.785628232 49.1968614 1.98185642L249.905809 42.6883811c3.316919.6860696 5.456478 3.922838 4.787972 7.2433411-.08327.4164607-.212683.8223468-.385844 1.2101465 2.825354-4.8319573 2.024682-10.9632267-1.946758-14.9076027L222.002285 5.85783313c-3.740147-3.75201423-8.820613-5.85993434184-14.118377-5.8578125606095H48.2848669C42.9825633 9.68523605e-4 37.8977735 2.10806501 34.1489518 5.85783313l-.9295328.92953288z" fill="url(#b)" opacity="0.400000006"/><path d="M211.794961 8.89196875 200.114416 32.6213646l49.791393 10.0670165c3.316919.6860696 5.456478 3.922838 4.787972 7.2433411-.08327.4164607-.212683.8223468-.385844 1.2101465 2.825354-4.8319573 2.024682-10.9632267-1.946758-14.9076027L222.002285 5.85783313C218.262138 2.1058189 213.181672-.00210121184 207.883908 0h-1.543375c2.126489-.00569817817 4.102656 1.09580347 5.216148 2.90746631 1.113493 1.81166285 1.203766 4.07228091.23828 5.96696408v.01753836z" fill="url(#c)" opacity="0.400000006"/><path d="M254.307937 51.2120222c1.344312-3.1092922-.084205-6.7198299-3.191981-8.0676439-.3878-.173161-.793686-.302574-1.210147-.3858438l-49.791393-10.1371699-66.99652 135.2031874c-1.791449 3.619677-5.945765 5.403283-9.803941 4.209206 4.616471 1.910166 9.928624.858802 13.469457-2.66583L252.361179 53.7726222c.769785-.7545008 1.425586-1.6170859 1.946758-2.5606h0z" fill="url(#d)"/></svg>