<svg width="256px" height="279px" viewBox="0 0 256 279" xmlns="http://www.w3.org/2000/svg" preserveAspectRatio="xMidYMid"><title>Treehouse</title><path d="M225.627119 50.9830508c-9.545763-5.2067796-24.298305 3.4711865-32.976272 19.0915255l-16.488135 27.7694915c-6.074576 11.2813562-5.20678 25.1661012 2.60339 36.4474572l.867796.867797c7.81017 10.413559 17.355933 20.827119 20.827119 24.298305 1.735593 1.735593 3.471186 4.338983 4.338983 7.81017 2.60339 9.545762-2.60339 19.959322-13.016949 22.562711-9.545763 2.60339-19.959322-2.603389-22.562712-13.016949-.867797-2.60339-.867797-5.206779-.867797-6.942373.867797-4.338983-.867796-10.413559-6.942373-17.355932-6.074576-6.074576-17.355932 6.074577-21.694915 18.223729v.867797c-3.471186 12.149152-6.074576 23.430508-5.206779 24.298305 0 .867796.867796.867796.867796 1.735593 5.20678 10.413559 1.735593 22.562712-8.677966 27.769491-10.413559 5.20678-22.562712 1.735594-27.7694914-8.677966-5.2067797-10.413559-1.7355933-22.562711 8.6779664-27.769491.867796 0 .867796-.867797 1.735593-.867797.867796 0 2.60339-5.206779 5.20678-12.149152 1.735593-6.074577 2.603389-8.677966 3.471186-11.281356.867797-3.471187 2.60339-12.149153 1.735593-15.620339-.867796-4.338983-5.206779-4.338983-9.545763-1.735593-2.603389 1.735593-7.810169 6.074576-9.545762 7.810169-4.3389833 3.471187-7.8101697 8.677966-9.5457629 13.016949-.8677966 1.735593-2.6033899 4.338983-4.3389831 6.074576-7.8101695 6.074577-19.0915254 5.20678-26.0338983-2.603389-6.0745763-7.81017-5.2067796-19.091526 2.6033898-26.033899 2.6033899-1.735593 5.2067797-3.471186 7.8101695-3.471186 4.3389831-.867797 19.9593221-10.413559 29.505085-17.355932 1.735593-.867797 4.338983-3.471187 5.206779-4.338983 2.60339-3.471187 0-6.074577-2.603389-6.074577-7.8101699.867797-16.488136 1.735594-18.2237292 4.338983-.8677966.867797-1.7355932 2.60339-3.4711864 3.471187-6.9423729 5.20678-17.3559322 3.471186-22.5627119-3.471187-5.2067797-6.942372-3.4711864-17.355932 3.4711864-22.5627114 2.6033899-2.6033899 6.9423729-3.4711865 9.5457627-3.4711865 6.0745763 0 21.6949153 3.4711865 33.8440674.8677966l3.471187-.8677966c13.016949-2.6033898 28.637288-13.8847457 34.711864-25.1661017 0 0 6.074577-10.4135593 13.016949-23.4305084 7.81017-13.0169492 6.942373-27.7694916-.867796-32.1084746l-14.752543-8.67796611c-7.810169-4.33898305-19.091525-4.33898305-26.901694 0L13.8847458 60.5288136C6.07457627 64.8677966 0 75.2813559 0 83.959322v111.077966c0 8.677966 6.07457627 19.091526 13.8847458 23.430509l100.6644072 57.274576c7.810169 4.338983 19.959322 4.338983 26.901694 0l100.664407-57.274576C249.925424 214.128814 256 203.715254 256 195.037288V83.959322c0-8.6779661-6.074576-19.0915254-13.884746-23.4305084 0 0-6.942373-4.3389831-16.488135-9.5457628z" fill="#5fcf80"/></svg>