<svg width="256px" height="305px" viewBox="0 0 256 305" xmlns="http://www.w3.org/2000/svg" preserveAspectRatio="xMidYMid"><title>tRPC</title><g style="fill:#398ccb"><path d="M28.5708704 244.484126h21.9814398v11.153268H28.5708704v25.307414c-.0443362 1.816072.2047732 3.627393.7377161 5.364072.403519 1.289155 1.1210553 2.457836 2.0881118 3.400996.9320962.877969 2.0656527 1.513448 3.300967 1.850542 1.234332.329421 2.5031413.509108 3.7790799.535662l.5471876.001996c1.150337 0 2.338185 0 3.563544-.162548l.7266129-.089926h0l1.4088127-.159447c.4613352-.054216.9154682-.113233 1.3656001-.188255l.6595932-.104731h0l1.2417638-.184254c.4003173-.060618.7894313-.123636 1.1745441-.198658l.9178615-.18385c.1456446-.030102.2877001-.059972.4262823-.089668l.7907409-.176556c.1251525-.029233.2470632-.058408.365848-.087584l1.4754322 10.390544c-1.1875822.670061-2.445586 1.206809-3.7510989 1.600469-1.4791334.467545-2.9868668.839258-4.5138224 1.112826-1.6004689.300088-3.2634561.525154-5.0014653.687702-1.7380092.162548-3.4135001.237569-5.0889909.237569-2.9649105.042759-5.9182227-.379143-8.7525643-1.250366-2.5256065-.786534-4.8302488-2.157325-6.7269707-4.001172-1.9538877-1.91297-3.4277401-4.260851-4.3012602-6.852007-1.0868023-3.220112-1.6030358-6.60525-1.5254469-10.002931v-26.757839H0v-11.153268h13.4414379v-14.416723h15.1294325v14.416723zm53.8782846 29.271076v29.608674h-15.29198v-79.235713h26.6202989c4.025372-.049977 8.0374381.472055 11.9159911 1.550454 3.311413.914294 6.415007 2.459722 9.140178 4.551333 2.506221 1.997553 4.49237 4.571396 5.789196 7.502198 1.423645 3.257879 2.12328 6.785919 2.0506 10.34053.033342 2.58214-.307804 5.155478-1.012796 7.639738-1.208335 4.318904-3.810792 8.117085-7.402169 10.803165-1.827947 1.383836-3.808033 2.554268-5.901729 3.488522l17.029989 32.697079v.712709h-16.442317l-14.9043662-29.658689H82.449155zm.0125037-12.428641h11.3158152c2.1268741.041389 4.2440492-.297359 6.2518311-1.000294 1.679748-.596431 3.186968-1.59695 4.388786-2.913353.936288-1.043551 1.654714-2.263599 2.113119-3.588551.448059-1.358395.691514-2.774863.72325-4.202916l.001963-.535973c.037274-1.902136-.285139-3.794191-.950279-5.576634-.597667-1.552787-1.578354-2.929189-2.850835-4.001172-1.224516-.988131-2.63048-1.727218-4.1387123-2.175637-1.6170447-.471175-3.288307-.726624-4.9704234-.760442l-11.8845146-.002282v24.757254zm67.8448763 42.037315h-15.266973v-79.235713H162.135c3.980261-.056467 7.940137.578128 11.703429 1.875549 3.286892 1.134427 6.31983 2.901517 8.927616 5.201524 2.426328 2.253893 4.344477 4.998977 5.626648 8.052359 1.273211 3.087717 1.947203 6.387369 1.98831 9.722992l-2.27e-4.667552c.035098 3.387326-.642241 6.744202-1.988083 9.852887-1.294449 2.966884-3.213644 5.619638-5.626648 7.777278-2.617001 2.300899-5.664082 4.060302-8.965127 5.176517-3.766305 1.282824-7.725074 1.908783-11.703429 1.850542h-11.803458l.012504 29.058513zm0-41.462147h11.803458c1.934076.038946 3.857436-.296474 5.66416-.987789 1.514622-.594353 2.886626-1.501921 4.026179-2.663281 1.046018-1.120473 1.850413-2.444107 2.363192-3.888639.530247-1.476119.800988-3.032881.800235-4.601348.011539-1.753086-.258649-3.496641-.800235-5.164013-.494591-1.546215-1.298632-2.975623-2.363192-4.201231-1.124434-1.219142-2.497405-2.182781-4.026179-2.825828-1.797887-.727336-3.725193-1.080463-5.66416-1.037804h-11.803458v25.369933zm103.042688 27.420533c-1.400167 3.08965-3.407171 5.866288-5.901729 8.164892-2.565399 2.299822-5.561605 4.067796-8.815082 5.201524-3.401509 1.165164-6.966194 1.777055-10.558228 1.813937l-.770091-9.06e-4c-3.062977.036299-6.114195-.38514-9.052652-1.250366-2.686863-.801927-5.22203-2.044159-7.502198-3.676077-2.063009-1.516705-3.887846-3.333114-5.414086-5.389079-1.606821-2.153558-2.950099-4.491701-4.001172-6.96454-1.095777-2.700194-1.904626-5.508113-2.413207-8.377454-.577973-3.197474-.862572-6.441072-.850994-9.690339v-10.665625c-.006419-3.054622.24876-6.104217.763468-9.11517.423482-2.443767 1.07658-4.841418 1.950231-7.161162l.337939-.86619c1.105337-2.902047 2.648681-5.617658 4.576341-8.052359 1.825949-2.302976 3.988325-4.317822 6.414379-5.976751 2.179586-1.406609 4.556283-2.48118 7.052066-3.188434 2.435668-.693941 4.950432-1.066749 7.480499-1.109809l.759415-.003017c3.950424-.067624 7.882053.558728 11.615903 1.850542 6.539944 2.24711 11.776194 7.232276 14.341702 13.654 1.438491 3.561555 2.319911 7.323401 2.613266 11.153267h-15.229462c-.089803-2.119403-.442608-4.219435-1.050308-6.251831-.490583-1.639921-1.316618-3.159995-2.42571-4.463808-1.124782-1.184992-2.512559-2.088761-4.051187-2.638273-1.865713-.639733-3.829852-.944513-5.8017-.900264-1.128405-.004006-2.253288.126111-3.350982.387614-.998924.243743-1.958603.626773-2.850835 1.137833-1.529632.935854-2.815245 2.221468-3.751099 3.751099-1.09465 1.752748-1.936525 3.651176-2.500733 5.639152-.493675 1.81076-.836613 3.659278-1.0253 5.526619-.228417 2.159631-.336949 4.330262-.325095 6.501905v10.765654c-.024838 2.830114.146455 5.658548.51265 8.46498.279949 2.221959.817038 4.403881 1.600469 6.501905.470782 1.194532 1.083706 2.328023 1.825535 3.375989.667261.959892 1.486582 1.804553 2.42571 2.500733.988485.731046 2.103268 1.273602 3.288464 1.600469 1.31909.364147 2.682847.54093 4.051187.525154 1.824718.021669 3.64204-.235539 5.389078-.762724 1.531002-.471488 2.930968-1.293487 4.088698-2.400703 1.188467-1.180607 2.098359-2.611658 2.663281-4.188727.72312-1.976241 1.144632-4.050077 1.250366-6.151803H256c-.220664 3.707975-1.119101 7.344102-2.650777 10.728143z"/><path d="M186.379603 92.4020709l38.486276 22.2190091v44.463027l-38.486276 22.219009-17.085005-9.880394-41.544671 23.984526-41.2958487-23.846986-16.8461854 9.742854-38.4862752-22.25652V114.62108l38.4862752-22.2190091L108.094168 114.62108v44.425516l-11.6434109 6.733222 31.2991699 18.074045 31.547992-18.211585-11.404591-6.595682V114.62108l38.486275-22.2190091zm-28.483344 33.7974021v27.120445l23.481879 13.553971v-27.120446l-23.481879-13.55397zm56.966689-.037511-23.481879 13.55397v27.157957l23.481879-13.591482v-27.120445zm-173.7383998 0v27.120445l23.4818795 13.553971v-27.120446l-23.4818795-13.55397zm56.9666895 0-23.4818795 13.55397v27.120446l23.4818795-13.553971v-27.120445zm88.2883653-22.181499-23.481879 13.553971 23.481879 13.566474 23.48188-13.566474-23.48188-13.553971zm-116.7717101-.037511-23.4818794 13.591482 23.4818794 13.528963 23.4818795-13.528963-23.4818795-13.591482zm19.1431084-68.9201914v11.5408811L53.1405685 67.1321676v34.7726874l-10.0029305 5.776692V61.3554752l45.6133633-26.3327146zM127.237277 0l38.511282 22.2190095v12.2185796l46.613656 26.9178861v46.0384878l-10.00293-5.776692V67.1321676l-36.610726-21.1411937v20.6660545l-38.486275 22.2190095-38.4862754-22.2190095V22.2190095L127.237277 0zM98.7789391 33.7598906V60.880336l23.4568719 13.5539709V47.3263651L98.7789391 33.7598906zm56.9416819 0-23.456872 13.5664745v27.0954382l23.456872-13.5414673V33.7598906zm-28.483344-22.2065058-23.456873 13.5539709 23.456873 13.5539709 23.481879-13.5539709-23.481879-13.5539709z"/></g></svg>