<svg width="256px" height="253px" viewBox="0 0 256 253" xmlns="http://www.w3.org/2000/svg" preserveAspectRatio="xMidYMid"><title>Truffle</title><ellipse fill="#5e464d" cx="127.696033" cy="126.423287" rx="124.962748" ry="126.423287"/><g style="fill:#fff"><path d="M88.3976254 238.525864c5.1118874 1.74522 22.2794126 7.327451 23.0096816 1.868995.396079-2.995344-8.664216-6.064951-20.9302697-12.563113-17.4455701-9.220179-33.4052999-21.011603-47.3437512-34.978678-20.3449356-19.948757-32.0435175-47.0884-32.5774517-75.576717-1.03970594-38.2463246 13.9122552-69.1651979 38.5062509-89.1176493C18.9866115 51.3720631.979967527 86.9079021.0473782319 124.888483-.682891393 152.552087 7.05301565 175.858828 21.5841435 197.073779c4.5122201 5.827937 9.7867859 11.023406 15.6822307 15.447059 13.9246327 10.533211 34.2855401 20.274266 51.1312512 25.992648"/><path d="M254.379247 97.4476739c-7.748284-36.4392166-31.834805-61.9491436-64.05331-79.9707127 24.693015 17.5388485 59.349879 54.8321092 38.865197 87.7313748-17.328432 26.351594-59.411766 21.190196-82.495713 8.664216-27.378922-14.8529418-61.6397074-48.2720602-27.849265-80.9361542 21.908088-21.1406867 91.593139 2.5621325 79.327085 34.1617656-7.154167 18.3805151-35.003432 14.2959562-47.529413 5.3099266-9.233579-6.6343139-17.006618-18.0339465-12.884927-29.8049027 1.31201-3.7751226 1.126348-9.6296571-4.208333-5.3223041-3.93603 3.2181374-5.978309 8.5156865-6.671447 13.466667-5.829779 41.2045353 67.580884 73.1507368 89.365199 33.2829665 11.300613-20.6950985-7.018015-50.7475502-30.077207-63.0507368-17.328432-9.2830884-35.362378-15.80600527-57.468506-14.2216915-35.350001 2.47549025-65.0063743 24.631128-68.7319871 60.7485309-3.7132354 35.8946087 20.2866426 68.1997567 48.5443641 87.5209577 29.705883 20.29902 69.635541 33.679045 106.173777 21.573898 32.750736-10.855025 46.27929-48.445344 39.694486-79.1290462"/></g><path d="M208.285619 69.5365213c3.515196-23.6161771-17.835908-39.8306382-37.553188-47.1952217-23.244853-8.6642159-53.95331-4.8767158-70.8856631 14.3702209-12.3774513 14.1350493-11.572917 34.6568636-5.1861521 51.2674032 9.6544122 25.0890933 31.4511032 43.2220603 56.8248792 51.0569863 18.033946 5.569853 39.830638 7.995834 58.099756 2.116544 26.648653-8.577573 35.325246-36.364951 29.81728-61.8253688-1.179277-5.5040443-2.990125-10.8535202-5.396569-15.9421572-3.366666-7.0675247-13.677083-21.3758584.532231-3.948407 1.489453 1.9422218 2.861664 3.9716058 4.109313 6.0773286 2.931165 4.8151041 5.255159 9.9744539 6.918996 15.360417 7.748284 23.7647064 1.670956 51.4901974-19.803922 65.8356634-16.474388 10.978799-37.417035 12.290809-56.52782 9.543015-25.621324-3.713235-49.769732-16.090687-66.553556-36.006006-15.3232845-18.157721-25.7822308-44.2370107-19.4821081-68.0759819 4.6167893-17.4398288 18.7765931-30.4609076 35.7337021-35.8946087 21.450123-6.94375014 45.0663-3.7132354 64.362746 7.5626228 9.679167 5.6317403 18.566177 13.4295346 23.517158 23.6533094 2.239306 4.60571 3.443341 9.645756 3.527573 14.7662993.049226 2.0739365-.112512 4.147505-.48272 6.1887257-.136152.742647-1.708088 2.8344363-1.485294 1.1139706" fill="#3fe0c5"/></svg>