<svg width="256px" height="202px" viewBox="0 0 256 202" xmlns="http://www.w3.org/2000/svg" preserveAspectRatio="xMidYMid"><title>tsmc</title><path d="M93.6196398 181.678556l38.5487592.292469h39.744357c32.927066-14.868289 56.025455-48.146889 56.025455-86.5737066 0-52.2576521-42.651901-94.915268377-94.792375-94.915268377-52.2662257 0-94.943848 42.655710977-94.943848 94.915268377-.0028581 38.2172306 22.7344698 71.3357816 55.4176518 86.2812376z" fill="#fff"/><path d="M133.141073 0c1.410963 0 2.83304.0341794152 4.26716.1015627 2.489109.109938422 4.953461.317480133 7.390023.61795746l.09553.014327379h0c.34469.040368849.688182.085007975 1.031108.131489843l.244561.035259529c2.362908.324799009 4.698355.738797519 7.003403 1.236881199 1.492513.31316793 2.988627.67357217 4.487128 1.07989896l1.371264.38415796h0l.35976.10527843c.504553.14337309 1.006405.29275447 1.506536.44616555l-4.9e-4-.01016094 1.149632.36018063c.665468.21279035 1.334904.4373022 2.017126.67625477l.68681.24386685.792535.28805485c1.463982.5337202 2.911475 1.10248914 4.341453 1.7052823l1.836205.75267088-.09927 4.697e-5c5.963808 2.65554908 11.609343 5.90762208 16.859985 9.67960418l.575918.4147934h0l.768323.560884c1.202253.9034783 2.381772 1.8258832 3.538771 2.7749091l1.243112 1.022689-.019821-.0022549c4.653303 3.9473226 8.92633 8.3318649 12.754353 13.0889051l.711935.8942021.460868.5929139h0l.223148.001102.001098.2902099c3.182461 4.1506207 6.032883 8.5684237 8.510645 13.2127928l.503482.9423026c.089027.1858971.184834.3719036.280047.5582606l.156148.0019082.001451.3079505c6.535613 12.9079467 10.223535 27.4836582 10.223535 42.8869706l-.011432-1.2870545.017696 4.364e-4-.015791.1900972.008574.9374253.007217.1010236-.007217-4.08e-5 9.53e-4.0581128c0 4.1264835-.267565 8.2073236-.788456 12.2231946l-.16062 1.180129c-.067468.473424-.13846.945914-.212952 1.417436l-.257325 1.545306h0l-.217775 1.202062h0l-.154267.801616h0l-.13293.657928h0c-.492996 2.418801-1.080624 4.810056-1.761653 7.17619-.21369.741594-.435545 1.479735-.666136 2.214451l-.140289.441813c-8.070114 25.281434-26.498091 46.457741-51.066968 57.806811l-.746387.340897-.196031.042208h-39.747971l-38.1736046-.290564h-.3677299l-.1962983-.042328c-.6425498-.290622-1.287639-.594529-1.9413465-.914306-13.6493578-6.616712-25.3118252-16.29959-34.2508653-28.035547l-.0577107 5.87e-4-9.526e-4-.070497-.5620107-.750122h0l-.7681221-1.050078h0l-.0911974-.128075c-2.9791955-4.127765-5.62822-8.493824-7.9176846-13.055925l-.0352386-.042922-.0020364-.031435c-6.486368-12.953195-10.0743336-27.483521-10.0743336-42.6388296 0-15.7999161 3.8815167-30.7266968 10.7394332-43.8757326l.0743018-.1488895-.0018629.0102761c2.3746399-4.5348561 5.1035975-8.8574799 8.1496376-12.9306569l1.2903075-1.7022376-5.226e-4.0166116c3.8202251-4.8802436 8.1040258-9.3820415 12.7839325-13.4379622l.9299268-.7956622c1.6762274-1.415888 3.401605-2.775265 5.1731334-4.0751331l1.1917834-.8605436h0l.9015768-.6317941h0l.2077138-.1432172c4.8377932-3.3371669 9.9966107-6.2391432 15.4186112-8.64974172l-.0627611.00125631 1.190319-.49384118c2.4485953-1.05085352 4.9493619-2.00201804 7.4971319-2.84832793l1.081206-.35513551v-.00369479l.298185-.09252468.397262-.12638638.127413-.03262125h0l.127241-.037439c2.321906-.71520208 4.682889-1.3426738 7.077307-1.87965034l.781422-.17441735h0l.77793-.16838439.57535-.12226835c2.626392-.52977621 5.222824-.938101258 7.816679-1.220038098l1.111574-.113077627c2.810866-.290171887 5.656467-.4556378394 8.53184-.4924703918l.752061-.00504041094L132.664739 0h.476334zm-28.851551 167.730544h-8.6121192v13.486921l8.6121192.064782v-13.551703zm-9.5647872-.151474H86.476535v9.874404l.395295.224347c1.8107779 1.021843 3.4742672 1.905748 5.0834917 2.691438l.9280009.442663h0l.8430161.391253.9983961 9.53e-4V167.57907zm84.8388982-9.53e-4h-8.244389v13.624105h.99268l.454992-.206951c1.806433-.834031 3.667364-1.792085 5.710871-2.927016l.688107-.384934.397739-.226037v-9.879167zm-47.142777.152427h-8.250105l9.53e-4 13.462152h8.250105l-9.53e-4-13.462152zm-9.478094 0h-8.238673l9.52e-4 13.462152h8.237721v-13.462152zm-9.44094-.158143h-8.25868v13.620295h8.25868v-13.620295zm56.549421.158143h-8.204377v13.462152h8.20533l-9.53e-4-13.462152zm-9.393307 0h-8.267253l9.53e-4 13.462152h8.267253l-9.53e-4-13.462152zm-9.470473 0h-8.230099l9.53e-4 13.462152h8.230099l-9.53e-4-13.462152zm-9.335194 0h-8.235815l9.53e-4 13.462152h8.235815l-9.53e-4-13.462152zm47.019884 0h-8.246295l9.53e-4 9.104648.745683-.443173c2.361581-1.415474 4.478492-2.783135 6.454532-4.183939l.653605-.468273.392474-.288142-9.52e-4-3.721121zm-103.6036011 0h-8.2281938v3.59918l.6550243.481609c1.9923781 1.444993 4.1025197 2.838049 6.3396553 4.192296l.9665745.578054.2678924.156337-9.527e-4-9.007476zm108.3259761 0h-3.508676l9.52e-4 2.808465.682771-.523208c.705399-.546495 1.386555-1.089974 2.046847-1.633889l.653462-.544187.124644-.107181zm-117.7793009.008574h-3.3248115l.33049.278705c.5018856.419112 1.0030221.827929 1.5036509 1.22644l.7505926.590033.7410306.567529-9.526e-4-2.662707zm28.2170739-14.5682h-8.2367674v13.606958h8.2367674v-13.606958zm-18.7694651 0h-8.2339098l-9.526e-4 13.458342h8.2339097l9.527e-4-13.458342zm113.0635941.003811h-8.23772l-.003811 13.45072h4.812879l.429433-.371822.510286-.455986.527731-.481614.555533-.516386.59369-.560301.811979-.777702v-10.286909zm-18.65705-.010479h-8.665469v13.461199h8.665469V153.16425zm-84.8274671 0h-8.6273616v13.461199h8.6273616V153.16425zm18.9104601 0h-8.768356v13.455483h8.768356V153.16425zm9.190389.006668h-8.237721l-9.52e-4 13.448815h8.238673v-13.448815zm28.245654 0h-8.230099l-9.53e-4 13.448815h8.230099l9.53e-4-13.448815zm9.470473 0h-8.267253l-9.53e-4 13.448815h8.267253l9.53e-4-13.448815zm-28.23708 0h-8.250105l-9.53e-4 13.448815h8.250105l9.53e-4-13.448815zm37.630387 0h-8.20533v13.448815h8.204377l9.53e-4-13.448815zm-28.198974 0h-8.235815l-9.53e-4 13.448815h8.235815l9.53e-4-13.448815zm47.023694 0H180.623l-9.52e-4 13.445004h8.253915l9.53e-4-13.445004zm-113.0550203.001906h-8.2481998l-.002858 10.134482.5456845.523024c.6861376.653356 1.3605542 1.281666 2.0281087 1.888711l.6654471.600096.3313595.292975h4.6795054l9.526e-4-13.439288zm131.8054323.00381h-8.090057v9.102743l.930388-.935061c2.101094-2.141321 4.076514-4.344996 5.926246-6.616195l.785047-.97752.448376-.573967zm-141.2768578-9.52e-4h-7.8871386l.2588786.333451c2.0888166 2.66402 4.3670492 5.263255 6.7966798 7.761552l.8315802.844833v-8.939836zm122.7769978-14.481507h-8.61593v13.523123h8.61593v-13.523123zm-84.837946 0h-8.6130719v13.523123h8.6130719v-13.523123zm37.716127 0h-8.632125v13.523123h8.632125v-13.523123zm28.045594 0h-8.204377v13.518359h8.20533l-9.53e-4-13.518359zm-103.7036308 0h-8.2186671l9.527e-4 13.518359h8.2186671l-9.527e-4-13.518359zm84.8398508 0h-8.230099l9.53e-4 13.518359h8.230099l-9.53e-4-13.518359zm9.470473 0h-8.267253l9.53e-4 13.518359h8.267253l-9.53e-4-13.518359zm-65.9341539 0h-8.2462945l9.527e-4 13.518359h8.2462945l-9.527e-4-13.518359zm-18.9152237 0h-8.2453418l9.527e-4 13.518359h8.2453418l-9.527e-4-13.518359zm131.9588116 0h-8.238673l9.53e-4 13.518359h8.238673l-9.53e-4-13.518359zm-75.346514 0h-8.250105l9.53e-4 13.518359h8.250105l-9.53e-4-13.518359zm-9.478094 0h-8.238673l9.52e-4 13.518359h8.237721v-13.518359zm56.616108 0h-8.244389l9.53e-4 13.518359h8.244389l-9.53e-4-13.518359zm-66.058001 0h-8.258679l9.52e-4 13.518359h8.25868l-9.53e-4-13.518359zm-28.2389858 0h-8.2339097l9.526e-4 13.518359h8.2339098l-9.527e-4-13.518359zm113.0550208 0h-8.236768l9.52e-4 13.518359h8.236768l-9.52e-4-13.518359zm18.535109.010479h-7.846174l9.52e-4 12.653337.557095-.766207c2.400655-3.349952 4.614153-6.908414 6.639382-10.65944l.547667-1.027769.101078-.199921zm-159.8281628-.010479h-7.7728185l.0730912.141391c1.9805106 3.821949 4.187683 7.477192 6.6033467 10.926784l.6639729.935669.4319912.593862h0l4.165e-4-12.597706zm131.8521128-14.432921h-8.253915l9.52e-4 13.480253h8.253916l-9.53e-4-13.480253zm-47.023694 0h-8.235815l9.53e-4 13.480253h8.235815l-9.53e-4-13.480253zm-37.82092 0h-8.236768l9.526e-4 13.480253h8.2367674l-9.52e-4-13.480253zm113.205542 0h-8.238674v13.345927h8.241532l-.002858-13.345927zm-160.2254255 0H48.753739v13.345927h8.2577265v-13.345927zm94.1759975 0h-8.230099v13.344021h8.230099v-13.344021zm-65.9255798 0h-8.2339097v13.344021h8.2339097v-13.344021zm94.2969868 0h-8.244389v13.344021h8.244389v-13.344021zm28.2085 0h-8.238673v13.344021h8.238673v-13.344021zm-94.266501 0h-8.258679v13.344021h8.258679v-13.344021zm56.550374 0h-8.204377v13.344021h8.204377v-13.344021zm-37.630387 0h-8.250105v13.344021h8.250105v-13.344021zm65.896048 0h-8.236768v13.344021h8.236768v-13.344021zm-103.5931219 0h-8.2462945v13.344021h8.2462945v-13.344021zm-28.3761699 0h-8.2186671v13.344021h8.2186671v-13.344021zm94.3103238 0h-8.267253v13.344021h8.267253v-13.344021zm-37.715174 0h-8.238673v13.344021h8.238673v-13.344021zm-47.1342036 0h-8.2453418v13.344021h8.2453418v-13.344021zm147.1081386-.00381h-4.610913l9.53e-4 11.496797.077876-.158997c1.57333-3.29269 2.935095-6.611045 4.075853-9.954525l.372054-1.115423.084177-.267852zm-175.330929 0h-4.3479769l.104709.325864c1.0320548 3.16966 2.2404941 6.288621 3.6267089 9.371038l.5281665 1.154221.0893452.189346-9.527e-4-11.040469zm9.527e-4-14.591064h-7.8118778l.0882818.578893c.592066 3.742567 1.4252183 7.457608 2.495477 11.167557l.3281868 1.112855.1994681.651433h4.7023694l-.0019053-13.510738zm169.6511223.001905h-8.235815l-9.53e-4 13.506928h8.235816l9.52e-4-13.506928zm9.133229-.001905h-6.315237l-1.74243.002858v13.505022h4.948158l.208974-.675144h0l.21528-.723373.181889-.631594c.755515-2.651104 1.396933-5.344405 1.919463-8.0734l.091441-.481932.105923-.582031c.060627-.337686.119437-.675902.17642-1.014635l.127282-.776523h0l.082837-.549248zm-46.811249.001905h-8.244389l-9.53e-4 13.498354h8.244389l9.53e-4-13.498354zm-9.507627 0h-8.20533v13.498354h8.204377l9.53e-4-13.498354zm37.716127 0h-8.238673l-9.53e-4 13.498354h8.238673l9.53e-4-13.498354zm-47.109434 0h-8.267253l-9.53e-4 13.498354h8.267253l9.53e-4-13.498354zm-84.8493779 0h-8.2453418l-9.527e-4 13.498354h8.2453418l9.527e-4-13.498354zm122.5083449 0h-8.236768l-9.52e-4 13.498354h8.236768l9.52e-4-13.498354zm-47.12944 0h-8.230099l-9.53e-4 13.498354h8.230099l9.53e-4-13.498354zm-37.686594 0h-8.25868l-9.52e-4 13.498354h8.258679l9.53e-4-13.498354zm18.919987 0h-8.250105l-9.53e-4 13.498354h8.250105l9.53e-4-13.498354zm-47.1589731 0h-8.2339098l-9.526e-4 13.498354h8.2339097l9.527e-4-13.498354zm18.7694651 0h-8.2367674l-9.526e-4 13.498354h8.236768l9.52e-4-13.498354zm84.844615 0H180.623l-9.52e-4 13.498354h8.253915l9.53e-4-13.498354zm-65.934154 0h-8.237721l-9.52e-4 13.498354h8.238673v-13.498354zm-28.2180272 0h-8.2462945l-9.527e-4 13.498354h8.2462945l9.527e-4-13.498354zm-28.3761699 0h-8.2186671l-9.527e-4 13.498354h8.2186671l9.527e-4-13.498354zm75.5046571 0h-8.235815l-9.53e-4 13.498354h8.235815l9.53e-4-13.498354zm-84.8312771 0h-8.2539158l-9.527e-4 13.496448h8.2539158l9.527e-4-13.496448zm18.7866135-14.4348255h-8.2453418l9.527e-4 13.4802525h8.2453418l-9.527e-4-13.4802525zm75.3789046 0h-8.230099l9.53e-4 13.4802525h8.230099l-9.53e-4-13.4802525zm-37.686594 0h-8.258679l9.52e-4 13.4802525h8.25868l-9.53e-4-13.4802525zm-28.2389858 0h-8.2339097l9.526e-4 13.4802525h8.2339098l-9.527e-4-13.4802525zm75.3960528 0h-8.267253l9.53e-4 13.4802525h8.267253l-9.53e-4-13.4802525zm37.658968 0h-8.236768l9.52e-4 13.4802525h8.236768l-9.52e-4-13.4802525zm-75.374142 0h-8.238673l9.52e-4 13.4802525h8.237721V95.2334595zm65.933201 0h-8.253915l9.52e-4 13.4802525h8.253916l-9.53e-4-13.4802525zm-122.5283508 0h-8.2186671l9.527e-4 13.4802525h8.2186671l-9.527e-4-13.4802525zm28.3761699 0h-8.2462945l9.527e-4 13.4802525h8.2462945l-9.527e-4-13.4802525zm75.3274609 0h-8.204377v13.4802525h8.20533l-9.53e-4-13.4802525zm-66.019894 0h-8.236768l9.526e-4 13.4802525h8.2367674l-9.52e-4-13.4802525zm113.205542 0h-8.235816l9.53e-4 13.4802525h8.235815l-9.52e-4-13.4802525zm1.066988.0104793v13.4697732h2.032993l6.098028-.008574.942189-13.375459-9.07321-.0857402zm-10.536509-.0104793h-8.238673l9.53e-4 13.4802525h8.238673l-9.53e-4-13.4802525zm-150.7463778 0h-8.2539158l9.527e-4 13.4802525h8.2539158l-9.527e-4-13.4802525zm75.3998638 0h-8.250105l9.53e-4 13.4802525h8.250105l-9.53e-4-13.4802525zm9.431413 0h-8.235815l9.53e-4 13.4802525h8.235815l-9.53e-4-13.4802525zm37.706601 0h-8.244389l9.53e-4 13.4802525h8.244389l-9.53e-4-13.4802525zm-131.9807233.005716-8.7197705.0523967.4706741 10.6373458.2333476 2.200809.0695448.583985h7.9471567l-9.527e-4-13.4745365zm0-14.5672468H39.872015l-.0639849.3832575-.1269588.8227673-.1359027.969431-.2195829 1.6590634-.4672095 9.6685974 8.7188178-.017148 9.527e-4-13.4859686zm47.1456354 0h-8.2462945v13.4907319h8.2462945V80.6719287zm-18.9152237 0h-8.2453418v13.4907319h8.2453418V80.6719287zm122.5083456 0h-8.236768v13.4907319h8.236768V80.6719287zm-28.265661 0h-8.204377v13.4907319h8.204377V80.6719287zm37.716127 0h-8.238673v13.4907319h8.238673V80.6719287zm-103.736021 0h-8.236768v13.4907319h8.236768V80.6719287zm75.527521 0h-8.244389v13.4907319h8.244389V80.6719287zm9.317093 0h-8.253915v13.4907319h8.253915V80.6719287zm-75.375094 0h-8.258679v13.4907319h8.258679V80.6719287zm28.3514 0h-8.235815v13.4907319h8.235815V80.6719287zm-18.909507 0h-8.238673v13.4907319h8.238673V80.6719287zm28.244701 0h-8.230099v13.4907319h8.230099V80.6719287zm-94.1664708 0h-8.2539158v13.4907319h8.2539158V80.6719287zm160.2158988 0h-8.235816v13.4907319h8.235816V80.6719287zm-84.816035 0h-8.250105v13.4907319h8.250105V80.6719287zm-66.0732438 0h-8.2186671v13.4907319h8.2186671V80.6719287zm18.914271 0h-8.2339097v13.4907319h8.2339097V80.6719287zm75.3960528 0h-8.267253v13.4907319h8.267253V80.6719287zm65.636922.0019053h-7.988121l-9.53e-4 13.4840633 9.07321-.0428701-.809836-11.6025167-.036434-.2555006-.237866-1.5831759zm-3.475333-14.4586427h-4.508978l9.53e-4 13.5059747h7.821405l-.09428-.5680047c-.647469-3.7309793-1.536592-7.4460956-2.66222-11.1658191l-.344778-1.1160758-.212102-.6560751zM47.5867207 66.20757l-4.2412781.002858-.2073649.648761c-1.1694621 3.6965185-2.1061925 7.4064597-2.8101325 11.1571236l-.2041982 1.1264482-.0973998.5764998h7.5603735V66.20757zm150.7301833 9.527e-4h-8.236768v13.5078799h8.236768V66.2085227zm-56.464635 0h-8.235815v13.5078799h8.235815V66.2085227zm-47.1284869 0h-8.2462945v13.5078799h8.2462945V66.2085227zm56.4636809 0h-8.230099v13.5078799h8.230099V66.2085227zm56.579907 0h-8.238673v13.5078799h8.238673V66.2085227zm-18.891407 0h-8.253915v13.5078799h8.253915V66.2085227zm-65.933201 0h-8.238673v13.5078799h8.238673V66.2085227zm56.616108 0h-8.244389v13.5078799h8.244389V66.2085227zm-47.138014 0h-8.250105v13.5078799h8.250105V66.2085227zm-56.6122976 0h-8.2453418v13.5078799h8.2453418V66.2085227zm28.2227906 0h-8.236768v13.5078799h8.236768V66.2085227zm-18.7694658 0h-8.2339097v13.5078799h8.2339097V66.2085227zm75.3960528 0h-8.267253v13.5078799h8.267253V66.2085227zm-47.157067 0h-8.258679v13.5078799h8.258679V66.2085227zm56.550374 0h-8.204377v13.5078799h8.204377V66.2085227zm47.185648.0104793h-8.235816v13.4974006h8.235816V66.219002zm-160.2158988-.0066687h-8.2539158v13.5040693h8.2539158V66.2123333zm9.32662-.0038106h-8.2186671v13.5078799h8.2186671V66.2085227zM218.314358 54.9803773l-9.53e-4 10.1487725h4.126006l-.078852-.2387702c-.99885-2.9485627-2.1631-5.8563583-3.491938-8.7337803l-.554263-1.176222zm-57.656422-3.3305275h-8.267253v13.4745366h8.267253V51.6498498zm-28.23708 0h-8.250105v13.4745366h8.250105V51.6498498zm-18.919987 0h-8.258679v13.4745366h8.258679V51.6498498zm-28.2389858 0h-8.2339097v13.4745366h8.2339097V51.6498498zm94.2979398-.0038106h-8.244389l-9.53e-4 13.4783472h8.244389l9.53e-4-13.4783472zm-113.2112581 0h-8.2186671l-9.527e-4 13.4783472h8.2186671l9.527e-4-13.4783472zm141.4188051.0019053h-8.238673v13.4764419h8.238673V51.6479445zm-18.891407.0019053h-8.253915v13.4745366h8.253915V51.6498498zm-37.6885 0h-8.230099v13.4745366h8.230099V51.6498498zm47.129441 0h-8.236768v13.4745366h8.236768V51.6498498zm-94.284603-.0038106h-8.2367674l-9.526e-4 13.4783472h8.236768l9.52e-4-13.4783472zm66.018942.0038106h-8.204377v13.4745366h8.204377V51.6498498zm-47.108481 0h-8.238673v13.4745366h8.238673V51.6498498zM47.585768 65.1243864l9.527e-4-9.621947-.0671873.1433013c-1.399627 3.0003415-2.6288881 6.0254687-3.6880213 9.0878462l-.1326296.3907995h3.8868855zm28.2227904-13.4745366h-8.2453418v13.4745366h8.2453418V51.6498498zm66.0437106 0h-8.235815v13.4745366h8.235815V51.6498498zm-47.1284869 0h-8.2462945v13.4745366h8.2462945V51.6498498zm121.9300759.0038107h-7.655641l-9.52e-4 13.4707259h8.238673l9.53e-4-12.3160922-.583033-1.1546337zM57.0209922 65.1243864l.0038107-13.4783472-7.5260775.0019053-.4441126.8369715-.172283.3371029-.1171587.2330163-9.527e-4 12.0693512h8.2567738zm.0038107-25.5114971-.4336676.5959049c-2.3117381 3.2126468-4.4378371 6.5901213-6.3748149 10.1225032l-.1964856.3620737h7.0049681V39.6128893zM207.28151 37.1854912h-7.732807v13.5069273h8.235815l9.53e-4-12.8524444-.224982-.299835-.16507-.2123758h0l-.113909-.1422721zm-93.780641-.0038107h-8.258679v13.510738h8.258679v-13.510738zm28.3514 0h-8.235815v13.510738h8.235815v-13.510738zm-56.5903858 0h-8.2339097v13.510738h8.2339097v-13.510738zm37.6808788 0h-8.238673v13.510738h8.238673v-13.510738zm-28.2180272-.1228942h-8.2462945l-9.527e-4 13.6336322h8.2462945l9.527e-4-13.6336322zm65.9332012.1228942h-8.267253v13.510738h8.267253v-13.510738zm-56.368414 0h-8.6130719v13.510738h8.6130719v-13.510738zm28.131334 0h-8.250105v13.510738h8.250105v-13.510738zm47.248524 0h-8.665469v13.510738h8.665469v-13.510738zm-9.618137 0h-8.204377v13.510738h8.204377v-13.510738zm-18.86378 0h-8.230099v13.510738h8.230099v-13.510738zm-75.3789046.0019053h-8.2453418v13.5088327h8.2453418V37.1835858zm122.5083456.0019054h-8.236768v13.5069273h8.236768V37.1854912zm-9.440941-.0038107h-8.253915v13.510738h8.253915v-13.510738zm20.130828 2.2692552v11.2386248h7.149774l-.153688-.28417c-1.7822-3.2398413-3.728955-6.358567-5.831287-9.3400825l-.706528-.9887346-.458271-.6256377zM66.3495175 37.1835858h-7.4574853l-.264932.3315881-.2784833.3644984-.2177665.2918303v12.5171052h8.2196198l-9.527e-4-13.505022zM179.55887 22.6296764h-8.244389l9.53e-4 13.5993361h8.244389l-9.53e-4-13.5993361zm-75.527521-.0095267h-8.236768l9.526e-4 13.6088628h8.2367674l-9.52e-4-13.6088628zm37.82092.002858h-8.235815v13.4821579h8.235815V22.6230077zm-9.43046-.0038107h-8.250105l-9.53e-4 13.4859686h8.250105l9.53e-4-13.4859686zm-18.92094.0038107h-8.258679v13.4821579h8.258679V22.6230077zm47.157067 0h-8.267253v13.4821579h8.267253V22.6230077zm-9.470473 0h-8.230099v13.4821579h8.230099V22.6230077zm-65.9255798-.002858h-8.2339097v13.4850159h8.2339097V22.6201497zm9.5800297.0152427h-8.6273616v13.4697732h8.6273616V22.6353924zm94.0340501-.0142901h-8.253915v13.4840633h8.253915V22.6211023zm-65.933201.0019054h-8.238673v13.4821579h8.238673V22.6230077zm70.154473-.0019054h-3.008525l-9.53e-4 13.4840633h8.230099l9.53e-4-8.7893152-.385452-.3707126c-1.381084-1.3226349-2.676993-2.501992-3.944733-3.5800471l-.541758-.4559438-.349631-.2880446zm-23.045992.0038107h-8.204377v13.4802526h8.204377V22.624913zm-94.2331579-.005716h-2.7293939l-.2601612.2129884c-1.4305951 1.1753292-2.8575385 2.4577937-4.4590087 3.9912665l-.7977307.7696249-9.527e-4 8.5120888h8.2472472V22.619197zm-9.4704729 6.1418508-.8899996.9046668c-1.68066 1.731101-3.3055633 3.5422-4.8714131 5.4272153l-.8281921 1.0103304h6.5886521l9.527e-4-7.3422125zm133.1896588-.252457-9.52e-4 7.5927641h6.860162l-.711474-.8709002c-1.699239-2.0480502-3.477993-4.0168681-5.343098-5.9134469l-.804638-.808417zM94.7247348 9.17324045l-.3656212.16390482c-2.4075444 1.09274223-4.7883162 2.29975573-7.1232652 3.60858733l-.7602661.4316319 9.527e-4 8.3053598h8.2481998V9.17324045zM190.086804 20.2260949v1.4432921h1.844366l-.437113-.3494642-.726767-.5702041-.680486-.5236238zM171.311623 9.09512167 171.31067 21.666529h8.2482l9.53e-4-8.3787153-.873195-.4941114c-1.861075-1.0373581-3.760992-2.0135253-5.69911-2.92849318l-1.167449-.54163674-.508446-.22845071zM85.2695046 14.0737648l-.1160079.0680313c-1.6943478 1.0018249-3.3004085 2.0128883-4.8320183 3.0457577l-.8224673.5617088-.6147319.4289199-.7035107.5024241-.5618834.4093696-.578527.4311444v2.1454084h8.2281938l9.527e-4-7.5927642zm95.3573064-.1714803-9.53e-4 7.7642445h8.246295l8.2e-4-2.3545678c-.283266-.2088263-.567729-.4161096-.853375-.6218372-1.963767-1.4008619-3.973985-2.7270467-6.028084-3.9751574l-1.030694-.6175334-.334009-.1951487zm-19.968875-5.72839281h-8.267253V21.666529h8.267253V8.17389169zm-27.99415-.01047935h-8.763593l9.53e-4.00952668h-.003811V21.666529h8.766451V8.16341234zm36.501476.00571601h-7.309822V21.666529h8.201519l9.53e-4-13.13443414-.89265-.36296651zm-17.977799.00190533h-8.230099V21.666529h8.230099V8.17103368zm-9.335194-.00476334-8.235815.00285801V21.666529h8.235815V8.16627034zm-18.908555.00666868h-8.236767V21.666529h8.236767V8.17293902zm-9.445703-.00952668h-8.259632V21.666529h8.259632V8.16341234zm-9.46952.00952668h-6.9925836l-1.2441844.52301475V21.666529h8.236768V8.17293902zM75.8161797 20.4566406l-.6240048.4818722-.67214.5269544-.2509881.1991564h1.5461803l9.526e-4-1.207983zM132.421809.969816053l-.573231.004870948c-2.440935.033026219-4.803092.155609349-7.114486.372148309l-.562388.05549203 9.52e-4 5.80936964h8.249153V.969816053zm29.428575 4.481545237-.001613 1.64506286h4.6595l-.479443-.18434409-.957242-.35823972h0l.134668.04879514c-1.109217-.40423337-2.227992-.78814299-3.35587-1.15127419zM133.616454.961242041V7.09356614h8.235815l9.53e-4-5.72362951-.731416-.06651427c-1.30521-.11185801-2.59974-.19745155-3.884264-.25607459l-.989674-.03827367-1.548075-.037984603-1.083339-.009847456zm9.341863.516346069-9.53e-4 5.61597803h8.232005l9.52e-4-4.37274625-.759066-.15075131c-1.094236-.21013343-2.189297-.39853081-3.285327-.56506811l-1.096359-.15924601c-.548069-.07593657-1.096392-.14640333-1.644987-.2113848l-.823099-.09335631-.623166-.06342524zm-20.011341.02988739c-2.782797.30131162-5.530127.72442422-8.236513 1.26386477l2.94e-4 4.32222587h8.236768l-5.49e-4-5.58609064zm-9.447571 1.51358704c-.351346.07487258-.701983.15170982-1.051897.23049959-2.068974.47760321-4.161218 1.02788877-6.272931 1.64844106l-.933739.27931474h0l3.99e-4 1.91424821h8.257727l4.41e-4-4.0725036zm38.890326-.07064966-9.53e-4 4.14315326h8.267253l9.53e-4-2.00346086-.690218-.21600438c-.295365-.09026546-.590649-.17875758-.885845-.26546665-2.075294-.59949103-4.180581-1.12771677-6.311989-1.58334264l-.379201-.07487873zm-48.358956 2.61392883-.555765.18386419c-.689272.23164667-1.380479.47294452-2.073716.7238151l-1.041389.38347562-.6212784.23521152h4.2927224l-5.74e-4-1.52636643z" fill="#221815"/><path d="M95.2010688 36.7024885V22.1361943h-9.2027732v14.5662942h9.2027732zm0 130.5536265v-14.565341h-9.2027732v14.565341h9.2027732zm9.2980402-116.0825992V36.5786416h-9.1837201v14.5948742h9.1837201zm0 101.5163052v-14.602496h-9.1837201v14.602496h9.1837201 0zm0 28.980161v-14.578678h-9.1837201v14.578678h9.1837201zm9.479047-14.41482v-14.565341h-9.211348v14.565341h9.211348zm18.919987-145.1103937V7.56799482h-9.202773V22.1466737l9.202773-.0019054h0 0zm9.432366 130.5440997v-14.602495h-9.189436v14.602495h9.189436 0zm37.7066-101.5163048V36.577689h-9.189435v14.5948742h9.189435zm0 116.0825988v-14.565341h-9.189435v14.565341h9.189435zm9.316141-14.565341v-14.602496h-9.200868v14.602496h9.200868 0z" stroke="#211714" fill="#211714" stroke-linecap="round" stroke-linejoin="round"/><path d="M236.891385 197.283259v-3.905939l-209.5869666.122894v7.883328l209.5869666-.146711v-3.953572zM43.0615476 78.7332492v-6.8306297l-14.3100265.1343262c-1.8195959 0-1.7157551-.3905939-1.7157551-2.7570213l.1524269-9.3361467-7.2297977-.1238468c-2.2197165 4.9815011-4.9767378 8.2691584-6.5448294 8.9169727L0 74.6529721v4.2107927l5.02056051.1238468c2.22924319 0 3.1438045-.1238468 3.1438045 2.5055169v27.6950125c0 8.410153 4.58519119 14.584395 16.42399679 14.861621 8.8979194.247694 14.2995471-3.697305 18.0902132-7.383177l-1.0384081-3.544878c-1.5909556 1.067941-2.8780101 1.98155-5.0015072 1.98155-10.1020918 0-9.8305814-7.887139-9.8305814-14.842568V81.4969392c0-2.7627373.2276877-2.7627373 2.086343-2.7627373h14.1671263v-9.527e-4zm27.8455338 44.6525028c11.5653898-.53921 22.7116058-3.029484 22.7116058-14.190943 0-8.117684-8.9122094-13.2601858-18.3626763-17.329031-6.0599213-2.4959902-14.8425679-6.1637621-14.8425679-9.0693996 0-3.4010249 6.6877296-9.978245 13.1182388-4.7252334l11.174796 9.3361466 5.1244013-1.0669882-2.8780101-13.8994265c-2.6388905.1238468-4.4765871.2629364-14.0756701-1.3337352-11.8226103-1.6947965-25.864937 4.2231773-25.864937 15.2331617 0 7.3831773 10.6508285 12.4894779 19.0628872 15.8990766 4.5851913 1.965354 12.7371716 4.865276 12.7371716 9.323762 0 4.307012-7.6318236 5.516901-11.9559838 5.516901-7.3555498 0-15.5094355-9.860114-15.5094355-9.860114h-4.8395536l2.6198371 14.727295c.895508-.800241 4.2107927-.684969 4.8681336-.400121 2.3454687.897413 10.8728002 2.229243 16.9117629 1.838649h0zm29.5422356-14.06138c0 8.146265-2.0911064 12.470425-8.6692791 12.851492l.1619535 1.329925c10.9928366-.1248 22.1971656 0 32.9337336-.247694l.122894-.686874c-4.962447 0-8.792173-5.249201-8.792173-11.785456V88.846773c0-5.4016277 6.567694-8.8121792 11.031896-8.4120587 6.936376.651625 10.765149 5.1063007 10.765149 9.0636837v21.536013c0 6.568646-1.968213 10.631776-7.085945 11.016653v1.209889h30.188144v-.925041c-4.466107-.543021-7.608007-4.62425-7.608007-10.777533V88.9477558c0-4.8300269 4.197456-8.1176842 11.694001-8.2405784 6.568646-.1333735 10.499354 4.7347601 10.499354 9.3361467v20.4633089c0 6.964956-2.096822 11.289116-7.336497 11.832137v.925041c11.022369.122894 20.072716.122894 30.961711 0v-.686874c-5.762689 0-7.725185-3.791619-7.725185-11.783551V88.1837161c0-7.4784441-4.072656-16.4135175-15.499909-16.4135175-7.736617 0-13.423092 3.7820921-16.662163 4.887187-2.23877.8764546-3.820199 1.9434428-4.353693 1.9434428-1.025071 0-2.201616-.657341-3.667772-2.2292432-2.762737-2.9180222-7.736617-4.6013866-13.003919-4.6013866-6.702019 0-13.402134 3.7820921-16.566897 4.887187-.37154.1047935-2.72463 1.2861018-3.010431 1.2861018-.514441 0-2.619837 0-2.619837-.2476937 0-6.316189.400121-3.1723845.141948-7.6308709h-4.347025c-1.291817 0-3.552499 2.3721434-6.172336 3.3914982-3.156189 1.3432619-9.4599932 1.2041724-12.0607769 1.8672294v4.4603917l6.8020499 1.3051552v8.674995l-.120989 19.5601797h0zm129.696225-38.0867148c-19.434427 0-34.276995 10.1135238-34.276995 27.7283556 0 14.8444732 13.517406 25.3304902 31.646679 25.3304902 13.794633 0 25.212359-9.975387 28.484774-16.281097 0-1.953922-1.961543-2.758926-3.790666-2.758926-3.162858 4.858607-12.085547 8.554006-15.748555 8.398721-21.938992-.790714-25.48387-9.584793-25.749664-18.7685127-.409648-9.9830082 10.373602-18.6627667 19.566848-17.9863724 5.364474.3753512 7.221224 9.1551398 11.928357 12.3218083 1.475682.8154839 4.872897.663057 7.115477.2762738 1.706229-.2762738 6.278082-1.3184926 6.278082-5.2596802 0-3.2752727-4.068845-6.9640033-7.982405-9.32662-3.935472-1.8186433-12.747651-3.6744406-17.471932-3.6744406h0z" fill="#e60012"/></svg>