<svg width="512px" height="190px" viewBox="0 0 512 190" xmlns="http://www.w3.org/2000/svg" preserveAspectRatio="xMidYMid"><title>ts-node</title><defs><path d="M78.6456809 1.20093698 4.48150796 44.0083317C1.70687665 45.6065193 0 48.5648504 0 51.7650527h0V137.45026c0 3.201734 1.70687665 6.157768 4.47768089 7.760548h0l74.16417291 42.842604c2.7731005 1.60125 6.1899155 1.60125 8.9645468 0h0l74.1787154-42.842604c2.773101-1.60278 4.479978-4.558814 4.479978-7.760548h0V51.7681144c0-3.203264-1.706877-6.1615951-4.481508-7.7597827h0L87.6018081 1.20093698C86.216406.398781494 84.671032 0 83.1225964 0h0c-1.5461394 0-3.0938096.398781494-4.4769155 1.20093698h0z" id="b"/></defs><path d="M78.6450686 1.20017156 4.48089563 44.0075663c-2.7738659 1.598953-4.480742546893 4.5572841-4.480742546893 7.756721V137.45026c0 3.201734 1.706876646893 6.157768 4.477680886893 7.760548l74.16340753 42.842604c2.7731005 1.600484 6.1899155 1.600484 8.9645468 0l74.1794817-42.842604c2.7731-1.60278 4.479977-4.558814 4.479977-7.760548V51.7681144c0-3.203264-1.706877-6.1615951-4.481508-7.7605481L87.6019612 1.20017156C86.2165591.398781494 84.6704197 0 83.1227495 0c-1.5461394 0-3.0938096.398781494-4.4776809 1.20017156" fill="#2261a8"/><g transform="translate(0 .411487)" style="fill:#fff"><mask id="a"><use href="#b"/></mask><path mask="url(#a)" d="M50.1138218 182.64866H67.556111v-69.394103h24.1695264V97.9301723h-65.781342v15.3243847h24.1695264z"/><path d="M128.221416 183.769917c16.569715 0 28.903621-8.596382 28.903621-24.294289 0-14.576573-8.346856-21.05505-23.172959-27.408765l-4.360569-1.869145c-7.475048-3.239238-10.714286-5.357143-10.714286-10.589523 0-4.23581 3.239238-7.475049 8.347622-7.475049 4.98362 0 8.222859 2.117905 11.212572 7.475049l13.580002-8.721145c-5.730666-10.091238-13.704765-13.9535253-24.792574-13.9535253-15.573145 0-25.540386 9.9672413-25.540386 23.0481923 0 14.203051 8.347622 20.930288 20.930288 26.288197l4.360572 1.868379c7.974099 3.488764 12.708194 5.606669 12.708194 11.586861 0 4.982855-4.610098 8.596382-11.83562 8.596382-8.596382 0-13.45524-4.485336-17.192764-10.59029l-14.2030507 8.222859c5.1076177 10.091239 15.5731447 17.815812 31.7693377 17.815812z" mask="url(#a)"/></g><g transform="translate(189.495608 59.044595)"><g style="fill:#333"><path d="M69.2126999 66.0140473c0-1.3417735-.7064786-2.5756233-1.8645523-3.2407694L36.4697541 45.0033908c-.5220134-.3069316-1.1075563-.4676689-1.699988-.4913968h-.3191782c-.5901354.0237279-1.1749129.1836998-1.7053458.4913968L1.86684849 62.7732779C.715663526 63.438424 0 64.6722738 0 66.0140473L.0681219827 113.864c0 .665911.3452024073 1.284367.9315107073 1.611199.57329624.343672 1.28130561.343672 1.8523056 0l18.35083751-10.50839c1.1603699-.689639 1.8668485-1.905119 1.8668485-3.235411V79.3759063c0-1.3325885.7057131-2.5664383 1.862256-3.2285227l7.8133618-4.5006434c.5832466-.3367828 1.2193069-.5005817 1.8699101-.5005817.6360603 0 1.2889598.1637989 1.8546019.5005817l7.8118309 4.5006434c1.1557775.6620844 1.8645523 1.8959342 1.8645523 3.2285227v22.3554917c0 1.330292.7156635 2.554192 1.8691447 3.235411l18.3454796 10.50839c.5763579.343672 1.2950831.343672 1.8653176 0 .5679384-.326832.9261528-.945288.9261528-1.611199l.0604679-47.8499527z"/><path d="M217.788658.235766933c-.577889-.3214745248-1.283602-.3138203694-1.854602.02066622-.569469.335252005-.92003.946819017-.92003 1.608138037V49.2522125c0 .4653726-.249525.897067-.651368 1.1305187-.40414.2334517-.90166.2334517-1.305799 0l-7.734524-4.4554838c-1.153481-.6651461-2.573327-.6643807-3.726043.0015308l-30.89064 17.8265278c-1.155012.6659116-1.865318 1.8974651-1.865318 3.2300536v35.6607094c0 1.333354.710306 2.564142 1.864552 3.231585l30.888344 17.841071c1.155012.665911 2.577154.665911 3.731401 0l30.894467-17.841071c1.153482-.667443 1.864553-1.898231 1.864553-3.231585V13.7507091c0-1.3509585-.731738-2.5985858-1.913539-3.2576086L217.788658.235766933zM214.922177 90.9298538c0 .3321904-.177577.6406528-.466139.8059826l-10.606363 6.1141393c-.287796.1653297-.642949.1653297-.93151 0l-10.605598-6.1141393c-.289327-.1653298-.466138-.4737922-.466138-.8059826V78.6832052c0-.3329557.176811-.6414182.465373-.8082788l10.605597-6.1263859c.289327-.1668606.64448-.1668606.933807 0l10.605598 6.1263859c.287796.1668606.465373.4753231.465373.8082788v12.2466486z"/><path d="M320.648259 78.362343c1.148889-.6674423 1.856133-1.8959342 1.856133-3.2246956v-8.6423068c0-1.3287614-.707244-2.5587842-1.857664-3.2262265L289.955096 45.449475c-1.154247-.6712694-2.580216-.6728003-3.737524-.0038271l-30.879924 17.8265278c-1.152716.666677-1.864553 1.8974652-1.864553 3.2300536V102.15452c0 1.341008.720256 2.577919 1.884453 3.240004l30.687806 17.486683c1.131284.646011 2.518217.653665 3.657155.020666l18.561327-10.317036c.588604-.326832.955238-.945288.9583-1.617323.004592-.6728-.352091-1.295848-.935338-1.630335l-31.075105-17.8364783c-.580951-.3329557-.936869-.9506461-.936869-1.6188538V78.7090763c0-.6659115.355153-1.2828365.933042-1.6150268l9.671025-5.5760522c.575593-.3321903 1.286664-.3321903 1.861491 0l9.676383 5.5760522c.578654.3321903.933807.9491153.933807 1.6150268v8.7907974c0 .6682078.356683 1.2843673.934572 1.617323.578654.3337212 1.290491.331425 1.866849-.0045925l18.496266-10.7502612z"/></g><g style="fill:#2261a8"><path d="M287.631141 76.6923594c.221206-.1285898.494459-.1285898.715664 0l5.927378 3.4198766c.22197.1278244.358214.3635724.358214.6199866v6.8443458c0 .2556487-.136244.4921621-.358214.6199865l-5.927378 3.4198767c-.221205.1278243-.494458.1278243-.715664 0l-5.922785-3.4198767c-.221205-.1278244-.358214-.3643378-.358214-.6199865v-6.8443458c0-.2564142.137009-.4921622.358214-.6199866l5.922785-3.4198766z"/><path d="M117.172948 45.6293476 86.5417841 63.3096811c-1.145827.6605536-1.8507747 1.8821568-1.8507747 3.2040294v35.3897525c0 1.322638.7049477 2.543476 1.8492439 3.205561L117.171418 122.8039c1.145061.660554 2.556488.660554 3.702315 0l30.638053-17.694876c1.145061-.662085 1.850009-1.882923 1.850009-3.205561V66.5152414c0-1.3234035-.704948-2.5450067-1.850775-3.2055603l-30.638818-17.6803335c-.571766-.3306595-1.210888-.4959892-1.85001-.4959892-.638356 0-1.277478.1653297-1.849244.4959892"/></g></g></svg>