<svg width="256px" height="193px" viewBox="0 0 256 193" xmlns="http://www.w3.org/2000/svg" preserveAspectRatio="xMidYMid"><path d="M225.37799 32.2551834c-.408293-.4082934-.816586-.4082934-1.22488 0L118.813397 136.370016c-.408293.408293-.408293.816587 0 1.22488l20.414673 25.722488-3.674641 28.580543c0 .408293 0 .816587.408293.816587h.408294c.408293 0 .408293 0 .816587-.408294l88.599681-159.2344497c.408293 0 0-.8165869-.408294-.8165869h0zM256 69.0015949l-20.822967-36.7464115c0-.4082934-.408293-.4082934-.816586-.4082934-.408294 0-.408294 0-.816587.4082934L219.661882 57.569378v.8165869c0 .4082935.408293.4082935.408293.4082935l34.704945 11.0239234h.408293c.408294 0 .408294 0 .816587-.4082934v-.4082935h0zM131.878788 164.950558v-.816587L1.22488038 0c0 0-1.2248803800000143.408293461-1.2248803800000143.816586922L13.4736842 138.00319l-9.79904305 54.711324H127.795853c.408294.408293 4.082935-27.763956 4.082935-27.763956z" fill="#3d9"/></svg>