<svg width="512px" height="225px" viewBox="0 0 512 225" xmlns="http://www.w3.org/2000/svg" preserveAspectRatio="xMidYMid"><title>path-1</title><path d="M512 7.66080003V165.984c0 4.231316-3.440639 7.660801-7.679999 7.660801h-176.64V217.056c0 4.231316-3.43808 7.660801-7.680001 7.660801H7.68000002C3.43808001 224.716801 0 221.287316 0 217.056V58.7328002c0-4.2287616 3.43808001-7.6608001 7.68000002-7.6608001H312.320001V7.66080003C312.320001 3.42948481 315.760641 0 320 0h184.320001C508.559361 0 512 3.42948481 512 7.66080003zM461.404161 53.1148803c0-1.1261376-.921601-2.0428802-2.04544-2.0428802H449.11872c-1.126399 0-2.048.9167426-2.048 2.0428802v38.398483c0 .6128642-.716797.817152-.9216.2042882l-14.026238-38.8070594c-.307199-.9218494-1.024-1.838592-2.560002-1.838592h-12.183037c-1.123843 0-2.048.9167426-2.048 2.0428802v67.4022717c0 1.123584.924157 2.04288 2.048 2.04288h10.23744c1.128957 0 2.047996-.919296 2.047996-2.04288V85.1804356c0-.6128643.716802-.8145988.921601-.2042883l13.926403 35.8474367c.304638.817152 1.021439 1.736448 2.762236 1.736448h12.083202c1.123839 0 2.04544-.919296 2.04544-2.04288V53.1148803zM403.96032 110.813472c0-1.12103-.919039-2.040326-2.048-2.040326h-8.701439c-.6144 0-1.024-.406023-1.024-1.02144V65.8803267c0-.6128643.4096-1.0239937 1.024-1.0239937h7.68c1.123838 0 2.045439-.9167423 2.045439-2.0403265v-9.7011262c0-1.1261376-.921601-2.0428802-2.045439-2.0428802h-31.73888c-1.1264 0-2.05056.9167426-2.05056 2.0428802v9.7011262c0 1.1235842.92416 2.0403265 2.05056 2.0403265h7.67744c.6144 0 1.024.4111294 1.024 1.0239937v41.8713793c0 .615417-.4096 1.02144-1.024 1.02144h-8.70144c-1.1264 0-2.048.919296-2.048 2.040326v9.70368c0 1.123584.9216 2.04288 2.048 2.04288h33.784319c1.128961 0 2.048-.919296 2.048-2.04288v-9.70368zM312.320001 66.3936H16.6400001c-.70656 0-1.2800001.57456-1.2800001 1.2768001V208.118401c0 .704793.5734401 1.2768 1.2800001 1.2768H311.040001c.70656 0 1.28-.572007 1.28-1.2768V66.3936zm-45.376 92.940826c1.1264 0 2.048.919296 2.048 2.04288v10.211847c0 1.123583-.9216 2.042879-2.048 2.042879h-37.57312c-1.126401 0-2.048-.919296-2.048-2.042879V104.18688c0-1.126137.921599-2.04288 2.048-2.04288h37.16352c1.1264 0 2.048.916743 2.048 2.04288v10.211847c0 1.123584-.9216 2.04288-2.048 2.04288H242.68032c-.614399 0-1.026559.408576-1.026559 1.02144v12.254726c0 .612864.41216 1.02144 1.026559 1.02144h23.034881c1.1264 0 2.048.919296 2.048 2.04288v10.211846c0 1.126138-.9216 2.042881-2.048 2.042881H242.68032c-.614399 0-1.026559.408576-1.026559 1.02144v12.254726c0 .612864.41216 1.02144 1.026559 1.02144h24.263681zM213.903361 102.144c1.123839 0 2.04544.916743 2.04544 2.04288v67.402273c0 1.123583-.921601 2.042879-2.04544 2.042879h-12.0832c-1.740801 0-2.4576-.919296-2.762241-1.736448l-13.926399-35.847437c-.2048-.61031-.9216-.408576-.9216.204289v35.336717c0 1.123583-.91904 2.042879-2.048001 2.042879h-10.23744c-1.12384 0-2.048-.919296-2.048-2.042879V104.18688c0-1.126137.92416-2.04288 2.048-2.04288h12.183041c1.538559 0 2.252799.916743 2.559999 1.838592l14.02624 38.80706c.207361.612863.921601.408576.921601-.204288V104.18688c0-1.126137.9216-2.04288 2.047999-2.04288h10.240001zm-57.753601 0c1.128961 0 2.048001.916743 2.048001 2.04288v48.000019c0 12.356871-10.237441 22.568717-24.368641 22.568717-13.92128 0-24.16128-10.211846-24.16128-22.568717V104.18688c0-1.126137.9216-2.04288 2.05056-2.04288h10.33984c1.12384 0 2.048.916743 2.048 2.04288v48.000019c0 4.491783 3.68384 8.168967 9.72288 8.168967 6.24896 0 9.9328-3.677184 9.9328-8.168967V104.18688c0-1.126137.921601-2.04288 2.048-2.04288h10.33984zm-56.3174396 2.04288v10.211847c0 1.123584-.9216001 2.04288-2.0480002 2.04288H84.9868803c-.6144001 0-1.0240002.408576-1.0240002 1.02144v54.126106c0 1.123583-.9241598 2.042879-2.0479998 2.042879h-10.23744c-1.1264001 0-2.0480002-.919296-2.0480002-2.042879v-54.126106c0-.612864-.4096001-1.02144-1.0240001-1.02144H55.8080001c-1.1289599 0-2.0479998-.919296-2.0479998-2.04288V104.18688c0-1.126137.9190399-2.04288 2.0479998-2.04288h41.9763201c1.1264001 0 2.0480002.916743 2.0480002 2.04288z" fill="#14d8cc" fill-rule="evenodd"/></svg>