<svg width="512px" height="191px" viewBox="0 0 512 191" xmlns="http://www.w3.org/2000/svg" preserveAspectRatio="xMidYMid"><title>Tuple</title><path d="M209.622505 80.3675092v51.5627388h21.731843V80.3675092h17.224227V63.8029337h-56.107003v16.5645755h17.150933 0zm49.840315 23.4542658c0 19.459712 11.255954 29.354481 31.150198 29.354481h.036647c19.056591 0 31.260139-9.051881 31.260139-29.537717V63.8029337h-21.726608v39.0660123c0 8.941939-1.910894 13.339614-9.528296 13.339614-7.737813 0-9.643472-4.397675-9.643472-13.229672V63.8029337H259.46282v40.0188413h0zm104.701311-40.0188413c19.642948 0 28.035178 8.7953498 28.035178 23.3443244v.3664729c0 14.219149-9.455002 22.208258-27.082349 22.208258h-6.596512v22.208259h-21.51196V63.8029337h27.155643zm-1.026124 16.124808h-4.580912v15.3185677h4.47097c5.716977 0 8.685408-2.5653104 8.685408-7.6226366h0v-.3664729c0-5.2405626-2.931783-7.3294582-8.575466-7.3294582h0zm40.275373 52.0025063V63.8029337h21.621901V115.25573h24.815452v16.674518H403.41338h0zm58.635665-68.1273143v68.1273143h49.950258v-16.564576h-28.401651v-10.224594h21.328724V90.0057468h-21.328724v-9.6382376h26.862465V63.8029337h-48.411072 0z" fill="#1f2e41"/><path fill="#bfc6f1" d="M29.3178328 65.9651238 117.271331 36.647291v153.918622l-87.9534982-29.317832z"/><path fill="#4652af" d="M0 29.3178328 87.9534985 0v153.918622L0 124.600789z"/></svg>