<svg width="256" height="293" xmlns="http://www.w3.org/2000/svg" preserveAspectRatio="xMidYMid"><defs><linearGradient x1="50%" y1="7.896%" x2="49.855%" y2="93.343%" id="a"><stop stop-color="#0096FF" offset="0%"/><stop stop-color="#FF1E56" offset="100%"/></linearGradient></defs><path d="M128 0L46.16 46.768l.16 36.752L128 36.848l96 54.864L256 110V73.136L128 0zm-14.4 247.488L32 200.864V91.792l-.032-.016-.176-36.8L0 73.136v146.288l81.68 46.672 31.92-18.608zM224 200.864v-92.56l32 18.288v92.832l-128 73.152-31.888-18.224L128 255.76v-.048l96-54.848z" fill="url(#a)"/><path d="M46.4 108.369v84.128l81.6 46.64v-84.144zM128 53.44L53.648 95.92l81.616 46.64 74.336-42.495z"/></svg>