<svg width="256px" height="293px" viewBox="0 0 256 293" xmlns="http://www.w3.org/2000/svg" preserveAspectRatio="xMidYMid"><title>Turbopack</title><defs><linearGradient x1="50.000184%" y1="7.89569995%" x2="49.8553456%" y2="93.3433732%" id="a"><stop stop-color="#0096ff"/><stop stop-color="#ff1e56" offset="1"/></linearGradient></defs><path d="M128 0 46.16 46.768l.16 36.752L128 36.848l96 54.864L256 110V73.136L128 0zm-14.4 247.488L32 200.864V91.792l-.032-.016-.176-36.8L0 73.136v48.768 48.768 48.752l81.68 46.672 31.92-18.608zM224 200.864v-92.56l32 18.288v44.08 48.752l-128 73.152-31.888-18.224L128 255.76v-.048l96-54.848z" fill="url(#a)"/><path d="M46.4 108.368615v84.128l81.6 46.64v-84.144z"/><path d="M128 53.4406154l-74.352 42.48 81.616 46.6399996 74.336-42.496z"/></svg>