<svg width="256px" height="318px" viewBox="0 0 256 318" xmlns="http://www.w3.org/2000/svg" preserveAspectRatio="xMidYMid"><title>turborepo</title><defs><linearGradient x1="123.779228%" y1="-3.85716965e-07%" x2="123.779228%" y2="698.962346%" id="a"><stop stop-color="#1e90ff" offset="0%"/><stop stop-color="#ff1e56" offset="100%"/></linearGradient><linearGradient x1="11.4859916%" y1="-2.19377472%" x2="11.4859916%" y2="512.39779%" id="b"><stop stop-color="#1e90ff" offset="0%"/><stop stop-color="#ff1e56" offset="100%"/></linearGradient><linearGradient x1="-153.743225%" y1="-62.2632095%" x2="-153.743225%" y2="278.479413%" id="c"><stop stop-color="#1e90ff" offset="0%"/><stop stop-color="#ff1e56" offset="100%"/></linearGradient><linearGradient x1="-153.743225%" y1="-178.48023%" x2="-153.743225%" y2="162.263952%" id="d"><stop stop-color="#1e90ff" offset="0%"/><stop stop-color="#ff1e56" offset="100%"/></linearGradient><linearGradient x1="11.4859916%" y1="-412.397334%" x2="11.4859916%" y2="102.193662%" id="e"><stop stop-color="#1e90ff" offset="0%"/><stop stop-color="#ff1e56" offset="100%"/></linearGradient><linearGradient x1="123.779228%" y1="-598.960854%" x2="123.779228%" y2="99.9997513%" id="f"><stop stop-color="#1e90ff" offset="0%"/><stop stop-color="#ff1e56" offset="100%"/></linearGradient></defs><path d="M103.409919.0945810675C66.8366598-1.16649961 30.2676723 10.1832239 0 34.1437712l20.1770242 11.3495869C44.1391095 27.838355 74.4025099 20.2718642 103.409919 21.5329389V.0945810675z" fill="url(#a)"/><path d="M210.600627 48.0155928c-25.222348-26.4826966-58.010546-42.87675312-93.319271-46.65999428V22.7939708c30.267673 5.0443415 56.750284 18.9162058 78.187571 40.3546038l15.1317-15.1329818z" fill="url(#b)"/><path d="M256 151.42423c-1.260263-32.788198-13.871437-65.5763962-35.308725-93.3201249l-15.135972 15.1329817c17.656499 23.9608036 27.747147 50.4434152 29.00741 78.1871432H256z" fill="url(#c)"/><path d="M220.691275 259.876911c21.437288-27.743729 34.048462-60.5315 35.308725-93.319699h-21.437287c-1.260263 27.743729-11.350911 54.22634-29.00741 78.186717l15.135972 15.132982z" fill="url(#d)"/><path d="M117.281356 316.625913c34.048462-3.783353 68.096923-20.177453 93.319271-46.660063l-15.1317-15.132982c-21.437287 22.699259-49.184433 36.571125-78.187571 40.354475v21.43857z" fill="url(#e)"/><path d="M0 283.837714c30.2676723 23.960376 66.8366598 35.310005 103.409919 34.049316v-21.43857c-29.0074091 1.26112-58.0105466-6.305587-83.2328948-23.960375L0 283.837714z" fill="url(#f)"/><path d="M97.6511578 71.3437019c13.4784062 0 25.9186962 2.2953873 37.3208732 6.8865896 11.402175 4.4429611 21.176691 10.6631065 29.323542 18.6604364 8.292103 7.9973301 14.734397 17.4014551 19.326882 28.2128031 4.592484 10.663107 6.886589 22.214805 6.886589 34.655096 0 12.440291-2.294105 24.065897-6.886589 34.877245-4.592485 10.663107-11.034779 19.993325-19.326882 27.990655-8.146851 7.99733-17.921367 14.291382-29.323542 18.882584-11.402177 4.442961-23.842467 6.664442-37.3208732 6.664442-13.623658 0-26.1408464-2.221481-37.5430211-6.664442-11.2569261-4.591202-20.9545428-10.885254-29.1013946-18.882584-8.1468545-7.99733-14.512249-17.327548-19.1047336-27.990655-4.59248451-10.811348-6.8865893-22.436954-6.8865893-34.877245 0-12.440291 2.29410479-23.991989 6.8865893-34.655096 4.5924846-10.811348 10.9578791-20.215473 19.1047336-28.2128031 8.1468518-7.9973299 17.8444685-14.2174753 29.1013946-18.6604364 11.4021747-4.5912023 23.9193631-6.8865896 37.5430211-6.8865896zm0 42.2081301c-6.3696695 0-12.440292 1.184647-18.2161397 3.554369-5.626327 2.22148-10.5904828 5.40546-14.8839204 9.552366-4.2934375 4.146906-7.7025561 9.034164-10.2188115 14.661772-2.5162525 5.627608-3.7765177 11.773847-3.7765177 18.438288 0 6.664442 1.2602652 12.810681 3.7765177 18.438289 2.5162554 5.627608 5.925374 10.514865 10.2188115 14.661771 4.2934376 4.146907 9.2575934 7.404793 14.8839204 9.774515 5.7758477 2.22148 11.8464702 3.332221 18.2161397 3.332221 6.3696672 0 12.3676652-1.110741 17.9939922-3.332221 5.77585-2.369722 10.81263-5.627608 15.106068-9.774515 4.442961-4.146906 7.924704-9.034163 10.440959-14.661771 2.516253-5.627608 3.776515-11.773847 3.776515-18.438289 0-6.664441-1.260262-12.81068-3.776515-18.438288-2.516255-5.627608-5.997998-10.514866-10.440959-14.661772-4.293438-4.146906-9.330218-7.330886-15.106068-9.552366-5.626327-2.369722-11.624325-3.554369-17.9939922-3.554369z"/></svg>