<svg width="256px" height="256px" viewBox="0 0 256 256" xmlns="http://www.w3.org/2000/svg" preserveAspectRatio="xMidYMid"><path d="M128 0c70.656 0 128 57.344 128 128 0 70.656-57.344 128-128 128C57.344 256 0 198.656 0 128 0 57.344 57.344 0 128 0zm0 33.792c-52.224 0-94.208 41.984-94.208 94.208 0 52.224 41.984 94.208 94.208 94.208 52.224 0 94.208-41.984 94.208-94.208 0-52.224-41.984-94.208-94.208-94.208zm31.744 99.328c14.704029 0 26.624 11.919971 26.624 26.624 0 14.704029-11.919971 26.624-26.624 26.624-14.704029 0-26.624-11.919971-26.624-26.624 0-14.704029 11.919971-26.624 26.624-26.624zm-63.488 0c14.704029 0 26.624 11.919971 26.624 26.624 0 14.704029-11.919971 26.624-26.624 26.624-14.7040292 0-26.624-11.919971-26.624-26.624 0-14.704029 11.9199708-26.624 26.624-26.624zm63.488-63.488c14.704029 0 26.624 11.9199708 26.624 26.624 0 14.704029-11.919971 26.624-26.624 26.624-14.704029 0-26.624-11.919971-26.624-26.624 0-14.7040292 11.919971-26.624 26.624-26.624zm-63.488 0c14.704029 0 26.624 11.9199708 26.624 26.624 0 14.704029-11.919971 26.624-26.624 26.624-14.7040292 0-26.624-11.919971-26.624-26.624 0-14.7040292 11.9199708-26.624 26.624-26.624z" fill="#f12e45"/></svg>