<svg width="256px" height="233px" viewBox="0 0 256 233" xmlns="http://www.w3.org/2000/svg" preserveAspectRatio="xMidYMid"><title>TypeORM</title><g style="fill:#8e8f8f"><path d="M138.629836 32.2315678c3.080795 0 5.587247 2.459055 5.66364 5.5214487l.001793.1439845v64.845319c0 3.080796-2.459055 5.587247-5.521448 5.663639l-.143985.001795H85.7540854c-3.0807948 0-5.5872467-2.459055-5.6636392-5.521449l-.0017939-.143985V37.897001c0-3.0807949 2.4590549-5.5872468 5.5214486-5.6636392l.1439845-.001794h52.8757506zm0 2.520679H85.7540854c-1.6998165 0-3.0855088 1.3466498-3.1474711 3.0319128l-.0021587.1128414v64.845319c.0026264 1.700589 1.350673 3.085547 3.036736 3.147473l.1128938.002157h52.8757506c1.700589-.002626 3.085548-1.350673 3.147473-3.036735l.002157-.112895V37.897001c-.00269-1.7375882-1.41204-3.1447542-3.14963-3.1447542zM93.3063711 92.6693556v3.773705h-3.7785806v-3.773705h3.7785806zm42.1787109 0v3.773705H95.1980992v-3.773705h40.2869828zM93.3063711 76.302007v3.773705h-3.7785806v-3.773705h3.7785806zm42.1787109 0v3.773705H95.1980992v-3.773705h40.2869828zM93.3063711 60.5636092v3.773705h-3.7785806v-3.773705h3.7785806zm42.1787109 0v3.773705H95.1980992v-3.773705h40.2869828zm0-14.4804961v3.7785806H89.5277905v-3.7785806h45.9572915z"/><path d="M138.629836 121.620597v.039005c3.065859-7.4e-5 5.566005 2.436016 5.662669 5.483153l.002764.143275v64.845319c0 3.080795-2.459055 5.587246-5.521448 5.663639l-.143985.001795H85.7540854c-1.5025662 0-2.9435914-.596893-4.0060662-1.659368-1.0216104-1.021611-1.6127634-2.393211-1.6567255-3.832984l-.0026414-.173082V127.28603c0-3.080795 2.4590549-5.587247 5.5214486-5.663639l.1439845-.001794h52.8757506zm0 2.520678H85.7540854c-1.6998165 0-3.0855088 1.34665-3.1474711 3.031914l-.0021587.112841v64.845319c.0026264 1.700589 1.350673 3.085547 3.036736 3.147473l.1128938.002157h52.8757506c1.693182-.002567 3.074996-1.3393 3.146795-3.017736l.002835-.112392v-64.845319c-.002631-1.699814-1.351429-3.083418-3.036785-3.14277l-.112845-.001984v-.019503zm-45.3234649 57.931736v3.77858h-3.7785806v-3.77858h3.7785806zm42.1787109.029254v3.720074H95.1980992v-3.720074h40.2869828zm-42.1787109-16.396603v3.778581h-3.7785806v-3.778581h3.7785806zm42.1787109.029254v3.720074H95.1980992v-3.720074h40.2869828zm-42.1787109-15.762775v3.773705h-3.7785806v-3.773705h3.7785806zm42.1787109.029252v3.715199H95.1980992v-3.715199h40.2869828zm0-14.509749v3.778581H89.5277905v-3.778581h45.9572915z"/><path d="M153.878566 70.3196606v3.1447542h18.883152v85.5302572h-18.883152v3.14963h18.883152 3.14963v-3.14963-85.5302572-3.1447542h-3.14963z"/></g><path d="M19.3317061 14.7950419c3.7235561-6.10663209 9.856982-9.66885777 16.0529209-11.73729905l.8450678-.27289984h0l.84452-.25497388c.4219026-.12310411.8431039-.23970798 1.2628596-.35014462l.8373639-.21274897c.1391659-.03412056.2781161-.06758053.4168231-.10039226l.829102-.18919007c.1376236-.03026807.2749489-.05991257.4119482-.08894581l.8178641-.16696319h0l.8087188-.15288529h0l.7982507-.13939938h0l.7864601-.1265055h0l.7733466-.114203629h0l.7589105-.102493763h0l.7431516-.091375912h0l.7260701-.080850069h0L47.75275.542854428h0l1.0240975-.08904345h0l.9752477-.070022392h0l.9219338-.05299937h0l1.0022511-.042982984h0L52.5928.262101114h0l.5598843-.009104751.5165305-.003775928h.4710764l.6167934.007704428.3482518.007471731.6350106.021428429.2801581.014093998V15.4142415c-13.3682224-1.2719901-19.3331069 2.7654842-21.963572 7.0686531l-.2369615.4040466c-.3411615.6067756-.618898 1.2156886-.844525 1.8127125l-.1428222.3961007c-.0225584.0656719-.0445046.1311585-.065854.1964407l-.1210593.389085h0l-.107482.3832535h0l-.0946498.3764984c-.014747.0621355-.0289904.1239511-.0427456.1854275l-.0767984.3646341c-.0118649.0600427-.0232727.1197077-.034239.1789759l-.0606233.3506919h0l-.0507713.3402427h0l-.0416642.3288699h0l-.0470503.4699607h0l-.0307504.439177h0l-.0151227.3443647-.0068167.3183496-2.18e-5.2904615.005262.2607.0090347.2290655.01732.2801861.0322786.3305003-4.877e-4 5.552607-.0325437 11.3365627-.0395312 8.1694135-.0462659 6.872375-.0506732 5.8076431-.0492709 4.5730405-.0580229 4.4512364-.0595325 3.7952233-.0766102 4.0214437-.0472351 2.0948155-.0507373 1.9794029-.0656896 2.2052665-.0230972.6903916-.0023059 1.2759768-.0068976.7813681-.0086149.5270963-.0210104.7986912h0l-.0314457.7714054h0l-.0254884.4702131h0l-.031008.4721019h0l-.0370683.4736683h0l-.0681492.7127341h0l-.0545861.4761738h0l-.0625397.4766116h0l-.0710344.4767273c-.012577.079446-.0255305.158884-.0388718.238306l-.0847907.476296c-.0149373.079334-.0302849.158639-.0460541.237909l-.099764.475139h0l-.1104225.473965h0l-.1216217.472468c-.0424673.157204-.0868913.314105-.1333621.47065l-.1456433.468507h0l-.1584655.466044h0l-.1718286.463258c-1.9358133 5.002369-6.3193184 9.457477-16.2454206 11.520646 9.6561369 2.004853 14.0670603 6.269781 16.0819701 11.10058l.1847431.461732c.1776813.463335.3344504.931315.4727687 1.402477l.1322591.472167c.0841941.315413.1605524.632023.2298042.949396l.098639.476579c.0155819.079507.0307425.159048.045493.238617l.0836749.477687h0l.0743825.478018h0l.065637.478026h0l.0574385.477707h0l.049787.477063h0l.0426823.476095h0l.0361246.474801h0l.0430877.709063h0l.0221233.470143h0l.027088.787681h0l.0120107.520501.0080807.516266.0064561.765442.002143 1.270791.0675033 2.213462.0603512 2.337562.0556121 2.506531.0510712 2.653814.0541084 3.25334.073843 5.374974.050993 4.555105.0249324 2.562546.0535896 6.545937.0579659 9.711636.039976 10.511702.0146268-.009064v9.322124l-.0149699.13203-.0173085.198471-.0118603.178102-.0144945.331149h0l-.005262.2607 2.17e-5.290463.0068167.318349.0151227.344365.0302646.433419h0l.0288375.305824h0l.0580407.481832h0l.0495958.335321h0l.0591541.345565h0l.0694295.35492c.0124677.059883.0253934.120119.0387921.18069l.0861871.367284c.0153503.061833.0312034.123963.0475743.186372l.1045583.37765h0l.117702.383448c.0207522.064342.0420819.128888.064004.193621l.1387623.390479c.0487037.130805.0998968.262207.1536989.394056l.1693525.396744c2.0994509 4.707196 7.6374451 9.792191 21.9610621 8.626826l.7845526-.069282v15.114323l-.4014657.019181-.7439742.021782-.612081.010332h-.7268994 0l-.544568-.005971-.5898688-.011192-.6328778-.018158-.8219482-.032844h0l-.5792171-.029333h0l-.6028053-.035915h0l-.6251823-.043039h0l-.646348-.050708h0l-.6663023-.058917h0l-.6850455-.067671h0l-.7025773-.076966h0l-.7188979-.086805h0l-.7340072-.097186c-.1235263-.017093-.2476318-.034641-.372291-.052656l-.7544001-.113775c-.1267737-.019926-.2540509-.040341-.3818061-.061256l-.7720675-.131586c-.129567-.022962-.2595616-.046447-.3899586-.070467l-.7870096-.150618c-.1319059-.026202-.2641637-.052961-.3967483-.080288l-.7992264-.170871h0l-.8058568-.185052c-.2695894-.064107-.540082-.130669-.8112759-.199775l-.8154838-.215041c-7.4908533-2.042836-15.3594036-6.078224-19.4072101-13.987382.8776059-9.721923 4.875588-18.010422 12.057329-23.168794.3380407-.238362.6804153-.469501 1.0271238-.693417l.3913989-.248607c-.4860715.300549-.9637881.617806-1.4331495.951775-7.1671142 5.148621-11.1650963 13.43712-12.0427022 23.120038-1.8019111-3.638361-2.7459414-7.641315-2.7595827-11.701411l-.0900668-4.167022-.116982-5.051139-.146389-5.912654-.1993243-7.535871-.1829593-6.535951-.2520091-8.557475-.2840774-9.165894-.475109-14.423784-.1155577-3.344386c-.2811309-7.571996-3.3204135-11.260264-6.4833263-13.040695l-.37251888-.200779c-.06212858-.032036-.12426498-.063369-.18638932-.094012l-.37244258-.175714c-.1239934-.055896-.24777972-.109155-.37120007-.159898l-.36900427-.144796c-.12252953-.045828-.2445342-.089258-.36585514-.130409l-.36175273-.116738c-.11979458-.036713-.23874654-.071267-.356697-.103781l-.28277793-.074606-.27838804-.067047-.27350105-.059864-.26811701-.05305-.39099305-.067619h0l-.25248216-.037652-.24535835-.032144-.353593-.038706h0l-.31141219-.001535-.63706734-.007676c-.32370776-.003838-.655603109-.00614-.997604989 0L0 125.03696v-17.713011c.828849945.029254 1.56993931.014627 2.29152632-.024377l.353593-.038707.24535835-.032144.25248216-.037652.39099305-.067618h0l.26811701-.053052.27350105-.059863.27838804-.067047.28277793-.074606.356697-.103781h0l.36175273-.116737h0l.36585514-.13041c3.67588591-1.374835 7.82413922-4.907663 8.15488142-13.8158939l.4310129-12.8094506.331784-10.4643232.1801733-5.9385749.2756427-9.5261648.1808848-6.6257191.1310013-5.0467203.1648959-6.7567095.0956062-4.2012094.0714735-3.3301798c.1096466-5.2487329 1.403264-9.5092696 3.4569846-12.9684766l.1372988-.2284771-9.751e-4-.0110139zm180.6429129.3705446V.0512640376l.406211-.0193878423.564356-.017722411.365508-.00740566267.646117-.006460850564h0 .492708l.539662.005340468364.833252.01722172377h0l1.062197.0377821726h0l.569018.0273558543h0l.592707.0337115799h0l.930873.06365338h0l.646717.051938941h0l.666235.060165103h0l.68456.068925676h0l.701692.07822066h0l.717633.088050053h0l.732382.098413858h0l.745938.109312073h0l.758302.120744698c.127348.021106525.255162.042711676.383415.064826587l.774613.138895651h0l.783997.15166431h0l.792188.16496737h0l.799187.17880484h0l.804994.19317672c.40375.1002704.809231.20613067 1.215771.31788139l.814296.23144448c7.609572 2.23511463 15.432684 6.59255898 19.107445 15.02756274 1.398304 3.296978 2.130694 6.8379683 2.155009 10.4191313l.090068 4.1677179.116981 5.0518825.082517 3.380192.129185 5.0592386.179432 6.663171.137539 4.883972.252009 8.5580459.284077 9.1663267.475109 14.4241082.115558 3.3443968c.285809 7.6979825 3.422315 11.3799005 6.641295 13.1258315l.371629.19298c.061947.030771.123885.060855.185794.090268l.370955.168537h0l.369325.153129c.061366.024276.122625.047941.183756.071008l.365107.131348c.060545.020735.120923.040903.181116.060517l.358763.111165c.059369.01746.118513.034397.177412.050825l.526042.135243h0l.342659.076128.334247.065514h0l.324864.055629.252481.037877.245359.032392.353593.039118h0c.618504.033434 1.262081.048955 1.946085.034286L256 107.070419v17.717886c-.82885-.029253-1.569939-.014627-2.291526.024378l-.233741.024583-.24161.02953-.376082.054389h0l-.390993.067619h0l-.268118.053051-.273501.059863-.278388.067048-.282778.074605-.177657.050315h0l-.359344.11017c-.060298.019452-.120788.039458-.181448.060033l-.365856.13041c-.061264.022914-.12266.046427-.184168.070555l-.370221.152257c-3.526778 1.518744-7.286287 5.130262-7.600492 13.593082l-.431012 12.802775-.331785 10.464833-.180173 5.939214-.275643 9.527181-.180885 6.626217-.131001 5.046893-.164895 6.756552-.095607 4.200827-.071474 3.329685c-.02774 3.115321-.580944 6.202685-1.63542 9.132277l-.126617.343227.006826.031891c-3.768791 9.735258-12.886117 14.312022-21.304355 16.44238l-.825556.201749c-.137145.032342-.27405.06405-.410687.095137l-.816394.179156c-.135459.028648-.270597.056699-.405387.084163l-.804356.157854c-.133292.025169-.266184.049776-.398648.073834l-.789439.137841c-.130646.021905-.260812.043285-.39047.06415l-.771645.11912h0l-.758183.107355h0l-.743444.096164h0l-.727424.085547h0l-.710126.075503h0l-.691549.066033h0l-.999694.082547h0l-.639512.044867h0l-.915643.053486h0l-.859457.03863h0l-1.051083.031744h0l-.597761.010215-.549251.004154h-.498244l-.444738-.005389-.388735-.007304-.472632-.013567-.410853-.017082-.141878-.007717v-15.114322c13.994857 1.331615 19.876047-3.155664 22.31192-7.675018l.209052-.40465c.066697-.13481.130448-.269494.191377-.403898l.174447-.402223c.05541-.133692.108123-.266951.158262-.399623l.142822-.396101h0l.128128-.391654c.020171-.064854.039761-.129484.058786-.193872l.107482-.383253h0l.094649-.376498h0l.082563-.36882h0l.07122-.360218h0l.060624-.350692h0l.050771-.340242h0l.041664-.32887h0l.047051-.469961h0l.022156-.296398h0l.023717-.487144.006816-.318349 2.2e-5-.290462-.005262-.2607-.009035-.229065-.011295-.195558-.023333-.2831-.01497-.132029v-8.2885l.023384-7.717423.038025-7.962615.044234-6.711252.059076-6.850978.06829-6.148398.048298-3.575042.044738-2.879343.059356-3.301817.043159-2.090299.046144-1.988167.049227-1.874549.066015-2.165915.002279-1.27079.006754-.773391.008415-.52168.012477-.525991.028088-.796028h0l.026139-.534682.028849-.475635h0l.034786-.477373h0l.041279-.478781h0l.048328-.479856h0l.055933-.4806h0l.064092-.481012c.011393-.080185.023149-.160373.03528-.240558l.077374-.481009h0l.086924-.480594h0l.097028-.479846h0l.107689-.478767c.132071-.557803.287041-1.112726.468881-1.662401l.162535-.469809c.225735-.624551.488047-1.241362.792861-1.846899l.236673-.451984c2.285054-4.197748 6.72536-7.799714 15.353729-9.593145-10.882313-2.259437-15.102716-7.387553-16.739482-12.961544l-.132259-.472049c-.084194-.315334-.160552-.631867-.229804-.949166l-.098639-.476467c-.015582-.079489-.030742-.159012-.045493-.238563l-.083675-.47758h0l-.074382-.4779161h0l-.065637-.4779268h0l-.057439-.4776126h0l-.049787-.4769735h0l-.042682-.4760095h0l-.036124-.4747206h0l-.043088-.7089533h0l-.022123-.4700767h0l-.027089-.7875841h0l-.01201-.5204467-.008081-.5162195-.006457-.7653911-.002142-1.270756-.046381-1.4768048-.05186-1.8780644-.057818-2.4165394-.053189-2.5739042-.048754-2.7097718-.058447-3.7872234-.068917-5.4458222-.052071-5.0892614-.048738-5.8955341-.062819-10.4827325-.040952-11.3589964h0c.859551-.4747945 1.692862-.9956139 2.496301-1.5601882 4.00417-2.8691539 7.019318-6.7347672 9.05233-11.2822977l.139631-.3183969c-2.034804 4.6861014-5.099977 8.6665551-9.206588 11.6055702-.669532.4704785-1.359809.9105718-2.068729 1.318966l-.427572.2412221v-8.434767l.01497-.1320286.017308-.1984717.011861-.1781016.014494-.33115h0l.005262-.2607001-2.1e-5-.2904614-.006818-.3183496-.015122-.3443647-.018534-.2854591h0l-.040568-.453784h0l-.058041-.4818317h0l-.049596-.3353217h0l-.059154-.345565h0l-.069429-.3549195c-.012468-.0598834-.025394-.1201195-.038792-.1806899l-.086188-.3672844c-.01535-.0618331-.031203-.1239634-.047574-.1863723l-.104558-.3776494h0l-.117702-.3834481c-.020752-.0643419-.042082-.1288883-.064004-.1936208l-.138762-.3904796c-.048704-.1308054-.099897-.2622068-.153699-.3940561l-.169353-.3967438c-2.099451-4.707196-7.637445-9.7921914-21.961062-8.6268269l-.784553.0692821z" fill="#fe0902"/><path d="M31.1696335 36.0916099c.1511433.1097007.3059431.2133069.461962.3144754l.4692754.2998487v-5.5532946l-.01497-.1320286-.0173086-.1984717-.0118602-.1781016-.0144945-.33115h0l-.005262-.2607 2.18e-5-.2904615.0068167-.3183496.0151227-.3443647.0188133-.2892103h0l.0256853-.3033538h0l.0333021-.3165736h0l.0416642-.3288699h0l.0507713-.3402427h0l.0606233-.3506919h0l.0712204-.3602177c.0127946-.0607788.0260617-.121916.039817-.1833923l.088513-.3727746h0l.1009728-.3799914c.0179085-.063882.0363672-.1280262.0553916-.1924134l.1210593-.389085c.0213494-.0652822.0432956-.1307688.065854-.1964407l.1428222-.3961007c.225627-.5970239.5033635-1.2059369.844525-1.8127125l.2369615-.4040466c2.6304651-4.3031689 8.5953496-8.3406432 21.963572-7.0686531V.299919021L55.740347.285825023 55.2597915.26860312l-.3221116-.008138449-.7973887-.010631434h0l-.4710764-6.12802e-4-.5165305.003775928-.8554276.015949214h0l-.7822563.024738949h0l-.8409714.03710469-.9219338.05299937h0l-.9752477.070022392h0l-.6775795.057125514h0l-1.0541839.102834175h0l-.7260701.080850069h0l-.7431516.091375912h0l-.7589105.102493763h0l-.7733466.114203629h0l-.7864601.1265055h0l-.7982507.13939938h0l-.8087188.15288529h0l-.8178641.16696319c-.1369993.02903324-.2743246.05867774-.4119482.08894581l-.829102.18919007c-.138707.03281173-.2776572.0662717-.4168231.10039226l-.8373639.21274897c-.4197557.11043664-.840957.22704051-1.2628596.35014462l-.84452.25497388h0l-.8450678.27289984C29.1886881 5.12618413 23.0552622 8.68840981 19.3317061 14.7950419c1.2042701 8.9174502 5.133994 16.5184918 11.8379274 21.296568zM56.0253807 232.051239v-15.114323c-14.6214932 1.39124-20.3864544-3.569175-22.6188238-8.281768l-.1828188-.403176c-.087208-.20113-.168207-.401459-.2434159-.600467l-.1428222-.396101c-.0225585-.065672-.0445046-.131158-.065854-.196441l-.1210593-.389085h0l-.1074821-.383253h0l-.0946498-.376498h0l-.0825626-.36882h0l-.0712204-.360218h0l-.0606233-.350692h0l-.0507712-.340242h0l-.0416642-.32887h0l-.0470504-.469961h0l-.0307504-.439177h0l-.0151227-.344365-.0068167-.318349-2.17e-5-.290463.005262-.2607.0090346-.229065.0112963-.195558.0233324-.283099.0149699-.140491v-9.313663c-.5265635.32504-1.0433758.666332-1.5504369 1.023874-7.181741 5.158372-11.1797231 13.446871-12.057329 23.168794 4.0478065 7.909158 11.9163568 11.944546 19.4072101 13.987382l.8154838.215041c.2711939.069106.5416865.135668.8112759.199775l.8058568.185052h0l.7992264.170871h0l.7913847.157234c.1311767.025099.2619762.049653.3923732.073672l.777351.137795c.1286864.021927.2569198.043343.3846751.064258l.760592.119577c.1257417.018959.2509549.03744.3756142.055454l.7411076.102581c.1223429.016194.2440816.031944.3651906.047261l.7188979.086805h0l.7025773.076966h0l.6850455.067671h0l.6663023.058917h0l.646348.050708h0l.6251823.043039h0l.6028053.035915h0l.8596016.0417h0l.5415637.020477h0l.6328778.018158.5898688.011192.544568.005251.7268994-.001012.612081-.0086.4895275-.012722.6559124-.028241zM238.106593 17.3303476c-3.908681-8.97193986-12.510654-13.33067801-20.556903-15.42910109l-.802578-.20239507h0l-.797707-.18784917c-.13248-.03012508-.264709-.05966587-.396662-.08863326l-.788212-.16701068c-.130753-.02671736-.26118-.05288311-.391259-.07850813l-.776095-.14734864h0l-.766557-.13489419h0l-.755854-.122962604h0l-.743983-.111553883h0l-.730948-.100668025h0l-.716744-.090305031h0l-.701375-.080464901h0l-.684839-.071147635h0l-.667138-.062353232h0l-.964962-.078184107h0l-.918571-.06133781h0l-.868244-.0462561762h0l-.813978-.0329392087h0l-.510561-.0154325966h0l-.614858-.013111353-.567967-.00663345189L202.051981 0l-.466807.00301693579-.412542.00618942234-.511687.01282234767-.375762.01376279-.310564.0154725418V15.1655865c14.621494-1.3912392 20.386455 3.5691759 22.618824 8.2817691l.182819.4031757c.087208.2011305.168207.4014594.243416.6004674l.142822.3961007c.022559.0656719.044505.1311586.065854.1964407l.12106.389085h0l.107482.3832535h0l.094649.3764984h0l.082563.3688198h0l.07122.3602177h0l.060624.3506919h0l.050771.3402427h0l.041664.32887h0l.04705.4699606h0l.030751.439177h0l.015122.3443647.006818.3183496 2.1e-5.2904614-.005262.2607001-.009034.2290655-.017321.2801861-.032278.3327618v8.4325055c.859551-.4747944 1.692862-.9956139 2.496301-1.5601881 6.499158-4.6513108 10.389877-11.9110613 11.716038-20.4482157zm-11.07246 177.2568744c-.996865-.709181-2.04105-1.349376-3.125252-1.916107v8.2885l.01497.132029.017308.198472.01186.178101.014495.33115h0l.005262.2607-2.2e-5.290462-.006816.318349-.023717.487144h0l-.022156.296398h0l-.047051.469961h0l-.041664.32887h0l-.050771.340242h0l-.060624.350692h0l-.07122.360218h0l-.082563.36882h0l-.094649.376498h0l-.107482.383253c-.019025.064388-.038615.129018-.058786.193872l-.128128.391654h0l-.142822.396101c-.050139.132672-.102852.265931-.158262.399623l-.174447.402223c-.060929.134404-.12468.269088-.191377.403898l-.209052.40465c-2.435873 4.519354-8.317063 9.006633-22.31192 7.675018v15.114322l.223667.011621.644187.022835h0l.791093.014221h0l.480383.002588.819376-.005021h0l.608366-.010966.655055-.018408.811323-.032031h0l.866207-.045277h0l.606003-.038422h0l.948864-.071307h0l.657435-.057422h0l.675952-.065944h0l.693292-.074993h0l.709458-.084569h0l.724449-.094673h0l.738263-.105304h0l.750904-.116461c.126139-.020369.252755-.041225.379824-.062579l.76766-.134185h0l.777362-.146661c.130303-.025512.260962-.051566.391952-.078173l.78971-.166361c.132215-.028862.264711-.058298.397465-.08832l.799416-.187248c8.555857-2.074154 17.965174-6.637193 21.809478-16.56751-1.521183-7.932581-5.353395-14.64139-11.472258-19.024543z" fill="#ffab00"/></svg>