<svg width="256px" height="255px" viewBox="0 0 256 255" xmlns="http://www.w3.org/2000/svg" preserveAspectRatio="xMidYMid"><title>typesense</title><path d="M75.1044528 80.3030095c.5505681 2.7513453.8256029 5.4105141.8256029 7.9785028 0 2.3841339-.2750348 4.9516244-.8256029 7.7029697l-34.9386476-.2750349v92.4361349c0 7.702969 3.5764001 11.554454 10.7291008 11.554454h20.9081318c1.2839943 3.118059 1.9257424 6.236117 1.9257424 9.353678 0 3.118058-.1833566 5.043801-.5500698 5.777227-8.436396 1.100638-17.1483252 1.650707-26.1351896 1.650707-17.7903225 0-26.6855086-7.611291-26.6855086-22.833874V95.7094471L.825323877 95.984482C.275108125 93.2331367 0 90.6656462 0 88.2815123c0-2.5679887.275108125-5.2271575.825323877-7.9785028l19.532688323.2750348V51.691908c0-4.9519732.7336257-8.4366452 2.200877-10.4541158 1.4672513-2.2008769 4.3100258-3.3013154 8.5283234-3.3013154h7.4279349l1.6506577 1.6506577v41.266443l34.9386476-.550568zM85.5806403 205.557792c.1787062-4.019895 1.2757632-8.405144 3.2862071-13.156245 2.1941141-4.933282 4.6612515-8.7705 7.4014121-11.511653 14.4354835 7.857112 27.1335465 11.786165 38.0991535 11.786165 6.026367 0 10.871289-1.187899 14.524837-3.563201 3.837217-2.375799 5.758308-5.57315 5.758308-9.593541 0-6.395197-4.934275-11.511653-14.802824-15.348871l-15.348871-5.755826c-23.023306-8.405145-34.5349585-21.835903-34.5349585-40.291282 0-6.577875 1.1864101-12.42504 3.5641944-17.541495 2.5564904-5.2991335 6.0263677-9.7757219 10.4145961-13.4302622 4.566934-3.8372177 9.957902-6.7610484 16.172904-8.770996 6.210038-2.0099475 13.154757-3.0151694 20.829192-3.0151694 3.469877 0 7.307095.2745124 11.511653.8225446 4.383264.5480321 8.771492 1.3705767 13.154757 2.4666409 4.388228.9138833 8.587822 2.0099475 12.60871 3.2891855 4.020887 1.2792381 7.490765 2.6493184 10.414595 4.1112338 0 4.5684235-.913386 9.319028-2.74016 14.2528068-1.826774 4.933778-4.293911 8.587822-7.401412 10.96362-14.435484-6.395693-26.949877-9.593044-37.548143-9.593044-4.750604 0-8.498469 1.187403-11.23863 3.563202-2.74016 2.192625-4.110241 5.115959-4.110241 8.770499 0 5.664488 4.566935 10.141573 13.705768 13.430262l16.71895 6.030339c12.0577 4.202573 21.012862 9.958399 26.860524 17.26748 5.847662 7.30908 8.771492 15.805564 8.771492 25.490443 0 12.973568-4.844921 23.388661-14.529801 31.245773-9.684879 7.674932-23.569352 11.51215-41.658383 11.51215-17.726655 0-34.356253-4.477085-49.8838297-13.430759zm150.8074787 48.031331V.828727039C239.149792.276242847 242.28169 0 245.783811 0 249.466042 0 252.873106.276242847 256 .828727039V253.589123c-3.126894.552335-6.533958.829002-10.216189.829002-3.502121 0-6.634019-.276667-9.395692-.829002z" fill="#1035bc"/></svg>