<svg width="256px" height="257px" viewBox="0 0 256 257" xmlns="http://www.w3.org/2000/svg" preserveAspectRatio="xMidYMid"><path d="M121.239531.47435412c33.019316-2.71855398 56.734003 6.04513812 82.250495 31.54659978 27.548844 27.5324169 45.864188 63.2119109 50.800209 101.2182971 5.491604 42.265993-2.061836 73.806575-25.326644 96.898051-22.246119 22.080391-54.7395 29.363654-98.146007 25.734754h0l-1.796956-.157655c-36.9625602-3.398491-63.1063549-15.517048-88.4376016-41.17176C13.525519 187.139558-.732370213 156.026391.0289819699 123.37039.401368488 107.383336 4.93009017 93.7578927 13.6639513 80.3889177c5.7257716-8.7644739 11.5407275-15.601512 23.7041651-28.140203h0l4.059416-4.1580134 4.4747119-4.5355582C74.7290193 14.5793771 93.7072016 2.74118195 121.239531.47435412zm80.288391 33.50986748C176.58625 9.05724142 153.671595.589198793 121.467288 3.24065127 94.3271196 5.47519117 75.6884654 17.3319772 46.5188613 46.8760997h0l-2.1101797 2.1410267C30.1966379 63.4648858 23.5365117 70.8518409 17.66965 79.3947543h0l-.8536869 1.2593881-.8282827 1.2528518C7.52700788 94.8577977 3.16375473 107.9854 2.80388584 123.435056c-.74247018 31.846111 13.19403406 62.257962 39.75423966 89.157391 25.2669245 25.589569 51.2246089 37.399166 88.4906625 40.513597h0l1.848627.148387c41.74501 3.210316 72.867735-4.002288 94.110842-25.08714 22.570324-22.402165 29.919185-53.088499 24.529447-94.570482-4.85487-37.3815432-22.88348-72.5024605-50.009782-99.6125874zm-34.543601 59.4060871v13.5590853h-28.797444v77.712852h-14.344596v-77.712852H95.044837V93.3903087h71.939484z" fill="#262627"/></svg>