<svg width="256px" height="260px" viewBox="0 0 256 260" xmlns="http://www.w3.org/2000/svg" preserveAspectRatio="xMidYMid"><path d="M109.525333 4.05333333c-4.714666 4.032-8.064 8.74666667-8.064 22.82666667 0 38.3146667 48.362667 153.408 81.301334 153.408 3.699601.050187 7.384509-.475201 10.922666-1.557333L193.616 178.75l-.841742 1.350166c-28.427712 45.311393-62.641181 78.550737-83.344717 79.217616L108.8 259.328C63.8293333 259.328 0 123.562667 0 63.8293333c0-9.408 2.13333333-16.7893333 5.376-21.376C20.8426667 23.552 69.2053333 8.74666667 109.525333 4.05333333zM172.672 0C214.314667 0 256 6.72 256 30.2293333 256 77.9306667 225.749333 135.744 210.304 135.744c-27.541333 0-61.866667-76.608-61.866667-114.9226667C148.437333 3.34933333 155.136 0 172.608 0h.064z" fill="#f49700"/></svg>