<svg width="256px" height="256px" viewBox="0 0 256 256" xmlns="http://www.w3.org/2000/svg" preserveAspectRatio="xMidYMid"><title>Udacity</title><path d="M19.6097166 59.5587476l64.5545355-37.5042418.0389147 105.1729972c-.1201281 38.978929 27.2268062 73.945023 65.0232052 83.1437l.845973.205614-.539731.680884c-.856125 1.122447-1.678412 2.19602-2.691887 3.202177-3.421117 3.385882-7.185698 6.459972-11.18546 9.134634-4.031909 2.694885-8.337913 5.008879-12.801269 6.872884v.001685c-4.547953 1.897712-9.300631 3.350489-14.120987 4.317884-5.087684 1.019641-9.4867455 1.479744-14.1971255 1.479744-.1505832 0-.3045504 0-.4568256 0-5.1282906-.01854-10.2379696-.546056-15.1852219-1.572439-4.8152803-.99436-9.557807-2.477474-14.0956082-4.405522-4.4413602-1.885914-8.7355209-4.223504-12.7606622-6.948725-3.9896104-2.704998-7.7321965-5.800998-11.1245498-9.203733-3.4058887-3.411162-6.4936915-7.159395-9.1720432-11.138522-2.7071147-4.017891-5.0284656-8.307124-6.8997588-12.751408-1.901748-4.511701-3.3602061-9.244182-4.3347674-14.065987-1.0523909-5.201011-1.1792869-10.573928-1.1640594-15.14293l-.0101516-101.3169011.2774792-.1617943zM182.031527 192.098566c3.732434-10.496402 5.64095-20.766965 5.671405-30.523495V50.501641l48.937867-27.9920888V127.694347c-.013536 4.769559-.458518 9.288-1.32141 13.425551-.889964 4.269008-2.211375 8.460491-3.923625 12.458156-1.688562 3.940364-3.773041 7.735787-6.194216 11.280092-2.402565 3.520711-5.160438 6.830751-8.197482 9.839113-3.042121 3.010047-6.382023 5.738639-9.928344 8.106565-3.570007 2.389836-7.397191 4.444285-11.376649 6.106047-4.014991 1.727491-7.759269 2.873533-12.513638 3.827445-.160735.032022-.341774.064044-.52958.096066l-.942414.165165.318086-.899981zM5.4e-5 49.3909909.0457365617 160.985197C-.109922537 212.678456 41.9823282 254.861248 93.8743344 255.019672h.284247c16.4880206 0 32.7120976-4.311143 46.9176836-12.459842l68.63551-39.285664c28.456853-14.704736 46.181686-43.642311 46.278127-75.529259l.010152-116.5508394c0-.3320153-.179347-.6421209-.466978-.8089712v-.0016854L238.720202.589803456c-.287631-.168535666-.648016-.168535666-.939031-.006741426l-68.95698 38.76657387c-.296091.1651649-.478821.4786414-.478821.817398l.059218 121.3305111c-.013536 5.101575-.543115 10.191352-1.575203 15.129447-1.001632 4.803267-2.487161 9.525635-4.419365 14.039021-.362076.840993-.73938 1.67693-1.131912 2.50444l-.17427.367408-.404376-.052246c-1.165751-.151683-1.933894-.294938-3.984534-.679199l-.543115-.102806c-4.316156-.884813-13.104128-3.37577-23.57897-10.117197-3.548012-2.403318-6.872687-5.152135-9.887736-8.17735-3.023509-3.028586-5.762771-6.35548-8.139956-9.886302-2.405948-3.571271-4.466739-7.378492-6.124847-11.317171-1.688563-4.009463-2.98121-8.211057-3.845795-12.480066-.771528-3.812276-1.092998-7.766123-1.074386-13.218252V11.1030583c0-.3303299-.169195-.6320087-.453442-.8056005L86.2724177.136442515c-.1505832-.0910092599-.3197779-.1365138897572-.4906645-.1365138897572-.160735 0-.3231619.0421339164572-.4669773.1247163927572L.472107137 48.5769637c-.28932289.1668503-.472053137.4786412-.472053137.8140272h0z" fill="#2015ff"/></svg>