<svg width="256px" height="346px" viewBox="0 0 256 346" xmlns="http://www.w3.org/2000/svg" preserveAspectRatio="xMidYMid"><path d="M119.860318 20.6225885C182.707016 9.52092641 238.215326.300901936 243.107584.112738171c6.962059-.1881637644 9.408188.564491294 10.913498 3.386947769 2.069802 3.95143905 2.822457 228.80713806.752655 234.26388706-3.01062 7.714714-8.655533 1.128983-45.911958-52.874018-21.262506-30.670694-46.664614-66.798136-56.637293-80.534091-16.746575-22.9559795-17.875558-25.2139447-17.122903-32.1760039l.940819-7.3383869-4.51593 3.7632753c-2.446129 2.0698014-5.080422 4.5159304-5.644913 5.4567492-.752655.9408188-2.822457 1.1289826-4.515931.3763275-2.822456-.9408188-3.01062-2.8224564-2.257965-11.1016621.564491-5.2685854 1.693474-12.2306447 2.446129-15.2412649.940819-4.1396029.752655-5.2685854-1.317146-4.5159304-1.50531.5644913-3.386948 5.8330767-4.515931 12.795136-1.128982 7.1502231-3.01062 12.2306447-4.51593 12.795136-2.634293.9408188-2.634293-.5644913.940819-20.1335228.940819-4.8922579.752655-6.2094042-1.317147-5.4567492-1.50531.5644913-3.198784 4.7040941-3.763275 10.1608433-1.693474 14.1122824-3.01062 16.3702475-11.101662 20.1335228-5.6449129 2.6342927-11.1016621 8.4673694-22.2033242 23.5204706-26.1547633 35.5629515-34.6221327 49.1107425-33.8694777 54.3793285.9408188 7.338386 6.0212405 9.784515 12.2306447 5.644912 12.2306447-7.714714 30.2943661-15.99392 38.1972443-17.122902 4.7040941-.752655 12.9832999-3.951439 18.6282129-6.962059 8.091042-4.515931 10.537171-5.268586 11.666153-3.198784 10.349007 15.805756 29.165384 57.201784 44.406649 97.46883 11.101662 29.541711 38.761735 116.849698 37.256425 118.166844-.376327.376327-2.822456.376327-5.268585-.376328-3.951439-.940818-6.021241-5.080421-15.241265-30.670693-6.021241-16.370248-12.230645-31.235185-13.735955-33.116823-2.822457-3.01062-9.220025-3.198784-83.3565479-3.198784-59.8360772 0-80.72225504-.564491-82.41572892-2.257965C.564491294 274.455507 1.05769276e-14 246.042779 0 159.675611-1.17751852e-14 63.5239269.376327529 45.2720417 2.63429271 43.3904041 4.13960282 42.0732577 56.8254569 31.9124144 119.860318 20.6225885z" fill="#ffbd2b"/></svg>