<svg width="256px" height="256px" viewBox="0 0 256 256" xmlns="http://www.w3.org/2000/svg" preserveAspectRatio="xMidYMid"><path d="M128 0c70.736842 0 128 57.2631579 128 128 0 70.736842-57.263158 128-128 128C57.2631579 256 0 198.736842 0 128 0 57.2631579 57.2631579 0 128 0zm29.834586 42.3458647c-5.293233-1.6842106-11.067669.481203-13.954887 5.0526315-5.052631-.962406-10.105263-1.443609-15.398496-1.443609-45.4736842 0-82.0451128 36.8120301-82.0451128 82.0451128 0 31.759398 18.0451128 59.428571 44.5112782 72.902256-.7218045 5.293233 2.6466166 10.586466 7.9398496 12.511278 1.203008.481203 2.646617.721804 3.849624.721804 1.924812 0 3.849624-.481203 5.533835-1.443609 1.924812-.962406 3.368421-2.406015 4.571428-4.330827.481203-.721804.962406-1.443609 1.203008-2.406015h0l9.383458-27.669173 32.721805-93.1127817 9.383459-27.6691729c.240601-.7218045.481203-1.6842105.481203-2.6466165.240601-2.6466166-.481203-5.0526316-1.684211-7.2180452-1.443609-2.406015-3.609022-4.330827-6.496241-5.293233zm23.338346 23.3383458-11.30827 34.1654136c5.533834 7.9398499 8.661654 17.8045109 8.661654 28.1503759 0 22.135338-13.954887 40.661654-33.443609 47.639098h0l-11.308271 34.165413c42.586466-3.127819 76.030075-38.49624 76.270677-81.804511 0-25.022556-11.308271-47.3984962-28.872181-62.3157895h0zM128 77.4736842c1.443609 0 3.12782 0 4.571429.2406015h0L100.81203 170.586466C86.8571429 161.443609 77.4736842 145.804511 77.4736842 128c0-27.909774 22.6165418-50.5263158 50.5263158-50.5263158z" fill="#303030"/></svg>