<svg width="256px" height="263px" viewBox="0 0 256 263" xmlns="http://www.w3.org/2000/svg" preserveAspectRatio="xMidYMid"><path d="M166.872326 131.23686l45.908792-79.2745128 22.184451 79.2745128-22.184451 79.256383-45.908792-79.256383h0zm-22.376403 12.873657 45.916256 79.262782-79.96661-20.486732-57.7704291-58.77605h91.8207831 0zm45.905592-105.0324909-45.905592 79.2745129H52.6751399l57.7704291-58.7792499 79.955946-20.495263h0zm65.539199 65.1808869L227.932619.0603519323 123.392808 27.9852677l-15.474622 27.2072242-31.4014002-.2250117L0 131.244325l76.5167858 76.258715h.0031992l31.387537-.232476 15.497017 27.207224 104.52808 27.92065 28.008095-104.179366-15.90545-26.982212 15.90545-26.977947h0z" fill="#222c37"/></svg>