<svg width="256px" height="269px" viewBox="0 0 256 269" xmlns="http://www.w3.org/2000/svg" preserveAspectRatio="xMidYMid"><defs><path id="b" d="M139.789 0l-2.48 1.431V21.83L41.416 77.194v14.061l-8.219-14.061L0 133.989h23.577v67.295l116.212 67.095L256 201.284V67.095L139.789 0"/></defs><mask id="a" fill="#fff"><use href="#b"/></mask><use fill="#a4d43a" href="#b"/><path d="M35.577 73.823l104.212-60.167L244 73.823v120.333l-104.211 60.166-104.212-60.166V73.823" fill="#62655d" mask="url(#a)"/><path d="M139.789 20.398 41.416 77.194v113.591l98.373 56.795V20.398" fill="#3f4238" mask="url(#a)"/><path d="M139.789 0l-2.48 1.431v20.63l2.88-1.663 98.372 56.796v113.591l-98.372 56.795-98.373-56.795v-56.796h24.579L33.197 77.194 0 133.989h23.577v67.295l116.212 67.095L256 201.284V67.095L139.789 0" fill="#a4d43a" mask="url(#a)"/><path d="M78.327 139.189l47.729-19.998c0 0 10.092 34.155 15.199 40.263 42.93-65.728 83.46-81.06 83.46-81.06v51.196c0 0-40.216 20.477-87.46 72.527-25.664-45.129-58.928-62.928-58.928-62.928" fill="#f7f7f7" mask="url(#a)"/></svg>