<svg width="256px" height="256px" viewBox="0 0 256 256" xmlns="http://www.w3.org/2000/svg" preserveAspectRatio="xMidYMid"><path d="M204.555804 123.368487l-.243809 29.257085c-.009582 2.999236-2.367949 5.464802-5.363799 5.607608-2.995849-.142806-5.354217-2.608372-5.363799-5.607608l.243809-29.257085c0-16.69685-13.535471-30.2323213-30.232321-30.2323213-15.116161 0-28.525658 13.1656883-29.744703 29.5008943v1.219045l-.487618 11.215216v.731427c-.130657 14.63357-8.058306 28.085841-20.796677 35.289474-12.7383718 7.203633-28.3522048 7.064224-40.9599195-.365713-12.6077147-7.429937-20.2938993-21.021618-20.1632424-35.655188.0667829.007944.1335204-.015177.1810759-.062733.0475555-.047556.0706765-.114293.0627331-.181076h-.243809v-28.03804c.0256245-1.383849.6000557-2.700811 1.5968719-3.661047.9968162-.960236 2.334325-1.485051 3.7181652-1.458943 1.3839221-.039346 2.7267404.472963 3.7327691 1.424118 1.0060286.951154 1.5927718 2.263158 1.6310299 3.64711l-.2438091 28.03804c0 16.69685 13.5354713 30.232322 30.2323214 30.232322 16.6968505 0 30.2323215-13.535472 30.2323215-30.232322v-.975236l.487618-10.23998v-1.219045c1.511616-22.137861 19.309676-39.6921121 40.521063-39.6921121 22.683293.0806597 41.013879 18.5203561 40.959919 41.2037281.243809-.731427.243809-.731427.243809-.487618h0zM128.487383 1.65942771e-4C57.7958269-.267677003.271007063 56.8210742 9.2922576e-4 127.512629-.267253283 198.204183 56.8212196 255.729279 127.512773 255.999701c70.691553.268523 128.216925-56.819672 128.486978-127.511224v-.487618C256.134313 57.4621513 199.074796.162521717 128.536145 1.65942771e-4h-.048762z" fill="#3aafa9"/></svg>