<svg width="256px" height="256px" viewBox="0 0 256 256" xmlns="http://www.w3.org/2000/svg" preserveAspectRatio="xMidYMid"><title>UnJS</title><path d="M255.148759 256.00121c-85.104877 0-170.1169489 0-255.1284252256 0C.0135550496 255.978009 0 255.955608 0 255.932407 0 170.625121 0 85.3186342 0 0c85.3286243 0 170.658312 0 256 0 0 85.3170342 0 170.645122 0 256.00121-.244012 0-.500824 0-.851241 0z" fill="#ecdc5a"/><path d="M211.164252 167.347364c2.589724 3.428964 3.732979 7.342751 4.214602 11.459749.260013 2.220906.336016 4.473014.344017 6.710721.036001 9.424452.0088 18.848903.020813 28.273354.002388 2.170504-.704846 3.928189-2.696142 5.00264-3.13055 1.689681-6.954733-.512024-7.023536-4.068995-.044802-2.274509-.0072-4.549818-.0088-6.824327l-.004201-12.452496c-.003-4.150699-.0126-8.301298-.043802-12.451897-.023201-3.007344-.596028-5.928284-2.269708-8.515608-1.782486-2.757732-4.38261-4.250603-7.599564-4.617021-6.605117-.752036-12.066179 1.427269-16.283181 6.588316-1.808886 2.215306-2.527321 4.817031-2.52412 7.653966.0096 10.074883.012 20.148966-8e-4 30.223848-.004801 3.511368-3.180953 5.820279-6.509912 4.772229-1.898491-.597629-3.148151-2.464918-3.204954-4.821831-.021601-.916044-.0032-1.832088-.0032-2.748132 0-14.683103.0048-29.366206-.007309-44.05011-.001491-1.959294.578536-3.627374 2.276218-4.712226 1.527273-.976046 3.182552-1.05445 4.80103-.22561 1.652079.84644 2.524921 2.253708 2.645726 4.111397.024002.378418.003201.760836.003201 1.283261.257932-.20929.465686-.366354.652754-.524851l.136883-.11998c4.138599-3.75378 8.926828-6.213898 14.515896-6.718722 6.444308-.582428 12.498198.436821 17.304829 5.324255.43362.441621.820039.928845 1.26326 1.44807zm-61.239733-5.310655c2.671328.464823 4.280205 2.279309 4.276204 5.01464-.0112 10.901323.116006 21.808245-.196009 32.701567-.21201 7.430756-3.562571 13.380641-10.146886 17.207224-2.788934 1.620878-5.84988 2.49452-9.050834 2.870538-4.144198.488023-8.280396.41762-12.295789-.747236-6.379505-1.851289-11.134133-5.654671-13.682255-11.954973-1.343264-3.320959-1.721682-6.800325-1.732883-10.328494-.030401-9.867673-.017601-19.736146-.0072-29.604619.004-3.232954 2.190505-5.344256 5.291453-5.163447 2.50332.147207 4.417012 2.409715 4.423412 5.290653.009067 3.899921.005689 7.799841.004326 11.699761l8.14e-4 11.274601c.001036 2.712437.010541 5.424759.058063 8.135929.039202 2.231307.568827 4.38981 1.655279 6.368305 1.516873 2.760932 3.838584 4.497815 6.866729 5.320255 3.991392 1.083252 7.961982 1.030449 11.817366-.490424 3.95779-1.560075 6.163496-4.641822 6.903531-8.754819.280014-1.558475.362417-3.169752.368018-4.757828.032801-9.60286.0128-19.20492.018401-28.80698.0016-2.676928 1.280061-4.521017 3.598572-5.137846.556827-.148007 1.165656-.099205 1.829688-.136807z" fill="#111827"/></svg>