<svg width="256px" height="256px" viewBox="0 0 256 256" xmlns="http://www.w3.org/2000/svg" preserveAspectRatio="xMidYMid"><title>unocss</title><path d="M137.175619 195.927146c0-32.813353 26.600026-59.412191 59.41219-59.412191h0c32.812165 0 59.412191 26.598838 59.412191 59.412191h0c0 32.812164-26.600026 59.41219-59.412191 59.41219h0c-32.812164 0-59.41219-26.600026-59.41219-59.41219h0z" fill="#858585"/><path d="M137.175619 59.4121906C137.175619 26.5997883 163.775645 0 196.587809 0h0C229.399974 0 256 26.5997883 256 59.4121906v53.4709714c0 3.280741-2.660478 5.941219-5.941219 5.941219H143.116838c-3.280741 0-5.941219-2.660478-5.941219-5.941219V59.4121906z" fill="#ccc"/><path d="M118.824381 195.927146c0 32.812164-26.5997881 59.41219-59.4121904 59.41219h0C26.5997883 255.339336 0 228.73931 0 195.927146v-53.470972c0-3.281929 2.65999072-5.941219 5.94123095-5.941219H112.883162c3.281217 0 5.941219 2.65929 5.941219 5.941219v53.470972z" fill="#4d4d4d"/></svg>