<svg width="256px" height="256px" viewBox="0 0 256 256" xmlns="http://www.w3.org/2000/svg" preserveAspectRatio="xMidYMid"><title>Unreal Engine</title><path d="M127.99215 1.60843828e-15C161.940499-.00416198102 194.499837 13.4788484 218.506417 37.4824842 242.512997 61.4861199 256 94.0438036 256 127.992153 256.004335 198.684601 198.700297 255.995667 128.007849 256 57.3154014 256.004337.0043351426 198.700299 0 128.007851-.00429179118 58.022328 56.1593525 1.15189662 125.875437.0172791433L127.99215 1.60843828e-15zM175.007469 14.4630543C129.088575-4.55631518 76.2341352 5.95840285 41.0906902 41.1040928 5.94724528 76.2497828-4.56409642 129.104894 14.4582063 175.022573c19.0223027 45.917679 63.8320202 75.854953 113.5339437 75.851778 67.862899-.004335 122.874349-55.019299 122.874349-122.882198 0-49.7019242-29.940136-94.5097292-75.85903-113.5290987zm-58.624566 36.0713195c-10.714417 6.1068253-16.7427488 16.0755504-16.7427488 24.4429999 0 7.5121801 2.5403388 10.3203025 5.1976518 10.9897155l.285049.0636559c.047546.0092843.095102.0179158.142653.0259091l.28515.0404191c.332361.0384939.663168.0471494.987689.0309769l.276511-.0198256h0l.272769-.0312851c.045113-.0061302.090043-.0127087.134775-.0197208l.265916-.0471596h0l.260518-.0568662h0l.254459-.0658715h0l.247737-.0741758h0l.240352-.0817788h0l.232306-.0886807h0l.223597-.0948814h0l.214225-.1003809h0l.204192-.1051793h0l.193495-.1092765h0l.182137-.1126725h0l.170116-.1153674h0l.157433-.1173611c.025145-.0196873.049734-.0394285.073753-.059209v77.646164c.405968.975551.933428 1.895968 1.569878 2.739437 2.177317 3.011018 5.68014 4.778524 9.395719 4.741032 2.529747 0 5.2936-.899827 7.899861-2.13855l.648055-.316416c.429546-.215218.853807-.438552 1.270971-.667404l.620195-.347092h0l.608189-.353423h0l.594822-.357804h0l.580095-.360239h0l.564009-.360726h0l.546561-.359265h0l.527755-.355857h0l.753393-.523134h0l.703427-.504509h0l.64887-.479312h0l.589723-.447539h0l.525987-.409195h0l.842401-.677061h0l.717987-.604754h0V97.8190982c0-6.3972527-4.819525-14.1289017-9.6469-16.7662967l.462327-.0652592h0l.547488-.058235h0l.57133-.0446884h0l.499464-.0271803h0l.555425-.0180152h0l.607006-.0054893h0l.431164.004959h0l.450843.0130156h0l.469225.0220679h0l.486309.0321162h0l.502094.0431601h0l.516583.0551998c.174465.0205173.351128.0432071.529773.0682355l.541664.0822668c.091196.0149357.182834.0304976.274886.0467063l.557069.105181c2.433637.4908603 5.11083 1.4470582 7.556304 3.233222l.281115.2097998c1.295391-1.5864748 2.673565-3.1035146 4.128779-4.5447967 8.029926-7.8886368 15.834182-12.9514933 23.208683-16.3228062l.980703-.439584c1.793219-.7878919 3.560218-1.477721 5.298014-2.0860543l.944975-.3238356c.314015-.1053175.627046-.2080405.939075-.3082685l.933069-.2932991c.310009-.0953378.619-.1882802.926953-.2789269l.920732-.2651524c.15293-.0430773.305597-.0856057.457998-.1275974l.911197-.2456106h0l.904706-.2333297h0l.898107-.2216462h0l.891402-.2105601h0l.884588-.2000716h0l.877667-.1901804h0l.870638-.1808867h0l.863503-.1721905h0l.85626-.1640917h0l1.270572-.2322594-.524798.4300046h0l-.53909.4591002h0l-.702304.6175247h0l-.623225.5643535h0l-.697664.6489574h0l-.502788.4786859h0l-.530359.514856h0l-.555723.5504532h0l-.578882.5854778h0l-.599836.6199298c-.101596.1061608-.203973.2137332-.307086.3227053l-.62713.6705338c-.317609.3435697-.641007.699522-.968955 1.0675346l-.661592.7520105c-.333462.3839501-.670645.7797459-1.01031 1.1870651l-.682271.8299079c-6.163593 7.6057347-12.863151 18.8755119-12.863151 31.9306171l.008793 4.8995205h0l.06184 12.097597h0l.392481 44.887472h0c4.43384 4.258767 9.974303 3.119578 15.877592-.606691l.622707-.401673h0l.625194-.420055c.208792-.143001.417965-.288944.627489-.437708l.629591-.454633h0l.631499-.470829h0l.633216-.486297h0l.634739-.501036h0l.63607-.515047h0l.637208-.528329h0l.638153-.540882h0l.638905-.552707h0l.639465-.563804h0l.639831-.574172h0l.640006-.583811h0l.959913-.892197h0l.959219-.909787h0l.957876-.924919h0l.637517-.623805h0l1.271602-1.261593h0l1.39055-1.402043 1.381428-1.410958.343692-.353226c-.044114.212876-.091273.432414-.141588.658381l-.160527.696956c-.05674.238592-.116747.483381-.180132.734131l-.2004.769907c-.035126.131221-.071125.263874-.10801.397931l-.232052.820944h0l-.253986.853219h0l-.276583.884093c-4.081485 12.736746-15.166315 34.346626-41.767505 46.916639l-12.559023-14.128901-21.193353 21.318942c-24.461384-.328999-47.3622141-12.07562-61.9002883-31.750781 2.2547563.70131 4.5832874 1.138569 6.9388607 1.302998l.1861171.002069h0l.3733477-.003965c.0623022-.001598.1246278-.003678.1869538-.006256l.3737757-.021616h0l.3726772-.034491c2.9740721-.329812 5.7364165-1.981067 5.7364165-7.000192v-57.49678c.1051913-3.000375-1.2190955-5.872779-3.5690118-7.741257-2.2659907-1.801746-5.2265891-2.464001-8.0349871-1.810941l-.3113749.077984c-3.4876266.797969-6.7273147 4.407561-9.4546716 8.729146l-.4759261.769597c-.1568334.25871-.3118402.519457-.4649666.781813l-.4536842.791468h0l-.4420789.798557h0l-.4301507.803082h0l-.4178997.805043h0l-.4053256.804439h0l-.3924288.801273h0l-.3792091.795541h0l-.5433202 1.176955h0l-.344747.769994h0l-.4901137 1.126615h0l-.4567367 1.084873h0l-.42227 1.034476h0l-.3867136.975424h0l-.3500674.90772h0l-.4078677 1.090016h0l-.3381986.933752h0l-.4570568 1.316663h0l-.1476941.446424h0c-.2208117-22.897399 9.6431323-44.7324271 26.9705035-59.7024588 11.6924511-9.9090697 23.168887-14.6337745 32.845866-16.9873355l.961641-.2275565h0l.949293-.212374h0l.936593-.1978167c.15502-.0317911.309497-.0630017.463423-.0936448l.916883-.1771529c.151692-.0284253.302818-.0563091.453371-.0836645l.896381-.1578958h0l.882273-.1458391c.145851-.0233365.291099-.0461967.435737-.0685936z"/></svg>