<svg width="256px" height="341px" viewBox="0 0 256 341" xmlns="http://www.w3.org/2000/svg" preserveAspectRatio="xMidYMid"><title>upstash</title><g style="fill:#00c98d"><path d="M0 298.416784c56.5542815 56.553539 148.246768 56.553539 204.801032 0 56.553539-56.554264 56.553539-148.246678 0-204.8009416l-25.60057 25.5998456c42.415878 42.415879 42.415878 111.185371 0 153.600525-42.415155 42.415879-111.1847192 42.415879-153.6005978 0L0 298.416784z"/><path d="M51.200362 247.216367c28.2769145 28.27677 74.12276 28.27677 102.400253 0 28.27677-28.276769 28.27677-74.123339 0-102.400108l-25.599846 25.599846c14.138385 14.138385 14.138385 37.061307 0 51.200416-14.139109 14.138385-37.0620312 14.138385-51.200416 0l-25.599991 25.599846z"/><path d="M256 42.415426c-56.554263-56.5539013-148.246678-56.5539013-204.8005793 0-56.55427784 56.5542634-56.55427784 148.246678 0 204.800941l25.5994841-25.599846c-42.4147924-42.415878-42.4147924-111.18537 0-153.6005248 42.4158782-42.4158785 111.1853702-42.4158785 153.6005252 0L256 42.415426z"/><path d="M204.800308 93.6158424c-28.27677-28.2767697-74.124063-28.2767697-102.400833 0-28.2774937 28.2774936-28.2774937 74.1233386 0 102.4001086l25.599846-25.599846c-14.138385-14.138385-14.138385-37.061308 0-51.200417 14.138385-14.138384 37.061308-14.138384 51.200417 0l25.60057-25.5998456z"/></g><g style="fill-opacity:0.4;fill:#fff"><path d="M256 42.415426c-56.554263-56.5539013-148.246678-56.5539013-204.8005793 0-56.55427784 56.5542634-56.55427784 148.246678 0 204.800941l25.5994841-25.599846c-42.4147924-42.415878-42.4147924-111.18537 0-153.6005248 42.4158782-42.4158785 111.1853702-42.4158785 153.6005252 0L256 42.415426z"/><path d="M204.800308 93.6158424c-28.27677-28.2767697-74.124063-28.2767697-102.400833 0-28.2774937 28.2774936-28.2774937 74.1233386 0 102.4001086l25.599846-25.599846c-14.138385-14.138385-14.138385-37.061308 0-51.200417 14.138385-14.138384 37.061308-14.138384 51.200417 0l25.60057-25.5998456z"/></g></svg>