<svg width="512px" height="153px" viewBox="0 0 512 153" xmlns="http://www.w3.org/2000/svg" preserveAspectRatio="xMidYMid"><path d="M140.106589 96.6278184c-8.320937 0-16.117131-3.5232796-23.201172-9.2579795l1.724158-8.0960468.074964-.2998536c1.536749-8.6207906 6.40937-23.0887262 21.40205-23.0887262 11.244509 0 20.390044 9.1455344 20.390044 20.3900439-.037482 11.2070278-9.183017 20.3525622-20.390044 20.3525622h0zm0-61.3950219c-19.153148 0-33.995901 12.4439239-40.030454 32.9089312-9.2204981-13.8307467-16.192094-30.4351391-20.2775991-44.4158126H59.1836018v53.6363104c0 10.5698389-8.6207907 19.1906296-19.1906296 19.1906296-10.569839 0-19.1906296-8.6207907-19.1906296-19.1906296V23.7259151H.187408492v53.6363104C.112445095 99.3265007 17.9912152 117.355198 39.9554905 117.355198c21.9642752 0 39.8430454-18.0286973 39.8430454-39.9929725v-8.9956076c4.0105417 8.3584187 8.9206442 16.7918008 14.8802342 24.2881405L82.0474378 152.025769h21.1021962l9.145534-43.066472c8.021084 5.134993 17.241582 8.358419 27.811421 8.358419 22.601464 0 41.004978-18.515959 41.004978-41.1174232 0-22.5639824-18.403514-40.9674963-41.004978-40.9674963h0z" fill="#6fda44"/><path d="M244.043338 37.5566618l13.306003 53.6363104 14.655344-53.6363104h17.466472l-22.526501 77.5121522h-17.466472l-13.830746-53.9736456-13.793265 53.9361636h-17.466472l-22.5265-77.5121519h17.466471l14.655344 53.6363104 13.306003-53.6363104h16.754319v.0374817zm87.219912-2.3238653c-22.676427 0-41.042459 18.4035139-41.042459 41.0424597 0 22.6764275 18.403514 41.0424598 41.042459 41.0424598 22.676428 0 41.079942-18.3660323 41.079942-41.0424598 0-22.6764275-18.403514-41.0424597-41.079942-41.0424597zm0 65.2181555c-13.343484 0-24.138213-10.7947295-24.138213-24.1382141 0-13.3434846 10.83221-24.1382137 24.138213-24.1382137 13.343485 0 24.138214 10.7947291 24.138214 24.1382137 0 13.3060029-10.794729 24.1382141-24.138214 24.1382141zm90.968082-45.5402639c-11.731771 0-21.214641 9.5203514-21.214641 21.2146413v38.9060026h-17.578916V37.5566618h17.578916v11.9191801c0 0 7.49634-11.9566618 22.901318-11.9566618h5.397364v17.391508h-7.084041zm58.996194 18.3660323c12.481405-7.0465593 20.952269-20.4275257 20.952269-35.7575403h-17.578917c0 12.9311859-10.494875 23.4260615-23.426061 23.4260615h-2.361347V.149926794h-17.578917V115.031332h17.578917V78.5241581h2.098975c1.724158 0 3.97306 1.124451 4.985066 2.5112738l24.962811 33.9959001h21.064715l-30.697511-41.7546116z"/></svg>