<svg width="256px" height="320px" viewBox="0 0 256 320" xmlns="http://www.w3.org/2000/svg" preserveAspectRatio="xMidYMid"><path d="M202.4 0 256 35.2v176c-.8 60-52 106.4-93.6 106.4 40.8-24.8 51.2-60.8 51.2-96h0V56l-11.2-7.2L192 56v168l-.012926 1.581086C191.13504 277.65968 148.272 320 96 320c-52.8 0-96-43.2-96-96h0v-10.4c0-10.4 10.4-21.6 10.4-32 0-5.023256-2.33639805-10.435911-4.83580062-15.694618l-.50140994-1.049528C4.14191455 162.936074 3.21860465 161.04186 2.4 159.2.8 156.8 0 152.8 0 149.6c0-12 9.6-21.6 20.8-21.6 12 0 21.6 9.6 21.6 21.6 0 3.2-.8 6.4-2.4 9.6-.8186047 1.84186-1.7419145 3.736074-2.6627894 5.655854l-.50141 1.049528C34.3363981 171.164089 32 176.576744 32 181.6c0 5.2 2.6 10.6 5.2 16l.6226688 1.295898C40.19936 203.86272 42.4 208.816 42.4 213.6h0V224l.0047896.718791C42.72056 248.39872 58.616 268.072 80 275.2c-10.4-14.4-16-32-16-51.2h0v-10.4c0-5.2 2.6-10.6 5.2-16l.6226688-1.295898C72.19936 191.33728 74.4 186.384 74.4 181.6c0-5.023256-2.3363981-10.435911-4.8358006-15.694618l-.50141-1.049528C68.1419145 162.936074 67.2186047 161.04186 66.4 159.2c-1.6-2.4-2.4-6.4-2.4-9.6 0-12 8.8-21.6 20.8-21.6 12 0 21.6 9.6 21.6 21.6 0 3.2-.8 6.4-2.4 9.6-.818605 1.84186-1.741915 3.736074-2.662789 5.655854l-.50141 1.049528C98.3363981 171.164089 96 176.576744 96 181.6c0 5.2 2.6 10.6 5.2 16l.622669 1.295898C104.19936 203.86272 106.4 208.816 106.4 213.6h0V224c0 16.8 7.2 32.8 20 43.2 13.6-9.6 22.4-25.6 22.4-43.2h0V35.2L202.4 0zM21.6 70.4c11.9293506 0 21.6 9.6706494 21.6 21.6 0 11.929351-9.6706494 21.6-21.6 21.6C9.6706494 113.6 0 103.929351 0 92c0-11.9293506 9.6706494-21.6 21.6-21.6zm64-.8c11.9293506 0 21.6 9.6706494 21.6 21.6 0 11.929351-9.6706494 21.6-21.6 21.6-11.9293506 0-21.6-9.670649-21.6-21.6 0-11.9293506 9.6706494-21.6 21.6-21.6zm-64-56.8c11.9293506 0 21.6 9.6706494 21.6 21.6 0 11.9293506-9.6706494 21.6-21.6 21.6C9.6706494 56 0 46.3293506 0 34.4c0-11.9293506 9.6706494-21.6 21.6-21.6zm64-.8c11.9293506 0 21.6 9.6706494 21.6 21.6 0 11.9293506-9.6706494 21.6-21.6 21.6-11.9293506 0-21.6-9.6706494-21.6-21.6C64 21.6706494 73.6706494 12 85.6 12z" fill="#ff6720"/></svg>