<svg width="512px" height="161px" viewBox="0 0 512 161" xmlns="http://www.w3.org/2000/svg" preserveAspectRatio="xMidYMid"><path d="M.121808156 54.6135771.122148571 122.27072c0 0-.487862857 38.522149 35.474285729 37.668571 5.6078628-.243565 26.3314286.731429 31.4514286-15.36 0-.365714 0 12.434286 0 12.434286h24.8685714l.0453486-102.3999999H67.0932114l-.0453485 63.2685719c0 0 .7314285 22.674285-20.48 21.577142-21.2114286-1.097142-20.8457143-19.748571-20.8457143-19.748571L25.6 54.6135771H.121808156z" fill="#aec84d"/><g style="fill:#141215"><path d="M132.388571 159.695726h10.24l33.402149-82.6514289 33.401417 82.4078629h10.24L261.12 6.82715429 236.007863.487862857 210.894994 94.8421486 181.15072 20.4807314h-10.484297L141.897143 94.11072 116.053577.487862857 91.1850057 6.82715429z"/><path d="M260.388571 125.074286c0 0 6.339292 19.017874 16.822858 25.844297 10.483565 6.826423 28.281417 9.50784 36.814994 9.264274 8.533577-.243566 51.93216-.974994 52.419291-41.203566 3.657143-20.4799996-14.140708-35.3528681-19.017143-38.2785824-4.876434-2.9257143-20.724297-13.1657143-33.402148-16.8228572-12.677852-3.6571428-25.112869-11.7028571-26.087863-18.0414171-.974994-6.33856 7.31e-4-24.8685714 27.307154-25.1128686 19.017143 1.9514514 19.748572 9.9971657 22.674286 14.3857372l5.12 10.4828342 20.967131-9.7514057c0 0-8.290011-19.7485714-10.24-21.4557257C351.817143 12.6778514 344.014994.487862857 313.294994.73216c-30.72.242834286-48.761417 12.9214171-49.980708 34.8642743-1.219292 21.9428571 3.412845 32.1828571 25.843565 45.8357028C303.054994 88.99072 317.684297 90.6971429 332.8 102.156434c10.483566 8.533577 8.290011 18.286446 8.045714 22.43072-.244297 4.144275-5.364297 15.847132-26.575725 14.872137-21.211429-.974994-25.355703-9.50784-26.81856-11.946422-1.462858-2.438583-6.582858-12.434286-6.582858-12.434286l-20.48 9.995703z"/><path d="M486.156434 3.17001143h25.8435657v154.574994H486.156434z"/><path d="M431.786423 75.3378743v20.2357028h19.992137v40.9599999c0 0-6.095726 3.657874-19.505006 3.170012-13.40928-.487863-34.619977 1.21856-36.327131-59.7335776-1.707154-60.9521371 27.307154-59.0021485 30.72-59.0021485 3.412846 0 20.48.2442971 29.257143 24.38144.244297.2435657 20.967863-9.7528686 20.967863-9.7528686 0 0-9.02144-36.8149943-49.005715-34.8642743-39.984274 1.94998857-55.344274 22.6735543-57.53856 74.6057143C368.152869 127.269303 386.437851 161.159314 430.08 159.45216c43.642149-1.707154 46.811429-5.364297 46.811429-5.364297l-.060709-78.6892801-45.044297-.0607086z"/></g><circle fill="#aec84d" cx="347.672137" cy="28.5264457" r="8.53357714"/><circle fill="#252326" cx="347.672137" cy="28.5264457" r="2.56"/><path d="M25.70752 112.027794 25.6 54.6135771H.122148571v66.4722289C7.41595429 117.040274 16.1111771 113.921463 25.70752 112.027794z"/><path d="M91.9617829 54.6135771H67.0932114L67.05152 111.681829c9.2203886 1.64864 17.6574171 4.420022 24.8810057 8.059611l.0292572-65.1278629z"/><path d="M.122148571 122.27072c0 0-.487862857 38.522149 35.474285729 37.668571 5.6078628-.243565 26.3314286.731429 31.4514286-15.36 0-.365714 0 12.434286 0 12.434286h24.8685714l.0168228-37.272137c-7.2235885-3.639589-15.6606171-6.410971-24.8810057-8.059611l-.0043885 6.20032c0 0 .7314285 22.674285-20.48 21.577142-21.2114286-1.097142-20.8457143-19.748571-20.8457143-19.748571l-.0146286-7.682926c-9.5963429 1.893669-18.29156571 5.01248-25.585371429 9.058012v1.184914z" fill="#fff" opacity="0.1"/><path d="M217.153829 71.32672l-6.258835 23.5154286-10.163931-25.4083657c-16.7424-2.1343086-32.234789-4.77184-46.131932-7.8321372L141.897143 94.11072l-10.624732-38.4885029c-11.994697-3.5810742-22.152045-7.5424914-30.116571-11.7994057l31.232731 115.8729146h10.24l33.402149-82.6514289 33.402149 82.4078629h10.24l23.331108-85.9128686c-8.853943-.6107428-17.482606-1.3509485-25.850148-2.2125714z"/><g style="fill:#fff"><path d="M261.12 6.82715429 236.007863.487862857 217.15456 71.32672c8.367543.8616229 16.996206 1.6018286 25.849417 2.2125714L261.12 6.82715429z" opacity="0.1"/><path d="M116.053577.487862857 91.1850057 6.82715429l9.9715653 36.99565711c7.964526 4.2569143 18.121143 8.2183315 30.116572 11.7994057L116.053577.487862857z" opacity="0.1"/><path d="M181.15072 20.4807314h-10.483566l-16.067291 41.1209143c13.897143 3.0610286 29.390263 5.6978286 46.131931 7.8321372L181.15072 20.4807314z" opacity="0.1"/><path d="M313.294994.73216c-30.72.242834286-48.761417 12.9214171-49.980708 34.8642743-1.030583 18.5424457 2.118948 28.7275886 16.654628 39.6778057 7.786789.2011429 15.690606.3064686 23.69536.3064686 11.629715 0 23.05024-.2186972 34.198675-.6378057-6.923703-4.0126172-15.986103-8.8005486-23.836526-11.0650515-12.677852-3.6571428-25.112869-11.7028571-26.087863-18.0414171-.974994-6.33856 7.31e-4-24.8685714 27.307154-25.1128686 19.017143 1.9514514 19.748572 9.9971657 22.674286 14.3857372l5.12 10.4828342 20.967131-9.7514057c0 0-8.290011-19.7485714-10.24-21.4557257C351.817143 12.6778514 344.014994.487862857 313.294994.73216z" opacity="0.1"/><path d="M427.885714.73216c-39.402057 1.92146286-54.89152 22.0759771-57.433234 72.3602286 8.738377-.6699886 17.24416-1.4679772 25.481509-2.3844572 1.349485-51.4757485 27.503908-49.7400685 30.733897-49.7400685 3.412845 0 20.48.2442971 29.257143 24.38144.242834.2435657 20.9664-9.7528686 20.9664-9.7528686 0 0-9.02144-36.8149943-49.005715-34.8642743z" opacity="0.1"/><path d="M486.156434 52.3629714c10.5472-3.68128 19.267292-7.69536 25.843566-11.9661714V3.17001143h-25.843566V52.3629714z" opacity="0.1"/></g></svg>