<svg width="256px" height="227px" viewBox="0 0 256 227" xmlns="http://www.w3.org/2000/svg" preserveAspectRatio="xMidYMid"><defs><radialGradient cx="1.27839844%" cy="11.378669%" fx="1.27839844%" fy="11.378669%" r="105.363633%" gradientTransform="matrix(.886328 0 0 1 .001453182848000001 0)" id="a"><stop stop-color="#fff" stop-opacity="0.1"/><stop stop-color="#fff" stop-opacity="0" offset="1"/></radialGradient></defs><path d="M214.5 62.5l-6.2 13.1H226l.9-1.5 6.5-11.6h-19.1.2zm-173.3 0H22.5L30 75.6h17.5l-6.3-13.1z" fill="#9e9e9e"/><path fill="#424242" d="M256 23.3 232.7 64h-16.3l-26.1 49.5L128 226.9 65.6 113.5 39.6 64H23.3L0 23.3h66.9l10.9 21.6 35.5 64.7 14.5 26.6 14-26.6 34.9-64.7L189 23.2"/><g style="fill-opacity:0.2"><path d="M67.7 24.7H.8L0 23.3h66.9l.8 1.4zm121.4-1.4-.8 1.5h66.9l.8-1.5h-66.9z" fill="#fff"/><path fill="#263238" d="M227 74.2l-.8 1.5h-15.8l-20 37.9L128 226.9 65.6 113.5 45.7 75.6H29.9l-.8-1.5h16.6l.8 1.5L65.6 112 128 225.5l62.4-113.4 19.2-36.4.8-1.5"/></g><path d="M152.7 128c0 13.7-11.1 24.7-24.7 24.7-13.6 0-24.7-11.1-24.7-24.7 0-13.6 11.1-24.7 24.7-24.7 13.7 0 24.7 11 24.7 24.7zm-2.9-75.6c0 12-9.8 21.8-21.8 21.8-12 0-21.8-9.8-21.8-21.8 0-12 9.8-21.9 21.8-21.9 12 0 21.8 9.8 21.8 21.9z" fill="#fff"/><path d="M190.4 113.5c-3.3-14.1-11.2-26.5-22.1-35.3 5.8-8.1 9.2-18 9.2-28.8 0-1.5-.1-3-.2-4.5C175 19.7 153.8 0 128 0c-25.8 0-47 19.7-49.2 44.9-.1 1.5-.2 3-.2 4.6 0 10.7 3.4 20.7 9.2 28.8-10.9 8.8-18.9 21.1-22.1 35.3-1.1 4.6-1.7 9.4-1.7 14.4 0 27.1 16.9 50.3 40.7 59.6 7.2 2.8 15.1 4.4 23.3 4.4 8.2 0 16.1-1.6 23.3-4.4 23.8-9.3 40.7-32.5 40.7-59.6 0-5-.6-9.8-1.6-14.5zM128 32c11.2 0 20.4 9.1 20.4 20.4 0 11.3-9.1 20.4-20.4 20.4-11.2 0-20.4-9.1-20.4-20.4 0-11.3 9.2-20.4 20.4-20.4zm0 119.3c-12.8 0-23.3-10.4-23.3-23.3 0-7.5 3.5-14.1 9-18.4 3.9-3.1 8.9-4.9 14.3-4.9 5.4 0 10.4 1.8 14.3 4.9 5.5 4.3 9 10.9 9 18.4 0 12.9-10.4 23.3-23.3 23.3z" fill="#4285f4"/><g style="fill-opacity:0.2"><path d="M177.5 49.5v.7c-.5-27-22.4-48.7-49.5-48.7-27.1 0-49.1 21.7-49.5 48.7v-.7C78.5 22.1 100.7 0 128 0c27.3 0 49.5 22.1 49.5 49.5zM87.1 78.8C73 90.5 64 108.2 64 128v.7c.2-19.8 9.5-37.5 23.8-49l.7-.5-.7-.9-.7.5zm81.8 0-.6-.5-.7.9.7.6c14.3 11.6 23.6 29.2 23.8 49v-.8c-.1-19.8-9.1-37.5-23.2-49.2z" fill="#fff"/><path d="M192 127.3v.7c0 35.3-28.7 64-64 64-35.3 0-64-28.7-64-64v-.7c.4 35 28.9 63.3 64 63.3 35.1 0 63.6-28.3 64-63.3zM78.5 48.7v.7c0 11.1 3.7 21.4 9.9 29.7.2-.1.5-.3.7-.5-6.5-8.2-10.4-18.6-10.6-29.9zm99 0c-.2 11.3-4.1 21.6-10.6 29.9.3.2.5.4.7.5 6.2-8.1 9.9-18.5 9.9-29.7v-.7z" fill="#263238"/></g><path d="M256 23.3 232.7 64l-6.6 11.6h-15.8l-20 37.9c1.1 4.7 1.6 9.5 1.6 14.5 0 27.1-16.9 50.3-40.7 59.6-.7.3-1.5.6-2.2.8l-21 38.5-21.2-38.5c-.7-.2-1.5-.5-2.2-.8C80.9 178.2 64 155.1 64 128c0-5 .6-9.8 1.6-14.5L45.7 75.6H30L23.3 64 0 23.3h66.9l10.9 21.6.6.4c0-.1.2-.2.2-.4C80.9 19.7 102.1 0 127.9 0c25.8 0 47 19.7 49.3 44.9 0 .1-.3.2-.3.3l-.1-.3 12.3-21.7H256v.1z" fill="url(#a)"/></svg>