<svg width="256px" height="266px" viewBox="0 0 256 266" xmlns="http://www.w3.org/2000/svg" preserveAspectRatio="xMidYMid"><path d="M221.101749 0l34.894527 20.4099019-58.186996 33.8397942L197.809 54.29l58.187276-33.8800981V44.663227l-78.133037 191.59685L127.976 265.06l4.9e-5.003662-.003049-.002662-.002473.002662L127.97 265.06l-49.4062351-28.579037L0 45.4142407V20.4099019L34.9000488 0l58.2311731 34.1490351L92.932 34.263l.1550447.0627442v23.0605385l34.8890043 81.5954303L127.976 166.242l.005571-.002907v-27.25738l34.933182-81.5954303V34.1048578h.044177L221.101749 0zM71.579 46.548l-13.386482 7.7016961L58.192 54.29l13.387-7.742z" fill="#1159cc"/><path fill="#127eff" d="M221.101749 4.904663e-15 162.95893 34.1048578h-.044177v23.2814249l-34.933182 81.5954303v27.25738l-23.248292 13.518247L58.192518 74.7921298V54.2496961l34.9387039-20.100661L34.9000488 0 0 20.4099019v25.0043388L78.5637649 236.480963l49.4122841 28.582699v-71.788075l23.292469-13.518247-.309241-.176709L197.80928 74.7921298V54.2496961l58.186996-33.8397942z"/></svg>