<svg width="256px" height="256px" viewBox="0 0 256 256" xmlns="http://www.w3.org/2000/svg" preserveAspectRatio="xMidYMid"><title>Vault</title><path d="M-2.84217094e-13-1.4210854700000001e-14 127.559449 256 256 0-2.84217094e-13-1.4210854700000001e-14zM142.698373 51.3842303h14.858573v14.8585732h-14.858573V51.3842303zm-29.556946 59.3541927H98.3229036V95.9198999h14.8185234v14.8185231zm0-22.2678348H98.3229036V73.6921151h14.8185234v14.7784731zm0-22.2277847H98.3229036V51.3842303h14.8185234v14.8585732zm22.428035 66.7634545h-14.818523v-14.858573h14.818523v14.858573zm0-22.267835h-14.818523V95.9198999h14.818523v14.8185231zm0-22.2678348h-14.818523V73.6921151h14.818523v14.7784731zm0-22.2277847h-14.818523V51.3842303h14.818523v14.8585732zm7.128911 7.4493116h14.858573v14.8185232h-14.858573V73.6921151zm0 37.0863579V95.9599499h14.858573v14.8185231h-14.858573z" fill="#ffd814"/></svg>