<svg width="256" height="256" xmlns="http://www.w3.org/2000/svg" preserveAspectRatio="xMidYMid"><path d="M0 0l127.56 256L256 0H0zm142.698 51.384h14.859v14.859h-14.859V51.384zm-29.557 59.354H98.323V95.92h14.818v14.818zm0-22.267H98.323V73.692h14.818v14.779zm0-22.228H98.323V51.384h14.818v14.859zm22.428 66.763h-14.818v-14.858h14.818v14.858zm0-22.268h-14.818V95.92h14.818v14.818zm0-22.267h-14.818V73.692h14.818v14.779zm0-22.228h-14.818V51.384h14.818v14.859zm7.13 7.45h14.858V88.51h-14.859V73.692zm0 37.085V95.96h14.858v14.818h-14.859z" fill="#FFD814"/></svg>