<svg width="256px" height="301px" viewBox="0 0 256 301" xmlns="http://www.w3.org/2000/svg"><title>Vector</title><defs><linearGradient x1="13.5234674%" y1="74.6786913%" x2="86.4136075%" y2="25.3053691%" id="a"><stop stop-color="#10e7ff"/><stop stop-color="#33d5ff" offset=".103"/><stop stop-color="#60bdff" offset=".255"/><stop stop-color="#86aaff" offset=".408"/><stop stop-color="#a39aff" offset=".56"/><stop stop-color="#b790ff" offset=".71"/><stop stop-color="#c489ff" offset=".858"/><stop stop-color="#c887ff" offset="1"/></linearGradient><linearGradient x1="21.0059701%" y1="54.0325908%" x2="96.4656716%" y2="27.0469592%" id="b"><stop stop-color="#10e7ff"/><stop stop-color="#33d5ff" offset=".103"/><stop stop-color="#60bdff" offset=".255"/><stop stop-color="#86aaff" offset=".408"/><stop stop-color="#a39aff" offset=".56"/><stop stop-color="#b790ff" offset=".71"/><stop stop-color="#c489ff" offset=".858"/><stop stop-color="#c887ff" offset="1"/></linearGradient></defs><path d="M128 300.346456 0 225.259843V75.086614L128 0l128 75.086614v150.173229l-128 75.086613zm-110.1102362-85.66929 109.8582672 64.503937 109.858268-64.503937V85.6692915L128 21.1653544 17.8897638 85.6692915V214.677166z" fill="url(#a)"/><path d="M183.181103 109.354331l-44.850394 78.866142 14.614173 25.700787 59.464567-104.566929h-29.228346 0zm-50.141733 0-44.8503935 78.866142 14.6141725 25.700787 59.464568-104.566929H133.03937h0zm-89.4488188 0L103.055118 213.92126l14.614173-25.700787-44.8503935-78.866142H43.5905512h0zm0 0L103.055118 213.92126l14.614173-25.700787-44.8503935-78.866142H43.5905512h0zm89.4488188 0-44.8503935 78.866142 14.6141725 25.700787 59.464568-104.566929H133.03937h0z" fill="url(#b)"/></svg>