<svg width="256px" height="223px" viewBox="0 0 256 223" xmlns="http://www.w3.org/2000/svg" preserveAspectRatio="xMidYMid"><path d="M255.876213 51.662485c-1.139207 24.9678413-18.54476 59.156862-52.208977 102.549142-34.805985 45.327653-64.253855 67.98892-88.343611 67.98892-14.917216 0-27.550898-13.79849-37.8626446-41.405708-6.8915645-25.305763-13.775449-50.608967-20.6644535-75.91473-7.6621295-27.5918585-15.8772226-41.4057077-24.6606393-41.4057077-1.9148924 0-8.6170157 4.0371461-20.0910098 12.080718L0 60.0081389C12.6336816 48.884867 25.0984021 37.7641552 37.3608813 26.6280832 54.2109102 12.038549 66.8599519 4.36617944 75.2900864 3.59049443 95.2146951 1.67304204 107.477174 15.3179302 112.080084 44.5277189c4.974112 31.5138036 8.414774 51.1158502 10.350147 58.7882201 5.742117 26.145449 12.060238 39.201533 18.964602 39.201533 5.358115 0 13.406807-8.478775 24.138396-25.436324 10.72135-16.96267 16.463467-29.8677134 17.239152-38.7330506 1.52577-14.6381746-4.218908-21.975182-17.239152-21.975182-6.128679 0-12.4468 1.4131291-18.946682 4.2061072C159.166468 19.2885158 183.205023-.764093703 218.686853.380233689c26.30417.773124991 38.70489 17.866355411 37.18936 51.282251311" fill="#32b8e8"/></svg>