<svg width="256px" height="254px" viewBox="0 0 256 254" xmlns="http://www.w3.org/2000/svg" preserveAspectRatio="xMidYMid"><defs><path d="M180.82764 252.605272c4.016311 1.564887 8.59642 1.46428 12.650584-.486102l52.500918-25.262319c5.516451-2.65463 9.024747-8.238817 9.024747-14.363891V41.1971845c0-6.1252732-3.508296-11.7085634-9.024747-14.3631938L193.478224 1.57068551c-5.320218-2.559942223-11.546895-1.932915546-16.215658 1.46166039-.667393.48492576-1.302911 1.02635082-1.898584 1.62302008L74.8565893 96.3498444 31.0778002 63.1181557c-4.0753805-3.0935159-9.7757136-2.8401058-13.5607284.6029448L3.47578059 76.4937075c-4.62980482 4.2115486-4.63511408 11.4951968-.01146521 15.713519L41.430759 126.844525 3.46431538 161.482221c-4.62364887 4.218521-4.61833961 11.50207.01146521 15.713619l14.04129121 12.772109c3.7850148 3.443548 9.4853479 3.69656 13.5607284.603642l43.7787891-33.232187 100.5073927 91.694817c1.58979 1.590786 3.456498 2.789105 5.463658 3.571051zm10.464124-183.6493202-76.262101 57.8885732 76.262101 57.888871V68.9559518z" id="b"/><linearGradient x1="50.0000484%" y1="-3.91645412e-07%" x2="50.0000484%" y2="99.999921%" id="c"><stop stop-color="#fff"/><stop stop-color="#fff" stop-opacity="0" offset="1"/></linearGradient></defs><mask id="a" fill="#fff"><use href="#b"/></mask><path d="M246.134784 26.873337 193.593025 1.57523773c-6.081245-2.92824355-13.349852-1.693045541-18.123206 3.07990911L3.46641717 161.482221c-4.62645789 4.218521-4.62113867 11.50207.01147518 15.713619l14.04978805 12.772109c3.7874054 3.443548 9.4912249 3.69656 13.5689961.603642L238.228667 33.4363005c6.948856-5.2716078 16.929868-.3153681 16.929868 8.4069603v-.6100172c0-6.1225836-3.5073-11.7038817-9.023751-14.3599066z" fill="#0065a9" mask="url(#a)"/><path d="M246.134784 226.816011l-52.541759 25.298179c-6.081245 2.927564-13.349852 1.692389-18.123206-3.079969L3.46641717 92.2070273c-4.62645789-4.2182226-4.62113867-11.50207.01147518-15.7135191l14.04978805-12.772607c3.7874054-3.4430506 9.4912249-3.6965603 13.5689961-.6029447L238.228667 220.252649c6.948856 5.271409 16.929868.315767 16.929868-8.407159v.610614c0 6.122086-3.5073 11.703284-9.023751 14.359907z" fill="#007acc" mask="url(#a)"/><path d="M193.428324 252.134497c-6.083238 2.925572-13.351845 1.689401-18.125199-3.083953 5.881028 5.881027 15.937743 1.715299 15.937743-6.60221V11.2729623c0-8.31753961-10.056715-12.48301323-15.937743-6.60160249 4.773354-4.773397917 12.041961-6.01033911 18.125199-3.08468047l52.532793 25.26333506c5.520436 2.6546304 9.030724 8.2379207 9.030724 14.3631938V212.509283c0 6.125074-3.510288 11.708265-9.030724 14.362895l-52.532793 25.262319z" fill="#1f9cf0" mask="url(#a)"/><path d="M180.827889 252.605272c4.016311 1.563891 8.59642 1.46428 12.649587-.486102l52.500919-25.263315c5.517447-2.65463 9.025743-8.237821 9.025743-14.362895V41.1969853c0-6.1252732-3.508296-11.7085634-9.024747-14.3631938L193.477476 1.57052613c-5.319221-2.559949194-11.545898-1.932922517-16.215657 1.46165043-.666397.48492576-1.301915 1.02635082-1.898584 1.62302008L74.8565395 96.3496452 31.0777504 63.1179565c-4.0752809-3.093516-9.7757136-2.8400062-13.5607284.6029447L3.4757806 76.4935082c-4.62980483 4.2115487-4.63511409 11.4952965-.01146521 15.7136187L41.4308088 126.844525 3.46431539 161.482221c-4.62364888 4.218521-4.61833962 11.50207.01146521 15.713619l14.0412414 12.772109c3.7850148 3.443548 9.4854475 3.69656 13.5607284.603642l43.7787891-33.232187 100.5066955 91.694817c1.58979 1.590786 3.457494 2.789105 5.464654 3.571051zm10.464124-183.6495194-76.262101 57.8887724 76.262101 57.888871V68.9557526z" fill-opacity="0.25" fill="url(#c)" mask="url(#a)"/></svg>