<svg width="256px" height="257px" viewBox="0 0 256 257" xmlns="http://www.w3.org/2000/svg" preserveAspectRatio="xMidYMid"><defs><linearGradient x1="-0.828097821%" y1="7.6518539%" x2="57.6359644%" y2="78.4107719%" id="a"><stop stop-color="#41d1ff" offset="0%"/><stop stop-color="#bd34fe" offset="100%"/></linearGradient><linearGradient x1="43.3760053%" y1="2.24179788%" x2="50.3158848%" y2="89.0299051%" id="b"><stop stop-color="#ffea83" offset="0%"/><stop stop-color="#ffdd35" offset="8.33333%"/><stop stop-color="#ffa800" offset="100%"/></linearGradient></defs><path d="M255.152904 37.937763 134.896865 252.97646c-2.482922 4.439718-8.86179 4.465861-11.381965.04771L.87443175 37.9584812c-2.74554711-4.8146728 1.37152196-10.6465659 6.82748012-9.6713703L128.086639 49.8052023c.767948.1372502 1.554196.1359431 2.322144-.0039868l117.867231-21.483256c5.437724-.9910774 9.574184 4.7956539 6.87689 9.6198035z" fill="url(#a)"/><path d="M185.432401.0631038902 96.4393502 17.500942c-1.4626953.2865915-2.545665 1.5261572-2.6338973 3.0137536l-5.4743236 92.4567234c-.1287538 2.177704 1.8711782 3.867842 3.9965961 3.377663l24.7769346-5.718106c2.318222-.534622 4.412922 1.507138 3.936468 3.838431l-7.361188 36.046486c-.495408 2.426062 1.782292 4.500501 4.151493 3.780917l15.303401-4.649515c2.372468-.720236 4.652129 1.360085 4.150185 3.788107l-11.698295 56.620949c-.732001 3.54171 3.97895 5.473017 5.943589 2.436519l1.312374-2.028036 72.516487-144.719259c1.214337-2.4231202-.879709-5.1860981-3.541056-4.6725208l-25.503708 4.9221855c-2.39665.4620758-4.435796-1.7698744-3.759349-4.1146966L189.2009 4.17570253c.677101-2.3487763-1.369235-4.582660424-3.768499-4.1125986398z" fill="url(#b)"/></svg>