<svg width="256px" height="234px" viewBox="0 0 256 234" xmlns="http://www.w3.org/2000/svg" preserveAspectRatio="xMidYMid"><title>vitest</title><path d="M192.115018 70.8083821l-61.20066 88.4879449c-.64879.938214-1.587173 1.641027-2.672724 2.001748-1.08555.360721-2.258995.357334-3.342343-.00508-1.083349-.364109-2.017329-1.070309-2.660531-2.010216-.643032-.941601-.960229-2.066103-.902988-3.202459l2.449348-48.854514-39.5421506-8.386004c-.8450697-.1790058-1.6323902-.5629282-2.2923574-1.1175582-.6599673-.5544605-1.1722591-1.2626933-1.4913195-2.0618685-.3190604-.7991751-.4350669-1.6645672-.3378585-2.5196287.0972084-.8548922.4045835-1.6732042.8950287-2.3822837L142.217801 2.27034881c.648959-.93872174 1.587342-1.641365882 2.672892-2.001578967 1.08572-.3602130853 2.259165-.3583502061 3.342683.005588637 1.083349.363769491 2.017498 1.06963133 2.66053 2.01055465.643032.94075397.96006 2.06508621.90265 3.2024586l-2.449348 48.85502167 39.541642 8.385327c.84507.1790058 1.63256.5629282 2.293035 1.1173888.660476.5546299 1.171921 1.2628627 1.490304 2.0620379.320076.7991751.435236 1.6645672.338705 2.5194593-.096531.8550616-.404753 1.6733736-.895876 2.3824531v-6.774e-4z" fill="#fcc72b"/><g style="fill:#729b1b"><path d="M128.024524 233.537148c-1.627817.001687-3.239885-.316696-4.743737-.939914-1.503851-.623218-2.86985-1.537722-4.019246-2.68932l-57.8278331-57.823769c-2.3133572-2.325211-3.6100905-5.473477-3.605867-8.753838.0044135-3.280361 1.309445-6.426933 3.6292376-8.745371 2.3196233-2.320131 5.4646713-3.62584 8.7452015-3.630921 3.2806995-.003387 6.429304 1.292161 8.7553626 3.605518l49.0668814 49.061463L234.917207 96.7333937c2.330292-2.2926962 5.471784-3.5716474 8.74029-3.5583724 3.2702.0133134 6.40153 1.3178369 8.7115 3.6293312 2.311664 2.3116636 3.617373 5.4428245 3.631003 8.7118385.011773 3.269015-1.26684 6.410845-3.559874 8.740968l-115.65482 115.650755c-1.149227 1.153292-2.514887 2.066102-4.018399 2.68932-1.503344.623218-3.115073.941601-4.742383.939914z"/><path d="M127.974735 233.537148c1.627817.001687 3.239885-.316696 4.743737-.939914 1.503851-.623218 2.86968-1.537722 4.019246-2.68932l57.827833-57.823769c2.313357-2.325211 3.610599-5.473477 3.605533-8.753838-.003402-3.280361-1.309111-6.426933-3.629242-8.745371-2.320131-2.320131-5.46501-3.62584-8.745371-3.630921-3.280361-.003387-6.428627 1.292161-8.755532 3.605518l-49.066204 49.061463L21.0822215 96.7333937c-2.3302925-2.2926962-5.4721229-3.5716474-8.7409677-3.5583724-3.26901418.0133134-6.40034467 1.3178369-8.71182204 3.6293312-2.31152818 2.3116636-3.616017769 5.4428245-3.629431760000011 8.7118385C-.0132082455 108.785206 1.26574296 111.927036 3.55837139 114.257159L119.213783 229.907914c1.149397 1.153292 2.515057 2.066102 4.0184 2.68932 1.503513.623218 3.115242.941601 4.742552.939914z" fill-opacity="0.5"/></g></svg>