<svg width="256" height="234" viewBox="0 0 256 233" xmlns="http://www.w3.org/2000/svg" preserveAspectRatio="xMidYMid"><path fill="#F16938" d="M0 0h51.35l25.818 47.193 10.363 19.092 20.064 37.037 11.55 21.306 8.706 16.003 6.374-11.73 18.688-34.413 16.8-30.412 9.138-16.557L204.866 0H256l-22.951 41.618L203.96 94.38l-26.626 48.111-50.341 91.192 46.368-84.004-46.376 84.01-24.255-44.436-21.452-39.573-4.165-7.678-25.647-47.079-2.412-4.408-4.536-8.27z"/><path d="M44.525 82.237l-.006.007.006-.007z"/><path d="M144.694 142.654l.024-.124 8.204-48.032-8.228 48.156zm59.255-48.269l-26.625 48.118-50.332 91.176.002.004 50.341-91.192 26.626-48.111 29.088-52.762-29.1 52.767zm.91-94.379l-8.547 15.618 8.55-15.618h-.003zM44.525 82.237l32.64-35.029-32.64 35.029zm6.948 12.686L87.52 66.29 51.473 94.923zm0 0l-2.418-4.408 2.412 4.408 25.647 47.079 4.165 7.678-4.168-7.688-25.638-47.069z" fill="#284E64"/><path d="M60.466 78.223l16.7-31.015L87.518 66.29l20.076 37.032L87.53 66.285 77.168 47.193 51.358.006h-.005l25.812 47.202-16.7 31.015zm75.13 76.647l.118.218 4.833 8.885-4.951-9.103zm34.116-90.794l-16.8 30.412-18.687 34.412 18.697-34.402 16.79-30.422z" fill="#284E64"/><path fill="#F16827" d="M102.73 189.253l24.256 44.436 13.35-68.627z"/><path fill="#F48029" d="M140.547 163.973l-4.833-8.885-16.569-30.46-16.414 64.625 37.604-24.191.212-1.089z"/><path fill="#F89A2E" d="M77.11 141.992l4.169 7.688 21.452 39.573 16.414-64.625z"/><path fill="#F16827" d="M77.11 141.992l42.035-17.364-11.55-21.306L87.519 66.29l-10.408 75.702z"/><path fill="#F89921" d="M144.694 142.654l8.228-48.156-18.697 34.402-6.374 11.73 7.745 14.24 4.951 9.103 4.147-21.319z"/><path fill="#F89A2E" d="M51.473 94.923l25.638 47.069L87.519 66.29 51.473 94.923z"/><path fill="#F48029" d="M177.324 142.503l26.625-48.118-59.231 48.145z"/><path d="M77.165 47.208l-16.7 31.015-8.992 16.7L87.52 66.29 77.165 47.208zm67.553 95.322l34.133-95.011-9.139 16.557-16.79 30.422-8.204 48.032z" fill="#F4AE5C"/><path fill="#CD4E27" d="M51.473 94.923l8.993-16.7 16.7-31.015-32.64 35.029-.007.007 4.536 8.271 2.418 4.408z"/><path d="M203.949 94.385l-25.098-46.866-34.133 95.01 59.231-48.144zM44.525 82.237l32.64-35.029L51.353.006 51.35 0l-6.831 82.244.006-.007z" fill="#F16938"/><path d="M203.949 94.385l.917-94.379V0l-.003.006-8.55 15.618-17.462 31.895 25.098 46.866zM51.349 0H0l44.519 82.244L51.349 0z" fill="#F89A2E"/><path d="M204.866 0v.006l-.917 94.379 29.1-52.767L256 0h-51.134zm-60.148 142.53l-.024.124-4.147 21.319-.212 1.089-13.349 68.627.006-.01 50.332-91.176-32.606.027z" fill="#CD4E27"/></svg>