<svg width="256px" height="234px" viewBox="0 0 256 233" xmlns="http://www.w3.org/2000/svg" preserveAspectRatio="xMidYMid"><title>Vitess</title><path fill="#f16938" d="M6.86144082e-14 0H51.3496776l25.8187828 47.1925029 10.3621562 19.0923438 20.0640414 37.0367573 11.550524 21.306727 8.705442 16.002226 6.374576-11.730379 18.687369-34.411967 16.799501-30.412316 9.138783-16.5568776L204.865786 0H256l-22.95137 41.6176158-29.087549 52.7619582-26.625714 48.111692-50.341768 91.191683 46.368069-84.003537-46.375311 84.009572-24.255618-44.435538-21.4521799-39.57343-4.1644172-7.67822-25.6467742-47.0784336-2.4123443-4.4082468-4.536197-8.2708946z"/><path d="M44.5254653 82.2369785l-.0066389.0072425.0066389-.0072425z"/><g style="fill:#284e64"><path d="M144.693579 142.654222l.024142-.124329 8.203901-48.0314219-8.228043 48.1557509zm59.255431-48.2692162-26.62511 48.1177282-50.332111 91.176594.00181.003621 50.341768-91.191683 26.625714-48.111692 29.087549-52.7619582-29.09962 52.76739zm.910137-94.37897041283L196.312435 15.6238068 204.862768.00603538717h-.003621 0zM44.5254653 82.2369785l32.6399774-35.0287836-32.6399774 35.0287836h0zm6.9479377 12.6863839 36.0457464-28.6330839L51.473403 94.9233624zm0 0-2.4183796-4.4082468 2.4123443 4.4082468 25.6467742 47.0784336 4.1644172 7.67822-4.1680384-7.68848L51.473403 94.9233624h0z"/><path d="M60.4655264 78.2234461l16.6999163-31.0152512 10.3537067 19.0820836 20.0755086 37.0313255-20.0640414-37.0367573-10.3621562-19.0923438L51.3587307.00603538717h-.0054319L77.1654427 47.2081949 60.4655264 78.2234461zm75.1303106 76.6470029.118293.217877 4.833138 8.884694-4.951431-9.102571zm34.116233-90.794554-16.799501 30.412316-18.687369 34.411967 18.696422-34.4017069L169.71207 64.075895z"/></g><path fill="#f16827" d="M102.730739 189.253446l24.255618 44.435538 13.349069-68.62718z"/><path fill="#f48029" d="M140.547268 163.97302l-4.833138-8.884694-16.568948-30.459995-16.414443 64.625115 37.604687-24.191642.211842-1.088784z"/><path fill="#f89a2e" d="M77.1105207 141.991536l4.1680384 7.68848 21.4521799 39.57343 16.414443-64.625115z"/><path fill="#f16827" d="M77.1105207 141.991536l42.0346613-17.363205-11.550524-21.306727-20.0755086-37.0313255-10.4086287 75.7012575z"/><path fill="#f89921" d="M144.693579 142.654222l8.228043-48.1557509L134.2252 128.900178l-6.374576 11.730379 7.745213 14.239892 4.951431 9.102571 4.146311-21.318798z"/><path fill="#f89a2e" d="M51.473403 94.9233624l25.6371177 47.0681736 10.4086287-75.7012575L51.473403 94.9233624z"/><path fill="#f48029" d="M177.3239 142.502734l26.62511-48.1177282-59.231289 48.1448872z"/><path d="M77.1654427 47.2081949 60.4655264 78.2234461 51.473403 94.9233624l36.0457464-28.6330839-10.3537067-19.0820836h0zm67.5522783 95.3216981 34.133132-95.0108756-9.138783 16.5568776-16.790448 30.4225761-8.203901 48.0314219h0z" fill="#f4ae5c"/><path fill="#cd4e27" d="M51.473403 94.9233624l8.9921234-16.6999163 16.6999163-31.0152512-32.6399774 35.0287836-.0066389.0072425 4.536197 8.2708946 2.4183796 4.4082468z"/><path d="M203.94901 94.3850058l-25.098157-46.8659884-34.133132 95.0108756 59.231289-48.1448872zM44.5254653 82.2369785l32.6399774-35.0287836L51.3532988.00603538717 51.3496776 0l-6.8308512 82.244221.0066389-.0072425z" fill="#f16938"/><path d="M203.94901 94.3850058l.916776-94.37897041283V0l-.003018.00603538717L196.312435 15.6238068l-17.461582 31.8952106 25.098157 46.8659884zM51.3496776 7.10542736e-15H0L44.5188264 82.244221 51.3496776 7.10542736e-15z" fill="#f89a2e"/><path d="M204.865786 0v.00603538717L203.94901 94.3850058l29.09962-52.76739L256 0h-51.134214 0zm-60.148065 142.529893-.024142.124329-4.146311 21.318798-.211842 1.088784-13.349069 68.62718.005432-.009656 50.332111-91.176594-32.606179.027159h0z" fill="#cd4e27"/></svg>