<svg width="256px" height="253px" viewBox="0 0 256 253" xmlns="http://www.w3.org/2000/svg" preserveAspectRatio="xMidYMid"><defs><path d="M5.61432398.0389442794 73.7920769 6.60662726C78.116627 7.02374614 82.7932517 10.6912893 84.229 14.7920632L128.08 140.083l43.637746-125.2873564c1.397531-4.0133779 5.898847-7.61215648 10.142497-8.157231l.282491-.03178534L250.320487.0389442794C254.645634-.378174602 256.962762 2.60312144 255.493 6.6919606h0L168.797317 247.774739l-.413538 1.147525c-.470091 1.30763-1.604791 2.457404-2.929835 3.116555-.48268.371724-1.136384.587389-1.91865.587389H96.7550979c-.0827589 0-.1648002-.001209-.2461115-.003608l.2461115.003608c-.1216012 0-.2434973-.0026-.3656088-.007744-.04337-.002193-.0856142-.004405-.1276522-.006942-4.202697-.236481-8.6283503-3.4584-10.0433171-7.393202L.441811163 6.6919606C-1.02795107 2.60312144 1.28917713-.378174602 5.61432398.0389442794z" id="b"/><path id="c" d="M158.907005 248.922264l-36.096-104.27435 5.156401-3.222974 36.741072 106.349799z"/><filter x="-40.2%" y="-14.9%" width="181.4%" height="132.2%" filterUnits="objectBoundingBox" id="d"><feMorphology radius="2" operator="dilate" in="SourceAlpha" result="shadowSpreadOuter1"/><feOffset dy="2" in="shadowSpreadOuter1" result="shadowOffsetOuter1"/><feGaussianBlur stdDeviation="3" in="shadowOffsetOuter1" result="shadowBlurOuter1"/><feColorMatrix values="0 0 0 0 0   0 0 0 0 0   0 0 0 0 0  0 0 0 0.3 0" in="shadowBlurOuter1"/></filter></defs><mask id="a" fill="#fff"><use href="#b"/></mask><path d="M168.797317 247.774739 255.493 6.6919606c1.469762-4.08883916-.847366-7.070135202-5.172513-6.6530163206L182.142734 6.60662726c-4.32455.41711888-8.996401 4.08645224-10.424988 8.18901634L91.4727855 245.19266c-1.4297809 4.102564.9374732 7.433548 5.2823124 7.433548h66.3606901c2.172121 0 4.532811-1.658928 5.267991-3.703944l.413538-1.147525z" fill="#536b8a" mask="url(#a)"/><g mask="url(#a)"><use filter="url(#d)" href="#c"/></g><path d="M5.61432398.0389442794 73.7920769 6.60662726C78.116627 7.02374614 82.7932517 10.6912893 84.229 14.7920632l81.942676 234.1194588c.717277 2.050984-.463664 3.714686-2.636382 3.714686H96.7550979c-4.3448392 0-9.0662191-3.319049-10.5365781-7.407888L.441811163 6.6919606C-1.02795107 2.60312144 1.28917713-.378174602 5.61432398.0389442794z" fill="#5d87bf" mask="url(#a)"/></svg>