<svg width="512px" height="82px" viewBox="0 0 512 82" xmlns="http://www.w3.org/2000/svg" preserveAspectRatio="xMidYMid"><title>wmware</title><g fill="#717074"><path d="M351.282274 1.63347741c10.638525 0 18.997367 2.6596314 24.696577 8.35884156 5.319263 5.31926283 7.978894 12.91820973 7.978894 22.41689333v42.1741551c0 3.0395788-2.279684 5.6992102-5.69921 5.6992102-3.039579 0-5.69921-2.2796841-5.69921-5.3192628v-7.5989469c-5.319263 7.2189995-14.437999 13.298157-27.736156 13.298157-13.541324.3761479-27.82742-7.4402048-28.111788-22.7117332l-.004316-.4650547c0-16.3377358 13.298157-25.0765247 32.675472-25.0765247 9.878631 0 16.717683 1.139842 23.556735 3.0395787v-2.6596314c0-14.0580517-8.358841-20.5171566-22.79684-20.5171566-7.381835 0-11.895299.7170925-17.371716 3.1961836l-.48581.2233425c-.759894.3799474-1.519789.3799474-1.899736.3799474-2.659632 0-5.319263-2.2796841-5.319263-4.9393155 0-2.6596314 1.139842-3.79947344 3.039579-4.93931547l1.099185-.43396722c7.065727-2.75026727 12.680856-4.1254009 22.077603-4.1254009zm-90.047521-.37994735c3.039579 0 5.319263 1.89973672 6.079158 4.93931547l18.997367 56.23220687 19.377314-56.23220687c.759895-2.27968406 2.279684-4.55936812 5.69921-4.55936812 3.419527 0 5.699211 2.27968406 5.699211 5.31926281 0 1.13984203-.379948 2.27968406-.759895 3.03957875L292.770383 74.9633148c-1.139842 3.4195261-3.419527 5.3192628-6.459105 5.3192628h-.379948c-2.659631 0-5.319262-1.5197894-6.459104-5.3192628l-18.997368-55.0923649-18.997367 55.0923649c-1.139842 3.4195261-3.039579 5.3192628-6.459105 5.3192628h-.379947c-3.039579.3799473-5.319263-1.8997367-6.459105-4.9393155l-23.176788-64.9709958c-.379947-.75989467-.759895-1.8997367-.759895-3.03957874 0-2.6596314 2.279685-5.69921015 6.079158-5.69921015 2.659631 0 4.939315 1.89973672 6.079157 4.93931547l18.997368 55.85225952 19.377314-56.23220687c.759895-2.6596314 2.659632-4.93931547 5.69921-4.93931547h.759895zm88.907679 39.51452374c-14.438 0-22.416894 6.4591049-22.416894 15.9577885v.3799473c0 9.4986836 8.738789 15.1978938 18.997367 15.1978938 14.817947 0 26.216367-8.7387889 26.216367-20.8971039v-7.5989469c-5.69921-1.5197894-13.298157-3.0395788-22.79684-3.0395788zM403.33506 1.63347741c3.039578 0 6.079157 2.27968406 6.079157 6.0791575V21.0107919c5.69921-12.91820965 18.237473-18.61741981 26.216367-18.61741981 3.419526 0 5.69921 2.27968407 5.69921 6.07915751 0 3.0395787-1.899737 5.3192628-5.319263 6.0791575-14.817946 1.5197894-26.976261 12.9182097-26.976261 34.9551556v25.8364194c0 3.0395788-2.279684 6.0791575-5.69921 6.0791575-3.039579 0-6.079158-2.279684-6.079158-6.0791575V7.71263491h.379947c0-3.03957875 2.279685-6.0791575 5.699211-6.0791575zm73.709784 0C499.461738 1.63347741 512 19.8709499 512 40.3881065c0 3.0395787-2.279684 5.3192628-5.319263 5.3192628H451.96832c1.519789 16.3377358 13.298157 25.8364194 26.596314 25.8364194 9.118736 0 16.337736-3.4195261 21.656998-8.7387889.759895-.7598947 1.899737-1.1398421 3.039579-1.1398421 2.659631 0 4.939316 2.2796841 4.939316 4.9393155 0 1.139842-.379948 2.6596314-1.51979 3.4195261-7.218999 6.4591049-15.577841 11.018473-28.496051 11.018473-20.311985 0-36.900106-15.6402285-37.229837-38.8101098l-.005002-1.0843613c0-22.036946 15.197893-39.51452379 36.094997-39.51452379zm-.379947 9.49868359c-13.298157 0-23.176788 11.018473-24.31663 25.8364194h48.253313c-1.139842-14.0580517-9.118737-25.8364194-23.936683-25.8364194z"/><path d="M20.7280844 6.57279288C18.4484003.873582718 11.9892954-1.40610135 6.29008529.873582718.590875127 3.15326678-1.68880894 9.99231897 1.35076981 15.3115818L25.6673998 68.1242626c3.7994735 8.3588416 7.9788942 12.9182097 15.5778411 12.9182097 7.9788942 0 11.3984203-4.9393155 15.5778411-12.9182097 0 0 21.2770513-46.353576 21.6569986-46.7335233.3799474-.3799474.7598947-1.8997367 3.0395788-1.8997367 1.8997367 0 3.0395787 1.5197893 3.0395787 3.4195261v44.8337865c0 6.8390522 3.7994735 12.9182097 11.018473 12.9182097 7.5989469 0 11.3984199-5.6992101 11.3984199-12.9182097v-36.474945c0-7.2189995 5.319263-11.7783676 11.778368-11.7783676 6.839052 0 11.39842 4.9393154 11.39842 11.7783676v36.8548924c0 6.8390522 3.799474 12.9182097 11.018473 12.9182097 7.598947 0 11.398421-5.6992102 11.398421-12.9182097V31.2693702c0-7.2189995 5.319262-11.7783676 11.778367-11.7783676 6.839053 0 11.398421 4.9393154 11.398421 11.7783676v36.8548924c0 6.8390522 3.799473 12.9182097 11.018473 12.9182097 7.598947 0 11.39842-5.6992102 11.39842-12.9182097V26.3300548c0-15.5778411-12.158315-26.21636677-27.356209-26.21636677-15.197894 0-24.31663 10.25857827-24.31663 10.25857827C141.171392 3.91316147 134.712288.11368803 122.93392.11368803c-12.158315 0-23.1767881 10.25857827-23.1767881 10.25857827C94.8178164 3.91316147 86.0790275.11368803 79.6199227.11368803c-10.6385257 0-19.3773146 4.93931547-24.6965774 16.71768317l-15.5778411 36.474945L20.7280844 6.57279288"/></g></svg>