<svg width="256px" height="224px" viewBox="0 0 256 224" xmlns="http://www.w3.org/2000/svg" preserveAspectRatio="xMidYMid"><title>Volar</title><defs><linearGradient x1="105.885394%" y1="16.5671625%" x2="-0.484700792%" y2="62.1014565%" id="c"><stop stop-color="#7a85ec"/><stop stop-color="#3ddcff" offset="1"/></linearGradient><path d="M110.203873 12.8859986C71.2966203-14.2800118 21.2798059 8.10615206 0 20.0720244c0 0 33.1279011 56.0281749 99.3837034 168.0845246C160.840473 82.8667804 191.568857 30.2218961 191.568857 30.2218961c-15.2536 4.2022405-45.890417 7.4333269-81.364984-17.3358975z" id="b"/></defs><path d="M134.246847 220.009988c-2.776574 4.808961-9.717709 4.808961-12.493682 0L.977179233 10.8201633C-1.79927468 6.01120185 1.67129271 0 7.22420053 0H248.775871c5.553148 0 9.023415 6.01120185 6.246841 10.8201633L134.246847 220.009988z" fill="url(#c)"/><g transform="translate(28.6163 45.4227)"><mask id="a" fill="#fff"><use href="#b"/></mask><path d="M105.63055 174.587328c-2.776574 4.808962-9.7177088 4.808962-12.4936818 0L-27.6391174-34.602496c-2.7764539-4.8089615.6941135-10.8201633 6.2470213-10.8201633H220.159575c5.553148 0 9.023415 6.0112018 6.246841 10.8201633L105.63055 174.587328z" fill="#001aff" mask="url(#a)"/></g></svg>