<svg width="256px" height="277px" viewBox="0 0 256 277" xmlns="http://www.w3.org/2000/svg" preserveAspectRatio="xMidYMid"><title>vueuse</title><path d="M202.96751 0v148.145904c0 41.404824-33.562686 74.96751-74.96751 74.96751-41.4048236 0-74.9675105-33.562686-74.9675105-74.96751V0h53.0356785v148.145904c0 7.835489 4.180183 15.075779 10.965916 18.993524 6.785732 3.917744 15.1461 3.917744 21.931832 0 6.785733-3.917745 10.965916-11.158035 10.965916-18.993524V0h53.035678z" fill="#35495e"/><path d="M256 0v148.145904c0 70.69404-57.30596 128.019135-128 128.019135-70.6940403 0-128-57.325095-128-128.019135V0h53.0324895v148.145904c0 41.404824 33.5658761 74.96751 74.9675105 74.96751 41.401634 0 74.96751-33.562686 74.96751-74.96751V0H256z" fill="#41b883"/></svg>