<svg width="256px" height="221px" viewBox="0 0 256 221" xmlns="http://www.w3.org/2000/svg" preserveAspectRatio="xMidYMid"><title>Vultr</title><path d="M89.1733333 6.0952381C86.874139 2.33352357 82.7933905.0280159095 78.3847619 0H12.8C5.7307552 0 0 5.7307552 0 12.8c0 2.4130355.675664961 4.7778629 1.95047619 6.8266667l16.88380951 24.807619 84.4190473-18.2857143L89.1733333 6.0952381z" fill="#c9f4ff"/><path d="M103.619048 26.6361905c-2.32736-3.7626627-6.4253504-6.0649045-10.8495242-6.0952381H27.4285714c-4.7891765-.2209034-9.2968254 2.2657475-11.6643548 6.434658-2.3675294 4.1689105-2.1939698 9.3140255.4491167 13.3139134L35.047619 70.1561905l87.222857-13.6533334-18.651428-29.8666666z" fill="#51b9ff"/><g style="fill:#007bfc"><path d="M34.2552381 68.9371429c-2.142793-3.4331957-2.5706307-7.6665369-1.1580952-11.4590477 1.9593153-5.0009844 6.8201277-8.2577287 12.1904761-8.167619h65.340952c4.427255.0186914 8.530505 2.3238879 10.849524 6.0952381L180.175238 148.48c1.274811 2.048804 1.950476 4.413631 1.950476 6.826667-.009609 2.41168-.68454 4.773937-1.950476 6.826666l-32.792381 51.992381c-2.360869 3.709029-6.452866 5.955018-10.849524 5.955018-4.396657 0-8.488654-2.245989-10.849523-5.955018L34.2552381 68.9371429z"/><path d="M199.558095 98.6819048c2.360869 3.7090282 6.452867 5.9550182 10.849524 5.9550182 4.396657 0 8.488655-2.24599 10.849524-5.9550182l11.27619-17.8590477 21.516191-34.1333333C255.324335 44.64072 256 42.2758927 256 39.8628571c-.009609-2.4116799-.68454-4.7739372-1.950476-6.8266666L236.982857 6.0952381C234.655497 2.33257539 230.557507.0303336047 226.133333 0h-65.584762c-3.394771 0-6.650501 1.34856756-9.050966 3.7490332C149.097139 6.14949884 147.748 9.40522893 147.748 12.8c-.022901 2.42497.677426 4.8018355 2.012 6.8266667l49.798095 79.0552381z"/></g></svg>