<svg width="512px" height="170px" viewBox="0 0 512 170" xmlns="http://www.w3.org/2000/svg" preserveAspectRatio="xMidYMid"><path d="M427.708635 0c-3.145092 0-6.91852 0-10.063612.626628033L399.404513 32.5556314c8.176898-5.0096094 18.24051-7.5127067 28.304122-7.5127067 32.707593 0 59.753337 26.9193939 59.753337 59.4750253 0 32.555631-27.045744 59.475025-59.753337 59.475025-32.707593 0-59.125001-26.294473-59.753337-58.848397l-18.868846 31.929003c12.578662 30.675748 43.399541 51.962319 77.993848 51.962319 46.544632 0 84.912367-38.190161 84.912367-84.51795C512.62271 38.1901614 474.253268 0 427.708635 0z" fill="#bf3078"/><path d="M171.083113 88.2743033l14.467082-25.0429247 32.707593 55.7203794 37.737692-64.4846347 37.737691 64.4846347L358.520022 9.39088333C361.665114 3.75635333 367.955298 0 374.873818 0h18.24051l-99.379449 169.0359-37.737692-64.484635-37.739399 64.484635-47.174675-80.7615967h0z" fill="#802050"/><path d="M198.130564 0 98.7511143 169.0359 0 0h18.2405103c6.9185199 0 13.2087043 3.75635333 16.3537965 9.39088333L98.7511143 119.576679 163.536257 9.39088333C166.681349 3.75635333 172.969826 0 179.890054 0h18.24051z" fill="#26134d"/></svg>