<svg width="256px" height="316px" viewBox="0 0 256 316" xmlns="http://www.w3.org/2000/svg" preserveAspectRatio="xMidYMid"><path d="M214.75 46.25c3.589851 0 6.5-2.9101491 6.5-6.5 0-3.5898509-2.910149-6.5-6.5-6.5-3.589851 0-6.5 2.9101491-6.5 6.5 0 3.5898509 2.910149 6.5 6.5 6.5zm8.25 56c0 0-8.25-41.5-62.25-30.25-5.5-18.75-4.5-32.5 7.5-45.25C184.5 9.5 210 19 210 19V4.75C201 .75 192.5 3.55271368e-15 183 3.55271368e-15 148.25 3.55271368e-15 129 26 120.75 43.5L23 223.25 50.5 218 0 315.5l35.25-6.25 27-76.75c76.5 0 174.5-27.5 160.75-130.25zm33-34.75-21.5-20.75-17 20.75H256zM75 210.25c0 0 2.5-.5 7-1.5 4.5-1 10.75-2.5 18.25-4.5 3.75-1 7.75-2.25 12-3.75 4.25-1.5 8.75-3 13-5 4.5-1.75 9-4 13.5-6.5 4.5-2.5 8.75-5.25 12.75-8.5 1-.75 2-1.5 3-2.5l3-2.5c1.75-1.75 3.75-3.5 5.5-5.5 1.75-1.75 3.25-3.75 4.75-5.75.75-1 1.5-2 2.25-3l1-1.5 1-1.5c.5-1 1.25-2 1.75-3 .5-1 1-2 1.75-3 .25-.5.5-1 .75-1.5.25-.5.5-1 .75-1.5.5-1 1-2 1.25-3 .75-2 1.5-4 2.25-6 .5-2 1.25-4 1.75-5.75.5-1.75.75-3.75 1.25-5.25.25-1.75.5-3.25.75-5 .25-1.5.5-3 .5-4.25.25-1.25.25-2.5.5-3.75.25-4.5.25-7 .25-7l4 .25c0 0-.25 2.75-.5 7.25-.25 1.25-.25 2.5-.5 3.75-.25 1.5-.25 3-.75 4.5-.25 1.5-.75 3.25-1 5-.5 1.75-1 3.5-1.5 5.5-.5 2-1.25 3.75-2 6-.75 2-1.5 4-2.5 6.25-.5 1-1 2-1.5 3-.25.5-.5 1-.75 1.5-.25.5-.5 1-.75 1.5-.5 1-1.25 2-1.75 3.25-.75 1-1.25 2-2 3-.25.5-.75 1-1 1.5l-1 1.5c-.75 1-1.5 2-2.25 3-1.75 2-3.25 4-5.25 5.75-1.75 2-3.75 3.5-5.75 5.5l-3 2.5c-1 .75-2 1.5-3.25 2.25-4.25 3-8.75 5.75-13.25 8.25-4.5 2.25-9.25 4.5-13.75 6.25-4.5 1.75-9 3.25-13.25 4.5-4.25 1.25-8.25 2.5-12.25 3.25-7.5 1.75-14 3.25-18.5 4-4 1.5-6.5 2-6.5 2h0z"/></svg>