<svg width="512px" height="170px" viewBox="0 0 512 170" xmlns="http://www.w3.org/2000/svg" preserveAspectRatio="xMidYMid"><title>WalkMe</title><path d="M100.792447 39.0816742v41.4991854c0 9.7554693-2.5627324 17.4635998-7.6881979 23.1243914-5.1254655 5.660792-12.0049791 8.491188-20.638541 8.491188-4.2959258.03768-8.5400032-.939921-12.3865415-2.853176-3.8367569-1.922049-7.1581875-4.733841-9.6871297-8.200744-2.6313317 3.460689-6.0059888 6.286526-9.8750635 8.269084-3.6243642 1.799691-7.6083077 2.751161-11.6503584 2.785885l-.5055372-.001049c-8.6392568 0-15.5301604-2.847481-20.67271072-8.542442C2.54581673 97.959035-.0169160056 90.2708368 0 80.589402V39.0816742h12.8052901v43.7800175c0 5.0742108 1.4237404 9.1631933 4.2712212 12.2669474 2.8474808 3.1037541 6.614698 4.6527836 11.3016514 4.6470887 4.2815399.1497914 8.4184453-1.5604203 11.3443635-4.6898009 2.9329053-3.120839 4.3993579-7.1955841 4.3993579-12.2242352V39.0816742h12.7282392v43.7800175c0 5.0742108 1.4237405 9.1631933 4.2712213 12.2669474 2.8474808 3.1037541 6.6146979 4.6527836 11.3016513 4.6470887 4.2673317.1483926 8.3874858-1.5701577 11.2845665-4.7068858 2.8930405-3.120839 4.3424082-7.1955841 4.3481032-12.2242352V39.0816742h12.7367814zm62.573391 71.7992288V75.0880691c0-7.5116544-2.12422-13.5995684-6.372662-18.263742-4.248441-4.6641735-9.761164-6.9934128-16.538168-6.9877179-6.731445 0-12.258405 2.3064595-16.580881 6.9193784-4.322476 4.6129189-6.480867 10.5527639-6.475172 17.8195349 0 7.4034502 2.221035 13.4799742 6.663106 18.2295722 4.44207 4.749598 10.102861 7.130092 16.982375 7.1414819 3.106759.0017345 6.189448-.544821 9.106244-1.6145216 3.195317-1.2050464 6.192638-2.880782 8.892682-4.9717015v13.8302145c-2.90502 1.646407-6.020146 2.890733-9.260007 3.698877-3.341219.814454-6.769198 1.218927-10.208219 1.205213-3.451524-.004542-6.882293-.534568-10.174049-1.572538-3.259306-.999058-6.345176-2.494452-9.148956-4.433527-5.011438-3.3836-9.089318-7.9756218-11.85691-13.3518378-2.686852-5.3496643-4.090586-11.2487045-4.1037-17.2297199l.003328-.5983575c0-10.7577825 3.388502-19.6390752 10.165506-26.643878 6.66214-6.8860773 15.099174-10.3847208 25.311103-10.4959304l.529786-.0027314c6.654303-.0643554 13.193829 1.7347542 18.878797 5.1938051 5.666774 3.404251 10.242892 8.3567723 13.189532 14.2744213 1.443021 2.8228928 2.464724 5.8419531 3.032567 8.9610221.716656 4.8059634 1.022442 9.6642587.914041 14.5221522V110.87236l-12.950343.008543zm20.42498-104.80722642h12.882003V110.880903h-12.882003V6.07367658zM205.394655 110.880903V6.07367658h12.882003V65.1361236h5.706352c3.147513.1338919 6.265435-.6559815 8.969564-2.2722896 2.31785-1.5148598 4.817938-4.4904773 7.500265-8.9268524l9.148956-14.8553074h15.000529l-10.532832 17.0848849c-1.459302 2.4663885-3.12606 4.80341-4.98196 6.9858015l-.51083.5913449c-1.440979 1.7171271-3.17664 3.1635111-5.125466 4.2712212 5.905675 1.1389924 10.262321 3.5678935 13.069937 7.2867035 2.807616 3.7188099 4.208577 9.0008868 4.202882 15.8462307v19.7330421h-12.950343V92.7282127c0-5.1254654-1.136145-8.9695645-3.416977-11.3785333-2.280832-2.4089688-5.860116-3.6134532-10.780562-3.6134532h-15.299515v33.1446768h-12.882003z"/><path d="M463.034719 0H317.625264c-12.98788 0-25.443685 5.15999962-34.626702 14.3446186-9.183017 9.1846189-14.338605 21.6413242-14.338605 34.6292039v47.2311643c-.013576 12.9952782 5.139245 25.4629602 14.323491 34.6568202 9.184246 9.193859 21.646531 14.359722 34.641816 14.359715h37.672171l34.494383 24.568064 34.494382-24.568064h38.748519c12.98788 0 25.443685-5.16 34.626702-14.344619C506.844438 121.692284 512 109.235579 512 96.247699V48.9738225C512 21.9296629 490.078878.00471727885 463.034719 0" fill="#0094d4"/><path d="M302.018222 109.343263V67.7928232c0-9.7554692 2.562732-17.4635998 7.688198-23.1243917 5.125465-5.6607918 12.027759-8.4911877 20.70688-8.4911877 4.265024-.040947 8.479548.9248813 12.301117 2.819006 3.840693 1.9492425 7.172603 4.7692263 9.729842 8.2349145 2.602193-3.4651691 5.958653-6.2928914 9.815267-8.2690843 3.795838-1.8771334 7.981326-2.8313077 12.215692-2.7848362 8.593697 0 15.461821 2.8474808 20.604372 8.5424424 5.14255 5.6949616 7.705283 13.3831598 7.688367 23.0645946v41.5589822h-12.702781V65.3838545c0-5.0229562-1.437978-9.0749214-4.313934-12.1558956-6.261354-6.1373547-16.282151-6.1373547-22.543505 0-2.881651 3.0752793-4.322476 7.1272445-4.322476 12.1558956v43.9594085h-12.728239V65.3838545c0-5.0229562-1.466453-9.0749214-4.399358-12.1558956-2.952646-3.0811136-7.079583-4.756128-11.344364-4.6043765-4.681258 0-8.448475 1.5347922-11.301651 4.6043765-2.853176 3.0695843-4.276916 7.1215495-4.271221 12.1558956v43.9594085h-12.822206zm176.62354-31.8120554c-1.810998 10.250931-5.959778 18.3520139-12.446339 24.3032484-6.486561 5.951235-14.388321 8.926853-23.705278 8.926853-3.175637-.002063-6.336443-.433082-9.396687-1.281367-3.076316-.844281-6.020318-2.112156-8.747461-3.767217-15.813867-9.7089539-22.312115-29.4130848-15.376396-46.6246506 1.834773-4.5014758 4.51403-8.6102498 7.893217-12.104641 6.733334-7.0087169 16.045052-10.9513772 25.764006-10.908699 6.930787-.1126799 13.733135 1.8767984 19.510939 5.7063516 5.723436 3.8270142 10.370525 9.3995342 13.941266 16.7175599l-47.060316 26.0715343-5.424451-9.7298419 34.912963-19.4853113c-2.011042-2.2901934-4.47843-4.1349149-7.243992-5.4159085-2.758238-1.2351277-5.751089-1.8587596-8.773088-1.8280827-6.221446-.0980446-12.1729 2.5373318-16.281895 7.2098215-4.41929 4.8008526-6.628936 10.7406976-6.628936 17.8195349 0 7.0788373 2.221035 13.0072924 6.663106 17.7853652 3.999748 4.4055977 9.604385 7.015912 15.55047 7.242506 5.946086.2265941 11.733127-1.9496049 16.056567-6.0380216 4.123152-4.0206429 6.685885-9.5447557 7.688198-16.5723384l13.104107 1.9733042z" fill="#fff"/></svg>