<svg width="256px" height="221px" viewBox="0 0 256 221" xmlns="http://www.w3.org/2000/svg" preserveAspectRatio="xMidYMid"><title>WayScript</title><path d="M222.16822 45.8034144l.628789 1.7873916c3.188399 8.8452352 7.611016 24.8257984 9.423775 31.7297102l1.315172-.8504119c6.958253-4.4245982 19.317015-11.1719727 21.98071-8.3033781 3.548379 3.8312211-13.370705 72.0989528-20.416038 75.2102128l-3.074616 24.829978c-.335001 2.641662-.683569 5.336582-1.041641 8.022394l-.727611 5.341001-1.090697 7.510389c-1.776219 11.684672-3.61519 20.916376-5.096266 21.239755-.262271-1.303643-.431976-2.70911-.570209-4.185853l-.252603-3.03947c-.192847-2.53272-.39855-5.194004-.835669-7.803863l-.264642-1.366487c-.807999-3.671335-2.543778-7.518746-7.83492-10.512869-5.510594-3.091574-12.69613.470854-22.382923 6.50937l-9.36125 5.95174c-1.271182.806742-2.576111 1.629555-3.91961 2.465224-11.317958 7.002478-20.604744 10.795071-27.860357 13.567819l-2.223728.844258c-2.584145.97709-4.859736 1.851328-6.852486 2.725566l-.839084.286458-3.5479 1.325969c-1.785723.653892-3.523227 1.142108-6.325256 1.345957l-1.102834.062881h-3.792652c-3.868622-.163627-5.835339-.794762-8.102459-1.661582l-2.100738-.793999c-.499795-.183204-1.033337-.372837-1.611877-.565684-1.5942-.69939-3.377646-1.398781-5.343757-2.150832l-4.89496-1.865589c-7.0762931-2.734263-15.9755779-6.487295-26.6978544-13.121222l-3.9228233-2.465224-8.2627528-5.271344c-10.2473162-6.448713-17.7619092-10.407092-23.4653503-7.189766-5.9782477 3.368389-7.4181697 7.816719-8.0995614 11.879356-.3471241 1.957394-.5423813 3.943715-.6996719 5.88303l-.1488536 1.920833c-.2057031 2.584146-.3856934 5.052584-.8228126 7.212467-1.8414998-.402074-4.2362786-14.570734-6.3789454-30.107366l-.5396454-3.978071-1.0438601-8.023001c-.559752-4.403415-1.0821389-8.659448-1.5484193-12.479588l-1.2907317-10.567387c-.0813007-.641976-.1578045-1.235277-.2292292-1.775248-7.0453328-3.11126-23.96441651-71.3789917-20.416037249-75.2102128C3.3374655 67.1068919 17.1967149 74.9878937 23.7792156 79.3205162l1.2933632-4.822124c2.0323987-7.449137 5.1547729-18.3778802 7.6669457-25.598858l.4634665-1.3087282C45.7765957 11.4384781 59.2758647-.376596298 64.9327012.00909710016 67.2082922.176230906 68.2239515 1.59044003 67.5425598 5.06168062l-.6173799 3.233882C64.780778 19.9844725 63.9242072 29.7582289 63.5391652 35.6394532l-.3209817 5.5392469c-.0221521.2604274-.0449789.404472-.0725284.4210018 16.1451681-15.9788143 37.4324929-25.6743473 60.0380609-27.3915673l2.058576-.1340849h5.528272c23.360268 1.275652 45.443029 11.0683593 62.070924 27.5256522-.022039-.0165298-.041717-.158213-.06207-.4179657l-.32352-5.5488655c-.423337-6.4092986-1.396313-17.4576145-3.998458-30.57119008-.681392-3.47124059.334268-4.898306161 2.609859-5.05258351984C196.629855-.370168075 209.788039 11.0480314 222.16822 45.8034144zm-22.281399 90.0340406c-4.654033.462833-15.903424 4.628321-28.849866 13.486413-19.747502 13.499269-25.970022 22.845906-27.011394 26.998538-.7971 3.175542-1.028516 6.5825-1.041372 8.099561 0 .128565.089995.21856.218559.21856 7.712916-.049521 21.67283-2.948341 35.577109-9.603397l1.603735-.784612c13.482127-6.741064 15.307831-8.761222 16.795943-11.724841l.855958-1.774428c1.008609-2.017218 1.558413-8.207149 1.836106-14.310304l.041612-.962314c.144486-3.521286.201059-6.938345.205949-9.424616.003435-.061515-.020037-.12174-.064871-.164084-.044835-.042344-.106302-.062338-.167468-.054476zm-143.7479293-.012856c-.0636267-.008605-.1276223.012993-.1730227.058393-.0454005.045401-.0669983.109396-.0583933.173023l.0202165 2.809798c.028164 2.066935.0875433 4.438597.1891735 6.850134l.0401134.905677c.0070229.151086.0142161.302198.0215825.453271l.0462975.905466c.2985778 5.574495.841541 10.919609 1.7653609 12.760032l.4499756.951377c.1857043.385693.3609329.749959.5458964 1.102885l.2872728.522146.3170331.512701c1.5725074 2.38234 4.6123428 4.703326 16.0517233 10.423016 14.4120766 7.19961 29.1712778 10.336583 37.1936998 10.388009.115708 0 .205703-.089995.205703-.21856-.059124-2.728357-.403843-5.443019-1.028515-8.099561l-.179853-.613041c-1.470758-4.41803-8.014787-13.514101-26.8315417-26.385497-12.9592981-8.870948-24.2086889-13.02358-28.8627226-13.499269z" fill="#5645bd"/></svg>