<svg width="256px" height="196px" viewBox="0 0 256 196" xmlns="http://www.w3.org/2000/svg" preserveAspectRatio="xMidYMid"><circle fill="#00a94b" cx="201.603167" cy="79.7592798" r="26.5435723"/><circle fill="#ff4131" cx="231.198977" cy="25.2005203" r="24.7994362"/><path d="M166.502426 195.635327c-9.48374 0-18.585951-5.50493-22.67377-14.716149L78.8050793 34.9022777c-5.559434-12.5359787.0545043-27.19762341 12.590483-32.75705745 12.5359787-5.55943404 27.1976237.05450426 32.7570577 12.59048295l65.023576 146.0168998c5.559434 12.535979-.054504 27.197624-12.590483 32.757058-3.270255 1.471615-6.704023 2.125666-10.083287 2.125666z" fill="#ffbc00"/><path d="M89.7604346 195.253797c-10.3558085 0-20.2210787-5.995468-24.6904276-16.024251L2.3356091 38.2815415c-6.04997234-13.6260638.05450425-29.59581061 13.6805681-35.64578295 13.6260638-6.04997234 29.5958106.05450425 35.645783 13.68056805L114.396358 157.264331c6.049972 13.626064-.054504 29.595811-13.680568 35.645783-3.5427766 1.580623-7.3035703 2.343683-10.9553554 2.343683z" fill="#0085f7"/></svg>