<svg width="256" height="254" xmlns="http://www.w3.org/2000/svg" preserveAspectRatio="xMidYMid"><path fill="#1C70E7" d="M79.072 0h99.95l-4.8 59.502 48.786-20.443 32.991 92.658-54.412 15.81 34.125 46.376-79.315 59.195-30.475-47.422-29.58 47.422-80.946-59.195 38.287-46.375L0 131.718l30.366-92.66L82.67 59.503z"/><path fill="#FFF" d="M107.425 27.406h41.87l-3.593 72.851 61.349-25.183 14.58 38.507-65.354 18.82 41.459 56.94-33.208 24.797-39.275-59.57-36.238 59.57-34.74-24.798 45.752-56.94-66.045-18.82 13.34-38.506 64.504 25.183z"/></svg>