<svg width="256px" height="240px" viewBox="0 0 256 240" xmlns="http://www.w3.org/2000/svg" preserveAspectRatio="xMidYMid"><title>web3js</title><path d="M85.3674598 43.7843098c0 0-9.4871692 5.4773045-9.4871692 16.4148504 0 10.954609 0 54.6706658 0 54.6706658 0 0 0 10.954609-9.4871692 5.477305-9.4871693-5.477305-9.4871693-16.414851-9.4871693-16.414851 0 0 0-43.7331198 0-54.6706657 0-.6825301.0341266-1.347997.1023796-1.9964007 1.0408585-9.6236752 9.3677264-14.4355129 9.3677264-14.4355129L47.4187829 21.8921549c0 0-.0170632 0-.0341265.0170633-.5630874.3242018-9.4530427 5.8015063-9.4530427 16.3977871 0 10.954609 0 54.6706658 0 54.6706658 0 0 0 10.9546089-9.4871693 5.4773046-9.4871692-5.4773046-9.4871692-16.4148504-9.4871692-16.4148504 0 0 0-43.73312 0-54.6706659 0-10.9375458 9.4871692-16.4148503 9.4871692-16.4148503L9.48716923-9.69933695e-15c0 0-9.48716922999996 5.47730454000001-9.48716922999996 16.41485040000001C3.87973478e-14 27.3694594 3.87973478e-14 71.0855162 3.87973478e-14 71.0855162c0 0 0 32.8467638 28.44444439999996 49.2616148C37.1637672 125.380791 43.2041592 125.773245 47.4017197 123.913351c4.1975604 6.705858 10.2379524 13.292275 18.9572752 18.325934 28.4444444 16.414851 28.4444444-16.41485 28.4444444-16.41485 0 0 0-43.7331199 0-54.6706658 0-10.954609 9.4871697-16.4148503 9.4871697-16.4148503-2.916228-3.668401-5.509313-6.1596361-7.779255-7.4737053-1.9352021-1.1202883-5.6498335-2.2805896-11.1438942-3.4809038z" fill="#808285"/><path d="M189.641005 136.813171c0-32.420183 28.444445-16.414851 28.444445-16.414851h0L256 142.290475v21.892155l-37.91455-21.892155c0 0-.119528-.069008-.331752-.176017l-.12479-.06195c-1.893518-.925745-9.030628-3.783911-9.030628 5.732335 0 10.937546 9.48717 16.41485 9.48717 16.41485h0l18.957275 10.937546c0 0 18.957275 10.954609 18.957275 43.78431 0 32.829701-28.444444 16.41485-28.444444 16.41485h0l-37.914551-21.892155V191.55209l37.931614 21.892154c0 0 9.487169 5.477305 9.487169-5.477304 0-10.937546-9.487169-16.41485-9.487169-16.41485h0l-9.487169-5.477305c-.566045-.338386-28.444445-17.165633-28.444445-49.261614zm-28.444444-49.2445514c5.669242.6515337 9.512545 1.5601748 11.529907 2.7259234 2.195366 1.268609 4.671155 4.0115042 7.427368 8.2286857 0 0-9.487169 5.4773043-9.487169 16.4148503h0l-7.68e-4 54.75709c-.024832 1.839038-.852566 32.250831-28.443677 16.328426-27.591111-15.922405-28.418844-47.305597-28.443676-49.174258l-7.68e-4-.087356 18.957275 10.954609h0l3.63e-4.036654c.010417.694505.319429 11.08552 9.486806 16.378196 9.196746 5.309632 9.478279-4.822012 9.486897-5.447293l2.72e-4-54.700677c0-10.9375459 9.48717-16.4148504 9.48717-16.4148504zm-47.384657 5.5967473 18.957275 10.9375461v21.892155l-18.957275-10.937546V93.1653669z" fill="#bcbec0"/><path d="M218.08545 43.7843098c-8.736386-5.0507232-16.56842-7.5078318-23.240152-8.4975005-1.740452-3.8051056-6.006266-8.2756782-14.674399-13.2240219-28.444444-16.24421778-56.871825-.1706325-56.871825-.1706325L85.3674598 43.7843098l18.9572752 10.9375458 37.91455-21.8921549c0 0 9.48717-5.4773045 18.957276 0 9.487169 5.4773046 0 10.9546091 0 10.9546091L123.28201 65.6764647h0 0l18.957275 10.9375458 37.948677-21.9092181c.563088-.3242019 9.743118-5.2896088 18.923149.0170632 9.487169 5.4773046 0 10.9375459 0 10.9375459l-37.91455 21.8921549 18.957275 10.954609 47.40172-27.3694594c0 0 18.957275-10.9375458-9.470106-27.3523962z" fill="#f16822"/></svg>