<svg width="256px" height="256px" viewBox="0 0 256 256" xmlns="http://www.w3.org/2000/svg" preserveAspectRatio="xMidYMid"><path d="M157.29009 0H256v255.997187H0V0h98.7099099c-.019688.458448693-.0675016.911272248-.0675016 1.37534608C98.6424083 17.5898044 111.785542 30.7357504 128 30.7357504c16.214458 0 29.360404-13.145946 29.360404-29.36040432 0-.464073832-.047813-.916897387-.070314-1.37534608zm58.327049 228.599956h17.598242l-26.657526-90.632213h-26.753153l-21.952098 90.632213h17.058229l4.443858-20.18018h30.485432l5.777016 20.18018zm-93.39978 0h16.841661l21.608965-90.632213h-16.627906l-13.235948 62.453088h-.216568l-12.569369-62.453088h-15.871325l-13.9840916 61.690881h-.2165678l-11.6046583-61.690881H59.3902l19.5304768 90.632213h17.1651065l13.4468907-61.690881h.216568l12.468117 61.690881zm67.783186-68.291136h7.129862l8.502395 33.258625h-23.029313l7.397056-33.258625z" fill="#654ff0"/></svg>