<svg width="256px" height="209px" viewBox="0 0 256 209" xmlns="http://www.w3.org/2000/svg" preserveAspectRatio="xMidYMid"><defs><linearGradient x1="0%" y1="50%" x2="100%" y2="50%" id="a"><stop stop-color="#2a3b8f" offset="0%"/><stop stop-color="#29abe2" offset="100%"/></linearGradient><linearGradient x1="0%" y1="50%" x2="100%" y2="50%" id="b"><stop stop-color="#2a3b8f" offset="0%"/><stop stop-color="#29abe2" offset="100%"/></linearGradient><linearGradient x1="100%" y1="50%" x2="0%" y2="50%" id="c"><stop stop-color="#b4d44e" offset="0%"/><stop stop-color="#e7f716" offset="100%"/></linearGradient><linearGradient x1="100%" y1="50%" x2="0%" y2="50%" id="d"><stop stop-color="#b4d44e" offset="0%"/><stop stop-color="#e7f716" offset="100%"/></linearGradient></defs><path fill="#166da5" d="M255.996595 104.028579l-27.804873 46.82085-38.990743-47.460042 38.990743-46.1816584z"/><path fill="#8fdb69" d="M225.155557 158.839336l-42.346503-50.656006-25.407901 42.506301 39.470136 57.687123z"/><path fill="#166da5" d="M224.676163 48.8982261l-41.867109 50.8158036-25.407901-42.5063011L196.871289.159798124z"/><path fill="url(#a)" opacity="0.95" d="M96.9974616 48.8982261H224.676163L196.551693.159798124h-71.429762z"/><path fill="url(#b)" opacity="0.95" d="M182.809054 99.8738278h70.630771l-25.407901-42.8258974h-70.79057"/><path fill="url(#c)" opacity="0.95" d="M225.155557 158.999134H96.8376634l28.1244696 48.738428h71.909156z"/><path fill="#010101" d="M124.962133 207.737562 64.8780385 103.868781 125.761124 0H59.9242967L0 103.868781l59.9242967 103.868781z"/><path fill="url(#d)" opacity="0.95" d="M182.809054 108.023532h70.630771l-25.407901 42.825897h-70.79057"/></svg>