<svg width="512px" height="275px" viewBox="0 0 512 275" xmlns="http://www.w3.org/2000/svg" preserveAspectRatio="xMidYMid"><title>WebDriver</title><path d="M73.7076556 219.644185l-17.2359205 54.457643h-1.8979603l-17.2749139-50.274755c-.1782013-.505877-.3205404-1.02368-.4259602-1.549563-.1060011.525745-.2483291 1.043508-.4259603 1.549563l-17.352053 50.274755h-1.8589669L0 219.644185h1.74283444c.40821918-.023206.77135253.257364.85192053.658226l15.02855633 48.376794c.2673651.917679.4872069 1.848541.658649 2.788874.1028521-.516238.2126269-1.006905.3293245-1.472.1158499-.464812.2384812-.90377.367894-1.316874l16.7713907-48.376794c.1027759-.420196.4990003-.700787.9294835-.658226h.5035232c.4082191-.023206.7713525.257364.8519205.658226l16.7713907 48.376794c.2837137.902817.5163471 1.820898.6967947 2.749881.1028521-.515956.2061281-1.000124.3098278-1.452503.1028521-.451532.2191259-.883991.3488212-1.297378l15.0281325-48.376794c.1027759-.420196.4990002-.700787.9294834-.658226h1.5877086zm43.0308874 52.637245-.077139 1.820398H84.5130596v-54.457643h32.1483444v1.819974H86.6437086v24.130543H111.936v1.781404H86.6437086v24.905324h30.0948344zm27.577642-52.637245c5.938579 0 10.354014 1.187744 13.246305 3.563232 2.891444 2.375771 4.337448 5.745448 4.338013 10.109033.003156 1.50668-.286168 2.999649-.85192 4.39608-.569976 1.410304-1.375434 2.713512-2.381987 3.853987-1.062936 1.196073-2.320026 2.204267-3.718358 2.982145-1.512757.846314-3.155609 1.43542-4.861457 1.743259 2.044643.190495 4.052527.66643 5.96514 1.413933 1.644014.641014 3.159346 1.572466 4.473642 2.749881 1.215953 1.108823 2.174377 2.470437 2.807947 3.989192.663018 1.628569.992351 3.373669.968477 5.131868.040203 2.1211-.369013 4.226689-1.200742 6.178331-.786377 1.776165-1.988606 3.337027-3.505166 4.550781-1.67161 1.308419-3.587682 2.269841-5.635814 2.827868-2.472258.678571-5.027984 1.004475-7.591417.968053h-16.809537v-54.457643h14.756874zm-12.627072 1.703841v24.362808h12.897907c2.37806.059016 4.747027-.314964 6.991258-1.103682 1.750869-.63008 3.357661-1.604762 4.725404-2.866437 1.175613-1.099939 2.088904-2.450102 2.672318-3.950622.539401-1.376601.821689-2.840476.832848-4.318941 0-3.89849-1.271665-6.893633-3.814994-8.98543-2.543611-2.091514-6.436167-3.137413-11.677669-3.137696h-12.627072zm14.679735 51.010967c5.086658 0 8.99207-1.090967 11.716238-3.2729 2.724168-2.181651 4.086393-5.364133 4.086676-9.547444.028811-1.753982-.349104-3.490794-1.104106-5.074225-.739107-1.50104-1.812326-2.812767-3.137272-3.83449-1.482274-1.121345-3.164929-1.949509-4.957669-2.440053-2.137166-.592855-4.347599-.879683-6.565298-.851921h-14.718304v25.021033h14.679735zm76.689801-25.485986c.060811 3.894957-.568561 7.769912-1.858967 11.445404-1.12712 3.18665-2.908222 6.10236-5.228927 8.559894-2.265753 2.34984-5.014462 4.179998-8.056371 5.364132-3.297764 1.271336-6.807645 1.902396-10.341722 1.859391h-19.637404v-54.457643h19.637404c3.534049-.043139 7.043929.587776 10.341722 1.858967 3.041792 1.184559 5.790443 3.014824 8.056371 5.364557 2.320626 2.457594 4.101716 5.373286 5.228927 8.559894 1.290406 3.675491 1.919778 7.550447 1.858967 11.445404h0zm-2.246358 0c.059821-3.678286-.510133-7.339691-1.685192-10.825749-1.008377-2.971213-2.631646-5.696542-4.763973-7.998304-2.059175-2.17308-4.571759-3.865887-7.359152-4.958093-3.006425-1.163924-6.207675-1.742255-9.431312-1.703841h-17.507179v50.971973h17.507179c3.223671.038821 6.424997-.539524 9.431312-1.703841 2.787471-1.092057 5.300085-2.784884 7.359152-4.958092 2.132491-2.30164 3.755782-5.027007 4.763973-7.998305 1.175189-3.486026 1.745146-7.147454 1.685192-10.825748h0zm52.094729 27.229137h-1.743258c-.256552.003974-.511962-.035441-.755285-.116872-.262741-.112273-.485498-.301202-.639152-.542093l-19.21102-23.510464c-.183219-.258089-.397929-.492304-.639153-.697218-.222958-.182428-.470694-.332268-.735788-.445033-.310276-.12645-.635933-.211249-.968477-.252186-.456092-.056211-.915422-.081981-1.37494-.077139h-7.940238v25.641005h-2.130226v-54.457959h13.130173c5.912865 0 10.405863 1.148892 13.478993 3.446676 3.072565 2.298914 4.608848 5.784865 4.608848 10.457854.028211 2.007346-.381551 3.996709-1.200742 5.82951-.79157 1.73097-1.939807 3.27524-3.369536 4.531709-1.549877 1.339267-3.336369 2.377124-5.267497 3.060132-2.205919.790165-4.515602 1.253244-6.855629 1.374517.517582.303351.976645.696957 1.355443 1.162172l20.257484 24.595389zm-34.007311-27.268131H249.28c2.336308.029784 4.664741-.276829 6.913695-.91041 1.898292-.527691 3.674753-1.422329 5.228928-2.633325 1.405343-1.114073 2.53235-2.5397 3.291973-4.164238.78279-1.72625 1.173188-3.604559 1.143099-5.499762 0-4.208176-1.368724-7.306737-4.106172-9.295682-2.737165-1.988097-6.687788-2.982287-11.851867-2.98257h-10.999947v25.485987zm46.245298 27.267815h-2.130649v-54.457643h2.130649v54.457643zm57.168529-54.457643-22.620397 54.457643h-1.897536l-22.619974-54.457643h1.665696c.408277-.023393.771518.257261.85192.658226l20.218066 48.764185c.154844.413386.303329.832989.445457 1.258808.141563.426384.277192.858843.406888 1.297377.228262-.865109.499719-1.71824.813351-2.556185l20.179496-48.764185c.102614-.420306.49895-.700976.929484-.658226h1.627549zm42.255259 52.637245-.077563 1.820398h-32.147497v-54.457643h32.147497v1.819974H354.47396v24.130543h25.292292v1.781404H354.47396v24.905324h30.094835zm48.958304 1.820714h-1.743258c-.256552.003974-.511962-.035441-.755285-.116872-.262741-.112273-.485498-.301202-.639152-.542093l-19.211444-23.510464c-.183101-.258183-.397823-.492413-.639152-.697218-.222896-.182517-.470645-.332366-.735788-.445033-.310127-.126457-.635645-.211257-.968053-.252186-.456092-.056213-.915423-.081983-1.374941-.077139h-7.940238v25.641005h-2.130225v-54.457959h13.130596c5.912583 0 10.405439 1.148892 13.478569 3.446676 3.072566 2.298914 4.608848 5.784865 4.608848 10.457854.028211 2.007346-.38155 3.996709-1.200742 5.82951-.791621 1.730818-1.939854 3.274939-3.369536 4.531285-1.549876 1.339268-3.336369 2.377124-5.267497 3.060132-2.206031.79035-4.515861 1.253572-6.856053 1.374941.517832.303343.977175.696943 1.356292 1.162172l20.257059 24.595389zm-34.007311-27.268131h10.379868c2.336447.029789 4.665021-.276824 6.914119-.91041 1.898292-.527691 3.674753-1.422329 5.228927-2.633325 1.405344-1.114073 2.532351-2.5397 3.291973-4.164238.78279-1.72625 1.173188-3.604559 1.1431-5.499762 0-4.208176-1.368724-7.306737-4.106172-9.295682-2.737166-1.988097-6.687788-2.982287-11.851868-2.98257h-10.999947v25.485987z"/><path d="M450.814305 218.180238h53.307761c4.249038 0 7.693563 3.444526 7.693563 7.693563v40.63449c0 4.249038-3.444525 7.693563-7.693563 7.693563h-53.307761c-4.249038 0-7.693563-3.444525-7.693563-7.693563v-40.63449c0-4.249037 3.444525-7.693563 7.693563-7.693563z" fill="#ea5906"/><path d="M454.965828 263.660927h-1.346119v-34.409112h1.346119v34.409112zm3.939602 1.419444c-.066921.179097-.197633.327167-.367046.415788-.159344.080772-.335472.122914-.514119.122914h-.489537l15.466808-36.807629c.140236-.333463.470357-.54704.832-.538538h.538279l-15.466385 36.807465zm47.86861-18.624c.035621 2.476834-.361992 4.940832-1.174888 7.280742-.714697 2.048631-1.838618 3.930486-3.303417 5.531125-1.421152 1.52684-3.158329 2.725217-5.090331 3.511524-4.203254 1.63193-8.865037 1.63193-13.068291 0-1.932129-.786302-3.669445-1.984675-5.090755-3.511524-1.464808-1.600708-2.588857-3.482535-3.303841-5.531125-1.56621-4.723135-1.56621-9.825634 0-14.548769.713255-2.052936 1.83741-3.938978 3.303841-5.542993 1.42446-1.52917 3.160255-2.735121 5.090331-3.53653 2.064029-.849689 4.278268-1.274229 6.510198-1.248212 2.246656-.028804 4.476438.391387 6.558517 1.235921 1.930872.794085 3.667295 1.996135 5.090331 3.523814 1.466387 1.604295 2.590402 3.490634 3.303417 5.543841.812279 2.34403 1.209995 4.811648 1.175312 7.292186h-4.24e-4zm-1.419444 0c.035163-2.339879-.32464-4.668927-1.064265-6.889113-.640204-1.9124-1.664541-3.673763-3.010119-5.175947-1.290742-1.414741-2.878541-2.526345-4.649537-3.255099-3.831006-1.50111-8.087404-1.50111-11.91841 0-1.771361.728534-3.359482 1.84016-4.650384 3.255099-1.347673 1.504905-2.379616 3.264973-3.034702 5.175947-1.451995 4.47798-1.451995 9.300246 0 13.778225.651251 1.905386 1.68381 3.658141 3.034702 5.151365 1.296062 1.402917 2.883077 2.505626 4.64996 3.23094 3.831006 1.50111 8.087404 1.50111 11.918411 0 1.766823-.725423 3.353816-1.828116 4.64996-3.23094 1.348768-1.490517 2.373728-3.244581 3.010119-5.151365.739696-2.220168 1.099501-4.549228 1.064265-6.889112h0z" fill="#f2f2f2"/><path d="M290.993166 40.1059603c3.910779.0118689 7.078144 3.1792338 7.090013 7.0900132h0v.7264636c4.752953.776053 20.733457 6.1414569 20.733457 23.4172185h0v37.5853774c1.877192 1.244821 3.036397 2.942729 3.036397 4.814835-.050528 1.503842-.728937 2.917692-1.87041 3.898066-.123338 2.748609.671788 8.228026 1.024 10.303576h0l.013562.138596c0 .111046.011868 2.761324-1.730119 4.520265-1.045216 1.022264-2.466615 1.566832-3.927311 1.504636-5.108556 0-5.325563-4.292663-5.431523-6.356769-.011868-.26151-.02204-.497165-.042808-.704423-.083497-.852769-.382729-1.288901-.89049-1.297378h0-.04959c-.542092 0-.894304.164027-1.474119 1.047735-1.6089 2.381563-4.527046 2.152689-6.084662 1.232954-.84562-.473533-1.44932-1.285044-1.659762-2.2311-.290755-1.337218.194967-2.92196 1.44106-4.70845.761295-.985989 1.150595-2.208817 1.099444-3.453457-1.139653-.980148-1.817266-2.392393-1.868716-3.894675 0-1.875497 1.163868-3.57849 3.049961-4.823312h0V75.0546225c0-2.8210861-.868451-3.8963708-2.656636-5.4950993-.766144-.668965-1.706552-1.1065385-2.711735-1.2617749h0v54.0435497c-.011175 3.911068-3.178945 7.078839-7.090013 7.090013h0-5.028027v19.874755h4.085828l.078834.015259c.071629.012291 6.997616 1.380026 7.827073 8.823947h0v7.627019h-24.691285l-7.592688-2.651973v-5.773563c-.189881-2.980027.34543-5.190781 1.547443-6.401272h0v-21.514172H234.82702v21.514172c1.203708 1.210491 1.735205 3.421245 1.548715 6.401272h0v5.773987l-7.592689 2.651549h-24.690861v-7.626596c.802715-7.207605 7.31983-8.718691 7.796289-8.818527l.02697-.00542.082225-.015258h4.086252v-19.874755h-4.881378c-3.910779-.011869-7.078144-3.179234-7.090013-7.090013h0V68.2947815c-1.004908.1562306-1.944665.5950191-2.709616 1.2651655-1.788609 1.5987285-2.658755 2.6740133-2.658755 5.4950994h0v33.8615096c1.886093 1.244821 3.050384 2.947815 3.050384 4.822888-.049978 1.502486-.727314 2.915268-1.867444 3.895099-.052668 1.24444.336139 2.467459 1.097749 3.453033 1.246516 1.786914 1.732238 3.371656 1.442755 4.708874-.211736.945951-.815846 1.757184-1.661457 2.2311-1.559312.919735-4.47449 1.149033-6.085086-1.23253-.579391-.884133-.931603-1.048159-1.474967-1.048159h0-.047894c-.507762.008477-.808689.444609-.888795 1.297377-.021192.207259-.032636.442914-.046623.704424-.104264 2.063682-.321271 6.356768-5.428132 6.356768-1.461201.062211-2.88313-.482325-3.929007-1.504635-1.740291-1.759365-1.730119-4.409219-1.728423-4.520265h0l.012291-.138596c.353907-2.07555 1.148609-7.554967 1.024-10.304-1.141474-.980374-1.819882-2.394224-1.870411-3.898066 0-1.872106 1.15751-3.570014 3.036398-4.814411h0V71.3396556c0-17.2757616 15.978384-22.6411655 20.733033-23.4172185h0v-.7264636c.012563-3.9104907 3.179522-7.0774504 7.090013-7.0900132h0zm4.973351 116.9996287H274.66257c.034914.347089.046807.696108.035602 1.044769h0 21.463311c-.045994-.351534-.111079-.700306-.194966-1.044769h0zm-68.580027 0h-21.306066c-.084125.344322-.148653.693139-.193272 1.044769h0 21.461616c-.010497-.348707.002104-.697727.037722-1.044769h0zm42.158623-5.305218c-.391002-.037765-.777572.106886-1.047736.392053-.682384.678146-1.058331 2.07343-1.075284 3.916291h0l5.49298 1.918305c-.034237-1.858311-.679497-3.65363-1.83608-5.108556-.642967-.786226-1.21388-1.092663-1.53388-1.118093zm-36.897054-.005779-.146231.005779c-.319576.025854-.890914.331867-1.533457 1.118093-1.156735 1.454871-1.802146 3.250195-1.836503 5.108556h0l5.493404-1.918305c-.015683-1.842861-.39163-3.238145-1.075285-3.916715-.270339-.285135-.657084-.429636-1.048159-.391629zm-2.413357-.702036h-18.062411c-.554384.125033-4.260874 1.107921-5.754914 4.942835h0 21.143312c.348286-1.549844 1.040048-3.001733 2.024265-4.248583.200883-.245626.417949-.47756.649748-.694252h0zm59.640371 0h-18.061139c.230674.216764.446607.448698.646357.694252.985428 1.246316 1.677844 2.698361 2.025961 4.248583h0 21.143735c-1.385113-3.554311-4.670384-4.658695-5.584779-4.900828l-.124053-.031298h0l-.046082-.010709zm-18.425219-21.661245h-2.441324v19.874755h2.441324v-4.405828h-.834119v-3.752688h.834119v-11.716239zm13.443391 0h-2.248477v19.874755h2.248477v-19.874755zm-51.852715 0h-2.441325v11.716239h.83412v3.752688h-.83412v4.405828h2.441325v-19.874755zm-13.636662 0h-2.248053v19.874755h2.248053v-19.874755zM184 118.931921c-.169407 3.09288-.515259 6.173566-1.035868 9.227019.011868.345431.122914 2.091232 1.220663 3.193643.71086.675965 1.670725 1.026012 2.649854.966357 1.256689 0 2.065377-.340768 2.596874-.904476-.933789-.168873-1.777226-.66397-2.379867-1.396981-.671788-.887099-.813775-2.037827-.422146-3.419125.138596-.489113.251338-.873961.348821-1.202014.081378-.274225.150921-.508728.213816-.734798l.06087-.224418c.216472-.821057.366783-1.668966.706506-4.086188-1.387152-.258519-2.723932-.737596-3.959523-1.419019zm134.195709 0c-1.235715.681149-2.57245 1.16021-3.959524 1.419019.464954 3.296212.574305 3.674279.981192 5.045404.118896.399906.235172.800586.348822 1.202014.391629 1.381298.249642 2.532026-.422146 3.419125-.602641.733011-1.446078 1.228108-2.379868 1.396981.531497.564132 1.340186.904476 2.59857.904476.979228.059464 1.93915-.290547 2.650278-.966357h0c1.097325-1.102411 1.208371-2.848212 1.218967-3.193643-.519887-3.053567-.865875-6.134203-1.036291-9.227019zm-9.79963 1.487682c-.500979.760475-1.074121 1.47087-1.71147 2.121324-.639611.629389-1.191732 1.341886-1.641536 2.118358-.136058.233823-.164637.514973-.078411.77139.141374.322161.369754.598536.659497.798093.13651-.128268.258723-.270946.364503-.425536.63449-.967629 1.460133-1.859815 3.038093-1.842861 1.478781.023735 2.467179 1.112583 2.639682 2.913059.022746.261222.039281.522947.049589.784954.02323.698334.103318 1.393614.239471 2.078941.516238-.058491 1.359258-.25812 1.767841-.801908.312794-.417059.353907-1.039682.122914-1.851761-.134782-.480212-.246252-.858279-.341616-1.181245-.427656-1.438093-.553961-1.868716-1.037987-5.310305-.439382.03645-.885545.054675-1.33849.054675-.915427 4.05e-4-1.829291-.075585-2.73208-.227178zm-114.596026 0c-.902218.151597-1.815519.227587-2.730384.227178-.454358-5.65e-4-.901086-.018931-1.340186-.055099-.482331 3.44159-.610331 3.872636-1.03841 5.310729-.095364.322966-.206411.701033-.343311 1.181245-.229298.812079-.18649 1.434278.125033 1.851761.408159.543364 1.251179.743417 1.767417.801908.13785-.685203.217954-1.380765.23947-2.079365.015258-.290331.029245-.555655.051285-.78453.172503-1.800476 1.158781-2.889324 2.637987-2.913483 1.57796-.016954 2.404026.875656 3.039788 1.843285.104558.154907.226108.297639.362384.425536.290798-.198515.519564-.475181.65992-.798093.086226-.256417.057648-.537567-.07841-.77139-.4498-.776475-1.001922-1.488972-1.641537-2.118358-.636704-.650914-1.209664-1.36126-1.711046-2.121324zm4.395232-1.519894c-.912282.514443-1.884964.913511-2.895682 1.188026.392194.518987.813905 1.014993 1.263046 1.485563.733303.72464 1.361722 1.548219 1.86702 2.446834.309166.579367.363666 1.261156.150463 1.882279-.131748.360943-.334688.69173-.596768.972715.661696.055368 1.325446-.079323 1.913219-.388239.416859-.22075.717905-.610966.825642-1.070198.178013-.818861-.225907-1.962808-1.162596-3.304689-.694535-.952097-1.161468-2.051129-1.364344-3.212291zm105.805139-4.24e-4c-.202688 1.161274-.669477 2.260455-1.364345 3.212715-.937112 1.342305-1.338913 2.485828-1.1609 3.304689.107709.458745.407991.848772.823947 1.070198.588327.309078 1.252665.443769 1.914914.388239-.263248-.280568-.466842-.611624-.598464-.973139-.213079-.620996-.158581-1.302605.150464-1.881855.506569-.89789 1.135017-1.72132 1.867443-2.446834.449141-.47057.870853-.966576 1.263047-1.485563-1.010777-.274932-1.983566-.674127-2.896106-1.18845zm-15.655417-11.946808H213.84943v10.56551c.011869 3.910779 3.179234 7.078144 7.090014 7.090013h0 2.824053c-4.354093-.734692-7.418827-4.683335-7.050194-9.083563.368633-4.400227 4.047638-7.783909 8.46328-7.783909 4.415642 0 8.094647 3.383682 8.46328 7.783909.368632 4.400228-2.696102 8.348871-7.050194 9.083563h0 14.922172c-4.345946-.748826-7.395698-4.699338-7.019918-9.093286.37578-4.393948 4.05205-7.769235 8.462037-7.769235 4.409988 0 8.086258 3.375287 8.462038 7.769235.37578 4.393948-2.673972 8.34446-7.019919 9.093286h0 36.86061c3.910241-.012104 7.076915-3.179346 7.088318-7.089589h0v-10.565934zm-41.894146 3.576795c-2.899368-1.780406-6.671592-1.115894-8.788039 1.548095-2.116446 2.663988-1.910813 6.488771.479059 8.910483 2.389872 2.421713 6.211598 2.677948 8.903364.596944 2.691765-2.081005 3.406143-5.844104 1.664265-8.766781h0l-4.928848 4.930967c-.629022.626863-1.64658.626863-2.275602 0-.627792-.628152-.627792-1.645755-4.24e-4-2.273907h0zm-21.274066-1.002598c-3.390421 0-6.247491 2.530559-6.656934 5.896166-.409442 3.365607 1.757564 6.507368 5.049093 7.320259h0v-6.622092c-2.25e-4-.42637.168934-.835366.470264-1.137014.30133-.301648.710147-.471238 1.136517-.471463h0c.427827 1.12e-4.836861.169698 1.138363.471437.301501.30174.470763.710908.470538 1.137463h0v6.621669c3.291528-.812891 5.458534-3.954652 5.049092-7.320259-.409442-3.365607-3.266513-5.896166-6.656933-5.896166zm43.328212 9.990147c.877809.014253 1.581947.729916 1.581947 1.607841 0 .877925-.704138 1.593589-1.581947 1.607841h0-6.437298c-.877809-.014252-1.581948-.729916-1.581948-1.607841 0-.877925.704139-1.593588 1.581948-1.607841h0zm12.843231-4.825006c.877809.014252 1.581948.729916 1.581948 1.607841 0 .877924-.704139 1.593588-1.581948 1.607841h0-19.280529c-.580648.009427-1.12127-.294947-1.414349-.79629-.29308-.501344-.29308-1.121759 0-1.623102.293079-.501344.833701-.805718 1.414349-.79629h0zm0-4.823736c.888104 0 1.608053.71995 1.608053 1.608053 0 .888104-.719949 1.608053-1.608053 1.608053h0-19.280529c-.888104 0-1.608053-.719949-1.608053-1.608053 0-.888103.719949-1.608053 1.608053-1.608053h0zM204.11253 50.4476821c-3.42876.7387426-6.674901 2.1565246-9.54702 4.1697484-5.762967 4.0570066-8.684503 9.6834967-8.684503 16.7222251h0v35.3135894h8.218278V75.0550464c0-4.1595762 1.415205-8.2475232 4.20747-10.7435232 1.680589-1.4484717 3.664478-2.5018244 5.805775-3.082596h0zm93.970649 0v10.7812451c2.141962.5806943 4.126558 1.6340379 5.807894 3.082596 2.790146 2.4955761 4.205775 6.583947 4.205775 10.7435232h0v31.5981986h8.218278V71.3396556c0-7.0387284-2.92196-12.6652185-8.684927-16.7222251-2.872119-2.0132238-6.11826-3.4310058-9.54702-4.1697484h0zm-9.738172 37.4298278c-2.342146-2.6655364-4.174835-3.0058808-5.662517-2.8193907-1.200318.1487682-2.547285 1.501245-3.84 2.9512053-1.629245 1.8309934-3.47592 3.906543-5.99396 3.906543-1.812345 0-3.313166-1.1935364-4.906808-2.4553112-2.135311-1.6923974-4.554596-3.610702-8.480212-3.8005828-3.066914-.1504636-5.575205 2.5455894-7.139603 4.8317881-.783786 1.1625544-1.475347 2.3846906-2.068344 3.6552053h0 38.091444zm-62.849272-13.597245h-1.226172l-8.236927 19.6407947h1.224053l8.239046-19.6407947zm7.496901.4259603c-5.303523 0-8.830729 4.2774039-8.830729 9.0562119h0v.0495894c0 4.7766887 3.477616 9.0045033 8.781139 9.0045033 5.301404 0 8.82861-4.277404 8.82861-9.0545166.02543-.0254304.02543-.0254304 0-.0508609 0-4.7771126-3.475921-9.0049271-8.77902-9.0049271zm-17.433431.3009271h-1.301192v17.5088742h1.301192V75.0071523zm17.383841.8743841c4.325298 0 7.477828 3.5526358 7.477828 7.880053h0v.0495894c0 4.3269934-3.100821 7.8300397-7.428238 7.8300397-4.327417 0-7.479947-3.5522119-7.479947-7.8796291h0V83.712c0-4.3274172 3.10294-7.8304636 7.430357-7.8304636zm55.401961-2.4578543h-39.078146v15.8558941c2.200583-3.4140398 5.664212-7.0578014 10.350199-6.8301987 4.956397.237351 8.059761 2.696053 10.321377 4.4893245 1.142252.9061722 2.219232 1.7610596 2.909669 1.7610596 1.075709 0 2.354437-1.4376689 3.594172-2.8278676 1.68053-1.8890596 3.944265-3.968 6.59751-4.0294569 2.167947-.0512848 3.62808.3742516 5.305219 1.6156821h0V73.4236821zm-7.089166-28.8504371H220.93902c-3.911068.0111746-7.078839 3.1789451-7.090013 7.0900133h0v8.8387814h74.496v-8.8387814c-.010901-3.9108625-3.178305-7.0788354-7.089166-7.0900133h0zm-62.222834 11.1050596v2.9783312h-2.977908v-2.9783312h2.977908zm5.002596 0v2.9783312h-2.978331v-2.9783312h2.978331zm5.002596 0v2.9783312h-2.978331v-2.9783312h2.978331zm5.004291 0v2.9783312h-2.978331v-2.9783312h2.978331zM277.236132 0c3.911346.0111699056 7.079604 3.17867083 7.091709 7.09001325h0V30.2474172c-.012106 3.9115073-3.180622 7.079076-7.092132 7.0900133h0-52.276557c-3.911068-.0111746-7.078838-3.1789451-7.090013-7.0900133h0V7.09001325C217.880315 3.1787802 221.048342.0109418725 224.959576 0h0zm-4.23e-4 1.78649007h-52.276557c-2.927409.00396905-5.299554 2.37611382-5.303523 5.30352318h0V30.2474172c.00397 2.9275746 2.376372 5.2997876 5.303947 5.3035232h0 52.276556c2.927906-.0032687 5.300825-2.3756181 5.304795-5.3035232h0V7.09001325c-.003971-2.9280703-2.377147-5.30048797-5.305218-5.30352318h0zM215.397298 12.9860662v18.456159c-3.298571-3.028e-4-6.344848-1.7594447-7.993023-4.6147738-1.648175-2.8553292-1.647852-6.3730533 8.48e-4-9.2280796 1.6487-2.8550263 4.6953-4.6136085 7.992175-4.6133056h0zm71.402808.0012715c5.095543 4.682e-4 9.225982 4.1314771 9.225748 9.2270199h0c-4.68e-4 5.0968143-4.131477 9.227254-9.22702 9.2270199h0V12.9873377zm-49.399947-.8947283c5.21586-2.341e-4 9.444406 4.2277423 9.444874 9.4436026 4.68e-4 5.2158604-4.227318 9.4445957-9.443179 9.4452981-2.505078 4.495e-4-4.907703-.9944029-6.679181-2.7656418-1.771477-1.771239-2.766541-4.1737299-2.766541-6.6788087 0-5.2158604 4.228167-9.4442162 9.444027-9.4444502zm27.394119 0c5.215861-2.341e-4 9.444406 4.2277423 9.444874 9.4436026 4.68e-4 5.2158604-4.227318 9.4445957-9.443178 9.4452981-2.505079 4.495e-4-4.907704-.9944029-6.679182-2.7656418-1.771477-1.771239-2.76654-4.1737299-2.76654-6.6788087 0-5.2158604 4.228166-9.4442162 9.444026-9.4444502zm-27.392424 1.7869136c-2.031198-4.495e-4-3.979358.8061258-5.415792 2.2422412-1.436433 1.4361154-2.243439 3.3840967-2.243439 5.4152954 0 4.2289199 3.428051 7.6572242 7.656971 7.6575362 4.22892 3.12e-4 7.657477-3.4274864 7.658101-7.6564062 6.24e-4-4.2289198-3.426921-7.6577301-7.655841-7.6586666zm27.39412 0c-2.031199-4.495e-4-3.979359.8061258-5.415792 2.2422412-1.436434 1.4361154-2.24344 3.3840967-2.24344 5.4152954 0 4.2289199 3.428051 7.6572242 7.656971 7.6575362 4.22892 3.12e-4 7.657477-3.4274864 7.658101-7.6564062 6.25e-4-4.2289198-3.426921-7.6577301-7.65584-7.6586666zm-29.846701 1.7372271c2.394577-.99182 5.150828-.4434965 6.983485 1.3892817 1.832657 1.8327782 2.380798 4.5890655 1.38882 6.9835772-.991979 2.3945117-3.328717 3.955675-5.920571 3.9555036-1.699483 0-3.329353-.6751458-4.531028-1.876901-1.201676-1.2017552-1.876602-2.8316697-1.876602-4.531152 0-2.5918541 1.561318-4.9284895 3.955896-5.9203095zm29.844864-.4877435c3.539015 0 6.408038 2.8687557 6.408194 6.4077705 1.56e-4 3.5390147-2.868614 6.4081014-6.407629 6.4083355-1.69998 0-3.329958-.6749837-4.531726-1.8767511-1.201767-1.2017674-1.876751-2.8317461-1.876751-4.5313019 0-3.5390148 2.868897-6.408053 6.407912-6.408053zm15.780168 6.7848477 4.23e-4 2.9783311h-2.978331v-2.9783311h2.977908zm0-4.2863046 4.23e-4 2.9766357h-2.978331v-2.9766357h2.977908z" fill="#ea5906"/></svg>