<svg width="512px" height="129px" viewBox="0 0 512 129" xmlns="http://www.w3.org/2000/svg" preserveAspectRatio="xMidYMid"><path d="M165.324756 50.3575405c0-9.1847086-8.931338-18.9395026-24.386985-18.9395026-17.355933 0-36.422121 12.7319064-39.335891 38.1323766-2.977112 25.6538413 12.985278 37.0555485 29.074354 37.0555485 16.089076 0 24.513671-6.270939 33.128294-14.6321909-7.41111-9.3113943-16.975875-5.0040826-18.812817-4.0539404-2.02697 1.0134851-4.624026 2.4070271-9.944822 2.4070271-6.207597 0-12.541878-2.787084-12.541878-14.3788197 39.779289-3.9272547 42.819745-16.4057899 42.819745-25.5904986zm-19.699617 1.5202277c-.253371 2.8504268-1.393542 7.7278238-21.536558 10.451565 4.243969-15.0755908 12.35185-16.2157615 16.089076-16.2157615 3.483855 0 5.700853 2.7237412 5.447482 5.7641965zm-67.3967584 2.4703699c0 0-8.5512805 26.8573549-9.2480515 29.0743535-.2533713-2.2803414-6.5243103-50.4842261-6.5243103-50.4842261-14.5688482 0-22.3600148 10.3882222-26.477298 21.3465297 0 0-10.3882222 26.9206978-11.2750217 29.2010393-.0633428-2.090313-1.5835704-28.8843252-1.5835704-28.8843252C22.2333292 41.1728319 9.94482247 33.0016083 0 33.0016083l12.0351355 73.0342697c15.2656192-.063343 23.5001855-10.3882224 27.8074972-21.34653 0 0 9.1847086-23.7535568 9.5647655-24.8303847.0633429 1.013485 6.5876531 46.1769147 6.5876531 46.1769147 15.3289621 0 23.5635284-9.6914514 27.9975257-20.2697021l21.473215-52.7645676c-15.1389332 0-23.1201283 10.3248794-27.2374114 21.3465298zM221.573178 31.2913522c-9.43808 0-16.659161 5.1307683-22.740071 12.6685637v-.0633428L204.280589 0c-12.541878 0-22.740072 10.8949647-24.703699 27.1107262l-9.501423 78.3550658c7.221081 0 14.885562-2.090313 19.002846-7.4111093 3.673883 4.7507113 9.184708 8.5512803 17.355932 8.5512803 21.156501 0 35.662006-24.5770134 35.662006-47.6337992-.126685-21.0298157-10.324879-27.6808116-20.523073-27.6808116zm-1.963627 37.6889769c-2.216999 12.8585921-9.374737 21.599901-16.279104 21.599901-6.96771 0-9.944823-3.1037981-9.944823-3.1037981 1.330199-11.2750216 2.153656-18.1793888 4.687369-24.1336137 2.533712-5.954225 8.55128-15.4556477 14.822219-15.4556477 6.144254 0 8.931338 8.1712236 6.714339 21.0931585zm75.314611-35.9787208h-14.758877l.063343-.7601138c1.013485-9.6281084 3.293827-14.6955338 10.831622-15.5189905 5.130768-.5067425 7.41111-3.1671409 7.981195-6.0809105.4434-2.28034149 1.836942-10.198193772 1.836942-10.198193772C271.233948.253371273 261.922554 13.0486206 259.515526 32.5582086l-.063342.4433997h-.316714c-4.814055 0-10.134851 5.4474824-11.021651 12.3518496l-.316714 2.5337127h9.88148l-8.29791 68.5369294-2.533712 12.288507c.316714 0 .696771.063343 1.013485.063343 13.872077-.506743 22.740072-11.465051 24.703699-27.364098l6.460967-53.5246814h4.624026c4.560683 0 9.88148-4.5606829 10.831622-12.1618211l.4434-2.7237412zm76.771496-1.2668564c-17.039219 0-33.128294 12.5418781-38.069034 32.2414945-4.94074 19.6996165 2.533713 43.0097736 27.617469 43.0097736 25.020413 0 39.462575-24.2602994 39.462575-44.4666584 0-20.0796734-13.618706-30.7846097-29.01101-30.7846097zm6.904367 36.612149c-.8868 8.9313374-4.814054 22.4867005-15.582334 22.4867005-10.831621 0-9.311394-15.8357046-8.234566-23.3735 1.140171-8.0445379 5.637511-19.509588 15.328962-19.509588 8.677966 0 9.501423 10.3248794 8.487938 20.3963875zm106.289249-13.9987628c0 0-8.551281 26.8573549-9.248052 29.0743535-.253371-2.2803414-6.52431-50.4842261-6.52431-50.4842261-14.568848 0-22.360015 10.3882222-26.477298 21.3465297 0 0-10.388222 26.9206978-11.275022 29.2010393-.063342-2.090313-1.58357-28.8843252-1.58357-28.8843252-.8868-13.4286774-13.175306-21.599901-23.120129-21.599901l11.971793 73.0342697c15.265619-.063343 23.500185-10.3882224 27.807497-21.34653 0 0 9.184709-23.7535568 9.501423-24.8303847.063343 1.013485 6.587653 46.1769147 6.587653 46.1769147 15.328962 0 23.563528-9.6914514 27.997526-20.2697021L512 33.0016083c-15.075591 0-23.056786 10.3248794-27.110726 21.3465298zM308.859582.443399728 296.444389 100.588395h0l-2.533712 12.35185c.316714 0 .696771.063343 1.013485.063343h0c13.365334-.190029 22.866757-11.90845 24.640356-26.6673267l7.157739-57.4519362c2.153655-17.5459606-8.29791-28.440925372-17.862675-28.440925372z" fill="#4353ff"/></svg>