<svg width="256px" height="209px" viewBox="0 0 256 209" xmlns="http://www.w3.org/2000/svg" preserveAspectRatio="xMidYMid"><title>WebGPU</title><path d="M238.573976 37.5273806c.138654 0 .225238.1501826.155762.2701741l-21.728443 37.5273806c-.069376.11982-.242408.119713-.311636-1.929e-4L195.023132 37.797362c-.069278-.1199916.017319-.2699814.155873-.2699814h43.394971z" fill="#0086e8"/><path d="M217.001295.090160758 238.729738 37.6175414c.069476.1199915-.017108.2701741-.155762.2701741h-43.394971c-.138554 0-.225151-.1499898-.155873-.2699812L216.689659.0903534305c.069228-.1199056267.24226-.1200126057.311636-1.926725e-4z" fill="#0093ff"/><path d="M216.849133 75.0540413c.138554 0 .225151.1499903.155873.2699819l-43.333775 75.0554808c-.069278.119991-.24247.119991-.311747 0l-43.333775-75.0554808c-.069278-.1199916.017318-.2699819.155873-.2699819h86.667551z" fill="#0076cc"/><path d="M173.67123.0899923342 217.005006 75.1447536c.069278.1199916-.017318.2699825-.155873.2699825h-86.667551c-.138555 0-.225152-.1499909-.155873-.2699825L173.359484.0899923342c.069278-.1199897789.242469-.1199897789.311746 0z" fill="#0066b0"/><path d="M173.511758 0c.138553 0 .22515.149988112.155874.269979736L87.0036812 150.379502c-.0692761.119993-.2424692.119994-.3117474 3e-6L.0243830704.26998254C-.0448955473.149990915.04170086 0 .180255964 0H173.511758z" fill="#005a9c"/><path d="M51.9759607 165.937258l-9.2513543 35.616994-9.6750447-35.616994h-6.1688894l-10.1588509 35.737945-9.19159846-35.737945h-5.8654306l11.79169696 42.208134 6.1073337-.060476 10.1588509-33.923672 9.7963563 33.923672h6.1678094l12.2150275-42.147658h-5.9259064 0zm42.2077739 24.309463c.046095-2.833959-.6301854-5.632984-1.9651028-8.133272-1.2899629-2.377432-3.2301423-4.338463-5.5936496-5.653766-2.5534484-1.404328-5.4309994-2.113258-8.3445775-2.055816-2.9851142-.058905-5.9341035.660663-8.5566028 2.087854-2.4665158 1.377485-4.4745216 3.448573-5.7750769 5.956504-1.3707843 2.5803-2.0558166 5.583571-2.0558166 9.009811 0 3.426241.7056708 6.439711 2.1162924 9.040409 1.3328191 2.520128 3.3573149 4.607441 5.8355527 6.01662 2.5763094 1.436389 5.4863987 2.166582 8.4356512 2.116653 3.9503642 0 7.2560135-.997731 9.9169478-2.993191 2.603337-1.912067 4.4797319-4.651961 5.3215085-7.770418h-5.9262663c-.6082991 1.80564-1.785918 3.36523-3.3560458 4.44461-1.5927688 1.108962-3.5781502 1.663204-5.9561442 1.662724-2.730411.064729-5.3817051-.919957-7.407923-2.751288-2.0360179-1.834192-3.1546998-4.384014-3.3560457-7.649466h26.4862313c.1168527-1.104794.1769275-2.214856.1799874-3.325808h0l.0010799-.00216zm-5.6840032-1.14904H67.5769117c.2817404-3.14378 1.4004223-5.602889 3.3560458-7.377325 1.9382534-1.767595 4.4830199-2.720448 7.105544-2.660574 1.8315136-.023478 3.6433003.380168 5.2916307 1.178918 1.5651503.761541 2.8774917 1.958271 3.7797362 3.446759.9606526 1.638501 1.4425464 3.513571 1.3909429 5.412222h0-.0010799zm18.4429526-7.982083v-17.778439h-5.502576v44.747757h5.502576v-6.107334c1.15849 2.005006 2.841416 3.656445 4.86794 4.776867 2.297043 1.286049 4.896616 1.933394 7.528515 1.874749 5.764867.079064 11.069952-3.136825 13.666446-8.284462 1.405762-2.770616 2.111594-5.843352 2.055816-8.949695 0-3.386404-.685272-6.359436-2.055816-8.919098-1.285628-2.469098-3.233189-4.531581-5.624608-5.956504-2.437346-1.426508-5.218765-2.158401-8.042558-2.116292-2.601592-.045605-5.168535.601287-7.437801 1.874389-2.059604 1.134946-3.773204 2.806747-4.958654 4.837702h0l7.2e-4 3.6e-4zm22.49519 10.279803c.055941 2.298771-.463785 4.575047-1.511895 6.621738-.92639 1.788914-2.34192 3.277848-4.081755 4.29342-1.718832.989282-3.671025 1.500727-5.654125 1.481297-1.963221.014287-3.894482-.497178-5.59329-1.481297-1.744371-1.019491-3.168719-2.506684-4.111993-4.29342-2.056246-4.111117-2.056246-8.950572 0-13.061689.943572-1.786521 2.36785-3.273641 4.111993-4.29342 1.698943-.983793 3.630114-1.495234 5.59329-1.481297 1.979266-.019849 3.929027.480532 5.654125 1.451059 1.736832.992322 3.153232 2.461185 4.081755 4.232945 1.045797 2.014865 1.56584 4.2612 1.511895 6.530664h0 0zm51.399372-13.243836c-1.430937-3.855665-4.072258-7.144118-7.528514-9.373026-3.44688-2.216485-7.407563-3.325087-11.882051-3.325807-3.747898-.041784-7.440315.907336-10.703493 2.751288-3.203527 1.813007-5.849111 4.469049-7.649466 7.679703-3.749023 6.911886-3.749023 15.250688 0 22.162574 1.806813 3.197957 4.451509 5.842652 7.649466 7.649466 3.262972 1.844462 6.955529 2.793618 10.703493 2.751288 3.525909.045851 7.004049-.818446 10.098375-2.509385 2.974412-1.626778 5.490859-3.976956 7.31685-6.833403 1.847116-2.861658 2.967984-6.130846 3.265332-9.523856v-4.232224H159.43062v4.474848h16.810827c-.444209 4.194187-1.996061 7.519995-4.655555 9.977423-2.659494 2.457429-6.045778 3.686983-10.158851 3.688663-2.783389.04135-5.527774-.657698-7.952205-2.025579-2.36541-1.357341-4.295096-3.360573-5.563052-5.775077-1.350865-2.498945-2.026058-5.401423-2.025578-8.707432 4.8e-4-3.306009.675673-6.218686 2.025578-8.73803 1.261791-2.426739 3.19227-4.441288 5.563052-5.805315 2.424561-1.367558 5.168857-2.066583 7.952205-2.025579 2.718185-.05933 5.398848.642256 7.73946 2.025579 2.222875 1.358041 3.991072 3.347169 5.079245 5.713881h6.5915zm36.705558.120952c0-3.628307-1.239633-6.59138-3.7189-8.88922-2.479267-2.297839-6.097375-3.446759-10.854323-3.446759h-13.60705v42.148378h5.502936v-17.596652h8.103035c4.917976 0 8.576401-1.158999 10.975273-3.476997 2.398873-2.317998 3.598789-5.230675 3.599749-8.73803h0l-7.2e-4-7.2e-4zm-14.573223 7.679704h-8.103034v-15.47892h8.103034c5.965504 0 8.948616 2.600219 8.949336 7.800656 0 2.459348-.72559 4.354016-2.176768 5.684003-1.451179 1.329987-3.708701 1.995221-6.772568 1.995701h0v-.00144zm21.284955-20.014963v26.607183c0 3.507355.695951 6.460349 2.087854 8.858981 1.306618 2.32013 3.289392 4.186876 5.684003 5.351387 5.12786 2.33839 11.017733 2.33839 16.145593 0 2.399066-1.169415 4.390386-3.034169 5.714602-5.351387C255.295529 199.00527 256 196.052156 256 192.544081v-26.606823h-5.501496v26.667298c0 3.749259-.917216 6.530905-2.751648 8.344938-1.834432 1.814033-4.364095 2.72105-7.58899 2.72105-3.265212 0-5.815034-.907017-7.649466-2.72105-1.834432-1.814033-2.751288-4.595679-2.750568-8.344938v-26.667298h-5.503656 3.6e-4z"/></svg>