<svg width="256" height="209" xmlns="http://www.w3.org/2000/svg" preserveAspectRatio="xMidYMid"><path d="M238.574 37.527a.18.18 0 01.156.27L217 75.326a.18.18 0 01-.311 0l-21.667-37.528a.18.18 0 01.156-.27h43.395z" fill="#0086E8"/><path d="M217.001.09l21.729 37.528a.18.18 0 01-.156.27h-43.395a.18.18 0 01-.156-.27L216.69.09a.18.18 0 01.311 0z" fill="#0093FF"/><path d="M216.85 75.054a.18.18 0 01.155.27l-43.334 75.056a.18.18 0 01-.312 0l-43.333-75.056a.18.18 0 01.156-.27h86.667z" fill="#0076CC"/><path d="M173.671.09l43.334 75.055a.18.18 0 01-.156.27h-86.667a.18.18 0 01-.156-.27L173.359.09a.18.18 0 01.312 0z" fill="#0066B0"/><path d="M173.512 0a.18.18 0 01.156.27L87.004 150.38a.18.18 0 01-.312 0L.024.27A.18.18 0 01.18 0h173.332z" fill="#005A9C"/><path d="M51.976 165.937l-9.251 35.617-9.675-35.617h-6.17l-10.158 35.738-9.192-35.738H1.665l11.791 42.208 6.108-.06 10.159-33.924 9.796 33.924h6.168l12.215-42.148h-5.926zm42.208 24.31a16.692 16.692 0 00-1.965-8.134 14.245 14.245 0 00-5.594-5.653 16.636 16.636 0 00-8.345-2.056 17.191 17.191 0 00-8.556 2.088 14.432 14.432 0 00-5.775 5.956c-1.371 2.58-2.056 5.584-2.056 9.01s.706 6.44 2.116 9.04a14.975 14.975 0 005.836 6.017 16.741 16.741 0 008.435 2.117c3.95 0 7.256-.998 9.917-2.993a14.248 14.248 0 005.322-7.77h-5.926a8.805 8.805 0 01-3.356 4.444c-1.593 1.109-3.579 1.663-5.957 1.662a10.67 10.67 0 01-7.408-2.75c-2.036-1.835-3.154-4.385-3.356-7.65h26.487a32.47 32.47 0 00.18-3.326v-.002zm-5.684-1.15H67.577c.282-3.143 1.4-5.602 3.356-7.377a10.2 10.2 0 017.106-2.66c1.831-.024 3.643.38 5.291 1.179a9.05 9.05 0 013.78 3.446 10.155 10.155 0 011.39 5.413zm18.443-7.981v-17.779h-5.503v44.748h5.503v-6.107a12.743 12.743 0 004.868 4.776 14.739 14.739 0 007.528 1.875 15.075 15.075 0 0013.667-8.284 19.025 19.025 0 002.055-8.95c0-3.386-.685-6.36-2.055-8.92a14.995 14.995 0 00-5.625-5.956 15.466 15.466 0 00-8.043-2.116 14.676 14.676 0 00-7.437 1.875 13.014 13.014 0 00-4.959 4.837zm22.495 10.28a13.791 13.791 0 01-1.512 6.621 10.633 10.633 0 01-4.082 4.294c-1.719.989-3.67 1.5-5.654 1.48a10.999 10.999 0 01-5.593-1.48 10.828 10.828 0 01-4.112-4.294 14.6 14.6 0 010-13.062 10.835 10.835 0 014.112-4.293 11.006 11.006 0 015.593-1.481 11.3 11.3 0 015.654 1.45 10.475 10.475 0 014.082 4.234 13.48 13.48 0 011.512 6.53zm51.4-13.244a19.033 19.033 0 00-7.53-9.373c-3.446-2.217-7.407-3.326-11.881-3.326a21.275 21.275 0 00-10.704 2.751 20.146 20.146 0 00-7.65 7.68 23.242 23.242 0 000 22.162 20.197 20.197 0 007.65 7.65 21.263 21.263 0 0010.704 2.751 20.503 20.503 0 0010.098-2.51 20.173 20.173 0 007.317-6.833 20.931 20.931 0 003.265-9.524v-4.232h-22.676v4.475h16.81c-.444 4.194-1.996 7.52-4.655 9.977-2.66 2.458-6.046 3.687-10.159 3.69a15.708 15.708 0 01-7.952-2.026 14.351 14.351 0 01-5.563-5.776c-1.351-2.498-2.026-5.401-2.026-8.707 0-3.306.676-6.219 2.026-8.738a14.318 14.318 0 015.563-5.805 15.715 15.715 0 017.952-2.026c2.718-.06 5.399.642 7.74 2.026a13.117 13.117 0 015.079 5.714h6.591zm36.705.12c0-3.628-1.24-6.59-3.72-8.889-2.478-2.298-6.096-3.446-10.853-3.446h-13.607v42.148h5.502v-17.597h8.104c4.917 0 8.576-1.159 10.975-3.477 2.399-2.318 3.599-5.23 3.6-8.738h-.001zm-14.573 7.68h-8.103v-15.479h8.103c5.965 0 8.948 2.6 8.949 7.801 0 2.46-.726 4.354-2.177 5.684s-3.709 1.995-6.772 1.996v-.002zm21.285-20.015v26.607c0 3.508.695 6.46 2.087 8.86a13.097 13.097 0 005.684 5.35 19.457 19.457 0 0016.146 0c2.4-1.169 4.39-3.033 5.715-5.35 1.409-2.399 2.113-5.352 2.113-8.86v-26.607h-5.501v26.668c0 3.749-.918 6.53-2.752 8.344-1.835 1.815-4.364 2.722-7.59 2.722-3.264 0-5.814-.907-7.649-2.722-1.834-1.814-2.75-4.595-2.75-8.344v-26.668h-5.504z"/></svg>