<svg width="256px" height="256px" viewBox="0 0 256 256" xmlns="http://www.w3.org/2000/svg" preserveAspectRatio="xMidYMid"><path d="M127.200427.00244637771C161.286409-.208130791 194.049501 13.1833586 218.227385 37.2110415 242.405269 61.2387243 256 93.9177286 256 128.004377c0 70.587669-57.146859 127.850485-127.734377 127.996932C57.6781061 256.147195.295967016 199.121534.00112318334 128.534476-.291456908 57.9474184 56.6141371.446206788 127.200427.00244637771zm0 14.24209232229C64.4090553 14.3324565 13.5285057 65.2130061 13.4405879 128.004377c-.2134262 30.124974 11.6154031 59.087153 32.8573507 80.449252 21.2419477 21.362098 50.1369471 33.354095 80.2626454 33.310705 62.791371-.088036 113.671921-50.968585 113.759839-113.759957 0-62.4004511-50.720233-113.1199959-113.119996-113.7598383zm39.679856 77.2798817c-.579482 1.4201038-.85216 2.9466823-.800147 4.4795843 0 3.819089 1.517127 7.4817583 4.217631 10.1822613 2.700504 2.700504 6.363173 4.217631 10.182262 4.217631 1.785441.168535 3.586233-.049701 5.279731-.639842 4.566955 7.410407 7.002674 15.935898 7.04033 24.640122 0 49.43986-39.040015 54.080437-64.959821 54.080437-66.3692559 0-75.9716185-25.561117-76.1570288-32.282726l-.0027849-.197873h-3.1998996c-10.9820531-.0863-19.8854315-8.876181-20.1542387-19.813746l-.0056108-.346103v-4.000047h9.1201612c6.5699335-.190239 12.8486523 2.712373 16.9599498 7.840477 3.6632311-5.111599 9.4814042-8.232707 15.7503379-8.469007l.409465-.011312h9.2797779v5.279731c.1289609 5.104777-1.7980035 10.047408-5.3481201 13.717837-3.4486848 3.565559-8.1482767 5.64024-13.0949573 5.793633l-.4370875.008537h-1.2796846c.6398423 3.200588 10.3998459 4.480273 12.9605912 4.480273 6.7566536.419084 13.1357203-3.145878 16.3194195-9.120161 2.9988849-5.808979 4.1173765-12.406685 3.2005877-18.879477 0-25.920495 7.0396416-46.7201866 51.3593871-46.7201866 8.204446-.6549658 16.400265 1.3659275 23.359749 5.759957zm39.040014-21.4402221-12.479677 20.1605374-3.84043 7.8397886c-.484182.9598578-1.134259 1.8265499-1.920215 2.5600577-2.346103 1.980934-5.509122 2.696944-8.479631 1.919527-1.484069-.104427-2.865598-.795068-3.839742-1.919527-3.193399-3.4861468-3.193399-8.8346028 0-12.3207493.568749-.5687487 1.137498-.631943 1.594142-1.0883463l.165769-.1913383 28.799784-16.9599498z" fill="#4700a3"/></svg>