<svg width="256px" height="213px" viewBox="0 0 256 213" xmlns="http://www.w3.org/2000/svg" preserveAspectRatio="xMidYMid"><defs><path id="b" d="M6.39488462e-14.328353673h256.002879v210.938702h-256.002879z"/><linearGradient x1="12.932%" y1="9.052%" x2="71.216%" y2="81.625%" id="c"><stop stop-color="#67337a"/><stop stop-color="#723986" offset="1"/></linearGradient><linearGradient x1="91.997%" y1="52.448%" x2="29.654%" y2="52.448%" id="d"><stop stop-color="#623274" stop-opacity="0"/><stop stop-color="#542c65" offset="1"/></linearGradient><linearGradient x1="91.997%" y1="52.448%" x2="29.654%" y2="52.448%" id="e"><stop stop-color="#623274" stop-opacity="0"/><stop stop-color="#542c65" offset="1"/></linearGradient><linearGradient x1="91.675%" y1="5.599%" x2="56.225%" y2="79.874%" id="f"><stop stop-color="#8a519f"/><stop stop-color="#8a53a0" offset="1"/></linearGradient><linearGradient x1="63.479%" y1="48.225%" x2="0%" y2="48.225%" id="g"><stop stop-color="#8a529f" stop-opacity="0.1"/><stop stop-color="#542c65" offset="1"/></linearGradient><linearGradient x1="24.699%" y1="31.401%" x2="80.097%" y2="66.964%" id="h"><stop stop-color="#5c2e6d"/><stop stop-color="#6d377b" offset="1"/></linearGradient><linearGradient x1="12.346%" y1="34.458%" x2="81.65%" y2="53.652%" id="i"><stop stop-color="#612e74"/><stop stop-color="#7f4395" offset="1"/></linearGradient><linearGradient x1="100%" y1="0%" x2="100%" y2="69.36%" id="j"><stop stop-color="#582c6a"/><stop stop-color="#743983" offset="1"/></linearGradient><linearGradient x1="50%" y1="74.788%" x2="19.624%" y2="71.707%" id="k"><stop stop-color="#623274" stop-opacity="0"/><stop stop-color="#542c65" offset="1"/></linearGradient><linearGradient x1="0%" y1="0%" x2="0%" y2="100%" id="l"><stop stop-color="#723a85"/><stop stop-color="#8c519c" offset="1"/></linearGradient><linearGradient x1="-6.66133815e-14%" y1="35.927%" x2="62.291%" y2="46.718%" id="m"><stop stop-color="#66397a"/><stop stop-color="#9f69ab" offset="1"/></linearGradient><linearGradient x1="72%" y1="48.225%" x2="0%" y2="48.225%" id="n"><stop stop-color="#623274" stop-opacity="0"/><stop stop-color="#542c65" offset="1"/></linearGradient><linearGradient x1="50%" y1="21.039%" x2="50%" y2="78.192%" id="o"><stop stop-color="#5d306e"/><stop stop-color="#9f6aaa" offset="1"/></linearGradient></defs><mask id="a" fill="#fff"><use href="#b"/></mask><path fill="#5b2e6e" mask="url(#a)" d="M6.39488462e-14 139.993146V.328353673L64.1019552 70.4120588 128.480846.328353673l63.52082 69.720461927L256.002879.328353673V140.314947l-63.28161 70.952109-64.240423-69.993297-64.240423 69.993297z"/><path d="M32.1221931 105.797705c6.6543075-7.284991 28.069103-30.7257144 32.1182299-35.1589107C56.1038574 61.7355024 13.2755878 14.8601181 7.10542736e-15.328353673.809825391 2.98906216 28.8657174 95.1061107 32.1221931 105.797705z" fill="url(#c)" mask="url(#a)"/><path fill="url(#d)" mask="url(#a)" transform="translate(19.588113 55.239148)rotate(-17)translate(-19.588113 -55.239148)" d="M16.9102703-2.99931617 31.9481592 28.2669449l.5839193 85.2113511H6.64414686z"/><path fill="url(#e)" mask="url(#a)" transform="translate(45.064179 87.58027)rotate(235)translate(-45.064179 -87.58027)" d="M29.7231827 60.7335265l30.6819928 10.0828122-2.8218114 40.8934843-20.4092201 2.717191z"/><path fill="url(#f)" mask="url(#a)" d="M191.762456 70.3181739l64.240423 69.9967731V.328353673z"/><path fill="url(#g)" mask="url(#a)" transform="translate(230.577226 98.056077)rotate(-46)translate(-230.577226 -98.056077)" d="M223.556597 50.9019177l19.756972-.4910017-5.471043 75.974961-20.001643 19.315362z"/><path fill="url(#h)" mask="url(#a)" d="M192.721269 211.267056l63.28161-70.952109-87.251918-95.8812282z"/><path fill="url(#i)" mask="url(#a)" d="M128.480846 141.273759l64.240423 69.993297-23.970308-166.8333372z"/><path fill="url(#j)" mask="url(#a)" d="M64.240423 211.267056l64.240423-69.993297V.328353673z"/><path fill="url(#k)" mask="url(#a)" d="M64.240423 211.267056l25.1210726-27.370722L128.480846 41.5035652V.328353673z"/><path fill="url(#l)" mask="url(#a)" d="M128.480846 141.273759l40.270115-96.8400402L128.480846.328353673z"/><path d="M31.6408053 105.661555c2.1991218 7.204515 32.6040131 105.605501 32.6040131 105.605501L128.480846.328353673 31.6408053 105.661555z" fill="url(#m)" mask="url(#a)"/><path fill="url(#n)" mask="url(#a)" transform="translate(56.289431 148.037903)rotate(-17)translate(-56.289431 -148.037903)" d="M41.8125024 102.192348l28.9538565-16.9441171-.247467 110.8317471-25.1119039 14.747596z"/><path fill="url(#o)" mask="url(#a)" d="M7.10542736e-15 140.774684 64.240423 211.267056.00263550453.328353673z"/></svg>