<svg width="256px" height="283px" viewBox="0 0 256 283" xmlns="http://www.w3.org/2000/svg" preserveAspectRatio="xMidYMid"><title>WebKit</title><defs><linearGradient x1="50%" y1="0%" x2="50%" y2="100%" id="a"><stop stop-color="#34aadc" offset="0%"/><stop stop-color="#007aff" offset="100%"/></linearGradient></defs><path d="M242.793651 157.203703c17.608465 13.731962 17.608465 36.323254 0 50.165957l-82.850088 65.116077c-17.608466 13.731962-46.27866 13.731962-63.8871256 0l-82.8500882-65.005335c-17.6084656-13.731962-17.6084656-36.323254 0-50.165957l82.8500882-65.1160775c17.6084656-13.7319615 46.2786596-13.7319615 63.8871256 0l82.850088 65.0053355z" fill="#ff9d00"/><path d="M96.2550929 231.842168l-83.2170061-65.401929C4.64836136 159.866621 0 151.064657 0 141.705608c0-9.359049 4.64836136-18.161012 13.0380868-24.734631l83.2170061-65.5133463C104.644819 44.8840129 115.982285 41.2072435 128 41.2072435c12.017715 0 23.241807 3.6767694 31.744907 10.2503872l83.217006 65.4019293C251.351639 123.433178 256 132.235141 256 141.594191c0 9.359049-4.648361 18.161012-13.038087 24.734631l-83.217006 65.401929c-8.5031 6.685035-19.727192 10.361804-31.744907 10.361804-12.017715 0-23.241807-3.676769-31.7449071-10.250387z" fill-opacity="0.100000001"/><path d="M96.2550929 231.842168l-83.2170061-65.401929C4.64836136 159.866621 0 151.064657 0 141.705608c0-9.359049 4.64836136-18.161012 13.0380868-24.734631l83.2170061-65.5133463C104.644819 44.8840129 115.982285 41.2072435 128 41.2072435c12.017715 0 23.241807 3.6767694 31.744907 10.2503872l83.217006 65.4019293C251.351639 123.433178 256 132.235141 256 141.594191c0 9.359049-4.648361 18.161012-13.038087 24.734631l-83.217006 65.401929c-8.5031 6.685035-19.727192 10.361804-31.744907 10.361804-12.017715 0-23.241807-3.676769-31.7449071-10.250387z" fill="#fc0"/><path d="M96.2550929 190.634925l-83.2170061-65.40193C4.64836136 118.659377 0 109.857414 0 100.498364c0-9.3590489 4.64836136-18.1610119 13.0380868-24.7346304l83.2170061-65.5133461C104.644819 3.67676943 115.982285-1.46397538e-14 128-1.46397538e-14c12.017715 0 23.241807 3.6767694300000144 31.744907 10.250387500000015l83.217006 65.4019289C251.351639 82.2259344 256 91.0278979 256 100.386947c0 9.35905-4.648361 18.161013-13.038087 24.734631l-83.217006 65.401929c-8.5031 6.685035-19.727192 10.361805-31.744907 10.361805-12.017715 0-23.241807-3.67677-31.7449071-10.250387z" fill-opacity="0.100000001"/><path d="M96.2550929 190.634925l-83.2170061-65.40193C4.64836136 118.659377 0 109.857414 0 100.498364c0-9.3590489 4.64836136-18.1610119 13.0380868-24.7346304l83.2170061-65.5133461C104.644819 3.67676943 115.982285-1.46397538e-14 128-1.46397538e-14c12.017715 0 23.241807 3.6767694300000144 31.744907 10.250387500000015l83.217006 65.4019289C251.351639 82.2259344 256 91.0278979 256 100.386947c0 9.35905-4.648361 18.161013-13.038087 24.734631l-83.217006 65.401929c-8.5031 6.685035-19.727192 10.361805-31.744907 10.361805-12.017715 0-23.241807-3.67677-31.7449071-10.250387z" fill="url(#a)"/><path d="M128.287315 163.176305h0c42.523535 0 76.99567-28.178135 76.99567-62.937625 0-34.7594914-34.472135-62.9376265-76.99567-62.9376265-42.5235337 0-76.9956691 28.1781351-76.9956691 62.9376265 0 34.75949 34.4721354 62.937625 76.9956691 62.937625h0zm0 6.478874h0c-46.9009565 0-84.9216939-31.078826-84.9216939-69.416499 0-38.3376745 38.0207374-69.4164997 84.9216939-69.4164997 46.900957 0 84.921695 31.0788252 84.921695 69.4164997 0 38.337673-38.020738 69.416499-84.921695 69.416499h0z" fill="#fff"/><path d="M133.962485 126.95305c4.256582-.557544 8.405421-1.744077 12.203417-3.5596l24.237016 9.962489-12.69558-19.019296c6.677973-8.602567 6.677973-19.498882 0-28.1014483l12.69558-19.0192959-22.842423 9.3892481-.656634 10.0439009c9.338123 7.8316153 9.099472 20.1998552-.603779 27.7604062-2.47595 1.980194-5.318945 3.369907-8.304672 4.357111l-4.032925 8.186485zm-11.329844-53.3506255c-7.030277.9140467-12.299581 3.5755159-12.299581 3.5755159l-24.2149237-9.9620416 12.6955798 19.0192959c-6.6779733 8.6025663-6.6779733 19.4988813 0 28.1014483l-12.6955798 19.019296 23.4667257-9.645865.499739-9.407039c-9.816147-7.808696-9.737739-20.3010568.159929-28.1436441 2.302753-2.0615562 7.508205-4.2441205 8.289393-4.3602234-1e-6 0 4.098718-8.196743 4.098718-8.196743z" fill="#8cc8f6"/><path d="M116.639358 98.1621564l-3.225374 57.1737626 26.118405-53.025153 3.740034-57.0660505-26.633065 52.9174409zm-.337469 46.1850756 20.920399-42.446087-18.332733-3.3450082-2.587666 45.7910952z" fill="#fff"/></svg>