<svg width="256px" height="254px" viewBox="0 0 256 253.9" xmlns="http://www.w3.org/2000/svg" preserveAspectRatio="xMidYMid"><path fill="#2db2c4" d="M256 219.9v-186C256 15.2 240.8 0 222.1 0s-33.9 15.2-33.9 33.9V138l57.9 57.9c6.6 6.6 9.9 15.3 9.9 24z"/><path fill="#e45026" d="M104.7 101.2l-37.6 37.5v81.9c0 9.4-3.8 17.8-9.9 24l71.5-71.4-24-24c-13.2-13.3-13.2-34.7 0-48z"/><path fill="#694ea0" d="M188.8 138.7l-37.4-37.4c13.2 13.2 13.2 34.7 0 48l-24 24 71.4 71.4c-6.1-6.1-9.7-14.8-9.9-24v-82z"/><path fill="#801434" d="M104 149.8l24 24 24-24c13.2-13.2 13.2-34.7 0-48-13.2-13.2-34.7-13.2-48 0-13.2 13.3-13.2 34.7 0 48z"/><path fill="#d02f28" d="M67.8 138c-15.4 15.4-30.8 30.8-46.2 46.2-6.8 6.8-15.7 13.5-19.1 22.9-4.4 10.9-2.8 23.6 4.3 33.1 7 9.4 19.4 15.2 31.2 13.4 11.4-1.8 21.4-8.3 26.5-18.9 2.6-5.4 3.6-10.8 3.4-17 0-11.1 0-22.1 0-33.2-.1-15.6-.1-31-.1-46.5z"/><path fill="#263d81" d="M188.2 138c0 21.8 0 43.6 0 65.4 0 9.6-1.2 20.4 2.5 29.4 4.3 10.4 14.1 18.7 25.3 20.5 11.9 1.8 24-2.1 31.8-11.4 7.6-9 9.9-21.6 6.4-32.8-1.8-5.8-5.3-10.5-9.8-14.8-7.9-7.9-15.7-15.7-23.5-23.5-10.9-10.9-21.8-21.8-32.7-32.8z"/><path fill="#f99d22" d="M67.8 138V33.9C67.8 15.2 52.6 0 33.9 0S0 15.2 0 33.9v186c0-8.7 3.3-17.4 9.9-24L67.8 138z"/><g style="fill:#fff"><path d="M138.1 115.8c-5.5-5.5-14.6-5.5-20.1 0-5.5 5.5-5.5 14.6 0 20.1s14.6 5.5 20.1 0 5.4-14.7 0-20.1z"/><circle cx="33.9" cy="33.9" r="14.2"/><circle cx="222.1" cy="33.9" r="14.2"/><circle cx="33.9" cy="219.9" r="14.2"/><circle cx="222.1" cy="219.9" r="14.2"/></g></svg>