<svg width="256px" height="290px" viewBox="0 0 256 290" xmlns="http://www.w3.org/2000/svg" preserveAspectRatio="xMidYMid"><path fill="#fff" d="M128 .0483018868 256 72.4528302V217.310189l-128 72.404528L0 217.310189V72.4528302z"/><path d="M233.153208 212.286792l-100.902642 57.141133v-44.437736l62.889057-34.632453 38.013585 21.929056zm6.907169-6.230943V86.6535849l-36.902641 21.3011321v76.8l36.902641 21.301132zm-217.5999996 6.230943 100.9026416 57.092831v-44.437736l-62.8890567-34.584151-38.0135849 21.929056h0zm-6.9071699-6.230943V86.6535849l36.9026416 21.3011321v76.8l-36.9026416 21.301132h0zm4.298868-127.130566L123.363019 20.3833962v42.9886793L57.0445283 99.84l-.5313208.289811-36.661132-21.204528h0zm215.8611325 0-103.462642-58.5418868v42.9886793l66.270189 36.5162264.53132.2898111 36.661133-21.25283h0z" fill="#8ed6fb"/><path d="M123.363019 214.846792l-62.0196228-34.149434v-67.574339l62.0196228 35.791698v65.932075h0zm8.887547 0 62.019623-34.101132v-67.622641l-62.019623 35.791698v65.932075zM65.4973585 105.298113l62.3094335-34.2460375 62.261133 34.2460375-62.261133 35.936604-62.3094335-35.936604h0z" fill="#1c78c0"/></svg>