<svg width="256px" height="193px" viewBox="0 0 256 193" xmlns="http://www.w3.org/2000/svg" preserveAspectRatio="xMidYMid"><path d="M192.440223 144.644612h31.779888V68.3393384l-35.804782-35.8047822-22.472322 22.4723223 26.497216 26.4972158v63.1405177h0zm31.86374 15.93187h-46.286275-64.566001l-26.497216-26.497216 11.2361612-11.236161 21.8853588 21.885359h45.028496l-44.357681-44.441533 11.320014-11.3200132 44.35768 44.3576812V88.2961022l-21.801506-21.8015067 11.152309-11.1523092L110.684573 0H56.3485097h0H0l31.6960367 31.6960367v.0838519h.1677039 65.572224l23.2269894 23.2269899-33.9600388 33.9600393-23.2269899-23.2269899v-18.028169H31.6960367v31.192925l55.0068785 55.0068781-22.3884704 22.388471 35.8047822 35.804782h54.336063H256h0l-31.696037-31.528333h0z" fill="#231f20"/></svg>