<svg width="256px" height="256px" viewBox="0 0 256 256" xmlns="http://www.w3.org/2000/svg" preserveAspectRatio="xMidYMid"><title>WebStorm</title><defs><linearGradient x1="43.8961557%" y1="1.95055805%" x2="66.1603983%" y2="95.243559%" id="a"><stop stop-color="#07c3f2" offset=".28"/><stop stop-color="#087cfa" offset=".94"/></linearGradient><linearGradient x1="33.0630529%" y1="15.0779309%" x2="70.3624968%" y2="84.6848882%" id="b"><stop stop-color="#fcf84a" offset=".14"/><stop stop-color="#07c3f2" offset=".37"/></linearGradient><linearGradient x1="44.4163397%" y1="25.0583139%" x2="56.2028807%" y2="90.2032656%" id="c"><stop stop-color="#07c3f2" offset=".28"/><stop stop-color="#087cfa" offset=".94"/></linearGradient></defs><path fill="url(#a)" d="M34.5066667 231.36 0 26.8266667 63.8133333.346666667 104.56 24.56l37.333333-20.13333333L219.68 34.2933333 176.053333 256z"/><path fill="url(#b)" d="M256 86.6933333 222.96 5.09333333 163.013333 0 70.48 88.9066667 95.3866667 203.493333l46.5066663 32.613334L256 168.4l-28-52.506667z"/><path fill="url(#c)" d="M204.72 74.5333333 228 115.893333l28-29.1999997-20.56-50.8266666z"/><path d="M48 48h160v160H48z"/><path d="M67.9466667 177.76h60.0000003v10H67.9466667v-10zM124.746667 67.92l-8.933334 35.013333L105.6 67.92H95.44L85.2 102.933333 76.2933333 67.92h-14L79.44 127.946667h11.2533333L100.506667 93.2l9.706666 34.746667H121.6L138.72 67.92h-13.973333zm16.48 51.706667 7.813333-9.6c4.908098 4.532531 11.294885 7.12894 17.973333 7.306666 5.333334 0 8.693334-2.133333 8.693334-5.68v-.16c0-1.89913-.664499-3.270069-3.057659-4.570261l-.38196-.199533h0l-.410098-.198787c-.070743-.03309-.142693-.066164-.21587-.09923l-.45392-.198362c-.078153-.033064-.157569-.066137-.238264-.099224l-.499678-.19877h0l-.531261-.199504c-.091223-.033332-.183798-.066711-.277742-.100143l-.580248-.201299c-.099496-.033678-.200397-.067426-.302721-.10125l-.631174-.203928h0l-.6662-.206143c-.114-.034563-.229495-.069233-.346504-.104018l-.720355-.21016h0l-.757534-.213301h0l-.795574-.216811h0l-.834476-.220692h0l-1.60515-.415665h0l-1.144767-.30718h0l-.747103-.207548h0l-.733992-.210356h0l-.720666-.213676h0l-.707125-.21751h0l-.693367-.221856h0l-.679396-.226715c-.112056-.038219-.223521-.076662-.33439-.11534l-.658034-.234965h0l-.643522-.241106h0l-.628797-.24776h0l-.613856-.254928c-.101052-.043113-.201473-.086547-.301257-.130311l-.59104-.266639h0l-.575561-.275089c-5.582863-2.7482576-8.88931-6.7963711-8.997974-14.3387406l-.002765-.5731991c0-10.7918596 8.589603-17.9807852 20.679632-18.1309352l.387034-.0023981c8.115139-.1435298 16.023382 2.5649019 22.346667 7.6533333l-6.88 9.9733334c-4.495622-3.5169871-9.955484-5.5818756-15.653333-5.92-5.066667 0-7.733334 2.32-7.733334 5.3333333v.1866667c0 2.4023188.988028 3.856131 4.088717 5.2274644l.457449.1954372c.157354.0650211.319621.1299486.486921.1948761l.517122.1948762h0l.548051.1954372h0l.57971.1965593h0l.612097.1982426h0l.645212.200487h0l.679056.2032923h0l1.083636.311426h0l.766854.2127605h0l.803248.2175298h0l1.718594.4516114c.284031.0744186.565178.1494718.84342.2252219l.825997.2294037c.136208.0386032.271685.0773963.406428.116387l.799643.2363782h0l.781928.2414957h0l.764096.2469875h0l.746147.2528538h0l.728082.2590941c.119835.0437232.238913.087722.35723.1320042l.700765.2691567c7.722934 3.0449535 12.012321 7.4321595 12.136809 15.5069855l.002788.524032c0 11.946666-9.12 18.667258-22.106666 18.667258-9.40078.036503-18.485823-3.390562-25.52-9.627258z" fill="#fff"/></svg>