<svg width="256" height="256" xmlns="http://www.w3.org/2000/svg" preserveAspectRatio="xMidYMid"><defs><linearGradient x1="41.703%" y1="1.925%" x2="71.876%" y2="95.235%" id="a"><stop stop-color="#00CDD7" offset="28%"/><stop stop-color="#2086D7" offset="94%"/></linearGradient><linearGradient x1="22.489%" y1="15.127%" x2="82.877%" y2="84.763%" id="b"><stop stop-color="#FFF045" offset="14%"/><stop stop-color="#00CDD7" offset="37%"/></linearGradient><linearGradient x1="11171%" y1="-27691.798%" x2="11907%" y2="-28759.626%" id="c"><stop stop-color="#00CDD7" offset="28%"/><stop stop-color="#2086D7" offset="94%"/></linearGradient></defs><path fill="url(#a)" d="M34.4 231.2L0 26.8 64 .4l40.4 24 37.6-20 77.6 30L176 256z"/><path fill="url(#b)" d="M256 86.8L222.8 5.2 163.2 0 70.4 88.8l24.8 114.8L142 236l114-67.6-28-52.4z"/><path fill="url(#c)" d="M204.8 74.4L228 116l28-29.2L235.6 36z"/><path d="M48 48h160v160H48z"/><path d="M63.2 178h60v10h-60v-10zm78.4-52.4l8.4-10.4c6 4.8 12 8 19.6 8 6 0 9.6-2.4 9.6-6.4 0-3.6-2.4-5.6-13.2-8.4-13.2-3.6-21.6-7.2-21.6-20.4v-.4c0-12 9.6-20 22.8-20a39.16 39.16 0 0124.4 8.4L184 87.2a30.48 30.48 0 00-16.8-6.4c-5.2 0-8.4 2.4-8.4 6 0 4.4 2.8 6 14 8.8 13.2 3.6 20.8 8.4 20.8 20 0 13.2-10 20.8-24 20.8a46.12 46.12 0 01-28-10.8zm-12.8-56.8l-10 38.4-11.2-38.4H96.4l-11.2 38.4-10-38.4H59.6l19.2 66.4h12.4L102 96.8l10.8 38.4h12.4l19.2-66.4h-15.6z" fill="#FFF"/></svg>