<svg width="256px" height="243px" viewBox="0 0 256 243" xmlns="http://www.w3.org/2000/svg" preserveAspectRatio="xMidYMid"><title>Whalar</title><path d="M255.998 115.176l1.41e-4 64.007041c-.033207.621342-2.003502 31.688472-63.996928 31.688472-62.620316 0-63.998094 30.319446-63.998094 31.697918 0-1.46441-1.378472-31.697918-63.9980251-31.697918-61.44065406 0-63.9534948442-27.415529-64.004233348778-31.253704l-4.19022278e-4-.214404c.001561507376-.150565.006729749376-.22981.006729749376-.22981h0v-63.997401c0 0 2.84237711168 31.697225 63.99792262168 31.697225 61.1558371 0 63.9980251 28.855729 63.9980251 31.697917 0-2.153298.688889-31.697917 63.998094-31.697917 62.077479 0 63.939803-30.472747 63.995673-31.671749l.001114-.02567zM256-1.56319402e-13V63.9978862c0 0 0 31.6981258-63.998094 31.6981258-63.358113 0-63.991694 29.631182-63.99803 31.644721l-.002196-.064419c-.077476-2.461506-2.628048-31.580302-63.9956851-31.580302-61.52077615 0-63.964734508-27.415709-64.005436874507-31.2539083l1.44757341e-4-.2144061c.001959840046-.1505661.007343398776-.2298114.007343398776-.2298114L.00855809266.0375297604C.0336429432 1.25521834 1.28794471 31.6974327 64.0059949 31.6974327c62.7178601 0 63.9722181 28.3746521 63.9973051 31.5363711l5.12e-4.1616161h0c0-2.8423961.688889-31.6979872 63.998094-31.6979872C255.310418 31.6974327 256-1.56319402e-13 256-1.56319402e-13z" fill="#22cace"/></svg>