<svg width="256px" height="258px" viewBox="0 0 256 258" xmlns="http://www.w3.org/2000/svg" preserveAspectRatio="xMidYMid"><title>WhatsApp</title><defs><linearGradient x1="49.9999726%" y1="100.000225%" x2="49.9999726%" y2="4.85578831e-05%" id="a"><stop stop-color="#1faf38" offset="0%"/><stop stop-color="#60d669" offset="100%"/></linearGradient><linearGradient x1="50.0000414%" y1="100.000108%" x2="50.0000414%" y2="-0.000129944756%" id="b"><stop stop-color="#f9f9f9" offset="0%"/><stop stop-color="#fff" offset="100%"/></linearGradient></defs><path d="M5.46329987 127.456258c-.00648078 21.676923 5.65772333 42.843159 16.42748813 61.49874h0L4.43285541 252.697385l65.23167089-17.104081c17.9712106 9.795055 38.2068067 14.965423 58.8001417 14.970608h0 .054439c67.814911 0 123.018218-55.183866 123.046744-123.010442h0c.012951-32.8679377-12.774929-63.7734945-36.008535-87.0252469h0C192.327598 17.2777669 161.43241 4.46655548 128.513922 4.45229776h0c-67.8226876 0-123.02210669 55.17997674-123.05062213 123.00396024" fill="url(#a)"/><path d="M1.07062531 127.416078c-.00777694 22.457208 5.85992378 44.3804 17.01335089 63.703502h0L0 257.147091l67.5712334-17.717164c18.6179927 10.151498 39.5794366 15.503328 60.9102846 15.511105h0 .054439c70.247797 0 127.434224-57.168281 127.464043-127.422558h0c.011658-34.0487365-13.236358-66.0650995-37.299505-90.1502806h0C194.63346 13.2856047 162.632651.0142577221 128.535957 0h0C58.2751986 0 1.09914076 57.1592078 1.07062531 127.416078h0zm40.23918019 60.376268-2.5223207-4.005124c-10.606449-16.864293-16.2045492-36.352006-16.1967803-56.363367h0C22.6140434 69.0294095 70.1376234 21.5213834 128.576138 21.5213834h0c28.298986.0116654 54.896118 11.0432538 74.899702 31.0597995h0c20.003584 20.0178418 31.010546 46.6279358 31.002773 74.9295141h0c-.025927 58.395741-47.550803 105.910248-105.942656 105.910248h0-.041477c-19.013321-.010369-37.6598288-5.11593-53.922705-14.764519h0l-3.8703235-2.295493-40.0978991 10.513125 10.7062531-39.081712z" fill="url(#b)"/><path d="M96.6782434 74.1484502c-2.3862242-5.3038726-4.8968794-5.4101574-7.1664495-5.5034807-1.8573924-.0790655-3.981793-.0739506-6.1036013-.0739506-2.1244005 0-5.5747693.7985021-8.4924177 3.9844549-2.9202407 3.187249-11.1482425 10.8916035-11.1482425 26.5608401 0 15.6705331 11.4139546 30.8122331 13.0043387 32.9392261 1.5929764 2.123105 22.0333652 35.307305 54.4048749 48.073151 26.904322 10.609041 32.379287 8.498898 38.218472 7.967474 5.839186-.530128 18.843524-7.701762 21.496757-15.139108 2.654528-7.436051 2.654528-13.810548 1.858688-15.141701-.79584-1.327265-2.92024-2.124401-6.104897-3.716081-3.185953-1.592977-18.843524-9.298627-21.762469-10.361476-2.92024-1.061552-5.043345-1.59168-7.167745 1.596865-2.123105 3.184657-8.222818 10.356291-10.081506 12.480692-1.857392 2.128289-3.716081 2.394001-6.900737.801024-3.185953-1.598161-13.443736-4.957798-25.612054-15.806629-9.468424-8.441867-15.8597716-18.866854-17.7184601-22.0554-1.8573923-3.184656-.1983119-4.909841 1.398553-6.497632 1.4309571-1.427069 3.1859531-3.718674 4.7789291-5.577362 1.589088-1.859985 2.119216-3.187249 3.180768-5.31165 1.062849-2.125696.531424-3.985681-.264416-5.5786574-.797136-1.5929764-6.9862835-17.3425747-9.8183856-23.6405994" fill="#fff"/></svg>