<svg width="256px" height="256px" viewBox="0 0 256 256" xmlns="http://www.w3.org/2000/svg" preserveAspectRatio="xMidYMid"><circle fill="#fff" cx="128" cy="128" r="115.2"/><g style="fill:#3c790a"><path d="M128 256c70.692448 0 128-57.307552 128-128C256 57.307552 198.692448 0 128 0 57.307552 0 0 57.307552 0 128c0 70.692448 57.307552 128 128 128h0zm0-25.6c-56.5539584 0-102.4-45.846042-102.4-102.4C25.6 71.4460416 71.4460416 25.6 128 25.6c56.553958 0 102.4 45.8460416 102.4 102.4 0 56.553958-45.846042 102.4-102.4 102.4h0z"/><path d="M97.28 97.28c0-30.72 61.44-38.4 58.88-5.12 0 23.04-40.96 33.28-40.96 58.88v17.92h25.6v-10.24c0-23.04 43.52-30.72 43.52-69.12-5.12-56.32-115.2-56.32-115.2 7.68h28.16zm17.92 81.92h25.6v25.6h-25.6v-25.6z"/></g></svg>