<svg width="256px" height="192px" viewBox="0 0 256 192" xmlns="http://www.w3.org/2000/svg" preserveAspectRatio="xMidYMid"><path d="M198.751242 31.3023697C181.263093 12.0719287 156.041439 0 128 0 99.9585608 0 74.7369069 12.0719287 57.2487583 31.3023697H198.751242h0zM57.2487583 159.909005C74.7369069 179.139458 99.9585608 191.211374 128 191.211374c28.041439 0 53.263093-12.071916 70.751242-31.302369H57.2487583zM42.464455 39.4312796C19.0117247 39.4312796 0 58.4429558 0 81.8957346V109.31564c0 23.452779 19.0117247 42.464455 42.464455 42.464455h171.07109c23.45273 0 42.464455-19.011676 42.464455-42.464455V81.8957346c0-23.4527788-19.011725-42.464455-42.464455-42.464455H42.464455zm209.167772 41.9791469c0-20.7724466-16.838927-37.6113744-37.611374-37.6113744h-42.464455c-20.772447 0-37.611374 16.8389278-37.611374 37.6113744v28.5118485c0 20.772447-16.838928 37.611374-37.6113747 37.611374H214.020853c20.772447 0 37.611374-16.838927 37.611374-37.611374V81.4104265zm-147.533649 2.5478673v40.1592422h12.132702V83.9582938h-12.132702zm-1.21327-12.6786729c0 3.9869755 3.231994 7.2189573 7.218957 7.2189573 3.986964 0 7.218958-3.2319818 7.218958-7.2189573 0-3.9869756-3.231994-7.2189574-7.218958-7.2189574-3.986963 0-7.218957 3.2319818-7.218957 7.2189574h0zm-80.9251184-5.7630332 15.6511848 58.6009483h10.0701422L59.450237 83.5943128l11.7687203 40.5232232h10.4341233l15.4085308-58.6009483H85.292891l-8.9781991 38.5819903-11.1620853-38.5819903H54.3545024L43.1924171 103.127962l-8.492891-37.6113743H21.9601896zm131.2758294 0v58.6009483h12.860663V101.18673h29.118484V89.2966825h-29.118484V77.4066351h31.059716V65.5165877h-43.920379zm52.655924 18.4417061v40.1592422h12.132702V83.9582938h-12.132702 0zm-1.091943-12.8c0 3.9869756 3.231994 7.2189574 7.218957 7.2189574 3.986964 0 7.218958-3.2319818 7.218958-7.2189574 0-3.9869755-3.231994-7.2189573-7.218958-7.2189573-3.986963 0-7.218957 3.2319818-7.218957 7.2189573h0z" fill-rule="evenodd"/></svg>