<svg width="512px" height="152px" viewBox="0 0 512 152" xmlns="http://www.w3.org/2000/svg" preserveAspectRatio="xMidYMid"><path d="M265.519181 56.7839454l10.031181 40.5615836h2.533788l10.030307-40.5615836h14.549188l-19.288246 78.0398086h-14.550061l5.622389-23.037379h-9.920218l-13.55839-55.0024296h14.550062zM168.96699 34.6281502v77.1573518h-3.855727v-4.62897l-.019652.012097c-.46974.287663-9.291796 5.609419-19.050164 5.609419-6.835113 0-18.629461-.992546-18.629461-27.7773108 0-18.9588532 5.071946-29.3194266 23.148342-29.3194266 5.180286 0 11.795221.8815836 14.550061 1.3228123V34.6281502h3.856601zm-52.353311-3.306157v80.4643818h-3.858348V31.3219932h3.858348zM3.8574744 34.6281502l15.7636587 73.4099658H23.808l17.0855973-72.307331h4.4087918l17.6369147 72.307331h4.1877406l15.2114675-73.4099658h3.8592219L70.3239863 111.785502H59.7432355L43.0988669 40.9110717 27.004942 111.785502H16.4233174L0 34.6281502h3.8574744zm94.7907713 22.0448327v55.1125191h-3.8592218V56.6729829h3.8592218zM229.810239 35.730785v14.5491877h-33.287864v21.934744h26.67555v14.439099h-26.67555v25.1316863h-14.99129V35.730785h48.279154zm19.175536-1.1026348v77.1573518h-14.768492V34.6281502h14.768492zm-98.4237 24.5803686c-15.651822 0-19.289993 9.3697747-19.289993 26.1224846 0 21.9356176 8.59828 23.9198366 14.770239 23.9198366 9.47899 0 19.069816-5.731605 19.069816-5.731605V60.5313311c-2.86755-.3293925-10.252233-1.3228123-14.550062-1.3228123zM98.6482457 34.6281502v6.0618703h-3.8592218v-6.0618703h3.8592218z" fill="#293644"/><g style="fill:#fff"><path d="M358.156232 70.5476587c-1.9117-.5731604-3.872328-1.0467167-5.841693-1.4879454-.982061-.2219249-1.975481-.430744-2.96628-.6282048-.991672-.2044505-1.985965-.4010375-2.978512-.5810239-.494525-.0882457-.997788-.1773651-1.47746-.2498839l-1.501052-.1992082c-1.011767-.1336792-2.03402-.2883277-3.030935-.3730785-1.008273-.0934881-2.004314-.2158089-3.023945-.2883277l-3.04841-.2219249c-2.041884-.1022252-4.087262-.2096928-6.141378-.2490102-1.024874-.0366963-2.051495-.0480546-3.080738-.0559181-1.029242-.0096109-2.060232-.0253379-3.092969-.0122321-2.054116.0017475-4.159782.03757-6.184191.0917406l-3.127044.1354267-3.054526.2367781-3.079864.3258976c-1.03361.1179522-2.055863.2621161-3.085979.3914266-2.057611.2918226-4.116096.6185939-6.17458.9864301-2.06198.3695836-4.127454.768-6.192055 1.1882594-4.152792.833529-8.302089 1.7055017-12.422553 2.7155222-2.063727.5067576-4.11959 1.045843-6.147495 1.6425938-1.051085.3127918-2.098675.6404369-3.12617.9942935.377447.1162048.768.2193038 1.163795.3084232 1.438143.3267714 2.963659.5146212 4.529365.7234403.781106.1074676 1.576191.2175563 2.38613.3564778l1.175153.2193038.511127.0751399.53559.059413c1.452123.1380478 2.970649.0961092 4.496164.0262116 3.053652-.1607645 6.134389-.5652969 9.250949-.8745939 1.555222-.1520273 3.122676-.2883276 4.721583-.3136655.816929-.0113584 1.566581.0192218 2.346813.027959l2.322348.0489284c1.551727.0393174 3.09559.0961092 4.640327.1721228l.072519.0043686c.123195-.0340751.248137-.0751399.371331-.1083413l.383563-.1022252.418512-.1022253c.283086-.0742662.560055-.1196996.839645-.1791126.553939-.1022253 1.104383-.1799864 1.646963-.2411468 1.093024-.1214471 2.168573-.18086 3.237133-.2158088 2.125761-.065529 4.217447-.0244642 6.298648.027959 2.074212.0637816 4.131823.1109625 6.184192.2079454 2.047126.1048464 4.091631.3853106 6.135262.6028669 2.038389.2359044 4.085516.3293925 6.111673.2254198l2.261187-.1205734-2.13974.6465529c-1.47484.4447236-2.971522.6142253-4.4717.7706212-1.501051.1520273-3.006471.2411467-4.515386.3092969-3.026566.1275631-6.06187.1598908-9.110279.1188259-1.210103-.0253378-2.421079-.0707713-3.641666-.152901-.98643.0148533-1.968491.0401911-2.939194.0908669-1.010021.0541707-2.007809.1301843-2.976765.2603686-.487536.0629079-.96284.1441638-1.424164.2376519-.228914.0541706-.461324.0969829-.679754.1607645l-.334635.0899932-.363467.109215c-.951482.283959-1.890731.5976246-2.714649.9715768-.167754.0742662-.329392.1555222-.480546.2350307.336382.1406689.705092.2752218 1.09215.3992901.915659.2865802 1.894225.5251058 2.878034.740041.980314.2123139 2.006062.4080273 2.976765.5670443.518116.0864983 1.033611.1668806 1.508041.2245461.475304.0681502.987304.1135836 1.479208.1668805 1.989461.1939659 3.999891.2752219 6.016437.2525052 2.009556-.0253379 4.021734-.1179523 6.026921-.299686 4.000765-.3652151 7.986676-.9418704 11.907058-1.7395768 1.959755-.396669 3.902908-.8309079 5.831209-1.3184437l1.442512-.3695836 1.420668-.3844369c.989052-.2525051 1.87413-.5390853 2.808137-.8029488 1.862771-.5757816 3.716805-1.2135973 5.61802-1.8147167 1.886362-.6072355 3.81641-1.1594267 5.791018-1.5473584l.159017-.2446416c.178238-.4342389-.069898-.8824574-.622963-1.3306758-.311044-.2027031-.652669-.3853106-1.010894-.5452014-.891195-.3957952-1.841802-.6946075-2.791536-.9907986z" opacity="0.7"/><path d="M396.614771 84.4057338c.803823.5460751 1.552601 1.0973925 2.414089 1.6495836l1.224082.8125597 1.252915.8073174c1.675795 1.0694335 3.383044 2.0960546 5.117378 3.0894744 3.467796 1.9955768 7.067523 3.8006826 10.747632 5.4092014 1.846171.8064437 3.729037 1.5255154 5.62501 2.1869215 1.906457.6579113 3.840874 1.2135973 5.790143 1.6574472.486663.103973.983809.22542 1.457366.308423.46744.096983.982935.181734 1.499303.264737.973325.152901 2.008683.29357 3.00385.401038 1.003031.107467 2.006062.189597 2.964533.20445.404532.005243.796832-.005242 1.161174-.033201-.1197-.124068-.242894-.251631-.380069-.374826-.663153-.615099-1.455617-1.2101023-2.269924-1.7788941l-.311919-.2184301-.287453-.1895972c-.18785-.1275632-.394048-.2428942-.593256-.3695837-.408901-.2341569-.835277-.4578293-1.274758-.6745119-.879836-.4255017-1.803358-.8151809-2.744355-1.1847645-.903427-.3538567-1.825201-.6876177-2.753092-1.0100205-1.186512-.3084232-2.354676-.649174-3.511481-1.008273-2.906867-.9226485-5.775291-1.9116997-8.608765-2.9863754-1.411058-.5408328-2.813379-1.1026349-4.189488-1.7177338-1.371741-.6238362-2.737365-1.2564096-3.996396-2.1441092l-1.824328-1.2887372 2.105666.8274129c1.889857.7391673 3.860969 1.2948533 5.871399 1.7151126 2.006062.4386076 4.03484.8169284 6.011195 1.3638772 1.977229.5574334 3.946594 1.1594266 5.935181 1.7561775 1.988587.6046143 3.988532 1.2275767 5.984983 1.9623754 1.001283.3704573 2.004314.7645051 3.000355 1.2249556.499768.2297884.994293.4761775 1.487071.7487782.248137.1424164.496273.2734744.740915.4324914l.366089.2306622.33114.2175563c.107467.0698976.213187.1485324.318907.2201774l.069898.0183482c1.489693.4158908 2.972396.8492559 4.455973 1.301843l2.220996.6849966c.741789.2376518 1.463482.4473447 2.234103.714703 1.510662.5277271 2.954048 1.1515631 4.384327 1.7876311 2.857939 1.275632 5.653843 2.631645 8.501297 3.749133 1.425038.546949 2.851823 1.06856 4.275113 1.395331l.525979.111837.507632.089993 1.184764.164259c.814308.121447 1.602403.26998 2.378267.41327 1.549979.296191 3.059768.601119 4.524996.742662.402785.041939.803823.064655 1.19787.072519-.861488-.658785-1.750061-1.299222-2.648245-1.926553-1.735208-1.206608-3.516724-2.365161-5.315714-3.497502-3.589242-2.260314-7.25275-4.3965596-10.930238-6.4987302-1.826949-1.0510854-3.65914-2.0812014-5.500069-3.0824847-1.838307-.9986621-3.687099-1.9580068-5.548123-2.8858976-.936628-.4473447-1.864518-.9077952-2.805515-1.345529l-2.820369-1.2808737-2.822989-1.1882594-2.924342-1.1139932c-1.903836-.6893652-3.891549-1.3883413-5.840819-2.0392628-.973324-.3390034-1.95888-.6500478-2.939194-.9637133-.978567-.3180341-1.95626-.6316997-2.940942-.9217747-1.962376-.6098567-3.935236-1.1524369-5.906348-1.7011331l-2.964533-.7513994c-.987304-.2507576-1.971112-.4499658-2.957542-.6797542-.973325-.2350307-1.992082-.4106485-2.995113-.6028669l-1.484451-.2839591c-.482293-.0838771-.98643-.1555222-1.482703-.2271672-.998662-.1432901-2.006061-.2708532-3.009092-.3905529-1.003904-.1258157-2.011304-.2411468-3.012587-.3407509-2.009556-.202703-4.017365-.3704573-6.010321-.4298703-.996914-.0200955-1.994703-.0375699-2.961037.0576656-.388806.0393174-.771495.1048464-1.12972.1992082-.668396.2507576-1.045843.5976245-1.012642 1.0659385l.073393.2813379c1.750061.9916724 3.411003 2.1257611 5.00729 3.2965461 1.612887 1.1690375 3.172477 2.3607918 4.755658 3.4931331z" opacity="0.7"/></g><path d="M315.58684 65.2031126c-8.977475.1380478-17.478772 1.5831809-26.352273 3.3839181-6.359809 1.2931058-17.76011 3.7552492-23.669079 6.3327236 2.490976 2.2769146 8.522266 2.288273 11.989188 2.9461843 5.644232 1.067686 15.001775-1.2939796 20.891522-1.3507714 4.047072-.0393174 8.01114-.0366962 11.992683.184355-.748779.1083413-1.45125.240273-2.075959.4132696-1.365625.3800683-5.565598 1.551727-5.317461 2.8902662.288327 1.5316314 7.351481 2.7906621 8.731959 3.0414198 10.781706 1.9396587 24.25185-.3180341 35.25985-3.3734334 5.951781-1.6522048 9.568109-3.7272901 15.381843-6.0103209-1.974608.3879318-3.904656.9401229-5.791017 1.5473584-1.901215.6011195-3.75525 1.2380614-5.618021 1.8147167-.934007.2638635-1.819085.5504437-2.808136.8029488l-1.420669.3844369-1.442512.3695836c-1.928301.4875359-3.871454.9217748-5.831209 1.3184437-3.920382.7977065-7.906293 1.3743618-11.907058 1.7395768-2.006061.1817338-4.018238.2734744-6.026921.299686-2.016546.0227167-4.026102-.0585392-6.016437-.2525051-.491904-.0541707-1.003904-.0987304-1.479208-.1668806-.47443-.0567918-.989925-.1380477-1.508041-.224546-.970703-.1598908-1.996451-.3547304-2.976765-.5670444-.983808-.2149352-1.962375-.4534608-2.878034-.740041-.387058-.1240682-.755768-.2586211-1.09215-.3992901.151154-.0795085.311918-.1607645.480546-.2350307.823918-.3748259 1.764041-.6876177 2.714649-.9715768l.363467-.109215.334635-.0899932c.21843-.0629078.451713-.1065938.679754-.1607645.461325-.093488.936628-.174744 1.424164-.2376518.968956-.1293106 1.966744-.206198 2.976765-.2603686.970703-.0506758 1.952764-.0760137 2.939194-.0908669 1.219714.0821297 2.431563.1275631 3.641666.152901 3.048409.0410648 6.083713.0087372 9.11028-.118826 1.508914-.0681501 3.014334-.1572696 4.515385-.3092969 1.500178-.1572696 2.99686-.3267713 4.4717-.7706211l2.139741-.6465529-2.261188.1205733c-2.026157.1039727-4.073283.0104847-6.111673-.2254198-2.044505-.21843-4.08901-.4988942-6.135262-.6028669-2.053243-.0961092-4.10998-.1441638-6.184191-.2079453-2.081202-.0524233-4.172888-.0934881-6.298649-.0279591-1.06856.0358225-2.144109.0943618-3.237133.2158089-.54258.0611604-1.093024.1389215-1.646962.2411467-.279591.0585393-.55656.1048465-.839646.1791127l-.418511.1022252-.383564.1022253c-.123194.0332013-.248136.0733925-.371331.1083413l-.072518-.0043686c-1.544738-.0760137-3.087727-.1328055-4.640328-.1721229l-2.322348-.0489283c-.780232-.0078635-1.529884-.0384437-2.346812-.0279591-1.598908.0253379-3.166362.1616383-4.721584.3136656-3.115686.3092969-6.197297.7138293-9.250949.8745938-1.524642.0707714-3.043167.1118362-4.496164-.0262116l-.53559-.059413-.511126-.0751399-1.175154-.2193037c-.810812-.1397953-1.605898-.2490103-2.38613-.3564779-1.565706-.2088191-3.091222-.3975426-4.529365-.7234402-.395795-.0882458-.786348-.1922185-1.163795-.3084232 1.027495-.3538567 2.075085-.6815017 3.12617-.9942936 2.027905-.5967508 4.083768-1.1358361 6.147495-1.6425938 4.120465-1.0100205 8.269761-1.8819932 12.422553-2.7155222 2.064601-.4202594 4.130075-.8186758 6.192055-1.1882594 2.058485-.3678362 4.116969-.6937338 6.17458-.98643 1.03099-.1293106 2.053242-.2734744 3.08598-.3914266l3.079863-.3258976 3.054526-.2367782 3.127044-.1354266c2.02441-.0541707 4.130949-.0899932 6.184191-.0917406 1.032737-.0131058 2.063727.0026211 3.092969.012232 1.030117.0078635 2.056738.0183482 3.080738.0559181 2.054989.0393174 4.099495.146785 6.141379.2490103l3.048409.2219249c1.019631.0725188 2.015672.1948396 3.023945.2883276.996915.0847509 2.019168.2385256 3.030936.3730785l1.501051.1992082c.480546.0725188.982935.1616382 1.477461.249884.992546.1799863 1.986839.3765734 2.978512.5810239.990798.1974607 1.984218.4062798 2.966279.6282048 1.969366.4412286 3.92912.9147849 5.841693 1.4879453.949734.2953174 1.900341.5950035 2.788041.9916724.358225.1590171.69985.3416246 1.010894.5452014-3.022198-2.4411741-15.174771-4.9094335-17.348587-5.2641639-9.114648-1.4879454-19.806361-1.7596723-29.016245-1.6190034z" fill="#e1eef4" opacity="0.5"/><path d="M391.849502 74.7319044c2.066348-.1258157 4.121338-.087372 6.17458.0026212 2.052369.0961092 4.103863.2568737 6.153611.4884096.515495.0576655 1.022252.1162047 1.556969.1913447h0l1.534253.2586211c1.008273.1729966 2.015672.3285188 3.036177.5530649 1.017884.212314 2.051495.4036587 3.059768.6378157h0l3.028314.708587c2.011304.5137474 4.022608 1.0274949 6.021679 1.6058976 1.004778.2734744 2.002567.5740341 2.999481.8745939l.998404.2988123c.665257.1999848 1.329478.4030762 1.990593.6185938 2.004314.6255836 3.9597 1.2677679 5.985857 1.9588806h0l2.949679 1.0606962 2.977638 1.1847645 2.924341 1.2668942c.968956.4421024 1.919564.9051741 2.882403 1.3577611 1.909952.9348805 3.804178 1.9055836 5.673065 2.9077406 1.875877 1.0030307 3.738648 2.0331468 5.588314 3.0842321 1.859276 1.0406007 3.692341 2.129256 5.532396 3.2222799 1.839181 1.1008873 3.673993 2.2218703 5.4957 3.3795496 1.823453 1.156805 3.635549 2.345938 5.422307 3.600601 1.789379 1.262525 3.55342 2.566989 5.246689 4.073283h0l1.614635 1.444259-1.937038.826539c-.952355.404533-1.916068.543454-2.821242.580151-.903427.039317-1.768409-.027959-2.603686-.124942-1.675795-.205325-3.265092-.547823-4.804587-.890321-.768874-.175618-1.52901-.345993-2.261188-.486662h0l-1.147194-.198335c-.197461-.035822-.435113-.088246-.652669-.132805h0l-.622089-.153775c-1.630362-.435113-3.148887-1.026621-4.618485-1.676669-2.925215-1.300095-5.668696-2.790662-8.429651-4.167645-1.37611-.688491-2.751345-1.353392-4.141434-1.909952-1.398826-.534717-2.890266-1.073802-4.323167-1.592792-.388806-.1389215-.781106-.2673584-1.169911-.4036587.253378.249884.50501.5259795.752273.8667307.21144.299686.442976.644805.583645 1.203986.06116.290949.103099.634321 0 1.029242-.020096.098731-.05155.18785-.093488.283086h0l-.05854.140669-.032327.067276-.062908.103099-.041843.063631c-.022812.033789-.06344.090799-.088341.124219-.101352.124942-.16426.183481-.228915.244642-.546949.473556-.971577.574034-1.339413.690238-.371331.100478-.696355.15028-1.01002.190471-.62471.072519-1.202239.089994-1.770157.088246-1.130594-.003495-2.215755-.078635-3.289557-.177365-1.082539-.103099-2.120519-.226294-3.210921-.381816-.514621-.076013-1.027495-.152901-1.590171-.257747-.550444-.090867-1.06856-.207072-1.599782-.313666-2.113529-.463071-4.171139-1.071181-6.190307-1.76142-2.006935-.688491-3.967563-1.4853238-5.885379-2.339822-.958471-.4263755-1.904709-.8754676-2.843085-1.3271809-.933133-.468314-1.859276-.9383755-2.769693-1.4302799-1.827822-.9750717-3.611959-2.0034403-5.369884-3.0641365-1.749187-1.0624437-3.466047-2.1580888-5.152327-3.2947986h0l-1.257284-.8536246-.156395-.1074676-.173871-.1275631-.301433-.2201775-.605488-.4447236c-.801202-.5696655-1.606772-1.2572832-2.393993-1.907331-1.529011-1.3341707-2.939195-2.7478499-4.268997-4.205215-1.32456-1.4556178-2.62116-2.9112355-3.867085-4.4463618 4.794976 4.0016382 7.572532 7.1129556 12.699522 10.5606553 9.47899 6.3711672 21.552054 12.7641778 32.391426 14.3255158 1.388342.200081 8.491686 1.234566 9.247454-.129311.657038-1.190881-2.95929-3.6303072-4.132696-4.4192765-.538211-.3608464-1.165543-.7094607-1.841802-1.0493379 3.847864 1.0475905 7.61185 2.297884 11.438744 3.6128324 5.57084 1.913447 13.7043 7.105966 19.398335 7.873093 3.496628.471808 9.224737 2.364286 12.306348.989924-4.794976-4.309187-14.834021-10.2461156-20.459905-13.4780064-7.85387-4.5101433-15.463972-8.563331-23.938184-11.5287372-8.696137-3.0396723-18.925652-6.1562321-28.046416-7.6232082-2.176437-.3503617-14.483659-1.8444232-18.122703-.4814198-.083004.021843-.172123.0349488-.250758.0620342-.207072.0725187-.402785.1563959-.543454.2629897-.072519.0524232-.124068.1100888-.161638.1721229-.019222.0332014-.030581.0602867-.039318.0795085-.018348.0096109-.015727.1065939-.021843.1563959h0l-.622088-.0104846c-8.74e-4-.0707713-.019222-.0952355-.001748-.2027031.004369-.1004778.027959-.1895973.057666-.2647372.060286-.1633856.159017-.3031809.268232-.4193856.21843-.2289147.476177-.3818157.729556-.5006417.511126-.2367781 1.031864-.371331 1.547358-.4831672 1.036232-.2166826 2.06897-.3276451 3.099086-.3879318zM315.63402 63.6968191c2.140615-.0148532 4.199099-.0096109 6.296902.0297065 1.044095.006116 2.084696.0410648 3.127044.0725188 1.039727.0297065 2.082075.0611604 3.120054.1188259 2.079454.0803823 4.151919.2289147 6.220888.3748259h0l3.097338.2848328c1.030989.0943618 2.07159.2393993 3.103454.359099 1.041474.109215 2.045378.2804642 3.05802.4324915h0l1.536874.240273c.531222.0961092 1.031863.2009556 1.538621.3092969 2.018294.4272492 4.01387.9217748 5.994594 1.4774608 1.973734.5626757 3.936109 1.1742798 5.860041 1.9475222.957597.3809419 1.902089.8143071 2.816 1.345529.456082.2691058.905174.561802 1.314949.9462389.205324.1930921.400163.4193856.532095.7059658.069024.1432901.1197.3084233.123195.4796724.004368.0821297-.002621.1738703-.027959.2699795-.018348.1083413-.042813.1275632-.064656.1930922h0l-.593256-.1861024c.00699-.0498021.040192-.1389215.027959-.1537748-.003494-.021843-.005242-.0524232-.014853-.0899931-.013106-.0698976-.047181-.140669-.099604-.2140615-.097857-.1450375-.257747-.2865802-.428996-.4193856-.066403-.0498021-.146785-.0908669-.217557-.1380478-3.022198-2.4420478-15.174771-4.9094335-17.348587-5.2641638-9.119017-1.486198-19.809856-1.757925-29.01974-1.617256-8.977475.1389215-17.478772 1.5840546-26.352273 3.3839181-6.359809 1.2931058-17.76011 3.7561228-23.669079 6.3327235 2.490976 2.2769147 8.522266 2.2882731 11.989188 2.9461843 5.644232 1.067686 15.001775-1.2939795 20.891522-1.3507713 4.047072-.0393174 8.01114-.0366963 11.992683.1843549-.748779.1083413-1.45125.2402731-2.075959.4132697-1.366499.3800682-5.565598 1.5517269-5.317461 2.8902662.288327 1.5307577 7.351481 2.7906621 8.731959 3.0414198 10.780833 1.9396587 24.250976-.3180342 35.25985-3.3734335 5.950907-1.6522047 9.568109-3.7272901 15.381843-6.0103208-1.666185 1.0633174-3.355086 2.0340205-5.071946 2.9986075-1.722976.9619659-3.507112 1.8592765-5.379495 2.6421297-.951481.3695836-1.932669.7671263-2.871044 1.0528328h0l-.715577.2324095-.356478.1144574-.203576.0637815-.184355.0541707-1.462608.4132696c-1.956259.5460751-3.932614 1.0432219-5.931686 1.5010512-2.000819.4508396-4.016491.8641092-6.059249 1.2118498-1.021379.1791127-2.048.3337611-3.079864.484041-1.031863.1319317-2.070716.2594949-3.116559.3599727-2.089065.2035768-4.199973.343372-6.323987.3617201-2.131003.0200956-4.27686-.0532969-6.427959-.2813379-.540832-.065529-1.065064-.1196996-1.619877-.2053242-.563549-.0777611-1.074676-.1677543-1.588423-.2577474-1.081665-.1957133-2.105665-.4062799-3.166362-.6509215-1.051959-.2446417-2.103918-.5172424-3.17772-.8684778-.541706-.1808601-1.079918-.3783209-1.652205-.6439318-.284832-.1371741-.58015-.2857065-.899931-.4997679-.311045-.2254198-.682376-.4534608-1.052833-1.0772969-.041939-.0777611-.081256-.1537748-.136301-.3031809-.019221-.053297-.050675-.1555222-.05417-.1747441h0l-.01398-.0445597-.025338-.1188259-.010484-.0742662-.01398-.1511536c-.007863-.1039727-.010484-.2027031.001748-.3005597.027959-.4071536.176491-.7208192.326771-.9750717.309297-.4857884.638689-.7417884.932259-.9619659.340751-.2428942.664901-.4237542.984683-.5801502-.41327.0061161-.822171.0043686-1.233693.0122321-1.526389.0401912-3.108696.0786348-4.604505.1459113-1.494935.0882457-3.01084.2865802-4.534607.5050102-3.051905.4377338-6.125652.9838089-9.313857 1.2948533-1.599782.1511536-3.227522.2332833-4.910307.1319317h0l-.640437-.0515495c-.217556-.0253379-.459577-.0489283-.661406-.0795085h0l-1.148942-.1729966c-.741789-.0996041-1.515905-.1756177-2.300505-.2533788-1.567454-.1616383-3.18471-.3355086-4.838662-.6718908-.825666-.1695017-1.667058-.3826894-2.513693-.7042184-.844014-.3215291-1.715113-.755768-2.49185-1.4407646h0l-1.576191-1.3962047 1.992955-.8562458c2.082075-.8920682 4.168519-1.5761911 6.264574-2.2078907 2.089065-.6255837 4.185119-1.1830171 6.282048-1.7072492 2.090812-.5216109 4.186866-1.008273 6.2803-1.470471 2.091686-.4560819 4.172014-.9104164 6.266321-1.3132014 2.087317-.4106484 4.179003-.8012013 6.275058-1.161174 2.090812-.3625939 4.19473-.6823754 6.302143-.9689556 1.057201-.124942 2.105666-.265611 3.162867-.3791946h0l3.172478-.2795904 3.20131-.184355z" fill="#293644"/><path d="M431.942771 102.501352c1.388342.200081 8.491686 1.233692 9.247454-.129311.657038-1.190007-2.960164-3.6294335-4.132696-4.4192765-.538212-.3608464-1.165543-.7094607-1.841802-1.0493379 3.847863 1.0475905 7.61185 2.297884 11.438744 3.6128324 5.57084 1.912574 13.705174 7.105966 19.398334 7.873093 3.496628.471808 9.224738 2.364286 12.306349.989924-4.794977-4.309187-14.834021-10.2461156-20.459905-13.4780064-7.85387-4.5101433-15.463973-8.5642048-23.938184-11.5287372-8.695263-3.0396723-18.924778-6.1562321-28.046417-7.6232082-2.176436-.3503617-14.483658-1.8444232-18.122703-.4814198.358226-.093488.740915-.1598907 1.129721-.1992082.96546-.0961092 1.964122-.077761 2.961037-.0576655 1.992956.0585393 4.000765.2262935 6.010321.4298703 1.001283.0987304 2.008682.2149352 3.012587.3407509 1.003031.1196996 2.011304.2472628 3.009092.3905529.496273.071645 1.001283.1432901 1.482703.2271672l1.484451.2839591c1.002157.1930921 2.020914.3687099 2.995112.6028669.98643.2306621 1.970239.4289965 2.957543.6797542l2.964532.7513993c1.971113.5486963 3.943973 1.0912765 5.906348 1.7011331.984683.2900751 1.962376.6028669 2.940942.9217748.980314.3127918 1.965871.6247099 2.939195.9637133 1.948396.6509215 3.936983 1.3498976 5.840819 2.0392628l2.924341 1.1139932 2.82299 1.1882594 2.820369 1.2808737c.940996.4377338 1.868887.8981843 2.805515 1.345529 1.861024.9278908 3.709816 1.8872355 5.548123 2.8858976 1.840928 1.0012833 3.673119 2.0313993 5.500068 3.0824846 3.677488 2.101297 7.340123 4.238416 10.930239 6.49873 1.79899 1.132342 3.580505 2.290895 5.315713 3.497502.898185.627331 1.786758 1.267768 2.648246 1.926553-.394048-.007863-.795085-.03058-1.19787-.072519-1.465229-.141542-2.974143-.446471-4.524997-.742662-.775863-.14329-1.563959-.291822-2.378266-.413269l-1.184764-.16426-.507632-.089993-.525979-.111836c-1.42329-.326772-2.850075-.848382-4.275113-1.395331-2.848328-1.117488-5.643358-2.473502-8.501297-3.749133-1.43028-.636069-2.872792-1.259905-4.384328-1.7876318-.770621-.2682321-1.492314-.4770512-2.234102-.7147031l-2.220996-.6849966c-1.482704-.4534607-2.96628-.8868259-4.455973-1.301843l-.069898-.0183481c-.10572-.071645-.21144-.1502798-.318908-.2201775l-.33114-.2175563-.366088-.2306621c-.243768-.159017-.491905-.2900751-.740915-.4324914-.492778-.2726007-.987304-.5198635-1.487072-.7487782-.996041-.4604505-1.999071-.855372-3.000355-1.2249556-1.995576-.7347987-3.995522-1.3577611-5.984983-1.9623755-1.988587-.5967508-3.957952-1.198744-5.93518-1.7561774-1.976355-.5469488-4.005134-.9252697-6.011195-1.3638772-2.01043-.4193856-3.981543-.9759454-5.871399-1.7151126l-2.105666-.827413 1.824328 1.2887372c1.259031.8885734 2.624655 1.5202731 3.996396 2.1441092 1.376109.615099 2.77843 1.1769011 4.189488 1.7177338 2.8326 1.0746758 5.701024 2.063727 8.608764 2.9863755 1.155932.3590989 2.324096.7007235 3.511482 1.008273.92789.3224027 1.849665.6561638 2.753092 1.0100205.940123.3704573 1.864518.7592628 2.744355 1.1847645.439481.2166826.865856.4412287 1.274757.6745119.199208.1266894.405406.2411468.593256.3695836l.287454.1895973.311918.2184301c.814307.5687918 1.606772 1.1637948 2.269925 1.7788938.136301.123195.260369.250758.380068.374826-.364341.027959-.756641.038444-1.161174.033202-.958471-.015727-1.960628-.096983-2.964532-.204451-.996041-.107467-2.030526-.248136-3.00385-.401037-.516368-.083004-1.031863-.166881-1.499304-.264738-.473556-.083003-.970703-.203576-1.457365-.308423-1.949269-.4447234-3.883686-1.0004094-5.790143-1.6574469-1.895973-.6614062-3.777966-1.3804778-5.62501-2.1869215-3.68011-1.6093925-7.279837-3.4136246-10.747632-5.4092014-1.734334-.9934198-3.441583-2.0200409-5.117379-3.0894744l-1.252914-.8073174-1.224082-.8125597c-.860615-.5521911-1.610266-1.1035085-2.414089-1.6495836-1.583181-1.133215-3.143645-2.3240956-4.755659-3.4940069-1.596286-1.1716587-3.258102-2.3057474-5.00729-3.296546 4.794976 4.0016382 7.572533 7.1129556 12.699522 10.5606553 9.478116 6.3720409 21.551181 12.7650515 32.390553 14.3263895z" fill="#e1eef4" opacity="0.5"/><path d="M353.12972 82.9588532c-.145911 3.5534198 1.985092 6.8971468 4.00426 9.8494471 2.988122 4.3790854 1.398825 10.0678767 1.521146 14.7763547.186976 7.329639-2.507577 36.442867 3.731659 43.343509h0l.025338.007863c7.934252-3.328873 14.387549-30.955904 16.891631-37.758689 1.612014-4.374717 1.919563-11.763768 6.140505-14.6837407 3.13054-2.1694471 7.447591-4.4629625 8.204232-8.4121775l-18.673146-19.0567099c8.73e-4.0017474-21.834267 11.7017338-21.845625 11.9341433z" fill="#d4dfe5"/><path d="M390.697065 90.1172423c-.51899.2236724-1.033611.4578294-1.548232.6954812.657911-.4202593 1.304464-.8658566 1.916942-1.3769829.690239-.5757816-.595004-1.24243-1.100014-1.1244778-.883331.2027031-1.75443.4368601-2.620287.6823754.410649-.5373379.767127-1.1201092 1.044096-1.7631672.294444-.6849966-.697229-1.0886553-1.217966-1.0030307-5.45813.9313856-9.212505 4.6473174-14.04243 7.0561638-2.368655 1.1803959-4.832546 2.2192491-7.370703 3.0213242-.342498.0917406-.676259.1913447-1.010894.2918226-.649174.1642593-1.303591.2953174-1.97286.3756996-.573161.1738703-1.012642-.0305802-1.319318-.6133515.460451-.4718089 1.869761-.7103345 2.442922-.855372 2.293515-.5740342 4.448983-1.3490239 6.602703-2.3127372 1.909078-.8536246 3.694962-1.8994676 5.352409-3.1488874 3.518471-1.1760273 6.816765-2.9234676 9.394239-5.632.54957-.5749079-.885078-1.0528328-1.220587-1.0030307-2.968901.4185119-5.212614 1.9396587-7.470307 3.8496109-.715577.6089829-1.440764 1.1725324-2.179058 1.7055017-1.420669.4578294-2.865802.8475085-4.303945 1.1856382-.961092.228041-1.978103.3783208-3.015208.5085051 1.408436-.7592628 2.803767-1.5560955 4.230552-2.3179795 3.86097-2.0567372 8.261898-3.3463481 11.431755-6.4567918.743536-.7260614-.769748-1.2310717-1.306212-1.0790444-4.070662 1.1436997-7.83028 2.9636587-11.658048 4.7591536.016601-.0096109.032328-.0174744.050676-.0244641 3.369939-1.6792901 6.681338-3.4485734 9.930703-5.3122185.811686-.4630716-.57316-1.1166143-1.178648-1.0991399.304928-.152901.609856-.3031809.913037-.4587031 1.016137-.5233583-.452587-1.4416382-1.143699-1.170785-3.641666 1.4154267-7.187222 3.0431673-10.641038 4.9059386-2.748723 1.4757133-6.187686 4.3153038-9.519181 5.0937884 1.901215-1.819959 4.822935-2.7871672 7.023836-4.0811467 3.324505-1.9571332 6.62542-3.9317407 9.865174-5.9937202.588888-.3730785-.052423-.8632355-.664901-1.045843.732178-.4429761 1.465229-.8876996 2.193912-1.3385392.605488-.374826-.14329-.9567236-.782854-1.1017611.236779-.4045325.309297-.7880956.090867-1.1104983-.256-.3765734-.787222-.6133516-1.22146-.5207372-.593256.1275631-1.072929.4953993-1.568328.8274129-2.07858 1.383099-4.069788 2.7032901-6.330976 3.8102936-2.852696 1.3979522-5.817229 2.5669897-8.704 3.9212559-.831782.2428942-1.666185.4910308-2.503208.7583891-.430744.1371741-.44385.3905529-.259495.630826-.193966.1048464-.390553.2035767-.582772.3101706-.207945.1188259-.234157.4220068-.109215.621215.478799.7758635 1.300096 1.0152628 2.248082.9628396-.809065.387058-1.619877.7671263-2.439426 1.1384573-.895563.4045325.110088 1.2389352.725187 1.2424301.618594.0026211 1.202239-.1039727 1.764041-.2752219-.576655.4962731-1.100887 1.0510854-1.521146 1.7186075-.36871.5836451.601119.9969147 1.015262 1.0231263.403659.0270853.795959.0209693 1.182144-.0122321-.238526.1756178-.484915.337256-.721693.5172424-.77499.5862662.777611 1.3796041 1.332423 1.0860341.057666-.0305802.113584-.0620341.169502-.0908669h0c8.74e-4 0 8.74e-4 0 .002621 0 .19484-.103099.386184-.2114403.581024-.3145392-.071645.0664027-.146785.1249419-.217556.1913447-.703345.6736382.609856 1.1620477 1.124477 1.1367099 3.173352-.1520273 5.901106-2.0436314 8.549352-3.556041 2.795031-1.5971604 5.820723-3.03443 8.900587-4.220942-2.311864 1.2808737-4.838662 2.2559454-7.173242 3.437215-2.767946 1.4040683-5.374253 3.0125871-8.194622 4.2541434-1.250293.2822116-2.443795.6858703-3.513228 1.3219386-.891195.5277269.83615 1.226703 1.331549 1.0825392 1.072929-.3075495 2.102171-.6858703 3.106949-1.1104983 1.58755-.3066758 3.275577-.3896792 4.774007-.6491741.85013-.1476587 1.688901-.3293924 2.527672-.5137474-1.214471.6282048-2.473501 1.1961229-3.805925 1.7133652-1.92131.7435358-5.137474.8143072-6.650757 2.3581706-.733052.7479045.358225 1.9990717 1.089529 2.2900205.090867.03757.185228.0611604.277843.0917406-.273475.1345529-.557434.2577475-.820424.4080273-.500641.2822116.04456.9104164.394922 1.0292424 1.301843.4412286 2.565242.4761774 3.798061.277843-.958471.3818159-1.911699.7645049-2.872791 1.1436999-.800328.314539-.145912.961966.529474 1.155931-1.736082 1.056328-2.917352 2.169448-1.838307 2.881529 1.046717.688492 2.538157.008738 3.519345-.35473 1.020505-.378321 2.019167-.802949 3.018703-1.231072-.127564.085625-.256.163386-.38269.249011-.231536.154648-.270853.320655-.199208.47443-.589761.332887-1.182143.665774-1.766662 1.010894-.343372.202703-.275222.453461-.040191.664027-1.772778.551318-3.500123 1.21185-4.794103 2.532915-.582771.595003.366963 1.09215.890321 1.140205 2.244587.214061 4.497038-.172997 6.727645-.857994-.329392.500642.567918.96284.998662.995168 1.159427.083877 2.284778-.052423 3.384792-.310171-.181734.090867-.367836.179113-.546949.272601-.830908.43686-1.699385.795959-2.587959 1.113119-2.643003.709461-5.279017 1.461734-7.78572 2.570485-1.044095.462198.447345 1.475713 1.161174 1.165543 1.940533-.85013 3.972806-1.440765 5.985857-2.076833.212314-.059413.420259-.122321.632573-.18086-2.524177 1.324559-5.021269 2.699795-7.335754 4.405297-.840519.621215.814307 1.24243 1.328928 1.07118.397543-.134552.786348-.284832 1.176028-.435112-.696355.621215-1.336792 1.305338-1.902963 2.075959-.456955.628205.831782 1.100014 1.244178.998662 1.805105-.446471 3.516723-1.079044 5.189024-1.797242-1.301843 1.121856-2.463891 2.380887-3.335864 3.887181-.260369.450839.153775.758389.598498.903426-.407153.270853-.811686.548696-1.216218.830908-.828287.581024.878089 1.375236 1.493188.973324.785474-.512 1.562211-1.031863 2.324969-1.563959 1.328928-.827413 2.719891-1.499304 4.264628-1.750935-.716451 1.117488-2.190416 1.772778-3.301789 2.267304-1.037979.459577.442977 1.472218 1.153311 1.155932 1.758799-.780232 4.022608-1.846171 4.394812-3.979796.090867-.541706-.665774-.841392-1.06157-.850129-.512873-.013106-1.007399.02359-1.49144.084751.913038-.796833 1.791126-1.637352 2.618539-2.548642.550444-.609857-1.014389-1.171659-1.436396-.940997-1.80161.989051-3.28344 2.781051-5.02389 3.976301 2.698921-3.009093 6.629788-4.947877 9.783918-7.264983.782853-.579277-.772369-1.328055-1.313202-1.067686-3.780587 1.817338-7.404778 3.997269-11.35574 5.457256 2.964532-2.648246 6.998498-4.110854 10.231263-6.269816.677133-.451713-.257748-.995167-.916533-1.086908.290949-.159017.582772-.318034.871973-.48142 8.74e-4 0 8.74e-4 0 .001747 0v-.001747c.055918-.029707.111836-.060287.166881-.091741.466566-.263863.200955-.595003-.222799-.821297 1.971113-.927017 3.936983-2.00344 5.333188-3.43372.726061-.745283-.761884-1.231071-1.31058-1.070307-2.883277.851877-5.784028 2.677952-8.828069 3.312273 3.016082-2.103918 6.606198-3.612833 9.901871-4.96972 1.060696-.439481-.455208-1.389215-1.145447-1.162922-2.933953.975946-5.761311 2.291768-8.62886 3.476533-2.467386 1.01701-5.23271 2.27342-8.006772 2.648246 2.629898-1.586676 6.279427-2.211386 8.925925-3.345475 4.448109-1.908205 8.867386-3.816409 13.036778-6.2287507.684997-.3957952-.275221-.9951672-.851877-1.1070034 1.811222-.9881774 3.619823-1.9789761 5.438034-2.9540478 1.040601-.561802-.475303-1.345529-1.139331-1.161174-.309297.0856246-.604614.1861024-.91129.2734744 1.516778-.7749898 3.044041-1.5255154 4.605379-2.2087645 1.018758-.4499659-.439481-1.4617338-1.135836-1.1655427zm-22.464219-3.8050512c-1.714238.9182799-3.417993 2.0584847-5.216109 2.8727918 1.653952-1.0886553 3.446826-2.0008191 5.216109-2.8727918zm-2.663099 11.7122185c-.619467.2297884-1.249419.4080273-1.875877.5015153.319782-.1162048.646553-.2227986.978567-.3241502.298812-.0471808.596751-.1074675.89731-.1773651zm10.840246-4.923413c3.067632-1.9099522 6.034785-4.0164915 9.413461-5.0911672-.586266.8195494-1.314075 1.5290102-2.133625 2.1502252-2.459522.8676041-4.872737 1.8662662-7.279836 2.940942zm-12.979112 9.9534194c.724314-.422006 1.492314-.782853 2.234102-1.144573 1.929174-.940997 3.923003-1.741324 5.894116-2.5731058 3.646908-1.5386212 7.105092-3.4520683 10.613078-5.2440683.661407-.2507576 1.314949-.5093788 1.966745-.7749897-3.044915 1.617256-6.062745 3.3192628-9.188041 4.8054607-3.750881 1.7841366-7.636314 3.3716861-11.52 4.9312761zm15.003522-4.5948938c-.273475.1441638-.547823.2892013-.821297.4324915-.015727.006116-.032328.012232-.048929.0174744.079509-.0463072.158144-.0917407.237652-.1397953.210567-.1022252.421133-.2088191.632574-.3101706z" fill="#dfeef6"/><path d="M417.065065 112.37002c-.499768-.497146-1.23544-1.22146-2.186048-2.130129-1.872382-1.851413-4.545966-4.497911-7.708833-7.730676-1.577938-1.627741-3.312273-3.3690648-5.102525-5.2650375-1.827823-1.857529-3.715932-3.8679591-5.693161-5.9281912-1.970239-2.075959-4.008628-4.2244368-6.086334-6.4139795-2.082075-2.1877952-4.193857-4.4271399-6.292533-6.6865802-2.335454-2.4901024-4.656928-4.9924368-6.950443-7.4545802 1.553474-.8571194 3.094716-1.7072491 4.603631-2.5390307 1.286116-.6963549 2.547768-1.3848464 3.783208-2.0584846 1.244178-.6666485 2.463891-1.3201912 3.648656-1.9553857 2.378266-1.3070853 4.611494-2.5993174 6.61144-3.8976655 2.009556-1.2922321 3.793693-2.5792219 5.277269-3.8469898 1.491441-1.2616519 2.676205-2.5154403 3.524588-3.6460341.851003-1.1367099 1.351645-2.1476041 1.622498-2.8658021.142416-.3564778.219304-.6386894.268232-.8317815.051549-.1922185.079508-.2900751.079508-.2900751 0 0-.034075.0961092-.096983.2822116-.065529.1878498-.158143.4674402-.325897.8055699-.310171.6867441-.876341 1.6443413-1.783263 2.6945529-.912164 1.045843-2.150225 2.188669-3.695836 3.3236314-1.541242 1.1402048-3.375181 2.2856519-5.441529 3.4136246-2.070717 1.1192355-4.368601 2.2183754-6.828997 3.3253789-1.218839.5749078-2.496218 1.1253515-3.77185 1.7745256-1.25903.6465529-2.551262 1.3097064-3.857474 1.9789761-1.685406.8763413-3.406635 1.782389-5.139222 2.6989215-1.345529-1.4398908-2.680573-2.8666758-3.993775-4.2523959-1.015262-1.06157-2.017419-2.107413-2.99686-3.131413-.996041-1.0318635-2.020041-1.9711126-2.982006-2.9112355-1.96325-1.8522867-3.775345-3.6425393-5.364642-5.3786212-1.584055-1.7413242-2.945311-3.4249829-4.025229-5.0064164-1.091276-1.5788122-1.88374-3.0632627-2.40273-4.3493788-.515495-1.2913584-.734799-2.3808874-.808191-3.131413-.042812-.3730785-.041939-.6692696-.040191-.8667303 8.73e-4-.1974608 8.73e-4-.299686 8.73e-4-.299686 0 0-.008737.1022252-.022716.299686-.014854.1983344-.035823.4910307-.018348.8737201.020969.7662526.165133 1.8863618.599372 3.2397543.42987 1.3464027 1.138457 2.9173515 2.134498 4.598389.988177 1.6854062 2.251577 3.484396 3.728164 5.3611468 1.466976 1.8819932 3.151508 3.8347577 4.972341 5.8478089.913038.9899249 1.850539 2.0060614 2.806389 3.0422935.947113 1.0406007 1.916942 2.1047918 2.902498 3.1838362 1.156806 1.286116 2.34157 2.6001911 3.535946 3.9256245-2.979386 1.5805598-6.001584 3.1882048-9.031645 4.7801229-2.721639 1.4468806-5.448519 2.875413-8.134335 4.2593857-.930512.4840409-6.255836 3.2423754-7.849502 4.0689147-2.542525 1.2992218-4.984573 2.5809692-7.320027 3.7386484-2.31099 1.2048601-4.520628 2.2804096-6.542416 3.3026621-4.047946 2.0191673-7.440601 3.6477816-9.814498 4.7836178-1.19525.5469488-2.129256.9934198-2.764451 1.2983481-.633447.3014335-.975072.4665666-.975072.4665666 0 0 .362594-.1179523 1.03798-.33114.673638-.2166826 1.664437-.5329693 2.919099-.9541024 1.257283-.4167645 2.757461-.9951672 4.490048-1.6286143 1.732587-.6456792 3.654771-1.4477543 5.770047-2.2952628 2.091686-.9025529 4.370349-1.8627713 6.749488-2.9479317 2.387004-1.0869079 4.888465-2.2681775 7.472055-3.5053652 1.095645-.5443277 2.215754-1.1008874 3.339358-1.6591946.016601.6273311.091741 1.2537884.233284 1.8645188.337256 1.5185256.987303 2.9426894 1.737829 4.280355.736546 1.3394129 1.653079 2.5993174 2.435058 3.8548532.736546 1.2712628 1.128846 2.7303754 1.294853 4.1929829.327645 2.9523008-.15989 5.9107168-.214935 8.9267988 8.74e-4.083003-8.74e-4.162512 0 .24202-.21144.146785-.400164.296191-.550444.448219-.276969.271727-.438607.546949-.489283.749652-.05417.20445-.043686.313665-.043686.313665 0 0 .017475-.115331.111836-.281338.091741-.168628.286581-.379194.586267-.565297.110962-.06815.248136-.131058.384436-.194839.006116 1.267768-.011358 2.510198-.06116 3.775344l-.158143 4.484806c-.220178 5.979741-.386185 11.981324-.138922 17.99514.131058 3.007345.38269 6.018184.892942 9.005433.256874 1.492314.591509 2.978512 1.070307 4.435877.48841 1.440765 1.11312 2.887646 2.164205 4.078526l.062908.074266.096983.026212.027959.006116.11271.029706.096109-.042812c1.455618-.640437 2.545147-1.782389 3.483522-2.965406.937502-1.196123 1.725598-2.490976 2.448164-3.814662 1.436396-2.654362 2.605434-5.436287 3.680983-8.246171 1.6723-4.393065 3.085106-8.873502 4.436751-13.363549l.076887-.023591c0 0-.008737-.06116-.024464-.151153.359973-1.198744.717324-2.397488 1.073802-3.596232.428997-1.433775.855372-2.868424 1.308833-4.288219.221925-.712955.477051-1.401447.720819-2.117897.235031-.723441.428997-1.45125.612478-2.179932.059413-.243768.115331-.489283.172996-.733051.160765.118826.311045.232409.445598.33114.60374.442976.953228.695481.953228.695481 0 0-.323276-.284833-.887699-.780232-.142417-.124942-.299686-.265611-.470062-.419386.275222-1.157679.540833-2.315358.847509-3.453816.387058-1.432027.84314-2.84658 1.489693-4.148423.645679-1.292232 1.513283-2.4743753 2.66572-3.2773241 1.184764-.8195495 2.414962-1.585802 3.592737-2.4455427 1.17428-.8536245 2.312737-1.7972423 3.236259-2.9732696.428997-.5452013.794212-1.161174 1.070307-1.8208327.432492.4412286.874594.8911945 1.301843 1.3271808 2.03839 2.0156724 4.012123 3.9500888 5.913338 5.7551946 1.892478 1.8059797 3.731659 3.4599317 5.412697 4.9968057 1.720355 1.494935 3.275576 2.882402 4.698867 4.057556 1.431153 1.166416 2.657856 2.201775 3.710689 3.008218 1.04759.808192 1.878498 1.433775 2.449037 1.856656.56355.42288.868478.650921.868478.650921 0 0-.268232-.264737-.769747-.759263zm-37.199509-2.013924c-.179112.72344-.373078 1.443385-.600245 2.141488-.236779.697228-.504137 1.404068-.726936 2.122266-.463945 1.426785-.892942 2.861433-1.328054 4.293461-.276096.921774-.557434 1.83918-.834403 2.759208-.084751-.221925-.186102-.455208-.321529-.715577-.198334-.363468-.453461-.766253-.787222-1.159427-.313665-.414143-.719071-.797706-1.162048-1.19787-.457829-.370457-.959344-.75402-1.510662-1.073802-.554812-.322403-1.150689-.614225-1.777146-.839645-.62471-.235904-1.276506-.410649-1.932669-.529474-1.316697-.250758-2.652615-.283959-3.883686-.161639-.617721.056792-1.208355.159891-1.757052.297939-.550443.142416-1.065064.283959-1.519399.485788-.458703.182608-.86673.383563-1.210102.593256-.344246.203577-.630826.401912-.848383.593256-.227167.174744-.382689.339877-.488409.451714-.102225.111836-.160765.171249-.160765.171249l.036697.049802c0 0 .074266-.026212.217556-.077761.138048-.055918.341625-.130185.601993-.210567.129311-.04456.272601-.086498.432492-.124068.157269-.041065.321529-.095236.509378-.130184.364342-.076888.769748-.161639 1.224956-.218431.447345-.059412.937502-.109215 1.454744-.138921.520737-.018348 1.063318-.034075 1.62512-.018348.560928.005242 1.145447.049802 1.730839.102225.583645.062034 1.178649.1363 1.765789.240273.585392.110089 1.169037.215809 1.737829.365215.567918.135427 1.12273.297065 1.649584.486662 1.057201.362594 1.992081.881584 2.683194 1.475714.69286.591508 1.13671 1.250293 1.395331 1.71686.042812.066402.070771.126689.103973.191344-1.402321 4.609748-2.861434 9.204642-4.587031 13.690321-1.076423 2.789789-2.255945 5.549871-3.673993 8.157925-.715577 1.302717-1.492314 2.569611-2.403604 3.719427-.85712 1.077297-1.852287 2.074211-3.038799 2.649993-.850129-1.038853-1.421542-2.329338-1.861897-3.64516-.455209-1.407564-.780232-2.863181-1.026622-4.331031-.500641-2.940942-.718198-5.928191-.86673-8.910198-.274348-5.977993-.140669-11.962103.047181-17.940969l.135427-4.488301c.040191-1.33417.028832-2.702416.013979-4.033092.528601-.185229 1.157679-.346867 1.883741-.468314 1.218839-.212314 2.664846-.365215 4.217447-.420259.776737-.030581 1.577065-.048055 2.388751-.048055.800327-.010485 1.616382-.020095 2.427194-.028833.400164-.003495.799454 0 1.169911.025338.415891.032328.844888.046307 1.21884.083877.768874.05155 1.557843.190471 2.306621.347741.736546.197461 1.456492.425502 2.105666.725188.6483.300559 1.254662.616846 1.792873.954976.632574.387058 1.175154.764505 1.646089 1.106129-.069897.301434-.140669.60811-.215809.911291zm12.152574-17.3879049c-.876342 1.1201092-1.984219 2.0401365-3.142772 2.881529-1.162047.8457611-2.38875 1.6058976-3.584873 2.4359318-1.239809.861488-2.158963 2.1152761-2.826485 3.4581841-.671891 1.350772-1.135836 2.791536-1.528137 4.241911-.288327 1.06856-.540832 2.14411-.794211 3.218785-.418512-.379194-.898184-.799454-1.46086-1.245924-1.016137-.821297-2.311864-1.666185-3.825147-2.363413-.762758-.342499-1.555222-.671018-2.422826-.891195-.44385-.137174-.84314-.212314-1.259904-.29357-.45783-.090867-.906048-.127563-1.344656-.155522-.881583-.050676-1.743071-.020969-2.584464.066403-.841392.095235-1.660942.224546-2.44729.377447-1.575317.312791-3.032682.684123-4.238416 1.135836-.611604.230662-1.163795.477925-1.631236.736546.054171-2.917352.522485-5.859167.184355-8.8682595-.179112-1.5150307-.58714-3.0466621-1.380478-4.407918-.825665-1.3149488-1.705501-2.5136929-2.438553-3.84-.739167-1.3070854-1.367372-2.684942-1.690648-4.1309488-.155522-.6666485-.227167-1.3411605-.224615-2.0147987 1.355209-.6762594 2.722581-1.3647508 4.100438-2.0715904 2.692805-1.3900888 5.422307-2.8203686 8.145692-4.2716178 2.738239-1.4425119 5.455509-2.9348259 8.142198-4.395686.434239-.240273.861488-.4753037 1.29398-.7147031.326771.3625939.647426.718198.975072 1.0825393 1.079918 1.1838908 2.165952 2.3782662 3.258102 3.5735154l.115331.152901c.329392.4289966.674512.8440136 1.01002 1.2660205.340751.4185119.66927.845761 1.017884 1.2572832l1.058075 1.2170922c.348615.415017.710335.8099385 1.083413 1.1978703l1.10613 1.170785 1.154184 1.1262252c.3757.380942.789843.7216929 1.185639 1.0842867.271727.2516314.561802.4831673.847508.7164505.237652.2516314.478799.5076314.715577.7566417 1.515904 1.5831809 3.020451 3.1183071 4.505775 4.6307167-.258621.6780068-.627331 1.3123276-1.073802 1.8802457z" fill="#293644"/><path d="M375.827222 122.00628c-.127563-.430744-1.005652-.513748-1.315823-.312792-.765379.480546-1.463481 1.029242-2.108286 1.628614-.04456.006116-.088246.01398-.110089.024465-3.590116 1.647836-6.616683 4.505774-9.842457 6.884914-.588014.433365-1.196123.811686-1.824328 1.169911 1.762293-1.003904 3.375181-2.688436 4.988068-3.990279 2.329338-1.882867 4.653434-3.759618 6.928601-5.708888.415891-.359972-1.040601-.616846-1.287864-.507631-2.748723 1.19088-5.40658 2.70329-8.157925 3.936983 2.331959-2.057611 2.601065-2.839591 3.096465-3.926499.951481-.170375 1.830443-.377447 2.449911-.712081-.236778-.091741-1.049338-.310171-1.806853-.519864.260368-.515495-1.040601-.619467-1.30097-.477925-1.773652.956724-3.721174 1.300096-5.495699 2.260314-.550444.296191.813433.795086 1.20486.582772.593256-.319782 1.42329-.520738 2.322348-.686745-1.663563 1.466977-3.603222 2.802895-4.061925 5.001175-.102225.491904.966334.546948 1.21185.470935 2.517188-.803823 4.904191-2.005188 7.286826-3.209174-3.12355 2.567863-6.057502 4.856136-9.146976 7.507877-.145912.124942 0 .33114.076887.395795 1.351645 1.073802 2.78542.280464 4.073283-.551317 2.319727-1.495809 4.404423-3.373434 6.627168-4.998553-2.602813 2.734744-5.384738 5.265911-8.129966 7.859986-.418512.397543 1.049338.618594 1.292232.50501 1.475713-.677133 2.860559-1.494935 4.19473-2.405351-1.818212 2.172942-3.746512 4.228805-5.855672 6.125652-.411522.367836.97245.615099 1.165542.552191 1.515905-.485789 2.98026-1.091277 4.419277-1.76841-1.976355 1.952765-3.925625 3.939604-5.742089 6.087208-.339003.400164 1.051085.782854 1.384847.426376 1.492314-1.595413 2.988996-3.173352 4.515385-4.711099-.855372 1.607645-1.726471 3.216164-2.571358 4.846525-.928765.941871-1.786758 1.944028-2.472628 3.14714-.183481.320656.221925.507632.647426.552191-.069897.15028-.140668.297065-.209692.447345-.216683.477051 1.178648.567045 1.427658.330266 1.995577-1.893351 2.586212-3.160245 3.59798-5.647727.001747-.003494-8.74e-4-.006989 8.74e-4-.008737 2.223617-3.031809 3.851358-6.34845 5.452887-9.882648.174744-.388806-.562676-.536464-1.020505-.425502.656164-1.520273 1.24243-3.081611 1.731713-4.697119.42026.228914 1.009147.191344 1.016137-.14329.03058-1.839181 1.896846-3.599727 1.34815-5.452014zm-1.72385 2.294389c-.161638-.121447-.433365-.182608-.684123-.19484.319782-.314539.65529-.616846 1.006526-.9043-.062908.366089-.182608.733925-.322403 1.09914zm-6.198171 5.506184c-.03757.079509-.076887.152901-.115331.231536-.027959.06116-.031454.1197-.020969.174744-.428123.328519-.859741.650048-1.296601.96284.478799-.454335.958471-.908669 1.432901-1.36912zm3.486144-.996041c.212314-.29357-.205325-.478798-.643932-.529474.470935-.613352.967208-1.203113 1.49144-1.764915-.810812 2.89813-1.944901 5.6154-3.228396 8.257529-1.554348.842266-3.123549 1.637352-4.734689 2.327591 2.594075-2.541652 4.945256-5.30785 7.115577-8.290731z" fill="#fff"/><path d="M394.358826 80.368273c.349488-.1424163.712956-.2428942 1.073802-.321529.726061-.1660068 1.455618-.2428942 2.179932-.3084232.727809-.059413 1.448628-.0768874 2.168573-.0961092l2.14673.0122321c.712956.0148532 1.423291.0471809 2.111782.0463072l2.121393-.0480547c1.446006-.0270853 2.890266-.0200955 4.32404-.0096109 2.880656.021843 5.741216.0602867 8.584301-.0882457.713829-.0419386 1.418921-.0926143 2.128382-.1494062l1.041474-.1057201 1.081666-.1371741 4.322294-.6168464c2.895508-.4158908 5.778785-.8684778 8.655945-1.3743617 2.882403-.5093789 5.745584-1.1139932 8.565078-1.8758772 2.821243-.7688737 5.609284-1.6688054 8.230444-2.8797815 2.068969-.9575973 4.039208-2.1257611 5.694034-3.5752628-.243768-.0288328-.488409-.0629079-.734798-.0838772-.422881-.0288327-.846635-.0690239-1.277379-.0856246-.427249-.0166006-.857993-.0244641-1.291359-.0200955-.432491.0104846-.867604.0122321-1.301843.0323276-.43686.0174744-.871972.0445598-1.31058.0777611-.875467.0672765-1.755304.1598908-2.63514.2769693-.878962.1188259-1.756177.256-2.63514.4132696-.871972.1660069-1.749187.3302662-2.616791.5242321-.866731.1983345-1.73783.3879318-2.603686.5923823l-2.592328.6081092c1.512409-.4106485 3.023945-.8134335 4.530239-1.2607782.408027-.1170785.816054-.240273 1.223208-.3582252l1.94927-.6011195c.85275-.2647372 1.715112-.5268532 2.586211-.7618839.328519-.0899932.658785-.1729966.989051-.2568738.781106-.2227986 1.561338-.4421024 2.342444-.6692696 1.527263-.4473447 3.061515-.8352764 4.601884-1.2066075l2.324096-.5644232c.756641-.184355 1.516778-.3617201 2.264682-.5784027 1.506294-.4150171 2.994239-.8999318 4.465584-1.4451331 1.469597-.5408328 2.925215-1.1340888 4.366853-1.7710308 1.446007-.627331 2.883277-1.2765051 4.313556-1.9676177l4.303072-2.0759591c1.443386-.6981023 2.859686-1.4206689 4.350253-2.103918 2.9523-1.3708669 5.945665-2.5844642 8.857774-3.8871809 1.456492-.6570376 2.888519-1.3464028 4.277734-2.0969284.693734-.3748259 1.380478-.7732423 2.044505-1.176901.328519-.2088191.657912-.4019112.984683-.6238362l.989925-.6666484c1.342034-.9340068 2.690184-1.8286963 3.9763-2.7522185.868478-.6255836 1.674048-1.2966006 2.44729-1.9938293-2.258566-.4482184-4.553829-.7732423-6.862198-.9942935-2.815126-.2568737-5.649474-.4019113-8.486443-.4237543-2.829106-.0183481-5.667823.0585393-8.482076.1939659-2.829105.1476587-5.64161.3459932-8.442757.6037406-1.400574.1118362-2.79241.2892014-4.186867.4298703-1.390089.1555222-2.774935.3529829-4.159782.5259795l-4.128327.6334471c-1.364751.2542526-2.743482.4744301-4.094253.7513993l-2.01742.4167646c-.67189.1336791-1.34815.2804641-2.029652.4482184l-2.038389.4814198-.992546.240273-1.008273.2551263c-2.685815.6832491-5.364641 1.3778567-8.028614 2.0951809-5.312218 1.4346484-10.570266 2.9837542-15.72871 4.7486689-2.567863.8763413-5.124369 1.7850103-7.654662 2.7417338-1.259905.4814198-2.521556.9672082-3.763113 1.4827031-1.258157.4831672-2.488355 1.0170102-3.723795 1.536-1.226703.5452013-2.430689 1.0423481-3.66613 1.6242457-1.231071.577529-2.438553 1.1524369-3.686225 1.7177338l-3.684478 1.6749215c-1.22146.5469488-2.435931 1.105256-3.635549 1.6845324-2.398362 1.1506895-4.766144 2.3546758-7.007236 3.7412697-1.113119.7024709-2.210512 1.4302798-3.210921 2.2734198-1.004778.8413924-1.926553 1.760546-2.608928 2.9042457l-.054171-.0244642c-.003495.0104847-.260369.8064437-.233283 1.4433857.026211.6413106 1.277378 1.1454471 2.371276 1.7631672 1.09215.6168464 6.597461 4.405297 6.597461 4.405297l-.010485-.3617202h0 .017475c.0166-.1144573.071645-.2061979.140668-.2900751l-.079508-.0725187c.24901-.3040547.604614-.499768.958471-.6386895z" fill="#e1eef4" opacity="0.5"/><path d="M484.142307 39.0762594c2.872792-.0690239 5.732478-.0768874 8.607891.0087372 2.879782.093488 5.766553.2446416 8.643713.5486962 2.885024.3101707 5.759563.7662526 8.588669 1.4433857h0l1.373488.3328874-.962839 1.002157c-1.148069 1.1961228-2.44729 2.2524505-3.758744 3.2362594-1.304465.9899249-2.633393 1.9003412-3.88456 2.8701706h0l-.981188.7278089c-.33114.240273-.689365.4770512-1.029242.7138293-.693734.4639454-1.390963.9060478-2.100423 1.3289284-1.415427.8475085-2.872792 1.6259931-4.336273 2.3616655-2.918226 1.4827031-5.890622 2.7688191-8.776519 4.1169693h0l-4.341515 2.0593583c-1.453871.6841229-2.908615 1.3813516-4.391318 2.0209147-1.481829.6474266-2.977638 1.2747577-4.486553 1.8584027-1.515904.5766553-3.052778 1.111372-4.603631 1.5875495-1.546485.4831673-3.11656.9034266-4.699741 1.2511673-.788969.1843549-1.584054.3258976-2.377392.4753037h0l-.708587.1258157c.374826.0454335.74703.0943618 1.121856.1616382h0l1.589297.2795905-1.08516 1.2240819c-2.089065 2.3607918-4.776628 4.074157-7.539331 5.4126962-2.777557 1.3263072-5.663454 2.3398226-8.579932 3.1410239-2.911235.7968328-5.844314 1.4285325-8.77215 1.9597543-2.927836.5452014-5.853925.9479863-8.765161 1.3385392h0l-4.362484.5722867-1.089529.1258157-1.132341.1039727c-.739168.0541707-1.478335.0978567-2.214881.1170785-2.947932.0917406-5.848683-.0174744-8.713611-.1039727-1.431154-.0463071-2.857065-.0838771-4.273365-.0908669-.715577-.0104846-1.393584.0235905-2.169447-.0104846-.738294-.0358225-1.449502-.0899932-2.16071-.1502799h0l-2.109161-.2000819c-.696355-.0751399-1.393583-.1345529-2.091686-.1887235-.695481-.0602867-1.389215-.0917406-2.080327-.096983-.678881.0279591-1.400574.009611-1.978976.3652151h0l-.027086-.0244642-.079508-.0725188c.247263-.3040546.602867-.5006416.956723-.6386894.349488-.1424164.712956-.2428942 1.073802-.321529.726062-.1668806 1.455618-.2437679 2.179932-.3084232.727809-.059413 1.448628-.0768874 2.168574-.0961092h0l2.14673.012232c.712956.0148533 1.42329.0471809 2.111781.0463072h0l2.121393-.0480546c1.446007-.027959 2.889392-.0209693 4.324041-.0096109 2.880655.021843 5.741215.0602867 8.5843-.0882457.714703-.0419386 1.418922-.0934881 2.128383-.1494062h0l1.041474-.1057201 1.081665-.1371741 4.322294-.6168464c2.895509-.4150171 5.778785-.8684778 8.655945-1.3743618 2.882403-.5102525 5.745584-1.1139932 8.565079-1.8758771 2.822116-.7688737 5.609283-1.6688055 8.230444-2.8797816 2.069843-.9567235 4.039208-2.1257611 5.694034-3.5752628-.243768-.0288327-.48841-.0629078-.734799-.0838771-.42288-.0288328-.846635-.0681502-1.277379-.0856246-.428123-.0166007-.858867-.0244642-1.291358-.0200956-.432492.0104847-.867604.0122321-1.301843.0323277-.43686.0174744-.871973.0445597-1.31058.0777611-.875468.0672764-1.755304.1598908-2.63514.2769693-.878963.1188259-1.756178.256-2.63514.4132696-.871973.1660068-1.749188.3302662-2.616792.5242321-.86673.1974607-1.737829.3879317-2.603686.5923822h0l-2.592328.6081092h0l1.176314-.287331c1.174649-.2958225 2.344997-.6141297 3.517311-.9280137-.047181.0113584-.095236.0227168-.14329.0349488h0l-4.550335 1.1803959h0l1.512345-.4099689c1.007561-.2741539 2.013699-.5525794 3.017894-.8508092.407154-.1170785.815181-.2402731 1.223208-.3582253h0l1.94927-.6011194c.852751-.2647372 1.715113-.5268533 2.586212-.761884.328518-.0891194.658785-.1729966.989051-.2568737.781106-.2227986 1.561338-.4421024 2.342444-.6692696 1.527262-.4473447 3.061515-.8352765 4.601883-1.2066075h0l2.324096-.5644232c.756642-.184355 1.517652-.3608465 2.264683-.5784028 1.505419-.415017 2.993365-.8999317 4.465583-1.4451331 1.469598-.539959 2.925215-1.1340887 4.366854-1.7710307 1.44688-.6273311 2.883276-1.2765051 4.313556-1.9676177h0l4.303071-2.0759591c1.44426-.6989761 2.86056-1.4206689 4.350253-2.1039181 2.9523-1.3708669 5.945666-2.5844641 8.857775-3.8871809 1.456491-.6570375 2.888519-1.3464027 4.277734-2.0969283.693733-.3748259 1.380477-.7732423 2.044505-1.176901h0l.657167-.4098718h0l.327515-.2139644.989925-.6666485c1.342034-.9340068 2.690185-1.8286962 3.976301-2.7522184.868477-.6255836 1.674047-1.2966007 2.44729-1.9938293-2.258567-.4482185-4.55383-.7741161-6.862198-.9942936-2.815127-.2577474-5.649475-.4027849-8.486444-.4237542-2.829106-.0183481-5.667823.0585392-8.482075.1939658-2.829106.1476588-5.641611.3459932-8.442758.6037407-1.400573.1118361-2.792409.2883276-4.186867.4298703-1.390088.1555222-2.774935.3529829-4.159781.5259795h0l-4.128328.6334471c-1.365624.2533788-2.743481.47443-4.094252.7513993h0l-2.01742.4167645c-.671017.1336792-1.34815.2804642-2.029652.4482184h0l-2.038389.4814198-.992546.2402731-1.008273.2551263c-2.685816.6832491-5.363768 1.3778566-8.028615 2.0951808-5.312218 1.4346485-10.570266 2.9828806-15.72871 4.748669-2.568737.8763413-5.124368 1.7850102-7.654662 2.7417338-1.260778.4814198-2.521556.9672082-3.763112 1.482703-1.259031.4831673-2.488355 1.0170103-3.723795 1.536-1.226704.5452014-2.43069 1.0423482-3.66613 1.6242458-1.231072.577529-2.438553 1.1524368-3.686225 1.7177338h0l-3.684478 1.6749215c-1.221461.5469488-2.435932 1.1052559-3.63555 1.6845324-2.399235 1.1506894-4.767017 2.3546758-7.007235 3.7412696-1.113993.702471-2.210512 1.4311536-3.210922 2.2734198-1.004778.8413925-1.926553 1.7605461-2.608928 2.9042457h0l-.054171-.0244641-.055918-.0244642c.214062-.6116041.528601-1.2293242.892942-1.7989897.378321-.5644233.794212-1.1070035 1.248546-1.6181297.914785-1.0187577 1.930922-1.9422799 2.999481-2.7959045 1.064192-.8562457 2.170321-1.6600682 3.314021-2.4088464 1.138457-.7505256 2.291768-1.4783345 3.473911-2.157215 1.17428-.6841229 2.366908-1.3464027 3.556041-1.9947031h0l3.595359-1.8837406c2.369529-1.2712628 4.780996-2.5119454 7.3043-3.6879727 2.500587-1.1471945 5.03787-2.2209966 7.61185-3.1986894 2.572232-.9855563 5.169802-1.9283003 7.793583-2.7775563 2.623782-.8763413 5.269406-1.6696792 7.927263-2.466512 2.663973-.7749897 5.333188-1.5307576 8.027741-2.2332286 2.691931-.7077133 5.401338-1.3857202 8.12385-2.0025666h0l1.021378-.2367781.53297-.1179523.513747-.1083413 2.047126-.4281228c.679755-.146785 1.370867-.2795905 2.075959-.4010376h0l2.09955-.3774471c1.402321-.2472628 2.797652-.4342389 4.199099-.6552901h0l4.217447-.5355904c1.411932-.1389215 2.820369-.3014335 4.233174-.4211331 1.418048-.1065939 2.834348-.2472628 4.251522-.321529 2.843086-.1852287 5.689666-.3084232 8.538867-.3940478zM255.66886 0l1.401447.120573379c2.899004.249883959 5.772669.724313993 8.607017 1.342034131 2.825611.61859386 5.612778 1.38659386 8.37286 2.20614334 2.756587.82566553 5.467741 1.73608191 8.172778 2.71027987 2.674458.97769283 5.336683 1.99382935 7.977939 3.06588396 1.321939.51898976 2.619413 1.10088732 3.931741 1.64696242 1.305338.5600546 2.589706 1.1603004 3.884559 1.7369557h0l3.833884 1.8400546c1.259031.6509215 2.525052 1.2703891 3.776219 1.9457747h0l1.875003 1.0222526c.628205.3355085 1.244178.680628 1.841802 1.0344846h0l1.807727 1.0519591.452587.2638634.468314.2822116.893816.5452014c2.388751 1.4451331 4.746921 2.9426894 7.07888 4.4647099 2.332833 1.5167782 4.630717 3.0772423 6.912 4.6525597 2.267304 1.5945393 4.531113 3.1829625 6.743372 4.842157 2.221871 1.6338567 4.387823 3.3472219 6.517953 5.0946621 2.132751 1.7395768 4.202594 3.5586622 6.213897 5.4371605 2.022662 1.9108259 3.921256 3.8504846 5.767427 5.8049965h0l2.817747 2.9217202c.927891.9916723 1.847045 1.9947031 2.74785 3.0152082.905174 1.0178839 1.770157 2.0715904 2.612423 3.1445187.849256 1.0694335 1.644342 2.1816792 2.384383 3.3306212.745283 1.1471945 1.418047 2.3450649 1.962375 3.599727.270853.627331.495399 1.2747576.676259 1.929174.163386.6552901.268233 1.339413.275222 1.9885871h0l-.041938.0034948-.078635.0078635c-.285707-1.3000955-.869352-2.463017-1.556969-3.5796314-.684997-1.1139932-1.496683-2.1519727-2.331086-3.1698566-1.688027-2.0226621-3.555167-3.9125188-5.470361-5.7604369-.952355-.9278908-1.929175-1.841802-2.916478-2.7452287h0l-2.967154-2.7513447c-1.006525-.9331331-1.96587-1.857529-2.954048-2.794157-.989051-.9401228-1.974607-1.7946211-2.967153-2.6989215h0l-1.512628-1.3257611c-.505884-.440901-1.015481-.8786348-1.534908-1.3067576-1.01701-.8807099-2.060232-1.7395768-3.101707-2.5940751-2.100423-1.704628-4.237542-3.3751809-6.400873-5.0169011-4.336273-3.3035358-8.836806-6.4332013-13.42471-9.4711262-2.304-1.5211468-4.624601-3.0256929-6.95656-4.5215017h0l-.878089-.5609284-.864983-.5408327-1.782389-1.1008874c-.593256-.3748259-1.188259-.7278089-1.784136-1.0659386h0l-1.783263-1.0327372c-1.194375-.6893652-2.430689-1.3332969-3.647782-2.004314h0l-3.715931-1.9038361c-1.259905-.6028669-2.511072-1.2275768-3.781461-1.813843-1.277379-.5731605-2.544273-1.1803959-3.839126-1.7299659-2.57398-1.1279727-5.179413-2.2035222-7.815427-3.2362594-2.630771-1.0152628-5.30086-1.98421843-7.991044-2.85968601-2.697174-.87459385-5.433666-1.63298293-8.186758-2.27778839-2.268177-.51986348-4.55645-.93662799-6.848218-1.22408191.514621.90866894 1.089529 1.7963686 1.718607 2.66834129.928765 1.28087372 1.923058 2.5556314 2.900751 3.86533789h0l.73043.94449147c.242894.31453924.493652.60199316.738294.90342666.501515.5932559 1.030116 1.1891331 1.568327 1.7622935 1.083413 1.1515631 2.22187 2.2559454 3.397898 3.3402321 2.352928 2.1554675 4.807208 4.2506484 7.177611 6.4847508 1.198744 1.1174881 2.313611 2.2489556 3.4643 3.3690649h0l3.428478 3.328c1.138457 1.1061296 2.29701 2.1773105 3.473037 3.2275221 1.166417 1.0589488 2.359045 2.0820751 3.582253 3.0588942 1.224956.9820615 2.482239 1.9116997 3.781461 2.7810512.64131.4421024 1.308832.849256 1.966744 1.2642731h0l2.026157 1.2660204c1.344655.8396451 2.677078 1.6932697 3.985911 2.5984437.762758.5268533 1.529884 1.0467168 2.293515 1.5700751.189598.1231946.387932.2359045.574908.3608464.754894.4971468 1.487946 1.017884 2.214881 1.5377475h0l1.682785 1.2031126c.341624.2350307.681501.4753038 1.024873.7094608 1.288738.8981843 2.594076 1.7587986 3.901161 2.625529h0l-2.268178-1.3962048c-.758389-.4674403-1.523768-.920901-2.28303-1.383099-.762758-.4569556-1.54299-.8903208-2.319727-1.323686-.781106-.4263754-1.57357-.8326553-2.369529-1.2232082-.796833-.3896792-1.601529-.752273-2.412342-1.0947713-.403658-.1712492-.809938-.3320137-1.219713-.4875359-.405406-.1546484-.817802-.2944436-1.224956-.4403549-.408901-.1415427-.820423-.2691058-1.231945-.3888055-.411522-.1205733-.828287-.2166826-1.238935-.321529-.240273-.0594129-.482294-.103099-.722567-.1520273 1.11312 1.8968464 2.615045 3.627686 4.274239 5.1890239 2.105666 1.9754812 4.466458 3.7098157 6.898894 5.3296928 2.433311 1.6120137 4.961857 3.0894744 7.53671 4.4839318 2.568738 1.3857201 5.16456 2.7268805 7.778731 4.0348396h0l3.909024 1.9501433.981187.4709352.956724.4289966c.653543.2795904 1.309706.5513174 1.971113.8143071 2.65174 1.0388533 5.380368 1.9064574 8.118607 2.7932833 1.366498.440355 2.737365.8903208 4.101242 1.3726143h0l1.998198.7155768c.651796.2175563 1.335045.4106485 2.016546.6220888h0l2.040137.6666484c.677133.2455154 1.356887.4892833 2.029652.7749898.665775.2892014 1.33417.5958771 1.971112.980314.317161.1887235.630826.3984164.917407.6456792.290075.2411467.568791.5417065.707713.9069215h0l-.097857.0445597-.034949.015727c-.437733-.5198635-1.127972-.7313038-1.763167-.9715768-.657037-.2131877-1.32456-.4010376-2.004314-.565297-.677133-.1686279-1.357761-.3328873-2.044505-.4796723h0l-2.066348-.4761775c-.691113-.1651331-1.383099-.3398771-2.094307-.5390853-.747905-.212314-1.380478-.4578294-2.06198-.674512-1.346403-.4403549-2.712901-.8536245-4.08202-1.2625256-2.749598-.8221706-5.53327-1.6356041-8.301215-2.6517406-.693734-.2507577-1.381352-.5259795-2.067222-.8108123h0l-1.039727-.4543344-.994294-.4639454-3.959699-1.9213106c-2.636888-1.2904846-5.289502-2.5958225-7.892314-4.0357133-2.61155-1.4302799-5.196014-2.9540478-7.708833-4.6280956-2.510198-1.6801638-4.931276-3.5534198-7.147031-5.6896655-2.199153-2.1423618-4.211331-4.6158635-5.446771-7.5148669h0l-.641311-1.5045461 1.593666.2367782c.3757.0541706.746157.1258157 1.115741.1992082h0l-.632574-.3416246c-.705092-.3914266-1.4163-.7784846-2.103918-1.2013652-1.39271-.8309078-2.750471-1.7247235-4.06542-2.6718362-1.321938-.9409966-2.611549-1.9317952-3.867959-2.9566689-1.246798-1.0318635-2.468259-2.0978021-3.667877-3.1794676-1.206607-1.0764232-2.367782-2.1965324-3.531577-3.3044095h0l-3.466921-3.3245052c-2.313611-2.1912901-4.729447-4.3502525-7.030826-6.6769692-1.155058-1.1594267-2.291768-2.3581707-3.368191-3.6102116-.541707-.6247099-1.060697-1.2651468-1.574444-1.9239318h0l-.505852-.6679105h0l-.244674-.3333728-.703344-1.00040952c-.879836-1.31582253-1.853161-2.59931741-2.779304-3.94921502-.934007-1.34727645-1.833065-2.76008191-2.545147-4.25763822h0L255.66886 0z" fill="#293644"/><path d="M365.559263 71.0517952c-.285707-1.2992218-.869352-2.463017-1.556969-3.5796314-.684997-1.1139932-1.496683-2.1528464-2.331086-3.1698566-1.688027-2.0217884-3.554293-3.9125188-5.470362-5.7604369-.952355-.9278908-1.929174-1.841802-2.916477-2.7452287l-2.967154-2.7513447c-1.005652-.9331331-1.96587-1.857529-2.954048-2.794157-.989051-.9409966-1.974607-1.7946211-2.967153-2.6989215-1.009147-.8815836-2.008683-1.776273-3.047536-2.6325187-1.01701-.8807099-2.059359-1.7404506-3.101707-2.5940751-2.100423-1.704628-4.238416-3.3743072-6.400873-5.0169011-4.336273-3.3035358-8.836806-6.4332013-13.42471-9.4711262-2.304-1.5211468-4.624601-3.0248191-6.95656-4.5215017l-.878089-.5609284-.864983-.5408327-1.782389-1.1008874c-.593256-.3748259-1.188259-.7278089-1.784136-1.0659386l-1.783263-1.0327372c-1.194376-.6893652-2.43069-1.3332969-3.647782-2.004314l-3.715931-1.9038361c-1.259905-.6019932-2.511072-1.2267031-3.781461-1.813843-1.277379-.5731605-2.543399-1.1803959-3.839126-1.7299659-2.57398-1.1279727-5.180287-2.2035222-7.815427-3.2362594-2.631645-1.01613652-5.30086-1.98421843-7.991044-2.85968601-2.697174-.87459385-5.433666-1.63298293-8.186758-2.27778839-2.268178-.51986348-4.556451-.93662799-6.848219-1.22408191.514622.90866894 1.089529 1.7963686 1.718608 2.66834129.928764 1.28087372 1.923058 2.5556314 2.900751 3.86533789l.73043.94449147c.24202.31453924.492778.60199316.738293.90342666.501516.5932559 1.030116 1.1882593 1.568328 1.7622935 1.082539 1.1515631 2.22187 2.2568191 3.397898 3.3402321 2.352054 2.1554675 4.807208 4.2506484 7.177611 6.4847508 1.198744 1.1174881 2.312737 2.2489556 3.4643 3.3690649l3.428478 3.328c1.138457 1.1061296 2.29701 2.1773105 3.473037 3.2275221 1.166417 1.0589488 2.358171 2.0829488 3.582253 3.0588942 1.224955.9820615 2.482239 1.9116997 3.781461 2.7810512.64131.4421024 1.308832.849256 1.966744 1.2642731l2.026157 1.2660204c1.344655.8387714 2.677078 1.6932697 3.985911 2.5984437.762758.527727 1.529884 1.0475905 2.293515 1.5700751.189597.1231946.387932.2359045.574908.3608464.754894.4971468 1.487945 1.017884 2.214881 1.5377475l1.682785 1.2031126c.341624.2350307.681501.4753038 1.024873.7094608 1.288738.8981843 2.594075 1.7587986 3.901161 2.625529l-2.268178-1.3962048c-.758389-.4674403-1.523768-.920901-2.28303-1.383099-.762758-.4569556-1.543864-.8903208-2.319727-1.323686-.781106-.4272491-1.57357-.833529-2.369529-1.2232082-.796833-.3896792-1.601529-.752273-2.412342-1.0947713-.403658-.1712492-.809938-.3320137-1.219713-.4875359-.405406-.1546484-.818676-.2944436-1.224956-.4403549-.408901-.1415427-.820423-.2691058-1.231945-.3888055-.411522-.1205733-.828287-.2175563-1.238935-.321529-.240273-.0585392-.482294-.103099-.722567-.1520273 1.112246 1.8968464 2.614171 3.627686 4.274239 5.1890239 2.105666 1.9754812 4.466457 3.7098157 6.898894 5.3296928 2.433311 1.6128874 4.961857 3.0894744 7.53671 4.4839318 2.568737 1.3857201 5.16456 2.7277543 7.778731 4.0348396l3.909023 1.9501433.981188.4709352.956724.4289966c.653542.2795904 1.309706.5513174 1.971112.8143071 2.651741 1.0388533 5.380369 1.9064574 8.118608 2.7932833 1.366498.4394812 2.738239.8903208 4.101242 1.3726143l1.998198.7155768c.650922.2184301 1.334171.4115222 2.016546.6220888l2.040137.6666484c.677133.2455154 1.357761.4892833 2.029652.7749898.665774.2892014 1.333297.5950034 1.971112.980314.317161.1887235.630826.3984164.917406.6456792.290075.2411467.567919.5417065.707714.9069215l-.097857.0445597c.038444.1013515.06116.2061979.039317.3197816l.016601.0043686h0l-.123194.3398771c0 0 6.419221-1.857529 7.652041-2.0969283 1.232819-.2411468 2.5766-.3250239 2.804641-.9243959.228915-.5984983.236778-1.4372697.236778-1.4442594l.018348-.0017475h0l-.082129.0078635z" fill="#e1eef4" opacity="0.5"/></svg>