<svg width="256px" height="279px" viewBox="0 0 256 279" xmlns="http://www.w3.org/2000/svg" preserveAspectRatio="xMidYMid"><title>Windi CSS</title><defs><linearGradient x1="16.6393504%" y1="36.1860418%" x2="137.274641%" y2="175.371416%" id="a"><stop stop-color="#54c8f1" offset="7.8225%"/><stop stop-color="#41a2ef" offset="57.2917%"/><stop stop-color="#3386ee" offset="100%"/></linearGradient><linearGradient x1="-22.0989921%" y1="-49.6214796%" x2="91.4510521%" y2="73.6945313%" id="b"><stop stop-color="#54c8f1" offset="7.8225%"/><stop stop-color="#41a2ef" offset="57.2917%"/><stop stop-color="#3386ee" offset="100%"/></linearGradient><linearGradient x1="8.69565217%" y1="37.4606971%" x2="71.7391304%" y2="80.2713244%" id="c"><stop stop-color="#54c8f1" offset="7.8225%"/><stop stop-color="#41a2ef" offset="57.2917%"/><stop stop-color="#3386ee" offset="100%"/></linearGradient><linearGradient x1="60.7436542%" y1="-308.636493%" x2="501.135147%" y2="225.788414%" id="d"><stop stop-color="#54c8f1" offset="7.8225%"/><stop stop-color="#41a2ef" offset="57.2917%"/><stop stop-color="#3386ee" offset="100%"/></linearGradient></defs><path d="M133.784487 48.9218783C133.784487 21.9447652 111.839443 0 84.8626087 0c-28.4304696 0-45.4272 21.3158957-45.4272 41.9328h27.9552c0-5.8006261 5.4233043-13.9776 17.472-13.9776 11.559513 0 20.9664003 9.4071652 20.9664003 20.9666783 0 11.559513-8.4377047 20.9664-29.7154786 20.9664H0v27.9552h76.1135304c35.9115126 0 57.6709566-21.9447653 57.6709566-48.9216zm0 0C133.784487 21.9447652 111.839443 0 84.8626087 0c-28.4304696 0-45.4272 21.3158957-45.4272 41.9328h27.9552c0-5.8006261 5.4233043-13.9776 17.472-13.9776 11.559513 0 20.9664003 9.4071652 20.9664003 20.9666783 0 11.559513-8.4377047 20.9664-29.7154786 20.9664H0v27.9552h76.1135304c35.9115126 0 57.6709566-21.9447653 57.6709566-48.9216z" fill="url(#a)"/><path d="M195.802991 229.338991c0 26.978226-21.945043 48.921879-48.921878 48.921879-28.43047 0-45.427478-21.314783-45.427478-41.9328h27.955478c0 5.800626 5.423304 13.978713 17.472 13.978713 11.559513 0 20.9664-9.408 20.9664-20.967792 0-11.559513-10.630122-20.9664-29.715478-20.9664H53.6706783v-27.9552h84.4613567c35.911513 0 57.670956 21.944766 57.670956 48.9216zm0 0c0 26.978226-21.945043 48.921879-48.921878 48.921879-28.43047 0-45.427478-21.314783-45.427478-41.9328h27.955478c0 5.800626 5.423304 13.978713 17.472 13.978713 11.559513 0 20.9664-9.408 20.9664-20.967792 0-11.559513-10.630122-20.9664-29.715478-20.9664H53.6706783v-27.9552h84.4613567c35.911513 0 57.670956 21.944766 57.670956 48.9216z" fill="url(#b)"/><path d="M203.130435 43.1304348c-30.834644 0-52.585739 23.4487652-52.585739 54.2834087h24.759652c0-15.326887 11.130435-26.4573218 27.826087-26.4573218 16.695652 0 25.043478 11.1304348 25.043478 26.4573218 0 15.3268865-10.842156 27.9551995-40.347826 27.9551995H0v27.955479h192c43.695304 0 64-28.084592 64-55.9106785 0-30.8346435-20.869565-54.2834087-52.869565-54.2834087z" fill="url(#c)"/><path fill="url(#d)" d="M36.6472348 180.417391H0v28.190052h36.6472348z"/></svg>