<svg width="256px" height="156px" viewBox="0 0 256 156" xmlns="http://www.w3.org/2000/svg" preserveAspectRatio="xMidYMid"><title>Wing</title><path d="M256 0v22.5478676l-1.156146.0422346c-3.647813.2762951-8.895063 2.1049004-15.33874 11.0474941-7.7447 10.7691913-14.182407 27.6643026-20.354807 44.4390961l-4.346783 11.8022446c-5.244247 14.086369-10.809245 28.007833-17.629141 39.155725-10.735175 17.545119-23.305972 26.076119-38.446641 26.076119-13.898982 0-23.949839-7.55312-30.735233-15.307128-6.771126 7.754008-16.821984 15.307128-30.7109662 15.307128-15.1506677 0-27.7216078-8.529571-38.4564972-26.076119-6.8201336-11.139797-12.3854692-25.066558-17.6185794-39.1212723L34.373236 71.4028206c-5.4373433-14.5039907-11.1688657-28.4336037-17.8890639-37.7747952C9.33393122 23.7015239 3.65240228 22.5478676 0 22.5478676V.00976513813h61.4339146c13.2567628 0 24.9387475 6.87293205187 34.7073997 20.41520906187 8.0623377 11.2060658 14.3560787 26.202844 20.1724227 41.6202274l4.29292 11.5892431c2.409344 6.5652931 4.854064 13.2271579 7.39084 19.5910173 1.692093-4.2380608 3.341597-8.6075078 4.965838-12.9909746l5.270983-14.3092936c6.230795-16.7716955 12.889044-33.360315 21.623368-45.5002196C169.627195 6.86324102 181.308037 0 194.565943 0H256zM61.4242008 22.5478676H36.1761831c8.6582284 12.8631193 15.258628 30.0892249 21.5418517 47.1458025l4.4586012 12.0967467c9.4290912 25.2968402 20.2279989 50.7727822 35.095193 50.7727822l1.1587136-.042734c4.0255914-.306383 9.6729114-2.466971 16.6299644-12.927614-4.348174-8.702563-8.218007-18.446663-11.902987-28.2916864l-7.3555806-19.9103677c-5.4321371-14.4855544-11.1636813-28.42158-17.8839955-37.7627715-7.1597833-9.9265015-12.8413551-11.0801578-16.4937431-11.0801578zm158.3790452-.0097138h-25.247303c-3.652674 0-9.333817 1.1535135-16.493457 11.0897287-7.229637 10.0513702-13.31855 25.438988-19.11654 41.0844308l-6.113791 16.5667631c-3.690592 9.8572636-7.554666 19.6013906-11.902947 28.3040606 7.65333 11.516279 13.720168 12.980062 17.788535 12.980062 16.474887 0 27.952882-31.272286 38.079516-58.8706144l2.909071-7.8938097c5.86836-15.7886481 12.113644-31.387095 20.096916-43.2606211z" fill="#68d2c2"/></svg>