<svg width="512px" height="202px" viewBox="0 0 512 202" xmlns="http://www.w3.org/2000/svg" preserveAspectRatio="xMidYMid"><path d="M0 .230966635c0 0 20.2953443-2.559999995 33.8255738 9.425836065 8.3514754 7.394623 10.7855737 19.1790164 10.7855737 19.1790164L72.2423607 136.414573l22.9812459-88.0472129c2.2326557-9.3586885 6.2699014-20.9332459 12.6489184-28.7559344 8.141639-9.96301644 24.668327-10.59252464 26.43095-10.59252464 1.762623 0 18.280918.6295082 26.414164 10.59252464 6.379017 7.8226885 10.416263 19.3888524 12.657312 28.7559344l22.981246 88.0472129 27.622819-107.5787539c0 0 2.442492-11.7843934 10.793968-19.1790164 13.530229-11.98583606 33.81718-9.425836065 33.81718-9.425836065L215.677902 201.279098c0 0-17.449968 1.26741-26.187541-3.206295-11.473836-5.87541-16.921181-10.407869-23.870951-37.770492-3.512427-13.995138-6.981733-28.001062-10.407869-42.017574l-1.300984-5.279475c-3.667934-14.957115-7.327475-29.8554757-9.904262-40.2213773l-1.259016-5.0360656c-1.158295-4.5660328-1.955672-7.6380328-2.241049-8.5613115-.780591-2.5264262-1.712263-8.5445246-6.211148-8.5445246-4.398164 0-5.413771 6.0264918-6.211148 8.5445246-.29377.9232787-1.091147 3.9868853-2.241049 8.5613115l-1.259016 5.0360656c-2.67995 10.7717361-5.337879 21.5489389-7.973771 32.3315413l-1.29259 5.254295c-4.064562 16.658872-8.177366 33.305936-12.33836 49.940983-6.949771 27.35423-12.4055087 31.895082-23.8793447 37.762099-8.7375738 4.473705-26.187541 3.206295-26.187541 3.206295L0 .230966635h0zM318.934033 33.5781142v7.2603278h.016787v121.360787c-.092328 24.903344-2.501246 30.434623-12.976263 36.167344-8.141639 4.456918-20.597508 2.769836-20.597508 2.769836V65.1878191c0-6.8238689 2.115148-11.2975738 9.912656-15.3096394 4.658361-2.4005245 8.99777-4.2386885 13.513443-6.9581639 6.16918-3.6931147 9.299934-8.0828852 9.988196-9.1236721l.142689-.2182295zM335.737705.902442045c0 0 27.337443-4.843016395 40.876065 7.973770495 7.612853 7.20996716 16.031476 19.49796716 17.936787 22.33495086l.360918.5371803.041968.0671475L418.79082 67.537983c1.149901 1.8549508 2.660721 3.8777705 5.078032 3.8777705 2.408918 0 3.928132-2.0144262 5.086427-3.8777705l23.828983-35.7224918.041968-.0671475.360918-.5371803c1.905311-2.8369837 10.323934-15.1249837 17.94518-22.34334431C484.662557-3.94057435 512 .894048602 512 .894048602L447.227803 101.07818l64.595935 99.856787c0 0-27.966951 3.743475-41.505574-9.073312-8.662033-8.192-17.533902-21.52918-17.533902-21.52918l-23.837377-35.714099c-1.149901-1.863344-2.669115-3.886163-5.078033-3.886163-2.417311 0-3.928131 2.014426-5.086426 3.886163l-23.828983 35.714099c0 0-8.38505 13.33718-17.038689 21.52918-13.538623 12.816787-42.00918 9.073312-42.00918 9.073312l64.595934-99.856787L335.737705.902442045h0zm-16.87082-.89809836071h.083935c0 13.34557381571-1.259017 21.27737701571-9.316722 27.43816391571-3.740553 2.8747941-7.865461 5.2113001-12.254426 6.9413771-4.450395 1.7361988-8.525294 4.3122188-12.002623 7.5876721 0-24.3074098 3.550426-33.11213115 13.093771-38.32445902C304.404984.40722893 314.14977.0379174548 317.649836.00434368429h1.217049 0z"/></svg>