<svg width="256px" height="376px" viewBox="0 0 256 376" xmlns="http://www.w3.org/2000/svg" preserveAspectRatio="xMidYMid"><title>wmr</title><path d="M242.805843 269.472429c-12.085004 15.798274-43.614037 10.329641-43.614037 10.329641l-.270056-106.604591-.067514-21.536962c0 0 17.958721.472598 31.596547 6.143773 6.548857 2.70056 12.152519 6.616371 14.245452 12.287546 7.291511 19.511543 8.034165 86.417907-1.890392 99.380593z" fill="#fff"/><g style="fill:#371a45"><path d="M250.164868 214.516041c.405084 23.359841-1.755364 47.664877-7.359025 54.956388-12.085004 15.798274-43.614037 10.329641-43.614037 10.329641l-.33757-128.141553.945196.067514.270056 99.920705c0 0 31.529033 5.468633 43.614037-10.329641 3.308185-4.320895 5.401119-14.447993 6.481343-26.803054z" fill-opacity="0.35"/><path d="M198.764881 154.92197l.17871-6.522905.575945.02157.877428.043004.663815.038378c.410912.025121.833314.053315 1.266504.084737l1.331236.104101c.908132.07606 1.856615.165643 2.83984.26998 5.62744.597164 11.259726 1.549538 16.546841 2.942984 2.06449.544106 4.027455 1.14052 5.880689 1.793026l.999923.361499c9.065299 3.365146 15.349984 8.14983 17.827954 14.827312.165801.445205.328552.913672.488178 1.404411l.237086.752689c.234724.769146.462332 1.587291.68257 2.451097l.217771.878902.212802.9086c.035049.153868.069889.308941.104519.465206l.20524.951757c.033782.160967.067352.323094.100707.486366l.197551.993243.192356 1.019975.187102 1.045962.181793 1.071209c.029853.180598.059483.362216.088887.54484l.173723 1.107687c.028501.186585.056775.374144.084821.562662l.165525 1.142497.159989 1.164774.154397 1.186312.148748 1.207105.143042 1.227159.137281 1.246468.131462 1.265038.125587 1.282864.119655 1.299948.113667 1.316291.107622 1.331892.101521 1.34675.095362 1.360867.089149 1.374241.082877 1.386874.076549 1.398765.102837 2.118819.088281 2.141399.073535 2.161476.040736 1.4509.034041 1.457968.02729 1.464294.020481 1.469877.013616 1.47472.007428 2.219534-.008335 2.226254-.022459 2.119845-.022607 1.397654-.04536 2.07229-.037871 1.364918-.043975 1.351244-.050077 1.337239-.056178 1.322905-.062278 1.308238-.068376 1.293241-.074474 1.277914-.080571 1.262254-.132283 1.863299-.095806 1.22166-.101898 1.204844-.107989 1.187696-.114079 1.170217-.120168 1.152409-.126254 1.134268-.132341 1.115797-.138426 1.096995-.14451 1.077863-.150592 1.058399c-.025605.174759-.051464.348694-.077577.521797l-.159713 1.028583-.165794 1.008292-.171872.987671-.177949.966718c-.030164.159355-.060582.317824-.091253.475399l-.187062.934669-.193137.912889c-.032696.150315-.065644.299709-.098846.448174l-.202246.8796c-.068427.28945-.137866.575133-.208317.856993l-.214387.834055-.220456.810786c-.111745.399521-.225765.790193-.34206 1.171828l-.235623.751168c-.159104.492673-.32225.969062-.489438 1.428725l-.253813.676895-.259875.651477c-.744895 1.809527-1.562762 3.308981-2.453477 4.464498-4.742791 6.200072-12.191647 9.854659-21.509174 11.509529-7.06717 1.255187-14.522988 1.266809-21.512282.540595l-.667599-.071849-1.186308-.141143-.515664-.067654-.86873-.125373-.503278-.082109 1.115156-6.42936.663859.102735.539057.075447.78831.101226c.137163.016751.277173.033421.419964.049975l.889611.097694c6.434945.668614 13.318303.657885 19.696805-.47499 7.854754-1.395069 13.86965-4.346121 17.474781-9.058937 8.552296-11.094871 9.026913-76.064637 1.483129-96.321097-2.11493-5.699182-9.363488-10.075177-20.255186-12.945739-4.93265-1.300024-10.250113-2.199164-15.572422-2.763949l-.693327-.071635-1.346576-.127888c-.219795-.019641-.437212-.038458-.652161-.056468l-1.25935-.098524-1.195762-.08003-.901716-.050662-.996004-.042578z"/></g><path d="M247.869393 224.30557l-21.469449 1.620336c-1.912426.148677-3.488698 1.559025-3.848298 3.443213-1.282766 6.953941-3.308185 23.089785 3.443213 28.42339 6.043936 4.30176 14.212723 4.053385 19.984142-.607626 5.941231-5.06355 6.548857-20.861823 6.413828-28.693445 0-2.430504-2.092933-4.320896-4.523436-4.185868h0z" fill="#fff"/><g style="fill:#371a45"><path d="M222.551646 229.369119c-1.282766 6.953941-3.308185 23.089785 3.443213 28.42339 6.043936 4.30176 14.212723 4.053385 19.984142-.607626 3.645755-3.105644 5.266091-10.262126 6.008745-17.148554-.744899 3.031795-2.255972 5.821469-4.38841 8.101679-10.802238 10.532182-18.903917-1.890391-18.903917-1.890391 0 0-1.417794 3.038129-2.498017 3.173157-4.658465.742654-3.71327-13.907882-3.03813-21.469448-.270055.405083-.472598.877681-.607626 1.417793h0z" fill-opacity="0.35"/><path d="M247.688412 221.047917l-21.541355 1.625128c-3.379405.262724-6.164802 2.75492-6.800243 6.084428-.189284 1.025778-.365742 2.085097-.5266 3.178216l-.100982.705976-.143515 1.074306-.130233 1.061234-.116627 1.047807c-.018286.173496-.035992.346418-.05311.518758l-.095612 1.027005c-.014742.169984-.028885.339373-.04242.508157l-.073866 1.005404c-.011078.166341-.021536.332062-.031366.497158l-.051393.983008c-.40837 9.103538 1.193808 16.198198 5.99124 19.98817l.130606.097972c7.236094 5.150278 17.016164 4.852911 23.925987-.727479 4.026954-3.431056 6.194954-9.907557 7.11063-18.121579l.105906-1.014393c.016622-.170484.032732-.341668.048336-.513543l.087593-1.039445c.054402-.698368.10087-1.407424.139736-2.126459l.052638-1.085946.041481-1.100379c.005997-.184569.01154-.369718.016634-.555435l.02521-1.121028c.006633-.375888.01151-.75396.014671-1.134127l.004382-1.146692c0-.384266-.002128-.770537-.005662-1.158724l-.015457-1.170222c4.85e-4-4.253841-3.671315-7.625903-7.966609-7.387276zm.426522 6.511077c.533691-.029007 1.015219.413212 1.015219.932444l.013519 1.071445.003553 1.063363c0 .176501-8.95e-4.352626-.001968.528354l-.011439 1.049459-.021462 1.039002-.031507 1.027595-.041577 1.015237-.051667 1.001931c-.018907.331653-.0395.660931-.061782.987673l-.071918.972467c-.038497.482273-.080804.958487-.126934 1.428108l-.097359.930292c-.051233.460592-.106296.914235-.165203 1.360394l-.122943.88218c-.042693.290629-.087097.577773-.133217.861274l-.143513.839416c-.867232 4.830998-2.261151 8.497882-4.202077 10.15208l-.260588.204946c-4.465298 3.42073-10.709499 3.609642-15.438863.419286l-.20497-.142178.05915.048584c-2.717499-2.146825-3.800938-7.751457-3.466035-15.050256l.048083-.902078c.00919-.151717.018967-.304111.02933-.457164l.069184-.926131.083141-.941266.097011-.955683.110792-.969379.124486-.982357c.021884-.164767.044334-.330045.06735-.495819l.097219-.679656c.147189-1.000048.310694-1.981607.482241-2.91157.080046-.419089.447194-.747589.885295-.781657l21.469449-1.620336z"/><path d="M230.653325 233.554986c.270056 2.70056.270056 5.266092.405084 7.831623.108253 2.48342.470211 4.949258 1.080224 7.359025.607626 2.36299 1.620335 4.523437 3.038129 6.143774 1.417794 1.620335 3.375699 2.700559 5.536148 3.173156 1.211825.279653 1.967501 1.488734 1.687849 2.700561-.279652 1.211825-1.488734 1.967502-2.70056 1.687849l-.135027-.067514c-1.443617-.46272-2.826334-1.097408-4.118353-1.890392-1.287929-.818339-2.410216-1.871915-3.308186-3.105644-1.709854-2.335527-2.843404-5.042167-3.308185-7.899136-.540113-2.70056-.67514-5.401119-.67514-8.034165 0-2.633045.202541-5.266091.135027-7.764109 0-.67514.472599-1.215251 1.147739-1.215251.675139-.067515 1.147737.405083 1.215251 1.080223h0zm4.523437-64.273317c-3.994336.294151-7.964211.858053-11.882462 1.687849-3.93011.712777-7.809238 1.682559-11.612406 2.903101h-.067515c-1.215251.337571-2.430503-.337569-2.835587-1.485307-.337569-1.215252.337571-2.430503 1.485308-2.835588l.202542-.067514c2.02542-.405084 4.05084-.742653 6.143773-1.01271l6.143773-.67514c2.025419-.202541 4.118354-.270055 6.143773-.337569l6.143773-.067514c.540112 0 .945197.472597.945197 1.012709.135027.472598-.270057.877683-.810169.877683h0z"/><path d="M230.518297 157.736776c-9.426466 7.144264-20.160575 12.373701-31.596547 15.393189l-.067514-21.536962c0 .067514 18.026235.540112 31.664061 6.143773h0z" fill-opacity="0.35"/></g><path d="M156.995562 348.936395c-9.181903 21.266907-48.475044 17.75618-58.399601 8.97936-10.1946125-9.046874 8.236707-20.321711 8.236707-20.321711-8.169193-13.907881-8.439249-40.508393-7.561567-57.589432.4725979-9.384445 1.282766-15.865788 1.282766-15.865788l57.927003-31.394005c-.067514 11.814948-2.025419 21.874532-3.780783 29.976212-3.780784 17.148553-3.510728 30.381295-2.02542 41.183533 2.835587 20.119169 10.059584 31.799089 4.320895 45.031831h0z" fill="#fff"/><g style="fill:#371a45"><path d="M156.995562 348.936395c-9.181903 21.266907-48.475044 17.75618-58.399601 8.97936-3.1731575-2.835587-3.5782414-5.941231-2.5655316-8.776818 13.4352836 7.899137 47.5298486 13.907882 54.2137336-6.211287 3.240672-9.857042-3.105644-16.675956-6.548857-29.976211-1.49141-5.592944-5.875733-9.951477-11.477378-11.409864-11.882462-3.03813-26.532998-9.519473-32.5417431-20.79431l-.33757-.742653c.472598-9.384445 1.2827661-15.865788 1.2827661-15.865788l51.850744-28.08582 6.076259-3.308185c-.067514 11.814948-2.025419 21.874532-3.780784 29.976212l-.742653 3.713268-.607626 3.578242-.270056 1.755363-.67514 5.06355-.135028 1.620335-.270056 3.03813c-.202542 3.105644-.270056 6.076259-.270056 8.844333v.877682l.067514 1.822878.135028 2.430503.135028 1.68785.067514 1.080224.067514.945196.067514.877681.472598 3.71327c2.700559 20.254197 9.924556 31.934117 4.185867 45.166859h0zm-3.105643-82.434582-.607626 3.578242.607626-3.578242z" fill-opacity="0.35"/><path d="M155.083218 232.861203l6.525247.037287c-.053347 9.335694-1.090238 17.337839-3.226395 27.681619l-.41344 1.967797-.216434 1.006162c-4.450454 20.320936-3.771721 34.508611.510966 52.677973l1.893671 7.775701.255113 1.07939.234048 1.017202.214495.963396c.034203.156548.067654.311204.100385.464141l.187992.898408.172209.865563.157936.8411c.025217.138611.049903.276552.074088.413997.851712 4.840382 1.021309 8.880696.387965 12.835301-.376524 2.35102-1.039576 4.638916-2.017597 6.91093-4.75534 11.014207-16.669799 16.87711-31.734372 17.720393-12.695094.710645-25.975282-2.419628-31.8342865-7.601116-2.0984106-1.87458-3.4167583-4.013901-3.9141644-6.354473-1.0744983-5.05611 1.6043191-9.842822 6.4484568-14.395133.9604887-.902625 1.9638551-1.750554 2.9794791-2.537626l.657872-.501013-.217472-.458257c-3.4569506-7.432353-5.4490523-17.489625-6.2736088-29.61455l-.0510485-.776734c-.6823029-10.751797-.4168082-22.220151.4388006-33.30156l.1214139-1.518355.1244178-1.454432.1265858-1.387847.1279177-1.3186.1806013-1.730669.144295-1.261394 6.4759962.801068-.169801 1.504339-.075897.722873-.12465 1.246863-.123898 1.316983-.122312 1.384402-.119898 1.449119c-.019735.246763-.039335.49611-.058783.747985-.833995 10.801484-1.09281 21.981294-.432536 32.385961l.100197 1.472768c.123921 1.704858.272459 3.362674.445967 4.970924l.154844 1.366301c1.126831 9.478313 3.156196 17.146217 6.164166 22.45806l.21652.375404 1.620867 2.758923-2.810314 1.726556-.310315.20168-.43862.295355-.476134.332407c-.08224.058412-.165861.11831-.250774.179665-1.215813.878505-2.431645 1.862651-3.555214 2.918532-3.336203 3.135219-4.9975373 6.103815-4.5343093 8.28356.1954475.919689.7729514 1.856821 1.8663963 2.833686 4.342353 3.840178 15.994784 6.586772 27.134538 5.963192 12.854081-.719545 22.517374-5.474687 26.106841-13.788521.762847-1.772152 1.275173-3.539962 1.566588-5.359558.504563-3.150497.364309-6.491769-.371343-10.672565l-.140012-.769103-.153606-.792882-.168645-.824483-.18513-.863902-.203062-.911141-.222439-.9662-.520464-2.171415-1.41144-5.771856c-4.606656-19.177642-5.473493-34.283738-.954436-55.478004l.418005-1.938558.398807-1.897465c1.995488-9.657226 2.985798-17.115665 3.091674-25.610163l.007489-.825391z"/><path d="M100.94183 309.47035c5.555471 3.123783 12.970229 5.223235 21.775244 6.403403 9.763083 1.308582 20.205103 1.396086 29.8751.757161l1.028895-.071362.963211-.073336.895182-.07448 1.101732-.101622.481023-.049486.541831 4.859-1.005289.100262-1.150075.101226-.963467.076739-1.570708.111538c-9.966902.658542-20.712529.568494-30.846932-.789857-9.091368-1.218549-16.874981-3.382569-22.9723583-6.684274l-.5496512-.303295 2.3962625-4.261617z"/></g><path d="M220.256171 233.487472c-.202543 8.641791-1.282766 16.000816-3.240672 21.671991l-.202542.540112c-4.997553 14.440444-15.82268 26.122765-29.841183 32.204173-13.20555 5.866691-27.645073 8.416205-42.061216 7.426539-10.802238-.742654-36.727611-6.95394-45.3018871-23.02227-5.7386891-10.802238-4.3884094-41.79116 2.6330451-88.780897 2.768074-18.633861 6.481343-39.833253 10.937267-63.260608l83.919889 4.523437c6.076259 15.865788 10.869752 31.258977 14.515507 45.639457 5.654646 20.545088 8.560558 41.749171 8.641792 63.058066h0z" fill="#fff"/><g style="fill:#371a45"><g style="fill-opacity:0.35"><path d="M216.812957 255.699575c-4.990257 14.444819-15.817764 26.129708-29.841183 32.204173-5.401119 2.430504-21.266907 8.844333-42.061216 7.426539-10.802238-.742654-36.727611-6.95394-45.3018871-23.02227-2.7005596-4.996035-3.7807835-14.312967-3.5782415-27.613222.2025419 7.899136 1.3502798 13.570312 3.5782415 16.946011 8.5742761 13.165228 34.5671631 18.296292 45.3018871 18.903918 20.794309 1.215252 36.660097-4.118354 42.061216-6.07626 13.181638-4.310823 23.986366-13.893297 29.841183-26.465484 2.160448-5.063549 3.375699-11.747434 3.443214-19.781599.135028 11.274836-1.01271 20.591767-3.443214 27.478194h0z"/><path d="M98.325905 212.895706c-1.3502797 12.287546-2.1604476 22.954756-2.2954756 31.799089-.202542-8.236707.607626-18.971432 2.2954756-31.799089z"/></g><path d="M200.214351 123.558406c21.177406 55.452221 28.557015 108.068639 19.68119 133.142642-5.243161 15.119443-16.488307 27.39714-31.037733 33.935512l-.547147.242493c-11.85847 5.336313-25.998797 8.757252-42.753108 7.761794l-1.013109-.065271-10.404868-1.642873 1.01771-6.445502 10.112188 1.596159.698228.044961c15.269951.902308 28.224761-2.150989 39.106009-6.950679l.591467-.26352c13.178861-5.759728 23.352891-16.762413 28.072113-30.370792 8.159335-23.050122 1.197448-73.500453-19.002695-127.033726l-.616176-1.623139 6.095931-2.328059zm-90.240398-3.970015 6.41006 1.221214-.963685 5.089086c-.474966 2.523833-.939613 5.016581-1.393926 7.47816l-.894845 4.881575c-.734214 4.033304-1.439697 7.979872-2.11638 11.839313l-.79819 4.589483c-.261453 1.515871-.518293 3.017776-.770516 4.505691l-.742814 4.421748-.715087 4.337656c-1.051821 6.443341-2.009973 12.602364-2.874054 18.474793l-.562113 3.872469c-6.3039338 44.044548-7.0733786 71.213953-2.127732 80.481872.990896 1.871691 2.364874 3.718436 4.12178 5.606286 6.108863 6.325106 16.12598 11.089961 27.258165 13.789694l.643458.153459-1.489677 6.353038c-12.499467-2.930909-23.85974-8.260647-31.146708-15.806348-2.1623122-2.322483-3.870342-4.618222-5.1490069-7.033516-6.7611645-12.670082-4.7250476-49.276791 5.4450679-110.429577l.758662-4.518409.787636-4.606075c.802105-4.649925 1.647586-9.431427 2.536182-14.344747l.902959-4.957267c.305771-1.667074.616323-3.348804.931646-5.045198l.960273-5.133181c.324857-1.725731.654475-3.466134.988845-5.221219z"/></g><path d="M153.822405 280.274667c0 0-8.776819 43.951608 9.451958 65.286029 0 0-18.363805 11.274836-8.236707 20.32171 9.924557 8.776819 49.217699 12.287546 58.399601-8.97936 8.77682-20.389225-13.097714-37.132695-2.362989-86.147851 1.755363-8.101679 3.713269-18.161264 3.780783-29.976212l-61.032646 39.495684h0z" fill="#fff"/><g style="fill:#371a45"><path d="M211.141782 270.822709c-10.734725 49.015156 11.139809 65.82614 2.362989 86.147851-9.181902 21.266906-48.475044 17.756179-58.3996 8.979361-2.633046-2.36299-3.3757-4.861008-2.970616-7.291512 13.367769 7.021455 46.787195 8.236707 55.15893-11.139808 3.03813-7.021455-15.258162-20.659281-15.393191-35.849928.24863-12.307283 2.6951-24.471042 7.223997-35.917443 1.399402-3.828046.896327-8.093314-1.355295-11.490733-2.251623-3.39742-5.983799-5.522617-10.054569-5.725334h-.202541c-4.928522-.270056-10.262127-.945196-15.933302-2.160448 0 0-9.249416-11.747434 1.080224-18.296291 0 0 31.394005 4.320896 47.664877-4.523438-.202543 8.641791-1.282766 16.000817-3.240672 21.671991l-3.173157.877683c-.810168 5.401119-1.822878 10.397153-2.768074 14.718049h0z" fill-opacity="0.35"/><path d="M154.565059 280.544724c.135028 5.671174-.135028 11.274836-.337571 16.810983-.135027 5.536147-.202541 11.072294.270057 16.608441.447113 5.464555 1.442319 10.870336 2.970615 16.135844 1.528036 5.157805 4.07645 9.956169 7.494053 14.110423.810168.945197.67514 2.36299-.270056 3.173158l-.202542.202543c-.810167.472597-1.68785 1.147737-2.498018 1.755363-2.374587 1.842776-4.486959 4.000575-6.278801 6.413829-1.007434 1.362701-1.508751 3.03376-1.417794 4.725979.304735 1.593642 1.196112 3.015029 2.498018 3.983325 1.35028 1.147738 3.173158 2.092934 5.06355 2.835589 1.890391.742653 3.848297 1.350279 5.873717 1.822877 8.187755 1.865936 16.677355 1.980971 24.912662.33757 6.041767-.968941 11.582238-3.941298 15.73076-8.439249 1.259901-1.490034 2.305239-3.148939 3.105643-4.928521 1.551922-3.709866 2.177554-7.741717 1.822878-11.747434-.270056-4.118354-1.282766-8.236707-2.295476-12.422574-1.01271-4.185868-2.092934-8.506763-2.970616-12.827659-2.701266-13.093979-2.975872-26.572603-.810167-39.765739.67514-4.38841 1.620335-8.77682 2.498018-12.962687.877681-4.25338 1.350279-8.506762 1.957905-12.692629.607625-4.253382 1.147737-8.439249 2.430503-12.760145.135028-.405083.540112-.67514.945197-.540111.270055.067514.472597.270055.540112.540111 1.07575 4.347395 1.35029 8.854433.810167 13.300257-.405084 4.455922-1.417793 8.776818-2.295476 13.030199-2.061231 8.345824-3.327148 16.868157-3.780782 25.452774-.37316 8.53525.307108 17.083955 2.025419 25.452775.810168 4.185867 1.890391 8.371735 2.903101 12.625116 1.012711 4.253382 2.092934 8.574276 2.36299 13.232742.33757 4.590951-.33757 9.451959-2.160448 13.840367-1.869098 4.425975-5.050151 8.172548-9.114389 10.734725-5.943575 3.534618-12.618421 5.659482-19.511542 6.211287-9.050011.764369-18.159549-.385826-26.73554-3.375699-2.257832-.876813-4.373639-2.082594-6.278801-3.578242l-.742655-.67514-.67514-.67514c-.405083-.540111-.877681-1.012709-1.215251-1.620335-1.573299-2.401033-1.923524-5.402956-.945196-8.101679.402994-1.207398.946856-2.363103 1.620336-3.443214 1.35028-2.092933 2.970615-3.780783 4.658466-5.401119l2.633045-2.227961 2.835587-2.02542-.540112 3.3757c-3.802385-4.588479-6.648774-9.891027-8.371735-15.595732-.945195-2.768074-1.552821-5.671176-2.160447-8.506763l-.742654-4.320895c-1.477356-9.994075-1.340589-20.160524.405084-30.11124.549804-2.8303 1.34034-5.60847 2.362989-8.304221.135028-.405083.607626-.607626 1.012711-.405083.405083.202542.607626.472597.607626.742654h0z"/><path d="M153.505568 315.056965c4.228258 1.972431 8.857407 3.377268 13.827615 4.258624 10.836743 1.921658 22.511837 1.294763 33.763632-.924787 2.022576-.398977 3.879946-.822835 5.543311-1.248664l.98425-.258202.682374-.187162.850085-.245125.300148-.091511 1.479205 4.65998-.255001.078588-.716002.209899-.692933.193963-.770204.207168c-1.912835.504704-4.079098 1.008278-6.459031 1.477748-11.795884 2.326878-24.045322 2.984612-35.563493.942118-5.074458-.899843-9.847815-2.31288-14.265039-4.287582l-.775803-.354317 2.066886-4.430738z"/><path d="M96.7055694 241.116554c1.6007252-10.677703 2.1434688-21.487348 1.6203356-32.271687-.2500899 5.877062-.813507 11.736599-1.6878496 17.553636-1.1270421 7.280403-1.3763757 14.669746-.742654 22.009561.202542-2.498017.472598-4.928521.810168-7.29151h0z" fill-opacity="0.35"/></g><path d="M106.765154 261.370751l54.551303 2.835587c6.481344.33757 12.01749-4.658465 12.355061-11.139808l1.485307-29.031016c.268489-6.489114-4.722835-11.991597-11.207322-12.35506l-54.551304-2.835587c-3.116674-.165389-6.171051.916268-8.489025 3.006244-2.3179748 2.089978-3.7089857 5.016459-3.8660347 8.133564l-1.2152519 23.022271-.3375699 6.008744c-.1945323 6.487229 4.7969165 11.9569 11.2748365 12.355061h0z" fill="#fff"/><g style="fill:#371a45"><path d="M106.765154 261.370751l54.551303 2.835587c6.481344.33757 12.01749-4.658465 12.355061-11.139808l1.485307-29.031016c.270056-5.671175-3.510727-10.599696-8.844332-12.017491l-5.266091 3.105644c-3.848298 23.157298-11.072295 34.432136-40.035796 33.419425-12.490088-.472598-20.321711-2.768073-25.1152046-5.603661l-.3375699 6.008746c-.2695786 6.501584 4.7123835 12.023759 11.2073225 12.422574h0z" fill-opacity="0.35"/><path d="M93.9199071 219.747459l-1.4854623 29.034008c-.431093 8.276958 5.9468091 15.348691 14.2285222 15.780029l54.551638 2.835606c8.230649.433192 15.352334-5.965615 15.782687-14.228385l1.485462-29.034007c.431093-8.276959-5.946809-15.348692-14.228522-15.78003l-54.551304-2.835587c-8.27995-.431248-15.3516817 5.946653-15.7830209 14.228366zm15.4436189-7.711846 54.551639 2.835605c4.683846.24395 8.29464 4.24755 8.050914 8.927081l-1.485462 29.034007c-.242511 4.656185-4.289441 8.292336-8.925163 8.048351l-54.55342-2.835699c-4.683846-.24395-8.2946399-4.24755-8.0509143-8.92708l1.4854623-29.034008c.243813-4.681189 4.247413-8.291983 8.926944-8.048257z"/></g><path d="M104.604706 261.03318c.67514.202542 1.417794.270056 2.160448.337571l54.551303 2.835587c6.477621.306637 11.991751-4.665119 12.355061-11.139808l.67514-12.895173.202541-4.253381.607626-11.882462c.337571-6.481343-4.658465-12.017491-11.139808-12.35506l-11.814948-.607626c5.401119 1.282766 9.249416 6.278801 8.979361 12.01749l-.810168 15.663246-.67514 13.367769c-.33757 6.481343-5.873717 11.477379-12.35506 11.139809l-42.736356-2.227962h0z" fill="#fff"/><g style="fill:#371a45"><path d="M104.604706 261.03318c.67514.202542 1.417794.270056 2.160448.337571l54.551303 2.835587c6.481344.33757 12.01749-4.658465 12.355061-11.139808l.877681-17.148554c-1.552821 2.970615-4.185867 6.548857-8.169192 6.751399-2.160448.135028-4.253382-1.552821-6.008745-3.848297l-.67514 13.36777c-.33757 6.481342-5.873717 11.477378-12.35506 11.139808l-42.736356-2.295476h0z" fill-opacity="0.35"/><path d="M164.321746 208.35468l-11.817076-.607736-.921488 6.432747c3.925118.932216 6.668065 4.570229 6.474206 8.689745l-1.484653 29.017674c-.243813 4.681189-4.247413 8.291983-8.926944 8.048258l-69.888075-3.637707 25.976982 7.793083c.390313.117094.732632.198584 1.119519.264338l.40517.061244.455449.055169.822443.081018.295389.013399-.169366-.004398 54.551303 2.835588c8.279616.431229 15.351347-5.946672 15.782687-14.228385l1.55258-29.026451c.431489-8.284515-5.946413-15.356248-14.228126-15.787586zm-1.788289 6.491568-.031564-.05207 1.482578.077132c4.682054.243858 8.292848 4.247458 8.049122 8.926989l-1.552581 29.026451-.01703.254664c-.372987 4.564109-4.315861 8.040444-8.91031 7.80115l-1.70797-.089506.067067-.083073c1.845256-2.352006 3.009497-5.2753 3.176641-8.484464l1.485462-29.034007c.142112-3.019651-.611587-5.89482-2.041415-8.343266z"/></g><path d="M138.969327 236.66063c-.067514 1.080224 1.080224 9.789529 1.080224 9.789529l6.143773.270055c4.185867.202543 7.831623-3.983325 8.101678-9.384444.270057-5.401119-2.970615-9.924556-7.156483-10.127098l-6.143773-.270057c0 0-1.957905 8.034165-2.025419 9.722015z" fill="#22a7f0"/><g style="fill:#371a45"><path d="M138.969327 236.66063c-.067514 1.080224 1.080224 9.789529 1.080224 9.789529l6.143773.270055c4.185867.202543 7.831623-3.983325 8.101678-9.384444.270057-5.401119-2.970615-9.924556-7.156483-10.127098l-6.143773-.270057c0 0-1.957905 8.034165-2.025419 9.722015z" fill-opacity="0.35"/><path d="M142.750883 224.625291l-.217232.001721c-2.017462.063373-3.743631 1.442836-4.325182 3.397506l-.068008.256204-.656451 2.969847-.266549 1.248434-.238409 1.163743-.188836.988466-.108947.630694-.057012.369473-.04448.329739-.031919.290915c-.004271.0453-.008017.089021-.011239.131181l-.019247.29-.003333.194188.009073.316888.026209.405165.075462.825831.269823 2.439434.440185 3.876902c.004317.041596.008609.083211.012903.125074.27668 2.296425 2.128061 4.028363 4.39418 4.14956l4.26766.203263c5.690334.275341 10.328375-5.082396 10.659462-11.70416.330984-6.619659-3.78196-12.415171-9.479844-12.690874l-4.438269-.209194zm.120083 4.897961 4.083763.194725c2.703556.130818 5.038374 3.420788 4.831251 7.563231l-.016958.269271c-.30524 4.014795-2.882972 6.923392-5.525065 6.795548l-4.05688-.193639-.142044-1.297772-.339289-2.948692-.171499-1.563087-.081128-.799233-.049148-.603085-1.23e-4-.058569.006129-.083853.037273-.32297.064729-.426321.09106-.524828.160431-.844636.259501-1.27247.472705-2.188156.375292-1.695464z"/></g><path d="M132.825554 236.458088c.270056-5.401119 3.848298-9.6545 8.101679-9.451959 4.185867.202543 7.426538 4.725979 7.156483 10.127099-.270057 5.401119-3.848298 9.586986-8.101679 9.451959-4.185868-.202542-7.426539-4.72598-7.156483-10.127099z" fill="#22a7f0"/><g style="fill:#371a45"><path d="M141.043741 224.559445c-5.739053-.273288-10.331552 5.115598-10.664588 11.776324-.331107 6.622141 3.783618 12.420163 9.484501 12.696012 5.769851.183508 10.334995-5.146891 10.666462-11.776232.331107-6.622142-3.783618-12.420164-9.486375-12.696104zm-.233017 4.893369c2.700552.130673 5.033589 3.418133 4.826591 7.558094-.20906 4.181186-2.806492 7.214025-5.577557 7.126055-2.661765-.129133-4.994802-3.416593-4.787803-7.556554.209977-4.199554 2.815805-7.25726 5.538769-7.127595z"/><path d="M114.11302 209.063483l4.883324.237906-1.217614 24.983607 9.018864 6.327016-.575231 21.499262-4.887367-.130766.503953-18.874528-9.074278-6.365845z"/></g><path d="M222.61916 223.495402c0 0 5.063549 4.050839 5.266091 10.194612.270057 7.156483-4.253381 10.059585-4.253381 10.059585 0 0-19.646571 10.059584-51.10809 3.3757 0 0-9.249417-11.747435 1.080224-18.296292-.067514 0 33.216882 4.523438 49.015156-5.333605z" fill="#fff"/><g style="fill:#371a45"><path d="M227.885251 233.690014c.270057 7.156483-4.253381 10.059585-4.253381 10.059585 0 0-19.646571 10.059584-51.10809 3.3757 0 0-3.03813-3.848298-3.71327-8.371735l.270057.33757c15.53191 3.6541 31.760021 3.071194 46.989736-1.68785 4.992555-1.634345 8.369772-6.291638 8.371735-11.544892v-.540112c1.417794 1.755363 3.308185 4.658465 3.443213 8.371734h0z" fill-opacity="0.35"/><path d="M222.852744 219.504005l-1.960672 1.223325c-6.273137 3.914008-16.452193 5.747565-28.762277 5.868747l-1.31739.006366c-2.19295-2.98e-4-4.370623-.054526-6.506424-.153601l-.792647-.040319 1.330335-.842192h-11.239665l-.369571 2.679284-1.377416-2.172165c-4.943886 3.134359-6.909476 7.684769-6.297186 12.773438.397899 3.306895 1.781506 6.413028 3.580156 9.139714l.2664.395048.22033.314195.185267.253849.14834.193958.730448.927723 1.154996.245374c14.201388 3.017033 27.169962 3.010394 38.639406.832193l.428843-.082751.850979-.171875.840764-.179675.829016-.186639.815736-.192767.800924-.198059.78458-.202515.766704-.206135 1.113189-.314162.715312-.211528.692075-.212221.667306-.21208.641004-.211102.613171-.209288.583806-.206638.552908-.203153.520479-.19883.716563-.288313c.075182-.031286.148852-.062304.22098-.093038l.414001-.180849c.065829-.029526.130052-.058732.192636-.087602l.355591-.169036.314735-.160117c.048966-.025896.096166-.051386.141568-.076452l.250581-.145169c.038082-.023301.074303-.046143.10863-.068509.331759-.217786.744981-.538042 1.213647-.976069.705305-.659196 1.387679-1.451594 2.006949-2.385615 1.704923-2.571469 2.650465-5.769985 2.507756-9.551773-.109916-3.335251-1.318911-6.376402-3.233591-9.062164-.687255-.964027-1.421602-1.817069-2.160948-2.557084l-.168743-.166932-.312406-.298217-.275803-.250304-.235408-.201926-1.905964-1.52635zm-.813373 8.057722.275714.347419c.095714.124929.190339.252827.283553.38358 1.223413 1.716107 1.96206 3.574128 2.025708 5.50479.090512 2.399534-.458958 4.258243-1.425065 5.715384l-.126676.185791c-.373828.533116-.731237.911885-.992097 1.13854l-.112662.091672-.380797.175682-.166475.073559c-.68207.298617-1.500784.6254-2.451978.967333-2.759689.992049-6.003646 1.890536-9.700912 2.592697l-.711587.131737c-9.992314 1.802277-21.247692 1.833536-33.584558-.575276l-.516297-.103056-.047809-.073504c-2.944963-4.581936-3.588627-8.802949-.142469-11.73796l.192238-.159521.679828.076081.960053.099318 1.0197.09744 1.076043.094593c.183852.015475.369914.03079.558118.045927 4.287885.344863 8.836428.53251 13.443084.487161 11.95108-.117648 22.135384-1.730139 29.553471-5.41128l.291872-.148107z"/></g><path d="M205.740663 155.576329c0 0 28.355876 41.453589 17.418609 70.619633-6.953941 18.498833-37.605292 17.351095-46.854709 3.645756L158.1433 197.840086l47.597363-42.263757z" fill="#fff"/><g style="fill:#371a45"><path d="M223.159272 226.195962c-6.953941 18.498833-37.537778 17.351095-46.854709 3.645756L158.1433 197.840086l6.751399-6.008745 15.595731 16.878497c6.278802 13.637826 36.119985 22.617187 43.006412 4.118354.877682-2.36299 1.485308-4.861008 1.890391-7.42654.842923 7.01071.081073 14.121309-2.227961 20.79431h0z" fill-opacity="0.35"/><path d="M203.047737 157.418395l5.385852-3.684133.411411.616439.497321.766448.266584.417313.554122.880817.580542.941219.605144 1.000195c.102807.171535.206562.345468.311229.521769 2.386424 4.019699 4.770929 8.460604 6.998014 13.202953 5.205791 11.085203 8.758215 22.085582 9.893015 32.469514.910206 8.328801.215665 15.98417-2.337677 22.793078-3.74976 9.975088-13.662861 15.630371-25.515472 16.01238-10.958669.353198-21.61982-3.92072-26.863096-11.349672l-.234582-.339847 5.408839-3.650301c3.765939 5.580187 12.424376 9.109672 21.478637 8.817854 9.429219-.303904 16.904209-4.568279 19.616713-11.784062 2.163152-5.768404 2.766064-12.413818 1.959906-19.790533-1.045667-9.568322-4.387727-19.917289-9.312755-30.404636-2.132191-4.540283-4.418337-8.798004-6.702564-12.645563l-.296245-.496658-.575138-.950663-.550479-.892567-.52399-.832994-.513725-.799625-.541606-.818725z"/><path d="M211.681894 170.361892c-14.117619 13.828886-32.377829 22.650701-51.985772 25.115204-1.68785.202543-3.3757.405084-5.131063.472598-18.327019 1.256397-36.601894-3.100371-52.390857-12.490088 2.768074-18.633861 6.481344-39.833253 10.937267-63.260608l83.919889 4.523437c5.786703 14.908293 10.678905 30.148515 14.650536 45.639457h0z" fill-opacity="0.35"/></g><path d="M71.1177672 134.917047c9.0542171 15.92275 22.8981929 28.585499 39.5631978 36.187499l4.320896 1.890392c12.557277 4.999383 26.081149 7.099507 39.563198 6.143773l5.131063-.472598c31.947357-3.96258 59.328952-24.724167 71.767371-54.416276 8.976788-21.635041 8.867799-45.9726519-.302398-67.5264273-9.170198-21.5537754-26.629728-38.5094826-48.442702-47.04481307-8.77682-3.51072746-17.823694-5.53614716-26.803054-6.14377306l-3.173158-.20254197c-9.272997-.37596716-18.547077.71778187-27.478194 3.2406715-6.143773 1.68784975-12.152518 4.0508394-17.823693 7.0214549l-5.333605 2.9706155c-16.1085562 9.8212124-28.6846801 24.5012367-35.917443 41.9261877-10.2469941 24.8695274-8.4278684 53.0784358 4.9285212 76.4258358h0z" fill="#fff"/><g style="fill:#371a45"><path d="M125.17476 6.25708658c-6.176971 1.69696121-12.206538 4.07121032-17.886766 7.04656742l-5.341015 2.9746187c-16.1790386 9.8638877-28.8014809 24.5979792-36.0608824 42.087107-10.2859387 24.9640433-8.4599572 53.2792623 4.9467686 76.7146523 9.0879175 15.982018 22.9840667 28.692488 39.7118778 36.323138l4.325558 1.892475c12.613331 5.021899 26.186638 7.129699 39.717967 6.170472l5.137958-.47316c32.074433-3.978178 59.556118-24.815655 72.040004-54.616299 9.011023-21.717545 8.901623-46.1468061-.303107-67.7817481-9.112684-21.4185924-26.380336-38.313648-47.969588-46.96241739l-.655539-.25955597c-8.701485-3.48060394-17.774208-5.54802274-26.900497-6.16559127l-3.17441-.20262429c-9.315207-.37776708-18.623889.72006277-27.588329 3.2523656zm27.554124-2.59684721 3.165546.20214481c8.74428.59172052 17.440863 2.5251225 25.806971 5.76845304l.895091.35251073c21.733129 8.50409715 39.12691 25.39595325 48.262575 46.86856155 9.135664 21.4726086 9.244243 45.7185695.301259 67.2721385-12.392522 29.582543-39.674028 50.268238-71.504606 54.216334l-5.120765.471486c-13.425872.951678-26.90031-1.140769-39.411686-6.121878l-4.310744-1.886152c-16.597538-7.571267-30.3893398-20.186294-39.4094339-36.049036-13.3064753-23.26015-15.1187452-51.3627477-4.910369-76.1385495 7.2057976-17.3599839 19.7356031-31.9859411 35.7848299-41.7709815l5.322451-2.9641122c5.318339-2.785681 10.952941-5.04282173 16.731926-6.70517118l1.021285-.287168c8.897795-2.51347655 18.137272-3.60314463 27.37567-3.22858025z"/><path d="M231.463493 124.182323c-12.403859 29.718879-39.803567 50.494198-71.767371 54.416276-1.68785.202542-3.3757.405084-5.131063.472597-18.30445 1.242501-36.553706-3.113773-52.323343-12.490088-20.0649248-11.98089-34.5232065-31.469196-40.1708234-54.146219 9.0697811 15.113997 22.5120871 27.12026 38.5504884 34.432134l4.320895 1.890392c12.557277 4.999384 26.08115 7.099508 39.563198 6.143774l5.131063-.472598c31.947357-3.962581 59.328952-24.724166 71.767371-54.416276 7.42654-17.8912074 8.439249-36.7276105 4.185868-54.0787059 13.772854 22.8872425 16.878497 51.6482021 5.873717 78.2487139h0z" fill-opacity="0.35"/><path d="M124.594336 4.13542554c-6.330841 1.73924235-12.507239 4.17130815-18.326978 7.21974256l-5.39067 3.0014461-.085906.0500855C84.225308 24.5064901 71.2924631 39.6029124 63.8545434 57.5221209c-10.5469256 25.5974407-8.6750005 54.6251001 5.0690528 78.6501501 9.3137629 16.379204 23.5595541 29.409484 40.7082548 37.232129l4.356804 1.906436c12.98897 5.172781 26.893562 7.332026 40.755152 6.349387l5.184161-.476925c32.926037-4.082702 61.07847-25.428762 73.867052-55.956753 9.240443-22.270443 9.128293-47.3138956-.307859-69.4927757-9.341791-21.9570911-27.04358-39.2769162-49.175622-48.14312993l-.67202-.26608164c-8.89956-3.55990059-18.197823-5.67871388-27.553514-6.31180579l-3.1828-.203175976C143.636098.433189077 134.422598 1.4691275 125.52851 3.8770677l-.934174.25835784zm28.045439 1.7226204 3.11454.19948326c8.503826.57546481 16.97147 2.45634896 25.121073 5.6122109l.904189.3558966c21.198042 8.2947868 38.151209 24.7587432 47.055452 45.6874135 8.904242 20.9286704 9.01007 44.5604398.293628 65.5680188-12.084947 28.848288-38.695705 49.025401-69.74369 52.876428l-5.051754.464029c-13.049409.924502-26.192562-1.1165-38.396331-5.975143l-4.242711-1.857736c-16.1454024-7.365311-29.5875623-19.660529-38.3789841-35.121127-12.9719746-22.675448-14.7383009-50.0656043-4.7887216-74.213304l.2999211-.713535c6.9690569-16.3746154 18.8204721-30.2086497 33.9369196-39.6113199l.625355-.38579 5.281633-2.9407537c5.139681-2.6913267 10.63339-4.8916544 16.267647-6.512364l1.013226-.28485666c8.674482-2.45039446 17.682071-3.51271453 26.688608-3.1475508z"/><path d="M124.377044 3.43314562l.022626-.00630367c-6.381486 1.7531556-12.606935 4.20453656-18.473281 7.27738425l-5.407259 3.0104085-.110879.0646453C83.7099519 23.9600524 70.6734091 39.1775205 63.1758507 57.2404086c-10.6341149 25.8090434-8.7468412 55.0747124 5.1099051 79.2967524 9.3892124 16.511896 23.7518104 29.649016 41.0411202 37.535802l4.367243 1.9111.100912.042148c13.013549 5.181038 27.028816 7.35747 41.000738 6.36701l5.301961-.489243c33.108172-4.106562 61.484686-25.622526 74.375059-56.393507 9.317088-22.455152 9.204019-47.7037913-.309446-70.0643878-9.418331-22.1369905-27.265154-39.5987208-49.578529-48.5375774l-.677526-.2682617C174.941557 3.05385242 165.567946.917869477 156.135617.27959158l-3.185603-.2033602765C143.25744-.317627661 133.639401.816686488 124.377044 3.43314562zm28.232962 3.15913414 3.0975.1985941c8.427223.57028632 16.822069 2.43502037 24.902627 5.56415814l.896532.3528838c21.019283 8.2248613 37.825251 24.5458667 46.652182 45.2928205 8.826929 20.746954 8.931839 44.1735367.291078 64.9987147l-.363777.855503c-12.023897 27.861709-37.785776 47.395108-67.869367 51.453887l-.885465.113747-5.0655.467199-.84299.055535c-12.3658.753451-24.810487-1.179416-36.423629-5.671421l-.745989-.293026-4.264501-1.865454c-15.9943544-7.296507-29.3197073-19.484884-38.0347353-34.811136-12.860226-22.480113-14.6112037-49.6322597-4.7480821-73.5701258l.3016365-.7174866c6.9083468-16.2261709 18.6539791-29.9367124 33.6345969-39.2575462l.620815-.3835954 5.264914-2.9307342c5.062418-2.6506017 10.488947-4.8260514 16.055197-6.4314281l1.06788-.30060811c8.599879-2.42932026 17.53-3.48250403 26.459077-3.12048083z"/><path d="M84.7555931 152.875769c52.7959399 34.972247 123.5506009 7.831622 126.3186749-54.4162759 1.890392-42.3987855-38.618002-76.6958924-80.004078-75.6831824-30.111239.7426538-59.2097689 14.4479938-71.0922311 60.8301047 0 0-2.0254196 21.3344206 3.9833254 35.3773306 6.0762591 14.042909 14.3804799 26.668026 14.3804799 26.668026l6.4138289 7.223997h0z"/></g><path d="M211.074268 98.4594931c-2.835588 62.2478979-73.522735 89.3885229-126.3186749 54.4162759l-1.2827657-1.485308C141.129774 160.369822 197.90904 125.195033 201.95988 62.2719946c6.483381 10.9232924 9.650099 23.4963377 9.114388 36.1874985h0z" fill="#220f2d"/><g style="fill:#371a45"><path d="M130.449601 10.5352661c-13.825123.3756725-26.253385 2.9866519-37.2390106 8.2147509l-.3041934.1447667-.2681954.2038682c-12.9878369 9.872674-23.1295971 23.0086682-29.3940001 38.0722286-10.6987771 25.8119868-8.8362954 55.1202055 5.0419245 79.3669275 9.3888422 16.511249 23.7514402 29.648369 41.04075 37.535155l4.367243 1.9111.102526.04279c4.565919 1.814998 9.268419 3.26552 14.063392 4.337963l.246511.055134.252059.016535c50.694775 3.325458 93.017744-30.642902 95.359319-81.4216148 2.185404-48.1471822-43.349067-89.71128383-93.268325-88.4796041zm.160954 6.5233677c46.294083-1.1422342 88.59454 37.469842 86.588837 81.6580025l-.076004 1.4041377c-2.842392 45.714199-40.834459 76.247795-86.924238 73.886918l-1.162717-.068495-.864995-.199029c-3.703434-.879789-7.344781-2.00299-10.900303-3.362283l-1.024785-.399949-4.257643-1.862515c-15.9943544-7.296507-29.3197073-19.484884-38.0347353-34.811136-12.8790191-22.501038-14.6067939-49.6894946-4.6831849-73.6313079l.3096629-.7349744c5.7379875-13.4440182 14.8167032-25.2030894 26.3737813-34.158776l.3652973-.2813915-.3048474.1443214c10.0993371-4.806311 21.6434481-7.2315445 34.5958741-7.5835228z"/><path d="M130.990377 19.5146105c-37.0509696.913813-63.1737632 20.3474816-74.1730252 63.2821006l-.0633422.2472504-.0686762.7799514-.0599039.8233041-.0694604 1.141367c-.383368 6.9853591-.1951447 14.699805.9903465 22.038414.7496316 4.640484 1.8672817 8.82228 3.4153504 12.440239 1.2498299 2.888563 2.6376049 5.827749 4.1438166 8.804849 2.2958977 4.537951 4.7524543 8.945158 7.2094605 13.054254l.6338029 1.053146.6091701.999072.8634509 1.392868.8259325 1.303945.4981388.766306 6.853201 7.718869.3551814.235274c55.7932613 36.957684 128.5408893 6.851779 131.3799033-56.9913836 1.921293-43.0918513-38.720482-80.1817395-83.343347-79.0898259zm.160258 6.5233848c40.999076-1.00324 78.409233 33.1374582 76.664195 72.2761725-1.259497 28.3233102-17.419461 50.4636992-42.387062 60.7963002l-.742803.302841c-24.312649 9.763725-53.271178 6.875863-77.3907663-8.77451l-.3894027-.255538-5.9639376-6.71837-.726767-1.139454-.811854-1.300822-.5758439-.938244-.6013151-.992694c-.1022363-.169874-.2054547-.341931-.3096158-.51613-2.3828358-3.985053-4.7661213-8.260807-6.9874094-12.65129-1.4497102-2.865421-2.7822072-5.687534-3.9723819-8.438159-1.312833-3.068263-2.2968401-6.75002-2.9675135-10.901726-1.0989324-6.8027789-1.2765456-14.0823659-.9166407-20.6402041l.0642933-1.0571631.0680411-.92632-.0652856.2534349C73.3904922 44.3986576 96.936652 26.8818379 131.150635 26.0379953z"/></g><path d="M250.569952 93.8010279c1.35028 17.2835811-7.899137 32.6767701-20.659281 34.2971071-12.760144 1.620335-24.170008-11.072295-25.452774-28.4233901v-.3375699c-1.215252-17.1485534 8.034165-32.3392011 20.659281-33.9595368 9.857042-1.2827659 18.903917 6.076259 23.089784 17.4186093 1.282766 3.3756995 2.092934 7.0214549 2.36299 11.0047804z" fill="#fff"/><g style="fill:#371a45"><path d="M250.569952 93.8010279c1.35028 17.2835811-7.899137 32.6767701-20.659281 34.2971071-12.760144 1.620335-24.170008-11.072295-25.452774-28.4233901v-.3375699c1.552822 1.620336 3.848297 3.03813 6.751399 2.092933 5.06355-1.6878491 13.502797-13.9753952 13.502797-13.9753952 0 0 10.194613-2.0929337 23.494869-4.6584653 1.282766 3.3756995 2.092934 7.0214549 2.36299 11.0047804z" fill-opacity="0.35"/><path d="M226.955788 61.9803446c-14.877373.2349059-26.196983 16.1990575-25.827465 35.1923328.295213 18.9689356 12.134208 34.4901376 27.01098 34.2552406 14.694586-.310949 25.902864-15.923336 25.767796-34.6246958l-.007351-.5549516c-.295205-18.9668723-12.122401-34.5031889-26.94396-34.267926zm.103291 6.5245354c10.60391-.168316 19.884108 11.8812625 20.306039 27.3744062l.010289.4832234c.305562 15.7058944-8.629136 28.3141564-19.356649 28.5411934-10.752403.169727-20.121234-12.113031-20.366094-27.8452646-.306423-15.7514122 8.650704-28.3837313 19.406415-28.5535584z"/></g><path d="M216.272846 98.3919791c.270055-13.7728539 8.911846-24.8451482 19.376514-24.6426062 10.397155.202542 18.701375 11.5448922 18.431319 25.3852601-.270055 13.772854-8.979361 24.777635-19.376514 24.575092-10.464669-.202542-18.701376-11.477378-18.431319-25.3177459h0z" fill="#fff"/><g style="fill:#371a45"><path d="M235.656039 73.406514c-10.65665-.2062577-19.452062 11.0052438-19.726051 24.9787424-.273156 13.9991676 8.079636 25.4604656 18.767541 25.6673286 10.621404.206911 19.452868-10.981024 19.726008-24.9112293.272789-13.9804593-8.132904-25.5276743-18.767498-25.7348417zm-.013358.6857178c10.208057.1988583 18.361218 11.3991606 18.09514 25.0357113-.266399 13.5863449-8.832038 24.4375269-19.026977 24.2389229-10.261565-.19861-18.361582-11.313064-18.09514-24.968197.264587-13.4939393 8.62825-24.2866575 18.720667-24.3090624l.30631.0026252z"/><path d="M218.230751 110.74704c-1.518491-4.543535-1.866797-9.39661-1.01271-14.1104246 4.320896 9.9245566 14.110423 13.3002556 22.549672 7.4940526 5.681872-4.2968149 9.402891-10.6930761 10.329641-17.756179l.742654 1.9579057c3.848297 11.4098642-.33757 25.6553153-9.316931 31.8666033-9.046875 6.211287-19.444029 1.957906-23.292326-9.451958h0z" fill-opacity="0.35"/><path d="M234.702764 69.1371444c-11.783569.2472077-20.506845 13.5591651-20.206696 29.3169698.300573 15.7800778 9.507016 28.7647498 21.289239 28.5175698 11.784051-.247218 20.507326-13.559175 20.207177-29.3169796-.299948-15.7472963-9.554137-28.7654948-21.28972-28.51756zm.137347 6.5239074c7.47709-.1579666 14.389109 9.565417 14.628204 22.1179223.239411 12.5691319-6.275137 22.5105109-13.819874 22.6687919-7.51906.157743-14.388448-9.530771-14.628203-22.1179218-.239413-12.5691318 6.275136-22.5105112 13.819873-22.6687924z"/></g><path d="M152.674667 37.7644164c0 0-40.373367 3.5782414-62.1803848 27.0731098l-.0675139.067514c-4.5826903 4.9196126-7.7545822 10.9835236-9.1819026 17.5536373-1.482873 6.6886862-2.0506762 13.5477491-1.6878498 20.3892255.6076259 16.675955 4.0508395 24.37255 4.0508395 24.37255-9.9605352-7.714576-15.9528534-19.476357-16.3383856-32.0691454l-.067514-4.2533813.067514-1.0127099c.2700559-2.9706155.8101678-6.818913 1.7553637-11.0722943 2.8355876-12.962686 9.6545006-29.9762114 25.6553161-38.4154601 29.8411834-15.7982736 59.2772834-4.4559234 57.9945174-2.6330456h0zm27.343165 26.7355399c6.278802-2.0254197 13.232743 2.2279616 15.528218 9.4519586 2.36299 7.2239969-.877681 14.7180497-7.156483 16.6759554-6.2788 2.0254197-13.232742-2.1604476-15.528217-9.3844445-2.36299-7.223997.877682-14.7180498 7.156482-16.6759555v-.067514zm9.384446 31.6640612c2.498016-1.0802239 5.536146.4050839 6.751398 3.3081855 1.215252 2.835588.202542 6.076259-2.295476 7.156483-2.498017 1.01271-5.536147-.405084-6.751399-3.3757-1.215252-2.835587-.202541-6.0762587 2.295477-7.0889685z" fill-opacity="0.7" fill="#fff"/><path d="M156.995562 242.534347c0 0 0 .202542-.202542.472599l.202542-.472599z" fill-opacity="0.35"/><path d="M128.504658 216.203891c0 0 4.05084 19.444029 3.03813 22.549673-1.01271 3.105643-9.451959 19.444029-12.152518 14.245452-2.70056-5.198578-11.207323-14.515508-8.169193-23.967467 3.038129-9.451958 3.780784-13.502798 6.278801-12.827658 2.565531.67514 11.00478 0 11.00478 0z" fill="#ce2e2e"/><path d="M131.139345 214.718459l4.38841 21.401936-5.269374 1.080471-4.38841-21.401936 5.269374-1.080471zm-17.683232-1.234253 5.116914 1.658587-6.346315 19.579057-5.116914-1.658586 6.346315-19.579058z" fill="#6b184e"/><path d="M140.049551 241.454123H26.288478l-.5401119-1.755363-.3375699-1.147738-1.4853078-4.725979-7.6290809-24.575093-3.0381295-9.924556L3.67129148 168.4715c-.61989495-2.000853-.25570424-4.177063.9818594-5.867069 1.23756365-1.690007 3.20230212-2.694163 5.29694165-2.707207H109.533227c3.03813 0 5.73869 2.025419 6.683885 4.928521l18.363805 59.209769 1.485309 4.861007 3.983325 12.557602h0z" fill="#33aef1"/><path d="M134.648431 224.035514c-4.983553-1.089429-9.01697-4.737487-10.599696-9.586987l-11.34235-35.7149c-1.816974-5.664886-7.081061-9.510671-13.0302001-9.519473H30.9469433c-6.413829 0-12.2200321-3.645755-14.9881057-9.249417h98.7729664l19.916627 64.070777h0z" fill-opacity="0.35" fill="#fff"/><path d="M141.602372 241.454123v11.004781H32.7023071c-3.553346 1.93e-4-6.444329-2.860676-6.4813431-6.41383v-4.590951h115.381408z" fill="#f92323"/><path d="M142.615083 241.454123l54.078705-26.39797c1.957906-.945195 4.253381.472598 4.253381 2.633046 0 1.147738-.540112 2.160447-1.552821 2.700559l-57.791976 32.13666" fill="#848484"/><path d="M141.602372 246.720214v4.658466H32.7023071c-2.9706156 0-5.4011192-1.957906-6.2112871-4.658466h115.111352z" fill-opacity="0.35" fill="#371a45"/><path fill="#33aef1" d="M195.613564 215.596265l-18.363805 14.110424-37.875348 11.00478-7.494053-25.992885 4.050839.067514 44.15415.607626z"/><path fill-opacity="0.6" fill="#fff" d="M137.484019 236.120518l29.233557-15.258161h-31.596547z"/><g style="fill:#371a45"><path d="M110.140853 156.634544H9.4774946c-3.00457857-.001666-5.83331727 1.423683-7.62085871 3.840927-1.7875424794 2.417245-2.321689834 5.539436-1.439379221 8.413442L23.8828106 244.7168H144.479313l-25.281376-81.398908c-1.224417-3.979393-4.908923-6.683348-9.057084-6.683348zm0 6.525353.183469.00569c1.215774.075534 2.275439.896796 2.639364 2.079553l22.655908 72.94625H28.6939439L6.65311009 166.966854c-.27244394-.887477-.10619968-1.859205.4501427-2.611532.55634233-.752327 1.43674112-1.195425 2.3724318-1.195425H110.140853z"/><path d="M141.602372 238.191447v6.525353l-112.052098-5.7e-5 8.805e-4 1.328331c0 1.680323 1.3151987 3.053464 2.9723379 3.146165l.1788147.004988H141.602372v6.525353H32.7023071c-5.2536072 0-9.5293566-4.186705-9.6727881-9.405655l-.0037175-.270851v-7.853627H141.602372z"/></g><path d="M142.615083 241.454123l54.078705-26.39797c1.957906-.945195 4.253381.472598 4.253381 2.633046 0 1.147738-.540112 2.160447-1.552821 2.700559l-57.791976 32.13666" fill="#f92323"/><g style="fill:#371a45"><path d="M200.947169 217.621685v.067514c0 1.080224-.607626 2.092933-1.552821 2.633045l-57.791976 32.13666.472599-5.536147 56.37418-29.09853c.472599-.270056.877683-.607626 1.215252-1.080224.202543-.33757.337571-.742653.405085-1.215252.540112.607626.877681 1.282766.877681 2.092934z" fill-opacity="0.35"/><path d="M197.301414 211.455907l-1.83e-4.074027c3.520291-.393827 6.908615 2.32188 6.908615 6.159265 0 2.263632-1.110938 4.315496-3.015055 5.431868l-58.006792 32.256814-1.624063-2.919875-3.831866 8.98e-4v-11.004781l4.883172-5.7e-5-1.431387-2.931947 42.079634-20.541688-51.383131 8.29e-4v-6.525353h65.421056zm-8.382619 11.025646-44.661437 21.801146v3.033407l44.661437-24.834553z"/></g><path d="M85.700789 253.336585c0 0-11.1398083 13.0302-28.9635016 12.152519-30.6513513-1.485308-23.8324383-24.710121-17.4186094-29.031016 16.8109835-11.274836 34.4321348.877682 36.3900405 5.873718 3.5782415 9.249416 9.9920705 11.004779 9.9920705 11.004779h0z" fill="#fff"/><g style="fill:#371a45"><path d="M85.700789 253.336585c0 0-11.1398083 12.962687-28.9635016 12.152519-18.4313192-.877683-23.3598404-9.654501-22.8872425-17.41861 3.0381295 4.455924 9.2494166 7.899137 20.5242529 8.439249 11.2748363.540112 19.9166269-4.455924 24.7101202-8.236706 3.2406715 4.118353 6.616371 5.063548 6.616371 5.063548h0z" fill-opacity="0.35"/><path d="M37.5013439 233.748411c-4.8090429 3.239767-8.0282641 11.749764-6.5703616 18.937131 1.8997403 9.365598 10.583126 15.33238 25.6483872 16.062414 7.1671306.352928 13.8369615-1.30041 19.9025469-4.438652 4.2455931-2.196605 7.7481623-4.868868 10.4547105-7.541895l.3874524-.389192.4020184-.418592.3046673-.331703.1499517-.171191 3.3422157-3.90938-4.9581478-1.357492-.1786468-.069271c-.2855819-.114638-.6205123-.275411-.9935157-.488666-1.1298327-.645954-2.2835346-1.580634-3.3817295-2.863113-1.1824832-1.380911-2.22065-3.077269-3.0673043-5.133311l-.1971319-.494157c-1.5464584-3.946136-7.7081026-8.632666-14.6299446-10.942831-8.8451758-2.952077-18.1879836-2.102066-26.6151679 3.549901zm35.1644654 9.760579c1.1460573 2.962449 2.6336979 5.454666 4.3886179 7.504072l.344994.393445c.8096949.901669 1.6516769 1.689125 2.5117739 2.369933l.3477345.267834-.2252365.191699c-5.9685853 5.003539-13.8415862 8.452079-23.1359381 7.994403-12.3266246-.597326-18.3304235-4.722832-19.5716571-10.842035-.9465917-4.666636 1.2615117-10.503748 3.8155122-12.224337 6.6487264-4.459178 13.8909483-5.118077 20.909083-2.775774 2.8187019.940742 5.4404245 2.336355 7.5349606 3.929453.908814.691242 1.6762468 1.390108 2.2501449 2.034611.4156943.466837.688958.860697.8030642 1.097117l.0269465.059579z"/><path d="M180.085347 215.393724c-5.738689 17.486122-41.11602 16.743469-44.019121.135027l-.135029-.742653 44.15415.607626h0z" fill-opacity="0.35"/></g><path d="M205.065523 197.164946c0 0-15.663245-14.920592-33.351911-14.920592-18.228777 0-38.888058 9.789529-35.7149 27.950792 3.105643 17.621152 42.803869 17.418609 44.761775-3.578242" fill="#fff"/><g style="fill:#371a45"><path d="M180.828001 206.54939c-1.890392 20.996851-41.656132 21.199393-44.761775 3.578242-.526932-2.753848-.434686-5.590427.270055-8.304221 3.983326 14.177939 32.744286 15.595732 41.79116 2.633046.810168-1.147738 2.633046-.607626 2.633046.810168v1.282765h.067514 0z" fill-opacity="0.35"/><path d="M171.713612 178.981678c8.426778 0 16.880257 2.98915 25.005867 7.936147 2.807555 1.709282 5.37794 3.538178 7.663081 5.37016l.271739.218887.751906.617268.65504.553849.555735.484867.453989.41032.24493.229385-4.500752 4.724771-.501648-.456012-.113012-.099957c-.180441-.159056-.371349-.324604-.572463-.496101l-.633699-.531799c-.221265-.182854-.452477-.371115-.693374-.56424-2.076895-1.665033-4.421317-3.33315-6.974796-4.887748-7.191626-4.378372-14.561739-6.984444-21.612543-6.984444-8.827859 0-17.81255 2.42559-24.068127 6.613455-6.64517 4.448682-9.678918 10.380986-8.433619 17.508358 1.102372 6.254767 9.352714 10.451617 19.45223 9.99952 10.295201-.460857 17.930445-5.46763 18.816702-13.018894l.031105-.295488 6.497168.605845c-1.075251 11.531135-11.727607 18.630854-25.053165 19.227362-12.982776.581163-24.377872-5.215385-26.171182-15.390491-1.723797-9.865986 2.56877-18.259831 11.230663-24.058631 7.39425-4.950162 17.640705-7.716389 27.698225-7.716389z"/><path d="M194.803396 347.856171c-7.346992-2.958539-15.40826-3.663606-23.157298-2.025419-1.282766.202541-2.498018.607626-3.71327.877681l-1.822878.540112-1.890391.540112-.202542.067514c-1.215252.270056-2.430504-.472598-2.70056-1.620335-.270055-1.080224.270056-2.160449 1.282766-2.565532l2.02542-.877682c2.008685-.838973 4.120195-1.406583 6.278801-1.68785 5.773603-.740372 11.640692-.044671 17.08104 2.02542 2.633045 1.080223 5.131062 2.430504 7.359025 4.253381.135027.135028.135027.33757.067513.472598h-.607626 0zm-57.994517-7.966651c-4.775627-1.694415-9.787688-2.628481-14.853078-2.768073h-1.822878l-1.822877.135028-1.822878.202542-.877681.135027-.877683.202543c-2.362989.337569-4.590951 1.215252-6.886426 1.890392l-.202543.067514c-1.215251.337569-2.430503-.337571-2.768073-1.485309-.33757-1.080223.202542-2.160447 1.147738-2.633045l1.890392-.945196.945195-.405084 1.012711-.33757 2.025419-.607626 2.092934-.33757c8.263076-.747408 16.516365 1.531844 23.224812 6.413829.135029.135028.135029.337571.067514.472598h-.472598 0z"/><path d="M199.334535 189.73138c7.834263 11.735005 9.828714 24.025834 6.496897 34.385859-2.977832 9.25934-10.012472 15.769747-17.768669 16.378668l-.347764.023311-.271199-4.881588c5.695846-.316436 11.288706-5.415995 13.733291-13.017242 2.817668-8.761321 1.171667-19.31304-5.58327-29.680836l-.325528-.493558 4.066242-2.714614z"/></g><path d="M73.5482709 214.381013l-.135028.067514c-5.0865211 3.072522-11.6771363 1.754398-15.1906477-3.038129-1.8010382-2.546723-2.480922-5.719762-1.8814614-8.780837.5994607-3.061075 2.4259948-5.743273 5.0546189-7.422521l.067514-.067513c1.5528218-.945197 3.3756995.675139 2.7005596 2.362989-1.1477378 2.768074-1.0127098 6.076259.7426538 8.844333 1.7553638 2.768073 4.6584653 4.320895 7.6965949 4.523437 1.8228777.135028 2.4980176 2.565532.9451959 3.510727z" fill="#fff"/></svg>