<svg width="256px" height="153px" viewBox="0 0 256 153" xmlns="http://www.w3.org/2000/svg" preserveAspectRatio="xMidYMid"><path d="M232.137523 0H23.7592719C10.5720702 0-.103257595 10.7799647 6.39559736e-4 23.862498v79.541749c0 13.186868 10.676098940264 23.862365 23.863300640264 23.862365h98.6942408l45.109025 25.118383-10.256824-25.118383h74.727141c13.187536 0 23.862365-10.675497 23.862365-23.862365V23.862498C255.999888 10.6752964 245.325059 0 232.137523 0zM19.3640061 18.4201481c-2.9305115.2093366-5.1284119 1.2559526-6.5936342 3.2444495-1.4652223 1.8838955-1.9884969 4.2910656-1.6745589 7.0122406 6.1749611 39.2478676 11.931249 65.7266047 17.2689306 79.4371478 2.0932321 5.023409 4.5004022 7.431114 7.3262454 7.221778 4.395667-.314339 9.6286804-6.384432 15.8036415-18.2109455 3.2444495-6.6987707 8.2681932-16.7455891 15.0710971-30.1424618 5.6513521 19.7806353 13.396137 34.6428643 23.1299538 44.5853483 2.7213756 2.82571 5.5470851 4.081729 8.2677919 3.872393 2.4077047-.209337 4.2910657-1.465356 5.5470847-3.768059 1.046683-1.988363 1.465356-4.291065 1.25602-6.907438-.62801-9.5238117.314339-22.8156817 2.930712-39.8753426 2.720707-17.5828686 6.070092-30.2467957 10.151821-37.7823108.837347-1.5698907 1.151017-3.1398482 1.046683-5.0236768-.209336-2.407237-1.256019-4.3957339-3.244383-5.9656245-1.988363-1.5698906-4.186731-2.3025018-6.593768-2.0932321-3.035046.2093366-5.337748 1.6745589-6.907438 4.6050705-6.4887654 11.8265807-11.0941702 30.9794069-13.814877 57.563013-3.9773952-10.0472867-7.3267805-21.8739343-9.9431534-35.7937471-1.1510168-6.1748942-3.9767263-9.1054057-8.5821312-8.7914009-3.1397144.2092697-5.7561542 2.3025018-7.8493862 6.2795625l-22.9205503 43.643334c-3.767791-15.1757655-7.3262454-33.7005819-10.570695-55.574583-.7326112-5.442283-3.767791-7.9541883-9.1054058-7.5355151zm201.6800159 7.5358495c7.431114 1.5699575 12.978199 5.5470183 16.745589 12.1405856 3.349385 5.6516865 5.023409 12.4545905 5.023409 20.6180485 0 10.779764-2.720706 20.6179147-8.163458 29.6187191-6.279428 10.4661604-14.442886 15.6989062-24.594708 15.6989062-1.779026 0-3.663055-.209337-5.652087-.62801-7.430446-1.56969-12.977531-5.546416-16.74559-12.140184-3.348716-5.7564217-5.023409-12.6638602-5.023409-20.7229843 0-10.7798309 2.721376-20.6179147 8.163458-29.5139839 6.384432-10.4660267 14.54789-15.69904 24.595377-15.69904 1.779026 0 3.663056.2093365 5.651419.6279428zm-4.3954 56.6209315c3.872393-3.4537192 6.488766-8.5821312 7.954122-15.4895697.418673-2.4071032.732343-5.0236098.732343-7.7447848 0-3.035113-.628009-6.2795625-1.884029-9.5240789-1.56969-4.081729-3.663056-6.2795625-6.175095-6.802904-3.767389-.7326112-7.430445 1.3606209-10.884164 6.488966-2.82571 3.9770607-4.605405 8.163458-5.547086 12.4545236-.523675 2.4072369-.733012 5.0239442-.733012 7.6403171 0 3.0350461.62801 6.2794288 1.884029 9.5238115 1.570359 4.081729 3.663056 6.2794287 6.175095 6.8031046 2.616373.523007 5.442083-.6280098 8.477797-3.3493854zm-44.481014-44.4803459c-3.768059-6.5935673-9.419478-10.5706281-16.745589-12.1405856-1.989032-.4186063-3.872393-.6279428-5.652088-.6279428-10.046819 0-18.210277 5.2330133-24.594708 15.69904-5.442751 8.8960692-8.163458 18.734153-8.163458 29.5139839 0 8.0591241 1.674693 14.9665626 5.023409 20.7229843 3.768059 6.593768 9.315144 10.570494 16.745589 12.140184 1.988363.418673 3.872393.62801 5.652088.62801 10.151821 0 18.315279-5.2327458 24.594708-15.6989062 5.442751-9.0008044 8.163458-18.8389551 8.163458-29.6187191 0-8.163458-1.674693-14.966362-5.023409-20.6180485zm-13.187536 28.9907762c-1.464688 6.9074385-4.081729 12.0358505-7.954122 15.4895697-3.035046 2.7213756-5.860755 3.8723924-8.477128 3.3493854-2.512039-.5236759-4.605405-2.7213756-6.175095-6.8031046-1.25602-3.2443827-1.884029-6.4887654-1.884029-9.5238115 0-2.6163729.209336-5.2330802.733012-7.6403171.94168-4.2910656 2.720707-8.4774629 5.546416-12.4545236 3.454388-5.1283451 7.117444-7.2215772 10.884834-6.488966 2.512039.5233415 4.605405 2.721175 6.175095 6.802904 1.256019 3.2445164 1.884029 6.4889659 1.884029 9.5240789 0 2.721175-.209336 5.3376816-.733012 7.7447848z" fill="#7f54b3" fill-rule="evenodd"/></svg>