<svg width="512px" height="121px" viewBox="0 0 512 121" xmlns="http://www.w3.org/2000/svg" preserveAspectRatio="xMidYMid"><path d="M356.601963 21.1510085c9.579415 0 17.717511 3.6202746 24.414289 10.859247 6.696777 7.2389723 10.046124 16.5229582 10.04804 27.8519576 0 10.9262808-3.461809 20.0650427-10.385427 27.4162858-6.923618 7.3512431-15.128962 11.0260983-24.616032 11.0245656-4.045413.0351343-8.057698-.7316129-11.805096-2.2559522-3.642093-1.5047345-7.260813-3.9666442-10.856159-7.385729v31.8569197h-18.277524V23.0404744h18.278098v8.089816c3.086334-3.1606737 6.749367-5.7010925 10.791211-7.4840138 3.920728-1.6757061 8.144896-2.5248833 12.4086-2.4952681zM168.534289-.00271393173c14.71628 0 28.089335 5.30134536173 40.883602 16.17647203173 10.387726 8.8312628 18.755154 19.8673236 26.847269 30.5343855.232063.3059052.46386.6114621.695401.9165548l.693864.9137702c.115519.1520244.230976.3039038.346373.4556239l.691664.9082917h0l.690268.9037718c10.113969 13.2187806 19.795717 24.7551856 29.846921 24.7551856 9.356819-.0405477 16.914755-7.6481109 16.894065-17.0049943 0-9.1381872-7.57885-16.9785553-16.894065-16.9785553-6.062045 0-11.988446 4.2032558-17.956805 10.4354316-2.790484-3.4583604-5.560276-7.12651-8.151891-10.5440621-1.636355-2.1565179-3.316968-4.3733862-5.045861-6.6149693 8.857128-8.6387165 18.8247-14.751916 31.152258-14.751916 21.157096 0 38.369006 17.4337691 38.371307 38.4506225.007044 21.2120717-17.157009 38.4272912-38.369008 38.483384-20.655642 0-34.686125-17.1340162-47.979784-34.5885787l-.838675-1.1026627c-.139634-.1837959-.2792-.3675881-.418705-.5513569l-.836354-1.1021765c-7.396075-9.7485875-15.043897-19.8293891-23.646978-27.1426977-8.869772-7.5391912-17.440091-11.0791683-26.974866-11.0791683-13.253705-2e-7-25.500634 7.0707672-32.127487 18.5488127-6.626853 11.4780455-6.626853 25.6195808 0 37.0976263 6.626853 11.4780455 18.873782 18.548813 32.127487 18.5488127 9.534775 0 18.105669-3.510664 26.974866-11.0492805 6.176424-5.2504773 11.859699-11.9321193 17.312494-18.8867746 4.426264 5.8378871 8.939318 11.7706104 13.760446 17.1854705-5.233234 6.4477127-10.821673 12.6660942-17.164204 18.057964-12.794267 10.876276-26.169621 16.170149-40.883602 16.170149-20.969567.0654-40.374412-11.084025-50.878204-29.2333337-10.503792-18.1493089-10.503792-40.5291593 0-58.6784681C128.159877 11.0813114 147.564722-.0681137218 168.534289-.00271393173zM470.480133 21.1506474c4.259041-.030207 8.478477.8190024 12.39423 2.4944797 4.023144 1.7746927 7.66166 4.3167927 10.711894 7.4840138v-8.0886665H512v73.3750622h-18.413743v-7.7553028c-3.593814 3.4183184-7.197206 5.8802281-10.810178 7.385729-3.729262 1.5267147-7.725587 2.2942468-11.755092 2.2576765-9.477873 0-17.673446-3.67543-24.586718-11.0262899-6.913273-7.3508599-10.372208-16.4896219-10.376806-27.4162858 0-11.3320648 3.34609-20.6160507 10.038269-27.8519576 6.692179-7.235907 14.820313-10.8553932 24.384401-10.8584586zM18.020604 23.0398997l14.754215 41.7446 15.8773057-41.7446h11.0216917L75.2614406 64.314342l14.7760561-41.2744423h18.1407303L81.4028036 96.4155366H69.7322022L54.0882511 54.60139 37.9678199 96.4155366H26.4386107L0 23.0398997h18.020604zm413.104801-1.8888571c2.60624.0548746 5.166035.7006702 7.486313 1.8888571l-5.732705 15.8468431c-2.157667-1.0797917-3.933499-1.6187296-5.327496-1.6168137-2.831675 0-5.226529 1.7528414-7.184561 5.2585241-1.958032 3.5056827-2.935133 10.3856186-2.931301 20.6398076l.065523 3.5738882v29.6728128h-18.277524l.003449-73.3744874h15.781895v9.2376215c1.459794-3.3418096 3.817412-6.213528 6.810964-8.2961566 2.745784-1.8595327 5.989278-2.8462039 9.305443-2.8308967zm-78.368619 16.9936787 5.75e-4 5.747e-4c-5.798612 0-10.609394 1.978724-14.432347 5.936172-3.822953 3.9574479-5.733855 9.1284161-5.732706 15.5129047 0 6.5182171 1.910902 11.7899608 5.732706 15.815231 3.821803 4.0252702 8.632585 6.0369474 14.432347 6.0350315 5.395638.0973084 10.57061-2.1394526 14.196693-6.1361901 3.84556-4.0919429 5.767382-9.3077428 5.765468-15.6473997 0-6.2936757-1.888296-11.4527654-5.664885-15.4772693-3.776588-4.0245038-8.542539-6.0375221-14.297851-6.0390548zm121.475412 0v5.747e-4c-5.693621 0-10.421445 2.0128267-14.183473 6.0384801-3.762028 4.0256534-5.644383 9.1847431-5.647065 15.4772693 0 6.3373578 1.915883 11.5531577 5.747649 15.6473997 3.607111 3.9944968 8.766571 6.2322539 14.147838 6.1361901 5.782518 0 10.577015-2.0116772 14.383491-6.0350315 3.806477-4.0233543 5.710098-9.295098 5.710864-15.815231 0-6.3860213-1.903621-11.5569895-5.710864-15.5129047-3.807242-3.9559153-8.623389-5.9348308-14.44844-5.9367467z" fill="#020202"/></svg>