<svg width="256px" height="273px" viewBox="0 0 256 273" xmlns="http://www.w3.org/2000/svg" preserveAspectRatio="xMidYMid"><title>Workplace</title><path d="M256 119.740401C256 53.5627881 202.337166 0 136.2596 0c-18.321574 0-36.242449 3.60420986-52.9619969 10.8126553C66.9784967 17.7207564 52.4615082 27.532255 39.94673 40.0470334 27.4322088 52.4615082 17.6207615 67.078543 10.7126606 83.2976031 3.60431273 100.117198 0 117.938283 0 136.359903c0 18.421363 3.60431273 36.242448 10.7126606 53.062043 6.9081009 16.21906 16.7195482 30.736048 29.2340694 43.250826 12.5147782 12.514522 27.131813 22.325995 43.3508731 29.234842 16.7195479 7.108682 34.6406799 10.711889 53.0622999 10.711889 17.720782 0 34.64068-3.405172 50.158902-9.510821l-10.312218-26.03079c-12.314429 4.905608-25.730138 7.608913-39.846684 7.608913-28.93393 0-56.1657901-11.313452-76.5896202-31.737282-20.4240873-20.42383-31.7375395-47.655946-31.7375395-76.58962 0-28.93393 11.3134522-56.1660473 31.7375395-76.5898774 20.5238764-20.4238301 47.6556902-31.7372823 76.5896202-31.7372823 50.659391 0 91.707401 41.0482671 91.707401 91.7076577 0 18.621712-5.606446 36.042098-15.217827 50.559087l-23.827973-58.668746c-3.50419-8.60989-7.70896-21.5251098-23.527577-21.5251098-15.818361 0-20.023388 13.0152668-23.427275 21.5251098l-21.925809 54.163581-29.4344192-74.2870151h-30.936141l36.642633 90.3057241c3.7045392 9.110635 7.8092632 21.525368 23.7279272 21.525368 15.918664 0 19.923342-12.414733 23.627623-21.525368l21.725461-53.662834 21.825763 53.662834c4.405119 11.113103 9.110635 21.525368 23.627623 21.525368 10.311962 0 16.819595-6.607937 20.42383-10.91301C246.789319 172.301956 256 147.072306 256 119.740401z" fill="#4326c4"/></svg>