<svg width="256px" height="222px" viewBox="0 0 256 222" xmlns="http://www.w3.org/2000/svg" preserveAspectRatio="xMidYMid"><title>WorkOS</title><path d="M149.077587-2.13162821e-14C144.194558 3.45384985 140.066731 7.86071827 136.940675 12.9507227l-.574336.9623155-10.843849 18.7664236-45.141107 78.2550622 42.756014 73.900882-10.834605 18.775668c-8.691918 15.105844-26.8666153 21.937826-43.3569095 16.29813-8.4091451-2.806027-15.2288039-8.963797-19.8326842-16.535979l-.4683337-.788295-44.89150399-77.737368c-2.4775377-4.187778-3.753381864503-9.050408-3.753381864503-13.913038C-.00856776114 106.353789 1.12971998 101.848792 3.30459675 97.8282566l.44876386-.7975264L49.9206116 17.0654276C55.8441534 6.71957743 66.7573897.284090593 78.6532172.00917616123L79.447684-2.13162821e-14h69.629903zM163.40663 1.95984325c16.235254-5.46980102 34.053205 1.05003508 42.946608 15.60976935l.410301.6883611 45.483155 78.7635119c2.477538 4.1785334 3.753285 9.0504084 3.753285 13.9130384 0 4.558715-1.121262 9.117431-3.302848 13.112469l-.450437.791324-46.167251 79.965303c-5.923542 10.34585-16.836778 16.781337-28.732606 17.056252l-.794466.009176h-69.629903c4.801385-3.440704 8.928387-7.783292 12.091551-12.883037l.619696-1.030002 10.84385-18.775668 45.141107-78.245817-42.756015-73.9933276 10.242955-17.6570783c4.603782-7.941063 11.611146-14.42148814 20.301018-17.32427485z" fill="#6363f1"/></svg>