<svg width="512" height="123" xmlns="http://www.w3.org/2000/svg" preserveAspectRatio="xMidYMid"><path d="M475.63 60.38a9.07 9.07 0 01.828-3.73 10.69 10.69 0 012.387-3.369 12.589 12.589 0 013.888-2.49 13.649 13.649 0 015.342-.984 11.976 11.976 0 014.978.984 11.067 11.067 0 013.573 2.49c.917.977 1.638 2.12 2.126 3.37a10.18 10.18 0 01.725 3.73H475.63zm29.143 14.95c-.414.415-1.02.951-1.815 1.609a14.496 14.496 0 01-3.062 1.865 24.569 24.569 0 01-10.68 2.231 14.863 14.863 0 01-4.821-.83 14.028 14.028 0 01-4.36-2.385 12.54 12.54 0 01-3.108-3.741 9.756 9.756 0 01-1.194-4.88H512v-1.75a41.806 41.806 0 00-1.228-10.163 26.163 26.163 0 00-4.038-8.925 20.87 20.87 0 00-7.41-6.377c-3.078-1.624-6.828-2.437-11.249-2.439-3.669 0-7.004.657-10.009 1.97a23.814 23.814 0 00-7.779 5.393 24.447 24.447 0 00-5.08 8.033 27.112 27.112 0 00-1.816 10.007c0 3.94.606 7.536 1.815 10.786a23.23 23.23 0 0013.329 13.793c3.177 1.316 6.704 1.972 10.576 1.97 3.804 0 7.07-.413 9.802-1.242 2.733-.828 4.981-1.762 6.74-2.8 1.765-1.041 3.112-2.027 4.048-2.957l1.708-1.711-6.636-7.468v.011zm-54.127.208a15.025 15.025 0 01-5.082 3.793 15.552 15.552 0 01-6.635 1.399c-2.353 0-4.394-.447-6.121-1.339a12.994 12.994 0 01-4.302-3.525 14.962 14.962 0 01-2.545-4.876 18.654 18.654 0 01-.829-5.495c0-1.932.28-3.854.83-5.706a13.675 13.675 0 012.544-4.873 13.02 13.02 0 014.302-3.371c1.727-.863 3.768-1.295 6.121-1.297 2.418 0 4.56.447 6.428 1.34a15.094 15.094 0 014.874 3.732l7.78-7.88a25.022 25.022 0 00-8.298-5.757c-3.25-1.416-6.846-2.125-10.784-2.127-3.868 0-7.41.692-10.634 2.076a24.95 24.95 0 00-13.586 13.845 26.315 26.315 0 00-1.92 10.009c0 3.868.588 7.394 1.766 10.578a23.067 23.067 0 005.082 8.193c2.21 2.28 4.943 4.044 8.193 5.288 3.25 1.245 6.95 1.868 11.099 1.868s7.78-.726 10.888-2.178a26.238 26.238 0 008.09-5.801l-7.261-7.883v-.013zm-59.098-2.9a6.766 6.766 0 01-.994 3.524 10.683 10.683 0 01-2.544 2.901 12.616 12.616 0 01-7.782 2.695c-2.905 0-5.1-.587-6.586-1.762-1.486-1.175-2.23-2.8-2.232-4.875 0-2.004.795-3.784 2.386-5.34 1.59-1.556 4.356-2.334 8.296-2.334.764 0 1.677.017 2.752.051 1.07.036 2.099.087 3.066.157 1.178.069 2.383.138 3.638.207V72.637zm.296 17.162h11.34V57.17a17.315 17.315 0 00-1.416-7.104 15.792 15.792 0 00-4.133-5.6 19.372 19.372 0 00-6.47-3.631c-2.53-.863-5.347-1.295-8.448-1.296a44.906 44.906 0 00-7.623.57c-1.954.326-3.88.812-5.754 1.453a25.528 25.528 0 00-4.356 1.97 42.682 42.682 0 00-3.317 2.127l5.6 8.296a36.88 36.88 0 015.498-2.901c2.074-.892 4.839-1.339 8.295-1.339 3.112 0 5.645.694 7.587 2.075 1.942 1.382 2.913 3.285 2.913 5.706v1.14l-3.846-.208c-1.117-.069-2.253-.12-3.427-.156a105.035 105.035 0 00-3.216-.051c-2.941-.03-5.87.354-8.703 1.14-2.629.763-4.876 1.887-6.74 3.372a15.393 15.393 0 00-4.359 5.495c-1.04 2.178-1.562 4.65-1.562 7.417 0 2.695.502 5.045 1.504 7.05.93 1.916 2.276 3.6 3.94 4.927a16.827 16.827 0 005.394 2.854c1.928.615 3.94.93 5.964.933 3.319 0 6.327-.623 9.022-1.868 2.697-1.245 4.7-2.678 6.025-4.277l.31 4.536h-.022zm-55.016 0H349.1V20.598h-12.272V89.8zm-47.017-26.291c.016-1.477.311-2.938.873-4.304a14.25 14.25 0 012.483-4.097 13.081 13.081 0 013.887-3.059 10.801 10.801 0 015.08-1.191c2.35 0 4.32.397 5.911 1.191a10.798 10.798 0 013.89 3.215 13.206 13.206 0 012.177 4.72c.459 1.899.684 3.847.67 5.8a17.041 17.041 0 01-.933 5.601 14.8 14.8 0 01-2.75 4.822 13.903 13.903 0 01-4.408 3.423 12.983 12.983 0 01-5.9 1.296c-4.908 0-8.626-1.002-10.984-3.008V63.502l.004.007zm-12.093 47.032h12.107V88.898c.943.349 1.735.67 2.53.987.846.326 1.71.604 2.588.83a23.99 23.99 0 003.108.569c1.36.15 2.729.219 4.097.207a26.983 26.983 0 0010.11-1.97c3.284-1.312 6.31-3.628 9.074-6.948a27.132 27.132 0 004.15-7.053c1.106-2.696 1.658-5.945 1.658-9.749a33.206 33.206 0 00-1.339-9.438 25.381 25.381 0 00-4.045-8.142 20.339 20.339 0 00-6.792-5.754c-2.732-1.452-5.965-2.178-9.697-2.178-1.834-.02-3.664.19-5.446.623-1.501.371-2.961.894-4.356 1.562a17.053 17.053 0 00-3.318 2.072 21.304 21.304 0 00-2.333 2.178l-.313-5.498h-11.783v69.345zm-53.15-20.75h12.271V72.628l5.277-5.212L256.21 89.79h14.623l-20.335-30.678 18.251-17.917h-14.414l-17.504 17.22V20.597h-12.272v69.189l.01.004zm-39.626 0h12.272V63.6a11.506 11.506 0 013.617-8.609 11.356 11.356 0 013.94-2.385 13.839 13.839 0 014.771-.83c1.024-.01 2.046.059 3.06.208.87.142 1.723.385 2.538.725l2.49-11.511a15.053 15.053 0 00-2.854-.725 21.67 21.67 0 00-3.161-.208 18.04 18.04 0 00-5.342.725 19.643 19.643 0 00-4.096 1.763 16.362 16.362 0 00-3.06 2.282 24.332 24.332 0 00-2.126 2.28l-.31-6.12h-11.732v48.59l-.007.005zm-41.99-10.264a13.052 13.052 0 01-4.304-3.682 16.134 16.134 0 01-2.541-4.977 18.254 18.254 0 01-.83-5.393c.013-1.812.292-3.612.83-5.342a15.398 15.398 0 012.541-4.978 13.317 13.317 0 014.304-3.63c1.727-.933 3.767-1.4 6.119-1.401 2.351-.002 4.391.465 6.12 1.4a13.327 13.327 0 014.302 3.631 15.398 15.398 0 012.541 4.978c.538 1.73.818 3.53.83 5.342a18.254 18.254 0 01-.83 5.393 16.134 16.134 0 01-2.541 4.977 13.074 13.074 0 01-4.302 3.682c-1.729.933-3.769 1.4-6.12 1.4-2.352 0-4.392-.467-6.119-1.4zm-12.756 4.253a24.831 24.831 0 008.256 5.652c3.216 1.38 6.76 2.071 10.63 2.072 3.87.002 7.413-.689 10.63-2.072a24.856 24.856 0 008.255-5.652 26.838 26.838 0 005.342-28.315 25.567 25.567 0 00-5.342-8.255 25.272 25.272 0 00-8.256-5.6c-3.212-1.384-6.756-2.076-10.63-2.076-3.873 0-7.416.692-10.63 2.075a25.24 25.24 0 00-8.255 5.6 25.492 25.492 0 00-5.341 8.256 26.616 26.616 0 005.341 28.315zm-25.213 2.878c-1.609 1.923-4.547 4.909-9.184 4.909-6.548 0-8.661-4.708-10.647-9.686l-9.84-24.175-9.786 24.166c-1.672 4.124-3.479 9.697-10.655 9.697-7.175 0-8.996-5.578-10.67-9.697l-16.51-40.655H41.62l13.256 33.468 9.88-24.392c1.562-3.86 3.427-9.688 10.56-9.688 7.134 0 9.012 5.83 10.583 9.688l10.746 26.41a41.137 41.137 0 006.848-22.79c0-22.822-18.502-41.321-41.323-41.323a48.77 48.77 0 00.033 97.537 49.21 49.21 0 0013.183-1.803v12.959a61.945 61.945 0 01-13.183 1.43 61.353 61.353 0 01-43.926-17.663 61.363 61.363 0 01-.024-87.358A61.36 61.36 0 0162.17.005c29.771 0 53.907 24.136 53.907 53.907a53.665 53.665 0 01-11.083 32.746h-.01z" fill="#20252D"/></svg>