<svg width="256px" height="256px" viewBox="0 0 256 256" xmlns="http://www.w3.org/2000/svg" preserveAspectRatio="xMidYMid"><path d="M86.8392157 256h82.3215683v-62.243137l-20.078431-20.078432h-42.666667l-19.5764703 20.078432V256zM193.254902 86.8392157l-19.576471 19.5764703v43.168628l19.576471 19.57647H256V86.8392157h-62.745098zM169.160784 0H86.8392157v62.745098l19.5764703 19.5764706h42.666667l20.078431-19.5764706V0zM256 256v-62.243137l-19.576471-20.078432h-62.745098V256H256zM19.5764706 0 0 19.5764706v62.745098h82.3215686V0h-62.745098zM173.678431 0v62.745098l19.576471 19.5764706H256V0h-82.321569zM128 140.047059c-6.52549 0-11.545098-5.521569-11.545098-11.545098 0-6.52549 5.521569-11.545098 11.545098-11.545098 6.52549 0 11.545098 5.521568 11.545098 11.545098 0 6.023529-5.019608 11.545098-11.545098 11.545098zM82.3215686 86.8392157H0v82.3215683h62.2431373l20.0784313-19.57647V86.8392157zm0 106.9176473-20.0784313-20.078432H0V256h62.2431373l20.0784313-19.576471v-42.666666z" fill="#40bac8"/></svg>