<svg width="512px" height="149px" viewBox="0 0 512 149" xmlns="http://www.w3.org/2000/svg" preserveAspectRatio="xMidYMid"><title>Wufoo</title><path d="M142.656489 0l-3.582698 70.279491 5.862596-41.9436132 29.964376 3.908397-8.793893 63.1857506c-2.279898 16.6106866 1.954199 27.0330786 13.67939 28.6615776 11.480916 1.594572 18.590048-5.866695 21.02163-22.689564l8.942746-63.9465682 26.241628 3.745547-2.139846-25.2417303 71.653944-6.18829514L307.46056 34.524173l-41.363868 3.2569974 1.628498 20.519084 39.08397-3.2569974 1.520678 18.7652508c4.306026-27.0780746 24.369846-47.1011286 54.825378-47.1011286 17.879896 0 31.378226 6.5325148 40.455592 16.7607778C409.266296 18.5884395 428.782672.651399492 457.608142.651399492 493.760814.651399492 512 27.3587786 512 57.3231552c-.3257 35.826972-21.821882 58.6259538-56.346056 58.6259538-17.230376 0-30.647828-6.490084-39.766492-16.8385002-5.665758 26.6341622-25.530292 42.8944802-54.686434 42.8944802-34.524174 0-53.740458-26.05598-53.740458-56.9974554 0-1.9500836.075892-3.875648.226002-5.7726382l-38.007172 3.1670402 3.582696 42.3409674-29.964376 2.605598-5.989618-70.6247334-6.386972 46.1972524c-4.885496 34.198473-24.427482 48.854961-55.368957 44.620865-21.765182-3.042445-34.953836-13.652413-38.840937-32.554932l-32.161608 6.173252L88.2869056 78.12571h0l-1.2443282-3.3744694c-.2063714-.5671406-.4124114-1.1369992-.6183852-1.710106l-1.2371686-3.4818648h0L83.938718 65.973987h0l-1.9211844-5.6275188h0l-4.1752944-12.4686056h0-.3256998l.7591926 15.2840886h0l.257749 5.9079402h0l.1333824 3.764275h0l.0951974 3.6433558c.0369918 1.7940996.0572776 3.5488212.0572776 5.273114v44.6208648l-32.2442748 6.513995L0 27.6844784l31.5928754-6.1882952 14.3307888 39.4096692c1.302799 3.5361686 2.6055978 7.205276 3.8932038 10.900971l1.9181152 5.5501896h0l4.6208058 13.5265098h0l1.7486184 5.06164c.2855806.8192346.5680754 1.6251752.8472466 2.4161604h.3256996c-.6513994-12.7022902-.9770992-26.3816794-.9770992-40.3867684l-.9770992-41.038168 31.5928754-6.1882952 14.9821884 41.038168c3.039864 8.2510602 5.645462 15.9230986 8.202808 23.6916406l2.555559 7.8257296c.428012 1.3179892.858257 2.6449142 1.292523 3.983902h.3257l-.837513-16.6391738h0l-1.116685-22.7704954h0l-1.302799-42.01526718L142.656489 0zm219.847327 50.1577608c-14.394764 0-22.820272 14.1377162-23.116594 32.8477492l-.008088 1.0250244c-.319984 19.8391146 8.476816 33.7051616 22.375266 34.1855836l1.075116.01289c14.33079 0 22.798982-14.005089 22.798982-34.1984736 0-19.216285-8.468192-33.8727736-23.124682-33.8727736zm94.452928-26.0559796c-14.394766 0-22.820274 14.1377162-23.116594 33.1563104l-.008088 1.0421628c-.3257 20.1933842 8.793892 34.1984734 23.124682 34.1984734l.325698-.3256998c14.33079 0 22.798982-14.005089 22.798982-34.1984732 0-19.216285-8.468192-33.8727736-23.12468-33.8727736z" fill="#e66760"/></svg>