<svg width="256" height="260" xmlns="http://www.w3.org/2000/svg" preserveAspectRatio="xMidYMid"><path d="M216.514 259.317c17.957-17.916 29.972-40.317 33.4-62.274 3.43-21.959-2.007-41.676-15.115-54.814l-67.708 67.55 49.423 49.538z" fill="#06D6A0"/><path d="M39.487 259.704C21.53 241.788 9.515 219.388 6.086 197.429c-3.43-21.958 2.008-41.675 15.116-54.814l67.708 67.55-49.423 49.539z" fill="#FFBE0B"/><path d="M0 68.049a95.641 95.641 0 0028.092 67.596l.001-.002 67.7 67.541a95.643 95.643 0 00-.159-135.258l-.001.002-67.7-67.54A95.642 95.642 0 000 68.048z" fill="#FF0075"/><path d="M256 67.661a95.64 95.64 0 01-28.092 67.597l-.002-.003-67.699 67.541a95.645 95.645 0 01.158-135.257l.002.001L228.067 0A95.643 95.643 0 01256 67.661z" fill="#0076FF"/></svg>