<svg width="256px" height="260px" viewBox="0 0 256 260" xmlns="http://www.w3.org/2000/svg" preserveAspectRatio="xMidYMid"><title>xata</title><path d="M216.513549 259.316717c17.957369-17.915599 29.972205-40.316225 33.401276-62.274084 3.42907-21.958417-2.008321-41.675712-15.11587-54.813893l-67.708134 67.549407 49.422728 49.53857z" fill="#06d6a0"/><path d="M39.4872875 259.703789C21.5298064 241.78819 9.51508231 219.387564 6.08595594 197.429148c-3.42912637-21.957859 2.00820904-41.675155 15.11592496-54.813892l67.7081339 67.549963-49.4227273 49.53857z" fill="#ffbe0b"/><path d="M0 68.0489803C.0297504117 93.4147467 10.1346765 117.72957 28.0917678 135.644613l.0016708-.001671 67.6997798 67.541052c17.9150426-17.95737 27.9627706-42.295584 27.9333176-67.661351-.029582-25.365766-10.134675-49.6805898-28.0920451-67.5961892l-.0016708.0016708L27.9335972.387239377C10.0183877 18.3444978-.0296192382 42.6832138 0 68.0489803z" fill="#ff0075"/><path d="M256 67.6613511c-.029583 25.3657664-10.134676 49.6811469-28.092046 67.5961889l-.00167-.002227-67.699223 67.541052c-17.915043-17.95737-27.963328-42.296142-27.933875-67.661908.030139-25.36521 10.134676-49.6805899 28.092045-67.5956324l.002228.0016708L228.066682 3.16582915e-14C245.981724 17.9572584 256.029453 42.2955846 256 67.6613511z" fill="#0076ff"/></svg>