<svg width="512px" height="156px" viewBox="0 0 512 156" xmlns="http://www.w3.org/2000/svg" preserveAspectRatio="xMidYMid"><path d="M296.357647 126.996078c5.220392-1.204705 8.83451-4.417254 11.243922-9.637647 1.204706-2.81098 2.007843-6.425098 2.81098-11.243921.803137-4.818824.803137-8.83451.803137-12.4486276v-4.4172549h-24.094117c0 2.0078431 0 3.6141176 0 5.6219607 0 1.6062745 0 3.6141177 0 5.2203918 0 2.409412-.401569 4.818824-.803138 7.228236-.401568 2.409411-2.409411 3.614117-5.62196 3.614117-3.212549 0-5.220393-1.204706-5.621961-3.614117-.401569-2.409412-.803137-4.818824-.803137-7.228236 0-7.6298035 0-15.6611761-.401569-23.6925486 0-8.0313726 0-15.6611765.401569-23.692549 0-6.0235295 2.007843-8.8345099 6.023529-8.8345099 4.015686 0 6.023529 2.8109804 6.023529 8.8345099 0 1.6062745 0 3.6141176 0 5.2203921 0 1.6062745 0 3.6141177 0 5.2203922h23.692549c-.401568-3.6141177-.803137-7.2282353-1.204705-11.6454902-.401569-4.4172549-1.204706-7.629804-2.007844-10.0392157-2.007843-6.0235294-5.62196-10.0392157-10.842353-12.0470588-5.220392-1.6062745-10.440784-2.8109804-16.062745-2.8109804-5.62196 0-11.243921.8031372-16.062745 2.8109804-5.220392 1.6062745-8.83451 5.6219607-10.842353 12.0470588-1.204706 2.8109804-2.007843 6.8266667-2.81098 11.6454902-.803137 4.8188235-1.204706 9.2360784-1.204706 14.4564706v22.8894117c0 5.2203922.401569 10.0392157 1.204706 15.2596077.803137 5.220392 2.007843 8.83451 3.212549 11.64549 2.409412 5.220393 6.023529 8.432942 11.243921 9.236079 5.220393 1.204706 10.039216 1.606274 15.259608 1.606274 6.425098.401569 11.243922 0 16.464314-1.204706z"/><path d="M342.939608 88.8470588l5.621961-44.9756863h.401568l5.621961 44.9756863h-11.64549zm14.054902 18.0705882 2.81098 20.881569h24.094118l-17.267451-99.5890199h-35.338039l-17.267451 99.1874509h24.094117l2.810981-20.881569h16.062745v.401569z"/><path d="M389.12 127.397647h23.692549V90.4533333h4.015686c4.015687 0 6.425098.8031373 7.629804 2.4094118 1.204706 1.6062745 1.606275 4.0156863 1.606275 6.8266667v27.7082352h24.094117v-22.889412c0-6.0235291-1.204706-11.2439213-4.015686-15.2596075-2.81098-4.0156863-6.826667-6.4250981-12.047059-7.629804v-.4015686c5.220392-.8031373 8.83451-2.8109804 11.243922-6.0235294 2.007843-2.4094118 3.212549-5.6219608 3.614117-8.8345098.401569-3.6141177.401569-6.8266667.401569-10.0392157 0-4.4172549-.401569-8.4329412-.803137-12.4486275-.401569-4.0156862-2.409412-7.6298039-6.02353-10.0392156-3.212549-2.4094118-7.228235-4.0156863-12.047058-4.4172549-4.417255-.4015687-8.83451-.8031373-12.850196-.8031373h-29.716079v98.7858823H389.12zm23.692549-81.5184313h5.621961c3.212549 0 5.220392.8031372 6.425098 2.0078431 1.204706 1.2047059 1.606274 3.6141177 1.606274 6.4250981 0 1.6062745 0 2.8109804 0 4.0156862 0 1.2047059 0 2.4094118 0 3.6141177 0 2.4094117-.401568 4.4172549-.803137 6.0235294-.401569 1.6062745-1.606274 2.8109804-2.81098 3.6141176-1.204706.8031373-2.810981 1.2047059-5.621961 1.2047059h-4.417255v-26.905098z"/><path d="M455.378824 47.4854902h16.062745v79.9121568h23.692549V47.4854902h16.062745V28.2101961h-56.219608v19.2752941z"/><g style="fill:#f29221"><path d="M213.63451 64.3513725h0l-8.031373-36.1411764h-24.495686l14.858039 47.385098-16.062745 52.2039219H204.8l8.031373-38.9521572h.401568l8.432941 38.9521572h24.897255l-16.062745-51.8023533 14.858039-47.385098h-24.495686z"/><path d="M20.8546594 0H134.753184c11.229432 0 20.854659 9.22417627 20.854659 20.8546594V134.753184c0 11.229432-9.224176 20.854659-20.854659 20.854659H20.8546594C9.62522741 155.607843 0 146.383667 0 134.753184V20.8546594C.401051142 9.22417627 9.62522741 0 20.8546594 0z"/></g><g style="fill:#fff"><path d="M122.076863 77.5027451c-2.409412 2.4094118-6.826667 6.8266667-10.842353 10.8423529 3.614117 3.6141177 8.432941 8.4329412 10.440784 10.4407844.803137.8031372 1.606275 2.4094116 1.606275 3.6141176 0 5.621961 0 13.251765 0 18.873725 0 2.007844-.401569 2.409412-2.409412 2.409412-7.228235 0-7.228235 0-8.83451 0 0-3.614117 0-8.83451 0-14.45647 0-2.007843-.401569-2.810981-1.606274-4.015687-2.007844-2.007843-7.629804-7.6298035-9.637648-9.6376467-1.2047054-1.2047058-2.8109799-1.6062745-4.0156858-1.6062745-7.2282353 0-26.5035294 0-31.7239216 0-1.6062745 0-3.212549.4015687-4.0156862 1.6062745-2.0078432 2.0078432-7.6298039 7.6298037-9.6376471 9.6376467-1.2047059 1.204706-1.6062745 2.007844-1.6062745 4.015687 0 4.417255 0 7.629804 0 11.64549 0 2.007843-.4015686 2.81098-2.8109804 2.81098-1.2047059 0-1.6062745 0-8.8345098 0 0-4.417255 0-14.45647 0-21.283137 0-1.204706.8031373-2.8109804 1.6062745-3.6141176 2.4094118-2.4094118 6.8266667-6.8266667 10.842353-10.842353-3.6141177-3.6141176-8.4329412-8.4329412-10.4407844-10.4407843-.8031372-.8031373-1.6062745-2.4094118-1.6062745-3.6141176 0-6.8266667 0-33.7317648 0-38.1490197 10.4407843 0 9.6376471 0 11.6454902 0 0 3.6141177 0 25.7003922 0 31.322353 0 2.0078431.4015687 2.8109804 1.6062745 4.0156863 2.0078432 2.0078431 7.629804 7.6298039 9.6376471 9.637647 1.2047059 1.2047059 2.8109804 1.6062745 4.0156863 1.6062745 6.8266666 0 26.5035294 0 31.7239215 0 1.6062746 0 3.2125492-.4015686 4.0156862-1.6062745 2.007843-2.0078431 7.629804-7.6298039 9.637647-9.637647 1.204706-1.2047059 1.606275-2.0078432 1.606275-4.0156863 0-5.2203922 0-27.7082353 0-31.322353 1.606274 0 1.204706 0 11.64549 0 0 4.4172549 0 31.322353 0 38.1490197-.401569 1.6062745-1.204706 2.8109803-2.007843 3.6141176z"/><path d="M61.8415686 57.8258824h8.4329412v8.4329411h-8.4329412z"/><path d="M93.1639216 57.8258824h8.4329414v8.4329411h-8.4329414z"/><path d="M61.8415686 42.1647059h8.4329412v8.4329412h-8.4329412z"/><path d="M93.1639216 42.1647059h8.4329414v8.4329412h-8.4329414z"/><path d="M77.5027451 57.8258824h8.4329412v8.4329411h-8.4329412z"/><path d="M77.5027451 42.1647059h8.4329412v8.4329412h-8.4329412z"/></g><g style="fill:#b14c26"><path d="M50.1960784 132.116078c-3.6141176 0-6.8266666-2.81098-7.6298039-6.023529h6.425098c1.6062746 0 3.2125491-1.606274 3.2125491-3.212549v-6.425098c3.6141176.803137 6.0235294 4.015686 6.0235294 7.629804 0 4.417255-3.6141177 8.031372-8.0313726 8.031372z"/><path d="M124.084706 132.116078c-3.614118 0-6.826667-2.409411-7.629804-6.023529H122.88c1.606275 0 3.212549-1.606274 3.212549-3.212549v-6.425098c3.614118.803137 6.023529 4.015686 6.023529 7.629804 0 4.417255-3.614117 8.031372-8.031372 8.031372z"/></g></svg>