<svg width="256px" height="262px" viewBox="0 0 256 262" xmlns="http://www.w3.org/2000/svg" preserveAspectRatio="xMidYMid"><title>Xcode</title><defs><linearGradient x1="49.997009%" y1="100.064806%" x2="49.997009%" y2="-0.0159521436%" id="a"><stop stop-color="#1578e4" offset="0%"/><stop stop-color="#00c3f2" offset="100%"/></linearGradient><linearGradient x1="51.6818182%" y1="99.5466667%" x2="51.6818182%" y2="-0.213333333%" id="b"><stop stop-color="#1492e7" offset="0%"/><stop stop-color="#dbedfb" offset="100%"/></linearGradient><linearGradient x1="47.1%" y1="99.5466667%" x2="47.1%" y2="-0.213333333%" id="c"><stop stop-color="#1492e7" offset="0%"/><stop stop-color="#dbedfb" offset="100%"/></linearGradient><linearGradient x1="49.7%" y1="99.5466667%" x2="49.7%" y2="-0.213333333%" id="d"><stop stop-color="#1492e7" offset="0%"/><stop stop-color="#dbedfb" offset="100%"/></linearGradient><linearGradient x1="50.2%" y1="99.5466667%" x2="50.2%" y2="-0.213333333%" id="e"><stop stop-color="#1492e7" offset="0%"/><stop stop-color="#dbedfb" offset="100%"/></linearGradient><linearGradient x1="45.8%" y1="99.5466667%" x2="45.8%" y2="-0.213333333%" id="f"><stop stop-color="#1492e7" offset="0%"/><stop stop-color="#dbedfb" offset="100%"/></linearGradient><linearGradient x1="46.9166667%" y1="99.5466667%" x2="46.9166667%" y2="-0.213333333%" id="g"><stop stop-color="#1492e7" offset="0%"/><stop stop-color="#dbedfb" offset="100%"/></linearGradient><linearGradient x1="51.2%" y1="99.5466667%" x2="51.2%" y2="-0.213333333%" id="h"><stop stop-color="#1492e7" offset="0%"/><stop stop-color="#dbedfb" offset="100%"/></linearGradient><linearGradient x1="52.6%" y1="99.5466667%" x2="52.6%" y2="-0.213333333%" id="i"><stop stop-color="#1492e7" offset="0%"/><stop stop-color="#dbedfb" offset="100%"/></linearGradient><linearGradient x1="48.0454545%" y1="99.5466667%" x2="48.0454545%" y2="-0.213333333%" id="j"><stop stop-color="#1492e7" offset="0%"/><stop stop-color="#dbedfb" offset="100%"/></linearGradient><linearGradient x1="49.9484144%" y1="99.9428385%" x2="49.9484144%" y2="0.0384870991%" id="k"><stop stop-color="#1285e7" offset="0%"/><stop stop-color="#00b5ef" offset="100%"/></linearGradient><linearGradient x1="66.5598353%" y1="100.134948%" x2="33.1852289%" y2="0.0968858131%" id="l"><stop stop-color="#2b90e7" offset="0%"/><stop stop-color="#00b6ef" offset="100%"/></linearGradient><linearGradient x1="66.7683223%" y1="100.21273%" x2="33.1888392%" y2="0.149078727%" id="m"><stop stop-color="#3795ea" offset="0%"/><stop stop-color="#49c4f2" offset="100%"/></linearGradient><linearGradient x1="66.7432345%" y1="99.892916%" x2="33.2548494%" y2="0.153212521%" id="n"><stop stop-color="#3696ea" offset="0%"/><stop stop-color="#90d9f6" offset="100%"/></linearGradient><linearGradient x1="66.8180557%" y1="99.8862876%" x2="33.3245853%" y2="-0.0886287625%" id="o"><stop stop-color="#3097ea" offset="0%"/><stop stop-color="#b5e5f9" offset="100%"/></linearGradient><linearGradient x1="66.8369893%" y1="99.9757366%" x2="33.3877313%" y2="-0.110918544%" id="p"><stop stop-color="#3a98ea" offset="0%"/><stop stop-color="#bce7fa" offset="100%"/></linearGradient><linearGradient x1="1.22727273%" y1="67.6060606%" x2="99.3484848%" y2="31.5550964%" id="q"><stop stop-color="#00a4ec" offset="0%"/><stop stop-color="#b9dff6" offset="100%"/></linearGradient><linearGradient x1="-0.196969697%" y1="66.3471074%" x2="97.9090909%" y2="29.437787%" id="r"><stop stop-color="#00a4ec" offset="0%"/><stop stop-color="#b9dff6" offset="100%"/></linearGradient><linearGradient x1="-4.09090909%" y1="62.7460315%" x2="93.3939394%" y2="25.8463787%" id="s"><stop stop-color="#00b4ef" offset="0%"/><stop stop-color="#c3e9fa" offset="100%"/></linearGradient><linearGradient x1="-3.99640072%" y1="62.6507421%" x2="91.1817636%" y2="26.5673709%" id="t"><stop stop-color="#00b4ef" offset="0%"/><stop stop-color="#c3e9fa" offset="100%"/></linearGradient><linearGradient x1="50.0413752%" y1="100.188302%" x2="50.0413752%" y2="-0.0337564272%" id="u"><stop stop-color="#1285e7" offset="0%"/><stop stop-color="#00b5ef" offset="100%"/></linearGradient><linearGradient x1="33.3279318%" y1="100.227036%" x2="66.9185923%" y2="0.0190641248%" id="v"><stop stop-color="#3194e9" offset="0%"/><stop stop-color="#71cff4" offset="100%"/></linearGradient><linearGradient x1="33.2667273%" y1="100.304858%" x2="66.8501048%" y2="0.227805695%" id="w"><stop stop-color="#5aa6ec" offset="0%"/><stop stop-color="#a2def8" offset="100%"/></linearGradient><linearGradient x1="33.2984646%" y1="99.8105437%" x2="66.6919818%" y2="0.0708401977%" id="x"><stop stop-color="#66abee" offset="0%"/><stop stop-color="#bee8fa" offset="100%"/></linearGradient><linearGradient x1="33.1742352%" y1="99.9698492%" x2="66.7800056%" y2="-0.172529313%" id="y"><stop stop-color="#7bb6f0" offset="0%"/><stop stop-color="#b1e3f9" offset="100%"/></linearGradient><linearGradient x1="33.2024185%" y1="99.9514731%" x2="66.5685326%" y2="-0.187175043%" id="z"><stop stop-color="#5aa6ec" offset="0%"/><stop stop-color="#afe3f9" offset="100%"/></linearGradient><linearGradient x1="8.38329875%" y1="26.3755789%" x2="104.985154%" y2="63.3655682%" id="A"><stop stop-color="#c1e7fa" offset="0%"/><stop stop-color="#89d4f5" offset="100%"/></linearGradient><linearGradient x1="6.80597015%" y1="27.8330469%" x2="103.462687%" y2="62.708304%" id="B"><stop stop-color="#c1e7fa" offset="0%"/><stop stop-color="#89d4f5" offset="100%"/></linearGradient><linearGradient x1="5.56716418%" y1="29.4954333%" x2="102.208955%" y2="63.6362219%" id="C"><stop stop-color="#c1e7fa" offset="0%"/><stop stop-color="#89d4f5" offset="100%"/></linearGradient><linearGradient x1="3.89552239%" y1="29.9521051%" x2="100.537313%" y2="64.1020272%" id="D"><stop stop-color="#b0dff8" offset="0%"/><stop stop-color="#52bdf2" offset="100%"/></linearGradient><linearGradient x1="3.73134328%" y1="31.3129873%" x2="100.402985%" y2="65.4629093%" id="E"><stop stop-color="#b4def8" offset="0%"/><stop stop-color="#4eb5f0" offset="100%"/></linearGradient><linearGradient x1="3.58208955%" y1="32.6738695%" x2="100.223881%" y2="66.8146581%" id="F"><stop stop-color="#b4def8" offset="0%"/><stop stop-color="#4eb5f0" offset="100%"/></linearGradient><linearGradient x1="2.07462687%" y1="32.9752729%" x2="98.7014925%" y2="67.1160615%" id="G"><stop stop-color="#b5ddf8" offset="0%"/><stop stop-color="#46aeee" offset="100%"/></linearGradient><linearGradient x1="0.52238806%" y1="34.1390065%" x2="97.1791045%" y2="67.4560036%" id="H"><stop stop-color="#96cef4" offset="0%"/><stop stop-color="#46aaee" offset="100%"/></linearGradient><linearGradient x1="2.16363636%" y1="39.3218881%" x2="92.3818182%" y2="60.1845602%" id="I"><stop stop-color="#8fc1f2" offset="0%"/><stop stop-color="#3193ea" offset="100%"/></linearGradient><linearGradient x1="-3.97014925%" y1="37.2082666%" x2="92.6865672%" y2="73.0486813%" id="J"><stop stop-color="#8fc1f2" offset="0%"/><stop stop-color="#3193ea" offset="100%"/></linearGradient><linearGradient x1="-4.11940299%" y1="36.0083606%" x2="92.5223881%" y2="73.5799588%" id="K"><stop stop-color="#8fc1f2" offset="0%"/><stop stop-color="#3193ea" offset="100%"/></linearGradient><linearGradient x1="45.5937817%" y1="48.14%" x2="53.2405163%" y2="54.5347368%" id="L"><stop offset="0.1%"/><stop stop-opacity="0" offset="100%"/></linearGradient><radialGradient cx="64.4820335%" cy="29.6598317%" fx="64.4820335%" fy="29.6598317%" r="42.3574792%" gradientTransform="matrix(.719397 0 0 1 .64482 .296598)rotate(116.705984)translate(-.64482 -.296598)" id="V"><stop offset="0%"/><stop stop-opacity="0" offset="100%"/></radialGradient><radialGradient cx="48.3006342%" cy="48.5078314%" fx="48.3006342%" fy="48.5078314%" r="73.4044487%" gradientTransform="matrix(.700649 0 0 1 .483006 .485078)rotate(26.116636)translate(-.483006 -.485078)" id="W"><stop stop-color="#0c0c12" offset="41.7%"/><stop stop-color="#3d4651" offset="100%"/></radialGradient><linearGradient x1="40.33462%" y1="40.6763006%" x2="60.7083596%" y2="55.0549133%" id="M"><stop stop-color="#344351" offset="0%"/><stop stop-color="#9697a0" offset="10%"/><stop stop-color="#8b8c95" offset="18.1%"/><stop stop-color="#787a83" offset="35.1%"/><stop stop-color="#71747d" offset="47%"/><stop stop-color="#777982" offset="59.1%"/><stop stop-color="#87898f" offset="74.9%"/><stop stop-color="#8e8f94" offset="80%"/><stop stop-color="#3d3b42" offset="84.9%"/><stop stop-color="#606e84" offset="90%"/></linearGradient><linearGradient x1="74.136314%" y1="89.045968%" x2="18.5029381%" y2="4.37796999%" id="N"><stop stop-color="#262b33" offset="27%"/><stop stop-color="#74747e" offset="45%"/><stop stop-color="#b0b0bc" offset="54%"/><stop stop-color="#74747e" offset="73%"/></linearGradient><linearGradient x1="-1.74958249%" y1="55.3282043%" x2="97.9170936%" y2="48.1215475%" id="O"><stop stop-color="#606e84" offset="14%"/><stop stop-color="#9899a5" offset="40%"/><stop stop-color="#475768" offset="73%"/><stop stop-color="#262b33" offset="92%"/></linearGradient><linearGradient x1="52.1559441%" y1="71.3939241%" x2="41.5517795%" y2="26.3025475%" id="P"><stop stop-color="#101215" stop-opacity="0.1" offset="0%"/><stop stop-color="#101215" stop-opacity="0.7" offset="46%"/><stop stop-color="#474951" offset="70%"/><stop stop-color="#7b7d88" offset="91%"/></linearGradient><linearGradient x1="42.6281223%" y1="42.6158885%" x2="57.8382698%" y2="54.0125254%" id="Q"><stop stop-color="#2c3952" offset="11.5%"/><stop stop-color="#3d414e" offset="37.4%"/><stop stop-color="#474a54" offset="55%"/><stop stop-color="#4e5057" offset="75.4%"/><stop stop-color="#323945" offset="89.2%"/><stop stop-color="#143052" offset="100%"/></linearGradient><linearGradient x1="29.790026%" y1="69.5002733%" x2="58.0648946%" y2="23.5423464%" id="R"><stop stop-color="#6d7078" stop-opacity="0" offset="11.8%"/><stop stop-color="#6d7078" stop-opacity="0.7" offset="20%"/><stop stop-color="#35363a" offset="34%"/><stop stop-color="#1d1f22" offset="37.4%"/><stop stop-color="#101215" offset="40%"/><stop stop-color="#16171a" offset="50%"/><stop stop-color="#292a2e" offset="56%"/><stop stop-color="#4b4d51" offset="68.8%"/><stop stop-color="#63666b" offset="80.7%"/><stop stop-color="#72757b" offset="91.5%"/><stop stop-color="#777a80" offset="100%"/></linearGradient><linearGradient x1="-0.164118631%" y1="50.0043285%" x2="99.9573642%" y2="50.0043285%" id="S"><stop stop-color="#4a4d56" offset="0%"/><stop stop-color="#29292d" offset="100%"/></linearGradient><linearGradient x1="-0.189811699%" y1="49.5838027%" x2="99.9358594%" y2="49.5838027%" id="T"><stop stop-color="#767880" offset="0%"/><stop stop-color="#0c0a0b" offset="41%"/></linearGradient><linearGradient x1="31.7262767%" y1="89.0314465%" x2="67.0245243%" y2="8.6918239%" id="U"><stop stop-color="#858997" offset="0%"/><stop stop-color="#244668" offset="23%"/><stop stop-color="#1a3249" offset="28.2%"/><stop stop-color="#040506" offset="40%"/><stop stop-color="#313236" offset="46.4%"/><stop stop-color="#65656e" offset="54.6%"/><stop stop-color="#868691" offset="60.7%"/><stop stop-color="#92929e" offset="64%"/></linearGradient></defs><path d="M49.8468558 18.8917307H178.447191c27.540957 0 49.846856 22.305899 49.846856 49.8468558V197.338922c0 27.540957-22.305899 49.846856-49.846856 49.846856H49.8468558C22.3058989 247.185778 0 224.879879 0 197.338922V68.7385865c0-27.5409568 22.3058989-49.8468558 49.8468558-49.8468558z" fill="url(#a)"/><path d="M174.577801 31.1827363H53.7162464c-22.9887326 0-41.6528521 18.6641195-41.6528521 41.6528521V193.697143c0 22.988732 18.6641195 41.652852 41.6528521 41.652852H174.577801c22.988732 0 41.652852-18.66412 41.652852-41.652852V72.6079772c0-22.9887326-18.66412-41.4252409-41.652852-41.4252409zm38.238684 162.9696287c0 20.940232-16.84323 37.783462-37.783462 37.783462H53.261024c-20.7126204 0-37.7834615-16.84323-37.7834615-37.783462V72.1527547c0-20.9402316 16.8432298-37.7834614 37.7834615-37.7834614h121.999611c20.71262 0 37.783461 16.8432298 37.783461 37.7834614V194.152365h-.227611z" fill="#fff"/><path d="M114.48844 39.37674c-51.4401338 0-93.3205971 41.8804633-93.3205971 93.320598 0 51.440134 41.8804633 93.320597 93.3205971 93.320597 51.667746 0 93.320598-41.880463 93.320598-93.320597 0-51.4401347-41.880463-93.320598-93.320598-93.320598h0zm0 185.275528c-50.7573002 0-91.9549298-41.19763-91.9549298-91.95493 0-50.7573011 41.1976296-91.9549308 91.9549298-91.9549308 50.757301 0 91.954931 41.1976297 91.954931 91.9549308 0 50.7573-41.19763 91.95493-91.954931 91.95493z" fill="#69c5f3"/><path d="M114.48844 58.4960819c-41.1976292 0-74.4288664 33.2312372-74.4288664 74.4288671 0 41.197629 33.2312372 74.201255 74.4288664 74.201255 41.19763 0 74.428867-33.231237 74.428867-74.428866 0-41.1976301-33.458848-74.2012561-74.428867-74.2012561h0zm0 147.0368441c-40.2871844 0-72.8355879-32.548404-72.8355879-72.835588 0-40.2871853 32.5484035-72.8355888 72.8355879-72.8355888 40.287185 0 72.835589 32.5484035 72.835589 72.8355888 0 40.287184-32.776015 72.835588-72.835589 72.835588z" fill="#68c5f4"/><g transform="translate(32.768209 149.768179)"><path d="M10.4779213 0H152.507319c5.917891 0 10.470115 4.77983549 10.470115 10.4701158 0 5.9178916-4.779835 10.4701159-10.470115 10.4701159H10.4779213c-5.91789152 0-10.47011579387-4.7798355-10.47011579387-10.4701159C-.219805708 4.77983549 4.56002978 0 10.4779213 0z" fill="#fff"/><path d="M10.0226989 2.04850092H152.507319c4.552224 0 8.421615 3.64177942 8.421615 8.42161488v.2276112c0 4.5522243-3.64178 8.4216149-8.421615 8.4216149H10.0226989c-4.55222427 0-8.4216149-3.6417794-8.4216149-8.4216149v-.4552224c.22761122-4.55222426 3.86939063-8.19400368 8.4216149-8.19400368z" fill="#0a93e9"/><path fill="#1694ea" d="M6.6085307 18.2088971H156.149098l1.138056-.6828336H5.47047463z"/><path fill="#319dec" d="M3.1943625 15.4775625H159.335655l.455222-.6828336H2.73914007z"/><path fill="#65b1ee" d="M1.82869522 11.1529495H160.928934v-.9104449H1.82869522z"/><path fill="#8ec6f3" d="M3.42197371 5.46266913H159.563266l.227611.45522242.227612.45522243H2.96675128l.22761122-.45522243z"/><path fill="#95caf3" d="M6.83614192 2.73133456H156.149098l.682834.22761122.682833.45522242H5.47047463l.68283364-.45522242z"/><path d="M148.410317 2.04850092h-1.138056c0 0 3.86939 2.73133457 3.86939 8.87683738 0 5.6902803-3.86939 8.1940036-3.86939 8.1940036h1.138056c0 0 3.86939-1.8208897 3.86939-8.1940036 0-6.82833645-3.86939-8.87683738-3.86939-8.87683738z" fill="url(#b)"/><path d="M137.484979 2.04850092h-1.138057c0 0 3.414169 3.18655699 3.414169 8.87683738 0 5.0074467-3.414169 8.1940036-3.414169 8.1940036h1.138057c0 0 3.414168-2.5037233 3.414168-8.1940036-.227611-6.14550281-3.414168-8.87683738-3.414168-8.87683738z" fill="url(#c)"/><path fill="url(#d)" d="M80.8097864 2.04850092h1.138056V19.1193419h-1.138056z"/><path d="M69.6568369 2.04850092h1.138056c0 0-.4552224 4.32461306-.4552224 8.87683738 0 4.0970018.4552224 8.1940036.4552224 8.1940036h-1.138056c0 0-.4552224-4.0970018-.4552224-8.1940036 0-4.55222432.4552224-8.87683738.4552224-8.87683738z" fill="url(#e)"/><path d="M58.7314986 2.04850092h1.1380561c0 0-1.1380561 4.32461306-1.1380561 8.87683738 0 4.0970018 1.1380561 8.1940036 1.1380561 8.1940036h-1.1380561c0 0-1.138056-4.0970018-1.138056-8.1940036 0-4.55222432 1.138056-8.87683738 1.138056-8.87683738z" fill="url(#f)"/><path d="M47.5785492 2.04850092h1.138056c0 0-1.5932785 4.32461306-1.5932785 8.87683738 0 4.0970018 1.5932785 8.1940036 1.5932785 8.1940036h-1.138056c0 0-1.5932785-4.0970018-1.5932785-8.1940036 0-4.55222432 1.5932785-8.87683738 1.5932785-8.87683738z" fill="url(#g)"/><path d="M36.4255997 2.04850092h1.1380561c0 0-2.2761122 3.64177942-2.2761122 8.87683738 0 4.5522242 2.2761122 8.1940036 2.2761122 8.1940036h-1.1380561c0 0-2.2761121-3.6417794-2.2761121-8.1940036 0-5.23505796 2.2761121-8.87683738 2.2761121-8.87683738z" fill="url(#h)"/><path d="M25.2726502 2.04850092h1.1380561c0 0-3.4141682 3.18655699-3.4141682 8.87683738 0 5.0074467 3.4141682 8.1940036 3.4141682 8.1940036h-1.1380561c0 0-3.4141682-2.5037233-3.4141682-8.1940036.2276112-6.14550281 3.4141682-8.87683738 3.4141682-8.87683738z" fill="url(#i)"/><path d="M14.347312 2.04850092h1.138056c0 0-3.8693906 2.73133457-3.8693906 8.87683738 0 5.6902803 3.8693906 8.1940036 3.8693906 8.1940036h-1.138056c0 0-3.8693907-1.8208897-3.8693907-8.1940036 0-6.82833645 3.8693907-8.87683738 3.8693907-8.87683738z" fill="url(#j)"/></g><g transform="translate(90.074579 59.802288)"><path d="M19.634026 5.2945195 90.6487246 128.204575c2.9589458 5.007447 1.1380561 11.380561-3.8693906 14.339506-5.0074467 2.958946-11.3805607 1.138056-14.3395065-3.86939L1.42512887 15.7646353C-1.53381691 10.7571886.287072802 4.38407465 5.2945195 1.42512887 10.3019662-1.53381691 16.6750802.287072802 19.634026 5.2945195z" fill="#fff"/><path d="M17.8131363 6.20496436 89.0554461 129.570242c2.2761122 3.869391.9104449 9.104449-2.9589458 11.380561l-.4552224.227611c-3.8693906 2.276112-9.1044485.910445-11.3805607-2.958946L3.01840737 14.6265793C.74229523 10.7571886 2.10796251 5.52213072 5.97735314 3.24601858l.22761122-.22761121C10.3019662.74229523 15.5370241 2.10796251 17.8131363 6.20496436z" fill="url(#k)"/><path fill="url(#l)" d="M1.8803513 11.2124111 76.5368294 140.723192l.4552224.227611.4552224.227611.4552225.227611L1.8803513 9.84674378v1.36566732z"/><path fill="url(#m)" d="M2.56318494 6.887798 80.6338312 142.088859h.9104449L3.01840737 6.20496436l-.22761122.45522242z"/><path fill="url(#n)" d="M5.74974193 3.47362979 85.4136667 141.178414l.6828336-.455222L6.43257557 3.01840737z"/><path fill="url(#o)" d="M11.4400223 2.10796251 89.2830573 137.081412l-.2276112.455223-.2276112.455222L10.3019662 1.8803513h.4552224l.6828337.22761121z"/><path fill="url(#p)" d="M15.5370241 3.47362979 90.1935022 132.756799v1.365667L14.1713568 2.79079615l.4552225.22761122.4552224.22761121.4552224.22761121z"/><path d="M86.779334 125.47324l-.4552224-.910445c0 0-.4552225 4.552225-5.4626692 7.738782-4.7798355 2.958945-9.1044485.910445-9.1044485.910445l.4552224.910444c0 0 3.6417794 2.503724 9.1044486-.910444 5.4626691-3.186557 5.4626691-7.738782 5.4626691-7.738782zm-5.6902804-9.559671-.4552224-.910445c0 0-1.138056 4.552225-5.9178915 7.283559-4.3246131 2.731335-8.6492262 1.365668-8.6492262 1.365668l.4552225.910444c0 0 3.8693906 1.593279 8.8768373-1.365667 5.0074467-2.958946 5.6902803-7.283559 5.6902803-7.283559h0z" fill="#3c98ea"/><path d="M75.6263845 106.353898l-.4552224-.910444c0 0-2.0485009 3.86939-6.373114 6.373113-3.8693906 2.276113-8.1940037 2.276113-8.1940037 2.276113l.4552224.910444c0 0 4.0970019 0 8.1940037-2.276112 4.3246131-2.503723 6.373114-6.373114 6.373114-6.373114z" fill="#4ca4ed"/><path d="M70.1637154 96.7942274l-.4552224-.9104449c0 0-2.9589458 3.8693907-6.8283364 5.9178915-3.6417795 2.048501-7.9663925 2.731335-7.9663925 2.731335l.4552224.910445c0 0 4.3246131-.682834 7.9663925-2.731335 3.6417794-2.048501 6.8283364-5.9178916 6.8283364-5.9178916z" fill="#4da7ee"/><path d="M47.6302052 58.1003211l.4552225.9104448c0 0-3.8693907 1.8208897-7.7387813 3.8693907C36.704867 64.9286575 33.51831 67.659992 33.51831 67.659992l-.4552224-.9104448c0 0 3.4141682-2.7313346 6.8283364-4.7798355 3.8693906-2.0485009 7.7387812-3.8693906 7.7387812-3.8693906z" fill="url(#q)"/><path d="M42.1675361 48.5406501l.4552224.9104448c0 0-4.324613 1.3656673-7.9663924 3.6417795-3.6417795 2.0485009-6.6007252 5.2350579-6.6007252 5.2350579l-.4552225-.9104449c0 0 2.9589458-3.186557 6.6007252-5.2350579 3.6417795-2.5037233 7.9663925-3.6417794 7.9663925-3.6417794z" fill="url(#r)"/><path d="M31.9250315 41.02948c2.9589458-.9104448 5.2350579-1.3656672 5.2350579-1.3656672l-.4552224-.9104449c0 0-2.0485009.2276112-4.3246131 1.1380561-1.3656673.4552224-1.5932785 1.5932785-.4552224 1.138056h0z" fill="#9dd4f7"/><path d="M25.5519175 19.8616372l.4552224.9104448c0 0-4.324613-1.138056-9.3320597 1.5932785-4.3246131 2.7313346-5.2350579 7.0559476-5.2350579 7.0559476l-.4552225-.9104448c0 0 .4552225-3.8693906 5.235058-6.8283364 5.0074467-3.186557 9.3320597-1.8208897 9.3320597-1.8208897h0z" fill="url(#s)"/><path d="M20.0892484 10.074355l.6828336.9104448c0 0-4.5522242-1.82088967-9.7872822 1.1380561-5.00744666 3.186557-5.00744666 7.5111701-5.00744666 7.5111701l-.68283364-.9104449c0 0-.45522242-3.8693906 5.0074467-7.2835588 5.6902803-3.41416823 9.7872822-1.3656673 9.7872822-1.3656673h0z" fill="url(#t)"/></g><g transform="translate(46.828448 60.25751)"><path d="M48.0854277 89.5106686c19.8021756-34.1416821 42.5632969-73.7460333 42.5632969-73.7460333 2.9589458-5.0074467 1.1380561-11.38056065-3.8693906-14.33950643C81.7718873-1.53381691 75.3987733.287072802 72.4398275 5.2945195c0 0-27.768568 48.2535773-48.7087997 84.2161491h24.3543999 0zM35.7944221 110.4509c-9.5596709 16.388008-16.1603961 28.223791-16.1603961 28.223791-2.9589458 5.007446-9.3320598 6.828336-14.3395065 3.86939-5.007446698-2.958945-6.82833641-9.332059-3.86939063-14.339506 0 0 3.86939063-7.055948 10.01489343-17.526064 7.7387812-.227611 21.8506765-.227611 24.3543998-.227611h0z" fill="#fff"/><path d="M45.5817043 89.5106686c20.0297868-34.5969045 43.2461306-74.8840893 43.2461306-74.8840893 2.2761121-3.8693907.9104449-9.10444858-2.9589458-11.38056072l-.2276112-.22761121c-3.8693906-2.27611214-9.1044485-.91044486-11.3805607 2.95894577 0 0-27.3133456 47.34313246-48.2535773 83.53331546h19.5745644 0zM33.51831 110.4509c-9.1044486 15.932785-15.7051737 27.313346-15.7051737 27.313346-2.2761122 3.86939-7.2835589 5.235058-11.38056073 2.958946h-.45522243c-3.86939063-2.276113-5.23505791-7.283559-2.95894577-11.380561 0 0 4.32461306-7.51117 10.92533823-18.891731H33.51831z" fill="url(#u)"/><path d="M44.8988707 89.5106686l45.2946315-78.2982575V9.84674378c0 0-25.0372335 43.47374182-45.9774652 79.66392482h.6828337 0zM32.6078651 110.4509l-17.2984522 30.04468-.6828336.455223-.6828337.227611c0 0 7.7387813-13.429062 17.7536747-30.727514h.9104448z" fill="url(#v)"/><path d="M41.4847025 89.5106686 89.2830573 6.887798l-.2276112-.45522243-.2276112-.45522243c0 0-26.1752896 45.29463156-48.0259661 83.30570416l.6828337.2276113h0zM29.4213081 110.4509l-18.208897 31.410348h-.9104449c0 0 7.7387813-13.429062 18.2088971-31.637959.4552224.227611.9104448.227611.9104448.227611h0z" fill="url(#w)"/><path d="M36.4772558 89.5106686C59.0107659 50.589151 86.0965003 3.47362979 86.0965003 3.47362979l-.6828336-.45522242-50.074467 86.49226123h1.1380561 0zM24.1862502 110.678511c-10.0148934 17.526064-17.52606342 30.499903-17.52606342 30.499903l-.68283364-.455222c0 0 7.28355886-12.746228 17.29845226-30.044681.4552224-.227611.2276112-.227611.9104448 0z" fill="url(#x)"/><path d="M31.0145866 89.5106686C53.5480968 50.589151 81.5442761 1.8803513 81.5442761 1.8803513h-.9104449c0 0-27.9961793 48.4811885-50.5296894 87.6303173h.9104448zM17.8131363 110.4509c-9.10444859 15.705174-15.24995136 26.402901-15.24995136 26.402901l.22761121.455222.22761122.455223c0 0 6.60072519-11.380561 15.93278493-27.313346h-1.138056z" fill="url(#y)"/><path d="M27.6004184 89.5106686l50.074467-86.71987245-.4552224.22761122-.4552224.22761121-.2276112.22761121c0 0-27.7685681 48.02596611-49.6192446 86.03703881h.6828336zM15.5370241 110.4509c-7.96639246 13.884284-13.6566728 23.671566-13.6566728 23.671566v-1.820889c0 0 5.0074467-8.649226 12.746228-22.078288.4552224.227611.4552224.227611.9104448.227611z" fill="url(#z)"/><path d="M71.9846051 9.61913256l-.4552224.91044484c0 0 4.0970018-2.04850091 9.5596709.9104449 5.0074467 2.7313345 5.235058 7.51117 5.235058 7.51117l.4552224-.9104448c0 0 .4552224-4.3246131-5.2350579-7.5111701-5.6902804-3.18655697-9.559671-.91044484-9.559671-.91044484z" fill="url(#A)"/><path d="M66.521936 19.4064147l-.4552225.9104449c0 0 4.5522243-1.3656673 9.3320598 1.3656673 4.5522243 2.5037233 5.4626691 6.8283364 5.4626691 6.8283364l.4552225-.9104449c0 0-.4552225-4.0970018-5.4626692-6.8283364-5.2350579-2.9589457-9.3320597-1.3656673-9.3320597-1.3656673z" fill="url(#B)"/><path d="M60.8316556 28.9660857l-.4552224.9104449c0 0 4.0970019-.2276112 8.6492261 2.5037233 4.0970019 2.2761122 6.1455028 5.9178916 6.1455028 5.9178916l.4552224-.9104449c0 0-2.0485009-3.6417794-6.1455027-5.9178915-4.3246131-2.5037234-8.6492262-2.5037234-8.6492262-2.5037234h0z" fill="url(#C)"/><path d="M55.3689865 38.7533679l-.4552224.9104449c0 0 4.5522243.6828336 8.4216149 2.9589457 3.6417794 2.048501 6.373114 5.4626692 6.373114 5.4626692l.4552224-.9104449c0 0-2.7313346-3.4141682-6.373114-5.4626691-3.8693906-2.2761122-8.4216149-2.9589458-8.4216149-2.9589458z" fill="url(#D)"/><path d="M49.6787062 48.3130389l-.4552225.9104448c0 0 4.3246131 1.1380561 8.1940037 3.4141682 3.6417794 2.048501 6.6007252 5.0074467 6.6007252 5.0074467l.4552225-.9104448c0 0-2.9589458-2.9589458-6.6007252-5.0074467-3.6417795-2.0485009-8.1940037-3.4141682-8.1940037-3.4141682z" fill="url(#E)"/><path d="M44.216037 57.8727099l-.6828336.9104448c0 0 4.0970018 1.5932785 7.9663925 3.8693906 3.6417794 2.048501 6.8283364 4.5522243 6.8283364 4.5522243l.4552224-.9104448c0 0-3.186557-2.5037234-6.8283364-4.5522243-3.6417794-2.0485009-7.7387813-3.8693906-7.7387813-3.8693906h0z" fill="url(#F)"/><path fill="url(#G)" d="M38.0705343 68.5704369l.4552224-.9104449 14.7947289 8.4216149-.4552224.9104449-14.7947289-8.4216149z"/><path d="M32.6078651 78.3577191l.4552225-.9104449c0 0 3.6417794 2.7313346 7.51117 4.7798355 3.6417794 2.0485009 7.2835589 3.6417794 7.2835589 3.6417794l-.4552225.6828337c0 0-3.8693906-1.5932785-7.51117-3.6417794-3.8693907-2.048501-7.2835589-4.5522243-7.2835589-4.5522243h0z" fill="url(#H)"/><path d="M28.9660857 89.5106686c-1.138056-.9104449-1.8208897-1.5932785-1.8208897-1.5932785l.4552224-.9104449c0 0 1.3656673 1.1380561 3.186557 2.5037234h-1.8208897 0z" fill="#73b9f1"/><path d="M20.0892484 110.4509c.9104448.682834 1.8208897 1.365667 2.9589458 2.048501 4.0970018 2.276112 8.1940037 2.048501 8.1940037 2.048501l-.4552225.910445c0 0-4.0970018.227611-8.1940037-2.048501-1.5932785-.910445-2.9589457-2.048501-3.8693906-2.958946h1.3656673 0z" fill="url(#I)"/><path d="M10.3019662 116.824014l.4552224-.910445c0 0 1.1380561 4.552225 6.1455028 7.283559 4.5522243 2.503724 8.6492261 1.138056 8.6492261 1.138056l-.4552224.910445c0 0-3.6417794 1.593279-8.6492261-1.138056-5.2350579-2.958946-6.1455028-7.283559-6.1455028-7.283559z" fill="url(#J)"/><path d="M4.61168586 126.611296l.45522243-.910444c0 0 .45522243 4.779835 5.91789151 7.738781 5.0074467 2.731334 8.8768374.682833 8.8768374.682833l-.6828337.910445c0 0-3.4141682 2.503724-8.8768373-.682833-5.69028034-3.186557-5.69028034-7.738782-5.69028034-7.738782h0z" fill="url(#K)"/></g><g transform="translate(68.25376)"><path d="M56.9324076 247.413389 154.350007 42.7909082l-24.582011-11.6081719L28.2533947 243.999221c0 0 3.186557 1.593279 7.2835588 3.414168h21.3954541z" fill="url(#L)"/><path d="M114.518045 18.8917307l45.522242 21.6230653v65.324418C144.335114 98.3280443 39.178733 48.2535773 39.178733 48.2535773c0 0 7.2835588-15.2499513 14.1118952-29.3618466h61.2274168z" fill="url(#V)"/><path d="M1.6228827 238.308941c-.68283364 1.365667-1.820889708 2.958945-1.5932784943 5.462669C.257215419 253.10367 15.5071667 261.752896 24.3840041 261.752896c6.1455027 0 8.1940037-2.503724 10.4701158-7.055948 2.2761121-4.552224-30.72751385-21.850676-33.2312372-16.388007h0z" fill="url(#W)"/><path d="M106.551652 44.6117979c0 0 23.443955 5.6902803 25.264845 7.2835588 1.82089 1.5932785-2.958946 10.6977271-3.869391 12.0633943-7.51117 9.1044486-30.9551248 59.406527-30.9551248 59.406527l-21.6230653-12.291006c0 0 19.3469532-35.9625715 26.1752891-48.7087995 4.324614-8.6492261 5.007447-17.7536746 5.007447-17.7536746z" fill="url(#M)"/><path d="M160.723121 32.7760148c4.097002 2.9589457 9.559671 2.2761121 13.884284 1.5932785 2.958946-.4552225-1.593278 3.8693906-6.600725 13.884284-5.007447 10.0148934-4.779836 10.697727-5.462669 10.0148934-.682834-.6828336-23.216344-13.4290616-22.53351-14.5671177.910444-1.138056 4.552224-25.9476783 6.373114-25.2648447 6.600725 1.5932785 7.738781 9.559671 14.339506 14.3395065h0z" fill="url(#N)"/><path d="M125.670994 60.772194c1.593279-2.5037233 8.876837-17.9812858 20.485009-17.9812858 5.235058 0 15.249952 13.2014504 16.160397 15.0223401.682833 1.5932785-1.593279 7.9663924-2.731335 5.0074467-1.365667-3.4141682-7.055948-10.6977271-13.20145-10.6977271-6.145503 0-14.567118 7.0559476-16.615619 9.559671-2.048501 2.2761121-5.69028 1.5932785-4.097002-.9104449h0z" fill="url(#O)"/><path d="M125.215772 59.8617492c1.138056-1.8208897 6.373114-9.7872822 8.876837-12.2910055 2.503723-2.5037234 8.876837-9.1044486 14.339507-10.0148934 5.462669-.9104449 11.152949 10.2425046 9.332059 12.5186167-1.365667 1.5932785-3.641779-.2276112-6.373114-2.5037233-2.731334-2.048501-4.552224-6.1455028-13.20145.4552224-2.958946 2.2761121-5.917892 4.0970018-12.746228 13.884284-1.82089 2.5037234-1.365667-.2276112-.227611-2.0485009h0z" fill="url(#P)"/><path d="M96.9919812 126.324224c.9104449-1.82089 2.0485009-4.552225-.4552224-6.600726-2.7313346-2.048501-15.4775625-8.876837-17.7536747-9.332059-2.2761121-.455223-4.0970018 0-5.0074467 1.593278-.9104448 1.593279-70.78708742 121.316777-72.1527547 124.730945-1.365667281 3.414168-1.5932784943 5.917892.45522243 6.600725 2.04850092.682834 25.49245597 11.835783 27.76856807 14.339507 2.2761121 2.503723 3.4141682-.227611 4.3246131-1.593279 4.324613-5.462669 61.6826389-127.917502 62.8206949-129.738391z" fill="url(#Q)"/><path d="M126.80905 59.4065268c1.138056-1.5932785 3.869391-6.1455028 7.283559-10.2425047 2.276112-2.7313345 14.567118-8.6492261 17.298452-18.208897 1.593279-5.235058-.910445-10.4701159-4.324613-12.746228C135.458276 11.1529495 115.42849 0 86.066643 0 66.2644674 0 57.8428525 6.6007252 57.8428525 6.6007252h10.0148934L102.682262 20.257398l4.324613 18.2088971c0 0 .455222 6.1455028-1.593279 13.2014504-1.365667 5.6902803-1.82089 9.1044485-3.869391 14.7947289 1.593279.6828336 5.235058-1.8208897 9.33206-.6828337 3.64178.9104449 5.917892 5.9178916 8.421615 2.9589458 4.324613-5.6902803 5.69028-6.8283364 7.51117-9.3320597h0z" fill="url(#R)"/><path d="M106.324041 45.2946315c-1.82089-16.8432298-5.917892-32.7760147-48.7087997-32.5484035 2.7313345-2.7313346 9.3320597-5.46266916 9.3320597-5.46266916l-9.3320597-.68283364c0 0 1.3656672-1.13805607 4.0970018-1.36566729C86.7494766 3.18655699 109.055376 8.4216149 107.462097 40.9700185c-.227611 5.2350579-.682834 7.51117-1.138056 4.324613z" fill="url(#S)"/><path d="M57.6152413 12.746228c2.9589457-1.1380561 7.0559476-1.8208897 14.7947288-1.3656673 9.559671.4552224 21.6230653 4.0970018 26.630512 8.6492261 2.5037229 2.2761121 2.2761119.4552224-.4552224-2.5037233C91.5293121 9.33205976 80.831585 7.51117005 66.947301 7.28355884c-1.5932785-.22761122-6.8283364 2.73133456-9.3320597 5.46266916h0z" fill="url(#T)"/><path d="M175.062627 34.3692933l12.518617 6.3731139c0 0-4.779835 6.373114-8.649226 13.6566729-4.097002 7.7387812-6.828336 16.1603961-6.828336 16.1603961l-12.063395-7.2835588c0 0 2.958946-8.1940037 7.283559-16.1603962 3.414168-6.6007252 7.738781-12.7462279 7.738781-12.7462279h0z" fill="url(#U)"/><path d="M187.581244 40.7424072c.910445.4552225-2.048501 7.5111701-6.373114 15.7051738-4.324613 8.1940037-8.421615 14.5671177-9.104448 14.1118952-.910445-.4552224 2.048501-7.51117 6.373114-15.7051737 4.097002-8.1940037 8.194003-14.5671177 9.104448-14.1118953h0z" fill="#bfc0d0"/></g></svg>