<svg width="256" height="262" xmlns="http://www.w3.org/2000/svg" preserveAspectRatio="xMidYMid"><defs><linearGradient x1="49.997%" y1="100.065%" x2="49.997%" y2="-.016%" id="a"><stop stop-color="#1578E4" offset="0%"/><stop stop-color="#00C3F2" offset="100%"/></linearGradient><linearGradient x1="51.682%" y1="99.547%" x2="51.682%" y2="-.213%" id="b"><stop stop-color="#1492E7" offset="0%"/><stop stop-color="#DBEDFB" offset="100%"/></linearGradient><linearGradient x1="47.1%" y1="99.547%" x2="47.1%" y2="-.213%" id="c"><stop stop-color="#1492E7" offset="0%"/><stop stop-color="#DBEDFB" offset="100%"/></linearGradient><linearGradient x1="49.7%" y1="99.547%" x2="49.7%" y2="-.213%" id="d"><stop stop-color="#1492E7" offset="0%"/><stop stop-color="#DBEDFB" offset="100%"/></linearGradient><linearGradient x1="50.2%" y1="99.547%" x2="50.2%" y2="-.213%" id="e"><stop stop-color="#1492E7" offset="0%"/><stop stop-color="#DBEDFB" offset="100%"/></linearGradient><linearGradient x1="45.8%" y1="99.547%" x2="45.8%" y2="-.213%" id="f"><stop stop-color="#1492E7" offset="0%"/><stop stop-color="#DBEDFB" offset="100%"/></linearGradient><linearGradient x1="46.917%" y1="99.547%" x2="46.917%" y2="-.213%" id="g"><stop stop-color="#1492E7" offset="0%"/><stop stop-color="#DBEDFB" offset="100%"/></linearGradient><linearGradient x1="51.2%" y1="99.547%" x2="51.2%" y2="-.213%" id="h"><stop stop-color="#1492E7" offset="0%"/><stop stop-color="#DBEDFB" offset="100%"/></linearGradient><linearGradient x1="52.6%" y1="99.547%" x2="52.6%" y2="-.213%" id="i"><stop stop-color="#1492E7" offset="0%"/><stop stop-color="#DBEDFB" offset="100%"/></linearGradient><linearGradient x1="48.045%" y1="99.547%" x2="48.045%" y2="-.213%" id="j"><stop stop-color="#1492E7" offset="0%"/><stop stop-color="#DBEDFB" offset="100%"/></linearGradient><linearGradient x1="49.948%" y1="99.943%" x2="49.948%" y2=".038%" id="k"><stop stop-color="#1285E7" offset="0%"/><stop stop-color="#00B5EF" offset="100%"/></linearGradient><linearGradient x1="66.56%" y1="100.135%" x2="33.185%" y2=".097%" id="l"><stop stop-color="#2B90E7" offset="0%"/><stop stop-color="#00B6EF" offset="100%"/></linearGradient><linearGradient x1="66.768%" y1="100.213%" x2="33.189%" y2=".149%" id="m"><stop stop-color="#3795EA" offset="0%"/><stop stop-color="#49C4F2" offset="100%"/></linearGradient><linearGradient x1="66.743%" y1="99.893%" x2="33.255%" y2=".153%" id="n"><stop stop-color="#3696EA" offset="0%"/><stop stop-color="#90D9F6" offset="100%"/></linearGradient><linearGradient x1="66.818%" y1="99.886%" x2="33.325%" y2="-.089%" id="o"><stop stop-color="#3097EA" offset="0%"/><stop stop-color="#B5E5F9" offset="100%"/></linearGradient><linearGradient x1="66.837%" y1="99.976%" x2="33.388%" y2="-.111%" id="p"><stop stop-color="#3A98EA" offset="0%"/><stop stop-color="#BCE7FA" offset="100%"/></linearGradient><linearGradient x1="1.227%" y1="67.606%" x2="99.348%" y2="31.555%" id="q"><stop stop-color="#00A4EC" offset="0%"/><stop stop-color="#B9DFF6" offset="100%"/></linearGradient><linearGradient x1="-.197%" y1="66.347%" x2="97.909%" y2="29.438%" id="r"><stop stop-color="#00A4EC" offset="0%"/><stop stop-color="#B9DFF6" offset="100%"/></linearGradient><linearGradient x1="-4.091%" y1="62.746%" x2="93.394%" y2="25.846%" id="s"><stop stop-color="#00B4EF" offset="0%"/><stop stop-color="#C3E9FA" offset="100%"/></linearGradient><linearGradient x1="-3.996%" y1="62.651%" x2="91.182%" y2="26.567%" id="t"><stop stop-color="#00B4EF" offset="0%"/><stop stop-color="#C3E9FA" offset="100%"/></linearGradient><linearGradient x1="50.041%" y1="100.188%" x2="50.041%" y2="-.034%" id="u"><stop stop-color="#1285E7" offset="0%"/><stop stop-color="#00B5EF" offset="100%"/></linearGradient><linearGradient x1="33.328%" y1="100.227%" x2="66.919%" y2=".019%" id="v"><stop stop-color="#3194E9" offset="0%"/><stop stop-color="#71CFF4" offset="100%"/></linearGradient><linearGradient x1="33.267%" y1="100.305%" x2="66.85%" y2=".228%" id="w"><stop stop-color="#5AA6EC" offset="0%"/><stop stop-color="#A2DEF8" offset="100%"/></linearGradient><linearGradient x1="33.298%" y1="99.811%" x2="66.692%" y2=".071%" id="x"><stop stop-color="#66ABEE" offset="0%"/><stop stop-color="#BEE8FA" offset="100%"/></linearGradient><linearGradient x1="33.174%" y1="99.97%" x2="66.78%" y2="-.173%" id="y"><stop stop-color="#7BB6F0" offset="0%"/><stop stop-color="#B1E3F9" offset="100%"/></linearGradient><linearGradient x1="33.202%" y1="99.951%" x2="66.569%" y2="-.187%" id="z"><stop stop-color="#5AA6EC" offset="0%"/><stop stop-color="#AFE3F9" offset="100%"/></linearGradient><linearGradient x1="8.383%" y1="26.376%" x2="104.985%" y2="63.366%" id="A"><stop stop-color="#C1E7FA" offset="0%"/><stop stop-color="#89D4F5" offset="100%"/></linearGradient><linearGradient x1="6.806%" y1="27.833%" x2="103.463%" y2="62.708%" id="B"><stop stop-color="#C1E7FA" offset="0%"/><stop stop-color="#89D4F5" offset="100%"/></linearGradient><linearGradient x1="5.567%" y1="29.495%" x2="102.209%" y2="63.636%" id="C"><stop stop-color="#C1E7FA" offset="0%"/><stop stop-color="#89D4F5" offset="100%"/></linearGradient><linearGradient x1="3.896%" y1="29.952%" x2="100.537%" y2="64.102%" id="D"><stop stop-color="#B0DFF8" offset="0%"/><stop stop-color="#52BDF2" offset="100%"/></linearGradient><linearGradient x1="3.731%" y1="31.313%" x2="100.403%" y2="65.463%" id="E"><stop stop-color="#B4DEF8" offset="0%"/><stop stop-color="#4EB5F0" offset="100%"/></linearGradient><linearGradient x1="3.582%" y1="32.674%" x2="100.224%" y2="66.815%" id="F"><stop stop-color="#B4DEF8" offset="0%"/><stop stop-color="#4EB5F0" offset="100%"/></linearGradient><linearGradient x1="2.075%" y1="32.975%" x2="98.701%" y2="67.116%" id="G"><stop stop-color="#B5DDF8" offset="0%"/><stop stop-color="#46AEEE" offset="100%"/></linearGradient><linearGradient x1=".522%" y1="34.139%" x2="97.179%" y2="67.456%" id="H"><stop stop-color="#96CEF4" offset="0%"/><stop stop-color="#46AAEE" offset="100%"/></linearGradient><linearGradient x1="2.164%" y1="39.322%" x2="92.382%" y2="60.185%" id="I"><stop stop-color="#8FC1F2" offset="0%"/><stop stop-color="#3193EA" offset="100%"/></linearGradient><linearGradient x1="-3.97%" y1="37.208%" x2="92.687%" y2="73.049%" id="J"><stop stop-color="#8FC1F2" offset="0%"/><stop stop-color="#3193EA" offset="100%"/></linearGradient><linearGradient x1="-4.119%" y1="36.008%" x2="92.522%" y2="73.58%" id="K"><stop stop-color="#8FC1F2" offset="0%"/><stop stop-color="#3193EA" offset="100%"/></linearGradient><linearGradient x1="45.594%" y1="48.14%" x2="53.241%" y2="54.535%" id="L"><stop offset=".1%"/><stop stop-opacity="0" offset="100%"/></linearGradient><linearGradient x1="40.335%" y1="40.676%" x2="60.708%" y2="55.055%" id="O"><stop stop-color="#344351" offset="0%"/><stop stop-color="#9697A0" offset="10%"/><stop stop-color="#8B8C95" offset="18.1%"/><stop stop-color="#787A83" offset="35.1%"/><stop stop-color="#71747D" offset="47%"/><stop stop-color="#777982" offset="59.1%"/><stop stop-color="#87898F" offset="74.9%"/><stop stop-color="#8E8F94" offset="80%"/><stop stop-color="#3D3B42" offset="84.9%"/><stop stop-color="#606E84" offset="90%"/></linearGradient><linearGradient x1="74.136%" y1="89.046%" x2="18.503%" y2="4.378%" id="P"><stop stop-color="#262B33" offset="27%"/><stop stop-color="#74747E" offset="45%"/><stop stop-color="#B0B0BC" offset="54%"/><stop stop-color="#74747E" offset="73%"/></linearGradient><linearGradient x1="-1.75%" y1="55.328%" x2="97.917%" y2="48.122%" id="Q"><stop stop-color="#606E84" offset="14%"/><stop stop-color="#9899A5" offset="40%"/><stop stop-color="#475768" offset="73%"/><stop stop-color="#262B33" offset="92%"/></linearGradient><linearGradient x1="52.156%" y1="71.394%" x2="41.552%" y2="26.303%" id="R"><stop stop-color="#101215" stop-opacity=".1" offset="0%"/><stop stop-color="#101215" stop-opacity=".7" offset="46%"/><stop stop-color="#474951" offset="70%"/><stop stop-color="#7B7D88" offset="91%"/></linearGradient><linearGradient x1="42.628%" y1="42.616%" x2="57.838%" y2="54.013%" id="S"><stop stop-color="#2C3952" offset="11.5%"/><stop stop-color="#3D414E" offset="37.4%"/><stop stop-color="#474A54" offset="55%"/><stop stop-color="#4E5057" offset="75.4%"/><stop stop-color="#323945" offset="89.2%"/><stop stop-color="#143052" offset="100%"/></linearGradient><linearGradient x1="29.79%" y1="69.5%" x2="58.065%" y2="23.542%" id="T"><stop stop-color="#6D7078" stop-opacity="0" offset="11.8%"/><stop stop-color="#6D7078" stop-opacity=".7" offset="20%"/><stop stop-color="#35363A" offset="34%"/><stop stop-color="#1D1F22" offset="37.4%"/><stop stop-color="#101215" offset="40%"/><stop stop-color="#16171A" offset="50%"/><stop stop-color="#292A2E" offset="56%"/><stop stop-color="#4B4D51" offset="68.8%"/><stop stop-color="#63666B" offset="80.7%"/><stop stop-color="#72757B" offset="91.5%"/><stop stop-color="#777A80" offset="100%"/></linearGradient><linearGradient x1="-.164%" y1="50.004%" x2="99.957%" y2="50.004%" id="U"><stop stop-color="#4A4D56" offset="0%"/><stop stop-color="#29292D" offset="100%"/></linearGradient><linearGradient x1="-.19%" y1="49.584%" x2="99.936%" y2="49.584%" id="V"><stop stop-color="#767880" offset="0%"/><stop stop-color="#0C0A0B" offset="41%"/></linearGradient><linearGradient x1="31.726%" y1="89.031%" x2="67.025%" y2="8.692%" id="W"><stop stop-color="#858997" offset="0%"/><stop stop-color="#244668" offset="23%"/><stop stop-color="#1A3249" offset="28.2%"/><stop stop-color="#040506" offset="40%"/><stop stop-color="#313236" offset="46.4%"/><stop stop-color="#65656E" offset="54.6%"/><stop stop-color="#868691" offset="60.7%"/><stop stop-color="#92929E" offset="64%"/></linearGradient><radialGradient cx="64.482%" cy="29.66%" fx="64.482%" fy="29.66%" r="42.357%" gradientTransform="scale(-.7194 -1) rotate(-63.294 -.607 1.25)" id="M"><stop offset="0%"/><stop stop-opacity="0" offset="100%"/></radialGradient><radialGradient cx="48.301%" cy="48.508%" fx="48.301%" fy="48.508%" r="73.404%" gradientTransform="matrix(.62911 .4402 -.30843 .8979 .329 -.163)" id="N"><stop stop-color="#0C0C12" offset="41.7%"/><stop stop-color="#3D4651" offset="100%"/></radialGradient></defs><path d="M49.847 18.892h128.6c27.541 0 49.847 22.306 49.847 49.847v128.6c0 27.54-22.306 49.847-49.847 49.847h-128.6C22.306 247.186 0 224.88 0 197.339v-128.6c0-27.541 22.306-49.847 49.847-49.847z" fill="url(#a)"/><path d="M174.578 31.183H53.716c-22.988 0-41.653 18.664-41.653 41.653v120.861c0 22.989 18.665 41.653 41.653 41.653h120.862c22.989 0 41.653-18.664 41.653-41.653V72.608c0-22.989-18.664-41.425-41.653-41.425zm38.238 162.97a37.69 37.69 0 01-37.783 37.783H53.261c-20.713 0-37.783-16.843-37.783-37.784v-122A37.69 37.69 0 0153.26 34.37h122c20.712 0 37.783 16.844 37.783 37.784v122h-.228z" fill="#FFF"/><path d="M114.488 39.377c-51.44 0-93.32 41.88-93.32 93.32 0 51.44 41.88 93.32 93.32 93.32 51.668 0 93.321-41.88 93.321-93.32 0-51.44-41.88-93.32-93.32-93.32zm0 185.275c-50.757 0-91.954-41.197-91.954-91.955 0-50.757 41.197-91.955 91.954-91.955 50.758 0 91.955 41.198 91.955 91.955 0 50.758-41.197 91.955-91.955 91.955z" fill="#69C5F3"/><path d="M114.488 58.496c-41.197 0-74.428 33.231-74.428 74.429s33.23 74.201 74.428 74.201 74.43-33.231 74.43-74.429c0-41.197-33.46-74.2-74.43-74.2zm0 147.037c-40.287 0-72.835-32.548-72.835-72.836 0-40.287 32.548-72.835 72.835-72.835 40.288 0 72.836 32.548 72.836 72.835 0 40.288-32.776 72.836-72.836 72.836z" fill="#68C5F4"/><path d="M43.246 149.768h142.03c5.917 0 10.47 4.78 10.47 10.47 0 5.918-4.78 10.47-10.47 10.47H43.246c-5.918 0-10.47-4.78-10.47-10.47-.228-5.69 4.552-10.47 10.47-10.47z" fill="#FFF"/><path d="M42.79 151.817h142.486c4.552 0 8.421 3.641 8.421 8.421v.228c0 4.552-3.642 8.422-8.421 8.422H42.79c-4.552 0-8.422-3.642-8.422-8.422v-.455c.228-4.553 3.87-8.194 8.422-8.194z" fill="#0A93E9"/><path fill="#1694EA" d="M39.377 167.977h149.54l1.138-.683H38.24z"/><path fill="#319DEC" d="M35.963 165.246h156.14l.456-.683H35.507z"/><path fill="#65B1EE" d="M34.597 160.921h159.1v-.91h-159.1z"/><path fill="#8EC6F3" d="M36.19 155.23h156.141l.228.456.228.455H35.735l.228-.455z"/><path fill="#95CAF3" d="M39.604 152.5h149.313l.683.227.683.455H38.239l.683-.455z"/><path d="M148.41 2.049h-1.138s3.87 2.73 3.87 8.876c0 5.69-3.87 8.194-3.87 8.194h1.138s3.87-1.82 3.87-8.194c0-6.828-3.87-8.876-3.87-8.876z" fill="url(#b)" transform="translate(32.768 149.768)"/><path d="M137.485 2.049h-1.138s3.414 3.186 3.414 8.876c0 5.008-3.414 8.194-3.414 8.194h1.138s3.414-2.503 3.414-8.194c-.227-6.145-3.414-8.876-3.414-8.876z" fill="url(#c)" transform="translate(32.768 149.768)"/><path fill="url(#d)" d="M80.81 2.049h1.138v17.07H80.81z" transform="translate(32.768 149.768)"/><path d="M69.657 2.049h1.138s-.455 4.324-.455 8.876c0 4.097.455 8.194.455 8.194h-1.138s-.455-4.097-.455-8.194c0-4.552.455-8.876.455-8.876z" fill="url(#e)" transform="translate(32.768 149.768)"/><path d="M58.731 2.049h1.139s-1.139 4.324-1.139 8.876c0 4.097 1.139 8.194 1.139 8.194H58.73s-1.138-4.097-1.138-8.194c0-4.552 1.138-8.876 1.138-8.876z" fill="url(#f)" transform="translate(32.768 149.768)"/><path d="M47.579 2.049h1.138s-1.594 4.324-1.594 8.876c0 4.097 1.594 8.194 1.594 8.194h-1.138s-1.594-4.097-1.594-8.194c0-4.552 1.594-8.876 1.594-8.876z" fill="url(#g)" transform="translate(32.768 149.768)"/><path d="M36.426 2.049h1.138s-2.276 3.641-2.276 8.876c0 4.553 2.276 8.194 2.276 8.194h-1.138s-2.277-3.641-2.277-8.194c0-5.235 2.277-8.876 2.277-8.876z" fill="url(#h)" transform="translate(32.768 149.768)"/><path d="M25.273 2.049h1.138s-3.414 3.186-3.414 8.876c0 5.008 3.414 8.194 3.414 8.194h-1.138s-3.415-2.503-3.415-8.194c.228-6.145 3.415-8.876 3.415-8.876z" fill="url(#i)" transform="translate(32.768 149.768)"/><path d="M14.347 2.049h1.138s-3.869 2.73-3.869 8.876c0 5.69 3.87 8.194 3.87 8.194h-1.139s-3.87-1.82-3.87-8.194c0-6.828 3.87-8.876 3.87-8.876z" fill="url(#j)" transform="translate(32.768 149.768)"/><g><path d="M109.709 65.097l71.014 122.91c2.96 5.007 1.138 11.38-3.87 14.34-5.007 2.958-11.38 1.137-14.339-3.87L91.5 75.567c-2.96-5.008-1.138-11.38 3.87-14.34 5.007-2.959 11.38-1.138 14.339 3.87z" fill="#FFF"/><path d="M17.813 6.205L89.055 129.57c2.277 3.87.91 9.105-2.958 11.38l-.456.228c-3.87 2.277-9.104.91-11.38-2.959L3.018 14.627c-2.276-3.87-.91-9.105 2.96-11.381l.227-.228c4.097-2.276 9.332-.91 11.608 3.187z" fill="url(#k)" transform="translate(90.075 59.802)"/><path fill="url(#l)" d="M1.88 11.212l74.657 129.511.455.228.455.227.455.228L1.88 9.846v1.366z" transform="translate(90.075 59.802)"/><path fill="url(#m)" d="M2.563 6.888l78.07 135.2h.911L3.018 6.206l-.227.455z" transform="translate(90.075 59.802)"/><path fill="url(#n)" d="M5.75 3.474l79.664 137.704.683-.455L6.433 3.018z" transform="translate(90.075 59.802)"/><path fill="url(#o)" d="M11.44 2.108l77.843 134.973-.228.456-.227.455L10.302 1.88h.455l.683.228z" transform="translate(90.075 59.802)"/><path fill="url(#p)" d="M15.537 3.474l74.657 129.283v1.365L14.17 2.791l.456.227.455.228.455.228z" transform="translate(90.075 59.802)"/><path d="M176.854 185.276l-.455-.91s-.456 4.551-5.463 7.738c-4.78 2.959-9.104.91-9.104.91l.455.91s3.642 2.504 9.104-.91c5.463-3.186 5.463-7.738 5.463-7.738zm-5.69-9.56l-.456-.91s-1.138 4.552-5.917 7.283c-4.325 2.731-8.65 1.366-8.65 1.366l.456.91s3.869 1.593 8.876-1.366c5.008-2.959 5.69-7.283 5.69-7.283z" fill="#3C98EA"/><path d="M165.701 166.156l-.455-.91s-2.049 3.87-6.373 6.373c-3.87 2.276-8.194 2.276-8.194 2.276l.455.91s4.097 0 8.194-2.276c4.324-2.503 6.373-6.373 6.373-6.373z" fill="#4CA4ED"/><path d="M160.238 156.597l-.455-.91s-2.959 3.868-6.828 5.917c-3.642 2.048-7.967 2.731-7.967 2.731l.456.91s4.324-.682 7.966-2.73c3.642-2.05 6.828-5.918 6.828-5.918z" fill="#4DA7EE"/><path d="M47.63 58.1l.455.91s-3.869 1.822-7.738 3.87c-3.642 2.049-6.829 4.78-6.829 4.78l-.455-.91s3.414-2.732 6.828-4.78c3.87-2.049 7.74-3.87 7.74-3.87z" fill="url(#q)" transform="translate(90.075 59.802)"/><path d="M42.168 48.54l.455.911s-4.325 1.366-7.967 3.642c-3.641 2.048-6.6 5.235-6.6 5.235l-.456-.91s2.96-3.187 6.601-5.236c3.642-2.503 7.967-3.641 7.967-3.641z" fill="url(#r)" transform="translate(90.075 59.802)"/><path d="M122 100.832c2.959-.91 5.235-1.366 5.235-1.366l-.456-.91s-2.048.227-4.324 1.138c-1.366.455-1.593 1.593-.455 1.138z" fill="#9DD4F7"/><path d="M25.552 19.862l.455.91s-4.324-1.138-9.332 1.593c-4.325 2.732-5.235 7.056-5.235 7.056l-.455-.91s.455-3.87 5.235-6.828c5.007-3.187 9.332-1.821 9.332-1.821z" fill="url(#s)" transform="translate(90.075 59.802)"/><path d="M20.09 10.074l.682.91s-4.552-1.82-9.787 1.139c-5.008 3.186-5.008 7.511-5.008 7.511l-.682-.91s-.456-3.87 5.007-7.284c5.69-3.414 9.787-1.366 9.787-1.366z" fill="url(#t)" transform="translate(90.075 59.802)"/></g><g><path d="M94.914 149.768c19.802-34.142 42.563-73.746 42.563-73.746 2.96-5.007 1.138-11.38-3.87-14.34-5.007-2.958-11.38-1.137-14.339 3.87 0 0-27.768 48.254-48.709 84.216h24.355zm-12.291 20.94c-9.56 16.388-16.16 28.224-16.16 28.224-2.96 5.008-9.333 6.829-14.34 3.87-5.007-2.96-6.828-9.332-3.87-14.34 0 0 3.87-7.056 10.015-17.526 7.74-.228 21.851-.228 24.355-.228z" fill="#FFF"/><path d="M45.582 89.51c20.03-34.596 43.246-74.883 43.246-74.883 2.276-3.87.91-9.105-2.96-11.381l-.227-.228c-3.87-2.276-9.104-.91-11.38 2.96 0 0-27.314 47.342-48.254 83.533h19.575zm-12.064 20.94c-9.104 15.934-15.705 27.314-15.705 27.314-2.276 3.87-7.283 5.235-11.38 2.96h-.456c-3.869-2.277-5.235-7.284-2.959-11.381 0 0 4.325-7.512 10.926-18.892h19.574z" fill="url(#u)" transform="translate(46.828 60.258)"/><path d="M44.899 89.51l45.295-78.298V9.847S65.156 53.32 44.216 89.51h.683zm-12.291 20.94l-17.299 30.046-.682.455-.683.227s7.739-13.429 17.753-30.727h.91z" fill="url(#v)" transform="translate(46.828 60.258)"/><path d="M41.485 89.51L89.283 6.889l-.228-.455-.227-.456S62.653 51.272 40.802 89.283l.683.228zM29.42 110.45l-18.209 31.411h-.91s7.739-13.429 18.209-31.638c.455.228.91.228.91.228z" fill="url(#w)" transform="translate(46.828 60.258)"/><path d="M36.477 89.51c22.534-38.92 49.62-86.036 49.62-86.036l-.683-.456-50.075 86.493h1.138zm-12.29 21.169c-10.016 17.526-17.527 30.5-17.527 30.5l-.683-.456s7.284-12.746 17.299-30.044c.455-.228.227-.228.91 0z" fill="url(#x)" transform="translate(46.828 60.258)"/><path d="M31.015 89.51c22.533-38.92 50.53-87.63 50.53-87.63h-.911s-27.996 48.482-50.53 87.63h.91zm-13.202 20.94c-9.104 15.706-15.25 26.404-15.25 26.404l.228.455.227.455s6.601-11.38 15.933-27.313h-1.138z" fill="url(#y)" transform="translate(46.828 60.258)"/><path d="M27.6 89.51L77.675 2.79l-.455.228-.456.228-.227.228S48.768 51.5 26.917 89.51h.683zm-12.063 20.94C7.571 124.336 1.88 134.123 1.88 134.123v-1.82s5.008-8.65 12.747-22.079c.455.228.455.228.91.228z" fill="url(#z)" transform="translate(46.828 60.258)"/><path d="M71.985 9.62l-.456.91s4.097-2.049 9.56.91c5.008 2.731 5.235 7.511 5.235 7.511l.455-.91s.456-4.325-5.235-7.511c-5.69-3.187-9.56-.91-9.56-.91z" fill="url(#A)" transform="translate(46.828 60.258)"/><path d="M66.522 19.406l-.455.91s4.552-1.365 9.332 1.367c4.552 2.503 5.462 6.828 5.462 6.828l.456-.91s-.456-4.098-5.463-6.829c-5.235-2.959-9.332-1.366-9.332-1.366z" fill="url(#B)" transform="translate(46.828 60.258)"/><path d="M60.832 28.966l-.456.91s4.097-.227 8.65 2.504c4.097 2.276 6.145 5.918 6.145 5.918l.455-.91s-2.048-3.642-6.145-5.918c-4.325-2.504-8.65-2.504-8.65-2.504z" fill="url(#C)" transform="translate(46.828 60.258)"/><path d="M55.369 38.753l-.455.91s4.552.684 8.421 2.96c3.642 2.048 6.373 5.462 6.373 5.462l.456-.91s-2.732-3.414-6.373-5.463c-3.87-2.276-8.422-2.959-8.422-2.959z" fill="url(#D)" transform="translate(46.828 60.258)"/><path d="M49.679 48.313l-.456.91s4.325 1.139 8.194 3.415c3.642 2.048 6.601 5.007 6.601 5.007l.455-.91s-2.959-2.96-6.6-5.008c-3.642-2.048-8.194-3.414-8.194-3.414z" fill="url(#E)" transform="translate(46.828 60.258)"/><path d="M44.216 57.873l-.683.91s4.097 1.593 7.967 3.87c3.641 2.048 6.828 4.552 6.828 4.552l.455-.91s-3.186-2.504-6.828-4.553c-3.642-2.048-7.739-3.87-7.739-3.87z" fill="url(#F)" transform="translate(46.828 60.258)"/><path fill="url(#G)" d="M38.07 68.57l.456-.91 14.794 8.422-.455.91-14.794-8.422z" transform="translate(46.828 60.258)"/><path d="M32.608 78.358l.455-.91s3.642 2.73 7.511 4.78a92.587 92.587 0 007.284 3.64l-.455.684s-3.87-1.594-7.512-3.642c-3.869-2.049-7.283-4.552-7.283-4.552z" fill="url(#H)" transform="translate(46.828 60.258)"/><path d="M75.795 149.768c-1.139-.91-1.821-1.593-1.821-1.593l.455-.91s1.366 1.138 3.186 2.503h-1.82z" fill="#73B9F1"/><path d="M20.09 110.45c.91.684 1.82 1.367 2.958 2.05 4.097 2.276 8.194 2.048 8.194 2.048l-.455.91s-4.097.228-8.194-2.048a19.014 19.014 0 01-3.87-2.96h1.366z" fill="url(#I)" transform="translate(46.828 60.258)"/><path d="M10.302 116.824l.455-.91s1.138 4.552 6.146 7.283c4.552 2.504 8.649 1.138 8.649 1.138l-.455.91s-3.642 1.594-8.65-1.137c-5.235-2.96-6.145-7.284-6.145-7.284z" fill="url(#J)" transform="translate(46.828 60.258)"/><path d="M4.612 126.611l.455-.91s.455 4.78 5.918 7.739c5.007 2.731 8.877.682 8.877.682l-.683.91s-3.414 2.505-8.877-.682c-5.69-3.186-5.69-7.739-5.69-7.739z" fill="url(#K)" transform="translate(46.828 60.258)"/></g><g><path d="M56.932 247.413L154.35 42.791l-24.582-11.608L28.253 243.999s3.187 1.594 7.284 3.414h21.395z" fill="url(#L)" transform="translate(68.254)"/><path d="M114.518 18.892l45.522 21.623v65.324C144.335 98.328 39.18 48.254 39.18 48.254s7.283-15.25 14.112-29.362h61.227z" fill="url(#M)" transform="translate(68.254)"/><path d="M1.623 238.309c-.683 1.366-1.821 2.959-1.593 5.463.227 9.332 15.477 17.98 24.354 17.98 6.146 0 8.194-2.503 10.47-7.055s-30.727-21.85-33.231-16.388z" fill="url(#N)" transform="translate(68.254)"/><path d="M106.552 44.612s23.444 5.69 25.264 7.283c1.821 1.594-2.958 10.698-3.869 12.064-7.511 9.104-30.955 59.406-30.955 59.406l-21.623-12.29s19.347-35.963 26.175-48.71c4.325-8.649 5.008-17.753 5.008-17.753z" fill="url(#O)" transform="translate(68.254)"/><path d="M160.723 32.776c4.097 2.959 9.56 2.276 13.884 1.593 2.96-.455-1.593 3.87-6.6 13.885-5.008 10.014-4.78 10.697-5.463 10.014-.683-.682-23.216-13.429-22.533-14.567.91-1.138 4.552-25.947 6.373-25.264 6.6 1.593 7.738 9.56 14.34 14.339z" fill="url(#P)" transform="translate(68.254)"/><path d="M125.671 60.772c1.593-2.504 8.877-17.981 20.485-17.981 5.235 0 15.25 13.201 16.16 15.022.683 1.594-1.593 7.967-2.73 5.008-1.367-3.414-7.057-10.698-13.202-10.698-6.146 0-14.568 7.056-16.616 9.56-2.049 2.276-5.69 1.593-4.097-.91z" fill="url(#Q)" transform="translate(68.254)"/><path d="M125.216 59.862c1.138-1.821 6.373-9.788 8.877-12.291 2.503-2.504 8.876-9.105 14.34-10.015 5.462-.91 11.152 10.242 9.331 12.518-1.365 1.594-3.642-.227-6.373-2.503-2.731-2.049-4.552-6.146-13.201.455-2.96 2.276-5.918 4.097-12.747 13.884-1.82 2.504-1.365-.227-.227-2.048z" fill="url(#R)" transform="translate(68.254)"/><path d="M96.992 126.324c.91-1.82 2.048-4.552-.455-6.6-2.732-2.049-15.478-8.877-17.754-9.333-2.276-.455-4.097 0-5.007 1.594-.91 1.593-70.787 121.316-72.153 124.73-1.366 3.415-1.593 5.919.455 6.601 2.049.683 25.493 11.836 27.769 14.34 2.276 2.504 3.414-.228 4.324-1.593 4.325-5.463 61.683-127.918 62.821-129.739z" fill="url(#S)" transform="translate(68.254)"/><path d="M126.809 59.407c1.138-1.594 3.87-6.146 7.284-10.243 2.276-2.731 14.567-8.65 17.298-18.209 1.593-5.235-.91-10.47-4.325-12.746C135.458 11.153 115.428 0 86.066 0 66.265 0 57.844 6.6 57.844 6.6h10.015l34.824 13.657 4.325 18.21s.455 6.145-1.593 13.2c-1.366 5.691-1.821 9.105-3.87 14.795 1.593.683 5.235-1.82 9.332-.682 3.642.91 5.918 5.918 8.422 2.959 4.324-5.69 5.69-6.829 7.511-9.332z" fill="url(#T)" transform="translate(68.254)"/><path d="M106.324 45.295c-1.82-16.844-5.918-32.776-48.709-32.549 2.732-2.731 9.332-5.462 9.332-5.462L57.615 6.6s1.366-1.138 4.097-1.366c25.037-2.048 47.343 3.187 45.75 35.735-.228 5.235-.683 7.511-1.138 4.325z" fill="url(#U)" transform="translate(68.254)"/><path d="M57.615 12.746c2.96-1.138 7.056-1.82 14.795-1.365 9.56.455 21.623 4.097 26.63 8.649 2.504 2.276 2.277.455-.455-2.504C91.53 9.332 80.832 7.511 66.947 7.284c-1.593-.228-6.828 2.73-9.332 5.462z" fill="url(#V)" transform="translate(68.254)"/><path d="M175.063 34.37l12.518 6.372s-4.78 6.374-8.649 13.657c-4.097 7.739-6.828 16.16-6.828 16.16l-12.064-7.283s2.96-8.194 7.284-16.16c3.414-6.601 7.739-12.747 7.739-12.747z" fill="url(#W)" transform="translate(68.254)"/><path d="M255.835 40.742c.91.456-2.048 7.512-6.373 15.706-4.325 8.194-8.422 14.567-9.105 14.111-.91-.455 2.049-7.51 6.374-15.705 4.097-8.194 8.194-14.567 9.104-14.112z" fill="#BFC0D0"/></g></svg>