<svg width="256px" height="256px" viewBox="0 0 256 256" xmlns="http://www.w3.org/2000/svg" preserveAspectRatio="xMidYMid"><path d="M128.00285 256C198.693118 256 256 198.688775 256 128 256 57.2998444 198.698818 0 128.00285 0 57.3068822 0 0 57.2998444 0 128c0 70.688775 57.3068822 128 128.00285 128" fill="#1fc0e7"/><path d="M62.3672889 127.967763l21.7998222-21.902222c.7224889-.728178 1.1264-1.706667 1.1264-2.742045 0-2.161777-1.7521778-3.9139553-3.9082667-3.9139553-1.0524444 0-2.0366222.4096-2.7761777 1.1662223l-21.7884445 21.805511-21.8737778-21.845333c-.7395555-.728178-1.7180444-1.1264003-2.7591111-1.1264003-2.1617777 0-3.9082666 1.7521783-3.9082666 3.9082663 0 1.052445.4209777 2.048 1.1719111 2.787556L51.2512 127.93363l-21.7884444 21.845333c-.7623112.762311-1.1832889 1.752178-1.1832889 2.804622 0 2.161778 1.7521777 3.913956 3.9082666 3.913956 1.0410667 0 2.0195556-.398222 2.7591111-1.137778l21.8453334-21.856711 21.76 21.771378c.7736889.796444 1.7635555 1.223111 2.8330666 1.223111 2.1504 0 3.9025778-1.752178 3.9025778-3.913956 0-1.041066-.3982222-2.019555-1.1377778-2.759111L62.3616 127.945007l.0056889.022756zm129.5985781-.005689c0 3.925333 3.185777 7.111111 7.111111 7.111111 3.902578 0 7.088355-3.185778 7.088355-7.111111 0-3.925333-3.185777-7.111111-7.094044-7.111111-3.908267 0-7.088356 3.185778-7.088356 7.111111h-.017066zm-13.454223 0c0-11.349333 9.216-20.593778 20.559645-20.593778 11.320889 0 20.553955 9.244445 20.553955 20.593778 0 11.349333-9.227377 20.593778-20.553955 20.593778-11.337956 0-20.559645-9.233067-20.559645-20.593778h0zm-8.0896 0c0 15.815111 12.856889 28.694756 28.649245 28.694756 15.792355 0 28.649244-12.868267 28.649244-28.689067 0-15.815111-12.856889-28.6947556-28.649244-28.6947556-15.798045 0-28.649245 12.8739556-28.649245 28.6947556v-.005689zm-2.030933-28.1998221h-1.194667c-3.612444 0-7.094044 1.1377781-10.001066 3.3848891-.398222-1.7408-1.968356-3.072-3.834311-3.072-2.144711 0-3.868445 1.735111-3.868445 3.8912l.011378 48.327111c0 2.144711 1.763556 3.8912 3.896889 3.8912 2.1504 0 3.902578-1.746489 3.908267-3.902578v-29.718755c0-9.898667.910222-13.903645 9.375288-14.961778.796445-.096711 1.6384-.079645 1.649778-.079645 2.309689-.085333 3.959467-1.683911 3.959467-3.84 0-2.161777-1.763556-3.9139553-3.925333-3.9139553l.022755-.0056888zM93.3774222 123.245985c0-.113778.0113778-.227555.0170667-.329955 2.2641778-8.988445 10.3879111-15.627378 20.0533331-15.627378 9.784889 0 17.976889 6.792533 20.138667 15.940267H93.3717333l.0056889.017066zm48.2019558-.739555c-1.683911-7.981511-6.047289-14.5408-12.686222-18.750578-9.716623-6.1781335-22.539378-5.8368001-31.9146671.853333-7.6572445 5.444267-12.0775111 14.364445-12.0775111 23.552 0 2.304.2844444 4.630756.8533333 6.923378 2.8899556 11.377778 12.6634667 20.002133 24.3143109 21.430044 3.458845.420978 6.826667.227556 10.296889-.682666 3.003733-.739556 5.899378-1.9456 8.567467-3.663645 2.770489-1.780622 5.085866-4.135822 7.338666-6.951822.034134-.056889.079645-.096711.125156-.1536 1.558756-1.934222 1.268622-4.699022-.438044-6.007467-1.444978-1.109333-3.868445-1.558755-5.768534.887467-.4096.591645-.8704 1.194667-1.365333 1.792-1.518933 1.678222-3.401956 3.299556-5.654756 4.562489-2.878577 1.536-6.144 2.4064-9.614222 2.429156-11.3664-.130845-17.4421332-8.078223-19.6095999-13.744356-.3754667-1.063822-.6656-2.161778-.8704-3.299556l-.0568889-.597333h40.7893338c5.586488-.125155 8.590222-4.078933 7.759644-8.590222l.011378.011378z" fill="#fff"/></svg>