<svg width="512px" height="209px" viewBox="0 0 512 209" xmlns="http://www.w3.org/2000/svg" preserveAspectRatio="xMidYMid"><title>Xray</title><g style="fill:#31b34b"><path opacity="0.5" d="M98.0921379 104.306759l-49.0107586 12.252689-24.5406896 91.806897z"/><path opacity="0.8" d="M98.0921379 104.306759 0 129.024V67.4427586h73.5514483l24.7172414 36.8286894z"/><path d="M0 67.4427586v61.4400004L73.5514483 0z"/></g><path d="M153.070345 55.0488276l22.528 32.2736552 22.528-32.2736552h22.245517l-32.80331 46.9980694 35.84 51.27062H200.73931l-25.035034-35.098483-24.717242 35.098483h-22.104275l35.310344-50.387862-33.050482-47.8808274h21.927724zm145.831724 98.2686894-16.913655-28.954483c-1.175952.070628-2.355083.070628-3.531035 0h-21.963034v28.954483h-18.855724V55.0488276h40.818758c25.317518 0 39.759449 12.182069 39.759449 33.8273103 0 15.4659311-6.850207 26.5180691-19.456 31.7793101l21.53931 32.662069h-21.398069zm-42.372414-45.585655h22.068966c14.124138 0 21.821793-6.002759 21.821793-18.3613792 0-12.3586207-7.838897-17.9729656-21.821793-17.9729656h-22.104276v36.3696548l.03531-.03531zm148.939035 24.717241h-47.951449l-8.686344 20.868414h-19.38538l43.078621-98.2686894h19.42069l42.443034 98.2686894h-20.162207l-8.756965-20.868414zm-6.708966-16.172137-17.090207-41.4543453-17.655172 41.3484133 34.745379.105932zm77.682759 4.660965v32.379586H457.69269V121.856l-36.581518-66.8071724h19.032276l26.694621 46.1859314 26.306207-46.1859314H512l-35.557517 65.8891034z"/></svg>