<svg width="512px" height="160px" viewBox="0 0 512 160" xmlns="http://www.w3.org/2000/svg" preserveAspectRatio="xMidYMid"><path d="M40.0963855 0l92.3244985 159.768675H92.1188755l-25.9084337-45.031326-26.1140563 45.031326H0l46.0594378-79.7815264L0 0h40.0963855zm92.1188755 0-40.5076305 70.3228916C79.4936546 48.5413012 79.5730455 22.124507 91.7462878.649243142L92.1188755 0h40.0963855z"/><path d="M183.415261 37.0120482c10.075502.2056225 18.917269 3.0843373 26.525301 8.6361446l-6.991164 10.486747c-6.168675-4.1124498-12.954217-6.3742972-20.151004-6.5799197-3.906828 0-6.991165 1.0281124-9.458635 2.8787148-2.673092 2.0562249-4.11245 5.1405623-4.11245 9.0473896 0 2.4674699.82249 4.7293173 2.673093 6.5799197 1.850602 2.0562249 4.729317 3.4955823 8.841767 4.1124498 2.261847.411245 5.346184.8224899 9.253012 1.2337349 7.608032 1.0281125 13.365462 3.9068273 17.066666 8.4305221 3.701205 4.5236948 5.346185 9.664257 5.346185 15.8329317-.616867 16.6554213-10.075502 24.6746993-28.787148 24.8803213-12.131727 0-22.412852-3.906827-31.254619-11.514859l8.2249-9.458635c6.579919 5.551807 14.187951 8.2249 23.235341 8.430522 10.69237-.205622 16.038554-4.11245 16.244177-11.7204818 0-6.3742972-3.495583-10.075502-10.69237-11.3092369-3.28996-.411245-6.991164-1.0281125-10.897992-1.64498-6.991164-1.2337349-12.337349-3.9068273-16.038554-8.0192771-3.701205-4.3180723-5.75743-9.4586345-5.75743-15.6273092 0-7.4024097 2.46747-13.3654619 7.196787-17.8891566 4.523695-4.5236948 11.103615-6.7855422 19.534137-6.7855422zm107.33494.6168675v11.3092369h-22.412852v72.9959844H256V48.9381526h-22.412851V37.6289157h57.163052zm47.91004 0 29.609639 84.3052213h-12.542972l-6.374298-18.91727h-31.048996l-6.374297 18.91727h-13.159839l29.609638-84.3052213h10.281125zm95.82008 0v11.3092369H412.06747v72.9959844h-12.33735V48.9381526h-22.412851V37.6289157h57.163052zm76.697189 0v11.9261044h-39.890763v24.0578313h33.927711v11.309237h-33.927711V109.80241h39.890763v11.926104h-52.228112V37.6289157h52.228112zM334.136546 54.9012048h-.205622l-11.926105 36.8064257h23.852209l-11.720482-36.8064257z"/></svg>