<svg width="256px" height="212px" viewBox="0 0 256 212" xmlns="http://www.w3.org/2000/svg" preserveAspectRatio="xMidYMid"><path d="M44.9395214 8.2808l80.1039996 95.604-84.7909996 99.926c-2.452 2.89-.398 7.326 3.392 7.326h31.121c1.498 0 2.92-.657 3.889-1.799l91.6119996-107.826-81.8809996-98.922c-1.24-1.498-3.084-2.365-5.029-2.365h-34.657c-4.165 0-6.435 4.863-3.76 8.056zM4.67812141 33.8286l59.08999999 70.319-63.057999994 74.52c-1.637 1.934-.262 4.898 2.271000004 4.898H29.1101214l69.316-80.968-64.103-75.938H8.01812141c-3.707 0-5.725 4.331-3.34 7.169zM207.968021 2.137l-50.22 61.379 24.167 26.177 68.199-80.683c3.009-3.559.479-9.01-4.181-9.01h-33.456c-1.747 0-3.402.785-4.509 2.137zm-52.2302 134.0414 61.004 73.243c.906 1.087 2.247 1.716 3.662 1.716h30.794c4.087 0 6.299-4.787 3.65-7.9l-77.368-90.902-21.742 23.843z"/></svg>