<svg width="256px" height="256px" viewBox="0 0 256 256" xmlns="http://www.w3.org/2000/svg" preserveAspectRatio="xMidYMid"><path d="M127.612057 0c4.774181 0 8.665441 3.78023284 8.843848 8.51076571l.006391.33947316V48.5180986c0 4.8878519-3.962387 8.8502388-8.850239 8.8502388-4.774181 0-8.665441-3.7802328-8.843848-8.5107657l-.006391-.3394731V8.85023887C118.761818 3.96238691 122.724205 0 127.612057 0z" fill="#70b700"/><path d="M247.143461 117.992232c4.887852 0 8.850239 3.962387 8.850239 8.850239 0 4.755748-3.751098 8.63538-8.456014 8.841616l-.394225.008623h-39.667859c-4.887852 0-8.850239-3.962387-8.850239-8.850239 0-4.755748 3.751098-8.63538 8.456014-8.841616l.394225-.008623h39.667859z" fill="#f70"/><path d="M136.462296 246.373875c0 4.887852-3.962387 8.850239-8.850239 8.850239-4.755748 0-8.63538-3.751098-8.841616-8.456014l-.008623-.394225v-39.667859c0-4.887852 3.962387-8.850239 8.850239-8.850239 4.755748 0 8.63538 3.751098 8.841616 8.456014l.008623.394225v39.667859z" fill="red"/><path d="M8.85023887 135.69271C3.96238691 135.69271 0 131.730323 0 126.842471c0-4.755748 3.7510982-8.63538 8.45601455-8.841616l.39422432-.008623H48.5180986c4.8878519 0 8.8502388 3.962387 8.8502388 8.850239 0 4.755748-3.7510982 8.63538-8.4560145 8.841616l-.3942243.008623H8.85023887z" fill="#0087cb"/><path d="M224.318605 17.1016778c6.280527 5.49651 7.018734 14.9700365 1.745047 21.3669318l-.29917.352173-77.707269 88.7914564 77.707269 88.791093c5.598297 6.396833 4.950956 16.120807-1.445877 21.719104-6.280527 5.49651-15.768309 4.972431-21.409697-1.102663l-.309408-.343214-74.996287-85.69332-74.9955788 85.69332c-5.5982973 6.396833-15.3222718 7.044175-21.7191049 1.445877-6.280527-5.49651-7.0187339-14.970036-1.7450476-21.366931l.2991706-.352173 77.7065607-88.791093-77.7065607-88.7914564c-5.5982973-6.3968331-4.9509561-16.1208075 1.445877-21.7191048 6.2805271-5.4965101 15.7683084-4.9724311 21.4096964 1.1026638l.3094085.3432132 74.9955788 85.6926842L202.5995 18.5475548c5.598297-6.3968331 15.322272-7.0441743 21.719105-1.445877z" fill="#505052"/></svg>