<svg width="512px" height="143px" viewBox="0 0 512 143" xmlns="http://www.w3.org/2000/svg" preserveAspectRatio="xMidYMid"><path d="M0 34.6068096h30.4746532l17.6907945 45.3245901 17.9490542-45.3245901h29.6998739L51.1354351 142.042875H21.3064313L33.5737705 113.6343 0 34.6068096zm126.676419-1.8078184c-22.85599 0-37.3185375 20.5316519-37.3185375 40.934174 0 22.9851198 15.8829765 41.1924338 36.9311475 41.1924338 15.753846 0 21.693821-9.555612 21.693821-9.555612v7.489534h26.600757V34.6068096H147.98285v7.1021437c-.12913 0-6.714754-8.9099621-21.306431-8.9099621zm5.681715 25.1803278c10.58865 0 16.012106 8.3934427 16.012106 15.8829761 0 8.1351828-5.810845 16.1412358-16.012106 16.1412358-8.393443 0-16.012106-6.843884-16.012106-15.7538462 0-9.039092 6.069104-16.2703657 16.012106-16.2703657zm51.264565 54.880202V0h27.762925v41.9672131c0 0 6.585624-9.1682219 20.402522-9.1682219 16.916015 0 26.859017 12.6547289 26.859017 30.6037831v49.4567467h-27.633796V70.1175284c0-6.0691047-2.840858-12.0090795-9.426482-12.0090795-6.714754 0-10.201261 5.9399748-10.201261 12.0090795v42.7419926h-27.762925zm122.415132-80.0605298c-26.213367 0-41.838083 19.8860025-41.838083 41.3215637 0 24.2764186 18.852963 40.9341741 41.967213 40.9341741 22.33947 0 41.838083-15.8829762 41.838083-40.5467845 0-26.9881463-20.531652-41.7089533-41.967213-41.7089533zm.25826 25.3094577c9.297352 0 15.624716 7.7477932 15.624716 15.8829761 0 6.9730138-5.939975 15.6247162-15.624716 15.6247162-8.909962 0-15.495587-7.1021437-15.495587-15.7538461 0-8.1351829 5.423456-15.7538462 15.495587-15.7538462zm87.937453-25.3094577c-26.213367 0-41.838084 19.8860025-41.838084 41.3215637 0 24.2764186 18.852964 40.9341741 41.967213 40.9341741 22.339471 0 41.838084-15.8829762 41.838084-40.5467845 0-26.9881463-20.402522-41.7089533-41.967213-41.7089533zm.258259 25.3094577c9.297352 0 15.624717 7.7477932 15.624717 15.8829761 0 6.9730138-5.939975 15.6247162-15.624717 15.6247162-8.909962 0-15.495586-7.1021437-15.495586-15.7538461 0-8.1351829 5.552585-15.7538462 15.495586-15.7538462zm63.661034 19.4986129c10.201261 0 18.465574 8.2643127 18.465574 18.4655738 0 10.2012614-8.264313 18.4655734-18.465574 18.4655734-10.201261 0-18.465573-8.264312-18.465573-18.4655734 0-10.2012611 8.264312-18.4655738 18.465573-18.4655738zm24.534679-6.7147541h-33.186381L478.942749 7.10542736e-15H512L482.687516 70.8923077z" fill="#5f01d1"/></svg>