<svg width="256px" height="256px" viewBox="0 0 256 256" xmlns="http://www.w3.org/2000/svg" preserveAspectRatio="xMidYMid"><path fill="#fb651e" d="M0 0h256v256H0z"/><path d="M119.373653 144.745813 75.43296 62.4315733h20.0814933L121.36192 114.52416c.397655.927862.86158 1.888848 1.391787 2.882987.530207.994138.994131 2.021399 1.391786 3.081813.265104.397655.463929.762167.59648 1.093547.132552.331379.265102.629616.397654.89472.662759 1.325517 1.259233 2.617878 1.78944 3.87712.530207 1.259242.994131 2.419052 1.391786 3.479466 1.060415-2.25338 2.220225-4.672413 3.479467-7.257173 1.259242-2.58476 2.551602-5.268893 3.87712-8.05248l26.24512-52.0925867h18.689707L136.27392 145.739947v53.08672h-16.900267v-54.080854z" fill="#fff"/></svg>