<svg width="256px" height="278px" viewBox="0 0 256 278" xmlns="http://www.w3.org/2000/svg" preserveAspectRatio="xMidYMid"><path fill="#020202" d="M139.4 276.2c-64.3 0-116.6-52.7-116.6-117.6 0-64.8 52.3-117.6 116.6-117.6S256 93.8 256 158.6c0 64.9-52.3 117.6-116.6 117.6h0zm0-229.3c-61 0-110.7 50.1-110.7 111.7 0 61.6 49.7 111.7 110.7 111.7 61 0 110.7-50.1 110.7-111.7 0-61.6-49.6-111.7-110.7-111.7h0z"/><defs><path id="a" d="M203 63.6v-.3l6.6-33.2c0 0-14.7-33.9-64.1-29.8C96.2 4.4 90 15.8 81.9 29.4l4.8 21.7-9.2 5.9c0 0-3.3-9.9-8.5-10.3 0 0 7.7-11.1 2.2-18.8-5.5-7.7-35-7-46.4 32 0 0-1.5-11.8-6.3-11.8S-4 54.5.8 72.9c4.8 18.4 21.4 23.9 26.9 26.2 0 0 2.6 3.3 1.5 7.7-.6 2.3-13.9 43.6-2.8 81.8 8.3 28.5 35 53.3 35 53.3 20.4 19.4 47.8 31.3 78 31.3 62.7 0 113.6-51.3 113.6-114.6.1-39.5-19.8-74.4-50-95h0z"/></defs><clipPath id="b"><use overflow="visible" href="#a"/></clipPath><g clip-path="url(#b)"><path fill="#f4cf8c" d="M271.2 329.2c0 0 1.9 25.7-5.1 30.9 0 0-1.5 10.3-11.4 10.6 0 0-2.2 5.9-12.5 2.9-10.3-2.9-19.1-33.1-19.1-33.1s31.1-26.4 48.1-11.3h0z"/><path fill="#050505" d="M179.5 200.4c0 0 82.6 13.3 91.7 128.8 0 0-15.4 9.8-31.5 10.5 0 0 1.4-88.9-60.2-139.3h0z"/><path fill="#dd002a" d="M260.8 278.3c-4.5 2.2-14.1 6-28.9 7.5.5 1.9 1 3.8 1.5 5.7 5.9-.9 16.5-3.1 29.2-8.1-.6-1.7-1.2-3.4-1.8-5.1h0zm-33-5.7c.6 1.9 1.3 3.7 1.8 5.6 5.4-.6 17.6-2.3 28.4-7.1-.8-1.8-1.5-3.6-2.3-5.3-4 1.8-12.8 5-27.9 6.8h0zm43.4 56.6c-.8-10.6-2.3-20.3-4.2-29.2-6.3 3.9-16.3 8.6-29.8 10.4 2.8 17.5 2.6 29.3 2.6 29.3 16-.7 31.4-10.5 31.4-10.5h0z"/><g style="fill:#f4cf8c"><circle cx="94.3" cy="112.9" r="17.7"/><circle cx="94.3" cy="112.9" r="17.7"/><path d="M76.6 112.9c0 .5 0 1.1.1 1.6 1.3-.5 2.6-1.2 4-2.2 8.4-5.4 8.6-11.8 6.8-15.8-6.4 2.8-10.9 9.1-10.9 16.4z"/><circle cx="85.2" cy="112.9" r="8.6"/></g><path fill="#d8af6f" d="M85.2 104.4c-.3 0-.7 0-1 .1 3.3.5 5.9 4.1 5.9 8.5 0 4.4-2.6 8-5.9 8.5.3 0 .7.1 1 .1 4.7 0 8.6-3.8 8.6-8.6-.1-4.8-3.9-8.6-8.6-8.6h0z"/><g style="fill:#f4cf8c"><path d="M84.1 104.5c-.3 0-.5-.1-.8-.1-3.7 0-6.7 3.8-6.7 8.6 0-4.4 3.3-8 7.5-8.5zm-7.5 8.4c0 4.7 3 8.6 6.7 8.6.3 0 .5 0 .8-.1-4.2-.5-7.5-4.1-7.5-8.5z"/><circle cx="198" cy="112.9" r="17.7"/><circle cx="198" cy="112.9" r="17.7"/><circle cx="207.1" cy="112.9" r="8.6"/></g><path fill="#d8af6f" d="M202.2 112.9c0-4.4 2.6-8 5.9-8.5-.3 0-.7-.1-1-.1-4.7 0-8.6 3.8-8.6 8.6 0 4.7 3.8 8.6 8.6 8.6.3 0 .7 0 1-.1-3.3-.5-5.9-4.1-5.9-8.5z"/><path fill="#f4cf8c" d="M215.7 112.9c0-4.7-3-8.6-6.7-8.6-.3 0-.5 0-.8.1 4.2.6 7.5 4.2 7.5 8.5zm-7.5 8.5c.3 0 .5.1.8.1 3.7 0 6.7-3.8 6.7-8.6 0 4.4-3.3 8-7.5 8.5h0zm-163.4 2.9c0 0 16.9 2.2 14.7-14.7 0 0 5.9 9.2 19.1.7 13.2-8.4 6.2-19.5 2.6-19.8-3.7-.4-8.8-4.4-21.7 8.8l-7.3-16.9 8.4-11c0 0 1.2 15.9 13.4 11.4 12.3-4.5 3.1-31.6-7.9-31.6L46.3 62.6c0 0 3.7-10.3 19.8-18.7 0 0 6.2-3.7 2.6-12.9-3.7-9.2-38.6-2.6-44.1 42.2 0 0-6.2-5.9-4.8-15.1s-18-6.6-14.3 13.2c3.7 19.8 22.8 23.9 22.8 23.9s6.5 10.5 1.8 22.4c0 .1 7.4 9.2 14.7 6.7zm33.8-14c13.2-8.4 6.2-19.5 2.6-19.8-2.3-.2-5.1-1.8-9.9 0l4.3 8.9c0 0-.9 12.7-15.1 9.5 0 0-.1.5-.5 1.3 1.6 1.9 7.5 7.2 18.6.1zm-19 .5c-2.2 3.9-9.8 11.5-28.2 2.1-.3 1.7-.7 3.1-1.3 4.8 0 0 7.3 9.2 14.7 6.6 0 0 16.1 2.1 14.8-13.5zm1-39.4c0 0 1.2 15.9 13.4 11.4 5-1.8 6.4-7.5 5.6-13.5-3.1 3.2-12.5 11.2-16.2-5.8L46.6 83.1l-13.3 7.7 16.6-4.2 9.7 12.6-7.3-16.9 8.3-10.9zM49.1 57.8c2.7-3.8 7.9-9.2 17.1-14 0 0 6.2-3.7 2.6-12.9-.1-.2-.1-.3-.2-.5-.9 2.8-2.6 6.1-5.9 8.4-6.8 4.7-31.1 21.6-23.4 47.1-.1.2-3.3-15.6 9.8-28.1zM24.3 72.9c-1.3-1.4-5.7-6.8-4.4-14.7.6-3.6-2.1-5.4-5.3-5-.7 9.8.7 29.8 20.1 35.5 0 0-7.3-3.4-10.4-15.8z"/><path fill="#050505" d="M30.1 117.7l14.7 6.6c0 0-13.2 72.7 55.8 75.7 0 0 .5 46.8-42.1 46 0 0-56.3-44.8-28.4-128.3z"/><path fill="#dd002a" d="M47.7 163.8c-.2-.7-.4-1.3-.6-2h0c-3.3 1.7-12 5.5-24.6 5.4.1 1.6.2 3.2.3 4.8 6.3 0 16.8-.8 25.9-5.7v-.1c-.3-.7-.5-1.4-.7-2.1l-.3-.3zm4.7 10.4c-.3-.6-.7-1.2-1-1.8h0c-3.8 1.8-14.2 6-28 6.1.2 1.8.5 3.6.8 5.3 7.5 0 18.5-1.3 29.3-7.6v-.1c-.4-.6-.7-1.2-1.1-1.8v-.1h0zm-22.3-56.5c-4 10.9-5.7 21-7 30.4 7 1.3 14 1.5 20.9-3-.9-11.8.8-20.8.8-20.8l-14.7-6.6z"/><path fill="#050505" d="M51.5 304.2l90 116c0 0 3.5 1.3 5-.5V304.2h-95zm189.3 0-90 116c0 0-3.5 1.3-5-.5V304.2h95zm-53.2-106.1h-82.8c-88.2 38.7-67.7 184.8-67.7 184.8h109.6v-66.8l6.1 66.8h102.4c0-.1 20.6-146.1-67.6-184.8h0z"/><path fill="#f4cf8c" d="M223.1 340.6c0 0 8.8 30.1 19.1 33.1 10.3 2.9 12.5-2.9 12.5-2.9 2.9-.1 5.1-1.1 6.7-2.4.7-10.6 1.2-26.1 0-43.6-17-2.3-38.3 15.8-38.3 15.8z"/><path fill="#930023" d="M261.9 334c-1.2-31.4-7.5-71.7-28.7-102-25.3-27-53.7-31.6-53.7-31.6 61.6 50.4 60.2 139.3 60.2 139.3 8.2-.4 16.3-3.1 22.2-5.7z"/><path fill="#dd002a" d="M40.6 289.1c-.3 1.3-.6 2.7-.8 4 24.4-9 62.9-14.8 106.3-14.8s82 5.8 106.3 14.8c-.3-1.3-.5-2.7-.8-4-24.4-8.8-62.6-14.5-105.5-14.5-42.9 0-81.1 5.7-105.5 14.5zm4.9-18.5c-.4 1.2-.7 2.4-1.1 3.6 24.5-8.1 61-13.2 101.8-13.2s77.3 5.1 101.8 13.2c-.4-1.2-.7-2.4-1.1-3.6-24.5-7.9-60.5-12.8-100.7-12.8-40.2 0-76.3 5-100.7 12.8zm34.2-56.5c-18.9 24.3-16.8 54-16.8 54l5.1-2.3c-1.6-25.8 10.2-46.3 17.6-56.5-2 1.5-4 3.1-5.9 4.8zm127-4.8c7.4 10.2 19.2 30.6 17.6 56.5l5.1 2.3c0 0 2-29.6-16.8-54-1.9-1.7-3.9-3.3-5.9-4.8h0zm-60 106.8 6.1 66.8h102.4c0 0 6.3-44.8-3.1-91.4l-5.2-1.7c8.6 23.5 4.6 86.9 4.6 86.9h-93.2l-8.8-98.5h-7.1l-.9 98.5H41.9C37.3 332 44.4 290 44.4 290l-4.2 1.2c-9.5 46.7-3.1 91.7-3.1 91.7h109.6v-66.8h0z"/><path fill="#f4cf8c" d="M192 195c0 0-17.6 16-46.6 16-34.4 0-45.1-16-45.1-16L94.2 82.8H198L192 195h0zm0 0c0 0-17.6 16-46.6 16-34.4 0-45.1-16-45.1-16L94.2 82.8H198L192 195h0zm0 0c0 0-17.6 16-46.6 16-34.4 0-45.1-16-45.1-16L94.2 82.8H198L192 195h0z"/><path fill="#b27d30" d="M159.3 102l2.6-3.3c0 0 9.3-.5 23.7 7.2 0 0-10.4-12.8-26-8.5l.5-2.8-4.4 7.2c0 0 1.6 9.7-.1 16.7h-18.7c-1.7-7-.1-16.7-.1-16.7l-4.4-7.2.5 2.8c-15.6-4.3-26 8.5-26 8.5 14.3-7.7 23.7-7.2 23.7-7.2l2.6 3.3c-5 10-16.8 10.8-16.8 10.8 12.4 1.3 16.9-6.4 16.9-6.4-.7 6.1.6 14.1.6 14.1l12.4 8.8.1-.1.1.1 12.4-8.8c0 0 1.3-8 .6-14.1 0 0 4.5 7.7 16.9 6.4-.3 0-12.1-.8-17.1-10.8h0z"/><ellipse fill="#050505" cx="146.1" cy="138.3" rx="17" ry="10.2"/><path fill="#dd002a" d="M146.1 149c3.9 0 7.4-1.3 10.3-2.6-2-2.2-5.8-3.6-10.3-3.6-4.4 0-8.3 1.5-10.3 3.6 2.9 1.3 6.5 2.6 10.3 2.6z"/><path fill="#fff" d="M146.1 128.1c-9.4 0-17 4.6-17 10.2 0 .3 0 .6.1.9h33.9c0-.3.1-.6.1-.9 0-5.6-7.6-10.2-17.1-10.2h0z"/><path fill="#c98c28" d="M146.1 155.1c-3.5 0-6.7-.6-9.4-1.7 2.2 2.8 5.5 4.6 9.4 4.6 3.8 0 7.2-1.8 9.4-4.6-2.7 1.1-5.9 1.7-9.4 1.7zm0 30.4c-5.9 0-11.4-1.1-16-2.9 3.7 4.8 9.5 7.8 16 7.8s12.3-3.1 16-7.8c-4.6 1.8-10 2.9-16 2.9h0z"/><path fill="#cea063" d="M95.2 101.3H197l1-18.4H94.2l1 18.4z"/><path fill="#050505" d="M198.3 82.8l9.1-52.7c0 0-13.7-27-61-27-57.4 0-61.6 27-61.6 27L94 82.8h104.3z"/><path fill="#dd002a" d="M90.1 60.2 94 82.8h104.3l3.9-22.6H90.1z"/><g style="fill:#050505"><path d="M214 95.4H78.3l-4.2-12.6h144.2L214 95.4z"/><circle cx="146.1" cy="67.5" r="16.8"/></g><path fill="#dd002a" d="M146.1 82.2c-8.1 0-14.7-6.6-14.7-14.7 0-8.1 6.6-14.7 14.7-14.7 8.1 0 14.7 6.6 14.7 14.7.1 8.1-6.5 14.7-14.7 14.7zm0-27.5c-7.1 0-12.8 5.7-12.8 12.8 0 7.1 5.7 12.8 12.8 12.8 7.1 0 12.8-5.7 12.8-12.8.1-7.1-5.7-12.8-12.8-12.8h0zm0 23.4c-5.9 0-10.6-4.8-10.6-10.6 0-5.9 4.8-10.6 10.6-10.6 5.9 0 10.6 4.8 10.6 10.6.1 5.8-4.7 10.6-10.6 10.6zm0-19.9c-5.1 0-9.2 4.1-9.2 9.2 0 5.1 4.1 9.2 9.2 9.2 5.1 0 9.2-4.1 9.2-9.2.1-5-4.1-9.2-9.2-9.2zm2.7 5.5 4.8-3.5-3.7 4.7 5.8-1.5-5.1 3.1 5.9.7-5.9 1L156 71l-5.8-1.2 3.9 4.5-5-3.2 2 5.6-3.5-4.8-.1 6-1.5-5.8-2.3 5.5.6-5.9-4.1 4.3 2.7-5.3-5.4 2.5 4.5-4-6 .4 5.6-2.1-5.7-1.8 6 .1-4.7-3.7 5.5 2.2-3-5.1 4.3 4.1-1-5.9 2.6 5.4 1.2-5.8.5 6 3.3-5-1.8 5.7z"/><path fill="#050505" d="M149.3 67.5c0 1.8-1.4 3.2-3.2 3.2-1.8 0-3.2-1.4-3.2-3.2 0-1.8 1.4-3.2 3.2-3.2 1.8 0 3.2 1.4 3.2 3.2z"/><path fill="#dd002a" d="M145.4 211.1c-34.4 0-45.1-16-45.1-16l1.2 22.8c0 0 10.3 15.6 43.9 15.6 28.2 0 45.3-15.6 45.3-15.6L192 195c-.1 0-17.7 16.1-46.6 16.1h0z"/><path fill="#050505" d="M146.1 233.1c.8-3 1.3-6.8 1.3-10.9 0-4.2-.5-8-1.3-10.9-.8 3-1.3 6.8-1.3 10.9s.5 8 1.3 10.9h0z"/><circle fill="#930023" cx="154.3" cy="222.9" r="3.1"/><circle fill="#fff" cx="153.6" cy="222.2" r="3.1"/><path fill="#ffb000" d="M157.3 253.6H135c-3.5 0-6.4 2.9-6.4 6.4v15.9c0 3.5 2.9 6.4 6.4 6.4h22.3c3.5 0 6.4-2.9 6.4-6.4V260c0-3.6-2.9-6.4-6.4-6.4zm-1.7 8.9v10.9c0 .6-.5 1.2-1.2 1.2h-16.5c-.6 0-1.2-.5-1.2-1.2v-10.9c0-.6.5-1.2 1.2-1.2h16.5c.6 0 1.2.5 1.2 1.2h0z"/><path fill="#c98c28" d="M133.8 120.5l12.3 8.7.1-.1.1.1 12.3-8.7h-24.8z"/><path fill="#4f1907" d="M146.1 127.3c0 0-10.4-12.4-34.8-6.3l-36.9 36.3c0 0 13.3 9.9 34.1 7.2 20.8-2.7 37.8-24.9 37.6-37.2zm0 0c0 0 10.4-12.4 34.8-6.3 24.4 6.1 36.9 36.3 36.9 36.3s-13.3 9.9-34.1 7.2c-20.8-2.7-37.7-24.9-37.6-37.2h0z"/><path fill="#dd002a" d="M196.7 233.3h2.2L195 238l-3.8-4.7h2.2v-2.1h-8.2v2.1h3.2l5.4 6.7v4.2h-3.2v2.1h8.6v-2.1H196V240l5.4-6.7h3.2v-2.1h-8.2l.3 2.1z"/></g></svg>