<svg width="256px" height="256px" viewBox="0 0 256 256" xmlns="http://www.w3.org/2000/svg" preserveAspectRatio="xMidYMid"><defs><linearGradient x1="65.7970456%" y1="66.6866128%" x2="2.10470459%" y2="5.57397386%" id="a"><stop stop-color="#905cfb" offset="0%"/><stop stop-color="#a554e6" offset="7%"/><stop stop-color="#d641b5" offset="25%"/><stop stop-color="#f43597" offset="39%"/><stop stop-color="#ff318c" offset="47%"/></linearGradient></defs><path d="M83.6107669 98.1951254c42.3454921-38.6289059 89.3886561-81.6916266 90.7514941-83.0544642 2.12053-2.1592568 4.392728-4.1641377 6.799217-5.99930864 17.868337-13.16935553 42.523938-12.00034231 59.066103 2.80054244 16.542165 14.8008848 20.435067 39.1752677 9.326015 58.392406-2.010243 3.5266553-4.500399 6.7571277-7.399147 9.5988938-9.398917 9.3989169-45.394769 47.5945152-45.394769 47.5945152 0 0 47.194562 45.394769 47.994469 45.9947 11.696054 9.368153 14.68416 25.930801 6.999194 38.795529-4.60451 7.594231-12.254308 12.839806-20.99758 14.398341-2.598177.458502-36.914616-32.570846-74.811811-59.294274-23.957774 26.878458-71.6215991 80.33185-71.7712979 80.33185-20.2376679 14.158368-44.994815 6.359267-56.1935245.199977-15.5393748-9.073012-25.82040123-25.01262-27.677382398-42.910758-1.856981162-17.898137 4.932728358-35.608881 18.278465498-47.678803 6.5992395-5.999309 34.5960133-31.396382 64.9925105-59.1931788l.0380437.0240322z" fill="#0cb0f2"/><path d="M167.802009 111.987903c-1.369496-9.376341-6.345739-17.8474608-13.868777-23.6089886L80.2202759 13.784129C67.7425663 1.28876913 49.3116161-3.15377087 32.5112416 2.2844889 15.710867 7.72274867 3.37932623 22.1230677.590700461 39.5601208-2.19792531 56.9971739 5.02747487 74.5251424 19.2938526 84.9317615L108.278497 147.06068c12.027593 9.355257 28.547797 10.419036 41.675903 2.68362 13.128105-7.735416 20.202845-22.70194 17.847609-37.756397h0z" fill="url(#a)"/><path d="M47.8545287 48.7631944h159.382277v159.382277H47.8545287z"/><path d="M63.9919842 175.87056h58.3737588v10.559076H63.9919842V175.87056zm21.3173795-63.952138-26.8957592-42.2363037h17.9305062l16.735139 28.0911263 16.9343673-28.0911263h17.492205l-26.89576 42.0370757v27.891898H85.2695182v-27.69267h.0398455zm65.7451893-28.0911267h-21.31738v-14.145177h57.776076v14.145177h-21.118152v55.5845687h-15.340544V83.8272953z" fill="#fff"/></svg>