<svg width="256px" height="180px" viewBox="0 0 256 180" xmlns="http://www.w3.org/2000/svg" preserveAspectRatio="xMidYMid"><path d="M250.346231 28.0746923c-2.988098-11.0426365-11.614133-19.66867121-22.65677-22.65676922C207.823743 0 127.868333 0 127.868333 0c0 0-79.9554101.164179487-99.8211281 5.58210256C17.0045684 8.57020058 8.37853373 17.1962353 5.39043571 28.2388718-.618533519 63.5374615-2.94988224 117.322662 5.5546152 151.209308c2.98809802 11.042636 11.6141327 19.668671 22.6567692 22.656769C48.0771024 179.284 128.032513 179.284 128.032513 179.284c0 0 79.95541 0 99.821128-5.417923 11.042636-2.988098 19.668671-11.614133 22.656769-22.656769 6.337328-35.347844 8.291064-89.100208-.164179-123.1346157z" fill="red"/><path fill="#fff" d="M102.420513 128.06l66.328512-38.418-66.328512-38.418z"/></svg>