<svg width="256px" height="233px" viewBox="0 0 256 233" xmlns="http://www.w3.org/2000/svg" preserveAspectRatio="xMidYMid"><title>yugabyte</title><path d="M14.0196183-7.10542736e-15h57.2862613C75.425658.0262898773 77.7360743.184029141 79.6289454 1.13046472c1.9374094 1.00210827 3.5407826 2.60548149 4.5428908 4.5428908 1.1357227 2.20463819 1.1357227 5.14415578 1.1357227 11.02319088l-.0042756 76.6730898c-.0277918 6.577908-.2362303 10.1985618-1.7995192 12.5145458-1.6033733 2.338253-4.0752403 3.941626-6.8811434 4.409276-2.7791803.463197-6.1103366-.880073-12.0809422-3.63841L33.308683 92.0336052c-9.8802111-4.710165-15.5845779-7.8108682-20.0193047-12.1374309-4.81011964-4.7433124-8.48451661-10.4887332-10.75596201-16.8354188C.478299028 57.2739779.0868481205 50.8304899.0122860428 39.8671665L0 13.9964214c.0262898773-4.11977843.184029141-6.43019471 1.13046472-8.32306588 1.00210827-1.93740931 2.60548149-3.54078253 4.5428908-4.5428908C7.56622669.184029141 9.92303687.0262898773 14.0196183-7.10542736e-15h0zm170.6642957 0h57.314407C246.118099.0262898773 248.428515.184029141 250.321387 1.13046472c1.937409 1.00210827 3.540782 2.60548149 4.54289 4.5428908C256 7.87799371 256 10.8175113 256 16.6965464l-.017544 23.1460643c-.074562 10.9465224-.466013 17.4440924-2.52113 23.284952-2.271446 6.3466857-5.945843 12.0921064-10.755962 16.8354188-5.411385 5.3445774-12.893793 8.8185528-27.724996 15.7665034l-44.359992 20.6434301.005258-102.3764936c.02629-4.11977843.184029-6.43019471 1.130465-8.32306588 1.002108-1.93740931 2.605481-3.54078253 4.54289-4.5428908 1.892872-.946435579 4.249682-1.1041748427 8.384925-1.130464720000007V-7.10542736e-15zm-58.356723 137.016345L170.620376 116.372915l-.005258 102.376494c-.02629 4.119778-.184029 6.430195-1.130465 8.323066-1.002108 1.937409-2.605481 3.540782-4.542891 4.542891-2.204638 1.135722-5.144155 1.135722-11.023191 1.135722l-54.6093327-.005258c-4.1197784-.02629-6.4301947-.184029-8.3230659-1.130464-1.9374093-1.002109-3.5407825-2.605482-4.5428908-4.542891-1.1357227-2.204638-1.1357227-5.144156-1.1357227-11.023191l.0175441-23.212872c.074562-10.946522.4660129-17.444092 2.5211302-23.284952 2.2714454-6.346685 5.9458424-12.092106 10.7559621-16.835418 5.4113847-5.344578 12.8937927-8.818553 27.7249957-15.699697z" fill="#ff5f3b"/></svg>