<svg width="512px" height="135px" viewBox="0 0 512 135" xmlns="http://www.w3.org/2000/svg" preserveAspectRatio="xMidYMid"><title>Zabbix</title><path fill="#d40000" d="M0 0h512v134.095238H0z"/><path d="M21.9428571 20.4190476H96v9.752381L36.2666667 103.009524h61.2571428v10.666666H20.4190476v-9.75238L80.152381 31.0857143H21.9428571V20.4190476zM147.504762 32.9142857l-17.371429 46.3238095h34.742857l-17.371428-46.3238095zm-7.314286-12.4952381h14.32381L190.47619 113.67619h-13.104761l-8.533334-23.7714281h-42.666666l-8.533334 23.7714281h-13.409524l35.961905-93.2571424zm76.8 48.7619048v34.1333336h20.419048c7.009524 0 11.885714-1.52381 15.238095-4.266667 3.352381-2.7428571 4.876191-7.0095238 4.876191-12.8 0-5.7904761-1.52381-10.0571428-4.876191-12.8-3.352381-2.7428571-8.533333-4.2666666-15.238095-4.2666666h-20.419048zm0-38.4v28.0380952h18.895238c6.095238 0 10.971429-1.2190476 14.019048-3.3523809 3.047619-2.4380953 4.571428-5.7904762 4.571428-10.6666667 0-4.5714286-1.523809-8.2285714-4.571428-10.6666667-3.047619-2.4380952-7.619048-3.3523809-14.019048-3.3523809h-18.895238zm-12.8-10.3619048H236.8c9.752381 0 17.066667 2.1333334 22.552381 6.0952381 5.180952 3.9619048 7.923809 9.752381 7.923809 17.0666667 0 5.7904762-1.219047 10.3619047-3.961904 13.7142857-2.742857 3.3523809-6.704762 5.4857143-11.885715 6.4 6.4 1.2190476 11.276191 3.9619048 14.628572 8.2285714 3.352381 4.2666667 5.180952 9.4476191 5.180952 15.8476191 0 8.2285714-2.742857 14.6285714-8.533333 19.2000004-5.790476 4.571428-13.714286 6.704761-24.380952 6.704761h-34.133334V20.4190476zm100.266667 48.7619048v34.1333336h20.419047c6.704762 0 11.885715-1.52381 15.238096-4.266667 3.352381-2.7428571 4.87619-7.0095238 4.87619-12.8 0-5.7904761-1.523809-10.0571428-4.87619-12.8-3.352381-2.7428571-8.533334-4.2666666-15.238096-4.2666666h-20.419047zm0-38.4v28.0380952h18.895238c6.095238 0 10.971429-1.2190476 14.019048-3.3523809 3.047619-2.4380953 4.571428-5.7904762 4.571428-10.6666667 0-4.5714286-1.523809-8.2285714-4.571428-10.6666667-3.047619-2.4380952-7.619048-3.3523809-14.019048-3.3523809h-18.895238zm-12.8-10.3619048h32.609524c9.752381 0 17.066666 2.1333334 22.552381 6.0952381 5.180952 3.9619048 7.923809 9.752381 7.923809 17.0666667 0 5.7904762-1.219047 10.3619047-3.961905 13.7142857-2.742857 3.3523809-6.704762 5.4857143-11.885714 6.4 6.4 1.2190476 11.276191 3.9619048 14.628572 8.2285714 3.35238 4.2666667 5.180952 9.4476191 5.180952 15.8476191 0 8.2285714-2.742857 14.6285714-8.533333 19.2000004-5.790477 4.571428-13.714286 6.704761-24.380953 6.704761h-34.133333V20.4190476zm87.161905 0h12.8V113.67619h-12.8V20.4190476zm36.87619 0h14.019048l22.247619 33.5238095 22.552381-33.5238095h13.409524L458.666667 64l32.914285 49.67619h-14.019047l-25.904762-39.0095233-25.904762 39.0095233h-13.714286l32.914286-49.3714281-29.257143-43.8857143z" fill="#fff"/></svg>