<svg width="512px" height="139px" viewBox="0 0 512 139" xmlns="http://www.w3.org/2000/svg" preserveAspectRatio="xMidYMid"><title>zapier</title><path d="M120.217698 95.070819l-.072104-.2285048 45.523538-41.6757435V33.0861073H92.6344155v20.0804634H136.25802l.072105.1923477L91.2514044 95.070819v20.080253h75.1511706V95.070819h-46.184877zm91.022059-63.8964161c-8.423986 0-15.289851 1.2703354-20.596544 3.8116366-4.943439 2.2144154-9.107398 5.8633449-11.952041 10.4729614-2.721246 4.6398877-4.430092 9.8032132-5.014072 15.1504777l22.160551 3.1143501c.801553-4.7216616 2.404871-8.0683005 4.809742-10.0403368 2.460284-1.8561863 5.434969-2.8858579 8.498946-2.9575286l1.024049.0117717c4.497992 0 7.760545 1.2022254 9.787027 3.6070965 2.009665 2.4048711 3.031315 5.7355334 3.031315 10.1244232v2.1883486h-21.307284c-10.845885 0-18.637541 2.4048711-23.374969 7.2146133-4.737638 4.809532-7.102358 11.1584758-7.09441 19.0462007 0 8.0802827 2.36476 14.0924607 7.09441 18.0363227 4.72944 3.943863 10.677501 5.903707 17.843765 5.880172 8.890035 0 15.728572-3.058652 20.513088-9.174887 2.827405-3.758662 4.845479-8.0611532 5.928091-12.6373455h.805128l3.054438 20.0802535h20.079833V64.2527322c0-10.5091185-2.768545-18.6493129-8.307736-24.4210035-5.539192-5.7716907-14.534335-8.6573258-26.983327-8.6573258zm7.023317 62.681788c-3.186875 2.6573405-7.359663 3.9800196-12.55368 3.9800196-4.280628 0-7.254554-.74942-8.921777-2.2484703-.812485-.7092688-1.458689-1.5886024-1.892995-2.5755665-.434306-.9871744-.645994-2.0578045-.620137-3.1357922-.047299-1.0168148.112675-2.0325785.470253-2.9854877.357577-.9529091.9054-1.8232034 1.610044-2.5576981.762033-.7147344 1.661127-1.2673923 2.642626-1.6249697.736281-.2681831 1.507564-.4223766 2.287242-.4585895l21.739816.0032616v1.3828009c.042044 1.9545884-.365775 3.89278-1.189822 5.6649009-.826149 1.7721209-2.047504 3.3308726-3.57157 4.555591zm149.688511-60.7700836h-23.722877v82.0771577h23.722877V33.0861073zm140.069026 0c-6.701686 0-11.984414 2.3647198-15.848185 7.0943697-2.772749 3.3987724-4.881215 8.4208328-6.323297 15.0661811h-.697917l-3.102788-22.1605508h-20.260619v82.0649647h23.724978V73.0664587c0-5.3064827 1.242377-9.374793 3.72713-12.2045107 2.484753-2.8297176 7.069564-4.2444713 13.754433-4.2444713H512V33.0861073h-3.979389zm-69.776999 2.6815154c-5.537089-3.2947155-12.524669-4.937974-20.956433-4.9300436-13.275141 0-23.664016 3.7797416-31.166625 11.3388989-7.504711 7.5591573-11.254965 17.9801954-11.254965 31.2629039-.191297 8.0304616 1.561905 15.9879782 5.110351 23.1946033 3.247837 6.4218888 8.305634 11.7517058 14.54905 15.3308428 6.283356 3.631272 13.758637 5.450901 22.425843 5.458889 7.494201 0 13.754433-1.154296 18.780698-3.462888 4.725656-2.07336 8.839583-5.323089 11.952882-9.439119 2.961944-4.040351 5.162905-8.5877441 6.49147-13.4189283l-20.439302-5.7235512c-.861885 3.141468-2.518387 6.007553-4.809742 8.3207699-2.310274 2.3085922-6.178248 3.4630985-11.603923 3.4630985-6.453632 0-11.263374-1.8477987-14.429227-5.5431858-2.297661-2.6693229-3.739743-6.4811697-4.376697-11.4229275h55.972113c.229136-2.3088024.348959-4.2446816.348959-5.8078478v-5.1101409c.134538-6.8652343-1.282318-13.6722388-4.147562-19.9120804-2.682356-5.6842408-7.021214-10.424822-12.44689-13.5992938zm-21.641737 14.6332948c9.619484 0 15.072487 4.7334853 16.363214 14.2005631h-34.027665c.540255-3.1587057 1.849901-6.135995 3.811216-8.6693081 3.119605-3.6953871 7.735949-5.5391917 13.853235-5.531255zM356.347661.00769924486C354.562927-.0529981671 352.7845.245687874 351.117487.886026848c-1.667013.640338972-3.186875 1.609237152-4.473397 2.849133192-1.2655 1.25179427-2.259822 2.75332515-2.915696 4.40925969-.524699 1.32474763-.824719 2.72515957-.890374 4.14368577l-.005146 1.0663918c-.063065 1.7915028.241749 3.5769935.899725 5.2450154.655874 1.668022 1.650195 3.1828596 2.917798 4.4498314 1.267602 1.2669719 2.78326 2.2589812 4.452375 2.9142245 1.335292.5241946 2.74458.8238449 4.171896.8891565l1.072993.0048922c1.78053.0672691 3.554753-.2369135 5.211255-.8929976 1.656502-.6562944 3.157444-1.6501957 4.40823-2.918639 1.242376-1.2814768 2.20937-2.8005607 2.848426-4.4660601.511246-1.3323995.801848-2.736454.864274-4.1574012l.003919-1.0680221c.081984-1.7719107-.206012-3.54148803-.847171-5.1956988-.641159-1.65421076-1.618663-3.15668762-2.871551-4.41153001-1.254989-1.2548424-2.755931-2.2344616-4.410331-2.876286802-1.652298-.641823098-3.422317-.9317227412-5.194438-.8512465258l-.012613-.01203591734zM307.337902 30.8376369c-8.080704 0-14.574276 2.537097-19.478615 7.6112909-3.632533 3.759503-6.298072 9.3707989-7.996617 16.8338875h-.756778l-3.102788-22.1605509h-20.260619V138.742563h23.722877V95.239202h.86609c.723143 2.9005605 1.738486 5.720608 3.029212 8.416839 2.007563 4.392043 5.299546 8.072925 9.440801 10.557258 4.292611 2.343067 9.129681 3.508715 14.019305 3.378801 9.932707 0 17.494176-3.867764 22.688614-11.603292 5.194437-7.7355289 7.792707-18.5292799 7.792707-32.3810431 0-13.3789875-2.514183-23.8519488-7.538346-31.4193046-5.026265-7.5671455-12.501546-11.3508234-22.425843-11.3508234zm2.404871 59.4715794c-2.582013 3.7407798-6.524619 5.7358623-11.829527 5.9852476l-1.157618.0267199c-2.427995.1122553-4.849683-.3561059-7.061156-1.3659836-2.213574-1.0100879-4.153868-2.5324722-5.659014-4.441654-3.071256-3.8555717-4.601629-9.1343058-4.593289-15.8357819v-1.5631662c0-6.8057431 1.530441-12.016157 4.593289-15.6314519 3.060745-3.6152949 7.302904-5.4027615 12.72017-5.3628205 5.997463 0 10.353138 1.9039263 13.071231 5.7115689 2.718093 3.8076425 4.07639 9.1183294 4.07639 15.9320608.016516 7.04602-1.362501 12.5612471-4.137352 16.5452609h-.023124z" fill="#201515"/><path fill="#ff4f00" d="M82.0769473 95.070819H0v20.104428h82.0769473z"/></svg>