<svg width="256px" height="124px" viewBox="0 0 256 124" xmlns="http://www.w3.org/2000/svg" preserveAspectRatio="xMidYMid"><g fill="#6fb643"><path d="M120.429511 36.0206222c0 0 0-33.8190222 33.819733-33.8190222H255.7056c0 0 0 33.8190222-33.819022 33.8190222H120.429511"/><path d="M120.429511 79.2334222c0 0 0-33.8190222 33.819733-33.8190222h50.727823c0 0 0 33.8190222-33.819734 33.8190222h-50.727822"/><path d="M120.429511 122.446222c0 0 0-33.8183109 33.819733-33.8183109h16.908089c0 0 0 33.8183109-33.8176 33.8183109h-16.910222"/><path d="M109.075911 96.0547556v26.9795554H.32l70.0600889-95.5676443H10.2357333V.485688889H123.692089L53.9555556 96.0547556h55.1203554"/></g></svg>