<svg width="256px" height="256px" viewBox="0 0 256 256" xmlns="http://www.w3.org/2000/svg" preserveAspectRatio="xMidYMid"><title>Zenhub</title><g style="fill:#afd94f"><path d="M149.8704 181.2904l37.1192 37.6048c8.4496 8.5608 22.368 8.6504 30.9288.2008 8.5608-8.4496 8.652-22.368.2016-30.9288l-37.8016-38.2976h-30.448v31.4208z"/><path d="M106.1288 74.71104 69.00896 37.1052c-8.45072-8.56184-22.36728-8.65176-30.92808-.20104-8.56072 8.4496-8.65176 22.3672-.20104 30.928l37.8016 38.29664h30.44896V74.71104h-.0016z"/></g><g style="fill:#38e1fa"><path d="M75.6816 106.1288H21.87088C9.84256 106.1288 0 115.9704 0 128c0 12.0296 9.84256 21.8712 21.87088 21.8712H75.2l21.9712-21.9704-21.48848-21.7704-.00112-.0016z"/><path d="M234.1296 106.1288h-53.3304l-21.9704 21.9704 21.4896 21.7704h53.8112c12.0288 0 21.8704-9.8416 21.8704-21.8712 0-12.0288-9.8416-21.8704-21.8704-21.8704v8e-4z"/></g><g style="fill:#515df4"><path d="M75.19824 149.8704 37.48872 187.58c-8.50576 8.5056-8.50576 22.4248 0 30.9304 8.50568 8.5056 22.4244 8.5056 30.93016 0l37.70992-37.7096V149.872H75.19824v-.0016z"/><path d="M180.7984 106.1296l37.7096-37.70984c8.5056-8.50568 8.5056-22.42336 0-30.92904-8.5056-8.5068-22.4232-8.5068-30.9288 0L149.8704 75.1992v30.9288h30.928v.0016z"/></g><g style="fill:#4bc6cf"><path d="M149.8704 75.2V21.87088C149.8704 9.84256 140.0288 0 127.9992 0c-12.0296 0-21.8704 9.84256-21.8704 21.87088v52.84016L128.1 96.9696 149.8704 75.2z"/><path d="M106.1288 180.8v53.3288c0 12.0296 9.8408 21.8712 21.8704 21.8712 12.0296 0 21.8712-9.8416 21.8712-21.8712v-52.8392l-21.9728-22.2592L106.1288 180.8z"/></g><g style="fill:#50deb4"><path d="M106.1296 118.9408v-12.8112H75.68216L97.1712 127.9z"/><path d="M149.8712 137.0584v12.812h30.4472l-21.4896-21.7712z"/></g><g style="fill:#5575f1"><path d="M149.8712 119.0248l8.9576 9.0752 21.9704-21.9704h-30.928z"/><path d="M106.1296 136.9768l-8.9592-9.0776-21.9712 21.972h30.9304z"/></g><g style="fill:#5073e8"><path d="M149.8704 137.0576l8.9576-8.9584-8.9576-9.0752z"/><path d="M97.1704 127.8992l8.9584 9.0776v-18.036z"/></g><g style="fill:#38baa5"><path d="M137.0584 149.8704l-9.1592 9.16 21.972 22.2592v-31.4192z"/><path d="M118.94 106.1288l9.16-9.16-21.9712-22.25808v31.41808z"/></g><g style="fill:#2ab2c2"><path d="M149.8712 149.8712v-12.8128l-12.8128 12.8128z"/><path d="M106.1288 106.1296v12.8112l12.8112-12.8112z"/></g><g style="fill:#2ea7cd"><path d="M137.1416 106.1296h12.7288V75.20016L128.1 96.9696z"/><path d="M118.856 149.8704h-12.7272V180.8l21.7688-21.7696z"/></g><g style="fill:#2da5c5"><path d="M127.8984 159.0304l9.16-9.16h-18.2008z"/><path d="M128.1 96.9696l-9.1592 9.1592h18.2008z"/></g><g style="fill:#2ca7cd"><path d="M149.8704 106.1296h-12.7288l12.7288 12.8952z"/><path d="M106.1288 149.8712h12.7272l-12.7272-12.8944z"/></g><path fill="#2ca5c8" d="M137.1408 106.1296H118.94l-12.8112 12.8112v18.036l12.7272 12.8944h18.2016l12.8128-12.8128v-18.0336z"/></svg>