<svg width="256px" height="205px" viewBox="0 0 256 205" xmlns="http://www.w3.org/2000/svg" preserveAspectRatio="xMidYMid"><path d="M39.4581835 141.08876 26.06592 145.981138l-.7190588 39.84093 46.3594919-16.935675c-15.9007625-5.341275-27.5124706-14.738648-32.2481696-27.797633" fill="#fdbd39"/><path d="M46.4667106 98.9501402 0 115.925113l26.06592 30.056025 13.3922635-4.892378c-4.7218447-13.020896-1.80992-27.739744 7.0085271-42.1386198" fill="#f69833"/><path d="M124.661911 41.4617978C65.4909743 63.0776445 27.3438118 107.682177 39.4581835 141.08876L253.735454 62.8105729c-12.114372-33.4067341-69.902456-42.9647727-129.073543-21.3487751" fill="#fecf33"/><path d="M168.531576 162.437536c59.171088-21.615998 97.38993-66.0226836 85.203878-99.6269631L39.4581835 141.08876c12.1859014 33.604431 69.9024565 42.964622 129.0733925 21.348776" fill="#ee6723"/><path d="M253.735454 62.8105729 39.4581835 141.08876c4.1958402 11.57052 20.1962916 17.270913 42.646739 17.270913 21.8873975 0 49.9052425-5.413975 79.1149925-16.084886 59.171238-21.615847 100.801958-56.6133708 92.515539-79.4642141" fill="#f69833"/><path d="M211.088715 45.5395094c-21.887548 0-49.905242 5.4141261-79.115294 16.0848862C72.8024849 83.240393 31.1716141 118.237766 39.4581835 141.08876L253.735454 62.8105729c-4.19584-11.5706709-20.196292-17.2710635-42.646739-17.2710635" fill="#fdbd39"/><g style="fill:#ee6723"><path d="M199.254889 187.931735h-.001505c-6.304377 0-15.605309-5.694649-27.644688-16.925549-14.243237-13.287212-30.55887-32.748653-45.942061-54.799038-15.382588-22.0494788-28.0226632-44.0938184-35.5916799-62.072538-8.2466633-19.5923316-9.4224563-31.6389548-3.4948514-35.805539 1.2997269-.912607 2.8664469-1.3749562 4.6563388-1.3749562 4.8216844 0 14.2165835 3.5898191 31.5893455 20.6926595l.379934.3737789-.05135.5315732c-.118814 1.2286488-.228292 2.4683312-.325873 3.6850396l-.193657 2.4160356-1.704357-1.717146c-18.71857-18.8580748-26.9584568-20.8939833-29.6326025-20.8939833-.7625788 0-1.3699013.1550736-1.8052519.4611401-2.5711437 1.8066231-2.73664 10.6551923 5.2585412 29.647785 7.4339392 17.6582942 19.8901462 39.3692105 35.0741082 61.1331776 15.184565 21.766084 31.250522 40.939898 45.239115 53.989513 15.084574 14.071497 21.882127 15.590947 24.104659 15.590947.767398 0 1.390984-.164898 1.85344-.490159 2.712395-1.905774 2.715558-11.384916-6.20047-31.827281l-.409299-.938452.896-.490462c.89615-.490613 1.762786-.97367 2.57551-1.435716l1.073393-.610017.494833 1.13373c6.321995 14.485028 12.23153 32.895113 4.48256 38.342339-1.306503.917746-2.880903 1.383118-4.680132 1.383118h0zm-.001505-2.234361h.0016l-.001067 1.117105-5.33e-4-1.117105z"/><path d="M169.968038 161.826763l-.090052 1.113326c-1.495944 18.510142-5.43473 40.763664-15.704546 41.664331-.206607.018439-.420894.027962-.635181.027962-6.976603 0-13.577035-9.995903-19.617581-29.710511-5.715276-18.651158-10.15025-43.693286-12.487982-70.513169-2.337882-26.8142895-2.302795-52.2487872.098636-71.6177281 2.617524-21.1061893 7.60079-32.128510156 14.810503-32.76119854C136.554918.0101266347 136.775831 0 136.994033 0c5.06112 0 12.688715 5.73077248 20.497318 32.4236942l-5.098617.984098c-2.607134-8.9200603-5.448433-16.174968-8.269101-21.1601477-2.609242-4.61109841-5.146202-7.15046724-7.144057-7.15046724-.065656 0-.131764.0027206-.196969.00831292-3.125007.27447735-7.676085 7.85479792-10.213346 28.31484692-2.358663 19.0214613-2.387125 44.0747738-.080113 70.5449089 2.308367 26.474065 6.670908 51.141961 12.283633 69.45894 2.513619 8.203639 5.270739 14.964608 7.973195 19.55243 2.492085 4.230669 4.903756 6.560704 6.790777 6.560704.064903 0 .129506-.003023.193958-.008464 2.99008-.262083 8.624941-8.150284 10.996555-35.903631l5.240772-1.798462"/></g></svg>