<svg width="512px" height="181px" viewBox="0 0 512 181" xmlns="http://www.w3.org/2000/svg" preserveAspectRatio="xMidYMid"><title>Zig</title><path d="M193.890432 0 91.0341429 122.797273h58.9077911l-24.559455 28.437264H67.2153497L3.87780863 180.964403 106.935743 56.8745266H47.8263065l24.5594547-28.4372633h58.1671298L193.890432 0zM59.4597324 28.4372633 36.1928806 56.8745266h-7.7556173v65.9227464h11.6334259l-24.5594547 28.437264H0V28.4372633h59.4597324zm138.3085076 0V151.234537h-60.752335l24.559455-28.437264h7.755617V58.1671295h-11.633426l24.559455-29.7298662h15.511234z" fill="#f7a41d"/><path d="M461.717748 27.9202222c18.484221 0 37.744004 7.1093158 50.282252 18.0964403l-16.803837 19.3890431c-9.177481-8.1433981-21.715729-12.9260288-33.478415-12.9260288-21.974249 0-39.036607 16.6745772-39.036607 38.131785 0 21.7157282 17.191618 38.2610452 39.165867 38.2610452 7.249706 0 16.251491-2.878417 24.17309-6.911263l-.001416-17.260411-38.778086-18.0964402h62.044938v50.4115122c-13.184549 9.436001-31.022469 15.511235-48.731129 15.511235-37.485483 0-66.052007-26.88614-66.052007-62.4327194 0-35.2880586 29.083565-62.1741984 67.21535-62.1741984zm-125.641.5170411v19.3890432l-68.507952 80.1413785h69.800555v23.266852H227.498107v-18.096441l68.507952-81.4339809h-67.21535V28.4372633h107.286039zm43.948498 0V151.234537h-28.437263V28.4372633h28.437263z" fill="#121212"/></svg>