<svg width="256" height="203" xmlns="http://www.w3.org/2000/svg" xmlns:xlink="http://www.w3.org/1999/xlink"><defs><filter x="-2.2%" y="-2.8%" width="105.2%" height="106.5%" filterUnits="objectBoundingBox" id="a"><feOffset dx="1" dy="1" in="SourceAlpha" result="shadowOffsetOuter1"/><feGaussianBlur stdDeviation="2" in="shadowOffsetOuter1" result="shadowBlurOuter1"/><feColorMatrix values="0 0 0 0 0 0 0 0 0 0 0 0 0 0 0 0 0 0 0.36 0" in="shadowBlurOuter1"/></filter><path d="M200.42 0H53.63L0 53.355l121.76 146.624 9.714-10.9L252 53.857 200.42 0zm-5.362 12.562l39.84 41.6-112.8 126.558L17 54.162l41.815-41.6h136.243z" id="b"/></defs><path fill="#18253F" d="M60.816 14.033h136.278l39.933 41.69-112.989 126.554L18.958 55.724z"/><path fill="#274D82" d="M151.427 152.385H98.013L73.89 122.852l68.364-.002.002-4.19h39.078z"/><path fill="#274D82" d="M225.56 43.833L78.178 128.924l-19.226-24.051 114.099-65.877-2.096-3.632 30.391-17.546zM146.596 14.075L35.93 77.968 18.72 56.482l74.094-42.778z"/><g transform="translate(2 1.51)"><use filter="url(#a)" xlink:href="#b"/><use fill="#3068B7" xlink:href="#b"/></g></svg>