<svg width="256px" height="203px" viewBox="0 0 256 203" xmlns="http://www.w3.org/2000/svg"><title>zod</title><defs><path d="M200.420694 0H53.6308282L0 53.3549074 121.760272 199.97871l9.713435-10.898872L252 53.8556526 200.420694 0zm-5.362572 12.5620609 39.839898 41.6001703L122.097509 180.72046 16.9997871 54.1622312l41.8147754-41.6001703H195.058122z" id="a"/><filter x="-2.2%" y="-2.8%" width="105.2%" height="106.5%" filterUnits="objectBoundingBox" id="b"><feOffset dx="1" dy="1" in="SourceAlpha" result="shadowOffsetOuter1"/><feGaussianBlur stdDeviation="2" in="shadowOffsetOuter1" result="shadowBlurOuter1"/><feColorMatrix values="0 0 0 0 0   0 0 0 0 0   0 0 0 0 0  0 0 0 0.36 0" in="shadowBlurOuter1"/></filter></defs><g transform="translate(2 1.510645)"><path fill="#18253f" d="M58.8162023 12.5220497H195.093896l39.933568 41.6909705L122.038097 180.765999 16.9574282 54.2130202z"/><g style="fill:#274d82"><path d="M149.426831 150.874561H96.0134271l-24.1244615-29.533423 68.3636554-.002178.002412-4.189498h39.077556z"/><path d="M223.55992 42.3226943 76.1782017 127.413686l-19.2260165-24.051729L171.050895 37.4849931l-2.09563-3.6312481 30.390715-17.5460914z"/><path d="M144.596212 12.5642823 33.9304463 76.4571406 16.7194669 54.9715457l74.0946339-42.7785592z"/></g><use fill="#000" fill-opacity="1" filter="url(#b)" href="#a"/><use fill="#3068b7" href="#a"/></g></svg>