<svg width="512px" height="177px" viewBox="0 0 512 177" xmlns="http://www.w3.org/2000/svg" preserveAspectRatio="xMidYMid"><defs><linearGradient x1="49.9958559%" y1="1.43117746%" x2="49.9958559%" y2="96.9811775%" id="a"><stop stop-color="#ffe513" offset=".005618"/><stop stop-color="#fdb924" offset="1"/></linearGradient><linearGradient x1="4.51245499%" y1="13.4942105%" x2="95.672455%" y2="87.0642105%" id="b"><stop stop-color="#008cd2" offset=".005618"/><stop stop-color="#00649d" offset="1"/></linearGradient><linearGradient x1="50.0016382%" y1="27.7788157%" x2="50.0016382%" y2="97.5288157%" id="c"><stop stop-color="#26a146"/><stop stop-color="#008a52" offset="1"/></linearGradient><linearGradient x1="43.733871%" y1="8.20779605%" x2="57.543871%" y2="93.1977961%" id="d"><stop stop-color="#d92231"/><stop stop-color="#ba2234" offset="1"/></linearGradient></defs><g transform="translate(384 37)"><path d="M128 .7v121.4l-16.8 16.4V19.7L128 .7h0z" fill="#e79225"/><path d="M17.9.8.5 19.7l.9 1.2 109.1-.4 1-.8L128 .7 17.9.8h0z" fill="#fff16d"/><path fill="url(#a)" d="M.5 19.7h111v118.9H.5z"/><path d="M94.6 62.5C92.4 57 89.1 52 84.8 47.7c-4.1-4.2-8.7-7.4-13.9-9.5-5.1-2.1-10.6-3.2-16.6-3.2-6 0-11.6 1.1-16.7 3.2-5.2 2.1-9.8 5.3-13.9 9.5C19.4 52 16.2 57 14 62.5 11.8 68 10.8 74 10.8 80.6c0 6.4 1.1 12.4 3.3 18 2.2 5.6 5.4 10.6 9.7 15 4 4.1 8.6 7.2 13.7 9.3 5.1 2.1 10.8 3.2 16.9 3.2 5.9 0 11.4-1.1 16.5-3.2 5.1-2.1 9.8-5.2 13.9-9.3 4.3-4.4 7.6-9.4 9.8-14.9 2.2-5.5 3.3-11.6 3.3-18 0-6.7-1.1-12.7-3.3-18.2h0 0zm-22.9 39.2c-4.3 5.1-10 7.7-17.4 7.7-7.4 0-13.2-2.6-17.5-7.7-4.3-5.1-6.4-12.2-6.4-21.2 0-9.2 2.2-16.3 6.4-21.5 4.3-5.2 10-7.7 17.5-7.7 7.4 0 13.1 2.6 17.4 7.7 4.2 5.2 6.4 12.3 6.4 21.5 0 9-2.1 16.1-6.4 21.2h0 0z" fill="#fff"/></g><g transform="translate(257 27)"><path d="M116.6.8v.6l14.2 109.1-8.3 23-1.1-.8-14.6-104.6.3-1.4 9.1-25.3.4-.6h0z" fill="#009ada"/><path d="M7.3 16 116.6.8 107.4 27l-1.3 1.4-102.2 15 .5-18.7L7.3 16h0z" fill="#91c9ed"/><path d="M107.4 27l15.1 106.5-107.7 15.1L.3 45.7l6.3-4.9L107.4 27h0z" fill="url(#b)"/><path d="M89.1 47.4c-.5-3.3-1.6-5.8-3.4-7.5-1.5-1.3-3.3-2-5.4-2-.5 0-1.1 0-1.7.1-2.8.4-4.9 1.7-6.2 3.8-1 1.5-1.4 3.4-1.4 5.6 0 .8.1 1.7.2 2.6l3.9 27.7-31 4.6-3.9-27.7c-.5-3.2-1.6-5.7-3.4-7.4-1.5-1.4-3.3-2.1-5.3-2.1-.5 0-1 0-1.5.1-2.9.4-5.1 1.7-6.5 3.8-1 1.5-1.4 3.4-1.4 5.6 0 .8.1 1.7.2 2.7l10.6 72.1c.5 3.3 1.6 5.8 3.6 7.5 1.5 1.3 3.3 1.9 5.5 1.9.6 0 1.2 0 1.8-.1 2.7-.4 4.7-1.7 6-3.8.9-1.5 1.3-3.3 1.3-5.4 0-.8-.1-1.7-.2-2.6l-4.3-28.5 31-4.6 4.3 28.5c.5 3.3 1.6 5.8 3.5 7.4 1.5 1.3 3.3 2 5.4 2 .5 0 1.1 0 1.7-.1 2.8-.4 4.9-1.7 6.2-3.8.9-1.5 1.4-3.3 1.4-5.5 0-.8-.1-1.7-.2-2.6L89.1 47.4h0z" fill="#fff"/></g><g transform="translate(123)"><path d="M39 0 .1 92.4 5.4 133l.3-.1 43.7-98.3-.2-2.1-9.4-31.2L39 0h0z" fill="#66bf6b"/><path d="M39 0l10.1 33.9.2.7 96.2 43.1.3-.2-8.2-32.4L39 0h0z" fill="#98d0a0"/><path d="M49.1 33.9l96.7 43.6-43.7 99.1L5.4 133l43.7-99.1h0z" fill="url(#c)"/><path d="M116.5 85.5c-2.1-5.6-5-10.4-8.8-14.4-3.8-4-8.4-7.2-13.8-9.5-5.4-2.3-10.8-3.4-16.3-3.4h-.3c-5.6 0-11.1 1.3-16.5 3.7h0c-5.7 2.5-10.6 5.9-14.8 10.4-4.2 4.4-7.6 9.8-10.2 16-2.6 6.1-4 12.3-4.3 18.4v2.1c0 5.4.9 10.7 2.8 15.9 2 5.5 4.9 10.2 8.7 14.2 3.8 4 8.5 7.2 14.1 9.5h0c5.3 2.3 10.7 3.4 16.2 3.4h.1c5.5 0 11-1.2 16.4-3.5h0c5.7-2.5 10.7-6 14.9-10.5 4.2-4.4 7.7-9.7 10.3-15.9 2.6-6.2 4-12.3 4.3-18.4v-1.8c.1-5.5-.8-10.9-2.8-16.2h0 0zm-19.3 28.8c-3.6 8.6-8.5 14.5-14.4 17.7-3.2 1.7-6.5 2.6-9.8 2.6-2.9 0-6-.7-9.1-2-6.8-2.9-11-7.5-12.8-14.1-.6-2.2-.9-4.5-.9-6.9 0-4.8 1.2-10.1 3.6-15.8C57.5 87 62.4 81 68.3 77.7c3.2-1.8 6.5-2.6 9.8-2.6 3 0 6 .7 9.2 2C94 80 98.2 84.6 100 91.2c.6 2.1.9 4.4.9 6.8 0 5-1.2 10.4-3.7 16.3h0 0z" fill="#fff"/></g><g transform="translate(0 15)"><path d="M115.4.7l15.8 105.8-7.2 37.2-1-1.3-15.4-102.2v-2l6.8-35.7 1-1.8h0z" fill="#760d16"/><path d="M0 55.4 7.5 18 115.4.7l-7.3 38.1v2.5L1.3 56.4l-1.3-1h0z" fill="#ef463e"/><path d="M108.1 38.8 124 143.7 17.2 160.4 0 55.4l108.1-16.6h0z" fill="url(#d)"/><path d="M96.6 127c-.8-1-2-1.7-3.4-2.2-1.4-.5-3.1-.7-5.2-.7-1.9 0-4.1.2-6.5.6l-28.2 4.8c.3-2.2 1.4-5 3.3-8.5 2.1-3.9 5.3-8.6 9.4-14h0c1.4-1.9 2.5-3.3 3.3-4.3.5-.7 1.3-1.6 2.3-2.9 6.5-8.5 10.4-15.4 12-20.8.9-3.1 1.4-6.2 1.6-9.3.1-.9.1-1.7.1-2.5 0-2.2-.2-4.4-.6-6.6-.3-2-.8-3.6-1.5-4.9-.7-1.3-1.5-2.3-2.5-2.9-1.1-.7-2.8-1-4.9-1-1.7 0-3.8.2-6.3.6L36.9 58c-3.9.7-6.9 1.8-8.7 3.6-1.5 1.4-2.2 3.2-2.2 5.2 0 .5 0 1.1.1 1.7.5 2.8 1.9 4.8 4.2 5.8 1.4.6 3 .9 5 .9 1.3 0 2.8-.1 4.4-.4L66.9 70c0 .5.1 1 .1 1.4 0 1.7-.3 3.4-.9 5-.8 2.3-2.8 5.5-6.1 9.6-.9 1.1-2.3 2.9-4.2 5.2-7.4 8.9-12.6 16.5-15.8 22.8h0c-2.3 4.4-3.8 8.6-4.7 12.9-.5 2.5-.8 4.8-.8 7.1 0 1.6.1 3.2.4 4.7.4 2.2.9 4 1.6 5.4.7 1.4 1.7 2.5 2.8 3.1 1.1.6 2.6.8 4.8.8 2.7 0 6.4-.4 11.1-1.2l29.6-5.1c5.2-.9 8.9-2.2 11-3.9 1.7-1.4 2.6-3.3 2.6-5.5 0-.6-.1-1.2-.2-1.8-.2-1.3-.7-2.5-1.6-3.5h0 0z" fill="#fff"/></g></svg>