<svg width="256px" height="256px" viewBox="0 0 256 256" xmlns="http://www.w3.org/2000/svg" preserveAspectRatio="xMidYMid"><title>Zoom</title><defs><linearGradient x1="23.666%" y1="95.6118%" x2="76.334%" y2="4.3882%" id="a"><stop stop-color="#0845bf" offset="5.791949e-7"/><stop stop-color="#0950de" offset=".1911"/><stop stop-color="#0b59f6" offset=".3823"/><stop stop-color="#0b5cff" offset=".5"/><stop stop-color="#0e5efe" offset=".6731999999999999"/><stop stop-color="#1665fc" offset=".7774"/><stop stop-color="#246ff9" offset=".8633"/><stop stop-color="#387ff4" offset=".9388"/><stop stop-color="#4f90ee" offset="1"/></linearGradient></defs><path d="M256 128c0 13.568-1.024 27.136-3.328 40.192-6.912 43.264-41.216 77.568-84.48 84.48C155.136 254.976 141.568 256 128 256c-13.568 0-27.136-1.024-40.192-3.328-43.264-6.912-77.568-41.216-84.48-84.48C1.024 155.136 0 141.568 0 128c0-13.568 1.024-27.136 3.328-40.192 6.912-43.264 41.216-77.568 84.48-84.48C100.864 1.024 114.432 0 128 0c13.568 0 27.136 1.024 40.192 3.328 43.264 6.912 77.568 41.216 84.48 84.48C254.976 100.864 256 114.432 256 128z" fill="url(#a)"/><path d="M204.032 207.872H75.008c-8.448 0-16.64-4.608-20.48-12.032-4.608-8.704-2.816-19.2 4.096-26.112l89.856-89.856H83.968c-17.664 0-32-14.336-32-32h118.784c8.448 0 16.64 4.608 20.48 12.032 4.608 8.704 2.816 19.2-4.096 26.112l-89.6 90.112h74.496c17.664 0 32 14.08 32 31.744z" fill="#fff"/></svg>