<svg width="512" height="327" xmlns="http://www.w3.org/2000/svg" preserveAspectRatio="xMidYMid"><path d="M92.354 96.1l4.734 3.975-57.397 68.357-4.734-3.975 57.397-68.356zm-12.387 38.378c9.209 0 16.674 7.465 16.674 16.674 0 9.21-7.465 16.674-16.674 16.674s-16.674-7.465-16.674-16.674 7.465-16.674 16.674-16.674zm0 9.654a7.02 7.02 0 100 14.041 7.02 7.02 0 000-14.041zm-28.083-47.39c9.209 0 16.674 7.465 16.674 16.674s-7.465 16.674-16.674 16.674c-9.21 0-16.674-7.465-16.674-16.674s7.465-16.674 16.674-16.674zm0 9.653a7.02 7.02 0 100 14.042 7.02 7.02 0 000-14.042zm107.568 55.25h-40.986v6.18h40.986v-6.18z" fill="#F15A24"/><path d="M295.228 0c28.884 0 52.298 23.415 52.298 52.299V317.82h-17.59V78.127H17.59v196.19c0 19.169 15.54 34.708 34.709 34.708h119.345v17.59H52.3C23.415 326.615 0 303.2 0 274.316V52.3C0 23.415 23.415 0 52.299 0h242.93zm0 17.59H52.3c-19.17 0-34.71 15.54-34.71 34.709v8.24l312.347-.002V52.3c0-19.17-15.54-34.709-34.708-34.709z"/><path d="M239.842 317.663a9.06 9.06 0 00-9.058-9.057c-.068 0-.136 0-.205.01H210.22c-.172 0-.34-.039-.491-.122a1.027 1.027 0 01-.377-.338 1.023 1.023 0 01-.175-.475.97.97 0 01.07-.501l29.775-74.237a8.045 8.045 0 00-.803-7.499 8.044 8.044 0 00-6.66-3.535h-31.38c-.18-.01-.355-.03-.535-.03a8.824 8.824 0 00-8.157 5.45 8.825 8.825 0 000 6.757 8.815 8.815 0 008.157 5.446c.139 0 .274-.01.41-.02h16.262c.178 0 .355.05.513.127a1.096 1.096 0 01.574.85c.02.177 0 .356-.07.522l-25.819 64.482a9.7 9.7 0 00-.695 3.608v7.907a9.708 9.708 0 009.707 9.708h30.265a9.058 9.058 0 006.4-2.651 9.054 9.054 0 002.652-6.4l-.002-.002zm52.415-73.307a46.384 46.384 0 00-.809-9.482l-.156-.78c-.55-2.843-1.654-5.108-3.306-6.796-1.563-1.778-3.767-3.021-6.615-3.732-2.756-.8-6.293-1.2-10.61-1.2-4.134 0-8.868.4-11.717 1.2a13.692 13.692 0 00-6.751 3.865c-1.653 1.866-2.848 4.398-3.582 7.597-.703 2.968-1.069 6.705-1.1 11.212l-.002 1.945c.009 4.026.057 7.326.136 9.899a51.97 51.97 0 00.828 6.93 13.462 13.462 0 001.79 4.265 17.093 17.093 0 002.756 3.065 28.108 28.108 0 004.686 3.331c1.47.853 2.969 1.678 4.497 2.474l1.152.592c1.929.978 3.766 1.999 5.512 3.065a23.449 23.449 0 014.548 3.332 18.817 18.817 0 011.515 1.865c.335.395.595.846.769 1.334.158.435.292.878.398 1.33.152.701.222 1.417.211 2.134.089 1.066.138 2.533.138 4.399.04 2.538-.1 5.076-.413 7.596a10.816 10.816 0 01-1.103 4.131 3.789 3.789 0 01-2.205 1.733c-.918.266-4.094.4-5.471.4-1.117.02-2.23-.114-3.308-.4a4.552 4.552 0 01-2.066-1.866 15.471 15.471 0 01-1.103-3.998 64.003 64.003 0 01-.275-6.651 6.431 6.431 0 00-.04-.742h-.059a7.409 7.409 0 00-2.494-4.555 7.474 7.474 0 00-9.767 0 7.409 7.409 0 00-2.494 4.555h-.04c-.029.271-.039.543-.039.816v.335l.047 3.588.002.523c0 5.241.368 9.506 1.103 12.794.827 3.197 2.113 5.73 3.858 7.596a13.265 13.265 0 006.22 3.508l.395.09a38.52 38.52 0 009.077 1.074l1.635-.013c4.254-.051 9.385-.45 12.122-1.194a12.986 12.986 0 007.027-4.531c1.838-2.221 3.124-5.286 3.858-9.196.795-3.838 1.207-8.7 1.239-14.585l.002-.74c0-4.533-.138-8.175-.414-10.93a23.83 23.83 0 00-1.24-6.796 11.062 11.062 0 00-2.617-4.265 21.725 21.725 0 00-3.997-3.198 39.252 39.252 0 00-4.134-2.266 63.664 63.664 0 00-4.96-2.532 122.368 122.368 0 01-4.961-2.666 41.516 41.516 0 01-3.997-2.798 13.62 13.62 0 01-1.653-1.6 5.77 5.77 0 01-.827-1.999 21.1 21.1 0 01-.413-3.065v-5.064c-.02-1.915.069-3.828.276-5.731a9.13 9.13 0 01.964-3.332 3.327 3.327 0 012.067-1.465c.827-.268 3.127-.4 4.413-.4 2.94 0 4.776.843 5.511 2.532a7.919 7.919 0 01.96 3.464l.018.688c.019.847.031 1.838.031 2.867h.05v.05c0 1.97.785 3.86 2.185 5.252a7.477 7.477 0 005.276 2.175 7.478 7.478 0 005.276-2.175 7.41 7.41 0 002.18-4.958l.006-.344v-3.555h.004zm55.169-13.723a8.703 8.703 0 00-9.459-8.718 8.716 8.716 0 00-6.163 3.383 8.71 8.71 0 00-1.653 6.834v31.028c0 .515-.204 1.009-.569 1.373-.364.365-.858.569-1.373.569h-10.766a1.942 1.942 0 01-1.942-1.942v-32.529a8.707 8.707 0 00-17.407-.314l-.005.511v87.244a8.708 8.708 0 0014.863 6.156 8.707 8.707 0 002.544-5.842l.006-.354V283.49a1.942 1.942 0 011.941-1.942h10.766a1.942 1.942 0 011.942 1.942v33.044a8.678 8.678 0 001.89 7.113 8.68 8.68 0 006.298 3.086l.45.007a8.644 8.644 0 007.98-5.333 8.635 8.635 0 00.657-3.305v-87.468zm116.219 95.866a2.464 2.464 0 01-2.464-2.465v-93.653a8.499 8.499 0 018.5-8.499 8.5 8.5 0 018.499 8.499v76.374c0 .905.734 1.64 1.64 1.64h23.128a9.052 9.052 0 010 18.104h-39.303zm-56.79 0a2.465 2.465 0 01-2.465-2.465v-93.653a8.5 8.5 0 018.5-8.499c4.694 0 8.499 3.805 8.499 8.499v76.374c0 .905.733 1.64 1.64 1.64h23.128a9.052 9.052 0 110 18.104h-39.302zm-50.075 0a3.357 3.357 0 01-3.357-3.357v-97.893a3.367 3.367 0 013.368-3.367h33.032a8.637 8.637 0 110 17.275H372.52a2.096 2.096 0 00-2.097 2.096v21.543c0 1.141.925 2.065 2.065 2.065h17.336a8.223 8.223 0 110 16.447h-17.336c-1.14 0-2.065.924-2.065 2.065v22.936c0 1.152.934 2.086 2.086 2.086h16.763a9.052 9.052 0 010 18.104h-32.49z"/></svg>