<svg width="512px" height="327px" viewBox="0 0 512 327" xmlns="http://www.w3.org/2000/svg" preserveAspectRatio="xMidYMid"><title>zsh</title><path d="M92.3540355 96.1005401l4.7338014 3.9748059-57.3969151 68.356947-4.7338014-3.974806 57.3969151-68.3569469zM79.9668579 134.478157c9.2088896 0 16.6741697 7.46528 16.6741697 16.67417 0 9.20889-7.4652801 16.67417-16.6741697 16.67417-9.2088897 0-16.6741697-7.46528-16.6741697-16.67417 0-9.20889 7.46528-16.67417 16.6741697-16.67417zm0 9.653448c-3.8774379 0-7.0207223 3.143284-7.0207223 7.020722 0 3.877438 3.1432844 7.020722 7.0207223 7.020722 3.8774378 0 7.0207222-3.143284 7.0207222-7.020722 0-3.877438-3.1432844-7.020722-7.0207222-7.020722zM51.8838111 96.7418406c9.2088896 0 16.6741697 7.4652804 16.6741697 16.6741694 0 9.20889-7.4652801 16.67417-16.6741697 16.67417-9.2088897 0-16.6741697-7.46528-16.6741697-16.67417 0-9.208889 7.46528-16.6741694 16.6741697-16.6741694zm0 9.6534474c-3.8774378 0-7.0207223 3.143284-7.0207223 7.020722 0 3.877438 3.1432845 7.020723 7.0207223 7.020723 3.8774378 0 7.0207222-3.143285 7.0207222-7.020723 0-3.877438-3.1432844-7.020722-7.0207222-7.020722zm107.5686709 55.248841h-40.986948v6.181258h40.986948v-6.181258z" fill="#f15a24"/><path d="M295.228466 0c28.883311 0 52.29803 23.4150853 52.29803 52.2990161V317.820155h-17.590392V78.1265923l-312.3465995 9.863e-4 8.876e-4 196.1887564c0 19.169209 15.5394152 34.708624 34.708624 34.708624H171.644322v17.590392H52.2990161c-28.8841141 0-52.29901609999999-23.414902-52.29901609999999-52.299016l3.68531e-16-222.0173189C1.45793857e-14 23.414902 23.414902 0 52.2990161 0H295.228466zm0 17.5903921H52.2990161c-19.1692088 0-34.7095116 15.5394152-34.7095116 34.708624v8.239058l312.3465995-9.862e-4v-8.2380718c0-19.1690872-15.539294-34.708624-34.707638-34.708624z"/><path d="M239.842484 317.663344c0-2.401483-.954675-4.705328-2.652972-6.404611-1.699283-1.698297-4.003129-2.651987-6.404612-2.651987-.069036 0-.137086 0-.206123.009862h-20.357866c-.171605 0-.340251-.039449-.491145-.122293-.151881-.078898-.281077-.19626-.376742-.338278-.098624-.142018-.155825-.304747-.174564-.475366-.019725-.169632 0-.342223.069037-.501007l29.775426-74.236881c.489173-1.220959.672612-2.542514.532567-3.849276-.140045-1.306761-.598645-2.560266-1.335363-3.64907-.736717-1.088804-1.72887-1.98036-2.889669-2.596757-1.160798-.616397-2.455725-.938896-3.770377-.938896h-31.381017c-.178508-.009863-.354058-.029587-.534539-.029587-1.158827 0-2.306804.22782-3.377856.671626-1.071051.443806-2.044465 1.093735-2.864027 1.913296-.820548.820548-1.470476 1.792976-1.914282 2.864027-.443806 1.071052-.671633 2.219029-.671633 3.378842-9.8e-4 1.159812.226841 2.30779.670646 3.378842.44282 1.071051 1.093735 2.044465 1.913297 2.864027.819561.819561 1.793961 1.46949 2.865013 1.91231 1.071051.443805 2.219029.67064 3.378842.669653.139059 0 .274173-.009862.41126-.019724h16.261045c.178509 0 .355045.049311.512843.127224.157797.078899.291925.205137.392521.353072.09961.147935.162729.318554.181468.496076.019724.177523 0 .357018-.069037.522705l-25.819637 64.482029c-.459586 1.146991-.695296 2.371895-.695296 3.607648v7.907634c0 2.574073 1.022726 5.043606 2.843316 6.864197 1.82059 1.82059 4.289137 2.843316 6.864197 2.843316h30.264599c1.1894 0 2.365978-.233738 3.464644-.688393 1.09768-.45564 2.09575-1.122335 2.936022-1.962608.841259-.840272 1.507954-1.838342 1.962608-2.937008.454655-1.09768.689379-2.275245.689379-3.463658l-.001973-9.86e-4zm52.414455-73.306861c.054623-3.180836-.213447-6.358311-.808862-9.482004l-.155676-.779773c-.551305-2.843316-1.653916-5.108699-3.306846-6.797133-1.562197-1.777196-3.766432-3.020838-6.61468-3.731914-2.755541-.798851-6.293166-1.199262-10.609918-1.199262-4.134298 0-8.868226.400411-11.716474 1.199262-2.579005.609493-4.925258 1.952746-6.751766 3.865056-1.65293 1.865957-2.847261 4.398609-3.582006 7.596969-.702289 2.968254-1.068496 6.705723-1.100337 11.212406l-9.41e-4 1.944756c.008409 4.026595.056338 7.32652.135754 9.899044.120321 2.325543.396466 4.641223.827451 6.930275.346169 1.512885.951717 2.955747 1.791003 4.264481.790961 1.128253 1.716049 2.157882 2.755541 3.065219 1.443849 1.267312 3.012949 2.38373 4.685604 3.331502 1.469885.852896 2.968804 1.677389 4.497264 2.473478l1.151891.591741c1.929076.978345 3.766432 1.999099 5.512068 3.065219 1.645041.924102 3.171733 2.043479 4.547531 3.332489.544402.588782 1.051326 1.212083 1.515843 1.86497.334334.394495.5947.84619.768277 1.33339.158784.43493.291926.878736.398439 1.329445.151881.7022.221903 1.418207.211055 2.1352.088761 1.06612.138073 2.532652.138073 4.398609.039449 2.538569-.09961 5.076152-.413233 7.595983-.088761 1.435958-.46353 2.840357-1.102611 4.131339-.485228.837314-1.274216 1.457656-2.205222 1.732815-.918185.266284-4.093862.399426-5.471632.399426-1.116419.019724-2.229878-.113417-3.307833-.399426-.867887-.391535-1.589811-1.044423-2.066163-1.865957-.545388-1.277174-.916212-2.622399-1.102611-3.998197-.207109-2.211139-.298829-4.431155-.27516-6.65117-9.86e-4-.247545-.009862-.49509-.039449-.741649h-.059174c-.253462-1.767333-1.139102-3.385745-2.494189-4.55542-1.355087-1.170661-3.088888-1.814673-4.88285-1.814673-1.793962 0-3.527763.644012-4.883837 1.814673-1.355087 1.169675-2.240726 2.788087-2.494189 4.55542h-.039449c-.029587.271215-.039449.543416-.039449.815617v.335319l.046451 3.58831.00286.522319c0 5.24184.367866 9.506321 1.102611 12.794429.826465 3.197374 2.112516 5.730026 3.858152 7.595983 1.712624 1.716361 3.865168 2.928184 6.220319 3.508009l.394361.090763c2.972653.717064 6.02014 1.076969 9.07692 1.073426l1.635143-.013019c4.254117-.051415 9.385029-.449859 12.12224-1.194535 2.780197-.696282 5.251702-2.289052 7.026925-4.530764 1.837357-2.221002 3.123407-5.286221 3.858153-9.195657.794353-3.83827 1.206962-8.699977 1.2387-14.585121l.001983-.740974c0-4.53175-.138073-8.173917-.414218-10.928472-.078899-2.312721-.500022-4.602759-1.239698-6.797133-.53454-1.601646-1.430041-3.060287-2.617468-4.264481-1.201235-1.219972-2.542515-2.292996-3.996225-3.19836-1.331418-.837314-2.712147-1.593756-4.134298-2.265382-1.562197-.888598-3.215127-1.732816-4.960763-2.532652-1.74465-.888598-3.398566-1.777196-4.960763-2.665794-1.38566-.853094-2.720037-1.788044-3.996225-2.797949-.595686-.486214-1.147978-1.020754-1.65293-1.599674-.399425-.608507-.680502-1.287037-.827451-1.999098-.212041-1.009905-.3511-2.034604-.413233-3.065219v-5.064318c-.019725-1.914283.069037-3.827579.276146-5.731013.105527-1.161785.432957-2.29201.964538-3.331502.467475-.740663 1.21011-1.268299 2.066163-1.465546.827451-.267269 3.127351-.400411 4.413402-.400411 2.939967 0 4.776337.844217 5.511082 2.532652.581879 1.067106.909309 2.251575.959607 3.464644l.018155.687551c.019225.846544.031157 1.838197.031157 2.866841h.049312v.049311c0 1.970498.786029 3.860125 2.185497 5.252689 1.399467 1.39355 3.296984 2.175635 5.276358 2.175635 1.978388 0 3.87689-.782085 5.276358-2.175635 1.329495-1.322936 2.105361-3.094471 2.179624-4.957772l.005873-.344228v-3.554392l.003945-9.86e-4zm55.16901-13.723463c0-1.21011-.239655-2.409372-.72291-3.518887-.483256-1.110501-1.192359-2.107584-2.082929-2.928132-.889584-.820548-1.940911-1.445821-3.086916-1.837356-1.145019-.390549-2.360061-.539471-3.566227-.433944-1.206165.104541-2.376826.459586-3.438015 1.041465-1.061189.582865-1.989237 1.380729-2.724968 2.342308-.734745.961579-1.262381 2.066163-1.546417 3.242741-.285022 1.176579-.321513 2.399511-.106513 3.590883v31.027945c0 .514815-.204151 1.008918-.569058 1.372839-.363921.364907-.858025.569058-1.372839.569058h-10.765744c-.514814 0-1.008918-.204151-1.372839-.569058-.363921-.363921-.569058-.858024-.569058-1.372839v-32.528995c0-2.308777-.917198-4.523861-2.549418-6.15608-1.633205-1.633206-3.847303-2.550404-6.157066-2.550404-2.308776 0-4.522874.917198-6.15608 2.550404-1.558027 1.558027-2.465457 3.647136-2.544732 5.841873l-.005672.511454v87.24335c0 2.308777.918185 4.523861 2.550404 6.15608 1.633206 1.633206 3.847304 2.550404 6.15608 2.550404 2.309763 0 4.523861-.917198 6.157066-2.550404 1.558028-1.558027 2.464559-3.647136 2.543752-5.841873l.005666-.353656v-34.542887c0-.514815.205137-1.008919.569058-1.37284.363921-.363921.858025-.569058 1.372839-.569058h10.765744c.514814 0 1.008918.205137 1.372839.569058.364907.363921.569058.858025.569058 1.37284v33.043809c-.225848 1.251533-.173578 2.537583.152866 3.767419.32743 1.228849.920158 2.370909 1.737747 3.345309.818575.973415 1.840314 1.755499 2.99421 2.290039 1.039393.481085 2.161866.751274 3.302714.796187l.44991.006608c1.134171 0 2.257493-.223875 3.305861-.657819 1.047381-.433943 2.000085-1.070065 2.801894-1.871874.801809-.80181 1.437931-1.754513 1.87286-2.802881.433944-1.047381.656833-2.170703.656833-3.304874V230.63302zm116.21894 95.866005c-1.361004 0-2.463615-1.103597-2.463615-2.464602v-93.653879c0-4.693493 3.804895-8.498389 8.499374-8.498389 4.693494 0 8.499375 3.804896 8.499375 8.498389v76.374052c0 .905364.733759 1.64011 1.639123 1.64011h23.129188c4.999226 0 9.051666 4.05244 9.051666 9.051666 0 4.999226-4.05244 9.052653-9.051666 9.052653h-39.303445zm-56.79038 0c-1.361005 0-2.464602-1.103597-2.464602-2.464602v-93.653879c0-4.693493 3.805881-8.498389 8.499375-8.498389 4.694479 0 8.499375 3.804896 8.499375 8.498389v76.374052c0 .905364.733758 1.64011 1.640109 1.64011h23.128201c4.999226 0 9.052653 4.05244 9.052653 9.051666 0 4.999226-4.053427 9.052653-9.052653 9.052653h-39.302458zm-50.074119 0c-1.854122 0-3.357145-1.503023-3.357145-3.357145v-97.892718c0-1.860039 1.507954-3.367007 3.367993-3.367007h33.031975c4.77042 0 8.637448 3.867029 8.637448 8.637448 0 4.769434-3.867028 8.637448-8.637448 8.637448h-17.304482c-1.15784 0-2.096736.93791-2.096736 2.09575v21.543321c0 1.141074.925088 2.065176 2.065176 2.065176h17.336042c4.541613 0 8.223229 3.681616 8.223229 8.223229 0 4.541613-3.681616 8.223229-8.223229 8.223229h-17.336042c-1.140088 0-2.065176.924103-2.065176 2.065177v22.935885c0 1.151923.933965 2.085888 2.085887 2.085888h16.76304c4.999226 0 9.051666 4.05244 9.051666 9.051666 0 4.999226-4.05244 9.052653-9.051666 9.052653H356.78039z"/></svg>