<svg width="256px" height="256px" viewBox="0 0 256 256" xmlns="http://www.w3.org/2000/svg" preserveAspectRatio="xMidYMid"><defs><linearGradient x1="50%" y1="0%" x2="50%" y2="100%" id="a"><stop stop-color="#24adff"/><stop stop-color="#7b71ff" offset="1"/></linearGradient></defs><path d="M128 0c70.692448 0 128 57.307552 128 128 0 70.692448-57.307552 128-128 128C57.307552 256 0 198.692448 0 128 0 57.307552 57.307552 0 128 0zm-6.320467 118.222163-45.8917994 40.978734c-4.7273789 3.719805-7.8292457 9.859614-7.8292457 16.766519 0 11.278132 8.2736741 20.507631 18.3859424 20.507631h86.2465077c10.112269 0 18.385943-9.229499 18.385943-20.507631 0-11.281176-8.273674-20.507632-18.385943-20.507632h-65.291404c-.968001 0-1.579851-1.159775-1.108027-2.103425l16.833487-33.703502c.614894-.983222-.493133-2.161262-1.345461-1.430694zm50.911405-58.8593715H86.3444303c-10.1122683 0-18.3859424 9.2264585-18.3859424 20.5076345 0 11.2781319 8.2736741 20.507632 18.3859424 20.507632h0 65.2914037c.968002 0 1.579852 1.159775 1.108027 2.103424h0l-16.833487 33.703503c-.614894.983222.493133 2.161261 1.345462 1.430694h0l45.891799-40.9848227c4.727379-3.7228489 7.829246-9.8596138 7.829246-16.7665184 0-11.2781319-8.273674-20.5076315-18.385943-20.5015464h0z" fill="url(#a)"/></svg>