<svg width="256px" height="114px" viewBox="0 0 256 114" xmlns="http://www.w3.org/2000/svg" preserveAspectRatio="xMidYMid"><path d="M115.7771 63.7932h12.39l3.621 22.286 4.019-22.286h8.628l4.329 22.286 3.942-22.286h11.586l-9.425 33.711h-10.914l-3.476-17.62-4.115 17.62h-10.54l-10.045-33.711zm77.7209.0804h13.195l5.31 20.436 5.954-20.677h12.551l-12.563 33.872h-11.84l-12.607-33.631zm40.0668 1e-4v33.63h22.435v-8.608h-10.768v-4.023h9.735v-8.69h-9.735v-3.781h10.62v-8.528h-22.287zm-56.7615 21.4415 3.258-11.827 2.475 11.827h-5.733zm10.097-21.522h-13.657l-12.274 33.711h12.953l1.151-4.666h9.514l1 4.666h13.289l-11.976-33.711zM96.8698 86.9646l-6.436 10.459h-27.999l15.528-24.056h-14.346l5.978-9.574h27.275l-14.563 23.171h14.563zm-15.999-37.975c-17.863 0-32.344 14.48-32.344 32.343 0 17.863 14.481 32.344 32.344 32.344 17.862 0 32.343-14.481 32.343-32.344 0-17.863-14.481-32.343-32.343-32.343zM80.135 10.642V0C35.845.196 1.13686838e-13 36.152 1.13686838e-13 80.488 1.13686838e-13 80.69.014 80.889.016 81.091h10.611c.129-38.542 31.089-69.803 69.508-70.449zm0 22.1968v-10.635c-.081-.001-.16-.007-.241-.007-32.393 0-58.653 26.26-58.653 58.653 0 .081.006.161.006.241h10.635c.448-26.453 21.799-47.804 48.253-48.252z" fill="#00396f"/></svg>